<svg width="7" height="12" viewBox="0 0 7 12" fill="none" xmlns="http://www.w3.org/2000/svg">
<path id="Rectangle Copy 3" d="M6.63771 6.4574L1.25016 11.8386C1.12932 11.9466 0.971719 12.0043 0.809703 11.9998C0.647686 11.9952 0.493553 11.9288 0.378945 11.8142C0.264337 11.6996 0.197952 11.5455 0.193418 11.3835C0.188883 11.2214 0.246544 11.0638 0.354563 10.943L5.28797 6.00833L0.354562 1.07492C0.239024 0.955292 0.175092 0.795072 0.176537 0.628766C0.177982 0.462461 0.244689 0.303375 0.362289 0.185776C0.479889 0.0681753 0.638974 0.00146959 0.805279 2.4768e-05C0.971585 -0.00142101 1.1318 0.0625104 1.25143 0.17805L6.63771 5.55545C6.75662 5.6744 6.82342 5.8357 6.82342 6.00389C6.82342 6.17207 6.75662 6.33338 6.63771 6.45232L6.63771 6.4574Z" fill="#1C1C1C"/>
</svg>
