<svg width="48" height="48" viewBox="0 0 48 48" fill="none" xmlns="http://www.w3.org/2000/svg">
<g id="icon_default">
<path id="Union" d="M37.5507 12.6215C38.1504 12.0217 38.1504 11.0493 37.5507 10.4496C36.9509 9.84982 35.9784 9.84982 35.3787 10.4496L24.0005 21.8278L12.6222 10.4496C12.0225 9.84982 11.0501 9.84982 10.4503 10.4496C9.85055 11.0493 9.85055 12.0217 10.4503 12.6215L21.8285 23.9997L10.4503 35.3779C9.85055 35.9777 9.85055 36.9502 10.4503 37.5499C11.0501 38.1497 12.0225 38.1497 12.6222 37.5499L24.0005 26.1717L35.3787 37.5499C35.9784 38.1497 36.9509 38.1497 37.5507 37.5499C38.1504 36.9502 38.1504 35.9777 37.5507 35.3779L26.1725 23.9997L37.5507 12.6215Z" fill="#555555"/>
</g>
</svg>
