<svg width="40" height="40" viewBox="0 0 40 40" fill="none" xmlns="http://www.w3.org/2000/svg">
<g clip-path="url(#clip0_1608_1887)">
<path d="M36.7341 0H3.2659C1.46208 0 0 1.08805 0 2.43042V38.7614C0 39.8015 1.62086 40.3767 2.70654 39.7217L17.4958 30.8055C18.9562 29.925 21.0446 29.925 22.5042 30.8055L37.2935 39.7217C38.3791 40.3767 40 39.8015 40 38.7614V2.43042C40 1.08805 38.5379 0 36.7341 0Z" fill="#CCCCCC"/>
<path d="M16.926 9.282H18.69V22.246H16.926V9.282ZM15.19 14.266H17.346V15.764H15.19V14.266ZM14.028 9.506H15.75V21.63H14.028V9.506ZM7.924 17.794H8.834C10.43 17.794 11.76 17.738 13.3 17.458L13.44 18.97C11.872 19.278 10.5 19.32 8.834 19.32H7.924V17.794ZM7.924 10.78H12.712V12.278H9.772V18.522H7.924V10.78ZM23.3229 16.338H25.1849V19.824H23.3229V16.338ZM27.3969 16.352H29.2449V19.838H27.3969V16.352ZM20.4529 19.32H32.1849V20.832H20.4529V19.32ZM21.3489 10.304H31.2189V11.788H21.3489V10.304ZM21.4049 15.428H31.1769V16.898H21.4049V15.428ZM23.1129 11.536H24.9749V15.638H23.1129V11.536ZM27.6069 11.536H29.4549V15.638H27.6069V11.536Z" fill="white"/>
</g>
<defs>
<clipPath id="clip0_1608_1887">
<rect width="40" height="40" fill="white"/>
</clipPath>
</defs>
</svg>
