<svg width="40" height="40" viewBox="0 0 40 40" fill="none" xmlns="http://www.w3.org/2000/svg">
<g clip-path="url(#clip0_1608_1884)">
<path d="M36.7341 0H3.2659C1.46208 0 0 1.08805 0 2.43042V38.7614C0 39.8015 1.62086 40.3767 2.70654 39.7217L17.4958 30.8055C18.9562 29.925 21.0446 29.925 22.5042 30.8055L37.2935 39.7217C38.3791 40.3767 40 39.8015 40 38.7614V2.43042C40 1.08805 38.5379 0 36.7341 0Z" fill="#FF6800"/>
<path d="M9.786 12.292V17.78C10.99 17.752 12.082 17.682 13.314 17.458L13.454 18.956C11.886 19.25 10.514 19.306 8.862 19.306H7.966V10.794H12.74V12.292H9.786ZM16.912 9.296H18.662V22.204H16.912V15.75H15.75V21.602H14.028V9.548H15.75V14.266H16.912V9.296ZM25.1849 16.884V19.306H27.4109V16.884H25.1849ZM24.9749 11.802V15.428H27.6069V11.802H24.9749ZM29.2449 19.306H32.1569V20.79H20.4669V19.306H23.3509V16.884H21.4609V15.428H23.1409V11.802H21.3909V10.332H31.1909V11.802H29.4409V15.428H31.1629V16.884H29.2449V19.306Z" fill="white"/>
</g>
<defs>
<clipPath id="clip0_1608_1884">
<rect width="40" height="40" fill="white"/>
</clipPath>
</defs>
</svg>
