<svg width="546" height="149" viewBox="0 0 546 149" fill="none" xmlns="http://www.w3.org/2000/svg">
<g filter="url(#filter0_dd_311_23224)">
<rect x="41.4666" y="14" width="275.077" height="117.815" rx="11.1878" fill="white" shape-rendering="crispEdges"/>
<path d="M53.5196 31.0298H59.7847V32.5364H55.3693V34.759H59.5759V36.206H55.3693V38.7419C57.2787 38.727 58.845 38.6822 60.6052 38.3988L60.7693 39.8607C58.7555 40.1889 56.9356 40.2485 54.6234 40.2485H53.5196V31.0298ZM61.5748 43.2916V29.9259H63.4245V35.0275H65.3936V36.5491H63.4245V43.2916H61.5748ZM74.9856 29.8961H76.8502V43.3065H74.9856V29.8961ZM66.1547 35.6093C66.1547 32.6856 67.6464 30.8507 69.6751 30.8507C71.6889 30.8507 73.1657 32.6856 73.1657 35.6093C73.1657 38.548 71.6889 40.3828 69.6751 40.3828C67.6464 40.3828 66.1547 38.548 66.1547 35.6093ZM67.9447 35.6093C67.9447 37.6082 68.6458 38.7121 69.6751 38.7121C70.6895 38.7121 71.3906 37.6082 71.3906 35.6093C71.3906 33.6104 70.6895 32.5215 69.6751 32.5215C68.6458 32.5215 67.9447 33.6104 67.9447 35.6093ZM80.1025 30.2093H89.2765V31.4623H81.9373V32.1336H88.9782V33.327H81.9373V34.0281H89.381V35.2811H80.1025V30.2093ZM78.6257 37.28V35.9226H90.6638V37.28H78.6257ZM79.9832 39.2342V37.9513H89.202V41.1435H81.818V41.9043H89.56V43.1872H80.013V39.9203H87.3821V39.2342H79.9832ZM96.4292 33.1629C97.0557 33.1629 97.3988 33.5806 97.3988 34.1325C97.3988 34.6844 97.0557 35.1021 96.4292 35.1021C95.8027 35.1021 95.4596 34.6844 95.4596 34.1325C95.4596 33.5806 95.8027 33.1629 96.4292 33.1629ZM95.4596 39.1447C95.4596 38.5927 95.8027 38.175 96.4292 38.175C97.0557 38.175 97.3988 38.5927 97.3988 39.1447C97.3988 39.6817 97.0557 40.1143 96.4292 40.1143C95.8027 40.1143 95.4596 39.6817 95.4596 39.1447ZM105.77 30.8507C107.56 30.8507 108.918 32.3275 109.171 34.759H111.484V29.8961H113.318V43.3065H111.484V36.2358H109.186C109.007 38.8016 107.62 40.3828 105.77 40.3828C103.786 40.3828 102.339 38.548 102.339 35.6093C102.339 32.6856 103.786 30.8507 105.77 30.8507ZM104.1 35.6093C104.1 37.6082 104.771 38.7121 105.77 38.7121C106.785 38.7121 107.456 37.6082 107.456 35.6093C107.456 33.6104 106.785 32.5215 105.77 32.5215C104.771 32.5215 104.1 33.6104 104.1 35.6093ZM114.96 40.2336H127.057V41.7551H114.96V40.2336ZM116.332 32.2977V30.8209H125.685V35.2364H118.182V36.7878H125.983V38.2795H116.362V33.7894H123.85V32.2977H116.332ZM136.978 29.9259H138.842V39.6668H136.978V29.9259ZM127.714 36.3999C129.937 35.6242 130.921 33.7596 130.921 31.9695V30.6419H132.801V31.9695C132.801 33.7297 133.755 35.4601 135.933 36.1612L134.979 37.638C133.487 37.1308 132.458 36.1165 131.876 34.8336C131.294 36.206 130.22 37.3099 128.669 37.8618L127.714 36.3999ZM129.967 43.038V38.7419H131.816V41.5612H139.185V43.038H129.967Z" fill="#1A1A1A"/>
<path d="M54.3195 61.2022H55.703V62.4683H60.6891V61.2022H62.0857V65.888H58.8748V66.9845H63.4301V68.107H52.949V66.9845H57.4782V65.888H54.3195V61.2022ZM54.2542 72.1532V68.9032H55.6639V71.0046H62.2684V72.1532H54.2542ZM55.703 64.7786H60.6891V63.5517H55.703V64.7786ZM64.3441 66.5929H74.8513V67.7023H70.4265V69.8299H69.0169V67.7023H64.3441V66.5929ZM65.6232 72.1532V68.7857H67.0198V71.0177H73.7027V72.1532H65.6232ZM65.6754 65.4834V61.2675H73.5069V65.4834H65.6754ZM67.0459 64.374H72.1233V62.3769H67.0459V64.374ZM80.2745 63.63C80.7574 63.63 81.0316 63.9693 81.0316 64.387C81.0316 64.8177 80.7574 65.1571 80.2745 65.1571C79.7785 65.1571 79.5044 64.8177 79.5044 64.387C79.5044 63.9693 79.7785 63.63 80.2745 63.63ZM79.5044 68.7726C79.5044 68.355 79.7785 68.0156 80.2745 68.0156C80.7574 68.0156 81.0316 68.355 81.0316 68.7726C81.0316 69.2034 80.7574 69.5427 80.2745 69.5427C79.7785 69.5427 79.5044 69.2034 79.5044 68.7726ZM94.1538 60.7584H95.4982V68.0548H94.1538V64.8961H93.0313V67.6632H91.713V60.9934H93.0313V63.7474H94.1538V60.7584ZM85.5783 63.134V62.0245H87.7842V60.8628H89.1547V62.0245H91.3344V63.134H85.5783ZM85.996 65.6009C85.996 64.4001 87.0141 63.5908 88.4759 63.5908C89.9378 63.5908 90.9559 64.4001 90.9559 65.6009C90.9559 66.8148 89.9378 67.611 88.4759 67.611C87.0141 67.611 85.996 66.8148 85.996 65.6009ZM87.236 65.6009C87.236 66.2274 87.745 66.6059 88.4759 66.6059C89.2069 66.6059 89.729 66.2274 89.729 65.6009C89.729 64.9744 89.2069 64.622 88.4759 64.622C87.745 64.622 87.236 64.9744 87.236 65.6009ZM87.6797 70.2867C87.6797 68.9554 89.1547 68.2114 91.6085 68.2114C94.0754 68.2114 95.5634 68.9554 95.5634 70.2867C95.5634 71.605 94.0754 72.349 91.6085 72.349C89.1547 72.349 87.6797 71.605 87.6797 70.2867ZM89.0633 70.2867C89.0633 70.9524 89.9639 71.2918 91.6085 71.2918C93.2531 71.2918 94.1538 70.9524 94.1538 70.2867C94.1538 69.608 93.2531 69.2686 91.6085 69.2686C89.9639 69.2686 89.0633 69.608 89.0633 70.2867ZM97.0648 66.6059H101.594V65.4573H98.4353V61.0456H99.8188V62.1942H104.805V61.0456H106.201V65.4573H102.991V66.6059H107.546V67.7284H97.0648V66.6059ZM98.2264 69.7907V68.6813H106.267V72.3621H104.87V69.7907H98.2264ZM99.8188 64.3479H104.805V63.2645H99.8188V64.3479ZM111.86 62.0115H116.363V65.0396H117.733V60.9803H119.038V71.8139H117.733V66.1752H116.363V69.3731H111.86V62.0115ZM113.165 68.2766H115.057V63.1209H113.165V68.2766ZM120.057 72.3621V60.7584H121.401V72.3621H120.057ZM131.047 60.7584H132.457V72.3882H131.047V60.7584ZM123.607 69.5688V61.8157H129.154V62.9643H125.004V68.3941C127.131 68.3811 128.489 68.3289 130.029 68.0287L130.159 69.2034C128.489 69.5166 127.014 69.5688 124.586 69.5688H123.607ZM140.236 61.2283C140.236 64.2304 138.474 66.2274 134.937 67.115L134.415 66.0186C136.06 65.6139 137.195 64.9874 137.887 64.2173L134.624 64.4653L134.415 63.3689L138.526 63.1992C138.631 62.9251 138.709 62.638 138.735 62.3378H134.989V61.2283H140.236ZM135.851 68.3158V67.2324H143.382V70.2084H137.273V71.1482H143.747V72.2185H135.864V69.1773H141.972V68.3158H135.851ZM141.972 66.7495V60.7584H143.382V63.2384H144.987V64.387H143.382V66.7495H141.972ZM149.288 61.6199H155.149V62.3117C155.149 63.0948 155.149 64.2304 154.861 65.7184L153.491 65.5617C153.726 64.3609 153.765 63.4603 153.778 62.7555H149.288V61.6199ZM148.583 66.6581C149.262 66.6581 150.032 66.6581 150.841 66.632V64.2695H152.238V66.5929C153.439 66.5407 154.666 66.4493 155.775 66.2927L155.867 67.2977C153.478 67.7284 150.737 67.7807 148.727 67.7807L148.583 66.6581ZM150.319 72.1402V68.6813H151.716V71.0046H158.255V72.1402H150.319ZM156.467 69.4644V60.7584H157.877V64.4001H159.391V65.5487H157.877V69.4644H156.467ZM163.359 61.4241C165.134 61.4241 166.465 62.5858 166.465 64.2173C166.465 65.8619 165.134 67.0106 163.359 67.0106C161.597 67.0106 160.266 65.8619 160.266 64.2173C160.266 62.5858 161.597 61.4241 163.359 61.4241ZM161.558 69.2295V68.107H169.206V72.3751H167.797V69.2295H161.558ZM161.636 64.2173C161.636 65.2093 162.367 65.8358 163.359 65.8358C164.351 65.8358 165.095 65.2093 165.095 64.2173C165.095 63.2253 164.351 62.6119 163.359 62.6119C162.367 62.6119 161.636 63.2253 161.636 64.2173ZM167.797 67.5718V60.7584H169.206V63.5908H170.812V64.7525H169.206V67.5718H167.797ZM171.883 61.894H178.396V63.0687H175.85V64.0738C175.85 65.9925 176.986 67.9895 178.826 68.7596L178.043 69.869C176.699 69.2686 175.694 68.0417 175.159 66.5668C174.637 68.1592 173.618 69.5166 172.261 70.1562L171.465 69.0598C173.292 68.2114 174.428 66.0447 174.428 64.0738V63.0687H171.883V61.894ZM179.675 72.3621V60.7584H181.084V72.3621H179.675ZM189.164 63.5256H191.161V60.7584H192.558V67.4935H191.161V64.6742H189.164V63.5256ZM182.912 66.3579C184.74 65.7314 185.731 64.2173 185.731 62.6641V62.5336H183.317V61.4111H189.53V62.5336H187.141V62.6641C187.141 64.0738 188.081 65.5095 189.856 66.123L189.164 67.2324C187.872 66.7887 186.971 65.888 186.462 64.7916C185.953 66.0186 184.987 66.9975 183.617 67.4804L182.912 66.3579ZM184.909 72.2185V68.0156H192.558V72.2185H184.909ZM186.293 71.109H191.187V69.112H186.293V71.109Z" fill="#1A1A1A"/>
<path d="M58.7182 88.495H61.42V84.5662H62.3859V96.0132H61.42V89.2912H58.7182V88.495ZM53.0273 92.7893C54.6588 91.967 56.0032 89.7742 56.0032 87.6597V85.5713H56.9822V87.6597C56.9822 89.722 58.3135 91.8104 59.9451 92.5804L59.3708 93.3766C58.0786 92.711 57.0083 91.3274 56.4992 89.6959C56.0032 91.4188 54.9199 92.8807 53.6408 93.5724L53.0273 92.7893ZM64.4354 93.6377H74.7861V94.46H64.4354V93.6377ZM65.6754 91.3274V85.4016H66.6413V87.5291H72.5671V85.4016H73.533V91.3274H65.6754ZM66.6413 90.5312H72.5671V88.3253H66.6413V90.5312ZM80.2354 85.0361H81.2012V86.498H86.8399V85.0361H87.8188V89.5914H84.4905V90.8445H89.1632V91.6407H78.8518V90.8445H83.5246V89.5914H80.2354V85.0361ZM80.1962 95.7522V92.5935H81.1751V94.9429H88.0277V95.7522H80.1962ZM81.2012 88.8083H86.8399V87.2811H81.2012V88.8083ZM90.2469 90.4529H100.598V91.2491H95.99V93.5985H94.998V91.2491H90.2469V90.4529ZM91.5782 95.7522V92.476H92.5572V94.9429H99.4489V95.7522H91.5782ZM91.5913 89.1085V85.1275H99.2531V89.1085H91.5913ZM92.5441 88.3123H98.2872V85.9106H92.5441V88.3123ZM109.029 87.5291C109.394 87.5291 109.603 87.7771 109.603 88.1035C109.603 88.4428 109.394 88.6908 109.029 88.6908C108.65 88.6908 108.442 88.4428 108.442 88.1035C108.442 87.7771 108.65 87.5291 109.029 87.5291ZM108.442 92.5021C108.442 92.1758 108.65 91.9278 109.029 91.9278C109.394 91.9278 109.603 92.1758 109.603 92.5021C109.603 92.8284 109.394 93.0895 109.029 93.0895C108.65 93.0895 108.442 92.8284 108.442 92.5021ZM117.43 85.4669C118.983 85.4669 120.106 86.8113 120.249 88.9649H122.808V84.5662H123.774V96.0132H122.808V89.7481H120.249C120.158 91.9931 119.009 93.4158 117.43 93.4158C115.772 93.4158 114.598 91.8626 114.598 89.4348C114.598 87.007 115.772 85.4669 117.43 85.4669ZM115.524 89.4348C115.524 91.3013 116.308 92.5413 117.43 92.5413C118.566 92.5413 119.336 91.3013 119.336 89.4348C119.336 87.5683 118.566 86.3414 117.43 86.3414C116.308 86.3414 115.524 87.5683 115.524 89.4348ZM125.81 93.716H136.161V94.5383H125.81V93.716ZM127.089 86.2631V85.4538H134.868V88.8735H128.081V90.7923H135.13V91.6015H127.115V88.0904H133.903V86.2631H127.089ZM145.572 84.5923H146.551V92.9459H145.572V84.5923ZM137.349 90.5182C139.046 89.8525 140.22 88.1818 140.22 86.3805V85.2058H141.199V86.3805C141.199 88.1165 142.387 89.6828 144.071 90.3093L143.549 91.0925C142.243 90.5834 141.225 89.5262 140.729 88.2079C140.246 89.6175 139.215 90.7531 137.871 91.3013L137.349 90.5182ZM139.254 95.7391V92.1889H140.233V94.9299H146.916V95.7391H139.254ZM157.372 84.5793H158.311V96.0002H157.372V84.5793ZM148.77 89.5001C148.77 87.0723 149.723 85.5452 151.185 85.5452C152.581 85.5452 153.495 86.8765 153.612 89.0432H155.113V84.8403H156.04V95.4128H155.113V89.8525H153.612C153.534 92.0845 152.594 93.468 151.185 93.468C149.723 93.468 148.77 91.9409 148.77 89.5001ZM149.671 89.5001C149.671 91.3666 150.258 92.5543 151.185 92.5543C152.137 92.5543 152.725 91.3666 152.725 89.5001C152.725 87.6336 152.137 86.4588 151.185 86.4588C150.258 86.4588 149.671 87.6336 149.671 89.5001ZM168.78 84.5793H169.719V96.0002H168.78V84.5793ZM160.048 92.8154C162.515 91.3405 163.754 89.2521 163.937 86.8504H160.517V86.0412H164.916C164.916 87.1637 164.733 88.2601 164.342 89.2782H166.404V84.8795H167.331V95.3998H166.404V90.0744H163.989C163.298 91.4057 162.201 92.5935 160.622 93.5333L160.048 92.8154ZM180.533 87.5814H182.831V84.5793H183.81V91.4057H182.831V88.4037H180.533V87.5814ZM174.49 90.4529C176.161 89.8525 177.375 88.3384 177.375 86.6938V86.1847H174.803V85.3755H180.899V86.1847H178.354V86.6938C178.354 88.1818 179.515 89.6045 181.16 90.1788L180.651 90.9619C179.372 90.4921 178.38 89.5262 177.897 88.3384C177.414 89.6697 176.343 90.727 174.999 91.223L174.49 90.4529ZM176.213 92.8545V92.0453H183.81V96.0002H182.831V92.8545H176.213ZM193.73 84.5793H194.709V87.503H196.418V88.3384H194.709V91.2099H193.73V84.5793ZM185.898 86.5633V85.7671H188.783V84.4618H189.762V85.7671H192.646V86.5633H185.898ZM186.551 89.1085C186.551 87.8946 187.634 87.1115 189.266 87.1115C190.897 87.1115 191.994 87.8946 191.994 89.1085C191.994 90.3354 190.897 91.1186 189.266 91.1186C187.634 91.1186 186.551 90.3354 186.551 89.1085ZM187.478 89.1085C187.478 89.8655 188.195 90.3746 189.266 90.3746C190.336 90.3746 191.054 89.8655 191.054 89.1085C191.054 88.3645 190.336 87.8555 189.266 87.8555C188.195 87.8555 187.478 88.3645 187.478 89.1085ZM187.556 95.8436V91.719H188.522V92.972H193.743V91.719H194.709V95.8436H187.556ZM188.522 95.0474H193.743V93.7291H188.522V95.0474ZM205.138 84.5923H206.117V88.3645H207.827V89.1868H206.117V93.1548H205.138V84.5923ZM197.306 86.7852V85.989H200.191V84.5923H201.17V85.989H204.054V86.7852H197.306ZM197.959 89.5653C197.959 88.2731 199.055 87.4378 200.674 87.4378C202.292 87.4378 203.402 88.2731 203.402 89.5653C203.402 90.8445 202.292 91.6798 200.674 91.6798C199.055 91.6798 197.959 90.8445 197.959 89.5653ZM198.886 89.5653C198.886 90.3746 199.604 90.9097 200.674 90.9097C201.744 90.9097 202.462 90.3746 202.462 89.5653C202.462 88.743 201.744 88.2079 200.674 88.2079C199.604 88.2079 198.886 88.743 198.886 89.5653ZM199.042 95.7391V92.463H200.008V94.9299H206.652V95.7391H199.042ZM212.924 85.1405H220.677V85.9367C220.677 86.7982 220.677 87.8032 220.376 89.1607L219.424 89.0432C219.711 87.7249 219.711 86.7721 219.711 85.9367H212.924V85.1405ZM211.697 90.7531V89.97H215.978V87.6466H216.944V89.97H221.995V90.7531H211.697ZM212.441 95.1909C214.477 94.8907 216.317 93.7552 216.317 92.215V91.6798H217.296V92.215C217.296 93.7552 219.123 94.8907 221.16 95.1909L220.794 95.961C219.071 95.6608 217.479 94.8516 216.8 93.5985C216.121 94.8516 214.529 95.6608 212.819 95.961L212.441 95.1909ZM228.247 84.7881C230.754 84.7881 232.255 85.4799 232.255 86.759C232.255 88.0382 230.754 88.743 228.247 88.743C225.741 88.743 224.24 88.0382 224.24 86.759C224.24 85.4799 225.741 84.7881 228.247 84.7881ZM223.092 90.3354V89.5392H233.403V90.3354H223.092ZM224.345 92.0975V91.3405H232.072V93.8726H225.337V95.0996H232.424V95.8697H224.384V93.1548H231.119V92.0975H224.345ZM225.245 86.759C225.245 87.5552 226.368 87.999 228.247 87.999C230.127 87.999 231.249 87.5552 231.249 86.759C231.249 85.9759 230.127 85.5191 228.247 85.5191C226.368 85.5191 225.245 85.9759 225.245 86.759ZM245.901 84.5923H246.88V93.0242H245.901V89.9177H242.977C242.455 90.5965 241.607 91.0011 240.615 91.0011C238.931 91.0011 237.691 89.8394 237.691 88.1687C237.691 86.4849 238.931 85.3102 240.615 85.3102C241.593 85.3102 242.429 85.7149 242.951 86.3805H245.901V84.5923ZM238.618 88.1687C238.618 89.3304 239.466 90.1527 240.615 90.1527C241.75 90.1527 242.612 89.3304 242.612 88.1687C242.612 87.007 241.75 86.1847 240.615 86.1847C239.466 86.1847 238.618 87.007 238.618 88.1687ZM239.61 95.7391V92.1497H240.588V94.9299H247.206V95.7391H239.61ZM243.395 87.1898C243.499 87.49 243.551 87.8163 243.551 88.1687C243.551 88.5081 243.499 88.8213 243.408 89.1085H245.901V87.1898H243.395ZM257.309 84.5793H258.288V90.4137H257.309V89.2129H254.268V88.4298H257.309V87.0332H254.437C253.746 88.8344 251.97 90.0613 249.451 90.6748L249.112 89.8786C251.892 89.2129 253.524 87.8163 253.706 85.9628H249.686V85.1536H254.777C254.777 85.5452 254.738 85.9106 254.672 86.2631H257.309V84.5793ZM250.965 91.7451V90.9489H258.288V93.716H251.957V95.0996H258.679V95.8827H250.992V92.959H257.309V91.7451H250.965ZM260.324 89.9438H270.636V90.7401H265.963V92.0061C268.117 92.0975 269.383 92.7893 269.383 93.9901C269.383 95.2562 267.921 95.9741 265.48 95.9741C263.039 95.9741 261.577 95.2562 261.577 93.9901C261.577 92.7893 262.844 92.0975 264.984 92.0061V90.7401H260.324V89.9438ZM260.912 88.4428C262.883 88.234 264.801 87.2289 264.854 85.9106H261.277V85.1275H269.709V85.9106H266.12C266.172 87.2289 268.078 88.234 270.062 88.4428L269.696 89.226C267.856 88.991 266.107 88.1687 265.493 86.8896C264.867 88.1687 263.118 88.991 261.277 89.226L260.912 88.4428ZM262.556 93.9901C262.556 94.7733 263.653 95.217 265.48 95.217C267.294 95.217 268.391 94.7733 268.391 93.9901C268.391 93.1939 267.294 92.7501 265.48 92.7501C263.653 92.7501 262.556 93.1939 262.556 93.9901ZM280.073 84.5662H281.052V96.0132H280.073V84.5662ZM272.15 89.4348C272.15 87.007 273.351 85.4669 275.048 85.4669C276.732 85.4669 277.932 87.007 277.932 89.4348C277.932 91.8626 276.732 93.4158 275.048 93.4158C273.351 93.4158 272.15 91.8626 272.15 89.4348ZM273.103 89.4348C273.103 91.3013 273.899 92.5413 275.048 92.5413C276.183 92.5413 276.993 91.3013 276.993 89.4348C276.993 87.5683 276.183 86.3414 275.048 86.3414C273.899 86.3414 273.103 87.5683 273.103 89.4348ZM291.886 84.5793H292.826V96.0002H291.886V84.5793ZM283.284 89.5001C283.284 87.0723 284.237 85.5452 285.699 85.5452C287.096 85.5452 288.009 86.8765 288.127 89.0432H289.628V84.8403H290.554V95.4128H289.628V89.8525H288.127C288.048 92.0845 287.109 93.468 285.699 93.468C284.237 93.468 283.284 91.9409 283.284 89.5001ZM284.185 89.5001C284.185 91.3666 284.772 92.5543 285.699 92.5543C286.652 92.5543 287.239 91.3666 287.239 89.5001C287.239 87.6336 286.652 86.4588 285.699 86.4588C284.772 86.4588 284.185 87.6336 284.185 89.5001ZM294.549 93.703H297.12V90.5834C296.154 90.0874 295.567 89.2651 295.567 88.234C295.567 86.4588 297.303 85.3102 299.705 85.3102C302.132 85.3102 303.842 86.4588 303.842 88.234C303.842 89.2521 303.268 90.0613 302.328 90.5704V93.703H304.899V94.5122H294.549V93.703ZM296.52 88.234C296.52 89.5262 297.851 90.3746 299.705 90.3746C301.558 90.3746 302.902 89.5262 302.902 88.234C302.902 86.9418 301.558 86.0934 299.705 86.0934C297.851 86.0934 296.52 86.9418 296.52 88.234ZM298.086 93.703H301.349V90.9489C300.853 91.0794 300.305 91.1447 299.705 91.1447C299.117 91.1447 298.582 91.0794 298.086 90.9489V93.703Z" fill="#616161"/>
<path d="M53.1429 114.814C54.7651 113.248 57.0922 111.581 57.0922 110.16C57.0922 109.086 56.4097 108.571 55.5818 108.571C55.0001 108.571 54.3512 108.773 53.9484 109.679L53.0534 109.287C53.6463 107.934 54.8211 107.587 55.5818 107.587C56.8013 107.587 58.0767 108.538 58.0767 110.16C58.0767 111.838 56.1412 113.449 54.6085 114.814H58.211V115.799H53.1429V114.814ZM62.0665 114.881C63.2972 114.881 64.0356 113.897 64.0356 111.738C64.0356 109.567 63.3083 108.594 62.0665 108.594C60.8246 108.594 60.0863 109.567 60.0863 111.738C60.0863 113.897 60.8246 114.881 62.0665 114.881ZM59.1017 111.738C59.1017 109.153 60.2764 107.609 62.0665 107.609C63.8454 107.609 65.0201 109.142 65.0201 111.738C65.0201 114.311 63.8566 115.866 62.0665 115.866C60.2764 115.866 59.1017 114.311 59.1017 111.738ZM66.0273 114.814C67.6495 113.248 69.9766 111.581 69.9766 110.16C69.9766 109.086 69.2941 108.571 68.4662 108.571C67.8844 108.571 67.2355 108.773 66.8328 109.679L65.9377 109.287C66.5307 107.934 67.7054 107.587 68.4662 107.587C69.6857 107.587 70.9611 108.538 70.9611 110.16C70.9611 111.838 69.0256 113.449 67.4929 114.814H71.0953V115.799H66.0273V114.814ZM76.6178 107.688V112.733H77.7366V113.695H76.6178V115.788H75.6333V113.695H71.9973V112.733L75.6669 107.688H76.6178ZM73.1832 112.733H75.6333V109.355L73.1832 112.733ZM79.3854 114.736C79.7882 114.736 80.0008 115.004 80.0008 115.351C80.0008 115.709 79.7882 115.978 79.3854 115.978C78.9827 115.978 78.7589 115.709 78.7589 115.351C78.7589 115.004 78.9827 114.736 79.3854 114.736ZM84.4483 114.881C85.6789 114.881 86.4173 113.897 86.4173 111.738C86.4173 109.567 85.6901 108.594 84.4483 108.594C83.2064 108.594 82.468 109.567 82.468 111.738C82.468 113.897 83.2064 114.881 84.4483 114.881ZM81.4835 111.738C81.4835 109.153 82.6582 107.609 84.4483 107.609C86.2271 107.609 87.4019 109.142 87.4019 111.738C87.4019 114.311 86.2383 115.866 84.4483 115.866C82.6582 115.866 81.4835 114.311 81.4835 111.738ZM90.9375 107.688V115.788H89.9529V108.829L88.6999 109.567L88.23 108.706L89.9529 107.688H90.9375ZM93.1071 114.736C93.5099 114.736 93.7225 115.004 93.7225 115.351C93.7225 115.709 93.5099 115.978 93.1071 115.978C92.7044 115.978 92.4806 115.709 92.4806 115.351C92.4806 115.004 92.7044 114.736 93.1071 114.736ZM95.3171 114.814C96.9393 113.248 99.2664 111.581 99.2664 110.16C99.2664 109.086 98.5839 108.571 97.756 108.571C97.1742 108.571 96.5254 108.773 96.1226 109.679L95.2276 109.287C95.8205 107.934 96.9952 107.587 97.756 107.587C98.9755 107.587 100.251 108.538 100.251 110.16C100.251 111.838 98.3154 113.449 96.7827 114.814H100.385V115.799H95.3171V114.814ZM104.241 114.881C105.471 114.881 106.21 113.897 106.21 111.738C106.21 109.567 105.483 108.594 104.241 108.594C102.999 108.594 102.26 109.567 102.26 111.738C102.26 113.897 102.999 114.881 104.241 114.881ZM101.276 111.738C101.276 109.153 102.451 107.609 104.241 107.609C106.02 107.609 107.194 109.142 107.194 111.738C107.194 114.311 106.031 115.866 104.241 115.866C102.451 115.866 101.276 114.311 101.276 111.738ZM114.841 107.374C116.944 107.374 118.455 108.404 118.455 109.981C118.455 111.447 117.19 112.42 115.356 112.577V114.546H119.327V115.385H110.388V114.546H114.338V112.577C112.514 112.431 111.239 111.447 111.239 109.981C111.239 108.404 112.76 107.374 114.841 107.374ZM112.234 109.981C112.234 111.077 113.331 111.794 114.841 111.794C116.363 111.794 117.459 111.077 117.459 109.981C117.459 108.885 116.363 108.18 114.841 108.18C113.331 108.18 112.234 108.885 112.234 109.981ZM120.458 107.867H123.948V106.714H124.966V107.867H128.423V108.683H120.458V107.867ZM119.999 113.986V113.17H128.938V113.986H124.966V116.638H123.948V113.986H119.999ZM121.218 110.876C121.218 109.802 122.415 109.209 124.452 109.209C126.488 109.209 127.696 109.802 127.696 110.876C127.696 111.928 126.488 112.532 124.452 112.532C122.415 112.532 121.218 111.928 121.218 110.876ZM122.27 110.876C122.27 111.435 123.042 111.749 124.452 111.749C125.873 111.749 126.644 111.435 126.644 110.876C126.644 110.294 125.873 109.981 124.452 109.981C123.042 109.981 122.27 110.294 122.27 110.876ZM134.772 107.688V115.788H133.788V108.829L132.535 109.567L132.065 108.706L133.788 107.688H134.772ZM136.304 114.814C137.927 113.248 140.254 111.581 140.254 110.16C140.254 109.086 139.571 108.571 138.743 108.571C138.161 108.571 137.513 108.773 137.11 109.679L136.215 109.287C136.808 107.934 137.982 107.587 138.743 107.587C139.963 107.587 141.238 108.538 141.238 110.16C141.238 111.838 139.303 113.449 137.77 114.814H141.372V115.799H136.304V114.814ZM143.371 109.265C143.74 109.265 143.941 109.511 143.941 109.836C143.941 110.16 143.74 110.406 143.371 110.406C143.002 110.406 142.789 110.16 142.789 109.836C142.789 109.511 143.002 109.265 143.371 109.265ZM142.789 113.595C142.789 113.27 143.002 113.024 143.371 113.024C143.74 113.024 143.941 113.27 143.941 113.595C143.941 113.919 143.74 114.177 143.371 114.177C143.002 114.177 142.789 113.919 142.789 113.595ZM148.305 114.881C149.536 114.881 150.274 113.897 150.274 111.738C150.274 109.567 149.547 108.594 148.305 108.594C147.063 108.594 146.325 109.567 146.325 111.738C146.325 113.897 147.063 114.881 148.305 114.881ZM145.34 111.738C145.34 109.153 146.515 107.609 148.305 107.609C150.084 107.609 151.259 109.142 151.259 111.738C151.259 114.311 150.095 115.866 148.305 115.866C146.515 115.866 145.34 114.311 145.34 111.738ZM155.119 114.881C156.349 114.881 157.088 113.897 157.088 111.738C157.088 109.567 156.36 108.594 155.119 108.594C153.877 108.594 153.138 109.567 153.138 111.738C153.138 113.897 153.877 114.881 155.119 114.881ZM152.154 111.738C152.154 109.153 153.329 107.609 155.119 107.609C156.897 107.609 158.072 109.142 158.072 111.738C158.072 114.311 156.909 115.866 155.119 115.866C153.329 115.866 152.154 114.311 152.154 111.738Z" fill="#999999"/>
</g>
<rect y="26.0088" width="16.558" height="16.558" rx="8.27899" fill="#333333"/>
<path d="M9.31136 30.2956V38.3207L8.14126 38.3097V31.543L6.72832 32.3267L6.24262 31.3443L8.1523 30.2956H9.31136Z" fill="white"/>
<path d="M43.8756 30.608C41.8435 30.608 40.1961 32.2554 40.1961 34.2876C40.1961 36.3198 41.8434 37.9671 43.8756 37.9671C45.9078 37.9671 47.5552 36.3198 47.5552 34.2876C47.5552 32.2554 45.9078 30.608 43.8756 30.608ZM43.8756 33.5977L16.279 33.5977L16.279 34.9775L43.8756 34.9775L43.8756 33.5977Z" fill="#333333"/>
<rect y="57.7451" width="16.558" height="16.558" rx="8.27899" fill="#333333"/>
<path d="M5.48547 69.0304C7.09711 67.485 9.2938 65.9175 9.2938 64.5598C9.2938 63.6546 8.71979 63.0144 7.90293 63.0144C7.27373 63.0144 6.64452 63.467 6.35752 64.1182L5.33092 63.6657C5.77247 62.6501 6.84322 61.9436 7.90293 61.9436C9.41523 61.9436 10.4639 63.0254 10.4639 64.5598C10.4639 66.2487 8.63148 67.75 7.14126 69.0304H10.5964V70.057H5.59585L5.48547 69.0304Z" fill="white"/>
<path d="M43.8756 62.3444C41.8435 62.3444 40.1961 63.9918 40.1961 66.0239C40.1961 68.0561 41.8434 69.7035 43.8756 69.7035C45.9078 69.7035 47.5552 68.0561 47.5552 66.0239C47.5552 63.9918 45.9078 62.3444 43.8756 62.3444ZM43.8756 65.334L16.279 65.334L16.279 66.7138L43.8756 66.7138L43.8756 65.334Z" fill="#333333"/>
<rect y="82.582" width="16.558" height="16.558" rx="8.27899" fill="#333333"/>
<path d="M9.59185 90.7434C10.3094 91.1629 10.7619 91.9466 10.7619 92.62C10.7619 93.9888 9.636 94.9602 8.0354 94.9602C6.44583 94.9602 5.31989 93.9667 5.31989 92.5538H6.48998C6.48998 93.3596 7.13023 93.9226 8.0354 93.9226C8.96264 93.9226 9.62496 93.3596 9.62496 92.5538C9.62496 91.7811 8.97368 91.2291 8.05747 91.2291H7.48346V90.2467H8.06851C8.90745 90.2467 9.50354 89.7499 9.50354 89.0435C9.50354 88.326 8.92953 87.8292 8.11267 87.8292C7.29581 87.8292 6.73283 88.337 6.73283 89.0545H5.56274C5.56274 87.7188 6.61141 86.7916 8.11267 86.7916C9.59185 86.7916 10.6405 87.6968 10.6405 88.9772C10.6405 89.5954 10.2431 90.324 9.59185 90.7434Z" fill="white"/>
<path d="M43.8756 87.1813C41.8435 87.1813 40.1961 88.8287 40.1961 90.8608C40.1961 92.893 41.8434 94.5404 43.8756 94.5404C45.9078 94.5404 47.5552 92.893 47.5552 90.8608C47.5552 88.8287 45.9078 87.1813 43.8756 87.1813ZM43.8756 90.1709L16.279 90.1709L16.279 91.5508L43.8756 91.5508L43.8756 90.1709Z" fill="#333333"/>
<rect y="106.039" width="16.558" height="16.558" rx="8.27899" fill="#333333"/>
<path d="M10.0555 110.315V115.26H11.071V116.276H10.0555V118.351H8.88537V116.276H5.43027L5.31989 115.26L8.94056 110.315H10.0555ZM6.71076 115.26H8.88537V112.269L6.71076 115.26Z" fill="white"/>
<path d="M43.8756 110.638C41.8435 110.638 40.1961 112.286 40.1961 114.318C40.1961 116.35 41.8434 117.997 43.8756 117.997C45.9078 117.997 47.5552 116.35 47.5552 114.318C47.5552 112.286 45.9078 110.638 43.8756 110.638ZM43.8756 113.628L16.279 113.628L16.279 115.008L43.8756 115.008L43.8756 113.628Z" fill="#333333"/>
<path d="M344.403 29.9451V40.0391H343.395V31.1631L341.967 32.1151L341.407 31.2751L343.395 29.9451H344.403ZM349.224 38.8211C349.672 38.8211 349.91 39.1291 349.91 39.5071C349.91 39.9131 349.672 40.2211 349.224 40.2211C348.762 40.2211 348.51 39.9131 348.51 39.5071C348.51 39.1291 348.762 38.8211 349.224 38.8211ZM357.12 29.9311H362.804V30.8131H358.156V33.3751H362.524V34.2151H358.156V37.2111C360.382 37.2111 361.922 37.1551 363.742 36.8331L363.854 37.6871C361.964 38.0231 360.368 38.0931 358.058 38.0931H357.12V29.9311ZM364.918 41.0611V28.8111H365.968V33.7671H367.998V34.6491H365.968V41.0611H364.918ZM377.392 28.7971H378.442V41.0751H377.392V28.7971ZM368.894 34.0191C368.894 31.4151 370.182 29.7631 372.002 29.7631C373.808 29.7631 375.096 31.4151 375.096 34.0191C375.096 36.6231 373.808 38.2891 372.002 38.2891C370.182 38.2891 368.894 36.6231 368.894 34.0191ZM369.916 34.0191C369.916 36.0211 370.77 37.3511 372.002 37.3511C373.22 37.3511 374.088 36.0211 374.088 34.0191C374.088 32.0171 373.22 30.7011 372.002 30.7011C370.77 30.7011 369.916 32.0171 369.916 34.0191ZM381.803 29.1331H390.021V29.9031H382.853V30.9251H389.699V31.6671H382.853V32.7591H390.091V33.5291H381.803V29.1331ZM380.347 35.3071V34.4951H391.393V35.3071H380.347ZM381.677 37.0571V36.2871H389.965V38.9191H382.741V40.1371H390.343V40.9211H381.719V38.1631H388.943V37.0571H381.677ZM393.115 34.9851C393.115 32.9131 393.745 30.9811 394.809 29.3011H395.943C394.739 30.9531 394.039 32.8991 394.039 34.9851C394.039 37.0711 394.739 39.0171 395.943 40.6691H394.809C393.745 38.9891 393.115 37.0571 393.115 34.9851ZM402.524 40.1511C399.472 40.1511 397.54 37.8131 397.54 34.9851C397.54 32.1571 399.472 29.8191 402.524 29.8191C403.91 29.8191 405.156 30.4071 406.052 31.3311L405.31 32.0311C404.596 31.2891 403.616 30.8551 402.524 30.8551C400.074 30.8551 398.562 32.6891 398.562 34.9851C398.562 37.2951 400.074 39.1291 402.524 39.1291C403.616 39.1291 404.596 38.6811 405.31 37.9391L406.052 38.6391C405.156 39.5631 403.91 40.1511 402.524 40.1511ZM410.333 39.1151C411.901 39.1151 412.727 37.9671 412.727 36.4831C412.727 34.9991 411.901 33.8511 410.333 33.8511C408.751 33.8511 407.953 34.9991 407.953 36.4831C407.953 37.9671 408.751 39.1151 410.333 39.1151ZM406.945 36.4831C406.945 34.5371 408.149 32.8711 410.333 32.8711C412.531 32.8711 413.735 34.5371 413.735 36.4831C413.735 38.4291 412.531 40.0951 410.333 40.0951C408.149 40.0951 406.945 38.4291 406.945 36.4831ZM414.747 29.6511H415.755V40.0391H414.747V29.6511ZM420.16 39.1151C421.728 39.1151 422.554 37.9671 422.554 36.4831C422.554 34.9991 421.728 33.8511 420.16 33.8511C418.578 33.8511 417.78 34.9991 417.78 36.4831C417.78 37.9671 418.578 39.1151 420.16 39.1151ZM416.772 36.4831C416.772 34.5371 417.976 32.8711 420.16 32.8711C422.358 32.8711 423.562 34.5371 423.562 36.4831C423.562 38.4291 422.358 40.0951 420.16 40.0951C417.976 40.0951 416.772 38.4291 416.772 36.4831ZM425.625 34.4111C426.031 33.4731 427.193 32.8431 428.159 32.8431V33.8791C426.857 33.8791 425.625 35.2371 425.625 36.3711V40.0391H424.617V32.9131H425.625V34.4111ZM432.924 29.3431L429.998 40.7111H428.99L431.93 29.3431H432.924ZM441.696 29.9311V30.9111H438.532V40.0391H437.524V30.9111H434.374V29.9311H441.696ZM446.81 35.9791C446.698 34.9711 446.208 33.8931 444.696 33.8931C443.366 33.8931 442.512 34.6071 442.33 35.9931L446.81 35.9791ZM441.294 36.4831C441.294 34.5231 442.47 32.8851 444.654 32.8851C446.922 32.8851 447.496 34.6491 447.566 34.8171C447.986 35.9651 447.818 36.9731 447.818 36.9731H442.33C442.512 38.2891 443.366 39.0731 444.668 39.0731C446.278 39.0731 446.67 38.1911 446.768 38.0511L447.636 38.5131C447.636 38.5131 447.048 40.0811 444.654 40.0811C442.47 40.0811 441.294 38.4291 441.294 36.4831ZM454.737 32.9131L452.035 36.4831L454.737 40.0391H453.463L451.517 37.3931L449.571 40.0391H448.297L450.985 36.4831L448.297 32.9131H449.571L451.517 35.5871L453.463 32.9131H454.737ZM459.225 39.8851C458.973 39.9411 458.595 40.0111 458.189 40.0111C457.125 40.0111 456.271 39.1571 456.271 38.1071V33.8371H455.109V32.8571H456.271V30.6591H457.279V32.8571H458.945V33.8371H457.279V38.1071C457.279 38.6671 457.615 39.0031 458.189 39.0031C458.511 39.0031 458.777 38.9611 459.001 38.9051L459.225 39.8851ZM464.506 29.3431L461.58 40.7111H460.572L463.512 29.3431H464.506ZM470.1 35.1391C471.276 35.1391 472.214 34.1731 472.214 33.0251C472.214 31.8491 471.262 30.9111 470.086 30.9111H467.23L467.244 35.1391H470.1ZM466.236 40.0391V29.9311H470.128C471.836 29.9311 473.194 31.3171 473.194 33.0251C473.194 34.7191 471.836 36.1191 470.128 36.1191H467.244V40.0391H466.236ZM475.297 34.4111C475.703 33.4731 476.865 32.8431 477.831 32.8431V33.8791C476.529 33.8791 475.297 35.2371 475.297 36.3711V40.0391H474.289V32.9131H475.297V34.4111ZM479.083 32.9131H480.091V40.0391H479.083V32.9131ZM478.943 30.3231C478.943 29.9731 479.167 29.6931 479.587 29.6931C479.993 29.6931 480.217 29.9731 480.217 30.3231C480.217 30.6871 479.993 30.9671 479.587 30.9671C479.167 30.9671 478.943 30.6871 478.943 30.3231ZM490.994 35.6711C490.994 34.5371 490.308 33.8931 489.3 33.8931C488.362 33.8931 487.396 34.7751 487.396 35.6711V40.0391H486.388V35.6711C486.388 34.7751 485.814 33.8931 484.722 33.8931C483.728 33.8931 482.804 34.7751 482.804 35.7831V40.0391H481.796V32.9131H482.804V34.1451C483.252 33.3751 483.91 32.9131 484.764 32.9131C485.8 32.9131 486.486 33.3611 486.99 34.3411C487.508 33.6131 488.222 32.9131 489.342 32.9131C490.798 32.9131 492.002 34.0891 492.002 35.5591V40.0391H490.994V35.6711ZM496.639 39.1291C497.899 39.1291 499.033 38.1071 499.047 36.5391C499.033 34.9851 497.899 33.9491 496.639 33.9491C495.085 33.9491 494.245 35.0691 494.245 36.5391C494.245 38.0091 495.085 39.1291 496.639 39.1291ZM493.237 36.5391C493.237 34.5931 494.455 32.9551 496.625 32.9551C497.451 32.9551 498.375 33.3891 499.019 34.4251V32.9131H500.027V40.0391H499.019V38.6391C498.347 39.7311 497.465 40.1371 496.625 40.1371C494.455 40.1371 493.237 38.4711 493.237 36.5391ZM502.225 34.4111C502.631 33.4731 503.793 32.8431 504.759 32.8431V33.8791C503.457 33.8791 502.225 35.2371 502.225 36.3711V40.0391H501.217V32.9131H502.225V34.4111ZM508.251 43.2591H507.159L508.559 39.7731L505.647 32.9131H506.753L509.091 38.4291L511.331 32.9131H512.423L509.707 39.6051L508.251 43.2591ZM516.401 34.9851C516.401 37.0571 515.785 38.9891 514.721 40.6691H513.587C514.791 39.0171 515.477 37.0711 515.477 34.9851C515.477 32.8991 514.791 30.9531 513.587 29.3011H514.721C515.785 30.9811 516.401 32.9131 516.401 34.9851Z" fill="#616161"/>
<path d="M340.301 66.6277C342.303 64.6957 345.327 62.3577 345.327 60.5237C345.327 59.1237 344.403 58.4097 343.311 58.4097C342.541 58.4097 341.687 58.6757 341.169 59.8657L340.245 59.4737C340.973 57.8217 342.345 57.4017 343.311 57.4017C344.809 57.4017 346.335 58.5497 346.335 60.5237C346.335 62.5957 343.745 64.8357 341.785 66.6277L346.503 66.6417V67.6497H340.287L340.301 66.6277ZM349.224 66.4177C349.672 66.4177 349.91 66.7257 349.91 67.1037C349.91 67.5097 349.672 67.8177 349.224 67.8177C348.762 67.8177 348.51 67.5097 348.51 67.1037C348.51 66.7257 348.762 66.4177 349.224 66.4177ZM358.044 56.8977H359.08V58.4657H365.128V56.8977H366.178V61.7837H362.608V63.1277H367.62V63.9817H356.56V63.1277H361.572V61.7837H358.044V56.8977ZM358.002 68.3917V65.0037H359.052V67.5237H366.402V68.3917H358.002ZM359.08 60.9437H365.128V59.3057H359.08V60.9437ZM368.432 62.7077H379.534V63.5617H374.592V66.0817H373.528V63.5617H368.432V62.7077ZM369.86 68.3917V64.8777H370.91V67.5237H378.302V68.3917H369.86ZM369.874 61.2657V56.9957H378.092V61.2657H369.874ZM370.896 60.4117H377.056V57.8357H370.896V60.4117ZM381.229 62.5817C381.229 60.5097 381.859 58.5777 382.923 56.8977H384.057C382.853 58.5497 382.153 60.4957 382.153 62.5817C382.153 64.6677 382.853 66.6137 384.057 68.2657H382.923C381.859 66.5857 381.229 64.6537 381.229 62.5817ZM390.638 67.7477C387.586 67.7477 385.654 65.4097 385.654 62.5817C385.654 59.7537 387.586 57.4157 390.638 57.4157C392.024 57.4157 393.27 58.0037 394.166 58.9277L393.424 59.6277C392.71 58.8857 391.73 58.4517 390.638 58.4517C388.188 58.4517 386.676 60.2857 386.676 62.5817C386.676 64.8917 388.188 66.7257 390.638 66.7257C391.73 66.7257 392.71 66.2777 393.424 65.5357L394.166 66.2357C393.27 67.1597 392.024 67.7477 390.638 67.7477ZM398.447 66.7117C400.015 66.7117 400.841 65.5637 400.841 64.0797C400.841 62.5957 400.015 61.4477 398.447 61.4477C396.865 61.4477 396.067 62.5957 396.067 64.0797C396.067 65.5637 396.865 66.7117 398.447 66.7117ZM395.059 64.0797C395.059 62.1337 396.263 60.4677 398.447 60.4677C400.645 60.4677 401.849 62.1337 401.849 64.0797C401.849 66.0257 400.645 67.6917 398.447 67.6917C396.263 67.6917 395.059 66.0257 395.059 64.0797ZM402.861 57.2477H403.869V67.6357H402.861V57.2477ZM408.274 66.7117C409.842 66.7117 410.668 65.5637 410.668 64.0797C410.668 62.5957 409.842 61.4477 408.274 61.4477C406.692 61.4477 405.894 62.5957 405.894 64.0797C405.894 65.5637 406.692 66.7117 408.274 66.7117ZM404.886 64.0797C404.886 62.1337 406.09 60.4677 408.274 60.4677C410.472 60.4677 411.676 62.1337 411.676 64.0797C411.676 66.0257 410.472 67.6917 408.274 67.6917C406.09 67.6917 404.886 66.0257 404.886 64.0797ZM413.738 62.0077C414.144 61.0697 415.306 60.4397 416.272 60.4397V61.4757C414.97 61.4757 413.738 62.8337 413.738 63.9677V67.6357H412.73V60.5097H413.738V62.0077ZM421.038 56.9397L418.112 68.3077H417.104L420.044 56.9397H421.038ZM429.81 57.5277V58.5077H426.646V67.6357H425.638V58.5077H422.488V57.5277H429.81ZM434.924 63.5757C434.812 62.5677 434.322 61.4897 432.81 61.4897C431.48 61.4897 430.626 62.2037 430.444 63.5897L434.924 63.5757ZM429.408 64.0797C429.408 62.1197 430.584 60.4817 432.768 60.4817C435.036 60.4817 435.61 62.2457 435.68 62.4137C436.1 63.5617 435.932 64.5697 435.932 64.5697H430.444C430.626 65.8857 431.48 66.6697 432.782 66.6697C434.392 66.6697 434.784 65.7877 434.882 65.6477L435.75 66.1097C435.75 66.1097 435.162 67.6777 432.768 67.6777C430.584 67.6777 429.408 66.0257 429.408 64.0797ZM442.85 60.5097L440.148 64.0797L442.85 67.6357H441.576L439.63 64.9897L437.684 67.6357H436.41L439.098 64.0797L436.41 60.5097H437.684L439.63 63.1837L441.576 60.5097H442.85ZM447.339 67.4817C447.087 67.5377 446.709 67.6077 446.303 67.6077C445.239 67.6077 444.385 66.7537 444.385 65.7037V61.4337H443.223V60.4537H444.385V58.2557H445.393V60.4537H447.059V61.4337H445.393V65.7037C445.393 66.2637 445.729 66.5997 446.303 66.5997C446.625 66.5997 446.891 66.5577 447.115 66.5017L447.339 67.4817ZM452.62 56.9397L449.694 68.3077H448.686L451.626 56.9397H452.62ZM458.214 62.7357C459.39 62.7357 460.328 61.7697 460.328 60.6217C460.328 59.4457 459.376 58.5077 458.2 58.5077H455.344L455.358 62.7357H458.214ZM454.35 67.6357V57.5277H458.242C459.95 57.5277 461.308 58.9137 461.308 60.6217C461.308 62.3157 459.95 63.7157 458.242 63.7157H455.358V67.6357H454.35ZM463.411 62.0077C463.817 61.0697 464.979 60.4397 465.945 60.4397V61.4757C464.643 61.4757 463.411 62.8337 463.411 63.9677V67.6357H462.403V60.5097H463.411V62.0077ZM467.196 60.5097H468.204V67.6357H467.196V60.5097ZM467.056 57.9197C467.056 57.5697 467.28 57.2897 467.7 57.2897C468.106 57.2897 468.33 57.5697 468.33 57.9197C468.33 58.2837 468.106 58.5637 467.7 58.5637C467.28 58.5637 467.056 58.2837 467.056 57.9197ZM479.108 63.2677C479.108 62.1337 478.422 61.4897 477.414 61.4897C476.476 61.4897 475.51 62.3717 475.51 63.2677V67.6357H474.502V63.2677C474.502 62.3717 473.928 61.4897 472.836 61.4897C471.842 61.4897 470.918 62.3717 470.918 63.3797V67.6357H469.91V60.5097H470.918V61.7417C471.366 60.9717 472.024 60.5097 472.878 60.5097C473.914 60.5097 474.6 60.9577 475.104 61.9377C475.622 61.2097 476.336 60.5097 477.456 60.5097C478.912 60.5097 480.116 61.6857 480.116 63.1557V67.6357H479.108V63.2677ZM484.752 66.7257C486.012 66.7257 487.146 65.7037 487.16 64.1357C487.146 62.5817 486.012 61.5457 484.752 61.5457C483.198 61.5457 482.358 62.6657 482.358 64.1357C482.358 65.6057 483.198 66.7257 484.752 66.7257ZM481.35 64.1357C481.35 62.1897 482.568 60.5517 484.738 60.5517C485.564 60.5517 486.488 60.9857 487.132 62.0217V60.5097H488.14V67.6357H487.132V66.2357C486.46 67.3277 485.578 67.7337 484.738 67.7337C482.568 67.7337 481.35 66.0677 481.35 64.1357ZM490.339 62.0077C490.745 61.0697 491.907 60.4397 492.873 60.4397V61.4757C491.571 61.4757 490.339 62.8337 490.339 63.9677V67.6357H489.331V60.5097H490.339V62.0077ZM496.365 70.8557H495.273L496.673 67.3697L493.761 60.5097H494.867L497.205 66.0257L499.445 60.5097H500.537L497.821 67.2017L496.365 70.8557ZM504.515 62.5817C504.515 64.6537 503.899 66.5857 502.835 68.2657H501.701C502.905 66.6137 503.591 64.6677 503.591 62.5817C503.591 60.4957 502.905 58.5497 501.701 56.8977H502.835C503.899 58.5777 504.515 60.5097 504.515 62.5817Z" fill="#616161"/>
<path d="M345.103 90.0104C345.929 90.5144 346.629 91.3684 346.629 92.3764C346.629 94.0704 345.089 95.3164 343.367 95.3164C341.659 95.3164 340.119 94.0704 340.119 92.3764H341.127C341.127 93.3284 342.037 94.2944 343.367 94.2944C344.711 94.2944 345.621 93.3424 345.621 92.3904C345.621 91.4384 345.005 90.5004 343.395 90.5004H342.653V89.4924H343.395C344.781 89.4924 345.481 88.6664 345.481 87.7704C345.481 86.9304 344.669 86.0484 343.451 86.0484C342.233 86.0484 341.407 86.9164 341.407 87.7984H340.399C340.399 86.2164 341.855 85.0404 343.451 85.0404C345.061 85.0404 346.489 86.2164 346.489 87.7984C346.489 88.7224 345.859 89.5064 345.103 90.0104ZM349.224 94.0144C349.672 94.0144 349.91 94.3224 349.91 94.7004C349.91 95.1064 349.672 95.4144 349.224 95.4144C348.762 95.4144 348.51 95.1064 348.51 94.7004C348.51 94.3224 348.762 94.0144 349.224 94.0144ZM362.664 88.2044H365.562V83.9904H366.598V96.2684H365.562V89.0584H362.664V88.2044ZM356.56 92.8104C358.31 91.9284 359.752 89.5764 359.752 87.3084V85.0684H360.802V87.3084C360.802 89.5204 362.23 91.7604 363.98 92.5864L363.364 93.4404C361.978 92.7264 360.83 91.2424 360.284 89.4924C359.752 91.3404 358.59 92.9084 357.218 93.6504L356.56 92.8104ZM368.446 93.7204H379.548V94.6024H368.446V93.7204ZM369.776 91.2424V84.8864H370.812V87.1684H377.168V84.8864H378.204V91.2424H369.776ZM370.812 90.3884H377.168V88.0224H370.812V90.3884ZM381.817 84.4944H382.853V86.0624H388.901V84.4944H389.951V89.3804H386.381V90.7244H391.393V91.5784H380.333V90.7244H385.345V89.3804H381.817V84.4944ZM381.775 95.9884V92.6004H382.825V95.1204H390.175V95.9884H381.775ZM382.853 88.5404H388.901V86.9024H382.853V88.5404ZM392.205 90.3044H403.307V91.1584H398.365V93.6784H397.301V91.1584H392.205V90.3044ZM393.633 95.9884V92.4744H394.683V95.1204H402.075V95.9884H393.633ZM393.647 88.8624V84.5924H401.865V88.8624H393.647ZM394.669 88.0084H400.829V85.4324H394.669V88.0084ZM405.001 90.1784C405.001 88.1064 405.631 86.1744 406.695 84.4944H407.829C406.625 86.1464 405.925 88.0924 405.925 90.1784C405.925 92.2644 406.625 94.2104 407.829 95.8624H406.695C405.631 94.1824 405.001 92.2504 405.001 90.1784ZM414.411 95.3444C411.359 95.3444 409.427 93.0064 409.427 90.1784C409.427 87.3504 411.359 85.0124 414.411 85.0124C415.797 85.0124 417.043 85.6004 417.939 86.5244L417.197 87.2244C416.483 86.4824 415.503 86.0484 414.411 86.0484C411.961 86.0484 410.449 87.8824 410.449 90.1784C410.449 92.4884 411.961 94.3224 414.411 94.3224C415.503 94.3224 416.483 93.8744 417.197 93.1324L417.939 93.8324C417.043 94.7564 415.797 95.3444 414.411 95.3444ZM422.219 94.3084C423.787 94.3084 424.613 93.1604 424.613 91.6764C424.613 90.1924 423.787 89.0444 422.219 89.0444C420.637 89.0444 419.839 90.1924 419.839 91.6764C419.839 93.1604 420.637 94.3084 422.219 94.3084ZM418.831 91.6764C418.831 89.7304 420.035 88.0644 422.219 88.0644C424.417 88.0644 425.621 89.7304 425.621 91.6764C425.621 93.6224 424.417 95.2884 422.219 95.2884C420.035 95.2884 418.831 93.6224 418.831 91.6764ZM426.634 84.8444H427.642V95.2324H426.634V84.8444ZM432.047 94.3084C433.615 94.3084 434.441 93.1604 434.441 91.6764C434.441 90.1924 433.615 89.0444 432.047 89.0444C430.465 89.0444 429.667 90.1924 429.667 91.6764C429.667 93.1604 430.465 94.3084 432.047 94.3084ZM428.659 91.6764C428.659 89.7304 429.863 88.0644 432.047 88.0644C434.245 88.0644 435.449 89.7304 435.449 91.6764C435.449 93.6224 434.245 95.2884 432.047 95.2884C429.863 95.2884 428.659 93.6224 428.659 91.6764ZM437.511 89.6044C437.917 88.6664 439.079 88.0364 440.045 88.0364V89.0724C438.743 89.0724 437.511 90.4304 437.511 91.5644V95.2324H436.503V88.1064H437.511V89.6044ZM444.81 84.5364L441.884 95.9044H440.876L443.816 84.5364H444.81ZM453.583 85.1244V86.1044H450.419V95.2324H449.411V86.1044H446.261V85.1244H453.583ZM458.697 91.1724C458.585 90.1644 458.095 89.0864 456.583 89.0864C455.253 89.0864 454.399 89.8004 454.217 91.1864L458.697 91.1724ZM453.181 91.6764C453.181 89.7164 454.357 88.0784 456.541 88.0784C458.809 88.0784 459.383 89.8424 459.453 90.0104C459.873 91.1584 459.705 92.1664 459.705 92.1664H454.217C454.399 93.4824 455.253 94.2664 456.555 94.2664C458.165 94.2664 458.557 93.3844 458.655 93.2444L459.523 93.7064C459.523 93.7064 458.935 95.2744 456.541 95.2744C454.357 95.2744 453.181 93.6224 453.181 91.6764ZM466.623 88.1064L463.921 91.6764L466.623 95.2324H465.349L463.403 92.5864L461.457 95.2324H460.183L462.871 91.6764L460.183 88.1064H461.457L463.403 90.7804L465.349 88.1064H466.623ZM471.112 95.0784C470.86 95.1344 470.482 95.2044 470.076 95.2044C469.012 95.2044 468.158 94.3504 468.158 93.3004V89.0304H466.996V88.0504H468.158V85.8524H469.166V88.0504H470.832V89.0304H469.166V93.3004C469.166 93.8604 469.502 94.1964 470.076 94.1964C470.398 94.1964 470.664 94.1544 470.888 94.0984L471.112 95.0784ZM476.392 84.5364L473.466 95.9044H472.458L475.398 84.5364H476.392ZM478.613 93.3004C478.893 93.9444 479.551 94.3224 480.405 94.2804C481.637 94.2524 482.127 92.7264 480.867 92.3204C480.405 92.1804 479.565 91.9564 478.879 91.5084C477.815 90.7944 477.829 89.7444 478.151 89.1004C478.585 88.2464 479.691 87.9944 480.335 88.0504C480.937 88.1204 481.777 88.3304 482.309 89.0444L481.497 89.6324C481.203 89.2264 480.727 89.1004 480.251 89.0444C479.817 89.0024 479.243 89.1564 479.033 89.5484C478.851 89.9264 478.865 90.3044 479.439 90.6824C479.985 91.0464 480.685 91.2144 481.175 91.3824C483.527 92.1384 482.771 95.2184 480.433 95.2744C479.257 95.3304 478.137 94.7144 477.703 93.6924L478.613 93.3004ZM489.103 91.1724C488.991 90.1644 488.501 89.0864 486.989 89.0864C485.659 89.0864 484.805 89.8004 484.623 91.1864L489.103 91.1724ZM483.587 91.6764C483.587 89.7164 484.763 88.0784 486.947 88.0784C489.215 88.0784 489.789 89.8424 489.859 90.0104C490.279 91.1584 490.111 92.1664 490.111 92.1664H484.623C484.805 93.4824 485.659 94.2664 486.961 94.2664C488.571 94.2664 488.963 93.3844 489.061 93.2444L489.929 93.7064C489.929 93.7064 489.341 95.2744 486.947 95.2744C484.763 95.2744 483.587 93.6224 483.587 91.6764ZM494.292 94.2944C495.02 94.2944 495.692 94.0144 496.168 93.5384L496.924 94.2104C496.252 94.8824 495.356 95.3024 494.348 95.3024C492.052 95.3024 490.722 93.6084 490.722 91.5504C490.722 89.5064 492.052 87.8124 494.348 87.8124C495.356 87.8124 496.252 88.2324 496.924 88.9044L496.168 89.5764C495.692 89.1004 495.02 88.8204 494.292 88.8204C492.64 88.8204 491.73 90.0384 491.73 91.5504C491.73 93.0764 492.64 94.2944 494.292 94.2944ZM500.822 94.3084C502.39 94.3084 503.216 93.1604 503.216 91.6764C503.216 90.1924 502.39 89.0444 500.822 89.0444C499.24 89.0444 498.442 90.1924 498.442 91.6764C498.442 93.1604 499.24 94.3084 500.822 94.3084ZM497.434 91.6764C497.434 89.7304 498.638 88.0644 500.822 88.0644C503.02 88.0644 504.224 89.7304 504.224 91.6764C504.224 93.6224 503.02 95.2884 500.822 95.2884C498.638 95.2884 497.434 93.6224 497.434 91.6764ZM510.318 91.0324C510.318 89.8844 509.646 89.0864 508.47 89.0864C507.252 89.0864 506.356 90.2204 506.356 91.1724V95.2324H505.348V88.1064H506.356V89.3244C506.832 88.6244 507.532 88.1064 508.512 88.1064C510.178 88.1064 511.326 89.3664 511.326 90.9344V95.2324H510.318V91.0324ZM515.845 95.3444C513.675 95.3444 512.443 93.6784 512.443 91.7184C512.443 89.7724 513.675 88.0924 515.845 88.0924C516.755 88.0924 517.707 88.5544 518.295 89.6184V84.8444H519.303V95.2324H518.295V93.8184C517.693 94.8824 516.755 95.3444 515.845 95.3444ZM513.451 91.7184C513.451 93.2164 514.305 94.3364 515.887 94.3364C517.175 94.3364 518.295 93.2164 518.295 91.7184C518.295 90.2344 517.175 89.1004 515.887 89.1004C514.305 89.1004 513.451 90.2344 513.451 91.7184ZM523.848 94.3224C525.108 94.3224 526.242 93.3004 526.256 91.7324C526.242 90.1784 525.108 89.1424 523.848 89.1424C522.294 89.1424 521.454 90.2624 521.454 91.7324C521.454 93.2024 522.294 94.3224 523.848 94.3224ZM520.446 91.7324C520.446 89.7864 521.664 88.1484 523.834 88.1484C524.66 88.1484 525.584 88.5824 526.228 89.6184V88.1064H527.236V95.2324H526.228V93.8324C525.556 94.9244 524.674 95.3304 523.834 95.3304C521.664 95.3304 520.446 93.6644 520.446 91.7324ZM529.435 89.6044C529.841 88.6664 531.003 88.0364 531.969 88.0364V89.0724C530.667 89.0724 529.435 90.4304 529.435 91.5644V95.2324H528.427V88.1064H529.435V89.6044ZM535.461 98.4524H534.369L535.769 94.9664L532.857 88.1064H533.963L536.301 93.6224L538.541 88.1064H539.633L536.917 94.7984L535.461 98.4524ZM543.611 90.1784C543.611 92.2504 542.995 94.1824 541.931 95.8624H540.797C542.001 94.2104 542.687 92.2644 542.687 90.1784C542.687 88.0924 542.001 86.1464 540.797 84.4944H541.931C542.995 86.1744 543.611 88.1064 543.611 90.1784Z" fill="#616161"/>
<path d="M345.411 111.341V117.711H346.909V118.691H345.411V121.449H344.403V118.691H339.839V117.711L344.431 111.341H345.411ZM341.085 117.711H344.403V113.105L341.085 117.711ZM349.224 120.231C349.672 120.231 349.91 120.539 349.91 120.917C349.91 121.323 349.672 121.631 349.224 121.631C348.762 121.631 348.51 121.323 348.51 120.917C348.51 120.539 348.762 120.231 349.224 120.231ZM362.846 112.489H365.562V110.221H366.612V116.549H365.562V113.357H362.846V112.489ZM356.56 115.737C358.38 115.121 359.64 113.581 359.64 111.775V110.599H360.662V111.775C360.662 113.385 361.95 114.883 363.686 115.471L363.14 116.283C361.796 115.793 360.718 114.813 360.172 113.581C359.668 114.967 358.548 116.045 357.12 116.563L356.56 115.737ZM358.758 118.033V117.193H366.612V120.091H359.808V121.463H367.074V122.303H358.772V119.293H365.576V118.033H358.758ZM377.448 110.221H378.498V117.473H377.448V115.513H374.578V116.577H369.02V111.145H374.578V112.223H377.448V110.221ZM370.042 115.737H373.556V111.999H370.042V115.737ZM370.406 120.147C370.406 118.691 371.96 117.837 374.48 117.837C377 117.837 378.554 118.691 378.554 120.147C378.554 121.617 377 122.443 374.48 122.443C371.96 122.443 370.406 121.617 370.406 120.147ZM371.456 120.147C371.456 121.057 372.604 121.617 374.48 121.617C376.356 121.617 377.504 121.057 377.504 120.147C377.504 119.223 376.356 118.677 374.48 118.677C372.604 118.677 371.456 119.223 371.456 120.147ZM374.578 114.659H377.448V113.091H374.578V114.659ZM381.229 116.395C381.229 114.323 381.859 112.391 382.923 110.711H384.057C382.853 112.363 382.153 114.309 382.153 116.395C382.153 118.481 382.853 120.427 384.057 122.079H382.923C381.859 120.399 381.229 118.467 381.229 116.395ZM390.638 121.561C387.586 121.561 385.654 119.223 385.654 116.395C385.654 113.567 387.586 111.229 390.638 111.229C392.024 111.229 393.27 111.817 394.166 112.741L393.424 113.441C392.71 112.699 391.73 112.265 390.638 112.265C388.188 112.265 386.676 114.099 386.676 116.395C386.676 118.705 388.188 120.539 390.638 120.539C391.73 120.539 392.71 120.091 393.424 119.349L394.166 120.049C393.27 120.973 392.024 121.561 390.638 121.561ZM398.447 120.525C400.015 120.525 400.841 119.377 400.841 117.893C400.841 116.409 400.015 115.261 398.447 115.261C396.865 115.261 396.067 116.409 396.067 117.893C396.067 119.377 396.865 120.525 398.447 120.525ZM395.059 117.893C395.059 115.947 396.263 114.281 398.447 114.281C400.645 114.281 401.849 115.947 401.849 117.893C401.849 119.839 400.645 121.505 398.447 121.505C396.263 121.505 395.059 119.839 395.059 117.893ZM402.861 111.061H403.869V121.449H402.861V111.061ZM408.274 120.525C409.842 120.525 410.668 119.377 410.668 117.893C410.668 116.409 409.842 115.261 408.274 115.261C406.692 115.261 405.894 116.409 405.894 117.893C405.894 119.377 406.692 120.525 408.274 120.525ZM404.886 117.893C404.886 115.947 406.09 114.281 408.274 114.281C410.472 114.281 411.676 115.947 411.676 117.893C411.676 119.839 410.472 121.505 408.274 121.505C406.09 121.505 404.886 119.839 404.886 117.893ZM413.738 115.821C414.144 114.883 415.306 114.253 416.272 114.253V115.289C414.97 115.289 413.738 116.647 413.738 117.781V121.449H412.73V114.323H413.738V115.821ZM421.038 110.753L418.112 122.121H417.104L420.044 110.753H421.038ZM429.81 111.341V112.321H426.646V121.449H425.638V112.321H422.488V111.341H429.81ZM434.924 117.389C434.812 116.381 434.322 115.303 432.81 115.303C431.48 115.303 430.626 116.017 430.444 117.403L434.924 117.389ZM429.408 117.893C429.408 115.933 430.584 114.295 432.768 114.295C435.036 114.295 435.61 116.059 435.68 116.227C436.1 117.375 435.932 118.383 435.932 118.383H430.444C430.626 119.699 431.48 120.483 432.782 120.483C434.392 120.483 434.784 119.601 434.882 119.461L435.75 119.923C435.75 119.923 435.162 121.491 432.768 121.491C430.584 121.491 429.408 119.839 429.408 117.893ZM442.85 114.323L440.148 117.893L442.85 121.449H441.576L439.63 118.803L437.684 121.449H436.41L439.098 117.893L436.41 114.323H437.684L439.63 116.997L441.576 114.323H442.85ZM447.339 121.295C447.087 121.351 446.709 121.421 446.303 121.421C445.239 121.421 444.385 120.567 444.385 119.517V115.247H443.223V114.267H444.385V112.069H445.393V114.267H447.059V115.247H445.393V119.517C445.393 120.077 445.729 120.413 446.303 120.413C446.625 120.413 446.891 120.371 447.115 120.315L447.339 121.295ZM452.62 110.753L449.694 122.121H448.686L451.626 110.753H452.62ZM457.85 121.295C457.598 121.351 457.22 121.421 456.814 121.421C455.75 121.421 454.896 120.567 454.896 119.517V115.247H453.734V114.267H454.896V112.069H455.904V114.267H457.57V115.247H455.904V119.517C455.904 120.077 456.24 120.413 456.814 120.413C457.136 120.413 457.402 120.371 457.626 120.315L457.85 121.295ZM463.977 117.389C463.865 116.381 463.375 115.303 461.863 115.303C460.533 115.303 459.679 116.017 459.497 117.403L463.977 117.389ZM458.461 117.893C458.461 115.933 459.637 114.295 461.821 114.295C464.089 114.295 464.663 116.059 464.733 116.227C465.153 117.375 464.985 118.383 464.985 118.383H459.497C459.679 119.699 460.533 120.483 461.835 120.483C463.445 120.483 463.837 119.601 463.935 119.461L464.803 119.923C464.803 119.923 464.215 121.491 461.821 121.491C459.637 121.491 458.461 119.839 458.461 117.893ZM467.094 115.821C467.5 114.883 468.662 114.253 469.628 114.253V115.289C468.326 115.289 467.094 116.647 467.094 117.781V121.449H466.086V114.323H467.094V115.821ZM470.88 114.323H471.888V121.449H470.88V114.323ZM470.74 111.733C470.74 111.383 470.964 111.103 471.384 111.103C471.79 111.103 472.014 111.383 472.014 111.733C472.014 112.097 471.79 112.377 471.384 112.377C470.964 112.377 470.74 112.097 470.74 111.733ZM477.149 121.295C476.897 121.351 476.519 121.421 476.113 121.421C475.049 121.421 474.195 120.567 474.195 119.517V115.247H473.033V114.267H474.195V112.069H475.203V114.267H476.869V115.247H475.203V119.517C475.203 120.077 475.539 120.413 476.113 120.413C476.435 120.413 476.701 120.371 476.925 120.315L477.149 121.295ZM478.492 114.323H479.5V121.449H478.492V114.323ZM478.352 111.733C478.352 111.383 478.576 111.103 478.996 111.103C479.402 111.103 479.626 111.383 479.626 111.733C479.626 112.097 479.402 112.377 478.996 112.377C478.576 112.377 478.352 112.097 478.352 111.733ZM484.244 120.539C485.504 120.539 486.638 119.517 486.652 117.949C486.638 116.395 485.504 115.359 484.244 115.359C482.69 115.359 481.85 116.479 481.85 117.949C481.85 119.419 482.69 120.539 484.244 120.539ZM480.842 117.949C480.842 116.003 482.06 114.365 484.23 114.365C485.056 114.365 485.98 114.799 486.624 115.835V114.323H487.632V121.449H486.624V120.049C485.952 121.141 485.07 121.547 484.23 121.547C482.06 121.547 480.842 119.881 480.842 117.949ZM489.83 115.821C490.236 114.883 491.398 114.253 492.364 114.253V115.289C491.062 115.289 489.83 116.647 489.83 117.781V121.449H488.822V114.323H489.83V115.821ZM495.856 124.669H494.764L496.164 121.183L493.252 114.323H494.358L496.696 119.839L498.936 114.323H500.028L497.312 121.015L495.856 124.669ZM504.006 116.395C504.006 118.467 503.39 120.399 502.326 122.079H501.192C502.396 120.427 503.082 118.481 503.082 116.395C503.082 114.309 502.396 112.363 501.192 110.711H502.326C503.39 112.391 504.006 114.323 504.006 116.395Z" fill="#616161"/>
<defs>
<filter id="filter0_dd_311_23224" x="26.5495" y="0.947536" width="304.911" height="147.649" filterUnits="userSpaceOnUse" color-interpolation-filters="sRGB">
<feFlood flood-opacity="0" result="BackgroundImageFix"/>
<feColorMatrix in="SourceAlpha" type="matrix" values="0 0 0 0 0 0 0 0 0 0 0 0 0 0 0 0 0 0 127 0" result="hardAlpha"/>
<feOffset/>
<feGaussianBlur stdDeviation="0.466159"/>
<feComposite in2="hardAlpha" operator="out"/>
<feColorMatrix type="matrix" values="0 0 0 0 0 0 0 0 0 0 0 0 0 0 0 0 0 0 0.2 0"/>
<feBlend mode="normal" in2="BackgroundImageFix" result="effect1_dropShadow_311_23224"/>
<feColorMatrix in="SourceAlpha" type="matrix" values="0 0 0 0 0 0 0 0 0 0 0 0 0 0 0 0 0 0 127 0" result="hardAlpha"/>
<feOffset dy="1.86464"/>
<feGaussianBlur stdDeviation="7.45855"/>
<feComposite in2="hardAlpha" operator="out"/>
<feColorMatrix type="matrix" values="0 0 0 0 0 0 0 0 0 0 0 0 0 0 0 0 0 0 0.08 0"/>
<feBlend mode="normal" in2="effect1_dropShadow_311_23224" result="effect2_dropShadow_311_23224"/>
<feBlend mode="normal" in="SourceGraphic" in2="effect2_dropShadow_311_23224" result="shape"/>
</filter>
</defs>
</svg>
