<svg width="618" height="131" viewBox="0 0 618 131" fill="none" xmlns="http://www.w3.org/2000/svg">
<path d="M95.4995 2.05518C103.477 2.05518 109.944 8.52197 109.944 16.4995C109.944 24.4771 103.477 30.9438 95.4995 30.9438C87.522 30.9438 81.0552 24.4771 81.0552 16.4995C81.0553 8.52203 87.522 2.05526 95.4995 2.05518ZM95.4995 4.12451C88.6651 4.1246 83.1246 9.66512 83.1245 16.4995C83.1245 23.334 88.6651 28.8744 95.4995 28.8745C102.334 28.8745 107.875 23.334 107.875 16.4995C107.874 9.66506 102.334 4.12451 95.4995 4.12451ZM95.5464 17.7085C95.6192 17.7124 95.6903 17.7243 95.7583 17.7456C95.7859 17.7542 95.8132 17.7638 95.8394 17.7749C95.8784 17.7916 95.9156 17.8124 95.9517 17.8345C95.9665 17.8436 95.9814 17.8529 95.9956 17.8628C96.0263 17.8842 96.0558 17.9078 96.0835 17.9331C96.0877 17.9369 96.0931 17.9399 96.0972 17.9438L96.106 17.9526C96.1744 18.0195 96.2312 18.099 96.2749 18.187C96.2771 18.1915 96.2796 18.1962 96.2817 18.2007C96.3015 18.2423 96.3184 18.2861 96.3315 18.3315C96.3337 18.3392 96.3354 18.3473 96.3374 18.355C96.341 18.369 96.3462 18.3836 96.3491 18.3979C96.4406 18.8415 96.6398 19.121 96.8921 19.3179C97.1624 19.5284 97.5396 19.6788 98.0132 19.7671C98.9809 19.9473 100.101 19.8319 100.938 19.7466C101.414 19.6983 101.84 20.0451 101.888 20.521C101.936 20.9963 101.589 21.4215 101.114 21.4702C100.33 21.5501 98.9525 21.7052 97.6958 21.4712C97.0577 21.3522 96.3886 21.123 95.8267 20.6851C95.7106 20.5946 95.6021 20.4939 95.4995 20.3882C95.397 20.4937 95.2902 20.5947 95.1743 20.6851C94.6124 21.1232 93.9434 21.3522 93.3052 21.4712C92.0486 21.7053 90.6713 21.5502 89.8872 21.4702C89.4116 21.4217 89.065 20.9965 89.1128 20.521C89.1613 20.045 89.587 19.6981 90.063 19.7466C90.8997 19.8319 92.0201 19.9474 92.9878 19.7671C93.4616 19.6787 93.8386 19.5286 94.1089 19.3179C94.3277 19.1471 94.5059 18.9141 94.6089 18.5659L94.6694 18.3237C94.6779 18.2956 94.6875 18.2677 94.6987 18.2407C94.7052 18.225 94.7138 18.21 94.7212 18.1948C94.748 18.1396 94.7801 18.0869 94.8179 18.0386C94.8207 18.035 94.8228 18.0305 94.8257 18.0269C94.8547 17.991 94.8878 17.9582 94.9224 17.9272C94.9275 17.9227 94.9318 17.917 94.937 17.9126C94.9735 17.8814 95.0134 17.8536 95.0552 17.8286C95.0572 17.8274 95.0591 17.8259 95.061 17.8247C95.1013 17.801 95.1443 17.7813 95.189 17.7642C95.1961 17.7614 95.2033 17.7589 95.2104 17.7563C95.2475 17.7433 95.2861 17.7323 95.3257 17.7241C95.3292 17.7234 95.3329 17.7238 95.3364 17.7231C95.3487 17.7208 95.3611 17.7191 95.3735 17.7173C95.4182 17.7106 95.4624 17.7063 95.5063 17.7065C95.5196 17.7067 95.533 17.7078 95.5464 17.7085ZM91.356 13.7368C92.1188 13.7369 92.7378 14.3558 92.7378 15.1187C92.7375 15.8813 92.1186 16.4994 91.356 16.4995C90.5932 16.4995 89.9754 15.8813 89.9751 15.1187C89.9751 14.3558 90.5931 13.7369 91.356 13.7368ZM99.644 13.7368C100.407 13.7369 101.026 14.3558 101.026 15.1187C101.026 15.8813 100.407 16.4994 99.644 16.4995C98.8815 16.4993 98.2635 15.8812 98.2632 15.1187C98.2632 14.3559 98.8813 13.737 99.644 13.7368Z" fill="#1A1A1A"/>
<path d="M161.348 2.69531C164.205 2.69557 166.522 5.01255 166.522 7.87012V10.1904H177.364L177.47 10.1963C177.992 10.2491 178.399 10.6896 178.399 11.2256C178.399 11.7615 177.992 12.2021 177.47 12.2549L177.364 12.2607H166.522V15.3867C166.869 15.34 167.224 15.3135 167.584 15.3135L167.979 15.3232C170.928 15.4694 173.437 17.2378 174.59 19.7305H179.546C181.816 19.7305 183.688 21.4342 183.954 23.6328C185.396 24.0524 186.446 25.3551 186.446 26.8975L186.442 27.0723C186.349 28.8726 184.822 30.3047 182.953 30.3047L182.773 30.2998C180.987 30.2114 179.555 28.8144 179.465 27.0723L179.46 26.8975C179.46 25.388 180.467 24.1084 181.861 23.6611C181.627 22.597 180.68 21.8008 179.546 21.8008H175.197C175.243 22.1305 175.269 22.4667 175.269 22.8086L175.259 23.1943C175.053 27.1545 171.695 30.3042 167.584 30.3047L167.188 30.2949C163.259 30.1008 160.107 27.0272 159.908 23.1943L159.898 22.8086C159.899 19.7569 161.769 17.1329 164.453 15.9639V11.2432C164.453 11.2373 164.452 11.2315 164.452 11.2256C164.452 11.2197 164.453 11.2139 164.453 11.208V7.87012C164.453 6.15564 163.062 4.76589 161.348 4.76562H159.898C159.327 4.76562 158.863 4.30188 158.863 3.73047C158.863 3.15892 159.327 2.69531 159.898 2.69531H161.348ZM167.584 17.3828C164.434 17.3828 161.968 19.8609 161.968 22.8086C161.968 25.7566 164.434 28.2344 167.584 28.2344C170.734 28.2339 173.199 25.7563 173.199 22.8086C173.199 19.8612 170.734 17.3833 167.584 17.3828ZM182.953 25.5596C182.118 25.5597 181.529 26.2076 181.529 26.8975C181.529 27.5874 182.118 28.2342 182.953 28.2344C183.788 28.2344 184.377 27.5874 184.377 26.8975C184.377 26.2075 183.788 25.5596 182.953 25.5596ZM167.583 20.7656C168.741 20.7656 169.68 21.6806 169.68 22.8096C169.68 23.9385 168.741 24.8535 167.583 24.8535C166.426 24.8534 165.487 23.9384 165.487 22.8096C165.487 21.6807 166.426 20.7658 167.583 20.7656Z" fill="#1A1A1A"/>
<path d="M258.234 2.74756C259.257 2.74756 260.239 3.15535 260.962 3.87939C261.685 4.60349 262.09 5.58577 262.09 6.60889V26.3901C262.09 27.4134 261.685 28.3954 260.962 29.1196C260.239 29.8439 259.258 30.2515 258.234 30.2515H241.312C240.289 30.2513 239.308 29.8437 238.585 29.1196C237.908 28.4407 237.508 27.5351 237.461 26.5815L237.456 26.3901V6.60889C237.456 5.58571 237.862 4.6035 238.585 3.87939C239.308 3.15529 240.289 2.7477 241.312 2.74756H258.234ZM241.312 4.81787C240.839 4.81801 240.385 5.00583 240.05 5.34131C239.715 5.67696 239.526 6.13336 239.526 6.60889V26.3901L239.535 26.5679C239.576 26.9781 239.757 27.3641 240.05 27.6577C240.385 27.9932 240.839 28.181 241.312 28.1812H258.234C258.707 28.1812 259.162 27.9934 259.497 27.6577C259.832 27.322 260.021 26.8658 260.021 26.3901V6.60889C260.02 6.13339 259.832 5.67695 259.497 5.34131C259.162 5.00586 258.707 4.81787 258.234 4.81787H241.312ZM255.521 23.1011C256.042 23.154 256.45 23.5945 256.45 24.1304C256.45 24.6662 256.042 25.1067 255.521 25.1597L255.415 25.1655H244.133C243.561 25.1655 243.098 24.7018 243.098 24.1304C243.098 23.5588 243.561 23.0952 244.133 23.0952H255.415L255.521 23.1011ZM255.526 17.4487C256.048 17.5018 256.455 17.9423 256.455 18.478C256.455 19.0138 256.048 19.4543 255.526 19.5073L255.421 19.5132H244.133C243.561 19.5132 243.098 19.0496 243.098 18.478C243.098 17.9065 243.561 17.4429 244.133 17.4429H255.421L255.526 17.4487ZM246.54 8.93018C247.293 8.13539 248.514 8.1355 249.267 8.93018C250.02 9.72529 250.02 11.0149 249.267 11.8101L247.175 14.019C246.773 14.4432 246.097 14.4433 245.695 14.019L243.604 11.8101C242.851 11.0149 242.851 9.72529 243.604 8.93018C244.356 8.13543 245.577 8.13546 246.33 8.93018C246.387 8.99034 246.483 8.99034 246.54 8.93018Z" fill="#1F2937"/>
<path d="M314.803 12.155C316.016 5.85475 322.054 1.74093 328.289 2.96649L328.579 3.02704C334.649 4.38247 338.576 10.3916 337.382 16.5934L337.254 17.1784C336.756 19.206 335.751 20.9848 334.405 22.405L338.983 27.9567L339.067 28.071C339.456 28.6537 339.35 29.4462 338.8 29.9001C338.251 30.3538 337.453 30.3076 336.955 29.8151L336.859 29.7106L332.287 24.1657C329.886 25.7173 326.914 26.3761 323.896 25.7829L323.605 25.7214C317.728 24.4088 313.861 18.7342 314.705 12.7458L314.803 12.155ZM327.767 5.67646C323.053 4.74977 318.441 7.85872 317.511 12.6872C316.582 17.5158 319.703 22.1459 324.418 23.0729C329.132 23.9996 333.745 20.8898 334.674 16.0612C335.604 11.2328 332.481 6.60361 327.767 5.67646Z" fill="#1A1A1A"/>
<g clip-path="url(#clip0_739_13920)">
<path d="M404.183 5.46143H404.097H404.058C399.336 5.53546 395.495 9.40853 395.495 14.0882C395.495 16.6988 396.74 19.5627 399.191 22.6097C399.328 22.7812 399.47 22.9526 399.615 23.1241C399.623 23.1318 399.627 23.1396 399.635 23.1474C399.91 23.4708 400.2 23.802 400.503 24.1293C400.621 24.2579 400.739 24.3865 400.86 24.5112C400.896 24.5502 400.931 24.5852 400.97 24.6242C402.231 25.9373 403.41 26.9543 404.121 27.5348C404.835 26.9504 406.026 25.9256 407.298 24.6008C407.326 24.5735 407.353 24.5424 407.381 24.5151C407.51 24.3787 407.64 24.2423 407.766 24.1021C408.056 23.7865 408.339 23.4669 408.606 23.1513C408.618 23.1396 408.626 23.128 408.638 23.1163C408.783 22.9448 408.925 22.7734 409.062 22.598C411.505 19.5549 412.746 16.6949 412.746 14.0882C412.743 9.40853 408.905 5.53546 404.183 5.46143ZM404.121 18.0742C401.607 18.0742 399.56 16.0442 399.56 13.5505C399.56 11.0567 401.607 9.02668 404.121 9.02668C406.634 9.02668 408.681 11.0567 408.681 13.5505C408.681 16.0442 406.634 18.0742 404.121 18.0742Z" fill="#1A1A1A"/>
</g>
<path fill-rule="evenodd" clip-rule="evenodd" d="M471.459 6.68645V12.8957H477.669V6.68645H471.459ZM470.04 5.14753C470.435 4.79644 470.947 4.6167 471.459 4.6167H477.669C478.181 4.6167 478.693 4.79644 479.088 5.14753C479.487 5.50214 479.738 6.01106 479.738 6.57146V13.0107C479.738 13.5711 479.487 14.08 479.088 14.4346C478.693 14.7857 478.181 14.9654 477.669 14.9654H471.459C470.947 14.9654 470.435 14.7857 470.04 14.4346C469.641 14.08 469.39 13.5711 469.39 13.0107V6.57146C469.39 6.01106 469.641 5.50214 470.04 5.14753ZM483.878 6.68645V12.8957H490.087V6.68645H483.878ZM482.459 5.14753C482.854 4.79644 483.366 4.6167 483.878 4.6167H490.087C490.599 4.6167 491.111 4.79644 491.506 5.14753C491.905 5.50214 492.157 6.01105 492.157 6.57146V13.0107C492.157 13.5711 491.905 14.08 491.506 14.4346C491.111 14.7857 490.599 14.9654 490.087 14.9654H483.878C483.366 14.9654 482.854 14.7857 482.459 14.4346C482.06 14.08 481.808 13.5711 481.808 13.0107V6.57146C481.808 6.01105 482.06 5.50214 482.459 5.14753ZM471.459 19.1049V25.3142H477.669V19.1049H471.459ZM470.04 17.566C470.435 17.2149 470.947 17.0352 471.459 17.0352H477.669C478.181 17.0352 478.693 17.2149 479.088 17.566C479.487 17.9206 479.738 18.4295 479.738 18.9899V25.4292C479.738 25.9896 479.487 26.4985 479.088 26.8531C478.693 27.2042 478.181 27.3839 477.669 27.3839H471.459C470.947 27.3839 470.435 27.2042 470.04 26.8531C469.641 26.4985 469.39 25.9896 469.39 25.4292V18.9899C469.39 18.4295 469.641 17.9206 470.04 17.566ZM483.878 19.1049V25.3142H490.087V19.1049H483.878ZM482.459 17.566C482.854 17.2149 483.366 17.0352 483.878 17.0352H490.087C490.599 17.0352 491.111 17.2149 491.506 17.566C491.905 17.9206 492.157 18.4295 492.157 18.9899V25.4292C492.157 25.9896 491.905 26.4985 491.506 26.8531C491.111 27.2042 490.599 27.3839 490.087 27.3839H483.878C483.366 27.3839 482.854 27.2042 482.459 26.8531C482.06 26.4985 481.808 25.9896 481.808 25.4292V18.9899C481.808 18.4295 482.06 17.9206 482.459 17.566Z" fill="#1F2937"/>
<g clip-path="url(#clip1_739_13920)">
<path d="M112.451 86.2476C114.623 86.2477 116.549 87.6435 117.225 89.7075L126.179 117.056C126.376 117.66 126.048 118.31 125.444 118.507C124.841 118.705 124.191 118.375 123.993 117.772L119.254 103.297L115.138 108.288C114.919 108.552 114.594 108.706 114.251 108.706H113.752L117.884 120.919C118.087 121.521 117.765 122.173 117.163 122.376C116.562 122.58 115.91 122.257 115.706 121.656L111.324 108.706H99.5275L98.1417 117.591C98.0439 118.219 97.4565 118.648 96.8292 118.55C96.2018 118.452 95.7724 117.864 95.8702 117.237L97.2003 108.706H92.1642C92.0769 108.706 91.992 108.695 91.9103 108.676L89.8497 121.47C89.7487 122.097 89.1583 122.523 88.5314 122.422C87.9046 122.321 87.4784 121.732 87.5792 121.105L91.7345 95.313C92.1267 92.8787 94.2278 91.0895 96.6935 91.0894H99.9464L100.039 90.4966C100.421 88.0508 102.527 86.2476 105.002 86.2476H112.451ZM96.6935 93.3882C95.3567 93.3883 94.2176 94.3594 94.005 95.6792L92.2765 106.406H97.5587L99.588 93.3882H96.6935ZM99.8859 106.406H110.546L109.418 103.072H100.406L99.8859 106.406ZM112.974 106.406H113.709L116.459 103.072H111.846L112.974 106.406ZM100.765 100.772H108.64L106.768 95.2388C106.393 94.133 105.356 93.3883 104.189 93.3882H101.916L100.765 100.772ZM105.002 88.5474C103.66 88.5474 102.518 89.525 102.312 90.8511L102.275 91.0894H104.189C106.342 91.0894 108.256 92.4623 108.946 94.5024L111.068 100.772H118.428L115.039 90.4233C114.673 89.3044 113.629 88.5475 112.451 88.5474H105.002Z" fill="#BDBDBD"/>
<path d="M103.784 87.1593C103.784 86.2518 104.52 85.5161 105.427 85.5161H111.437C112.344 85.5161 113.08 86.2518 113.08 87.1593C113.08 88.0668 112.344 88.8024 111.437 88.8024H105.427C104.52 88.8024 103.784 88.0668 103.784 87.1593Z" fill="url(#paint0_linear_739_13920)"/>
<path d="M95.4932 92.0006C95.4932 91.0931 96.2288 90.3574 97.1363 90.3574H103.146C104.053 90.3574 104.789 91.0931 104.789 92.0006C104.789 92.9081 104.053 93.6437 103.146 93.6437H97.1363C96.2288 93.6437 95.4932 92.9081 95.4932 92.0006Z" fill="url(#paint1_linear_739_13920)"/>
<ellipse cx="116.796" cy="121.137" rx="1.16196" ry="1.17369" fill="#333333"/>
<ellipse cx="88.9095" cy="121.137" rx="1.16196" ry="1.17369" fill="#333333"/>
<ellipse cx="125.28" cy="117.675" rx="1.16196" ry="1.17369" fill="#333333"/>
<ellipse cx="96.909" cy="117.675" rx="1.16196" ry="1.17369" fill="#333333"/>
<g clip-path="url(#clip2_739_13920)">
<circle opacity="0.5" cx="116.256" cy="89.7985" r="8.27899" fill="#EFF6FF"/>
<path d="M127.093 98.9697C127.362 99.2391 127.362 99.6761 127.093 99.9453C126.824 100.215 126.387 100.214 126.117 99.9453L127.093 98.9697ZM116.682 81.5303C121.056 81.752 124.534 85.3694 124.534 89.7988L124.523 90.2246C124.437 91.9212 123.839 93.4815 122.882 94.7578L127.093 98.9697L126.604 99.457L126.117 99.9453L121.964 95.793C120.479 97.2077 118.469 98.0771 116.256 98.0771L115.829 98.0664C111.596 97.8516 108.202 94.4577 107.987 90.2246L107.977 89.7988C107.977 85.2265 111.683 81.5195 116.256 81.5195L116.682 81.5303ZM116.256 82.8994C112.446 82.8994 109.356 85.9885 109.356 89.7988C109.357 93.609 112.446 96.6973 116.256 96.6973C120.066 96.6971 123.154 93.6089 123.154 89.7988C123.154 85.9886 120.066 82.8996 116.256 82.8994Z" fill="url(#paint2_linear_739_13920)"/>
</g>
</g>
<g clip-path="url(#clip3_739_13920)">
<g clip-path="url(#clip4_739_13920)">
<path d="M217.152 104.977C216.653 105.201 216.123 105.327 215.572 105.308C215.404 105.301 215.342 105.381 215.291 105.514C214.549 107.441 213.388 109.08 211.868 110.469C211.725 110.601 211.683 110.676 211.866 110.824C212.423 111.274 212.943 111.769 213.408 112.315C213.547 112.476 213.696 112.518 213.895 112.507C214.719 112.462 215.446 112.17 216.065 111.634C217.35 110.52 217.877 109.067 217.917 107.405C217.926 106.61 217.762 105.852 217.466 105.121C217.403 104.965 217.351 104.89 217.153 104.979L217.152 104.977Z" fill="#616161"/>
<path d="M187.356 105.495C187.289 105.319 187.183 105.301 187.027 105.302C186.517 105.308 186.025 105.203 185.563 104.994C185.341 104.893 185.249 104.931 185.165 105.159C184.426 107.176 184.601 109.091 185.861 110.852C186.564 111.833 187.525 112.426 188.766 112.492C188.944 112.501 189.091 112.477 189.221 112.324C189.736 111.716 190.329 111.187 190.946 110.662C190.903 110.608 190.869 110.553 190.822 110.509C189.286 109.101 188.103 107.448 187.356 105.495Z" fill="#616161"/>
<path d="M211.826 126.017C210.964 126.037 210.101 126.034 209.24 126.017L209.238 126.019L206.468 126.024C201.296 126.022 196.123 126.022 190.95 126.018C189.203 126.017 187.902 124.961 187.563 123.265C187.452 122.707 187.522 122.156 187.722 121.625C188.63 119.216 190.083 117.198 192.067 115.558C192.187 115.46 192.313 115.31 192.456 115.502C192.614 115.714 193.064 115.652 192.943 116.138C192.387 118.366 193.307 120.487 195.183 121.389C196.988 122.256 199.281 121.7 200.717 120.042C200.914 119.814 201.087 119.567 201.295 119.297C201.786 120.052 202.388 120.669 203.154 121.121C205.853 122.712 209.003 121.386 209.684 118.366C209.855 117.613 209.821 116.86 209.612 116.124C209.479 115.652 209.946 115.7 210.11 115.488C210.257 115.298 210.382 115.454 210.501 115.553C212.474 117.184 213.933 119.185 214.831 121.583C215.627 123.713 214.101 125.964 211.826 126.017Z" fill="url(#paint3_linear_739_13920)"/>
<path d="M194.391 116.813C194.254 116.743 194.104 116.618 194.056 116.906C193.793 118.517 194.52 120.112 196.127 120.603C197.761 121.102 199.806 120.049 200.405 118.401C199.558 118.32 198.718 118.235 197.892 118.049C196.676 117.775 195.506 117.374 194.391 116.813Z" fill="white"/>
<path d="M208.144 116.816C207.068 117.368 205.931 117.752 204.754 118.024C203.9 118.221 203.033 118.306 202.16 118.395C202.713 119.965 204.674 121.039 206.249 120.655C207.844 120.266 208.745 118.821 208.532 117.021C208.496 116.713 208.41 116.678 208.144 116.815V116.816Z" fill="white"/>
<path d="M214.369 105.479C214.333 105.21 214.23 105.143 213.98 105.117C211.54 104.871 209.573 103.789 208.146 101.772C207.886 101.405 207.55 101.222 207.099 101.246C205.261 101.346 203.48 101.078 201.77 100.386C201.446 100.255 201.128 100.252 200.805 100.383C199.094 101.076 197.314 101.344 195.476 101.245C195.042 101.222 194.698 101.377 194.449 101.731C193.012 103.779 191.029 104.88 188.557 105.124C188.318 105.147 188.231 105.229 188.199 105.473C187.789 108.61 188.588 111.423 190.54 113.883C193.27 117.326 196.945 118.835 201.258 118.956C201.767 118.957 202.271 118.928 202.772 118.87C206.673 118.424 209.907 116.755 212.266 113.571C214.046 111.169 214.765 108.463 214.368 105.477L214.369 105.479Z" fill="#FFD7C0"/>
<path d="M191.368 93.0293C190.894 93.3208 190.417 93.6059 189.997 93.976C189.392 94.51 188.889 95.1206 188.624 95.8929C188.346 96.7002 187.809 97.2204 187.018 97.5342C185.723 98.0469 184.687 98.8947 183.976 100.1C182.452 102.678 183.688 105.551 186.632 106.121C189.376 106.651 191.655 105.757 193.352 103.525C193.969 102.713 194.697 102.31 195.722 102.368C197.303 102.456 198.839 102.208 200.31 101.609C200.955 101.347 201.593 101.331 202.242 101.595C203.763 102.217 205.35 102.458 206.986 102.37C207.988 102.316 208.692 102.759 209.258 103.559C210.892 105.87 214.152 106.892 216.68 105.916C218.983 105.028 219.901 102.76 218.842 100.533C218.136 99.0468 216.949 98.0735 215.446 97.465C214.826 97.214 214.331 96.8225 214.108 96.1886C213.534 94.5611 212.349 93.5314 210.837 92.8559C208.11 91.638 205.322 91.5433 202.526 92.5889C201.68 92.9049 200.911 92.9144 200.069 92.5857C198.038 91.7933 195.939 91.7124 193.814 92.1507" fill="#616161"/>
<path d="M214.705 105.856C214.603 105.885 214.502 105.914 214.398 105.936C214.18 105.984 213.888 105.957 213.761 106.09C213.604 106.255 213.771 106.54 213.793 106.771C213.931 108.153 213.801 109.511 213.487 110.856C213.53 110.871 213.555 110.888 213.578 110.886C215.81 110.661 216.998 108.036 215.699 106.202C215.453 105.853 215.121 105.738 214.706 105.858L214.705 105.856Z" fill="#FFD7C0"/>
<path d="M189.251 111.007C188.877 109.441 188.755 107.92 188.998 106.381C189.023 106.221 188.998 106.149 188.815 106.122C188.422 106.066 188.032 105.983 187.662 105.836C187.492 105.769 187.388 105.851 187.286 105.968C186.5 106.874 186.253 107.904 186.671 109.035C187.099 110.192 187.976 110.821 189.252 111.007H189.251Z" fill="#FFD7C0"/>
<path d="M201.297 123.791C200.947 123.784 200.655 124.065 200.66 124.404C200.664 124.725 200.947 125.006 201.271 125.014C201.609 125.021 201.91 124.728 201.907 124.392C201.904 124.065 201.631 123.796 201.298 123.79L201.297 123.791Z" fill="#333333"/>
<path d="M201.299 122.621C201.622 122.612 201.895 122.33 201.896 122.005C201.896 121.658 201.614 121.384 201.264 121.394C200.934 121.402 200.662 121.677 200.662 122C200.662 122.331 200.97 122.631 201.3 122.621H201.299Z" fill="#333333"/>
<path d="M206.191 107.753C205.308 107.744 204.524 108.481 204.485 109.357C204.469 109.718 204.683 109.999 205.007 110.04C205.341 110.081 205.609 109.881 205.665 109.508C205.712 109.194 205.847 108.962 206.178 108.961C206.508 108.961 206.647 109.189 206.693 109.504C206.749 109.888 206.997 110.081 207.34 110.048C207.681 110.015 207.898 109.726 207.874 109.341C207.817 108.471 207.065 107.762 206.191 107.754V107.753Z" fill="#333333"/>
<path d="M196.385 107.752C195.5 107.755 194.719 108.5 194.691 109.37C194.68 109.739 194.89 110.01 195.218 110.047C195.558 110.085 195.821 109.888 195.873 109.513C195.917 109.197 196.051 108.967 196.38 108.961C196.711 108.956 196.85 109.185 196.9 109.499C196.959 109.879 197.216 110.078 197.55 110.041C197.889 110.003 198.109 109.705 198.078 109.327C198.008 108.449 197.257 107.751 196.384 107.752H196.385Z" fill="#333333"/>
<path d="M202.048 110.29C201.384 110.798 201.178 110.799 200.525 110.296C200.237 110.073 199.937 110.08 199.703 110.313C199.465 110.55 199.464 110.888 199.715 111.164C200.139 111.63 200.678 111.842 201.23 111.862C201.886 111.857 202.535 111.56 202.876 111.141C203.096 110.87 203.094 110.547 202.87 110.318C202.64 110.083 202.334 110.072 202.048 110.29Z" fill="#333333"/>
<path fill-rule="evenodd" clip-rule="evenodd" d="M198.924 106.144C198.924 105.909 199.114 105.719 199.349 105.719H202.996C203.231 105.719 203.421 105.909 203.421 106.144C203.421 106.379 203.231 106.57 202.996 106.57H199.349C199.114 106.57 198.924 106.379 198.924 106.144Z" fill="#333333"/>
<path fill-rule="evenodd" clip-rule="evenodd" d="M199.568 104.289C199.568 104.054 199.758 103.864 199.993 103.864H202.354C202.589 103.864 202.779 104.054 202.779 104.289C202.779 104.524 202.589 104.715 202.354 104.715H199.993C199.758 104.715 199.568 104.524 199.568 104.289Z" fill="#333333"/>
</g>
<path d="M229.112 92.2504C229.054 92.4767 228.992 92.6986 228.923 92.9219C228.851 93.1444 228.837 93.3882 228.749 93.6035C228.661 93.8215 228.538 94.0215 228.435 94.2295C228.331 94.4374 228.248 94.6597 228.131 94.8612C228.014 95.0627 227.836 95.2267 227.708 95.4224C227.578 95.6173 227.464 95.8195 227.323 96.0023C227.181 96.1852 227.047 96.3822 226.893 96.5557C226.739 96.7292 226.584 96.9055 226.417 97.0698C226.251 97.234 226.07 97.3826 225.895 97.5355C225.719 97.6884 225.527 97.8249 225.341 97.9629C225.154 98.1009 224.95 98.2162 224.754 98.3429C224.559 98.4696 224.375 98.6174 224.172 98.73C223.968 98.8425 223.769 98.9712 223.557 99.0696C223.345 99.168 223.109 99.2121 222.892 99.2972C222.675 99.3822 222.46 99.468 222.236 99.5361C222.014 99.605 221.789 99.664 221.559 99.7159C221.33 99.7679 221.102 99.7933 220.871 99.8298C220.64 99.8664 220.414 99.9282 220.181 99.9493C219.948 99.9704 219.718 100.001 219.483 100.007C219.248 100.013 219.016 99.9864 218.783 99.9746C218.55 99.9629 218.317 99.9721 218.082 99.9449C217.847 99.9178 217.616 99.9096 217.385 99.8685C217.153 99.8274 216.927 99.7668 216.7 99.7118C216.472 99.6568 216.249 99.5732 216.029 99.5023C215.809 99.4313 215.584 99.3533 215.368 99.2684C215.151 99.1835 214.933 99.0951 214.723 98.9942C214.514 98.8934 214.332 98.7371 214.129 98.6231C213.926 98.5091 213.73 98.3819 213.537 98.2527C213.344 98.1234 213.125 98.0259 212.942 97.8843C212.758 97.7426 212.582 97.585 212.408 97.4309C212.234 97.2769 212.09 97.0891 211.928 96.9233C211.766 96.7576 211.589 96.6027 211.436 96.4274C211.282 96.252 211.159 96.0547 211.017 95.8677C210.879 95.6813 210.696 95.525 210.569 95.3298C210.442 95.1346 210.357 94.9149 210.245 94.7088C210.132 94.5054 210.002 94.3095 209.902 94.1008C209.803 93.892 209.731 93.667 209.649 93.4509C209.566 93.2348 209.438 93.0305 209.37 92.8062C209.3 92.5848 209.284 92.3446 209.231 92.1185C209.178 91.8924 209.112 91.6689 209.072 91.4375C209.033 91.206 208.995 90.9781 208.974 90.7456C208.952 90.513 208.961 90.2796 208.955 90.0453C208.949 89.8109 208.957 89.5803 208.966 89.3469C208.973 89.1163 209.017 88.8863 209.041 88.6538C209.064 88.4214 209.049 88.1875 209.09 87.9568C209.13 87.7288 209.21 87.5085 209.265 87.2787C209.321 87.049 209.395 86.83 209.466 86.6102C209.536 86.3905 209.589 86.1599 209.677 85.9447C209.764 85.7294 209.869 85.5187 209.969 85.3099C210.071 85.0984 210.154 84.8789 210.268 84.6767C210.385 84.4752 210.548 84.3012 210.677 84.109C210.806 83.9169 210.941 83.7262 211.084 83.5406C211.226 83.355 211.387 83.1892 211.541 83.0157C211.696 82.8422 211.838 82.6565 212.005 82.4923C212.171 82.3281 212.358 82.1901 212.536 82.0379C212.715 81.8858 212.863 81.7017 213.049 81.5637C213.236 81.4257 213.424 81.2821 213.619 81.1554C213.815 81.0287 214.023 80.9205 214.227 80.808C214.431 80.6954 214.629 80.5695 214.841 80.4711C215.052 80.3727 215.283 80.3152 215.5 80.2301C215.718 80.1451 215.934 80.0538 216.155 79.9849C216.377 79.916 216.605 79.8605 216.832 79.8051C217.059 79.7496 217.291 79.734 217.522 79.6947C217.754 79.6554 217.979 79.6082 218.213 79.5843C218.447 79.5604 218.677 79.5504 218.912 79.5447C219.147 79.539 219.377 79.5382 219.611 79.5471C219.845 79.5561 220.076 79.5762 220.308 79.6026C220.54 79.629 220.777 79.6268 221.009 79.6679C221.24 79.709 221.466 79.7577 221.696 79.8162C221.925 79.8748 222.14 79.968 222.36 80.039C222.58 80.1099 222.805 80.1852 223.022 80.2701C223.238 80.3549 223.45 80.4565 223.66 80.5574C223.869 80.6582 224.069 80.7834 224.272 80.8974C224.474 81.0114 224.704 81.0909 224.898 81.2173C225.091 81.3438 225.242 81.5394 225.426 81.6811C225.609 81.8227 225.787 81.9747 225.961 82.1288C226.135 82.2829 226.358 82.3875 226.523 82.554C226.688 82.7205 226.84 82.9014 226.99 83.0761C227.141 83.2507 227.258 83.4611 227.397 83.6474C227.535 83.8338 227.652 84.0351 227.779 84.2303C227.906 84.4255 228.02 84.6261 228.132 84.8322C228.244 85.0384 228.372 85.2308 228.471 85.4423C228.57 85.6538 228.663 85.8666 228.748 86.0834C228.833 86.3003 228.893 86.5251 228.965 86.7473C229.034 86.9688 229.132 87.1831 229.185 87.412C229.237 87.6409 229.243 87.8752 229.281 88.1031C229.318 88.3311 229.352 88.561 229.374 88.7935C229.396 89.0233 229.457 89.2544 229.463 89.4888C229.469 89.7231 229.449 89.9535 229.44 90.1869C229.432 90.4204 229.414 90.6515 229.391 90.884C229.366 91.1129 229.311 91.3399 229.27 91.5706C229.23 91.7986 229.17 92.0213 229.114 92.2511L229.112 92.2504Z" fill="#FFEFE3"/>
<path d="M213.295 93.7651C213.139 94.0574 213.188 94.0858 213.031 94.376C212.873 94.6662 212.877 94.6702 212.717 94.9625C212.562 95.2547 212.519 95.2324 212.363 95.5246C212.208 95.8168 212.199 95.8128 212.044 96.105C211.888 96.3972 211.884 96.3972 211.728 96.6894C211.573 96.9817 211.61 97.002 211.45 97.2942C211.29 97.5864 211.259 97.5682 211.102 97.8624C210.944 98.1567 210.944 98.1567 210.786 98.4469C210.629 98.7371 210.606 98.7269 210.447 99.0192C210.287 99.3114 210.303 99.3195 210.148 99.6158C210.012 99.8876 210.104 100.189 210.29 100.35C210.477 100.511 210.771 100.534 211.021 100.36C211.314 100.156 211.34 100.19 211.633 99.9853C211.926 99.7804 211.909 99.756 212.202 99.5512C212.495 99.3463 212.507 99.3626 212.8 99.1578C213.093 98.9529 213.068 98.9162 213.361 98.7114C213.654 98.5066 213.678 98.5391 213.973 98.3363C214.268 98.1335 214.25 98.107 214.545 97.9001C214.839 97.6933 214.829 97.6831 215.126 97.4782C215.421 97.2713 215.454 97.3202 215.749 97.1133" fill="#FFEFE3"/>
<path fill-rule="evenodd" clip-rule="evenodd" d="M223.432 86.6857C223.622 86.876 223.622 87.1846 223.432 87.3749L218.071 92.7357C217.881 92.926 217.572 92.926 217.382 92.7357L214.945 90.299C214.755 90.1086 214.755 89.8001 214.945 89.6098C215.136 89.4194 215.444 89.4194 215.635 89.6098L217.727 91.7019L222.743 86.6857C222.933 86.4954 223.242 86.4954 223.432 86.6857Z" fill="url(#paint4_linear_739_13920)" stroke="url(#paint5_linear_739_13920)" stroke-width="0.344958" stroke-linecap="round" stroke-linejoin="round"/>
</g>
<path d="M322.524 101.289L307.436 89.2016C305.997 88.0285 303.614 88.0285 302.175 89.2016L287.087 101.289C285.647 102.462 285.945 103.38 287.782 103.38H290.71V120.058H318.901V103.38H321.829C323.666 103.38 323.963 102.411 322.524 101.289ZM303.317 115.315C303.317 115.723 303.019 116.029 302.622 116.029C302.225 116.029 301.927 115.723 301.927 115.315V107.766C301.927 106.95 301.43 106.287 300.835 106.287C300.239 106.287 299.743 106.95 299.743 107.715V107.817V108.582C299.743 108.99 299.445 109.296 299.048 109.296C298.651 109.296 298.353 108.99 298.353 108.582V107.664C298.353 106.083 299.495 104.757 300.885 104.757C302.274 104.757 303.416 106.083 303.416 107.664V115.315H303.317ZM301.033 99.81C301.033 98.127 302.324 96.8009 303.962 96.8009C305.6 96.8009 306.89 98.127 306.89 99.81C306.89 101.493 305.6 102.819 303.962 102.819C302.324 102.819 301.033 101.493 301.033 99.81ZM310.414 116.59C310.364 116.998 309.967 117.304 309.57 117.304H307.386C306.94 117.304 306.642 116.947 306.642 116.539V112.459C306.642 112.459 306.642 112 306.592 111.796C306.543 111.592 305.997 110.316 304.657 107.766C303.813 106.185 303.962 104.961 304.26 104.298C304.508 103.584 304.954 103.227 305.103 103.125C305.401 102.819 306.195 102.615 306.443 102.564C307.734 102.36 308.776 102.768 309.521 103.737C312.201 107.052 310.513 116.284 310.414 116.692V116.59Z" fill="#10185C"/>
<path d="M322.524 101.289L307.436 89.2016C305.997 88.0285 303.614 88.0285 302.175 89.2016L287.087 101.289C285.647 102.462 285.945 103.38 287.782 103.38H290.71V120.058H318.901V103.38H321.829C323.666 103.38 323.963 102.411 322.524 101.289ZM303.317 115.315C303.317 115.723 303.019 116.029 302.622 116.029C302.225 116.029 301.927 115.723 301.927 115.315V107.766C301.927 106.95 301.43 106.287 300.835 106.287C300.239 106.287 299.743 106.95 299.743 107.715V107.817V108.582C299.743 108.99 299.445 109.296 299.048 109.296C298.651 109.296 298.353 108.99 298.353 108.582V107.664C298.353 106.083 299.495 104.757 300.885 104.757C302.274 104.757 303.416 106.083 303.416 107.664V115.315H303.317ZM301.033 99.81C301.033 98.127 302.324 96.8009 303.962 96.8009C305.6 96.8009 306.89 98.127 306.89 99.81C306.89 101.493 305.6 102.819 303.962 102.819C302.324 102.819 301.033 101.493 301.033 99.81ZM310.414 116.59C310.364 116.998 309.967 117.304 309.57 117.304H307.386C306.94 117.304 306.642 116.947 306.642 116.539V112.459C306.642 112.459 306.642 112 306.592 111.796C306.543 111.592 305.997 110.316 304.657 107.766C303.813 106.185 303.962 104.961 304.26 104.298C304.508 103.584 304.954 103.227 305.103 103.125C305.401 102.819 306.195 102.615 306.443 102.564C307.734 102.36 308.776 102.768 309.521 103.737C312.201 107.052 310.513 116.284 310.414 116.692V116.59Z" fill="#10185C"/>
<path d="M286.178 101.775L304.805 87.6318L315.104 95.9108M322.398 101.775L315.104 95.9108M315.104 95.9108V87.6318" stroke="#EE6002" stroke-width="3.44958" stroke-linecap="round" stroke-linejoin="round"/>
<path d="M385.671 83.3147L389.655 83.3147C389.655 83.3147 394.204 81.9155 394.204 99.3918C394.204 99.3918 393.462 106.038 397.898 106.038H411.835C411.835 106.038 416.739 105.454 418.159 108.469L422.256 120.531" stroke="#FFC77D" stroke-width="2.52312" stroke-miterlimit="10"/>
<path d="M408.379 95.3659C408.379 95.3659 412.164 94.7831 412.164 97.0779V121.793" stroke="#FFC77D" stroke-width="2.52312" stroke-miterlimit="10"/>
<path d="M388.967 81.4229H383.426C382.576 81.4229 381.887 82.112 381.887 82.9621C381.887 83.8122 382.576 84.5013 383.426 84.5013H388.967C389.817 84.5013 390.506 83.8122 390.506 82.9621C390.506 82.112 389.817 81.4229 388.967 81.4229Z" fill="#FF8120"/>
<path d="M423.475 118.089L419.152 119.804C418.362 120.118 417.976 121.013 418.289 121.803C418.603 122.593 419.497 122.979 420.288 122.666L424.611 120.951C425.401 120.637 425.787 119.743 425.474 118.952C425.16 118.162 424.266 117.776 423.475 118.089Z" fill="#FF8120"/>
<path d="M407.079 93.4956H397.843C396.993 93.4956 396.304 94.1847 396.304 95.0348C396.304 95.8849 396.993 96.574 397.843 96.574H407.079C407.929 96.574 408.618 95.8849 408.618 95.0348C408.618 94.1847 407.929 93.4956 407.079 93.4956Z" fill="#FF8120"/>
<path d="M412.164 125.577C414.254 125.577 415.949 123.883 415.949 121.792C415.949 119.702 414.254 118.008 412.164 118.008C410.074 118.008 408.379 119.702 408.379 121.792C408.379 123.883 410.074 125.577 412.164 125.577Z" fill="#FFC77D"/>
<path d="M394.963 123.976C401.488 123.976 406.778 118.686 406.778 112.161C406.778 105.636 401.488 100.346 394.963 100.346C388.438 100.346 383.148 105.636 383.148 112.161C383.148 118.686 388.438 123.976 394.963 123.976Z" fill="#FFC77D"/>
<path d="M395.133 118.008C398.268 118.008 400.81 115.466 400.81 112.331C400.81 109.195 398.268 106.654 395.133 106.654C391.998 106.654 389.456 109.195 389.456 112.331C389.456 115.466 391.998 118.008 395.133 118.008Z" fill="white"/>
<g clip-path="url(#clip5_739_13920)">
<path d="M517.747 97.7076C516.575 104.972 517.838 96.6699 517.838 96.1392C517.838 87.7006 510.731 80.9156 502.169 81.451C494.882 81.9106 488.936 87.8143 488.439 95.0968C488.145 99.3801 489.685 103.308 492.352 106.17C493.651 107.563 494.02 109.553 493.338 111.325C492.76 112.827 492.518 114.495 492.703 116.238C493.229 121.166 497.275 125.118 502.217 125.535C507.059 125.942 511.271 123.052 512.891 118.868C515.265 111.424 516.975 104.322 517.752 97.7028L517.747 97.7076Z" fill="#FFC77D"/>
<path d="M507.535 109.387C507.78 107.425 509.123 102.957 511.214 99.8203C514.158 95.4049 511.214 88.0458 506.063 87.3099C502.566 86.8103 500.474 89.1013 499.738 90.3278C499.002 91.5543 498.704 93.9331 501.21 96.2151C503.422 98.2293 508.27 105.708 499.44 107.915" stroke="white" stroke-width="1.89234" stroke-linecap="round"/>
<circle cx="500.175" cy="104.972" r="4.41546" fill="white"/>
<path d="M500.547 103.5C500.056 105.217 499.664 109.387 502.019 112.331C504.374 115.275 502.509 119.445 501.283 121.162" stroke="white" stroke-width="1.89234" stroke-linecap="round"/>
</g>
<rect y="9.91406" width="16.558" height="16.558" rx="8.27899" fill="#333333"/>
<path d="M9.31118 14.2009V22.226L8.14108 22.2149V15.4483L6.72813 16.232L6.24243 15.2496L8.15212 14.2009H9.31118Z" fill="white"/>
<path d="M43.8755 14.5133C41.8433 14.5133 40.1959 16.1607 40.1959 18.1929C40.1959 20.225 41.8433 21.8724 43.8755 21.8724C45.9076 21.8724 47.555 20.225 47.555 18.1929C47.555 16.1607 45.9076 14.5133 43.8755 14.5133ZM43.8755 17.503L16.2789 17.503L16.2789 18.8828L43.8755 18.8828L43.8755 17.503Z" fill="#333333"/>
<rect y="95.4639" width="16.558" height="16.558" rx="8.27899" fill="#333333"/>
<path d="M5.48528 106.749C7.09693 105.204 9.29362 103.636 9.29362 102.279C9.29362 101.373 8.71961 100.733 7.90275 100.733C7.27354 100.733 6.64434 101.186 6.35734 101.837L5.33074 101.384C5.77229 100.369 6.84304 99.6624 7.90275 99.6624C9.41504 99.6624 10.4637 100.744 10.4637 102.279C10.4637 103.967 8.6313 105.469 7.14108 106.749H10.5962V107.776H5.59567L5.48528 106.749Z" fill="white"/>
<path d="M43.8755 100.063C41.8433 100.063 40.1959 101.711 40.1959 103.743C40.1959 105.775 41.8433 107.422 43.8755 107.422C45.9076 107.422 47.555 105.775 47.555 103.743C47.555 101.711 45.9076 100.063 43.8755 100.063ZM43.8755 103.053L16.2789 103.053L16.2789 104.433L43.8755 104.433L43.8755 103.053Z" fill="#333333"/>
<path d="M557.327 15.0659H558.377V27.3159H557.327V15.0659ZM548.507 24.1659C551.811 22.5839 553.477 20.1899 553.701 17.2499H549.053V16.3819H554.765C554.765 19.9099 553.141 23.0179 549.067 25.0059L548.507 24.1659ZM561.723 15.5559H562.759V17.1239H568.807V15.5559H569.857V20.4419H566.287V21.7859H571.299V22.6399H560.239V21.7859H565.251V20.4419H561.723V15.5559ZM561.681 27.0499V23.6619H562.731V26.1819H570.081V27.0499H561.681ZM562.759 19.6019H568.807V17.9639H562.759V19.6019ZM579 18.0339H581.114V15.0659H582.164V22.9899H581.114V21.2679H578.986V20.4139H581.114V18.8879H579V18.0339ZM572.126 17.2919V16.4519H575.094V14.9539H576.144V16.4519H579.014V17.2919H572.126ZM572.84 20.2039C572.84 18.8459 573.974 17.9499 575.598 17.9499C577.236 17.9499 578.356 18.8459 578.356 20.2039C578.356 21.5759 577.236 22.4859 575.598 22.4859C573.974 22.4859 572.84 21.5759 572.84 20.2039ZM573.834 20.2039C573.834 21.0859 574.534 21.6739 575.598 21.6739C576.662 21.6739 577.376 21.0859 577.376 20.2039C577.376 19.3359 576.662 18.7619 575.598 18.7619C574.534 18.7619 573.834 19.3359 573.834 20.2039ZM574.1 25.2019C574.1 23.8859 575.64 23.1159 578.174 23.1159C580.694 23.1159 582.234 23.8859 582.234 25.2019C582.234 26.5179 580.694 27.2879 578.174 27.2879C575.64 27.2879 574.1 26.5179 574.1 25.2019ZM575.192 25.2019C575.192 25.9999 576.326 26.4759 578.174 26.4759C580.008 26.4759 581.142 25.9999 581.142 25.2019C581.142 24.3899 580.008 23.9419 578.174 23.9419C576.326 23.9419 575.192 24.3899 575.192 25.2019ZM584.908 21.2399C584.908 19.1679 585.538 17.2359 586.602 15.5559H587.736C586.532 17.2079 585.832 19.1539 585.832 21.2399C585.832 23.3259 586.532 25.2719 587.736 26.9239H586.602C585.538 25.2439 584.908 23.3119 584.908 21.2399ZM597.313 15.0519H598.363V18.7339H600.197V19.6019H598.363V23.9279H597.313V15.0519ZM589.459 21.7579V16.1159H594.849V16.9979H590.495V20.8759C592.945 20.8759 594.345 20.8059 595.969 20.4699L596.095 21.3239C594.387 21.6599 592.945 21.7579 590.397 21.7579H589.459ZM590.775 27.0359V23.0459H591.811V26.1679H598.923V27.0359H590.775ZM603.334 15.8079H604.342V17.4739C604.342 18.8599 605.28 20.2739 606.848 20.9039L606.288 21.7159C605.126 21.2259 604.286 20.3159 603.852 19.2239C603.404 20.4139 602.536 21.4779 601.332 22.0239L600.758 21.1979C602.354 20.4839 603.334 18.8599 603.334 17.4739V15.8079ZM602.844 24.0259V23.1719H611.048V27.3159H609.998V24.0259H602.844ZM607.408 22.4019V15.2899H608.402V18.2859H610.04V15.0799H611.048V22.4719H610.04V19.1539H608.402V22.4019H607.408ZM615.794 21.2399C615.794 23.3119 615.178 25.2439 614.114 26.9239H612.98C614.184 25.2719 614.87 23.3259 614.87 21.2399C614.87 19.1539 614.184 17.2079 612.98 15.5559H614.114C615.178 17.2359 615.794 19.1679 615.794 21.2399Z" fill="#616161"/>
<path d="M548.353 109.008H553.379V106.026H554.429V109.008H559.455V109.89H548.353V109.008ZM548.913 105.606C550.943 105.256 553.351 103.534 553.351 101.56V101.238H549.277V100.37H558.517V101.238H554.443V101.56C554.443 103.534 556.879 105.228 558.937 105.564L558.503 106.39C556.669 106.026 554.695 104.822 553.911 103.142C553.113 104.836 551.153 106.054 549.347 106.432L548.913 105.606ZM568.681 99.2359H569.731V102.372H571.565V103.268H569.731V106.348H568.681V99.2359ZM560.281 101.364V100.51H563.375V99.1099H564.425V100.51H567.519V101.364H560.281ZM560.981 104.094C560.981 102.792 562.143 101.952 563.893 101.952C565.643 101.952 566.819 102.792 566.819 104.094C566.819 105.41 565.643 106.25 563.893 106.25C562.143 106.25 560.981 105.41 560.981 104.094ZM561.975 104.094C561.975 104.906 562.745 105.452 563.893 105.452C565.041 105.452 565.811 104.906 565.811 104.094C565.811 103.296 565.041 102.75 563.893 102.75C562.745 102.75 561.975 103.296 561.975 104.094ZM562.059 111.318V106.894H563.095V108.238H568.695V106.894H569.731V111.318H562.059ZM563.095 110.464H568.695V109.05H563.095V110.464ZM579 102.204H581.114V99.2359H582.164V107.16H581.114V105.438H578.986V104.584H581.114V103.058H579V102.204ZM572.126 101.462V100.622H575.094V99.1239H576.144V100.622H579.014V101.462H572.126ZM572.84 104.374C572.84 103.016 573.974 102.12 575.598 102.12C577.236 102.12 578.356 103.016 578.356 104.374C578.356 105.746 577.236 106.656 575.598 106.656C573.974 106.656 572.84 105.746 572.84 104.374ZM573.834 104.374C573.834 105.256 574.534 105.844 575.598 105.844C576.662 105.844 577.376 105.256 577.376 104.374C577.376 103.506 576.662 102.932 575.598 102.932C574.534 102.932 573.834 103.506 573.834 104.374ZM574.1 109.372C574.1 108.056 575.64 107.286 578.174 107.286C580.694 107.286 582.234 108.056 582.234 109.372C582.234 110.688 580.694 111.458 578.174 111.458C575.64 111.458 574.1 110.688 574.1 109.372ZM575.192 109.372C575.192 110.17 576.326 110.646 578.174 110.646C580.008 110.646 581.142 110.17 581.142 109.372C581.142 108.56 580.008 108.112 578.174 108.112C576.326 108.112 575.192 108.56 575.192 109.372Z" fill="#616161"/>
<defs>
<linearGradient id="paint0_linear_739_13920" x1="106.399" y1="86.0981" x2="107.172" y2="89.285" gradientUnits="userSpaceOnUse">
<stop stop-color="#FF8120"/>
<stop offset="1" stop-color="#E54304"/>
</linearGradient>
<linearGradient id="paint1_linear_739_13920" x1="98.1076" y1="90.9394" x2="98.8811" y2="94.1263" gradientUnits="userSpaceOnUse">
<stop stop-color="#FF8120"/>
<stop offset="1" stop-color="#E54304"/>
</linearGradient>
<linearGradient id="paint2_linear_739_13920" x1="113.41" y1="84.8182" x2="122.214" y2="98.1177" gradientUnits="userSpaceOnUse">
<stop stop-color="#FF8120"/>
<stop offset="1" stop-color="#E54304"/>
</linearGradient>
<linearGradient id="paint3_linear_739_13920" x1="195.254" y1="117.281" x2="197.959" y2="127.483" gradientUnits="userSpaceOnUse">
<stop stop-color="#FF8120"/>
<stop offset="1" stop-color="#E54304"/>
</linearGradient>
<linearGradient id="paint4_linear_739_13920" x1="217.27" y1="87.6649" x2="219.859" y2="92.8868" gradientUnits="userSpaceOnUse">
<stop stop-color="#FF8120"/>
<stop offset="1" stop-color="#E54304"/>
</linearGradient>
<linearGradient id="paint5_linear_739_13920" x1="217.27" y1="87.6649" x2="219.859" y2="92.8868" gradientUnits="userSpaceOnUse">
<stop stop-color="#FF8120"/>
<stop offset="1" stop-color="#E54304"/>
</linearGradient>
<clipPath id="clip0_739_13920">
<rect width="17.2479" height="22.0773" fill="white" transform="translate(395.495 5.46143)"/>
</clipPath>
<clipPath id="clip1_739_13920">
<rect width="55" height="55" fill="white" transform="translate(79 76)"/>
</clipPath>
<clipPath id="clip2_739_13920">
<rect width="19.3176" height="18.6277" fill="white" transform="translate(107.977 81.5195)"/>
</clipPath>
<clipPath id="clip3_739_13920">
<rect width="55" height="55" fill="white" transform="translate(178.155 76)"/>
</clipPath>
<clipPath id="clip4_739_13920">
<rect width="36.6031" height="37.2555" fill="white" transform="translate(182.984 91.8682)"/>
</clipPath>
<clipPath id="clip5_739_13920">
<rect width="29.4364" height="44.1546" fill="white" transform="translate(488.4 81.4229)"/>
</clipPath>
</defs>
</svg>
