<svg width="382" height="140" viewBox="0 0 382 140" fill="none" xmlns="http://www.w3.org/2000/svg">
<mask id="path-1-inside-1_311_24304" fill="white">
<path d="M0.27832 10.5315C0.27832 5.04462 4.72628 0.59668 10.2131 0.59668H73.1335C78.6203 0.59668 83.0682 5.04464 83.0682 10.5315V73.4518C83.0682 78.9387 78.6203 83.3866 73.1334 83.3866H10.2131C4.72626 83.3866 0.27832 78.9386 0.27832 73.4518V10.5315Z"/>
</mask>
<path d="M0.27832 10.5315C0.27832 5.04462 4.72628 0.59668 10.2131 0.59668H73.1335C78.6203 0.59668 83.0682 5.04464 83.0682 10.5315V73.4518C83.0682 78.9387 78.6203 83.3866 73.1334 83.3866H10.2131C4.72626 83.3866 0.27832 78.9386 0.27832 73.4518V10.5315Z" fill="#EFF1FD"/>
<path d="M10.2131 1.97651H73.1335V-0.783152H10.2131V1.97651ZM81.6884 10.5315V73.4518H84.4481V10.5315H81.6884ZM73.1334 82.0068H10.2131V84.7664H73.1334V82.0068ZM1.65815 73.4518V10.5315H-1.10151V73.4518H1.65815ZM10.2131 82.0068C5.48833 82.0068 1.65815 78.1766 1.65815 73.4518H-1.10151C-1.10151 79.7007 3.9642 84.7664 10.2131 84.7664V82.0068ZM81.6884 73.4518C81.6884 78.1766 77.8582 82.0068 73.1334 82.0068V84.7664C79.3823 84.7664 84.4481 79.7007 84.4481 73.4518H81.6884ZM73.1335 1.97651C77.8582 1.97651 81.6884 5.80669 81.6884 10.5315H84.4481C84.4481 4.28258 79.3824 -0.783152 73.1335 -0.783152V1.97651ZM10.2131 -0.783152C3.96422 -0.783152 -1.10151 4.28256 -1.10151 10.5315H1.65815C1.65815 5.80668 5.48834 1.97651 10.2131 1.97651V-0.783152Z" fill="#1477F8" mask="url(#path-1-inside-1_311_24304)"/>
<rect x="9.9375" y="94.4253" width="63.4723" height="20" rx="10" fill="#10185C"/>
<path d="M22.4778 107.669C23.8338 107.669 24.5658 106.697 24.5658 105.413C24.5658 104.141 23.8338 103.157 22.4778 103.157C21.3618 103.157 20.4138 104.141 20.4138 105.413C20.4138 106.697 21.3618 107.669 22.4778 107.669ZM19.5498 108.425V99.5213H20.4138V103.601C20.9778 102.617 21.8178 102.317 22.5018 102.317C24.3858 102.317 25.4298 103.745 25.4298 105.413C25.4298 107.093 24.3738 108.521 22.4898 108.521C21.8178 108.521 20.9778 108.233 20.4138 107.225V108.425H19.5498ZM29.194 107.633C30.538 107.633 31.246 106.649 31.246 105.377C31.246 104.105 30.538 103.121 29.194 103.121C27.838 103.121 27.154 104.105 27.154 105.377C27.154 106.649 27.838 107.633 29.194 107.633ZM26.29 105.377C26.29 103.709 27.322 102.281 29.194 102.281C31.078 102.281 32.11 103.709 32.11 105.377C32.11 107.045 31.078 108.473 29.194 108.473C27.322 108.473 26.29 107.045 26.29 105.377ZM33.9975 103.601C34.3455 102.797 35.3415 102.257 36.1695 102.257V103.145C35.0535 103.145 33.9975 104.309 33.9975 105.281V108.425H33.1335V102.317H33.9975V103.601ZM39.5218 108.521C37.6618 108.521 36.6058 107.093 36.6058 105.413C36.6058 103.745 37.6618 102.305 39.5218 102.305C40.3018 102.305 41.1178 102.701 41.6218 103.613V99.5213H42.4858V108.425H41.6218V107.213C41.1058 108.125 40.3018 108.521 39.5218 108.521ZM37.4698 105.413C37.4698 106.697 38.2018 107.657 39.5578 107.657C40.6618 107.657 41.6218 106.697 41.6218 105.413C41.6218 104.141 40.6618 103.169 39.5578 103.169C38.2018 103.169 37.4698 104.141 37.4698 105.413ZM48.3139 104.945C48.2179 104.081 47.7979 103.157 46.5019 103.157C45.3619 103.157 44.6299 103.769 44.4739 104.957L48.3139 104.945ZM43.5859 105.377C43.5859 103.697 44.5939 102.293 46.4659 102.293C48.4099 102.293 48.9019 103.805 48.9619 103.949C49.3219 104.933 49.1779 105.797 49.1779 105.797H44.4739C44.6299 106.925 45.3619 107.597 46.4779 107.597C47.8579 107.597 48.1939 106.841 48.2779 106.721L49.0219 107.117C49.0219 107.117 48.5179 108.461 46.4659 108.461C44.5939 108.461 43.5859 107.045 43.5859 105.377ZM51.1059 103.601C51.4539 102.797 52.4499 102.257 53.2779 102.257V103.145C52.1619 103.145 51.1059 104.309 51.1059 105.281V108.425H50.2419V102.317H51.1059V103.601ZM54.3987 103.577H59.4627V104.429H54.3987V103.577ZM63.213 99.7733V108.425H62.349V100.817L61.125 101.633L60.645 100.913L62.349 99.7733H63.213Z" fill="white"/>
<path d="M34.7858 124.851V134.945H33.7778V126.069L32.3498 127.021L31.7898 126.181L33.7778 124.851H34.7858ZM40.4484 134.077C41.9884 134.077 42.8564 132.929 42.8564 131.431C42.8564 129.961 41.9884 128.813 40.4484 128.813C39.1604 128.813 38.0544 129.961 38.0544 131.431C38.0544 132.929 39.1604 134.077 40.4484 134.077ZM37.0324 138.165V127.819H38.0404V129.331C38.5024 128.323 39.5944 127.833 40.4624 127.833C42.6464 127.833 43.8644 129.499 43.8644 131.431C43.8644 133.391 42.6464 135.057 40.4624 135.057C39.5664 135.057 38.5024 134.455 38.0404 133.545V138.165H37.0324ZM50.8798 127.819L48.1778 131.389L50.8798 134.945H49.6058L47.6598 132.299L45.7138 134.945H44.4398L47.1278 131.389L44.4398 127.819H45.7138L47.6598 130.493L49.6058 127.819H50.8798Z" fill="black"/>
<path d="M149.3 10.5315C149.3 5.04462 153.748 0.59668 159.235 0.59668H222.155C227.642 0.59668 232.09 5.04464 232.09 10.5315V73.4518C232.09 78.9387 227.642 83.3866 222.155 83.3866H159.235C153.748 83.3866 149.3 78.9386 149.3 73.4518V10.5315Z" fill="#EFF1FD"/>
<rect x="158.959" y="94.4253" width="63.4723" height="20" rx="10" fill="#10185C"/>
<path d="M169.999 107.669C171.355 107.669 172.087 106.697 172.087 105.413C172.087 104.141 171.355 103.157 169.999 103.157C168.883 103.157 167.935 104.141 167.935 105.413C167.935 106.697 168.883 107.669 169.999 107.669ZM167.071 108.425V99.5213H167.935V103.601C168.499 102.617 169.339 102.317 170.023 102.317C171.907 102.317 172.951 103.745 172.951 105.413C172.951 107.093 171.895 108.521 170.011 108.521C169.339 108.521 168.499 108.233 167.935 107.225V108.425H167.071ZM176.715 107.633C178.059 107.633 178.767 106.649 178.767 105.377C178.767 104.105 178.059 103.121 176.715 103.121C175.359 103.121 174.675 104.105 174.675 105.377C174.675 106.649 175.359 107.633 176.715 107.633ZM173.811 105.377C173.811 103.709 174.843 102.281 176.715 102.281C178.599 102.281 179.631 103.709 179.631 105.377C179.631 107.045 178.599 108.473 176.715 108.473C174.843 108.473 173.811 107.045 173.811 105.377ZM181.519 103.601C181.867 102.797 182.863 102.257 183.691 102.257V103.145C182.575 103.145 181.519 104.309 181.519 105.281V108.425H180.655V102.317H181.519V103.601ZM187.043 108.521C185.183 108.521 184.127 107.093 184.127 105.413C184.127 103.745 185.183 102.305 187.043 102.305C187.823 102.305 188.639 102.701 189.143 103.613V99.5213H190.007V108.425H189.143V107.213C188.627 108.125 187.823 108.521 187.043 108.521ZM184.991 105.413C184.991 106.697 185.723 107.657 187.079 107.657C188.183 107.657 189.143 106.697 189.143 105.413C189.143 104.141 188.183 103.169 187.079 103.169C185.723 103.169 184.991 104.141 184.991 105.413ZM195.835 104.945C195.739 104.081 195.319 103.157 194.023 103.157C192.883 103.157 192.151 103.769 191.995 104.957L195.835 104.945ZM191.107 105.377C191.107 103.697 192.115 102.293 193.987 102.293C195.931 102.293 196.423 103.805 196.483 103.949C196.843 104.933 196.699 105.797 196.699 105.797H191.995C192.151 106.925 192.883 107.597 193.999 107.597C195.379 107.597 195.715 106.841 195.799 106.721L196.543 107.117C196.543 107.117 196.039 108.461 193.987 108.461C192.115 108.461 191.107 107.045 191.107 105.377ZM198.627 103.601C198.975 102.797 199.971 102.257 200.799 102.257V103.145C199.683 103.145 198.627 104.309 198.627 105.281V108.425H197.763V102.317H198.627V103.601ZM201.92 103.577H206.984V104.429H201.92V103.577ZM208.298 107.573C210.014 105.905 212.618 103.901 212.618 102.329C212.618 101.129 211.826 100.517 210.89 100.517C210.23 100.517 209.498 100.745 209.054 101.765L208.262 101.429C208.886 100.013 210.062 99.6533 210.89 99.6533C212.174 99.6533 213.482 100.637 213.482 102.329C213.482 104.117 211.25 106.025 209.57 107.573H213.626V108.437H208.298V107.573Z" fill="white"/>
<path d="M178.307 124.851V134.945H177.299V126.069L175.871 127.021L175.311 126.181L177.299 124.851H178.307ZM181.044 133.727C181.492 133.727 181.73 134.035 181.73 134.413C181.73 134.819 181.492 135.127 181.044 135.127C180.582 135.127 180.33 134.819 180.33 134.413C180.33 134.035 180.582 133.727 181.044 133.727ZM185.155 130.171L184.147 130.143L184.329 124.823H189.509V125.831H185.309L185.197 128.841C185.701 128.547 186.289 128.379 186.905 128.379C188.739 128.379 190.237 129.919 190.237 131.697C190.237 133.629 188.725 135.085 186.905 135.085C185.337 135.085 184.007 134.007 183.671 132.551L184.651 132.327C184.889 133.391 185.757 134.077 186.905 134.077C188.249 134.077 189.229 133.139 189.229 131.697C189.229 130.395 188.249 129.387 186.905 129.387C186.177 129.387 185.589 129.667 185.155 130.171ZM195.267 134.077C196.807 134.077 197.675 132.929 197.675 131.431C197.675 129.961 196.807 128.813 195.267 128.813C193.979 128.813 192.873 129.961 192.873 131.431C192.873 132.929 193.979 134.077 195.267 134.077ZM191.851 138.165V127.819H192.859V129.331C193.321 128.323 194.413 127.833 195.281 127.833C197.465 127.833 198.683 129.499 198.683 131.431C198.683 133.391 197.465 135.057 195.281 135.057C194.385 135.057 193.321 134.455 192.859 133.545V138.165H191.851ZM205.698 127.819L202.996 131.389L205.698 134.945H204.424L202.478 132.299L200.532 134.945H199.258L201.946 131.389L199.258 127.819H200.532L202.478 130.493L204.424 127.819H205.698Z" fill="black"/>
<mask id="path-10-inside-2_311_24304" fill="white">
<path d="M298.322 10.5315C298.322 5.04462 302.77 0.59668 308.257 0.59668H371.177C376.664 0.59668 381.112 5.04464 381.112 10.5315V73.4518C381.112 78.9387 376.664 83.3866 371.177 83.3866H308.257C302.77 83.3866 298.322 78.9386 298.322 73.4518V10.5315Z"/>
</mask>
<path d="M298.322 10.5315C298.322 5.04462 302.77 0.59668 308.257 0.59668H371.177C376.664 0.59668 381.112 5.04464 381.112 10.5315V73.4518C381.112 78.9387 376.664 83.3866 371.177 83.3866H308.257C302.77 83.3866 298.322 78.9386 298.322 73.4518V10.5315Z" fill="#EFF1FD"/>
<path d="M308.257 3.35634H371.177V-2.16298H308.257V3.35634ZM378.353 10.5315V73.4518H383.872V10.5315H378.353ZM371.177 80.6269H308.257V86.1463H371.177V80.6269ZM301.082 73.4518V10.5315H295.563V73.4518H301.082ZM308.257 80.6269C304.294 80.6269 301.082 77.4145 301.082 73.4518H295.563C295.563 80.4628 301.246 86.1463 308.257 86.1463V80.6269ZM378.353 73.4518C378.353 77.4145 375.14 80.6269 371.177 80.6269V86.1463C378.188 86.1463 383.872 80.4628 383.872 73.4518H378.353ZM371.177 3.35634C375.14 3.35634 378.353 6.56875 378.353 10.5315H383.872C383.872 3.52052 378.188 -2.16298 371.177 -2.16298V3.35634ZM308.257 -2.16298C301.246 -2.16298 295.563 3.5205 295.563 10.5315H301.082C301.082 6.56875 304.294 3.35634 308.257 3.35634V-2.16298Z" fill="#1477F8" mask="url(#path-10-inside-2_311_24304)"/>
<rect x="307.981" y="94.4253" width="63.4723" height="20" rx="10" fill="#10185C"/>
<path d="M319.022 107.669C320.378 107.669 321.11 106.697 321.11 105.413C321.11 104.141 320.378 103.157 319.022 103.157C317.906 103.157 316.958 104.141 316.958 105.413C316.958 106.697 317.906 107.669 319.022 107.669ZM316.094 108.425V99.5213H316.958V103.601C317.522 102.617 318.362 102.317 319.046 102.317C320.93 102.317 321.974 103.745 321.974 105.413C321.974 107.093 320.918 108.521 319.034 108.521C318.362 108.521 317.522 108.233 316.958 107.225V108.425H316.094ZM325.738 107.633C327.082 107.633 327.79 106.649 327.79 105.377C327.79 104.105 327.082 103.121 325.738 103.121C324.382 103.121 323.698 104.105 323.698 105.377C323.698 106.649 324.382 107.633 325.738 107.633ZM322.834 105.377C322.834 103.709 323.866 102.281 325.738 102.281C327.622 102.281 328.654 103.709 328.654 105.377C328.654 107.045 327.622 108.473 325.738 108.473C323.866 108.473 322.834 107.045 322.834 105.377ZM330.541 103.601C330.889 102.797 331.885 102.257 332.713 102.257V103.145C331.597 103.145 330.541 104.309 330.541 105.281V108.425H329.677V102.317H330.541V103.601ZM336.066 108.521C334.206 108.521 333.15 107.093 333.15 105.413C333.15 103.745 334.206 102.305 336.066 102.305C336.846 102.305 337.662 102.701 338.166 103.613V99.5213H339.03V108.425H338.166V107.213C337.65 108.125 336.846 108.521 336.066 108.521ZM334.014 105.413C334.014 106.697 334.746 107.657 336.102 107.657C337.206 107.657 338.166 106.697 338.166 105.413C338.166 104.141 337.206 103.169 336.102 103.169C334.746 103.169 334.014 104.141 334.014 105.413ZM344.858 104.945C344.762 104.081 344.342 103.157 343.046 103.157C341.906 103.157 341.174 103.769 341.018 104.957L344.858 104.945ZM340.13 105.377C340.13 103.697 341.138 102.293 343.01 102.293C344.954 102.293 345.446 103.805 345.506 103.949C345.866 104.933 345.722 105.797 345.722 105.797H341.018C341.174 106.925 341.906 107.597 343.022 107.597C344.402 107.597 344.738 106.841 344.822 106.721L345.566 107.117C345.566 107.117 345.062 108.461 343.01 108.461C341.138 108.461 340.13 107.045 340.13 105.377ZM347.65 103.601C347.998 102.797 348.994 102.257 349.822 102.257V103.145C348.706 103.145 347.65 104.309 347.65 105.281V108.425H346.786V102.317H347.65V103.601ZM350.943 103.577H356.007V104.429H350.943V103.577ZM361.545 103.949C362.253 104.381 362.853 105.113 362.853 105.977C362.853 107.429 361.533 108.497 360.057 108.497C358.593 108.497 357.273 107.429 357.273 105.977H358.137C358.137 106.793 358.917 107.621 360.057 107.621C361.209 107.621 361.989 106.805 361.989 105.989C361.989 105.173 361.461 104.369 360.081 104.369H359.445V103.505H360.081C361.269 103.505 361.869 102.797 361.869 102.029C361.869 101.309 361.173 100.553 360.129 100.553C359.085 100.553 358.377 101.297 358.377 102.053H357.513C357.513 100.697 358.761 99.6893 360.129 99.6893C361.509 99.6893 362.733 100.697 362.733 102.053C362.733 102.845 362.193 103.517 361.545 103.949Z" fill="white"/>
<path d="M328.488 133.951C330.49 132.005 333.528 129.667 333.528 127.833C333.528 126.433 332.604 125.719 331.512 125.719C330.742 125.719 329.888 125.985 329.37 127.175L328.446 126.783C329.174 125.131 330.546 124.711 331.512 124.711C333.01 124.711 334.536 125.859 334.536 127.833C334.536 129.919 331.932 132.145 329.972 133.951H334.704V134.959H328.488V133.951ZM339.713 134.077C341.253 134.077 342.121 132.929 342.121 131.431C342.121 129.961 341.253 128.813 339.713 128.813C338.425 128.813 337.319 129.961 337.319 131.431C337.319 132.929 338.425 134.077 339.713 134.077ZM336.297 138.165V127.819H337.305V129.331C337.767 128.323 338.859 127.833 339.727 127.833C341.911 127.833 343.129 129.499 343.129 131.431C343.129 133.391 341.911 135.057 339.727 135.057C338.831 135.057 337.767 134.455 337.305 133.545V138.165H336.297ZM350.144 127.819L347.442 131.389L350.144 134.945H348.87L346.924 132.299L344.978 134.945H343.704L346.392 131.389L343.704 127.819H344.978L346.924 130.493L348.87 127.819H350.144Z" fill="black"/>
</svg>
