<svg width="602" height="145" viewBox="0 0 602 145" fill="none" xmlns="http://www.w3.org/2000/svg">
<path d="M66.6895 5.31055V61.6895H10.3105V5.31055H66.6895Z" stroke="#1477F8" stroke-width="1.37983"/>
<g filter="url(#filter0_dd_311_24563)">
<path d="M52.1292 25.3794C52.1292 26.7709 51.2829 27.1479 50.2494 26.2156L46.4481 22.7912C45.4146 21.8602 44.5684 19.9589 44.5684 18.5674V16.8078C44.5684 15.4163 45.7069 14.2778 47.0983 14.2778H49.5992C50.9907 14.2778 52.1292 15.4163 52.1292 16.8078V25.3782V25.3794Z" fill="url(#paint0_linear_311_24563)"/>
<path d="M42.2353 18.6031C40.2341 17.0978 36.959 17.0978 34.9565 18.6031L28.3874 23.5442C26.3862 25.0495 24.748 28.3309 24.748 30.8356V46.9744C24.748 49.4791 26.7973 51.5284 29.302 51.5284H47.8873C50.392 51.5284 52.4413 49.4791 52.4413 46.9744V30.8356C52.4413 28.3309 50.8031 25.0495 48.8019 23.5442L42.2341 18.6031H42.2353Z" fill="white"/>
<path d="M35.2079 32.3066C37.2104 32.3066 38.1351 33.7045 38.5981 34.5406C39.0598 33.7045 39.9845 32.3066 41.9883 32.3066C43.992 32.3066 45.4974 33.6248 45.4974 35.7791C45.4974 37.9333 44.3323 39.765 42.9459 41.1629C41.6442 42.481 39.6923 43.8143 38.5968 43.8143C37.5013 43.8143 35.5495 42.481 34.2478 41.1629C32.8613 39.7638 31.6963 37.8676 31.6963 35.7791C31.6963 33.6905 33.2029 32.3066 35.2066 32.3066H35.2079Z" fill="url(#paint1_linear_311_24563)"/>
<path d="M58.1419 34.7035C57.603 34.7035 57.0604 34.5315 56.6012 34.1786L38.5965 20.3218L20.5931 34.1786C19.4862 35.0299 17.8974 34.8237 17.0448 33.7168C16.1922 32.61 16.3997 31.0211 17.5065 30.1685L37.0545 15.1252C37.964 14.4244 39.2315 14.4244 40.1398 15.1252L59.6865 30.1685C60.7934 31.0211 61.0008 32.6087 60.1482 33.7168C59.6498 34.3645 58.8997 34.7035 58.1419 34.7035Z" fill="url(#paint2_linear_311_24563)"/>
</g>
<rect x="11" y="6" width="55" height="5" fill="#007D00" fill-opacity="0.3"/>
<rect x="11" y="56" width="55" height="5" fill="#007D00" fill-opacity="0.3"/>
<rect x="11" y="61" width="55" height="5" transform="rotate(-90 11 61)" fill="#007D00" fill-opacity="0.3"/>
<rect x="61" y="61" width="55" height="5" transform="rotate(-90 61 61)" fill="#007D00" fill-opacity="0.3"/>
<rect x="98.8902" y="5.31008" width="56.3798" height="56.3798" stroke="#1477F8" stroke-width="1.37983"/>
<path d="M130.966 23.6655C133.572 23.6656 135.883 25.341 136.694 27.8179L143.256 47.8579L143.293 47.9937C143.442 48.6769 143.052 49.3758 142.373 49.5981C141.649 49.835 140.87 49.4404 140.633 48.7163L137.239 38.353L134.618 41.5317C134.418 41.7748 134.142 41.9394 133.839 42.0034L136.83 50.8442L136.869 50.98C137.025 51.6615 136.642 52.3642 135.966 52.5933C135.289 52.8221 134.559 52.496 134.269 51.8599L134.216 51.728L130.936 42.0337H122.573L121.566 48.4995L120.202 48.2866L118.839 48.0747L119.781 42.0337H116.67L115.144 51.5054L115.114 51.644C114.934 52.3195 114.267 52.7625 113.562 52.6489C112.81 52.5277 112.298 51.819 112.419 51.0669L115.413 32.4839C115.884 29.5627 118.406 27.4146 121.364 27.4146H122.225C123.132 25.1901 125.312 23.6657 127.805 23.6655H130.966ZM121.566 48.4995C121.448 49.2524 120.742 49.7673 119.989 49.6499C119.237 49.5324 118.722 48.8274 118.839 48.0747L121.566 48.4995ZM121.364 30.1743C119.76 30.1743 118.393 31.3387 118.138 32.9224L117.114 39.2739H120.211L121.63 30.1743H121.364ZM123.004 39.2739H130.002L129.46 37.6714H123.254L123.004 39.2739ZM132.911 39.2632L134.226 37.6714H132.373L132.911 39.2632ZM123.685 34.9116H128.526L127.675 32.395C127.226 31.0677 125.98 30.1743 124.579 30.1743H124.423L123.685 34.9116ZM127.805 26.4253C126.867 26.4254 126.011 26.825 125.41 27.4722C127.646 27.7825 129.551 29.3283 130.289 31.5103L131.44 34.9116H136.113L134.071 28.6763C133.632 27.3335 132.379 26.4254 130.966 26.4253H127.805Z" fill="#E0E0E0"/>
<path d="M125.449 24.8182C125.449 24.1155 126.019 23.5459 126.721 23.5459H131.374C132.077 23.5459 132.647 24.1155 132.647 24.8182C132.647 25.5208 132.077 26.0904 131.374 26.0904H126.721C126.019 26.0904 125.449 25.5208 125.449 24.8182Z" fill="#FF8120"/>
<path d="M119.029 28.5667C119.029 27.864 119.599 27.2944 120.302 27.2944H124.954C125.657 27.2944 126.227 27.864 126.227 28.5667C126.227 29.2693 125.657 29.8389 124.954 29.8389H120.302C119.599 29.8389 119.029 29.2693 119.029 28.5667Z" fill="#FF8120"/>
<ellipse cx="135.526" cy="51.126" rx="0.89967" ry="0.908753" fill="#333333"/>
<ellipse cx="113.933" cy="51.126" rx="0.89967" ry="0.908753" fill="#333333"/>
<ellipse cx="142.093" cy="48.4459" rx="0.89967" ry="0.908753" fill="#333333"/>
<ellipse cx="120.126" cy="48.4459" rx="0.89967" ry="0.908753" fill="#333333"/>
<g clip-path="url(#clip0_311_24563)">
<circle opacity="0.5" cx="133.888" cy="25.7138" r="11.8271" fill="#EFF6FF"/>
<path d="M134.193 13.8906C140.584 14.0529 145.715 19.2843 145.715 25.7139L145.711 26.0195C145.646 28.5608 144.778 30.9013 143.354 32.8008L149.368 38.8154L149.436 38.8906C149.751 39.2777 149.729 39.8492 149.368 40.21C149.007 40.5707 148.436 40.593 148.049 40.2773L147.974 40.21L142.041 34.2773C139.919 36.2983 137.049 37.5409 133.888 37.541L133.582 37.5371C127.293 37.3776 122.224 32.3086 122.064 26.0195L122.061 25.7139C122.061 19.182 127.356 13.8867 133.888 13.8867L134.193 13.8906ZM133.888 15.9561C128.499 15.9561 124.13 20.3251 124.13 25.7139C124.13 31.1027 128.499 35.4717 133.888 35.4717C139.276 35.4715 143.645 31.1026 143.646 25.7139C143.645 20.3252 139.276 15.9562 133.888 15.9561Z" fill="url(#paint3_linear_311_24563)"/>
</g>
<rect x="99.3486" y="6" width="55" height="6" fill="#007D00" fill-opacity="0.3"/>
<rect x="99.2324" y="55" width="55" height="6" fill="#007D00" fill-opacity="0.3"/>
<rect x="99.1162" y="61" width="55" height="6" transform="rotate(-90 99.1162 61)" fill="#007D00" fill-opacity="0.3"/>
<rect x="149" y="61" width="55" height="6" transform="rotate(-90 149 61)" fill="#007D00" fill-opacity="0.3"/>
<rect x="188.234" y="5.31008" width="56.3798" height="56.3798" stroke="#1477F8" stroke-width="1.37983"/>
<g clip-path="url(#clip1_311_24563)">
<path d="M197.835 52.8836H235.013C235.536 52.8836 235.972 52.4432 235.972 51.9148V34.3365C235.972 33.4559 236.67 32.7513 237.542 32.7513C238.448 32.7513 238.849 31.5888 238.135 31.0252L217.017 14.31C216.668 14.0282 216.18 14.0282 215.831 14.31L207.443 20.9503C207.252 21.0912 207.007 21.1264 206.798 21.0207C206.589 20.9151 206.449 20.7037 206.449 20.4571V15.1378C206.449 14.6094 206.013 14.1691 205.49 14.1691H201.34C200.817 14.1691 200.381 14.6094 200.381 15.1378V25.7764C200.381 26.2696 200.154 26.7275 199.788 27.0269L194.713 31.0428C193.999 31.6065 194.4 32.7689 195.306 32.7689C196.178 32.7689 196.876 33.4735 196.876 34.3542V51.9324C196.876 52.4608 197.312 52.9012 197.835 52.9012V52.8836Z" fill="#10185C"/>
<path d="M207.138 52.4249C205.986 52.4249 205.051 51.5771 205.051 50.5336C205.051 44.9033 209.703 40.2729 215.377 40.2729C221.05 40.2729 225.703 44.8816 225.703 50.5336C225.703 51.5771 224.768 52.4249 223.616 52.4249H207.159H207.138Z" fill="white"/>
<path d="M212.341 27.2168C214.405 27.2168 215.356 28.7446 215.821 29.6483C216.287 28.7446 217.238 27.2168 219.302 27.2168C221.367 27.2168 222.905 28.6585 222.905 31.0039C222.905 33.3494 221.711 35.3505 220.294 36.8783C218.958 38.32 216.955 39.7832 215.821 39.7832C214.688 39.7832 212.685 38.32 211.349 36.8783C209.932 35.3505 208.738 33.2848 208.738 31.0039C208.738 28.723 210.276 27.2168 212.341 27.2168Z" fill="url(#paint4_linear_311_24563)"/>
</g>
<rect x="188.115" y="6" width="56" height="6" fill="#007D00" fill-opacity="0.3"/>
<path d="M188.115 55H245.115V61H188.115V55Z" fill="#007D00" fill-opacity="0.3"/>
<rect x="188.346" y="61" width="55" height="6" transform="rotate(-90 188.346 61)" fill="#007D00" fill-opacity="0.3"/>
<rect x="238.23" y="61" width="55" height="6" transform="rotate(-90 238.23 61)" fill="#007D00" fill-opacity="0.3"/>
<rect x="278.007" y="5.31008" width="56.3794" height="56.3797" stroke="#1477F8" stroke-width="1.37983"/>
<path d="M296.345 16.8062C302.153 16.8062 304.843 20.8682 306.179 23.2912C307.515 20.8682 310.206 16.8062 316.014 16.8062C321.822 16.8062 326.205 20.6366 326.205 26.8723C326.205 33.108 322.82 38.435 318.811 42.4971C315.034 46.3276 309.368 50.1937 306.197 50.1937C303.026 50.1937 297.36 46.3276 293.583 42.4971C289.557 38.435 286.189 32.9298 286.189 26.8723C286.189 20.8148 290.537 16.8062 296.345 16.8062Z" fill="#FF6767"/>
<path d="M298.512 34.3824H297.691C297.262 34.3824 296.907 34.0399 296.907 33.6253V33.2468C296.907 32.8322 297.262 32.4897 297.691 32.4897C298.194 32.4897 298.568 32.039 298.456 31.5703L297.392 27.244C297.28 26.7753 297.653 26.3246 298.157 26.3246H299.37C299.743 26.3246 300.06 26.577 300.135 26.9195L301.198 31.8948C301.273 32.2373 301.59 32.4897 301.963 32.4897H302.653C303.026 32.4897 303.325 32.2373 303.418 31.8948L304.593 26.8834C304.668 26.5409 304.985 26.2886 305.358 26.2886H306.738C307.093 26.2886 307.41 26.5229 307.503 26.8654L308.697 31.8768C308.772 32.2193 309.089 32.4536 309.462 32.4536H310.171C310.544 32.4536 310.861 32.2012 310.936 31.8587L311.999 26.8834C312.074 26.5409 312.391 26.2886 312.764 26.2886H313.921C314.424 26.2886 314.797 26.7392 314.686 27.2079L313.622 31.5343C313.51 32.003 313.883 32.4536 314.387 32.4536C314.816 32.4536 315.171 32.7961 315.171 33.2107V33.5893C315.171 34.0039 314.816 34.3464 314.387 34.3464H313.566C313.212 34.3464 312.895 34.5807 312.801 34.9232L311.57 39.9166C311.496 40.2591 311.178 40.4934 310.805 40.4934H309.089C308.716 40.4934 308.417 40.241 308.324 39.8985L307.168 34.9232C307.093 34.5807 306.776 34.3284 306.403 34.3284H305.656C305.283 34.3284 304.985 34.5807 304.892 34.9232L303.735 39.8985C303.66 40.241 303.343 40.4934 302.97 40.4934H301.254C300.899 40.4934 300.582 40.2591 300.489 39.9166L299.258 34.9232C299.183 34.5807 298.866 34.3464 298.493 34.3464L298.512 34.3824ZM302.187 36.5997H302.317L302.84 34.3824H301.72L302.205 36.5997H302.187ZM306.571 32.5077L306.086 30.4527H305.955L305.47 32.5077H306.552H306.571ZM309.798 36.5997H309.928L310.414 34.3824H309.294L309.817 36.5997H309.798Z" fill="white"/>
<rect x="278.348" y="6" width="56" height="5" fill="#007D00" fill-opacity="0.3"/>
<rect x="278.348" y="56" width="56" height="5" fill="#007D00" fill-opacity="0.3"/>
<rect x="278.231" y="61" width="55" height="5" transform="rotate(-90 278.231 61)" fill="#007D00" fill-opacity="0.3"/>
<rect x="329" y="61" width="55" height="5" transform="rotate(-90 329 61)" fill="#007D00" fill-opacity="0.3"/>
<rect x="366.774" y="5.31008" width="56.3798" height="56.3798" stroke="#1477F8" stroke-width="1.37983"/>
<path fill-rule="evenodd" clip-rule="evenodd" d="M392.57 22.061C394.545 23.3541 395.986 25.3169 396.628 27.5881C397.271 29.8594 397.071 32.2862 396.066 34.422C397.86 35.8035 400.044 36.5843 402.308 36.6534C404.571 36.7225 406.799 36.0764 408.674 34.8069C410.549 33.5374 411.977 31.7091 412.753 29.5819C413.53 27.4547 413.616 25.1368 413 22.9578C412.383 20.7788 411.096 18.8495 409.32 17.4441C407.545 16.0387 405.371 15.2288 403.109 15.1295C400.846 15.0302 398.61 15.6465 396.718 16.8909C394.826 18.1353 393.375 19.9444 392.57 22.061ZM402.641 24.8929C403.558 24.8929 404.301 25.6367 404.301 26.5533V31.3218C404.301 31.7621 404.126 32.1844 403.815 32.4958C403.504 32.8072 403.081 32.9821 402.641 32.9821C402.201 32.9821 401.778 32.8072 401.467 32.4958C401.156 32.1844 400.981 31.7621 400.981 31.3218V26.5533C400.981 25.6367 401.724 24.8929 402.641 24.8929ZM400.694 20.6956C400.694 21.9468 401.73 22.4967 402.46 22.5764C402.522 22.5834 402.584 22.5869 402.646 22.587C403.372 22.587 404.596 22.0557 404.596 20.6956C404.596 19.4417 403.56 18.8918 402.83 18.8121C402.768 18.8051 402.706 18.8015 402.644 18.8014C401.918 18.8014 400.694 19.3328 400.694 20.6956ZM387.19 36.7358C388.053 36.7533 388.909 36.5985 389.711 36.2807C390.513 35.9629 391.243 35.4883 391.859 34.8848C392.474 34.2813 392.964 33.5609 393.298 32.766C393.632 31.971 393.804 31.1174 393.804 30.2552C393.804 29.3929 393.632 28.5393 393.298 27.7443C392.964 26.9494 392.474 26.2291 391.859 25.6255C391.243 25.022 390.513 24.5475 389.711 24.2296C388.909 23.9118 388.053 23.757 387.19 23.7745C385.494 23.8088 383.879 24.5067 382.692 25.7183C381.505 26.93 380.84 28.5588 380.84 30.2552C380.84 31.9516 381.505 33.5804 382.692 34.792C383.879 36.0036 385.494 36.7015 387.19 36.7358ZM376.392 49.6945C376.387 46.9827 377.403 44.3685 379.238 42.3714C381.072 40.3743 383.591 39.1406 386.294 38.9154C388.996 38.6901 391.684 39.4899 393.824 41.1557C395.964 42.8216 397.399 45.2315 397.843 47.9066H411.543C412.072 47.9066 412.578 48.1165 412.952 48.4902C413.326 48.8638 413.536 49.3706 413.536 49.899C413.536 50.4274 413.326 50.9342 412.952 51.3079C412.578 51.6815 412.072 51.8914 411.543 51.8914H378.437C377.933 51.8913 377.447 51.6999 377.078 51.3557C376.71 51.0116 376.485 50.5404 376.45 50.0372C376.413 49.9267 376.394 49.811 376.394 49.6945H376.392Z" fill="#4780F0"/>
<path fill-rule="evenodd" clip-rule="evenodd" d="M392.527 22.0509C394.502 23.3439 395.943 25.3067 396.585 27.5779C397.228 29.8492 397.028 32.276 396.023 34.4118C397.817 35.7933 400.001 36.5742 402.265 36.6433C404.528 36.7124 406.756 36.0662 408.631 34.7967C410.506 33.5272 411.934 31.6989 412.71 29.5717C413.487 27.4445 413.573 25.1267 412.957 22.9476C412.34 20.7686 411.053 18.8393 409.277 17.4339C407.502 16.0285 405.328 15.2186 403.066 15.1193C400.803 15.02 398.567 15.6364 396.675 16.8807C394.783 18.1251 393.332 19.9342 392.527 22.0509ZM402.598 24.8827C403.515 24.8827 404.258 25.6266 404.258 26.5431V31.3116C404.258 31.7519 404.083 32.1743 403.772 32.4856C403.461 32.797 403.038 32.9719 402.598 32.9719C402.158 32.9719 401.735 32.797 401.424 32.4856C401.113 32.1743 400.938 31.7519 400.938 31.3116V26.5431C400.938 25.6266 401.682 24.8827 402.598 24.8827ZM400.651 20.6854C400.651 21.9366 401.687 22.4865 402.417 22.5662C402.479 22.5732 402.541 22.5767 402.603 22.5769C403.329 22.5769 404.553 22.0455 404.553 20.6854C404.553 19.4315 403.517 18.8816 402.787 18.8019C402.725 18.7949 402.663 18.7914 402.601 18.7913C401.875 18.7913 400.651 19.3226 400.651 20.6854Z" fill="#FF5C00"/>
<rect x="367.766" y="6" width="55" height="6" fill="#007D00" fill-opacity="0.3"/>
<rect x="367.766" y="55" width="55" height="6" fill="#007D00" fill-opacity="0.3"/>
<rect x="367.766" y="61" width="55" height="6" transform="rotate(-90 367.766 61)" fill="#007D00" fill-opacity="0.3"/>
<rect x="416.766" y="61" width="55" height="6" transform="rotate(-90 416.766 61)" fill="#007D00" fill-opacity="0.3"/>
<rect x="455.654" y="5.31008" width="56.3798" height="56.3798" stroke="#1477F8" stroke-width="1.37983"/>
<path d="M476.754 21.5815C475.473 21.5815 474.245 22.0904 473.339 22.996C472.434 23.9017 471.925 25.1301 471.925 26.411V34.6899C471.925 35.9708 472.434 37.1992 473.339 38.1049C474.245 39.0105 475.473 39.5194 476.754 39.5194H477.441V36.7597H476.756C476.207 36.7597 475.68 36.5416 475.292 36.1535C474.904 35.7653 474.686 35.2389 474.686 34.6899V26.411C474.686 25.862 474.904 25.3356 475.292 24.9474C475.68 24.5593 476.207 24.3412 476.756 24.3412H485.035C485.584 24.3412 486.11 24.5593 486.498 24.9474C486.886 25.3356 487.104 25.862 487.104 26.411V34.6899C487.104 35.2389 486.886 35.7653 486.498 36.1535C486.11 36.5416 485.584 36.7597 485.035 36.7597H482.957V39.5194H485.035C486.315 39.5194 487.544 39.0105 488.449 38.1049C489.355 37.1992 489.864 35.9708 489.864 34.6899V26.411C489.864 25.1301 489.355 23.9017 488.449 22.996C487.544 22.0904 486.315 21.5815 485.035 21.5815H476.754ZM481.581 33.306C481.581 32.757 481.799 32.2306 482.187 31.8424C482.575 31.4543 483.102 31.2362 483.651 31.2362H485.719V28.4766H483.651C482.37 28.4766 481.141 28.9854 480.236 29.8911C479.33 30.7968 478.821 32.0251 478.821 33.306V41.585C478.821 42.8658 479.33 44.0942 480.236 44.9999C481.141 45.9056 482.37 46.4144 483.651 46.4144H491.93C493.21 46.4144 494.439 45.9056 495.345 44.9999C496.25 44.0942 496.759 42.8658 496.759 41.585V33.306C496.759 32.0251 496.25 30.7968 495.345 29.8911C494.439 28.9854 493.21 28.4766 491.93 28.4766H491.247V31.2362H491.93C492.479 31.2362 493.005 31.4543 493.393 31.8424C493.781 32.2306 493.999 32.757 493.999 33.306V41.585C493.999 42.1339 493.781 42.6603 493.393 43.0485C493.005 43.4367 492.479 43.6547 491.93 43.6547H483.651C483.102 43.6547 482.575 43.4367 482.187 43.0485C481.799 42.6603 481.581 42.1339 481.581 41.585V33.306Z" fill="url(#paint5_linear_311_24563)"/>
<rect x="456.113" y="6" width="55" height="6" fill="#007D00" fill-opacity="0.3"/>
<rect x="455.997" y="55" width="55" height="6" fill="#007D00" fill-opacity="0.3"/>
<rect x="455.882" y="61" width="55" height="6" transform="rotate(-90 455.882 61)" fill="#007D00" fill-opacity="0.3"/>
<rect x="505.767" y="61" width="55" height="6" transform="rotate(-90 505.767 61)" fill="#007D00" fill-opacity="0.3"/>
<rect x="544.658" y="5.31008" width="56.3794" height="56.3797" stroke="#1477F8" stroke-width="1.37983"/>
<path fill-rule="evenodd" clip-rule="evenodd" d="M593.014 41.9005C593.014 51.1747 584.613 55.3438 572.849 55.3438C561.084 55.3438 552.681 51.1747 552.681 41.966C552.681 33.1505 556.535 28.1357 564.242 23.6016C566.726 25.4681 569.75 26.4763 572.857 26.4741C575.964 26.4718 578.986 25.4593 581.468 23.5891C589.166 28.0765 593.014 33.0912 593.014 41.9005ZM578.288 21.0427L582.251 14.8485C582.423 14.5198 582.508 14.1527 582.499 13.7819C582.49 13.4111 582.386 13.0488 582.198 12.7292C582.009 12.4096 581.742 12.1434 581.423 11.9556C581.103 11.7679 580.74 11.6648 580.369 11.6562H566.118C565.722 11.6487 565.333 11.7486 564.99 11.9453C564.647 12.142 564.363 12.428 564.17 12.773C563.977 13.118 563.881 13.5089 563.893 13.9041C563.904 14.2993 564.023 14.6839 564.236 15.017L567.503 21.102C570.814 23.0836 574.993 23.0649 578.288 21.0427Z" fill="#EE6002"/>
<path fill-rule="evenodd" clip-rule="evenodd" d="M573.388 30.9746C572.124 30.9568 570.87 31.192 569.698 31.6665C568.526 32.141 567.459 32.8453 566.56 33.7386C565.66 34.6318 564.946 35.6962 564.458 36.8698C563.971 38.0434 563.72 39.3029 563.72 40.575C563.72 41.8472 563.971 43.1067 564.458 44.2803C564.946 45.4539 565.66 46.5182 566.56 47.4115C567.459 48.3047 568.526 49.0091 569.698 49.4835C570.87 49.958 572.124 50.1932 573.388 50.1755C575.916 50.1755 578.342 49.1639 580.13 47.3633C581.918 45.5627 582.922 43.1205 582.922 40.5741C582.922 38.0276 581.918 35.5855 580.13 33.7849C578.342 31.9843 575.916 30.9746 573.388 30.9746ZM573.765 35.5139L575.036 38.088C575.064 38.153 575.109 38.2092 575.166 38.251C575.223 38.2928 575.29 38.3187 575.36 38.326L578.18 38.7568C578.261 38.7672 578.337 38.8006 578.4 38.8531C578.462 38.9055 578.509 38.9749 578.534 39.053C578.558 39.1311 578.56 39.2147 578.54 39.294C578.519 39.3732 578.476 39.4449 578.416 39.5006L576.337 41.4939C576.306 41.5535 576.289 41.6197 576.289 41.6869C576.289 41.7541 576.306 41.8203 576.337 41.8799L576.735 44.705C576.751 44.7864 576.744 44.8709 576.715 44.9483C576.685 45.0258 576.633 45.0929 576.566 45.1416C576.5 45.1903 576.42 45.2185 576.338 45.2228C576.255 45.2271 576.174 45.2073 576.102 45.1659L573.59 43.8282C573.525 43.7985 573.455 43.7831 573.383 43.7831C573.312 43.7831 573.241 43.7985 573.176 43.8282L570.664 45.1659C570.593 45.2073 570.511 45.2271 570.428 45.2228C570.346 45.2185 570.266 45.1903 570.2 45.1416C570.133 45.0929 570.081 45.0258 570.052 44.9483C570.022 44.8709 570.015 44.7864 570.031 44.705L570.502 41.8799C570.522 41.8144 570.526 41.7448 570.513 41.6775C570.5 41.6102 570.471 41.5471 570.428 41.4939L568.346 39.4856C568.29 39.4294 568.251 39.3587 568.232 39.2813C568.214 39.2039 568.217 39.1229 568.241 39.0473C568.266 38.9716 568.311 38.9043 568.371 38.8527C568.431 38.8011 568.504 38.7673 568.582 38.755L571.404 38.3409C571.474 38.3336 571.541 38.3078 571.598 38.266C571.655 38.2242 571.7 38.168 571.728 38.103L572.999 35.5289C573.033 35.4558 573.086 35.3938 573.153 35.3498C573.22 35.3059 573.298 35.2817 573.378 35.2802C573.458 35.2786 573.537 35.2997 573.606 35.341C573.675 35.3823 573.731 35.4422 573.767 35.5139H573.765Z" fill="white"/>
<rect x="545.115" y="6" width="55" height="5" fill="#007D00" fill-opacity="0.3"/>
<rect x="544.999" y="56" width="55" height="5" fill="#007D00" fill-opacity="0.3"/>
<rect x="544.883" y="61" width="55" height="5" transform="rotate(-90 544.883 61)" fill="#007D00" fill-opacity="0.3"/>
<rect x="595.767" y="61" width="55" height="5" transform="rotate(-90 595.767 61)" fill="#007D00" fill-opacity="0.3"/>
<rect x="10.3101" y="87.9068" width="56.3794" height="56.3798" stroke="#1477F8" stroke-width="1.37983"/>
<path d="M20.207 95.9119L24.1914 95.9119C24.1914 95.9119 28.7404 94.5127 28.7404 111.989C28.7404 111.989 27.9983 118.635 32.4344 118.635H46.3716C46.3716 118.635 51.2755 118.051 52.695 121.067L56.7923 133.128" stroke="#FFC77D" stroke-width="2.52312" stroke-miterlimit="10"/>
<path d="M42.915 107.963C42.915 107.963 46.6997 107.38 46.6997 109.675V134.39" stroke="#FFC77D" stroke-width="2.52312" stroke-miterlimit="10"/>
<path d="M23.5033 94.0195H17.9621C17.112 94.0195 16.4229 94.7087 16.4229 95.5587C16.4229 96.4088 17.112 97.098 17.9621 97.098H23.5033C24.3533 97.098 25.0425 96.4088 25.0425 95.5587C25.0425 94.7087 24.3533 94.0195 23.5033 94.0195Z" fill="#FF8120"/>
<path d="M58.0115 130.686L53.6885 132.401C52.8984 132.715 52.5119 133.609 52.8254 134.399C53.1389 135.19 54.0336 135.576 54.8238 135.263L59.1468 133.548C59.937 133.234 60.3234 132.339 60.0099 131.549C59.6964 130.759 58.8017 130.373 58.0115 130.686Z" fill="#FF8120"/>
<path d="M41.6144 106.092H32.3791C31.529 106.092 30.8398 106.781 30.8398 107.632C30.8398 108.482 31.529 109.171 32.3791 109.171H41.6144C42.4645 109.171 43.1536 108.482 43.1536 107.632C43.1536 106.781 42.4645 106.092 41.6144 106.092Z" fill="#FF8120"/>
<path d="M46.7007 138.174C48.7909 138.174 50.4854 136.479 50.4854 134.389C50.4854 132.299 48.7909 130.604 46.7007 130.604C44.6105 130.604 42.916 132.299 42.916 134.389C42.916 136.479 44.6105 138.174 46.7007 138.174Z" fill="#FFC77D"/>
<path d="M29.4983 136.572C36.0234 136.572 41.313 131.283 41.313 124.758C41.313 118.232 36.0234 112.943 29.4983 112.943C22.9732 112.943 17.6836 118.232 17.6836 124.758C17.6836 131.283 22.9732 136.572 29.4983 136.572Z" fill="#FFC77D"/>
<path d="M29.6682 130.605C32.8036 130.605 35.3453 128.063 35.3453 124.928C35.3453 121.792 32.8036 119.25 29.6682 119.25C26.5329 119.25 23.9912 121.792 23.9912 124.928C23.9912 128.063 26.5329 130.605 29.6682 130.605Z" fill="white"/>
<rect x="11" y="88.5967" width="55" height="5" fill="#007D00" fill-opacity="0.3"/>
<rect x="11" y="137.597" width="55" height="5" fill="#007D00" fill-opacity="0.3"/>
<rect x="11" y="143.597" width="55" height="5" transform="rotate(-90 11 143.597)" fill="#007D00" fill-opacity="0.3"/>
<rect x="60" y="143.597" width="55" height="5" transform="rotate(-90 60 143.597)" fill="#007D00" fill-opacity="0.3"/>
<rect x="98.8902" y="87.9068" width="56.3798" height="56.3798" stroke="#1477F8" stroke-width="1.37983"/>
<path d="M124.933 133.172C124.933 133.809 124.468 134.287 123.848 134.287C123.228 134.287 122.763 133.809 122.763 133.172V121.385C122.763 120.111 121.988 119.076 121.058 119.076C120.128 119.076 119.353 120.111 119.353 121.305V121.465V122.659C119.353 123.297 118.888 123.774 118.268 123.774C117.648 123.774 117.183 123.297 117.183 122.659V121.226C117.183 118.757 118.965 116.686 121.135 116.686C123.305 116.686 125.088 118.757 125.088 121.226V133.172H124.933ZM121.368 108.961C121.368 106.333 123.383 104.262 125.94 104.262C128.498 104.262 130.513 106.333 130.513 108.961C130.513 111.589 128.498 113.66 125.94 113.66C123.383 113.66 121.368 111.589 121.368 108.961ZM136.016 135.163C135.938 135.8 135.318 136.278 134.698 136.278H131.288C130.59 136.278 130.125 135.721 130.125 135.083V128.712C130.125 128.712 130.125 127.995 130.048 127.677C129.97 127.358 129.118 125.367 127.025 121.385C125.708 118.916 125.94 117.005 126.405 115.969C126.793 114.855 127.49 114.297 127.723 114.138C128.188 113.66 129.428 113.341 129.815 113.262C131.831 112.943 133.458 113.58 134.621 115.093C138.806 120.27 136.171 134.685 136.016 135.322V135.163Z" fill="#FFC77D"/>
<path d="M124.933 133.172C124.933 133.809 124.468 134.287 123.848 134.287C123.228 134.287 122.763 133.809 122.763 133.172V121.385C122.763 120.111 121.988 119.076 121.058 119.076C120.128 119.076 119.353 120.111 119.353 121.305V121.465V122.659C119.353 123.297 118.888 123.774 118.268 123.774C117.648 123.774 117.183 123.297 117.183 122.659V121.226C117.183 118.757 118.965 116.686 121.135 116.686C123.305 116.686 125.088 118.757 125.088 121.226V133.172H124.933ZM121.368 108.961C121.368 106.333 123.383 104.262 125.94 104.262C128.498 104.262 130.513 106.333 130.513 108.961C130.513 111.589 128.498 113.66 125.94 113.66C123.383 113.66 121.368 111.589 121.368 108.961ZM136.016 135.163C135.938 135.8 135.318 136.278 134.698 136.278H131.288C130.59 136.278 130.125 135.721 130.125 135.083V128.712C130.125 128.712 130.125 127.995 130.048 127.677C129.97 127.358 129.118 125.367 127.025 121.385C125.708 118.916 125.94 117.005 126.405 115.969C126.793 114.855 127.49 114.297 127.723 114.138C128.188 113.66 129.428 113.341 129.815 113.262C131.831 112.943 133.458 113.58 134.621 115.093C138.806 120.27 136.171 134.685 136.016 135.322V135.163Z" fill="#FFC77D"/>
<path d="M121.492 108.961C121.492 106.333 123.507 104.262 126.065 104.262C128.622 104.262 130.637 106.333 130.637 108.961C130.637 111.589 128.622 113.66 126.065 113.66C123.507 113.66 121.492 111.589 121.492 108.961Z" fill="#FFC77D"/>
<path d="M121.492 108.961C121.492 106.333 123.507 104.262 126.065 104.262C128.622 104.262 130.637 106.333 130.637 108.961C130.637 111.589 128.622 113.66 126.065 113.66C123.507 113.66 121.492 111.589 121.492 108.961Z" fill="#FFC77D"/>
<path d="M105.003 112.663L127.711 95.915L140.265 105.719M149.158 112.663L140.265 105.719M140.265 105.719V95.915" stroke="#FF8120" stroke-width="3.78468" stroke-linecap="round" stroke-linejoin="round"/>
<rect x="99.3486" y="88.5967" width="55" height="6" fill="#007D00" fill-opacity="0.3"/>
<rect x="99.2324" y="137.597" width="55" height="6" fill="#007D00" fill-opacity="0.3"/>
<rect x="99.1162" y="143.597" width="55" height="6" transform="rotate(-90 99.1162 143.597)" fill="#007D00" fill-opacity="0.3"/>
<rect x="149" y="143.597" width="55" height="6" transform="rotate(-90 149 143.597)" fill="#007D00" fill-opacity="0.3"/>
<rect x="187.888" y="87.9068" width="56.3798" height="56.3798" stroke="#1477F8" stroke-width="1.37983"/>
<g clip-path="url(#clip2_311_24563)">
<path d="M230.707 110.304C229.535 117.568 230.797 109.267 230.797 108.736C230.797 100.297 223.691 93.5123 215.129 94.0477C207.842 94.5073 201.896 100.411 201.399 107.694C201.105 111.977 202.645 115.905 205.312 118.767C206.611 120.16 206.98 122.15 206.298 123.922C205.72 125.424 205.478 127.091 205.663 128.835C206.189 133.763 210.235 137.714 215.177 138.131C220.019 138.539 224.231 135.648 225.851 131.465C228.225 124.021 229.935 116.919 230.712 110.299L230.707 110.304Z" fill="#FFC77D"/>
<path d="M220.494 121.984C220.739 120.021 222.082 115.554 224.173 112.417C227.117 108.002 224.173 100.642 219.022 99.9066C215.525 99.407 213.433 101.698 212.697 102.925C211.962 104.151 211.663 106.53 214.169 108.812C216.381 110.826 221.23 118.304 212.399 120.512" stroke="white" stroke-width="1.89234" stroke-linecap="round"/>
<circle cx="213.134" cy="117.568" r="4.41546" fill="white"/>
<path d="M213.507 116.097C213.016 117.814 212.624 121.984 214.979 124.928C217.334 127.871 215.469 132.041 214.243 133.759" stroke="white" stroke-width="1.89234" stroke-linecap="round"/>
</g>
<rect x="188.347" y="88.5967" width="55" height="6" fill="#007D00" fill-opacity="0.3"/>
<path d="M188.231 137.597H243.231V143.597H188.231V137.597Z" fill="#007D00" fill-opacity="0.3"/>
<rect x="188.115" y="143.597" width="55" height="6" transform="rotate(-90 188.115 143.597)" fill="#007D00" fill-opacity="0.3"/>
<rect x="238" y="143.597" width="55" height="6" transform="rotate(-90 238 143.597)" fill="#007D00" fill-opacity="0.3"/>
<rect x="276.892" y="87.9068" width="56.3794" height="56.3798" stroke="#1477F8" stroke-width="1.37983"/>
<path d="M300.865 96.4814C300.865 96.4814 304.709 97.8582 308.653 96.4814C308.653 96.4814 315.347 93.1771 317.286 99.6885C317.286 99.6885 318.512 101.438 316.342 107.852C316.342 107.852 314.751 112.064 314.552 112.987H295.794L293.922 108.403C293.259 107.123 290.774 101.017 294.767 97.1293C294.767 97.1293 297.037 94.4243 300.865 96.4814Z" fill="#FFC77D"/>
<path d="M299.374 99.98C299.374 99.98 296.54 100.757 297.103 103.608" stroke="white" stroke-width="1.26156" stroke-miterlimit="10" stroke-linecap="round"/>
<path d="M309.718 112.987H300.431C299.344 112.987 298.463 113.868 298.463 114.955C298.463 116.042 299.344 116.923 300.431 116.923H309.718C310.805 116.923 311.686 116.042 311.686 114.955C311.686 113.868 310.805 112.987 309.718 112.987Z" fill="#FFC77D"/>
<path d="M301.181 133.234L302.954 137.364H307.179L308.969 133.234V116.923H301.181V133.234Z" fill="#FFC77D"/>
<path d="M298.437 119.733L311.711 120.901" stroke="#FF8120" stroke-width="1.89234" stroke-miterlimit="10" stroke-linecap="round"/>
<path d="M298.774 124.157L311.998 125.453" stroke="#FF8120" stroke-width="1.89234" stroke-miterlimit="10" stroke-linecap="round"/>
<path d="M298.774 128.252L311.998 129.419" stroke="#FF8120" stroke-width="1.89234" stroke-miterlimit="10" stroke-linecap="round"/>
<path d="M298.762 132.543L312.011 133.636" stroke="#FF8120" stroke-width="1.89234" stroke-miterlimit="10" stroke-linecap="round"/>
<rect x="277.35" y="88.5967" width="55" height="5" fill="#007D00" fill-opacity="0.3"/>
<rect x="277.232" y="138.597" width="55" height="5" fill="#007D00" fill-opacity="0.3"/>
<rect x="277.116" y="143.597" width="55" height="5" transform="rotate(-90 277.116 143.597)" fill="#007D00" fill-opacity="0.3"/>
<rect x="327" y="144" width="55" height="6" transform="rotate(-90 327 144)" fill="#007D00" fill-opacity="0.3"/>
<rect x="365.426" y="87.9068" width="56.3798" height="56.3798" stroke="#1477F8" stroke-width="1.37983"/>
<g clip-path="url(#clip3_311_24563)">
<path d="M389.906 120.78C383.827 122.257 377.068 121.783 380.833 117.654C383.092 115.173 386.362 114.614 389.475 113.402C391.045 112.001 395.068 110.353 392.955 105.068C386.251 106.678 378.638 109.283 373.459 113.753C367.471 124.653 377.545 134.303 398.594 128.299C414.766 123.687 416.805 117.323 413.784 110.845C407.612 114.946 393.167 119.994 389.916 120.78H389.906Z" fill="#FFC77D"/>
<path d="M408.374 112.115C408.686 116.556 414.215 117.513 415.133 112.825C415.473 111.101 415.115 108.885 413.141 108.951C412.663 108.97 412.305 109.179 412.305 109.179C412.185 109.15 412.084 109.056 411.983 108.98C410.725 108.023 408.172 109.103 408.383 112.124L408.374 112.115Z" fill="#FF8120"/>
<path d="M408.448 117.948C409.587 118.014 410.615 117.654 411.947 116.366C412.397 115.921 412.479 115.4 412.562 114.974C412.902 113.251 412.544 111.035 410.569 111.101C410.092 111.12 409.734 111.328 409.734 111.328C409.614 111.3 409.513 111.205 409.412 111.129C408.154 110.173 405.601 111.252 405.812 114.273C405.941 116.158 407.079 117.531 408.457 117.948H408.448Z" fill="white"/>
<path d="M404.297 119.87C405.536 119.974 406.85 119.15 407.759 118.307C408.209 117.654 408.163 117.502 408.264 117.048C408.622 115.324 408.301 113.108 406.326 113.146C405.849 113.146 405.491 113.354 405.491 113.354C405.371 113.326 405.27 113.231 405.169 113.156C403.92 112.18 401.358 113.222 401.523 116.243C401.588 117.379 402.047 118.497 402.892 119.254C403.332 119.643 403.81 119.832 404.297 119.87Z" fill="#FF8120"/>
<path d="M400.467 121.783C400.697 121.793 400.944 121.765 401.202 121.67C401.9 121.433 402.772 121.291 403.36 120.799C404.104 120.183 404.425 119.189 404.453 118.232C404.48 117.01 403.975 115.751 402.625 115.722C402.184 115.722 401.844 115.893 401.844 115.893C401.734 115.865 401.642 115.77 401.551 115.694C400.43 114.756 398.042 115.647 398.107 118.431C398.143 119.852 399.025 121.708 400.458 121.783H400.467Z" fill="white"/>
<path d="M399.76 122.513C400.568 121.736 400.724 120.59 400.54 119.435C400.393 118.516 399.897 117.626 398.887 117.607C398.446 117.607 398.116 117.796 398.116 117.796C398.006 117.759 397.923 117.664 397.831 117.588C396.757 116.575 394.36 117.55 394.332 120.562C394.323 121.982 394.865 122.759 395.682 123.412C397.308 123.886 398.364 123.488 399.383 122.806C399.521 122.721 399.64 122.617 399.75 122.513H399.76Z" fill="#FF8120"/>
<path d="M393.479 107.351C392.57 109.444 390.522 110.315 388.869 109.671C387.739 109.226 386.536 108.042 386.894 105.636C387.152 103.894 388.217 101.943 390.054 102.701C390.504 102.881 390.761 103.203 390.761 103.203C390.889 103.222 391.009 103.165 391.128 103.136C392.634 102.682 394.664 104.595 393.47 107.36L393.479 107.351Z" fill="#FF8120"/>
<path d="M388.712 108.885C387.803 110.978 385.755 111.849 384.102 111.205C382.973 110.76 381.77 109.576 382.128 107.171C382.385 105.428 383.45 103.477 385.287 104.235C385.737 104.415 385.994 104.737 385.994 104.737C386.123 104.756 386.242 104.699 386.361 104.671C387.868 104.216 389.897 106.129 388.703 108.894L388.712 108.885Z" fill="white"/>
<path d="M385.076 111.006C384.167 113.099 382.119 113.971 380.466 113.327C379.336 112.882 378.133 111.698 378.491 109.292C378.748 107.55 379.814 105.599 381.65 106.356C382.1 106.536 382.357 106.858 382.357 106.858C382.486 106.877 382.605 106.821 382.725 106.792C384.231 106.338 386.26 108.251 385.067 111.016L385.076 111.006Z" fill="#FF8120"/>
<path d="M382.513 112.531C381.76 114.501 379.914 115.391 378.371 114.861C377.315 114.501 376.158 113.468 376.388 111.233C376.553 109.623 377.453 107.777 379.17 108.392C379.593 108.544 379.841 108.828 379.841 108.828C379.96 108.828 380.07 108.79 380.181 108.743C381.549 108.26 383.496 109.936 382.504 112.521L382.513 112.531Z" fill="white"/>
<path d="M379.666 114.226C378.913 116.196 377.067 117.086 375.524 116.556C374.468 116.196 373.311 115.164 373.54 112.929C373.705 111.319 374.605 109.472 376.323 110.088C376.745 110.239 376.993 110.523 376.993 110.523C377.113 110.523 377.223 110.485 377.333 110.438C378.701 109.955 380.648 111.631 379.656 114.217L379.666 114.226Z" fill="#FF8120"/>
<path d="M377.517 116.12C376.829 118.288 375.24 119.349 373.954 118.866C373.063 118.535 372.117 117.483 372.365 115.068C372.549 113.316 373.357 111.28 374.799 111.849C375.148 111.981 375.359 112.275 375.359 112.275C375.46 112.275 375.552 112.218 375.644 112.171C376.81 111.574 378.417 113.269 377.517 116.12Z" fill="white"/>
<path d="M392.633 124.553C392.863 124.562 393.11 124.534 393.368 124.439C394.066 124.202 394.938 124.06 395.526 123.568C396.27 122.952 396.591 121.958 396.619 121.001C396.646 119.779 396.141 118.52 394.791 118.492C394.35 118.492 394.01 118.662 394.01 118.662C393.9 118.634 393.808 118.539 393.717 118.463C392.596 117.526 390.208 118.416 390.273 121.2C390.309 122.621 391.191 124.477 392.624 124.553H392.633Z" fill="white"/>
</g>
<rect x="366.418" y="88.5967" width="55" height="6" fill="#007D00" fill-opacity="0.3"/>
<rect x="366.418" y="137.597" width="55" height="6" fill="#007D00" fill-opacity="0.3"/>
<rect x="366.418" y="143.597" width="55" height="6" transform="rotate(-90 366.418 143.597)" fill="#007D00" fill-opacity="0.3"/>
<rect x="415.418" y="143.597" width="55" height="6" transform="rotate(-90 415.418 143.597)" fill="#007D00" fill-opacity="0.3"/>
<rect x="454.306" y="87.9068" width="56.3798" height="56.3798" stroke="#1477F8" stroke-width="1.37983"/>
<g clip-path="url(#clip4_311_24563)">
<path d="M487.721 106.41C487.721 103.956 485.737 101.972 483.283 101.972C480.829 101.972 478.845 103.956 478.845 106.41C478.845 108.864 480.829 110.848 483.283 110.848C483.283 113.302 485.267 115.286 487.721 115.286C490.175 115.286 492.159 113.302 492.159 110.848C492.159 108.394 490.175 106.41 487.721 106.41Z" fill="#FFC77D"/>
<path d="M478.981 120.072C477.254 118.346 474.437 118.346 472.71 120.072C470.983 121.799 470.983 124.617 472.71 126.343C474.437 128.07 477.254 128.07 478.981 126.343C480.708 128.07 483.525 128.07 485.252 126.343C486.979 124.617 486.979 121.799 485.252 120.072C483.525 118.346 480.708 118.346 478.981 120.072Z" fill="#FFC77D"/>
<path d="M483.222 124.178H474.739V138.189H483.222V124.178Z" fill="#FFC77D"/>
<path d="M500.111 100.018L494.113 94.02L484.206 103.928L490.204 109.926L500.111 100.018Z" fill="#FFC77D"/>
<path d="M474.211 116.604C472.181 115.71 471.227 113.408 472.075 111.454C472.939 109.5 475.271 108.652 477.316 109.53C478.679 110.121 481.33 112.075 482.481 113.893C482.83 114.453 483.224 115.559 482.936 116.21C482.481 117.24 481.694 117.664 480.997 117.801C479.225 118.134 475.544 117.18 474.226 116.604H474.211Z" fill="#FF8120"/>
<path d="M470.712 118.513L468.546 120.694" stroke="#E53935" stroke-width="1.26156" stroke-miterlimit="10" stroke-linecap="round"/>
<path d="M468.713 113.348H465.638" stroke="#E53935" stroke-width="1.26156" stroke-miterlimit="10" stroke-linecap="round"/>
<path d="M470.832 108.319L468.424 106.41" stroke="#E53935" stroke-width="1.26156" stroke-miterlimit="10" stroke-linecap="round"/>
<path d="M476.104 106.092V103.017" stroke="#E53935" stroke-width="1.26156" stroke-miterlimit="10" stroke-linecap="round"/>
</g>
<rect x="454.766" y="88.5967" width="55" height="6" fill="#007D00" fill-opacity="0.3"/>
<rect x="454.649" y="137.597" width="55" height="6" fill="#007D00" fill-opacity="0.3"/>
<rect x="454.534" y="143.597" width="55" height="6" transform="rotate(-90 454.534 143.597)" fill="#007D00" fill-opacity="0.3"/>
<rect x="504.419" y="143.597" width="55" height="6" transform="rotate(-90 504.419 143.597)" fill="#007D00" fill-opacity="0.3"/>
<rect x="543.31" y="87.9068" width="56.3794" height="56.3798" stroke="#1477F8" stroke-width="1.37983"/>
<g clip-path="url(#clip5_311_24563)">
<path d="M570.156 127.611H570.141C569.563 127.611 555.831 127.186 550.985 116.127L550.803 115.717L550.955 115.292C551.091 114.866 554.722 104.734 572.024 104.582H572.222C574.166 104.582 584.253 105.099 591.803 115.261L592.198 115.793L591.955 116.4C591.772 116.841 587.306 127.323 570.201 127.611H570.186H570.156Z" fill="#FFC77D"/>
<path d="M570.767 125.307C565.466 125.307 561.151 120.993 561.151 115.691C561.151 110.389 565.466 106.06 570.767 106.06C576.069 106.06 580.383 110.374 580.383 115.676C580.383 120.977 576.069 125.292 570.767 125.292V125.307ZM570.767 107.23C566.104 107.23 562.321 111.027 562.321 115.691C562.321 120.355 566.119 124.137 570.767 124.137C575.416 124.137 579.213 120.355 579.213 115.691C579.213 111.027 575.416 107.23 570.767 107.23Z" fill="white"/>
<path d="M572.786 114.962L575.582 112.045C574.488 110.587 572.741 109.645 570.766 109.645C567.424 109.645 564.735 112.349 564.735 115.676C564.735 119.003 567.439 121.707 570.766 121.707C574.093 121.707 576.66 119.139 576.797 115.919L572.786 114.947V114.962Z" fill="white"/>
</g>
<rect x="543.768" y="88.5967" width="55" height="5" fill="#007D00" fill-opacity="0.3"/>
<rect x="543.651" y="138.597" width="55" height="5" fill="#007D00" fill-opacity="0.3"/>
<rect x="543.535" y="143.597" width="55" height="5" transform="rotate(-90 543.535 143.597)" fill="#007D00" fill-opacity="0.3"/>
<rect x="594.419" y="143.597" width="55" height="5" transform="rotate(-90 594.419 143.597)" fill="#007D00" fill-opacity="0.3"/>
<defs>
<filter id="filter0_dd_311_24563" x="0.519531" y="0.277832" width="76.1543" height="69.2505" filterUnits="userSpaceOnUse" color-interpolation-filters="sRGB">
<feFlood flood-opacity="0" result="BackgroundImageFix"/>
<feColorMatrix in="SourceAlpha" type="matrix" values="0 0 0 0 0 0 0 0 0 0 0 0 0 0 0 0 0 0 127 0" result="hardAlpha"/>
<feOffset/>
<feGaussianBlur stdDeviation="0.5"/>
<feComposite in2="hardAlpha" operator="out"/>
<feColorMatrix type="matrix" values="0 0 0 0 0 0 0 0 0 0 0 0 0 0 0 0 0 0 0.2 0"/>
<feBlend mode="normal" in2="BackgroundImageFix" result="effect1_dropShadow_311_24563"/>
<feColorMatrix in="SourceAlpha" type="matrix" values="0 0 0 0 0 0 0 0 0 0 0 0 0 0 0 0 0 0 127 0" result="hardAlpha"/>
<feOffset dy="2"/>
<feGaussianBlur stdDeviation="8"/>
<feComposite in2="hardAlpha" operator="out"/>
<feColorMatrix type="matrix" values="0 0 0 0 0 0 0 0 0 0 0 0 0 0 0 0 0 0 0.08 0"/>
<feBlend mode="normal" in2="effect1_dropShadow_311_24563" result="effect2_dropShadow_311_24563"/>
<feBlend mode="normal" in="SourceGraphic" in2="effect2_dropShadow_311_24563" result="shape"/>
</filter>
<linearGradient id="paint0_linear_311_24563" x1="44.1149" y1="17.0388" x2="53.2554" y2="18.8153" gradientUnits="userSpaceOnUse">
<stop stop-color="#FF8020"/>
<stop offset="1" stop-color="#E54304"/>
<stop offset="1" stop-color="#E74806"/>
</linearGradient>
<linearGradient id="paint1_linear_311_24563" x1="35.5778" y1="34.3445" x2="40.673" y2="43.2448" gradientUnits="userSpaceOnUse">
<stop stop-color="#FBA13B"/>
<stop offset="1" stop-color="#E54304"/>
</linearGradient>
<linearGradient id="paint2_linear_311_24563" x1="28.9378" y1="18.1597" x2="34.8169" y2="36.9665" gradientUnits="userSpaceOnUse">
<stop stop-color="#FFB245"/>
<stop offset="1" stop-color="#E54304"/>
</linearGradient>
<linearGradient id="paint3_linear_311_24563" x1="129.822" y1="18.5992" x2="142.401" y2="37.5984" gradientUnits="userSpaceOnUse">
<stop stop-color="#FF8120"/>
<stop offset="1" stop-color="#E54304"/>
</linearGradient>
<linearGradient id="paint4_linear_311_24563" x1="212.723" y1="29.4421" x2="218.455" y2="38.8551" gradientUnits="userSpaceOnUse">
<stop stop-color="#FF8120"/>
<stop offset="1" stop-color="#E54304"/>
</linearGradient>
<linearGradient id="paint5_linear_311_24563" x1="478.909" y1="25.979" x2="490.808" y2="43.3109" gradientUnits="userSpaceOnUse">
<stop stop-color="#FF8120"/>
<stop offset="1" stop-color="#E54304"/>
</linearGradient>
<clipPath id="clip0_311_24563">
<rect width="27.5966" height="26.611" fill="white" transform="translate(122.061 13.8867)"/>
</clipPath>
<clipPath id="clip1_311_24563">
<rect width="44.1546" height="38.8025" fill="white" transform="translate(194.347 14.0986)"/>
</clipPath>
<clipPath id="clip2_311_24563">
<rect width="29.4364" height="44.1546" fill="white" transform="translate(201.36 94.0195)"/>
</clipPath>
<clipPath id="clip3_311_24563">
<rect width="44.1546" height="28.0984" fill="white" transform="translate(371.539 102.047)"/>
</clipPath>
<clipPath id="clip4_311_24563">
<rect width="35.2328" height="44.1546" fill="white" transform="translate(464.88 94.0195)"/>
</clipPath>
<clipPath id="clip5_311_24563">
<rect width="41.395" height="23.0293" fill="white" transform="translate(550.803 104.582)"/>
</clipPath>
</defs>
</svg>
