<svg width="898" height="138" viewBox="0 0 898 138" fill="none" xmlns="http://www.w3.org/2000/svg">
<rect width="216" height="108" transform="translate(0 0.519531)" fill="#1477F8"/>
<path d="M15.216 20.8555H16.88V32.6315H15.216V20.8555ZM24.8878 27.9915C24.8878 26.7275 24.1678 25.9275 22.8558 25.9275C21.6237 25.9275 20.6797 26.9675 20.6957 28.0875V32.6315H19.0317V24.2795H20.6957V25.6075C21.2558 24.8075 21.9918 24.2795 23.0477 24.2795C24.6798 24.2795 26.5518 25.5275 26.5518 27.9275V32.6315H24.8878V27.9915ZM30.989 32.6795H29.325V25.9115H27.885V24.2795H29.325V22.9355C29.325 21.4795 30.493 20.2475 31.917 20.1675C32.589 20.1195 33.373 20.4075 33.837 20.7435L32.893 22.1035C32.669 21.9275 32.333 21.8155 32.045 21.8155C31.373 21.8475 30.989 22.2475 30.989 22.9355V24.2795H33.469V25.9115H30.989V32.6795ZM38.241 31.0475C39.745 31.0475 40.625 29.9595 40.625 28.4715C40.625 26.9675 39.745 25.8795 38.241 25.8795C36.737 25.8795 35.873 26.9675 35.873 28.4715C35.873 29.9595 36.737 31.0475 38.241 31.0475ZM34.209 28.4715C34.209 26.1835 35.745 24.2315 38.241 24.2315C40.801 24.2315 42.289 26.1835 42.289 28.4715C42.289 30.7435 40.801 32.6955 38.241 32.6955C35.745 32.6955 34.209 30.7435 34.209 28.4715ZM54.6031 27.8475C54.6031 26.6315 53.9471 25.9275 52.8111 25.9275C51.7551 25.9275 50.8591 26.7915 50.8591 27.8475V32.6315H49.1951V27.8475C49.1951 26.7915 48.5871 25.9275 47.4351 25.9275C46.4111 25.9275 45.4671 26.7915 45.4671 27.9275V32.6315H43.8031V24.2795H45.4671V25.6875C45.9471 24.8395 46.6671 24.2795 47.6431 24.2795C48.7951 24.2795 49.6751 24.8875 50.1711 25.9595C50.7471 25.0955 51.4991 24.2795 52.8911 24.2795C54.6191 24.2795 56.2671 25.5915 56.2671 27.7675V32.6315H54.6031V27.8475ZM61.8953 31.0955C63.1753 31.0955 64.3753 30.1515 64.3913 28.5355C64.3753 26.9355 63.1753 25.9755 61.8953 25.9755C60.3433 25.9755 59.4793 27.0475 59.4793 28.5355C59.4793 30.0235 60.3433 31.0955 61.8953 31.0955ZM57.8153 28.5355C57.8153 26.2635 59.2393 24.3275 61.7833 24.3275C62.6953 24.3275 63.6873 24.7915 64.3593 25.7835V24.2955H66.0233V32.6155L64.3593 32.6315V31.3035C63.6553 32.3275 62.7113 32.7595 61.7833 32.7595C59.2393 32.7595 57.8153 30.8075 57.8153 28.5355ZM72.8347 32.4235C72.4987 32.5035 71.7947 32.6315 71.2347 32.5995C69.9867 32.5355 68.8027 31.4635 68.8027 30.0715V25.8315H67.3787V24.1995H68.8027V21.3675H70.4667V24.1995H72.6267V25.8315H70.4667V30.0715C70.4667 30.6155 70.8027 30.9195 71.3467 30.9355C71.7147 30.9515 72.1787 30.8715 72.4667 30.8075L72.8347 32.4235ZM74.3535 24.2475H76.0175V32.6635H74.3535V24.2475ZM74.2255 21.2395C74.2255 20.7115 74.5615 20.2955 75.1855 20.2955C75.7775 20.2955 76.1135 20.7115 76.1135 21.2395C76.1135 21.7675 75.7775 22.1835 75.1855 22.1835C74.5615 22.1835 74.2255 21.7675 74.2255 21.2395ZM81.7722 31.0475C83.2762 31.0475 84.1562 29.9595 84.1562 28.4715C84.1562 26.9675 83.2762 25.8795 81.7722 25.8795C80.2682 25.8795 79.4042 26.9675 79.4042 28.4715C79.4042 29.9595 80.2682 31.0475 81.7722 31.0475ZM77.7402 28.4715C77.7402 26.1835 79.2762 24.2315 81.7722 24.2315C84.3322 24.2315 85.8202 26.1835 85.8202 28.4715C85.8202 30.7435 84.3322 32.6955 81.7722 32.6955C79.2762 32.6955 77.7402 30.7435 77.7402 28.4715ZM93.0784 27.9915C93.0784 26.7275 92.3584 25.9275 91.0464 25.9275C89.8144 25.9275 88.8704 26.9675 88.8864 28.0875V32.6315H87.2224V24.2795H88.8864V25.6075C89.4464 24.8075 90.1824 24.2795 91.2384 24.2795C92.8704 24.2795 94.7424 25.5275 94.7424 27.9275V32.6315H93.0784V27.9915ZM96.5556 25.7995H103.532V27.4475H96.5556V25.7995ZM109.148 31.0155C110.54 31.0155 111.516 30.1355 111.516 28.8075C111.516 27.5115 110.524 26.5835 109.148 26.5835C107.788 26.5835 106.812 27.5115 106.812 28.8075C106.812 30.1355 107.772 31.0155 109.148 31.0155ZM105.148 28.8075C105.148 28.0235 105.388 27.3035 105.804 26.7115L109.068 20.9035H110.988L108.684 24.9515C108.844 24.9355 109.004 24.9195 109.164 24.9195C111.292 24.9195 113.18 26.6315 113.18 28.8075C113.18 31.0155 111.292 32.6795 109.164 32.6795C107.052 32.6795 105.148 31.0315 105.148 28.8075ZM118.834 30.9995C120.546 30.9995 121.522 29.7195 121.522 26.7435C121.522 23.7515 120.546 22.4715 118.834 22.4715C117.122 22.4715 116.13 23.7515 116.13 26.7435C116.13 29.7195 117.122 30.9995 118.834 30.9995ZM114.466 26.7435C114.466 23.0475 116.194 20.8075 118.834 20.8075C121.442 20.8075 123.186 23.0155 123.186 26.7435C123.186 30.4235 121.474 32.6635 118.834 32.6635C116.194 32.6635 114.466 30.4235 114.466 26.7435ZM128.825 30.9995C130.537 30.9995 131.513 29.7195 131.513 26.7435C131.513 23.7515 130.537 22.4715 128.825 22.4715C127.113 22.4715 126.121 23.7515 126.121 26.7435C126.121 29.7195 127.113 30.9995 128.825 30.9995ZM124.457 26.7435C124.457 23.0475 126.185 20.8075 128.825 20.8075C131.433 20.8075 133.177 23.0155 133.177 26.7435C133.177 30.4235 131.465 32.6635 128.825 32.6635C126.185 32.6635 124.457 30.4235 124.457 26.7435Z" fill="white"/>
<path d="M160.402 85.4115L160.22 87.9595H162.278V88.9395H160.136L159.94 92.0055H161.942V92.9995H159.856L159.674 95.5195H158.652L158.848 92.9995H156.104L155.922 95.5195H154.9L155.082 92.9995H153.094V92.0055H155.166L155.376 88.9395H153.444V87.9595H155.446L155.628 85.4115H156.65L156.468 87.9595H159.212L159.366 85.4115H160.402ZM156.174 92.0055H158.918L159.128 88.9395H156.398L156.174 92.0055ZM166.491 85.4255V95.5195H165.483V86.6435L164.055 87.5955L163.495 86.7555L165.483 85.4255H166.491ZM173.991 85.4115V91.7815H175.489V92.7615H173.991V95.5195H172.983V92.7615H168.419V91.7815L173.011 85.4115H173.991ZM169.665 91.7815H172.983V87.1755L169.665 91.7815ZM178.887 95.5055H177.795L181.869 86.4195H176.955V85.4115H182.961V86.4195L178.887 95.5055ZM186.353 95.5055H185.261L189.335 86.4195H184.421V85.4115H190.427V86.4195L186.353 95.5055ZM198.536 85.4115V86.3915H193.146V89.9615H197.598V90.9415H193.146V95.5195H192.138V85.4115H198.536ZM202.992 94.6375C204.336 94.6375 205.274 93.6435 205.274 92.6495C205.274 91.6695 204.336 90.7035 202.992 90.7035C201.662 90.7035 200.71 91.6695 200.71 92.6495C200.71 93.6435 201.648 94.6375 202.992 94.6375ZM199.702 92.6215C199.702 91.5855 200.444 90.6895 201.34 90.1715C200.612 89.6815 199.968 88.9115 199.968 88.0015C199.968 86.3915 201.41 85.2295 202.992 85.2295C204.574 85.2295 206.03 86.3915 206.03 88.0015C206.03 88.9115 205.386 89.6815 204.658 90.1715C205.54 90.6895 206.282 91.5855 206.282 92.6215C206.282 94.3715 204.728 95.6455 202.992 95.6455C201.256 95.6455 199.702 94.3715 199.702 92.6215ZM200.976 87.9735C200.976 88.8275 201.802 89.6815 202.992 89.6815C204.196 89.6815 205.022 88.8275 205.022 87.9735C205.022 87.1055 204.196 86.2375 202.992 86.2375C201.802 86.2375 200.976 87.1055 200.976 87.9735Z" fill="white"/>
<rect width="215" height="108" transform="translate(228 0.519531)" fill="#43A047"/>
<path d="M244.32 30.1675C244.592 30.7915 245.184 31.0955 246 31.0795C247.2 31.0315 247.568 29.7835 246.432 29.4475C245.92 29.2875 245.04 29.0475 244.224 28.5195C242.944 27.6875 242.88 26.3915 243.312 25.5115C243.84 24.5035 245.136 24.1355 246 24.2155C246.832 24.2795 247.792 24.5995 248.4 25.4155L247.056 26.3915C246.784 26.0075 246.368 25.8635 245.856 25.8315C245.424 25.7995 244.976 25.9275 244.8 26.2475C244.656 26.5515 244.688 26.8555 245.136 27.1435C245.712 27.5115 246.448 27.7035 247.008 27.8955C249.872 28.8235 249.024 32.6475 246.112 32.7275C244.624 32.7915 243.328 32.0235 242.816 30.8395L244.32 30.1675ZM252.196 28.9195C252.196 30.1355 252.932 30.9995 254.244 30.9995C255.556 30.9995 256.404 29.9595 256.388 28.8395V24.2475H258.052V32.6315H256.388V31.3835C255.812 32.2315 255.092 32.6315 254.036 32.6315C252.228 32.6315 250.532 31.3195 250.532 28.9995V24.2795H252.196V28.9195ZM263.449 31.0315C264.185 31.0315 264.841 30.7435 265.321 30.2635L266.521 31.4155C265.753 32.1995 264.697 32.6955 263.513 32.6955C260.841 32.6955 259.273 30.7115 259.273 28.3115C259.273 25.9115 260.841 23.9275 263.513 23.9275C264.697 23.9275 265.753 24.4235 266.521 25.2075L265.321 26.3435C264.841 25.8795 264.185 25.5915 263.449 25.5915C261.817 25.5915 260.937 26.7915 260.937 28.3115C260.937 29.8315 261.817 31.0315 263.449 31.0315ZM271.065 31.0315C271.801 31.0315 272.457 30.7435 272.937 30.2635L274.137 31.4155C273.369 32.1995 272.313 32.6955 271.129 32.6955C268.457 32.6955 266.889 30.7115 266.889 28.3115C266.889 25.9115 268.457 23.9275 271.129 23.9275C272.313 23.9275 273.369 24.4235 274.137 25.2075L272.937 26.3435C272.457 25.8795 271.801 25.5915 271.065 25.5915C269.433 25.5915 268.553 26.7915 268.553 28.3115C268.553 29.8315 269.433 31.0315 271.065 31.0315ZM281.08 27.7995C280.952 26.6955 280.28 25.7835 278.872 25.7835C277.576 25.7835 276.632 26.4395 276.44 27.7995H281.08ZM274.84 28.4715C274.84 26.1835 276.264 24.2475 278.84 24.2475C281.496 24.2475 282.248 26.3595 282.312 26.5195C282.808 27.8155 282.664 29.2075 282.664 29.2075H276.44C276.696 30.4075 277.544 31.1435 278.856 31.1435C280.472 31.1435 280.84 30.2475 280.904 30.1515L282.36 30.8235C282.36 30.8235 281.64 32.6795 278.84 32.6795C276.264 32.6795 274.84 30.7435 274.84 28.4715ZM285.367 30.1675C285.639 30.7915 286.231 31.0955 287.047 31.0795C288.247 31.0315 288.615 29.7835 287.479 29.4475C286.967 29.2875 286.087 29.0475 285.271 28.5195C283.991 27.6875 283.927 26.3915 284.359 25.5115C284.887 24.5035 286.183 24.1355 287.047 24.2155C287.879 24.2795 288.839 24.5995 289.447 25.4155L288.103 26.3915C287.831 26.0075 287.415 25.8635 286.903 25.8315C286.471 25.7995 286.023 25.9275 285.847 26.2475C285.703 26.5515 285.735 26.8555 286.183 27.1435C286.759 27.5115 287.495 27.7035 288.055 27.8955C290.919 28.8235 290.071 32.6475 287.159 32.7275C285.671 32.7915 284.375 32.0235 283.863 30.8395L285.367 30.1675ZM292.326 30.1675C292.598 30.7915 293.19 31.0955 294.006 31.0795C295.206 31.0315 295.574 29.7835 294.438 29.4475C293.926 29.2875 293.046 29.0475 292.23 28.5195C290.95 27.6875 290.886 26.3915 291.318 25.5115C291.846 24.5035 293.142 24.1355 294.006 24.2155C294.838 24.2795 295.798 24.5995 296.406 25.4155L295.062 26.3915C294.79 26.0075 294.374 25.8635 293.862 25.8315C293.43 25.7995 292.982 25.9275 292.806 26.2475C292.662 26.5515 292.694 26.8555 293.142 27.1435C293.718 27.5115 294.454 27.7035 295.014 27.8955C297.878 28.8235 297.03 32.6475 294.118 32.7275C292.63 32.7915 291.334 32.0235 290.822 30.8395L292.326 30.1675ZM298.49 25.7995H305.466V27.4475H298.49V25.7995ZM311.083 31.0155C312.475 31.0155 313.451 30.1355 313.451 28.8075C313.451 27.5115 312.459 26.5835 311.083 26.5835C309.723 26.5835 308.747 27.5115 308.747 28.8075C308.747 30.1355 309.707 31.0155 311.083 31.0155ZM307.083 28.8075C307.083 28.0235 307.323 27.3035 307.739 26.7115L311.003 20.9035H312.923L310.619 24.9515C310.779 24.9355 310.939 24.9195 311.099 24.9195C313.227 24.9195 315.115 26.6315 315.115 28.8075C315.115 31.0155 313.227 32.6795 311.099 32.6795C308.987 32.6795 307.083 31.0315 307.083 28.8075ZM320.769 30.9995C322.481 30.9995 323.457 29.7195 323.457 26.7435C323.457 23.7515 322.481 22.4715 320.769 22.4715C319.057 22.4715 318.065 23.7515 318.065 26.7435C318.065 29.7195 319.057 30.9995 320.769 30.9995ZM316.401 26.7435C316.401 23.0475 318.129 20.8075 320.769 20.8075C323.377 20.8075 325.121 23.0155 325.121 26.7435C325.121 30.4235 323.409 32.6635 320.769 32.6635C318.129 32.6635 316.401 30.4235 316.401 26.7435ZM330.76 30.9995C332.472 30.9995 333.448 29.7195 333.448 26.7435C333.448 23.7515 332.472 22.4715 330.76 22.4715C329.048 22.4715 328.056 23.7515 328.056 26.7435C328.056 29.7195 329.048 30.9995 330.76 30.9995ZM326.392 26.7435C326.392 23.0475 328.12 20.8075 330.76 20.8075C333.368 20.8075 335.112 23.0155 335.112 26.7435C335.112 30.4235 333.4 32.6635 330.76 32.6635C328.12 32.6635 326.392 30.4235 326.392 26.7435Z" fill="white"/>
<path d="M379.773 85.4115L379.591 87.9595H381.649V88.9395H379.507L379.311 92.0055H381.313V92.9995H379.227L379.045 95.5195H378.023L378.219 92.9995H375.475L375.293 95.5195H374.271L374.453 92.9995H372.465V92.0055H374.537L374.747 88.9395H372.815V87.9595H374.817L374.999 85.4115H376.021L375.839 87.9595H378.583L378.737 85.4115H379.773ZM375.545 92.0055H378.289L378.499 88.9395H375.769L375.545 92.0055ZM388.536 85.4115V91.7815H390.034V92.7615H388.536V95.5195H387.528V92.7615H382.964V91.7815L387.556 85.4115H388.536ZM384.21 91.7815H387.528V87.1755L384.21 91.7815ZM396.302 90.2975C397.128 90.8015 397.828 91.6555 397.828 92.6635C397.828 94.3575 396.288 95.6035 394.566 95.6035C392.858 95.6035 391.318 94.3575 391.318 92.6635H392.326C392.326 93.6155 393.236 94.5815 394.566 94.5815C395.91 94.5815 396.82 93.6295 396.82 92.6775C396.82 91.7255 396.204 90.7875 394.594 90.7875H393.852V89.7795H394.594C395.98 89.7795 396.68 88.9535 396.68 88.0575C396.68 87.2175 395.868 86.3355 394.65 86.3355C393.432 86.3355 392.606 87.2035 392.606 88.0855H391.598C391.598 86.5035 393.054 85.3275 394.65 85.3275C396.26 85.3275 397.688 86.5035 397.688 88.0855C397.688 89.0095 397.058 89.7935 396.302 90.2975ZM404.655 85.4115L408.813 95.5195H407.721L406.531 92.6075H401.631L400.413 95.5195H399.321L403.535 85.4115H404.655ZM402.037 91.6275H406.125L404.095 86.6995L402.037 91.6275ZM413.879 94.6095C415.475 94.6095 416.455 93.2795 416.455 90.4655C416.455 87.6515 415.475 86.3355 413.879 86.3355C412.269 86.3355 411.289 87.6515 411.289 90.4655C411.289 93.2795 412.269 94.6095 413.879 94.6095ZM410.281 90.4655C410.281 87.2315 411.709 85.3275 413.879 85.3275C416.035 85.3275 417.463 87.2315 417.463 90.4655C417.463 93.6995 416.049 95.6175 413.879 95.6175C411.695 95.6175 410.281 93.6995 410.281 90.4655ZM424.317 85.4115V91.7815H425.815V92.7615H424.317V95.5195H423.309V92.7615H418.745V91.7815L423.337 85.4115H424.317ZM419.991 91.7815H423.309V87.1755L419.991 91.7815ZM429.213 95.5055H428.121L432.195 86.4195H427.281V85.4115H433.287V86.4195L429.213 95.5055Z" fill="white"/>
<rect width="216" height="108" transform="translate(455 0.519531)" fill="#E53935"/>
<path d="M473.672 32.6475C471.192 32.6475 469.784 30.7435 469.784 28.5035C469.784 26.2795 471.192 24.3755 473.672 24.3755C474.552 24.3755 475.56 24.8075 476.216 25.8155V20.5195H477.88V32.5195H476.216V31.1915C475.528 32.2795 474.552 32.6475 473.672 32.6475ZM471.448 28.5035C471.448 29.9595 472.296 30.9995 473.816 30.9995C475.064 30.9995 476.216 30.0235 476.216 28.5035C476.216 26.9995 475.064 26.0235 473.816 26.0235C472.296 26.0235 471.448 27.0635 471.448 28.5035ZM483.386 31.0955C484.666 31.0955 485.866 30.1515 485.882 28.5355C485.866 26.9355 484.666 25.9755 483.386 25.9755C481.834 25.9755 480.97 27.0475 480.97 28.5355C480.97 30.0235 481.834 31.0955 483.386 31.0955ZM479.306 28.5355C479.306 26.2635 480.73 24.3275 483.274 24.3275C484.186 24.3275 485.178 24.7915 485.85 25.7835V24.2955H487.514V32.6155L485.85 32.6315V31.3035C485.146 32.3275 484.202 32.7595 483.274 32.7595C480.73 32.7595 479.306 30.8075 479.306 28.5355ZM495.128 27.9915C495.128 26.7275 494.408 25.9275 493.096 25.9275C491.864 25.9275 490.92 26.9675 490.936 28.0875V32.6315H489.272V24.2795H490.936V25.6075C491.496 24.8075 492.232 24.2795 493.288 24.2795C494.92 24.2795 496.792 25.5275 496.792 27.9275V32.6315H495.128V27.9915ZM502.257 31.0635C503.697 31.0635 504.753 30.0075 504.753 28.4875C504.753 26.9835 503.697 25.9275 502.257 25.9275C500.737 25.9275 499.857 26.9515 499.857 28.4875C499.857 30.0395 500.737 31.0635 502.257 31.0635ZM498.193 28.4875C498.193 26.0235 499.745 24.2955 502.161 24.2955C503.121 24.2955 504.177 24.7595 504.753 25.7355V24.2475H506.417V32.1835C506.401 34.8395 504.705 36.2475 502.017 36.2475C500.625 36.2475 499.265 35.6395 498.449 34.3435L499.841 33.4315C500.513 34.3435 501.345 34.5995 502.017 34.5995C503.409 34.5995 504.737 33.9595 504.753 32.3275V31.2235C504.081 32.2155 503.025 32.6955 502.161 32.6955C499.745 32.6955 498.193 30.9835 498.193 28.4875ZM513.908 27.7995C513.78 26.6955 513.108 25.7835 511.7 25.7835C510.404 25.7835 509.46 26.4395 509.268 27.7995H513.908ZM507.668 28.4715C507.668 26.1835 509.092 24.2475 511.668 24.2475C514.324 24.2475 515.076 26.3595 515.14 26.5195C515.636 27.8155 515.492 29.2075 515.492 29.2075H509.268C509.524 30.4075 510.372 31.1435 511.684 31.1435C513.3 31.1435 513.668 30.2475 513.732 30.1515L515.188 30.8235C515.188 30.8235 514.468 32.6795 511.668 32.6795C509.092 32.6795 507.668 30.7435 507.668 28.4715ZM518.547 25.8475C519.075 24.7915 520.355 24.2155 521.219 24.2155V25.8955C519.699 25.8955 518.547 27.2875 518.547 28.4555V32.6315H516.883V24.2635H518.547V25.8475ZM522.656 25.7995H529.632V27.4475H522.656V25.7995ZM535.248 31.0155C536.64 31.0155 537.616 30.1355 537.616 28.8075C537.616 27.5115 536.624 26.5835 535.248 26.5835C533.888 26.5835 532.912 27.5115 532.912 28.8075C532.912 30.1355 533.872 31.0155 535.248 31.0155ZM531.248 28.8075C531.248 28.0235 531.488 27.3035 531.904 26.7115L535.168 20.9035H537.088L534.784 24.9515C534.944 24.9355 535.104 24.9195 535.264 24.9195C537.392 24.9195 539.28 26.6315 539.28 28.8075C539.28 31.0155 537.392 32.6795 535.264 32.6795C533.152 32.6795 531.248 31.0315 531.248 28.8075ZM544.935 30.9995C546.647 30.9995 547.623 29.7195 547.623 26.7435C547.623 23.7515 546.647 22.4715 544.935 22.4715C543.223 22.4715 542.231 23.7515 542.231 26.7435C542.231 29.7195 543.223 30.9995 544.935 30.9995ZM540.567 26.7435C540.567 23.0475 542.295 20.8075 544.935 20.8075C547.543 20.8075 549.287 23.0155 549.287 26.7435C549.287 30.4235 547.575 32.6635 544.935 32.6635C542.295 32.6635 540.567 30.4235 540.567 26.7435ZM554.925 30.9995C556.637 30.9995 557.613 29.7195 557.613 26.7435C557.613 23.7515 556.637 22.4715 554.925 22.4715C553.213 22.4715 552.221 23.7515 552.221 26.7435C552.221 29.7195 553.213 30.9995 554.925 30.9995ZM550.557 26.7435C550.557 23.0475 552.285 20.8075 554.925 20.8075C557.533 20.8075 559.277 23.0155 559.277 26.7435C559.277 30.4235 557.565 32.6635 554.925 32.6635C552.285 32.6635 550.557 30.4235 550.557 26.7435Z" fill="white"/>
<path d="M610.806 85.4115L610.624 87.9595H612.682V88.9395H610.54L610.344 92.0055H612.346V92.9995H610.26L610.078 95.5195H609.056L609.252 92.9995H606.508L606.326 95.5195H605.304L605.486 92.9995H603.498V92.0055H605.57L605.78 88.9395H603.848V87.9595H605.85L606.032 85.4115H607.054L606.872 87.9595H609.616L609.77 85.4115H610.806ZM606.578 92.0055H609.322L609.532 88.9395H606.802L606.578 92.0055ZM620.829 85.4115V86.3915H615.299V89.8215H620.115V90.8015H615.299V94.5395H620.829V95.5195H614.291V85.4115H620.829ZM623.767 90.7455L622.759 90.7175L622.941 85.3975H628.121V86.4055H623.921L623.809 89.4155C624.313 89.1215 624.901 88.9535 625.517 88.9535C627.351 88.9535 628.849 90.4935 628.849 92.2715C628.849 94.2035 627.337 95.6595 625.517 95.6595C623.949 95.6595 622.619 94.5815 622.283 93.1255L623.263 92.9015C623.501 93.9655 624.369 94.6515 625.517 94.6515C626.861 94.6515 627.841 93.7135 627.841 92.2715C627.841 90.9695 626.861 89.9615 625.517 89.9615C624.789 89.9615 624.201 90.2415 623.767 90.7455ZM635.128 90.2975C635.954 90.8015 636.654 91.6555 636.654 92.6635C636.654 94.3575 635.114 95.6035 633.392 95.6035C631.684 95.6035 630.144 94.3575 630.144 92.6635H631.152C631.152 93.6155 632.062 94.5815 633.392 94.5815C634.736 94.5815 635.646 93.6295 635.646 92.6775C635.646 91.7255 635.03 90.7875 633.42 90.7875H632.678V89.7795H633.42C634.806 89.7795 635.506 88.9535 635.506 88.0575C635.506 87.2175 634.694 86.3355 633.476 86.3355C632.258 86.3355 631.432 87.2035 631.432 88.0855H630.424C630.424 86.5035 631.88 85.3275 633.476 85.3275C635.086 85.3275 636.514 86.5035 636.514 88.0855C636.514 89.0095 635.884 89.7935 635.128 90.2975ZM641.27 91.9775C639.436 91.9775 637.938 90.4655 637.938 88.6175C637.938 86.7835 639.436 85.2855 641.27 85.2855C643.104 85.2855 644.602 86.7835 644.602 88.6175C644.602 89.2895 644.406 89.9055 644.07 90.4375L641.158 95.5195H639.982L642.082 91.8795C641.83 91.9355 641.55 91.9775 641.27 91.9775ZM638.946 88.6175C638.946 89.9615 639.954 90.9695 641.298 90.9695C642.628 90.9695 643.594 89.9615 643.594 88.6175C643.594 87.2875 642.628 86.2935 641.298 86.2935C639.954 86.2935 638.946 87.2875 638.946 88.6175ZM650.879 90.2975C651.705 90.8015 652.405 91.6555 652.405 92.6635C652.405 94.3575 650.865 95.6035 649.143 95.6035C647.435 95.6035 645.895 94.3575 645.895 92.6635H646.903C646.903 93.6155 647.813 94.5815 649.143 94.5815C650.487 94.5815 651.397 93.6295 651.397 92.6775C651.397 91.7255 650.781 90.7875 649.171 90.7875H648.429V89.7795H649.171C650.557 89.7795 651.257 88.9535 651.257 88.0575C651.257 87.2175 650.445 86.3355 649.227 86.3355C648.009 86.3355 647.183 87.2035 647.183 88.0855H646.175C646.175 86.5035 647.631 85.3275 649.227 85.3275C650.837 85.3275 652.265 86.5035 652.265 88.0855C652.265 89.0095 651.635 89.7935 650.879 90.2975ZM655.187 90.7455L654.179 90.7175L654.361 85.3975H659.541V86.4055H655.341L655.229 89.4155C655.733 89.1215 656.321 88.9535 656.937 88.9535C658.771 88.9535 660.269 90.4935 660.269 92.2715C660.269 94.2035 658.757 95.6595 656.937 95.6595C655.369 95.6595 654.039 94.5815 653.703 93.1255L654.683 92.9015C654.921 93.9655 655.789 94.6515 656.937 94.6515C658.281 94.6515 659.261 93.7135 659.261 92.2715C659.261 90.9695 658.281 89.9615 656.937 89.9615C656.209 89.9615 655.621 90.2415 655.187 90.7455Z" fill="white"/>
<rect width="215" height="108" transform="translate(683 0.519531)" fill="#323DA3"/>
<path d="M702.168 30.9995C703.688 30.9995 704.536 29.9595 704.536 28.5035C704.536 27.0635 703.688 26.0075 702.168 26.0075C700.904 26.0075 699.768 26.9995 699.768 28.5035C699.768 30.0235 700.904 30.9995 702.168 30.9995ZM698.104 32.5195V20.5195H699.768V25.7995C700.472 24.7435 701.496 24.3755 702.296 24.3755C704.808 24.3755 706.2 26.2795 706.2 28.5035C706.2 30.7435 704.792 32.6475 702.28 32.6475C701.496 32.6475 700.504 32.3755 699.768 31.2075V32.5195H698.104ZM709.194 25.8475C709.722 24.7915 711.002 24.2155 711.866 24.2155V25.8955C710.346 25.8955 709.194 27.2875 709.194 28.4555V32.6315H707.53V24.2635H709.194V25.8475ZM716.486 31.0955C717.766 31.0955 718.966 30.1515 718.982 28.5355C718.966 26.9355 717.766 25.9755 716.486 25.9755C714.934 25.9755 714.07 27.0475 714.07 28.5355C714.07 30.0235 714.934 31.0955 716.486 31.0955ZM712.406 28.5355C712.406 26.2635 713.83 24.3275 716.374 24.3275C717.286 24.3275 718.278 24.7915 718.95 25.7835V24.2955H720.614V32.6155L718.95 32.6315V31.3035C718.246 32.3275 717.302 32.7595 716.374 32.7595C713.83 32.7595 712.406 30.8075 712.406 28.5355ZM728.228 27.9915C728.228 26.7275 727.508 25.9275 726.196 25.9275C724.964 25.9275 724.02 26.9675 724.036 28.0875V32.6315H722.372V24.2795H724.036V25.6075C724.596 24.8075 725.332 24.2795 726.388 24.2795C728.02 24.2795 729.892 25.5275 729.892 27.9275V32.6315H728.228V27.9915ZM735.181 32.6475C732.701 32.6475 731.293 30.7435 731.293 28.5035C731.293 26.2795 732.701 24.3755 735.181 24.3755C736.061 24.3755 737.069 24.8075 737.725 25.8155V20.5195H739.389V32.5195H737.725V31.1915C737.037 32.2795 736.061 32.6475 735.181 32.6475ZM732.957 28.5035C732.957 29.9595 733.805 30.9995 735.325 30.9995C736.573 30.9995 737.725 30.0235 737.725 28.5035C737.725 26.9995 736.573 26.0235 735.325 26.0235C733.805 26.0235 732.957 27.0635 732.957 28.5035ZM742.968 29.5595C743.448 30.6635 744.424 31.2555 745.832 31.2075C748.008 31.1435 748.696 28.4555 746.536 27.8475C745.784 27.5595 744.472 27.2075 743.336 26.4235C741.704 25.3195 741.576 23.6075 742.152 22.3915C742.824 20.9835 744.6 20.5195 745.704 20.6155C746.696 20.6795 748.072 21.0795 748.904 22.2955L747.528 23.2395C747.064 22.5515 746.344 22.3435 745.576 22.2795C744.888 22.2315 743.992 22.4395 743.656 23.0955C743.4 23.7355 743.352 24.4075 744.264 25.0475C745.176 25.6715 746.28 25.9755 747.08 26.2635C750.984 27.4955 749.88 32.7595 745.88 32.8715C743.928 32.9515 742.152 31.9275 741.432 30.2155L742.968 29.5595ZM752.836 28.9195C752.836 30.1355 753.572 30.9995 754.884 30.9995C756.196 30.9995 757.044 29.9595 757.028 28.8395V24.2475H758.692V32.6315H757.028V31.3835C756.452 32.2315 755.732 32.6315 754.676 32.6315C752.868 32.6315 751.172 31.3195 751.172 28.9995V24.2795H752.836V28.9195ZM764.634 30.9995C766.154 30.9995 767.002 29.9595 767.002 28.5035C767.002 27.0635 766.154 26.0075 764.634 26.0075C763.37 26.0075 762.234 26.9995 762.234 28.5035C762.234 30.0235 763.37 30.9995 764.634 30.9995ZM760.57 32.5195V20.5195H762.234V25.7995C762.938 24.7435 763.962 24.3755 764.762 24.3755C767.274 24.3755 768.666 26.2795 768.666 28.5035C768.666 30.7435 767.258 32.6475 764.746 32.6475C763.962 32.6475 762.97 32.3755 762.234 31.2075V32.5195H760.57Z" fill="white"/>
<path d="M836.771 85.4115L836.589 87.9595H838.647V88.9395H836.505L836.309 92.0055H838.311V92.9995H836.225L836.043 95.5195H835.021L835.217 92.9995H832.473L832.291 95.5195H831.269L831.451 92.9995H829.463V92.0055H831.535L831.745 88.9395H829.813V87.9595H831.815L831.997 85.4115H833.019L832.837 87.9595H835.581L835.735 85.4115H836.771ZM832.543 92.0055H835.287L835.497 88.9395H832.767L832.543 92.0055ZM844.946 90.2975C845.772 90.8015 846.472 91.6555 846.472 92.6635C846.472 94.3575 844.932 95.6035 843.21 95.6035C841.502 95.6035 839.962 94.3575 839.962 92.6635H840.97C840.97 93.6155 841.88 94.5815 843.21 94.5815C844.554 94.5815 845.464 93.6295 845.464 92.6775C845.464 91.7255 844.848 90.7875 843.238 90.7875H842.496V89.7795H843.238C844.624 89.7795 845.324 88.9535 845.324 88.0575C845.324 87.2175 844.512 86.3355 843.294 86.3355C842.076 86.3355 841.25 87.2035 841.25 88.0855H840.242C840.242 86.5035 841.698 85.3275 843.294 85.3275C844.904 85.3275 846.332 86.5035 846.332 88.0855C846.332 89.0095 845.702 89.7935 844.946 90.2975ZM847.811 94.5255C849.813 92.5795 852.851 90.2415 852.851 88.4075C852.851 87.0075 851.927 86.2935 850.835 86.2935C850.065 86.2935 849.211 86.5595 848.693 87.7495L847.769 87.3575C848.497 85.7055 849.869 85.2855 850.835 85.2855C852.333 85.2855 853.859 86.4335 853.859 88.4075C853.859 90.4935 851.255 92.7195 849.295 94.5255H854.027V95.5335H847.811V94.5255ZM860.287 90.2975C861.113 90.8015 861.813 91.6555 861.813 92.6635C861.813 94.3575 860.273 95.6035 858.551 95.6035C856.843 95.6035 855.303 94.3575 855.303 92.6635H856.311C856.311 93.6155 857.221 94.5815 858.551 94.5815C859.895 94.5815 860.805 93.6295 860.805 92.6775C860.805 91.7255 860.189 90.7875 858.579 90.7875H857.837V89.7795H858.579C859.965 89.7795 860.665 88.9535 860.665 88.0575C860.665 87.2175 859.853 86.3355 858.635 86.3355C857.417 86.3355 856.591 87.2035 856.591 88.0855H855.583C855.583 86.5035 857.039 85.3275 858.635 85.3275C860.245 85.3275 861.673 86.5035 861.673 88.0855C861.673 89.0095 861.043 89.7935 860.287 90.2975ZM866.33 94.5395C868.542 94.5395 870.39 92.6915 870.39 90.4655C870.39 88.2395 868.542 86.3915 866.33 86.3915H864.566V94.5395H866.33ZM863.558 95.5195V85.4115H866.33C869.102 85.4115 871.37 87.6795 871.37 90.4655C871.37 93.2515 869.102 95.5195 866.33 95.5195H863.558ZM877.131 85.4115L881.289 95.5195H880.197L879.007 92.6075H874.107L872.889 95.5195H871.797L876.011 85.4115H877.131ZM874.513 91.6275H878.601L876.571 86.6995L874.513 91.6275ZM887.755 90.2975C888.581 90.8015 889.281 91.6555 889.281 92.6635C889.281 94.3575 887.741 95.6035 886.019 95.6035C884.311 95.6035 882.771 94.3575 882.771 92.6635H883.779C883.779 93.6155 884.689 94.5815 886.019 94.5815C887.363 94.5815 888.273 93.6295 888.273 92.6775C888.273 91.7255 887.657 90.7875 886.047 90.7875H885.305V89.7795H886.047C887.433 89.7795 888.133 88.9535 888.133 88.0575C888.133 87.2175 887.321 86.3355 886.103 86.3355C884.885 86.3355 884.059 87.2035 884.059 88.0855H883.051C883.051 86.5035 884.507 85.3275 886.103 85.3275C887.713 85.3275 889.141 86.5035 889.141 88.0855C889.141 89.0095 888.511 89.7935 887.755 90.2975Z" fill="white"/>
<path d="M6.314 129.16H7.35V129.566C7.35 131.148 9.45 132.38 11.564 132.674L11.158 133.5C9.352 133.22 7.574 132.324 6.818 130.98C6.062 132.324 4.298 133.22 2.478 133.5L2.086 132.674C4.2 132.38 6.314 131.148 6.314 129.566V129.16ZM1.134 127.816V122.132H2.128V124.092H4.858V122.132H5.852V127.816H1.134ZM2.128 126.962H4.858V124.918H2.128V126.962ZM7.238 128.544V121.544H8.232V124.498H9.884V121.306H10.892V129.622H9.884V125.366H8.232V128.544H7.238ZM13.0243 122.552H19.8703V123.434H16.9583V125.086C16.9583 127.172 18.4983 129.272 20.2623 130.042L19.6603 130.882C18.2603 130.224 17.0143 128.796 16.4403 127.102C15.8803 128.908 14.6483 130.476 13.2483 131.176L12.6463 130.35C14.3683 129.51 15.9083 127.2 15.9083 125.086V123.434H13.0243V122.552ZM21.5783 133.542V121.292H22.6283V133.542H21.5783ZM26.3007 131.456L25.5307 134.046H24.7887L25.2087 131.456H26.3007ZM37.9973 124.498H40.4893V121.292H41.5393V128.586H40.4893V125.366H37.9973V124.498ZM31.5433 127.634C33.3353 126.976 34.6373 125.324 34.6373 123.546V123.07H31.8653V122.202H38.4033V123.07H35.6873V123.546C35.6873 125.142 36.9193 126.668 38.6833 127.284L38.1373 128.124C36.7653 127.62 35.7013 126.584 35.1833 125.31C34.6653 126.766 33.5173 127.914 32.0753 128.474L31.5433 127.634ZM33.4473 131.26C33.4473 129.832 34.9873 128.978 37.5213 128.978C40.0413 128.978 41.5813 129.832 41.5813 131.26C41.5813 132.702 40.0413 133.528 37.5213 133.528C34.9873 133.528 33.4473 132.702 33.4473 131.26ZM34.4973 131.26C34.4973 132.156 35.6453 132.702 37.5213 132.702C39.3833 132.702 40.5453 132.156 40.5453 131.26C40.5453 130.35 39.3833 129.804 37.5213 129.804C35.6453 129.804 34.4973 130.35 34.4973 131.26ZM43.5737 131.078H48.5857V128.404H44.9037V122.16H45.9397V124.372H52.2957V122.16H53.3317V128.404H49.6217V131.078H54.6757V131.96H43.5737V131.078ZM45.9397 127.55H52.2957V125.24H45.9397V127.55ZM58.7506 127.158H69.8106V128.026H58.7506V127.158ZM60.0806 131.316C60.0806 129.916 61.6486 129.118 64.2666 129.118C66.8706 129.118 68.4526 129.916 68.4526 131.316C68.4526 132.73 66.8706 133.528 64.2666 133.528C61.6486 133.528 60.0806 132.73 60.0806 131.316ZM60.1506 125.954V121.796H68.4246V122.678H61.1866V125.1H68.5086V125.954H60.1506ZM61.1306 131.316C61.1306 132.198 62.3206 132.688 64.2666 132.688C66.2126 132.688 67.3886 132.198 67.3886 131.316C67.3886 130.462 66.2126 129.944 64.2666 129.944C62.3206 129.944 61.1306 130.462 61.1306 131.316ZM82.8595 121.306H83.9095V130.266H82.8595V121.306ZM74.0395 127.662C75.8595 126.948 77.1195 125.156 77.1195 123.224V121.964H78.1695V123.224C78.1695 125.086 79.4435 126.766 81.2495 127.438L80.6895 128.278C79.2895 127.732 78.1975 126.598 77.6655 125.184C77.1475 126.696 76.0415 127.914 74.5995 128.502L74.0395 127.662ZM76.0835 133.262V129.454H77.1335V132.394H84.3015V133.262H76.0835ZM86.9098 122.44H93.0418V125.632H87.9738V127.228H93.3778V128.068H90.5638V130.154C91.7538 130.112 92.9438 130.028 94.0638 129.888L94.1478 130.672C91.4598 131.092 88.5198 131.134 86.1818 131.134L86.0418 130.238C87.1058 130.238 88.2958 130.224 89.5138 130.196V128.068H86.9518V124.82H92.0058V123.28H86.9098V122.44ZM94.8758 133.556V121.278H95.9258V133.556H94.8758ZM103.739 122.034H104.747V123.7C104.747 125.086 105.685 126.5 107.253 127.13L106.693 127.942C105.531 127.452 104.691 126.542 104.257 125.45C103.809 126.64 102.941 127.704 101.737 128.25L101.163 127.424C102.759 126.71 103.739 125.086 103.739 123.7V122.034ZM103.249 130.252V129.398H111.453V133.542H110.403V130.252H103.249ZM107.813 128.628V121.516H108.807V124.512H110.445V121.306H111.453V128.698H110.445V125.38H108.807V128.628H107.813ZM116.259 121.922H117.281V123.266C117.281 124.946 118.555 126.486 120.291 127.102L119.745 127.914C118.401 127.424 117.323 126.388 116.805 125.086C116.287 126.556 115.195 127.69 113.767 128.264L113.193 127.424C115.027 126.752 116.259 125.086 116.259 123.196V121.922ZM114.831 131.302C114.831 129.902 116.343 129.09 118.835 129.09C121.341 129.09 122.853 129.902 122.853 131.302C122.853 132.702 121.341 133.514 118.835 133.514C116.343 133.514 114.831 132.702 114.831 131.302ZM115.853 131.302C115.853 132.17 117.001 132.688 118.835 132.688C120.683 132.688 121.817 132.17 121.817 131.302C121.817 130.434 120.683 129.916 118.835 129.916C117.001 129.916 115.853 130.434 115.853 131.302ZM121.677 128.754V121.292H122.727V124.498H124.561V125.38H122.727V128.754H121.677Z" fill="#333333"/>
<path d="M232.828 121.866C234.592 121.866 235.838 122.818 235.838 124.274C235.838 125.562 234.844 126.458 233.388 126.64V127.872C234.536 127.816 235.684 127.718 236.748 127.55L236.832 128.32C234.27 128.796 231.358 128.824 229.244 128.824L229.104 127.956C230.056 127.956 231.176 127.956 232.338 127.914V126.64C230.84 126.486 229.818 125.576 229.818 124.274C229.818 122.818 231.064 121.866 232.828 121.866ZM230.812 124.274C230.812 125.226 231.624 125.87 232.828 125.87C234.032 125.87 234.858 125.226 234.858 124.274C234.858 123.336 234.032 122.678 232.828 122.678C231.624 122.678 230.812 123.336 230.812 124.274ZM230.896 133.248V129.874H231.946V132.38H239.016V133.248H230.896ZM237.532 130.672V121.306H238.582V125.464H240.416V126.346H238.582V130.672H237.532ZM241.204 131.134H244.34V128.768H242.604V125.016H249.884V123.056H242.576V122.202H250.92V125.856H243.64V127.9H251.2V128.768H249.282V131.134H252.306V132.002H241.204V131.134ZM245.376 131.134H248.26V128.768H245.376V131.134ZM257.025 122.09H262.695V127.074H257.025V122.09ZM257.907 132.688C259.979 132.436 262.009 131.26 262.009 130.014H258.397V129.188H262.009V127.984H263.073V129.188H266.685V130.014H263.073C263.073 131.232 265.061 132.422 267.105 132.688L266.755 133.5C264.935 133.248 263.255 132.366 262.541 131.218C261.799 132.38 260.091 133.248 258.271 133.5L257.907 132.688ZM258.033 126.234H261.687V122.93H258.033V126.234ZM265.341 128.334V121.292H266.391V128.334H265.341ZM274.638 121.992H275.674V123.224C275.674 124.974 276.92 126.514 278.684 127.13L278.11 127.956C276.766 127.452 275.716 126.444 275.184 125.142C274.666 126.626 273.546 127.76 272.076 128.32L271.53 127.466C273.364 126.794 274.638 125.17 274.638 123.266V121.992ZM273.476 131.218C273.476 129.762 275.03 128.908 277.564 128.908C280.084 128.908 281.624 129.762 281.624 131.218C281.624 132.688 280.084 133.514 277.564 133.514C275.03 133.514 273.476 132.688 273.476 131.218ZM274.54 131.218C274.54 132.128 275.674 132.688 277.564 132.688C279.426 132.688 280.588 132.128 280.588 131.218C280.588 130.294 279.426 129.748 277.564 129.748C275.674 129.748 274.54 130.294 274.54 131.218ZM277.802 124.806V123.924H280.518V121.292H281.568V128.544H280.518V124.806H277.802ZM289.104 129.048C291.708 129.048 293.374 129.888 293.374 131.288C293.374 132.688 291.708 133.528 289.104 133.528C286.514 133.528 284.862 132.688 284.862 131.288C284.862 129.888 286.514 129.048 289.104 129.048ZM283.63 127.886V127.032H288.222V124.652H289.258V127.032H294.676V127.886H283.63ZM284.946 122.79V121.922H293.262V122.972C293.262 123.966 293.262 124.946 292.926 126.206L291.904 126.094C292.226 124.834 292.226 123.924 292.226 122.972V122.79H284.946ZM285.898 131.288C285.898 132.156 287.158 132.702 289.104 132.702C291.064 132.702 292.324 132.156 292.324 131.288C292.324 130.406 291.064 129.86 289.104 129.86C287.158 129.86 285.898 130.406 285.898 131.288ZM301.369 122.034H302.377V123.7C302.377 125.086 303.315 126.5 304.883 127.13L304.323 127.942C303.161 127.452 302.321 126.542 301.887 125.45C301.439 126.64 300.571 127.704 299.367 128.25L298.793 127.424C300.389 126.71 301.369 125.086 301.369 123.7V122.034ZM300.879 130.252V129.398H309.083V133.542H308.033V130.252H300.879ZM305.443 128.628V121.516H306.437V124.512H308.075V121.306H309.083V128.698H308.075V125.38H306.437V128.628H305.443ZM313.89 121.922H314.912V123.266C314.912 124.946 316.186 126.486 317.922 127.102L317.376 127.914C316.032 127.424 314.954 126.388 314.436 125.086C313.918 126.556 312.826 127.69 311.398 128.264L310.824 127.424C312.658 126.752 313.89 125.086 313.89 123.196V121.922ZM312.462 131.302C312.462 129.902 313.974 129.09 316.466 129.09C318.972 129.09 320.484 129.902 320.484 131.302C320.484 132.702 318.972 133.514 316.466 133.514C313.974 133.514 312.462 132.702 312.462 131.302ZM313.484 131.302C313.484 132.17 314.632 132.688 316.466 132.688C318.314 132.688 319.448 132.17 319.448 131.302C319.448 130.434 318.314 129.916 316.466 129.916C314.632 129.916 313.484 130.434 313.484 131.302ZM319.308 128.754V121.292H320.358V124.498H322.192V125.38H320.358V128.754H319.308Z" fill="#333333"/>
<path d="M457.676 128.306H468.75V129.174H463.71V133.542H462.674V129.174H457.676V128.306ZM458.348 126.388C460.434 126.08 462.632 124.68 462.632 123.028V122.93H458.726V122.076H467.672V122.93H463.794V123.028C463.794 124.68 465.992 126.08 468.078 126.388L467.672 127.242C465.81 126.92 463.948 125.884 463.22 124.4C462.478 125.884 460.616 126.92 458.754 127.242L458.348 126.388ZM473.724 122.188C475.628 122.188 476.986 123.364 476.986 125.058C476.986 126.766 475.628 127.928 473.724 127.928C471.806 127.928 470.448 126.766 470.448 125.058C470.448 123.364 471.806 122.188 473.724 122.188ZM469.818 129.958C472.058 129.958 475.166 129.958 477.84 129.538L477.924 130.308C475.166 130.84 472.156 130.854 469.958 130.854L469.818 129.958ZM471.47 125.058C471.47 126.206 472.422 127.018 473.724 127.018C475.012 127.018 475.964 126.206 475.964 125.058C475.964 123.896 475.012 123.098 473.724 123.098C472.422 123.098 471.47 123.896 471.47 125.058ZM478.652 133.556V121.278H479.702V133.556H478.652ZM485.583 122.09H491.253V127.074H485.583V122.09ZM486.465 132.688C488.537 132.436 490.567 131.26 490.567 130.014H486.955V129.188H490.567V127.984H491.631V129.188H495.243V130.014H491.631C491.631 131.232 493.619 132.422 495.663 132.688L495.313 133.5C493.493 133.248 491.813 132.366 491.099 131.218C490.357 132.38 488.649 133.248 486.829 133.5L486.465 132.688ZM486.591 126.234H490.245V122.93H486.591V126.234ZM493.899 128.334V121.292H494.949V128.334H493.899ZM509.468 121.292H510.476V133.542H509.468V121.292ZM500.242 126.57C500.242 123.966 501.264 122.328 502.832 122.328C504.33 122.328 505.31 123.756 505.436 126.08H507.046V121.572H508.04V132.912H507.046V126.948H505.436C505.352 129.342 504.344 130.826 502.832 130.826C501.264 130.826 500.242 129.188 500.242 126.57ZM501.208 126.57C501.208 128.572 501.838 129.846 502.832 129.846C503.854 129.846 504.484 128.572 504.484 126.57C504.484 124.568 503.854 123.308 502.832 123.308C501.838 123.308 501.208 124.568 501.208 126.57ZM521.176 121.278H522.212V133.556H521.176V126.892H518.796V126.024H521.176V121.278ZM512.594 123.308V122.454H518.054V126.696H513.658V129.72C515.786 129.72 517.298 129.65 519.076 129.328L519.174 130.196C517.34 130.532 515.772 130.602 513.56 130.602H512.622V125.842H517.032V123.308H512.594ZM529.927 122.034H530.935V123.7C530.935 125.086 531.873 126.5 533.441 127.13L532.881 127.942C531.719 127.452 530.879 126.542 530.445 125.45C529.997 126.64 529.129 127.704 527.925 128.25L527.351 127.424C528.947 126.71 529.927 125.086 529.927 123.7V122.034ZM529.437 130.252V129.398H537.641V133.542H536.591V130.252H529.437ZM534.001 128.628V121.516H534.995V124.512H536.633V121.306H537.641V128.698H536.633V125.38H534.995V128.628H534.001ZM542.448 121.922H543.47V123.266C543.47 124.946 544.744 126.486 546.48 127.102L545.934 127.914C544.59 127.424 543.512 126.388 542.994 125.086C542.476 126.556 541.384 127.69 539.956 128.264L539.382 127.424C541.216 126.752 542.448 125.086 542.448 123.196V121.922ZM541.02 131.302C541.02 129.902 542.532 129.09 545.024 129.09C547.53 129.09 549.042 129.902 549.042 131.302C549.042 132.702 547.53 133.514 545.024 133.514C542.532 133.514 541.02 132.702 541.02 131.302ZM542.042 131.302C542.042 132.17 543.19 132.688 545.024 132.688C546.872 132.688 548.006 132.17 548.006 131.302C548.006 130.434 546.872 129.916 545.024 129.916C543.19 129.916 542.042 130.434 542.042 131.302ZM547.866 128.754V121.292H548.916V124.498H550.75V125.38H548.916V128.754H547.866Z" fill="#333333"/>
<path d="M686.234 131.008H697.336V131.89H686.234V131.008ZM687.564 128.53V122.174H688.6V124.456H694.956V122.174H695.992V128.53H687.564ZM688.6 127.676H694.956V125.31H688.6V127.676ZM707.63 121.292H708.638V130.406H707.63V125.842H705.908V130.056H704.914V121.516H705.908V124.974H707.63V121.292ZM698.866 123.21V122.356H703.472V125.814H699.902V127.704C701.512 127.704 702.744 127.634 704.2 127.34L704.312 128.194C702.73 128.502 701.442 128.572 699.678 128.572H698.894V125.016H702.45V123.21H698.866ZM700.672 133.262V129.594H701.722V132.394H709.002V133.262H700.672ZM711.835 122.426H720.081V123.294H712.871V127.186H720.221V128.04H711.835V122.426ZM710.407 131.848V130.98H721.509V131.848H710.407ZM728.159 122.034H729.167V123.7C729.167 125.086 730.105 126.5 731.673 127.13L731.113 127.942C729.951 127.452 729.111 126.542 728.677 125.45C728.229 126.64 727.361 127.704 726.157 128.25L725.583 127.424C727.179 126.71 728.159 125.086 728.159 123.7V122.034ZM727.669 130.252V129.398H735.873V133.542H734.823V130.252H727.669ZM732.233 128.628V121.516H733.227V124.512H734.865V121.306H735.873V128.698H734.865V125.38H733.227V128.628H732.233ZM740.68 121.922H741.702V123.266C741.702 124.946 742.976 126.486 744.712 127.102L744.166 127.914C742.822 127.424 741.744 126.388 741.226 125.086C740.708 126.556 739.616 127.69 738.188 128.264L737.614 127.424C739.448 126.752 740.68 125.086 740.68 123.196V121.922ZM739.252 131.302C739.252 129.902 740.764 129.09 743.256 129.09C745.762 129.09 747.274 129.902 747.274 131.302C747.274 132.702 745.762 133.514 743.256 133.514C740.764 133.514 739.252 132.702 739.252 131.302ZM740.274 131.302C740.274 132.17 741.422 132.688 743.256 132.688C745.104 132.688 746.238 132.17 746.238 131.302C746.238 130.434 745.104 129.916 743.256 129.916C741.422 129.916 740.274 130.434 740.274 131.302ZM746.098 128.754V121.292H747.148V124.498H748.982V125.38H747.148V128.754H746.098ZM756.781 122.09C758.685 122.09 760.043 123.266 760.043 124.96C760.043 126.514 758.923 127.606 757.299 127.802V129.902C758.503 129.846 759.749 129.748 760.897 129.566L760.981 130.336C758.223 130.854 755.213 130.868 753.015 130.868L752.875 129.986C753.869 129.986 755.017 129.986 756.235 129.944V127.802C754.611 127.592 753.505 126.5 753.505 124.96C753.505 123.266 754.863 122.09 756.781 122.09ZM754.527 124.96C754.527 126.122 755.479 126.92 756.781 126.92C758.069 126.92 759.021 126.122 759.021 124.96C759.021 123.798 758.069 123 756.781 123C755.479 123 754.527 123.798 754.527 124.96ZM761.709 133.556V121.278H762.759V133.556H761.709ZM776.424 121.292H777.474V124.498H779.308V125.38H777.474V128.642H776.424V121.292ZM768.01 127.802C770.964 126.934 772.826 125.226 773.036 123.07H768.542V122.202H774.17C774.17 125.324 771.986 127.606 768.458 128.656L768.01 127.802ZM769.676 131.162C769.676 129.692 771.216 128.796 773.652 128.796C776.074 128.796 777.614 129.692 777.614 131.162C777.614 132.632 776.074 133.514 773.652 133.514C771.216 133.514 769.676 132.632 769.676 131.162ZM770.712 131.162C770.712 132.086 771.874 132.674 773.652 132.674C775.444 132.674 776.592 132.086 776.592 131.162C776.592 130.21 775.444 129.636 773.652 129.636C771.874 129.636 770.712 130.21 770.712 131.162ZM780.068 131.064H785.094V128.082H786.144V131.064H791.17V131.946H780.068V131.064ZM780.628 127.662C782.658 127.312 785.066 125.59 785.066 123.616V123.294H780.992V122.426H790.232V123.294H786.158V123.616C786.158 125.59 788.594 127.284 790.652 127.62L790.218 128.446C788.384 128.082 786.41 126.878 785.626 125.198C784.828 126.892 782.868 128.11 781.062 128.488L780.628 127.662ZM797.821 122.034H798.829V123.7C798.829 125.086 799.767 126.5 801.335 127.13L800.775 127.942C799.613 127.452 798.773 126.542 798.339 125.45C797.891 126.64 797.023 127.704 795.819 128.25L795.245 127.424C796.841 126.71 797.821 125.086 797.821 123.7V122.034ZM797.331 130.252V129.398H805.535V133.542H804.485V130.252H797.331ZM801.895 128.628V121.516H802.889V124.512H804.527V121.306H805.535V128.698H804.527V125.38H802.889V128.628H801.895ZM810.341 121.922H811.363V123.266C811.363 124.946 812.637 126.486 814.373 127.102L813.827 127.914C812.483 127.424 811.405 126.388 810.887 125.086C810.369 126.556 809.277 127.69 807.849 128.264L807.275 127.424C809.109 126.752 810.341 125.086 810.341 123.196V121.922ZM808.913 131.302C808.913 129.902 810.425 129.09 812.917 129.09C815.423 129.09 816.935 129.902 816.935 131.302C816.935 132.702 815.423 133.514 812.917 133.514C810.425 133.514 808.913 132.702 808.913 131.302ZM809.935 131.302C809.935 132.17 811.083 132.688 812.917 132.688C814.765 132.688 815.899 132.17 815.899 131.302C815.899 130.434 814.765 129.916 812.917 129.916C811.083 129.916 809.935 130.434 809.935 131.302ZM815.759 128.754V121.292H816.809V124.498H818.643V125.38H816.809V128.754H815.759Z" fill="#333333"/>
</svg>
