<svg width="700" height="140" viewBox="0 0 700 140" fill="none" xmlns="http://www.w3.org/2000/svg">
<path d="M41.9493 13.9108C42.3865 14.8777 43.3005 15.4473 44.5191 15.4208C46.5856 15.3546 47.1419 12.7053 45.1682 12.1755C44.5324 11.937 43.4859 11.6456 42.5719 11.023C41.2473 10.109 41.2605 8.77116 41.6579 7.92339C42.1878 6.8107 43.6051 6.49278 44.3999 6.55902C45.1815 6.612 46.2412 6.92991 46.8902 7.87041L46.0955 8.40026C45.6583 7.77768 44.9828 7.56574 44.3204 7.51276C43.7244 7.48626 42.8633 7.67171 42.5322 8.32079C42.2673 8.93012 42.2673 9.63218 43.1018 10.2283C43.8833 10.7714 44.8238 11.0363 45.4861 11.2747C48.4798 12.1887 47.632 16.2819 44.5456 16.3746C43.0223 16.4276 41.6314 15.6195 41.0751 14.2817L41.9493 13.9108ZM51.6011 15.4341C52.8198 15.4341 53.8662 14.3479 53.8662 12.9305C53.8662 11.5397 52.8198 10.4535 51.6011 10.4535C50.144 10.4535 49.3227 11.5397 49.3227 12.9305C49.3227 14.3479 50.144 15.4341 51.6011 15.4341ZM48.369 12.9305C48.369 11.1025 49.5214 9.52621 51.5879 9.52621C52.4091 9.52621 53.4423 9.98983 53.8795 10.9436V9.51296H54.8332V19.302H53.8795V14.9307C53.4423 15.7917 52.4356 16.3613 51.5879 16.3613C49.5214 16.3613 48.369 14.785 48.369 12.9305ZM57.2376 13.4869C57.2376 14.5068 57.8735 15.3281 58.9862 15.3281C60.2446 15.3281 60.9864 14.2684 60.9864 13.3677V9.45997H61.9401V16.2554H60.9864V15.1162C60.4963 15.8447 59.9532 16.2554 58.9464 16.2554C57.3834 16.2554 56.2839 15.0632 56.2839 13.5928V9.51296H57.2376V13.4869ZM66.3452 15.3944C67.5373 15.3944 68.6103 14.4274 68.6235 12.9438C68.6103 11.4734 67.5373 10.4932 66.3452 10.4932C64.8748 10.4932 64.08 11.5529 64.08 12.9438C64.08 14.3346 64.8748 15.3944 66.3452 15.3944ZM63.1263 12.9438C63.1263 11.1025 64.2787 9.5527 66.3319 9.5527C67.1134 9.5527 67.9877 9.96334 68.597 10.9436V9.51296H69.5508V16.2554H68.597V14.9307C67.9612 15.964 67.1267 16.3481 66.3319 16.3481C64.2787 16.3481 63.1263 14.7718 63.1263 12.9438ZM71.6312 10.9303C72.0153 10.0428 73.1148 9.44673 74.0288 9.44673V10.427C72.7969 10.427 71.6312 11.7119 71.6312 12.7848V16.2554H70.6774V9.51296H71.6312V10.9303ZM79.597 12.4139C79.4911 11.4602 79.0274 10.4402 77.5968 10.4402C76.3384 10.4402 75.5304 11.1158 75.3582 12.4272L79.597 12.4139ZM74.378 12.8908C74.378 11.0363 75.4906 9.48647 77.5571 9.48647C79.703 9.48647 80.2461 11.1555 80.3123 11.3145C80.7097 12.4007 80.5508 13.3544 80.5508 13.3544H75.3582C75.5304 14.5996 76.3384 15.3414 77.5703 15.3414C79.0937 15.3414 79.4646 14.5068 79.5573 14.3744L80.3786 14.8115C80.3786 14.8115 79.8222 16.2951 77.5571 16.2951C75.4906 16.2951 74.378 14.732 74.378 12.8908Z" fill="#616161"/>
<g filter="url(#filter0_d_1013_44600)">
<rect x="20.7236" y="38.9038" width="80.6724" height="80.6724" fill="white"/>
</g>
<mask id="mask0_1013_44600" style="mask-type:alpha" maskUnits="userSpaceOnUse" x="20" y="38" width="82" height="82">
<rect x="20.7314" y="38.9023" width="80.6724" height="80.6724" fill="white"/>
</mask>
<g mask="url(#mask0_1013_44600)">
<g clip-path="url(#clip0_1013_44600)">
<g clip-path="url(#clip1_1013_44600)">
<path d="M68.1366 56.2082L41.5244 81.377C44.3867 89.0363 52.1093 94.5242 61.1876 94.5242C61.1876 99.4866 58.3528 103.554 54.7575 103.914C54.558 103.933 54.4689 104.172 54.6099 104.313C54.6553 104.358 54.7154 104.382 54.7786 104.382C69.8394 104.324 82.033 91.1072 82.0362 74.8107C82.0362 74.8075 82.0362 74.8059 82.0362 74.8026C82.0362 66.2173 76.2337 58.9132 68.1349 56.2065L68.1366 56.2082Z" fill="#F18200"/>
<path d="M61.1862 55.0845C49.6705 55.0845 40.3359 63.913 40.3359 74.8044C40.3359 77.1088 40.756 79.3208 41.5246 81.3772L68.1368 56.2083C65.9621 55.4818 63.6236 55.0845 61.1862 55.0845Z" fill="#3777BC"/>
<path d="M48.4734 82.5007C59.9891 82.5007 69.3237 73.6721 69.3237 62.7808C69.3237 60.4763 68.9036 58.2643 68.1349 56.208L41.5244 81.3768C43.6991 82.1034 46.0376 82.5007 48.475 82.5007H48.4734Z" fill="#1C3C5E"/>
</g>
</g>
</g>
<path d="M183.67 11.6324C184.796 11.6324 185.657 10.7184 185.657 9.60568C185.657 8.49299 184.796 7.61873 183.67 7.61873H181.101V11.6324H183.67ZM180.147 16.2554V6.69148H183.644C185.286 6.69148 186.611 8.01612 186.611 9.63218C186.624 10.9833 185.644 12.2285 184.306 12.4934L187.061 16.2554H185.856L183.154 12.5596H181.101V16.2554H180.147ZM190.825 15.3811C192.309 15.3811 193.09 14.2949 193.09 12.8908C193.09 11.4867 192.309 10.4005 190.825 10.4005C189.328 10.4005 188.573 11.4867 188.573 12.8908C188.573 14.2949 189.328 15.3811 190.825 15.3811ZM187.619 12.8908C187.619 11.0495 188.759 9.47322 190.825 9.47322C192.905 9.47322 194.044 11.0495 194.044 12.8908C194.044 14.732 192.905 16.3084 190.825 16.3084C188.759 16.3084 187.619 14.732 187.619 12.8908ZM196.191 13.4869C196.191 14.5068 196.826 15.3281 197.939 15.3281C199.197 15.3281 199.939 14.2684 199.939 13.3677V9.45997H200.893V16.2554H199.939V15.1162C199.449 15.8447 198.906 16.2554 197.899 16.2554C196.336 16.2554 195.237 15.0632 195.237 13.5928V9.51296H196.191V13.4869ZM207.033 12.2815C207.033 11.1953 206.397 10.4402 205.285 10.4402C204.132 10.4402 203.285 11.5132 203.285 12.4139V16.2554H202.331V9.51296H203.285V10.6654C203.735 10.0031 204.397 9.51296 205.325 9.51296C206.901 9.51296 207.987 10.7051 207.987 12.1887V16.2554H207.033V12.2815ZM212.263 16.3613C210.21 16.3613 209.044 14.785 209.044 12.9305C209.044 11.0893 210.21 9.49971 212.263 9.49971C213.124 9.49971 214.025 9.93684 214.581 10.9436V6.42655H215.535V16.2554H214.581V14.9175C214.011 15.9242 213.124 16.3613 212.263 16.3613ZM209.998 12.9305C209.998 14.3479 210.806 15.4076 212.302 15.4076C213.521 15.4076 214.581 14.3479 214.581 12.9305C214.581 11.5264 213.521 10.4535 212.302 10.4535C210.806 10.4535 209.998 11.5264 209.998 12.9305ZM221.836 12.4139C221.73 11.4602 221.266 10.4402 219.835 10.4402C218.577 10.4402 217.769 11.1158 217.597 12.4272L221.836 12.4139ZM216.617 12.8908C216.617 11.0363 217.729 9.48647 219.796 9.48647C221.942 9.48647 222.485 11.1555 222.551 11.3145C222.948 12.4007 222.789 13.3544 222.789 13.3544H217.597C217.769 14.5996 218.577 15.3414 219.809 15.3414C221.332 15.3414 221.703 14.5068 221.796 14.3744L222.617 14.8115C222.617 14.8115 222.061 16.2951 219.796 16.2951C217.729 16.2951 216.617 14.732 216.617 12.8908ZM226.865 16.3613C224.812 16.3613 223.646 14.785 223.646 12.9305C223.646 11.0893 224.812 9.49971 226.865 9.49971C227.726 9.49971 228.627 9.93684 229.183 10.9436V6.42655H230.137V16.2554H229.183V14.9175C228.613 15.9242 227.726 16.3613 226.865 16.3613ZM224.6 12.9305C224.6 14.3479 225.408 15.4076 226.905 15.4076C228.123 15.4076 229.183 14.3479 229.183 12.9305C229.183 11.5264 228.123 10.4535 226.905 10.4535C225.408 10.4535 224.6 11.5264 224.6 12.9305Z" fill="#616161"/>
<g clip-path="url(#clip2_1013_44600)">
<g filter="url(#filter1_d_1013_44600)">
<rect x="165.2" y="38.9038" width="80.6724" height="80.6724" rx="8.9636" fill="white"/>
</g>
<mask id="mask1_1013_44600" style="mask-type:alpha" maskUnits="userSpaceOnUse" x="165" y="38" width="81" height="82">
<rect x="165.196" y="38.9048" width="80.6724" height="80.6724" rx="8.9636" fill="white"/>
</mask>
<g mask="url(#mask1_1013_44600)">
<rect x="145.026" y="18.7363" width="121.009" height="121.009" rx="8.9636" fill="white"/>
<g clip-path="url(#clip3_1013_44600)">
<g clip-path="url(#clip4_1013_44600)">
<path d="M212.598 56.2101L185.985 81.379C188.848 89.0383 196.57 94.5261 205.649 94.5261C205.649 99.4885 202.814 103.556 199.218 103.916C199.019 103.935 198.93 104.174 199.071 104.315C199.116 104.36 199.176 104.384 199.24 104.384C214.3 104.326 226.494 91.1092 226.497 74.8127C226.497 74.8094 226.497 74.8078 226.497 74.8046C226.497 66.2193 220.695 58.9151 212.596 56.2085L212.598 56.2101Z" fill="#F18200"/>
<path d="M205.647 55.0864C194.131 55.0864 184.797 63.915 184.797 74.8063C184.797 77.1108 185.217 79.3228 185.986 81.3791L212.598 56.2103C210.423 55.4837 208.085 55.0864 205.647 55.0864Z" fill="#3777BC"/>
<path d="M192.934 82.5026C204.45 82.5026 213.785 73.6741 213.785 62.7827C213.785 60.4783 213.365 58.2663 212.596 56.21L185.985 81.3788C188.16 82.1053 190.499 82.5026 192.936 82.5026H192.934Z" fill="#1C3C5E"/>
</g>
</g>
</g>
</g>
<path d="M339.696 16.3613C336.808 16.3613 334.98 14.1492 334.98 11.4734C334.98 8.79766 336.808 6.58551 339.696 6.58551C341.007 6.58551 342.186 7.14186 343.034 8.01612L342.332 8.67844C341.656 7.97638 340.729 7.56574 339.696 7.56574C337.378 7.56574 335.947 9.30102 335.947 11.4734C335.947 13.6591 337.378 15.3944 339.696 15.3944C340.729 15.3944 341.656 14.9705 342.332 14.2684L343.034 14.9307C342.186 15.805 341.007 16.3613 339.696 16.3613ZM344.442 9.51296H345.396V16.2554H344.442V9.51296ZM344.31 7.06238C344.31 6.73122 344.522 6.46629 344.919 6.46629C345.303 6.46629 345.515 6.73122 345.515 7.06238C345.515 7.40678 345.303 7.67171 344.919 7.67171C344.522 7.67171 344.31 7.40678 344.31 7.06238ZM347.804 10.9303C348.189 10.0428 349.288 9.44673 350.202 9.44673V10.427C348.97 10.427 347.804 11.7119 347.804 12.7848V16.2554H346.851V9.51296H347.804V10.9303ZM353.651 15.3679C354.34 15.3679 354.975 15.1029 355.426 14.6526L356.141 15.2884C355.505 15.9242 354.658 16.3216 353.704 16.3216C351.531 16.3216 350.273 14.7188 350.273 12.7716C350.273 10.8376 351.531 9.23479 353.704 9.23479C354.658 9.23479 355.505 9.63218 356.141 10.268L355.426 10.9038C354.975 10.4535 354.34 10.1885 353.651 10.1885C352.088 10.1885 351.227 11.341 351.227 12.7716C351.227 14.2154 352.088 15.3679 353.651 15.3679ZM356.898 6.42655H357.852V16.2554H356.898V6.42655ZM364.034 12.4139C363.928 11.4602 363.464 10.4402 362.033 10.4402C360.775 10.4402 359.967 11.1158 359.795 12.4272L364.034 12.4139ZM358.815 12.8908C358.815 11.0363 359.927 9.48647 361.994 9.48647C364.14 9.48647 364.683 11.1555 364.749 11.3145C365.146 12.4007 364.987 13.3544 364.987 13.3544H359.795C359.967 14.5996 360.775 15.3414 362.007 15.3414C363.53 15.3414 363.901 14.5068 363.994 14.3744L364.815 14.8115C364.815 14.8115 364.259 16.2951 361.994 16.2951C359.927 16.2951 358.815 14.732 358.815 12.8908Z" fill="#616161"/>
<g clip-path="url(#clip5_1013_44600)">
<g filter="url(#filter2_d_1013_44600)">
<rect x="309.664" y="38.9038" width="80.6724" height="80.6724" rx="40.3362" fill="white"/>
</g>
<mask id="mask2_1013_44600" style="mask-type:alpha" maskUnits="userSpaceOnUse" x="309" y="38" width="82" height="82">
<rect x="309.665" y="38.9043" width="80.6724" height="80.6724" rx="40.3362" fill="white"/>
</mask>
<g mask="url(#mask2_1013_44600)">
<rect width="121.009" height="121.009" transform="translate(289.495 18.7368)" fill="white"/>
<g clip-path="url(#clip6_1013_44600)">
<g clip-path="url(#clip7_1013_44600)">
<path d="M357.066 56.2106L330.454 81.3794C333.316 89.0388 341.039 94.5266 350.117 94.5266C350.117 99.489 347.283 103.556 343.687 103.916C343.488 103.936 343.399 104.174 343.54 104.315C343.585 104.361 343.645 104.385 343.708 104.385C358.769 104.327 370.963 91.1097 370.966 74.8132C370.966 74.8099 370.966 74.8083 370.966 74.8051C370.966 66.2198 365.163 58.9156 357.065 56.209L357.066 56.2106Z" fill="#F18200"/>
<path d="M350.116 55.0869C338.6 55.0869 329.266 63.9155 329.266 74.8068C329.266 77.1113 329.686 79.3233 330.454 81.3796L357.066 56.2108C354.892 55.4842 352.553 55.0869 350.116 55.0869Z" fill="#3777BC"/>
<path d="M337.403 82.5031C348.919 82.5031 358.253 73.6746 358.253 62.7832C358.253 60.4788 357.833 58.2668 357.065 56.2104L330.454 81.3793C332.629 82.1058 334.967 82.5031 337.405 82.5031H337.403Z" fill="#1C3C5E"/>
</g>
</g>
</g>
</g>
<path d="M473.846 13.9108C474.283 14.8777 475.197 15.4473 476.416 15.4208C478.482 15.3546 479.038 12.7053 477.065 12.1755C476.429 11.937 475.382 11.6456 474.468 11.023C473.144 10.109 473.157 8.77116 473.554 7.92339C474.084 6.8107 475.502 6.49278 476.296 6.55902C477.078 6.612 478.138 6.92991 478.787 7.87041L477.992 8.40026C477.555 7.77768 476.879 7.56574 476.217 7.51276C475.621 7.48626 474.76 7.67171 474.429 8.32079C474.164 8.93012 474.164 9.63218 474.998 10.2283C475.78 10.7714 476.72 11.0363 477.383 11.2747C480.376 12.1887 479.529 16.2819 476.442 16.3746C474.919 16.4276 473.528 15.6195 472.972 14.2817L473.846 13.9108ZM483.498 15.4341C484.716 15.4341 485.763 14.3479 485.763 12.9305C485.763 11.5397 484.716 10.4535 483.498 10.4535C482.04 10.4535 481.219 11.5397 481.219 12.9305C481.219 14.3479 482.04 15.4341 483.498 15.4341ZM480.265 12.9305C480.265 11.1025 481.418 9.52621 483.484 9.52621C484.306 9.52621 485.339 9.98983 485.776 10.9436V9.51296H486.73V19.302H485.776V14.9307C485.339 15.7917 484.332 16.3613 483.484 16.3613C481.418 16.3613 480.265 14.785 480.265 12.9305ZM489.134 13.4869C489.134 14.5068 489.77 15.3281 490.883 15.3281C492.141 15.3281 492.883 14.2684 492.883 13.3677V9.45997H493.837V16.2554H492.883V15.1162C492.393 15.8447 491.85 16.2554 490.843 16.2554C489.28 16.2554 488.18 15.0632 488.18 13.5928V9.51296H489.134V13.4869ZM495.327 9.51296H496.281V16.2554H495.327V9.51296ZM495.195 7.06238C495.195 6.73122 495.407 6.46629 495.804 6.46629C496.188 6.46629 496.4 6.73122 496.4 7.06238C496.4 7.40678 496.188 7.67171 495.804 7.67171C495.407 7.67171 495.195 7.40678 495.195 7.06238ZM498.69 10.9303C499.074 10.0428 500.173 9.44673 501.087 9.44673V10.427C499.855 10.427 498.69 11.7119 498.69 12.7848V16.2554H497.736V9.51296H498.69V10.9303ZM504.536 15.3679C505.225 15.3679 505.861 15.1029 506.311 14.6526L507.026 15.2884C506.391 15.9242 505.543 16.3216 504.589 16.3216C502.417 16.3216 501.158 14.7188 501.158 12.7716C501.158 10.8376 502.417 9.23479 504.589 9.23479C505.543 9.23479 506.391 9.63218 507.026 10.268L506.311 10.9038C505.861 10.4535 505.225 10.1885 504.536 10.1885C502.973 10.1885 502.112 11.341 502.112 12.7716C502.112 14.2154 502.973 15.3679 504.536 15.3679ZM507.784 6.42655H508.737V16.2554H507.784V6.42655ZM514.919 12.4139C514.813 11.4602 514.349 10.4402 512.919 10.4402C511.66 10.4402 510.852 11.1158 510.68 12.4272L514.919 12.4139ZM509.7 12.8908C509.7 11.0363 510.813 9.48647 512.879 9.48647C515.025 9.48647 515.568 11.1555 515.634 11.3145C516.032 12.4007 515.873 13.3544 515.873 13.3544H510.68C510.852 14.5996 511.66 15.3414 512.892 15.3414C514.416 15.3414 514.786 14.5068 514.879 14.3744L515.7 14.8115C515.7 14.8115 515.144 16.2951 512.879 16.2951C510.813 16.2951 509.7 14.732 509.7 12.8908Z" fill="#616161"/>
<g clip-path="url(#clip8_1013_44600)">
<g filter="url(#filter3_d_1013_44600)">
<path d="M454.131 79.24C454.131 46.0231 461.25 38.9038 494.467 38.9038C527.684 38.9038 534.803 46.0231 534.803 79.24C534.803 112.457 527.684 119.576 494.467 119.576C461.25 119.576 454.131 112.457 454.131 79.24Z" fill="white"/>
</g>
<mask id="mask3_1013_44600" style="mask-type:alpha" maskUnits="userSpaceOnUse" x="454" y="38" width="81" height="82">
<path d="M454.131 79.24C454.131 46.0231 461.25 38.9038 494.467 38.9038C527.684 38.9038 534.803 46.0231 534.803 79.24C534.803 112.457 527.684 119.576 494.467 119.576C461.25 119.576 454.131 112.457 454.131 79.24Z" fill="white"/>
</mask>
<g mask="url(#mask3_1013_44600)">
<rect width="121.009" height="121.009" transform="translate(433.959 18.7358)" fill="white"/>
<g clip-path="url(#clip9_1013_44600)">
<g clip-path="url(#clip10_1013_44600)">
<path d="M501.53 56.2096L474.918 81.3785C477.78 89.0378 485.503 94.5256 494.581 94.5256C494.581 99.488 491.746 103.555 488.151 103.915C487.952 103.935 487.862 104.173 488.003 104.314C488.049 104.36 488.109 104.384 488.172 104.384C503.233 104.326 515.427 91.1087 515.43 74.8122C515.43 74.8089 515.43 74.8073 515.43 74.8041C515.43 66.2188 509.627 58.9146 501.529 56.208L501.53 56.2096Z" fill="#F18200"/>
<path d="M494.58 55.0859C483.064 55.0859 473.729 63.9145 473.729 74.8059C473.729 77.1103 474.15 79.3223 474.918 81.3786L501.53 56.2098C499.356 55.4833 497.017 55.0859 494.58 55.0859Z" fill="#3777BC"/>
<path d="M481.867 82.5022C493.383 82.5022 502.717 73.6736 502.717 62.7822C502.717 60.4778 502.297 58.2658 501.529 56.2095L474.918 81.3783C477.093 82.1048 479.431 82.5022 481.869 82.5022H481.867Z" fill="#1C3C5E"/>
</g>
</g>
</g>
</g>
<path d="M624.627 16.3613C621.739 16.3613 619.911 14.1492 619.911 11.4734C619.911 8.79766 621.739 6.58551 624.627 6.58551C625.938 6.58551 627.117 7.14186 627.965 8.01612L627.263 8.67844C626.587 7.97638 625.66 7.56574 624.627 7.56574C622.308 7.56574 620.878 9.30102 620.878 11.4734C620.878 13.6591 622.308 15.3944 624.627 15.3944C625.66 15.3944 626.587 14.9705 627.263 14.2684L627.965 14.9307C627.117 15.805 625.938 16.3613 624.627 16.3613ZM632.015 15.3811C633.499 15.3811 634.28 14.2949 634.28 12.8908C634.28 11.4867 633.499 10.4005 632.015 10.4005C630.518 10.4005 629.763 11.4867 629.763 12.8908C629.763 14.2949 630.518 15.3811 632.015 15.3811ZM628.809 12.8908C628.809 11.0495 629.949 9.47322 632.015 9.47322C634.095 9.47322 635.234 11.0495 635.234 12.8908C635.234 14.732 634.095 16.3084 632.015 16.3084C629.949 16.3084 628.809 14.732 628.809 12.8908ZM637.185 10.9303C637.569 10.0428 638.669 9.44673 639.583 9.44673V10.427C638.351 10.427 637.185 11.7119 637.185 12.7848V16.2554H636.231V9.51296H637.185V10.9303ZM645.416 12.2815C645.416 11.1953 644.78 10.4402 643.668 10.4402C642.515 10.4402 641.668 11.5132 641.668 12.4139V16.2554H640.714V9.51296H641.668V10.6654C642.118 10.0031 642.78 9.51296 643.708 9.51296C645.284 9.51296 646.37 10.7051 646.37 12.1887V16.2554H645.416V12.2815ZM652.646 12.4139C652.54 11.4602 652.076 10.4402 650.646 10.4402C649.387 10.4402 648.579 11.1158 648.407 12.4272L652.646 12.4139ZM647.427 12.8908C647.427 11.0363 648.54 9.48647 650.606 9.48647C652.752 9.48647 653.295 11.1555 653.361 11.3145C653.759 12.4007 653.6 13.3544 653.6 13.3544H648.407C648.579 14.5996 649.387 15.3414 650.619 15.3414C652.143 15.3414 652.513 14.5068 652.606 14.3744L653.427 14.8115C653.427 14.8115 652.871 16.2951 650.606 16.2951C648.54 16.2951 647.427 14.732 647.427 12.8908ZM655.595 10.9303C655.98 10.0428 657.079 9.44673 657.993 9.44673V10.427C656.761 10.427 655.595 11.7119 655.595 12.7848V16.2554H654.642V9.51296H655.595V10.9303Z" fill="#616161"/>
<g filter="url(#filter4_d_1013_44600)">
<path d="M598.593 79.24C598.593 56.963 616.652 38.9038 638.929 38.9038C661.206 38.9038 679.265 56.9629 679.265 79.24V110.613C679.265 115.563 675.252 119.576 670.302 119.576H638.929C616.652 119.576 598.593 101.517 598.593 79.24Z" fill="white"/>
</g>
<mask id="mask4_1013_44600" style="mask-type:alpha" maskUnits="userSpaceOnUse" x="598" y="38" width="82" height="82">
<path d="M598.593 79.24C598.593 56.963 616.652 38.9038 638.929 38.9038C661.206 38.9038 679.265 56.9629 679.265 79.24V110.613C679.265 115.563 675.252 119.576 670.302 119.576H638.929C616.652 119.576 598.593 101.517 598.593 79.24Z" fill="white"/>
</mask>
<g mask="url(#mask4_1013_44600)">
<rect width="121.009" height="121.009" transform="translate(578.426 18.7363)" fill="white"/>
<g clip-path="url(#clip11_1013_44600)">
<g clip-path="url(#clip12_1013_44600)">
<path d="M645.997 56.2101L619.385 81.379C622.247 89.0383 629.97 94.5261 639.048 94.5261C639.048 99.4885 636.213 103.556 632.618 103.916C632.418 103.935 632.329 104.174 632.47 104.315C632.516 104.36 632.576 104.384 632.639 104.384C647.7 104.326 659.893 91.1092 659.897 74.8127C659.897 74.8094 659.897 74.8078 659.897 74.8046C659.897 66.2193 654.094 58.9151 645.995 56.2085L645.997 56.2101Z" fill="#F18200"/>
<path d="M639.047 55.0864C627.531 55.0864 618.196 63.915 618.196 74.8063C618.196 77.1108 618.616 79.3228 619.385 81.3791L645.997 56.2103C643.822 55.4837 641.484 55.0864 639.047 55.0864Z" fill="#3777BC"/>
<path d="M626.334 82.5026C637.849 82.5026 647.184 73.6741 647.184 62.7827C647.184 60.4783 646.764 58.2663 645.995 56.21L619.385 81.3788C621.559 82.1053 623.898 82.5026 626.335 82.5026H626.334Z" fill="#1C3C5E"/>
</g>
</g>
</g>
<defs>
<filter id="filter0_d_1013_44600" x="7.27824" y="29.9402" width="107.564" height="107.563" filterUnits="userSpaceOnUse" color-interpolation-filters="sRGB">
<feFlood flood-opacity="0" result="BackgroundImageFix"/>
<feColorMatrix in="SourceAlpha" type="matrix" values="0 0 0 0 0 0 0 0 0 0 0 0 0 0 0 0 0 0 127 0" result="hardAlpha"/>
<feOffset dy="4.4818"/>
<feGaussianBlur stdDeviation="6.7227"/>
<feColorMatrix type="matrix" values="0 0 0 0 0 0 0 0 0 0 0 0 0 0 0 0 0 0 0.25 0"/>
<feBlend mode="normal" in2="BackgroundImageFix" result="effect1_dropShadow_1013_44600"/>
<feBlend mode="normal" in="SourceGraphic" in2="effect1_dropShadow_1013_44600" result="shape"/>
</filter>
<filter id="filter1_d_1013_44600" x="151.755" y="29.9402" width="107.564" height="107.563" filterUnits="userSpaceOnUse" color-interpolation-filters="sRGB">
<feFlood flood-opacity="0" result="BackgroundImageFix"/>
<feColorMatrix in="SourceAlpha" type="matrix" values="0 0 0 0 0 0 0 0 0 0 0 0 0 0 0 0 0 0 127 0" result="hardAlpha"/>
<feOffset dy="4.4818"/>
<feGaussianBlur stdDeviation="6.7227"/>
<feColorMatrix type="matrix" values="0 0 0 0 0 0 0 0 0 0 0 0 0 0 0 0 0 0 0.25 0"/>
<feBlend mode="normal" in2="BackgroundImageFix" result="effect1_dropShadow_1013_44600"/>
<feBlend mode="normal" in="SourceGraphic" in2="effect1_dropShadow_1013_44600" result="shape"/>
</filter>
<filter id="filter2_d_1013_44600" x="296.219" y="29.9402" width="107.564" height="107.563" filterUnits="userSpaceOnUse" color-interpolation-filters="sRGB">
<feFlood flood-opacity="0" result="BackgroundImageFix"/>
<feColorMatrix in="SourceAlpha" type="matrix" values="0 0 0 0 0 0 0 0 0 0 0 0 0 0 0 0 0 0 127 0" result="hardAlpha"/>
<feOffset dy="4.4818"/>
<feGaussianBlur stdDeviation="6.7227"/>
<feColorMatrix type="matrix" values="0 0 0 0 0 0 0 0 0 0 0 0 0 0 0 0 0 0 0.25 0"/>
<feBlend mode="normal" in2="BackgroundImageFix" result="effect1_dropShadow_1013_44600"/>
<feBlend mode="normal" in="SourceGraphic" in2="effect1_dropShadow_1013_44600" result="shape"/>
</filter>
<filter id="filter3_d_1013_44600" x="440.685" y="29.9402" width="107.564" height="107.563" filterUnits="userSpaceOnUse" color-interpolation-filters="sRGB">
<feFlood flood-opacity="0" result="BackgroundImageFix"/>
<feColorMatrix in="SourceAlpha" type="matrix" values="0 0 0 0 0 0 0 0 0 0 0 0 0 0 0 0 0 0 127 0" result="hardAlpha"/>
<feOffset dy="4.4818"/>
<feGaussianBlur stdDeviation="6.7227"/>
<feColorMatrix type="matrix" values="0 0 0 0 0 0 0 0 0 0 0 0 0 0 0 0 0 0 0.25 0"/>
<feBlend mode="normal" in2="BackgroundImageFix" result="effect1_dropShadow_1013_44600"/>
<feBlend mode="normal" in="SourceGraphic" in2="effect1_dropShadow_1013_44600" result="shape"/>
</filter>
<filter id="filter4_d_1013_44600" x="585.147" y="29.9402" width="107.564" height="107.563" filterUnits="userSpaceOnUse" color-interpolation-filters="sRGB">
<feFlood flood-opacity="0" result="BackgroundImageFix"/>
<feColorMatrix in="SourceAlpha" type="matrix" values="0 0 0 0 0 0 0 0 0 0 0 0 0 0 0 0 0 0 127 0" result="hardAlpha"/>
<feOffset dy="4.4818"/>
<feGaussianBlur stdDeviation="6.7227"/>
<feColorMatrix type="matrix" values="0 0 0 0 0 0 0 0 0 0 0 0 0 0 0 0 0 0 0.25 0"/>
<feBlend mode="normal" in2="BackgroundImageFix" result="effect1_dropShadow_1013_44600"/>
<feBlend mode="normal" in="SourceGraphic" in2="effect1_dropShadow_1013_44600" result="shape"/>
</filter>
<clipPath id="clip0_1013_44600">
<rect width="42.4886" height="49.2998" fill="white" transform="translate(39.9668 55.0845)"/>
</clipPath>
<clipPath id="clip1_1013_44600">
<rect width="41.7021" height="49.2998" fill="white" transform="translate(40.3359 55.0845)"/>
</clipPath>
<clipPath id="clip2_1013_44600">
<rect width="121.009" height="121.009" fill="white" transform="translate(145.03 18.7358)"/>
</clipPath>
<clipPath id="clip3_1013_44600">
<rect width="42.4886" height="49.2998" fill="white" transform="translate(184.428 55.0864)"/>
</clipPath>
<clipPath id="clip4_1013_44600">
<rect width="41.7021" height="49.2998" fill="white" transform="translate(184.797 55.0864)"/>
</clipPath>
<clipPath id="clip5_1013_44600">
<rect width="121.009" height="121.009" fill="white" transform="translate(289.496 18.7358)"/>
</clipPath>
<clipPath id="clip6_1013_44600">
<rect width="42.4886" height="49.2998" fill="white" transform="translate(328.896 55.0869)"/>
</clipPath>
<clipPath id="clip7_1013_44600">
<rect width="41.7021" height="49.2998" fill="white" transform="translate(329.266 55.0869)"/>
</clipPath>
<clipPath id="clip8_1013_44600">
<rect width="121.009" height="121.009" fill="white" transform="translate(433.961 18.7358)"/>
</clipPath>
<clipPath id="clip9_1013_44600">
<rect width="42.4886" height="49.2998" fill="white" transform="translate(473.36 55.0859)"/>
</clipPath>
<clipPath id="clip10_1013_44600">
<rect width="41.7021" height="49.2998" fill="white" transform="translate(473.729 55.0859)"/>
</clipPath>
<clipPath id="clip11_1013_44600">
<rect width="42.4886" height="49.2998" fill="white" transform="translate(617.827 55.0864)"/>
</clipPath>
<clipPath id="clip12_1013_44600">
<rect width="41.7021" height="49.2998" fill="white" transform="translate(618.196 55.0864)"/>
</clipPath>
</defs>
</svg>
