<svg width="680" height="144" viewBox="0 0 680 144" fill="none" xmlns="http://www.w3.org/2000/svg">
<g filter="url(#filter0_dd_311_24352)">
<rect x="22.334" y="27.5967" width="82.7899" height="82.7899" rx="1.54028" fill="white"/>
</g>
<rect x="23.7139" y="121.425" width="80.0303" height="20" rx="10" fill="#10185C"/>
<path d="M39.1445 133.769C39.3845 134.321 39.9485 134.645 40.6805 134.609C41.7365 134.585 42.1565 133.277 41.0765 132.929C40.6805 132.809 39.9605 132.617 39.3725 132.233C38.4605 131.621 38.4725 130.721 38.7485 130.169C39.1205 129.437 40.0685 129.221 40.6205 129.269C41.1365 129.329 41.8565 129.509 42.3125 130.121L41.6165 130.625C41.3645 130.277 40.9565 130.169 40.5485 130.121C40.1765 130.085 39.6845 130.217 39.5045 130.553C39.3485 130.877 39.3605 131.201 39.8525 131.525C40.3205 131.837 40.9205 131.981 41.3405 132.125C43.3565 132.773 42.7085 135.413 40.7045 135.461C39.6965 135.509 38.7365 134.981 38.3645 134.105L39.1445 133.769ZM47.9111 131.993C47.9111 130.853 47.2631 130.193 46.3511 130.193C45.4031 130.193 44.5751 131.081 44.5751 132.233V135.425H43.7111V126.521H44.5751V130.469C44.8751 129.845 45.5591 129.353 46.3871 129.353C47.6231 129.353 48.7751 130.409 48.7751 131.945V135.425H47.9111V131.993ZM52.9674 134.645C54.0474 134.645 55.0194 133.769 55.0314 132.425C55.0194 131.093 54.0474 130.205 52.9674 130.205C51.6354 130.205 50.9154 131.165 50.9154 132.425C50.9154 133.685 51.6354 134.645 52.9674 134.645ZM50.0514 132.425C50.0514 130.757 51.0954 129.353 52.9554 129.353C53.6634 129.353 54.4554 129.725 55.0074 130.613V129.317H55.8714V135.425H55.0074V134.225C54.4314 135.161 53.6754 135.509 52.9554 135.509C51.0954 135.509 50.0514 134.081 50.0514 132.425ZM60.0061 135.521C58.1461 135.521 57.0901 134.093 57.0901 132.413C57.0901 130.745 58.1461 129.305 60.0061 129.305C60.7861 129.305 61.6021 129.701 62.1061 130.613V126.521H62.9701V135.425H62.1061V134.213C61.5901 135.125 60.7861 135.521 60.0061 135.521ZM57.9541 132.413C57.9541 133.697 58.6861 134.657 60.0421 134.657C61.1461 134.657 62.1061 133.697 62.1061 132.413C62.1061 131.141 61.1461 130.169 60.0421 130.169C58.6861 130.169 57.9541 131.141 57.9541 132.413ZM66.9743 134.633C68.3183 134.633 69.0263 133.649 69.0263 132.377C69.0263 131.105 68.3183 130.121 66.9743 130.121C65.6183 130.121 64.9343 131.105 64.9343 132.377C64.9343 133.649 65.6183 134.633 66.9743 134.633ZM64.0703 132.377C64.0703 130.709 65.1023 129.281 66.9743 129.281C68.8583 129.281 69.8903 130.709 69.8903 132.377C69.8903 134.045 68.8583 135.473 66.9743 135.473C65.1023 135.473 64.0703 134.045 64.0703 132.377ZM78.4133 129.317L76.5893 135.425H75.7733L74.3093 130.781L72.8813 135.425H72.0653L70.2053 129.317H71.1173L72.4733 133.841L73.8533 129.317H74.7533L76.1813 133.841L77.5013 129.317H78.4133ZM79.5237 130.577H84.5877V131.429H79.5237V130.577ZM88.338 126.773V135.425H87.474V127.817L86.25 128.633L85.77 127.913L87.474 126.773H88.338Z" fill="white"/>
<g filter="url(#filter1_dd_311_24352)">
<rect x="160.317" y="27.5967" width="82.7899" height="82.7899" rx="1.54028" fill="white"/>
</g>
<rect x="161.697" y="121.425" width="80.0303" height="20" rx="10" fill="#10185C"/>
<path d="M175.628 133.769C175.868 134.321 176.432 134.645 177.164 134.609C178.22 134.585 178.64 133.277 177.56 132.929C177.164 132.809 176.444 132.617 175.856 132.233C174.944 131.621 174.956 130.721 175.232 130.169C175.604 129.437 176.552 129.221 177.104 129.269C177.62 129.329 178.34 129.509 178.796 130.121L178.1 130.625C177.848 130.277 177.44 130.169 177.032 130.121C176.66 130.085 176.168 130.217 175.988 130.553C175.832 130.877 175.844 131.201 176.336 131.525C176.804 131.837 177.404 131.981 177.824 132.125C179.84 132.773 179.192 135.413 177.188 135.461C176.18 135.509 175.22 134.981 174.848 134.105L175.628 133.769ZM184.394 131.993C184.394 130.853 183.746 130.193 182.834 130.193C181.886 130.193 181.058 131.081 181.058 132.233V135.425H180.194V126.521H181.058V130.469C181.358 129.845 182.042 129.353 182.87 129.353C184.106 129.353 185.258 130.409 185.258 131.945V135.425H184.394V131.993ZM189.451 134.645C190.531 134.645 191.503 133.769 191.515 132.425C191.503 131.093 190.531 130.205 189.451 130.205C188.119 130.205 187.399 131.165 187.399 132.425C187.399 133.685 188.119 134.645 189.451 134.645ZM186.535 132.425C186.535 130.757 187.579 129.353 189.439 129.353C190.147 129.353 190.939 129.725 191.491 130.613V129.317H192.355V135.425H191.491V134.225C190.915 135.161 190.159 135.509 189.439 135.509C187.579 135.509 186.535 134.081 186.535 132.425ZM196.49 135.521C194.63 135.521 193.574 134.093 193.574 132.413C193.574 130.745 194.63 129.305 196.49 129.305C197.27 129.305 198.086 129.701 198.59 130.613V126.521H199.454V135.425H198.59V134.213C198.074 135.125 197.27 135.521 196.49 135.521ZM194.438 132.413C194.438 133.697 195.17 134.657 196.526 134.657C197.63 134.657 198.59 133.697 198.59 132.413C198.59 131.141 197.63 130.169 196.526 130.169C195.17 130.169 194.438 131.141 194.438 132.413ZM203.458 134.633C204.802 134.633 205.51 133.649 205.51 132.377C205.51 131.105 204.802 130.121 203.458 130.121C202.102 130.121 201.418 131.105 201.418 132.377C201.418 133.649 202.102 134.633 203.458 134.633ZM200.554 132.377C200.554 130.709 201.586 129.281 203.458 129.281C205.342 129.281 206.374 130.709 206.374 132.377C206.374 134.045 205.342 135.473 203.458 135.473C201.586 135.473 200.554 134.045 200.554 132.377ZM214.897 129.317L213.073 135.425H212.257L210.793 130.781L209.365 135.425H208.549L206.689 129.317H207.601L208.957 133.841L210.337 129.317H211.237L212.665 133.841L213.985 129.317H214.897ZM216.007 130.577H221.071V131.429H216.007V130.577ZM222.385 134.573C224.101 132.905 226.705 130.901 226.705 129.329C226.705 128.129 225.913 127.517 224.977 127.517C224.317 127.517 223.585 127.745 223.141 128.765L222.349 128.429C222.973 127.013 224.149 126.653 224.977 126.653C226.261 126.653 227.569 127.637 227.569 129.329C227.569 131.117 225.337 133.025 223.657 134.573H227.713V135.437H222.385V134.573Z" fill="white"/>
<g filter="url(#filter2_d_311_24352)">
<rect x="298.301" y="27.5967" width="82.7899" height="82.7899" rx="1.54028" fill="white"/>
</g>
<rect x="299.681" y="121.425" width="80.0303" height="20" rx="10" fill="#10185C"/>
<path d="M313.611 133.769C313.851 134.321 314.415 134.645 315.147 134.609C316.203 134.585 316.623 133.277 315.543 132.929C315.147 132.809 314.427 132.617 313.839 132.233C312.927 131.621 312.939 130.721 313.215 130.169C313.587 129.437 314.535 129.221 315.087 129.269C315.603 129.329 316.323 129.509 316.779 130.121L316.083 130.625C315.831 130.277 315.423 130.169 315.015 130.121C314.643 130.085 314.151 130.217 313.971 130.553C313.815 130.877 313.827 131.201 314.319 131.525C314.787 131.837 315.387 131.981 315.807 132.125C317.823 132.773 317.175 135.413 315.171 135.461C314.163 135.509 313.203 134.981 312.831 134.105L313.611 133.769ZM322.378 131.993C322.378 130.853 321.73 130.193 320.818 130.193C319.87 130.193 319.042 131.081 319.042 132.233V135.425H318.178V126.521H319.042V130.469C319.342 129.845 320.026 129.353 320.854 129.353C322.09 129.353 323.242 130.409 323.242 131.945V135.425H322.378V131.993ZM327.434 134.645C328.514 134.645 329.486 133.769 329.498 132.425C329.486 131.093 328.514 130.205 327.434 130.205C326.102 130.205 325.382 131.165 325.382 132.425C325.382 133.685 326.102 134.645 327.434 134.645ZM324.518 132.425C324.518 130.757 325.562 129.353 327.422 129.353C328.13 129.353 328.922 129.725 329.474 130.613V129.317H330.338V135.425H329.474V134.225C328.898 135.161 328.142 135.509 327.422 135.509C325.562 135.509 324.518 134.081 324.518 132.425ZM334.473 135.521C332.613 135.521 331.557 134.093 331.557 132.413C331.557 130.745 332.613 129.305 334.473 129.305C335.253 129.305 336.069 129.701 336.573 130.613V126.521H337.437V135.425H336.573V134.213C336.057 135.125 335.253 135.521 334.473 135.521ZM332.421 132.413C332.421 133.697 333.153 134.657 334.509 134.657C335.613 134.657 336.573 133.697 336.573 132.413C336.573 131.141 335.613 130.169 334.509 130.169C333.153 130.169 332.421 131.141 332.421 132.413ZM341.441 134.633C342.785 134.633 343.493 133.649 343.493 132.377C343.493 131.105 342.785 130.121 341.441 130.121C340.085 130.121 339.401 131.105 339.401 132.377C339.401 133.649 340.085 134.633 341.441 134.633ZM338.537 132.377C338.537 130.709 339.569 129.281 341.441 129.281C343.325 129.281 344.357 130.709 344.357 132.377C344.357 134.045 343.325 135.473 341.441 135.473C339.569 135.473 338.537 134.045 338.537 132.377ZM352.88 129.317L351.056 135.425H350.24L348.776 130.781L347.348 135.425H346.532L344.672 129.317H345.584L346.94 133.841L348.32 129.317H349.22L350.648 133.841L351.968 129.317H352.88ZM353.99 130.577H359.054V131.429H353.99V130.577ZM364.593 130.949C365.301 131.381 365.901 132.113 365.901 132.977C365.901 134.429 364.581 135.497 363.105 135.497C361.641 135.497 360.321 134.429 360.321 132.977H361.185C361.185 133.793 361.965 134.621 363.105 134.621C364.257 134.621 365.037 133.805 365.037 132.989C365.037 132.173 364.509 131.369 363.129 131.369H362.493V130.505H363.129C364.317 130.505 364.917 129.797 364.917 129.029C364.917 128.309 364.221 127.553 363.177 127.553C362.133 127.553 361.425 128.297 361.425 129.053H360.561C360.561 127.697 361.809 126.689 363.177 126.689C364.557 126.689 365.781 127.697 365.781 129.053C365.781 129.845 365.241 130.517 364.593 130.949Z" fill="white"/>
<g filter="url(#filter3_d_311_24352)">
<rect x="436.283" y="27.5967" width="82.7899" height="82.7899" rx="1.54028" fill="white"/>
</g>
<rect x="437.663" y="121.425" width="80.0303" height="20" rx="10" fill="#10185C"/>
<path d="M451.594 133.769C451.834 134.321 452.398 134.645 453.13 134.609C454.186 134.585 454.606 133.277 453.526 132.929C453.13 132.809 452.41 132.617 451.822 132.233C450.91 131.621 450.922 130.721 451.198 130.169C451.57 129.437 452.518 129.221 453.07 129.269C453.586 129.329 454.306 129.509 454.762 130.121L454.066 130.625C453.814 130.277 453.406 130.169 452.998 130.121C452.626 130.085 452.134 130.217 451.954 130.553C451.798 130.877 451.81 131.201 452.302 131.525C452.77 131.837 453.37 131.981 453.79 132.125C455.806 132.773 455.158 135.413 453.154 135.461C452.146 135.509 451.186 134.981 450.814 134.105L451.594 133.769ZM460.36 131.993C460.36 130.853 459.712 130.193 458.8 130.193C457.852 130.193 457.024 131.081 457.024 132.233V135.425H456.16V126.521H457.024V130.469C457.324 129.845 458.008 129.353 458.836 129.353C460.072 129.353 461.224 130.409 461.224 131.945V135.425H460.36V131.993ZM465.417 134.645C466.497 134.645 467.469 133.769 467.481 132.425C467.469 131.093 466.497 130.205 465.417 130.205C464.085 130.205 463.365 131.165 463.365 132.425C463.365 133.685 464.085 134.645 465.417 134.645ZM462.501 132.425C462.501 130.757 463.545 129.353 465.405 129.353C466.113 129.353 466.905 129.725 467.457 130.613V129.317H468.321V135.425H467.457V134.225C466.881 135.161 466.125 135.509 465.405 135.509C463.545 135.509 462.501 134.081 462.501 132.425ZM472.455 135.521C470.595 135.521 469.539 134.093 469.539 132.413C469.539 130.745 470.595 129.305 472.455 129.305C473.235 129.305 474.051 129.701 474.555 130.613V126.521H475.419V135.425H474.555V134.213C474.039 135.125 473.235 135.521 472.455 135.521ZM470.403 132.413C470.403 133.697 471.135 134.657 472.491 134.657C473.595 134.657 474.555 133.697 474.555 132.413C474.555 131.141 473.595 130.169 472.491 130.169C471.135 130.169 470.403 131.141 470.403 132.413ZM479.424 134.633C480.768 134.633 481.476 133.649 481.476 132.377C481.476 131.105 480.768 130.121 479.424 130.121C478.068 130.121 477.384 131.105 477.384 132.377C477.384 133.649 478.068 134.633 479.424 134.633ZM476.52 132.377C476.52 130.709 477.552 129.281 479.424 129.281C481.308 129.281 482.34 130.709 482.34 132.377C482.34 134.045 481.308 135.473 479.424 135.473C477.552 135.473 476.52 134.045 476.52 132.377ZM490.863 129.317L489.039 135.425H488.223L486.759 130.781L485.331 135.425H484.515L482.655 129.317H483.567L484.923 133.841L486.303 129.317H487.203L488.631 133.841L489.951 129.317H490.863ZM491.973 130.577H497.037V131.429H491.973V130.577ZM503.079 126.761V132.221H504.363V133.061H503.079V135.425H502.215V133.061H498.303V132.221L502.239 126.761H503.079ZM499.371 132.221H502.215V128.273L499.371 132.221Z" fill="white"/>
<g filter="url(#filter4_dd_311_24352)">
<rect x="574.267" y="27.5967" width="82.7899" height="82.7899" rx="1.54028" fill="white"/>
</g>
<rect x="575.646" y="121.425" width="80.0303" height="20" rx="10" fill="#10185C"/>
<path d="M589.577 133.769C589.817 134.321 590.381 134.645 591.113 134.609C592.169 134.585 592.589 133.277 591.509 132.929C591.113 132.809 590.393 132.617 589.805 132.233C588.893 131.621 588.905 130.721 589.181 130.169C589.553 129.437 590.501 129.221 591.053 129.269C591.569 129.329 592.289 129.509 592.745 130.121L592.049 130.625C591.797 130.277 591.389 130.169 590.981 130.121C590.609 130.085 590.117 130.217 589.937 130.553C589.781 130.877 589.793 131.201 590.285 131.525C590.753 131.837 591.353 131.981 591.773 132.125C593.789 132.773 593.141 135.413 591.137 135.461C590.129 135.509 589.169 134.981 588.797 134.105L589.577 133.769ZM598.344 131.993C598.344 130.853 597.696 130.193 596.784 130.193C595.836 130.193 595.008 131.081 595.008 132.233V135.425H594.144V126.521H595.008V130.469C595.308 129.845 595.992 129.353 596.82 129.353C598.056 129.353 599.208 130.409 599.208 131.945V135.425H598.344V131.993ZM603.4 134.645C604.48 134.645 605.452 133.769 605.464 132.425C605.452 131.093 604.48 130.205 603.4 130.205C602.068 130.205 601.348 131.165 601.348 132.425C601.348 133.685 602.068 134.645 603.4 134.645ZM600.484 132.425C600.484 130.757 601.528 129.353 603.388 129.353C604.096 129.353 604.888 129.725 605.44 130.613V129.317H606.304V135.425H605.44V134.225C604.864 135.161 604.108 135.509 603.388 135.509C601.528 135.509 600.484 134.081 600.484 132.425ZM610.439 135.521C608.579 135.521 607.523 134.093 607.523 132.413C607.523 130.745 608.579 129.305 610.439 129.305C611.219 129.305 612.035 129.701 612.539 130.613V126.521H613.403V135.425H612.539V134.213C612.023 135.125 611.219 135.521 610.439 135.521ZM608.387 132.413C608.387 133.697 609.119 134.657 610.475 134.657C611.579 134.657 612.539 133.697 612.539 132.413C612.539 131.141 611.579 130.169 610.475 130.169C609.119 130.169 608.387 131.141 608.387 132.413ZM617.407 134.633C618.751 134.633 619.459 133.649 619.459 132.377C619.459 131.105 618.751 130.121 617.407 130.121C616.051 130.121 615.367 131.105 615.367 132.377C615.367 133.649 616.051 134.633 617.407 134.633ZM614.503 132.377C614.503 130.709 615.535 129.281 617.407 129.281C619.291 129.281 620.323 130.709 620.323 132.377C620.323 134.045 619.291 135.473 617.407 135.473C615.535 135.473 614.503 134.045 614.503 132.377ZM628.846 129.317L627.022 135.425H626.206L624.742 130.781L623.314 135.425H622.498L620.638 129.317H621.55L622.906 133.841L624.286 129.317H625.186L626.614 133.841L627.934 129.317H628.846ZM629.956 130.577H635.02V131.429H629.956V130.577ZM637.571 131.333L636.707 131.309L636.863 126.749H641.303V127.613H637.703L637.607 130.193C638.039 129.941 638.543 129.797 639.071 129.797C640.643 129.797 641.927 131.117 641.927 132.641C641.927 134.297 640.631 135.545 639.071 135.545C637.727 135.545 636.587 134.621 636.299 133.373L637.139 133.181C637.343 134.093 638.087 134.681 639.071 134.681C640.223 134.681 641.063 133.877 641.063 132.641C641.063 131.525 640.223 130.661 639.071 130.661C638.447 130.661 637.943 130.901 637.571 131.333Z" fill="white"/>
<defs>
<filter id="filter0_dd_311_24352" x="0.256674" y="8.27903" width="126.945" height="126.945" filterUnits="userSpaceOnUse" color-interpolation-filters="sRGB">
<feFlood flood-opacity="0" result="BackgroundImageFix"/>
<feColorMatrix in="SourceAlpha" type="matrix" values="0 0 0 0 0 0 0 0 0 0 0 0 0 0 0 0 0 0 127 0" result="hardAlpha"/>
<feOffset/>
<feGaussianBlur stdDeviation="0.689916"/>
<feComposite in2="hardAlpha" operator="out"/>
<feColorMatrix type="matrix" values="0 0 0 0 0 0 0 0 0 0 0 0 0 0 0 0 0 0 0.2 0"/>
<feBlend mode="normal" in2="BackgroundImageFix" result="effect1_dropShadow_311_24352"/>
<feColorMatrix in="SourceAlpha" type="matrix" values="0 0 0 0 0 0 0 0 0 0 0 0 0 0 0 0 0 0 127 0" result="hardAlpha"/>
<feOffset dy="2.75966"/>
<feGaussianBlur stdDeviation="11.0387"/>
<feComposite in2="hardAlpha" operator="out"/>
<feColorMatrix type="matrix" values="0 0 0 0 0 0 0 0 0 0 0 0 0 0 0 0 0 0 0.08 0"/>
<feBlend mode="normal" in2="effect1_dropShadow_311_24352" result="effect2_dropShadow_311_24352"/>
<feBlend mode="normal" in="SourceGraphic" in2="effect2_dropShadow_311_24352" result="shape"/>
</filter>
<filter id="filter1_dd_311_24352" x="138.24" y="16.558" width="126.945" height="126.945" filterUnits="userSpaceOnUse" color-interpolation-filters="sRGB">
<feFlood flood-opacity="0" result="BackgroundImageFix"/>
<feColorMatrix in="SourceAlpha" type="matrix" values="0 0 0 0 0 0 0 0 0 0 0 0 0 0 0 0 0 0 127 0" result="hardAlpha"/>
<feOffset/>
<feGaussianBlur stdDeviation="5.51933"/>
<feComposite in2="hardAlpha" operator="out"/>
<feColorMatrix type="matrix" values="0 0 0 0 0 0 0 0 0 0 0 0 0 0 0 0 0 0 0.12 0"/>
<feBlend mode="normal" in2="BackgroundImageFix" result="effect1_dropShadow_311_24352"/>
<feColorMatrix in="SourceAlpha" type="matrix" values="0 0 0 0 0 0 0 0 0 0 0 0 0 0 0 0 0 0 127 0" result="hardAlpha"/>
<feOffset dy="11.0387"/>
<feGaussianBlur stdDeviation="11.0387"/>
<feComposite in2="hardAlpha" operator="out"/>
<feColorMatrix type="matrix" values="0 0 0 0 0 0 0 0 0 0 0 0 0 0 0 0 0 0 0.12 0"/>
<feBlend mode="normal" in2="effect1_dropShadow_311_24352" result="effect2_dropShadow_311_24352"/>
<feBlend mode="normal" in="SourceGraphic" in2="effect2_dropShadow_311_24352" result="shape"/>
</filter>
<filter id="filter2_d_311_24352" x="276.223" y="4.14848e-05" width="126.945" height="126.945" filterUnits="userSpaceOnUse" color-interpolation-filters="sRGB">
<feFlood flood-opacity="0" result="BackgroundImageFix"/>
<feColorMatrix in="SourceAlpha" type="matrix" values="0 0 0 0 0 0 0 0 0 0 0 0 0 0 0 0 0 0 127 0" result="hardAlpha"/>
<feOffset dy="-5.51933"/>
<feGaussianBlur stdDeviation="11.0387"/>
<feComposite in2="hardAlpha" operator="out"/>
<feColorMatrix type="matrix" values="0 0 0 0 0 0 0 0 0 0 0 0 0 0 0 0 0 0 0.12 0"/>
<feBlend mode="normal" in2="BackgroundImageFix" result="effect1_dropShadow_311_24352"/>
<feBlend mode="normal" in="SourceGraphic" in2="effect1_dropShadow_311_24352" result="shape"/>
</filter>
<filter id="filter3_d_311_24352" x="430.764" y="24.837" width="93.8287" height="93.8287" filterUnits="userSpaceOnUse" color-interpolation-filters="sRGB">
<feFlood flood-opacity="0" result="BackgroundImageFix"/>
<feColorMatrix in="SourceAlpha" type="matrix" values="0 0 0 0 0 0 0 0 0 0 0 0 0 0 0 0 0 0 127 0" result="hardAlpha"/>
<feOffset dy="2.75966"/>
<feGaussianBlur stdDeviation="2.75966"/>
<feComposite in2="hardAlpha" operator="out"/>
<feColorMatrix type="matrix" values="0 0 0 0 0 0 0 0 0 0 0 0 0 0 0 0 0 0 0.2 0"/>
<feBlend mode="normal" in2="BackgroundImageFix" result="effect1_dropShadow_311_24352"/>
<feBlend mode="normal" in="SourceGraphic" in2="effect1_dropShadow_311_24352" result="shape"/>
</filter>
<filter id="filter4_dd_311_24352" x="552.189" y="8.27903" width="126.945" height="126.945" filterUnits="userSpaceOnUse" color-interpolation-filters="sRGB">
<feFlood flood-opacity="0" result="BackgroundImageFix"/>
<feColorMatrix in="SourceAlpha" type="matrix" values="0 0 0 0 0 0 0 0 0 0 0 0 0 0 0 0 0 0 127 0" result="hardAlpha"/>
<feOffset/>
<feGaussianBlur stdDeviation="0.689916"/>
<feComposite in2="hardAlpha" operator="out"/>
<feColorMatrix type="matrix" values="0 0 0 0 0 0 0 0 0 0 0 0 0 0 0 0 0 0 0.2 0"/>
<feBlend mode="normal" in2="BackgroundImageFix" result="effect1_dropShadow_311_24352"/>
<feColorMatrix in="SourceAlpha" type="matrix" values="0 0 0 0 0 0 0 0 0 0 0 0 0 0 0 0 0 0 127 0" result="hardAlpha"/>
<feOffset dy="2.75966"/>
<feGaussianBlur stdDeviation="11.0387"/>
<feComposite in2="hardAlpha" operator="out"/>
<feColorMatrix type="matrix" values="0 0 0 0 0 0 0 0 0 0 0 0 0 0 0 0 0 0 0.12 0"/>
<feBlend mode="normal" in2="effect1_dropShadow_311_24352" result="effect2_dropShadow_311_24352"/>
<feBlend mode="normal" in="SourceGraphic" in2="effect2_dropShadow_311_24352" result="shape"/>
</filter>
</defs>
</svg>
