<svg width="49" height="56" viewBox="0 0 49 56" fill="none" xmlns="http://www.w3.org/2000/svg">
<g clip-path="url(#clip0_311_24972)">
<g clip-path="url(#clip1_311_24972)">
<path d="M31.7232 2.16148L1.92969 30.3391C5.13417 38.914 13.7799 45.0579 23.9435 45.0579C23.9435 50.6136 20.7698 55.167 16.7447 55.5701C16.5214 55.5918 16.4216 55.8587 16.5795 56.0167C16.6303 56.0675 16.6975 56.0948 16.7683 56.0948C33.6295 56.0294 47.2808 41.2325 47.2844 22.9879C47.2844 22.9842 47.2844 22.9824 47.2844 22.9788C47.2844 13.3672 40.7883 5.18985 31.7213 2.15967L31.7232 2.16148Z" fill="#F18200"/>
<path d="M23.9414 0.90332C11.049 0.90332 0.598633 10.7873 0.598633 22.9806C0.598633 25.5606 1.06887 28.037 1.92944 30.3391L31.7229 2.16151C29.2882 1.34813 26.6702 0.90332 23.9414 0.90332Z" fill="#3777BC"/>
<path d="M9.7094 31.5974C22.6017 31.5974 33.0522 21.7135 33.0522 9.52012C33.0522 6.9402 32.5819 4.46376 31.7213 2.16162L1.92969 30.3392C4.36436 31.1526 6.98241 31.5974 9.71121 31.5974H9.7094Z" fill="#1C3C5E"/>
</g>
</g>
<defs>
<clipPath id="clip0_311_24972">
<rect width="48" height="55" fill="white" transform="translate(0.0195312 0.5)"/>
</clipPath>
<clipPath id="clip1_311_24972">
<rect width="46.6873" height="55.1933" fill="white" transform="translate(0.598633 0.90332)"/>
</clipPath>
</defs>
</svg>
