<svg width="154" height="160" viewBox="0 0 154 160" fill="none" xmlns="http://www.w3.org/2000/svg">
<g clip-path="url(#clip0_1824_29250)">
<path d="M70.7795 83.0859H37.5312C36.733 83.0859 36.0859 83.733 36.0859 84.5312V122.843C36.0859 123.642 36.733 124.289 37.5312 124.289H70.7795C71.5777 124.289 72.2248 123.642 72.2248 122.843V84.5312C72.2248 83.733 71.5777 83.0859 70.7795 83.0859Z" fill="white"/>
<path d="M43.5639 93.862C42.2111 93.862 41.1133 92.7605 41.1133 91.4077C41.1133 90.0548 42.2148 88.957 43.5639 88.957C44.9131 88.957 46.0146 90.0585 46.0146 91.4077C46.0146 92.7568 44.9131 93.862 43.5639 93.862ZM43.5639 90.0659C42.8247 90.0659 42.2222 90.6684 42.2222 91.4077C42.2222 92.1469 42.8247 92.7531 43.5639 92.7531C44.3032 92.7531 44.9057 92.1506 44.9057 91.4077C44.9057 90.6647 44.3032 90.0659 43.5639 90.0659Z" fill="#CECECE"/>
<path d="M43.3684 91.9618C43.228 91.9618 43.0838 91.9064 42.9766 91.7992L40.9917 89.8143C40.7736 89.5962 40.7736 89.245 40.9917 89.0306C41.2098 88.8163 41.5609 88.8126 41.7753 89.0306L43.3684 90.6238L45.9263 88.0659C46.1443 87.8478 46.4955 87.8478 46.7099 88.0659C46.9243 88.284 46.928 88.6351 46.7099 88.8495L43.7602 91.7992C43.653 91.9064 43.5089 91.9618 43.3684 91.9618Z" fill="#EE6002"/>
<path d="M43.5639 101.85C42.2111 101.85 41.1133 100.749 41.1133 99.3997C41.1133 98.0505 42.2148 96.9453 43.5639 96.9453C44.9131 96.9453 46.0146 98.0468 46.0146 99.3997C46.0146 100.753 44.9131 101.85 43.5639 101.85ZM43.5639 98.0542C42.8247 98.0542 42.2222 98.6567 42.2222 99.3997C42.2222 100.143 42.8247 100.741 43.5639 100.741C44.3032 100.741 44.9057 100.139 44.9057 99.3997C44.9057 98.6604 44.3032 98.0542 43.5639 98.0542Z" fill="#CECECE"/>
<path d="M43.3684 99.954C43.228 99.954 43.0838 99.8986 42.9766 99.7914L40.9917 97.8064C40.7736 97.5884 40.7736 97.2372 40.9917 97.0228C41.2098 96.8084 41.5609 96.8047 41.7753 97.0228L43.3684 98.6159L45.9263 96.0581C46.1443 95.84 46.4955 95.84 46.7099 96.0581C46.9243 96.2762 46.928 96.6273 46.7099 96.8417L43.7602 99.7914C43.653 99.8986 43.5089 99.954 43.3684 99.954Z" fill="#EE6002"/>
<path d="M43.5639 109.839C42.2111 109.839 41.1133 108.737 41.1133 107.384C41.1133 106.031 42.2148 104.934 43.5639 104.934C44.9131 104.934 46.0146 106.035 46.0146 107.384C46.0146 108.733 44.9131 109.839 43.5639 109.839ZM43.5639 106.042C42.8247 106.042 42.2222 106.645 42.2222 107.384C42.2222 108.124 42.8247 108.73 43.5639 108.73C44.3032 108.73 44.9057 108.127 44.9057 107.384C44.9057 106.641 44.3032 106.042 43.5639 106.042Z" fill="#CECECE"/>
<path d="M43.3684 107.942C43.228 107.942 43.0838 107.887 42.9766 107.78L40.9917 105.795C40.7736 105.577 40.7736 105.225 40.9917 105.011C41.2098 104.797 41.5609 104.793 41.7753 105.011L43.3684 106.604L45.9263 104.046C46.1443 103.828 46.4955 103.828 46.7099 104.046C46.9243 104.264 46.928 104.616 46.7099 104.83L43.7602 107.78C43.653 107.887 43.5089 107.942 43.3684 107.942Z" fill="#EE6002"/>
<path d="M68.0368 90.3237H49.0193C48.7125 90.3237 48.4648 90.0761 48.4648 89.7693C48.4648 89.4625 48.7125 89.2148 49.0193 89.2148H68.0368C68.3436 89.2148 68.5913 89.4625 68.5913 89.7693C68.5913 90.0761 68.3436 90.3237 68.0368 90.3237Z" fill="#CECECE"/>
<path d="M62.8287 92.7886H49.0193C48.7125 92.7886 48.4648 92.5409 48.4648 92.2341C48.4648 91.9273 48.7125 91.6797 49.0193 91.6797H62.8287C63.1355 91.6797 63.3832 91.9273 63.3832 92.2341C63.3832 92.5409 63.1355 92.7886 62.8287 92.7886Z" fill="#CECECE"/>
<path d="M65.2781 98.562H56.699C56.3922 98.562 56.1445 98.3144 56.1445 98.0076C56.1445 97.7008 56.3922 97.4531 56.699 97.4531H65.2781C65.5849 97.4531 65.8326 97.7008 65.8326 98.0076C65.8326 98.3144 65.5849 98.562 65.2781 98.562Z" fill="#CECECE"/>
<path d="M54.3089 98.562H49.0232C48.7164 98.562 48.4688 98.3144 48.4688 98.0076C48.4688 97.7008 48.7164 97.4531 49.0232 97.4531H54.3089C54.6157 97.4531 54.8634 97.7008 54.8634 98.0076C54.8634 98.3144 54.6157 98.562 54.3089 98.562Z" fill="#CECECE"/>
<path d="M67.1164 101.027H49.0193C48.7125 101.027 48.4648 100.779 48.4648 100.472C48.4648 100.166 48.7125 99.918 49.0193 99.918H67.1164C67.4232 99.918 67.6709 100.166 67.6709 100.472C67.6709 100.779 67.4232 101.027 67.1164 101.027Z" fill="#CECECE"/>
<path d="M57.7169 106.648H49.0232C48.7164 106.648 48.4688 106.4 48.4688 106.094C48.4688 105.787 48.7164 105.539 49.0232 105.539H57.7169C58.0237 105.539 58.2714 105.787 58.2714 106.094C58.2714 106.4 58.0237 106.648 57.7169 106.648Z" fill="#CECECE"/>
<path d="M64.8285 109.117H54.3162C54.0094 109.117 53.7617 108.869 53.7617 108.562C53.7617 108.255 54.0094 108.008 54.3162 108.008H64.8285C65.1353 108.008 65.3829 108.255 65.3829 108.562C65.3829 108.869 65.1353 109.117 64.8285 109.117Z" fill="#CECECE"/>
<path d="M51.8396 109.117H49.0193C48.7125 109.117 48.4648 108.869 48.4648 108.562C48.4648 108.255 48.7125 108.008 49.0193 108.008H51.8396C52.1464 108.008 52.394 108.255 52.394 108.562C52.394 108.869 52.1464 109.117 51.8396 109.117Z" fill="#CECECE"/>
<path d="M43.5639 118.397C42.2111 118.397 41.1133 117.296 41.1133 115.947C41.1133 114.597 42.2148 113.492 43.5639 113.492C44.9131 113.492 46.0146 114.594 46.0146 115.947C46.0146 117.299 44.9131 118.397 43.5639 118.397ZM43.5639 114.601C42.8247 114.601 42.2222 115.204 42.2222 115.947C42.2222 116.689 42.8247 117.288 43.5639 117.288C44.3032 117.288 44.9057 116.686 44.9057 115.947C44.9057 115.207 44.3032 114.601 43.5639 114.601Z" fill="#CECECE"/>
<path d="M43.3684 116.497C43.228 116.497 43.0838 116.442 42.9766 116.334L40.9917 114.349C40.7736 114.131 40.7736 113.78 40.9917 113.566C41.2098 113.351 41.5609 113.348 41.7753 113.566L43.3684 115.159L45.9263 112.601C46.1443 112.383 46.4955 112.383 46.7099 112.601C46.9243 112.819 46.928 113.17 46.7099 113.385L43.7602 116.334C43.653 116.442 43.5089 116.497 43.3684 116.497Z" fill="#EE6002"/>
<path d="M65.2781 115.105H56.699C56.3922 115.105 56.1445 114.857 56.1445 114.551C56.1445 114.244 56.3922 113.996 56.699 113.996H65.2781C65.5849 113.996 65.8326 114.244 65.8326 114.551C65.8326 114.857 65.5849 115.105 65.2781 115.105Z" fill="#CECECE"/>
<path d="M54.3089 115.105H49.0232C48.7164 115.105 48.4688 114.857 48.4688 114.551C48.4688 114.244 48.7164 113.996 49.0232 113.996H54.3089C54.6157 113.996 54.8634 114.244 54.8634 114.551C54.8634 114.857 54.6157 115.105 54.3089 115.105Z" fill="#CECECE"/>
<path d="M67.1164 117.57H49.0193C48.7125 117.57 48.4648 117.322 48.4648 117.015C48.4648 116.709 48.7125 116.461 49.0193 116.461H67.1164C67.4232 116.461 67.6709 116.709 67.6709 117.015C67.6709 117.322 67.4232 117.57 67.1164 117.57Z" fill="#CECECE"/>
<path d="M112.995 112.587C112.646 112.541 112.342 112.487 111.988 112.454C111.635 112.421 111.285 112.392 110.927 112.371C110.569 112.35 110.22 112.304 109.866 112.292C109.513 112.279 109.155 112.35 108.801 112.342C108.447 112.333 108.094 112.288 107.74 112.283C107.386 112.279 107.033 112.275 106.679 112.271C106.326 112.267 105.972 112.238 105.618 112.225C105.285 112.217 104.944 112.208 104.603 112.2C104.262 112.192 103.929 112.188 103.588 112.179C103.247 112.171 102.914 112.192 102.573 112.188C102.231 112.184 101.894 112.188 101.557 112.188C101.22 112.188 100.879 112.125 100.538 112.134C100.197 112.142 99.8599 112.15 99.5187 112.167C99.1775 112.184 98.8447 112.267 98.5076 112.296C98.1706 112.325 97.8586 112.396 97.5216 112.437C97.3343 112.708 97.1637 112.966 96.9848 113.249C96.8059 113.532 96.5979 113.79 96.4232 114.077C96.2484 114.364 96.1194 114.663 95.953 114.955C95.7866 115.246 95.566 115.495 95.4038 115.791C95.2457 116.082 95.1084 116.386 94.9544 116.681C94.8005 116.977 94.6549 117.276 94.5092 117.576C94.3636 117.875 94.1805 118.154 94.0391 118.458C93.8976 118.762 93.8019 119.082 93.6646 119.386C93.5273 119.689 93.4441 120.014 93.311 120.322C93.1778 120.63 92.974 120.9 92.845 121.208C92.7202 121.516 92.6328 121.84 92.508 122.148C92.3831 122.456 92.2084 122.747 92.0919 123.059C91.9754 123.372 91.9588 123.721 91.8423 124.033C91.7258 124.345 91.5344 124.632 91.4262 124.944C91.318 125.256 91.2639 125.593 91.1599 125.91C91.0559 126.226 90.9727 126.55 90.8687 126.866C90.7646 127.183 90.5899 127.478 90.4942 127.794C90.3985 128.111 90.3777 128.456 90.282 128.776C90.1863 129.097 90.0657 129.409 89.9741 129.729C89.8826 130.049 89.7536 130.361 89.6621 130.682C89.5705 131.002 89.454 131.318 89.3708 131.639C89.2876 131.959 89.2585 132.3 89.1794 132.621C89.1004 132.941 88.9506 133.253 88.8715 133.573C88.7925 133.894 88.7675 134.235 88.6926 134.56C88.6177 134.884 88.5512 135.213 88.4804 135.533C88.4097 135.854 88.3265 136.186 88.2558 136.507C88.185 136.835 88.1393 137.164 88.0727 137.484C88.0061 137.813 87.8938 138.134 87.8314 138.454C87.769 138.778 87.6858 139.099 87.6275 139.423C87.5693 139.748 87.5734 140.085 87.5152 140.409C87.4528 140.734 87.3196 141.046 87.2572 141.371C87.1948 141.695 87.2198 142.036 87.1615 142.361C87.1033 142.685 86.966 142.997 86.9077 143.322C86.8495 143.646 86.8162 143.975 86.7579 144.3C86.6997 144.624 86.6331 144.949 86.5749 145.273C86.5166 145.598 86.5249 145.935 86.4708 146.259C86.4126 146.584 86.3211 146.904 86.2628 147.229C86.2046 147.553 86.1047 147.874 86.0506 148.198C85.9965 148.523 85.984 148.856 85.9258 149.184C85.8675 149.513 85.8509 149.842 85.7968 150.166C85.7427 150.491 85.5888 150.803 85.5389 151.127C85.4889 151.452 85.4681 151.785 85.414 152.109C85.3599 152.434 85.3017 152.762 85.2518 153.087C85.2018 153.411 85.1977 153.749 85.1478 154.073C85.0978 154.398 85.0437 154.726 84.9938 155.051C84.9439 155.375 84.8315 155.696 84.7816 156.02C84.7317 156.345 84.6942 156.673 84.6443 157.002C84.5986 157.31 84.5486 157.614 84.507 157.922C84.4654 158.23 84.4779 158.546 84.4363 158.854C84.3947 159.162 84.3156 159.465 84.274 159.773C84.2324 160.081 84.1742 160.439 84.1367 160.747C84.5902 160.901 84.6318 160.668 85.1103 160.668C85.5888 160.668 85.5888 160.655 86.0631 160.655C86.5374 160.655 86.5416 160.747 87.0159 160.747C87.4902 160.747 87.4944 160.701 87.9687 160.701C88.443 160.701 88.4472 160.693 88.9256 160.693C89.4041 160.693 89.4041 160.747 89.8826 160.747C90.3611 160.747 90.3611 160.672 90.8395 160.672C91.318 160.672 91.318 160.688 91.7965 160.688C92.275 160.688 92.3166 160.892 92.7701 160.751C92.8367 160.426 92.845 160.039 92.9116 159.711C92.9781 159.386 93.0821 159.066 93.1487 158.741C93.2153 158.417 93.3401 158.101 93.4067 157.776C93.4732 157.451 93.4524 157.106 93.5232 156.782C93.5939 156.457 93.6605 156.128 93.7312 155.804C93.8019 155.479 93.9351 155.167 94.0058 154.843C94.0765 154.518 94.1473 154.194 94.2222 153.869C94.297 153.545 94.2887 153.203 94.3636 152.879C94.4385 152.554 94.5592 152.242 94.6341 151.918C94.709 151.593 94.7381 151.256 94.813 150.936C94.8879 150.616 94.9669 150.287 95.046 149.966C95.125 149.642 95.2665 149.334 95.3497 149.014C95.4329 148.693 95.4579 148.356 95.5411 148.032C95.6243 147.707 95.7616 147.399 95.8448 147.079C95.928 146.759 95.9655 146.422 96.0487 146.101C96.1319 145.781 96.2276 145.46 96.315 145.14C96.4023 144.82 96.5188 144.508 96.6104 144.187C96.7019 143.867 96.8184 143.555 96.9141 143.235C97.0098 142.914 97.1305 142.606 97.2262 142.286C97.3218 141.966 97.4175 141.649 97.5132 141.329C97.6089 141.009 97.6131 140.663 97.713 140.347C97.8128 140.031 97.9418 139.719 98.0416 139.403C98.1415 139.086 98.2538 138.77 98.3579 138.454C98.4619 138.138 98.595 137.83 98.7032 137.518C98.8114 137.202 98.8655 136.869 98.9778 136.557C99.0901 136.245 99.2399 135.941 99.3523 135.633C99.4646 135.325 99.6061 135.017 99.7226 134.705C99.839 134.393 99.9514 134.081 100.076 133.773C100.201 133.465 100.351 133.166 100.476 132.858C100.6 132.55 100.675 132.221 100.804 131.913C100.933 131.605 101.145 131.335 101.279 131.031C101.412 130.728 101.491 130.399 101.628 130.095C101.765 129.791 101.903 129.488 102.04 129.188C102.177 128.889 102.365 128.606 102.506 128.306C102.647 128.007 102.718 127.669 102.868 127.374C103.018 127.079 103.226 126.808 103.38 126.513C103.534 126.217 103.613 125.885 103.767 125.589C103.921 125.294 104.104 125.015 104.266 124.724C104.424 124.432 104.611 124.154 104.778 123.867C104.944 123.58 105.069 123.268 105.24 122.98C105.41 122.693 105.618 122.431 105.789 122.148C105.959 121.865 106.18 121.607 106.355 121.324C106.529 121.042 106.708 120.763 106.891 120.484C107.074 120.205 107.249 119.926 107.436 119.648C107.624 119.369 107.753 119.061 107.944 118.786C108.135 118.512 108.381 118.279 108.576 118.008C108.772 117.738 108.943 117.451 109.142 117.185C109.342 116.914 109.496 116.606 109.7 116.34C109.904 116.074 110.133 115.824 110.345 115.562C110.557 115.3 110.786 115.054 111.002 114.796C111.218 114.538 111.472 114.314 111.697 114.064C111.922 113.814 112.08 113.502 112.313 113.257C112.546 113.011 112.77 112.833 113.012 112.6L112.995 112.587Z" fill="white"/>
<path d="M113.05 112.386C111.997 112.24 110.928 112.107 109.867 112.082C109.609 112.074 109.351 112.107 109.093 112.124C108.802 112.14 108.515 112.119 108.223 112.099C107.678 112.061 107.129 112.074 106.58 112.057C105.448 112.024 104.312 111.949 103.176 111.97C102.602 111.978 102.028 111.995 101.454 111.978C101.204 111.97 100.959 111.936 100.713 111.928C100.414 111.92 100.114 111.936 99.8147 111.949C99.2863 111.97 98.7662 112.049 98.2419 112.119C98.113 112.136 97.9798 112.161 97.8508 112.182C97.7302 112.203 97.5679 112.198 97.4556 112.24C97.2559 112.319 97.1186 112.644 97.0062 112.818C96.7191 113.251 96.3946 113.675 96.1408 114.129C96.0243 114.341 95.9203 114.562 95.8038 114.774C95.6706 115.015 95.5042 115.227 95.3544 115.456C95.0507 115.918 94.8302 116.442 94.5847 116.937C94.3476 117.412 94.0771 117.878 93.8483 118.356C93.6361 118.806 93.4572 119.288 93.2908 119.754C93.2075 119.996 93.1243 120.233 92.9995 120.462C92.8747 120.69 92.7332 120.911 92.6334 121.156C92.4295 121.647 92.2797 122.142 92.0467 122.625C91.9469 122.833 91.8553 123.045 91.8012 123.27C91.7347 123.549 91.6972 123.836 91.5849 124.102C91.4933 124.314 91.3727 124.514 91.2853 124.726C91.1771 124.98 91.1189 125.242 91.0482 125.508C90.915 126.037 90.7611 126.603 90.5447 127.102C90.4532 127.314 90.3492 127.522 90.2826 127.743C90.1994 128.005 90.1786 128.279 90.1162 128.546C89.9955 129.07 89.8 129.594 89.6252 130.102C89.4505 130.609 89.2508 131.171 89.1301 131.712C89.076 131.966 89.0469 132.22 88.9886 132.473C88.9304 132.727 88.8347 132.968 88.7515 133.21C88.5726 133.734 88.5226 134.3 88.402 134.841C88.2813 135.382 88.1482 135.943 88.0317 136.497C87.9152 137.05 87.8278 137.562 87.6863 138.09C87.5532 138.602 87.4242 139.139 87.366 139.667C87.3368 139.942 87.3285 140.216 87.2661 140.487C87.2037 140.749 87.1039 141.003 87.0498 141.269C86.9998 141.514 86.9915 141.764 86.9749 142.014C86.9541 142.313 86.875 142.588 86.7876 142.871C86.6295 143.395 86.5921 143.948 86.4922 144.489C86.4423 144.747 86.3882 145.009 86.3466 145.267C86.3008 145.554 86.3008 145.846 86.2592 146.137C86.1802 146.695 86.0304 147.256 85.8973 147.805C85.7641 148.355 85.7308 148.887 85.6601 149.428C85.6268 149.699 85.6102 149.977 85.5436 150.244C85.4854 150.493 85.3813 150.73 85.3272 150.984C85.2108 151.529 85.1816 152.095 85.0859 152.644C84.9902 153.202 84.9569 153.759 84.8696 154.317C84.828 154.596 84.7905 154.874 84.7364 155.149C84.6823 155.424 84.595 155.694 84.5492 155.973C84.4577 156.534 84.3869 157.104 84.2996 157.67C84.2205 158.203 84.2164 158.735 84.1165 159.264C84.0208 159.755 83.9542 160.254 83.8918 160.753C83.8793 160.845 83.9667 160.928 84.0458 160.953C84.3162 161.036 84.5159 160.999 84.7822 160.924C85.0485 160.849 85.3522 160.878 85.6268 160.874C86.2343 160.857 86.8209 160.991 87.4284 160.941C88.0358 160.891 88.6225 160.878 89.2008 160.92C89.5004 160.941 89.7916 160.978 90.0912 160.953C90.3741 160.932 90.6446 160.887 90.9317 160.887C91.252 160.887 91.6057 160.87 91.9261 160.916C92.2464 160.961 92.4586 161.053 92.7832 160.957C92.8497 160.936 92.9163 160.882 92.9288 160.812C92.9995 160.416 93.012 160.017 93.1035 159.626C93.2034 159.206 93.3032 158.777 93.4239 158.361C93.5446 157.953 93.6028 157.566 93.6444 157.146C93.686 156.701 93.7984 156.252 93.9024 155.819C93.9981 155.411 94.1437 155.02 94.2311 154.608C94.3184 154.196 94.4141 153.793 94.4599 153.377C94.5098 152.906 94.6679 152.478 94.7803 152.02C94.8884 151.583 94.9342 151.134 95.0424 150.697C95.1423 150.277 95.2463 149.865 95.3877 149.453C95.5292 149.041 95.5791 148.608 95.679 148.18C95.7788 147.751 95.9619 147.36 96.0493 146.936C96.145 146.495 96.2323 146.058 96.3572 145.621C96.5985 144.756 96.8689 143.899 97.1477 143.046C97.2892 142.617 97.4265 142.193 97.5554 141.76C97.6137 141.56 97.6844 141.361 97.726 141.157C97.7718 140.932 97.7884 140.703 97.8467 140.483C97.959 140.054 98.1421 139.638 98.2794 139.214C98.4167 138.789 98.5665 138.361 98.7246 137.94C98.8744 137.541 98.9701 137.137 99.0949 136.734C99.2197 136.33 99.4028 135.968 99.5484 135.586C99.8812 134.724 100.227 133.871 100.584 133.018C100.747 132.636 100.83 132.215 101.017 131.841C101.2 131.483 101.412 131.159 101.546 130.776C101.699 130.339 101.874 129.923 102.07 129.503C102.244 129.124 102.465 128.77 102.64 128.392C102.815 128.021 102.902 127.614 103.11 127.26C103.314 126.915 103.53 126.594 103.676 126.216C104.004 125.363 104.55 124.635 104.974 123.832C105.165 123.47 105.332 123.099 105.565 122.758C105.794 122.421 106.014 122.076 106.255 121.743C106.509 121.389 106.734 121.015 106.967 120.649C107.2 120.283 107.483 119.892 107.707 119.496C107.932 119.101 108.128 118.781 108.415 118.452C108.677 118.148 108.885 117.82 109.11 117.491C109.334 117.162 109.559 116.779 109.809 116.446C110.058 116.114 110.341 115.793 110.612 115.477C111.14 114.861 111.722 114.3 112.197 113.638C112.446 113.289 112.792 113.022 113.104 112.727C113.299 112.54 113.004 112.248 112.808 112.431C112.505 112.723 112.168 112.989 111.914 113.326C111.66 113.663 111.435 113.967 111.144 114.262C110.562 114.857 110.008 115.515 109.501 116.176C108.993 116.838 108.61 117.595 108.061 118.231C107.795 118.539 107.591 118.86 107.395 119.213C107.183 119.596 106.929 119.954 106.692 120.32C106.222 121.044 105.748 121.768 105.261 122.479C105.02 122.833 104.837 123.208 104.641 123.586C104.445 123.965 104.192 124.352 103.971 124.735C103.759 125.101 103.534 125.454 103.376 125.85C103.21 126.27 103.01 126.628 102.777 127.01C102.565 127.364 102.469 127.751 102.307 128.125C102.132 128.525 101.891 128.895 101.712 129.295C101.537 129.677 101.358 130.056 101.221 130.451C101.075 130.876 100.863 131.233 100.659 131.633C100.476 131.987 100.393 132.378 100.252 132.748C100.089 133.164 99.8854 133.563 99.7273 133.984C99.4152 134.812 99.0533 135.619 98.7537 136.447C98.6039 136.855 98.529 137.279 98.3792 137.687C98.2211 138.107 98.0714 138.531 97.9257 138.956C97.7801 139.38 97.6012 139.834 97.4681 140.279C97.3474 140.678 97.3183 141.098 97.1935 141.502C96.9272 142.376 96.6276 143.241 96.3655 144.119C96.1034 144.997 95.8371 145.833 95.6623 146.719C95.5791 147.148 95.4002 147.543 95.292 147.964C95.1839 148.392 95.1506 148.829 95.0091 149.249C94.8676 149.669 94.7511 150.094 94.6471 150.531C94.5431 150.968 94.489 151.417 94.385 151.854C94.2852 152.286 94.1187 152.698 94.0646 153.139C94.0105 153.58 93.9315 154.005 93.8358 154.442C93.6486 155.282 93.3448 156.098 93.2408 156.955C93.1867 157.383 93.1576 157.783 93.0328 158.199C92.9038 158.627 92.7998 159.068 92.6958 159.505C92.6042 159.896 92.5918 160.296 92.521 160.691L92.6667 160.545C92.3338 160.641 91.9926 160.483 91.6515 160.479C91.2812 160.475 90.9067 160.441 90.5406 160.47C90.1744 160.5 89.8332 160.554 89.4629 160.52C89.0926 160.487 88.7598 160.483 88.402 160.487C88.0442 160.491 87.6947 160.495 87.341 160.52C86.9707 160.55 86.6295 160.487 86.2676 160.454C85.9056 160.421 85.527 160.454 85.1567 160.454C84.9653 160.454 84.7905 160.47 84.6075 160.525C84.4327 160.574 84.3245 160.591 84.1456 160.537L84.2996 160.737C84.3994 159.95 84.5991 159.168 84.6366 158.378C84.6574 157.949 84.7323 157.525 84.7988 157.1C84.8654 156.676 84.8987 156.243 84.9944 155.823C85.1816 154.991 85.3064 154.167 85.3938 153.322C85.4396 152.898 85.5353 152.478 85.5935 152.058C85.6518 151.637 85.6684 151.225 85.7891 150.822C86.0387 150.011 86.0762 149.178 86.1968 148.342C86.3175 147.522 86.6129 146.732 86.6836 145.904C86.7211 145.459 86.796 145.026 86.875 144.585C86.9541 144.144 86.9957 143.736 87.0789 143.316C87.1538 142.954 87.2994 142.613 87.3452 142.247C87.4034 141.81 87.4034 141.398 87.5324 140.974C87.6489 140.582 87.7113 140.208 87.7446 139.8C87.782 139.359 87.9027 138.927 87.9901 138.494C88.0691 138.119 88.1898 137.757 88.2605 137.379C88.3396 136.954 88.4145 136.53 88.5143 136.11C88.6142 135.69 88.7015 135.265 88.7972 134.841C88.8888 134.421 88.9345 133.984 89.0427 133.568C89.1384 133.201 89.3007 132.856 89.3756 132.482C89.4588 132.078 89.517 131.687 89.6419 131.296C89.904 130.472 90.1994 129.652 90.4365 128.82C90.5406 128.454 90.5572 128.071 90.6903 127.714C90.8318 127.331 91.0065 126.973 91.123 126.578C91.2395 126.182 91.3644 125.787 91.4684 125.384C91.5724 124.98 91.7596 124.635 91.9261 124.256C92.0758 123.911 92.1008 123.545 92.2173 123.191C92.338 122.816 92.5585 122.479 92.6958 122.109C92.8331 121.739 92.9413 121.335 93.141 120.977C93.3324 120.636 93.4946 120.308 93.6236 119.941C93.7526 119.575 93.9065 119.205 94.048 118.839C94.1895 118.473 94.3933 118.14 94.5722 117.795C94.9592 117.05 95.2671 116.23 95.7455 115.539C96.1866 114.903 96.5111 114.204 96.9521 113.567C97.1893 113.226 97.4098 112.877 97.6428 112.531L97.4639 112.635C98.4749 112.502 99.4569 112.34 100.48 112.332C100.955 112.327 101.429 112.386 101.907 112.382C102.432 112.382 102.96 112.365 103.484 112.373C104.516 112.386 105.548 112.44 106.58 112.465C107.079 112.477 107.578 112.465 108.078 112.498C108.577 112.531 109.035 112.519 109.526 112.498C110.071 112.469 110.624 112.552 111.165 112.594C111.743 112.635 112.313 112.706 112.887 112.785C113.15 112.823 113.262 112.419 113 112.386H113.05Z" fill="#8EA5C1"/>
<path d="M87.8212 138.449C87.8836 138.129 87.9377 137.8 88.0043 137.467C88.0709 137.135 88.1333 136.818 88.204 136.49C88.2747 136.161 88.3704 135.849 88.4453 135.52C88.5161 135.2 88.6284 134.884 88.7033 134.555C88.7782 134.226 88.7782 133.893 88.8572 133.565C88.9363 133.244 89.0403 132.928 89.1235 132.604C89.2067 132.279 89.2733 131.959 89.3565 131.634C89.4397 131.31 89.5521 131.002 89.6436 130.677C89.731 130.357 89.835 130.041 89.9307 129.72C90.0264 129.4 90.0721 129.071 90.1678 128.751C90.2635 128.43 90.4424 128.139 90.5423 127.819C90.6422 127.498 90.7004 127.17 90.8044 126.854C90.9084 126.537 91.0291 126.225 91.1373 125.909C91.2454 125.593 91.3245 125.268 91.4368 124.956C91.5492 124.644 91.6657 124.328 91.778 124.016C91.8904 123.704 92.0235 123.396 92.14 123.084C92.2565 122.772 92.4063 122.472 92.5269 122.16C92.6476 121.848 92.7433 121.528 92.8723 121.22C93.0013 120.912 93.1427 120.608 93.2717 120.305C93.4007 120.001 93.5047 119.676 93.642 119.377C93.7793 119.073 93.9208 118.769 94.0581 118.47C94.1954 118.17 94.3285 117.858 94.4741 117.559C94.6197 117.259 94.7862 116.968 94.936 116.672C95.0899 116.373 95.3063 116.115 95.4644 115.824C95.6225 115.532 95.7639 115.229 95.9304 114.942C96.0968 114.655 96.2799 114.376 96.4546 114.089C96.6293 113.802 96.775 113.502 96.9539 113.227C97.1328 112.953 97.3034 112.657 97.4864 112.383C97.1494 112.424 96.8124 112.47 96.4796 112.528C96.1467 112.587 95.8222 112.691 95.4893 112.761C95.1565 112.832 94.8195 112.882 94.4949 112.974C94.1704 113.065 93.8375 113.144 93.5172 113.257C93.1968 113.369 92.9056 113.552 92.5977 113.689C92.2898 113.827 91.9777 113.956 91.6782 114.118C91.3744 114.28 91.0582 114.422 90.767 114.609C90.4757 114.796 90.2094 115.012 89.9348 115.22C89.6602 115.428 89.394 115.645 89.1318 115.874C88.8697 116.102 88.645 116.36 88.3996 116.602C88.1541 116.843 87.9128 117.084 87.6798 117.338C87.4468 117.592 87.2346 117.858 87.0141 118.125C86.7935 118.391 86.5689 118.649 86.3608 118.923C86.1528 119.198 85.9032 119.439 85.7034 119.722C85.5037 120.005 85.3332 120.305 85.1418 120.592C84.9504 120.879 84.7881 121.183 84.605 121.478C84.422 121.773 84.1973 122.036 84.0225 122.335C83.8478 122.635 83.7355 122.968 83.5649 123.267C83.3943 123.567 83.2279 123.87 83.0656 124.17C82.8992 124.474 82.7494 124.786 82.5954 125.089C82.4415 125.385 82.2168 125.639 82.067 125.934C81.9173 126.229 81.7633 126.525 81.6177 126.82C81.4721 127.116 81.4096 127.453 81.264 127.752C81.1184 128.052 80.9561 128.339 80.8147 128.639C80.6732 128.938 80.5484 129.246 80.4111 129.546C80.2738 129.845 80.1573 130.157 80.0241 130.461C79.891 130.765 79.6871 131.035 79.5582 131.339C79.4292 131.643 79.3668 131.98 79.2378 132.283C79.1088 132.587 78.9507 132.878 78.8217 133.186C78.6927 133.494 78.5596 133.794 78.4348 134.101C78.31 134.409 78.1685 134.709 78.0478 135.017C77.9272 135.325 77.8065 135.633 77.6859 135.94C77.5694 136.248 77.4986 136.577 77.3821 136.889C77.2656 137.201 77.1533 137.509 77.041 137.821C76.9286 138.133 76.7996 138.437 76.6873 138.749C76.575 139.061 76.446 139.365 76.3378 139.677C76.2296 139.989 76.1298 140.305 76.0216 140.617C75.9134 140.929 75.8302 141.254 75.7262 141.566C75.6222 141.878 75.5348 142.198 75.4349 142.514C75.3351 142.831 75.1562 143.122 75.0563 143.434C74.9565 143.746 74.9107 144.083 74.8108 144.399C74.711 144.715 74.6236 145.036 74.5238 145.352C74.4239 145.676 74.2824 145.988 74.1826 146.313C74.0827 146.638 74.0037 146.966 73.9038 147.291C73.804 147.615 73.7332 147.948 73.6334 148.273C73.5335 148.597 73.3879 148.905 73.288 149.23C73.1882 149.554 73.1341 149.891 73.0342 150.216C72.9344 150.54 72.7347 150.836 72.6348 151.16C72.535 151.485 72.4434 151.813 72.3477 152.138C72.252 152.462 72.2562 152.82 72.1605 153.145C72.0648 153.469 71.915 153.781 71.8193 154.106C71.7236 154.43 71.6404 154.763 71.5489 155.088C71.4573 155.412 71.4074 155.754 71.3159 156.082C71.2244 156.411 71.0288 156.71 70.9414 157.039C70.8541 157.368 70.7792 157.701 70.6959 158.029C70.6127 158.358 70.517 158.687 70.438 159.015C70.334 159.436 70.5378 159.827 70.7792 160.135C71.0205 160.443 71.3492 160.634 71.7819 160.634C72.2936 160.634 72.2936 160.634 72.8096 160.634C73.3255 160.634 73.3255 160.659 73.8372 160.659C74.349 160.659 74.3532 160.726 74.8649 160.726C75.3767 160.726 75.3809 160.638 75.8926 160.638C76.4044 160.638 76.4085 160.684 76.9203 160.684C77.4321 160.684 77.4321 160.68 77.948 160.68C78.4639 160.68 78.4639 160.638 78.9757 160.638C79.4874 160.638 79.4916 160.659 80.0033 160.659C80.5151 160.659 80.5193 160.688 81.031 160.688C81.5428 160.688 81.547 160.713 82.0587 160.713C82.5705 160.713 82.5746 160.73 83.0906 160.73C83.6065 160.73 83.6273 160.834 84.1266 160.692C84.164 160.384 84.2139 160.068 84.2555 159.76C84.2971 159.452 84.3138 159.14 84.3596 158.832C84.4012 158.525 84.4553 158.217 84.501 157.913C84.5468 157.609 84.6009 157.301 84.6466 156.993C84.6966 156.669 84.7132 156.336 84.7631 156.007C84.8131 155.679 84.8672 155.354 84.9171 155.03C84.967 154.705 85.0169 154.376 85.071 154.052C85.1251 153.727 85.2083 153.403 85.2583 153.078C85.3082 152.754 85.3748 152.429 85.4288 152.1C85.4829 151.772 85.458 151.435 85.5121 151.11C85.5662 150.786 85.6785 150.469 85.7326 150.141C85.7867 149.816 85.7867 149.479 85.8408 149.155C85.8948 148.83 85.9989 148.51 86.0529 148.185C86.107 147.861 86.1694 147.536 86.2277 147.208C86.2859 146.883 86.3692 146.563 86.4274 146.238C86.4857 145.914 86.4648 145.572 86.5231 145.248C86.5813 144.923 86.6812 144.603 86.7395 144.278C86.7977 143.954 86.856 143.629 86.9142 143.305C86.9725 142.98 87.0557 142.66 87.1139 142.335C87.1722 142.011 87.2304 141.686 87.2928 141.362C87.3552 141.037 87.4093 140.713 87.4717 140.388C87.5341 140.064 87.5716 139.735 87.6298 139.41C87.6881 139.086 87.7463 138.761 87.8087 138.437L87.8212 138.449Z" fill="#B43830"/>
<path d="M133.098 149.136C133.086 148.812 133.015 148.487 132.998 148.162C132.982 147.838 132.948 147.513 132.932 147.185C132.915 146.856 132.99 146.527 132.969 146.203C132.948 145.878 132.89 145.554 132.865 145.229C132.844 144.905 132.753 144.584 132.728 144.256C132.703 143.927 132.786 143.594 132.757 143.27C132.728 142.945 132.645 142.625 132.616 142.3C132.586 141.976 132.507 141.655 132.47 141.331C132.433 141.006 132.478 140.673 132.441 140.349C132.403 140.024 132.32 139.704 132.279 139.383C132.237 139.063 132.241 138.73 132.195 138.406C132.15 138.081 132.054 137.765 132.004 137.445C131.954 137.124 131.9 136.8 131.846 136.479C131.792 136.159 131.738 135.834 131.675 135.514C131.613 135.194 131.513 134.882 131.446 134.561C131.38 134.241 131.392 133.904 131.322 133.588C131.251 133.271 131.072 132.976 130.993 132.66C130.914 132.344 130.931 132.002 130.843 131.686C130.756 131.37 130.66 131.058 130.569 130.746C130.477 130.434 130.306 130.143 130.207 129.831C130.107 129.519 130.003 129.211 129.895 128.903C129.786 128.595 129.724 128.27 129.607 127.967C129.491 127.663 129.366 127.359 129.245 127.055C129.121 126.752 129 126.452 128.867 126.153C128.734 125.853 128.609 125.553 128.467 125.258C128.326 124.958 128.189 124.659 128.035 124.368C127.881 124.076 127.723 123.785 127.56 123.498C127.398 123.211 127.161 122.97 126.986 122.687C126.811 122.404 126.682 122.1 126.499 121.825C126.316 121.551 126.083 121.31 125.892 121.043C125.701 120.777 125.538 120.486 125.339 120.224C125.139 119.962 124.96 119.679 124.752 119.425C124.544 119.171 124.336 118.909 124.115 118.663C123.895 118.418 123.62 118.222 123.387 117.985C123.154 117.748 122.942 117.494 122.701 117.27C122.459 117.045 122.231 116.804 121.981 116.587C121.731 116.371 121.457 116.184 121.195 115.984C120.932 115.784 120.658 115.597 120.387 115.41C120.117 115.223 119.817 115.077 119.539 114.898C119.26 114.719 119.019 114.478 118.731 114.32C118.436 114.153 118.095 114.095 117.795 113.954C117.496 113.812 117.213 113.612 116.905 113.496C116.597 113.379 116.256 113.329 115.94 113.234C115.623 113.138 115.307 113.03 114.983 112.951C114.658 112.872 114.329 112.838 114.001 112.776C113.672 112.714 113.368 112.647 113.036 112.605C112.794 112.838 112.578 113.071 112.345 113.313C112.112 113.554 111.854 113.775 111.629 114.024C111.405 114.274 111.209 114.548 110.988 114.806C110.768 115.064 110.527 115.297 110.319 115.56C110.106 115.822 109.89 116.08 109.686 116.346C109.482 116.612 109.245 116.854 109.045 117.124C108.846 117.394 108.688 117.694 108.492 117.964C108.297 118.235 108.097 118.505 107.905 118.78C107.714 119.054 107.539 119.342 107.352 119.62C107.165 119.899 106.986 120.182 106.799 120.461C106.611 120.74 106.374 120.985 106.195 121.268C106.016 121.551 105.9 121.875 105.725 122.158C105.55 122.441 105.313 122.691 105.139 122.978C104.964 123.265 104.797 123.556 104.631 123.843C104.465 124.13 104.377 124.472 104.211 124.763C104.044 125.054 103.807 125.304 103.645 125.599C103.483 125.89 103.362 126.207 103.204 126.502C103.046 126.797 102.929 127.114 102.771 127.409C102.613 127.705 102.467 128.004 102.318 128.304C102.168 128.603 102.006 128.894 101.856 129.198C101.706 129.502 101.531 129.785 101.386 130.089C101.24 130.392 101.078 130.684 100.936 130.987C100.795 131.291 100.653 131.595 100.516 131.898C100.379 132.202 100.229 132.506 100.096 132.81C99.9627 133.118 99.9128 133.459 99.7797 133.767C99.6465 134.074 99.4718 134.366 99.3469 134.674C99.2221 134.981 99.1389 135.31 99.0141 135.622C98.8893 135.934 98.6937 136.217 98.5731 136.529C98.4524 136.841 98.3109 137.145 98.1944 137.461C98.0779 137.777 97.9573 138.09 97.8408 138.402C97.7243 138.718 97.691 139.059 97.5787 139.375C97.4663 139.691 97.2833 139.983 97.1709 140.299C97.0586 140.615 96.9504 140.931 96.8422 141.247C96.734 141.564 96.6342 141.884 96.5302 142.204C96.4262 142.521 96.3679 142.853 96.2639 143.174C96.1599 143.494 96.0434 143.806 95.9435 144.127C95.8437 144.447 95.7397 144.763 95.644 145.084C95.5483 145.404 95.4359 145.72 95.3444 146.041C95.2529 146.361 95.1655 146.685 95.0739 147.01C94.9824 147.335 94.9158 147.663 94.8285 147.984C94.7369 148.308 94.6204 148.62 94.5331 148.945C94.4457 149.269 94.3625 149.594 94.2751 149.914C94.1877 150.234 94.0837 150.555 94.0005 150.879C93.9173 151.204 93.8507 151.533 93.7675 151.857C93.6843 152.182 93.6843 152.527 93.6052 152.852C93.5262 153.176 93.3556 153.48 93.2807 153.808C93.2058 154.137 93.1517 154.466 93.0768 154.795C93.0019 155.123 92.8979 155.439 92.8272 155.768C92.7565 156.097 92.6857 156.421 92.615 156.75C92.5443 157.079 92.5567 157.424 92.486 157.749C92.4153 158.073 92.2821 158.389 92.2114 158.718C92.1407 159.047 92.0991 159.38 92.0325 159.708C91.9659 160.037 91.8869 160.362 91.8203 160.69C92.2988 160.857 92.3237 160.674 92.8313 160.674C93.339 160.674 93.3348 160.644 93.8424 160.644C94.35 160.644 94.3458 160.636 94.8534 160.636C95.361 160.636 95.3569 160.703 95.8645 160.703C96.3721 160.703 96.3679 160.69 96.8755 160.69C97.3831 160.69 97.379 160.653 97.8866 160.653C98.3942 160.653 98.39 160.715 98.8976 160.715C99.4052 160.715 99.401 160.715 99.9086 160.715C100.416 160.715 100.412 160.649 100.92 160.649C101.427 160.649 101.423 160.719 101.931 160.719C102.438 160.719 102.438 160.74 102.942 160.74C103.445 160.74 103.445 160.703 103.953 160.703C104.46 160.703 104.456 160.736 104.964 160.736C105.471 160.736 105.467 160.649 105.975 160.649C106.482 160.649 106.478 160.636 106.986 160.636C107.494 160.636 107.489 160.678 107.997 160.678C108.505 160.678 108.5 160.682 109.008 160.682C109.516 160.682 109.511 160.719 110.019 160.719C110.527 160.719 110.522 160.636 111.03 160.636C111.538 160.636 111.534 160.715 112.037 160.715C112.54 160.715 112.54 160.653 113.048 160.653C113.556 160.653 113.551 160.69 114.059 160.69C114.567 160.69 114.562 160.69 115.07 160.69C115.578 160.69 115.574 160.661 116.081 160.661C116.589 160.661 116.585 160.686 117.092 160.686C117.6 160.686 117.6 160.686 118.103 160.686C118.607 160.686 118.607 160.707 119.114 160.707C119.622 160.707 119.622 160.649 120.125 160.649C120.629 160.649 120.629 160.649 121.136 160.649C121.644 160.649 121.644 160.686 122.147 160.686C122.651 160.686 122.655 160.748 123.158 160.748C123.662 160.748 123.666 160.682 124.169 160.682C124.673 160.682 124.677 160.64 125.18 160.64C125.684 160.64 125.684 160.649 126.192 160.649C126.699 160.649 126.699 160.732 127.203 160.732C127.706 160.732 127.71 160.653 128.214 160.653C128.717 160.653 128.721 160.711 129.225 160.711C129.728 160.711 129.732 160.669 130.236 160.669C130.739 160.669 130.743 160.669 131.251 160.669C131.758 160.669 131.763 160.769 132.258 160.661C132.578 160.362 132.74 160.199 133.061 159.9C133.082 159.575 133.123 159.267 133.136 158.939C133.148 158.61 133.202 158.285 133.211 157.961C133.219 157.636 133.148 157.308 133.156 156.979C133.165 156.65 133.19 156.326 133.194 156.001C133.198 155.677 133.177 155.348 133.177 155.019C133.177 154.691 133.198 154.366 133.194 154.037C133.19 153.709 133.198 153.384 133.194 153.055C133.19 152.727 133.132 152.402 133.123 152.078C133.115 151.749 133.19 151.42 133.177 151.096C133.165 150.767 133.111 150.443 133.098 150.118C133.086 149.793 133.115 149.465 133.098 149.136Z" fill="#B43830"/>
<path d="M83.4678 125.789C83.1765 126.879 82.8811 127.965 82.5899 129.055C82.4442 129.591 82.3444 130.137 82.2071 130.677C82.0698 131.218 81.8909 131.776 81.7369 132.329C81.4457 133.398 81.1628 134.476 80.8923 135.55C80.7509 136.103 80.626 136.66 80.4721 137.214C80.3348 137.713 80.339 138.237 80.1808 138.728C80.106 138.961 80.0144 139.19 79.952 139.427C79.8854 139.681 79.8646 139.943 79.823 140.201C79.744 140.721 79.4694 141.179 79.3862 141.699C79.3487 141.94 79.3279 142.186 79.2697 142.427C79.2114 142.681 79.1157 142.926 79.0408 143.176C78.8827 143.7 78.7454 144.233 78.6289 144.765C78.3959 145.839 78.2295 146.912 77.9424 147.973C77.7968 148.51 77.7011 149.055 77.568 149.596C77.439 150.124 77.2725 150.636 77.1311 151.16C76.9688 151.768 76.8274 152.363 76.7649 152.991C76.7067 153.569 76.482 154.135 76.3697 154.705C76.2573 155.275 76.0327 155.854 75.9495 156.444C75.912 156.719 75.8954 156.994 75.833 157.264C75.7581 157.564 75.654 157.851 75.5833 158.15C75.5084 158.479 75.6873 158.824 76.0202 158.92C76.3364 159.007 76.7109 158.812 76.7899 158.483C76.9147 157.942 77.0853 157.443 77.1477 156.89C77.2018 156.403 77.3807 155.962 77.4889 155.487C77.6096 154.942 77.7136 154.402 77.8592 153.865C78.0048 153.328 78.009 152.8 78.1421 152.271C78.4042 151.227 78.7288 150.199 78.9493 149.142C79.0658 148.581 79.2322 148.036 79.357 147.474C79.4735 146.954 79.5651 146.438 79.6566 145.914C79.7481 145.39 79.8771 144.836 80.0227 144.312C80.1684 143.788 80.3473 143.28 80.4721 142.76C80.5969 142.24 80.6094 141.77 80.8049 141.283C80.8965 141.05 80.9755 140.825 81.0171 140.58C81.0587 140.334 81.0754 140.06 81.142 139.806C81.2002 139.569 81.2917 139.34 81.3708 139.107C81.4665 138.816 81.5081 138.524 81.5414 138.221C81.5955 137.709 81.7785 137.218 81.8992 136.719C82.1613 135.624 82.4234 134.522 82.7313 133.44C82.9019 132.841 83.0475 132.234 83.2264 131.639C83.4054 131.044 83.5177 130.432 83.68 129.829C84.0087 128.593 84.3415 127.361 84.6744 126.126C84.8824 125.348 83.68 125.019 83.4719 125.793L83.4678 125.789Z" fill="#831E18"/>
<path d="M68.7904 132.5C69.0525 132.304 69.2522 132.034 69.4936 131.826C69.7349 131.617 69.9804 131.401 70.205 131.172C70.4297 130.943 70.7168 130.756 70.9207 130.511C71.1245 130.265 71.2951 129.978 71.4782 129.712C71.6613 129.446 71.7694 129.134 71.9276 128.851C72.0857 128.568 72.3145 128.322 72.4393 128.023C72.5641 127.723 72.5891 127.39 72.6848 127.078C72.7805 126.766 72.9469 126.483 73.0135 126.163C73.0759 125.851 73.0842 125.522 73.1175 125.193C73.1508 124.865 73.1716 124.553 73.1757 124.224C73.1757 123.933 73.1674 123.633 73.1217 123.346C73.0759 123.059 73.0176 122.768 72.9469 122.485C72.8762 122.202 72.8096 121.915 72.7306 121.636C72.6432 121.332 72.5433 121.024 72.4352 120.725C72.327 120.425 72.1439 120.151 72.0191 119.864C71.8943 119.577 71.7694 119.277 71.6197 118.998C71.4699 118.719 71.2826 118.461 71.0996 118.199C70.9165 117.937 70.7792 117.642 70.567 117.405C70.3548 117.167 70.1052 116.964 69.8555 116.764C69.6059 116.564 69.3313 116.414 69.0484 116.256C68.7654 116.098 68.4867 115.99 68.1788 115.882C67.8876 115.778 67.6046 115.62 67.2801 115.557C67.0138 115.507 66.735 115.532 66.4688 115.487C66.2025 115.441 65.932 115.391 65.6824 115.291C65.3745 115.162 65.0916 114.979 64.8336 114.763C64.5757 114.546 64.3801 114.276 64.1513 114.039C63.9224 113.806 63.6811 113.589 63.4523 113.356C63.2235 113.123 62.9905 112.894 62.7616 112.666C62.5328 112.437 62.3206 112.187 62.0876 111.958C61.8546 111.73 61.6299 111.492 61.3928 111.272C61.1556 111.051 60.8602 110.889 60.6189 110.673C60.3776 110.456 60.1778 110.186 59.9282 109.978C59.6786 109.77 59.4206 109.566 59.1626 109.366C58.9047 109.167 58.5926 109.042 58.3264 108.854C58.0601 108.667 57.7813 108.501 57.5025 108.33C57.2238 108.16 56.9658 107.96 56.6746 107.81C56.3833 107.66 56.0962 107.511 55.7967 107.382C55.4638 107.236 55.0894 107.12 54.7274 107.082C54.3446 107.04 53.9452 107.049 53.6373 107.273C53.3336 107.498 53.2545 107.893 53.2129 108.268C53.1755 108.63 53.1796 109.017 53.346 109.341C53.5125 109.674 53.7247 109.995 53.9909 110.257C54.2572 110.519 54.5776 110.723 54.8605 110.956C55.106 111.164 55.3848 111.338 55.6219 111.555C55.8591 111.771 56.0338 112.054 56.2668 112.279C56.4998 112.503 56.7203 112.732 56.9409 112.965C57.1614 113.198 57.3777 113.435 57.5899 113.677C57.8021 113.918 58.0268 114.151 58.2307 114.401C58.4345 114.65 58.6592 114.883 58.8548 115.141C59.0503 115.399 59.2375 115.657 59.4206 115.923C59.6037 116.19 59.7659 116.427 59.9365 116.697C59.612 116.498 59.2833 116.323 58.9172 116.194C58.551 116.065 58.1516 115.961 57.773 115.953C57.3944 115.944 56.9908 116.036 56.633 116.206C56.2751 116.377 56.0338 116.677 55.8508 117.009C55.6635 117.351 55.5304 117.738 55.5595 118.099C55.5928 118.482 55.8383 118.819 56.1753 119.048C55.8924 119.094 55.5762 119.219 55.3265 119.368C55.0769 119.518 54.8272 119.681 54.6483 119.905C54.4694 120.13 54.3779 120.417 54.2988 120.696C54.1865 121.079 54.2739 121.507 54.4029 121.915C54.5485 122.377 54.7191 122.809 54.561 123.117C54.432 123.371 54.1782 123.529 53.8786 123.65C53.6165 123.754 53.3003 123.795 53.0506 123.954C52.8218 124.103 52.6387 124.34 52.5264 124.661C52.4141 124.981 52.4515 125.293 52.4723 125.614C52.4931 125.934 52.5097 126.259 52.6346 126.562C52.7594 126.866 52.93 127.145 53.1214 127.399C53.3128 127.652 53.5125 127.923 53.7496 128.139C53.9868 128.356 54.2905 128.501 54.5485 128.693C54.8064 128.884 55.0311 129.125 55.2974 129.308C55.5803 129.504 55.909 129.641 56.1961 129.837C56.4832 130.032 56.7453 130.261 57.0282 130.461C57.3112 130.661 57.5691 130.898 57.852 131.097C58.135 131.297 58.4429 131.464 58.7258 131.659C59.0087 131.855 59.3041 132.042 59.5954 132.233C59.8866 132.425 60.182 132.612 60.4816 132.787C60.7811 132.961 61.0724 133.161 61.3844 133.311C61.6965 133.461 62.0293 133.581 62.358 133.689C62.6867 133.798 63.0237 133.893 63.3691 133.947C63.6853 133.997 64.0057 133.997 64.3219 133.997C64.6381 133.997 64.9501 133.927 65.2663 133.881C65.5825 133.835 65.8946 133.802 66.2025 133.71C66.5104 133.619 66.785 133.469 67.0762 133.34C67.3675 133.211 67.6878 133.144 67.9624 132.986C68.237 132.828 68.5283 132.678 68.7821 132.491L68.7904 132.5Z" fill="#EBBEA7"/>
<path d="M98.1952 103.513C98.2036 103.862 98.1287 104.212 98.1245 104.557C98.1245 104.907 98.1786 105.256 98.1661 105.601C98.1536 105.951 98.1453 106.3 98.1203 106.646C98.0954 106.991 97.9706 107.332 97.9331 107.678C97.8998 108.023 97.8957 108.372 97.8499 108.718C97.8041 109.063 97.7709 109.413 97.7168 109.754C97.6585 110.099 97.5337 110.428 97.463 110.769C97.3922 111.11 97.3589 111.46 97.2841 111.797C97.2092 112.134 97.1884 112.491 97.0968 112.828C97.0344 113.061 96.9637 113.299 97.0885 113.498C97.2133 113.694 97.4297 113.706 97.646 113.727C97.983 113.76 98.3159 113.785 98.6529 113.81C98.9899 113.835 99.3228 113.885 99.6598 113.906C99.9968 113.927 100.33 113.96 100.667 113.973C101.004 113.985 101.341 113.973 101.678 113.981C102.015 113.989 102.352 113.989 102.689 113.993C103.026 113.998 103.363 114.081 103.7 114.077C104.037 114.073 104.374 114.006 104.711 113.998C105.048 113.989 105.385 114.039 105.722 114.027C106.059 114.014 106.392 113.964 106.729 113.944C107.066 113.923 107.399 113.889 107.736 113.86C108.073 113.831 108.406 113.781 108.738 113.748C109.071 113.715 109.408 113.665 109.741 113.627C110.074 113.59 110.423 113.636 110.756 113.59C111.089 113.544 111.418 113.448 111.751 113.398C111.855 113.382 111.971 113.365 112.046 113.29C112.167 113.165 112.167 112.945 112.138 112.77C112.088 112.437 112.067 112.105 112.021 111.772C111.975 111.439 111.884 111.114 111.846 110.781C111.809 110.449 111.722 110.12 111.688 109.787C111.655 109.454 111.717 109.109 111.688 108.776C111.659 108.443 111.555 108.114 111.53 107.777C111.505 107.44 111.472 107.108 111.455 106.775C111.439 106.442 111.439 106.105 111.426 105.768C111.414 105.431 111.468 105.094 111.459 104.761C111.451 104.428 111.459 104.091 111.459 103.754C111.459 103.417 111.343 103.084 111.347 102.747C111.351 102.41 111.389 102.077 111.397 101.74C111.405 101.403 111.439 101.07 111.447 100.733C111.455 100.396 111.439 100.064 111.455 99.7266" fill="#EBBEA7"/>
<path d="M84.5074 94.0762C84.6073 94.1469 84.6572 94.2842 84.7238 94.3924C84.911 94.692 84.911 95.0664 84.911 95.4243C84.911 95.7529 84.911 96.0816 84.9443 96.4103C84.9776 96.739 84.9817 97.0719 85.0483 97.3964C85.1149 97.7168 85.2688 98.0205 85.3645 98.3367C85.456 98.6529 85.4893 98.9899 85.61 99.2978C85.7306 99.6057 85.8471 99.9178 85.9928 100.213C86.1384 100.509 86.3755 100.754 86.542 101.041C86.7084 101.328 86.7916 101.665 86.9747 101.936C87.1619 102.21 87.4032 102.443 87.6071 102.701C87.811 102.959 88.0481 103.192 88.2686 103.434C88.4933 103.679 88.6805 103.958 88.9219 104.178C89.1715 104.407 89.442 104.611 89.6999 104.815C89.9579 105.019 90.22 105.252 90.4946 105.435C90.7692 105.618 91.0979 105.739 91.3891 105.901C91.6804 106.063 91.9924 106.192 92.2962 106.329C92.5999 106.467 92.8787 106.675 93.1949 106.787C93.5111 106.899 93.8523 106.933 94.1726 107.028C94.493 107.124 94.8217 107.174 95.1504 107.245C95.4791 107.315 95.787 107.469 96.1198 107.519C96.4527 107.569 96.7814 107.619 97.1184 107.652C97.4554 107.686 97.7924 107.615 98.1253 107.636C98.4581 107.657 98.7868 107.761 99.1238 107.769C99.4608 107.777 99.7937 107.777 100.131 107.769C100.468 107.761 100.801 107.769 101.138 107.756C101.475 107.744 101.807 107.719 102.14 107.698C102.473 107.677 102.806 107.603 103.139 107.578C103.472 107.553 103.805 107.507 104.137 107.474C104.47 107.44 104.807 107.411 105.14 107.378C105.473 107.345 105.806 107.303 106.139 107.265C106.472 107.228 106.809 107.211 107.137 107.178C107.474 107.141 107.811 107.107 108.144 107.066C108.477 107.024 108.81 106.949 109.143 106.891C109.476 106.833 109.808 106.783 110.137 106.7C110.466 106.616 110.778 106.492 111.098 106.379C111.394 106.279 111.677 106.155 111.959 106.03C112.242 105.905 112.538 105.801 112.808 105.651C113.079 105.501 113.353 105.356 113.62 105.189C113.886 105.023 114.165 104.886 114.423 104.707C114.681 104.528 114.914 104.32 115.159 104.133C115.404 103.945 115.625 103.721 115.866 103.525C116.108 103.33 116.399 103.192 116.636 102.993C116.894 102.78 117.139 102.556 117.385 102.331C117.63 102.106 117.809 101.815 118.042 101.578C118.275 101.341 118.554 101.145 118.775 100.9C118.995 100.654 119.187 100.38 119.395 100.117C119.603 99.8554 119.827 99.614 120.023 99.3436C120.218 99.0732 120.381 98.7819 120.564 98.5031C120.747 98.2244 120.93 97.9498 121.1 97.6669C121.271 97.3839 121.483 97.1176 121.641 96.8264C121.799 96.5352 121.883 96.2023 122.024 95.9027C122.166 95.6032 122.307 95.3036 122.44 94.9999C122.573 94.6961 122.727 94.4007 122.848 94.0887C122.969 93.7766 123.014 93.4438 123.118 93.1276C123.222 92.8114 123.322 92.4993 123.414 92.1789C123.505 91.8586 123.672 91.559 123.751 91.2386C123.83 90.9183 123.842 90.5771 123.909 90.2526C123.975 89.928 124.109 89.6118 124.163 89.2873C124.217 88.9586 124.179 88.6174 124.217 88.2887C124.254 87.96 124.271 87.6272 124.3 87.2985C124.329 86.9698 124.379 86.6369 124.391 86.3083C124.404 85.9754 124.412 85.6467 124.408 85.3139C124.404 84.981 124.45 84.6481 124.433 84.3153C124.416 83.9824 124.3 83.6579 124.267 83.3292C124.233 82.9964 124.238 82.6635 124.183 82.339C124.129 82.0144 124.021 81.6941 123.95 81.3737C123.88 81.0533 123.834 80.7205 123.747 80.4001C123.659 80.0797 123.63 79.7386 123.522 79.4265C123.414 79.1145 123.239 78.8232 123.114 78.5153C122.989 78.2074 122.906 77.8829 122.769 77.5792C122.627 77.2796 122.394 77.0258 122.24 76.7304C122.086 76.4392 121.916 76.1562 121.745 75.8733C121.575 75.5904 121.425 75.295 121.238 75.0204C121.05 74.7458 120.859 74.4795 120.659 74.2132C120.46 73.9469 120.297 73.6557 120.085 73.3977C119.873 73.1398 119.677 72.8735 119.453 72.628C119.228 72.3825 118.958 72.1828 118.725 71.9456C118.492 71.7085 118.225 71.5129 117.98 71.2883C117.734 71.0636 117.489 70.8472 117.231 70.635C116.973 70.4228 116.719 70.2148 116.453 70.0193C116.187 69.8237 115.945 69.5907 115.671 69.4035C115.396 69.2163 115.113 69.0415 114.83 68.8668C114.547 68.692 114.256 68.5381 113.965 68.3758C113.674 68.2135 113.387 68.0513 113.087 67.9056C112.787 67.76 112.463 67.681 112.159 67.5437C111.855 67.4064 111.568 67.2441 111.26 67.1234C110.953 67.0028 110.649 66.8696 110.333 66.7615C110.016 66.6533 109.7 66.5618 109.384 66.4661C109.068 66.3704 108.739 66.3121 108.419 66.2331C108.098 66.154 107.778 66.0666 107.449 66.0042C107.121 65.9418 106.804 65.8503 106.476 65.8004C106.147 65.7504 105.818 65.7005 105.49 65.6672C105.161 65.6339 104.828 65.5882 104.499 65.5674C104.162 65.5466 103.821 65.559 103.48 65.5549C103.139 65.5507 102.806 65.6173 102.465 65.6339C102.124 65.6506 101.787 65.6214 101.45 65.6547C101.113 65.688 100.776 65.7171 100.439 65.7629C100.102 65.8087 99.7729 65.8919 99.44 65.9585C99.1072 66.025 98.791 66.1498 98.4623 66.2289C98.1336 66.308 97.809 66.3995 97.4845 66.4993C97.16 66.5992 96.8313 66.6741 96.5151 66.7864C96.1989 66.8988 95.8535 66.9487 95.5415 67.0818C95.2294 67.215 94.9382 67.3897 94.6303 67.5353C94.3224 67.681 94.0104 67.81 93.7108 67.9722C93.4112 68.1345 93.1574 68.3675 92.8703 68.5464C92.5832 68.7253 92.2587 68.8501 91.9841 69.0457C91.7095 69.2412 91.4349 69.4451 91.1686 69.6573C90.9023 69.8695 90.686 70.1358 90.4363 70.3604C90.1867 70.5893 89.8955 70.7765 89.6583 71.0178C89.4211 71.2591 89.2006 71.5213 88.9843 71.7834C88.7721 72.0372 88.6015 72.3243 88.4143 72.5906C88.227 72.8568 88.0814 73.1564 87.9108 73.4352C87.7402 73.7139 87.5447 73.9844 87.3991 74.2756C87.2534 74.5669 87.0621 74.8456 86.9331 75.1452C86.8041 75.4489 86.7458 75.7776 86.6377 76.0897C86.5295 76.4017 86.3464 76.6846 86.2549 77.0009C86.1634 77.3171 86.0801 77.6374 86.0052 77.9578C85.9262 78.2782 85.8971 78.6069 85.8347 78.9314C85.7722 79.2518 85.7265 79.5805 85.6766 79.905C85.6266 80.2295 85.6225 80.5582 85.5809 80.8869C85.5392 81.2156 85.4269 81.5318 85.3936 81.8563C85.3603 82.1809 85.3936 82.5179 85.3728 82.8424C85.3479 83.1711 85.3354 83.4998 85.3146 83.8243C85.2938 84.1489 85.1773 84.4734 85.1606 84.8021C85.144 85.1308 85.1606 85.4636 85.144 85.7882C85.1273 86.1127 85.1315 86.4456 85.1107 86.7742C85.0899 87.1029 85.0067 87.4275 84.99 87.752C84.9734 88.0765 84.99 88.3969 84.9692 88.7214C84.6697 88.659 84.3659 88.659 84.0581 88.6507C83.7502 88.6424 83.4506 88.6798 83.176 88.8338C82.814 89.0376 82.6185 89.3622 82.4853 89.7533C82.3605 90.1319 82.3314 90.5355 82.348 90.9307C82.3605 91.2844 82.3896 91.6422 82.4812 91.9876C82.5769 92.3412 82.7058 92.6741 82.9014 92.9653C83.0969 93.2566 83.3674 93.4854 83.6878 93.6601C83.954 93.8058 84.2703 93.8973 84.5116 94.0679L84.5074 94.0762Z" fill="#EBBEA7"/>
<path d="M84.8901 88.6825C84.3076 88.3538 83.4963 88.4079 82.9388 88.774C82.2814 89.2067 82.1191 89.939 82.0858 90.6754C82.0525 91.4701 82.2356 92.2357 82.7266 92.8723C83.2175 93.5089 83.8874 93.8833 84.6696 94.0456C84.9983 94.1163 85.3436 93.9499 85.4393 93.6087C85.5225 93.2967 85.3353 92.9097 85.0025 92.839C84.4491 92.7225 84.1204 92.5769 83.7459 92.1566C83.6544 92.0568 83.4963 91.778 83.4505 91.6407C83.359 91.3661 83.3257 91.183 83.3257 90.9001C83.3257 90.767 83.334 90.6338 83.3424 90.5007C83.3424 90.4424 83.3507 90.3842 83.359 90.3259C83.3465 90.4175 83.359 90.3259 83.3673 90.2843C83.3798 90.2261 83.3923 90.1678 83.4089 90.1096C83.4214 90.0763 83.4547 89.9806 83.4214 90.0597C83.4464 90.0056 83.4755 89.9515 83.5088 89.9016C83.4505 89.9848 83.567 89.8433 83.5712 89.8392C83.5046 89.914 83.5504 89.8516 83.6086 89.8183C83.6211 89.81 83.7501 89.7476 83.6794 89.7767C83.617 89.8059 83.7709 89.7476 83.7917 89.7435C83.8375 89.731 83.8832 89.7185 83.9332 89.7102C83.8042 89.7351 83.9789 89.7102 83.9956 89.7102C84.0538 89.7102 84.1079 89.7102 84.1662 89.7143C84.058 89.706 84.1662 89.7227 84.2161 89.7351C84.3409 89.7643 84.1412 89.6894 84.2577 89.7559C84.5489 89.9224 84.94 89.8267 85.1106 89.5313C85.2812 89.2359 85.1814 88.8448 84.886 88.6783L84.8901 88.6825Z" fill="#A55535"/>
<path d="M91.9944 90.7531C92.6493 90.7531 93.1802 89.9409 93.1802 88.939C93.1802 87.9372 92.6493 87.125 91.9944 87.125C91.3395 87.125 90.8086 87.9372 90.8086 88.939C90.8086 89.9409 91.3395 90.7531 91.9944 90.7531Z" fill="#2B2927"/>
<path d="M90.7177 83.0065C91.1296 83.0731 91.425 83.0606 91.7828 83.1854C92.1198 83.3019 92.4651 83.4642 92.798 83.639C93.1308 83.8137 93.4263 84.0009 93.7217 84.2256C94.0171 84.4503 94.3 84.625 94.5288 84.8289C94.7826 85.0494 95.1613 85.0785 95.4109 84.8289C95.6356 84.6042 95.6647 84.1674 95.4109 83.9469C95.103 83.6764 94.7618 83.4559 94.4331 83.2146C94.1044 82.9733 93.7841 82.7569 93.4221 82.5655C93.0352 82.3616 92.6274 82.1827 92.2197 82.0288C92.0158 81.9497 91.8202 81.8998 91.6039 81.8707C91.4915 81.854 91.3834 81.8416 91.271 81.8332C91.1587 81.8249 91.1129 81.8208 91.0464 81.8083C90.726 81.7542 90.3598 81.8915 90.2766 82.2451C90.2101 82.5447 90.3682 82.9566 90.7135 83.0149L90.7177 83.0065Z" fill="#2B2927"/>
<path d="M92.3209 98.9746C91.9007 99.0037 91.4805 99.0786 91.0644 99.141C90.7274 99.1951 90.3321 99.2284 90.0242 99.141C89.8911 99.1036 89.966 99.1161 89.991 99.1285C89.9535 99.1077 89.9161 99.0869 89.8786 99.062C89.9452 99.1077 89.862 99.0453 89.8537 99.037C89.8245 99.0079 89.7913 98.9746 89.7621 98.9455C89.7538 98.9371 89.6914 98.8539 89.7372 98.9163C89.7122 98.8789 89.6872 98.8415 89.6664 98.804C89.6123 98.7166 89.6082 98.7125 89.5874 98.6417C89.5333 98.4628 89.4958 98.2798 89.4459 98.1009C89.421 98.0052 89.3877 97.9136 89.3669 97.8179C89.3585 97.7722 89.3461 97.7306 89.3419 97.6848C89.3544 97.7722 89.3461 97.6765 89.3419 97.639C89.3419 97.6099 89.3419 97.5849 89.3419 97.5558C89.3502 97.664 89.3253 97.6141 89.3419 97.5683C89.3877 97.4601 89.3377 97.5683 89.3294 97.5849C89.3461 97.5558 89.3585 97.5308 89.3793 97.5059C89.2712 97.6681 89.3793 97.5142 89.3793 97.5267C89.3793 97.51 89.4875 97.456 89.3793 97.5267C89.4126 97.5059 89.4459 97.4851 89.4792 97.4684C89.4917 97.4601 89.6248 97.3977 89.5707 97.4227C89.6456 97.3894 89.8703 97.3311 90.0118 97.302C90.1865 97.2687 90.3529 97.2604 90.5651 97.2604C90.7607 97.2604 90.9521 97.2646 91.1435 97.2729C91.3723 97.2812 91.4389 97.2812 91.6469 97.3395C91.8217 97.3894 91.8882 97.4185 92.038 97.4976C92.0921 97.5267 92.1462 97.5558 92.2003 97.5849C92.2294 97.6016 92.2544 97.6182 92.2835 97.6349C92.3833 97.689 92.246 97.5933 92.296 97.6432C92.3209 97.6681 92.3459 97.689 92.3709 97.7139C92.4083 97.7514 92.4374 97.8054 92.3958 97.7347C92.4166 97.768 92.4374 97.8013 92.4541 97.8346C92.4125 97.7597 92.4624 97.8595 92.4749 97.8928C92.5123 97.9927 92.4749 97.8096 92.4874 97.9178C92.4915 97.976 92.4874 98.0301 92.4874 98.0884C92.4832 98.2007 92.4749 98.2215 92.4624 98.3214C92.4416 98.4795 92.4416 98.5044 92.4125 98.6376C92.4041 98.6792 92.3875 98.7208 92.375 98.7666L92.3542 98.8248C92.375 98.779 92.375 98.7749 92.3542 98.8123C92.3376 98.8456 92.3168 98.8789 92.296 98.9122C92.271 98.9496 92.2752 98.9413 92.3126 98.8914L92.2627 98.9455C92.2627 98.9455 92.167 99.037 92.167 99.0328C92.1503 98.9912 92.3126 98.9788 92.3168 98.9788C91.9839 99.0204 91.6927 99.2367 91.6927 99.6029C91.6927 99.9066 91.9798 100.269 92.3168 100.227C92.9242 100.152 93.3486 99.7194 93.5525 99.1535C93.6399 98.9122 93.6565 98.675 93.6856 98.467C93.7272 98.1549 93.7647 97.8346 93.6648 97.5267C93.3486 96.5573 92.2377 96.0788 91.2891 96.0288C90.7274 95.9997 90.1574 95.9956 89.6082 96.1162C89.1172 96.2244 88.5888 96.4491 88.3017 96.8859C88.0146 97.3228 88.0687 97.8387 88.2019 98.3006C88.3558 98.8415 88.4682 99.3407 88.8385 99.7818C89.2545 100.281 89.8869 100.464 90.5194 100.447C90.8647 100.439 91.21 100.381 91.5512 100.327C91.8508 100.277 92.0297 100.248 92.3168 100.227C92.6538 100.206 92.9409 99.9565 92.9409 99.6029C92.9409 99.2825 92.6538 98.958 92.3168 98.9788L92.3209 98.9746Z" fill="#A55535"/>
<path d="M94.6016 94.7011C95.4503 95.7829 96.0495 97.0061 96.5904 98.2585C96.8566 98.8784 96.9731 99.5358 97.0397 100.202C97.073 100.555 97.1728 100.892 97.2186 101.242C97.2644 101.579 97.2769 101.924 97.2769 102.261C97.2769 102.798 98.1132 102.798 98.109 102.261C98.109 101.878 98.084 101.491 98.0341 101.113C97.9883 100.776 97.8885 100.447 97.8635 100.106C97.8011 99.3527 97.6472 98.6205 97.3476 97.9215C97.0605 97.2558 96.7859 96.5901 96.4239 95.9618C96.0578 95.3211 95.65 94.6928 95.1924 94.1103C95.0551 93.9314 94.7513 93.9647 94.6057 94.1103C94.431 94.285 94.4684 94.5222 94.6057 94.697L94.6016 94.7011Z" fill="#BC7F6C"/>
<path d="M95.9085 88.5743C96.4078 88.5743 96.9029 88.6159 97.398 88.6159C97.6144 88.6159 97.8224 88.4245 97.8141 88.1999C97.8058 87.9752 97.631 87.7838 97.398 87.7838C96.8987 87.7838 96.4036 87.7422 95.9085 87.7422C95.6921 87.7422 95.4841 87.9336 95.4924 88.1583C95.5008 88.3829 95.6755 88.5743 95.9085 88.5743Z" fill="#BC7F6C"/>
<path d="M95.7014 90.3922C96.1342 90.4463 96.571 90.4463 97.0037 90.5004C97.1036 90.5129 97.2326 90.4463 97.2991 90.3798C97.3699 90.309 97.424 90.1884 97.4198 90.0844C97.4156 89.9803 97.3782 89.8638 97.2991 89.7889C97.2118 89.7099 97.1202 89.6808 97.0037 89.6683C96.571 89.6142 96.1342 89.6142 95.7014 89.5601C95.6016 89.5476 95.4726 89.6142 95.406 89.6808C95.3353 89.7515 95.2812 89.8722 95.2854 89.9762C95.2895 90.0802 95.327 90.1967 95.406 90.2716C95.4934 90.3506 95.5849 90.3798 95.7014 90.3922Z" fill="#BC7F6C"/>
<path d="M114.156 89.1093C113.985 88.8098 113.794 88.5268 113.573 88.2647C113.353 88.0026 113.116 87.7571 112.858 87.5283C112.6 87.2995 112.346 87.0748 112.067 86.8751C111.789 86.6754 111.456 86.5713 111.164 86.3841C110.873 86.1969 110.594 86.0138 110.299 85.8432C110.004 85.6726 109.729 85.4646 109.438 85.2899C109.147 85.1151 108.834 84.9653 108.547 84.7823C108.26 84.5992 107.948 84.4369 107.678 84.2414C107.407 84.0458 107.12 83.8336 106.866 83.6089C106.617 83.3884 106.396 83.1305 106.151 82.9058C105.905 82.6811 105.681 82.4315 105.439 82.1985C105.198 81.9655 104.923 81.7699 104.69 81.5286C104.457 81.2873 104.299 80.9794 104.079 80.7298C103.858 80.4801 103.563 80.2887 103.355 80.0266C103.147 79.7645 102.947 79.4899 102.752 79.2195C102.556 78.949 102.352 78.6786 102.173 78.3956C101.994 78.1127 101.84 77.809 101.682 77.5177C101.524 77.2265 101.445 76.8895 101.312 76.5816C101.179 76.2737 101.021 75.9825 100.908 75.6662C100.8 75.35 100.692 74.9922 100.613 74.6635C100.409 74.9423 100.172 75.2502 99.9556 75.5248C99.7393 75.7994 99.5229 76.0698 99.2983 76.332C99.0736 76.5941 98.8905 76.9061 98.6534 77.1558C98.4162 77.4054 98.1208 77.6134 97.8711 77.8506C97.6215 78.0878 97.3261 78.2833 97.0557 78.5038C96.7852 78.7243 96.5522 78.9948 96.2693 79.1903C95.9864 79.3859 95.6535 79.5232 95.3498 79.6896C95.0461 79.856 94.759 80.0682 94.4386 80.2014C94.1182 80.3345 93.7646 80.372 93.4276 80.4677C93.0906 80.5633 92.7702 80.6757 92.4207 80.7256C92.1336 80.7672 91.8382 80.7839 91.5428 80.7797C91.2474 80.7755 90.952 80.7381 90.669 80.6757C90.3861 80.6133 90.1115 80.4885 89.8619 80.3428C89.6122 80.1972 89.3584 80.01 89.1754 79.7687C89.0297 80.0765 88.8508 80.3886 88.6844 80.684C88.518 80.9794 88.3724 81.2873 88.181 81.5702C87.9896 81.8531 87.7649 82.107 87.5527 82.3732C87.3405 82.6395 87.1117 82.885 86.8787 83.1346C86.6707 83.3593 86.4335 83.5632 86.1922 83.7671C85.9509 83.9709 85.7179 84.1706 85.4557 84.3412C85.1936 84.5118 84.9107 84.6408 84.6236 84.7573C84.3365 84.8738 84.0411 84.9736 83.7332 85.0111C83.4253 85.0485 83.1299 85.0277 82.8137 84.9736C82.4393 84.9071 82.0898 84.878 81.8152 84.7157C81.5073 84.5326 81.2992 84.2455 81.1079 83.9668C80.9165 83.688 80.7084 83.4051 80.6127 83.0597C80.5254 82.7435 80.5628 82.3816 80.542 82.0237C80.5212 81.6909 80.4505 81.3455 80.4796 80.9919C80.5087 80.6382 80.6044 80.3179 80.6627 79.9725C80.7209 79.6314 80.8208 79.3027 80.904 78.9698C80.9872 78.637 81.0704 78.2916 81.1703 77.9754C81.2826 77.6301 81.3367 77.2806 81.4532 76.981C81.5946 76.619 81.7236 76.2903 81.8526 76.0282C81.9982 75.7328 82.173 75.4499 82.3352 75.1586C82.4933 74.8674 82.6473 74.572 82.8179 74.2891C82.9885 74.0061 83.1757 73.7315 83.3588 73.4569C83.5418 73.1823 83.7832 72.9452 83.9787 72.6789C84.1743 72.4126 84.3864 72.1588 84.5903 71.9008C84.7942 71.6429 84.9357 71.3308 85.152 71.0812C85.3684 70.8316 85.6138 70.6069 85.8427 70.3656C86.0674 70.1242 86.2837 69.8704 86.5209 69.6416C86.758 69.4128 87.0368 69.2255 87.2823 69.005C87.5277 68.7845 87.7275 68.5099 87.9854 68.2977C88.2392 68.0855 88.5346 67.9233 88.7967 67.7235C89.0589 67.5238 89.3168 67.3116 89.5873 67.1244C89.8577 66.9372 90.1781 66.8165 90.4569 66.6418C90.7398 66.4629 90.9811 66.2091 91.2723 66.0426C91.5636 65.8762 91.8673 65.7264 92.1669 65.5725C92.4665 65.4185 92.7702 65.2729 93.0739 65.1356C93.3776 64.9983 93.7063 64.9109 94.0184 64.7861C94.3304 64.6613 94.655 64.5698 94.9712 64.4574C95.2874 64.3451 95.6077 64.2494 95.9281 64.1537C96.2485 64.058 96.5522 63.8916 96.8767 63.8084C97.2013 63.7252 97.5341 63.6627 97.8628 63.592C98.1915 63.5213 98.5285 63.4963 98.8614 63.4422C99.1942 63.3881 99.5271 63.3465 99.8599 63.3049C100.193 63.2633 100.53 63.2508 100.863 63.2259C101.196 63.2009 101.533 63.1884 101.865 63.1759C102.198 63.1635 102.535 63.1343 102.868 63.1343C103.201 63.1343 103.542 63.0844 103.875 63.1011C104.208 63.1177 104.541 63.2217 104.874 63.2508C105.206 63.28 105.539 63.3382 105.868 63.384C106.197 63.4297 106.534 63.4589 106.862 63.5213C107.204 63.5837 107.541 63.6253 107.865 63.7127C108.19 63.8 108.514 63.9332 108.834 64.0414C109.155 64.1495 109.484 64.2536 109.8 64.3742C110.116 64.4949 110.416 64.6738 110.728 64.8028C111.04 64.9317 111.381 65.0066 111.697 65.1356C112.013 65.2646 112.313 65.4352 112.633 65.5558C112.954 65.6765 113.274 65.7847 113.603 65.8887C113.931 65.9927 114.252 66.1009 114.585 66.1799C114.917 66.259 115.254 66.3048 115.596 66.3505C115.937 66.3963 116.27 66.4379 116.615 66.4545C116.96 66.4712 117.301 66.4587 117.63 66.517C117.959 66.5752 118.296 66.6543 118.62 66.7541C118.945 66.854 119.269 66.958 119.581 67.0911C119.894 67.2243 120.201 67.3699 120.497 67.5405C120.792 67.7111 121.059 67.9191 121.333 68.1188C121.608 68.3185 121.874 68.5266 122.132 68.7471C122.39 68.9676 122.644 69.1964 122.881 69.4377C123.118 69.6791 123.314 69.962 123.53 70.2199C123.746 70.4779 124.017 70.7026 124.216 70.973C124.416 71.2435 124.549 71.568 124.737 71.8509C124.924 72.1338 125.144 72.4001 125.315 72.6914C125.485 72.9868 125.644 73.2864 125.802 73.5859C125.96 73.8896 126.043 74.2267 126.184 74.5304C126.326 74.83 126.463 75.1295 126.596 75.4291C126.729 75.7328 126.917 76.0116 127.042 76.3153C127.166 76.6232 127.291 76.9269 127.412 77.2348C127.532 77.5427 127.599 77.8714 127.711 78.1793C127.824 78.4872 127.924 78.8034 128.036 79.1154C128.148 79.4275 128.29 79.7271 128.402 80.0391C128.514 80.3512 128.623 80.6632 128.731 80.9711C128.839 81.279 129.014 81.5702 129.126 81.8823C129.238 82.1943 129.28 82.5272 129.396 82.8392C129.513 83.1513 129.629 83.4592 129.746 83.7629C129.862 84.0666 130.058 84.3495 130.187 84.6533C130.312 84.957 130.445 85.2566 130.582 85.5603C130.72 85.864 130.794 86.1886 130.94 86.484C131.082 86.7794 131.281 87.0498 131.435 87.3411C131.589 87.6323 131.664 87.9652 131.83 88.2522C131.997 88.5393 132.234 88.7765 132.413 89.0594C132.592 89.3423 132.746 89.6253 132.937 89.8999C133.124 90.1703 133.332 90.4283 133.524 90.6946C133.715 90.9608 133.907 91.2313 134.102 91.4976C134.298 91.7638 134.464 92.0509 134.656 92.3214C134.847 92.5918 135.038 92.8581 135.217 93.1369C135.396 93.4156 135.633 93.6569 135.796 93.944C135.958 94.2311 136.012 94.5764 136.153 94.876C136.295 95.1756 136.44 95.4668 136.549 95.7789C136.657 96.0909 136.823 96.3905 136.894 96.7109C136.965 97.0354 136.923 97.3766 136.952 97.7011C136.981 98.034 137.077 98.3626 137.052 98.6913C137.027 99.02 136.944 99.3487 136.865 99.6691C136.786 99.9895 136.69 100.314 136.544 100.609C136.399 100.905 136.133 101.117 135.916 101.367C135.7 101.616 135.504 101.874 135.238 102.066C134.972 102.257 134.685 102.423 134.385 102.548C134.086 102.673 133.765 102.773 133.445 102.819C133.124 102.864 132.779 102.902 132.459 102.852C132.138 102.802 131.818 102.611 131.527 102.448C131.473 102.756 131.398 103.089 131.294 103.376C131.186 103.667 131.102 103.971 130.948 104.233C130.794 104.495 130.536 104.695 130.337 104.924C130.137 105.153 129.971 105.423 129.729 105.619C129.488 105.814 129.218 105.956 128.947 106.106C128.677 106.255 128.394 106.355 128.098 106.455C127.786 106.563 127.483 106.684 127.162 106.746C126.842 106.809 126.513 106.809 126.184 106.817C125.856 106.825 125.54 106.805 125.211 106.751C125.123 106.734 124.757 106.709 124.354 106.576C124.083 106.488 123.792 106.364 123.538 106.255C123.122 106.085 122.831 105.877 122.877 105.748C122.752 106.077 122.585 106.397 122.373 106.68C122.161 106.963 121.891 107.196 121.612 107.412C121.333 107.628 121.05 107.866 120.726 107.999C120.401 108.132 120.039 108.223 119.69 108.261C119.34 108.298 118.986 108.194 118.637 108.128C118.288 108.061 117.946 107.995 117.626 107.841C117.306 107.687 117.023 107.474 116.756 107.246C116.49 107.017 116.253 106.726 116.062 106.426C115.82 106.605 115.566 106.83 115.296 106.967C115.026 107.104 114.747 107.237 114.46 107.316C114.173 107.395 113.865 107.387 113.561 107.391C113.257 107.395 112.962 107.366 112.679 107.271C112.396 107.175 112.151 106.996 111.922 106.809C111.693 106.622 111.456 106.43 111.323 106.156C111.152 105.802 111.139 105.436 111.16 105.065C111.181 104.695 111.214 104.333 111.352 103.971C111.481 103.63 111.647 103.289 111.826 102.952C112.005 102.619 112.176 102.278 112.346 101.962C112.504 101.67 112.691 101.4 112.825 101.1C112.958 100.801 113.095 100.497 113.212 100.193C113.328 99.8854 113.465 99.5817 113.561 99.2697C113.657 98.9576 113.669 98.6164 113.748 98.2961C113.827 97.9757 113.956 97.6678 114.027 97.3475C114.098 97.0271 114.177 96.7067 114.235 96.3822C114.293 96.0576 114.343 95.7331 114.397 95.4086C114.451 95.084 114.489 94.7554 114.539 94.4308C114.597 94.0605 114.647 93.6985 114.701 93.3449C114.755 92.9746 114.755 92.6126 114.78 92.2548C114.805 91.897 114.822 91.5308 114.788 91.1647C114.755 90.7986 114.759 90.4366 114.647 90.0746C114.543 89.7459 114.36 89.4256 114.164 89.0844L114.156 89.1093Z" fill="#97928C"/>
<path d="M111.215 78.0551C112.16 81.5833 113.533 84.9992 115.284 88.2029C115.779 89.11 116.308 89.9962 116.865 90.8658C117.048 91.1487 117.419 91.2652 117.718 91.0904C118.001 90.924 118.126 90.5204 117.943 90.2375C116.025 87.2377 114.461 84.0173 113.308 80.643C112.979 79.6819 112.684 78.7083 112.422 77.7264C112.214 76.9525 111.011 77.2812 111.219 78.0593L111.215 78.0551Z" fill="#7C7670"/>
<path d="M117.903 78.429C118.09 82.4815 118.502 86.5215 119.13 90.5282C119.184 90.8611 119.601 91.0442 119.9 90.9651C120.254 90.8694 120.387 90.5324 120.337 90.1954C119.725 86.2969 119.334 82.3692 119.151 78.4249C119.135 78.0879 118.877 77.8008 118.527 77.8008C118.203 77.8008 117.886 78.0879 117.903 78.4249V78.429Z" fill="#7C7670"/>
<path d="M118.367 97.2543C118.138 97.4998 117.888 97.7328 117.626 97.9492C117.377 98.1572 117.069 98.3236 116.757 98.4942C116.465 98.6523 116.141 98.7647 115.812 98.8853C115.483 99.006 115.167 99.0726 114.83 99.1516C114.493 99.2307 114.173 99.3097 113.832 99.3472C113.491 99.3846 113.153 99.4345 112.812 99.4304C112.471 99.4262 112.13 99.368 111.797 99.3222C111.464 99.2764 111.127 99.1891 110.811 99.0892C110.478 98.9852 110.129 98.9269 109.842 98.7605C109.555 98.5941 109.301 98.3361 109.068 98.0948C108.835 97.8535 108.635 97.583 108.485 97.2668C108.348 96.9756 108.261 96.6511 108.206 96.2932C108.161 95.9812 108.136 95.6442 108.165 95.278C108.19 94.9577 108.24 94.6165 108.302 94.2545C108.356 93.93 108.385 93.5805 108.469 93.2351C108.543 92.9106 108.652 92.5778 108.752 92.2407C108.851 91.9037 108.905 91.5709 109.022 91.238C109.138 90.9052 109.322 90.6139 109.451 90.2936C109.579 89.9732 109.733 89.6653 109.879 89.3533C110.025 89.0412 110.208 88.7458 110.374 88.4462C110.541 88.1467 110.657 87.8055 110.84 87.5226C111.023 87.2396 111.24 86.9525 111.448 86.6863C111.656 86.42 111.872 86.1287 112.105 85.8874C112.338 85.6461 112.663 85.463 112.925 85.2508C113.199 85.0303 113.428 84.7474 113.723 84.5851C114.019 84.4229 114.377 84.3355 114.705 84.244C115.034 84.1483 115.375 84.1358 115.716 84.115C116.058 84.0942 116.39 84.1067 116.727 84.1607C117.065 84.2148 117.414 84.2273 117.734 84.348C118.055 84.4686 118.346 84.66 118.629 84.8473C118.933 85.0511 119.195 85.3008 119.449 85.5629C119.702 85.825 119.919 86.1121 120.114 86.4241C120.31 86.7362 120.514 87.0358 120.651 87.3769C120.788 87.714 120.88 88.0718 120.959 88.4296C121.038 88.7874 121.017 89.1535 121.042 89.5197C121.067 89.8858 121.063 90.2395 121.042 90.6056C121.017 90.9676 121.067 91.342 121.005 91.6999C120.942 92.0577 120.784 92.3989 120.688 92.7483C120.601 93.077 120.576 93.4265 120.46 93.7511C120.343 94.0756 120.185 94.3793 120.039 94.6872C119.894 94.9951 119.74 95.303 119.565 95.5984C119.39 95.8938 119.178 96.1643 118.978 96.4347C118.779 96.7051 118.604 97.013 118.371 97.2627L118.367 97.2543Z" fill="#EBBEA7"/>
<path d="M117.356 90.005C116.919 90.1423 116.511 90.3503 116.062 90.4502C115.637 90.5459 115.234 90.6208 114.83 90.783C113.948 91.1284 113.029 91.3364 112.126 91.6027C111.356 91.8274 111.685 93.034 112.459 92.8051C113.366 92.5388 114.281 92.3308 115.163 91.9855C115.567 91.8274 115.974 91.7483 116.395 91.6526C116.844 91.5528 117.252 91.3489 117.689 91.2074C118.009 91.1076 118.217 90.7747 118.125 90.4377C118.038 90.1215 117.68 89.901 117.356 90.0008V90.005Z" fill="#A55535"/>
<path d="M113.125 129.154C112.934 129.437 112.676 129.67 112.468 129.941C112.26 130.211 112.081 130.507 111.856 130.765C111.631 131.023 111.353 131.231 111.115 131.472C110.878 131.713 110.687 132.009 110.437 132.242C110.188 132.475 109.901 132.666 109.638 132.882C109.376 133.099 109.147 133.365 108.873 133.565C108.598 133.765 108.265 133.885 107.978 134.072C107.691 134.26 107.425 134.472 107.13 134.638C106.834 134.805 106.539 134.979 106.235 135.133C105.931 135.287 105.615 135.42 105.303 135.558C104.991 135.695 104.675 135.82 104.354 135.936C104.034 136.053 103.693 136.103 103.368 136.203C103.044 136.303 102.719 136.407 102.386 136.486C102.054 136.565 101.742 136.731 101.404 136.789C101.067 136.848 100.722 136.856 100.385 136.897C100.048 136.939 99.7028 136.897 99.3616 136.914C99.0204 136.931 98.6834 136.977 98.3422 136.977C98.0011 136.977 97.6599 137.006 97.3187 136.989C96.9775 136.972 96.6447 136.889 96.3035 136.852C95.9623 136.814 95.6212 136.806 95.2883 136.752C94.9555 136.698 94.6185 136.627 94.2856 136.552C93.9527 136.477 93.6282 136.382 93.2995 136.29C92.9708 136.198 92.6588 136.07 92.3342 135.957C92.0097 135.845 91.6685 135.795 91.3523 135.666C91.0361 135.537 90.7199 135.408 90.412 135.262C90.1041 135.117 89.817 134.925 89.5175 134.759C89.2179 134.592 88.9308 134.409 88.6396 134.226C88.3483 134.043 88.0404 133.893 87.7575 133.698C87.4746 133.502 87.1875 133.315 86.9171 133.107C86.6466 132.899 86.3803 132.683 86.1141 132.462C85.8478 132.242 85.6273 131.98 85.3693 131.755C85.1113 131.53 84.8451 131.314 84.5913 131.085C84.3375 130.856 84.0504 130.661 83.8049 130.428C83.5553 130.191 83.3181 129.945 83.0726 129.708C82.8271 129.471 82.6025 129.213 82.357 128.971C82.1115 128.73 81.9243 128.439 81.6788 128.198C81.4333 127.956 81.1546 127.757 80.9091 127.519C80.6636 127.282 80.389 127.074 80.1435 126.837C79.898 126.6 79.6734 126.342 79.4196 126.109C79.1658 125.876 78.9078 125.655 78.6498 125.431C78.3919 125.206 78.1089 125.015 77.8427 124.794C77.5764 124.574 77.3767 124.278 77.1062 124.07C76.8691 123.891 76.6153 123.725 76.3615 123.554C76.1077 123.384 75.8206 123.28 75.5585 123.142C75.2963 123.005 75.0342 122.83 74.7513 122.735C74.4684 122.639 74.1522 122.66 73.8568 122.626C73.5613 122.593 73.2618 122.489 72.958 122.535C72.5711 122.593 72.2091 122.764 71.8638 122.938C71.5185 123.113 71.1814 123.305 70.8694 123.546C70.5573 123.787 70.2495 124.029 69.9707 124.287C69.7335 124.507 69.5005 124.74 69.2675 124.965C69.0345 125.189 68.8015 125.422 68.5727 125.655C68.3439 125.888 68.1983 126.2 67.9777 126.438C67.7572 126.675 67.4826 126.87 67.2663 127.112C67.0499 127.353 66.871 127.632 66.663 127.881C66.4549 128.131 66.2427 128.381 66.0389 128.634C65.835 128.888 65.6062 129.125 65.4106 129.383C65.2151 129.641 65.0736 129.945 64.8822 130.211C64.6908 130.478 64.437 130.694 64.2539 130.964C64.0709 131.235 63.8961 131.509 63.7172 131.784C63.5383 132.059 63.3719 132.35 63.2096 132.641C63.0474 132.932 62.8684 133.219 62.7436 133.527C62.6188 133.835 62.4898 134.16 62.4274 134.48C62.365 134.801 62.4191 135.146 62.4441 135.483C62.469 135.803 62.5106 136.111 62.6105 136.415C62.7103 136.719 62.8601 136.993 63.0057 137.276C63.1514 137.559 63.322 137.825 63.4842 138.096C63.659 138.391 63.7755 138.72 63.9585 139.011C64.1416 139.302 64.3746 139.556 64.5618 139.843C64.7491 140.13 64.9488 140.409 65.1443 140.688C65.3399 140.967 65.4855 141.287 65.6852 141.566C65.8849 141.845 66.1262 142.09 66.3343 142.365C66.5423 142.639 66.7503 142.905 66.9667 143.176C67.1831 143.446 67.416 143.696 67.6366 143.958C67.8571 144.22 68.061 144.499 68.2856 144.753C68.5103 145.007 68.7475 145.256 68.9805 145.51C69.2135 145.76 69.4215 146.038 69.6586 146.284C69.8958 146.529 70.1704 146.742 70.4159 146.979C70.6489 147.212 70.8819 147.441 71.119 147.661C71.3562 147.882 71.5725 148.14 71.818 148.348C72.0635 148.556 72.3714 148.705 72.6252 148.905C72.879 149.105 73.1245 149.325 73.3866 149.521C73.6487 149.716 73.9316 149.883 74.1938 150.074C74.4559 150.266 74.7388 150.432 75.0093 150.615C75.2797 150.798 75.4919 151.065 75.7623 151.248C76.0328 151.431 76.3365 151.555 76.6111 151.739C76.8857 151.922 77.1728 152.071 77.4432 152.25C77.7137 152.429 77.9633 152.646 78.2379 152.829C78.5084 153.012 78.7788 153.191 79.0493 153.378C79.3197 153.565 79.5901 153.79 79.8564 153.994C80.1269 154.202 80.3848 154.418 80.6428 154.63C80.9008 154.842 81.1379 155.092 81.3917 155.308C81.6497 155.529 81.9617 155.683 82.2155 155.899C82.4693 156.116 82.6774 156.394 82.9395 156.607C83.2016 156.819 83.4845 157.006 83.755 157.206C84.0254 157.405 84.3083 157.584 84.5954 157.767C84.8825 157.95 85.1862 158.075 85.4858 158.242C85.7729 158.4 86.06 158.575 86.372 158.716C86.6841 158.857 86.9587 159.036 87.2874 159.153C87.5911 159.261 87.899 159.373 88.2069 159.469C88.5148 159.565 88.8351 159.627 89.1472 159.71C89.4592 159.794 89.7879 159.802 90.1083 159.864C90.4287 159.927 90.7324 160.039 91.0528 160.089C91.3731 160.139 91.6935 160.176 92.0139 160.214C92.3342 160.251 92.6505 160.339 92.975 160.364C93.2995 160.389 93.624 160.401 93.9444 160.414C94.2648 160.426 94.5935 160.438 94.9139 160.438C95.2342 160.438 95.5588 160.359 95.8833 160.347C96.2078 160.334 96.5324 160.347 96.8527 160.322C97.1731 160.297 97.4935 160.222 97.8138 160.185C98.1508 160.147 98.4879 160.143 98.8249 160.093C99.1619 160.043 99.5031 160.047 99.8359 159.985C100.169 159.923 100.485 159.773 100.814 159.702C101.142 159.631 101.479 159.59 101.808 159.511C102.137 159.432 102.457 159.319 102.782 159.228C103.106 159.136 103.447 159.099 103.772 159.003C104.096 158.907 104.392 158.716 104.712 158.612C105.033 158.508 105.349 158.391 105.669 158.279C105.99 158.167 106.314 158.075 106.63 157.955C106.946 157.834 107.254 157.701 107.571 157.576C107.887 157.451 108.228 157.397 108.54 157.268C108.852 157.139 109.147 156.969 109.455 156.831C109.763 156.694 110.071 156.557 110.379 156.415C110.687 156.274 110.995 156.136 111.299 155.991C111.602 155.845 111.914 155.708 112.218 155.562C112.522 155.417 112.792 155.234 113.079 155.084C113.366 154.934 113.683 154.813 113.961 154.651C114.24 154.489 114.56 154.364 114.835 154.189C115.114 154.014 115.326 153.736 115.592 153.553C115.859 153.37 116.137 153.191 116.4 152.995C116.662 152.8 116.92 152.6 117.173 152.392C117.427 152.184 117.685 151.984 117.935 151.772C118.184 151.56 118.48 151.397 118.721 151.177C118.962 150.956 119.158 150.69 119.395 150.457C119.632 150.224 119.89 150.029 120.123 149.791C120.356 149.554 120.573 149.317 120.797 149.076C121.022 148.834 121.247 148.601 121.467 148.356C121.684 148.115 121.846 147.819 122.062 147.57" fill="#B43830"/>
<path d="M58.2104 120.714C58.5099 120.843 58.7762 121.039 59.0342 121.239L58.9093 121.143C59.1382 121.322 59.3545 121.517 59.5376 121.746C59.6291 121.863 59.8372 121.929 59.9786 121.929C60.1326 121.929 60.3157 121.863 60.4197 121.746C60.5237 121.63 60.6111 121.472 60.6027 121.305L60.5819 121.139C60.5528 121.035 60.4987 120.943 60.4197 120.864C60.195 120.581 59.9204 120.361 59.6333 120.14C59.3837 119.949 59.1299 119.766 58.8386 119.641C58.7679 119.595 58.6888 119.57 58.6056 119.566C58.5224 119.549 58.4392 119.549 58.356 119.578C58.2104 119.62 58.0523 119.728 57.9815 119.866C57.9066 120.011 57.865 120.186 57.9191 120.348C57.9649 120.49 58.0606 120.66 58.2062 120.723L58.2104 120.714Z" fill="#A55535"/>
<path d="M56.5421 123.759C56.8251 123.909 57.1288 124.025 57.3826 124.217L57.2578 124.121C57.4616 124.279 57.6239 124.479 57.8236 124.645C57.9526 124.754 58.0899 124.828 58.2646 124.828C58.4186 124.828 58.6017 124.762 58.7057 124.645C58.8097 124.529 58.8971 124.371 58.8887 124.204C58.8804 124.046 58.8305 123.867 58.7057 123.763C58.5975 123.672 58.4976 123.572 58.3978 123.476C58.2646 123.343 58.119 123.218 57.9651 123.11C57.7196 122.935 57.4367 122.827 57.1746 122.686C57.0289 122.607 56.8542 122.578 56.6919 122.623C56.5463 122.665 56.3882 122.773 56.3175 122.91C56.2426 123.056 56.201 123.231 56.255 123.393C56.305 123.543 56.3965 123.688 56.5421 123.767V123.759Z" fill="#A55535"/>
<path d="M60.8314 118.364C61.0644 118.509 61.2933 118.663 61.5138 118.834L61.389 118.738C61.5471 118.859 61.701 118.992 61.8425 119.129C61.959 119.242 62.1213 119.312 62.2835 119.312C62.4375 119.312 62.6205 119.246 62.7246 119.129C62.8286 119.013 62.9159 118.855 62.9076 118.688C62.8993 118.522 62.8452 118.364 62.7246 118.247C62.3418 117.881 61.9091 117.569 61.4597 117.29C61.3224 117.207 61.131 117.186 60.9771 117.228C60.8231 117.269 60.6733 117.378 60.6026 117.515C60.5277 117.661 60.4861 117.835 60.5402 117.998C60.5943 118.16 60.6858 118.28 60.8273 118.372L60.8314 118.364Z" fill="#A55535"/>
<path d="M66.7417 117.757C67.1286 118.006 67.449 118.215 67.7694 118.51C68.1147 118.826 68.4809 119.117 68.8095 119.45C68.9718 119.613 69.1424 119.762 69.3005 119.929C69.3338 119.962 69.3671 119.999 69.3962 120.037C69.5377 120.203 69.3796 120.004 69.442 120.099C69.5044 120.195 69.5585 120.291 69.6126 120.391C69.8331 120.794 70.1243 121.144 70.3615 121.539C70.5321 121.83 70.9232 121.934 71.2144 121.764C71.5057 121.593 71.6097 121.202 71.4391 120.911C71.1978 120.507 70.9024 120.145 70.6777 119.733C70.4197 119.271 70.0577 118.943 69.6916 118.572C69.3546 118.231 68.9801 117.932 68.6265 117.611C68.2395 117.258 67.811 116.97 67.37 116.688C67.0954 116.509 66.671 116.621 66.517 116.912C66.3548 117.22 66.4463 117.578 66.7417 117.765V117.757Z" fill="#A55535"/>
<path d="M74.7365 150.174L74.7115 150.207L75.2524 149.9H75.2233C75.3689 149.962 75.5187 150.02 75.6643 150.083L75.6393 150.062L75.8016 150.336L75.7891 150.299V150.632L75.7974 150.594L75.6352 150.869L75.6684 150.836L75.3938 150.998C75.3189 150.977 75.2441 150.961 75.165 150.944C75.2108 150.99 75.2607 151.035 75.3065 151.085C75.4022 151.181 75.4937 151.273 75.5894 151.368C75.7475 151.526 75.9014 151.68 76.0471 151.855C76.2052 152.042 76.3508 152.238 76.5339 152.4C76.7169 152.562 76.9083 152.691 77.0914 152.837C77.445 153.12 77.7862 153.444 78.1149 153.757C78.4436 154.069 78.7265 154.389 79.1301 154.614C79.5337 154.838 79.8874 155.03 80.2493 155.292C80.6113 155.554 80.9983 155.774 81.3311 156.062C81.6972 156.378 82.0384 156.661 82.4753 156.881C82.9122 157.102 83.3407 157.364 83.8109 157.493C84.5889 157.701 84.9176 156.494 84.1437 156.29C83.7526 156.186 83.3823 155.949 83.0245 155.766C82.8581 155.679 82.6833 155.591 82.5335 155.475C82.3754 155.35 82.2381 155.2 82.0842 155.075C81.7139 154.776 81.3061 154.53 80.9192 154.252C80.5822 154.01 80.241 153.798 79.8707 153.607C79.5254 153.428 79.3007 153.187 79.0261 152.916C78.7057 152.604 78.3687 152.296 78.0234 152.013C77.678 151.73 77.3327 151.481 77.0415 151.127C76.7502 150.773 76.434 150.465 76.1136 150.145C75.8973 149.929 75.6726 149.75 75.3522 149.754C75.0319 149.758 74.7406 149.916 74.62 150.203C74.4993 150.49 74.5867 150.84 74.8405 151.031C75.19 151.289 75.5727 151.144 75.8099 150.823C76.0096 150.553 75.8557 150.124 75.5852 149.97C75.2649 149.783 74.932 149.925 74.7323 150.195L74.7365 150.174Z" fill="#831E18"/>
<path d="M126.876 141.168C126.543 141.772 126.193 142.371 125.831 142.962C125.474 143.544 125.078 144.11 124.741 144.705C124.583 144.984 124.454 145.275 124.267 145.541C124.071 145.824 123.859 146.103 123.668 146.39C123.493 146.652 123.335 146.931 123.123 147.164C122.89 147.422 122.665 147.676 122.461 147.959C122.087 148.475 121.712 148.995 121.317 149.494C121.109 149.756 120.909 150.031 120.668 150.264C120.427 150.497 120.181 150.726 119.969 151C119.565 151.529 119.129 152.019 118.675 152.502C118.222 152.985 117.714 153.401 117.252 153.875C116.711 154.433 116.15 154.961 115.55 155.456C115.247 155.71 114.943 155.964 114.643 156.218C114.365 156.455 114.136 156.738 113.857 156.975C113.599 157.195 113.632 157.632 113.857 157.857C114.111 158.111 114.481 158.077 114.739 157.857C114.98 157.653 115.18 157.403 115.413 157.195C115.684 156.954 115.971 156.734 116.241 156.501C116.778 156.035 117.314 155.577 117.818 155.078C118.771 154.133 119.786 153.247 120.622 152.186C120.809 151.949 120.972 151.699 121.184 151.483C121.425 151.241 121.675 151.029 121.891 150.763C122.341 150.21 122.765 149.64 123.194 149.065C123.372 148.824 123.535 148.566 123.73 148.346C123.972 148.075 124.209 147.813 124.417 147.513C124.604 147.243 124.779 146.96 124.97 146.694C125.174 146.407 125.399 146.128 125.565 145.816C126.314 144.451 127.2 143.166 127.949 141.801C128.336 141.098 127.258 140.465 126.872 141.173L126.876 141.168Z" fill="#831E18"/>
<path d="M98.9836 140.977C99.1917 141.31 99.4371 141.61 99.6285 141.955C99.8074 142.279 99.9905 142.6 100.128 142.941C100.436 143.711 100.818 144.447 101.114 145.225C101.264 145.62 101.347 146.037 101.526 146.419C101.601 146.582 101.705 146.736 101.78 146.902C101.859 147.081 101.892 147.276 101.929 147.468C102.096 148.283 102.345 149.07 102.545 149.877C102.657 150.322 102.791 150.73 102.816 151.192C102.841 151.699 102.949 152.207 103.015 152.71C103.061 153.043 103.49 153.226 103.785 153.147C104.147 153.047 104.268 152.714 104.222 152.377C104.168 151.982 104.089 151.587 104.068 151.192C104.043 150.734 103.972 150.314 103.843 149.877C103.606 149.066 103.39 148.25 103.194 147.426C103.09 146.994 103.015 146.59 102.811 146.19C102.732 146.037 102.645 145.891 102.583 145.733C102.508 145.537 102.462 145.329 102.395 145.125C102.137 144.318 101.721 143.561 101.397 142.779C101.214 142.342 101.027 141.918 100.798 141.501C100.569 141.085 100.303 140.74 100.061 140.349C99.641 139.667 98.5592 140.295 98.9836 140.977Z" fill="#831E18"/>
<path d="M118.39 115.895C117.933 115.911 117.504 116.069 117.059 116.165C116.589 116.265 116.144 116.423 115.711 116.627C115.278 116.831 114.875 117.072 114.492 117.342C114.109 117.613 113.735 117.85 113.385 118.141C113.056 118.416 112.815 118.77 112.52 119.077C112.199 119.41 111.879 119.731 111.588 120.093C111.296 120.455 111.018 120.812 110.735 121.179C110.448 121.549 110.227 121.952 109.957 122.335C109.686 122.718 109.449 123.068 109.15 123.396C108.821 123.754 108.563 124.137 108.301 124.545C108.064 124.915 107.722 125.202 107.469 125.56C107.223 125.897 107.028 126.259 106.761 126.583C106.453 126.958 106.175 127.349 105.892 127.744C105.609 128.139 105.289 128.481 105.026 128.876C104.789 129.229 104.585 129.566 104.298 129.883C103.97 130.249 103.716 130.661 103.425 131.056C103.129 131.464 102.767 131.809 102.505 132.242C102.393 132.429 102.285 132.62 102.143 132.787C101.964 133.003 101.769 133.203 101.598 133.428C101.286 133.831 100.961 134.243 100.716 134.688C100.604 134.892 100.504 135.083 100.341 135.25C100.179 135.416 100.004 135.583 99.8588 135.77C99.6508 136.036 99.6009 136.394 99.8588 136.652C100.075 136.868 100.533 136.918 100.741 136.652C101.007 136.311 101.348 136.04 101.59 135.674C101.831 135.304 102.035 134.925 102.297 134.568C102.559 134.21 102.842 133.902 103.112 133.565C103.383 133.228 103.558 132.845 103.82 132.512C104.115 132.138 104.431 131.792 104.702 131.397C104.947 131.035 105.234 130.727 105.509 130.386C105.784 130.045 105.971 129.662 106.229 129.321C106.533 128.922 106.853 128.535 107.14 128.123C107.385 127.773 107.656 127.453 107.918 127.116C108.18 126.779 108.363 126.384 108.646 126.063C108.946 125.726 109.233 125.402 109.474 125.015C109.699 124.653 109.973 124.366 110.24 124.037C110.539 123.671 110.822 123.28 111.084 122.889C111.321 122.535 111.525 122.173 111.792 121.836C112.066 121.486 112.337 121.133 112.62 120.792C112.903 120.45 113.252 120.138 113.556 119.797C113.859 119.456 114.117 119.123 114.496 118.869C114.904 118.595 115.291 118.295 115.715 118.046C116.14 117.796 116.56 117.592 117.026 117.463C117.263 117.397 117.504 117.359 117.741 117.297C117.958 117.238 118.17 117.159 118.39 117.151C119.193 117.122 119.193 115.874 118.39 115.903V115.895Z" fill="#831E18"/>
</g>
<defs>
<clipPath id="clip0_1824_29250">
<rect width="154" height="160" fill="white"/>
</clipPath>
</defs>
</svg>
