<svg width="320" height="150" viewBox="0 0 320 150" fill="none" xmlns="http://www.w3.org/2000/svg">
<g clip-path="url(#clip0_762_14547)">
<path d="M158.993 28.8465C159.002 28.7816 159.069 28.7254 159.074 28.6606C159.116 28.3105 159.103 27.956 159.171 27.6102C159.239 27.2644 159.306 26.9143 159.403 26.5815C159.501 26.2487 159.615 25.9072 159.754 25.583C159.894 25.2588 160.08 24.9606 160.261 24.658C160.447 24.3554 160.625 24.0442 160.849 23.7719C161.073 23.4996 161.322 23.2489 161.58 23.0068C161.838 22.7648 162.104 22.5357 162.379 22.3195C162.654 22.1034 162.996 21.9824 163.288 21.7879C163.579 21.5934 163.871 21.4032 164.171 21.226C164.458 21.0574 164.703 20.8067 164.999 20.6511C165.295 20.4955 165.616 20.3917 165.917 20.2491C166.217 20.1064 166.538 20.007 166.846 19.8774C167.155 19.7477 167.434 19.5489 167.747 19.4278C168.059 19.3068 168.368 19.1814 168.685 19.0777C169.002 18.974 169.327 18.9005 169.649 18.8097C169.97 18.7189 170.308 18.6973 170.629 18.6152C170.95 18.5331 171.267 18.4207 171.593 18.3559C171.918 18.291 172.239 18.1959 172.569 18.1441C172.899 18.0922 173.228 18.0576 173.558 18.0144C173.888 17.9712 174.222 17.9798 174.556 17.9539C174.89 17.9279 175.219 17.902 175.549 17.8847C175.879 17.8674 176.212 17.781 176.542 17.7766C176.872 17.7723 177.206 17.8199 177.54 17.8242C177.873 17.8285 178.203 17.8674 178.533 17.8847C178.862 17.902 179.196 17.9409 179.526 17.9712C179.86 18.0014 180.207 17.9409 180.536 17.9884C180.866 18.036 181.191 18.1484 181.521 18.2089C181.851 18.2694 182.193 18.278 182.518 18.3602C182.844 18.4423 183.169 18.546 183.486 18.6541C183.803 18.7622 184.082 18.9783 184.395 19.108C184.729 19.2506 185.063 19.3846 185.393 19.5402C185.722 19.6958 186.056 19.8385 186.398 19.9595C186.796 20.1021 187.218 20.141 187.628 20.2318C188.038 20.3226 188.44 20.4522 188.85 20.5344C189.175 20.5992 189.509 20.6208 189.835 20.6986C190.16 20.7764 190.49 20.8326 190.811 20.9191C191.132 21.0055 191.449 21.1222 191.766 21.2173C192.083 21.3124 192.4 21.4248 192.713 21.5372C193.026 21.6496 193.33 21.7879 193.643 21.9132C193.956 22.0386 194.251 22.1855 194.556 22.3195C194.86 22.4535 195.164 22.5875 195.464 22.7388C195.765 22.8901 196.035 23.0889 196.327 23.2532C196.618 23.4174 196.961 23.4909 197.244 23.6682C197.527 23.8454 197.768 24.0918 198.043 24.2863C198.317 24.4808 198.584 24.6796 198.846 24.8871C199.108 25.0946 199.361 25.3107 199.611 25.5355C199.86 25.7602 200.135 25.9547 200.371 26.1925C200.608 26.4302 200.824 26.6939 201.043 26.9446C201.263 27.1953 201.449 27.4806 201.656 27.7485C201.863 28.0165 202.138 28.2283 202.328 28.5093C202.519 28.7903 202.616 29.1317 202.785 29.4213C202.954 29.7109 203.136 29.9962 203.288 30.2988C203.44 30.6014 203.601 30.8996 203.732 31.2108C203.863 31.5221 203.981 31.8419 204.087 32.1618C204.192 32.4816 204.23 32.8231 204.311 33.1559C204.391 33.4888 204.501 33.8086 204.556 34.1415C204.615 34.5002 204.615 34.859 204.64 35.2091C204.666 35.5592 204.674 35.9223 204.666 36.2768C204.657 36.6312 204.649 36.99 204.606 37.3444C204.564 37.6988 204.484 38.0446 204.416 38.3948C204.349 38.7449 204.366 39.1123 204.277 39.4624C204.188 39.8125 204.015 40.1281 203.913 40.4695C203.812 40.811 203.753 41.1654 203.639 41.5026C203.524 41.8398 203.372 42.1639 203.254 42.5011C203.136 42.8382 203.017 43.1711 202.895 43.5082C202.772 43.8454 202.658 44.1782 202.54 44.5154C202.421 44.8525 202.303 45.1897 202.189 45.5268C202.075 45.864 201.944 46.1968 201.842 46.5383C201.741 46.8797 201.648 47.2255 201.559 47.5713C201.47 47.9171 201.415 48.2716 201.348 48.6217C201.28 48.9718 201.166 49.2873 201.069 49.6158C200.972 49.9444 200.896 50.2815 200.773 50.6057C200.65 50.9299 200.502 51.2368 200.363 51.5523C200.224 51.8678 200.131 52.2007 199.978 52.5119C199.826 52.8231 199.683 53.13 199.522 53.4369C199.361 53.7438 199.163 54.0204 198.998 54.323C198.833 54.6256 198.639 54.9065 198.478 55.2134C198.317 55.5203 198.191 55.8402 198.038 56.1471C197.886 56.454 197.696 56.7479 197.557 57.0591C197.417 57.3703 197.328 57.7118 197.206 58.0317C197.083 58.3515 196.978 58.68 196.876 59.0129C196.775 59.3457 196.686 59.6742 196.614 60.0157C196.542 60.3571 196.546 60.6943 196.504 61.0444C196.466 61.3643 196.352 61.6798 196.31 62.004C196.267 62.3282 196.221 62.648 196.145 62.9636C196.069 63.2791 196.043 63.6206 195.9 63.9145C195.756 64.2085 195.519 64.4462 195.283 64.6623C195.046 64.8784 194.737 64.9908 194.442 65.0859C194.146 65.181 193.867 65.3064 193.554 65.2113C193.499 65.5484 193.296 65.7818 193.123 66.0628C192.95 66.3437 192.789 66.655 192.531 66.8668C192.273 67.0786 191.956 67.2082 191.656 67.3336C191.356 67.4589 191.043 67.5843 190.718 67.6405C190.393 67.6967 190.063 67.7486 189.733 67.7486C189.404 67.7486 189.07 67.714 188.744 67.6751C188.415 67.6362 188.068 67.5973 187.721 67.5238C187.375 67.4503 187.058 67.3682 186.715 67.2731C186.373 67.178 186.081 67.0094 185.752 66.897C185.422 66.7846 185.084 66.7284 184.763 66.5988C184.442 66.4691 184.158 66.2573 183.846 66.1147C183.533 65.972 183.22 65.8294 182.916 65.6694C182.611 65.5095 182.307 65.3409 182.015 65.1637C181.724 64.9865 181.386 64.8611 181.103 64.6666C180.819 64.4721 180.578 64.1998 180.308 63.988C180.037 63.7762 179.792 63.5212 179.543 63.2878C179.294 63.0544 178.998 62.8469 178.769 62.5919C178.541 62.3368 178.36 62.0213 178.165 61.7447C177.954 61.4464 177.683 61.1914 177.472 60.8931C177.261 60.5949 177.075 60.2793 176.863 59.9811C176.652 59.6828 176.432 59.3932 176.221 59.095C176.01 58.7967 175.752 58.5331 175.54 58.2348C175.329 57.9366 175.122 57.5648 174.911 57.2666C175.228 56.9813 175.363 57.2277 175.769 57.1067C176.174 56.9856 176.174 56.99 176.58 56.8689C176.986 56.7479 177.037 56.8387 177.345 56.5447C177.13 56.2162 176.939 55.9396 176.724 55.6111C176.508 55.2826 176.267 54.9757 176.06 54.6429C175.887 54.3619 175.79 54.0334 175.646 53.7351C175.502 53.4369 175.346 53.143 175.206 52.8447C175.067 52.5465 174.936 52.2353 174.771 51.9543C174.606 51.6733 174.412 51.401 174.184 51.159C173.955 50.9169 173.693 50.7613 173.398 50.5841C173.085 50.3982 172.776 50.221 172.459 50.0697C172.142 49.9184 171.842 49.6807 171.517 49.5424C171.191 49.404 170.84 49.296 170.511 49.162C170.181 49.028 169.818 48.9675 169.492 48.8205C169.167 48.6736 168.837 48.5266 168.52 48.358C168.203 48.1894 167.928 47.9517 167.628 47.7485C167.328 47.5454 167.058 47.3293 166.783 47.0829C166.525 46.8495 166.234 46.629 165.993 46.3438C165.735 46.0412 165.583 45.6824 165.38 45.3798C165.164 45.0557 164.919 44.7661 164.737 44.4375C164.556 44.109 164.412 43.7546 164.239 43.4088C164.065 43.063 163.93 42.7215 163.744 42.3757C163.588 42.0818 163.402 41.8008 163.216 41.5285C163.03 41.2562 162.814 41.0012 162.611 40.7375C162.408 40.4739 162.222 40.2015 162.02 39.9379C161.817 39.6742 161.542 39.4667 161.356 39.1944C161.17 38.9221 161.094 38.5763 160.938 38.2824C160.769 37.9625 160.54 37.6772 160.392 37.3487C160.244 37.0202 160.13 36.6744 160.004 36.3373C159.877 36.0001 159.695 35.6759 159.589 35.3301C159.484 34.9843 159.433 34.6213 159.348 34.2668C159.264 33.9124 159.217 33.5536 159.158 33.1992C159.099 32.8447 158.972 32.4903 158.934 32.1315C158.896 31.7728 158.96 31.401 158.947 31.0379C158.934 30.6748 158.854 30.3118 158.867 29.9487C158.879 29.5856 158.938 29.2225 158.976 28.8637L158.993 28.8465Z" fill="#97928C"/>
<path d="M217.201 102.18C217.083 101.856 216.872 101.567 216.749 101.238C216.626 100.91 216.533 100.577 216.411 100.257C216.288 99.9369 216.212 99.5912 216.081 99.267C215.95 98.9428 215.764 98.6489 215.633 98.329C215.502 98.0091 215.405 97.672 215.27 97.3521C215.134 97.0323 215.008 96.7081 214.864 96.3925C214.72 96.077 214.543 95.7787 214.395 95.4632C214.247 95.1477 214.086 94.8451 213.934 94.5339C213.782 94.2227 213.571 93.9417 213.414 93.6348C213.258 93.3279 213.165 92.9821 213 92.6795C212.835 92.377 212.615 92.1047 212.446 91.8021C212.277 91.4995 212.125 91.1883 211.952 90.89C211.779 90.5918 211.563 90.3195 211.381 90.0256C211.2 89.7316 211.06 89.4118 210.874 89.1222C210.688 88.8326 210.536 88.5127 210.342 88.2317C210.147 87.9508 209.953 87.6612 209.75 87.3802C209.547 87.0993 209.336 86.8269 209.129 86.5503C208.921 86.2737 208.642 86.0575 208.427 85.7895C208.211 85.5216 207.983 85.2622 207.763 84.9985C207.544 84.7349 207.32 84.4755 207.091 84.2162C206.863 83.9568 206.648 83.6888 206.411 83.4381C206.178 83.1918 205.976 82.9151 205.735 82.6731C205.494 82.431 205.219 82.2278 204.974 81.9944C204.729 81.761 204.479 81.5319 204.226 81.3072C203.972 81.0824 203.731 80.8403 203.469 80.6242C203.207 80.4081 202.928 80.2136 202.662 80.0061C202.396 79.7986 202.121 79.5998 201.846 79.401C201.571 79.2021 201.331 78.9514 201.052 78.7612C200.773 78.571 200.485 78.3852 200.202 78.2036C199.919 78.0221 199.585 77.9184 199.293 77.7498C199.002 77.5812 198.74 77.3521 198.444 77.1922C198.148 77.0323 197.822 76.9285 197.518 76.7772C197.214 76.6259 196.943 76.4141 196.635 76.2758C196.326 76.1375 196.009 76.0208 195.696 75.8954C195.384 75.7701 195.05 75.6966 194.737 75.5799C194.424 75.4632 194.116 75.3206 193.795 75.2168C193.752 75.1952 193.693 75.2168 193.651 75.1952C193.351 75.0439 193.055 74.8926 192.746 74.7586C192.438 74.6246 192.138 74.4863 191.821 74.3653C191.504 74.2443 191.216 74.0627 190.895 73.959C190.574 73.8552 190.232 73.8466 189.906 73.7602C189.581 73.6737 189.281 73.5051 188.951 73.4316C188.621 73.3582 188.292 73.3149 187.962 73.2544C187.632 73.1939 187.298 73.1723 186.964 73.1248C186.631 73.0772 186.309 72.9778 185.975 72.9389C185.642 72.9 185.303 72.9389 184.969 72.9086C184.636 72.8784 184.306 72.8135 183.972 72.7919C183.638 72.7703 183.304 72.779 182.97 72.7617C182.636 72.7444 182.298 72.7833 181.969 72.779C181.622 72.7703 181.28 72.6709 180.933 72.6709C180.587 72.6709 180.24 72.6925 179.893 72.6968C179.547 72.7012 179.204 72.7573 178.858 72.7703C178.511 72.7833 178.16 72.7314 177.818 72.753C177.476 72.7746 177.129 72.8524 176.787 72.8827C176.444 72.913 176.102 73.0037 175.76 73.0469C175.417 73.0902 175.062 73.0513 174.72 73.1031C174.378 73.155 174.048 73.2804 173.706 73.3452C173.363 73.41 173.017 73.4316 172.679 73.5051C172.341 73.5786 171.998 73.6348 171.664 73.7256C171.33 73.8163 170.988 73.8898 170.658 73.9892C170.324 74.093 169.991 74.201 169.665 74.3178C169.34 74.4345 169.014 74.5685 168.693 74.7025C168.372 74.8364 168.046 74.9704 167.734 75.1174C167.421 75.2644 167.146 75.5021 166.838 75.662C166.529 75.822 166.204 75.956 165.908 76.1332C165.612 76.3104 165.324 76.5136 165.033 76.7038C164.741 76.8939 164.45 77.0884 164.166 77.2873C163.883 77.4861 163.575 77.6633 163.3 77.8751C163.025 78.0869 162.788 78.3549 162.522 78.5797C162.256 78.8045 161.939 78.973 161.681 79.2064C161.423 79.4399 161.216 79.7338 160.967 79.9802C160.705 80.1876 160.464 80.4211 160.206 80.6415C159.948 80.8619 159.695 81.0737 159.445 81.2985C159.196 81.5233 158.942 81.7394 158.693 81.9685C158.444 82.1976 158.203 82.4267 157.962 82.6601C157.721 82.8935 157.476 83.1226 157.231 83.356C156.985 83.5894 156.673 83.7407 156.427 83.9698C156.182 84.1989 155.992 84.4885 155.743 84.7133C155.493 84.938 155.248 85.1671 154.999 85.3919C154.75 85.6167 154.517 85.863 154.263 86.0792C154.01 86.2953 153.706 86.4552 153.444 86.6584C153.173 86.8702 152.915 87.0949 152.632 87.2851C152.349 87.4753 152.074 87.6828 151.778 87.8514C151.482 88.0199 151.17 88.1583 150.865 88.3095C150.561 88.4608 150.219 88.5213 149.906 88.6553C149.593 88.7893 149.301 88.9709 148.98 89.0876C148.659 89.2043 148.334 89.2907 148.012 89.3988C147.691 89.5069 147.37 89.6192 147.049 89.7187C146.728 89.8181 146.406 89.9434 146.081 90.0385C145.755 90.1336 145.426 90.2201 145.1 90.3152C144.775 90.4103 144.449 90.514 144.128 90.6091C143.807 90.7042 143.469 90.769 143.148 90.8684C142.826 90.9678 142.514 91.1191 142.197 91.2315C141.88 91.3439 141.554 91.4476 141.241 91.5687C140.929 91.6897 140.612 91.8151 140.303 91.949C139.995 92.083 139.678 92.2084 139.373 92.364C139.069 92.5196 138.76 92.6623 138.469 92.8352C138.177 93.0081 137.869 93.1593 137.585 93.3495C137.302 93.5397 137.057 93.7904 136.787 93.9936C136.516 94.1967 136.199 94.3523 135.937 94.5685C135.675 94.7846 135.46 95.0655 135.21 95.299C134.961 95.5324 134.669 95.7226 134.428 95.9646C134.187 96.2067 133.993 96.5006 133.765 96.7513C133.536 97.002 133.321 97.2743 133.097 97.5337C132.873 97.793 132.666 98.0653 132.454 98.3376C132.243 98.61 132.015 98.865 131.816 99.1459C131.618 99.4269 131.448 99.7295 131.258 100.015C131.068 100.3 130.874 100.585 130.696 100.879C130.519 101.173 130.341 101.471 130.172 101.77C130.003 102.068 129.754 102.327 129.593 102.63C129.432 102.932 129.28 103.261 129.132 103.576C128.984 103.892 128.925 104.255 128.782 104.575C128.638 104.895 128.456 105.197 128.325 105.526C128.194 105.854 128.029 106.166 127.907 106.494C127.784 106.823 127.742 107.181 127.628 107.514C127.514 107.847 127.421 108.184 127.319 108.521C127.218 108.858 127.087 109.187 126.989 109.524C126.892 109.861 126.74 110.185 126.651 110.527C126.563 110.868 126.52 111.219 126.44 111.564C126.36 111.91 126.313 112.256 126.237 112.602C126.161 112.948 126.077 113.289 126.013 113.635C125.95 113.981 125.84 114.318 125.776 114.668C125.713 115.018 125.658 115.364 125.603 115.71C125.548 116.055 125.565 116.418 125.514 116.764C125.464 117.11 125.371 117.456 125.324 117.806C125.278 118.156 125.214 118.502 125.172 118.852C125.13 119.202 125.083 119.552 125.045 119.902C125.011 120.248 125.071 120.603 125.037 120.948C125.003 121.294 124.918 121.631 124.893 121.977C124.868 122.323 124.91 122.673 124.893 123.019C124.876 123.365 124.851 123.71 124.847 124.056C124.842 124.402 124.737 124.748 124.741 125.098C124.745 125.448 124.779 125.794 124.8 126.14C124.821 126.485 124.851 126.831 124.88 127.177C124.91 127.523 125.02 127.856 125.071 128.201C125.121 128.547 125.126 128.893 125.193 129.235C125.261 129.576 125.388 129.9 125.476 130.233C125.565 130.566 125.688 130.89 125.798 131.214C125.907 131.538 126.009 131.871 126.14 132.191C126.271 132.511 126.41 132.827 126.567 133.133C126.723 133.44 126.867 133.756 127.049 134.05C127.23 134.344 127.404 134.642 127.607 134.919C127.809 135.195 128.033 135.459 128.262 135.714C128.49 135.969 128.697 136.254 128.946 136.488C129.196 136.721 129.53 136.851 129.804 137.058C130.096 137.274 130.354 137.529 130.658 137.711C130.962 137.892 131.288 138.057 131.609 138.204C131.93 138.351 132.264 138.489 132.602 138.606C132.94 138.722 133.291 138.779 133.638 138.869C133.984 138.96 134.323 139.055 134.673 139.12C135.024 139.185 135.371 139.276 135.722 139.319C136.072 139.362 136.436 139.297 136.791 139.319C137.146 139.34 137.497 139.461 137.848 139.47C138.118 139.479 138.46 139.427 138.841 139.384C139.145 139.349 139.475 139.276 139.821 139.224C140.138 139.176 140.472 139.129 140.806 139.085C141.14 139.042 141.474 139.064 141.799 139.038C142.125 139.012 142.471 138.951 142.793 138.96C143.148 138.969 143.473 139.038 143.769 139.107C144.124 139.189 144.42 139.315 144.644 139.522C144.788 139.652 144.91 139.984 145.007 140.482C145.066 140.78 145.083 141.139 145.126 141.528C145.164 141.856 145.286 142.202 145.312 142.569C145.337 142.911 145.274 143.27 145.29 143.628C145.307 143.987 145.375 144.329 145.388 144.683C145.4 145.037 145.371 145.396 145.383 145.742C145.396 146.088 145.4 146.46 145.409 146.801C145.417 147.173 145.426 147.532 145.43 147.86C145.43 148.253 145.438 148.612 145.438 148.915C145.438 149.563 145.46 150.008 145.468 150.008C145.806 150.008 146.148 150 146.487 149.995C146.825 149.991 147.167 149.965 147.505 149.961C147.843 149.956 148.186 149.991 148.524 149.991C148.862 149.991 149.204 149.956 149.542 149.952C149.881 149.948 150.223 149.969 150.561 149.969C150.899 149.969 151.242 149.909 151.58 149.905C151.918 149.9 152.26 149.887 152.598 149.887C152.936 149.887 153.279 149.926 153.617 149.926C153.955 149.926 154.297 149.961 154.635 149.961C154.974 149.961 155.316 149.922 155.654 149.922C155.992 149.922 156.335 149.965 156.673 149.965C157.011 149.965 157.353 149.913 157.691 149.913C158.029 149.913 158.372 149.909 158.71 149.905C159.048 149.9 159.39 149.905 159.728 149.905C160.067 149.905 160.409 149.84 160.747 149.84C161.085 149.84 161.428 149.926 161.766 149.922C162.104 149.918 162.446 149.918 162.784 149.918C163.122 149.918 163.465 149.827 163.803 149.822C164.141 149.818 164.483 149.857 164.821 149.857C165.16 149.857 165.502 149.926 165.84 149.922C166.178 149.918 166.521 149.796 166.859 149.796C167.197 149.796 167.539 149.909 167.877 149.905C168.215 149.9 168.558 149.809 168.896 149.809C169.234 149.809 169.576 149.861 169.914 149.861C170.253 149.861 170.595 149.822 170.933 149.822C171.271 149.822 171.614 149.788 171.952 149.788C172.29 149.788 172.632 149.792 172.97 149.788C173.308 149.784 173.651 149.766 173.989 149.762C174.327 149.758 174.669 149.766 175.007 149.762C175.346 149.758 175.688 149.835 176.026 149.831C176.364 149.827 176.707 149.762 177.045 149.762C177.383 149.762 177.725 149.84 178.063 149.84C178.401 149.84 178.744 149.822 179.082 149.818C179.42 149.814 179.762 149.814 180.1 149.809C180.439 149.805 180.781 149.727 181.119 149.727C181.457 149.727 181.8 149.801 182.138 149.796C182.476 149.792 182.818 149.827 183.156 149.827C183.494 149.827 183.837 149.762 184.175 149.758C184.513 149.753 184.855 149.814 185.193 149.814C185.532 149.814 185.874 149.736 186.212 149.736C186.55 149.736 186.893 149.766 187.231 149.766C187.569 149.766 187.911 149.753 188.249 149.753C188.587 149.753 188.93 149.693 189.268 149.688C189.606 149.684 189.948 149.68 190.286 149.68C190.625 149.68 190.967 149.775 191.305 149.775C191.643 149.775 191.986 149.775 192.324 149.775C192.662 149.775 193.004 149.675 193.342 149.671C193.68 149.667 194.023 149.706 194.361 149.706C194.699 149.706 195.041 149.667 195.38 149.667C195.718 149.667 196.06 149.727 196.398 149.727C196.736 149.727 197.079 149.693 197.417 149.693C197.755 149.693 198.097 149.71 198.435 149.706C198.773 149.701 199.116 149.706 199.454 149.701C199.792 149.697 200.134 149.65 200.473 149.645C200.811 149.641 201.153 149.654 201.491 149.65C201.829 149.645 202.172 149.74 202.51 149.74C202.848 149.74 203.19 149.706 203.528 149.706C203.866 149.706 204.209 149.619 204.551 149.619C204.894 149.645 205.236 149.667 205.578 149.693C205.921 149.719 206.259 149.801 206.601 149.822C206.943 149.844 207.286 149.866 207.628 149.879C207.97 149.892 208.313 149.857 208.655 149.866C208.997 149.874 209.336 149.978 209.678 149.987C210.02 149.995 210.363 149.93 210.705 149.93C211.047 149.93 211.39 149.965 211.732 149.965C212.074 149.965 212.417 150 212.759 149.995C213.101 149.991 213.444 149.978 213.786 149.969C214.129 149.961 214.471 149.93 214.813 149.918C215.156 149.905 215.498 149.909 215.84 149.896C216.183 149.883 216.521 149.762 216.859 149.74C217.197 149.719 217.552 149.814 217.89 149.792C218.228 149.771 218.566 149.662 218.909 149.632C219.251 149.602 219.593 149.602 219.936 149.567C220.278 149.533 220.612 149.433 220.95 149.394C221.288 149.356 221.635 149.369 221.973 149.325C222.024 148.984 222.091 148.642 222.138 148.301C222.184 147.959 222.151 147.605 222.193 147.259C222.235 146.913 222.362 146.581 222.4 146.235C222.438 145.889 222.396 145.535 222.43 145.193C222.463 144.852 222.582 144.51 222.615 144.164C222.649 143.819 222.603 143.468 222.632 143.123C222.662 142.777 222.78 142.44 222.801 142.09C222.823 141.739 222.844 141.398 222.865 141.048C222.886 140.698 222.818 140.352 222.831 140.002C222.844 139.652 222.907 139.31 222.92 138.964C222.932 138.619 222.971 138.273 222.979 137.923C222.987 137.573 223.004 137.227 223.009 136.881C223.013 136.535 222.987 136.185 222.987 135.839C222.987 135.493 222.971 135.143 222.966 134.798C222.962 134.452 222.928 134.106 222.924 133.756C222.92 133.406 222.941 133.06 222.932 132.714C222.924 132.368 222.949 132.018 222.932 131.672C222.916 131.327 222.861 130.981 222.844 130.635C222.827 130.289 222.789 129.943 222.768 129.598C222.747 129.252 222.713 128.906 222.687 128.56C222.662 128.214 222.692 127.864 222.666 127.519C222.641 127.173 222.573 126.831 222.544 126.485C222.514 126.14 222.506 125.794 222.472 125.448C222.438 125.102 222.396 124.756 222.353 124.415C222.311 124.074 222.197 123.736 222.155 123.391C222.113 123.045 222.087 122.699 222.045 122.358C222.003 122.016 221.99 121.666 221.939 121.32C221.889 120.974 221.812 120.637 221.757 120.296C221.703 119.954 221.618 119.617 221.563 119.276C221.508 118.934 221.445 118.593 221.386 118.251C221.326 117.91 221.271 117.568 221.204 117.227C221.136 116.885 221.162 116.527 221.094 116.189C221.026 115.852 220.866 115.528 220.794 115.191C220.722 114.854 220.709 114.499 220.633 114.162C220.557 113.825 220.43 113.496 220.35 113.159C220.27 112.822 220.27 112.468 220.185 112.131C220.101 111.793 220.008 111.461 219.923 111.123C219.839 110.786 219.741 110.453 219.653 110.121C219.564 109.788 219.471 109.451 219.378 109.118C219.285 108.785 219.141 108.465 219.048 108.132C218.955 107.799 218.833 107.475 218.736 107.142C218.638 106.81 218.613 106.455 218.507 106.122C218.402 105.79 218.304 105.461 218.199 105.133C218.093 104.804 217.916 104.497 217.806 104.169C217.696 103.84 217.569 103.52 217.455 103.192C217.341 102.863 217.324 102.5 217.205 102.176L217.201 102.18Z" fill="#6B8EBF"/>
<path d="M153.765 103.174C153.613 103.727 153.444 104.276 153.279 104.825C153.123 105.344 153.055 105.88 152.92 106.403C152.628 107.514 152.375 108.637 152.138 109.761C151.901 110.885 151.699 111.966 151.437 113.059C151.31 113.578 151.225 114.131 151.196 114.667C151.179 114.97 151.158 115.268 151.107 115.571C151.065 115.839 150.989 116.107 150.972 116.379C150.955 116.651 150.98 116.937 150.972 117.218C150.959 117.516 150.908 117.805 150.879 118.099C150.824 118.67 150.874 119.249 150.832 119.82C150.79 120.39 150.786 120.969 150.815 121.544C150.828 121.808 150.874 122.063 150.9 122.322C150.929 122.638 150.904 122.949 150.9 123.265C150.883 123.792 151.039 124.298 151.039 124.825C151.039 125.106 151.014 125.383 151.027 125.664C151.039 125.979 151.086 126.286 151.103 126.602C151.115 126.865 151.094 127.125 151.073 127.388C151.052 127.687 151.065 127.98 151.077 128.274C151.098 128.867 151.086 129.454 151.086 130.047C151.086 130.673 151.086 131.3 151.014 131.927C150.976 132.255 150.891 132.567 150.815 132.891C150.756 133.146 150.752 133.401 150.726 133.664C150.663 134.291 150.422 134.862 150.249 135.458C150.063 136.089 149.797 136.656 149.513 137.248C149.361 137.563 148.926 137.65 148.647 137.481C148.334 137.295 148.267 136.911 148.419 136.595C148.647 136.12 148.863 135.674 149.01 135.169C149.15 134.693 149.378 134.209 149.454 133.716C149.497 133.44 149.492 133.154 149.535 132.878C149.573 132.627 149.644 132.385 149.704 132.134C149.826 131.624 149.83 131.049 149.826 130.526C149.826 129.952 149.826 129.377 149.826 128.802C149.826 128.227 149.797 127.656 149.835 127.081C149.873 126.507 149.75 125.936 149.759 125.361C149.763 125.102 149.784 124.842 149.763 124.579C149.742 124.315 149.678 124.047 149.649 123.779C149.585 123.213 149.674 122.647 149.606 122.076C149.539 121.505 149.53 120.931 149.539 120.356C149.547 119.781 149.59 119.245 149.594 118.683C149.598 118.121 149.721 117.542 149.712 116.963C149.712 116.669 149.704 116.383 149.742 116.089C149.78 115.795 149.86 115.484 149.898 115.177C149.97 114.607 149.991 114.032 150.084 113.461C150.169 112.925 150.325 112.411 150.422 111.875C150.519 111.339 150.625 110.781 150.743 110.237C151.022 108.979 151.267 107.712 151.593 106.468C151.745 105.893 151.83 105.305 151.986 104.734C152.159 104.099 152.366 103.468 152.544 102.832C152.764 102.028 153.989 102.37 153.765 103.178V103.174Z" fill="#4E719B"/>
<path d="M172.095 64.782C172.104 65.1149 172.04 65.4434 172.036 65.7762C172.032 66.109 172.015 66.4375 172.002 66.766C171.989 67.0945 172.074 67.4317 172.053 67.7645C172.032 68.0974 171.973 68.4215 171.943 68.7544C171.913 69.0872 171.863 69.4114 171.825 69.7399C171.787 70.0684 171.812 70.4055 171.765 70.7341C171.719 71.0626 171.63 71.3824 171.575 71.7109C171.52 72.0394 171.393 72.3507 171.33 72.6748C171.267 72.999 171.203 73.3232 171.131 73.6474C171.06 73.9716 170.971 74.2871 170.891 74.607C170.827 74.8534 170.768 75.1819 170.895 75.3893C171.022 75.5968 171.322 75.64 171.546 75.666C171.892 75.7006 172.239 75.7178 172.585 75.7481C172.932 75.7784 173.279 75.8302 173.625 75.8562C173.972 75.8821 174.323 75.9037 174.669 75.921C175.016 75.9383 175.366 75.8605 175.717 75.8691C176.068 75.8778 176.41 75.9469 176.761 75.9513C177.112 75.9556 177.459 75.8864 177.805 75.8864C178.152 75.8864 178.503 75.9037 178.849 75.8951C179.196 75.8864 179.547 75.8821 179.893 75.8691C180.24 75.8562 180.591 75.8562 180.937 75.8346C181.284 75.8129 181.634 75.8 181.981 75.7697C182.328 75.7395 182.666 75.6141 183.012 75.5795C183.359 75.5449 183.71 75.5536 184.056 75.5147C184.403 75.4758 184.745 75.4196 185.092 75.3721C185.438 75.3245 185.781 75.2597 186.123 75.2035C186.229 75.1862 186.313 75.1559 186.389 75.0781C186.512 74.9484 186.537 74.7583 186.508 74.5724C186.457 74.2223 186.461 73.8635 186.415 73.5134C186.368 73.1633 186.233 72.8218 186.195 72.4717C186.157 72.1216 186.199 71.7585 186.165 71.404C186.132 71.0496 186.11 70.6995 186.081 70.345C186.051 69.9906 186.005 69.6405 185.979 69.286C185.954 68.9316 185.865 68.5815 185.844 68.2314C185.823 67.8812 185.789 67.5225 185.776 67.168C185.764 66.8136 185.861 66.4548 185.853 66.1004C185.844 65.7459 185.798 65.3915 185.793 65.0371C185.789 64.6826 185.76 64.3282 185.76 63.9737C185.76 63.6193 185.793 63.2649 185.802 62.9104C185.81 62.556 185.776 62.2015 185.785 61.8471C185.793 61.4926 185.869 61.1425 185.886 60.7881" fill="#EBBEA7"/>
<path d="M157.933 52.8624C158.03 53.2039 158.157 53.5367 158.258 53.8739C158.36 54.211 158.41 54.5698 158.516 54.907C158.622 55.2441 158.736 55.5813 158.85 55.9141C158.964 56.2469 159.133 56.5668 159.251 56.8953C159.37 57.2238 159.399 57.5998 159.53 57.924C159.661 58.2482 159.881 58.5421 160.025 58.862C160.168 59.1819 160.316 59.5017 160.477 59.8173C160.638 60.1328 160.735 60.4829 160.912 60.7855C161.09 61.0881 161.327 61.3561 161.521 61.65C161.715 61.9439 161.884 62.2551 162.104 62.5318C162.324 62.8084 162.582 63.0461 162.814 63.3098C163.047 63.5735 163.237 63.8717 163.495 64.1181C163.753 64.3645 164.048 64.5417 164.323 64.7665C164.573 64.974 164.801 65.2074 165.063 65.3976C165.325 65.5877 165.604 65.7563 165.874 65.9292C166.145 66.1021 166.445 66.2275 166.728 66.3831C167.011 66.5387 167.261 66.7591 167.548 66.9018C167.835 67.0444 168.165 67.0963 168.461 67.2173C168.757 67.3383 169.061 67.4378 169.365 67.5415C169.67 67.6452 169.949 67.8397 170.257 67.9262C170.566 68.0126 170.904 67.9824 171.217 68.0472C171.529 68.1121 171.834 68.2288 172.151 68.2763C172.514 68.3325 172.865 68.3887 173.212 68.3973C173.558 68.406 173.926 68.3282 174.277 68.3109C174.628 68.2936 174.987 68.2893 175.342 68.272C175.697 68.2547 176.048 68.1942 176.407 68.1942C176.745 68.1942 177.079 68.2677 177.413 68.285C177.747 68.3022 178.085 68.3455 178.419 68.3671C178.753 68.3887 179.095 68.3195 179.429 68.3325C179.763 68.3455 180.097 68.4276 180.435 68.419C180.773 68.4103 181.111 68.419 181.445 68.3757C181.783 68.3325 182.109 68.1899 182.442 68.1337C182.776 68.0775 183.11 68.0126 183.444 67.9392C183.778 67.8657 184.133 67.8916 184.459 67.8052C184.784 67.7187 185.093 67.5329 185.414 67.4291C185.735 67.3254 186.06 67.213 186.377 67.0963C186.694 66.9796 187.003 66.8326 187.316 66.69C187.628 66.5473 187.933 66.4047 188.233 66.2448C188.533 66.0848 188.854 65.9595 189.146 65.7779C189.437 65.5964 189.729 65.4192 190.008 65.2203C190.287 65.0215 190.553 64.8054 190.815 64.5849C191.077 64.3645 191.335 64.1397 191.585 63.8977C191.834 63.6556 192.049 63.3963 192.282 63.1369C192.514 62.8776 192.721 62.6139 192.933 62.3373C193.144 62.0606 193.36 61.797 193.55 61.5074C193.74 61.2177 193.901 60.9152 194.07 60.6083C194.239 60.3014 194.433 60.0334 194.594 59.7351C194.754 59.4369 194.928 59.143 195.084 58.8447C195.241 58.5465 195.367 58.2223 195.519 57.924C195.672 57.6258 195.815 57.3102 195.963 57.0077C196.111 56.7051 196.221 56.3766 196.361 56.0697C196.5 55.7628 196.665 55.4646 196.8 55.1533C196.935 54.8421 197.104 54.5439 197.231 54.2283C197.358 53.9128 197.409 53.567 197.523 53.2471C197.637 52.9273 197.755 52.6117 197.861 52.2876C197.967 51.9634 198.148 51.6651 198.246 51.3409C198.343 51.0168 198.36 50.6666 198.44 50.3338C198.52 50.001 198.626 49.6811 198.698 49.3483C198.77 49.0155 198.799 48.6783 198.854 48.3411C198.909 48.004 198.994 47.6755 199.032 47.3383C199.07 47.0012 199.095 46.664 199.125 46.3226C199.154 45.9811 199.112 45.6439 199.125 45.3025C199.137 44.961 199.218 44.6282 199.218 44.2824C199.218 43.9366 199.205 43.6037 199.188 43.2579C199.171 42.9078 199.112 42.562 199.074 42.2119C199.036 41.8618 199.061 41.503 199.006 41.1616C198.951 40.8201 198.888 40.47 198.812 40.1285C198.736 39.787 198.571 39.4671 198.482 39.13C198.394 38.7928 198.347 38.4384 198.237 38.1099C198.127 37.7814 197.937 37.4788 197.806 37.1546C197.675 36.8305 197.62 36.476 197.476 36.1561C197.333 35.8363 197.193 35.5164 197.033 35.2052C196.872 34.894 196.673 34.6087 196.496 34.3061C196.318 34.0036 196.132 33.714 195.942 33.42C195.752 33.1261 195.507 32.8754 195.304 32.5988C195.101 32.3221 194.962 31.985 194.742 31.7127C194.522 31.4403 194.26 31.2113 194.027 30.9519C193.795 30.6926 193.592 30.4073 193.351 30.1609C193.11 29.9145 192.831 29.7027 192.578 29.465C192.324 29.2273 192.016 29.063 191.749 28.8382C191.483 28.6135 191.255 28.3498 190.98 28.138C190.705 27.9262 190.397 27.7706 190.114 27.5761C189.831 27.3816 189.598 27.1049 189.302 26.9234C189.006 26.7418 188.719 26.556 188.419 26.3831C188.119 26.2102 187.802 26.0805 187.493 25.9249C187.185 25.7693 186.876 25.618 186.563 25.4754C186.251 25.3327 185.912 25.2506 185.595 25.1209C185.279 24.9912 184.949 24.9005 184.623 24.7881C184.298 24.6757 183.989 24.5158 183.664 24.4164C183.339 24.3169 183.013 24.1916 182.679 24.1095C182.345 24.0273 182.011 23.9582 181.673 23.889C181.335 23.8199 180.997 23.768 180.659 23.7118C180.321 23.6556 179.974 23.6643 179.632 23.6254C179.289 23.5864 178.951 23.5519 178.609 23.5303C178.271 23.5086 177.933 23.4827 177.595 23.4784C177.256 23.4741 176.918 23.487 176.58 23.5C176.242 23.513 175.9 23.4654 175.562 23.4957C175.224 23.5259 174.89 23.6081 174.556 23.6556C174.222 23.7032 173.892 23.781 173.558 23.8458C173.224 23.9106 172.895 23.9798 172.565 24.0619C172.235 24.144 171.901 24.2089 171.58 24.3083C171.259 24.4077 170.938 24.5287 170.621 24.6455C170.304 24.7622 169.999 24.9178 169.687 25.0474C169.374 25.1771 169.07 25.3241 168.765 25.471C168.461 25.618 168.169 25.7909 167.869 25.9508C167.569 26.1108 167.269 26.262 166.977 26.4436C166.686 26.6251 166.369 26.7548 166.09 26.9493C165.811 27.1438 165.562 27.3859 165.291 27.5934C165.021 27.8008 164.763 28.0213 164.505 28.2461C164.247 28.4708 163.977 28.674 163.727 28.9117C163.478 29.1494 163.199 29.3483 162.962 29.599C162.726 29.8497 162.48 30.1177 162.252 30.3813C162.024 30.645 161.821 30.9433 161.606 31.2199C161.39 31.4965 161.242 31.8294 161.043 32.119C160.845 32.4086 160.612 32.6766 160.426 32.9748C160.24 33.2731 160.088 33.5929 159.919 33.8998C159.75 34.2067 159.522 34.4877 159.365 34.8032C159.209 35.1188 159.133 35.4775 158.993 35.8017C158.854 36.1259 158.727 36.4544 158.6 36.7829C158.474 37.1114 158.305 37.427 158.195 37.7641C158.085 38.1013 158.051 38.46 157.958 38.8015C157.865 39.143 157.768 39.4801 157.687 39.8259C157.607 40.1717 157.489 40.5045 157.421 40.8547C157.354 41.2048 157.244 41.5419 157.189 41.892C157.134 42.2422 157.121 42.5966 157.075 42.951C157.028 43.3055 157.041 43.6599 157.007 44.0144C156.973 44.3688 156.872 44.7146 156.846 45.069C156.825 45.3932 156.893 45.7261 156.893 46.0589C156.893 46.3917 156.893 46.7116 156.91 47.0444C156.927 47.3772 156.91 47.7014 156.944 48.0299C156.977 48.3584 157.003 48.6826 157.054 49.0111C157.104 49.3396 157.113 49.6681 157.176 49.9923C157.239 50.3165 157.379 50.6191 157.451 50.9433C157.523 51.2675 157.535 51.6003 157.62 51.9201C157.704 52.24 157.84 52.5426 157.933 52.8581V52.8624Z" fill="#EBBEA7"/>
<path d="M203.258 55.8008C203.021 56.0601 202.784 56.3281 202.518 56.5572C202.26 56.7777 201.943 56.9635 201.622 57.1451C201.322 57.3136 200.984 57.4347 200.646 57.5643C200.307 57.694 199.99 57.828 199.644 57.9101C199.297 57.9923 198.951 58.0701 198.6 58.109C198.249 58.1479 197.89 58.083 197.539 58.0787C197.188 58.0744 196.825 58.109 196.482 58.0614C196.14 58.0139 195.777 57.9274 195.451 57.8237C195.105 57.7113 194.771 57.5816 194.475 57.4044C194.179 57.2272 193.887 56.9851 193.646 56.7301C193.405 56.4751 193.194 56.1812 193.038 55.8483C192.894 55.5414 192.831 55.1827 192.776 54.8066C192.729 54.4738 192.7 54.1193 192.729 53.7303C192.755 53.4148 192.848 53.0863 192.907 52.7362C192.957 52.4163 192.957 52.0705 193.033 51.729C193.105 51.4092 193.177 51.0763 193.266 50.7435C193.355 50.4107 193.427 50.0908 193.532 49.7623C193.638 49.4338 193.82 49.1528 193.942 48.8373C194.065 48.5218 194.179 48.2062 194.314 47.895C194.449 47.5838 194.61 47.2899 194.762 46.9916C194.914 46.6934 194.999 46.3476 195.164 46.058C195.329 45.7684 195.607 45.5393 195.789 45.2626C195.971 44.986 196.127 44.6748 196.334 44.4154C196.542 44.1561 196.74 43.8665 196.973 43.6331C197.205 43.3997 197.467 43.1662 197.725 42.9631C197.983 42.7599 198.312 42.6346 198.6 42.479C198.887 42.3234 199.187 42.1591 199.5 42.064C199.838 41.9646 200.189 41.8825 200.54 41.8609C200.891 41.8392 201.25 41.8609 201.601 41.9127C201.952 41.9646 202.281 42.1072 202.611 42.2369C202.941 42.3666 203.258 42.5179 203.553 42.7167C203.87 42.9285 204.204 43.1317 204.462 43.4083C204.72 43.6849 204.961 44.0005 205.16 44.329C205.358 44.6575 205.447 45.0465 205.586 45.4053C205.726 45.764 205.912 46.1098 205.992 46.4859C206.072 46.8619 206.039 47.2553 206.064 47.64C206.089 48.0247 206.119 48.4051 206.094 48.7898C206.068 49.1745 206.018 49.5548 205.954 49.9352C205.891 50.3156 205.836 50.696 205.734 51.0677C205.641 51.4135 205.515 51.7506 205.396 52.0921C205.278 52.4336 205.109 52.7491 204.961 53.0733C204.813 53.3975 204.669 53.7303 204.492 54.0372C204.314 54.3441 204.149 54.6683 203.938 54.9579C203.727 55.2475 203.511 55.5371 203.27 55.8008H203.258Z" fill="#EBBEA7"/>
<path d="M202.565 49.4216C202.125 49.5469 201.69 49.6031 201.271 49.789C200.819 49.9921 200.367 50.0613 199.894 50.1953C198.968 50.4589 198.08 50.822 197.167 51.116C196.386 51.3667 196.052 50.1132 196.829 49.8668C197.742 49.5728 198.634 49.2098 199.555 48.9461C199.978 48.8251 200.397 48.7732 200.807 48.5916C201.276 48.3842 201.745 48.3107 202.231 48.1724C203.017 47.9433 203.355 49.1968 202.569 49.4216H202.565Z" fill="#A55535"/>
<path d="M168.427 49.2684C168.305 49.1906 168.491 49.2684 168.415 49.2554C168.334 49.2425 168.33 49.2511 168.41 49.2468C168.36 49.2468 168.245 49.2771 168.372 49.2382C168.338 49.2468 168.305 49.2554 168.271 49.2641C168.131 49.303 168.351 49.2036 168.229 49.2814C168.212 49.29 168.102 49.3765 168.165 49.3203C168.229 49.2641 168.106 49.3851 168.11 49.3808C168.03 49.4586 168.114 49.3505 168.089 49.4067C168.068 49.4456 168.043 49.4845 168.021 49.5234C167.962 49.6229 168.026 49.4759 168.017 49.5407C168.009 49.5839 167.992 49.6272 167.983 49.6704C167.983 49.6704 167.958 49.8346 167.967 49.7439C167.975 49.6531 167.967 49.8001 167.967 49.8217C167.967 49.8865 167.967 49.9514 167.967 50.0162C167.967 50.0594 167.971 50.1026 167.975 50.1459C167.992 50.349 167.95 50.0292 167.988 50.2323C168.026 50.4355 168.064 50.6602 168.144 50.8591C168.11 50.7769 168.157 50.8807 168.174 50.9109C168.199 50.9585 168.224 51.0017 168.25 51.0449C168.275 51.0838 168.3 51.1227 168.326 51.1616C168.364 51.2222 168.267 51.1011 168.347 51.1833C168.415 51.2524 168.478 51.3216 168.55 51.3864C168.685 51.5074 168.461 51.3259 168.605 51.4296C168.643 51.4556 168.681 51.4858 168.719 51.5118C168.799 51.5636 168.879 51.6155 168.964 51.6587C169.006 51.6803 169.082 51.7063 168.998 51.676C169.053 51.6933 169.108 51.7106 169.167 51.7279C169.488 51.81 169.712 52.199 169.611 52.5275C169.501 52.869 169.175 53.0678 168.829 52.9814C168.284 52.8474 167.73 52.4584 167.379 52.0175C166.948 51.4772 166.766 50.8331 166.707 50.1459C166.652 49.5278 166.813 48.8621 167.261 48.4212C167.738 47.9501 168.486 47.7858 169.07 48.1446C169.353 48.3175 169.484 48.7367 169.298 49.0307C169.112 49.3246 168.736 49.4499 168.431 49.2641L168.427 49.2684Z" fill="#2B2927"/>
<path d="M176.956 54.0851C177.391 54.5389 177.793 55.0663 178.165 55.572C178.537 56.0777 178.871 56.6094 179.086 57.2016C179.302 57.7937 179.479 58.3773 179.644 58.9781C179.83 59.6524 179.906 60.2835 179.906 60.9837C179.906 61.5413 179.061 61.5413 179.061 60.9837C179.061 60.6682 179.065 60.3483 179.027 60.0328C178.993 59.7518 178.904 59.4795 178.828 59.2072C178.668 58.6366 178.494 58.0834 178.3 57.5214C178.106 56.9595 177.789 56.497 177.459 56.0475C177.129 55.5979 176.753 55.1052 176.356 54.6946C175.958 54.2839 176.571 53.6874 176.952 54.0851H176.956Z" fill="#BC7F6C"/>
<path d="M184.517 47.0263C184.779 47.0263 185.042 47.0263 185.304 47.0263C185.337 47.0263 185.371 47.0263 185.405 47.022C185.515 46.9917 185.439 47.0177 185.405 47.022C185.464 47.0047 185.532 47.0004 185.591 46.9917C185.747 46.9615 185.904 46.9355 186.06 46.9355C186.28 46.9355 186.491 47.1344 186.483 47.3678C186.474 47.6012 186.297 47.7957 186.06 47.8C186.026 47.8 185.993 47.8 185.959 47.8044C185.925 47.8087 185.828 47.8346 185.942 47.8044C185.887 47.8217 185.828 47.826 185.773 47.8346C185.616 47.8649 185.46 47.8908 185.304 47.8951C185.042 47.8995 184.779 47.8951 184.517 47.8951C184.298 47.8951 184.086 47.6963 184.095 47.4629C184.103 47.2295 184.281 47.0306 184.517 47.0306V47.0263Z" fill="#BC7F6C"/>
<path d="M184.302 48.8162C184.75 48.8724 185.198 48.9026 185.646 48.9631C185.765 48.9761 185.858 49.002 185.946 49.0885C186.018 49.162 186.073 49.2873 186.069 49.3954C186.065 49.5034 186.027 49.6245 185.946 49.7023C185.87 49.7757 185.756 49.8449 185.646 49.8276C185.198 49.7714 184.75 49.7412 184.302 49.6806C184.184 49.6677 184.091 49.6417 184.002 49.5553C183.93 49.4818 183.875 49.3565 183.88 49.2484C183.884 49.1403 183.922 49.0193 184.002 48.9415C184.078 48.868 184.192 48.7989 184.302 48.8162Z" fill="#BC7F6C"/>
<path d="M190.595 38.5495C190.532 38.4545 190.409 38.4026 190.341 38.3118C190.147 38.0438 189.978 37.7542 189.746 37.5208C189.513 37.2874 189.281 37.054 189.027 36.8422C188.773 36.6304 188.478 36.4791 188.216 36.2759C187.953 36.0728 187.734 35.8221 187.48 35.6103C187.226 35.3985 186.922 35.2472 186.685 35.0181C186.449 34.789 186.242 34.521 186.039 34.2617C185.815 33.9764 185.68 33.6219 185.519 33.2762C185.358 32.9304 185.194 32.6062 185.058 32.2604C184.923 31.9146 184.817 31.5428 184.665 31.2143C184.505 30.8599 184.289 30.553 184.065 30.2807C183.837 29.9997 183.621 29.6928 183.372 29.4205C183.122 29.1482 182.865 28.8802 182.59 28.6382C182.315 28.3961 182.019 28.1584 181.711 27.9682C181.402 27.778 181.056 27.6353 180.709 27.5186C180.363 27.4019 180.008 27.3544 179.636 27.3328C179.247 27.3068 178.909 27.376 178.6 27.4452C178.232 27.5273 177.92 27.644 177.636 27.8299C177.353 28.0157 177.045 28.2232 176.816 28.5042C176.588 28.7851 176.453 29.1093 176.275 29.4292C176.098 29.749 175.908 30.0343 175.747 30.3585C175.587 30.6827 175.447 31.0069 175.278 31.3181C175.109 31.6293 174.936 31.9492 174.729 32.2344C174.538 32.4981 174.31 32.7315 174.107 32.9822C173.904 33.2329 173.731 33.5182 173.511 33.7516C173.292 33.985 173.038 34.1925 172.805 34.4173C172.573 34.6421 172.374 34.9057 172.129 35.1175C171.884 35.3293 171.622 35.5195 171.368 35.7183C171.115 35.9172 170.836 36.0814 170.574 36.2716C170.312 36.4618 170.058 36.665 169.792 36.8422C169.526 37.0194 169.23 37.162 168.955 37.3263C168.68 37.4905 168.406 37.6591 168.127 37.8191C167.848 37.979 167.535 38.1 167.243 38.2556C166.952 38.4112 166.702 38.636 166.406 38.7873C166.111 38.9386 165.785 39.012 165.489 39.1547C165.193 39.2973 164.902 39.4486 164.606 39.5869C164.31 39.7253 164.006 39.8506 163.706 39.9846C163.406 40.1186 163.144 40.3347 162.843 40.4687C162.543 40.6027 162.235 40.7108 161.935 40.8491C161.635 40.9874 161.347 41.143 161.051 41.2813C160.756 41.4197 160.439 41.5191 160.143 41.6617C159.847 41.8044 159.576 41.9945 159.28 42.1415C158.985 42.2885 158.684 42.4181 158.397 42.5694C158.11 42.7207 157.814 42.872 157.526 43.0319C157.087 43.2826 156.635 43.5722 156.132 43.5852C155.819 43.5939 155.527 43.5031 155.274 43.3475C155.02 43.1919 154.809 42.9801 154.619 42.7294C154.441 42.496 154.247 42.2452 154.12 41.9643C153.993 41.6833 153.942 41.3635 153.87 41.0825C153.786 40.754 153.727 40.4212 153.668 40.0883C153.608 39.7555 153.52 39.4227 153.49 39.0855C153.46 38.7484 153.511 38.4069 153.507 38.0654C153.503 37.724 153.482 37.3911 153.503 37.0497C153.524 36.7082 153.583 36.3797 153.63 36.0425C153.676 35.7054 153.668 35.3639 153.735 35.0311C153.803 34.6982 153.942 34.387 154.031 34.0585C154.12 33.73 154.154 33.3885 154.264 33.0687C154.373 32.7488 154.547 32.4549 154.678 32.1437C154.809 31.8325 154.936 31.5212 155.088 31.2187C155.24 30.9161 155.346 30.5876 155.515 30.298C155.684 30.0084 155.925 29.762 156.111 29.481C156.296 29.2001 156.478 28.9191 156.681 28.6511C156.884 28.3831 157.053 28.0849 157.273 27.8299C157.493 27.5748 157.772 27.3803 158.004 27.1383C158.249 26.8876 158.46 26.6023 158.714 26.3732C158.968 26.1441 159.23 25.902 159.5 25.6859C159.771 25.4698 160.109 25.3444 160.392 25.1456C160.675 24.9468 160.92 24.6874 161.216 24.5102C161.512 24.333 161.812 24.1601 162.116 23.9958C162.421 23.8316 162.738 23.6889 163.051 23.542C163.363 23.395 163.68 23.2567 163.997 23.127C164.314 22.9974 164.623 22.8288 164.948 22.7121C165.274 22.5954 165.599 22.4787 165.925 22.3749C166.25 22.2712 166.584 22.1804 166.918 22.0853C167.252 21.9902 167.59 21.9427 167.924 21.8562C168.258 21.7698 168.6 21.7266 168.934 21.6444C169.268 21.5623 169.593 21.4499 169.931 21.3721C170.27 21.2943 170.591 21.2424 170.925 21.169C171.259 21.0955 171.576 20.9917 171.909 20.9312C172.243 20.8707 172.581 20.8577 172.915 20.8059C173.249 20.754 173.583 20.7237 173.921 20.6805C174.259 20.6373 174.585 20.5379 174.923 20.5076C175.261 20.4774 175.595 20.4471 175.933 20.4298C176.271 20.4125 176.609 20.4082 176.947 20.4082C177.286 20.4082 177.624 20.4168 177.962 20.4298C178.3 20.4428 178.638 20.4471 178.976 20.4774C179.314 20.5076 179.648 20.5768 179.978 20.6286C180.308 20.6805 180.633 20.8015 180.963 20.875C181.292 20.9485 181.643 20.9355 181.969 21.0306C182.294 21.1257 182.577 21.3375 182.894 21.4586C183.161 21.5623 183.439 21.6315 183.71 21.7352C183.98 21.8389 184.264 21.8735 184.543 21.947C184.877 22.0378 185.21 22.0853 185.553 22.1329C185.895 22.1804 186.221 22.3058 186.563 22.362C186.893 22.4138 187.231 22.4311 187.552 22.5089C187.873 22.5867 188.199 22.6818 188.516 22.7812C188.833 22.8806 189.137 23.0363 189.441 23.1616C189.746 23.287 190.067 23.3993 190.367 23.5463C190.667 23.6933 190.98 23.8229 191.267 23.9915C191.554 24.1601 191.808 24.3935 192.083 24.5837C192.358 24.7739 192.632 24.9641 192.899 25.1715C193.165 25.379 193.401 25.6168 193.651 25.8372C193.9 26.0577 194.167 26.2651 194.407 26.5029C194.648 26.7406 194.872 26.9913 195.096 27.242C195.32 27.4927 195.591 27.7045 195.802 27.9682C196.014 28.2318 196.212 28.5085 196.411 28.7808C196.609 29.0531 196.749 29.3687 196.935 29.6539C197.121 29.9392 197.366 30.1813 197.539 30.4709C197.713 30.7605 197.793 31.1063 197.949 31.4089C198.097 31.6941 198.342 31.9362 198.499 32.2388C198.655 32.5413 198.71 32.8698 198.858 33.1724C199.006 33.475 199.23 33.7257 199.369 34.0283C199.509 34.3308 199.61 34.6464 199.733 34.9576C199.855 35.2688 199.944 35.5887 200.046 35.9042C200.147 36.2197 200.219 36.5483 200.299 36.8681C200.38 37.188 200.485 37.5122 200.536 37.8363C200.587 38.1605 200.595 38.502 200.604 38.8305C200.612 39.159 200.642 39.5005 200.599 39.829C200.557 40.1575 200.473 40.4817 200.371 40.8015C200.27 41.1214 200.101 41.3937 199.94 41.692C199.788 41.9729 199.615 42.2452 199.395 42.5089C199.196 42.7553 199.044 43.0535 198.816 43.274C198.587 43.4944 198.355 43.7149 198.106 43.9137C197.856 44.1125 197.582 44.2682 197.32 44.4454C197.057 44.6226 196.779 44.7739 196.508 44.9338C196.238 45.0937 195.942 45.2105 195.663 45.3574C195.367 45.5173 195.063 45.7508 194.733 45.8199C194.382 45.8934 194.023 45.8372 193.727 45.6384C193.524 45.5001 193.427 45.258 193.296 45.0505C193.118 44.7652 192.903 44.5059 192.759 44.199C192.615 43.8921 192.459 43.5939 192.341 43.274C192.222 42.9541 192.142 42.6256 192.041 42.3058C191.939 41.9859 191.855 41.6574 191.753 41.3332C191.652 41.009 191.563 40.6848 191.445 40.3693C191.326 40.0538 191.221 39.7296 191.077 39.427C190.933 39.1244 190.768 38.8262 190.587 38.5409L190.595 38.5495Z" fill="#97928C"/>
<path d="M180.067 31.0935C179.969 30.9033 179.838 30.7563 179.699 30.6007C179.53 30.4062 179.378 30.1987 179.217 29.9956C178.946 29.6455 178.608 29.4466 178.22 29.2521C177.831 29.0576 177.433 28.8501 176.994 28.8501C176.744 28.8501 176.495 28.8631 176.246 28.8588C176.026 28.8544 175.802 28.8372 175.586 28.8804C175.252 28.9452 174.902 28.7853 174.804 28.4265C174.72 28.111 174.91 27.696 175.248 27.6269C175.819 27.5145 176.415 27.5534 176.994 27.5534C177.636 27.5534 178.207 27.8084 178.773 28.0894C179.289 28.3444 179.775 28.6383 180.134 29.1051C180.468 29.5417 180.903 29.948 181.157 30.4408C181.318 30.7477 181.233 31.1453 180.929 31.3269C180.641 31.4998 180.223 31.4047 180.062 31.0935H180.067Z" fill="#97928C"/>
<path d="M177.527 32.4332C176.758 32.1868 175.959 32.1436 175.16 32.256C174.796 32.3078 174.522 32.4591 174.201 32.632C173.85 32.8222 173.486 32.9821 173.165 33.2242C172.89 33.4317 172.459 33.2717 172.299 32.9908C172.108 32.6623 172.248 32.3121 172.527 32.1047C172.873 31.8453 173.262 31.6767 173.638 31.4693C174.078 31.2272 174.492 31.05 174.991 30.9808C175.955 30.8512 176.931 30.8814 177.865 31.184C178.19 31.2877 178.402 31.6335 178.309 31.9836C178.216 32.3338 177.857 32.5412 177.527 32.4375V32.4332Z" fill="#97928C"/>
<path d="M177.197 79.6057C176.999 79.4069 176.817 79.1821 176.652 78.9444C176.487 78.7066 176.36 78.4559 176.242 78.1922C176.107 77.8897 176.014 77.5698 175.912 77.2543C175.811 76.9387 175.743 76.6146 175.663 76.2904C175.583 75.9662 175.46 75.6723 175.384 75.3481C175.35 75.6723 175.337 75.9878 175.261 76.3077C175.185 76.6275 175.02 76.9171 174.906 77.2197C174.792 77.5223 174.712 77.8465 174.56 78.1361C174.408 78.4257 174.175 78.6591 173.989 78.9271C173.753 79.2599 173.541 79.623 173.241 79.8996C172.941 80.1763 172.586 80.3837 172.218 80.5566C171.851 80.7295 171.453 80.8333 171.052 80.8462C170.65 80.8592 170.219 80.8289 169.86 80.6388C169.492 80.4442 169.167 80.133 168.93 79.7786C168.693 79.4241 168.6 78.9919 168.499 78.5856C168.423 78.2744 168.347 77.9588 168.317 77.6303C168.288 77.3018 168.343 76.9863 168.351 76.6578C168.359 76.3293 168.321 76.0051 168.359 75.6852C168.397 75.3654 168.402 75.0282 168.452 74.7127C168.503 74.3971 168.655 74.0816 168.714 73.7704C168.778 73.4203 168.795 73.0442 168.938 72.72C169.027 72.5169 169.179 72.3094 169.374 72.197C169.602 72.0673 169.894 72.1278 170.147 72.1797C170.49 72.2446 170.832 72.3137 171.174 72.3699C171.517 72.4261 171.863 72.478 172.21 72.5255C172.556 72.5731 172.903 72.6076 173.25 72.6465C173.596 72.6854 173.938 72.7503 174.285 72.7849C174.632 72.8194 174.987 72.7719 175.333 72.7935C175.68 72.8151 176.026 72.9318 176.373 72.9448C176.72 72.9578 177.07 72.9059 177.421 72.9059C177.772 72.9059 178.119 72.8713 178.465 72.8627C178.812 72.854 179.163 72.9102 179.509 72.8929C179.856 72.8756 180.198 72.7805 180.549 72.7546C180.9 72.7287 181.25 72.7978 181.597 72.7632C181.944 72.7287 182.29 72.6984 182.637 72.6509C182.983 72.6033 183.313 72.465 183.66 72.4088C184.006 72.3526 184.344 72.2835 184.687 72.2186C185.029 72.1538 185.388 72.1884 185.731 72.1149C186.073 72.0414 186.394 71.8901 186.732 71.8037C187.028 71.7302 187.294 71.8642 187.489 72.0544C187.683 72.2445 187.827 72.5082 187.785 72.8151C187.742 73.1393 187.7 73.4678 187.633 73.792C187.565 74.1162 187.493 74.436 187.4 74.7516C187.307 75.0671 187.125 75.3524 187.011 75.655C186.897 75.9575 186.8 76.2774 186.665 76.5713C186.529 76.8653 186.373 77.1549 186.217 77.4401C186.048 77.7384 185.891 78.0539 185.688 78.3392C185.485 78.6245 185.283 78.9098 185.054 79.1648C184.826 79.4198 184.56 79.6532 184.298 79.878C184.036 80.1028 183.757 80.3146 183.461 80.4875C183.165 80.6604 182.857 80.8333 182.531 80.9413C182.206 81.0494 181.859 81.0796 181.517 81.1099C181.204 81.1402 180.891 81.1272 180.578 81.1013C180.266 81.0753 179.944 81.0796 179.64 81.0018C179.336 80.924 179.065 80.7338 178.782 80.6042C178.499 80.4745 178.178 80.3967 177.916 80.2195C177.654 80.0423 177.421 79.8175 177.197 79.5927V79.6057Z" fill="white"/>
<path d="M166.314 55.3386C166.128 55.6931 166.014 56.0778 165.874 56.4538C165.735 56.8299 165.633 57.1886 165.57 57.582C165.502 58.0013 165.515 58.3643 165.595 58.7793C165.675 59.2159 165.718 59.6568 165.836 60.0847C165.984 60.6207 165.168 60.8498 165.02 60.3138C164.894 59.8513 164.851 59.3801 164.763 58.9133C164.665 58.4032 164.665 57.958 164.741 57.4437C164.809 56.9855 164.932 56.5705 165.092 56.1383C165.253 55.706 165.375 55.2954 165.587 54.9021C165.845 54.4136 166.576 54.8502 166.318 55.3386H166.314Z" fill="#BC7F6C"/>
<path d="M202.573 92.1821C202.075 92.9861 201.593 93.803 201.191 94.6589C200.997 95.0781 200.84 95.5147 200.633 95.9253C200.426 96.336 200.215 96.6818 200.042 97.0838C199.678 97.9353 199.441 98.8387 199.137 99.7161C198.833 100.594 198.533 101.514 198.296 102.435C198.059 103.356 197.924 104.263 197.696 105.167C197.468 106.07 197.438 107.051 197.227 107.976C197.125 108.417 197.087 108.845 197.041 109.29C196.994 109.736 196.88 110.211 196.859 110.678C196.838 111.197 196.829 111.685 196.732 112.195C196.652 112.632 196.643 113.077 196.614 113.518C196.555 114.464 196.496 115.42 196.483 116.366C196.47 117.313 196.381 118.229 196.348 119.163C196.314 120.097 196.39 121.06 196.373 122.016C196.356 122.971 196.293 123.918 196.267 124.864C196.255 125.331 196.293 125.798 196.284 126.265C196.276 126.731 196.272 127.198 196.293 127.665C196.314 128.132 196.25 128.629 196.246 129.117C196.242 129.606 196.267 130.051 196.276 130.518C196.284 130.985 196.288 131.452 196.284 131.918C196.28 132.385 196.204 132.882 196.195 133.371C196.187 133.859 196.191 134.304 196.183 134.771C196.174 135.238 196.124 135.701 196.073 136.167C196.022 136.634 195.967 137.14 195.971 137.615C195.971 138.121 196.001 138.584 195.878 139.081C195.828 139.28 195.781 139.47 195.777 139.677C195.773 139.919 195.794 140.166 195.777 140.408C195.747 140.905 195.709 141.432 195.612 141.921C195.566 142.141 195.494 142.357 195.452 142.578C195.409 142.798 195.409 143.014 195.392 143.23C195.359 143.723 195.249 144.199 195.16 144.683C194.987 145.616 194.784 146.541 194.56 147.466C194.45 147.92 194.353 148.374 194.239 148.828C194.031 149.636 192.81 149.29 193.017 148.482C193.254 147.566 193.461 146.636 193.672 145.711C193.884 144.786 194.082 143.887 194.141 142.971C194.175 142.47 194.31 142.011 194.399 141.523C194.479 141.082 194.518 140.594 194.513 140.144C194.509 139.634 194.547 139.18 194.665 138.683C194.771 138.242 194.678 137.801 194.708 137.352C194.771 136.401 194.889 135.463 194.915 134.508C194.927 134.023 194.902 133.535 194.936 133.055C194.97 132.575 195.012 132.126 195.012 131.655C195.012 131.184 194.999 130.721 194.999 130.254C194.999 129.787 194.953 129.286 194.987 128.802C195.02 128.318 195.029 127.877 195.008 127.401C194.987 126.926 195.016 126.433 195.016 125.949C195.016 125.465 194.982 125.015 195.016 124.549C195.05 124.082 195.067 123.58 195.084 123.096C195.118 122.171 195.16 121.22 195.084 120.295C195.008 119.37 195.13 118.393 195.173 117.447C195.215 116.5 195.244 115.549 195.299 114.598C195.354 113.621 195.363 112.653 195.536 111.689C195.616 111.253 195.561 110.803 195.612 110.362C195.671 109.883 195.756 109.407 195.798 108.923C195.84 108.439 195.929 107.955 196.031 107.471C196.128 107.017 196.174 106.55 196.246 106.087C196.394 105.145 196.593 104.22 196.779 103.291C196.965 102.361 197.214 101.436 197.51 100.537C197.806 99.6383 198.148 98.7479 198.41 97.8402C198.545 97.369 198.719 96.9195 198.913 96.47C199.095 96.0507 199.323 95.6703 199.526 95.264C199.729 94.8577 199.889 94.4125 200.084 93.9975C200.291 93.5566 200.507 93.133 200.756 92.7181C201.005 92.3031 201.221 91.9141 201.466 91.5208C201.901 90.8205 203 91.4689 202.561 92.1734L202.573 92.1821Z" fill="#4E719B"/>
<path d="M175.625 42.3232C176.047 42.3751 176.474 42.3751 176.897 42.4227C177.345 42.4745 177.793 42.5221 178.237 42.6085C178.63 42.6863 179.023 42.7209 179.42 42.7641C179.877 42.816 180.299 42.963 180.747 43.0364C181.085 43.0926 181.276 43.5249 181.191 43.8361C181.094 44.2035 180.752 44.3418 180.409 44.29C180.012 44.2251 179.64 44.0868 179.238 44.0479C178.837 44.009 178.402 43.9658 177.987 43.8836C177.624 43.8102 177.265 43.7669 176.897 43.728C176.474 43.6805 176.047 43.6805 175.625 43.6286C175.287 43.5897 174.991 43.3606 174.991 42.9803C174.991 42.6604 175.282 42.293 175.625 42.3319V42.3232Z" fill="#2B2927"/>
<path d="M165.679 43.1695C165.396 43.243 165.109 43.2862 164.826 43.3467C164.682 43.3769 164.542 43.4159 164.407 43.4677C164.369 43.4807 164.331 43.498 164.293 43.5109C164.348 43.485 164.344 43.4893 164.272 43.5196C164.204 43.5498 164.141 43.5801 164.073 43.6104C163.777 43.7487 163.481 43.8784 163.169 43.9778C162.881 44.0685 162.59 44.1463 162.311 44.2587C162.002 44.3841 161.601 44.1204 161.529 43.8049C161.444 43.4288 161.643 43.1435 161.973 43.0052C162.243 42.8972 162.522 42.8194 162.801 42.7329C162.94 42.6897 163.076 42.6421 163.211 42.5903C163.11 42.6335 163.325 42.5384 163.346 42.5297C163.414 42.4995 163.477 42.4692 163.545 42.439C163.841 42.3007 164.137 42.1753 164.458 42.1018C164.754 42.0327 165.05 41.9938 165.341 41.916C165.662 41.8295 166.043 42.024 166.123 42.3698C166.203 42.7156 166.022 43.0744 165.679 43.1695Z" fill="#2B2927"/>
<path d="M172.792 58.7095C173.249 58.7484 173.722 58.8954 174.175 58.7441C174.301 58.7008 174.386 58.6533 174.424 58.5582C174.479 58.4199 174.454 58.2643 174.403 58.1865C174.251 57.9487 173.689 57.7758 173.367 57.6937C172.89 57.5727 172.391 57.3998 171.896 57.3911C170.874 57.3695 169.792 57.443 168.803 57.7369C168.65 57.7802 168.536 57.8407 168.477 57.8925C168.469 57.9012 168.372 57.992 168.418 57.9487C168.464 57.9055 168.363 58.0265 168.397 57.9747C168.431 57.9228 168.372 58.0698 168.38 58.0136C168.388 57.9487 168.388 58.1951 168.38 58.1432C168.397 58.2513 168.456 58.3637 168.532 58.4156C168.617 58.4761 168.845 58.4631 169.022 58.4674C169.322 58.4674 169.614 58.5236 169.914 58.5539C170.227 58.5885 170.544 58.5841 170.857 58.6014C171.169 58.6187 171.482 58.6619 171.799 58.6879C172.129 58.7138 172.463 58.6965 172.792 58.7138C173.122 58.7311 173.426 58.9991 173.426 59.3622C173.426 59.6993 173.135 60.0278 172.792 60.0105C172.429 59.9933 172.061 60.0105 171.698 59.976C171.334 59.9414 170.971 59.9025 170.607 59.8895C170.244 59.8766 169.893 59.8463 169.53 59.8031C169.213 59.7598 168.891 59.7815 168.574 59.7426C167.864 59.6604 167.294 59.172 167.146 58.4415C167.006 57.7499 167.298 57.1015 167.885 56.7384C168.393 56.4229 169.056 56.3365 169.631 56.2457C170.354 56.1333 171.11 56.0901 171.846 56.0987C172.526 56.1074 173.228 56.3062 173.883 56.4964C174.496 56.6736 175.219 57.0021 175.531 57.5986C175.924 58.3421 175.683 59.3103 175.003 59.7771C174.682 59.9976 174.289 60.0711 173.913 60.1013C173.536 60.1316 173.114 60.0408 172.792 60.0149C172.45 59.9846 172.159 59.7382 172.159 59.3665C172.159 59.038 172.45 58.6879 172.792 58.7181V58.7095Z" fill="#A55535"/>
<path d="M174.598 47.6799C174.894 47.7448 175.168 47.8788 175.464 47.9566C175.76 48.0344 176.081 48.0301 176.449 48.1251C176.762 48.203 177.054 48.3586 177.362 48.4537C177.671 48.5487 178.009 48.6179 178.33 48.726C178.651 48.834 178.879 49.1798 178.774 49.5256C178.672 49.8498 178.33 50.0919 177.992 49.9795C177.683 49.8757 177.366 49.8152 177.058 49.7201C176.749 49.625 176.436 49.4608 176.111 49.3787C175.828 49.3052 175.511 49.3095 175.156 49.2187C174.851 49.1409 174.564 49.0026 174.26 48.9334C173.934 48.86 173.715 48.458 173.816 48.1338C173.926 47.7837 174.247 47.6021 174.598 47.6799Z" fill="#2B2927"/>
<path d="M165.1 49.0964C164.707 49.2434 164.306 49.3558 163.904 49.4768C163.503 49.5978 163.105 49.7318 162.699 49.8313C162.378 49.9091 161.998 49.7275 161.918 49.3774C161.837 49.0273 162.015 48.6642 162.361 48.5777C162.767 48.4783 163.164 48.3443 163.566 48.2233C163.967 48.1023 164.369 47.9899 164.762 47.8429C165.075 47.7262 165.472 47.9726 165.544 48.2968C165.624 48.6642 165.434 48.9668 165.1 49.0964Z" fill="#2B2927"/>
<path d="M196.622 86.7067C196.462 87.1605 196.326 87.623 196.136 88.0683C195.971 88.453 195.84 88.7987 195.756 89.2094C195.667 89.6546 195.494 90.035 195.325 90.4499C195.156 90.8649 195.079 91.3101 194.97 91.738C194.746 92.5939 194.577 93.4584 194.31 94.3056C194.175 94.7421 194.107 95.1917 194.006 95.6412C193.904 96.0907 193.757 96.4711 193.668 96.899C193.579 97.327 193.482 97.7722 193.427 98.2174C193.368 98.6885 193.245 99.1208 193.139 99.579C192.932 100.469 192.89 101.394 192.67 102.285C192.565 102.713 192.552 103.119 192.514 103.556C192.472 104.027 192.328 104.476 192.294 104.947C192.256 105.44 192.227 105.929 192.155 106.417C192.091 106.858 192.032 107.303 191.99 107.744C191.939 108.258 191.96 108.79 191.948 109.309C191.935 109.827 191.888 110.351 191.855 110.869C191.821 111.388 191.825 111.945 191.77 112.486C191.745 112.745 191.715 113.004 191.732 113.268C191.749 113.549 191.791 113.821 191.795 114.102C191.808 114.937 190.54 114.937 190.527 114.102C190.519 113.627 190.439 113.169 190.481 112.693C190.523 112.218 190.544 111.76 190.565 111.288C190.608 110.333 190.713 109.382 190.701 108.423C190.688 107.463 190.912 106.56 190.984 105.622C191.022 105.129 191.039 104.641 191.136 104.152C191.233 103.664 191.242 103.24 191.288 102.769C191.335 102.298 191.478 101.874 191.55 101.42C191.622 100.966 191.711 100.495 191.779 100.033C191.846 99.5703 191.931 99.1597 192.045 98.7231C192.159 98.2865 192.184 97.8197 192.269 97.3659C192.446 96.4581 192.721 95.585 192.899 94.6773C192.983 94.245 193.131 93.8387 193.249 93.4151C193.368 92.9915 193.482 92.529 193.583 92.0838C193.697 91.5824 193.816 91.0897 193.947 90.5926C194.078 90.0955 194.314 89.6978 194.441 89.231C194.505 89.0019 194.538 88.7642 194.593 88.5351C194.657 88.2628 194.767 88.0077 194.881 87.757C195.084 87.3032 195.227 86.8277 195.392 86.3609C195.511 86.0324 195.823 85.8119 196.174 85.907C196.487 85.9935 196.732 86.3739 196.618 86.7067H196.622Z" fill="#4E719B"/>
<path d="M155.719 93.2067C156.006 93.4012 156.327 93.5438 156.606 93.7513C156.885 93.9588 157.101 94.2527 157.376 94.4645C157.65 94.6763 157.959 94.8449 158.229 95.0653C158.5 95.2858 158.783 95.4889 159.045 95.718C159.307 95.9471 159.531 96.2194 159.785 96.4572C160.038 96.6949 160.338 96.8808 160.588 97.1228C160.837 97.3649 161.027 97.6718 161.272 97.9182C161.463 98.1127 161.691 98.2899 161.843 98.519C161.995 98.7481 162.147 99.0161 162.156 99.3013C162.169 99.7855 161.83 100.226 161.475 100.546C161.188 100.806 160.854 100.983 160.499 101.125C160.144 101.268 159.793 101.441 159.413 101.493C159.032 101.545 158.644 101.558 158.263 101.545C157.883 101.532 157.507 101.432 157.126 101.393C156.746 101.355 156.365 101.337 155.989 101.303C155.613 101.268 155.233 101.195 154.852 101.203C154.531 101.212 154.21 101.242 153.893 101.285C153.576 101.329 153.255 101.372 152.946 101.441C152.638 101.51 152.35 101.687 152.037 101.774C151.725 101.86 151.403 101.869 151.095 101.96C150.786 102.05 150.491 102.171 150.182 102.254C149.873 102.336 149.569 102.444 149.261 102.513C148.952 102.582 148.635 102.643 148.318 102.686C148.001 102.729 147.68 102.686 147.363 102.69C147.046 102.694 146.716 102.781 146.403 102.742C146.091 102.703 145.761 102.647 145.457 102.56C145.152 102.474 144.89 102.249 144.611 102.098C144.332 101.947 144.024 101.83 143.783 101.605C143.512 101.35 143.28 101.052 143.098 100.736C142.917 100.421 142.815 100.053 142.718 99.6947C142.621 99.3359 142.578 98.9772 142.566 98.6011C142.553 98.2251 142.616 97.8749 142.68 97.5075C142.743 97.1401 142.811 96.79 142.942 96.4442C143.073 96.0984 143.238 95.7742 143.436 95.4673C143.635 95.1604 143.8 94.8103 144.049 94.5423C144.299 94.2743 144.637 94.1014 144.928 93.8767C145.22 93.6519 145.499 93.4271 145.816 93.2413C146.133 93.0554 146.437 92.8566 146.775 92.7096C147.114 92.5626 147.473 92.4978 147.819 92.3897C148.166 92.2817 148.504 92.1218 148.859 92.0483C149.18 91.9791 149.518 91.9964 149.844 91.9488C150.169 91.9013 150.495 91.8797 150.824 91.8581C151.154 91.8365 151.48 91.7803 151.809 91.7803C152.139 91.7803 152.464 91.8278 152.794 91.8581C153.124 91.8883 153.445 91.9402 153.77 91.9921C154.096 92.0439 154.438 92.0094 154.755 92.0915C155.072 92.1736 155.385 92.2946 155.698 92.3984C156.01 92.5021 156.298 92.675 156.602 92.809" fill="#D6A792"/>
<path d="M138.271 93.475C138.525 93.2329 138.783 93.0082 139.041 92.7877C139.298 92.5673 139.569 92.3425 139.839 92.135C140.11 91.9276 140.414 91.7546 140.697 91.5645C140.981 91.3743 141.281 91.2057 141.576 91.0328C141.872 90.8599 142.151 90.6524 142.456 90.5011C142.76 90.3499 143.077 90.2115 143.394 90.0819C143.711 89.9522 144.028 89.8139 144.349 89.7058C144.67 89.5977 145.013 89.5329 145.342 89.4508C145.672 89.3687 146.006 89.2865 146.34 89.226C146.674 89.1655 147.012 89.118 147.35 89.0834C147.688 89.0488 148.026 88.9926 148.369 88.9796C148.711 88.9667 149.045 89.0704 149.387 89.0834C149.729 89.0963 150.068 89.0229 150.41 89.0574C150.752 89.092 151.082 89.1698 151.42 89.2217C151.758 89.2736 152.109 89.2433 152.443 89.3168C152.777 89.3903 153.085 89.5545 153.415 89.6496C153.745 89.7447 154.057 89.8657 154.383 89.9781C154.713 90.0905 155.034 90.2288 155.359 90.3671C155.685 90.5055 156.006 90.6395 156.314 90.7994C156.623 90.9593 156.919 91.1538 157.219 91.3397C157.519 91.5256 157.874 91.625 158.157 91.8325C158.44 92.0399 158.745 92.2388 159.011 92.4679C159.277 92.6969 159.51 92.9779 159.759 93.2329C160.008 93.488 160.249 93.7516 160.469 94.0283C160.689 94.3049 160.812 94.6593 161.01 94.9533C161.209 95.2472 161.496 95.4849 161.661 95.8005C161.826 96.116 161.889 96.4791 162.025 96.8119C162.126 97.0583 162.325 97.3047 162.354 97.5727C162.384 97.8407 162.329 98.1648 162.177 98.3983C161.906 98.8089 161.513 98.9429 161.158 98.8694C160.841 98.8046 160.473 98.5841 160.148 98.3205C159.856 98.087 159.632 97.7283 159.375 97.4689C159.049 97.1404 158.724 96.8897 158.512 96.7384C158.259 96.5526 158.001 96.3797 157.739 96.2111C157.477 96.0425 157.223 95.8567 156.944 95.7097C156.665 95.5627 156.374 95.4633 156.09 95.3336C155.807 95.204 155.545 95.0181 155.254 94.91C154.962 94.802 154.645 94.776 154.345 94.6896C154.045 94.6031 153.757 94.4951 153.453 94.4346C153.766 94.5859 154.053 94.7847 154.353 94.9576C154.653 95.1305 154.966 95.2861 155.258 95.4806C155.549 95.6751 155.875 95.8178 156.154 96.0296C156.369 96.1938 156.593 96.4877 156.881 96.7644C157.113 96.9848 157.38 97.2139 157.616 97.4862C157.84 97.7412 158.06 98.0136 158.263 98.2945C158.466 98.5755 158.643 98.8867 158.795 99.185C158.96 99.5135 159.083 99.842 159.146 100.162C159.218 100.521 159.239 100.879 159.134 101.199C159.032 101.502 158.812 101.765 158.5 102.008C158.25 102.198 157.95 102.336 157.604 102.345C157.312 102.349 156.999 102.232 156.665 102.137C156.374 102.055 156.095 101.899 155.786 101.761C155.503 101.636 155.173 101.575 154.886 101.42C154.598 101.264 154.362 101.039 154.091 100.871C153.821 100.702 153.542 100.521 153.284 100.348C153.001 100.153 152.667 100.067 152.426 99.8982C152.113 99.6734 151.889 99.4184 151.686 99.2757C151.961 99.4702 152.198 99.7209 152.443 99.9543C152.688 100.188 152.971 100.387 153.187 100.655C153.402 100.923 153.559 101.229 153.736 101.523C153.914 101.817 154.087 102.111 154.227 102.422C154.366 102.734 154.51 103.049 154.603 103.382C154.696 103.715 154.751 104.056 154.797 104.394C154.861 104.834 154.915 105.431 154.577 105.712C154.277 105.963 153.791 105.768 153.407 105.69C153.068 105.621 152.726 105.587 152.396 105.491C152.067 105.396 151.733 105.314 151.407 105.193C151.082 105.072 150.778 104.917 150.461 104.774C150.144 104.631 149.806 104.54 149.501 104.376C149.197 104.212 148.939 103.966 148.647 103.78C148.356 103.594 148.043 103.486 147.764 103.278C147.992 103.486 148.229 103.654 148.449 103.875C148.669 104.095 148.893 104.32 149.079 104.571C149.265 104.821 149.391 105.111 149.514 105.401C149.632 105.686 149.696 105.993 149.708 106.308C149.721 106.624 149.662 106.931 149.548 107.216C149.434 107.501 149.29 107.787 149.032 107.977C148.686 108.228 148.263 108.387 147.836 108.362C147.409 108.336 146.999 108.163 146.627 107.985C146.251 107.808 145.875 107.605 145.52 107.389C145.165 107.173 144.839 106.888 144.446 106.741C144.121 106.615 143.778 106.529 143.436 106.481C143.094 106.434 142.747 106.507 142.396 106.516C142.046 106.524 141.707 106.542 141.361 106.572C141.014 106.602 140.668 106.598 140.321 106.62C139.975 106.641 139.624 106.676 139.281 106.667C138.939 106.658 138.588 106.585 138.254 106.516C137.92 106.447 137.599 106.326 137.286 106.161C136.965 105.993 136.712 105.764 136.454 105.556C136.171 105.331 135.887 105.141 135.676 104.878C135.456 104.601 135.254 104.311 135.106 104C134.958 103.689 134.856 103.343 134.776 103.002C134.696 102.66 134.662 102.314 134.641 101.956C134.62 101.597 134.59 101.255 134.624 100.901C134.658 100.547 134.725 100.209 134.797 99.8593C134.869 99.5091 135.004 99.1893 135.106 98.8521C135.207 98.515 135.393 98.2167 135.524 97.8925C135.655 97.5684 135.689 97.2009 135.845 96.8854C136.002 96.5699 136.217 96.2889 136.39 95.9907C136.564 95.6924 136.703 95.3509 136.898 95.07C137.105 94.7717 137.341 94.5124 137.557 94.2573C137.794 93.9764 138.026 93.717 138.263 93.488L138.271 93.475Z" fill="#EBBEA7"/>
<path d="M144.463 98.7905C144.894 99.0671 145.258 99.374 145.676 99.6809C146.124 100.014 146.53 100.385 146.957 100.744C147.096 100.861 147.287 100.978 147.451 101.107C147.688 101.289 147.874 101.483 148.056 101.721C148.36 102.123 148.732 102.491 149.062 102.897C149.281 103.165 149.32 103.55 149.062 103.813C148.838 104.042 148.385 104.085 148.166 103.813C147.828 103.398 147.447 103.031 147.126 102.599C147.025 102.46 146.885 102.292 146.746 102.175C146.555 102.024 146.314 101.877 146.116 101.712C145.752 101.41 145.414 101.081 145.034 100.8C144.62 100.494 144.243 100.178 143.821 99.91C143.529 99.7241 143.415 99.3308 143.593 99.0239C143.77 98.717 144.167 98.6046 144.459 98.7905H144.463Z" fill="#A55535"/>
<path d="M151.052 99.6096C150.837 99.3113 150.486 99.039 150.232 98.7451C150.105 98.5981 149.983 98.4598 149.826 98.3561C149.645 98.235 149.446 98.1443 149.256 98.0449C148.884 97.8503 148.487 97.7336 148.094 97.591C147.658 97.4311 147.214 97.3489 146.749 97.336C145.934 97.3187 145.934 96.0219 146.749 96.0392C147.299 96.0522 147.87 96.1343 148.389 96.3245C148.909 96.5147 149.412 96.6746 149.894 96.9253C150.376 97.176 150.777 97.4224 151.128 97.8287C151.462 98.2134 151.847 98.5419 152.143 98.9569C152.345 99.2379 152.189 99.6787 151.914 99.843C151.593 100.038 151.251 99.8949 151.048 99.6096H151.052Z" fill="#A55535"/>
<path d="M153.132 94.668C153.094 94.6508 153.052 94.6335 153.014 94.6162C152.942 94.5859 152.933 94.5816 152.984 94.6032C152.925 94.5773 152.866 94.5513 152.802 94.5297C152.663 94.4735 152.519 94.4217 152.375 94.3741C152.105 94.292 151.826 94.2488 151.551 94.1883C151.412 94.158 151.276 94.1277 151.137 94.1018C151.061 94.0888 150.989 94.0715 150.913 94.0586C150.913 94.0586 150.71 94.0326 150.824 94.0456C150.52 94.0197 150.22 94.0543 149.915 94.0543C149.586 94.0543 149.265 93.756 149.281 93.4059C149.298 93.0558 149.56 92.7575 149.915 92.7575C150.241 92.7575 150.562 92.7186 150.888 92.7575C151.213 92.7964 151.555 92.8656 151.885 92.9391C152.181 93.0039 152.481 93.0514 152.773 93.1465C153.115 93.2546 153.44 93.4059 153.77 93.5529C154.074 93.6869 154.167 94.171 153.998 94.439C153.795 94.7631 153.457 94.815 153.132 94.6724V94.668Z" fill="#A55535"/>
<path d="M172.797 84.6962C172.797 85.0161 172.911 85.3316 173.059 85.5909C173.207 85.8503 173.439 86.088 173.701 86.2393C173.963 86.3906 174.259 86.4381 174.572 86.4381C174.885 86.4381 175.164 86.343 175.417 86.1961C175.671 86.0491 175.95 85.8676 176.102 85.5996C176.254 85.3316 176.296 85.0161 176.296 84.6962C176.296 84.3763 176.208 84.0738 176.064 83.8144C175.92 83.5551 175.667 83.3735 175.409 83.2179C175.151 83.0623 174.889 82.9629 174.576 82.9629C174.263 82.9629 173.98 83.0407 173.727 83.1877C173.473 83.3346 173.215 83.5335 173.063 83.7971C172.911 84.0608 172.797 84.3677 172.797 84.6875V84.6962Z" fill="white"/>
<path d="M172.822 92.3161C172.822 92.636 172.978 92.9126 173.126 93.172C173.274 93.4313 173.426 93.7296 173.689 93.8852C173.951 94.0408 174.259 94.084 174.572 94.084C174.885 94.084 175.168 93.9673 175.417 93.816C175.667 93.6647 175.92 93.4702 176.072 93.2022C176.224 92.9342 176.296 92.636 176.296 92.3161C176.296 91.9963 176.241 91.6721 176.093 91.4171C175.946 91.162 175.667 90.9891 175.405 90.8335C175.142 90.6779 174.88 90.5137 174.568 90.5137C174.255 90.5137 173.963 90.6477 173.714 90.7989C173.465 90.9502 173.202 91.1534 173.055 91.4171C172.907 91.6807 172.818 91.9919 172.818 92.3118L172.822 92.3161Z" fill="white"/>
<path d="M172.911 99.9379C172.911 100.258 172.987 100.53 173.131 100.789C173.274 101.049 173.469 101.278 173.731 101.433C173.993 101.589 174.259 101.641 174.576 101.641C174.893 101.641 175.18 101.606 175.43 101.455C175.679 101.304 175.869 101.062 176.022 100.794C176.174 100.526 176.322 100.258 176.322 99.9379C176.322 99.6181 176.241 99.2982 176.093 99.0388C175.945 98.7795 175.696 98.5677 175.434 98.4121C175.172 98.2565 174.885 98.1182 174.572 98.1182C174.259 98.1182 173.98 98.2954 173.731 98.4467C173.481 98.598 173.27 98.8141 173.118 99.0821C172.966 99.3501 172.907 99.6181 172.907 99.9422L172.911 99.9379Z" fill="white"/>
<path d="M137.691 81.3553C137.175 81.4764 136.655 81.6925 136.165 81.9C135.674 82.1074 135.239 82.4792 134.821 82.812C134.402 83.1448 134.051 83.5468 133.696 83.9574C133.341 84.3681 133.007 84.7657 132.724 85.2326C132.441 85.6994 132.12 86.1489 131.849 86.6244C131.541 87.1647 131.249 87.718 130.966 88.2756C130.729 88.7338 130.48 89.1703 130.302 89.6588C130.205 89.9268 130.104 90.1904 129.964 90.4411C129.846 90.6529 129.711 90.8561 129.622 91.0852C129.504 91.3877 129.377 91.6946 129.284 92.0102C129.191 92.3257 129.166 92.6369 129.073 92.9438C128.874 93.6138 128.654 94.2708 128.485 94.9451C128.282 95.7534 127.061 95.4119 127.264 94.5993C127.42 93.9726 127.606 93.3588 127.805 92.745C127.889 92.4813 127.94 92.2133 127.995 91.941C128.058 91.6255 128.177 91.3316 128.286 91.0333C128.392 90.7523 128.489 90.4671 128.629 90.2034C128.756 89.9657 128.912 89.7452 129.013 89.4945C129.242 88.9369 129.453 88.4009 129.74 87.8736C130.028 87.3462 130.307 86.7843 130.607 86.244C130.907 85.7037 131.241 85.2153 131.562 84.7009C131.883 84.1865 132.221 83.7111 132.623 83.2529C133.024 82.7947 133.384 82.3495 133.84 81.9691C134.335 81.5585 134.859 81.1046 135.438 80.8193C135.742 80.6681 136.063 80.56 136.38 80.439C136.697 80.3179 137.023 80.1796 137.361 80.1018C137.699 80.024 138.046 80.2055 138.143 80.5557C138.232 80.8842 138.037 81.2732 137.699 81.3553H137.691Z" fill="#D3CAC2"/>
<path d="M128.502 83.2276C128.354 83.4783 128.185 83.7117 128.029 83.9581C127.855 84.2347 127.72 84.5243 127.572 84.8139C127.306 85.3326 126.947 85.7908 126.664 86.3052C126.368 86.8455 126.127 87.4117 125.844 87.9563C125.708 88.2157 125.543 88.4577 125.421 88.7214C125.298 88.9851 125.239 89.2963 125.138 89.5816C124.918 90.1781 124.681 90.7789 124.419 91.3538C124.17 91.8984 124.161 92.5079 123.95 93.0698C123.739 93.6317 123.654 94.1937 123.587 94.8031C123.553 95.0927 123.549 95.3867 123.523 95.6763C123.498 96.0004 123.447 96.3203 123.434 96.6445C123.418 97.0335 123.443 97.4225 123.464 97.8115C123.481 98.1314 123.472 98.4686 123.527 98.7841C123.582 99.0996 123.726 99.4195 123.802 99.7437C123.882 100.094 123.904 100.453 124.009 100.798C124.254 101.598 123.029 101.939 122.788 101.144C122.691 100.829 122.669 100.504 122.602 100.185C122.534 99.8647 122.407 99.5621 122.336 99.2466C122.192 98.6155 122.196 97.9239 122.175 97.2756C122.154 96.6272 122.247 95.9529 122.289 95.2829C122.331 94.6129 122.382 93.9473 122.53 93.3205C122.602 93.0179 122.746 92.7413 122.834 92.4431C122.927 92.1318 122.957 91.8033 123.033 91.4878C123.109 91.1723 123.257 90.861 123.392 90.5628C123.519 90.2905 123.616 90.0052 123.726 89.7242C123.963 89.1148 124.115 88.4578 124.428 87.8872C124.576 87.6149 124.736 87.3555 124.867 87.0789C125.011 86.772 125.146 86.4565 125.303 86.1582C125.459 85.86 125.632 85.5314 125.81 85.2289C125.97 84.9609 126.169 84.7188 126.33 84.4508C126.507 84.1439 126.647 83.8154 126.82 83.5085C127.002 83.1844 127.226 82.8861 127.416 82.5662C127.839 81.853 128.937 82.5057 128.511 83.2189L128.502 83.2276Z" fill="#D3CAC2"/>
</g>
<g clip-path="url(#clip1_762_14547)">
<path d="M115.17 116.215C115.17 116.215 115.198 116.215 115.214 116.215L121.853 115.568C122.109 115.543 122.299 115.31 122.274 115.045C122.249 114.78 122.021 114.586 121.763 114.615L115.529 115.22L113.727 107.541C113.689 107.375 113.567 107.245 113.408 107.194L102.978 103.963C102.731 103.886 102.469 104.03 102.394 104.282C102.32 104.534 102.46 104.802 102.706 104.878L112.881 108.032L114.715 115.849C114.765 116.066 114.955 116.215 115.17 116.215Z" fill="#785B4E"/>
<path d="M109.165 122.357C109.187 122.357 109.209 122.357 109.231 122.35L118.08 121.056C118.336 121.017 118.514 120.775 118.476 120.514C118.439 120.252 118.202 120.07 117.946 120.109L109.377 121.362L106.38 117.073C106.262 116.9 106.047 116.83 105.85 116.897L97.3154 119.806C97.069 119.889 96.938 120.16 97.0191 120.412C97.1002 120.663 97.3653 120.797 97.6116 120.714L105.819 117.918L108.778 122.156C108.866 122.284 109.009 122.357 109.159 122.357H109.165Z" fill="#785B4E"/>
<path d="M107.584 136.905C107.736 136.905 107.886 136.829 107.977 136.685L111.385 131.299L120.756 126.509C120.986 126.391 121.08 126.104 120.964 125.868C120.849 125.632 120.568 125.536 120.338 125.654L110.855 130.505C110.78 130.543 110.718 130.6 110.671 130.674L107.194 136.169C107.054 136.392 107.116 136.685 107.334 136.829C107.412 136.88 107.499 136.905 107.587 136.905H107.584Z" fill="#785B4E"/>
</g>
<defs>
<clipPath id="clip0_762_14547">
<rect width="100.837" height="140" fill="white" transform="matrix(-1 0 0 1 223 10)"/>
</clipPath>
<clipPath id="clip1_762_14547">
<rect width="25.2773" height="32.9625" fill="white" transform="matrix(-1 0 0 1 122.277 103.942)"/>
</clipPath>
</defs>
</svg>
 