<svg width="48" height="25" viewBox="0 0 48 25" fill="none" xmlns="http://www.w3.org/2000/svg">
<g id="&#235;&#167;&#136;&#236;&#188;&#147;">
<path id="Vector" d="M34.5363 1.7237C35.3644 1.7237 35.9136 1.90114 36.184 2.25602C36.4713 2.6109 36.6149 3.22771 36.6149 4.10646C36.6149 4.42755 36.598 4.74018 36.5642 5.04436C36.5473 5.34854 36.5219 5.64428 36.4882 5.93156H38.3893V1.69835C38.3893 1.30967 38.5498 1.01394 38.8709 0.811154C39.192 0.608365 39.5976 0.506971 40.0876 0.506971C40.5439 0.506971 40.9241 0.608365 41.2283 0.811154C41.5494 1.01394 41.71 1.30967 41.71 1.69835V12.8517C41.71 13.3418 41.5494 13.6882 41.2283 13.891C40.9241 14.0769 40.5439 14.1698 40.0876 14.1698C39.5976 14.1698 39.192 14.0769 38.8709 13.891C38.5498 13.6882 38.3893 13.3418 38.3893 12.8517V8.82129H35.677C35.0517 10.2577 34.1223 11.5167 32.8887 12.5982C31.655 13.6798 30.1003 14.5416 28.2245 15.1838C27.7344 15.3359 27.312 15.3443 26.9571 15.2091C26.6191 15.0739 26.3656 14.8035 26.1966 14.398C26.0276 13.9586 26.0192 13.5699 26.1713 13.2319C26.3234 12.8771 26.5938 12.632 26.9824 12.4968C28.0302 12.1082 28.9343 11.6519 29.6947 11.128C30.4721 10.5872 31.1143 9.99578 31.6212 9.35361H27.0078C26.6191 9.35361 26.3318 9.21842 26.1459 8.94804C25.977 8.67765 25.8925 8.34812 25.8925 7.95944C25.8925 7.60456 25.9854 7.29193 26.1713 7.02155C26.3741 6.75116 26.6529 6.61597 27.0078 6.61597H32.9647C33.0154 6.36248 33.0576 6.109 33.0914 5.85551C33.1252 5.60203 33.1421 5.34009 33.1421 5.06971C33.1421 4.86692 33.1083 4.73173 33.0407 4.66413C32.9731 4.59654 32.7957 4.56274 32.5084 4.56274H27.8443C27.4725 4.56274 27.1768 4.436 26.9571 4.18251C26.7543 3.91212 26.6529 3.57414 26.6529 3.16857C26.6529 2.74609 26.7543 2.39966 26.9571 2.12928C27.1768 1.85889 27.4725 1.7237 27.8443 1.7237H34.5363ZM38.5414 21.0393C38.2034 21.5801 37.7809 22.0617 37.274 22.4842C36.7839 22.9235 36.2347 23.3122 35.6263 23.6502C35.0179 23.9882 34.3842 24.267 33.7252 24.4867C33.0661 24.7064 32.407 24.8669 31.748 24.9683C31.2579 25.0528 30.8777 24.9683 30.6073 24.7148C30.3369 24.4782 30.1595 24.1741 30.075 23.8023C30.0074 23.4305 30.0496 23.0672 30.2017 22.7123C30.3538 22.3743 30.6495 22.1546 31.0889 22.0532C31.9001 21.8842 32.6521 21.6392 33.3449 21.3181C34.0547 20.997 34.6631 20.6084 35.17 20.1521C35.677 19.7127 36.0741 19.2142 36.3614 18.6565C36.6656 18.0989 36.8177 17.4989 36.8177 16.8568V16.4259C36.8177 15.9865 36.9782 15.6654 37.2993 15.4626C37.6373 15.2429 38.0429 15.1331 38.516 15.1331C39.0737 15.1331 39.5046 15.2429 39.8088 15.4626C40.1299 15.6823 40.2904 16.0034 40.2904 16.4259V16.8314C40.2904 17.5243 40.4425 18.1496 40.7467 18.7072C41.0509 19.2649 41.4649 19.755 41.9888 20.1774C42.5296 20.5999 43.1464 20.9548 43.8392 21.2421C44.549 21.5294 45.3094 21.7322 46.1206 21.8504C46.5262 21.918 46.805 22.1124 46.9571 22.4335C47.1261 22.7545 47.1852 23.1094 47.1345 23.4981C47.0838 23.8868 46.9149 24.2248 46.6276 24.512C46.3403 24.7993 45.9432 24.9092 45.4362 24.8416C44.0167 24.7064 42.6816 24.3177 41.4311 23.6755C40.1975 23.0334 39.2342 22.1546 38.5414 21.0393ZM43.5604 1.21673C43.5604 0.828052 43.7125 0.532319 44.0167 0.32953C44.3209 0.109843 44.7011 0 45.1574 0C45.6474 0 46.053 0.109843 46.3741 0.32953C46.6952 0.532319 46.8557 0.828052 46.8557 1.21673V15.2598C46.8557 15.7499 46.6952 16.0963 46.3741 16.2991C46.053 16.5019 45.6474 16.6033 45.1574 16.6033C44.6842 16.6033 44.2955 16.5019 43.9913 16.2991C43.704 16.0963 43.5604 15.7499 43.5604 15.2598V1.21673Z" fill="#333333"/>
<path id="Vector_2" d="M-0.000106812 6.13174C-0.000106812 5.16849 0.185783 4.50098 0.557561 4.1292C0.92934 3.75742 1.59685 3.57153 2.5601 3.57153H9.20142C10.1647 3.57153 10.8322 3.75742 11.2039 4.1292C11.5757 4.50098 11.7616 5.14314 11.7616 6.05569V14.877C11.7616 15.7895 11.5504 16.4655 11.1279 16.9049C10.7054 17.3442 10.0041 17.5639 9.02398 17.5639H2.5601C1.64755 17.5639 0.988487 17.3611 0.58291 16.9556C0.194232 16.55 -0.000106812 15.8571 -0.000106812 14.877V6.13174ZM4.05566 6.38522C3.78528 6.38522 3.60784 6.42747 3.52334 6.51196C3.45575 6.57956 3.42195 6.74855 3.42195 7.01894V14.0912C3.42195 14.3616 3.45575 14.539 3.52334 14.6235C3.60784 14.708 3.78528 14.7502 4.05566 14.7502H7.62981C7.91709 14.7502 8.10298 14.7164 8.18747 14.6488C8.27197 14.5644 8.31422 14.3785 8.31422 14.0912V7.01894C8.31422 6.74855 8.27197 6.57956 8.18747 6.51196C8.10298 6.42747 7.91709 6.38522 7.62981 6.38522H4.05566Z" fill="#333333"/>
<path id="Vector_3" d="M14.8746 1.38303C14.8746 0.931022 15.0373 0.587492 15.3628 0.352446C15.7063 0.117401 16.1312 -0.00012207 16.6375 -0.00012207C17.1799 -0.00012207 17.6228 0.117401 17.9664 0.352446C18.3099 0.587492 18.4817 0.931022 18.4817 1.38303V7.83777H21.6005C22.0345 7.83777 22.3418 7.99145 22.5226 8.29882C22.7034 8.58811 22.7939 8.94972 22.7939 9.38365C22.7939 9.81758 22.7034 10.1882 22.5226 10.4956C22.3418 10.803 22.0345 10.9566 21.6005 10.9566H18.4817V22.727C18.4817 23.2514 18.3099 23.6311 17.9664 23.8661C17.6228 24.1012 17.1799 24.2187 16.6375 24.2187C16.1131 24.2187 15.6882 24.1012 15.3628 23.8661C15.0373 23.6311 14.8746 23.2514 14.8746 22.727V1.38303Z" fill="#333333"/>
</g>
</svg>
