<svg width="20" height="20" viewBox="0 0 20 20" fill="none" xmlns="http://www.w3.org/2000/svg">
<g id="_&#237;&#131;&#128;&#236;&#157;&#180;&#237;&#139;&#128;" clip-path="url(#clip0_9288_9393)">
<path id="Vector" d="M18.0071 11.5776V13.9845H13.3238C13.2508 13.1554 13.1088 12.3569 12.9092 11.5776H18.0109H18.0071Z" fill="#FFADA4"/>
<path id="Vector (Stroke)" fill-rule="evenodd" clip-rule="evenodd" d="M12.5142 11.2711C12.6089 11.149 12.7547 11.0776 12.9092 11.0776H18.0109C18.2871 11.0776 18.5109 11.3015 18.5109 11.5776C18.5109 11.5987 18.5096 11.6195 18.5071 11.6399V13.9845C18.5071 14.2607 18.2832 14.4845 18.0071 14.4845H13.3238C13.0646 14.4845 12.8484 14.2865 12.8257 14.0284C12.7553 13.228 12.6181 12.4564 12.4248 11.7017C12.3865 11.5521 12.4195 11.3931 12.5142 11.2711ZM17.5071 12.0776H13.5404C13.6391 12.5382 13.7179 13.0065 13.7747 13.4845H17.5071V12.0776Z" fill="#282828"/>
<path id="Vector_2" d="M8.10261 0.479492L9.87612 7.54283C9.16595 7.37777 8.43274 7.27796 7.67266 7.27796C7.42698 7.27796 7.19282 7.29715 6.95481 7.31634L6.10645 0.479492H8.10261Z" fill="#FFEC7B"/>
<path id="Vector (Stroke)_2" fill-rule="evenodd" clip-rule="evenodd" d="M5.73176 0.148423C5.82667 0.0410084 5.96311 -0.0205078 6.10645 -0.0205078H8.10261C8.33185 -0.0205078 8.53173 0.135387 8.58756 0.357728L10.3611 7.42107C10.4035 7.59007 10.3549 7.76897 10.2328 7.89326C10.1107 8.01755 9.93264 8.0693 9.76292 8.02985C9.0835 7.87193 8.38861 7.77796 7.67267 7.77796C7.45096 7.77796 7.23734 7.79518 6.99656 7.8146L6.99501 7.81473C6.72809 7.83625 6.4916 7.64366 6.45862 7.37792L5.61025 0.541064C5.5926 0.398818 5.63685 0.255837 5.73176 0.148423ZM6.67233 0.979492L7.3927 6.78485C7.48401 6.7806 7.57741 6.77796 7.67267 6.77796C8.1952 6.77796 8.70394 6.82256 9.19946 6.90104L7.71263 0.979492H6.67233Z" fill="#282828"/>
<path id="Vector_3" d="M15.7842 9.05584V11.5779H13.5769C12.7209 9.88118 11.3427 8.42628 9.61914 7.34375H13.7842C14.8859 7.34375 15.7842 8.11534 15.7842 9.05584Z" fill="#FFEC7B"/>
<path id="Vector (Stroke)_3" fill-rule="evenodd" clip-rule="evenodd" d="M7.88184 6.84375H13.7831C15.0858 6.84375 16.2831 7.76957 16.2831 9.05584V12.0779H13.268L13.1294 11.8031C12.3188 10.1965 11.0075 8.80686 9.3521 7.76717L7.88184 6.84375ZM11.1687 7.84375C12.2863 8.76038 13.2115 9.85285 13.8782 11.0779H15.2831V9.05584C15.2831 8.46111 14.6839 7.84375 13.7831 7.84375H11.1687Z" fill="#282828"/>
<g id="Group">
<path id="Vector_4" d="M7.38351 19.5204C10.8287 19.5204 13.6215 16.7276 13.6215 13.2824C13.6215 9.83728 10.8287 7.04443 7.38351 7.04443C3.93836 7.04443 1.14551 9.83728 1.14551 13.2824C1.14551 16.7276 3.93836 19.5204 7.38351 19.5204Z" fill="#98D6D8"/>
<path id="Vector (Stroke)_4" fill-rule="evenodd" clip-rule="evenodd" d="M7.38351 7.54443C4.2145 7.54443 1.64551 10.1134 1.64551 13.2824C1.64551 16.4514 4.2145 19.0204 7.38351 19.0204C10.5525 19.0204 13.1215 16.4514 13.1215 13.2824C13.1215 10.1134 10.5525 7.54443 7.38351 7.54443ZM0.645508 13.2824C0.645508 9.56114 3.66222 6.54443 7.38351 6.54443C11.1048 6.54443 14.1215 9.56114 14.1215 13.2824C14.1215 17.0037 11.1048 20.0204 7.38351 20.0204C3.66221 20.0204 0.645508 17.0037 0.645508 13.2824Z" fill="#282828"/>
<path id="Vector_5" d="M7.38311 14.3766C7.98734 14.3766 8.47716 13.8868 8.47716 13.2825C8.47716 12.6783 7.98734 12.1885 7.38311 12.1885C6.77889 12.1885 6.28906 12.6783 6.28906 13.2825C6.28906 13.8868 6.77889 14.3766 7.38311 14.3766Z" fill="#48CBEF"/>
<path id="Vector (Stroke)_5" fill-rule="evenodd" clip-rule="evenodd" d="M7.38311 12.6885C7.05503 12.6885 6.78906 12.9544 6.78906 13.2825C6.78906 13.6106 7.05503 13.8766 7.38311 13.8766C7.7112 13.8766 7.97716 13.6106 7.97716 13.2825C7.97716 12.9544 7.7112 12.6885 7.38311 12.6885ZM5.78906 13.2825C5.78906 12.4022 6.50274 11.6885 7.38311 11.6885C8.26348 11.6885 8.97716 12.4022 8.97716 13.2825C8.97716 14.1629 8.26348 14.8766 7.38311 14.8766C6.50274 14.8766 5.78906 14.1629 5.78906 13.2825Z" fill="#282828"/>
</g>
<path id="Vector (Stroke)_6" fill-rule="evenodd" clip-rule="evenodd" d="M17.1054 13.7267C17.2484 13.4904 17.5558 13.4147 17.792 13.5576L19.2201 14.4213C19.3698 14.5119 19.4613 14.6742 19.4613 14.8491V16.6303C19.4613 16.9065 19.2374 17.1303 18.9613 17.1303C18.6852 17.1303 18.4613 16.9065 18.4613 16.6303V15.1311L17.2745 14.4133C17.0382 14.2703 16.9625 13.9629 17.1054 13.7267Z" fill="#282828"/>
</g>
<defs>
<clipPath id="clip0_9288_9393">
<rect width="19.19" height="20" fill="white" transform="translate(0.666016)"/>
</clipPath>
</defs>
</svg>
