<svg width="18" height="16" viewBox="0 0 18 16" fill="none" xmlns="http://www.w3.org/2000/svg">
<g id="_&#237;&#131;&#128;&#236;&#157;&#180;&#237;&#139;&#128;" clip-path="url(#clip0_9288_818)">
<path id="Vector" d="M7.23138 11.7134C7.23138 11.7134 6.40015 8.98065 7.92138 7.33681C8.57103 6.77345 9.2812 6.29838 10.0398 5.92C10.0398 3.91881 11.5933 2.29179 13.514 2.28758C15.4347 2.28758 16.9963 3.90619 17.0003 5.90739C17.0003 7.66894 15.7898 9.17824 14.1233 9.48515C12.7917 11.5872 9.8784 15.3332 5.87559 15.3332C3.7491 15.3332 1.66699 8.85452 1.66699 5.92V2.39269C1.66699 1.48458 2.35296 0.732034 3.22454 0.685788C4.48348 0.618521 6.13787 0.685788 6.52927 1.57287C7.12647 2.87196 5.83927 5.20108 4.44717 5.20108C4.44717 6.34042 5.77875 8.81248 6.98927 10.1788" fill="#FFCCA9"/>
<path id="Vector (Stroke)" fill-rule="evenodd" clip-rule="evenodd" d="M5.10775 1.26246C4.54834 1.15481 3.86843 1.15212 3.25121 1.1851L3.25103 1.18511C2.66252 1.21633 2.16699 1.73247 2.16699 2.39271V5.92002C2.16699 7.30447 2.66699 9.59336 3.43876 11.543C3.82349 12.515 4.26344 13.3705 4.71961 13.9734C5.197 14.6043 5.5954 14.8332 5.87559 14.8332C7.71448 14.8332 9.33185 13.973 10.6752 12.8183C12.0179 11.6641 13.0485 10.2476 13.7009 9.21761C13.7755 9.09992 13.8957 9.01867 14.0327 8.99344C15.4472 8.73296 16.5001 7.44327 16.5003 5.9078C16.4965 4.16426 15.1408 2.7879 13.5145 2.7876C11.8898 2.79149 10.5398 4.17435 10.5398 5.92002C10.5398 6.10958 10.4326 6.28284 10.263 6.36745C9.55087 6.72263 8.88297 7.16789 8.27041 7.69603C7.65192 8.37862 7.48944 9.30726 7.50582 10.1316C7.51395 10.5408 7.56602 10.9048 7.61629 11.1664C7.64132 11.2967 7.66566 11.4003 7.6833 11.4699C7.69211 11.5046 7.69923 11.5308 7.7039 11.5475L7.70895 11.5652L7.70974 11.5679L7.70982 11.5682C7.78999 11.8323 7.64098 12.1114 7.37688 12.1917C7.11269 12.2721 6.83338 12.1231 6.75302 11.8589L7.23138 11.7134C6.75302 11.8589 6.75297 11.8587 6.75291 11.8585L6.75279 11.8581L6.75248 11.8571L6.75165 11.8543L6.74913 11.8458L6.74093 11.8171C6.73417 11.7929 6.72491 11.7588 6.71397 11.7156C6.69209 11.6294 6.66337 11.5066 6.63425 11.3551C6.58628 11.1054 6.53654 10.774 6.51533 10.3959C5.90901 9.68679 5.29348 8.74484 4.82066 7.83551C4.57049 7.35438 4.35549 6.87329 4.20189 6.43164C4.05127 5.99856 3.94717 5.56852 3.94717 5.2011C3.94717 4.92496 4.17103 4.7011 4.44717 4.7011C4.87259 4.7011 5.41061 4.31472 5.79899 3.62801C6.18272 2.94953 6.27762 2.22256 6.07498 1.78173L6.07177 1.77475L6.07182 1.77473C5.9829 1.5732 5.70028 1.37649 5.10775 1.26246ZM6.61661 8.88296C6.75148 8.23496 7.02876 7.56524 7.5544 6.99723C7.56683 6.9838 7.57998 6.97107 7.5938 6.95908C8.19844 6.43475 8.85377 5.98283 9.55092 5.60989C9.7031 3.49461 11.3989 1.79223 13.5129 1.7876L13.514 1.7876C15.7287 1.7876 17.4958 3.64803 17.5003 5.9064L17.5003 5.90741C17.5003 7.81871 16.2352 9.49071 14.432 9.93028C13.7475 10.987 12.6964 12.3996 11.3271 13.5766C9.8802 14.8204 8.0395 15.8332 5.87559 15.8332C5.09254 15.8332 4.43324 15.2522 3.92215 14.5767C3.38985 13.8732 2.91056 12.9256 2.50895 11.9111C1.70804 9.88779 1.16699 7.47009 1.16699 5.92002V2.39271C1.16699 1.2368 2.0433 0.247882 3.19786 0.18652M6.61661 8.88296C6.2898 8.41014 5.97549 7.88884 5.70789 7.37418C5.47385 6.92408 5.28029 6.48814 5.14639 6.10315C5.08307 5.92107 5.0357 5.75769 5.00307 5.61464C5.71905 5.39051 6.30579 4.76325 6.66942 4.1203C7.12741 3.31052 7.37746 2.22517 6.98512 1.36743C6.68163 0.684515 5.94282 0.404816 5.29672 0.280478C4.61641 0.149557 3.83974 0.152232 3.19804 0.186511" fill="#282828"/>
</g>
<defs>
<clipPath id="clip0_9288_818">
<rect width="17.3333" height="16" fill="white" transform="translate(0.333984)"/>
</clipPath>
</defs>
</svg>
