<svg width="64" height="62" viewBox="0 0 64 62" fill="none" xmlns="http://www.w3.org/2000/svg">
<path fill-rule="evenodd" clip-rule="evenodd" d="M8.00337 3.53875C7.41591 3.45518 6.81711 3.50719 6.25284 3.69078C5.69274 3.87302 5.18141 4.1801 4.75743 4.5888C3.99669 5.35444 3.54946 6.37694 3.50387 7.45563C3.45808 8.53876 3.82058 9.59961 4.51962 10.4282C4.53411 10.4454 4.54827 10.4629 4.56209 10.4806L14.2384 22.8906C14.2468 22.9012 14.2552 22.9118 14.2634 22.9226L25.9217 37.8746C26.516 38.6368 26.3799 39.7365 25.6177 40.3307C24.8555 40.925 23.7559 40.7889 23.1616 40.0267L12.0724 25.8046C11.3305 25.9272 10.6185 26.2006 9.98163 26.6112C9.11986 27.1668 8.43015 27.9515 7.98968 28.8771C7.56307 29.8748 7.41706 30.9702 7.5677 32.0451C7.71958 33.1289 8.16718 34.1499 8.86134 34.996C8.87052 35.0072 8.87957 35.0185 8.88847 35.0299L17.3259 45.8511C18.127 46.8814 19.1234 47.7437 20.2579 48.3888C21.392 49.0336 22.642 49.4487 23.9365 49.6104M23.9382 49.6106L35.5425 51.0469C36.0031 51.1039 36.4222 51.3416 36.7076 51.7076L42.1004 58.624C42.6947 59.3862 42.5586 60.4859 41.7964 61.0801C41.0343 61.6744 39.9346 61.5383 39.3403 60.7761L34.3932 54.4314L23.5066 53.0839L23.505 53.0837C21.7536 52.8652 20.0624 52.3038 18.528 51.4314C16.9944 50.5594 15.6475 49.3939 14.5643 48.0014C14.5643 48.0013 14.5644 48.0014 14.5643 48.0014C14.5639 48.0008 14.5633 48.0001 14.5629 47.9995L6.14102 37.1983C5.04715 35.8585 4.34166 34.2441 4.10157 32.5309C3.86042 30.8101 4.09809 29.0561 4.7885 27.4616C4.79562 27.4452 4.80299 27.4288 4.81062 27.4126C5.52963 25.8827 6.66424 24.5857 8.08498 23.6696C8.61168 23.33 9.16983 23.0478 9.74985 22.826L1.82137 12.6576C0.571943 11.1628 -0.0753231 9.25519 0.00698778 7.30783C0.0898035 5.34851 0.90514 3.49168 2.29163 2.10481L2.31048 2.08625C3.11962 1.301 4.09775 0.711367 5.16995 0.362514C6.22781 0.0183268 7.34955 -0.0824691 8.45147 0.0673973C9.46541 0.164719 10.449 0.46807 11.3418 0.959031C12.2459 1.45616 13.0373 2.13489 13.6665 2.95254L25.3251 17.9049L37.5065 10.9154C37.5063 10.9155 37.5067 10.9153 37.5065 10.9154C39.0885 10.0039 40.9463 9.69151 42.7394 10.0358C44.5327 10.3802 46.1424 11.3581 47.2743 12.7911L47.2811 12.7997C52.5018 19.4945 56.0959 27.3104 57.7802 35.6314C57.786 35.6599 57.791 35.6885 57.7954 35.7173L57.8128 35.8326L62.9238 42.3875C63.5181 43.1497 63.382 44.2494 62.6198 44.8437C61.8576 45.438 60.7579 45.3018 60.1636 44.5397L54.7708 37.6232C54.586 37.3862 54.4653 37.1056 54.4204 36.8084L54.3412 36.2834C52.7613 28.5116 49.4013 21.2117 44.5249 14.9569C43.9139 14.1853 43.0461 13.6587 42.0794 13.473C41.1111 13.2871 40.1083 13.4557 39.254 13.9479L25.7498 21.6965C24.9941 22.1301 24.0345 21.9418 23.4988 21.2547L10.8947 5.08977C10.5595 4.65334 10.1375 4.29109 9.65535 4.02593C9.17314 3.76077 8.64122 3.59843 8.09313 3.54916C8.06313 3.54646 8.0332 3.54299 8.00337 3.53875" fill="white"/>
</svg>
