<svg width="252" height="48" viewBox="0 0 252 48" fill="none" xmlns="http://www.w3.org/2000/svg">
<mask id="path-1-inside-1_12529_8370" fill="white">
<path d="M0 8C0 3.58172 3.58172 0 8 0H244C248.418 0 252 3.58172 252 8V40C252 44.4183 248.418 48 244 48H8C3.58172 48 0 44.4183 0 40V8Z"/>
</mask>
<path d="M0 8C0 3.58172 3.58172 0 8 0H244C248.418 0 252 3.58172 252 8V40C252 44.4183 248.418 48 244 48H8C3.58172 48 0 44.4183 0 40V8Z" fill="white"/>
<path d="M8 1H244V-1H8V1ZM251 8V40H253V8H251ZM244 47H8V49H244V47ZM1 40V8H-1V40H1ZM8 47C4.13401 47 1 43.866 1 40H-1C-1 44.9706 3.02944 49 8 49V47ZM251 40C251 43.866 247.866 47 244 47V49C248.971 49 253 44.9706 253 40H251ZM244 1C247.866 1 251 4.13401 251 8H253C253 3.02944 248.971 -1 244 -1V1ZM8 -1C3.02944 -1 -1 3.02944 -1 8H1C1 4.13401 4.13401 1 8 1V-1Z" fill="#E0E0E0" mask="url(#path-1-inside-1_12529_8370)"/>
<path d="M82.772 18.288H92.196V19.28H83.972V23.728H92.356V24.72H88.052V28.368H93.828V29.376H81.14V28.368H86.868V24.72H82.772V18.288ZM101.294 17.44C104.318 17.44 106.206 18.416 106.206 20.064C106.206 21.712 104.318 22.672 101.294 22.672C98.2704 22.672 96.3824 21.712 96.3824 20.064C96.3824 18.416 98.2704 17.44 101.294 17.44ZM94.9744 24.768V23.776H107.614V24.768H101.886V26.4H106.062V30.976H96.5424V26.4H100.702V24.768H94.9744ZM97.6144 20.064C97.6144 21.104 99.0384 21.728 101.294 21.728C103.55 21.728 104.974 21.104 104.974 20.064C104.974 19.008 103.55 18.384 101.294 18.384C99.0384 18.384 97.6144 19.008 97.6144 20.064ZM97.7104 30H104.894V27.36H97.7104V30ZM113.962 25.392H115.098V27.168H117.658V25.392H118.778V30.976H113.962V25.392ZM112.586 21.008C112.586 19.088 114.074 17.792 116.17 17.792C118.058 17.792 119.482 18.848 119.722 20.48H122.65V17.168H123.85V24.576H122.65V21.472H119.738C119.514 23.12 118.074 24.224 116.17 24.224C114.074 24.224 112.586 22.912 112.586 21.008ZM113.738 21.008C113.738 22.304 114.746 23.232 116.17 23.232C117.594 23.232 118.618 22.304 118.618 21.008C118.618 19.712 117.594 18.8 116.17 18.8C114.746 18.8 113.738 19.712 113.738 21.008ZM115.098 30.032H117.658V28.08H115.098V30.032ZM118.986 30.176C120.65 29.472 121.546 27.92 121.546 26.48V25.296H122.714V26.48C122.714 27.968 123.61 29.52 125.29 30.176L124.682 31.088C123.402 30.544 122.57 29.568 122.138 28.4C121.69 29.552 120.842 30.544 119.594 31.088L118.986 30.176ZM136.405 17.152H137.605V31.184H136.405V17.152ZM126.693 23.12C126.693 20.144 128.165 18.256 130.245 18.256C132.309 18.256 133.781 20.144 133.781 23.12C133.781 26.096 132.309 28 130.245 28C128.165 28 126.693 26.096 126.693 23.12ZM127.861 23.12C127.861 25.408 128.837 26.928 130.245 26.928C131.637 26.928 132.629 25.408 132.629 23.12C132.629 20.832 131.637 19.328 130.245 19.328C128.837 19.328 127.861 20.832 127.861 23.12ZM153.088 17.152H154.304V22.88H156.56V23.888H154.304V31.168H153.088V17.152ZM143.664 27.552C147.264 25.744 149.216 22.992 149.488 19.664H144.304V18.672H150.704C150.704 22.624 148.848 26.224 144.336 28.48L143.664 27.552ZM159.131 17.456H160.315V21.104H168.603V22.096H159.131V17.456ZM157.403 24.752V23.76H170.043V24.752H157.403ZM158.923 28.576C158.923 26.96 160.715 26.048 163.707 26.048C166.683 26.048 168.491 26.96 168.491 28.576C168.491 30.192 166.683 31.12 163.707 31.12C160.715 31.12 158.923 30.192 158.923 28.576ZM160.123 28.576C160.123 29.584 161.483 30.16 163.707 30.16C165.931 30.16 167.275 29.584 167.275 28.576C167.275 27.568 165.931 26.992 163.707 26.992C161.483 26.992 160.123 27.568 160.123 28.576Z" fill="#1A1A1A"/>
</svg>
