<svg width="252" height="48" viewBox="0 0 252 48" fill="none" xmlns="http://www.w3.org/2000/svg">
<mask id="path-1-inside-1_12529_8371" fill="white">
<path d="M0 8C0 3.58172 3.58172 0 8 0H244C248.418 0 252 3.58172 252 8V40C252 44.4183 248.418 48 244 48H8C3.58172 48 0 44.4183 0 40V8Z"/>
</mask>
<path d="M0 8C0 3.58172 3.58172 0 8 0H244C248.418 0 252 3.58172 252 8V40C252 44.4183 248.418 48 244 48H8C3.58172 48 0 44.4183 0 40V8Z" fill="white"/>
<path d="M8 1H244V-1H8V1ZM251 8V40H253V8H251ZM244 47H8V49H244V47ZM1 40V8H-1V40H1ZM8 47C4.13401 47 1 43.866 1 40H-1C-1 44.9706 3.02944 49 8 49V47ZM251 40C251 43.866 247.866 47 244 47V49C248.971 49 253 44.9706 253 40H251ZM244 1C247.866 1 251 4.13401 251 8H253C253 3.02944 248.971 -1 244 -1V1ZM8 -1C3.02944 -1 -1 3.02944 -1 8H1C1 4.13401 4.13401 1 8 1V-1Z" fill="#E0E0E0" mask="url(#path-1-inside-1_12529_8371)"/>
<path d="M98.272 18.288H107.696V19.28H99.472V23.728H107.856V24.72H103.552V28.368H109.328V29.376H96.64V28.368H102.368V24.72H98.272V18.288ZM116.794 17.44C119.818 17.44 121.706 18.416 121.706 20.064C121.706 21.712 119.818 22.672 116.794 22.672C113.77 22.672 111.882 21.712 111.882 20.064C111.882 18.416 113.77 17.44 116.794 17.44ZM110.474 24.768V23.776H123.114V24.768H117.386V26.4H121.562V30.976H112.042V26.4H116.202V24.768H110.474ZM113.114 20.064C113.114 21.104 114.538 21.728 116.794 21.728C119.05 21.728 120.474 21.104 120.474 20.064C120.474 19.008 119.05 18.384 116.794 18.384C114.538 18.384 113.114 19.008 113.114 20.064ZM113.21 30H120.394V27.36H113.21V30ZM138.102 17.168H139.318V24.432H138.102V17.168ZM128.086 22.928C128.646 22.928 129.254 22.912 129.878 22.912V19.088H128.47V18.128H135.974V19.088H134.566V22.72C135.286 22.672 136.006 22.608 136.678 22.528L136.742 23.392C133.942 23.824 130.678 23.92 128.23 23.92L128.086 22.928ZM130.23 26.08V25.136H139.318V28.448H131.446V30.032H139.846V31.008H130.262V27.552H138.118V26.08H130.23ZM131.046 22.88C131.814 22.864 132.614 22.832 133.398 22.8V19.088H131.046V22.88ZM141.681 28.352H144.833V24.528C143.649 23.92 142.929 22.912 142.929 21.648C142.929 19.472 145.057 18.064 148.001 18.064C150.977 18.064 153.073 19.472 153.073 21.648C153.073 22.896 152.369 23.888 151.217 24.512V28.352H154.369V29.344H141.681V28.352ZM144.097 21.648C144.097 23.232 145.729 24.272 148.001 24.272C150.273 24.272 151.921 23.232 151.921 21.648C151.921 20.064 150.273 19.024 148.001 19.024C145.729 19.024 144.097 20.064 144.097 21.648ZM146.017 28.352H150.017V24.976C149.409 25.136 148.737 25.216 148.001 25.216C147.281 25.216 146.625 25.136 146.017 24.976V28.352Z" fill="#1A1A1A"/>
</svg>
