<svg width="284" height="59" viewBox="0 0 284 59" fill="none" xmlns="http://www.w3.org/2000/svg">
<path d="M0.5 16C0.5 7.43959 7.43959 0.5 16 0.5H268C276.56 0.5 283.5 7.43959 283.5 16V43C283.5 51.5604 276.56 58.5 268 58.5H16C7.43958 58.5 0.5 51.5604 0.5 43V16Z" fill="#FAFAFA"/>
<path d="M0.5 16C0.5 7.43959 7.43959 0.5 16 0.5H268C276.56 0.5 283.5 7.43959 283.5 16V43C283.5 51.5604 276.56 58.5 268 58.5H16C7.43958 58.5 0.5 51.5604 0.5 43V16Z" stroke="#E0E0E0"/>
<path fill-rule="evenodd" clip-rule="evenodd" d="M37.0303 23.2197C37.3232 23.5126 37.3232 23.9874 37.0303 24.2803L25.5303 35.7803C25.2374 36.0732 24.7626 36.0732 24.4697 35.7803L18.9697 30.2803C18.6768 29.9874 18.6768 29.5126 18.9697 29.2197C19.2626 28.9268 19.7374 28.9268 20.0303 29.2197L25 34.1893L35.9697 23.2197C36.2626 22.9268 36.7374 22.9268 37.0303 23.2197Z" fill="#BDBDBD"/>
<path d="M49.148 34.866C50.876 34.866 52.082 33.588 52.082 32.31C52.082 31.05 50.876 29.808 49.148 29.808C47.438 29.808 46.214 31.05 46.214 32.31C46.214 33.588 47.42 34.866 49.148 34.866ZM44.918 32.274C44.918 30.942 45.872 29.79 47.024 29.124C46.088 28.494 45.26 27.504 45.26 26.334C45.26 24.264 47.114 22.77 49.148 22.77C51.182 22.77 53.054 24.264 53.054 26.334C53.054 27.504 52.226 28.494 51.29 29.124C52.424 29.79 53.378 30.942 53.378 32.274C53.378 34.524 51.38 36.162 49.148 36.162C46.916 36.162 44.918 34.524 44.918 32.274ZM46.556 26.298C46.556 27.396 47.618 28.494 49.148 28.494C50.696 28.494 51.758 27.396 51.758 26.298C51.758 25.182 50.696 24.066 49.148 24.066C47.618 24.066 46.556 25.182 46.556 26.298ZM55.6268 29.43C56.3108 27.738 57.8408 27.45 58.5068 27.486C59.5148 27.558 60.0188 27.954 60.1808 28.062L61.6928 28.998C61.9268 29.142 62.1608 29.34 62.7188 29.376C63.1688 29.394 63.8888 29.268 64.2488 28.314L65.5088 28.782C64.8428 30.492 63.2948 30.726 62.6468 30.708C61.6388 30.672 61.1348 30.222 61.0088 30.15L59.4608 29.178C59.2268 29.034 59.0108 28.854 58.4348 28.818C57.9668 28.8 57.2648 28.962 56.8508 29.934L55.6268 29.43ZM71.1428 23.022V36H69.8468V24.588L68.0108 25.812L67.2908 24.732L69.8468 23.022H71.1428ZM78.2733 34.83C80.3253 34.83 81.5853 33.12 81.5853 29.502C81.5853 25.884 80.3253 24.192 78.2733 24.192C76.2033 24.192 74.9433 25.884 74.9433 29.502C74.9433 33.12 76.2033 34.83 78.2733 34.83ZM73.6473 29.502C73.6473 25.344 75.4833 22.896 78.2733 22.896C81.0453 22.896 82.8813 25.344 82.8813 29.502C82.8813 33.66 81.0633 36.126 78.2733 36.126C75.4653 36.126 73.6473 33.66 73.6473 29.502ZM88.5319 22.95H89.8819V25.812C89.8819 28.692 91.8439 31.59 94.1119 32.652L93.3019 33.732C91.5199 32.85 89.9719 30.96 89.2339 28.692C88.5139 31.086 86.9479 33.102 85.1119 34.02L84.2839 32.904C86.5699 31.806 88.5319 28.8 88.5319 25.812V22.95ZM95.8579 37.332V21.546H97.2079V37.332H95.8579ZM110.81 21.564H112.16V26.37H114.518V27.504H112.16V33.084H110.81V21.564ZM99.9923 30.168C103.736 28.998 106.202 26.73 106.49 23.904H100.64V22.788H107.948C107.948 26.838 105.068 29.826 100.568 31.266L99.9923 30.168ZM102.386 36.954V31.914H103.736V35.838H112.88V36.954H102.386Z" fill="#1A1A1A"/>
</svg>
