<svg width="284" height="59" viewBox="0 0 284 59" fill="none" xmlns="http://www.w3.org/2000/svg">
<path d="M0.5 16C0.5 7.43959 7.43959 0.5 16 0.5H268C276.56 0.5 283.5 7.43959 283.5 16V43C283.5 51.5604 276.56 58.5 268 58.5H16C7.43958 58.5 0.5 51.5604 0.5 43V16Z" fill="#FAFAFA"/>
<path d="M0.5 16C0.5 7.43959 7.43959 0.5 16 0.5H268C276.56 0.5 283.5 7.43959 283.5 16V43C283.5 51.5604 276.56 58.5 268 58.5H16C7.43958 58.5 0.5 51.5604 0.5 43V16Z" stroke="#E0E0E0"/>
<path fill-rule="evenodd" clip-rule="evenodd" d="M37.0303 23.2197C37.3232 23.5126 37.3232 23.9874 37.0303 24.2803L25.5303 35.7803C25.2374 36.0732 24.7626 36.0732 24.4697 35.7803L18.9697 30.2803C18.6768 29.9874 18.6768 29.5126 18.9697 29.2197C19.2626 28.9268 19.7374 28.9268 20.0303 29.2197L25 34.1893L35.9697 23.2197C36.2626 22.9268 36.7374 22.9268 37.0303 23.2197Z" fill="#BDBDBD"/>
<path d="M51.578 29.286C52.73 29.988 53.36 31.248 53.36 32.328C53.36 34.542 51.632 36.108 49.166 36.108C46.718 36.108 44.99 34.542 44.99 32.328H46.286C46.286 33.876 47.474 34.956 49.166 34.956C50.876 34.956 52.064 33.876 52.064 32.346C52.064 30.888 50.876 29.862 49.202 29.862H48.248V28.674H49.202C50.768 28.674 51.884 27.738 51.884 26.406C51.884 25.02 50.804 24.048 49.274 24.048C47.726 24.048 46.646 25.038 46.646 26.442H45.35C45.35 24.354 46.97 22.896 49.274 22.896C51.56 22.896 53.18 24.354 53.18 26.442C53.18 27.414 52.622 28.584 51.578 29.286ZM55.6795 29.43C56.1655 28.242 57.3535 27.432 58.5595 27.486C59.0635 27.522 59.7655 27.756 60.2335 28.062L61.7455 28.998C62.0875 29.214 62.5195 29.358 62.7715 29.376C63.4195 29.394 64.0495 28.962 64.3015 28.314L65.5615 28.782C65.1115 29.952 63.9235 30.762 62.6995 30.708C62.2495 30.69 61.5655 30.456 61.0615 30.15L59.5135 29.178C59.2075 28.998 58.7935 28.836 58.4875 28.818C57.8395 28.8 57.1915 29.268 56.9035 29.934L55.6795 29.43ZM72.1231 35.01C73.8511 35.01 75.0571 33.894 75.0571 32.31C75.0571 30.798 73.8511 29.736 72.1231 29.736C70.3951 29.736 69.1891 30.798 69.1891 32.31C69.1891 33.894 70.3951 35.01 72.1231 35.01ZM69.5311 26.298C69.5311 27.63 70.5931 28.566 72.1231 28.566C73.6531 28.566 74.7331 27.63 74.7331 26.298C74.7331 24.894 73.6531 23.922 72.1231 23.922C70.5931 23.922 69.5311 24.894 69.5311 26.298ZM74.2651 29.124C75.4891 29.844 76.3531 31.14 76.3531 32.274C76.3531 34.56 74.6071 36.162 72.1231 36.162C69.6391 36.162 67.8931 34.56 67.8931 32.274C67.8931 31.14 68.7571 29.844 69.9991 29.124C68.9551 28.422 68.2351 27.27 68.2351 26.334C68.2351 24.246 69.8371 22.77 72.1231 22.77C74.4091 22.77 76.0291 24.246 76.0291 26.334C76.0291 27.27 75.3091 28.422 74.2651 29.124ZM82.0725 22.95H83.4225V25.812C83.4225 28.692 85.3845 31.59 87.6525 32.652L86.8425 33.732C85.0605 32.85 83.5125 30.96 82.7745 28.692C82.0545 31.086 80.4885 33.102 78.6525 34.02L77.8245 32.904C80.1105 31.806 82.0725 28.8 82.0725 25.812V22.95ZM89.3985 21.546H90.7485V37.332H89.3985V21.546ZM104.351 21.564H105.701V26.37H108.059V27.504H105.701V33.084H104.351V21.564ZM101.489 22.788C101.489 26.838 98.609 29.826 94.109 31.266L93.533 30.168C97.277 28.998 99.743 26.73 100.031 23.904H94.181V22.788H101.489ZM95.927 31.914H97.277V35.838H106.421V36.954H95.927V31.914Z" fill="#1A1A1A"/>
</svg>
