<svg width="284" height="59" viewBox="0 0 284 59" fill="none" xmlns="http://www.w3.org/2000/svg">
<path d="M0.5 16C0.5 7.43959 7.43959 0.5 16 0.5H268C276.56 0.5 283.5 7.43959 283.5 16V43C283.5 51.5604 276.56 58.5 268 58.5H16C7.43958 58.5 0.5 51.5604 0.5 43V16Z" fill="#FAFAFA"/>
<path d="M0.5 16C0.5 7.43959 7.43959 0.5 16 0.5H268C276.56 0.5 283.5 7.43959 283.5 16V43C283.5 51.5604 276.56 58.5 268 58.5H16C7.43958 58.5 0.5 51.5604 0.5 43V16Z" stroke="#E0E0E0"/>
<path fill-rule="evenodd" clip-rule="evenodd" d="M37.0303 23.2197C37.3232 23.5126 37.3232 23.9874 37.0303 24.2803L25.5303 35.7803C25.2374 36.0732 24.7626 36.0732 24.4697 35.7803L18.9697 30.2803C18.6768 29.9874 18.6768 29.5126 18.9697 29.2197C19.2626 28.9268 19.7374 28.9268 20.0303 29.2197L25 34.1893L35.9697 23.2197C36.2626 22.9268 36.7374 22.9268 37.0303 23.2197Z" fill="#BDBDBD"/>
<path d="M51.578 29.286C52.73 29.988 53.36 31.248 53.36 32.328C53.36 34.542 51.632 36.108 49.166 36.108C46.718 36.108 44.99 34.542 44.99 32.328H46.286C46.286 33.876 47.474 34.956 49.166 34.956C50.876 34.956 52.064 33.876 52.064 32.346C52.064 30.888 50.876 29.862 49.202 29.862H48.248V28.674H49.202C50.768 28.674 51.884 27.738 51.884 26.406C51.884 25.02 50.804 24.048 49.274 24.048C47.726 24.048 46.646 25.038 46.646 26.442H45.35C45.35 24.354 46.97 22.896 49.274 22.896C51.56 22.896 53.18 24.354 53.18 26.442C53.18 27.414 52.622 28.584 51.578 29.286ZM59.0815 22.95H60.4315V25.812C60.4315 28.692 62.3935 31.59 64.6615 32.652L63.8515 33.732C62.0695 32.85 60.5215 30.96 59.7835 28.692C59.0635 31.086 57.4975 33.102 55.6615 34.02L54.8335 32.904C57.1195 31.806 59.0815 28.8 59.0815 25.812V22.95ZM66.4075 21.546H67.7575V37.332H66.4075V21.546ZM81.3599 21.564H82.7099V26.37H85.0679V27.504H82.7099V33.084H81.3599V21.564ZM78.4979 22.788C78.4979 26.838 75.6179 29.826 71.1179 31.266L70.5419 30.168C74.2859 28.998 76.7519 26.73 77.0399 23.904H71.1899V22.788H78.4979ZM72.9359 31.914H74.2859V35.838H83.4299V36.954H72.9359V31.914ZM101.589 21.546H102.939V37.332H101.589V21.546ZM94.6588 22.788C96.9808 22.788 98.6368 24.912 98.6368 28.26C98.6368 31.608 96.9808 33.75 94.6588 33.75C92.3188 33.75 90.6628 31.608 90.6628 28.26C90.6628 24.912 92.3188 22.788 94.6588 22.788ZM94.6588 23.994C93.0748 23.994 91.9768 25.686 91.9768 28.26C91.9768 30.834 93.0748 32.544 94.6588 32.544C96.2248 32.544 97.3408 30.834 97.3408 28.26C97.3408 25.686 96.2248 23.994 94.6588 23.994ZM117.693 21.564H118.989V37.314H117.693V29.142H115.389V36.486H114.129V21.924H115.389V28.008H117.693V21.564ZM106.461 23.49H107.793V32.022C109.341 32.004 111.033 31.896 112.959 31.518L113.121 32.706C110.961 33.12 109.161 33.21 107.451 33.21H106.461V23.49Z" fill="#1A1A1A"/>
</svg>
