<svg width="320" height="162" viewBox="0 0 320 162" fill="none" xmlns="http://www.w3.org/2000/svg">
<g clip-path="url(#clip0_524_6103)">
<path d="M265.093 20.0002H54.9068C50.8161 20.0002 47.5 22.8381 47.5 26.3388V153.662C47.5 157.162 50.8161 160 54.9068 160H265.093C269.184 160 272.5 157.162 272.5 153.662V26.3388C272.5 22.8381 269.184 20.0002 265.093 20.0002Z" fill="#EDE6DF"/>
<path d="M179.733 62.6674C180.14 62.7406 180.548 62.819 180.961 62.8974C181.374 62.9758 181.792 62.9863 182.2 63.0699C182.608 63.1536 183 63.3104 183.407 63.4045C183.815 63.4985 184.223 63.5717 184.625 63.671C185.028 63.7703 185.451 63.7965 185.854 63.901C186.256 64.0056 186.627 64.2251 187.03 64.3349C187.432 64.4446 187.85 64.4917 188.248 64.6119C188.645 64.7321 189.053 64.821 189.45 64.9464C189.847 65.0719 190.239 65.213 190.636 65.3437C191.034 65.4744 191.41 65.6521 191.802 65.7932C192.194 65.9343 192.602 66.0284 192.994 66.1748C193.386 66.3211 193.778 66.457 194.165 66.6086C194.551 66.7602 194.928 66.9484 195.309 67.1052C195.691 67.262 196.099 67.3822 196.48 67.5495C196.862 67.7168 197.207 67.9677 197.588 68.1402C197.97 68.3126 198.367 68.4381 198.743 68.6158C199.12 68.7935 199.454 69.0549 199.831 69.2378C200.207 69.4208 200.62 69.5306 200.986 69.724C201.352 69.9174 201.697 70.1578 202.063 70.3617C202.429 70.5655 202.831 70.691 203.192 70.9C203.552 71.1091 203.856 71.4175 204.211 71.6318C204.566 71.8461 204.948 72.0239 205.298 72.2434C205.648 72.4629 206.009 72.6825 206.354 72.9125C206.699 73.1424 207.039 73.3881 207.384 73.6233C207.729 73.8586 208.069 74.099 208.403 74.3447C208.738 74.5903 209.03 74.8987 209.36 75.1496C209.689 75.4005 210.034 75.641 210.358 75.8971C210.682 76.1532 211.085 76.3205 211.403 76.5871C211.722 76.8536 212.004 77.1673 212.318 77.4391C212.632 77.7109 212.883 78.0611 213.186 78.3381C213.489 78.6152 213.823 78.8765 214.121 79.164C214.419 79.4515 214.749 79.7128 215.041 80.0108C215.334 80.3087 215.575 80.6537 215.862 80.9569C216.15 81.2601 216.463 81.5319 216.74 81.8455C217.017 82.1591 217.289 82.4727 217.556 82.7916C217.822 83.1104 218.078 83.4397 218.34 83.7638C218.601 84.0879 218.826 84.4381 219.082 84.7674C219.338 85.0967 219.657 85.379 219.903 85.7135C220.148 86.048 220.399 86.3826 220.634 86.7275C220.87 87.0725 221.058 87.4437 221.288 87.7939C221.518 88.1493 221.727 88.5152 221.941 88.8759C222.155 89.2365 222.412 89.5763 222.615 89.9474C222.819 90.3185 223.039 90.6792 223.232 91.0555C223.426 91.4319 223.603 91.8135 223.786 92.195C223.969 92.5766 224.079 92.9896 224.257 93.3711C224.434 93.7527 224.623 94.1291 224.795 94.5159C224.968 94.9027 225.192 95.2633 225.36 95.6501C225.527 96.0369 225.673 96.4342 225.835 96.821C225.997 97.2078 226.128 97.6155 226.285 98.0023C226.442 98.3891 226.515 98.8177 226.672 99.2097C226.828 99.6018 227.053 99.9677 227.215 100.354C227.377 100.741 227.586 101.112 227.748 101.504C227.91 101.896 228.036 102.299 228.203 102.686C228.37 103.073 228.553 103.454 228.726 103.836C228.898 104.217 229.123 104.583 229.301 104.959C229.478 105.336 229.546 105.78 229.74 106.151C229.933 106.522 230.148 106.893 230.351 107.259C230.555 107.625 230.811 107.939 231.015 108.294C231.219 108.65 231.371 109.037 231.575 109.387C231.778 109.737 232.097 110.03 232.306 110.375C232.515 110.72 232.62 111.138 232.834 111.483C233.049 111.828 233.31 112.152 233.524 112.497C233.739 112.842 233.927 113.208 234.136 113.558C234.345 113.908 234.533 114.269 234.747 114.619C234.962 114.969 235.176 115.314 235.38 115.664C235.584 116.015 235.788 116.37 235.986 116.726C236.185 117.081 236.504 117.374 236.697 117.729C236.89 118.085 236.995 118.492 237.178 118.858C237.361 119.224 237.586 119.564 237.758 119.935C237.931 120.306 238.087 120.677 238.244 121.059C238.401 121.44 238.511 121.827 238.652 122.214C238.793 122.601 239.007 122.951 239.133 123.343C239.258 123.735 239.274 124.148 239.384 124.545C239.494 124.943 239.598 125.324 239.687 125.727C239.776 126.129 239.87 126.516 239.943 126.924C240.016 127.331 240.037 127.729 240.095 128.136C240.147 128.549 240.168 128.967 240.199 129.396C240.231 129.825 240.356 130.227 240.366 130.656C240.377 131.084 240.346 131.497 240.335 131.921C240.325 132.344 240.34 132.762 240.314 133.186C240.288 133.609 240.272 134.027 240.231 134.451C240.189 134.874 240.042 135.276 239.98 135.695C239.917 136.113 239.922 136.536 239.844 136.954C239.765 137.372 239.692 137.785 239.598 138.198C239.504 138.611 239.326 138.998 239.216 139.411C239.107 139.824 239.049 140.237 238.929 140.645C238.809 141.052 238.673 141.45 238.537 141.852C238.401 142.254 238.281 142.657 238.129 143.054C237.978 143.451 237.79 143.828 237.622 144.215C237.455 144.601 237.293 144.993 237.11 145.375C236.927 145.757 236.697 146.112 236.498 146.488C236.3 146.865 236.148 147.262 235.939 147.628C235.73 147.994 235.495 148.349 235.27 148.705C235.045 149.06 234.747 149.374 234.507 149.713C234.266 150.053 234.089 150.456 233.827 150.785C233.566 151.114 233.268 151.423 232.996 151.742C232.724 152.06 232.458 152.395 232.165 152.698C231.872 153.001 231.58 153.315 231.271 153.597C230.963 153.879 230.555 154.062 230.226 154.324C229.897 154.585 229.604 154.904 229.259 155.139C228.914 155.374 228.574 155.646 228.214 155.86C227.853 156.075 227.456 156.237 227.074 156.42C226.692 156.603 226.311 156.786 225.919 156.937C225.527 157.089 225.119 157.209 224.717 157.329C224.314 157.45 223.906 157.549 223.488 157.632C223.07 157.716 222.657 157.737 222.234 157.789C221.821 157.842 221.408 157.977 220.979 157.998C220.551 158.019 220.143 157.915 219.714 157.894C219.286 157.873 218.878 157.878 218.455 157.826C218.031 157.774 217.624 157.732 217.2 157.653C216.756 157.57 216.28 157.517 215.862 157.355C215.444 157.193 215.036 156.932 214.696 156.629C214.357 156.331 214.163 155.928 213.959 155.536C213.756 155.144 213.641 154.737 213.541 154.298C213.442 153.859 213.358 153.446 213.316 153.001C213.275 152.557 213.17 152.118 213.149 151.689C213.128 151.266 213.165 150.843 213.134 150.424C213.102 150.006 213.055 149.583 213.019 149.165C212.982 148.746 213.008 148.318 212.961 147.9C212.914 147.482 212.856 147.063 212.804 146.645C212.752 146.227 212.7 145.809 212.642 145.391C212.585 144.973 212.428 144.57 212.36 144.157C212.292 143.744 212.255 143.321 212.182 142.908C212.109 142.495 211.973 142.092 211.895 141.68C211.816 141.267 211.774 140.843 211.686 140.43C211.597 140.017 211.581 139.589 211.482 139.181C211.382 138.773 211.184 138.386 211.079 137.979C210.975 137.571 210.917 137.153 210.807 136.745C210.698 136.337 210.551 135.94 210.436 135.538C210.321 135.135 210.274 134.707 210.154 134.304C210.034 133.902 209.804 133.531 209.673 133.128C209.543 132.726 209.412 132.328 209.281 131.931C209.151 131.534 209.041 131.121 208.905 130.724C208.769 130.326 208.612 129.934 208.466 129.537C208.319 129.14 208.272 128.711 208.121 128.319C207.969 127.927 207.776 127.551 207.619 127.159C207.462 126.767 207.305 126.375 207.149 125.988C206.992 125.601 206.835 125.209 206.673 124.817C206.511 124.425 206.354 124.038 206.187 123.651C206.019 123.265 205.805 122.899 205.633 122.512C205.46 122.125 205.345 121.717 205.173 121.336C205 120.954 204.89 120.541 204.713 120.16C204.535 119.778 204.227 119.459 204.044 119.078C203.861 118.696 203.699 118.309 203.516 117.933C203.333 117.557 203.145 117.18 202.956 116.799C202.768 116.417 202.591 116.041 202.397 115.664C202.204 115.288 202.099 114.87 201.906 114.499C201.712 114.128 201.451 113.788 201.258 113.412C201.064 113.035 200.913 112.643 200.714 112.272C200.515 111.901 200.306 111.535 200.108 111.164C199.909 110.793 199.716 110.417 199.512 110.051C199.308 109.685 199.02 109.361 198.817 108.995C198.613 108.629 198.388 108.268 198.184 107.902C197.98 107.536 197.839 107.129 197.63 106.763C197.421 106.397 197.144 106.068 196.935 105.707C196.726 105.346 196.59 104.933 196.376 104.573C196.161 104.212 195.884 103.883 195.67 103.522C195.456 103.161 195.273 102.78 195.053 102.419C194.834 102.058 194.598 101.708 194.379 101.348C194.159 100.987 193.971 100.611 193.752 100.25C193.532 99.8893 193.245 99.5704 193.025 99.215C192.806 98.8595 192.654 98.457 192.429 98.0964C192.204 97.7357 191.954 97.4012 191.729 97.0405C191.504 96.6798 191.342 96.2878 191.117 95.9324C190.892 95.5769 190.6 95.2633 190.375 94.9079C190.15 94.5524 189.993 94.15 189.769 93.7945C189.544 93.4391 189.314 93.0836 189.089 92.7282C188.864 92.3728 188.54 92.08 188.315 91.7298" fill="#8DB579"/>
<path d="M168.928 72.9495C168.761 72.6255 168.599 72.2909 168.416 71.9669C168.207 71.5957 167.935 71.2717 167.715 70.9371C167.48 70.5817 167.302 70.1949 167.052 69.8813C166.79 69.5467 166.471 69.2645 166.194 68.9718C165.902 68.6634 165.625 68.3497 165.316 68.0884C164.992 67.8114 164.611 67.6284 164.271 67.4089C163.931 67.1893 163.596 66.9019 163.231 66.7241C162.865 66.5464 162.452 66.4314 162.06 66.2955C161.668 66.1596 161.265 66.076 160.858 65.9871C160.45 65.8983 160.058 65.7362 159.645 65.6944C159.232 65.6526 158.814 65.6421 158.396 65.6421C157.977 65.6421 157.58 65.7885 157.162 65.8303C156.744 65.8721 156.341 65.8617 155.923 65.9348C155.505 66.008 155.123 66.1335 154.721 66.2328C154.318 66.3321 153.89 66.3217 153.493 66.4471C153.095 66.5726 152.719 66.7398 152.327 66.8862C151.935 67.0325 151.569 67.2102 151.182 67.3723C150.795 67.5343 150.43 67.7068 150.048 67.8793C149.666 68.0518 149.29 68.2086 148.919 68.3968C148.548 68.585 148.171 68.7522 147.806 68.9456C147.44 69.139 147.058 69.3063 146.697 69.5101C146.337 69.714 146.007 69.9754 145.652 70.1897C145.297 70.404 144.967 70.6601 144.617 70.8796C144.267 71.0992 143.864 71.2455 143.519 71.4703C143.174 71.6951 142.84 71.946 142.495 72.1759C142.15 72.4059 141.805 72.6412 141.465 72.8764C141.125 73.1116 140.76 73.3207 140.425 73.5663C140.09 73.812 139.782 74.0995 139.453 74.3452C139.123 74.5908 138.799 74.8679 138.475 75.1135C138.151 75.3592 137.78 75.584 137.456 75.8297C137.132 76.0753 136.824 76.3785 136.505 76.6294C136.186 76.8803 135.872 77.1835 135.553 77.4344C135.219 77.6957 134.884 77.9414 134.565 78.1871C134.231 78.4536 133.886 78.6836 133.572 78.9293C133.248 79.1854 132.919 79.452 132.574 79.6977C132.229 79.9433 131.889 80.1942 131.529 80.3981C131.168 80.6019 130.75 80.7065 130.358 80.8528C129.966 80.9992 129.574 81.0933 129.155 81.1456C128.753 81.1978 128.361 81.2815 127.974 81.2396C127.587 81.1978 127.195 81.0881 126.814 80.9678C126.432 80.8476 126.103 80.6385 125.742 80.4608C125.382 80.2831 125.026 80.1367 124.681 79.9224C124.336 79.7081 124.043 79.4572 123.714 79.2272C123.385 78.9973 123.003 78.8509 122.69 78.6157C122.376 78.3805 122.094 78.0773 121.78 77.8473C121.446 77.6016 121.074 77.4082 120.735 77.1835C120.395 76.9587 120.055 76.7026 119.705 76.4987C119.355 76.2949 118.942 76.1694 118.576 75.9812C118.21 75.7931 117.881 75.5265 117.51 75.3488C117.138 75.171 116.746 75.0299 116.37 74.8574C115.994 74.6849 115.612 74.5333 115.231 74.3713C114.849 74.2093 114.488 74.0054 114.112 73.8434C113.73 73.6813 113.359 73.5141 112.978 73.352C112.596 73.19 112.241 72.9861 111.859 72.8189C111.478 72.6516 111.07 72.5627 110.694 72.385C110.317 72.2073 109.977 71.9825 109.606 71.7891C109.199 71.5801 108.827 71.3553 108.462 71.1358C108.07 70.9058 107.672 70.7124 107.312 70.4824C106.951 70.2524 106.569 69.991 106.198 69.7715C105.827 69.552 105.409 69.3847 105.017 69.1965C104.625 69.0084 104.254 68.7679 103.825 68.6372C103.423 68.5118 102.994 68.4177 102.534 68.355C102.126 68.2975 101.682 68.2295 101.217 68.2295C100.804 68.2295 100.396 68.2922 99.9833 68.3341C99.5704 68.3759 99.1574 68.3863 98.7549 68.4595C98.3525 68.5327 97.9709 68.7156 97.5736 68.8254C97.1764 68.9352 96.7948 69.0763 96.408 69.2174C96.0212 69.3586 95.6344 69.4892 95.2633 69.6617C94.8921 69.8342 94.5472 70.0538 94.1865 70.2576C93.8258 70.4615 93.4443 70.6131 93.0993 70.8378C92.7543 71.0626 92.4407 71.3292 92.1166 71.5801C91.7925 71.831 91.4737 72.0871 91.1653 72.3641C90.8569 72.6412 90.5328 72.8921 90.2505 73.19C89.9683 73.4879 89.7226 73.8225 89.4665 74.1413C89.2103 74.4602 88.9594 74.7895 88.7295 75.1292C88.4995 75.469 88.2852 75.8192 88.0813 76.1799C87.8774 76.5405 87.6893 76.9012 87.522 77.2775C87.3547 77.6539 87.2607 78.0564 87.1247 78.4432C86.9888 78.83 86.8686 79.2168 86.7745 79.6193C86.6805 80.0218 86.5445 80.4086 86.4923 80.8163C86.44 81.224 86.4139 81.6317 86.3982 82.0446C86.3825 82.4785 86.3773 82.9123 86.3982 83.3462C86.4191 83.78 86.4348 84.2138 86.4975 84.6477C86.5602 85.0815 86.7327 85.484 86.8216 85.9126C86.9104 86.3413 86.8895 86.7855 87.0045 87.2089C87.1195 87.6323 87.2293 88.0505 87.3652 88.4634C87.5011 88.8764 87.7729 89.2423 87.9193 89.65C88.0656 90.0577 88.2015 90.4706 88.3583 90.8731C88.5151 91.2756 88.6092 91.7094 88.766 92.1119C88.9176 92.4935 89.0378 92.8855 89.1947 93.2671C89.3515 93.6487 89.4926 94.0302 89.6494 94.4066C89.8062 94.7829 90.0049 95.1488 90.1617 95.5252C90.3185 95.9015 90.4857 96.2779 90.6478 96.6542C90.8098 97.0306 90.9457 97.4174 91.113 97.7937C91.2803 98.1701 91.505 98.5203 91.6671 98.8914C91.8291 99.2625 91.9336 99.6702 92.1009 100.047C92.2682 100.423 92.4459 100.789 92.6132 101.165C92.7804 101.542 93.0313 101.876 93.2038 102.247C93.3763 102.618 93.5227 103.005 93.6952 103.376C93.8676 103.747 94.0506 104.113 94.2283 104.484C94.406 104.855 94.5472 105.242 94.7301 105.608C94.9131 105.974 95.1796 106.303 95.3574 106.669C95.5351 107.035 95.7128 107.406 95.8957 107.772C96.0787 108.138 96.2721 108.499 96.4603 108.865C96.6484 109.231 96.8418 109.591 97.03 109.952C97.2182 110.313 97.3802 110.694 97.5684 111.055C97.7566 111.415 97.8872 111.813 98.0806 112.173C98.274 112.534 98.4622 112.9 98.6608 113.255C98.8595 113.611 99.1261 113.935 99.3247 114.296C99.5233 114.656 99.7638 114.991 99.9676 115.346C100.171 115.702 100.307 116.094 100.511 116.449C100.72 116.815 100.935 117.186 101.149 117.552C101.363 117.918 101.53 118.315 101.75 118.676C101.97 119.036 102.294 119.34 102.524 119.695C102.754 120.05 102.9 120.463 103.146 120.814C103.391 121.164 103.726 121.441 103.987 121.775C104.249 122.11 104.541 122.413 104.818 122.732C105.095 123.051 105.299 123.443 105.602 123.741C105.906 124.039 106.214 124.331 106.538 124.608C106.867 124.891 107.207 125.163 107.557 125.419C107.907 125.675 108.279 125.9 108.65 126.13C109.021 126.36 109.376 126.61 109.758 126.814C110.139 127.018 110.573 127.117 110.965 127.3C111.357 127.483 111.739 127.692 112.141 127.854C112.544 128.017 112.962 128.132 113.37 128.278C113.777 128.424 114.175 128.602 114.588 128.733C115.001 128.863 115.419 128.968 115.837 129.088C116.255 129.208 116.673 129.323 117.091 129.428C117.51 129.532 117.928 129.653 118.351 129.747C118.764 129.841 119.182 129.914 119.6 130.008C120.019 130.102 120.416 130.264 120.834 130.348C121.252 130.431 121.67 130.499 122.088 130.573C122.507 130.646 122.93 130.682 123.353 130.75C123.777 130.818 124.2 130.829 124.624 130.886C125.047 130.944 125.455 131.069 125.878 131.121C126.301 131.174 126.73 131.132 127.153 131.174C127.577 131.215 127.995 131.32 128.418 131.351C128.842 131.383 129.27 131.367 129.694 131.388C130.117 131.409 130.541 131.524 130.964 131.54C131.387 131.555 131.816 131.477 132.239 131.482C132.663 131.487 133.091 131.466 133.515 131.461C133.938 131.456 134.367 131.503 134.79 131.487C135.214 131.472 135.637 131.398 136.06 131.372C136.484 131.346 136.918 131.414 137.341 131.372C137.764 131.33 138.177 131.189 138.601 131.137C139.024 131.085 139.437 131.001 139.86 130.938C140.284 130.876 140.697 130.792 141.115 130.714C141.533 130.635 141.962 130.614 142.375 130.526C142.788 130.437 143.19 130.28 143.603 130.175C144.016 130.071 144.439 130.013 144.847 129.898C145.255 129.783 145.673 129.689 146.075 129.558C146.483 129.428 146.896 129.323 147.288 129.182C147.68 129.041 148.067 128.837 148.454 128.68C148.841 128.524 149.253 128.388 149.635 128.215C150.017 128.043 150.372 127.792 150.748 127.604C151.125 127.415 151.485 127.18 151.851 126.976C152.217 126.772 152.604 126.59 152.959 126.37C153.315 126.15 153.655 125.889 154 125.654C154.345 125.419 154.7 125.178 155.035 124.927C155.369 124.676 155.73 124.441 156.054 124.175C156.378 123.908 156.728 123.662 157.042 123.375C157.355 123.087 157.585 122.722 157.883 122.424C158.181 122.126 158.474 121.828 158.761 121.514C159.049 121.2 159.41 120.96 159.681 120.636C159.953 120.312 160.12 119.909 160.377 119.57C160.633 119.23 160.91 118.916 161.15 118.571C161.391 118.226 161.579 117.85 161.809 117.489C162.039 117.129 162.29 116.799 162.504 116.433C162.718 116.067 163.001 115.749 163.199 115.372C163.398 114.996 163.555 114.609 163.743 114.228C163.931 113.846 164.119 113.475 164.302 113.093C164.485 112.712 164.673 112.335 164.846 111.949C165.018 111.562 165.18 111.175 165.337 110.783C165.494 110.391 165.546 109.962 165.693 109.56C165.839 109.157 166.017 108.781 166.158 108.384C166.299 107.986 166.44 107.589 166.576 107.192C166.712 106.795 166.947 106.429 167.083 106.032C167.219 105.634 167.287 105.211 167.428 104.814C167.569 104.416 167.658 104.003 167.794 103.601C167.93 103.198 168.066 102.801 168.202 102.404C168.337 102.007 168.552 101.63 168.682 101.233C168.813 100.836 168.918 100.423 169.043 100.02C169.169 99.618 169.325 99.2259 169.446 98.8234C169.566 98.421 169.571 97.9819 169.686 97.5794C169.801 97.1769 170.047 96.8058 170.156 96.3981C170.266 95.9904 170.366 95.5775 170.465 95.1697C170.564 94.762 170.538 94.323 170.632 93.91C170.726 93.4971 170.925 93.1103 171.008 92.6973C171.092 92.2844 171.108 91.8558 171.181 91.4429C171.254 91.0299 171.343 90.617 171.406 90.1988C171.468 89.7806 171.458 89.3573 171.505 88.9391C171.552 88.5209 171.641 88.1028 171.672 87.6846C171.704 87.2664 171.704 86.843 171.719 86.4197C171.735 85.9963 171.798 85.5781 171.798 85.1547C171.798 84.7313 171.714 84.3132 171.693 83.895C171.672 83.4768 171.719 83.0482 171.683 82.63C171.646 82.2119 171.5 81.8042 171.442 81.386C171.385 80.9678 171.38 80.5445 171.301 80.1315C171.223 79.7186 171.144 79.3056 171.05 78.8927C170.956 78.4798 170.904 78.0616 170.789 77.6539C170.674 77.2462 170.507 76.8594 170.371 76.4569C170.235 76.0544 170.094 75.6624 169.937 75.2704C169.78 74.8783 169.608 74.4968 169.435 74.11C169.263 73.7232 169.095 73.3416 168.902 72.96L168.928 72.9495Z" fill="#8DB579"/>
<path d="M211.115 116.313C211.026 115.889 210.912 115.476 210.828 115.053C210.744 114.629 210.619 114.217 210.54 113.793C210.462 113.37 210.42 112.941 210.347 112.518C210.274 112.094 210.19 111.671 210.117 111.248C210.044 110.824 209.944 110.406 209.877 109.977C209.809 109.549 209.772 109.12 209.704 108.697C209.636 108.273 209.511 107.855 209.443 107.432C209.375 107.008 209.364 106.575 209.296 106.146C209.228 105.717 209.15 105.299 209.077 104.876C209.004 104.452 208.998 104.019 208.93 103.59C208.862 103.161 208.721 102.754 208.653 102.33C208.585 101.907 208.575 101.473 208.502 101.05C208.429 100.626 208.319 100.208 208.246 99.7846C208.173 99.3612 208.047 98.9483 207.969 98.5249C207.89 98.1015 207.786 97.6833 207.702 97.2652C207.618 96.847 207.535 96.4236 207.446 96.0002C207.357 95.5768 207.258 95.1691 207.148 94.751C207.038 94.3328 206.944 93.9251 206.813 93.5122C206.683 93.0992 206.552 92.6967 206.411 92.289C206.27 91.8813 206.15 91.4736 205.993 91.0711C205.836 90.6686 205.616 90.3028 205.444 89.9055C205.272 89.5082 205.214 89.0744 205.031 88.6824C204.848 88.2903 204.644 87.914 204.456 87.5324C204.268 87.1508 204.001 86.8006 203.803 86.4191C203.604 86.0375 203.405 85.6611 203.196 85.2848C202.987 84.9084 202.757 84.5478 202.543 84.1766C202.329 83.8055 202.229 83.3665 202.005 83.0006C201.78 82.6347 201.524 82.2897 201.294 81.9238C201.064 81.5579 200.844 81.192 200.614 80.8313C200.384 80.4707 200.165 80.0996 199.929 79.7389C199.694 79.3782 199.454 79.0228 199.213 78.6673C198.973 78.3119 198.712 77.9669 198.471 77.6167C198.231 77.2665 197.969 76.9163 197.724 76.5661C197.478 76.2159 197.232 75.8552 196.987 75.5154C196.736 75.1652 196.427 74.8516 196.166 74.5014C195.905 74.1512 195.617 73.8323 195.345 73.4873C195.074 73.1423 194.786 72.8235 194.509 72.489C194.232 72.1544 193.95 71.8251 193.662 71.5011C193.375 71.177 193.134 70.8059 192.836 70.4922C192.538 70.1786 192.183 69.9173 191.869 69.6193C191.556 69.3214 191.258 69.0025 190.934 68.715C190.61 68.4276 190.28 68.1453 189.935 67.8787C189.59 67.6121 189.245 67.356 188.89 67.1051C188.535 66.8542 188.158 66.6504 187.787 66.4204C187.416 66.1904 187.055 65.9552 186.674 65.7513C186.287 65.5474 185.895 65.3697 185.498 65.192C185.1 65.0143 184.703 64.847 184.295 64.6902C183.888 64.5334 183.496 64.3452 183.083 64.2093C182.67 64.0734 182.262 63.9062 181.844 63.7964C181.426 63.6866 181.002 63.5612 180.579 63.4723C180.156 63.3834 179.711 63.373 179.283 63.2946C178.854 63.2162 178.431 63.1116 177.997 63.0541C177.563 62.9966 177.129 62.9757 176.695 62.9339C176.261 62.8921 175.828 62.8346 175.394 62.8032C174.96 62.7719 174.526 62.7562 174.087 62.7353C173.653 62.7144 173.214 62.751 172.78 62.7353C172.367 62.7248 171.96 62.6046 171.547 62.6046C171.134 62.6046 170.726 62.7405 170.313 62.751C169.9 62.7614 169.487 62.6569 169.074 62.6726C168.661 62.6882 168.254 62.798 167.846 62.8242C167.438 62.8503 167.025 62.8973 166.617 62.9339C166.21 62.9705 165.792 62.9653 165.384 63.0123C164.976 63.0594 164.563 63.0855 164.156 63.1535C163.748 63.2214 163.345 63.305 162.938 63.3834C162.53 63.4619 162.122 63.5089 161.72 63.6082C161.317 63.7075 160.941 63.8957 160.544 64.0055C160.146 64.1152 159.728 64.1623 159.336 64.293C158.939 64.4236 158.573 64.6484 158.191 64.7947C157.81 64.9411 157.413 65.0875 157.036 65.2547C156.655 65.422 156.252 65.5474 155.881 65.7356C155.51 65.9238 155.155 66.1486 154.799 66.3524C154.444 66.5563 154.046 66.7235 153.701 66.9431C153.356 67.1626 153.017 67.424 152.682 67.6644C152.348 67.9048 152.05 68.208 151.726 68.4641C151.402 68.7203 151.077 68.9816 150.764 69.2534C150.45 69.5252 150.074 69.7291 149.776 70.0166C149.478 70.3041 149.175 70.5916 148.887 70.8947C148.6 71.1979 148.396 71.5742 148.124 71.8879C147.852 72.2015 147.601 72.5308 147.34 72.8549C147.079 73.1789 146.844 73.5187 146.598 73.8532C146.352 74.1878 145.997 74.4439 145.762 74.7889C145.526 75.1339 145.343 75.5102 145.119 75.8604C144.894 76.2106 144.643 76.5452 144.434 76.9006C144.225 77.256 144.016 77.6219 143.817 77.9826C143.618 78.3433 143.472 78.7405 143.284 79.1116C143.096 79.4828 142.976 79.8852 142.793 80.2564C142.61 80.6275 142.343 80.962 142.171 81.3436C141.998 81.7252 141.92 82.1381 141.758 82.5249C141.596 82.9117 141.345 83.2515 141.193 83.6383C141.042 84.0251 140.994 84.4537 140.848 84.8405C140.702 85.2273 140.503 85.5984 140.367 85.9904C140.231 86.3825 140.069 86.764 139.933 87.1613C139.797 87.5586 139.719 87.9663 139.594 88.3635C139.468 88.7608 139.338 89.1528 139.217 89.5501C139.097 89.9473 138.956 90.3393 138.841 90.7418C138.726 91.1443 138.642 91.552 138.533 91.9493C138.423 92.3465 138.323 92.7542 138.219 93.1567C138.114 93.5592 137.984 93.9565 137.884 94.3589C137.785 94.7614 137.722 95.1796 137.623 95.5821C137.524 95.9846 137.414 96.387 137.32 96.7895C137.226 97.192 137.147 97.6049 137.059 98.0074C136.97 98.4099 136.839 98.8124 136.75 99.2201C136.661 99.6278 136.588 100.036 136.499 100.438C136.41 100.84 136.358 101.259 136.274 101.661C136.186 102.069 136.034 102.466 135.95 102.879C135.867 103.292 135.867 103.715 135.788 104.128C135.71 104.541 135.6 104.944 135.532 105.357C135.464 105.77 135.428 106.188 135.365 106.601C135.302 107.014 135.119 107.411 135.057 107.824C134.994 108.237 135.046 108.671 134.994 109.084C134.942 109.496 134.858 109.909 134.806 110.328C134.753 110.746 134.696 111.159 134.649 111.577C134.602 111.995 134.555 112.408 134.513 112.826C134.471 113.244 134.424 113.657 134.388 114.075C134.351 114.494 134.361 114.912 134.33 115.33C134.299 115.748 134.267 116.166 134.236 116.584C134.205 117.003 134.105 117.415 134.079 117.834C134.053 118.252 134.069 118.67 134.048 119.088C134.027 119.506 133.959 119.924 133.938 120.343C133.917 120.761 133.938 121.179 133.928 121.597C133.917 122.015 133.964 122.433 133.954 122.857C133.943 123.28 133.828 123.693 133.818 124.111C133.807 124.529 133.813 124.948 133.807 125.366C133.802 125.784 133.818 126.202 133.818 126.62C133.818 127.038 133.839 127.457 133.839 127.875C133.839 128.293 133.792 128.711 133.792 129.129C133.792 129.547 133.765 129.966 133.771 130.384C133.776 130.802 133.87 131.22 133.875 131.638C133.88 132.056 133.833 132.475 133.839 132.893C133.844 133.311 133.896 133.729 133.901 134.147C133.907 134.565 133.886 134.984 133.896 135.402C133.907 135.82 133.917 136.238 133.922 136.656C133.928 137.074 133.975 137.493 133.985 137.911C133.995 138.329 133.975 138.747 133.985 139.165C133.995 139.583 133.922 140.002 133.933 140.425C133.943 140.848 134.09 141.261 134.1 141.679C134.11 142.098 134.11 142.516 134.121 142.934C134.131 143.352 134.152 143.77 134.158 144.188C134.163 144.607 134.126 145.025 134.131 145.448C134.137 145.872 134.131 146.284 134.142 146.703C134.152 147.121 134.168 147.539 134.178 147.957C134.189 148.375 134.225 148.793 134.236 149.212C134.246 149.63 134.252 150.048 134.257 150.466C134.262 150.884 134.257 151.302 134.257 151.721C134.257 152.139 134.257 152.557 134.257 152.975C134.257 153.393 134.199 153.811 134.199 154.23C134.199 154.648 134.178 155.066 134.178 155.484C134.178 155.902 134.231 156.32 134.225 156.739C134.22 157.157 134.22 157.575 134.21 157.993C134.199 158.411 134.173 158.845 134.163 159.263C134.586 159.263 135.02 159.263 135.438 159.263C135.862 159.263 136.28 159.185 136.698 159.18C137.121 159.18 137.539 159.227 137.958 159.227C138.381 159.227 138.799 159.274 139.217 159.268C139.635 159.263 140.059 159.195 140.477 159.195C140.895 159.195 141.319 159.164 141.737 159.159C142.155 159.153 142.578 159.279 142.996 159.279C143.415 159.279 143.838 159.263 144.256 159.263C144.674 159.263 145.098 159.221 145.516 159.216C145.934 159.211 146.357 159.206 146.776 159.201C147.194 159.195 147.617 159.18 148.035 159.18C148.453 159.18 148.877 159.143 149.295 159.143C149.713 159.143 150.137 159.112 150.555 159.106C150.973 159.101 151.396 159.185 151.814 159.18C152.233 159.174 152.656 159.211 153.074 159.211C153.492 159.211 153.911 159.117 154.334 159.112C154.757 159.106 155.175 159.18 155.594 159.18C156.012 159.18 156.435 159.08 156.853 159.08C157.272 159.08 157.695 159.159 158.113 159.159C158.531 159.159 158.955 159.106 159.373 159.101C159.791 159.096 160.214 159.101 160.633 159.101C161.051 159.101 161.474 159.164 161.892 159.164C162.31 159.164 162.734 159.164 163.152 159.164C163.57 159.164 163.988 159.065 164.406 159.059C164.825 159.054 165.248 159.091 165.666 159.086C166.084 159.08 166.502 159.012 166.926 159.007C167.349 159.002 167.767 159.08 168.186 159.08C168.604 159.08 169.022 159.127 169.445 159.127C169.863 159.127 170.282 159.007 170.7 159.007C171.118 159.007 171.536 159.112 171.954 159.106C172.372 159.101 172.791 159.059 173.209 159.059C173.627 159.059 174.045 159.028 174.463 159.028C174.881 159.028 175.3 159.018 175.718 159.012C176.136 159.007 176.554 159.012 176.972 159.012C177.39 159.012 177.809 159.023 178.227 159.023C178.645 159.023 179.063 158.981 179.481 158.981C179.899 158.981 180.318 159.059 180.736 159.059C181.154 159.059 181.572 158.934 181.99 158.934C182.408 158.934 182.827 159.002 183.245 159.002C183.663 159.002 184.081 159.044 184.499 159.038C184.917 159.033 185.336 158.955 185.754 158.955C186.172 158.955 186.59 159.044 187.008 159.038C187.426 159.033 187.845 158.913 188.263 158.913C188.681 158.913 189.099 158.897 189.517 158.892C189.935 158.887 190.354 159.002 190.772 158.997C191.19 158.991 191.608 159.007 192.026 159.002C192.444 158.997 192.862 158.871 193.281 158.866C193.699 158.861 194.117 158.955 194.535 158.95C194.953 158.944 195.371 158.892 195.79 158.887C196.208 158.882 196.626 158.934 197.044 158.934C197.462 158.934 197.88 158.95 198.304 158.944C198.727 158.939 199.14 158.95 199.564 158.944C199.987 158.939 200.4 158.835 200.818 158.835C201.236 158.835 201.654 158.871 202.073 158.866C202.491 158.861 202.909 158.856 203.327 158.85C203.745 158.845 204.163 158.887 204.587 158.882C205.01 158.876 205.423 158.897 205.846 158.892C206.27 158.887 206.683 158.861 207.101 158.861C207.519 158.861 207.937 158.871 208.361 158.866C208.784 158.861 209.197 158.892 209.62 158.887C210.044 158.882 210.462 158.824 210.885 158.824C211.366 158.824 211.863 158.803 212.344 158.735C212.825 158.667 213.337 158.589 213.75 158.328C214.1 158.108 214.293 157.747 214.502 157.418C214.712 157.089 214.957 156.765 215.062 156.378C215.166 155.991 215.125 155.589 215.156 155.191C215.187 154.794 215.203 154.397 215.208 154.01C215.208 153.587 215.229 153.163 215.229 152.745C215.229 152.327 215.302 151.898 215.297 151.475C215.292 151.052 215.234 150.628 215.224 150.21C215.213 149.792 215.145 149.368 215.13 148.945C215.114 148.522 215.166 148.098 215.151 147.675C215.135 147.251 215.13 146.828 215.109 146.41C215.088 145.992 215.072 145.563 215.046 145.145C215.02 144.727 214.989 144.303 214.962 143.88C214.936 143.457 214.936 143.033 214.905 142.615C214.874 142.197 214.738 141.779 214.701 141.361C214.665 140.942 214.701 140.514 214.659 140.09C214.617 139.667 214.623 139.244 214.581 138.825C214.539 138.407 214.398 137.994 214.356 137.576C214.314 137.158 214.262 136.735 214.215 136.316C214.168 135.898 214.173 135.47 214.121 135.052C214.069 134.633 214.016 134.215 213.964 133.792C213.912 133.368 213.88 132.95 213.823 132.532C213.765 132.114 213.729 131.691 213.671 131.272C213.614 130.854 213.483 130.446 213.426 130.028C213.368 129.61 213.379 129.182 213.316 128.763C213.253 128.345 213.238 127.922 213.17 127.504C213.102 127.085 213.034 126.667 212.966 126.254C212.898 125.841 212.819 125.423 212.746 125.005C212.673 124.587 212.532 124.184 212.459 123.766C212.386 123.348 212.286 122.94 212.213 122.522C212.14 122.104 212.082 121.686 212.004 121.273C211.926 120.86 211.894 120.431 211.816 120.019C211.737 119.606 211.685 119.182 211.601 118.769C211.518 118.356 211.403 117.949 211.319 117.53C211.236 117.112 211.189 116.694 211.105 116.281L211.115 116.313Z" fill="#8DB579"/>
<path d="M205.606 84.9397C205.653 85.3579 205.716 85.7708 205.768 86.189C205.826 86.6437 205.941 87.1037 205.972 87.5585C205.998 87.9766 205.957 88.3948 206.004 88.813C206.051 89.2311 206.223 89.6441 206.26 90.0622C206.296 90.4804 206.249 90.8986 206.302 91.3115C206.354 91.7244 206.474 92.1478 206.511 92.566C206.547 92.9632 206.563 93.3605 206.605 93.7578C206.652 94.1968 206.735 94.6307 206.772 95.0698C206.85 95.9479 206.95 96.826 207.002 97.7042C207.028 98.1223 207.023 98.5457 207.075 98.9639C207.127 99.4239 207.201 99.8786 207.222 100.344C207.258 101.227 207.357 102.105 207.378 102.989C207.399 103.872 207.546 104.656 207.603 105.498C207.661 106.339 207.755 107.254 207.828 108.132C207.901 109.01 207.833 109.915 207.995 110.798C208.063 111.174 208.079 111.519 208.068 111.901C208.053 112.366 208.084 112.821 208.121 113.286C208.178 114.112 208.387 114.906 208.335 115.732C208.283 116.558 208.434 117.462 208.533 118.309C208.633 119.156 208.659 120.071 208.69 120.949C208.753 122.689 208.779 124.435 208.842 126.176C208.858 126.625 208.962 127.059 209.009 127.504C209.061 128 208.983 128.507 209.009 129.004C209.035 129.464 209.124 129.924 209.108 130.389C209.093 130.896 209.061 131.398 209.061 131.905C209.061 132.877 209.072 133.849 209.218 134.816C209.286 135.276 209.218 135.726 209.197 136.191C209.176 136.693 209.208 137.2 209.223 137.702C209.25 138.71 210.818 138.71 210.792 137.702C210.781 137.283 210.765 136.86 210.765 136.442C210.765 135.982 210.854 135.527 210.823 135.067C210.797 134.686 210.703 134.309 210.682 133.928C210.656 133.468 210.65 133.002 210.64 132.542C210.63 132.124 210.624 131.701 210.624 131.283C210.624 130.818 210.703 130.363 210.666 129.892C210.635 129.495 210.572 129.098 210.572 128.695C210.572 128.262 210.614 127.828 210.572 127.394C210.53 127.007 210.436 126.631 210.42 126.244C210.4 125.784 210.394 125.319 210.379 124.859C210.342 123.975 210.3 123.097 210.295 122.214C210.285 120.494 210.19 118.764 209.987 117.055C209.934 116.631 209.887 116.224 209.913 115.795C209.94 115.309 209.934 114.854 209.84 114.373C209.683 113.563 209.621 112.722 209.647 111.896C209.673 111.07 209.443 110.233 209.459 109.381C209.474 108.529 209.375 107.656 209.286 106.804C209.197 105.952 209.166 105.033 209.035 104.149C208.905 103.266 208.931 102.44 208.868 101.593C208.805 100.746 208.758 99.8368 208.654 98.9534C208.549 98.0701 208.544 97.2338 208.46 96.3765C208.413 95.8956 208.387 95.4147 208.34 94.9338C208.293 94.453 208.194 93.9355 208.152 93.4337C208.11 92.9319 208.094 92.4719 208.016 91.991C207.943 91.5467 207.844 91.1286 207.844 90.679C207.844 90.1563 207.812 89.6598 207.681 89.1475C207.572 88.7241 207.546 88.3634 207.551 87.9191C207.551 87.3808 207.451 86.8633 207.363 86.3353C207.284 85.8649 207.232 85.3893 207.174 84.9188C207.122 84.5007 206.85 84.1348 206.39 84.1348C206.004 84.1348 205.554 84.4954 205.606 84.9188V84.9397Z" fill="#699055"/>
<path d="M164.318 54.6271C164.328 55.0662 164.224 55.5 164.218 55.9391C164.213 56.3782 164.297 56.8173 164.281 57.2511C164.265 57.685 164.276 58.1293 164.245 58.5631C164.213 58.9969 164.062 59.4256 164.015 59.8594C163.967 60.2932 163.915 60.7271 163.858 61.1609C163.8 61.5948 163.858 62.0443 163.79 62.4782C163.722 62.912 163.528 63.3197 163.445 63.7483C163.361 64.1769 163.272 64.6056 163.173 65.029C163.074 65.4523 162.953 65.8757 162.844 66.2991C162.765 66.5918 162.708 66.9734 162.865 67.2243C163.021 67.47 163.377 67.4857 163.649 67.5118C164.072 67.5536 164.495 67.5745 164.914 67.6059C165.332 67.6373 165.755 67.6791 166.179 67.7052C166.602 67.7313 167.025 67.747 167.449 67.7679C167.872 67.7888 168.295 67.8254 168.719 67.8411C169.142 67.8568 169.566 67.862 169.989 67.8672C170.412 67.8725 170.836 67.8359 171.259 67.8359C171.683 67.8359 172.106 67.8463 172.529 67.8359C172.953 67.8254 173.371 67.7627 173.794 67.747C174.218 67.7313 174.636 67.6947 175.059 67.6634C175.483 67.632 175.906 67.6529 176.329 67.6216C176.753 67.5902 177.176 67.5641 177.594 67.5223C178.013 67.4804 178.441 67.4857 178.865 67.4386C179.288 67.3916 179.701 67.3027 180.119 67.2452C180.537 67.1877 180.95 67.078 181.368 67.01C181.499 66.9891 181.682 67.0466 181.776 66.9473C181.928 66.7905 181.912 66.4821 181.881 66.2625C181.818 65.8444 181.656 65.4419 181.604 65.0237C181.551 64.6056 181.588 64.1769 181.541 63.7588C181.494 63.3406 181.41 62.9277 181.368 62.5043C181.327 62.0809 181.327 61.6627 181.29 61.2446C181.253 60.8264 181.18 60.4082 181.149 59.9901C181.117 59.5719 181.107 59.1485 181.081 58.7251C181.055 58.3017 181.107 57.8784 181.086 57.4602C181.065 57.042 180.955 56.6239 180.945 56.2005C180.934 55.7771 180.929 55.3589 180.924 54.9355C180.919 54.5121 180.961 54.094 180.961 53.6706C180.961 53.2472 180.877 52.829 180.887 52.4056C180.898 51.9822 180.903 51.5641 180.919 51.1407C180.934 50.7173 181.055 50.3044 181.07 49.881" fill="#EBBEA7"/>
<path d="M148.443 38.7436C148.584 39.1566 148.72 39.5695 148.85 39.9877C148.981 40.4058 149.169 40.8031 149.3 41.216C149.431 41.629 149.54 42.0524 149.671 42.4705C149.802 42.8887 149.854 43.3278 149.99 43.7407C150.126 44.1536 150.262 44.5718 150.403 44.9795C150.544 45.3872 150.805 45.7583 150.962 46.166C151.119 46.5737 151.192 47.0128 151.365 47.4153C151.537 47.8178 151.809 48.168 152.002 48.56C152.17 48.905 152.311 49.2657 152.489 49.6054C152.666 49.9452 152.86 50.2745 153.058 50.6038C153.257 50.9331 153.435 51.2781 153.654 51.5917C153.874 51.9053 154.13 52.1981 154.37 52.496C154.611 52.7939 154.903 53.0448 155.18 53.3114C155.457 53.578 155.719 53.855 156.022 54.0902C156.367 54.3568 156.702 54.6339 157.078 54.8482C157.454 55.0625 157.825 55.2977 158.223 55.4754C158.62 55.6531 159.043 55.7577 159.451 55.9093C159.859 56.0608 160.266 56.2072 160.679 56.3431C161.092 56.479 161.484 56.6776 161.897 56.8031C162.268 56.9181 162.676 56.9076 163.042 57.0174C163.408 57.1272 163.753 57.3467 164.119 57.4565C164.485 57.5662 164.861 57.6655 165.237 57.7701C165.614 57.8746 166.011 57.8746 166.382 57.9687C166.753 58.0628 167.114 58.2196 167.495 58.3032C167.924 58.3973 168.368 58.4235 168.802 58.5019C169.236 58.5803 169.665 58.7005 170.098 58.7475C170.532 58.7946 170.982 58.7475 171.421 58.7685C171.86 58.7894 172.299 58.8834 172.738 58.873C173.177 58.8625 173.616 58.7894 174.05 58.7423C174.484 58.6953 174.928 58.6587 175.357 58.5751C175.785 58.4914 176.23 58.4392 176.653 58.3085C177.077 58.1778 177.453 57.9374 177.855 57.7544C178.185 57.608 178.551 57.5401 178.875 57.3728C179.199 57.2056 179.523 57.0592 179.847 56.9024C180.171 56.7456 180.453 56.4842 180.788 56.3588C181.18 56.2124 181.624 56.2333 182.032 56.134C182.44 56.0347 182.837 55.8883 183.25 55.8099C183.663 55.7315 184.065 55.6165 184.473 55.5225C184.881 55.4284 185.309 55.397 185.701 55.2506C186.083 55.1095 186.449 54.9109 186.799 54.7175C187.149 54.5241 187.525 54.3359 187.855 54.0955C188.184 53.855 188.44 53.531 188.743 53.2539C189.046 52.9769 189.303 52.6737 189.58 52.3705C189.857 52.0674 190.196 51.8269 190.447 51.5081C190.698 51.1892 190.866 50.8077 191.096 50.4731C191.325 50.1386 191.524 49.7832 191.744 49.4434C191.968 49.0932 192.287 48.8005 192.507 48.4398C192.726 48.0791 192.935 47.7237 193.145 47.3578C193.354 46.9919 193.442 46.5685 193.636 46.1974C193.829 45.8263 194.122 45.5074 194.305 45.1311C194.488 44.7547 194.666 44.3732 194.838 43.9968C195.011 43.6205 195.194 43.2389 195.356 42.8521C195.518 42.4653 195.664 42.0733 195.816 41.6812C195.967 41.2892 196.051 40.8763 196.187 40.479C196.323 40.0818 196.432 39.6793 196.558 39.282C196.683 38.8848 196.803 38.4823 196.913 38.0798C197.023 37.6773 197.122 37.2696 197.216 36.8619C197.31 36.4542 197.431 36.0517 197.514 35.644C197.598 35.2363 197.676 34.8233 197.75 34.4104C197.823 33.9975 197.849 33.5793 197.906 33.1664C197.964 32.7534 198.032 32.3405 198.074 31.9223C198.115 31.5042 198.105 31.086 198.131 30.6678C198.157 30.2497 198.162 29.8367 198.173 29.4186C198.183 29.0004 198.236 28.5875 198.23 28.1693C198.225 27.7511 198.23 27.333 198.21 26.9148C198.189 26.5019 198.21 26.0837 198.173 25.676C198.136 25.2683 198.047 24.8606 197.99 24.4529C197.932 24.0452 197.807 23.6479 197.723 23.2454C197.64 22.8429 197.645 22.4196 197.54 22.0223C197.436 21.625 197.321 21.2278 197.195 20.8358C197.07 20.4437 196.84 20.0883 196.699 19.7015C196.558 19.3147 196.49 18.8965 196.328 18.5202C196.166 18.1438 195.962 17.7832 195.784 17.412C195.606 17.0409 195.45 16.6593 195.251 16.2987C195.052 15.938 194.812 15.6035 194.598 15.2533C194.383 14.9031 194.169 14.5476 193.939 14.2079C193.709 13.8681 193.526 13.4918 193.275 13.1624C193.024 12.8331 192.695 12.5666 192.434 12.2529C192.172 11.9393 191.906 11.6257 191.629 11.3173C191.352 11.0089 191.101 10.6848 190.808 10.3921C190.515 10.0994 190.16 9.87986 189.857 9.5976C189.554 9.31534 189.245 9.04876 188.932 8.78741C188.618 8.52605 188.362 8.1863 188.032 7.9354C187.703 7.6845 187.327 7.50678 186.992 7.27156C186.658 7.03635 186.365 6.72795 186.015 6.50841C185.665 6.28888 185.257 6.16866 184.901 5.9648C184.546 5.76095 184.175 5.58323 183.809 5.39505C183.443 5.20688 183.093 4.99257 182.717 4.82008C182.34 4.64758 181.964 4.48555 181.582 4.32873C181.201 4.17192 180.84 3.96807 180.448 3.83216C180.056 3.69626 179.633 3.68058 179.241 3.56036C178.849 3.44014 178.467 3.27287 178.07 3.17356C177.672 3.07424 177.26 3.04288 176.852 2.95925C176.444 2.87561 176.057 2.75539 175.65 2.69267C175.242 2.62994 174.85 2.47836 174.437 2.43131C174.024 2.38427 173.611 2.43131 173.198 2.39995C172.785 2.36859 172.346 2.28496 171.928 2.27973C171.51 2.2745 171.076 2.39995 170.658 2.41563C170.24 2.43131 169.811 2.4679 169.393 2.50972C168.975 2.55154 168.546 2.55676 168.128 2.61949C167.71 2.68221 167.292 2.76062 166.879 2.84425C166.466 2.92788 166.032 2.95925 165.624 3.06379C165.216 3.16833 164.793 3.25719 164.391 3.38786C163.988 3.51854 163.606 3.7224 163.209 3.87398C162.812 4.02556 162.436 4.22942 162.054 4.40191C161.672 4.57441 161.28 4.75212 160.904 4.94553C160.528 5.13893 160.151 5.33755 159.785 5.55186C159.42 5.76617 159.028 5.93867 158.672 6.17388C158.317 6.4091 157.972 6.66 157.632 6.9109C157.292 7.16179 156.968 7.43883 156.639 7.71063C156.309 7.98244 155.98 8.24902 155.667 8.53651C155.353 8.824 155.107 9.17944 154.809 9.47738C154.511 9.77532 154.182 10.0471 153.9 10.366C153.618 10.6848 153.32 10.988 153.053 11.3173C152.786 11.6466 152.53 11.9864 152.279 12.3261C152.029 12.6659 151.809 13.0318 151.574 13.3872C151.339 13.7427 151.093 14.0876 150.873 14.4483C150.654 14.809 150.408 15.1592 150.204 15.5355C150 15.9119 149.802 16.283 149.614 16.6646C149.425 17.0461 149.232 17.4277 149.065 17.8145C148.898 18.2013 148.767 18.609 148.615 19.0063C148.464 19.4035 148.396 19.8269 148.265 20.2346C148.134 20.6424 147.951 21.0239 147.836 21.4316C147.721 21.8394 147.601 22.2471 147.507 22.66C147.413 23.0729 147.356 23.4963 147.277 23.9145C147.199 24.3327 147.199 24.7613 147.136 25.1794C147.073 25.5976 147.026 26.0158 146.984 26.4392C146.943 26.8625 146.875 27.2807 146.849 27.7041C146.822 28.1275 146.713 28.5509 146.707 28.9743C146.707 29.382 146.765 29.7845 146.775 30.1817C146.786 30.579 146.775 30.9919 146.807 31.3892C146.838 31.7864 146.969 32.1837 147.021 32.5809C147.073 32.9782 147.037 33.3911 147.11 33.7884C147.183 34.1856 147.256 34.5829 147.345 34.9749C147.434 35.367 147.596 35.7381 147.701 36.1301C147.805 36.5221 147.831 36.9298 147.946 37.3166C148.061 37.7034 148.197 38.0798 148.333 38.4614C148.364 38.5555 148.417 38.6391 148.448 38.7332L148.443 38.7436Z" fill="#EBBEA7"/>
<path d="M179.157 42.8806C179.65 43.3573 180.1 43.8132 180.489 44.3831C180.877 44.9531 181.173 45.5437 181.51 46.1344C182.219 47.3623 182.447 48.8131 182.458 50.2172C182.463 50.8855 183.499 50.8855 183.494 50.2172C183.489 49.4503 183.39 48.6473 183.266 47.8908C183.142 47.1343 182.836 46.3675 182.458 45.7095C182.105 45.0878 181.779 44.4557 181.38 43.8598C180.945 43.2122 180.442 42.6889 179.888 42.1501C179.411 41.6838 178.675 42.4143 179.157 42.8806Z" fill="#BC7F6C"/>
<path d="M162.337 42.8806C161.844 43.3573 161.394 43.8132 161.005 44.3831C160.616 44.9531 160.321 45.5437 159.984 46.1344C159.274 47.3623 159.047 48.8131 159.036 50.2172C159.031 50.8855 157.995 50.8855 158 50.2172C158.005 49.4503 158.104 48.6473 158.228 47.8908C158.352 47.1343 158.658 46.3675 159.036 45.7095C159.388 45.0878 159.715 44.4557 160.114 43.8598C160.549 43.2122 161.052 42.6889 161.606 42.1501C162.083 41.6838 162.818 42.4143 162.337 42.8806Z" fill="#BC7F6C"/>
<path d="M141.857 41.3773C142.144 41.6857 142.39 42.0359 142.719 42.3077C143.033 42.5691 143.388 42.8252 143.78 43.0395C144.146 43.2381 144.528 43.4472 144.941 43.5988C145.354 43.7504 145.777 43.7765 146.2 43.8758C146.624 43.9751 147.031 44.064 147.46 44.111C147.889 44.1581 148.317 44.1581 148.741 44.1529C149.164 44.1476 149.614 44.2313 150.032 44.1685C150.45 44.1058 150.858 43.8811 151.255 43.7556C151.673 43.6249 152.091 43.5256 152.457 43.3165C152.823 43.1075 153.215 42.8775 153.513 42.5691C153.811 42.2607 154.062 41.9 154.25 41.5027C154.423 41.1369 154.464 40.6978 154.527 40.2483C154.585 39.8562 154.642 39.4328 154.605 38.9729C154.574 38.5704 154.543 38.1313 154.47 37.6818C154.402 37.2741 154.313 36.8454 154.208 36.4064C154.114 35.9987 153.942 35.591 153.816 35.1676C153.691 34.7442 153.581 34.3417 153.435 33.9288C153.288 33.5158 153.215 33.0872 153.048 32.6847C152.881 32.2822 152.708 31.885 152.52 31.4929C152.332 31.1009 152.029 30.7664 151.819 30.39C151.61 30.0137 151.469 29.5851 151.234 29.2244C150.999 28.8637 150.659 28.5606 150.398 28.2208C150.136 27.8811 149.875 27.5204 149.582 27.212C149.29 26.9036 148.955 26.6004 148.626 26.3391C148.281 26.062 147.941 25.7902 147.57 25.5864C147.199 25.3825 146.775 25.2309 146.362 25.1159C145.949 24.9957 145.526 24.9748 145.097 24.9487C144.669 24.9225 144.245 24.9173 143.822 24.98C143.399 25.0428 142.97 25.1159 142.573 25.2675C142.176 25.4191 141.763 25.5864 141.407 25.8268C141.026 26.0829 140.712 26.4332 140.398 26.7625C140.085 27.0918 139.797 27.4524 139.552 27.8392C139.306 28.226 139.034 28.6076 138.862 29.0362C138.689 29.4649 138.679 29.9405 138.585 30.3848C138.49 30.8291 138.318 31.2734 138.292 31.7282C138.266 32.1829 138.271 32.6481 138.297 33.1081C138.323 33.5681 138.48 34.0072 138.558 34.4567C138.637 34.9062 138.668 35.3714 138.788 35.8105C138.898 36.2234 139.081 36.6155 139.227 37.0179C139.374 37.4204 139.478 37.8386 139.661 38.2306C139.844 38.6226 140.121 38.9572 140.336 39.3231C140.55 39.689 140.717 40.0967 140.973 40.4417C141.229 40.7866 141.564 41.0637 141.857 41.3773Z" fill="#EBBEA7"/>
<path d="M142.62 33.8924C143.179 34.0544 143.749 34.1747 144.308 34.3524C144.868 34.5301 145.417 34.713 145.986 34.8437C146.556 34.9744 147.037 35.1678 147.56 35.3612C148.082 35.5546 148.652 35.7166 149.196 35.8839C150.163 36.1818 150.576 34.666 149.614 34.3733C149.07 34.206 148.511 34.0492 147.978 33.8506C147.445 33.6519 146.953 33.4585 146.405 33.3331C145.856 33.2076 145.281 33.0247 144.727 32.8418C144.173 32.6588 143.598 32.5438 143.038 32.3818C142.066 32.0995 141.653 33.6101 142.62 33.8924Z" fill="#A55535"/>
<path d="M202.731 41.4614C202.444 41.7698 202.13 42.0625 201.801 42.3343C201.487 42.5957 201.101 42.8048 200.708 43.0191C200.343 43.2177 199.935 43.3589 199.522 43.5104C199.109 43.662 198.712 43.7457 198.288 43.845C197.865 43.9443 197.462 44.0436 197.034 44.0906C196.605 44.1377 196.182 44.2004 195.753 44.1952C195.325 44.19 194.896 44.1168 194.478 44.0593C194.06 44.0018 193.636 43.892 193.239 43.7666C192.821 43.6359 192.382 43.5627 192.021 43.3536C191.66 43.1445 191.342 42.8205 191.049 42.5173C190.756 42.2141 190.505 41.8744 190.317 41.4771C190.145 41.1112 190.035 40.7035 189.967 40.254C189.909 39.862 189.878 39.4386 189.915 38.9786C189.946 38.5761 190.009 38.1475 190.087 37.6927C190.155 37.285 190.192 36.8459 190.296 36.4121C190.39 36.0044 190.526 35.5862 190.652 35.1628C190.777 34.7394 190.845 34.3213 190.991 33.9031C191.138 33.485 191.368 33.1191 191.53 32.7166C191.692 32.3141 191.885 31.9273 192.068 31.5353C192.251 31.1432 192.481 30.7721 192.69 30.3958C192.899 30.0194 193.046 29.5908 193.276 29.2354C193.506 28.8799 193.777 28.5193 194.039 28.1847C194.3 27.8502 194.572 27.4843 194.865 27.1811C195.157 26.878 195.565 26.648 195.894 26.3814C196.239 26.1044 196.527 25.7489 196.898 25.5451C197.269 25.3412 197.719 25.2314 198.132 25.1164C198.545 24.9962 198.973 24.9805 199.402 24.9544C199.83 24.9283 200.249 24.944 200.672 25.0119C201.095 25.0799 201.534 25.0955 201.937 25.2471C202.339 25.3987 202.705 25.6392 203.061 25.8744C203.442 26.1305 203.772 26.4441 204.09 26.7734C204.409 27.1027 204.681 27.4634 204.927 27.8554C205.172 28.2474 205.429 28.6238 205.601 29.0524C205.774 29.481 205.889 29.9253 205.988 30.3749C206.087 30.8244 206.061 31.2844 206.092 31.7443C206.124 32.2043 206.118 32.6486 206.092 33.1086C206.066 33.5686 206.124 34.0338 206.045 34.4833C205.967 34.9328 205.768 35.3615 205.648 35.8005C205.538 36.2135 205.507 36.6525 205.361 37.0603C205.214 37.468 205.016 37.8495 204.833 38.2363C204.65 38.6231 204.456 39.0099 204.237 39.3811C204.017 39.7522 203.751 40.0919 203.5 40.4317C203.249 40.7715 203.029 41.1583 202.737 41.4719L202.731 41.4614Z" fill="#EBBEA7"/>
<path d="M201.451 32.3501C200.902 32.5226 200.389 32.784 199.825 32.9094C199.292 33.0296 198.785 33.1237 198.278 33.3276C197.17 33.7614 196.014 34.0228 194.88 34.3573C193.913 34.6396 194.326 36.1554 195.298 35.8679C196.438 35.5334 197.588 35.272 198.696 34.8382C199.203 34.6396 199.715 34.5402 200.243 34.42C200.808 34.2946 201.32 34.0384 201.869 33.8607C202.271 33.7353 202.533 33.3171 202.418 32.8937C202.308 32.4965 201.858 32.2194 201.451 32.3449V32.3501Z" fill="#A55535"/>
<path d="M176.69 28.7963C177.72 28.6447 178.791 28.7701 179.784 29.0576C180.26 29.1935 180.767 29.3085 181.227 29.4862C181.687 29.6639 182.105 29.9723 182.497 30.2598C182.837 30.5107 183.37 30.3173 183.569 29.9776C183.799 29.5803 183.631 29.1569 183.286 28.906C182.805 28.5558 182.304 28.2317 181.744 28.0122C181.185 27.7927 180.631 27.662 180.077 27.5104C178.828 27.1654 177.547 27.0975 176.266 27.2804C175.848 27.3431 175.618 27.8711 175.718 28.2474C175.843 28.6969 176.261 28.8538 176.685 28.7963H176.69Z" fill="#2B2927"/>
<path d="M165.494 27.3686C164.197 27.2536 162.823 27.5463 161.636 28.0481C160.45 28.5499 159.43 29.2085 158.625 30.1546C158.354 30.4787 158.307 30.9491 158.625 31.2628C158.908 31.545 159.457 31.5868 159.734 31.2628C161.103 29.6581 163.398 28.7486 165.499 28.9367C165.922 28.9733 166.283 28.5499 166.283 28.1527C166.283 27.6979 165.922 27.4052 165.499 27.3686H165.494Z" fill="#2B2927"/>
<path d="M170.888 36.2857C170.266 35.9094 169.393 35.9826 168.792 36.3746C168.071 36.8503 167.914 37.6814 167.878 38.4863C167.841 39.2913 167.993 40.0963 168.458 40.7653C168.714 41.1312 169.017 41.4396 169.393 41.6957C169.728 41.9257 170.141 42.046 170.533 42.1348C170.925 42.2237 171.401 42.0146 171.5 41.586C171.589 41.1887 171.38 40.7183 170.951 40.619C170.81 40.5876 170.674 40.5562 170.538 40.5092C170.481 40.4883 170.418 40.4726 170.36 40.4465C170.496 40.5092 170.287 40.3994 170.282 40.3942C170.261 40.3838 170.094 40.2635 170.193 40.3419C170.141 40.3001 170.094 40.2583 170.047 40.2113C170 40.1642 169.953 40.1224 169.911 40.0754C169.911 40.0754 169.759 39.8872 169.838 39.9969C169.765 39.8976 169.702 39.7931 169.644 39.6833C169.644 39.6729 169.545 39.4586 169.597 39.5997C169.576 39.5422 169.555 39.4847 169.535 39.4272C169.493 39.2965 169.456 39.1658 169.435 39.0299C169.451 39.1449 169.435 39.009 169.435 38.962C169.435 38.8836 169.435 38.8 169.435 38.7216C169.435 38.5804 169.446 38.4393 169.451 38.3034C169.451 38.2511 169.456 38.1988 169.461 38.1413C169.472 38.0577 169.487 38.0159 169.461 38.1204C169.477 38.0577 169.487 37.9898 169.503 37.927C169.508 37.9061 169.566 37.7336 169.529 37.833C169.493 37.9323 169.566 37.7702 169.576 37.7493C169.665 37.5821 169.487 37.8382 169.618 37.6971C169.707 37.603 169.524 37.7336 169.602 37.7075C169.644 37.6918 169.686 37.6605 169.723 37.6396C169.487 37.7755 169.927 37.5455 169.927 37.5925C169.927 37.603 169.749 37.603 169.927 37.5977C169.953 37.5977 170.047 37.5821 170.073 37.5977C169.968 37.5821 169.947 37.5768 170.005 37.5925C170.031 37.5977 170.057 37.603 170.083 37.6134C170.083 37.5873 169.932 37.5298 170.089 37.6239C170.439 37.8382 170.967 37.7127 171.16 37.3416C171.354 36.9705 171.254 36.4948 170.878 36.2701L170.888 36.2857Z" fill="#2B2927"/>
<path d="M191.728 23.7883C191.493 23.5321 191.284 23.2551 191.064 22.9781C190.845 22.701 190.589 22.4658 190.39 22.1731C190.275 22.0006 190.029 21.5302 189.669 20.9866C189.433 20.6311 189.162 20.2286 188.911 19.8261C188.66 19.4237 188.425 18.995 188.231 18.6187C187.912 18.0071 187.735 17.5733 187.839 17.3799C187.646 17.7406 187.426 18.096 187.191 18.4305C186.956 18.7651 186.6 19.0055 186.323 19.3087C186.046 19.6118 185.806 19.9411 185.497 20.213C185.189 20.4848 184.907 20.7879 184.567 21.0231C184.227 21.2584 183.82 21.3734 183.459 21.572C183.098 21.7706 182.769 22.0215 182.387 22.1783C182.006 22.3351 181.593 22.3874 181.201 22.4972C180.809 22.6069 180.411 22.6853 180.004 22.7481C179.596 22.8108 179.199 22.9467 178.791 22.9624C178.383 22.9781 177.976 22.8631 177.568 22.8265C177.16 22.7899 176.747 22.7899 176.35 22.7063C175.953 22.6226 175.535 22.5808 175.143 22.4554C174.751 22.3299 174.395 22.1104 174.019 21.9431C173.642 21.7758 173.271 21.6086 172.916 21.3995C172.56 21.1904 172.215 20.9709 171.886 20.7252C171.557 20.4795 171.269 20.1398 170.977 19.8575C170.752 20.2025 170.548 20.6102 170.297 20.9447C170.046 21.2793 169.754 21.5772 169.482 21.8908C169.21 22.2045 168.969 22.5599 168.672 22.8474C168.374 23.1349 168.044 23.4015 167.72 23.6628C167.396 23.9242 167.056 24.1751 166.706 24.3946C166.356 24.6141 165.938 24.7187 165.556 24.8912C165.175 25.0637 164.809 25.2466 164.406 25.3668C164.004 25.487 163.612 25.6334 163.199 25.6804C162.786 25.7275 162.362 25.7223 161.95 25.7014C161.537 25.6804 161.129 25.5707 160.726 25.487C160.324 25.4034 159.906 25.3355 159.524 25.1786C159.143 25.0218 158.771 24.818 158.426 24.588C158.082 24.358 157.737 24.1123 157.449 23.8144C157.162 23.5164 156.926 23.2081 156.712 22.8474C156.451 23.1244 156.205 23.4276 155.865 23.7151C155.567 23.9712 155.165 24.1385 154.82 24.3894C154.496 24.6298 154.146 24.8441 153.785 25.0689C153.424 25.2936 153.111 25.5393 152.745 25.7379C152.379 25.9366 151.997 26.0882 151.621 26.2606C151.245 26.4331 150.868 26.5952 150.481 26.7363C150.095 26.8774 149.697 27.0029 149.3 27.1074C148.903 27.212 148.5 27.3531 148.098 27.4106C147.695 27.4681 147.267 27.5099 146.859 27.5047C146.451 27.4995 146.017 27.4681 145.62 27.3845C145.223 27.3008 144.82 27.1545 144.444 26.9768C144.068 26.799 143.754 26.5429 143.435 26.2659C143.137 26.0045 142.881 25.6909 142.63 25.3355C142.4 25.0009 142.097 24.703 141.93 24.3371C141.763 23.9712 141.627 23.5792 141.517 23.1871C141.407 22.7951 141.344 22.3926 141.287 21.9849C141.23 21.5772 141.308 21.1747 141.297 20.767C141.287 20.3593 141.198 19.9568 141.224 19.5543C141.25 19.1519 141.277 18.7389 141.344 18.3417C141.412 17.9444 141.601 17.5681 141.7 17.176C141.799 16.784 141.825 16.3658 141.956 15.9843C142.087 15.6027 142.322 15.2473 142.484 14.8866C142.646 14.5259 142.855 14.16 143.049 13.815C143.252 13.4492 143.357 13.0414 143.587 12.7174C143.833 12.3724 144.178 12.1163 144.444 11.7974C144.711 11.4786 144.941 11.1231 145.228 10.8199C145.516 10.5168 145.824 10.2345 146.132 9.95225C146.441 9.66999 146.707 9.33546 147.032 9.07411C147.356 8.81276 147.748 8.62981 148.082 8.38414C148.417 8.13847 148.72 7.8353 149.07 7.60531C149.42 7.37532 149.776 7.15578 150.136 6.94147C150.497 6.72716 150.879 6.55467 151.245 6.35082C151.61 6.14696 151.997 5.98492 152.368 5.79675C152.739 5.60858 153.126 5.44654 153.503 5.26359C153.879 5.08064 154.245 4.87679 154.621 4.69907C154.998 4.52135 155.369 4.31749 155.745 4.15023C156.116 3.98819 156.503 3.86797 156.874 3.70593C157.245 3.54389 157.622 3.40276 157.998 3.24595C158.374 3.08914 158.704 2.83824 159.08 2.69188C159.456 2.54552 159.859 2.46712 160.24 2.32599C160.622 2.18486 160.998 2.04895 161.38 1.91828C161.761 1.7876 162.153 1.68306 162.54 1.56284C162.927 1.44262 163.309 1.31194 163.701 1.2074C164.108 1.09763 164.521 1.00354 164.939 0.909458C165.358 0.815371 165.76 0.679468 166.173 0.601062C166.586 0.522656 167.015 0.475613 167.433 0.412888C167.851 0.350164 168.264 0.229942 168.687 0.182898C169.111 0.135855 169.539 0.182898 169.963 0.146309C170.386 0.109719 170.809 0.104492 171.233 0.0888112C171.656 0.07313 172.08 0.0992653 172.503 0.0992653C172.926 0.0992653 173.355 0.0104054 173.778 0.0260866C174.202 0.0417677 174.625 0.0783571 175.049 0.109719C175.472 0.141082 175.895 0.151536 176.319 0.198579C176.742 0.245623 177.15 0.407661 177.568 0.470386C177.986 0.53311 178.43 0.470386 178.849 0.543564C179.267 0.616743 179.669 0.778782 180.087 0.867642C180.506 0.956501 180.903 1.10809 181.316 1.21785C181.729 1.32762 182.136 1.43216 182.544 1.55761C182.952 1.68306 183.386 1.71965 183.788 1.85555C184.191 1.99146 184.577 2.17963 184.975 2.33122C185.372 2.4828 185.759 2.66575 186.151 2.83301C186.548 3.00028 186.94 3.16754 187.327 3.34004C187.714 3.51253 188.132 3.63275 188.519 3.81047C188.905 3.98819 189.287 4.19205 189.669 4.38022C190.05 4.56839 190.39 4.8402 190.766 5.04405C191.143 5.24791 191.508 5.46222 191.869 5.68175C192.23 5.90129 192.653 6.03719 193.009 6.27764C193.364 6.51808 193.646 6.85261 193.981 7.11397C194.315 7.37532 194.707 7.57395 195.026 7.86143C195.345 8.14892 195.617 8.473 195.915 8.78662C196.213 9.10024 196.49 9.40864 196.762 9.7484C197.033 10.0882 197.248 10.4227 197.493 10.7624C197.739 11.1022 197.995 11.4315 198.22 11.7817C198.445 12.1319 198.701 12.4665 198.905 12.8324C199.109 13.1983 199.281 13.5798 199.469 13.9509C199.657 14.3221 199.793 14.7193 199.955 15.1061C200.117 15.4929 200.238 15.8902 200.384 16.2822C200.53 16.6742 200.724 17.0454 200.844 17.4478C200.964 17.8503 201.064 18.2528 201.163 18.6605C201.262 19.0682 201.273 19.4864 201.346 19.8993C201.419 20.3123 201.607 20.7043 201.654 21.1172C201.701 21.5302 201.628 21.9588 201.654 22.3717C201.68 22.8108 201.691 23.2446 201.659 23.668C201.628 24.1176 201.659 24.5723 201.524 24.9696C201.388 25.3877 201.116 25.7432 200.818 26.0672C200.546 26.3652 200.222 26.6631 199.778 26.8461C199.412 26.9977 199.02 27.0499 198.633 27.1179C198.246 27.1858 197.859 27.3008 197.467 27.2904C197.075 27.2799 196.694 27.1388 196.312 27.0499C195.931 26.9611 195.544 26.8774 195.188 26.7102C194.833 26.5429 194.509 26.3181 194.195 26.0829C193.892 25.8529 193.636 25.5759 193.348 25.3407C193.061 25.1055 192.716 24.9225 192.444 24.6664C192.172 24.4103 191.963 24.0862 191.712 23.8092L191.728 23.7883Z" fill="#B3AFAF"/>
<path d="M186.23 35.7532C186.339 35.7218 186.449 35.7009 186.559 35.6852L186.418 35.7061C186.658 35.6748 186.899 35.68 187.139 35.7061L186.998 35.6852C187.191 35.7114 187.379 35.7584 187.562 35.8159C187.824 35.8995 188.143 35.7166 188.205 35.45C188.268 35.1625 188.122 34.896 187.839 34.8071C187.228 34.6137 186.569 34.5666 185.947 34.7391C185.686 34.8123 185.492 35.1103 185.581 35.3821C185.67 35.6539 185.942 35.8264 186.224 35.748L186.23 35.7532Z" fill="#BC7F6C"/>
<path d="M186.089 37.7447C186.627 37.8806 187.165 38.0165 187.704 38.1524C187.97 38.2203 188.284 38.0687 188.347 37.7865C188.409 37.5042 188.263 37.2115 187.981 37.1435C187.442 37.0076 186.904 36.8717 186.366 36.7358C186.099 36.6679 185.785 36.8195 185.723 37.1017C185.66 37.384 185.806 37.6767 186.089 37.7447Z" fill="#BC7F6C"/>
<path d="M157.407 34.7028C156.78 34.5251 156.106 34.5722 155.489 34.7656C155.228 34.8492 155.034 35.1315 155.123 35.4085C155.207 35.6698 155.489 35.8633 155.766 35.7744C155.949 35.7169 156.137 35.6699 156.325 35.6437L156.184 35.6646C156.435 35.6333 156.686 35.628 156.937 35.6646L156.796 35.6437C156.905 35.6594 157.015 35.6803 157.12 35.7117C157.381 35.7848 157.7 35.6228 157.763 35.3458C157.825 35.0687 157.679 34.7813 157.397 34.7028H157.407Z" fill="#BC7F6C"/>
<path d="M156.989 36.7569C156.451 36.8928 155.918 37.0444 155.38 37.1803C155.113 37.2482 154.93 37.5618 155.014 37.8232C155.097 38.0845 155.374 38.257 155.657 38.1891C156.195 38.0532 156.728 37.9016 157.266 37.7657C157.533 37.6977 157.716 37.3841 157.632 37.1228C157.549 36.8614 157.272 36.6889 156.989 36.7569Z" fill="#BC7F6C"/>
<path d="M166.042 6.26266C165.849 6.70173 165.682 7.16171 165.436 7.57988C165.19 7.99804 164.908 8.34302 164.678 8.74551C164.202 9.56615 163.685 10.3554 163.115 11.1134C162.859 11.4479 162.582 11.7406 162.268 12.0176C161.929 12.3208 161.646 12.6553 161.348 12.9951C160.742 13.6955 159.989 14.3123 159.247 14.8664C158.907 15.1173 158.735 15.5459 158.965 15.9379C159.158 16.2725 159.697 16.4763 160.036 16.2202C160.841 15.6191 161.657 14.9762 162.336 14.2339C162.655 13.8837 162.937 13.5126 163.293 13.1937C163.68 12.8487 164.009 12.4985 164.323 12.0856C164.913 11.3172 165.457 10.5227 165.938 9.68638C166.189 9.24731 166.492 8.85005 166.753 8.4162C167.015 7.98236 167.187 7.5067 167.391 7.05194C167.563 6.66514 167.506 6.21039 167.109 5.9804C166.774 5.787 166.21 5.87063 166.037 6.26266H166.042Z" fill="#E8E7E6"/>
<path d="M158.244 9.58043C157.627 10.1868 156.974 10.767 156.367 11.389C156.101 11.6608 155.881 11.9692 155.604 12.2358C155.291 12.5389 154.951 12.8107 154.632 13.1087C154.329 13.3909 154.052 13.6993 153.733 13.9659C153.414 14.2325 153.085 14.4311 152.782 14.6873C152.154 15.2309 151.569 15.8268 150.942 16.3704C150.623 16.6474 150.659 17.1962 150.942 17.4785C151.261 17.7974 151.731 17.7555 152.05 17.4785C152.677 16.9349 153.263 16.339 153.89 15.7954C154.177 15.5497 154.507 15.3511 154.794 15.1106C155.123 14.8336 155.416 14.5095 155.735 14.2168C156.054 13.9241 156.362 13.668 156.665 13.3857C156.968 13.1035 157.193 12.7846 157.47 12.4971C158.077 11.8751 158.73 11.2949 159.347 10.6886C160.068 9.97769 158.96 8.86955 158.239 9.58043H158.244Z" fill="#E8E7E6"/>
<path d="M163.555 47.3887C164.109 47.6396 164.595 47.9846 165.201 48.1153C165.745 48.2355 166.288 48.3452 166.832 48.455C167.433 48.5752 168.039 48.7582 168.651 48.8314C169.242 48.9045 169.869 48.9359 170.46 48.8784C171.05 48.8209 171.672 48.7948 172.273 48.7425C172.874 48.6902 173.523 48.5387 174.145 48.4132C175.399 48.1623 176.565 47.786 177.73 47.258C178.117 47.0803 178.211 46.5262 178.013 46.1865C177.783 45.7892 177.328 45.7265 176.941 45.9042C175.927 46.3694 174.887 46.6726 173.794 46.8921C173.251 47.0019 172.707 47.1483 172.153 47.1848C171.599 47.2214 171.024 47.258 170.46 47.3103C169.895 47.3626 169.299 47.3626 168.761 47.2737C168.275 47.1953 167.789 47.0489 167.308 46.9549C166.78 46.8503 166.252 46.7301 165.724 46.6255C165.206 46.521 164.814 46.244 164.339 46.0349C163.952 45.8624 163.497 45.9251 163.267 46.3172C163.068 46.6517 163.163 47.2162 163.549 47.3887H163.555Z" fill="#A55535"/>
<path d="M163.832 36.8507C164.657 36.8507 165.327 35.8257 165.327 34.5613C165.327 33.2969 164.657 32.2718 163.832 32.2718C163.006 32.2718 162.337 33.2969 162.337 34.5613C162.337 35.8257 163.006 36.8507 163.832 36.8507Z" fill="#2B2927"/>
<path d="M179.011 36.8507C179.837 36.8507 180.506 35.8257 180.506 34.5613C180.506 33.2969 179.837 32.2718 179.011 32.2718C178.186 32.2718 177.516 33.2969 177.516 34.5613C177.516 35.8257 178.186 36.8507 179.011 36.8507Z" fill="#2B2927"/>
<path d="M96.8839 68.662C96.8892 69.0175 96.9258 69.3677 96.9571 69.7231C96.9885 70.0785 97.0617 70.4183 97.1192 70.7737C97.1819 71.1605 97.1767 71.563 97.2812 71.9394C97.3857 72.3157 97.6 72.6555 97.7412 73.0214C97.8823 73.3873 98.0025 73.7584 98.1855 74.1086C98.3684 74.4588 98.5514 74.7986 98.7709 75.1227C98.9904 75.4467 99.21 75.776 99.4713 76.0687C99.7327 76.3615 100.01 76.6437 100.308 76.8946C100.606 77.1455 100.961 77.3232 101.296 77.5323C101.63 77.7414 101.975 77.9034 102.336 78.0446C102.696 78.1857 103.062 78.3164 103.444 78.4C103.825 78.4836 104.207 78.5568 104.599 78.5777C104.991 78.5986 105.383 78.5725 105.765 78.5202C106.146 78.468 106.528 78.3582 106.894 78.238C107.26 78.1177 107.605 77.94 107.944 77.7466C108.284 77.5532 108.65 77.4069 108.943 77.1351C109.246 76.8528 109.455 76.5026 109.68 76.1785C109.905 75.8544 110.093 75.499 110.26 75.1279C110.427 74.7568 110.605 74.4013 110.709 74.0093C110.814 73.6173 110.861 73.2252 110.924 72.8175C110.987 72.4098 110.981 72.0178 111.002 71.6101C111.023 71.2024 111.096 70.8103 111.091 70.4026C111.086 69.9949 111.018 69.5977 110.997 69.1952C110.976 68.7927 111.086 68.3745 111.054 67.9773C111.028 67.5957 110.987 67.2089 110.96 66.8273C110.934 66.4457 110.767 66.0694 110.741 65.6878C110.715 65.3063 110.757 64.9142 110.725 64.5326C110.694 64.1511 110.657 63.7695 110.626 63.3827C110.594 62.9959 110.516 62.6195 110.485 62.238C110.453 61.8459 110.563 61.433 110.521 61.0358C110.479 60.6385 110.412 60.2412 110.344 59.8492C110.276 59.4572 110.202 59.0495 110.093 58.6731C109.983 58.2968 109.711 57.9622 109.539 57.6068C109.366 57.2514 109.178 56.9116 108.927 56.598C108.671 56.2687 108.378 55.9864 108.059 55.7146C107.741 55.4428 107.432 55.171 107.092 54.9253C106.753 54.6797 106.465 54.3713 106.131 54.1204C105.812 53.8799 105.43 53.7127 105.132 53.4461C104.834 53.1795 104.583 52.8606 104.301 52.5784C104.019 52.2961 103.747 52.0034 103.486 51.695C103.224 51.3866 102.937 51.1044 102.702 50.7803C102.466 50.4562 102.257 50.1112 102.048 49.7715C101.839 49.4317 101.667 49.0658 101.484 48.7104C101.28 48.3236 101.144 47.8897 100.977 47.4663C100.809 47.0429 100.679 46.6143 100.496 46.2066C100.313 45.7989 100.052 45.4121 99.785 45.0619C99.5184 44.7117 99.1943 44.4033 98.7814 44.1681C98.3946 43.9485 97.9659 43.8701 97.5321 43.8597C97.0983 43.8492 96.6749 43.9224 96.2672 44.0844C95.8594 44.2465 95.4831 44.4555 95.1538 44.743C94.8245 45.0305 94.5788 45.386 94.3697 45.7623C94.1606 46.1387 94.0091 46.5516 93.915 46.975C93.8209 47.3984 93.7843 47.827 93.7843 48.2661C93.7843 48.7051 93.7948 49.139 93.8732 49.5676C93.9516 49.9962 94.0561 50.4301 94.192 50.8378C94.3279 51.2455 94.5893 51.6166 94.767 52.0191C94.9447 52.4216 95.0649 52.8397 95.2636 53.2318C95.4622 53.6238 95.7235 53.9792 95.9169 54.366C96.1103 54.7528 96.2462 55.1762 96.424 55.5735C96.5912 55.9498 96.7219 56.3314 96.8421 56.7025C96.9623 57.0737 97.0251 57.4918 97.1035 57.8786C97.1819 58.2654 97.3387 58.6627 97.3753 59.0547C97.4119 59.4467 97.3857 59.8649 97.391 60.2621C97.3962 60.6594 97.391 61.0671 97.3753 61.4644C97.3596 61.8616 97.3021 62.2641 97.2655 62.6614C97.2289 63.0586 97.1923 63.4611 97.1505 63.8584C97.1087 64.2556 97.0669 64.6581 97.0251 65.0554C96.9833 65.4526 96.9728 65.8551 96.9414 66.2576C96.9101 66.6601 96.8892 67.0573 96.8735 67.4598C96.8578 67.8623 96.8421 68.2595 96.8526 68.662H96.8839Z" fill="#D6A792"/>
<path d="M132.453 28.1006C132.438 27.6877 132.427 27.2695 132.391 26.8566C132.354 26.4436 132.286 26.0307 132.229 25.6178C132.171 25.21 132.114 24.7919 132.04 24.3842C131.962 23.9765 131.837 23.5792 131.737 23.1715C131.643 22.769 131.544 22.3665 131.429 21.964C131.314 21.5668 131.167 21.18 131.037 20.7827C130.901 20.3855 130.718 20.0144 130.566 19.6276C130.415 19.2408 130.368 18.8069 130.2 18.4306C130.028 18.049 129.808 17.6935 129.625 17.3224C129.437 16.9513 129.192 16.6115 128.988 16.2509C128.784 15.8902 128.617 15.5034 128.397 15.1532C128.172 14.803 127.984 14.4266 127.744 14.0869C127.503 13.7471 127.19 13.4596 126.934 13.1356C126.677 12.8063 126.421 12.477 126.155 12.1633C125.883 11.8497 125.585 11.5622 125.297 11.2591C125.01 10.9559 124.785 10.5952 124.487 10.3077C124.189 10.0202 123.808 9.81639 123.499 9.54458C123.186 9.27277 122.93 8.93301 122.6 8.67166C122.276 8.41554 121.889 8.23259 121.55 7.99214C121.21 7.7517 120.886 7.49558 120.536 7.27081C120.185 7.04605 119.867 6.77424 119.506 6.56516C119.145 6.35608 118.769 6.17836 118.403 5.98496C118.037 5.79156 117.666 5.59816 117.29 5.42566C116.913 5.25317 116.527 5.09636 116.14 4.93955C115.753 4.78274 115.345 4.6991 114.953 4.5632C114.561 4.4273 114.19 4.21822 113.793 4.09799C113.396 3.97777 112.972 3.94118 112.57 3.84187C112.167 3.74255 111.77 3.61188 111.362 3.53347C110.954 3.44984 110.552 3.32962 110.144 3.26689C109.731 3.20417 109.324 3.12053 108.911 3.07872C108.498 3.0369 108.074 3.11008 107.656 3.08917C107.243 3.06826 106.83 2.9585 106.412 2.9585C105.999 2.9585 105.581 2.99509 105.163 3.01077C104.75 3.02645 104.337 3.13099 103.924 3.16758C103.511 3.20417 103.088 3.14667 102.675 3.20417C102.267 3.26167 101.875 3.46029 101.467 3.5387C101.06 3.6171 100.642 3.62756 100.234 3.72165C99.8313 3.81573 99.4445 3.97254 99.042 4.08754C98.6448 4.20253 98.2161 4.22344 97.8189 4.35935C97.4216 4.49525 97.0557 4.6991 96.6689 4.85069C96.2821 5.00227 95.9215 5.21658 95.5451 5.38907C95.1636 5.56157 94.7663 5.69224 94.4004 5.87519C94.0293 6.06336 93.6634 6.26199 93.3027 6.46585C92.9421 6.6697 92.5971 6.90492 92.2469 7.12968C91.8966 7.35445 91.4994 7.50603 91.1596 7.74647C90.8199 7.98692 90.5115 8.27441 90.1822 8.5253C89.8529 8.78143 89.4974 9.00619 89.1838 9.278C88.8702 9.54981 88.5513 9.82161 88.2482 10.1039C87.945 10.3914 87.6889 10.7259 87.4014 11.0238C87.1139 11.3218 86.8891 11.6772 86.6173 11.9908C86.3455 12.3045 86.0737 12.6181 85.8176 12.9422C85.5615 13.2662 85.2374 13.5485 84.9969 13.883C84.7565 14.2228 84.5265 14.5678 84.2965 14.918C84.0717 15.2682 83.8783 15.6393 83.6693 15.9948C83.4602 16.3554 83.2616 16.7213 83.0682 17.0872C82.8748 17.4531 82.697 17.8295 82.5193 18.2058C82.3468 18.5821 82.1534 18.9533 81.9966 19.3348C81.8398 19.7216 81.6934 20.1084 81.5575 20.5005C81.4216 20.8925 81.2387 21.2741 81.1185 21.6713C80.9982 22.0686 80.9826 22.4972 80.8832 22.8997C80.7839 23.3022 80.6533 23.6994 80.5749 24.1071C80.4912 24.5148 80.4128 24.9226 80.3553 25.3355C80.2926 25.7484 80.1828 26.1509 80.141 26.5691C80.0992 26.982 80.141 27.4054 80.1149 27.8183C80.094 28.2313 80.0051 28.6494 79.9999 29.0624C79.9999 29.4753 80.1044 29.8935 80.1201 30.3064C80.1358 30.7194 80.1462 31.1375 80.1881 31.5505C80.2246 31.9634 80.2299 32.3816 80.2874 32.7945C80.3449 33.2022 80.4128 33.6151 80.4912 34.0281C80.5696 34.4358 80.6533 34.8435 80.7473 35.2512C80.8414 35.6537 80.993 36.0457 81.108 36.4482C81.223 36.8455 81.3328 37.2479 81.4687 37.64C81.6046 38.0372 81.7353 38.4293 81.8868 38.8161C82.0384 39.2029 82.2266 39.574 82.3991 39.9556C82.5716 40.3371 82.7441 40.7135 82.9323 41.0794C83.1204 41.4505 83.3556 41.7955 83.5595 42.1561C83.7634 42.5168 83.9568 42.8827 84.1815 43.2329C84.4063 43.5831 84.6101 43.949 84.8454 44.2888C85.0858 44.6285 85.3053 44.984 85.5615 45.3133C85.8176 45.6426 86.0633 45.9823 86.3351 46.296C86.6069 46.6096 86.9205 46.8866 87.208 47.1898C87.4955 47.493 87.7934 47.7804 88.0914 48.0679C88.3893 48.3554 88.6559 48.6795 88.9695 48.9565C89.2831 49.2283 89.6751 49.4113 89.9992 49.6674C90.3233 49.9235 90.6056 50.2424 90.9453 50.4828C91.2851 50.7233 91.6092 50.9846 91.9594 51.2146C92.3096 51.4394 92.665 51.6589 93.0257 51.868C93.3864 52.0771 93.747 52.2914 94.1129 52.4848C94.4788 52.6782 94.9179 52.7357 95.2942 52.9082C95.6706 53.0807 96.0417 53.2636 96.4285 53.4204C96.8153 53.5772 97.2021 53.7079 97.5941 53.8491C97.9862 53.985 98.3364 54.2515 98.7336 54.3718C99.1309 54.492 99.549 54.5495 99.9515 54.6488C100.354 54.7481 100.762 54.8265 101.169 54.9101C101.514 54.9781 101.859 55.0879 102.204 55.161V71.229C102.204 73.1316 103.746 74.6684 105.644 74.6684C107.541 74.6684 109.083 73.1264 109.083 71.229V55.3126C109.339 55.2708 109.595 55.229 109.852 55.1924C110.259 55.1349 110.667 55.0408 111.08 54.9624C111.488 54.884 111.906 54.8526 112.314 54.7533C112.716 54.6592 113.118 54.539 113.521 54.424C113.918 54.309 114.295 54.1156 114.692 53.985C115.089 53.849 115.512 53.802 115.899 53.6504C116.286 53.4988 116.662 53.3159 117.044 53.1434C117.426 52.9709 117.786 52.767 118.157 52.5789C118.528 52.3907 118.889 52.1868 119.25 51.9778C119.61 51.7739 119.982 51.5805 120.332 51.361C120.682 51.1362 121.043 50.9219 121.382 50.6815C121.722 50.441 122.057 50.1901 122.386 49.934C122.715 49.6779 122.998 49.3642 123.311 49.0924C123.625 48.8206 123.938 48.5488 124.242 48.2613C124.545 47.9738 124.858 47.702 125.146 47.4041C125.433 47.1062 125.726 46.8082 125.998 46.4946C126.27 46.181 126.573 45.8883 126.829 45.5642C127.085 45.2401 127.263 44.8481 127.503 44.5083C127.744 44.1686 128.057 43.8811 128.282 43.5309C128.507 43.1806 128.706 42.8095 128.915 42.4541C129.124 42.0934 129.312 41.7223 129.5 41.3512C129.693 40.9853 129.903 40.6194 130.08 40.243C130.253 39.8667 130.315 39.4381 130.472 39.0565C130.629 38.6697 130.781 38.2881 130.922 37.8961C131.058 37.5041 131.288 37.1434 131.408 36.7409C131.528 36.3437 131.622 35.936 131.722 35.5335C131.821 35.131 131.915 34.7233 131.993 34.3156C132.077 33.9079 132.061 33.4845 132.124 33.0715C132.187 32.6586 132.307 32.2561 132.349 31.8432C132.391 31.4302 132.391 31.0121 132.412 30.5991C132.432 30.1862 132.412 29.768 132.412 29.3551C132.412 28.9422 132.479 28.524 132.459 28.1058L132.453 28.1006Z" fill="#10185C"/>
<path d="M94 29.7679C94 24.2674 96.3253 20.9804 99.9266 20.9994C102.847 20.9804 104.851 23.0609 105.163 25.7779H102.176C101.949 24.6189 101.118 23.8969 99.9266 23.9254C97.9889 23.9064 96.9397 25.9204 96.9397 29.1219H97.0626C97.7337 27.6874 99.1704 26.8229 100.787 26.8039C103.358 26.8229 105.305 29.0554 105.286 32.1429C105.305 35.4585 103.103 37.8525 99.851 37.8525C96.8452 37.8335 94.0095 35.81 94.0095 29.7774L94 29.7679ZM99.8037 35.145C101.297 35.145 102.375 33.872 102.375 32.2189C102.375 30.5659 101.316 29.2929 99.8415 29.2929C98.367 29.2929 97.2422 30.6134 97.2232 32.2189C97.2422 33.815 98.3292 35.145 99.7943 35.145H99.8037Z" fill="white"/>
<path d="M107.403 33.0173H110.305C110.371 34.2713 111.411 35.1548 112.678 35.1548C114.171 35.1548 115.23 33.9483 115.211 32.2288C115.23 30.5093 114.152 29.2838 112.64 29.3028C111.534 29.2838 110.778 29.7398 110.353 30.6518H107.659L108.434 21.1897H117.3V24.0207H110.882L110.513 28.1532H110.598C111.147 27.3457 112.234 26.7662 113.5 26.7662C116.156 26.7662 118.141 29.0178 118.122 32.1433C118.141 35.4873 115.92 37.8528 112.687 37.8528C109.663 37.8528 107.451 35.8388 107.413 33.0268L107.403 33.0173Z" fill="white"/>
<path d="M107.939 65.1301C108.195 65.5431 108.347 66.0083 108.472 66.4787C108.597 66.9491 108.754 67.43 108.739 67.9161C108.723 68.4023 108.535 68.8675 108.362 69.3275C108.205 69.7456 108.221 70.1742 108.226 70.5976C108.232 71.021 108.247 71.4444 108.347 71.8678C108.446 72.2912 108.561 72.6937 108.676 73.1118C108.791 73.53 108.932 73.9377 109.005 74.3559C109.078 74.774 109.078 75.2131 109.047 75.6417C109.01 76.0494 108.916 76.4676 108.733 76.8858C108.571 77.2464 108.347 77.5862 108.101 77.9155C107.855 78.2448 107.657 78.5898 107.364 78.8825C107.071 79.1752 106.778 79.4366 106.46 79.6979C106.141 79.9593 105.796 80.1631 105.466 80.3983C105.137 80.6336 104.756 80.7956 104.421 81.0151C104.086 81.2347 103.773 81.5274 103.438 81.7312C103.078 81.9508 102.759 82.2069 102.435 82.4108C102.069 82.6355 101.692 82.8342 101.327 83.0119C100.961 83.1896 100.516 83.2628 100.13 83.3987C99.7428 83.5346 99.3508 83.7489 98.9483 83.8325C98.5458 83.9162 98.1067 83.9109 97.699 83.9371C97.2913 83.9632 96.8575 84.0207 96.4445 83.9893C96.0316 83.958 95.6082 83.89 95.2005 83.8012C94.7928 83.7123 94.3851 83.5973 93.993 83.4457C93.601 83.2941 93.2247 83.1164 92.8535 82.9126C92.4824 82.7087 92.1636 82.4474 91.8238 82.1912C91.4841 81.9351 91.2123 81.6372 90.9039 81.3392C90.5955 81.0413 90.2505 80.8165 89.9787 80.4872C89.7069 80.1579 89.4926 79.8129 89.2521 79.4575C89.0273 79.1229 88.7974 78.7936 88.604 78.4434C88.4106 78.0932 88.259 77.7169 88.0917 77.3562C87.9244 76.9955 87.7885 76.614 87.6422 76.2428C87.4958 75.8717 87.3129 75.5111 87.1979 75.1243C87.0829 74.7375 87.0724 74.3297 86.9731 73.9429C86.8738 73.5561 86.7274 73.1798 86.6438 72.7878C86.5602 72.3957 86.5079 71.9985 86.4347 71.6065C86.3616 71.2144 86.2675 70.8224 86.21 70.4304C86.1525 70.0383 86.1054 69.6359 86.0532 69.2438C86.0009 68.8413 85.9747 68.4389 85.9329 68.0311C85.8911 67.6234 85.8911 67.221 85.865 66.8132C85.8388 66.4055 85.7761 66.0031 85.7657 65.5953C85.7552 65.1876 85.7761 64.7799 85.7866 64.3774C85.797 63.975 85.7813 63.562 85.8179 63.1595C85.8545 62.7571 85.912 62.3493 85.9852 61.9469C86.0584 61.5444 86.1211 61.1367 86.2309 60.7499C86.3406 60.3631 86.487 59.9763 86.6386 59.5947C86.7902 59.2131 87.0411 58.889 87.2397 58.5336C87.4383 58.1782 87.6265 57.8279 87.8722 57.4986C88.1178 57.1693 88.3896 56.8871 88.6771 56.5944C88.9646 56.3016 89.226 56.0142 89.5553 55.7528C89.8846 55.4915 90.2348 55.2144 90.6007 54.9844C90.9666 54.7544 91.3429 54.5349 91.7245 54.3363C92.1061 54.1376 92.4772 53.9077 92.8797 53.7352C93.2822 53.5627 93.7003 53.4529 94.108 53.3066C94.5157 53.1602 94.9339 53.0609 95.3521 52.9354C95.7702 52.81 96.1623 52.6218 96.5804 52.512C96.9986 52.4023 97.4272 52.3239 97.8454 52.2246C98.2583 52.1305 98.6869 52.0939 99.1103 52.0207C99.5337 51.9475 99.9519 51.8743 100.375 51.8587C100.799 51.843 101.227 51.8743 101.645 51.9527C102.064 52.0311 102.487 52.1357 102.863 52.3395C103.24 52.5434 103.585 52.8257 103.862 53.1393C104.139 53.4529 104.369 53.8397 104.473 54.2631C104.552 54.5767 104.552 54.9113 104.588 55.2353C104.625 55.5594 104.625 55.9096 104.787 56.1919C105.053 56.6466 105.571 56.908 105.979 57.253C106.339 57.5561 106.653 57.9011 106.878 58.3141C107.102 58.727 107.181 59.187 107.259 59.647C107.338 60.1069 107.421 60.5774 107.343 61.0321C107.265 61.4869 107.102 61.9469 106.862 62.3493C106.684 62.6473 106.48 62.9348 106.512 63.2745C106.548 63.6613 106.81 63.975 107.097 64.2363C107.4 64.5133 107.709 64.7799 107.928 65.1301H107.939Z" fill="#EBBEA7"/>
<path d="M92.4144 60.9367C92.749 60.7747 93.0521 60.5604 93.3867 60.4036C93.7212 60.2468 94.0662 60.184 94.4007 60.0534C95.1743 59.7502 95.927 59.4052 96.7006 59.102C97.077 58.9557 97.4742 58.8616 97.8558 58.7205C98.206 58.5898 98.5248 58.3964 98.8646 58.2552C99.6487 57.9207 100.485 57.743 101.3 57.5078C102.267 57.2255 101.854 55.7149 100.882 55.9972C100.062 56.2324 99.2462 56.4362 98.4464 56.7446C98.0805 56.8858 97.746 57.0948 97.3801 57.2307C96.9776 57.3771 96.5647 57.4816 96.1674 57.6385C95.3991 57.9468 94.6516 58.2971 93.878 58.5846C93.486 58.7309 93.0783 58.8302 92.6915 59.0079C92.3203 59.1752 91.9858 59.4104 91.6199 59.5881C91.254 59.7659 91.139 60.3147 91.3377 60.6597C91.5676 61.0465 92.0276 61.1249 92.4092 60.9419L92.4144 60.9367Z" fill="#A55535"/>
<path d="M94.8502 68.4072C95.2109 68.1824 95.6134 68.0361 95.9793 67.8113C96.3452 67.5865 96.6745 67.3095 97.0613 67.1161C97.8715 66.7032 98.7287 66.3686 99.5598 65.9975C100.365 65.6369 101.227 65.3964 102.079 65.156C102.508 65.0357 102.942 64.9364 103.381 64.8476C103.856 64.7483 104.322 64.5862 104.797 64.4921C105.215 64.4137 105.451 63.9119 105.346 63.5251C105.226 63.0913 104.797 62.8979 104.379 62.9763C103.898 63.0651 103.438 63.2272 102.963 63.3317C102.524 63.4258 102.09 63.5199 101.661 63.6401C100.72 63.9067 99.7793 64.189 98.8803 64.5914C98.0283 64.973 97.1606 65.3232 96.3243 65.7362C95.9322 65.9296 95.6029 66.1961 95.237 66.4261C94.8711 66.6561 94.4373 66.8129 94.0609 67.0482C93.2089 67.5865 93.993 68.9403 94.8502 68.402V68.4072Z" fill="#A55535"/>
<path d="M97.5266 74.8301C98.2113 74.5165 98.8752 74.1506 99.5599 73.8369C100.245 73.5233 100.914 73.2829 101.609 73.1104C102.33 72.9327 102.957 72.5354 103.668 72.3368C104.034 72.2375 104.4 72.1643 104.761 72.0388C105.137 71.9134 105.503 71.7566 105.879 71.6364C106.282 71.5109 106.543 71.0927 106.428 70.6693C106.318 70.2721 105.869 69.9951 105.461 70.1205C105.085 70.2407 104.719 70.3975 104.343 70.523C103.966 70.6484 103.616 70.7164 103.25 70.8209C102.858 70.9307 102.487 71.098 102.121 71.2705C101.781 71.4325 101.436 71.5318 101.071 71.6207C100.318 71.8088 99.5756 72.112 98.8699 72.4256C98.1434 72.7497 97.4482 73.1365 96.7269 73.4658C96.3401 73.6435 96.246 74.1976 96.4446 74.5374C96.6746 74.9346 97.1293 74.9973 97.5161 74.8196L97.5266 74.8301Z" fill="#A55535"/>
<path d="M135.919 85.7288C135.851 87.0774 135.695 88.4312 135.7 89.7798C135.705 91.1284 135.658 92.4404 135.559 93.7681C135.459 95.0957 135.433 96.4286 135.407 97.7563C135.402 98.049 135.407 98.3469 135.365 98.6397C135.318 98.9742 135.25 99.3087 135.229 99.6485C135.193 100.323 135.24 101.002 135.214 101.677C135.188 102.351 135.093 102.983 135.078 103.637C135.062 104.29 135.052 104.991 135.046 105.665C135.041 106.339 134.905 107.008 134.916 107.688C134.916 107.996 134.952 108.32 134.916 108.629C134.879 108.937 134.79 109.235 134.754 109.543C134.681 110.176 134.644 110.871 134.701 111.503C134.728 111.796 134.769 112.084 134.754 112.376C134.733 112.737 134.665 113.092 134.634 113.448C134.581 114.117 134.566 114.802 134.576 115.476C134.576 115.732 134.597 115.993 134.56 116.244C134.508 116.605 134.409 116.95 134.377 117.311C134.32 118.042 134.325 118.785 134.278 119.522C134.231 120.259 134.356 120.954 134.315 121.68C134.273 122.407 134.257 123.202 134.205 123.959C134.153 124.717 134.043 125.475 133.991 126.233C133.964 126.657 134.372 127.017 134.775 127.017C135.219 127.017 135.533 126.657 135.559 126.233C135.601 125.559 135.7 124.885 135.752 124.21C135.804 123.536 135.815 122.862 135.851 122.182C135.867 121.863 135.893 121.55 135.904 121.231C135.914 120.912 135.867 120.609 135.841 120.301C135.778 119.647 135.888 118.973 135.909 118.314C135.919 118.001 135.914 117.682 135.94 117.363C135.966 117.044 136.06 116.746 136.102 116.438C136.191 115.784 136.134 115.11 136.16 114.457C136.186 113.803 136.264 113.113 136.311 112.434C136.332 112.136 136.301 111.848 136.27 111.556C136.233 111.211 136.254 110.876 136.264 110.531C136.275 110.238 136.264 109.935 136.301 109.648C136.343 109.324 136.432 109.01 136.468 108.686C136.541 108.017 136.458 107.348 136.536 106.674C136.688 105.351 136.583 104.013 136.719 102.685C136.787 102.016 136.813 101.332 136.813 100.657C136.813 100.338 136.782 100.025 136.792 99.706C136.803 99.3871 136.876 99.0526 136.918 98.7233C137.001 98.0699 136.986 97.3904 136.996 96.7318C137.007 96.0732 137.027 95.4198 137.054 94.7664C137.111 93.2715 137.315 91.7713 137.273 90.2712C137.231 88.771 137.409 87.229 137.482 85.7132C137.503 85.2898 137.106 84.9291 136.698 84.9291C136.254 84.9291 135.935 85.2898 135.914 85.7132L135.919 85.7288Z" fill="#699055"/>
<path d="M119.187 87.5888C119.24 87.9599 119.245 88.3415 119.313 88.7126C119.381 89.0837 119.548 89.4444 119.668 89.8103C119.788 90.1762 119.836 90.5264 119.909 90.8871C119.987 91.2739 120.102 91.6554 120.207 92.037C120.41 92.7845 120.651 93.5163 120.787 94.2794C120.923 95.0426 121.038 95.743 121.106 96.4852C121.257 98.0429 121.398 99.5901 121.487 101.153C121.576 102.716 121.55 104.237 121.545 105.774C121.545 106.647 121.508 107.525 121.466 108.398C121.451 108.816 121.398 109.229 121.378 109.642C121.362 110.008 121.357 110.405 121.21 110.75C121.043 111.137 121.095 111.591 121.492 111.821C121.827 112.015 122.397 111.931 122.564 111.539C122.914 110.739 122.914 109.934 122.987 109.077C123.055 108.288 123.066 107.499 123.092 106.704C123.118 105.91 123.082 105.078 123.097 104.268C123.113 103.458 123.134 102.685 123.097 101.895C123.029 100.311 122.904 98.7381 122.737 97.1647C122.569 95.5914 122.381 93.9187 121.911 92.3454C121.655 91.4829 121.472 90.61 121.268 89.7319C121.174 89.3189 120.975 88.9374 120.87 88.5297C120.755 88.0906 120.755 87.6202 120.693 87.1706C120.635 86.7525 120.097 86.5225 119.726 86.6218C119.276 86.7472 119.119 87.1654 119.177 87.5888H119.187Z" fill="#699055"/>
<path d="M223.713 155.007C223.958 154.688 224.225 154.385 224.439 154.056C224.654 153.727 224.779 153.324 224.967 152.979C225.155 152.634 225.411 152.305 225.573 151.95C225.736 151.594 225.851 151.197 225.976 150.82C226.101 150.444 226.258 150.073 226.352 149.686C226.446 149.299 226.504 148.902 226.567 148.51C226.629 148.118 226.687 147.726 226.718 147.324C226.75 146.921 226.708 146.529 226.713 146.127C226.718 145.724 226.655 145.337 226.635 144.935C226.614 144.532 226.64 144.14 226.593 143.743C226.546 143.32 226.42 142.907 226.352 142.489C226.284 142.07 226.19 141.652 226.101 141.239C226.013 140.826 225.96 140.398 225.861 139.985C225.762 139.572 225.673 139.154 225.558 138.741C225.443 138.328 225.343 137.915 225.218 137.507C225.093 137.099 224.852 136.728 224.721 136.326C224.591 135.923 224.455 135.516 224.319 135.113C224.183 134.711 224.136 134.277 223.995 133.874C223.875 133.519 223.66 133.19 223.53 132.834C223.399 132.479 223.274 132.118 223.122 131.778C222.97 131.439 222.892 131.036 222.699 130.717C222.505 130.398 222.197 130.142 221.946 129.855C221.695 129.567 221.434 129.311 221.125 129.081C220.765 128.815 220.399 128.626 220.038 128.443C219.641 128.24 219.291 127.994 218.899 127.889C218.48 127.774 218.052 127.764 217.639 127.748C217.226 127.733 216.782 127.701 216.369 127.774C215.956 127.848 215.553 128.004 215.156 128.156C214.759 128.308 214.372 128.464 213.996 128.673C213.619 128.883 213.253 129.076 212.903 129.322C212.553 129.567 212.276 129.897 211.952 130.163C211.628 130.43 211.262 130.66 210.953 130.947C210.645 131.235 210.41 131.606 210.122 131.904C209.845 132.191 209.5 132.411 209.249 132.714C208.999 133.017 208.847 133.404 208.617 133.723C208.387 134.042 208.089 134.319 207.88 134.653C207.671 134.988 207.556 135.38 207.368 135.725C207.179 136.07 206.949 136.399 206.777 136.754C206.605 137.11 206.474 137.486 206.317 137.847C206.16 138.208 205.93 138.542 205.784 138.908C205.638 139.274 205.496 139.645 205.36 140.016C205.23 140.366 205.167 140.769 205.089 141.161C205.01 141.553 205 141.945 205.005 142.321C205.01 142.734 205.036 143.121 205.188 143.461C205.34 143.801 205.611 144.057 205.982 144.266C206.422 144.511 206.845 144.663 207.305 144.579C207.728 144.501 208.162 144.276 208.601 144.062C209.009 143.868 209.422 143.639 209.84 143.45C210.258 143.262 210.655 143.142 211.1 143.079C210.854 143.361 210.619 143.56 210.394 143.853C210.169 144.146 209.966 144.47 209.756 144.778C209.547 145.086 209.323 145.39 209.129 145.708C208.936 146.027 208.748 146.357 208.575 146.686C208.413 147 208.356 147.376 208.241 147.716C208.126 148.055 208.047 148.395 208.052 148.756C208.063 149.258 208.152 149.791 208.444 150.198C208.737 150.606 209.208 150.904 209.683 151.061C210.159 151.218 210.676 151.129 211.152 150.977C211.628 150.826 212.15 150.622 212.459 150.225C212.187 150.533 211.905 150.862 211.675 151.202C211.445 151.542 211.131 151.84 210.943 152.206C210.755 152.572 210.635 152.979 210.499 153.366C210.363 153.753 210.237 154.15 210.148 154.553C210.054 154.971 209.981 155.436 210.112 155.844C210.237 156.23 210.54 156.555 210.896 156.753C211.251 156.952 211.68 157.062 212.072 157.051C212.464 157.041 212.882 156.931 213.259 156.79C213.635 156.649 213.975 156.387 214.33 156.21C214.011 156.393 213.687 156.607 213.394 156.826C213.102 157.046 212.856 157.318 212.657 157.631C212.459 157.945 212.265 158.29 212.276 158.651C212.286 159.011 212.454 159.403 212.736 159.649C213.097 159.963 213.63 159.989 214.111 159.994C214.529 160.004 214.942 159.957 215.349 159.916C215.757 159.874 216.191 159.895 216.593 159.801C216.996 159.706 217.377 159.513 217.769 159.372C218.162 159.231 218.533 159.053 218.909 158.87C219.285 158.687 219.641 158.483 219.996 158.269C220.352 158.055 220.728 157.872 221.063 157.621C221.397 157.37 221.7 157.088 222.009 156.805C222.317 156.523 222.605 156.23 222.887 155.922C223.169 155.614 223.472 155.326 223.728 155.002L223.713 155.007Z" fill="#EBBEA7"/>
<path d="M218.549 134.273C217.498 135.261 216.505 136.317 215.433 137.284C214.911 137.755 214.461 138.298 213.97 138.805C213.719 139.067 213.452 139.318 213.222 139.6C213.008 139.861 212.82 140.149 212.595 140.405C212.318 140.724 212.281 141.199 212.595 141.513C212.877 141.795 213.426 141.832 213.703 141.513C213.928 141.257 214.116 140.969 214.33 140.708C214.545 140.447 214.801 140.201 215.041 139.95C215.543 139.433 216.003 138.873 216.541 138.387C217.613 137.42 218.606 136.364 219.657 135.376C220.394 134.686 219.286 133.578 218.549 134.268V134.273Z" fill="#A55535"/>
<path d="M220.953 141.621C220.676 141.872 220.414 142.134 220.137 142.385C219.86 142.635 219.573 142.834 219.291 143.059C218.752 143.493 218.198 143.932 217.728 144.439C217.231 144.967 216.661 145.411 216.133 145.908C215.605 146.404 215.025 146.901 214.471 147.397C214.152 147.68 214.184 148.218 214.471 148.505C214.785 148.819 215.26 148.788 215.579 148.505C216.123 148.024 216.672 147.559 217.2 147.057C217.728 146.556 218.329 146.09 218.836 145.547C219.296 145.056 219.829 144.622 220.357 144.204C220.639 143.979 220.937 143.775 221.204 143.534C221.496 143.273 221.773 142.991 222.066 142.729C222.38 142.442 222.354 141.909 222.066 141.621C221.752 141.308 221.272 141.334 220.958 141.621H220.953Z" fill="#A55535"/>
<path d="M220.023 150.394C219.589 150.827 219.155 151.256 218.747 151.711C218.339 152.166 217.885 152.49 217.493 152.918C217.305 153.122 217.106 153.425 216.975 153.598C216.855 153.76 216.594 154.005 216.411 154.188C216.196 154.408 215.993 154.633 215.752 154.821C215.815 154.774 215.726 154.837 215.71 154.852C215.637 154.904 215.569 154.962 215.496 155.014C215.36 155.119 215.224 155.223 215.099 155.349C214.801 155.636 214.79 156.175 215.099 156.457C215.407 156.739 215.893 156.76 216.207 156.457C216.259 156.41 216.306 156.363 216.358 156.316C216.379 156.3 216.505 156.201 216.432 156.258C216.573 156.149 216.719 156.044 216.86 155.934C217.085 155.751 217.284 155.542 217.487 155.333C217.691 155.124 217.911 154.925 218.094 154.695C218.209 154.554 218.313 154.413 218.418 154.267C218.428 154.251 218.538 154.1 218.507 154.141C218.486 154.173 218.601 154.032 218.606 154.026C218.988 153.608 219.453 153.279 219.829 152.855C220.247 152.39 220.692 151.951 221.136 151.502C221.423 151.209 221.45 150.681 221.136 150.394C220.822 150.106 220.336 150.085 220.028 150.394H220.023Z" fill="#A55535"/>
<path d="M214.832 122.887C215.177 122.589 215.517 122.26 215.909 122.025C216.301 121.789 216.73 121.591 217.116 121.329C217.916 120.78 218.763 120.341 219.693 120.049C220.655 119.746 221.601 119.374 222.594 119.176C223.08 119.082 223.582 119.082 224.074 119.014C224.518 118.951 224.967 118.862 225.417 118.914C225.987 118.982 226.546 119.029 227.116 119.071C227.393 119.092 227.665 119.129 227.942 119.139C228.219 119.15 228.485 119.118 228.747 119.16C229.165 119.228 229.588 119.05 229.714 118.611C229.818 118.235 229.588 117.717 229.165 117.644C228.135 117.472 227.063 117.576 226.023 117.43C225.401 117.341 224.868 117.331 224.246 117.414C223.744 117.482 223.242 117.514 222.741 117.576C221.664 117.707 220.645 118.083 219.62 118.423C218.596 118.763 217.576 119.134 216.672 119.735C216.196 120.054 215.71 120.326 215.214 120.613C214.67 120.927 214.2 121.366 213.724 121.779C213.405 122.056 213.442 122.605 213.724 122.887C214.043 123.206 214.513 123.164 214.832 122.887Z" fill="#699055"/>
<path d="M222.86 106.396C221.747 106.543 220.686 107.191 220.027 108.106C219.75 108.487 219.541 108.895 219.243 109.266C218.898 109.695 218.559 110.134 218.219 110.573C217.884 111.001 217.539 111.43 217.184 111.843C216.828 112.256 216.447 112.606 216.165 113.071C215.626 113.95 214.915 114.713 214.283 115.528C214.022 115.863 213.959 116.312 214.283 116.636C214.555 116.908 215.13 116.971 215.391 116.636C215.71 116.223 216.013 115.8 216.358 115.408C216.703 115.016 217.048 114.645 217.32 114.2C217.566 113.793 217.816 113.463 218.146 113.113C218.475 112.763 218.794 112.355 219.107 111.968C219.421 111.582 219.735 111.158 220.054 110.756C220.372 110.353 220.754 109.946 221.031 109.491C221.271 109.094 221.46 108.79 221.836 108.492C222.123 108.268 222.505 108.006 222.876 107.959C223.294 107.902 223.66 107.64 223.66 107.175C223.66 106.794 223.3 106.334 222.876 106.391L222.86 106.396Z" fill="#699055"/>
<path d="M173.977 79.3619C173.977 79.7331 173.841 80.099 173.664 80.4021C173.486 80.7053 173.219 80.9928 172.911 81.1757C172.602 81.3587 172.237 81.3796 171.865 81.3796C171.494 81.3796 171.128 81.3325 170.83 81.1548C170.533 80.9771 170.235 80.721 170.052 80.4074C169.869 80.0937 169.769 79.7331 169.769 79.3619C169.769 78.9908 169.963 78.6615 170.135 78.3636C170.308 78.0656 170.522 77.752 170.83 77.5743C171.139 77.3966 171.489 77.2816 171.86 77.2816C172.231 77.2816 172.571 77.4384 172.869 77.6161C173.167 77.7938 173.397 78.0656 173.575 78.374C173.752 78.6824 173.972 78.9908 173.972 79.3619H173.977Z" fill="white"/>
<path d="M173.977 88.2172C173.977 88.5883 173.841 88.9542 173.664 89.2574C173.486 89.5605 173.219 89.848 172.911 90.031C172.602 90.2139 172.237 90.2348 171.865 90.2348C171.494 90.2348 171.128 90.1878 170.83 90.0101C170.533 89.8323 170.235 89.5762 170.052 89.2626C169.869 88.949 169.769 88.5883 169.769 88.2172C169.769 87.8461 169.963 87.5168 170.135 87.2188C170.308 86.9209 170.522 86.6073 170.83 86.4295C171.139 86.2518 171.489 86.1368 171.86 86.1368C172.231 86.1368 172.571 86.2936 172.869 86.4713C173.167 86.6491 173.397 86.9209 173.575 87.2293C173.752 87.5377 173.972 87.8461 173.972 88.2172H173.977Z" fill="white"/>
<path d="M173.977 97.0724C173.977 97.4435 173.841 97.8094 173.664 98.1126C173.486 98.4158 173.219 98.7032 172.911 98.8862C172.602 99.0691 172.237 99.09 171.865 99.09C171.494 99.09 171.128 99.043 170.83 98.8653C170.533 98.6876 170.235 98.4314 170.052 98.1178C169.869 97.8042 169.769 97.4435 169.769 97.0724C169.769 96.7013 169.963 96.372 170.135 96.074C170.308 95.7761 170.522 95.4625 170.83 95.2847C171.139 95.107 171.489 94.992 171.86 94.992C172.231 94.992 172.571 95.1488 172.869 95.3266C173.167 95.5043 173.397 95.7761 173.575 96.0845C173.752 96.3929 173.972 96.7013 173.972 97.0724H173.977Z" fill="white"/>
<path d="M174.155 67.5646C174.155 67.5646 174.192 67.6535 174.202 67.6587C173.815 67.9044 173.408 68.0926 173.084 68.3853C172.759 68.678 172.514 69.07 172.216 69.3941C171.918 69.7182 171.557 69.9952 171.259 70.3193C170.961 70.6434 170.637 70.9361 170.308 71.2392C169.979 71.5424 169.717 71.9031 169.331 72.1487C168.97 72.3735 168.526 72.4676 168.086 72.6296C167.71 72.7708 167.349 72.9485 166.963 73.0373C166.576 73.1262 166.179 73.1889 165.781 73.2308C165.384 73.2726 164.987 73.3719 164.584 73.3667C164.182 73.3614 163.79 73.2412 163.393 73.1889C162.995 73.1367 162.588 73.1367 162.201 73.0373C161.814 72.938 161.432 72.8021 161.061 72.6558C160.664 72.499 160.293 72.2742 159.932 72.0494C159.572 71.8247 159.263 71.5267 158.976 71.2131C158.746 70.9622 158.578 70.6695 158.406 70.3768C158.234 70.0841 158.066 69.7914 157.941 69.4725C157.789 69.0909 157.627 68.7094 157.528 68.3121C157.429 67.9148 157.402 67.5019 157.35 67.089C157.298 66.676 157.298 66.2735 157.303 65.8606C157.308 65.4477 157.23 65.0295 157.287 64.6218C157.345 64.2141 157.491 63.8221 157.596 63.4248C157.721 62.9439 157.847 62.5153 157.983 62.1389C158.166 61.6476 158.385 61.2765 158.652 60.9994C158.96 60.6858 159.321 60.5186 159.838 60.5395C160.199 60.5552 160.617 60.6649 161.129 60.8635C161.511 61.0151 161.903 61.1197 162.279 61.2817C162.656 61.4437 163.016 61.6319 163.387 61.7992C163.758 61.9665 164.156 62.0814 164.522 62.2592C164.888 62.4369 165.217 62.693 165.578 62.876C165.938 63.0589 166.294 63.2628 166.654 63.4509C167.015 63.6391 167.355 63.8639 167.715 64.0573C168.076 64.2507 168.473 64.3657 168.829 64.5643C169.184 64.7629 169.529 64.9772 169.885 65.1759C170.24 65.3745 170.606 65.5522 170.961 65.7561C171.317 65.9599 171.615 66.2526 171.97 66.4513C172.326 66.6499 172.749 66.7335 173.104 66.9322C173.46 67.1308 173.8 67.3608 174.155 67.5594V67.5646Z" fill="white"/>
<path d="M168.667 67.5541C168.667 67.5541 168.641 67.643 168.63 67.6482C169.017 67.8939 169.425 68.0873 169.749 68.3748C170.073 68.6623 170.318 69.0648 170.616 69.3888C170.914 69.7129 171.249 70.0109 171.547 70.3349C171.845 70.659 172.19 70.9308 172.524 71.2288C172.859 71.5267 173.146 71.8455 173.528 72.0912C173.889 72.316 174.291 72.4937 174.725 72.6557C175.101 72.7969 175.483 72.8962 175.87 72.9903C176.256 73.0844 176.638 73.2255 177.035 73.2673C177.432 73.3091 177.835 73.2516 178.237 73.2516C178.64 73.2516 179.037 73.2621 179.434 73.2098C179.832 73.1575 180.208 73.0112 180.595 72.9119C180.982 72.8126 181.363 72.708 181.734 72.5564C182.132 72.3996 182.503 72.2062 182.863 71.9815C183.224 71.7567 183.632 71.5737 183.919 71.2549C184.149 71.004 184.322 70.6956 184.494 70.3977C184.667 70.0997 184.75 69.7652 184.876 69.4516C185.027 69.07 185.179 68.6884 185.278 68.2912C185.378 67.8939 185.508 67.4966 185.555 67.0837C185.602 66.6708 185.566 66.2578 185.566 65.8449C185.566 65.432 185.545 65.019 185.493 64.6113C185.44 64.2036 185.336 63.8063 185.226 63.4091C185.101 62.9282 184.965 62.5048 184.824 62.1337C184.641 61.6423 184.416 61.2817 184.149 61.0099C183.841 60.6963 183.501 60.4349 182.978 60.4558C182.618 60.4715 182.163 60.5603 181.656 60.759C181.274 60.9106 180.919 61.1092 180.543 61.2712C180.166 61.4333 179.779 61.5639 179.408 61.7364C179.037 61.9089 178.671 62.0866 178.305 62.2644C177.94 62.4421 177.574 62.625 177.213 62.8132C176.852 63.0014 176.513 63.2366 176.157 63.4248C175.802 63.6129 175.446 63.8168 175.086 64.0154C174.725 64.2141 174.375 64.4179 174.019 64.6165C173.664 64.8152 173.303 65.0033 172.948 65.202C172.592 65.4006 172.221 65.5679 171.866 65.7717C171.51 65.9756 171.15 66.1585 170.794 66.3571C170.439 66.5558 170.141 66.8589 169.785 67.0576C169.43 67.2562 169.017 67.3555 168.661 67.5541H168.667Z" fill="white"/>
<path d="M87.5005 37.0003L90.3872 32.0003H84.6137L87.5005 37.0003ZM87.0005 22.0003V32.5003H88.0005V22.0003H87.0005Z" fill="white"/>
<path d="M124 22.0003L121.114 27.0003H126.887L124 22.0003ZM123.5 26.5003V37.0003H124.5V26.5003H123.5Z" fill="white"/>
</g>
<defs>
<clipPath id="clip0_524_6103">
<rect width="225" height="162" fill="white" transform="translate(47.5)"/>
</clipPath>
</defs>
</svg>
