<svg width="320" height="162" viewBox="0 0 320 162" fill="none" xmlns="http://www.w3.org/2000/svg">
<path d="M265.093 21.8203H54.9068C50.8161 21.8203 47.5 24.6618 47.5 28.167V155.653C47.5 159.158 50.8161 162 54.9068 162H265.093C269.184 162 272.5 159.158 272.5 155.653V28.167C272.5 24.6618 269.184 21.8203 265.093 21.8203Z" fill="#EDE6DF"/>
<path d="M221.472 132.994C221.546 133.583 221.522 134.213 221.495 134.809C221.468 135.405 221.247 136.007 221.06 136.576C220.873 137.146 220.587 137.671 220.294 138.204C220.001 138.737 219.713 139.243 219.332 139.723C218.952 140.203 218.604 140.716 218.21 141.186C217.762 141.721 217.294 142.243 216.818 142.758C216.429 143.186 216.067 143.618 215.622 143.996C215.378 144.202 215.141 144.412 214.931 144.656C214.755 144.863 214.594 145.085 214.388 145.267C214.116 145.51 213.842 145.763 213.547 145.984C213.251 146.205 212.934 146.353 212.647 146.571C212.02 147.041 211.415 147.529 210.772 147.97C210.001 148.499 210.837 149.648 211.612 149.117C212.21 148.708 212.783 148.273 213.351 147.824C213.595 147.632 213.858 147.474 214.122 147.31C214.43 147.12 214.693 146.881 214.963 146.649C215.218 146.429 215.48 146.215 215.703 145.965C215.903 145.739 216.074 145.489 216.298 145.285C216.795 144.827 217.277 144.396 217.719 143.888C218.162 143.38 218.644 142.868 219.095 142.341C219.546 141.815 219.929 141.274 220.345 140.735C220.761 140.197 221.129 139.656 221.454 139.056C221.779 138.455 222.107 137.904 222.329 137.276C222.568 136.596 222.841 135.869 222.915 135.15C222.955 134.771 222.944 134.392 222.947 134.011C222.951 133.631 222.969 133.236 222.919 132.85C222.869 132.465 222.543 132.172 222.137 132.207C221.757 132.242 221.424 132.598 221.469 132.985L221.472 132.994Z" fill="#D3CAC2"/>
<path d="M223.088 143.372C222.882 143.625 222.703 143.894 222.505 144.154C222.281 144.444 222.029 144.7 221.783 144.968C221.341 145.45 220.999 146.007 220.569 146.505C220.116 147.027 219.615 147.501 219.152 148.011C218.932 148.254 218.742 148.522 218.513 148.754C218.283 148.986 217.979 149.169 217.718 149.387C217.177 149.851 216.637 150.335 216.135 150.834C215.659 151.309 215.022 151.556 214.513 151.998C214.005 152.439 213.447 152.747 212.832 153.057C212.541 153.205 212.233 153.325 211.939 153.465C211.608 153.618 211.291 153.796 210.955 153.936C210.552 154.106 210.133 154.231 209.716 154.361C209.373 154.469 209.022 154.609 208.668 154.675C208.315 154.741 207.923 154.715 207.552 154.762C207.153 154.814 206.767 154.932 206.362 154.956C205.425 155.012 205.545 156.432 206.475 156.374C206.845 156.353 207.194 156.248 207.557 156.194C207.92 156.14 208.287 156.155 208.647 156.107C209.367 156.011 210.093 155.736 210.783 155.505C211.473 155.274 212.146 154.913 212.834 154.606C213.522 154.3 214.202 153.987 214.804 153.586C215.094 153.393 215.329 153.134 215.608 152.924C215.899 152.705 216.233 152.545 216.535 152.342C216.837 152.139 217.107 151.862 217.368 151.603C217.604 151.364 217.867 151.15 218.119 150.925C218.668 150.438 219.299 150.022 219.777 149.47C220.006 149.209 220.216 148.939 220.456 148.693C220.723 148.422 221.002 148.157 221.254 147.876C221.507 147.595 221.785 147.285 222.034 146.98C222.253 146.707 222.43 146.404 222.649 146.131C222.903 145.824 223.194 145.549 223.449 145.248C223.719 144.93 223.945 144.578 224.208 144.254C224.793 143.531 223.677 142.633 223.094 143.36L223.088 143.372Z" fill="#D3CAC2"/>
<path d="M128.068 47.9296C127.832 47.3853 127.678 46.7736 127.537 46.1942C127.396 45.6148 127.439 44.9747 127.458 44.3758C127.478 43.7769 127.605 43.1924 127.737 42.5983C127.869 42.0042 128.003 41.4377 128.234 40.8705C128.464 40.3033 128.654 39.7134 128.9 39.1518C129.18 38.5125 129.483 37.8798 129.795 37.2517C130.049 36.732 130.275 36.2154 130.596 35.7286C130.772 35.4616 130.941 35.1938 131.073 34.9005C131.185 34.6522 131.277 34.3946 131.424 34.1613C131.617 33.8522 131.808 33.5326 132.03 33.2376C132.251 32.9426 132.514 32.7112 132.728 32.422C133.198 31.7945 133.642 31.1567 134.136 30.5529C134.727 29.8289 133.603 28.9608 133.008 29.6877C132.548 30.2482 132.12 30.8267 131.701 31.4165C131.52 31.6692 131.313 31.8943 131.105 32.1262C130.864 32.3947 130.678 32.698 130.483 32.9966C130.301 33.2798 130.11 33.5583 129.966 33.8603C129.837 34.1336 129.743 34.4218 129.585 34.6809C129.236 35.2597 128.895 35.8087 128.613 36.4203C128.331 37.0319 128.012 37.6591 127.727 38.2908C127.441 38.9225 127.225 39.5498 126.978 40.183C126.73 40.8163 126.528 41.4387 126.384 42.1064C126.241 42.7741 126.081 43.3952 126.044 44.0601C126.005 44.7795 125.948 45.5544 126.078 46.2657C126.146 46.6404 126.263 47.0013 126.367 47.3671C126.47 47.7329 126.563 48.1179 126.719 48.4737C126.876 48.8295 127.271 49.0191 127.651 48.8717C128.006 48.7312 128.226 48.2959 128.073 47.9371L128.068 47.9296Z" fill="#D3CAC2"/>
<path d="M123.605 38.4221C123.732 38.1212 123.829 37.8129 123.946 37.5073C124.079 37.1662 124.249 36.8506 124.41 36.5237C124.699 35.9368 124.871 35.3071 125.144 34.708C125.432 34.0801 125.78 33.4842 126.081 32.8648C126.224 32.5695 126.331 32.2592 126.487 31.9724C126.642 31.6855 126.882 31.4238 127.071 31.1415C127.461 30.5442 127.843 29.9289 128.185 29.3082C128.508 28.7192 129.051 28.3031 129.415 27.7366C129.779 27.1702 130.228 26.7176 130.731 26.2484C130.969 26.0239 131.231 25.823 131.474 25.6061C131.749 25.3661 132.003 25.1061 132.286 24.8774C132.625 24.6015 132.992 24.3635 133.356 24.1217C133.655 23.9225 133.953 23.6889 134.274 23.5267C134.594 23.3646 134.978 23.2792 135.321 23.1302C135.689 22.9677 136.026 22.7462 136.408 22.6093C137.292 22.2934 136.779 20.9637 135.902 21.2805C135.553 21.4047 135.247 21.603 134.914 21.7567C134.581 21.9104 134.224 21.9993 133.892 22.1463C133.228 22.4402 132.609 22.9076 132.011 23.3232C131.414 23.7389 130.869 24.2744 130.295 24.7614C129.72 25.2485 129.155 25.7402 128.69 26.2932C128.466 26.5605 128.313 26.875 128.104 27.1547C127.887 27.4468 127.611 27.6936 127.378 27.9734C127.145 28.2532 126.964 28.5947 126.786 28.9161C126.626 29.2125 126.434 29.491 126.255 29.778C125.865 30.3991 125.376 30.9762 125.071 31.6395C124.925 31.9549 124.8 32.273 124.638 32.5761C124.458 32.9109 124.265 33.2439 124.101 33.5842C123.937 33.9246 123.758 34.3004 123.604 34.6627C123.471 34.9865 123.386 35.3272 123.252 35.6511C123.095 36.0162 122.893 36.3617 122.732 36.723C122.562 37.1035 122.444 37.5046 122.283 37.8899C121.924 38.7475 123.247 39.2969 123.603 38.4355L123.605 38.4221Z" fill="#D3CAC2"/>
<path d="M104.068 138.335C102.922 139.489 101.674 141.138 102.077 142.952C102.304 143.957 103.01 144.65 103.715 145.161C110.62 150.19 119.314 144.353 127.076 146.332C130.566 147.222 133.704 149.663 137.144 150.817C141.365 152.219 145.812 151.625 150.109 150.718C156.157 149.448 162.13 147.585 168.102 145.738C174.112 143.875 180.677 141.534 184.205 134.872C182.693 131.64 179.379 130.98 176.494 130.634C163.881 129.183 151.268 127.732 138.656 126.281C126.61 124.896 113.758 128.589 104.068 138.351V138.335Z" fill="#C6D5E4"/>
<path d="M74.1414 142.454C72.4278 143.213 70.5252 144.697 70.5 147.055C70.4748 149.561 72.6924 151.161 74.6076 151.045C76.5228 150.946 78.2994 149.776 80.1895 149.413C82.5079 148.968 84.8389 149.726 87.1069 150.518C89.3623 151.293 91.6933 152.101 94.0118 151.721C96.3302 151.342 98.6738 149.495 99.3164 146.544C99.4676 145.851 99.5054 145.06 99.203 144.466C98.9762 144.021 98.5982 143.774 98.2328 143.543C94.4024 141.135 90.1057 140.129 85.8721 140.542C81.8905 140.937 77.9718 140.739 74.1288 142.438L74.1414 142.454Z" fill="#C6D5E4"/>
<path d="M253.068 103.688C253.628 113.569 243.306 114.339 231.263 114.339C219.22 114.339 207.502 112.584 209.457 103.688C210.721 97.9404 219.22 93.0369 231.263 93.0369C243.306 93.0369 252.736 97.8163 253.068 103.688Z" fill="#D0D1D3"/>
<path d="M229.312 44.2358C214.039 44.2358 201.14 51.1956 201.14 62.8736C201.14 71.0449 207.457 79.3642 216.484 83.6215V95.202C216.484 102.542 222.777 108.492 230.54 108.492H232.86C240.623 108.492 246.916 102.542 246.916 95.202V83.6013C246.916 82.8441 246.845 82.1575 246.717 81.5282C252.519 77.6378 256.259 71.8324 256.968 65.3842C258.37 52.572 244.585 44.2392 229.312 44.2392V44.2358Z" fill="#D0D1D3"/>
<path d="M265.806 22.715C264.197 48.05 260.284 57.3442 245.403 51.1433C228.827 44.2324 225 38.4169 225 22.715C225 7.01302 230.279 -0.0542135 245.403 1.12673C264.518 2.61808 266.804 7.0487 265.806 22.715Z" fill="#D0D1D3"/>
<path d="M225.522 71.9475C242.932 71.9475 257.045 66.3455 257.045 59.4351C257.045 52.5247 242.932 46.9227 225.522 46.9227C208.113 46.9227 194 52.5247 194 59.4351C194 66.3455 208.113 71.9475 225.522 71.9475Z" fill="#B7B7B7"/>
<path d="M227.789 41.9978C226.709 41.5794 225.498 42.1183 225.08 43.1997C224.662 44.2811 225.2 45.4937 226.28 45.9121L245.37 53.3011C245.639 52.053 246.099 50.6738 246.875 49.3868L227.789 41.9978Z" fill="#B9C3C6"/>
<path d="M252.839 51.6918L246.876 49.3837C246.101 50.6707 245.64 52.0499 245.371 53.298L251.331 55.6062C252.411 56.0246 253.622 55.4856 254.04 54.4042C254.458 53.3228 253.919 52.1102 252.839 51.6918Z" fill="#A4A5A5"/>
<path d="M244.924 57.2593C245.09 61.1027 236.538 64.5951 225.823 65.056C215.108 65.5169 206.287 62.7762 206.124 58.9328C205.958 55.0894 214.51 51.597 225.225 51.136C235.94 50.6751 244.761 53.4158 244.924 57.2593Z" fill="white"/>
<g clip-path="url(#clip0_4632_16059)">
<path d="M201.327 39.0613C201.366 39.0265 201.437 39.028 201.473 38.9911C201.679 38.8016 201.854 38.5807 202.074 38.4071C202.294 38.2336 202.516 38.0574 202.747 37.9072C202.979 37.757 203.225 37.6105 203.478 37.4877C203.731 37.3649 203.999 37.2822 204.267 37.1946C204.537 37.1093 204.807 37.0143 205.085 36.9672C205.364 36.9201 205.646 36.8994 205.93 36.8883C206.213 36.8773 206.495 36.8785 206.775 36.892C207.056 36.9055 207.329 37.0119 207.608 37.0474C207.888 37.0828 208.165 37.1208 208.441 37.1711C208.705 37.22 208.985 37.1971 209.247 37.2582C209.509 37.3194 209.76 37.4252 210.019 37.4964C210.277 37.5676 210.525 37.6761 210.782 37.7596C211.039 37.843 211.313 37.8692 211.568 37.9601C211.822 38.0511 212.077 38.1372 212.325 38.2408C212.574 38.3444 212.812 38.4707 213.056 38.5843C213.3 38.698 213.519 38.8623 213.759 38.9812C213.999 39.1001 214.252 39.1985 214.486 39.33C214.719 39.4616 214.966 39.5726 215.195 39.7142C215.425 39.8558 215.645 40.0079 215.871 40.1547C216.096 40.3015 216.296 40.4819 216.515 40.6414C216.734 40.8009 216.95 40.9582 217.162 41.1207C217.373 41.2832 217.623 41.4062 217.828 41.5765C218.033 41.7469 218.214 41.9508 218.417 42.1286C218.62 42.3064 218.803 42.5028 218.997 42.6862C219.191 42.8697 219.376 43.0684 219.563 43.2596C219.753 43.4531 219.997 43.5983 220.175 43.8C220.354 44.0017 220.496 44.2404 220.667 44.4499C220.839 44.6595 221.045 44.8443 221.203 45.0647C221.361 45.2851 221.507 45.5186 221.646 45.7502C221.786 45.9818 221.846 46.2588 221.971 46.5013C222.103 46.7627 222.239 47.0189 222.362 47.2859C222.484 47.5529 222.616 47.8143 222.764 48.0671C222.935 48.3618 223.175 48.607 223.38 48.877C223.585 49.147 223.765 49.436 223.975 49.7007C224.142 49.9107 224.336 50.0989 224.496 50.3167C224.656 50.5345 224.83 50.7414 224.983 50.9622C225.136 51.183 225.271 51.4198 225.417 51.6436C225.563 51.8674 225.7 52.1016 225.834 52.3337C225.968 52.5657 226.084 52.809 226.212 53.0488C226.34 53.2887 226.446 53.5328 226.564 53.7734C226.682 54.0141 226.8 54.2547 226.906 54.5036C227.013 54.7525 227.077 55.0146 227.171 55.2669C227.266 55.5192 227.439 55.7432 227.521 55.9989C227.604 56.2546 227.625 56.53 227.694 56.7917C227.763 57.0534 227.824 57.3133 227.878 57.5762C227.932 57.8391 227.977 58.1028 228.014 58.3695C228.052 58.6362 228.12 58.8979 228.143 59.1658C228.166 59.4337 228.163 59.7061 228.169 59.973C228.174 60.2398 228.142 60.5099 228.131 60.7805C228.12 61.0512 228.18 61.3233 228.152 61.593C228.124 61.8626 228.008 62.12 227.962 62.3838C227.917 62.6475 227.882 62.9153 227.819 63.1781C227.757 63.4408 227.702 63.7053 227.622 63.9622C227.542 64.2191 227.45 64.4745 227.35 64.7233C227.25 64.9721 227.097 65.1985 226.975 65.4418C226.853 65.6851 226.755 65.9361 226.617 66.1662C226.469 66.4141 226.284 66.6309 226.119 66.8559C225.954 67.0808 225.772 67.3048 225.584 67.5146C225.396 67.7244 225.206 67.9368 224.997 68.1289C224.788 68.321 224.56 68.4879 224.338 68.6641C224.116 68.8402 223.937 69.0712 223.702 69.2363C223.467 69.4014 223.197 69.5012 222.959 69.6544C222.72 69.8076 222.501 69.9908 222.257 70.1347C222.013 70.2787 221.752 70.3948 221.506 70.5365C221.259 70.6782 221.015 70.8173 220.765 70.9568C220.516 71.0963 220.274 71.2377 220.028 71.3794C219.781 71.5211 219.534 71.6628 219.29 71.8067C219.046 71.9507 218.794 72.0831 218.556 72.2363C218.317 72.3895 218.082 72.5498 217.849 72.7122C217.616 72.8747 217.399 73.0601 217.177 73.2363C216.955 73.4125 216.722 73.5433 216.493 73.6909C216.264 73.8385 216.043 74.0024 215.801 74.134C215.558 74.2657 215.309 74.3736 215.06 74.4912C214.812 74.6087 214.583 74.7612 214.329 74.8695C214.075 74.9778 213.828 75.0879 213.571 75.1891C213.314 75.2904 213.049 75.3534 212.792 75.4498C212.534 75.5462 212.27 75.6141 212.013 75.7153C211.756 75.8166 211.513 75.9434 211.261 76.0491C211.009 76.1548 210.741 76.2327 210.494 76.3476C210.248 76.4626 210.018 76.6224 209.777 76.7515C209.537 76.8805 209.302 77.0237 209.068 77.1716C208.834 77.3196 208.61 77.4716 208.39 77.6404C208.17 77.8091 207.999 78.0151 207.792 78.2046C207.604 78.378 207.371 78.5088 207.178 78.6826C206.985 78.8564 206.791 79.0254 206.581 79.1762C206.372 79.327 206.18 79.5201 205.94 79.6224C205.7 79.7247 205.432 79.7443 205.175 79.7507C204.918 79.7572 204.67 79.6632 204.439 79.5655C204.208 79.4678 203.972 79.3972 203.829 79.1756C203.621 79.3506 203.376 79.3853 203.125 79.4642C202.873 79.5431 202.614 79.647 202.346 79.6397C202.078 79.6325 201.817 79.5446 201.567 79.4629C201.318 79.3813 201.061 79.2929 200.832 79.1562C200.603 79.0194 200.374 78.8778 200.171 78.7048C199.968 78.5319 199.781 78.3358 199.6 78.1415C199.418 77.945 199.225 77.7397 199.049 77.5134C198.874 77.2872 198.722 77.0712 198.56 76.8341C198.399 76.597 198.306 76.3421 198.161 76.1012C198.017 75.8603 197.838 75.649 197.707 75.4021C197.576 75.1552 197.511 74.8786 197.393 74.6282C197.274 74.3779 197.155 74.1276 197.05 73.8713C196.946 73.6149 196.845 73.3534 196.757 73.0932C196.669 72.8331 196.526 72.5799 196.452 72.3138C196.378 72.0477 196.371 71.7566 196.314 71.4867C196.256 71.2167 196.237 70.934 196.204 70.662C196.171 70.3901 196.096 70.1095 196.087 69.8356C196.079 69.5617 196.129 69.2756 196.153 69.0064C196.176 68.7152 196.142 68.4191 196.165 68.128C196.189 67.8368 196.238 67.5485 196.261 67.2573C196.285 66.9662 196.299 66.6758 196.323 66.3846C196.347 66.0935 196.325 65.7988 196.348 65.5077C196.372 65.2165 196.437 64.8831 196.46 64.592C196.802 64.5858 196.759 64.8057 197.071 64.9454C197.382 65.0851 197.38 65.0878 197.692 65.2275C198.004 65.3672 197.989 65.4487 198.33 65.4329C198.367 65.1212 198.392 64.8542 198.429 64.5425C198.466 64.2308 198.476 63.9189 198.52 63.6091C198.559 63.3483 198.668 63.0988 198.734 62.8431C198.799 62.5874 198.855 62.3277 198.923 62.0742C198.991 61.8207 199.071 61.5639 199.114 61.3075C199.158 61.0512 199.178 60.7846 199.163 60.5185C199.147 60.2525 199.067 60.0209 198.976 59.7586C198.879 59.4821 198.781 59.2131 198.664 58.9554C198.547 58.6976 198.485 58.3965 198.356 58.1421C198.228 57.8878 198.068 57.6384 197.934 57.3844C197.8 57.1305 197.608 56.9032 197.484 56.6436C197.359 56.384 197.232 56.1222 197.124 55.854C197.016 55.5858 196.97 55.298 196.89 55.0177C196.81 54.7375 196.755 54.4649 196.714 54.1718C196.675 53.8955 196.61 53.6092 196.609 53.3104C196.606 52.9922 196.698 52.6955 196.729 52.4062C196.763 52.0971 196.762 51.7934 196.82 51.4995C196.877 51.2056 196.972 50.9159 197.043 50.616C197.115 50.316 197.208 50.0387 197.272 49.7321C197.327 49.4723 197.358 49.2049 197.384 48.9427C197.41 48.6806 197.409 48.4133 197.42 48.1475C197.431 47.8817 197.458 47.6195 197.469 47.3537C197.48 47.0878 197.418 46.8183 197.444 46.5561C197.47 46.2939 197.602 46.045 197.657 45.7853C197.718 45.5032 197.725 45.211 197.803 44.9348C197.882 44.6586 197.99 44.3897 198.086 44.1194C198.182 43.8491 198.237 43.5578 198.35 43.2933C198.464 43.0288 198.62 42.7827 198.75 42.5241C198.881 42.2655 199.038 42.0243 199.184 41.779C199.33 41.5337 199.435 41.2529 199.597 41.016C199.758 40.7792 199.989 40.5878 200.169 40.3616C200.348 40.1355 200.486 39.8739 200.681 39.6611C200.876 39.4482 201.1 39.2598 201.308 39.0629L201.327 39.0613Z" fill="#97928C"/>
<path d="M190.853 67.6589C190.687 67.8646 190.478 68.0299 190.304 68.2289C190.13 68.4278 189.95 68.6175 189.773 68.8095C189.596 69.0014 189.474 69.2496 189.289 69.4397C189.104 69.6298 188.901 69.7947 188.711 69.9804C188.521 70.166 188.323 70.3354 188.13 70.514C187.937 70.6926 187.779 70.9097 187.581 71.0839C187.383 71.2581 187.163 71.4049 186.96 71.5747C186.757 71.7444 186.519 71.866 186.312 72.0287C186.106 72.1914 185.9 72.3541 185.689 72.5124C185.477 72.6707 185.26 72.8149 185.046 72.9661C184.88 73.0817 184.674 73.2493 184.645 73.4412C184.616 73.6332 184.778 73.8167 184.902 73.9499C185.098 74.1527 185.302 74.345 185.499 74.5451C185.697 74.7452 185.883 74.9584 186.083 75.1559C186.283 75.3534 186.488 75.5505 186.692 75.7428C186.896 75.9351 187.152 76.0721 187.363 76.2614C187.574 76.4506 187.749 76.6721 187.963 76.8587C188.176 77.0454 188.425 77.1854 188.638 77.3672C188.851 77.5491 189.058 77.7436 189.276 77.9202C189.493 78.0968 189.711 78.2782 189.931 78.4522C190.151 78.6262 190.367 78.8102 190.591 78.979C190.815 79.1478 191.038 79.324 191.267 79.4875C191.495 79.6511 191.768 79.7527 191.999 79.9136C192.23 80.0745 192.441 80.2638 192.674 80.4221C192.908 80.5804 193.147 80.7261 193.385 80.8792C193.622 81.0323 193.866 81.1727 194.106 81.3183C194.18 81.3633 194.247 81.3894 194.334 81.3823C194.477 81.3682 194.59 81.2665 194.668 81.1386C194.817 80.9004 195.005 80.6857 195.157 80.4497C195.309 80.2137 195.402 79.9363 195.559 79.7047C195.716 79.4731 195.929 79.2758 196.091 79.0438C196.253 78.8118 196.421 78.589 196.585 78.3593C196.75 78.1295 196.902 77.8934 197.069 77.6659C197.236 77.4383 197.362 77.1801 197.53 76.9574C197.697 76.7347 197.862 76.5 198.037 76.2791C198.212 76.0582 198.456 75.8924 198.634 75.6737C198.812 75.455 198.966 75.2163 199.146 74.9998C199.326 74.7834 199.491 74.5536 199.673 74.3393C199.856 74.1251 200.06 73.9286 200.248 73.7187C200.436 73.5089 200.598 73.2769 200.786 73.0671C200.974 72.8573 201.201 72.6855 201.394 72.4802" fill="#EBBEA7"/>
<path d="M188.293 53.0193C188.176 53.2768 188.083 53.5445 187.971 53.8015C187.86 54.0585 187.706 54.302 187.597 54.5612C187.488 54.8205 187.384 55.0842 187.283 55.3452C187.181 55.6063 187.121 55.8883 187.024 56.149C186.927 56.4097 186.752 56.6525 186.665 56.9172C186.578 57.1819 186.562 57.4749 186.485 57.7437C186.409 58.0124 186.335 58.2834 186.271 58.5584C186.207 58.8334 186.086 59.096 186.039 59.3721C185.992 59.6481 186 59.9343 185.968 60.214C185.936 60.4936 185.879 60.7705 185.872 61.053C185.864 61.3355 185.9 61.6145 185.907 61.8958C185.914 62.1772 185.877 62.4573 185.909 62.7415C185.94 63.0257 186.031 63.288 186.084 63.568C186.13 63.8243 186.15 64.0851 186.213 64.3376C186.277 64.59 186.361 64.8383 186.438 65.0847C186.516 65.3311 186.635 65.5643 186.729 65.807C186.823 66.0496 186.863 66.3137 186.966 66.5507C187.069 66.7877 187.245 66.992 187.365 67.2204C187.484 67.4488 187.62 67.6685 187.754 67.8909C187.888 68.1133 187.959 68.3772 188.104 68.5913C188.249 68.8055 188.473 68.9646 188.632 69.1679C188.791 69.3711 188.917 69.6013 189.088 69.7964C189.282 70.0211 189.469 70.2391 189.678 70.4261C189.887 70.6132 190.153 70.7591 190.378 70.9327C190.602 71.1063 190.825 71.2921 191.053 71.468C191.28 71.6438 191.527 71.7912 191.748 71.9797C191.956 72.1571 192.123 72.3767 192.32 72.5623C192.516 72.748 192.702 72.9515 192.896 73.1397C193.09 73.328 193.336 73.4658 193.535 73.6488C193.734 73.8318 193.897 74.0566 194.109 74.2288C194.321 74.401 194.525 74.5836 194.753 74.7327C194.983 74.8839 195.256 74.9684 195.491 75.1097C195.725 75.2509 195.964 75.3868 196.207 75.5176C196.45 75.6484 196.655 75.8503 196.9 75.9688C197.145 76.0873 197.43 76.1368 197.681 76.2426C197.932 76.3484 198.191 76.4512 198.446 76.547C198.701 76.6428 198.966 76.7158 199.232 76.7937C199.498 76.8715 199.759 76.945 200.026 77.0057C200.293 77.0665 200.555 77.1592 200.828 77.2025C201.101 77.2458 201.372 77.2916 201.646 77.3178C201.92 77.344 202.195 77.353 202.47 77.3572C202.745 77.3615 203.019 77.3608 203.298 77.3454C203.576 77.3299 203.842 77.2862 204.119 77.2514C204.395 77.2165 204.659 77.1658 204.931 77.1095C205.204 77.0531 205.473 77.0068 205.739 76.9315C206.005 76.8563 206.26 76.7576 206.522 76.6608C206.784 76.564 207.042 76.504 207.295 76.408C207.547 76.3119 207.806 76.2252 208.056 76.1269C208.306 76.0287 208.551 75.8992 208.798 75.7988C209.045 75.6983 209.297 75.583 209.544 75.4777C209.791 75.3724 210.028 75.2315 210.272 75.1191C210.516 75.0068 210.771 74.913 211.014 74.7958C211.258 74.6786 211.516 74.587 211.757 74.4628C211.997 74.3386 212.207 74.1562 212.442 74.0227C212.677 73.8892 212.913 73.7606 213.145 73.62C213.377 73.4795 213.642 73.3946 213.869 73.2496C214.096 73.1046 214.287 72.9019 214.508 72.7428C214.729 72.5837 214.959 72.4458 215.175 72.2823C215.391 72.1188 215.583 71.9305 215.791 71.7556C215.998 71.5806 216.22 71.4263 216.417 71.2425C216.614 71.0586 216.804 70.8681 216.998 70.6773C217.192 70.4864 217.34 70.2604 217.524 70.0606C217.708 69.8608 217.929 69.7018 218.107 69.4927C218.286 69.2837 218.449 69.0759 218.617 68.858C218.788 68.6375 218.929 68.3974 219.087 68.1658C219.244 67.9342 219.444 67.7306 219.587 67.4954C219.729 67.2601 219.871 67.0152 220 66.7689C220.129 66.5226 220.193 66.2427 220.312 65.9923C220.431 65.742 220.585 65.5033 220.687 65.2471C220.789 64.9909 220.828 64.7082 220.915 64.4435C221.001 64.1788 221.15 63.9357 221.227 63.6669C221.304 63.3982 221.383 63.1316 221.444 62.8593C221.506 62.5869 221.531 62.3102 221.578 62.0342C221.625 61.7581 221.66 61.4855 221.694 61.208C221.729 60.9306 221.708 60.6504 221.725 60.3767C221.743 60.1031 221.831 59.8261 221.837 59.5462C221.842 59.2663 221.799 58.9903 221.79 58.7116C221.78 58.4328 221.803 58.1539 221.782 57.8786C221.761 57.6033 221.698 57.3289 221.665 57.0521C221.632 56.7754 221.526 56.5142 221.479 56.2387C221.431 55.9631 221.426 55.684 221.367 55.4118C221.307 55.1396 221.197 54.8837 221.124 54.6175C221.05 54.3514 221.049 54.0622 220.961 53.7972C220.873 53.5323 220.792 53.2691 220.696 53.0072C220.601 52.7452 220.473 52.5005 220.364 52.2446C220.254 51.9887 220.142 51.7353 220.023 51.485C219.905 51.2347 219.739 51.0077 219.611 50.763C219.483 50.5183 219.327 50.2904 219.185 50.0518C219.043 49.8131 218.935 49.5545 218.786 49.3237C218.638 49.0929 218.502 48.8463 218.339 48.6215C218.176 48.3967 218.006 48.1797 217.834 47.9605C217.662 47.7413 217.481 47.5325 217.302 47.3212C217.123 47.1098 216.905 46.9332 216.715 46.7301C216.524 46.527 216.334 46.3287 216.135 46.136C215.938 45.9455 215.743 45.7524 215.538 45.5724C215.332 45.3924 215.117 45.2229 214.903 45.0533C214.688 44.8838 214.502 44.6754 214.278 44.5163C214.055 44.3572 213.807 44.2317 213.577 44.0852C213.347 43.9388 213.105 43.8129 212.866 43.6769C212.627 43.5409 212.389 43.4097 212.143 43.2864C211.898 43.1631 211.66 43.0271 211.411 42.9187C211.162 42.8103 210.902 42.7149 210.647 42.6191C210.392 42.5234 210.124 42.4578 209.865 42.3721C209.606 42.2864 209.343 42.2156 209.08 42.1447C208.817 42.0739 208.549 42.0254 208.282 41.9647C208.015 41.9039 207.752 41.8379 207.479 41.7947C207.206 41.7514 206.944 41.6635 206.672 41.6347C206.4 41.6059 206.122 41.6214 205.849 41.6049C205.576 41.5884 205.303 41.5864 205.029 41.587C204.754 41.5876 204.483 41.5685 204.207 41.5814C203.931 41.5943 203.657 41.5681 203.382 41.5955C203.108 41.6229 202.819 41.6563 202.542 41.6959C202.266 41.7355 201.987 41.8094 201.712 41.8635C201.437 41.9177 201.174 42.0413 200.903 42.1121C200.631 42.1829 200.35 42.223 200.082 42.3057C199.814 42.3884 199.555 42.502 199.293 42.5988C199.031 42.6956 198.746 42.7457 198.487 42.8544C198.228 42.9631 197.996 43.14 197.743 43.2628C197.49 43.3856 197.243 43.5177 196.995 43.6497C196.748 43.7818 196.481 43.8838 196.24 44.03C195.998 44.1761 195.793 44.3753 195.559 44.5329C195.326 44.6905 195.092 44.8433 194.865 45.0102C194.637 45.1771 194.392 45.3162 194.17 45.4924C193.948 45.6686 193.707 45.8147 193.492 45.9975C193.278 46.1804 193.087 46.388 192.876 46.5778C192.665 46.7677 192.49 46.9886 192.286 47.1851C192.083 47.3816 191.842 47.5374 191.644 47.7384C191.463 47.9233 191.333 48.16 191.162 48.3611C190.99 48.5623 190.825 48.7557 190.664 48.9658C190.503 49.1758 190.325 49.3629 190.176 49.5792C190.028 49.7956 189.876 50.0048 189.738 50.23C189.6 50.4552 189.436 50.6582 189.307 50.8874C189.179 51.1167 189.109 51.3728 188.986 51.6064C188.863 51.8401 188.699 52.0479 188.586 52.2856C188.473 52.5233 188.4 52.7772 188.295 53.0167L188.293 53.0193Z" fill="#EBBEA7"/>
<path d="M214.652 78.5759C214.373 78.6085 214.089 78.6464 213.807 78.6452C213.535 78.6431 213.244 78.5892 212.953 78.5304C212.681 78.4749 212.411 78.3706 212.136 78.2716C211.861 78.1726 211.597 78.0873 211.342 77.9551C211.086 77.8229 210.833 77.6881 210.597 77.5276C210.361 77.3671 210.174 77.1394 209.96 76.9527C209.747 76.7661 209.505 76.5963 209.319 76.3879C209.133 76.1796 208.954 75.9366 208.808 75.7032C208.653 75.4534 208.514 75.1998 208.423 74.9375C208.333 74.6751 208.278 74.3758 208.262 74.0953C208.245 73.8147 208.267 73.5261 208.342 73.2429C208.412 72.982 208.558 72.7319 208.718 72.4757C208.861 72.2501 209.026 72.0204 209.245 71.8007C209.423 71.6233 209.65 71.4735 209.867 71.2929C210.063 71.1261 210.241 70.9171 210.464 70.7506C210.673 70.5949 210.889 70.4314 211.115 70.2768C211.341 70.1222 211.55 69.9665 211.785 69.8234C212.019 69.6803 212.276 69.6058 212.514 69.4793C212.752 69.3529 212.985 69.222 213.229 69.1049C213.472 68.9877 213.723 68.8943 213.97 68.7938C214.217 68.6933 214.448 68.5287 214.698 68.4401C214.949 68.3515 215.239 68.3594 215.493 68.2875C215.748 68.2156 216.004 68.1095 216.265 68.0614C216.527 68.0133 216.798 67.9424 217.061 67.9233C217.325 67.9042 217.606 67.9006 217.87 67.913C218.133 67.9255 218.4 68.0227 218.657 68.0794C218.914 68.1361 219.184 68.1943 219.425 68.3009C219.684 68.4182 219.942 68.5526 220.169 68.7236C220.396 68.8945 220.606 69.0961 220.795 69.3115C220.984 69.5269 221.113 69.7861 221.249 70.0374C221.385 70.2888 221.502 70.5465 221.581 70.8219C221.667 71.1163 221.767 71.4143 221.783 71.7168C221.799 72.0192 221.785 72.3364 221.737 72.6392C221.69 72.942 221.544 73.2237 221.445 73.5138C221.346 73.8038 221.282 74.1104 221.137 74.3799C220.993 74.6493 220.769 74.8693 220.586 75.1152C220.403 75.361 220.225 75.6065 220.011 75.8257C219.797 76.045 219.57 76.2483 219.335 76.445C219.1 76.6417 218.87 76.8428 218.616 77.0143C218.38 77.1745 218.128 77.3118 217.88 77.4561C217.631 77.6004 217.364 77.7025 217.106 77.8208C216.848 77.9392 216.588 78.065 216.32 78.1574C216.053 78.2498 215.784 78.3593 215.505 78.4234C215.226 78.4876 214.944 78.5496 214.66 78.5826L214.652 78.5759Z" fill="#EBBEA7"/>
<path d="M217.513 74.3534C217.178 74.1986 216.881 74.0042 216.528 73.897C216.145 73.7825 215.831 73.5871 215.471 73.4197C214.766 73.0935 214.033 72.8473 213.32 72.546C212.71 72.2873 213.151 71.3544 213.756 71.6135C214.469 71.9148 215.205 72.1632 215.908 72.4872C216.23 72.6358 216.514 72.824 216.86 72.9293C217.255 73.05 217.582 73.2517 217.952 73.4231C218.553 73.6971 218.115 74.6322 217.516 74.3557L217.513 74.3534Z" fill="#A55535"/>
<path d="M196.597 56.3565C196.562 56.2452 196.636 56.3898 196.596 56.342C196.553 56.292 196.546 56.2951 196.598 56.3346C196.566 56.308 196.481 56.2664 196.579 56.3094C196.553 56.2969 196.528 56.2844 196.503 56.2719C196.397 56.2222 196.583 56.2774 196.468 56.2601C196.453 56.2565 196.341 56.2511 196.409 56.2504C196.477 56.2497 196.339 56.2585 196.344 56.2581C196.254 56.263 196.362 56.2421 196.318 56.2627C196.284 56.2752 196.249 56.2854 196.216 56.2978C196.128 56.3268 196.243 56.2713 196.204 56.306C196.177 56.3277 196.144 56.345 196.117 56.3667C196.117 56.3667 196.016 56.4527 196.068 56.4022C196.12 56.3518 196.039 56.4362 196.028 56.4493C195.995 56.4885 195.961 56.5276 195.928 56.5668C195.906 56.593 195.886 56.6213 195.866 56.6497C195.772 56.7813 195.911 56.5658 195.829 56.7086C195.748 56.8513 195.655 57.0072 195.602 57.1695C195.624 57.1021 195.599 57.1892 195.594 57.2164C195.585 57.2584 195.578 57.2978 195.571 57.3373C195.567 57.3741 195.563 57.4109 195.558 57.4477C195.55 57.5043 195.553 57.3801 195.56 57.4719C195.566 57.5492 195.569 57.6242 195.58 57.7011C195.601 57.8453 195.557 57.618 195.591 57.7561C195.601 57.7917 195.609 57.83 195.619 57.8656C195.642 57.9391 195.665 58.0126 195.694 58.0831C195.709 58.1183 195.742 58.1739 195.706 58.1112C195.731 58.1505 195.756 58.1898 195.783 58.2313C195.939 58.4495 195.876 58.8022 195.644 58.9475C195.4 59.0963 195.098 59.0457 194.929 58.8116C194.663 58.4446 194.523 57.9189 194.534 57.4684C194.548 56.9156 194.768 56.4309 195.086 55.9844C195.371 55.582 195.813 55.2638 196.316 55.2324C196.853 55.1981 197.398 55.4913 197.571 56.0142C197.656 56.2673 197.521 56.5895 197.255 56.6696C196.989 56.7497 196.693 56.6281 196.602 56.3561L196.597 56.3565Z" fill="#2B2927"/>
<path d="M199.361 63.7394C199.395 64.2422 199.37 64.7716 199.338 65.2724C199.306 65.7733 199.237 66.2698 199.064 66.7409C198.891 67.212 198.7 67.6578 198.491 68.1075C198.258 68.6127 197.979 69.0341 197.618 69.4574C197.331 69.7944 196.811 69.3509 197.098 69.0139C197.261 68.8231 197.428 68.632 197.568 68.4213C197.692 68.2337 197.778 68.0225 197.871 67.818C198.067 67.3888 198.246 66.9635 198.416 66.5218C198.586 66.0801 198.63 65.6342 198.659 65.1895C198.688 64.7448 198.71 64.2496 198.678 63.7929C198.645 63.3363 199.33 63.2972 199.359 63.7372L199.361 63.7394Z" fill="#BC7F6C"/>
<path d="M207.649 63.4422C207.81 63.5797 207.972 63.7172 208.133 63.8547C208.154 63.8724 208.174 63.8901 208.197 63.9053C208.281 63.9446 208.22 63.9204 208.197 63.9053C208.243 63.9259 208.286 63.9587 208.327 63.9845C208.439 64.0483 208.549 64.1147 208.645 64.1967C208.78 64.312 208.807 64.5431 208.682 64.6797C208.556 64.8164 208.347 64.8408 208.199 64.7193C208.178 64.7015 208.157 64.6838 208.134 64.6687C208.111 64.6536 208.038 64.6182 208.124 64.6598C208.081 64.6414 208.043 64.613 208.004 64.5894C207.893 64.5256 207.783 64.4593 207.685 64.3798C207.521 64.245 207.362 64.1049 207.201 63.9674C207.066 63.8521 207.039 63.621 207.164 63.4844C207.29 63.3477 207.501 63.3206 207.647 63.4448L207.649 63.4422Z" fill="#BC7F6C"/>
<path d="M206.596 64.4082C206.843 64.6772 207.103 64.9306 207.347 65.2022C207.413 65.2721 207.457 65.3366 207.467 65.4354C207.473 65.5175 207.442 65.6221 207.384 65.6852C207.326 65.7484 207.24 65.8016 207.15 65.8065C207.066 65.811 206.96 65.7929 206.901 65.7248C206.654 65.4558 206.395 65.2024 206.15 64.9308C206.084 64.8609 206.04 64.7964 206.03 64.6976C206.024 64.6155 206.055 64.5109 206.113 64.4478C206.172 64.3847 206.257 64.3315 206.347 64.3266C206.432 64.3221 206.537 64.3401 206.596 64.4082Z" fill="#BC7F6C"/>
<path d="M215.76 61.5044C215.77 61.4137 215.722 61.318 215.727 61.2277C215.746 60.9637 215.791 60.6999 215.768 60.4369C215.746 60.1738 215.723 59.9108 215.677 59.6497C215.63 59.3886 215.526 59.1419 215.469 58.8816C215.413 58.6214 215.407 58.3545 215.36 58.0934C215.314 57.8323 215.205 57.5812 215.177 57.3186C215.15 57.0559 215.161 56.7853 215.17 56.522C215.179 56.2321 215.278 55.9469 215.358 55.6536C215.438 55.3603 215.503 55.0778 215.599 54.7978C215.694 54.5178 215.82 54.2377 215.896 53.9593C215.98 53.6608 216.006 53.3622 216.009 53.08C216.013 52.7904 216.039 52.4918 216.026 52.1964C216.013 51.901 215.993 51.6037 215.948 51.3132C215.904 51.0228 215.845 50.7238 215.753 50.447C215.662 50.1702 215.522 49.9021 215.369 49.6497C215.216 49.3974 215.022 49.1823 214.805 48.9741C214.579 48.7545 214.335 48.6189 214.11 48.4988C213.841 48.3555 213.589 48.262 213.319 48.2258C213.049 48.1896 212.752 48.1531 212.467 48.2032C212.182 48.2533 211.931 48.3783 211.657 48.4785C211.383 48.5788 211.119 48.6514 210.853 48.7631C210.587 48.8748 210.334 48.9976 210.07 49.097C209.805 49.1965 209.534 49.2989 209.259 49.3627C209.006 49.4223 208.746 49.4437 208.491 49.4888C208.237 49.5339 207.984 49.6154 207.728 49.6412C207.473 49.667 207.21 49.6594 206.951 49.6733C206.692 49.6872 206.434 49.7424 206.174 49.7418C205.914 49.7412 205.655 49.7187 205.396 49.7058C205.138 49.693 204.881 49.6459 204.622 49.6234C204.363 49.6009 204.102 49.5907 203.847 49.5581C203.592 49.5255 203.336 49.4565 203.083 49.4117C202.829 49.3668 202.573 49.3246 202.319 49.2749C202.065 49.2252 201.81 49.1343 201.551 49.0754C201.291 49.0164 201.022 49.0215 200.762 48.9577C200.502 48.8939 200.264 48.7676 200.008 48.6986C199.753 48.6296 199.496 48.5681 199.242 48.4965C198.989 48.4249 198.737 48.341 198.484 48.2645C198.23 48.1881 197.957 48.1813 197.704 48.1048C197.45 48.0284 197.205 47.9318 196.949 47.858C196.693 47.7842 196.436 47.7275 196.182 47.6558C195.929 47.5842 195.683 47.478 195.427 47.409C195.172 47.34 194.908 47.3131 194.65 47.2467C194.392 47.1803 194.141 47.1013 193.886 47.0419C193.631 46.9826 193.371 46.9188 193.112 46.8647C192.712 46.7856 192.285 46.7234 191.969 46.4674C191.772 46.3085 191.639 46.1007 191.564 45.8736C191.488 45.6464 191.467 45.4075 191.48 45.1562C191.491 44.922 191.501 44.6684 191.567 44.4321C191.634 44.1957 191.768 43.9757 191.869 43.7682C191.986 43.5253 192.121 43.293 192.257 43.0608C192.392 42.8286 192.509 42.5808 192.665 42.3615C192.82 42.1422 193.028 41.9623 193.201 41.7537C193.375 41.5451 193.533 41.3328 193.722 41.1375C193.911 40.9421 194.117 40.7746 194.32 40.5952C194.522 40.4158 194.693 40.2049 194.906 40.0392C195.119 39.8735 195.366 39.7585 195.59 39.6065C195.814 39.4545 196.011 39.2658 196.243 39.1301C196.476 38.9944 196.734 38.9077 196.975 38.7883C197.216 38.6689 197.454 38.5473 197.704 38.4442C197.954 38.3411 198.188 38.198 198.441 38.1116C198.695 38.0253 198.97 38.0027 199.229 37.9304C199.488 37.8582 199.745 37.7837 200.008 37.7281C200.271 37.6726 200.529 37.581 200.795 37.5421C201.062 37.5033 201.334 37.532 201.602 37.5077C201.882 37.4847 202.159 37.4232 202.433 37.4177C202.707 37.4123 202.993 37.4034 203.271 37.4147C203.549 37.426 203.821 37.5276 204.098 37.556C204.375 37.5844 204.659 37.5562 204.933 37.6043C205.206 37.6524 205.48 37.7053 205.751 37.7657C206.023 37.826 206.292 37.9061 206.56 37.9814C206.828 38.0566 207.094 38.1393 207.356 38.2273C207.618 38.3152 207.895 38.3751 208.155 38.4753C208.415 38.5755 208.676 38.6757 208.929 38.7838C209.183 38.8918 209.435 39.0121 209.689 39.1298C209.944 39.2475 210.176 39.3961 210.426 39.5191C210.676 39.642 210.909 39.7955 211.157 39.921C211.404 40.0465 211.663 40.1493 211.911 40.2797C212.159 40.4101 212.383 40.5472 212.626 40.678C212.869 40.8088 213.118 40.9124 213.354 41.051C213.591 41.1896 213.806 41.3591 214.038 41.5029C214.27 41.6468 214.491 41.8036 214.721 41.9549C214.951 42.1062 215.203 42.2168 215.426 42.3759C215.65 42.535 215.871 42.6919 216.088 42.8589C216.304 43.0258 216.515 43.2006 216.722 43.378C216.93 43.5554 217.134 43.738 217.335 43.9232C217.536 44.1085 217.742 44.2885 217.934 44.4842C218.127 44.6799 218.297 44.8968 218.473 45.1012C218.649 45.3055 218.786 45.5494 218.951 45.7668C219.116 45.9841 219.338 46.1604 219.489 46.3886C219.641 46.6168 219.706 46.8934 219.838 47.1329C219.948 47.3353 220.084 47.5234 220.197 47.7281C220.31 47.9327 220.466 48.1022 220.6 48.2929C220.758 48.523 220.939 48.7269 221.125 48.9353C221.311 49.1436 221.447 49.3901 221.628 49.6037C221.804 49.808 222.003 49.9959 222.161 50.2114C222.318 50.427 222.469 50.6552 222.613 50.8816C222.757 51.108 222.864 51.3617 222.986 51.5972C223.109 51.8326 223.248 52.0691 223.357 52.3153C223.466 52.5616 223.591 52.8041 223.681 53.0568C223.771 53.3095 223.806 53.5836 223.877 53.8427C223.948 54.1018 224.019 54.3609 224.076 54.626C224.133 54.8912 224.156 55.159 224.195 55.4231C224.235 55.6872 224.292 55.9523 224.317 56.2224C224.343 56.4925 224.351 56.7616 224.36 57.0307C224.368 57.2998 224.425 57.5697 224.419 57.84C224.413 58.1102 224.393 58.3817 224.375 58.6505C224.356 58.9193 224.279 59.1833 224.247 59.4533C224.214 59.7233 224.24 59.9982 224.197 60.2642C224.154 60.5302 224.025 60.7814 223.966 61.0463C223.909 61.2964 223.935 61.5713 223.875 61.8362C223.816 62.1012 223.68 62.3286 223.615 62.5891C223.55 62.8496 223.558 63.1187 223.488 63.3748C223.418 63.6309 223.318 63.8748 223.232 64.1272C223.147 64.3797 223.037 64.6196 222.937 64.8636C222.836 65.1075 222.711 65.3438 222.595 65.5793C222.48 65.8148 222.378 66.0662 222.242 66.2887C222.106 66.5113 221.935 66.7222 221.771 66.9252C221.606 67.1282 221.449 67.3501 221.253 67.5266C221.058 67.703 220.839 67.8546 220.611 67.9947C220.384 68.1348 220.14 68.2108 219.887 68.3068C219.648 68.3968 219.401 68.4705 219.13 68.5146C218.881 68.5593 218.634 68.6598 218.38 68.6733C218.126 68.6868 217.869 68.6981 217.613 68.6874C217.357 68.6768 217.108 68.6267 216.855 68.5964C216.603 68.566 216.353 68.5111 216.105 68.4659C215.856 68.4207 215.614 68.336 215.366 68.2785C215.102 68.2199 214.794 68.2014 214.556 68.0702C214.302 67.9306 214.11 67.7081 214.031 67.4327C213.977 67.2427 214.042 67.0453 214.069 66.8512C214.107 66.5856 214.108 66.3157 214.178 66.0548C214.248 65.7939 214.305 65.5316 214.398 65.2761C214.49 65.0207 214.61 64.78 214.712 64.5334C214.815 64.2868 214.932 64.0439 215.037 63.7947C215.142 63.5455 215.254 63.303 215.344 63.0502C215.434 62.7973 215.537 62.5459 215.604 62.2876C215.672 62.0294 215.724 61.7626 215.76 61.4948L215.76 61.5044Z" fill="#97928C"/>
<path d="M213.131 51.4735C213.169 51.3075 213.164 51.15 213.159 50.9827C213.155 50.7764 213.168 50.5712 213.174 50.3641C213.189 50.0106 213.083 49.713 212.944 49.3914C212.806 49.0698 212.668 48.736 212.398 48.5053C212.244 48.3745 212.084 48.2515 211.933 48.1181C211.8 48.0002 211.672 47.8722 211.517 47.7852C211.278 47.6492 211.145 47.3685 211.27 47.1006C211.381 46.8655 211.712 46.7145 211.955 46.8501C212.364 47.0815 212.71 47.4177 213.067 47.7215C213.462 48.0585 213.681 48.512 213.884 48.979C214.07 49.4037 214.217 49.8364 214.198 50.3071C214.178 50.7461 214.236 51.2202 214.138 51.6511C214.078 51.9208 213.821 52.1169 213.541 52.067C213.275 52.0207 213.066 51.7437 213.128 51.4713L213.131 51.4735Z" fill="#97928C"/>
<path d="M210.875 50.9534C210.529 50.4009 210.06 49.9557 209.511 49.6045C209.261 49.4452 209.014 49.3925 208.727 49.3285C208.413 49.2594 208.107 49.1654 207.785 49.1432C207.509 49.1245 207.326 48.8016 207.372 48.5475C207.425 48.2491 207.691 48.1107 207.97 48.1316C208.316 48.1566 208.643 48.2588 208.981 48.3307C209.376 48.415 209.722 48.5252 210.065 48.745C210.724 49.1722 211.309 49.7027 211.727 50.3757C211.874 50.6091 211.826 50.929 211.588 51.0919C211.35 51.2548 211.022 51.1917 210.873 50.956L210.875 50.9534Z" fill="#97928C"/>
<path d="M192.167 58.9114C191.87 59.0281 191.602 59.2008 191.322 59.3549C191.042 59.5091 190.795 59.6727 190.553 59.8772C190.295 60.0952 190.116 60.3213 189.951 60.6143C189.775 60.9203 189.574 61.209 189.426 61.5298C189.241 61.9314 188.621 61.6419 188.806 61.2403C188.967 60.8942 189.184 60.5872 189.37 60.2585C189.573 59.8992 189.803 59.63 190.115 59.359C190.393 59.1175 190.682 58.931 191.004 58.754C191.325 58.5769 191.612 58.393 191.945 58.2661C192.356 58.1061 192.58 58.7536 192.17 58.9136L192.167 58.9114Z" fill="#BC7F6C"/>
<path d="M204.608 55.9313C204.841 56.1844 205.103 56.4084 205.339 56.6589C205.588 56.9253 205.839 57.1891 206.067 57.4741C206.269 57.7274 206.493 57.9545 206.715 58.1891C206.969 58.4599 207.153 58.7705 207.39 59.05C207.569 59.2614 207.463 59.6224 207.251 59.7662C207.002 59.9373 206.72 59.8413 206.536 59.6303C206.325 59.3827 206.168 59.104 205.941 58.8698C205.714 58.6356 205.468 58.3811 205.256 58.1141C205.07 57.879 204.872 57.6644 204.666 57.448C204.43 57.1975 204.168 56.9735 203.935 56.7204C203.747 56.5195 203.683 56.2258 203.879 55.9959C204.044 55.8025 204.413 55.7334 204.603 55.9365L204.608 55.9313Z" fill="#2B2927"/>
<path d="M198.052 51.2283C197.84 51.1242 197.641 50.9995 197.436 50.8875C197.332 50.8304 197.226 50.7808 197.116 50.7411C197.086 50.729 197.054 50.7195 197.024 50.7074C197.071 50.7206 197.066 50.721 197.006 50.7015C196.949 50.6844 196.895 50.6694 196.837 50.6522C196.584 50.5806 196.335 50.5038 196.092 50.3998C195.868 50.3038 195.649 50.1979 195.419 50.1195C195.165 50.0334 195.054 49.6633 195.172 49.4349C195.314 49.1632 195.583 49.095 195.858 49.1843C196.08 49.2609 196.291 49.3602 196.507 49.4543C196.615 49.5014 196.723 49.5436 196.833 49.5832C196.748 49.5561 196.93 49.6117 196.947 49.6176C197.005 49.6348 197.059 49.6497 197.116 49.6669C197.37 49.7385 197.616 49.818 197.852 49.9421C198.069 50.0555 198.271 50.1872 198.491 50.2932C198.733 50.4094 198.867 50.7266 198.738 50.9778C198.609 51.2289 198.312 51.3504 198.052 51.2283Z" fill="#2B2927"/>
<path d="M194.416 64.3511C194.677 64.6141 194.892 64.9513 195.248 65.0971C195.348 65.1375 195.425 65.1531 195.497 65.1156C195.602 65.0608 195.667 64.9534 195.676 64.8798C195.705 64.6563 195.448 64.2568 195.293 64.0386C195.062 63.7149 194.844 63.3487 194.545 63.0841C193.927 62.5344 193.223 62.0111 192.464 61.6699C192.348 61.6162 192.246 61.5929 192.183 61.5933C192.174 61.5941 192.067 61.5979 192.118 61.5962C192.169 61.5944 192.044 61.6144 192.092 61.6008C192.139 61.5872 192.027 61.645 192.061 61.6154C192.1 61.5807 191.973 61.7296 191.994 61.6938C191.949 61.768 191.927 61.867 191.947 61.9382C191.968 62.0192 192.115 62.1311 192.222 62.2268C192.407 62.3843 192.557 62.5712 192.726 62.747C192.9 62.932 193.098 63.0957 193.281 63.2702C193.465 63.4447 193.635 63.635 193.816 63.8169C194.006 64.0056 194.22 64.1703 194.414 64.3537C194.607 64.5371 194.656 64.8588 194.469 65.0783C194.295 65.2821 193.947 65.3277 193.745 65.1376C193.53 64.9364 193.295 64.754 193.09 64.5424C192.884 64.3308 192.68 64.1165 192.463 63.918C192.247 63.7195 192.047 63.5171 191.845 63.3003C191.673 63.1079 191.464 62.9524 191.289 62.7626C190.895 62.3404 190.796 61.7458 191.081 61.2266C191.352 60.7354 191.866 60.4964 192.415 60.5852C192.889 60.6605 193.342 60.9564 193.742 61.2031C194.245 61.5144 194.732 61.8852 195.18 62.2762C195.594 62.6384 195.923 63.1267 196.228 63.5854C196.513 64.0141 196.788 64.5918 196.673 65.1165C196.531 65.7721 195.884 66.231 195.225 66.1562C194.914 66.1209 194.634 65.9591 194.387 65.7801C194.14 65.601 193.927 65.3244 193.743 65.1402C193.548 64.9423 193.495 64.6404 193.687 64.4157C193.857 64.2171 194.216 64.1584 194.411 64.3563L194.416 64.3511Z" fill="#A55535"/>
<path d="M200.799 61.886L200.799 58.3824L204.302 60.5722" stroke="black" stroke-linecap="round" stroke-linejoin="round"/>
<path d="M192.786 51.3752L193.73 54.7493L189.766 53.5843" stroke="black" stroke-linecap="round" stroke-linejoin="round"/>
</g>
<path d="M110.739 64.5925L97.3383 53.1184L89.14 62.9546L106.404 75.585C106.404 75.585 114.217 69.0245 110.739 64.5925Z" fill="#EBBEA7"/>
<path d="M103.802 79.255L77.7622 73.08L75.5462 84.4578L100.386 88.7934L103.802 79.255Z" fill="#EBBEA7"/>
<path d="M194.976 121.969C194.976 121.969 196.281 128.047 194.976 129.204C193.671 130.36 189.773 133.539 189.186 135.133C188.599 136.727 187.881 137.306 189.186 138.024C190.491 138.742 194.1 135.711 194.687 134.406C195.274 133.101 196.421 133.828 196.999 134.695C197.577 135.563 199.023 144.672 200.617 144.672C202.211 144.672 202.64 141.632 202.351 139.758C202.062 137.884 203.656 143.954 204.952 143.375C206.249 142.797 205.39 139.04 204.952 138.173C204.514 137.306 207.265 143.524 208.71 142.797C210.155 142.07 208.999 138.602 208.71 137.446C208.421 136.29 210.882 141.352 212.616 140.485C214.351 139.618 210.733 134.844 210.733 134.844C210.733 134.844 213.624 138.462 214.64 137.735C215.656 137.008 214.929 132.532 211.311 128.336C207.694 124.141 205.96 121.102 206.108 119.656C206.257 118.211 194.967 121.969 194.967 121.969H194.976Z" fill="#EBBEA7"/>
<path d="M152.791 50.5408C152.791 50.5408 148.529 46.0149 146.836 46.4327C145.143 46.8504 140.313 48.2535 138.667 47.8313C137.022 47.4092 136.138 47.6722 136.288 46.1901C136.438 44.708 140.982 43.4583 142.389 43.7163C143.797 43.9743 143.85 42.617 143.464 41.6488C143.079 40.6806 136.401 34.3185 137.306 33.0063C138.211 31.6941 140.957 33.0666 142.336 34.3689C143.715 35.6711 139.623 30.9123 140.835 30.1735C142.047 29.4347 144.653 32.2749 145.118 33.1278C145.583 33.9806 142.026 28.1855 143.445 27.4087C144.864 26.6319 147.062 29.5531 147.85 30.4475C148.637 31.3419 145.868 26.4413 147.566 25.5061C149.265 24.5709 151.14 30.2592 151.14 30.2592C151.14 30.2592 149.804 25.8259 150.979 25.4023C152.154 24.9788 155.426 28.1187 156.825 33.4786C158.225 38.8386 159.742 41.992 161.016 42.6901C162.29 43.3881 152.786 50.548 152.786 50.548L152.791 50.5408Z" fill="#EBBEA7"/>
<path d="M186.968 70.9602C186.968 70.9602 167.566 49.2396 162.652 39.1143L147.035 50.1068L164.992 75.874C164.992 75.874 152.554 93.2341 148.499 96.1245C144.444 99.015 145.898 97.8588 145.898 97.8588C145.898 97.8588 144.741 88.8897 138.663 81.9439C132.584 74.9981 116.389 54.4585 113.787 55.3256C111.186 56.1928 109.741 59.0832 109.452 65.4509C109.163 71.8186 109.452 71.7573 105.405 75.2521C101.359 78.7469 96.147 80.779 92.1004 84.5365C88.0538 88.2941 86.0217 89.7393 90.3661 96.396C94.7106 103.053 125.945 156.281 156.321 138.631C174.127 128.287 174.837 117.225 176.571 113.467C178.305 109.71 184.673 106.232 186.985 105.943C189.298 105.654 190.454 126.787 190.454 126.787L210.994 122.163C210.994 122.163 213.417 107.411 210.994 97.4384C208.97 93.2166 206.474 88.7933 204.337 85.9817C201.806 82.6534 201.157 81.068 199.712 79.614C198.267 78.16 189.009 79.4213 186.985 70.934L186.968 70.9602Z" fill="#6B8EBF"/>
<path d="M129.447 132.171C132.094 134.441 138.978 138.753 145.333 137.845C153.276 136.71 159.517 131.604 163.489 128.2" stroke="#4E719B"/>
<path d="M183.535 84.3573C183.312 84.525 183.028 84.6154 182.764 84.6541C182.499 84.6927 182.202 84.6645 181.949 84.5715C181.695 84.4785 181.494 84.3089 181.317 84.1033C181.141 83.8977 181.049 83.6644 181.008 83.4206C180.967 83.1769 180.935 82.8983 181.036 82.6578C181.137 82.4173 181.332 82.2241 181.555 82.0564C181.778 81.8887 182.039 81.7885 182.301 81.747C182.563 81.7056 182.833 81.7771 183.087 81.8651C183.341 81.953 183.559 82.0732 183.736 82.2788C183.913 82.4845 184.019 82.7114 184.06 82.9552C184.101 83.199 184.108 83.4727 184.011 83.711C183.913 83.9492 183.764 84.1851 183.541 84.3528L183.535 84.3573Z" fill="white"/>
<path d="M178.213 88.3352C177.99 88.5028 177.709 88.545 177.445 88.5837C177.18 88.6224 176.887 88.6787 176.63 88.588C176.373 88.4972 176.169 88.317 175.992 88.1114C175.815 87.9058 175.736 87.6584 175.7 87.4151C175.664 87.1719 175.657 86.9032 175.757 86.6627C175.858 86.4222 176.025 86.2186 176.248 86.0509C176.47 85.8832 176.727 85.7494 176.989 85.713C177.25 85.6766 177.528 85.7694 177.785 85.8601C178.041 85.9508 178.304 86.037 178.481 86.2426C178.658 86.4483 178.73 86.7103 178.765 86.9535C178.801 87.1968 178.808 87.4756 178.708 87.711C178.608 87.9465 178.441 88.168 178.218 88.3357L178.213 88.3352Z" fill="white"/>
<path d="M172.854 92.2719C172.631 92.4396 172.399 92.5323 172.137 92.5737C171.875 92.6152 171.605 92.6075 171.349 92.5168C171.092 92.426 170.905 92.2781 170.726 92.0697C170.547 91.8613 170.408 91.6542 170.372 91.411C170.337 91.1677 170.398 90.9158 170.498 90.6753C170.599 90.4347 170.702 90.197 170.925 90.0293C171.148 89.8617 171.416 89.7468 171.68 89.7081C171.944 89.6694 172.233 89.7224 172.49 89.8131C172.746 89.9038 173.005 90.0203 173.182 90.2259C173.359 90.4315 173.393 90.7078 173.429 90.9511C173.465 91.1944 173.434 91.4466 173.333 91.6871C173.233 91.9276 173.079 92.107 172.854 92.2769L172.854 92.2719Z" fill="white"/>
<path d="M190.157 76.0022C187.724 74.5427 187.509 71.8416 187.32 70.3286C185.618 69.7612 181.646 73.7327 182.214 76.5695C182.781 79.4064 187.887 78.839 187.887 79.9738C187.887 81.1085 188.455 82.8106 191.859 83.9453C195.263 85.0801 200.037 80.2088 199.235 79.4064C198.1 78.2717 195.83 79.4064 190.157 76.0022Z" fill="white"/>
<path d="M100.636 57.1358C100.636 57.1358 99.0434 48.7963 100.582 46.8704L97.6187 44.7955C97.6187 44.7955 86.5643 56.4579 86.233 59.5442C85.9017 62.6305 92.5006 64.7946 92.5006 64.7946L100.636 57.1358Z" fill="#EBBEA7"/>
<path d="M83.724 60.6736C84.4041 61.2076 85.3869 61.0885 85.9179 60.4069C85.9179 60.4069 93.1264 50.8368 93.4066 51.1061C95.3011 52.9268 98.061 51.8798 100.751 49.8686C104.141 47.3339 102.461 39.1835 100.032 39.01C99.1714 38.9481 98.7255 38.9937 98.1967 39.673L83.4589 58.4793C82.9257 59.1587 83.0461 60.1417 83.7283 60.6735L83.724 60.6736Z" fill="#94868C"/>
<path d="M83.6934 74.2981C83.6934 74.2981 78.7617 67.3873 79.3546 64.9946L75.7953 64.3481C75.7953 64.3481 70.6267 79.5631 71.6156 82.5054C72.6045 85.4477 79.5039 84.6559 79.5039 84.6559L83.6934 74.2981Z" fill="#EBBEA7"/>
<path d="M69.808 84.58C70.6491 84.7809 71.4922 84.2619 71.6897 83.4208C71.6897 83.4208 74.2389 71.7139 74.6059 71.8414C77.088 72.7038 79.1577 70.5992 80.761 67.6477C82.7813 63.9283 77.849 57.2259 75.5692 58.0837C74.762 58.3869 74.3759 58.6147 74.1794 59.4528L68.6501 82.6974C68.4497 83.5374 68.9699 84.3801 69.812 84.5781L69.808 84.58Z" fill="#94868C"/>
<defs>
<clipPath id="clip0_4632_16059">
<rect width="42.527" height="46.225" fill="white" transform="matrix(-0.760778 -0.649013 -0.649013 0.760778 236 57.0786)"/>
</clipPath>
</defs>
</svg>
