<svg width="320" height="162" viewBox="0 0 320 162" fill="none" xmlns="http://www.w3.org/2000/svg">
<g clip-path="url(#clip0_4632_16092)">
<path d="M265.093 20.0002H54.9069C50.8162 20.0002 47.5001 22.8381 47.5001 26.3388V153.662C47.5001 157.162 50.8162 160 54.9069 160H265.093C269.184 160 272.5 157.162 272.5 153.662V26.3388C272.5 22.8381 269.184 20.0002 265.093 20.0002Z" fill="#EDE6DF"/>
<path d="M96.0891 62.5126C96.4951 62.455 96.8941 62.4067 97.3001 62.384C97.706 62.3612 98.1143 62.3199 98.5156 62.3343C98.9168 62.3486 99.3297 62.3746 99.7355 62.4214C100.141 62.4682 100.545 62.522 100.942 62.6083C101.338 62.6945 101.744 62.7646 102.133 62.8833C102.523 63.002 102.922 63.1161 103.297 63.265C103.673 63.4138 104.016 63.6601 104.375 63.846C104.735 64.032 105.071 64.2643 105.416 64.4804C105.762 64.6965 106.146 64.8523 106.471 65.0962C106.795 65.3401 107.064 65.6582 107.368 65.9299C107.671 66.2016 108.028 66.4177 108.306 66.7196C108.584 67.0214 108.786 67.3788 109.04 67.7038C109.295 68.0289 109.566 68.3284 109.789 68.6696C110.011 69.0108 110.21 69.3636 110.402 69.7256C110.594 70.0877 110.703 70.4798 110.867 70.8558C111.031 71.2317 111.156 71.6099 111.286 71.9974C111.415 72.3849 111.607 72.747 111.702 73.1461C111.797 73.5451 111.836 73.9488 111.893 74.3547C111.951 74.7607 112.059 75.1645 112.08 75.5658C112.1 75.9671 112.026 76.3868 112.014 76.7927C112.001 77.1986 111.918 77.5998 111.868 78.001C111.819 78.4023 111.863 78.8268 111.777 79.2233C111.69 79.6199 111.486 79.9885 111.367 80.378C111.248 80.7676 111.151 81.1641 111.002 81.5397C110.853 81.9153 110.702 82.2979 110.518 82.6619C110.334 83.0258 110.137 83.3851 109.921 83.7305C109.705 84.0759 109.472 84.412 109.228 84.7365C108.985 85.0609 108.713 85.3645 108.441 85.6681C108.169 85.9716 107.909 86.2868 107.607 86.5648C107.306 86.8428 106.946 87.0396 106.625 87.2921C106.305 87.5446 106.043 87.8783 105.701 88.1006C105.36 88.3229 104.968 88.4663 104.611 88.6561C104.253 88.8459 103.868 88.98 103.49 89.1397C103.111 89.2993 102.766 89.5123 102.376 89.6372C101.986 89.762 101.578 89.7801 101.176 89.8701C100.775 89.9602 100.406 90.15 99.9953 90.2098C99.5847 90.2697 99.1787 90.3157 98.7728 90.3384C98.3668 90.3612 97.9541 90.254 97.5482 90.242C97.1423 90.2299 96.7364 90.1831 96.3352 90.134C95.927 90.0825 95.5048 90.1423 95.1082 90.0561C94.7117 89.9698 94.3338 89.7815 93.9442 89.6628C93.5547 89.5441 93.1512 89.4555 92.7756 89.3067C92.3977 89.1532 92.0476 88.9394 91.6883 88.7534C91.329 88.5675 90.9836 88.3514 90.6382 88.1353C90.2928 87.9192 89.966 87.6823 89.6416 87.4383C89.3171 87.1944 88.9369 87.0131 88.6333 86.7414C88.3298 86.4697 88.068 86.1539 87.7853 85.8544C87.5096 85.5572 87.2363 85.253 86.9884 84.9304C86.7406 84.6077 86.5322 84.2595 86.3076 83.9137C86.083 83.5678 85.8955 83.215 85.7033 82.853C85.5135 82.4956 85.3144 82.1428 85.1594 81.7622C85.0021 81.3886 84.8703 81.008 84.7431 80.6136C84.616 80.2191 84.5376 79.8293 84.4452 79.4349C84.3528 79.0405 84.2234 78.653 84.1658 78.247C84.1083 77.841 84.0554 77.4327 84.0349 77.0314C84.0145 76.6301 84.0799 76.215 84.0919 75.8091C84.104 75.4032 84.0279 74.9833 84.077 74.582C84.1285 74.1739 84.3029 73.7913 84.3845 73.3971C84.4661 73.0028 84.4735 72.5761 84.5922 72.1865C84.711 71.7969 84.8529 71.4074 85.0017 71.0318C85.1506 70.6562 85.3435 70.2876 85.5295 69.9283C85.7154 69.569 85.9848 69.2492 86.1963 68.9061C86.4124 68.5607 86.603 68.1991 86.8469 67.8746C87.0908 67.5501 87.3092 67.1978 87.5809 66.8942C87.8526 66.5907 88.1892 66.3475 88.4841 66.0671C88.779 65.7868 89.0994 65.5343 89.4221 65.2865C89.7447 65.0386 90.0744 64.8047 90.4156 64.5824C90.7568 64.3601 91.1026 64.1471 91.4601 63.9573C91.8175 63.7674 92.1957 63.6194 92.574 63.4598C92.9522 63.3001 93.2912 63.0616 93.681 62.9367C94.0708 62.8119 94.4768 62.766 94.8758 62.6713C95.2749 62.5766 95.6785 62.5724 96.0845 62.5149L96.0891 62.5126Z" fill="#819EC1"/>
<path d="M107.724 82.1371C108.373 82.161 108.373 82.1262 109.018 82.1524C109.663 82.1786 109.667 82.1763 110.317 82.2002C110.966 82.2241 110.966 82.2357 111.616 82.2596C112.265 82.2835 112.265 82.2951 112.915 82.319C113.564 82.3429 113.559 82.4032 114.209 82.4271C114.858 82.451 114.858 82.4742 115.508 82.4981C116.157 82.522 116.162 82.4733 116.809 82.4925C117.222 82.4953 117.494 82.2265 117.58 81.8996C117.666 81.5726 117.576 81.1828 117.214 80.9806C116.644 80.6622 116.642 80.6692 116.071 80.3508C115.501 80.0324 115.464 80.0973 114.889 79.7812C114.314 79.4652 114.342 79.4165 113.769 79.105C113.197 78.7936 113.22 78.7472 112.65 78.4288C112.08 78.1104 112.045 78.1684 111.47 77.8523C110.895 77.5362 110.883 77.5594 110.313 77.241" fill="#819EC1"/>
<path d="M96.0094 69.8377C96.6615 69.6227 97.2716 69.4981 97.8399 69.4987C98.4082 69.4993 98.9417 69.5579 99.3984 69.7416C99.8552 69.9254 100.272 70.2042 100.606 70.5594C100.94 70.9147 101.125 71.402 101.293 71.9148C101.323 72.0099 101.337 72.003 101.367 72.0981C101.472 72.4113 101.576 72.713 101.589 73.0076C101.603 73.3022 101.493 73.6059 101.412 73.9306C101.33 74.2552 101.202 74.603 101.028 74.974C100.851 75.3518 100.707 75.8063 100.44 76.2699C100.214 76.6779 99.9565 76.9862 99.831 77.269C99.7007 77.5542 99.5891 77.8069 99.5518 78.0226C99.5144 78.2382 99.5513 78.4517 99.579 78.6349C99.6066 78.8182 99.6156 79.0339 99.6827 79.2497C99.7613 79.4887 99.826 79.7115 99.6912 79.8946C99.5565 80.0777 99.3522 80.2375 99.1295 80.3138C98.8905 80.3924 98.6377 80.3504 98.4174 80.2922C98.1971 80.2339 98.0372 80.0528 97.9471 79.779C97.843 79.4658 97.8132 79.1619 97.7625 78.8858C97.7118 78.6097 97.6077 78.3313 97.6451 78.046C97.6825 77.7607 97.8684 77.471 98.0079 77.1348C98.1475 76.7986 98.2755 76.3697 98.5288 75.9246C98.7891 75.4934 99.0377 75.1434 99.1934 74.8282C99.3445 74.5152 99.4538 74.2346 99.519 73.9935C99.5843 73.7523 99.5799 73.5343 99.5708 73.3417C99.5617 73.1492 99.555 72.9497 99.4833 72.7362C99.4625 72.6713 99.4579 72.6736 99.437 72.6086C99.2613 72.0819 98.9463 71.6942 98.4502 71.4663C98.1743 71.3431 97.8541 71.3636 97.4876 71.3841C97.1954 71.4023 96.8845 71.4646 96.5364 71.5802C95.9726 71.7629 95.5038 71.9734 95.1509 72.2885C94.798 72.6036 94.4288 72.921 94.1709 73.322C94.0269 73.5213 93.9061 73.6858 93.695 73.7158C93.4839 73.7457 93.2311 73.7269 93.0178 73.5898C92.8208 73.462 92.6726 73.2461 92.6079 73.0234C92.5432 72.8006 92.671 72.592 92.808 72.3787C92.9661 72.1145 93.0824 71.8015 93.3007 71.5535C93.505 71.3241 93.7813 71.1458 94.032 70.928C94.3083 70.6917 94.5916 70.4346 94.9397 70.2494C95.2553 70.0804 95.6196 69.9625 95.9979 69.8377L96.0094 69.8377ZM99.5987 81.7895C99.963 81.6716 100.309 81.6674 100.615 81.8278C100.923 81.9812 101.18 82.2413 101.296 82.5893C101.411 82.9374 101.395 83.3224 101.244 83.6354C101.088 83.9507 100.768 84.122 100.403 84.2399C100.039 84.3578 99.7259 84.3458 99.4175 84.1808C99.1046 84.0181 98.8497 83.7743 98.7341 83.4262C98.6185 83.0781 98.707 82.7442 98.8674 82.4382C99.0278 82.1322 99.2507 81.9051 99.5987 81.7895Z" fill="white"/>
<path d="M107.781 7.84977C108.153 8.02895 108.461 8.31914 108.811 8.51938C109.162 8.71962 109.542 8.88633 109.878 9.11656C110.214 9.34678 110.544 9.59452 110.859 9.8458C111.173 10.0971 111.44 10.4181 111.739 10.6943C112.038 10.9706 112.416 11.175 112.689 11.4734C112.961 11.7719 113.228 12.0929 113.477 12.4074C113.727 12.7219 113.948 13.0749 114.181 13.4093C114.414 13.7436 114.577 14.121 114.781 14.4725C114.986 14.8241 115.248 15.1463 115.425 15.5151C115.602 15.8838 115.784 16.2514 115.937 16.6311C116.09 17.0108 116.218 17.4015 116.336 17.7895C116.453 18.1774 116.467 18.6004 116.559 18.9943C116.652 19.3882 116.791 19.7765 116.854 20.1825C116.916 20.5835 116.889 20.9945 116.921 21.4026C116.953 21.8107 117.057 22.2124 117.058 22.6225C117.057 23.0276 117.014 23.4371 116.981 23.8442C116.949 24.2514 116.927 24.6561 116.863 25.0653C116.799 25.4745 116.703 25.8643 116.611 26.2643C116.518 26.6642 116.458 27.0672 116.336 27.4579C116.218 27.8423 116.01 28.2053 115.86 28.5868C115.71 28.9683 115.551 29.3358 115.372 29.708C115.192 30.0803 115.011 30.4424 114.811 30.7929C114.61 31.1434 114.351 31.4704 114.125 31.8005C113.899 32.1305 113.723 32.5179 113.473 32.8374C113.223 33.157 112.894 33.4151 112.618 33.7141C112.342 34.0132 112.088 34.339 111.791 34.6164C111.493 34.8938 111.176 35.1545 110.858 35.4102C110.54 35.6658 110.213 35.9075 109.872 36.1364C109.531 36.3654 109.196 36.5931 108.844 36.7979C108.493 37.0028 108.114 37.1607 107.745 37.3376C107.377 37.5145 107.013 37.6902 106.632 37.838C106.251 37.9858 105.866 38.1134 105.479 38.236C105.092 38.3585 104.7 38.4822 104.306 38.5745C103.912 38.6667 103.51 38.745 103.104 38.8081C102.698 38.8713 102.293 38.8702 101.885 38.9019C101.476 38.9335 101.075 38.9477 100.665 38.9478C100.255 38.948 99.8492 38.9683 99.4421 38.9358C99.035 38.9033 98.6245 38.9249 98.2153 38.8609C97.8061 38.7969 97.4285 38.6403 97.0298 38.5526C96.631 38.4648 96.2242 38.4109 95.8335 38.2893C95.4428 38.1678 95.0702 38.01 94.6888 37.8596C94.3073 37.7092 93.9502 37.5265 93.578 37.3473C93.2057 37.1681 92.8579 36.9566 92.5074 36.7564C92.1568 36.5561 91.7757 36.3843 91.4394 36.1541C91.0982 35.9251 90.8029 35.6426 90.4872 35.3863C90.1715 35.13 89.8252 34.9021 89.5311 34.6247C89.2371 34.3473 89.0058 33.9966 88.7285 33.6993C88.4511 33.4021 88.1788 33.1036 87.9282 32.7841C87.6775 32.4645 87.3303 32.2103 87.1026 31.8747C86.8749 31.5392 86.6626 31.1787 86.4628 30.826C86.263 30.4732 86.0938 30.092 85.9181 29.7283C85.7424 29.3646 85.6225 28.9665 85.4747 28.5856C85.3269 28.2048 85.1057 27.8517 84.9871 27.4587C84.8696 27.0707 84.8255 26.6548 84.7383 26.2598C84.6511 25.8647 84.5627 25.4645 84.5008 25.0635C84.4388 24.6625 84.4285 24.2548 84.3969 23.8467C84.3653 23.4386 84.2983 23.0388 84.2981 22.6286C84.2991 22.2235 84.3468 21.8129 84.3742 21.4069C84.4017 21.0009 84.468 20.6019 84.5332 20.1977C84.5984 19.7936 84.5982 19.3835 84.691 18.9835C84.7799 18.5898 84.8665 18.186 84.9881 17.7953C85.1058 17.4108 85.2612 17.0282 85.4116 16.6467C85.562 16.2652 85.8035 15.9317 85.9838 15.5645C86.1642 15.1973 86.3707 14.8506 86.576 14.4989C86.7813 14.1472 86.923 13.7518 87.1482 13.4167C87.3772 13.0754 87.6336 12.7597 87.8899 12.444C88.1463 12.1282 88.4287 11.833 88.7049 11.534C88.9811 11.2349 89.2995 10.9792 89.5968 10.7019C89.894 10.4245 90.1628 10.1165 90.4812 9.86084C90.7995 9.60517 91.1167 9.34445 91.4522 9.11672C91.7878 8.88899 92.1639 8.72099 92.5155 8.51615C92.867 8.3113 93.2186 8.10645 93.5873 7.92954C93.9561 7.75263 94.3139 7.55165 94.6897 7.40504C95.0656 7.25842 95.4696 7.16381 95.8575 7.04632C96.2455 6.92882 96.6453 6.86183 97.0443 6.7684C97.4433 6.67498 97.8233 6.50075 98.2243 6.4388C98.6253 6.37686 99.0398 6.41828 99.4479 6.38664C99.856 6.35499 100.256 6.30938 100.666 6.30922C101.076 6.30906 101.474 6.37036 101.885 6.39663C102.296 6.4229 102.692 6.45272 103.1 6.51166C103.508 6.5706 103.896 6.6607 104.296 6.75348C104.696 6.84627 105.097 6.89629 105.487 7.01787C105.878 7.13945 106.278 7.23224 106.66 7.38262C107.041 7.533 107.417 7.68456 107.785 7.86492L107.781 7.84977Z" fill="#C67958"/>
<path d="M106.264 34.6056C106.74 34.9524 106.796 34.8752 107.27 35.217C107.744 35.5587 107.75 35.5575 108.23 35.9031C108.71 36.2487 108.669 36.301 109.145 36.6477C109.62 36.9945 109.616 37.0008 110.092 37.3476C110.567 37.6943 110.58 37.6807 111.055 38.0275C111.531 38.3743 111.495 38.4253 111.97 38.7721C112.451 39.1177 112.528 39.0144 113.003 39.3612C113.484 39.7068 113.431 39.7778 113.911 40.1234C114.392 40.469 114.355 40.515 114.84 40.8594C115.24 41.1333 115.736 41.0011 116.032 40.7401C116.328 40.479 116.415 40.0538 116.191 39.6215C115.89 39.042 115.99 38.992 115.689 38.4125C115.389 37.8331 115.394 37.8319 115.093 37.2524C114.792 36.673 114.797 36.6718 114.495 36.0873C114.193 35.5028 114.17 35.5189 113.874 34.9382C113.579 34.3576 113.535 34.3783 113.233 33.7939C112.931 33.2094 112.933 33.2144 112.631 32.6299C112.329 32.0454 112.372 32.0247 112.071 31.4452" fill="#C67958"/>
<path d="M98.2327 14.028C98.5931 13.9063 98.9682 13.893 99.3051 13.8301C99.6773 13.7589 100.032 13.6598 100.378 13.6587C101.043 13.6523 101.616 13.8269 102.155 14.0363C102.688 14.2417 103.199 14.4683 103.595 14.8818C103.989 15.2903 104.246 15.8213 104.45 16.4181C104.486 16.5269 104.569 16.4967 104.607 16.6104C104.729 16.9759 104.695 17.3515 104.711 17.694C104.733 18.0352 104.747 18.394 104.656 18.7776C104.569 19.155 104.433 19.5757 104.237 20.0156C104.037 20.4567 103.778 20.9435 103.474 21.4888C103.214 21.9705 103.016 22.3739 102.87 22.7064C102.724 23.0388 102.555 23.3181 102.512 23.5678C102.47 23.8176 102.482 24.0757 102.517 24.2913C102.551 24.507 102.727 24.7109 102.811 24.9575C102.908 25.2332 102.824 25.5137 102.673 25.7304C102.521 25.947 102.271 26.0162 102.01 26.1092C101.734 26.2058 101.501 26.2551 101.24 26.1883C100.98 26.1215 100.778 25.9663 100.671 25.6451C100.548 25.2797 100.518 24.9245 100.459 24.6028C100.399 24.2811 100.342 23.9695 100.381 23.6354C100.422 23.3064 100.524 22.9468 100.681 22.5478C100.838 22.1489 101.075 21.7045 101.368 21.183C101.665 20.6767 101.933 20.2517 102.107 19.8806C102.281 19.5096 102.319 19.1491 102.391 18.8658C102.464 18.5826 102.48 18.3337 102.466 18.1133C102.456 17.8918 102.447 17.6488 102.363 17.4022C102.335 17.3288 102.349 17.3202 102.326 17.2457C102.119 16.6337 101.686 16.2397 101.105 15.9869C100.778 15.8449 100.425 15.8158 99.997 15.8521C99.6569 15.8785 99.296 15.9524 98.8863 16.0909C98.23 16.3139 97.6679 16.552 97.2597 16.9246C96.8528 17.3023 96.5191 17.7426 96.2251 18.2163C96.0619 18.4517 95.865 18.6576 95.6179 18.6941C95.3708 18.7307 95.0801 18.6496 94.8296 18.4899C94.5978 18.3417 94.4493 18.0942 94.3688 17.8414C94.2871 17.5835 94.41 17.3576 94.5697 17.1071C94.753 16.7978 94.914 16.4618 95.165 16.1687C95.3993 15.8954 95.6277 15.5969 95.9184 15.337C96.2359 15.0549 96.6267 14.8356 97.0326 14.6126C97.4005 14.4093 97.7912 14.1899 98.2301 14.0392L98.2327 14.028ZM102.605 27.9197C103.028 27.7725 103.419 27.8727 103.78 28.0492C104.141 28.2257 104.429 28.4779 104.567 28.8825C104.705 29.2922 104.614 29.6544 104.44 30.0255C104.265 30.3915 104.036 30.7114 103.611 30.8535C103.186 30.9956 102.818 30.9222 102.45 30.7418C102.087 30.5552 101.761 30.3012 101.623 29.8915C101.484 29.4819 101.608 29.1012 101.783 28.7352C101.959 28.3692 102.194 28.0532 102.598 27.9158L102.605 27.9197Z" fill="white"/>
<path d="M210.758 106.141C210.524 105.713 210.365 105.25 210.113 104.833C209.861 104.417 209.608 104 209.339 103.601C209.069 103.202 208.781 102.803 208.494 102.41C208.206 102.017 207.884 101.654 207.579 101.278C207.274 100.903 206.904 100.574 206.587 100.211C206.27 99.8468 205.948 99.4831 205.613 99.1311C205.279 98.7791 204.956 98.4213 204.616 98.0752C204.276 97.7291 203.895 97.424 203.548 97.0896C203.202 96.7552 202.915 96.3505 202.557 96.0219C202.199 95.6934 201.871 95.3356 201.513 95.0071C201.155 94.6785 200.75 94.4028 200.386 94.0802C200.023 93.7575 199.636 93.4642 199.272 93.1474C198.908 92.8306 198.568 92.4728 198.198 92.1619C197.84 91.8627 197.5 91.5459 197.142 91.2526C196.785 90.9593 196.427 90.6601 196.063 90.3668C195.699 90.0734 195.283 89.8505 194.919 89.5631C194.555 89.2756 194.215 88.953 193.851 88.6655C193.488 88.3781 193.124 88.0906 192.748 87.809C192.373 87.5274 191.945 87.3338 191.569 87.0581C191.194 86.7824 190.883 86.4246 190.502 86.1547C190.12 85.8849 189.669 85.7206 189.281 85.4683C188.894 85.2161 188.525 84.9228 188.132 84.6764C187.739 84.43 187.375 84.1308 186.976 83.8903C186.577 83.6498 186.184 83.4034 185.779 83.1746C185.374 82.9458 184.934 82.7815 184.524 82.5703C184.101 82.3533 183.697 82.101 183.274 81.9074C182.852 81.7139 182.383 81.5907 181.948 81.4088C181.514 81.2269 181.074 81.0509 180.634 80.8867C180.194 80.7224 179.772 80.4937 179.32 80.3529C178.869 80.2121 178.393 80.1475 177.942 80.0243C177.49 79.9011 177.038 79.7427 176.581 79.6313C176.123 79.5198 175.66 79.426 175.196 79.3262C174.733 79.2265 174.258 79.2324 173.788 79.1502C173.319 79.0681 172.873 78.9039 172.404 78.8335C171.935 78.7631 171.459 78.7807 170.99 78.722C170.521 78.6633 170.057 78.5577 169.588 78.5108C169.512 78.4991 169.43 78.5343 169.353 78.5225C169.06 78.4873 168.773 78.4991 168.479 78.4697C168.456 78.4697 168.526 78.417 168.503 78.417C168.063 78.3818 167.623 78.3114 167.183 78.2879C166.743 78.2644 166.297 78.2762 165.857 78.2586C165.417 78.241 164.971 78.2292 164.531 78.2175C164.091 78.2058 163.645 78.2762 163.205 78.2703C162.765 78.2644 162.32 78.1471 161.88 78.1471C161.44 78.1471 160.994 78.2586 160.554 78.2644C160.114 78.2703 159.668 78.2879 159.228 78.2938C158.788 78.2996 158.342 78.2644 157.902 78.2762C157.404 78.2879 156.905 78.3524 156.406 78.3583C155.908 78.3642 155.403 78.3759 154.904 78.3818C154.406 78.3876 153.901 78.2586 153.403 78.2644C152.904 78.2703 152.405 78.3818 151.907 78.3994C151.408 78.417 150.904 78.3876 150.405 78.417C149.906 78.4463 149.402 78.4346 148.903 78.4815C148.405 78.5284 147.918 78.6516 147.419 78.7161C146.956 78.7807 146.498 78.898 146.035 78.9801C145.571 79.0622 145.113 79.1385 144.656 79.25C144.198 79.3614 143.747 79.4788 143.295 79.6196C142.843 79.7604 142.397 79.8894 141.957 80.0595C141.517 80.2297 141.13 80.4995 140.702 80.7048C140.274 80.9102 139.816 81.0158 139.4 81.2504C138.995 81.4792 138.602 81.7314 138.209 81.9778C137.816 82.2242 137.417 82.4647 137.035 82.7287C136.654 82.9927 136.273 83.2684 135.909 83.55C135.545 83.8316 135.199 84.1484 134.841 84.4534C134.484 84.7585 134.184 85.1105 133.838 85.4273C133.492 85.7441 133.123 86.0256 132.794 86.3542C132.466 86.6827 132.137 87.0112 131.826 87.3573C131.515 87.7034 131.21 88.0554 130.911 88.4074C130.612 88.7594 130.313 89.1172 130.025 89.4868C129.738 89.8564 129.556 90.2964 129.28 90.6718C129.01 91.0473 128.752 91.4344 128.494 91.8216C128.236 92.2088 127.96 92.5842 127.72 92.9773C127.479 93.3762 127.151 93.7223 126.922 94.1271C126.693 94.5319 126.464 94.9425 126.247 95.3532C126.03 95.7638 125.954 96.2449 125.754 96.6672C125.555 97.0838 125.338 97.4885 125.15 97.9051C124.962 98.3216 124.786 98.7498 124.611 99.1722C124.435 99.5946 124.182 99.9935 124.018 100.422C123.854 100.85 123.813 101.325 123.66 101.759C123.508 102.193 123.355 102.627 123.214 103.067C123.074 103.507 122.81 103.906 122.68 104.346C122.551 104.786 122.516 105.256 122.399 105.701C122.282 106.147 122.129 106.581 122.018 107.027C121.906 107.473 121.724 107.901 121.619 108.353C121.513 108.805 121.525 109.274 121.431 109.726C121.337 110.178 121.196 110.617 121.108 111.069C121.02 111.521 121.032 111.99 120.956 112.442C120.879 112.894 120.733 113.339 120.662 113.791C120.592 114.243 120.586 114.712 120.522 115.164C120.457 115.616 120.393 116.073 120.334 116.531C120.275 116.988 120.111 117.428 120.058 117.886C120.005 118.344 120.07 118.813 120.023 119.27C119.976 119.728 119.777 120.168 119.73 120.631C119.683 121.095 119.706 121.552 119.665 122.01C119.624 122.468 119.56 122.925 119.524 123.383C119.489 123.84 119.489 124.304 119.454 124.761C119.419 125.219 119.413 125.682 119.384 126.14C119.354 126.598 119.255 127.055 119.225 127.513C119.196 127.97 119.255 128.44 119.225 128.897C119.196 129.355 119.202 129.818 119.178 130.276C119.161 130.733 119.137 131.197 119.114 131.654C119.09 132.112 119.02 132.575 119.008 133.033C118.996 133.49 118.967 133.954 118.949 134.417C118.932 134.881 118.92 135.338 118.914 135.802C118.903 136.265 118.996 136.723 118.991 137.186C118.985 137.65 119.002 138.107 118.996 138.571C118.991 139.034 118.955 139.492 118.961 139.955C118.967 140.419 118.914 140.876 118.926 141.34C118.938 141.803 118.961 159.261 118.979 159.724C118.996 160.188 119.084 160.645 119.102 161.103C119.12 161.56 119.131 162.006 119.161 162.464C119.612 162.886 119.847 163.156 120.299 163.578C120.979 163.731 120.997 163.543 121.689 163.543C122.381 163.543 122.387 163.508 123.079 163.508C123.772 163.508 123.777 163.59 124.47 163.59C125.162 163.59 125.168 163.584 125.86 163.584C126.552 163.584 126.558 163.619 127.25 163.619C127.943 163.619 127.948 163.631 128.641 163.631C129.333 163.631 129.339 163.643 130.031 163.643C130.723 163.643 130.729 163.637 131.421 163.637C132.114 163.637 132.119 163.655 132.812 163.655C133.504 163.655 133.51 163.567 134.202 163.567C134.894 163.567 134.9 163.567 135.598 163.567C136.296 163.567 136.296 163.643 136.989 163.643C137.681 163.643 137.687 163.567 138.379 163.567C139.071 163.567 139.077 163.672 139.769 163.672C140.461 163.672 140.467 163.608 141.165 163.608C141.864 163.608 141.864 163.643 142.556 163.643C143.248 163.643 143.254 163.567 143.946 163.567C144.638 163.567 144.644 163.549 145.336 163.549C146.029 163.549 146.035 163.631 146.727 163.631C147.419 163.631 147.419 163.537 148.117 163.537C148.815 163.537 148.815 163.649 149.507 163.649C150.2 163.649 150.206 163.567 150.898 163.567C151.59 163.567 151.596 163.619 152.288 163.619C152.98 163.619 152.986 163.508 153.678 163.508C154.371 163.508 154.376 163.531 155.069 163.531C155.761 163.531 155.767 163.549 156.465 163.549C157.163 163.549 157.163 163.614 157.855 163.614C158.547 163.614 158.553 163.649 159.251 163.649C159.95 163.649 159.95 163.537 160.648 163.537C161.346 163.537 161.346 163.66 162.044 163.66C162.742 163.66 162.742 163.584 163.44 163.584C164.138 163.584 164.138 163.614 164.836 163.614C165.534 163.614 165.534 163.555 166.232 163.555C166.931 163.555 166.931 163.573 167.623 163.573C168.315 163.573 168.321 163.52 169.019 163.52C169.717 163.52 169.717 163.625 170.415 163.625C171.113 163.625 171.113 163.672 171.811 163.672C172.509 163.672 172.509 163.602 173.208 163.602C173.906 163.602 173.906 163.584 174.604 163.584C175.302 163.584 175.302 163.578 176 163.578C176.639 163.578 176.639 163.549 177.279 163.549C177.953 163.549 177.953 163.578 178.634 163.578C179.314 163.578 179.309 163.531 179.983 163.531C180.658 163.531 180.658 163.678 181.338 163.678C182.019 163.678 182.019 163.549 182.693 163.549C183.368 163.549 183.374 163.537 184.049 163.537C184.723 163.537 184.729 163.531 185.404 163.531C186.078 163.531 186.084 163.614 186.759 163.614C187.434 163.614 187.439 163.555 188.114 163.555C188.836 163.555 188.836 163.537 189.563 163.537C190.29 163.537 190.29 163.561 191.012 163.561C191.734 163.561 191.739 163.573 192.461 163.573C193.183 163.573 193.188 163.52 193.91 163.52C194.632 163.52 194.637 163.619 195.359 163.619C196.081 163.619 196.081 163.561 196.808 163.561C197.535 163.561 197.535 163.537 198.257 163.537C198.979 163.537 198.984 163.631 199.706 163.631C200.428 163.631 200.433 163.537 201.155 163.537C201.877 163.537 201.882 163.643 202.604 163.643C203.326 163.643 203.331 163.666 204.059 163.666C204.786 163.666 204.786 163.514 205.514 163.514C206.124 163.514 206.699 163.35 207.039 162.915C207.379 162.481 207.543 161.842 207.403 161.255C207.291 160.809 207.168 160.369 207.051 159.924C206.933 159.478 206.763 159.05 206.646 158.604C206.529 158.158 206.341 140.735 206.218 140.29C206.094 139.844 206.094 139.369 205.971 138.929C205.848 138.489 205.66 138.06 205.531 137.62C205.402 137.18 205.215 136.752 205.085 136.312C204.956 135.872 204.945 135.391 204.816 134.951C204.687 134.511 204.505 134.083 204.37 133.643C204.235 133.203 204.059 132.775 203.924 132.335C203.789 131.895 203.771 131.42 203.636 130.98C203.502 130.54 203.343 130.111 203.208 129.671C203.073 129.231 202.897 128.803 202.762 128.363C203.214 128.844 203.085 128.944 203.455 129.49C203.824 130.035 203.942 129.959 204.317 130.499C204.692 131.044 204.634 131.085 205.009 131.631C205.385 132.176 205.32 132.217 205.696 132.763C206.071 133.309 206.182 133.232 206.558 133.778C206.933 134.324 206.828 134.4 207.203 134.945C207.579 135.491 207.467 135.614 208.001 136.013C208.341 135.726 208.711 135.456 209.022 135.139C209.333 134.822 209.544 134.417 209.82 134.071C210.095 133.725 210.418 133.408 210.659 133.039C210.899 132.669 211.075 132.253 211.286 131.865C211.497 131.478 211.668 131.068 211.855 130.669C212.043 130.27 212.289 129.894 212.448 129.478C212.606 129.061 212.741 128.639 212.882 128.222C213.017 127.8 213.093 127.36 213.21 126.932C213.334 126.468 213.562 126.034 213.656 125.565C213.75 125.096 213.75 124.609 213.826 124.139C213.903 123.67 213.908 123.189 213.955 122.714C214.002 122.239 214.038 121.769 214.067 121.288C214.09 120.813 214.225 120.338 214.225 119.863C214.225 119.388 214.137 118.913 214.114 118.431C214.09 117.95 214.014 117.487 213.967 117.012C213.92 116.537 213.955 116.056 213.885 115.58C213.815 115.105 213.791 114.624 213.697 114.155C213.603 113.686 213.498 113.216 213.381 112.753C213.263 112.289 213.105 111.838 212.964 111.38C212.823 110.923 212.606 110.494 212.448 110.043C212.289 109.591 212.107 109.151 211.926 108.711C211.744 108.271 211.65 107.784 211.445 107.356C211.239 106.928 210.917 106.552 210.688 106.136L210.758 106.141Z" fill="#8DB579"/>
<path d="M168.491 65.9741C168.479 66.4669 168.368 66.9538 168.373 67.4466C168.379 67.9394 168.485 68.4263 168.502 68.9191C168.52 69.4118 168.567 69.8987 168.602 70.3857C168.637 70.8726 168.544 71.3771 168.59 71.864C168.637 72.3509 168.749 72.8378 168.813 73.3247C168.878 73.8116 168.978 74.2927 169.054 74.7796C169.13 75.2665 169.124 75.7651 169.224 76.2462C169.318 76.7272 169.476 77.1965 169.582 77.6776C169.688 78.1586 169.899 78.6103 170.022 79.0855C170.11 79.414 170.174 79.8364 169.998 80.118C169.822 80.3937 169.441 80.4876 169.13 80.5228C168.655 80.5697 168.186 80.6225 167.711 80.6635C167.235 80.7046 166.76 80.7046 166.285 80.7339C165.81 80.7633 165.335 80.7691 164.859 80.7926C164.384 80.8161 163.909 80.8689 163.434 80.8865C162.959 80.9041 162.484 80.9158 162.008 80.9217C161.533 80.9275 161.058 80.8043 160.583 80.8043C160.108 80.8043 159.633 80.8806 159.157 80.863C158.682 80.8454 158.213 80.7457 157.738 80.7222C157.263 80.6987 156.787 80.7163 156.312 80.6811C155.837 80.6459 155.362 80.6342 154.893 80.5931C154.423 80.5521 153.942 80.5403 153.473 80.4934C153.004 80.4465 152.522 80.4113 152.053 80.3585C151.584 80.3057 151.126 80.118 150.657 80.0534C150.188 79.9889 149.707 79.9889 149.237 79.9127C149.091 79.8892 148.95 79.8599 148.844 79.7484C148.674 79.5724 148.721 79.2967 148.756 79.0444C148.827 78.5751 148.921 78.1117 148.979 77.6424C149.038 77.173 149.02 76.692 149.079 76.2227C149.132 75.7534 149.114 75.2782 149.161 74.803C149.208 74.3337 149.384 73.8761 149.425 73.401C149.466 72.9317 149.39 72.4506 149.425 71.9754C149.46 71.5061 149.472 71.031 149.501 70.5616C149.531 70.0923 149.578 69.6172 149.601 69.1478C149.624 68.6785 149.73 68.2034 149.748 67.734C149.765 67.2647 149.795 66.7896 149.8 66.3144C149.806 65.8392 149.654 65.3699 149.654 64.8947C149.654 64.4195 149.701 63.9502 149.695 63.4751C149.689 62.9999 149.712 62.5306 149.695 62.0554C149.677 61.5802 149.619 61.1109 149.595 60.6416" fill="#EBBEA7"/>
<path d="M187.75 52.8043C187.609 52.9041 187.422 52.9569 187.328 53.1094C187.064 53.5318 187.175 54.0773 187.175 54.576C187.175 55.0394 187.122 55.5029 187.076 55.9663C187.029 56.4298 186.894 56.8756 186.8 57.3332C186.706 57.7908 186.7 58.2659 186.571 58.7118C186.442 59.1576 186.184 59.5624 186.014 59.9965C185.844 60.4306 185.644 60.8413 185.445 61.2636C185.245 61.686 185.151 62.1612 184.917 62.5601C184.682 62.959 184.312 63.2758 184.049 63.663C183.785 64.0502 183.579 64.4726 183.292 64.8304C183.004 65.2 182.729 65.5813 182.418 65.9157C182.107 66.2501 181.708 66.5258 181.368 66.8367C181.016 67.1594 180.675 67.4879 180.312 67.7753C179.948 68.0628 179.526 68.3033 179.138 68.5614C178.739 68.8254 178.387 69.1481 177.977 69.371C177.566 69.5939 177.15 69.8403 176.721 70.0339C176.287 70.2275 175.806 70.2979 175.366 70.4563C174.926 70.6147 174.51 70.861 174.052 70.996C173.595 71.1309 173.149 71.2776 172.685 71.3831C172.222 71.4887 171.735 71.4418 171.272 71.5181C170.808 71.5943 170.345 71.6471 169.869 71.6999C169.394 71.7527 168.943 71.9287 168.473 71.9581C168.004 71.9874 167.529 71.8759 167.054 71.8877C166.578 71.8994 166.115 71.8994 165.64 71.8935C165.165 71.8877 164.701 71.8525 164.226 71.8349C163.751 71.8173 163.287 71.7997 162.812 71.7645C162.337 71.7293 161.868 71.7645 161.398 71.7293C160.929 71.6941 160.454 71.6706 159.985 71.6237C159.515 71.5767 159.046 71.5239 158.577 71.477C158.107 71.4301 157.638 71.389 157.169 71.3362C156.699 71.2834 156.23 71.2072 155.767 71.1544C155.292 71.1016 154.816 71.0488 154.347 70.9842C153.878 70.9197 153.397 70.8904 152.927 70.8082C152.458 70.7261 151.995 70.6088 151.531 70.4915C151.068 70.3741 150.593 70.292 150.141 70.1395C149.724 69.9987 149.308 69.8462 148.909 69.6643C148.51 69.4824 148.135 69.2419 147.753 69.0307C147.366 68.8195 146.996 68.5849 146.627 68.3502C146.257 68.1156 145.923 67.8223 145.565 67.57C145.207 67.3177 144.832 67.089 144.48 66.825C144.128 66.561 143.746 66.3322 143.406 66.0624C143.066 65.7925 142.79 65.4229 142.456 65.1472C142.092 64.848 141.74 64.5488 141.394 64.232C141.048 63.9153 140.631 63.6747 140.303 63.3404C139.974 63.006 139.728 62.5953 139.417 62.2433C139.106 61.8914 138.772 61.5628 138.478 61.1991C138.185 60.8354 137.933 60.4365 137.657 60.061C137.381 59.6856 137.076 59.3277 136.818 58.9347C136.56 58.5417 136.326 58.1369 136.085 57.738C135.844 57.339 135.686 56.8932 135.463 56.4767C135.24 56.0602 134.935 55.6965 134.73 55.2741C134.525 54.8517 134.337 54.4235 134.149 53.9952C133.961 53.567 133.832 53.1153 133.662 52.6753C133.498 52.2353 133.246 51.8305 133.099 51.3847C132.952 50.9388 132.812 50.493 132.683 50.0413C132.553 49.5896 132.548 49.1085 132.43 48.6509C132.319 48.1934 132.131 47.7592 132.037 47.3017C131.943 46.8441 131.967 46.3631 131.891 45.8996C131.814 45.4362 131.632 44.9903 131.58 44.5269C131.527 44.0634 131.456 43.5941 131.421 43.1307C131.386 42.6672 131.404 42.1921 131.386 41.7228C131.368 41.2534 131.363 40.7841 131.368 40.3148C131.368 39.8455 131.456 39.3821 131.48 38.9128C131.503 38.4434 131.41 37.9683 131.456 37.5048C131.503 37.0414 131.638 36.5838 131.709 36.1204C131.779 35.6569 131.803 35.1817 131.908 34.73C132.014 34.2783 132.172 33.8266 132.301 33.3808C132.43 32.9349 132.665 32.5184 132.817 32.0726C132.97 31.6267 133.046 31.1633 133.222 30.7292C133.398 30.2951 133.65 29.8961 133.85 29.4738C134.049 29.0514 134.137 28.5703 134.354 28.1597C134.571 27.749 134.794 27.3325 135.035 26.9336C135.275 26.5347 135.569 26.1593 135.827 25.7721C136.085 25.3849 136.355 24.9977 136.636 24.6223C136.918 24.2468 137.264 23.93 137.563 23.5663C137.863 23.2026 138.197 22.8858 138.514 22.5397C138.83 22.1936 139.094 21.8064 139.429 21.4779C139.757 21.1494 140.068 20.7915 140.414 20.4747C140.761 20.158 141.124 19.8646 141.488 19.5655C141.846 19.2721 142.221 18.9847 142.597 18.709C142.972 18.4332 143.389 18.2162 143.776 17.9522C144.163 17.6882 144.55 17.4301 144.949 17.1896C145.348 16.949 145.741 16.6909 146.152 16.468C146.562 16.2451 146.979 16.0398 147.401 15.8286C147.824 15.6174 148.205 15.3358 148.633 15.1481C149.061 14.9603 149.519 14.8371 149.953 14.667C150.387 14.4969 150.839 14.3678 151.279 14.2153C151.719 14.0628 152.165 13.9161 152.611 13.7871C153.056 13.658 153.502 13.4996 153.954 13.3882C154.406 13.2767 154.869 13.2004 155.327 13.1066C155.784 13.0127 156.254 12.9834 156.717 12.913C157.181 12.8426 157.638 12.7898 158.107 12.7429C158.577 12.6959 159.034 12.6783 159.504 12.649C159.979 12.6197 160.448 12.5669 160.929 12.561C161.41 12.5551 161.885 12.4789 162.361 12.4965C162.836 12.5141 163.311 12.6138 163.786 12.6607C164.261 12.7077 164.731 12.7722 165.206 12.8426C165.681 12.913 166.156 12.9482 166.625 13.042C167.095 13.1359 167.576 13.1594 168.045 13.2708C168.514 13.3823 168.972 13.5055 169.429 13.6404C169.887 13.7753 170.333 13.9631 170.785 14.1214C171.236 14.2798 171.641 14.5497 172.081 14.7316C172.521 14.9134 172.985 15.0483 173.413 15.2537C173.841 15.459 174.252 15.7112 174.668 15.94C175.085 16.1688 175.554 16.3213 175.953 16.5736C176.352 16.8258 176.698 17.1778 177.085 17.4536C177.472 17.7293 177.854 18.0167 178.223 18.3159C178.593 18.6151 179.009 18.8615 179.361 19.1841C179.713 19.5068 179.983 19.9116 180.317 20.2518C180.652 20.5921 180.975 20.9382 181.28 21.3078C181.579 21.6656 181.913 21.9941 182.177 22.3696C182.447 22.7509 182.758 23.1029 182.998 23.4959C183.239 23.8948 183.421 24.3289 183.632 24.7396C183.843 25.1502 183.978 25.6019 184.16 26.0243C184.342 26.4467 184.606 26.8456 184.758 27.2797C184.911 27.7138 184.946 28.189 185.081 28.6349C185.21 29.0807 185.339 29.5207 185.445 29.9724C185.556 30.4241 185.709 30.8582 185.797 31.3158C185.885 31.7734 185.984 32.2192 186.055 32.6827C186.125 33.1461 186.248 33.592 186.307 34.0495C186.366 34.5071 186.307 34.9823 186.354 35.4457C186.401 35.9033 186.53 36.3609 186.571 36.8243C186.612 37.2878 186.659 37.7453 186.688 38.2088C186.718 38.6722 186.612 39.1415 186.636 39.605C186.659 40.0684 186.741 40.5319 186.765 40.9895C186.788 41.447 186.841 41.9163 186.864 42.3739C186.888 42.8315 186.817 43.3067 186.847 43.7642C186.876 44.2277 186.97 44.7029 186.999 45.1663C187.422 45.0783 187.879 44.9023 188.313 44.8965C188.747 44.8906 189.223 44.9727 189.616 45.1898C190.126 45.4772 190.478 45.9876 190.666 46.5449C190.853 47.1022 190.906 47.7006 190.889 48.252C190.871 48.7507 190.765 49.2728 190.631 49.7597C190.496 50.2583 190.273 50.7335 189.991 51.1442C189.71 51.5665 189.352 51.9655 188.9 52.2118C188.525 52.4172 188.102 52.558 187.768 52.7985L187.75 52.8043Z" fill="#EBBEA7"/>
<path d="M188.313 46.5624C188.313 46.5624 188.483 46.4158 188.413 46.4921C188.366 46.5097 188.366 46.5097 188.413 46.4921C188.478 46.4745 188.46 46.4745 188.366 46.4921C188.436 46.5214 188.46 46.4862 188.366 46.4745C188.384 46.4745 188.589 46.5272 188.489 46.4979C188.401 46.4686 188.595 46.5566 188.601 46.5566C188.659 46.5918 188.677 46.627 188.618 46.5683C188.736 46.6798 188.7 46.6446 188.777 46.7795C188.794 46.8147 188.859 46.9731 188.818 46.8675C188.841 46.9438 188.865 47.0142 188.882 47.0904C188.9 47.1491 188.912 47.2136 188.923 47.2781C188.935 47.3427 188.935 47.3427 188.923 47.2781L188.935 47.372C188.964 47.7181 188.964 48.0642 188.935 48.4103C188.882 48.997 188.73 49.5602 188.425 50.0353C188.155 50.4636 187.774 50.7393 187.293 50.8742C186.811 51.0092 186.553 51.4961 186.677 51.9595C186.8 52.4171 187.298 52.7045 187.762 52.5755C189.786 52.0006 190.648 50.0236 190.718 48.0642C190.754 47.1315 190.595 46.1283 189.95 45.4068C189.346 44.7263 188.19 44.4799 187.427 45.0372C187.046 45.3188 186.853 45.7998 187.111 46.2398C187.334 46.6211 187.926 46.8382 188.313 46.5566V46.5624Z" fill="#A55535"/>
<path d="M177.109 46.0994C178.032 46.0994 178.781 44.9542 178.781 43.5416C178.781 42.129 178.032 40.9839 177.109 40.9839C176.185 40.9839 175.437 42.129 175.437 43.5416C175.437 44.9542 176.185 46.0994 177.109 46.0994Z" fill="#2B2927"/>
<path d="M178.534 34.2959C177.989 34.2665 177.443 34.3897 176.898 34.4249C176.352 34.4601 175.765 34.5129 175.208 34.6361C174.176 34.8649 173.102 35.2051 172.169 35.7096C171.753 35.9384 171.618 36.5133 171.852 36.9123C172.099 37.3346 172.639 37.4578 173.055 37.229C173.431 37.0237 173.818 36.8888 174.258 36.7304C174.698 36.572 175.19 36.4371 175.671 36.3315C176.094 36.2376 176.528 36.2142 177.003 36.179C177.514 36.1379 178.012 36.0264 178.528 36.0558C179.004 36.0792 179.408 35.6334 179.408 35.1758C179.408 34.6772 179.004 34.3193 178.528 34.2959H178.534Z" fill="#2B2927"/>
<path d="M172.545 52.6811C171.26 54.2826 170.122 56.1246 169.571 58.1192C169.301 59.1048 168.99 60.0786 168.732 61.07C168.597 61.5804 168.603 62.0966 168.585 62.6187C168.567 63.1408 168.544 63.6805 168.55 64.2144C168.55 64.9711 169.723 64.9711 169.723 64.2144C169.723 63.7275 169.729 63.2406 169.752 62.7537C169.776 62.2668 169.752 61.7916 169.876 61.3164C170.128 60.3954 170.415 59.4861 170.662 58.5592C171.154 56.7172 172.181 54.9866 173.366 53.5082C173.566 53.2619 173.607 52.9216 173.366 52.6811C173.161 52.4758 172.738 52.4347 172.539 52.6811H172.545Z" fill="#BC7F6C"/>
<path d="M171.576 43.8524C170.872 43.8524 170.174 43.7938 169.476 43.7938C169.171 43.7938 168.878 44.0636 168.89 44.3804C168.901 44.6972 169.148 44.967 169.476 44.967C170.18 44.967 170.878 45.0257 171.576 45.0257C171.881 45.0257 172.175 44.7559 172.163 44.4391C172.151 44.1223 171.905 43.8524 171.576 43.8524Z" fill="#BC7F6C"/>
<path d="M171.858 46.1578C171.207 46.2399 170.567 46.4041 169.922 46.4921L170.081 46.4687H170.045C169.881 46.4921 169.752 46.5273 169.629 46.6447C169.529 46.7444 169.453 46.9145 169.459 47.0612C169.465 47.2078 169.517 47.3721 169.629 47.4777C169.734 47.5774 169.893 47.6713 170.045 47.6478C170.697 47.5657 171.336 47.4014 171.981 47.3134L171.823 47.3369H171.858C172.022 47.3134 172.151 47.2782 172.275 47.1609C172.374 47.0612 172.451 46.8911 172.445 46.7444C172.439 46.5977 172.386 46.4335 172.275 46.3279C172.169 46.2282 172.011 46.1343 171.858 46.1578Z" fill="#BC7F6C"/>
<path d="M145.952 45.706C146.187 45.1839 146.492 44.6735 146.809 44.1455C147.067 43.7114 147.319 43.2773 147.607 42.8725C147.894 42.4677 148.176 42.0395 148.492 41.6582C148.809 41.2769 149.179 40.9249 149.519 40.5612C149.859 40.1974 150.246 39.8748 150.604 39.5228C150.962 39.1708 151.349 38.854 151.707 38.5079C152.065 38.1618 152.376 37.7629 152.734 37.4109C153.092 37.0589 153.455 36.7187 153.807 36.3608C154.159 36.003 154.535 35.7273 154.863 35.3812C155.192 35.035 155.415 34.5833 155.737 34.2313C156.06 33.8794 156.476 33.6095 156.793 33.2517C157.11 32.8938 157.427 32.536 157.738 32.1722C158.049 31.8085 158.277 31.3744 158.588 31.0107C158.899 30.647 159.269 30.3302 159.568 29.9606C159.867 29.591 160.125 29.1804 160.425 28.8049C160.724 28.4295 161.076 28.101 161.369 27.7197C161.662 27.3383 161.874 26.9042 162.161 26.5229C162.448 26.1416 162.812 25.8131 163.094 25.4259C163.317 25.1209 163.504 24.7689 163.774 24.4932C164.044 24.2174 164.378 24.0004 164.742 23.8713C165.294 23.6777 165.904 23.8127 166.485 23.8948C166.966 23.9593 167.464 23.9241 167.951 24.0004C168.438 24.0766 168.896 24.2644 169.377 24.3406C169.858 24.4169 170.339 24.5166 170.82 24.5929C171.301 24.6692 171.805 24.6105 172.286 24.6809C172.767 24.7513 173.231 24.9742 173.712 25.0387C174.193 25.1033 174.692 25.0857 175.173 25.1443C175.654 25.203 176.146 25.2089 176.633 25.2499C177.12 25.291 177.601 25.42 178.088 25.4435C178.575 25.467 179.062 25.4494 179.555 25.4494C180.048 25.4494 180.534 25.4904 181.021 25.467C181.508 25.4435 181.989 25.3145 182.476 25.2617C182.963 25.2089 183.438 25.1091 183.919 25.027C184.4 24.9449 184.905 24.9566 185.374 24.8393C185.844 24.7219 186.289 24.4814 186.747 24.323C187.205 24.1646 187.645 23.9535 188.09 23.7599C188.536 23.5663 189.029 23.4607 189.457 23.2202C189.792 23.0324 190.149 22.8095 190.431 22.5455C190.713 22.2815 190.83 21.8885 190.93 21.5013C191.053 21.0085 191.041 20.4923 190.76 20.064C190.478 19.6358 190.056 19.2956 189.604 19.102C189.152 18.9084 188.63 18.791 188.126 18.7676C187.621 18.7441 187.181 18.8321 186.682 18.8673C187.158 18.6209 187.328 18.1281 187.357 17.5943C187.386 17.0605 187.222 16.5618 186.911 16.157C186.6 15.7523 186.178 15.4355 185.709 15.1891C185.239 14.9427 184.747 14.7784 184.26 14.6083C183.826 14.4558 183.397 14.2739 182.963 14.1214C182.529 13.9689 182.095 13.8105 181.661 13.6521C181.227 13.4937 180.781 13.3764 180.347 13.2238C179.913 13.0713 179.484 12.8953 179.056 12.7428C178.628 12.5903 178.17 12.4906 177.736 12.3439C177.302 12.1972 176.862 12.0623 176.422 11.9215C175.982 11.7807 175.566 11.5871 175.126 11.4522C174.686 11.3173 174.252 11.1706 173.812 11.0357C173.372 10.9008 172.943 10.7248 172.503 10.6016C172.063 10.4784 171.606 10.4021 171.16 10.2907C170.714 10.1792 170.251 10.1323 169.805 10.0325C169.359 9.93282 168.925 9.73336 168.473 9.65123C168.022 9.5691 167.564 9.49284 167.112 9.42244C166.661 9.35204 166.185 9.40484 165.734 9.35204C165.282 9.29925 164.83 9.15259 164.373 9.11152C163.915 9.07046 163.452 9.08806 162.994 9.07046C162.536 9.05286 162.079 9.00006 161.615 9.00006C161.152 9.00006 160.7 9.05872 160.237 9.08219C159.773 9.10566 159.322 9.12325 158.858 9.16432C158.395 9.20538 157.937 9.18192 157.48 9.24645C157.022 9.31098 156.588 9.48697 156.136 9.57496C155.655 9.66296 155.192 9.76855 154.734 9.89175C154.277 10.0149 153.79 10.1147 153.344 10.2672C152.898 10.4197 152.47 10.6778 152.024 10.8538C151.578 11.0298 151.132 11.2058 150.686 11.3877C150.241 11.5695 149.754 11.6458 149.308 11.8277C148.862 12.0095 148.445 12.2676 148 12.4378C147.554 12.6079 147.067 12.6665 146.603 12.8132C146.14 12.9599 145.718 13.2063 145.248 13.3177C144.779 13.4292 144.315 13.5465 143.834 13.6169C143.353 13.6873 142.884 13.6873 142.391 13.7049C141.904 13.7284 141.441 13.7694 140.995 13.8457C140.52 13.9278 140.045 13.963 139.611 14.0979C139.177 14.2329 138.766 14.5321 138.349 14.7256C137.933 14.9192 137.487 15.0894 137.088 15.3357C136.689 15.5821 136.355 15.9107 135.985 16.204C135.616 16.4973 135.234 16.7554 134.894 17.0781C134.554 17.4007 134.149 17.653 133.826 17.9991C133.504 18.3452 133.257 18.7441 132.946 19.102C132.636 19.4598 132.278 19.759 131.978 20.1227C131.679 20.4864 131.468 20.9381 131.175 21.296C130.881 21.6538 130.588 22.041 130.301 22.4047C130.013 22.7684 129.691 23.1322 129.421 23.5076C129.151 23.8831 128.887 24.2878 128.641 24.6809C128.394 25.0739 128.089 25.4494 127.872 25.8659C127.655 26.2824 127.414 26.693 127.233 27.133C127.051 27.573 126.963 28.0365 126.822 28.4882C126.681 28.9399 126.617 29.3974 126.523 29.8668C126.429 30.3361 126.347 30.776 126.294 31.2571C126.241 31.7088 126.2 32.1781 126.188 32.665C126.177 33.1167 126.106 33.5684 126.118 34.0202C126.13 34.4719 126.165 34.9236 126.206 35.3753C126.247 35.827 126.317 36.2728 126.376 36.7246C126.435 37.1763 126.499 37.6221 126.581 38.068C126.664 38.5138 126.851 38.9362 126.951 39.3762C127.051 39.8161 127.104 40.2678 127.221 40.7078C127.338 41.1478 127.432 41.5878 127.561 42.0219C127.69 42.456 127.837 42.8843 127.978 43.3125C128.118 43.7407 128.3 44.1573 128.453 44.5855C128.605 45.0137 128.74 45.442 128.899 45.8644C129.057 46.2867 129.18 46.7267 129.344 47.1491C129.515 47.5773 129.673 48.0115 129.849 48.4397C130.025 48.8679 130.178 49.3021 130.354 49.7303C130.529 50.1585 130.741 50.5692 130.923 50.9916C131.104 51.414 131.368 51.807 131.55 52.2294C131.732 52.6518 131.861 53.1035 132.049 53.5258C132.237 53.9482 132.413 54.3765 132.606 54.793C132.8 55.2095 133.023 55.6143 133.216 56.0367C133.41 56.459 133.674 56.8404 133.873 57.2569C134.073 57.6734 134.272 58.0899 134.466 58.5064C134.659 58.9229 134.83 59.357 135.029 59.7735C135.228 60.1901 135.334 60.6535 135.534 61.07C135.733 61.4865 135.991 61.8737 136.196 62.2902C136.402 62.7067 136.566 63.135 136.765 63.5515C136.965 63.968 137.264 64.3376 137.464 64.7482C137.663 65.1589 137.774 65.6223 137.98 66.0388C138.191 66.4729 138.426 66.9305 138.707 67.3236C138.989 67.7166 139.405 68.0099 139.863 68.2153C140.356 68.4323 140.878 68.5555 141.394 68.6963C141.84 68.8195 142.256 69.0131 142.673 69.2712C143.089 69.5293 143.494 69.7464 143.881 70.0221C144.269 70.2978 144.697 70.5383 145.084 70.773C145.512 71.037 145.911 71.2892 146.345 71.389C146.779 71.4887 147.278 71.5356 147.753 71.3244C148.234 71.1132 148.545 70.6615 148.792 70.1981C149.038 69.7346 149.278 69.2419 149.296 68.7315C149.314 68.2211 149.22 67.6814 149.091 67.1769C148.962 66.6724 148.727 66.1972 148.557 65.7103C148.398 65.2762 148.222 64.848 148.064 64.4197C147.906 63.9915 147.683 63.5749 147.524 63.1408C147.366 62.7067 147.301 62.2374 147.143 61.8033C146.985 61.3692 146.738 60.9644 146.586 60.5303C146.433 60.0962 146.263 59.6621 146.116 59.2221C145.97 58.7821 145.964 58.3011 145.835 57.8611C145.706 57.4211 145.53 56.987 145.418 56.5412C145.307 56.0953 145.178 55.6495 145.09 55.1978C145.002 54.7461 145.019 54.2767 144.961 53.8192C144.902 53.3616 144.802 52.9099 144.779 52.4523C144.755 51.9947 144.656 51.5313 144.667 51.0678C144.679 50.6044 144.726 50.1468 144.785 49.6834C144.843 49.2317 144.908 48.7682 145.014 48.3106C145.119 47.8531 145.231 47.4131 145.377 46.9672C145.524 46.5214 145.747 46.1284 145.94 45.6942L145.952 45.706Z" fill="#97928C"/>
<path d="M140.004 57.0634C140.326 57.4095 140.661 57.738 141.024 58.0431C141.376 58.3364 141.746 58.6414 142.186 58.882C142.597 59.1049 143.019 59.3454 143.482 59.5155C143.946 59.6857 144.386 59.8558 144.861 59.9672C145.336 60.0787 145.811 60.1256 146.292 60.1784C146.774 60.2312 147.26 60.2195 147.736 60.2195C148.211 60.2195 148.709 60.2371 149.179 60.1667C149.648 60.0963 150.153 60.0083 150.598 59.8675C151.068 59.7209 151.467 59.4217 151.871 59.187C152.276 58.9524 152.728 58.7177 153.056 58.3716C153.385 58.0255 153.666 57.6266 153.878 57.1866C154.071 56.7759 154.236 56.3125 154.312 55.808C154.376 55.368 154.37 54.8752 154.329 54.359C154.294 53.9073 154.241 53.4204 154.153 52.91C154.077 52.4524 153.925 51.9831 153.807 51.4903C153.702 51.0328 153.602 50.5517 153.461 50.0765C153.326 49.619 153.103 49.179 152.939 48.7155C152.775 48.2521 152.693 47.7769 152.505 47.3193C152.323 46.8735 152.135 46.4159 151.93 45.9759C151.725 45.536 151.531 45.0843 151.296 44.656C151.062 44.2278 150.716 43.864 150.458 43.4593C150.188 43.0428 149.924 42.638 149.63 42.2625C149.337 41.8871 148.991 41.5234 148.662 41.1772C148.316 40.8194 148.041 40.397 147.671 40.0978C147.284 39.7869 146.791 39.6403 146.375 39.4173C145.958 39.1944 145.53 38.9187 145.072 38.7838C144.609 38.6488 144.134 38.5139 143.653 38.4846C143.172 38.4552 142.679 38.4846 142.204 38.5608C141.728 38.6371 141.288 38.86 140.837 39.0302C140.385 39.2003 139.939 39.3763 139.534 39.6403C139.106 39.9277 138.69 40.2386 138.338 40.6082C137.986 40.9778 137.663 41.3943 137.393 41.8284C137.123 42.2625 136.947 42.7553 136.754 43.2305C136.56 43.7057 136.396 44.1926 136.29 44.6912C136.185 45.1898 136.02 45.6943 135.991 46.2106C135.962 46.7268 135.956 47.2489 135.991 47.7593C136.026 48.2697 136.22 48.7683 136.308 49.2728C136.396 49.7773 136.402 50.3053 136.537 50.804C136.66 51.2674 136.918 51.6898 137.082 52.1474C137.247 52.6049 137.387 53.0567 137.593 53.4966C137.798 53.9307 138.027 54.3531 138.267 54.7696C138.514 55.1862 138.742 55.6085 139.03 55.9957C139.317 56.3829 139.687 56.6997 140.015 57.0517L140.004 57.0634Z" fill="#EBBEA7"/>
<path d="M140.878 48.6333C141.5 48.8093 142.139 48.8914 142.743 49.1261C143.312 49.349 143.852 49.5719 144.45 49.701C145.753 49.9826 146.996 50.4578 148.263 50.8567C149.349 51.1911 149.812 49.4957 148.733 49.1613C147.46 48.7683 146.222 48.2931 144.92 48.0056C144.321 47.8766 143.782 47.6478 143.212 47.4307C142.608 47.1961 141.969 47.1198 141.347 46.9379C140.256 46.6212 139.792 48.3224 140.878 48.6333Z" fill="#A55535"/>
<path d="M177.836 58.6767C178.129 58.4538 178.428 58.2544 178.757 58.0901C178.827 58.0549 178.898 58.0197 178.968 57.9845C179.015 57.961 179.062 57.9434 179.109 57.92C179.021 57.9552 179.027 57.9552 179.121 57.92C179.285 57.8554 179.455 57.7968 179.625 57.744C179.795 57.6912 179.971 57.6501 180.141 57.6091C180.247 57.5856 180.358 57.568 180.464 57.5504C180.312 57.5739 180.54 57.5445 180.576 57.5387C180.98 57.5035 181.385 57.5211 181.79 57.5621C182.247 57.6091 182.687 57.128 182.67 56.6822C182.646 56.1659 182.283 55.8491 181.79 55.8022C180.071 55.6321 178.329 56.1131 176.95 57.1573C176.762 57.304 176.61 57.4448 176.545 57.6853C176.487 57.8965 176.516 58.1781 176.633 58.3658C176.868 58.7295 177.443 58.9818 177.836 58.6826V58.6767Z" fill="#A55535"/>
<path d="M182.236 100.064C182.711 100.152 183.162 100.181 183.614 100.164C184.066 100.146 184.565 100.205 185.016 100.099C185.468 99.9934 185.867 99.7236 186.307 99.5476C186.747 99.3716 187.163 99.2132 187.58 98.9903C187.996 98.7674 188.413 98.5855 188.812 98.3332C189.199 98.0869 189.539 97.7525 189.926 97.4826C190.314 97.2128 190.736 97.0192 191.117 96.7435C191.499 96.4677 191.815 96.1158 192.191 95.8459C192.566 95.576 192.948 95.2945 193.335 95.0422C193.722 94.79 194.156 94.5905 194.561 94.3617C194.966 94.1329 195.365 93.8748 195.787 93.6812C196.233 93.4759 196.69 93.2823 197.154 93.1415C197.617 93.0007 198.128 93.0124 198.609 92.9244C199.09 92.8365 199.565 92.7367 200.046 92.7015C200.527 92.6663 201.02 92.5842 201.507 92.6077C201.994 92.6311 202.469 92.7602 202.956 92.8247C203.443 92.8892 203.929 92.9244 204.405 93.0359C204.88 93.1474 205.355 93.2647 205.818 93.4172C206.282 93.5697 206.722 93.7927 207.168 93.9863C207.614 94.1798 208.048 94.4028 208.482 94.6316C208.916 94.8604 209.291 95.1771 209.702 95.4411C210.113 95.7051 210.576 95.8928 210.963 96.1803C211.35 96.4677 211.673 96.8491 212.043 97.1717C212.406 97.4944 212.788 97.8053 213.122 98.1514C213.439 98.4799 213.697 98.8495 213.99 99.1956C214.284 99.5417 214.63 99.8468 214.9 100.205C215.169 100.562 215.498 100.897 215.75 101.272C216.002 101.648 216.255 102.029 216.489 102.416C216.724 102.803 216.941 103.208 217.158 103.607C217.375 104.006 217.475 104.464 217.674 104.874C217.874 105.285 218.044 105.701 218.232 106.118C218.419 106.534 218.59 106.945 218.76 107.367C218.93 107.79 219.118 108.2 219.276 108.629C219.434 109.057 219.64 109.462 219.786 109.896C219.933 110.33 220.009 110.776 220.144 111.21C220.279 111.644 220.408 112.078 220.531 112.512C220.654 112.946 220.813 113.38 220.924 113.815C221.036 114.249 221.118 114.7 221.229 115.14C221.347 115.61 221.446 116.085 221.558 116.554C221.669 117.024 221.857 117.481 221.957 117.956C222.057 118.431 222.15 118.907 222.238 119.382C222.326 119.857 222.297 120.356 222.373 120.831C222.45 121.306 222.608 121.775 222.673 122.256C222.737 122.737 222.714 123.224 222.761 123.705C222.807 124.186 222.948 124.662 222.978 125.143C223.007 125.624 222.995 126.111 223.007 126.597C223.019 127.084 222.942 127.565 222.931 128.046C222.919 128.527 222.942 129.014 222.907 129.495C222.872 129.976 222.755 130.452 222.69 130.933C222.626 131.414 222.573 131.889 222.485 132.364C222.397 132.839 222.321 133.314 222.197 133.784C222.08 134.253 222.051 134.752 221.904 135.209C221.757 135.667 221.476 136.083 221.294 136.529C221.112 136.975 221.024 137.474 220.813 137.902C220.602 138.33 220.338 138.753 220.091 139.169C219.845 139.586 219.546 139.973 219.27 140.366C218.994 140.759 218.76 141.193 218.455 141.568C218.15 141.944 217.739 142.22 217.387 142.525C217.035 142.83 216.671 143.158 216.272 143.405C215.873 143.651 215.433 143.845 214.999 144.05C214.565 144.255 214.108 144.367 213.662 144.531C213.216 144.695 212.811 144.965 212.354 145.106C211.896 145.247 211.438 145.358 210.981 145.487C210.523 145.616 210.036 145.692 209.567 145.816C209.098 145.939 208.652 146.138 208.177 146.244C207.707 146.344 207.215 146.367 206.739 146.455C206.264 146.543 205.777 146.543 205.296 146.608C204.815 146.672 204.352 146.842 203.871 146.895C203.39 146.942 202.903 146.895 202.422 146.919C201.941 146.942 201.46 147.042 200.979 147.053C200.498 147.065 200.011 147.112 199.53 147.106C199.049 147.106 198.562 147.118 198.081 147.1C197.6 147.077 197.113 147.053 196.632 147.012C196.151 146.971 195.67 146.913 195.189 146.854C194.708 146.795 194.226 146.737 193.751 146.655C193.276 146.572 192.824 146.367 192.349 146.273" fill="#8DB579"/>
<path d="M188.853 93.001C188.624 94.1098 188.519 95.2537 188.413 96.3801C188.307 97.5064 188.343 98.6327 188.349 99.765C188.349 100.891 188.419 102.029 188.472 103.15C188.519 104.264 188.724 105.391 188.706 106.505C188.7 107.016 188.683 107.503 188.747 108.013C188.818 108.565 188.847 109.098 188.841 109.65C188.841 110.154 188.876 110.653 188.906 111.152C188.947 111.756 188.818 112.331 188.824 112.935C188.835 113.439 188.97 113.932 188.97 114.437C188.97 114.982 188.953 115.534 188.953 116.079C188.953 117.176 188.947 118.268 188.929 119.365C188.912 120.55 189.017 121.74 188.906 122.92C188.847 123.518 188.812 124.093 188.812 124.697C188.812 125.336 188.736 125.97 188.7 126.609C188.677 127.085 189.123 127.489 189.58 127.489C190.079 127.489 190.437 127.085 190.46 126.609C190.49 126.064 190.572 125.518 190.572 124.973C190.572 124.427 190.554 123.882 190.613 123.33C190.73 122.286 190.724 121.236 190.689 120.186C190.654 119.118 190.707 118.039 190.707 116.971C190.707 115.903 190.812 114.742 190.666 113.657C190.601 113.17 190.578 112.741 190.636 112.249C190.701 111.691 190.66 111.163 190.625 110.606C190.589 110.102 190.607 109.603 190.601 109.098C190.601 108.523 190.466 107.966 190.449 107.391C190.431 106.863 190.484 106.341 190.443 105.819C190.396 105.262 190.349 104.71 190.302 104.153C190.22 103.05 190.196 101.941 190.138 100.839C190.009 98.3922 190.05 95.8697 190.548 93.4645C190.642 93.001 190.413 92.5141 189.932 92.3792C189.498 92.2619 188.947 92.5258 188.847 92.9952L188.853 93.001Z" fill="#699055"/>
<path d="M199.272 102.217C199.788 102.363 200.251 102.451 200.685 102.481C201.225 102.516 201.695 102.498 202.117 102.381C202.61 102.24 203.003 101.988 203.355 101.671C203.707 101.354 203.971 100.973 204.199 100.521C204.411 100.111 204.551 99.6591 204.675 99.1722C204.792 98.7205 204.921 98.257 204.98 97.7642C205.032 97.2949 205.044 96.8139 205.056 96.3211C205.068 95.8283 205.156 95.3532 205.138 94.8721C205.12 94.3911 204.939 93.91 204.898 93.4349C204.856 92.9597 204.88 92.4493 204.815 91.9859C204.745 91.4814 204.71 90.9886 204.634 90.5486C204.546 90.0089 204.375 89.5455 204.293 89.1407C204.194 88.6479 204.176 88.1493 204.059 87.6682C203.941 87.1872 203.701 86.7355 203.56 86.2662C203.419 85.7968 203.325 85.2982 203.161 84.8348C202.997 84.3713 202.868 83.8844 202.674 83.4268C202.481 82.9692 202.211 82.5469 201.994 82.101C201.777 81.6552 201.53 81.2328 201.29 80.7928C201.049 80.3528 200.903 79.8777 200.639 79.4494C200.416 79.0916 200.181 78.7337 199.929 78.3935C199.676 78.0532 199.336 77.7775 199.043 77.4842C198.75 77.1909 198.439 76.8858 198.081 76.6629C197.729 76.4458 197.306 76.3461 196.896 76.2464C196.479 76.1467 196.075 76.1056 195.658 76.1584C195.241 76.2112 194.872 76.3578 194.514 76.5984C194.174 76.8271 193.81 77.0266 193.599 77.3727C193.388 77.7188 193.347 78.1295 193.247 78.5284C193.153 78.9214 193.065 79.3145 193.065 79.7075C193.065 80.1006 193.065 80.5171 193.124 80.916C193.182 81.3149 193.241 81.7138 193.311 82.1069C193.382 82.4999 193.54 82.8871 193.587 83.286C193.64 83.726 193.534 84.1777 193.546 84.6177C193.558 85.0577 193.534 85.4976 193.511 85.9376C193.487 86.3776 193.593 86.8293 193.552 87.2693C193.511 87.7093 193.347 88.1375 193.3 88.5775C193.253 89.0175 193.206 89.4575 193.165 89.8974C193.124 90.3374 193.153 90.7833 193.13 91.2291C193.106 91.6749 193.112 92.1149 193.118 92.5549C193.124 92.9949 193.218 93.429 193.27 93.869C193.329 94.3676 193.394 94.8545 193.523 95.3414C193.652 95.8283 193.804 96.2977 193.992 96.7611C194.18 97.2245 194.285 97.7349 194.532 98.169C194.778 98.6031 195.165 98.9551 195.464 99.354C195.787 99.7881 196.11 100.222 196.503 100.592C196.896 100.961 197.289 101.354 197.752 101.636C198.216 101.918 198.744 102.07 199.266 102.217H199.272Z" fill="#D6A792"/>
<path d="M190.813 101.748C191.112 102.07 191.423 102.416 191.71 102.792C191.98 103.144 192.15 103.59 192.42 103.977C192.69 104.364 193.059 104.64 193.318 105.027C193.576 105.414 193.722 105.854 193.98 106.241C194.233 106.623 194.473 107.016 194.737 107.391C195.001 107.767 195.371 108.072 195.647 108.43C195.928 108.799 196.151 109.21 196.45 109.55C196.749 109.89 197.096 110.219 197.424 110.524C197.764 110.846 198.116 111.134 198.486 111.398C198.855 111.662 199.272 111.873 199.683 112.073C200.093 112.272 200.516 112.419 200.967 112.53C201.401 112.636 201.841 112.724 202.317 112.735C202.757 112.747 203.22 112.806 203.695 112.73C204.17 112.653 204.575 112.43 204.998 112.307C205.443 112.172 205.901 112.096 206.306 111.914C206.71 111.732 207.156 111.533 207.526 111.286C207.896 111.04 208.201 110.659 208.529 110.354C208.858 110.049 209.245 109.773 209.526 109.415C209.808 109.057 210.048 108.658 210.266 108.265C210.488 107.866 210.664 107.444 210.823 107.016C210.981 106.587 211.069 106.142 211.163 105.696C211.257 105.25 211.374 104.804 211.392 104.347C211.409 103.889 211.439 103.431 211.392 102.974C211.345 102.516 211.122 102.1 211.016 101.654C210.911 101.208 210.887 100.75 210.723 100.322C210.547 99.8588 210.295 99.4246 210.119 98.9729C209.943 98.5212 209.808 98.0343 209.632 97.5767C209.456 97.1192 209.21 96.685 209.034 96.2275C208.858 95.7699 208.828 95.2537 208.658 94.7902C208.488 94.3268 208.289 93.875 208.124 93.4175C207.96 92.9599 207.796 92.4906 207.637 92.0271C207.479 91.5637 207.244 91.1237 207.098 90.6485C206.951 90.1792 206.828 89.7041 206.693 89.2289C206.558 88.7537 206.505 88.2668 206.388 87.7858C206.271 87.3106 206.071 86.853 205.971 86.3661C205.872 85.8792 205.86 85.404 205.754 84.9288C205.649 84.4595 205.479 84.0019 205.367 83.5268C205.256 83.0575 205.15 82.5823 205.033 82.113C204.91 81.6437 204.734 81.1919 204.599 80.7285C204.464 80.2651 204.358 79.7899 204.206 79.3323C204.053 78.8747 203.918 78.4054 203.742 77.9537C203.56 77.502 203.367 77.062 203.161 76.622C202.956 76.1821 202.692 75.7773 202.457 75.3549C202.223 74.9325 201.982 74.516 201.718 74.1112C201.454 73.7065 201.202 73.2958 200.903 72.9145C200.621 72.5508 200.31 72.2223 200.005 71.8879C199.7 71.5535 199.372 71.2367 199.037 70.9199C198.703 70.6031 198.351 70.3274 197.993 70.04C197.635 69.7525 197.301 69.4475 196.92 69.1893C196.538 68.9312 196.145 68.7083 195.746 68.4854C195.347 68.2625 194.989 67.9633 194.573 67.7697C194.156 67.5761 193.681 67.5292 193.259 67.3708C192.837 67.2124 192.426 66.9895 191.992 66.8604C191.687 66.7724 191.358 66.6551 191.041 66.7079C190.59 66.7841 190.308 67.1654 190.132 67.5878C189.956 68.0102 189.851 68.4619 189.98 68.8784C190.109 69.2949 190.461 69.6176 190.76 69.952C191.059 70.2864 191.346 70.6207 191.687 70.9023C192.009 71.1722 192.326 71.5183 192.702 71.8468C193.03 72.1343 193.429 72.3865 193.781 72.715C194.11 73.0201 194.467 73.3251 194.802 73.6595C195.136 73.9939 195.365 74.3987 195.676 74.7389C195.987 75.0792 196.286 75.4312 196.573 75.789C196.861 76.1469 197.213 76.4754 197.465 76.8567C197.717 77.238 197.934 77.6663 198.14 78.071C198.357 78.4934 198.609 78.8982 198.744 79.3264C198.885 79.7782 198.979 80.2475 199.014 80.6992C199.049 81.1626 198.996 81.7023 198.896 82.154C198.427 81.9018 197.946 81.5381 197.459 81.3738C196.972 81.2095 196.421 81.2095 195.899 81.2389C195.412 81.2682 194.919 81.3621 194.415 81.6554C193.939 81.9311 193.517 82.3007 193.218 82.7583C192.919 83.2158 192.702 83.7438 192.614 84.2777C192.526 84.8115 192.631 85.4099 192.79 85.932C192.402 85.8264 191.933 85.7032 191.534 85.7501C191.135 85.7971 190.719 85.9202 190.361 86.108C190.003 86.2957 189.774 86.6594 189.516 86.9703C189.17 87.3868 188.842 87.8151 188.707 88.3313C188.572 88.8476 188.513 89.3814 188.501 89.9211C188.49 90.4608 188.578 90.9947 188.613 91.5168C188.613 91.552 188.173 92.0447 187.727 92.5317C187.34 92.9599 187.017 93.4175 186.947 93.5935C186.735 94.1097 186.618 94.5907 186.601 95.107C186.589 95.6232 186.647 96.1336 186.753 96.6733C186.841 97.1309 186.882 97.5885 187.087 97.9639C187.293 98.3394 187.668 98.6385 187.967 98.9729C188.267 99.3073 188.542 99.6417 188.871 99.9468C189.193 100.246 189.487 100.58 189.821 100.88C190.156 101.179 190.525 101.425 190.83 101.754L190.813 101.748Z" fill="#EBBEA7"/>
<path d="M193.235 87.5395C193.587 87.8563 193.922 88.1848 194.256 88.5133C194.59 88.8418 194.925 89.1117 195.224 89.4402C195.523 89.7687 195.822 90.1383 196.104 90.4962C196.174 90.59 196.251 90.6839 196.321 90.7777C196.362 90.8305 196.403 90.8833 196.444 90.9303C196.456 90.942 196.55 91.0711 196.497 90.9948C196.432 90.9127 196.573 91.1004 196.573 91.0945C196.602 91.1356 196.638 91.1767 196.667 91.2236C196.743 91.3292 196.82 91.4348 196.896 91.5462C197.16 91.9217 197.682 92.1329 198.098 91.863C198.474 91.6225 198.697 91.0652 198.415 90.6604C197.84 89.8274 197.195 89.012 196.526 88.2552C196.227 87.9208 195.881 87.6392 195.558 87.3224C195.206 86.9763 194.854 86.6243 194.485 86.2958C194.144 85.9908 193.575 85.9321 193.241 86.2958C192.936 86.6302 192.877 87.211 193.241 87.5395H193.235Z" fill="#A55535"/>
<path d="M190.138 93.787C190.73 94.315 191.335 94.8195 191.904 95.3651C192.214 95.6643 192.531 95.9517 192.877 96.2157C193.018 96.3213 193.159 96.4269 193.3 96.5266C193.341 96.556 193.382 96.5853 193.423 96.6205C193.511 96.685 193.441 96.6205 193.394 96.597C193.476 96.644 193.558 96.732 193.628 96.7965C193.974 97.1015 194.538 97.1602 194.872 96.7965C195.177 96.4621 195.242 95.8755 194.872 95.5528C194.561 95.2771 194.221 95.0424 193.886 94.7961C193.863 94.7785 193.839 94.7609 193.81 94.7433L193.892 94.8078C193.892 94.8078 193.822 94.755 193.798 94.7315C193.728 94.6729 193.652 94.6083 193.581 94.5438C193.435 94.4089 193.288 94.2681 193.141 94.1332C192.572 93.5876 191.968 93.0772 191.376 92.5551C191.029 92.25 190.466 92.1914 190.132 92.5551C189.827 92.8895 189.762 93.4703 190.132 93.7988L190.138 93.787Z" fill="#A55535"/>
<path d="M199.231 84.5355C199.483 85.0811 199.747 85.6149 200.011 86.1546C200.257 86.665 200.58 87.1285 200.821 87.6388C201.02 88.0553 201.648 88.1961 202.023 87.9556C202.451 87.6799 202.551 87.1988 202.34 86.753C202.099 86.2426 201.777 85.7792 201.53 85.2688C201.272 84.7291 201.002 84.1894 200.75 83.6497C200.662 83.462 200.416 83.2977 200.222 83.2449C200.011 83.1862 199.729 83.2156 199.542 83.3329C199.113 83.6086 199.014 84.0897 199.225 84.5355H199.231Z" fill="#A55535"/>
<path d="M152.81 80.1535C152.347 80.0772 151.883 80.0303 151.42 79.9892C150.956 79.9482 150.487 79.9306 150.024 79.913C149.554 79.8954 149.091 79.8543 148.622 79.8602C148.152 79.8661 147.683 79.8485 147.22 79.8837C146.756 79.9189 146.281 79.9013 145.817 79.9599C145.354 80.0186 144.891 80.1124 144.433 80.1946C143.975 80.2767 143.535 80.4586 143.078 80.5642C142.62 80.6698 142.151 80.705 141.699 80.8281C141.248 80.9513 140.819 81.1391 140.373 81.2857C139.928 81.4324 139.482 81.5614 139.042 81.7257C138.602 81.89 138.168 82.0484 137.734 82.2302C137.299 82.4121 136.901 82.6526 136.478 82.852C136.056 83.0515 135.604 83.1864 135.188 83.4035C134.771 83.6205 134.384 83.8845 133.979 84.1192C133.574 84.3538 133.128 84.5181 132.73 84.7703C132.331 85.0226 131.955 85.2925 131.568 85.5564C131.181 85.8204 130.829 86.1255 130.448 86.4071C130.066 86.6887 129.679 86.9409 129.309 87.2284C128.94 87.5158 128.611 87.8561 128.259 88.1552C127.907 88.4544 127.55 88.7653 127.203 89.0763C126.857 89.3872 126.558 89.7509 126.218 90.0794C125.878 90.4079 125.467 90.6543 125.144 90.9887C124.822 91.3231 124.575 91.7396 124.259 92.0798C123.942 92.4201 123.619 92.7662 123.314 93.1182C123.009 93.4702 122.722 93.8456 122.428 94.2035C122.129 94.5672 121.748 94.8605 121.46 95.2301C121.173 95.5997 120.926 95.9986 120.645 96.374C120.363 96.7495 120.064 97.1132 119.794 97.4945C119.524 97.8758 119.307 98.2982 119.049 98.6854C118.791 99.0726 118.468 99.4246 118.216 99.8176C117.964 100.211 117.735 100.621 117.489 101.02C117.242 101.419 117.008 101.824 116.767 102.223C116.527 102.622 116.257 103.009 116.022 103.414C115.787 103.818 115.559 104.229 115.33 104.634C115.101 105.039 114.878 105.455 114.649 105.866C114.421 106.276 114.145 106.658 113.922 107.068C113.699 107.479 113.552 107.931 113.335 108.347C113.118 108.764 112.919 109.186 112.708 109.603C112.496 110.019 112.227 110.412 112.021 110.829C111.816 111.245 111.693 111.709 111.487 112.131C111.276 112.559 111.036 112.976 110.83 113.404C110.625 113.832 110.461 114.284 110.261 114.718C110.062 115.152 109.786 115.551 109.593 115.985C109.399 116.419 109.288 116.895 109.1 117.335C108.912 117.775 108.642 118.179 108.46 118.619C108.279 119.059 108.179 119.534 108.009 119.98C107.839 120.426 107.651 120.866 107.487 121.312C107.322 121.758 107.088 122.186 106.935 122.638C106.783 123.09 106.736 123.576 106.595 124.034C106.454 124.492 106.296 124.937 106.161 125.401C106.026 125.864 105.832 126.298 105.709 126.762C105.586 127.225 105.574 127.712 105.463 128.176C105.357 128.639 105.175 129.091 105.081 129.56C104.987 130.029 104.876 130.493 104.794 130.962C104.712 131.432 104.77 131.924 104.706 132.394C104.641 132.863 104.465 133.32 104.413 133.796C104.36 134.271 104.319 134.746 104.278 135.221C104.237 135.696 104.231 136.172 104.207 136.653C104.184 137.134 104.172 152.603 104.166 153.084C104.16 153.565 104.102 154.04 104.113 154.515C104.125 154.944 104.131 155.372 104.149 155.788C104.166 156.217 104.213 156.639 104.248 157.056C104.284 157.472 104.401 157.889 104.465 158.305C104.53 158.722 104.665 159.12 104.765 159.537C104.858 159.942 104.929 160.358 105.064 160.769C105.205 161.191 105.375 161.631 105.756 161.866C106.055 162.048 106.419 162.106 106.771 162.101C107.228 162.101 107.692 162.03 108.149 162.03C108.607 162.03 109.07 162.001 109.528 161.995C109.986 161.989 110.449 162.077 110.907 162.071C111.364 162.065 111.828 162.071 112.285 162.071C112.743 162.071 113.206 162.054 113.664 162.054C114.121 162.054 114.585 162.042 115.042 162.036C115.5 162.03 115.963 162.054 116.421 162.054C116.908 162.054 117.401 162.013 117.893 162.001C118.386 161.989 118.873 161.895 119.36 161.866C119.847 161.837 120.352 161.942 120.838 161.889C121.325 161.837 121.789 161.62 122.276 161.532C122.763 161.444 123.244 161.385 123.713 161.25C124.171 161.121 124.646 161.045 125.08 160.869C125.514 160.693 125.96 160.511 126.382 160.3C126.805 160.088 127.162 159.76 127.567 159.519C127.972 159.279 128.406 159.079 128.793 158.815C129.18 158.551 129.568 158.27 129.943 157.988C130.318 157.707 130.659 157.378 131.028 157.085C131.398 156.792 131.785 156.522 132.149 156.222C132.513 155.923 132.906 155.653 133.269 155.354" fill="#8DB579"/>
<path d="M122.164 101.067C122.387 102.264 122.475 103.484 122.868 104.646C123.062 105.22 123.15 105.795 123.249 106.394C123.355 107.045 123.519 107.696 123.678 108.335C123.971 109.52 124.258 110.694 124.487 111.896C124.599 112.495 124.792 113.046 124.962 113.627C125.15 114.261 125.261 114.918 125.437 115.557C125.801 116.883 126.112 118.214 126.458 119.54C126.746 120.637 128.447 120.168 128.154 119.071C127.843 117.898 127.602 116.701 127.262 115.534C127.086 114.923 126.939 114.307 126.793 113.691C126.646 113.081 126.405 112.495 126.27 111.879C126.006 110.688 125.825 109.485 125.496 108.312C125.32 107.702 125.191 107.074 125.056 106.452C124.921 105.842 124.88 105.215 124.71 104.61C124.528 103.965 124.335 103.343 124.205 102.68C124.071 101.982 124 101.278 123.865 100.58C123.777 100.111 123.214 99.8468 122.78 99.9642C122.287 100.099 122.076 100.58 122.164 101.049V101.067Z" fill="#699055"/>
<path d="M126.957 124.38C127.033 125.665 127.151 126.949 127.274 128.228C127.333 128.862 127.215 129.49 127.256 130.123C127.297 130.757 127.356 131.42 127.444 132.059C127.614 133.32 127.444 134.599 127.532 135.872C127.62 137.145 127.72 157.389 127.796 158.65C127.837 159.348 127.878 160.052 127.937 160.75C127.966 161.12 128.013 161.495 127.995 161.871C127.978 162.246 127.919 162.622 127.925 162.997C127.949 164.129 129.708 164.129 129.685 162.997C129.673 162.358 129.773 161.742 129.72 161.096C129.667 160.445 129.626 159.788 129.579 159.137C129.491 157.876 129.433 156.615 129.327 136.359C129.274 135.726 129.268 135.104 129.263 134.464C129.251 133.813 129.321 133.15 129.257 132.499C129.192 131.871 129.122 131.244 129.057 130.61C128.987 129.965 129.057 129.355 129.057 128.715C129.057 128.017 128.94 127.313 128.887 126.615C128.828 125.87 128.758 125.125 128.711 124.374C128.682 123.899 128.324 123.494 127.831 123.494C127.374 123.494 126.922 123.899 126.951 124.374L126.957 124.38Z" fill="#699055"/>
<path d="M111.405 131.226C111.939 130.974 112.496 131.162 113.007 131.379C113.646 131.649 114.274 131.948 114.907 132.229C115.541 132.511 116.175 132.816 116.79 133.15C117.36 133.461 117.97 133.69 118.533 134.007C119.096 134.324 119.647 134.693 120.222 135.016C120.797 135.338 121.325 135.714 121.882 136.072C122.387 136.394 122.938 136.617 123.349 137.063C123.66 137.403 124.088 137.926 124.141 138.354C124.206 138.823 124.499 139.234 125.021 139.234C125.449 139.234 125.965 138.829 125.901 138.354C125.743 137.169 124.998 136.048 124.047 135.333C123.595 134.992 123.079 134.764 122.61 134.447C122.117 134.112 121.63 133.784 121.108 133.496C120.586 133.209 120.123 132.916 119.636 132.616C119.149 132.317 118.609 132.112 118.099 131.854C117.536 131.572 117.008 131.244 116.433 130.986C115.858 130.728 115.289 130.469 114.708 130.217C114.063 129.936 113.411 129.578 112.719 129.425C111.951 129.261 111.223 129.367 110.513 129.701C110.085 129.906 109.974 130.522 110.197 130.904C110.455 131.343 110.971 131.426 111.399 131.22L111.405 131.226Z" fill="#699055"/>
<path d="M147.642 83.4622C147.272 84.5768 146.879 85.6855 146.51 86.8001C146.363 87.2401 146.68 87.7798 147.126 87.8854C147.613 87.9969 148.053 87.7388 148.211 87.2695C148.581 86.1548 148.974 85.0461 149.343 83.9315C149.49 83.4915 149.173 82.9518 148.727 82.8462C148.24 82.7348 147.8 82.9929 147.642 83.4622Z" fill="#699055"/>
<path d="M153.503 84.0781C153.549 84.7938 153.602 85.5212 153.72 86.2311C153.731 86.3073 153.743 86.3777 153.755 86.454C153.767 86.5303 153.802 86.6652 153.767 86.5127C153.802 86.6828 153.796 86.8764 153.808 87.0465C153.825 87.3867 153.849 87.727 153.866 88.0614C153.896 88.519 154.248 88.9648 154.746 88.9413C155.198 88.9237 155.655 88.5542 155.626 88.0614C155.579 87.3398 155.556 86.6241 155.438 85.9084C155.427 85.8322 155.415 85.7618 155.403 85.6855C155.392 85.6092 155.356 85.4743 155.392 85.6268C155.35 85.4567 155.362 85.2631 155.345 85.093C155.315 84.7527 155.28 84.4184 155.257 84.0781C155.227 83.6205 154.875 83.1747 154.377 83.1982C153.925 83.2158 153.461 83.5853 153.497 84.0781H153.503Z" fill="#699055"/>
<path d="M160.958 84.524C161.351 85.5154 161.721 86.5185 162.114 87.5099C162.202 87.7329 162.308 87.9088 162.519 88.0379C162.707 88.1494 162.988 88.1963 163.199 88.1259C163.41 88.0555 163.616 87.9264 163.727 87.7211C163.839 87.5158 163.903 87.2577 163.815 87.0406C163.422 86.0492 163.053 85.0461 162.66 84.0546C162.572 83.8317 162.466 83.6557 162.255 83.5267C162.067 83.4152 161.785 83.3683 161.574 83.4387C161.363 83.5091 161.158 83.6381 161.046 83.8434C160.935 84.0488 160.87 84.3069 160.958 84.524Z" fill="#699055"/>
<path d="M168.491 84.5355C168.866 85.5387 169.512 86.4304 170.309 87.1343C170.485 87.2869 170.691 87.3925 170.931 87.3925C171.148 87.3925 171.406 87.2986 171.553 87.1343C171.7 86.9701 171.823 86.7472 171.811 86.5125C171.799 86.2779 171.729 86.0432 171.553 85.8907C171.266 85.6384 170.996 85.3744 170.761 85.0694L170.896 85.2454C170.603 84.8641 170.339 84.4475 170.151 84.0017L170.239 84.2129C170.221 84.166 170.198 84.1132 170.18 84.0662C170.098 83.8492 169.987 83.6615 169.775 83.5383C169.588 83.4268 169.306 83.3799 169.095 83.4503C168.884 83.5207 168.678 83.6497 168.567 83.855C168.456 84.0604 168.397 84.3126 168.479 84.5355H168.491Z" fill="#699055"/>
<path d="M193.359 113.175C192.684 114.906 192.578 116.695 192.543 118.531C192.508 120.367 192.819 122.35 192.819 124.262C192.819 125.207 192.807 126.151 192.831 127.096C192.854 127.947 192.637 128.762 192.438 129.589C192.238 130.428 191.869 131.173 191.475 131.936C191.276 132.323 191.059 132.704 190.859 133.091C190.648 133.502 190.461 133.93 190.197 134.317C189.933 134.705 189.651 135.074 189.469 135.526C189.305 135.937 189.246 136.371 189.105 136.781C188.953 137.233 188.712 137.65 188.63 138.125C188.536 138.682 188.601 139.222 188.66 139.779C188.712 140.254 189.029 140.659 189.54 140.659C189.974 140.659 190.472 140.254 190.42 139.779C190.373 139.363 190.273 138.899 190.343 138.488C190.408 138.101 190.613 137.738 190.754 137.38C190.895 137.022 190.947 136.599 191.082 136.224C191.206 135.884 191.44 135.602 191.646 135.309C192.138 134.605 192.502 133.778 192.901 133.021C193.323 132.211 193.763 131.384 194.021 130.51C194.28 129.636 194.473 128.768 194.567 127.894C194.614 127.477 194.585 127.061 194.579 126.638C194.573 126.163 194.602 125.688 194.596 125.213C194.585 124.28 194.561 123.347 194.532 122.409C194.497 121.452 194.385 120.502 194.332 119.552C194.274 118.543 194.297 117.493 194.379 116.484C194.456 115.51 194.708 114.554 195.066 113.65C195.236 113.204 194.878 112.682 194.45 112.565C193.951 112.43 193.54 112.735 193.364 113.181L193.359 113.175Z" fill="#699055"/>
<path d="M201.389 116.783C201.454 117.135 201.56 117.475 201.665 117.821C201.771 118.167 201.847 118.543 201.912 118.913C202.052 119.71 202.387 120.455 202.704 121.195C202.885 121.617 203.542 121.746 203.906 121.511C204.346 121.23 204.416 120.76 204.223 120.309C204.211 120.279 204.082 119.98 204.153 120.144C204.123 120.068 204.088 119.992 204.059 119.922C203.988 119.746 203.918 119.57 203.853 119.388C203.73 119.053 203.654 118.719 203.589 118.373C203.466 117.675 203.214 117.018 203.085 116.32C203.003 115.868 202.428 115.569 202 115.704C201.513 115.862 201.296 116.302 201.384 116.789L201.389 116.783Z" fill="#699055"/>
<path d="M208.816 113.955C208.91 114.278 209.051 114.583 209.168 114.9C209.285 115.217 209.356 115.539 209.426 115.868C209.567 116.554 209.807 117.199 209.995 117.868C210.118 118.314 210.623 118.631 211.081 118.484C211.538 118.338 211.826 117.874 211.696 117.399C211.509 116.73 211.274 116.085 211.127 115.398C211.057 115.07 210.987 114.747 210.869 114.431C210.752 114.114 210.611 113.809 210.517 113.486C210.388 113.046 209.89 112.723 209.432 112.87C208.98 113.017 208.681 113.48 208.816 113.955Z" fill="#699055"/>
<path d="M213.398 108.318C213.527 108.676 213.598 109.051 213.68 109.421C213.762 109.791 213.873 110.131 214.008 110.477C214.143 110.823 214.249 111.169 214.307 111.545C214.307 111.55 214.348 111.826 214.325 111.65C214.343 111.762 214.354 111.879 214.366 111.99C214.39 112.19 214.407 112.389 214.425 112.589C214.466 113.046 214.8 113.492 215.305 113.469C215.751 113.451 216.226 113.082 216.185 112.589C216.114 111.738 216.044 110.876 215.739 110.072C215.604 109.726 215.481 109.386 215.399 109.022C215.311 108.623 215.234 108.224 215.093 107.843C214.941 107.409 214.483 107.074 214.008 107.227C213.58 107.368 213.228 107.843 213.392 108.312L213.398 108.318Z" fill="#699055"/>
<path d="M146.674 20.6506C146.551 21.202 146.439 21.7535 146.263 22.2873C146.087 22.8212 145.882 23.3139 145.759 23.8478C145.647 24.3112 145.536 24.7219 145.307 25.1443C145.049 25.6312 144.832 26.1239 144.656 26.646C144.351 27.5495 143.752 28.3884 143.213 29.1686C142.603 30.0485 142.098 30.9813 141.453 31.8378C141.165 32.2191 141.394 32.8233 141.77 33.0404C142.221 33.3044 142.685 33.1049 142.972 32.7236C143.623 31.8671 144.128 30.9344 144.732 30.0544C145.342 29.1745 145.958 28.2534 146.31 27.2327C146.662 26.2119 147.208 25.3965 147.436 24.3758C147.56 23.8419 147.765 23.3374 147.935 22.8212C148.117 22.2639 148.24 21.689 148.363 21.1141C148.469 20.6506 148.223 20.1637 147.747 20.0288C147.307 19.9056 146.768 20.1754 146.662 20.6447L146.674 20.6506Z" fill="#E8E7E6"/>
<path d="M153.502 23.619C153.309 24.1352 153.197 24.6632 152.927 25.1501C152.646 25.6546 152.352 26.1591 152.024 26.6343C151.695 27.1095 151.437 27.5788 151.144 28.054C150.868 28.5057 150.504 28.8811 150.17 29.2859C149.466 30.1307 148.75 31.0752 147.859 31.7322C146.967 32.3892 146.11 33.2575 145.148 33.8969C144.755 34.1609 144.579 34.6712 144.832 35.0995C145.06 35.4925 145.641 35.6803 146.034 35.4163C147.031 34.7475 147.882 33.8852 148.844 33.1753C149.871 32.4127 150.675 31.4037 151.49 30.4357C151.895 29.9547 152.329 29.4854 152.657 28.9457C152.986 28.406 153.267 27.9191 153.608 27.4204C153.948 26.9218 154.253 26.3997 154.529 25.8717C154.828 25.3027 154.963 24.6867 155.192 24.0883C155.362 23.6425 155.004 23.1262 154.576 23.003C154.083 22.8681 153.661 23.1732 153.49 23.619H153.502Z" fill="#E8E7E6"/>
<path d="M234.215 57.2453C234.101 57.5753 233.995 57.9052 233.859 58.2175C233.723 58.5298 233.56 58.8421 233.397 59.1457C233.234 59.4492 233.08 59.7659 232.891 60.0518C232.702 60.3378 232.482 60.6149 232.266 60.8832C232.051 61.1516 231.831 61.4243 231.593 61.6706C231.356 61.917 231.092 62.1501 230.832 62.3745C230.573 62.5988 230.265 62.7704 229.988 62.9727C229.711 63.1751 229.438 63.3906 229.143 63.571C228.849 63.7513 228.558 63.9405 228.246 64.0944C227.934 64.2484 227.595 64.332 227.274 64.4551C226.953 64.5783 226.649 64.7587 226.315 64.8555C225.98 64.9522 225.646 65.0358 225.307 65.1018C224.969 65.1678 224.626 65.2338 224.282 65.2733C223.939 65.3129 223.592 65.247 223.244 65.2558C222.897 65.2646 222.558 65.247 222.215 65.225C221.872 65.203 221.52 65.2602 221.177 65.2074C220.834 65.1546 220.499 65.0622 220.165 64.9786C219.831 64.895 219.496 64.8159 219.162 64.7015C218.828 64.5871 218.498 64.4815 218.186 64.3452C217.873 64.2088 217.592 63.9801 217.288 63.8173C216.985 63.6545 216.642 63.5402 216.36 63.351C216.078 63.1619 215.81 62.9199 215.542 62.7044C215.273 62.4888 215.018 62.2469 214.772 62.0094C214.526 61.7718 214.301 61.5035 214.073 61.2439C213.844 60.9844 213.633 60.7117 213.43 60.4345C213.228 60.1574 212.986 59.8979 212.81 59.6031C212.634 59.3084 212.458 59.0049 212.309 58.6926C212.159 58.3803 212.031 58.0547 211.904 57.7336C211.776 57.4125 211.688 57.0738 211.592 56.7439C211.495 56.4139 211.402 56.0796 211.336 55.7365C211.27 55.3934 211.191 55.0591 211.152 54.716C211.112 54.3728 211.073 54.0253 211.064 53.6778C211.055 53.3303 211.147 52.9872 211.169 52.6441C211.191 52.301 211.169 51.949 211.226 51.6059C211.284 51.2628 211.341 50.9241 211.424 50.5854C211.508 50.2467 211.649 49.9299 211.759 49.6C211.869 49.2701 211.974 48.9358 212.111 48.6235C212.247 48.3111 212.375 47.9768 212.542 47.6777C212.709 47.3786 212.933 47.1014 213.127 46.8155C213.32 46.5296 213.488 46.2173 213.703 45.9489C213.919 45.6806 214.235 45.4958 214.473 45.2451C214.71 44.9944 214.952 44.7524 215.212 44.5281C215.471 44.3037 215.674 43.9958 215.951 43.7935C216.228 43.5911 216.554 43.4459 216.848 43.27C217.143 43.094 217.442 42.9181 217.754 42.7641C218.067 42.6102 218.366 42.4298 218.687 42.3066C219.008 42.1835 219.373 42.1835 219.708 42.0867C220.042 41.9899 220.367 41.8975 220.706 41.8271C221.045 41.7568 221.384 41.7216 221.727 41.682C222.07 41.6424 222.404 41.506 222.752 41.4972C223.099 41.4884 223.447 41.5104 223.79 41.5324C224.133 41.5544 224.48 41.5896 224.824 41.6424C225.167 41.6952 225.501 41.7876 225.84 41.8711C226.178 41.9547 226.482 42.1175 226.812 42.2274C227.142 42.3374 227.498 42.377 227.81 42.5178C228.123 42.6585 228.417 42.8565 228.721 43.0192C229.024 43.182 229.324 43.3624 229.61 43.5515C229.895 43.7407 230.203 43.9166 230.472 44.1322C230.74 44.3477 230.991 44.5941 231.237 44.8316C231.483 45.0691 231.703 45.3419 231.932 45.6014C232.161 45.8609 232.354 46.1469 232.557 46.4284C232.759 46.7099 232.935 47.0047 233.111 47.2994C233.287 47.5941 233.489 47.8756 233.639 48.188C233.788 48.5003 233.929 48.8126 234.052 49.1381C234.176 49.4637 234.312 49.7804 234.409 50.1103C234.506 50.4402 234.58 50.7789 234.646 51.1176C234.712 51.4564 234.756 51.7995 234.791 52.1426C234.827 52.4857 234.888 52.8288 234.897 53.1763C234.906 53.5239 234.897 53.867 234.871 54.2145C234.844 54.562 234.809 54.9051 234.756 55.2482C234.703 55.5913 234.602 55.9213 234.519 56.26C234.435 56.5987 234.325 56.9198 234.211 57.2497L234.215 57.2453Z" fill="#FF8120"/>
<path d="M214.846 58.5198C214.578 58.9993 214.613 59.0169 214.345 59.5007C214.076 59.9846 214.076 59.9802 213.808 60.4641C213.54 60.948 213.557 60.9568 213.289 61.4363C213.021 61.9157 213.007 61.9113 212.739 62.3908C212.471 62.8703 212.405 62.8351 212.141 63.319C211.877 63.8029 211.895 63.8117 211.626 64.2956C211.358 64.7794 211.336 64.7662 211.072 65.2501C210.909 65.5624 211.046 65.9187 211.257 66.1079C211.468 66.2971 211.811 66.3454 212.101 66.1475C212.406 65.9393 212.711 65.7311 213.016 65.5228C213.474 65.2105 213.452 65.1753 213.909 64.863C214.367 64.5507 214.389 64.5815 214.846 64.2692C215.304 63.9568 215.321 63.9788 215.779 63.6665C216.236 63.3542 216.201 63.3014 216.659 62.9891C217.116 62.6767 217.129 62.6943 217.591 62.382" fill="#FF8120"/>
<path d="M224.902 47.9498C225.452 48.139 225.931 48.3545 226.319 48.6449C226.706 48.9352 227.014 49.2607 227.229 49.617C227.445 49.9733 227.502 50.3736 227.546 50.7871C227.59 51.1962 227.533 51.5965 227.387 52.032C227.361 52.1112 227.418 52.1332 227.392 52.2124C227.304 52.4763 227.225 52.7403 227.084 52.947C226.943 53.1538 226.745 53.3517 226.525 53.5277C226.305 53.708 226.011 53.8488 225.703 54.0115C225.39 54.1787 225.047 54.3855 224.629 54.5658C224.269 54.7242 223.939 54.799 223.706 54.9265C223.472 55.0541 223.296 55.1993 223.16 55.3224C223.024 55.4456 222.918 55.582 222.839 55.7227C222.76 55.8635 222.65 56.0087 222.588 56.189C222.518 56.3914 222.443 56.5321 222.258 56.5893C222.074 56.6465 221.871 56.6905 221.682 56.6289C221.48 56.5585 221.37 56.3782 221.251 56.2242C221.132 56.0702 221.079 55.9031 221.159 55.6699C221.247 55.406 221.405 55.1949 221.511 54.9837C221.616 54.7726 221.664 54.5174 221.836 54.3459C222.008 54.1743 222.28 54.0775 222.549 53.9236C222.817 53.7696 223.121 53.5453 223.521 53.3737C223.917 53.2153 224.233 53.0438 224.502 52.9118C224.766 52.7755 225.025 52.7139 225.192 52.5819C225.36 52.4499 225.426 52.2608 225.518 52.1244C225.61 51.9924 225.707 51.8561 225.769 51.6757C225.786 51.6185 225.826 51.6317 225.848 51.579C225.997 51.1347 225.993 50.6816 225.769 50.2769C225.646 50.0525 225.404 49.8898 225.144 49.7226C224.937 49.5862 224.709 49.4059 224.414 49.3047C223.939 49.142 223.486 49.1331 223.081 49.1683C222.681 49.2035 222.294 49.3003 221.915 49.4455C221.717 49.5071 221.524 49.4851 221.365 49.3927C221.207 49.3047 221.066 49.1595 220.991 48.9572C220.925 48.768 220.974 48.5789 221.044 48.3941C221.115 48.2094 221.247 48.1126 221.445 48.0422C221.686 47.9454 221.924 47.7959 222.201 47.7387C222.456 47.6859 222.733 47.7299 223.019 47.7079C223.327 47.6859 223.653 47.6155 223.983 47.6639C224.286 47.7123 224.585 47.8399 224.902 47.9498ZM221.238 57.8782C221.546 57.9838 221.783 58.1509 221.911 58.4149C222.038 58.6788 222.06 58.9735 221.959 59.2682C221.858 59.563 221.629 59.7301 221.365 59.8621C221.101 59.9941 220.855 60.0029 220.547 59.8973C220.239 59.7917 220.015 59.6686 219.887 59.4002C219.76 59.1319 219.698 58.8284 219.799 58.5336C219.901 58.2389 220.116 58.0014 220.376 57.8694C220.635 57.7374 220.934 57.777 221.233 57.8782H221.238Z" fill="white"/>
</g>
<defs>
<clipPath id="clip0_4632_16092">
<rect width="225" height="160" fill="white" transform="translate(47.5001)"/>
</clipPath>
</defs>
</svg>
