<svg width="320" height="187" viewBox="0 0 320 187" fill="none" xmlns="http://www.w3.org/2000/svg">
<rect width="320" height="187" rx="12" fill="#F5F5F5"/>
<g filter="url(#filter0_d_10529_6688)">
<path d="M16 46C16 42.6863 18.6863 40 22 40H283C286.314 40 289 42.6863 289 46V136C289 139.314 286.314 142 283 142H22C18.6863 142 16 139.314 16 136V46Z" fill="white" shape-rendering="crispEdges"/>
<path d="M38.728 61.376H39.628V63.8H41.2V64.556H39.628V67.316H38.728V61.376ZM32.008 66.488V61.904H32.908V65.732C34.396 65.732 35.944 65.624 37.636 65.276L37.744 66.008C35.968 66.38 34.396 66.488 32.836 66.488H32.008ZM33.04 71.72V67.892H39.628V71.72H33.04ZM33.916 70.988H38.752V68.612H33.916V70.988ZM41.8558 66.92H51.3358V67.652H41.8558V66.92ZM42.9118 63.824C42.9118 62.516 44.3518 61.736 46.5958 61.736C48.8398 61.736 50.2798 62.516 50.2798 63.824C50.2798 65.132 48.8398 65.912 46.5958 65.912C44.3518 65.912 42.9118 65.132 42.9118 63.824ZM43.0918 71.648V68.6H43.9918V70.904H50.2918V71.648H43.0918ZM43.8358 63.824C43.8358 64.664 44.9278 65.18 46.5958 65.18C48.2758 65.18 49.3558 64.664 49.3558 63.824C49.3558 62.984 48.2758 62.48 46.5958 62.48C44.9278 62.48 43.8358 62.984 43.8358 63.824ZM55.1367 62.156H60.7527V62.9H58.4007V63.356C58.4007 64.748 59.4327 65.984 60.9567 66.5L60.5247 67.196C59.3367 66.788 58.4247 65.96 57.9807 64.892C57.5367 66.104 56.5647 67.064 55.3167 67.508L54.8607 66.8C56.4207 66.248 57.5127 64.892 57.5127 63.368V62.9H55.1367V62.156ZM56.2527 69.92C56.2527 68.708 57.5607 68.012 59.6847 68.012C61.8207 68.012 63.1287 68.708 63.1287 69.92C63.1287 71.144 61.8207 71.852 59.6847 71.852C57.5607 71.852 56.2527 71.144 56.2527 69.92ZM57.1287 69.92C57.1287 70.688 58.1127 71.144 59.6847 71.144C61.2687 71.144 62.2407 70.688 62.2407 69.92C62.2407 69.176 61.2687 68.732 59.6847 68.732C58.1127 68.732 57.1287 69.176 57.1287 69.92ZM62.1207 67.712V61.376H63.0207V64.076H64.5927V64.82H63.0207V67.712H62.1207ZM72.9525 61.376H73.8525V71.876H72.9525V61.376ZM65.3925 69.176C68.2245 67.82 69.6525 65.768 69.8445 63.248H65.8605V62.504H70.7565C70.7565 65.528 69.3645 68.192 65.8725 69.896L65.3925 69.176ZM75.6363 69.764H78.0003V66.896C77.1123 66.44 76.5723 65.684 76.5723 64.736C76.5723 63.104 78.1683 62.048 80.3763 62.048C82.6083 62.048 84.1803 63.104 84.1803 64.736C84.1803 65.672 83.6523 66.416 82.7883 66.884V69.764H85.1523V70.508H75.6363V69.764ZM77.4483 64.736C77.4483 65.924 78.6723 66.704 80.3763 66.704C82.0803 66.704 83.3163 65.924 83.3163 64.736C83.3163 63.548 82.0803 62.768 80.3763 62.768C78.6723 62.768 77.4483 63.548 77.4483 64.736ZM78.8883 69.764H81.8883V67.232C81.4323 67.352 80.9283 67.412 80.3763 67.412C79.8363 67.412 79.3443 67.352 78.8883 67.232V69.764ZM88.952 62C90.524 62 91.676 63.008 91.676 64.472C91.676 65.936 90.524 66.932 88.952 66.932C87.368 66.932 86.228 65.936 86.228 64.472C86.228 63.008 87.368 62 88.952 62ZM87.104 64.472C87.104 65.48 87.884 66.176 88.952 66.176C90.02 66.176 90.812 65.48 90.812 64.472C90.812 63.464 90.02 62.768 88.952 62.768C87.884 62.768 87.104 63.464 87.104 64.472ZM87.38 69.896C87.38 68.66 88.688 67.94 90.824 67.94C92.948 67.94 94.256 68.66 94.256 69.896C94.256 71.132 92.948 71.852 90.824 71.852C88.688 71.852 87.38 71.132 87.38 69.896ZM88.256 69.896C88.256 70.664 89.24 71.132 90.824 71.132C92.396 71.132 93.368 70.664 93.368 69.896C93.368 69.128 92.396 68.672 90.824 68.672C89.24 68.672 88.256 69.128 88.256 69.896ZM93.248 67.604V61.376H94.148V62.972H95.696V63.728H94.148V65.204H95.696V65.96H94.148V67.604H93.248ZM97.6358 67.388H98.5238V68.804H103.768V67.388H104.656V71.744H97.6358V67.388ZM96.3878 66.44V65.672H103.48C103.78 64.376 103.78 63.44 103.78 62.624V62.6H97.6118V61.856H104.656V62.624C104.656 63.428 104.656 64.364 104.38 65.672H105.904V66.44H96.3878ZM98.5238 71.012H103.768V69.512H98.5238V71.012ZM109.548 62.192C110.508 62.192 111.3 62.756 111.744 63.74H114.492V61.364H115.38V71.888H114.492V67.808H111.804C111.372 68.876 110.556 69.5 109.548 69.5C108.024 69.5 106.944 68.072 106.944 65.84C106.944 63.608 108.024 62.192 109.548 62.192ZM107.796 65.84C107.796 67.556 108.516 68.696 109.548 68.696C110.592 68.696 111.312 67.556 111.312 65.84C111.312 64.124 110.592 62.996 109.548 62.996C108.516 62.996 107.796 64.124 107.796 65.84ZM111.996 64.484C112.104 64.892 112.152 65.348 112.152 65.84C112.152 66.284 112.104 66.692 112.032 67.064H114.492V64.484H111.996Z" fill="#1A1A1A"/>
<path d="M38.104 97.768C40.048 97.768 41.296 96.448 41.296 95.08C41.296 93.736 40.048 92.416 38.104 92.416C36.184 92.416 34.912 93.736 34.912 95.08C34.912 96.448 36.16 97.768 38.104 97.768ZM32.032 95.152C32.032 93.352 33.328 91.768 34.936 90.88C33.664 90.016 32.512 88.696 32.512 87.088C32.512 84.304 35.2 82.288 38.104 82.288C41.032 82.288 43.696 84.304 43.696 87.088C43.696 88.696 42.592 90.016 41.272 90.88C42.856 91.768 44.176 93.352 44.176 95.152C44.176 98.2 41.296 100.408 38.104 100.408C34.912 100.408 32.032 98.2 32.032 95.152ZM35.392 87.136C35.392 88.216 36.496 89.32 38.104 89.32C39.712 89.32 40.816 88.216 40.816 87.136C40.816 86.032 39.712 84.928 38.104 84.928C36.496 84.928 35.392 86.032 35.392 87.136ZM52.9977 82.576V100.096L50.1177 100.072V85.744L46.9737 87.184L45.8937 84.544L50.1177 82.576H52.9977ZM56.5161 97.216C60.0441 93.832 64.6521 91.12 64.6521 88.264C64.6521 86.176 63.3801 85.288 61.7961 85.288C60.7641 85.288 59.4681 85.672 58.6761 87.4L56.0601 86.224C57.4281 83.176 60.2361 82.408 61.7961 82.408C64.5081 82.408 67.5321 84.52 67.5321 88.264C67.5321 91.888 64.0041 94.696 60.9321 97.216H67.7961V100.096H56.5161V97.216ZM73.3628 97.648L71.5628 103.6H69.4508L70.4108 97.648H73.3628ZM83.5739 97.384C86.0459 97.384 87.4139 95.608 87.4139 91.312C87.4139 87.016 86.0459 85.288 83.5739 85.288C81.0539 85.288 79.7099 87.016 79.7099 91.312C79.7099 95.608 81.0779 97.384 83.5739 97.384ZM76.8299 91.312C76.8299 85.792 79.4939 82.408 83.5739 82.408C87.5819 82.408 90.2939 85.744 90.2939 91.312C90.2939 96.832 87.6299 100.264 83.5739 100.264C79.4939 100.264 76.8299 96.832 76.8299 91.312ZM98.8926 97.384C101.365 97.384 102.733 95.608 102.733 91.312C102.733 87.016 101.365 85.288 98.8926 85.288C96.3726 85.288 95.0286 87.016 95.0286 91.312C95.0286 95.608 96.3966 97.384 98.8926 97.384ZM92.1486 91.312C92.1486 85.792 94.8126 82.408 98.8926 82.408C102.901 82.408 105.613 85.744 105.613 91.312C105.613 96.832 102.949 100.264 98.8926 100.264C94.8126 100.264 92.1486 96.832 92.1486 91.312ZM114.211 97.384C116.683 97.384 118.051 95.608 118.051 91.312C118.051 87.016 116.683 85.288 114.211 85.288C111.691 85.288 110.347 87.016 110.347 91.312C110.347 95.608 111.715 97.384 114.211 97.384ZM107.467 91.312C107.467 85.792 110.131 82.408 114.211 82.408C118.219 82.408 120.931 85.744 120.931 91.312C120.931 96.832 118.267 100.264 114.211 100.264C110.131 100.264 107.467 96.832 107.467 91.312ZM137.594 80.488H140.546V96.784H137.594V95.032H133.514V93.016H137.594V80.488ZM122.426 90.04C126.362 90.04 131.594 89.992 136.13 89.416L136.322 91.528C134.618 91.816 132.866 92.008 131.138 92.152V96.208H128.162V92.32C126.242 92.392 124.418 92.416 122.81 92.416L122.426 90.04ZM123.986 85.072C123.986 82.792 126.194 81.232 129.338 81.232C132.482 81.232 134.69 82.792 134.69 85.072C134.69 87.376 132.482 88.888 129.338 88.888C126.194 88.888 123.986 87.376 123.986 85.072ZM125.162 101.608V95.248H128.114V99.232H141.05V101.608H125.162ZM126.818 85.072C126.818 86.152 127.874 86.728 129.338 86.728C130.85 86.728 131.882 86.152 131.882 85.072C131.882 83.992 130.85 83.416 129.338 83.416C127.874 83.416 126.818 83.992 126.818 85.072Z" fill="#1A1A1A"/>
<path d="M31.9188 122.254C33.4203 120.795 35.6988 119.041 35.6988 117.666C35.6988 116.616 35.0058 116.08 34.1868 116.08C33.6093 116.08 32.9688 116.28 32.5803 117.172L31.8873 116.878C32.4333 115.639 33.4623 115.324 34.1868 115.324C35.3103 115.324 36.4548 116.185 36.4548 117.666C36.4548 119.23 34.5018 120.9 33.0318 122.254H36.5808V123.011H31.9188V122.254ZM40.2253 122.317C41.4223 122.317 42.1573 121.32 42.1573 119.209C42.1573 117.099 41.4223 116.112 40.2253 116.112C39.0178 116.112 38.2828 117.099 38.2828 119.209C38.2828 121.32 39.0178 122.317 40.2253 122.317ZM37.5268 119.209C37.5268 116.784 38.5978 115.356 40.2253 115.356C41.8423 115.356 42.9133 116.784 42.9133 119.209C42.9133 121.635 41.8528 123.074 40.2253 123.074C38.5873 123.074 37.5268 121.635 37.5268 119.209ZM43.9165 122.254C45.418 120.795 47.6965 119.041 47.6965 117.666C47.6965 116.616 47.0035 116.08 46.1845 116.08C45.607 116.08 44.9665 116.28 44.578 117.172L43.885 116.878C44.431 115.639 45.46 115.324 46.1845 115.324C47.308 115.324 48.4525 116.185 48.4525 117.666C48.4525 119.23 46.4995 120.9 45.0295 122.254H48.5785V123.011H43.9165V122.254ZM53.7139 115.419V120.196H54.8374V120.931H53.7139V123H52.9579V120.931H49.5349V120.196L52.9789 115.419H53.7139ZM50.4694 120.196H52.9579V116.742L50.4694 120.196ZM56.4513 122.086C56.7873 122.086 56.9658 122.317 56.9658 122.601C56.9658 122.905 56.7873 123.137 56.4513 123.137C56.1048 123.137 55.9158 122.905 55.9158 122.601C55.9158 122.317 56.1048 122.086 56.4513 122.086ZM61.1444 122.317C62.3414 122.317 63.0764 121.32 63.0764 119.209C63.0764 117.099 62.3414 116.112 61.1444 116.112C59.9369 116.112 59.2019 117.099 59.2019 119.209C59.2019 121.32 59.9369 122.317 61.1444 122.317ZM58.4459 119.209C58.4459 116.784 59.5169 115.356 61.1444 115.356C62.7614 115.356 63.8324 116.784 63.8324 119.209C63.8324 121.635 62.7719 123.074 61.1444 123.074C59.5064 123.074 58.4459 121.635 58.4459 119.209ZM67.2716 122.328C68.2796 122.328 69.0356 121.593 69.0356 120.595C69.0356 119.598 68.2796 118.852 67.2716 118.852C66.2741 118.852 65.5496 119.598 65.5496 120.595C65.5496 121.593 66.2741 122.328 67.2716 122.328ZM64.7936 120.595C64.7936 120.144 64.9196 119.713 65.1296 119.346L67.3766 115.419H68.2481L66.6626 118.18C66.8621 118.128 67.0721 118.096 67.2926 118.096C68.6681 118.096 69.7916 119.22 69.7916 120.595C69.7916 121.96 68.6681 123.084 67.2926 123.084C65.9276 123.084 64.7936 121.96 64.7936 120.595ZM71.4127 122.086C71.7487 122.086 71.9272 122.317 71.9272 122.601C71.9272 122.905 71.7487 123.137 71.4127 123.137C71.0662 123.137 70.8772 122.905 70.8772 122.601C70.8772 122.317 71.0662 122.086 71.4127 122.086ZM73.4597 122.254C74.9612 120.795 77.2397 119.041 77.2397 117.666C77.2397 116.616 76.5467 116.08 75.7277 116.08C75.1502 116.08 74.5097 116.28 74.1212 117.172L73.4282 116.878C73.9742 115.639 75.0032 115.324 75.7277 115.324C76.8512 115.324 77.9957 116.185 77.9957 117.666C77.9957 119.23 76.0427 120.9 74.5727 122.254H78.1217V123.011H73.4597V122.254ZM81.5562 122.328C82.5642 122.328 83.3202 121.593 83.3202 120.595C83.3202 119.598 82.5642 118.852 81.5562 118.852C80.5587 118.852 79.8342 119.598 79.8342 120.595C79.8342 121.593 80.5587 122.328 81.5562 122.328ZM79.0782 120.595C79.0782 120.144 79.2042 119.713 79.4142 119.346L81.6612 115.419H82.5327L80.9472 118.18C81.1467 118.128 81.3567 118.096 81.5772 118.096C82.9527 118.096 84.0762 119.22 84.0762 120.595C84.0762 121.96 82.9527 123.084 81.5772 123.084C80.2122 123.084 79.0782 121.96 79.0782 120.595ZM89.5272 115.429V123H88.7712V116.343L87.7002 117.057L87.2802 116.427L88.7712 115.429H89.5272ZM93.6616 122.317C94.8586 122.317 95.5936 121.32 95.5936 119.209C95.5936 117.099 94.8586 116.112 93.6616 116.112C92.4541 116.112 91.7191 117.099 91.7191 119.209C91.7191 121.32 92.4541 122.317 93.6616 122.317ZM90.9631 119.209C90.9631 116.784 92.0341 115.356 93.6616 115.356C95.2786 115.356 96.3496 116.784 96.3496 119.209C96.3496 121.635 95.2891 123.074 93.6616 123.074C92.0236 123.074 90.9631 121.635 90.9631 119.209ZM98.2768 116.952C98.5708 116.952 98.7388 117.151 98.7388 117.414C98.7388 117.687 98.5708 117.886 98.2768 117.886C97.9723 117.886 97.8043 117.687 97.8043 117.414C97.8043 117.151 97.9723 116.952 98.2768 116.952ZM97.8043 120.952C97.8043 120.69 97.9723 120.49 98.2768 120.49C98.5708 120.49 98.7388 120.69 98.7388 120.952C98.7388 121.215 98.5708 121.425 98.2768 121.425C97.9723 121.425 97.8043 121.215 97.8043 120.952ZM102.87 122.317C104.067 122.317 104.802 121.32 104.802 119.209C104.802 117.099 104.067 116.112 102.87 116.112C101.663 116.112 100.928 117.099 100.928 119.209C100.928 121.32 101.663 122.317 102.87 122.317ZM100.172 119.209C100.172 116.784 101.243 115.356 102.87 115.356C104.487 115.356 105.558 116.784 105.558 119.209C105.558 121.635 104.498 123.074 102.87 123.074C101.232 123.074 100.172 121.635 100.172 119.209ZM109.207 122.317C110.404 122.317 111.139 121.32 111.139 119.209C111.139 117.099 110.404 116.112 109.207 116.112C108 116.112 107.265 117.099 107.265 119.209C107.265 121.32 108 122.317 109.207 122.317ZM106.509 119.209C106.509 116.784 107.58 115.356 109.207 115.356C110.824 115.356 111.895 116.784 111.895 119.209C111.895 121.635 110.835 123.074 109.207 123.074C107.569 123.074 106.509 121.635 106.509 119.209ZM117.548 115.009C118.787 115.009 119.711 115.713 119.879 116.784H121.8V114.579H122.588V119.503H121.8V117.435H119.879C119.732 118.516 118.797 119.251 117.548 119.251C116.172 119.251 115.185 118.38 115.185 117.13C115.185 115.87 116.172 115.009 117.548 115.009ZM115.941 117.13C115.941 117.981 116.603 118.579 117.548 118.579C118.482 118.579 119.144 117.981 119.144 117.13C119.144 116.269 118.482 115.671 117.548 115.671C116.603 115.671 115.941 116.269 115.941 117.13ZM116.729 123.641V119.976H117.516V121.152H121.8V119.976H122.588V123.641H116.729ZM117.516 123H121.8V121.782H117.516V123ZM131.148 114.579H131.904V123.767H131.148V114.579ZM124.46 121.54V115.713H127.914V116.364H125.237V120.879C126.56 120.879 127.4 120.826 128.376 120.606L128.46 121.267C127.41 121.498 126.518 121.54 125.048 121.54H124.46ZM127.284 118.758V118.096H129.3V114.799H130.046V123.284H129.3V118.758H127.284ZM139.888 114.568H140.675V123.777H139.888V114.568ZM133.514 118.485C133.514 116.532 134.48 115.293 135.845 115.293C137.2 115.293 138.166 116.532 138.166 118.485C138.166 120.438 137.2 121.688 135.845 121.688C134.48 121.688 133.514 120.438 133.514 118.485ZM134.281 118.485C134.281 119.986 134.921 120.984 135.845 120.984C136.759 120.984 137.41 119.986 137.41 118.485C137.41 116.983 136.759 115.996 135.845 115.996C134.921 115.996 134.281 116.983 134.281 118.485ZM143.324 115.377H149.519V116.017H144.122V117.424H149.32V118.065H144.122V119.545H149.614V120.196H143.324V115.377ZM142.243 122.559V121.908H150.569V122.559H142.243Z" fill="#999999"/>
</g>
<g filter="url(#filter1_dd_10529_6688)">
<path d="M182 137.322C182 126.462 190.804 117.658 201.664 117.658H282.336C293.196 117.658 302 126.462 302 137.322V137.322C302 148.183 293.196 156.987 282.336 156.987H201.664C190.804 156.987 182 148.183 182 137.322V137.322Z" fill="#FFF5E6" shape-rendering="crispEdges"/>
<path d="M201.664 118.158H282.336C292.92 118.158 301.5 126.738 301.5 137.322C301.5 147.906 292.92 156.487 282.336 156.487H201.664C191.08 156.487 182.5 147.906 182.5 137.322C182.5 126.738 191.08 118.158 201.664 118.158Z" stroke="#FF8120" shape-rendering="crispEdges"/>
<path d="M196.046 132.096H201.2V139.415H196.046V132.096ZM196.999 138.629H200.272V132.882H196.999V138.629ZM203.635 142.276V130.975H204.602V142.276H203.635ZM207.342 132.263H211.027V132.676C211.027 133.629 211.04 135.498 210.28 138.513L209.301 138.359C209.997 135.897 210.074 134.106 210.087 133.05H207.342V132.263ZM206.543 140.562V139.75H216.723V140.562H206.543ZM211.852 133.05V132.263H215.563V133.114C215.563 134.338 215.563 136 215.061 138.513L214.094 138.397C214.597 136.013 214.597 134.325 214.597 133.114V133.05H211.852ZM219.605 138.243H226.937V142.108H219.605V138.243ZM218.123 132.354V131.568H223.123V134.673H219.115V136.348C220.958 136.348 222.362 136.297 224.051 136.013L224.128 136.812C222.362 137.096 220.932 137.147 218.999 137.147H218.162V133.926H222.169V132.354H218.123ZM220.546 141.322H225.983V139.016H220.546V141.322ZM223.831 134.325V133.539H225.971V131.001H226.937V137.611H225.971V134.325H223.831ZM233.994 138.075C236.288 138.075 237.692 138.848 237.692 140.163C237.692 141.49 236.288 142.25 233.994 142.25C231.7 142.25 230.296 141.49 230.296 140.163C230.296 138.848 231.7 138.075 233.994 138.075ZM229.329 136.89V131.696H230.283V133.423H233.569V131.696H234.522V136.89H229.329ZM230.283 136.103H233.569V134.196H230.283V136.103ZM231.236 140.163C231.236 140.987 232.293 141.477 233.994 141.477C235.682 141.477 236.726 140.987 236.726 140.163C236.726 139.351 235.682 138.861 233.994 138.861C232.293 138.861 231.236 139.351 231.236 140.163ZM236.61 137.779V130.988H237.576V133.848H239.251V134.66H237.576V137.779H236.61ZM240.316 132.148H246.618V132.959H243.937V134.48C243.937 136.4 245.355 138.333 246.978 139.041L246.424 139.815C245.136 139.209 243.989 137.895 243.461 136.335C242.945 137.998 241.811 139.441 240.523 140.085L239.968 139.325C241.553 138.552 242.971 136.426 242.971 134.48V132.959H240.316V132.148ZM248.19 142.263V130.988H249.156V142.263H248.19ZM257.116 131.658C258.804 131.658 260.041 132.74 260.041 134.312C260.041 135.884 258.804 136.954 257.116 136.954C255.415 136.954 254.191 135.884 254.191 134.312C254.191 132.74 255.415 131.658 257.116 131.658ZM255.132 134.312C255.132 135.395 255.969 136.142 257.116 136.142C258.263 136.142 259.114 135.395 259.114 134.312C259.114 133.23 258.263 132.483 257.116 132.483C255.969 132.483 255.132 133.23 255.132 134.312ZM255.428 140.137C255.428 138.81 256.833 138.036 259.126 138.036C261.407 138.036 262.812 138.81 262.812 140.137C262.812 141.464 261.407 142.237 259.126 142.237C256.833 142.237 255.428 141.464 255.428 140.137ZM256.369 140.137C256.369 140.961 257.426 141.464 259.126 141.464C260.815 141.464 261.858 140.961 261.858 140.137C261.858 139.312 260.815 138.822 259.126 138.822C257.426 138.822 256.369 139.312 256.369 140.137ZM261.729 137.676V130.988H262.696V132.702H264.358V133.513H262.696V135.098H264.358V135.91H262.696V137.676H261.729ZM272.884 130.988H273.851V133.449H275.526V134.248H273.851V136.735H272.884V130.988ZM265.604 136.129V131.632H270.758V136.129H265.604ZM266.544 135.356H269.817V132.405H266.544V135.356ZM266.725 138.049V137.276H273.851V140.008H267.704V141.322H274.263V142.108H266.75V139.273H272.897V138.049H266.725Z" fill="#1A1A1A"/>
<path d="M286.951 132.019V137.882H288.33V138.706H286.951V141.322H286.024V138.706H281.952L281.823 137.882L286.049 132.019H286.951ZM282.97 137.882H286.024V133.642L282.97 137.882Z" fill="#FF8120"/>
</g>
<g filter="url(#filter2_dd_10529_6688)">
<path d="M182 42.6644C182 31.8041 190.804 23 201.664 23H282.336C293.196 23 302 31.8041 302 42.6644V42.6644C302 53.5248 293.196 62.3289 282.336 62.3289H201.664C190.804 62.3289 182 53.5248 182 42.6644V42.6644Z" fill="#FFF5E6" shape-rendering="crispEdges"/>
<path d="M201.664 23.5H282.336C292.92 23.5 301.5 32.0802 301.5 42.6644C301.5 53.2486 292.92 61.8289 282.336 61.8289H201.664C191.08 61.8289 182.5 53.2486 182.5 42.6644C182.5 32.0802 191.08 23.5 201.664 23.5Z" stroke="#FF8120" shape-rendering="crispEdges"/>
<path d="M198.262 36.9743H199.216V38.1083C199.216 39.719 200.362 41.1365 201.986 41.7035L201.458 42.4637C200.221 41.9999 199.254 41.0721 198.765 39.8737C198.288 41.2396 197.257 42.2833 195.904 42.7988L195.401 42.0127C197.089 41.3942 198.262 39.8994 198.262 38.147V36.9743ZM197.192 45.4662C197.192 44.126 198.623 43.34 200.955 43.34C203.275 43.34 204.692 44.126 204.692 45.4662C204.692 46.8192 203.275 47.5795 200.955 47.5795C198.623 47.5795 197.192 46.8192 197.192 45.4662ZM198.172 45.4662C198.172 46.3037 199.216 46.8192 200.955 46.8192C202.669 46.8192 203.739 46.3037 203.739 45.4662C203.739 44.6157 202.669 44.1131 200.955 44.1131C199.216 44.1131 198.172 44.6157 198.172 45.4662ZM201.174 39.5644V38.7526H203.674V36.3301H204.641V43.005H203.674V39.5644H201.174ZM214.79 36.3429H215.769V44.577H214.79V36.3429ZM206.801 39.8994C206.801 38.2629 208.064 37.129 209.726 37.129C211.401 37.129 212.651 38.2629 212.651 39.8994C212.651 41.5102 211.401 42.657 209.726 42.657C208.064 42.657 206.801 41.5102 206.801 39.8994ZM207.742 39.8994C207.742 41.0076 208.605 41.8066 209.726 41.8066C210.86 41.8066 211.723 41.0076 211.723 39.8994C211.723 38.7655 210.86 37.9666 209.726 37.9666C208.605 37.9666 207.742 38.7655 207.742 39.8994ZM208.566 47.3475V43.7394H209.52V46.5486H216.117V47.3475H208.566ZM217.685 41.9354H220.223V40.3247C219.321 39.9639 218.819 39.3969 218.819 38.6366C218.819 37.3094 220.339 36.5491 222.775 36.5491C225.21 36.5491 226.731 37.3094 226.731 38.6366C226.731 39.3969 226.228 39.9639 225.339 40.3118V41.9354H227.865V42.7086H217.685V41.9354ZM218.922 45.5821C218.922 44.3193 220.365 43.5977 222.775 43.5977C225.184 43.5977 226.628 44.3193 226.628 45.5821C226.628 46.8707 225.184 47.5923 222.775 47.5923C220.365 47.5923 218.922 46.8707 218.922 45.5821ZM219.811 38.6366C219.811 39.4613 220.958 39.9639 222.775 39.9639C224.592 39.9639 225.739 39.4613 225.739 38.6366C225.739 37.799 224.592 37.2965 222.775 37.2965C220.958 37.2965 219.811 37.799 219.811 38.6366ZM219.888 45.5821C219.888 46.3811 220.971 46.8321 222.775 46.8321C224.566 46.8321 225.648 46.3811 225.648 45.5821C225.648 44.809 224.566 44.3451 222.775 44.3451C220.971 44.3451 219.888 44.809 219.888 45.5821ZM221.177 41.9354H224.386V40.5824C223.909 40.6597 223.368 40.7113 222.775 40.7113C222.182 40.7113 221.654 40.6726 221.177 40.5824V41.9354ZM228.827 45.3373H233.44V42.8761H230.051V37.129H231.004V39.165H236.855V37.129H237.808V42.8761H234.393V45.3373H239.045V46.1491H228.827V45.3373ZM231.004 42.0901H236.855V39.9639H231.004V42.0901ZM248.525 36.3301H249.452V43.4688H248.525V40.2216H247.017V43.0565H246.102V36.562H247.017V39.4227H248.525V36.3301ZM239.891 38.482V37.696H242.314V36.4203H243.254V37.696H245.638V38.482H239.891ZM240.394 40.9948C240.394 39.835 241.36 39.0748 242.778 39.0748C244.195 39.0748 245.174 39.835 245.174 40.9948C245.174 42.1803 244.195 42.9276 242.778 42.9276C241.36 42.9276 240.394 42.1803 240.394 40.9948ZM241.244 40.9948C241.244 41.7292 241.876 42.206 242.778 42.206C243.68 42.206 244.324 41.7292 244.324 40.9948C244.324 40.2731 243.68 39.8092 242.778 39.8092C241.876 39.8092 241.244 40.2731 241.244 40.9948ZM242.017 45.6337C242.017 44.3837 243.409 43.675 245.754 43.675C248.112 43.675 249.517 44.3837 249.517 45.6337C249.517 46.8707 248.112 47.5795 245.754 47.5795C243.409 47.5795 242.017 46.8707 242.017 45.6337ZM242.958 45.6337C242.958 46.3939 244.015 46.8321 245.754 46.8321C247.507 46.8321 248.55 46.3939 248.55 45.6337C248.55 44.8476 247.507 44.4224 245.754 44.4224C244.015 44.4224 242.958 44.8476 242.958 45.6337ZM259.37 36.3301H260.337V47.6052H259.37V36.3301ZM251.252 44.7059C254.293 43.2498 255.826 41.0463 256.033 38.3403H251.755V37.5413H257.012C257.012 40.7886 255.517 43.6492 251.767 45.479L251.252 44.7059Z" fill="#1A1A1A"/>
<path d="M281.874 45.8527C283.717 44.0616 286.513 41.8066 286.513 40.1185C286.513 38.9201 285.753 38.0697 284.658 38.0697C283.872 38.0697 283.06 38.6624 282.686 39.5129L281.836 39.1521C282.325 38.031 283.498 37.245 284.658 37.245C286.294 37.245 287.441 38.4305 287.441 40.1185C287.441 42.0772 284.941 44.1776 283.137 45.8527H287.596V46.6774H282.003L281.874 45.8527Z" fill="#FF8120"/>
</g>
<g filter="url(#filter3_dd_10529_6688)">
<path d="M182 89.9933C182 79.1329 190.804 70.3289 201.664 70.3289H282.336C293.196 70.3289 302 79.1329 302 89.9933V89.9933C302 100.854 293.196 109.658 282.336 109.658H201.664C190.804 109.658 182 100.854 182 89.9933V89.9933Z" fill="#FFF5E6" shape-rendering="crispEdges"/>
<path d="M201.664 70.8289H282.336C292.92 70.8289 301.5 79.4091 301.5 89.9933C301.5 100.578 292.92 109.158 282.336 109.158H201.664C191.08 109.158 182.5 100.578 182.5 89.9933C182.5 79.4091 191.08 70.8289 201.664 70.8289Z" stroke="#FF8120" shape-rendering="crispEdges"/>
<path d="M195.749 84.8186H202.05V85.6305H199.37V87.151C199.37 89.071 200.788 91.0039 202.411 91.7126L201.857 92.4858C200.569 91.8801 199.422 90.5658 198.893 89.0066C198.378 90.6688 197.244 92.1121 195.955 92.7564L195.401 91.9961C196.986 91.2229 198.404 89.0968 198.404 87.151V85.6305H195.749V84.8186ZM203.623 94.9341V83.6589H204.589V94.9341H203.623ZM206.891 84.6382H212.935V85.4372H211.775V88.7617C212.355 88.7231 212.935 88.6715 213.476 88.5942L213.54 89.3158C211.259 89.7024 208.618 89.7411 206.711 89.7411L206.595 88.9164C207.046 88.9164 207.522 88.9164 208.038 88.9035V85.4372H206.891V84.6382ZM207.999 92.8594C207.999 91.5709 209.404 90.8235 211.685 90.8235C213.991 90.8235 215.383 91.5709 215.383 92.8594C215.383 94.1609 213.991 94.9083 211.685 94.9083C209.404 94.9083 207.999 94.1609 207.999 92.8594ZM208.953 92.8594C208.953 93.6584 209.984 94.148 211.685 94.148C213.398 94.148 214.442 93.6584 214.442 92.8594C214.442 92.0734 213.398 91.5966 211.685 91.5966C209.984 91.5966 208.953 92.0734 208.953 92.8594ZM208.979 88.8906C209.584 88.8777 210.216 88.8648 210.847 88.8262V85.4372H208.979V88.8906ZM214.313 90.5786V83.6589H215.28V86.5969H216.968V87.4087H215.28V90.5786H214.313ZM225.919 83.646H226.885V94.947H225.919V83.646ZM218.097 88.4525C218.097 86.0557 219.283 84.5352 220.958 84.5352C222.62 84.5352 223.806 86.0557 223.806 88.4525C223.806 90.8492 222.62 92.3827 220.958 92.3827C219.283 92.3827 218.097 90.8492 218.097 88.4525ZM219.038 88.4525C219.038 90.2952 219.824 91.5193 220.958 91.5193C222.079 91.5193 222.878 90.2952 222.878 88.4525C222.878 86.6098 222.079 85.3985 220.958 85.3985C219.824 85.3985 219.038 86.6098 219.038 88.4525Z" fill="#1A1A1A"/>
<path d="M281.874 93.1816C283.717 91.3905 286.513 89.1354 286.513 87.4474C286.513 86.249 285.753 85.3985 284.658 85.3985C283.872 85.3985 283.06 85.9913 282.686 86.8417L281.836 86.4809C282.325 85.3599 283.498 84.5738 284.658 84.5738C286.294 84.5738 287.441 85.7593 287.441 87.4474C287.441 89.406 284.941 91.5064 283.137 93.1816H287.596V94.0063H282.003L281.874 93.1816Z" fill="#FF8120"/>
</g>
<path d="M240 167.667C240 166.562 240.895 165.667 242 165.667C243.105 165.667 244 166.562 244 167.667C244 168.771 243.105 169.667 242 169.667C240.895 169.667 240 168.771 240 167.667Z" fill="#C9C7C7"/>
<path d="M240 177.667C240 176.562 240.895 175.667 242 175.667C243.105 175.667 244 176.562 244 177.667C244 178.771 243.105 179.667 242 179.667C240.895 179.667 240 178.771 240 177.667Z" fill="#C9C7C7"/>
<defs>
<filter id="filter0_d_10529_6688" x="15.25" y="39.25" width="274.5" height="103.5" filterUnits="userSpaceOnUse" color-interpolation-filters="sRGB">
<feFlood flood-opacity="0" result="BackgroundImageFix"/>
<feColorMatrix in="SourceAlpha" type="matrix" values="0 0 0 0 0 0 0 0 0 0 0 0 0 0 0 0 0 0 127 0" result="hardAlpha"/>
<feOffset/>
<feGaussianBlur stdDeviation="0.375"/>
<feComposite in2="hardAlpha" operator="out"/>
<feColorMatrix type="matrix" values="0 0 0 0 0 0 0 0 0 0 0 0 0 0 0 0 0 0 0.2 0"/>
<feBlend mode="normal" in2="BackgroundImageFix" result="effect1_dropShadow_10529_6688"/>
<feBlend mode="normal" in="SourceGraphic" in2="effect1_dropShadow_10529_6688" result="shape"/>
</filter>
<filter id="filter1_dd_10529_6688" x="169.114" y="106.383" width="145.772" height="65.1007" filterUnits="userSpaceOnUse" color-interpolation-filters="sRGB">
<feFlood flood-opacity="0" result="BackgroundImageFix"/>
<feColorMatrix in="SourceAlpha" type="matrix" values="0 0 0 0 0 0 0 0 0 0 0 0 0 0 0 0 0 0 127 0" result="hardAlpha"/>
<feOffset/>
<feGaussianBlur stdDeviation="0.402685"/>
<feComposite in2="hardAlpha" operator="out"/>
<feColorMatrix type="matrix" values="0 0 0 0 0 0 0 0 0 0 0 0 0 0 0 0 0 0 0.2 0"/>
<feBlend mode="normal" in2="BackgroundImageFix" result="effect1_dropShadow_10529_6688"/>
<feColorMatrix in="SourceAlpha" type="matrix" values="0 0 0 0 0 0 0 0 0 0 0 0 0 0 0 0 0 0 127 0" result="hardAlpha"/>
<feOffset dy="1.61074"/>
<feGaussianBlur stdDeviation="6.44295"/>
<feComposite in2="hardAlpha" operator="out"/>
<feColorMatrix type="matrix" values="0 0 0 0 0 0 0 0 0 0 0 0 0 0 0 0 0 0 0.08 0"/>
<feBlend mode="normal" in2="effect1_dropShadow_10529_6688" result="effect2_dropShadow_10529_6688"/>
<feBlend mode="normal" in="SourceGraphic" in2="effect2_dropShadow_10529_6688" result="shape"/>
</filter>
<filter id="filter2_dd_10529_6688" x="169.114" y="11.7248" width="145.772" height="65.1007" filterUnits="userSpaceOnUse" color-interpolation-filters="sRGB">
<feFlood flood-opacity="0" result="BackgroundImageFix"/>
<feColorMatrix in="SourceAlpha" type="matrix" values="0 0 0 0 0 0 0 0 0 0 0 0 0 0 0 0 0 0 127 0" result="hardAlpha"/>
<feOffset/>
<feGaussianBlur stdDeviation="0.402685"/>
<feComposite in2="hardAlpha" operator="out"/>
<feColorMatrix type="matrix" values="0 0 0 0 0 0 0 0 0 0 0 0 0 0 0 0 0 0 0.2 0"/>
<feBlend mode="normal" in2="BackgroundImageFix" result="effect1_dropShadow_10529_6688"/>
<feColorMatrix in="SourceAlpha" type="matrix" values="0 0 0 0 0 0 0 0 0 0 0 0 0 0 0 0 0 0 127 0" result="hardAlpha"/>
<feOffset dy="1.61074"/>
<feGaussianBlur stdDeviation="6.44295"/>
<feComposite in2="hardAlpha" operator="out"/>
<feColorMatrix type="matrix" values="0 0 0 0 0 0 0 0 0 0 0 0 0 0 0 0 0 0 0.08 0"/>
<feBlend mode="normal" in2="effect1_dropShadow_10529_6688" result="effect2_dropShadow_10529_6688"/>
<feBlend mode="normal" in="SourceGraphic" in2="effect2_dropShadow_10529_6688" result="shape"/>
</filter>
<filter id="filter3_dd_10529_6688" x="169.114" y="59.0537" width="145.772" height="65.1007" filterUnits="userSpaceOnUse" color-interpolation-filters="sRGB">
<feFlood flood-opacity="0" result="BackgroundImageFix"/>
<feColorMatrix in="SourceAlpha" type="matrix" values="0 0 0 0 0 0 0 0 0 0 0 0 0 0 0 0 0 0 127 0" result="hardAlpha"/>
<feOffset/>
<feGaussianBlur stdDeviation="0.402685"/>
<feComposite in2="hardAlpha" operator="out"/>
<feColorMatrix type="matrix" values="0 0 0 0 0 0 0 0 0 0 0 0 0 0 0 0 0 0 0.2 0"/>
<feBlend mode="normal" in2="BackgroundImageFix" result="effect1_dropShadow_10529_6688"/>
<feColorMatrix in="SourceAlpha" type="matrix" values="0 0 0 0 0 0 0 0 0 0 0 0 0 0 0 0 0 0 127 0" result="hardAlpha"/>
<feOffset dy="1.61074"/>
<feGaussianBlur stdDeviation="6.44295"/>
<feComposite in2="hardAlpha" operator="out"/>
<feColorMatrix type="matrix" values="0 0 0 0 0 0 0 0 0 0 0 0 0 0 0 0 0 0 0.08 0"/>
<feBlend mode="normal" in2="effect1_dropShadow_10529_6688" result="effect2_dropShadow_10529_6688"/>
<feBlend mode="normal" in="SourceGraphic" in2="effect2_dropShadow_10529_6688" result="shape"/>
</filter>
</defs>
</svg>
