<svg width="16" height="17" viewBox="0 0 16 17" fill="none" xmlns="http://www.w3.org/2000/svg">
<g id="_&#237;&#131;&#128;&#236;&#157;&#180;&#237;&#139;&#128;">
<path id="Vector (Stroke)" fill-rule="evenodd" clip-rule="evenodd" d="M5.33211 10.8076C5.56407 10.8076 5.75211 10.9957 5.75211 11.2276V12.8655C5.75211 14.3733 6.97429 15.5928 8.47938 15.5928H8.66064C10.1685 15.5928 11.3879 14.3706 11.3879 12.8655V11.2276C11.3879 10.9957 11.5759 10.8076 11.8079 10.8076C12.0399 10.8076 12.2279 10.9957 12.2279 11.2276V12.8655C12.2279 14.834 10.6329 16.4328 8.66064 16.4328H8.47938C6.51094 16.4328 4.91211 14.8378 4.91211 12.8655V11.2276C4.91211 10.9957 5.10015 10.8076 5.33211 10.8076Z" fill="#282828"/>
<path id="Vector" d="M11.8066 11.8112V10.3282C11.8066 9.52411 12.4592 8.87158 13.2633 8.87158C14.0674 8.87158 14.7199 9.52411 14.7199 10.3282V14.2368" stroke="#282828" stroke-width="0.84" stroke-linecap="round" stroke-linejoin="round"/>
<g id="Vector_2">
<path d="M1.50856 0.412109C0.902173 0.412109 0.411133 0.903149 0.411133 1.50953V8.11056C0.411133 10.1307 2.04903 11.7719 4.07251 11.7719H6.35634C8.37653 11.7719 10.0177 10.134 10.0177 8.11056V1.50953C10.0177 0.903149 9.52668 0.412109 8.9203 0.412109H1.50856Z" fill="#00C7EC"/>
<path d="M4.29002 3.54949H0.411133V7.47122H4.29002V3.54949Z" fill="#FD6754"/>
</g>
<path id="Vector (Stroke)_2" fill-rule="evenodd" clip-rule="evenodd" d="M-0.00878873 1.50912C-0.00878873 0.67078 0.670292 -0.00830078 1.50864 -0.00830078H8.92038C9.75872 -0.00830078 10.4378 0.67078 10.4378 1.50912V8.11015C10.4378 10.3658 8.60832 12.1915 6.35642 12.1915H4.07259C1.8169 12.1915 -0.00878873 10.3621 -0.00878873 8.11015V7.47135L-0.00878906 3.54908L-0.00878873 1.50912ZM0.831211 3.96908V7.05081H3.8701V3.96908H0.831211ZM0.831211 7.89081H4.2901C4.52206 7.89081 4.7101 7.70277 4.7101 7.47081V3.54908C4.7101 3.31712 4.52206 3.12908 4.2901 3.12908H0.831211V1.50912C0.831211 1.1347 1.13421 0.831699 1.50864 0.831699H8.92038C9.2948 0.831699 9.5978 1.1347 9.5978 1.50912V8.11015C9.5978 9.90143 8.14489 11.3515 6.35642 11.3515H4.07259C2.28132 11.3515 0.831211 9.89863 0.831211 8.11015V7.89081ZM6.87216 4.26744C6.87216 4.03548 7.0602 3.84743 7.29216 3.84743H8.41266C8.64462 3.84743 8.83266 4.03548 8.83266 4.26744C8.83266 4.49939 8.64462 4.68744 8.41266 4.68744H7.29216C7.0602 4.68744 6.87216 4.49939 6.87216 4.26744ZM6.87216 6.42931C6.87216 6.19735 7.0602 6.00931 7.29216 6.00931H8.41266C8.64462 6.00931 8.83266 6.19735 8.83266 6.42931C8.83266 6.66127 8.64462 6.84931 8.41266 6.84931H7.29216C7.0602 6.84931 6.87216 6.66127 6.87216 6.42931Z" fill="#282828"/>
<path id="Vector_3" d="M15.5872 15.2026C15.5872 15.7167 15.172 16.1319 14.6579 16.1319C14.1438 16.1319 13.7285 15.7167 13.7285 15.2026V12.9748C13.7285 12.4607 14.1438 12.0454 14.6579 12.0454C15.172 12.0454 15.5872 12.4607 15.5872 12.9748V15.2026Z" fill="white"/>
<path id="Vector (Stroke)_3" fill-rule="evenodd" clip-rule="evenodd" d="M14.6579 12.4655C14.3758 12.4655 14.1486 12.6927 14.1486 12.9748V15.2026C14.1486 15.4848 14.3758 15.712 14.6579 15.712C14.9401 15.712 15.1673 15.4848 15.1673 15.2026V12.9748C15.1673 12.6927 14.9401 12.4655 14.6579 12.4655ZM13.3086 12.9748C13.3086 12.2288 13.9119 11.6255 14.6579 11.6255C15.404 11.6255 16.0073 12.2288 16.0073 12.9748V15.2026C16.0073 15.9487 15.404 16.552 14.6579 16.552C13.9119 16.552 13.3086 15.9487 13.3086 15.2026V12.9748Z" fill="#282828"/>
</g>
</svg>
