<svg width="18" height="18" viewBox="0 0 18 18" fill="none" xmlns="http://www.w3.org/2000/svg">
<g id="_&#237;&#131;&#128;&#236;&#157;&#180;&#237;&#139;&#128;" clip-path="url(#clip0_9288_1233)">
<path id="Vector (Stroke)" fill-rule="evenodd" clip-rule="evenodd" d="M7.00005 1.2832C6.66135 1.2832 6.38477 1.55979 6.38477 1.89848V3.6143C6.38477 3.89044 6.16091 4.1143 5.88477 4.1143C5.60862 4.1143 5.38477 3.89044 5.38477 3.6143V1.89848C5.38477 1.00751 6.10907 0.283203 7.00005 0.283203H11C11.891 0.283203 12.6153 1.00751 12.6153 1.89848V3.6143C12.6153 3.89044 12.3915 4.1143 12.1153 4.1143C11.8392 4.1143 11.6153 3.89044 11.6153 3.6143V1.89848C11.6153 1.55979 11.3387 1.2832 11 1.2832H7.00005Z" fill="#282828"/>
<path id="Vector" d="M2.6927 3.83936H15.3075C16.362 3.83936 17.22 4.69726 17.22 5.75178V14.8063C17.22 15.8608 16.362 16.7187 15.3075 16.7187H2.6927C1.63818 16.7187 0.780273 15.8608 0.780273 14.8063V5.75178C0.780273 4.69726 1.63818 3.83936 2.6927 3.83936Z" fill="#EF5750"/>
<path id="Vector (Stroke)_2" fill-rule="evenodd" clip-rule="evenodd" d="M2.6927 4.33936C1.91432 4.33936 1.28027 4.97341 1.28027 5.75178V14.8063C1.28027 15.5847 1.91432 16.2187 2.6927 16.2187H15.3075C16.0859 16.2187 16.72 15.5847 16.72 14.8063V5.75178C16.72 4.97341 16.0859 4.33936 15.3075 4.33936H2.6927ZM0.280273 5.75178C0.280273 4.42112 1.36204 3.33936 2.6927 3.33936H15.3075C16.6382 3.33936 17.72 4.42112 17.72 5.75178V14.8063C17.72 16.1369 16.6382 17.2187 15.3075 17.2187H2.6927C1.36204 17.2187 0.280273 16.1369 0.280273 14.8063V5.75178Z" fill="#282828"/>
<path id="Vector_2" d="M8.99792 13.1195C8.4796 13.1195 8.0578 12.6977 8.0578 12.1794V11.3179H7.19989C6.68157 11.3179 6.25977 10.8961 6.25977 10.3778C6.25977 9.85949 6.68157 9.43768 7.19989 9.43768H8.0578V8.57977C8.0578 8.06145 8.4796 7.63965 8.99792 7.63965C9.51624 7.63965 9.93805 8.06145 9.93805 8.57977V9.43768H10.796C11.3143 9.43768 11.7361 9.85949 11.7361 10.3778C11.7361 10.8961 11.3143 11.3179 10.796 11.3179H9.93805V12.1794C9.93805 12.6977 9.51624 13.1195 8.99792 13.1195Z" fill="#FFEC7B"/>
<path id="Vector (Stroke)_3" fill-rule="evenodd" clip-rule="evenodd" d="M8.99792 8.13965C8.75575 8.13965 8.5578 8.3376 8.5578 8.57977V9.93768H7.19989C6.95771 9.93768 6.75977 10.1356 6.75977 10.3778C6.75977 10.62 6.95771 10.8179 7.19989 10.8179H8.5578V12.1794C8.5578 12.4216 8.75575 12.6195 8.99792 12.6195C9.2401 12.6195 9.43805 12.4216 9.43805 12.1794V10.8179H10.796C11.0381 10.8179 11.2361 10.62 11.2361 10.3778C11.2361 10.1356 11.0381 9.93768 10.796 9.93768H9.43805V8.57977C9.43805 8.3376 9.2401 8.13965 8.99792 8.13965ZM7.5578 8.57977C7.5578 7.78531 8.20346 7.13965 8.99792 7.13965C9.79239 7.13965 10.4381 7.78531 10.4381 8.57977V8.93768H10.796C11.5904 8.93768 12.2361 9.58335 12.2361 10.3778C12.2361 11.1723 11.5904 11.8179 10.796 11.8179H10.4381V12.1794C10.4381 12.9739 9.79239 13.6195 8.99792 13.6195C8.20346 13.6195 7.5578 12.9739 7.5578 12.1794V11.8179H7.19989C6.40543 11.8179 5.75977 11.1723 5.75977 10.3778C5.75977 9.58335 6.40543 8.93768 7.19989 8.93768H7.5578V8.57977Z" fill="#282828"/>
</g>
<defs>
<clipPath id="clip0_9288_1233">
<rect width="17.3333" height="16.8329" fill="white" transform="translate(0.333984 0.333008)"/>
</clipPath>
</defs>
</svg>
