<svg width="20" height="20" viewBox="0 0 20 20" fill="none" xmlns="http://www.w3.org/2000/svg">
<g id="_&#237;&#131;&#128;&#236;&#157;&#180;&#237;&#139;&#128;">
<path id="Vector" d="M9.99619 4.04615V16.5308C9.99619 16.9192 9.84001 17.2923 9.56954 17.5692C9.29527 17.8462 8.92957 18 8.54101 18C8.15627 17.9962 7.78676 17.8385 7.5163 17.5654C7.24583 17.2923 7.08965 16.9192 7.08584 16.5308C6.96394 16.5423 6.84204 16.5423 6.72014 16.5308C6.04588 16.5308 5.39829 16.2577 4.92212 15.7769C4.44595 15.2962 4.17549 14.6423 4.17549 13.9615C4.17549 13.7808 4.19834 13.6 4.23644 13.4231C3.64217 13.2231 3.11648 12.8577 2.72412 12.3654C2.33175 11.8731 2.08415 11.2769 2.01939 10.6462C1.95082 10.0154 2.0651 9.38077 2.34699 8.81539C2.62888 8.25 3.06315 7.77692 3.60027 7.45385C3.50504 7.18462 3.45552 6.9 3.45552 6.61538C3.45552 6 3.67646 5.40385 4.07644 4.93846C4.47642 4.47308 5.02878 4.16538 5.63447 4.07692C5.66876 3.51538 5.91255 2.98846 6.31635 2.6C6.72395 2.21538 7.25726 2 7.81724 2C8.37721 2 8.91052 2.21538 9.31812 2.6C9.72573 2.98462 9.96953 3.51538 10 4.07692V4.04615H9.99619Z" fill="#FFA64D"/>
<path id="Vector (Stroke)" fill-rule="evenodd" clip-rule="evenodd" d="M6.66125 2.96201C6.34894 3.26331 6.16014 3.67176 6.13354 4.10739L6.10878 4.51295L5.70673 4.57167C5.22248 4.6424 4.77842 4.8888 4.45564 5.26436C4.13373 5.63891 3.95552 6.11939 3.95552 6.61538C3.95552 6.84232 3.99507 7.0706 4.07165 7.28711L4.20777 7.67192L3.85799 7.88231C3.40368 8.15557 3.03461 8.55682 2.79446 9.03848C2.55523 9.5183 2.45826 10.0567 2.51646 10.5921L2.51678 10.5951C2.57157 11.1288 2.7813 11.6349 3.11513 12.0538C3.4468 12.4699 3.89171 12.7795 4.39592 12.9492L4.81925 13.0917L4.72523 13.5283C4.69312 13.6775 4.67549 13.8225 4.67549 13.9615C4.67549 14.5102 4.89371 15.0377 5.27737 15.4251C5.66088 15.8123 6.18108 16.0308 6.72014 16.0308H6.74375L6.76726 16.033C6.85781 16.0416 6.94816 16.0416 7.03872 16.033L7.58048 15.9817L7.58581 16.5259C7.58835 16.7845 7.69279 17.0331 7.87154 17.2135C8.04955 17.3933 8.29251 17.4968 8.54349 17.5C8.7957 17.4994 9.03243 17.4004 9.21304 17.2186C9.39395 17.0328 9.49619 16.7847 9.49619 16.5308V4.04149C9.45867 3.62978 9.27306 3.24494 8.97497 2.96366C8.65858 2.66511 8.24746 2.5 7.81724 2.5C7.38781 2.5 6.97741 2.6645 6.66125 2.96201ZM10.424 3.54615C10.3011 3.04913 10.0387 2.59244 9.66128 2.23634C9.16246 1.76566 8.50697 1.5 7.81724 1.5C7.1275 1.5 6.47201 1.76566 5.9732 2.23634L5.9697 2.23967C5.56903 2.62514 5.29722 3.12182 5.18634 3.6619C4.60896 3.82355 4.09073 4.15474 3.69725 4.61256C3.21919 5.16879 2.95552 5.88061 2.95552 6.61538C2.95552 6.82597 2.97804 7.03605 3.02188 7.24152C2.54963 7.59647 2.16529 8.05925 1.89953 8.59228C1.57519 9.2428 1.44356 9.97304 1.52215 10.6987C1.59711 11.426 1.88251 12.1116 2.33311 12.677C2.69746 13.1342 3.16102 13.4961 3.68449 13.74C3.67864 13.8131 3.67549 13.887 3.67549 13.9615C3.67549 14.7744 3.99819 15.5546 4.56687 16.1288C5.12002 16.6873 5.8681 17.0125 6.65327 17.03C6.74218 17.3631 6.91643 17.6703 7.16105 17.9172C7.52337 18.2831 8.0184 18.4948 8.53602 18.5L8.54102 18.5C9.06441 18.5 9.5576 18.2918 9.92479 17.9211L9.92724 17.9186C10.2865 17.5507 10.4962 17.0532 10.4962 16.5308V4.07703L10.5 4.07692V3.54615H10.424Z" fill="#282828"/>
<path id="Vector_2" d="M5.99967 9.33333C5.2793 9.29746 4.60104 8.99851 4.10394 8.50424C3.60684 8.00997 3.33301 7.35227 3.33301 6.66667C3.33301 5.98107 3.61105 5.32735 4.10394 4.8291C4.60104 4.33483 5.2793 4.03587 5.99967 4" fill="#FFA64D"/>
<path id="Vector (Stroke)_2" fill-rule="evenodd" clip-rule="evenodd" d="M6.49906 3.97514C6.51279 4.25094 6.30034 4.48566 6.02454 4.49939C5.42602 4.5292 4.86577 4.77745 4.45795 5.18222C4.05421 5.59108 3.83301 6.11949 3.83301 6.66668C3.83301 7.21745 4.05254 7.74804 4.45648 8.14968C4.86443 8.55531 5.4253 8.80412 6.02454 8.83396C6.30034 8.8477 6.51279 9.08241 6.49906 9.35821C6.48532 9.63401 6.25061 9.84646 5.97481 9.83273C5.13329 9.79082 4.33766 9.44173 3.7514 8.85881C3.16114 8.27191 2.83301 7.4871 2.83301 6.66668C2.83301 5.84332 3.16736 5.06492 3.74848 4.47747L3.75139 4.47453L3.7514 4.47455C4.33766 3.89163 5.13329 3.54254 5.97481 3.50063C6.25061 3.4869 6.48532 3.69934 6.49906 3.97514Z" fill="#282828"/>
<path id="Vector_3" d="M7.33301 11.3335C7.68205 11.3335 8.03109 11.4033 8.35221 11.5359C8.67681 11.6686 8.97001 11.8675 9.21782 12.1153C9.46564 12.3632 9.66111 12.6564 9.79723 12.981C9.92987 13.3056 9.99967 13.6511 9.99967 14.0002" fill="#FFA64D"/>
<path id="Vector (Stroke)_3" fill-rule="evenodd" clip-rule="evenodd" d="M6.83301 11.3335C6.83301 11.0574 7.05687 10.8335 7.33301 10.8335C7.74761 10.8335 8.16116 10.9162 8.54221 11.0734C8.93099 11.2324 9.27913 11.4695 9.57138 11.7618C9.86599 12.0564 10.0976 12.4043 10.2583 12.7876L10.2601 12.7918L10.2601 12.7918C10.4165 13.1746 10.4997 13.5843 10.4997 14.0002C10.4997 14.2763 10.2758 14.5002 9.99967 14.5002C9.72353 14.5002 9.49967 14.2763 9.49967 14.0002C9.49967 13.7187 9.44355 13.438 9.33524 13.1722C9.22378 12.9072 9.06476 12.6694 8.86427 12.4689C8.66111 12.2657 8.42316 12.1051 8.16308 11.9988L8.16132 11.9981L8.16133 11.9981C7.90039 11.8903 7.61617 11.8335 7.33301 11.8335C7.05687 11.8335 6.83301 11.6096 6.83301 11.3335Z" fill="#282828"/>
<path id="Vector_4" d="M8 6.66667C8.26224 6.66667 8.52448 6.5971 8.76573 6.46261C9.01049 6.32812 9.23077 6.13333 9.41608 5.8829C9.6014 5.6371 9.74825 5.34029 9.84965 5.02029C9.95105 4.69565 10 4.35246 10 4" fill="#FFA64D"/>
<path id="Vector (Stroke)_4" fill-rule="evenodd" clip-rule="evenodd" d="M10 3.5C10.2761 3.5 10.5 3.72386 10.5 4C10.5 4.39873 10.4446 4.79254 10.3269 5.16936L10.3263 5.17133L10.3263 5.17132C10.2106 5.53639 10.0403 5.88506 9.81668 6.18211C9.59271 6.4843 9.31991 6.72834 9.00786 6.90008C8.69609 7.0736 8.35095 7.16667 8 7.16667C7.72386 7.16667 7.5 6.94281 7.5 6.66667C7.5 6.39052 7.72386 6.16667 8 6.16667C8.17302 6.16667 8.35188 6.12087 8.52228 6.02588L8.52494 6.0244L8.52494 6.02441C8.70123 5.92754 8.86807 5.78291 9.01416 5.58548L9.01682 5.58188L9.01684 5.58189C9.16304 5.38798 9.28582 5.14405 9.37269 4.87025C9.45759 4.59807 9.5 4.30583 9.5 4C9.5 3.72386 9.72386 3.5 10 3.5Z" fill="#282828"/>
<path id="Vector_5" d="M10.0038 4.04615V16.5308C10.0038 16.9192 10.16 17.2923 10.4305 17.5692C10.7047 17.8462 11.0704 18 11.459 18C11.8437 17.9962 12.2132 17.8385 12.4837 17.5654C12.7542 17.2923 12.9104 16.9192 12.9142 16.5308C13.0361 16.5423 13.158 16.5423 13.2799 16.5308C13.9541 16.5308 14.6017 16.2577 15.0779 15.7769C15.554 15.2962 15.8245 14.6423 15.8245 13.9615C15.8245 13.7808 15.8017 13.6 15.7636 13.4231C16.3578 13.2231 16.8835 12.8577 17.2759 12.3654C17.6682 11.8731 17.9159 11.2769 17.9806 10.6462C18.0492 10.0154 17.9349 9.38077 17.653 8.81539C17.3711 8.25 16.9368 7.77692 16.3997 7.45385C16.495 7.18462 16.5445 6.9 16.5445 6.61538C16.5445 6 16.3235 5.40385 15.9236 4.93846C15.5236 4.47308 14.9712 4.16538 14.3655 4.07692C14.3312 3.51538 14.0874 2.98846 13.6837 2.6C13.2761 2.21538 12.7427 2 12.1828 2C11.6228 2 11.0895 2.21538 10.6819 2.6C10.2743 2.98462 10.0305 3.51538 10 4.07692V4.04615H10.0038Z" fill="#FFA64D"/>
<path id="Vector (Stroke)_5" fill-rule="evenodd" clip-rule="evenodd" d="M10.3387 2.23634C10.8375 1.76566 11.493 1.5 12.1828 1.5C12.8725 1.5 13.528 1.76566 14.0268 2.23634L14.0303 2.23966C14.431 2.62512 14.7028 3.12182 14.8137 3.6619C15.391 3.82355 15.9093 4.15474 16.3028 4.61256C16.7808 5.16879 17.0445 5.88061 17.0445 6.61538C17.0445 6.82597 17.022 7.03606 16.9781 7.24152C17.4504 7.59647 17.8347 8.05924 18.1005 8.59228C18.4248 9.2428 18.5564 9.97304 18.4778 10.6987C18.4029 11.426 18.1175 12.1116 17.6669 12.677C17.3025 13.1342 16.839 13.4961 16.3155 13.74C16.3214 13.8131 16.3245 13.887 16.3245 13.9615C16.3245 14.7744 16.0018 15.5546 15.4331 16.1288C14.88 16.6873 14.1319 17.0125 13.3467 17.03C13.2578 17.3631 13.0836 17.6703 12.839 17.9172C12.4766 18.2831 11.9816 18.4948 11.464 18.5L11.459 18.5C10.9356 18.5 10.4424 18.2918 10.0752 17.9211L10.0727 17.9186C9.71348 17.5507 9.50381 17.0532 9.50381 16.5308V4.07703L9.5 4.07692V3.54615H9.576C9.69892 3.04913 9.96134 2.59245 10.3387 2.23634ZM10.5038 4.04149C10.5413 3.62978 10.7269 3.24494 11.025 2.96366C11.3414 2.66511 11.7525 2.5 12.1828 2.5C12.6122 2.5 13.0226 2.6645 13.3388 2.96201C13.6511 3.26331 13.8399 3.67176 13.8665 4.10739L13.8912 4.51295L14.2933 4.57167C14.7775 4.6424 15.2216 4.8888 15.5444 5.26437C15.8663 5.63891 16.0445 6.11939 16.0445 6.61538C16.0445 6.84233 16.0049 7.0706 15.9284 7.28711L15.7922 7.67192L16.142 7.88231C16.5963 8.15557 16.9654 8.55682 17.2055 9.03848C17.4448 9.5183 17.5417 10.0567 17.4835 10.5921L17.4832 10.5951C17.4284 11.1288 17.2187 11.6349 16.8849 12.0538C16.5532 12.4699 16.1083 12.7795 15.6041 12.9492L15.1808 13.0917L15.2748 13.5283C15.3069 13.6775 15.3245 13.8225 15.3245 13.9615C15.3245 14.5102 15.1063 15.0377 14.7226 15.4251C14.3391 15.8123 13.8189 16.0308 13.2799 16.0308H13.2563L13.2327 16.033C13.1422 16.0416 13.0518 16.0416 12.9613 16.033L12.4195 15.9817L12.4142 16.5259C12.4116 16.7845 12.3072 17.0331 12.1285 17.2135C11.9504 17.3933 11.7075 17.4968 11.4565 17.5C11.2043 17.4994 10.9676 17.4004 10.787 17.2186C10.606 17.0328 10.5038 16.7847 10.5038 16.5308V4.04149Z" fill="#282828"/>
<path id="Vector_6" d="M14 9.33333C14.7204 9.29746 15.3986 8.99851 15.8957 8.50424C16.3928 8.00997 16.6667 7.35227 16.6667 6.66667C16.6667 5.98107 16.3886 5.32735 15.8957 4.8291C15.3986 4.33483 14.7204 4.03587 14 4" fill="#FFA64D"/>
<path id="Vector (Stroke)_6" fill-rule="evenodd" clip-rule="evenodd" d="M13.5006 3.97514C13.5144 3.69934 13.7491 3.4869 14.0249 3.50063C14.8664 3.54254 15.662 3.89163 16.2483 4.47455L16.2512 4.47746L16.2512 4.47747C16.8323 5.06492 17.1667 5.84332 17.1667 6.66668C17.1667 7.4871 16.8385 8.27191 16.2483 8.85881C15.662 9.44173 14.8664 9.79082 14.0249 9.83273C13.7491 9.84646 13.5144 9.63401 13.5006 9.35821C13.4869 9.08241 13.6993 8.8477 13.9751 8.83396C14.5744 8.80412 15.1353 8.55531 15.5432 8.14968C15.9471 7.74804 16.1667 7.21745 16.1667 6.66668C16.1667 6.11949 15.9455 5.59108 15.5417 5.18221C15.1339 4.77745 14.5737 4.5292 13.9751 4.49939C13.6993 4.48566 13.4869 4.25094 13.5006 3.97514Z" fill="#282828"/>
<path id="Vector_7" d="M12.6667 11.3335C11.9581 11.3335 11.281 11.6162 10.7818 12.1153C10.2827 12.6145 10 13.2951 10 14.0002" fill="#FFA64D"/>
<path id="Vector (Stroke)_7" fill-rule="evenodd" clip-rule="evenodd" d="M10.4283 11.7618C11.0206 11.1695 11.8247 10.8335 12.6667 10.8335C12.9428 10.8335 13.1667 11.0574 13.1667 11.3335C13.1667 11.6096 12.9428 11.8335 12.6667 11.8335C12.0915 11.8335 11.5413 12.063 11.1354 12.4689C10.7297 12.8746 10.5 13.4282 10.5 14.0002C10.5 14.2763 10.2761 14.5002 10 14.5002C9.72386 14.5002 9.5 14.2763 9.5 14.0002C9.5 13.162 9.83573 12.3544 10.4283 11.7618Z" fill="#282828"/>
<path id="Vector_8" d="M12 6.66667C11.7378 6.66667 11.4755 6.5971 11.2343 6.46261C10.9895 6.32812 10.7692 6.13333 10.5839 5.8829C10.3986 5.6371 10.2517 5.34029 10.1503 5.02029C10.049 4.69565 10 4.35246 10 4" fill="#FFA64D"/>
<path id="Vector (Stroke)_8" fill-rule="evenodd" clip-rule="evenodd" d="M10 3.5C10.2761 3.5 10.5 3.72386 10.5 4C10.5 4.30583 10.5424 4.59806 10.6273 4.87024C10.7142 5.14404 10.837 5.38798 10.9832 5.58189L10.9859 5.58547L10.9858 5.58548C11.1319 5.78291 11.2988 5.92754 11.4751 6.02441L11.4777 6.02588L11.4777 6.02588C11.6481 6.12087 11.827 6.16667 12 6.16667C12.2761 6.16667 12.5 6.39052 12.5 6.66667C12.5 6.94281 12.2761 7.16667 12 7.16667C11.6491 7.16667 11.3039 7.0736 10.9922 6.9001C10.6801 6.72836 10.4073 6.48431 10.1833 6.18211C9.95973 5.88505 9.78938 5.53639 9.67371 5.17132L9.67308 5.16936L9.67309 5.16936C9.55539 4.79254 9.5 4.39873 9.5 4C9.5 3.72386 9.72386 3.5 10 3.5Z" fill="#282828"/>
</g>
</svg>
