<svg width="16" height="21" viewBox="0 0 16 21" fill="none" xmlns="http://www.w3.org/2000/svg">
<g clip-path="url(#clip0_9288_10539)">
<path d="M7.99914 19.6702C12.1591 19.6702 15.5286 16.3007 15.5286 12.1407C15.5286 7.98074 12.1591 4.61133 7.99914 4.61133C3.83914 4.61133 0.469727 7.98074 0.469727 12.1407C0.469727 16.3007 3.83914 19.6702 7.99914 19.6702Z" fill="#FFEC7B"/>
<path fill-rule="evenodd" clip-rule="evenodd" d="M-0.0302734 12.1407C-0.0302734 7.7046 3.563 4.11133 7.99914 4.11133C12.4353 4.11133 16.0286 7.7046 16.0286 12.1407C16.0286 16.5769 12.4353 20.1702 7.99914 20.1702C3.563 20.1702 -0.0302734 16.5769 -0.0302734 12.1407ZM7.99914 5.11133C4.11528 5.11133 0.969727 8.25688 0.969727 12.1407C0.969727 16.0246 4.11528 19.1702 7.99914 19.1702C11.883 19.1702 15.0286 16.0246 15.0286 12.1407C15.0286 8.25688 11.883 5.11133 7.99914 5.11133Z" fill="#282828"/>
<path d="M11.0108 15.1524C11.0108 15.1524 9.88142 13.6465 7.99907 13.6465C6.11672 13.6465 4.9873 15.1524 4.9873 15.1524" fill="#FFEC7B"/>
<path fill-rule="evenodd" clip-rule="evenodd" d="M5.49325 13.9951C6.06611 13.5784 6.92016 13.1465 7.9991 13.1465C9.07804 13.1465 9.93208 13.5784 10.5049 13.9951C10.7923 14.2041 11.0145 14.413 11.166 14.5711C11.2419 14.6504 11.3007 14.7175 11.3416 14.7662C11.3621 14.7906 11.3782 14.8105 11.3897 14.8251L11.4037 14.843L11.4081 14.8488L11.4097 14.8508L11.4103 14.8517C11.4105 14.8518 11.4109 14.8524 11.0109 15.1524L11.4109 14.8524C11.5765 15.0733 11.5318 15.3867 11.3109 15.5524C11.0901 15.718 10.7768 15.6733 10.6111 15.4527L10.6057 15.4458C10.5998 15.4383 10.5897 15.4259 10.5757 15.4091C10.5475 15.3755 10.5033 15.3249 10.444 15.263C10.3249 15.1387 10.147 14.9712 9.91678 14.8038C9.45435 14.4675 8.80251 14.1465 7.9991 14.1465C7.19569 14.1465 6.54385 14.4675 6.08142 14.8038C5.85117 14.9712 5.67331 15.1387 5.55421 15.263C5.49487 15.3249 5.45071 15.3755 5.42253 15.4091C5.40845 15.4259 5.39841 15.4383 5.3925 15.4458L5.38677 15.4531C5.22102 15.6738 4.90815 15.718 4.68733 15.5524C4.46642 15.3867 4.42165 15.0733 4.58733 14.8524L4.98733 15.1524C4.58733 14.8524 4.58721 14.8525 4.58733 14.8524L4.58786 14.8517L4.58849 14.8508L4.59006 14.8488L4.5945 14.843L4.60845 14.8251C4.62001 14.8105 4.63607 14.7906 4.65655 14.7662C4.69748 14.7175 4.75627 14.6504 4.83222 14.5711C4.98371 14.413 5.20585 14.2041 5.49325 13.9951ZM5.38677 15.4531L5.38626 15.4538C5.38616 15.4539 5.38633 15.4537 5.38677 15.4531ZM10.6111 15.4527C10.6115 15.4532 10.612 15.4539 10.6119 15.4538L10.6111 15.4527Z" fill="#282828"/>
<rect x="5.83472" y="9.97632" width="0.564706" height="0.564706" rx="0.282353" fill="black"/>
<rect x="5.83472" y="9.97632" width="0.564706" height="0.564706" rx="0.282353" stroke="black" stroke-width="0.376471"/>
<rect x="9.59937" y="9.97632" width="0.564706" height="0.564706" rx="0.282353" fill="black"/>
<rect x="9.59937" y="9.97632" width="0.564706" height="0.564706" rx="0.282353" stroke="black" stroke-width="0.376471"/>
<path fill-rule="evenodd" clip-rule="evenodd" d="M8.00098 -0.0292969C8.27712 -0.0292969 8.50098 0.194561 8.50098 0.470703V2.018C8.50098 2.29414 8.27712 2.518 8.00098 2.518C7.72483 2.518 7.50098 2.29414 7.50098 2.018V0.470703C7.50098 0.194561 7.72483 -0.0292969 8.00098 -0.0292969Z" fill="#282828"/>
<path fill-rule="evenodd" clip-rule="evenodd" d="M4.47187 0.914667C4.71105 0.776653 5.01682 0.858664 5.15484 1.09784L5.93037 2.44184C6.06838 2.68102 5.98637 2.9868 5.74719 3.12481C5.50801 3.26283 5.20223 3.18082 5.06422 2.94164L4.28869 1.59764C4.15068 1.35846 4.23269 1.05268 4.47187 0.914667Z" fill="#282828"/>
<path fill-rule="evenodd" clip-rule="evenodd" d="M11.5304 0.914667C11.7696 1.05268 11.8516 1.35846 11.7136 1.59764L10.938 2.94164C10.8 3.18082 10.4942 3.26283 10.2551 3.12481C10.0159 2.9868 9.93388 2.68102 10.0719 2.44184L10.8474 1.09784C10.9854 0.858664 11.2912 0.776653 11.5304 0.914667Z" fill="#282828"/>
</g>
<defs>
<clipPath id="clip0_9288_10539">
<rect width="16" height="20.1412" fill="white"/>
</clipPath>
</defs>
</svg>
