<svg width="24" height="24" viewBox="0 0 24 24" fill="none" xmlns="http://www.w3.org/2000/svg">
<g clip-path="url(#clip0_813_2232)">
<path d="M14.5369 3.96307L3.96217 14.5378C2.32621 16.1738 2.32621 18.8262 3.96217 20.4622C5.59814 22.0981 8.25056 22.0981 9.88652 20.4622L20.4613 9.88742C22.0972 8.25145 22.0972 5.59903 20.4613 3.96307C18.8253 2.32711 16.1729 2.32711 14.5369 3.96307Z" fill="#FF9442"/>
<path d="M11.4132 8.58285L8.58471 11.4114C8.00506 11.991 8.00506 12.9308 8.58471 13.5105L10.9151 15.8409C11.4947 16.4205 12.4345 16.4205 13.0142 15.8409L15.8427 13.0123C16.4224 12.4327 16.4224 11.4929 15.8427 10.9132L13.5123 8.58285C12.9327 8.0032 11.9929 8.0032 11.4132 8.58285Z" fill="#FFD7A2"/>
</g>
<defs>
<clipPath id="clip0_813_2232">
<rect width="24" height="24" fill="white"/>
</clipPath>
</defs>
</svg>
