<svg width="24" height="24" viewBox="0 0 24 24" fill="none" xmlns="http://www.w3.org/2000/svg">
<g clip-path="url(#clip0_813_2243)">
<path d="M18.63 16.0117H5.62C4.17 16.0117 3 17.1817 3 18.6217V18.7217C3 20.1617 4.17 21.3317 5.62 21.3317H18.63C20.08 21.3317 21.25 20.1617 21.25 18.7217V18.6217C21.25 17.1817 20.08 16.0117 18.63 16.0117Z" fill="#E8D6CF"/>
<path d="M21.25 13.7892C21.25 15.0192 20.09 16.0192 18.64 16.0192H5.62C4.17 16.0192 3 15.0192 3 13.7892V13.6892C3 12.4592 4.17 11.4492 5.62 11.4492H18.64C20.09 11.4492 21.25 12.4592 21.25 13.6892V13.7892Z" fill="#DEC4BA"/>
<path d="M21.25 8.82891C21.25 10.2789 20.08 11.4589 18.64 11.4589H5.6C4.16 11.4589 3 10.2789 3 8.82891V8.75891C3 7.30891 4.16 6.12891 5.6 6.12891H18.64C20.08 6.12891 21.25 7.30891 21.25 8.75891V8.82891Z" fill="#E8D6CF"/>
<path d="M16.8389 2.76828C16.4889 2.27828 15.9289 1.99828 15.2489 1.99828C14.5689 1.99828 13.8689 2.28828 13.2589 2.80828C12.7589 3.23828 12.3789 3.82828 12.1089 4.35828C11.8389 3.82828 11.4589 3.23828 10.9589 2.79828C10.3589 2.27828 9.63889 1.98828 8.96889 1.98828C8.29889 1.98828 7.71889 2.26828 7.37889 2.75828C7.06889 3.18828 6.97889 3.76828 7.11889 4.32828C7.29889 5.06828 7.84889 5.70828 8.65889 6.11828C9.24889 6.41828 9.93889 6.56828 10.5289 6.64828C9.10889 8.14828 8.69889 9.72828 8.67889 9.79828C8.59889 10.1283 8.79889 10.4683 9.12889 10.5583C9.45889 10.6383 9.80889 10.4383 9.88889 10.1083C9.90889 10.0483 10.2789 8.70828 11.4889 7.45828V21.8583C11.4889 22.1983 11.7689 22.4883 12.1189 22.4883C12.4689 22.4883 12.7489 22.2083 12.7489 21.8583V7.44828C13.9989 8.72828 14.3489 10.0983 14.3489 10.1083C14.4289 10.4383 14.7389 10.6583 15.0989 10.5783C15.2589 10.5383 15.3989 10.4383 15.4889 10.2983C15.5789 10.1583 15.6089 9.98828 15.5689 9.82828C15.5489 9.75828 15.1789 8.17828 13.7389 6.66828C14.3189 6.58828 14.9989 6.43828 15.5789 6.13828C16.3889 5.72828 16.9289 5.08828 17.1189 4.34828C17.2589 3.77828 17.1589 3.20828 16.8589 2.77828L16.8389 2.76828ZM15.8789 4.03828C15.8289 4.25828 15.6389 4.67828 14.9889 5.01828C14.3789 5.32828 13.5689 5.43828 12.9789 5.46828C13.1989 4.92828 13.5689 4.19828 14.0789 3.75828C14.4589 3.42828 14.8689 3.24828 15.2489 3.24828C15.5089 3.24828 15.7089 3.33828 15.8189 3.48828C15.9189 3.62828 15.9389 3.82828 15.8889 4.03828H15.8789ZM11.2289 5.46828C10.6389 5.43828 9.82889 5.32828 9.21889 5.01828C8.56889 4.68828 8.37889 4.25828 8.32889 4.03828C8.27889 3.82828 8.29889 3.61828 8.39889 3.48828C8.49889 3.33828 8.70889 3.25828 8.96889 3.25828C9.33889 3.25828 9.75889 3.43828 10.1389 3.76828C10.6489 4.20828 11.0189 4.92828 11.2389 5.47828L11.2289 5.46828Z" fill="#7A645C"/>
</g>
<defs>
<clipPath id="clip0_813_2243">
<rect width="18.25" height="20.5" fill="white" transform="translate(3 2)"/>
</clipPath>
</defs>
</svg>
