<svg width="24" height="25" viewBox="0 0 24 25" fill="none" xmlns="http://www.w3.org/2000/svg">
<g clip-path="url(#clip0_813_2164)">
<path d="M17.8072 8.54048C15.1355 6.50172 13.2383 8.4089 13.2383 9.65814V16.9099C13.2383 19.1591 15.0683 20.9891 17.3175 20.9891H20.49C21.7398 20.9891 22.7564 19.9724 22.7564 18.7232C22.7592 14.2459 20.4789 10.5798 17.8072 8.54048Z" fill="#FA878F"/>
<path d="M5.94923 8.54048C8.62094 6.50172 10.5181 8.4089 10.5181 9.65814V16.9099C10.5181 19.1591 8.68812 20.9891 6.43893 20.9891H3.26641C2.01661 20.9891 1 19.9724 1 18.7232C0.997226 14.2459 3.27751 10.5798 5.94923 8.54048Z" fill="#FA878F"/>
<path d="M7.57139 14.6859C7.35818 14.6859 7.14498 14.6049 6.9823 14.4422C6.65694 14.1174 6.65694 13.5894 6.9823 13.2646L11.288 8.95886C11.6134 8.6335 12.1403 8.6335 12.4656 8.95886C12.791 9.28367 12.791 9.81168 12.4656 10.1365L8.15992 14.4422C7.99724 14.6049 7.78459 14.6859 7.57139 14.6859Z" fill="#E65761"/>
<path d="M16.1818 14.6859C15.9686 14.6859 15.7554 14.6049 15.5927 14.4422L11.287 10.1365C10.9616 9.81168 10.9616 9.28367 11.287 8.95886C11.6123 8.6335 12.1392 8.6335 12.4646 8.95886L16.7703 13.2646C17.0957 13.5894 17.0957 14.1174 16.7703 14.4422C16.6077 14.6049 16.395 14.6859 16.1818 14.6859Z" fill="#E65761"/>
<path d="M11.8758 10.3786C11.4161 10.3786 11.043 10.0061 11.043 9.54578V4.33283C11.043 3.87255 11.4161 3.5 11.8758 3.5C12.3355 3.5 12.7086 3.87255 12.7086 4.33283V9.54523C12.7086 10.0055 12.3355 10.3786 11.8758 10.3786Z" fill="#E65761"/>
</g>
<defs>
<clipPath id="clip0_813_2164">
<rect width="24" height="24" fill="white" transform="translate(0 0.5)"/>
</clipPath>
</defs>
</svg>
