<svg width="24" height="24" viewBox="0 0 24 24" fill="none" xmlns="http://www.w3.org/2000/svg">
<g clip-path="url(#clip0_813_2586)">
<path d="M15.5904 5.11719L13.1436 7.13619C12.561 7.61679 11.724 7.63119 11.1252 7.17099L8.54156 5.18559L8.45636 5.12019L6.35156 7.19919L6.37496 7.22079L8.00636 8.70759C8.42816 9.09159 8.64116 9.65379 8.58056 10.2208L8.09996 14.7082C8.09996 14.7082 8.12276 14.7184 8.15456 14.734C8.31896 14.8132 8.86196 15.091 9.38516 15.5362C9.51716 15.001 9.80576 14.4994 10.257 14.1142C11.403 13.138 13.1232 13.2748 14.1 14.4208C14.385 14.755 14.5638 15.1402 14.6616 15.5392C15.186 15.0928 15.7314 14.8132 15.8964 14.734C15.9282 14.7184 15.951 14.7082 15.951 14.7082L15.4704 10.2208C15.4098 9.65379 15.6228 9.09159 16.0446 8.70759L17.6778 7.21959L17.6994 7.19979L15.5916 5.11779L15.5904 5.11719Z" fill="#00AD53"/>
<path d="M10.055 22.1094L10.049 22.1574L10.043 22.1514C10.043 22.1394 10.049 22.1214 10.055 22.1094Z" fill="#FFCCA8"/>
<path d="M10.3902 18.3686L10.0662 21.9746C10.0602 22.0166 10.0602 22.0646 10.0542 22.1066C10.0482 22.1186 10.0422 22.1366 10.0422 22.1486C9.91022 22.7186 9.28622 23.2286 8.45222 23.3726C7.43822 23.5466 6.52622 23.1266 6.40022 22.4246C6.29822 21.8486 6.78422 21.2666 7.52222 20.9846L8.09222 14.7266L8.15222 14.7326C8.32022 14.8106 8.86022 15.0926 9.38222 15.5366C9.18422 16.3586 9.35822 17.2646 9.95222 17.9546C10.0842 18.1106 10.2342 18.2486 10.3902 18.3686Z" fill="#FFCCA8"/>
<path d="M8.45816 5.12139L6.35216 7.20339L3.38816 4.74939L2.07416 5.15139C1.64216 5.28339 1.17416 5.18739 0.832163 4.89339L0.604163 4.69539C0.502163 4.61139 0.490163 4.45539 0.580163 4.35339L3.29216 1.17939C3.38216 1.07739 3.53216 1.06539 3.63416 1.14939L3.87416 1.35939L3.89216 1.34139L8.45816 5.12139Z" fill="#FFCCA8"/>
<path d="M14.0081 22.1514L14.0021 22.1574L13.9961 22.1094C14.0021 22.1214 14.0081 22.1394 14.0081 22.1514Z" fill="#FFCCA8"/>
<path d="M23.4418 4.69539L23.2077 4.89339C22.8657 5.18739 22.3978 5.28339 21.9718 5.15139L20.6638 4.75539L17.6998 7.20339L15.5938 5.12139L20.1598 1.34139L20.1718 1.35339L20.4117 1.14939C20.5137 1.06539 20.6638 1.07739 20.7538 1.17939L23.4657 4.35339C23.5557 4.45539 23.5438 4.61139 23.4418 4.69539Z" fill="#FFCCA8"/>
<path d="M17.6483 22.4246C17.5223 23.1266 16.6103 23.5466 15.5963 23.3726C14.7623 23.2286 14.1383 22.7186 14.0063 22.1486C14.0063 22.1366 14.0003 22.1186 13.9943 22.1066C13.9883 22.0646 13.9883 22.0226 13.9823 21.9746L13.6523 18.3566C13.7003 18.3266 13.7483 18.2966 13.7903 18.2606C14.6003 17.5706 14.8943 16.5086 14.6603 15.5366C15.1823 15.0926 15.7283 14.8106 15.8963 14.7326L15.9563 14.7266L16.5263 20.9846C17.2643 21.2666 17.7443 21.8486 17.6483 22.4246Z" fill="#FFCCA8"/>
<path d="M13.7889 18.263C13.7469 18.299 13.6989 18.329 13.6509 18.359C13.2789 18.641 12.8589 18.815 12.4209 18.881C12.6069 19.343 12.8349 20.009 13.0029 20.771C13.2309 21.809 12.6309 22.997 12.0609 23.219C11.9289 23.267 11.7729 23.135 11.8149 23.009C12.0969 22.157 11.5269 21.785 11.1789 20.627C10.9749 19.943 11.2449 19.313 11.5509 18.863C11.1369 18.791 10.7349 18.629 10.3869 18.371C10.2309 18.251 10.0809 18.113 9.94894 17.957C9.35494 17.267 9.18094 16.361 9.37894 15.539C9.51094 15.005 9.80494 14.501 10.2549 14.117C11.4009 13.139 13.1169 13.277 14.0949 14.423C14.3829 14.759 14.5629 15.143 14.6589 15.539C14.8929 16.511 14.5989 17.573 13.7889 18.263Z" fill="#333333"/>
</g>
<defs>
<clipPath id="clip0_813_2586">
<rect width="24" height="24" fill="white"/>
</clipPath>
</defs>
</svg>
