<svg width="24" height="24" viewBox="0 0 24 24" fill="none" xmlns="http://www.w3.org/2000/svg">
<path d="M17.9577 8.54594L15.1202 11.3829L12.5117 8.77444L15.3492 5.93744L14.5192 5.10744C14.4932 5.08144 14.4737 5.05144 14.4507 5.02344L9.84272 9.63094C9.24272 10.2314 8.87772 11.0284 8.81572 11.8754L8.75272 12.7409C8.72122 13.1714 8.82522 13.5914 9.02522 13.9634L5.51172 17.4764L5.51372 17.4784L6.41622 18.3809L6.41822 18.3829L9.93072 14.8704C10.2552 15.0454 10.6157 15.1484 10.9897 15.1484C11.0442 15.1484 11.0987 15.1464 11.1537 15.1424L12.0192 15.0794C12.8657 15.0174 13.6632 14.6529 14.2637 14.0524L18.8712 9.44494C18.8432 9.42194 18.8132 9.40244 18.7872 9.37594L17.9572 8.54594H17.9577ZM13.3577 13.1454C12.9747 13.5284 12.4662 13.7614 11.9267 13.8004L11.0612 13.8634C10.7772 13.8849 10.5112 13.7849 10.3107 13.5839C10.1097 13.3834 10.0107 13.1164 10.0312 12.8334L10.0942 11.9679C10.1337 11.4274 10.3662 10.9189 10.7492 10.5364L11.6052 9.68044L14.2137 12.2889L13.3577 13.1449V13.1454Z" fill="#ACB6C4"/>
<path d="M4.90113 17.3644C4.65363 17.3184 4.40012 17.3974 4.22212 17.5754L3.41463 18.3829C3.19512 18.6024 3.19512 18.9584 3.41463 19.1779L4.71663 20.4794C4.93613 20.6989 5.29212 20.6989 5.51162 20.4794L6.31912 19.6719C6.49712 19.4939 6.57563 19.2404 6.53013 18.9929L6.41663 18.3804L5.51412 17.4779L4.90113 17.3644Z" fill="#505967"/>
<path d="M20.4155 7.74928L16.1475 3.48128C15.6985 3.03228 14.9705 3.03228 14.5215 3.48128C14.0985 3.90428 14.079 4.57178 14.453 5.02328C14.476 5.05128 14.4955 5.08128 14.5215 5.10728L15.3515 5.93728L17.96 8.54578L18.79 9.37578C18.816 9.40178 18.846 9.42128 18.874 9.44478C19.3255 9.81828 19.993 9.79878 20.416 9.37578C20.865 8.92678 20.865 8.19878 20.416 7.74978L20.4155 7.74928Z" fill="#505967"/>
</svg>
