<svg width="24" height="24" viewBox="0 0 24 24" fill="none" xmlns="http://www.w3.org/2000/svg">
<g clip-path="url(#clip0_813_2854)">
<path d="M20.4023 2.40234H3.60234C2.9396 2.40234 2.40234 2.9396 2.40234 3.60234V20.4023C2.40234 21.0651 2.9396 21.6023 3.60234 21.6023H20.4023C21.0651 21.6023 21.6023 21.0651 21.6023 20.4023V3.60234C21.6023 2.9396 21.0651 2.40234 20.4023 2.40234Z" fill="#333D4B"/>
<path d="M9.7991 11.2941C8.1593 11.2941 7.1135 9.89972 7.0679 9.83792C6.9209 9.63812 6.9635 9.35612 7.1639 9.20912C7.3643 9.06092 7.6445 9.10472 7.7921 9.30392C7.8005 9.31532 8.6651 10.4703 9.9323 10.3899C10.1759 10.3791 10.3943 10.5609 10.4111 10.8093C10.4273 11.0577 10.2401 11.2719 9.9923 11.2881C9.9275 11.2923 9.8627 11.2941 9.7991 11.2941Z" fill="#ABB5C3"/>
<path d="M9.4777 13.8889C5.8765 13.8889 5.0155 11.1469 5.0071 11.1181C4.9363 10.8799 5.0713 10.6291 5.3101 10.5583C5.5489 10.4863 5.7973 10.6225 5.8693 10.8583C5.8993 10.9555 6.6289 13.1959 9.9295 12.9733C10.1779 12.9511 10.3921 13.1431 10.4089 13.3915C10.4257 13.6393 10.2385 13.8541 9.9907 13.8709C9.8143 13.8829 9.6433 13.8889 9.4783 13.8889H9.4777Z" fill="#ABB5C3"/>
<path d="M8.76062 16.2956C6.19262 16.2956 4.41422 15.2258 4.32782 15.173C4.11602 15.0434 4.05002 14.7668 4.17962 14.555C4.30982 14.3426 4.58822 14.2772 4.79762 14.405C4.81922 14.4182 6.99962 15.7178 9.90002 15.317C10.1424 15.2828 10.3728 15.4544 10.4076 15.701C10.4418 15.9476 10.2702 16.1744 10.023 16.2086C9.58562 16.2692 9.16262 16.2956 8.76062 16.2956Z" fill="#ABB5C3"/>
<path d="M8.35594 19.2195C6.41614 19.2195 5.44834 18.2433 5.39914 18.1917C5.22694 18.0129 5.23234 17.7279 5.41114 17.5551C5.58934 17.3841 5.87314 17.3883 6.04534 17.5653C6.09814 17.6181 7.25614 18.7341 9.70114 18.1521C9.94174 18.0933 10.1859 18.2433 10.2429 18.4857C10.3005 18.7275 10.1517 18.9699 9.90934 19.0275C9.33574 19.1643 8.81854 19.2195 8.35594 19.2195Z" fill="#ABB5C3"/>
<path d="M4.02797 8.62155C3.82637 8.62155 3.64277 8.48475 3.59177 8.28075C3.53117 8.03955 3.67817 7.79535 3.91937 7.73535L9.56657 6.32595C9.80477 6.26595 10.0526 6.41235 10.112 6.65355C10.1726 6.89475 10.0256 7.13895 9.78437 7.19895L4.13717 8.60835C4.10057 8.61735 4.06457 8.62155 4.02797 8.62155Z" fill="#ABB5C3"/>
<path d="M14.0584 11.286C13.9948 11.286 13.93 11.2836 13.8652 11.2794C13.6174 11.2626 13.4296 11.0484 13.4464 10.8006C13.4632 10.5528 13.6828 10.3692 13.9252 10.3812C15.175 10.4634 16.0558 9.30781 16.0648 9.29641C16.2112 9.09661 16.4938 9.05341 16.6936 9.20101C16.894 9.34861 16.9366 9.63001 16.789 9.83041C16.744 9.89221 15.6976 11.286 14.0584 11.286Z" fill="#ABB5C3"/>
<path d="M14.3731 13.8832C14.2081 13.8832 14.0371 13.8778 13.8607 13.8652C13.6129 13.8484 13.4251 13.6336 13.4425 13.3858C13.4587 13.1374 13.6783 12.9442 13.9219 12.9676C17.2111 13.1878 17.9527 10.948 17.9821 10.8526C18.0559 10.6162 18.3079 10.483 18.5437 10.5544C18.7807 10.6264 18.9151 10.8748 18.8443 11.1124C18.8353 11.1412 17.9737 13.8832 14.3731 13.8832Z" fill="#ABB5C3"/>
<path d="M15.1662 16.2949C14.7672 16.2949 14.3484 16.2691 13.9122 16.2079C13.6656 16.1737 13.494 15.9469 13.5276 15.7003C13.5624 15.4543 13.7916 15.2821 14.0352 15.3163C16.932 15.7165 19.029 14.4157 19.05 14.4025C19.2618 14.2681 19.5378 14.3323 19.6704 14.5411C19.8042 14.7505 19.7424 15.0283 19.533 15.1615C19.4502 15.2143 17.7246 16.2943 15.1656 16.2943L15.1662 16.2949Z" fill="#ABB5C3"/>
<path d="M15.4974 19.2168C15.0348 19.2168 14.517 19.1616 13.9434 19.0248C13.7016 18.9672 13.5528 18.7248 13.6098 18.483C13.6674 18.2412 13.9098 18.0912 14.1516 18.1494C16.6056 18.7338 17.76 17.6106 17.808 17.5626C17.9826 17.388 18.2664 17.3844 18.4434 17.5578C18.6198 17.7306 18.6258 18.012 18.4542 18.1896C18.405 18.2406 17.4372 19.2168 15.4974 19.2168Z" fill="#ABB5C3"/>
<path d="M19.8537 8.62364C19.8171 8.62364 19.7805 8.61944 19.7439 8.61044L14.0715 7.19504C13.8309 7.13504 13.6839 6.89084 13.7439 6.64964C13.8045 6.40844 14.0511 6.26204 14.2893 6.32204L19.9617 7.73744C20.2023 7.79744 20.3493 8.04164 20.2893 8.28284C20.2383 8.48744 20.0553 8.62364 19.8537 8.62364Z" fill="#ABB5C3"/>
<path d="M12.0516 6.50754C11.8032 6.50754 11.6016 6.30594 11.6016 6.05754V3.97734C11.6016 3.72894 11.8032 3.52734 12.0516 3.52734C12.3 3.52734 12.5016 3.72894 12.5016 3.97734V6.05754C12.5016 6.30594 12.3 6.50754 12.0516 6.50754Z" fill="#ABB5C3"/>
<path d="M12.0516 9.82118C11.8032 9.82118 11.6016 9.61958 11.6016 9.37118V8.00078C11.6016 7.75238 11.8032 7.55078 12.0516 7.55078C12.3 7.55078 12.5016 7.75238 12.5016 8.00078V9.37118C12.5016 9.61958 12.3 9.82118 12.0516 9.82118Z" fill="#ABB5C3"/>
<path d="M12.0516 13.1376C11.8032 13.1376 11.6016 12.936 11.6016 12.6876V11.3172C11.6016 11.0688 11.8032 10.8672 12.0516 10.8672C12.3 10.8672 12.5016 11.0688 12.5016 11.3172V12.6876C12.5016 12.936 12.3 13.1376 12.0516 13.1376Z" fill="#ABB5C3"/>
<path d="M12.0516 16.454C11.8032 16.454 11.6016 16.2524 11.6016 16.004V14.6336C11.6016 14.3852 11.8032 14.1836 12.0516 14.1836C12.3 14.1836 12.5016 14.3852 12.5016 14.6336V16.004C12.5016 16.2524 12.3 16.454 12.0516 16.454Z" fill="#ABB5C3"/>
<path d="M12.0516 20.3725C11.8032 20.3725 11.6016 20.1709 11.6016 19.9225V17.9461C11.6016 17.6977 11.8032 17.4961 12.0516 17.4961C12.3 17.4961 12.5016 17.6977 12.5016 17.9461V19.9225C12.5016 20.1709 12.3 20.3725 12.0516 20.3725Z" fill="#ABB5C3"/>
<path d="M2.40234 5.97234L7.14234 4.83954C7.93014 4.65114 8.50194 3.98214 8.55234 3.18774L8.60274 2.40234H3.60234C2.93934 2.40234 2.40234 2.93934 2.40234 3.60234V5.97234Z" fill="#68778A"/>
<path d="M21.6027 5.97234L16.8627 4.83954C16.0749 4.65114 15.5031 3.98214 15.4527 3.18774L15.4023 2.40234H20.4027C21.0657 2.40234 21.6027 2.93934 21.6027 3.60234V5.97234Z" fill="#68778A"/>
</g>
<defs>
<clipPath id="clip0_813_2854">
<rect width="24" height="24" fill="white"/>
</clipPath>
</defs>
</svg>
