<svg width="20" height="21" viewBox="0 0 20 21" fill="none" xmlns="http://www.w3.org/2000/svg">
<g id="u1F17F" clip-path="url(#clip0_450_4038)">
<g id="Group">
<path id="Vector" d="M14.25 2.59375H5.75C3.54086 2.59375 1.75 4.38461 1.75 6.59375V15.0938C1.75 17.3029 3.54086 19.0938 5.75 19.0938H14.25C16.4591 19.0938 18.25 17.3029 18.25 15.0938V6.59375C18.25 4.38461 16.4591 2.59375 14.25 2.59375Z" fill="#007FF2"/>
<path id="Vector_2" d="M14.1977 9.32506C14.1977 11.1491 12.7937 12.3736 10.7532 12.3736H9.20516V15.2416H7.28516V6.28906H11.0172C13.0092 6.28906 14.1977 7.48906 14.1977 9.32506ZM10.2012 10.7651C11.3532 10.7651 12.2172 10.3691 12.2172 9.32506C12.2172 8.29306 11.3772 7.88506 10.2612 7.88506H9.20516V10.7651H10.2012Z" fill="white"/>
</g>
</g>
<defs>
<clipPath id="clip0_450_4038">
<rect width="20" height="20" fill="white" transform="translate(0 0.84375)"/>
</clipPath>
</defs>
</svg>
