<svg width="24" height="24" viewBox="0 0 24 24" fill="none" xmlns="http://www.w3.org/2000/svg">
<path d="M15.9198 9.9155C16.3016 9.84391 16.6835 9.74367 17.0593 9.6852C17.6786 9.58974 18.4006 9.69356 18.5223 10.5157C18.6428 11.2985 18.1034 11.9214 18.0235 12.6445C17.9495 13.2089 18.9447 14.8723 18.2383 15.0895C17.7264 15.2446 17.1548 14.8389 16.6393 14.9153C16.2038 14.9797 15.952 15.3854 15.5236 15.4737C14.8804 15.605 13.8507 15.6646 13.192 15.3735C12.8054 15.2017 12.5166 14.9511 12.3269 14.5525C12.1061 14.0883 12.2421 13.5263 11.9665 13.1075C11.2804 12.0467 10.1492 13.1719 9.29955 13.2411C8.32108 13.3199 7.34737 12.7328 7.38794 11.5574C7.40107 11.1004 7.45954 10.2174 7.83064 9.90357C8.68025 9.17449 9.61457 11.1923 10.4248 9.82004C10.5907 9.53724 10.6253 8.98953 10.8508 8.78787C11.2004 8.47523 11.5107 8.75684 11.6121 9.09334C11.9653 10.2329 13.0905 9.75441 13.9294 9.78186C14.3817 9.79618 14.779 10.0074 15.2301 9.99664C15.4592 9.99068 15.6895 9.95846 15.9186 9.9155H15.9198Z" fill="#58595B"/>
<path d="M16.5361 16.1242C16.8977 15.9918 17.2497 15.8295 17.6089 15.7101C18.1995 15.5145 18.9489 15.4977 19.289 16.2972C19.6159 17.0573 19.2436 17.7685 19.3474 18.5072C19.4727 19.3926 20.4965 20.2183 20.5753 21.0667C20.6958 22.3554 18.4978 21.822 17.7067 21.7922C16.9657 21.7636 16.3273 22.0189 15.5863 22.001C15.0231 21.9879 14.4026 21.8722 14.0661 21.2982C13.8035 20.8483 13.8644 20.3317 13.467 19.9415C12.5029 18.9916 11.6748 20.297 10.8466 20.5023C9.88964 20.7397 8.7632 20.3078 8.46727 19.136C8.35033 18.6814 8.14628 17.7995 8.42551 17.4308C9.06509 16.5729 10.6032 18.4117 11.0101 16.9249C11.0936 16.6194 10.9636 16.0741 11.1294 15.8402C11.386 15.4763 11.7845 15.7006 11.9874 16.0156C12.6795 17.08 13.6639 16.4273 14.5123 16.3163C14.9682 16.2567 15.4264 16.401 15.8727 16.3163C16.1006 16.2734 16.3201 16.2042 16.5373 16.1242H16.5361Z" fill="#58595B"/>
<path d="M16.8589 3.2376C17.2419 3.16482 17.6309 3.061 18.0068 3.00134C18.6249 2.9023 19.2967 3.00134 19.2478 3.8235C19.2072 4.60508 18.5688 5.23274 18.3636 5.95586C18.1154 6.82455 18.7406 7.76603 18.508 8.587C18.1595 9.83276 16.3136 8.99987 15.5976 8.85429C14.9246 8.71826 14.2444 8.86741 13.5714 8.74093C13.0595 8.64427 12.5309 8.44261 12.445 7.8424C12.3782 7.37226 12.6395 6.88541 12.4402 6.45106C11.9641 5.39383 10.6742 6.52504 9.84369 6.59902C8.8855 6.68494 8.04067 6.10143 8.30199 4.92607C8.39984 4.46905 8.63372 3.58484 9.05852 3.26982C10.0286 2.53597 10.5143 4.549 11.5799 3.17198C11.7982 2.88798 11.9498 2.34027 12.2123 2.13742C12.6192 1.8224 12.8555 2.10281 12.8805 2.43812C12.9784 3.5753 14.1681 3.09083 14.9699 3.11351C15.4031 3.12544 15.7432 3.33426 16.1799 3.32113C16.403 3.31397 16.631 3.28056 16.8613 3.23641L16.8589 3.2376Z" fill="#58595B"/>
<path fill-rule="evenodd" clip-rule="evenodd" d="M5.88519 3.08932C6.20484 3.21955 6.3584 3.58425 6.22817 3.9039C5.48321 5.73244 4.58533 8.75364 4.3243 11.8351C4.06115 14.9416 4.45752 17.9579 6.12648 19.9303C6.34944 20.1938 6.31658 20.5881 6.05308 20.8111C5.78959 21.034 5.39525 21.0012 5.17229 20.7377C3.17476 18.377 2.80728 14.9352 3.07882 11.7296C3.3525 8.49878 4.28786 5.35359 5.07061 3.43231C5.20084 3.11265 5.56554 2.9591 5.88519 3.08932Z" fill="#EF4452"/>
</svg>
