<svg width="24" height="24" viewBox="0 0 24 24" fill="none" xmlns="http://www.w3.org/2000/svg">
<g clip-path="url(#clip0_577_2639)">
<path d="M6.22416 3.875H6.48766C6.85166 3.875 7.14616 4.1695 7.14616 4.5335C7.14616 4.8975 6.85166 5.192 6.48766 5.192H6.22416C5.63916 5.192 5.16366 5.6675 5.16366 6.2525V8.5505C5.16366 10.5015 6.59816 12.1665 8.42966 12.3415C9.46716 12.438 10.4597 12.112 11.2247 11.4165C11.9792 10.731 12.4122 9.7535 12.4122 8.7345V6.2525C12.4122 5.6675 11.9367 5.192 11.3517 5.192H10.7712C10.4072 5.192 10.1127 4.8975 10.1127 4.5335C10.1127 4.1695 10.4072 3.875 10.7712 3.875H11.3517C12.6627 3.875 13.7292 4.9415 13.7292 6.2525V8.7345C13.7292 10.123 13.1397 11.4565 12.1112 12.391C11.0687 13.3385 9.71766 13.7905 8.30516 13.6515C5.80566 13.4135 3.84766 11.1725 3.84766 8.5505V6.2525C3.84766 4.9415 4.91416 3.875 6.22516 3.875H6.22416Z" fill="#949494"/>
<path d="M17.6356 17.1657C19.0243 17.1657 20.1501 16.0399 20.1501 14.6512C20.1501 13.2625 19.0243 12.1367 17.6356 12.1367C16.2469 12.1367 15.1211 13.2625 15.1211 14.6512C15.1211 16.0399 16.2469 17.1657 17.6356 17.1657Z" fill="#949494"/>
<path d="M3.84766 8.55469H5.16416C5.16416 10.5057 6.59866 12.1707 8.43016 12.3457C9.46766 12.4422 10.4602 12.1162 11.2252 11.4207C11.9797 10.7352 12.4127 9.75769 12.4127 8.73869H13.7292C13.7292 10.1272 13.1397 11.4607 12.1112 12.3952C11.0687 13.3427 9.71766 13.7947 8.30516 13.6557C5.80566 13.4177 3.84766 11.1767 3.84766 8.55469Z" fill="#3D3D3D"/>
<path d="M13.2116 20.4426C10.4496 20.4426 8.20312 18.1956 8.20312 15.4341V12.9336H9.37262V15.4341C9.37262 17.5511 11.0946 19.2736 13.2121 19.2736C15.3296 19.2736 17.0516 17.5516 17.0516 15.4341H18.2211C18.2211 18.1961 15.9741 20.4426 13.2126 20.4426H13.2116Z" fill="#3D3D3D"/>
<path d="M17.6364 15.9329C18.3416 15.9329 18.9134 15.3612 18.9134 14.6559C18.9134 13.9506 18.3416 13.3789 17.6364 13.3789C16.9311 13.3789 16.3594 13.9506 16.3594 14.6559C16.3594 15.3612 16.9311 15.9329 17.6364 15.9329Z" fill="#D5D5D5"/>
<path d="M6.57047 5.48859C7.10342 5.48859 7.53547 5.05655 7.53547 4.52359C7.53547 3.99064 7.10342 3.55859 6.57047 3.55859C6.03751 3.55859 5.60547 3.99064 5.60547 4.52359C5.60547 5.05655 6.03751 5.48859 6.57047 5.48859Z" fill="#3D3D3D"/>
<path d="M10.672 5.48859C11.205 5.48859 11.637 5.05655 11.637 4.52359C11.637 3.99064 11.205 3.55859 10.672 3.55859C10.1391 3.55859 9.70703 3.99064 9.70703 4.52359C9.70703 5.05655 10.1391 5.48859 10.672 5.48859Z" fill="#3D3D3D"/>
</g>
<defs>
<clipPath id="clip0_577_2639">
<rect width="20" height="20" fill="white" transform="translate(2 2)"/>
</clipPath>
</defs>
</svg>
