<svg width="24" height="24" viewBox="0 0 24 24" fill="none" xmlns="http://www.w3.org/2000/svg">
<g clip-path="url(#clip0_813_3736)">
<path d="M10.5293 11.8734H14.8649C15.0863 11.8734 15.2891 11.748 15.3875 11.5488L19.9481 2.3418C20.1401 1.9542 19.8581 1.5 19.4255 1.5H15.0899C14.8685 1.5 14.6657 1.6254 14.5673 1.8246L10.0067 11.0316C9.81465 11.4192 10.0967 11.8734 10.5293 11.8734Z" fill="#1E6EF4"/>
<path d="M13.4723 11.8734H9.13673C8.91533 11.8734 8.71253 11.748 8.61413 11.5488L4.05353 2.3418C3.86153 1.9542 4.14353 1.5 4.57613 1.5H8.91173C9.13313 1.5 9.33593 1.6254 9.43433 1.8246L13.9949 11.0316C14.1869 11.4192 13.9049 11.8734 13.4723 11.8734Z" fill="#4592FB"/>
<path d="M12.0021 22.5003C16.3504 22.5003 19.8753 18.9754 19.8753 14.6271C19.8753 10.2789 16.3504 6.75391 12.0021 6.75391C7.65386 6.75391 4.12891 10.2789 4.12891 14.6271C4.12891 18.9754 7.65386 22.5003 12.0021 22.5003Z" fill="#8595AA"/>
<path d="M12.0013 20.9245C15.4797 20.9245 18.2995 18.1047 18.2995 14.6263C18.2995 11.1479 15.4797 8.32812 12.0013 8.32812C8.52292 8.32812 5.70312 11.1479 5.70312 14.6263C5.70312 18.1047 8.52292 20.9245 12.0013 20.9245Z" fill="#ABB7C7"/>
<path d="M12.4513 10.471L13.36 12.2579C13.4333 12.4018 13.5745 12.5015 13.738 12.5244L15.7703 12.8108C16.1822 12.869 16.3467 13.3601 16.0485 13.642L14.5781 15.0328C14.4597 15.1448 14.4056 15.306 14.4335 15.4643L14.7807 17.4282C14.851 17.8263 14.4205 18.1301 14.0521 17.9422L12.2344 17.0151C12.0882 16.9404 11.9134 16.9404 11.7671 17.0151L9.94947 17.9422C9.58102 18.1301 9.15023 17.8266 9.22087 17.4282L9.56809 15.4643C9.59595 15.3063 9.54189 15.1448 9.4235 15.0328L7.95304 13.642C7.6549 13.3601 7.81939 12.8687 8.23128 12.8108L10.2635 12.5244C10.427 12.5012 10.5686 12.4018 10.6416 12.2579L11.5503 10.471C11.7346 10.1086 12.2672 10.1086 12.4513 10.471Z" fill="white"/>
</g>
<defs>
<clipPath id="clip0_813_3736">
<rect width="24" height="24" fill="white"/>
</clipPath>
</defs>
</svg>
