<svg width="16" height="16" viewBox="0 0 16 16" fill="none" xmlns="http://www.w3.org/2000/svg">
<path d="M14.4286 9.71429C14.7835 9.71429 15.071 10.002 15.0712 10.3569V13.2143C15.0712 13.7637 14.8532 14.2907 14.4647 14.6791C14.0762 15.0676 13.5492 15.2856 12.9999 15.2856L2.99986 15.2856C2.45054 15.2855 1.92345 15.0676 1.53502 14.6791C1.14659 14.2907 0.928574 13.7636 0.928574 13.2143L0.928574 10.3569C0.928725 10.0021 1.21633 9.71445 1.57115 9.71429C1.9261 9.71429 2.21456 10.002 2.21471 10.3569V13.2143C2.21471 13.4226 2.29689 13.6226 2.4442 13.77C2.59152 13.9173 2.79153 14.0004 2.99986 14.0004L12.9999 14.0004C13.2082 14.0004 13.4082 13.9173 13.5555 13.77C13.7029 13.6226 13.786 13.4227 13.786 13.2143V10.3569C13.7861 10.002 14.0736 9.71429 14.4286 9.71429ZM7.99986 0.714294C8.35481 0.714294 8.64229 1.00196 8.64244 1.35687L8.64244 9.3764L11.1171 6.90277C11.3681 6.65172 11.7752 6.65172 12.0262 6.90277C12.2771 7.15384 12.2772 7.56097 12.0262 7.81195L8.45494 11.3832C8.20396 11.6342 7.79683 11.6341 7.54576 11.3832L3.97447 7.81195C3.72342 7.5609 3.72342 7.15382 3.97447 6.90277C4.22548 6.6519 4.63166 6.65191 4.88268 6.90277L7.35728 9.3764L7.35728 1.35687C7.35744 1.00201 7.64498 0.71437 7.99986 0.714294Z" fill="white"/>
<path d="M14.4286 9.71429C14.7835 9.71429 15.071 10.002 15.0712 10.3569V13.2143C15.0712 13.7637 14.8532 14.2907 14.4647 14.6791C14.0762 15.0676 13.5492 15.2856 12.9999 15.2856L2.99986 15.2856C2.45054 15.2855 1.92345 15.0676 1.53502 14.6791C1.14659 14.2907 0.928574 13.7636 0.928574 13.2143L0.928574 10.3569C0.928725 10.0021 1.21633 9.71445 1.57115 9.71429C1.9261 9.71429 2.21456 10.002 2.21471 10.3569V13.2143C2.21471 13.4226 2.29689 13.6226 2.4442 13.77C2.59152 13.9173 2.79153 14.0004 2.99986 14.0004L12.9999 14.0004C13.2082 14.0004 13.4082 13.9173 13.5555 13.77C13.7029 13.6226 13.786 13.4227 13.786 13.2143V10.3569C13.7861 10.002 14.0736 9.71429 14.4286 9.71429ZM7.99986 0.714294C8.35481 0.714294 8.64229 1.00196 8.64244 1.35687L8.64244 9.3764L11.1171 6.90277C11.3681 6.65172 11.7752 6.65172 12.0262 6.90277C12.2771 7.15384 12.2772 7.56097 12.0262 7.81195L8.45494 11.3832C8.20396 11.6342 7.79683 11.6341 7.54576 11.3832L3.97447 7.81195C3.72342 7.5609 3.72342 7.15382 3.97447 6.90277C4.22548 6.6519 4.63166 6.65191 4.88268 6.90277L7.35728 9.3764L7.35728 1.35687C7.35744 1.00201 7.64498 0.71437 7.99986 0.714294Z" stroke="white"/>
</svg>
