<svg width="150" height="150" viewBox="0 0 150 150" fill="none" xmlns="http://www.w3.org/2000/svg">
<g clip-path="url(#clip0_1313_898)">
<g style="mix-blend-mode:multiply">
<path d="M77.1675 149.982C117.382 149.982 149.982 116.836 149.982 75.9497C149.982 35.063 117.382 1.91777 77.1675 1.91777C36.9531 1.91777 4.35291 35.063 4.35291 75.9497C4.35291 116.836 36.9531 149.982 77.1675 149.982Z" fill="#FFC77D"/>
</g>
<path d="M144.692 74.032C144.692 114.416 112.497 147.126 72.8146 147.126C33.1326 147.126 0.9375 114.416 0.9375 74.032C0.9375 33.6483 33.1326 0.9375 72.8146 0.9375C112.497 0.9375 144.692 33.6483 144.692 74.032Z" fill="white" stroke="#FFAB3B" stroke-width="1.875"/>
<path d="M73.9193 11.0282C84.413 11.0282 94.721 13.9087 103.803 19.3791C112.885 24.8494 120.42 32.7161 125.648 42.1852C130.875 51.6544 133.61 62.3909 133.577 73.3115C133.543 84.232 130.742 94.9501 125.457 104.384C120.171 113.818 112.588 121.635 103.472 127.045C94.3567 132.454 84.0312 135.266 73.5377 135.196C63.0442 135.127 52.7541 132.177 43.7057 126.647C34.6573 121.116 27.1708 113.199 22.0017 103.696L73.9193 73.1129V11.0282Z" fill="#FF8120"/>
<mask id="mask0_1313_898" style="mask-type:alpha" maskUnits="userSpaceOnUse" x="22" y="11" width="112" height="125">
<path d="M73.9193 11.0282C84.4078 11.0282 94.7109 13.9058 103.79 19.371C112.869 24.8363 120.403 32.6958 125.633 42.1575C130.862 51.6191 133.602 62.3483 133.577 73.2634C133.551 84.1785 130.761 94.8938 125.488 104.329C120.214 113.764 112.644 121.586 103.539 127.005C94.4348 132.424 84.1184 135.25 73.63 135.197C63.1417 135.144 52.8521 132.214 43.7987 126.703C34.7452 121.192 27.2479 113.295 22.0625 103.807L73.9193 73.1129V11.0282Z" fill="url(#paint0_linear_1313_898)"/>
</mask>
<g mask="url(#mask0_1313_898)">
<g clip-path="url(#clip1_1313_898)">
<path d="M75.4066 137.84C75.2908 137.92 75.0956 137.815 75.0241 138H73.5968C73.5278 137.957 73.4641 137.901 73.3886 137.875C71.8729 137.362 71.0246 136.274 70.9569 134.676C70.9179 133.755 70.9452 132.832 70.9439 131.91C70.9439 131.19 70.9439 130.471 70.9439 129.745C70.6212 129.755 70.4846 129.941 70.3181 130.062C68.3873 131.469 66.4721 132.897 64.5296 134.29C62.5988 135.673 60.2062 134.987 59.2811 132.822C59.2278 132.695 59.2447 132.512 59.0599 132.458V130.782C59.6233 129.335 60.8996 128.584 62.0732 127.732C63.3626 126.794 64.6415 125.842 65.9361 124.913C66.2327 124.7 66.3993 124.454 66.4982 124.097C67.2957 121.228 68.1076 118.364 68.939 115.503C69.047 115.133 68.9975 114.883 68.7646 114.576C67.8044 113.314 67.2333 111.911 67.3647 110.291C68.1453 110.289 68.9247 110.287 69.7053 110.285L69.6884 110.323C69.8445 112.712 70.7488 114.71 72.8044 116.072C73.2169 116.345 73.3509 116.633 73.3496 117.113C73.3327 122.858 73.3392 128.602 73.3379 134.348C73.3379 135.476 73.7464 136.425 74.5557 137.216C74.812 137.465 75.2309 137.488 75.404 137.844L75.4066 137.84Z" fill="#3F404F"/>
<path d="M93.0621 138C92.6991 137.824 92.3153 137.683 91.9783 137.469C90.9166 136.795 90.3715 135.802 90.3506 134.562C90.3233 132.893 90.3441 131.224 90.3441 129.553C90.067 129.513 89.9486 129.695 89.8016 129.803C87.7797 131.277 85.7813 132.782 83.7399 134.226C81.5086 135.805 78.6254 134.594 78.2143 131.91C78.0126 130.592 78.5304 129.502 79.5986 128.704C81.3095 127.428 83.0217 126.152 84.7717 124.929C85.4131 124.481 85.8528 123.982 85.9517 123.201C85.9803 122.972 86.0935 122.753 86.169 122.53C87.1812 122.789 88.118 123.294 89.1667 123.432C89.3085 123.476 89.4477 123.534 89.5934 123.563C90.4456 123.733 91.3004 123.898 92.1539 124.065C92.1539 127.524 92.1604 130.982 92.15 134.441C92.1461 135.83 92.7446 136.864 93.9221 137.588C94.0964 137.695 94.3514 137.721 94.3605 138.003H93.0634L93.0621 138Z" fill="#3F404F"/>
<path d="M94.3591 138C94.35 137.718 94.095 137.693 93.9206 137.585C92.7432 136.862 92.1447 135.827 92.1486 134.438C92.159 130.98 92.1525 127.521 92.1525 124.063C93.8803 124.161 95.5977 124.02 97.3099 123.804C97.3164 127.405 97.3555 131.007 97.3112 134.607C97.293 136.081 96.5124 137.15 95.1293 137.752C94.9563 137.827 94.7429 137.826 94.618 138H94.3591Z" fill="#5D5E70"/>
<path d="M97.3113 123.804C95.5991 124.021 93.883 124.161 92.1539 124.063C91.3004 123.896 90.4469 123.732 89.5934 123.56C89.449 123.53 89.3084 123.473 89.1666 123.43C89.4438 121.079 89.7404 118.732 89.9928 116.381C90.1802 114.642 90.3909 112.9 90.4469 111.155C90.5249 108.709 90.4651 106.258 90.4729 103.81C90.4729 103.642 90.3649 103.43 90.6707 103.23C90.7357 103.331 90.7982 103.446 90.8762 103.549C92.3425 105.503 93.8062 107.459 95.2791 109.406C96.2536 110.692 97.4896 111.333 99.1562 110.965C99.8029 110.823 100.472 110.778 101.13 110.688C101.221 112.236 101.631 113.721 102.082 115.192C102.634 116.993 103.285 118.762 104.094 120.465C104.327 120.955 104.2 121.176 103.752 121.412C101.838 122.417 99.8302 123.165 97.7251 123.659C97.5819 123.693 97.4193 123.675 97.3087 123.804H97.3113Z" fill="#83DB3E"/>
<path d="M97.8631 93.0121C98.0011 93.3299 98.3341 93.4359 98.5709 93.6452C100.292 95.1697 101.053 97.105 101.072 99.3594C101.082 100.646 101.085 101.934 101.068 103.221C101.062 103.622 101.168 103.747 101.591 103.664C102.287 103.529 102.996 103.456 103.698 103.357C103.982 104.886 104.332 106.404 104.518 107.951C104.331 107.997 104.146 108.062 103.956 108.089C102.473 108.305 100.981 108.468 99.5077 108.739C97.8644 109.041 96.4697 108.74 95.4262 107.369C93.8975 105.362 92.3856 103.34 90.8582 101.331C90.5889 100.976 90.434 100.615 90.4614 100.154C90.5069 99.3659 90.5017 98.5791 90.5772 97.7884C90.7918 95.5288 91.2433 93.4023 93.1884 91.914C94.0705 91.7706 94.924 92.0212 95.7905 92.1013C96.3942 92.3674 96.9979 92.6323 97.6029 92.8984C97.6628 93.0044 97.7552 93.0392 97.8723 93.016L97.8657 93.0121H97.8631Z" fill="#83DB3E"/>
<path d="M93.1857 91.9153C91.2406 93.4036 90.7904 95.5301 90.5744 97.7897C90.499 98.5804 90.5042 99.3672 90.4587 100.155C90.4326 100.616 90.5862 100.977 90.8555 101.332C92.3829 103.341 93.8948 105.363 95.4235 107.371C96.467 108.741 97.8617 109.042 99.505 108.74C100.978 108.469 102.47 108.306 103.953 108.09C104.143 108.063 104.328 107.999 104.515 107.952C104.545 107.96 104.577 107.968 104.605 107.979C104.713 108.698 104.821 109.416 104.929 110.133C103.663 110.319 102.396 110.505 101.13 110.691C100.472 110.78 99.8029 110.824 99.1563 110.967C97.4896 111.334 96.2523 110.695 95.2791 109.408C93.805 107.46 92.3413 105.505 90.8763 103.552C90.7982 103.447 90.7345 103.332 90.6707 103.233C90.3663 103.433 90.4743 103.645 90.473 103.813C90.4639 106.261 90.5237 108.712 90.4469 111.157C90.391 112.903 90.1802 114.644 89.9929 116.383C89.7405 118.736 89.4438 121.083 89.1667 123.432C88.118 123.294 87.1813 122.789 86.169 122.53C85.4001 122.147 84.639 121.746 83.8596 121.387C83.4277 121.188 83.3366 121.001 83.55 120.527C84.786 117.764 85.8451 114.94 86.3863 111.949C86.4631 111.528 86.5112 111.102 86.5724 110.678C86.7142 110.633 86.856 110.584 86.9991 110.542C88.6163 110.075 89.9421 108.329 89.2825 106.301C88.8752 104.966 87.9281 104.243 86.5932 103.959C86.6491 102.035 86.4865 100.107 86.6908 98.1863C87.0277 95.0211 89.6455 92.3584 92.8019 91.9773C92.9307 91.9618 93.0569 91.9385 93.1844 91.9191L93.1857 91.9153Z" fill="#4FB103"/>
<path d="M80.698 78.3034C81.532 79.1948 82.3998 80.0475 82.958 81.1676C85.2622 85.794 82.7316 91.401 77.712 92.7421C77.5468 92.786 77.379 92.8235 77.2124 92.8648C77.0498 92.6646 76.7987 92.6491 76.5801 92.5664C73.7945 91.5251 72.0095 89.5936 71.2392 86.7255C70.8931 85.4362 71.061 84.1248 70.9829 82.8252C71.61 81.6637 71.5489 80.4015 71.515 79.1483C71.5059 78.8163 71.5658 78.576 71.9145 78.4791C72.6483 78.4778 73.3821 78.4933 74.1146 78.4713C76.3095 78.4041 78.5122 78.6483 80.6993 78.3034H80.698ZM81.3589 82.5396C81.3589 82.1973 81.3863 81.851 81.3524 81.5125C81.2965 80.9441 80.8463 80.5358 80.3298 80.5397C79.7729 80.5436 79.3397 80.9686 79.3176 81.5823C79.2954 82.2024 79.2954 82.8252 79.3176 83.4466C79.3397 84.0499 79.7873 84.484 80.3363 84.4853C80.8502 84.4853 81.2965 84.0745 81.3524 83.5047C81.3837 83.1869 81.3576 82.8626 81.3576 82.5409L81.3589 82.5396ZM77.9892 82.5035C77.9892 82.5035 77.9918 82.5035 77.9931 82.5035C77.9931 82.1818 78.0152 81.8588 77.9879 81.541C77.9384 80.9648 77.5143 80.5539 76.9926 80.5397C76.4526 80.5242 75.9764 80.9622 75.9504 81.5565C75.9231 82.1973 75.9218 82.8419 75.9504 83.4828C75.9764 84.0486 76.4214 84.4685 76.9418 84.4853C77.4531 84.5008 77.9215 84.09 77.9801 83.5318C78.0152 83.1934 77.9866 82.8471 77.9866 82.5048L77.9892 82.5035Z" fill="#F7BF88"/>
<path d="M75.5445 93.0392C76.6751 93.4372 77.8123 93.7873 78.7712 94.5792C80.1074 95.6838 80.9374 97.061 81.2419 98.7328C81.5672 100.517 81.3148 102.328 81.3824 104.125C81.3876 104.255 81.3863 104.382 81.3876 104.512C80.6347 104.724 80.038 104.539 79.5973 103.957C79.3514 103.633 79.0977 103.315 78.8648 102.981C78.6827 102.72 78.5344 102.665 78.2494 102.886C76.9262 103.91 75.5835 104.907 74.2486 105.913C74.2057 105.91 74.1628 105.908 74.1198 105.91C73.7542 105.152 73.1753 104.547 72.6665 103.893C72.4154 103.57 72.1799 103.766 71.9653 103.976C71.7844 104.151 71.3303 104.251 71.6049 104.588C72.1422 105.249 72.5208 106.041 73.2273 106.563C73.187 106.832 73.3899 106.987 73.524 107.169C74.2903 108.213 75.0605 109.253 75.8294 110.294C73.7829 110.303 71.7363 110.311 69.6897 110.32L69.7066 110.283C69.7066 107.409 69.6962 104.536 69.7105 101.664C69.7144 100.79 69.6806 99.9201 69.8133 99.0403C70.1724 96.6554 71.4722 94.9771 73.5409 93.8028C74.1016 93.485 74.7691 93.4359 75.2856 93.0379C75.3715 93.0379 75.4573 93.0379 75.5445 93.0379V93.0392Z" fill="#E4F3FC"/>
<path d="M91.9208 87.1894C89.9588 88.1208 88.0722 87.9141 86.5487 86.4271C84.8547 84.7734 84.6023 82.5901 85.9645 80.5746C87.1082 78.8835 88.793 78.2853 90.8175 78.6794C91.1831 78.7504 91.4147 78.7388 91.5669 78.2646C92.518 75.2958 94.5047 73.3191 97.544 72.5091C99.4644 71.9974 101.376 72.1576 103.192 73.0336C103.019 73.2429 102.759 73.3088 102.53 73.4225C100.862 74.2558 99.3486 75.2764 98.1178 76.7014C96.5565 78.5075 95.729 80.5746 95.651 82.9505C95.6263 83.7024 95.7251 84.4427 95.7707 85.1881C94.4631 85.1313 93.3299 84.5926 92.2383 83.9324C92.0808 83.8368 91.9299 83.5991 91.7491 83.6908C91.5344 83.7993 91.6502 84.0732 91.6359 84.276C91.5617 85.2631 91.7061 86.2294 91.9195 87.1894H91.9208Z" fill="#CBCBCA"/>
<path d="M108.542 84.7773C108.52 86.9645 107.79 88.8973 106.283 90.485C104.614 92.2447 102.543 93.1749 100.077 93.1542C99.4567 92.5702 98.6786 92.1723 98.1192 91.5173C96.5826 89.7176 95.8358 87.6428 95.9243 85.2772C96.1832 85.2798 96.4421 85.2824 96.7023 85.2837C99.229 85.2979 101.381 84.4194 103.107 82.5797C104.271 81.3394 104.938 79.8459 105.261 78.191C105.632 78.3137 105.848 78.6444 106.155 78.8524C107.637 80.5552 108.547 82.4841 108.543 84.7773H108.542ZM106.432 86.8857C106.453 86.201 106.195 85.8211 105.674 85.6958C105.124 85.5628 104.692 85.7863 104.487 86.325C104.372 86.6222 104.277 86.9387 104.247 87.2539C104.195 87.7888 104.463 88.1738 104.978 88.3236C105.501 88.4761 105.93 88.2784 106.157 87.7939C106.309 87.4697 106.368 87.1028 106.43 86.887L106.432 86.8857ZM102.262 87.6092C102.963 87.6157 103.428 86.9774 103.45 85.9788C103.464 85.3651 103.012 84.8948 102.419 84.9052C101.754 84.9168 101.257 85.6299 101.25 86.5808C101.244 87.1518 101.689 87.604 102.262 87.6092Z" fill="#F7BF88"/>
<path d="M105.261 78.191C104.938 79.8446 104.271 81.3394 103.108 82.5797C101.381 84.4194 99.2292 85.2979 96.7025 85.2837C96.4436 85.2824 96.1846 85.2798 95.9244 85.2772C95.8737 85.2475 95.823 85.2178 95.7735 85.1868C95.728 84.4414 95.6291 83.7011 95.6538 82.9492C95.7319 80.5733 96.5594 78.5075 98.1206 76.7001C99.3515 75.275 100.866 74.2544 102.533 73.4211C102.76 73.3074 103.022 73.2415 103.195 73.0322C103.841 73.1162 104.221 73.7622 104.881 73.8203C105.163 75.2634 105.506 76.7013 105.262 78.1897L105.261 78.191Z" fill="#E4E4E4"/>
<path d="M109.018 108.088C111.812 107.633 113.832 108.925 114.558 111.664C116.656 119.582 118.741 127.503 120.831 135.423C120.853 135.505 120.874 135.589 120.893 135.672C121.053 136.355 120.772 136.872 120.158 137.019C119.592 137.156 119.099 136.839 118.92 136.176C118.51 134.666 118.122 133.149 117.723 131.635C115.993 125.083 114.264 118.533 112.53 111.983C112.167 110.613 111.154 109.89 109.82 110.018C108.655 110.129 107.725 111.102 107.663 112.302C107.647 112.598 107.719 112.899 107.74 113.197C107.777 113.772 107.516 114.153 106.95 114.281C106.398 114.407 105.926 114.115 105.771 113.537C105.437 112.288 105.659 111.115 106.321 110.013C107.479 109.727 108.41 109.13 109.018 108.086V108.088Z" fill="#414250"/>
<path d="M80.6979 78.3034C78.5108 78.6483 76.3081 78.4042 74.1132 78.4713C73.3807 78.4933 72.6469 78.4778 71.9131 78.4791C72.0224 76.8189 72.6898 75.3991 73.8126 74.1847C74.9108 72.9948 76.3328 72.394 77.8785 72.0271C80.249 72.0207 82.6196 72.022 84.9901 72C85.3805 71.9961 85.4416 72.1382 85.4325 72.4871C85.3766 74.8061 83.6461 77.16 81.3003 78.0734C81.0999 78.1509 80.8996 78.2272 80.6992 78.3034H80.6979Z" fill="#5D5E70"/>
<path d="M74.2485 105.913C75.5834 104.907 76.9261 103.91 78.2493 102.886C78.5343 102.665 78.6839 102.72 78.8647 102.981C79.0976 103.314 79.3513 103.633 79.5972 103.957C80.0379 104.539 80.6346 104.724 81.3875 104.512C82.5702 104.36 83.7581 104.235 84.9355 104.047C85.4911 103.957 86.0414 103.975 86.5957 103.955C87.9306 104.239 88.8778 104.963 89.285 106.297C88.6045 107.642 87.5429 108.365 86.0024 108.541C83.7893 108.794 81.5931 109.203 79.3839 109.501C78.0958 109.674 76.93 109.376 76.083 108.31C75.4572 107.523 74.86 106.713 74.2498 105.913H74.2485Z" fill="#F7BF88"/>
<path d="M77.8787 72.0271C76.3344 72.394 74.911 72.9948 73.8129 74.1847C72.6901 75.3991 72.0226 76.8189 71.9133 78.4791C71.5646 78.576 71.5048 78.8163 71.5139 79.1483C71.5477 80.4015 71.6089 81.6637 70.9818 82.8251C70.0359 84.0098 68.9339 84.8987 67.2867 84.7618C67.2399 82.8238 67.2334 80.8872 67.2906 78.9493C67.3739 78.8731 67.3713 78.784 67.331 78.6896C67.3414 75.1924 70.5277 71.8876 74.4439 72.0039C75.5888 72.0374 76.7338 72.0207 77.8787 72.0271Z" fill="#3F404F"/>
<path d="M75.2855 93.038C74.769 93.4359 74.1002 93.485 73.5408 93.8028C71.4708 94.9785 70.1723 96.6554 69.8132 99.0403C69.6805 99.9201 69.7156 100.79 69.7104 101.664C69.6961 104.538 69.7065 107.411 69.7065 110.283C68.9259 110.284 68.1465 110.287 67.3659 110.288C67.3646 106.773 67.3828 103.257 67.3542 99.7431C67.3334 97.167 69.2134 94.4888 71.7024 93.5237C72.5337 93.202 73.4015 93.1051 74.2577 92.9281C74.5998 92.9643 74.9433 93.0005 75.2855 93.038Z" fill="#C0D8E4"/>
<path d="M75.2855 93.0379C74.9433 93.0017 74.5998 92.9656 74.2576 92.9281C70.2048 92.2472 67.3698 88.927 67.2865 84.763C68.9337 84.9 70.037 84.0111 70.9815 82.8264C71.0596 84.1261 70.8918 85.4374 71.2378 86.7268C72.0081 89.5936 73.7945 91.5263 76.5787 92.5676C76.7973 92.649 77.0484 92.6645 77.2111 92.8661C76.662 92.9888 76.1039 93.025 75.5431 93.0405C75.4572 93.0405 75.3714 93.0405 75.2842 93.0405L75.2855 93.0379Z" fill="#DB9555"/>
<path d="M95.7734 85.1881C95.8242 85.2178 95.8736 85.2475 95.9244 85.2785C95.8359 87.6428 96.5827 89.7189 98.1193 91.5186C98.6787 92.1736 99.4568 92.5715 100.077 93.1555C99.3292 93.2588 98.6059 92.9772 97.8629 93.0147L97.8694 93.0185C97.8447 92.8351 97.7081 92.8984 97.6001 92.901C96.9964 92.6348 96.3927 92.37 95.7877 92.1038C95.0813 91.5134 94.298 91.0225 93.6904 90.3068C92.8968 89.374 92.3659 88.3107 91.9197 87.1919C91.7063 86.232 91.5632 85.2643 91.636 84.2773C91.6516 84.0757 91.5345 83.8018 91.7492 83.692C91.9301 83.6003 92.081 83.838 92.2384 83.9336C93.33 84.5938 94.4632 85.1325 95.7708 85.1894L95.7734 85.1881Z" fill="#DB9555"/>
<path d="M108.542 84.7773C108.546 82.4841 107.635 80.5539 106.155 78.8524C106.382 78.1561 106.792 77.5618 107.203 76.9623C107.903 75.943 108.763 75.3371 110.068 75.7427L110.063 75.7401C110.102 75.837 110.145 75.8357 110.193 75.7453C111.928 77.9339 112.132 80.3963 110.731 82.7722C110.214 83.6481 109.479 84.3302 108.543 84.7785L108.542 84.7773Z" fill="#E4E4E4"/>
<path d="M104.608 107.978C104.578 107.968 104.548 107.959 104.518 107.951C104.332 106.404 103.982 104.886 103.698 103.357C104.791 103.221 105.872 102.842 106.985 103.265C108.073 103.678 108.831 104.388 109.151 105.521C109.051 105.682 108.947 105.842 108.849 106.006C108.302 106.924 107.49 107.484 106.449 107.698C105.841 107.823 105.222 107.886 104.607 107.978H104.608Z" fill="#F7BF88"/>
<path d="M110.068 75.7428C108.762 75.3371 107.902 75.943 107.203 76.9623C106.792 77.5605 106.382 78.1548 106.155 78.8525C105.848 78.6445 105.632 78.3137 105.261 78.191C105.504 76.7027 105.161 75.2647 104.88 73.8216C106.68 73.6459 108.305 74.0594 109.7 75.2428C109.865 75.3823 110.053 75.4973 110.068 75.7428Z" fill="#CBCBCA"/>
<path d="M104.608 107.978C105.222 107.886 105.842 107.823 106.45 107.698C107.491 107.483 108.303 106.924 108.85 106.006C108.948 105.842 109.051 105.683 109.152 105.521C109.537 106.398 109.277 107.242 109.018 108.086C108.409 109.13 107.479 109.728 106.321 110.013C105.858 110.051 105.395 110.092 104.932 110.132C104.824 109.413 104.716 108.695 104.608 107.978Z" fill="#DB9555"/>
<path d="M67.3304 78.691C67.3705 78.7866 67.3718 78.8757 67.2904 78.9507C67.2555 78.8563 67.2607 78.7685 67.3304 78.691Z" fill="#DB9555"/>
<path d="M110.191 75.7453C110.144 75.8358 110.102 75.8371 110.062 75.7402C110.104 75.7415 110.147 75.744 110.191 75.7453Z" fill="#CBCBCA"/>
<path d="M69.6897 110.32C71.7363 110.311 73.7829 110.303 75.8294 110.294C76.7233 111.333 77.8227 111.88 79.2278 111.704C79.9044 111.619 80.581 111.535 81.2575 111.449C80.9596 113.456 79.9122 114.998 78.2442 116.118C77.8474 116.385 77.7329 116.651 77.7342 117.103C77.7498 122.833 77.7368 128.564 77.7485 134.293C77.7524 136.004 77.0277 137.205 75.4053 137.84C75.2323 137.486 74.812 137.463 74.557 137.212C73.7477 136.421 73.3392 135.472 73.3392 134.344C73.3405 128.599 73.334 122.855 73.3509 117.109C73.3522 116.629 73.2182 116.342 72.8058 116.068C70.7488 114.708 69.8458 112.708 69.6897 110.319V110.32Z" fill="#5D5E70"/>
<path d="M81.2575 111.451C80.5809 111.536 79.9044 111.62 79.2278 111.705C77.824 111.881 76.7233 111.334 75.8294 110.296C75.0605 109.254 74.289 108.214 73.5239 107.17C73.3899 106.988 73.1857 106.833 73.2273 106.563C73.5773 106.415 73.8609 106.178 74.1211 105.91C74.1641 105.907 74.207 105.91 74.2499 105.913C74.8601 106.713 75.4573 107.523 76.0831 108.31C76.9314 109.376 78.0959 109.676 79.384 109.501C81.5932 109.204 83.7881 108.794 86.0025 108.541C87.543 108.366 88.6046 107.641 89.2851 106.297C89.946 108.325 88.619 110.071 87.0017 110.539C86.8586 110.58 86.7168 110.629 86.575 110.674C84.7938 110.871 83.0192 111.108 81.2588 111.449L81.2575 111.451Z" fill="#DB9555"/>
<path d="M97.6002 92.8984C97.7075 92.8971 97.8418 92.8325 97.8676 93.016C97.7514 93.0392 97.6596 93.0043 97.6002 92.8984Z" fill="#FEFEFE"/>
<path d="M81.359 82.5396C81.359 82.8613 81.3851 83.1843 81.3538 83.5034C81.2966 84.0732 80.8516 84.4853 80.3377 84.484C79.7886 84.484 79.3424 84.0499 79.319 83.4453C79.2955 82.8252 79.2955 82.2024 79.319 81.581C79.3411 80.9674 79.7743 80.5436 80.3312 80.5384C80.8477 80.5346 81.2979 80.9428 81.3538 81.5113C81.3877 81.851 81.3603 82.196 81.3603 82.5383L81.359 82.5396Z" fill="#414250"/>
<path d="M77.9893 82.5035C77.9893 82.8458 78.0179 83.1921 77.9828 83.5306C77.9242 84.09 77.4545 84.4995 76.9445 84.484C76.4241 84.4685 75.9791 84.0486 75.9531 83.4815C75.9232 82.8407 75.9245 82.196 75.9531 81.5552C75.9791 80.9609 76.454 80.5242 76.9953 80.5384C77.5183 80.5526 77.9424 80.9635 77.9906 81.5397C78.0179 81.8588 77.9958 82.1818 77.9958 82.5022C77.9945 82.5022 77.9932 82.5022 77.9919 82.5022L77.9893 82.5035Z" fill="#414250"/>
<path d="M74.1197 105.911C73.8595 106.18 73.5758 106.416 73.2258 106.565C72.5194 106.043 72.1407 105.251 71.6034 104.589C71.3289 104.252 71.783 104.152 71.9638 103.977C72.1785 103.767 72.414 103.571 72.6651 103.894C73.1738 104.549 73.7528 105.155 74.1184 105.911H74.1197Z" fill="#C0D8E4"/>
<path d="M106.432 86.8857C106.369 87.1028 106.309 87.4697 106.159 87.7927C105.931 88.2784 105.502 88.4761 104.98 88.3223C104.463 88.1712 104.197 87.7875 104.249 87.2526C104.279 86.9374 104.375 86.6222 104.488 86.3237C104.694 85.785 105.127 85.5628 105.676 85.6945C106.196 85.8199 106.454 86.1997 106.433 86.8844L106.432 86.8857Z" fill="#414250"/>
<path d="M102.262 87.6092C101.689 87.6041 101.246 87.1532 101.25 86.5808C101.257 85.63 101.754 84.9168 102.419 84.9052C103.012 84.8949 103.463 85.3638 103.45 85.9788C103.428 86.9775 102.963 87.6157 102.262 87.6092Z" fill="#414250"/>
</g>
</g>
<path d="M72.8231 141.715V138.733" stroke="#A35D54" stroke-width="0.410959" stroke-miterlimit="10"/>
<path d="M65.8667 141.343L66.172 138.378" stroke="#A35D54" stroke-width="0.410959" stroke-miterlimit="10"/>
<path d="M58.9851 140.234L59.5957 137.32" stroke="#A35D54" stroke-width="0.410959" stroke-miterlimit="10"/>
<path d="M52.256 138.402L53.1619 135.565" stroke="#A35D54" stroke-width="0.410959" stroke-miterlimit="10"/>
<path d="M45.7518 135.864L46.945 133.139" stroke="#A35D54" stroke-width="0.410959" stroke-miterlimit="10"/>
<path d="M39.543 132.647L41.0093 130.066" stroke="#A35D54" stroke-width="0.410959" stroke-miterlimit="10"/>
<path d="M33.7019 128.789L35.4253 126.377" stroke="#A35D54" stroke-width="0.410959" stroke-miterlimit="10"/>
<path d="M28.2866 124.331L30.2491 122.115" stroke="#A35D54" stroke-width="0.410959" stroke-miterlimit="10"/>
<path d="M23.3611 119.323L25.5385 117.328" stroke="#A35D54" stroke-width="0.410959" stroke-miterlimit="10"/>
<path d="M18.9761 113.817L21.3483 112.065" stroke="#A35D54" stroke-width="0.410959" stroke-miterlimit="10"/>
<path d="M15.182 107.876L17.721 106.388" stroke="#A35D54" stroke-width="0.410959" stroke-miterlimit="10"/>
<path d="M12.0183 101.566L14.6979 100.353" stroke="#A35D54" stroke-width="0.410959" stroke-miterlimit="10"/>
<path d="M9.52124 94.9532L12.3113 94.0321" stroke="#A35D54" stroke-width="0.410959" stroke-miterlimit="10"/>
<path d="M7.71973 88.1116L10.5861 87.4907" stroke="#A35D54" stroke-width="0.410959" stroke-miterlimit="10"/>
<path d="M6.62891 81.1147L9.54551 80.8042" stroke="#A35D54" stroke-width="0.410959" stroke-miterlimit="10"/>
<path d="M6.26331 74.0402H9.19597" stroke="#A35D54" stroke-width="0.410959" stroke-miterlimit="10"/>
<path d="M6.62891 66.968L9.54551 67.2784" stroke="#A35D54" stroke-width="0.410959" stroke-miterlimit="10"/>
<path d="M7.71973 59.9712L10.5861 60.5921" stroke="#A35D54" stroke-width="0.410959" stroke-miterlimit="10"/>
<path d="M9.52124 53.1295L12.3113 54.0505" stroke="#A35D54" stroke-width="0.410959" stroke-miterlimit="10"/>
<path d="M12.0183 46.5167L14.6979 47.7298" stroke="#A35D54" stroke-width="0.410959" stroke-miterlimit="10"/>
<path d="M15.182 40.2062L17.721 41.695" stroke="#A35D54" stroke-width="0.410959" stroke-miterlimit="10"/>
<path d="M18.9761 34.2652L21.3483 36.0175" stroke="#A35D54" stroke-width="0.410959" stroke-miterlimit="10"/>
<path d="M23.3611 28.7592L25.5385 30.7545" stroke="#A35D54" stroke-width="0.410959" stroke-miterlimit="10"/>
<path d="M28.2866 23.7516L30.2491 25.9655" stroke="#A35D54" stroke-width="0.410959" stroke-miterlimit="10"/>
<path d="M33.7019 19.2935L35.4253 21.7054" stroke="#A35D54" stroke-width="0.410959" stroke-miterlimit="10"/>
<path d="M39.543 15.4355L41.0093 18.0169" stroke="#A35D54" stroke-width="0.410959" stroke-miterlimit="10"/>
<path d="M45.7518 12.2189L46.943 14.9433" stroke="#A35D54" stroke-width="0.410959" stroke-miterlimit="10"/>
<path d="M52.256 9.68056L53.1619 12.5173" stroke="#A35D54" stroke-width="0.410959" stroke-miterlimit="10"/>
<path d="M58.9851 7.84848L59.5957 10.7648" stroke="#A35D54" stroke-width="0.410959" stroke-miterlimit="10"/>
<path d="M65.8667 6.73965L66.172 9.70502" stroke="#A35D54" stroke-width="0.410959" stroke-miterlimit="10"/>
<path d="M72.8231 6.36792V9.34962" stroke="#A35D54" stroke-width="0.410959" stroke-miterlimit="10"/>
<path d="M79.7808 6.73965L79.4735 9.70502" stroke="#A35D54" stroke-width="0.410959" stroke-miterlimit="10"/>
<path d="M86.6624 7.84848L86.0518 10.7628" stroke="#A35D54" stroke-width="0.410959" stroke-miterlimit="10"/>
<path d="M93.3915 9.68056L92.4856 12.5173" stroke="#A35D54" stroke-width="0.410959" stroke-miterlimit="10"/>
<path d="M99.8957 12.2189L98.7025 14.9433" stroke="#A35D54" stroke-width="0.410959" stroke-miterlimit="10"/>
<path d="M106.103 15.4355L104.638 18.0169" stroke="#A35D54" stroke-width="0.410959" stroke-miterlimit="10"/>
<path d="M111.946 19.2935L110.222 21.7054" stroke="#A35D54" stroke-width="0.410959" stroke-miterlimit="10"/>
<path d="M117.361 23.7516L115.399 25.9655" stroke="#A35D54" stroke-width="0.410959" stroke-miterlimit="10"/>
<path d="M122.286 28.7592L120.107 30.7545" stroke="#A35D54" stroke-width="0.410959" stroke-miterlimit="10"/>
<path d="M126.671 34.2652L124.299 36.0175" stroke="#A35D54" stroke-width="0.410959" stroke-miterlimit="10"/>
<path d="M130.466 40.2042L127.927 41.695" stroke="#A35D54" stroke-width="0.410959" stroke-miterlimit="10"/>
<path d="M133.63 46.5167L130.95 47.7278" stroke="#A35D54" stroke-width="0.410959" stroke-miterlimit="10"/>
<path d="M136.126 53.1295L133.336 54.0505" stroke="#A35D54" stroke-width="0.410959" stroke-miterlimit="10"/>
<path d="M137.928 59.9712L135.06 60.5921" stroke="#A35D54" stroke-width="0.410959" stroke-miterlimit="10"/>
<path d="M139.019 66.968L136.102 67.2784" stroke="#A35D54" stroke-width="0.410959" stroke-miterlimit="10"/>
<path d="M139.382 74.0402H136.452" stroke="#A35D54" stroke-width="0.410959" stroke-miterlimit="10"/>
<path d="M139.019 81.1147L136.102 80.8042" stroke="#A35D54" stroke-width="0.410959" stroke-miterlimit="10"/>
<path d="M137.928 88.1116L135.062 87.4907" stroke="#A35D54" stroke-width="0.410959" stroke-miterlimit="10"/>
<path d="M136.126 94.9532L133.336 94.0321" stroke="#A35D54" stroke-width="0.410959" stroke-miterlimit="10"/>
<path d="M133.63 101.566L130.95 100.353" stroke="#A35D54" stroke-width="0.410959" stroke-miterlimit="10"/>
<path d="M130.466 107.876L127.927 106.388" stroke="#A35D54" stroke-width="0.410959" stroke-miterlimit="10"/>
<path d="M126.671 113.817L124.299 112.065" stroke="#A35D54" stroke-width="0.410959" stroke-miterlimit="10"/>
<path d="M122.286 119.323L120.107 117.328" stroke="#A35D54" stroke-width="0.410959" stroke-miterlimit="10"/>
<path d="M117.361 124.331L115.399 122.115" stroke="#A35D54" stroke-width="0.410959" stroke-miterlimit="10"/>
<path d="M111.946 128.789L110.222 126.377" stroke="#A35D54" stroke-width="0.410959" stroke-miterlimit="10"/>
<path d="M106.103 132.647L104.638 130.066" stroke="#A35D54" stroke-width="0.410959" stroke-miterlimit="10"/>
<path d="M99.8957 135.864L98.7025 133.139" stroke="#A35D54" stroke-width="0.410959" stroke-miterlimit="10"/>
<path d="M93.3915 138.402L92.4856 135.565" stroke="#A35D54" stroke-width="0.410959" stroke-miterlimit="10"/>
<path d="M86.6624 140.234L86.0518 137.318" stroke="#A35D54" stroke-width="0.410959" stroke-miterlimit="10"/>
<path d="M79.7809 141.343L79.4756 138.378" stroke="#A35D54" stroke-width="0.410959" stroke-miterlimit="10"/>
<path d="M72.8229 144.941V137.996" stroke="#A35D54" stroke-width="0.821918" stroke-miterlimit="10"/>
<path d="M37.9559 135.443L41.3707 129.428" stroke="#A35D54" stroke-width="0.821918" stroke-miterlimit="10"/>
<path d="M12.4319 109.492L18.3474 106.018" stroke="#A35D54" stroke-width="0.821918" stroke-miterlimit="10"/>
<path d="M3.08948 74.0401H9.92099" stroke="#A35D54" stroke-width="0.821918" stroke-miterlimit="10"/>
<path d="M12.4319 38.5928L18.3474 42.0646" stroke="#A35D54" stroke-width="0.821918" stroke-miterlimit="10"/>
<path d="M37.9559 12.6397L41.3707 18.6542" stroke="#A35D54" stroke-width="0.821918" stroke-miterlimit="10"/>
<path d="M72.8229 3.14111V10.0868" stroke="#A35D54" stroke-width="0.821918" stroke-miterlimit="10"/>
<path d="M107.689 12.6418L104.274 18.6542" stroke="#A35D54" stroke-width="0.821918" stroke-miterlimit="10"/>
<path d="M133.213 38.5907L127.3 42.0646" stroke="#A35D54" stroke-width="0.821918" stroke-miterlimit="10"/>
<path d="M142.556 74.0401H135.726" stroke="#A35D54" stroke-width="0.821918" stroke-miterlimit="10"/>
<path d="M133.215 109.492L127.3 106.018" stroke="#A35D54" stroke-width="0.821918" stroke-miterlimit="10"/>
<path d="M107.691 135.443L104.274 129.428" stroke="#A35D54" stroke-width="0.821918" stroke-miterlimit="10"/>
<path d="M74.369 75.921L74.6663 18.5335L77.9002 18.7091L72.8123 9.83139L66.8184 18.1046L70.6348 18.3129L71.1671 75.9292L74.369 75.921Z" fill="#DB5700"/>
<path d="M74.5522 70.1237L25.8592 99.1519L24.3582 96.2333L19.4454 105.213L29.5007 106.23L27.7308 102.788L76.1907 72.9182L74.5522 70.1237Z" fill="#DB5700"/>
<path d="M74.2116 77.4915C76.088 76.6241 76.9175 74.3744 76.0643 72.4667C75.2112 70.559 72.9985 69.7156 71.1222 70.583C69.2458 71.4504 68.4163 73.7001 69.2695 75.6078C70.1226 77.5155 72.3353 78.3589 74.2116 77.4915Z" fill="#C62828"/>
</g>
<defs>
<linearGradient id="paint0_linear_1313_898" x1="47.8191" y1="33.0165" x2="108.133" y2="117.431" gradientUnits="userSpaceOnUse">
<stop stop-color="#FF8120"/>
<stop offset="1" stop-color="#E54304"/>
</linearGradient>
<clipPath id="clip0_1313_898">
<rect width="150" height="150" fill="white"/>
</clipPath>
<clipPath id="clip1_1313_898">
<rect width="61.875" height="66" fill="white" transform="translate(59.0625 72)"/>
</clipPath>
</defs>
</svg>
