<svg width="150" height="150" viewBox="0 0 150 150" fill="none" xmlns="http://www.w3.org/2000/svg">
<g clip-path="url(#clip0_1313_901)">
<g style="mix-blend-mode:multiply">
<path d="M77.1675 149.982C117.382 149.982 149.982 116.836 149.982 75.9497C149.982 35.063 117.382 1.91776 77.1675 1.91776C36.9531 1.91776 4.35291 35.063 4.35291 75.9497C4.35291 116.836 36.9531 149.982 77.1675 149.982Z" fill="#FFC77D"/>
</g>
<path d="M144.692 74.032C144.692 114.416 112.497 147.126 72.8146 147.126C33.1326 147.126 0.9375 114.416 0.9375 74.032C0.9375 33.6483 33.1326 0.9375 72.8146 0.9375C112.497 0.9375 144.692 33.6483 144.692 74.032Z" fill="white" stroke="#FFAB3B" stroke-width="1.875"/>
<path d="M73.9193 11.0282C86.9095 11.0282 99.5447 15.4406 109.905 23.5952C120.266 31.7498 127.786 43.2008 131.323 56.2087C134.86 69.2166 134.221 83.0705 129.502 95.6657C124.783 108.261 116.243 118.909 105.179 125.992C94.1145 133.076 81.131 136.208 68.2007 134.912C55.2703 133.616 43.0997 127.963 33.5378 118.813C23.9759 109.662 17.5453 97.5136 15.2228 84.2127C12.9003 70.9119 14.813 57.1856 20.6702 45.1192L73.9193 73.1129V11.0282Z" fill="#FF8120"/>
<mask id="mask0_1313_901" style="mask-type:alpha" maskUnits="userSpaceOnUse" x="14" y="11" width="120" height="125">
<path d="M73.9193 11.0282C86.8854 11.0282 99.4984 15.4242 109.849 23.551C120.2 31.6777 127.725 43.0925 131.285 56.0675C134.844 69.0425 134.245 82.8713 129.578 95.4604C124.911 108.049 116.43 118.713 105.419 125.838C94.4072 132.963 81.4653 136.16 68.5518 134.946C55.6383 133.732 43.4565 128.173 33.8503 119.11C24.2442 110.047 17.7367 97.9736 15.3131 84.7179C12.8894 71.4622 14.6816 57.7456 20.4182 45.6446L73.9193 73.1129V11.0282Z" fill="url(#paint0_linear_1313_901)"/>
</mask>
<g mask="url(#mask0_1313_901)">
<g clip-path="url(#clip1_1313_901)">
<path d="M64.1566 139.715C64.0408 139.795 63.8456 139.69 63.7741 139.875H62.3468C62.2778 139.832 62.2141 139.776 62.1386 139.75C60.6229 139.237 59.7746 138.149 59.7069 136.551C59.6679 135.63 59.6952 134.707 59.6939 133.785C59.6939 133.065 59.6939 132.346 59.6939 131.62C59.3712 131.63 59.2346 131.816 59.0681 131.937C57.1373 133.344 55.2221 134.772 53.2796 136.165C51.3488 137.548 48.9562 136.862 48.0311 134.697C47.9778 134.57 47.9947 134.387 47.8099 134.333V132.657C48.3733 131.21 49.6496 130.459 50.8232 129.607C52.1126 128.669 53.3915 127.717 54.6861 126.788C54.9827 126.575 55.1493 126.329 55.2482 125.972C56.0457 123.103 56.8576 120.239 57.689 117.378C57.797 117.008 57.7475 116.758 57.5146 116.451C56.5544 115.189 55.9833 113.786 56.1147 112.166C56.8953 112.164 57.6747 112.162 58.4553 112.16L58.4384 112.198C58.5945 114.587 59.4988 116.585 61.5544 117.947C61.9669 118.22 62.1009 118.508 62.0996 118.988C62.0827 124.733 62.0892 130.477 62.0879 136.223C62.0879 137.351 62.4964 138.3 63.3057 139.091C63.562 139.34 63.9809 139.363 64.154 139.719L64.1566 139.715Z" fill="#3F404F"/>
<path d="M81.8121 139.875C81.4491 139.699 81.0653 139.558 80.7283 139.344C79.6666 138.67 79.1215 137.677 79.1006 136.437C79.0733 134.768 79.0941 133.099 79.0941 131.428C78.817 131.388 78.6986 131.57 78.5516 131.678C76.5297 133.152 74.5313 134.657 72.4899 136.101C70.2586 137.68 67.3754 136.469 66.9643 133.785C66.7626 132.467 67.2804 131.377 68.3486 130.579C70.0595 129.303 71.7717 128.027 73.5217 126.804C74.1631 126.356 74.6028 125.857 74.7017 125.076C74.7303 124.847 74.8435 124.628 74.919 124.405C75.9312 124.664 76.868 125.169 77.9167 125.307C78.0585 125.351 78.1977 125.409 78.3434 125.438C79.1956 125.608 80.0504 125.773 80.9039 125.94C80.9039 129.399 80.9104 132.857 80.9 136.316C80.8961 137.705 81.4946 138.739 82.6721 139.463C82.8464 139.57 83.1014 139.596 83.1105 139.878H81.8134L81.8121 139.875Z" fill="#3F404F"/>
<path d="M83.1091 139.875C83.1 139.593 82.845 139.568 82.6706 139.46C81.4932 138.737 80.8947 137.702 80.8986 136.313C80.909 132.855 80.9025 129.396 80.9025 125.938C82.6303 126.036 84.3477 125.895 86.0599 125.679C86.0664 129.28 86.1055 132.882 86.0612 136.482C86.043 137.957 85.2624 139.025 83.8793 139.627C83.7063 139.702 83.4929 139.701 83.368 139.875H83.1091Z" fill="#5D5E70"/>
<path d="M86.0613 125.679C84.3491 125.896 82.633 126.036 80.9039 125.938C80.0504 125.771 79.1969 125.607 78.3434 125.435C78.199 125.405 78.0584 125.348 77.9166 125.305C78.1938 122.955 78.4904 120.607 78.7428 118.256C78.9302 116.517 79.1409 114.775 79.1969 113.03C79.2749 110.584 79.2151 108.133 79.2229 105.685C79.2229 105.517 79.1149 105.305 79.4207 105.105C79.4857 105.206 79.5482 105.321 79.6262 105.424C81.0925 107.378 82.5562 109.334 84.0291 111.281C85.0036 112.567 86.2396 113.208 87.9062 112.84C88.5529 112.698 89.2216 112.653 89.88 112.563C89.971 114.111 90.3809 115.596 90.8323 117.067C91.384 118.868 92.0345 120.637 92.8438 122.34C93.0767 122.83 92.9505 123.051 92.5016 123.287C90.5877 124.292 88.5802 125.04 86.4751 125.535C86.3319 125.568 86.1693 125.55 86.0587 125.679H86.0613Z" fill="#83DB3E"/>
<path d="M86.6131 94.8871C86.7511 95.2049 87.0841 95.3109 87.3209 95.5202C89.0422 97.0447 89.8034 98.98 89.8216 101.234C89.832 102.521 89.8346 103.809 89.8177 105.096C89.8125 105.497 89.9179 105.622 90.3407 105.539C91.0368 105.404 91.7459 105.331 92.4484 105.232C92.7321 106.761 93.0821 108.279 93.2681 109.826C93.0808 109.872 92.896 109.937 92.7061 109.964C91.2228 110.18 89.7305 110.343 88.2577 110.614C86.6144 110.916 85.2197 110.615 84.1762 109.244C82.6475 107.237 81.1356 105.215 79.6082 103.206C79.3389 102.851 79.184 102.49 79.2114 102.029C79.2569 101.241 79.2517 100.454 79.3272 99.6634C79.5418 97.4038 79.9933 95.2773 81.9384 93.789C82.8205 93.6456 83.674 93.8962 84.5405 93.9763C85.1442 94.2424 85.7479 94.5073 86.3529 94.7734C86.4128 94.8794 86.5052 94.9143 86.6223 94.891L86.6157 94.8871H86.6131Z" fill="#83DB3E"/>
<path d="M81.9357 93.7903C79.9906 95.2786 79.5404 97.4051 79.3244 99.6647C79.249 100.455 79.2542 101.242 79.2087 102.03C79.1826 102.491 79.3362 102.852 79.6055 103.207C81.1329 105.216 82.6448 107.238 84.1735 109.246C85.217 110.616 86.6117 110.918 88.255 110.615C89.7278 110.344 91.2201 110.181 92.7034 109.965C92.8933 109.938 93.0781 109.874 93.2654 109.827C93.2953 109.835 93.3266 109.843 93.3552 109.854C93.4632 110.573 93.5712 111.291 93.6792 112.008C92.4132 112.194 91.146 112.38 89.88 112.566C89.2217 112.655 88.5529 112.699 87.9063 112.842C86.2396 113.209 85.0023 112.57 84.0291 111.283C82.555 109.335 81.0913 107.38 79.6263 105.427C79.5482 105.322 79.4845 105.207 79.4207 105.108C79.1163 105.308 79.2243 105.52 79.223 105.688C79.2139 108.136 79.2737 110.587 79.1969 113.032C79.141 114.778 78.9302 116.519 78.7429 118.258C78.4905 120.611 78.1938 122.958 77.9167 125.307C76.868 125.169 75.9313 124.664 74.919 124.405C74.1501 124.022 73.389 123.621 72.6096 123.262C72.1777 123.063 72.0866 122.876 72.3 122.402C73.536 119.639 74.5951 116.815 75.1363 113.824C75.2131 113.403 75.2612 112.977 75.3224 112.553C75.4642 112.508 75.606 112.459 75.7491 112.417C77.3663 111.95 78.6921 110.204 78.0325 108.176C77.6252 106.841 76.6781 106.118 75.3432 105.834C75.3991 103.91 75.2365 101.982 75.4408 100.061C75.7777 96.8961 78.3955 94.2334 81.5519 93.8523C81.6807 93.8368 81.8069 93.8135 81.9344 93.7941L81.9357 93.7903Z" fill="#4FB103"/>
<path d="M69.448 80.1784C70.282 81.0698 71.1498 81.9225 71.708 83.0426C74.0122 87.6691 71.4816 93.2761 66.462 94.6171C66.2968 94.661 66.129 94.6985 65.9624 94.7398C65.7998 94.5396 65.5487 94.5241 65.3301 94.4414C62.5445 93.4001 60.7595 91.4686 59.9892 88.6005C59.6431 87.3112 59.811 85.9999 59.7329 84.7002C60.36 83.5387 60.2989 82.2765 60.265 81.0233C60.2559 80.6913 60.3158 80.451 60.6645 80.3541C61.3983 80.3528 62.1321 80.3683 62.8646 80.3463C65.0595 80.2792 67.2622 80.5233 69.4493 80.1784H69.448ZM70.1089 84.4147C70.1089 84.0723 70.1363 83.7261 70.1024 83.3876C70.0465 82.8191 69.5963 82.4109 69.0798 82.4147C68.5229 82.4186 68.0897 82.8437 68.0676 83.4573C68.0454 84.0775 68.0454 84.7002 68.0676 85.3216C68.0897 85.9249 68.5373 86.359 69.0863 86.3603C69.6002 86.3603 70.0465 85.9495 70.1024 85.3797C70.1337 85.0619 70.1076 84.7376 70.1076 84.4159L70.1089 84.4147ZM66.7392 84.3785C66.7392 84.3785 66.7418 84.3785 66.7431 84.3785C66.7431 84.0568 66.7652 83.7338 66.7379 83.416C66.6884 82.8398 66.2643 82.4289 65.7426 82.4147C65.2026 82.3992 64.7264 82.8372 64.7004 83.4315C64.6731 84.0723 64.6718 84.717 64.7004 85.3578C64.7264 85.9236 65.1714 86.3435 65.6918 86.3603C66.2031 86.3758 66.6715 85.965 66.7301 85.4069C66.7652 85.0684 66.7366 84.7221 66.7366 84.3798L66.7392 84.3785Z" fill="#F7BF88"/>
<path d="M64.2945 94.9143C65.4251 95.3122 66.5623 95.6623 67.5212 96.4543C68.8574 97.5589 69.6874 98.9361 69.9919 100.608C70.3172 102.392 70.0648 104.203 70.1324 106C70.1376 106.13 70.1363 106.257 70.1376 106.387C69.3847 106.599 68.788 106.414 68.3473 105.832C68.1014 105.508 67.8477 105.19 67.6148 104.856C67.4327 104.595 67.2844 104.541 66.9994 104.761C65.6762 105.785 64.3335 106.782 62.9986 107.788C62.9557 107.785 62.9128 107.783 62.8698 107.785C62.5042 107.027 61.9253 106.422 61.4165 105.768C61.1654 105.445 60.9299 105.641 60.7153 105.851C60.5344 106.026 60.0803 106.126 60.3549 106.463C60.8922 107.124 61.2708 107.916 61.9773 108.438C61.937 108.707 62.1399 108.862 62.274 109.044C63.0403 110.088 63.8105 111.128 64.5794 112.169C62.5329 112.178 60.4863 112.186 58.4397 112.195L58.4566 112.158C58.4566 109.285 58.4462 106.411 58.4605 103.539C58.4644 102.665 58.4306 101.795 58.5633 100.915C58.9224 98.5304 60.2222 96.8522 62.2909 95.6778C62.8516 95.36 63.5191 95.3109 64.0356 94.913C64.1215 94.913 64.2073 94.913 64.2945 94.913V94.9143Z" fill="#E4F3FC"/>
<path d="M80.6708 89.0644C78.7088 89.9959 76.8222 89.7891 75.2987 88.3021C73.6047 86.6484 73.3523 84.4651 74.7145 82.4496C75.8582 80.7585 77.543 80.1603 79.5675 80.5544C79.9331 80.6254 80.1647 80.6138 80.3169 80.1397C81.268 77.1708 83.2547 75.1941 86.294 74.3841C88.2144 73.8725 90.1257 74.0327 91.942 74.9086C91.7689 75.1179 91.5087 75.1838 91.2797 75.2975C89.6118 76.1308 88.0986 77.1514 86.8678 78.5764C85.3065 80.3825 84.479 82.4496 84.401 84.8255C84.3763 85.5774 84.4751 86.3177 84.5207 87.0632C83.2131 87.0063 82.0799 86.4676 80.9883 85.8074C80.8308 85.7118 80.6799 85.4741 80.4991 85.5658C80.2844 85.6743 80.4002 85.9482 80.3859 86.151C80.3117 87.1381 80.4561 88.1045 80.6695 89.0644H80.6708Z" fill="#CBCBCA"/>
<path d="M97.292 86.6523C97.2699 88.8395 96.54 90.7723 95.0334 92.3601C93.3641 94.1197 91.2928 95.0499 88.8273 95.0292C88.2067 94.4452 87.4286 94.0473 86.8692 93.3923C85.3326 91.5926 84.5858 89.5178 84.6743 87.1522C84.9332 87.1548 85.1921 87.1574 85.4523 87.1587C87.979 87.1729 90.131 86.2944 91.8575 84.4547C93.0206 83.2144 93.6881 81.7209 94.0107 80.066C94.3816 80.1887 94.5975 80.5194 94.9046 80.7274C96.3865 82.4302 97.2973 84.3591 97.2934 86.6523H97.292ZM95.1817 88.7607C95.2025 88.076 94.9449 87.6962 94.4245 87.5708C93.8741 87.4378 93.4422 87.6613 93.2366 88.2C93.1221 88.4972 93.0271 88.8137 92.9972 89.1289C92.9452 89.6638 93.2132 90.0488 93.7284 90.1986C94.2514 90.3511 94.6795 90.1534 94.9072 89.6689C95.0594 89.3447 95.118 88.9778 95.1804 88.762L95.1817 88.7607ZM91.0118 89.4842C91.7131 89.4907 92.1775 88.8524 92.1997 87.8538C92.214 87.2401 91.7625 86.7698 91.1692 86.7802C90.5044 86.7918 90.0074 87.5049 89.9996 88.4558C89.9943 89.0269 90.4393 89.479 91.0118 89.4842Z" fill="#F7BF88"/>
<path d="M94.0109 80.066C93.6882 81.7197 93.0208 83.2144 91.8576 84.4547C90.1311 86.2944 87.9792 87.1729 85.4525 87.1587C85.1936 87.1574 84.9346 87.1549 84.6744 87.1523C84.6237 87.1226 84.573 87.0928 84.5235 87.0618C84.478 86.3164 84.3791 85.5761 84.4038 84.8242C84.4819 82.4483 85.3094 80.3825 86.8706 78.5751C88.1015 77.1501 89.6159 76.1294 91.2826 75.2961C91.5103 75.1825 91.7718 75.1166 91.9448 74.9073C92.5914 74.9912 92.9714 75.6372 93.631 75.6954C93.9133 77.1385 94.2555 78.5764 94.0122 80.0647L94.0109 80.066Z" fill="#E4E4E4"/>
<path d="M97.7685 109.963C100.562 109.508 102.582 110.8 103.308 113.539C105.406 121.457 107.491 129.378 109.581 137.298C109.603 137.38 109.624 137.464 109.643 137.547C109.803 138.23 109.522 138.747 108.908 138.894C108.342 139.031 107.849 138.714 107.67 138.051C107.26 136.541 106.872 135.024 106.473 133.51C104.743 126.958 103.014 120.408 101.28 113.858C100.917 112.488 99.9035 111.765 98.5699 111.893C97.4055 112.004 96.4752 112.977 96.4127 114.177C96.3971 114.473 96.4687 114.774 96.4895 115.072C96.5272 115.647 96.2657 116.028 95.6997 116.156C95.1481 116.282 94.6758 115.99 94.521 115.412C94.1866 114.163 94.4091 112.99 95.0713 111.888C96.2293 111.602 97.1595 111.005 97.7685 109.961V109.963Z" fill="#414250"/>
<path d="M69.4479 80.1784C67.2608 80.5233 65.0581 80.2792 62.8632 80.3463C62.1307 80.3683 61.3969 80.3528 60.6631 80.3541C60.7724 78.6939 61.4398 77.2741 62.5626 76.0597C63.6608 74.8698 65.0828 74.2691 66.6285 73.9021C68.999 73.8957 71.3696 73.897 73.7401 73.875C74.1305 73.8711 74.1916 74.0133 74.1825 74.3621C74.1266 76.6811 72.3961 79.035 70.0503 79.9484C69.8499 80.0259 69.6496 80.1022 69.4492 80.1784H69.4479Z" fill="#5D5E70"/>
<path d="M62.9985 107.788C64.3334 106.782 65.6761 105.785 66.9993 104.761C67.2843 104.54 67.4339 104.595 67.6147 104.856C67.8476 105.189 68.1013 105.508 68.3472 105.832C68.7879 106.414 69.3846 106.599 70.1375 106.387C71.3202 106.235 72.5081 106.11 73.6855 105.922C74.2411 105.832 74.7914 105.85 75.3457 105.83C76.6806 106.114 77.6278 106.838 78.035 108.172C77.3545 109.517 76.2929 110.24 74.7524 110.416C72.5393 110.669 70.3431 111.078 68.1339 111.376C66.8458 111.549 65.68 111.251 64.833 110.185C64.2072 109.398 63.61 108.588 62.9998 107.788H62.9985Z" fill="#F7BF88"/>
<path d="M66.6287 73.9021C65.0844 74.269 63.661 74.8698 62.5629 76.0597C61.4401 77.2741 60.7726 78.6939 60.6633 80.3541C60.3146 80.451 60.2548 80.6913 60.2639 81.0233C60.2977 82.2765 60.3589 83.5387 59.7318 84.7001C58.7859 85.8849 57.6839 86.7737 56.0367 86.6368C55.9899 84.6989 55.9834 82.7622 56.0406 80.8243C56.1239 80.7481 56.1213 80.659 56.081 80.5646C56.0914 77.0674 59.2777 73.7626 63.1939 73.8789C64.3388 73.9125 65.4838 73.8957 66.6287 73.9021Z" fill="#3F404F"/>
<path d="M64.0355 94.913C63.519 95.3109 62.8502 95.36 62.2908 95.6778C60.2208 96.8535 58.9223 98.5304 58.5632 100.915C58.4305 101.795 58.4656 102.665 58.4604 103.539C58.4461 106.413 58.4565 109.286 58.4565 112.158C57.6759 112.159 56.8965 112.162 56.1159 112.163C56.1146 108.648 56.1328 105.132 56.1042 101.618C56.0834 99.042 57.9634 96.3638 60.4524 95.3987C61.2837 95.077 62.1515 94.9801 63.0077 94.8031C63.3498 94.8393 63.6933 94.8755 64.0355 94.913Z" fill="#C0D8E4"/>
<path d="M64.0355 94.9129C63.6933 94.8768 63.3498 94.8406 63.0076 94.8031C58.9548 94.1223 56.1198 90.802 56.0365 86.6381C57.6837 86.775 58.787 85.8862 59.7315 84.7014C59.8096 86.0011 59.6418 87.3125 59.9878 88.6018C60.7581 91.4686 62.5445 93.4014 65.3287 94.4427C65.5473 94.5241 65.7984 94.5396 65.9611 94.7411C65.412 94.8638 64.8539 94.9 64.2931 94.9155C64.2072 94.9155 64.1214 94.9155 64.0342 94.9155L64.0355 94.9129Z" fill="#DB9555"/>
<path d="M84.5234 87.0631C84.5742 87.0928 84.6236 87.1225 84.6744 87.1535C84.5859 89.5178 85.3327 91.5939 86.8693 93.3936C87.4287 94.0486 88.2068 94.4465 88.8274 95.0305C88.0792 95.1338 87.3559 94.8522 86.6129 94.8897L86.6194 94.8935C86.5947 94.7101 86.4581 94.7734 86.3501 94.776C85.7464 94.5098 85.1427 94.245 84.5377 93.9789C83.8313 93.3884 83.048 92.8975 82.4404 92.1818C81.6468 91.249 81.1159 90.1857 80.6697 89.0669C80.4563 88.107 80.3132 87.1393 80.386 86.1523C80.4016 85.9507 80.2845 85.6769 80.4992 85.567C80.6801 85.4753 80.831 85.713 80.9884 85.8086C82.08 86.4688 83.2132 87.0076 84.5208 87.0644L84.5234 87.0631Z" fill="#DB9555"/>
<path d="M97.2921 86.6523C97.296 84.3591 96.3853 82.4289 94.9047 80.7275C95.1324 80.0311 95.5422 79.4368 95.9533 78.8373C96.6533 77.818 97.5133 77.2121 98.8183 77.6178L98.8131 77.6152C98.8521 77.7121 98.895 77.7108 98.9432 77.6203C100.678 79.8089 100.882 82.2713 99.4805 84.6472C98.964 85.5231 98.2289 86.2053 97.2934 86.6536L97.2921 86.6523Z" fill="#E4E4E4"/>
<path d="M93.3578 109.853C93.3279 109.843 93.298 109.834 93.268 109.826C93.082 108.279 92.732 106.761 92.4484 105.232C93.5413 105.096 94.6225 104.717 95.7349 105.14C96.8226 105.553 97.5811 106.263 97.9012 107.396C97.801 107.557 97.6969 107.717 97.5993 107.881C97.0516 108.799 96.2397 109.359 95.1988 109.573C94.5912 109.698 93.9719 109.761 93.3565 109.853H93.3578Z" fill="#F7BF88"/>
<path d="M98.8183 77.6178C97.512 77.2121 96.652 77.818 95.9534 78.8374C95.5422 79.4355 95.1324 80.0298 94.9047 80.7275C94.5976 80.5195 94.3817 80.1887 94.0109 80.066C94.2542 78.5777 93.9107 77.1397 93.6296 75.6967C95.4303 75.5209 97.0554 75.9344 98.4501 77.1178C98.6153 77.2573 98.8027 77.3723 98.8183 77.6178Z" fill="#CBCBCA"/>
<path d="M93.3577 109.853C93.9718 109.761 94.5924 109.698 95.2 109.573C96.2408 109.358 97.0527 108.799 97.6005 107.881C97.698 107.717 97.8008 107.558 97.9023 107.396C98.2874 108.273 98.0272 109.117 97.7683 109.961C97.1594 111.005 96.2291 111.604 95.0712 111.888C94.608 111.927 94.1448 111.967 93.6816 112.007C93.5736 111.288 93.4657 110.57 93.3577 109.853Z" fill="#DB9555"/>
<path d="M56.0804 80.566C56.1205 80.6616 56.1218 80.7507 56.0404 80.8257C56.0055 80.7314 56.0107 80.6435 56.0804 80.566Z" fill="#DB9555"/>
<path d="M98.941 77.6204C98.8945 77.7108 98.8518 77.7121 98.8118 77.6152C98.8544 77.6165 98.897 77.6191 98.941 77.6204Z" fill="#CBCBCA"/>
<path d="M58.4397 112.195C60.4863 112.186 62.5329 112.178 64.5794 112.169C65.4733 113.208 66.5727 113.755 67.9778 113.579C68.6544 113.494 69.331 113.41 70.0075 113.324C69.7096 115.331 68.6622 116.873 66.9942 117.993C66.5974 118.26 66.4829 118.526 66.4842 118.978C66.4998 124.708 66.4868 130.439 66.4985 136.168C66.5024 137.879 65.7777 139.08 64.1553 139.715C63.9823 139.361 63.562 139.338 63.307 139.087C62.4977 138.296 62.0892 137.347 62.0892 136.219C62.0905 130.474 62.084 124.73 62.1009 118.984C62.1022 118.504 61.9682 118.217 61.5558 117.943C59.4988 116.583 58.5958 114.583 58.4397 112.194V112.195Z" fill="#5D5E70"/>
<path d="M70.0075 113.326C69.3309 113.411 68.6544 113.495 67.9778 113.58C66.574 113.756 65.4733 113.209 64.5794 112.171C63.8105 111.129 63.039 110.089 62.2739 109.045C62.1399 108.863 61.9357 108.708 61.9773 108.438C62.3273 108.29 62.6109 108.053 62.8711 107.785C62.9141 107.782 62.957 107.785 62.9999 107.788C63.6101 108.588 64.2073 109.398 64.8331 110.185C65.6814 111.251 66.8459 111.551 68.134 111.376C70.3432 111.079 72.5381 110.669 74.7525 110.416C76.293 110.241 77.3546 109.516 78.0351 108.172C78.696 110.2 77.369 111.946 75.7517 112.414C75.6086 112.455 75.4668 112.504 75.325 112.549C73.5438 112.746 71.7692 112.983 70.0088 113.324L70.0075 113.326Z" fill="#DB9555"/>
<path d="M86.3502 94.7734C86.4575 94.7721 86.5918 94.7075 86.6176 94.891C86.5014 94.9142 86.4096 94.8793 86.3502 94.7734Z" fill="#FEFEFE"/>
<path d="M70.109 84.4146C70.109 84.7363 70.1351 85.0593 70.1038 85.3784C70.0466 85.9482 69.6016 86.3603 69.0877 86.359C68.5386 86.359 68.0924 85.9249 68.069 85.3203C68.0455 84.7002 68.0455 84.0775 68.069 83.456C68.0911 82.8424 68.5243 82.4186 69.0812 82.4134C69.5977 82.4096 70.0479 82.8178 70.1038 83.3863C70.1377 83.726 70.1103 84.071 70.1103 84.4134L70.109 84.4146Z" fill="#414250"/>
<path d="M66.7393 84.3785C66.7393 84.7208 66.7679 85.0671 66.7328 85.4056C66.6742 85.965 66.2045 86.3745 65.6945 86.359C65.1741 86.3435 64.7291 85.9236 64.7031 85.3565C64.6732 84.7157 64.6745 84.071 64.7031 83.4302C64.7291 82.8359 65.204 82.3992 65.7453 82.4134C66.2683 82.4276 66.6924 82.8385 66.7406 83.4147C66.7679 83.7338 66.7458 84.0568 66.7458 84.3772C66.7445 84.3772 66.7432 84.3772 66.7419 84.3772L66.7393 84.3785Z" fill="#414250"/>
<path d="M62.8697 107.786C62.6095 108.055 62.3258 108.291 61.9758 108.44C61.2694 107.918 60.8907 107.126 60.3534 106.464C60.0789 106.127 60.533 106.027 60.7138 105.852C60.9285 105.642 61.164 105.446 61.4151 105.769C61.9238 106.424 62.5028 107.03 62.8684 107.786H62.8697Z" fill="#C0D8E4"/>
<path d="M95.1818 88.7607C95.1193 88.9778 95.0595 89.3447 94.9086 89.6677C94.6809 90.1534 94.2515 90.3511 93.7298 90.1974C93.2133 90.0462 92.9466 89.6625 92.9986 89.1276C93.0285 88.8124 93.1248 88.4972 93.238 88.1987C93.4436 87.66 93.8768 87.4378 94.4259 87.5696C94.9463 87.6949 95.2039 88.0747 95.1831 88.7594L95.1818 88.7607Z" fill="#414250"/>
<path d="M91.0118 89.4842C90.4393 89.4791 89.9956 89.0282 89.9995 88.4559C90.0073 87.505 90.5044 86.7918 91.1692 86.7802C91.7625 86.7699 92.2127 87.2389 92.1996 87.8538C92.1775 88.8525 91.713 89.4907 91.0118 89.4842Z" fill="#414250"/>
</g>
<path d="M100.573 48.8423C99.3382 50.0982 97.5301 50.4211 95.989 49.816C96.2383 50.2646 96.5503 50.6894 96.9265 51.0718C99.1441 53.3265 102.725 53.3442 104.925 51.1081C107.124 48.872 107.108 45.2322 104.889 42.9761C103.278 41.3378 100.949 40.8826 98.953 41.6109C99.5338 41.8252 100.08 42.1686 100.548 42.6438C102.239 44.3634 102.25 47.138 100.575 48.8409L100.573 48.8423Z" fill="#FFD367"/>
<path d="M88.9602 39.9331C91.4792 39.9331 93.5212 37.857 93.5212 35.2959C93.5212 32.7349 91.4792 30.6588 88.9602 30.6588C86.4413 30.6588 84.3993 32.7349 84.3993 35.2959C84.3993 37.857 86.4413 39.9331 88.9602 39.9331Z" fill="#D82700"/>
<path d="M88.9595 30.0974C88.5794 30.0974 88.2722 29.7851 88.2722 29.3986V29.1111C88.2722 28.7246 88.5794 28.4123 88.9595 28.4123C89.3395 28.4123 89.6467 28.7246 89.6467 29.1111V29.3986C89.6467 29.7828 89.3395 30.0974 88.9595 30.0974Z" fill="#D82700"/>
<path d="M88.9595 42.1778C88.5794 42.1778 88.2722 41.8655 88.2722 41.4791V41.1915C88.2722 40.8073 88.5794 40.4928 88.9595 40.4928C89.3395 40.4928 89.6467 40.8051 89.6467 41.1915V41.4791C89.6467 41.8633 89.3395 42.1778 88.9595 42.1778Z" fill="#D82700"/>
<path d="M95.0414 35.9927H94.7585C94.3807 35.9927 94.0713 35.6804 94.0713 35.294C94.0713 34.9076 94.3784 34.5953 94.7585 34.5953H95.0414C95.4215 34.5953 95.7286 34.9076 95.7286 35.294C95.7286 35.6804 95.4215 35.9927 95.0414 35.9927Z" fill="#D82700"/>
<path d="M83.1614 35.9927H82.8785C82.4984 35.9927 82.1913 35.6804 82.1913 35.294C82.1913 34.9076 82.4984 34.5953 82.8785 34.5953H83.1614C83.5392 34.5953 83.8486 34.9076 83.8486 35.294C83.8486 35.6804 83.5414 35.9927 83.1614 35.9927Z" fill="#D82700"/>
<path d="M86.0608 30.8881C85.8244 30.8881 85.5924 30.7623 85.4664 30.5399L85.325 30.2905C85.135 29.9558 85.2477 29.5311 85.5769 29.3379C85.9062 29.1447 86.3238 29.2593 86.5139 29.594L86.6553 29.8434C86.8453 30.1782 86.7326 30.6028 86.4034 30.796C86.2951 30.8589 86.178 30.8904 86.0608 30.8904V30.8881Z" fill="#D82700"/>
<path d="M92.001 41.3489C91.7646 41.3489 91.5326 41.2231 91.4066 41.0007L91.2652 40.7513C91.0751 40.4166 91.1878 39.9919 91.5171 39.7987C91.8464 39.6055 92.264 39.7201 92.454 40.0548L92.5955 40.3042C92.7855 40.639 92.6728 41.0636 92.3435 41.2568C92.2353 41.3197 92.1182 41.3512 92.001 41.3512V41.3489Z" fill="#D82700"/>
<path d="M93.9824 33.0449C93.746 33.0449 93.5139 32.9191 93.388 32.6967C93.1979 32.3619 93.3106 31.9373 93.6399 31.7441L93.8852 31.6003C94.2144 31.4071 94.6321 31.5216 94.8221 31.8564C95.0122 32.1912 94.8995 32.6158 94.5702 32.809L94.3249 32.9528C94.2166 33.0157 94.0995 33.0471 93.9824 33.0471V33.0449Z" fill="#D82700"/>
<path d="M83.6942 39.0867C83.4578 39.0867 83.2257 38.9609 83.0998 38.7384C82.9097 38.4037 83.0224 37.9791 83.3517 37.7858L83.597 37.6421C83.9262 37.4488 84.3461 37.5634 84.5339 37.8982C84.724 38.2329 84.6113 38.6576 84.282 38.8508L84.0367 38.9946C83.9284 39.0575 83.8113 39.0889 83.6942 39.0889V39.0867Z" fill="#D82700"/>
<path d="M83.9369 33.0447C83.8198 33.0447 83.7027 33.0155 83.5944 32.9503L83.3491 32.8065C83.0221 32.6133 82.9094 32.1864 83.0972 31.8539C83.2873 31.5192 83.7071 31.4068 84.0342 31.5978L84.2794 31.7416C84.6065 31.9348 84.7192 32.3617 84.5313 32.6942C84.4032 32.9188 84.1734 33.0424 83.9369 33.0424V33.0447Z" fill="#D82700"/>
<path d="M94.2256 39.0862C94.1085 39.0862 93.9914 39.057 93.8831 38.9918L93.6378 38.848C93.3086 38.6548 93.1959 38.228 93.3859 37.8954C93.576 37.5607 93.9936 37.4461 94.3228 37.6393L94.5681 37.7831C94.8974 37.9763 95.0101 38.4032 94.82 38.7357C94.6919 38.9604 94.4621 39.0839 94.2256 39.0839V39.0862Z" fill="#D82700"/>
<path d="M91.8588 30.8878C91.7417 30.8878 91.6246 30.8586 91.5163 30.7935C91.1893 30.6002 91.0766 30.1734 91.2666 29.8409L91.408 29.5915C91.5981 29.2567 92.0179 29.1444 92.345 29.3376C92.672 29.5308 92.7847 29.9577 92.5947 30.2902L92.4532 30.5396C92.3251 30.7643 92.0953 30.8878 91.8588 30.8878Z" fill="#D82700"/>
<path d="M85.917 41.3486C85.7999 41.3486 85.6827 41.3194 85.5745 41.2542C85.2452 41.061 85.1347 40.6341 85.3226 40.3016L85.464 40.0522C85.654 39.7197 86.0717 39.6029 86.4009 39.7961C86.7302 39.9893 86.8407 40.4162 86.6528 40.7487L86.5114 40.9981C86.3832 41.2227 86.1534 41.3463 85.917 41.3463V41.3486Z" fill="#D82700"/>
</g>
<path d="M72.8231 141.715V138.733" stroke="#A35D54" stroke-width="0.410959" stroke-miterlimit="10"/>
<path d="M65.8667 141.343L66.172 138.378" stroke="#A35D54" stroke-width="0.410959" stroke-miterlimit="10"/>
<path d="M58.9851 140.234L59.5957 137.32" stroke="#A35D54" stroke-width="0.410959" stroke-miterlimit="10"/>
<path d="M52.256 138.402L53.1619 135.566" stroke="#A35D54" stroke-width="0.410959" stroke-miterlimit="10"/>
<path d="M45.7518 135.864L46.945 133.139" stroke="#A35D54" stroke-width="0.410959" stroke-miterlimit="10"/>
<path d="M39.543 132.647L41.0093 130.066" stroke="#A35D54" stroke-width="0.410959" stroke-miterlimit="10"/>
<path d="M33.7019 128.789L35.4253 126.377" stroke="#A35D54" stroke-width="0.410959" stroke-miterlimit="10"/>
<path d="M28.2866 124.331L30.2491 122.115" stroke="#A35D54" stroke-width="0.410959" stroke-miterlimit="10"/>
<path d="M23.3611 119.323L25.5385 117.328" stroke="#A35D54" stroke-width="0.410959" stroke-miterlimit="10"/>
<path d="M18.9761 113.817L21.3483 112.065" stroke="#A35D54" stroke-width="0.410959" stroke-miterlimit="10"/>
<path d="M15.182 107.876L17.721 106.388" stroke="#A35D54" stroke-width="0.410959" stroke-miterlimit="10"/>
<path d="M12.0183 101.566L14.6979 100.353" stroke="#A35D54" stroke-width="0.410959" stroke-miterlimit="10"/>
<path d="M9.52124 94.9532L12.3113 94.0321" stroke="#A35D54" stroke-width="0.410959" stroke-miterlimit="10"/>
<path d="M7.71973 88.1116L10.5861 87.4907" stroke="#A35D54" stroke-width="0.410959" stroke-miterlimit="10"/>
<path d="M6.62891 81.1147L9.54551 80.8042" stroke="#A35D54" stroke-width="0.410959" stroke-miterlimit="10"/>
<path d="M6.26331 74.0402H9.19597" stroke="#A35D54" stroke-width="0.410959" stroke-miterlimit="10"/>
<path d="M6.62891 66.968L9.54551 67.2784" stroke="#A35D54" stroke-width="0.410959" stroke-miterlimit="10"/>
<path d="M7.71973 59.9712L10.5861 60.5921" stroke="#A35D54" stroke-width="0.410959" stroke-miterlimit="10"/>
<path d="M9.52124 53.1295L12.3113 54.0506" stroke="#A35D54" stroke-width="0.410959" stroke-miterlimit="10"/>
<path d="M12.0183 46.5167L14.6979 47.7298" stroke="#A35D54" stroke-width="0.410959" stroke-miterlimit="10"/>
<path d="M15.182 40.2062L17.721 41.695" stroke="#A35D54" stroke-width="0.410959" stroke-miterlimit="10"/>
<path d="M18.9761 34.2652L21.3483 36.0175" stroke="#A35D54" stroke-width="0.410959" stroke-miterlimit="10"/>
<path d="M23.3611 28.7592L25.5385 30.7545" stroke="#A35D54" stroke-width="0.410959" stroke-miterlimit="10"/>
<path d="M28.2866 23.7516L30.2491 25.9655" stroke="#A35D54" stroke-width="0.410959" stroke-miterlimit="10"/>
<path d="M33.7019 19.2934L35.4253 21.7054" stroke="#A35D54" stroke-width="0.410959" stroke-miterlimit="10"/>
<path d="M39.543 15.4355L41.0093 18.0169" stroke="#A35D54" stroke-width="0.410959" stroke-miterlimit="10"/>
<path d="M45.7518 12.2189L46.943 14.9433" stroke="#A35D54" stroke-width="0.410959" stroke-miterlimit="10"/>
<path d="M52.256 9.68056L53.1619 12.5173" stroke="#A35D54" stroke-width="0.410959" stroke-miterlimit="10"/>
<path d="M58.9851 7.84847L59.5957 10.7648" stroke="#A35D54" stroke-width="0.410959" stroke-miterlimit="10"/>
<path d="M65.8667 6.73964L66.172 9.705" stroke="#A35D54" stroke-width="0.410959" stroke-miterlimit="10"/>
<path d="M72.8231 6.36792V9.34962" stroke="#A35D54" stroke-width="0.410959" stroke-miterlimit="10"/>
<path d="M79.7808 6.73964L79.4735 9.705" stroke="#A35D54" stroke-width="0.410959" stroke-miterlimit="10"/>
<path d="M86.6624 7.84847L86.0518 10.7628" stroke="#A35D54" stroke-width="0.410959" stroke-miterlimit="10"/>
<path d="M93.3915 9.68056L92.4856 12.5173" stroke="#A35D54" stroke-width="0.410959" stroke-miterlimit="10"/>
<path d="M99.8957 12.2189L98.7025 14.9433" stroke="#A35D54" stroke-width="0.410959" stroke-miterlimit="10"/>
<path d="M106.103 15.4355L104.638 18.0169" stroke="#A35D54" stroke-width="0.410959" stroke-miterlimit="10"/>
<path d="M111.946 19.2934L110.222 21.7054" stroke="#A35D54" stroke-width="0.410959" stroke-miterlimit="10"/>
<path d="M117.361 23.7516L115.399 25.9655" stroke="#A35D54" stroke-width="0.410959" stroke-miterlimit="10"/>
<path d="M122.286 28.7592L120.107 30.7545" stroke="#A35D54" stroke-width="0.410959" stroke-miterlimit="10"/>
<path d="M126.671 34.2652L124.299 36.0175" stroke="#A35D54" stroke-width="0.410959" stroke-miterlimit="10"/>
<path d="M130.466 40.2042L127.927 41.695" stroke="#A35D54" stroke-width="0.410959" stroke-miterlimit="10"/>
<path d="M133.63 46.5167L130.95 47.7278" stroke="#A35D54" stroke-width="0.410959" stroke-miterlimit="10"/>
<path d="M136.126 53.1295L133.336 54.0506" stroke="#A35D54" stroke-width="0.410959" stroke-miterlimit="10"/>
<path d="M137.928 59.9712L135.06 60.5921" stroke="#A35D54" stroke-width="0.410959" stroke-miterlimit="10"/>
<path d="M139.019 66.968L136.102 67.2784" stroke="#A35D54" stroke-width="0.410959" stroke-miterlimit="10"/>
<path d="M139.382 74.0402H136.452" stroke="#A35D54" stroke-width="0.410959" stroke-miterlimit="10"/>
<path d="M139.019 81.1147L136.102 80.8042" stroke="#A35D54" stroke-width="0.410959" stroke-miterlimit="10"/>
<path d="M137.928 88.1116L135.062 87.4907" stroke="#A35D54" stroke-width="0.410959" stroke-miterlimit="10"/>
<path d="M136.126 94.9532L133.336 94.0321" stroke="#A35D54" stroke-width="0.410959" stroke-miterlimit="10"/>
<path d="M133.63 101.566L130.95 100.353" stroke="#A35D54" stroke-width="0.410959" stroke-miterlimit="10"/>
<path d="M130.466 107.876L127.927 106.388" stroke="#A35D54" stroke-width="0.410959" stroke-miterlimit="10"/>
<path d="M126.671 113.817L124.299 112.065" stroke="#A35D54" stroke-width="0.410959" stroke-miterlimit="10"/>
<path d="M122.286 119.323L120.107 117.328" stroke="#A35D54" stroke-width="0.410959" stroke-miterlimit="10"/>
<path d="M117.361 124.331L115.399 122.115" stroke="#A35D54" stroke-width="0.410959" stroke-miterlimit="10"/>
<path d="M111.946 128.789L110.222 126.377" stroke="#A35D54" stroke-width="0.410959" stroke-miterlimit="10"/>
<path d="M106.103 132.647L104.638 130.066" stroke="#A35D54" stroke-width="0.410959" stroke-miterlimit="10"/>
<path d="M99.8957 135.864L98.7025 133.139" stroke="#A35D54" stroke-width="0.410959" stroke-miterlimit="10"/>
<path d="M93.3915 138.402L92.4856 135.566" stroke="#A35D54" stroke-width="0.410959" stroke-miterlimit="10"/>
<path d="M86.6624 140.234L86.0518 137.318" stroke="#A35D54" stroke-width="0.410959" stroke-miterlimit="10"/>
<path d="M79.7809 141.343L79.4756 138.378" stroke="#A35D54" stroke-width="0.410959" stroke-miterlimit="10"/>
<path d="M72.8229 144.941V137.996" stroke="#A35D54" stroke-width="0.821918" stroke-miterlimit="10"/>
<path d="M37.9559 135.443L41.3707 129.428" stroke="#A35D54" stroke-width="0.821918" stroke-miterlimit="10"/>
<path d="M12.4319 109.492L18.3474 106.018" stroke="#A35D54" stroke-width="0.821918" stroke-miterlimit="10"/>
<path d="M3.08948 74.0401H9.92099" stroke="#A35D54" stroke-width="0.821918" stroke-miterlimit="10"/>
<path d="M12.4319 38.5928L18.3474 42.0646" stroke="#A35D54" stroke-width="0.821918" stroke-miterlimit="10"/>
<path d="M37.9559 12.6397L41.3707 18.6542" stroke="#A35D54" stroke-width="0.821918" stroke-miterlimit="10"/>
<path d="M72.8229 3.14111V10.0868" stroke="#A35D54" stroke-width="0.821918" stroke-miterlimit="10"/>
<path d="M107.689 12.6418L104.274 18.6542" stroke="#A35D54" stroke-width="0.821918" stroke-miterlimit="10"/>
<path d="M133.213 38.5907L127.3 42.0646" stroke="#A35D54" stroke-width="0.821918" stroke-miterlimit="10"/>
<path d="M142.556 74.0401H135.726" stroke="#A35D54" stroke-width="0.821918" stroke-miterlimit="10"/>
<path d="M133.215 109.492L127.3 106.018" stroke="#A35D54" stroke-width="0.821918" stroke-miterlimit="10"/>
<path d="M107.691 135.443L104.274 129.428" stroke="#A35D54" stroke-width="0.821918" stroke-miterlimit="10"/>
<path d="M74.369 75.921L74.6663 18.5335L77.9002 18.7091L72.8123 9.83139L66.8184 18.1046L70.6348 18.3129L71.1671 75.9292L74.369 75.921Z" fill="#DB5700"/>
<path d="M75.8973 73.2157L27.9042 46.197L29.6038 43.3936L19.7177 43.7942L23.783 52.9973L25.7882 49.6909L74.3686 76.0737L75.8973 73.2157Z" fill="#DB5700"/>
<path d="M74.2116 77.4915C76.088 76.6241 76.9175 74.3744 76.0643 72.4667C75.2112 70.559 72.9985 69.7156 71.1222 70.583C69.2458 71.4504 68.4163 73.7001 69.2695 75.6078C70.1226 77.5155 72.3353 78.3589 74.2116 77.4915Z" fill="#C62828"/>
</g>
<defs>
<linearGradient id="paint0_linear_1313_901" x1="47.8191" y1="33.0165" x2="108.133" y2="117.431" gradientUnits="userSpaceOnUse">
<stop stop-color="#FF8120"/>
<stop offset="1" stop-color="#E54304"/>
</linearGradient>
<clipPath id="clip0_1313_901">
<rect width="150" height="150" fill="white"/>
</clipPath>
<clipPath id="clip1_1313_901">
<rect width="61.875" height="66" fill="white" transform="translate(47.8125 73.875)"/>
</clipPath>
</defs>
</svg>
