<svg width="320" height="162" viewBox="0 0 320 162" fill="none" xmlns="http://www.w3.org/2000/svg">
<g clip-path="url(#clip0_4671_41494)">
<path d="M265.567 22.0002H55.381C51.2903 22.0002 47.9742 24.8381 47.9742 28.3388V155.662C47.9742 159.162 51.2903 162 55.381 162H265.567C269.658 162 272.974 159.162 272.974 155.662V28.3388C272.974 24.8381 269.658 22.0002 265.567 22.0002Z" fill="#EDE6DF"/>
<path d="M263.06 30.1541C262.97 30.6231 262.784 31.074 262.664 31.531C262.543 31.988 262.507 32.481 262.357 32.932C262.207 33.383 261.906 33.7798 261.725 34.2248C261.545 34.6697 261.383 35.1087 261.178 35.5416C260.974 35.9745 260.836 36.4375 260.607 36.8524C260.379 37.2673 260.066 37.6401 259.807 38.0369C259.549 38.4338 259.332 38.8667 259.05 39.2515C258.767 39.6363 258.503 40.0392 258.202 40.406C257.901 40.7728 257.474 41.0373 257.15 41.3801C256.825 41.7228 256.518 42.0956 256.17 42.4143C255.821 42.733 255.454 43.0396 255.081 43.3403C254.708 43.6409 254.312 43.8995 253.927 44.1761C253.542 44.4526 253.211 44.8254 252.808 45.078C252.406 45.3305 251.967 45.5229 251.546 45.7514C251.125 45.9799 250.722 46.2324 250.289 46.4309C249.856 46.6293 249.393 46.7556 248.948 46.9299C248.503 47.1043 248.052 47.2426 247.595 47.3869C247.138 47.5312 246.705 47.7477 246.248 47.8619C245.791 47.9762 245.316 48.0664 244.847 48.1506C244.378 48.2347 243.909 48.3069 243.434 48.367C242.959 48.4271 242.484 48.4572 242.009 48.4813C241.534 48.5053 241.059 48.5113 240.578 48.5113C240.097 48.5113 239.634 48.3851 239.159 48.349C238.684 48.3129 238.203 48.3851 237.728 48.3189C237.253 48.2528 236.784 48.2047 236.309 48.1145C235.834 48.0243 235.395 47.8078 234.938 47.6876C234.481 47.5673 234.036 47.3869 233.585 47.2366C233.134 47.0863 232.629 47.0682 232.19 46.8939C231.751 46.7195 231.355 46.4188 230.928 46.2144C230.501 46.01 230.092 45.7634 229.677 45.535C229.262 45.3065 228.781 45.1802 228.378 44.9216C227.975 44.6631 227.603 44.3624 227.218 44.0798C226.833 43.7972 226.454 43.5086 226.087 43.202C225.721 42.8953 225.396 42.5466 225.053 42.2159C224.71 41.8852 224.374 41.5544 224.049 41.2057C223.724 40.857 223.46 40.4601 223.159 40.0873C222.858 39.7145 222.498 39.3958 222.221 39.011C221.944 38.6262 221.71 38.2053 221.457 37.8024C221.205 37.3996 220.928 37.0087 220.706 36.5878C220.483 36.1669 220.255 35.746 220.056 35.3131C219.858 34.8802 219.756 34.4112 219.581 33.9662C219.407 33.5213 219.136 33.1124 218.992 32.6614C218.848 32.2105 218.716 31.7475 218.595 31.2845C218.475 30.8215 218.391 30.3525 218.307 29.8835C218.222 29.4145 218.126 28.9455 218.066 28.4705C218.006 27.9954 218.084 27.5144 218.054 27.0394C218.03 26.5644 218 26.0954 218 25.6144C218 25.1333 218.054 24.6703 218.09 24.1893C218.126 23.7143 218.072 23.2333 218.138 22.7583C218.204 22.2832 218.259 21.8142 218.355 21.3452C218.451 20.8762 218.643 20.4313 218.758 19.9743C218.872 19.5173 218.992 19.0483 219.142 18.5974C219.293 18.1464 219.527 17.7255 219.702 17.2865C219.882 16.8416 219.984 16.3726 220.189 15.9457C220.393 15.5188 220.664 15.1219 220.898 14.707C221.133 14.2921 221.313 13.8412 221.566 13.4443C221.818 13.0475 222.179 12.7108 222.456 12.3259C222.738 11.9411 223.033 11.5743 223.339 11.2076C223.646 10.8408 223.917 10.4499 224.247 10.1072C224.578 9.76446 224.909 9.42173 225.258 9.09704C225.606 8.77234 225.919 8.39955 226.286 8.0989C226.653 7.79826 227.031 7.50363 227.422 7.22704C227.813 6.95045 228.204 6.67386 228.607 6.42132C229.01 6.16878 229.442 5.95231 229.857 5.72984C230.272 5.50736 230.705 5.28489 231.138 5.08646C231.571 4.88804 232.004 4.6836 232.449 4.50923C232.894 4.33485 233.357 4.22061 233.814 4.0763C234.271 3.93199 234.734 3.82977 235.197 3.71553C235.66 3.60129 236.135 3.55318 236.604 3.469C237.073 3.38482 237.53 3.25855 238.005 3.19842C238.48 3.1383 238.949 3.06614 239.424 3.04209C239.899 3.01804 240.374 3 240.855 3C241.336 3 241.805 3 242.286 3.03608C242.767 3.07215 243.218 3.2345 243.693 3.30064C244.168 3.36678 244.643 3.36678 245.112 3.45698C245.581 3.54717 246.032 3.72154 246.489 3.8418C246.946 3.96206 247.439 3.99212 247.89 4.13643C248.341 4.28074 248.792 4.45511 249.231 4.62948C249.67 4.80386 250.127 4.97823 250.554 5.18267C250.981 5.3871 251.401 5.62762 251.816 5.86212C252.231 6.09662 252.586 6.43334 252.983 6.69189C253.38 6.95045 253.795 7.19096 254.179 7.47357C254.564 7.75617 254.955 8.03276 255.316 8.33942C255.677 8.64607 256.007 8.99482 256.35 9.32553C256.693 9.65623 257.078 9.94485 257.402 10.2936C257.727 10.6423 258.04 11.0031 258.34 11.3699C258.641 11.7367 258.899 12.1395 259.176 12.5304C259.453 12.9212 259.663 13.3481 259.916 13.751C260.168 14.1539 260.547 14.4846 260.769 14.9055C260.992 15.3264 261.13 15.7893 261.329 16.2223C261.527 16.6552 261.677 17.1062 261.852 17.5511C262.026 17.9961 262.231 18.423 262.375 18.88C262.519 19.3369 262.621 19.7999 262.742 20.2629C262.856 20.7259 262.94 21.1889 263.024 21.6579C263.108 22.1269 263.193 22.5899 263.247 23.0649C263.301 23.5399 263.409 24.0029 263.433 24.4839C263.457 24.965 263.421 25.434 263.421 25.915C263.421 26.396 263.481 26.871 263.445 27.3461C263.409 27.8211 263.301 28.2901 263.241 28.7651C263.181 29.2401 263.145 29.7151 263.054 30.1841L263.06 30.1541Z" fill="#97928C"/>
<path d="M226.526 37.4657C226.256 38.1512 226.322 38.1752 226.051 38.8667C225.781 39.5522 225.829 39.5702 225.558 40.2557C225.288 40.9411 225.306 40.9471 225.035 41.6326C224.764 42.3181 224.795 42.3301 224.524 43.0156C224.253 43.701 224.205 43.683 223.935 44.3685C223.664 45.0539 223.628 45.0419 223.357 45.7274C223.177 46.1843 222.999 46.6433 222.822 47.1043C222.552 47.7898 222.546 47.7898 222.275 48.4752C222.005 49.1667 221.993 49.1607 221.722 49.8462C221.451 50.5377 221.505 50.5557 221.241 51.2472C221.012 51.8785 221.229 52.4978 221.68 52.8045C222.131 53.1112 222.78 53.0631 223.279 52.6181C223.802 52.1491 223.826 52.1731 224.35 51.7041C224.873 51.2351 224.897 51.2592 225.426 50.7842C225.949 50.3152 225.973 50.3392 226.502 49.8702C227.031 49.4012 226.947 49.305 227.47 48.83C227.993 48.355 228.047 48.4151 228.577 47.9461C229.106 47.4771 229.058 47.423 229.581 46.948C230.104 46.473 230.158 46.5331 230.687 46.0581C231.216 45.5831 231.144 45.5049 231.673 45.0359C232.202 44.5609 232.299 44.6751 232.828 44.2001" fill="#97928C"/>
<path d="M242.929 14.9295C243.446 15.0317 243.927 15.152 244.384 15.3083C244.883 15.4827 245.401 15.5608 245.821 15.7953C246.206 16.0118 246.495 16.3545 246.808 16.6071C247.15 16.8837 247.493 17.1362 247.752 17.4609C247.998 17.7736 248.269 18.0742 248.437 18.423C248.605 18.7717 248.756 19.1505 248.846 19.5353C248.942 19.9322 248.972 20.3531 248.972 20.774C248.972 21.1708 248.882 21.5797 248.798 22.0006C248.768 22.1569 248.732 22.1509 248.702 22.3073C248.599 22.8304 248.437 23.2994 248.221 23.7263C248.004 24.1532 247.704 24.544 247.331 24.9349C246.958 25.3317 246.585 25.8248 246.038 26.2156C245.749 26.4261 245.389 26.5824 245.046 26.8049C244.739 27.0033 244.451 27.2619 244.102 27.4723C243.458 27.8692 242.869 28.1217 242.46 28.4223C242.051 28.723 241.703 28.9936 241.474 29.2641C241.246 29.5347 241.065 29.8354 240.957 30.118C240.849 30.4006 240.873 30.7553 240.807 31.1161C240.729 31.5129 240.446 31.7294 240.109 31.8797C239.773 32.0301 239.454 32.0601 239.075 31.988C238.678 31.9098 238.372 31.7655 238.107 31.5069C237.842 31.2484 237.704 30.9237 237.794 30.4607C237.897 29.9376 238.053 29.4686 238.197 29.0417C238.348 28.6147 238.564 28.2239 238.847 27.8571C239.129 27.4843 239.508 27.1416 239.971 26.7748C240.434 26.408 241.011 26.0052 241.727 25.5783C242.436 25.1754 243.007 24.7785 243.476 24.4538C243.945 24.1292 244.348 23.8526 244.637 23.5639C244.926 23.2693 245.142 22.9747 245.28 22.6981C245.425 22.4215 245.563 22.1028 245.629 21.7421C245.653 21.6338 245.629 21.6278 245.653 21.5196C245.737 21.0806 245.623 20.6718 245.539 20.2749C245.449 19.8721 245.401 19.4451 245.136 19.0844C244.841 18.6875 244.39 18.3749 243.855 18.1163C243.428 17.9119 242.923 17.7134 242.334 17.5932C241.889 17.503 241.456 17.4609 241.053 17.4549C240.602 17.4429 240.193 17.6112 239.797 17.6954C239.418 17.7796 239.027 17.7976 238.666 17.9299C238.305 18.0622 237.975 18.2546 237.632 18.441C237.271 18.6094 236.922 18.6154 236.598 18.4891C236.273 18.3628 235.996 18.1223 235.804 17.7615C235.63 17.4248 235.546 17.04 235.624 16.6792C235.708 16.3124 235.96 15.9817 236.327 15.7953C236.76 15.5488 237.277 15.4225 237.788 15.2422C238.257 15.0798 238.75 14.9235 239.286 14.8152C239.676 14.7371 240.079 14.6349 240.5 14.6108C240.921 14.5867 241.306 14.689 241.727 14.725C242.124 14.7611 242.514 14.8573 242.929 14.9355V14.9295ZM238.51 34.6937C239.117 34.814 239.538 35.0726 239.851 35.5355C240.163 35.9985 240.386 36.5036 240.272 37.0929C240.157 37.6821 239.767 38.079 239.298 38.4037C238.829 38.7284 238.317 38.8847 237.71 38.7645C237.103 38.6442 236.616 38.3796 236.303 37.9046C235.99 37.4296 235.876 36.8403 235.996 36.2511C236.117 35.6618 236.447 35.1808 236.916 34.8681C237.385 34.5555 237.927 34.5795 238.516 34.6998L238.51 34.6937Z" fill="white"/>
<path d="M211.432 104.93C211.293 104.546 211.049 104.199 210.904 103.816C210.759 103.433 210.681 103.023 210.531 102.645C210.381 102.267 210.267 101.868 210.111 101.49C209.956 101.111 209.712 100.769 209.552 100.391C209.391 100.013 209.246 99.6296 209.08 99.2565C208.914 98.8835 208.743 98.5104 208.567 98.1374C208.391 97.7643 208.184 97.412 208.008 97.0442C207.832 96.6763 207.718 96.2722 207.531 95.9095C207.345 95.5468 207.179 95.1686 206.987 94.8059C206.795 94.4432 206.63 94.065 206.427 93.7075C206.225 93.35 205.977 93.0184 205.775 92.6661C205.573 92.3137 205.417 91.9251 205.205 91.5728C204.992 91.2205 204.728 90.9045 204.51 90.5573C204.293 90.2102 204.096 89.8475 203.868 89.5055C203.64 89.1636 203.339 88.8734 203.106 88.5367C202.873 88.1999 202.65 87.8527 202.407 87.5263C202.163 87.1999 201.899 86.8839 201.645 86.5626C201.391 86.2414 201.117 85.9357 200.858 85.6197C200.599 85.3036 200.329 84.9927 200.065 84.687C199.801 84.3813 199.526 84.0705 199.252 83.7648C198.977 83.4591 198.708 83.1534 198.423 82.8581C198.143 82.5679 197.858 82.283 197.568 81.998C197.278 81.713 197.008 81.4125 196.708 81.1379C196.407 80.8633 196.112 80.5887 195.806 80.3245C195.5 80.0602 195.241 79.7338 194.925 79.48C194.609 79.2261 194.241 79.0396 193.915 78.7909C193.589 78.5422 193.257 78.3142 192.93 78.081C192.604 77.8479 192.319 77.537 191.982 77.309C191.646 77.0811 191.278 76.8997 190.936 76.6873C190.594 76.4749 190.267 76.221 189.915 76.0189C189.563 75.8169 189.143 75.734 188.786 75.5474C188.428 75.3609 188.065 75.1796 187.703 75.0034C187.34 74.8273 187.019 74.5475 186.651 74.3817C186.283 74.2159 185.874 74.1382 185.495 73.9879C185.117 73.8377 184.755 73.6615 184.371 73.5268C183.988 73.3921 183.594 73.2936 183.205 73.1693C183.154 73.1434 183.133 73.0501 183.081 73.0242C182.718 72.848 182.33 72.7289 181.957 72.5734C181.584 72.418 181.216 72.2626 180.838 72.1227C180.459 71.9828 180.092 71.8066 179.708 71.6875C179.325 71.5683 178.91 71.5528 178.516 71.4543C178.123 71.3559 177.75 71.2056 177.356 71.1227C176.962 71.0398 176.568 70.9569 176.169 70.8896C175.77 70.8222 175.382 70.7134 174.983 70.6512C174.584 70.5891 174.18 70.5631 173.781 70.5165C173.382 70.4699 172.978 70.4751 172.574 70.4388C172.17 70.4025 171.776 70.2885 171.372 70.2626C170.967 70.2367 170.563 70.3248 170.159 70.3093C169.755 70.2937 169.356 70.1383 168.957 70.1331C168.543 70.1227 168.123 70.1279 167.703 70.1227C167.284 70.1176 166.869 70.1797 166.449 70.1901C166.03 70.2005 165.615 70.2005 165.196 70.216C164.776 70.2316 164.367 70.3041 163.947 70.33C163.527 70.3559 163.118 70.3922 162.698 70.4284C162.279 70.4647 161.854 70.3973 161.444 70.4492C161.035 70.501 160.615 70.5631 160.206 70.6253C159.797 70.6875 159.388 70.7808 158.973 70.8585C158.559 70.9362 158.154 71.0346 157.75 71.1227C157.346 71.2108 156.937 71.3092 156.533 71.4129C156.129 71.5165 155.709 71.5735 155.31 71.6926C154.906 71.817 154.533 72.0242 154.144 72.1641C153.756 72.304 153.32 72.361 152.937 72.5165C152.554 72.6719 152.17 72.8636 151.792 73.0346C151.414 73.2055 151.051 73.4283 150.678 73.6149C150.305 73.8014 149.942 74.0138 149.58 74.2159C149.217 74.4179 148.885 74.6822 148.533 74.905C148.181 75.1278 147.787 75.2936 147.445 75.5319C147.103 75.7702 146.787 76.05 146.455 76.3039C146.124 76.5578 145.745 76.7547 145.424 77.0189C145.103 77.2831 144.797 77.5733 144.486 77.8531C144.176 78.1328 143.932 78.4852 143.632 78.7753C143.305 79.0292 142.906 79.1898 142.58 79.4437C142.253 79.6976 141.963 79.9929 141.637 80.2468C141.31 80.5006 141.015 80.7856 140.689 81.0395C140.362 81.2934 140.01 81.511 139.684 81.7597C139.357 82.0084 139.046 82.2882 138.72 82.542C138.393 82.7959 138.02 82.9876 137.694 83.2415C137.368 83.4954 137.067 83.7803 136.741 84.0342C136.414 84.2881 136.114 84.5731 135.787 84.8269C135.461 85.0808 135.145 85.3451 134.818 85.5989C134.492 85.8528 134.176 86.1222 133.855 86.3709C133.533 86.6196 133.119 86.7699 132.793 87.0238C132.466 87.2776 132.145 87.5367 131.818 87.7854C131.492 88.0341 131.207 88.345 130.881 88.5937C130.554 88.8423 130.223 89.091 129.896 89.3449C129.575 89.5936 129.218 89.7905 128.896 90.0392C128.575 90.2879 128.332 90.635 128.015 90.8837C127.699 91.1324 127.368 91.3708 127.052 91.6246C126.736 91.8785 126.425 92.1376 126.104 92.3863C125.782 92.635 125.472 92.894 125.155 93.1479C124.839 93.4018 124.523 93.6505 124.207 93.9095C123.891 94.1686 123.539 94.3758 123.228 94.6297C122.917 94.8836 122.648 95.1997 122.342 95.4587C122.036 95.7178 121.653 95.8991 121.347 96.1634C121.042 96.4276 120.793 96.7592 120.492 97.0286C120.187 97.298 119.824 97.5053 119.524 97.7799C119.223 98.0545 118.954 98.3654 118.653 98.6451C118.353 98.9249 118.088 99.2358 117.793 99.5156C117.498 99.7954 117.13 100.008 116.84 100.293C116.55 100.578 116.28 100.889 115.995 101.184C115.71 101.479 115.456 101.795 115.177 102.096C114.897 102.396 114.669 102.738 114.394 103.039C114.12 103.339 113.757 103.567 113.493 103.878C113.228 104.189 113.016 104.546 112.757 104.863C112.498 105.179 112.223 105.479 111.964 105.8C111.705 106.122 111.493 106.469 111.244 106.795C110.995 107.122 110.695 107.401 110.451 107.733C110.208 108.065 109.98 108.401 109.747 108.738C109.514 109.075 109.322 109.438 109.094 109.779C108.866 110.121 108.685 110.484 108.467 110.831C108.249 111.178 107.923 111.453 107.71 111.805C107.498 112.158 107.358 112.546 107.161 112.904C106.964 113.261 106.788 113.629 106.596 113.992C106.405 114.354 106.187 114.702 106.006 115.064C105.825 115.427 105.602 115.779 105.431 116.152C105.26 116.525 105.13 116.914 104.97 117.292C104.809 117.67 104.638 118.043 104.493 118.422C104.348 118.8 104.291 119.214 104.156 119.603C104.021 119.992 103.845 120.359 103.721 120.748C103.597 121.137 103.514 121.541 103.405 121.935C103.296 122.328 103.146 122.712 103.047 123.105C102.949 123.499 102.819 123.893 102.737 124.292C102.654 124.691 102.607 125.1 102.54 125.504C102.472 125.908 102.384 126.307 102.327 126.712C102.27 127.116 102.301 127.53 102.26 127.94C102.213 128.359 102.177 128.784 102.151 129.204C102.125 129.623 102.011 130.048 102.001 130.473C101.99 130.898 102.053 131.323 102.068 131.748C102.084 132.173 102.156 132.592 102.192 133.012C102.229 133.432 102.234 133.862 102.296 134.281C102.358 134.701 102.415 135.121 102.503 135.535C102.591 135.95 102.7 136.359 102.814 136.768C102.928 137.178 103.027 137.597 103.167 138.001C103.306 138.405 103.498 138.789 103.664 139.183C103.83 139.576 103.99 139.975 104.182 140.354C104.374 140.732 104.55 141.131 104.768 141.499C104.985 141.867 105.244 142.208 105.483 142.566C105.721 142.923 105.964 143.271 106.218 143.613C106.472 143.955 106.721 144.307 106.99 144.633C107.249 144.949 107.555 145.229 107.835 145.535C108.115 145.84 108.389 146.141 108.679 146.431C108.969 146.721 109.254 147.022 109.56 147.296C109.866 147.571 110.192 147.82 110.513 148.079C110.835 148.338 111.182 148.55 111.513 148.799C111.845 149.048 112.192 149.26 112.534 149.488C112.876 149.716 113.166 150.022 113.519 150.229C113.871 150.436 114.239 150.623 114.601 150.82C114.964 151.017 115.332 151.198 115.7 151.374C116.068 151.55 116.436 151.747 116.814 151.902C117.192 152.058 117.581 152.193 117.969 152.333C118.358 152.472 118.746 152.597 119.14 152.721C119.534 152.845 119.917 152.996 120.316 153.099C120.715 153.203 121.114 153.312 121.513 153.395C121.912 153.478 122.332 153.472 122.741 153.535C123.15 153.597 123.56 153.592 123.969 153.633C124.352 153.669 124.757 153.742 125.135 153.763C125.124 154.177 125.104 154.617 125.093 155.032C125.083 155.446 125.062 155.861 125.052 156.275C125.041 156.69 125.026 157.104 125.016 157.519C125.005 157.933 125.016 158.348 125.01 158.762C125.005 159.177 124.985 159.591 124.974 160.006C124.964 160.42 124.953 160.824 124.943 161.239C125.358 161.239 125.767 161.28 126.181 161.28C126.596 161.28 127.016 161.26 127.43 161.26C127.845 161.26 128.264 161.203 128.679 161.198C129.093 161.192 129.513 161.275 129.927 161.27C130.342 161.265 130.762 161.239 131.176 161.239C131.591 161.239 132.01 161.223 132.425 161.223C132.839 161.223 133.259 161.172 133.673 161.166C134.088 161.161 134.508 161.213 134.922 161.208C135.337 161.203 135.756 161.125 136.171 161.125C136.585 161.125 137.005 161.156 137.419 161.156C137.834 161.156 138.254 161.156 138.668 161.156C139.082 161.156 139.502 161.12 139.917 161.115C140.331 161.109 140.751 161.218 141.165 161.218C141.58 161.218 142 161.218 142.414 161.218C142.828 161.218 143.248 161.12 143.663 161.12C144.077 161.12 144.497 161.104 144.911 161.099C145.326 161.094 145.745 161.089 146.16 161.089C146.574 161.089 146.994 161.182 147.409 161.182C147.823 161.182 148.243 161.213 148.657 161.213C149.072 161.213 149.491 161.213 149.906 161.213C150.32 161.213 150.74 161.078 151.155 161.078C151.569 161.078 151.989 161.099 152.403 161.094C152.818 161.089 153.237 161.094 153.652 161.094C154.066 161.094 154.486 161.156 154.901 161.156C155.315 161.156 155.735 161.094 156.149 161.094C156.564 161.094 156.983 161.146 157.398 161.146C157.812 161.146 158.232 161.042 158.647 161.042C159.061 161.042 159.481 161.135 159.895 161.135C160.31 161.135 160.729 161.084 161.144 161.084C161.558 161.084 161.978 161.166 162.393 161.161C162.807 161.156 163.227 161.12 163.641 161.12C164.056 161.12 164.475 161.078 164.89 161.073C165.304 161.068 165.724 161.058 166.139 161.052C166.553 161.047 166.973 161.006 167.387 161.006C167.802 161.006 168.221 161.037 168.636 161.037C169.05 161.037 169.47 161.052 169.885 161.052C170.299 161.052 170.719 161.006 171.133 161.006C171.548 161.006 171.967 161.089 172.382 161.089C172.796 161.089 173.216 161.089 173.631 161.089C174.045 161.089 174.465 161.032 174.879 161.032C175.294 161.032 175.713 161.068 176.128 161.068C176.542 161.068 176.962 161.058 177.377 161.052C177.791 161.047 178.211 160.975 178.625 160.975C179.04 160.975 179.459 161.011 179.874 161.011C180.288 161.011 180.708 160.944 181.123 160.938C181.537 160.933 181.957 161.006 182.371 161.006C182.786 161.006 183.205 160.944 183.62 160.938C184.034 160.933 184.454 160.918 184.869 160.918C185.283 160.918 185.703 160.913 186.117 160.907C186.532 160.902 186.951 160.964 187.366 160.964C187.78 160.964 188.2 160.949 188.615 160.949C189.029 160.949 189.449 160.97 189.863 160.964C190.278 160.959 190.697 160.913 191.112 160.907C191.526 160.902 191.946 160.897 192.361 160.892C192.775 160.887 193.195 160.933 193.609 160.933C194.024 160.933 194.443 160.944 194.858 160.944C195.272 160.944 195.687 160.995 196.107 160.995C196.516 161.027 196.936 160.98 197.345 161.006C197.759 161.032 198.169 161.094 198.578 161.12C198.992 161.146 199.407 161.104 199.816 161.12C200.226 161.135 200.64 161.203 201.055 161.213C201.469 161.223 201.878 161.265 202.293 161.275C202.707 161.286 203.117 161.322 203.531 161.327C203.946 161.332 204.36 161.255 204.769 161.255C205.179 161.255 205.593 161.234 206.008 161.229C206.422 161.223 206.837 161.296 207.246 161.286C207.655 161.275 208.075 161.27 208.484 161.255C208.894 161.239 209.308 161.213 209.723 161.192C210.137 161.172 210.547 161.084 210.956 161.058C211.365 161.032 211.785 161.068 212.194 161.037C212.609 161.006 213.013 160.902 213.422 160.866C213.831 160.83 214.246 160.783 214.655 160.742C215.064 160.7 215.479 160.669 215.888 160.628C216.298 160.586 216.707 160.56 217.116 160.514C217.178 160.099 217.246 159.69 217.303 159.275C217.36 158.861 217.355 158.441 217.406 158.021C217.458 157.602 217.624 157.203 217.671 156.788C217.717 156.374 217.748 155.954 217.79 155.54C217.831 155.125 217.774 154.7 217.811 154.281C217.847 153.861 217.981 153.457 218.013 153.037C218.044 152.617 218.044 152.198 218.07 151.783C218.095 151.369 218.111 150.949 218.137 150.529C218.163 150.11 218.101 149.69 218.121 149.27C218.142 148.851 218.266 148.441 218.277 148.022C218.287 147.602 218.313 147.188 218.318 146.768C218.323 146.348 218.241 145.929 218.246 145.514C218.251 145.1 218.246 144.68 218.246 144.26C218.246 143.841 218.318 143.426 218.313 143.006C218.308 142.587 218.334 142.167 218.323 141.753C218.313 141.338 218.225 140.918 218.209 140.499C218.194 140.079 218.152 139.665 218.137 139.245C218.121 138.825 218.22 138.406 218.194 137.986C218.168 137.566 218.038 137.157 218.007 136.742C217.976 136.328 217.976 135.908 217.94 135.489C217.904 135.069 217.956 134.649 217.919 134.229C217.883 133.81 217.743 133.406 217.702 132.991C217.66 132.577 217.598 132.162 217.551 131.748C217.505 131.333 217.557 130.903 217.505 130.489C217.453 130.074 217.334 129.665 217.282 129.25C217.23 128.836 217.235 128.411 217.173 127.997C217.111 127.582 216.982 127.178 216.919 126.763C216.857 126.349 216.743 125.945 216.671 125.535C216.598 125.126 216.572 124.706 216.5 124.292C216.427 123.877 216.391 123.463 216.313 123.054C216.235 122.644 216.142 122.235 216.059 121.826C215.976 121.416 215.961 120.992 215.873 120.582C215.785 120.173 215.557 119.795 215.469 119.385C215.381 118.976 215.391 118.546 215.298 118.137C215.204 117.727 215.059 117.334 214.961 116.93C214.862 116.525 214.811 116.106 214.702 115.702C214.593 115.297 214.489 114.893 214.381 114.489C214.272 114.085 214.075 113.707 213.961 113.303C213.847 112.899 213.707 112.505 213.588 112.106C213.469 111.707 213.35 111.303 213.225 110.904C213.101 110.505 213.08 110.075 212.956 109.676C212.831 109.277 212.603 108.914 212.469 108.515C212.334 108.116 212.251 107.707 212.116 107.308C211.982 106.909 211.883 106.505 211.743 106.111C211.603 105.717 211.469 105.324 211.324 104.93H211.432Z" fill="#8DB579"/>
<g clip-path="url(#clip1_4671_41494)">
<path d="M99.7709 91.0511C96.218 88.867 95.1087 84.2177 97.2928 80.6648C99.4779 77.1163 104.126 76.0027 107.679 78.1868L115.915 83.2496L108.007 96.1139L99.7709 91.0511Z" fill="white"/>
<path d="M115.92 83.253L124.156 88.3158C127.709 90.4999 128.818 95.1491 126.634 98.702C124.45 102.255 119.801 103.364 116.248 101.18L108.012 96.1173L115.92 83.253Z" fill="#7F70FA"/>
<path d="M105.826 81.2019C103.94 80.0431 101.467 80.6333 100.308 82.5184" stroke="#979797" stroke-width="1.57822" stroke-linecap="round" stroke-linejoin="round"/>
</g>
<g clip-path="url(#clip2_4671_41494)">
<path d="M132.421 95.1662C135.488 98.0227 140.293 97.8597 143.16 94.7995C146.023 91.7393 145.859 86.9452 142.797 84.0842L135.688 77.4568L125.317 88.5342L132.426 95.1616L132.421 95.1662Z" fill="white"/>
<path d="M135.688 77.4613L128.579 70.8338C125.512 67.9773 120.703 68.1403 117.84 71.196C114.977 74.2562 115.141 79.0547 118.203 81.9112L125.312 88.5387L135.683 77.4613H135.688Z" fill="#F7E538"/>
<path d="M140.365 86.6873C141.994 88.2038 142.076 90.757 140.556 92.3776" stroke="#979797" stroke-width="1.86276" stroke-linecap="round" stroke-linejoin="round"/>
</g>
<path d="M128.434 115.291C127.91 115.196 127.412 115.045 126.926 114.919C126.409 114.78 125.923 114.603 125.456 114.427C124.957 114.237 124.534 113.941 124.086 113.714C123.619 113.474 123.121 113.303 122.711 113.013C122.301 112.723 121.865 112.407 121.486 112.06C121.108 111.713 120.723 111.347 120.401 110.95C120.073 110.552 119.802 110.11 119.524 109.669C119.259 109.233 119.013 108.773 118.792 108.299C118.571 107.826 118.464 107.328 118.294 106.835C118.129 106.356 117.991 105.864 117.858 105.359C117.726 104.854 117.644 104.368 117.549 103.851C117.454 103.333 117.284 102.86 117.221 102.336C117.164 101.831 117.17 101.314 117.132 100.79C117.101 100.298 117.006 99.7994 117 99.2946C116.994 98.7961 117.132 98.2976 117.151 97.7991C117.17 97.3006 117.151 96.802 117.202 96.3035C117.252 95.805 117.284 95.3065 117.36 94.8143C117.435 94.3221 117.461 93.811 117.562 93.3251C117.662 92.8392 117.827 92.3596 117.959 91.8737C118.092 91.3878 118.256 90.9146 118.42 90.4413C118.584 89.968 118.773 89.5011 118.975 89.0467C119.177 88.5924 119.373 88.1254 119.606 87.6837C119.84 87.242 120.092 86.8066 120.363 86.3838C120.635 85.961 120.925 85.5509 121.234 85.1596C121.543 84.7684 121.84 84.3582 122.187 83.9922C122.534 83.6262 122.982 83.3738 123.361 83.0457C123.828 82.6418 124.282 82.2001 124.793 81.8593C125.304 81.5186 125.86 81.1652 126.478 81.0516C127.096 80.9381 127.778 81.0138 128.339 81.2599C128.92 81.5123 129.305 82.036 129.519 82.6355C129.734 83.2224 129.772 83.7777 129.564 84.333C129.368 84.8504 129.027 85.3552 128.661 85.8348C128.308 86.3081 127.866 86.7246 127.519 87.1663C127.229 87.5323 127.046 87.974 126.812 88.3778C126.579 88.7817 126.276 89.154 126.099 89.5894C125.923 90.0248 125.803 90.4792 125.683 90.9335C125.563 91.3878 125.544 91.8548 125.487 92.3218C125.43 92.7887 125.329 93.1737 125.336 93.6406C125.525 93.161 125.803 92.795 126.043 92.3407C126.276 91.8864 126.396 91.3563 126.68 90.9272C126.964 90.4981 127.292 90.0879 127.614 89.6904C127.936 89.2928 128.276 88.8953 128.636 88.5293C128.996 88.1633 129.469 87.9172 129.867 87.5891C130.264 87.2609 130.617 86.8823 131.047 86.592C131.45 86.3207 131.886 86.0241 132.346 85.8601C132.807 85.696 133.318 85.7591 133.81 85.8601C134.334 85.961 134.833 86.1188 135.161 86.51C135.489 86.9013 135.596 87.425 135.722 87.9298C135.849 88.4346 135.905 88.9395 135.817 89.4317C135.729 89.9428 135.64 90.4666 135.42 90.9272C135.199 91.3878 134.845 91.7854 134.561 92.2208C134.277 92.6562 134.082 93.1421 133.798 93.5649C133.514 93.9877 133.142 94.3726 132.914 94.8333C132.681 95.3002 132.561 95.8113 132.454 96.3035C132.34 96.8084 132.277 97.3069 132.359 97.8243C132.511 97.2942 132.611 96.7453 132.826 96.2341C133.041 95.723 133.356 95.256 133.621 94.7765C133.886 94.2969 134.183 93.8236 134.498 93.3756C134.82 92.9275 135.224 92.5489 135.59 92.1388C135.918 91.7728 136.322 91.4257 136.783 91.167C137.243 90.9083 137.761 90.6495 138.234 90.6306C138.77 90.6117 139.187 90.8641 139.509 91.35C139.83 91.8359 139.957 92.4227 139.912 93.0033C139.881 93.5081 139.711 94.0003 139.647 94.4988C139.584 94.9973 139.565 95.5084 139.464 96.0006C139.363 96.4928 139.162 96.9661 139.029 97.452C138.897 97.9379 138.777 98.4238 138.613 98.9034C138.448 99.3829 138.284 99.8562 138.095 100.323C137.906 100.79 137.754 101.27 137.527 101.724C137.704 101.219 137.982 100.765 138.247 100.298C138.512 99.831 138.789 99.3893 139.13 98.9728C139.471 98.5563 139.761 98.0893 140.165 97.7423C140.569 97.3952 141.074 97.1744 141.534 96.8967C141.963 96.638 142.43 96.373 142.922 96.4802C143.56 96.6191 143.913 97.1554 143.989 97.818C144.052 98.3985 143.825 99.0548 143.667 99.6038C143.535 100.058 143.547 100.557 143.415 101.011C143.282 101.465 143.15 101.92 143.017 102.38C142.885 102.841 142.752 103.289 142.62 103.75C142.487 104.21 142.285 104.639 142.153 105.1C142.02 105.561 141.843 105.996 141.711 106.457C141.566 106.955 141.408 107.454 141.25 107.952C141.092 108.451 140.897 108.93 140.701 109.416C140.506 109.902 140.342 110.394 140.089 110.849C139.837 111.303 139.584 111.764 139.256 112.168C138.941 112.552 138.594 112.9 138.221 113.215C137.849 113.531 137.445 113.821 137.022 114.067C136.6 114.313 136.158 114.54 135.704 114.717C135.249 114.894 134.757 114.976 134.277 115.089C133.798 115.203 133.337 115.379 132.845 115.443C132.353 115.506 131.861 115.43 131.368 115.443C130.876 115.455 130.384 115.468 129.898 115.43C129.412 115.392 128.907 115.392 128.428 115.304L128.434 115.291Z" fill="#EBBEA7"/>
<path d="M138.417 102.191C138.051 102.696 137.729 103.245 137.483 103.819L137.578 103.592C137.382 104.065 137.275 104.57 137.155 105.062C137.035 105.554 136.467 105.876 135.988 105.725C135.508 105.573 135.199 105.075 135.325 104.557C135.483 103.933 135.634 103.32 135.906 102.727C136.145 102.204 136.442 101.699 136.783 101.232C136.934 101.023 137.092 100.866 137.351 100.796C137.578 100.733 137.881 100.765 138.083 100.891C138.48 101.143 138.733 101.755 138.423 102.185L138.417 102.191Z" fill="#A55535"/>
<path d="M132.088 100.563L132.075 100.601L132.17 100.374C132.088 100.575 132.031 100.79 131.974 100.998C131.892 101.282 131.779 101.541 131.665 101.812L131.76 101.585C131.602 101.964 131.45 102.342 131.286 102.721C131.198 102.923 130.927 103.1 130.718 103.156C130.491 103.219 130.188 103.188 129.986 103.062C129.784 102.936 129.608 102.74 129.551 102.494L129.519 102.241C129.519 102.071 129.564 101.913 129.646 101.762C129.665 101.711 129.69 101.661 129.709 101.61L129.614 101.838C129.778 101.446 129.936 101.055 130.1 100.67L130.005 100.897C130.081 100.721 130.132 100.531 130.182 100.348C130.251 100.096 130.34 99.8561 130.447 99.61C130.535 99.4081 130.813 99.2314 131.015 99.1746C131.242 99.1115 131.545 99.1431 131.747 99.2693C131.949 99.3955 132.126 99.5911 132.182 99.8372L132.214 100.09C132.214 100.26 132.17 100.418 132.088 100.569V100.563Z" fill="#A55535"/>
<path d="M125.702 95.6283C125.588 95.8807 125.456 96.1205 125.348 96.3729L125.443 96.1457C125.292 96.518 125.216 96.9156 125.159 97.3131L125.191 97.0607C125.172 97.2248 125.153 97.3888 125.146 97.5529C125.134 97.8053 125.052 98.0388 124.869 98.2218C124.705 98.3859 124.433 98.5121 124.2 98.4994C123.966 98.4868 123.701 98.4111 123.531 98.2218C123.361 98.0325 123.241 97.8053 123.253 97.5529C123.279 97.0418 123.354 96.5243 123.481 96.0321C123.607 95.5399 123.859 95.1171 124.067 94.6691C124.162 94.4672 124.427 94.2905 124.635 94.2337C124.863 94.1706 125.165 94.2022 125.367 94.3284C125.569 94.4546 125.746 94.6502 125.803 94.8963C125.86 95.155 125.822 95.3822 125.708 95.6283H125.702Z" fill="#A55535"/>
<path d="M157.103 60.8271C157.113 61.2623 157.02 61.6975 157.015 62.1275C157.009 62.5576 157.082 62.998 157.066 63.428C157.051 63.858 157.041 64.2984 157.009 64.7285C156.978 65.1585 156.823 65.5834 156.776 66.0134C156.73 66.4435 156.73 66.8787 156.673 67.3087C156.616 67.7387 156.574 68.174 156.507 68.5988C156.44 69.0237 156.279 69.4382 156.191 69.863C156.103 70.2879 156.061 70.7231 155.968 71.1428C155.875 71.5625 155.849 72.008 155.735 72.4277C155.657 72.7179 155.569 73.0132 155.725 73.2619C155.88 73.5054 156.149 73.5209 156.419 73.5468C156.838 73.5883 157.253 73.6194 157.673 73.6505C158.092 73.6816 158.507 73.7437 158.926 73.7696C159.346 73.7955 159.761 73.837 160.18 73.8525C160.6 73.8733 161.02 73.8525 161.439 73.8629C161.859 73.8733 162.279 73.8733 162.698 73.8784C163.118 73.8836 163.538 73.9872 163.957 73.9821C164.377 73.9769 164.797 73.894 165.216 73.8836C165.636 73.8733 166.056 73.9354 166.475 73.9199C166.895 73.9043 167.31 73.8422 167.729 73.8163C168.149 73.7904 168.563 73.7489 168.983 73.7126C169.403 73.6764 169.817 73.6142 170.232 73.5728C170.646 73.5313 171.066 73.4691 171.48 73.4225C171.895 73.3759 172.33 73.4329 172.745 73.3759C173.159 73.3189 173.568 73.1997 173.983 73.1375C174.113 73.1168 174.258 73.0961 174.351 73.0028C174.501 72.8474 174.501 72.5728 174.465 72.3552C174.403 71.9407 174.377 71.5262 174.32 71.1117C174.263 70.6972 174.149 70.2931 174.102 69.8786C174.056 69.4641 173.947 69.0548 173.905 68.6403C173.864 68.2258 173.942 67.7957 173.905 67.3812C173.869 66.9668 173.739 66.5574 173.708 66.1378C173.677 65.7181 173.636 65.3036 173.615 64.8891C173.594 64.4746 173.594 64.0549 173.579 63.6353C173.563 63.2156 173.631 62.7959 173.62 62.3814C173.61 61.9669 173.62 61.5472 173.62 61.1276C173.62 60.7079 173.475 60.2934 173.48 59.8737C173.486 59.454 173.532 59.0395 173.543 58.6199C173.553 58.2002 173.594 57.7857 173.605 57.366C173.615 56.9464 173.594 56.5319 173.615 56.1122" fill="#FEBFA6"/>
<path d="M140.041 46.756C140.16 47.1601 140.202 47.585 140.321 47.9839C140.44 48.3829 140.616 48.7714 140.741 49.1652C140.865 49.559 140.974 49.9683 141.108 50.3621C141.243 50.7558 141.326 51.1755 141.471 51.5641C141.616 51.9527 141.86 52.3102 142.015 52.6988C142.171 53.0874 142.248 53.5122 142.424 53.8905C142.601 54.2687 142.766 54.6573 142.963 55.0251C143.16 55.393 143.466 55.6987 143.683 56.0614C143.901 56.424 144.01 56.8437 144.248 57.1909C144.487 57.538 144.792 57.8281 145.051 58.1597C145.31 58.4913 145.606 58.7763 145.891 59.0872C146.176 59.398 146.404 59.7504 146.714 60.0405C147.025 60.3307 147.347 60.5794 147.678 60.8488C148.015 61.1234 148.336 61.4239 148.694 61.6726C149.051 61.9213 149.46 62.0923 149.833 62.3202C150.207 62.5482 150.595 62.7347 150.984 62.9316C151.367 63.1337 151.719 63.4135 152.118 63.5896C152.517 63.7658 152.958 63.8383 153.367 63.9834C153.776 64.1285 154.196 64.2269 154.616 64.3512C155.035 64.4704 155.429 64.688 155.854 64.7813C156.279 64.8745 156.709 64.9523 157.139 65.0196C157.569 65.087 158.015 64.9937 158.429 65.0041C158.844 65.0144 159.289 65.1181 159.719 65.0973C160.149 65.0766 160.574 65.0455 161.004 65.0196C161.434 64.9937 161.849 64.9937 162.289 64.9885C162.693 64.9885 163.097 64.9885 163.501 65.0093C163.906 65.03 164.315 64.9937 164.719 65.0196C165.123 65.0455 165.527 65.0507 165.931 65.0663C166.336 65.0818 166.74 65.0922 167.144 65.087C167.548 65.0818 167.947 65.0455 168.351 64.9937C168.76 64.9419 169.17 64.9108 169.569 64.8435C169.968 64.7761 170.382 64.7036 170.776 64.6207C171.17 64.5378 171.569 64.4134 171.967 64.3098C172.366 64.2062 172.765 64.1129 173.154 63.9938C173.543 63.8746 173.921 63.6984 174.299 63.5534C174.677 63.4083 175.055 63.2477 175.429 63.0819C175.802 62.9161 176.19 62.7814 176.553 62.5948C176.916 62.4083 177.278 62.2166 177.631 62.0042C177.983 61.7917 178.356 61.6104 178.687 61.3721C179.019 61.1337 179.33 60.8591 179.646 60.6001C179.962 60.341 180.231 60.0301 180.532 59.7452C180.832 59.4602 181.18 59.2374 181.459 58.9317C181.739 58.626 181.993 58.31 182.242 57.9836C182.49 57.6572 182.641 57.2686 182.874 56.9266C183.107 56.5847 183.387 56.2893 183.594 55.9267C183.801 55.564 183.983 55.165 184.19 54.7972C184.397 54.4293 184.635 54.0666 184.838 53.6987C185.04 53.3309 185.2 52.9268 185.397 52.5485C185.594 52.1703 185.796 51.7973 185.983 51.4138C186.169 51.0304 186.418 50.6781 186.594 50.2895C186.77 49.9009 186.858 49.4761 187.029 49.0875C187.2 48.6989 187.366 48.3051 187.521 47.9114C187.677 47.5176 187.869 47.1342 188.008 46.7301C188.148 46.3259 188.205 45.9011 188.335 45.4969C188.464 45.0928 188.584 44.6887 188.692 44.2742C188.801 43.8597 189.008 43.4763 189.102 43.0618C189.195 42.6473 189.205 42.2173 189.283 41.7976C189.361 41.3779 189.516 40.9738 189.573 40.5541C189.63 40.1344 189.573 39.6992 189.609 39.2743C189.646 38.8495 189.656 38.4298 189.672 38.005C189.687 37.5801 189.739 37.1604 189.739 36.7304C189.739 36.3004 189.729 35.8859 189.708 35.4558C189.687 35.0413 189.723 34.6217 189.682 34.2175C189.64 33.8134 189.47 33.4144 189.402 33.0051C189.335 32.5958 189.319 32.1813 189.231 31.7772C189.143 31.3731 188.982 30.9896 188.874 30.5907C188.765 30.1917 188.687 29.7876 188.552 29.3938C188.418 29.0001 188.361 28.5804 188.21 28.197C188.06 27.8136 187.817 27.4664 187.646 27.0934C187.475 26.7204 187.345 26.3162 187.154 25.9535C186.962 25.5909 186.651 25.2903 186.439 24.9328C186.226 24.5753 185.998 24.2386 185.765 23.8966C185.532 23.5547 185.33 23.1972 185.081 22.8656C184.832 22.534 184.573 22.2179 184.309 21.8967C184.045 21.5754 183.822 21.2231 183.547 20.9174C183.273 20.6117 183.009 20.2905 182.713 20.0004C182.418 19.7102 182.071 19.4719 181.765 19.1973C181.459 18.9227 181.117 18.6843 180.796 18.4253C180.475 18.1662 180.159 17.902 179.827 17.6533C179.496 17.4046 179.164 17.1611 178.822 16.9279C178.48 16.6948 178.169 16.4202 177.817 16.2077C177.465 15.9953 177.107 15.7881 176.745 15.586C176.382 15.3839 176.009 15.2078 175.641 15.0264C175.273 14.8451 174.905 14.6534 174.527 14.4876C174.149 14.3218 173.739 14.2389 173.351 14.0886C172.962 13.9384 172.6 13.7467 172.206 13.612C171.812 13.4773 171.429 13.327 171.035 13.213C170.641 13.099 170.237 12.9954 169.838 12.897C169.439 12.7985 169.03 12.7415 168.62 12.6638C168.211 12.5861 167.812 12.4928 167.403 12.4307C166.994 12.3685 166.589 12.2752 166.18 12.2286C165.771 12.182 165.356 12.1405 164.942 12.1146C164.532 12.0887 164.123 12.0524 163.719 12.0473C163.315 12.0421 162.9 12.0783 162.491 12.0939C162.082 12.1094 161.678 12.2131 161.274 12.2493C160.869 12.2856 160.455 12.27 160.051 12.327C159.647 12.384 159.243 12.4358 158.838 12.5136C158.434 12.5913 158.046 12.7104 157.647 12.8037C157.248 12.897 156.875 13.0731 156.486 13.1923C156.098 13.3115 155.714 13.4358 155.326 13.5757C154.937 13.7156 154.548 13.8244 154.175 13.9798C153.802 14.1353 153.388 14.213 153.02 14.3891C152.652 14.5653 152.31 14.7985 151.953 14.9902C151.595 15.1819 151.222 15.3528 150.87 15.5653C150.517 15.7777 150.227 16.073 149.885 16.301C149.543 16.529 149.16 16.6896 148.834 16.9331C148.507 17.1766 148.186 17.4305 147.875 17.6947C147.564 17.959 147.305 18.2802 147.005 18.56C146.704 18.8398 146.352 19.0574 146.067 19.3527C145.782 19.648 145.497 19.9693 145.222 20.2801C144.948 20.591 144.72 20.9537 144.461 21.2801C144.202 21.6065 143.994 21.9796 143.756 22.3164C143.518 22.6531 143.243 22.9795 143.02 23.3267C142.797 23.6738 142.528 24.0106 142.321 24.3733C142.114 24.736 141.994 25.1505 141.808 25.5235C141.621 25.8965 141.352 26.2333 141.186 26.6167C141.02 27.0001 140.865 27.3887 140.715 27.7825C140.564 28.1763 140.471 28.5856 140.342 28.9793C140.212 29.3731 140.103 29.7772 139.989 30.1814C139.875 30.5855 139.818 31 139.72 31.4041C139.621 31.8083 139.44 32.1969 139.357 32.6062C139.274 33.0155 139.279 33.4403 139.212 33.8548C139.145 34.2693 139.098 34.6786 139.046 35.0931C138.994 35.5076 138.823 35.9066 138.782 36.3263C138.741 36.7459 138.751 37.1604 138.72 37.5801C138.694 37.9635 138.704 38.3521 138.699 38.7459C138.694 39.1396 138.621 39.523 138.642 39.9168C138.663 40.3106 138.741 40.6888 138.782 41.0774C138.823 41.466 138.953 41.8338 139.01 42.2224C139.067 42.611 139.124 42.9893 139.197 43.3727C139.269 43.7561 139.362 44.1291 139.45 44.5073C139.538 44.8856 139.637 45.2586 139.741 45.6368C139.844 46.0151 139.943 46.3829 140.057 46.756H140.041Z" fill="#FBC0A8"/>
<path d="M167.694 20.367C167.157 20.5291 166.653 20.7893 166.106 20.9581C165.558 21.1269 165.009 21.2255 164.472 21.4358C163.972 21.6266 163.483 21.837 163.023 22.0922C162.564 22.3474 162.168 22.6931 161.718 22.9678C161.269 23.2424 160.773 23.4384 160.313 23.6978C159.852 23.9572 159.44 24.2869 158.943 24.4871C158.534 24.6511 158.069 24.7828 157.597 24.9484C157.167 25.0955 156.685 25.1672 156.214 25.3024C155.744 25.4375 155.317 25.5939 154.843 25.6935C154.37 25.7931 153.898 25.8362 153.422 25.9003C152.945 25.9687 152.471 26.0683 151.994 26.0885C151.507 26.1112 151.023 26.0603 150.546 26.0281C150.055 25.9933 149.583 25.9096 149.125 25.8021C148.649 25.6871 148.212 25.518 147.781 25.3109C147.351 25.1038 146.942 24.8833 146.575 24.5656C146.232 24.2699 145.891 23.9438 145.62 23.5392C145.346 23.1296 145.054 22.7165 144.872 22.2716C144.69 21.8266 144.579 21.3514 144.482 20.8829C144.385 20.4145 144.435 19.9429 144.415 19.4628C144.396 18.9826 144.331 18.5202 144.382 18.0444C144.433 17.5686 144.567 17.126 144.673 16.6605C144.779 16.195 144.877 15.7455 145.033 15.2936C145.188 14.8417 145.336 14.4016 145.527 13.965C145.717 13.5284 145.976 13.1308 146.202 12.7095C146.427 12.2882 146.591 11.8422 146.846 11.4395C147.101 11.0369 147.42 10.6724 147.705 10.2883C147.99 9.90432 148.222 9.4754 148.535 9.11426C148.849 8.75312 149.207 8.40898 149.545 8.06986C149.883 7.73075 150.29 7.43065 150.656 7.11864C151.022 6.80663 151.397 6.47013 151.79 6.19367C152.183 5.91722 152.652 5.68571 153.071 5.44903C153.515 5.19972 153.958 4.98507 154.408 4.80677C154.888 4.61671 155.379 4.52471 155.853 4.42084C156.342 4.31531 156.803 4.10408 157.297 4.02138C157.791 3.93869 158.306 3.96929 158.806 3.9052C159.305 3.84534 159.797 3.77532 160.301 3.73829C160.805 3.70126 161.305 3.68957 161.806 3.66944C162.307 3.64931 162.803 3.52773 163.31 3.52621C163.812 3.52805 164.318 3.58315 164.825 3.60783C165.332 3.6325 165.835 3.63012 166.338 3.6717C166.842 3.71327 167.337 3.82752 167.842 3.89107C168.342 3.95377 168.852 3.95732 169.354 4.03777C169.855 4.11822 170.343 4.24429 170.84 4.34586C171.338 4.44744 171.826 4.5735 172.315 4.69112C172.805 4.80874 173.303 4.90609 173.789 5.04483C174.275 5.18357 174.757 5.3392 175.235 5.49399C175.713 5.64877 176.192 5.82554 176.661 6.00059C177.13 6.17565 177.632 6.30428 178.093 6.4996C178.554 6.69492 178.986 6.96795 179.439 7.18354C179.891 7.39913 180.335 7.63499 180.779 7.86662C181.224 8.09826 181.7 8.2877 182.133 8.53452C182.565 8.78135 182.941 9.12695 183.36 9.39319C183.784 9.66028 184.222 9.90374 184.628 10.1894C185.034 10.475 185.41 10.7987 185.803 11.0995C186.201 11.4054 186.652 11.6557 187.032 11.9759C187.413 12.2962 187.728 12.6916 188.091 13.0304C188.458 13.37 188.889 13.6515 189.235 14.0047C189.586 14.3587 189.859 14.7726 190.194 15.1367C190.529 15.5008 190.863 15.8691 191.176 16.2467C191.488 16.6286 191.865 16.9699 192.161 17.3619C192.458 17.7538 192.647 18.2132 192.922 18.6143C193.198 19.0155 193.483 19.4184 193.742 19.8297C194.002 20.241 194.318 20.6279 194.556 21.0527C194.794 21.4775 194.924 21.9477 195.147 22.3784C195.37 22.8091 195.654 23.2162 195.851 23.6553C196.049 24.0943 196.265 24.5326 196.442 24.9809C196.619 25.4293 196.656 25.917 196.813 26.3704C196.97 26.8238 197.236 27.2494 197.378 27.7087C197.519 28.1679 197.642 28.628 197.759 29.0914C197.876 29.5548 197.964 30.0258 198.057 30.4892C198.151 30.9526 198.233 31.4269 198.306 31.8953C198.38 32.3637 198.506 32.8331 198.56 33.3023C198.615 33.7715 198.653 34.2508 198.684 34.72C198.715 35.1892 198.71 35.6693 198.712 36.1418C198.714 36.6142 198.64 37.0857 198.623 37.559C198.606 38.0323 198.51 38.4953 198.47 38.9644C198.429 39.4334 198.421 39.9084 198.354 40.3723C198.279 40.8742 198.131 41.4107 197.89 41.8641C197.633 42.3538 197.288 42.7834 196.716 42.9039C196.168 43.0203 195.597 42.7825 195.08 42.555C194.599 42.3427 194.165 42.0823 193.738 41.8059C193.311 41.5296 192.841 41.2801 192.469 40.9396C192.097 40.5991 191.734 40.234 191.408 39.8454C191.083 39.4568 190.799 39.0497 190.527 38.6316C190.254 38.2135 190.012 37.7836 189.782 37.3428C189.551 36.902 189.315 36.4688 189.12 36.017C188.925 35.5653 188.785 35.0976 188.615 34.6332C188.446 34.1688 188.38 33.6844 188.235 33.22C188.09 32.7557 187.812 32.3148 187.686 31.8497C187.559 31.3845 187.524 30.8139 187.406 30.3505C187.117 30.7599 186.706 31.1335 186.261 31.3608C185.816 31.5881 185.334 31.8129 184.811 31.8727C184.288 31.9325 183.744 31.9314 183.225 31.8433C182.706 31.7552 182.225 31.4906 181.759 31.2682C181.294 31.0458 180.807 30.8149 180.397 30.498C179.992 30.1819 179.618 29.8236 179.267 29.4476C178.915 29.0717 178.644 28.6493 178.336 28.2422C178.028 27.835 177.709 27.4388 177.432 27.0198C177.165 26.6204 176.861 26.2445 176.61 25.8391C176.359 25.4337 176.187 24.9863 175.946 24.5784C175.704 24.1705 175.458 23.7617 175.228 23.3471C174.997 22.9325 174.814 22.496 174.593 22.0788C174.373 21.6617 174.118 21.2513 173.912 20.8282C173.703 20.4043 173.513 19.9712 173.319 19.5414C173.124 19.1117 172.884 18.752 172.7 18.3154C172.311 18.5708 171.965 18.7772 171.567 18.9784C171.153 19.1897 170.693 19.2962 170.269 19.4618C169.845 19.6275 169.455 19.8913 169.016 20.0324C168.577 20.1778 168.101 20.2157 167.659 20.3517L167.694 20.367Z" fill="#97928C"/>
<path d="M159.096 23.3367C158.605 23.6077 158.167 23.9676 157.667 24.2475C157.167 24.5274 156.651 24.7389 156.17 25.0569C155.721 25.3483 155.287 25.6565 154.891 26.0024C154.495 26.3483 154.18 26.7694 153.799 27.1321C153.417 27.4948 152.973 27.7903 152.577 28.1405C152.181 28.4907 151.847 28.8994 151.404 29.1993C151.037 29.4455 150.61 29.6718 150.184 29.9325C149.794 30.1664 149.338 30.3377 148.906 30.5684C148.474 30.7992 148.089 31.0416 147.648 31.2382C147.206 31.4348 146.753 31.5759 146.301 31.7384C145.849 31.9052 145.407 32.1018 144.944 32.2216C144.472 32.346 143.989 32.3975 143.516 32.466C143.029 32.5349 142.549 32.552 142.079 32.543C141.589 32.5303 141.126 32.4566 140.662 32.3443C140.198 32.232 139.752 32.102 139.326 31.8683C138.929 31.651 138.527 31.4038 138.178 31.0649C137.824 30.7218 137.452 30.3791 137.18 29.9823C136.909 29.5854 136.701 29.1438 136.508 28.7061C136.315 28.2685 136.265 27.7969 136.145 27.3315C136.026 26.8661 135.865 26.4275 135.815 25.9517C135.765 25.4758 135.804 25.0148 135.81 24.5374C135.816 24.06 135.818 23.6 135.875 23.1256C135.932 22.6511 135.985 22.1897 136.08 21.7229C136.174 21.2561 136.344 20.813 136.476 20.3538C136.609 19.8946 136.675 19.4242 136.84 18.977C137.005 18.5298 137.241 18.1065 137.439 17.6713C137.637 17.2361 137.774 16.7682 138.005 16.3493C138.236 15.9304 138.514 15.5189 138.773 15.1165C139.033 14.7141 139.367 14.3354 139.66 13.9536C139.952 13.5718 140.249 13.1641 140.575 12.8115C140.901 12.4589 141.311 12.1341 141.671 11.815C142.053 11.4781 142.441 11.1754 142.844 10.9067C143.274 10.6201 143.735 10.4273 144.177 10.2263C144.632 10.0207 145.039 9.71757 145.504 9.53321C145.97 9.34884 146.48 9.27076 146.955 9.10333C147.431 8.9402 147.897 8.76872 148.382 8.62682C148.867 8.48492 149.353 8.36879 149.839 8.24408C150.325 8.11936 150.785 7.89645 151.28 7.78867C151.771 7.68531 152.278 7.63313 152.779 7.551C153.279 7.46887 153.77 7.36122 154.272 7.29627C154.773 7.23133 155.281 7.23929 155.787 7.19571C156.289 7.15224 156.79 7.04863 157.297 7.02223C157.804 6.99583 158.307 7.0168 158.815 7.01188C159.323 7.00696 159.826 7.02793 160.33 7.04032C160.833 7.0527 161.34 7.04348 161.844 7.07735C162.348 7.11121 162.853 7.16226 163.353 7.21344C163.852 7.26461 164.357 7.33714 164.853 7.40992C165.349 7.48269 165.866 7.5033 166.358 7.59768C166.85 7.69206 167.329 7.86844 167.817 7.98443C168.304 8.10042 168.788 8.23801 169.271 8.3713C169.754 8.50459 170.26 8.59001 170.734 8.74074C171.209 8.89147 171.649 9.15059 172.115 9.32304C172.585 9.49537 173.064 9.64168 173.521 9.83586C173.978 10.03 174.413 10.2678 174.861 10.4794C175.314 10.6952 175.807 10.8454 176.246 11.0788C176.686 11.3121 177.076 11.6328 177.502 11.888C177.933 12.143 178.413 12.328 178.826 12.6008C179.243 12.8734 179.597 13.2208 180 13.5067C180.404 13.7926 180.808 14.0827 181.193 14.3863C181.578 14.6942 182.018 14.949 182.39 15.2701C182.762 15.5912 183.043 16.0008 183.397 16.3353C183.75 16.6698 184.113 17.0041 184.453 17.3518C184.793 17.6996 185.184 18.0116 185.505 18.3771C185.827 18.7425 186.053 19.175 186.361 19.5494C186.669 19.9239 187.032 20.2624 187.317 20.6503C187.603 21.0383 187.906 21.4214 188.173 21.8227C188.44 22.224 188.578 22.6932 188.827 23.1036C189.075 23.514 189.425 23.8744 189.66 24.2938C189.894 24.7131 190.111 25.1373 190.322 25.5658C190.534 25.9944 190.718 26.4366 190.907 26.8701C191.095 27.3036 191.275 27.7502 191.445 28.1928C191.615 28.6354 191.836 29.068 191.988 29.5154C192.14 29.9627 192.278 30.4233 192.406 30.8756C192.535 31.3279 192.631 31.7982 192.732 32.2599C192.833 32.7215 192.859 33.198 192.942 33.6644C193.024 34.1308 193.027 34.6036 193.086 35.0706C193.145 35.5377 193.237 36.0038 193.268 36.4716C193.3 36.978 193.268 37.5335 193.128 38.0273C192.979 38.5601 192.731 39.0525 192.197 39.2903C191.686 39.5188 191.078 39.4061 190.525 39.2918C190.01 39.1852 189.53 39.0217 189.055 38.8409C188.58 38.6601 188.068 38.5146 187.633 38.2597C187.197 38.0047 186.766 37.7239 186.366 37.4121C185.967 37.1003 185.604 36.7617 185.25 36.4101C184.896 36.0584 184.569 35.6887 184.252 35.306C183.934 34.9232 183.612 34.5492 183.326 34.1484C183.041 33.7476 182.806 33.3196 182.543 32.901C182.281 32.4824 182.115 32.0225 181.875 31.599C181.635 31.1754 181.272 30.8025 181.051 30.3742C180.83 29.9459 180.675 29.3954 180.463 28.9668C180.266 29.4278 179.943 29.8792 179.555 30.1948C179.168 30.5103 178.743 30.8312 178.244 30.9992C177.746 31.1673 177.213 31.2803 176.687 31.3029C176.162 31.3256 175.636 31.1676 175.134 31.0477C174.633 30.9278 174.108 30.8042 173.64 30.5802C173.178 30.3561 172.738 30.084 172.315 29.7901C171.893 29.4961 171.539 29.1401 171.152 28.8064C170.766 28.4728 170.371 28.1523 170.012 27.8007C169.668 27.466 169.292 27.1622 168.961 26.8184C168.631 26.4747 168.369 26.0733 168.047 25.725C167.726 25.3767 167.4 25.0286 167.088 24.6715C166.775 24.3144 166.504 23.9261 166.201 23.5645C165.898 23.2028 165.563 22.8549 165.273 22.4843C164.979 22.1138 164.703 21.7299 164.423 21.3505C164.143 20.971 163.832 20.6698 163.561 20.2815C163.234 20.6126 162.939 20.887 162.592 21.1671C162.232 21.4604 161.804 21.661 161.424 21.9119C161.044 22.1627 160.718 22.5025 160.319 22.7323C159.92 22.9665 159.463 23.1034 159.059 23.3291L159.096 23.3367Z" fill="#97928C"/>
<path d="M194.661 50.2529C194.376 50.5585 194.065 50.8487 193.739 51.1181C193.428 51.3772 193.045 51.5844 192.656 51.7968C192.293 51.9937 191.889 52.1336 191.48 52.2839C191.071 52.4341 190.677 52.517 190.257 52.6155C189.837 52.7139 189.439 52.8124 189.014 52.859C188.589 52.9056 188.169 52.9678 187.744 52.9626C187.314 52.9626 186.895 52.8849 186.48 52.8279C186.066 52.7709 185.646 52.6621 185.252 52.5378C184.838 52.4082 184.402 52.3357 184.045 52.1284C183.687 51.9212 183.371 51.6 183.081 51.2995C182.791 50.9989 182.542 50.6622 182.356 50.2684C182.185 49.9057 182.076 49.5016 182.009 49.056C181.952 48.6674 181.921 48.2477 181.957 47.7918C181.988 47.3928 182.05 46.968 182.128 46.5172C182.195 46.1131 182.232 45.6779 182.335 45.2478C182.428 44.8437 182.563 44.4292 182.687 44.0095C182.812 43.5899 182.879 43.1754 183.024 42.7609C183.169 42.3464 183.397 41.9837 183.558 41.5847C183.719 41.1858 183.91 40.8024 184.092 40.4138C184.273 40.0252 184.501 39.6573 184.708 39.2843C184.915 38.9113 185.06 38.4864 185.288 38.1341C185.516 37.7818 185.786 37.4243 186.045 37.0927C186.304 36.7611 186.573 36.3984 186.864 36.0979C187.154 35.7974 187.558 35.5694 187.884 35.3052C188.226 35.0305 188.511 34.6782 188.879 34.4762C189.247 34.2741 189.692 34.1653 190.102 34.0513C190.511 33.9321 190.936 33.9166 191.361 33.8907C191.786 33.8648 192.2 33.8803 192.62 33.9477C193.039 34.015 193.475 34.0306 193.874 34.1808C194.273 34.3311 194.635 34.5694 194.988 34.8026C195.366 35.0565 195.692 35.3673 196.008 35.6937C196.324 36.0202 196.594 36.3777 196.837 36.7662C197.081 37.1548 197.335 37.5279 197.506 37.9527C197.677 38.3776 197.791 38.818 197.889 39.2636C197.987 39.7092 197.962 40.1651 197.993 40.621C198.024 41.077 198.019 41.5174 197.993 41.9733C197.967 42.4293 198.024 42.8904 197.946 43.336C197.868 43.7816 197.671 44.2064 197.552 44.6416C197.443 45.051 197.412 45.4862 197.267 45.8903C197.122 46.2944 196.925 46.6727 196.744 47.0561C196.563 47.4395 196.371 47.8229 196.153 48.1907C195.936 48.5586 195.672 48.8954 195.423 49.2322C195.174 49.5689 194.957 49.9523 194.666 50.2632L194.661 50.2529Z" fill="#FBC0A8"/>
<path d="M193.392 41.2213C192.848 41.3923 192.341 41.6514 191.781 41.7757C191.253 41.8949 190.75 41.9881 190.247 42.1902C189.149 42.6202 188.004 42.8793 186.88 43.2109C185.921 43.4907 186.331 44.9932 187.294 44.7083C188.424 44.3767 189.564 44.1176 190.662 43.6876C191.165 43.4907 191.672 43.3922 192.196 43.2731C192.755 43.1487 193.263 42.8948 193.807 42.7187C194.206 42.5943 194.465 42.1798 194.351 41.7602C194.242 41.3664 193.797 41.0918 193.392 41.2161V41.2213Z" fill="#A55535"/>
<path d="M156.258 40.8592C155.642 40.4862 154.777 40.5587 154.181 40.9473C153.466 41.4188 153.31 42.2426 153.274 43.0405C153.238 43.8384 153.388 44.6363 153.849 45.2995C154.103 45.6622 154.403 45.9679 154.777 46.2218C155.108 46.4497 155.517 46.5689 155.906 46.657C156.295 46.7451 156.766 46.5378 156.865 46.1129C156.953 45.7192 156.745 45.2529 156.321 45.1544C156.181 45.1233 156.046 45.0923 155.911 45.0456C155.854 45.0249 155.792 45.0094 155.735 44.9834C155.87 45.0456 155.663 44.9368 155.657 44.9316C155.637 44.9213 155.471 44.8021 155.569 44.8798C155.517 44.8384 155.471 44.7969 155.424 44.7503C155.378 44.7037 155.331 44.6622 155.289 44.6156C155.289 44.6156 155.139 44.4291 155.217 44.5379C155.144 44.4394 155.082 44.3358 155.025 44.227C155.025 44.2166 154.927 44.0042 154.979 44.1441C154.958 44.0871 154.937 44.0301 154.916 43.9731C154.875 43.8436 154.839 43.7141 154.818 43.5794C154.834 43.6933 154.818 43.5586 154.818 43.512C154.818 43.4343 154.818 43.3514 154.818 43.2737C154.818 43.1338 154.828 42.9939 154.834 42.8592C154.834 42.8074 154.839 42.7555 154.844 42.6986C154.854 42.6157 154.87 42.5742 154.844 42.6778C154.859 42.6157 154.87 42.5483 154.885 42.4861C154.891 42.4654 154.947 42.2944 154.911 42.3929C154.875 42.4913 154.947 42.3307 154.958 42.31C155.046 42.1442 154.87 42.398 154.999 42.2581C155.087 42.1649 154.906 42.2944 154.984 42.2685C155.025 42.253 155.067 42.2219 155.103 42.2012C154.87 42.3359 155.305 42.1079 155.305 42.1545C155.305 42.1649 155.129 42.1649 155.305 42.1597C155.331 42.1597 155.424 42.1442 155.45 42.1597C155.346 42.1442 155.326 42.139 155.383 42.1545C155.409 42.1597 155.435 42.1649 155.46 42.1753C155.46 42.1493 155.31 42.0924 155.466 42.1856C155.813 42.398 156.336 42.2737 156.528 41.9058C156.719 41.538 156.621 41.0665 156.248 40.8437L156.258 40.8592Z" fill="#2B2927"/>
<path d="M149.331 43.4607C150.146 43.4607 150.808 42.4494 150.808 41.2017C150.808 39.9541 150.146 38.9427 149.331 38.9427C148.515 38.9427 147.854 39.9541 147.854 41.2017C147.854 42.4494 148.515 43.4607 149.331 43.4607Z" fill="#2B2927"/>
<path d="M164.492 43.4607C165.307 43.4607 165.968 42.4494 165.968 41.2017C165.968 39.9541 165.307 38.9427 164.492 38.9427C163.676 38.9427 163.015 39.9541 163.015 41.2017C163.015 42.4494 163.676 43.4607 164.492 43.4607Z" fill="#2B2927"/>
<path d="M151.709 34.5021C150.575 34.3208 149.461 34.4037 148.352 34.7249C147.824 34.8752 147.378 35.1135 146.943 35.4451C146.508 35.7767 146.021 36.072 145.627 36.471C144.922 37.1808 146.021 38.2792 146.725 37.5694C147.02 37.2689 147.352 37.0668 147.694 36.8129C148.067 36.5332 148.342 36.3466 148.767 36.2223C149.601 35.9839 150.466 35.87 151.295 35.9995C151.709 36.0668 152.129 35.8907 152.253 35.4555C152.357 35.0876 152.129 34.5643 151.709 34.4969V34.5021Z" fill="#2B2927"/>
<path d="M165.362 48.1999C165.855 48.6765 166.305 49.1325 166.694 49.7024C167.082 50.2723 167.378 50.863 167.715 51.4537C168.424 52.6816 168.652 54.1323 168.663 55.5364C168.668 56.2048 169.704 56.2048 169.699 55.5364C169.694 54.7696 169.595 53.9665 169.471 53.2101C169.347 52.4536 169.041 51.6868 168.663 51.0288C168.31 50.4071 167.984 49.775 167.585 49.1791C167.15 48.5315 166.647 48.0082 166.093 47.4693C165.616 47.003 164.88 47.7336 165.362 48.1999Z" fill="#BC7F6C"/>
<path d="M172.046 40.7814C172.662 40.7814 173.284 40.7814 173.901 40.7814C174.17 40.7814 174.429 40.5431 174.419 40.2633C174.408 39.9835 174.191 39.7452 173.901 39.7452C173.284 39.7452 172.662 39.7452 172.046 39.7452C171.776 39.7452 171.517 39.9835 171.528 40.2633C171.538 40.5431 171.756 40.7814 172.046 40.7814Z" fill="#BC7F6C"/>
<path d="M171.797 42.983C171.828 42.983 171.859 42.9934 171.89 42.9934L171.75 42.9726C172.305 43.0504 172.854 43.1488 173.403 43.2213C173.527 43.2369 173.688 43.154 173.771 43.0711C173.859 42.983 173.926 42.8328 173.921 42.7032C173.916 42.5737 173.869 42.4286 173.771 42.3354L173.667 42.2525C173.584 42.2058 173.502 42.1799 173.408 42.1799C173.377 42.1799 173.346 42.1696 173.315 42.1696L173.455 42.1903C172.901 42.1126 172.351 42.0141 171.802 41.9416C171.678 41.926 171.517 42.0089 171.434 42.0918C171.346 42.1799 171.279 42.3302 171.284 42.4597C171.289 42.5892 171.336 42.7343 171.434 42.8276L171.538 42.9105C171.621 42.9571 171.704 42.983 171.797 42.983Z" fill="#BC7F6C"/>
<path d="M162.403 35.8586C163.393 35.6669 164.455 35.6669 165.455 35.7965C166.372 35.9156 167.377 36.1851 168.206 36.5944C168.584 36.7809 169.045 36.698 169.268 36.3146C169.47 35.9726 169.367 35.439 168.988 35.2524C166.859 34.2007 164.304 33.9105 161.983 34.3561C161.569 34.4338 161.336 34.9312 161.439 35.3146C161.558 35.7447 161.983 35.9364 162.398 35.8586H162.403Z" fill="#2B2927"/>
<path d="M160.626 54.7958C160.212 54.8114 159.803 54.801 159.388 54.8062C158.932 54.8062 158.497 54.8528 158.056 54.7181C157.171 54.4435 156.31 54.0497 155.466 53.6767C155.119 53.5213 154.725 53.3762 154.44 53.112C154.202 52.8892 153.87 52.5265 153.813 52.1742C153.709 51.5265 154.585 51.1068 155.093 50.9359C155.487 50.8011 155.896 50.7131 156.295 50.5939C156.777 50.4488 157.186 50.5576 157.678 50.5784C158.093 50.5939 158.512 50.5524 158.927 50.5524C159.44 50.5524 159.948 50.6146 160.455 50.625C160.891 50.6353 161.233 50.6768 161.642 50.8374C162.098 51.0188 162.528 51.2105 162.958 51.4436C163.295 51.6301 163.73 51.7493 164.02 52.0032C164.279 52.2312 164.455 52.6456 164.621 52.9513C164.787 53.257 164.802 53.4332 164.6 53.6974C164.326 54.0497 163.859 54.1637 163.45 54.3399C163.041 54.516 162.668 54.6456 162.207 54.6663C161.678 54.687 161.155 54.7699 160.626 54.7958C160.207 54.8166 159.849 55.1378 159.849 55.573C159.849 55.9771 160.207 56.3709 160.626 56.3502C161.176 56.3243 161.714 56.2414 162.264 56.2155C162.911 56.1896 163.445 56.029 164.03 55.7699C164.507 55.5575 165.01 55.402 165.419 55.0653C165.828 54.7285 166.155 54.2466 166.263 53.7337C166.403 53.086 166.165 52.5213 165.849 51.9721C165.574 51.4902 165.3 51.0239 164.844 50.6923C164.435 50.3918 163.927 50.2001 163.481 49.9618C162.958 49.682 162.388 49.4489 161.828 49.2572C161.269 49.0654 160.642 49.1017 160.036 49.0499C159.476 49.0033 158.922 48.9929 158.362 49.0136C158.093 49.024 157.823 49.0395 157.559 49.0188C157.295 48.9981 157.025 48.9359 156.756 48.9411C156.181 48.9515 155.601 49.1743 155.051 49.3245C153.963 49.6198 152.88 50.1898 152.43 51.2778C151.979 52.3659 152.575 53.5368 153.409 54.2881C153.88 54.7129 154.476 54.9357 155.046 55.1948C155.684 55.4849 156.336 55.7233 156.989 55.9875C157.606 56.2362 158.196 56.3968 158.87 56.3865C159.455 56.3813 160.036 56.3865 160.621 56.3657C161.041 56.3502 161.398 56.0186 161.398 55.5886C161.398 55.1792 161.041 54.7958 160.621 54.8114L160.626 54.7958Z" fill="#A55535"/>
<path d="M167.905 20.3838C167.605 19.7517 167.351 19.1921 166.786 18.7517C166.273 18.3579 165.74 17.9227 165.165 17.6222C164.538 17.2958 163.849 17.1507 163.175 16.9487C162.382 16.7103 161.667 16.8347 160.875 17.0108C160.465 17.1041 160.227 17.5756 160.331 17.9693C160.445 18.389 160.875 18.6015 161.289 18.5134C161.553 18.4564 161.818 18.3787 162.082 18.3579C162.367 18.3372 162.6 18.4046 162.869 18.4875C163.408 18.6533 163.978 18.7465 164.475 19.0263C164.973 19.3061 165.418 19.6429 165.843 19.9848C166.201 20.2698 166.356 20.7516 166.563 21.1765C166.745 21.5547 167.284 21.6532 167.626 21.4563C168.014 21.2283 168.087 20.7724 167.905 20.3941V20.3838Z" fill="#97928C"/>
<path d="M150.947 49.1793C150.688 49.6405 150.414 50.0964 150.269 50.6093C150.124 51.1223 150.041 51.6818 149.984 52.2103C149.958 52.4694 149.947 52.7336 149.937 52.9927C149.922 53.2984 149.865 53.5937 149.854 53.8994C149.833 54.4693 149.989 55.0548 150.139 55.5988C150.32 56.2413 151.32 55.9667 151.139 55.3242C150.999 54.8268 150.859 54.3087 150.896 53.7854C150.927 53.2984 150.968 52.8062 151.01 52.3191C151.051 51.8735 151.134 51.4176 151.243 50.9824C151.362 50.5161 151.611 50.1119 151.844 49.7026C152.17 49.1223 151.279 48.599 150.947 49.1793Z" fill="#BC7F6C"/>
<path d="M192.537 92.3854C191.931 93.3284 191.387 94.3025 190.833 95.2817C190.563 95.7584 190.268 96.235 190.045 96.7324C189.802 97.2765 189.636 97.8567 189.408 98.4111C188.993 99.4318 188.512 100.416 188.164 101.468C187.817 102.52 187.532 103.618 187.253 104.706C186.973 105.794 186.626 106.867 186.46 107.97C186.294 109.074 185.952 110.172 185.838 111.302C185.781 111.846 185.729 112.374 185.636 112.918C185.538 113.494 185.527 114.069 185.455 114.644C185.382 115.219 185.222 115.758 185.222 116.338C185.222 116.918 185.185 117.436 185.133 117.986C185.03 119.105 184.999 120.224 184.905 121.343C184.812 122.462 184.848 123.54 184.833 124.643C184.817 125.747 184.719 126.882 184.703 128.001C184.688 129.12 184.719 130.244 184.781 131.363C184.812 131.913 184.766 132.462 184.76 133.016C184.755 133.571 184.786 134.156 184.755 134.726C184.724 135.296 184.74 135.819 184.766 136.379C184.791 136.938 184.724 137.482 184.709 138.032C184.693 138.581 184.657 139.171 184.631 139.741C184.605 140.311 184.631 140.84 184.641 141.394C184.652 142.513 184.46 143.632 184.486 144.757C184.496 145.301 184.47 145.866 184.424 146.41C184.377 146.954 184.19 147.487 184.216 148.052C184.232 148.337 184.284 148.632 184.247 148.912C184.211 149.166 184.128 149.415 184.076 149.669C183.968 150.228 183.895 150.819 183.838 151.389C183.812 151.653 183.823 151.922 183.812 152.187C183.802 152.472 183.74 152.731 183.672 153.005C183.543 153.544 183.486 154.088 183.393 154.632C183.206 155.736 183.004 156.844 182.755 157.933C182.636 158.471 182.481 159 182.336 159.528C182.071 160.497 183.574 160.907 183.833 159.943C184.128 158.855 184.393 157.772 184.589 156.663C184.683 156.119 184.802 155.58 184.89 155.041C184.978 154.503 185.035 153.953 185.17 153.415C185.31 152.834 185.356 152.285 185.372 151.689C185.387 151.156 185.475 150.601 185.574 150.078C185.683 149.492 185.833 148.959 185.791 148.353C185.776 148.114 185.745 147.876 185.776 147.638C185.812 147.353 185.895 147.073 185.937 146.793C186.102 145.653 185.999 144.493 186.082 143.348C186.118 142.798 186.164 142.249 186.19 141.7C186.216 141.151 186.154 140.601 186.175 140.047C186.216 138.928 186.32 137.804 186.33 136.685C186.33 136.13 186.263 135.586 186.294 135.032C186.325 134.477 186.33 133.933 186.325 133.379C186.32 132.825 186.367 132.239 186.356 131.669C186.346 131.099 186.315 130.566 186.289 130.016C186.237 128.908 186.211 127.763 186.299 126.654C186.341 126.099 186.392 125.561 186.392 125.006C186.392 124.452 186.377 123.903 186.382 123.353C186.392 122.25 186.496 121.157 186.532 120.053C186.569 118.949 186.791 117.82 186.786 116.701C186.786 116.436 186.766 116.167 186.797 115.903C186.828 115.639 186.9 115.395 186.942 115.146C187.04 114.582 187.03 114.006 187.118 113.442C187.289 112.354 187.398 111.26 187.595 110.178C187.693 109.639 187.843 109.105 187.931 108.561C188.019 108.017 188.128 107.442 188.289 106.888C188.89 104.784 189.299 102.603 190.138 100.572C190.361 100.038 190.62 99.5251 190.838 98.9862C191.056 98.4474 191.211 97.9448 191.418 97.4371C191.625 96.9293 191.936 96.4682 192.201 96.0019C192.465 95.5356 192.745 95.0486 193.009 94.5667C193.273 94.0849 193.574 93.6237 193.874 93.1626C194.418 92.3181 193.071 91.5409 192.532 92.3802L192.537 92.3854Z" fill="#699055"/>
<path d="M200.101 99.1624C199.816 99.8204 199.537 100.478 199.246 101.131C198.956 101.784 198.594 102.359 198.402 103.022C198.319 103.307 198.267 103.608 198.153 103.882C198.039 104.157 197.873 104.427 197.749 104.706C197.459 105.364 197.148 106.022 196.982 106.717C196.827 107.364 196.5 107.924 196.283 108.551C196.065 109.178 195.842 109.872 195.625 110.53C195.407 111.188 195.21 111.898 194.946 112.566C194.682 113.235 194.402 113.898 194.283 114.571C194.221 114.924 194.2 115.276 194.081 115.618C193.962 115.96 193.796 116.265 193.692 116.607C193.578 117.001 193.532 117.411 193.423 117.804C193.314 118.198 193.169 118.581 193.055 118.975C192.785 119.939 194.283 120.353 194.552 119.39C194.744 118.716 194.951 118.063 195.101 117.379C195.252 116.696 195.609 116.152 195.708 115.488C195.754 115.188 195.78 114.892 195.873 114.597C195.982 114.245 196.117 113.903 196.231 113.551C196.459 112.872 196.723 112.209 196.93 111.52C197.138 110.83 197.366 110.198 197.583 109.54C197.671 109.266 197.754 108.986 197.868 108.717C198.013 108.38 198.189 108.059 198.314 107.717C198.417 107.437 198.469 107.141 198.547 106.851C198.635 106.53 198.775 106.23 198.904 105.924C199.169 105.312 199.521 104.711 199.723 104.074C199.827 103.748 199.878 103.401 200.018 103.09C200.158 102.779 200.329 102.494 200.469 102.188C200.801 101.442 201.117 100.686 201.443 99.9344C201.609 99.551 201.557 99.1003 201.163 98.8723C200.832 98.6806 200.267 98.7635 200.101 99.1521V99.1624Z" fill="#699055"/>
<path d="M138.227 113.224C138.088 113.965 137.994 114.722 137.901 115.468C137.808 116.214 137.823 116.919 137.756 117.644C137.689 118.369 137.564 119.058 137.59 119.753C137.606 120.095 137.647 120.437 137.632 120.784C137.616 121.146 137.549 121.509 137.544 121.872C137.538 122.234 137.59 122.597 137.606 122.96C137.621 123.323 137.606 123.685 137.611 124.048C137.616 124.758 137.689 125.457 137.673 126.162C137.658 126.866 137.658 127.613 137.673 128.338C137.689 129.063 137.756 129.747 137.761 130.452C137.777 131.882 137.751 133.322 137.689 134.747C137.658 135.421 137.652 136.105 137.544 136.773C137.43 137.488 137.414 138.229 137.238 138.928C137.15 139.275 137.041 139.617 136.989 139.975C136.937 140.332 136.963 140.721 136.865 141.078C136.683 141.757 136.424 142.426 136.191 143.089C136.077 143.415 135.994 143.747 135.896 144.073C135.803 144.374 135.658 144.638 135.507 144.918C135.186 145.498 135.036 146.156 134.684 146.716C134.29 147.337 133.839 147.912 133.424 148.519C133.01 149.125 132.611 149.757 132.067 150.275C131.803 150.529 131.487 150.731 131.212 150.969C130.938 151.208 130.637 151.472 130.337 151.705C130.072 151.912 129.829 152.156 129.549 152.347C129.197 152.581 128.813 152.762 128.44 152.954C128.067 153.145 127.958 153.669 128.16 154.016C128.383 154.394 128.85 154.487 129.223 154.296C129.886 153.954 130.482 153.607 131.046 153.125C131.549 152.695 132.057 152.249 132.58 151.85C133.72 150.98 134.45 149.752 135.285 148.602C135.694 148.037 136.124 147.436 136.383 146.788C136.487 146.529 136.564 146.254 136.689 146.001C136.844 145.685 137.031 145.394 137.176 145.073C137.476 144.389 137.652 143.643 137.891 142.938C138.129 142.234 138.419 141.508 138.476 140.752C138.502 140.426 138.518 140.13 138.6 139.814C138.704 139.426 138.797 139.047 138.854 138.648C138.953 137.918 139.067 137.177 139.139 136.441C139.284 134.996 139.248 133.54 139.3 132.089C139.352 130.638 139.212 129.151 139.212 127.675C139.212 126.949 139.243 126.219 139.227 125.499C139.212 124.778 139.16 124.053 139.155 123.323C139.155 122.918 139.113 122.519 139.098 122.115C139.082 121.711 139.139 121.312 139.17 120.908C139.202 120.504 139.145 120.1 139.139 119.696C139.134 119.292 139.202 118.893 139.243 118.489C139.326 117.685 139.347 116.877 139.393 116.074C139.44 115.271 139.58 114.437 139.725 113.639C139.803 113.224 139.611 112.8 139.181 112.68C138.803 112.577 138.3 112.81 138.222 113.224H138.227Z" fill="#699055"/>
</g>
<defs>
<clipPath id="clip0_4671_41494">
<rect width="226" height="162" fill="white" transform="translate(47)"/>
</clipPath>
<clipPath id="clip1_4671_41494">
<rect width="49.4208" height="31.7988" fill="white" transform="matrix(-0.972697 0.232077 0.232077 0.972697 129.071 70)"/>
</clipPath>
<clipPath id="clip2_4671_41494">
<rect width="31" height="30" fill="white" transform="translate(115 68)"/>
</clipPath>
</defs>
</svg>
