<svg width="320" height="162" viewBox="0 0 320 162" fill="none" xmlns="http://www.w3.org/2000/svg">
<g clip-path="url(#clip0_4632_16137)">
<path d="M265.567 22.0002H55.381C51.2904 22.0002 47.9742 24.8381 47.9742 28.3388V155.662C47.9742 159.162 51.2904 162 55.381 162H265.567C269.658 162 272.974 159.162 272.974 155.662V28.3388C272.974 24.8381 269.658 22.0002 265.567 22.0002Z" fill="#EDE6DF"/>
<g clip-path="url(#clip1_4632_16137)">
<path d="M171.434 18.8703C171.424 18.7916 171.34 18.7234 171.335 18.6447C171.282 18.2198 171.298 17.7897 171.214 17.3701C171.13 16.9505 171.046 16.5256 170.925 16.1217C170.805 15.7178 170.663 15.3035 170.49 14.9101C170.317 14.5167 170.086 14.1547 169.861 13.7876C169.63 13.4204 169.41 13.0427 169.132 12.7123C168.854 12.3818 168.544 12.0776 168.224 11.7839C167.904 11.4901 167.574 11.2121 167.233 10.9499C166.892 10.6876 166.467 10.5407 166.105 10.3047C165.743 10.0686 165.381 9.83785 165.009 9.62279C164.652 9.41823 164.348 9.114 163.981 8.92517C163.614 8.73634 163.215 8.61045 162.842 8.43735C162.47 8.26426 162.071 8.14362 161.689 7.98626C161.306 7.8289 160.959 7.58762 160.571 7.44075C160.183 7.29388 159.8 7.14177 159.407 7.01588C159.013 6.88999 158.61 6.80082 158.211 6.69067C157.812 6.58052 157.393 6.55429 156.994 6.45463C156.595 6.35497 156.202 6.21859 155.798 6.13991C155.394 6.06123 154.996 5.94584 154.586 5.88289C154.177 5.81995 153.768 5.77799 153.359 5.72554C152.95 5.67308 152.535 5.68357 152.121 5.6521C151.707 5.62063 151.298 5.58916 150.888 5.56818C150.479 5.54719 150.065 5.44229 149.656 5.43704C149.247 5.4318 148.832 5.4895 148.418 5.49474C148.004 5.49999 147.594 5.54719 147.185 5.56818C146.776 5.58916 146.362 5.63637 145.953 5.67308C145.538 5.7098 145.108 5.63636 144.699 5.69406C144.29 5.75176 143.886 5.88814 143.477 5.96157C143.068 6.03501 142.643 6.0455 142.239 6.14516C141.835 6.24482 141.431 6.37071 141.038 6.50184C140.644 6.63297 140.298 6.89524 139.91 7.0526C139.496 7.22569 139.081 7.38829 138.672 7.57713C138.263 7.76596 137.849 7.93905 137.424 8.08592C136.931 8.25901 136.406 8.30622 135.897 8.41637C135.389 8.52652 134.89 8.68388 134.381 8.78354C133.978 8.86222 133.563 8.88845 133.159 8.98287C132.755 9.07728 132.346 9.14547 131.948 9.25038C131.549 9.35528 131.156 9.49691 130.762 9.6123C130.369 9.7277 129.975 9.86408 129.587 10.0005C129.199 10.1368 128.821 10.3047 128.433 10.4568C128.045 10.6089 127.678 10.7872 127.3 10.9499C126.923 11.1125 126.545 11.2751 126.173 11.4586C125.8 11.6422 125.464 11.8835 125.103 12.0828C124.741 12.2822 124.316 12.3713 123.964 12.5864C123.613 12.8014 123.314 13.1004 122.973 13.3365C122.632 13.5725 122.302 13.8138 121.976 14.0656C121.651 14.3173 121.336 14.5796 121.027 14.8524C120.717 15.1251 120.377 15.3611 120.083 15.6496C119.789 15.9381 119.522 16.2581 119.249 16.5623C118.976 16.8666 118.745 17.2127 118.488 17.538C118.231 17.8632 117.89 18.1202 117.654 18.4611C117.418 18.8021 117.298 19.2164 117.088 19.5679C116.878 19.9193 116.652 20.2655 116.464 20.6327C116.275 20.9998 116.075 21.3618 115.913 21.7394C115.75 22.1171 115.603 22.5052 115.472 22.8934C115.341 23.2816 115.294 23.6959 115.194 24.0998C115.095 24.5037 114.958 24.8919 114.89 25.2957C114.817 25.7311 114.817 26.1665 114.785 26.5913C114.754 27.0162 114.743 27.4568 114.754 27.8869C114.764 28.317 114.775 28.7524 114.827 29.1825C114.879 29.6126 114.979 30.0323 115.063 30.4571C115.147 30.882 115.126 31.3278 115.236 31.7527C115.346 32.1776 115.561 32.5605 115.687 32.9749C115.813 33.3892 115.887 33.8194 116.028 34.2285C116.17 34.6376 116.359 35.031 116.505 35.4402C116.652 35.8493 116.799 36.2532 116.951 36.6623C117.103 37.0714 117.245 37.4753 117.392 37.8845C117.539 38.2936 117.686 38.7027 117.827 39.1119C117.969 39.521 118.132 39.9249 118.257 40.3393C118.383 40.7536 118.499 41.1733 118.609 41.5929C118.719 42.0125 118.787 42.4426 118.871 42.8675C118.955 43.2924 119.097 43.6753 119.217 44.0739C119.338 44.4726 119.432 44.8817 119.584 45.2751C119.737 45.6685 119.92 46.0409 120.093 46.4238C120.266 46.8067 120.382 47.2106 120.571 47.5883C120.759 47.9659 120.938 48.3383 121.137 48.7108C121.336 49.0832 121.583 49.4189 121.788 49.786C121.992 50.1532 122.233 50.4942 122.433 50.8666C122.632 51.239 122.789 51.6272 122.978 51.9996C123.167 52.372 123.403 52.7287 123.576 53.1063C123.749 53.484 123.859 53.8984 124.012 54.2865C124.164 54.6747 124.295 55.0733 124.421 55.4772C124.547 55.8811 124.657 56.2797 124.746 56.6941C124.835 57.1085 124.83 57.5176 124.882 57.9425C124.929 58.3306 125.071 58.7135 125.124 59.1069C125.176 59.5003 125.234 59.8885 125.328 60.2714C125.423 60.6543 125.454 61.0687 125.632 61.4254C125.811 61.7821 126.104 62.0705 126.398 62.3328C126.692 62.5951 127.075 62.7314 127.442 62.8468C127.809 62.9622 128.155 63.1144 128.543 62.999C128.612 63.4081 128.863 63.6913 129.078 64.0323C129.294 64.3732 129.493 64.7509 129.813 65.0079C130.133 65.2649 130.526 65.4223 130.899 65.5744C131.271 65.7265 131.659 65.8786 132.063 65.9468C132.467 66.015 132.876 66.078 133.285 66.078C133.694 66.078 134.109 66.036 134.513 65.9888C134.922 65.9416 135.352 65.8944 135.782 65.8052C136.212 65.716 136.605 65.6164 137.03 65.501C137.455 65.3856 137.817 65.181 138.226 65.0446C138.635 64.9082 139.055 64.8401 139.454 64.6827C139.852 64.5253 140.204 64.2683 140.592 64.0952C140.98 63.9221 141.368 63.749 141.746 63.555C142.124 63.3609 142.501 63.1563 142.863 62.9413C143.225 62.7262 143.645 62.5741 143.996 62.3381C144.348 62.102 144.647 61.7716 144.982 61.5145C145.318 61.2575 145.622 60.948 145.932 60.6648C146.241 60.3816 146.608 60.1298 146.892 59.8203C147.175 59.5108 147.4 59.1279 147.642 58.7922C147.904 58.4303 148.24 58.1208 148.502 57.7589C148.764 57.397 148.995 57.0141 149.257 56.6521C149.519 56.2902 149.792 55.9388 150.054 55.5769C150.317 55.2149 150.637 54.895 150.899 54.533C151.161 54.1711 151.418 53.72 151.68 53.3581C151.287 53.0119 151.119 53.3109 150.616 53.164C150.112 53.0172 150.112 53.0224 149.609 52.8755C149.105 52.7287 149.042 52.8388 148.659 52.4821C148.927 52.0835 149.163 51.7478 149.43 51.3491C149.698 50.9505 149.997 50.5781 150.254 50.1742C150.469 49.8333 150.589 49.4346 150.768 49.0727C150.946 48.7108 151.14 48.3541 151.313 47.9922C151.486 47.6302 151.649 47.2526 151.854 46.9116C152.058 46.5707 152.299 46.2402 152.583 45.9465C152.866 45.6528 153.191 45.4639 153.558 45.2489C153.946 45.0233 154.329 44.8083 154.723 44.6247C155.116 44.4411 155.489 44.1526 155.892 43.9847C156.296 43.8169 156.732 43.6858 157.141 43.5232C157.55 43.3606 158.001 43.2871 158.405 43.1088C158.809 42.9304 159.218 42.7521 159.611 42.5475C160.005 42.343 160.346 42.0545 160.718 41.8079C161.091 41.5614 161.426 41.2992 161.767 41.0002C162.087 40.7169 162.449 40.4494 162.748 40.1032C163.068 39.7361 163.257 39.3007 163.509 38.9335C163.776 38.5401 164.08 38.1887 164.306 37.7901C164.531 37.3914 164.71 36.9613 164.925 36.5417C165.14 36.122 165.308 35.7077 165.539 35.288C165.733 34.9314 165.963 34.5904 166.194 34.26C166.425 33.9295 166.693 33.62 166.944 33.3001C167.196 32.9801 167.427 32.6497 167.679 32.3297C167.93 32.0097 168.271 31.758 168.502 31.4275C168.733 31.097 168.827 30.6774 169.021 30.3207C169.231 29.9326 169.514 29.5864 169.698 29.1878C169.882 28.7891 170.023 28.3695 170.181 27.9604C170.338 27.5512 170.564 27.1578 170.695 26.7382C170.826 26.3186 170.889 25.878 170.994 25.4479C171.099 25.0177 171.156 24.5824 171.23 24.1523C171.303 23.7222 171.46 23.292 171.508 22.8567C171.555 22.4213 171.476 21.9702 171.492 21.5296C171.508 21.089 171.607 20.6484 171.592 20.2078C171.576 19.7672 171.502 19.3266 171.455 18.8912L171.434 18.8703Z" fill="#97928C"/>
<path d="M99.1966 107.861C99.3435 107.468 99.6057 107.116 99.7578 106.718C99.9099 106.319 100.025 105.915 100.177 105.527C100.33 105.139 100.424 104.719 100.587 104.326C100.749 103.932 100.98 103.576 101.143 103.188C101.305 102.799 101.426 102.39 101.594 102.002C101.762 101.614 101.919 101.221 102.097 100.838C102.276 100.455 102.496 100.093 102.679 99.71C102.863 99.3271 103.062 98.9599 103.251 98.5822C103.44 98.2046 103.702 97.8636 103.896 97.4912C104.09 97.1188 104.206 96.6992 104.41 96.332C104.615 95.9648 104.888 95.6344 105.098 95.2672C105.307 94.9 105.496 94.5224 105.711 94.1604C105.926 93.7985 106.194 93.4681 106.419 93.1114C106.645 92.7547 106.818 92.3666 107.049 92.0151C107.28 91.6637 107.468 91.2755 107.71 90.9346C107.951 90.5936 108.192 90.2422 108.444 89.9013C108.696 89.5603 108.958 89.2299 109.215 88.8942C109.472 88.5585 109.818 88.2962 110.086 87.971C110.353 87.6458 110.637 87.3311 110.909 87.0111C111.182 86.6911 111.46 86.3764 111.743 86.0617C112.027 85.747 112.294 85.4218 112.588 85.1175C112.876 84.8186 113.128 84.4829 113.427 84.1891C113.726 83.8954 114.067 83.6489 114.371 83.3656C114.675 83.0824 114.985 82.8044 115.3 82.5316C115.614 82.2589 115.913 81.9651 116.239 81.7029C116.564 81.4406 116.91 81.2046 117.24 80.9528C117.571 80.701 117.912 80.4597 118.253 80.2184C118.594 79.9772 118.893 79.6729 119.239 79.4421C119.585 79.2113 119.942 78.9858 120.293 78.7655C120.645 78.5452 121.059 78.4193 121.421 78.2147C121.783 78.0102 122.108 77.7322 122.475 77.5381C122.842 77.344 123.246 77.2181 123.624 77.0345C124.002 76.851 124.337 76.5939 124.72 76.4261C125.103 76.2582 125.497 76.1166 125.885 75.9645C126.273 75.8124 126.687 75.7232 127.075 75.5816C127.464 75.44 127.846 75.2669 128.245 75.141C128.298 75.1148 128.371 75.141 128.423 75.1148C128.796 74.9312 129.163 74.7476 129.546 74.585C129.929 74.4224 130.301 74.2545 130.695 74.1077C131.088 73.9608 131.445 73.7405 131.843 73.6146C132.242 73.4887 132.667 73.4782 133.071 73.3733C133.475 73.2684 133.847 73.0639 134.256 72.9747C134.665 72.8855 135.074 72.8331 135.484 72.7596C135.893 72.6862 136.307 72.66 136.721 72.6023C137.136 72.5446 137.534 72.4239 137.949 72.3767C138.363 72.3295 138.783 72.3767 139.197 72.34C139.612 72.3033 140.021 72.2246 140.435 72.1984C140.85 72.1722 141.264 72.1826 141.678 72.1617C142.093 72.1407 142.512 72.1879 142.921 72.1826C143.352 72.1722 143.776 72.0515 144.206 72.0515C144.637 72.0515 145.067 72.0777 145.497 72.083C145.927 72.0882 146.352 72.1564 146.782 72.1722C147.212 72.1879 147.647 72.1249 148.072 72.1512C148.497 72.1774 148.927 72.2718 149.352 72.3085C149.777 72.3452 150.202 72.4554 150.627 72.5079C151.052 72.5603 151.492 72.5131 151.917 72.576C152.342 72.639 152.751 72.7911 153.176 72.8698C153.601 72.9485 154.031 72.9747 154.451 73.0639C154.87 73.153 155.295 73.2212 155.709 73.3314C156.124 73.4415 156.549 73.5307 156.958 73.6513C157.372 73.7772 157.787 73.9083 158.19 74.05C158.594 74.1916 158.998 74.3542 159.397 74.5168C159.796 74.6794 160.199 74.842 160.588 75.0203C160.976 75.1987 161.317 75.4872 161.7 75.6813C162.082 75.8753 162.486 76.0379 162.854 76.253C163.221 76.4681 163.577 76.7146 163.939 76.9454C164.301 77.1762 164.663 77.4122 165.015 77.6535C165.366 77.8948 165.749 78.1098 166.09 78.3669C166.431 78.6239 166.725 78.9491 167.055 79.2218C167.385 79.4946 167.779 79.6992 168.099 79.9824C168.419 80.2657 168.676 80.6223 168.985 80.9213C169.311 81.1731 169.609 81.4563 169.929 81.7238C170.249 81.9914 170.564 82.2484 170.874 82.5211C171.183 82.7939 171.498 83.0562 171.807 83.3342C172.117 83.6122 172.416 83.8902 172.715 84.1734C173.014 84.4566 173.318 84.7346 173.622 85.0179C173.926 85.3011 174.315 85.4847 174.619 85.7627C174.923 86.0407 175.159 86.3922 175.468 86.6649C175.778 86.9377 176.082 87.2157 176.392 87.4884C176.701 87.7612 176.99 88.0602 177.304 88.3224C177.619 88.5847 177.997 88.7788 178.322 89.0253C178.658 89.2823 178.978 89.5551 179.329 89.7859C179.68 90.0167 180.021 90.2684 180.389 90.473C180.756 90.6776 181.144 90.8454 181.522 91.029C181.899 91.2126 182.324 91.286 182.712 91.4486C183.1 91.6112 183.462 91.8315 183.861 91.9732C184.26 92.1148 184.663 92.2197 185.062 92.3508C185.461 92.482 185.859 92.6183 186.258 92.739C186.657 92.8596 187.055 93.0117 187.459 93.1271C187.863 93.2425 188.272 93.3474 188.676 93.4628C189.08 93.5782 189.484 93.7041 189.883 93.8195C190.281 93.9349 190.701 94.0136 191.099 94.1342C191.498 94.2549 191.886 94.4384 192.28 94.5748C192.673 94.7112 193.077 94.8371 193.465 94.984C193.853 95.1308 194.247 95.2829 194.63 95.4455C195.012 95.6082 195.406 95.7603 195.784 95.9491C196.161 96.1379 196.544 96.311 196.906 96.5208C197.268 96.7306 197.651 96.9142 198.002 97.145C198.354 97.3758 198.658 97.68 198.994 97.9266C199.329 98.1731 199.723 98.3619 200.048 98.6242C200.373 98.8865 200.641 99.2274 200.95 99.5107C201.26 99.7939 201.622 100.025 201.921 100.318C202.22 100.612 202.461 100.969 202.744 101.273C203.027 101.577 203.295 101.908 203.573 102.222C203.851 102.537 204.108 102.868 204.37 103.198C204.632 103.529 204.916 103.838 205.162 104.179C205.409 104.52 205.618 104.887 205.854 105.233C206.091 105.579 206.332 105.926 206.552 106.282C206.772 106.639 206.993 107.001 207.203 107.363C207.412 107.725 207.722 108.04 207.921 108.407C208.12 108.774 208.309 109.173 208.493 109.555C208.676 109.938 208.75 110.379 208.928 110.767C209.107 111.155 209.332 111.522 209.495 111.921C209.657 112.32 209.862 112.697 210.014 113.096C210.166 113.495 210.219 113.93 210.36 114.334C210.502 114.738 210.617 115.147 210.743 115.556C210.869 115.965 211.032 116.364 211.152 116.773C211.273 117.182 211.462 117.575 211.572 117.99C211.682 118.404 211.734 118.829 211.834 119.249C211.934 119.668 211.992 120.088 212.086 120.508C212.18 120.927 212.285 121.342 212.364 121.761C212.443 122.181 212.579 122.59 212.658 123.015C212.736 123.44 212.805 123.859 212.873 124.279C212.941 124.699 212.92 125.139 212.983 125.559C213.046 125.978 213.161 126.398 213.219 126.823C213.277 127.248 213.355 127.667 213.408 128.092C213.46 128.517 213.518 128.942 213.565 129.367C213.607 129.787 213.534 130.217 213.576 130.636C213.618 131.056 213.722 131.465 213.754 131.885C213.785 132.304 213.733 132.729 213.754 133.149C213.775 133.568 213.806 133.988 213.812 134.408C213.817 134.827 213.948 135.247 213.943 135.672C213.938 136.097 213.896 136.516 213.869 136.936C213.843 137.355 213.806 137.775 213.77 138.195C213.733 138.614 213.597 139.018 213.534 139.438C213.471 139.857 213.465 140.277 213.382 140.692C213.298 141.106 213.14 141.499 213.03 141.903C212.92 142.307 212.768 142.7 212.631 143.094C212.495 143.487 212.369 143.891 212.207 144.279C212.044 144.667 211.871 145.05 211.677 145.423C211.483 145.795 211.304 146.178 211.079 146.535C210.853 146.891 210.638 147.253 210.386 147.589C210.135 147.925 209.857 148.245 209.573 148.554C209.29 148.864 209.033 149.21 208.724 149.493C208.414 149.776 208 149.934 207.659 150.186C207.297 150.448 206.977 150.757 206.599 150.978C206.222 151.198 205.818 151.397 205.419 151.576C205.02 151.754 204.606 151.922 204.186 152.063C203.767 152.205 203.332 152.273 202.901 152.383C202.471 152.493 202.052 152.609 201.616 152.688C201.181 152.766 200.751 152.876 200.315 152.929C199.88 152.981 199.429 152.903 198.988 152.929C198.548 152.955 198.112 153.102 197.677 153.112C197.341 153.123 196.917 153.06 196.444 153.007C196.067 152.965 195.658 152.876 195.228 152.813C194.834 152.756 194.42 152.698 194.005 152.646C193.591 152.593 193.177 152.619 192.773 152.588C192.369 152.556 191.939 152.483 191.54 152.493C191.099 152.504 190.696 152.588 190.328 152.672C189.888 152.771 189.521 152.924 189.243 153.175C189.064 153.333 188.912 153.737 188.792 154.34C188.718 154.702 188.697 155.137 188.645 155.609C188.597 156.008 188.445 156.427 188.414 156.873C188.382 157.288 188.461 157.723 188.44 158.158C188.419 158.594 188.335 159.008 188.319 159.438C188.304 159.868 188.34 160.304 188.325 160.723C188.309 161.143 188.304 161.594 188.293 162.008C188.283 162.459 188.272 162.895 188.267 163.294C188.267 163.771 188.257 164.206 188.257 164.573C188.257 165.36 188.23 165.9 188.22 165.9C187.8 165.9 187.375 165.89 186.956 165.885C186.536 165.879 186.111 165.848 185.692 165.843C185.272 165.837 184.847 165.879 184.427 165.879C184.008 165.879 183.583 165.837 183.163 165.832C182.744 165.827 182.319 165.853 181.899 165.853C181.48 165.853 181.055 165.78 180.635 165.775C180.215 165.769 179.791 165.754 179.371 165.754C178.951 165.754 178.526 165.801 178.107 165.801C177.687 165.801 177.262 165.843 176.843 165.843C176.423 165.843 175.998 165.796 175.579 165.796C175.159 165.796 174.734 165.848 174.315 165.848C173.895 165.848 173.47 165.785 173.05 165.785C172.631 165.785 172.206 165.78 171.786 165.775C171.367 165.769 170.942 165.775 170.522 165.775C170.103 165.775 169.678 165.696 169.258 165.696C168.838 165.696 168.414 165.801 167.994 165.796C167.574 165.79 167.149 165.79 166.73 165.79C166.31 165.79 165.885 165.68 165.466 165.675C165.046 165.67 164.621 165.717 164.202 165.717C163.782 165.717 163.357 165.801 162.937 165.796C162.518 165.79 162.093 165.643 161.673 165.643C161.254 165.643 160.829 165.78 160.409 165.775C159.99 165.769 159.565 165.659 159.145 165.659C158.725 165.659 158.301 165.722 157.881 165.722C157.461 165.722 157.036 165.675 156.617 165.675C156.197 165.675 155.772 165.633 155.353 165.633C154.933 165.633 154.508 165.638 154.089 165.633C153.669 165.628 153.244 165.607 152.825 165.601C152.405 165.596 151.98 165.607 151.56 165.601C151.141 165.596 150.716 165.691 150.296 165.685C149.877 165.68 149.452 165.601 149.032 165.601C148.613 165.601 148.188 165.696 147.768 165.696C147.348 165.696 146.924 165.675 146.504 165.67C146.084 165.664 145.659 165.664 145.24 165.659C144.82 165.654 144.395 165.559 143.976 165.559C143.556 165.559 143.131 165.649 142.712 165.643C142.292 165.638 141.867 165.68 141.447 165.68C141.028 165.68 140.603 165.601 140.183 165.596C139.764 165.591 139.339 165.664 138.919 165.664C138.5 165.664 138.075 165.57 137.655 165.57C137.235 165.57 136.811 165.607 136.391 165.607C135.971 165.607 135.547 165.591 135.127 165.591C134.707 165.591 134.282 165.518 133.863 165.512C133.443 165.507 133.018 165.502 132.599 165.502C132.179 165.502 131.754 165.617 131.335 165.617C130.915 165.617 130.49 165.617 130.07 165.617C129.651 165.617 129.226 165.497 128.806 165.491C128.387 165.486 127.962 165.533 127.542 165.533C127.123 165.533 126.698 165.486 126.278 165.486C125.858 165.486 125.434 165.559 125.014 165.559C124.594 165.559 124.169 165.518 123.75 165.518C123.33 165.518 122.905 165.538 122.486 165.533C122.066 165.528 121.641 165.533 121.222 165.528C120.802 165.523 120.377 165.465 119.957 165.46C119.538 165.455 119.113 165.47 118.693 165.465C118.274 165.46 117.849 165.575 117.429 165.575C117.01 165.575 116.585 165.533 116.165 165.533C115.746 165.533 115.321 165.428 114.896 165.428C114.471 165.46 114.046 165.486 113.621 165.518C113.196 165.549 112.777 165.649 112.352 165.675C111.927 165.701 111.502 165.727 111.077 165.743C110.652 165.759 110.227 165.717 109.803 165.727C109.378 165.738 108.958 165.864 108.533 165.874C108.108 165.885 107.683 165.806 107.259 165.806C106.834 165.806 106.409 165.848 105.984 165.848C105.559 165.848 105.134 165.89 104.709 165.885C104.285 165.879 103.86 165.864 103.435 165.853C103.01 165.843 102.585 165.806 102.16 165.79C101.735 165.775 101.31 165.78 100.886 165.764C100.461 165.748 100.041 165.601 99.6215 165.575C99.2018 165.549 98.7612 165.664 98.3416 165.638C97.922 165.612 97.5024 165.481 97.0775 165.444C96.6526 165.407 96.2277 165.407 95.8029 165.365C95.378 165.323 94.9636 165.203 94.544 165.156C94.1244 165.108 93.6943 165.124 93.2746 165.072C93.2117 164.657 93.1278 164.243 93.0701 163.829C93.0124 163.414 93.0543 162.984 93.0019 162.564C92.9494 162.145 92.7921 161.741 92.7449 161.321C92.6977 160.902 92.7501 160.472 92.7081 160.057C92.6662 159.643 92.5193 159.228 92.4774 158.809C92.4354 158.389 92.4931 157.964 92.4564 157.545C92.4197 157.125 92.2728 156.716 92.2466 156.291C92.2203 155.866 92.1941 155.452 92.1679 155.027C92.1417 154.602 92.2256 154.182 92.2098 153.758C92.1941 153.333 92.1154 152.918 92.0997 152.499C92.084 152.079 92.0368 151.659 92.0263 151.235C92.0158 150.81 91.9948 150.39 91.9895 149.97C91.9843 149.551 92.0158 149.126 92.0158 148.706C92.0158 148.287 92.0368 147.862 92.042 147.442C92.0472 147.023 92.0892 146.603 92.0944 146.178C92.0997 145.753 92.0735 145.334 92.084 144.914C92.0944 144.494 92.063 144.069 92.084 143.65C92.1049 143.23 92.1731 142.811 92.1941 142.391C92.2151 141.971 92.2623 141.552 92.2885 141.132C92.3148 140.712 92.3567 140.293 92.3882 139.873C92.4197 139.454 92.3829 139.029 92.4144 138.609C92.4459 138.189 92.5298 137.775 92.5665 137.355C92.6032 136.936 92.6137 136.516 92.6557 136.097C92.6977 135.677 92.7501 135.257 92.8026 134.843C92.855 134.429 92.9966 134.019 93.0491 133.6C93.1015 133.18 93.133 132.761 93.1855 132.346C93.2379 131.932 93.2537 131.507 93.3166 131.087C93.3795 130.668 93.474 130.259 93.5422 129.844C93.6103 129.43 93.7152 129.021 93.7834 128.606C93.8516 128.192 93.9303 127.778 94.0037 127.363C94.0772 126.949 94.1454 126.534 94.2293 126.12C94.3132 125.706 94.2817 125.27 94.3657 124.861C94.4496 124.452 94.6489 124.059 94.7381 123.65C94.8272 123.24 94.843 122.81 94.9374 122.401C95.0318 121.992 95.1892 121.593 95.2888 121.184C95.3885 120.775 95.3885 120.345 95.4934 119.936C95.5983 119.527 95.7137 119.123 95.8186 118.714C95.9235 118.305 96.0442 117.901 96.1543 117.497C96.2645 117.093 96.3799 116.684 96.4953 116.28C96.6107 115.876 96.789 115.488 96.9044 115.084C97.0198 114.68 97.1719 114.287 97.2925 113.883C97.4132 113.479 97.4447 113.049 97.5758 112.645C97.7069 112.241 97.8276 111.842 97.9587 111.444C98.0898 111.045 98.3101 110.673 98.4465 110.274C98.5829 109.875 98.7402 109.487 98.8819 109.089C99.0235 108.69 99.0445 108.249 99.1913 107.856L99.1966 107.861Z" fill="#6B8EBF"/>
<path d="M177.922 109.067C178.111 109.738 178.321 110.405 178.526 111.071C178.72 111.7 178.804 112.351 178.972 112.985C179.333 114.333 179.648 115.697 179.942 117.061C180.236 118.425 180.487 119.736 180.813 121.063C180.97 121.693 181.075 122.364 181.112 123.014C181.133 123.381 181.159 123.743 181.222 124.111C181.274 124.436 181.369 124.761 181.39 125.091C181.411 125.422 181.379 125.768 181.39 126.109C181.405 126.471 181.468 126.822 181.505 127.179C181.573 127.871 181.51 128.574 181.563 129.267C181.615 129.959 181.62 130.662 181.584 131.36C181.568 131.68 181.51 131.989 181.479 132.304C181.442 132.687 181.474 133.064 181.479 133.447C181.5 134.087 181.306 134.701 181.306 135.341C181.306 135.682 181.337 136.017 181.321 136.358C181.306 136.741 181.248 137.114 181.227 137.497C181.211 137.817 181.237 138.131 181.264 138.451C181.29 138.813 181.274 139.17 181.258 139.527C181.232 140.245 181.248 140.959 181.248 141.677C181.248 142.438 181.248 143.198 181.337 143.959C181.384 144.357 181.489 144.735 181.584 145.129C181.657 145.438 181.662 145.747 181.694 146.067C181.773 146.828 182.071 147.52 182.287 148.244C182.517 149.01 182.848 149.697 183.199 150.416C183.388 150.799 183.928 150.904 184.275 150.699C184.663 150.473 184.747 150.007 184.558 149.624C184.275 149.047 184.007 148.506 183.823 147.893C183.65 147.316 183.367 146.728 183.273 146.13C183.22 145.795 183.225 145.448 183.173 145.113C183.126 144.809 183.037 144.515 182.963 144.211C182.811 143.592 182.806 142.894 182.811 142.259C182.811 141.562 182.811 140.864 182.811 140.166C182.811 139.469 182.848 138.776 182.801 138.079C182.753 137.381 182.905 136.689 182.895 135.991C182.89 135.676 182.864 135.362 182.89 135.042C182.916 134.722 182.995 134.397 183.031 134.071C183.11 133.384 183 132.697 183.084 132.005C183.168 131.312 183.178 130.615 183.168 129.917C183.157 129.22 183.105 128.569 183.1 127.887C183.094 127.205 182.942 126.502 182.953 125.8C182.953 125.443 182.963 125.097 182.916 124.74C182.869 124.383 182.769 124.006 182.722 123.633C182.633 122.941 182.607 122.243 182.491 121.551C182.386 120.9 182.192 120.276 182.071 119.626C181.951 118.975 181.82 118.299 181.673 117.638C181.327 116.112 181.022 114.575 180.619 113.064C180.43 112.366 180.325 111.653 180.131 110.961C179.916 110.19 179.659 109.424 179.438 108.653C179.166 107.677 177.644 108.091 177.922 109.072V109.067Z" fill="#4E719B"/>
<path d="M155.175 62.4785C155.164 62.8824 155.243 63.281 155.248 63.6849C155.253 64.0888 155.274 64.4874 155.29 64.8861C155.306 65.2847 155.201 65.6939 155.227 66.0977C155.253 66.5016 155.327 66.895 155.363 67.2989C155.4 67.7028 155.463 68.0962 155.51 68.4949C155.558 68.8935 155.526 69.3026 155.584 69.7013C155.641 70.0999 155.752 70.4881 155.82 70.8867C155.888 71.2854 156.045 71.663 156.124 72.0564C156.203 72.4498 156.281 72.8432 156.371 73.2366C156.46 73.63 156.57 74.0129 156.67 74.4011C156.748 74.7 156.822 75.0987 156.664 75.3505C156.507 75.6022 156.135 75.6547 155.857 75.6862C155.426 75.7281 154.996 75.7491 154.566 75.7858C154.136 75.8225 153.706 75.8855 153.276 75.917C152.846 75.9484 152.41 75.9746 151.98 75.9956C151.55 76.0166 151.115 75.9222 150.679 75.9327C150.244 75.9432 149.819 76.0271 149.384 76.0323C148.948 76.0376 148.518 75.9537 148.088 75.9537C147.658 75.9537 147.223 75.9746 146.793 75.9642C146.363 75.9537 145.927 75.9484 145.497 75.9327C145.067 75.9169 144.632 75.9169 144.201 75.8907C143.771 75.8645 143.336 75.8488 142.906 75.812C142.476 75.7753 142.056 75.6232 141.626 75.5813C141.196 75.5393 140.761 75.5498 140.33 75.5026C139.9 75.4554 139.475 75.3872 139.045 75.3295C138.615 75.2718 138.19 75.1931 137.765 75.1249C137.634 75.1039 137.529 75.0672 137.435 74.9728C137.283 74.8154 137.251 74.5846 137.288 74.3591C137.351 73.9342 137.346 73.4989 137.404 73.074C137.461 72.6491 137.629 72.2347 137.676 71.8099C137.724 71.385 137.671 70.9444 137.713 70.5143C137.755 70.0842 137.781 69.6593 137.818 69.2292C137.855 68.7991 137.912 68.3742 137.944 67.9441C137.975 67.514 138.085 67.0891 138.112 66.6642C138.138 66.2394 138.18 65.804 138.196 65.3739C138.211 64.9438 138.091 64.5084 138.101 64.0783C138.112 63.6482 138.169 63.2181 138.175 62.788C138.18 62.3579 138.217 61.9277 138.217 61.4976C138.217 61.0675 138.175 60.6374 138.164 60.2073C138.154 59.7772 138.196 59.347 138.185 58.9169C138.175 58.4868 138.08 58.062 138.059 57.6318" fill="#EBBEA7"/>
<path d="M172.751 48.0133C172.63 48.4276 172.473 48.8315 172.347 49.2407C172.221 49.6498 172.158 50.0851 172.027 50.4943C171.896 50.9034 171.754 51.3125 171.612 51.7164C171.471 52.1203 171.261 52.5085 171.114 52.9071C170.967 53.3058 170.931 53.7621 170.768 54.1555C170.605 54.5489 170.333 54.9056 170.154 55.2937C169.976 55.6819 169.792 56.07 169.593 56.4529C169.394 56.8358 169.273 57.2607 169.053 57.6279C168.832 57.9951 168.539 58.3203 168.297 58.6769C168.056 59.0336 167.846 59.4113 167.574 59.747C167.301 60.0827 166.981 60.3712 166.692 60.6911C166.404 61.0111 166.168 61.373 165.848 61.672C165.528 61.971 165.161 62.1861 164.82 62.4588C164.51 62.7106 164.227 62.9938 163.902 63.2246C163.577 63.4554 163.231 63.66 162.895 63.8698C162.559 64.0796 162.187 64.2317 161.835 64.4206C161.484 64.6094 161.174 64.8769 160.818 65.05C160.461 65.2231 160.052 65.286 159.685 65.4329C159.318 65.5798 158.94 65.7004 158.562 65.8263C158.185 65.9522 157.838 66.1882 157.455 66.2931C157.073 66.398 156.653 66.3613 156.265 66.44C155.877 66.5187 155.499 66.6603 155.106 66.718C154.654 66.7862 154.219 66.8544 153.789 66.8649C153.359 66.8754 152.903 66.7809 152.467 66.76C152.032 66.739 151.586 66.7337 151.145 66.7127C150.705 66.6918 150.269 66.6183 149.824 66.6183C149.404 66.6183 148.99 66.7075 148.575 66.7285C148.161 66.7495 147.741 66.8019 147.327 66.8281C146.912 66.8544 146.488 66.7704 146.073 66.7862C145.659 66.8019 145.244 66.9016 144.825 66.8911C144.405 66.8806 143.986 66.8911 143.571 66.8386C143.152 66.7862 142.748 66.6131 142.333 66.5449C141.919 66.4767 141.504 66.398 141.09 66.3089C140.676 66.2197 140.235 66.2512 139.831 66.1463C139.427 66.0413 139.044 65.8158 138.646 65.6899C138.247 65.564 137.843 65.4276 137.45 65.286C137.056 65.1444 136.674 64.9661 136.285 64.793C135.897 64.6199 135.52 64.4468 135.147 64.2527C134.775 64.0586 134.376 63.9065 134.014 63.6862C133.652 63.4659 133.29 63.2509 132.944 63.0096C132.598 62.7683 132.268 62.506 131.942 62.2385C131.617 61.971 131.297 61.6982 130.988 61.4045C130.678 61.1108 130.411 60.796 130.122 60.4813C129.834 60.1666 129.577 59.8466 129.314 59.511C129.052 59.1753 128.785 58.8553 128.549 58.5039C128.313 58.1524 128.113 57.7852 127.903 57.4128C127.694 57.0404 127.452 56.7152 127.253 56.3533C127.054 55.9914 126.839 55.6347 126.645 55.2727C126.45 54.9108 126.293 54.5174 126.104 54.1555C125.915 53.7936 125.737 53.4107 125.554 53.0435C125.37 52.6763 125.234 52.2777 125.06 51.9053C124.887 51.5328 124.683 51.1709 124.515 50.7933C124.347 50.4156 124.137 50.0537 123.98 49.6708C123.823 49.2879 123.76 48.8682 123.618 48.4801C123.476 48.0919 123.33 47.709 123.198 47.3156C123.067 46.9222 122.842 46.5603 122.721 46.1669C122.6 45.7735 122.579 45.3486 122.48 44.9448C122.38 44.5409 122.249 44.1527 122.16 43.7488C122.071 43.3449 122.034 42.9358 121.966 42.5267C121.898 42.1175 121.793 41.7189 121.745 41.3098C121.698 40.9006 121.667 40.4915 121.63 40.0771C121.593 39.6627 121.646 39.2536 121.63 38.8392C121.614 38.4248 121.515 38.021 121.515 37.6013C121.515 37.1817 121.53 36.7778 121.551 36.3582C121.572 35.9333 121.646 35.5137 121.693 35.0888C121.74 34.664 121.709 34.2286 121.777 33.8142C121.845 33.3998 121.924 32.975 122.018 32.5606C122.113 32.1462 122.317 31.7581 122.427 31.3489C122.537 30.9398 122.595 30.5097 122.732 30.111C122.868 29.7124 123.104 29.3452 123.267 28.9518C123.429 28.5584 123.497 28.1283 123.676 27.7402C123.854 27.352 124.027 26.9639 124.226 26.5862C124.426 26.2085 124.672 25.8624 124.893 25.4952C125.113 25.128 125.344 24.7766 125.58 24.4199C125.816 24.0632 126.12 23.759 126.372 23.4233C126.624 23.0876 126.797 22.6785 127.069 22.348C127.342 22.0175 127.667 21.7395 127.956 21.4248C128.244 21.1101 128.496 20.7639 128.795 20.4649C129.094 20.166 129.44 19.9089 129.755 19.6204C130.07 19.332 130.453 19.1326 130.783 18.8599C131.114 18.5871 131.397 18.2672 131.738 18.0101C132.079 17.7531 132.462 17.5643 132.813 17.3282C133.164 17.0922 133.453 16.7565 133.82 16.5362C134.187 16.3159 134.544 16.0904 134.916 15.8805C135.289 15.6707 135.682 15.5134 136.065 15.3245C136.448 15.1357 136.831 14.9521 137.219 14.779C137.607 14.6059 138.027 14.5063 138.42 14.3489C138.814 14.1916 139.223 14.0814 139.627 13.945C140.031 13.8087 140.413 13.6146 140.817 13.4939C141.221 13.3733 141.625 13.2212 142.04 13.1215C142.454 13.0219 142.868 12.9379 143.288 12.854C143.708 12.7701 144.127 12.7071 144.547 12.6389C144.966 12.5708 145.396 12.5813 145.821 12.534C146.246 12.4868 146.666 12.4449 147.091 12.4186C147.51 12.3924 147.93 12.3609 148.35 12.3557C148.769 12.3505 149.189 12.3662 149.608 12.3819C150.028 12.3977 150.453 12.34 150.873 12.3767C151.292 12.4134 151.707 12.5131 152.121 12.5708C152.535 12.6285 152.944 12.7229 153.359 12.8016C153.773 12.8802 154.182 12.9642 154.592 13.0638C155.001 13.1635 155.415 13.2422 155.814 13.3628C156.212 13.4834 156.611 13.6303 157.004 13.7719C157.398 13.9136 157.775 14.1024 158.164 14.2597C158.552 14.4171 158.929 14.5954 159.307 14.7738C159.685 14.9521 160.047 15.1619 160.419 15.356C160.791 15.5501 161.164 15.7337 161.526 15.954C161.888 16.1743 162.281 16.3316 162.627 16.5677C162.973 16.8037 163.283 17.0975 163.619 17.3492C163.954 17.601 164.274 17.8685 164.594 18.1413C164.914 18.414 165.25 18.6606 165.559 18.949C165.869 19.2375 166.215 19.4788 166.509 19.783C166.803 20.0873 167.107 20.4125 167.39 20.7324C167.673 21.0524 167.925 21.4143 168.193 21.75C168.46 22.0857 168.644 22.4896 168.89 22.8411C169.137 23.1925 169.425 23.5177 169.656 23.8796C169.887 24.2416 170.076 24.6297 170.285 25.0021C170.495 25.3745 170.778 25.7155 170.973 26.0984C171.167 26.4813 171.261 26.9167 171.434 27.3101C171.607 27.7035 171.765 28.1021 171.922 28.5007C172.079 28.8994 172.289 29.2823 172.426 29.6914C172.562 30.1006 172.604 30.5359 172.719 30.9503C172.835 31.3647 172.955 31.7738 173.055 32.1934C173.155 32.6131 173.301 33.0169 173.385 33.4418C173.469 33.8667 173.606 34.2758 173.674 34.7007C173.742 35.1255 173.758 35.5557 173.816 35.9858C173.873 36.4159 173.857 36.846 173.899 37.2761C173.941 37.7062 174.067 38.1259 174.099 38.556C174.125 38.9494 174.041 39.3533 174.041 39.7571C174.041 40.161 174.041 40.5492 174.02 40.9531C173.999 41.357 174.02 41.7504 173.978 42.149C173.936 42.5477 173.905 42.941 173.842 43.3397C173.779 43.7383 173.768 44.137 173.69 44.5304C173.611 44.9238 173.438 45.2909 173.349 45.6843C173.26 46.0777 173.244 46.4816 173.139 46.8698C173.034 47.2579 172.866 47.6251 172.751 48.008V48.0133Z" fill="#EBBEA7"/>
<path d="M116.501 51.579C116.795 51.8937 117.089 52.2189 117.419 52.4969C117.739 52.7645 118.132 52.99 118.531 53.2103C118.903 53.4149 119.323 53.5617 119.743 53.7191C120.162 53.8765 120.556 54.0391 120.986 54.1387C121.416 54.2384 121.846 54.3328 122.281 54.38C122.717 54.4272 123.163 54.3485 123.598 54.3433C124.033 54.338 124.484 54.38 124.909 54.3223C125.334 54.2646 125.785 54.1597 126.189 54.0338C126.619 53.8974 127.034 53.7401 127.401 53.525C127.768 53.31 128.13 53.0162 128.429 52.7068C128.728 52.3973 128.99 52.0406 129.184 51.6367C129.363 51.2643 129.441 50.8289 129.509 50.3726C129.567 49.9687 129.604 49.5386 129.567 49.0665C129.536 48.6836 129.42 48.285 129.347 47.8601C129.284 47.472 129.284 47.0523 129.189 46.6379C129.1 46.2498 129.011 45.8459 128.901 45.442C128.791 45.0381 128.702 44.65 128.571 44.2513C128.439 43.8527 128.214 43.5117 128.062 43.1288C127.91 42.7459 127.768 42.363 127.6 41.9854C127.432 41.6077 127.233 41.251 127.044 40.8891C126.855 40.5272 126.75 40.1075 126.546 39.7561C126.341 39.4047 125.995 39.1267 125.77 38.791C125.544 38.4553 125.35 38.0776 125.093 37.7629C124.836 37.4482 124.589 37.0967 124.301 36.8135C124.012 36.5303 123.687 36.247 123.367 36.0005C123.047 35.754 122.638 35.6018 122.281 35.413C121.925 35.2242 121.552 35.0249 121.164 34.9095C120.745 34.7888 120.309 34.6892 119.874 34.6629C119.438 34.6367 118.993 34.6629 118.557 34.7259C118.122 34.7888 117.713 34.9619 117.304 35.1193C116.895 35.2766 116.501 35.4602 116.134 35.7015C115.741 35.9585 115.326 36.205 115.006 36.5407C114.686 36.8764 114.387 37.2594 114.141 37.658C113.894 38.0566 113.784 38.5287 113.611 38.9641C113.438 39.3994 113.207 39.8191 113.107 40.2754C113.008 40.7317 113.05 41.2091 113.018 41.6759C112.987 42.1427 112.95 42.6043 112.982 43.0711C113.013 43.538 113.076 43.9996 113.155 44.4611C113.233 44.9227 113.301 45.3843 113.427 45.8354C113.543 46.255 113.7 46.6642 113.847 47.0786C113.994 47.4929 114.204 47.8758 114.387 48.2692C114.571 48.6626 114.749 49.0665 114.969 49.4389C115.19 49.8114 115.394 50.2048 115.657 50.5562C115.919 50.9076 116.186 51.2591 116.485 51.579H116.501Z" fill="#EBBEA7"/>
<path d="M117.361 43.8379C117.906 43.99 118.447 44.0582 118.966 44.2837C119.527 44.5303 120.088 44.6142 120.676 44.7768C121.825 45.0968 122.926 45.5374 124.059 45.894C125.029 46.1983 125.444 44.6771 124.479 44.3782C123.346 44.0215 122.239 43.5809 121.096 43.2609C120.571 43.114 120.052 43.0511 119.543 42.8308C118.961 42.579 118.378 42.4898 117.775 42.322C116.8 42.044 116.38 43.5651 117.356 43.8379H117.361Z" fill="#A55535"/>
<path d="M159.727 43.6528C159.879 43.5584 159.648 43.6528 159.742 43.6371C159.842 43.6213 159.847 43.6318 159.748 43.6266C159.811 43.6266 159.952 43.6633 159.795 43.6161C159.837 43.6266 159.879 43.6371 159.921 43.6476C160.094 43.6948 159.821 43.5741 159.973 43.6685C159.994 43.679 160.131 43.7839 160.052 43.7158C159.973 43.6476 160.125 43.7944 160.12 43.7892C160.22 43.8836 160.115 43.7525 160.146 43.8207C160.172 43.8679 160.204 43.9151 160.23 43.9623C160.304 44.0829 160.225 43.9046 160.235 43.9833C160.246 44.0357 160.267 44.0882 160.277 44.1406C160.277 44.1406 160.309 44.3399 160.298 44.2298C160.288 44.1196 160.298 44.298 160.298 44.3242C160.298 44.4029 160.298 44.4816 160.298 44.5603C160.298 44.6127 160.293 44.6652 160.288 44.7176C160.267 44.9641 160.319 44.576 160.272 44.8225C160.225 45.069 160.178 45.3418 160.078 45.5831C160.12 45.4834 160.062 45.6093 160.041 45.646C160.01 45.7037 159.978 45.7562 159.947 45.8086C159.915 45.8558 159.884 45.903 159.853 45.9503C159.805 46.0237 159.926 45.8768 159.826 45.9765C159.742 46.0604 159.664 46.1443 159.575 46.223C159.407 46.3699 159.685 46.1496 159.506 46.2755C159.459 46.3069 159.412 46.3437 159.365 46.3751C159.265 46.4381 159.165 46.501 159.06 46.5535C159.008 46.5797 158.914 46.6112 159.019 46.5744C158.95 46.5954 158.882 46.6164 158.809 46.6374C158.41 46.737 158.132 47.2091 158.258 47.6078C158.394 48.0221 158.798 48.2634 159.228 48.1585C159.905 47.9959 160.592 47.5238 161.027 46.9888C161.562 46.3332 161.788 45.5516 161.861 44.7176C161.93 43.9675 161.73 43.1598 161.174 42.6247C160.582 42.053 159.653 41.8537 158.929 42.289C158.578 42.4988 158.415 43.0076 158.646 43.3643C158.877 43.721 159.344 43.8731 159.721 43.6476L159.727 43.6528Z" fill="#2B2927"/>
<path d="M149.142 49.4969C148.602 50.0477 148.104 50.6876 147.642 51.3013C147.18 51.915 146.766 52.5602 146.499 53.2788C146.231 53.9974 146.011 54.7055 145.806 55.4346C145.575 56.2528 145.481 57.0187 145.481 57.8684C145.481 58.545 146.53 58.545 146.53 57.8684C146.53 57.4855 146.525 57.0973 146.572 56.7144C146.614 56.3735 146.724 56.043 146.819 55.7126C147.018 55.0202 147.233 54.3488 147.474 53.6669C147.716 52.985 148.109 52.4238 148.518 51.8783C148.927 51.3328 149.394 50.7348 149.887 50.2365C150.38 49.7382 149.62 49.0143 149.147 49.4969H149.142Z" fill="#BC7F6C"/>
<path d="M139.758 40.9313C139.433 40.9313 139.108 40.9313 138.783 40.9313C138.741 40.9313 138.699 40.9313 138.657 40.926C138.52 40.8893 138.615 40.9208 138.657 40.926C138.583 40.905 138.499 40.8998 138.426 40.8893C138.232 40.8526 138.038 40.8211 137.844 40.8211C137.571 40.8211 137.309 41.0624 137.319 41.3456C137.33 41.6289 137.55 41.8649 137.844 41.8702C137.886 41.8702 137.928 41.8702 137.97 41.8754C138.011 41.8807 138.132 41.9121 137.99 41.8754C138.059 41.8964 138.132 41.9016 138.2 41.9121C138.394 41.9488 138.588 41.9803 138.783 41.9856C139.108 41.9908 139.433 41.9856 139.758 41.9856C140.031 41.9856 140.293 41.7443 140.283 41.461C140.272 41.1778 140.052 40.9365 139.758 40.9365V40.9313Z" fill="#BC7F6C"/>
<path d="M140.025 43.104C139.469 43.1722 138.913 43.2089 138.357 43.2824C138.21 43.2981 138.095 43.3296 137.985 43.4345C137.896 43.5236 137.827 43.6758 137.833 43.8069C137.838 43.938 137.885 44.0849 137.985 44.1793C138.079 44.2685 138.221 44.3524 138.357 44.3314C138.913 44.2632 139.469 44.2265 140.025 44.1531C140.172 44.1373 140.288 44.1059 140.398 44.001C140.487 43.9118 140.555 43.7597 140.55 43.6286C140.545 43.4974 140.497 43.3505 140.398 43.2561C140.303 43.167 140.162 43.083 140.025 43.104Z" fill="#BC7F6C"/>
<path d="M132.216 30.6448C132.294 30.5294 132.446 30.4664 132.53 30.3563C132.772 30.0311 132.981 29.6796 133.27 29.3964C133.558 29.1131 133.847 28.8299 134.162 28.5729C134.476 28.3159 134.844 28.1323 135.169 27.8857C135.494 27.6392 135.767 27.335 136.081 27.078C136.396 26.8209 136.774 26.6374 137.068 26.3594C137.361 26.0814 137.618 25.7562 137.87 25.4414C138.148 25.0952 138.316 24.6651 138.515 24.2455C138.715 23.8259 138.919 23.4325 139.087 23.0129C139.255 22.5932 139.386 22.1421 139.575 21.7435C139.774 21.3134 140.042 20.941 140.32 20.6105C140.603 20.2696 140.87 19.8972 141.18 19.5667C141.489 19.2362 141.809 18.911 142.15 18.6173C142.491 18.3236 142.858 18.0351 143.241 17.8043C143.624 17.5735 144.054 17.4004 144.484 17.2588C144.914 17.1171 145.355 17.0594 145.817 17.0332C146.299 17.0017 146.719 17.0857 147.102 17.1696C147.558 17.2693 147.946 17.4109 148.298 17.6364C148.649 17.862 149.032 18.1138 149.315 18.4547C149.599 18.7956 149.766 19.189 149.987 19.5772C150.207 19.9653 150.443 20.3115 150.642 20.7049C150.842 21.0983 151.015 21.4917 151.225 21.8694C151.434 22.247 151.649 22.6352 151.906 22.9814C152.143 23.3014 152.426 23.5846 152.678 23.8888C152.929 24.1931 153.144 24.5392 153.417 24.8225C153.69 25.1057 154.005 25.3575 154.293 25.6303C154.582 25.903 154.828 26.223 155.132 26.48C155.437 26.737 155.762 26.9678 156.076 27.2091C156.391 27.4504 156.737 27.6497 157.063 27.8805C157.388 28.1113 157.703 28.3578 158.033 28.5729C158.363 28.7879 158.731 28.961 159.072 29.1604C159.412 29.3597 159.753 29.5642 160.1 29.7583C160.446 29.9524 160.834 30.0993 161.196 30.2881C161.558 30.4769 161.867 30.7497 162.234 30.9333C162.602 31.1168 163.006 31.206 163.373 31.3791C163.74 31.5522 164.102 31.7358 164.469 31.9036C164.836 32.0715 165.214 32.2236 165.586 32.3862C165.959 32.5488 166.284 32.8111 166.656 32.9737C167.029 33.1363 167.412 33.2674 167.784 33.4353C168.156 33.6031 168.513 33.792 168.88 33.9598C169.247 34.1276 169.641 34.2483 170.008 34.4214C170.375 34.5945 170.711 34.8253 171.078 35.0036C171.445 35.182 171.818 35.3393 172.174 35.5229C172.531 35.7065 172.898 35.8901 173.255 36.0841C173.8 36.3884 174.362 36.7398 174.986 36.7555C175.374 36.766 175.736 36.6559 176.051 36.4671C176.365 36.2782 176.628 36.0212 176.864 35.717C177.084 35.4337 177.325 35.1295 177.483 34.7886C177.64 34.4476 177.703 34.0595 177.792 33.7185C177.897 33.3199 177.97 32.916 178.044 32.5121C178.117 32.1082 178.227 31.7043 178.264 31.2952C178.301 30.8861 178.238 30.4717 178.243 30.0573C178.248 29.6429 178.275 29.239 178.248 28.8247C178.222 28.4103 178.149 28.0116 178.091 27.6025C178.033 27.1934 178.044 26.779 177.96 26.3751C177.876 25.9712 177.703 25.5935 177.593 25.1949C177.483 24.7963 177.441 24.3819 177.304 23.9937C177.168 23.6056 176.953 23.2489 176.79 22.8712C176.628 22.4936 176.47 22.1159 176.281 21.7487C176.093 21.3816 175.961 20.9829 175.752 20.6315C175.542 20.2801 175.243 19.9811 175.012 19.6401C174.781 19.2992 174.556 18.9582 174.304 18.633C174.052 18.3078 173.842 17.9459 173.57 17.6364C173.297 17.327 172.951 17.0909 172.662 16.7972C172.358 16.493 172.096 16.1468 171.781 15.8688C171.466 15.5908 171.141 15.297 170.805 15.0348C170.47 14.7725 170.05 14.6204 169.699 14.3791C169.347 14.1378 169.043 13.8231 168.676 13.608C168.309 13.393 167.936 13.1832 167.558 12.9838C167.181 12.7845 166.787 12.6114 166.399 12.4331C166.011 12.2548 165.618 12.0869 165.224 11.9295C164.831 11.7722 164.448 11.5676 164.044 11.426C163.64 11.2844 163.236 11.1427 162.832 11.0169C162.429 10.891 162.014 10.7808 161.6 10.6654C161.185 10.55 160.766 10.4923 160.351 10.3874C159.937 10.2825 159.512 10.2301 159.098 10.1304C158.683 10.0307 158.28 9.89437 157.86 9.79995C157.44 9.70554 157.042 9.64259 156.627 9.55342C156.213 9.46425 155.819 9.33836 155.405 9.26493C154.991 9.1915 154.571 9.17576 154.157 9.11282C153.742 9.04987 153.328 9.01316 152.908 8.9607C152.489 8.90825 152.085 8.78761 151.665 8.75089C151.246 8.71417 150.831 8.67746 150.412 8.65648C149.992 8.63549 149.572 8.63025 149.153 8.63025C148.733 8.63025 148.313 8.64074 147.894 8.65648C147.474 8.67221 147.055 8.67746 146.635 8.71417C146.215 8.75089 145.801 8.83482 145.392 8.89776C144.983 8.9607 144.579 9.10757 144.17 9.19674C143.761 9.28591 143.325 9.27018 142.921 9.38557C142.517 9.50097 142.166 9.75799 141.773 9.90486C141.442 10.0307 141.096 10.1147 140.76 10.2406C140.425 10.3664 140.073 10.4084 139.727 10.4976C139.313 10.6077 138.898 10.6654 138.473 10.7231C138.048 10.7808 137.644 10.9329 137.22 11.0011C136.81 11.0641 136.391 11.085 135.992 11.1795C135.594 11.2739 135.19 11.3893 134.796 11.5099C134.403 11.6306 134.025 11.8194 133.648 11.9715C133.27 12.1236 132.871 12.26 132.499 12.4383C132.126 12.6167 131.738 12.774 131.382 12.9786C131.025 13.1832 130.71 13.4664 130.369 13.6972C130.028 13.928 129.687 14.1588 129.357 14.4106C129.026 14.6623 128.733 14.9508 128.423 15.2183C128.114 15.4859 127.783 15.7376 127.484 16.0261C127.185 16.3146 126.907 16.6188 126.629 16.9231C126.351 17.2273 126.016 17.4843 125.753 17.8043C125.491 18.1242 125.245 18.4599 124.998 18.7904C124.752 19.1208 124.578 19.5038 124.348 19.8499C124.117 20.1961 123.813 20.4899 123.598 20.8413C123.383 21.1927 123.283 21.6124 123.089 21.9795C122.905 22.3257 122.601 22.6195 122.407 22.9866C122.213 23.3538 122.145 23.7524 121.961 24.1196C121.777 24.4868 121.499 24.791 121.326 25.1582C121.153 25.5254 121.027 25.9083 120.875 26.2859C120.723 26.6636 120.613 27.0517 120.487 27.4346C120.361 27.8176 120.272 28.2162 120.172 28.6043C120.073 28.9925 119.942 29.3859 119.879 29.7793C119.816 30.1727 119.805 30.5871 119.795 30.9857C119.784 31.3844 119.748 31.7987 119.8 32.1974C119.852 32.596 119.957 32.9894 120.083 33.3776C120.209 33.7657 120.419 34.0962 120.618 34.4581C120.807 34.799 121.022 35.1295 121.295 35.4495C121.541 35.7484 121.73 36.1104 122.014 36.3779C122.297 36.6454 122.585 36.9129 122.895 37.1542C123.204 37.3955 123.545 37.5843 123.87 37.7994C124.196 38.0144 124.542 38.198 124.877 38.3921C125.213 38.5862 125.58 38.7278 125.927 38.9061C126.294 39.1002 126.671 39.3834 127.08 39.4674C127.516 39.5565 127.962 39.4883 128.329 39.2471C128.581 39.0792 128.701 38.7855 128.864 38.5337C129.084 38.1875 129.352 37.8728 129.53 37.5004C129.708 37.128 129.902 36.766 130.049 36.3779C130.196 35.9897 130.296 35.5911 130.422 35.2029C130.548 34.8148 130.653 34.4161 130.778 34.0227C130.904 33.6293 131.014 33.2359 131.161 32.853C131.308 32.4701 131.439 32.0767 131.618 31.7096C131.796 31.3424 132.001 30.9805 132.226 30.6343L132.216 30.6448Z" fill="#97928C"/>
<path d="M145.282 21.5968C145.403 21.366 145.565 21.1876 145.738 20.9988C145.948 20.7628 146.137 20.511 146.336 20.2645C146.672 19.8396 147.092 19.5983 147.574 19.3623C148.057 19.1262 148.55 18.8745 149.095 18.8745C149.405 18.8745 149.714 18.8902 150.024 18.8849C150.296 18.8797 150.574 18.8587 150.842 18.9112C151.256 18.9899 151.692 18.7958 151.812 18.3604C151.917 17.9775 151.681 17.474 151.262 17.39C150.553 17.2537 149.814 17.3009 149.095 17.3009C148.298 17.3009 147.59 17.6103 146.887 17.9513C146.247 18.2608 145.644 18.6174 145.198 19.1839C144.784 19.7137 144.243 20.2068 143.929 20.8047C143.729 21.1771 143.834 21.6597 144.212 21.88C144.569 22.0898 145.088 21.9744 145.287 21.5968H145.282Z" fill="#97928C"/>
<path d="M148.434 23.2226C149.388 22.9236 150.38 22.8711 151.371 23.0075C151.822 23.0704 152.163 23.254 152.562 23.4638C152.997 23.6946 153.448 23.8887 153.847 24.1824C154.188 24.4342 154.723 24.2401 154.922 23.8992C155.158 23.5006 154.985 23.0757 154.639 22.8239C154.209 22.5092 153.726 22.3046 153.259 22.0529C152.714 21.7591 152.2 21.5441 151.581 21.4601C150.385 21.3028 149.173 21.3395 148.014 21.7067C147.61 21.8326 147.348 22.2522 147.463 22.677C147.579 23.1019 148.025 23.3537 148.434 23.2278V23.2226Z" fill="#97928C"/>
<path d="M148.843 80.466C149.089 80.2247 149.315 79.9519 149.519 79.6634C149.724 79.375 149.881 79.0707 150.028 78.7508C150.196 78.3836 150.312 77.9954 150.437 77.6125C150.563 77.2296 150.647 76.8362 150.747 76.4428C150.847 76.0494 150.999 75.6927 151.093 75.2994C151.135 75.6927 151.151 76.0757 151.245 76.4638C151.34 76.852 151.544 77.2034 151.686 77.5706C151.827 77.9377 151.927 78.3311 152.116 78.6826C152.305 79.034 152.593 79.3173 152.824 79.6425C153.118 80.0464 153.38 80.487 153.752 80.8227C154.125 81.1584 154.565 81.4101 155.022 81.6199C155.478 81.8298 155.971 81.9556 156.469 81.9714C156.968 81.9871 157.503 81.9504 157.949 81.7196C158.405 81.4836 158.809 81.1059 159.103 80.6758C159.396 80.2457 159.512 79.7211 159.638 79.2281C159.732 78.8504 159.826 78.4675 159.863 78.0689C159.9 77.6702 159.832 77.2873 159.821 76.8887C159.811 76.49 159.858 76.0966 159.811 75.7085C159.764 75.3203 159.758 74.9112 159.695 74.5283C159.632 74.1454 159.444 73.7625 159.37 73.3848C159.291 72.96 159.27 72.5036 159.092 72.1102C158.982 71.8637 158.793 71.6119 158.552 71.4755C158.269 71.3182 157.907 71.3916 157.592 71.4546C157.167 71.5332 156.742 71.6172 156.317 71.6853C155.893 71.7535 155.462 71.8165 155.032 71.8742C154.602 71.9319 154.172 71.9738 153.742 72.021C153.312 72.0682 152.887 72.1469 152.457 72.1889C152.027 72.2309 151.586 72.1732 151.156 72.1994C150.726 72.2256 150.296 72.3672 149.866 72.383C149.436 72.3987 149 72.3358 148.565 72.3358C148.129 72.3358 147.699 72.2938 147.269 72.2833C146.839 72.2728 146.404 72.341 145.974 72.32C145.544 72.299 145.119 72.1836 144.683 72.1522C144.248 72.1207 143.813 72.2046 143.382 72.1627C142.952 72.1207 142.522 72.084 142.092 72.0263C141.662 71.9686 141.253 71.8007 140.823 71.7326C140.393 71.6644 139.973 71.5804 139.548 71.5018C139.123 71.4231 138.677 71.465 138.253 71.3759C137.828 71.2867 137.429 71.1031 137.009 70.9982C136.642 70.909 136.312 71.0716 136.071 71.3024C135.829 71.5332 135.651 71.8532 135.703 72.2256C135.756 72.619 135.808 73.0177 135.892 73.411C135.976 73.8044 136.065 74.1926 136.181 74.5755C136.296 74.9584 136.522 75.3046 136.663 75.6718C136.805 76.0389 136.926 76.4271 137.093 76.7838C137.261 77.1405 137.455 77.4919 137.649 77.8381C137.859 78.2 138.053 78.5829 138.305 78.9291C138.557 79.2753 138.809 79.6215 139.092 79.931C139.375 80.2404 139.706 80.5237 140.031 80.7964C140.356 81.0692 140.702 81.3262 141.069 81.536C141.436 81.7458 141.819 81.9556 142.223 82.0868C142.627 82.2179 143.057 82.2546 143.482 82.2913C143.87 82.3281 144.258 82.3123 144.647 82.2809C145.035 82.2494 145.433 82.2546 145.811 82.1602C146.189 82.0658 146.524 81.835 146.876 81.6776C147.227 81.5203 147.626 81.4259 147.951 81.2108C148.276 80.9957 148.565 80.723 148.843 80.4502V80.466Z" fill="white"/>
<path d="M162.35 51.0185C162.58 51.4486 162.722 51.9155 162.895 52.3718C163.068 52.8281 163.194 53.2635 163.273 53.7408C163.357 54.2496 163.341 54.6902 163.241 55.1938C163.142 55.7235 163.089 56.2586 162.942 56.7779C162.759 57.4283 163.771 57.7063 163.955 57.0559C164.112 56.4946 164.164 55.9229 164.275 55.3564C164.395 54.7374 164.395 54.1972 164.301 53.573C164.217 53.017 164.065 52.5134 163.865 51.9889C163.666 51.4644 163.514 50.9661 163.252 50.4887C162.932 49.896 162.024 50.4258 162.344 51.0185H162.35Z" fill="#BC7F6C"/>
<path d="M117.35 95.7281C117.969 96.7038 118.567 97.6951 119.065 98.7337C119.307 99.2425 119.501 99.7723 119.758 100.271C120.015 100.769 120.277 101.188 120.492 101.676C120.943 102.71 121.237 103.806 121.615 104.871C121.992 105.935 122.365 107.053 122.658 108.17C122.952 109.287 123.12 110.389 123.403 111.485C123.687 112.581 123.723 113.772 123.985 114.894C124.111 115.429 124.159 115.949 124.216 116.489C124.274 117.029 124.416 117.606 124.442 118.173C124.468 118.802 124.479 119.395 124.599 120.014C124.699 120.544 124.709 121.084 124.746 121.619C124.819 122.768 124.893 123.927 124.909 125.076C124.924 126.224 125.035 127.336 125.077 128.469C125.118 129.602 125.024 130.772 125.045 131.931C125.066 133.09 125.145 134.239 125.176 135.388C125.192 135.954 125.145 136.521 125.155 137.087C125.166 137.654 125.171 138.22 125.145 138.787C125.118 139.353 125.197 139.956 125.202 140.549C125.208 141.142 125.176 141.682 125.166 142.249C125.155 142.815 125.15 143.382 125.155 143.948C125.16 144.515 125.255 145.118 125.265 145.711C125.276 146.303 125.271 146.844 125.281 147.41C125.292 147.977 125.355 148.538 125.417 149.104C125.48 149.671 125.549 150.284 125.543 150.861C125.543 151.475 125.507 152.036 125.659 152.64C125.722 152.881 125.779 153.112 125.785 153.363C125.79 153.657 125.764 153.956 125.785 154.25C125.821 154.853 125.869 155.493 125.989 156.086C126.047 156.353 126.136 156.616 126.189 156.883C126.241 157.151 126.241 157.413 126.262 157.675C126.304 158.273 126.44 158.85 126.55 159.438C126.765 160.571 127.017 161.693 127.295 162.816C127.432 163.366 127.552 163.917 127.694 164.468C127.951 165.449 129.467 165.029 129.21 164.048C128.916 162.936 128.659 161.808 128.397 160.686C128.135 159.563 127.888 158.472 127.815 157.36C127.773 156.752 127.605 156.196 127.495 155.603C127.395 155.068 127.348 154.475 127.353 153.93C127.358 153.311 127.311 152.76 127.164 152.157C127.033 151.622 127.148 151.087 127.112 150.542C127.033 149.388 126.886 148.249 126.855 147.09C126.839 146.503 126.87 145.91 126.828 145.328C126.786 144.745 126.734 144.2 126.734 143.628C126.734 143.056 126.75 142.495 126.75 141.929C126.75 141.362 126.807 140.754 126.765 140.166C126.724 139.579 126.713 139.044 126.739 138.467C126.765 137.89 126.729 137.292 126.729 136.704C126.729 136.117 126.771 135.571 126.729 135.005C126.687 134.438 126.666 133.83 126.645 133.243C126.603 132.12 126.55 130.966 126.645 129.844C126.739 128.721 126.587 127.536 126.535 126.387C126.482 125.238 126.446 124.084 126.377 122.93C126.309 121.745 126.299 120.57 126.084 119.4C125.984 118.87 126.052 118.325 125.989 117.79C125.916 117.208 125.811 116.631 125.758 116.043C125.706 115.456 125.596 114.868 125.47 114.281C125.349 113.73 125.292 113.164 125.202 112.602C125.019 111.459 124.772 110.336 124.541 109.209C124.311 108.081 124.001 106.958 123.634 105.867C123.267 104.776 122.842 103.696 122.517 102.594C122.349 102.022 122.134 101.477 121.893 100.931C121.667 100.423 121.384 99.9611 121.132 99.468C120.88 98.975 120.681 98.4347 120.44 97.9312C120.183 97.3961 119.915 96.8821 119.606 96.3785C119.296 95.875 119.029 95.4029 118.724 94.9256C118.184 94.0759 116.82 94.8627 117.366 95.7176L117.35 95.7281Z" fill="#4E719B"/>
<path d="M150.794 35.2243C150.27 35.2872 149.74 35.2872 149.215 35.3449C148.659 35.4079 148.103 35.4656 147.553 35.5705C147.065 35.6649 146.577 35.7069 146.084 35.7593C145.518 35.8223 144.993 36.0006 144.437 36.0898C144.017 36.158 143.781 36.6825 143.886 37.0602C144.007 37.506 144.432 37.6739 144.857 37.6109C145.35 37.5322 145.811 37.3644 146.31 37.3172C146.808 37.27 147.348 37.2175 147.862 37.1179C148.313 37.0287 148.759 36.9762 149.215 36.929C149.74 36.8713 150.27 36.8713 150.794 36.8084C151.214 36.7612 151.581 36.4832 151.581 36.0216C151.581 35.6334 151.219 35.1876 150.794 35.2348V35.2243Z" fill="#2B2927"/>
<path d="M163.137 36.2515C163.488 36.3406 163.845 36.3931 164.196 36.4665C164.375 36.5032 164.548 36.5504 164.716 36.6134C164.763 36.6291 164.81 36.6501 164.857 36.6658C164.789 36.6344 164.794 36.6396 164.884 36.6763C164.967 36.713 165.046 36.7498 165.13 36.7865C165.497 36.9543 165.864 37.1117 166.253 37.2323C166.609 37.3425 166.971 37.4369 167.317 37.5733C167.7 37.7254 168.199 37.4054 168.288 37.0225C168.393 36.5662 168.146 36.22 167.737 36.0521C167.401 35.921 167.055 35.8266 166.709 35.7217C166.536 35.6692 166.368 35.6115 166.2 35.5486C166.326 35.601 166.059 35.4856 166.032 35.4752C165.948 35.4384 165.87 35.4017 165.786 35.365C165.419 35.1972 165.051 35.045 164.653 34.9559C164.286 34.8719 163.918 34.8247 163.557 34.7303C163.158 34.6254 162.686 34.8615 162.586 35.2811C162.486 35.7007 162.712 36.1361 163.137 36.2515Z" fill="#2B2927"/>
<path d="M154.309 55.1092C153.743 55.1564 153.155 55.3348 152.594 55.1512C152.437 55.0987 152.332 55.041 152.284 54.9256C152.216 54.7578 152.248 54.569 152.311 54.4745C152.5 54.186 153.197 53.9762 153.596 53.8766C154.189 53.7297 154.807 53.5199 155.421 53.5094C156.691 53.4832 158.033 53.5723 159.261 53.929C159.45 53.9815 159.591 54.0549 159.665 54.1179C159.675 54.1283 159.796 54.2385 159.738 54.186C159.68 54.1336 159.806 54.2805 159.764 54.2175C159.722 54.1546 159.796 54.3329 159.785 54.2647C159.775 54.186 159.775 54.485 159.785 54.4221C159.764 54.5532 159.691 54.6896 159.596 54.7525C159.491 54.826 159.208 54.8102 158.988 54.8155C158.616 54.8155 158.254 54.8837 157.881 54.9204C157.493 54.9623 157.1 54.9571 156.711 54.9781C156.323 54.9991 155.935 55.0515 155.542 55.083C155.133 55.1145 154.718 55.0935 154.309 55.1145C153.9 55.1354 153.522 55.4607 153.522 55.9013C153.522 56.3104 153.884 56.709 154.309 56.6881C154.76 56.6671 155.217 56.6881 155.668 56.6461C156.119 56.6041 156.57 56.5569 157.021 56.5412C157.472 56.5254 157.907 56.4887 158.359 56.4363C158.752 56.3838 159.151 56.4101 159.544 56.3628C160.425 56.2632 161.133 55.6705 161.317 54.784C161.49 53.9448 161.128 53.158 160.399 52.7174C159.769 52.3345 158.946 52.2295 158.233 52.1194C157.336 51.983 156.397 51.9306 155.484 51.9411C154.64 51.9515 153.769 52.1928 152.956 52.4236C152.195 52.6387 151.298 53.0373 150.91 53.7612C150.422 54.6634 150.721 55.8383 151.566 56.4048C151.964 56.6723 152.452 56.7615 152.919 56.7982C153.386 56.8349 153.911 56.7248 154.309 56.6933C154.734 56.6566 155.096 56.3576 155.096 55.9065C155.096 55.5079 154.734 55.083 154.309 55.1197V55.1092Z" fill="#A55535"/>
<path d="M152.069 41.7242C151.701 41.8029 151.361 41.9655 150.993 42.0599C150.626 42.1543 150.228 42.1491 149.771 42.2645C149.383 42.3589 149.021 42.5477 148.638 42.6631C148.255 42.7785 147.836 42.8624 147.437 42.9936C147.038 43.1247 146.755 43.5443 146.886 43.964C147.012 44.3573 147.437 44.6511 147.857 44.5147C148.24 44.3888 148.633 44.3154 149.016 44.2C149.399 44.0846 149.787 43.8853 150.191 43.7856C150.542 43.6964 150.936 43.7017 151.376 43.5915C151.754 43.4971 152.111 43.3293 152.488 43.2453C152.892 43.1562 153.165 42.6684 153.039 42.275C152.903 41.8501 152.504 41.6298 152.069 41.7242Z" fill="#2B2927"/>
<path d="M163.856 43.4438C164.343 43.6222 164.842 43.7586 165.34 43.9054C165.838 44.0523 166.331 44.2149 166.835 44.3355C167.234 44.4299 167.706 44.2096 167.805 43.7848C167.905 43.3599 167.685 42.9193 167.255 42.8144C166.751 42.6938 166.258 42.5312 165.76 42.3843C165.261 42.2374 164.763 42.101 164.275 41.9227C163.887 41.7811 163.394 42.0801 163.305 42.4735C163.205 42.9193 163.441 43.2865 163.856 43.4438Z" fill="#2B2927"/>
<path d="M124.736 89.0836C124.935 89.6343 125.103 90.1956 125.339 90.7358C125.544 91.2027 125.706 91.6223 125.811 92.1206C125.921 92.6609 126.136 93.1225 126.346 93.626C126.556 94.1296 126.65 94.6698 126.787 95.1891C127.065 96.2277 127.275 97.2767 127.605 98.3048C127.773 98.8346 127.857 99.3801 127.983 99.9256C128.109 100.471 128.292 100.933 128.402 101.452C128.512 101.971 128.633 102.512 128.701 103.052C128.775 103.624 128.927 104.148 129.058 104.704C129.315 105.785 129.367 106.907 129.64 107.988C129.771 108.507 129.787 109 129.834 109.53C129.887 110.101 130.065 110.647 130.107 111.219C130.154 111.817 130.191 112.409 130.28 113.002C130.359 113.537 130.432 114.077 130.485 114.612C130.548 115.237 130.521 115.882 130.537 116.511C130.553 117.141 130.611 117.775 130.652 118.405C130.694 119.034 130.689 119.711 130.757 120.367C130.789 120.681 130.826 120.996 130.805 121.316C130.784 121.657 130.731 121.987 130.726 122.328C130.71 123.341 132.284 123.341 132.3 122.328C132.31 121.751 132.41 121.195 132.357 120.618C132.305 120.041 132.279 119.485 132.252 118.914C132.2 117.754 132.069 116.6 132.084 115.436C132.1 114.272 131.822 113.175 131.733 112.037C131.686 111.439 131.665 110.846 131.544 110.254C131.424 109.661 131.413 109.147 131.355 108.575C131.298 108.003 131.119 107.489 131.03 106.939C130.941 106.388 130.831 105.816 130.747 105.255C130.663 104.694 130.558 104.195 130.416 103.666C130.275 103.136 130.243 102.569 130.138 102.018C129.918 100.917 129.577 99.8574 129.357 98.7559C129.252 98.2314 129.068 97.7383 128.922 97.2243C128.775 96.7102 128.633 96.149 128.507 95.6087C128.366 95.0003 128.219 94.4023 128.056 93.7991C127.893 93.1959 127.6 92.7133 127.442 92.1468C127.364 91.8688 127.322 91.5803 127.254 91.3023C127.175 90.9719 127.038 90.6624 126.897 90.3582C126.645 89.8074 126.467 89.2304 126.262 88.664C126.115 88.2653 125.727 87.9978 125.292 88.1132C124.904 88.2181 124.599 88.6797 124.741 89.0836H124.736Z" fill="#4E719B"/>
<path d="M175.498 96.9722C175.141 97.2082 174.743 97.3813 174.397 97.6331C174.05 97.8848 173.783 98.2415 173.442 98.4985C173.101 98.7556 172.718 98.9601 172.382 99.2276C172.047 99.4952 171.695 99.7417 171.37 100.02C171.045 100.298 170.767 100.628 170.452 100.917C170.137 101.205 169.765 101.431 169.456 101.724C169.146 102.018 168.91 102.391 168.606 102.69C168.37 102.926 168.087 103.141 167.898 103.419C167.709 103.697 167.52 104.022 167.51 104.368C167.494 104.956 167.913 105.491 168.354 105.879C168.711 106.193 169.125 106.408 169.566 106.582C170.006 106.755 170.442 106.964 170.914 107.027C171.386 107.09 171.868 107.106 172.341 107.09C172.813 107.075 173.279 106.954 173.751 106.907C174.224 106.86 174.696 106.839 175.162 106.797C175.629 106.755 176.101 106.665 176.573 106.676C176.972 106.686 177.371 106.723 177.764 106.776C178.158 106.828 178.556 106.881 178.939 106.964C179.322 107.048 179.679 107.263 180.067 107.368C180.455 107.473 180.854 107.484 181.237 107.594C181.619 107.704 181.987 107.851 182.37 107.951C182.752 108.05 183.13 108.181 183.513 108.265C183.896 108.349 184.289 108.423 184.683 108.475C185.076 108.528 185.475 108.475 185.868 108.48C186.262 108.486 186.671 108.59 187.059 108.543C187.447 108.496 187.856 108.428 188.234 108.323C188.611 108.218 188.937 107.945 189.283 107.762C189.629 107.578 190.012 107.437 190.311 107.164C190.647 106.854 190.935 106.492 191.161 106.109C191.386 105.727 191.512 105.281 191.633 104.845C191.753 104.41 191.806 103.975 191.822 103.518C191.837 103.062 191.759 102.637 191.68 102.191C191.601 101.745 191.517 101.321 191.355 100.901C191.192 100.481 190.988 100.088 190.741 99.7155C190.494 99.343 190.29 98.9182 189.98 98.593C189.671 98.2677 189.251 98.0579 188.889 97.7852C188.527 97.5124 188.181 97.2397 187.788 97.0141C187.395 96.7886 187.017 96.5473 186.597 96.369C186.178 96.1906 185.732 96.1119 185.302 95.9808C184.872 95.8497 184.452 95.6556 184.011 95.5664C183.613 95.4825 183.193 95.5035 182.789 95.4458C182.385 95.3881 181.981 95.3619 181.572 95.3356C181.163 95.3094 180.759 95.2412 180.35 95.2412C179.941 95.2412 179.537 95.2989 179.128 95.3356C178.719 95.3723 178.32 95.4353 177.916 95.4982C177.512 95.5612 177.087 95.5192 176.694 95.6189C176.301 95.7185 175.913 95.8654 175.524 95.9913C175.136 96.1172 174.78 96.327 174.402 96.4896" fill="#D6A792"/>
<path d="M197.151 97.2974C196.836 97.0037 196.516 96.7309 196.196 96.4634C195.876 96.1959 195.541 95.9231 195.205 95.6714C194.869 95.4196 194.492 95.2098 194.14 94.979C193.789 94.7482 193.416 94.5436 193.049 94.3338C192.682 94.124 192.336 93.8722 191.958 93.6886C191.581 93.5051 191.187 93.3372 190.794 93.1799C190.4 93.0225 190.007 92.8546 189.608 92.7235C189.21 92.5924 188.785 92.5137 188.376 92.414C187.967 92.3144 187.552 92.2147 187.138 92.1413C186.723 92.0678 186.304 92.0102 185.884 91.9682C185.465 91.9262 185.045 91.858 184.62 91.8423C184.195 91.8266 183.781 91.9525 183.356 91.9682C182.931 91.9839 182.511 91.8947 182.087 91.9367C181.662 91.9787 181.253 92.0731 180.833 92.136C180.413 92.199 179.978 92.1623 179.564 92.2514C179.149 92.3406 178.766 92.5399 178.357 92.6553C177.948 92.7707 177.56 92.9176 177.156 93.054C176.747 93.1903 176.348 93.3582 175.944 93.526C175.54 93.6939 175.142 93.8565 174.759 94.0506C174.376 94.2446 174.009 94.4807 173.636 94.7062C173.264 94.9318 172.823 95.0524 172.472 95.3042C172.12 95.556 171.743 95.7973 171.412 96.0753C171.082 96.3533 170.793 96.6942 170.484 97.0037C170.174 97.3131 169.875 97.6331 169.603 97.9688C169.33 98.3045 169.178 98.7346 168.931 99.0913C168.685 99.448 168.328 99.7365 168.124 100.119C167.919 100.502 167.84 100.943 167.672 101.347C167.547 101.646 167.3 101.945 167.263 102.27C167.227 102.595 167.295 102.989 167.484 103.272C167.819 103.77 168.307 103.933 168.748 103.844C169.141 103.765 169.597 103.497 170.001 103.177C170.363 102.894 170.641 102.459 170.961 102.144C171.365 101.745 171.769 101.441 172.031 101.258C172.346 101.032 172.666 100.822 172.991 100.618C173.316 100.413 173.631 100.188 173.977 100.009C174.324 99.8309 174.685 99.7102 175.037 99.5529C175.388 99.3955 175.714 99.17 176.075 99.0389C176.437 98.9077 176.831 98.8762 177.203 98.7713C177.576 98.6664 177.932 98.5353 178.31 98.4619C177.922 98.6455 177.565 98.8867 177.193 99.0966C176.82 99.3064 176.432 99.4952 176.07 99.7312C175.708 99.9673 175.304 100.14 174.958 100.397C174.691 100.597 174.413 100.953 174.056 101.289C173.768 101.557 173.437 101.835 173.143 102.165C172.865 102.475 172.593 102.805 172.341 103.146C172.089 103.487 171.869 103.865 171.68 104.226C171.475 104.625 171.323 105.024 171.245 105.412C171.155 105.847 171.129 106.283 171.26 106.671C171.386 107.038 171.659 107.358 172.047 107.652C172.357 107.882 172.729 108.05 173.159 108.061C173.521 108.066 173.909 107.924 174.324 107.809C174.685 107.709 175.032 107.52 175.415 107.353C175.766 107.201 176.175 107.127 176.532 106.938C176.888 106.749 177.182 106.477 177.518 106.272C177.854 106.068 178.2 105.847 178.52 105.637C178.871 105.401 179.286 105.296 179.585 105.092C179.973 104.819 180.251 104.51 180.502 104.337C180.162 104.573 179.868 104.877 179.564 105.16C179.259 105.443 178.908 105.685 178.64 106.01C178.373 106.335 178.179 106.707 177.959 107.064C177.738 107.421 177.523 107.778 177.35 108.155C177.177 108.533 176.999 108.916 176.883 109.32C176.768 109.724 176.7 110.138 176.642 110.547C176.563 111.082 176.495 111.806 176.915 112.147C177.287 112.451 177.89 112.215 178.368 112.121C178.787 112.037 179.212 111.995 179.621 111.879C180.03 111.764 180.445 111.664 180.849 111.517C181.253 111.371 181.63 111.182 182.024 111.009C182.417 110.836 182.837 110.725 183.214 110.526C183.592 110.327 183.912 110.028 184.274 109.802C184.636 109.577 185.024 109.446 185.37 109.194C185.087 109.446 184.793 109.65 184.52 109.918C184.248 110.185 183.97 110.458 183.739 110.762C183.508 111.066 183.351 111.418 183.199 111.769C183.052 112.115 182.973 112.488 182.957 112.871C182.942 113.254 183.015 113.626 183.157 113.972C183.298 114.318 183.477 114.665 183.797 114.895C184.227 115.2 184.751 115.394 185.281 115.362C185.811 115.331 186.32 115.121 186.781 114.906C187.248 114.691 187.715 114.444 188.155 114.182C188.596 113.92 189 113.574 189.488 113.395C189.892 113.243 190.316 113.138 190.741 113.081C191.166 113.023 191.596 113.112 192.032 113.122C192.467 113.133 192.887 113.154 193.317 113.191C193.747 113.227 194.177 113.222 194.607 113.248C195.037 113.275 195.473 113.317 195.897 113.306C196.322 113.296 196.758 113.206 197.172 113.122C197.586 113.039 197.985 112.892 198.373 112.692C198.772 112.488 199.087 112.21 199.407 111.958C199.758 111.685 200.109 111.454 200.372 111.135C200.644 110.799 200.896 110.447 201.08 110.07C201.263 109.692 201.389 109.272 201.489 108.858C201.589 108.444 201.631 108.024 201.657 107.589C201.683 107.153 201.72 106.739 201.678 106.309C201.636 105.879 201.552 105.47 201.463 105.045C201.374 104.62 201.206 104.232 201.08 103.823C200.954 103.413 200.723 103.052 200.56 102.658C200.398 102.265 200.356 101.819 200.162 101.436C199.968 101.053 199.7 100.712 199.485 100.35C199.27 99.9883 199.097 99.5739 198.856 99.2329C198.599 98.871 198.305 98.5563 198.038 98.2468C197.744 97.9059 197.455 97.5911 197.162 97.3131L197.151 97.2974Z" fill="#EBBEA7"/>
<path d="M189.467 103.748C188.932 104.084 188.481 104.456 187.961 104.829C187.405 105.232 186.902 105.684 186.372 106.119C186.199 106.261 185.963 106.402 185.758 106.559C185.465 106.78 185.234 107.016 185.008 107.304C184.631 107.792 184.169 108.238 183.76 108.731C183.487 109.056 183.44 109.523 183.76 109.843C184.038 110.121 184.599 110.173 184.872 109.843C185.291 109.339 185.763 108.894 186.162 108.369C186.288 108.201 186.461 107.997 186.634 107.855C186.87 107.671 187.169 107.493 187.416 107.294C187.867 106.927 188.286 106.528 188.759 106.187C189.273 105.815 189.739 105.432 190.264 105.107C190.626 104.881 190.768 104.404 190.547 104.031C190.327 103.659 189.834 103.522 189.472 103.748H189.467Z" fill="#A55535"/>
<path d="M181.29 104.741C181.557 104.379 181.993 104.049 182.307 103.692C182.465 103.514 182.617 103.346 182.811 103.22C183.036 103.073 183.283 102.963 183.519 102.842C183.981 102.606 184.474 102.465 184.961 102.292C185.502 102.098 186.052 101.998 186.629 101.982C187.642 101.961 187.642 100.388 186.629 100.409C185.948 100.424 185.239 100.524 184.594 100.755C183.949 100.986 183.325 101.18 182.727 101.484C182.129 101.788 181.631 102.087 181.195 102.58C180.781 103.047 180.304 103.446 179.936 103.949C179.685 104.29 179.879 104.825 180.22 105.025C180.618 105.261 181.043 105.087 181.295 104.741H181.29Z" fill="#A55535"/>
<path d="M178.709 98.7458C178.756 98.7248 178.808 98.7038 178.855 98.6828C178.945 98.6461 178.955 98.6409 178.892 98.6671C178.966 98.6356 179.039 98.6041 179.118 98.5779C179.291 98.5097 179.469 98.4468 179.647 98.3891C179.983 98.2894 180.329 98.237 180.67 98.1635C180.843 98.1268 181.011 98.0901 181.184 98.0586C181.279 98.0429 181.368 98.0219 181.462 98.0062C181.462 98.0062 181.714 97.9747 181.573 97.9905C181.95 97.959 182.323 98.0009 182.7 98.0009C183.109 98.0009 183.508 97.639 183.487 97.2141C183.466 96.7893 183.141 96.4274 182.7 96.4274C182.296 96.4274 181.898 96.3801 181.494 96.4274C181.09 96.4746 180.665 96.5585 180.256 96.6477C179.889 96.7263 179.516 96.784 179.154 96.8994C178.73 97.0306 178.326 97.2141 177.917 97.3925C177.539 97.5551 177.423 98.1426 177.633 98.4678C177.885 98.8612 178.305 98.9241 178.709 98.751V98.7458Z" fill="#A55535"/>
<path d="M154.304 86.6434C154.304 87.0316 154.162 87.4145 153.979 87.7292C153.795 88.0439 153.507 88.3324 153.181 88.516C152.856 88.6996 152.489 88.7573 152.101 88.7573C151.713 88.7573 151.367 88.6419 151.052 88.4635C150.737 88.2852 150.391 88.0649 150.202 87.7397C150.013 87.4145 149.961 87.0316 149.961 86.6434C149.961 86.2552 150.071 85.8881 150.249 85.5734C150.428 85.2586 150.742 85.0383 151.062 84.8495C151.382 84.6607 151.708 84.54 152.096 84.54C152.484 84.54 152.835 84.6345 153.15 84.8128C153.465 84.9911 153.785 85.2324 153.973 85.5524C154.162 85.8723 154.304 86.2448 154.304 86.6329V86.6434Z" fill="white"/>
<path d="M154.272 95.8905C154.272 96.2787 154.078 96.6144 153.895 96.9291C153.711 97.2438 153.522 97.6058 153.197 97.7946C152.872 97.9834 152.489 98.0359 152.101 98.0359C151.713 98.0359 151.361 97.8942 151.052 97.7107C150.742 97.5271 150.428 97.291 150.239 96.9658C150.05 96.6406 149.961 96.2787 149.961 95.8905C149.961 95.5024 150.029 95.109 150.213 94.7995C150.396 94.49 150.742 94.2802 151.068 94.0914C151.393 93.9026 151.718 93.7032 152.106 93.7032C152.494 93.7032 152.856 93.8658 153.166 94.0494C153.475 94.233 153.8 94.4795 153.984 94.7995C154.168 95.1195 154.278 95.4971 154.278 95.8853L154.272 95.8905Z" fill="white"/>
<path d="M154.162 105.14C154.162 105.528 154.068 105.858 153.89 106.173C153.711 106.488 153.47 106.766 153.145 106.954C152.82 107.143 152.489 107.206 152.096 107.206C151.702 107.206 151.346 107.164 151.036 106.981C150.727 106.797 150.491 106.503 150.302 106.178C150.113 105.853 149.929 105.528 149.929 105.14C149.929 104.751 150.029 104.363 150.213 104.049C150.396 103.734 150.706 103.477 151.031 103.288C151.356 103.099 151.713 102.931 152.101 102.931C152.489 102.931 152.835 103.146 153.145 103.33C153.454 103.513 153.716 103.776 153.905 104.101C154.094 104.426 154.168 104.751 154.168 105.145L154.162 105.14Z" fill="white"/>
<path d="M197.872 82.5893C198.512 82.7361 199.157 82.9984 199.765 83.2502C200.374 83.502 200.914 83.9531 201.433 84.3569C201.953 84.7608 202.388 85.2487 202.829 85.747C203.269 86.2453 203.684 86.7278 204.035 87.2943C204.387 87.8608 204.785 88.4063 205.121 88.9833C205.504 89.639 205.866 90.3104 206.217 90.987C206.511 91.543 206.82 92.0728 207.041 92.6655C207.161 92.9907 207.287 93.3107 207.46 93.6149C207.607 93.8719 207.775 94.1184 207.885 94.3964C208.032 94.7636 208.189 95.136 208.305 95.5189C208.42 95.9018 208.452 96.2795 208.567 96.6519C208.814 97.4649 209.086 98.2622 209.296 99.0805C209.548 100.061 211.064 99.647 210.812 98.6609C210.618 97.9003 210.387 97.1555 210.141 96.4106C210.036 96.0907 209.973 95.7655 209.905 95.435C209.826 95.0521 209.679 94.6954 209.543 94.3335C209.412 93.9926 209.291 93.6464 209.118 93.3264C208.96 93.0379 208.766 92.7704 208.641 92.4662C208.357 91.7895 208.095 91.1391 207.738 90.4992C207.382 89.8593 207.035 89.1774 206.663 88.5217C206.291 87.8661 205.876 87.2733 205.478 86.6491C205.079 86.025 204.659 85.448 204.161 84.892C203.663 84.336 203.217 83.7957 202.65 83.3341C202.037 82.8358 201.386 82.2851 200.668 81.9389C200.29 81.7553 199.891 81.6241 199.498 81.4773C199.105 81.3304 198.701 81.1626 198.281 81.0681C197.861 80.9737 197.431 81.194 197.311 81.6189C197.201 82.0175 197.442 82.4896 197.861 82.5893H197.872Z" fill="#D3CAC2"/>
<path d="M209.275 84.8616C209.459 85.1659 209.668 85.4491 209.862 85.7481C210.077 86.0838 210.245 86.4352 210.429 86.7867C210.759 87.4161 211.205 87.9721 211.557 88.5963C211.924 89.2519 212.223 89.9391 212.574 90.6C212.742 90.9147 212.947 91.2084 213.099 91.5284C213.251 91.8484 213.324 92.226 213.45 92.5722C213.723 93.2961 214.017 94.0252 214.342 94.7228C214.651 95.3837 214.662 96.1233 214.924 96.8052C215.186 97.4871 215.291 98.169 215.375 98.9085C215.417 99.26 215.422 99.6167 215.454 99.9681C215.485 100.361 215.548 100.75 215.564 101.143C215.585 101.615 215.554 102.087 215.527 102.559C215.506 102.947 215.517 103.357 215.449 103.739C215.38 104.122 215.202 104.511 215.108 104.904C215.008 105.329 214.982 105.764 214.851 106.184C214.546 107.154 216.068 107.569 216.367 106.603C216.487 106.22 216.513 105.827 216.597 105.439C216.681 105.051 216.839 104.684 216.928 104.301C217.106 103.535 217.101 102.696 217.127 101.909C217.153 101.122 217.038 100.304 216.986 99.4908C216.933 98.6777 216.87 97.87 216.687 97.1094C216.597 96.7422 216.419 96.4065 216.309 96.0446C216.194 95.6669 216.157 95.2683 216.062 94.8854C215.968 94.5025 215.784 94.1248 215.617 93.7629C215.459 93.4325 215.339 93.0863 215.202 92.7453C214.908 92.0057 214.72 91.2084 214.331 90.5161C214.148 90.1856 213.949 89.8709 213.786 89.5352C213.608 89.1628 213.44 88.7799 213.246 88.4179C213.052 88.056 212.837 87.6574 212.616 87.2902C212.417 86.965 212.17 86.6713 211.971 86.3461C211.751 85.9736 211.578 85.575 211.363 85.2026C211.137 84.8092 210.859 84.4473 210.623 84.0591C210.098 83.1936 208.735 83.9857 209.264 84.8511L209.275 84.8616Z" fill="#D3CAC2"/>
</g>
<g clip-path="url(#clip2_4632_16137)">
<path d="M225.82 124.893C225.82 124.893 225.785 124.893 225.766 124.893L217.527 124.107C217.209 124.076 216.973 123.794 217.004 123.472C217.035 123.151 217.318 122.915 217.639 122.95L225.375 123.685L227.612 114.366C227.658 114.165 227.809 114.006 228.007 113.945L240.952 110.024C241.257 109.931 241.583 110.106 241.675 110.411C241.768 110.717 241.594 111.042 241.288 111.135L228.661 114.962L226.385 124.448C226.323 124.711 226.087 124.893 225.82 124.893Z" fill="#785B4E"/>
<path d="M233.273 132.345C233.246 132.345 233.219 132.345 233.192 132.338L222.209 130.766C221.891 130.72 221.671 130.426 221.717 130.108C221.764 129.791 222.058 129.57 222.375 129.617L233.01 131.138L236.729 125.933C236.876 125.724 237.143 125.639 237.387 125.72L247.979 129.249C248.284 129.35 248.447 129.679 248.346 129.985C248.246 130.29 247.917 130.453 247.611 130.352L237.425 126.958L233.753 132.101C233.644 132.256 233.466 132.345 233.281 132.345H233.273Z" fill="#785B4E"/>
<path d="M235.235 150C235.046 150 234.86 149.907 234.748 149.733L230.518 143.197L218.889 137.384C218.602 137.241 218.486 136.892 218.629 136.606C218.773 136.32 219.121 136.204 219.407 136.347L231.176 142.233C231.269 142.279 231.346 142.349 231.404 142.438L235.719 149.106C235.893 149.377 235.816 149.733 235.545 149.907C235.448 149.969 235.34 150 235.232 150H235.235Z" fill="#785B4E"/>
</g>
</g>
<defs>
<clipPath id="clip0_4632_16137">
<rect width="226" height="162" fill="white" transform="translate(47.0001)"/>
</clipPath>
<clipPath id="clip1_4632_16137">
<rect width="125.142" height="169.89" fill="white" transform="translate(92.0001 -4.00006)"/>
</clipPath>
<clipPath id="clip2_4632_16137">
<rect width="31.37" height="40" fill="white" transform="translate(217 109.999)"/>
</clipPath>
</defs>
</svg>
