<svg width="320" height="200" viewBox="0 0 320 200" fill="none" xmlns="http://www.w3.org/2000/svg">
<g clip-path="url(#clip0_10950_5733)">
<rect width="320" height="200" rx="12" fill="#F5F5F5"/>
<g clip-path="url(#clip1_10950_5733)">
<g clip-path="url(#clip2_10950_5733)">
<path d="M148.733 123.671C146.829 122.696 144.706 122.155 142.403 121.493C137.374 120.041 132.115 118.461 126.816 118.415C118.69 118.339 110.759 118.952 102.748 120.12C98.7602 120.701 93.1562 121.209 89.8298 123.574C84.9406 127.057 81.0502 130.389 77.3285 135.037C73.3267 140.035 70.9055 145.521 68.8543 151.558C66.2355 159.265 61.8673 166.793 60.416 174.844C58.336 186.393 57.7756 206.611 71.6132 209C85.9034 211.469 101.009 211.842 115.615 211.681C128.231 211.541 140.399 209.595 152.903 208.549C159.876 207.965 166.939 210.09 171.892 203.905C181.911 191.397 178.125 163.361 172.435 149.906C167.416 138.036 160.113 129.504 148.733 123.671Z" fill="#EB9A60"/>
<path d="M107.224 109.507C108.294 112.707 107.935 118.393 107.224 122.306C113.284 126.928 124.334 125.86 130.746 123.015C130.035 117.684 128.609 112.707 128.609 107.375" fill="#F7CBB4"/>
<path d="M137.486 122.355L96.7407 122.823L97.3763 177.857L138.121 177.389L137.486 122.355Z" fill="white"/>
<path d="M124.731 139.832H125.936L125.94 145.92H124.735L124.733 142.926H123.45L123.449 141.799H124.733L124.731 139.832ZM122.792 139.996C122.793 140.801 122.736 141.536 122.623 142.191L124.393 144.986L123.359 145.627L122.21 143.703C121.719 144.936 120.95 145.627 120.023 145.635L120.022 144.38C120.956 144.273 121.568 142.498 121.566 139.953L122.792 139.996Z" fill="#333333"/>
<path d="M115.464 142.17C114.987 142.726 114.26 143.132 113.39 143.154L113.389 142.099C114.174 142.056 114.694 141.479 114.814 140.901H113.474L113.474 139.903H117.352L117.352 140.773H117.994L117.993 139.832H119.198L119.2 143.239H117.995L117.994 141.799H117.182L117.181 140.901H116.033C116.019 141.029 115.998 141.151 115.955 141.279L117.581 142.206L117.004 143.09L115.464 142.17ZM116.477 143.325C118.031 143.325 119.257 143.667 119.258 144.658C119.259 145.649 118.033 145.991 116.479 145.991C114.925 145.991 113.698 145.649 113.698 144.658C113.697 143.667 114.923 143.325 116.477 143.325ZM116.478 145.043C117.298 145.043 117.961 144.936 117.961 144.658C117.96 144.387 117.297 144.273 116.478 144.273C115.658 144.273 114.995 144.387 114.995 144.658C114.995 144.936 115.658 145.043 116.478 145.043Z" fill="#333333"/>
<path d="M112.431 139.832L112.434 144.337H111.229L111.226 139.832H112.431ZM108.524 139.839C109.715 139.839 110.528 140.566 110.529 141.664C110.529 142.769 109.717 143.489 108.527 143.489C107.336 143.489 106.523 142.769 106.522 141.664C106.522 140.566 107.334 139.839 108.524 139.839ZM108.525 140.844C108.062 140.844 107.72 141.136 107.72 141.664C107.72 142.191 108.063 142.484 108.526 142.484C108.989 142.484 109.331 142.191 109.331 141.664C109.331 141.136 108.988 140.844 108.525 140.844ZM108.285 143.788L108.285 144.836H112.52L112.52 145.92H107.06L107.058 143.788H108.285Z" fill="#333333"/>
<path d="M129.814 133.294H129.102L129.102 133.714H129.815L129.815 134.72H129.102L129.103 135.261H127.898L127.896 131.911H129.101L129.101 132.289H129.814L129.814 133.294ZM125.282 135.126C124.113 135.126 123.328 134.491 123.327 133.522C123.327 132.56 124.111 131.918 125.28 131.918C126.449 131.918 127.233 132.56 127.234 133.522C127.235 134.491 126.451 135.126 125.282 135.126ZM125.28 132.895C124.817 132.895 124.525 133.137 124.525 133.522C124.525 133.907 124.818 134.149 125.281 134.149C125.744 134.149 126.037 133.907 126.036 133.522C126.036 133.137 125.744 132.895 125.28 132.895ZM126.451 135.347C127.962 135.347 129.16 135.696 129.161 136.709C129.161 137.721 127.964 138.07 126.453 138.07C124.941 138.07 123.744 137.721 123.743 136.709C123.742 135.696 124.94 135.347 126.451 135.347ZM126.452 137.108C127.236 137.108 127.864 137.001 127.863 136.709C127.863 136.423 127.236 136.309 126.452 136.309C125.667 136.309 125.04 136.423 125.04 136.709C125.041 137.001 125.668 137.108 126.452 137.108Z" fill="#333333"/>
<path d="M121.617 136.68H122.807L122.808 137.785H116.649L116.648 136.68H117.839L117.838 135.361C117.232 135.019 116.882 134.491 116.882 133.857C116.881 132.709 118.014 131.918 119.725 131.918C121.436 131.918 122.569 132.709 122.57 133.857C122.571 134.491 122.222 135.019 121.616 135.361L121.617 136.68ZM119.725 133.002C118.806 133.002 118.157 133.337 118.158 133.857C118.158 134.37 118.807 134.712 119.726 134.712C120.646 134.712 121.295 134.37 121.294 133.857C121.294 133.337 120.645 133.002 119.725 133.002ZM119.043 135.746L119.043 136.68H120.412L120.411 135.746C120.198 135.775 119.97 135.789 119.727 135.789C119.485 135.789 119.257 135.775 119.043 135.746Z" fill="#333333"/>
<path d="M115.795 131.911L115.799 137.999H114.594L114.59 131.911H115.795ZM113.649 132.053L113.65 133.7C113.652 136.174 112.277 137.714 110.146 137.714L110.145 136.573C111.62 136.559 112.418 135.461 112.417 133.7L112.417 133.151H110.143L110.142 132.053H113.649Z" fill="#333333"/>
<path d="M108.886 132.845H109.599L109.6 133.992H108.887L108.888 135.261H107.683L107.681 131.911H108.885L108.886 132.845ZM105.337 134.221C104.867 134.784 104.126 135.204 103.242 135.226L103.241 134.171C104.025 134.128 104.545 133.558 104.666 132.98H103.326L103.325 131.982H107.203L107.204 132.98H105.885C105.878 133.094 105.849 133.208 105.821 133.322L107.418 134.206L106.856 135.097L105.337 134.221ZM106.2 135.347C107.733 135.347 108.945 135.696 108.946 136.709C108.946 137.721 107.735 138.07 106.202 138.07C104.669 138.07 103.457 137.721 103.456 136.709C103.456 135.696 104.667 135.347 106.2 135.347ZM106.201 137.108C107.007 137.108 107.648 137.001 107.648 136.709C107.648 136.423 107.006 136.309 106.201 136.309C105.395 136.309 104.754 136.423 104.754 136.709C104.754 137.001 105.396 137.108 106.201 137.108Z" fill="#333333"/>
<path d="M141.569 159.256C141.366 159.015 141.166 158.777 140.969 158.539C139.405 156.645 138.333 154.326 136.871 152.349C135.513 150.512 132.886 149.255 130.671 148.737C124.076 147.198 126.939 157.014 129.972 156.064C128.181 156.624 125.871 156.889 125.909 159.691C125.933 161.207 127.856 164.291 129.512 164.059C124.915 163.556 124.82 169.856 128.703 171.25C127.3 172.801 125.13 171.717 125.047 174.718C124.984 176.966 126.677 177.788 127.847 179.223C130.103 181.986 133.25 187.453 137.495 186.191C140.489 185.303 143.089 182.12 144.369 179.396C146.59 174.677 148.214 168.99 145.384 164.226C144.334 162.46 142.904 160.831 141.566 159.25L141.569 159.256Z" fill="#F7D1BD"/>
<path d="M128.996 172.992C131.551 172.798 133.492 174.593 135.238 176.201C135.59 176.526 136.118 176.002 135.766 175.674C133.877 173.935 131.757 172.036 128.996 172.247C128.521 172.283 128.515 173.027 128.996 172.992Z" fill="#BA8076"/>
<path d="M129.975 164.851C132.575 166.081 134.354 168.379 136.507 170.196C136.871 170.502 137.402 169.978 137.035 169.669C134.832 167.811 133.011 165.464 130.351 164.208C129.918 164.002 129.539 164.646 129.975 164.851Z" fill="#BA8076"/>
<path d="M130.721 156.413C132.712 157.795 134.301 159.724 135.838 161.57C136.145 161.939 136.671 161.409 136.366 161.043C134.781 159.143 133.145 157.193 131.097 155.77C130.703 155.496 130.33 156.139 130.721 156.413Z" fill="#BA8076"/>
<path d="M91.8823 159.662C92.0823 159.425 92.2793 159.19 92.4734 158.955C94.0142 157.09 95.0698 154.805 96.5106 152.858C97.8485 151.048 100.436 149.811 102.618 149.3C109.113 147.784 106.294 157.454 103.306 156.518C105.07 157.07 107.346 157.331 107.308 160.091C107.284 161.583 105.391 164.622 103.759 164.393C108.287 163.897 108.381 170.103 104.556 171.476C105.938 173.004 108.075 171.937 108.158 174.893C108.22 177.107 106.552 177.917 105.4 179.33C103.177 182.052 100.077 187.437 95.8961 186.193C92.9468 185.319 90.3856 182.184 89.1242 179.5C86.9365 174.852 85.3369 169.25 88.1244 164.557C89.1595 162.818 90.5679 161.214 91.8823 159.656V159.662Z" fill="#F7D1BD"/>
<path d="M104.27 172.459C101.553 172.253 99.4628 174.122 97.6015 175.834C97.2545 176.154 97.775 176.673 98.1219 176.354C99.8421 174.77 101.753 173.001 104.27 173.192C104.741 173.227 104.741 172.494 104.27 172.459Z" fill="#BA8076"/>
<path d="M102.932 164.543C100.313 165.78 98.5188 168.091 96.3488 169.922C95.9871 170.227 96.5105 170.743 96.8693 170.441C98.9923 168.649 100.742 166.387 103.303 165.176C103.729 164.974 103.359 164.343 102.932 164.543Z" fill="#BA8076"/>
<path d="M102.198 156.228C100.18 157.63 98.569 159.551 97.0076 161.422C96.7077 161.783 97.2252 162.305 97.5281 161.941C99.0453 160.123 100.61 158.222 102.568 156.861C102.953 156.595 102.586 155.958 102.198 156.228Z" fill="#BA8076"/>
<path d="M157.692 141.762C155.221 145.671 151.585 148.735 148.334 151.97C147.925 152.379 148.56 153.013 148.97 152.604C152.278 149.312 155.953 146.191 158.468 142.213C158.777 141.726 158.001 141.275 157.692 141.762Z" fill="#AD6349"/>
<path d="M153.198 168.237C155.307 170.04 157.437 171.82 159.406 173.777C159.815 174.185 160.451 173.551 160.041 173.143C158.073 171.186 155.943 169.406 153.834 167.603C153.396 167.231 152.76 167.861 153.198 168.237Z" fill="#B28D52"/>
<path d="M152.799 175.966C153.482 176.973 154.409 177.843 155.249 178.714C156.294 179.796 157.358 180.857 158.421 181.921C158.831 182.329 159.466 181.695 159.057 181.287C158.012 180.244 156.966 179.201 155.942 178.141C155.443 177.625 154.947 177.105 154.462 176.571C154.139 176.217 153.794 175.837 153.575 175.514C153.252 175.038 152.476 175.486 152.799 175.966Z" fill="#B28D52"/>
<path d="M148.948 184.852C150.209 186.418 151.625 187.833 153.194 189.087C153.385 189.238 153.643 189.27 153.83 189.087C153.988 188.93 154.021 188.607 153.83 188.453C152.26 187.195 150.841 185.784 149.584 184.218C149.433 184.028 149.106 184.06 148.948 184.218C148.761 184.404 148.797 184.662 148.948 184.852Z" fill="#AD6349"/>
<path d="M143.98 191.28C144.749 192.423 145.819 193.415 147.188 193.767C147.414 193.824 147.687 193.691 147.741 193.455C147.795 193.218 147.669 192.968 147.429 192.903C147.274 192.864 147.123 192.817 146.976 192.76C146.976 192.76 146.847 192.706 146.911 192.735C146.883 192.724 146.854 192.71 146.825 192.695C146.753 192.663 146.685 192.627 146.617 192.591C146.48 192.52 146.351 192.441 146.222 192.355C146.157 192.312 146.096 192.269 146.035 192.222C145.916 192.136 146.096 192.272 145.981 192.179C145.952 192.154 145.923 192.133 145.895 192.108C145.665 191.914 145.449 191.703 145.252 191.477C145.201 191.423 145.155 191.366 145.108 191.309C145.086 191.28 145.061 191.251 145.04 191.223C144.993 191.162 145.043 191.23 145.015 191.194C144.925 191.076 144.839 190.954 144.756 190.829C144.619 190.628 144.361 190.542 144.142 190.667C143.941 190.786 143.844 191.079 143.98 191.28Z" fill="#AD6349"/>
<path d="M156.841 166.843C157.193 166.259 157.706 165.622 158.468 165.715C159.183 165.801 159.815 166.342 160.325 166.808C161.665 168.037 162.696 169.556 163.975 170.846C164.194 171.064 164.514 170.985 164.679 170.756C166.881 167.675 170.786 167.134 174.299 167.703C174.863 167.797 175.107 166.933 174.536 166.84C172.56 166.517 170.502 166.464 168.562 167.019C166.622 167.574 165.053 168.696 163.903 170.301L164.607 170.212C163.167 168.76 162.042 166.987 160.418 165.715C159.786 165.22 159.01 164.755 158.173 164.815C157.207 164.884 156.535 165.607 156.065 166.392C155.766 166.886 156.542 167.338 156.841 166.843Z" fill="#B28D52"/>
<path d="M166.026 157.757C164.155 158.885 162.409 160.362 161.036 162.064C160.886 162.254 160.853 162.512 161.036 162.698C161.195 162.855 161.518 162.888 161.672 162.698C163.001 161.053 164.668 159.624 166.482 158.531C166.978 158.233 166.526 157.459 166.03 157.757H166.026Z" fill="#B28D52"/>
<path d="M83.8736 142.081C84.6244 143.113 84.9082 144.542 85.1776 145.761C85.5297 147.362 85.7668 149.007 85.774 150.652C85.774 151.228 86.6756 151.228 86.672 150.652C86.6649 148.932 86.4134 147.201 86.0434 145.524C85.7596 144.238 85.4435 142.719 84.6496 141.629C84.3119 141.167 83.5324 141.615 83.8736 142.081Z" fill="#AD6349"/>
<path d="M83.7086 166.649C81.194 168.473 79.8181 171.486 77.1742 173.166L77.7885 173.328C76.9658 172.045 75.7804 170.988 74.2932 170.554C72.8059 170.121 71.2792 170.425 69.986 171.21C69.4938 171.511 69.9429 172.285 70.4386 171.984C71.5343 171.318 72.8023 171.056 74.0525 171.418C75.3134 171.783 76.3156 172.693 77.0089 173.779C77.1347 173.976 77.4113 174.073 77.6232 173.94C78.956 173.091 80.0085 171.916 81.0144 170.716C81.9807 169.562 82.9255 168.315 84.154 167.423C84.6174 167.086 84.1684 166.308 83.7014 166.649H83.7086Z" fill="#AD6349"/>
<path d="M74.0738 152.834C76.3442 156.098 77.6158 159.91 78.2732 163.805C78.3702 164.371 79.236 164.131 79.139 163.569C78.4672 159.609 77.1596 155.704 74.8462 152.382C74.5193 151.913 73.7397 152.361 74.0702 152.834H74.0738Z" fill="#AD6349"/>
<path d="M82.8966 178.446C81.9626 179.993 80.8921 181.459 79.9581 183.007C79.66 183.501 80.4359 183.953 80.7341 183.458C81.6681 181.91 82.7386 180.445 83.6726 178.897C83.9707 178.403 83.1948 177.951 82.8966 178.446Z" fill="#AD6349"/>
<path d="M87.1428 187.242C87.0566 187.41 86.956 187.571 86.8482 187.726C86.8195 187.765 86.7907 187.815 86.7548 187.851C86.78 187.826 86.7943 187.804 86.762 187.844C86.7476 187.862 86.7333 187.88 86.7189 187.898C86.6506 187.98 86.5788 188.062 86.5105 188.145C86.216 188.478 85.8998 188.793 85.5837 189.109C85.4185 189.273 85.4041 189.578 85.5837 189.743C85.7633 189.908 86.0399 189.918 86.2196 189.743C86.5429 189.42 86.8698 189.098 87.1715 188.75C87.4553 188.428 87.7283 188.08 87.9223 187.697C88.0265 187.489 87.9834 187.202 87.7607 187.084C87.5559 186.977 87.2577 187.023 87.1464 187.245L87.1428 187.242Z" fill="#AD6349"/>
<path d="M90.9147 101.23C85.8424 100.79 80.1091 108.049 80.77 112.89C81.431 119.712 90.0346 122.349 95.9906 121.471C103.71 120.153 110.989 113.549 107.019 105.19C106.577 105.19 106.358 104.749 106.135 104.53" fill="#B3AFAF"/>
<path d="M131.174 92.9999C131.245 99.7934 136.824 105.243 143.639 105.168C150.45 105.096 155.91 99.5283 155.838 92.7348C155.763 85.9413 150.184 80.4914 143.373 80.5667C136.562 80.6383 131.102 86.2064 131.174 92.9999Z" fill="#F7CBB4"/>
<path d="M149.9 92.7993L144.418 92.8566" stroke="#BA8076" stroke-width="2.37624" stroke-linecap="round" stroke-linejoin="round"/>
<path d="M100.707 93.3226C100.779 100.116 95.3188 105.681 88.5042 105.756C81.6931 105.828 76.1143 100.378 76.0424 93.5878C75.9706 86.7943 81.4309 81.2262 88.2419 81.1545C95.0529 81.0828 100.632 86.5327 100.707 93.3226Z" fill="#F7CBB4"/>
<path d="M81.9805 93.5233L87.4623 93.4624" stroke="#BA8076" stroke-width="2.37624" stroke-linecap="round" stroke-linejoin="round"/>
<path d="M85.5009 87.2743C85.6842 104.383 99.4319 118.107 116.208 117.931C132.984 117.752 146.437 103.739 146.254 86.6294C146.071 69.5202 132.323 55.797 115.543 55.9726C98.7673 56.1518 85.3141 70.1652 85.5009 87.2743Z" fill="#F7D1BD"/>
<path d="M125.067 89.005C125.081 90.4597 125.914 91.635 126.92 91.6242C127.93 91.6135 128.734 90.4239 128.72 88.9692C128.706 87.5108 127.872 86.3392 126.866 86.3499C125.857 86.3607 125.052 87.5503 125.067 89.0086V89.005Z" fill="#70544F"/>
<path d="M103.599 89.2307C103.613 90.6855 104.443 91.8571 105.453 91.8464C106.462 91.8356 107.267 90.646 107.249 89.1913C107.235 87.733 106.405 86.5613 105.395 86.5721C104.386 86.5828 103.578 87.7724 103.596 89.2307H103.599Z" fill="#70544F"/>
<path d="M108.222 80.9573C105.927 78.7788 102.464 80.0221 100.262 81.6882C99.8054 82.0322 100.254 82.8097 100.714 82.4622C102.554 81.0719 105.603 79.7104 107.586 81.5915C108.007 81.9892 108.643 81.355 108.222 80.9573Z" fill="#413939"/>
<path d="M124.158 81.1151C126.101 79.191 129.173 80.4702 131.044 81.8281C131.511 82.1685 131.96 81.391 131.497 81.0542C129.266 79.4382 125.767 78.2558 123.522 80.4809C123.112 80.8894 123.745 81.52 124.158 81.1151Z" fill="#413939"/>
<path d="M108.459 98.2564C107.533 98.9049 106.627 99.6036 105.841 100.417C105.054 101.23 104.415 102.094 104.116 103.147C103.958 103.703 104.824 103.939 104.982 103.384C105.244 102.456 105.862 101.675 106.527 100.997C107.249 100.259 108.068 99.6215 108.912 99.0303C109.11 98.8906 109.203 98.6398 109.074 98.4176C108.959 98.2205 108.661 98.1166 108.459 98.2564Z" fill="#BA8076"/>
<path d="M124.628 98.3138C125.473 98.905 126.288 99.5428 127.014 100.281C127.678 100.958 128.296 101.743 128.558 102.667C128.716 103.223 129.582 102.986 129.424 102.431C129.126 101.381 128.451 100.478 127.7 99.7004C126.913 98.8871 126.008 98.1884 125.081 97.5398C124.883 97.4001 124.582 97.504 124.467 97.7011C124.334 97.9232 124.427 98.174 124.628 98.3138Z" fill="#BA8076"/>
<path d="M115.827 90.7212C115.874 90.6495 115.921 90.5814 115.974 90.5134C115.917 90.5886 116 90.4847 116.003 90.4775C116.028 90.4489 116.053 90.4202 116.079 90.3915C116.129 90.3378 116.179 90.284 116.233 90.2375C116.258 90.2124 116.287 90.1909 116.312 90.1694C116.33 90.1551 116.348 90.1407 116.366 90.1264C116.319 90.1622 116.316 90.1658 116.355 90.1371C116.463 90.0726 116.564 90.0046 116.679 89.9508C116.556 90.0081 116.729 89.9365 116.765 89.9257C116.829 89.9078 116.894 89.8971 116.959 89.8827C116.815 89.915 116.991 89.8827 117.034 89.8827C117.088 89.8827 117.146 89.8827 117.199 89.8827C117.228 89.8827 117.253 89.8899 117.282 89.8899C117.146 89.8792 117.239 89.8827 117.271 89.8899C117.336 89.9042 117.397 89.9186 117.458 89.9365C117.512 89.9544 117.562 89.9723 117.616 89.9938C117.483 89.9472 117.656 90.0153 117.688 90.0296C117.803 90.087 117.904 90.1586 118.011 90.2303C118.097 90.2876 117.936 90.1658 118.015 90.2303C118.036 90.2482 118.062 90.2697 118.083 90.2876C118.13 90.327 118.173 90.3665 118.216 90.4095C118.313 90.5026 118.399 90.6029 118.485 90.7068C118.554 90.7857 118.442 90.6495 118.485 90.7033C118.5 90.7248 118.518 90.7463 118.532 90.7678C118.568 90.8179 118.604 90.8717 118.636 90.9254C118.708 91.0401 118.776 91.1619 118.834 91.2837C118.848 91.3124 118.859 91.3411 118.873 91.3697C118.823 91.2586 118.87 91.3554 118.873 91.3805C118.895 91.4378 118.917 91.4987 118.938 91.556C118.981 91.685 119.014 91.814 119.039 91.9466C119.046 91.9753 119.049 92.0075 119.053 92.0362C119.031 91.9072 119.053 92.0111 119.053 92.0362C119.057 92.0971 119.064 92.158 119.064 92.2189C119.064 92.2798 119.064 92.3407 119.064 92.4016C119.064 92.4446 119.031 92.6596 119.057 92.5235C119.031 92.6632 118.999 92.7958 118.952 92.9284C118.945 92.9534 118.899 93.043 118.952 92.9319C118.934 92.9678 118.917 93.0036 118.899 93.0394C118.866 93.1039 118.827 93.1648 118.787 93.2257C118.769 93.2508 118.751 93.2759 118.733 93.301C118.805 93.2007 118.719 93.3153 118.701 93.3332C118.651 93.3906 118.597 93.4443 118.539 93.4981C118.514 93.5196 118.485 93.5411 118.46 93.5661C118.421 93.5984 118.424 93.5948 118.467 93.559C118.45 93.5733 118.428 93.5876 118.41 93.602C118.338 93.6485 118.266 93.6951 118.191 93.7381C117.688 94.0212 118.141 94.7951 118.644 94.5121C119.24 94.1753 119.703 93.6378 119.876 92.9678C120.034 92.3622 119.962 91.7029 119.732 91.1261C119.297 90.0368 118.27 88.9117 116.991 88.987C116.143 89.0371 115.5 89.5889 115.051 90.2697C114.918 90.4704 115.012 90.7642 115.213 90.8824C115.432 91.0114 115.694 90.9254 115.827 90.7212Z" fill="#BA8076"/>
<path d="M108.129 70.6094C107.888 66.7863 112.558 65.2348 117.11 65.2348C122.617 65.2348 124.919 70.699 127.556 74.2821C134.022 82.8815 143.815 89.958 155.07 82.7919C149.563 80.402 148.603 72.2827 146.689 67.2664C144.056 60.5769 141.419 54.1273 134.475 51.2609C120.824 46.0045 109.088 51.7374 107.414 65.8332" fill="#B3AFAF"/>
<path d="M113.158 53.8874C96.1559 50.7809 74.6021 72.9959 85.379 89.7181C91.6044 79.2089 95.9152 73.7125 108.129 70.6096" fill="#B3AFAF"/>
<path d="M100.406 92.0183C100.966 92.0183 101.555 92.0291 102.069 91.7783C102.281 91.6743 102.356 91.359 102.23 91.1656C102.09 90.9506 101.842 90.8932 101.616 91.0043C101.598 91.0115 101.58 91.0222 101.562 91.0294L101.67 90.9828C101.526 91.0437 101.375 91.076 101.221 91.0975L101.34 91.0831C101.031 91.1226 100.718 91.1226 100.409 91.1226C100.176 91.1226 99.9493 91.3268 99.9601 91.5704C99.9709 91.8141 100.158 92.0183 100.409 92.0183H100.406Z" fill="#BA8076"/>
<path d="M130.628 91.0617C130.653 91.0509 130.678 91.0366 130.703 91.0258L130.595 91.0724C130.696 91.0294 130.796 91.0008 130.904 90.9864L130.786 91.0008C130.89 90.9864 130.99 90.9864 131.095 91.0008L130.976 90.9864C131.084 91.0008 131.184 91.033 131.285 91.0724L131.177 91.0258C131.202 91.0366 131.227 91.0473 131.253 91.0617C131.36 91.1154 131.479 91.1405 131.598 91.1082C131.702 91.0796 131.813 91.0008 131.867 90.904C131.921 90.8001 131.95 90.6747 131.914 90.56C131.878 90.4525 131.813 90.3451 131.709 90.2913C131.468 90.1731 131.213 90.0942 130.944 90.0942C130.674 90.0942 130.419 90.1731 130.179 90.2913C130.082 90.3379 129.999 90.4597 129.974 90.56C129.945 90.6675 129.956 90.8109 130.02 90.904C130.085 90.9972 130.175 91.0832 130.29 91.1082C130.412 91.1369 130.523 91.119 130.635 91.0617H130.628Z" fill="#BA8076"/>
<path d="M123.098 97.7798C119.265 98.1381 114.358 98.5573 110.525 98.5573C109.688 105.842 123.217 104.229 123.098 97.7798Z" fill="#CA6F63"/>
</g>
<g clip-path="url(#clip3_10950_5733)">
<path d="M255.537 144.385C254.215 140.323 251.669 136.015 248.966 132.566C243.391 125.439 236.766 120.793 228.031 117.365C226.906 116.923 225.698 116.595 224.419 116.214C220.556 115.067 216.515 113.819 212.431 113.745C206.167 113.627 200.049 114.037 193.864 114.871C189.678 115.434 185.283 116.303 181.467 118.163C181.388 118.202 181.317 118.249 181.238 118.288C167.342 123.483 160.653 134.586 154.342 146.057C151.679 150.903 148.252 156.287 147.508 161.738C146.206 171.317 149.283 179.566 158.477 184.729C160.378 185.798 162.617 187.002 163.722 188.827C165.26 191.356 164.127 189.033 164.753 191.788C165.441 194.838 167.487 196.715 167.92 199.836C168.388 203.218 166.449 206.296 171.143 206.799C176.151 207.333 181.734 206.403 186.739 206.033C194.041 205.494 201.54 205.847 208.917 205.919C215.102 205.979 221.287 205.837 227.472 205.619C230.014 205.534 238.135 206.424 239.473 203.478C240.429 201.375 239.268 197.641 239.567 195.314C239.89 192.774 241.747 191.67 242.36 189.179C243.065 186.321 243.316 189.026 243.411 186.175C251.477 184.494 258.425 177.998 259.412 170.244C260.522 161.532 258.228 152.656 255.537 144.382V144.385Z" fill="#8DB579"/>
<path d="M197.413 105.425C198.189 107.84 197.944 111.742 197.381 114.681C201.875 118.21 210.08 116.36 214.9 114.272C214.266 112.205 213.383 108.004 213.426 103.991" fill="#F7CBB4"/>
<path d="M190.799 85.7952C190.728 92.5044 185.252 97.8866 178.564 97.8154C171.879 97.7443 166.517 92.2447 166.591 85.5356C166.662 78.8264 172.138 73.4442 178.823 73.5153C185.511 73.5865 190.87 79.0826 190.799 85.7952Z" fill="#F7CBB4"/>
<path d="M172.418 85.5996L177.798 85.6565" stroke="#BA8076" stroke-width="2.37624" stroke-linecap="round" stroke-linejoin="round"/>
<path d="M220.698 86.1154C220.628 92.8245 225.987 98.3206 232.675 98.3917C239.359 98.4629 244.835 93.0806 244.906 86.3715C244.977 79.6624 239.618 74.1663 232.933 74.0952C226.249 74.024 220.773 79.4063 220.702 86.1154H220.698Z" fill="#F7CBB4"/>
<path d="M239.079 86.3111L233.699 86.2542" stroke="#BA8076" stroke-width="2.37624" stroke-linecap="round" stroke-linejoin="round"/>
<path d="M235.623 80.1427C235.446 97.04 221.95 110.597 205.483 110.419C189.016 110.241 175.814 96.4032 175.991 79.5059C176.172 62.6086 189.665 49.0516 206.131 49.2295C222.598 49.4038 235.801 63.2454 235.62 80.1427H235.623Z" fill="#F7D1BD"/>
<path d="M196.792 81.8502C196.778 83.2874 195.963 84.447 194.97 84.4364C193.981 84.4257 193.191 83.2518 193.205 81.8146C193.219 80.3739 194.035 79.2178 195.027 79.2249C196.019 79.2356 196.81 80.413 196.792 81.8502Z" fill="#70544F"/>
<path d="M217.863 82.0744C217.849 83.5115 217.034 84.6712 216.041 84.6605C215.049 84.6499 214.262 83.4759 214.276 82.0352C214.29 80.5945 215.105 79.4384 216.098 79.449C217.087 79.4597 217.877 80.6372 217.863 82.0744Z" fill="#70544F"/>
<path d="M213.946 75.9452C215.889 74.0882 218.884 75.4329 220.688 76.806C221.141 77.1511 221.584 76.3792 221.134 76.0377C218.972 74.3906 215.573 73.1633 213.319 75.3155C212.904 75.7104 213.532 76.34 213.946 75.9452Z" fill="#413939"/>
<path d="M198.309 75.1482C196.105 72.9462 192.67 74.1165 190.48 75.7138C190.023 76.0482 190.466 76.8201 190.926 76.4822C192.762 75.1446 195.779 73.8782 197.682 75.7778C198.086 76.1833 198.713 75.5537 198.309 75.1482Z" fill="#413939"/>
<path d="M197.611 90.5906C199.064 91.8179 201.028 92.4404 202.871 92.757C205.171 93.1554 207.617 93.0985 209.828 92.3017C211.122 91.8357 212.299 91.1207 213.284 90.1566C213.691 89.7546 213.064 89.1286 212.657 89.527C209.53 92.5863 204.437 92.661 200.542 91.2203C199.727 90.9179 198.905 90.5266 198.235 89.961C197.802 89.5946 197.172 90.2207 197.607 90.5906H197.611Z" fill="#BA8076"/>
<path d="M214.209 87.944C215.038 88.5274 215.839 89.157 216.548 89.8863C217.2 90.5551 217.806 91.327 218.062 92.2412C218.218 92.7926 219.072 92.5578 218.916 92.0064C218.625 90.9677 217.962 90.0748 217.225 89.31C216.488 88.5452 215.563 87.8159 214.655 87.1756C214.461 87.0369 214.163 87.14 214.049 87.3357C213.918 87.5562 214.01 87.8052 214.209 87.944Z" fill="#BA8076"/>
<path d="M222.226 51.9153C212.809 40.2437 192.096 38.6856 177.795 55.3944C169.721 64.8249 170.263 74.3763 173.51 78.9759C178.38 85.6957 192.344 70.8403 193.971 65.8885C198.841 75.4399 210.207 70.8403 214.755 64.4727C215.403 69.0723 219.951 72.6083 224.172 72.2561C227.745 85.6957 240.086 85.6957 239.434 70.4881C239.108 60.2324 230.665 53.6869 222.223 51.9189L222.226 51.9153Z" fill="#97928C"/>
<path d="M173.159 134.395C174.445 136.964 175.994 139.418 177.011 142.111C177.21 142.641 178.068 142.41 177.866 141.876C176.82 139.105 175.243 136.587 173.924 133.947C173.669 133.435 172.904 133.887 173.159 134.395Z" fill="#699055"/>
<path d="M166.942 147.593C168.64 146.437 170.674 147.561 172.067 148.685C173.708 150.012 175.129 151.737 176.079 153.626C176.338 154.139 177.1 153.687 176.845 153.178C175.796 151.094 174.183 149.183 172.333 147.775C170.692 146.526 168.399 145.53 166.496 146.825C166.028 147.145 166.471 147.913 166.942 147.593Z" fill="#699055"/>
<path d="M196.155 117.259L186.915 171.066L224.462 177.562L233.703 123.755L196.155 117.259Z" fill="white"/>
<path d="M181.488 142.972C182.959 139.184 185.163 135.637 188.222 133.922C194.226 130.557 193.971 138.316 190.901 141.571C192.514 139.675 194.786 137.661 195.97 140.838C196.969 143.527 195.002 145.608 194.332 147.981C196.041 146.722 197.037 146.078 198.026 148.219C198.632 149.532 198.788 152.193 197.841 153.363C198.362 152.371 199.801 151.062 200.957 151.969C202.137 152.894 201.166 155.131 200.84 156.198C198.607 163.434 191.27 172.932 182.707 168.863C175.803 165.579 178.621 157.02 179.386 151.204C179.705 148.764 180.393 145.797 181.488 142.969V142.972Z" fill="#F7D1BD"/>
<path d="M189.087 140.884C187.914 141.485 186.957 142.545 186.152 143.573C185.227 144.751 184.422 146.042 183.901 147.455C183.703 147.992 184.561 148.223 184.756 147.689C185.231 146.402 185.989 145.196 186.836 144.125C187.58 143.186 188.449 142.207 189.53 141.653C190.037 141.393 189.59 140.624 189.083 140.884H189.087Z" fill="#BA8076"/>
<path d="M192.394 148.867C191.082 150.62 189.778 152.381 188.711 154.299C188.431 154.8 189.197 155.249 189.477 154.747C190.544 152.83 191.848 151.069 193.159 149.315C193.305 149.123 193.191 148.817 193 148.707C192.773 148.575 192.539 148.675 192.394 148.867Z" fill="#BA8076"/>
<path d="M196.144 152.904C195.481 153.584 195.024 154.452 194.602 155.295C194.152 156.191 193.751 157.116 193.258 157.991C192.975 158.489 193.741 158.938 194.024 158.44C194.506 157.589 194.899 156.689 195.332 155.814C195.729 155.018 196.14 154.174 196.767 153.534C197.168 153.125 196.541 152.495 196.14 152.904H196.144Z" fill="#BA8076"/>
<path d="M235.244 141.201C226.242 135.708 217.835 146.843 230.133 147.575C223.7 147.33 219.919 153.299 227.638 155C220.805 154.594 218.469 161.613 224.902 164.199C217.342 166.778 224.253 172.832 229.159 173.402C235.269 174.455 239.21 170.421 240.66 164.448C241.787 159.283 239.823 144.918 235.244 141.204V141.201Z" fill="#F7D1BD"/>
<path d="M230.016 148.002C231.115 148.294 232.21 148.614 233.291 148.966C234.301 149.297 235.351 149.628 236.276 150.158C236.772 150.443 237.218 149.674 236.722 149.39C235.755 148.838 234.663 148.486 233.614 148.138C232.505 147.771 231.381 147.444 230.25 147.145C229.697 146.999 229.464 147.857 230.016 148.002Z" fill="#BA8076"/>
<path d="M228.818 156.024C231.133 156.294 233.454 156.764 235.549 157.824C236.056 158.08 236.506 157.315 235.996 157.056C233.752 155.921 231.296 155.426 228.818 155.135C228.251 155.067 228.258 155.96 228.818 156.024Z" fill="#BA8076"/>
<path d="M227.305 165.042C228.017 165.43 228.769 165.6 229.573 165.661C230.378 165.721 231.168 165.761 231.955 165.974C232.504 166.123 232.742 165.266 232.189 165.117C231.391 164.9 230.576 164.839 229.757 164.782C229.052 164.736 228.382 164.615 227.751 164.27C227.252 163.996 226.802 164.764 227.305 165.038V165.042Z" fill="#BA8076"/>
<path d="M184.125 175.984C180.822 179.503 177.125 182.839 172.666 184.789C171.33 185.372 169.926 185.803 168.491 186.066C167.931 186.169 168.168 187.026 168.725 186.923C173.825 185.988 178.231 182.91 181.952 179.421C182.916 178.517 183.845 177.574 184.749 176.61C185.139 176.194 184.515 175.565 184.121 175.981L184.125 175.984Z" fill="#699055"/>
<path d="M229.789 175.44C229.467 175.237 229.045 175.422 229.031 175.821C229.024 176.052 229.169 176.287 229.276 176.479C229.701 177.265 230.222 178.008 230.729 178.745C231.328 179.613 231.944 180.474 232.607 181.295C233.341 182.213 234.075 183.163 234.897 184.002C236.07 185.201 237.53 186.197 239.256 186.226C239.827 186.236 239.827 185.347 239.256 185.336C236.68 185.294 235.18 182.9 233.66 181.178C232.55 179.919 231.594 178.492 230.683 177.083C230.474 176.76 230.268 176.436 230.08 176.098C230.023 175.995 229.974 175.885 229.917 175.781C229.935 175.813 229.945 175.771 229.914 175.756C230.052 175.813 229.435 176.262 229.346 176.208C229.832 176.514 230.275 175.746 229.793 175.44H229.789Z" fill="#699055"/>
<path d="M244.229 143.424C243.354 143.968 242.758 144.957 242.258 145.832C241.652 146.889 241.145 148.006 240.717 149.144C240.632 149.368 240.809 149.631 241.025 149.692C241.273 149.76 241.486 149.607 241.571 149.382C241.964 148.34 242.436 147.323 242.981 146.352C243.41 145.594 243.938 144.648 244.676 144.192C245.161 143.89 244.715 143.122 244.229 143.424Z" fill="#699055"/>
<path d="M244.452 148.995C244.909 148.995 245.367 148.995 245.82 149.048C245.881 149.055 245.98 149.069 246.083 149.091C246.192 149.112 246.302 149.137 246.412 149.165C246.646 149.229 246.859 149.308 247.064 149.407C247.27 149.507 247.553 149.471 247.67 149.247C247.777 149.048 247.734 148.749 247.511 148.639C247.004 148.39 246.48 148.241 245.92 148.169C245.434 148.105 244.941 148.102 244.452 148.102C244.222 148.102 243.999 148.305 244.009 148.546C244.02 148.788 244.204 148.991 244.452 148.991V148.995Z" fill="#699055"/>
<path d="M222.166 182.067C226.167 187.051 228.701 193.049 232.799 197.958C233.164 198.395 233.787 197.766 233.426 197.328C231.416 194.92 229.807 192.202 228.187 189.52C226.511 186.745 224.824 183.97 222.793 181.438C222.435 180.993 221.811 181.626 222.166 182.067Z" fill="#699055"/>
<path d="M188.452 82.7111H189.987C190.217 82.7111 190.441 82.5083 190.43 82.2664C190.42 82.0245 190.235 81.8218 189.987 81.8218H188.452C188.222 81.8218 187.999 82.0245 188.009 82.2664C188.02 82.5083 188.204 82.7111 188.452 82.7111Z" fill="#BA8076"/>
<path d="M188.573 84.4897H189.874C190.104 84.4897 190.327 84.2869 190.317 84.045C190.306 83.8031 190.122 83.6003 189.874 83.6003H188.573C188.343 83.6003 188.119 83.8031 188.13 84.045C188.141 84.2869 188.325 84.4897 188.573 84.4897Z" fill="#BA8076"/>
<path d="M219.997 82.2345H220.943C221.056 82.2345 221.177 82.1847 221.255 82.1029C221.333 82.0211 221.39 81.9002 221.386 81.7899C221.375 81.548 221.191 81.3452 220.943 81.3452H219.997C219.883 81.3452 219.763 81.395 219.685 81.4768C219.607 81.5587 219.55 81.6796 219.554 81.7899C219.564 82.0318 219.749 82.2345 219.997 82.2345Z" fill="#BA8076"/>
<path d="M219.33 83.017C219.245 83.1059 219.185 83.2269 219.189 83.3514C219.192 83.4759 219.235 83.6004 219.327 83.6858C219.408 83.7605 219.508 83.8103 219.614 83.8387C219.784 83.8814 219.965 83.8921 220.138 83.917L220.022 83.9028C220.163 83.9206 220.316 83.9348 220.45 83.9917L220.344 83.9455C220.344 83.9455 220.355 83.949 220.362 83.9526C220.472 84.0059 220.585 84.0308 220.702 83.9988C220.805 83.9704 220.915 83.8921 220.968 83.796C221.021 83.6929 221.049 83.5684 221.014 83.4545C220.978 83.3478 220.915 83.2375 220.812 83.1877C220.55 83.0597 220.252 83.0454 219.968 83.0063L220.085 83.0205C219.986 83.0063 219.88 82.9992 219.788 82.9601L219.894 83.0063C219.894 83.0063 219.876 82.9992 219.869 82.9921L219.958 83.0632C219.958 83.0632 219.951 83.0597 219.947 83.0561L220.018 83.1451C220.018 83.1451 220.018 83.1415 220.014 83.1379L220.061 83.2447C220.061 83.2447 220.061 83.2447 220.061 83.2411L220.075 83.3585C220.075 83.3585 220.075 83.3585 220.075 83.3549L220.061 83.4723C220.061 83.4723 220.061 83.4688 220.061 83.4652L220.014 83.5719C220.014 83.5719 220.014 83.5684 220.018 83.5648L219.947 83.6538C219.947 83.6538 219.947 83.6502 219.951 83.6502C220.029 83.5648 220.082 83.4545 220.082 83.3371C220.082 83.2269 220.032 83.0988 219.951 83.0241C219.869 82.9494 219.756 82.8889 219.639 82.8925C219.522 82.896 219.408 82.9352 219.327 83.0241L219.33 83.017Z" fill="#BA8076"/>
<path d="M196.016 88.4776C193.641 89.0361 193.379 91.9104 192.989 93.8883C192.879 94.4468 193.734 94.6851 193.843 94.123C194.038 93.1448 194.162 92.1452 194.496 91.1989C194.8 90.3309 195.318 89.5554 196.25 89.3349C196.806 89.2033 196.569 88.3459 196.016 88.4776Z" fill="#BA8076"/>
<path d="M201.79 81.0213C201.8 81.096 201.79 80.9928 201.797 81.096C201.797 81.1387 201.797 81.1813 201.797 81.224C201.797 81.2738 201.793 81.3236 201.786 81.3699C201.797 81.2845 201.772 81.4375 201.765 81.4588C201.744 81.5478 201.719 81.6367 201.687 81.7256C201.648 81.8359 201.655 81.8181 201.598 81.9391C201.425 82.3055 201.201 82.647 201.006 83.0027C200.581 83.7853 200.407 84.632 201.045 85.3577C201.541 85.9233 202.3 86.2328 202.984 86.4924C203.207 86.5778 203.47 86.3964 203.53 86.183C203.597 85.9339 203.445 85.7205 203.221 85.6351C202.686 85.4324 202.109 85.1905 201.705 84.7636C201.637 84.6924 201.644 84.7067 201.588 84.6071C201.566 84.5715 201.549 84.5359 201.531 84.5003C201.566 84.5786 201.517 84.4541 201.51 84.4292C201.499 84.3936 201.492 84.358 201.488 84.3225C201.499 84.4043 201.488 84.3367 201.488 84.2976C201.488 84.262 201.488 84.2264 201.488 84.1908C201.488 84.1802 201.495 84.1197 201.488 84.1766C201.481 84.2406 201.499 84.1304 201.499 84.1268C201.517 84.0521 201.534 83.981 201.559 83.9063C201.573 83.8707 201.584 83.8316 201.598 83.796C201.623 83.732 201.584 83.8244 201.627 83.7355C201.705 83.5683 201.793 83.4082 201.885 83.2482C202.077 82.9138 202.279 82.5865 202.431 82.2343C202.633 81.7683 202.725 81.2987 202.64 80.7936C202.601 80.5553 202.307 80.4236 202.094 80.4841C201.843 80.5517 201.747 80.7936 201.786 81.0319L201.79 81.0213Z" fill="#BA8076"/>
<path d="M219.33 140.391L220.524 140.557L219.691 146.587L218.498 146.422L218.907 143.456L217.636 143.28L217.79 142.164L219.061 142.34L219.33 140.391ZM217.387 140.287C217.277 141.085 217.12 141.805 216.918 142.439L218.287 145.45L217.175 145.943L216.301 143.879C215.646 145.033 214.788 145.612 213.87 145.492L214.041 144.249C214.981 144.272 215.831 142.597 216.179 140.076L217.387 140.287Z" fill="#333333"/>
<path d="M209.829 141.434C209.28 141.919 208.504 142.222 207.64 142.124L207.784 141.079C208.567 141.144 209.161 140.643 209.36 140.088L208.033 139.904L208.169 138.915L212.01 139.448L211.892 140.31L212.527 140.398L212.656 139.466L213.849 139.631L213.383 143.007L212.19 142.841L212.387 141.415L211.582 141.303L211.705 140.413L210.568 140.256C210.536 140.381 210.498 140.498 210.438 140.619L211.922 141.76L211.229 142.557L209.829 141.434ZM210.674 142.717C212.214 142.931 213.381 143.438 213.246 144.42C213.11 145.401 211.849 145.572 210.31 145.358C208.77 145.145 207.603 144.638 207.738 143.656C207.874 142.674 209.135 142.504 210.674 142.717ZM210.439 144.419C211.251 144.532 211.923 144.517 211.961 144.241C211.998 143.973 211.357 143.769 210.545 143.656C209.733 143.544 209.06 143.566 209.023 143.834C208.985 144.11 209.627 144.307 210.439 144.419Z" fill="#333333"/>
<path d="M207.146 138.702L206.53 143.165L205.337 142.999L205.953 138.536L207.146 138.702ZM203.276 138.172C204.455 138.336 205.16 139.168 205.01 140.255C204.859 141.35 203.956 141.951 202.777 141.788C201.598 141.624 200.891 140.799 201.042 139.705C201.192 138.617 202.096 138.009 203.276 138.172ZM203.138 139.168C202.679 139.104 202.3 139.347 202.228 139.869C202.156 140.392 202.455 140.728 202.914 140.792C203.373 140.856 203.752 140.613 203.824 140.091C203.896 139.568 203.597 139.231 203.138 139.168ZM202.496 142.051L202.352 143.089L206.547 143.671L206.399 144.744L200.99 143.994L201.281 141.883L202.496 142.051Z" fill="#333333"/>
<path d="M225.263 134.613L224.557 134.515L224.499 134.932L225.205 135.03L225.068 136.026L224.362 135.928L224.288 136.464L223.095 136.299L223.553 132.98L224.746 133.145L224.694 133.52L225.4 133.618L225.263 134.613ZM220.522 135.805C219.364 135.645 218.674 134.909 218.806 133.948C218.938 132.995 219.802 132.467 220.96 132.628C222.118 132.788 222.807 133.531 222.676 134.485C222.543 135.445 221.68 135.966 220.522 135.805ZM220.827 133.595C220.368 133.531 220.045 133.731 219.992 134.113C219.94 134.494 220.196 134.774 220.655 134.838C221.114 134.902 221.437 134.702 221.489 134.32C221.542 133.939 221.286 133.659 220.827 133.595ZM221.649 136.185C223.146 136.392 224.285 136.903 224.147 137.906C224.008 138.909 222.774 139.09 221.277 138.883C219.78 138.675 218.642 138.164 218.78 137.162C218.918 136.159 220.152 135.977 221.649 136.185ZM221.409 137.929C222.185 138.037 222.821 138.017 222.861 137.728C222.9 137.445 222.295 137.246 221.518 137.138C220.741 137.031 220.104 137.057 220.065 137.34C220.025 137.629 220.632 137.821 221.409 137.929Z" fill="#333333"/>
<path d="M216.678 136.841L217.857 137.005L217.706 138.099L211.605 137.254L211.756 136.159L212.935 136.322L213.116 135.016C212.562 134.594 212.288 134.023 212.375 133.395C212.532 132.258 213.763 131.63 215.458 131.865C217.152 132.1 218.167 133.039 218.01 134.176C217.923 134.805 217.505 135.279 216.858 135.535L216.678 136.841ZM215.31 132.938C214.399 132.812 213.71 133.055 213.639 133.57C213.569 134.078 214.165 134.507 215.076 134.633C215.987 134.759 216.676 134.509 216.746 134.001C216.817 133.485 216.22 133.064 215.31 132.938ZM214.256 135.563L214.129 136.488L215.485 136.676L215.612 135.751C215.396 135.75 215.169 135.732 214.928 135.699C214.688 135.666 214.464 135.62 214.256 135.563Z" fill="#333333"/>
<path d="M211.566 131.318L210.734 137.349L209.541 137.183L210.373 131.152L211.566 131.318ZM209.421 131.164L209.196 132.796C208.858 135.246 207.285 136.583 205.174 136.29L205.329 135.16C206.793 135.348 207.734 134.371 207.975 132.626L208.05 132.083L205.797 131.77L205.947 130.683L209.421 131.164Z" fill="#333333"/>
<path d="M204.595 131.294L205.301 131.392L205.144 132.529L204.438 132.431L204.264 133.688L203.071 133.523L203.529 130.203L204.722 130.369L204.595 131.294ZM200.89 132.169C200.347 132.663 199.555 132.977 198.677 132.877L198.821 131.832C199.604 131.897 200.197 131.404 200.396 130.849L199.068 130.665L199.205 129.676L203.046 130.209L202.91 131.197L201.603 131.016C201.581 131.128 201.537 131.237 201.493 131.346L202.954 132.441L202.274 133.247L200.89 132.169ZM201.591 133.404C203.109 133.614 204.261 134.127 204.123 135.129C203.985 136.132 202.736 136.312 201.218 136.101C199.7 135.891 198.547 135.378 198.686 134.375C198.824 133.373 200.072 133.193 201.591 133.404ZM201.35 135.148C202.148 135.259 202.798 135.241 202.838 134.951C202.877 134.669 202.257 134.468 201.459 134.357C200.661 134.246 200.01 134.271 199.971 134.554C199.931 134.843 200.552 135.037 201.35 135.148Z" fill="#333333"/>
</g>
</g>
</g>
<defs>
<clipPath id="clip0_10950_5733">
<rect width="320" height="200" rx="12" fill="white"/>
</clipPath>
<clipPath id="clip1_10950_5733">
<rect width="200.396" height="160" fill="white" transform="translate(59.302 43)"/>
</clipPath>
<clipPath id="clip2_10950_5733">
<rect width="119.604" height="162.376" fill="white" transform="translate(59.302 49.3367)"/>
</clipPath>
<clipPath id="clip3_10950_5733">
<rect width="112.475" height="170.297" fill="white" transform="translate(147.223 43)"/>
</clipPath>
</defs>
</svg>
