<svg width="320" height="200" viewBox="0 0 320 200" fill="none" xmlns="http://www.w3.org/2000/svg">
<g clip-path="url(#clip0_10529_6674)">
<rect width="320" height="200" rx="12" fill="#F5F5F5"/>
<g filter="url(#filter0_d_10529_6674)">
<path d="M40 28C40 24.6863 42.6863 22 46 22H274C277.314 22 280 24.6863 280 28V301C280 304.314 277.314 307 274 307H46C42.6863 307 40 304.314 40 301V28Z" fill="white"/>
</g>
<g clip-path="url(#clip1_10529_6674)">
<g clip-path="url(#clip2_10529_6674)">
<g clip-path="url(#clip3_10529_6674)">
<path d="M151.402 85.9392C150.212 85.3301 148.886 84.992 147.446 84.5777C144.303 83.6707 141.016 82.6831 137.705 82.654C132.626 82.607 127.669 82.9899 122.662 83.72C120.17 84.0828 116.667 84.4008 114.588 85.8788C111.532 88.0555 109.101 90.1382 106.775 93.0427C104.274 96.1667 102.76 99.5952 101.478 103.369C99.8416 108.186 97.1115 112.891 96.2044 117.923C94.9045 125.14 94.5542 137.776 103.203 139.27C112.134 140.813 121.575 141.046 130.704 140.945C138.589 140.858 146.194 139.642 154.009 138.988C158.367 138.623 162.781 139.951 165.877 136.086C172.139 128.268 169.773 110.745 166.216 102.336C163.08 94.9171 158.515 89.585 151.402 85.9392Z" fill="#EB9A60"/>
<path d="M125.459 77.0868C126.128 79.0866 125.904 82.6406 125.459 85.0861C129.247 87.9749 136.153 87.3076 140.161 85.5295C139.716 82.1972 138.825 79.0867 138.825 75.7544" fill="#F7CBB4"/>
<path d="M144.373 85.1168L118.907 85.4094L119.305 119.805L144.77 119.513L144.373 85.1168Z" fill="white"/>
<path d="M136.402 96.0396H137.155L137.157 99.8445H136.404L136.403 97.9732H135.601L135.6 97.2693H136.402L136.402 96.0396ZM135.19 96.142C135.19 96.6455 135.155 97.1044 135.084 97.5143L136.19 99.2608L135.544 99.6618L134.826 98.4589C134.519 99.2296 134.038 99.6618 133.459 99.6663L133.458 98.8821C134.042 98.8153 134.424 97.7059 134.423 96.1153L135.19 96.142Z" fill="#333333"/>
<path d="M130.609 97.5009C130.311 97.8485 129.857 98.1024 129.313 98.1158L129.313 97.4564C129.803 97.4296 130.128 97.0688 130.203 96.7079H129.366L129.365 96.0841H131.789L131.789 96.6277H132.19L132.19 96.0396H132.943L132.944 98.1693H132.191L132.191 97.2693H131.683L131.683 96.7079H130.965C130.956 96.7881 130.943 96.8638 130.916 96.944L131.933 97.5232L131.572 98.0757L130.609 97.5009ZM131.243 98.2227C132.214 98.2227 132.98 98.4366 132.981 99.0559C132.981 99.6752 132.215 99.8891 131.244 99.8891C130.272 99.8891 129.506 99.6752 129.505 99.0559C129.505 98.4366 130.271 98.2227 131.243 98.2227ZM131.243 99.2965C131.756 99.2965 132.17 99.2296 132.17 99.0559C132.17 98.8866 131.755 98.8153 131.243 98.8153C130.731 98.8153 130.316 98.8866 130.316 99.0559C130.316 99.2296 130.731 99.2965 131.243 99.2965Z" fill="#333333"/>
<path d="M128.714 96.0396L128.716 98.8554H127.963L127.961 96.0396H128.714ZM126.272 96.044C127.016 96.044 127.524 96.4985 127.525 97.1846C127.525 97.8752 127.018 98.3252 126.274 98.3252C125.53 98.3252 125.021 97.8752 125.021 97.1846C125.02 96.4985 125.528 96.044 126.272 96.044ZM126.273 96.6722C125.983 96.6722 125.769 96.8549 125.769 97.1846C125.77 97.5143 125.984 97.697 126.273 97.697C126.563 97.697 126.777 97.5143 126.776 97.1846C126.776 96.8549 126.562 96.6722 126.273 96.6722ZM126.122 98.5123L126.123 99.1673H128.769L128.77 99.8445H125.357L125.356 98.5123H126.122Z" fill="#333333"/>
<path d="M139.578 91.9535H139.133L139.133 92.2163H139.579L139.579 92.8446H139.134L139.134 93.1832H138.381L138.379 91.0891H139.132L139.133 91.3253H139.578L139.578 91.9535ZM136.746 93.0985C136.015 93.0985 135.525 92.702 135.524 92.096C135.524 91.4946 136.014 91.0936 136.744 91.0936C137.475 91.0936 137.965 91.4946 137.966 92.096C137.966 92.702 137.476 93.0985 136.746 93.0985ZM136.745 91.704C136.455 91.704 136.272 91.8554 136.273 92.096C136.273 92.3366 136.456 92.4881 136.745 92.4881C137.035 92.4881 137.217 92.3366 137.217 92.096C137.217 91.8554 137.034 91.704 136.745 91.704ZM137.476 93.2366C138.421 93.2366 139.17 93.455 139.17 94.0876C139.17 94.7203 138.422 94.9386 137.477 94.9386C136.533 94.9386 135.784 94.7203 135.784 94.0876C135.783 93.455 136.532 93.2366 137.476 93.2366ZM137.477 94.3371C137.967 94.3371 138.359 94.2703 138.359 94.0876C138.359 93.9094 137.967 93.8381 137.477 93.8381C136.987 93.8381 136.595 93.9094 136.595 94.0876C136.595 94.2703 136.987 94.3371 137.477 94.3371Z" fill="#333333"/>
<path d="M134.455 94.0697H135.199L135.199 94.7603H131.35L131.35 94.0697H132.094L132.093 93.2455C131.714 93.0316 131.496 92.7019 131.495 92.3054C131.495 91.5881 132.203 91.0935 133.272 91.0935C134.342 91.0935 135.05 91.5881 135.051 92.3054C135.051 92.7019 134.833 93.0316 134.454 93.2455L134.455 94.0697ZM133.273 91.7707C132.698 91.7707 132.293 91.9801 132.293 92.3054C132.293 92.6262 132.699 92.84 133.273 92.84C133.848 92.84 134.254 92.6262 134.253 92.3054C134.253 91.9801 133.848 91.7707 133.273 91.7707ZM132.846 93.4861L132.847 94.0697H133.702L133.702 93.4861C133.568 93.5039 133.425 93.5128 133.274 93.5128C133.122 93.5128 132.98 93.5039 132.846 93.4861Z" fill="#333333"/>
<path d="M130.816 91.0891L130.819 94.8941H130.066L130.063 91.0891H130.816ZM129.475 91.1782L129.476 92.2074C129.477 93.7535 128.618 94.7158 127.285 94.7158L127.285 94.003C128.207 93.9941 128.706 93.3079 128.705 92.2074L128.705 91.8644H127.284L127.283 91.1782H129.475Z" fill="#333333"/>
<path d="M126.498 91.6728H126.944L126.944 92.3901H126.499L126.499 93.1832H125.746L125.745 91.0891H126.498L126.498 91.6728ZM124.28 92.5327C123.986 92.8847 123.523 93.1475 122.971 93.1609L122.97 92.5015C123.46 92.4748 123.785 92.1183 123.861 91.7574H123.023L123.023 91.1337H125.446L125.447 91.7574H124.623C124.618 91.8287 124.6 91.9 124.583 91.9713L125.581 92.5238L125.229 93.0807L124.28 92.5327ZM124.82 93.2366C125.777 93.2366 126.535 93.455 126.535 94.0876C126.536 94.7203 125.779 94.9386 124.821 94.9386C123.863 94.9386 123.105 94.7203 123.105 94.0876C123.104 93.455 123.862 93.2366 124.82 93.2366ZM124.82 94.3371C125.324 94.3371 125.725 94.2703 125.725 94.0876C125.724 93.9094 125.323 93.8381 124.82 93.8381C124.316 93.8381 123.916 93.9094 123.916 94.0876C123.916 94.2703 124.317 94.3371 124.82 94.3371Z" fill="#333333"/>
<path d="M146.925 108.18C146.798 108.029 146.673 107.88 146.55 107.731C145.573 106.548 144.903 105.098 143.989 103.863C143.14 102.714 141.498 101.929 140.114 101.605C135.992 100.643 137.781 106.779 139.677 106.185C138.558 106.535 137.114 106.7 137.138 108.452C137.153 109.399 138.354 111.327 139.39 111.182C136.516 110.867 136.457 114.805 138.884 115.676C138.007 116.645 136.651 115.968 136.599 117.844C136.559 119.249 137.617 119.762 138.349 120.659C139.759 122.386 141.726 125.803 144.379 125.014C146.25 124.459 147.875 122.47 148.675 120.767C150.063 117.818 151.078 114.263 149.31 111.286C148.653 110.182 147.759 109.164 146.923 108.176L146.925 108.18Z" fill="#F7D1BD"/>
<path d="M139.067 116.764C140.664 116.643 141.877 117.766 142.968 118.77C143.188 118.973 143.519 118.646 143.298 118.441C142.117 117.354 140.793 116.167 139.067 116.299C138.77 116.322 138.767 116.787 139.067 116.764Z" fill="#BA8076"/>
<path d="M139.679 111.677C141.304 112.445 142.416 113.882 143.761 115.017C143.989 115.209 144.321 114.881 144.091 114.688C142.714 113.526 141.576 112.06 139.914 111.275C139.643 111.146 139.406 111.548 139.679 111.677Z" fill="#BA8076"/>
<path d="M140.145 106.403C141.39 107.266 142.382 108.472 143.343 109.626C143.535 109.857 143.864 109.525 143.673 109.296C142.683 108.109 141.66 106.89 140.38 106.001C140.134 105.83 139.901 106.232 140.145 106.403Z" fill="#BA8076"/>
<path d="M115.871 108.434C115.996 108.285 116.119 108.139 116.24 107.992C117.203 106.826 117.863 105.398 118.764 104.181C119.6 103.05 121.217 102.276 122.581 101.958C126.64 101.01 124.878 107.053 123.011 106.469C124.113 106.813 125.536 106.976 125.512 108.701C125.497 109.634 124.314 111.533 123.294 111.39C126.124 111.081 126.183 114.959 123.792 115.817C124.656 116.772 125.992 116.105 126.043 117.953C126.082 119.337 125.04 119.843 124.319 120.726C122.93 122.427 120.993 125.793 118.38 125.016C116.536 124.469 114.936 122.51 114.147 120.833C112.78 117.927 111.78 114.426 113.522 111.493C114.169 110.406 115.049 109.403 115.871 108.43V108.434Z" fill="#F7D1BD"/>
<path d="M123.614 116.431C121.915 116.303 120.609 117.471 119.445 118.541C119.229 118.741 119.554 119.065 119.771 118.866C120.846 117.876 122.04 116.77 123.614 116.89C123.908 116.912 123.908 116.453 123.614 116.431Z" fill="#BA8076"/>
<path d="M122.777 111.484C121.14 112.258 120.019 113.702 118.663 114.846C118.437 115.036 118.764 115.359 118.988 115.17C120.315 114.05 121.408 112.637 123.009 111.88C123.275 111.753 123.044 111.359 122.777 111.484Z" fill="#BA8076"/>
<path d="M122.318 106.287C121.057 107.163 120.05 108.364 119.074 109.534C118.887 109.759 119.21 110.085 119.4 109.858C120.348 108.721 121.326 107.534 122.549 106.683C122.79 106.516 122.561 106.119 122.318 106.287Z" fill="#BA8076"/>
<path d="M157.002 97.2459C155.457 99.6891 153.185 101.604 151.153 103.626C150.897 103.881 151.295 104.278 151.551 104.022C153.618 101.964 155.915 100.014 157.487 97.5281C157.68 97.2235 157.195 96.9414 157.002 97.2459Z" fill="#AD6349"/>
<path d="M154.193 113.793C155.511 114.92 156.843 116.033 158.073 117.255C158.329 117.511 158.726 117.114 158.47 116.859C157.24 115.636 155.909 114.523 154.591 113.397C154.317 113.164 153.919 113.558 154.193 113.793Z" fill="#B28D52"/>
<path d="M153.944 118.624C154.371 119.253 154.95 119.797 155.475 120.341C156.129 121.018 156.793 121.68 157.458 122.346C157.714 122.601 158.111 122.204 157.855 121.949C157.202 121.298 156.548 120.646 155.909 119.983C155.596 119.66 155.287 119.336 154.984 119.002C154.781 118.78 154.566 118.543 154.429 118.341C154.227 118.044 153.742 118.324 153.944 118.624Z" fill="#B28D52"/>
<path d="M151.537 124.177C152.325 125.156 153.21 126.04 154.191 126.824C154.31 126.918 154.472 126.938 154.588 126.824C154.687 126.726 154.707 126.524 154.588 126.428C153.607 125.642 152.72 124.759 151.935 123.781C151.84 123.662 151.636 123.682 151.537 123.781C151.42 123.897 151.443 124.059 151.537 124.177Z" fill="#AD6349"/>
<path d="M148.432 128.195C148.913 128.909 149.582 129.529 150.437 129.749C150.578 129.785 150.749 129.702 150.783 129.554C150.816 129.406 150.738 129.249 150.587 129.209C150.491 129.185 150.397 129.155 150.305 129.12C150.305 129.12 150.224 129.086 150.264 129.104C150.246 129.097 150.228 129.088 150.21 129.079C150.165 129.059 150.123 129.037 150.08 129.014C149.995 128.97 149.914 128.92 149.833 128.867C149.793 128.84 149.754 128.813 149.716 128.784C149.642 128.73 149.754 128.815 149.683 128.757C149.665 128.741 149.647 128.728 149.629 128.712C149.485 128.591 149.35 128.459 149.227 128.318C149.195 128.284 149.166 128.248 149.137 128.213C149.124 128.195 149.108 128.177 149.094 128.159C149.065 128.121 149.097 128.163 149.079 128.141C149.023 128.067 148.969 127.991 148.917 127.913C148.832 127.787 148.67 127.733 148.533 127.812C148.407 127.886 148.347 128.069 148.432 128.195Z" fill="#AD6349"/>
<path d="M156.47 112.922C156.69 112.557 157.011 112.158 157.487 112.217C157.934 112.27 158.329 112.608 158.648 112.9C159.485 113.668 160.129 114.617 160.929 115.423C161.066 115.56 161.266 115.511 161.369 115.367C162.745 113.442 165.186 113.103 167.381 113.459C167.734 113.518 167.887 112.978 167.53 112.92C166.295 112.718 165.008 112.685 163.796 113.032C162.583 113.379 161.602 114.08 160.884 115.083L161.324 115.027C160.424 114.12 159.721 113.012 158.706 112.217C158.311 111.908 157.826 111.616 157.303 111.654C156.699 111.697 156.279 112.149 155.985 112.64C155.799 112.949 156.283 113.231 156.47 112.922Z" fill="#B28D52"/>
<path d="M162.211 107.243C161.041 107.948 159.95 108.871 159.092 109.934C158.998 110.053 158.978 110.214 159.092 110.331C159.191 110.429 159.393 110.45 159.49 110.331C160.32 109.303 161.362 108.409 162.496 107.726C162.806 107.541 162.523 107.057 162.213 107.243H162.211Z" fill="#B28D52"/>
<path d="M110.866 97.4454C111.335 98.0904 111.512 98.9839 111.681 99.7453C111.901 100.746 112.049 101.774 112.053 102.802C112.053 103.163 112.617 103.163 112.615 102.802C112.61 101.727 112.453 100.646 112.222 99.5975C112.044 98.7935 111.847 97.844 111.35 97.1632C111.139 96.8743 110.652 97.1543 110.866 97.4454Z" fill="#AD6349"/>
<path d="M110.762 112.8C109.191 113.94 108.331 115.823 106.678 116.874L107.062 116.975C106.548 116.173 105.807 115.512 104.878 115.241C103.948 114.97 102.994 115.161 102.186 115.651C101.878 115.839 102.159 116.323 102.469 116.135C103.153 115.718 103.946 115.555 104.727 115.781C105.515 116.009 106.142 116.578 106.575 117.257C106.654 117.38 106.826 117.44 106.959 117.358C107.792 116.827 108.45 116.092 109.078 115.342C109.682 114.621 110.273 113.842 111.041 113.284C111.33 113.073 111.05 112.588 110.758 112.8H110.762Z" fill="#AD6349"/>
<path d="M104.741 104.166C106.16 106.206 106.954 108.589 107.365 111.023C107.426 111.377 107.967 111.227 107.906 110.875C107.487 108.4 106.669 105.96 105.223 103.884C105.019 103.59 104.532 103.87 104.738 104.166H104.741Z" fill="#AD6349"/>
<path d="M110.255 120.173C109.671 121.141 109.002 122.057 108.418 123.024C108.232 123.333 108.717 123.615 108.903 123.306C109.487 122.339 110.156 121.423 110.74 120.456C110.926 120.146 110.441 119.864 110.255 120.173Z" fill="#AD6349"/>
<path d="M112.909 125.671C112.855 125.776 112.792 125.877 112.725 125.973C112.707 125.998 112.689 126.029 112.666 126.052C112.682 126.036 112.691 126.023 112.671 126.047C112.662 126.058 112.653 126.07 112.644 126.081C112.601 126.132 112.556 126.184 112.513 126.235C112.329 126.444 112.132 126.641 111.934 126.838C111.831 126.941 111.822 127.131 111.934 127.234C112.046 127.337 112.219 127.344 112.332 127.234C112.534 127.033 112.738 126.831 112.927 126.614C113.104 126.412 113.275 126.195 113.396 125.955C113.461 125.825 113.434 125.646 113.295 125.572C113.167 125.505 112.98 125.534 112.911 125.673L112.909 125.671Z" fill="#AD6349"/>
<path d="M115.266 71.9136C112.096 71.6381 108.513 76.1752 108.926 79.2007C109.339 83.4645 114.716 85.1127 118.439 84.5641C123.263 83.74 127.812 79.6127 125.331 74.3881C125.055 74.3881 124.918 74.1127 124.779 73.9761" fill="#B3AFAF"/>
<path d="M140.428 66.7698C140.473 71.0157 143.96 74.4219 148.219 74.3749C152.476 74.3301 155.888 70.85 155.843 66.6041C155.796 62.3581 152.309 58.952 148.053 58.999C143.796 59.0438 140.383 62.5239 140.428 66.7698Z" fill="#F7CBB4"/>
<path d="M152.132 66.6443L148.706 66.6801" stroke="#BA8076" stroke-width="1.48515" stroke-linecap="round" stroke-linejoin="round"/>
<path d="M121.386 66.9712C121.431 71.2172 118.019 74.695 113.76 74.742C109.503 74.7868 106.016 71.3806 105.971 67.1369C105.926 62.891 109.339 59.4109 113.596 59.3662C117.853 59.3214 121.339 62.7275 121.386 66.9712Z" fill="#F7CBB4"/>
<path d="M109.682 67.0967L113.108 67.0586" stroke="#BA8076" stroke-width="1.48515" stroke-linecap="round" stroke-linejoin="round"/>
<path d="M111.883 63.1912C111.997 73.8844 120.589 82.4614 131.074 82.3517C141.56 82.2397 149.968 73.4813 149.853 62.7881C149.739 52.0949 141.146 43.5179 130.659 43.6276C120.174 43.7396 111.766 52.498 111.883 63.1912Z" fill="#F7D1BD"/>
<path d="M136.611 64.2729C136.62 65.1821 137.141 65.9166 137.77 65.9099C138.401 65.9032 138.903 65.1597 138.894 64.2505C138.885 63.339 138.365 62.6067 137.736 62.6134C137.105 62.6202 136.602 63.3637 136.611 64.2751V64.2729Z" fill="#70544F"/>
<path d="M123.194 64.4139C123.203 65.3231 123.721 66.0554 124.352 66.0487C124.983 66.042 125.486 65.2985 125.475 64.3893C125.466 63.4778 124.947 62.7455 124.316 62.7522C123.686 62.759 123.18 63.5024 123.192 64.4139H123.194Z" fill="#70544F"/>
<path d="M126.083 59.243C124.649 57.8814 122.484 58.6585 121.108 59.6998C120.823 59.9148 121.104 60.4008 121.391 60.1836C122.541 59.3147 124.447 58.4637 125.686 59.6394C125.949 59.888 126.346 59.4916 126.083 59.243Z" fill="#413939"/>
<path d="M136.043 59.3416C137.258 58.139 139.177 58.9385 140.347 59.7872C140.639 60 140.92 59.514 140.63 59.3035C139.236 58.2935 137.049 57.5545 135.646 58.9452C135.39 59.2005 135.785 59.5947 136.043 59.3416Z" fill="#413939"/>
<path d="M126.232 70.055C125.652 70.4604 125.087 70.8971 124.595 71.4054C124.103 71.9138 123.704 72.4535 123.517 73.1118C123.418 73.459 123.959 73.6068 124.058 73.2596C124.222 72.6796 124.608 72.1914 125.024 71.7682C125.475 71.3069 125.987 70.9083 126.514 70.5388C126.638 70.4514 126.696 70.2947 126.616 70.1558C126.544 70.0326 126.357 69.9677 126.232 70.055Z" fill="#BA8076"/>
<path d="M136.337 70.0908C136.865 70.4603 137.374 70.8589 137.828 71.3202C138.243 71.7434 138.63 72.2339 138.793 72.8117C138.892 73.1588 139.433 73.011 139.335 72.6638C139.148 72.0077 138.726 71.4434 138.257 70.9574C137.765 70.4491 137.199 70.0124 136.62 69.607C136.497 69.5197 136.308 69.5846 136.236 69.7078C136.153 69.8467 136.211 70.0034 136.337 70.0908Z" fill="#BA8076"/>
<path d="M130.836 65.3454C130.866 65.3006 130.895 65.2581 130.929 65.2155C130.893 65.2625 130.944 65.1976 130.947 65.1931C130.962 65.1752 130.978 65.1573 130.994 65.1394C131.025 65.1058 131.057 65.0722 131.09 65.0431C131.106 65.0274 131.124 65.014 131.14 65.0005C131.151 64.9916 131.162 64.9826 131.173 64.9736C131.144 64.996 131.142 64.9983 131.167 64.9804C131.234 64.9401 131.297 64.8975 131.369 64.8639C131.292 64.8997 131.4 64.855 131.422 64.8482C131.463 64.837 131.503 64.8303 131.544 64.8214C131.454 64.8415 131.564 64.8214 131.591 64.8214C131.625 64.8214 131.66 64.8214 131.694 64.8214C131.712 64.8214 131.728 64.8258 131.746 64.8258C131.66 64.8191 131.719 64.8214 131.739 64.8258C131.779 64.8348 131.818 64.8438 131.856 64.855C131.889 64.8662 131.921 64.8774 131.955 64.8908C131.872 64.8617 131.979 64.9042 131.999 64.9132C132.071 64.949 132.134 64.9938 132.202 65.0386C132.255 65.0744 132.154 64.9983 132.204 65.0386C132.217 65.0498 132.233 65.0632 132.246 65.0744C132.276 65.0991 132.303 65.1237 132.33 65.1506C132.39 65.2088 132.444 65.2715 132.498 65.3364C132.541 65.3857 132.471 65.3006 132.498 65.3342C132.507 65.3476 132.518 65.3611 132.527 65.3745C132.55 65.4059 132.572 65.4394 132.592 65.473C132.637 65.5447 132.68 65.6208 132.716 65.697C132.725 65.7149 132.731 65.7328 132.74 65.7507C132.709 65.6813 132.738 65.7418 132.74 65.7574C132.754 65.7933 132.767 65.8313 132.781 65.8672C132.808 65.9478 132.828 66.0284 132.844 66.1113C132.848 66.1292 132.85 66.1493 132.853 66.1673C132.839 66.0866 132.853 66.1516 132.853 66.1673C132.855 66.2053 132.859 66.2434 132.859 66.2815C132.859 66.3195 132.859 66.3576 132.859 66.3957C132.859 66.4226 132.839 66.5569 132.855 66.4718C132.839 66.5592 132.819 66.642 132.79 66.7249C132.785 66.7405 132.756 66.7965 132.79 66.7271C132.779 66.7495 132.767 66.7719 132.756 66.7943C132.736 66.8346 132.711 66.8727 132.687 66.9107C132.675 66.9264 132.664 66.9421 132.653 66.9578C132.698 66.8951 132.644 66.9667 132.633 66.9779C132.601 67.0138 132.568 67.0473 132.532 67.0809C132.516 67.0944 132.498 67.1078 132.482 67.1235C132.458 67.1436 132.46 67.1414 132.487 67.119C132.475 67.128 132.462 67.1369 132.451 67.1459C132.406 67.175 132.361 67.2041 132.314 67.231C131.999 67.4079 132.282 67.8916 132.597 67.7147C132.969 67.5042 133.259 67.1683 133.367 66.7495C133.466 66.371 133.421 65.959 133.277 65.5984C133.005 64.9177 132.363 64.2145 131.564 64.2615C131.034 64.2929 130.632 64.6377 130.352 65.0632C130.268 65.1886 130.327 65.3723 130.453 65.4462C130.59 65.5268 130.753 65.473 130.836 65.3454Z" fill="#BA8076"/>
<path d="M126.025 52.7756C125.875 50.3861 128.793 49.4165 131.638 49.4165C135.08 49.4165 136.519 52.8316 138.167 55.071C142.208 60.4456 148.329 64.8685 155.363 60.3896C151.921 58.8959 151.322 53.8214 150.125 50.6862C148.479 46.5052 146.831 42.4743 142.491 40.6827C133.96 37.3975 126.625 40.9806 125.578 49.7904" fill="#B3AFAF"/>
<path d="M129.168 42.3242C118.542 40.3827 105.071 54.2671 111.806 64.7184C115.697 58.1502 118.391 54.7149 126.025 52.7756" fill="#B3AFAF"/>
<path d="M121.198 66.1561C121.548 66.1561 121.916 66.1629 122.237 66.0061C122.37 65.9412 122.417 65.7441 122.338 65.6232C122.251 65.4888 122.096 65.453 121.955 65.5224C121.943 65.5269 121.932 65.5336 121.921 65.5381L121.988 65.5089C121.898 65.547 121.804 65.5672 121.708 65.5806L121.782 65.5716C121.589 65.5963 121.393 65.5963 121.2 65.5963C121.054 65.5963 120.913 65.7239 120.919 65.8762C120.926 66.0285 121.043 66.1561 121.2 66.1561H121.198Z" fill="#BA8076"/>
<path d="M140.087 65.5583C140.102 65.5515 140.118 65.5426 140.134 65.5359L140.066 65.565C140.129 65.5381 140.192 65.5202 140.26 65.5112L140.185 65.5202C140.251 65.5112 140.313 65.5112 140.379 65.5202L140.304 65.5112C140.372 65.5202 140.435 65.5403 140.498 65.565L140.43 65.5359C140.446 65.5426 140.462 65.5493 140.477 65.5583C140.545 65.5918 140.619 65.6075 140.693 65.5874C140.758 65.5695 140.828 65.5202 140.861 65.4597C140.895 65.3948 140.913 65.3164 140.89 65.2447C140.868 65.1776 140.828 65.1104 140.762 65.0768C140.612 65.0029 140.453 64.9536 140.284 64.9536C140.116 64.9536 139.956 65.0029 139.806 65.0768C139.745 65.1059 139.694 65.182 139.678 65.2447C139.66 65.3119 139.667 65.4015 139.707 65.4597C139.748 65.5179 139.804 65.5717 139.876 65.5874C139.952 65.6053 140.022 65.5941 140.091 65.5583H140.087Z" fill="#BA8076"/>
<path d="M135.381 69.7571C132.985 69.981 129.918 70.243 127.523 70.243C126.999 74.7958 135.455 73.788 135.381 69.7571Z" fill="#CA6F63"/>
</g>
<g clip-path="url(#clip4_10529_6674)">
<path d="M218.155 98.8857C217.329 96.3469 215.738 93.6543 214.048 91.4986C210.564 87.0445 206.423 84.1404 200.964 81.998C200.261 81.7218 199.506 81.5169 198.706 81.2786C196.292 80.5615 193.766 79.782 191.214 79.7353C187.299 79.6618 183.475 79.9179 179.61 80.439C176.993 80.7909 174.246 81.3343 171.861 82.4968C171.812 82.5213 171.768 82.5503 171.718 82.5748C163.033 85.8218 158.853 92.7613 154.908 99.9302C153.244 102.959 151.102 106.324 150.637 109.731C149.823 115.718 151.746 120.873 157.493 124.1C158.681 124.768 160.08 125.521 160.771 126.661C161.732 128.243 161.024 126.791 161.415 128.512C161.845 130.418 163.124 131.591 163.395 133.542C163.687 135.656 162.475 137.58 165.409 137.894C168.539 138.228 172.028 137.647 175.156 137.415C179.72 137.079 184.407 137.299 189.018 137.344C192.883 137.382 196.749 137.293 200.615 137.157C202.203 137.103 207.279 137.66 208.115 135.818C208.712 134.504 207.987 132.17 208.174 130.716C208.375 129.128 209.536 128.439 209.92 126.882C210.36 125.096 210.517 126.786 210.576 125.005C215.617 123.953 219.96 119.893 220.577 115.047C221.271 109.602 219.837 104.055 218.155 98.8835V98.8857Z" fill="#8DB579"/>
<path d="M181.827 74.5352C182.312 76.0448 182.159 78.4838 181.807 80.3203C184.616 82.5258 189.744 81.3697 192.757 80.0646C192.36 78.7728 191.809 76.1471 191.835 73.6392" fill="#F7CBB4"/>
<path d="M177.694 62.2669C177.649 66.4601 174.227 69.824 170.047 69.7796C165.869 69.7351 162.517 66.2978 162.564 62.1046C162.608 57.9114 166.031 54.5475 170.209 54.592C174.389 54.6365 177.738 58.0715 177.694 62.2669Z" fill="#F7CBB4"/>
<path d="M166.206 62.1447L169.568 62.1802" stroke="#BA8076" stroke-width="1.48515" stroke-linecap="round" stroke-linejoin="round"/>
<path d="M196.381 62.4669C196.337 66.6601 199.686 70.0952 203.866 70.1396C208.044 70.1841 211.466 66.8202 211.511 62.627C211.555 58.4338 208.206 54.9988 204.028 54.9543C199.85 54.9098 196.427 58.2737 196.383 62.4669H196.381Z" fill="#F7CBB4"/>
<path d="M207.869 62.5893L204.506 62.5537" stroke="#BA8076" stroke-width="1.48515" stroke-linecap="round" stroke-linejoin="round"/>
<path d="M205.709 58.7339C205.598 69.2947 197.163 77.7678 186.871 77.6567C176.579 77.5455 168.328 68.8968 168.439 58.3359C168.552 47.7751 176.985 39.302 187.277 39.4132C197.568 39.5221 205.82 48.1731 205.707 58.7339H205.709Z" fill="#F7D1BD"/>
<path d="M181.44 59.8011C181.431 60.6993 180.921 61.4241 180.301 61.4175C179.683 61.4108 179.189 60.6771 179.198 59.7789C179.207 58.8784 179.716 58.1559 180.336 58.1603C180.957 58.167 181.451 58.9029 181.44 59.8011Z" fill="#70544F"/>
<path d="M194.609 59.9413C194.6 60.8395 194.09 61.5643 193.47 61.5576C192.85 61.551 192.358 60.8173 192.367 59.9168C192.376 59.0164 192.885 58.2938 193.506 58.3005C194.124 58.3071 194.618 59.0431 194.609 59.9413Z" fill="#70544F"/>
<path d="M192.161 56.1104C193.375 54.9499 195.247 55.7903 196.374 56.6485C196.658 56.8642 196.935 56.3817 196.653 56.1683C195.302 55.1389 193.178 54.3718 191.769 55.7169C191.51 55.9637 191.902 56.3572 192.161 56.1104Z" fill="#413939"/>
<path d="M182.388 55.6125C181.01 54.2362 178.863 54.9677 177.494 55.966C177.209 56.175 177.485 56.6574 177.773 56.4462C178.921 55.6102 180.806 54.8187 181.996 56.006C182.248 56.2595 182.64 55.8659 182.388 55.6125Z" fill="#413939"/>
<path d="M181.951 65.264C182.859 66.0311 184.087 66.4202 185.239 66.618C186.676 66.8671 188.205 66.8315 189.587 66.3335C190.396 66.0422 191.131 65.5953 191.747 64.9928C192.002 64.7415 191.609 64.3502 191.355 64.5993C189.401 66.5113 186.218 66.558 183.783 65.6576C183.274 65.4686 182.76 65.224 182.341 64.8705C182.071 64.6415 181.677 65.0328 181.949 65.264H181.951Z" fill="#BA8076"/>
<path d="M192.325 63.6097C192.843 63.9743 193.344 64.3679 193.787 64.8236C194.195 65.2416 194.573 65.7241 194.733 66.2955C194.83 66.6401 195.364 66.4934 195.267 66.1487C195.085 65.4995 194.671 64.9415 194.21 64.4635C193.749 63.9854 193.171 63.5297 192.604 63.1295C192.482 63.0427 192.296 63.1072 192.225 63.2295C192.143 63.3674 192.201 63.523 192.325 63.6097Z" fill="#BA8076"/>
<path d="M197.336 41.0919C191.45 33.7971 178.504 32.8233 169.566 43.2663C164.52 49.1603 164.859 55.13 166.888 58.0047C169.932 62.2046 178.66 52.92 179.676 49.8251C182.72 55.7947 189.824 52.92 192.666 48.9402C193.071 51.815 195.914 54.025 198.552 53.8049C200.785 62.2046 208.498 62.2046 208.09 52.6999C207.887 46.29 202.61 42.1991 197.333 41.0941L197.336 41.0919Z" fill="#97928C"/>
<path d="M166.669 92.642C167.473 94.2473 168.441 95.7814 169.077 97.4644C169.201 97.7957 169.737 97.6512 169.61 97.3177C168.957 95.5857 167.971 94.0116 167.147 92.3619C166.988 92.0417 166.509 92.3241 166.669 92.642Z" fill="#699055"/>
<path d="M162.783 100.89C163.844 100.168 165.116 100.87 165.986 101.573C167.012 102.402 167.9 103.481 168.494 104.661C168.656 104.981 169.132 104.699 168.973 104.381C168.317 103.078 167.309 101.884 166.153 101.004C165.127 100.223 163.694 99.6009 162.504 100.41C162.212 100.61 162.489 101.091 162.783 100.89Z" fill="#699055"/>
<path d="M181.042 81.9316L175.266 115.561L198.733 119.621L204.509 85.9915L181.042 81.9316Z" fill="white"/>
<path d="M171.874 98.0025C172.794 95.6346 174.172 93.418 176.083 92.3463C179.836 90.2431 179.676 95.0921 177.758 97.1265C178.766 95.9414 180.186 94.683 180.926 96.6685C181.55 98.3493 180.321 99.65 179.902 101.133C180.97 100.346 181.592 99.9434 182.21 101.282C182.589 102.102 182.687 103.765 182.095 104.497C182.421 103.877 183.32 103.058 184.042 103.625C184.78 104.203 184.173 105.602 183.969 106.269C182.574 110.791 177.988 116.727 172.636 114.184C168.321 112.132 170.082 106.782 170.561 103.147C170.76 101.622 171.19 99.7678 171.874 98.0002V98.0025Z" fill="#F7D1BD"/>
<path d="M176.624 96.6973C175.891 97.0731 175.292 97.7356 174.79 98.3782C174.211 99.1141 173.709 99.9212 173.383 100.804C173.259 101.14 173.795 101.284 173.917 100.951C174.214 100.146 174.688 99.392 175.217 98.7228C175.682 98.1358 176.225 97.5244 176.901 97.1776C177.217 97.0153 176.938 96.535 176.622 96.6973H176.624Z" fill="#BA8076"/>
<path d="M178.691 101.687C177.871 102.783 177.056 103.883 176.389 105.082C176.214 105.395 176.692 105.675 176.867 105.362C177.534 104.163 178.349 103.063 179.169 101.967C179.26 101.847 179.189 101.655 179.069 101.587C178.928 101.504 178.781 101.566 178.691 101.687Z" fill="#BA8076"/>
<path d="M181.034 104.21C180.62 104.635 180.334 105.177 180.071 105.704C179.789 106.264 179.539 106.842 179.231 107.389C179.054 107.701 179.532 107.981 179.709 107.669C180.011 107.138 180.257 106.576 180.527 106.029C180.775 105.531 181.032 105.004 181.424 104.603C181.674 104.348 181.282 103.954 181.032 104.21H181.034Z" fill="#BA8076"/>
<path d="M205.472 96.8953C199.846 93.4625 194.591 100.422 202.278 100.88C198.257 100.726 195.894 104.457 200.718 105.52C196.447 105.266 194.988 109.653 199.008 111.269C194.283 112.881 198.603 116.665 201.669 117.021C205.488 117.679 207.951 115.158 208.857 111.425C209.561 108.197 208.334 99.2187 205.472 96.8976V96.8953Z" fill="#F7D1BD"/>
<path d="M202.205 101.146C202.891 101.329 203.576 101.529 204.252 101.749C204.883 101.956 205.539 102.162 206.117 102.494C206.427 102.672 206.706 102.191 206.396 102.013C205.791 101.669 205.109 101.449 204.453 101.231C203.76 101.002 203.058 100.797 202.351 100.61C202.005 100.519 201.859 101.055 202.205 101.146Z" fill="#BA8076"/>
<path d="M201.456 106.16C202.902 106.329 204.353 106.622 205.663 107.285C205.979 107.445 206.261 106.967 205.942 106.805C204.539 106.095 203.004 105.786 201.456 105.604C201.102 105.562 201.106 106.12 201.456 106.16Z" fill="#BA8076"/>
<path d="M200.51 111.796C200.955 112.038 201.425 112.145 201.928 112.183C202.431 112.221 202.925 112.245 203.416 112.379C203.76 112.472 203.908 111.936 203.563 111.843C203.064 111.707 202.555 111.669 202.043 111.634C201.602 111.605 201.183 111.529 200.789 111.314C200.477 111.142 200.196 111.623 200.51 111.794V111.796Z" fill="#BA8076"/>
<path d="M173.522 118.635C171.458 120.834 169.148 122.919 166.361 124.138C165.526 124.502 164.648 124.771 163.751 124.936C163.401 125 163.55 125.536 163.898 125.472C167.085 124.887 169.839 122.964 172.165 120.783C172.767 120.218 173.347 119.629 173.912 119.026C174.156 118.766 173.766 118.373 173.52 118.633L173.522 118.635Z" fill="#699055"/>
<path d="M202.063 118.295C201.861 118.168 201.598 118.284 201.589 118.533C201.584 118.677 201.675 118.824 201.742 118.944C202.008 119.435 202.333 119.9 202.65 120.36C203.024 120.903 203.41 121.441 203.824 121.954C204.283 122.528 204.741 123.122 205.255 123.646C205.988 124.396 206.901 125.018 207.98 125.036C208.336 125.043 208.336 124.487 207.98 124.48C206.369 124.453 205.432 122.957 204.482 121.881C203.789 121.094 203.19 120.202 202.621 119.322C202.49 119.12 202.362 118.917 202.245 118.706C202.209 118.642 202.178 118.573 202.143 118.508C202.154 118.528 202.16 118.502 202.14 118.493C202.227 118.528 201.841 118.808 201.786 118.775C202.089 118.966 202.366 118.486 202.065 118.295H202.063Z" fill="#699055"/>
<path d="M211.088 98.2847C210.54 98.6249 210.168 99.243 209.856 99.7899C209.477 100.45 209.16 101.148 208.892 101.86C208.839 102 208.95 102.164 209.085 102.202C209.24 102.244 209.373 102.149 209.426 102.009C209.672 101.357 209.967 100.721 210.308 100.115C210.576 99.6409 210.906 99.0495 211.367 98.7649C211.67 98.576 211.391 98.0957 211.088 98.2847Z" fill="#699055"/>
<path d="M211.227 101.767C211.513 101.767 211.799 101.767 212.082 101.8C212.12 101.804 212.182 101.813 212.246 101.827C212.315 101.84 212.383 101.855 212.452 101.873C212.598 101.913 212.731 101.962 212.86 102.024C212.988 102.087 213.165 102.064 213.239 101.924C213.305 101.8 213.278 101.613 213.139 101.544C212.822 101.389 212.494 101.295 212.144 101.251C211.841 101.211 211.533 101.208 211.227 101.208C211.083 101.208 210.944 101.335 210.95 101.486C210.957 101.638 211.072 101.764 211.227 101.764V101.767Z" fill="#699055"/>
<path d="M197.298 122.437C199.799 125.552 201.383 129.3 203.944 132.369C204.172 132.642 204.562 132.248 204.336 131.975C203.08 130.47 202.074 128.771 201.062 127.095C200.014 125.361 198.959 123.626 197.69 122.043C197.466 121.765 197.077 122.161 197.298 122.437Z" fill="#699055"/>
<path d="M176.227 60.3393H177.186C177.33 60.3393 177.47 60.2125 177.463 60.0614C177.457 59.9102 177.341 59.7834 177.186 59.7834H176.227C176.083 59.7834 175.944 59.9102 175.95 60.0614C175.957 60.2125 176.072 60.3393 176.227 60.3393Z" fill="#BA8076"/>
<path d="M176.303 61.4509H177.116C177.26 61.4509 177.399 61.3241 177.392 61.1729C177.386 61.0217 177.271 60.895 177.116 60.895H176.303C176.159 60.895 176.019 61.0217 176.026 61.1729C176.032 61.3241 176.147 61.4509 176.303 61.4509Z" fill="#BA8076"/>
<path d="M195.942 60.0413H196.534C196.605 60.0413 196.68 60.0102 196.729 59.959C196.777 59.9079 196.813 59.8323 196.811 59.7634C196.804 59.6122 196.689 59.4855 196.534 59.4855H195.942C195.871 59.4855 195.796 59.5166 195.747 59.5677C195.699 59.6189 195.663 59.6945 195.665 59.7634C195.672 59.9146 195.787 60.0413 195.942 60.0413Z" fill="#BA8076"/>
<path d="M195.526 60.5304C195.473 60.586 195.435 60.6616 195.437 60.7394C195.44 60.8172 195.466 60.8951 195.524 60.9484C195.575 60.9951 195.637 61.0262 195.703 61.044C195.809 61.0707 195.922 61.0774 196.031 61.0929L195.958 61.084C196.046 61.0952 196.142 61.104 196.226 61.1396L196.159 61.1107C196.159 61.1107 196.166 61.1129 196.171 61.1152C196.239 61.1485 196.31 61.1641 196.383 61.1441C196.447 61.1263 196.516 61.0774 196.549 61.0173C196.583 60.9529 196.6 60.875 196.578 60.8039C196.556 60.7372 196.516 60.6683 196.452 60.6371C196.288 60.5571 196.102 60.5482 195.925 60.5238L195.998 60.5326C195.936 60.5238 195.869 60.5193 195.812 60.4949L195.878 60.5238C195.878 60.5238 195.867 60.5193 195.863 60.5149L195.918 60.5593C195.918 60.5593 195.914 60.5571 195.911 60.5549L195.956 60.6105C195.956 60.6105 195.956 60.6082 195.953 60.606L195.982 60.6727C195.982 60.6727 195.982 60.6727 195.982 60.6705L195.991 60.7439C195.991 60.7439 195.991 60.7439 195.991 60.7416L195.982 60.815C195.982 60.815 195.982 60.8128 195.982 60.8106L195.953 60.8773C195.953 60.8773 195.953 60.875 195.956 60.8728L195.911 60.9284C195.911 60.9284 195.911 60.9262 195.914 60.9262C195.962 60.8728 195.996 60.8039 195.996 60.7305C195.996 60.6616 195.965 60.5816 195.914 60.5349C195.863 60.4882 195.792 60.4504 195.719 60.4526C195.646 60.4548 195.575 60.4793 195.524 60.5349L195.526 60.5304Z" fill="#BA8076"/>
<path d="M180.954 63.9433C179.47 64.2923 179.306 66.0888 179.063 67.3249C178.994 67.674 179.528 67.823 179.597 67.4717C179.718 66.8603 179.796 66.2355 180.004 65.6441C180.195 65.1016 180.518 64.6169 181.101 64.4791C181.448 64.3968 181.3 63.861 180.954 63.9433Z" fill="#BA8076"/>
<path d="M184.563 59.2831C184.57 59.3298 184.563 59.2653 184.567 59.3298C184.567 59.3565 184.567 59.3831 184.567 59.4098C184.567 59.441 184.565 59.4721 184.561 59.501C184.567 59.4476 184.552 59.5432 184.547 59.5566C184.534 59.6122 184.519 59.6677 184.499 59.7233C184.474 59.7922 184.479 59.7811 184.443 59.8567C184.335 60.0857 184.195 60.2992 184.073 60.5215C183.808 61.0106 183.699 61.5398 184.098 61.9933C184.408 62.3468 184.882 62.5403 185.309 62.7026C185.449 62.7559 185.613 62.6425 185.651 62.5091C185.693 62.3535 185.597 62.2201 185.458 62.1668C185.123 62.04 184.762 61.8888 184.51 61.622C184.468 61.5776 184.472 61.5865 184.437 61.5242C184.423 61.502 184.412 61.4797 184.401 61.4575C184.423 61.5064 184.392 61.4286 184.388 61.413C184.381 61.3908 184.377 61.3686 184.375 61.3463C184.381 61.3975 184.375 61.3552 184.375 61.3308C184.375 61.3086 184.375 61.2863 184.375 61.2641C184.375 61.2574 184.379 61.2196 184.375 61.2552C184.37 61.2952 184.381 61.2263 184.381 61.2241C184.392 61.1774 184.403 61.1329 184.419 61.0862C184.428 61.064 184.434 61.0395 184.443 61.0173C184.459 60.9773 184.434 61.0351 184.461 60.9795C184.51 60.875 184.565 60.775 184.623 60.6749C184.742 60.4659 184.869 60.2614 184.964 60.0413C185.09 59.75 185.148 59.4565 185.095 59.1408C185.07 58.9918 184.886 58.9096 184.753 58.9474C184.596 58.9896 184.536 59.1408 184.561 59.2898L184.563 59.2831Z" fill="#BA8076"/>
<path d="M195.526 96.3891L196.272 96.4925L195.752 100.262L195.006 100.158L195.261 98.3046L194.467 98.1945L194.563 97.4971L195.358 97.6073L195.526 96.3891ZM194.311 96.3242C194.243 96.8229 194.145 97.2726 194.018 97.6689L194.874 99.5508L194.179 99.8593L193.633 98.5691C193.223 99.2904 192.687 99.6524 192.113 99.5773L192.22 98.8005C192.807 98.8145 193.339 97.7681 193.556 96.1924L194.311 96.3242Z" fill="#333333"/>
<path d="M189.588 97.041C189.245 97.3443 188.76 97.5334 188.219 97.472L188.31 96.8188C188.799 96.8596 189.17 96.5468 189.295 96.1997L188.465 96.0847L188.55 95.4668L190.951 95.7997L190.877 96.3381L191.274 96.3932L191.354 95.8106L192.1 95.914L191.809 98.0237L191.063 97.9203L191.186 97.0288L190.683 96.959L190.76 96.4029L190.049 96.3044C190.029 96.3826 190.006 96.4558 189.968 96.5315L190.895 97.2448L190.462 97.7426L189.588 97.041ZM190.116 97.8429C191.078 97.9763 191.808 98.2934 191.723 98.9069C191.638 99.5204 190.85 99.627 189.888 99.4936C188.926 99.3602 188.196 99.0431 188.281 98.4296C188.365 97.8161 189.154 97.7095 190.116 97.8429ZM189.969 98.9066C190.477 98.977 190.896 98.9677 190.92 98.7956C190.943 98.6278 190.542 98.5003 190.035 98.4299C189.527 98.3596 189.107 98.3733 189.084 98.541C189.06 98.7131 189.461 98.8362 189.969 98.9066Z" fill="#333333"/>
<path d="M187.911 95.3332L187.526 98.1226L186.78 98.0192L187.165 95.2298L187.911 95.3332ZM185.492 95.0023C186.229 95.1045 186.67 95.6244 186.576 96.3041C186.482 96.9882 185.917 97.3643 185.18 97.2621C184.443 97.1599 184.001 96.6443 184.096 95.9602C184.19 95.2805 184.755 94.9001 185.492 95.0023ZM185.406 95.6246C185.119 95.5848 184.882 95.7364 184.837 96.063C184.792 96.3896 184.979 96.6 185.266 96.6397C185.553 96.6795 185.789 96.5279 185.835 96.2013C185.88 95.8747 185.693 95.6644 185.406 95.6246ZM185.004 97.4266L184.915 98.0754L187.536 98.4389L187.444 99.1098L184.063 98.6411L184.245 97.3214L185.004 97.4266Z" fill="#333333"/>
<path d="M199.234 92.7781L198.792 92.7169L198.757 92.9773L199.198 93.0385L199.112 93.6608L198.671 93.5996L198.624 93.9351L197.879 93.8316L198.165 91.7572L198.911 91.8607L198.878 92.0946L199.32 92.1558L199.234 92.7781ZM196.27 93.5232C195.547 93.4228 195.115 92.9627 195.198 92.3625C195.281 91.7666 195.821 91.4367 196.545 91.5371C197.268 91.6374 197.699 92.102 197.617 92.6978C197.534 93.2981 196.994 93.6236 196.27 93.5232ZM196.461 92.1417C196.174 92.102 195.973 92.2269 195.94 92.4653C195.907 92.7036 196.067 92.8788 196.354 92.9185C196.641 92.9583 196.842 92.8333 196.875 92.595C196.908 92.3567 196.748 92.1815 196.461 92.1417ZM196.975 93.7604C197.911 93.8901 198.623 94.2092 198.536 94.8359C198.45 95.4627 197.678 95.5761 196.743 95.4464C195.807 95.3167 195.096 94.9976 195.182 94.3708C195.268 93.7441 196.04 93.6307 196.975 93.7604ZM196.825 94.8505C197.31 94.9179 197.708 94.9055 197.733 94.7245C197.757 94.548 197.379 94.4235 196.893 94.3562C196.408 94.2889 196.01 94.3057 195.985 94.4822C195.96 94.6632 196.339 94.7832 196.825 94.8505Z" fill="#333333"/>
<path d="M193.868 94.1705L194.605 94.2727L194.511 94.9568L190.698 94.4281L190.792 93.744L191.529 93.8461L191.642 93.0296C191.296 92.7658 191.125 92.4092 191.179 92.0164C191.277 91.3058 192.046 90.9131 193.106 91.06C194.165 91.2069 194.799 91.7941 194.701 92.5047C194.647 92.8975 194.385 93.1941 193.981 93.354L193.868 94.1705ZM193.013 91.7309C192.444 91.6519 192.013 91.8037 191.969 92.1259C191.925 92.4437 192.298 92.7112 192.867 92.7901C193.436 92.8691 193.867 92.7129 193.911 92.3951C193.955 92.0729 193.582 91.8098 193.013 91.7309ZM192.355 93.3714L192.275 93.9496L193.122 94.0671L193.202 93.4889C193.067 93.4882 192.925 93.4774 192.775 93.4566C192.625 93.4358 192.485 93.4074 192.355 93.3714Z" fill="#333333"/>
<path d="M190.673 90.7184L190.153 94.4877L189.407 94.3842L189.928 90.615L190.673 90.7184ZM189.333 90.6225L189.192 91.642C188.981 93.1736 187.997 94.0088 186.678 93.8258L186.775 93.1197C187.69 93.2375 188.278 92.6263 188.429 91.5362L188.476 91.1963L187.068 91.0011L187.162 90.3214L189.333 90.6225Z" fill="#333333"/>
<path d="M186.316 90.7035L186.757 90.7647L186.659 91.4753L186.218 91.4141L186.11 92.1997L185.364 92.0963L185.65 90.0219L186.396 90.1253L186.316 90.7035ZM184.001 91.2505C183.661 91.5588 183.166 91.7556 182.617 91.693L182.708 91.0397C183.197 91.0806 183.568 90.7722 183.692 90.4251L182.862 90.31L182.947 89.6921L185.348 90.025L185.263 90.6429L184.447 90.5297C184.432 90.5997 184.405 90.6679 184.378 90.736L185.291 91.4204L184.866 91.9238L184.001 91.2505ZM184.439 92.0219C185.387 92.1535 186.108 92.4738 186.021 93.1005C185.935 93.7273 185.155 93.8395 184.206 93.7079C183.257 93.5764 182.537 93.2561 182.623 92.6293C182.71 92.0026 183.49 91.8904 184.439 92.0219ZM184.288 93.1121C184.787 93.1813 185.193 93.1701 185.218 92.9892C185.242 92.8126 184.855 92.6869 184.356 92.6178C183.858 92.5486 183.451 92.5642 183.426 92.7407C183.401 92.9217 183.789 93.043 184.288 93.1121Z" fill="#333333"/>
</g>
</g>
</g>
<mask id="path-94-inside-1_10529_6674" fill="white">
<path d="M58.4445 153.742C58.4445 150.306 61.2302 147.52 64.6667 147.52H199.097C202.534 147.52 205.319 150.306 205.319 153.742V176.298C205.319 179.734 202.534 182.52 199.097 182.52H64.6667C61.2302 182.52 58.4445 179.734 58.4445 176.298V153.742Z"/>
</mask>
<path d="M58.4445 153.742C58.4445 150.306 61.2302 147.52 64.6667 147.52H199.097C202.534 147.52 205.319 150.306 205.319 153.742V176.298C205.319 179.734 202.534 182.52 199.097 182.52H64.6667C61.2302 182.52 58.4445 179.734 58.4445 176.298V153.742Z" fill="white"/>
<path d="M64.6667 148.145H199.097V146.895H64.6667V148.145ZM204.694 153.742V176.298H205.944V153.742H204.694ZM199.097 181.895H64.6667V183.145H199.097V181.895ZM59.0695 176.298V153.742H57.8195V176.298H59.0695ZM64.6667 181.895C61.5754 181.895 59.0695 179.389 59.0695 176.298H57.8195C57.8195 180.079 60.8851 183.145 64.6667 183.145V181.895ZM204.694 176.298C204.694 179.389 202.188 181.895 199.097 181.895V183.145C202.879 183.145 205.944 180.079 205.944 176.298H204.694ZM199.097 148.145C202.188 148.145 204.694 150.651 204.694 153.742H205.944C205.944 149.96 202.879 146.895 199.097 146.895V148.145ZM64.6667 146.895C60.8851 146.895 57.8195 149.96 57.8195 153.742H59.0695C59.0695 150.651 61.5754 148.145 64.6667 148.145V146.895Z" fill="#999999" mask="url(#path-94-inside-1_10529_6674)"/>
<path d="M67.7332 161.397V168.8H71.6032V169.52H66.9232V161.397H67.7332ZM76.363 166.28H77.1617V167.529H78.9617V166.28H79.7492V170.206H76.363V166.28ZM75.3955 163.197C75.3955 161.847 76.4417 160.936 77.9155 160.936C79.243 160.936 80.2442 161.679 80.413 162.826H82.4717V160.497H83.3155V165.706H82.4717V163.524H80.4242C80.2667 164.682 79.2542 165.459 77.9155 165.459C76.4417 165.459 75.3955 164.536 75.3955 163.197ZM76.2055 163.197C76.2055 164.109 76.9142 164.761 77.9155 164.761C78.9167 164.761 79.6367 164.109 79.6367 163.197C79.6367 162.286 78.9167 161.645 77.9155 161.645C76.9142 161.645 76.2055 162.286 76.2055 163.197ZM77.1617 169.542H78.9617V168.17H77.1617V169.542ZM79.8955 169.644C81.0655 169.149 81.6955 168.057 81.6955 167.045V166.212H82.5167V167.045C82.5167 168.091 83.1467 169.182 84.328 169.644L83.9005 170.285C83.0005 169.902 82.4155 169.216 82.1117 168.395C81.7967 169.205 81.2005 169.902 80.323 170.285L79.8955 169.644ZM92.1545 160.486H92.9982V170.352H92.1545V160.486ZM85.3257 164.682C85.3257 162.59 86.3607 161.262 87.8232 161.262C89.2745 161.262 90.3095 162.59 90.3095 164.682C90.3095 166.775 89.2745 168.114 87.8232 168.114C86.3607 168.114 85.3257 166.775 85.3257 164.682ZM86.147 164.682C86.147 166.291 86.8332 167.36 87.8232 167.36C88.802 167.36 89.4995 166.291 89.4995 164.682C89.4995 163.074 88.802 162.016 87.8232 162.016C86.8332 162.016 86.147 163.074 86.147 164.682ZM97.2038 164.997H106.125V165.695H102.053V166.809H101.22V165.695H97.2038V164.997ZM97.71 163.591C99.4313 163.377 101.22 162.331 101.22 161.071V160.621H102.086V161.071C102.086 162.309 103.898 163.377 105.585 163.591L105.281 164.244C103.796 164.03 102.289 163.265 101.659 162.174C101.04 163.276 99.5325 164.03 98.025 164.244L97.71 163.591ZM97.8563 169.655C99.5888 169.475 101.209 168.676 101.209 167.596V167.27H102.064V167.596C102.064 168.699 103.673 169.475 105.405 169.655L105.135 170.307C103.628 170.127 102.221 169.542 101.636 168.597C101.051 169.531 99.6563 170.127 98.1375 170.307L97.8563 169.655ZM107.134 161.51H112.433V162.219H110.228V163.546C110.228 165.11 111.375 166.865 112.782 167.529L112.298 168.204C111.195 167.652 110.262 166.482 109.823 165.166C109.373 166.595 108.383 167.866 107.292 168.44L106.797 167.776C108.169 167.09 109.407 165.222 109.407 163.546V162.219H107.134V161.51ZM113.648 170.341V160.497H114.492V164.502H116.123V165.211H114.492V170.341H113.648ZM121.791 161.409V169.52H120.981V162.331L119.721 163.209L119.271 162.59L120.981 161.409H121.791ZM126.333 168.879C127.548 168.879 128.403 167.461 128.403 165.459C128.403 163.456 127.548 162.05 126.333 162.05C125.106 162.05 124.251 163.456 124.251 165.459C124.251 167.461 125.106 168.879 126.333 168.879ZM123.441 165.459C123.441 163.04 124.634 161.33 126.333 161.33C128.02 161.33 129.213 163.04 129.213 165.459C129.213 167.889 128.02 169.599 126.333 169.599C124.634 169.599 123.441 167.889 123.441 165.459ZM130.38 161.51H135.678V162.219H133.473V163.546C133.473 165.11 134.621 166.865 136.027 167.529L135.543 168.204C134.441 167.652 133.507 166.482 133.068 165.166C132.618 166.595 131.628 167.866 130.537 168.44L130.042 167.776C131.415 167.09 132.652 165.222 132.652 163.546V162.219H130.38V161.51ZM136.893 170.341V160.497H137.737V164.502H139.368V165.211H137.737V170.341H136.893ZM147.139 160.486H147.982V170.352H147.139V160.486ZM140.479 162.117V161.431H145.012V164.907H141.345V167.259C142.976 167.259 144.427 167.191 146.182 166.91L146.272 167.596C144.472 167.9 142.987 167.956 141.311 167.956H140.501V164.21H144.169V162.117H140.479ZM159.365 160.497H160.209V165.774H159.365V160.497ZM152.39 163.231C152.39 161.892 153.459 160.981 154.944 160.981C156.429 160.981 157.498 161.892 157.498 163.231C157.498 164.57 156.429 165.492 154.944 165.492C153.459 165.492 152.39 164.57 152.39 163.231ZM153.212 163.231C153.212 164.142 153.943 164.784 154.944 164.784C155.945 164.784 156.677 164.142 156.677 163.231C156.677 162.32 155.945 161.679 154.944 161.679C153.943 161.679 153.212 162.32 153.212 163.231ZM153.898 170.206V166.28H154.73V167.495H159.377V166.28H160.209V170.206H153.898ZM154.73 169.52H159.377V168.17H154.73V169.52ZM162.287 161.094H166.528V163.85H163.153V165.402C165.009 165.402 165.954 165.369 167.113 165.155L167.203 165.841C165.977 166.055 164.998 166.089 163.007 166.089H162.321V163.186H165.696V161.791H162.287V161.094ZM163.412 167.776V167.09H169.982V170.364H169.138V167.776H163.412ZM167.181 164.694V164.007H169.138V162.669H167.181V161.971H169.138V160.509H169.982V166.55H169.138V164.694H167.181Z" fill="#333333"/>
<mask id="path-97-inside-2_10529_6674" fill="white">
<path d="M210.319 153.742C210.319 150.306 213.105 147.52 216.542 147.52H252.222C255.659 147.52 258.444 150.306 258.444 153.742V176.298C258.444 179.734 255.659 182.52 252.222 182.52H216.542C213.105 182.52 210.319 179.734 210.319 176.298V153.742Z"/>
</mask>
<path d="M216.542 148.145H252.222V146.895H216.542V148.145ZM257.819 153.742V176.298H259.069V153.742H257.819ZM252.222 181.895H216.542V183.145H252.222V181.895ZM210.944 176.298V153.742H209.694V176.298H210.944ZM216.542 181.895C213.45 181.895 210.944 179.389 210.944 176.298H209.694C209.694 180.079 212.76 183.145 216.542 183.145V181.895ZM257.819 176.298C257.819 179.389 255.313 181.895 252.222 181.895V183.145C256.004 183.145 259.069 180.079 259.069 176.298H257.819ZM252.222 148.145C255.313 148.145 257.819 150.651 257.819 153.742H259.069C259.069 149.96 256.004 146.895 252.222 146.895V148.145ZM216.542 146.895C212.76 146.895 209.694 149.96 209.694 153.742H210.944C210.944 150.651 213.45 148.145 216.542 148.145V146.895Z" fill="#FF8120" mask="url(#path-97-inside-2_10529_6674)"/>
<path d="M224.764 168.215H228.691V165.909H229.906V168.215H233.821V169.205H224.764V168.215ZM225.158 165.357C227.138 165.031 228.623 163.67 228.657 162.219H225.518V161.24H233.056V162.219H229.917C229.951 163.67 231.447 164.997 233.472 165.312L232.988 166.269C231.323 165.954 229.951 165.065 229.298 163.816C228.657 165.076 227.284 165.987 225.642 166.314L225.158 165.357ZM241.546 160.419H242.75V170.42H241.546V160.419ZM234.548 167.652C235.336 167.652 236.225 167.652 237.158 167.63V166.685C236.045 166.505 235.325 165.819 235.325 164.874C235.325 163.749 236.315 163.006 237.766 163.006C239.217 163.006 240.23 163.749 240.23 164.874C240.23 165.83 239.487 166.505 238.373 166.685V167.585C239.251 167.54 240.14 167.472 240.972 167.36L241.062 168.237C238.868 168.631 236.495 168.654 234.695 168.654L234.548 167.652ZM234.751 162.534V161.577H237.158V160.441H238.385V161.577H240.792V162.534H234.751ZM236.461 164.874C236.461 165.459 237.001 165.819 237.766 165.819C238.542 165.819 239.071 165.459 239.071 164.874C239.071 164.277 238.542 163.917 237.766 163.917C237.001 163.917 236.461 164.277 236.461 164.874Z" fill="#FF8120"/>
</g>
<defs>
<filter id="filter0_d_10529_6674" x="39.25" y="21.25" width="241.5" height="286.5" filterUnits="userSpaceOnUse" color-interpolation-filters="sRGB">
<feFlood flood-opacity="0" result="BackgroundImageFix"/>
<feColorMatrix in="SourceAlpha" type="matrix" values="0 0 0 0 0 0 0 0 0 0 0 0 0 0 0 0 0 0 127 0" result="hardAlpha"/>
<feOffset/>
<feGaussianBlur stdDeviation="0.375"/>
<feComposite in2="hardAlpha" operator="out"/>
<feColorMatrix type="matrix" values="0 0 0 0 0 0 0 0 0 0 0 0 0 0 0 0 0 0 0.2 0"/>
<feBlend mode="normal" in2="BackgroundImageFix" result="effect1_dropShadow_10529_6674"/>
<feBlend mode="normal" in="SourceGraphic" in2="effect1_dropShadow_10529_6674" result="shape"/>
</filter>
<clipPath id="clip0_10529_6674">
<rect width="320" height="200" rx="12" fill="white"/>
</clipPath>
<clipPath id="clip1_10529_6674">
<rect width="200" height="100" fill="white" transform="translate(58.4445 35.5198)"/>
</clipPath>
<clipPath id="clip2_10529_6674">
<rect width="125.248" height="100" fill="white" transform="translate(95.5082 35.5198)"/>
</clipPath>
<clipPath id="clip3_10529_6674">
<rect width="74.7527" height="101.485" fill="white" transform="translate(95.5082 39.4802)"/>
</clipPath>
<clipPath id="clip4_10529_6674">
<rect width="70.297" height="106.436" fill="white" transform="translate(150.459 35.5198)"/>
</clipPath>
</defs>
</svg>
