<svg width="320" height="187" viewBox="0 0 320 187" fill="none" xmlns="http://www.w3.org/2000/svg">
<g clip-path="url(#clip0_10535_6712)">
<rect width="320" height="187" rx="12" fill="#F5F5F5"/>
<g clip-path="url(#clip1_10535_6712)">
<path d="M153 111H59V196H153V111Z" fill="#E3A567"/>
<path d="M115.351 111H96.6358V138.54H115.351V111Z" fill="#C58758"/>
</g>
<g clip-path="url(#clip2_10535_6712)">
<path d="M164.001 122.137C164.001 122.137 150.071 107.321 146.561 107.687C143.047 108.043 133.742 115.941 132.93 120.404C132.118 124.867 135.495 130.461 135.495 130.461C135.495 130.461 140.687 138.005 145.208 135.241C147.419 133.883 155.885 143.218 155.885 143.218L164.004 122.147L164.001 122.137Z" fill="#F5C7B6"/>
<path d="M197.89 76.2301C197.89 76.2301 201.41 86.4501 199.79 91.4801L224.69 77.9901C224.69 77.9901 212.83 65.0001 211.7 60.3401L197.89 76.2301Z" fill="#F5C7B6"/>
<path d="M209.91 71.8101C210.24 76.5201 204.56 84.2501 200.15 86.5501C199.51 82.3301 197.9 76.2401 197.9 76.2401L199.74 74.9401L209.92 71.8101H209.91Z" fill="#F08F7B"/>
<path d="M182.26 49.6C179.13 48.64 175.92 41.01 180.92 37.85C187.1 33.95 192.01 38.46 192.01 38.46C192.01 38.46 202.76 35.18 206.14 35.01C216.68 34.49 222.71 53.36 213.33 63.71L182.26 49.6Z" fill="#C2C2C2"/>
<path d="M181.58 50.8201C178.72 55.9601 177.99 62.0401 179.64 67.6901C181.62 74.4801 185.32 82.0301 195.47 80.8901C214.54 78.7501 211.7 60.3501 211.7 60.3501L203.53 51.7601L182.25 49.6101L181.57 50.8301L181.58 50.8201Z" fill="#F5C7B6"/>
<path d="M182.78 61.3501C182.17 60.8701 182.06 59.9801 182.55 59.3601C183.03 58.7501 183.92 58.6401 184.54 59.1301C185.15 59.6101 185.26 60.5001 184.77 61.1201C184.29 61.7301 183.4 61.8401 182.78 61.3501Z" fill="black"/>
<path d="M180.26 59.45C177.77 61.08 175.61 65.8799 176.41 66.6399C177.21 67.4 181.37 67.9599 181.37 67.9599L180.27 59.45H180.26Z" fill="#F5C7B6"/>
<path d="M182.94 56.2401C183.72 55.9601 184.78 55.8301 185.72 56.5301" stroke="white" stroke-width="2.28" stroke-linecap="round" stroke-linejoin="round"/>
<path d="M181.09 70.3801C181.09 70.3801 183.42 70.6401 185.04 68.0901" stroke="#E37669" stroke-width="0.73" stroke-linecap="round" stroke-linejoin="round"/>
<path d="M182.92 65.8201C182.92 65.8201 185.49 69.1801 189.93 69.7201" stroke="#E37669" stroke-width="0.73" stroke-linecap="round" stroke-linejoin="round"/>
<path d="M192.62 50.64C194.14 55.1 196.96 58.75 202.91 58.31C202.91 58.31 205.92 50.54 205.57 50.62C205.22 50.7 192.62 50.63 192.62 50.63V50.64Z" fill="#C2C2C2"/>
<path d="M210.74 52.2C213.25 54.18 213.68 57.82 211.7 60.34C209.72 62.85 206.08 63.28 203.56 61.3C201.05 59.32 200.62 55.68 202.6 53.16C204.58 50.65 208.22 50.22 210.74 52.2Z" fill="#F5C7B6"/>
<path d="M205.21 59.1799C205.21 59.1799 205.21 56.4999 208 54.9399" stroke="#E37669" stroke-width="0.73" stroke-linecap="round" stroke-linejoin="round"/>
<path d="M222.74 75.72C253.14 113.15 250.37 218.17 250.37 218.17L152.54 215.28C152.54 215.28 175.37 112.6 186.67 97.04C202.16 75.72 222.74 75.72 222.74 75.72Z" fill="#EB9A60"/>
<path d="M149.38 147.403C149.38 147.403 182.673 174.726 200.762 169.256C217.316 164.253 220.682 136.337 220.957 116.783C221.105 106.097 212.433 97.3984 201.746 97.528C193.072 97.6282 185.571 103.606 183.533 112.037L179.414 129.034L163.796 119.497L149.38 147.403Z" fill="#E48B4C"/>
<path d="M222.74 75.7201L213.89 63.05L194.29 83.9001L193.93 92.0601L222.74 75.7201Z" fill="#7F9DC8"/>
</g>
</g>
<defs>
<clipPath id="clip0_10535_6712">
<rect width="320" height="187" rx="12" fill="white"/>
</clipPath>
<clipPath id="clip1_10535_6712">
<rect width="94" height="85" fill="white" transform="translate(59 111)"/>
</clipPath>
<clipPath id="clip2_10535_6712">
<rect width="133.56" height="322.49" fill="white" transform="matrix(-1 0 0 1 250.56 35)"/>
</clipPath>
</defs>
</svg>
