<svg width="18" height="19" viewBox="0 0 18 19" fill="none" xmlns="http://www.w3.org/2000/svg">
<g clip-path="url(#clip0_7512_8260)">
<path d="M15.9204 7.10509C15.6677 7.90697 15.4147 8.70884 15.1624 9.51072C14.9923 10.0506 14.8242 10.5904 14.653 11.1299C14.415 11.8792 13.785 12.3612 12.9929 12.3646C11.1849 12.3729 9.37694 12.3732 7.56897 12.3646C6.7562 12.3605 6.12251 11.8619 5.89126 11.0777C5.29923 9.07299 4.70834 7.06792 4.11744 5.06323C4.0097 4.69721 3.84902 4.57557 3.46836 4.57557C3.03739 4.57557 2.60641 4.57632 2.17582 4.57557C1.80191 4.57407 1.53349 4.32405 1.53199 3.97867C1.53049 3.63217 1.79628 3.37463 2.17019 3.37538C2.70402 3.37613 3.24123 3.34948 3.77019 3.40091C4.47896 3.46999 4.96887 3.87581 5.20989 4.55004C5.33715 4.90631 5.43476 5.27346 5.53424 5.63873C5.56502 5.75248 5.61571 5.77989 5.72758 5.77951C8.69708 5.77614 11.6666 5.77951 14.6361 5.77463C15.0614 5.77388 15.4263 5.89251 15.6801 6.24127C15.7867 6.38805 15.8419 6.57238 15.9204 6.73981V7.10509Z" fill="white"/>
<path d="M7.93915 15.3689C7.83028 15.3299 7.71766 15.2991 7.61367 15.2503C7.08621 15.0018 6.81667 14.4109 6.97134 13.8538C7.13014 13.2813 7.65421 12.9269 8.2635 12.9798C8.79358 13.026 9.26547 13.4949 9.31578 14.0261C9.37322 14.6339 9.02071 15.1606 8.44858 15.3228C8.40015 15.3366 8.35247 15.3535 8.30442 15.3689H7.93915Z" fill="white"/>
<path d="M12.1548 15.3689C12.0489 15.334 11.9397 15.307 11.8379 15.2627C11.3049 15.0288 11.018 14.4409 11.1607 13.8838C11.312 13.2925 11.8346 12.928 12.4566 12.9794C13.0197 13.026 13.471 13.5042 13.5198 14.1057C13.5644 14.6579 13.168 15.194 12.6109 15.3344C12.5707 15.3445 12.5313 15.3577 12.4919 15.3693H12.1548V15.3689Z" fill="white"/>
</g>
<defs>
<clipPath id="clip0_7512_8260">
<rect width="14.3884" height="12" fill="white" transform="translate(1.53198 3.36914)"/>
</clipPath>
</defs>
</svg>
