<svg width="28" height="28" viewBox="0 0 28 28" fill="none" xmlns="http://www.w3.org/2000/svg">
<path fill-rule="evenodd" clip-rule="evenodd" d="M2.13892 2.43018C1.65567 2.43018 1.26392 2.82193 1.26392 3.30518C1.26392 3.78843 1.65567 4.18018 2.13892 4.18018H5.31058L6.13524 8.30038C6.13924 8.32637 6.14437 8.35198 6.1506 8.37717L7.77513 16.4937C7.90414 17.1425 8.25729 17.7259 8.77257 18.1407C9.28564 18.5537 9.92701 18.774 10.5854 18.7635H20.0202C20.6786 18.774 21.32 18.5537 21.8331 18.1407C22.3485 17.7257 22.7016 17.1428 22.8305 16.4937L22.8318 16.4871L24.3873 8.33021C24.4362 8.07404 24.3683 7.80945 24.202 7.60853C24.0358 7.40761 23.7886 7.29129 23.5278 7.29129H7.71799L6.88579 3.13345C6.80395 2.72451 6.44486 2.43018 6.02781 2.43018H2.13892ZM9.49134 16.1516L8.06824 9.04129H22.4702L21.114 16.1527L21.1135 16.1555C21.0642 16.4006 20.9305 16.6207 20.7357 16.7775C20.5402 16.9349 20.2956 17.0185 20.0446 17.0137L20.0278 17.0135H10.5778L10.561 17.0137C10.3101 17.0185 10.0655 16.9349 9.86994 16.7775C9.67443 16.6201 9.54049 16.3989 9.4916 16.1527L9.49134 16.1516ZM11.0833 21.8746C10.6001 21.8746 10.2083 22.2664 10.2083 22.7496C10.2083 23.2329 10.6001 23.6246 11.0833 23.6246C11.5666 23.6246 11.9583 23.2329 11.9583 22.7496C11.9583 22.2664 11.5666 21.8746 11.0833 21.8746ZM8.45832 22.7496C8.45832 21.2999 9.63357 20.1246 11.0833 20.1246C12.533 20.1246 13.7083 21.2999 13.7083 22.7496C13.7083 24.1994 12.533 25.3746 11.0833 25.3746C9.63357 25.3746 8.45832 24.1994 8.45832 22.7496ZM19.25 21.8746C18.7668 21.8746 18.375 22.2664 18.375 22.7496C18.375 23.2329 18.7668 23.6246 19.25 23.6246C19.7332 23.6246 20.125 23.2329 20.125 22.7496C20.125 22.2664 19.7332 21.8746 19.25 21.8746ZM16.625 22.7496C16.625 21.2999 17.8003 20.1246 19.25 20.1246C20.6997 20.1246 21.875 21.2999 21.875 22.7496C21.875 24.1994 20.6997 25.3746 19.25 25.3746C17.8003 25.3746 16.625 24.1994 16.625 22.7496Z" fill="#333333"/>
</svg>
