<svg width="15" height="13" viewBox="0 0 15 13" fill="none" xmlns="http://www.w3.org/2000/svg">
<g id="Layer_1" clip-path="url(#clip0_7668_7015)">
<path id="Vector" d="M14.9206 4.60509C14.6679 5.40697 14.4149 6.20884 14.1626 7.01072C13.9926 7.55056 13.8244 8.0904 13.6532 8.62987C13.4152 9.37919 12.7853 9.86121 11.9931 9.86459C10.1852 9.87285 8.37719 9.87323 6.56921 9.86459C5.75645 9.86046 5.12275 9.36192 4.8915 8.57768C4.29948 6.57299 3.70858 4.56792 3.11769 2.56323C3.00994 2.19721 2.84927 2.07557 2.4686 2.07557C2.03763 2.07557 1.60666 2.07632 1.17606 2.07557C0.802153 2.07407 0.533735 1.82405 0.532233 1.47867C0.530731 1.13217 0.796522 0.874633 1.17043 0.875384C1.70426 0.876135 2.24148 0.849481 2.77043 0.900912C3.47921 0.969988 3.96912 1.37581 4.21013 2.05004C4.33739 2.40631 4.435 2.77346 4.53449 3.13873C4.56527 3.25248 4.61595 3.27989 4.72782 3.27951C7.69732 3.27614 10.6668 3.27951 13.6363 3.27463C14.0617 3.27388 14.4266 3.39251 14.6803 3.74127C14.787 3.88805 14.8421 4.07238 14.9206 4.23981V4.60509Z" fill="#EE6002"/>
<path id="Vector_2" d="M6.93915 12.8689C6.83028 12.8299 6.71766 12.7991 6.61367 12.7503C6.08621 12.5018 5.81667 11.9109 5.97134 11.3538C6.13014 10.7813 6.65421 10.4269 7.2635 10.4798C7.79358 10.526 8.26547 10.9949 8.31578 11.5261C8.37322 12.1339 8.02071 12.6606 7.44858 12.8228C7.40015 12.8366 7.35247 12.8535 7.30442 12.8689H6.93915Z" fill="#EE6002"/>
<path id="Vector_3" d="M11.1545 12.8689C11.0487 12.834 10.9394 12.807 10.8377 12.7627C10.3046 12.5288 10.0178 11.9409 10.1605 11.3838C10.3117 10.7925 10.8343 10.428 11.4564 10.4794C12.0195 10.526 12.4707 11.0042 12.5195 11.6057C12.5642 12.1579 12.1678 12.694 11.6107 12.8344C11.5705 12.8445 11.5311 12.8577 11.4917 12.8693H11.1545V12.8689Z" fill="#EE6002"/>
</g>
<defs>
<clipPath id="clip0_7668_7015">
<rect width="14.3884" height="12" fill="white" transform="translate(0.532227 0.869141)"/>
</clipPath>
</defs>
</svg>
