<svg width="24" height="24" viewBox="0 0 24 24" fill="none" xmlns="http://www.w3.org/2000/svg">
<path fill-rule="evenodd" clip-rule="evenodd" d="M22 12C22 17.5228 17.5228 22 12 22C6.47715 22 2 17.5228 2 12C2 6.47715 6.47715 2 12 2C17.5228 2 22 6.47715 22 12ZM15.5302 8.46967C15.8231 8.76256 15.8231 9.23744 15.5302 9.53033L13.0605 12L15.5302 14.4697C15.8231 14.7626 15.8231 15.2374 15.5302 15.5303C15.2373 15.8232 14.7624 15.8232 14.4695 15.5303L11.9999 13.0607L9.53018 15.5303C9.23729 15.8232 8.76242 15.8232 8.46952 15.5303C8.17663 15.2374 8.17663 14.7626 8.46952 14.4697L10.9392 12L8.46952 9.53033C8.17663 9.23744 8.17663 8.76256 8.46952 8.46967C8.76242 8.17678 9.23729 8.17678 9.53018 8.46967L11.9999 10.9393L14.4695 8.46967C14.7624 8.17678 15.2373 8.17678 15.5302 8.46967Z" fill="#999999"/>
</svg>
