<svg width="15" height="16" viewBox="0 0 15 16" fill="none" xmlns="http://www.w3.org/2000/svg">
<path fill-rule="evenodd" clip-rule="evenodd" d="M14.09 1.522C14.3748 1.22131 14.362 0.746608 14.0613 0.461722C13.7607 0.176837 13.286 0.189648 13.0011 0.490336L7.25609 6.55399L1.51112 0.490336C1.22624 0.189648 0.751534 0.176837 0.450846 0.461722C0.150158 0.746608 0.137347 1.22131 0.422233 1.522L6.22293 7.64446L0.422233 13.7669C0.137347 14.0676 0.150158 14.5423 0.450846 14.8272C0.751534 15.1121 1.22624 15.0993 1.51112 14.7986L7.25609 8.73494L13.0011 14.7986C13.286 15.0993 13.7607 15.1121 14.0613 14.8272C14.362 14.5423 14.3748 14.0676 14.09 13.7669L8.28926 7.64446L14.09 1.522Z" fill="white"/>
</svg>
