<svg width="28" height="28" viewBox="0 0 28 28" fill="none" xmlns="http://www.w3.org/2000/svg">
<path d="M24.6166 9.68343H24.4999C24.4999 9.56677 15.0499 2.4501 15.0499 2.4501C14.4666 1.98343 13.5333 1.98343 12.9499 2.4501L13.9999 3.8501L23.4499 10.9668V22.2834C23.4499 22.7501 23.2166 23.2168 22.8666 23.5668C22.5166 23.9168 22.0499 24.1501 21.5833 24.1501H21.3499H18.8999V16.5668C18.8999 15.6334 18.1999 14.9334 17.3833 14.8168H17.1499H10.8499C9.91659 14.8168 9.21659 15.5168 9.09993 16.3334V16.5668V24.1501H6.41659C5.94993 24.1501 5.48326 23.9168 5.13326 23.5668C4.78326 23.2168 4.54993 22.7501 4.54993 22.2834V22.0501V10.9668L13.9999 3.8501L12.9499 2.4501L3.49993 9.56676C3.03326 9.91677 2.79993 10.3834 2.79993 10.9668V22.0501C2.79993 23.1001 3.26659 24.0334 3.96659 24.7334C4.66659 25.4334 5.71659 25.7834 6.64993 25.7834H21.3499C22.3999 25.7834 23.3333 25.4334 24.0333 24.7334C24.7333 24.0334 25.1999 23.1001 25.1999 22.0501V10.9668C25.1999 10.5001 24.9666 10.0334 24.6166 9.68343ZM17.1499 24.1501H10.8499V16.5668H17.1499V24.1501Z" fill="white"/>
</svg>
