<svg width="24" height="24" viewBox="0 0 24 24" fill="none" xmlns="http://www.w3.org/2000/svg">
<g id="icon_default">
<path id="vector" fill-rule="evenodd" clip-rule="evenodd" d="M12.8831 5.84668C12.8831 5.43247 12.5473 5.09668 12.1331 5.09668C11.7189 5.09668 11.3831 5.43247 11.3831 5.84668V11.3833H5.84644C5.43222 11.3833 5.09644 11.7191 5.09644 12.1333C5.09644 12.5476 5.43222 12.8833 5.84644 12.8833H11.3831V18.42C11.3831 18.8342 11.7189 19.17 12.1331 19.17C12.5473 19.17 12.8831 18.8342 12.8831 18.42V12.8833H18.4198C18.834 12.8833 19.1698 12.5476 19.1698 12.1333C19.1698 11.7191 18.834 11.3833 18.4198 11.3833H12.8831V5.84668Z" fill="#333333"/>
</g>
</svg>
