<svg width="20" height="20" viewBox="0 0 20 20" fill="none" xmlns="http://www.w3.org/2000/svg">
<g id="icon_default">
<path id="Vector" fill-rule="evenodd" clip-rule="evenodd" d="M8.125 3.75H7.5H5H4.375C4.20924 3.75 4.05027 3.80853 3.93306 3.91272C3.81585 4.01691 3.75 4.15821 3.75 4.30556V8.19444C3.75 8.34179 3.81585 8.48309 3.93306 8.58728C4.05027 8.69147 4.20924 8.75 4.375 8.75H8.125C8.29076 8.75 8.44973 8.69147 8.56694 8.58728C8.68415 8.48309 8.75 8.34179 8.75 8.19444V4.30556C8.75 4.15821 8.68415 4.01691 8.56694 3.91272C8.44973 3.80853 8.29076 3.75 8.125 3.75ZM15.625 3.75H15H12.5H11.875C11.7092 3.75 11.5503 3.80853 11.4331 3.91272C11.3158 4.01691 11.25 4.15821 11.25 4.30556V8.19444C11.25 8.34179 11.3158 8.48309 11.4331 8.58728C11.5503 8.69147 11.7092 8.75 11.875 8.75H15.625C15.7908 8.75 15.9497 8.69147 16.0669 8.58728C16.1842 8.48309 16.25 8.34179 16.25 8.19444V4.30556C16.25 4.15821 16.1842 4.01691 16.0669 3.91272C15.9497 3.80853 15.7908 3.75 15.625 3.75ZM7.5 11.25H8.125C8.29076 11.25 8.44973 11.3085 8.56694 11.4127C8.68415 11.5169 8.75 11.6582 8.75 11.8056V15.6944C8.75 15.8418 8.68415 15.9831 8.56694 16.0873C8.44973 16.1915 8.29076 16.25 8.125 16.25H4.375C4.20924 16.25 4.05027 16.1915 3.93306 16.0873C3.81585 15.9831 3.75 15.8418 3.75 15.6944V11.8056C3.75 11.6582 3.81585 11.5169 3.93306 11.4127C4.05027 11.3085 4.20924 11.25 4.375 11.25H5H7.5ZM15.625 11.25H15H12.5H11.875C11.7092 11.25 11.5503 11.3085 11.4331 11.4127C11.3158 11.5169 11.25 11.6582 11.25 11.8056V15.6944C11.25 15.8418 11.3158 15.9831 11.4331 16.0873C11.5503 16.1915 11.7092 16.25 11.875 16.25H15.625C15.7908 16.25 15.9497 16.1915 16.0669 16.0873C16.1842 15.9831 16.25 15.8418 16.25 15.6944V11.8056C16.25 11.6582 16.1842 11.5169 16.0669 11.4127C15.9497 11.3085 15.7908 11.25 15.625 11.25Z" fill="white"/>
</g>
</svg>
