<svg width="22" height="22" viewBox="0 0 22 22" fill="none" xmlns="http://www.w3.org/2000/svg">
<g id="Group 185018">
<path id="Vector (Stroke)" fill-rule="evenodd" clip-rule="evenodd" d="M10.7852 1.60156C5.67652 1.60156 1.53516 5.74293 1.53516 10.8516C1.53516 15.9602 5.67652 20.1016 10.7852 20.1016C15.8938 20.1016 20.0352 15.9602 20.0352 10.8516C20.0352 5.74293 15.8938 1.60156 10.7852 1.60156ZM0.0351562 10.8516C0.0351562 4.9145 4.84809 0.101562 10.7852 0.101562C16.7222 0.101562 21.5352 4.9145 21.5352 10.8516C21.5352 16.7886 16.7222 21.6016 10.7852 21.6016C4.84809 21.6016 0.0351562 16.7886 0.0351562 10.8516Z" fill="#333333"/>
<path id="Vector (Stroke)_2" fill-rule="evenodd" clip-rule="evenodd" d="M16.0352 10.8516C16.0352 10.4373 16.3709 10.1016 16.7852 10.1016H20.7852C21.1994 10.1016 21.5352 10.4373 21.5352 10.8516C21.5352 11.2658 21.1994 11.6016 20.7852 11.6016H16.7852C16.3709 11.6016 16.0352 11.2658 16.0352 10.8516Z" fill="#333333"/>
<path id="Vector (Stroke)_3" fill-rule="evenodd" clip-rule="evenodd" d="M0.0351562 10.8516C0.0351562 10.4373 0.370943 10.1016 0.785156 10.1016H4.78516C5.19937 10.1016 5.53516 10.4373 5.53516 10.8516C5.53516 11.2658 5.19937 11.6016 4.78516 11.6016H0.785156C0.370943 11.6016 0.0351562 11.2658 0.0351562 10.8516Z" fill="#333333"/>
<path id="Vector (Stroke)_4" fill-rule="evenodd" clip-rule="evenodd" d="M10.7852 0.101562C11.1994 0.101562 11.5352 0.437349 11.5352 0.851562V4.85156C11.5352 5.26578 11.1994 5.60156 10.7852 5.60156C10.3709 5.60156 10.0352 5.26578 10.0352 4.85156V0.851562C10.0352 0.437349 10.3709 0.101562 10.7852 0.101562Z" fill="#333333"/>
<path id="Vector (Stroke)_5" fill-rule="evenodd" clip-rule="evenodd" d="M10.7852 16.1016C11.1994 16.1016 11.5352 16.4373 11.5352 16.8516V20.8516C11.5352 21.2658 11.1994 21.6016 10.7852 21.6016C10.3709 21.6016 10.0352 21.2658 10.0352 20.8516V16.8516C10.0352 16.4373 10.3709 16.1016 10.7852 16.1016Z" fill="#333333"/>
</g>
</svg>
