<svg width="36" height="36" viewBox="0 0 36 36" fill="none" xmlns="http://www.w3.org/2000/svg">
<g id="Layer_1" clip-path="url(#clip0_8500_2352)">
<path id="Vector" fill-rule="evenodd" clip-rule="evenodd" d="M9.63 0C4.32 0 0 4.32 0 9.63V26.37C0 31.68 4.32 36 9.63 36H26.37C31.68 36 36 31.68 36 26.37V9.63C36 4.32 31.68 0 26.37 0L9.63 0ZM2.5425 26.9325C2.835 30.6 5.895 33.48 9.63 33.48H26.37C30.3075 33.48 33.48 30.285 33.48 26.37V23.6475L26.7975 18.09C25.605 17.1 23.85 17.1675 22.7475 18.27L14.4 26.6175C13.6125 27.405 12.3525 27.405 11.565 26.6175L9.765 24.8175C8.73 23.7825 7.0875 23.6475 5.8725 24.5025L2.79 26.7075C2.79 26.7075 2.61 26.8425 2.52 26.9325H2.5425ZM7.9425 11.295C7.9425 13.14 9.45 14.6475 11.295 14.6475C13.14 14.6475 14.6475 13.14 14.6475 11.295C14.6475 9.45 13.14 7.9425 11.295 7.9425C9.45 7.9425 7.9425 9.45 7.9425 11.295Z" fill="#BDBDBD"/>
</g>
<defs>
<clipPath id="clip0_8500_2352">
<rect width="36" height="36" fill="white"/>
</clipPath>
</defs>
</svg>
