<svg width="20" height="20" viewBox="0 0 20 20" fill="none" xmlns="http://www.w3.org/2000/svg">
<path fill-rule="evenodd" clip-rule="evenodd" d="M10.1932 18.1823C10.1932 18.1823 17.0114 13.6368 17.0114 8.33381C17.0114 6.52551 16.293 4.79128 15.0144 3.51262C13.7357 2.23397 12.0015 1.51562 10.1932 1.51562C8.38489 1.51562 6.65066 2.23397 5.372 3.51262C4.09334 4.79128 3.375 6.52551 3.375 8.33381C3.375 13.6368 10.1932 18.1823 10.1932 18.1823ZM13.2234 8.4704C13.2234 10.144 11.8667 11.5007 10.1931 11.5007C8.51955 11.5007 7.16283 10.144 7.16283 8.4704C7.16283 6.79681 8.51955 5.44009 10.1931 5.44009C11.8667 5.44009 13.2234 6.79681 13.2234 8.4704Z" fill="white"/>
</svg>
