<svg width="24" height="24" viewBox="0 0 24 24" fill="none" xmlns="http://www.w3.org/2000/svg">
<g id="icon_default">
<path id="Vector" d="M20.8262 18.9219C20.8261 19.5054 20.6156 20.0635 20.2412 20.5039L20.0713 20.6846C19.5921 21.1465 18.9475 21.4014 18.2812 21.4014H5.71777C5.13488 21.4014 4.56864 21.2068 4.11523 20.8486L3.92773 20.6846C3.44791 20.2218 3.17294 19.5884 3.17285 18.9219V9.40527C3.17288 9.16935 3.28399 8.9473 3.47266 8.80566L11.5498 2.75L11.6543 2.68359C11.9067 2.55262 12.216 2.57516 12.4492 2.75L20.5264 8.80566C20.7151 8.94729 20.8261 9.16928 20.8262 9.40527V18.9219Z" stroke="#333333" stroke-width="1.5" stroke-linecap="round" stroke-linejoin="round"/>
<path id="Heart" d="M8.66101 14.0603L11.1049 16.6359C11.5781 17.1346 12.3727 17.1346 12.8459 16.6359L15.2898 14.0603C16.1711 13.1314 16.1711 11.6255 15.2898 10.6966C14.4085 9.76779 12.9795 9.76779 12.0982 10.6966C12.0314 10.767 11.9194 10.767 11.8526 10.6966C10.9713 9.76779 9.54236 9.76779 8.66101 10.6966C7.77966 11.6255 7.77966 13.1314 8.66101 14.0603Z" fill="#333333"/>
</g>
</svg>
