<svg width="20" height="21" viewBox="0 0 20 21" fill="none" xmlns="http://www.w3.org/2000/svg">
<g id="Layer_1" clip-path="url(#clip0_8140_7410)">
<path id="Vector" d="M9.70974 0.503637C17.7737 0.292266 22.8252 9.33773 18.2865 16.082C14.1792 22.1854 5.1043 21.9177 1.38111 15.5759C-2.4634 9.02772 2.16961 0.70153 9.70974 0.503637ZM1.78547 10.1397C1.77444 10.3707 1.77444 10.6439 1.78547 10.8749C1.99071 15.1128 5.39777 18.5272 9.62764 18.7324C9.85801 18.7434 10.1306 18.7434 10.3616 18.7324C14.5952 18.5266 17.9986 15.1164 18.2038 10.8749C18.2148 10.6439 18.2148 10.3707 18.2038 10.1397C17.9986 5.89758 14.5958 2.48808 10.3616 2.28222C10.1313 2.27119 9.85862 2.27119 9.62764 2.28222C5.39532 2.48808 1.99071 5.89881 1.78547 10.1397Z" fill="#FF8120"/>
<path id="Vector_2" d="M9.62733 2.28223C9.69166 2.64615 9.40432 3.86414 10.0103 3.83106C10.5825 3.79981 10.2921 2.65963 10.3613 2.28223C14.5955 2.48808 17.9982 5.89759 18.2035 10.1397C17.8402 10.2041 16.6246 9.91671 16.6577 10.5233C16.689 11.0967 17.8267 10.8057 18.2035 10.8749C17.9982 15.1164 14.5949 18.5266 10.3613 18.7324C10.297 18.3685 10.5843 17.1505 9.97839 17.1836C9.40616 17.2148 9.69656 18.355 9.62733 18.7324C5.39746 18.5272 1.9904 15.1128 1.78516 10.8749C2.14847 10.8106 3.36401 11.0979 3.33092 10.4914C3.29968 9.91793 2.16195 10.209 1.78516 10.1397C1.9904 5.89882 5.39501 2.48808 9.62733 2.28223ZM10.3613 10.1397V5.75178C10.3613 5.71502 10.2216 5.5545 10.1763 5.52386C9.93122 5.36089 9.66838 5.52754 9.6304 5.80079C9.7272 7.29387 9.49193 8.96952 9.62488 10.4412C9.65306 10.7493 9.75293 10.8498 10.0605 10.878C11.5291 11.0115 13.2016 10.7757 14.6923 10.8731C14.9465 10.8032 15.1352 10.579 14.968 10.326C14.9373 10.28 14.7774 10.1403 14.7407 10.1403H10.3607L10.3613 10.1397Z" fill="#FFF5E6"/>
<path id="Vector_3" d="M10.3616 2.2822C10.2924 2.6596 10.5834 3.79978 10.0105 3.83103C9.4046 3.86411 9.69194 2.64612 9.62761 2.2822C9.85797 2.27117 10.1306 2.27117 10.3616 2.2822Z" fill="#333333"/>
<path id="Vector_4" d="M1.78561 10.8752C1.77459 10.6442 1.77459 10.3709 1.78561 10.1399C2.16241 10.2092 3.30014 9.91816 3.33138 10.4916C3.36447 11.0982 2.14893 10.8108 1.78561 10.8752Z" fill="#333333"/>
<path id="Vector_5" d="M18.2037 10.1398C18.2147 10.3707 18.2147 10.644 18.2037 10.875C17.8269 10.8057 16.6891 11.0967 16.6579 10.5233C16.6248 9.91675 17.8403 10.2041 18.2037 10.1398Z" fill="#333333"/>
<path id="Vector_6" d="M10.3613 18.7326C10.1309 18.7436 9.85829 18.7436 9.62731 18.7326C9.69655 18.3552 9.40553 17.215 9.97837 17.1838C10.5843 17.1507 10.297 18.3687 10.3613 18.7326Z" fill="#333333"/>
<path id="Vector 153 (Stroke)" fill-rule="evenodd" clip-rule="evenodd" d="M9.99902 4.75C10.4132 4.75 10.749 5.08579 10.749 5.5V9.75H14.999C15.4132 9.75 15.749 10.0858 15.749 10.5C15.749 10.9142 15.4132 11.25 14.999 11.25H9.99902C9.58481 11.25 9.24902 10.9142 9.24902 10.5V5.5C9.24902 5.08579 9.58481 4.75 9.99902 4.75Z" fill="#333333"/>
</g>
<defs>
<clipPath id="clip0_8140_7410">
<rect width="19.9975" height="20" fill="white" transform="translate(0 0.5)"/>
</clipPath>
</defs>
</svg>
