<svg width="25" height="24" viewBox="0 0 25 24" fill="none" xmlns="http://www.w3.org/2000/svg">
<g clip-path="url(#clip0_283_5709)">
<path d="M17.8711 2C18.7032 2.00004 19.5272 2.16391 20.2959 2.48242C21.0645 2.80092 21.7633 3.26801 22.3516 3.85645C22.94 4.44467 23.4071 5.14346 23.7256 5.91211C24.044 6.68078 24.208 7.50489 24.208 8.33691C24.208 9.16897 24.0441 9.99303 23.7256 10.7617C23.4071 11.5304 22.94 12.2291 22.3516 12.8174L13.3906 21.7773C13.0938 22.0739 12.6132 22.074 12.3164 21.7773L3.35547 12.8174C2.16728 11.6291 1.50003 10.0173 1.5 8.33691C1.5 6.65654 2.16733 5.0447 3.35547 3.85645C4.54367 2.66824 6.15557 2.00106 7.83594 2.00098C9.51637 2.00098 11.1281 2.66823 12.3164 3.85645L12.8535 4.39355L13.3906 3.85645C13.9788 3.26803 14.6776 2.80091 15.4463 2.48242C16.215 2.16398 17.0391 2 17.8711 2Z" fill="white"/>
<path d="M17.8711 2L17.8711 1.5H17.8711V2ZM20.2959 2.48242L20.4873 2.02051L20.4873 2.0205L20.2959 2.48242ZM22.3516 3.85645L21.9979 4.20994L21.9981 4.21006L22.3516 3.85645ZM23.7256 5.91211L24.1875 5.72074L24.1875 5.72071L23.7256 5.91211ZM24.208 8.33691L24.708 8.33692V8.33691H24.208ZM23.7256 10.7617L24.1875 10.9531L24.1875 10.9531L23.7256 10.7617ZM22.3516 12.8174L21.9981 12.4638L21.998 12.4638L22.3516 12.8174ZM13.3906 21.7773L13.744 22.131L13.7442 22.1309L13.3906 21.7773ZM12.3164 21.7773L11.9629 22.1309L11.963 22.131L12.3164 21.7773ZM3.35547 12.8174L3.00191 13.1709L3.00193 13.171L3.35547 12.8174ZM1.5 8.33691H1V8.33692L1.5 8.33691ZM3.35547 3.85645L3.00192 3.50289L3.0019 3.50291L3.35547 3.85645ZM7.83594 2.00098V1.50098H7.83591L7.83594 2.00098ZM12.3164 3.85645L12.67 3.50289L12.67 3.50288L12.3164 3.85645ZM12.8535 4.39355L12.5 4.74711C12.6952 4.94237 13.0118 4.94237 13.2071 4.74711L12.8535 4.39355ZM13.3906 3.85645L13.7442 4.21L13.7442 4.20994L13.3906 3.85645ZM15.4463 2.48242L15.2549 2.02049L15.2549 2.0205L15.4463 2.48242ZM17.8711 2L17.8711 2.5C18.6375 2.50003 19.3965 2.65098 20.1045 2.94434L20.2959 2.48242L20.4873 2.0205C19.6579 1.67684 18.7688 1.50004 17.8711 1.5L17.8711 2ZM20.2959 2.48242L20.1045 2.94434C20.8125 3.2377 21.4561 3.66794 21.9979 4.20994L22.3516 3.85645L22.7052 3.50296C22.0705 2.86808 21.3166 2.36415 20.4873 2.02051L20.2959 2.48242ZM22.3516 3.85645L21.9981 4.21006C22.5401 4.75187 22.9703 5.39554 23.2637 6.1035L23.7256 5.91211L24.1875 5.72071C23.8439 4.89138 23.3399 4.13748 22.7051 3.50283L22.3516 3.85645ZM23.7256 5.91211L23.2637 6.10347C23.557 6.81149 23.708 7.57057 23.708 8.33691H24.208H24.708C24.708 7.43921 24.5311 6.55007 24.1875 5.72074L23.7256 5.91211ZM24.208 8.33691L23.708 8.33691C23.708 9.1033 23.557 9.86233 23.2637 10.5703L23.7256 10.7617L24.1875 10.9531C24.5311 10.1237 24.708 9.23464 24.708 8.33692L24.208 8.33691ZM23.7256 10.7617L23.2637 10.5703C22.9703 11.2783 22.5401 11.9219 21.9981 12.4638L22.3516 12.8174L22.705 13.171C23.34 12.5363 23.8439 11.7825 24.1875 10.9531L23.7256 10.7617ZM22.3516 12.8174L21.998 12.4638L13.0371 21.4238L13.3906 21.7773L13.7442 22.1309L22.7051 13.171L22.3516 12.8174ZM13.3906 21.7773L13.0372 21.4237C12.9356 21.5252 12.7714 21.5252 12.6698 21.4237L12.3164 21.7773L11.963 22.131C12.455 22.6227 13.252 22.6227 13.744 22.131L13.3906 21.7773ZM12.3164 21.7773L12.6699 21.4238L3.709 12.4638L3.35547 12.8174L3.00193 13.171L11.9629 22.1309L12.3164 21.7773ZM3.35547 12.8174L3.70903 12.4638C2.61466 11.3694 2.00003 9.88477 2 8.33691L1.5 8.33691L1 8.33692C1.00003 10.1498 1.7199 11.8889 3.00191 13.1709L3.35547 12.8174ZM1.5 8.33691H2C2 6.78908 2.61469 5.30443 3.70904 4.20998L3.35547 3.85645L3.0019 3.50291C1.71996 4.78497 1 6.52399 1 8.33691H1.5ZM3.35547 3.85645L3.70902 4.21C4.80339 3.11563 6.28809 2.50106 7.83596 2.50098L7.83594 2.00098L7.83591 1.50098C6.02306 1.50107 4.28396 2.22085 3.00192 3.50289L3.35547 3.85645ZM7.83594 2.00098V2.50098C9.38383 2.50098 10.8684 3.11561 11.9629 4.21001L12.3164 3.85645L12.67 3.50288C11.3879 2.22086 9.6489 1.50098 7.83594 1.50098V2.00098ZM12.3164 3.85645L11.9629 4.21L12.5 4.74711L12.8535 4.39355L13.2071 4.04L12.67 3.50289L12.3164 3.85645ZM12.8535 4.39355L13.2071 4.74711L13.7442 4.21L13.3906 3.85645L13.0371 3.50289L12.5 4.04L12.8535 4.39355ZM13.3906 3.85645L13.7442 4.20994C14.286 3.66796 14.9297 3.23768 15.6377 2.94434L15.4463 2.48242L15.2549 2.0205C14.4256 2.36414 13.6717 2.86811 13.037 3.50295L13.3906 3.85645ZM15.4463 2.48242L15.6377 2.94435C16.3457 2.65104 17.1048 2.5 17.8711 2.5V2V1.5C16.9734 1.5 16.0843 1.67693 15.2549 2.02049L15.4463 2.48242Z" fill="#BDBDBD"/>
</g>
<defs>
<clipPath id="clip0_283_5709">
<rect width="24" height="24" fill="white" transform="translate(0.5)"/>
</clipPath>
</defs>
</svg>
