<svg width="136" height="138" viewBox="0 0 136 138" fill="none" xmlns="http://www.w3.org/2000/svg">
<g clip-path="url(#clip0_2096_5498)">
<g clip-path="url(#clip1_2096_5498)">
<path d="M9.16703 81.6947C9.52838 82.0952 9.80266 82.5698 10.1814 82.9398C10.5645 83.3186 11.013 83.619 11.4135 83.9673C11.8184 84.3199 12.2625 84.616 12.6804 84.9381C13.1071 85.2647 13.4423 85.7087 13.882 86.0048C14.3261 86.3052 14.8181 86.5229 15.2795 86.7928C15.741 87.0627 16.1633 87.4067 16.6422 87.6461C17.1211 87.8856 17.6566 88.0031 18.1486 88.2077C18.6405 88.4123 19.1325 88.617 19.6375 88.7911C20.1382 88.9653 20.6432 89.1394 21.1613 89.2831C21.6707 89.4224 22.2018 89.4921 22.7286 89.6052C23.2467 89.7141 23.7648 89.8447 24.2959 89.9231C24.8184 90.0014 25.3452 90.0798 25.8807 90.132C26.4074 90.1843 26.9429 90.1669 27.4784 90.1886C27.953 90.2104 28.4275 90.1886 28.9064 90.1669C29.3853 90.1451 29.8729 90.2148 30.3431 90.1233C30.8133 90.0319 31.2617 89.8534 31.7058 89.6618C32.2326 89.4311 32.6244 89.0828 33.0119 88.7781C33.4516 88.4298 33.813 88.0815 34.0916 87.6548C34.3833 87.2064 34.5923 86.7405 34.736 86.2268C34.8709 85.7261 34.9493 85.2124 34.9711 84.6682C34.9885 84.1501 35.0799 83.6103 35.0146 83.0748C34.9493 82.5567 34.8013 82.0343 34.675 81.5162C34.5531 80.9981 34.4486 80.4713 34.2875 79.9706C34.1221 79.4526 33.8609 78.978 33.678 78.4991C33.5039 78.0376 33.4299 77.5282 33.2383 77.0668C33.0467 76.6096 32.7681 76.1873 32.5722 75.7302C32.3763 75.2731 32.1934 74.8116 32.0062 74.3501C31.819 73.8886 31.6275 73.4315 31.462 72.9656C31.2966 72.4954 31.166 72.0165 31.0397 71.5376C30.9135 71.0544 30.6435 70.6016 30.5695 70.1096C30.4955 69.622 30.6174 69.1083 30.6131 68.6076C30.6043 68.0634 30.6609 67.4713 30.6348 66.8923C30.6087 66.2959 30.4041 65.7342 30.2256 65.2292C30.0297 64.6807 29.7119 64.2758 29.172 63.9928C28.6147 63.7054 28.1663 63.5269 27.7527 63.5835C27.252 63.6532 26.7775 63.9101 26.451 64.3498C26.1811 64.7111 26.0156 65.2205 25.8415 65.7473C25.6934 66.1957 25.4888 66.6833 25.3974 67.2014C25.3103 67.689 25.4627 68.2245 25.4192 68.7252C25.3713 69.2346 25.1275 69.7352 25.1144 70.2185C25.097 70.7627 25.2668 71.2764 25.2755 71.7292C25.2886 72.391 25.2668 72.9874 25.2886 73.3009C24.8793 72.9874 24.4396 72.6391 24.0652 72.2908C23.6864 71.9425 23.3164 71.5768 22.9681 71.2024C22.6198 70.828 22.4239 70.3186 22.0973 69.9181C21.7752 69.5219 21.4574 69.1214 21.1526 68.7078C20.8478 68.2985 20.4299 67.9633 20.1382 67.541C19.8422 67.123 19.5417 66.7051 19.2501 66.2784C18.9627 65.8561 18.671 65.4295 18.3793 65.0072C18.0876 64.5849 17.9091 64.0799 17.6131 63.6619C17.317 63.244 17.0297 62.8086 16.7206 62.4037C16.4115 61.9945 16.0501 61.6157 15.7236 61.2239C15.3927 60.8277 14.9966 60.4968 14.6439 60.1224C14.2913 59.7523 13.9822 59.3257 13.599 58.9817C13.1767 58.603 12.6412 58.32 12.1362 58.0631C11.6094 57.7976 11.0478 57.5146 10.4644 57.5973C9.9115 57.6756 9.44566 58.1894 9.18009 58.6726C8.8971 59.1907 8.85357 59.7959 9.28022 60.2138C9.02336 59.687 8.5967 59.2909 8.06556 59.0819C7.54747 58.8773 6.95103 58.9077 6.38941 59.0122C5.83214 59.1167 5.24004 59.2821 4.85692 59.7044C4.4651 60.1355 4.38673 60.7363 4.29966 61.3022C4.21694 61.8595 4.14293 62.4429 4.33013 62.9914C4.51299 63.5356 4.8308 64.0233 5.24875 64.4151C4.8221 64.18 4.38238 64.2105 3.95137 64.3759C3.54213 64.5326 3.159 64.8113 2.88037 65.19C2.60609 65.5601 2.49725 66.0042 2.47548 66.4569C2.45372 66.9315 2.54079 67.3581 2.71058 67.7935C2.87602 68.2202 2.95438 68.7252 3.23737 69.104C3.516 69.4784 3.88171 69.8136 4.20388 70.1358C3.86865 69.8049 3.46376 69.9703 3.08499 70.336C2.71058 70.6974 2.52773 71.2416 2.45807 71.4636C2.27522 72.0427 2.23168 72.6435 2.47113 73.2268C2.70623 73.8015 3.01533 74.3849 3.27655 74.8682C3.51165 75.3122 3.80334 75.7346 4.08633 76.1481C4.36932 76.5617 4.6436 76.9928 4.95706 77.3846C5.27052 77.7721 5.62317 78.1378 5.9584 78.5122C6.29363 78.8866 6.70287 79.1913 7.04681 79.557C7.39074 79.9228 7.7042 80.3146 8.04814 80.6803C8.39643 81.046 8.8318 81.3246 9.16703 81.6947Z" fill="#EBBEA7"/>
<path d="M91.5509 42.7731C92.008 42.4422 92.5392 42.2245 93.0355 41.9546C93.5362 41.6847 93.9802 41.2798 94.507 41.0882C95.0469 40.8923 95.6129 40.753 96.1658 40.6659C96.7274 40.5745 97.3108 40.5963 97.8724 40.6355C98.4297 40.6746 98.9565 40.7878 99.5007 40.9794C99.5094 40.3525 99.6748 39.8692 99.9012 39.4513C100.167 38.9593 100.528 38.537 101.024 38.2932C101.477 38.0712 102.039 38.0363 102.618 37.9884C103.127 37.9449 103.671 37.9014 104.237 37.971C104.76 38.0363 105.321 38.0581 105.853 38.1974C106.375 38.3367 106.902 38.5109 107.403 38.7068C107.921 38.9071 108.378 39.2379 108.839 39.4774C109.349 39.743 109.88 39.9432 110.28 40.2393C110.785 40.6093 111.173 41.0404 111.43 41.4104C111.73 41.8458 111.856 42.3682 112.048 42.8558C112.239 43.3391 112.496 43.8093 112.601 44.3273C112.701 44.8367 112.779 45.3679 112.81 45.8903C112.84 46.4127 112.757 46.9569 112.727 47.4794C113.267 47.475 113.828 47.4707 114.32 47.6492C114.812 47.8277 115.248 48.1716 115.67 48.4938C116.084 48.8116 116.519 49.1512 116.837 49.5735C117.15 49.9958 117.268 50.54 117.468 51.0276C117.664 51.5196 117.76 52.0115 117.812 52.534C117.864 53.0564 117.895 53.5614 117.782 54.0795C117.668 54.6063 117.555 55.1244 117.298 55.5859C117.041 56.0473 116.724 56.4871 116.354 56.8658C115.988 57.2446 115.609 57.6538 115.161 57.9412C114.712 58.2242 114.138 58.259 113.637 58.4375C113.136 58.616 112.653 58.8293 112.126 58.8903C111.599 58.9469 111.047 58.9338 110.52 58.8554C110.528 59.4432 110.328 59.9613 110.05 60.4358C109.775 60.9017 109.383 61.263 108.926 61.6157C108.495 61.9509 108.064 62.3035 107.546 62.5343C107.028 62.765 106.493 62.9435 105.966 63.0654C105.478 63.1743 104.951 63.1699 104.412 63.2439C103.911 63.3092 103.406 63.54 102.87 63.5748C102.361 63.6053 101.834 63.6532 101.299 63.6488C100.785 63.6488 100.254 63.627 99.727 63.5922C99.209 63.5574 98.7083 63.3005 98.1902 63.2309C97.6721 63.1655 97.141 63.196 96.6273 63.1002C96.1135 63.0045 95.6085 62.8695 95.1035 62.7345C94.5941 62.5996 94.0891 62.469 93.5971 62.2992C93.0965 62.125 92.574 62.0162 92.0995 61.8072C91.6162 61.5939 91.2287 61.1933 90.7803 60.9408C90.3188 60.6796 89.8138 60.5055 89.3959 60.2007C88.9692 59.8873 88.6078 59.4998 88.2421 59.1384C87.8677 58.7684 87.576 58.3374 87.2713 57.9194C86.9665 57.4971 86.5965 57.114 86.3744 56.6351C86.1568 56.1692 86.0784 55.6468 85.9521 55.1287C85.8302 54.6368 85.7562 54.1317 85.7257 53.5919C85.6953 53.0912 85.5472 52.5644 85.6038 52.0202C85.6604 51.463 85.8738 50.9318 86.0174 50.3963C86.1611 49.8608 86.2351 49.2905 86.4571 48.7811C86.6792 48.2761 87.0057 47.8059 87.2931 47.3314C87.5804 46.8568 88.0114 46.4824 88.351 46.0427C88.6906 45.603 89.0214 45.1676 89.4089 44.7671C89.792 44.3665 90.1577 43.9486 90.5757 43.5872C90.8892 43.3173 91.1983 43.0343 91.5379 42.7905L91.5509 42.7731Z" fill="#97928C"/>
<path d="M36.0508 83.8716C36.3251 84.2852 36.4818 84.7553 36.6647 85.1994C36.8475 85.6478 36.9999 86.105 37.1567 86.5665C37.309 87.0236 37.6138 87.4241 37.8053 87.8769C37.9882 88.3166 38.0448 88.826 38.3191 89.244C38.6151 89.6967 39.0287 90.0711 39.377 90.4978C39.7166 90.9201 39.9778 91.4208 40.3479 91.8213C40.7179 92.2218 41.2186 92.5005 41.6061 92.8792C42.0023 93.2624 42.2939 93.7543 42.6901 94.1157C42.9513 94.3551 43.2779 94.6163 43.6305 94.6729C44.314 94.7818 44.9105 94.0808 45.2936 93.5018C45.5897 93.0534 45.7377 92.5135 46.0163 92.0521C46.2906 91.5906 46.6084 91.1552 46.8653 90.6807C47.1221 90.2061 47.4965 89.7969 47.736 89.3136C47.9798 88.8347 48.1496 88.3166 48.376 87.829C48.6067 87.3414 48.8592 86.8669 49.0813 86.3749C49.3033 85.8829 49.5123 85.3866 49.7256 84.8947C49.9389 84.4027 50.087 83.8803 50.3003 83.384C50.5093 82.8876 50.7269 82.3957 50.9359 81.8994C51.1449 81.4031 51.3321 80.898 51.5498 80.4061C51.7631 79.9141 51.9808 79.4178 52.2028 78.9302C52.4249 78.4382 52.6817 77.9637 52.9125 77.4804C53.1432 76.9928 53.3565 76.4965 53.6003 76.0176C53.8442 75.5387 54.0967 75.0598 54.3579 74.5896C54.6191 74.1194 54.9674 73.7015 55.246 73.24C55.5247 72.7785 55.873 72.3692 56.169 71.9208C56.4563 71.4898 56.5913 70.95 56.9004 70.5364C57.2095 70.1228 57.5665 69.7353 57.8974 69.3391C58.2326 68.9429 58.6854 68.6512 59.038 68.2768C59.3907 67.8981 59.6127 67.3887 59.9871 67.0317C60.3616 66.6747 60.8753 66.4701 61.2715 66.1348C61.6633 65.7996 61.9855 65.3729 62.3991 65.0595C62.8127 64.746 63.2916 64.5283 63.7182 64.2366C64.1449 63.945 64.5541 63.6271 64.9982 63.3616C65.4423 63.096 65.8602 62.7782 66.3173 62.5387C66.7745 62.2993 67.2316 62.0468 67.7018 61.8291C68.172 61.6158 68.6552 61.4155 69.1385 61.2283C69.6217 61.0411 70.1485 60.9845 70.6449 60.819C71.1368 60.658 71.6201 60.4751 72.1207 60.3401C72.6214 60.2052 73.0916 59.944 73.601 59.8395C74.106 59.735 74.6328 59.7132 75.1465 59.6348C75.6559 59.5565 76.1783 59.4563 76.7051 59.391C77.2188 59.3301 77.75 59.304 78.2811 59.2561C78.7992 59.2082 79.326 59.1777 79.8572 59.1429C80.3752 59.1081 80.902 59.0297 81.4332 59.0079C81.9556 58.9905 82.4824 58.9949 83.0135 58.9862C83.536 58.9818 84.0628 59.0515 84.5939 59.0602C85.1163 59.0689 85.6475 58.9862 86.1786 59.0079C86.7011 59.0297 87.2192 59.2691 87.7459 59.304C88.2684 59.3388 88.7995 59.2953 89.3263 59.3432C89.8488 59.391 90.3843 59.3649 90.9067 59.4302C91.4291 59.4955 91.9559 59.5565 92.474 59.6392C92.9964 59.7176 93.5015 59.883 94.0195 59.9788C94.5376 60.0746 95.0296 60.2966 95.5433 60.4098C96.0571 60.523 96.6056 60.4969 97.115 60.6231C97.6287 60.7537 98.1555 60.8277 98.6605 60.9758C99.1699 61.1238 99.614 61.459 100.115 61.6288C100.615 61.7986 101.107 61.9728 101.599 62.16C102.096 62.3472 102.635 62.4125 103.119 62.6214C103.606 62.8348 104.055 63.1134 104.525 63.3441C104.999 63.5792 105.443 63.8666 105.901 64.1235C106.362 64.3803 106.789 64.6851 107.233 64.9681C107.677 65.251 108.178 65.4557 108.6 65.7648C109.027 66.0739 109.471 66.3699 109.871 66.7052C110.276 67.0447 110.62 67.454 110.999 67.8153C111.373 68.1767 111.822 68.4684 112.17 68.8559C112.518 69.239 112.832 69.6613 113.158 70.0662C113.48 70.4711 113.811 70.8803 114.116 71.3026C114.416 71.7249 114.59 72.2343 114.873 72.674C115.152 73.1094 115.435 73.5447 115.696 73.9975C115.953 74.4459 116.288 74.8595 116.528 75.321C116.767 75.7825 116.92 76.2832 117.142 76.7577C117.364 77.2279 117.629 77.6763 117.834 78.1552C118.039 78.6341 118.278 79.0956 118.465 79.5832C118.652 80.0665 118.766 80.5802 118.944 81.0722C119.118 81.5598 119.245 82.0692 119.406 82.5611C119.567 83.0574 119.667 83.5668 119.815 84.0675C119.963 84.5681 120.08 85.0732 120.215 85.5738C120.35 86.0789 120.52 86.5708 120.646 87.0715C120.773 87.5765 121.016 88.0554 121.134 88.5604C121.252 89.0698 121.33 89.5879 121.434 90.0929C121.539 90.6066 121.561 91.1334 121.656 91.6385C121.752 92.1522 121.9 92.6572 121.987 93.1666C122.074 93.6847 122.279 94.1766 122.357 94.686C122.44 95.2041 122.466 95.7309 122.54 96.2359C122.614 96.7453 122.645 97.259 122.714 97.7684C122.784 98.2778 122.775 98.8002 122.841 99.3096C122.906 99.8189 123.141 100.311 123.202 100.82C123.263 101.33 123.224 101.856 123.285 102.366C123.346 102.875 123.446 103.385 123.502 103.894C123.559 104.403 123.598 104.921 123.65 105.431C123.703 105.945 123.594 106.471 123.642 106.981C123.69 107.494 123.807 107.999 123.855 108.509C123.903 109.023 124.003 109.528 124.047 110.041C124.09 110.555 124.173 111.064 124.212 111.578C124.251 112.092 124.238 112.61 124.277 113.124C124.317 113.637 124.473 114.142 124.508 114.656C124.543 115.17 124.556 115.684 124.586 116.197C124.617 116.711 124.665 117.225 124.691 117.739C124.717 118.252 124.582 118.775 124.604 119.288C124.63 119.802 124.687 120.316 124.708 120.83C124.73 121.343 124.869 121.853 124.887 122.366C124.904 122.88 124.822 123.398 124.835 123.912C124.848 124.426 124.9 124.939 124.909 125.453C124.922 125.967 124.839 126.485 124.848 126.999C124.856 127.512 125.013 128.026 125.017 128.54C125.022 129.054 124.887 129.572 124.891 130.085C124.891 130.599 124.974 131.113 124.97 131.631C124.965 132.149 124.848 132.658 124.843 133.172C124.839 133.686 124.874 134.2 124.865 134.718C124.856 135.231 124.826 135.745 124.813 136.259C124.8 136.773 124.869 137.291 124.856 137.804C124.843 138.318 124.835 138.832 124.817 139.35C124.8 139.864 124.721 140.338 124.7 140.852C123.946 141.091 123.92 140.787 123.132 140.787C122.344 140.787 122.34 140.991 121.552 140.991C120.764 140.991 120.76 140.774 119.972 140.774C119.184 140.774 119.179 140.822 118.387 140.822C117.595 140.822 117.594 140.956 116.802 140.956C116.01 140.956 116.01 140.987 115.222 140.987C114.434 140.987 114.429 140.891 113.641 140.891C112.853 140.891 112.849 140.826 112.061 140.826C111.273 140.826 111.269 140.926 110.481 140.926C109.693 140.926 109.688 140.996 108.896 140.996C108.104 140.996 108.104 140.808 107.311 140.808C106.519 140.808 106.519 141.017 105.731 141.017C104.943 141.017 104.938 140.882 104.15 140.882C103.362 140.882 103.358 140.9 102.566 140.9C101.773 140.9 101.773 140.935 100.981 140.935C100.189 140.935 100.189 140.952 99.3963 140.952C98.6039 140.952 98.6039 140.917 97.8116 140.917C97.0192 140.917 97.0192 140.882 96.2268 140.882C95.4345 140.882 95.4345 140.93 94.6421 140.93C93.8498 140.93 93.8498 140.965 93.0574 140.965C92.265 140.965 92.265 140.917 91.4727 140.917C90.6803 140.917 90.6803 140.795 89.8879 140.795C89.0956 140.795 89.0956 140.839 88.3032 140.839C87.5109 140.839 87.5109 140.822 86.7185 140.822C85.9261 140.822 85.9261 140.93 85.1338 140.93C84.3414 140.93 84.3414 140.843 83.549 140.843C82.7567 140.843 82.7567 140.9 81.9643 140.9C81.172 140.9 81.172 140.813 80.3796 140.813C79.5872 140.813 79.5872 140.8 78.7949 140.8C78.0025 140.8 78.0025 140.808 77.2101 140.808C76.4178 140.808 76.4178 140.835 75.6298 140.835C74.8418 140.835 74.8374 140.795 74.045 140.795C73.2527 140.795 73.2527 140.965 72.4603 140.965C71.668 140.965 71.668 140.848 70.8756 140.848C70.0832 140.848 70.0832 140.865 69.2909 140.865C68.4985 140.865 68.4985 140.865 67.7061 140.865C66.9138 140.865 66.9138 140.869 66.1214 140.869C65.3291 140.869 65.3291 141.009 64.5367 141.009C63.7443 141.009 63.7443 140.987 62.952 140.987C62.1596 140.987 62.1596 140.8 61.3672 140.8C60.5749 140.8 60.5749 140.843 59.7825 140.843C58.9902 140.843 58.9902 140.922 58.1978 140.922C57.4054 140.922 57.4054 140.869 56.6087 140.869C55.812 140.869 55.8164 140.974 55.0414 140.8C54.9239 140.425 54.8716 140.112 54.7889 139.724C54.7062 139.337 54.6888 138.936 54.6191 138.549C54.5364 138.074 54.3622 137.613 54.2839 137.138C54.2055 136.664 54.0009 136.207 53.9269 135.728C53.8529 135.253 53.8267 134.766 53.7527 134.291C53.6787 133.817 53.6831 133.307 53.6134 132.828C53.091 132.928 52.5598 133.089 52.0287 133.172C51.5019 133.255 50.9577 133.211 50.4309 133.277C49.8998 133.338 49.386 133.56 48.8549 133.603C48.3237 133.647 47.7795 133.503 47.2484 133.525C46.7129 133.547 46.1817 133.751 45.6506 133.747C45.1151 133.747 44.5796 133.682 44.0485 133.651C43.513 133.625 42.9862 133.507 42.4594 133.451C41.9282 133.399 41.3927 133.359 40.866 133.281C40.3392 133.198 39.7993 133.168 39.2769 133.055C38.7544 132.941 38.2668 132.68 37.7575 132.537C37.2437 132.393 36.7518 132.193 36.2467 132.018C35.7417 131.844 35.2498 131.653 34.7622 131.448C34.2702 131.239 33.7782 131.048 33.3037 130.804C32.8291 130.56 32.3677 130.303 31.9149 130.024C31.4621 129.75 30.9527 129.55 30.5217 129.236C30.0907 128.927 29.6336 128.636 29.2243 128.287C28.8107 127.939 28.4711 127.508 28.088 127.129C27.7049 126.751 27.3566 126.337 27.004 125.932C26.6513 125.527 26.3858 125.053 26.0592 124.622C25.7327 124.195 25.3975 123.777 25.0971 123.329C24.7967 122.885 24.3526 122.523 24.0783 122.062C23.804 121.6 23.656 121.06 23.4035 120.586C23.1466 120.111 22.8898 119.641 22.6503 119.158C22.4152 118.675 22.1018 118.226 21.8797 117.734C21.6577 117.242 21.5401 116.707 21.3312 116.21C21.1222 115.714 20.935 115.209 20.7391 114.708C20.5388 114.208 20.2341 113.746 20.0469 113.246C19.8553 112.741 19.7029 112.222 19.5157 111.717C19.3416 111.243 19.2545 110.738 19.0847 110.263C18.9149 109.789 18.7277 109.319 18.5579 108.844C18.3881 108.369 18.1878 107.904 18.0181 107.425C17.8483 106.95 17.7046 106.463 17.5392 105.988C17.3737 105.509 17.2605 105.017 17.0994 104.538C16.9384 104.059 16.6989 103.607 16.5335 103.128C16.3724 102.649 16.0937 102.209 15.9327 101.73C15.7716 101.251 15.7977 100.711 15.641 100.228C15.4842 99.7493 15.3188 99.2704 15.1621 98.7915C15.0053 98.3126 14.8443 97.8337 14.6919 97.3504C14.5395 96.8672 14.4307 96.3752 14.2826 95.892C14.1303 95.4087 13.93 94.9429 13.782 94.4596C13.6339 93.9764 13.3379 93.5366 13.1942 93.0534C13.0462 92.5701 12.9852 92.0608 12.8416 91.5775C12.6979 91.0942 12.6239 90.6415 12.4802 90.1539C12.9722 90.0233 13.3771 89.762 13.869 89.6227C14.3566 89.4878 14.8617 89.392 15.3493 89.2483C15.8369 89.109 16.3332 88.9914 16.8252 88.8478C17.3128 88.7041 17.796 88.5474 18.2836 88.4037C18.7712 88.26 19.285 88.2078 19.7769 88.0598C20.2645 87.9161 20.713 87.6418 21.2049 87.4938C21.6925 87.3501 22.215 87.3109 22.7026 87.1673C23.1902 87.0236 23.6517 86.7841 24.1393 86.6405C24.6269 86.4968 25.1145 86.3401 25.6021 86.2008C26.0941 86.0614 26.5904 85.9395 27.078 85.8089C27.5699 85.674 28.0532 85.5042 28.5452 85.3779C29.0415 85.2517 29.5639 85.2517 30.0602 85.1341C30.5565 85.0122 31.0311 84.7989 31.5274 84.6857C32.0237 84.5725 32.5287 84.4898 33.0294 84.3853C33.5301 84.2808 34.0438 84.2503 34.5445 84.1589C35.0451 84.0675 35.5545 83.963 36.0595 83.8846L36.0508 83.8716Z" fill="#6B8EBF"/>
<path d="M95.1383 2.87203C95.6347 3.04618 96.0961 3.33787 96.575 3.56426C97.0539 3.7863 97.5677 3.96044 98.0248 4.22602C98.4819 4.49159 98.8259 4.93566 99.2569 5.24477C99.6879 5.55823 100.093 5.88475 100.485 6.2374C100.881 6.5944 101.377 6.84255 101.73 7.23873C102.082 7.63492 102.274 8.16171 102.57 8.59707C102.866 9.03243 103.188 9.45474 103.423 9.92928C103.658 10.3995 103.937 10.861 104.102 11.3703C104.268 11.8754 104.255 12.45 104.42 12.9551C104.586 13.4688 104.947 13.8824 105.252 14.3308C105.535 14.7444 105.883 15.0579 106.262 15.3844C106.636 15.7066 106.985 16.0723 107.355 16.3988C107.707 16.7166 108.06 17.0431 108.365 17.4088C108.669 17.7745 108.831 18.2404 109.079 18.6453C109.327 19.0502 109.584 19.442 109.771 19.8774C109.958 20.3127 110.145 20.7524 110.267 21.2096C110.389 21.6667 110.494 22.1325 110.546 22.6071C110.602 23.1034 110.62 23.5997 110.602 24.0873C110.585 24.5836 110.415 25.0582 110.337 25.5414C110.259 26.029 110.363 26.5558 110.232 27.0304C110.102 27.5049 109.897 27.9664 109.727 28.4279C109.558 28.8894 109.209 29.2812 109.013 29.734C108.817 30.1868 108.691 30.67 108.478 31.1141C108.265 31.5625 108.016 31.9892 107.799 32.4289C107.564 32.8991 107.376 33.378 107.15 33.8351C106.919 34.3053 106.597 34.7189 106.371 35.176C106.14 35.6419 105.988 36.1426 105.748 36.591C105.504 37.0525 105.343 37.5488 105.086 37.9928C104.825 38.4413 104.403 38.7809 104.116 39.2075C103.828 39.6342 103.654 40.1435 103.332 40.5441C103.014 40.9446 102.622 41.2842 102.261 41.6586C101.908 42.0243 101.508 42.3378 101.107 42.673C100.724 42.9952 100.406 43.4305 99.9709 43.7266C99.5573 44.0096 99.074 44.2055 98.6082 44.4667C98.1293 44.7323 97.646 45.0283 97.1236 45.2199C96.6012 45.4114 96.0308 45.4158 95.4866 45.5203C94.9381 45.6248 94.4026 45.8163 93.8497 45.812C93.2924 45.812 92.7177 45.7946 92.1822 45.6683C91.6467 45.5464 91.133 45.2895 90.6367 45.0283C90.197 44.7976 89.8051 44.4928 89.4264 44.1794C89.0476 43.8659 88.6166 43.596 88.2857 43.2216C87.9592 42.8559 87.7546 42.3813 87.4629 41.9808C87.1712 41.5802 86.9622 41.1275 86.6923 40.7182C86.3962 40.2785 86.0741 39.8562 85.7911 39.4121C85.5037 38.9681 85.1946 38.5371 84.916 38.0886C84.6374 37.6402 84.3849 37.1744 84.1149 36.7172C83.845 36.2601 83.4401 35.8813 83.1832 35.4198C82.922 34.9584 82.7 34.4751 82.4518 34.0049C82.2037 33.5391 82.1166 32.9862 81.8815 32.5116C81.6464 32.0371 81.4113 31.5669 81.1893 31.0836C80.9672 30.6047 80.7234 30.1345 80.5145 29.6469C80.3055 29.1593 79.9833 28.7196 79.7918 28.2276C79.6002 27.7357 79.5001 27.2045 79.3259 26.7082C79.1518 26.2075 78.9515 25.7156 78.7948 25.2106C78.638 24.7055 78.4813 24.2005 78.342 23.6868C78.207 23.1905 78.0982 22.655 77.9719 22.0977C77.8544 21.5883 77.7238 21.0572 77.6149 20.5043C77.5148 19.9818 77.3102 19.4638 77.2231 18.9152C77.1404 18.3841 77.1709 17.8268 77.1056 17.2826C77.0403 16.7471 77.0272 16.1985 76.9837 15.6543C76.9401 15.1101 76.9445 14.5703 76.9271 14.0261C76.914 13.4775 76.8748 12.9376 76.8879 12.3934C76.9053 11.8449 76.914 11.3007 76.9706 10.7652C77.0272 10.2166 77.1491 9.68548 77.2536 9.15869C77.3581 8.61448 77.4016 8.06157 77.5583 7.5522C77.7238 7.02105 78.0111 6.55086 78.2375 6.06761C78.4726 5.56694 78.6511 5.0445 78.9646 4.60478C79.2737 4.16942 79.5958 3.73405 79.9877 3.39882C80.3839 3.06359 80.9019 2.88074 81.3678 2.64129C81.8249 2.40619 82.2951 2.19287 82.8045 2.03613C83.2921 1.88376 83.7884 1.68784 84.3152 1.60512C84.8246 1.52241 85.3557 1.5703 85.8825 1.54417C86.4006 1.51805 86.923 1.44839 87.4455 1.46145C87.9679 1.47887 88.4773 1.64431 88.9954 1.7009C89.5178 1.75315 90.062 1.6356 90.5714 1.71832C91.0982 1.80539 91.5988 1.99695 92.0951 2.11015C92.6219 2.22769 93.1183 2.40619 93.5972 2.54116C94.1283 2.69353 94.6769 2.7066 95.134 2.86768L95.1383 2.87203Z" fill="#97928C"/>
<path d="M89.2392 63.5922C89.4873 63.5313 89.7572 63.5618 90.001 63.4921C90.4059 63.3789 90.9153 63.2396 91.1199 62.8739C91.2593 62.6127 91.1199 62.26 91.1112 61.9683C91.0895 61.4807 91.1983 60.9888 91.1852 60.5012C91.1722 60.0135 91.1722 59.5259 91.1635 59.0427C91.1548 58.5551 90.9676 58.0675 90.9676 57.5842C90.9676 57.0966 90.9458 56.609 90.9501 56.1214C90.9589 55.6338 91.0416 55.1462 91.0546 54.6586C91.072 54.1492 91.1417 53.5658 91.2244 52.9563C91.2984 52.4077 91.5292 51.8548 91.6032 51.2845C91.6816 50.7055 91.699 50.1177 91.7207 49.5735C91.7469 48.9553 91.6859 48.3676 91.564 47.8712C91.3376 46.9352 91.1461 46.674 90.776 46.5129C90.4625 46.3736 90.0011 46.3997 89.1347 46.317C88.5034 46.256 87.8852 46.0601 87.2539 46.021C86.6226 45.9818 85.987 45.8642 85.3557 45.8425C84.8594 45.825 84.3544 46.0122 83.8494 46.0166C83.3487 46.0166 82.8393 45.8686 82.3386 45.899C81.838 45.9295 81.333 46.0122 80.841 46.0819C80.3403 46.1516 79.8614 46.3388 79.3825 46.4563C78.8906 46.5739 78.3986 46.6784 77.9328 46.8525C77.4582 47.031 77.0098 47.253 76.5788 47.4968C76.1434 47.745 75.7385 48.0367 75.3598 48.3632C74.9853 48.6854 74.5456 48.9684 74.2365 49.3776C73.9448 49.7651 73.8186 50.2745 73.5922 50.7447C73.3876 51.1757 73.1438 51.6154 73.0044 52.1204C72.8608 52.6298 72.6823 53.1479 72.6213 53.6834C72.5604 54.2101 72.5255 54.7544 72.5212 55.2942C72.5125 55.8253 72.5604 56.3652 72.5821 56.9007C72.6083 57.4362 72.7084 57.9673 72.7432 58.4985C72.778 59.0427 72.8956 59.5738 72.9174 60.0963C72.9478 60.7624 73.0697 61.2761 73.2395 61.7332C73.4529 62.3166 73.6618 62.8042 74.1103 63.1395C74.5195 63.4442 75.0115 63.749 75.6297 63.9275C76.1173 64.0668 76.6963 64.0973 77.3189 64.2017C77.8152 64.2801 78.3159 64.2888 78.8166 64.3454C79.3129 64.402 79.8005 64.5979 80.3011 64.6241C80.8018 64.6545 81.3068 64.5065 81.8119 64.5109C82.3125 64.5109 82.8132 64.537 83.3139 64.5152C83.8145 64.4934 84.3152 64.4586 84.8115 64.4107C85.3122 64.3628 85.8129 64.3324 86.3048 64.2627C86.8011 64.1887 87.28 64.0407 87.772 63.9405C88.2639 63.8448 88.7472 63.7316 89.2348 63.6097L89.2392 63.5922Z" fill="#EBBEA7"/>
<path d="M51.9546 35.8813C52.1636 36.247 52.3464 36.7564 52.7382 37.1787C53.0517 37.5183 53.4653 37.8361 53.8702 38.1844C54.2359 38.4979 54.7322 38.6851 55.1545 38.9811C55.5594 39.2685 55.973 39.5384 56.4084 39.7953C56.8437 40.0521 57.2747 40.2959 57.7275 40.5049C58.1934 40.7182 58.6331 40.9664 59.0989 41.1101C59.5996 41.2624 60.0828 41.4801 60.5574 41.5237C61.0842 41.5715 61.5848 41.4105 62.0507 41.2973C62.5426 41.1797 62.9475 40.9446 63.335 40.605C63.6833 40.3046 64.049 39.9738 64.2841 39.4687C64.4539 39.1074 64.5192 38.7156 64.5845 38.3194C64.6498 37.9276 64.8283 37.5401 64.8457 37.1439C64.8675 36.6563 64.8327 36.1077 64.8065 35.533C64.7848 35.0237 64.6019 34.4969 64.541 33.944C64.4844 33.4259 64.4017 32.8991 64.3059 32.3636C64.2144 31.8412 64.1361 31.3144 64.0098 30.7919C63.8836 30.2739 63.7181 29.7645 63.5527 29.2595C63.3829 28.7457 63.261 28.2233 63.052 27.7357C62.8343 27.235 62.5775 26.7648 62.3119 26.312C62.0333 25.8418 61.7242 25.4065 61.3889 25.0059C61.0363 24.588 60.7098 24.1396 60.2918 23.8261C59.8652 23.5039 59.3297 23.3559 58.829 23.1644C58.3936 22.9989 57.9583 22.7856 57.5011 22.7812C57.044 22.7769 56.5825 22.9031 56.1341 23.0294C55.6944 23.1513 55.2851 23.3733 54.8759 23.5954C54.471 23.8174 54.0574 24.0394 53.7135 24.3311C53.3086 24.6751 52.9777 25.0887 52.6512 25.4979C52.3247 25.9115 52.0591 26.3599 51.8109 26.8258C51.5671 27.2916 51.3015 27.7487 51.1405 28.2538C50.9794 28.7544 50.7878 29.2638 50.7095 29.7862C50.6311 30.3043 50.7922 30.8485 50.7965 31.3753C50.8009 31.9021 50.6964 32.442 50.7878 32.96C50.8792 33.4781 51.0839 33.9744 51.258 34.4708C51.4322 34.9671 51.6847 35.4286 51.9459 35.8857L51.9546 35.8813Z" fill="#EBBEA7"/>
<path d="M101.634 14.8403C101.416 14.3744 101.164 13.9347 100.911 13.4906C100.659 13.0422 100.458 12.572 100.167 12.1453C99.8751 11.7187 99.6226 11.2703 99.3004 10.8697C98.9739 10.4692 98.5777 10.1383 98.2207 9.77261C97.8637 9.40691 97.485 9.06297 97.0931 8.72774C96.7013 8.39686 96.353 8.00939 95.9307 7.71334C95.5128 7.426 95.0774 7.15608 94.642 6.89921C94.2067 6.64235 93.706 6.49868 93.2532 6.26793C92.8004 6.04154 92.413 5.66278 91.9471 5.46251C91.4813 5.26224 90.9937 5.0968 90.5148 4.92701C90.0359 4.75722 89.557 4.57001 89.0694 4.4307C88.5818 4.29138 88.0332 4.38281 87.5369 4.27397C87.0406 4.16513 86.566 3.9605 86.0654 3.87778C85.5647 3.79507 85.0553 3.79507 84.5503 3.73847C84.0453 3.68187 83.5446 3.61657 83.0396 3.59044C82.5346 3.56432 82.0295 3.38147 81.5202 3.38147C81.0108 3.38147 80.5014 3.44242 79.992 3.46854C79.4827 3.49466 78.9733 3.5382 78.4683 3.59044C77.9632 3.64269 77.4756 3.83425 76.975 3.91261C76.4743 3.99098 75.9867 4.12594 75.4904 4.23043C74.9941 4.33492 74.476 4.35233 73.9884 4.48294C73.4964 4.6179 73.0132 4.77028 72.5343 4.93137C72.0205 5.10116 71.5503 5.37544 71.0627 5.5757C70.5577 5.78033 70.0048 5.84128 69.5302 6.07202C69.0426 6.31147 68.5463 6.53351 68.0892 6.79908C67.6233 7.07336 67.188 7.39553 66.7483 7.69593C66.3042 8.00068 65.9472 8.41863 65.538 8.75386C65.12 9.09345 64.763 9.48963 64.3799 9.85969C63.9924 10.2341 63.6093 10.5955 63.2566 10.996C62.904 11.4009 62.486 11.7492 62.1726 12.1802C61.8548 12.6112 61.6589 13.1206 61.3759 13.5777C61.0972 14.0305 60.7533 14.4484 60.5095 14.9273C60.2701 15.4019 60.0915 15.9069 59.8826 16.4032C59.678 16.8952 59.5082 17.3958 59.3384 17.9096C59.1729 18.4146 59.0206 18.924 58.8899 19.4464C58.7593 19.9601 58.6287 20.4739 58.5286 21.005C58.4328 21.5231 58.2979 22.0455 58.2325 22.581C58.1672 23.1078 58.0889 23.639 58.0497 24.1788C58.0105 24.7491 58.0715 25.3238 58.0497 25.8941C58.0323 26.4645 57.9278 27.0348 57.9234 27.6051C57.9191 28.1754 57.9626 28.7501 57.967 29.3205C57.967 29.8908 57.906 30.4655 57.9147 31.0358C57.9191 31.6061 58.0236 32.1764 58.0236 32.7468C58.0236 33.2431 57.8886 33.7525 57.8581 34.2749C57.8277 34.7799 57.8581 35.298 57.819 35.8117C57.7798 36.3211 57.8233 36.8392 57.8015 37.3486C57.7754 37.8666 57.5708 38.3804 57.5882 38.8854C57.6056 39.4078 57.6753 39.9346 57.7624 40.4266C57.8494 40.9186 58.041 41.4192 58.2108 41.9286C58.3719 42.4075 58.5417 42.9082 58.7637 43.3871C58.977 43.8529 59.2513 44.3057 59.5082 44.7585C59.765 45.2069 60.0698 45.6335 60.3615 46.0646C60.6575 46.4956 60.9318 46.944 61.254 47.3445C61.5848 47.7581 61.9375 48.1499 62.2858 48.5157C62.6558 48.9075 62.9998 49.3124 63.3742 49.6345C63.766 49.9741 64.271 50.17 64.689 50.4704C65.1113 50.7708 65.4596 51.1888 65.9037 51.45C66.3521 51.7112 66.9006 51.7765 67.3665 51.9986C67.8323 52.2206 68.272 52.4992 68.7553 52.6821C69.2385 52.8649 69.7523 52.9346 70.2529 53.0783C70.7493 53.2219 71.2151 53.4745 71.7201 53.5833C72.2251 53.6921 72.7258 53.8358 73.2395 53.9098C73.7489 53.9882 74.2714 54.0143 74.7851 54.0578C75.2988 54.1014 75.8169 54.171 76.3306 54.1841C76.8487 54.2015 77.3624 54.0753 77.8805 54.0665C78.3986 54.0535 78.9254 54.2102 79.4391 54.171C79.9572 54.1319 80.4666 54.0143 80.9803 53.949C81.494 53.8837 82.0078 53.8053 82.5172 53.7139C83.0309 53.6225 83.5403 53.5398 84.0409 53.4266C84.5503 53.309 85.0118 53.026 85.5037 52.8911C85.9609 52.7648 86.405 52.6037 86.8577 52.4557C87.354 52.2903 87.846 52.1335 88.3206 51.9289C88.8038 51.7243 89.2914 51.5545 89.7529 51.3107C90.2144 51.0669 90.7368 50.9232 91.1765 50.6402C91.6163 50.3616 92.0516 50.0612 92.4696 49.7477C92.8875 49.4386 93.2402 49.0381 93.6363 48.6942C94.0282 48.3546 94.3286 47.9105 94.6986 47.5448C95.0687 47.1791 95.4736 46.8526 95.8219 46.4607C96.1658 46.0733 96.4836 45.6597 96.8058 45.2504C97.128 44.8412 97.5241 44.4885 97.8245 44.0575C98.1206 43.6309 98.4602 43.226 98.7388 42.7819C99.0131 42.3422 99.2656 41.8764 99.5181 41.4192C99.7706 40.9621 99.8795 40.4309 100.11 39.9651C100.341 39.4993 100.55 39.0247 100.759 38.5458C100.968 38.0669 101.142 37.5793 101.329 37.0917C101.516 36.6041 101.76 36.1383 101.926 35.6463C102.091 35.15 102.331 34.6754 102.474 34.1748C102.618 33.6741 102.788 33.1734 102.91 32.6684C103.032 32.159 102.975 31.6148 103.075 31.1011C103.175 30.5874 103.245 30.0736 103.323 29.5599C103.402 29.0418 103.645 28.5455 103.698 28.0318C103.75 27.5093 103.68 26.9782 103.711 26.4601C103.741 25.9377 103.671 25.4152 103.676 24.8972C103.68 24.3704 103.706 23.8523 103.685 23.3386C103.663 22.8118 103.593 22.298 103.541 21.7843C103.493 21.3054 103.428 20.8309 103.349 20.352C103.271 19.8731 103.214 19.3985 103.106 18.924C102.997 18.4538 102.901 17.9792 102.757 17.5177C102.614 17.0563 102.518 16.5774 102.344 16.1246C102.169 15.6718 101.856 15.28 101.651 14.8446L101.634 14.8403Z" fill="#EBBEA7"/>
<path d="M81.2692 38.631C81.7046 39.0848 82.1061 39.6122 82.478 40.1179C82.85 40.6236 83.1839 41.1553 83.3994 41.7475C83.615 42.3396 83.7925 42.9232 83.9573 43.524C84.1433 44.1983 84.2194 44.8294 84.2194 45.5296C84.2194 46.0872 83.374 46.0872 83.374 45.5296C83.374 45.2141 83.3783 44.8942 83.3402 44.5787C83.3064 44.2977 83.2177 44.0254 83.1416 43.7531C82.981 43.1825 82.8077 42.6293 82.6133 42.0673C82.4188 41.5054 82.1019 41.0429 81.7722 40.5934C81.4425 40.1438 81.0663 39.6511 80.669 39.2404C80.2717 38.8298 80.8846 38.2333 81.265 38.631H81.2692Z" fill="#BC7F6C"/>
<path d="M70.627 39.8849C70.441 40.2393 70.3269 40.624 70.1874 41.0001C70.0479 41.3761 69.9465 41.7349 69.8831 42.1282C69.8155 42.5475 69.8281 42.9106 69.9084 43.3256C69.9888 43.7621 70.031 44.203 70.1494 44.6309C70.2973 45.1669 69.4816 45.396 69.3336 44.86C69.2068 44.3975 69.1646 43.9264 69.0758 43.4596C68.9786 42.9495 68.9786 42.5043 69.0547 41.9899C69.1223 41.5317 69.2449 41.1168 69.4055 40.6845C69.5661 40.2523 69.6887 39.8417 69.9 39.4483C70.1578 38.9599 70.889 39.3965 70.6312 39.8849H70.627Z" fill="#BC7F6C"/>
<path d="M106.066 45.9643C105.739 46.2299 105.308 46.539 104.79 46.7915C104.372 46.9961 103.837 47.0266 103.332 47.2051C102.875 47.3662 102.431 47.6274 101.93 47.758C101.451 47.8843 100.959 48.028 100.463 48.115C99.9664 48.1978 99.444 48.1107 98.952 48.1412C98.4383 48.176 97.9463 48.1412 97.4587 48.1107C96.9363 48.0758 96.4182 48.1455 95.9567 48.0149C95.4473 47.8712 94.9858 47.6492 94.5897 47.3749C94.1717 47.0876 93.7886 46.7393 93.5448 46.2865C93.3271 45.8816 93.1747 45.3766 93.1355 44.8193C93.1094 44.4231 93.2618 44.0313 93.3358 43.6395C93.4142 43.252 93.4272 42.8428 93.5535 42.464C93.7059 42.0025 94.0498 41.5541 94.2762 41.0273C94.4765 40.5615 94.5244 39.9868 94.7769 39.4905C95.0163 39.029 95.2732 38.5457 95.5518 38.0799C95.8217 37.6271 96.1221 37.1743 96.4312 36.7303C96.736 36.2905 97.1278 35.9074 97.4631 35.4938C97.8026 35.0759 98.164 34.6797 98.5384 34.3009C98.9215 33.9135 99.2655 33.4825 99.6747 33.1603C100.106 32.8207 100.663 32.6944 101.12 32.4419C101.599 32.1764 102.026 31.8368 102.531 31.6931C103.044 31.5451 103.58 31.4449 104.12 31.4449C104.586 31.4449 105.034 31.5886 105.465 31.7453C105.892 31.9021 106.366 32.0283 106.741 32.307C107.106 32.5769 107.35 33.0079 107.651 33.3605C107.951 33.7132 108.147 34.1268 108.365 34.523C108.621 34.9888 108.852 35.4416 109.009 35.9423C109.166 36.4429 109.453 36.9262 109.518 37.4486C109.579 37.9711 109.492 38.5109 109.466 39.0377C109.436 39.5601 109.24 40.0608 109.122 40.5745C109.009 41.0883 109.018 41.6368 108.822 42.1288C108.626 42.6164 108.238 43.0082 107.968 43.461C107.698 43.9138 107.524 44.4275 107.18 44.828C106.841 45.2286 106.471 45.6204 106.066 45.9556V45.9643Z" fill="#EBBEA7"/>
<path d="M96.0221 31.7193C96.4053 32.0023 96.8755 32.1459 97.276 32.381C97.6939 32.6248 98.0988 32.8382 98.5298 32.9905C98.9826 33.1516 99.418 33.2561 99.8838 33.2779C100.341 33.2996 100.829 33.3954 101.299 33.243C101.712 33.1124 102.069 32.7728 102.496 32.4812C102.918 32.1895 103.258 31.8325 103.576 31.4319C103.885 31.0401 104.281 30.6831 104.507 30.2129C104.725 29.7601 104.769 29.2246 104.917 28.7327C105.065 28.2451 105.287 27.7749 105.382 27.2742C105.478 26.7648 105.626 26.2642 105.687 25.7678C105.748 25.2367 105.613 24.7056 105.644 24.2267C105.679 23.6912 105.874 23.1557 105.87 22.6202C105.861 22.0847 105.753 21.5448 105.705 21.0093C105.657 20.4738 105.522 19.9514 105.43 19.4202C105.343 18.8891 105.291 18.3536 105.165 17.8312C105.039 17.3087 104.764 16.8342 104.599 16.3204C104.433 15.8111 104.311 15.2886 104.111 14.7923C103.907 14.296 103.75 13.7779 103.506 13.299C103.267 12.8201 102.905 12.4065 102.627 11.9494C102.348 11.4923 102.143 10.9829 101.83 10.5475C101.516 10.1122 101.164 9.70291 100.82 9.29367C100.489 8.90184 100.184 8.49695 99.8446 8.1356C99.4963 7.76119 99.1611 7.38242 98.7998 7.03848C98.4297 6.68584 98.0858 6.31142 97.7026 5.98925C97.3152 5.66273 96.8102 5.48859 96.4009 5.20125C95.9917 4.90955 95.6129 4.56561 95.1775 4.30875C94.7465 4.05624 94.2459 3.92998 93.7844 3.71665C93.3359 3.50768 92.9136 3.21163 92.4347 3.03749C91.9689 2.87205 91.4595 2.83287 90.9589 2.70226C90.4756 2.576 90.0054 2.37573 89.5178 2.25818C89.0302 2.14064 88.5687 1.89683 88.0767 1.79235C87.5848 1.6835 87.058 1.75316 86.566 1.66174C86.0741 1.57031 85.5734 1.51807 85.0771 1.4397C84.5808 1.36569 84.1062 1.12624 83.6056 1.06964C83.1049 1.01304 82.5912 1.14365 82.0905 1.10882C81.5898 1.07399 81.0935 1.03917 80.5885 1.03481C80.0878 1.0261 79.5872 0.969507 79.0821 0.991276C78.5815 1.01304 78.0851 1.08706 77.5845 1.1393C77.0882 1.19154 76.5962 1.28732 76.0999 1.3744C75.6079 1.46147 75.0855 1.43099 74.5979 1.5529C74.1059 1.67915 73.5965 1.77493 73.1133 1.93166C72.63 2.08839 72.1555 2.28866 71.6809 2.46716C71.2064 2.64566 70.8015 3.00701 70.327 3.19857C69.8568 3.39013 69.3953 3.60781 68.9251 3.80373C68.4549 3.99964 67.915 4.02576 67.4448 4.21297C66.9442 4.41324 66.5001 4.7267 66.0125 4.89649C65.5031 5.07064 64.9763 5.15771 64.4844 5.31444C63.975 5.47988 63.4482 5.5626 62.9562 5.73674C62.4556 5.91089 61.9723 6.13293 61.4891 6.33755C61.0058 6.54652 60.5574 6.82951 60.0959 7.09073C59.6431 7.34759 59.1642 7.57833 58.7419 7.90921C58.3414 8.22267 58.054 8.6798 57.6753 9.08034C57.3313 9.44604 56.8699 9.74209 56.5477 10.1949C56.2386 10.6259 56.1167 11.1701 55.8555 11.6316C55.5942 12.0931 55.2068 12.4849 54.9978 12.9725C54.7888 13.4557 54.6539 13.9738 54.4884 14.4789C54.3273 14.9795 54.2707 15.5107 54.1532 16.0244C54.0356 16.5381 53.9486 17.0519 53.8745 17.5786C53.8005 18.1011 53.6003 18.6105 53.5698 19.1372C53.535 19.664 53.6525 20.1952 53.6569 20.722C53.6656 21.2705 53.5698 21.8496 53.6569 22.4025C53.7526 22.9641 54.04 23.4604 54.2707 23.9567C54.5102 24.4661 54.7888 24.9145 55.2329 25.2759C55.7205 25.6721 56.2603 25.9681 56.8786 26.0813C57.4837 26.1945 58.1324 26.1858 58.7376 26.077C59.3514 25.9638 59.9435 25.7635 60.5139 25.5153C61.0842 25.2672 61.6414 24.9798 62.1813 24.6838C62.6471 24.4269 63.1304 24.1918 63.5919 23.9263C64.0534 23.6563 64.4844 23.3385 64.9415 23.0555C65.3986 22.7725 65.7992 22.4155 66.2476 22.1238C66.696 21.8322 67.1662 21.5796 67.6059 21.2792C68.0457 20.9788 68.4592 20.6393 68.8946 20.3301C69.33 20.021 69.7697 19.7163 70.1964 19.3985C70.623 19.0763 71.1367 18.8717 71.559 18.5408C71.977 18.2099 72.3819 17.8573 72.7911 17.5133C73.2004 17.1694 73.4746 16.6731 73.8795 16.3204C74.4237 15.8459 75.2596 15.4192 75.8866 15.7762C76.1347 15.9199 76.2087 16.229 76.3611 16.4728C76.6354 16.8995 77.0751 17.2129 77.3668 17.6265C77.6585 18.0401 77.8892 18.4973 78.1983 18.8978C78.5075 19.2983 78.8601 19.664 79.1866 20.0515C79.5131 20.439 79.8876 20.7786 80.2315 21.153C80.5754 21.523 80.8889 21.9236 81.2502 22.2806C81.6116 22.6376 81.8946 23.0729 82.269 23.4125C82.6434 23.7521 83.131 23.9654 83.5185 24.2876C83.906 24.6141 84.3152 24.9102 84.7157 25.2193C85.1206 25.5284 85.4471 25.9289 85.8651 26.2206C86.2787 26.5123 86.701 26.7953 87.132 27.0652C87.5587 27.3352 87.9548 27.666 88.3946 27.9229C88.8648 28.1928 89.4394 28.2755 89.9401 28.5063C90.4321 28.7327 90.8936 29.0461 91.3986 29.2595C91.9036 29.4684 92.3999 29.6992 92.8962 29.9212C93.3969 30.1432 93.915 30.3261 94.3895 30.5873C94.8728 30.8529 95.3386 31.1359 95.7696 31.4668C95.861 31.5364 95.9177 31.654 96.0134 31.7236L96.0221 31.7193Z" fill="#97928C"/>
<path d="M75.1463 29.6904C75.0244 30.3783 75.0244 31.0749 74.8546 31.7584C74.6804 32.455 74.3844 33.0558 73.8445 33.5434C73.4179 33.9265 72.7474 34.2139 72.6647 34.8539C72.595 35.3807 72.9215 35.8247 73.3656 36.0598C74.1057 36.456 73.4483 37.5836 72.7082 37.1874C71.2585 36.4125 70.9015 34.4533 72.0944 33.2778C72.6211 32.7598 73.2611 32.4985 73.5006 31.7497C73.7531 30.9617 73.7487 30.1519 73.8881 29.3465C73.949 28.9982 74.3757 28.8023 74.6935 28.8894C75.0592 28.9895 75.2116 29.3422 75.1506 29.6948L75.1463 29.6904Z" fill="#A55535"/>
<path d="M80.7061 27.2786C81.3069 27.2307 81.8946 27.161 82.4954 27.2133C83.1049 27.2699 83.7275 27.3352 84.3196 27.505C84.8769 27.6661 85.3906 27.9403 85.9261 28.1667C86.4442 28.3844 86.9753 28.5673 87.4542 28.8633C88.1682 29.3074 87.5108 30.435 86.7968 29.9909C86.3484 29.7123 85.8521 29.5425 85.3732 29.3378C84.9117 29.1419 84.4633 28.9025 83.9756 28.7675C82.8916 28.4584 81.8162 28.502 80.7104 28.589C80.3578 28.6151 80.0574 28.2669 80.0574 27.936C80.0574 27.5616 80.3578 27.3091 80.7104 27.2829L80.7061 27.2786Z" fill="#2B2927"/>
<path d="M70.9322 27.0217C70.1965 26.7517 69.4738 26.6864 68.7206 26.8998C67.9369 27.1218 67.1881 27.383 66.4393 27.6965C66.1128 27.8314 65.7209 27.5484 65.6339 27.2393C65.5294 26.8606 65.7645 26.5732 66.091 26.4339C66.8921 26.0943 67.7018 25.807 68.5464 25.5893C69.4477 25.3542 70.4098 25.4413 71.2805 25.7591C71.6114 25.881 71.8334 26.2032 71.7377 26.5645C71.6506 26.8823 71.2675 27.1436 70.9322 27.0217Z" fill="#2B2927"/>
<path d="M75.5252 44.5713C75.0638 44.2839 74.5021 44.0837 74.1408 43.6701C73.7751 43.2521 73.6445 42.6774 73.4399 42.1768C73.2265 41.663 72.9218 41.1537 72.9392 40.6095C72.9392 40.4963 72.9871 40.3134 73.0829 40.2263C73.1961 40.1218 73.4486 40.1915 73.6271 40.1697C74.119 40.1131 74.611 40.0652 75.1073 40.0522C75.6036 40.0348 76.0956 39.9085 76.5919 39.9085C77.0316 39.9085 77.5584 39.8258 78.0895 39.7953C78.6207 39.7648 79.1301 39.9433 79.535 40.1915C80.0313 40.4919 80.1706 41.1058 80.2315 41.7893C80.2925 42.4554 80.4144 43.1825 80.3186 43.657C80.1793 44.3579 79.5611 44.7062 78.9646 44.9762C78.3943 45.2374 77.7543 45.368 77.1013 45.2635C76.5397 45.1721 76.0433 44.8934 75.5296 44.5713H75.5252Z" fill="#AE6243"/>
<path d="M75.1943 45.1372C74.5064 44.7236 73.8011 44.4319 73.3701 43.7092C73.1568 43.3522 73.0349 42.9517 72.8912 42.5642C72.7432 42.168 72.5342 41.798 72.4079 41.3931C72.1598 40.6007 72.2991 39.5254 73.3266 39.508C74.1799 39.4949 75.0637 39.4165 75.9126 39.3033C76.3088 39.2511 76.7006 39.2511 77.0968 39.2163C77.5844 39.1771 78.072 39.0944 78.564 39.1597C79.3259 39.2598 80.1487 39.6212 80.5275 40.3308C80.9019 41.0404 80.9106 41.9373 80.9759 42.721C81.0412 43.5177 80.9541 44.2926 80.3403 44.8673C79.7264 45.4463 78.8208 45.812 77.9937 45.9122C76.9531 46.0428 76.0606 45.664 75.1943 45.1285C74.4803 44.6888 75.1333 43.5568 75.8517 44.0009C76.3523 44.31 76.8748 44.6235 77.4843 44.6366C78.0633 44.6496 78.6206 44.445 79.1169 44.1577C79.5305 43.9138 79.7046 43.6396 79.6959 43.1607C79.6872 42.5555 79.6393 41.8894 79.5 41.3017C79.1996 40.0478 77.5104 40.5224 76.5874 40.5528C75.8908 40.5746 75.1899 40.6791 74.4977 40.7313C74.1929 40.7531 73.8838 40.8053 73.5791 40.8184C73.5225 40.8184 73.431 40.8402 73.3788 40.8184C73.3614 40.8184 73.344 40.8184 73.3266 40.8184C73.4136 40.7531 73.5051 40.6878 73.5921 40.6225C73.566 40.6181 73.6357 40.9447 73.6487 40.9882C73.7532 41.3408 73.9274 41.663 74.0667 42.0026C74.1886 42.2986 74.2713 42.6078 74.415 42.8951C74.711 43.4915 75.3162 43.6831 75.8517 44.0096C76.57 44.4406 75.917 45.5726 75.1943 45.1372Z" fill="#A55535"/>
<path d="M81.7858 33.4825C81.7858 33.9048 81.9512 34.2748 82.2298 34.5535C82.5041 34.8321 82.8698 35.0106 83.2965 35.0106C83.7231 35.0106 84.0932 34.8452 84.3718 34.5709C84.6505 34.2966 84.7158 33.9222 84.7201 33.4999C84.7201 33.0776 84.5895 32.7728 84.3152 32.4942C84.041 32.2156 83.7406 31.9935 83.3139 31.9935C82.8916 31.9935 82.478 32.098 82.1994 32.3723C81.9207 32.6466 81.7945 33.0602 81.7901 33.4825H81.7858Z" fill="#2B2927"/>
<path d="M68.4854 32.0153C68.4854 32.4376 68.6508 32.8077 68.9294 33.0863C69.2037 33.3649 69.5694 33.5434 69.9961 33.5434C70.4184 33.5434 70.7928 33.378 71.0714 33.1037C71.35 32.8294 71.4154 32.455 71.4197 32.0327C71.4241 31.6104 71.2891 31.3057 71.0148 31.027C70.7405 30.7484 70.4401 30.5264 70.0135 30.5264C69.5912 30.5264 69.1776 30.6309 68.899 30.9051C68.6203 31.1794 68.4941 31.593 68.4897 32.0153H68.4854Z" fill="#2B2927"/>
<path d="M55.6335 91.4991C55.111 91.4991 54.5842 91.5731 54.0662 91.5426C53.5481 91.5122 53.0169 91.5209 52.4989 91.4556C51.9808 91.3946 51.4932 91.1073 50.9794 91.0158C50.4657 90.9244 49.9128 91.0158 49.4034 90.8939C48.894 90.772 48.4238 90.5152 47.9232 90.3671C47.4225 90.2191 46.9001 90.132 46.4081 89.9579C45.8813 89.7663 45.3328 89.614 44.8016 89.405C44.2748 89.2004 43.8003 88.8477 43.2648 88.6649C42.7249 88.4777 42.159 88.3862 41.6148 88.26C41.0575 88.1294 40.5046 87.9422 39.943 87.916C39.3813 87.8899 38.8197 88.0423 38.2537 88.1555C37.8097 88.2469 37.37 88.3732 36.9389 88.5256C36.5079 88.6779 36.0726 88.8216 35.6416 88.9479C35.2018 89.0785 34.7621 89.2308 34.305 89.2526C33.7347 89.2787 33.1077 89.1655 32.5244 89.1786C31.8931 89.1917 31.314 89.2918 30.8961 89.7446C30.587 90.0798 30.526 90.5282 30.5609 90.981C30.5913 91.4207 30.7698 91.8213 31.0398 92.1696C31.314 92.5266 31.5796 92.8966 31.9671 93.1317C32.3459 93.3624 32.7812 93.5192 33.1905 93.6933C33.6781 93.9023 34.2092 94.0068 34.7099 94.1983C35.2062 94.3899 35.6938 94.5989 36.1988 94.7687C36.7038 94.9385 37.2089 95.1083 37.7182 95.2563C38.2276 95.4043 38.7414 95.5523 39.2551 95.6829C39.7732 95.8135 40.2651 96.053 40.7876 96.1618C41.31 96.2707 41.8455 96.3186 42.3679 96.41C42.8947 96.4971 43.4172 96.619 43.9439 96.6886C44.4707 96.7539 45.0106 96.7278 45.5417 96.7757C46.0729 96.8236 46.5997 96.9847 47.1308 97.0064C47.662 97.0326 48.2018 96.9586 48.733 96.9629C49.2641 96.9629 49.7996 96.9716 50.3307 96.9542C50.8619 96.9368 51.3974 96.8932 51.9285 96.8541C52.4118 96.8192 52.9124 96.7888 53.387 96.6799C53.8659 96.5711 54.2447 96.2576 54.6539 95.979C55.0501 95.7091 55.4854 95.4217 55.6596 94.9733C55.8381 94.5118 55.899 93.9458 55.677 93.5018" fill="#FFA791"/>
<path d="M25.5452 90.3062C24.8617 90.5065 24.4786 90.6937 24.3175 91.0202C24.1216 91.4207 24.287 91.843 24.6658 92.3611C24.9227 92.7094 25.1578 93.197 25.5888 93.5671C25.9458 93.8718 26.4813 94.0155 26.9123 94.3246C27.3128 94.6076 27.6219 95.056 28.0529 95.3303C28.4796 95.6002 29.0281 95.6742 29.4592 95.9224C29.9119 96.1836 30.2994 96.5319 30.7174 96.7583C31.205 97.0238 31.6142 97.3504 32.006 97.5506C32.6939 97.8989 33.2468 98.0295 33.4123 98.1036C33.9173 98.3256 34.3875 98.6391 34.9099 98.8088C35.4324 98.9786 36.0157 98.9438 36.5469 99.0875C37.0737 99.2268 37.5787 99.4619 38.1142 99.5925C38.6453 99.7231 39.1634 99.9016 39.6946 100.045C40.2214 100.185 40.7743 100.25 41.2967 100.415C41.8104 100.581 42.359 100.642 42.8771 100.816C43.3908 100.99 43.8958 101.182 44.4096 101.351C44.9233 101.521 45.4283 101.713 45.9464 101.878C46.4645 102.044 46.9869 102.179 47.505 102.327C48.0274 102.475 48.4976 102.81 49.0244 102.936C49.5512 103.062 50.0998 103.115 50.6309 103.21C51.1664 103.306 51.7019 103.398 52.2374 103.454C52.7773 103.515 53.3171 103.615 53.857 103.628C54.3968 103.641 54.9454 103.624 55.4896 103.585C56.0251 103.546 56.5519 103.389 57.0917 103.289C57.5837 103.197 58.0582 102.993 58.5502 102.897C59.0421 102.801 59.5472 102.758 60.0391 102.657C60.5311 102.557 61.0405 102.544 61.5324 102.44C62.0244 102.335 62.4902 102.126 62.9822 102.013C63.4741 101.904 64.0009 101.957 64.4885 101.839C65.1895 101.674 65.9427 101.386 66.3606 100.803C66.6088 100.459 66.6784 100.041 66.6697 99.6186C66.6654 99.2094 66.5391 98.8001 66.4259 98.4083C66.291 97.9294 66.2692 97.3983 66.0776 96.9281C65.8904 96.4666 65.6727 96.0007 65.4376 95.548C65.2069 95.1082 64.8107 94.7513 64.5408 94.3202C64.2752 93.8979 64.0488 93.4452 63.7484 93.0316C63.4524 92.6267 63.078 92.2827 62.7514 91.8909C62.4336 91.5034 62.1724 91.0637 61.8285 90.6937C61.4889 90.3236 61.1841 89.91 60.8271 89.5574C60.4701 89.2047 59.9738 88.9914 59.6038 88.6518C59.2293 88.3122 58.9289 87.8856 58.5458 87.5677C58.154 87.2456 57.6969 87.0105 57.3007 86.7014C56.8958 86.3923 56.5562 86.0004 56.1513 85.7131C55.7334 85.417 55.2806 85.1863 54.8626 84.912C54.436 84.629 54.0398 84.3069 53.6175 84.0544C53.1778 83.7888 52.6858 83.6277 52.2548 83.3926C51.5887 83.0269 50.8878 82.6177 50.1302 82.696C49.5991 82.7526 49.216 83.0443 48.9069 83.4144C48.6065 83.767 48.4367 84.2111 48.3365 84.7205C48.2451 85.1863 48.219 85.6696 48.293 86.1615C48.367 86.6535 48.4933 87.128 48.7327 87.5416C49.0288 88.051 49.4424 88.4602 49.8429 88.8913C50.2434 89.3223 50.5438 89.8447 50.9183 90.2888C51.3014 90.7372 51.5974 91.1377 51.8195 91.6906C51.3972 91.9649 51.0445 92.274 50.5308 92.4612C50.0562 92.6354 49.512 92.6354 48.9765 92.7442C48.4759 92.8444 47.9839 93.1186 47.444 93.1665C46.9347 93.2144 46.3948 93.0272 45.8593 93.0359C45.3412 93.0446 44.8101 93.2536 44.2789 93.2275C43.7565 93.2057 43.2297 93.1317 42.7029 93.0838C42.1805 93.0359 41.6755 92.8095 41.153 92.7399C40.6262 92.6702 40.0951 92.6789 39.5814 92.5918C39.0546 92.5048 38.5321 92.4134 38.0271 92.3132C37.496 92.2087 36.991 92.052 36.4946 91.9388C35.9591 91.8169 35.428 91.7734 34.9447 91.6515C34.3962 91.5121 33.9303 91.2204 33.4689 91.0898C32.9638 90.9462 32.3848 91.0202 31.8711 90.8722C31.3617 90.7241 30.8915 90.4237 30.3778 90.3018C29.8553 90.1756 29.3285 90.0798 28.8061 90.0101C28.275 89.9361 27.7438 90.0276 27.217 90.045C26.6902 90.0624 26.1547 90.0101 25.6323 90.1495C25.5975 90.1582 25.5975 90.2931 25.5626 90.3062H25.5452Z" fill="#EBBEA7"/>
<path d="M11.3222 62.1295C11.8751 63.0089 12.4542 63.8709 12.9853 64.7678C13.2248 65.1683 13.4033 65.6037 13.6732 65.9868C13.9388 66.3699 14.2479 66.7226 14.5178 67.097C15.1012 67.9111 15.6149 68.8167 16.2897 69.5611C16.6032 69.9138 16.9733 70.1968 17.2606 70.5755C17.561 70.9717 17.7743 71.4201 18.0791 71.812C18.2968 72.0949 18.1183 72.539 17.844 72.7045C17.5087 72.9047 17.1648 72.748 16.9515 72.4694C16.6685 72.0993 16.4726 71.6639 16.1809 71.2982C15.8892 70.9325 15.5017 70.6539 15.2057 70.2882C14.5526 69.4784 13.9997 68.5903 13.3902 67.7457C13.1333 67.3887 12.846 67.0578 12.5935 66.7008C12.3192 66.3177 12.1364 65.891 11.9013 65.4861C11.3658 64.5631 10.765 63.6837 10.199 62.7782C9.75056 62.0642 10.8825 61.4068 11.3266 62.1208L11.3222 62.1295Z" fill="#A55535"/>
<path d="M7.36463 66.2044C7.95672 66.9968 8.57929 67.763 9.18445 68.5467C9.77219 69.3129 10.2119 70.1619 10.8345 70.9107C11.4179 71.616 11.7009 72.4519 12.2189 73.192C12.7936 74.0149 13.3944 74.829 13.956 75.6605C14.4306 76.3571 13.2986 77.0102 12.8284 76.3179C12.2799 75.5125 11.7009 74.7245 11.1436 73.9278C10.878 73.549 10.6821 73.1703 10.4862 72.7567C10.2816 72.3126 10.0116 71.9556 9.69818 71.5855C9.08867 70.8628 8.68378 70.0182 8.1091 69.2781C7.48653 68.477 6.84654 67.6847 6.24139 66.8662C6.02806 66.5788 6.19785 66.1391 6.47648 65.9737C6.80736 65.7778 7.16001 65.9258 7.36898 66.2088L7.36463 66.2044Z" fill="#A55535"/>
<path d="M6.64628 71.6988C7.56054 73.018 8.5314 74.2892 9.51097 75.5561C9.98552 76.17 10.3861 76.7969 10.9738 77.3063C11.5964 77.8461 12.023 78.5166 12.5629 79.1305C13.1158 79.7617 12.1928 80.6891 11.6399 80.0534C11.1 79.4396 10.6734 78.7691 10.0508 78.2293C9.42825 77.6894 9.0016 77.0189 8.50528 76.3703C8.00897 75.7216 7.46911 75.1077 7.00763 74.4329C6.52437 73.732 6.00629 73.0571 5.51868 72.3562C5.03978 71.664 6.17173 71.0109 6.64628 71.6988Z" fill="#A55535"/>
<path d="M44.8406 92.5048C44.3661 92.3132 43.8437 92.2915 43.3691 92.1043C42.8859 91.9127 42.5289 91.5427 42.0761 91.3119C41.6494 91.0942 41.1357 91.1073 40.6829 90.9462C40.13 90.7459 39.5945 90.4717 39.0547 90.2366C38.7325 90.0972 38.6585 89.6227 38.8196 89.3441C39.0155 89.0088 39.3855 88.9697 39.7121 89.109C40.204 89.3179 40.6916 89.5966 41.2097 89.7446C41.6973 89.8839 42.1936 89.9144 42.6551 90.1451C43.06 90.3454 43.3778 90.6937 43.7914 90.8765C44.2311 91.0725 44.7405 91.0681 45.1889 91.2466C45.5155 91.3772 45.7462 91.682 45.6461 92.052C45.559 92.3655 45.1715 92.6398 44.8406 92.5092V92.5048Z" fill="#A55535"/>
<path d="M24.5223 76.2092C24.1566 76.7316 23.6385 77.1234 23.373 77.7112C23.103 78.3076 22.8592 78.9476 22.6807 79.5745C22.5022 80.2058 22.2671 80.7805 22.0146 81.3813C21.7403 82.0474 21.7795 82.757 21.6794 83.458C21.6271 83.8063 21.1874 83.9978 20.874 83.9151C20.4996 83.8106 20.3689 83.4623 20.4168 83.1097C20.517 82.4 20.4821 81.7122 20.7521 81.033C20.874 80.7239 21.0307 80.4278 21.1482 80.1187C21.2745 79.7879 21.3529 79.4396 21.453 79.1C21.6576 78.4121 21.9363 77.7068 22.241 77.0538C22.5196 76.4573 23.0203 76.0786 23.3904 75.5518C23.5906 75.2644 23.9607 75.1295 24.2829 75.3167C24.5702 75.4821 24.7182 75.9175 24.518 76.2092H24.5223Z" fill="#A55535"/>
<path d="M71.4896 99.993C73.0004 100.99 74.7287 101.591 76.2395 102.583C77.0144 103.093 77.9156 103.28 78.7689 103.615C79.6005 103.946 80.4451 104.321 81.3071 104.569C82.1909 104.826 83.14 105.126 84.0586 105.23C84.9859 105.335 85.9742 105.23 86.8841 105.065C87.7679 104.908 88.5385 104.682 89.2438 104.107C89.9795 103.511 90.502 102.849 90.9417 102.013C91.3466 101.238 91.573 100.337 91.8124 99.4967C92.0736 98.5737 92.3479 97.642 92.6919 96.7452C92.8312 96.3882 92.9966 96.0443 93.1359 95.6916C93.3057 95.2563 93.3884 94.7991 93.5321 94.355C93.6584 93.9676 93.8499 93.6323 94.0589 93.2841C94.3114 92.8661 94.3941 92.483 94.4594 92.0041C94.577 91.1682 94.9122 90.2931 95.23 89.5095C95.3955 89.1002 95.587 88.704 95.6567 88.2643C95.7264 87.7985 95.7438 87.337 95.8526 86.8755C96.0703 85.9569 96.2053 85.0557 96.3576 84.124C96.4273 83.7017 96.5535 83.2925 96.6493 82.8745C96.7625 82.3782 96.7799 81.8688 96.8452 81.3638C96.9715 80.332 97.1805 79.2958 97.5157 78.3119C97.8466 77.3497 98.1557 76.3266 98.3168 75.3209C98.3951 74.8333 98.517 74.3893 98.726 73.9408C98.935 73.4881 99.1918 73.0788 99.305 72.5869C99.4182 72.1036 99.4879 71.6334 99.7143 71.185C99.9494 70.7191 100.315 70.3317 100.572 69.8745C100.986 69.1431 102.113 69.8005 101.7 70.5319C101.486 70.9107 101.203 71.2372 100.977 71.6073C100.707 72.047 100.676 72.5346 100.55 73.0222C100.315 73.9234 99.7491 74.6461 99.5924 75.5778C99.44 76.5095 99.157 77.4063 98.8914 78.3119C98.6128 79.2566 98.3603 80.1622 98.1949 81.1374C98.1121 81.6163 98.0904 82.0996 98.0251 82.5785C97.9598 83.0704 97.8248 83.5406 97.716 84.0239C97.4983 84.9643 97.446 85.9264 97.2109 86.8624C96.9802 87.7854 96.9802 88.7127 96.6101 89.6009C96.2575 90.4411 95.8831 91.3815 95.7394 92.2827C95.6741 92.7094 95.6219 93.1099 95.439 93.5061C95.2474 93.9197 94.947 94.2723 94.799 94.7077C94.6597 95.1213 94.5857 95.5567 94.4333 95.9659C94.2679 96.41 94.0502 96.8279 93.8891 97.2763C93.5626 98.1863 93.297 99.1179 93.0184 100.041C92.7528 100.933 92.509 101.848 92.0736 102.675C91.2639 104.216 89.9099 105.64 88.1902 106.123C87.2716 106.38 86.2877 106.515 85.3386 106.541C84.3285 106.567 83.4491 106.449 82.4695 106.219C81.4116 105.971 80.4364 105.631 79.422 105.252C78.9082 105.061 78.4032 104.856 77.8895 104.66C77.4062 104.477 76.8925 104.373 76.418 104.173C75.9608 103.981 75.5777 103.681 75.1511 103.432C74.6896 103.162 74.1932 102.94 73.7231 102.688C72.7565 102.17 71.7596 101.73 70.8366 101.121C70.1357 100.659 70.7931 99.5272 71.494 99.993H71.4896Z" fill="#4E719B"/>
<path d="M56.7393 118.753C57.7363 119.51 58.7464 120.246 59.7303 121.021C60.7316 121.813 61.8026 122.501 62.8214 123.268C63.8097 124.008 64.9242 124.687 66.0126 125.266C66.4915 125.523 67.0052 125.688 67.4754 125.971C68.0458 126.315 68.5987 126.676 69.1951 126.977C70.3271 127.543 71.3763 128.244 72.4865 128.858C73.5923 129.472 74.8244 129.82 75.965 130.355C76.4875 130.599 77.0447 130.826 77.5367 131.126C78.0635 131.448 78.5032 131.766 79.0909 131.984C80.2795 132.419 81.468 132.841 82.674 133.233C83.2008 133.403 83.6579 133.677 84.1542 133.912C84.7332 134.191 85.4037 134.378 86.0219 134.552C86.6053 134.713 87.2018 134.766 87.7851 134.944C88.3903 135.127 88.9998 135.297 89.6093 135.471C90.8327 135.823 92.0996 136.015 93.3622 136.176C94.616 136.342 95.8873 136.263 97.1498 136.355C98.4385 136.446 99.6749 136.302 100.951 136.102C101.543 136.011 102.152 135.967 102.736 135.845C103.332 135.723 103.841 135.379 104.416 135.188C104.938 135.014 105.5 135.005 106.005 134.779C106.575 134.522 107.176 134.173 107.686 133.812C108.635 133.133 109.645 132.545 110.546 131.801C111.06 131.378 111.425 130.878 111.852 130.377C112.3 129.855 112.832 129.406 113.276 128.879C113.711 128.361 114.081 127.8 114.564 127.321C115.056 126.833 115.426 126.319 115.801 125.736C116.193 125.131 116.693 124.569 117.011 123.921C117.277 123.381 117.403 122.797 117.729 122.284C118.117 121.67 118.443 121.13 118.683 120.438C118.927 119.741 119.14 119.04 119.306 118.322C119.493 117.503 120.751 117.847 120.564 118.67C120.285 119.885 119.941 121.291 119.262 122.349C118.962 122.819 118.666 123.228 118.47 123.76C118.235 124.395 117.943 124.931 117.547 125.488C117.177 126.006 116.846 126.546 116.484 127.068C116.136 127.578 115.714 127.991 115.291 128.435C114.865 128.884 114.53 129.411 114.129 129.881C113.681 130.403 113.149 130.843 112.71 131.37C111.939 132.293 111.129 133.094 110.106 133.751C109.074 134.413 108.091 135.136 107.015 135.723C106.51 135.998 106.018 136.172 105.457 136.285C104.817 136.411 104.29 136.677 103.693 136.916C103.119 137.147 102.518 137.177 101.908 137.26C101.247 137.352 100.594 137.456 99.9318 137.539C99.3049 137.617 98.678 137.743 98.0423 137.73C97.3762 137.713 96.7145 137.643 96.044 137.635C94.751 137.617 93.471 137.521 92.191 137.317C90.8632 137.103 89.5832 136.838 88.2902 136.468C87.0668 136.12 85.826 135.88 84.6201 135.48C84.0236 135.284 83.4881 135.035 82.9308 134.752C82.3431 134.456 81.6944 134.33 81.0762 134.104C80.5146 133.899 79.9486 133.708 79.387 133.49C78.7688 133.25 78.0983 133.072 77.5367 132.715C77.0273 132.393 76.5571 132.097 76.0129 131.836C75.399 131.544 74.7852 131.283 74.1539 131.034C72.9218 130.543 71.742 129.972 70.597 129.306C69.9614 128.936 69.3649 128.531 68.7031 128.2C68.0457 127.874 67.4362 127.482 66.805 127.107C66.2303 126.764 65.5947 126.555 65.02 126.215C64.3887 125.845 63.7661 125.462 63.1479 125.07C62.5602 124.691 62.0116 124.282 61.4543 123.864C60.8622 123.424 60.2179 123.059 59.6302 122.619C58.4373 121.722 57.2618 120.795 56.0732 119.894C55.4115 119.393 56.0602 118.257 56.7306 118.766L56.7393 118.753Z" fill="#4E719B"/>
<path d="M51.4059 108.248C51.4756 109.14 51.4799 110.033 51.5714 110.929C51.6628 111.826 51.8805 112.688 51.9196 113.589C51.998 115.34 52.4377 117.081 52.6815 118.814C52.9253 120.56 53.0603 122.305 53.3781 124.047C53.5392 124.926 53.5131 125.849 53.722 126.711C53.9354 127.582 54.1444 128.448 54.3054 129.332C54.4578 130.155 53.1996 130.508 53.0472 129.681C52.8862 128.797 52.6728 127.93 52.4638 127.06C52.2505 126.189 52.281 125.279 52.1199 124.395C51.9588 123.524 51.789 122.645 51.6889 121.761C51.5844 120.838 51.5322 119.907 51.3972 118.988C51.136 117.233 50.7006 115.462 50.6223 113.685C50.5831 112.784 50.3741 111.918 50.2783 111.025C50.1782 110.098 50.1738 109.175 50.1042 108.248C50.0389 107.407 51.345 107.412 51.4103 108.248H51.4059Z" fill="#4E719B"/>
<path d="M42.8816 108.161C42.6944 108.805 42.616 109.484 42.3331 110.094C42.2068 110.363 42.037 110.612 41.9064 110.877C41.7497 111.199 41.6844 111.548 41.606 111.896C41.4667 112.54 41.3012 113.18 41.1445 113.82C40.9921 114.447 40.6656 114.978 40.4566 115.579C40.2433 116.193 40.2477 116.855 40.0082 117.46C39.7731 118.056 39.5032 118.627 39.2942 119.236C38.8458 120.542 38.4496 121.866 38.036 123.185C37.7835 123.982 36.5209 123.642 36.7778 122.837C37.1958 121.517 37.5876 120.194 38.036 118.888C38.2363 118.309 38.4714 117.765 38.7108 117.199C38.9808 116.567 38.9764 115.875 39.1984 115.231C39.3944 114.66 39.7122 114.151 39.8602 113.568C40.03 112.897 40.1954 112.222 40.3478 111.548C40.4871 110.916 40.683 110.39 40.9965 109.828C41.3491 109.201 41.4231 108.496 41.6234 107.812C41.8585 107.007 43.1211 107.351 42.8816 108.161Z" fill="#4E719B"/>
<path d="M38.6802 107.577C38.4451 107.856 38.2666 108.174 38.0489 108.465C37.7834 108.818 37.4743 109.144 37.1826 109.48C36.9257 109.771 36.6688 110.059 36.3728 110.311C36.1029 110.538 35.8155 110.755 35.624 111.056C35.4411 111.343 35.2931 111.648 35.0885 111.922C34.8447 112.249 34.5399 112.479 34.2134 112.714C33.9391 112.91 33.7388 113.102 33.5734 113.394C33.3818 113.724 33.2077 114.047 32.9595 114.343C32.7332 114.613 32.2673 114.578 32.0366 114.343C31.7666 114.073 31.8102 113.69 32.0366 113.42C32.2499 113.163 32.3718 112.832 32.5547 112.553C32.7767 112.209 33.051 111.957 33.3775 111.713C33.6169 111.535 33.8738 111.378 34.0567 111.134C34.27 110.847 34.405 110.511 34.6183 110.22C34.8447 109.911 35.1189 109.671 35.4063 109.423C35.7198 109.157 35.9897 108.861 36.2596 108.552C36.5295 108.248 36.8212 107.951 37.0563 107.621C37.2871 107.294 37.5004 106.959 37.7573 106.654C37.9836 106.384 38.4451 106.419 38.6802 106.654C38.9458 106.92 38.911 107.307 38.6802 107.577Z" fill="#4E719B"/>
<path d="M95.6784 66.4962C96.0702 66.2175 96.4185 65.8867 96.8016 65.595C97.1847 65.3076 97.6157 65.0812 97.9858 64.7721C98.3515 64.463 98.7085 64.1408 99.0524 63.8056C99.3703 63.5009 99.7316 63.1787 99.8709 62.7607C100.006 62.3471 99.8274 61.9292 99.6402 61.5374C99.4617 61.1586 99.2788 60.7189 98.9305 60.4838C98.4037 60.1268 97.7855 60.0833 97.2239 59.9613C96.6318 59.8307 96.0136 59.7829 95.4781 59.5521C94.9818 59.3388 94.5029 58.9557 94.1459 58.3418C93.7845 57.7279 93.8498 57.0792 93.6801 56.5568C93.5103 56.0387 93.1794 55.5859 92.4567 55.2159C92.0561 55.0113 91.5729 54.8719 91.0635 54.8502C90.6064 54.8284 90.1231 54.9982 89.6355 55.0635C89.1566 55.1288 88.6559 55.1027 88.1988 55.1985C87.6851 55.3073 87.2192 55.4989 86.81 55.5772C86.2745 55.6774 85.7216 55.66 85.1861 55.747C84.6506 55.8341 84.1412 56.1127 83.6057 56.1867C83.0659 56.2608 82.5173 56.2303 81.9775 56.2869C81.4376 56.3478 80.8978 56.3914 80.3579 56.4349C79.8181 56.4784 79.2739 56.5002 78.734 56.5307C78.1942 56.5655 77.6499 56.5655 77.1057 56.5873C76.5615 56.609 76.0217 56.6482 75.4775 56.6569C74.9333 56.6656 74.3934 56.596 73.8492 56.5916C72.7826 56.5829 72.2993 56.67 72.0512 56.7614C71.6463 56.9138 71.8857 57.3013 71.2457 58.3244C70.9323 58.8251 70.4621 59.1255 69.9658 59.4084C69.4651 59.6958 69.0167 60.0528 68.59 60.3967C68.1721 60.7363 67.7454 61.0846 67.6409 61.7463C67.5626 62.247 67.789 62.7956 68.024 63.3615C68.2287 63.8622 68.503 64.3672 68.7946 64.8418C69.1125 65.3642 69.4738 65.8344 69.7089 66.248C69.9788 66.7269 70.2226 67.2145 70.4882 67.6934C70.7538 68.1723 71.0542 68.6338 71.311 69.1127C71.5679 69.596 71.6898 70.1532 71.938 70.6365C72.1861 71.1241 72.4343 71.6117 72.6737 72.1037C72.9132 72.5956 73.231 73.0527 73.453 73.5491C73.6751 74.0454 73.8013 74.5896 74.0103 75.0946C74.2193 75.5996 74.524 76.0655 74.7156 76.5792C74.9072 77.0886 75.1031 77.6023 75.2729 78.1247C75.3991 78.5122 75.5863 78.9606 75.7735 79.4395C75.9433 79.8705 76.013 80.3712 76.2568 80.7674C76.5136 81.1897 76.8924 81.4814 77.2494 81.747C77.6238 82.0256 78.0113 82.2868 78.5207 82.2563C78.9212 82.2302 79.3566 81.9385 79.8398 81.6207C80.2229 81.3682 80.5843 81.0243 80.9718 80.689C81.3505 80.3582 81.7772 80.0752 82.1124 79.7486C82.5304 79.3394 82.9875 79.0651 83.2574 78.8083C83.6144 78.4643 83.9627 78.103 84.298 77.7416C84.6375 77.3803 84.8073 76.8665 85.1295 76.4921C85.4517 76.1177 85.9306 75.8739 86.244 75.4908C86.5618 75.112 86.7534 74.6244 87.0669 74.2456C87.3803 73.8625 87.7547 73.5316 88.0769 73.1529C88.3947 72.7741 88.7691 72.4432 89.1 72.0775C89.4309 71.7118 89.666 71.2503 90.0143 70.8977C90.3626 70.5451 90.7979 70.2882 91.168 69.9573C91.525 69.6438 91.9125 69.3739 92.2869 69.0822C92.6613 68.7905 93.0096 68.4684 93.3927 68.1897C93.7758 67.9111 94.0806 67.5193 94.4681 67.245C94.8555 66.9707 95.2865 66.7617 95.674 66.4875L95.6784 66.4962Z" fill="white"/>
</g>
</g>
<defs>
<clipPath id="clip0_2096_5498">
<rect width="136" height="138" fill="white"/>
</clipPath>
<clipPath id="clip1_2096_5498">
<rect width="136" height="140" fill="white" transform="translate(0 -1)"/>
</clipPath>
</defs>
</svg>
