<svg width="320" height="294" viewBox="0 0 320 294" fill="none" xmlns="http://www.w3.org/2000/svg">
<g clip-path="url(#clip0_5798_24636)">
<path opacity="0.2" d="M268.407 91.435C246.724 84.5872 230.175 99.8438 210.921 97.4898C191.667 95.1359 158.33 61.5891 122.816 69.0915C87.2901 76.5813 103.877 110.279 80.8846 115.251C57.9051 120.224 32.7234 107.875 12.5126 138.401C-7.69827 168.926 -5.18136 217.956 33.0506 223.633C78.2166 230.343 72.9815 244.152 103.235 260.868C133.488 277.598 175.256 275.521 215.527 270.02C251.443 265.123 265.576 253.542 276.562 235.831C282.25 226.654 307.004 233.59 316.229 209.585C328.436 177.839 306.841 173.987 309.836 158.39C312.844 142.794 314.341 105.936 268.407 91.4225V91.435Z" fill="#FFC77D"/>
<g clip-path="url(#clip1_5798_24636)">
<path d="M150.688 111.085C150.767 111.821 151.269 118.238 151.269 118.238L133.293 127.692C133.293 127.692 136.26 137.068 140.546 140.104C144.832 143.141 149.621 145.285 157.282 144.784C164.959 144.299 174.756 141.904 180.156 137.882C185.557 133.844 188.603 129.085 190.424 125.955C190.424 125.955 182.511 121.103 181.193 119.052C179.874 117.002 180.094 97.0293 180.094 97.0293L150.673 111.085H150.688Z" fill="#EBBEA7"/>
<path d="M150.688 111.085L151.269 118.238L153.498 123.497C153.498 123.497 153.907 117.581 157.282 115.937C160.657 114.294 168.664 109.332 171.961 103.384L169.543 102.069L150.688 111.085Z" fill="#D8A890"/>
<path d="M212.058 63.3141C212.058 71.2186 205.763 77.6204 197.976 77.6204C190.204 77.6204 183.893 71.2186 183.893 63.3141C183.893 55.4097 190.204 49.0079 197.976 49.0079C205.747 49.0079 212.058 55.4097 212.058 63.3141Z" fill="#97928C"/>
<path d="M136.59 70.7647C136.59 70.7647 132.445 63.8777 140.154 56.0828C147.847 48.3036 165.885 38.3174 185.353 51.2619C204.821 64.2064 197.002 86.6674 193.046 92.9127C189.09 99.158 181.616 105.841 179.638 106.17C177.66 106.499 174.724 106.828 166.733 99.8154C158.742 92.8031 136.606 70.749 136.606 70.749L136.59 70.7647Z" fill="#97928C"/>
<path d="M190.424 55.4254C190.424 55.4254 197.426 62.1246 197.976 73.9108" stroke="#6E6E6D" stroke-width="0.35" stroke-linecap="round" stroke-linejoin="round"/>
<path d="M159.841 63.3142C159.841 63.3142 157.533 56.4115 150.28 57.8829C143.027 59.3698 137.736 65.4429 136.92 69.3873C136.087 73.3317 132.963 83.3648 131.801 87.8101C130.64 92.2553 133.78 110.506 141.033 113.464C148.286 116.422 166.262 110.991 171.71 103.275C171.71 103.275 173.688 104.433 176.498 102.774C179.309 101.13 181.208 97.0136 179.56 93.2414C177.911 89.4536 174.285 89.5475 171.553 93.2414L168.005 92.4118C168.005 92.4118 169.905 85.337 169.496 82.6292C169.496 82.6292 163.719 78.5909 161.16 72.596C158.601 66.6012 159.841 63.3142 159.841 63.3142Z" fill="#EBBEA7"/>
<path d="M146.528 69.5594C146.528 69.5594 152.87 72.0795 155.853 72.7369" stroke="#BC7F6C" stroke-miterlimit="10" stroke-linecap="round"/>
<path d="M149.495 82.8326C149.495 82.8326 147.737 86.2292 146.528 87.6536C145.319 89.0779 144.55 89.7353 144.55 90.1736C144.55 90.6118 146.528 92.3649 146.528 92.3649" stroke="#BC7F6C" stroke-miterlimit="10" stroke-linecap="round"/>
<path d="M142.352 92.3649C142.352 92.3649 138.285 96.1997 137.956 97.5145" stroke="#BC7F6C" stroke-miterlimit="10" stroke-linecap="round"/>
<path d="M155.335 95.9806C155.335 95.9806 159.292 99.3771 158.962 101.349" stroke="#BC7F6C" stroke-miterlimit="10" stroke-linecap="round"/>
<path d="M143.011 97.0293L154.77 100.035C154.77 100.035 152.133 105.294 148.883 105.075C145.633 104.855 142.791 101.803 142.995 97.0293H143.011Z" fill="white"/>
<path d="M157.156 80.203C157.156 80.203 160.61 80.203 161.317 82.3943" stroke="#2B2927" stroke-miterlimit="10" stroke-linecap="round"/>
<path d="M144.55 77.01C144.55 77.01 141.802 75.1473 140.154 77.01" stroke="#2B2927" stroke-miterlimit="10" stroke-linecap="round"/>
<path d="M158.554 87.5283C158.208 88.6866 157.298 89.4379 156.513 89.2031C155.743 88.9683 155.398 87.8414 155.759 86.6831C156.105 85.5248 157.015 84.7735 157.784 85.0083C158.554 85.2431 158.899 86.37 158.554 87.5283Z" fill="#2B2927"/>
<path d="M143.089 83.85C142.744 85.0082 141.833 85.7595 141.064 85.5248C140.295 85.29 139.95 84.163 140.295 83.0047C140.64 81.8465 141.551 81.0952 142.32 81.3299C143.089 81.5647 143.435 82.6917 143.089 83.85Z" fill="#2B2927"/>
<path d="M153.561 57.1785C153.561 57.1785 159.417 53.7037 161.317 57.1785C162.683 59.6985 160.83 60.4185 159.841 63.3299" stroke="#6E6E6D" stroke-width="0.35" stroke-linecap="round" stroke-linejoin="round"/>
<path d="M152.525 54.3297C152.525 54.3297 157.094 48.6323 165.666 48.961" stroke="#6E6E6D" stroke-width="0.35" stroke-linecap="round" stroke-linejoin="round"/>
<path d="M303.367 87.6492L278.945 90.475C276.723 90.7321 275.13 92.7365 275.388 94.9519L281.064 143.71C281.322 145.926 283.333 147.513 285.555 147.256L309.976 144.43C312.199 144.173 313.791 142.169 313.533 139.953L307.857 91.195C307.599 88.9796 305.589 87.3921 303.367 87.6492Z" fill="#2B2B2B"/>
<path d="M286.836 158.856C286.836 158.856 293.806 155.428 296.617 149.825C299.427 144.221 302.394 139.353 303.98 132.278C305.565 125.188 301.264 129.57 301.264 129.57C301.264 129.57 303.509 125.736 302.598 122.84C301.688 119.944 298.092 124.875 298.092 124.875C298.092 124.875 300.337 119.334 298.799 117.612C297.26 115.89 293.084 120.68 292.55 124.014C292.55 124.014 293.649 118.849 292.174 118.379C290.698 117.909 288.044 121.118 287.055 125.391C286.066 129.664 278.892 134.157 277.18 136.191C275.469 138.226 270.477 143.047 272.156 152.908C273.852 162.769 286.836 158.903 286.836 158.903V158.856Z" fill="#EBBEA7"/>
<path d="M301.704 87.8392L277.282 90.6649C275.06 90.9221 273.468 92.9264 273.726 95.1419L279.402 143.9C279.659 146.116 281.67 147.703 283.892 147.446L308.314 144.62C310.536 144.363 312.128 142.359 311.87 140.143L306.194 91.385C305.937 89.1696 303.926 87.582 301.704 87.8392Z" fill="#5C5C5C"/>
<path d="M300.302 90.8693L279.327 93.2963C277.587 93.4976 276.34 95.0669 276.542 96.8014L281.764 141.657C281.966 143.392 283.54 144.635 285.28 144.433L306.255 142.006C307.995 141.805 309.242 140.236 309.04 138.501L303.818 93.6454C303.616 91.9109 302.042 90.668 300.302 90.8693Z" fill="#F1F1F1"/>
<path d="M273.255 155.898C273.255 155.898 265.704 151.077 269.393 140.01C271.67 133.202 272.58 132.169 273.538 131.292C274.496 130.416 278.782 126.596 281.67 124.718C284.559 122.84 285.564 122.934 285.988 124.217C286.412 125.501 283.005 130.776 277.871 136.395C278.593 136.755 286.616 146.537 284.512 151.468C282.298 156.649 278.232 160.797 273.24 155.913L273.255 155.898Z" fill="#EBBEA7"/>
<g clip-path="url(#clip2_5798_24636)">
<path d="M301.134 114.771C300.971 113.074 300.812 111.418 300.681 110.031C297.362 109.581 294.33 108.75 291.683 107.623L291.683 107.62C291.683 107.62 291.681 107.621 291.68 107.622C291.68 107.622 291.678 107.621 291.678 107.621L291.678 107.623C289.289 109.224 286.467 110.606 283.29 111.668C283.421 113.055 283.576 114.711 283.734 116.409C284.297 122.476 288.218 127.638 293.789 129.932L293.789 129.935C293.789 129.935 293.79 129.935 293.791 129.933C293.791 129.933 293.791 129.933 293.792 129.933C293.792 129.933 293.792 129.933 293.792 129.933C293.793 129.933 293.794 129.933 293.794 129.934L293.794 129.932C298.836 126.638 301.719 120.836 301.135 114.771L301.134 114.771Z" fill="#43A047"/>
<path d="M291.563 122.935L287.532 119.55L288.791 118.006L291.296 120.109L296.168 114.135L297.695 115.416L291.563 122.935Z" fill="white"/>
</g>
<path d="M55.14 136.176C58.327 135.643 63.9475 133.327 65.2191 128.021C66.4908 122.715 65.7686 113.824 62.7072 110.412C59.6458 107 58.5939 106.499 55.5168 105.935C55.5168 105.935 50.7912 93.9144 49.0799 89.2187C47.3686 84.523 45.9086 80.1561 43.0826 80.2343C40.2567 80.3126 40.6492 86.3857 42.015 90.3614C43.3809 94.337 45.2335 100.958 45.2335 100.958C45.2335 100.958 40.9004 99.2049 38.9693 100.989C36.8969 102.883 36.3475 104.073 36.269 108.033C36.269 108.033 32.972 106.718 30.8212 108.643C28.6703 110.568 29.0157 113.323 31.1352 115.937C31.1352 115.937 28.8273 116.109 29.0471 118.254C29.2669 120.398 32.8307 125.72 37.8232 125.861C37.8232 125.861 40.6806 138.602 55.1714 136.176H55.14Z" fill="#EBBEA7"/>
<path d="M36.2375 108.033C36.2375 108.033 36.8027 111.367 37.4621 113.026C38.671 116.078 40.9945 117.878 42.8471 117.612C44.6997 117.346 44.841 115.342 44.056 112.212C43.271 109.081 43.3495 106.937 43.3495 106.937" stroke="#BC7F6C" stroke-width="0.7" stroke-linecap="round" stroke-linejoin="round"/>
<path d="M31.1038 115.937C31.1038 115.937 33.9768 119.381 37.1167 121.04C40.2567 122.699 43.1768 121.478 41.7638 117.534" stroke="#BC7F6C" stroke-width="0.7" stroke-linecap="round" stroke-linejoin="round"/>
<path d="M37.7919 125.861C37.7919 125.861 41.2458 125.72 39.299 121.744" stroke="#BC7F6C" stroke-width="0.7" stroke-linecap="round" stroke-linejoin="round"/>
<path d="M55.5168 105.935C55.5168 105.935 50.5086 104.73 49.0014 106.436C47.4942 108.142 49.9591 110.709 55.5168 112.635C55.5168 112.635 53.0048 119.256 56.3488 124.311" stroke="#BC7F6C" stroke-width="0.7" stroke-linecap="round" stroke-linejoin="round"/>
<path d="M45.2178 100.958L46.2226 104.292" stroke="#BC7F6C" stroke-width="0.7" stroke-linecap="round" stroke-linejoin="round"/>
<path d="M135.538 122.417C135.538 122.417 123.92 122.793 112.679 134.188C101.438 145.567 86.7433 158.84 81.0287 161.031C81.0287 161.031 69.6935 140.449 65.2348 128.052C65.2348 128.052 51.4348 128.584 42.486 135.988C42.486 135.988 49.8177 167.872 55.1399 182.96C60.4621 198.049 64.0259 206.032 70.9338 207.159C82.0648 208.959 109.728 187.64 115.945 177.936C124.768 164.178 135.538 122.449 135.538 122.449V122.417Z" fill="#6B8EBF"/>
<path d="M150.202 118.755L133.01 128.428L148.223 191.945L194.176 121.729L184.38 117.596C184.38 117.596 176.718 124.906 156.654 127.504C156.654 127.504 150.296 125.266 150.202 118.755Z" fill="#C0DBF1"/>
<path d="M151.002 129.226L150.406 156.367C150.406 156.367 164.472 138.43 167.424 131.793L156.638 127.504L150.986 129.226H151.002Z" fill="#C0DBF1"/>
<path d="M151.583 118.207C151.583 118.207 148.71 116.501 148.663 124.343C148.616 131.167 149.055 136.442 150.531 138.007L156.654 127.504C156.654 127.504 152.509 123.231 151.583 118.207Z" fill="#C0DBF1"/>
<path d="M181.24 113.902C181.24 113.902 184.647 116.642 184.631 118.645C184.631 122.276 182.81 125.814 176.922 133.17C171.035 140.527 165.226 143.83 164.158 142.703C161.945 140.355 156.654 127.504 156.654 127.504C156.654 127.504 165.163 125.344 171.113 121.556C179.497 116.219 181.24 113.902 181.24 113.902Z" fill="#C0DBF1"/>
<path d="M209.876 129.883C209.876 129.883 219.296 130.854 226.627 150.341C233.959 169.844 246.472 185.809 246.472 185.809C246.472 185.809 260.335 159.795 269.032 152.548C269.032 152.548 278.248 154.755 284.528 159.529C284.528 159.529 273.836 197.392 266.458 210.634C260.005 222.216 252.814 228.29 241.746 225.707C231.95 223.422 217.773 208.724 210.661 196.907C210.661 196.907 183.485 196.484 184.631 164.162C185.714 133.609 209.876 129.868 209.876 129.868V129.883Z" fill="#6B8EBF"/>
<path d="M212.623 228.994C212.623 228.994 216.109 217.849 217.082 206.893C214.602 203.308 212.404 199.834 210.661 196.922C204.868 195.968 196.625 191.241 192.842 173.146C187.268 146.538 209.876 129.883 209.876 129.883C209.876 129.883 197.85 122.402 184.38 117.596C184.38 117.596 184.631 147.289 148.223 179.564C148.223 179.564 142.885 169.672 143.953 143.908C144.471 131.339 148.302 123.341 150.201 118.755C150.201 118.755 134.062 120.21 130.922 124.296C118.708 140.277 117.703 158.011 116.102 169.171C108.723 220.839 107.935 257.683 109.09 264.556C110.5 272.947 144.161 276.01 166.224 276C188.239 275.99 221.828 269.894 221.828 269.894C221.828 269.894 217.333 240.827 212.623 228.994Z" fill="#6B8EBF"/>
<path d="M210.143 196.124L204.978 188.251" stroke="#4E719B" stroke-linecap="round" stroke-linejoin="round"/>
<path d="M246.488 185.95C246.488 185.95 236.204 197.11 237.916 205.437" stroke="#4E719B" stroke-linecap="round" stroke-linejoin="round"/>
<path d="M264.464 161.611C264.464 161.611 273.774 164.115 278.217 170.955" stroke="#4E719B" stroke-linecap="round" stroke-linejoin="round"/>
<path d="M279.363 165.477C280.611 165.477 281.623 164.468 281.623 163.223C281.623 161.978 280.611 160.969 279.363 160.969C278.114 160.969 277.102 161.978 277.102 163.223C277.102 164.468 278.114 165.477 279.363 165.477Z" fill="white"/>
<path d="M48.656 138.993C49.6792 138.993 50.5086 138.166 50.5086 137.146C50.5086 136.126 49.6792 135.299 48.656 135.299C47.6329 135.299 46.8035 136.126 46.8035 137.146C46.8035 138.166 47.6329 138.993 48.656 138.993Z" fill="white"/>
<path d="M114.422 145.551C114.422 145.551 113.668 151.061 115.474 159.028" stroke="#4E719B" stroke-linecap="round" stroke-linejoin="round"/>
<path d="M87.4969 182.366C87.4969 182.366 86.3823 169.218 81.5939 162.065C81.5939 162.065 90.4485 167.277 93.4 173.929" stroke="#4E719B" stroke-linecap="round" stroke-linejoin="round"/>
<path d="M46.8035 143.704C46.8035 143.704 53.9468 138.727 64.2144 137.162" stroke="#4E719B" stroke-linecap="round" stroke-linejoin="round"/>
<path d="M200.268 129.883C200.268 129.883 189.278 139.134 185.275 152.939" stroke="#4E719B" stroke-linecap="round" stroke-linejoin="round"/>
<path d="M185.887 176.856C185.887 176.856 185.416 194.934 200.268 203.324" stroke="#4E719B" stroke-linecap="round" stroke-linejoin="round"/>
<path d="M206.83 205.328C206.83 205.328 210.394 206.189 214.397 205.328" stroke="#4E719B" stroke-linecap="round" stroke-linejoin="round"/>
<path d="M206.83 212.59L203.549 226.818C203.549 226.818 206.971 230.089 206.83 236.069C206.689 242.048 208.824 258.702 208.824 258.702" stroke="#4E719B" stroke-linecap="round" stroke-linejoin="round"/>
<path d="M180.706 234.503C180.706 234.503 196.123 231.044 197.128 230.418" stroke="#4E719B" stroke-linecap="round" stroke-linejoin="round"/>
<path d="M179.999 246.744C179.999 246.744 199.153 235.505 207.568 228.102" stroke="#4E719B" stroke-linecap="round" stroke-linejoin="round"/>
</g>
<g clip-path="url(#clip3_5798_24636)">
<path fill-rule="evenodd" clip-rule="evenodd" d="M254.878 0.470237C277.31 2.7989 294.658 12.9546 293.627 23.1537C292.595 33.3528 273.575 39.733 251.143 37.4044C241.069 36.3586 232.021 33.7341 225.201 30.2361L211.016 33.2132L217.493 25.0771C213.923 21.8526 212.034 18.2894 212.395 14.7209C213.426 4.5218 232.447 -1.85843 254.878 0.470237Z" fill="#6B8EBF" fill-opacity="0.1"/>
<path d="M230.509 18.8603C231.737 18.8603 232.733 17.8512 232.733 16.6065C232.733 15.3618 231.737 14.3528 230.509 14.3528C229.28 14.3528 228.284 15.3618 228.284 16.6065C228.284 17.8512 229.28 18.8603 230.509 18.8603Z" fill="#10185C"/>
<path d="M245.523 20.4023C246.752 20.4023 247.747 19.3932 247.747 18.1485C247.747 16.9038 246.752 15.8948 245.523 15.8948C244.295 15.8948 243.299 16.9038 243.299 18.1485C243.299 19.3932 244.295 20.4023 245.523 20.4023Z" fill="#10185C"/>
<path d="M260.537 21.974C261.766 21.974 262.762 20.965 262.762 19.7203C262.762 18.4756 261.766 17.4666 260.537 17.4666C259.309 17.4666 258.313 18.4756 258.313 19.7203C258.313 20.965 259.309 21.974 260.537 21.974Z" fill="#10185C"/>
<path d="M275.552 23.5457C276.78 23.5457 277.776 22.5367 277.776 21.292C277.776 20.0472 276.78 19.0382 275.552 19.0382C274.323 19.0382 273.328 20.0472 273.328 21.292C273.328 22.5367 274.323 23.5457 275.552 23.5457Z" fill="#10185C"/>
</g>
</g>
<defs>
<clipPath id="clip0_5798_24636">
<rect width="320" height="294" fill="white"/>
</clipPath>
<clipPath id="clip1_5798_24636">
<rect width="285" height="231" fill="white" transform="translate(29 45)"/>
</clipPath>
<clipPath id="clip2_5798_24636">
<rect width="17.4774" height="22.414" fill="white" transform="matrix(0.995599 -0.0937172 0.0941985 0.995553 282.98 108.439)"/>
</clipPath>
<clipPath id="clip3_5798_24636">
<rect width="82.6229" height="37.8689" fill="white" transform="translate(211.016)"/>
</clipPath>
</defs>
</svg>
