<svg width="320" height="221" viewBox="0 0 320 221" fill="none" xmlns="http://www.w3.org/2000/svg">
<g clip-path="url(#clip0_8737_25721)">
<g clip-path="url(#clip1_8737_25721)">
<path d="M158.511 220.433C217.554 220.433 265.417 212.452 265.417 202.607C265.417 192.763 217.554 184.782 158.511 184.782C99.4689 184.782 51.6055 192.763 51.6055 202.607C51.6055 212.452 99.4689 220.433 158.511 220.433Z" fill="#FFF0E3"/>
<path d="M100.614 183.116C100.614 183.116 103.958 190.043 106.335 191.63C108.713 193.218 109.753 196.024 108.862 197.707C107.97 199.391 101.58 200.875 98.6824 200.912C95.7849 200.949 87.3131 193.35 85.9767 192.909C84.6403 192.468 86.9425 182.092 86.9425 182.092L100.615 183.115L100.614 183.116Z" fill="#545353"/>
<path d="M88.8025 187.539C88.8025 187.539 92.1468 194.466 94.524 196.053C96.9024 197.641 97.9418 200.447 97.0509 202.13C96.1599 203.813 89.7684 205.298 86.8709 205.335C83.9733 205.372 75.5016 197.773 74.1652 197.332C72.8288 196.891 75.131 186.515 75.131 186.515L88.8038 187.538L88.8025 187.539Z" fill="#545353"/>
<path d="M115.687 98.4475L116.291 105.697C116.291 105.697 114.472 127.318 105.94 186.649C105.94 186.649 100.083 190.671 89.9775 186.649V109.715L115.687 98.4475Z" fill="#77AAE0"/>
<path d="M71.1626 98.1873C71.1626 98.1873 68.7854 105.71 69.6764 115.687C70.3633 123.367 73.328 136.452 74.8581 145.176C75.3526 147.996 75.8756 157.607 75.5476 160.445L72.3092 188.437C72.3092 188.437 84.3331 193.231 90.7208 189.112L96.8722 112.782L116.292 105.697L116.743 94.436L71.1613 98.1884L71.1626 98.1873Z" fill="#98C5F7"/>
<path d="M132.534 75.9776C129.84 72.857 129.202 70.6736 129.202 70.6736L115.688 76.8715C116.573 78.6172 117.611 80.2392 118.764 81.7476C122.721 81.1613 129.166 79.6704 132.534 75.9765V75.9776Z" fill="#FFD0B0"/>
<path d="M132.534 75.9775C129.167 79.6703 122.721 81.1624 118.765 81.7486C130.099 96.5727 155.868 98.1558 155.868 98.1558L158.826 92.2233C142.691 87.5759 136.354 80.4039 132.534 75.9786V75.9775Z" fill="#FFE6D4"/>
<path d="M116.425 44.5056C116.425 44.5056 123.712 49.9353 125.497 56.545C127.28 63.1547 131.739 69.2313 131.739 69.2313C131.739 69.2313 129.063 76.8282 113.608 77.2247L116.426 44.5056H116.425Z" fill="#98C5F7"/>
<path d="M103.298 39.9565C103.298 39.9565 110.845 43.3307 116.425 44.5053C116.425 44.5053 117.322 50.9471 117.322 51.6189C117.322 52.2907 120.869 67.4453 117.441 72.9444C114.013 78.4424 118.762 99.5078 118.762 99.5078C118.762 99.5078 97.72 107.861 67.4033 100.772L71.6011 77.0782L68.9321 43.1986L82.3312 40.1928L103.297 39.9576L103.298 39.9565Z" fill="#C5DFFF"/>
<path d="M109.867 19.0765C109.867 19.0765 111.956 18.6962 112.063 20.3519C112.17 22.0075 113.012 26.2453 108.455 27.5976C103.897 28.9499 109.867 19.0765 109.867 19.0765Z" fill="#FFD0B0"/>
<path d="M84.627 37.2056C84.627 37.2056 91.433 35.6474 102.891 38.5925L102.411 43.3244L97.259 46.5664L87.1035 39.7909L84.627 37.2056Z" fill="#5597E5"/>
<path d="M79.5696 25.2117C79.5696 25.2117 74.814 25.9951 75.7062 30.9686C76.5985 35.9421 81.939 37.2056 85.0108 36.6053C88.0826 36.005 88.1808 29.0854 88.1808 29.0854L79.5696 25.2117Z" fill="#665651"/>
<path d="M87.5802 29.0853C87.5802 29.0853 86.8107 38.2631 85.6783 39.4647C84.9629 40.2243 96.5259 50.5842 100.375 47.5296C102.783 45.6183 99.3562 41.6795 99.3562 41.6795L100.641 33.5442L87.5802 29.0842V29.0853Z" fill="#FFD0B0"/>
<path d="M111.384 15.478C111.384 15.478 110.218 21.5871 109.975 23.7217C109.733 25.8563 109.723 30.2479 107.3 32.077C104.878 33.9071 100.174 36.655 97.6402 36.6052C95.9926 36.5727 90.6237 33.8605 86.9901 31.8278C83.3566 29.795 81.2209 23.6101 81.3423 21.0691C81.4637 18.5282 78.4345 11.005 86.914 5.92314C95.3934 0.840168 108.839 6.73689 109.566 9.58232C109.566 9.58232 111.747 11.5132 111.383 15.478H111.384Z" fill="#FFE6D4"/>
<path d="M82.2516 19.0334C82.2516 19.0334 78.5716 16.5325 76.9227 19.0334C75.2725 21.5342 78.2243 27.5306 80.2541 28.1688C82.2839 28.8081 85.6785 29.52 85.6785 29.52L82.2529 19.0334H82.2516Z" fill="#FFE6D4"/>
<path d="M86.3032 21.5857C86.3032 21.5857 96.6866 16.8752 99.2697 11.03C99.2697 11.03 107.436 15.0151 110.391 20.6898C110.391 20.6898 118.134 3.59297 99.6344 1.8261C99.6344 1.8261 85.3032 -3.86677 78.649 10.7241C78.649 10.7241 77.1865 13.0913 78.649 17.8621C78.649 17.8621 81.086 17.6165 81.8179 18.7069C82.5485 19.7972 83.0123 22.1531 83.6946 22.6329L86.3019 21.5857H86.3032Z" fill="#665651"/>
<path d="M100.441 27.5038C100.264 27.5038 100.104 27.4008 100.063 27.2502C100.015 27.0747 100.146 26.9002 100.356 26.8612C100.955 26.7475 101.398 26.4961 101.542 26.1873C101.664 25.9294 101.586 25.6281 101.312 25.2922C100.424 24.2 100.319 23.3137 100.316 23.2768C100.296 23.098 100.454 22.9398 100.667 22.9225C100.88 22.9063 101.068 23.0374 101.088 23.2161C101.089 23.2281 101.19 23.9855 101.953 24.9249C102.485 25.5794 102.416 26.1027 102.264 26.4256C102.021 26.9425 101.387 27.3326 100.526 27.4962C100.498 27.5016 100.468 27.5038 100.441 27.5038Z" fill="#FFB594"/>
<path d="M104.96 22.8594C104.89 23.3849 104.374 23.7685 103.804 23.7165C103.236 23.6634 102.831 23.1953 102.899 22.6687C102.969 22.1432 103.485 21.7596 104.055 21.8116C104.623 21.8647 105.028 22.3328 104.96 22.8594Z" fill="#494848"/>
<path d="M94.9355 22.8594C94.8658 23.3849 94.3493 23.7685 93.7799 23.7165C93.2117 23.6634 92.8063 23.1953 92.8747 22.6687C92.9444 22.1432 93.4609 21.7596 94.0304 21.8116C94.5985 21.8647 95.004 22.3328 94.9355 22.8594Z" fill="#494848"/>
<path d="M106.592 21.5363C106.511 21.5363 106.428 21.5147 106.359 21.4702C104.942 20.5698 103.524 21.1073 103.465 21.1311C103.271 21.2069 103.04 21.1376 102.95 20.9751C102.858 20.8125 102.939 20.6197 103.133 20.5427C103.209 20.5124 105.026 19.8059 106.829 20.9512C106.999 21.0596 107.033 21.2644 106.903 21.4074C106.827 21.4919 106.711 21.5363 106.594 21.5363H106.592Z" fill="#494848"/>
<path d="M91.9731 21.3381C91.862 21.3381 91.751 21.298 91.6748 21.221C91.5379 21.0834 91.5599 20.8786 91.7239 20.7638C91.7884 20.7183 93.3392 19.6542 95.4245 20.3867C95.6221 20.456 95.7151 20.6468 95.6324 20.8125C95.5498 20.9783 95.3225 21.0563 95.125 20.987C93.4851 20.4105 92.2727 21.2286 92.221 21.2633C92.1487 21.3131 92.0609 21.3381 91.9744 21.3381H91.9731Z" fill="#494848"/>
<path d="M102.077 29.0811L97.3658 28.9391C96.8906 28.9251 96.4878 29.1374 96.4632 29.4137C96.3767 30.3868 96.4748 32.4596 98.8223 32.6482C101.414 32.8562 102.498 30.7346 102.875 29.6825C102.983 29.3823 102.604 29.0973 102.079 29.0822L102.077 29.0811Z" fill="#FF997D"/>
<path d="M97.2598 47.4398C97.2598 47.4398 101.465 42.2777 102.892 38.5925L104.022 42.3893C104.022 42.3893 100.753 50.9884 99.3774 51.3655L97.2598 47.4398Z" fill="#77AAE0"/>
<path d="M84.6275 37.2056C84.6275 37.2056 99.363 46.2988 101.092 49.6676L99.3126 51.9387C99.3126 51.9387 90.9339 47.9209 82.333 40.22C82.333 40.22 83.7611 38.9924 84.6288 37.2066L84.6275 37.2056Z" fill="#98C5F7"/>
<path d="M106.4 51.5868C106.4 51.5868 113.683 51.369 115.688 51.5868C115.688 51.5868 116.133 52.6465 116.208 54.2057C116.208 54.2057 108.753 53.9457 106.449 54.3509L105.94 51.6431L106.399 51.5868H106.4Z" fill="#EBF5FF"/>
<path d="M91.9725 27.7256C93.7119 27.7256 95.1218 27.0115 95.1218 26.1306C95.1218 25.2497 93.7119 24.5356 91.9725 24.5356C90.2332 24.5356 88.8232 25.2497 88.8232 26.1306C88.8232 27.0115 90.2332 27.7256 91.9725 27.7256Z" fill="#FFD5C9"/>
<mask id="mask0_8737_25721" style="mask-type:luminance" maskUnits="userSpaceOnUse" x="80" y="3" width="32" height="34">
<path d="M111.384 15.478C111.384 15.478 110.218 21.5871 109.975 23.7217C109.733 25.8563 109.723 30.2479 107.3 32.077C104.878 33.9071 100.174 36.655 97.6402 36.6052C95.9926 36.5727 90.6237 33.8605 86.9901 31.8278C83.3566 29.795 81.2209 23.6101 81.3423 21.0691C81.4637 18.5282 78.4345 11.005 86.914 5.92314C95.3934 0.840168 108.839 6.73689 109.566 9.58232C109.566 9.58232 111.747 11.5132 111.383 15.478H111.384Z" fill="white"/>
</mask>
<g mask="url(#mask0_8737_25721)">
<path d="M107.825 27.7256C109.564 27.7256 110.974 27.0115 110.974 26.1306C110.974 25.2497 109.564 24.5356 107.825 24.5356C106.086 24.5356 104.676 25.2497 104.676 26.1306C104.676 27.0115 106.086 27.7256 107.825 27.7256Z" fill="#FFD5C9"/>
</g>
<path d="M75.5928 76.8715C75.5928 76.8715 71.8844 77.6625 69.209 77.8282L69.8778 73.3174L75.5928 76.8715Z" fill="#5597E5"/>
<path d="M55.9466 72.3822C55.9466 72.3822 53.4197 85.1021 55.0544 86.3493C56.6891 87.5964 63.0793 90.2154 68.4289 85.8508C68.4289 85.8508 70.0636 85.283 72.1438 73.0052C74.2239 60.7274 55.9453 72.3822 55.9453 72.3822H55.9466Z" fill="#FFD0B0"/>
<path d="M68.9332 43.198C68.9332 43.198 73.1852 53.6002 74.2247 60.7289C75.2654 67.8576 75.5934 76.8717 75.5934 76.8717C75.5934 76.8717 68.1688 73.5214 59.8468 75.1684L53.1299 76.5987C53.1299 76.5987 55.4993 63.6166 57.7292 56.801C59.9579 49.9854 65.5825 43.5447 68.9332 43.198Z" fill="#98C5F7"/>
<path d="M48.8906 61.0429C48.8906 61.0429 51.7249 88.8437 54.5049 90.2155C57.2849 91.5873 61.6325 94.1867 64.3634 92.8247C67.0931 91.4627 68.9356 85.2431 68.9356 85.2431C68.9356 85.2431 62.1502 73.5406 56.8201 64.6685C51.4899 55.7963 48.8919 61.0429 48.8919 61.0429H48.8906Z" fill="#FFE6D4"/>
<path d="M157.691 92.3825C157.691 92.3825 167.442 90.6369 169.321 90.6879C171.201 90.7388 170.671 99.3173 168.558 100.158C166.443 101 153.298 97.8957 153.298 97.8957L157.691 92.3815V92.3825Z" fill="#FFE6D4"/>
<path d="M157.653 93.2244C157.653 93.2244 164.06 88.5185 165.088 88.3039C166.116 88.0894 171.141 87.0936 171.219 87.9334C171.41 90.0322 168.32 89.3973 167.716 90.2283C167.112 91.0594 166.443 91.8212 166.443 91.8212L157.653 93.2244Z" fill="#FFE6D4"/>
<path d="M169.321 90.6878C169.321 90.6878 175.041 90.2057 177.424 91.8819C177.424 91.8819 178.455 92.6664 177.09 92.9752C175.725 93.284 171.978 92.2417 170.075 92.9828V93.3036C170.075 93.3036 177.84 93.3632 178.281 93.7446C178.721 94.1249 178.828 94.8086 177.087 95.0979C175.347 95.3872 170.788 94.9159 169.871 95.2626C169.871 95.2626 169.669 95.6484 170.027 95.7286C170.385 95.8087 177.067 95.4403 177.446 95.4945C177.826 95.5487 178.519 96.4903 177.223 96.9508C175.927 97.4113 170.053 97.5869 170.053 97.5869L169.915 98.0788C169.915 98.0788 175.033 98.0333 175.525 97.9531C176.017 97.8729 176.933 97.7526 177 97.9932C177.067 98.2337 178.073 99.5763 173.938 99.9577C169.804 100.338 167.703 100.296 167.703 100.296L167.592 94.6862L169.322 90.6868L169.321 90.6878Z" fill="#FFE6D4"/>
<path d="M161.887 95.7569C161.729 95.7569 161.592 95.6551 161.577 95.5185C161.562 95.3744 161.689 95.2476 161.86 95.2346C165.789 94.9345 165.97 92.4932 165.975 92.3892C165.983 92.2494 166.121 92.1389 166.287 92.1389C166.292 92.1389 166.296 92.1389 166.301 92.1389C166.472 92.1454 166.605 92.2657 166.599 92.4098C166.598 92.4401 166.405 95.4113 161.917 95.7548C161.908 95.7548 161.898 95.7548 161.889 95.7548L161.887 95.7569Z" fill="#FFB594"/>
<path d="M56.8189 64.6686C56.8189 64.6686 57.7925 52.9445 57.5769 51.1404C57.4516 50.0926 46.5911 51.9021 45.1217 52.717C42.8801 53.962 49.6371 67.3439 49.6371 67.3439L56.8176 64.6675L56.8189 64.6686Z" fill="#FFE6D4"/>
<path d="M56.5622 63.7973C56.5622 63.7973 61.1461 55.9296 61.3191 54.9186C61.4908 53.9076 62.2591 48.9742 61.106 48.9991C58.2266 49.0609 59.452 51.9486 58.3906 52.6258C57.3292 53.303 56.3711 54.0333 56.3711 54.0333L56.5622 63.7984V63.7973Z" fill="#FFE6D4"/>
<path d="M57.5767 51.1403C57.5767 51.1403 57.1054 45.6835 55.2254 43.4632C55.2254 43.4632 54.0104 42.5335 53.7495 43.8782C53.4887 45.2229 54.5488 48.4379 54.3719 50.2897L54.1369 50.4143C54.1369 50.4143 52.9761 42.6961 52.4067 42.3179C51.8372 41.9408 50.719 41.6082 50.5279 43.3105C50.3368 45.0127 51.5157 49.7056 51.1529 50.6245C51.1529 50.6245 50.976 51.0796 50.8249 50.7458C50.6738 50.4121 50.0682 44.2835 50.0824 43.9118C50.1328 42.6462 48.6117 42.1315 48.0888 43.6984C47.6524 45.0051 48.0991 51.2454 48.0991 51.2454H47.8086C47.8086 51.2454 46.9086 46.5232 46.9603 46.0421C47.0119 45.561 46.6271 44.6606 46.2927 44.6248C45.957 44.5891 44.4527 43.7894 44.4178 47.7975C44.383 51.8056 44.6864 53.8145 44.6864 53.8145L52.3356 53.2651L57.578 51.1392L57.5767 51.1403Z" fill="#FFE6D4"/>
<path d="M52.8537 58.3558C53.826 56.1768 54.54 55.2807 56.185 53.9772C56.5427 53.6944 56.606 52.4992 56.1334 52.3854C54.8641 52.081 52.0738 52.8514 48.8909 53.313C48.4661 53.3747 48.1446 54.0162 48.3809 54.3185L51.4191 58.6636C51.6812 58.9995 52.3372 59.512 52.8537 58.3558Z" fill="#FFD0B0"/>
<path d="M196.061 70.5115C197.145 70.7733 231.68 81.0185 231.68 81.0185L233.031 143.89L188.595 132.619L196.062 70.5128L196.061 70.5115Z" fill="#7A7979"/>
<path d="M137.346 137.98V149.576L198.683 161.171L237.256 149.246L237.51 140.939L137.346 137.98Z" fill="#7C7B7B"/>
<path d="M199.469 153.903L237.51 140.939L162.468 125.193L137.346 137.98L198.137 153.903H199.469Z" fill="#7C7B7B"/>
<path d="M129.193 206.562C127.28 206.811 125.456 206.385 123.928 205.309C121.597 203.67 120.188 200.673 120.06 197.088C119.945 193.849 120.864 190.454 122.647 187.531C124.46 184.56 126.958 182.414 129.681 181.488C132.224 180.624 134.722 180.921 136.716 182.324C139.047 183.963 140.455 186.96 140.583 190.545C140.698 193.785 139.78 197.18 137.997 200.102C136.184 203.073 133.685 205.22 130.962 206.145C130.368 206.347 129.776 206.485 129.192 206.561L129.193 206.562ZM131.484 183.633C131.055 183.688 130.617 183.792 130.173 183.942C125.743 185.448 122.299 191.169 122.496 196.693C122.596 199.526 123.667 201.863 125.432 203.106C126.874 204.12 128.616 204.322 130.472 203.692C134.902 202.187 138.345 196.466 138.149 190.942C138.048 188.109 136.978 185.771 135.213 184.529C134.117 183.758 132.846 183.456 131.484 183.633Z" fill="#333232"/>
<path d="M128.335 203.506L127.518 203.204L135.163 185.026L135.98 185.326L128.335 203.506Z" fill="#333232"/>
<path d="M135.525 202.137L126.338 186.882L127.114 186.304L136.301 201.559L135.525 202.137Z" fill="#333232"/>
<path d="M124.427 196.743L124.245 195.836L141.939 189.822L142.121 190.73L124.427 196.743Z" fill="#333232"/>
<path d="M131.143 204.596C129.578 204.799 128.085 204.451 126.836 203.572C124.925 202.228 123.769 199.767 123.664 196.821C123.569 194.154 124.325 191.359 125.794 188.952C127.284 186.51 129.335 184.746 131.57 183.987C133.651 183.28 135.695 183.523 137.325 184.67C139.237 186.014 140.392 188.475 140.497 191.42C140.592 194.088 139.836 196.883 138.368 199.29C136.877 201.732 134.826 203.496 132.591 204.254C132.104 204.42 131.62 204.533 131.142 204.595L131.143 204.596ZM133.022 185.547C132.664 185.593 132.3 185.679 131.935 185.802C128.202 187.07 125.3 191.882 125.466 196.529C125.551 198.917 126.456 200.89 127.949 201.94C129.156 202.79 130.676 202.967 132.228 202.439C135.961 201.171 138.862 196.359 138.697 191.713C138.612 189.324 137.706 187.352 136.214 186.302C135.291 185.652 134.185 185.395 133.022 185.547Z" fill="#333232"/>
<path d="M130.693 206.77C128.78 207.019 126.956 206.593 125.428 205.517C123.097 203.878 121.688 200.881 121.56 197.296C121.445 194.057 122.364 190.662 124.147 187.739C125.96 184.768 128.458 182.622 131.181 181.696C133.724 180.832 136.222 181.129 138.216 182.532C140.547 184.171 141.955 187.167 142.083 190.753C142.198 193.993 141.28 197.388 139.497 200.31C137.684 203.282 135.185 205.428 132.462 206.353C131.868 206.555 131.276 206.693 130.692 206.769L130.693 206.77ZM132.984 183.841C132.555 183.896 132.117 184 131.673 184.15C127.243 185.656 123.799 191.377 123.996 196.901C124.096 199.734 125.167 202.071 126.932 203.312C128.374 204.326 130.116 204.529 131.972 203.899C136.402 202.393 139.845 196.673 139.649 191.148C139.548 188.315 138.478 185.978 136.713 184.737C135.617 183.966 134.346 183.664 132.984 183.841Z" fill="#333232"/>
<path d="M131.547 204.606C130.025 204.804 128.575 204.465 127.358 203.61C125.502 202.303 124.378 199.914 124.276 197.053C124.185 194.462 124.918 191.75 126.343 189.414C127.791 187.042 129.783 185.33 131.955 184.592C133.977 183.904 135.966 184.14 137.553 185.257C139.409 186.563 140.533 188.953 140.635 191.814C140.726 194.405 139.993 197.117 138.568 199.453C137.12 201.825 135.128 203.537 132.956 204.275C132.483 204.435 132.012 204.546 131.547 204.606ZM133.366 186.16C133.022 186.205 132.672 186.288 132.319 186.407C128.718 187.631 125.917 192.275 126.077 196.761C126.16 199.066 127.032 200.969 128.471 201.98C129.634 202.798 131.098 202.968 132.592 202.46C136.193 201.236 138.994 196.59 138.834 192.106C138.751 189.801 137.879 187.898 136.44 186.887C135.551 186.262 134.486 186.015 133.366 186.16Z" fill="#333232"/>
<path d="M125.495 197.842L125.131 196.027L140.112 190.935L140.476 192.75L125.495 197.842Z" fill="#333232"/>
<path d="M136.056 201.656L127.999 188.277L129.551 187.12L137.608 200.5L136.056 201.656Z" fill="#333232"/>
<path d="M129.797 203.78L128.164 203.176L135.809 184.998L137.443 185.6L129.797 203.78Z" fill="#333232"/>
<path d="M197.48 64.5149C195.614 64.5149 193.959 63.189 193.618 61.2996C193.235 59.1767 194.655 57.1461 196.789 56.7649L210.453 54.3236C212.588 53.9424 214.632 55.3543 215.015 57.476C215.399 59.5989 213.98 61.6295 211.844 62.0107L198.18 64.452C197.945 64.4943 197.711 64.5149 197.48 64.5149Z" fill="#7A7979"/>
<path d="M136.55 192.51C135.08 192.51 133.887 191.329 133.882 189.869L133.674 134.316C133.573 133.525 133.298 130.779 133.854 127.775C134.255 125.607 135.004 123.731 136.082 122.197C137.509 120.166 139.465 118.775 141.895 118.061C148.823 116.027 178.762 107.308 186.67 105.005V71.2483C186.665 70.8581 186.676 68.4232 187.592 65.7624C188.977 61.7373 191.821 59.1625 195.595 58.5156C197.046 58.2666 198.427 59.2344 198.677 60.6784C198.928 62.1211 197.954 63.4932 196.501 63.7422C195.825 63.859 193.764 64.2119 192.639 67.4798C191.991 69.364 192.004 71.1636 192.004 71.1815C192.004 71.1969 192.004 71.2136 192.004 71.229V106.991C192.004 108.168 191.223 109.205 190.087 109.536C189.7 109.649 151.36 120.812 143.406 123.148C137.709 124.82 138.964 133.645 138.977 133.735C138.998 133.865 139.007 133.991 139.007 134.123L139.215 189.849C139.22 191.314 138.031 192.505 136.557 192.511C136.554 192.511 136.551 192.511 136.547 192.511L136.55 192.51Z" fill="white"/>
<path d="M239.702 72.5369C237.836 72.5369 236.181 71.211 235.84 69.3216C235.456 67.1986 236.877 65.1681 239.011 64.7869L252.675 62.3456C254.811 61.9644 256.853 63.3763 257.237 65.498C257.62 67.6209 256.201 69.6515 254.066 70.0327L240.402 72.474C240.167 72.5163 239.933 72.5369 239.702 72.5369Z" fill="#7A7979"/>
<path d="M127.808 186.624V191.174L174.405 201.219L189.12 191.617V187.444L174.373 196.362L127.808 186.624Z" fill="#4C4B4B"/>
<path d="M143.785 179.078L127.808 186.624L174.373 196.362L189.061 187.444L143.785 179.078Z" fill="#7C7B7B"/>
<path d="M149.438 178.027C149.438 178.027 141.414 183.914 141.265 188.504C141.117 193.094 148.101 193.981 151.817 191.764C155.532 189.549 157.762 188.504 157.762 188.504C157.762 188.504 155.682 192.728 159.545 194.535C163.408 196.344 172.474 191.742 176.04 188.504C179.607 185.264 178.418 178.027 178.418 178.027H149.438Z" fill="#C9C7C7"/>
<path d="M183.058 119.305C183.058 119.305 150.186 124.569 145.109 133.36C140.032 142.151 146.506 178.625 146.506 178.625C146.506 178.625 147.863 183.039 159.211 180.84C159.211 180.84 176.529 183.538 183.392 179.077C183.392 179.077 180.242 158.639 185.42 150.322C190.577 142.038 231.097 154.311 217.381 120.172C214.304 112.513 183.057 119.304 183.057 119.304L183.058 119.305Z" fill="#586675"/>
<path d="M188.583 67.2924C188.583 67.2924 186.975 71.7013 193.683 71.2739C193.683 71.2739 198.511 70.4371 199.992 65.7458L200.748 64.4661C200.748 64.4661 214.432 68.4091 216.57 70.4666C218.709 72.5254 218.257 103.308 217.358 106.959C216.459 110.609 218.348 129.093 213.75 127.728C194.578 122.034 177.733 123.743 168.615 122.344C168.615 122.344 166.6 114.358 168.894 112.366C175.74 106.42 172.603 92.9438 173.13 88.7865C173.656 84.6291 173.556 76.6981 175.74 71.9183C177.925 67.1371 188.584 67.2924 188.584 67.2924H188.583Z" fill="#F48E5A"/>
<path d="M177.997 69.4885C177.997 69.4885 171.242 72.7551 170.033 80.1111C168.825 87.4657 166.43 99.9943 166.43 99.9943L178.34 102.783L177.997 69.4885Z" fill="#F48E5A"/>
<path d="M214.943 69.4476C214.943 69.4476 222.375 69.8942 224.279 78.9753C226.184 88.0563 228.635 102.83 228.635 102.83L221.834 104.044L213.491 95.7048L214.943 69.4463V69.4476Z" fill="#F48D5F"/>
<path d="M187.114 67.9984C187.114 67.9984 187.849 71.4306 192.607 71.4845C197.367 71.5384 199.258 68.5632 199.63 66.0654L187.114 67.9984Z" fill="#FFD0B0"/>
<path d="M191.217 76.5414C190.594 76.5414 189.986 76.5017 189.405 76.4259C186.728 76.0807 185.616 74.38 185.155 73.013C184.671 71.5767 184.8 70.2354 184.806 70.179C184.834 69.9146 185.071 69.7208 185.338 69.7477C185.604 69.7747 185.798 70.0108 185.772 70.2752C185.753 70.4652 185.36 74.9306 189.53 75.4684C193.716 76.0088 199.409 74.611 201.68 68.8916C201.778 68.6439 202.061 68.5219 202.309 68.6208C202.558 68.7183 202.681 68.9981 202.581 69.2458C200.424 74.6803 195.457 76.5389 191.217 76.5402V76.5414Z" fill="#E57846"/>
<path d="M140.613 111.94C140.613 111.94 139.382 108.069 141.46 107.381C143.537 106.693 161.241 103.351 163.121 102.662C165.001 101.972 166.532 99.7556 166.532 99.7556C166.532 99.7556 177.956 100.677 176.67 105.847C175.384 111.017 150.263 120.75 148.68 120.849C147.097 120.948 147.017 119.969 147.017 119.969C147.017 119.969 145.796 112.763 140.612 111.94H140.613Z" fill="url(#paint0_linear_8737_25721)"/>
<path d="M143.815 109.807C143.815 109.807 147.512 109.559 148.926 112.147C150.34 114.734 148.053 117.627 148.053 117.627C148.053 117.627 144.022 121.429 141.004 121.975L139.229 122.377C139.229 122.377 136.404 122.572 137.43 121.043C138.457 119.514 140.009 118.584 140.009 118.584L140.439 117.684C140.439 117.684 137.067 118.552 135.723 120.91C134.379 123.267 133.831 122.851 133.262 122.939C132.693 123.026 131.438 122.018 132.064 120.585C132.064 120.585 130.727 120.134 131.657 118.209C132.588 116.282 136.157 112.11 140.869 110.287L143.815 109.807Z" fill="#FFE6D4"/>
<path d="M132.785 119.785C132.73 119.785 132.673 119.771 132.621 119.743C132.457 119.652 132.398 119.446 132.489 119.283C132.536 119.201 133.639 117.246 135.166 116.182C135.32 116.076 135.532 116.113 135.639 116.266C135.746 116.418 135.708 116.629 135.555 116.736C134.154 117.711 133.092 119.591 133.082 119.611C133.02 119.721 132.904 119.784 132.785 119.784V119.785Z" fill="#FFB594"/>
<path d="M151.422 116.372C151.351 116.372 151.28 116.357 151.211 116.325C150.97 116.209 150.868 115.922 150.984 115.682C150.99 115.666 151.76 114.003 151.308 111.306C150.895 108.844 148.432 108.763 148.328 108.761C148.061 108.754 147.847 108.535 147.853 108.27C147.858 108.005 148.081 107.789 148.343 107.797C149.508 107.814 151.826 108.536 152.263 111.148C152.77 114.168 151.894 116.023 151.857 116.101C151.773 116.273 151.6 116.375 151.419 116.375L151.422 116.372Z" fill="#E57846"/>
<path d="M179.946 43.1582C179.946 43.1582 177.698 46.9882 178.301 51.8092C178.904 56.6314 177.584 59.3333 178.777 61.8644C180.083 64.633 183.821 68.9084 193.785 68.4168C193.785 68.4168 201.092 68.1255 204.654 64.7793C204.654 64.7793 207.377 60.7759 208.511 54.6715C209.644 48.5683 209.497 34.511 201.52 33.5227C193.543 32.5344 182.326 30.9633 179.946 43.1569V43.1582Z" fill="#FFE6D4"/>
<path d="M186.819 53.5932C186.75 54.2157 186.233 54.6701 185.664 54.6085C185.095 54.5456 184.69 53.9911 184.76 53.3673C184.829 52.7448 185.346 52.2904 185.915 52.352C186.484 52.4149 186.889 52.9694 186.819 53.5932Z" fill="#494848"/>
<path d="M182.917 51.2969C182.686 51.2969 182.457 51.1866 182.316 50.9825C182.089 50.6526 182.173 50.2034 182.505 49.9775C182.599 49.9133 184.848 48.409 187.693 49.1239C188.083 49.2215 188.318 49.6155 188.22 50.0018C188.122 50.3882 187.725 50.6244 187.337 50.5255C185.123 49.9698 183.347 51.1583 183.329 51.1699C183.203 51.2559 183.059 51.2969 182.918 51.2969H182.917Z" fill="#C4C2C2"/>
<path d="M197.675 54.3928C197.605 55.0153 197.089 55.4696 196.519 55.408C195.951 55.3451 195.546 54.7907 195.614 54.1669C195.684 53.5443 196.2 53.09 196.77 53.1516C197.338 53.2145 197.743 53.769 197.675 54.3928Z" fill="#494848"/>
<path d="M200.368 52.7539C200.174 52.7539 199.98 52.6769 199.837 52.5254C199.811 52.4985 198.317 50.9621 196.065 51.025C196.059 51.025 196.051 51.025 196.045 51.025C195.652 51.025 195.328 50.7144 195.318 50.3216C195.306 49.9224 195.624 49.59 196.025 49.5784C198.955 49.4963 200.822 51.4537 200.901 51.5371C201.175 51.8298 201.158 52.2867 200.864 52.5588C200.723 52.6884 200.546 52.7526 200.368 52.7526V52.7539Z" fill="#C4C2C2"/>
<path d="M190.465 58.6144C189.492 58.6144 188.637 57.8789 188.596 57.843L188.559 57.8109L188.532 57.7711C188.2 57.2911 188.106 56.7879 188.252 56.2784C188.618 54.9923 190.452 54.1657 190.531 54.131C190.726 54.0437 190.956 54.131 191.044 54.3261C191.132 54.5212 191.044 54.7484 190.847 54.8357C190.408 55.0308 189.219 55.7098 188.998 56.4889C188.922 56.7584 188.97 57.0215 189.146 57.2936C189.421 57.517 190.144 57.9714 190.735 57.8083C190.942 57.7519 191.156 57.8712 191.213 58.0766C191.27 58.282 191.15 58.495 190.943 58.5515C190.783 58.5951 190.624 58.6144 190.467 58.6144H190.465Z" fill="#FFBDA3"/>
<path d="M199.631 56.2258C199.507 56.2258 199.387 56.1578 199.328 56.0397C199.22 55.8292 198.682 55.4236 198.35 55.2169C198.191 55.1181 198.143 54.9089 198.244 54.751C198.344 54.5931 198.554 54.5456 198.713 54.6457C198.877 54.7484 199.705 55.2824 199.934 55.7367C200.018 55.9036 199.951 56.1064 199.783 56.1898C199.734 56.2142 199.683 56.2258 199.631 56.2258Z" fill="#FFBDA3"/>
<path d="M181.906 55.1258C181.799 55.1258 181.695 55.0758 181.628 54.9821C181.52 54.8293 181.558 54.6188 181.711 54.5123C182.614 53.8847 183.657 53.8436 183.701 53.841C183.887 53.8346 184.046 53.9809 184.052 54.167C184.059 54.3532 183.912 54.5085 183.726 54.5162C183.717 54.5162 182.835 54.5559 182.103 55.0655C182.043 55.1066 181.976 55.1271 181.908 55.1271L181.906 55.1258Z" fill="#FFBDA3"/>
<path d="M188.202 60.4986L194.048 60.7501C194.222 60.7578 194.356 61.0043 194.349 61.3085C194.32 62.325 194.014 64.4596 192.009 65.0949C189.623 65.8509 188.082 63.4225 187.846 61.2315C187.805 60.8515 187.979 60.487 188.202 60.4973V60.4986Z" fill="#FF997D"/>
<path d="M197.818 64.2453C197.685 64.2453 197.567 64.1554 197.536 64.0206C196.748 60.6347 194.11 59.3781 194.083 59.3666C193.937 59.2998 193.874 59.1278 193.941 58.9828C194.008 58.8377 194.181 58.7748 194.327 58.8416C194.446 58.8955 197.249 60.2188 198.103 63.891C198.139 64.0463 198.041 64.2016 197.884 64.2376C197.862 64.2427 197.84 64.2453 197.818 64.2453Z" fill="#FFBDA3"/>
<path d="M184.269 62.9566C184.224 62.9566 184.178 62.9464 184.135 62.9233C183.993 62.8488 183.937 62.6742 184.011 62.5331C185.606 59.4898 187.371 58.7068 187.446 58.6748C187.593 58.6119 187.765 58.6786 187.828 58.8262C187.891 58.9725 187.824 59.142 187.677 59.2061C187.656 59.2151 186.014 59.9634 184.528 62.8C184.476 62.8989 184.374 62.9553 184.269 62.9553V62.9566Z" fill="#FFBDA3"/>
<path d="M175.998 52.1095C175.998 52.1095 180.392 53.8166 183.233 47.5542C183.233 47.5542 189.978 47.4027 192.675 43.1016C192.675 43.1016 195.77 48.9507 200.682 49.6618C200.682 49.6618 201.17 53.0606 205.943 53.7627C205.943 53.7627 207.184 57.6415 210.786 55.928C212.285 55.2143 215.156 50.3626 213.277 48.4219C213.277 48.4219 215.012 44.629 212.491 41.2533C212.491 41.2533 214.635 32.7204 204.254 32.6203C204.254 32.6203 200.69 26.6557 193.901 29.8325C193.901 29.8325 189.007 26.7122 184.276 31.1006C184.276 31.1006 179.837 30.5268 178.405 35.6212C178.405 35.6212 172.083 38.2293 175.197 43.8474C175.197 43.8474 171.829 48.6029 175.999 52.1082L175.998 52.1095Z" fill="#C4C2C2"/>
<path d="M206.244 55.2284C206.244 55.2284 210.736 50.1019 212.219 54.9408C213.35 58.631 210.125 64.3992 205.364 63.1375C205.364 63.1375 203.741 58.9442 206.244 55.2284Z" fill="#FFE6D4"/>
<path d="M178.771 200.531C177.302 200.531 176.109 195.098 176.104 193.636L175.896 142.337C175.795 141.546 175.52 138.799 176.075 135.796C176.477 133.628 177.226 131.751 178.304 130.218C179.731 128.187 181.687 126.796 184.117 126.082C191.044 124.048 220.984 115.329 228.892 113.026V79.269C228.886 78.8788 228.898 76.444 229.814 73.7832C231.199 69.758 234.042 67.1833 237.817 66.5364C239.269 66.2874 240.648 67.2551 240.899 68.6991C241.149 70.1418 240.176 71.5139 238.723 71.7629C238.046 71.8797 235.986 72.2327 234.861 75.5006C234.213 77.3848 234.226 79.1843 234.226 79.2023C234.226 79.2177 234.226 79.2344 234.226 79.2498V115.012C234.226 116.189 233.444 117.226 232.308 117.557C231.922 117.67 193.582 128.833 185.628 131.169C179.931 132.841 181.186 141.665 181.199 141.755C181.22 141.886 181.229 142.012 181.229 142.144L181.436 193.616C181.442 195.081 180.252 196.272 178.779 196.279C178.775 196.279 178.773 200.532 178.769 200.532L178.771 200.531Z" fill="#E0E0E0"/>
<path d="M179.013 218.081C177.099 218.33 175.276 217.904 173.747 216.828C171.416 215.189 170.008 212.192 169.88 208.607C169.765 205.367 170.683 201.972 172.466 199.05C174.279 196.078 176.777 193.932 179.501 193.007C182.043 192.143 184.542 192.44 186.535 193.842C188.866 195.482 190.275 198.479 190.403 202.063C190.517 205.303 189.599 208.698 187.816 211.621C186.003 214.592 183.505 216.738 180.782 217.664C180.188 217.865 179.595 218.004 179.011 218.079L179.013 218.081ZM181.303 195.152C180.875 195.207 180.437 195.311 179.993 195.461C175.562 196.967 172.119 202.687 172.315 208.212C172.416 211.044 173.486 213.382 175.251 214.624C176.694 215.638 178.435 215.841 180.291 215.211C184.721 213.705 188.165 207.984 187.969 202.46C187.868 199.627 186.797 197.29 185.032 196.048C183.936 195.276 182.665 194.975 181.303 195.152Z" fill="#333232"/>
<path d="M178.154 215.025L177.338 214.723L184.983 196.543L185.799 196.845L178.154 215.025Z" fill="#333232"/>
<path d="M185.345 213.655L176.159 198.4L176.934 197.823L186.121 213.078L185.345 213.655Z" fill="#333232"/>
<path d="M174.246 208.262L174.065 207.354L191.758 201.341L191.94 202.248L174.246 208.262Z" fill="#333232"/>
<path d="M180.963 216.114C179.398 216.317 177.906 215.969 176.656 215.09C174.745 213.746 173.589 211.286 173.485 208.34C173.389 205.673 174.146 202.877 175.614 200.471C177.104 198.028 179.156 196.265 181.391 195.506C183.471 194.799 185.515 195.041 187.146 196.189C189.057 197.533 190.212 199.993 190.317 202.939C190.413 205.606 189.656 208.402 188.188 210.808C186.698 213.251 184.646 215.014 182.411 215.773C181.924 215.939 181.44 216.051 180.962 216.113L180.963 216.114ZM182.842 197.065C182.484 197.112 182.12 197.198 181.755 197.321C178.022 198.589 175.121 203.401 175.286 208.047C175.371 210.436 176.276 212.409 177.769 213.459C178.976 214.308 180.496 214.486 182.048 213.958C185.781 212.69 188.682 207.878 188.517 203.232C188.432 200.843 187.527 198.87 186.034 197.82C185.111 197.171 184.006 196.914 182.842 197.065Z" fill="#333232"/>
<path d="M180.515 218.289C178.601 218.538 176.778 218.112 175.249 217.036C172.918 215.397 171.51 212.4 171.382 208.815C171.267 205.575 172.185 202.18 173.968 199.258C175.781 196.286 178.279 194.14 181.003 193.215C183.545 192.351 186.044 192.648 188.037 194.05C190.368 195.69 191.777 198.685 191.904 202.271C192.019 205.511 191.101 208.906 189.318 211.829C187.505 214.8 185.007 216.946 182.284 217.872C181.69 218.073 181.097 218.212 180.513 218.287L180.515 218.289ZM182.805 195.36C182.376 195.415 181.939 195.519 181.495 195.669C177.064 197.175 173.621 202.895 173.817 208.42C173.918 211.252 174.988 213.59 176.753 214.831C178.195 215.845 179.937 216.048 181.793 215.417C186.223 213.912 189.667 208.191 189.47 202.667C189.37 199.834 188.299 197.497 186.534 196.256C185.438 195.484 184.167 195.183 182.805 195.36Z" fill="#333232"/>
<path d="M181.367 216.125C179.845 216.322 178.395 215.983 177.179 215.129C175.322 213.822 174.199 211.432 174.097 208.571C174.005 205.981 174.738 203.269 176.164 200.933C177.611 198.561 179.604 196.849 181.775 196.111C183.798 195.423 185.786 195.659 187.373 196.775C189.23 198.082 190.353 200.472 190.455 203.333C190.547 205.923 189.813 208.635 188.388 210.971C186.94 213.343 184.948 215.055 182.776 215.794C182.304 215.954 181.832 216.064 181.367 216.125ZM183.187 197.679C182.842 197.724 182.492 197.806 182.14 197.925C178.538 199.15 175.738 203.795 175.898 208.28C175.98 210.585 176.852 212.487 178.292 213.499C179.454 214.316 180.918 214.487 182.412 213.979C186.013 212.754 188.814 208.109 188.654 203.624C188.571 201.319 187.7 199.417 186.26 198.405C185.372 197.78 184.306 197.534 183.187 197.679Z" fill="#333232"/>
<path d="M175.315 209.359L174.952 207.544L189.933 202.454L190.296 204.269L175.315 209.359Z" fill="#333232"/>
<path d="M185.877 213.174L177.818 199.795L179.37 198.639L187.429 212.018L185.877 213.174Z" fill="#333232"/>
<path d="M179.616 215.298L177.984 214.695L185.628 196.515L187.262 197.118L179.616 215.298Z" fill="#333232"/>
<path d="M234.217 114.683H229.269V173.097H234.217V114.683Z" fill="#9E9C9C"/>
<path d="M212.71 203.21C206.104 204.067 199.806 202.597 194.528 198.885C186.481 193.226 181.613 182.878 181.173 170.496C180.774 159.306 183.947 147.586 190.105 137.494C196.364 127.235 204.991 119.825 214.395 116.627C223.173 113.645 231.801 114.669 238.69 119.514C246.737 125.175 251.604 135.521 252.045 147.903C252.444 159.093 249.271 170.813 243.113 180.906C236.853 191.165 228.227 198.575 218.823 201.772C216.771 202.469 214.726 202.948 212.711 203.21H212.71ZM220.619 124.031C219.138 124.223 217.626 124.58 216.091 125.101C200.793 130.301 188.9 150.053 189.579 169.133C189.928 178.916 193.623 186.987 199.719 191.275C204.698 194.778 210.716 195.478 217.122 193.301C232.419 188.101 244.313 168.349 243.634 149.268C243.285 139.485 239.59 131.414 233.494 127.125C229.707 124.462 225.319 123.419 220.618 124.03L220.619 124.031Z" fill="#545353"/>
<path d="M209.743 192.656L206.924 191.617L233.324 128.839L236.143 129.88L209.743 192.656Z" fill="#7F7D7D"/>
<path d="M234.577 187.929L202.852 135.252L205.531 133.256L237.256 185.933L234.577 187.929Z" fill="#7F7D7D"/>
<path d="M196.253 169.304L195.625 166.169L256.723 145.406L257.351 148.539L196.253 169.304Z" fill="#7F7D7D"/>
<path d="M219.444 196.42C214.04 197.122 208.887 195.919 204.571 192.883C197.972 188.242 193.98 179.746 193.618 169.576C193.29 160.364 195.903 150.713 200.972 142.403C206.117 133.969 213.202 127.88 220.921 125.257C228.104 122.815 235.162 123.653 240.796 127.616C247.394 132.257 251.387 140.753 251.748 150.923C252.076 160.135 249.464 169.786 244.395 178.096C239.249 186.53 232.164 192.619 224.445 195.243C222.765 195.814 221.092 196.205 219.443 196.42H219.444ZM225.933 130.641C224.696 130.801 223.441 131.095 222.179 131.524C209.29 135.905 199.269 152.521 199.839 168.567C200.134 176.816 203.259 183.628 208.413 187.254C212.583 190.187 217.831 190.799 223.191 188.976C236.08 184.596 246.102 167.979 245.53 151.934C245.235 143.684 242.11 136.873 236.956 133.247C233.768 131.004 229.95 130.119 225.933 130.641Z" fill="#777676"/>
<path d="M217.893 203.931C211.287 204.788 204.988 203.319 199.711 199.607C191.664 193.946 186.796 183.6 186.356 171.218C185.957 160.028 189.129 148.308 195.287 138.215C201.547 127.956 210.174 120.546 219.578 117.349C228.356 114.366 236.985 115.39 243.872 120.236C251.919 125.896 256.787 136.243 257.227 148.625C257.626 159.815 254.454 171.535 248.296 181.627C242.036 191.886 233.409 199.296 224.005 202.493C221.954 203.19 219.908 203.669 217.894 203.931H217.893ZM225.802 124.751C224.32 124.944 222.808 125.299 221.273 125.822C205.976 131.021 194.083 150.773 194.762 169.854C195.11 179.638 198.806 187.708 204.902 191.997C209.881 195.499 215.899 196.2 222.305 194.022C237.602 188.824 249.494 169.069 248.816 149.99C248.468 140.207 244.772 132.136 238.676 127.849C234.889 125.186 230.502 124.143 225.8 124.754L225.802 124.751Z" fill="#7C7B7B"/>
<path d="M220.839 196.457C215.584 197.14 210.574 195.971 206.376 193.018C199.964 188.508 196.084 180.255 195.733 170.374C195.414 161.431 197.95 152.063 202.872 143.996C207.869 135.806 214.751 129.892 222.251 127.343C229.235 124.969 236.099 125.784 241.578 129.637C247.99 134.148 251.87 142.401 252.221 152.282C252.54 161.225 250.004 170.592 245.082 178.659C240.085 186.85 233.203 192.764 225.704 195.313C224.07 195.868 222.443 196.249 220.839 196.457ZM227.121 132.758C225.93 132.913 224.721 133.195 223.506 133.609C211.069 137.835 201.4 153.876 201.951 169.365C202.234 177.323 205.248 183.892 210.217 187.388C214.231 190.211 219.285 190.8 224.447 189.046C236.884 184.819 246.553 168.779 246.002 153.289C245.719 145.331 242.705 138.762 237.736 135.267C234.667 133.108 230.99 132.256 227.123 132.758H227.121Z" fill="#9E9C9C"/>
<path d="M199.939 173.095L198.684 166.828L250.415 149.246L251.672 155.513L199.939 173.095Z" fill="#9E9C9C"/>
<path d="M236.411 186.268L208.586 140.066L213.945 136.074L241.769 182.275L236.411 186.268Z" fill="#9E9C9C"/>
<path d="M214.797 193.601L209.158 191.519L235.559 128.741L241.197 130.823L214.797 193.601Z" fill="#9E9C9C"/>
<path d="M204.058 46.0434C204.058 46.0434 204.05 46.0434 204.047 46.0434C203.832 46.037 203.664 45.8599 203.669 45.6481C203.669 45.6301 203.702 43.8447 202.591 43.2222C202.404 43.117 202.338 42.8821 202.444 42.6973C202.55 42.5124 202.786 42.4457 202.972 42.5509C204.493 43.4032 204.448 45.5775 204.446 45.6699C204.439 45.8791 204.267 46.0447 204.058 46.0447V46.0434Z" fill="#AFADAD"/>
<path d="M199.658 39.4244C199.476 39.4244 199.313 39.296 199.277 39.1112C199.265 39.0547 199.003 37.8238 197.692 37.5337C197.483 37.4875 197.352 37.2809 197.398 37.0729C197.444 36.865 197.651 36.7341 197.86 36.7803C199.682 37.182 200.026 38.8943 200.04 38.9661C200.08 39.1753 199.94 39.3769 199.73 39.4167C199.705 39.4218 199.682 39.4231 199.658 39.4231V39.4244Z" fill="#AFADAD"/>
<path d="M206.752 40.65C206.739 40.65 206.727 40.65 206.714 40.6488C206.501 40.6282 206.345 40.4408 206.364 40.229C206.371 40.1584 206.491 38.5502 204.845 38.1895C204.635 38.1433 204.504 37.9379 204.549 37.73C204.595 37.5221 204.802 37.3911 205.011 37.4361C206.872 37.8442 207.215 39.4884 207.137 40.3009C207.117 40.4999 206.948 40.65 206.75 40.65H206.752Z" fill="#AFADAD"/>
<path d="M226.663 81.5293C226.663 81.5293 229.004 82.3919 228.448 86.3426C228.448 86.3426 232.953 99.1176 230.884 109.333C228.816 119.549 220.291 116.32 218.504 116.363C214.985 116.449 212.201 111.714 215.236 93.7948C218.757 72.999 222.547 80.8401 222.547 80.8401L226.662 81.528L226.663 81.5293Z" fill="#F9955B"/>
<path d="M224.454 76.317C224.454 76.317 223.811 73.0196 225.688 71.8374C227.566 70.6566 227.877 71.6539 228.013 72.415C228.148 73.1762 227.776 75.8742 228.02 76.9267C228.264 77.9791 224.454 76.3157 224.454 76.3157V76.317Z" fill="#FFE6D4"/>
<path d="M227.917 76.9061C227.917 76.9061 224.804 74.3942 222.303 74.289C219.802 74.1837 219.855 76.4235 219.855 76.4235C219.855 76.4235 218.714 76.8086 218.459 78.6119C218.459 78.6119 217.612 79.3769 217.761 80.8876C217.761 80.8876 216.938 81.7669 217.274 83.0363C217.608 84.3057 219.02 84.3853 219.51 84.5059C219.51 84.5059 218.891 85.1451 219.61 86.2438C220.329 87.3425 223.871 87.8174 224.919 86.7406C225.968 85.6637 227.54 81.8375 227.81 79.984C228.262 76.8753 227.917 76.9061 227.917 76.9061Z" fill="#FFE6D4"/>
<path d="M223.856 78.0047C223.79 78.0047 223.723 77.9854 223.663 77.9456C222.495 77.1473 220.795 77.087 220.779 77.0857C220.591 77.0805 220.444 76.9239 220.449 76.7378C220.455 76.5517 220.607 76.4054 220.798 76.4105C220.875 76.4131 222.712 76.476 224.048 77.3886C224.203 77.4938 224.242 77.7043 224.136 77.8584C224.07 77.9533 223.964 78.0047 223.856 78.0047Z" fill="#FFB594"/>
<path d="M222.741 80.0635C222.675 80.0635 222.608 80.0442 222.549 80.0044C221.377 79.2035 219.681 79.1457 219.664 79.1444C219.477 79.1393 219.33 78.984 219.335 78.7979C219.34 78.6118 219.495 78.4655 219.684 78.4706C219.761 78.4732 221.597 78.5361 222.934 79.4487C223.089 79.5539 223.127 79.7644 223.022 79.9184C222.956 80.0134 222.85 80.0647 222.741 80.0647V80.0635Z" fill="#FFB594"/>
<path d="M221.42 82.0697C221.349 82.0697 221.278 82.0479 221.217 82.003C220.308 81.3279 218.99 81.2829 218.977 81.2829C218.79 81.2778 218.641 81.1225 218.647 80.9364C218.652 80.7503 218.811 80.6027 218.995 80.6078C219.059 80.6091 220.545 80.6591 221.624 81.4613C221.774 81.573 221.805 81.7848 221.693 81.9337C221.625 82.0223 221.523 82.0697 221.42 82.0697Z" fill="#FFB594"/>
<path d="M222.065 90.9992C218.144 90.9992 217.418 87.2654 217.41 87.2269C217.362 86.9651 217.538 86.7135 217.801 86.666C218.064 86.6185 218.317 86.7918 218.364 87.0537C218.389 87.182 218.987 90.1521 222.26 90.0315C225.687 89.907 227.186 87.0614 227.2 87.0331C227.322 86.7957 227.615 86.702 227.852 86.8226C228.091 86.9433 228.185 87.2346 228.064 87.4708C227.993 87.6082 226.285 90.8504 222.295 90.9954C222.217 90.998 222.14 90.9992 222.064 90.9992H222.065Z" fill="#E57846"/>
<path d="M201.431 59.5002C202.729 59.5002 203.781 58.8686 203.781 58.0896C203.781 57.3105 202.729 56.679 201.431 56.679C200.133 56.679 199.081 57.3105 199.081 58.0896C199.081 58.8686 200.133 59.5002 201.431 59.5002Z" fill="#FFD5C9"/>
<path d="M181.683 58.5502C182.981 58.5502 184.033 57.9187 184.033 57.1396C184.033 56.3606 182.981 55.729 181.683 55.729C180.385 55.729 179.333 56.3606 179.333 57.1396C179.333 57.9187 180.385 58.5502 181.683 58.5502Z" fill="#FFD5C9"/>
</g>
</g>
<defs>
<linearGradient id="paint0_linear_8737_25721" x1="142.149" y1="115.629" x2="172.356" y2="102.52" gradientUnits="userSpaceOnUse">
<stop stop-color="#F9955B"/>
<stop offset="1" stop-color="#F48E5A"/>
</linearGradient>
<clipPath id="clip0_8737_25721">
<rect width="320" height="220" fill="white" transform="translate(0 0.732422)"/>
</clipPath>
<clipPath id="clip1_8737_25721">
<rect width="222" height="220" fill="white" transform="translate(44 0.732422)"/>
</clipPath>
</defs>
</svg>
