<svg width="24" height="30" viewBox="0 0 24 30" fill="none" xmlns="http://www.w3.org/2000/svg">
<g id="Group">
<path id="Vector" d="M12.1058 0.788361C12.1058 0.788361 12.0423 0.703705 12 0.661377C11.9577 0.724869 11.696 0.868813 11.5 1C7.30478 3.80836 5.5 4.5 0 6.90476V13.6772C0 26.3121 12 29.3386 12 29.3386C12 29.3386 24 26.3121 24 13.6772V6.90476C19.5 5 17 4 12.1058 0.788361Z" fill="url(#paint0_linear_3073_216)"/>
<path id="Vector_2" d="M9.03243 10C10.7668 10 11.5701 11.3084 11.9691 12.0888C12.3681 11.3084 13.1714 10 14.9058 10C16.6401 10 17.9489 11.2338 17.9489 13.2423C17.9489 15.2507 16.938 16.9666 15.741 18.2749C14.6132 19.5087 12.9214 20.754 11.9744 20.754C11.0275 20.754 9.33568 19.5087 8.20782 18.2749C7.00549 16.9666 6 15.1934 6 13.2423C6 11.2912 7.29809 10 9.03243 10Z" fill="white"/>
</g>
<defs>
<linearGradient id="paint0_linear_3073_216" x1="6.75" y1="5.73964" x2="21.1903" y2="23.3418" gradientUnits="userSpaceOnUse">
<stop stop-color="#FF8120"/>
<stop offset="1" stop-color="#E54304"/>
</linearGradient>
</defs>
</svg>
