<svg width="28" height="32" viewBox="0 0 28 32" fill="none" xmlns="http://www.w3.org/2000/svg">
<path d="M9.30221 20.993C12.1684 20.993 14.4919 18.808 14.4919 16.1127C14.4919 13.4174 12.1684 11.2324 9.30221 11.2324C6.43604 11.2324 4.11255 13.4174 4.11255 16.1127C4.11255 18.808 6.43604 20.993 9.30221 20.993Z" fill="#FFC77D"/>
<path d="M1.88003 31.2322C0.842097 31.2322 0 30.5139 0 29.6299C0 24.8602 4.1909 20.9375 9.30223 20.9375C14.4136 20.9375 18.6045 24.8417 18.6045 29.6299C18.6045 30.5139 17.7624 31.2322 16.7244 31.2322H1.89961H1.88003Z" fill="#EEEEEE"/>
<path d="M19.7115 0.586384C19.7115 0.586384 19.6683 0.528795 19.6395 0.5C19.6107 0.543192 19.5675 0.586384 19.5387 0.629577C18.243 2.91876 15.1475 4.57446 11.4762 4.74723V9.3544C11.4762 17.9496 19.6395 20.0085 19.6395 20.0085C19.6395 20.0085 27.8028 17.9496 27.8028 9.3544V4.74723C24.1027 4.57446 20.9929 2.90436 19.7115 0.586384Z" fill="url(#paint0_linear_872_967)"/>
<path d="M15.9969 10.3191L18.6461 13.1986L23.5844 8.34668" stroke="white" stroke-width="1.32924" stroke-linecap="round" stroke-linejoin="round"/>
<defs>
<linearGradient id="paint0_linear_872_967" x1="16.0681" y1="3.95463" x2="25.8915" y2="15.929" gradientUnits="userSpaceOnUse">
<stop stop-color="#FF8120"/>
<stop offset="1" stop-color="#E54304"/>
</linearGradient>
</defs>
</svg>
