<svg width="32" height="28" viewBox="0 0 32 28" fill="none" xmlns="http://www.w3.org/2000/svg">
<path d="M7.194 12.4836C6.58904 12.4836 6.04666 12.0612 5.91889 11.4458L4.82109 6.18381L1.01141 5.30767C0.309964 5.14601 -0.128111 4.44719 0.0335598 3.74576C0.19523 3.04433 0.894064 2.60627 1.59551 2.76793L6.21876 3.83181C6.7142 3.94654 7.10013 4.33767 7.20182 4.83571L8.46911 10.9139C8.61514 11.6179 8.16402 12.3089 7.45998 12.4575C7.37132 12.4758 7.28005 12.4862 7.19139 12.4862L7.194 12.4836Z" fill="#EEEEEE"/>
<path d="M11.4626 27.3001C9.87978 27.3001 8.59424 26.0145 8.59424 24.4318C8.59424 22.849 9.87978 21.5635 11.4626 21.5635C13.0454 21.5635 14.3309 22.849 14.3309 24.4318C14.3309 26.0145 13.0454 27.3001 11.4626 27.3001Z" fill="#EEEEEE"/>
<path d="M20.3284 27.3001C18.7456 27.3001 17.4601 26.0145 17.4601 24.4318C17.4601 22.849 18.7456 21.5635 20.3284 21.5635C21.9112 21.5635 23.1968 22.849 23.1968 24.4318C23.1968 26.0145 21.9112 27.3001 20.3284 27.3001Z" fill="#EEEEEE"/>
<path fill-rule="evenodd" clip-rule="evenodd" d="M7.39755 18.979L5.4914 9.58139L5.48879 9.57879C5.26454 8.47319 6.11201 7.44061 7.23849 7.44582L27.4317 7.51883C28.7537 7.52405 29.609 8.91386 29.0171 10.0951L25.0327 18.0585C24.313 19.4979 22.8423 20.4053 21.2334 20.4053H9.14203C8.29456 20.4053 7.56704 19.8082 7.39755 18.979ZM10.5397 15.2843C10.5397 16.004 11.1238 16.5881 11.8435 16.5881C12.5632 16.5881 13.1473 16.004 13.1473 15.2843V12.5699C13.1473 11.8502 12.5632 11.2661 11.8435 11.2661C11.1238 11.2661 10.5397 11.8502 10.5397 12.5699V15.2843ZM16.6153 16.5881C15.8956 16.5881 15.3115 16.004 15.3115 15.2843V12.5699C15.3115 11.8502 15.8956 11.2661 16.6153 11.2661C17.335 11.2661 17.9191 11.8502 17.9191 12.5699V15.2843C17.9191 16.004 17.335 16.5881 16.6153 16.5881ZM20.0835 15.2843C20.0835 16.004 20.6676 16.5881 21.3873 16.5881C22.107 16.5881 22.6911 16.004 22.6911 15.2843V12.5699C22.6911 11.8502 22.107 11.2661 21.3873 11.2661C20.6676 11.2661 20.0835 11.8502 20.0835 12.5699V15.2843Z" fill="#EEEEEE"/>
<path d="M24.5 15.4451C28.6421 15.4451 32 12.1441 32 8.07215C32 4.00019 28.6421 0.699219 24.5 0.699219C20.3579 0.699219 17 4.00019 17 8.07215C17 12.1441 20.3579 15.4451 24.5 15.4451Z" fill="url(#paint0_linear_6862_1146)"/>
<path d="M23.6662 11.7182C23.346 11.7066 23.046 11.5566 22.8325 11.3172L20.6806 8.89418C20.3489 8.52208 20.2652 7.96824 20.5219 7.54133C20.9489 6.82596 21.8864 6.7798 22.3912 7.34518L23.6402 8.74996L26.4614 5.03465C26.7642 4.63658 27.2892 4.44908 27.7594 4.61639C28.5441 4.89907 28.7691 5.80771 28.3104 6.41058L24.6354 11.2451C24.4277 11.5191 24.1104 11.6951 23.7671 11.7153C23.7325 11.7153 23.6979 11.7153 23.6633 11.7153L23.6662 11.7182Z" fill="#EEEEEE"/>
<defs>
<linearGradient id="paint0_linear_6862_1146" x1="21.2187" y1="3.31046" x2="28.2403" y2="13.7138" gradientUnits="userSpaceOnUse">
<stop stop-color="#FF8120"/>
<stop offset="1" stop-color="#E54304"/>
</linearGradient>
</defs>
</svg>
