<svg width="24" height="32" viewBox="0 0 24 32" fill="none" xmlns="http://www.w3.org/2000/svg">
<path d="M17.5633 12.9911C16.8567 12.9911 16.2832 12.4145 16.2832 11.7042V7.24891C16.2832 4.87329 14.3604 2.94294 11.9999 2.94294C9.63929 2.94294 7.71652 4.87587 7.71652 7.24891V11.7042C7.71652 12.4145 7.14302 12.9911 6.43639 12.9911C5.72975 12.9911 5.15625 12.4145 5.15625 11.7042V7.24891C5.15625 3.45513 8.22602 0.369141 11.9999 0.369141C15.7737 0.369141 18.8435 3.45513 18.8435 7.24891V11.7042C18.8435 12.4145 18.27 12.9911 17.5633 12.9911Z" fill="url(#paint0_linear_6862_1071)"/>
<path d="M17.0949 31.6309H6.9025C3.09025 31.6309 0 28.5244 0 24.692V11.2413C0 9.88746 1.09068 8.79102 2.43738 8.79102H21.5626C22.9093 8.79102 24 9.88746 24 11.2413V24.692C24 28.5244 20.9097 31.6309 17.0975 31.6309H17.0949Z" fill="#EEEEEE"/>
<g clip-path="url(#clip0_6862_1071)">
<path d="M5.54398 23.4645C5.42556 23.2157 5.064 23.2133 4.9418 23.4595L3.58248 26.1846C3.09872 26.9308 3.20833 27.9049 3.8483 28.5304C4.60292 29.268 5.82492 29.268 6.57827 28.5304C7.21699 27.9061 7.32785 26.9308 6.84409 26.1846L5.54524 23.4645H5.54398Z" fill="#1179FF"/>
<path d="M15.2809 24.5566C15.4182 24.5566 15.5568 24.5135 15.6727 24.4236C15.9486 24.2118 15.9965 23.8227 15.7798 23.553C14.9131 22.4756 13.613 21.8574 12.2121 21.8574C10.8112 21.8574 9.58036 22.4448 8.71488 23.4681C8.49189 23.7316 8.52969 24.1232 8.79928 24.3411C9.06888 24.5591 9.46949 24.5222 9.69248 24.2586C10.3161 23.521 11.2345 23.0987 12.2121 23.0987C13.1897 23.0987 14.1572 23.5444 14.782 24.3202C14.9068 24.4754 15.0932 24.5566 15.2809 24.5566Z" fill="black"/>
<path d="M19.2467 17.7925C19.2467 16.9047 18.5626 16.1855 17.7198 16.1855C16.877 16.1855 16.193 16.9047 16.193 17.7925C16.193 18.6803 16.877 19.4007 17.7198 19.4007C18.5626 19.4007 19.2467 18.6816 19.2467 17.7925Z" fill="black"/>
<path d="M5.23777 17.7925C5.23777 16.9047 5.92183 16.1855 6.76463 16.1855C7.60744 16.1855 8.2915 16.9047 8.2915 17.7925C8.2915 18.6803 7.60744 19.4007 6.76463 19.4007C5.92183 19.4007 5.23777 18.6816 5.23777 17.7925Z" fill="black"/>
</g>
<defs>
<linearGradient id="paint0_linear_6862_1071" x1="9.00578" y1="2.60427" x2="14.8638" y2="11.8568" gradientUnits="userSpaceOnUse">
<stop stop-color="#FF8120"/>
<stop offset="1" stop-color="#E54304"/>
</linearGradient>
<clipPath id="clip0_6862_1071">
<rect width="17.2277" height="15.5869" fill="white" transform="matrix(-1 0 0 1 20.509 13.4951)"/>
</clipPath>
</defs>
</svg>
