<svg width="109" height="30" viewBox="0 0 109 30" fill="none" xmlns="http://www.w3.org/2000/svg">
<path d="M3.8 7.34V19.86H11V22.22H1.4V7.34H3.8ZM13.3617 11.58H15.7617V22.26H13.3617V11.58ZM13.2617 7.78C13.2617 7.06 13.7217 6.48 14.5617 6.48C15.4217 6.48 15.8817 7.06 15.8817 7.78C15.8817 8.52 15.4217 9.1 14.5617 9.1C13.7217 9.1 13.2617 8.52 13.2617 7.78ZM25.7447 16.5C25.7447 14.98 24.8847 14.02 23.2647 14.02C21.8247 14.02 20.6847 15.16 20.7247 16.58V22.2H18.3247V11.66H20.7247V13.26C21.4247 12.26 22.3047 11.66 23.6047 11.66C25.4447 11.66 28.1447 13.08 28.1447 16.44V22.2H25.7447V16.5ZM32.745 6.92V16L36.545 11.72H39.765L35.625 16.34L39.625 22.26H36.745L33.885 18.08L32.745 19.48V22.26H30.345V6.92H32.745ZM56.695 7.34V9.7H52.515V22.22H50.115V9.7H45.895V7.34H56.695ZM64.1091 16.04C63.9091 14.7 63.0291 13.74 61.4491 13.74C59.9891 13.74 58.8091 14.5 58.5691 16.06L64.1091 16.04ZM56.3291 16.94C56.3291 14.04 58.1691 11.6 61.4291 11.6C64.7891 11.6 65.7891 14.32 65.8491 14.46C66.4891 16.08 66.3491 17.98 66.3491 17.98H58.5691C58.9291 19.28 59.9091 20.1 61.4491 20.1C63.3291 20.1 63.7491 19.06 63.8091 18.98L65.9091 19.92C65.9091 19.92 64.9491 22.26 61.4291 22.26C58.1691 22.26 56.3291 19.82 56.3291 16.94ZM77.9505 11.66L74.0305 16.94L77.8905 22.2H74.9305L72.5705 18.78L70.2305 22.2H67.2705L71.0705 16.94L67.1705 11.66H70.1505L72.5705 15.18L74.9505 11.66H77.9505ZM85.8806 21.94C85.4206 22.04 84.4006 22.22 83.6206 22.16C82.0606 22.04 80.4606 20.66 80.4606 18.78V13.9H78.6006V11.54H80.4606V7.8H82.8606V11.54H85.6806V13.9H82.8606V18.78C82.8606 19.42 83.2406 19.74 83.8406 19.78C84.2806 19.8 84.9806 19.68 85.3606 19.6L85.8806 21.94Z" fill="#333333"/>
<path d="M0 24.5H86.9006V25.5H0V24.5Z" fill="#333333"/>
<path fill-rule="evenodd" clip-rule="evenodd" d="M96.0581 9.55806C96.3021 9.31398 96.6979 9.31398 96.9419 9.55806L101.942 14.5581C102.186 14.8021 102.186 15.1979 101.942 15.4419L96.9419 20.4419C96.6979 20.686 96.3021 20.686 96.0581 20.4419C95.814 20.1979 95.814 19.8021 96.0581 19.5581L100.616 15L96.0581 10.4419C95.814 10.1979 95.814 9.80214 96.0581 9.55806Z" fill="#555555"/>
</svg>
