<svg width="497" height="146" viewBox="0 0 497 146" fill="none" xmlns="http://www.w3.org/2000/svg">
<path d="M5.17751 39.7564C3.03213 39.7564 1.21571 37.9686 1.21571 35.6372V29.3298H2.2455V35.6515C2.2455 37.4394 3.51842 38.7266 5.17751 38.7266C6.83661 38.7266 8.10953 37.4394 8.10953 35.6515V29.3298H9.13931V35.6372C9.13931 37.9686 7.32289 39.7564 5.17751 39.7564ZM16.0296 35.3655C16.0296 34.1927 15.343 33.3774 14.1416 33.3774C12.8973 33.3774 11.9819 34.5359 11.9819 35.5085V39.6562H10.9522V32.3763H11.9819V33.6206C12.4682 32.9055 13.1833 32.3763 14.1845 32.3763C15.8865 32.3763 17.0593 33.6635 17.0593 35.2654V39.6562H16.0296V35.3655ZM19.1301 37.6825C19.4161 38.3404 20.0883 38.7266 20.9608 38.6837C22.2194 38.6551 22.72 37.0961 21.4328 36.6813C20.9608 36.5383 20.1026 36.3095 19.4018 35.8518C18.3148 35.1224 18.3291 34.0497 18.6581 33.3917C19.1015 32.5193 20.2314 32.2618 20.8893 32.3191C21.5043 32.3906 22.3624 32.6051 22.9059 33.3345L22.0764 33.9352C21.776 33.5205 21.2897 33.3917 20.8035 33.3345C20.3601 33.2916 19.7737 33.449 19.5591 33.8494C19.3732 34.2356 19.3875 34.6218 19.9739 35.0079C20.5317 35.3798 21.2468 35.5514 21.7474 35.7231C24.1503 36.4954 23.3779 39.6419 20.9894 39.6992C19.788 39.7564 18.6438 39.1271 18.2004 38.083L19.1301 37.6825ZM29.8471 35.5085C29.7327 34.4787 29.2321 33.3774 27.6874 33.3774C26.3287 33.3774 25.4563 34.1069 25.2703 35.5228L29.8471 35.5085ZM24.2119 36.0234C24.2119 34.0211 25.4133 32.3477 27.6445 32.3477C29.9615 32.3477 30.5479 34.1498 30.6195 34.3214C31.0485 35.4942 30.8769 36.524 30.8769 36.524H25.2703C25.4563 37.8684 26.3287 38.6694 27.6588 38.6694C29.3036 38.6694 29.7041 37.7683 29.8042 37.6253L30.691 38.0973C30.691 38.0973 30.0903 39.6992 27.6445 39.6992C25.4133 39.6992 24.2119 38.0115 24.2119 36.0234ZM31.9591 29.0438H32.9889V39.6562H31.9591V29.0438ZM39.6633 35.5085C39.5489 34.4787 39.0483 33.3774 37.5037 33.3774C36.1449 33.3774 35.2725 34.1069 35.0865 35.5228L39.6633 35.5085ZM34.0282 36.0234C34.0282 34.0211 35.2296 32.3477 37.4608 32.3477C39.7778 32.3477 40.3642 34.1498 40.4357 34.3214C40.8648 35.4942 40.6931 36.524 40.6931 36.524H35.0865C35.2725 37.8684 36.1449 38.6694 37.4751 38.6694C39.1199 38.6694 39.5203 37.7683 39.6204 37.6253L40.5072 38.0973C40.5072 38.0973 39.9065 39.6992 37.4608 39.6992C35.2296 39.6992 34.0282 38.0115 34.0282 36.0234ZM44.9648 38.698C45.7085 38.698 46.395 38.4119 46.8813 37.9256L47.6537 38.6122C46.9671 39.2987 46.0518 39.7278 45.022 39.7278C42.6764 39.7278 41.3176 37.9972 41.3176 35.8947C41.3176 33.8065 42.6764 32.0759 45.022 32.0759C46.0518 32.0759 46.9671 32.505 47.6537 33.1915L46.8813 33.878C46.395 33.3917 45.7085 33.1057 44.9648 33.1057C43.2771 33.1057 42.3474 34.35 42.3474 35.8947C42.3474 37.4537 43.2771 38.698 44.9648 38.698ZM52.3186 39.4989C52.0612 39.5561 51.675 39.6276 51.2602 39.6276C50.1732 39.6276 49.3008 38.7552 49.3008 37.6825V33.3202H48.1137V32.3191H49.3008V30.0736H50.3306V32.3191H52.0326V33.3202H50.3306V37.6825C50.3306 38.2546 50.6738 38.5979 51.2602 38.5979C51.5892 38.5979 51.8609 38.555 52.0898 38.4977L52.3186 39.4989ZM58.5779 35.5085C58.4635 34.4787 57.9629 33.3774 56.4182 33.3774C55.0595 33.3774 54.187 34.1069 54.0011 35.5228L58.5779 35.5085ZM52.9427 36.0234C52.9427 34.0211 54.1441 32.3477 56.3753 32.3477C58.6923 32.3477 59.2787 34.1498 59.3502 34.3214C59.7793 35.4942 59.6077 36.524 59.6077 36.524H54.0011C54.187 37.8684 55.0595 38.6694 56.3896 38.6694C58.0344 38.6694 58.4348 37.7683 58.535 37.6253L59.4217 38.0973C59.4217 38.0973 58.821 39.6992 56.3753 39.6992C54.1441 39.6992 52.9427 38.0115 52.9427 36.0234ZM64.008 39.7707C61.7911 39.7707 60.5325 38.0687 60.5325 36.0663C60.5325 34.0783 61.7911 32.362 64.008 32.362C64.9377 32.362 65.9103 32.8339 66.511 33.9209V29.0438H67.5407V39.6562H66.511V38.2117C65.896 39.2987 64.9377 39.7707 64.008 39.7707ZM61.5623 36.0663C61.5623 37.5967 62.4347 38.7409 64.0509 38.7409C65.3668 38.7409 66.511 37.5967 66.511 36.0663C66.511 34.5502 65.3668 33.3917 64.0509 33.3917C62.4347 33.3917 61.5623 34.5502 61.5623 36.0663Z" fill="#616161"/>
<path d="M137.055 13.0137C142.971 13.0137 147.767 17.81 147.768 23.7266C147.768 29.6433 142.971 34.4395 137.055 34.4395C131.138 34.4392 126.342 29.6431 126.342 23.7266C126.342 17.8102 131.138 13.014 137.055 13.0137ZM137.055 14.5137C131.967 14.514 127.842 18.6386 127.842 23.7266L127.854 24.2012C128.092 28.9119 131.87 32.6889 136.581 32.9277L137.055 32.9395C141.984 32.9395 146.009 29.069 146.256 24.2012L146.268 23.7266C146.267 18.7975 142.397 14.7723 137.529 14.5254L137.055 14.5137ZM137.118 24.6318C137.14 24.634 137.162 24.6342 137.184 24.6387C137.193 24.6407 137.202 24.6451 137.212 24.6475C137.443 24.7059 137.634 24.8896 137.686 25.1387C137.754 25.4696 137.903 25.6782 138.091 25.8252C138.293 25.9824 138.574 26.0943 138.927 26.1602C139.467 26.2608 140.072 26.2371 140.603 26.1924L141.104 26.1445H141.235C141.532 26.1748 141.778 26.4106 141.81 26.7188C141.841 27.0275 141.647 27.308 141.362 27.3975L141.235 27.4238L140.723 27.4736C140.144 27.523 139.392 27.5545 138.69 27.4238C138.216 27.3353 137.719 27.1647 137.301 26.8389C137.214 26.7709 137.132 26.6966 137.055 26.6172C136.978 26.6963 136.896 26.7711 136.81 26.8389C136.392 27.1645 135.895 27.3352 135.42 27.4238C134.719 27.5545 133.966 27.523 133.388 27.4736L132.875 27.4238L132.748 27.3975C132.463 27.3083 132.269 27.0278 132.301 26.7188C132.333 26.4105 132.578 26.1746 132.875 26.1445H133.006L133.508 26.1924C134.039 26.2371 134.643 26.2608 135.184 26.1602C135.536 26.0943 135.818 25.9823 136.02 25.8252C136.207 25.6783 136.357 25.4691 136.425 25.1387C136.468 24.9303 136.608 24.7667 136.788 24.6846C136.793 24.6823 136.798 24.6789 136.803 24.6768C136.805 24.6759 136.807 24.6747 136.81 24.6738L136.927 24.6387C136.941 24.6358 136.956 24.6357 136.97 24.6338C136.998 24.6301 137.026 24.6269 137.055 24.627C137.076 24.6269 137.097 24.6298 137.118 24.6318ZM133.972 21.6709C134.54 21.671 135 22.1313 135 22.6992C135 23.2667 134.539 23.7274 133.972 23.7275C133.404 23.7273 132.944 23.2667 132.943 22.6992C132.943 22.1314 133.404 21.6711 133.972 21.6709ZM140.143 21.6709C140.71 21.6711 141.171 22.1314 141.171 22.6992C141.17 23.2667 140.71 23.7273 140.143 23.7275C139.575 23.7273 139.114 23.2667 139.113 22.6992C139.113 22.1314 139.575 21.6711 140.143 21.6709Z" fill="#555555"/>
<path d="M124.49 43.7931C125.951 43.7931 127.032 45.0338 127.192 47.0607H129.428V42.9578H130.546V53.8293H129.428V47.9574H127.204C127.094 50.0703 125.988 51.397 124.49 51.397C122.905 51.397 121.775 49.9106 121.775 47.5889C121.775 45.2549 122.905 43.7931 124.49 43.7931ZM122.831 47.5889C122.831 49.3087 123.507 50.3897 124.49 50.3897C125.485 50.3897 126.148 49.3087 126.148 47.5889C126.148 45.8691 125.485 44.8004 124.49 44.8004C123.507 44.8004 122.831 45.8691 122.831 47.5889ZM132.143 51.5444H141.958V52.478H132.143V51.5444ZM133.322 44.6899V43.7685H140.779V47.1344H134.452V48.7559H141.024V49.6772H133.347V46.2377H139.661V44.6899H133.322ZM150.471 42.9824H151.589V50.9056H150.471V42.9824ZM142.769 48.4857C144.44 47.8469 145.447 46.2868 145.447 44.6653V43.572H146.577V44.6653C146.577 46.2377 147.584 47.6995 149.243 48.2891L148.653 49.1858C147.412 48.7191 146.503 47.7855 146.024 46.5939C145.557 47.8592 144.636 48.8787 143.359 49.3701L142.769 48.4857ZM144.575 53.5836V50.1686H145.705V52.6623H151.921V53.5836H144.575Z" fill="#616161"/>
<path d="M209.951 10.2314C212.071 10.2317 213.79 11.9504 213.79 14.0703V15.791H221.834L221.912 15.7949C222.299 15.8342 222.601 16.1612 222.602 16.5586C222.602 16.9561 222.299 17.2829 221.912 17.3223L221.834 17.3262H213.79V19.6465C214.047 19.6118 214.31 19.5928 214.577 19.5928L214.871 19.5996C217.059 19.708 218.92 21.0199 219.775 22.8691H223.452C225.136 22.8692 226.524 24.1328 226.722 25.7637C227.791 26.0749 228.571 27.0422 228.571 28.1865L228.558 28.4453C228.425 29.7197 227.321 30.7147 225.979 30.7148L225.714 30.7012C224.495 30.5801 223.525 29.6345 223.401 28.4453L223.388 28.1865C223.388 27.0665 224.135 26.1168 225.17 25.7852C224.996 24.9956 224.294 24.4044 223.452 24.4043H220.226C220.259 24.6494 220.279 24.8992 220.279 25.1533L220.271 25.4395C220.119 28.3775 217.627 30.7136 214.577 30.7139L214.284 30.707C211.369 30.5629 209.031 28.2829 208.884 25.4395L208.876 25.1533C208.876 22.8891 210.264 20.9425 212.255 20.0752V14.0703C212.255 12.7984 211.223 11.7669 209.951 11.7666H208.876C208.452 11.7666 208.109 11.4228 208.108 10.999C208.108 10.575 208.452 10.2314 208.876 10.2314H209.951ZM214.577 21.1279C212.24 21.1281 210.411 22.9665 210.411 25.1533C210.411 27.3403 212.24 29.1785 214.577 29.1787C216.914 29.1785 218.743 27.3403 218.743 25.1533C218.743 22.9665 216.914 21.1282 214.577 21.1279ZM225.979 27.1943C225.36 27.1945 224.923 27.6747 224.923 28.1865C224.923 28.6983 225.36 29.1786 225.979 29.1787C226.599 29.1786 227.035 28.6983 227.035 28.1865C227.035 27.6747 226.599 27.1944 225.979 27.1943ZM214.577 23.6367C215.436 23.6367 216.132 24.3157 216.132 25.1533C216.132 25.9908 215.436 26.6699 214.577 26.6699C213.718 26.6699 213.023 25.9908 213.022 25.1533C213.022 24.3157 213.718 23.6367 214.577 23.6367Z" fill="#555555"/>
<path d="M197.551 44.4438H201.888V43.2523H198.841V39.1739H199.947V40.3409H204.959V39.1739H206.077V43.2523H202.993V44.4438H207.342V45.3528H197.551V44.4438ZM198.645 47.2446V46.3479H206.138V49.7506H205.02V47.2446H198.645ZM199.947 42.3555H204.959V41.2008H199.947V42.3555ZM208.466 39.997H214.535V40.9305H212.053V42.1344C212.053 43.9524 213.269 45.8074 214.903 46.5198L214.277 47.4043C213.024 46.8392 212.004 45.6354 211.5 44.1858C211.009 45.7337 210.002 47.0603 208.749 47.6745L208.11 46.7901C209.719 46.0162 210.935 43.9893 210.935 42.1344V40.9305H208.466V39.997ZM215.886 49.7506V38.9159H217.004V49.7506H215.886ZM218.718 44.2227H221.088V42.7486C220.253 42.4046 219.774 41.8519 219.774 41.1394C219.774 39.8495 221.26 39.1002 223.607 39.1002C225.965 39.1002 227.452 39.8495 227.452 41.1394C227.452 41.8519 226.973 42.4046 226.137 42.7486V44.2227H228.508V45.1072H218.718V44.2227ZM219.885 47.7974C219.885 46.569 221.285 45.8688 223.607 45.8688C225.928 45.8688 227.329 46.569 227.329 47.7974C227.329 49.0381 225.928 49.7383 223.607 49.7383C221.285 49.7383 219.885 49.0381 219.885 47.7974ZM220.929 41.1394C220.929 41.8641 221.948 42.2941 223.607 42.2941C225.277 42.2941 226.297 41.8641 226.297 41.1394C226.297 40.39 225.277 39.9601 223.607 39.9601C221.948 39.9601 220.929 40.39 220.929 41.1394ZM221.015 47.7974C221.015 48.4976 221.961 48.8784 223.607 48.8784C225.24 48.8784 226.186 48.4976 226.186 47.7974C226.186 47.1095 225.24 46.7287 223.607 46.7287C221.961 46.7287 221.015 47.1095 221.015 47.7974ZM222.194 44.2227H225.032V43.0434C224.602 43.1171 224.123 43.154 223.607 43.154C223.091 43.154 222.624 43.1171 222.194 43.0434V44.2227ZM230.517 39.6039H237.85V40.5497C237.85 41.5693 237.85 42.6872 237.556 44.2473H239.103V45.1686H234.743V49.7629H233.6V45.1686H229.301V44.2473H236.413C236.745 42.7117 236.745 41.5693 236.745 40.5497V40.5006H230.517V39.6039Z" fill="#616161"/>
<path d="M308.833 27.5576C308.833 28.2402 308.552 28.8895 308.061 29.3633C307.57 29.8361 306.91 30.0967 306.228 30.0967H293.366C292.77 30.0966 292.191 29.8968 291.727 29.5303L291.534 29.3633C291.043 28.8895 290.762 28.2402 290.762 27.5576V17.8164C290.762 17.5748 290.875 17.3471 291.068 17.2021L299.337 11.0029L299.443 10.9355C299.702 10.8012 300.019 10.8239 300.258 11.0029L308.526 17.2021L308.595 17.2598C308.746 17.4038 308.833 17.6048 308.833 17.8164V27.5576Z" stroke="#616161" stroke-width="1.53552" stroke-linecap="round" stroke-linejoin="round"/>
<path d="M296.38 22.5822L298.882 25.2188C299.366 25.7293 300.179 25.7293 300.664 25.2188L303.166 22.5822C304.068 21.6314 304.068 20.0897 303.166 19.1389C302.263 18.1881 300.801 18.1881 299.898 19.1389C299.83 19.2109 299.715 19.2109 299.647 19.1389C298.745 18.1881 297.282 18.1881 296.38 19.1389C295.478 20.0897 295.478 21.6314 296.38 22.5822Z" fill="#616161"/>
<path d="M296.076 46.4953H303.483V49.6032H296.076V46.4953ZM294.884 45.7337V44.8492H299.22V44.0876C297.304 44.0016 296.26 43.4857 296.26 42.5643C296.26 41.557 297.513 41.0288 299.773 41.0288C302.033 41.0288 303.299 41.557 303.299 42.5643C303.299 43.4857 302.242 44.0016 300.338 44.0876V44.8492H304.675V45.7337H294.884ZM295.388 40.6357V39.7636H299.22V38.7685H300.338V39.7636H304.122V40.6357H295.388ZM297.169 48.7556H302.39V47.3429H297.169V48.7556ZM297.439 42.5643C297.439 43.0557 298.262 43.326 299.773 43.326C301.296 43.326 302.119 43.0557 302.119 42.5643C302.119 42.073 301.296 41.8027 299.773 41.8027C298.262 41.8027 297.439 42.073 297.439 42.5643Z" fill="#616161"/>
<path d="M387.812 10.252C388.468 10.3173 389.086 10.6087 389.557 11.0801C390.094 11.6186 390.395 12.3486 390.396 13.1094V27.8369C390.395 28.5979 390.094 29.3286 389.557 29.8672C389.019 30.4057 388.289 30.7089 387.528 30.709H374.929C374.168 30.7089 373.438 30.4057 372.9 29.8672C372.43 29.396 372.14 28.7778 372.075 28.1211L372.062 27.8369V13.1094C372.062 12.3486 372.363 11.6186 372.9 11.0801C373.438 10.5415 374.168 10.2384 374.929 10.2383H387.528L387.812 10.252ZM374.929 11.7734C374.576 11.7735 374.237 11.9138 373.987 12.1641C373.738 12.4144 373.597 12.7548 373.597 13.1094V27.8369L373.604 27.9697C373.634 28.2756 373.769 28.5633 373.987 28.7822C374.237 29.0325 374.576 29.1728 374.929 29.1729H387.528C387.881 29.1728 388.22 29.0325 388.47 28.7822C388.72 28.5319 388.86 28.1916 388.86 27.8369V13.1094C388.86 12.7547 388.72 12.4144 388.47 12.1641C388.251 11.9449 387.964 11.8105 387.659 11.7803L387.528 11.7734H374.929ZM385.507 25.3896C385.894 25.4288 386.196 25.7559 386.196 26.1533C386.196 26.551 385.894 26.8778 385.507 26.917L385.429 26.9209H377.029C376.605 26.9208 376.262 26.5773 376.262 26.1533C376.262 25.7296 376.605 25.3858 377.029 25.3857H385.429L385.507 25.3896ZM385.512 21.1826C385.899 21.2221 386.2 21.5489 386.2 21.9463C386.2 22.3436 385.899 22.6705 385.512 22.71L385.433 22.7139H377.029C376.605 22.7138 376.262 22.3702 376.262 21.9463C376.262 21.5223 376.605 21.1788 377.029 21.1787H385.433L385.512 21.1826ZM378.787 14.8135C379.346 14.2241 380.251 14.2241 380.81 14.8135C381.368 15.4034 381.368 16.3603 380.81 16.9502L379.258 18.5889C378.96 18.9037 378.458 18.9037 378.16 18.5889L376.608 16.9502C376.05 16.3603 376.05 15.4034 376.608 14.8135C377.167 14.2241 378.072 14.2241 378.631 14.8135C378.673 14.8581 378.745 14.8581 378.787 14.8135Z" fill="#616161"/>
<path d="M373.534 38.9037H374.664V44.4192H373.534V38.9037ZM365.93 43.7313C368.62 43.1663 370.033 41.9378 370.205 40.3163H366.483V39.395H371.433C371.433 42.2204 369.578 43.9156 366.335 44.6404L365.93 43.7313ZM367.613 45.7951V44.9229H374.664V47.6254H368.743V48.7556H375.008V49.64H367.637V46.7901H373.546V45.7951H367.613ZM376.587 39.5916H382.397V40.5006H380.063V40.7463C380.063 42.0853 381.034 43.3505 382.667 43.8542L382.139 44.7386C380.898 44.3333 379.989 43.5102 379.523 42.4661C379.056 43.6208 378.11 44.5298 376.808 44.972L376.243 44.0753C377.913 43.5348 378.945 42.2204 378.945 40.7463V40.5006H376.587V39.5916ZM377.889 49.6032V45.3406H379.007V46.5813H383.675V45.3406H384.78V49.6032H377.889ZM379.007 48.7064H383.675V47.4657H379.007V48.7064ZM383.65 44.8492V38.9159H384.78V41.3605H386.34V42.2941H384.78V44.8492H383.65ZM394.688 38.8914H395.806V49.7629H394.688V38.8914ZM387.293 43.5225C387.293 41.1885 388.447 39.7267 390.069 39.7267C391.678 39.7267 392.845 41.1885 392.845 43.5225C392.845 45.8442 391.678 47.3306 390.069 47.3306C388.447 47.3306 387.293 45.8442 387.293 43.5225ZM388.374 43.5225C388.374 45.2423 389.074 46.3233 390.069 46.3233C391.064 46.3233 391.764 45.2423 391.764 43.5225C391.764 41.8027 391.064 40.734 390.069 40.734C389.074 40.734 388.374 41.8027 388.374 43.5225Z" fill="#616161"/>
<path fill-rule="evenodd" clip-rule="evenodd" d="M455.803 13.5638V18.1704H460.41V13.5638H455.803ZM454.75 12.4221C455.043 12.1617 455.423 12.0283 455.803 12.0283H460.41C460.79 12.0283 461.17 12.1617 461.463 12.4221C461.759 12.6852 461.945 13.0628 461.945 13.4785V18.2557C461.945 18.6715 461.759 19.049 461.463 19.3121C461.17 19.5726 460.79 19.7059 460.41 19.7059H455.803C455.423 19.7059 455.043 19.5726 454.75 19.3121C454.454 19.049 454.268 18.6715 454.268 18.2557V13.4785C454.268 13.0628 454.454 12.6852 454.75 12.4221ZM465.016 13.5638V18.1704H469.623V13.5638H465.016ZM463.963 12.4221C464.256 12.1617 464.636 12.0283 465.016 12.0283H469.623C470.003 12.0283 470.383 12.1617 470.676 12.4221C470.972 12.6852 471.158 13.0628 471.158 13.4785V18.2557C471.158 18.6715 470.972 19.049 470.676 19.3121C470.383 19.5726 470.003 19.7059 469.623 19.7059H465.016C464.636 19.7059 464.256 19.5726 463.963 19.3121C463.667 19.049 463.481 18.6715 463.481 18.2557V13.4785C463.481 13.0628 463.667 12.6852 463.963 12.4221ZM455.803 22.7769V27.3835H460.41V22.7769H455.803ZM454.75 21.6352C455.043 21.3748 455.423 21.2414 455.803 21.2414H460.41C460.79 21.2414 461.17 21.3748 461.463 21.6352C461.759 21.8983 461.945 22.2759 461.945 22.6916V27.4688C461.945 27.8846 461.759 28.2621 461.463 28.5252C461.17 28.7857 460.79 28.919 460.41 28.919H455.803C455.423 28.919 455.043 28.7857 454.75 28.5252C454.454 28.2621 454.268 27.8846 454.268 27.4688V22.6916C454.268 22.2759 454.454 21.8983 454.75 21.6352ZM465.016 22.7769V27.3835H469.623V22.7769H465.016ZM463.963 21.6352C464.256 21.3748 464.636 21.2414 465.016 21.2414H469.623C470.003 21.2414 470.383 21.3748 470.676 21.6352C470.972 21.8983 471.158 22.2759 471.158 22.6916V27.4688C471.158 27.8846 470.972 28.2621 470.676 28.5252C470.383 28.7857 470.003 28.919 469.623 28.919H465.016C464.636 28.919 464.256 28.7857 463.963 28.5252C463.667 28.2621 463.481 27.8846 463.481 27.4688V22.6916C463.481 22.2759 463.667 21.8983 463.963 21.6352Z" fill="#1F2937"/>
<path d="M458.257 41.8519H460.333V38.9159H461.45V46.8392H460.333V42.7732H458.257V41.8519ZM452.508 44.6158C454.154 44.0384 455.21 42.6135 455.21 41.1148V40.6603H452.852V39.7513H458.65V40.6603H456.328V41.1025C456.328 42.4661 457.323 43.8296 458.92 44.3824L458.367 45.2669C457.151 44.8369 456.254 43.9647 455.787 42.8837C455.321 44.0753 454.375 45.0457 453.085 45.5125L452.508 44.6158ZM454.473 49.5172V46.1513H455.591V48.5959H461.745V49.5172H454.473ZM467.501 43.154H469.061V39.1493H470.105V49.1978H469.061V44.063H467.501V43.154ZM462.968 46.7164C464.454 45.8442 465.216 43.977 465.216 42.2327V41.7782H463.287V40.8691H465.216V39.2845H466.297V40.8691H468.201V41.7782H466.297V42.2327C466.297 43.9402 467.083 45.6845 468.557 46.4953L467.931 47.3306C466.886 46.7655 466.162 45.7214 465.769 44.4807C465.388 45.8074 464.663 46.9498 463.607 47.5763L462.968 46.7164ZM471.235 49.7383V38.9037H472.304V49.7383H471.235Z" fill="#1A1A1A"/>
<path d="M17.3447 117.081C17.8167 118.125 18.8036 118.74 20.1194 118.711C22.3506 118.64 22.9513 115.779 20.8202 115.207C20.1337 114.95 19.0038 114.635 18.0169 113.963C16.5867 112.976 16.601 111.531 17.0301 110.616C17.6022 109.415 19.1325 109.071 19.9907 109.143C20.8345 109.2 21.9787 109.543 22.6796 110.559L21.8214 111.131C21.3494 110.459 20.62 110.23 19.9049 110.173C19.2613 110.144 18.3316 110.344 17.974 111.045C17.688 111.703 17.688 112.461 18.589 113.105C19.4329 113.691 20.4484 113.977 21.1635 114.235C24.3959 115.221 23.4805 119.641 20.148 119.741C18.5032 119.798 17.0015 118.926 16.4007 117.481L17.3447 117.081ZM29.9114 115.465C29.797 114.435 29.2964 113.333 27.7517 113.333C26.393 113.333 25.5205 114.063 25.3346 115.479L29.9114 115.465ZM24.2762 115.979C24.2762 113.977 25.4776 112.304 27.7088 112.304C30.0258 112.304 30.6122 114.106 30.6837 114.277C31.1128 115.45 30.9412 116.48 30.9412 116.48H25.3346C25.5205 117.824 26.393 118.625 27.7231 118.625C29.3679 118.625 29.7684 117.724 29.8685 117.581L30.7552 118.053C30.7552 118.053 30.1545 119.655 27.7088 119.655C25.4776 119.655 24.2762 117.968 24.2762 115.979ZM32.0233 109H33.0531V119.612H32.0233V109ZM39.7276 115.465C39.6132 114.435 39.1126 113.333 37.5679 113.333C36.2092 113.333 35.3367 114.063 35.1508 115.479L39.7276 115.465ZM34.0924 115.979C34.0924 113.977 35.2938 112.304 37.525 112.304C39.842 112.304 40.4284 114.106 40.4999 114.277C40.929 115.45 40.7574 116.48 40.7574 116.48H35.1508C35.3367 117.824 36.2092 118.625 37.5393 118.625C39.1841 118.625 39.5846 117.724 39.6847 117.581L40.5714 118.053C40.5714 118.053 39.9707 119.655 37.525 119.655C35.2938 119.655 34.0924 117.968 34.0924 115.979ZM45.029 118.654C45.7728 118.654 46.4593 118.368 46.9456 117.882L47.7179 118.568C47.0314 119.255 46.116 119.684 45.0862 119.684C42.7406 119.684 41.3819 117.953 41.3819 115.851C41.3819 113.763 42.7406 112.032 45.0862 112.032C46.116 112.032 47.0314 112.461 47.7179 113.148L46.9456 113.834C46.4593 113.348 45.7728 113.062 45.029 113.062C43.3413 113.062 42.4117 114.306 42.4117 115.851C42.4117 117.41 43.3413 118.654 45.029 118.654ZM52.3829 119.455C52.1254 119.512 51.7393 119.584 51.3245 119.584C50.2375 119.584 49.365 118.711 49.365 117.639V113.276H48.1779V112.275H49.365V110.03H50.3948V112.275H52.0968V113.276H50.3948V117.639C50.3948 118.211 50.7381 118.554 51.3245 118.554C51.6534 118.554 51.9252 118.511 52.154 118.454L52.3829 119.455ZM58.6421 115.465C58.5277 114.435 58.0271 113.333 56.4824 113.333C55.1237 113.333 54.2513 114.063 54.0653 115.479L58.6421 115.465ZM53.0069 115.979C53.0069 113.977 54.2083 112.304 56.4395 112.304C58.7565 112.304 59.3429 114.106 59.4145 114.277C59.8435 115.45 59.6719 116.48 59.6719 116.48H54.0653C54.2513 117.824 55.1237 118.625 56.4538 118.625C58.0986 118.625 58.4991 117.724 58.5992 117.581L59.486 118.053C59.486 118.053 58.8853 119.655 56.4395 119.655C54.2083 119.655 53.0069 117.968 53.0069 115.979ZM64.0723 119.727C61.8554 119.727 60.5968 118.025 60.5968 116.022C60.5968 114.034 61.8554 112.318 64.0723 112.318C65.0019 112.318 65.9745 112.79 66.5752 113.877V109H67.605V119.612H66.5752V118.168C65.9602 119.255 65.0019 119.727 64.0723 119.727ZM61.6265 116.022C61.6265 117.553 62.499 118.697 64.1152 118.697C65.431 118.697 66.5752 117.553 66.5752 116.022C66.5752 114.506 65.431 113.348 64.1152 113.348C62.499 113.348 61.6265 114.506 61.6265 116.022Z" fill="#616161"/>
<path fill-rule="evenodd" clip-rule="evenodd" d="M139.782 114.325C145.42 114.325 150.068 109.775 150.068 104.039C150.068 98.4012 145.519 93.8516 139.782 93.8516C134.144 93.9505 129.595 98.5002 129.595 104.138C129.595 109.775 134.144 114.325 139.782 114.325ZM136.815 104.138C137.408 104.138 137.804 103.742 137.804 103.149C137.804 102.555 137.408 102.16 136.815 102.16C136.221 102.16 135.826 102.555 135.826 103.149C135.826 103.742 136.221 104.138 136.815 104.138ZM142.749 104.138C143.343 104.138 143.738 103.742 143.738 103.149C143.738 102.555 143.343 102.16 142.749 102.16C142.156 102.16 141.76 102.555 141.76 103.149C141.76 103.742 142.255 104.138 142.749 104.138ZM139.782 105.028C139.881 105.028 139.881 105.028 139.98 105.028C140.079 105.028 140.178 105.127 140.178 105.127C140.277 105.226 140.376 105.325 140.376 105.424C140.474 105.72 140.573 105.918 140.771 106.116C140.969 106.314 141.266 106.413 141.562 106.413C142.255 106.512 143.046 106.413 143.639 106.413C143.936 106.413 144.332 106.61 144.332 107.006C144.332 107.303 144.134 107.698 143.738 107.698H143.639C143.046 107.797 142.156 107.896 141.266 107.698C140.771 107.6 140.376 107.402 139.881 107.105C139.782 107.006 139.683 107.006 139.683 106.907C139.584 107.006 139.485 107.006 139.485 107.105C139.09 107.402 138.595 107.6 138.101 107.698C137.211 107.896 136.32 107.797 135.727 107.698H135.628C135.331 107.698 135.035 107.402 135.035 107.006C135.035 106.61 135.331 106.413 135.727 106.413C136.32 106.512 137.112 106.512 137.804 106.413C138.101 106.314 138.397 106.215 138.595 106.116C138.793 106.017 138.892 105.819 138.991 105.424V105.325C138.991 105.226 139.09 105.127 139.09 105.127C139.485 105.028 139.584 105.028 139.782 105.028Z" fill="#333333"/>
<path d="M127.233 123.342C128.695 123.342 129.776 124.583 129.936 126.61H132.171V122.507H133.289V133.378H132.171V127.506H129.948C129.837 129.619 128.732 130.946 127.233 130.946C125.649 130.946 124.518 129.459 124.518 127.138C124.518 124.804 125.649 123.342 127.233 123.342ZM125.575 127.138C125.575 128.858 126.25 129.939 127.233 129.939C128.228 129.939 128.892 128.858 128.892 127.138C128.892 125.418 128.228 124.349 127.233 124.349C126.25 124.349 125.575 125.418 125.575 127.138ZM134.917 131.093H144.732V132.027H134.917V131.093ZM136.097 124.239V123.317H143.553V126.683H137.227V128.305H143.799V129.226H136.121V125.786H142.435V124.239H136.097ZM153.276 122.531H154.394V130.454H153.276V122.531ZM145.574 128.034C147.245 127.396 148.252 125.836 148.252 124.214V123.121H149.382V124.214C149.382 125.786 150.389 127.248 152.048 127.838L151.458 128.735C150.217 128.268 149.308 127.334 148.829 126.143C148.363 127.408 147.441 128.428 146.164 128.919L145.574 128.034ZM147.38 133.132V129.717H148.51V132.211H154.726V133.132H147.38Z" fill="#1A1A1A"/>
<path d="M215.109 93.8477C217.229 93.8477 218.948 95.5664 218.948 97.6865V99.4072H226.992L227.07 99.4111C227.458 99.4503 227.76 99.7773 227.76 100.175C227.76 100.572 227.458 100.899 227.07 100.938L226.992 100.942H218.948V103.263C219.206 103.228 219.468 103.209 219.735 103.209L220.029 103.216C222.217 103.324 224.078 104.636 224.934 106.485H228.611C230.296 106.486 231.684 107.75 231.881 109.381C232.95 109.692 233.73 110.658 233.73 111.803C233.73 113.199 232.57 114.33 231.139 114.33C229.707 114.33 228.547 113.199 228.547 111.803C228.547 110.683 229.294 109.734 230.328 109.402C230.155 108.612 229.453 108.021 228.611 108.021H225.385C225.419 108.266 225.437 108.515 225.438 108.77L225.43 109.056C225.277 111.994 222.786 114.33 219.735 114.33L219.442 114.323C216.527 114.179 214.19 111.899 214.042 109.056L214.034 108.77C214.034 106.505 215.422 104.559 217.413 103.691V97.6865C217.413 96.4145 216.381 95.3828 215.109 95.3828H214.034C213.61 95.3828 213.267 95.039 213.267 94.6152C213.267 94.1912 213.61 93.8477 214.034 93.8477H215.109ZM219.735 105.769C217.939 105.769 216.594 107.172 216.594 108.77C216.594 110.367 217.939 111.771 219.735 111.771C221.531 111.771 222.878 110.367 222.878 108.77C222.878 107.172 221.531 105.769 219.735 105.769ZM219.736 107.253C220.595 107.253 221.291 107.932 221.291 108.77C221.291 109.607 220.595 110.286 219.736 110.286C218.878 110.286 218.181 109.607 218.181 108.77C218.181 107.932 218.878 107.253 219.736 107.253Z" fill="#1A1A1A"/>
<path d="M202.711 128.059H207.047V126.867H204V122.789H205.106V123.956H210.118V122.789H211.236V126.867H208.152V128.059H212.501V128.968H202.711V128.059ZM203.804 130.86V129.963H211.297V133.366H210.179V130.86H203.804ZM205.106 125.971H210.118V124.816H205.106V125.971ZM213.625 123.612H219.694V124.546H217.212V125.75C217.212 127.568 218.428 129.423 220.062 130.135L219.436 131.02C218.183 130.454 217.163 129.251 216.66 127.801C216.168 129.349 215.161 130.676 213.908 131.29L213.269 130.405C214.878 129.631 216.094 127.605 216.094 125.75V124.546H213.625V123.612ZM221.045 133.366V122.531H222.163V133.366H221.045ZM223.877 127.838H226.248V126.364C225.412 126.02 224.933 125.467 224.933 124.755C224.933 123.465 226.42 122.715 228.766 122.715C231.124 122.715 232.611 123.465 232.611 124.755C232.611 125.467 232.132 126.02 231.296 126.364V127.838H233.667V128.722H223.877V127.838ZM225.044 131.413C225.044 130.184 226.444 129.484 228.766 129.484C231.088 129.484 232.488 130.184 232.488 131.413C232.488 132.653 231.088 133.354 228.766 133.354C226.444 133.354 225.044 132.653 225.044 131.413ZM226.088 124.755C226.088 125.479 227.107 125.909 228.766 125.909C230.436 125.909 231.456 125.479 231.456 124.755C231.456 124.005 230.436 123.575 228.766 123.575C227.107 123.575 226.088 124.005 226.088 124.755ZM226.174 131.413C226.174 132.113 227.12 132.494 228.766 132.494C230.4 132.494 231.346 132.113 231.346 131.413C231.346 130.725 230.4 130.344 228.766 130.344C227.12 130.344 226.174 130.725 226.174 131.413ZM227.353 127.838H230.191V126.659C229.761 126.732 229.282 126.769 228.766 126.769C228.25 126.769 227.783 126.732 227.353 126.659V127.838ZM235.676 123.219H243.01V124.165C243.01 125.185 243.01 126.302 242.715 127.863H244.263V128.784H239.902V133.378H238.759V128.784H234.46V127.863H241.572C241.904 126.327 241.904 125.185 241.904 124.165V124.116H235.676V123.219Z" fill="#333333"/>
<path d="M312.52 111.173C312.52 111.855 312.238 112.505 311.747 112.979C311.257 113.451 310.596 113.712 309.914 113.712H297.053C296.456 113.712 295.877 113.512 295.413 113.146L295.221 112.979C294.729 112.505 294.448 111.855 294.448 111.173V101.432C294.448 101.19 294.562 100.962 294.755 100.817L303.023 94.6182L303.13 94.5508C303.388 94.4165 303.706 94.4391 303.944 94.6182L312.213 100.817L312.281 100.875C312.433 101.019 312.52 101.22 312.52 101.432V111.173Z" fill="#333333" stroke="#333333" stroke-width="1.53552" stroke-linecap="round" stroke-linejoin="round"/>
<path d="M300.065 106.197L302.567 108.834C303.052 109.345 303.865 109.345 304.349 108.834L306.851 106.197C307.753 105.247 307.753 103.705 306.851 102.754C305.949 101.803 304.486 101.803 303.584 102.754C303.516 102.826 303.401 102.826 303.333 102.754C302.43 101.803 300.968 101.803 300.065 102.754C299.163 103.705 299.163 105.247 300.065 106.197Z" fill="white"/>
<path d="M299.761 130.111H307.168V133.218H299.761V130.111ZM298.57 129.349V128.464H302.906V127.703C300.99 127.617 299.945 127.101 299.945 126.18C299.945 125.172 301.198 124.644 303.459 124.644C305.719 124.644 306.984 125.172 306.984 126.18C306.984 127.101 305.928 127.617 304.024 127.703V128.464H308.36V129.349H298.57ZM299.073 124.251V123.379H302.906V122.384H304.024V123.379H307.807V124.251H299.073ZM300.854 132.371H306.075V130.958H300.854V132.371ZM301.125 126.18C301.125 126.671 301.948 126.941 303.459 126.941C304.982 126.941 305.805 126.671 305.805 126.18C305.805 125.688 304.982 125.418 303.459 125.418C301.948 125.418 301.125 125.688 301.125 126.18Z" fill="#333333"/>
<path d="M390.178 93.8516C390.781 93.8516 391.36 94.0919 391.786 94.5186C392.213 94.9452 392.452 95.5236 392.452 96.127V112.051C392.452 112.654 392.213 113.233 391.786 113.659C391.36 114.086 390.781 114.325 390.178 114.325H376.528C375.925 114.325 375.346 114.086 374.92 113.659C374.493 113.233 374.254 112.654 374.254 112.051V96.127C374.254 95.5237 374.493 94.9451 374.92 94.5186C375.346 94.092 375.925 93.8517 376.528 93.8516H390.178ZM378.804 109.463C378.38 109.463 378.036 109.807 378.036 110.23C378.036 110.654 378.38 110.998 378.804 110.998H387.903L387.981 110.994C388.369 110.955 388.671 110.628 388.671 110.23C388.671 109.833 388.369 109.506 387.981 109.467L387.903 109.463H378.804ZM378.804 104.914C378.38 104.914 378.036 105.258 378.036 105.682C378.036 106.105 378.38 106.449 378.804 106.449H387.907L387.986 106.445C388.373 106.406 388.676 106.079 388.676 105.682C388.676 105.284 388.373 104.957 387.986 104.918L387.907 104.914H378.804ZM382.899 97.9707C382.294 97.3329 381.313 97.3329 380.708 97.9707C380.662 98.0188 380.585 98.0188 380.539 97.9707C379.934 97.3329 378.953 97.3329 378.348 97.9707C377.743 98.6085 377.743 99.6425 378.348 100.28L380.029 102.053C380.352 102.393 380.895 102.393 381.218 102.053L382.899 100.28C383.505 99.6425 383.504 98.6085 382.899 97.9707Z" fill="#1F2937"/>
<path d="M375.746 122.519H376.876V128.034H375.746V122.519ZM368.142 127.347C370.832 126.781 372.245 125.553 372.417 123.932H368.695V123.01H373.645C373.645 125.836 371.79 127.531 368.547 128.256L368.142 127.347ZM369.825 129.41V128.538H376.876V131.241H370.955V132.371H377.22V133.255H369.849V130.405H375.758V129.41H369.825ZM378.799 123.207H384.609V124.116H382.275V124.362C382.275 125.7 383.246 126.966 384.879 127.469L384.351 128.354C383.11 127.948 382.201 127.125 381.735 126.081C381.268 127.236 380.322 128.145 379.02 128.587L378.455 127.691C380.125 127.15 381.157 125.836 381.157 124.362V124.116H378.799V123.207ZM380.101 133.218V128.956H381.219V130.196H385.887V128.956H386.992V133.218H380.101ZM381.219 132.322H385.887V131.081H381.219V132.322ZM385.862 128.464V122.531H386.992V124.976H388.552V125.909H386.992V128.464H385.862ZM396.9 122.507H398.018V133.378H396.9V122.507ZM389.505 127.138C389.505 124.804 390.659 123.342 392.281 123.342C393.89 123.342 395.057 124.804 395.057 127.138C395.057 129.459 393.89 130.946 392.281 130.946C390.659 130.946 389.505 129.459 389.505 127.138ZM390.586 127.138C390.586 128.858 391.286 129.939 392.281 129.939C393.276 129.939 393.976 128.858 393.976 127.138C393.976 125.418 393.276 124.349 392.281 124.349C391.286 124.349 390.586 125.418 390.586 127.138Z" fill="#333333"/>
<path fill-rule="evenodd" clip-rule="evenodd" d="M461.147 96.4111H460.379H457.308H456.54C456.337 96.4111 456.141 96.483 455.998 96.611C455.854 96.739 455.773 96.9126 455.773 97.0936V101.871C455.773 102.052 455.854 102.225 455.998 102.353C456.141 102.481 456.337 102.553 456.54 102.553H461.147C461.351 102.553 461.546 102.481 461.69 102.353C461.834 102.225 461.915 102.052 461.915 101.871V97.0936C461.915 96.9126 461.834 96.739 461.69 96.611C461.546 96.483 461.351 96.4111 461.147 96.4111ZM470.36 96.4112H469.592H466.521H465.753C465.55 96.4112 465.354 96.4831 465.21 96.6111C465.066 96.7391 464.986 96.9127 464.986 97.0937V101.871C464.986 102.052 465.066 102.225 465.21 102.353C465.354 102.481 465.55 102.553 465.753 102.553H470.36C470.564 102.553 470.759 102.481 470.903 102.353C471.047 102.225 471.128 102.052 471.128 101.871V97.0937C471.128 96.9127 471.047 96.7391 470.903 96.6111C470.759 96.4831 470.564 96.4112 470.36 96.4112ZM460.379 105.624H461.147C461.35 105.624 461.546 105.696 461.69 105.824C461.834 105.952 461.915 106.126 461.915 106.307V111.084C461.915 111.265 461.834 111.439 461.69 111.567C461.546 111.695 461.35 111.766 461.147 111.766H456.54C456.337 111.766 456.141 111.695 455.997 111.567C455.853 111.439 455.772 111.265 455.772 111.084V106.307C455.772 106.126 455.853 105.952 455.997 105.824C456.141 105.696 456.337 105.624 456.54 105.624H457.308H460.379ZM470.36 105.624H469.592H466.521H465.753C465.55 105.624 465.354 105.696 465.21 105.824C465.066 105.952 464.986 106.126 464.986 106.307V111.084C464.986 111.265 465.066 111.439 465.21 111.567C465.354 111.695 465.55 111.766 465.753 111.766H470.36C470.564 111.766 470.759 111.695 470.903 111.567C471.047 111.439 471.128 111.265 471.128 111.084V106.307C471.128 106.126 471.047 105.952 470.903 105.824C470.759 105.696 470.564 105.624 470.36 105.624Z" fill="#1F2937"/>
<path d="M458.994 125.467H461.07V122.531H462.188V130.454H461.07V126.388H458.994V125.467ZM453.245 128.231C454.891 127.654 455.947 126.229 455.947 124.73V124.276H453.589V123.367H459.387V124.276H457.065V124.718C457.065 126.081 458.06 127.445 459.657 127.998L459.104 128.882C457.888 128.452 456.992 127.58 456.525 126.499C456.058 127.691 455.112 128.661 453.822 129.128L453.245 128.231ZM455.21 133.132V129.767H456.328V132.211H462.483V133.132H455.21ZM468.238 126.769H469.798V122.765H470.842V132.813H469.798V127.678H468.238V126.769ZM463.705 130.332C465.191 129.459 465.953 127.592 465.953 125.848V125.393H464.024V124.484H465.953V122.9H467.034V124.484H468.938V125.393H467.034V125.848C467.034 127.555 467.82 129.3 469.294 130.111L468.668 130.946C467.624 130.381 466.899 129.337 466.506 128.096C466.125 129.423 465.4 130.565 464.344 131.192L463.705 130.332ZM471.972 133.354V122.519H473.041V133.354H471.972Z" fill="#333333"/>
</svg>
