<svg width="270" height="165" viewBox="0 0 270 165" fill="none" xmlns="http://www.w3.org/2000/svg">
<g filter="url(#filter0_dd_1101_63600)">
<rect width="234.02" height="128.38" transform="translate(18 16)" fill="white"/>
<mask id="path-1-inside-1_1101_63600" fill="white">
<path d="M29.0391 31.378C29.0391 28.9817 30.9817 27.0391 33.378 27.0391H236.642C239.039 27.0391 240.981 28.9817 240.981 31.378V105.055C240.981 107.451 239.039 109.394 236.642 109.394H33.378C30.9817 109.394 29.0391 107.451 29.0391 105.055V31.378Z"/>
</mask>
<path d="M29.0391 31.378C29.0391 28.9817 30.9817 27.0391 33.378 27.0391H236.642C239.039 27.0391 240.981 28.9817 240.981 31.378V105.055C240.981 107.451 239.039 109.394 236.642 109.394H33.378C30.9817 109.394 29.0391 107.451 29.0391 105.055V31.378Z" fill="white"/>
<path d="M33.378 27.0391V27.7874H236.642V27.0391V26.2907H33.378V27.0391ZM240.981 31.378H240.233V105.055H240.981H241.73V31.378H240.981ZM236.642 109.394V108.645H33.378V109.394V110.142H236.642V109.394ZM29.0391 105.055H29.7874V31.378H29.0391H28.2907V105.055H29.0391ZM33.378 109.394V108.645C31.395 108.645 29.7874 107.038 29.7874 105.055H29.0391H28.2907C28.2907 107.864 30.5684 110.142 33.378 110.142V109.394ZM240.981 105.055H240.233C240.233 107.038 238.625 108.645 236.642 108.645V109.394V110.142C239.452 110.142 241.73 107.864 241.73 105.055H240.981ZM236.642 27.0391V27.7874C238.625 27.7874 240.233 29.395 240.233 31.378H240.981H241.73C241.73 28.5684 239.452 26.2907 236.642 26.2907V27.0391ZM33.378 27.0391V26.2907C30.5684 26.2907 28.2907 28.5684 28.2907 31.378H29.0391H29.7874C29.7874 29.395 31.395 27.7874 33.378 27.7874V27.0391Z" fill="#E0E0E0" mask="url(#path-1-inside-1_1101_63600)"/>
<path d="M41.8752 48.2771C43.1924 48.2771 43.9348 47.2953 43.9348 46.014C43.9348 44.7567 43.1924 43.7749 41.8752 43.7749C40.7736 43.7749 39.8276 44.7567 39.8276 46.014C39.8276 47.2953 40.7736 48.2771 41.8752 48.2771ZM38.9535 51.7736V42.9247H39.8157V44.2179C40.2108 43.3558 41.1448 42.9367 41.8872 42.9367C43.7551 42.9367 44.7969 44.3616 44.7969 46.014C44.7969 47.6904 43.7551 49.1153 41.8872 49.1153C41.1208 49.1153 40.2108 48.6004 39.8157 47.8221V51.7736H38.9535ZM45.8534 40.1347H46.7156V49.0195H45.8534V40.1347ZM50.6825 48.2412C51.7601 48.2412 52.73 47.3671 52.742 46.026C52.73 44.6969 51.7601 43.8108 50.6825 43.8108C49.3533 43.8108 48.6349 44.7687 48.6349 46.026C48.6349 47.2833 49.3533 48.2412 50.6825 48.2412ZM47.7727 46.026C47.7727 44.3616 48.8145 42.9606 50.6705 42.9606C51.377 42.9606 52.1673 43.3318 52.7181 44.2179V42.9247H53.5802V49.0195H52.7181V47.8221C52.1433 48.7561 51.3889 49.1034 50.6705 49.1034C48.8145 49.1034 47.7727 47.6784 47.7727 46.026ZM57.6656 48.2173C58.2883 48.2173 58.863 47.9778 59.2702 47.5707L59.9168 48.1454C59.342 48.7202 58.5757 49.0794 57.7135 49.0794C55.7498 49.0794 54.6122 47.6305 54.6122 45.8703C54.6122 44.1221 55.7498 42.6732 57.7135 42.6732C58.5757 42.6732 59.342 43.0325 59.9168 43.6072L59.2702 44.182C58.863 43.7749 58.2883 43.5354 57.6656 43.5354C56.2527 43.5354 55.4744 44.5771 55.4744 45.8703C55.4744 47.1755 56.2527 48.2173 57.6656 48.2173ZM65.2575 45.547C65.1617 44.6849 64.7426 43.7629 63.4494 43.7629C62.3119 43.7629 61.5814 44.3736 61.4258 45.559L65.2575 45.547ZM60.5397 45.9781C60.5397 44.3017 61.5455 42.9007 63.4135 42.9007C65.3533 42.9007 65.8442 44.4095 65.9041 44.5532C66.2633 45.5351 66.1196 46.3972 66.1196 46.3972H61.4258C61.5814 47.5228 62.3119 48.1933 63.4255 48.1933C64.8025 48.1933 65.1378 47.4389 65.2216 47.3192L65.964 47.7144C65.964 47.7144 65.4611 49.0555 63.4135 49.0555C61.5455 49.0555 60.5397 47.6425 60.5397 45.9781ZM71.5713 45.5949C71.5713 44.4574 70.9247 43.7988 70.0147 43.7988C69.0687 43.7988 68.2425 44.6849 68.2425 45.8344V49.0195H67.3804V40.1347H68.2425V44.0742C68.5419 43.4516 69.2244 42.9606 70.0506 42.9606C71.284 42.9606 72.4335 44.0143 72.4335 45.547V49.0195H71.5713V45.5949ZM76.6721 48.2292C78.0132 48.2292 78.7197 47.2474 78.7197 45.9781C78.7197 44.7088 78.0132 43.727 76.6721 43.727C75.3191 43.727 74.6365 44.7088 74.6365 45.9781C74.6365 47.2474 75.3191 48.2292 76.6721 48.2292ZM73.7744 45.9781C73.7744 44.3137 74.8042 42.8888 76.6721 42.8888C78.5521 42.8888 79.5818 44.3137 79.5818 45.9781C79.5818 47.6425 78.5521 49.0674 76.6721 49.0674C74.8042 49.0674 73.7744 47.6425 73.7744 45.9781ZM80.6345 40.1347H81.4967V49.0195H80.6345V40.1347ZM85.4636 49.1153C83.6076 49.1153 82.5539 47.6904 82.5539 46.014C82.5539 44.3496 83.6076 42.9127 85.4636 42.9127C86.2419 42.9127 87.0561 43.3079 87.5591 44.2179V40.1347H88.4212V49.0195H87.5591V47.8101C87.0442 48.7202 86.2419 49.1153 85.4636 49.1153ZM83.416 46.014C83.416 47.2953 84.1464 48.2532 85.4995 48.2532C86.6011 48.2532 87.5591 47.2953 87.5591 46.014C87.5591 44.7448 86.6011 43.7749 85.4995 43.7749C84.1464 43.7749 83.416 44.7448 83.416 46.014ZM94.3041 45.547C94.2083 44.6849 93.7892 43.7629 92.496 43.7629C91.3585 43.7629 90.6281 44.3736 90.4724 45.559L94.3041 45.547ZM89.5863 45.9781C89.5863 44.3017 90.5922 42.9007 92.4601 42.9007C94.3999 42.9007 94.8909 44.4095 94.9507 44.5532C95.31 45.5351 95.1663 46.3972 95.1663 46.3972H90.4724C90.6281 47.5228 91.3585 48.1933 92.4721 48.1933C93.8491 48.1933 94.1844 47.4389 94.2682 47.3192L95.0106 47.7144C95.0106 47.7144 94.5077 49.0555 92.4601 49.0555C90.5922 49.0555 89.5863 47.6425 89.5863 45.9781ZM97.1574 44.2059C97.5047 43.4037 98.4985 42.8648 99.3248 42.8648V43.7509C98.2112 43.7509 97.1574 44.9124 97.1574 45.8823V49.0195H96.2953V42.9247H97.1574V44.2059Z" fill="#BDBDBD"/>
<mask id="path-4-inside-2_1101_63600" fill="white">
<path d="M38.0195 80.9229H232.001V100.413H38.0195V80.9229Z"/>
</mask>
<path d="M38.0195 80.9229H232.001V100.413H38.0195V80.9229Z" fill="white"/>
<path d="M38.0195 80.9229V81.6712H232.001V80.9229V80.1745H38.0195V80.9229Z" fill="#EEEEEE" mask="url(#path-4-inside-2_1101_63600)"/>
<path d="M192.489 95.7321C193.683 95.7321 194.417 94.7367 194.417 92.6308C194.417 90.5248 193.683 89.5399 192.489 89.5399C191.284 89.5399 190.551 90.5248 190.551 92.6308C190.551 94.7367 191.284 95.7321 192.489 95.7321ZM189.796 92.6308C189.796 90.2105 190.865 88.7856 192.489 88.7856C194.103 88.7856 195.171 90.2105 195.171 92.6308C195.171 95.051 194.113 96.4864 192.489 96.4864C190.855 96.4864 189.796 95.051 189.796 92.6308ZM198.925 95.7321C200.119 95.7321 200.853 94.7367 200.853 92.6308C200.853 90.5248 200.119 89.5399 198.925 89.5399C197.72 89.5399 196.987 90.5248 196.987 92.6308C196.987 94.7367 197.72 95.7321 198.925 95.7321ZM196.232 92.6308C196.232 90.2105 197.301 88.7856 198.925 88.7856C200.538 88.7856 201.607 90.2105 201.607 92.6308C201.607 95.051 200.549 96.4864 198.925 96.4864C197.29 96.4864 196.232 95.051 196.232 92.6308ZM205.361 95.7321C206.555 95.7321 207.289 94.7367 207.289 92.6308C207.289 90.5248 206.555 89.5399 205.361 89.5399C204.156 89.5399 203.422 90.5248 203.422 92.6308C203.422 94.7367 204.156 95.7321 205.361 95.7321ZM202.668 92.6308C202.668 90.2105 203.737 88.7856 205.361 88.7856C206.974 88.7856 208.043 90.2105 208.043 92.6308C208.043 95.051 206.985 96.4864 205.361 96.4864C203.726 96.4864 202.668 95.051 202.668 92.6308ZM212.006 88.4084L209.816 96.916H209.062L211.262 88.4084H212.006ZM215.91 95.7321C217.104 95.7321 217.838 94.7367 217.838 92.6308C217.838 90.5248 217.104 89.5399 215.91 89.5399C214.705 89.5399 213.971 90.5248 213.971 92.6308C213.971 94.7367 214.705 95.7321 215.91 95.7321ZM213.217 92.6308C213.217 90.2105 214.286 88.7856 215.91 88.7856C217.523 88.7856 218.592 90.2105 218.592 92.6308C218.592 95.051 217.534 96.4864 215.91 96.4864C214.275 96.4864 213.217 95.051 213.217 92.6308ZM222.345 95.7321C223.54 95.7321 224.273 94.7367 224.273 92.6308C224.273 90.5248 223.54 89.5399 222.345 89.5399C221.141 89.5399 220.407 90.5248 220.407 92.6308C220.407 94.7367 221.141 95.7321 222.345 95.7321ZM219.653 92.6308C219.653 90.2105 220.721 88.7856 222.345 88.7856C223.959 88.7856 225.028 90.2105 225.028 92.6308C225.028 95.051 223.969 96.4864 222.345 96.4864C220.711 96.4864 219.653 95.051 219.653 92.6308ZM228.781 95.7321C229.976 95.7321 230.709 94.7367 230.709 92.6308C230.709 90.5248 229.976 89.5399 228.781 89.5399C227.576 89.5399 226.843 90.5248 226.843 92.6308C226.843 94.7367 227.576 95.7321 228.781 95.7321ZM226.089 92.6308C226.089 90.2105 227.157 88.7856 228.781 88.7856C230.395 88.7856 231.463 90.2105 231.463 92.6308C231.463 95.051 230.405 96.4864 228.781 96.4864C227.147 96.4864 226.089 95.051 226.089 92.6308Z" fill="#999999"/>
<path fill-rule="evenodd" clip-rule="evenodd" d="M44.7784 119.661C44.9975 119.881 44.9975 120.236 44.7784 120.455L36.1719 129.062C35.9527 129.281 35.5974 129.281 35.3782 129.062L31.2621 124.946C31.0429 124.726 31.0429 124.371 31.2621 124.152C31.4812 123.933 31.8366 123.933 32.0558 124.152L35.7751 127.871L43.9846 119.661C44.2038 119.442 44.5592 119.442 44.7784 119.661Z" fill="#999999"/>
<path d="M56.3644 120.797V128.361H55.61V124.841H51.6286V128.361H50.8742V120.797H51.6286V124.108H55.61V120.797H56.3644ZM61.7173 125.323C61.6335 124.569 61.2668 123.762 60.1352 123.762C59.1399 123.762 58.5007 124.296 58.3645 125.333L61.7173 125.323ZM57.5892 125.7C57.5892 124.233 58.4693 123.007 60.1038 123.007C61.8011 123.007 62.2307 124.328 62.2831 124.453C62.5974 125.312 62.4717 126.067 62.4717 126.067H58.3645C58.5007 127.052 59.1399 127.638 60.1143 127.638C61.3192 127.638 61.6125 126.978 61.6859 126.874L62.3355 127.219C62.3355 127.219 61.8954 128.393 60.1038 128.393C58.4693 128.393 57.5892 127.156 57.5892 125.7ZM63.4141 120.587H64.1685V128.361H63.4141V120.587ZM68.1025 127.712C69.255 127.712 69.9046 126.853 69.9046 125.732C69.9046 124.631 69.255 123.772 68.1025 123.772C67.1386 123.772 66.3109 124.631 66.3109 125.732C66.3109 126.853 67.1386 127.712 68.1025 127.712ZM65.546 130.771V123.028H66.3004V124.16C66.6462 123.406 67.4634 123.039 68.113 123.039C69.7475 123.039 70.659 124.286 70.659 125.732C70.659 127.198 69.7475 128.445 68.113 128.445C67.4425 128.445 66.6462 127.995 66.3004 127.314V130.771H65.546ZM81.1173 125.092C81.1173 124.244 80.6039 123.762 79.8496 123.762C79.1476 123.762 78.4246 124.422 78.4246 125.092V128.361H77.6703V125.092C77.6703 124.422 77.2407 123.762 76.4235 123.762C75.6796 123.762 74.9881 124.422 74.9881 125.176V128.361H74.2337V123.028H74.9881V123.95C75.3233 123.374 75.8158 123.028 76.4549 123.028C77.2302 123.028 77.7436 123.364 78.1208 124.097C78.5084 123.552 79.0428 123.028 79.881 123.028C80.9706 123.028 81.8717 123.908 81.8717 125.009V128.361H81.1173V125.092ZM87.0732 125.323C86.9894 124.569 86.6226 123.762 85.4911 123.762C84.4957 123.762 83.8566 124.296 83.7204 125.333L87.0732 125.323ZM82.9451 125.7C82.9451 124.233 83.8252 123.007 85.4597 123.007C87.157 123.007 87.5866 124.328 87.6389 124.453C87.9533 125.312 87.8275 126.067 87.8275 126.067H83.7204C83.8566 127.052 84.4957 127.638 85.4701 127.638C86.675 127.638 86.9684 126.978 87.0417 126.874L87.6913 127.219C87.6913 127.219 87.2513 128.393 85.4597 128.393C83.8252 128.393 82.9451 127.156 82.9451 125.7ZM89.3358 126.915C89.5453 127.397 90.0377 127.68 90.6769 127.649C91.5989 127.628 91.9656 126.486 91.0226 126.182C90.6769 126.077 90.0482 125.91 89.5348 125.574C88.7385 125.04 88.749 124.254 88.99 123.772C89.3148 123.133 90.1425 122.945 90.6245 122.986C91.075 123.039 91.7036 123.196 92.1018 123.73L91.4941 124.17C91.2741 123.867 90.9178 123.772 90.5616 123.73C90.2368 123.699 89.8072 123.814 89.6501 124.108C89.5139 124.39 89.5243 124.673 89.9539 124.956C90.3625 125.229 90.8864 125.354 91.2531 125.48C93.0133 126.046 92.4475 128.351 90.6978 128.393C89.8177 128.435 88.9795 127.974 88.6547 127.209L89.3358 126.915ZM93.6743 126.915C93.8839 127.397 94.3763 127.68 95.0154 127.649C95.9374 127.628 96.3042 126.486 95.3612 126.182C95.0154 126.077 94.3868 125.91 93.8734 125.574C93.0771 125.04 93.0876 124.254 93.3286 123.772C93.6534 123.133 94.4811 122.945 94.963 122.986C95.4136 123.039 96.0422 123.196 96.4404 123.73L95.8327 124.17C95.6126 123.867 95.2564 123.772 94.9002 123.73C94.5754 123.699 94.1458 123.814 93.9887 124.108C93.8524 124.39 93.8629 124.673 94.2925 124.956C94.7011 125.229 95.225 125.354 95.5917 125.48C97.3519 126.046 96.7861 128.351 95.0364 128.393C94.1563 128.435 93.3181 127.974 92.9933 127.209L93.6743 126.915ZM100.093 127.68C101.036 127.68 101.884 126.915 101.895 125.742C101.884 124.579 101.036 123.804 100.093 123.804C98.9298 123.804 98.3011 124.642 98.3011 125.742C98.3011 126.842 98.9298 127.68 100.093 127.68ZM97.5467 125.742C97.5467 124.286 98.4583 123.06 100.082 123.06C100.7 123.06 101.392 123.385 101.874 124.16V123.028H102.628V128.361H101.874V127.314C101.371 128.131 100.711 128.435 100.082 128.435C98.4583 128.435 97.5467 127.188 97.5467 125.742ZM106.283 127.701C107.279 127.701 108.064 126.832 108.064 125.742C108.064 124.673 107.268 123.804 106.283 123.804C105.194 123.804 104.492 124.569 104.492 125.742C104.492 126.936 105.194 127.701 106.283 127.701ZM103.737 125.742C103.737 124.16 104.775 123.07 106.273 123.07C107.069 123.07 107.75 123.489 108.064 124.17V123.028H108.819V128.099C108.798 129.797 107.813 130.761 106.116 130.761C105.267 130.761 104.523 130.321 103.978 129.503L104.617 129.095C105.005 129.702 105.508 130.006 106.116 130.006C107.415 130.006 108.054 129.378 108.064 128.089V127.293C107.698 127.953 106.954 128.435 106.273 128.435C104.775 128.435 103.737 127.335 103.737 125.742ZM113.841 125.323C113.757 124.569 113.391 123.762 112.259 123.762C111.264 123.762 110.624 124.296 110.488 125.333L113.841 125.323ZM109.713 125.7C109.713 124.233 110.593 123.007 112.228 123.007C113.925 123.007 114.354 124.328 114.407 124.453C114.721 125.312 114.595 126.067 114.595 126.067H110.488C110.624 127.052 111.264 127.638 112.238 127.638C113.443 127.638 113.736 126.978 113.81 126.874L114.459 127.219C114.459 127.219 114.019 128.393 112.228 128.393C110.593 128.393 109.713 127.156 109.713 125.7Z" fill="#616161"/>
</g>
<defs>
<filter id="filter0_dd_1101_63600" x="0.338152" y="0.545883" width="269.343" height="163.704" filterUnits="userSpaceOnUse" color-interpolation-filters="sRGB">
<feFlood flood-opacity="0" result="BackgroundImageFix"/>
<feColorMatrix in="SourceAlpha" type="matrix" values="0 0 0 0 0 0 0 0 0 0 0 0 0 0 0 0 0 0 127 0" result="hardAlpha"/>
<feOffset/>
<feGaussianBlur stdDeviation="0.551933"/>
<feComposite in2="hardAlpha" operator="out"/>
<feColorMatrix type="matrix" values="0 0 0 0 0 0 0 0 0 0 0 0 0 0 0 0 0 0 0.2 0"/>
<feBlend mode="normal" in2="BackgroundImageFix" result="effect1_dropShadow_1101_63600"/>
<feColorMatrix in="SourceAlpha" type="matrix" values="0 0 0 0 0 0 0 0 0 0 0 0 0 0 0 0 0 0 127 0" result="hardAlpha"/>
<feOffset dy="2.20773"/>
<feGaussianBlur stdDeviation="8.83092"/>
<feComposite in2="hardAlpha" operator="out"/>
<feColorMatrix type="matrix" values="0 0 0 0 0 0 0 0 0 0 0 0 0 0 0 0 0 0 0.08 0"/>
<feBlend mode="normal" in2="effect1_dropShadow_1101_63600" result="effect2_dropShadow_1101_63600"/>
<feBlend mode="normal" in="SourceGraphic" in2="effect2_dropShadow_1101_63600" result="shape"/>
</filter>
</defs>
</svg>
