<svg width="468" height="111" viewBox="0 0 468 111" fill="none" xmlns="http://www.w3.org/2000/svg">
<path d="M3.89113 14.0341C6.07126 14.0341 7.89264 12.2127 7.89264 10.0188C7.89264 7.82487 6.07126 6.0035 3.89113 6.0035H2.15254V14.0341H3.89113ZM1.15906 15V5.03761H3.89113C6.62319 5.03761 8.85852 7.27294 8.85852 10.0188C8.85852 12.7647 6.62319 15 3.89113 15H1.15906ZM15.161 10.9985C15.0506 10.005 14.5677 8.94254 13.0775 8.94254C11.7666 8.94254 10.9249 9.64625 10.7455 11.0123L15.161 10.9985ZM9.72447 11.4952C9.72447 9.56346 10.8835 7.94906 13.0361 7.94906C15.2714 7.94906 15.8371 9.68765 15.9061 9.85323C16.3201 10.9847 16.1545 11.9782 16.1545 11.9782H10.7455C10.9249 13.2752 11.7666 14.0479 13.0499 14.0479C14.6367 14.0479 15.023 13.1786 15.1196 13.0406L15.9751 13.496C15.9751 13.496 15.3956 15.0414 13.0361 15.0414C10.8835 15.0414 9.72447 13.4132 9.72447 11.4952ZM18.9683 15H17.9748V8.94254H16.7053V7.97666H17.9748V6.62442C17.9748 5.49296 18.8993 4.56847 20.0445 4.56847C20.5689 4.56847 21.0518 4.77544 21.4106 5.09281L20.7483 5.83792C20.5275 5.64474 20.3481 5.56195 20.0445 5.56195C19.3822 5.56195 18.9683 5.9759 18.9683 6.62442V7.97666H20.9966V8.94254H18.9683V15ZM25.0001 14.1031C26.2419 14.1031 27.3596 13.0958 27.3734 11.5504C27.3596 10.0188 26.2419 8.99773 25.0001 8.99773C23.4685 8.99773 22.6406 10.1016 22.6406 11.5504C22.6406 12.9992 23.4685 14.1031 25.0001 14.1031ZM21.6471 11.5504C21.6471 9.63245 22.8475 8.01805 24.9863 8.01805C25.8004 8.01805 26.7111 8.4458 27.3458 9.46687V7.97666H28.3393V15H27.3458V13.6202C26.6835 14.6964 25.8142 15.0966 24.9863 15.0966C22.8475 15.0966 21.6471 13.4546 21.6471 11.5504ZM30.7236 12.1162C30.7236 13.1786 31.3859 14.0341 32.545 14.0341C33.8558 14.0341 34.6285 12.9303 34.6285 11.992V7.92146H35.622V15H34.6285V13.8133C34.118 14.5723 33.5522 15 32.5036 15C30.8754 15 29.7301 13.7582 29.7301 12.2265V7.97666H30.7236V12.1162ZM37.0094 4.76165H38.0028V15H37.0094V4.76165ZM43.1385 14.8482C42.8901 14.9034 42.5176 14.9724 42.1174 14.9724C41.0688 14.9724 40.2271 14.1307 40.2271 13.0958V8.88734H39.0818V7.92146H40.2271V5.75513H41.2205V7.92146H42.8625V8.88734H41.2205V13.0958C41.2205 13.6478 41.5517 13.9789 42.1174 13.9789C42.4348 13.9789 42.697 13.9375 42.9177 13.8823L43.1385 14.8482Z" fill="#616161"/>
<mask id="path-2-inside-1_827_22580" fill="white">
<path d="M121.425 11.0387C121.425 4.94217 126.367 0 132.464 0C138.56 0 143.503 4.94217 143.503 11.0387C143.503 17.1351 138.56 22.0773 132.464 22.0773C126.367 22.0773 121.425 17.1351 121.425 11.0387Z"/>
</mask>
<path d="M121.425 11.0387C121.425 4.94217 126.367 0 132.464 0C138.56 0 143.503 4.94217 143.503 11.0387C143.503 17.1351 138.56 22.0773 132.464 22.0773C126.367 22.0773 121.425 17.1351 121.425 11.0387Z" fill="white"/>
<path d="M132.464 20.9734C126.977 20.9734 122.529 16.5255 122.529 11.0387H120.321C120.321 17.7448 125.758 23.1812 132.464 23.1812V20.9734ZM142.399 11.0387C142.399 16.5255 137.951 20.9734 132.464 20.9734V23.1812C139.17 23.1812 144.606 17.7448 144.606 11.0387H142.399ZM132.464 1.10387C137.951 1.10387 142.399 5.55182 142.399 11.0387H144.606C144.606 4.33253 139.17 -1.10387 132.464 -1.10387V1.10387ZM132.464 -1.10387C125.758 -1.10387 120.321 4.33253 120.321 11.0387H122.529C122.529 5.55182 126.977 1.10387 132.464 1.10387V-1.10387Z" fill="#E0E0E0" mask="url(#path-2-inside-1_827_22580)"/>
<path d="M157.163 11.7234C158.336 11.7234 159.233 10.7714 159.233 9.61231C159.233 8.45325 158.336 7.54256 157.163 7.54256H154.486V11.7234H157.163ZM153.493 16.5391V6.57668H157.135C158.846 6.57668 160.226 7.95651 160.226 9.6399C160.24 11.0473 159.219 12.3444 157.825 12.6203L160.695 16.5391H159.44L156.625 12.6893H154.486V16.5391H153.493ZM164.767 15.6422C166.009 15.6422 167.127 14.6349 167.141 13.0895C167.127 11.5579 166.009 10.5368 164.767 10.5368C163.236 10.5368 162.408 11.6407 162.408 13.0895C162.408 14.5383 163.236 15.6422 164.767 15.6422ZM161.414 13.0895C161.414 11.1715 162.615 9.55711 164.754 9.55711C165.568 9.55711 166.478 9.98486 167.113 11.0059V9.51572H168.107V16.5391H167.113V15.1592C166.451 16.2355 165.581 16.6357 164.754 16.6357C162.615 16.6357 161.414 14.9937 161.414 13.0895ZM172.861 16.6494C170.722 16.6494 169.508 15.0074 169.508 13.0757C169.508 11.1577 170.722 9.50192 172.861 9.50192C173.758 9.50192 174.696 9.95726 175.276 11.0059V6.30071H176.269V16.5391H175.276V15.1454C174.682 16.1941 173.758 16.6494 172.861 16.6494ZM170.501 13.0757C170.501 14.5521 171.343 15.656 172.902 15.656C174.172 15.656 175.276 14.5521 175.276 13.0757C175.276 11.6131 174.172 10.4954 172.902 10.4954C171.343 10.4954 170.501 11.6131 170.501 13.0757ZM178.121 9.51572H179.115V16.5391H178.121V9.51572ZM177.983 6.96303C177.983 6.61807 178.204 6.3421 178.618 6.3421C179.018 6.3421 179.239 6.61807 179.239 6.96303C179.239 7.32178 179.018 7.59775 178.618 7.59775C178.204 7.59775 177.983 7.32178 177.983 6.96303ZM183.914 15.6284C185.459 15.6284 186.273 14.4969 186.273 13.0343C186.273 11.5717 185.459 10.4402 183.914 10.4402C182.355 10.4402 181.568 11.5717 181.568 13.0343C181.568 14.4969 182.355 15.6284 183.914 15.6284ZM180.575 13.0343C180.575 11.1163 181.761 9.47432 183.914 9.47432C186.08 9.47432 187.267 11.1163 187.267 13.0343C187.267 14.9523 186.08 16.5943 183.914 16.5943C181.761 16.5943 180.575 14.9523 180.575 13.0343ZM195.136 15.6698C196.695 15.6698 197.537 14.5521 197.537 13.0757C197.537 11.6131 196.695 10.4816 195.136 10.4816C193.853 10.4816 192.763 11.6131 192.763 13.0757C192.763 14.5521 193.853 15.6698 195.136 15.6698ZM191.769 16.5391V6.30071H192.763V10.9921C193.411 9.86068 194.377 9.51572 195.163 9.51572C197.33 9.51572 198.53 11.1577 198.53 13.0757C198.53 15.0074 197.316 16.6494 195.15 16.6494C194.377 16.6494 193.411 16.3183 192.763 15.1592V16.5391H191.769ZM200.91 13.6552C200.91 14.7177 201.572 15.5732 202.731 15.5732C204.042 15.5732 204.815 14.4693 204.815 13.531V9.46052H205.808V16.5391H204.815V15.3524C204.304 16.1113 203.738 16.5391 202.69 16.5391C201.062 16.5391 199.916 15.2972 199.916 13.7656V9.51572H200.91V13.6552ZM211.045 16.3873C210.797 16.4425 210.424 16.5115 210.024 16.5115C208.975 16.5115 208.134 15.6698 208.134 14.6349V10.4264H206.989V9.46052H208.134V7.29419H209.127V9.46052H210.769V10.4264H209.127V14.6349C209.127 15.1868 209.458 15.518 210.024 15.518C210.342 15.518 210.604 15.4766 210.824 15.4214L211.045 16.3873ZM215.501 16.3873C215.252 16.4425 214.88 16.5115 214.48 16.5115C213.431 16.5115 212.589 15.6698 212.589 14.6349V10.4264H211.444V9.46052H212.589V7.29419H213.583V9.46052H215.225V10.4264H213.583V14.6349C213.583 15.1868 213.914 15.518 214.48 15.518C214.797 15.518 215.059 15.4766 215.28 15.4214L215.501 16.3873ZM219.58 15.6284C221.125 15.6284 221.939 14.4969 221.939 13.0343C221.939 11.5717 221.125 10.4402 219.58 10.4402C218.021 10.4402 217.234 11.5717 217.234 13.0343C217.234 14.4969 218.021 15.6284 219.58 15.6284ZM216.241 13.0343C216.241 11.1163 217.427 9.47432 219.58 9.47432C221.746 9.47432 222.933 11.1163 222.933 13.0343C222.933 14.9523 221.746 16.5943 219.58 16.5943C217.427 16.5943 216.241 14.9523 216.241 13.0343ZM229.077 12.3996C229.077 11.2681 228.415 10.4816 227.256 10.4816C226.055 10.4816 225.172 11.5993 225.172 12.5375V16.5391H224.179V9.51572H225.172V10.7162C225.641 10.0263 226.331 9.51572 227.297 9.51572C228.939 9.51572 230.071 10.7576 230.071 12.303V16.5391H229.077V12.3996ZM241.772 6.57668V7.54256H238.653V16.5391H237.66V7.54256H234.555V6.57668H241.772ZM246.95 12.5375C246.84 11.5441 246.357 10.4816 244.867 10.4816C243.556 10.4816 242.714 11.1853 242.535 12.5513L246.95 12.5375ZM241.514 13.0343C241.514 11.1025 242.673 9.48812 244.825 9.48812C247.061 9.48812 247.626 11.2267 247.695 11.3923C248.109 12.5238 247.944 13.5172 247.944 13.5172H242.535C242.714 14.8143 243.556 15.587 244.839 15.587C246.426 15.587 246.812 14.7177 246.909 14.5797L247.764 15.035C247.764 15.035 247.185 16.5805 244.825 16.5805C242.673 16.5805 241.514 14.9523 241.514 13.0343ZM254.9 9.51572L252.237 13.0343L254.9 16.5391H253.645L251.727 13.9312L249.809 16.5391H248.553L251.202 13.0343L248.553 9.51572H249.809L251.727 12.1512L253.645 9.51572H254.9ZM259.462 16.3873C259.214 16.4425 258.841 16.5115 258.441 16.5115C257.392 16.5115 256.551 15.6698 256.551 14.6349V10.4264H255.406V9.46052H256.551V7.29419H257.544V9.46052H259.186V10.4264H257.544V14.6349C257.544 15.1868 257.875 15.518 258.441 15.518C258.759 15.518 259.021 15.4766 259.241 15.4214L259.462 16.3873Z" fill="#616161"/>
<path d="M327.565 11.0387C327.565 4.94217 332.508 0 338.604 0C344.701 0 349.643 4.94217 349.643 11.0387C349.643 17.1351 344.701 22.0773 338.604 22.0773C332.508 22.0773 327.565 17.1351 327.565 11.0387Z" fill="#FF8120"/>
<path fill-rule="evenodd" clip-rule="evenodd" d="M344.628 6.67097C345.059 7.10206 345.059 7.80099 344.628 8.23207L337.453 15.4072C337.022 15.8383 336.323 15.8383 335.892 15.4072L332.58 12.0956C332.149 11.6645 332.149 10.9656 332.58 10.5345C333.011 10.1034 333.71 10.1034 334.141 10.5345L336.672 13.0655L343.067 6.67097C343.498 6.23988 344.197 6.23988 344.628 6.67097Z" fill="white"/>
<path d="M363.303 11.7234C364.476 11.7234 365.373 10.7714 365.373 9.61231C365.373 8.45325 364.476 7.54256 363.303 7.54256H360.626V11.7234H363.303ZM359.633 16.5391V6.57668H363.275C364.986 6.57668 366.366 7.95651 366.366 9.6399C366.38 11.0473 365.359 12.3444 363.965 12.6203L366.835 16.5391H365.58L362.765 12.6893H360.626V16.5391H359.633ZM370.908 15.6422C372.149 15.6422 373.267 14.6349 373.281 13.0895C373.267 11.5579 372.149 10.5368 370.908 10.5368C369.376 10.5368 368.548 11.6407 368.548 13.0895C368.548 14.5383 369.376 15.6422 370.908 15.6422ZM367.555 13.0895C367.555 11.1715 368.755 9.55711 370.894 9.55711C371.708 9.55711 372.619 9.98486 373.253 11.0059V9.51572H374.247V16.5391H373.253V15.1592C372.591 16.2355 371.722 16.6357 370.894 16.6357C368.755 16.6357 367.555 14.9937 367.555 13.0895ZM379.001 16.6494C376.862 16.6494 375.648 15.0074 375.648 13.0757C375.648 11.1577 376.862 9.50192 379.001 9.50192C379.898 9.50192 380.836 9.95726 381.416 11.0059V6.30071H382.409V16.5391H381.416V15.1454C380.822 16.1941 379.898 16.6494 379.001 16.6494ZM376.642 13.0757C376.642 14.5521 377.483 15.656 379.043 15.656C380.312 15.656 381.416 14.5521 381.416 13.0757C381.416 11.6131 380.312 10.4954 379.043 10.4954C377.483 10.4954 376.642 11.6131 376.642 13.0757ZM384.261 9.51572H385.255V16.5391H384.261V9.51572ZM384.123 6.96303C384.123 6.61807 384.344 6.3421 384.758 6.3421C385.158 6.3421 385.379 6.61807 385.379 6.96303C385.379 7.32178 385.158 7.59775 384.758 7.59775C384.344 7.59775 384.123 7.32178 384.123 6.96303ZM390.054 15.6284C391.599 15.6284 392.414 14.4969 392.414 13.0343C392.414 11.5717 391.599 10.4402 390.054 10.4402C388.495 10.4402 387.708 11.5717 387.708 13.0343C387.708 14.4969 388.495 15.6284 390.054 15.6284ZM386.715 13.0343C386.715 11.1163 387.901 9.47432 390.054 9.47432C392.22 9.47432 393.407 11.1163 393.407 13.0343C393.407 14.9523 392.22 16.5943 390.054 16.5943C387.901 16.5943 386.715 14.9523 386.715 13.0343ZM401.276 15.6698C402.835 15.6698 403.677 14.5521 403.677 13.0757C403.677 11.6131 402.835 10.4816 401.276 10.4816C399.993 10.4816 398.903 11.6131 398.903 13.0757C398.903 14.5521 399.993 15.6698 401.276 15.6698ZM397.909 16.5391V6.30071H398.903V10.9921C399.551 9.86068 400.517 9.51572 401.304 9.51572C403.47 9.51572 404.67 11.1577 404.67 13.0757C404.67 15.0074 403.456 16.6494 401.29 16.6494C400.517 16.6494 399.551 16.3183 398.903 15.1592V16.5391H397.909ZM407.05 13.6552C407.05 14.7177 407.712 15.5732 408.871 15.5732C410.182 15.5732 410.955 14.4693 410.955 13.531V9.46052H411.948V16.5391H410.955V15.3524C410.444 16.1113 409.879 16.5391 408.83 16.5391C407.202 16.5391 406.056 15.2972 406.056 13.7656V9.51572H407.05V13.6552ZM417.185 16.3873C416.937 16.4425 416.564 16.5115 416.164 16.5115C415.116 16.5115 414.274 15.6698 414.274 14.6349V10.4264H413.129V9.46052H414.274V7.29419H415.267V9.46052H416.909V10.4264H415.267V14.6349C415.267 15.1868 415.599 15.518 416.164 15.518C416.482 15.518 416.744 15.4766 416.965 15.4214L417.185 16.3873ZM421.641 16.3873C421.392 16.4425 421.02 16.5115 420.62 16.5115C419.571 16.5115 418.729 15.6698 418.729 14.6349V10.4264H417.584V9.46052H418.729V7.29419H419.723V9.46052H421.365V10.4264H419.723V14.6349C419.723 15.1868 420.054 15.518 420.62 15.518C420.937 15.518 421.199 15.4766 421.42 15.4214L421.641 16.3873ZM425.72 15.6284C427.265 15.6284 428.079 14.4969 428.079 13.0343C428.079 11.5717 427.265 10.4402 425.72 10.4402C424.161 10.4402 423.374 11.5717 423.374 13.0343C423.374 14.4969 424.161 15.6284 425.72 15.6284ZM422.381 13.0343C422.381 11.1163 423.567 9.47432 425.72 9.47432C427.886 9.47432 429.073 11.1163 429.073 13.0343C429.073 14.9523 427.886 16.5943 425.72 16.5943C423.567 16.5943 422.381 14.9523 422.381 13.0343ZM435.217 12.3996C435.217 11.2681 434.555 10.4816 433.396 10.4816C432.195 10.4816 431.312 11.5993 431.312 12.5375V16.5391H430.319V9.51572H431.312V10.7162C431.781 10.0263 432.471 9.51572 433.437 9.51572C435.079 9.51572 436.211 10.7576 436.211 12.303V16.5391H435.217V12.3996ZM447.912 6.57668V7.54256H444.793V16.5391H443.8V7.54256H440.695V6.57668H447.912ZM453.09 12.5375C452.98 11.5441 452.497 10.4816 451.007 10.4816C449.696 10.4816 448.854 11.1853 448.675 12.5513L453.09 12.5375ZM447.654 13.0343C447.654 11.1025 448.813 9.48812 450.965 9.48812C453.201 9.48812 453.766 11.2267 453.835 11.3923C454.249 12.5238 454.084 13.5172 454.084 13.5172H448.675C448.854 14.8143 449.696 15.587 450.979 15.587C452.566 15.587 452.952 14.7177 453.049 14.5797L453.904 15.035C453.904 15.035 453.325 16.5805 450.965 16.5805C448.813 16.5805 447.654 14.9523 447.654 13.0343ZM461.04 9.51572L458.377 13.0343L461.04 16.5391H459.785L457.867 13.9312L455.949 16.5391H454.693L457.342 13.0343L454.693 9.51572H455.949L457.867 12.1512L459.785 9.51572H461.04ZM465.602 16.3873C465.354 16.4425 464.981 16.5115 464.581 16.5115C463.533 16.5115 462.691 15.6698 462.691 14.6349V10.4264H461.546V9.46052H462.691V7.29419H463.684V9.46052H465.326V10.4264H463.684V14.6349C463.684 15.1868 464.016 15.518 464.581 15.518C464.899 15.518 465.161 15.4766 465.382 15.4214L465.602 16.3873Z" fill="#616161"/>
<path d="M4.9536 54.3249C6.11266 54.3249 7.03714 53.3728 7.03714 52.2413C7.03714 51.0823 6.09886 50.1578 4.9398 50.1578H2.12494L2.13874 54.3249H4.9536ZM1.14526 59.1543V49.1919H4.98119C6.66459 49.1919 8.00303 50.5579 8.00303 52.2413C8.00303 53.9109 6.66459 55.2908 4.98119 55.2908H2.13874V59.1543H1.14526ZM10.0757 53.6074C10.4758 52.6829 11.6211 52.062 12.5732 52.062V53.083C11.2899 53.083 10.0757 54.4215 10.0757 55.5391V59.1543H9.0822V52.131H10.0757V53.6074ZM18.3734 55.1528C18.263 54.1593 17.7801 53.0968 16.2899 53.0968C14.979 53.0968 14.1373 53.8005 13.958 55.1666L18.3734 55.1528ZM12.9369 55.6495C12.9369 53.7178 14.096 52.1034 16.2485 52.1034C18.4838 52.1034 19.0496 53.8419 19.1185 54.0075C19.5325 55.139 19.3669 56.1325 19.3669 56.1325H13.958C14.1373 57.4295 14.979 58.2022 16.2623 58.2022C17.8491 58.2022 18.2354 57.3329 18.332 57.1949L19.1875 57.6503C19.1875 57.6503 18.608 59.1957 16.2485 59.1957C14.096 59.1957 12.9369 57.5675 12.9369 55.6495ZM21.1561 57.2501C21.432 57.8849 22.0805 58.2574 22.9222 58.216C24.1365 58.1884 24.6194 56.6844 23.3776 56.2842C22.9222 56.1463 22.0943 55.9255 21.4182 55.4839C20.3696 54.7802 20.3834 53.7454 20.7007 53.1106C21.1285 52.2689 22.2185 52.0206 22.8532 52.0758C23.4466 52.1448 24.2745 52.3517 24.7988 53.0554L23.9985 53.635C23.7087 53.2348 23.2396 53.1106 22.7705 53.0554C22.3427 53.014 21.777 53.1658 21.57 53.5522C21.3906 53.9247 21.4044 54.2973 21.9702 54.6698C22.5083 55.0286 23.1982 55.1942 23.6811 55.3598C25.9993 56.1049 25.2542 59.1405 22.9498 59.1957C21.7908 59.2509 20.6869 58.6438 20.2592 57.6365L21.1561 57.2501ZM26.6727 57.2501C26.9487 57.8849 27.5972 58.2574 28.4389 58.216C29.6531 58.1884 30.1361 56.6844 28.8942 56.2842C28.4389 56.1463 27.611 55.9255 26.9349 55.4839C25.8862 54.7802 25.9 53.7454 26.2173 53.1106C26.6451 52.2689 27.7352 52.0206 28.3699 52.0758C28.9632 52.1448 29.7911 52.3517 30.3154 53.0554L29.5151 53.635C29.2254 53.2348 28.7562 53.1106 28.2871 53.0554C27.8593 53.014 27.2936 53.1658 27.0866 53.5522C26.9073 53.9247 26.9211 54.2973 27.4868 54.6698C28.0249 55.0286 28.7148 55.1942 29.1978 55.3598C31.5159 56.1049 30.7708 59.1405 28.4665 59.1957C27.3074 59.2509 26.2035 58.6438 25.7758 57.6365L26.6727 57.2501ZM37.0119 55.1528C36.9016 54.1593 36.4186 53.0968 34.9284 53.0968C33.6176 53.0968 32.7759 53.8005 32.5965 55.1666L37.0119 55.1528ZM31.5754 55.6495C31.5754 53.7178 32.7345 52.1034 34.887 52.1034C37.1223 52.1034 37.6881 53.8419 37.7571 54.0075C38.171 55.139 38.0054 56.1325 38.0054 56.1325H32.5965C32.7759 57.4295 33.6176 58.2022 34.9008 58.2022C36.4876 58.2022 36.874 57.3329 36.9705 57.1949L37.826 57.6503C37.826 57.6503 37.2465 59.1957 34.887 59.1957C32.7345 59.1957 31.5754 57.5675 31.5754 55.6495ZM42.2507 59.2647C40.1119 59.2647 38.8977 57.6227 38.8977 55.6909C38.8977 53.773 40.1119 52.1172 42.2507 52.1172C43.1476 52.1172 44.0858 52.5725 44.6654 53.6212V48.9159H45.6589V59.1543H44.6654V57.7607C44.072 58.8093 43.1476 59.2647 42.2507 59.2647ZM39.8912 55.6909C39.8912 57.1673 40.7329 58.2712 42.2921 58.2712C43.5615 58.2712 44.6654 57.1673 44.6654 55.6909C44.6654 54.2283 43.5615 53.1106 42.2921 53.1106C40.7329 53.1106 39.8912 54.2283 39.8912 55.6909Z" fill="#616161"/>
<mask id="path-9-inside-2_827_22580" fill="white">
<path d="M121.425 55.193C121.425 49.0965 126.367 44.1543 132.464 44.1543C138.56 44.1543 143.503 49.0965 143.503 55.193C143.503 61.2894 138.56 66.2316 132.464 66.2316C126.367 66.2316 121.425 61.2894 121.425 55.193Z"/>
</mask>
<path d="M121.425 55.193C121.425 49.0965 126.367 44.1543 132.464 44.1543C138.56 44.1543 143.503 49.0965 143.503 55.193C143.503 61.2894 138.56 66.2316 132.464 66.2316C126.367 66.2316 121.425 61.2894 121.425 55.193Z" fill="white"/>
<path d="M132.464 65.1277C126.977 65.1277 122.529 60.6798 122.529 55.193H120.321C120.321 61.8991 125.758 67.3355 132.464 67.3355V65.1277ZM142.399 55.193C142.399 60.6798 137.951 65.1277 132.464 65.1277V67.3355C139.17 67.3355 144.606 61.8991 144.606 55.193H142.399ZM132.464 45.2582C137.951 45.2582 142.399 49.7061 142.399 55.193H144.606C144.606 48.4868 139.17 43.0504 132.464 43.0504V45.2582ZM132.464 43.0504C125.758 43.0504 120.321 48.4868 120.321 55.193H122.529C122.529 49.7061 126.977 45.2582 132.464 45.2582V43.0504Z" fill="#999999" mask="url(#path-9-inside-2_827_22580)"/>
<path d="M157.163 55.8777C158.336 55.8777 159.233 54.9257 159.233 53.7666C159.233 52.6075 158.336 51.6969 157.163 51.6969H154.486V55.8777H157.163ZM153.493 60.6934V50.731H157.135C158.846 50.731 160.226 52.1108 160.226 53.7942C160.24 55.2016 159.219 56.4987 157.825 56.7746L160.695 60.6934H159.44L156.625 56.8436H154.486V60.6934H153.493ZM164.767 59.7965C166.009 59.7965 167.127 58.7892 167.141 57.2438C167.127 55.7122 166.009 54.6911 164.767 54.6911C163.236 54.6911 162.408 55.795 162.408 57.2438C162.408 58.6926 163.236 59.7965 164.767 59.7965ZM161.414 57.2438C161.414 55.3258 162.615 53.7114 164.754 53.7114C165.568 53.7114 166.478 54.1392 167.113 55.1602V53.67H168.107V60.6934H167.113V59.3135C166.451 60.3898 165.581 60.7899 164.754 60.7899C162.615 60.7899 161.414 59.1479 161.414 57.2438ZM172.861 60.8037C170.722 60.8037 169.508 59.1617 169.508 57.23C169.508 55.312 170.722 53.6562 172.861 53.6562C173.758 53.6562 174.696 54.1116 175.276 55.1602V50.455H176.269V60.6934H175.276V59.2997C174.682 60.3484 173.758 60.8037 172.861 60.8037ZM170.501 57.23C170.501 58.7064 171.343 59.8103 172.902 59.8103C174.172 59.8103 175.276 58.7064 175.276 57.23C175.276 55.7674 174.172 54.6497 172.902 54.6497C171.343 54.6497 170.501 55.7674 170.501 57.23ZM178.121 53.67H179.115V60.6934H178.121V53.67ZM177.983 51.1173C177.983 50.7724 178.204 50.4964 178.618 50.4964C179.018 50.4964 179.239 50.7724 179.239 51.1173C179.239 51.4761 179.018 51.752 178.618 51.752C178.204 51.752 177.983 51.4761 177.983 51.1173ZM183.914 59.7827C185.459 59.7827 186.273 58.6512 186.273 57.1886C186.273 55.726 185.459 54.5945 183.914 54.5945C182.355 54.5945 181.568 55.726 181.568 57.1886C181.568 58.6512 182.355 59.7827 183.914 59.7827ZM180.575 57.1886C180.575 55.2706 181.761 53.6286 183.914 53.6286C186.08 53.6286 187.267 55.2706 187.267 57.1886C187.267 59.1066 186.08 60.7486 183.914 60.7486C181.761 60.7486 180.575 59.1066 180.575 57.1886ZM195.136 59.8241C196.695 59.8241 197.537 58.7064 197.537 57.23C197.537 55.7674 196.695 54.6359 195.136 54.6359C193.853 54.6359 192.763 55.7674 192.763 57.23C192.763 58.7064 193.853 59.8241 195.136 59.8241ZM191.769 60.6934V50.455H192.763V55.1464C193.411 54.015 194.377 53.67 195.163 53.67C197.33 53.67 198.53 55.312 198.53 57.23C198.53 59.1617 197.316 60.8037 195.15 60.8037C194.377 60.8037 193.411 60.4726 192.763 59.3135V60.6934H191.769ZM200.91 57.8095C200.91 58.872 201.572 59.7275 202.731 59.7275C204.042 59.7275 204.815 58.6236 204.815 57.6853V53.6148H205.808V60.6934H204.815V59.5067C204.304 60.2656 203.738 60.6934 202.69 60.6934C201.062 60.6934 199.916 59.4515 199.916 57.9199V53.67H200.91V57.8095ZM211.045 60.5416C210.797 60.5968 210.424 60.6658 210.024 60.6658C208.975 60.6658 208.134 59.8241 208.134 58.7892V54.5807H206.989V53.6148H208.134V51.4485H209.127V53.6148H210.769V54.5807H209.127V58.7892C209.127 59.3411 209.458 59.6723 210.024 59.6723C210.342 59.6723 210.604 59.6309 210.824 59.5757L211.045 60.5416ZM215.501 60.5416C215.252 60.5968 214.88 60.6658 214.48 60.6658C213.431 60.6658 212.589 59.8241 212.589 58.7892V54.5807H211.444V53.6148H212.589V51.4485H213.583V53.6148H215.225V54.5807H213.583V58.7892C213.583 59.3411 213.914 59.6723 214.48 59.6723C214.797 59.6723 215.059 59.6309 215.28 59.5757L215.501 60.5416ZM219.58 59.7827C221.125 59.7827 221.939 58.6512 221.939 57.1886C221.939 55.726 221.125 54.5945 219.58 54.5945C218.021 54.5945 217.234 55.726 217.234 57.1886C217.234 58.6512 218.021 59.7827 219.58 59.7827ZM216.241 57.1886C216.241 55.2706 217.427 53.6286 219.58 53.6286C221.746 53.6286 222.933 55.2706 222.933 57.1886C222.933 59.1066 221.746 60.7486 219.58 60.7486C217.427 60.7486 216.241 59.1066 216.241 57.1886ZM229.077 56.5539C229.077 55.4224 228.415 54.6359 227.256 54.6359C226.055 54.6359 225.172 55.7536 225.172 56.6918V60.6934H224.179V53.67H225.172V54.8705C225.641 54.1806 226.331 53.67 227.297 53.67C228.939 53.67 230.071 54.9119 230.071 56.4573V60.6934H229.077V56.5539ZM241.772 50.731V51.6969H238.653V60.6934H237.66V51.6969H234.555V50.731H241.772ZM246.95 56.6918C246.84 55.6984 246.357 54.6359 244.867 54.6359C243.556 54.6359 242.714 55.3396 242.535 56.7056L246.95 56.6918ZM241.514 57.1886C241.514 55.2568 242.673 53.6424 244.825 53.6424C247.061 53.6424 247.626 55.381 247.695 55.5466C248.109 56.678 247.944 57.6715 247.944 57.6715H242.535C242.714 58.9686 243.556 59.7413 244.839 59.7413C246.426 59.7413 246.812 58.872 246.909 58.734L247.764 59.1893C247.764 59.1893 247.185 60.7348 244.825 60.7348C242.673 60.7348 241.514 59.1066 241.514 57.1886ZM254.9 53.67L252.237 57.1886L254.9 60.6934H253.645L251.727 58.0855L249.809 60.6934H248.553L251.202 57.1886L248.553 53.67H249.809L251.727 56.3055L253.645 53.67H254.9ZM259.462 60.5416C259.214 60.5968 258.841 60.6658 258.441 60.6658C257.392 60.6658 256.551 59.8241 256.551 58.7892V54.5807H255.406V53.6148H256.551V51.4485H257.544V53.6148H259.186V54.5807H257.544V58.7892C257.544 59.3411 257.875 59.6723 258.441 59.6723C258.759 59.6723 259.021 59.6309 259.241 59.5757L259.462 60.5416Z" fill="#616161"/>
<path d="M327.565 55.193C327.565 49.0965 332.508 44.1543 338.604 44.1543C344.701 44.1543 349.643 49.0965 349.643 55.193C349.643 61.2894 344.701 66.2316 338.604 66.2316C332.508 66.2316 327.565 61.2894 327.565 55.193Z" fill="#EE6002"/>
<path fill-rule="evenodd" clip-rule="evenodd" d="M344.628 50.8253C345.059 51.2564 345.059 51.9553 344.628 52.3864L337.453 59.5615C337.022 59.9926 336.323 59.9926 335.892 59.5615L332.58 56.2499C332.149 55.8188 332.149 55.1199 332.58 54.6888C333.011 54.2577 333.71 54.2577 334.141 54.6888L336.672 57.2198L343.067 50.8253C343.498 50.3942 344.197 50.3942 344.628 50.8253Z" fill="white"/>
<path d="M363.303 55.8777C364.476 55.8777 365.373 54.9257 365.373 53.7666C365.373 52.6075 364.476 51.6969 363.303 51.6969H360.626V55.8777H363.303ZM359.633 60.6934V50.731H363.275C364.986 50.731 366.366 52.1108 366.366 53.7942C366.38 55.2016 365.359 56.4987 363.965 56.7746L366.835 60.6934H365.58L362.765 56.8436H360.626V60.6934H359.633ZM370.908 59.7965C372.149 59.7965 373.267 58.7892 373.281 57.2438C373.267 55.7122 372.149 54.6911 370.908 54.6911C369.376 54.6911 368.548 55.795 368.548 57.2438C368.548 58.6926 369.376 59.7965 370.908 59.7965ZM367.555 57.2438C367.555 55.3258 368.755 53.7114 370.894 53.7114C371.708 53.7114 372.619 54.1392 373.253 55.1602V53.67H374.247V60.6934H373.253V59.3135C372.591 60.3898 371.722 60.7899 370.894 60.7899C368.755 60.7899 367.555 59.1479 367.555 57.2438ZM379.001 60.8037C376.862 60.8037 375.648 59.1617 375.648 57.23C375.648 55.312 376.862 53.6562 379.001 53.6562C379.898 53.6562 380.836 54.1116 381.416 55.1602V50.455H382.409V60.6934H381.416V59.2997C380.822 60.3484 379.898 60.8037 379.001 60.8037ZM376.642 57.23C376.642 58.7064 377.483 59.8103 379.043 59.8103C380.312 59.8103 381.416 58.7064 381.416 57.23C381.416 55.7674 380.312 54.6497 379.043 54.6497C377.483 54.6497 376.642 55.7674 376.642 57.23ZM384.261 53.67H385.255V60.6934H384.261V53.67ZM384.123 51.1173C384.123 50.7724 384.344 50.4964 384.758 50.4964C385.158 50.4964 385.379 50.7724 385.379 51.1173C385.379 51.4761 385.158 51.752 384.758 51.752C384.344 51.752 384.123 51.4761 384.123 51.1173ZM390.054 59.7827C391.599 59.7827 392.414 58.6512 392.414 57.1886C392.414 55.726 391.599 54.5945 390.054 54.5945C388.495 54.5945 387.708 55.726 387.708 57.1886C387.708 58.6512 388.495 59.7827 390.054 59.7827ZM386.715 57.1886C386.715 55.2706 387.901 53.6286 390.054 53.6286C392.22 53.6286 393.407 55.2706 393.407 57.1886C393.407 59.1066 392.22 60.7486 390.054 60.7486C387.901 60.7486 386.715 59.1066 386.715 57.1886ZM401.276 59.8241C402.835 59.8241 403.677 58.7064 403.677 57.23C403.677 55.7674 402.835 54.6359 401.276 54.6359C399.993 54.6359 398.903 55.7674 398.903 57.23C398.903 58.7064 399.993 59.8241 401.276 59.8241ZM397.909 60.6934V50.455H398.903V55.1464C399.551 54.015 400.517 53.67 401.304 53.67C403.47 53.67 404.67 55.312 404.67 57.23C404.67 59.1617 403.456 60.8037 401.29 60.8037C400.517 60.8037 399.551 60.4726 398.903 59.3135V60.6934H397.909ZM407.05 57.8095C407.05 58.872 407.712 59.7275 408.871 59.7275C410.182 59.7275 410.955 58.6236 410.955 57.6853V53.6148H411.948V60.6934H410.955V59.5067C410.444 60.2656 409.879 60.6934 408.83 60.6934C407.202 60.6934 406.056 59.4515 406.056 57.9199V53.67H407.05V57.8095ZM417.185 60.5416C416.937 60.5968 416.564 60.6658 416.164 60.6658C415.116 60.6658 414.274 59.8241 414.274 58.7892V54.5807H413.129V53.6148H414.274V51.4485H415.267V53.6148H416.909V54.5807H415.267V58.7892C415.267 59.3411 415.599 59.6723 416.164 59.6723C416.482 59.6723 416.744 59.6309 416.965 59.5757L417.185 60.5416ZM421.641 60.5416C421.392 60.5968 421.02 60.6658 420.62 60.6658C419.571 60.6658 418.729 59.8241 418.729 58.7892V54.5807H417.584V53.6148H418.729V51.4485H419.723V53.6148H421.365V54.5807H419.723V58.7892C419.723 59.3411 420.054 59.6723 420.62 59.6723C420.937 59.6723 421.199 59.6309 421.42 59.5757L421.641 60.5416ZM425.72 59.7827C427.265 59.7827 428.079 58.6512 428.079 57.1886C428.079 55.726 427.265 54.5945 425.72 54.5945C424.161 54.5945 423.374 55.726 423.374 57.1886C423.374 58.6512 424.161 59.7827 425.72 59.7827ZM422.381 57.1886C422.381 55.2706 423.567 53.6286 425.72 53.6286C427.886 53.6286 429.073 55.2706 429.073 57.1886C429.073 59.1066 427.886 60.7486 425.72 60.7486C423.567 60.7486 422.381 59.1066 422.381 57.1886ZM435.217 56.5539C435.217 55.4224 434.555 54.6359 433.396 54.6359C432.195 54.6359 431.312 55.7536 431.312 56.6918V60.6934H430.319V53.67H431.312V54.8705C431.781 54.1806 432.471 53.67 433.437 53.67C435.079 53.67 436.211 54.9119 436.211 56.4573V60.6934H435.217V56.5539ZM447.912 50.731V51.6969H444.793V60.6934H443.8V51.6969H440.695V50.731H447.912ZM453.09 56.6918C452.98 55.6984 452.497 54.6359 451.007 54.6359C449.696 54.6359 448.854 55.3396 448.675 56.7056L453.09 56.6918ZM447.654 57.1886C447.654 55.2568 448.813 53.6424 450.965 53.6424C453.201 53.6424 453.766 55.381 453.835 55.5466C454.249 56.678 454.084 57.6715 454.084 57.6715H448.675C448.854 58.9686 449.696 59.7413 450.979 59.7413C452.566 59.7413 452.952 58.872 453.049 58.734L453.904 59.1893C453.904 59.1893 453.325 60.7348 450.965 60.7348C448.813 60.7348 447.654 59.1066 447.654 57.1886ZM461.04 53.67L458.377 57.1886L461.04 60.6934H459.785L457.867 58.0855L455.949 60.6934H454.693L457.342 57.1886L454.693 53.67H455.949L457.867 56.3055L459.785 53.67H461.04ZM465.602 60.5416C465.354 60.5968 464.981 60.6658 464.581 60.6658C463.533 60.6658 462.691 59.8241 462.691 58.7892V54.5807H461.546V53.6148H462.691V51.4485H463.684V53.6148H465.326V54.5807H463.684V58.7892C463.684 59.3411 464.016 59.6723 464.581 59.6723C464.899 59.6723 465.161 59.6309 465.382 59.5757L465.602 60.5416Z" fill="#616161"/>
<path d="M3.89113 102.344C6.07126 102.344 7.89264 100.522 7.89264 98.3284C7.89264 96.1344 6.07126 94.3131 3.89113 94.3131H2.15254V102.344H3.89113ZM1.15906 103.31V93.3472H3.89113C6.62319 93.3472 8.85852 95.5825 8.85852 98.3284C8.85852 101.074 6.62319 103.31 3.89113 103.31H1.15906ZM10.1766 96.2862H11.1701V103.31H10.1766V96.2862ZM10.0386 93.7335C10.0386 93.3886 10.2594 93.1126 10.6733 93.1126C11.0735 93.1126 11.2942 93.3886 11.2942 93.7335C11.2942 94.0923 11.0735 94.3683 10.6733 94.3683C10.2594 94.3683 10.0386 94.0923 10.0386 93.7335ZM13.3891 101.405C13.6651 102.04 14.3136 102.413 15.1553 102.371C16.3695 102.344 16.8525 100.84 15.6106 100.44C15.1553 100.302 14.3274 100.081 13.6513 99.6392C12.6026 98.9355 12.6164 97.9006 12.9338 97.2659C13.3615 96.4242 14.4516 96.1758 15.0863 96.231C15.6796 96.3 16.5075 96.507 17.0319 97.2107L16.2316 97.7902C15.9418 97.3901 15.4727 97.2659 15.0035 97.2107C14.5758 97.1693 14.01 97.3211 13.8031 97.7075C13.6237 98.08 13.6375 98.4526 14.2032 98.8251C14.7413 99.1839 15.4313 99.3495 15.9142 99.515C18.2323 100.26 17.4872 103.296 15.1829 103.351C14.0238 103.406 12.92 102.799 12.4922 101.792L13.3891 101.405ZM21.6448 102.413C22.8867 102.413 24.0043 101.405 24.0181 99.86C24.0043 98.3284 22.8867 97.3073 21.6448 97.3073C20.1132 97.3073 19.2853 98.4112 19.2853 99.86C19.2853 101.309 20.1132 102.413 21.6448 102.413ZM18.2918 99.86C18.2918 97.942 19.4923 96.3276 21.631 96.3276C22.4451 96.3276 23.3558 96.7554 23.9905 97.7764V96.2862H24.984V103.31H23.9905V101.93C23.3282 103.006 22.4589 103.406 21.631 103.406C19.4923 103.406 18.2918 101.764 18.2918 99.86ZM29.8902 102.44C31.4494 102.44 32.2911 101.323 32.2911 99.8462C32.2911 98.3836 31.4494 97.2521 29.8902 97.2521C28.6069 97.2521 27.5169 98.3836 27.5169 99.8462C27.5169 101.323 28.6069 102.44 29.8902 102.44ZM26.5234 103.31V93.0712H27.5169V97.7626C28.1654 96.6312 29.1313 96.2862 29.9178 96.2862C32.0841 96.2862 33.2846 97.9282 33.2846 99.8462C33.2846 101.778 32.0703 103.42 29.904 103.42C29.1313 103.42 28.1654 103.089 27.5169 101.93V103.31H26.5234ZM34.2874 93.0712H35.2809V103.31H34.2874V93.0712ZM41.7201 99.3081C41.6097 98.3146 41.1268 97.2521 39.6365 97.2521C38.3257 97.2521 37.484 97.9558 37.3046 99.3219L41.7201 99.3081ZM36.2835 99.8048C36.2835 97.873 37.4426 96.2586 39.5951 96.2586C41.8305 96.2586 42.3962 97.9972 42.4652 98.1628C42.8791 99.2943 42.7136 100.288 42.7136 100.288H37.3046C37.484 101.585 38.3257 102.357 39.6089 102.357C41.1957 102.357 41.5821 101.488 41.6787 101.35L42.5342 101.806C42.5342 101.806 41.9547 103.351 39.5951 103.351C37.4426 103.351 36.2835 101.723 36.2835 99.8048ZM46.9588 103.42C44.8201 103.42 43.6058 101.778 43.6058 99.8462C43.6058 97.9282 44.8201 96.2724 46.9588 96.2724C47.8557 96.2724 48.794 96.7278 49.3735 97.7764V93.0712H50.367V103.31H49.3735V101.916C48.7802 102.965 47.8557 103.42 46.9588 103.42ZM44.5993 99.8462C44.5993 101.323 45.441 102.426 47.0002 102.426C48.2696 102.426 49.3735 101.323 49.3735 99.8462C49.3735 98.3836 48.2696 97.2659 47.0002 97.2659C45.441 97.2659 44.5993 98.3836 44.5993 99.8462Z" fill="#616161"/>
<mask id="path-16-inside-3_827_22580" fill="white">
<path d="M121.425 99.3482C121.425 93.2517 126.368 88.3096 132.464 88.3096C138.561 88.3096 143.503 93.2517 143.503 99.3482C143.503 105.445 138.561 110.387 132.464 110.387C126.368 110.387 121.425 105.445 121.425 99.3482Z"/>
</mask>
<path d="M121.425 99.3482C121.425 93.2517 126.368 88.3096 132.464 88.3096C138.561 88.3096 143.503 93.2517 143.503 99.3482C143.503 105.445 138.561 110.387 132.464 110.387C126.368 110.387 121.425 105.445 121.425 99.3482Z" fill="#EEEEEE"/>
<path d="M132.464 109.283C126.977 109.283 122.529 104.835 122.529 99.3482H120.322C120.322 106.054 125.758 111.491 132.464 111.491V109.283ZM142.399 99.3482C142.399 104.835 137.951 109.283 132.464 109.283V111.491C139.17 111.491 144.607 106.054 144.607 99.3482H142.399ZM132.464 89.4134C137.951 89.4134 142.399 93.8614 142.399 99.3482H144.607C144.607 92.6421 139.17 87.2057 132.464 87.2057V89.4134ZM132.464 87.2057C125.758 87.2057 120.322 92.6421 120.322 99.3482H122.529C122.529 93.8614 126.977 89.4134 132.464 89.4134V87.2057Z" fill="#BDBDBD" mask="url(#path-16-inside-3_827_22580)"/>
<path d="M157.163 100.033C158.336 100.033 159.233 99.0809 159.233 97.9219C159.233 96.7628 158.336 95.8521 157.163 95.8521H154.486V100.033H157.163ZM153.493 104.849V94.8862H157.135C158.846 94.8862 160.226 96.2661 160.226 97.9495C160.24 99.3569 159.219 100.654 157.825 100.93L160.695 104.849H159.44L156.625 100.999H154.486V104.849H153.493ZM164.768 103.952C166.009 103.952 167.127 102.944 167.141 101.399C167.127 99.8674 166.009 98.8464 164.768 98.8464C163.236 98.8464 162.408 99.9502 162.408 101.399C162.408 102.848 163.236 103.952 164.768 103.952ZM161.415 101.399C161.415 99.4811 162.615 97.8667 164.754 97.8667C165.568 97.8667 166.479 98.2944 167.113 99.3155V97.8253H168.107V104.849H167.113V103.469C166.451 104.545 165.582 104.945 164.754 104.945C162.615 104.945 161.415 103.303 161.415 101.399ZM172.861 104.959C170.722 104.959 169.508 103.317 169.508 101.385C169.508 99.4673 170.722 97.8115 172.861 97.8115C173.758 97.8115 174.696 98.2668 175.276 99.3155V94.6103H176.269V104.849H175.276V103.455C174.682 104.504 173.758 104.959 172.861 104.959ZM170.502 101.385C170.502 102.862 171.343 103.966 172.902 103.966C174.172 103.966 175.276 102.862 175.276 101.385C175.276 99.9226 174.172 98.805 172.902 98.805C171.343 98.805 170.502 99.9226 170.502 101.385ZM178.121 97.8253H179.115V104.849H178.121V97.8253ZM177.983 95.2726C177.983 94.9276 178.204 94.6517 178.618 94.6517C179.018 94.6517 179.239 94.9276 179.239 95.2726C179.239 95.6314 179.018 95.9073 178.618 95.9073C178.204 95.9073 177.983 95.6314 177.983 95.2726ZM183.914 103.938C185.459 103.938 186.273 102.806 186.273 101.344C186.273 99.8812 185.459 98.7498 183.914 98.7498C182.355 98.7498 181.568 99.8812 181.568 101.344C181.568 102.806 182.355 103.938 183.914 103.938ZM180.575 101.344C180.575 99.4259 181.761 97.7839 183.914 97.7839C186.08 97.7839 187.267 99.4259 187.267 101.344C187.267 103.262 186.08 104.904 183.914 104.904C181.761 104.904 180.575 103.262 180.575 101.344ZM195.136 103.979C196.695 103.979 197.537 102.862 197.537 101.385C197.537 99.9226 196.695 98.7912 195.136 98.7912C193.853 98.7912 192.763 99.9226 192.763 101.385C192.763 102.862 193.853 103.979 195.136 103.979ZM191.769 104.849V94.6103H192.763V99.3017C193.411 98.1702 194.377 97.8253 195.164 97.8253C197.33 97.8253 198.53 99.4673 198.53 101.385C198.53 103.317 197.316 104.959 195.15 104.959C194.377 104.959 193.411 104.628 192.763 103.469V104.849H191.769ZM200.91 101.965C200.91 103.027 201.572 103.883 202.731 103.883C204.042 103.883 204.815 102.779 204.815 101.841V97.7701H205.808V104.849H204.815V103.662C204.304 104.421 203.739 104.849 202.69 104.849C201.062 104.849 199.916 103.607 199.916 102.075V97.8253H200.91V101.965ZM211.045 104.697C210.797 104.752 210.424 104.821 210.024 104.821C208.976 104.821 208.134 103.979 208.134 102.944V98.736H206.989V97.7701H208.134V95.6038H209.127V97.7701H210.769V98.736H209.127V102.944C209.127 103.496 209.459 103.828 210.024 103.828C210.342 103.828 210.604 103.786 210.825 103.731L211.045 104.697ZM215.501 104.697C215.252 104.752 214.88 104.821 214.48 104.821C213.431 104.821 212.589 103.979 212.589 102.944V98.736H211.444V97.7701H212.589V95.6038H213.583V97.7701H215.225V98.736H213.583V102.944C213.583 103.496 213.914 103.828 214.48 103.828C214.797 103.828 215.059 103.786 215.28 103.731L215.501 104.697ZM219.58 103.938C221.125 103.938 221.939 102.806 221.939 101.344C221.939 99.8812 221.125 98.7498 219.58 98.7498C218.021 98.7498 217.234 99.8812 217.234 101.344C217.234 102.806 218.021 103.938 219.58 103.938ZM216.241 101.344C216.241 99.4259 217.427 97.7839 219.58 97.7839C221.746 97.7839 222.933 99.4259 222.933 101.344C222.933 103.262 221.746 104.904 219.58 104.904C217.427 104.904 216.241 103.262 216.241 101.344ZM229.077 100.709C229.077 99.5777 228.415 98.7912 227.256 98.7912C226.055 98.7912 225.172 99.9088 225.172 100.847V104.849H224.179V97.8253H225.172V99.0257C225.641 98.3358 226.331 97.8253 227.297 97.8253C228.939 97.8253 230.071 99.0671 230.071 100.613V104.849H229.077V100.709ZM241.772 94.8862V95.8521H238.653V104.849H237.66V95.8521H234.555V94.8862H241.772ZM246.95 100.847C246.84 99.8536 246.357 98.7912 244.867 98.7912C243.556 98.7912 242.714 99.4949 242.535 100.861L246.95 100.847ZM241.514 101.344C241.514 99.4121 242.673 97.7977 244.825 97.7977C247.061 97.7977 247.626 99.5363 247.695 99.7019C248.109 100.833 247.944 101.827 247.944 101.827H242.535C242.714 103.124 243.556 103.897 244.839 103.897C246.426 103.897 246.812 103.027 246.909 102.889L247.764 103.345C247.764 103.345 247.185 104.89 244.825 104.89C242.673 104.89 241.514 103.262 241.514 101.344ZM254.9 97.8253L252.237 101.344L254.9 104.849H253.645L251.727 102.241L249.809 104.849H248.553L251.202 101.344L248.553 97.8253H249.809L251.727 100.461L253.645 97.8253H254.9ZM259.462 104.697C259.214 104.752 258.841 104.821 258.441 104.821C257.393 104.821 256.551 103.979 256.551 102.944V98.736H255.406V97.7701H256.551V95.6038H257.544V97.7701H259.186V98.736H257.544V102.944C257.544 103.496 257.876 103.828 258.441 103.828C258.759 103.828 259.021 103.786 259.242 103.731L259.462 104.697Z" fill="#616161"/>
<path d="M327.565 99.3482C327.565 93.2517 332.508 88.3096 338.604 88.3096C344.701 88.3096 349.643 93.2517 349.643 99.3482C349.643 105.445 344.701 110.387 338.604 110.387C332.508 110.387 327.565 105.445 327.565 99.3482Z" fill="#EEEEEE"/>
<path fill-rule="evenodd" clip-rule="evenodd" d="M344.628 94.9805C345.059 95.4116 345.059 96.1106 344.628 96.5416L337.453 103.717C337.022 104.148 336.323 104.148 335.892 103.717L332.58 100.405C332.149 99.9741 332.149 99.2752 332.58 98.8441C333.011 98.413 333.71 98.413 334.141 98.8441L336.672 101.375L343.067 94.9805C343.498 94.5495 344.197 94.5495 344.628 94.9805Z" fill="#BDBDBD"/>
<path d="M363.303 100.033C364.476 100.033 365.373 99.0809 365.373 97.9219C365.373 96.7628 364.476 95.8521 363.303 95.8521H360.626V100.033H363.303ZM359.633 104.849V94.8862H363.275C364.986 94.8862 366.366 96.2661 366.366 97.9495C366.38 99.3569 365.359 100.654 363.965 100.93L366.835 104.849H365.58L362.765 100.999H360.626V104.849H359.633ZM370.908 103.952C372.149 103.952 373.267 102.944 373.281 101.399C373.267 99.8674 372.149 98.8464 370.908 98.8464C369.376 98.8464 368.548 99.9502 368.548 101.399C368.548 102.848 369.376 103.952 370.908 103.952ZM367.555 101.399C367.555 99.4811 368.755 97.8667 370.894 97.8667C371.708 97.8667 372.619 98.2944 373.253 99.3155V97.8253H374.247V104.849H373.253V103.469C372.591 104.545 371.722 104.945 370.894 104.945C368.755 104.945 367.555 103.303 367.555 101.399ZM379.001 104.959C376.862 104.959 375.648 103.317 375.648 101.385C375.648 99.4673 376.862 97.8115 379.001 97.8115C379.898 97.8115 380.836 98.2668 381.416 99.3155V94.6103H382.409V104.849H381.416V103.455C380.822 104.504 379.898 104.959 379.001 104.959ZM376.642 101.385C376.642 102.862 377.483 103.966 379.043 103.966C380.312 103.966 381.416 102.862 381.416 101.385C381.416 99.9226 380.312 98.805 379.043 98.805C377.483 98.805 376.642 99.9226 376.642 101.385ZM384.261 97.8253H385.255V104.849H384.261V97.8253ZM384.123 95.2726C384.123 94.9276 384.344 94.6517 384.758 94.6517C385.158 94.6517 385.379 94.9276 385.379 95.2726C385.379 95.6314 385.158 95.9073 384.758 95.9073C384.344 95.9073 384.123 95.6314 384.123 95.2726ZM390.054 103.938C391.599 103.938 392.414 102.806 392.414 101.344C392.414 99.8812 391.599 98.7498 390.054 98.7498C388.495 98.7498 387.708 99.8812 387.708 101.344C387.708 102.806 388.495 103.938 390.054 103.938ZM386.715 101.344C386.715 99.4259 387.901 97.7839 390.054 97.7839C392.22 97.7839 393.407 99.4259 393.407 101.344C393.407 103.262 392.22 104.904 390.054 104.904C387.901 104.904 386.715 103.262 386.715 101.344ZM401.276 103.979C402.835 103.979 403.677 102.862 403.677 101.385C403.677 99.9226 402.835 98.7912 401.276 98.7912C399.993 98.7912 398.903 99.9226 398.903 101.385C398.903 102.862 399.993 103.979 401.276 103.979ZM397.909 104.849V94.6103H398.903V99.3017C399.551 98.1702 400.517 97.8253 401.304 97.8253C403.47 97.8253 404.67 99.4673 404.67 101.385C404.67 103.317 403.456 104.959 401.29 104.959C400.517 104.959 399.551 104.628 398.903 103.469V104.849H397.909ZM407.05 101.965C407.05 103.027 407.712 103.883 408.871 103.883C410.182 103.883 410.955 102.779 410.955 101.841V97.7701H411.948V104.849H410.955V103.662C410.444 104.421 409.879 104.849 408.83 104.849C407.202 104.849 406.056 103.607 406.056 102.075V97.8253H407.05V101.965ZM417.185 104.697C416.937 104.752 416.564 104.821 416.164 104.821C415.116 104.821 414.274 103.979 414.274 102.944V98.736H413.129V97.7701H414.274V95.6038H415.267V97.7701H416.909V98.736H415.267V102.944C415.267 103.496 415.599 103.828 416.164 103.828C416.482 103.828 416.744 103.786 416.965 103.731L417.185 104.697ZM421.641 104.697C421.392 104.752 421.02 104.821 420.62 104.821C419.571 104.821 418.729 103.979 418.729 102.944V98.736H417.584V97.7701H418.729V95.6038H419.723V97.7701H421.365V98.736H419.723V102.944C419.723 103.496 420.054 103.828 420.62 103.828C420.937 103.828 421.199 103.786 421.42 103.731L421.641 104.697ZM425.72 103.938C427.265 103.938 428.079 102.806 428.079 101.344C428.079 99.8812 427.265 98.7498 425.72 98.7498C424.161 98.7498 423.374 99.8812 423.374 101.344C423.374 102.806 424.161 103.938 425.72 103.938ZM422.381 101.344C422.381 99.4259 423.567 97.7839 425.72 97.7839C427.886 97.7839 429.073 99.4259 429.073 101.344C429.073 103.262 427.886 104.904 425.72 104.904C423.567 104.904 422.381 103.262 422.381 101.344ZM435.217 100.709C435.217 99.5777 434.555 98.7912 433.396 98.7912C432.195 98.7912 431.312 99.9088 431.312 100.847V104.849H430.319V97.8253H431.312V99.0257C431.781 98.3358 432.471 97.8253 433.437 97.8253C435.079 97.8253 436.211 99.0671 436.211 100.613V104.849H435.217V100.709ZM447.912 94.8862V95.8521H444.793V104.849H443.8V95.8521H440.695V94.8862H447.912ZM453.09 100.847C452.98 99.8536 452.497 98.7912 451.007 98.7912C449.696 98.7912 448.854 99.4949 448.675 100.861L453.09 100.847ZM447.654 101.344C447.654 99.4121 448.813 97.7977 450.965 97.7977C453.201 97.7977 453.766 99.5363 453.835 99.7019C454.249 100.833 454.084 101.827 454.084 101.827H448.675C448.854 103.124 449.696 103.897 450.979 103.897C452.566 103.897 452.952 103.027 453.049 102.889L453.904 103.345C453.904 103.345 453.325 104.89 450.965 104.89C448.813 104.89 447.654 103.262 447.654 101.344ZM461.04 97.8253L458.377 101.344L461.04 104.849H459.785L457.867 102.241L455.949 104.849H454.693L457.342 101.344L454.693 97.8253H455.949L457.867 100.461L459.785 97.8253H461.04ZM465.602 104.697C465.354 104.752 464.981 104.821 464.581 104.821C463.533 104.821 462.691 103.979 462.691 102.944V98.736H461.546V97.7701H462.691V95.6038H463.684V97.7701H465.326V98.736H463.684V102.944C463.684 103.496 464.016 103.828 464.581 103.828C464.899 103.828 465.161 103.786 465.382 103.731L465.602 104.697Z" fill="#616161"/>
</svg>
