<svg width="484" height="128" viewBox="0 0 484 128" fill="none" xmlns="http://www.w3.org/2000/svg">
<path d="M148.773 14.0341C150.954 14.0341 152.775 12.2127 152.775 10.0188C152.775 7.82487 150.954 6.0035 148.773 6.0035H147.035V14.0341H148.773ZM146.041 15V5.03761H148.773C151.506 5.03761 153.741 7.27294 153.741 10.0188C153.741 12.7647 151.506 15 148.773 15H146.041ZM160.043 10.9985C159.933 10.005 159.45 8.94254 157.96 8.94254C156.649 8.94254 155.807 9.64625 155.628 11.0123L160.043 10.9985ZM154.607 11.4952C154.607 9.56346 155.766 7.94906 157.918 7.94906C160.154 7.94906 160.719 9.68765 160.788 9.85323C161.202 10.9847 161.037 11.9782 161.037 11.9782H155.628C155.807 13.2752 156.649 14.0479 157.932 14.0479C159.519 14.0479 159.905 13.1786 160.002 13.0406L160.857 13.496C160.857 13.496 160.278 15.0414 157.918 15.0414C155.766 15.0414 154.607 13.4132 154.607 11.4952ZM163.851 15H162.857V8.94254H161.588V7.97666H162.857V6.62442C162.857 5.49296 163.782 4.56847 164.927 4.56847C165.451 4.56847 165.934 4.77544 166.293 5.09281L165.631 5.83792C165.41 5.64474 165.23 5.56195 164.927 5.56195C164.265 5.56195 163.851 5.9759 163.851 6.62442V7.97666H165.879V8.94254H163.851V15ZM169.882 14.1031C171.124 14.1031 172.242 13.0958 172.256 11.5504C172.242 10.0188 171.124 8.99773 169.882 8.99773C168.351 8.99773 167.523 10.1016 167.523 11.5504C167.523 12.9992 168.351 14.1031 169.882 14.1031ZM166.529 11.5504C166.529 9.63245 167.73 8.01805 169.869 8.01805C170.683 8.01805 171.593 8.4458 172.228 9.46687V7.97666H173.222V15H172.228V13.6202C171.566 14.6964 170.697 15.0966 169.869 15.0966C167.73 15.0966 166.529 13.4546 166.529 11.5504ZM175.606 12.1162C175.606 13.1786 176.268 14.0341 177.427 14.0341C178.738 14.0341 179.511 12.9303 179.511 11.992V7.92146H180.504V15H179.511V13.8133C179 14.5723 178.435 15 177.386 15C175.758 15 174.612 13.7582 174.612 12.2265V7.97666H175.606V12.1162ZM181.892 4.76165H182.885V15H181.892V4.76165ZM188.021 14.8482C187.772 14.9034 187.4 14.9724 187 14.9724C185.951 14.9724 185.109 14.1307 185.109 13.0958V8.88734H183.964V7.92146H185.109V5.75513H186.103V7.92146H187.745V8.88734H186.103V13.0958C186.103 13.6478 186.434 13.9789 187 13.9789C187.317 13.9789 187.579 13.9375 187.8 13.8823L188.021 14.8482Z" fill="#616161"/>
<path d="M297.478 10.1706C298.637 10.1706 299.562 9.2185 299.562 8.08704C299.562 6.92798 298.623 6.0035 297.464 6.0035H294.649L294.663 10.1706H297.478ZM293.67 15V5.03761H297.506C299.189 5.03761 300.527 6.40365 300.527 8.08704C300.527 9.75664 299.189 11.1365 297.506 11.1365H294.663V15H293.67ZM302.6 9.45308C303 8.52859 304.146 7.90766 305.098 7.90766V8.92874C303.814 8.92874 302.6 10.2672 302.6 11.3848V15H301.607V7.97666H302.6V9.45308ZM310.898 10.9985C310.787 10.005 310.305 8.94254 308.814 8.94254C307.503 8.94254 306.662 9.64625 306.482 11.0123L310.898 10.9985ZM305.461 11.4952C305.461 9.56346 306.62 7.94906 308.773 7.94906C311.008 7.94906 311.574 9.68765 311.643 9.85323C312.057 10.9847 311.891 11.9782 311.891 11.9782H306.482C306.662 13.2752 307.503 14.0479 308.787 14.0479C310.374 14.0479 310.76 13.1786 310.856 13.0406L311.712 13.496C311.712 13.496 311.132 15.0414 308.773 15.0414C306.62 15.0414 305.461 13.4132 305.461 11.4952ZM313.68 13.0958C313.956 13.7306 314.605 14.1031 315.447 14.0617C316.661 14.0341 317.144 12.5301 315.902 12.1299C315.447 11.992 314.619 11.7712 313.943 11.3296C312.894 10.6259 312.908 9.59106 313.225 8.95634C313.653 8.11464 314.743 7.86627 315.378 7.92146C315.971 7.99045 316.799 8.19743 317.323 8.90114L316.523 9.48067C316.233 9.08052 315.764 8.95634 315.295 8.90114C314.867 8.85975 314.301 9.01153 314.094 9.39788C313.915 9.77044 313.929 10.143 314.495 10.5155C315.033 10.8743 315.723 11.0399 316.206 11.2055C318.524 11.9506 317.779 14.9862 315.474 15.0414C314.315 15.0966 313.211 14.4895 312.784 13.4822L313.68 13.0958ZM319.197 13.0958C319.473 13.7306 320.122 14.1031 320.963 14.0617C322.178 14.0341 322.66 12.5301 321.419 12.1299C320.963 11.992 320.135 11.7712 319.459 11.3296C318.411 10.6259 318.424 9.59106 318.742 8.95634C319.17 8.11464 320.26 7.86627 320.894 7.92146C321.488 7.99045 322.316 8.19743 322.84 8.90114L322.04 9.48067C321.75 9.08052 321.281 8.95634 320.812 8.90114C320.384 8.85975 319.818 9.01153 319.611 9.39788C319.432 9.77044 319.445 10.143 320.011 10.5155C320.549 10.8743 321.239 11.0399 321.722 11.2055C324.04 11.9506 323.295 14.9862 320.991 15.0414C319.832 15.0966 318.728 14.4895 318.3 13.4822L319.197 13.0958Z" fill="#616161"/>
<path d="M423.36 14.0341C425.54 14.0341 427.362 12.2127 427.362 10.0188C427.362 7.82487 425.54 6.0035 423.36 6.0035H421.622V14.0341H423.36ZM420.628 15V5.03761H423.36C426.092 5.03761 428.328 7.27294 428.328 10.0188C428.328 12.7647 426.092 15 423.36 15H420.628ZM430.091 13.0958C430.367 13.7306 431.015 14.1031 431.857 14.0617C433.071 14.0341 433.554 12.5301 432.312 12.1299C431.857 11.992 431.029 11.7712 430.353 11.3296C429.304 10.6259 429.318 9.59106 429.635 8.95634C430.063 8.11464 431.153 7.86627 431.788 7.92146C432.381 7.99045 433.209 8.19743 433.733 8.90114L432.933 9.48067C432.643 9.08052 432.174 8.95634 431.705 8.90114C431.277 8.85975 430.712 9.01153 430.505 9.39788C430.325 9.77044 430.339 10.143 430.905 10.5155C431.443 10.8743 432.133 11.0399 432.616 11.2055C434.934 11.9506 434.189 14.9862 431.884 15.0414C430.725 15.0966 429.621 14.4895 429.194 13.4822L430.091 13.0958ZM435.176 7.97666H436.169V15H435.176V7.97666ZM435.038 5.42397C435.038 5.07901 435.259 4.80304 435.673 4.80304C436.073 4.80304 436.294 5.07901 436.294 5.42397C436.294 5.78272 436.073 6.05869 435.673 6.05869C435.259 6.05869 435.038 5.78272 435.038 5.42397ZM440.845 14.1031C442.086 14.1031 443.204 13.0958 443.218 11.5504C443.204 10.0188 442.086 8.99773 440.845 8.99773C439.313 8.99773 438.485 10.1016 438.485 11.5504C438.485 12.9992 439.313 14.1031 440.845 14.1031ZM437.492 11.5504C437.492 9.63245 438.692 8.01805 440.831 8.01805C441.645 8.01805 442.556 8.4458 443.19 9.46687V7.97666H444.184V15H443.19V13.6202C442.528 14.6964 441.659 15.0966 440.831 15.0966C438.692 15.0966 437.492 13.4546 437.492 11.5504ZM449.09 14.1307C450.649 14.1307 451.491 13.013 451.491 11.5366C451.491 10.074 450.649 8.94254 449.09 8.94254C447.807 8.94254 446.717 10.074 446.717 11.5366C446.717 13.013 447.807 14.1307 449.09 14.1307ZM445.723 15V4.76165H446.717V9.45308C447.365 8.32161 448.331 7.97666 449.118 7.97666C451.284 7.97666 452.484 9.61866 452.484 11.5366C452.484 13.4684 451.27 15.1104 449.104 15.1104C448.331 15.1104 447.365 14.7792 446.717 13.6202V15H445.723ZM453.487 4.76165H454.481V15H453.487V4.76165ZM460.92 10.9985C460.809 10.005 460.326 8.94254 458.836 8.94254C457.525 8.94254 456.684 9.64625 456.504 11.0123L460.92 10.9985ZM455.483 11.4952C455.483 9.56346 456.642 7.94906 458.795 7.94906C461.03 7.94906 461.596 9.68765 461.665 9.85323C462.079 10.9847 461.913 11.9782 461.913 11.9782H456.504C456.684 13.2752 457.525 14.0479 458.809 14.0479C460.395 14.0479 460.782 13.1786 460.878 13.0406L461.734 13.496C461.734 13.496 461.154 15.0414 458.795 15.0414C456.642 15.0414 455.483 13.4132 455.483 11.4952ZM466.159 15.1104C464.02 15.1104 462.806 13.4684 462.806 11.5366C462.806 9.61866 464.02 7.96286 466.159 7.96286C467.055 7.96286 467.994 8.4182 468.573 9.46687V4.76165H469.567V15H468.573V13.6064C467.98 14.655 467.055 15.1104 466.159 15.1104ZM463.799 11.5366C463.799 13.013 464.641 14.1169 466.2 14.1169C467.469 14.1169 468.573 13.013 468.573 11.5366C468.573 10.074 467.469 8.95634 466.2 8.95634C464.641 8.95634 463.799 10.074 463.799 11.5366Z" fill="#616161"/>
<path d="M4.99499 60.0263C2.92524 60.0263 1.17286 58.3015 1.17286 56.0524V49.9673H2.16634V56.0662C2.16634 57.7909 3.39439 59.0328 4.99499 59.0328C6.5956 59.0328 7.82365 57.7909 7.82365 56.0662V49.9673H8.81713V56.0524C8.81713 58.3015 7.06474 60.0263 4.99499 60.0263ZM15.4645 55.7902C15.4645 54.6587 14.8021 53.8722 13.6431 53.8722C12.4426 53.8722 11.5595 54.9899 11.5595 55.9282V59.9297H10.5661V52.9063H11.5595V54.1068C12.0287 53.4169 12.7186 52.9063 13.6845 52.9063C15.3265 52.9063 16.4579 54.1482 16.4579 55.6936V59.9297H15.4645V55.7902ZM18.4557 58.0255C18.7316 58.6602 19.3802 59.0328 20.2219 58.9914C21.4361 58.9638 21.9191 57.4598 20.6772 57.0596C20.2219 56.9217 19.394 56.7009 18.7179 56.2593C17.6692 55.5556 17.683 54.5207 18.0003 53.886C18.4281 53.0443 19.5182 52.796 20.1529 52.8511C20.7462 52.9201 21.5741 53.1271 22.0984 53.8308L21.2981 54.4104C21.0084 54.0102 20.5392 53.886 20.0701 53.8308C19.6423 53.7894 19.0766 53.9412 18.8696 54.3276C18.6903 54.7001 18.7041 55.0727 19.2698 55.4452C19.8079 55.804 20.4978 55.9696 20.9808 56.1351C23.2989 56.8803 22.5538 59.9159 20.2495 59.9711C19.0904 60.0263 17.9865 59.4191 17.5588 58.4119L18.4557 58.0255ZM28.7949 55.9282C28.6845 54.9347 28.2016 53.8722 26.7114 53.8722C25.4005 53.8722 24.5589 54.5759 24.3795 55.942L28.7949 55.9282ZM23.3584 56.4249C23.3584 54.4931 24.5175 52.8787 26.67 52.8787C28.9053 52.8787 29.4711 54.6173 29.54 54.7829C29.954 55.9144 29.7884 56.9079 29.7884 56.9079H24.3795C24.5589 58.2049 25.4005 58.9776 26.6838 58.9776C28.2706 58.9776 28.657 58.1083 28.7535 57.9703L29.609 58.4257C29.609 58.4257 29.0295 59.9711 26.67 59.9711C24.5175 59.9711 23.3584 58.3429 23.3584 56.4249ZM30.8325 49.6913H31.8259V59.9297H30.8325V49.6913ZM38.2651 55.9282C38.1547 54.9347 37.6718 53.8722 36.1816 53.8722C34.8707 53.8722 34.029 54.5759 33.8496 55.942L38.2651 55.9282ZM32.8286 56.4249C32.8286 54.4931 33.9876 52.8787 36.1402 52.8787C38.3755 52.8787 38.9412 54.6173 39.0102 54.7829C39.4242 55.9144 39.2586 56.9079 39.2586 56.9079H33.8496C34.029 58.2049 34.8707 58.9776 36.154 58.9776C37.7408 58.9776 38.1271 58.1083 38.2237 57.9703L39.0792 58.4257C39.0792 58.4257 38.4997 59.9711 36.1402 59.9711C33.9876 59.9711 32.8286 58.3429 32.8286 56.4249ZM43.3797 59.0052C44.0972 59.0052 44.7595 58.7292 45.2286 58.2601L45.9737 58.9224C45.3114 59.5847 44.4283 59.9987 43.4348 59.9987C41.1719 59.9987 39.8611 58.3291 39.8611 56.3007C39.8611 54.2862 41.1719 52.6166 43.4348 52.6166C44.4283 52.6166 45.3114 53.0305 45.9737 53.6928L45.2286 54.3552C44.7595 53.886 44.0972 53.6101 43.3797 53.6101C41.7514 53.6101 40.8546 54.8105 40.8546 56.3007C40.8546 57.8047 41.7514 59.0052 43.3797 59.0052ZM50.4743 59.7779C50.2259 59.8331 49.8533 59.9021 49.4532 59.9021C48.4045 59.9021 47.5628 59.0604 47.5628 58.0255V53.817H46.4175V52.8511H47.5628V50.6848H48.5563V52.8511H50.1983V53.817H48.5563V58.0255C48.5563 58.5775 48.8874 58.9086 49.4532 58.9086C49.7705 58.9086 50.0327 58.8672 50.2535 58.812L50.4743 59.7779ZM56.5128 55.9282C56.4025 54.9347 55.9195 53.8722 54.4293 53.8722C53.1185 53.8722 52.2768 54.5759 52.0974 55.942L56.5128 55.9282ZM51.0763 56.4249C51.0763 54.4931 52.2354 52.8787 54.3879 52.8787C56.6232 52.8787 57.189 54.6173 57.258 54.7829C57.6719 55.9144 57.5063 56.9079 57.5063 56.9079H52.0974C52.2768 58.2049 53.1185 58.9776 54.4017 58.9776C55.9885 58.9776 56.3749 58.1083 56.4715 57.9703L57.3269 58.4257C57.3269 58.4257 56.7474 59.9711 54.3879 59.9711C52.2354 59.9711 51.0763 58.3429 51.0763 56.4249ZM61.7516 60.0401C59.6128 60.0401 58.3986 58.3981 58.3986 56.4663C58.3986 54.5483 59.6128 52.8925 61.7516 52.8925C62.6485 52.8925 63.5867 53.3479 64.1663 54.3966V49.6913H65.1598V59.9297H64.1663V58.5361C63.573 59.5847 62.6485 60.0401 61.7516 60.0401ZM59.3921 56.4663C59.3921 57.9427 60.2338 59.0466 61.793 59.0466C63.0624 59.0466 64.1663 57.9427 64.1663 56.4663C64.1663 55.0037 63.0624 53.886 61.793 53.886C60.2338 53.886 59.3921 55.0037 59.3921 56.4663Z" fill="#616161"/>
<mask id="path-5-inside-1_890_34825" fill="white">
<path d="M133.232 43.9294C133.232 40.2432 136.22 37.2549 139.906 37.2549H198.93C202.616 37.2549 205.605 40.2432 205.605 43.9294V66.9294C205.605 70.6157 202.616 73.604 198.93 73.604H139.906C136.22 73.604 133.232 70.6157 133.232 66.9294V43.9294Z"/>
</mask>
<path d="M133.232 43.9294C133.232 40.2432 136.22 37.2549 139.906 37.2549H198.93C202.616 37.2549 205.605 40.2432 205.605 43.9294V66.9294C205.605 70.6157 202.616 73.604 198.93 73.604H139.906C136.22 73.604 133.232 70.6157 133.232 66.9294V43.9294Z" fill="white"/>
<path d="M139.906 37.2549V38.0892H198.93V37.2549V36.4206H139.906V37.2549ZM205.605 43.9294H204.77V66.9294H205.605H206.439V43.9294H205.605ZM198.93 73.604V72.7696H139.906V73.604V74.4383H198.93V73.604ZM133.232 66.9294H134.066V43.9294H133.232H132.398V66.9294H133.232ZM139.906 73.604V72.7696C136.681 72.7696 134.066 70.1549 134.066 66.9294H133.232H132.398C132.398 71.0764 135.759 74.4383 139.906 74.4383V73.604ZM205.605 66.9294H204.77C204.77 70.1549 202.156 72.7696 198.93 72.7696V73.604V74.4383C203.077 74.4383 206.439 71.0765 206.439 66.9294H205.605ZM198.93 37.2549V38.0892C202.156 38.0892 204.77 40.704 204.77 43.9294H205.605H206.439C206.439 39.7824 203.077 36.4206 198.93 36.4206V37.2549ZM139.906 37.2549V36.4206C135.759 36.4206 132.398 39.7824 132.398 43.9294H133.232H134.066C134.066 40.704 136.681 38.0892 139.906 38.0892V37.2549Z" fill="#E0E0E0" mask="url(#path-5-inside-1_890_34825)"/>
<path d="M156.376 61.0498C153.102 61.0498 151.03 58.5419 151.03 55.5083C151.03 52.4747 153.102 49.9668 156.376 49.9668C157.863 49.9668 159.199 50.5975 160.16 51.5887L159.364 52.3396C158.598 51.5436 157.547 51.0781 156.376 51.0781C153.748 51.0781 152.126 53.0454 152.126 55.5083C152.126 57.9862 153.748 59.9535 156.376 59.9535C157.547 59.9535 158.598 59.473 159.364 58.677L160.16 59.4279C159.199 60.4191 157.863 61.0498 156.376 61.0498ZM167.293 56.6346C167.293 55.2079 166.482 54.382 165.341 54.382C164.155 54.382 163.118 55.4933 163.118 56.935V60.9297H162.037V49.7865H163.118V54.7274C163.494 53.9465 164.35 53.3307 165.386 53.3307C166.933 53.3307 168.375 54.6523 168.375 56.5746V60.9297H167.293V56.6346ZM170.417 53.2857H171.499V60.9297H170.417V53.2857ZM170.267 50.5074C170.267 50.132 170.507 49.8316 170.958 49.8316C171.393 49.8316 171.634 50.132 171.634 50.5074C171.634 50.8979 171.393 51.1982 170.958 51.1982C170.507 51.1982 170.267 50.8979 170.267 50.5074ZM177.228 59.9986C178.88 59.9986 179.811 58.7671 179.811 57.1602C179.811 55.5834 178.88 54.3519 177.228 54.3519C175.846 54.3519 174.66 55.5834 174.66 57.1602C174.66 58.7671 175.846 59.9986 177.228 59.9986ZM173.563 64.3838V53.2857H174.645V54.9076C175.14 53.8263 176.312 53.3007 177.243 53.3007C179.585 53.3007 180.892 55.0878 180.892 57.1602C180.892 59.2627 179.585 61.0498 177.243 61.0498C176.282 61.0498 175.14 60.4041 174.645 59.4279V64.3838H173.563ZM183.044 58.8572C183.344 59.5481 184.05 59.9535 184.966 59.9085C186.287 59.8784 186.813 58.2415 185.462 57.806C184.966 57.6558 184.065 57.4155 183.329 56.935C182.188 56.1691 182.203 55.0427 182.548 54.3519C183.014 53.4359 184.2 53.1655 184.891 53.2256C185.537 53.3007 186.438 53.526 187.008 54.2919L186.137 54.9226C185.822 54.4871 185.311 54.3519 184.801 54.2919C184.335 54.2468 183.719 54.412 183.494 54.8325C183.299 55.238 183.314 55.6435 183.93 56.0489C184.515 56.4394 185.266 56.6196 185.792 56.7998C188.315 57.6108 187.504 60.9147 184.996 60.9747C183.734 61.0348 182.533 60.374 182.068 59.2777L183.044 58.8572Z" fill="#1A1A1A"/>
<mask id="path-8-inside-2_890_34825" fill="white">
<path d="M271.836 43.9294C271.836 40.2432 274.825 37.2549 278.511 37.2549H337.535C341.221 37.2549 344.209 40.2432 344.209 43.9294V66.9294C344.209 70.6157 341.221 73.604 337.535 73.604H278.511C274.825 73.604 271.836 70.6157 271.836 66.9294V43.9294Z"/>
</mask>
<path d="M271.836 43.9294C271.836 40.2432 274.825 37.2549 278.511 37.2549H337.535C341.221 37.2549 344.209 40.2432 344.209 43.9294V66.9294C344.209 70.6157 341.221 73.604 337.535 73.604H278.511C274.825 73.604 271.836 70.6157 271.836 66.9294V43.9294Z" fill="#F5F5F5"/>
<path d="M278.511 37.2549V38.0892H337.535V37.2549V36.4206H278.511V37.2549ZM344.209 43.9294H343.375V66.9294H344.209H345.043V43.9294H344.209ZM337.535 73.604V72.7696H278.511V73.604V74.4383H337.535V73.604ZM271.836 66.9294H272.671V43.9294H271.836H271.002V66.9294H271.836ZM278.511 73.604V72.7696C275.286 72.7696 272.671 70.1549 272.671 66.9294H271.836H271.002C271.002 71.0764 274.364 74.4383 278.511 74.4383V73.604ZM344.209 66.9294H343.375C343.375 70.1549 340.76 72.7696 337.535 72.7696V73.604V74.4383C341.682 74.4383 345.043 71.0765 345.043 66.9294H344.209ZM337.535 37.2549V38.0892C340.76 38.0892 343.375 40.704 343.375 43.9294H344.209H345.043C345.043 39.7824 341.682 36.4206 337.535 36.4206V37.2549ZM278.511 37.2549V36.4206C274.364 36.4206 271.002 39.7824 271.002 43.9294H271.836H272.671C272.671 40.704 275.285 38.0892 278.511 38.0892V37.2549Z" fill="#616161" mask="url(#path-8-inside-2_890_34825)"/>
<path d="M294.98 61.0498C291.706 61.0498 289.634 58.5419 289.634 55.5083C289.634 52.4747 291.706 49.9668 294.98 49.9668C296.467 49.9668 297.804 50.5975 298.765 51.5887L297.969 52.3396C297.203 51.5436 296.152 51.0781 294.98 51.0781C292.352 51.0781 290.73 53.0454 290.73 55.5083C290.73 57.9862 292.352 59.9535 294.98 59.9535C296.152 59.9535 297.203 59.473 297.969 58.677L298.765 59.4279C297.804 60.4191 296.467 61.0498 294.98 61.0498ZM305.898 56.6346C305.898 55.2079 305.087 54.382 303.945 54.382C302.759 54.382 301.723 55.4933 301.723 56.935V60.9297H300.642V49.7865H301.723V54.7274C302.098 53.9465 302.954 53.3307 303.991 53.3307C305.537 53.3307 306.979 54.6523 306.979 56.5746V60.9297H305.898V56.6346ZM309.022 53.2857H310.103V60.9297H309.022V53.2857ZM308.872 50.5074C308.872 50.132 309.112 49.8316 309.562 49.8316C309.998 49.8316 310.238 50.132 310.238 50.5074C310.238 50.8979 309.998 51.1982 309.562 51.1982C309.112 51.1982 308.872 50.8979 308.872 50.5074ZM315.832 59.9986C317.484 59.9986 318.415 58.7671 318.415 57.1602C318.415 55.5834 317.484 54.3519 315.832 54.3519C314.451 54.3519 313.264 55.5834 313.264 57.1602C313.264 58.7671 314.451 59.9986 315.832 59.9986ZM312.168 64.3838V53.2857H313.249V54.9076C313.745 53.8263 314.916 53.3007 315.847 53.3007C318.19 53.3007 319.496 55.0878 319.496 57.1602C319.496 59.2627 318.19 61.0498 315.847 61.0498C314.886 61.0498 313.745 60.4041 313.249 59.4279V64.3838H312.168ZM321.648 58.8572C321.949 59.5481 322.654 59.9535 323.57 59.9085C324.892 59.8784 325.418 58.2415 324.066 57.806C323.57 57.6558 322.669 57.4155 321.934 56.935C320.792 56.1691 320.807 55.0427 321.153 54.3519C321.618 53.4359 322.805 53.1655 323.495 53.2256C324.141 53.3007 325.042 53.526 325.613 54.2919L324.742 54.9226C324.426 54.4871 323.916 54.3519 323.405 54.2919C322.94 54.2468 322.324 54.412 322.099 54.8325C321.903 55.238 321.918 55.6435 322.534 56.0489C323.12 56.4394 323.871 56.6196 324.396 56.7998C326.919 57.6108 326.108 60.9147 323.6 60.9747C322.339 61.0348 321.138 60.374 320.672 59.2777L321.648 58.8572Z" fill="#1A1A1A"/>
<mask id="path-11-inside-3_890_34825" fill="white">
<path d="M410.441 43.9294C410.441 40.2432 413.429 37.2549 417.116 37.2549H476.139C479.826 37.2549 482.814 40.2432 482.814 43.9294V66.9294C482.814 70.6157 479.826 73.604 476.139 73.604H417.116C413.429 73.604 410.441 70.6157 410.441 66.9294V43.9294Z"/>
</mask>
<path d="M410.441 43.9294C410.441 40.2432 413.429 37.2549 417.116 37.2549H476.139C479.826 37.2549 482.814 40.2432 482.814 43.9294V66.9294C482.814 70.6157 479.826 73.604 476.139 73.604H417.116C413.429 73.604 410.441 70.6157 410.441 66.9294V43.9294Z" fill="#EEEEEE"/>
<path d="M417.116 37.2549V38.0892H476.139V37.2549V36.4206H417.116V37.2549ZM482.814 43.9294H481.98V66.9294H482.814H483.648V43.9294H482.814ZM476.139 73.604V72.7696H417.116V73.604V74.4383H476.139V73.604ZM410.441 66.9294H411.275V43.9294H410.441H409.607V66.9294H410.441ZM417.116 73.604V72.7696C413.89 72.7696 411.275 70.1549 411.275 66.9294H410.441H409.607C409.607 71.0764 412.969 74.4383 417.116 74.4383V73.604ZM482.814 66.9294H481.98C481.98 70.1549 479.365 72.7696 476.139 72.7696V73.604V74.4383C480.286 74.4383 483.648 71.0765 483.648 66.9294H482.814ZM476.139 37.2549V38.0892C479.365 38.0892 481.98 40.704 481.98 43.9294H482.814H483.648C483.648 39.7824 480.286 36.4206 476.139 36.4206V37.2549ZM417.116 37.2549V36.4206C412.969 36.4206 409.607 39.7824 409.607 43.9294H410.441H411.275C411.275 40.704 413.89 38.0892 417.116 38.0892V37.2549Z" fill="#BDBDBD" mask="url(#path-11-inside-3_890_34825)"/>
<path d="M433.585 61.0498C430.311 61.0498 428.239 58.5419 428.239 55.5083C428.239 52.4747 430.311 49.9668 433.585 49.9668C435.072 49.9668 436.408 50.5975 437.37 51.5887L436.574 52.3396C435.808 51.5436 434.756 51.0781 433.585 51.0781C430.957 51.0781 429.335 53.0454 429.335 55.5083C429.335 57.9862 430.957 59.9535 433.585 59.9535C434.756 59.9535 435.808 59.473 436.574 58.677L437.37 59.4279C436.408 60.4191 435.072 61.0498 433.585 61.0498ZM444.502 56.6346C444.502 55.2079 443.692 54.382 442.55 54.382C441.364 54.382 440.328 55.4933 440.328 56.935V60.9297H439.246V49.7865H440.328V54.7274C440.703 53.9465 441.559 53.3307 442.595 53.3307C444.142 53.3307 445.584 54.6523 445.584 56.5746V60.9297H444.502V56.6346ZM447.627 53.2857H448.708V60.9297H447.627V53.2857ZM447.476 50.5074C447.476 50.132 447.717 49.8316 448.167 49.8316C448.603 49.8316 448.843 50.132 448.843 50.5074C448.843 50.8979 448.603 51.1982 448.167 51.1982C447.717 51.1982 447.476 50.8979 447.476 50.5074ZM454.437 59.9986C456.089 59.9986 457.02 58.7671 457.02 57.1602C457.02 55.5834 456.089 54.3519 454.437 54.3519C453.055 54.3519 451.869 55.5834 451.869 57.1602C451.869 58.7671 453.055 59.9986 454.437 59.9986ZM450.773 64.3838V53.2857H451.854V54.9076C452.349 53.8263 453.521 53.3007 454.452 53.3007C456.795 53.3007 458.101 55.0878 458.101 57.1602C458.101 59.2627 456.795 61.0498 454.452 61.0498C453.491 61.0498 452.349 60.4041 451.854 59.4279V64.3838H450.773ZM460.253 58.8572C460.553 59.5481 461.259 59.9535 462.175 59.9085C463.497 59.8784 464.022 58.2415 462.671 57.806C462.175 57.6558 461.274 57.4155 460.538 56.935C459.397 56.1691 459.412 55.0427 459.757 54.3519C460.223 53.4359 461.409 53.1655 462.1 53.2256C462.746 53.3007 463.647 53.526 464.218 54.2919L463.347 54.9226C463.031 54.4871 462.521 54.3519 462.01 54.2919C461.544 54.2468 460.929 54.412 460.703 54.8325C460.508 55.238 460.523 55.6435 461.139 56.0489C461.725 56.4394 462.476 56.6196 463.001 56.7998C465.524 57.6108 464.713 60.9147 462.205 60.9747C460.944 61.0348 459.742 60.374 459.277 59.2777L460.253 58.8572Z" fill="#BDBDBD"/>
<path d="M18.2372 111.762C18.6925 112.769 19.6446 113.362 20.914 113.335C23.0666 113.266 23.6461 110.506 21.5902 109.954C20.9278 109.706 19.8378 109.402 18.8857 108.754C17.5059 107.802 17.5197 106.408 17.9336 105.525C18.4855 104.366 19.962 104.035 20.7899 104.104C21.604 104.159 22.7078 104.49 23.3839 105.47L22.556 106.022C22.1007 105.373 21.397 105.152 20.7071 105.097C20.0861 105.07 19.1893 105.263 18.8443 105.939C18.5683 106.574 18.5683 107.305 19.4376 107.926C20.2517 108.492 21.2314 108.768 21.9213 109.016C25.0397 109.968 24.1567 114.232 20.9416 114.328C19.3548 114.383 17.906 113.542 17.3265 112.148L18.2372 111.762ZM30.3608 110.203C30.2504 109.209 29.7675 108.147 28.2773 108.147C26.9664 108.147 26.1247 108.85 25.9454 110.216L30.3608 110.203ZM24.9243 110.699C24.9243 108.768 26.0834 107.153 28.2359 107.153C30.4712 107.153 31.0369 108.892 31.1059 109.057C31.5199 110.189 31.3543 111.182 31.3543 111.182H25.9454C26.1247 112.479 26.9664 113.252 28.2497 113.252C29.8365 113.252 30.2228 112.383 30.3194 112.245L31.1749 112.7C31.1749 112.7 30.5954 114.245 28.2359 114.245C26.0834 114.245 24.9243 112.617 24.9243 110.699ZM32.3983 103.966H33.3918V114.204H32.3983V103.966ZM39.831 110.203C39.7206 109.209 39.2377 108.147 37.7475 108.147C36.4366 108.147 35.5949 108.85 35.4155 110.216L39.831 110.203ZM34.3945 110.699C34.3945 108.768 35.5535 107.153 37.7061 107.153C39.9414 107.153 40.5071 108.892 40.5761 109.057C40.9901 110.189 40.8245 111.182 40.8245 111.182H35.4155C35.5949 112.479 36.4366 113.252 37.7199 113.252C39.3067 113.252 39.693 112.383 39.7896 112.245L40.6451 112.7C40.6451 112.7 40.0656 114.245 37.7061 114.245C35.5535 114.245 34.3945 112.617 34.3945 110.699ZM44.9455 113.28C45.6631 113.28 46.3254 113.004 46.7945 112.535L47.5396 113.197C46.8773 113.859 45.9942 114.273 45.0007 114.273C42.7378 114.273 41.427 112.603 41.427 110.575C41.427 108.561 42.7378 106.891 45.0007 106.891C45.9942 106.891 46.8773 107.305 47.5396 107.967L46.7945 108.63C46.3254 108.16 45.6631 107.884 44.9455 107.884C43.3173 107.884 42.4205 109.085 42.4205 110.575C42.4205 112.079 43.3173 113.28 44.9455 113.28ZM52.0401 114.052C51.7918 114.108 51.4192 114.177 51.0191 114.177C49.9704 114.177 49.1287 113.335 49.1287 112.3V108.091H47.9834V107.126H49.1287V104.959H50.1222V107.126H51.7642V108.091H50.1222V112.3C50.1222 112.852 50.4533 113.183 51.0191 113.183C51.3364 113.183 51.5986 113.142 51.8194 113.086L52.0401 114.052ZM58.0787 110.203C57.9684 109.209 57.4854 108.147 55.9952 108.147C54.6844 108.147 53.8427 108.85 53.6633 110.216L58.0787 110.203ZM52.6422 110.699C52.6422 108.768 53.8013 107.153 55.9538 107.153C58.1891 107.153 58.7549 108.892 58.8239 109.057C59.2378 110.189 59.0722 111.182 59.0722 111.182H53.6633C53.8427 112.479 54.6844 113.252 55.9676 113.252C57.5544 113.252 57.9408 112.383 58.0373 112.245L58.8928 112.7C58.8928 112.7 58.3133 114.245 55.9538 114.245C53.8013 114.245 52.6422 112.617 52.6422 110.699ZM63.3175 114.314C61.1787 114.314 59.9645 112.672 59.9645 110.741C59.9645 108.823 61.1787 107.167 63.3175 107.167C64.2144 107.167 65.1526 107.622 65.7322 108.671V103.966H66.7257V114.204H65.7322V112.81C65.1388 113.859 64.2144 114.314 63.3175 114.314ZM60.958 110.741C60.958 112.217 61.7997 113.321 63.3589 113.321C64.6283 113.321 65.7322 112.217 65.7322 110.741C65.7322 109.278 64.6283 108.16 63.3589 108.16C61.7997 108.16 60.958 109.278 60.958 110.741Z" fill="#616161"/>
<mask id="path-15-inside-4_890_34825" fill="white">
<path d="M133.968 98.2038C133.968 94.5176 136.956 91.5293 140.642 91.5293H199.666C203.352 91.5293 206.34 94.5176 206.34 98.2038V121.204C206.34 124.89 203.352 127.878 199.666 127.878H140.642C136.956 127.878 133.968 124.89 133.968 121.204V98.2038Z"/>
</mask>
<path d="M133.968 98.2038C133.968 94.5176 136.956 91.5293 140.642 91.5293H199.666C203.352 91.5293 206.34 94.5176 206.34 98.2038V121.204C206.34 124.89 203.352 127.878 199.666 127.878H140.642C136.956 127.878 133.968 124.89 133.968 121.204V98.2038Z" fill="#FFF5E6"/>
<path d="M140.642 91.5293V92.3636H199.666V91.5293V90.695H140.642V91.5293ZM206.34 98.2038H205.506V121.204H206.34H207.175V98.2038H206.34ZM199.666 127.878V127.044H140.642V127.878V128.713H199.666V127.878ZM133.968 121.204H134.802V98.2038H133.968H133.133V121.204H133.968ZM140.642 127.878V127.044C137.417 127.044 134.802 124.429 134.802 121.204H133.968H133.133C133.133 125.351 136.495 128.713 140.642 128.713V127.878ZM206.34 121.204H205.506C205.506 124.429 202.891 127.044 199.666 127.044V127.878V128.713C203.813 128.713 207.175 125.351 207.175 121.204H206.34ZM199.666 91.5293V92.3636C202.891 92.3636 205.506 94.9784 205.506 98.2038H206.34H207.175C207.175 94.0568 203.813 90.695 199.666 90.695V91.5293ZM140.642 91.5293V90.695C136.495 90.695 133.133 94.0568 133.133 98.2038H133.968H134.802C134.802 94.9784 137.417 92.3636 140.642 92.3636V91.5293Z" fill="#EE6002" mask="url(#path-15-inside-4_890_34825)"/>
<path d="M157.112 115.324C153.838 115.324 151.765 112.816 151.765 109.783C151.765 106.749 153.838 104.241 157.112 104.241C158.598 104.241 159.935 104.872 160.896 105.863L160.1 106.614C159.334 105.818 158.283 105.352 157.112 105.352C154.484 105.352 152.862 107.32 152.862 109.783C152.862 112.261 154.484 114.228 157.112 114.228C158.283 114.228 159.334 113.747 160.1 112.951L160.896 113.702C159.935 114.693 158.598 115.324 157.112 115.324ZM168.029 110.909C168.029 109.482 167.218 108.656 166.077 108.656C164.89 108.656 163.854 109.768 163.854 111.209V115.204H162.773V104.061H163.854V109.002C164.23 108.221 165.086 107.605 166.122 107.605C167.669 107.605 169.11 108.927 169.11 110.849V115.204H168.029V110.909ZM171.153 107.56H172.234V115.204H171.153V107.56ZM171.003 104.782C171.003 104.406 171.243 104.106 171.694 104.106C172.129 104.106 172.37 104.406 172.37 104.782C172.37 105.172 172.129 105.473 171.694 105.473C171.243 105.473 171.003 105.172 171.003 104.782ZM177.964 114.273C179.615 114.273 180.547 113.042 180.547 111.435C180.547 109.858 179.615 108.626 177.964 108.626C176.582 108.626 175.395 109.858 175.395 111.435C175.395 113.042 176.582 114.273 177.964 114.273ZM174.299 118.658V107.56H175.38V109.182C175.876 108.101 177.047 107.575 177.979 107.575C180.321 107.575 181.628 109.362 181.628 111.435C181.628 113.537 180.321 115.324 177.979 115.324C177.017 115.324 175.876 114.678 175.38 113.702V118.658H174.299ZM183.78 113.132C184.08 113.822 184.786 114.228 185.702 114.183C187.023 114.153 187.549 112.516 186.197 112.08C185.702 111.93 184.801 111.69 184.065 111.209C182.924 110.443 182.939 109.317 183.284 108.626C183.749 107.71 184.936 107.44 185.627 107.5C186.272 107.575 187.174 107.8 187.744 108.566L186.873 109.197C186.558 108.762 186.047 108.626 185.537 108.566C185.071 108.521 184.455 108.686 184.23 109.107C184.035 109.512 184.05 109.918 184.666 110.323C185.251 110.714 186.002 110.894 186.528 111.074C189.051 111.885 188.24 115.189 185.732 115.249C184.47 115.309 183.269 114.648 182.803 113.552L183.78 113.132Z" fill="#EE6002"/>
<mask id="path-18-inside-5_890_34825" fill="white">
<path d="M272.572 98.2038C272.572 94.5176 275.561 91.5293 279.247 91.5293H338.27C341.957 91.5293 344.945 94.5176 344.945 98.2038V121.204C344.945 124.89 341.957 127.878 338.27 127.878H279.247C275.561 127.878 272.572 124.89 272.572 121.204V98.2038Z"/>
</mask>
<path d="M272.572 98.2038C272.572 94.5176 275.561 91.5293 279.247 91.5293H338.27C341.957 91.5293 344.945 94.5176 344.945 98.2038V121.204C344.945 124.89 341.957 127.878 338.27 127.878H279.247C275.561 127.878 272.572 124.89 272.572 121.204V98.2038Z" fill="#FFC77D"/>
<path d="M279.247 91.5293V92.3636H338.27V91.5293V90.695H279.247V91.5293ZM344.945 98.2038H344.111V121.204H344.945H345.779V98.2038H344.945ZM338.27 127.878V127.044H279.247V127.878V128.713H338.27V127.878ZM272.572 121.204H273.407V98.2038H272.572H271.738V121.204H272.572ZM279.247 127.878V127.044C276.021 127.044 273.407 124.429 273.407 121.204H272.572H271.738C271.738 125.351 275.1 128.713 279.247 128.713V127.878ZM344.945 121.204H344.111C344.111 124.429 341.496 127.044 338.27 127.044V127.878V128.713C342.417 128.713 345.779 125.351 345.779 121.204H344.945ZM338.27 91.5293V92.3636C341.496 92.3636 344.111 94.9784 344.111 98.2038H344.945H345.779C345.779 94.0568 342.417 90.695 338.27 90.695V91.5293ZM279.247 91.5293V90.695C275.1 90.695 271.738 94.0568 271.738 98.2038H272.572H273.407C273.407 94.9784 276.021 92.3636 279.247 92.3636V91.5293Z" fill="#EE6002" mask="url(#path-18-inside-5_890_34825)"/>
<path d="M295.716 115.324C292.442 115.324 290.37 112.816 290.37 109.783C290.37 106.749 292.442 104.241 295.716 104.241C297.203 104.241 298.539 104.872 299.501 105.863L298.705 106.614C297.939 105.818 296.888 105.352 295.716 105.352C293.088 105.352 291.466 107.32 291.466 109.783C291.466 112.261 293.088 114.228 295.716 114.228C296.888 114.228 297.939 113.747 298.705 112.951L299.501 113.702C298.539 114.693 297.203 115.324 295.716 115.324ZM306.634 110.909C306.634 109.482 305.823 108.656 304.681 108.656C303.495 108.656 302.459 109.768 302.459 111.209V115.204H301.377V104.061H302.459V109.002C302.834 108.221 303.69 107.605 304.726 107.605C306.273 107.605 307.715 108.927 307.715 110.849V115.204H306.634V110.909ZM309.758 107.56H310.839V115.204H309.758V107.56ZM309.607 104.782C309.607 104.406 309.848 104.106 310.298 104.106C310.734 104.106 310.974 104.406 310.974 104.782C310.974 105.172 310.734 105.473 310.298 105.473C309.848 105.473 309.607 105.172 309.607 104.782ZM316.568 114.273C318.22 114.273 319.151 113.042 319.151 111.435C319.151 109.858 318.22 108.626 316.568 108.626C315.186 108.626 314 109.858 314 111.435C314 113.042 315.186 114.273 316.568 114.273ZM312.904 118.658V107.56H313.985V109.182C314.481 108.101 315.652 107.575 316.583 107.575C318.926 107.575 320.232 109.362 320.232 111.435C320.232 113.537 318.926 115.324 316.583 115.324C315.622 115.324 314.481 114.678 313.985 113.702V118.658H312.904ZM322.384 113.132C322.684 113.822 323.39 114.228 324.306 114.183C325.628 114.153 326.153 112.516 324.802 112.08C324.306 111.93 323.405 111.69 322.669 111.209C321.528 110.443 321.543 109.317 321.888 108.626C322.354 107.71 323.54 107.44 324.231 107.5C324.877 107.575 325.778 107.8 326.349 108.566L325.478 109.197C325.162 108.762 324.652 108.626 324.141 108.566C323.676 108.521 323.06 108.686 322.835 109.107C322.639 109.512 322.654 109.918 323.27 110.323C323.856 110.714 324.607 110.894 325.132 111.074C327.655 111.885 326.844 115.189 324.336 115.249C323.075 115.309 321.873 114.648 321.408 113.552L322.384 113.132Z" fill="#EE6002"/>
<mask id="path-21-inside-6_890_34825" fill="white">
<path d="M411.177 98.2038C411.177 94.5176 414.165 91.5293 417.852 91.5293H476.875C480.561 91.5293 483.55 94.5176 483.55 98.2038V121.204C483.55 124.89 480.561 127.878 476.875 127.878H417.852C414.165 127.878 411.177 124.89 411.177 121.204V98.2038Z"/>
</mask>
<path d="M411.177 98.2038C411.177 94.5176 414.165 91.5293 417.852 91.5293H476.875C480.561 91.5293 483.55 94.5176 483.55 98.2038V121.204C483.55 124.89 480.561 127.878 476.875 127.878H417.852C414.165 127.878 411.177 124.89 411.177 121.204V98.2038Z" fill="#EEEEEE"/>
<path d="M417.852 91.5293V92.3636H476.875V91.5293V90.695H417.852V91.5293ZM483.55 98.2038H482.715V121.204H483.55H484.384V98.2038H483.55ZM476.875 127.878V127.044H417.852V127.878V128.713H476.875V127.878ZM411.177 121.204H412.011V98.2038H411.177H410.343V121.204H411.177ZM417.852 127.878V127.044C414.626 127.044 412.011 124.429 412.011 121.204H411.177H410.343C410.343 125.351 413.705 128.713 417.852 128.713V127.878ZM483.55 121.204H482.715C482.715 124.429 480.101 127.044 476.875 127.044V127.878V128.713C481.022 128.713 484.384 125.351 484.384 121.204H483.55ZM476.875 91.5293V92.3636C480.101 92.3636 482.715 94.9784 482.715 98.2038H483.55H484.384C484.384 94.0568 481.022 90.695 476.875 90.695V91.5293ZM417.852 91.5293V90.695C413.705 90.695 410.343 94.0568 410.343 98.2038H411.177H412.011C412.011 94.9784 414.626 92.3636 417.852 92.3636V91.5293Z" fill="#BDBDBD" mask="url(#path-21-inside-6_890_34825)"/>
<path d="M434.321 115.324C431.047 115.324 428.975 112.816 428.975 109.783C428.975 106.749 431.047 104.241 434.321 104.241C435.808 104.241 437.144 104.872 438.105 105.863L437.309 106.614C436.544 105.818 435.492 105.352 434.321 105.352C431.693 105.352 430.071 107.32 430.071 109.783C430.071 112.261 431.693 114.228 434.321 114.228C435.492 114.228 436.544 113.747 437.309 112.951L438.105 113.702C437.144 114.693 435.808 115.324 434.321 115.324ZM445.238 110.909C445.238 109.482 444.427 108.656 443.286 108.656C442.1 108.656 441.063 109.768 441.063 111.209V115.204H439.982V104.061H441.063V109.002C441.439 108.221 442.295 107.605 443.331 107.605C444.878 107.605 446.32 108.927 446.32 110.849V115.204H445.238V110.909ZM448.362 107.56H449.444V115.204H448.362V107.56ZM448.212 104.782C448.212 104.406 448.453 104.106 448.903 104.106C449.339 104.106 449.579 104.406 449.579 104.782C449.579 105.172 449.339 105.473 448.903 105.473C448.453 105.473 448.212 105.172 448.212 104.782ZM455.173 114.273C456.825 114.273 457.756 113.042 457.756 111.435C457.756 109.858 456.825 108.626 455.173 108.626C453.791 108.626 452.605 109.858 452.605 111.435C452.605 113.042 453.791 114.273 455.173 114.273ZM451.508 118.658V107.56H452.59V109.182C453.085 108.101 454.257 107.575 455.188 107.575C457.531 107.575 458.837 109.362 458.837 111.435C458.837 113.537 457.531 115.324 455.188 115.324C454.227 115.324 453.085 114.678 452.59 113.702V118.658H451.508ZM460.989 113.132C461.289 113.822 461.995 114.228 462.911 114.183C464.233 114.153 464.758 112.516 463.407 112.08C462.911 111.93 462.01 111.69 461.274 111.209C460.133 110.443 460.148 109.317 460.493 108.626C460.959 107.71 462.145 107.44 462.836 107.5C463.482 107.575 464.383 107.8 464.953 108.566L464.082 109.197C463.767 108.762 463.256 108.626 462.746 108.566C462.28 108.521 461.665 108.686 461.439 109.107C461.244 109.512 461.259 109.918 461.875 110.323C462.46 110.714 463.211 110.894 463.737 111.074C466.26 111.885 465.449 115.189 462.941 115.249C461.68 115.309 460.478 114.648 460.013 113.552L460.989 113.132Z" fill="#BDBDBD"/>
</svg>
