<svg width="239" height="40" viewBox="0 0 239 40" fill="none" xmlns="http://www.w3.org/2000/svg">
<mask id="path-1-inside-1_1391_48421" fill="white">
<path d="M0 0H101V40H0V0Z"/>
</mask>
<path d="M0 0H101V40H0V0Z" fill="white"/>
<path d="M101 40V38.75H0V40V41.25H101V40Z" fill="#111111" mask="url(#path-1-inside-1_1391_48421)"/>
<path d="M33.8779 15.3467H38.1045V19.88H35.4912V21.96C36.6379 21.9333 37.7179 21.8667 38.9579 21.6533L39.0912 22.9867C37.5445 23.2667 36.2245 23.3067 34.7312 23.3067H33.8912V18.5867H36.5179V16.6667H33.8779V15.3467ZM38.5979 19.6V18.2533H39.7979V14.3867H41.3312V25.5333H39.7979V19.6H38.5979ZM42.2245 26.1067V14.16H43.7979V26.1067H42.2245ZM53.3132 14.1467H54.9798V26.1333H53.3132V14.1467ZM45.4198 19.2533C45.4198 16.64 46.7532 15 48.5665 15C50.3665 15 51.6865 16.64 51.6865 19.2533C51.6865 21.88 50.3665 23.52 48.5665 23.52C46.7532 23.52 45.4198 21.88 45.4198 19.2533ZM47.0198 19.2533C47.0198 21.04 47.6465 22.0267 48.5665 22.0267C49.4732 22.0267 50.0998 21.04 50.0998 19.2533C50.0998 17.4667 49.4732 16.4933 48.5665 16.4933C47.6465 16.4933 47.0198 17.4667 47.0198 19.2533ZM58.0018 14.3733H59.6285V15.1867H64.4018V14.3733H66.0418V18.3733H58.0018V14.3733ZM56.6152 20.3467V19.04H67.4152V20.3467H56.6152ZM57.8552 22.28V21.0667H66.0952V24.0667H59.4952V24.8H66.4152V26.0267H57.8818V22.9333H64.4685V22.28H57.8552ZM59.6285 17.1467H64.4018V16.4H59.6285V17.1467Z" fill="#1A1A1A"/>
<rect x="120.417" y="2.41667" width="118.167" height="35.8333" rx="6.25" fill="white"/>
<rect x="120.417" y="2.41667" width="118.167" height="35.8333" rx="6.25" stroke="#111111" stroke-width="0.833333"/>
<path d="M162.733 15.6797H166.96V20.213H164.347V22.293C165.493 22.2663 166.573 22.1997 167.813 21.9863L167.947 23.3197C166.4 23.5997 165.08 23.6397 163.587 23.6397H162.747V18.9197H165.373V16.9997H162.733V15.6797ZM167.453 19.933V18.5863H168.653V14.7197H170.187V25.8663H168.653V19.933H167.453ZM171.08 26.4397V14.493H172.653V26.4397H171.08ZM182.169 14.4797H183.835V26.4663H182.169V14.4797ZM174.275 19.5863C174.275 16.973 175.609 15.333 177.422 15.333C179.222 15.333 180.542 16.973 180.542 19.5863C180.542 22.213 179.222 23.853 177.422 23.853C175.609 23.853 174.275 22.213 174.275 19.5863ZM175.875 19.5863C175.875 21.373 176.502 22.3597 177.422 22.3597C178.329 22.3597 178.955 21.373 178.955 19.5863C178.955 17.7997 178.329 16.8263 177.422 16.8263C176.502 16.8263 175.875 17.7997 175.875 19.5863ZM186.857 14.7063H188.484V15.5197H193.257V14.7063H194.897V18.7063H186.857V14.7063ZM185.471 20.6797V19.373H196.271V20.6797H185.471ZM186.711 22.613V21.3997H194.951V24.3997H188.351V25.133H195.271V26.3597H186.737V23.2663H193.324V22.613H186.711ZM188.484 17.4797H193.257V16.733H188.484V17.4797Z" fill="#1A1A1A"/>
</svg>
