<svg width="251" height="166" viewBox="0 0 251 166" fill="none" xmlns="http://www.w3.org/2000/svg">
<g filter="url(#filter0_dd_1099_78717)">
<g clip-path="url(#clip0_1099_78717)">
<path d="M11 28.1349C11 15.942 20.8843 6.05762 33.0773 6.05762H218.187C230.38 6.05762 240.264 15.942 240.264 28.1349V212.901H11V28.1349Z" fill="white"/>
<path d="M115.442 17.5208C115.442 16.8173 116.013 16.2471 116.716 16.2471H134.548C135.251 16.2471 135.821 16.8173 135.821 17.5208C135.821 18.2242 135.251 18.7945 134.548 18.7945H116.716C116.013 18.7945 115.442 18.2242 115.442 17.5208Z" fill="#79747E"/>
<path d="M30.2968 56.7976H32.08V54.0209H33.6594V60.7969H32.08V58.0712H30.2968V56.7976ZM24.0812 59.5487C25.9026 58.9246 26.7687 57.4344 26.7942 55.9824H24.5015V54.7214H30.6407V55.9824H28.3863C28.4118 57.307 29.2397 58.6571 30.9973 59.2558L30.2077 60.4913C28.9594 60.0709 28.1061 59.243 27.6221 58.2114C27.1253 59.3831 26.2083 60.3257 24.8709 60.7842L24.0812 59.5487ZM25.9026 63.2424C25.9026 61.8796 27.3928 61.0517 29.8001 61.0517C32.2074 61.0517 33.6976 61.8796 33.6976 63.2424C33.6976 64.6435 32.2074 65.4459 29.8001 65.4459C27.3928 65.4459 25.9026 64.6435 25.9026 63.2424ZM27.482 63.2424C27.482 63.9048 28.2844 64.2486 29.8001 64.2486C31.303 64.2486 32.1309 63.9048 32.1309 63.2424C32.1309 62.5929 31.303 62.249 29.8001 62.249C28.2844 62.249 27.482 62.5929 27.482 63.2424ZM41.2572 55.2309H43.1168V54.0209H44.7089V59.9563H43.1168V58.6189H41.2572V57.3707H43.1168V56.4919H41.2572V55.2309ZM35.5893 55.7149V54.5304H40.5949V57.6637H37.1687V58.5298C38.6079 58.517 39.7161 58.4788 41.028 58.3132L41.1299 59.4978C39.6014 59.727 38.315 59.7398 36.4681 59.7398H35.6148V56.5301H39.0283V55.7149H35.5893ZM37.0923 61.5994V60.4148H44.7089V63.4207H38.6716V64.1722H45.0401V65.3695H37.1177V62.2999H43.1423V61.5994H37.0923ZM54.8665 56.4664H56.9936V54.0209H58.573V62.4527H56.9936V57.7401H54.8665V56.4664ZM48.9693 59.8035C50.8417 59.1666 51.6823 57.6 51.6823 55.9569V54.7087H53.2744V55.9697C53.2744 57.4599 54.0768 58.9246 55.8473 59.5487L55.0066 60.7587C53.8094 60.3129 52.9815 59.4723 52.5102 58.4151C52.0134 59.6124 51.1219 60.5549 49.81 61.0389L48.9693 59.8035ZM51.0327 65.2167V61.5866H52.6248V63.9557H58.8277V65.2167H51.0327ZM60.4774 54.7851H64.9481V56.0333H61.9931V57.0268H64.8462V58.2114H61.9931V59.2558C63.2541 59.243 64.1711 59.1794 65.2283 59.001L65.3811 60.2493C64.082 60.4913 62.9739 60.5167 61.2671 60.5167H60.4774V54.7851ZM61.9676 62.733V61.472H69.7881V65.4332H68.2215V62.733H61.9676ZM65.8524 60.8988V54.2247H67.3171V56.823H68.2979V54.0082H69.7881V60.9753H68.2979V58.0967H67.3171V60.8988H65.8524Z" fill="#333333"/>
<path d="M222.404 53.2227C222.586 53.0952 222.839 53.109 223.007 53.2676C223.174 53.4264 223.201 53.6777 223.084 53.8662L223.024 53.9424L217.994 59.251L223.024 64.5596L223.084 64.6358C223.201 64.8243 223.174 65.0756 223.007 65.2344C222.839 65.393 222.586 65.4069 222.404 65.2793L222.331 65.2158L217.337 59.9444L212.344 65.2158C212.162 65.4071 211.86 65.4156 211.669 65.2344C211.478 65.0531 211.469 64.751 211.65 64.5596L216.68 59.251L211.65 53.9424L211.591 53.8662C211.474 53.6777 211.502 53.4263 211.669 53.2676C211.836 53.1091 212.089 53.0956 212.27 53.2227L212.344 53.2862L217.337 58.5567L222.331 53.2862L222.404 53.2227Z" fill="#555555"/>
<path d="M23.7373 87.5738C23.7373 83.3531 27.1588 79.9316 31.3795 79.9316H219.886C224.106 79.9316 227.528 83.3531 227.528 87.5738V108.121C227.528 112.342 224.106 115.763 219.886 115.763H31.3795C27.1588 115.763 23.7373 112.342 23.7373 108.121V87.5738Z" fill="white"/>
<path d="M36.6385 92.6542H37.4982V102.684H36.6385V92.6542ZM29.4167 100.105C32.122 98.8099 33.4861 96.8497 33.6695 94.4424H29.8637V93.7317H34.5407C34.5407 96.6204 33.211 99.1653 29.8752 100.793L29.4167 100.105ZM40.4293 93.0554H41.2775V94.3392H46.2296V93.0554H47.0894V97.056H44.1663V98.1565H48.2701V98.8558H39.2142V98.1565H43.318V97.056H40.4293V93.0554ZM40.3949 102.467V99.6926H41.2546V101.756H47.2728V102.467H40.3949ZM41.2775 96.3682H46.2296V95.027H41.2775V96.3682ZM53.2301 92.9063H54.1128V93.4222C54.1128 94.7519 55.9469 95.9441 57.6435 96.2078L57.311 96.8841C55.8208 96.6204 54.3077 95.7721 53.6772 94.6029C53.0582 95.7951 51.545 96.6319 50.0319 96.8955L49.688 96.2192C51.4189 95.9556 53.2301 94.7863 53.2301 93.4222V92.9063ZM49.1263 98.4775V97.7782H58.2166V98.4775H54.1701V100.552H53.2989V98.4775H49.1263ZM50.2955 102.455V99.5665H51.1553V101.744H57.2079V102.455H50.2955Z" fill="#333333"/>
<path d="M23.7373 122.003C23.7373 119.964 25.3904 118.311 27.4296 118.311H223.836C225.875 118.311 227.528 119.964 227.528 122.003V150.45C227.528 152.489 225.875 154.142 223.836 154.142H27.4296C25.3904 154.142 23.7373 152.489 23.7373 150.45V122.003Z" fill="#FFF5E6"/>
<path d="M29.2906 137.097H38.358V137.819H34.2541V141.075H33.3944V137.819H29.2906V137.097ZM29.8752 135.63C31.6291 135.378 33.3944 134.289 33.3944 133.005V132.982H30.1732V132.283H33.3944V131.033H34.2541V132.283H37.4753V132.982H34.2541V133.005C34.2541 134.277 36.008 135.378 37.7619 135.63L37.4524 136.318C35.9163 136.088 34.4605 135.297 33.83 134.197C33.1881 135.297 31.7208 136.077 30.1847 136.318L29.8752 135.63ZM39.4893 132.397H41.7475V131.102H42.5958V132.397H44.8426V133.085H42.5958V133.417C42.5958 134.77 43.6504 135.951 45.1177 136.421L44.6936 137.097C43.5473 136.719 42.6302 135.916 42.1831 134.873C41.759 135.997 40.8534 136.856 39.6727 137.281L39.2371 136.604C40.7158 136.1 41.7475 134.85 41.7475 133.417V133.085H39.4893V132.397ZM41.0597 140.834V137.854H41.9195V140.123H47.7313V140.834H41.0597ZM44.4872 134.85V134.128H46.585V131.045H47.4447V138.53H46.585V134.85H44.4872ZM53.2301 131.285H54.1128V131.801C54.1128 133.131 55.9469 134.323 57.6435 134.587L57.311 135.263C55.8208 134.999 54.3077 134.151 53.6772 132.982C53.0582 134.174 51.545 135.011 50.0319 135.274L49.688 134.598C51.4189 134.334 53.2301 133.165 53.2301 131.801V131.285ZM49.1263 136.856V136.157H58.2166V136.856H54.1701V138.931H53.2989V136.856H49.1263ZM50.2955 140.834V137.945H51.1553V140.123H57.2079V140.834H50.2955Z" fill="#333333"/>
<path fill-rule="evenodd" clip-rule="evenodd" d="M220.335 131.955C220.584 132.204 220.584 132.607 220.335 132.856L213.33 139.861C213.081 140.11 212.678 140.11 212.429 139.861L209.245 136.677C208.996 136.428 208.996 136.025 209.245 135.776C209.494 135.527 209.897 135.527 210.146 135.776L212.88 138.51L219.435 131.955C219.683 131.706 220.087 131.706 220.335 131.955Z" fill="#EE6002"/>
<path d="M23.7373 164.332C23.7373 160.111 27.1588 156.689 31.3795 156.689H219.886C224.106 156.689 227.528 160.111 227.528 164.332V184.879C227.528 189.1 224.106 192.521 219.886 192.521H31.3795C27.1588 192.521 23.7373 189.1 23.7373 184.879V164.332Z" fill="white"/>
</g>
</g>
<defs>
<filter id="filter0_dd_1099_78717" x="0.810471" y="0.962852" width="249.644" height="227.222" filterUnits="userSpaceOnUse" color-interpolation-filters="sRGB">
<feFlood flood-opacity="0" result="BackgroundImageFix"/>
<feColorMatrix in="SourceAlpha" type="matrix" values="0 0 0 0 0 0 0 0 0 0 0 0 0 0 0 0 0 0 127 0" result="hardAlpha"/>
<feOffset/>
<feGaussianBlur stdDeviation="2.54738"/>
<feComposite in2="hardAlpha" operator="out"/>
<feColorMatrix type="matrix" values="0 0 0 0 0 0 0 0 0 0 0 0 0 0 0 0 0 0 0.12 0"/>
<feBlend mode="normal" in2="BackgroundImageFix" result="effect1_dropShadow_1099_78717"/>
<feColorMatrix in="SourceAlpha" type="matrix" values="0 0 0 0 0 0 0 0 0 0 0 0 0 0 0 0 0 0 127 0" result="hardAlpha"/>
<feOffset dy="5.09476"/>
<feGaussianBlur stdDeviation="5.09476"/>
<feComposite in2="hardAlpha" operator="out"/>
<feColorMatrix type="matrix" values="0 0 0 0 0 0 0 0 0 0 0 0 0 0 0 0 0 0 0.12 0"/>
<feBlend mode="normal" in2="effect1_dropShadow_1099_78717" result="effect2_dropShadow_1099_78717"/>
<feBlend mode="normal" in="SourceGraphic" in2="effect2_dropShadow_1099_78717" result="shape"/>
</filter>
<clipPath id="clip0_1099_78717">
<path d="M11 28.1349C11 15.942 20.8843 6.05762 33.0773 6.05762H218.187C230.38 6.05762 240.264 15.942 240.264 28.1349V212.901H11V28.1349Z" fill="white"/>
</clipPath>
</defs>
</svg>
