<svg width="128" height="40" viewBox="0 0 128 40" fill="none" xmlns="http://www.w3.org/2000/svg">
<mask id="path-1-inside-1_890_34801" fill="white">
<path d="M0 20C0 8.95431 8.95431 0 20 0H108C119.046 0 128 8.95431 128 20C128 31.0457 119.046 40 108 40H20C8.95431 40 0 31.0457 0 20Z"/>
</mask>
<path d="M0 20C0 8.95431 8.95431 0 20 0H108C119.046 0 128 8.95431 128 20C128 31.0457 119.046 40 108 40H20C8.95431 40 0 31.0457 0 20Z" fill="white"/>
<path d="M20 1H108V-1H20V1ZM108 39H20V41H108V39ZM20 39C9.50659 39 1 30.4934 1 20H-1C-1 31.598 8.40202 41 20 41V39ZM127 20C127 30.4934 118.493 39 108 39V41C119.598 41 129 31.598 129 20H127ZM108 1C118.493 1 127 9.50659 127 20H129C129 8.40202 119.598 -1 108 -1V1ZM20 -1C8.40202 -1 -1 8.40202 -1 20H1C1 9.50659 9.50659 1 20 1V-1Z" fill="#E0E0E0" mask="url(#path-1-inside-1_890_34801)"/>
<path d="M28 9.25C33.9371 9.25 38.75 14.0629 38.75 20C38.75 25.9371 33.9371 30.75 28 30.75C22.0629 30.75 17.25 25.9371 17.25 20C17.25 14.0629 22.0629 9.25 28 9.25ZM28 10.75C22.8914 10.75 18.75 14.8914 18.75 20C18.75 25.1086 22.8914 29.25 28 29.25C33.1086 29.25 37.25 25.1086 37.25 20C37.25 14.8914 33.1086 10.75 28 10.75ZM28 19.3438C28.4142 19.3438 28.75 19.6795 28.75 20.0938V24.3018L28.7461 24.3789C28.7075 24.7569 28.3882 25.0518 28 25.0518C27.6118 25.0518 27.2925 24.7569 27.2539 24.3789L27.25 24.3018V20.0938C27.25 19.6795 27.5858 19.3438 28 19.3438ZM28.085 15.1396C28.4632 15.1781 28.7588 15.4974 28.7588 15.8857C28.7585 16.2739 28.463 16.5935 28.085 16.6318L28.0088 16.6357H28C27.5859 16.6357 27.2503 16.2997 27.25 15.8857C27.25 15.4715 27.5858 15.1357 28 15.1357H28.0088L28.085 15.1396Z" fill="#333333"/>
<path d="M46.464 14.448V24.88H52.448V26H45.312V14.448H46.464ZM57.086 24.96C58.526 24.96 59.822 23.792 59.838 22C59.822 20.224 58.526 19.04 57.086 19.04C55.31 19.04 54.35 20.32 54.35 22C54.35 23.68 55.31 24.96 57.086 24.96ZM53.198 22C53.198 19.776 54.59 17.904 57.07 17.904C58.014 17.904 59.07 18.4 59.806 19.584V17.856H60.958V26H59.806V24.4C59.038 25.648 58.03 26.112 57.07 26.112C54.59 26.112 53.198 24.208 53.198 22ZM66.897 24.992C68.705 24.992 69.681 23.696 69.681 21.984C69.681 20.288 68.705 18.976 66.897 18.976C65.409 18.976 64.145 20.288 64.145 21.984C64.145 23.696 65.409 24.992 66.897 24.992ZM62.993 26V14.128H64.145V19.568C64.897 18.256 66.017 17.856 66.929 17.856C69.441 17.856 70.833 19.76 70.833 21.984C70.833 24.224 69.425 26.128 66.913 26.128C66.017 26.128 64.897 25.744 64.145 24.4V26H62.993ZM78.3739 21.36C78.2459 20.208 77.6859 18.976 75.9579 18.976C74.4379 18.976 73.4619 19.792 73.2539 21.376L78.3739 21.36ZM72.0699 21.936C72.0699 19.696 73.4139 17.824 75.9099 17.824C78.5019 17.824 79.1579 19.84 79.2379 20.032C79.7179 21.344 79.5259 22.496 79.5259 22.496H73.2539C73.4619 24 74.4379 24.896 75.9259 24.896C77.7659 24.896 78.2139 23.888 78.3259 23.728L79.3179 24.256C79.3179 24.256 78.6459 26.048 75.9099 26.048C73.4139 26.048 72.0699 24.16 72.0699 21.936ZM80.9865 14.128H82.1385V26H80.9865V14.128Z" fill="#1A1A1A"/>
<path fill-rule="evenodd" clip-rule="evenodd" d="M109.03 13.7197C109.323 14.0126 109.323 14.4874 109.03 14.7803L97.5303 26.2803C97.2374 26.5732 96.7626 26.5732 96.4697 26.2803L90.9697 20.7803C90.6768 20.4874 90.6768 20.0126 90.9697 19.7197C91.2626 19.4268 91.7374 19.4268 92.0303 19.7197L97 24.6893L107.97 13.7197C108.263 13.4268 108.737 13.4268 109.03 13.7197Z" fill="#333333"/>
</svg>
