<svg width="336" height="160" viewBox="0 0 336 160" fill="none" xmlns="http://www.w3.org/2000/svg">
<g opacity="0.6">
<path fill-rule="evenodd" clip-rule="evenodd" d="M93.2337 106.52C90.9354 106.52 88.7314 107.432 87.1063 109.058C85.4812 110.683 84.5682 112.887 84.5682 115.185C84.5682 119.536 83.6371 122.263 82.7601 123.871C82.3203 124.677 81.8889 125.212 81.5825 125.535C81.4291 125.697 81.3064 125.807 81.2288 125.871C81.19 125.904 81.1625 125.925 81.148 125.936L81.1369 125.944C80.79 126.18 80.6362 126.615 80.7582 127.018C80.8811 127.424 81.2554 127.702 81.6797 127.702H104.788C105.212 127.702 105.586 127.424 105.709 127.018C105.831 126.615 105.677 126.18 105.331 125.944L105.319 125.936C105.305 125.925 105.277 125.904 105.239 125.871C105.161 125.807 105.038 125.697 104.885 125.535C104.579 125.212 104.147 124.677 103.707 123.871C102.83 122.263 101.899 119.536 101.899 115.185C101.899 112.887 100.986 110.683 99.3611 109.058C97.7361 107.432 95.5319 106.52 93.2337 106.52ZM102.017 124.793C102.218 125.163 102.421 125.489 102.618 125.776H83.8491C84.0461 125.489 84.249 125.163 84.4506 124.793C85.4993 122.87 86.4939 119.82 86.4939 115.185C86.4939 113.398 87.204 111.683 88.4679 110.419C89.7319 109.155 91.4462 108.445 93.2337 108.445C95.0212 108.445 96.7355 109.155 97.9995 110.419C99.2634 111.683 99.9735 113.398 99.9735 115.185C99.9735 119.82 100.968 122.87 102.017 124.793ZM91.8456 131.391C91.5788 130.931 90.9897 130.774 90.5296 131.041C90.0697 131.308 89.9131 131.897 90.1799 132.357C90.4903 132.892 90.9357 133.336 91.4716 133.645C92.0076 133.954 92.6152 134.116 93.2337 134.116C93.8521 134.116 94.4598 133.954 94.9957 133.645C95.5316 133.336 95.9772 132.892 96.2875 132.357C96.5542 131.897 96.3978 131.308 95.9377 131.041C95.4778 130.774 94.8886 130.931 94.6218 131.391C94.4808 131.634 94.2782 131.836 94.0347 131.976C93.791 132.117 93.5149 132.19 93.2337 132.19C92.9526 132.19 92.6764 132.117 92.4328 131.976C92.1891 131.836 91.9867 131.634 91.8456 131.391Z" fill="#EE6002"/>
<path d="M128.754 126.958C131.114 126.958 132.43 125.343 132.43 123.083C132.43 120.848 131.114 119.209 128.754 119.209C126.792 119.209 125.029 120.749 125.029 123.083C125.029 125.443 126.792 126.958 128.754 126.958ZM122.446 129.317V110.69H125.029V118.886C126.122 117.247 127.711 116.675 128.953 116.675C132.852 116.675 135.013 119.631 135.013 123.083C135.013 126.56 132.828 129.516 128.928 129.516C127.711 129.516 126.171 129.094 125.029 127.281V129.317H122.446ZM140.053 123.729C140.053 125.617 141.196 126.958 143.232 126.958C145.269 126.958 146.585 125.343 146.561 123.605V116.477H149.144V129.491H146.561V127.554C145.666 128.87 144.549 129.491 142.909 129.491C140.103 129.491 137.47 127.455 137.47 123.853V116.526H140.053V123.729ZM159.708 129.168C159.187 129.293 158.094 129.491 157.225 129.442C155.287 129.342 153.45 127.678 153.45 125.517V118.936H151.239V116.402H153.45V112.006H156.033V116.402H159.386V118.936H156.033V125.517C156.033 126.362 156.554 126.834 157.399 126.859C157.97 126.883 158.69 126.759 159.137 126.66L159.708 129.168ZM168.549 129.168C168.027 129.293 166.934 129.491 166.065 129.442C164.128 129.342 162.29 127.678 162.29 125.517V118.936H160.079V116.402H162.29V112.006H164.873V116.402H168.226V118.936H164.873V125.517C164.873 126.362 165.394 126.834 166.239 126.859C166.81 126.883 167.53 126.759 167.977 126.66L168.549 129.168ZM175.793 127.032C178.127 127.032 179.493 125.343 179.493 123.034C179.493 120.699 178.127 119.01 175.793 119.01C173.458 119.01 172.117 120.699 172.117 123.034C172.117 125.343 173.458 127.032 175.793 127.032ZM169.534 123.034C169.534 119.482 171.918 116.452 175.793 116.452C179.767 116.452 182.076 119.482 182.076 123.034C182.076 126.56 179.767 129.591 175.793 129.591C171.918 129.591 169.534 126.56 169.534 123.034ZM193.369 122.289C193.369 120.326 192.251 119.085 190.215 119.085C188.302 119.085 186.837 120.699 186.862 122.438V129.491H184.279V116.526H186.862V118.588C187.731 117.346 188.874 116.526 190.513 116.526C193.046 116.526 195.952 118.464 195.952 122.189V129.491H193.369V122.289Z" fill="#FF8120"/>
<path d="M225.512 110.792C226.083 110.792 226.547 111.256 226.547 111.827V119.467H234.187L234.293 119.473C234.815 119.526 235.222 119.966 235.222 120.502C235.222 121.038 234.815 121.478 234.293 121.531L234.187 121.537H226.547V129.176L226.541 129.282C226.488 129.804 226.047 130.211 225.512 130.211C224.976 130.211 224.536 129.804 224.482 129.282L224.477 129.176V121.537H216.838C216.266 121.537 215.803 121.073 215.803 120.502C215.803 119.93 216.266 119.467 216.838 119.467H224.477V111.827C224.477 111.256 224.94 110.792 225.512 110.792Z" fill="#EE6002"/>
</g>
<rect x="51.9619" y="81.6197" width="211.114" height="77.2706" stroke="#0D69D4" stroke-width="1.37983"/>
<rect x="107.845" y="101.627" width="11.0387" height="37.2555" fill="#C54600" fill-opacity="0.3"/>
<line x1="108.535" y1="60.2324" x2="108.535" y2="158.201" stroke="#C54600" stroke-width="1.37983"/>
<line x1="118.194" y1="60.2324" x2="118.194" y2="158.201" stroke="#C54600" stroke-width="1.37983"/>
<rect x="104.225" y="35.3643" width="18.279" height="19.3798" rx="5.51933" fill="#C54600"/>
<path d="M113.043 50.5152C112.303 50.5152 111.649 50.384 111.081 50.1217C110.517 49.8558 110.076 49.4911 109.76 49.0275C109.444 48.5604 109.288 48.0286 109.291 47.4321C109.288 46.965 109.379 46.5338 109.566 46.1385C109.753 45.7397 110.008 45.4073 110.332 45.1414C110.659 44.8719 111.023 44.7012 111.426 44.6293V44.5647C110.898 44.4281 110.477 44.1317 110.165 43.6753C109.852 43.2154 109.697 42.6925 109.701 42.1068C109.697 41.5463 109.839 41.045 110.127 40.603C110.414 40.161 110.81 39.8125 111.313 39.5574C111.819 39.3022 112.396 39.1747 113.043 39.1747C113.682 39.1747 114.254 39.3022 114.757 39.5574C115.26 39.8125 115.655 40.161 115.943 40.603C116.234 41.045 116.381 41.5463 116.385 42.1068C116.381 42.6925 116.221 43.2154 115.905 43.6753C115.592 44.1317 115.177 44.4281 114.66 44.5647V44.6293C115.059 44.7012 115.418 44.8719 115.738 45.1414C116.058 45.4073 116.313 45.7397 116.503 46.1385C116.694 46.5338 116.791 46.965 116.794 47.4321C116.791 48.0286 116.629 48.5604 116.309 49.0275C115.993 49.4911 115.553 49.8558 114.989 50.1217C114.428 50.384 113.779 50.5152 113.043 50.5152ZM113.043 49.3294C113.542 49.3294 113.973 49.2485 114.336 49.0868C114.699 48.9251 114.98 48.697 115.177 48.4023C115.375 48.1077 115.475 47.7627 115.479 47.3674C115.475 46.9506 115.368 46.5823 115.156 46.2625C114.944 45.9427 114.654 45.6912 114.288 45.5079C113.925 45.3246 113.51 45.233 113.043 45.233C112.572 45.233 112.152 45.3246 111.781 45.5079C111.415 45.6912 111.126 45.9427 110.914 46.2625C110.705 46.5823 110.603 46.9506 110.606 47.3674C110.603 47.7627 110.698 48.1077 110.892 48.4023C111.09 48.697 111.372 48.9251 111.738 49.0868C112.105 49.2485 112.54 49.3294 113.043 49.3294ZM113.043 44.0903C113.438 44.0903 113.788 44.0113 114.094 43.8532C114.403 43.6951 114.645 43.4741 114.821 43.1902C114.998 42.9063 115.087 42.574 115.091 42.1931C115.087 41.8194 114.999 41.4942 114.827 41.2175C114.654 40.9372 114.415 40.7216 114.11 40.5707C113.805 40.4162 113.449 40.3389 113.043 40.3389C112.63 40.3389 112.268 40.4162 111.959 40.5707C111.65 40.7216 111.411 40.9372 111.243 41.2175C111.074 41.4942 110.991 41.8194 110.995 42.1931C110.991 42.574 111.075 42.9063 111.248 43.1902C111.424 43.4741 111.667 43.6951 111.976 43.8532C112.285 44.0113 112.64 44.0903 113.043 44.0903Z" fill="white"/>
<rect x="74.729" y="103.696" width="33.116" height="33.116" fill="#0D69D4" fill-opacity="0.2"/>
<rect x="65" width="54" height="29" rx="5.51933" fill="#333333"/>
<path d="M75.9049 10.0238V20.0138H74.6907V11.4312L73.1453 12.3419L72.5657 11.2795L74.6907 10.0238H75.9049ZM81.2301 18.9099C82.4858 18.9099 83.4102 18.0544 83.4102 16.8126C83.4102 15.5983 82.4858 14.7152 81.2301 14.7152C79.9883 14.7152 79.0914 15.5983 79.0914 16.8126C79.0914 18.0544 79.9745 18.9099 81.2301 18.9099ZM77.8771 16.8126C77.8771 16.1641 78.0703 15.5569 78.4014 15.0464L81.2715 10.01H82.6651L80.6368 13.5562C80.8438 13.5148 81.0507 13.501 81.2577 13.501C83.0653 13.501 84.6245 14.9774 84.6245 16.8126C84.6245 18.6754 83.0791 20.1242 81.2577 20.1242C79.4501 20.1242 77.8771 18.6754 77.8771 16.8126ZM86.3484 14.9498C86.9004 13.6252 88.1284 13.3354 88.7079 13.363C89.4668 13.4182 89.9222 13.7356 90.0464 13.8184L91.2192 14.5497C91.3986 14.6601 91.5504 14.798 91.9367 14.8118C92.2817 14.8256 92.806 14.7152 93.082 13.9977L94.2549 14.4531C93.7443 15.7915 92.4749 16.0951 91.8677 16.0675C91.1364 16.0261 90.6673 15.6811 90.5569 15.6121L89.384 14.8808C89.1909 14.7704 89.0529 14.6463 88.6389 14.6187C88.3078 14.6049 87.7972 14.729 87.5075 15.4328L86.3484 14.9498ZM96.1251 18.8133C98.1258 16.8816 100.996 14.8256 100.996 13.0732C100.996 11.7486 100.154 11.1139 99.1331 11.1139C98.4156 11.1139 97.6153 11.3623 97.1185 12.4799L96.0147 11.997C96.746 10.3274 98.1948 9.89963 99.1331 9.89963C100.637 9.89963 102.21 11.0725 102.21 13.0732C102.21 15.143 99.823 17.1299 97.9326 18.8133H102.376V20.0276H96.1251V18.8133ZM109.394 10.0238V16.2469H110.774V17.4335H109.394V20.0138H108.18V17.4335H103.695V16.2469L108.221 10.0238H109.394ZM105.158 16.2469H108.18V12.0798L105.158 16.2469Z" fill="white"/>
<path d="M88.6352 102.03C88.6527 104.062 90.3142 105.695 92.3463 105.678C94.3784 105.66 96.0115 103.999 95.994 101.967C95.9765 99.9345 94.315 98.3013 92.2829 98.3189C90.2508 98.3364 88.6177 99.9979 88.6352 102.03ZM90.9954 29.0069L91.6247 102.004L93.0045 101.992L92.3752 28.995L90.9954 29.0069Z" fill="black"/>
<path d="M88.5 102L95.5 102" stroke="black" stroke-width="1.37983"/>
<rect x="196.154" y="101.627" width="11.0387" height="37.2555" fill="#C54600" fill-opacity="0.3"/>
<line x1="196.844" y1="60.2324" x2="196.844" y2="158.201" stroke="#C54600" stroke-width="1.37983"/>
<line x1="206.503" y1="60.2324" x2="206.503" y2="158.201" stroke="#C54600" stroke-width="1.37983"/>
<rect x="192.534" y="35.3643" width="18.279" height="19.3798" rx="5.51933" fill="#C54600"/>
<path d="M201.352 50.5152C200.612 50.5152 199.958 50.384 199.39 50.1217C198.826 49.8558 198.386 49.4911 198.07 49.0275C197.753 48.5604 197.597 48.0286 197.601 47.4321C197.597 46.965 197.689 46.5338 197.876 46.1385C198.062 45.7397 198.318 45.4073 198.641 45.1414C198.968 44.8719 199.333 44.7012 199.735 44.6293V44.5647C199.207 44.4281 198.786 44.1317 198.474 43.6753C198.161 43.2154 198.007 42.6925 198.01 42.1068C198.007 41.5463 198.149 41.045 198.436 40.603C198.724 40.161 199.119 39.8125 199.622 39.5574C200.129 39.3022 200.705 39.1747 201.352 39.1747C201.992 39.1747 202.563 39.3022 203.066 39.5574C203.569 39.8125 203.964 40.161 204.252 40.603C204.543 41.045 204.69 41.5463 204.694 42.1068C204.69 42.6925 204.53 43.2154 204.214 43.6753C203.902 44.1317 203.487 44.4281 202.969 44.5647V44.6293C203.368 44.7012 203.727 44.8719 204.047 45.1414C204.367 45.4073 204.622 45.7397 204.812 46.1385C205.003 46.5338 205.1 46.965 205.103 47.4321C205.1 48.0286 204.938 48.5604 204.618 49.0275C204.302 49.4911 203.862 49.8558 203.298 50.1217C202.737 50.384 202.089 50.5152 201.352 50.5152ZM201.352 49.3294C201.852 49.3294 202.283 49.2485 202.646 49.0868C203.009 48.9251 203.289 48.697 203.487 48.4023C203.684 48.1077 203.785 47.7627 203.788 47.3674C203.785 46.9506 203.677 46.5823 203.465 46.2625C203.253 45.9427 202.964 45.6912 202.597 45.5079C202.234 45.3246 201.819 45.233 201.352 45.233C200.881 45.233 200.461 45.3246 200.091 45.5079C199.724 45.6912 199.435 45.9427 199.223 46.2625C199.015 46.5823 198.912 46.9506 198.916 47.3674C198.912 47.7627 199.007 48.1077 199.201 48.4023C199.399 48.697 199.681 48.9251 200.048 49.0868C200.414 49.2485 200.849 49.3294 201.352 49.3294ZM201.352 44.0903C201.747 44.0903 202.098 44.0113 202.403 43.8532C202.712 43.6951 202.955 43.4741 203.131 43.1902C203.307 42.9063 203.397 42.574 203.4 42.1931C203.397 41.8194 203.309 41.4942 203.136 41.2175C202.964 40.9372 202.725 40.7216 202.419 40.5707C202.114 40.4162 201.758 40.3389 201.352 40.3389C200.939 40.3389 200.578 40.4162 200.269 40.5707C199.96 40.7216 199.721 40.9372 199.552 41.2175C199.383 41.4942 199.3 41.8194 199.304 42.1931C199.3 42.574 199.385 42.9063 199.557 43.1902C199.733 43.4741 199.976 43.6951 200.285 43.8532C200.594 44.0113 200.95 44.0903 201.352 44.0903Z" fill="white"/>
<rect x="118.884" y="101.627" width="77.2706" height="37.2555" fill="#0D69D4" fill-opacity="0.2"/>
<rect x="207.193" y="103.696" width="33.116" height="33.116" fill="#0D69D4" fill-opacity="0.2"/>
<rect x="52.6516" y="82.3086" width="209.734" height="19.3176" fill="#007D00" fill-opacity="0.3"/>
<line x1="30.5745" y1="82.9986" x2="262.386" y2="82.9986" stroke="#007D00" stroke-width="1.37983"/>
<line x1="30.5745" y1="100.936" x2="262.386" y2="100.936" stroke="#007D00" stroke-width="1.37983"/>
<rect x="0.687012" y="82.2773" width="25.279" height="19.3798" rx="5.51933" fill="#007D00"/>
<path d="M9.84987 86.2387V97.2773H8.51315V87.6401H8.44847L5.75349 89.4295V88.0713L8.51315 86.2387H9.84987ZM12.7658 95.0136V93.914L17.6168 86.2387H18.4145V87.9419H17.8755L14.2104 93.7415V93.8278H20.743V95.0136H12.7658ZM17.9618 97.2773V94.6794V94.1673V86.2387H19.2338V97.2773H17.9618Z" fill="white"/>
<rect x="52.6516" y="138.882" width="209.734" height="19.3176" fill="#007D00" fill-opacity="0.3"/>
<line x1="30.5745" y1="139.572" x2="262.386" y2="139.572" stroke="#007D00" stroke-width="1.37983"/>
<line x1="30.5745" y1="157.509" x2="262.386" y2="157.509" stroke="#007D00" stroke-width="1.37983"/>
<rect x="0.687012" y="138.851" width="25.279" height="19.3798" rx="5.51933" fill="#007D00"/>
<path d="M9.84987 142.812V153.851H8.51315V144.213H8.44847L5.75349 146.003V144.645L8.51315 142.812H9.84987ZM12.7658 151.587V150.487L17.6168 142.812H18.4145V144.515H17.8755L14.2104 150.315V150.401H20.743V151.587H12.7658ZM17.9618 153.851V151.253V150.741V142.812H19.2338V153.851H17.9618Z" fill="white"/>
<rect x="52.6519" y="101.627" width="22.0773" height="37.2555" fill="#007D00" fill-opacity="0.3"/>
<line x1="53.3418" y1="60.2324" x2="53.3418" y2="158.201" stroke="#007D00" stroke-width="1.37983"/>
<line x1="74.0393" y1="60.2324" x2="74.0393" y2="158.201" stroke="#007D00" stroke-width="1.37983"/>
<rect x="51.051" y="35.3643" width="25.279" height="19.3798" rx="5.51933" fill="#007D00"/>
<path d="M60.2139 39.3256V50.3643H58.8772V40.727H58.8125L56.1175 42.5165V41.1582L58.8772 39.3256H60.2139ZM67.0538 50.5152C66.601 50.508 66.1482 50.4218 65.6955 50.2565C65.2427 50.0912 64.8295 49.8127 64.4558 49.421C64.0821 49.0257 63.782 48.4921 63.5557 47.8202C63.3293 47.1446 63.2161 46.2966 63.2161 45.2761C63.2161 44.2987 63.3077 43.4328 63.491 42.6782C63.6742 41.92 63.9401 41.2822 64.2887 40.7647C64.6372 40.2437 65.0577 39.8484 65.5499 39.5789C66.0458 39.3094 66.6046 39.1747 67.2262 39.1747C67.8443 39.1747 68.3941 39.2987 68.8756 39.5466C69.3607 39.7909 69.7559 40.1323 70.0614 40.5707C70.3668 41.0091 70.5644 41.5139 70.6542 42.0853H69.3391C69.2169 41.5894 68.9798 41.178 68.6276 40.851C68.2755 40.524 67.8083 40.3605 67.2262 40.3605C66.371 40.3605 65.6973 40.7324 65.205 41.4762C64.7163 42.22 64.4702 43.2639 64.4666 44.6078H64.5528C64.754 44.3023 64.993 44.0418 65.2697 43.8262C65.5499 43.607 65.859 43.4381 66.1967 43.3196C66.5345 43.201 66.8921 43.1417 67.2693 43.1417C67.9018 43.1417 68.4803 43.2998 69.0049 43.616C69.5295 43.9286 69.95 44.3616 70.2662 44.915C70.5824 45.4648 70.7405 46.0954 70.7405 46.8069C70.7405 47.4896 70.5878 48.1148 70.2823 48.6826C69.9769 49.2467 69.5475 49.6959 68.9941 50.0301C68.4444 50.3607 67.7976 50.5224 67.0538 50.5152ZM67.0538 49.3294C67.5065 49.3294 67.9126 49.2162 68.2719 48.9898C68.6348 48.7634 68.9205 48.4598 69.1289 48.0789C69.3409 47.698 69.4469 47.274 69.4469 46.8069C69.4469 46.3505 69.3445 45.9355 69.1397 45.5618C68.9384 45.1845 68.66 44.8845 68.3042 44.6617C67.9521 44.4389 67.5496 44.3275 67.0969 44.3275C66.7555 44.3275 66.4375 44.3958 66.1428 44.5323C65.8482 44.6653 65.5895 44.8485 65.3667 45.0821C65.1475 45.3157 64.975 45.5834 64.8493 45.8852C64.7235 46.1834 64.6606 46.4979 64.6606 46.8284C64.6606 47.2668 64.763 47.6765 64.9678 48.0574C65.1762 48.4382 65.4601 48.7455 65.8194 48.979C66.1824 49.2126 66.5938 49.3294 67.0538 49.3294Z" fill="white"/>
<rect x="240.309" y="101.627" width="22.0773" height="37.2555" fill="#007D00" fill-opacity="0.3"/>
<line x1="240.999" y1="60.2324" x2="240.999" y2="158.201" stroke="#007D00" stroke-width="1.37983"/>
<line x1="261.696" y1="60.2324" x2="261.696" y2="158.201" stroke="#007D00" stroke-width="1.37983"/>
<rect x="238.708" y="35.3643" width="25.279" height="19.3798" rx="5.51933" fill="#007D00"/>
<path d="M247.871 39.3256V50.3643H246.534V40.727H246.469L243.774 42.5165V41.1582L246.534 39.3256H247.871ZM254.711 50.5152C254.258 50.508 253.805 50.4218 253.352 50.2565C252.9 50.0912 252.486 49.8127 252.113 49.421C251.739 49.0257 251.439 48.4921 251.213 47.8202C250.986 47.1446 250.873 46.2966 250.873 45.2761C250.873 44.2987 250.965 43.4328 251.148 42.6782C251.331 41.92 251.597 41.2822 251.946 40.7647C252.294 40.2437 252.715 39.8484 253.207 39.5789C253.703 39.3094 254.262 39.1747 254.883 39.1747C255.501 39.1747 256.051 39.2987 256.533 39.5466C257.018 39.7909 257.413 40.1323 257.718 40.5707C258.024 41.0091 258.221 41.5139 258.311 42.0853H256.996C256.874 41.5894 256.637 41.178 256.285 40.851C255.932 40.524 255.465 40.3605 254.883 40.3605C254.028 40.3605 253.354 40.7324 252.862 41.4762C252.373 42.22 252.127 43.2639 252.124 44.6078H252.21C252.411 44.3023 252.65 44.0418 252.927 43.8262C253.207 43.607 253.516 43.4381 253.854 43.3196C254.191 43.201 254.549 43.1417 254.926 43.1417C255.559 43.1417 256.137 43.2998 256.662 43.616C257.187 43.9286 257.607 44.3616 257.923 44.915C258.239 45.4648 258.397 46.0954 258.397 46.8069C258.397 47.4896 258.245 48.1148 257.939 48.6826C257.634 49.2467 257.204 49.6959 256.651 50.0301C256.101 50.3607 255.455 50.5224 254.711 50.5152ZM254.711 49.3294C255.163 49.3294 255.57 49.2162 255.929 48.9898C256.292 48.7634 256.577 48.4598 256.786 48.0789C256.998 47.698 257.104 47.274 257.104 46.8069C257.104 46.3505 257.001 45.9355 256.797 45.5618C256.595 45.1845 256.317 44.8845 255.961 44.6617C255.609 44.4389 255.207 44.3275 254.754 44.3275C254.412 44.3275 254.094 44.3958 253.8 44.5323C253.505 44.6653 253.246 44.8485 253.024 45.0821C252.804 45.3157 252.632 45.5834 252.506 45.8852C252.38 46.1834 252.318 46.4979 252.318 46.8284C252.318 47.2668 252.42 47.6765 252.625 48.0574C252.833 48.4382 253.117 48.7455 253.476 48.979C253.839 49.2126 254.251 49.3294 254.711 49.3294Z" fill="white"/>
<path d="M271.355 80.9297V156.82" stroke="black" stroke-width="1.37983"/>
<path d="M267.905 156.82L274.804 156.82" stroke="black" stroke-width="1.37983"/>
<path d="M267.906 80.9297L274.805 80.9297" stroke="black" stroke-width="1.37983"/>
<rect x="278.944" y="104.375" width="56.7983" height="29" rx="5.51933" fill="#333333"/>
<path d="M291.583 119.228C292.411 119.725 293.101 120.567 293.101 121.574C293.101 123.244 291.638 124.472 289.803 124.472C287.982 124.472 286.505 123.244 286.505 121.533H287.72C287.72 122.402 288.492 123.271 289.803 123.271C291.114 123.271 291.914 122.416 291.914 121.533C291.914 120.663 291.349 119.794 289.831 119.794H289.099V118.635H289.831C291.128 118.635 291.762 117.876 291.762 117.062C291.762 116.289 291.059 115.503 289.886 115.503C288.699 115.503 288.009 116.275 288.009 117.076H286.795C286.795 115.475 288.189 114.316 289.886 114.316C291.583 114.316 292.963 115.475 292.963 117.034C292.963 117.959 292.342 118.731 291.583 119.228ZM297.782 123.285C299.037 123.285 299.962 122.429 299.962 121.188C299.962 119.973 299.037 119.09 297.782 119.09C296.54 119.09 295.643 119.973 295.643 121.188C295.643 122.429 296.526 123.285 297.782 123.285ZM294.429 121.188C294.429 120.539 294.622 119.932 294.953 119.421L297.823 114.385H299.217L297.188 117.931C297.395 117.89 297.602 117.876 297.809 117.876C299.617 117.876 301.176 119.352 301.176 121.188C301.176 123.05 299.631 124.499 297.809 124.499C296.002 124.499 294.429 123.05 294.429 121.188ZM302.9 119.325C303.452 118 304.68 117.71 305.259 117.738C306.018 117.793 306.474 118.111 306.598 118.193L307.771 118.925C307.95 119.035 308.102 119.173 308.488 119.187C308.833 119.201 309.358 119.09 309.633 118.373L310.806 118.828C310.296 120.167 309.026 120.47 308.419 120.442C307.688 120.401 307.219 120.056 307.108 119.987L305.936 119.256C305.742 119.145 305.604 119.021 305.19 118.994C304.859 118.98 304.349 119.104 304.059 119.808L302.9 119.325ZM314.208 119.794L312.994 119.753L313.187 114.385H318.486V115.599H314.36L314.263 118.235C314.732 117.986 315.284 117.848 315.85 117.848C317.672 117.848 319.231 119.325 319.231 121.16C319.231 123.064 317.672 124.527 315.85 124.527C314.305 124.527 312.911 123.451 312.566 121.974L313.753 121.698C313.974 122.678 314.774 123.313 315.85 123.313C317.106 123.313 318.016 122.457 318.016 121.16C318.016 119.932 317.12 119.063 315.85 119.063C315.16 119.063 314.636 119.311 314.208 119.794ZM322.226 119.794L321.011 119.753L321.205 114.385H326.503V115.599H322.378L322.281 118.235C322.75 117.986 323.302 117.848 323.868 117.848C325.689 117.848 327.248 119.325 327.248 121.16C327.248 123.064 325.689 124.527 323.868 124.527C322.322 124.527 320.929 123.451 320.584 121.974L321.77 121.698C321.991 122.678 322.791 123.313 323.868 123.313C325.123 123.313 326.034 122.457 326.034 121.16C326.034 119.932 325.137 119.063 323.868 119.063C323.178 119.063 322.653 119.311 322.226 119.794Z" fill="white"/>
</svg>
