<svg width="435" height="78" viewBox="0 0 435 78" fill="none" xmlns="http://www.w3.org/2000/svg">
<mask id="path-1-outside-1_1101_59836" maskUnits="userSpaceOnUse" x="39" y="32" width="300" height="41" fill="black">
<rect fill="white" x="39" y="32" width="300" height="41"/>
<path d="M39 32H339V72H39V32Z"/>
</mask>
<path d="M339 72V71.1667H39V72V72.8333H339V72Z" fill="#EEEEEE" mask="url(#path-1-outside-1_1101_59836)"/>
<mask id="path-3-inside-2_1101_59836" fill="white">
<path d="M39 32H142.333V72H39V32Z"/>
</mask>
<path d="M39 32H142.333V72H39V32Z" fill="white"/>
<path d="M142.333 72V70.75H39V72V73.25H142.333V72Z" fill="#111111" mask="url(#path-3-inside-2_1101_59836)"/>
<path d="M59.2176 46.8H60.8976V47.8C60.8976 49.4 61.7109 50.88 63.5909 51.48L62.7242 52.7733C61.4709 52.3333 60.6042 51.5067 60.0976 50.4533C59.5642 51.68 58.6042 52.6533 57.1909 53.1333L56.3242 51.8C58.3376 51.1467 59.2176 49.5467 59.2176 47.88V46.8ZM58.2709 55.7867C58.2709 54.3467 59.8442 53.48 62.3642 53.48C64.8842 53.48 66.4442 54.3467 66.4442 55.7867C66.4442 57.2667 64.8842 58.12 62.3642 58.12C59.8442 58.12 58.2709 57.2667 58.2709 55.7867ZM59.9376 55.7867C59.9376 56.4933 60.7776 56.8533 62.3642 56.8533C63.9376 56.8533 64.8042 56.4933 64.8042 55.7867C64.8042 55.1067 63.9376 54.76 62.3642 54.76C60.7776 54.76 59.9376 55.1067 59.9376 55.7867ZM62.5109 49.72V48.3733H64.7376V46.1733H66.4042V53.1733H64.7376V49.72H62.5109ZM76.2129 46.1733H77.8796V54.7733H76.2129V46.1733ZM68.1329 49.96C68.1329 48.1867 69.5596 46.9333 71.3729 46.9333C73.1996 46.9333 74.6129 48.1867 74.6129 49.96C74.6129 51.7067 73.1996 52.9867 71.3729 52.9867C69.5596 52.9867 68.1329 51.7067 68.1329 49.96ZM69.7462 49.96C69.7462 50.9333 70.4662 51.5467 71.3729 51.5467C72.2929 51.5467 72.9996 50.9333 72.9996 49.96C72.9996 48.96 72.2929 48.36 71.3729 48.36C70.4662 48.36 69.7462 48.96 69.7462 49.96ZM69.9462 57.8933V53.9067H71.5862V56.5733H78.1729V57.8933H69.9462ZM79.4882 51.8533H81.9415V50.4C81.0615 50.0133 80.5682 49.4133 80.5682 48.64C80.5682 47.2133 82.2615 46.3467 84.8882 46.3467C87.5282 46.3467 89.2082 47.2133 89.2082 48.64C89.2082 49.4267 88.7015 50.0267 87.8082 50.4133V51.8533H90.2882V53.16H79.4882V51.8533ZM80.7282 55.9467C80.7282 54.5867 82.2882 53.8 84.8615 53.8C87.4482 53.8 89.0082 54.5867 89.0082 55.9467C89.0082 57.3467 87.4482 58.12 84.8615 58.12C82.2882 58.12 80.7282 57.3467 80.7282 55.9467ZM82.2749 48.64C82.2749 49.32 83.2215 49.6667 84.8882 49.6667C86.5415 49.6667 87.5015 49.32 87.5015 48.64C87.5015 47.96 86.5415 47.6 84.8882 47.6C83.2215 47.6 82.2749 47.96 82.2749 48.64ZM82.3949 55.9467C82.3949 56.5733 83.2349 56.88 84.8615 56.88C86.5015 56.88 87.3415 56.5733 87.3415 55.9467C87.3415 55.3333 86.5015 55.04 84.8615 55.04C83.2349 55.04 82.3949 55.3333 82.3949 55.9467ZM83.5815 51.8533H86.1682V50.8267C85.7682 50.88 85.3415 50.9067 84.8882 50.9067C84.4215 50.9067 83.9815 50.88 83.5815 50.8267V51.8533ZM91.0302 55.36H95.5902V53.1333H92.1768V46.92H93.8168V48.7867H99.0168V46.92H100.657V53.1333H97.2435V55.36H101.844V56.7067H91.0302V55.36ZM93.8168 51.8133H99.0168V50.0933H93.8168V51.8133ZM111.145 46.1733H112.705V53.6667H111.145V50.48H110.199V53.2533H108.652V46.4H110.199V49.1467H111.145V46.1733ZM102.479 48.6933V47.4133H104.585V46.2933H106.212V47.4133H108.305V48.6933H102.479ZM102.839 51.1733C102.839 49.9467 103.919 49.0933 105.399 49.0933C106.905 49.0933 107.985 49.9467 107.985 51.1733C107.985 52.4133 106.905 53.2533 105.399 53.2533C103.919 53.2533 102.839 52.4133 102.839 51.1733ZM104.292 51.1733C104.292 51.7467 104.759 52.08 105.399 52.08C106.052 52.08 106.519 51.7467 106.519 51.1733C106.519 50.6 106.052 50.28 105.399 50.28C104.759 50.28 104.292 50.6 104.292 51.1733ZM104.572 55.96C104.572 54.5733 106.119 53.7867 108.679 53.7867C111.239 53.7867 112.772 54.5733 112.772 55.96C112.772 57.3333 111.239 58.12 108.679 58.12C106.119 58.12 104.572 57.3333 104.572 55.96ZM106.225 55.96C106.225 56.5867 107.065 56.88 108.679 56.88C110.292 56.88 111.119 56.5867 111.119 55.96C111.119 55.3067 110.292 55.0267 108.679 55.0267C107.065 55.0267 106.225 55.3067 106.225 55.96ZM122.354 46.16H124.007V58.1067H122.354V46.16ZM114.114 54.76C117.181 53.3067 118.514 51.3867 118.767 48.72H114.727V47.4H120.461C120.461 51.04 119.194 54.0267 114.967 56.0667L114.114 54.76Z" fill="#1A1A1A"/>
<rect width="68.3333" height="40" transform="translate(142.334 32)" fill="white"/>
<path d="M160.038 47.5067H166.558V48.3467H163.785V49.92C163.785 51.9067 165.251 53.9067 166.931 54.64L166.358 55.44C165.025 54.8133 163.838 53.4533 163.291 51.84C162.758 53.56 161.585 55.0533 160.251 55.72L159.678 54.9333C161.318 54.1333 162.785 51.9333 162.785 49.92V48.3467H160.038V47.5067ZM168.185 57.9733V46.3067H169.185V57.9733H168.185ZM171.567 47.32H177.82V48.1467H176.62V51.5867C177.22 51.5467 177.82 51.4933 178.38 51.4133L178.447 52.16C176.087 52.56 173.353 52.6 171.38 52.6L171.26 51.7467C171.727 51.7467 172.22 51.7467 172.753 51.7333V48.1467H171.567V47.32ZM172.713 55.8267C172.713 54.4933 174.167 53.72 176.527 53.72C178.913 53.72 180.353 54.4933 180.353 55.8267C180.353 57.1733 178.913 57.9467 176.527 57.9467C174.167 57.9467 172.713 57.1733 172.713 55.8267ZM173.7 55.8267C173.7 56.6533 174.767 57.16 176.527 57.16C178.3 57.16 179.38 56.6533 179.38 55.8267C179.38 55.0133 178.3 54.52 176.527 54.52C174.767 54.52 173.7 55.0133 173.7 55.8267ZM173.727 51.72C174.353 51.7067 175.007 51.6933 175.66 51.6533V48.1467H173.727V51.72ZM179.247 53.4667V46.3067H180.247V49.3467H181.993V50.1867H180.247V53.4667H179.247ZM191.255 46.2933H192.255V57.9867H191.255V46.2933ZM183.162 51.2667C183.162 48.7867 184.388 47.2133 186.122 47.2133C187.842 47.2133 189.068 48.7867 189.068 51.2667C189.068 53.7467 187.842 55.3333 186.122 55.3333C184.388 55.3333 183.162 53.7467 183.162 51.2667ZM184.135 51.2667C184.135 53.1733 184.948 54.44 186.122 54.44C187.282 54.44 188.108 53.1733 188.108 51.2667C188.108 49.36 187.282 48.1067 186.122 48.1067C184.948 48.1067 184.135 49.36 184.135 51.2667Z" fill="#1A1A1A"/>
<rect width="91.3333" height="40" transform="translate(210.666 32)" fill="white"/>
<path d="M236.021 46.2933H237.021V49.8667H238.768V50.6933H237.021V54.9067H236.021V46.2933ZM228.221 50C228.221 48.3067 229.515 47.1333 231.248 47.1333C232.981 47.1333 234.275 48.3067 234.275 50C234.275 51.68 232.981 52.8667 231.248 52.8667C229.515 52.8667 228.221 51.68 228.221 50ZM229.195 50C229.195 51.16 230.075 51.9867 231.248 51.9867C232.421 51.9867 233.315 51.16 233.315 50C233.315 48.84 232.421 48 231.248 48C230.075 48 229.195 48.84 229.195 50ZM229.795 57.7067V54.0267H230.781V56.88H237.568V57.7067H229.795ZM245.683 49.5467H248.083V46.32H249.083V54.8533H248.083V50.3733H245.683V49.5467ZM239.55 52.56C241.257 51.9467 242.51 50.4 242.51 48.72V48.0933H239.87V47.2667H246.097V48.0933H243.51V48.7067C243.51 50.2267 244.697 51.7067 246.363 52.2933L245.857 53.08C244.55 52.6 243.523 51.6133 243.03 50.4C242.537 51.7467 241.457 52.84 240.07 53.36L239.55 52.56ZM241.657 57.7067V54.1067H242.657V56.88H249.417V57.7067H241.657ZM252.412 54.3733H253.412V56.88H260.412V57.7067H252.412V54.3733ZM251.039 53.4133V52.6H255.812V50.5867H256.799V52.6H261.612V53.4133H251.039ZM251.745 50.5467C253.745 50.2 255.812 48.8133 255.812 47.1467V46.6133H256.812V47.1467C256.812 48.8133 258.879 50.2133 260.865 50.5467L260.465 51.3333C258.745 51 257.039 50 256.319 48.5867C255.599 50 253.879 51 252.145 51.3333L251.745 50.5467ZM262.834 47.0933H269.074V47.9067H266.461V48.3467C266.461 49.8667 267.621 51.24 269.314 51.7867L268.847 52.5733C267.501 52.12 266.474 51.1867 265.981 50C265.487 51.32 264.407 52.3333 263.021 52.8267L262.514 52.0267C264.247 51.44 265.474 50.0133 265.474 48.36V47.9067H262.834V47.0933ZM264.287 57.8133V53.2533H265.274V54.7067H270.621V53.2533H271.607V57.8133H264.287ZM265.274 57H270.621V55.5067H265.274V57ZM270.607 52.6933V46.3067H271.607V49.0133H273.354V49.8667H271.607V52.6933H270.607ZM282.616 46.2933H283.616V57.9867H282.616V46.2933ZM274.523 51.2667C274.523 48.7867 275.749 47.2133 277.482 47.2133C279.202 47.2133 280.429 48.7867 280.429 51.2667C280.429 53.7467 279.202 55.3333 277.482 55.3333C275.749 55.3333 274.523 53.7467 274.523 51.2667ZM275.496 51.2667C275.496 53.1733 276.309 54.44 277.482 54.44C278.643 54.44 279.469 53.1733 279.469 51.2667C279.469 49.36 278.643 48.1067 277.482 48.1067C276.309 48.1067 275.496 49.36 275.496 51.2667Z" fill="#1A1A1A"/>
<rect width="117.333" height="40" transform="translate(302 32)" fill="white"/>
<path d="M319.979 47.4533H325.313V55.0267H319.979V47.4533ZM320.966 54.2133H324.353V48.2667H320.966V54.2133ZM327.833 57.9867V46.2933H328.833V57.9867H327.833ZM331.668 47.6267H335.481V48.0533C335.481 49.04 335.495 50.9733 334.708 54.0933L333.695 53.9333C334.415 51.3867 334.495 49.5333 334.508 48.44H331.668V47.6267ZM330.841 56.2133V55.3733H341.375V56.2133H330.841ZM336.335 48.44V47.6267H340.175V48.5067C340.175 49.7733 340.175 51.4933 339.655 54.0933L338.655 53.9733C339.175 51.5067 339.175 49.76 339.175 48.5067V48.44H336.335ZM344.357 53.8133H351.943V57.8133H344.357V53.8133ZM342.823 47.72V46.9067H347.997V50.12H343.85V51.8533C345.757 51.8533 347.21 51.8 348.957 51.5067L349.037 52.3333C347.21 52.6267 345.73 52.68 343.73 52.68H342.863V49.3467H347.01V47.72H342.823ZM345.33 57H350.957V54.6133H345.33V57ZM348.73 49.76V48.9467H350.943V46.32H351.943V53.16H350.943V49.76H348.73ZM359.245 53.64C361.619 53.64 363.072 54.44 363.072 55.8C363.072 57.1733 361.619 57.96 359.245 57.96C356.872 57.96 355.419 57.1733 355.419 55.8C355.419 54.44 356.872 53.64 359.245 53.64ZM354.419 52.4133V47.04H355.405V48.8267H358.805V47.04H359.792V52.4133H354.419ZM355.405 51.6H358.805V49.6267H355.405V51.6ZM356.392 55.8C356.392 56.6533 357.485 57.16 359.245 57.16C360.992 57.16 362.072 56.6533 362.072 55.8C362.072 54.96 360.992 54.4533 359.245 54.4533C357.485 54.4533 356.392 54.96 356.392 55.8ZM361.952 53.3333V46.3067H362.952V49.2667H364.685V50.1067H362.952V53.3333H361.952ZM365.787 47.5067H372.307V48.3467H369.534V49.92C369.534 51.9067 371.001 53.9067 372.681 54.64L372.107 55.44C370.774 54.8133 369.587 53.4533 369.041 51.84C368.507 53.56 367.334 55.0533 366.001 55.72L365.427 54.9333C367.067 54.1333 368.534 51.9333 368.534 49.92V48.3467H365.787V47.5067ZM373.934 57.9733V46.3067H374.934V57.9733H373.934ZM383.17 47C384.917 47 386.197 48.12 386.197 49.7467C386.197 51.3733 384.917 52.48 383.17 52.48C381.41 52.48 380.144 51.3733 380.144 49.7467C380.144 48.12 381.41 47 383.17 47ZM381.117 49.7467C381.117 50.8667 381.984 51.64 383.17 51.64C384.357 51.64 385.237 50.8667 385.237 49.7467C385.237 48.6267 384.357 47.8533 383.17 47.8533C381.984 47.8533 381.117 48.6267 381.117 49.7467ZM381.424 55.7733C381.424 54.4 382.877 53.6 385.25 53.6C387.61 53.6 389.064 54.4 389.064 55.7733C389.064 57.1467 387.61 57.9467 385.25 57.9467C382.877 57.9467 381.424 57.1467 381.424 55.7733ZM382.397 55.7733C382.397 56.6267 383.49 57.1467 385.25 57.1467C386.997 57.1467 388.077 56.6267 388.077 55.7733C388.077 54.92 386.997 54.4133 385.25 54.4133C383.49 54.4133 382.397 54.92 382.397 55.7733ZM387.944 53.2267V46.3067H388.944V48.08H390.664V48.92H388.944V50.56H390.664V51.4H388.944V53.2267H387.944ZM399.486 46.3067H400.486V48.8533H402.219V49.68H400.486V52.2533H399.486V46.3067ZM391.952 51.6267V46.9733H397.286V51.6267H391.952ZM392.926 50.8267H396.312V47.7733H392.926V50.8267ZM393.112 53.6133V52.8133H400.486V55.64H394.126V57H400.912V57.8133H393.139V54.88H399.499V53.6133H393.112Z" fill="#1A1A1A"/>
<rect x="39" width="12" height="12" rx="6" fill="#333333"/>
<path d="M45.656 3.192V9.032L44.696 9.024V4.248L43.648 4.728L43.288 3.848L44.696 3.192H45.656Z" fill="white"/>
<path d="M47.6667 32C47.6667 30.5272 46.4728 29.3333 45 29.3333C43.5272 29.3333 42.3333 30.5272 42.3333 32C42.3333 33.4728 43.5272 34.6667 45 34.6667C46.4728 34.6667 47.6667 33.4728 47.6667 32ZM45 32L45.5 32L45.5 12L45 12L44.5 12L44.5 32L45 32Z" fill="#333333"/>
<rect y="66" width="12" height="12" rx="6" fill="#333333"/>
<path d="M3.996 74.072C5.172 72.944 6.708 72.04 6.708 71.088C6.708 70.392 6.284 70.096 5.756 70.096C5.412 70.096 4.98 70.224 4.716 70.8L3.844 70.408C4.3 69.392 5.236 69.136 5.756 69.136C6.66 69.136 7.668 69.84 7.668 71.088C7.668 72.296 6.492 73.232 5.468 74.072H7.756V75.032H3.996V74.072Z" fill="white"/>
<path d="M40 69.3333C38.5272 69.3333 37.3333 70.5272 37.3333 72C37.3333 73.4728 38.5272 74.6667 40 74.6667C41.4728 74.6667 42.6667 73.4728 42.6667 72C42.6667 70.5272 41.4728 69.3333 40 69.3333ZM40 72V71.5H12V72V72.5H40V72Z" fill="#333333"/>
<rect x="423" y="46" width="12" height="12" rx="6" fill="#333333"/>
<path d="M429.964 52.008C430.476 52.304 430.876 52.8 430.876 53.384C430.876 54.36 430.076 55.08 428.852 55.08C427.636 55.08 426.844 54.36 426.844 53.312H427.804C427.804 53.744 428.108 54.152 428.852 54.152C429.604 54.152 429.948 53.744 429.948 53.312C429.948 52.872 429.676 52.44 428.868 52.44H428.46V51.584H428.884C429.548 51.584 429.86 51.192 429.86 50.8C429.86 50.424 429.564 50.072 428.908 50.072C428.244 50.072 427.98 50.424 427.98 50.808H427.02C427.02 49.816 427.788 49.144 428.908 49.144C430.012 49.144 430.78 49.816 430.78 50.736C430.78 51.272 430.436 51.72 429.964 52.008Z" fill="white"/>
<path d="M403 54.6667C404.473 54.6667 405.667 53.4728 405.667 52C405.667 50.5272 404.473 49.3333 403 49.3333C401.527 49.3333 400.333 50.5272 400.333 52C400.333 53.4728 401.527 54.6667 403 54.6667ZM403 52L403 52.5L423 52.5L423 52L423 51.5L403 51.5L403 52Z" fill="#333333"/>
</svg>
