<svg width="127" height="34" viewBox="0 0 127 34" fill="none" xmlns="http://www.w3.org/2000/svg">
<path d="M4.56 8.408V23.432H13.2V26.264H1.68V8.408H4.56ZM16.0141 13.496H18.8941V26.312H16.0141V13.496ZM15.8941 8.936C15.8941 8.072 16.4461 7.376 17.4541 7.376C18.4861 7.376 19.0381 8.072 19.0381 8.936C19.0381 9.824 18.4861 10.52 17.4541 10.52C16.4461 10.52 15.8941 9.824 15.8941 8.936ZM30.8536 19.4C30.8536 17.576 29.8216 16.424 27.8776 16.424C26.1496 16.424 24.7816 17.792 24.8296 19.496V26.24H21.9496V13.592H24.8296V15.512C25.6696 14.312 26.7256 13.592 28.2856 13.592C30.4936 13.592 33.7336 15.296 33.7336 19.328V26.24H30.8536V19.4ZM39.234 7.904V18.8L43.794 13.664H47.658L42.69 19.208L47.49 26.312H44.034L40.602 21.296L39.234 22.976V26.312H36.354V7.904H39.234ZM67.934 8.408V11.24H62.918V26.264H60.038V11.24H54.974V8.408H67.934ZM76.8109 18.848C76.5709 17.24 75.5149 16.088 73.6189 16.088C71.8669 16.088 70.4509 17 70.1629 18.872L76.8109 18.848ZM67.4749 19.928C67.4749 16.448 69.6829 13.52 73.5949 13.52C77.6269 13.52 78.8269 16.784 78.8989 16.952C79.6669 18.896 79.4989 21.176 79.4989 21.176H70.1629C70.5949 22.736 71.7709 23.72 73.6189 23.72C75.8749 23.72 76.3789 22.472 76.4509 22.376L78.9709 23.504C78.9709 23.504 77.8189 26.312 73.5949 26.312C69.6829 26.312 67.4749 23.384 67.4749 19.928ZM93.4006 13.592L88.6966 19.928L93.3286 26.24H89.7766L86.9446 22.136L84.1366 26.24H80.5846L85.1446 19.928L80.4646 13.592H84.0406L86.9446 17.816L89.8006 13.592H93.4006ZM102.897 25.928C102.345 26.048 101.121 26.264 100.185 26.192C98.3128 26.048 96.3928 24.392 96.3928 22.136V16.28H94.1608V13.448H96.3928V8.96H99.2728V13.448H102.657V16.28H99.2728V22.136C99.2728 22.904 99.7288 23.288 100.449 23.336C100.977 23.36 101.817 23.216 102.273 23.12L102.897 25.928Z" fill="#333333"/>
<path d="M0 29H104.121V30.2H0V29Z" fill="#333333"/>
<path fill-rule="evenodd" clip-rule="evenodd" d="M114.058 11.5581C114.302 11.314 114.698 11.314 114.942 11.5581L119.942 16.5581C120.186 16.8021 120.186 17.1979 119.942 17.4419L114.942 22.4419C114.698 22.686 114.302 22.686 114.058 22.4419C113.814 22.1979 113.814 21.8021 114.058 21.5581L118.616 17L114.058 12.4419C113.814 12.1979 113.814 11.8021 114.058 11.5581Z" fill="#555555"/>
</svg>
