<svg width="350" height="316" viewBox="0 0 350 316" fill="none" xmlns="http://www.w3.org/2000/svg">
<rect width="331.16" height="61.7955" transform="translate(9.6582 10.5488)" fill="white"/>
<path d="M28.6196 40.9689H34.3652V39.5118H30.3582V33.9152H32.1133V35.3723H38.4385V33.9152H40.2102V39.5118H36.1369V40.9689H41.9157V42.3928H28.6196V40.9689ZM30.0933 45.009V43.6016H40.293V48.2709H38.5213V45.009H30.0933ZM32.1133 38.1043H38.4385V36.73H32.1133V38.1043ZM43.4008 34.9914H51.6632V36.4816H48.4344V37.7566C48.4344 40.1906 49.8749 42.724 52.2096 43.7009L51.2161 45.1084C49.5107 44.3467 48.2357 42.7902 47.5568 40.9192C46.8945 42.9393 45.603 44.6613 43.8809 45.4726L42.8709 44.0818C45.189 43.0055 46.6296 40.2569 46.6296 37.7566V36.4816H43.4008V34.9914ZM53.2859 48.2709V33.5509H55.0741V48.2709H53.2859ZM57.2878 40.6708H60.4007V38.7666C59.3079 38.2865 58.6786 37.5414 58.6786 36.581C58.6786 34.8258 60.7153 33.7992 63.9441 33.7992C67.1563 33.7992 69.2095 34.8258 69.2095 36.581C69.2095 37.5414 68.5803 38.303 67.4544 38.7832V40.6708H70.5838V42.0617H57.2878V40.6708ZM58.8442 45.6217C58.8442 43.9327 60.7484 42.9724 63.9275 42.9724C67.0901 42.9724 68.9943 43.9327 68.9943 45.6217C68.9943 47.3106 67.0901 48.2709 63.9275 48.2709C60.7484 48.2709 58.8442 47.3106 58.8442 45.6217ZM60.5166 36.581C60.5166 37.4917 61.7915 38.005 63.9441 38.005C66.0966 38.005 67.3716 37.4917 67.3716 36.581C67.3716 35.6537 66.0966 35.157 63.9441 35.157C61.7915 35.157 60.5166 35.6537 60.5166 36.581ZM60.6325 45.6217C60.6325 46.4827 61.7915 46.9132 63.9275 46.9132C66.0304 46.9132 67.1895 46.4827 67.1895 45.6217C67.1895 44.7772 66.0304 44.3301 63.9275 44.3301C61.7915 44.3301 60.6325 44.7772 60.6325 45.6217ZM62.1724 40.6708H65.6827V39.2468C65.1528 39.3296 64.5733 39.3627 63.9441 39.3627C63.2983 39.3627 62.7188 39.3296 62.1724 39.2468V40.6708ZM73.228 34.4616H83.2952V35.7531C83.2952 37.144 83.2952 38.6507 82.9144 40.7536H84.9345V42.2107H79.1392V48.304H77.3344V42.2107H71.6219V40.7536H81.1261C81.5235 38.7501 81.5401 37.2268 81.5401 35.8856H73.228V34.4616ZM85.9559 40.2734H99.2851V41.5649H85.9559V40.2734ZM87.4958 43.734V42.4922H97.6624V45.8535H89.2841V46.8801H98.0929V48.1385H87.529V44.6778H95.9238V43.734H87.4958ZM87.6283 35.1239V33.882H97.6293V37.1936H89.4V38.154H97.8942V39.4124H87.6449V36.0346H95.8742V35.1239H87.6283ZM107.942 34.6106C109.912 34.6106 111.403 36.2829 111.651 38.9819H114.433V33.5343H116.204V48.304H114.433V40.4059H111.668C111.485 43.2539 109.979 45.0421 107.942 45.0421C105.773 45.0421 104.2 43.0055 104.2 39.8098C104.2 36.6307 105.773 34.6106 107.942 34.6106ZM105.889 39.8098C105.889 42.0948 106.733 43.4194 107.942 43.4194C109.184 43.4194 109.995 42.0948 109.995 39.8098C109.995 37.5579 109.184 36.2333 107.942 36.2333C106.733 36.2333 105.889 37.5579 105.889 39.8098ZM120.206 42.2107H124.677V40.9357H126.449V42.2107H130.903V43.5519H120.206V42.2107ZM118.584 40.4224V34.1966H122.359V35.5875H120.339V38.9985C121.034 38.9819 121.73 38.9157 122.508 38.7501L122.674 40.141C121.399 40.4059 120.405 40.4224 119.296 40.4224H118.584ZM121.316 46.2012C121.316 44.86 122.872 44.1149 125.555 44.1149C128.204 44.1149 129.793 44.86 129.793 46.2012C129.793 47.5424 128.204 48.2709 125.555 48.2709C122.872 48.2709 121.316 47.5424 121.316 46.2012ZM123.104 40.4224V34.1966H127.194V35.5875H124.859V39.015C126.002 38.9985 126.747 38.9322 127.624 38.7335L127.773 40.1244C126.614 40.3893 125.671 40.4224 123.866 40.4224H123.104ZM123.203 46.2012C123.203 46.7807 124.048 47.0456 125.555 47.0456C127.045 47.0456 127.889 46.7807 127.889 46.2012C127.889 45.6217 127.045 45.3402 125.555 45.3402C124.048 45.3402 123.203 45.6217 123.203 46.2012ZM126.681 37.8394V36.4816H128.899V33.5509H130.671V41.3828H128.899V37.8394H126.681ZM143.531 33.5509H145.237V48.2709H143.531V33.5509ZM132.52 43.8996C135.551 42.0948 136.941 39.7601 137.206 36.7797H133.249V35.3391H138.995C138.995 36.7631 138.812 38.1043 138.415 39.3627H140.452V33.8986H142.124V47.5589H140.452V40.7702H137.836C136.991 42.4756 135.617 43.9493 133.547 45.1746L132.52 43.8996ZM160.401 33.5509H162.173V36.9618H164.209V38.452H162.173V42.1445H160.401V33.5509ZM151.178 41.3497V34.3788H152.934V36.4154H156.378V34.3788H158.133V41.3497H151.178ZM152.784 48.0888V42.8565H162.272V44.2805H154.556V46.6648H162.554V48.0888H152.784ZM152.934 39.9257H156.378V37.8063H152.934V39.9257ZM171.639 33.7827C174.934 33.7827 176.904 34.6768 176.904 36.2995C176.904 37.9387 174.934 38.8329 171.639 38.8329C168.327 38.8329 166.373 37.9387 166.373 36.2995C166.373 34.6768 168.327 33.7827 171.639 33.7827ZM164.983 41.0682V39.6608H178.279V41.0682H164.983ZM166.539 43.4194V42.0782H176.623V45.6548H168.327V46.7973H177.053V48.155H166.572V44.4129H174.884V43.4194H166.539ZM168.211 36.2995C168.211 37.1274 169.404 37.5248 171.639 37.5248C173.874 37.5248 175.066 37.1274 175.066 36.2995C175.066 35.5047 173.874 35.0908 171.639 35.0908C169.404 35.0908 168.211 35.5047 168.211 36.2995ZM188.724 34.0311H190.595V34.7762C190.595 36.6307 192.698 38.5183 195.761 38.9488L195.049 40.3728C192.598 39.9919 190.628 38.7501 189.668 37.0777C188.724 38.7666 186.753 39.9919 184.27 40.3728L183.574 38.9488C186.654 38.5183 188.724 36.6638 188.724 34.7762V34.0311ZM182.995 43.138V41.6809H196.307V43.138H190.496V48.2709H188.74V43.138H182.995ZM204.484 42.5419H206.19V43.1545C206.19 44.3798 206.753 45.6713 208.011 46.4827C209.303 45.6217 209.882 44.2805 209.882 43.1545V42.5419H211.621V43.1545C211.621 44.6944 212.548 46.1349 214.452 46.7642L213.591 48.0557C212.184 47.5755 211.24 46.6317 210.727 45.4726C210.246 46.6317 209.385 47.6583 208.061 48.2047C206.67 47.6914 205.809 46.6814 205.345 45.5057C204.815 46.6317 203.888 47.5589 202.53 48.0557L201.653 46.7642C203.54 46.1018 204.484 44.5785 204.484 43.1545V42.5419ZM201.288 37.8394C201.288 35.8028 202.944 34.3622 205.213 34.3622C207.481 34.3622 209.137 35.8028 209.137 37.8394C209.137 39.8926 207.481 41.3166 205.213 41.3166C202.944 41.3166 201.288 39.8926 201.288 37.8394ZM203.027 37.8394C203.027 39.0812 203.954 39.8429 205.213 39.8429C206.488 39.8429 207.398 39.0812 207.398 37.8394C207.398 36.6141 206.488 35.8359 205.213 35.8359C203.954 35.8359 203.027 36.6141 203.027 37.8394ZM211.389 41.9292V33.5674H213.177V41.9292H211.389ZM225.011 33.5343H226.799V39.2468H228.968V40.7205H226.799V48.2544H225.011V33.5343ZM215.871 44.6116V34.9583H217.643V43.138C219.596 43.1048 221.683 42.9393 223.868 42.4922L224.067 43.9659C221.6 44.4626 219.282 44.6116 217.096 44.6116H215.871ZM229.675 45.0256H232.755V41.2503C231.596 40.5715 230.9 39.5449 230.9 38.2368C230.9 35.869 233.185 34.3457 236.331 34.3457C239.494 34.3457 241.762 35.869 241.762 38.2368C241.762 39.5283 241.067 40.5715 239.925 41.2503V45.0256H243.004V46.4661H229.675V45.0256ZM232.639 38.2368C232.639 39.7767 234.146 40.7205 236.331 40.7205C238.501 40.7205 240.024 39.7767 240.024 38.2368C240.024 36.6969 238.501 35.7531 236.331 35.7531C234.146 35.7531 232.639 36.6969 232.639 38.2368ZM234.527 45.0256H238.136V41.9127C237.573 42.0286 236.977 42.0948 236.331 42.0948C235.686 42.0948 235.09 42.0286 234.527 41.9127V45.0256ZM247.751 47.3271C247.089 47.3271 246.725 46.8801 246.725 46.3005C246.725 45.7376 247.089 45.2905 247.751 45.2905C248.397 45.2905 248.761 45.7376 248.761 46.3005C248.761 46.8801 248.397 47.3271 247.751 47.3271ZM244.142 37.0115C244.754 35.3723 246.162 34.2298 248.016 34.2298C250.119 34.2298 251.957 35.9352 251.841 38.0547C251.775 39.1972 251.195 40.3397 249.606 41.5153C248.761 42.1445 248.579 42.5253 248.596 43.734L246.857 43.7672C246.841 42.0617 247.337 41.0351 248.563 40.1244C249.771 39.2137 250.069 38.6673 250.103 37.9553C250.169 36.7466 249.242 35.9849 248.016 35.9849C246.857 35.9849 246.195 36.5313 245.781 37.6407L244.142 37.0115Z" fill="#1A1A1A"/>
<path fill-rule="evenodd" clip-rule="evenodd" d="M310.893 36.7382C311.163 36.4688 311.6 36.4688 311.869 36.7382L317.388 42.2575C317.658 42.527 317.658 42.9638 317.388 43.2332C317.119 43.5026 316.682 43.5026 316.413 43.2332L311.381 38.2017L306.35 43.2332C306.08 43.5026 305.643 43.5026 305.374 43.2332C305.105 42.9638 305.105 42.527 305.374 42.2575L310.893 36.7382Z" fill="#999999"/>
<mask id="path-3-inside-1_1530_48320" fill="white">
<path d="M9.6582 72.3447H340.818V191.499H9.6582V72.3447Z"/>
</mask>
<path d="M9.6582 72.3447H340.818V191.499H9.6582V72.3447Z" fill="#FAFAFA"/>
<path d="M9.6582 72.3447V73.2646H340.818V72.3447V71.4248H9.6582V72.3447ZM340.818 191.499V190.579H9.6582V191.499V192.419H340.818V191.499Z" fill="#EEEEEE" mask="url(#path-3-inside-1_1530_48320)"/>
<path d="M28.719 110.716H31.9809V106.759C30.7556 106.13 30.0105 105.087 30.0105 103.779C30.0105 101.527 32.2127 100.07 35.2594 100.07C38.3391 100.07 40.5082 101.527 40.5082 103.779C40.5082 105.07 39.7797 106.097 38.5875 106.742V110.716H41.8494V111.743H28.719V110.716ZM31.2192 103.779C31.2192 105.418 32.9081 106.494 35.2594 106.494C37.6106 106.494 39.3161 105.418 39.3161 103.779C39.3161 102.139 37.6106 101.063 35.2594 101.063C32.9081 101.063 31.2192 102.139 31.2192 103.779ZM33.2062 110.716H37.3457V107.223C36.7165 107.388 36.021 107.471 35.2594 107.471C34.5143 107.471 33.8354 107.388 33.2062 107.223V110.716ZM47.1097 100.003C49.2788 100.003 50.8684 101.394 50.8684 103.414C50.8684 105.434 49.2788 106.809 47.1097 106.809C44.9241 106.809 43.3511 105.434 43.3511 103.414C43.3511 101.394 44.9241 100.003 47.1097 100.003ZM44.5598 103.414C44.5598 104.805 45.6361 105.766 47.1097 105.766C48.5834 105.766 49.6762 104.805 49.6762 103.414C49.6762 102.023 48.5834 101.063 47.1097 101.063C45.6361 101.063 44.5598 102.023 44.5598 103.414ZM44.9407 110.899C44.9407 109.193 46.7455 108.2 49.6928 108.2C52.6236 108.2 54.4284 109.193 54.4284 110.899C54.4284 112.604 52.6236 113.597 49.6928 113.597C46.7455 113.597 44.9407 112.604 44.9407 110.899ZM46.1494 110.899C46.1494 111.958 47.5071 112.604 49.6928 112.604C51.8619 112.604 53.2031 111.958 53.2031 110.899C53.2031 109.839 51.8619 109.21 49.6928 109.21C47.5071 109.21 46.1494 109.839 46.1494 110.899ZM53.0375 107.736V99.1424H54.2794V101.345H56.4153V102.388H54.2794V104.424H56.4153V105.468H54.2794V107.736H53.0375ZM65.0866 102.934H68.0339V99.1424H69.2758V107.769H68.0339V103.961H65.0866V102.934ZM57.4534 106.643C59.5728 105.865 61.1127 103.911 61.1127 101.808V101.245H57.8342V100.219H65.5668V101.245H62.3545V101.808C62.3545 103.696 63.8116 105.501 65.8979 106.229L65.2522 107.223C63.6295 106.627 62.3711 105.401 61.7584 103.895C61.1458 105.617 59.788 106.974 58.0826 107.637L57.4534 106.643ZM59.7052 110.932C59.7052 109.243 61.5266 108.233 64.5236 108.233C67.5041 108.233 69.3254 109.243 69.3254 110.932C69.3254 112.637 67.5041 113.614 64.5236 113.614C61.5266 113.614 59.7052 112.637 59.7052 110.932ZM60.9471 110.932C60.9471 111.991 62.3048 112.637 64.5236 112.637C66.7258 112.637 68.1001 111.991 68.1001 110.932C68.1001 109.855 66.7258 109.21 64.5236 109.21C62.3048 109.21 60.9471 109.855 60.9471 110.932ZM71.7212 110.716H77.649V107.554H73.2942V100.169H74.5195V102.785H82.0368V100.169H83.2621V107.554H78.8743V110.716H84.8517V111.76H71.7212V110.716ZM74.5195 106.544H82.0368V103.812H74.5195V106.544ZM86.0553 105.915H99.1858V106.858H86.0553V105.915ZM87.6283 108.978V108.067H97.53V111.13H88.8867V112.521H97.9936V113.448H87.6614V110.253H96.3212V108.978H87.6283ZM87.7276 100.5V99.5894H97.4803V102.57H88.9695V103.861H97.7452V104.789H87.7608V101.709H96.255V100.5H87.7276ZM104.067 110.7H110.012V107.173H111.254V110.7H117.198V111.743H104.067V110.7ZM104.73 106.676C107.131 106.262 109.979 104.226 109.979 101.891V101.51H105.16V100.484H116.089V101.51H111.27V101.891C111.27 104.226 114.151 106.229 116.585 106.627L116.072 107.604C113.903 107.173 111.568 105.749 110.641 103.762C109.697 105.766 107.379 107.206 105.243 107.653L104.73 106.676ZM128.916 99.1424H130.158V113.631H128.916V99.1424ZM118.468 109.773C119.693 109.773 121.101 109.773 122.558 109.723V108.117C120.836 107.935 119.726 106.941 119.726 105.484C119.726 103.861 121.101 102.802 123.17 102.802C125.24 102.802 126.647 103.861 126.647 105.484C126.647 106.925 125.522 107.918 123.816 108.117V109.673C125.223 109.607 126.647 109.508 127.972 109.326L128.055 110.253C124.843 110.799 121.316 110.832 118.65 110.832L118.468 109.773ZM118.782 101.941V100.931H122.558V99.1424H123.816V100.931H127.591V101.941H118.782ZM120.885 105.484C120.885 106.511 121.829 107.173 123.17 107.173C124.545 107.173 125.472 106.511 125.472 105.484C125.472 104.441 124.545 103.762 123.17 103.762C121.829 103.762 120.885 104.441 120.885 105.484ZM142.621 99.1424H143.863V105.136H146.264V106.18H143.863V113.631H142.621V99.1424ZM132.653 102.504V101.477H136.362V99.308H137.62V101.477H141.23V102.504H132.653ZM133.497 107.057C133.497 105.103 134.988 103.745 137.008 103.745C139.044 103.745 140.518 105.103 140.518 107.057C140.518 109.011 139.044 110.369 137.008 110.369C134.988 110.369 133.497 109.011 133.497 107.057ZM134.689 107.057C134.689 108.382 135.65 109.326 137.008 109.326C138.349 109.326 139.326 108.382 139.326 107.057C139.326 105.732 138.349 104.772 137.008 104.772C135.65 104.772 134.689 105.732 134.689 107.057ZM148.461 100.616H158.561V102.057C158.561 103.845 158.561 105.815 158.048 108.729L156.789 108.58C157.319 105.815 157.319 103.795 157.319 102.057V101.643H148.461V100.616ZM147.07 111.561V110.518H152.219V105.318H153.445V110.518H160.167V111.561H147.07ZM175.646 99.1424H176.888V110.17H175.646V108.63H172.682V107.719H175.646V99.1424ZM164.983 105.865C167.665 105.865 171.258 105.832 174.354 105.451L174.437 106.345C173.146 106.56 171.788 106.693 170.463 106.759V109.64H169.221V106.825C167.764 106.892 166.373 106.908 165.165 106.908L164.983 105.865ZM166.142 102.255C166.142 100.732 167.582 99.7385 169.702 99.7385C171.821 99.7385 173.262 100.732 173.262 102.255C173.262 103.795 171.821 104.772 169.702 104.772C167.582 104.772 166.142 103.795 166.142 102.255ZM167.069 113.299V109.094H168.311V112.273H177.252V113.299H167.069ZM167.317 102.255C167.317 103.216 168.311 103.828 169.702 103.828C171.109 103.828 172.069 103.216 172.069 102.255C172.069 101.295 171.109 100.666 169.702 100.666C168.311 100.666 167.317 101.295 167.317 102.255ZM189.301 99.1424H190.543V105.136H192.944V106.18H190.543V113.631H189.301V99.1424ZM179.333 102.504V101.477H183.042V99.308H184.301V101.477H187.91V102.504H179.333ZM180.178 107.057C180.178 105.103 181.668 103.745 183.688 103.745C185.725 103.745 187.198 105.103 187.198 107.057C187.198 109.011 185.725 110.369 183.688 110.369C181.668 110.369 180.178 109.011 180.178 107.057ZM181.37 107.057C181.37 108.382 182.33 109.326 183.688 109.326C185.029 109.326 186.006 108.382 186.006 107.057C186.006 105.732 185.029 104.772 183.688 104.772C182.33 104.772 181.37 105.732 181.37 107.057ZM195.538 99.6722H196.764V103.547H205.357V104.557H195.538V99.6722ZM193.75 107.57V106.544H206.881V107.57H193.75ZM195.456 113.283V109.044H196.681V112.256H205.44V113.283H195.456ZM211.762 106.643H217.69V104.871H213.517V99.4901H214.743V101.162H221.896V99.4901H223.138V104.871H218.915V106.643H224.843V107.67H211.762V106.643ZM213.219 110.153V109.143H223.22V113.631H221.995V110.153H213.219ZM214.743 103.878H221.896V102.139H214.743V103.878ZM226.543 100.633H234.64V101.676H231.196V103.63C231.196 106.097 233.018 108.58 235.104 109.491L234.392 110.485C232.736 109.706 231.262 108.017 230.584 106.014C229.921 108.15 228.464 110.004 226.808 110.832L226.096 109.855C228.133 108.862 229.954 106.13 229.954 103.63V101.676H226.543V100.633ZM236.66 113.631V99.1424H237.902V113.631H236.66ZM240.43 106.345H243.692V104.275C242.533 103.812 241.888 103.083 241.888 102.106C241.888 100.401 243.841 99.4239 246.971 99.4239C250.1 99.4239 252.054 100.401 252.054 102.106C252.054 103.083 251.408 103.812 250.266 104.259V106.345H253.511V107.339H240.43V106.345ZM242.02 111.031C242.02 109.408 243.875 108.481 246.971 108.481C250.067 108.481 251.922 109.408 251.922 111.031C251.922 112.687 250.067 113.614 246.971 113.614C243.875 113.614 242.02 112.687 242.02 111.031ZM243.163 102.106C243.163 103.166 244.636 103.812 246.971 103.812C249.306 103.812 250.779 103.166 250.779 102.106C250.779 101.03 249.306 100.384 246.971 100.384C244.636 100.384 243.163 101.03 243.163 102.106ZM243.262 111.031C243.262 112.058 244.653 112.637 246.971 112.637C249.272 112.637 250.663 112.058 250.663 111.031C250.663 110.038 249.272 109.441 246.971 109.441C244.653 109.441 243.262 110.038 243.262 111.031ZM244.918 106.345H249.041V104.607C248.428 104.706 247.733 104.772 246.971 104.772C246.209 104.772 245.53 104.722 244.918 104.607V106.345ZM256.437 100.103H266.123V101.361C266.123 102.735 266.123 104.226 265.709 106.329H267.862V107.372H261.918V113.664H260.659V107.372H254.765V106.329H264.451C264.898 104.259 264.898 102.719 264.898 101.361V101.113H256.437V100.103ZM269.099 105.915H282.229V106.858H269.099V105.915ZM270.672 108.978V108.067H280.573V111.13H271.93V112.521H281.037V113.448H270.705V110.253H279.365V108.978H270.672ZM270.771 100.5V99.5894H280.524V102.57H272.013V103.861H280.789V104.789H270.804V101.709H279.298V100.5H270.771ZM287.111 107.438H300.208V108.465H294.247V113.631H293.022V108.465H287.111V107.438ZM287.906 105.169C290.373 104.805 292.972 103.149 292.972 101.196V101.08H288.353V100.07H298.933V101.08H294.347V101.196C294.347 103.149 296.946 104.805 299.413 105.169L298.933 106.18C296.731 105.799 294.529 104.573 293.668 102.818C292.79 104.573 290.588 105.799 288.386 106.18L287.906 105.169ZM301.428 106.593H314.559V107.604H308.714V110.584H307.455V107.604H301.428V106.593ZM303.117 113.316V109.16H304.359V112.289H313.102V113.316H303.117ZM303.134 104.888V99.8378H312.853V104.888H303.134ZM304.343 103.878H311.628V100.831H304.343V103.878ZM28.719 135.716H31.9809V131.759C30.7556 131.13 30.0105 130.087 30.0105 128.779C30.0105 126.527 32.2127 125.07 35.2594 125.07C38.3391 125.07 40.5082 126.527 40.5082 128.779C40.5082 130.07 39.7797 131.097 38.5875 131.742V135.716H41.8494V136.743H28.719V135.716ZM31.2192 128.779C31.2192 130.418 32.9081 131.494 35.2594 131.494C37.6106 131.494 39.3161 130.418 39.3161 128.779C39.3161 127.139 37.6106 126.063 35.2594 126.063C32.9081 126.063 31.2192 127.139 31.2192 128.779ZM33.2062 135.716H37.3457V132.223C36.7165 132.388 36.021 132.471 35.2594 132.471C34.5143 132.471 33.8354 132.388 33.2062 132.223V135.716ZM43.4339 125.914H46.7124V124.076H47.9376V125.914H51.1665V126.924H47.9376V127.222C47.9376 129.077 49.4775 130.699 51.597 131.329L51.0174 132.289C49.3451 131.776 48.0039 130.683 47.3416 129.242C46.7289 130.832 45.4043 132.09 43.6988 132.67L43.0862 131.693C45.2056 130.997 46.7124 129.226 46.7124 127.222V126.924H43.4339V125.914ZM45.3712 135.948C45.3712 134.276 47.1925 133.315 50.1895 133.315C53.17 133.315 54.9913 134.276 54.9913 135.948C54.9913 137.621 53.17 138.597 50.1895 138.597C47.1925 138.597 45.3712 137.621 45.3712 135.948ZM46.613 135.948C46.613 136.991 47.9708 137.621 50.1895 137.621C52.3917 137.621 53.7661 136.991 53.7661 135.948C53.7661 134.922 52.3917 134.292 50.1895 134.292C47.9708 134.292 46.613 134.922 46.613 135.948ZM50.7359 129.325V128.298H53.6998V124.142H54.9417V132.918H53.6998V129.325H50.7359ZM67.2722 124.142H68.5141V130.136H70.915V131.18H68.5141V138.631H67.2722V124.142ZM57.3043 127.504V126.477H61.0133V124.308H62.2717V126.477H65.8814V127.504H57.3043ZM58.1488 132.057C58.1488 130.103 59.639 128.745 61.6591 128.745C63.6957 128.745 65.1694 130.103 65.1694 132.057C65.1694 134.011 63.6957 135.369 61.6591 135.369C59.639 135.369 58.1488 134.011 58.1488 132.057ZM59.341 132.057C59.341 133.382 60.3013 134.326 61.6591 134.326C63.0003 134.326 63.9772 133.382 63.9772 132.057C63.9772 130.732 63.0003 129.772 61.6591 129.772C60.3013 129.772 59.341 130.732 59.341 132.057ZM77.4172 129.358H79.8677V124.474H81.0268V137.885H79.8677V130.401H77.4172V129.358ZM71.5556 134.557C73.526 133.398 74.7679 130.799 74.7679 128.315V125.533H75.9601V128.282C75.9601 130.583 77.1026 133.067 79.0067 134.21L78.2782 135.17C76.8873 134.342 75.8938 132.769 75.3805 131.014C74.8507 132.935 73.7744 134.607 72.3339 135.485L71.5556 134.557ZM82.8151 138.631V124.142H84.0072V138.631H82.8151ZM86.0553 135.716H89.3172V131.759C88.0919 131.13 87.3468 130.087 87.3468 128.779C87.3468 126.527 89.549 125.07 92.5957 125.07C95.6755 125.07 97.8446 126.527 97.8446 128.779C97.8446 130.07 97.116 131.097 95.9238 131.742V135.716H99.1858V136.743H86.0553V135.716ZM88.5555 128.779C88.5555 130.418 90.2445 131.494 92.5957 131.494C94.9469 131.494 96.6524 130.418 96.6524 128.779C96.6524 127.139 94.9469 126.063 92.5957 126.063C90.2445 126.063 88.5555 127.139 88.5555 128.779ZM90.5425 135.716H94.682V132.223C94.0528 132.388 93.3574 132.471 92.5957 132.471C91.8506 132.471 91.1717 132.388 90.5425 132.223V135.716ZM101.598 135.981C102.128 135.981 102.409 136.346 102.409 136.793C102.409 137.273 102.128 137.637 101.598 137.637C101.052 137.637 100.754 137.273 100.754 136.793C100.754 136.346 101.052 135.981 101.598 135.981ZM115.962 128.166H118.942V124.159H120.184V134.756H118.942V129.193H115.962V128.166ZM108.345 131.908C110.464 131.146 112.021 129.226 112.021 127.139V126.361H108.742V125.335H116.475V126.361H113.263V127.123C113.263 129.01 114.736 130.848 116.806 131.577L116.177 132.554C114.554 131.958 113.279 130.732 112.667 129.226C112.054 130.898 110.713 132.256 108.991 132.902L108.345 131.908ZM110.961 138.299V133.829H112.203V137.273H120.598V138.299H110.961ZM122.613 131.593H135.743V132.604H129.898V135.584H128.64V132.604H122.613V131.593ZM124.302 138.316V134.16H125.544V137.289H134.286V138.316H124.302ZM124.318 129.888V124.838H134.038V129.888H124.318ZM125.527 128.878H132.813V125.831H125.527V128.878ZM146.832 124.126H148.091V130.054H150.425V131.097H148.091V138.631H146.832V124.126ZM137.079 134.889C140.805 133.017 142.825 130.169 143.107 126.725H137.742V125.699H144.365C144.365 129.789 142.444 133.514 137.775 135.849L137.079 134.889ZM161.166 124.126H162.425V130.054H164.759V131.097H162.425V138.631H161.166V124.126ZM151.414 134.889C155.139 133.017 157.159 130.169 157.441 126.725H152.076V125.699H158.699C158.699 129.789 156.778 133.514 152.109 135.849L151.414 134.889ZM169.31 131.643H175.238V129.871H171.065V124.49H172.29V126.162H179.443V124.49H180.685V129.871H176.463V131.643H182.391V132.67H169.31V131.643ZM170.767 135.153V134.143H180.768V138.631H179.543V135.153H170.767ZM172.29 128.878H179.443V127.139H172.29V128.878ZM184.091 125.633H192.188V126.676H188.744V128.63C188.744 131.097 190.565 133.58 192.651 134.491L191.939 135.485C190.284 134.706 188.81 133.017 188.131 131.014C187.469 133.15 186.012 135.004 184.356 135.832L183.644 134.855C185.681 133.862 187.502 131.13 187.502 128.63V126.676H184.091V125.633ZM194.208 138.631V124.142H195.45V138.631H194.208ZM197.978 131.345H201.24V129.275C200.081 128.812 199.435 128.083 199.435 127.106C199.435 125.401 201.389 124.424 204.518 124.424C207.648 124.424 209.602 125.401 209.602 127.106C209.602 128.083 208.956 128.812 207.813 129.259V131.345H211.059V132.339H197.978V131.345ZM199.568 136.031C199.568 134.408 201.422 133.481 204.518 133.481C207.615 133.481 209.469 134.408 209.469 136.031C209.469 137.687 207.615 138.614 204.518 138.614C201.422 138.614 199.568 137.687 199.568 136.031ZM200.71 127.106C200.71 128.166 202.184 128.812 204.518 128.812C206.853 128.812 208.327 128.166 208.327 127.106C208.327 126.03 206.853 125.384 204.518 125.384C202.184 125.384 200.71 126.03 200.71 127.106ZM200.809 136.031C200.809 137.058 202.2 137.637 204.518 137.637C206.82 137.637 208.211 137.058 208.211 136.031C208.211 135.038 206.82 134.441 204.518 134.441C202.2 134.441 200.809 135.038 200.809 136.031ZM202.465 131.345H206.588V129.607C205.975 129.706 205.28 129.772 204.518 129.772C203.757 129.772 203.078 129.722 202.465 129.607V131.345ZM213.984 125.103H223.671V126.361C223.671 127.735 223.671 129.226 223.257 131.329H225.409V132.372H219.465V138.664H218.207V132.372H212.312V131.329H221.998C222.446 129.259 222.446 127.719 222.446 126.361V126.113H213.984V125.103ZM226.646 130.915H239.777V131.858H226.646V130.915ZM228.219 133.978V133.067H238.121V136.13H229.478V137.521H238.584V138.448H228.252V135.253H236.912V133.978H228.219ZM228.319 125.5V124.589H238.071V127.57H229.56V128.861H238.336V129.789H228.352V126.709H236.846V125.5H228.319ZM254.659 124.142H255.901V127.636H258.054V128.696H255.901V132.62H254.659V124.142ZM245.304 131.693V124.937H246.529V127.206H250.752V124.937H251.977V131.693H245.304ZM246.529 130.666H250.752V128.199H246.529V130.666ZM246.894 138.432V133.431H256.017V134.441H248.136V137.405H256.299V138.432H246.894ZM265.533 125.07C268.546 125.07 270.782 126.659 270.782 129.044C270.782 131.444 268.546 133.017 265.533 133.017C262.536 133.017 260.284 131.444 260.284 129.044C260.284 126.659 262.536 125.07 265.533 125.07ZM258.992 136.677V135.634H272.123V136.677H258.992ZM261.476 129.044C261.476 130.815 263.215 132.007 265.533 132.007C267.868 132.007 269.59 130.815 269.59 129.044C269.59 127.288 267.868 126.08 265.533 126.08C263.215 126.08 261.476 127.288 261.476 129.044ZM283.924 124.142H285.165V131.66H283.924V124.142ZM273.442 130.517C275.578 129.756 277.135 127.818 277.135 125.666V124.573H278.377V125.666C278.377 127.719 279.95 129.54 282.069 130.252L281.456 131.229C279.768 130.633 278.426 129.391 277.781 127.802C277.151 129.507 275.794 130.848 274.055 131.511L273.442 130.517ZM275.843 133.398V132.405H285.165V135.832H277.085V137.455H285.679V138.465H275.876V134.905H283.94V133.398H275.843ZM297.25 124.672H298.541V125.5C298.541 127.553 301.224 129.325 303.774 129.706L303.26 130.699C301.058 130.318 298.839 129.06 297.912 127.288C297.002 129.093 294.766 130.318 292.531 130.699L292.018 129.706C294.601 129.325 297.25 127.603 297.25 125.5V124.672ZM291.339 133.365V132.339H304.436V133.365H298.475V138.631H297.25V133.365H291.339ZM32.3783 158.084H33.5704V158.878C33.5704 160.187 34.2659 161.561 35.6236 162.356C37.0311 161.478 37.7431 160.004 37.7431 158.878V158.084H38.9518V158.878C38.9518 160.385 40.0612 161.875 41.8826 162.505L41.2699 163.432C39.8459 162.919 38.8359 161.892 38.3226 160.683C37.8921 161.859 37.0145 162.985 35.6733 163.564C34.2824 163.018 33.3883 161.958 32.9578 160.733C32.4445 161.892 31.451 162.902 30.0767 163.432L29.4475 162.505C31.2689 161.842 32.3783 160.269 32.3783 158.878V158.084ZM29.0667 153.381C29.0667 151.378 30.6397 150.003 32.8253 150.003C35.011 150.003 36.584 151.378 36.584 153.381C36.584 155.368 35.011 156.726 32.8253 156.726C30.6397 156.726 29.0667 155.368 29.0667 153.381ZM30.2754 153.381C30.2754 154.756 31.3517 155.699 32.8253 155.699C34.3156 155.699 35.3753 154.756 35.3753 153.381C35.3753 152.007 34.3156 151.047 32.8253 151.047C31.3517 151.047 30.2754 152.007 30.2754 153.381ZM39.3326 157.438V149.159H40.591V157.438H39.3326ZM44.742 150.301H54.4946V151.328H45.9838V155.931H54.6602V156.958H50.2061V160.733H56.1835V161.776H43.053V160.733H48.9808V156.958H44.742V150.301ZM57.3871 157.14H63.3149V155.55H59.0926V152.073H67.5868V150.517H59.0595V149.523H68.8121V152.984H60.3013V154.573H69.1267V155.55H64.5567V157.14H70.5176V158.166H57.3871V157.14ZM58.8442 160.319V159.292H68.8949V163.482H67.6531V160.319H58.8442ZM77.0882 150.301H86.8409V151.328H78.3301V155.931H87.0065V156.958H82.5524V160.733H88.5298V161.776H75.3993V160.733H81.3271V156.958H77.0882V150.301ZM94.0716 150.086C96.2904 150.086 97.8799 151.477 97.8799 153.481C97.8799 155.302 96.5884 156.593 94.7008 156.842V159.326C96.042 159.259 97.3998 159.16 98.6582 158.994L98.7575 159.922C95.7108 160.435 92.2999 160.468 89.7665 160.468L89.5678 159.425C90.7269 159.425 92.0681 159.425 93.459 159.375V156.842C91.5548 156.61 90.2467 155.318 90.2467 153.481C90.2467 151.477 91.8363 150.086 94.0716 150.086ZM91.4554 153.481C91.4554 154.855 92.5483 155.815 94.0716 155.815C95.5784 155.815 96.6712 154.855 96.6712 153.481C96.6712 152.106 95.5784 151.146 94.0716 151.146C92.5483 151.146 91.4554 152.106 91.4554 153.481ZM99.5854 163.631V149.142H100.811V155.153H103.162V156.196H100.811V163.631H99.5854ZM105.756 150.484H115.509V151.51H106.982V156.113H115.675V157.123H105.756V150.484ZM104.067 161.627V160.6H117.198V161.627H104.067ZM129.048 149.126H130.274V163.647H129.048V157.454H126.035V156.444H129.048V153.497H126.134V152.471H129.048V149.126ZM118.898 151.494V150.467H125.207V155.6H120.157V159.21C122.342 159.21 124.147 159.127 126.333 158.779L126.449 159.822C124.164 160.187 122.309 160.253 120.008 160.253H118.931V154.573H123.982V151.494H118.898ZM132.736 160.716H135.998V156.759C134.772 156.13 134.027 155.087 134.027 153.779C134.027 151.527 136.229 150.07 139.276 150.07C142.356 150.07 144.525 151.527 144.525 153.779C144.525 155.07 143.796 156.097 142.604 156.742V160.716H145.866V161.743H132.736V160.716ZM135.236 153.779C135.236 155.418 136.925 156.494 139.276 156.494C141.627 156.494 143.333 155.418 143.333 153.779C143.333 152.139 141.627 151.063 139.276 151.063C136.925 151.063 135.236 152.139 135.236 153.779ZM137.223 160.716H141.362V157.223C140.733 157.388 140.038 157.471 139.276 157.471C138.531 157.471 137.852 157.388 137.223 157.223V160.716ZM148.278 160.981C148.808 160.981 149.09 161.346 149.09 161.793C149.09 162.273 148.808 162.637 148.278 162.637C147.732 162.637 147.434 162.273 147.434 161.793C147.434 161.346 147.732 160.981 148.278 160.981Z" fill="#616161"/>
<rect width="331.16" height="61.7955" transform="translate(9.6582 191.499)" fill="white"/>
<path d="M28.6196 221.919H34.3652V220.462H30.3582V214.865H32.1133V216.322H38.4385V214.865H40.2102V220.462H36.1369V221.919H41.9157V223.343H28.6196V221.919ZM30.0933 225.959V224.552H40.293V229.221H38.5213V225.959H30.0933ZM32.1133 219.055H38.4385V217.68H32.1133V219.055ZM43.4008 215.942H51.6632V217.432H48.4344V218.707C48.4344 221.141 49.8749 223.674 52.2096 224.651L51.2161 226.059C49.5107 225.297 48.2357 223.74 47.5568 221.869C46.8945 223.889 45.603 225.611 43.8809 226.423L42.8709 225.032C45.189 223.956 46.6296 221.207 46.6296 218.707V217.432H43.4008V215.942ZM53.2859 229.221V214.501H55.0741V229.221H53.2859ZM57.2878 221.621H60.4007V219.717C59.3079 219.237 58.6786 218.492 58.6786 217.531C58.6786 215.776 60.7153 214.749 63.9441 214.749C67.1563 214.749 69.2095 215.776 69.2095 217.531C69.2095 218.492 68.5803 219.253 67.4544 219.733V221.621H70.5838V223.012H57.2878V221.621ZM58.8442 226.572C58.8442 224.883 60.7484 223.923 63.9275 223.923C67.0901 223.923 68.9943 224.883 68.9943 226.572C68.9943 228.261 67.0901 229.221 63.9275 229.221C60.7484 229.221 58.8442 228.261 58.8442 226.572ZM60.5166 217.531C60.5166 218.442 61.7915 218.955 63.9441 218.955C66.0966 218.955 67.3716 218.442 67.3716 217.531C67.3716 216.604 66.0966 216.107 63.9441 216.107C61.7915 216.107 60.5166 216.604 60.5166 217.531ZM60.6325 226.572C60.6325 227.433 61.7915 227.863 63.9275 227.863C66.0304 227.863 67.1895 227.433 67.1895 226.572C67.1895 225.727 66.0304 225.28 63.9275 225.28C61.7915 225.28 60.6325 225.727 60.6325 226.572ZM62.1724 221.621H65.6827V220.197C65.1528 220.28 64.5733 220.313 63.9441 220.313C63.2983 220.313 62.7188 220.28 62.1724 220.197V221.621ZM73.228 215.412H83.2952V216.703C83.2952 218.094 83.2952 219.601 82.9144 221.704H84.9345V223.161H79.1392V229.254H77.3344V223.161H71.6219V221.704H81.1261C81.5235 219.7 81.5401 218.177 81.5401 216.836H73.228V215.412ZM85.9559 221.224H99.2851V222.515H85.9559V221.224ZM87.4958 224.684V223.442H97.6624V226.804H89.2841V227.83H98.0929V229.089H87.529V225.628H95.9238V224.684H87.4958ZM87.6283 216.074V214.832H97.6293V218.144H89.4V219.104H97.8942V220.363H87.6449V216.985H95.8742V216.074H87.6283ZM107.942 215.561C109.912 215.561 111.403 217.233 111.651 219.932H114.433V214.485H116.204V229.254H114.433V221.356H111.668C111.485 224.204 109.979 225.992 107.942 225.992C105.773 225.992 104.2 223.956 104.2 220.76C104.2 217.581 105.773 215.561 107.942 215.561ZM105.889 220.76C105.889 223.045 106.733 224.37 107.942 224.37C109.184 224.37 109.995 223.045 109.995 220.76C109.995 218.508 109.184 217.183 107.942 217.183C106.733 217.183 105.889 218.508 105.889 220.76ZM120.206 223.161H124.677V221.886H126.449V223.161H130.903V224.502H120.206V223.161ZM118.584 221.373V215.147H122.359V216.538H120.339V219.949C121.034 219.932 121.73 219.866 122.508 219.7L122.674 221.091C121.399 221.356 120.405 221.373 119.296 221.373H118.584ZM121.316 227.151C121.316 225.81 122.872 225.065 125.555 225.065C128.204 225.065 129.793 225.81 129.793 227.151C129.793 228.493 128.204 229.221 125.555 229.221C122.872 229.221 121.316 228.493 121.316 227.151ZM123.104 221.373V215.147H127.194V216.538H124.859V219.965C126.002 219.949 126.747 219.882 127.624 219.684L127.773 221.075C126.614 221.34 125.671 221.373 123.866 221.373H123.104ZM123.203 227.151C123.203 227.731 124.048 227.996 125.555 227.996C127.045 227.996 127.889 227.731 127.889 227.151C127.889 226.572 127.045 226.29 125.555 226.29C124.048 226.29 123.203 226.572 123.203 227.151ZM126.681 218.79V217.432H128.899V214.501H130.671V222.333H128.899V218.79H126.681ZM143.531 214.501H145.237V229.221H143.531V214.501ZM132.52 224.85C135.551 223.045 136.941 220.71 137.206 217.73H133.249V216.289H138.995C138.995 217.713 138.812 219.055 138.415 220.313H140.452V214.849H142.124V228.509H140.452V221.72H137.836C136.991 223.426 135.617 224.899 133.547 226.125L132.52 224.85ZM160.401 214.501H162.173V217.912H164.209V219.402H162.173V223.095H160.401V214.501ZM151.178 222.3V215.329H152.934V217.366H156.378V215.329H158.133V222.3H151.178ZM152.784 229.039V223.807H162.272V225.231H154.556V227.615H162.554V229.039H152.784ZM152.934 220.876H156.378V218.756H152.934V220.876ZM171.639 214.733C174.934 214.733 176.904 215.627 176.904 217.25C176.904 218.889 174.934 219.783 171.639 219.783C168.327 219.783 166.373 218.889 166.373 217.25C166.373 215.627 168.327 214.733 171.639 214.733ZM164.983 222.018V220.611H178.279V222.018H164.983ZM166.539 224.37V223.028H176.623V226.605H168.327V227.747H177.053V229.105H166.572V225.363H174.884V224.37H166.539ZM168.211 217.25C168.211 218.078 169.404 218.475 171.639 218.475C173.874 218.475 175.066 218.078 175.066 217.25C175.066 216.455 173.874 216.041 171.639 216.041C169.404 216.041 168.211 216.455 168.211 217.25ZM188.724 214.981H190.595V215.726C190.595 217.581 192.698 219.468 195.761 219.899L195.049 221.323C192.598 220.942 190.628 219.7 189.668 218.028C188.724 219.717 186.753 220.942 184.27 221.323L183.574 219.899C186.654 219.468 188.724 217.614 188.724 215.726V214.981ZM182.995 224.088V222.631H196.307V224.088H190.496V229.221H188.74V224.088H182.995ZM204.484 223.492H206.19V224.105C206.19 225.33 206.753 226.622 208.011 227.433C209.303 226.572 209.882 225.231 209.882 224.105V223.492H211.621V224.105C211.621 225.645 212.548 227.085 214.452 227.714L213.591 229.006C212.184 228.526 211.24 227.582 210.727 226.423C210.246 227.582 209.385 228.608 208.061 229.155C206.67 228.642 205.809 227.632 205.345 226.456C204.815 227.582 203.888 228.509 202.53 229.006L201.653 227.714C203.54 227.052 204.484 225.529 204.484 224.105V223.492ZM201.288 218.79C201.288 216.753 202.944 215.312 205.213 215.312C207.481 215.312 209.137 216.753 209.137 218.79C209.137 220.843 207.481 222.267 205.213 222.267C202.944 222.267 201.288 220.843 201.288 218.79ZM203.027 218.79C203.027 220.031 203.954 220.793 205.213 220.793C206.488 220.793 207.398 220.031 207.398 218.79C207.398 217.564 206.488 216.786 205.213 216.786C203.954 216.786 203.027 217.564 203.027 218.79ZM211.389 222.879V214.518H213.177V222.879H211.389ZM225.011 214.485H226.799V220.197H228.968V221.671H226.799V229.205H225.011V214.485ZM215.871 225.562V215.909H217.643V224.088C219.596 224.055 221.683 223.889 223.868 223.442L224.067 224.916C221.6 225.413 219.282 225.562 217.096 225.562H215.871ZM229.675 225.976H232.755V222.201C231.596 221.522 230.9 220.495 230.9 219.187C230.9 216.819 233.185 215.296 236.331 215.296C239.494 215.296 241.762 216.819 241.762 219.187C241.762 220.479 241.067 221.522 239.925 222.201V225.976H243.004V227.416H229.675V225.976ZM232.639 219.187C232.639 220.727 234.146 221.671 236.331 221.671C238.501 221.671 240.024 220.727 240.024 219.187C240.024 217.647 238.501 216.703 236.331 216.703C234.146 216.703 232.639 217.647 232.639 219.187ZM234.527 225.976H238.136V222.863C237.573 222.979 236.977 223.045 236.331 223.045C235.686 223.045 235.09 222.979 234.527 222.863V225.976ZM247.751 228.277C247.089 228.277 246.725 227.83 246.725 227.251C246.725 226.688 247.089 226.241 247.751 226.241C248.397 226.241 248.761 226.688 248.761 227.251C248.761 227.83 248.397 228.277 247.751 228.277ZM244.142 217.962C244.754 216.322 246.162 215.18 248.016 215.18C250.119 215.18 251.957 216.885 251.841 219.005C251.775 220.147 251.195 221.29 249.606 222.465C248.761 223.095 248.579 223.476 248.596 224.684L246.857 224.717C246.841 223.012 247.337 221.985 248.563 221.075C249.771 220.164 250.069 219.617 250.103 218.905C250.169 217.697 249.242 216.935 248.016 216.935C246.857 216.935 246.195 217.482 245.781 218.591L244.142 217.962Z" fill="#1A1A1A"/>
<path fill-rule="evenodd" clip-rule="evenodd" d="M305.374 217.688C305.643 217.419 306.08 217.419 306.35 217.688L311.381 222.72L316.413 217.688C316.682 217.419 317.119 217.419 317.388 217.688C317.658 217.958 317.658 218.395 317.388 218.664L311.869 224.183C311.6 224.453 311.163 224.453 310.893 224.183L305.374 218.664C305.105 218.395 305.105 217.958 305.374 217.688Z" fill="#999999"/>
<rect width="331.16" height="61.7955" transform="translate(9.6582 253.295)" fill="white"/>
<path d="M28.6196 283.715H34.3652V282.258H30.3582V276.661H32.1133V278.118H38.4385V276.661H40.2102V282.258H36.1369V283.715H41.9157V285.139H28.6196V283.715ZM30.0933 287.755V286.348H40.293V291.017H38.5213V287.755H30.0933ZM32.1133 280.85H38.4385V279.476H32.1133V280.85ZM43.4008 277.738H51.6632V279.228H48.4344V280.503C48.4344 282.937 49.8749 285.47 52.2096 286.447L51.2161 287.854C49.5107 287.093 48.2357 285.536 47.5568 283.665C46.8945 285.685 45.603 287.407 43.8809 288.219L42.8709 286.828C45.189 285.752 46.6296 283.003 46.6296 280.503V279.228H43.4008V277.738ZM53.2859 291.017V276.297H55.0741V291.017H53.2859ZM57.2878 283.417H60.4007V281.513C59.3079 281.033 58.6786 280.287 58.6786 279.327C58.6786 277.572 60.7153 276.545 63.9441 276.545C67.1563 276.545 69.2095 277.572 69.2095 279.327C69.2095 280.287 68.5803 281.049 67.4544 281.529V283.417H70.5838V284.808H57.2878V283.417ZM58.8442 288.368C58.8442 286.679 60.7484 285.718 63.9275 285.718C67.0901 285.718 68.9943 286.679 68.9943 288.368C68.9943 290.057 67.0901 291.017 63.9275 291.017C60.7484 291.017 58.8442 290.057 58.8442 288.368ZM60.5166 279.327C60.5166 280.238 61.7915 280.751 63.9441 280.751C66.0966 280.751 67.3716 280.238 67.3716 279.327C67.3716 278.4 66.0966 277.903 63.9441 277.903C61.7915 277.903 60.5166 278.4 60.5166 279.327ZM60.6325 288.368C60.6325 289.229 61.7915 289.659 63.9275 289.659C66.0304 289.659 67.1895 289.229 67.1895 288.368C67.1895 287.523 66.0304 287.076 63.9275 287.076C61.7915 287.076 60.6325 287.523 60.6325 288.368ZM62.1724 283.417H65.6827V281.993C65.1528 282.076 64.5733 282.109 63.9441 282.109C63.2983 282.109 62.7188 282.076 62.1724 281.993V283.417ZM73.228 277.208H83.2952V278.499C83.2952 279.89 83.2952 281.397 82.9144 283.5H84.9345V284.957H79.1392V291.05H77.3344V284.957H71.6219V283.5H81.1261C81.5235 281.496 81.5401 279.973 81.5401 278.632H73.228V277.208ZM85.9559 283.02H99.2851V284.311H85.9559V283.02ZM87.4958 286.48V285.238H97.6624V288.6H89.2841V289.626H98.0929V290.885H87.529V287.424H95.9238V286.48H87.4958ZM87.6283 277.87V276.628H97.6293V279.94H89.4V280.9H97.8942V282.159H87.6449V278.781H95.8742V277.87H87.6283ZM107.942 277.357C109.912 277.357 111.403 279.029 111.651 281.728H114.433V276.28H116.204V291.05H114.433V283.152H111.668C111.485 286 109.979 287.788 107.942 287.788C105.773 287.788 104.2 285.752 104.2 282.556C104.2 279.377 105.773 277.357 107.942 277.357ZM105.889 282.556C105.889 284.841 106.733 286.166 107.942 286.166C109.184 286.166 109.995 284.841 109.995 282.556C109.995 280.304 109.184 278.979 107.942 278.979C106.733 278.979 105.889 280.304 105.889 282.556ZM120.206 284.957H124.677V283.682H126.449V284.957H130.903V286.298H120.206V284.957ZM118.584 283.169V276.943H122.359V278.334H120.339V281.745C121.034 281.728 121.73 281.662 122.508 281.496L122.674 282.887C121.399 283.152 120.405 283.169 119.296 283.169H118.584ZM121.316 288.947C121.316 287.606 122.872 286.861 125.555 286.861C128.204 286.861 129.793 287.606 129.793 288.947C129.793 290.288 128.204 291.017 125.555 291.017C122.872 291.017 121.316 290.288 121.316 288.947ZM123.104 283.169V276.943H127.194V278.334H124.859V281.761C126.002 281.745 126.747 281.678 127.624 281.48L127.773 282.87C126.614 283.135 125.671 283.169 123.866 283.169H123.104ZM123.203 288.947C123.203 289.527 124.048 289.792 125.555 289.792C127.045 289.792 127.889 289.527 127.889 288.947C127.889 288.368 127.045 288.086 125.555 288.086C124.048 288.086 123.203 288.368 123.203 288.947ZM126.681 280.585V279.228H128.899V276.297H130.671V284.129H128.899V280.585H126.681ZM143.531 276.297H145.237V291.017H143.531V276.297ZM132.52 286.646C135.551 284.841 136.941 282.506 137.206 279.526H133.249V278.085H138.995C138.995 279.509 138.812 280.85 138.415 282.109H140.452V276.645H142.124V290.305H140.452V283.516H137.836C136.991 285.222 135.617 286.695 133.547 287.921L132.52 286.646ZM160.401 276.297H162.173V279.708H164.209V281.198H162.173V284.891H160.401V276.297ZM151.178 284.096V277.125H152.934V279.162H156.378V277.125H158.133V284.096H151.178ZM152.784 290.835V285.603H162.272V287.027H154.556V289.411H162.554V290.835H152.784ZM152.934 282.672H156.378V280.552H152.934V282.672ZM171.639 276.529C174.934 276.529 176.904 277.423 176.904 279.046C176.904 280.685 174.934 281.579 171.639 281.579C168.327 281.579 166.373 280.685 166.373 279.046C166.373 277.423 168.327 276.529 171.639 276.529ZM164.983 283.814V282.407H178.279V283.814H164.983ZM166.539 286.166V284.824H176.623V288.401H168.327V289.543H177.053V290.901H166.572V287.159H174.884V286.166H166.539ZM168.211 279.046C168.211 279.873 169.404 280.271 171.639 280.271C173.874 280.271 175.066 279.873 175.066 279.046C175.066 278.251 173.874 277.837 171.639 277.837C169.404 277.837 168.211 278.251 168.211 279.046ZM188.724 276.777H190.595V277.522C190.595 279.377 192.698 281.264 195.761 281.695L195.049 283.119C192.598 282.738 190.628 281.496 189.668 279.824C188.724 281.513 186.753 282.738 184.27 283.119L183.574 281.695C186.654 281.264 188.724 279.41 188.724 277.522V276.777ZM182.995 285.884V284.427H196.307V285.884H190.496V291.017H188.74V285.884H182.995ZM204.484 285.288H206.19V285.901C206.19 287.126 206.753 288.417 208.011 289.229C209.303 288.368 209.882 287.027 209.882 285.901V285.288H211.621V285.901C211.621 287.44 212.548 288.881 214.452 289.51L213.591 290.802C212.184 290.322 211.24 289.378 210.727 288.219C210.246 289.378 209.385 290.404 208.061 290.951C206.67 290.437 205.809 289.427 205.345 288.252C204.815 289.378 203.888 290.305 202.53 290.802L201.653 289.51C203.54 288.848 204.484 287.325 204.484 285.901V285.288ZM201.288 280.585C201.288 278.549 202.944 277.108 205.213 277.108C207.481 277.108 209.137 278.549 209.137 280.585C209.137 282.639 207.481 284.063 205.213 284.063C202.944 284.063 201.288 282.639 201.288 280.585ZM203.027 280.585C203.027 281.827 203.954 282.589 205.213 282.589C206.488 282.589 207.398 281.827 207.398 280.585C207.398 279.36 206.488 278.582 205.213 278.582C203.954 278.582 203.027 279.36 203.027 280.585ZM211.389 284.675V276.314H213.177V284.675H211.389ZM225.011 276.28H226.799V281.993H228.968V283.467H226.799V291H225.011V276.28ZM215.871 287.358V277.704H217.643V285.884C219.596 285.851 221.683 285.685 223.868 285.238L224.067 286.712C221.6 287.209 219.282 287.358 217.096 287.358H215.871ZM229.675 287.772H232.755V283.996C231.596 283.318 230.9 282.291 230.9 280.983C230.9 278.615 233.185 277.092 236.331 277.092C239.494 277.092 241.762 278.615 241.762 280.983C241.762 282.274 241.067 283.318 239.925 283.996V287.772H243.004V289.212H229.675V287.772ZM232.639 280.983C232.639 282.523 234.146 283.467 236.331 283.467C238.501 283.467 240.024 282.523 240.024 280.983C240.024 279.443 238.501 278.499 236.331 278.499C234.146 278.499 232.639 279.443 232.639 280.983ZM234.527 287.772H238.136V284.659C237.573 284.775 236.977 284.841 236.331 284.841C235.686 284.841 235.09 284.775 234.527 284.659V287.772ZM247.751 290.073C247.089 290.073 246.725 289.626 246.725 289.047C246.725 288.484 247.089 288.037 247.751 288.037C248.397 288.037 248.761 288.484 248.761 289.047C248.761 289.626 248.397 290.073 247.751 290.073ZM244.142 279.758C244.754 278.118 246.162 276.976 248.016 276.976C250.119 276.976 251.957 278.681 251.841 280.801C251.775 281.943 251.195 283.086 249.606 284.261C248.761 284.891 248.579 285.271 248.596 286.48L246.857 286.513C246.841 284.808 247.337 283.781 248.563 282.87C249.771 281.96 250.069 281.413 250.103 280.701C250.169 279.493 249.242 278.731 248.016 278.731C246.857 278.731 246.195 279.277 245.781 280.387L244.142 279.758Z" fill="#1A1A1A"/>
<path fill-rule="evenodd" clip-rule="evenodd" d="M305.374 279.484C305.643 279.215 306.08 279.215 306.35 279.484L311.381 284.516L316.413 279.484C316.682 279.215 317.119 279.215 317.388 279.484C317.658 279.754 317.658 280.191 317.388 280.46L311.869 285.979C311.6 286.249 311.163 286.249 310.893 285.979L305.374 280.46C305.105 280.191 305.105 279.754 305.374 279.484Z" fill="#999999"/>
<rect x="0.689916" y="0.689916" width="347.718" height="78.6504" stroke="#FB0000" stroke-width="1.37983" stroke-dasharray="5.52 5.52"/>
</svg>
