<svg width="156" height="44" viewBox="0 0 156 44" fill="none" xmlns="http://www.w3.org/2000/svg">
<path d="M0 9C0 4.58172 3.58172 1 8 1H102C106.418 1 110 4.58172 110 9V35C110 39.4183 106.418 43 102 43H8C3.58172 43 0 39.4183 0 35V9Z" fill="#FF8120"/>
<path d="M35.168 26.48C36.688 26.48 37.536 25.44 37.536 23.984C37.536 22.544 36.688 21.488 35.168 21.488C33.904 21.488 32.768 22.48 32.768 23.984C32.768 25.504 33.904 26.48 35.168 26.48ZM31.104 28V16H32.768V21.28C33.472 20.224 34.496 19.856 35.296 19.856C37.808 19.856 39.2 21.76 39.2 23.984C39.2 26.224 37.792 28.128 35.28 28.128C34.496 28.128 33.504 27.856 32.768 26.688V28H31.104ZM42.4301 24.4C42.4301 25.616 43.1661 26.48 44.4781 26.48C45.7901 26.48 46.6381 25.44 46.6221 24.32V19.728H48.2861V28.112H46.6221V26.864C46.0461 27.712 45.3261 28.112 44.2701 28.112C42.4621 28.112 40.7661 26.8 40.7661 24.48V19.76H42.4301V24.4ZM55.0754 27.904C54.7394 27.984 54.0354 28.112 53.4754 28.08C52.2274 28.016 51.0434 26.944 51.0434 25.552V21.312H49.6194V19.68H51.0434V16.848H52.7074V19.68H54.8674V21.312H52.7074V25.552C52.7074 26.096 53.0434 26.4 53.5874 26.416C53.9554 26.432 54.4194 26.352 54.7074 26.288L55.0754 27.904ZM60.7535 27.904C60.4175 27.984 59.7135 28.112 59.1535 28.08C57.9055 28.016 56.7215 26.944 56.7215 25.552V21.312H55.2975V19.68H56.7215V16.848H58.3855V19.68H60.5455V21.312H58.3855V25.552C58.3855 26.096 58.7215 26.4 59.2655 26.416C59.6335 26.432 60.0975 26.352 60.3855 26.288L60.7535 27.904ZM65.4035 26.528C66.9075 26.528 67.7875 25.44 67.7875 23.952C67.7875 22.448 66.9075 21.36 65.4035 21.36C63.8995 21.36 63.0355 22.448 63.0355 23.952C63.0355 25.44 63.8995 26.528 65.4035 26.528ZM61.3715 23.952C61.3715 21.664 62.9075 19.712 65.4035 19.712C67.9635 19.712 69.4515 21.664 69.4515 23.952C69.4515 26.224 67.9635 28.176 65.4035 28.176C62.9075 28.176 61.3715 26.224 61.3715 23.952ZM76.7096 23.472C76.7096 22.208 75.9896 21.408 74.6776 21.408C73.4456 21.408 72.5016 22.448 72.5176 23.568V28.112H70.8536V19.76H72.5176V21.088C73.0776 20.288 73.8136 19.76 74.8696 19.76C76.5016 19.76 78.3736 21.008 78.3736 23.408V28.112H76.7096V23.472Z" fill="white"/>
<path d="M117.449 1V43" stroke="#712222" stroke-width="1.37983"/>
<path d="M114 43L120.899 43" stroke="#712222" stroke-width="1.37983"/>
<path d="M114 1L120.899 1" stroke="#712222" stroke-width="1.37983"/>
<rect x="125.039" y="7.5" width="30.7983" height="29" rx="5.51933" fill="#712222"/>
<path d="M138.299 17.5238V23.7469H139.679V24.9335H138.299V27.5138H137.085V24.9335H132.6V23.7469L137.126 17.5238H138.299ZM134.063 23.7469H137.085V19.5798L134.063 23.7469ZM141.133 26.3133C143.133 24.3816 146.003 22.3256 146.003 20.5732C146.003 19.2486 145.162 18.6139 144.141 18.6139C143.423 18.6139 142.623 18.8623 142.126 19.9799L141.022 19.497C141.754 17.8274 143.202 17.3996 144.141 17.3996C145.645 17.3996 147.218 18.5725 147.218 20.5732C147.218 22.643 144.831 24.6299 142.94 26.3133H147.383V27.5276H141.133V26.3133Z" fill="white"/>
</svg>
