<svg width="270" height="148" viewBox="0 0 270 148" fill="none" xmlns="http://www.w3.org/2000/svg">
<g filter="url(#filter0_dd_1099_71304)">
<rect width="234" height="112" transform="translate(18 16)" fill="white"/>
<path d="M30.8826 31.3937V39.2009H35.3609V40.0391H30.0205V31.3937H30.8826ZM38.8319 39.2607C39.9096 39.2607 40.8795 38.3866 40.8915 37.0455C40.8795 35.7164 39.9096 34.8303 38.8319 34.8303C37.5028 34.8303 36.7843 35.7882 36.7843 37.0455C36.7843 38.3028 37.5028 39.2607 38.8319 39.2607ZM35.9222 37.0455C35.9222 35.3811 36.964 33.9801 38.8199 33.9801C39.5264 33.9801 40.3167 34.3513 40.8675 35.2374V33.9442H41.7297V40.0391H40.8675V38.8416C40.2928 39.7756 39.5384 40.1229 38.8199 40.1229C36.964 40.1229 35.9222 38.698 35.9222 37.0455ZM46.1743 39.2847C47.5274 39.2847 48.2578 38.3148 48.2578 37.0336C48.2578 35.7643 47.5274 34.7824 46.1743 34.7824C45.0607 34.7824 44.1148 35.7643 44.1148 37.0336C44.1148 38.3148 45.0607 39.2847 46.1743 39.2847ZM43.2526 40.0391V31.1543H44.1148V35.2255C44.6775 34.2436 45.5157 33.9442 46.1983 33.9442C48.0782 33.9442 49.1199 35.3691 49.1199 37.0336C49.1199 38.7099 48.0662 40.1349 46.1863 40.1349C45.5157 40.1349 44.6775 39.8475 44.1148 38.8416V40.0391H43.2526ZM54.7634 36.5666C54.6676 35.7044 54.2485 34.7824 52.9553 34.7824C51.8178 34.7824 51.0874 35.3931 50.9317 36.5785L54.7634 36.5666ZM50.0456 36.9976C50.0456 35.3213 51.0514 33.9203 52.9194 33.9203C54.8592 33.9203 55.3501 35.429 55.41 35.5727C55.7692 36.5546 55.6256 37.4167 55.6256 37.4167H50.9317C51.0874 38.5423 51.8178 39.2128 52.9314 39.2128C54.3084 39.2128 54.6437 38.4585 54.7275 38.3387L55.4699 38.7339C55.4699 38.7339 54.967 40.075 52.9194 40.075C51.0514 40.075 50.0456 38.662 50.0456 36.9976ZM56.7187 31.1543H57.5808V40.0391H56.7187V31.1543Z" fill="#616161"/>
<path d="M32.2925 51.4004H237.785C239.375 51.4006 240.664 52.6899 240.665 54.2803V89.6816C240.665 91.2721 239.375 92.5613 237.785 92.5615H32.2925C30.702 92.5613 29.4126 91.2721 29.4126 89.6816V54.2803C29.4128 52.6899 30.7021 51.4006 32.2925 51.4004Z" fill="white"/>
<path d="M32.2925 51.4004H237.785C239.375 51.4006 240.664 52.6899 240.665 54.2803V89.6816C240.665 91.2721 239.375 92.5613 237.785 92.5615H32.2925C30.702 92.5613 29.4126 91.2721 29.4126 89.6816V54.2803C29.4128 52.6899 30.7021 51.4006 32.2925 51.4004Z" stroke="#999999" stroke-width="0.748383"/>
<path d="M44.6063 68.9993H47.2197V66.2108H48.23V75.0342H47.2197V69.8479H44.6063V68.9993ZM38.5713 72.5152C40.2956 71.8551 41.5349 70.1982 41.5349 68.3796V66.8978H42.5318V68.4065C42.5318 70.0769 43.7442 71.6261 45.4146 72.2592L44.8757 73.0405C43.5825 72.5286 42.5587 71.4914 42.0603 70.1982C41.5619 71.6261 40.4842 72.7576 39.0967 73.3234L38.5713 72.5152ZM40.6728 77.7149V74.0374H41.6831V76.8797H48.5129V77.7149H40.6728ZM50.7449 67.0595H55.2711V67.8946H51.7148V69.4169H55.1499V70.2116H51.7148V71.8686C53.4391 71.8686 54.5033 71.8012 55.756 71.5587L55.8638 72.3805C54.5033 72.6499 53.3852 72.7038 51.4858 72.7038H50.7449V67.0595ZM52.2536 74.8052V73.97H60.1341V77.9844H59.1372V74.8052H52.2536ZM56.5643 73.2695V66.4263H57.5207V69.2956H59.1777V66.1973H60.1341V73.3369H59.1777V70.1308H57.5207V73.2695H56.5643ZM65.4509 66.7496C67.1483 66.7496 68.3472 67.6656 68.3472 69.0666C68.3472 70.3059 67.3907 71.1681 65.9898 71.3432V72.5286C67.0944 72.4748 68.199 72.3805 69.2228 72.2188L69.3036 72.9597C66.8384 73.4177 64.0365 73.4447 62.0024 73.4447L61.8677 72.6095C62.7837 72.6095 63.8614 72.6095 64.9794 72.569V71.3432C63.5381 71.195 62.5547 70.3194 62.5547 69.0666C62.5547 67.6656 63.7536 66.7496 65.4509 66.7496ZM63.5111 69.0666C63.5111 69.9826 64.2924 70.6023 65.4509 70.6023C66.6094 70.6023 67.4042 69.9826 67.4042 69.0666C67.4042 68.1641 66.6094 67.5309 65.4509 67.5309C64.2924 67.5309 63.5111 68.1641 63.5111 69.0666ZM63.5919 77.7015V74.455H64.6023V76.8663H71.4051V77.7015H63.5919ZM69.9771 75.2228V66.2108H70.9875V70.2116H72.7521V71.0603H70.9875V75.2228H69.9771ZM73.5428 75.6674H76.5602V73.3908H74.8898V69.7806H81.8947V67.8946H74.8629V67.0729H82.8916V70.5888H75.8867V72.5556H83.161V73.3908H81.3155V75.6674H84.2252V76.5026H73.5428V75.6674ZM77.5571 75.6674H80.3321V73.3908H77.5571V75.6674Z" fill="#333333"/>
<path fill-rule="evenodd" clip-rule="evenodd" d="M218.058 69.2065C218.35 68.9142 218.824 68.9142 219.116 69.2065L223.077 73.1676L227.038 69.2065C227.33 68.9142 227.804 68.9142 228.097 69.2065C228.389 69.4988 228.389 69.9726 228.097 70.2649L223.606 74.7552C223.314 75.0474 222.84 75.0474 222.548 74.7552L218.058 70.2649C217.765 69.9726 217.765 69.4988 218.058 69.2065Z" fill="#616161"/>
<path fill-rule="evenodd" clip-rule="evenodd" d="M43.3389 103.831C43.5216 104.014 43.5216 104.31 43.3389 104.493L36.4788 111.353C36.2961 111.536 35.9999 111.536 35.8173 111.353L32.699 108.235C32.5163 108.052 32.5163 107.756 32.699 107.573C32.8817 107.391 33.1778 107.391 33.3605 107.573L36.148 110.361L42.6775 103.831C42.8601 103.649 43.1563 103.649 43.3389 103.831Z" fill="#166534"/>
<path d="M56.3634 104.339V111.903H55.609V108.383H51.6276V111.903H50.8733V104.339H51.6276V107.65H55.609V104.339H56.3634ZM61.7163 108.865C61.6325 108.111 61.2658 107.304 60.1342 107.304C59.1389 107.304 58.4998 107.838 58.3636 108.875L61.7163 108.865ZM57.5882 109.242C57.5882 107.775 58.4683 106.549 60.1028 106.549C61.8001 106.549 62.2297 107.87 62.2821 107.995C62.5964 108.854 62.4707 109.609 62.4707 109.609H58.3636C58.4998 110.594 59.1389 111.18 60.1133 111.18C61.3182 111.18 61.6115 110.52 61.6849 110.416L62.3345 110.761C62.3345 110.761 61.8944 111.935 60.1028 111.935C58.4683 111.935 57.5882 110.698 57.5882 109.242ZM63.4131 104.129H64.1675V111.903H63.4131V104.129ZM68.1016 111.254C69.2541 111.254 69.9037 110.395 69.9037 109.274C69.9037 108.173 69.2541 107.314 68.1016 107.314C67.1376 107.314 66.3099 108.173 66.3099 109.274C66.3099 110.395 67.1376 111.254 68.1016 111.254ZM65.5451 114.313V106.57H66.2994V107.702C66.6452 106.948 67.4624 106.581 68.112 106.581C69.7465 106.581 70.658 107.828 70.658 109.274C70.658 110.74 69.7465 111.987 68.112 111.987C67.4415 111.987 66.6452 111.537 66.2994 110.856V114.313H65.5451ZM81.1163 108.634C81.1163 107.786 80.6029 107.304 79.8486 107.304C79.1466 107.304 78.4237 107.964 78.4237 108.634V111.903H77.6693V108.634C77.6693 107.964 77.2397 107.304 76.4225 107.304C75.6786 107.304 74.9871 107.964 74.9871 108.718V111.903H74.2327V106.57H74.9871V107.492C75.3224 106.916 75.8148 106.57 76.4539 106.57C77.2292 106.57 77.7426 106.906 78.1198 107.639C78.5075 107.094 79.0418 106.57 79.88 106.57C80.9697 106.57 81.8707 107.45 81.8707 108.551V111.903H81.1163V108.634ZM87.0722 108.865C86.9884 108.111 86.6217 107.304 85.4901 107.304C84.4948 107.304 83.8556 107.838 83.7194 108.875L87.0722 108.865ZM82.9441 109.242C82.9441 107.775 83.8242 106.549 85.4587 106.549C87.156 106.549 87.5856 107.87 87.638 107.995C87.9523 108.854 87.8266 109.609 87.8266 109.609H83.7194C83.8556 110.594 84.4948 111.18 85.4692 111.18C86.6741 111.18 86.9674 110.52 87.0408 110.416L87.6904 110.761C87.6904 110.761 87.2503 111.935 85.4587 111.935C83.8242 111.935 82.9441 110.698 82.9441 109.242ZM89.3348 110.457C89.5443 110.939 90.0368 111.222 90.6759 111.191C91.5979 111.17 91.9646 110.028 91.0216 109.724C90.6759 109.619 90.0472 109.452 89.5338 109.116C88.7376 108.582 88.748 107.796 88.989 107.314C89.3138 106.675 90.1415 106.487 90.6235 106.528C91.074 106.581 91.7027 106.738 92.1008 107.272L91.4931 107.712C91.2731 107.409 90.9169 107.314 90.5606 107.272C90.2358 107.241 89.8063 107.356 89.6491 107.65C89.5129 107.932 89.5234 108.215 89.9529 108.498C90.3616 108.771 90.8854 108.896 91.2521 109.022C93.0123 109.588 92.4466 111.893 90.6968 111.935C89.8167 111.977 88.9785 111.516 88.6538 110.751L89.3348 110.457ZM93.6734 110.457C93.8829 110.939 94.3753 111.222 95.0145 111.191C95.9365 111.17 96.3032 110.028 95.3602 109.724C95.0145 109.619 94.3858 109.452 93.8724 109.116C93.0761 108.582 93.0866 107.796 93.3276 107.314C93.6524 106.675 94.4801 106.487 94.9621 106.528C95.4126 106.581 96.0412 106.738 96.4394 107.272L95.8317 107.712C95.6117 107.409 95.2554 107.314 94.8992 107.272C94.5744 107.241 94.1448 107.356 93.9877 107.65C93.8515 107.932 93.8619 108.215 94.2915 108.498C94.7001 108.771 95.224 108.896 95.5907 109.022C97.3509 109.588 96.7851 111.893 95.0354 111.935C94.1553 111.977 93.3171 111.516 92.9923 110.751L93.6734 110.457ZM100.092 111.222C101.035 111.222 101.883 110.457 101.894 109.284C101.883 108.121 101.035 107.346 100.092 107.346C98.9288 107.346 98.3001 108.184 98.3001 109.284C98.3001 110.384 98.9288 111.222 100.092 111.222ZM97.5458 109.284C97.5458 107.828 98.4573 106.602 100.081 106.602C100.699 106.602 101.391 106.927 101.873 107.702V106.57H102.627V111.903H101.873V110.856C101.37 111.673 100.71 111.977 100.081 111.977C98.4573 111.977 97.5458 110.73 97.5458 109.284ZM106.282 111.243C107.278 111.243 108.063 110.374 108.063 109.284C108.063 108.215 107.267 107.346 106.282 107.346C105.193 107.346 104.491 108.111 104.491 109.284C104.491 110.478 105.193 111.243 106.282 111.243ZM103.736 109.284C103.736 107.702 104.774 106.612 106.272 106.612C107.068 106.612 107.749 107.031 108.063 107.712V106.57H108.818V111.641C108.797 113.339 107.812 114.303 106.115 114.303C105.266 114.303 104.522 113.863 103.977 113.045L104.616 112.637C105.004 113.244 105.507 113.548 106.115 113.548C107.414 113.548 108.053 112.92 108.063 111.631V110.835C107.697 111.495 106.953 111.977 106.272 111.977C104.774 111.977 103.736 110.877 103.736 109.284ZM113.84 108.865C113.756 108.111 113.39 107.304 112.258 107.304C111.263 107.304 110.624 107.838 110.487 108.875L113.84 108.865ZM109.712 109.242C109.712 107.775 110.592 106.549 112.227 106.549C113.924 106.549 114.353 107.87 114.406 107.995C114.72 108.854 114.594 109.609 114.594 109.609H110.487C110.624 110.594 111.263 111.18 112.237 111.18C113.442 111.18 113.735 110.52 113.809 110.416L114.458 110.761C114.458 110.761 114.018 111.935 112.227 111.935C110.592 111.935 109.712 110.698 109.712 109.242Z" fill="#166534"/>
</g>
<defs>
<filter id="filter0_dd_1099_71304" x="0.338152" y="0.545883" width="269.324" height="147.324" filterUnits="userSpaceOnUse" color-interpolation-filters="sRGB">
<feFlood flood-opacity="0" result="BackgroundImageFix"/>
<feColorMatrix in="SourceAlpha" type="matrix" values="0 0 0 0 0 0 0 0 0 0 0 0 0 0 0 0 0 0 127 0" result="hardAlpha"/>
<feOffset/>
<feGaussianBlur stdDeviation="0.551933"/>
<feComposite in2="hardAlpha" operator="out"/>
<feColorMatrix type="matrix" values="0 0 0 0 0 0 0 0 0 0 0 0 0 0 0 0 0 0 0.2 0"/>
<feBlend mode="normal" in2="BackgroundImageFix" result="effect1_dropShadow_1099_71304"/>
<feColorMatrix in="SourceAlpha" type="matrix" values="0 0 0 0 0 0 0 0 0 0 0 0 0 0 0 0 0 0 127 0" result="hardAlpha"/>
<feOffset dy="2.20773"/>
<feGaussianBlur stdDeviation="8.83092"/>
<feComposite in2="hardAlpha" operator="out"/>
<feColorMatrix type="matrix" values="0 0 0 0 0 0 0 0 0 0 0 0 0 0 0 0 0 0 0.08 0"/>
<feBlend mode="normal" in2="effect1_dropShadow_1099_71304" result="effect2_dropShadow_1099_71304"/>
<feBlend mode="normal" in="SourceGraphic" in2="effect2_dropShadow_1099_71304" result="shape"/>
</filter>
</defs>
</svg>
