<svg width="265" height="193" viewBox="0 0 265 193" fill="none" xmlns="http://www.w3.org/2000/svg">
<g filter="url(#filter0_dd_1099_76457)">
<g clip-path="url(#clip0_1099_76457)">
<path d="M11 19.2023C11 11.9109 16.9109 6 24.2023 6H240.941C248.232 6 254.143 11.9109 254.143 19.2023V163.371C254.143 170.663 248.232 176.574 240.941 176.574H24.2023C16.9109 176.574 11 170.663 11 163.371V19.2023Z" fill="white"/>
<path d="M25.1897 27.1251H31.2892V28.5919H26.9905V30.7558H31.0858V32.1645H26.9905V34.6333C28.8494 34.6188 30.3742 34.5752 32.0879 34.2993L32.2476 35.7225C30.2871 36.042 28.5153 36.1001 26.2644 36.1001H25.1897V27.1251ZM33.0319 39.0627V26.0505H34.8327V31.0172H36.7496V32.4985H34.8327V39.0627H33.0319ZM46.1738 26.0214H47.9891V39.0772H46.1738V26.0214ZM37.5764 31.5835C37.5764 28.7371 39.0287 26.9509 41.0038 26.9509C42.9643 26.9509 44.4021 28.7371 44.4021 31.5835C44.4021 34.4445 42.9643 36.2308 41.0038 36.2308C39.0287 36.2308 37.5764 34.4445 37.5764 31.5835ZM39.3192 31.5835C39.3192 33.5296 40.0017 34.6042 41.0038 34.6042C41.9913 34.6042 42.6739 33.5296 42.6739 31.5835C42.6739 29.6375 41.9913 28.5774 41.0038 28.5774C40.0017 28.5774 39.3192 29.6375 39.3192 31.5835ZM51.2412 26.3264H60.1726V27.5463H53.0275V28.1998H59.8821V29.3616H53.0275V30.0442H60.2742V31.2641H51.2412V26.3264ZM49.8035 33.2101V31.8885H61.5232V33.2101H49.8035ZM51.125 35.1125V33.8636H60.1V36.9714H52.9113V37.7121H60.4485V38.961H51.1541V35.7806H58.3282V35.1125H51.125Z" fill="#333333"/>
<path d="M25.1884 56.364H26.0676V62.21C27.1846 62.1981 28.2658 62.1387 29.5134 61.8773L29.6323 62.6378C28.2658 62.9229 27.1014 62.9823 25.8538 62.9823H25.1884V56.364ZM28.0757 59.489V58.7523H30.4402V55.4847H31.2839V65.0855H30.4402V59.489H28.0757ZM32.6503 65.632V55.2352H33.5058V65.632H32.6503ZM36.1875 56.1382H43.1979V56.8631H37.0905V58.4553H42.9722V59.1801H37.0905V60.8554H43.3049V61.5921H36.1875V56.1382ZM34.9636 64.2656V63.5289H44.3861V64.2656H34.9636ZM52.8544 55.2352H53.7456V65.6439H52.8544V63.0536H50.4661V62.3407H52.8544V55.2352ZM45.2023 60.7366C47.1629 60.7366 49.7769 60.7247 52.0464 60.4039L52.1058 61.0574C51.084 61.2357 50.0146 61.3307 48.9808 61.3901V65.3112H48.0897V61.4377C47.0916 61.4733 46.141 61.4852 45.3093 61.4852L45.2023 60.7366ZM45.9747 57.8017C45.9747 56.5779 47.0441 55.7699 48.5887 55.7699C50.1215 55.7699 51.179 56.5779 51.179 57.8017C51.179 59.0375 50.1215 59.8336 48.5887 59.8336C47.0441 59.8336 45.9747 59.0375 45.9747 57.8017ZM46.8183 57.8017C46.8183 58.6097 47.5431 59.1444 48.5887 59.1444C49.6225 59.1444 50.3354 58.6097 50.3354 57.8017C50.3354 57.0056 49.6225 56.4591 48.5887 56.4591C47.5431 56.4591 46.8183 57.0056 46.8183 57.8017ZM56.6649 56.3046H63.7585V57.5879C63.7585 59.1207 63.7585 60.5346 63.3307 62.6378L62.4396 62.5546C62.6653 61.5565 62.7723 60.6772 62.8317 59.8573L56.5223 60.2019L56.3916 59.4652L62.8554 59.1919C62.8792 58.6454 62.8792 58.1107 62.8792 57.5879V57.0413H56.6649V56.3046ZM55.5361 64.1587V63.4101H64.9348V64.1587H55.5361ZM72.904 55.2233H73.8071V59.4771H75.4824V60.2257H73.8071V65.632H72.904V55.2233ZM65.9055 62.9467C68.5789 61.604 70.0285 59.5603 70.2305 57.0888H66.3807V56.3521H71.1336C71.1336 59.287 69.7553 61.9605 66.4045 63.6358L65.9055 62.9467ZM86.3881 55.2471H87.2793V62.9229H86.3881V60.095H83.7265C83.2512 60.7129 82.4789 61.0812 81.5759 61.0812C80.0431 61.0812 78.9143 60.0237 78.9143 58.5028C78.9143 56.97 80.0431 55.9006 81.5759 55.9006C82.467 55.9006 83.2275 56.2689 83.7028 56.8749H86.3881V55.2471ZM79.7579 58.5028C79.7579 59.5603 80.5302 60.3089 81.5759 60.3089C82.6096 60.3089 83.3938 59.5603 83.3938 58.5028C83.3938 57.4453 82.6096 56.6967 81.5759 56.6967C80.5302 56.6967 79.7579 57.4453 79.7579 58.5028ZM80.6609 65.3944V62.1268H81.5521V64.6577H87.5763V65.3944H80.6609ZM84.1068 57.6116C84.2018 57.8849 84.2493 58.182 84.2493 58.5028C84.2493 58.8117 84.2018 59.0969 84.1186 59.3583H86.3881V57.6116H84.1068ZM96.6743 55.2352H97.5655V60.5465H96.6743V59.4534H93.9058V58.7404H96.6743V57.469H94.0603C93.4305 59.1088 91.8146 60.2257 89.5213 60.7841L89.2124 60.0593C91.7433 59.4534 93.2285 58.182 93.3949 56.4947H89.7352V55.758H94.3692C94.3692 56.1145 94.3336 56.4472 94.2741 56.768H96.6743V55.2352ZM90.8996 61.7585V61.0337H97.5655V63.5527H91.8027V64.8122H97.922V65.5251H90.9234V62.8635H96.6743V61.7585H90.8996ZM100.14 56.2333H105.404V56.9581H101.031V59.7385H105.452V60.4752H103.182V62.5427C104.204 62.4952 105.214 62.4358 106.176 62.3169L106.248 62.9705C103.966 63.315 101.471 63.3744 99.4867 63.3626L99.3679 62.614C100.271 62.614 101.269 62.6021 102.291 62.5665V60.4752H100.14V56.2333ZM106.865 65.6439V55.2233H107.757V65.6439H106.865ZM109.927 56.3046H115.738V57.0532H113.266V58.4553C113.266 60.2257 114.573 62.008 116.07 62.6615L115.56 63.3744C114.371 62.816 113.314 61.604 112.827 60.1663C112.351 61.6991 111.306 63.0299 110.118 63.624L109.607 62.9229C111.068 62.21 112.375 60.2495 112.375 58.4553V57.0532H109.927V56.3046ZM117.187 65.632V55.2352H118.079V65.632H117.187ZM125.408 55.8293C126.964 55.8293 128.093 56.8274 128.093 58.2295C128.093 59.6435 126.964 60.6297 125.408 60.6297C123.887 60.6297 122.746 59.6435 122.746 58.2295C122.746 56.8274 123.887 55.8293 125.408 55.8293ZM123.613 58.2295C123.613 59.2038 124.386 59.893 125.408 59.893C126.453 59.893 127.226 59.2038 127.226 58.2295C127.226 57.267 126.453 56.5779 125.408 56.5779C124.386 56.5779 123.613 57.267 123.613 58.2295ZM123.637 65.3588V61.5684H124.505V64.6102C125.099 64.5864 125.907 64.5032 126.643 64.2537L126.798 64.9785C125.788 65.3112 124.802 65.3588 124.136 65.3588H123.637ZM126.418 62.2932V61.6278H128.592V60.6772H129.471V61.6278H131.634V62.2932H126.418ZM127.119 64.1468C127.119 63.2556 127.903 62.6853 129.032 62.6853C130.149 62.6853 130.945 63.2556 130.945 64.1468C130.945 65.0379 130.149 65.6083 129.032 65.6083C127.903 65.6083 127.119 65.0379 127.119 64.1468ZM127.915 64.1468C127.915 64.6458 128.366 64.9785 129.032 64.9785C129.685 64.9785 130.149 64.6458 130.149 64.1468C130.149 63.6477 129.685 63.315 129.032 63.315C128.366 63.315 127.915 63.6477 127.915 64.1468ZM129.697 60.4158V55.2352H130.588V57.5879H132.145V58.3364H130.588V60.4158H129.697ZM135.73 55.8531C137.286 55.8531 138.427 56.8512 138.427 58.2889C138.427 59.7385 137.286 60.7247 135.73 60.7247C134.173 60.7247 133.032 59.7385 133.032 58.2889C133.032 56.8512 134.173 55.8531 135.73 55.8531ZM133.246 64.8359C134.553 64.3488 135.349 63.22 135.349 62.2219V61.6397H136.205V62.2219C136.205 63.1606 136.704 64.1468 137.69 64.7171C138.688 64.0993 139.199 63.018 139.199 62.2219V61.6397H140.067V62.2219C140.067 63.3032 140.839 64.3844 142.158 64.8359L141.718 65.5013C140.684 65.133 139.971 64.4082 139.615 63.5289C139.294 64.3725 138.664 65.1805 137.702 65.5964C136.704 65.2043 136.074 64.4319 135.765 63.5527C135.397 64.3963 134.684 65.1211 133.698 65.5013L133.246 64.8359ZM133.9 58.2889C133.9 59.287 134.672 59.9762 135.73 59.9762C136.787 59.9762 137.571 59.287 137.571 58.2889C137.571 57.3027 136.787 56.6016 135.73 56.6016C134.672 56.6016 133.9 57.3027 133.9 58.2889ZM139.983 61.1644V55.2352H140.874V57.7542H142.431V58.4909H140.874V61.1644H139.983ZM145.861 56.0432C147.275 56.0432 148.297 57.267 148.428 59.2276H150.757V55.2233H151.636V65.6439H150.757V59.9405H148.428C148.345 61.9842 147.299 63.2794 145.861 63.2794C144.352 63.2794 143.283 61.8654 143.283 59.6553C143.283 57.4453 144.352 56.0432 145.861 56.0432ZM144.127 59.6553C144.127 61.3545 144.839 62.4833 145.861 62.4833C146.895 62.4833 147.596 61.3545 147.596 59.6553C147.596 57.9562 146.895 56.8393 145.861 56.8393C144.839 56.8393 144.127 57.9562 144.127 59.6553ZM153.391 63.5408H155.732V60.701C154.852 60.2495 154.318 59.5009 154.318 58.5622C154.318 56.9462 155.898 55.9006 158.084 55.9006C160.294 55.9006 161.851 56.9462 161.851 58.5622C161.851 59.489 161.328 60.2257 160.473 60.6891V63.5408H162.813V64.2775H153.391V63.5408ZM155.185 58.5622C155.185 59.7385 156.397 60.5109 158.084 60.5109C159.772 60.5109 160.995 59.7385 160.995 58.5622C160.995 57.3859 159.772 56.6135 158.084 56.6135C156.397 56.6135 155.185 57.3859 155.185 58.5622ZM156.611 63.5408H159.581V61.0337C159.13 61.1525 158.631 61.2119 158.084 61.2119C157.55 61.2119 157.062 61.1525 156.611 61.0337V63.5408ZM36.4051 74.1858L33.791 82.7646H32.8998L30.7254 75.671L28.5866 82.7646H27.6836L25.0695 74.1858H25.9607L28.1351 81.2913L30.2858 74.1858H31.1651L33.3395 81.2913L35.5139 74.1858H36.4051ZM37.5961 76.7167H38.4516V82.7646H37.5961V76.7167ZM37.4773 74.5185C37.4773 74.2214 37.6674 73.9838 38.0238 73.9838C38.3684 73.9838 38.5585 74.2214 38.5585 74.5185C38.5585 74.8274 38.3684 75.0651 38.0238 75.0651C37.6674 75.0651 37.4773 74.8274 37.4773 74.5185ZM39.9902 77.9643H45.0044V78.8079H39.9902V77.9643ZM52.1359 74.1858V75.0175H47.5613V78.0475H51.3398V78.8792H47.5613V82.7646H46.7058V74.1858H52.1359ZM53.4513 76.7167H54.3068V82.7646H53.4513V76.7167ZM53.3324 74.5185C53.3324 74.2214 53.5225 73.9838 53.879 73.9838C54.2236 73.9838 54.4137 74.2214 54.4137 74.5185C54.4137 74.8274 54.2236 75.0651 53.879 75.0651C53.5225 75.0651 53.3324 74.8274 53.3324 74.5185ZM63.0831 74.2095H66.6953V74.9462H63.9624V78.0831H66.8141V78.8079H63.0831V74.2095ZM58.1283 82.2894V81.5408H62.3821V79.3307H63.2614V81.5408H67.5508V82.2894H58.1283ZM58.9601 78.8079V74.2214H62.4415V74.97H59.8393V78.0593C60.7186 78.0475 61.586 77.9999 62.5485 77.7623L62.6316 78.5227C61.5028 78.7723 60.5404 78.8079 59.5185 78.8079H58.9601ZM69.6978 73.6154H70.5771V76.3958H76.7439V77.1207H69.6978V73.6154ZM68.4145 79.2832V78.5465H77.837V79.2832H68.4145ZM69.6384 83.3825V80.3407H70.5177V82.6458H76.8033V83.3825H69.6384ZM89.3012 73.2352H90.1567V83.632H89.3012V73.2352ZM81.7323 81.113V74.5185H85.6415V75.2552H82.6116V80.3645C84.1087 80.3645 85.0593 80.3051 86.1643 80.0555L86.2594 80.8041C85.0712 81.0655 84.0612 81.113 82.3977 81.113H81.7323ZM84.9286 77.9643V77.2157H87.2099V73.4847H88.0536V83.0855H87.2099V77.9643H84.9286ZM99.219 73.2233H100.11V83.6439H99.219V73.2233ZM92.0066 77.6553C92.0066 75.4453 93.0998 74.0432 94.6444 74.0432C96.1772 74.0432 97.2704 75.4453 97.2704 77.6553C97.2704 79.8654 96.1772 81.2794 94.6444 81.2794C93.0998 81.2794 92.0066 79.8654 92.0066 77.6553ZM92.874 77.6553C92.874 79.3545 93.5988 80.4833 94.6444 80.4833C95.6782 80.4833 96.4149 79.3545 96.4149 77.6553C96.4149 75.9562 95.6782 74.8393 94.6444 74.8393C93.5988 74.8393 92.874 75.9562 92.874 77.6553ZM109.565 73.2233H110.444V83.6439H109.565V77.9168H107.366V77.1919H109.565V73.2233ZM102.388 81.1368V74.1977H107.188V74.9343H103.267V77.1088H106.725V77.8336H103.267V80.3882C105.192 80.3882 106.416 80.3407 107.842 80.0674L107.937 80.8041C106.44 81.0655 105.18 81.1368 103.172 81.1368H102.388ZM112.199 78.095H121.621V78.7723H112.199V78.095ZM113.328 80.2932V79.6397H120.433V81.8378H114.231V82.8359H120.766V83.5013H113.351V81.2081H119.566V80.2932H113.328ZM113.399 74.2095V73.556H120.397V75.6948H114.29V76.6216H120.588V77.287H113.423V75.0769H119.518V74.2095H113.399ZM132.266 73.2471H133.157V76.4077H134.713V77.1444H133.157V80.1981H132.266V73.2471ZM125.077 79.1644C125.909 79.1644 126.883 79.1644 127.893 79.1287V78.3445C126.693 78.2495 125.921 77.691 125.921 76.8236C125.921 75.873 126.871 75.2908 128.321 75.2908C129.782 75.2908 130.733 75.873 130.733 76.8236C130.733 77.6791 129.972 78.2376 128.772 78.3445V79.0931C129.747 79.0456 130.721 78.9624 131.636 78.8317L131.707 79.4733C129.473 79.8773 127.002 79.8892 125.196 79.8892L125.077 79.1644ZM125.338 74.8749V74.1977H127.893V73.152H128.772V74.1977H131.315V74.8749H125.338ZM126.348 81.4457V80.7328H133.157V83.632H132.266V81.4457H126.348ZM126.764 76.8236C126.764 77.3702 127.37 77.7504 128.321 77.7504C129.283 77.7504 129.889 77.3702 129.889 76.8236C129.889 76.2651 129.283 75.9087 128.321 75.9087C127.37 75.9087 126.764 76.2651 126.764 76.8236ZM143.015 73.2471H143.918V80.8397H143.015V73.2471ZM135.648 76.5265C135.648 75.0175 136.813 73.9719 138.346 73.9719C139.89 73.9719 141.043 75.0175 141.043 76.5265C141.043 78.0118 139.89 79.0693 138.346 79.0693C136.813 79.0693 135.648 78.0118 135.648 76.5265ZM136.516 76.5265C136.516 77.5484 137.312 78.2851 138.346 78.2851C139.391 78.2851 140.187 77.5484 140.187 76.5265C140.187 75.4809 139.391 74.7442 138.346 74.7442C137.312 74.7442 136.516 75.4809 136.516 76.5265ZM137.276 83.3944V80.0674H138.155V82.6577H144.239V83.3944H137.276ZM145.673 75.0413H147.824V73.5323H148.703V75.0413H150.842V75.7661H145.673V75.0413ZM146.041 78.8436C146.041 77.4652 146.968 76.4909 148.263 76.4909C149.559 76.4909 150.497 77.4652 150.497 78.8436C150.497 80.2456 149.559 81.2081 148.263 81.2081C146.968 81.2081 146.041 80.2456 146.041 78.8436ZM146.838 78.8436C146.838 79.7822 147.432 80.4476 148.263 80.4476C149.095 80.4476 149.701 79.7822 149.701 78.8436C149.701 77.9168 149.095 77.2395 148.263 77.2395C147.432 77.2395 146.838 77.9168 146.838 78.8436ZM151.388 83.1092V73.4847H152.232V77.6316H153.622V73.2352H154.466V83.632H153.622V78.3683H152.232V83.1092H151.388ZM155.983 79.1881H165.382V79.9248H161.104V83.632H160.225V79.9248H155.983V79.1881ZM156.553 77.5603C158.324 77.2989 160.189 76.1107 160.189 74.7086V74.6254H156.874V73.9006H164.467V74.6254H161.176V74.7086C161.176 76.1107 163.041 77.2989 164.811 77.5603L164.467 78.2851C162.887 78.0118 161.306 77.1325 160.688 75.873C160.059 77.1325 158.478 78.0118 156.898 78.2851L156.553 77.5603ZM170.357 76.9781H172.115V73.4728H172.947V83.0973H172.115V77.7266H170.357V76.9781ZM166.15 80.709C167.564 79.8773 168.456 78.0118 168.456 76.2295V74.2333H169.311V76.2057C169.311 77.8573 170.131 79.6397 171.497 80.4595L170.975 81.1487C169.977 80.5546 169.264 79.4258 168.895 78.1663C168.515 79.5446 167.743 80.7447 166.709 81.3744L166.15 80.709ZM174.23 83.632V73.2352H175.086V83.632H174.23ZM176.556 81.5408H178.896V78.701C178.017 78.2495 177.482 77.5009 177.482 76.5622C177.482 74.9462 179.063 73.9006 181.249 73.9006C183.459 73.9006 185.016 74.9462 185.016 76.5622C185.016 77.489 184.493 78.2257 183.637 78.6891V81.5408H185.978V82.2775H176.556V81.5408ZM178.35 76.5622C178.35 77.7385 179.562 78.5109 181.249 78.5109C182.936 78.5109 184.16 77.7385 184.16 76.5622C184.16 75.3859 182.936 74.6135 181.249 74.6135C179.562 74.6135 178.35 75.3859 178.35 76.5622ZM179.776 81.5408H182.746V79.0337C182.295 79.1525 181.796 79.2119 181.249 79.2119C180.714 79.2119 180.227 79.1525 179.776 79.0337V81.5408ZM25.4379 96.4752C25.4379 94.7167 25.9726 93.0769 26.8756 91.6511H27.8381C26.8162 93.0532 26.2221 94.7048 26.2221 96.4752C26.2221 98.2456 26.8162 99.8973 27.8381 101.299H26.8756C25.9726 99.8735 25.4379 98.2338 25.4379 96.4752ZM31.9821 96.7129H32.8851V98.6496C33.8832 98.6021 34.8932 98.5189 35.8438 98.3645L35.915 99.018C33.5743 99.4576 31.0196 99.4695 29.1541 99.4695L29.0353 98.7209C29.8908 98.7209 30.9127 98.7209 31.9821 98.6853V96.7129ZM29.3561 96.3683C30.877 95.9049 31.9583 94.7523 31.9821 93.3383H29.5938V92.6016H31.9821V91.3065H32.8851V92.6016H35.3091V93.3383H32.8732C32.897 94.7048 34.0139 95.8098 35.5229 96.2613L35.1071 96.9505C33.8832 96.5703 32.897 95.7742 32.4336 94.7048C31.994 95.8217 31.0077 96.6653 29.772 97.0693L29.3561 96.3683ZM36.5329 101.644V91.2233H37.4241V101.644H36.5329ZM47.2231 91.2352H48.0786V101.632H47.2231V96.1663H45.7022V101.085H44.8705V91.4728H45.7022V95.4177H47.2231V91.2352ZM39.6661 99.0417V92.5066H43.5159V93.2433H40.5454V98.2932C41.9712 98.2932 42.9693 98.2338 44.0981 97.9961L44.2051 98.7328C42.9574 98.9942 41.9118 99.0417 40.3315 99.0417H39.6661ZM53.6477 94.9781H55.4062V91.4728H56.2379V101.097H55.4062V95.7266H53.6477V94.9781ZM49.4414 98.709C50.8554 97.8773 51.7465 96.0118 51.7465 94.2295V92.2333H52.602V94.2057C52.602 95.8573 53.4219 97.6397 54.7883 98.4595L54.2655 99.1487C53.2674 98.5546 52.5545 97.4258 52.1862 96.1663C51.8059 97.5446 51.0336 98.7447 49.9998 99.3744L49.4414 98.709ZM57.5212 101.632V91.2352H58.3767V101.632H57.5212ZM59.8464 95.5959H69.2333V96.3207H64.9795V97.3901H68.0213V99.7428H61.8901V100.812H68.3421V101.513H61.0228V99.0893H67.1539V98.0793H60.9871V97.3901H64.0883V96.3207H59.8464V95.5959ZM60.3574 94.384C62.1634 94.2176 63.9101 93.4215 64.017 92.3165H60.7138V91.5917H68.3897V92.3165H65.0745C65.1815 93.4215 66.9282 94.2176 68.7342 94.384L68.4372 95.0612C66.7737 94.883 65.1696 94.2295 64.5517 93.1839C63.9339 94.2295 62.3298 94.883 60.6544 95.0612L60.3574 94.384ZM77.4045 91.2352H78.2838V95.5365H79.8641V96.2851H78.2838V101.632H77.4045V91.2352ZM70.1089 98.7685C71.6773 97.1525 72.3189 95.1801 72.4259 93.1007H70.4297V92.364H73.2576C73.2576 94.8236 72.6992 97.2713 70.8218 99.2794L70.1089 98.7685ZM73.0794 99.4695C74.6954 97.6159 75.1825 95.2632 75.2538 93.1007H73.5903V92.364H76.0974C76.0974 94.8117 75.7291 97.6991 73.8042 99.9685L73.0794 99.4695ZM80.7397 92.3046H86.55V93.0532H84.0785V94.4553C84.0785 96.2257 85.3856 98.008 86.8827 98.6615L86.3718 99.3744C85.1836 98.816 84.1261 97.604 83.6389 96.1663C83.1636 97.6991 82.118 99.0299 80.9298 99.624L80.4188 98.9229C81.8803 98.21 83.1874 96.2495 83.1874 94.4553V93.0532H80.7397V92.3046ZM87.9996 101.632V91.2352H88.8908V101.632H87.9996ZM100.426 91.2233H101.329V95.4771H103.005V96.2257H101.329V101.632H100.426V91.2233ZM93.4277 98.9467C96.1011 97.604 97.5508 95.5603 97.7528 93.0888H93.903V92.3521H98.6558C98.6558 95.287 97.2775 97.9605 93.9267 99.6358L93.4277 98.9467ZM104.926 91.4491H105.805V94.1582H111.96V94.8949H104.926V91.4491ZM103.643 96.8673V96.1306H113.029V96.8673H103.643ZM104.771 99.7071C104.771 98.5071 106.102 97.8298 108.324 97.8298C110.534 97.8298 111.877 98.5071 111.877 99.7071C111.877 100.907 110.534 101.596 108.324 101.596C106.102 101.596 104.771 100.907 104.771 99.7071ZM105.663 99.7071C105.663 100.456 106.673 100.883 108.324 100.883C109.976 100.883 110.974 100.456 110.974 99.7071C110.974 98.9586 109.976 98.5308 108.324 98.5308C106.673 98.5308 105.663 98.9586 105.663 99.7071ZM116.602 96.4752C116.602 98.2338 116.079 99.8735 115.176 101.299H114.214C115.236 99.8973 115.818 98.2456 115.818 96.4752C115.818 94.7048 115.236 93.0532 114.214 91.6511H115.176C116.079 93.0769 116.602 94.7167 116.602 96.4752Z" fill="#333333"/>
<path d="M24.2021 130.58C24.2021 128.541 25.8553 126.888 27.8945 126.888H237.248C239.287 126.888 240.94 128.541 240.94 130.58V159.679C240.94 161.718 239.287 163.371 237.248 163.371H27.8945C25.8552 163.371 24.2021 161.718 24.2021 159.679V130.58Z" fill="#FF8120"/>
<path d="M129.498 139.528H130.769V142.618H132.207V143.663H130.769V146.669H129.498V139.528ZM122.38 145.41C123.176 145.41 124.079 145.41 125.03 145.386V144.721C123.865 144.578 123.141 144.02 123.141 143.188C123.141 142.214 124.139 141.619 125.66 141.619C127.192 141.619 128.179 142.214 128.179 143.188C128.179 144.02 127.466 144.578 126.301 144.721V145.339C127.204 145.291 128.119 145.22 128.963 145.113L129.058 146.004C126.824 146.396 124.376 146.408 122.535 146.42L122.38 145.41ZM122.642 141.299V140.372H125.03V139.433H126.301V140.372H128.678V141.299H122.642ZM123.699 148.131V147.133H130.769V150.079H129.498V148.131H123.699ZM124.353 143.188C124.353 143.627 124.852 143.913 125.66 143.913C126.48 143.913 126.979 143.627 126.979 143.188C126.979 142.724 126.48 142.463 125.66 142.463C124.852 142.463 124.353 142.724 124.353 143.188ZM140.2 139.528H141.483V147.156H140.2V139.528ZM132.952 142.867C132.952 141.31 134.175 140.217 135.768 140.217C137.372 140.217 138.584 141.31 138.584 142.867C138.584 144.4 137.372 145.505 135.768 145.505C134.175 145.505 132.952 144.4 132.952 142.867ZM134.199 142.867C134.199 143.794 134.877 144.388 135.768 144.388C136.659 144.388 137.348 143.794 137.348 142.867C137.348 141.916 136.659 141.322 135.768 141.322C134.877 141.322 134.199 141.916 134.199 142.867ZM134.568 149.877V146.396H135.839V148.844H141.78V149.877H134.568Z" fill="white"/>
</g>
</g>
<defs>
<filter id="filter0_dd_1099_76457" x="0.438137" y="0.719069" width="264.266" height="191.697" filterUnits="userSpaceOnUse" color-interpolation-filters="sRGB">
<feFlood flood-opacity="0" result="BackgroundImageFix"/>
<feColorMatrix in="SourceAlpha" type="matrix" values="0 0 0 0 0 0 0 0 0 0 0 0 0 0 0 0 0 0 127 0" result="hardAlpha"/>
<feOffset/>
<feGaussianBlur stdDeviation="2.64047"/>
<feComposite in2="hardAlpha" operator="out"/>
<feColorMatrix type="matrix" values="0 0 0 0 0 0 0 0 0 0 0 0 0 0 0 0 0 0 0.12 0"/>
<feBlend mode="normal" in2="BackgroundImageFix" result="effect1_dropShadow_1099_76457"/>
<feColorMatrix in="SourceAlpha" type="matrix" values="0 0 0 0 0 0 0 0 0 0 0 0 0 0 0 0 0 0 127 0" result="hardAlpha"/>
<feOffset dy="5.28093"/>
<feGaussianBlur stdDeviation="5.28093"/>
<feComposite in2="hardAlpha" operator="out"/>
<feColorMatrix type="matrix" values="0 0 0 0 0 0 0 0 0 0 0 0 0 0 0 0 0 0 0.12 0"/>
<feBlend mode="normal" in2="effect1_dropShadow_1099_76457" result="effect2_dropShadow_1099_76457"/>
<feBlend mode="normal" in="SourceGraphic" in2="effect2_dropShadow_1099_76457" result="shape"/>
</filter>
<clipPath id="clip0_1099_76457">
<path d="M11 19.2023C11 11.9109 16.9109 6 24.2023 6H240.941C248.232 6 254.143 11.9109 254.143 19.2023V163.371C254.143 170.663 248.232 176.574 240.941 176.574H24.2023C16.9109 176.574 11 170.663 11 163.371V19.2023Z" fill="white"/>
</clipPath>
</defs>
</svg>
