<svg width="259" height="136" viewBox="0 0 259 136" fill="none" xmlns="http://www.w3.org/2000/svg">
<path d="M45.844 49.8869V57.694H50.3223V58.5322H44.9819V49.8869H45.844ZM53.7933 57.7539C54.871 57.7539 55.8409 56.8798 55.8529 55.5387C55.8409 54.2096 54.871 53.3235 53.7933 53.3235C52.4642 53.3235 51.7458 54.2814 51.7458 55.5387C51.7458 56.796 52.4642 57.7539 53.7933 57.7539ZM50.8836 55.5387C50.8836 53.8743 51.9254 52.4733 53.7814 52.4733C54.4878 52.4733 55.2781 52.8445 55.8289 53.7306V52.4374H56.6911V58.5322H55.8289V57.3348C55.2542 58.2688 54.4998 58.616 53.7814 58.616C51.9254 58.616 50.8836 57.1911 50.8836 55.5387ZM61.1357 57.7779C62.4888 57.7779 63.2192 56.808 63.2192 55.5267C63.2192 54.2575 62.4888 53.2756 61.1357 53.2756C60.0221 53.2756 59.0762 54.2575 59.0762 55.5267C59.0762 56.808 60.0221 57.7779 61.1357 57.7779ZM58.214 58.5322V49.6474H59.0762V53.7186C59.639 52.7367 60.4772 52.4374 61.1597 52.4374C63.0396 52.4374 64.0814 53.8623 64.0814 55.5267C64.0814 57.2031 63.0276 58.628 61.1477 58.628C60.4772 58.628 59.639 58.3406 59.0762 57.3348V58.5322H58.214ZM69.7248 55.0597C69.629 54.1976 69.21 53.2756 67.9167 53.2756C66.7792 53.2756 66.0488 53.8863 65.8931 55.0717L69.7248 55.0597ZM65.007 55.4908C65.007 53.8144 66.0129 52.4134 67.8808 52.4134C69.8206 52.4134 70.3116 53.9222 70.3714 54.0659C70.7307 55.0478 70.587 55.9099 70.587 55.9099H65.8931C66.0488 57.0355 66.7792 57.706 67.8928 57.706C69.2698 57.706 69.6051 56.9516 69.6889 56.8319L70.4313 57.227C70.4313 57.227 69.9284 58.5681 67.8808 58.5681C66.0129 58.5681 65.007 57.1552 65.007 55.4908ZM71.6801 49.6474H72.5422V58.5322H71.6801V49.6474Z" fill="#616161"/>
<mask id="path-2-inside-1_957_52629" fill="white">
<path d="M44 73.8585C44 71.4622 45.9426 69.5195 48.339 69.5195H216.279C218.676 69.5195 220.618 71.4622 220.618 73.8585V107.09C220.618 109.486 218.676 111.429 216.279 111.429H48.339C45.9426 111.429 44 109.486 44 107.09V73.8585Z"/>
</mask>
<path d="M44 73.8585C44 71.4622 45.9426 69.5195 48.339 69.5195H216.279C218.676 69.5195 220.618 71.4622 220.618 73.8585V107.09C220.618 109.486 218.676 111.429 216.279 111.429H48.339C45.9426 111.429 44 109.486 44 107.09V73.8585Z" fill="white"/>
<path d="M48.339 69.5195V70.2679H216.279V69.5195V68.7711H48.339V69.5195ZM220.618 73.8585H219.87V107.09H220.618H221.367V73.8585H220.618ZM216.279 111.429V110.681H48.339V111.429V112.177H216.279V111.429ZM44 107.09H44.7484V73.8585H44H43.2516V107.09H44ZM48.339 111.429V110.681C46.356 110.681 44.7484 109.073 44.7484 107.09H44H43.2516C43.2516 109.9 45.5293 112.177 48.339 112.177V111.429ZM220.618 107.09H219.87C219.87 109.073 218.263 110.681 216.279 110.681V111.429V112.177C219.089 112.177 221.367 109.9 221.367 107.09H220.618ZM216.279 69.5195V70.2679C218.263 70.2679 219.87 71.8755 219.87 73.8585H220.618H221.367C221.367 71.0488 219.089 68.7711 216.279 68.7711V69.5195ZM48.339 69.5195V68.7711C45.5293 68.7711 43.2516 71.0488 43.2516 73.8585H44H44.7484C44.7484 71.8755 46.356 70.2679 48.339 70.2679V69.5195Z" fill="#E0E0E0" mask="url(#path-2-inside-1_957_52629)"/>
<rect width="17.9612" height="17.9612" transform="translate(52.9807 81.4941)" fill="#FF0000" fill-opacity="0.1"/>
<g clip-path="url(#clip0_957_52629)">
<path fill-rule="evenodd" clip-rule="evenodd" d="M59.1774 84.4883C57.4113 84.4883 55.9744 85.9252 55.9744 87.6914V93.2593C55.9744 95.0255 57.4113 96.4624 59.1774 96.4624H64.7454C66.5116 96.4624 67.9485 95.0255 67.9485 93.2593V87.6914C67.9485 85.9252 66.5116 84.4883 64.7454 84.4883H59.1774ZM56.82 93.4464C56.9173 94.6663 57.9351 95.6242 59.1774 95.6242H64.7454C66.0551 95.6242 67.1103 94.5615 67.1103 93.2593V92.3538L64.8876 90.5053C64.491 90.176 63.9072 90.1984 63.5405 90.5652L60.764 93.3417C60.5021 93.6036 60.083 93.6036 59.8211 93.3417L59.2223 92.743C58.8781 92.3987 58.3318 92.3538 57.9276 92.6382L56.9024 93.3716C56.9024 93.3716 56.8425 93.4165 56.8126 93.4464H56.82ZM58.6162 88.2452C58.6162 88.8588 59.1176 89.3603 59.7312 89.3603C60.3449 89.3603 60.8463 88.8588 60.8463 88.2452C60.8463 87.6315 60.3449 87.1301 59.7312 87.1301C59.1176 87.1301 58.6162 87.6315 58.6162 88.2452Z" fill="#333333"/>
</g>
<path d="M78.2729 94.6589C79.7547 94.6589 80.5899 93.5543 80.5899 92.1129C80.5899 90.6985 79.7547 89.5939 78.2729 89.5939C77.0336 89.5939 75.9694 90.6985 75.9694 92.1129C75.9694 93.5543 77.0336 94.6589 78.2729 94.6589ZM74.986 98.5924V88.6375H75.9559V90.0923C76.4005 89.1224 77.4512 88.6509 78.2864 88.6509C80.3879 88.6509 81.5598 90.254 81.5598 92.1129C81.5598 93.9989 80.3879 95.6019 78.2864 95.6019C77.4243 95.6019 76.4005 95.0227 75.9559 94.1471V98.5924H74.986ZM82.7625 85.4987H83.7324V95.4941H82.7625V85.4987ZM88.2092 94.6185C89.4215 94.6185 90.5127 93.6352 90.5262 92.1264C90.5127 90.6311 89.4215 89.6343 88.2092 89.6343C86.7139 89.6343 85.9056 90.712 85.9056 92.1264C85.9056 93.5409 86.7139 94.6185 88.2092 94.6185ZM84.9357 92.1264C84.9357 90.254 86.1077 88.6779 88.1957 88.6779C88.9905 88.6779 89.8796 89.0955 90.4992 90.0923V88.6375H91.4691V95.4941H90.4992V94.1471C89.8526 95.1978 89.0039 95.5884 88.1957 95.5884C86.1077 95.5884 84.9357 93.9854 84.9357 92.1264ZM96.0793 94.5916C96.7797 94.5916 97.4263 94.3222 97.8844 93.8642L98.6118 94.5108C97.9652 95.1574 97.103 95.5615 96.1331 95.5615C93.9239 95.5615 92.6442 93.9315 92.6442 91.9513C92.6442 89.9845 93.9239 88.3546 96.1331 88.3546C97.103 88.3546 97.9652 88.7587 98.6118 89.4053L97.8844 90.0519C97.4263 89.5939 96.7797 89.3245 96.0793 89.3245C94.4897 89.3245 93.6141 90.4964 93.6141 91.9513C93.6141 93.4196 94.4897 94.5916 96.0793 94.5916ZM104.634 91.5876C104.526 90.6177 104.055 89.5804 102.6 89.5804C101.32 89.5804 100.499 90.2674 100.323 91.6011L104.634 91.5876ZM99.3266 92.0725C99.3266 90.1866 100.458 88.6105 102.56 88.6105C104.742 88.6105 105.294 90.3078 105.362 90.4695C105.766 91.5741 105.604 92.544 105.604 92.544H100.323C100.499 93.8103 101.32 94.5646 102.573 94.5646C104.122 94.5646 104.499 93.716 104.594 93.5813L105.429 94.0258C105.429 94.0258 104.863 95.5346 102.56 95.5346C100.458 95.5346 99.3266 93.945 99.3266 92.0725ZM111.751 91.6415C111.751 90.3617 111.024 89.6208 110 89.6208C108.936 89.6208 108.006 90.6177 108.006 91.9109V95.4941H107.036V85.4987H108.006V89.9307C108.343 89.2302 109.111 88.6779 110.04 88.6779C111.428 88.6779 112.721 89.8633 112.721 91.5876V95.4941H111.751V91.6415ZM117.504 94.6051C119.012 94.6051 119.807 93.5004 119.807 92.0725C119.807 90.6446 119.012 89.54 117.504 89.54C115.981 89.54 115.214 90.6446 115.214 92.0725C115.214 93.5004 115.981 94.6051 117.504 94.6051ZM114.244 92.0725C114.244 90.2001 115.402 88.597 117.504 88.597C119.619 88.597 120.777 90.2001 120.777 92.0725C120.777 93.945 119.619 95.548 117.504 95.548C115.402 95.548 114.244 93.945 114.244 92.0725ZM121.975 85.4987H122.945V95.4941H121.975V85.4987ZM127.422 95.6019C125.334 95.6019 124.149 93.9989 124.149 92.1129C124.149 90.2405 125.334 88.624 127.422 88.624C128.298 88.624 129.214 89.0685 129.78 90.0923V85.4987H130.749V95.4941H129.78V94.1336C129.2 95.1574 128.298 95.6019 127.422 95.6019ZM125.119 92.1129C125.119 93.5543 125.94 94.632 127.463 94.632C128.702 94.632 129.78 93.5543 129.78 92.1129C129.78 90.685 128.702 89.5939 127.463 89.5939C125.94 89.5939 125.119 90.685 125.119 92.1129ZM137.382 91.5876C137.274 90.6177 136.803 89.5804 135.348 89.5804C134.068 89.5804 133.246 90.2674 133.071 91.6011L137.382 91.5876ZM132.074 92.0725C132.074 90.1866 133.206 88.6105 135.307 88.6105C137.49 88.6105 138.042 90.3078 138.109 90.4695C138.513 91.5741 138.352 92.544 138.352 92.544H133.071C133.246 93.8103 134.068 94.5646 135.321 94.5646C136.87 94.5646 137.247 93.716 137.341 93.5813L138.177 94.0258C138.177 94.0258 137.611 95.5346 135.307 95.5346C133.206 95.5346 132.074 93.945 132.074 92.0725ZM140.606 90.0788C140.996 89.1763 142.115 88.5701 143.044 88.5701V89.5669C141.791 89.5669 140.606 90.8736 140.606 91.9648V95.4941H139.636V88.6375H140.606V90.0788Z" fill="#BDBDBD"/>
<rect width="17.9612" height="17.9612" transform="translate(193.677 81.4941)" fill="#FF0000" fill-opacity="0.2"/>
<path d="M202.657 82.9902C206.79 82.9902 210.141 86.3406 210.141 90.4736C210.141 94.6068 206.79 97.958 202.657 97.958C198.524 97.9578 195.174 94.6067 195.174 90.4736C195.174 86.3408 198.524 82.9905 202.657 82.9902ZM205.299 87.833C205.107 87.6414 204.811 87.617 204.594 87.7607L204.506 87.833L202.657 89.6816L200.808 87.833L200.72 87.7607C200.503 87.6172 200.207 87.6413 200.015 87.833C199.824 88.0247 199.8 88.3204 199.943 88.5381L200.015 88.626L201.864 90.4746L200.015 92.3232C199.797 92.5424 199.796 92.8971 200.015 93.1162C200.234 93.335 200.589 93.335 200.808 93.1162L202.657 91.2676L204.506 93.1162L204.594 93.1885C204.811 93.3319 205.107 93.3076 205.299 93.1162C205.49 92.9245 205.514 92.629 205.371 92.4111L205.299 92.3232L203.45 90.4746L205.299 88.626L205.371 88.5381C205.515 88.3203 205.49 88.0248 205.299 87.833Z" fill="#999999"/>
<rect width="176.618" height="17.9612" transform="translate(44 117.416)" fill="#FF0000" fill-opacity="0.1"/>
<path fill-rule="evenodd" clip-rule="evenodd" d="M59.7388 121.697C59.958 121.916 59.958 122.271 59.7388 122.49L51.1324 131.097C50.9132 131.316 50.5578 131.316 50.3386 131.097L46.2225 126.981C46.0033 126.762 46.0033 126.406 46.2225 126.187C46.4417 125.968 46.7971 125.968 47.0163 126.187L50.7355 129.906L58.945 121.697C59.1642 121.477 59.5196 121.477 59.7388 121.697Z" fill="#999999"/>
<path d="M71.3251 122.832V130.396H70.5707V126.876H66.5893V130.396H65.8349V122.832H66.5893V126.143H70.5707V122.832H71.3251ZM76.678 127.358C76.5942 126.604 76.2275 125.797 75.0959 125.797C74.1006 125.797 73.4614 126.331 73.3252 127.369L76.678 127.358ZM72.5499 127.735C72.5499 126.268 73.43 125.043 75.0645 125.043C76.7618 125.043 77.1914 126.363 77.2438 126.488C77.5581 127.348 77.4324 128.102 77.4324 128.102H73.3252C73.4614 129.087 74.1006 129.674 75.075 129.674C76.2799 129.674 76.5732 129.013 76.6466 128.909L77.2962 129.254C77.2962 129.254 76.8561 130.428 75.0645 130.428C73.43 130.428 72.5499 129.192 72.5499 127.735ZM78.3748 122.622H79.1292V130.396H78.3748V122.622ZM83.0632 129.747C84.2157 129.747 84.8653 128.888 84.8653 127.767C84.8653 126.667 84.2157 125.807 83.0632 125.807C82.0993 125.807 81.2716 126.667 81.2716 127.767C81.2716 128.888 82.0993 129.747 83.0632 129.747ZM80.5067 132.806V125.064H81.2611V126.195C81.6069 125.441 82.4241 125.074 83.0737 125.074C84.7082 125.074 85.6197 126.321 85.6197 127.767C85.6197 129.233 84.7082 130.48 83.0737 130.48C82.4031 130.48 81.6069 130.03 81.2611 129.349V132.806H80.5067ZM96.078 127.128C96.078 126.279 95.5646 125.797 94.8102 125.797C94.1083 125.797 93.3853 126.457 93.3853 127.128V130.396H92.631V127.128C92.631 126.457 92.2014 125.797 91.3841 125.797C90.6403 125.797 89.9487 126.457 89.9487 127.211V130.396H89.1944V125.064H89.9487V125.986C90.284 125.409 90.7765 125.064 91.4156 125.064C92.1909 125.064 92.7043 125.399 93.0815 126.132C93.4691 125.587 94.0035 125.064 94.8417 125.064C95.9313 125.064 96.8324 125.944 96.8324 127.044V130.396H96.078V127.128ZM102.034 127.358C101.95 126.604 101.583 125.797 100.452 125.797C99.4564 125.797 98.8173 126.331 98.6811 127.369L102.034 127.358ZM97.9058 127.735C97.9058 126.268 98.7859 125.043 100.42 125.043C102.118 125.043 102.547 126.363 102.6 126.488C102.914 127.348 102.788 128.102 102.788 128.102H98.6811C98.8173 129.087 99.4564 129.674 100.431 129.674C101.636 129.674 101.929 129.013 102.002 128.909L102.652 129.254C102.652 129.254 102.212 130.428 100.42 130.428C98.7859 130.428 97.9058 129.192 97.9058 127.735ZM104.296 128.951C104.506 129.433 104.998 129.715 105.638 129.684C106.56 129.663 106.926 128.521 105.983 128.217C105.638 128.112 105.009 127.945 104.496 127.61C103.699 127.075 103.71 126.289 103.951 125.807C104.275 125.168 105.103 124.98 105.585 125.022C106.036 125.074 106.664 125.231 107.062 125.765L106.455 126.206C106.235 125.902 105.879 125.807 105.522 125.765C105.198 125.734 104.768 125.849 104.611 126.143C104.475 126.426 104.485 126.708 104.915 126.991C105.323 127.264 105.847 127.389 106.214 127.515C107.974 128.081 107.408 130.386 105.659 130.428C104.778 130.47 103.94 130.009 103.615 129.244L104.296 128.951ZM108.635 128.951C108.845 129.433 109.337 129.715 109.976 129.684C110.898 129.663 111.265 128.521 110.322 128.217C109.976 128.112 109.347 127.945 108.834 127.61C108.038 127.075 108.048 126.289 108.289 125.807C108.614 125.168 109.442 124.98 109.924 125.022C110.374 125.074 111.003 125.231 111.401 125.765L110.793 126.206C110.573 125.902 110.217 125.807 109.861 125.765C109.536 125.734 109.107 125.849 108.949 126.143C108.813 126.426 108.824 126.708 109.253 126.991C109.662 127.264 110.186 127.389 110.552 127.515C112.313 128.081 111.747 130.386 109.997 130.428C109.117 130.47 108.279 130.009 107.954 129.244L108.635 128.951ZM115.053 129.715C115.996 129.715 116.845 128.951 116.856 127.777C116.845 126.614 115.996 125.839 115.053 125.839C113.89 125.839 113.262 126.677 113.262 127.777C113.262 128.877 113.89 129.715 115.053 129.715ZM112.507 127.777C112.507 126.321 113.419 125.095 115.043 125.095C115.661 125.095 116.353 125.42 116.835 126.195V125.064H117.589V130.396H116.835V129.349C116.332 130.166 115.672 130.47 115.043 130.47C113.419 130.47 112.507 129.223 112.507 127.777ZM121.244 129.736C122.239 129.736 123.025 128.867 123.025 127.777C123.025 126.708 122.229 125.839 121.244 125.839C120.154 125.839 119.452 126.604 119.452 127.777C119.452 128.972 120.154 129.736 121.244 129.736ZM118.698 127.777C118.698 126.195 119.735 125.105 121.233 125.105C122.03 125.105 122.711 125.525 123.025 126.206V125.064H123.779V130.135C123.759 131.832 122.774 132.796 121.076 132.796C120.228 132.796 119.484 132.356 118.939 131.539L119.578 131.13C119.966 131.738 120.469 132.041 121.076 132.041C122.376 132.041 123.015 131.413 123.025 130.124V129.328C122.658 129.988 121.915 130.47 121.233 130.47C119.735 130.47 118.698 129.37 118.698 127.777ZM128.802 127.358C128.718 126.604 128.351 125.797 127.22 125.797C126.224 125.797 125.585 126.331 125.449 127.369L128.802 127.358ZM124.674 127.735C124.674 126.268 125.554 125.043 127.188 125.043C128.886 125.043 129.315 126.363 129.368 126.488C129.682 127.348 129.556 128.102 129.556 128.102H125.449C125.585 129.087 126.224 129.674 127.199 129.674C128.404 129.674 128.697 129.013 128.77 128.909L129.42 129.254C129.42 129.254 128.98 130.428 127.188 130.428C125.554 130.428 124.674 129.192 124.674 127.735Z" fill="#616161"/>
<rect y="68.9893" width="16.558" height="16.558" rx="8.27899" fill="#333333"/>
<path d="M9.44389 73.2545V81.3127L8.11925 81.3017V74.7116L6.67318 75.3739L6.17644 74.1597L8.11925 73.2545H9.44389Z" fill="white"/>
<path d="M43.8757 73.589C41.8436 73.589 40.1962 75.2364 40.1962 77.2686C40.1962 79.3007 41.8436 80.9481 43.8757 80.9481C45.9079 80.9481 47.5553 79.3007 47.5553 77.2686C47.5553 75.2364 45.9079 73.589 43.8757 73.589ZM43.8757 76.5786L16.2791 76.5786L16.2791 77.9585L43.8757 77.9585L43.8757 76.5786Z" fill="#333333"/>
<rect y="89.6865" width="16.558" height="16.558" rx="8.27899" fill="#333333"/>
<path d="M5.46345 100.685C7.08613 99.1289 9.20555 97.8815 9.20555 96.5679C9.20555 95.6076 8.6205 95.1991 7.89195 95.1991C7.41729 95.1991 6.8212 95.3757 6.45693 96.1705L5.25371 95.6296C5.88292 94.2277 7.17444 93.8745 7.89195 93.8745C9.13932 93.8745 10.5302 94.8459 10.5302 96.5679C10.5302 98.2348 8.90751 99.5263 7.49456 100.685H10.6516V102.01H5.46345V100.685Z" fill="white"/>
<path d="M55.1924 94.2863C53.1602 94.2863 51.5128 95.9337 51.5128 97.9658C51.5128 99.998 53.1602 101.645 55.1924 101.645C57.2245 101.645 58.8719 99.998 58.8719 97.9658C58.8719 95.9337 57.2245 94.2863 55.1924 94.2863ZM55.1924 97.2759H16.5571V98.6557H55.1924V97.2759Z" fill="#333333"/>
<rect x="241.47" y="81.4082" width="16.558" height="16.558" rx="8.27899" fill="#333333"/>
<path d="M248.335 90.2103L247.01 90.1551L247.187 85.6734H251.713V86.9981H248.457L248.401 88.5987C248.744 88.4552 249.119 88.3779 249.505 88.3779C251.006 88.3779 252.375 89.5038 252.375 91.1045C252.375 92.6278 250.984 93.842 249.505 93.842C248.247 93.842 247.021 92.9479 246.723 91.6895L248.015 91.3915C248.181 92.0869 248.755 92.5174 249.505 92.5174C250.399 92.5174 251.051 91.9324 251.051 91.1045C251.051 90.2214 250.432 89.7025 249.505 89.7025C248.997 89.7025 248.655 89.8571 248.335 90.2103Z" fill="white"/>
<path d="M213.873 93.3671C215.905 93.3671 217.553 91.7197 217.553 89.6875C217.553 87.6553 215.905 86.0079 213.873 86.0079C211.841 86.0079 210.193 87.6553 210.193 89.6875C210.193 91.7197 211.841 93.3671 213.873 93.3671ZM213.873 90.3774L241.912 90.3774L241.912 88.9976L213.873 88.9976L213.873 90.3774Z" fill="#333333"/>
<rect x="241.47" y="118.663" width="16.558" height="16.558" rx="8.27899" fill="#333333"/>
<path d="M249.549 129.739C250.455 129.739 251.084 129.22 251.084 128.359C251.084 127.542 250.443 126.968 249.549 126.968C248.666 126.968 248.048 127.542 248.048 128.359C248.048 129.22 248.644 129.739 249.549 129.739ZM246.723 128.359C246.723 127.929 246.834 127.52 247.033 127.156H247.021L249.417 122.895H250.929L249.373 125.655C249.439 125.644 249.494 125.644 249.56 125.644C251.029 125.644 252.408 126.847 252.408 128.359C252.408 129.938 251.04 131.064 249.56 131.064C248.092 131.064 246.723 129.938 246.723 128.359Z" fill="white"/>
<path d="M213.873 130.622C215.905 130.622 217.553 128.975 217.553 126.942C217.553 124.91 215.905 123.263 213.873 123.263C211.841 123.263 210.193 124.91 210.193 126.942C210.193 128.975 211.841 130.622 213.873 130.622ZM213.873 127.632L241.912 127.632L241.912 126.252L213.873 126.252L213.873 127.632Z" fill="#333333"/>
<rect x="53.8135" y="-0.00195312" width="16.558" height="16.558" rx="8.27899" fill="#333333"/>
<path d="M63.3723 8.14889C64.0787 8.55732 64.6307 9.24171 64.6307 10.0475C64.6307 11.3943 63.5268 12.3877 61.8379 12.3877C60.16 12.3877 59.0672 11.3943 59.0672 9.94819H60.3918C60.3918 10.5443 60.8113 11.1072 61.8379 11.1072C62.8755 11.1072 63.3502 10.5443 63.3502 9.94819C63.3502 9.34106 62.9749 8.74497 61.86 8.74497H61.297V7.56384H61.882C62.7983 7.56384 63.2288 7.02294 63.2288 6.48205C63.2288 5.96323 62.8203 5.47753 61.9152 5.47753C60.999 5.47753 60.6347 5.96323 60.6347 6.49309H59.31C59.31 5.1243 60.3698 4.19705 61.9152 4.19705C63.4385 4.19705 64.4982 5.1243 64.4982 6.39374C64.4982 7.13333 64.0235 7.75149 63.3723 8.14889Z" fill="white"/>
<path d="M65.7721 44.5947C65.7721 42.5626 64.1247 40.9152 62.0925 40.9152C60.0604 40.9152 58.413 42.5626 58.413 44.5947C58.413 46.6269 60.0604 48.2743 62.0925 48.2743C64.1247 48.2743 65.7721 46.6269 65.7721 44.5947ZM62.7824 44.5947L62.7824 16.5561L61.4026 16.5561L61.4026 44.5947L62.7824 44.5947Z" fill="#333333"/>
<rect x="126.944" y="-0.00195312" width="16.558" height="16.558" rx="8.27899" fill="#333333"/>
<path d="M137.066 4.26328V9.17548H138.015V10.478H137.066V12.3215H135.752V10.478H132.198V9.17548L135.808 4.26328H137.066ZM133.743 9.17548H135.752V6.43789L133.743 9.17548Z" fill="white"/>
<path d="M138.902 82.7881C138.902 80.7559 137.255 79.1085 135.223 79.1085C133.19 79.1085 131.543 80.7559 131.543 82.7881C131.543 84.8202 133.19 86.4676 135.223 86.4676C137.255 86.4676 138.902 84.8202 138.902 82.7881ZM135.913 82.7881L135.913 16.5562L134.533 16.5562L134.533 82.7881L135.913 82.7881Z" fill="#333333"/>
<defs>
<clipPath id="clip0_957_52629">
<rect width="11.9741" height="11.9741" fill="white" transform="translate(55.9744 84.4883)"/>
</clipPath>
</defs>
</svg>
