<svg width="351" height="59" viewBox="0 0 351 59" fill="none" xmlns="http://www.w3.org/2000/svg">
<path d="M126.628 35.3232V57.4006" stroke="black" stroke-width="1.10387"/>
<path d="M123.869 57.4004L129.388 57.4004" stroke="black" stroke-width="1.10387"/>
<path d="M123.869 35.3232L129.388 35.3232" stroke="black" stroke-width="1.10387"/>
<rect x="132.699" y="35.3232" width="22.0773" height="22.0773" rx="4.41546" fill="#333333"/>
<path d="M136.946 49.2943C138.747 47.5557 141.33 45.7054 141.33 44.1282C141.33 42.936 140.572 42.3648 139.653 42.3648C139.007 42.3648 138.287 42.5883 137.84 43.5942L136.847 43.1596C137.505 41.6569 138.809 41.272 139.653 41.272C141.007 41.272 142.423 42.3275 142.423 44.1282C142.423 45.991 140.274 47.7793 138.573 49.2943H142.572V50.3871H136.946V49.2943ZM147.037 49.3688C148.403 49.3688 149.223 48.276 149.223 45.8792C149.223 43.47 148.416 42.3896 147.037 42.3896C145.659 42.3896 144.839 43.47 144.839 45.8792C144.839 48.276 145.659 49.3688 147.037 49.3688ZM143.747 45.8792C143.747 43.0106 145.05 41.2968 147.037 41.2968C149.012 41.2968 150.316 42.9981 150.316 45.8792C150.316 48.7355 149.024 50.4617 147.037 50.4617C145.05 50.4617 143.747 48.7355 143.747 45.8792Z" fill="white"/>
<path d="M320.908 36.4277V54.0896" stroke="black" stroke-width="1.10387"/>
<path d="M318.149 54.0898L323.668 54.0898" stroke="black" stroke-width="1.10387"/>
<path d="M318.149 36.4277L323.668 36.4277" stroke="black" stroke-width="1.10387"/>
<rect x="326.979" y="34.2197" width="23.1812" height="22.0773" rx="4.41546" fill="#333333"/>
<path d="M336.084 40.2802V49.2712H334.992V41.5469L333.601 42.3665L333.079 41.4103L334.992 40.2802H336.084ZM340.877 48.2777C342.007 48.2777 342.839 47.5078 342.839 46.3901C342.839 45.2973 342.007 44.5025 340.877 44.5025C339.759 44.5025 338.952 45.2973 338.952 46.3901C338.952 47.5078 339.747 48.2777 340.877 48.2777ZM337.859 46.3901C337.859 45.8064 338.033 45.26 338.331 44.8006L340.914 40.2678H342.169L340.343 43.4594C340.529 43.4221 340.716 43.4097 340.902 43.4097C342.529 43.4097 343.932 44.7385 343.932 46.3901C343.932 48.0666 342.541 49.3706 340.902 49.3706C339.275 49.3706 337.859 48.0666 337.859 46.3901Z" fill="white"/>
<rect x="98.4791" width="22.0773" height="23.1812" rx="4.41546" fill="#333333"/>
<path d="M102.888 14.5228C104.689 12.7842 107.272 10.9339 107.272 9.35674C107.272 8.16456 106.515 7.59331 105.596 7.59331C104.95 7.59331 104.23 7.81685 103.783 8.82274L102.789 8.3881C103.447 6.88546 104.751 6.50049 105.596 6.50049C106.949 6.50049 108.365 7.55606 108.365 9.35674C108.365 11.2195 106.217 13.0078 104.515 14.5228H108.514V15.6157H102.888V14.5228ZM112.98 14.5973C114.346 14.5973 115.166 13.5045 115.166 11.1077C115.166 8.69856 114.358 7.61815 112.98 7.61815C111.602 7.61815 110.782 8.69856 110.782 11.1077C110.782 13.5045 111.602 14.5973 112.98 14.5973ZM109.689 11.1077C109.689 8.23908 110.993 6.52532 112.98 6.52532C114.954 6.52532 116.258 8.22666 116.258 11.1077C116.258 13.964 114.967 15.6902 112.98 15.6902C110.993 15.6902 109.689 13.964 109.689 11.1077Z" fill="white"/>
<path d="M120.556 29.2529L98.479 29.2529" stroke="black" stroke-width="1.10387"/>
<path d="M98.4791 26.4932V32.0125" stroke="black" stroke-width="1.10387"/>
<path d="M120.556 26.4932V32.0125" stroke="black" stroke-width="1.10387"/>
<rect x="294.968" y="2.20703" width="22.0773" height="23.1812" rx="4.41546" fill="#333333"/>
<path d="M303.536 8.81928V17.8103H302.443V10.086L301.052 10.9056L300.53 9.94937L302.443 8.81928H303.536ZM308.328 16.8168C309.458 16.8168 310.291 16.0468 310.291 14.9292C310.291 13.8364 309.458 13.0416 308.328 13.0416C307.211 13.0416 306.404 13.8364 306.404 14.9292C306.404 16.0468 307.198 16.8168 308.328 16.8168ZM305.311 14.9292C305.311 14.3455 305.485 13.7991 305.783 13.3396L308.366 8.80687H309.62L307.794 11.9984C307.981 11.9612 308.167 11.9487 308.353 11.9487C309.98 11.9487 311.383 13.2775 311.383 14.9292C311.383 16.6057 309.992 17.9096 308.353 17.9096C306.726 17.9096 305.311 16.6057 305.311 14.9292Z" fill="white"/>
<path d="M314.837 31.46L297.175 31.46" stroke="black" stroke-width="1.10387"/>
<path d="M297.175 28.7002V34.2195" stroke="black" stroke-width="1.10387"/>
<path d="M314.837 28.7002V34.2195" stroke="black" stroke-width="1.10387"/>
<path d="M3.53679 36.4311V49.0284H10.7892V51.0551H1.47035V36.4311H3.53679ZM13.2197 40.6434H15.2861V51.0948H13.2197V40.6434ZM13.0607 36.908C13.0607 36.2523 13.478 35.7357 14.2529 35.7357C14.9881 35.7357 15.4053 36.2523 15.4053 36.908C15.4053 37.5637 14.9881 38.0803 14.2529 38.0803C13.478 38.0803 13.0607 37.5637 13.0607 36.908ZM25.096 45.2929C25.096 43.7232 24.2019 42.7297 22.5726 42.7297C21.0426 42.7297 19.8703 44.0213 19.8902 45.4121V51.0551H17.8237V40.6832H19.8902V42.3324C20.5856 41.3389 21.4996 40.6832 22.811 40.6832C24.8377 40.6832 27.1624 42.233 27.1624 45.2134V51.0551H25.096V45.2929ZM31.4663 36.0138V45.3525L35.4998 40.7229H38.2815L34.248 45.2929L38.2418 51.0948H35.7382L32.7777 46.803L31.4663 48.3727V51.0948H29.3998V36.0138H31.4663ZM55.1166 36.4311V38.4578H50.8447V51.0551H48.7782V38.4578H44.4864V36.4311H55.1166ZM62.5258 45.0545C62.3669 43.6835 61.5324 42.5509 59.7838 42.5509C58.1744 42.5509 57.0021 43.3656 56.7637 45.0545H62.5258ZM54.7767 45.889C54.7767 43.0477 56.5451 40.6434 59.7441 40.6434C63.0425 40.6434 63.9763 43.2662 64.0558 43.4649C64.6718 45.0744 64.4929 46.803 64.4929 46.803H56.7637C57.0816 48.2932 58.1347 49.2072 59.764 49.2072C61.7708 49.2072 62.2278 48.0945 62.3073 47.9753L64.1154 48.8098C64.1154 48.8098 63.2213 51.1147 59.7441 51.1147C56.5451 51.1147 54.7767 48.7105 54.7767 45.889ZM75.5294 40.6832L71.6549 45.8691L75.4897 51.0551H72.9464L70.4428 47.5382L67.9989 51.0551H65.4158L69.2109 45.8691L65.3562 40.6832H67.9393L70.4428 44.2796L72.9663 40.6832H75.5294ZM83.0051 50.7968C82.5879 50.8961 81.7136 51.0551 81.0182 51.0154C79.4683 50.9359 77.998 49.6046 77.998 47.876V42.6105H76.2296V40.5838H77.998V37.0669H80.0644V40.5838H82.7468V42.6105H80.0644V47.876C80.0644 48.5515 80.4817 48.9291 81.1572 48.9489C81.6142 48.9688 82.1905 48.8694 82.5481 48.79L83.0051 50.7968Z" fill="#FF8120"/>
<path d="M0 53.3997H84.1774V54.3932H0V53.3997Z" fill="#FF8120"/>
<rect x="85.5519" y="33.4289" width="20.9734" height="20.9734" fill="#FF0000" fill-opacity="0.2"/>
<rect x="85.5519" y="33.4289" width="20.9734" height="20.9734" stroke="#FF0000" stroke-width="1.10387" stroke-dasharray="2.21 2.21"/>
<path fill-rule="evenodd" clip-rule="evenodd" d="M92.7911 37.9091C93.0606 37.6397 93.4974 37.6397 93.7668 37.9091L99.2861 43.4284C99.5556 43.6979 99.5556 44.1347 99.2861 44.4041L93.7668 49.9234C93.4974 50.1929 93.0606 50.1929 92.7911 49.9234C92.5217 49.654 92.5217 49.2172 92.7911 48.9478L97.8226 43.9163L92.7911 38.8848C92.5217 38.6154 92.5217 38.1785 92.7911 37.9091Z" fill="#FF8120"/>
<path d="M212.094 36.3403V47.5379H218.54V49.3395H210.257V36.3403H212.094ZM220.682 40.0846H222.519V49.3748H220.682V40.0846ZM220.541 36.7642C220.541 36.1814 220.912 35.7222 221.601 35.7222C222.254 35.7222 222.625 36.1814 222.625 36.7642C222.625 37.3471 222.254 37.8063 221.601 37.8063C220.912 37.8063 220.541 37.3471 220.541 36.7642ZM231.221 44.2175C231.221 42.8222 230.426 41.9391 228.978 41.9391C227.618 41.9391 226.576 43.0872 226.593 44.3235V49.3395H224.756V40.12H226.593V41.5859C227.211 40.7028 228.024 40.12 229.19 40.12C230.991 40.12 233.058 41.4976 233.058 44.1469V49.3395H231.221V44.2175ZM236.865 35.9694V44.2705L240.45 40.1553H242.923L239.337 44.2175L242.887 49.3748H240.662L238.03 45.5598L236.865 46.9551V49.3748H235.028V35.9694H236.865ZM257.851 36.3403V38.1418H254.053V49.3395H252.216V38.1418H248.401V36.3403H257.851ZM264.418 44.0056C264.277 42.7869 263.535 41.7802 261.981 41.7802C260.55 41.7802 259.508 42.5043 259.296 44.0056H264.418ZM257.53 44.7474C257.53 42.2217 259.102 40.0846 261.945 40.0846C264.877 40.0846 265.707 42.416 265.778 42.5926C266.326 44.0232 266.167 45.5598 266.167 45.5598H259.296C259.579 46.8845 260.515 47.6969 261.963 47.6969C263.747 47.6969 264.153 46.7078 264.224 46.6019L265.831 47.3437C265.831 47.3437 265.036 49.3924 261.945 49.3924C259.102 49.3924 257.53 47.2554 257.53 44.7474ZM275.958 40.12L272.514 44.7297L275.923 49.3395H273.662L271.437 46.2133L269.265 49.3395H266.969L270.342 44.7297L266.916 40.12H269.212L271.437 43.3168L273.68 40.12H275.958ZM282.585 49.1098C282.214 49.1982 281.437 49.3395 280.819 49.3041C279.441 49.2335 278.134 48.0501 278.134 46.5136V41.8332H276.562V40.0317H278.134V36.9055H279.971V40.0317H282.355V41.8332H279.971V46.5136C279.971 47.1141 280.342 47.4496 280.943 47.4673C281.349 47.485 281.861 47.3966 282.179 47.326L282.585 49.1098Z" fill="#FF8120"/>
<path d="M208.95 51.4236H283.627V52.3066H208.95V51.4236Z" fill="#FF8120"/>
<rect x="284.502" y="34.4367" width="16.558" height="16.558" fill="#FF0000" fill-opacity="0.2"/>
<rect x="284.502" y="34.4367" width="16.558" height="16.558" stroke="#FF0000" stroke-width="1.10387" stroke-dasharray="2.21 2.21"/>
<path fill-rule="evenodd" clip-rule="evenodd" d="M290.183 37.9107C290.398 37.6951 290.748 37.6951 290.963 37.9107L295.379 42.3261C295.594 42.5417 295.594 42.8912 295.379 43.1067L290.963 47.5222C290.748 47.7377 290.398 47.7377 290.183 47.5222C289.967 47.3066 289.967 46.9571 290.183 46.7416L294.208 42.7164L290.183 38.6912C289.967 38.4757 289.967 38.1262 290.183 37.9107Z" fill="#FF8120"/>
</svg>
