<svg width="806" height="201" viewBox="0 0 806 201" fill="none" xmlns="http://www.w3.org/2000/svg">
<path d="M4.512 31.1212C7.04 31.1212 9.152 29.0092 9.152 26.4652C9.152 23.9212 7.04 21.8092 4.512 21.8092H2.496V31.1212H4.512ZM1.344 32.2412V20.6892H4.512C7.68 20.6892 10.272 23.2812 10.272 26.4652C10.272 29.6492 7.68 32.2412 4.512 32.2412H1.344ZM17.8301 27.6012C17.7021 26.4492 17.1421 25.2172 15.4141 25.2172C13.8941 25.2172 12.9181 26.0332 12.7101 27.6172L17.8301 27.6012ZM11.5261 28.1772C11.5261 25.9372 12.8701 24.0652 15.3661 24.0652C17.9581 24.0652 18.6141 26.0812 18.6941 26.2732C19.1741 27.5852 18.9821 28.7372 18.9821 28.7372H12.7101C12.9181 30.2412 13.8941 31.1372 15.3821 31.1372C17.2221 31.1372 17.6701 30.1292 17.7821 29.9692L18.7741 30.4972C18.7741 30.4972 18.1021 32.2892 15.3661 32.2892C12.8701 32.2892 11.5261 30.4012 11.5261 28.1772ZM22.4949 32.2412H21.3429V25.2172H19.8709V24.0972H21.3429V22.5292C21.3429 21.2172 22.4149 20.1452 23.7429 20.1452C24.3509 20.1452 24.9109 20.3852 25.3269 20.7532L24.5589 21.6172C24.3029 21.3932 24.0949 21.2972 23.7429 21.2972C22.9749 21.2972 22.4949 21.7772 22.4949 22.5292V24.0972H24.8469V25.2172H22.4949V32.2412ZM29.7391 31.2012C31.1791 31.2012 32.4751 30.0332 32.4911 28.2412C32.4751 26.4652 31.1791 25.2812 29.7391 25.2812C27.9631 25.2812 27.0031 26.5612 27.0031 28.2412C27.0031 29.9212 27.9631 31.2012 29.7391 31.2012ZM25.8511 28.2412C25.8511 26.0172 27.2431 24.1452 29.7231 24.1452C30.6671 24.1452 31.7231 24.6412 32.4591 25.8252V24.0972H33.6111V32.2412H32.4591V30.6412C31.6911 31.8892 30.6831 32.3532 29.7231 32.3532C27.2431 32.3532 25.8511 30.4492 25.8511 28.2412ZM36.6259 28.8972C36.6259 30.1292 37.3939 31.1212 38.7379 31.1212C40.2579 31.1212 41.1539 29.8412 41.1539 28.7532V24.0332H42.3059V32.2412H41.1539V30.8652C40.5619 31.7452 39.9059 32.2412 38.6899 32.2412C36.8019 32.2412 35.4739 30.8012 35.4739 29.0252V24.0972H36.6259V28.8972ZM44.1646 20.3692H45.3166V32.2412H44.1646V20.3692ZM51.5217 32.0652C51.2337 32.1292 50.8017 32.2092 50.3377 32.2092C49.1217 32.2092 48.1457 31.2332 48.1457 30.0332V25.1532H46.8177V24.0332H48.1457V21.5212H49.2977V24.0332H51.2017V25.1532H49.2977V30.0332C49.2977 30.6732 49.6817 31.0572 50.3377 31.0572C50.7057 31.0572 51.0097 31.0092 51.2657 30.9452L51.5217 32.0652Z" fill="#616161"/>
<path d="M89.9502 12.2412C89.9502 5.61379 95.3228 0.241211 101.95 0.241211H297.95C304.578 0.241211 309.95 5.61379 309.95 12.2412V40.2412C309.95 46.8686 304.578 52.2412 297.95 52.2412H101.95C95.3228 52.2412 89.9502 46.8686 89.9502 40.2412V12.2412Z" fill="white"/>
<path fill-rule="evenodd" clip-rule="evenodd" d="M122.657 19.5341C123.048 19.9246 123.048 20.5578 122.657 20.9483L111.657 31.9483C111.267 32.3388 110.634 32.3388 110.243 31.9483L105.243 26.9483C104.853 26.5578 104.853 25.9246 105.243 25.5341C105.634 25.1436 106.267 25.1436 106.657 25.5341L110.95 29.827L121.243 19.5341C121.634 19.1436 122.267 19.1436 122.657 19.5341Z" fill="#BDBDBD"/>
<path d="M136.414 20.6892V31.1212H142.398V32.2412H135.262V20.6892H136.414ZM147.036 31.2012C148.476 31.2012 149.772 30.0332 149.788 28.2412C149.772 26.4652 148.476 25.2812 147.036 25.2812C145.26 25.2812 144.3 26.5612 144.3 28.2412C144.3 29.9212 145.26 31.2012 147.036 31.2012ZM143.148 28.2412C143.148 26.0172 144.54 24.1452 147.02 24.1452C147.964 24.1452 149.02 24.6412 149.756 25.8252V24.0972H150.908V32.2412H149.756V30.6412C148.988 31.8892 147.98 32.3532 147.02 32.3532C144.54 32.3532 143.148 30.4492 143.148 28.2412ZM156.847 31.2332C158.655 31.2332 159.631 29.9372 159.631 28.2252C159.631 26.5292 158.655 25.2172 156.847 25.2172C155.359 25.2172 154.095 26.5292 154.095 28.2252C154.095 29.9372 155.359 31.2332 156.847 31.2332ZM152.943 32.2412V20.3692H154.095V25.8092C154.847 24.4972 155.967 24.0972 156.879 24.0972C159.391 24.0972 160.783 26.0012 160.783 28.2252C160.783 30.4652 159.375 32.3692 156.863 32.3692C155.967 32.3692 154.847 31.9852 154.095 30.6412V32.2412H152.943ZM168.324 27.6012C168.196 26.4492 167.636 25.2172 165.908 25.2172C164.388 25.2172 163.412 26.0332 163.204 27.6172L168.324 27.6012ZM162.02 28.1772C162.02 25.9372 163.364 24.0652 165.86 24.0652C168.452 24.0652 169.108 26.0812 169.188 26.2732C169.668 27.5852 169.476 28.7372 169.476 28.7372H163.204C163.412 30.2412 164.388 31.1372 165.876 31.1372C167.716 31.1372 168.164 30.1292 168.276 29.9692L169.268 30.4972C169.268 30.4972 168.596 32.2892 165.86 32.2892C163.364 32.2892 162.02 30.4012 162.02 28.1772ZM170.937 20.3692H172.089V32.2412H170.937V20.3692Z" fill="#333333"/>
<path d="M337.9 8.24121C337.9 3.82293 341.482 0.241211 345.9 0.241211H549.9C554.318 0.241211 557.9 3.82293 557.9 8.24121V44.2412C557.9 48.6595 554.318 52.2412 549.9 52.2412H345.9C341.482 52.2412 337.9 48.6595 337.9 44.2412V8.24121Z" fill="white"/>
<mask id="path-6-inside-1_1099_71532" fill="white">
<path d="M349.9 20.2412C349.9 18.0321 351.691 16.2412 353.9 16.2412H365.9C368.109 16.2412 369.9 18.0321 369.9 20.2412V32.2412C369.9 34.4503 368.109 36.2412 365.9 36.2412H353.9C351.691 36.2412 349.9 34.4503 349.9 32.2412V20.2412Z"/>
</mask>
<path d="M349.9 20.2412C349.9 18.0321 351.691 16.2412 353.9 16.2412H365.9C368.109 16.2412 369.9 18.0321 369.9 20.2412V32.2412C369.9 34.4503 368.109 36.2412 365.9 36.2412H353.9C351.691 36.2412 349.9 34.4503 349.9 32.2412V20.2412Z" fill="white"/>
<path d="M353.9 16.2412V17.2412H365.9V16.2412V15.2412H353.9V16.2412ZM369.9 20.2412H368.9V32.2412H369.9H370.9V20.2412H369.9ZM365.9 36.2412V35.2412H353.9V36.2412V37.2412H365.9V36.2412ZM349.9 32.2412H350.9V20.2412H349.9H348.9V32.2412H349.9ZM353.9 36.2412V35.2412C352.243 35.2412 350.9 33.8981 350.9 32.2412H349.9H348.9C348.9 35.0026 351.138 37.2412 353.9 37.2412V36.2412ZM369.9 32.2412H368.9C368.9 33.8981 367.557 35.2412 365.9 35.2412V36.2412V37.2412C368.661 37.2412 370.9 35.0026 370.9 32.2412H369.9ZM365.9 16.2412V17.2412C367.557 17.2412 368.9 18.5844 368.9 20.2412H369.9H370.9C370.9 17.4798 368.661 15.2412 365.9 15.2412V16.2412ZM353.9 16.2412V15.2412C351.138 15.2412 348.9 17.4798 348.9 20.2412H349.9H350.9C350.9 18.5844 352.243 17.2412 353.9 17.2412V16.2412Z" fill="#E0E0E0" mask="url(#path-6-inside-1_1099_71532)"/>
<path d="M380.364 20.6892V31.1212H386.348V32.2412H379.212V20.6892H380.364ZM390.986 31.2012C392.426 31.2012 393.722 30.0332 393.738 28.2412C393.722 26.4652 392.426 25.2812 390.986 25.2812C389.21 25.2812 388.25 26.5612 388.25 28.2412C388.25 29.9212 389.21 31.2012 390.986 31.2012ZM387.098 28.2412C387.098 26.0172 388.49 24.1452 390.97 24.1452C391.914 24.1452 392.97 24.6412 393.706 25.8252V24.0972H394.858V32.2412H393.706V30.6412C392.938 31.8892 391.93 32.3532 390.97 32.3532C388.49 32.3532 387.098 30.4492 387.098 28.2412ZM400.797 31.2332C402.605 31.2332 403.581 29.9372 403.581 28.2252C403.581 26.5292 402.605 25.2172 400.797 25.2172C399.309 25.2172 398.045 26.5292 398.045 28.2252C398.045 29.9372 399.309 31.2332 400.797 31.2332ZM396.893 32.2412V20.3692H398.045V25.8092C398.797 24.4972 399.917 24.0972 400.829 24.0972C403.341 24.0972 404.733 26.0012 404.733 28.2252C404.733 30.4652 403.325 32.3692 400.813 32.3692C399.917 32.3692 398.797 31.9852 398.045 30.6412V32.2412H396.893ZM412.274 27.6012C412.146 26.4492 411.586 25.2172 409.858 25.2172C408.338 25.2172 407.362 26.0332 407.154 27.6172L412.274 27.6012ZM405.97 28.1772C405.97 25.9372 407.314 24.0652 409.81 24.0652C412.402 24.0652 413.058 26.0812 413.138 26.2732C413.618 27.5852 413.426 28.7372 413.426 28.7372H407.154C407.362 30.2412 408.338 31.1372 409.826 31.1372C411.666 31.1372 412.114 30.1292 412.226 29.9692L413.218 30.4972C413.218 30.4972 412.546 32.2892 409.81 32.2892C407.314 32.2892 405.97 30.4012 405.97 28.1772ZM414.886 20.3692H416.038V32.2412H414.886V20.3692Z" fill="#333333"/>
<path d="M585.85 8.24121C585.85 3.82293 589.432 0.241211 593.85 0.241211H797.85C802.268 0.241211 805.85 3.82293 805.85 8.24121V44.2412C805.85 48.6595 802.268 52.2412 797.85 52.2412H593.85C589.432 52.2412 585.85 48.6595 585.85 44.2412V8.24121Z" fill="white"/>
<mask id="path-10-inside-2_1099_71532" fill="white">
<path d="M597.85 26.2412C597.85 20.7184 602.327 16.2412 607.85 16.2412C613.373 16.2412 617.85 20.7184 617.85 26.2412C617.85 31.7641 613.373 36.2412 607.85 36.2412C602.327 36.2412 597.85 31.7641 597.85 26.2412Z"/>
</mask>
<path d="M597.85 26.2412C597.85 20.7184 602.327 16.2412 607.85 16.2412C613.373 16.2412 617.85 20.7184 617.85 26.2412C617.85 31.7641 613.373 36.2412 607.85 36.2412C602.327 36.2412 597.85 31.7641 597.85 26.2412Z" fill="white"/>
<path d="M607.85 36.2412V35.2412C602.88 35.2412 598.85 31.2118 598.85 26.2412H597.85H596.85C596.85 32.3163 601.775 37.2412 607.85 37.2412V36.2412ZM617.85 26.2412H616.85C616.85 31.2118 612.821 35.2412 607.85 35.2412V36.2412V37.2412C613.925 37.2412 618.85 32.3163 618.85 26.2412H617.85ZM607.85 16.2412V17.2412C612.821 17.2412 616.85 21.2706 616.85 26.2412H617.85H618.85C618.85 20.1661 613.925 15.2412 607.85 15.2412V16.2412ZM607.85 16.2412V15.2412C601.775 15.2412 596.85 20.1661 596.85 26.2412H597.85H598.85C598.85 21.2706 602.88 17.2412 607.85 17.2412V16.2412Z" fill="#E0E0E0" mask="url(#path-10-inside-2_1099_71532)"/>
<path d="M628.314 20.6892V31.1212H634.298V32.2412H627.162V20.6892H628.314ZM638.936 31.2012C640.376 31.2012 641.672 30.0332 641.688 28.2412C641.672 26.4652 640.376 25.2812 638.936 25.2812C637.16 25.2812 636.2 26.5612 636.2 28.2412C636.2 29.9212 637.16 31.2012 638.936 31.2012ZM635.048 28.2412C635.048 26.0172 636.44 24.1452 638.92 24.1452C639.864 24.1452 640.92 24.6412 641.656 25.8252V24.0972H642.808V32.2412H641.656V30.6412C640.888 31.8892 639.88 32.3532 638.92 32.3532C636.44 32.3532 635.048 30.4492 635.048 28.2412ZM648.747 31.2332C650.555 31.2332 651.531 29.9372 651.531 28.2252C651.531 26.5292 650.555 25.2172 648.747 25.2172C647.259 25.2172 645.995 26.5292 645.995 28.2252C645.995 29.9372 647.259 31.2332 648.747 31.2332ZM644.843 32.2412V20.3692H645.995V25.8092C646.747 24.4972 647.867 24.0972 648.779 24.0972C651.291 24.0972 652.683 26.0012 652.683 28.2252C652.683 30.4652 651.275 32.3692 648.763 32.3692C647.867 32.3692 646.747 31.9852 645.995 30.6412V32.2412H644.843ZM660.224 27.6012C660.096 26.4492 659.536 25.2172 657.808 25.2172C656.288 25.2172 655.312 26.0332 655.104 27.6172L660.224 27.6012ZM653.92 28.1772C653.92 25.9372 655.264 24.0652 657.76 24.0652C660.352 24.0652 661.008 26.0812 661.088 26.2732C661.568 27.5852 661.376 28.7372 661.376 28.7372H655.104C655.312 30.2412 656.288 31.1372 657.776 31.1372C659.616 31.1372 660.064 30.1292 660.176 29.9692L661.168 30.4972C661.168 30.4972 660.496 32.2892 657.76 32.2892C655.264 32.2892 653.92 30.4012 653.92 28.1772ZM662.837 20.3692H663.989V32.2412H662.837V20.3692Z" fill="#333333"/>
<path d="M2.272 103.486C2.8 104.654 3.904 105.342 5.376 105.31C7.872 105.23 8.544 102.03 6.16 101.39C5.392 101.102 4.128 100.75 3.024 99.9984C1.424 98.8944 1.44 97.2784 1.92 96.2544C2.56 94.9104 4.272 94.5264 5.232 94.6064C6.176 94.6704 7.456 95.0544 8.24 96.1904L7.28 96.8304C6.752 96.0784 5.936 95.8224 5.136 95.7584C4.416 95.7264 3.376 95.9504 2.976 96.7344C2.656 97.4704 2.656 98.3184 3.664 99.0384C4.608 99.6944 5.744 100.014 6.544 100.302C10.16 101.406 9.136 106.35 5.408 106.462C3.568 106.526 1.888 105.55 1.216 103.934L2.272 103.486ZM16.5801 101.678C16.4521 100.526 15.8921 99.2944 14.1641 99.2944C12.6441 99.2944 11.6681 100.11 11.4601 101.694L16.5801 101.678ZM10.2761 102.254C10.2761 100.014 11.6201 98.1424 14.1161 98.1424C16.7081 98.1424 17.3641 100.158 17.4441 100.35C17.9241 101.662 17.7321 102.814 17.7321 102.814H11.4601C11.6681 104.318 12.6441 105.214 14.1321 105.214C15.9721 105.214 16.4201 104.206 16.5321 104.046L17.5241 104.574C17.5241 104.574 16.8521 106.366 14.1161 106.366C11.6201 106.366 10.2761 104.478 10.2761 102.254ZM19.1928 94.4464H20.3448V106.318H19.1928V94.4464ZM28.0614 101.678C27.9334 100.526 27.3734 99.2944 25.6454 99.2944C24.1254 99.2944 23.1494 100.11 22.9414 101.694L28.0614 101.678ZM21.7574 102.254C21.7574 100.014 23.1014 98.1424 25.5974 98.1424C28.1894 98.1424 28.8454 100.158 28.9254 100.35C29.4054 101.662 29.2134 102.814 29.2134 102.814H22.9414C23.1494 104.318 24.1254 105.214 25.6134 105.214C27.4534 105.214 27.9014 104.206 28.0134 104.046L29.0054 104.574C29.0054 104.574 28.3334 106.366 25.5974 106.366C23.1014 106.366 21.7574 104.478 21.7574 102.254ZM34.242 105.246C35.074 105.246 35.842 104.926 36.386 104.382L37.25 105.15C36.482 105.918 35.458 106.398 34.306 106.398C31.682 106.398 30.162 104.462 30.162 102.11C30.162 99.7744 31.682 97.8384 34.306 97.8384C35.458 97.8384 36.482 98.3184 37.25 99.0864L36.386 99.8544C35.842 99.3104 35.074 98.9904 34.242 98.9904C32.354 98.9904 31.314 100.382 31.314 102.11C31.314 103.854 32.354 105.246 34.242 105.246ZM42.7186 106.142C42.4306 106.206 41.9986 106.286 41.5346 106.286C40.3186 106.286 39.3426 105.31 39.3426 104.11V99.2304H38.0146V98.1104H39.3426V95.5984H40.4946V98.1104H42.3986V99.2304H40.4946V104.11C40.4946 104.75 40.8786 105.134 41.5346 105.134C41.9026 105.134 42.2066 105.086 42.4626 105.022L42.7186 106.142ZM49.9707 101.678C49.8427 100.526 49.2827 99.2944 47.5547 99.2944C46.0347 99.2944 45.0587 100.11 44.8507 101.694L49.9707 101.678ZM43.6667 102.254C43.6667 100.014 45.0107 98.1424 47.5067 98.1424C50.0987 98.1424 50.7547 100.158 50.8347 100.35C51.3147 101.662 51.1227 102.814 51.1227 102.814H44.8507C45.0587 104.318 46.0347 105.214 47.5227 105.214C49.3627 105.214 49.8107 104.206 49.9227 104.046L50.9147 104.574C50.9147 104.574 50.2427 106.366 47.5067 106.366C45.0107 106.366 43.6667 104.478 43.6667 102.254ZM56.2954 106.446C53.8154 106.446 52.4074 104.542 52.4074 102.302C52.4074 100.078 53.8154 98.1584 56.2954 98.1584C57.3354 98.1584 58.4234 98.6864 59.0954 99.9024V94.4464H60.2474V106.318H59.0954V104.702C58.4074 105.918 57.3354 106.446 56.2954 106.446ZM53.5594 102.302C53.5594 104.014 54.5354 105.294 56.3434 105.294C57.8154 105.294 59.0954 104.014 59.0954 102.302C59.0954 100.606 57.8154 99.3104 56.3434 99.3104C54.5354 99.3104 53.5594 100.606 53.5594 102.302Z" fill="#616161"/>
<path d="M89.9502 82.3184C89.9502 77.9001 93.5319 74.3184 97.9502 74.3184H301.95C306.368 74.3184 309.95 77.9001 309.95 82.3184V118.318C309.95 122.737 306.368 126.318 301.95 126.318H97.9502C93.5319 126.318 89.9502 122.737 89.9502 118.318V82.3184Z" fill="#FFF5E6"/>
<path fill-rule="evenodd" clip-rule="evenodd" d="M122.657 93.6113C123.048 94.0018 123.048 94.6349 122.657 95.0255L111.657 106.025C111.267 106.416 110.634 106.416 110.243 106.025L105.243 101.025C104.853 100.635 104.853 100.002 105.243 99.6113C105.634 99.2207 106.267 99.2207 106.657 99.6113L110.95 103.904L121.243 93.6113C121.634 93.2207 122.267 93.2207 122.657 93.6113Z" fill="#EE6002"/>
<path d="M136.414 94.7664V105.198H142.398V106.318H135.262V94.7664H136.414ZM147.036 105.278C148.476 105.278 149.772 104.11 149.788 102.318C149.772 100.542 148.476 99.3584 147.036 99.3584C145.26 99.3584 144.3 100.638 144.3 102.318C144.3 103.998 145.26 105.278 147.036 105.278ZM143.148 102.318C143.148 100.094 144.54 98.2224 147.02 98.2224C147.964 98.2224 149.02 98.7184 149.756 99.9024V98.1744H150.908V106.318H149.756V104.718C148.988 105.966 147.98 106.43 147.02 106.43C144.54 106.43 143.148 104.526 143.148 102.318ZM156.847 105.31C158.655 105.31 159.631 104.014 159.631 102.302C159.631 100.606 158.655 99.2944 156.847 99.2944C155.359 99.2944 154.095 100.606 154.095 102.302C154.095 104.014 155.359 105.31 156.847 105.31ZM152.943 106.318V94.4464H154.095V99.8864C154.847 98.5744 155.967 98.1744 156.879 98.1744C159.391 98.1744 160.783 100.078 160.783 102.302C160.783 104.542 159.375 106.446 156.863 106.446C155.967 106.446 154.847 106.062 154.095 104.718V106.318H152.943ZM168.324 101.678C168.196 100.526 167.636 99.2944 165.908 99.2944C164.388 99.2944 163.412 100.11 163.204 101.694L168.324 101.678ZM162.02 102.254C162.02 100.014 163.364 98.1424 165.86 98.1424C168.452 98.1424 169.108 100.158 169.188 100.35C169.668 101.662 169.476 102.814 169.476 102.814H163.204C163.412 104.318 164.388 105.214 165.876 105.214C167.716 105.214 168.164 104.206 168.276 104.046L169.268 104.574C169.268 104.574 168.596 106.366 165.86 106.366C163.364 106.366 162.02 104.478 162.02 102.254ZM170.937 94.4464H172.089V106.318H170.937V94.4464Z" fill="#333333"/>
<mask id="path-17-inside-3_1099_71532" fill="white">
<path d="M337.9 82.3184C337.9 77.9001 341.482 74.3184 345.9 74.3184H549.9C554.318 74.3184 557.9 77.9001 557.9 82.3184V118.318C557.9 122.737 554.318 126.318 549.9 126.318H345.9C341.482 126.318 337.9 122.737 337.9 118.318V82.3184Z"/>
</mask>
<path d="M337.9 82.3184C337.9 77.9001 341.482 74.3184 345.9 74.3184H549.9C554.318 74.3184 557.9 77.9001 557.9 82.3184V118.318C557.9 122.737 554.318 126.318 549.9 126.318H345.9C341.482 126.318 337.9 122.737 337.9 118.318V82.3184Z" fill="#FFF5E6"/>
<path d="M345.9 74.3184V76.3184H549.9V74.3184V72.3184H345.9V74.3184ZM557.9 82.3184H555.9V118.318H557.9H559.9V82.3184H557.9ZM549.9 126.318V124.318H345.9V126.318V128.318H549.9V126.318ZM337.9 118.318H339.9V82.3184H337.9H335.9V118.318H337.9ZM345.9 126.318V124.318C342.586 124.318 339.9 121.632 339.9 118.318H337.9H335.9C335.9 123.841 340.377 128.318 345.9 128.318V126.318ZM557.9 118.318H555.9C555.9 121.632 553.214 124.318 549.9 124.318V126.318V128.318C555.423 128.318 559.9 123.841 559.9 118.318H557.9ZM549.9 74.3184V76.3184C553.214 76.3184 555.9 79.0047 555.9 82.3184H557.9H559.9C559.9 76.7955 555.423 72.3184 549.9 72.3184V74.3184ZM345.9 74.3184V72.3184C340.377 72.3184 335.9 76.7955 335.9 82.3184H337.9H339.9C339.9 79.0047 342.586 76.3184 345.9 76.3184V74.3184Z" fill="#EE6002" mask="url(#path-17-inside-3_1099_71532)"/>
<path d="M349.9 94.3184C349.9 92.1092 351.691 90.3184 353.9 90.3184H365.9C368.109 90.3184 369.9 92.1092 369.9 94.3184V106.318C369.9 108.527 368.109 110.318 365.9 110.318H353.9C351.691 110.318 349.9 108.527 349.9 106.318V94.3184Z" fill="#FF8120"/>
<path fill-rule="evenodd" clip-rule="evenodd" d="M365.357 96.3613C365.748 96.7518 365.748 97.3849 365.357 97.7755L358.857 104.275C358.466 104.666 357.833 104.666 357.443 104.275L354.443 101.275C354.052 100.885 354.052 100.252 354.443 99.8613C354.833 99.4707 355.466 99.4707 355.857 99.8613L358.15 102.154L363.943 96.3613C364.333 95.9707 364.966 95.9707 365.357 96.3613Z" fill="white"/>
<path d="M380.364 94.7664V105.198H386.348V106.318H379.212V94.7664H380.364ZM390.986 105.278C392.426 105.278 393.722 104.11 393.738 102.318C393.722 100.542 392.426 99.3584 390.986 99.3584C389.21 99.3584 388.25 100.638 388.25 102.318C388.25 103.998 389.21 105.278 390.986 105.278ZM387.098 102.318C387.098 100.094 388.49 98.2224 390.97 98.2224C391.914 98.2224 392.97 98.7184 393.706 99.9024V98.1744H394.858V106.318H393.706V104.718C392.938 105.966 391.93 106.43 390.97 106.43C388.49 106.43 387.098 104.526 387.098 102.318ZM400.797 105.31C402.605 105.31 403.581 104.014 403.581 102.302C403.581 100.606 402.605 99.2944 400.797 99.2944C399.309 99.2944 398.045 100.606 398.045 102.302C398.045 104.014 399.309 105.31 400.797 105.31ZM396.893 106.318V94.4464H398.045V99.8864C398.797 98.5744 399.917 98.1744 400.829 98.1744C403.341 98.1744 404.733 100.078 404.733 102.302C404.733 104.542 403.325 106.446 400.813 106.446C399.917 106.446 398.797 106.062 398.045 104.718V106.318H396.893ZM412.274 101.678C412.146 100.526 411.586 99.2944 409.858 99.2944C408.338 99.2944 407.362 100.11 407.154 101.694L412.274 101.678ZM405.97 102.254C405.97 100.014 407.314 98.1424 409.81 98.1424C412.402 98.1424 413.058 100.158 413.138 100.35C413.618 101.662 413.426 102.814 413.426 102.814H407.154C407.362 104.318 408.338 105.214 409.826 105.214C411.666 105.214 412.114 104.206 412.226 104.046L413.218 104.574C413.218 104.574 412.546 106.366 409.81 106.366C407.314 106.366 405.97 104.478 405.97 102.254ZM414.886 94.4464H416.038V106.318H414.886V94.4464Z" fill="#333333"/>
<mask id="path-22-inside-4_1099_71532" fill="white">
<path d="M585.85 82.3184C585.85 77.9001 589.432 74.3184 593.85 74.3184H797.85C802.268 74.3184 805.85 77.9001 805.85 82.3184V118.318C805.85 122.737 802.268 126.318 797.85 126.318H593.85C589.432 126.318 585.85 122.737 585.85 118.318V82.3184Z"/>
</mask>
<path d="M585.85 82.3184C585.85 77.9001 589.432 74.3184 593.85 74.3184H797.85C802.268 74.3184 805.85 77.9001 805.85 82.3184V118.318C805.85 122.737 802.268 126.318 797.85 126.318H593.85C589.432 126.318 585.85 122.737 585.85 118.318V82.3184Z" fill="#FFF5E6"/>
<path d="M593.85 74.3184V76.3184H797.85V74.3184V72.3184H593.85V74.3184ZM805.85 82.3184H803.85V118.318H805.85H807.85V82.3184H805.85ZM797.85 126.318V124.318H593.85V126.318V128.318H797.85V126.318ZM585.85 118.318H587.85V82.3184H585.85H583.85V118.318H585.85ZM593.85 126.318V124.318C590.536 124.318 587.85 121.632 587.85 118.318H585.85H583.85C583.85 123.841 588.327 128.318 593.85 128.318V126.318ZM805.85 118.318H803.85C803.85 121.632 801.164 124.318 797.85 124.318V126.318V128.318C803.373 128.318 807.85 123.841 807.85 118.318H805.85ZM797.85 74.3184V76.3184C801.164 76.3184 803.85 79.0047 803.85 82.3184H805.85H807.85C807.85 76.7955 803.373 72.3184 797.85 72.3184V74.3184ZM593.85 74.3184V72.3184C588.327 72.3184 583.85 76.7955 583.85 82.3184H585.85H587.85C587.85 79.0047 590.536 76.3184 593.85 76.3184V74.3184Z" fill="#EE6002" mask="url(#path-22-inside-4_1099_71532)"/>
<path d="M597.85 100.318C597.85 94.7955 602.327 90.3184 607.85 90.3184C613.373 90.3184 617.85 94.7955 617.85 100.318C617.85 105.841 613.373 110.318 607.85 110.318C602.327 110.318 597.85 105.841 597.85 100.318Z" fill="#FF8120"/>
<path fill-rule="evenodd" clip-rule="evenodd" d="M613.307 96.3613C613.698 96.7518 613.698 97.3849 613.307 97.7755L606.807 104.275C606.417 104.666 605.784 104.666 605.393 104.275L602.393 101.275C602.002 100.885 602.002 100.252 602.393 99.8613C602.784 99.4707 603.417 99.4707 603.807 99.8613L606.1 102.154L611.893 96.3613C612.284 95.9707 612.917 95.9707 613.307 96.3613Z" fill="white"/>
<path d="M628.314 94.7664V105.198H634.298V106.318H627.162V94.7664H628.314ZM638.936 105.278C640.376 105.278 641.672 104.11 641.688 102.318C641.672 100.542 640.376 99.3584 638.936 99.3584C637.16 99.3584 636.2 100.638 636.2 102.318C636.2 103.998 637.16 105.278 638.936 105.278ZM635.048 102.318C635.048 100.094 636.44 98.2224 638.92 98.2224C639.864 98.2224 640.92 98.7184 641.656 99.9024V98.1744H642.808V106.318H641.656V104.718C640.888 105.966 639.88 106.43 638.92 106.43C636.44 106.43 635.048 104.526 635.048 102.318ZM648.747 105.31C650.555 105.31 651.531 104.014 651.531 102.302C651.531 100.606 650.555 99.2944 648.747 99.2944C647.259 99.2944 645.995 100.606 645.995 102.302C645.995 104.014 647.259 105.31 648.747 105.31ZM644.843 106.318V94.4464H645.995V99.8864C646.747 98.5744 647.867 98.1744 648.779 98.1744C651.291 98.1744 652.683 100.078 652.683 102.302C652.683 104.542 651.275 106.446 648.763 106.446C647.867 106.446 646.747 106.062 645.995 104.718V106.318H644.843ZM660.224 101.678C660.096 100.526 659.536 99.2944 657.808 99.2944C656.288 99.2944 655.312 100.11 655.104 101.694L660.224 101.678ZM653.92 102.254C653.92 100.014 655.264 98.1424 657.76 98.1424C660.352 98.1424 661.008 100.158 661.088 100.35C661.568 101.662 661.376 102.814 661.376 102.814H655.104C655.312 104.318 656.288 105.214 657.776 105.214C659.616 105.214 660.064 104.206 660.176 104.046L661.168 104.574C661.168 104.574 660.496 106.366 657.76 106.366C655.264 106.366 653.92 104.478 653.92 102.254ZM662.837 94.4464H663.989V106.318H662.837V94.4464Z" fill="#333333"/>
<path d="M4.512 179.276C7.04 179.276 9.152 177.164 9.152 174.62C9.152 172.076 7.04 169.964 4.512 169.964H2.496V179.276H4.512ZM1.344 180.396V168.844H4.512C7.68 168.844 10.272 171.436 10.272 174.62C10.272 177.804 7.68 180.396 4.512 180.396H1.344ZM12.5661 178.188C12.8861 178.924 13.6381 179.356 14.6141 179.308C16.0221 179.276 16.5821 177.532 15.1421 177.068C14.6141 176.908 13.6541 176.652 12.8701 176.14C11.6541 175.324 11.6701 174.124 12.0381 173.388C12.5341 172.412 13.7981 172.124 14.5341 172.188C15.2221 172.268 16.1821 172.508 16.7901 173.324L15.8621 173.996C15.5261 173.532 14.9821 173.388 14.4381 173.324C13.9421 173.276 13.2861 173.452 13.0461 173.9C12.8381 174.332 12.8541 174.764 13.5101 175.196C14.1341 175.612 14.9341 175.804 15.4941 175.996C18.1821 176.86 17.3181 180.38 14.6461 180.444C13.3021 180.508 12.0221 179.804 11.5261 178.636L12.5661 178.188ZM18.7129 172.252H19.8649V180.396H18.7129V172.252ZM18.5529 169.292C18.5529 168.892 18.8089 168.572 19.2889 168.572C19.7529 168.572 20.0089 168.892 20.0089 169.292C20.0089 169.708 19.7529 170.028 19.2889 170.028C18.8089 170.028 18.5529 169.708 18.5529 169.292ZM25.536 179.356C26.976 179.356 28.272 178.188 28.288 176.396C28.272 174.62 26.976 173.436 25.536 173.436C23.76 173.436 22.8 174.716 22.8 176.396C22.8 178.076 23.76 179.356 25.536 179.356ZM21.648 176.396C21.648 174.172 23.04 172.3 25.52 172.3C26.464 172.3 27.52 172.796 28.256 173.98V172.252H29.408V180.396H28.256V178.796C27.488 180.044 26.48 180.508 25.52 180.508C23.04 180.508 21.648 178.604 21.648 176.396ZM35.347 179.388C37.155 179.388 38.131 178.092 38.131 176.38C38.131 174.684 37.155 173.372 35.347 173.372C33.859 173.372 32.595 174.684 32.595 176.38C32.595 178.092 33.859 179.388 35.347 179.388ZM31.443 180.396V168.524H32.595V173.964C33.347 172.652 34.467 172.252 35.379 172.252C37.891 172.252 39.283 174.156 39.283 176.38C39.283 178.62 37.875 180.524 35.363 180.524C34.467 180.524 33.347 180.14 32.595 178.796V180.396H31.443ZM40.6959 168.524H41.8479V180.396H40.6959V168.524ZM49.5645 175.756C49.4365 174.604 48.8765 173.372 47.1485 173.372C45.6285 173.372 44.6525 174.188 44.4445 175.772L49.5645 175.756ZM43.2605 176.332C43.2605 174.092 44.6045 172.22 47.1005 172.22C49.6925 172.22 50.3485 174.236 50.4285 174.428C50.9085 175.74 50.7165 176.892 50.7165 176.892H44.4445C44.6525 178.396 45.6285 179.292 47.1165 179.292C48.9565 179.292 49.4045 178.284 49.5165 178.124L50.5085 178.652C50.5085 178.652 49.8365 180.444 47.1005 180.444C44.6045 180.444 43.2605 178.556 43.2605 176.332ZM55.8891 180.524C53.4091 180.524 52.0011 178.62 52.0011 176.38C52.0011 174.156 53.4091 172.236 55.8891 172.236C56.9291 172.236 58.0171 172.764 58.6891 173.98V168.524H59.8411V180.396H58.6891V178.78C58.0011 179.996 56.9291 180.524 55.8891 180.524ZM53.1531 176.38C53.1531 178.092 54.1291 179.372 55.9371 179.372C57.4091 179.372 58.6891 178.092 58.6891 176.38C58.6891 174.684 57.4091 173.388 55.9371 173.388C54.1291 173.388 53.1531 174.684 53.1531 176.38Z" fill="#616161"/>
<path d="M89.9502 156.396C89.9502 151.977 93.5319 148.396 97.9502 148.396H301.95C306.368 148.396 309.95 151.977 309.95 156.396V192.396C309.95 196.814 306.368 200.396 301.95 200.396H97.9502C93.5319 200.396 89.9502 196.814 89.9502 192.396V156.396Z" fill="#EEEEEE"/>
<path fill-rule="evenodd" clip-rule="evenodd" d="M122.657 167.688C123.048 168.079 123.048 168.712 122.657 169.103L111.657 180.103C111.267 180.493 110.634 180.493 110.243 180.103L105.243 175.103C104.853 174.712 104.853 174.079 105.243 173.688C105.634 173.298 106.267 173.298 106.657 173.688L110.95 177.981L121.243 167.688C121.634 167.298 122.267 167.298 122.657 167.688Z" fill="#BDBDBD"/>
<path d="M136.414 168.844V179.276H142.398V180.396H135.262V168.844H136.414ZM147.036 179.356C148.476 179.356 149.772 178.188 149.788 176.396C149.772 174.62 148.476 173.436 147.036 173.436C145.26 173.436 144.3 174.716 144.3 176.396C144.3 178.076 145.26 179.356 147.036 179.356ZM143.148 176.396C143.148 174.172 144.54 172.3 147.02 172.3C147.964 172.3 149.02 172.796 149.756 173.98V172.252H150.908V180.396H149.756V178.796C148.988 180.044 147.98 180.508 147.02 180.508C144.54 180.508 143.148 178.604 143.148 176.396ZM156.847 179.388C158.655 179.388 159.631 178.092 159.631 176.38C159.631 174.684 158.655 173.372 156.847 173.372C155.359 173.372 154.095 174.684 154.095 176.38C154.095 178.092 155.359 179.388 156.847 179.388ZM152.943 180.396V168.524H154.095V173.964C154.847 172.652 155.967 172.252 156.879 172.252C159.391 172.252 160.783 174.156 160.783 176.38C160.783 178.62 159.375 180.524 156.863 180.524C155.967 180.524 154.847 180.14 154.095 178.796V180.396H152.943ZM168.324 175.756C168.196 174.604 167.636 173.372 165.908 173.372C164.388 173.372 163.412 174.188 163.204 175.772L168.324 175.756ZM162.02 176.332C162.02 174.092 163.364 172.22 165.86 172.22C168.452 172.22 169.108 174.236 169.188 174.428C169.668 175.74 169.476 176.892 169.476 176.892H163.204C163.412 178.396 164.388 179.292 165.876 179.292C167.716 179.292 168.164 178.284 168.276 178.124L169.268 178.652C169.268 178.652 168.596 180.444 165.86 180.444C163.364 180.444 162.02 178.556 162.02 176.332ZM170.937 168.524H172.089V180.396H170.937V168.524Z" fill="#BDBDBD"/>
<mask id="path-31-inside-5_1099_71532" fill="white">
<path d="M337.9 156.396C337.9 151.977 341.482 148.396 345.9 148.396H549.9C554.318 148.396 557.9 151.977 557.9 156.396V192.396C557.9 196.814 554.318 200.396 549.9 200.396H345.9C341.482 200.396 337.9 196.814 337.9 192.396V156.396Z"/>
</mask>
<path d="M337.9 156.396C337.9 151.977 341.482 148.396 345.9 148.396H549.9C554.318 148.396 557.9 151.977 557.9 156.396V192.396C557.9 196.814 554.318 200.396 549.9 200.396H345.9C341.482 200.396 337.9 196.814 337.9 192.396V156.396Z" fill="#EEEEEE"/>
<path d="M345.9 148.396V149.396H549.9V148.396V147.396H345.9V148.396ZM557.9 156.396H556.9V192.396H557.9H558.9V156.396H557.9ZM549.9 200.396V199.396H345.9V200.396V201.396H549.9V200.396ZM337.9 192.396H338.9V156.396H337.9H336.9V192.396H337.9ZM345.9 200.396V199.396C342.034 199.396 338.9 196.262 338.9 192.396H337.9H336.9C336.9 197.366 340.929 201.396 345.9 201.396V200.396ZM557.9 192.396H556.9C556.9 196.262 553.766 199.396 549.9 199.396V200.396V201.396C554.87 201.396 558.9 197.366 558.9 192.396H557.9ZM549.9 148.396V149.396C553.766 149.396 556.9 152.53 556.9 156.396H557.9H558.9C558.9 151.425 554.87 147.396 549.9 147.396V148.396ZM345.9 148.396V147.396C340.929 147.396 336.9 151.425 336.9 156.396H337.9H338.9C338.9 152.53 342.034 149.396 345.9 149.396V148.396Z" fill="#BDBDBD" mask="url(#path-31-inside-5_1099_71532)"/>
<mask id="path-33-inside-6_1099_71532" fill="white">
<path d="M349.9 168.396C349.9 166.186 351.691 164.396 353.9 164.396H365.9C368.109 164.396 369.9 166.186 369.9 168.396V180.396C369.9 182.605 368.109 184.396 365.9 184.396H353.9C351.691 184.396 349.9 182.605 349.9 180.396V168.396Z"/>
</mask>
<path d="M353.9 164.396V165.396H365.9V164.396V163.396H353.9V164.396ZM369.9 168.396H368.9V180.396H369.9H370.9V168.396H369.9ZM365.9 184.396V183.396H353.9V184.396V185.396H365.9V184.396ZM349.9 180.396H350.9V168.396H349.9H348.9V180.396H349.9ZM353.9 184.396V183.396C352.243 183.396 350.9 182.052 350.9 180.396H349.9H348.9C348.9 183.157 351.138 185.396 353.9 185.396V184.396ZM369.9 180.396H368.9C368.9 182.052 367.557 183.396 365.9 183.396V184.396V185.396C368.661 185.396 370.9 183.157 370.9 180.396H369.9ZM365.9 164.396V165.396C367.557 165.396 368.9 166.739 368.9 168.396H369.9H370.9C370.9 165.634 368.661 163.396 365.9 163.396V164.396ZM353.9 164.396V163.396C351.138 163.396 348.9 165.634 348.9 168.396H349.9H350.9C350.9 166.739 352.243 165.396 353.9 165.396V164.396Z" fill="#BDBDBD" mask="url(#path-33-inside-6_1099_71532)"/>
<path d="M380.364 168.844V179.276H386.348V180.396H379.212V168.844H380.364ZM390.986 179.356C392.426 179.356 393.722 178.188 393.738 176.396C393.722 174.62 392.426 173.436 390.986 173.436C389.21 173.436 388.25 174.716 388.25 176.396C388.25 178.076 389.21 179.356 390.986 179.356ZM387.098 176.396C387.098 174.172 388.49 172.3 390.97 172.3C391.914 172.3 392.97 172.796 393.706 173.98V172.252H394.858V180.396H393.706V178.796C392.938 180.044 391.93 180.508 390.97 180.508C388.49 180.508 387.098 178.604 387.098 176.396ZM400.797 179.388C402.605 179.388 403.581 178.092 403.581 176.38C403.581 174.684 402.605 173.372 400.797 173.372C399.309 173.372 398.045 174.684 398.045 176.38C398.045 178.092 399.309 179.388 400.797 179.388ZM396.893 180.396V168.524H398.045V173.964C398.797 172.652 399.917 172.252 400.829 172.252C403.341 172.252 404.733 174.156 404.733 176.38C404.733 178.62 403.325 180.524 400.813 180.524C399.917 180.524 398.797 180.14 398.045 178.796V180.396H396.893ZM412.274 175.756C412.146 174.604 411.586 173.372 409.858 173.372C408.338 173.372 407.362 174.188 407.154 175.772L412.274 175.756ZM405.97 176.332C405.97 174.092 407.314 172.22 409.81 172.22C412.402 172.22 413.058 174.236 413.138 174.428C413.618 175.74 413.426 176.892 413.426 176.892H407.154C407.362 178.396 408.338 179.292 409.826 179.292C411.666 179.292 412.114 178.284 412.226 178.124L413.218 178.652C413.218 178.652 412.546 180.444 409.81 180.444C407.314 180.444 405.97 178.556 405.97 176.332ZM414.886 168.524H416.038V180.396H414.886V168.524Z" fill="#BDBDBD"/>
<mask id="path-36-inside-7_1099_71532" fill="white">
<path d="M585.85 156.396C585.85 151.977 589.432 148.396 593.85 148.396H797.85C802.268 148.396 805.85 151.977 805.85 156.396V192.396C805.85 196.814 802.268 200.396 797.85 200.396H593.85C589.432 200.396 585.85 196.814 585.85 192.396V156.396Z"/>
</mask>
<path d="M585.85 156.396C585.85 151.977 589.432 148.396 593.85 148.396H797.85C802.268 148.396 805.85 151.977 805.85 156.396V192.396C805.85 196.814 802.268 200.396 797.85 200.396H593.85C589.432 200.396 585.85 196.814 585.85 192.396V156.396Z" fill="#EEEEEE"/>
<path d="M593.85 148.396V149.396H797.85V148.396V147.396H593.85V148.396ZM805.85 156.396H804.85V192.396H805.85H806.85V156.396H805.85ZM797.85 200.396V199.396H593.85V200.396V201.396H797.85V200.396ZM585.85 192.396H586.85V156.396H585.85H584.85V192.396H585.85ZM593.85 200.396V199.396C589.984 199.396 586.85 196.262 586.85 192.396H585.85H584.85C584.85 197.366 588.88 201.396 593.85 201.396V200.396ZM805.85 192.396H804.85C804.85 196.262 801.716 199.396 797.85 199.396V200.396V201.396C802.821 201.396 806.85 197.366 806.85 192.396H805.85ZM797.85 148.396V149.396C801.716 149.396 804.85 152.53 804.85 156.396H805.85H806.85C806.85 151.425 802.821 147.396 797.85 147.396V148.396ZM593.85 148.396V147.396C588.88 147.396 584.85 151.425 584.85 156.396H585.85H586.85C586.85 152.53 589.984 149.396 593.85 149.396V148.396Z" fill="#BDBDBD" mask="url(#path-36-inside-7_1099_71532)"/>
<mask id="path-38-inside-8_1099_71532" fill="white">
<path d="M597.85 174.396C597.85 168.873 602.327 164.396 607.85 164.396C613.373 164.396 617.85 168.873 617.85 174.396C617.85 179.918 613.373 184.396 607.85 184.396C602.327 184.396 597.85 179.918 597.85 174.396Z"/>
</mask>
<path d="M607.85 184.396V183.396C602.88 183.396 598.85 179.366 598.85 174.396H597.85H596.85C596.85 180.471 601.775 185.396 607.85 185.396V184.396ZM617.85 174.396H616.85C616.85 179.366 612.821 183.396 607.85 183.396V184.396V185.396C613.925 185.396 618.85 180.471 618.85 174.396H617.85ZM607.85 164.396V165.396C612.821 165.396 616.85 169.425 616.85 174.396H617.85H618.85C618.85 168.32 613.925 163.396 607.85 163.396V164.396ZM607.85 164.396V163.396C601.775 163.396 596.85 168.32 596.85 174.396H597.85H598.85C598.85 169.425 602.88 165.396 607.85 165.396V164.396Z" fill="#BDBDBD" mask="url(#path-38-inside-8_1099_71532)"/>
<path d="M628.314 168.844V179.276H634.298V180.396H627.162V168.844H628.314ZM638.936 179.356C640.376 179.356 641.672 178.188 641.688 176.396C641.672 174.62 640.376 173.436 638.936 173.436C637.16 173.436 636.2 174.716 636.2 176.396C636.2 178.076 637.16 179.356 638.936 179.356ZM635.048 176.396C635.048 174.172 636.44 172.3 638.92 172.3C639.864 172.3 640.92 172.796 641.656 173.98V172.252H642.808V180.396H641.656V178.796C640.888 180.044 639.88 180.508 638.92 180.508C636.44 180.508 635.048 178.604 635.048 176.396ZM648.747 179.388C650.555 179.388 651.531 178.092 651.531 176.38C651.531 174.684 650.555 173.372 648.747 173.372C647.259 173.372 645.995 174.684 645.995 176.38C645.995 178.092 647.259 179.388 648.747 179.388ZM644.843 180.396V168.524H645.995V173.964C646.747 172.652 647.867 172.252 648.779 172.252C651.291 172.252 652.683 174.156 652.683 176.38C652.683 178.62 651.275 180.524 648.763 180.524C647.867 180.524 646.747 180.14 645.995 178.796V180.396H644.843ZM660.224 175.756C660.096 174.604 659.536 173.372 657.808 173.372C656.288 173.372 655.312 174.188 655.104 175.772L660.224 175.756ZM653.92 176.332C653.92 174.092 655.264 172.22 657.76 172.22C660.352 172.22 661.008 174.236 661.088 174.428C661.568 175.74 661.376 176.892 661.376 176.892H655.104C655.312 178.396 656.288 179.292 657.776 179.292C659.616 179.292 660.064 178.284 660.176 178.124L661.168 178.652C661.168 178.652 660.496 180.444 657.76 180.444C655.264 180.444 653.92 178.556 653.92 176.332ZM662.837 168.524H663.989V180.396H662.837V168.524Z" fill="#BDBDBD"/>
</svg>
