<svg width="262" height="360" viewBox="0 0 262 360" fill="none" xmlns="http://www.w3.org/2000/svg">
<rect x="33.5253" y="1.80946" width="223.818" height="356.282" rx="25.8837" fill="#D9D9D9" stroke="black" stroke-width="3.04515"/>
<g clip-path="url(#clip0_1099_78825)">
<mask id="mask0_1099_78825" style="mask-type:alpha" maskUnits="userSpaceOnUse" x="35" y="3" width="221" height="442">
<rect x="35.0469" y="3.33203" width="220.773" height="441.546" rx="24.3612" fill="black" fill-opacity="0.6"/>
</mask>
<g mask="url(#mask0_1099_78825)">
<path d="M35.0469 20.9938C35.0469 11.2395 42.9544 3.33203 52.7087 3.33203H238.158C247.912 3.33203 255.82 11.2395 255.82 20.9939V338.907C255.82 348.662 247.912 356.569 238.158 356.569H52.7087C42.9544 356.569 35.0469 348.662 35.0469 338.907V20.9938Z" fill="black" fill-opacity="0.6"/>
<path d="M35.0469 3.33203H255.82V27.6171H35.0469V3.33203Z" fill="black" fill-opacity="0.6"/>
<path d="M118.694 17.334C119.048 18.1178 119.765 18.5593 120.748 18.5372C122.359 18.4821 122.834 16.4509 121.266 16.0204C120.737 15.8217 119.853 15.5789 119.081 15.049C117.966 14.2874 117.933 13.1393 118.297 12.3666C118.75 11.4173 119.953 11.1303 120.659 11.1855C121.333 11.2297 122.238 11.5056 122.801 12.3114L121.995 12.8523C121.653 12.3666 121.123 12.2011 120.582 12.1569C120.096 12.1348 119.434 12.2783 119.18 12.7751C118.97 13.2497 118.959 13.7796 119.622 14.2432C120.262 14.6848 121.035 14.9055 121.587 15.1042C124.181 15.91 123.441 19.4314 120.781 19.5086C119.478 19.5528 118.286 18.8574 117.8 17.7204L118.694 17.334ZM127.575 19.2437C127.365 19.2879 126.979 19.3541 126.615 19.3431C125.776 19.321 125.025 18.6145 125.025 17.7204V14.5854H124.076V13.6361H125.025V11.7926H125.997V13.6361H127.399V14.5854H125.997V17.7204C125.997 18.1399 126.251 18.3717 126.659 18.3827C126.913 18.3827 127.178 18.3386 127.365 18.2944L127.575 19.2437ZM130.968 18.4821C131.906 18.4821 132.767 17.7535 132.778 16.5834C132.767 15.4133 131.906 14.6737 130.968 14.6737C129.82 14.6737 129.19 15.4906 129.19 16.5834C129.19 17.6762 129.82 18.4821 130.968 18.4821ZM128.219 16.5834C128.219 15.027 129.19 13.7134 130.924 13.7134C131.564 13.7134 132.27 14.0445 132.756 14.7951V13.6802H133.727V19.3651H132.756V18.3606C132.248 19.1444 131.575 19.4535 130.924 19.4535C129.19 19.4535 128.219 18.1178 128.219 16.5834ZM138.312 19.2437C138.102 19.2879 137.716 19.3541 137.352 19.3431C136.513 19.321 135.762 18.6145 135.762 17.7204V14.5854H134.813V13.6361H135.762V11.7926H136.733V13.6361H138.135V14.5854H136.733V17.7204C136.733 18.1399 136.987 18.3717 137.396 18.3827C137.65 18.3827 137.915 18.3386 138.102 18.2944L138.312 19.2437ZM140.396 16.9366C140.396 17.7756 140.915 18.4269 141.831 18.4269C142.802 18.4269 143.409 17.621 143.409 16.8594V13.6471H144.381V19.3651H143.409V18.46C143.001 19.0561 142.526 19.3651 141.742 19.3651C140.473 19.3651 139.424 18.4269 139.424 17.0139V13.6802H140.396V16.9366ZM146.501 17.7535C146.7 18.2282 147.164 18.4821 147.782 18.46C148.687 18.4269 148.996 17.4003 148.113 17.1243C147.76 17.0139 147.119 16.8483 146.567 16.4841C145.706 15.9211 145.695 15.0601 145.971 14.4971C146.314 13.8127 147.208 13.5919 147.749 13.6361C148.278 13.6913 148.941 13.8789 149.36 14.4419L148.577 15.0049C148.367 14.7179 148.036 14.6185 147.671 14.5854C147.351 14.5523 146.965 14.6627 146.821 14.9276C146.711 15.1815 146.722 15.4354 147.097 15.6782C147.517 15.9542 148.047 16.0867 148.433 16.2191C150.354 16.8373 149.758 19.3762 147.837 19.4203C146.854 19.4645 145.971 18.9567 145.618 18.1509L146.501 17.7535ZM153.592 19.3762V11.318H156.704C157.908 11.318 158.912 12.3004 158.912 13.5036C158.912 14.1439 158.625 14.6627 158.184 15.0601C158.25 15.0932 158.305 15.1373 158.371 15.1705C158.967 15.5678 159.42 16.2854 159.42 17.1022C159.42 18.3386 158.437 19.3762 157.212 19.3762H153.592ZM154.563 18.4269H157.157C157.875 18.4269 158.471 17.886 158.471 17.1243C158.471 16.2854 157.886 15.7003 157.157 15.7003H154.563V18.4269ZM154.563 14.751H156.76L156.726 14.74C157.422 14.7179 157.963 14.2101 157.963 13.5257C157.963 12.7971 157.4 12.2673 156.66 12.2673H154.563V14.751ZM163.178 18.4821C164.116 18.4821 164.977 17.7535 164.988 16.5834C164.977 15.4133 164.116 14.6737 163.178 14.6737C162.03 14.6737 161.401 15.4906 161.401 16.5834C161.401 17.6762 162.03 18.4821 163.178 18.4821ZM160.43 16.5834C160.43 15.027 161.401 13.7134 163.134 13.7134C163.774 13.7134 164.481 14.0445 164.966 14.7951V13.6802H165.938V19.3651H164.966V18.3606C164.459 19.1444 163.785 19.4535 163.134 19.4535C161.401 19.4535 160.43 18.1178 160.43 16.5834ZM168.142 14.8172C168.484 14.0776 169.389 13.6361 170.063 13.6361V14.6185C169.025 14.6185 168.142 15.6341 168.142 16.4841V19.3651H167.171V13.6802H168.142V14.8172Z" fill="white"/>
<path d="M35.0469 27.6172H255.82V66.2525H35.0469V27.6172Z" fill="#007D00" fill-opacity="0.3"/>
<path d="M118.694 17.334C119.048 18.1178 119.765 18.5593 120.748 18.5372C122.359 18.4821 122.834 16.4509 121.266 16.0204C120.737 15.8217 119.853 15.5789 119.081 15.049C117.966 14.2874 117.933 13.1393 118.297 12.3666C118.75 11.4173 119.953 11.1303 120.659 11.1855C121.333 11.2297 122.238 11.5056 122.801 12.3114L121.995 12.8523C121.653 12.3666 121.123 12.2011 120.582 12.1569C120.096 12.1348 119.434 12.2783 119.18 12.7751C118.97 13.2497 118.959 13.7796 119.622 14.2432C120.262 14.6848 121.035 14.9055 121.587 15.1042C124.181 15.91 123.441 19.4314 120.781 19.5086C119.478 19.5528 118.286 18.8574 117.8 17.7204L118.694 17.334ZM127.575 19.2437C127.365 19.2879 126.979 19.3541 126.615 19.3431C125.776 19.321 125.025 18.6145 125.025 17.7204V14.5854H124.076V13.6361H125.025V11.7926H125.997V13.6361H127.399V14.5854H125.997V17.7204C125.997 18.1399 126.251 18.3717 126.659 18.3827C126.913 18.3827 127.178 18.3386 127.365 18.2944L127.575 19.2437ZM130.968 18.4821C131.906 18.4821 132.767 17.7535 132.778 16.5834C132.767 15.4133 131.906 14.6737 130.968 14.6737C129.82 14.6737 129.19 15.4906 129.19 16.5834C129.19 17.6762 129.82 18.4821 130.968 18.4821ZM128.219 16.5834C128.219 15.027 129.19 13.7134 130.924 13.7134C131.564 13.7134 132.27 14.0445 132.756 14.7951V13.6802H133.727V19.3651H132.756V18.3606C132.248 19.1444 131.575 19.4535 130.924 19.4535C129.19 19.4535 128.219 18.1178 128.219 16.5834ZM138.312 19.2437C138.102 19.2879 137.716 19.3541 137.352 19.3431C136.513 19.321 135.762 18.6145 135.762 17.7204V14.5854H134.813V13.6361H135.762V11.7926H136.733V13.6361H138.135V14.5854H136.733V17.7204C136.733 18.1399 136.987 18.3717 137.396 18.3827C137.65 18.3827 137.915 18.3386 138.102 18.2944L138.312 19.2437ZM140.396 16.9366C140.396 17.7756 140.915 18.4269 141.831 18.4269C142.802 18.4269 143.409 17.621 143.409 16.8594V13.6471H144.381V19.3651H143.409V18.46C143.001 19.0561 142.526 19.3651 141.742 19.3651C140.473 19.3651 139.424 18.4269 139.424 17.0139V13.6802H140.396V16.9366ZM146.501 17.7535C146.7 18.2282 147.164 18.4821 147.782 18.46C148.687 18.4269 148.996 17.4003 148.113 17.1243C147.76 17.0139 147.119 16.8483 146.567 16.4841C145.706 15.9211 145.695 15.0601 145.971 14.4971C146.314 13.8127 147.208 13.5919 147.749 13.6361C148.278 13.6913 148.941 13.8789 149.36 14.4419L148.577 15.0049C148.367 14.7179 148.036 14.6185 147.671 14.5854C147.351 14.5523 146.965 14.6627 146.821 14.9276C146.711 15.1815 146.722 15.4354 147.097 15.6782C147.517 15.9542 148.047 16.0867 148.433 16.2191C150.354 16.8373 149.758 19.3762 147.837 19.4203C146.854 19.4645 145.971 18.9567 145.618 18.1509L146.501 17.7535ZM153.592 19.3762V11.318H156.704C157.908 11.318 158.912 12.3004 158.912 13.5036C158.912 14.1439 158.625 14.6627 158.184 15.0601C158.25 15.0932 158.305 15.1373 158.371 15.1705C158.967 15.5678 159.42 16.2854 159.42 17.1022C159.42 18.3386 158.437 19.3762 157.212 19.3762H153.592ZM154.563 18.4269H157.157C157.875 18.4269 158.471 17.886 158.471 17.1243C158.471 16.2854 157.886 15.7003 157.157 15.7003H154.563V18.4269ZM154.563 14.751H156.76L156.726 14.74C157.422 14.7179 157.963 14.2101 157.963 13.5257C157.963 12.7971 157.4 12.2673 156.66 12.2673H154.563V14.751ZM163.178 18.4821C164.116 18.4821 164.977 17.7535 164.988 16.5834C164.977 15.4133 164.116 14.6737 163.178 14.6737C162.03 14.6737 161.401 15.4906 161.401 16.5834C161.401 17.6762 162.03 18.4821 163.178 18.4821ZM160.43 16.5834C160.43 15.027 161.401 13.7134 163.134 13.7134C163.774 13.7134 164.481 14.0445 164.966 14.7951V13.6802H165.938V19.3651H164.966V18.3606C164.459 19.1444 163.785 19.4535 163.134 19.4535C161.401 19.4535 160.43 18.1178 160.43 16.5834ZM168.142 14.8172C168.484 14.0776 169.389 13.6361 170.063 13.6361V14.6185C169.025 14.6185 168.142 15.6341 168.142 16.4841V19.3651H167.171V13.6802H168.142V14.8172Z" fill="white"/>
<path d="M138.516 47.6799L137.545 47.6468L137.699 43.3527H141.938V44.3241H138.637L138.56 46.4325C138.935 46.2338 139.377 46.1234 139.83 46.1234C141.287 46.1234 142.534 47.3046 142.534 48.7727C142.534 50.2961 141.287 51.4662 139.83 51.4662C138.593 51.4662 137.478 50.6051 137.202 49.424L138.152 49.2032C138.328 49.987 138.969 50.4948 139.83 50.4948C140.834 50.4948 141.563 49.8104 141.563 48.7727C141.563 47.7903 140.845 47.0948 139.83 47.0948C139.278 47.0948 138.858 47.2935 138.516 47.6799ZM146.288 50.4727C147.292 50.4727 148.032 49.7883 148.032 48.7948C148.032 47.8234 147.292 47.1169 146.288 47.1169C145.294 47.1169 144.577 47.8234 144.577 48.7948C144.577 49.7883 145.283 50.4727 146.288 50.4727ZM143.605 48.7948C143.605 48.276 143.76 47.7903 144.025 47.3818L146.321 43.3527H147.436L145.813 46.1897C145.979 46.1566 146.144 46.1455 146.31 46.1455C147.756 46.1455 149.003 47.3267 149.003 48.7948C149.003 50.285 147.767 51.4441 146.31 51.4441C144.864 51.4441 143.605 50.285 143.605 48.7948Z" fill="white"/>
</g>
<g opacity="0.8" filter="url(#filter0_dd_1099_78825)">
<g clip-path="url(#clip1_1099_78825)">
<path d="M34.999 202.077C34.999 189.884 44.8834 180 57.0763 180H233.695C245.888 180 255.772 189.884 255.772 202.077V357.722H34.999V202.077Z" fill="white"/>
<path d="M50.6376 204.425C52.1094 204.425 53.2255 205.639 53.434 207.639H55.3351V203.64H56.8437V214.667H55.3351V208.853H53.4463C53.2991 210.962 52.1585 212.263 50.6376 212.263C49.0063 212.263 47.8166 210.754 47.8166 208.338C47.8166 205.934 49.0063 204.425 50.6376 204.425ZM49.2639 208.338C49.2639 209.981 49.8158 210.889 50.6376 210.889C51.4716 210.889 52.0235 209.981 52.0235 208.338C52.0235 206.694 51.4716 205.799 50.6376 205.799C49.8158 205.799 49.2639 206.694 49.2639 208.338ZM58.2852 212.14H68.2322V213.391H58.2852V212.14ZM59.4136 205.615V204.401H67.1039V208.031H60.9345V209.307H67.3492V210.533H59.4381V206.841H65.5952V205.615H59.4136ZM76.4809 203.665H78.014V211.674H76.4809V203.665ZM68.8642 208.988C70.6917 208.35 71.5012 206.817 71.5012 205.345V204.253H73.0466V205.345C73.0466 206.792 73.8316 208.215 75.6223 208.792L74.8373 210.006C73.6108 209.589 72.7645 208.755 72.2862 207.7C71.8078 208.828 70.9247 209.736 69.6492 210.19L68.8642 208.988ZM70.7162 214.446V210.913H72.2371V213.232H78.2961V214.446H70.7162ZM84.4964 203.824C86.9985 203.824 88.4704 204.474 88.4704 205.701C88.4704 206.915 86.9985 207.577 84.4964 207.577C82.0066 207.577 80.5225 206.915 80.5225 205.701C80.5225 204.474 82.0066 203.824 84.4964 203.824ZM79.529 209.319V208.105H89.4638V209.319H79.529ZM80.6697 211.085V209.957H88.2496V212.753H82.1783V213.428H88.5439V214.568H80.6942V211.686H86.7532V211.085H80.6697ZM82.1047 205.701C82.1047 206.228 82.8897 206.461 84.4964 206.461C86.1032 206.461 86.8882 206.228 86.8882 205.701C86.8882 205.186 86.1032 204.928 84.4964 204.928C82.8897 204.928 82.1047 205.186 82.1047 205.701ZM92.9041 210.239H102.839V211.478H98.6197V214.667H97.0865V211.478H92.9041V210.239ZM93.4193 208.46C95.676 208.203 96.9026 207.111 97.062 206.118H93.7995V204.928H97.0865V203.689H98.6197V204.928H101.931V206.118H98.6442C98.8159 207.099 100.055 208.203 102.287 208.46L101.76 209.65C99.9075 209.429 98.5706 208.669 97.8593 207.651C97.1479 208.669 95.811 209.429 93.9467 209.65L93.4193 208.46ZM110.585 203.64H112.118V207.884H113.663V209.135H112.118V214.642H110.585V203.64ZM103.434 211.576C106.01 210.251 107.383 208.473 107.666 206.007H104.035V204.781H109.199C109.199 208.068 107.923 210.889 104.28 212.729L103.434 211.576ZM116.907 208.718H126.83V209.944H116.907V208.718ZM118.023 212.631C118.023 211.355 119.458 210.619 121.826 210.619C124.205 210.619 125.64 211.355 125.64 212.631C125.64 213.931 124.205 214.654 121.826 214.654C119.458 214.654 118.023 213.931 118.023 212.631ZM118.109 207.921V203.971H125.64V205.198H119.606V206.719H125.701V207.921H118.109ZM119.557 212.631C119.557 213.219 120.342 213.501 121.826 213.501C123.334 213.501 124.107 213.219 124.107 212.631C124.107 212.066 123.334 211.772 121.826 211.772C120.342 211.772 119.557 212.066 119.557 212.631ZM127.523 209.564H131.73V208.742H128.762V205.75H134.747V205.038H128.737V203.873H136.244V206.829H130.246V207.59H136.464V208.742H133.251V209.564H137.47V210.779H127.523V209.564ZM128.615 212.631V211.404H136.317V214.605H134.796V212.631H128.615ZM147.963 203.665H149.484V207.97H151.09V209.233H149.484V214.654H147.963V203.665ZM140.825 206.51V205.296H143.278V203.836H144.811V205.296H147.239V206.51H140.825ZM141.278 209.773C141.278 208.24 142.456 207.16 144.05 207.16C145.645 207.16 146.834 208.24 146.834 209.773C146.834 211.294 145.645 212.373 144.05 212.373C142.456 212.373 141.278 211.294 141.278 209.773ZM142.738 209.773C142.738 210.619 143.278 211.134 144.05 211.134C144.823 211.134 145.375 210.619 145.375 209.773C145.375 208.914 144.823 208.387 144.05 208.387C143.278 208.387 142.738 208.914 142.738 209.773ZM154.188 204.523H155.721V206.142C155.721 208.178 156.641 210.202 158.481 210.999L157.597 212.226C156.334 211.649 155.463 210.545 154.973 209.172C154.482 210.656 153.587 211.858 152.262 212.471L151.354 211.22C153.243 210.398 154.188 208.289 154.188 206.142V204.523ZM159.069 214.667V203.64H160.59V214.667H159.069ZM166.95 204.413C166.95 205.198 166.852 205.897 166.643 206.547H167.821V203.873H169.231V209.773H167.821V207.749H166.079C165.417 208.792 164.374 209.613 162.89 210.227L162.142 209.123C164.166 208.313 165.159 207.173 165.368 205.627H162.706V204.413H166.95ZM162.645 213.465C164.068 212.962 164.705 211.858 164.705 210.766V210.251H166.165V210.766C166.165 211.662 166.533 212.594 167.404 213.207C168.324 212.545 168.704 211.588 168.704 210.766V210.251H170.188V210.766C170.188 211.919 170.813 213.011 172.248 213.465L171.513 214.568C170.47 214.2 169.795 213.526 169.415 212.667C169.06 213.514 168.434 214.262 167.441 214.667C166.423 214.286 165.785 213.563 165.441 212.704C165.049 213.526 164.387 214.2 163.381 214.568L162.645 213.465ZM170.041 209.908V203.652H171.488V209.908H170.041ZM173.935 210.239H175.432V211.196H179.933V210.239H181.429V214.532H173.935V210.239ZM172.758 209.675V208.473H182.693V209.675H172.758ZM173.261 206.78C175.689 206.486 176.94 205.271 176.94 204.119V203.775H178.51V204.119C178.51 205.259 179.773 206.486 182.202 206.78L181.65 207.958C179.798 207.724 178.424 206.94 177.725 205.872C177.026 206.94 175.665 207.724 173.8 207.958L173.261 206.78ZM175.432 213.342H179.933V212.348H175.432V213.342ZM191.039 203.652H192.548V214.642H191.039V203.652ZM183.975 211.931V204.707H185.483V210.631C186.955 210.607 188.525 210.484 190.144 210.153L190.316 211.416C188.439 211.809 186.624 211.931 184.944 211.931H183.975ZM201.226 203.652H202.734V207.97H204.194V209.233H202.734V214.642H201.226V203.652ZM193.805 211.465C195.289 209.846 195.731 208.215 195.817 206.007H194.284V204.781H197.252C197.252 207.786 196.945 210.153 194.995 212.336L193.805 211.465ZM196.896 212.189C198.368 210.337 198.773 208.436 198.846 206.007H197.632V204.781H200.294C200.294 207.908 200.012 210.644 198.086 213.035L196.896 212.189ZM207.487 213.967C206.948 213.967 206.653 213.599 206.653 213.133C206.653 212.68 206.948 212.312 207.487 212.312C208.027 212.312 208.309 212.68 208.309 213.133C208.309 213.599 208.027 213.967 207.487 213.967ZM204.728 206.118C205.194 204.867 206.298 203.996 207.671 203.996C209.241 203.996 210.689 205.321 210.615 206.915C210.566 207.798 210.112 208.657 208.91 209.564C208.309 210.006 208.199 210.239 208.211 211.122L206.727 211.146C206.715 209.846 207.095 209.061 208.027 208.362C208.91 207.712 209.106 207.344 209.131 206.841C209.168 205.995 208.505 205.468 207.671 205.468C206.874 205.468 206.408 205.848 206.114 206.633L204.728 206.118Z" fill="#333333"/>
<path d="M238.575 203.341C238.75 203.218 238.993 203.231 239.154 203.384C239.315 203.536 239.342 203.778 239.229 203.96L239.172 204.034L234.328 209.145L239.172 214.258L239.229 214.331C239.342 214.513 239.315 214.754 239.154 214.907C238.993 215.06 238.75 215.073 238.575 214.951L238.504 214.89L233.695 209.813L228.886 214.89L228.816 214.951C228.641 215.074 228.397 215.06 228.236 214.907C228.052 214.733 228.044 214.442 228.218 214.258L233.061 209.145L228.218 204.034L228.162 203.96C228.049 203.778 228.075 203.537 228.236 203.384C228.397 203.231 228.641 203.218 228.816 203.341L228.886 203.401L233.695 208.476L238.504 203.401L238.575 203.341Z" fill="#555555"/>
<path d="M54.2963 232.197H55.1242V236.038H56.7248V236.733H55.1242V241.877H54.2963V232.197ZM48.1367 239.46V233.157H52.6184V233.83H48.9536V238.753C50.7308 238.753 51.9561 238.698 53.369 238.422L53.4684 239.129C51.9782 239.405 50.7197 239.46 48.8873 239.46H48.1367ZM57.2622 237.572H66.0159V238.257H57.2622V237.572ZM58.3772 233.19V232.539H64.8789V234.912H59.2051V236.016H65.0887V236.667H58.3992V234.283H64.0621V233.19H58.3772ZM58.4213 241.646V239.04H59.2492V240.972H65.0997V241.646H58.4213ZM71.8313 232.958C73.1449 232.958 74.0943 234.095 74.2157 235.917H76.3793V232.197H77.1961V241.877H76.3793V236.579H74.2157C74.1384 238.478 73.167 239.681 71.8313 239.681C70.4294 239.681 69.436 238.367 69.436 236.314C69.436 234.261 70.4294 232.958 71.8313 232.958ZM70.2197 236.314C70.2197 237.892 70.882 238.941 71.8313 238.941C72.7917 238.941 73.443 237.892 73.443 236.314C73.443 234.735 72.7917 233.698 71.8313 233.698C70.882 233.698 70.2197 234.735 70.2197 236.314ZM78.8264 239.935H87.5801V240.63H78.8264V239.935ZM79.9082 233.632V232.947H86.4873V235.839H80.7472V237.462H86.708V238.146H79.9303V235.177H85.6704V233.632H79.9082ZM95.4472 232.219H96.2751V239.283H95.4472V232.219ZM88.4929 237.23C89.9279 236.667 90.9214 235.254 90.9214 233.731V232.737H91.7493V233.731C91.7493 235.199 92.7538 236.524 94.1778 237.054L93.7362 237.716C92.6324 237.285 91.7714 236.391 91.3519 235.276C90.9435 236.468 90.0714 237.429 88.9344 237.892L88.4929 237.23ZM90.1045 241.646V238.643H90.9324V240.961H96.5842V241.646H90.1045ZM99.0645 232.98H105.566V233.665H99.8924V236.733H105.677V237.418H102.707V239.935H106.692V240.63H97.9385V239.935H101.89V237.418H99.0645V232.98ZM117.343 232.208H118.137V241.866H117.343V232.208ZM109.925 234.559V233.885H111.901V232.461H112.717V233.885H114.704V234.559H109.925ZM110.278 237.462C110.278 236.148 111.128 235.243 112.298 235.243C113.468 235.243 114.318 236.148 114.318 237.462C114.318 237.539 114.318 237.616 114.307 237.694H115.576V236.17H114.208V235.497H115.576V232.428H116.349V241.381H115.576V238.367H114.163C113.876 239.173 113.17 239.692 112.298 239.692C111.128 239.692 110.278 238.776 110.278 237.462ZM111.017 237.462C111.017 238.345 111.558 238.974 112.298 238.974C113.049 238.974 113.589 238.345 113.589 237.462C113.589 236.579 113.049 235.95 112.298 235.95C111.558 235.95 111.017 236.579 111.017 237.462ZM119.933 232.914H123.642V233.598H120.728V234.846H123.543V235.497H120.728V236.855C122.141 236.855 123.013 236.8 124.04 236.601L124.128 237.274C123.013 237.495 122.097 237.539 120.54 237.539H119.933V232.914ZM121.17 239.261V238.577H127.627V241.866H126.81V239.261H121.17ZM124.702 238.003V232.395H125.486V234.746H126.843V232.208H127.627V238.058H126.843V235.431H125.486V238.003H124.702ZM133.419 232.384C135.538 232.384 136.808 232.969 136.808 234.051C136.808 235.133 135.538 235.729 133.419 235.729C131.3 235.729 130.03 235.133 130.03 234.051C130.03 232.969 131.3 232.384 133.419 232.384ZM129.059 237.076V236.402H137.779V237.076H129.059ZM130.118 238.566V237.926H136.653V240.067H130.957V241.105H136.951V241.756H130.152V239.46H135.848V238.566H130.118ZM130.88 234.051C130.88 234.724 131.829 235.1 133.419 235.1C135.009 235.1 135.958 234.724 135.958 234.051C135.958 233.389 135.009 233.002 133.419 233.002C131.829 233.002 130.88 233.389 130.88 234.051ZM147.734 232.208H148.562V234.537H149.997V235.243H148.562V237.859H147.734V232.208ZM141.497 237.241V232.737H142.314V234.25H145.129V232.737H145.946V237.241H141.497ZM142.314 236.557H145.129V234.912H142.314V236.557ZM142.557 241.734V238.4H148.639V239.074H143.385V241.05H148.827V241.734H142.557ZM154.983 232.384C157.103 232.384 158.372 232.969 158.372 234.051C158.372 235.133 157.103 235.729 154.983 235.729C152.864 235.729 151.594 235.133 151.594 234.051C151.594 232.969 152.864 232.384 154.983 232.384ZM150.623 237.076V236.402H159.343V237.076H150.623ZM151.683 238.566V237.926H158.218V240.067H152.522V241.105H158.516V241.756H151.716V239.46H157.412V238.566H151.683ZM152.444 234.051C152.444 234.724 153.394 235.1 154.983 235.1C156.573 235.1 157.522 234.724 157.522 234.051C157.522 233.389 156.573 233.002 154.983 233.002C153.394 233.002 152.444 233.389 152.444 234.051ZM166.572 232.561H167.433V233.113C167.433 234.482 169.221 235.663 170.921 235.917L170.579 236.579C169.111 236.325 167.632 235.486 167.013 234.305C166.406 235.508 164.916 236.325 163.426 236.579L163.084 235.917C164.806 235.663 166.572 234.515 166.572 233.113V232.561ZM162.631 238.356V237.672H171.363V238.356H167.389V241.866H166.572V238.356H162.631ZM177.079 238.168H177.874V238.698C177.874 239.57 178.337 240.487 179.242 241.016C180.181 240.431 180.655 239.449 180.655 238.698V238.168H181.461V238.698C181.461 239.703 182.201 240.696 183.415 241.116L183.007 241.734C182.057 241.392 181.384 240.707 181.042 239.901C180.755 240.685 180.17 241.436 179.275 241.822C178.348 241.458 177.752 240.751 177.465 239.935C177.123 240.707 176.461 241.381 175.544 241.734L175.125 241.116C176.339 240.674 177.079 239.626 177.079 238.698V238.168ZM174.871 235.033C174.871 233.698 175.92 232.782 177.377 232.782C178.834 232.782 179.883 233.698 179.883 235.033C179.883 236.358 178.834 237.263 177.377 237.263C175.92 237.263 174.871 236.358 174.871 235.033ZM175.677 235.033C175.677 235.95 176.394 236.579 177.377 236.579C178.37 236.579 179.077 235.95 179.077 235.033C179.077 234.117 178.37 233.477 177.377 233.477C176.394 233.477 175.677 234.117 175.677 235.033ZM181.715 237.738V232.219H182.554V237.738H181.715ZM185.387 232.561H186.204V235.144H191.933V235.817H185.387V232.561ZM184.195 237.826V237.142H192.949V237.826H184.195ZM185.332 241.635V238.809H186.149V240.95H191.989V241.635H185.332ZM196.501 233.201H201.899V233.896H199.603V235.199C199.603 236.844 200.818 238.5 202.208 239.107L201.734 239.769C200.63 239.25 199.647 238.124 199.195 236.789C198.753 238.213 197.782 239.449 196.678 240.001L196.203 239.35C197.561 238.687 198.775 236.866 198.775 235.199V233.896H196.501V233.201ZM203.246 241.866V232.208H204.074V241.866H203.246ZM214.846 232.219H215.674V235.155H217.12V235.839H215.674V238.676H214.846V232.219ZM208.167 237.716C208.94 237.716 209.845 237.716 210.784 237.683V236.954C209.669 236.866 208.951 236.347 208.951 235.541C208.951 234.658 209.834 234.117 211.181 234.117C212.539 234.117 213.422 234.658 213.422 235.541C213.422 236.336 212.715 236.855 211.6 236.954V237.65C212.506 237.605 213.411 237.528 214.261 237.407L214.327 238.003C212.252 238.378 209.956 238.389 208.278 238.389L208.167 237.716ZM208.41 233.731V233.102H210.784V232.13H211.6V233.102H213.963V233.731H208.41ZM209.349 239.835V239.173H215.674V241.866H214.846V239.835H209.349ZM209.735 235.541C209.735 236.049 210.298 236.402 211.181 236.402C212.075 236.402 212.638 236.049 212.638 235.541C212.638 235.022 212.075 234.691 211.181 234.691C210.298 234.691 209.735 235.022 209.735 235.541ZM224.832 232.219H225.671V239.272H224.832V232.219ZM217.988 235.265C217.988 233.863 219.07 232.892 220.494 232.892C221.929 232.892 223 233.863 223 235.265C223 236.645 221.929 237.628 220.494 237.628C219.07 237.628 217.988 236.645 217.988 235.265ZM218.794 235.265C218.794 236.215 219.534 236.899 220.494 236.899C221.466 236.899 222.205 236.215 222.205 235.265C222.205 234.294 221.466 233.609 220.494 233.609C219.534 233.609 218.794 234.294 218.794 235.265ZM219.501 241.646V238.555H220.318V240.961H225.969V241.646H219.501ZM227.302 233.885H229.3V232.484H230.116V233.885H232.103V234.559H227.302V233.885ZM227.644 237.418C227.644 236.137 228.505 235.232 229.708 235.232C230.911 235.232 231.783 236.137 231.783 237.418C231.783 238.72 230.911 239.614 229.708 239.614C228.505 239.614 227.644 238.72 227.644 237.418ZM228.383 237.418C228.383 238.29 228.935 238.908 229.708 238.908C230.481 238.908 231.044 238.29 231.044 237.418C231.044 236.557 230.481 235.928 229.708 235.928C228.935 235.928 228.383 236.557 228.383 237.418ZM232.611 241.381V232.439H233.395V236.292H234.686V232.208H235.47V241.866H234.686V236.976H233.395V241.381H232.611ZM47.7062 256.924H51.658V254.815H48.7549V249.892H49.5717V251.636H54.5833V249.892H55.4001V254.815H52.4749V256.924H56.4598V257.619H47.7062V256.924ZM49.5717 254.142H54.5833V252.32H49.5717V254.142ZM61.0595 252.685H62.6933V249.428H63.466V258.37H62.6933V253.38H61.0595V252.685ZM57.1519 256.151C58.4655 255.378 59.2934 253.645 59.2934 251.989V250.135H60.0881V251.967C60.0881 253.502 60.8498 255.157 62.1193 255.919L61.6336 256.559C60.7063 256.007 60.044 254.959 59.7018 253.789C59.3486 255.069 58.631 256.184 57.6707 256.769L57.1519 256.151ZM64.6581 258.866V249.208H65.4529V258.866H64.6581ZM66.8183 256.924H68.9929V254.285C68.1761 253.866 67.6793 253.17 67.6793 252.298C67.6793 250.797 69.1475 249.826 71.1786 249.826C73.2318 249.826 74.6778 250.797 74.6778 252.298C74.6778 253.159 74.1921 253.844 73.3973 254.274V256.924H75.572V257.608H66.8183V256.924ZM68.4851 252.298C68.4851 253.391 69.6111 254.109 71.1786 254.109C72.7461 254.109 73.883 253.391 73.883 252.298C73.883 251.206 72.7461 250.488 71.1786 250.488C69.6111 250.488 68.4851 251.206 68.4851 252.298ZM69.8098 256.924H72.5694V254.594C72.15 254.705 71.6863 254.76 71.1786 254.76C70.6818 254.76 70.2292 254.705 69.8098 254.594V256.924Z" fill="#616161"/>
<path d="M47.2646 283.787C47.2646 281.823 48.8565 280.231 50.8202 280.231H239.952C241.916 280.231 243.507 281.823 243.507 283.787V310.847C243.507 312.811 241.916 314.403 239.952 314.403H50.8202C48.8565 314.403 47.2646 312.811 47.2646 310.847V283.787Z" fill="#FF8120"/>
<path d="M125.261 297.782H134.136V298.753H130.284V301.712H129.103V298.753H125.261V297.782ZM125.758 296.247C127.701 296.005 128.981 295 129.091 293.995H126.089V293.046H129.103V291.898H130.284V293.046H133.308V293.995H130.306C130.416 294.978 131.697 296.005 133.617 296.247L133.198 297.186C131.586 296.987 130.328 296.258 129.699 295.298C129.069 296.269 127.8 296.976 126.177 297.186L125.758 296.247ZM141.253 291.876H142.445V295.729H143.902V296.711H142.445V301.689H141.253V291.876ZM134.784 299.018C137.157 297.815 138.438 296.126 138.67 293.874H135.292V292.914H139.873C139.873 295.795 138.681 298.312 135.457 299.923L134.784 299.018ZM146.836 296.457H155.711V297.429H146.836V296.457ZM147.863 299.912C147.863 298.764 149.132 298.124 151.252 298.124C153.349 298.124 154.63 298.764 154.63 299.912C154.63 301.049 153.349 301.7 151.252 301.7C149.132 301.7 147.863 301.049 147.863 299.912ZM147.929 295.662V292.207H154.63V293.168H149.11V294.724H154.685V295.662H147.929ZM149.055 299.912C149.055 300.497 149.839 300.784 151.252 300.784C152.654 300.784 153.426 300.497 153.426 299.912C153.426 299.338 152.654 299.029 151.252 299.029C149.839 299.029 149.055 299.338 149.055 299.912ZM156.381 297.208H160.223V296.358H157.507V293.797H162.993V293.013H157.496V292.108H164.164V294.636H158.677V295.453H164.362V296.358H161.415V297.208H165.267V298.168H156.381V297.208ZM157.364 299.747V298.797H164.219V301.645H163.038V299.747H157.364Z" fill="white"/>
<path d="M137.708 330.953H138.9V334.762H140.346V335.744H138.9V340.767H137.708V330.953ZM131.614 338.338V331.903H132.795V337.356C134.098 337.334 135.489 337.223 136.946 336.925L137.078 337.908C135.434 338.239 133.888 338.338 132.431 338.338H131.614ZM140.817 335.49H149.681V336.428H145.84V337.3C147.584 337.411 148.621 338.018 148.621 339.034C148.621 340.137 147.352 340.767 145.244 340.767C143.124 340.767 141.855 340.137 141.855 339.034C141.855 338.018 142.892 337.411 144.648 337.3V336.428H140.817V335.49ZM141.248 334.077C143.047 333.912 144.228 333.172 144.416 332.344H141.623V331.406H148.886V332.344H146.094C146.281 333.172 147.451 333.912 149.262 334.077L148.842 335.015C147.087 334.828 145.773 334.132 145.255 333.128C144.725 334.121 143.422 334.828 141.667 335.015L141.248 334.077ZM143.047 339.034C143.047 339.585 143.82 339.872 145.244 339.872C146.646 339.872 147.418 339.585 147.418 339.034C147.418 338.46 146.646 338.184 145.244 338.184C143.82 338.184 143.047 338.46 143.047 339.034ZM157.626 330.964H158.763V340.778H157.626V330.964ZM150.473 335.203C150.473 333.04 151.3 331.704 152.57 331.704C153.751 331.704 154.546 332.819 154.667 334.662H155.65V331.152H156.765V340.314H155.65V335.623H154.678C154.579 337.543 153.773 338.713 152.57 338.713C151.3 338.713 150.473 337.378 150.473 335.203ZM151.554 335.203C151.554 336.749 151.93 337.598 152.57 337.598C153.232 337.598 153.607 336.749 153.607 335.203C153.607 333.669 153.232 332.83 152.57 332.83C151.93 332.83 151.554 333.669 151.554 335.203Z" fill="#999999"/>
</g>
</g>
</g>
<line x1="32.8408" y1="27.2806" x2="255.822" y2="27.2806" stroke="#007D00" stroke-width="0.673089"/>
<line x1="32.8408" y1="65.9154" x2="255.822" y2="65.9154" stroke="#007D00" stroke-width="0.673089"/>
<rect x="34.7393" y="178.294" width="221.386" height="179.685" stroke="#0D69D4" stroke-width="0.613259"/>
<rect x="47.3135" y="260.777" width="196.243" height="17.1712" fill="#C54600" fill-opacity="0.3"/>
<line x1="25.2363" y1="261.084" x2="255.822" y2="261.084" stroke="#C54600" stroke-width="0.613259"/>
<line x1="25.2363" y1="277.642" x2="255.822" y2="277.642" stroke="#C54600" stroke-width="0.613259"/>
<rect x="47.3135" y="198.226" width="196.243" height="62.5524" fill="#0D69D4" fill-opacity="0.2"/>
<rect x="47.3135" y="277.948" width="196.243" height="72.3645" fill="#0D69D4" fill-opacity="0.2"/>
<rect x="35.5957" y="178.019" width="220.773" height="19.6243" fill="#007D00" fill-opacity="0.3"/>
<rect x="28.9746" y="147.662" width="21.5391" height="16.0899" rx="4.35943" fill="#007D00"/>
<path d="M33.1467 159.662V158.896L36.0246 155.745C36.3623 155.376 36.6405 155.056 36.859 154.783C37.0775 154.508 37.2393 154.25 37.3443 154.008C37.4522 153.764 37.5061 153.509 37.5061 153.242C37.5061 152.936 37.4323 152.67 37.2847 152.446C37.14 152.222 36.9413 152.049 36.6887 151.927C36.4361 151.805 36.1523 151.744 35.8373 151.744C35.5024 151.744 35.21 151.813 34.9603 151.952C34.7133 152.088 34.5218 152.28 34.3855 152.527C34.2521 152.774 34.1854 153.063 34.1854 153.395H33.1807C33.1807 152.885 33.2985 152.436 33.5341 152.05C33.7697 151.664 34.0904 151.363 34.4962 151.148C34.9049 150.932 35.3633 150.824 35.8713 150.824C36.3822 150.824 36.8349 150.932 37.2294 151.148C37.6239 151.363 37.9333 151.654 38.1575 152.02C38.3817 152.386 38.4938 152.794 38.4938 153.242C38.4938 153.563 38.4356 153.877 38.3192 154.183C38.2057 154.487 38.007 154.826 37.7232 155.201C37.4422 155.572 37.052 156.026 36.5525 156.563L34.5941 158.657V158.726H38.6471V159.662H33.1467ZM43.2491 159.781C42.6077 159.781 42.0614 159.607 41.6101 159.258C41.1588 158.906 40.814 158.396 40.5756 157.729C40.3372 157.06 40.218 156.251 40.218 155.303C40.218 154.36 40.3372 153.556 40.5756 152.889C40.8168 152.219 41.1631 151.708 41.6144 151.356C42.0685 151.001 42.6134 150.824 43.2491 150.824C43.8849 150.824 44.4284 151.001 44.8797 151.356C45.3338 151.708 45.68 152.219 45.9184 152.889C46.1597 153.556 46.2803 154.36 46.2803 155.303C46.2803 156.251 46.1611 157.06 45.9227 157.729C45.6843 158.396 45.3395 158.906 44.8882 159.258C44.4369 159.607 43.8906 159.781 43.2491 159.781ZM43.2491 158.845C43.8849 158.845 44.3787 158.538 44.7307 157.925C45.0826 157.312 45.2586 156.438 45.2586 155.303C45.2586 154.548 45.1777 153.905 45.0159 153.374C44.857 152.843 44.6271 152.439 44.3262 152.161C44.0282 151.883 43.6692 151.744 43.2491 151.744C42.6191 151.744 42.1266 152.054 41.7719 152.676C41.4171 153.295 41.2397 154.17 41.2397 155.303C41.2397 156.058 41.3192 156.699 41.4781 157.227C41.6371 157.755 41.8655 158.156 42.1635 158.432C42.4644 158.707 42.8263 158.845 43.2491 158.845Z" fill="white"/>
<rect x="240.089" y="147.662" width="21.5391" height="16.0899" rx="4.35943" fill="#007D00"/>
<path d="M244.261 159.662V158.896L247.139 155.745C247.477 155.376 247.755 155.056 247.973 154.783C248.192 154.508 248.354 154.25 248.459 154.008C248.566 153.764 248.62 153.509 248.62 153.242C248.62 152.936 248.547 152.67 248.399 152.446C248.254 152.222 248.056 152.049 247.803 151.927C247.55 151.805 247.267 151.744 246.952 151.744C246.617 151.744 246.324 151.813 246.075 151.952C245.828 152.088 245.636 152.28 245.5 152.527C245.366 152.774 245.3 153.063 245.3 153.395H244.295C244.295 152.885 244.413 152.436 244.648 152.05C244.884 151.664 245.205 151.363 245.61 151.148C246.019 150.932 246.478 150.824 246.986 150.824C247.496 150.824 247.949 150.932 248.344 151.148C248.738 151.363 249.048 151.654 249.272 152.02C249.496 152.386 249.608 152.794 249.608 153.242C249.608 153.563 249.55 153.877 249.434 154.183C249.32 154.487 249.121 154.826 248.837 155.201C248.557 155.572 248.166 156.026 247.667 156.563L245.708 158.657V158.726H249.761V159.662H244.261ZM254.363 159.781C253.722 159.781 253.176 159.607 252.724 159.258C252.273 158.906 251.928 158.396 251.69 157.729C251.451 157.06 251.332 156.251 251.332 155.303C251.332 154.36 251.451 153.556 251.69 152.889C251.931 152.219 252.277 151.708 252.729 151.356C253.183 151.001 253.728 150.824 254.363 150.824C254.999 150.824 255.543 151.001 255.994 151.356C256.448 151.708 256.794 152.219 257.033 152.889C257.274 153.556 257.395 154.36 257.395 155.303C257.395 156.251 257.275 157.06 257.037 157.729C256.799 158.396 256.454 158.906 256.002 159.258C255.551 159.607 255.005 159.781 254.363 159.781ZM254.363 158.845C254.999 158.845 255.493 158.538 255.845 157.925C256.197 157.312 256.373 156.438 256.373 155.303C256.373 154.548 256.292 153.905 256.13 153.374C255.971 152.843 255.741 152.439 255.44 152.161C255.142 151.883 254.783 151.744 254.363 151.744C253.733 151.744 253.241 152.054 252.886 152.676C252.531 153.295 252.354 154.17 252.354 155.303C252.354 156.058 252.433 156.699 252.592 157.227C252.751 157.755 252.98 158.156 253.278 158.432C253.579 158.707 253.941 158.845 254.363 158.845Z" fill="white"/>
<line x1="25.2363" y1="178.907" x2="255.822" y2="178.907" stroke="#007D00" stroke-width="0.613259"/>
<line x1="25.2363" y1="197.919" x2="255.822" y2="197.919" stroke="#007D00" stroke-width="0.613259"/>
<rect x="35.0488" y="349.944" width="220.773" height="7.3591" fill="#007D00" fill-opacity="0.3"/>
<line x1="25.2363" y1="350.619" x2="255.822" y2="350.619" stroke="#007D00" stroke-width="0.613259"/>
<line x1="25.2363" y1="357.364" x2="255.822" y2="357.364" stroke="#007D00" stroke-width="0.613259"/>
<rect x="35.0488" y="198.225" width="12.2652" height="152.088" fill="#007D00" fill-opacity="0.3"/>
<line x1="35.3555" y1="168.789" x2="35.3555" y2="357.673" stroke="#007D00" stroke-width="0.613259"/>
<line x1="47.0058" y1="168.789" x2="47.0058" y2="357.673" stroke="#007D00" stroke-width="0.613259"/>
<rect x="243.554" y="198.225" width="12.2652" height="152.088" fill="#007D00" fill-opacity="0.3"/>
<line x1="243.86" y1="168.789" x2="243.86" y2="357.673" stroke="#007D00" stroke-width="0.613259"/>
<line x1="255.511" y1="168.789" x2="255.511" y2="357.673" stroke="#007D00" stroke-width="0.613259"/>
<rect x="47.0059" y="197.919" width="196.856" height="63.1656" stroke="#0D69D4" stroke-width="0.613259"/>
<rect x="47.3115" y="217.851" width="196.243" height="9.81214" fill="#C54600" fill-opacity="0.3"/>
<line x1="22.9033" y1="218.279" x2="243.676" y2="218.279" stroke="#C54600" stroke-width="0.613259"/>
<line x1="22.9033" y1="227.111" x2="243.676" y2="227.111" stroke="#C54600" stroke-width="0.613259"/>
<rect x="47.3125" y="198.226" width="196.243" height="19.6243" fill="#0D69D4" fill-opacity="0.2"/>
<rect x="47.3125" y="227.661" width="196.243" height="33.116" fill="#0D69D4" fill-opacity="0.2"/>
<rect x="47.3125" y="311.678" width="196.243" height="4.90607" fill="#C54600" fill-opacity="0.3"/>
<line x1="22.9043" y1="312.106" x2="243.677" y2="312.106" stroke="#C54600" stroke-width="0.613259"/>
<line x1="22.9043" y1="316.522" x2="243.677" y2="316.522" stroke="#C54600" stroke-width="0.613259"/>
<rect y="179.399" width="21.5391" height="16.0899" rx="4.35943" fill="#007D00"/>
<path d="M7.11809 191.519C6.55613 191.519 6.05519 191.422 5.61528 191.229C5.1782 191.036 4.83052 190.768 4.57225 190.425C4.31682 190.078 4.17775 189.677 4.15504 189.22H5.22787C5.25057 189.501 5.34707 189.743 5.51736 189.948C5.68765 190.149 5.91045 190.305 6.18575 190.416C6.46105 190.527 6.76616 190.582 7.10106 190.582C7.4757 190.582 7.80776 190.517 8.09726 190.386C8.38675 190.256 8.6138 190.074 8.77842 189.841C8.94303 189.609 9.02534 189.339 9.02534 189.032C9.02534 188.712 8.94587 188.429 8.78693 188.185C8.628 187.938 8.39527 187.745 8.08874 187.606C7.78222 187.467 7.40758 187.398 6.96483 187.398H6.26664V186.461H6.96483C7.31108 186.461 7.61477 186.399 7.87588 186.274C8.13983 186.149 8.3456 185.973 8.49318 185.746C8.64361 185.519 8.71882 185.252 8.71882 184.945C8.71882 184.65 8.65354 184.393 8.52298 184.175C8.39243 183.956 8.20795 183.786 7.96954 183.664C7.73397 183.542 7.45583 183.481 7.13512 183.481C6.83427 183.481 6.55046 183.536 6.28367 183.647C6.01972 183.755 5.80402 183.912 5.63656 184.12C5.46911 184.324 5.37829 184.571 5.3641 184.86H4.34236C4.35939 184.403 4.49704 184.003 4.75531 183.66C5.01359 183.313 5.35133 183.044 5.76854 182.851C6.18859 182.658 6.64979 182.561 7.15215 182.561C7.6914 182.561 8.15402 182.671 8.54001 182.889C8.926 183.105 9.22259 183.39 9.42978 183.745C9.63696 184.1 9.74056 184.483 9.74056 184.894C9.74056 185.385 9.61142 185.804 9.35315 186.15C9.09771 186.496 8.75004 186.736 8.31012 186.87V186.938C8.86073 187.029 9.29071 187.263 9.60007 187.64C9.90943 188.015 10.0641 188.479 10.0641 189.032C10.0641 189.506 9.93497 189.932 9.6767 190.31C9.42126 190.684 9.07217 190.979 8.62941 191.195C8.18666 191.411 7.68288 191.519 7.11809 191.519ZM11.8053 191.399V190.633L14.6832 187.483C15.021 187.114 15.2991 186.793 15.5177 186.521C15.7362 186.245 15.898 185.987 16.003 185.746C16.1108 185.502 16.1648 185.246 16.1648 184.979C16.1648 184.673 16.091 184.408 15.9434 184.183C15.7986 183.959 15.6 183.786 15.3474 183.664C15.0948 183.542 14.8109 183.481 14.4959 183.481C14.161 183.481 13.8687 183.55 13.6189 183.69C13.372 183.826 13.1804 184.017 13.0442 184.264C12.9108 184.511 12.8441 184.801 12.8441 185.133H11.8394C11.8394 184.622 11.9572 184.173 12.1927 183.787C12.4283 183.401 12.749 183.101 13.1549 182.885C13.5636 182.669 14.0219 182.561 14.53 182.561C15.0408 182.561 15.4935 182.669 15.888 182.885C16.2825 183.101 16.5919 183.392 16.8161 183.758C17.0403 184.124 17.1524 184.531 17.1524 184.979C17.1524 185.3 17.0943 185.614 16.9779 185.92C16.8644 186.224 16.6657 186.563 16.3819 186.938C16.1009 187.31 15.7106 187.764 15.2111 188.3L13.2528 190.395V190.463H17.3057V191.399H11.8053Z" fill="white"/>
<rect y="343.6" width="19.5391" height="16.0899" rx="4.35943" fill="#007D00"/>
<path d="M7.23729 346.881V355.6H6.18149V347.988H6.13041L4.00178 349.401V348.328L6.18149 346.881H7.23729ZM9.74481 355.6V354.833L12.6227 351.683C12.9605 351.314 13.2386 350.993 13.4571 350.721C13.6757 350.445 13.8375 350.187 13.9425 349.946C14.0503 349.702 14.1042 349.446 14.1042 349.18C14.1042 348.873 14.0305 348.608 13.8829 348.384C13.7381 348.159 13.5394 347.986 13.2869 347.864C13.0343 347.742 12.7504 347.681 12.4354 347.681C12.1005 347.681 11.8082 347.751 11.5584 347.89C11.3115 348.026 11.1199 348.218 10.9837 348.464C10.8503 348.711 10.7836 349.001 10.7836 349.333H9.77887C9.77887 348.822 9.89666 348.374 10.1322 347.988C10.3678 347.602 10.6885 347.301 11.0944 347.085C11.5031 346.869 11.9614 346.762 12.4695 346.762C12.9803 346.762 13.433 346.869 13.8275 347.085C14.222 347.301 14.5314 347.592 14.7556 347.958C14.9798 348.324 15.0919 348.731 15.0919 349.18C15.0919 349.5 15.0337 349.814 14.9174 350.121C14.8039 350.424 14.6052 350.763 14.3214 351.138C14.0404 351.51 13.6501 351.964 13.1506 352.5L11.1923 354.595V354.663H15.2452V355.6H9.74481Z" fill="white"/>
<rect x="1.37891" y="213.896" width="20.5391" height="16.0899" rx="4.35943" fill="#C54600"/>
<path d="M8.6162 217.177V225.896H7.5604V218.284H7.50931L5.38069 219.697V218.624L7.5604 217.177H8.6162ZM14.0187 226.015C13.661 226.009 13.3034 225.941 12.9458 225.81C12.5882 225.68 12.2618 225.46 11.9667 225.15C11.6715 224.838 11.4345 224.417 11.2557 223.886C11.0769 223.353 10.9875 222.683 10.9875 221.877C10.9875 221.105 11.0599 220.421 11.2046 219.825C11.3494 219.226 11.5594 218.722 11.8347 218.313C12.11 217.902 12.4421 217.59 12.8309 217.377C13.2225 217.164 13.6639 217.057 14.1549 217.057C14.6431 217.057 15.0773 217.155 15.4576 217.351C15.8408 217.544 16.153 217.814 16.3942 218.16C16.6354 218.506 16.7915 218.905 16.8625 219.356H15.8237C15.7272 218.965 15.5399 218.64 15.2618 218.381C14.9836 218.123 14.6147 217.994 14.1549 217.994C13.4794 217.994 12.9472 218.288 12.5584 218.875C12.1724 219.463 11.978 220.287 11.9752 221.349H12.0433C12.2022 221.108 12.391 220.902 12.6095 220.731C12.8309 220.558 13.075 220.425 13.3418 220.331C13.6085 220.238 13.8909 220.191 14.1889 220.191C14.6885 220.191 15.1454 220.316 15.5598 220.565C15.9742 220.812 16.3062 221.154 16.556 221.591C16.8057 222.026 16.9306 222.524 16.9306 223.086C16.9306 223.625 16.81 224.119 16.5687 224.567C16.3275 225.013 15.9883 225.368 15.5513 225.632C15.117 225.893 14.6062 226.02 14.0187 226.015ZM14.0187 225.078C14.3763 225.078 14.697 224.989 14.9808 224.81C15.2674 224.631 15.4931 224.391 15.6577 224.09C15.8251 223.79 15.9089 223.455 15.9089 223.086C15.9089 222.725 15.828 222.397 15.6662 222.102C15.5073 221.804 15.2873 221.567 15.0063 221.391C14.7282 221.215 14.4103 221.127 14.0527 221.127C13.7831 221.127 13.5319 221.181 13.2992 221.289C13.0664 221.394 12.8621 221.539 12.6861 221.723C12.513 221.908 12.3768 222.119 12.2774 222.358C12.1781 222.593 12.1284 222.842 12.1284 223.103C12.1284 223.449 12.2093 223.773 12.3711 224.073C12.5357 224.374 12.7599 224.617 13.0437 224.801C13.3304 224.986 13.6554 225.078 14.0187 225.078Z" fill="white"/>
<rect x="4.13867" y="304.964" width="14.5391" height="16.0899" rx="4.35943" fill="#C54600"/>
<path d="M11.1035 317.083C10.5188 317.083 10.0023 316.979 9.55386 316.772C9.10827 316.562 8.76059 316.274 8.51083 315.908C8.26107 315.539 8.13761 315.119 8.14045 314.648C8.13761 314.279 8.20999 313.938 8.35757 313.626C8.50516 313.311 8.70667 313.049 8.9621 312.839C9.22037 312.626 9.50845 312.491 9.82632 312.434V312.383C9.40911 312.275 9.07705 312.041 8.83013 311.681C8.58321 311.317 8.46116 310.904 8.464 310.442C8.46116 309.999 8.57327 309.603 8.80033 309.254C9.02738 308.905 9.33958 308.63 9.73692 308.428C10.1371 308.227 10.5926 308.126 11.1035 308.126C11.6087 308.126 12.06 308.227 12.4573 308.428C12.8547 308.63 13.1668 308.905 13.3939 309.254C13.6238 309.603 13.7402 309.999 13.743 310.442C13.7402 310.904 13.6139 311.317 13.3641 311.681C13.1172 312.041 12.7894 312.275 12.3807 312.383V312.434C12.6957 312.491 12.9795 312.626 13.2321 312.839C13.4847 313.049 13.6862 313.311 13.8367 313.626C13.9871 313.938 14.0637 314.279 14.0665 314.648C14.0637 315.119 13.936 315.539 13.6834 315.908C13.4336 316.274 13.086 316.562 12.6404 316.772C12.1976 316.979 11.6853 317.083 11.1035 317.083ZM11.1035 316.146C11.498 316.146 11.8386 316.083 12.1252 315.955C12.4119 315.827 12.6333 315.647 12.7894 315.414C12.9455 315.181 13.0249 314.909 13.0278 314.597C13.0249 314.268 12.9398 313.977 12.7723 313.724C12.6049 313.471 12.3764 313.273 12.0869 313.128C11.8003 312.983 11.4725 312.911 11.1035 312.911C10.7317 312.911 10.3996 312.983 10.1073 313.128C9.81781 313.273 9.58934 313.471 9.42188 313.724C9.25727 313.977 9.17638 314.268 9.17922 314.597C9.17638 314.909 9.25159 315.181 9.40486 315.414C9.56095 315.647 9.78375 315.827 10.0732 315.955C10.3627 316.083 10.7062 316.146 11.1035 316.146ZM11.1035 312.008C11.4157 312.008 11.6924 311.946 11.9337 311.821C12.1777 311.696 12.3693 311.522 12.5084 311.297C12.6475 311.073 12.7184 310.811 12.7213 310.51C12.7184 310.215 12.6489 309.958 12.5127 309.739C12.3764 309.518 12.1877 309.348 11.9464 309.228C11.7052 309.106 11.4242 309.045 11.1035 309.045C10.7771 309.045 10.4919 309.106 10.2478 309.228C10.0037 309.348 9.81497 309.518 9.68158 309.739C9.54818 309.958 9.48291 310.215 9.48574 310.51C9.48291 310.811 9.5496 311.073 9.68583 311.297C9.8249 311.522 10.0165 311.696 10.2606 311.821C10.5046 311.946 10.7856 312.008 11.1035 312.008Z" fill="white"/>
<rect y="262.189" width="21.5391" height="16.0899" rx="4.35943" fill="#C54600"/>
<path d="M4.17207 274.189V273.423L7.04997 270.273C7.38772 269.904 7.66586 269.583 7.88439 269.311C8.10293 269.035 8.26471 268.777 8.36972 268.536C8.47757 268.292 8.5315 268.036 8.5315 267.77C8.5315 267.463 8.45771 267.198 8.31012 266.973C8.16537 266.749 7.9667 266.576 7.7141 266.454C7.46151 266.332 7.17769 266.271 6.86265 266.271C6.52775 266.271 6.23542 266.34 5.98566 266.48C5.73874 266.616 5.54716 266.807 5.41093 267.054C5.27754 267.301 5.21084 267.591 5.21084 267.923H4.20613C4.20613 267.412 4.32391 266.963 4.55948 266.577C4.79505 266.191 5.11576 265.891 5.52162 265.675C5.93032 265.459 6.38868 265.351 6.89671 265.351C7.40758 265.351 7.86027 265.459 8.25478 265.675C8.64928 265.891 8.95864 266.182 9.18286 266.548C9.40707 266.914 9.51918 267.321 9.51918 267.77C9.51918 268.09 9.461 268.404 9.34463 268.71C9.23111 269.014 9.03243 269.353 8.74862 269.728C8.46764 270.1 8.07739 270.554 7.57787 271.09L5.61954 273.185V273.253H9.67244V274.189H4.17207ZM14.2234 274.309C13.6388 274.309 13.1222 274.205 12.6738 273.998C12.2282 273.788 11.8805 273.5 11.6308 273.134C11.381 272.765 11.2576 272.345 11.2604 271.874C11.2576 271.505 11.3299 271.164 11.4775 270.852C11.6251 270.537 11.8266 270.274 12.082 270.064C12.3403 269.851 12.6284 269.716 12.9463 269.66V269.609C12.5291 269.501 12.197 269.267 11.9501 268.906C11.7032 268.543 11.5811 268.13 11.5839 267.667C11.5811 267.225 11.6932 266.829 11.9203 266.48C12.1473 266.13 12.4595 265.855 12.8569 265.654C13.257 265.452 13.7126 265.351 14.2234 265.351C14.7286 265.351 15.1799 265.452 15.5773 265.654C15.9746 265.855 16.2868 266.13 16.5138 266.48C16.7437 266.829 16.8601 267.225 16.8629 267.667C16.8601 268.13 16.7338 268.543 16.484 268.906C16.2371 269.267 15.9093 269.501 15.5006 269.609V269.66C15.8157 269.716 16.0995 269.851 16.3521 270.064C16.6047 270.274 16.8062 270.537 16.9566 270.852C17.107 271.164 17.1837 271.505 17.1865 271.874C17.1837 272.345 17.0559 272.765 16.8033 273.134C16.5536 273.5 16.2059 273.788 15.7603 273.998C15.3176 274.205 14.8053 274.309 14.2234 274.309ZM14.2234 273.372C14.618 273.372 14.9585 273.308 15.2452 273.18C15.5318 273.053 15.7532 272.873 15.9093 272.64C16.0654 272.407 16.1449 272.135 16.1477 271.822C16.1449 271.493 16.0597 271.202 15.8923 270.95C15.7248 270.697 15.4964 270.498 15.2069 270.354C14.9202 270.209 14.5924 270.137 14.2234 270.137C13.8516 270.137 13.5196 270.209 13.2272 270.354C12.9378 270.498 12.7093 270.697 12.5418 270.95C12.3772 271.202 12.2963 271.493 12.2992 271.822C12.2963 272.135 12.3715 272.407 12.5248 272.64C12.6809 272.873 12.9037 273.053 13.1932 273.18C13.4827 273.308 13.8261 273.372 14.2234 273.372ZM14.2234 269.234C14.5356 269.234 14.8124 269.172 15.0536 269.047C15.2977 268.922 15.4893 268.747 15.6283 268.523C15.7674 268.299 15.8384 268.036 15.8412 267.735C15.8384 267.44 15.7688 267.183 15.6326 266.965C15.4964 266.744 15.3076 266.573 15.0664 266.454C14.8251 266.332 14.5442 266.271 14.2234 266.271C13.8971 266.271 13.6118 266.332 13.3677 266.454C13.1237 266.573 12.9349 266.744 12.8015 266.965C12.6681 267.183 12.6029 267.44 12.6057 267.735C12.6029 268.036 12.6695 268.299 12.8058 268.523C12.9449 268.747 13.1364 268.922 13.3805 269.047C13.6246 269.172 13.9056 269.234 14.2234 269.234Z" fill="white"/>
<defs>
<filter id="filter0_dd_1099_78825" x="25.1869" y="175.094" width="240.398" height="197.347" filterUnits="userSpaceOnUse" color-interpolation-filters="sRGB">
<feFlood flood-opacity="0" result="BackgroundImageFix"/>
<feColorMatrix in="SourceAlpha" type="matrix" values="0 0 0 0 0 0 0 0 0 0 0 0 0 0 0 0 0 0 127 0" result="hardAlpha"/>
<feOffset/>
<feGaussianBlur stdDeviation="2.45303"/>
<feComposite in2="hardAlpha" operator="out"/>
<feColorMatrix type="matrix" values="0 0 0 0 0 0 0 0 0 0 0 0 0 0 0 0 0 0 0.12 0"/>
<feBlend mode="normal" in2="BackgroundImageFix" result="effect1_dropShadow_1099_78825"/>
<feColorMatrix in="SourceAlpha" type="matrix" values="0 0 0 0 0 0 0 0 0 0 0 0 0 0 0 0 0 0 127 0" result="hardAlpha"/>
<feOffset dy="4.90607"/>
<feGaussianBlur stdDeviation="4.90607"/>
<feComposite in2="hardAlpha" operator="out"/>
<feColorMatrix type="matrix" values="0 0 0 0 0 0 0 0 0 0 0 0 0 0 0 0 0 0 0.12 0"/>
<feBlend mode="normal" in2="effect1_dropShadow_1099_78825" result="effect2_dropShadow_1099_78825"/>
<feBlend mode="normal" in="SourceGraphic" in2="effect2_dropShadow_1099_78825" result="shape"/>
</filter>
<clipPath id="clip0_1099_78825">
<rect width="220.773" height="354.341" fill="white" transform="translate(35.0479 3.33203)"/>
</clipPath>
<clipPath id="clip1_1099_78825">
<path d="M34.999 202.077C34.999 189.884 44.8834 180 57.0763 180H233.695C245.888 180 255.772 189.884 255.772 202.077V357.722H34.999V202.077Z" fill="white"/>
</clipPath>
</defs>
</svg>
