<svg width="592" height="340" viewBox="0 0 592 340" fill="none" xmlns="http://www.w3.org/2000/svg">
<mask id="path-1-inside-1_1101_63645" fill="white">
<path d="M52.4316 56.5728C52.4316 50.4764 57.3738 45.5342 63.4703 45.5342H482.939C489.036 45.5342 493.978 50.4764 493.978 56.5728V247.929C493.978 254.026 489.036 258.968 482.939 258.968H63.4703C57.3738 258.968 52.4316 254.026 52.4316 247.929V56.5728Z"/>
</mask>
<path d="M52.4316 56.5728C52.4316 50.4764 57.3738 45.5342 63.4703 45.5342H482.939C489.036 45.5342 493.978 50.4764 493.978 56.5728V247.929C493.978 254.026 489.036 258.968 482.939 258.968H63.4703C57.3738 258.968 52.4316 254.026 52.4316 247.929V56.5728Z" fill="white"/>
<path d="M63.4703 45.5342V46.914H482.939V45.5342V44.1543H63.4703V45.5342ZM493.978 56.5728H492.598V247.929H493.978H495.358V56.5728H493.978ZM482.939 258.968V257.588H63.4703V258.968V260.348H482.939V258.968ZM52.4316 247.929H53.8115V56.5728H52.4316H51.0518V247.929H52.4316ZM63.4703 258.968V257.588C58.1359 257.588 53.8115 253.264 53.8115 247.929H52.4316H51.0518C51.0518 254.788 56.6118 260.348 63.4703 260.348V258.968ZM493.978 247.929H492.598C492.598 253.264 488.274 257.588 482.939 257.588V258.968V260.348C489.798 260.348 495.358 254.788 495.358 247.929H493.978ZM482.939 45.5342V46.914C488.274 46.914 492.598 51.2384 492.598 56.5728H493.978H495.358C495.358 49.7143 489.798 44.1543 482.939 44.1543V45.5342ZM63.4703 45.5342V44.1543C56.6118 44.1543 51.0518 49.7143 51.0518 56.5728H52.4316H53.8115C53.8115 51.2384 58.1359 46.914 63.4703 46.914V45.5342Z" fill="#E0E0E0" mask="url(#path-1-inside-1_1101_63645)"/>
<path d="M78.1965 74.4857H80.8237V69.8053H82.3912V81.1751H80.8237V75.8324H78.1965V74.4857ZM70.7785 80.1374V70.7767H78.064V72.1234H72.3681V74.7064H77.2913V76.009H72.3681V78.7907C75.1719 78.7907 76.916 78.6803 78.9692 78.2609L79.1237 79.6076C76.916 80.0491 75.0836 80.1374 71.9927 80.1374H70.7785ZM73.1628 83.6257V82.2789H86.1222V88.7034H84.4885V83.6257H73.1628ZM84.5547 81.3296V69.3858H86.1222V81.3296H84.5547ZM96.7778 70.7104H98.4998V72.2117C98.4998 75.5674 102.297 78.5037 105.587 79.1219L104.814 80.4907C101.966 79.8284 98.8752 77.7531 97.6388 74.9051C96.4025 77.7531 93.3337 79.8284 90.4637 80.4907L89.7351 79.1219C92.9805 78.4816 96.7778 75.5674 96.7778 72.2117V70.7104ZM88.9624 86.0542V84.6854H106.47V86.0542H88.9624ZM110.326 71.0637H123.351V72.4104H112.003V75.3687H122.932V76.7155H112.003V79.8284H123.55V81.1972H110.326V71.0637ZM108.052 86.1645V84.7958H125.559V86.1645H108.052ZM127.141 78.4154H144.648V79.6738H127.141V78.4154ZM129.238 82.4997V81.2855H142.44V85.3698H130.916V87.2243H143.058V88.4606H129.282V84.1997H140.829V82.4997H129.238ZM129.37 71.1961V69.9819H142.374V73.9558H131.026V75.6778H142.727V76.9142H129.415V72.8078H140.74V71.1961H129.37ZM165.24 69.3858H166.896V79.7401H165.24V69.3858ZM151.552 74.7506C151.552 72.1234 153.65 70.3351 156.564 70.3351C159.478 70.3351 161.576 72.1234 161.576 74.7506C161.576 77.3778 159.478 79.1881 156.564 79.1881C153.65 79.1881 151.552 77.3778 151.552 74.7506ZM153.164 74.7506C153.164 76.5388 154.599 77.7972 156.564 77.7972C158.529 77.7972 159.964 76.5388 159.964 74.7506C159.964 72.9623 158.529 71.7039 156.564 71.7039C154.599 71.7039 153.164 72.9623 153.164 74.7506ZM154.511 88.4385V80.7335H156.145V83.1179H165.262V80.7335H166.896V88.4385H154.511ZM156.145 87.0918H165.262V84.4425H156.145V87.0918ZM170.951 70.5559H179.274V75.9648H172.651V79.0115C176.293 79.0115 178.148 78.9453 180.422 78.5258L180.598 79.8725C178.192 80.292 176.271 80.3582 172.364 80.3582H171.017V74.6623H177.64V71.9247H170.951V70.5559ZM173.158 83.6698V82.3231H186.052V88.7476H184.396V83.6698H173.158ZM180.554 77.6206V76.2739H184.396V73.6467H180.554V72.2779H184.396V69.4079H186.052V81.2634H184.396V77.6206H180.554ZM189.245 72.7415H193.241V69.9377H194.875V72.7415H198.849V74.0883H189.245V72.7415ZM189.929 79.8063C189.929 77.2453 191.651 75.435 194.058 75.435C196.464 75.435 198.208 77.2453 198.208 79.8063C198.208 82.4114 196.464 84.1997 194.058 84.1997C191.651 84.1997 189.929 82.4114 189.929 79.8063ZM191.409 79.8063C191.409 81.5504 192.512 82.7867 194.058 82.7867C195.603 82.7867 196.729 81.5504 196.729 79.8063C196.729 78.0843 195.603 76.8258 194.058 76.8258C192.512 76.8258 191.409 78.0843 191.409 79.8063ZM199.864 87.732V69.8494H201.432V77.5544H204.015V69.3858H205.582V88.7034H204.015V78.9232H201.432V87.732H199.864ZM208.378 80.4465H225.841V81.8153H217.894V88.7034H216.26V81.8153H208.378V80.4465ZM209.438 77.4219C212.728 76.9362 216.194 74.7285 216.194 72.1234V71.9688H210.034V70.6221H224.141V71.9688H218.026V72.1234C218.026 74.7285 221.492 76.9362 224.782 77.4219L224.141 78.7687C221.205 78.2609 218.269 76.6272 217.121 74.287C215.951 76.6272 213.015 78.2609 210.078 78.7687L209.438 77.4219ZM235.062 76.3401H238.329V69.8273H239.875V87.71H238.329V77.731H235.062V76.3401ZM227.247 83.2724C229.874 81.727 231.53 78.2609 231.53 74.9493V71.2403H233.119V74.9051C233.119 77.9739 234.643 81.2855 237.181 82.8088L236.21 84.0893C234.356 82.9854 233.031 80.8881 232.346 78.5479C231.64 81.1088 230.205 83.3387 228.284 84.5088L227.247 83.2724ZM242.259 88.7034V69.3858H243.849V88.7034H242.259ZM246.556 84.8178H250.906V79.5414C249.272 78.7024 248.279 77.3115 248.279 75.5674C248.279 72.5649 251.215 70.6221 255.277 70.6221C259.383 70.6221 262.276 72.5649 262.276 75.5674C262.276 77.2895 261.304 78.6583 259.715 79.5193V84.8178H264.064V86.1866H246.556V84.8178ZM249.89 75.5674C249.89 77.7531 252.142 79.1881 255.277 79.1881C258.412 79.1881 260.686 77.7531 260.686 75.5674C260.686 73.3818 258.412 71.9468 255.277 71.9468C252.142 71.9468 249.89 73.3818 249.89 75.5674ZM252.539 84.8178H258.059V80.1595C257.22 80.3803 256.293 80.4907 255.277 80.4907C254.284 80.4907 253.378 80.3803 252.539 80.1595V84.8178ZM273.969 74.4857H276.596V69.8053H278.163V81.1751H276.596V75.8324H273.969V74.4857ZM266.551 80.1374V70.7767H273.836V72.1234H268.14V74.7064H273.064V76.009H268.14V78.7907C270.944 78.7907 272.688 78.6803 274.741 78.2609L274.896 79.6076C272.688 80.0491 270.856 80.1374 267.765 80.1374H266.551ZM268.935 83.6257V82.2789H281.895V88.7034H280.261V83.6257H268.935ZM280.327 81.3296V69.3858H281.895V81.3296H280.327ZM292.55 70.7104H294.272V72.2117C294.272 75.5674 298.069 78.5037 301.359 79.1219L300.586 80.4907C297.738 79.8284 294.647 77.7531 293.411 74.9051C292.175 77.7531 289.106 79.8284 286.236 80.4907L285.507 79.1219C288.753 78.4816 292.55 75.5674 292.55 72.2117V70.7104ZM284.735 86.0542V84.6854H302.242V86.0542H284.735ZM306.098 71.0637H319.123V72.4104H307.776V75.3687H318.704V76.7155H307.776V79.8284H319.322V81.1972H306.098V71.0637ZM303.824 86.1645V84.7958H321.331V86.1645H303.824ZM322.913 78.4154H340.42V79.6738H322.913V78.4154ZM325.01 82.4997V81.2855H338.213V85.3698H326.688V87.2243H338.831V88.4606H325.054V84.1997H336.601V82.4997H325.01ZM325.143 71.1961V69.9819H338.146V73.9558H326.799V75.6778H338.5V76.9142H325.187V72.8078H336.513V71.1961H325.143ZM361.013 69.3858H362.668V79.7401H361.013V69.3858ZM347.325 74.7506C347.325 72.1234 349.422 70.3351 352.336 70.3351C355.251 70.3351 357.348 72.1234 357.348 74.7506C357.348 77.3778 355.251 79.1881 352.336 79.1881C349.422 79.1881 347.325 77.3778 347.325 74.7506ZM348.936 74.7506C348.936 76.5388 350.371 77.7972 352.336 77.7972C354.301 77.7972 355.736 76.5388 355.736 74.7506C355.736 72.9623 354.301 71.7039 352.336 71.7039C350.371 71.7039 348.936 72.9623 348.936 74.7506ZM350.283 88.4385V80.7335H351.917V83.1179H361.035V80.7335H362.668V88.4385H350.283ZM351.917 87.0918H361.035V84.4425H351.917V87.0918ZM366.723 70.5559H375.046V75.9648H368.423V79.0115C372.066 79.0115 373.92 78.9453 376.194 78.5258L376.371 79.8725C373.964 80.292 372.044 80.3582 368.136 80.3582H366.789V74.6623H373.412V71.9247H366.723V70.5559ZM368.931 83.6698V82.3231H381.824V88.7476H380.168V83.6698H368.931ZM376.327 77.6206V76.2739H380.168V73.6467H376.327V72.2779H380.168V69.4079H381.824V81.2634H380.168V77.6206H376.327ZM385.017 72.7415H389.013V69.9377H390.647V72.7415H394.621V74.0883H385.017V72.7415ZM385.702 79.8063C385.702 77.2453 387.424 75.435 389.83 75.435C392.237 75.435 393.981 77.2453 393.981 79.8063C393.981 82.4114 392.237 84.1997 389.83 84.1997C387.424 84.1997 385.702 82.4114 385.702 79.8063ZM387.181 79.8063C387.181 81.5504 388.285 82.7867 389.83 82.7867C391.376 82.7867 392.501 81.5504 392.501 79.8063C392.501 78.0843 391.376 76.8258 389.83 76.8258C388.285 76.8258 387.181 78.0843 387.181 79.8063ZM395.636 87.732V69.8494H397.204V77.5544H399.787V69.3858H401.354V88.7034H399.787V78.9232H397.204V87.732H395.636ZM404.151 80.4465H421.614V81.8153H413.666V88.7034H412.032V81.8153H404.151V80.4465ZM405.21 77.4219C408.5 76.9362 411.966 74.7285 411.966 72.1234V71.9688H405.806V70.6221H419.914V71.9688H413.798V72.1234C413.798 74.7285 417.264 76.9362 420.554 77.4219L419.914 78.7687C416.977 78.2609 414.041 76.6272 412.893 74.287C411.723 76.6272 408.787 78.2609 405.851 78.7687L405.21 77.4219ZM430.834 76.3401H434.102V69.8273H435.647V87.71H434.102V77.731H430.834V76.3401ZM423.019 83.2724C425.646 81.727 427.302 78.2609 427.302 74.9493V71.2403H428.891V74.9051C428.891 77.9739 430.415 81.2855 432.954 82.8088L431.982 84.0893C430.128 82.9854 428.803 80.8881 428.119 78.5479C427.412 81.1088 425.977 83.3387 424.057 84.5088L423.019 83.2724ZM438.031 88.7034V69.3858H439.621V88.7034H438.031ZM442.329 84.8178H446.678V79.5414C445.044 78.7024 444.051 77.3115 444.051 75.5674C444.051 72.5649 446.987 70.6221 451.049 70.6221C455.156 70.6221 458.048 72.5649 458.048 75.5674C458.048 77.2895 457.076 78.6583 455.487 79.5193V84.8178H459.836V86.1866H442.329V84.8178ZM445.662 75.5674C445.662 77.7531 447.914 79.1881 451.049 79.1881C454.184 79.1881 456.458 77.7531 456.458 75.5674C456.458 73.3818 454.184 71.9468 451.049 71.9468C447.914 71.9468 445.662 73.3818 445.662 75.5674ZM448.312 84.8178H453.831V80.1595C452.992 80.3803 452.065 80.4907 451.049 80.4907C450.056 80.4907 449.151 80.3803 448.312 80.1595V84.8178ZM78.1965 107.486H80.8237V102.805H82.3912V114.175H80.8237V108.832H78.1965V107.486ZM70.7785 113.137V103.777H78.064V105.123H72.3681V107.706H77.2913V109.009H72.3681V111.791C75.1719 111.791 76.916 111.68 78.9692 111.261L79.1237 112.608C76.916 113.049 75.0836 113.137 71.9927 113.137H70.7785ZM73.1628 116.626V115.279H86.1222V121.703H84.4885V116.626H73.1628ZM84.5547 114.33V102.386H86.1222V114.33H84.5547ZM96.7778 103.71H98.4998V105.212C98.4998 108.567 102.297 111.504 105.587 112.122L104.814 113.491C101.966 112.828 98.8752 110.753 97.6388 107.905C96.4025 110.753 93.3337 112.828 90.4637 113.491L89.7351 112.122C92.9805 111.482 96.7778 108.567 96.7778 105.212V103.71ZM88.9624 119.054V117.685H106.47V119.054H88.9624ZM110.326 104.064H123.351V105.41H112.003V108.369H122.932V109.715H112.003V112.828H123.55V114.197H110.326V104.064ZM108.052 119.165V117.796H125.559V119.165H108.052ZM127.141 111.415H144.648V112.674H127.141V111.415ZM129.238 115.5V114.285H142.44V118.37H130.916V120.224H143.058V121.461H129.282V117.2H140.829V115.5H129.238ZM129.37 104.196V102.982H142.374V106.956H131.026V108.678H142.727V109.914H129.415V105.808H140.74V104.196H129.37ZM165.24 102.386H166.896V112.74H165.24V102.386ZM151.552 107.751C151.552 105.123 153.65 103.335 156.564 103.335C159.478 103.335 161.576 105.123 161.576 107.751C161.576 110.378 159.478 112.188 156.564 112.188C153.65 112.188 151.552 110.378 151.552 107.751ZM153.164 107.751C153.164 109.539 154.599 110.797 156.564 110.797C158.529 110.797 159.964 109.539 159.964 107.751C159.964 105.962 158.529 104.704 156.564 104.704C154.599 104.704 153.164 105.962 153.164 107.751ZM154.511 121.439V113.734H156.145V116.118H165.262V113.734H166.896V121.439H154.511ZM156.145 120.092H165.262V117.443H156.145V120.092ZM170.951 103.556H179.274V108.965H172.651V112.012C176.293 112.012 178.148 111.945 180.422 111.526L180.598 112.873C178.192 113.292 176.271 113.358 172.364 113.358H171.017V107.662H177.64V104.925H170.951V103.556ZM173.158 116.67V115.323H186.052V121.748H184.396V116.67H173.158ZM180.554 110.621V109.274H184.396V106.647H180.554V105.278H184.396V102.408H186.052V114.263H184.396V110.621H180.554ZM189.245 105.742H193.241V102.938H194.875V105.742H198.849V107.088H189.245V105.742ZM189.929 112.806C189.929 110.245 191.651 108.435 194.058 108.435C196.464 108.435 198.208 110.245 198.208 112.806C198.208 115.411 196.464 117.2 194.058 117.2C191.651 117.2 189.929 115.411 189.929 112.806ZM191.409 112.806C191.409 114.55 192.512 115.787 194.058 115.787C195.603 115.787 196.729 114.55 196.729 112.806C196.729 111.084 195.603 109.826 194.058 109.826C192.512 109.826 191.409 111.084 191.409 112.806ZM199.864 120.732V102.849H201.432V110.554H204.015V102.386H205.582V121.703H204.015V111.923H201.432V120.732H199.864ZM208.378 113.447H225.841V114.815H217.894V121.703H216.26V114.815H208.378V113.447ZM209.438 110.422C212.728 109.936 216.194 107.729 216.194 105.123V104.969H210.034V103.622H224.141V104.969H218.026V105.123C218.026 107.729 221.492 109.936 224.782 110.422L224.141 111.769C221.205 111.261 218.269 109.627 217.121 107.287C215.951 109.627 213.015 111.261 210.078 111.769L209.438 110.422ZM235.062 109.34H238.329V102.827H239.875V120.71H238.329V110.731H235.062V109.34ZM227.247 116.272C229.874 114.727 231.53 111.261 231.53 107.949V104.24H233.119V107.905C233.119 110.974 234.643 114.285 237.181 115.809L236.21 117.089C234.356 115.985 233.031 113.888 232.346 111.548C231.64 114.109 230.205 116.339 228.284 117.509L227.247 116.272ZM242.259 121.703V102.386H243.849V121.703H242.259ZM246.556 117.818H250.906V112.541C249.272 111.702 248.279 110.312 248.279 108.567C248.279 105.565 251.215 103.622 255.277 103.622C259.383 103.622 262.276 105.565 262.276 108.567C262.276 110.289 261.304 111.658 259.715 112.519V117.818H264.064V119.187H246.556V117.818ZM249.89 108.567C249.89 110.753 252.142 112.188 255.277 112.188C258.412 112.188 260.686 110.753 260.686 108.567C260.686 106.382 258.412 104.947 255.277 104.947C252.142 104.947 249.89 106.382 249.89 108.567ZM252.539 117.818H258.059V113.16C257.22 113.38 256.293 113.491 255.277 113.491C254.284 113.491 253.378 113.38 252.539 113.16V117.818ZM273.969 107.486H276.596V102.805H278.163V114.175H276.596V108.832H273.969V107.486ZM266.551 113.137V103.777H273.836V105.123H268.14V107.706H273.064V109.009H268.14V111.791C270.944 111.791 272.688 111.68 274.741 111.261L274.896 112.608C272.688 113.049 270.856 113.137 267.765 113.137H266.551ZM268.935 116.626V115.279H281.895V121.703H280.261V116.626H268.935ZM280.327 114.33V102.386H281.895V114.33H280.327ZM292.55 103.71H294.272V105.212C294.272 108.567 298.069 111.504 301.359 112.122L300.586 113.491C297.738 112.828 294.647 110.753 293.411 107.905C292.175 110.753 289.106 112.828 286.236 113.491L285.507 112.122C288.753 111.482 292.55 108.567 292.55 105.212V103.71ZM284.735 119.054V117.685H302.242V119.054H284.735ZM306.098 104.064H319.123V105.41H307.776V108.369H318.704V109.715H307.776V112.828H319.322V114.197H306.098V104.064ZM303.824 119.165V117.796H321.331V119.165H303.824ZM322.913 111.415H340.42V112.674H322.913V111.415ZM325.01 115.5V114.285H338.213V118.37H326.688V120.224H338.831V121.461H325.054V117.2H336.601V115.5H325.01ZM325.143 104.196V102.982H338.146V106.956H326.799V108.678H338.5V109.914H325.187V105.808H336.513V104.196H325.143ZM361.013 102.386H362.668V112.74H361.013V102.386ZM347.325 107.751C347.325 105.123 349.422 103.335 352.336 103.335C355.251 103.335 357.348 105.123 357.348 107.751C357.348 110.378 355.251 112.188 352.336 112.188C349.422 112.188 347.325 110.378 347.325 107.751ZM348.936 107.751C348.936 109.539 350.371 110.797 352.336 110.797C354.301 110.797 355.736 109.539 355.736 107.751C355.736 105.962 354.301 104.704 352.336 104.704C350.371 104.704 348.936 105.962 348.936 107.751ZM350.283 121.439V113.734H351.917V116.118H361.035V113.734H362.668V121.439H350.283ZM351.917 120.092H361.035V117.443H351.917V120.092ZM366.723 103.556H375.046V108.965H368.423V112.012C372.066 112.012 373.92 111.945 376.194 111.526L376.371 112.873C373.964 113.292 372.044 113.358 368.136 113.358H366.789V107.662H373.412V104.925H366.723V103.556ZM368.931 116.67V115.323H381.824V121.748H380.168V116.67H368.931ZM376.327 110.621V109.274H380.168V106.647H376.327V105.278H380.168V102.408H381.824V114.263H380.168V110.621H376.327ZM385.017 105.742H389.013V102.938H390.647V105.742H394.621V107.088H385.017V105.742ZM385.702 112.806C385.702 110.245 387.424 108.435 389.83 108.435C392.237 108.435 393.981 110.245 393.981 112.806C393.981 115.411 392.237 117.2 389.83 117.2C387.424 117.2 385.702 115.411 385.702 112.806ZM387.181 112.806C387.181 114.55 388.285 115.787 389.83 115.787C391.376 115.787 392.501 114.55 392.501 112.806C392.501 111.084 391.376 109.826 389.83 109.826C388.285 109.826 387.181 111.084 387.181 112.806ZM395.636 120.732V102.849H397.204V110.554H399.787V102.386H401.354V121.703H399.787V111.923H397.204V120.732H395.636ZM404.151 113.447H421.614V114.815H413.666V121.703H412.032V114.815H404.151V113.447ZM405.21 110.422C408.5 109.936 411.966 107.729 411.966 105.123V104.969H405.806V103.622H419.914V104.969H413.798V105.123C413.798 107.729 417.264 109.936 420.554 110.422L419.914 111.769C416.977 111.261 414.041 109.627 412.893 107.287C411.723 109.627 408.787 111.261 405.851 111.769L405.21 110.422ZM430.834 109.34H434.102V102.827H435.647V120.71H434.102V110.731H430.834V109.34ZM423.019 116.272C425.646 114.727 427.302 111.261 427.302 107.949V104.24H428.891V107.905C428.891 110.974 430.415 114.285 432.954 115.809L431.982 117.089C430.128 115.985 428.803 113.888 428.119 111.548C427.412 114.109 425.977 116.339 424.057 117.509L423.019 116.272ZM438.031 121.703V102.386H439.621V121.703H438.031ZM442.329 117.818H446.678V112.541C445.044 111.702 444.051 110.312 444.051 108.567C444.051 105.565 446.987 103.622 451.049 103.622C455.156 103.622 458.048 105.565 458.048 108.567C458.048 110.289 457.076 111.658 455.487 112.519V117.818H459.836V119.187H442.329V117.818ZM445.662 108.567C445.662 110.753 447.914 112.188 451.049 112.188C454.184 112.188 456.458 110.753 456.458 108.567C456.458 106.382 454.184 104.947 451.049 104.947C447.914 104.947 445.662 106.382 445.662 108.567ZM448.312 117.818H453.831V113.16C452.992 113.38 452.065 113.491 451.049 113.491C450.056 113.491 449.151 113.38 448.312 113.16V117.818ZM78.1965 140.486H80.8237V135.805H82.3912V147.175H80.8237V141.832H78.1965V140.486ZM70.7785 146.137V136.777H78.064V138.123H72.3681V140.706H77.2913V142.009H72.3681V144.791C75.1719 144.791 76.916 144.68 78.9692 144.261L79.1237 145.608C76.916 146.049 75.0836 146.137 71.9927 146.137H70.7785ZM73.1628 149.626V148.279H86.1222V154.703H84.4885V149.626H73.1628ZM84.5547 147.33V135.386H86.1222V147.33H84.5547ZM96.7778 136.71H98.4998V138.212C98.4998 141.567 102.297 144.504 105.587 145.122L104.814 146.491C101.966 145.828 98.8752 143.753 97.6388 140.905C96.4025 143.753 93.3337 145.828 90.4637 146.491L89.7351 145.122C92.9805 144.482 96.7778 141.567 96.7778 138.212V136.71ZM88.9624 152.054V150.685H106.47V152.054H88.9624ZM110.326 137.064H123.351V138.41H112.003V141.369H122.932V142.715H112.003V145.828H123.55V147.197H110.326V137.064ZM108.052 152.165V150.796H125.559V152.165H108.052ZM127.141 144.415H144.648V145.674H127.141V144.415ZM129.238 148.5V147.285H142.44V151.37H130.916V153.224H143.058V154.461H129.282V150.2H140.829V148.5H129.238ZM129.37 137.196V135.982H142.374V139.956H131.026V141.678H142.727V142.914H129.415V138.808H140.74V137.196H129.37ZM165.24 135.386H166.896V145.74H165.24V135.386ZM151.552 140.751C151.552 138.123 153.65 136.335 156.564 136.335C159.478 136.335 161.576 138.123 161.576 140.751C161.576 143.378 159.478 145.188 156.564 145.188C153.65 145.188 151.552 143.378 151.552 140.751ZM153.164 140.751C153.164 142.539 154.599 143.797 156.564 143.797C158.529 143.797 159.964 142.539 159.964 140.751C159.964 138.962 158.529 137.704 156.564 137.704C154.599 137.704 153.164 138.962 153.164 140.751ZM154.511 154.439V146.734H156.145V149.118H165.262V146.734H166.896V154.439H154.511ZM156.145 153.092H165.262V150.443H156.145V153.092ZM170.951 136.556H179.274V141.965H172.651V145.012C176.293 145.012 178.148 144.945 180.422 144.526L180.598 145.873C178.192 146.292 176.271 146.358 172.364 146.358H171.017V140.662H177.64V137.925H170.951V136.556ZM173.158 149.67V148.323H186.052V154.748H184.396V149.67H173.158ZM180.554 143.621V142.274H184.396V139.647H180.554V138.278H184.396V135.408H186.052V147.263H184.396V143.621H180.554ZM189.245 138.742H193.241V135.938H194.875V138.742H198.849V140.088H189.245V138.742ZM189.929 145.806C189.929 143.245 191.651 141.435 194.058 141.435C196.464 141.435 198.208 143.245 198.208 145.806C198.208 148.411 196.464 150.2 194.058 150.2C191.651 150.2 189.929 148.411 189.929 145.806ZM191.409 145.806C191.409 147.55 192.512 148.787 194.058 148.787C195.603 148.787 196.729 147.55 196.729 145.806C196.729 144.084 195.603 142.826 194.058 142.826C192.512 142.826 191.409 144.084 191.409 145.806ZM199.864 153.732V135.849H201.432V143.554H204.015V135.386H205.582V154.703H204.015V144.923H201.432V153.732H199.864ZM208.378 146.447H225.841V147.815H217.894V154.703H216.26V147.815H208.378V146.447ZM209.438 143.422C212.728 142.936 216.194 140.729 216.194 138.123V137.969H210.034V136.622H224.141V137.969H218.026V138.123C218.026 140.729 221.492 142.936 224.782 143.422L224.141 144.769C221.205 144.261 218.269 142.627 217.121 140.287C215.951 142.627 213.015 144.261 210.078 144.769L209.438 143.422ZM235.062 142.34H238.329V135.827H239.875V153.71H238.329V143.731H235.062V142.34ZM227.247 149.272C229.874 147.727 231.53 144.261 231.53 140.949V137.24H233.119V140.905C233.119 143.974 234.643 147.285 237.181 148.809L236.21 150.089C234.356 148.985 233.031 146.888 232.346 144.548C231.64 147.109 230.205 149.339 228.284 150.509L227.247 149.272ZM242.259 154.703V135.386H243.849V154.703H242.259ZM246.556 150.818H250.906V145.541C249.272 144.702 248.279 143.312 248.279 141.567C248.279 138.565 251.215 136.622 255.277 136.622C259.383 136.622 262.276 138.565 262.276 141.567C262.276 143.289 261.304 144.658 259.715 145.519V150.818H264.064V152.187H246.556V150.818ZM249.89 141.567C249.89 143.753 252.142 145.188 255.277 145.188C258.412 145.188 260.686 143.753 260.686 141.567C260.686 139.382 258.412 137.947 255.277 137.947C252.142 137.947 249.89 139.382 249.89 141.567ZM252.539 150.818H258.059V146.16C257.22 146.38 256.293 146.491 255.277 146.491C254.284 146.491 253.378 146.38 252.539 146.16V150.818ZM273.969 140.486H276.596V135.805H278.163V147.175H276.596V141.832H273.969V140.486ZM266.551 146.137V136.777H273.836V138.123H268.14V140.706H273.064V142.009H268.14V144.791C270.944 144.791 272.688 144.68 274.741 144.261L274.896 145.608C272.688 146.049 270.856 146.137 267.765 146.137H266.551ZM268.935 149.626V148.279H281.895V154.703H280.261V149.626H268.935ZM280.327 147.33V135.386H281.895V147.33H280.327ZM292.55 136.71H294.272V138.212C294.272 141.567 298.069 144.504 301.359 145.122L300.586 146.491C297.738 145.828 294.647 143.753 293.411 140.905C292.175 143.753 289.106 145.828 286.236 146.491L285.507 145.122C288.753 144.482 292.55 141.567 292.55 138.212V136.71ZM284.735 152.054V150.685H302.242V152.054H284.735ZM306.098 137.064H319.123V138.41H307.776V141.369H318.704V142.715H307.776V145.828H319.322V147.197H306.098V137.064ZM303.824 152.165V150.796H321.331V152.165H303.824ZM322.913 144.415H340.42V145.674H322.913V144.415ZM325.01 148.5V147.285H338.213V151.37H326.688V153.224H338.831V154.461H325.054V150.2H336.601V148.5H325.01ZM325.143 137.196V135.982H338.146V139.956H326.799V141.678H338.5V142.914H325.187V138.808H336.513V137.196H325.143ZM361.013 135.386H362.668V145.74H361.013V135.386ZM347.325 140.751C347.325 138.123 349.422 136.335 352.336 136.335C355.251 136.335 357.348 138.123 357.348 140.751C357.348 143.378 355.251 145.188 352.336 145.188C349.422 145.188 347.325 143.378 347.325 140.751ZM348.936 140.751C348.936 142.539 350.371 143.797 352.336 143.797C354.301 143.797 355.736 142.539 355.736 140.751C355.736 138.962 354.301 137.704 352.336 137.704C350.371 137.704 348.936 138.962 348.936 140.751ZM350.283 154.439V146.734H351.917V149.118H361.035V146.734H362.668V154.439H350.283ZM351.917 153.092H361.035V150.443H351.917V153.092ZM366.723 136.556H375.046V141.965H368.423V145.012C372.066 145.012 373.92 144.945 376.194 144.526L376.371 145.873C373.964 146.292 372.044 146.358 368.136 146.358H366.789V140.662H373.412V137.925H366.723V136.556ZM368.931 149.67V148.323H381.824V154.748H380.168V149.67H368.931ZM376.327 143.621V142.274H380.168V139.647H376.327V138.278H380.168V135.408H381.824V147.263H380.168V143.621H376.327ZM385.017 138.742H389.013V135.938H390.647V138.742H394.621V140.088H385.017V138.742ZM385.702 145.806C385.702 143.245 387.424 141.435 389.83 141.435C392.237 141.435 393.981 143.245 393.981 145.806C393.981 148.411 392.237 150.2 389.83 150.2C387.424 150.2 385.702 148.411 385.702 145.806ZM387.181 145.806C387.181 147.55 388.285 148.787 389.83 148.787C391.376 148.787 392.501 147.55 392.501 145.806C392.501 144.084 391.376 142.826 389.83 142.826C388.285 142.826 387.181 144.084 387.181 145.806ZM395.636 153.732V135.849H397.204V143.554H399.787V135.386H401.354V154.703H399.787V144.923H397.204V153.732H395.636ZM404.151 146.447H421.614V147.815H413.666V154.703H412.032V147.815H404.151V146.447ZM405.21 143.422C408.5 142.936 411.966 140.729 411.966 138.123V137.969H405.806V136.622H419.914V137.969H413.798V138.123C413.798 140.729 417.264 142.936 420.554 143.422L419.914 144.769C416.977 144.261 414.041 142.627 412.893 140.287C411.723 142.627 408.787 144.261 405.851 144.769L405.21 143.422ZM430.834 142.34H434.102V135.827H435.647V153.71H434.102V143.731H430.834V142.34ZM423.019 149.272C425.646 147.727 427.302 144.261 427.302 140.949V137.24H428.891V140.905C428.891 143.974 430.415 147.285 432.954 148.809L431.982 150.089C430.128 148.985 428.803 146.888 428.119 144.548C427.412 147.109 425.977 149.339 424.057 150.509L423.019 149.272ZM438.031 154.703V135.386H439.621V154.703H438.031ZM442.329 150.818H446.678V145.541C445.044 144.702 444.051 143.312 444.051 141.567C444.051 138.565 446.987 136.622 451.049 136.622C455.156 136.622 458.048 138.565 458.048 141.567C458.048 143.289 457.076 144.658 455.487 145.519V150.818H459.836V152.187H442.329V150.818ZM445.662 141.567C445.662 143.753 447.914 145.188 451.049 145.188C454.184 145.188 456.458 143.753 456.458 141.567C456.458 139.382 454.184 137.947 451.049 137.947C447.914 137.947 445.662 139.382 445.662 141.567ZM448.312 150.818H453.831V146.16C452.992 146.38 452.065 146.491 451.049 146.491C450.056 146.491 449.151 146.38 448.312 146.16V150.818ZM78.1965 173.486H80.8237V168.805H82.3912V180.175H80.8237V174.832H78.1965V173.486ZM70.7785 179.137V169.777H78.064V171.123H72.3681V173.706H77.2913V175.009H72.3681V177.791C75.1719 177.791 76.916 177.68 78.9692 177.261L79.1237 178.608C76.916 179.049 75.0836 179.137 71.9927 179.137H70.7785ZM73.1628 182.626V181.279H86.1222V187.703H84.4885V182.626H73.1628ZM84.5547 180.33V168.386H86.1222V180.33H84.5547ZM96.7778 169.71H98.4998V171.212C98.4998 174.567 102.297 177.504 105.587 178.122L104.814 179.491C101.966 178.828 98.8752 176.753 97.6388 173.905C96.4025 176.753 93.3337 178.828 90.4637 179.491L89.7351 178.122C92.9805 177.482 96.7778 174.567 96.7778 171.212V169.71ZM88.9624 185.054V183.685H106.47V185.054H88.9624ZM110.326 170.064H123.351V171.41H112.003V174.369H122.932V175.715H112.003V178.828H123.55V180.197H110.326V170.064ZM108.052 185.165V183.796H125.559V185.165H108.052ZM127.141 177.415H144.648V178.674H127.141V177.415ZM129.238 181.5V180.285H142.44V184.37H130.916V186.224H143.058V187.461H129.282V183.2H140.829V181.5H129.238ZM129.37 170.196V168.982H142.374V172.956H131.026V174.678H142.727V175.914H129.415V171.808H140.74V170.196H129.37ZM165.24 168.386H166.896V178.74H165.24V168.386ZM151.552 173.751C151.552 171.123 153.65 169.335 156.564 169.335C159.478 169.335 161.576 171.123 161.576 173.751C161.576 176.378 159.478 178.188 156.564 178.188C153.65 178.188 151.552 176.378 151.552 173.751ZM153.164 173.751C153.164 175.539 154.599 176.797 156.564 176.797C158.529 176.797 159.964 175.539 159.964 173.751C159.964 171.962 158.529 170.704 156.564 170.704C154.599 170.704 153.164 171.962 153.164 173.751ZM154.511 187.439V179.734H156.145V182.118H165.262V179.734H166.896V187.439H154.511ZM156.145 186.092H165.262V183.443H156.145V186.092ZM170.951 169.556H179.274V174.965H172.651V178.012C176.293 178.012 178.148 177.945 180.422 177.526L180.598 178.873C178.192 179.292 176.271 179.358 172.364 179.358H171.017V173.662H177.64V170.925H170.951V169.556ZM173.158 182.67V181.323H186.052V187.748H184.396V182.67H173.158ZM180.554 176.621V175.274H184.396V172.647H180.554V171.278H184.396V168.408H186.052V180.263H184.396V176.621H180.554ZM189.245 171.742H193.241V168.938H194.875V171.742H198.849V173.088H189.245V171.742ZM189.929 178.806C189.929 176.245 191.651 174.435 194.058 174.435C196.464 174.435 198.208 176.245 198.208 178.806C198.208 181.411 196.464 183.2 194.058 183.2C191.651 183.2 189.929 181.411 189.929 178.806ZM191.409 178.806C191.409 180.55 192.512 181.787 194.058 181.787C195.603 181.787 196.729 180.55 196.729 178.806C196.729 177.084 195.603 175.826 194.058 175.826C192.512 175.826 191.409 177.084 191.409 178.806ZM199.864 186.732V168.849H201.432V176.554H204.015V168.386H205.582V187.703H204.015V177.923H201.432V186.732H199.864ZM208.378 179.447H225.841V180.815H217.894V187.703H216.26V180.815H208.378V179.447ZM209.438 176.422C212.728 175.936 216.194 173.729 216.194 171.123V170.969H210.034V169.622H224.141V170.969H218.026V171.123C218.026 173.729 221.492 175.936 224.782 176.422L224.141 177.769C221.205 177.261 218.269 175.627 217.121 173.287C215.951 175.627 213.015 177.261 210.078 177.769L209.438 176.422ZM235.062 175.34H238.329V168.827H239.875V186.71H238.329V176.731H235.062V175.34ZM227.247 182.272C229.874 180.727 231.53 177.261 231.53 173.949V170.24H233.119V173.905C233.119 176.974 234.643 180.285 237.181 181.809L236.21 183.089C234.356 181.985 233.031 179.888 232.346 177.548C231.64 180.109 230.205 182.339 228.284 183.509L227.247 182.272ZM242.259 187.703V168.386H243.849V187.703H242.259ZM246.556 183.818H250.906V178.541C249.272 177.702 248.279 176.312 248.279 174.567C248.279 171.565 251.215 169.622 255.277 169.622C259.383 169.622 262.276 171.565 262.276 174.567C262.276 176.289 261.304 177.658 259.715 178.519V183.818H264.064V185.187H246.556V183.818ZM249.89 174.567C249.89 176.753 252.142 178.188 255.277 178.188C258.412 178.188 260.686 176.753 260.686 174.567C260.686 172.382 258.412 170.947 255.277 170.947C252.142 170.947 249.89 172.382 249.89 174.567ZM252.539 183.818H258.059V179.16C257.22 179.38 256.293 179.491 255.277 179.491C254.284 179.491 253.378 179.38 252.539 179.16V183.818Z" fill="#BDBDBD"/>
<mask id="path-4-inside-2_1101_63645" fill="white">
<path d="M68.9902 206.131H477.42V242.41H68.9902V206.131Z"/>
</mask>
<path d="M68.9902 206.131H477.42V242.41H68.9902V206.131Z" fill="white"/>
<path d="M68.9902 206.131V207.511H477.42V206.131V204.751H68.9902V206.131Z" fill="#EEEEEE" mask="url(#path-4-inside-2_1101_63645)"/>
<path d="M404.571 234.155C406.773 234.155 408.126 232.319 408.126 228.436C408.126 224.554 406.773 222.738 404.571 222.738C402.35 222.738 400.997 224.554 400.997 228.436C400.997 232.319 402.35 234.155 404.571 234.155ZM399.607 228.436C399.607 223.974 401.577 221.347 404.571 221.347C407.546 221.347 409.517 223.974 409.517 228.436C409.517 232.899 407.565 235.545 404.571 235.545C401.558 235.545 399.607 232.899 399.607 228.436ZM416.437 234.155C418.639 234.155 419.992 232.319 419.992 228.436C419.992 224.554 418.639 222.738 416.437 222.738C414.216 222.738 412.863 224.554 412.863 228.436C412.863 232.319 414.216 234.155 416.437 234.155ZM411.473 228.436C411.473 223.974 413.443 221.347 416.437 221.347C419.412 221.347 421.383 223.974 421.383 228.436C421.383 232.899 419.431 235.545 416.437 235.545C413.424 235.545 411.473 232.899 411.473 228.436ZM428.303 234.155C430.505 234.155 431.858 232.319 431.858 228.436C431.858 224.554 430.505 222.738 428.303 222.738C426.082 222.738 424.729 224.554 424.729 228.436C424.729 232.319 426.082 234.155 428.303 234.155ZM423.339 228.436C423.339 223.974 425.309 221.347 428.303 221.347C431.278 221.347 433.249 223.974 433.249 228.436C433.249 232.899 431.297 235.545 428.303 235.545C425.29 235.545 423.339 232.899 423.339 228.436ZM440.556 220.651L436.518 236.337H435.127L439.184 220.651H440.556ZM447.753 234.155C449.955 234.155 451.307 232.319 451.307 228.436C451.307 224.554 449.955 222.738 447.753 222.738C445.531 222.738 444.179 224.554 444.179 228.436C444.179 232.319 445.531 234.155 447.753 234.155ZM442.788 228.436C442.788 223.974 444.759 221.347 447.753 221.347C450.728 221.347 452.698 223.974 452.698 228.436C452.698 232.899 450.747 235.545 447.753 235.545C444.739 235.545 442.788 232.899 442.788 228.436ZM459.619 234.155C461.821 234.155 463.173 232.319 463.173 228.436C463.173 224.554 461.821 222.738 459.619 222.738C457.397 222.738 456.045 224.554 456.045 228.436C456.045 232.319 457.397 234.155 459.619 234.155ZM454.654 228.436C454.654 223.974 456.625 221.347 459.619 221.347C462.594 221.347 464.564 223.974 464.564 228.436C464.564 232.899 462.613 235.545 459.619 235.545C456.605 235.545 454.654 232.899 454.654 228.436ZM471.485 234.155C473.687 234.155 475.039 232.319 475.039 228.436C475.039 224.554 473.687 222.738 471.485 222.738C469.263 222.738 467.911 224.554 467.911 228.436C467.911 232.319 469.263 234.155 471.485 234.155ZM466.52 228.436C466.52 223.974 468.491 221.347 471.485 221.347C474.46 221.347 476.43 223.974 476.43 228.436C476.43 232.899 474.479 235.545 471.485 235.545C468.471 235.545 466.52 232.899 466.52 228.436Z" fill="#999999"/>
<path fill-rule="evenodd" clip-rule="evenodd" d="M81.4503 277.899C81.8545 278.303 81.8545 278.958 81.4503 279.362L65.5823 295.23C65.1781 295.635 64.5229 295.635 64.1187 295.23L56.5297 287.641C56.1255 287.237 56.1255 286.582 56.5297 286.178C56.9338 285.774 57.5891 285.774 57.9932 286.178L64.8505 293.035L79.9868 277.899C80.391 277.495 81.0462 277.495 81.4503 277.899Z" fill="#999999"/>
<path d="M102.812 280.117V294.064H101.421V287.574H94.08V294.064H92.6891V280.117H94.08V286.221H101.421V280.117H102.812ZM112.681 288.462C112.526 287.071 111.85 285.584 109.764 285.584C107.929 285.584 106.75 286.569 106.499 288.482L112.681 288.462ZM105.07 289.158C105.07 286.453 106.693 284.193 109.706 284.193C112.836 284.193 113.628 286.627 113.724 286.859C114.304 288.443 114.072 289.834 114.072 289.834H106.499C106.75 291.65 107.929 292.732 109.725 292.732C111.947 292.732 112.488 291.515 112.623 291.321L113.821 291.959C113.821 291.959 113.009 294.122 109.706 294.122C106.693 294.122 105.07 291.843 105.07 289.158ZM115.809 279.731H117.2V294.064H115.809V279.731ZM124.454 292.867C126.579 292.867 127.776 291.283 127.776 289.216C127.776 287.187 126.579 285.603 124.454 285.603C122.677 285.603 121.15 287.187 121.15 289.216C121.15 291.283 122.677 292.867 124.454 292.867ZM119.74 298.508V284.232H121.131V286.318C121.769 284.927 123.275 284.251 124.473 284.251C127.487 284.251 129.167 286.55 129.167 289.216C129.167 291.92 127.487 294.219 124.473 294.219C123.237 294.219 121.769 293.388 121.131 292.133V298.508H119.74ZM148.45 288.037C148.45 286.473 147.503 285.584 146.112 285.584C144.818 285.584 143.485 286.801 143.485 288.037V294.064H142.094V288.037C142.094 286.801 141.302 285.584 139.795 285.584C138.424 285.584 137.149 286.801 137.149 288.192V294.064H135.758V284.232H137.149V285.932C137.767 284.869 138.675 284.232 139.853 284.232C141.283 284.232 142.229 284.85 142.925 286.202C143.64 285.198 144.625 284.232 146.17 284.232C148.179 284.232 149.841 285.854 149.841 287.883V294.064H148.45V288.037ZM159.431 288.462C159.276 287.071 158.6 285.584 156.514 285.584C154.679 285.584 153.5 286.569 153.249 288.482L159.431 288.462ZM151.82 289.158C151.82 286.453 153.442 284.193 156.456 284.193C159.585 284.193 160.377 286.627 160.474 286.859C161.054 288.443 160.822 289.834 160.822 289.834H153.249C153.5 291.65 154.679 292.732 156.475 292.732C158.697 292.732 159.238 291.515 159.373 291.321L160.571 291.959C160.571 291.959 159.759 294.122 156.456 294.122C153.442 294.122 151.82 291.843 151.82 289.158ZM163.603 291.399C163.989 292.287 164.897 292.809 166.075 292.751C167.775 292.712 168.451 290.607 166.713 290.046C166.075 289.853 164.916 289.544 163.97 288.926C162.501 287.941 162.521 286.492 162.965 285.603C163.564 284.425 165.09 284.077 165.979 284.155C166.809 284.251 167.968 284.541 168.702 285.526L167.582 286.337C167.176 285.777 166.519 285.603 165.863 285.526C165.264 285.468 164.472 285.681 164.182 286.221C163.931 286.743 163.95 287.265 164.742 287.786C165.496 288.288 166.462 288.52 167.138 288.752C170.383 289.795 169.34 294.045 166.114 294.122C164.491 294.2 162.946 293.35 162.347 291.94L163.603 291.399ZM171.602 291.399C171.988 292.287 172.896 292.809 174.074 292.751C175.774 292.712 176.45 290.607 174.712 290.046C174.074 289.853 172.915 289.544 171.969 288.926C170.501 287.941 170.52 286.492 170.964 285.603C171.563 284.425 173.089 284.077 173.978 284.155C174.808 284.251 175.968 284.541 176.702 285.526L175.581 286.337C175.176 285.777 174.519 285.603 173.862 285.526C173.263 285.468 172.471 285.681 172.181 286.221C171.93 286.743 171.949 287.265 172.741 287.786C173.495 288.288 174.461 288.52 175.137 288.752C178.382 289.795 177.339 294.045 174.113 294.122C172.49 294.2 170.945 293.35 170.346 291.94L171.602 291.399ZM183.436 292.809C185.174 292.809 186.739 291.399 186.758 289.235C186.739 287.091 185.174 285.661 183.436 285.661C181.291 285.661 180.132 287.207 180.132 289.235C180.132 291.263 181.291 292.809 183.436 292.809ZM178.742 289.235C178.742 286.55 180.422 284.29 183.416 284.29C184.556 284.29 185.831 284.889 186.72 286.318V284.232H188.111V294.064H186.72V292.133C185.792 293.639 184.575 294.2 183.416 294.2C180.422 294.2 178.742 291.901 178.742 289.235ZM194.85 292.847C196.685 292.847 198.134 291.244 198.134 289.235C198.134 287.265 196.665 285.661 194.85 285.661C192.84 285.661 191.546 287.071 191.546 289.235C191.546 291.437 192.84 292.847 194.85 292.847ZM190.155 289.235C190.155 286.318 192.068 284.309 194.83 284.309C196.298 284.309 197.554 285.082 198.134 286.337V284.232H199.524V293.582C199.486 296.711 197.67 298.488 194.54 298.488C192.976 298.488 191.604 297.677 190.6 296.17L191.778 295.417C192.493 296.537 193.42 297.097 194.54 297.097C196.936 297.097 198.114 295.938 198.134 293.562V292.094C197.457 293.311 196.086 294.2 194.83 294.2C192.068 294.2 190.155 292.171 190.155 289.235ZM208.784 288.462C208.63 287.071 207.953 285.584 205.867 285.584C204.032 285.584 202.854 286.569 202.602 288.482L208.784 288.462ZM201.173 289.158C201.173 286.453 202.796 284.193 205.809 284.193C208.939 284.193 209.731 286.627 209.827 286.859C210.407 288.443 210.175 289.834 210.175 289.834H202.602C202.854 291.65 204.032 292.732 205.829 292.732C208.05 292.732 208.591 291.515 208.726 291.321L209.924 291.959C209.924 291.959 209.113 294.122 205.809 294.122C202.796 294.122 201.173 291.843 201.173 289.158Z" fill="#616161"/>
<rect x="50.3628" y="46.2241" width="442.926" height="213.874" stroke="#0D69D4" stroke-width="1.37983"/>
<rect x="67.6113" y="195.937" width="408.43" height="11.0387" fill="#C54600" fill-opacity="0.3"/>
<line x1="28.9766" y1="196.626" x2="492.6" y2="196.626" stroke="#C54600" stroke-width="1.37983"/>
<line x1="28.9766" y1="206.285" x2="492.6" y2="206.285" stroke="#C54600" stroke-width="1.37983"/>
<rect x="5.51953" y="191.797" width="18.279" height="19.3798" rx="5.51933" fill="#C54600"/>
<path d="M14.3367 206.948C13.5965 206.948 12.9425 206.817 12.3747 206.554C11.8106 206.288 11.3704 205.924 11.0542 205.46C10.738 204.993 10.5817 204.461 10.5853 203.865C10.5817 203.398 10.6733 202.966 10.8602 202.571C11.047 202.172 11.3021 201.84 11.6255 201.574C11.9525 201.304 12.3173 201.134 12.7197 201.062V200.997C12.1915 200.861 11.7711 200.564 11.4585 200.108C11.1458 199.648 10.9913 199.125 10.9949 198.539C10.9913 197.979 11.1333 197.478 11.4207 197.036C11.7082 196.594 12.1035 196.245 12.6065 195.99C13.1132 195.735 13.6899 195.607 14.3367 195.607C14.9763 195.607 15.5476 195.735 16.0507 195.99C16.5538 196.245 16.949 196.594 17.2365 197.036C17.5276 197.478 17.6749 197.979 17.6785 198.539C17.6749 199.125 17.515 199.648 17.1988 200.108C16.8862 200.564 16.4711 200.861 15.9537 200.997V201.062C16.3525 201.134 16.7119 201.304 17.0317 201.574C17.3515 201.84 17.6066 202.172 17.7971 202.571C17.9875 202.966 18.0845 203.398 18.0881 203.865C18.0845 204.461 17.9228 204.993 17.603 205.46C17.2868 205.924 16.8466 206.288 16.2825 206.554C15.7219 206.817 15.0733 206.948 14.3367 206.948ZM14.3367 205.762C14.8362 205.762 15.2674 205.681 15.6303 205.519C15.9932 205.358 16.2735 205.13 16.4711 204.835C16.6688 204.54 16.7694 204.195 16.773 203.8C16.7694 203.383 16.6616 203.015 16.4496 202.695C16.2376 202.375 15.9483 202.124 15.5818 201.941C15.2189 201.757 14.8038 201.666 14.3367 201.666C13.866 201.666 13.4456 201.757 13.0754 201.941C12.7089 202.124 12.4197 202.375 12.2077 202.695C11.9992 203.015 11.8968 203.383 11.9004 203.8C11.8968 204.195 11.9921 204.54 12.1861 204.835C12.3837 205.13 12.6658 205.358 13.0323 205.519C13.3988 205.681 13.8336 205.762 14.3367 205.762ZM14.3367 200.523C14.732 200.523 15.0823 200.444 15.3877 200.286C15.6968 200.128 15.9393 199.907 16.1154 199.623C16.2915 199.339 16.3813 199.007 16.3849 198.626C16.3813 198.252 16.2933 197.927 16.1208 197.65C15.9483 197.37 15.7093 197.154 15.4039 197.003C15.0985 196.849 14.7427 196.772 14.3367 196.772C13.9235 196.772 13.5623 196.849 13.2533 197.003C12.9443 197.154 12.7053 197.37 12.5364 197.65C12.3676 197.927 12.2849 198.252 12.2885 198.626C12.2849 199.007 12.3694 199.339 12.5418 199.623C12.7179 199.907 12.9605 200.128 13.2695 200.286C13.5785 200.444 13.9342 200.523 14.3367 200.523Z" fill="white"/>
<rect opacity="0.5" x="67.6113" y="63.4727" width="408.43" height="132.464" fill="#0D69D4" fill-opacity="0.2"/>
<rect opacity="0.5" x="67.6113" y="206.975" width="408.43" height="35.8756" fill="#0D69D4" fill-opacity="0.2"/>
<rect opacity="0.5" x="51.0527" y="270.447" width="440.166" height="31.7361" fill="#0D69D4" fill-opacity="0.2"/>
<rect x="51.0547" y="46.915" width="441.546" height="16.558" fill="#007D00" fill-opacity="0.3"/>
<line x1="28.9766" y1="47.605" x2="492.6" y2="47.605" stroke="#007D00" stroke-width="1.37983"/>
<line x1="28.9766" y1="62.7827" x2="492.6" y2="62.7827" stroke="#007D00" stroke-width="1.37983"/>
<rect y="45.5352" width="25.279" height="19.3798" rx="5.51933" fill="#007D00"/>
<path d="M9.16212 49.4965V60.5352H7.82541V50.8979H7.76073L5.06575 52.6874V51.3291L7.82541 49.4965H9.16212ZM12.3368 60.5352V59.565L15.9804 55.5764C16.408 55.1093 16.7602 54.7032 17.0369 54.3583C17.3136 54.0097 17.5184 53.6827 17.6513 53.3773C17.7879 53.0683 17.8561 52.7449 17.8561 52.4071C17.8561 52.019 17.7627 51.683 17.5759 51.3992C17.3926 51.1153 17.1411 50.8961 16.8213 50.7416C16.5015 50.5871 16.1421 50.5098 15.7433 50.5098C15.3193 50.5098 14.9492 50.5979 14.6329 50.7739C14.3203 50.9464 14.0778 51.189 13.9053 51.5016C13.7364 51.8142 13.652 52.1807 13.652 52.6011H12.3799C12.3799 51.9543 12.5291 51.3866 12.8273 50.8979C13.1255 50.4092 13.5316 50.0283 14.0454 49.7552C14.5629 49.4821 15.1432 49.3456 15.7864 49.3456C16.4332 49.3456 17.0063 49.4821 17.5058 49.7552C18.0053 50.0283 18.3969 50.3966 18.6808 50.8602C18.9647 51.3237 19.1066 51.8393 19.1066 52.4071C19.1066 52.8131 19.033 53.2102 18.8856 53.5983C18.7419 53.9828 18.4904 54.4122 18.131 54.8865C17.7753 55.3572 17.2812 55.9321 16.6488 56.6113L14.1694 59.2631V59.3494H19.3007V60.5352H12.3368Z" fill="white"/>
<rect x="51.0547" y="242.851" width="441.546" height="16.558" fill="#007D00" fill-opacity="0.3"/>
<line x1="28.9766" y1="243.541" x2="492.6" y2="243.541" stroke="#007D00" stroke-width="1.37983"/>
<line x1="28.9766" y1="258.718" x2="492.6" y2="258.718" stroke="#007D00" stroke-width="1.37983"/>
<rect y="241.471" width="25.279" height="19.3798" rx="5.51933" fill="#007D00"/>
<path d="M9.16212 245.432V256.471H7.82541V246.833H7.76073L5.06575 248.623V247.265L7.82541 245.432H9.16212ZM12.3368 256.471V255.501L15.9804 251.512C16.408 251.045 16.7602 250.639 17.0369 250.294C17.3136 249.945 17.5184 249.618 17.6513 249.313C17.7879 249.004 17.8561 248.68 17.8561 248.343C17.8561 247.955 17.7627 247.619 17.5759 247.335C17.3926 247.051 17.1411 246.832 16.8213 246.677C16.5015 246.523 16.1421 246.445 15.7433 246.445C15.3193 246.445 14.9492 246.533 14.6329 246.709C14.3203 246.882 14.0778 247.124 13.9053 247.437C13.7364 247.75 13.652 248.116 13.652 248.537H12.3799C12.3799 247.89 12.5291 247.322 12.8273 246.833C13.1255 246.345 13.5316 245.964 14.0454 245.691C14.5629 245.418 15.1432 245.281 15.7864 245.281C16.4332 245.281 17.0063 245.418 17.5058 245.691C18.0053 245.964 18.3969 246.332 18.6808 246.796C18.9647 247.259 19.1066 247.775 19.1066 248.343C19.1066 248.749 19.033 249.146 18.8856 249.534C18.7419 249.918 18.4904 250.348 18.131 250.822C17.7753 251.293 17.2812 251.868 16.6488 252.547L14.1694 255.199V255.285H19.3007V256.471H12.3368Z" fill="white"/>
<rect x="51.0527" y="63.4727" width="16.558" height="179.378" fill="#007D00" fill-opacity="0.3"/>
<line x1="51.7427" y1="24.8369" x2="51.7426" y2="259.408" stroke="#007D00" stroke-width="1.37983"/>
<line x1="66.9223" y1="24.8369" x2="66.9223" y2="259.408" stroke="#007D00" stroke-width="1.37983"/>
<rect x="46.9141" width="25.279" height="19.3798" rx="5.51933" fill="#007D00"/>
<path d="M56.0762 3.96134V15H54.7395V5.36274H54.6748L51.9798 7.15221V5.79393L54.7395 3.96134H56.0762ZM59.2509 15V14.0298L62.8945 10.0412C63.3221 9.5741 63.6742 9.16805 63.9509 8.8231C64.2276 8.47454 64.4324 8.14755 64.5654 7.84212C64.7019 7.5331 64.7702 7.2097 64.7702 6.87193C64.7702 6.48385 64.6768 6.14788 64.4899 5.864C64.3067 5.58013 64.0551 5.36094 63.7353 5.20643C63.4155 5.05191 63.0562 4.97466 62.6573 4.97466C62.2333 4.97466 61.8632 5.06269 61.547 5.23877C61.2344 5.41125 60.9918 5.65379 60.8194 5.96641C60.6505 6.27903 60.566 6.64555 60.566 7.06597H59.294C59.294 6.41917 59.4431 5.85143 59.7414 5.36274C60.0396 4.87405 60.4457 4.49315 60.9595 4.22006C61.4769 3.94697 62.0573 3.81043 62.7005 3.81043C63.3473 3.81043 63.9204 3.94697 64.4199 4.22006C64.9193 4.49315 65.311 4.86147 65.5949 5.32501C65.8787 5.78854 66.0207 6.30418 66.0207 6.87193C66.0207 7.27797 65.947 7.67503 65.7997 8.06311C65.656 8.4476 65.4044 8.877 65.0451 9.35131C64.6894 9.82204 64.1953 10.397 63.5629 11.0761L61.0835 13.728V13.8142H66.2147V15H59.2509Z" fill="white"/>
<rect x="476.041" y="63.4727" width="16.558" height="179.378" fill="#007D00" fill-opacity="0.3"/>
<line x1="476.731" y1="24.8369" x2="476.731" y2="259.408" stroke="#007D00" stroke-width="1.37983"/>
<line x1="491.911" y1="24.8369" x2="491.911" y2="259.408" stroke="#007D00" stroke-width="1.37983"/>
<rect x="471.902" width="25.279" height="19.3798" rx="5.51933" fill="#007D00"/>
<path d="M481.064 3.96134V15H479.728V5.36274H479.663L476.968 7.15221V5.79393L479.728 3.96134H481.064ZM484.239 15V14.0298L487.883 10.0412C488.31 9.5741 488.663 9.16805 488.939 8.8231C489.216 8.47454 489.421 8.14755 489.554 7.84212C489.69 7.5331 489.758 7.2097 489.758 6.87193C489.758 6.48385 489.665 6.14788 489.478 5.864C489.295 5.58013 489.043 5.36094 488.724 5.20643C488.404 5.05191 488.044 4.97466 487.646 4.97466C487.222 4.97466 486.851 5.06269 486.535 5.23877C486.223 5.41125 485.98 5.65379 485.808 5.96641C485.639 6.27903 485.554 6.64555 485.554 7.06597H484.282C484.282 6.41917 484.431 5.85143 484.73 5.36274C485.028 4.87405 485.434 4.49315 485.948 4.22006C486.465 3.94697 487.046 3.81043 487.689 3.81043C488.336 3.81043 488.909 3.94697 489.408 4.22006C489.908 4.49315 490.299 4.86147 490.583 5.32501C490.867 5.78854 491.009 6.30418 491.009 6.87193C491.009 7.27797 490.935 7.67503 490.788 8.06311C490.644 8.4476 490.393 8.877 490.033 9.35131C489.678 9.82204 489.184 10.397 488.551 11.0761L486.072 13.728V13.8142H491.203V15H484.239Z" fill="white"/>
<rect x="51.0547" y="259.408" width="441.546" height="11.0387" fill="#C54600" fill-opacity="0.3"/>
<line x1="28.9766" y1="260.098" x2="492.6" y2="260.098" stroke="#C54600" stroke-width="1.37983"/>
<line x1="28.9766" y1="269.757" x2="492.6" y2="269.757" stroke="#C54600" stroke-width="1.37983"/>
<rect x="5.51953" y="262.168" width="18.279" height="19.3798" rx="5.51933" fill="#C54600"/>
<path d="M14.3367 277.319C13.5965 277.319 12.9425 277.188 12.3747 276.925C11.8106 276.66 11.3704 276.295 11.0542 275.831C10.738 275.364 10.5817 274.832 10.5853 274.236C10.5817 273.769 10.6733 273.337 10.8602 272.942C11.047 272.543 11.3021 272.211 11.6255 271.945C11.9525 271.676 12.3173 271.505 12.7197 271.433V271.368C12.1915 271.232 11.7711 270.935 11.4585 270.479C11.1458 270.019 10.9913 269.496 10.9949 268.911C10.9913 268.35 11.1333 267.849 11.4207 267.407C11.7082 266.965 12.1035 266.616 12.6065 266.361C13.1132 266.106 13.6899 265.978 14.3367 265.978C14.9763 265.978 15.5476 266.106 16.0507 266.361C16.5538 266.616 16.949 266.965 17.2365 267.407C17.5276 267.849 17.6749 268.35 17.6785 268.911C17.6749 269.496 17.515 270.019 17.1988 270.479C16.8862 270.935 16.4711 271.232 15.9537 271.368V271.433C16.3525 271.505 16.7119 271.676 17.0317 271.945C17.3515 272.211 17.6066 272.543 17.7971 272.942C17.9875 273.337 18.0845 273.769 18.0881 274.236C18.0845 274.832 17.9228 275.364 17.603 275.831C17.2868 276.295 16.8466 276.66 16.2825 276.925C15.7219 277.188 15.0733 277.319 14.3367 277.319ZM14.3367 276.133C14.8362 276.133 15.2674 276.052 15.6303 275.891C15.9932 275.729 16.2735 275.501 16.4711 275.206C16.6688 274.911 16.7694 274.566 16.773 274.171C16.7694 273.754 16.6616 273.386 16.4496 273.066C16.2376 272.746 15.9483 272.495 15.5818 272.312C15.2189 272.128 14.8038 272.037 14.3367 272.037C13.866 272.037 13.4456 272.128 13.0754 272.312C12.7089 272.495 12.4197 272.746 12.2077 273.066C11.9992 273.386 11.8968 273.754 11.9004 274.171C11.8968 274.566 11.9921 274.911 12.1861 275.206C12.3837 275.501 12.6658 275.729 13.0323 275.891C13.3988 276.052 13.8336 276.133 14.3367 276.133ZM14.3367 270.894C14.732 270.894 15.0823 270.815 15.3877 270.657C15.6968 270.499 15.9393 270.278 16.1154 269.994C16.2915 269.71 16.3813 269.378 16.3849 268.997C16.3813 268.623 16.2933 268.298 16.1208 268.021C15.9483 267.741 15.7093 267.525 15.4039 267.374C15.0985 267.22 14.7427 267.143 14.3367 267.143C13.9235 267.143 13.5623 267.22 13.2533 267.374C12.9443 267.525 12.7053 267.741 12.5364 268.021C12.3676 268.298 12.2849 268.623 12.2885 268.997C12.2849 269.378 12.3694 269.71 12.5418 269.994C12.7179 270.278 12.9605 270.499 13.2695 270.657C13.5785 270.815 13.9342 270.894 14.3367 270.894Z" fill="white"/>
<path d="M502.258 49.6738V259.408" stroke="black" stroke-width="1.10387"/>
<path d="M499.498 259.408L505.017 259.408" stroke="black" stroke-width="1.10387"/>
<path d="M499.498 49.6738L505.017 49.6738" stroke="black" stroke-width="1.10387"/>
<rect x="508.328" y="142.541" width="83.0387" height="24" rx="4.41546" fill="#333333"/>
<path d="M519.411 157.225L515.922 151.363V158.591H514.829V149.525H516.095L519.411 155.076L522.714 149.525H523.994V158.591H522.901V151.351L519.411 157.225ZM528.621 157.585C529.677 157.585 530.646 156.765 530.658 155.449C530.646 154.132 529.677 153.3 528.621 153.3C527.33 153.3 526.622 154.219 526.622 155.449C526.622 156.678 527.33 157.585 528.621 157.585ZM525.529 155.449C525.529 153.698 526.622 152.22 528.572 152.22C529.292 152.22 530.087 152.593 530.633 153.437V152.183H531.726V158.578H530.633V157.448C530.062 158.33 529.304 158.678 528.572 158.678C526.622 158.678 525.529 157.175 525.529 155.449ZM539.153 152.183L536.744 155.387L539.141 158.578H537.775L536.136 156.306L534.509 158.578H533.143L535.515 155.387L533.118 152.183H534.484L536.136 154.493L537.787 152.183H539.153ZM544.342 151.313C544.752 151.313 544.975 151.587 544.975 151.947C544.975 152.307 544.752 152.58 544.342 152.58C543.932 152.58 543.696 152.307 543.696 151.947C543.696 151.587 543.932 151.313 544.342 151.313ZM543.696 156.119C543.696 155.759 543.932 155.486 544.342 155.486C544.752 155.486 544.975 155.759 544.975 156.119C544.975 156.48 544.752 156.765 544.342 156.765C543.932 156.765 543.696 156.48 543.696 156.119ZM549.701 157.473C551.501 155.734 554.085 153.884 554.085 152.307C554.085 151.115 553.327 150.544 552.408 150.544C551.762 150.544 551.042 150.767 550.595 151.773L549.601 151.338C550.26 149.836 551.564 149.451 552.408 149.451C553.762 149.451 555.177 150.506 555.177 152.307C555.177 154.17 553.029 155.958 551.328 157.473H555.326V158.566H549.701V157.473ZM556.626 157.473C558.426 155.734 561.009 153.884 561.009 152.307C561.009 151.115 560.252 150.544 559.333 150.544C558.687 150.544 557.967 150.767 557.52 151.773L556.526 151.338C557.184 149.836 558.488 149.451 559.333 149.451C560.686 149.451 562.102 150.506 562.102 152.307C562.102 154.17 559.954 155.958 558.252 157.473H562.251V158.566H556.626V157.473ZM566.717 157.548C568.083 157.548 568.903 156.455 568.903 154.058C568.903 151.649 568.095 150.568 566.717 150.568C565.339 150.568 564.519 151.649 564.519 154.058C564.519 156.455 565.339 157.548 566.717 157.548ZM563.426 154.058C563.426 151.189 564.73 149.476 566.717 149.476C568.692 149.476 569.996 151.177 569.996 154.058C569.996 156.914 568.704 158.64 566.717 158.64C564.73 158.64 563.426 156.914 563.426 154.058ZM574.665 157.597C575.957 157.597 576.677 156.666 576.677 155.412C576.677 154.17 575.957 153.251 574.665 153.251C573.585 153.251 572.641 154.145 572.641 155.412C572.641 156.691 573.585 157.597 574.665 157.597ZM571.536 161.422V152.17H572.629V153.412C573.051 152.555 574.057 152.183 574.715 152.183C576.652 152.183 577.77 153.673 577.77 155.412C577.77 157.175 576.652 158.665 574.715 158.665C574.032 158.665 573.051 158.231 572.629 157.423V161.422H571.536ZM584.449 152.183L582.04 155.387L584.437 158.578H583.071L581.432 156.306L579.805 158.578H578.439L580.811 155.387L578.414 152.183H579.78L581.432 154.493L583.083 152.183H584.449Z" fill="white"/>
<path d="M493.979 310.462L52.4323 310.462" stroke="black" stroke-width="1.10387"/>
<path d="M52.4316 307.702V313.221" stroke="black" stroke-width="1.10387"/>
<path d="M493.979 307.702V313.221" stroke="black" stroke-width="1.10387"/>
<rect x="242.297" y="316.533" width="61.8165" height="22.9052" rx="4.41546" fill="#333333"/>
<path d="M258.291 322.97V324.038H253.534V326.956H257.421V328.024H253.534V332.035H252.441V322.97H258.291ZM259.543 322.721H260.636V332.035H259.543V322.721ZM266.664 328.347C266.565 327.477 266.093 326.645 264.863 326.645C263.783 326.645 263.025 327.217 262.876 328.359L266.664 328.347ZM261.796 328.831C261.796 327.08 262.876 325.602 264.838 325.602C266.875 325.602 267.421 327.204 267.471 327.341C267.856 328.347 267.732 329.34 267.732 329.34H262.876C263.05 330.383 263.758 331.017 264.851 331.017C266.192 331.017 266.515 330.284 266.577 330.185L267.533 330.657C267.533 330.657 266.987 332.06 264.838 332.06C262.876 332.06 261.796 330.582 261.796 328.831ZM274.45 325.627L272.041 328.831L274.438 332.023H273.072L271.432 329.75L269.805 332.023H268.439L270.811 328.831L268.415 325.627H269.781L271.432 327.937L273.084 325.627H274.45ZM275.907 325.615H277V332.035H275.907V325.615ZM275.796 323.292C275.796 322.945 276.032 322.659 276.454 322.659C276.864 322.659 277.1 322.945 277.1 323.292C277.1 323.665 276.864 323.951 276.454 323.951C276.032 323.951 275.796 323.665 275.796 323.292ZM281.824 331.004C283.115 331.004 283.823 330.098 283.823 328.868C283.823 327.651 283.115 326.732 281.824 326.732C280.756 326.732 279.824 327.626 279.824 328.868C279.824 330.123 280.756 331.004 281.824 331.004ZM278.732 331.985V322.721H279.824V326.881C280.396 325.962 281.228 325.664 281.886 325.664C283.836 325.664 284.916 327.142 284.916 328.868C284.916 330.607 283.823 332.085 281.874 332.085C281.228 332.085 280.396 331.824 279.824 330.855V331.985H278.732ZM286.078 322.721H287.171V332.035H286.078V322.721ZM293.199 328.347C293.099 327.477 292.628 326.645 291.398 326.645C290.318 326.645 289.56 327.217 289.411 328.359L293.199 328.347ZM288.331 328.831C288.331 327.08 289.411 325.602 291.373 325.602C293.41 325.602 293.956 327.204 294.006 327.341C294.391 328.347 294.267 329.34 294.267 329.34H289.411C289.585 330.383 290.293 331.017 291.386 331.017C292.727 331.017 293.05 330.284 293.112 330.185L294.068 330.657C294.068 330.657 293.522 332.06 291.373 332.06C289.411 332.06 288.331 330.582 288.331 328.831Z" fill="white"/>
</svg>
