<svg width="302" height="56" viewBox="0 0 302 56" fill="none" xmlns="http://www.w3.org/2000/svg">
<mask id="path-1-inside-1_957_52699" fill="white">
<path d="M0 8C0 3.58172 3.58172 0 8 0H294C298.418 0 302 3.58172 302 8V48C302 52.4183 298.418 56 294 56H8.00001C3.58173 56 0 52.4183 0 48V8Z"/>
</mask>
<path d="M0 8C0 3.58172 3.58172 0 8 0H294C298.418 0 302 3.58172 302 8V48C302 52.4183 298.418 56 294 56H8.00001C3.58173 56 0 52.4183 0 48V8Z" fill="white"/>
<path d="M8 1H294V-1H8V1ZM301 8V48H303V8H301ZM294 55H8.00001V57H294V55ZM1 48V8H-1V48H1ZM8.00001 55C4.13401 55 1 51.866 1 48H-1C-1 52.9706 3.02945 57 8.00001 57V55ZM301 48C301 51.866 297.866 55 294 55V57C298.971 57 303 52.9706 303 48H301ZM294 1C297.866 1 301 4.13401 301 8H303C303 3.02944 298.971 -1 294 -1V1ZM8 -1C3.02944 -1 -1 3.02944 -1 8H1C1 4.13401 4.13401 1 8 1V-1Z" fill="#E0E0E0" mask="url(#path-1-inside-1_957_52699)"/>
<path d="M17.796 33.884C19.776 33.884 20.892 32.408 20.892 30.482C20.892 28.592 19.776 27.116 17.796 27.116C16.14 27.116 14.718 28.592 14.718 30.482C14.718 32.408 16.14 33.884 17.796 33.884ZM13.404 39.14V25.838H14.7V27.782C15.294 26.486 16.698 25.856 17.814 25.856C20.622 25.856 22.188 27.998 22.188 30.482C22.188 33.002 20.622 35.144 17.814 35.144C16.662 35.144 15.294 34.37 14.7 33.2V39.14H13.404ZM23.795 21.644H25.091V35H23.795V21.644ZM31.0729 33.83C32.6929 33.83 34.1509 32.516 34.1689 30.5C34.1509 28.502 32.6929 27.17 31.0729 27.17C29.0749 27.17 27.9949 28.61 27.9949 30.5C27.9949 32.39 29.0749 33.83 31.0729 33.83ZM26.6989 30.5C26.6989 27.998 28.2649 25.892 31.0549 25.892C32.1169 25.892 33.3049 26.45 34.1329 27.782V25.838H35.4289V35H34.1329V33.2C33.2689 34.604 32.1349 35.126 31.0549 35.126C28.2649 35.126 26.6989 32.984 26.6989 30.5ZM41.589 33.794C42.525 33.794 43.389 33.434 44.001 32.822L44.973 33.686C44.109 34.55 42.957 35.09 41.661 35.09C38.709 35.09 36.999 32.912 36.999 30.266C36.999 27.638 38.709 25.46 41.661 25.46C42.957 25.46 44.109 26 44.973 26.864L44.001 27.728C43.389 27.116 42.525 26.756 41.589 26.756C39.465 26.756 38.295 28.322 38.295 30.266C38.295 32.228 39.465 33.794 41.589 33.794ZM53.0202 29.78C52.8762 28.484 52.2462 27.098 50.3022 27.098C48.5922 27.098 47.4942 28.016 47.2602 29.798L53.0202 29.78ZM45.9282 30.428C45.9282 27.908 47.4402 25.802 50.2482 25.802C53.1642 25.802 53.9022 28.07 53.9922 28.286C54.5322 29.762 54.3162 31.058 54.3162 31.058H47.2602C47.4942 32.75 48.5922 33.758 50.2662 33.758C52.3362 33.758 52.8402 32.624 52.9662 32.444L54.0822 33.038C54.0822 33.038 53.3262 35.054 50.2482 35.054C47.4402 35.054 45.9282 32.93 45.9282 30.428ZM62.5302 29.852C62.5302 28.142 61.5582 27.152 60.1902 27.152C58.7682 27.152 57.5262 28.484 57.5262 30.212V35H56.2302V21.644H57.5262V27.566C57.9762 26.63 59.0022 25.892 60.2442 25.892C62.0982 25.892 63.8262 27.476 63.8262 29.78V35H62.5302V29.852ZM70.2166 33.812C72.2326 33.812 73.2946 32.336 73.2946 30.428C73.2946 28.52 72.2326 27.044 70.2166 27.044C68.1826 27.044 67.1566 28.52 67.1566 30.428C67.1566 32.336 68.1826 33.812 70.2166 33.812ZM65.8606 30.428C65.8606 27.926 67.4086 25.784 70.2166 25.784C73.0426 25.784 74.5906 27.926 74.5906 30.428C74.5906 32.93 73.0426 35.072 70.2166 35.072C67.4086 35.072 65.8606 32.93 65.8606 30.428ZM76.1918 21.644H77.4878V35H76.1918V21.644ZM83.4698 35.144C80.6798 35.144 79.0958 33.002 79.0958 30.482C79.0958 27.98 80.6798 25.82 83.4698 25.82C84.6398 25.82 85.8638 26.414 86.6198 27.782V21.644H87.9158V35H86.6198V33.182C85.8458 34.55 84.6398 35.144 83.4698 35.144ZM80.3918 30.482C80.3918 32.408 81.4898 33.848 83.5238 33.848C85.1798 33.848 86.6198 32.408 86.6198 30.482C86.6198 28.574 85.1798 27.116 83.5238 27.116C81.4898 27.116 80.3918 28.574 80.3918 30.482ZM96.778 29.78C96.634 28.484 96.004 27.098 94.06 27.098C92.35 27.098 91.252 28.016 91.018 29.798L96.778 29.78ZM89.686 30.428C89.686 27.908 91.198 25.802 94.006 25.802C96.922 25.802 97.66 28.07 97.75 28.286C98.29 29.762 98.074 31.058 98.074 31.058H91.018C91.252 32.75 92.35 33.758 94.024 33.758C96.094 33.758 96.598 32.624 96.724 32.444L97.84 33.038C97.84 33.038 97.084 35.054 94.006 35.054C91.198 35.054 89.686 32.93 89.686 30.428ZM101.086 27.764C101.608 26.558 103.102 25.748 104.344 25.748V27.08C102.67 27.08 101.086 28.826 101.086 30.284V35H99.79V25.838H101.086V27.764Z" fill="#BDBDBD"/>
</svg>
