<svg width="109" height="72" viewBox="0 0 109 72" fill="none" xmlns="http://www.w3.org/2000/svg">
<rect x="26.5967" width="16.558" height="16.558" rx="8.27899" fill="#333333"/>
<path d="M35.908 4.28731V12.3124L34.7379 12.3014V5.53468L33.325 6.31842L32.8393 5.33598L34.749 4.28731H35.908Z" fill="white"/>
<path d="M38.5552 44.5967C38.5552 42.5645 36.9078 40.9171 34.8757 40.9171C32.8435 40.9171 31.1961 42.5645 31.1961 44.5967C31.1961 46.6288 32.8435 48.2762 34.8757 48.2762C36.9078 48.2762 38.5552 46.6288 38.5552 44.5967ZM34.8757 44.5967L35.5656 44.5967L35.5656 16.558L34.8757 16.558L34.1858 16.558L34.1858 44.5967L34.8757 44.5967Z" fill="#333333"/>
<rect x="88.689" width="16.558" height="16.558" rx="8.27899" fill="#333333"/>
<path d="M94.1744 11.2858C95.7861 9.74041 97.9828 8.17292 97.9828 6.81516C97.9828 5.90999 97.4088 5.26975 96.5919 5.26975C95.9627 5.26975 95.3335 5.72234 95.0465 6.37362L94.0199 5.92103C94.4614 4.90547 95.5322 4.199 96.5919 4.199C98.1042 4.199 99.1529 5.28079 99.1529 6.81516C99.1529 8.50408 97.3204 10.0053 95.8302 11.2858H99.2853V12.3124H94.2848L94.1744 11.2858Z" fill="white"/>
<path d="M100.648 44.5967C100.648 42.5645 99.0001 40.9171 96.968 40.9171C94.9358 40.9171 93.2884 42.5645 93.2884 44.5967C93.2884 46.6288 94.9358 48.2762 96.968 48.2762C99.0001 48.2762 100.648 46.6288 100.648 44.5967ZM96.968 44.5967L97.6579 44.5967L97.6579 16.558L96.968 16.558L96.278 16.558L96.278 44.5967L96.968 44.5967Z" fill="#333333"/>
<path d="M3.8 49.34V61.86H11V64.22H1.4V49.34H3.8ZM13.3617 53.58H15.7617V64.26H13.3617V53.58ZM13.2617 49.78C13.2617 49.06 13.7217 48.48 14.5617 48.48C15.4217 48.48 15.8817 49.06 15.8817 49.78C15.8817 50.52 15.4217 51.1 14.5617 51.1C13.7217 51.1 13.2617 50.52 13.2617 49.78ZM25.7447 58.5C25.7447 56.98 24.8847 56.02 23.2647 56.02C21.8247 56.02 20.6847 57.16 20.7247 58.58V64.2H18.3247V53.66H20.7247V55.26C21.4247 54.26 22.3047 53.66 23.6047 53.66C25.4447 53.66 28.1447 55.08 28.1447 58.44V64.2H25.7447V58.5ZM32.745 48.92V58L36.545 53.72H39.765L35.625 58.34L39.625 64.26H36.745L33.885 60.08L32.745 61.48V64.26H30.345V48.92H32.745ZM56.695 49.34V51.7H52.515V64.22H50.115V51.7H45.895V49.34H56.695ZM64.1091 58.04C63.9091 56.7 63.0291 55.74 61.4491 55.74C59.9891 55.74 58.8091 56.5 58.5691 58.06L64.1091 58.04ZM56.3291 58.94C56.3291 56.04 58.1691 53.6 61.4291 53.6C64.7891 53.6 65.7891 56.32 65.8491 56.46C66.4891 58.08 66.3491 59.98 66.3491 59.98H58.5691C58.9291 61.28 59.9091 62.1 61.4491 62.1C63.3291 62.1 63.7491 61.06 63.8091 60.98L65.9091 61.92C65.9091 61.92 64.9491 64.26 61.4291 64.26C58.1691 64.26 56.3291 61.82 56.3291 58.94ZM77.9505 53.66L74.0305 58.94L77.8905 64.2H74.9305L72.5705 60.78L70.2305 64.2H67.2705L71.0705 58.94L67.1705 53.66H70.1505L72.5705 57.18L74.9505 53.66H77.9505ZM85.8806 63.94C85.4206 64.04 84.4006 64.22 83.6206 64.16C82.0606 64.04 80.4606 62.66 80.4606 60.78V55.9H78.6006V53.54H80.4606V49.8H82.8606V53.54H85.6806V55.9H82.8606V60.78C82.8606 61.42 83.2406 61.74 83.8406 61.78C84.2806 61.8 84.9806 61.68 85.3606 61.6L85.8806 63.94Z" fill="#FF8120"/>
<path d="M0 66.5H86.9006V67.5H0V66.5Z" fill="#FF8120"/>
<path fill-rule="evenodd" clip-rule="evenodd" d="M96.0581 51.5581C96.3021 51.314 96.6979 51.314 96.9419 51.5581L101.942 56.5581C102.186 56.8021 102.186 57.1979 101.942 57.4419L96.9419 62.4419C96.6979 62.686 96.3021 62.686 96.0581 62.4419C95.814 62.1979 95.814 61.8021 96.0581 61.5581L100.616 57L96.0581 52.4419C95.814 52.1979 95.814 51.8021 96.0581 51.5581Z" fill="#FF8120"/>
<rect width="22.9972" height="22.9972" transform="translate(85 45)" fill="#FF0000" fill-opacity="0.2"/>
</svg>
