<svg width="302" height="48" viewBox="0 0 302 48" fill="none" xmlns="http://www.w3.org/2000/svg">
<mask id="path-1-inside-1_957_52702" fill="white">
<path d="M0 8C0 3.58172 3.58172 0 8 0H294C298.418 0 302 3.58172 302 8V40C302 44.4183 298.418 48 294 48H8.00001C3.58173 48 0 44.4183 0 40V8Z"/>
</mask>
<path d="M0 8C0 3.58172 3.58172 0 8 0H294C298.418 0 302 3.58172 302 8V40C302 44.4183 298.418 48 294 48H8.00001C3.58173 48 0 44.4183 0 40V8Z" fill="white"/>
<path d="M8 1H294V-1H8V1ZM301 8V40H303V8H301ZM294 47H8.00001V49H294V47ZM1 40V8H-1V40H1ZM8.00001 47C4.13401 47 1 43.866 1 40H-1C-1 44.9706 3.02945 49 8.00001 49V47ZM301 40C301 43.866 297.866 47 294 47V49C298.971 49 303 44.9706 303 40H301ZM294 1C297.866 1 301 4.13401 301 8H303C303 3.02944 298.971 -1 294 -1V1ZM8 -1C3.02944 -1 -1 3.02944 -1 8H1C1 4.13401 4.13401 1 8 1V-1Z" fill="#E0E0E0" mask="url(#path-1-inside-1_957_52702)"/>
<path d="M17.152 29.008C18.912 29.008 19.904 27.696 19.904 25.984C19.904 24.304 18.912 22.992 17.152 22.992C15.68 22.992 14.416 24.304 14.416 25.984C14.416 27.696 15.68 29.008 17.152 29.008ZM13.248 33.68V21.856H14.4V23.584C14.928 22.432 16.176 21.872 17.168 21.872C19.664 21.872 21.056 23.776 21.056 25.984C21.056 28.224 19.664 30.128 17.168 30.128C16.144 30.128 14.928 29.44 14.4 28.4V33.68H13.248ZM22.4678 18.128H23.6198V30H22.4678V18.128ZM28.9204 28.96C30.3604 28.96 31.6564 27.792 31.6724 26C31.6564 24.224 30.3604 23.04 28.9204 23.04C27.1444 23.04 26.1844 24.32 26.1844 26C26.1844 27.68 27.1444 28.96 28.9204 28.96ZM25.0324 26C25.0324 23.776 26.4244 21.904 28.9044 21.904C29.8484 21.904 30.9044 22.4 31.6404 23.584V21.856H32.7924V30H31.6404V28.4C30.8724 29.648 29.8644 30.112 28.9044 30.112C26.4244 30.112 25.0324 28.208 25.0324 26ZM38.2514 28.928C39.0834 28.928 39.8514 28.608 40.3954 28.064L41.2594 28.832C40.4914 29.6 39.4674 30.08 38.3154 30.08C35.6914 30.08 34.1714 28.144 34.1714 25.792C34.1714 23.456 35.6914 21.52 38.3154 21.52C39.4674 21.52 40.4914 22 41.2594 22.768L40.3954 23.536C39.8514 22.992 39.0834 22.672 38.2514 22.672C36.3634 22.672 35.3234 24.064 35.3234 25.792C35.3234 27.536 36.3634 28.928 38.2514 28.928ZM48.3958 25.36C48.2677 24.208 47.7077 22.976 45.9797 22.976C44.4597 22.976 43.4837 23.792 43.2757 25.376L48.3958 25.36ZM42.0917 25.936C42.0917 23.696 43.4357 21.824 45.9317 21.824C48.5237 21.824 49.1797 23.84 49.2598 24.032C49.7397 25.344 49.5478 26.496 49.5478 26.496H43.2757C43.4837 28 44.4597 28.896 45.9477 28.896C47.7877 28.896 48.2357 27.888 48.3478 27.728L49.3398 28.256C49.3398 28.256 48.6677 30.048 45.9317 30.048C43.4357 30.048 42.0917 28.16 42.0917 25.936ZM56.8324 25.424C56.8324 23.904 55.9684 23.024 54.7524 23.024C53.4884 23.024 52.3844 24.208 52.3844 25.744V30H51.2324V18.128H52.3844V23.392C52.7844 22.56 53.6964 21.904 54.8004 21.904C56.4484 21.904 57.9844 23.312 57.9844 25.36V30H56.8324V25.424ZM63.6481 28.944C65.4401 28.944 66.3841 27.632 66.3841 25.936C66.3841 24.24 65.4401 22.928 63.6481 22.928C61.8401 22.928 60.9281 24.24 60.9281 25.936C60.9281 27.632 61.8401 28.944 63.6481 28.944ZM59.7761 25.936C59.7761 23.712 61.1521 21.808 63.6481 21.808C66.1601 21.808 67.5361 23.712 67.5361 25.936C67.5361 28.16 66.1601 30.064 63.6481 30.064C61.1521 30.064 59.7761 28.16 59.7761 25.936ZM68.9428 18.128H70.0948V30H68.9428V18.128ZM75.3954 30.128C72.9154 30.128 71.5074 28.224 71.5074 25.984C71.5074 23.76 72.9154 21.84 75.3954 21.84C76.4354 21.84 77.5234 22.368 78.1954 23.584V18.128H79.3474V30H78.1954V28.384C77.5074 29.6 76.4354 30.128 75.3954 30.128ZM72.6594 25.984C72.6594 27.696 73.6354 28.976 75.4434 28.976C76.9154 28.976 78.1954 27.696 78.1954 25.984C78.1954 24.288 76.9154 22.992 75.4434 22.992C73.6354 22.992 72.6594 24.288 72.6594 25.984ZM87.2083 25.36C87.0803 24.208 86.5203 22.976 84.7923 22.976C83.2723 22.976 82.2963 23.792 82.0883 25.376L87.2083 25.36ZM80.9043 25.936C80.9043 23.696 82.2483 21.824 84.7443 21.824C87.3363 21.824 87.9923 23.84 88.0723 24.032C88.5523 25.344 88.3603 26.496 88.3603 26.496H82.0883C82.2963 28 83.2723 28.896 84.7603 28.896C86.6003 28.896 87.0483 27.888 87.1603 27.728L88.1523 28.256C88.1523 28.256 87.4803 30.048 84.7443 30.048C82.2483 30.048 80.9043 28.16 80.9043 25.936ZM91.0209 23.568C91.4849 22.496 92.8129 21.776 93.9169 21.776V22.96C92.4289 22.96 91.0209 24.512 91.0209 25.808V30H89.8689V21.856H91.0209V23.568Z" fill="#BDBDBD"/>
</svg>
