<svg width="66" height="66" viewBox="0 0 66 66" fill="none" xmlns="http://www.w3.org/2000/svg">
<path fill-rule="evenodd" clip-rule="evenodd" d="M28.7603 21.201C28.8692 20.3951 29.5834 19.834 30.3786 19.834H35.6282C36.4235 19.834 37.1377 20.3951 37.2466 21.201L37.667 24.0586C38.1794 24.2968 38.6652 24.5737 39.1272 24.8852L41.904 23.7983L41.9194 23.7929C42.6071 23.5492 43.4932 23.7686 43.9133 24.5039L46.5393 28.9316L46.5452 28.9421C46.9183 29.6089 46.7819 30.474 46.1335 30.973L46.1299 30.9757L43.7916 32.7578C43.8153 33.0219 43.8306 33.2964 43.8306 33.584C43.8306 33.8715 43.8153 34.1461 43.7916 34.4102L46.1335 36.195C46.7819 36.6939 46.9183 37.5591 46.5452 38.2259L46.5393 38.2363L43.9132 42.6641C43.5095 43.3707 42.6447 43.652 41.8971 43.3669L41.8889 43.3638L39.1225 42.2809C38.6658 42.5862 38.1816 42.8668 37.6672 43.1081L37.2466 45.967C37.1376 46.7729 36.4235 47.334 35.6282 47.334H30.3786C29.5834 47.334 28.8692 46.7729 28.7603 45.967L28.3398 43.1094C27.8275 42.8712 27.3417 42.5943 26.8796 42.2827L24.1028 43.3696L24.0875 43.3751C23.3997 43.6188 22.5137 43.3994 22.0936 42.6642L19.4675 38.2363L19.4617 38.2259C19.0885 37.5591 19.2249 36.6939 19.8734 36.195L19.8769 36.1922L22.2155 34.4099C22.1916 34.1422 22.1762 33.8652 22.1762 33.584C22.1762 33.3028 22.1916 33.0258 22.2155 32.758L19.8769 30.9757L19.8734 30.973C19.2538 30.4962 19.0485 29.6278 19.4755 28.9182L22.0936 24.5038C22.4973 23.7973 23.3621 23.516 24.1098 23.8011L24.1179 23.8042L26.8843 24.887C27.3411 24.5817 27.8252 24.3012 28.3396 24.0599L28.7603 21.201ZM30.6678 21.7526L30.1313 25.3995L29.6101 25.6077C28.9035 25.8899 28.2411 26.2793 27.6095 26.741L27.1663 27.065L23.6619 25.6933L21.3208 29.6406L24.2983 31.9098L24.2291 32.4495C24.1791 32.8391 24.1448 33.2176 24.1448 33.584C24.1448 33.9504 24.1791 34.3288 24.2291 34.7185L24.2983 35.2581L21.3208 37.5274L23.6619 41.4747L27.1736 40.1001L27.6191 40.4341C28.2373 40.8976 28.8966 41.2753 29.6101 41.5603L30.1313 41.7684L30.6678 45.4154H35.339L35.8756 41.7684L36.3967 41.5603C37.1033 41.278 37.7658 40.8886 38.3973 40.427L38.8406 40.103L42.3449 41.4747L44.686 37.5274L41.7085 35.2581L41.7777 34.7185C41.8278 34.3279 41.862 33.9626 41.862 33.584C41.862 33.2054 41.8278 32.84 41.7777 32.4495L41.7085 31.9098L44.686 29.6406L42.3449 25.6933L38.8332 27.0678L38.3878 26.7339C37.7695 26.2704 37.1102 25.8927 36.3967 25.6077L35.8756 25.3995L35.339 21.7526H30.6678ZM33.0034 30.0665C31.0141 30.0665 29.3944 31.6452 29.3944 33.584C29.3944 35.5228 31.0141 37.1014 33.0034 37.1014C34.9927 37.1014 36.6125 35.5228 36.6125 33.584C36.6125 31.6452 34.9927 30.0665 33.0034 30.0665ZM27.4258 33.584C27.4258 30.5856 29.9269 28.1479 33.0034 28.1479C36.0799 28.1479 38.5811 30.5856 38.5811 33.584C38.5811 36.5824 36.0799 39.02 33.0034 39.02C29.9269 39.02 27.4258 36.5824 27.4258 33.584Z" fill="#1A1A1A"/>
</svg>
