<svg width="270" height="165" viewBox="0 0 270 165" fill="none" xmlns="http://www.w3.org/2000/svg">
<g filter="url(#filter0_dd_1101_63609)">
<rect width="234.02" height="128.348" transform="translate(18 16)" fill="white"/>
<mask id="path-1-inside-1_1101_63609" fill="white">
<path d="M29.0391 33.0261C29.0391 29.7196 31.7196 27.0391 35.0261 27.0391H234.994C238.301 27.0391 240.981 29.7196 240.981 33.0261V103.374C240.981 106.681 238.301 109.361 234.994 109.361H35.0261C31.7196 109.361 29.0391 106.681 29.0391 103.374V33.0261Z"/>
</mask>
<path d="M29.0391 33.0261C29.0391 29.7196 31.7196 27.0391 35.0261 27.0391H234.994C238.301 27.0391 240.981 29.7196 240.981 33.0261V103.374C240.981 106.681 238.301 109.361 234.994 109.361H35.0261C31.7196 109.361 29.0391 106.681 29.0391 103.374V33.0261Z" fill="white"/>
<path d="M35.0261 27.0391V28.5358H234.994V27.0391V25.5423H35.0261V27.0391ZM240.981 33.0261H239.484V103.374H240.981H242.478V33.0261H240.981ZM234.994 109.361V107.864H35.0261V109.361V110.858H234.994V109.361ZM29.0391 103.374H30.5358V33.0261H29.0391H27.5423V103.374H29.0391ZM35.0261 109.361V107.864C32.5462 107.864 30.5358 105.854 30.5358 103.374H29.0391H27.5423C27.5423 107.507 30.8929 110.858 35.0261 110.858V109.361ZM240.981 103.374H239.484C239.484 105.854 237.474 107.864 234.994 107.864V109.361V110.858C239.127 110.858 242.478 107.507 242.478 103.374H240.981ZM234.994 27.0391V28.5358C237.474 28.5358 239.484 30.5462 239.484 33.0261H240.981H242.478C242.478 28.8929 239.127 25.5423 234.994 25.5423V27.0391ZM35.0261 27.0391V25.5423C30.8929 25.5423 27.5423 28.8929 27.5423 33.0261H29.0391H30.5358C30.5358 30.5462 32.5462 28.5358 35.0261 28.5358V27.0391Z" fill="#FF8120" mask="url(#path-1-inside-1_1101_63609)"/>
<path d="M41.8752 48.2771C43.1924 48.2771 43.9348 47.2953 43.9348 46.014C43.9348 44.7567 43.1924 43.7749 41.8752 43.7749C40.7736 43.7749 39.8276 44.7567 39.8276 46.014C39.8276 47.2953 40.7736 48.2771 41.8752 48.2771ZM38.9535 51.7736V42.9247H39.8157V44.2179C40.2108 43.3558 41.1448 42.9367 41.8872 42.9367C43.7551 42.9367 44.7969 44.3616 44.7969 46.014C44.7969 47.6904 43.7551 49.1153 41.8872 49.1153C41.1208 49.1153 40.2108 48.6004 39.8157 47.8221V51.7736H38.9535ZM45.8534 40.1347H46.7156V49.0195H45.8534V40.1347ZM50.6825 48.2412C51.7601 48.2412 52.73 47.3671 52.742 46.026C52.73 44.6969 51.7601 43.8108 50.6825 43.8108C49.3533 43.8108 48.6349 44.7687 48.6349 46.026C48.6349 47.2833 49.3533 48.2412 50.6825 48.2412ZM47.7727 46.026C47.7727 44.3616 48.8145 42.9606 50.6705 42.9606C51.377 42.9606 52.1673 43.3318 52.7181 44.2179V42.9247H53.5802V49.0195H52.7181V47.8221C52.1433 48.7561 51.3889 49.1034 50.6705 49.1034C48.8145 49.1034 47.7727 47.6784 47.7727 46.026ZM57.6656 48.2173C58.2883 48.2173 58.863 47.9778 59.2702 47.5707L59.9168 48.1454C59.342 48.7202 58.5757 49.0794 57.7135 49.0794C55.7498 49.0794 54.6122 47.6305 54.6122 45.8703C54.6122 44.1221 55.7498 42.6732 57.7135 42.6732C58.5757 42.6732 59.342 43.0325 59.9168 43.6072L59.2702 44.182C58.863 43.7749 58.2883 43.5354 57.6656 43.5354C56.2527 43.5354 55.4744 44.5771 55.4744 45.8703C55.4744 47.1755 56.2527 48.2173 57.6656 48.2173ZM65.2575 45.547C65.1617 44.6849 64.7426 43.7629 63.4494 43.7629C62.3119 43.7629 61.5814 44.3736 61.4258 45.559L65.2575 45.547ZM60.5397 45.9781C60.5397 44.3017 61.5455 42.9007 63.4135 42.9007C65.3533 42.9007 65.8442 44.4095 65.9041 44.5532C66.2633 45.5351 66.1196 46.3972 66.1196 46.3972H61.4258C61.5814 47.5228 62.3119 48.1933 63.4255 48.1933C64.8025 48.1933 65.1378 47.4389 65.2216 47.3192L65.964 47.7144C65.964 47.7144 65.4611 49.0555 63.4135 49.0555C61.5455 49.0555 60.5397 47.6425 60.5397 45.9781ZM71.5713 45.5949C71.5713 44.4574 70.9247 43.7988 70.0147 43.7988C69.0687 43.7988 68.2425 44.6849 68.2425 45.8344V49.0195H67.3804V40.1347H68.2425V44.0742C68.5419 43.4516 69.2244 42.9606 70.0506 42.9606C71.284 42.9606 72.4335 44.0143 72.4335 45.547V49.0195H71.5713V45.5949ZM76.6721 48.2292C78.0132 48.2292 78.7197 47.2474 78.7197 45.9781C78.7197 44.7088 78.0132 43.727 76.6721 43.727C75.3191 43.727 74.6365 44.7088 74.6365 45.9781C74.6365 47.2474 75.3191 48.2292 76.6721 48.2292ZM73.7744 45.9781C73.7744 44.3137 74.8042 42.8888 76.6721 42.8888C78.5521 42.8888 79.5818 44.3137 79.5818 45.9781C79.5818 47.6425 78.5521 49.0674 76.6721 49.0674C74.8042 49.0674 73.7744 47.6425 73.7744 45.9781ZM80.6345 40.1347H81.4967V49.0195H80.6345V40.1347ZM85.4636 49.1153C83.6076 49.1153 82.5539 47.6904 82.5539 46.014C82.5539 44.3496 83.6076 42.9127 85.4636 42.9127C86.2419 42.9127 87.0561 43.3079 87.5591 44.2179V40.1347H88.4212V49.0195H87.5591V47.8101C87.0442 48.7202 86.2419 49.1153 85.4636 49.1153ZM83.416 46.014C83.416 47.2953 84.1464 48.2532 85.4995 48.2532C86.6011 48.2532 87.5591 47.2953 87.5591 46.014C87.5591 44.7448 86.6011 43.7749 85.4995 43.7749C84.1464 43.7749 83.416 44.7448 83.416 46.014ZM94.3041 45.547C94.2083 44.6849 93.7892 43.7629 92.496 43.7629C91.3585 43.7629 90.6281 44.3736 90.4724 45.559L94.3041 45.547ZM89.5863 45.9781C89.5863 44.3017 90.5922 42.9007 92.4601 42.9007C94.3999 42.9007 94.8909 44.4095 94.9507 44.5532C95.31 45.5351 95.1663 46.3972 95.1663 46.3972H90.4724C90.6281 47.5228 91.3585 48.1933 92.4721 48.1933C93.8491 48.1933 94.1844 47.4389 94.2682 47.3192L95.0106 47.7144C95.0106 47.7144 94.5077 49.0555 92.4601 49.0555C90.5922 49.0555 89.5863 47.6425 89.5863 45.9781ZM97.1574 44.2059C97.5047 43.4037 98.4985 42.8648 99.3248 42.8648V43.7509C98.2112 43.7509 97.1574 44.9124 97.1574 45.8823V49.0195H96.2953V42.9247H97.1574V44.2059Z" fill="#333333"/>
<mask id="path-4-inside-2_1101_63609" fill="white">
<path d="M38.0195 80.8906H232.001V100.381H38.0195V80.8906Z"/>
</mask>
<path d="M38.0195 80.8906H232.001V100.381H38.0195V80.8906Z" fill="white"/>
<path d="M38.0195 80.8906V81.639H232.001V80.8906V80.1422H38.0195V80.8906Z" fill="#EEEEEE" mask="url(#path-4-inside-2_1101_63609)"/>
<path d="M192.489 95.6998C193.683 95.6998 194.417 94.7045 194.417 92.5985C194.417 90.4926 193.683 89.5077 192.489 89.5077C191.284 89.5077 190.551 90.4926 190.551 92.5985C190.551 94.7045 191.284 95.6998 192.489 95.6998ZM189.796 92.5985C189.796 90.1783 190.865 88.7533 192.489 88.7533C194.103 88.7533 195.171 90.1783 195.171 92.5985C195.171 95.0188 194.113 96.4542 192.489 96.4542C190.855 96.4542 189.796 95.0188 189.796 92.5985ZM198.925 95.6998C200.119 95.6998 200.853 94.7045 200.853 92.5985C200.853 90.4926 200.119 89.5077 198.925 89.5077C197.72 89.5077 196.987 90.4926 196.987 92.5985C196.987 94.7045 197.72 95.6998 198.925 95.6998ZM196.232 92.5985C196.232 90.1783 197.301 88.7533 198.925 88.7533C200.538 88.7533 201.607 90.1783 201.607 92.5985C201.607 95.0188 200.549 96.4542 198.925 96.4542C197.29 96.4542 196.232 95.0188 196.232 92.5985ZM205.361 95.6998C206.555 95.6998 207.288 94.7045 207.288 92.5985C207.288 90.4926 206.555 89.5077 205.361 89.5077C204.156 89.5077 203.422 90.4926 203.422 92.5985C203.422 94.7045 204.156 95.6998 205.361 95.6998ZM202.668 92.5985C202.668 90.1783 203.737 88.7533 205.361 88.7533C206.974 88.7533 208.043 90.1783 208.043 92.5985C208.043 95.0188 206.985 96.4542 205.361 96.4542C203.726 96.4542 202.668 95.0188 202.668 92.5985ZM212.006 88.3762L209.816 96.8838H209.062L211.262 88.3762H212.006ZM215.91 95.6998C217.104 95.6998 217.837 94.7045 217.837 92.5985C217.837 90.4926 217.104 89.5077 215.91 89.5077C214.705 89.5077 213.971 90.4926 213.971 92.5985C213.971 94.7045 214.705 95.6998 215.91 95.6998ZM213.217 92.5985C213.217 90.1783 214.286 88.7533 215.91 88.7533C217.523 88.7533 218.592 90.1783 218.592 92.5985C218.592 95.0188 217.534 96.4542 215.91 96.4542C214.275 96.4542 213.217 95.0188 213.217 92.5985ZM222.345 95.6998C223.54 95.6998 224.273 94.7045 224.273 92.5985C224.273 90.4926 223.54 89.5077 222.345 89.5077C221.141 89.5077 220.407 90.4926 220.407 92.5985C220.407 94.7045 221.141 95.6998 222.345 95.6998ZM219.653 92.5985C219.653 90.1783 220.721 88.7533 222.345 88.7533C223.959 88.7533 225.028 90.1783 225.028 92.5985C225.028 95.0188 223.969 96.4542 222.345 96.4542C220.711 96.4542 219.653 95.0188 219.653 92.5985ZM228.781 95.6998C229.976 95.6998 230.709 94.7045 230.709 92.5985C230.709 90.4926 229.976 89.5077 228.781 89.5077C227.576 89.5077 226.843 90.4926 226.843 92.5985C226.843 94.7045 227.576 95.6998 228.781 95.6998ZM226.089 92.5985C226.089 90.1783 227.157 88.7533 228.781 88.7533C230.395 88.7533 231.463 90.1783 231.463 92.5985C231.463 95.0188 230.405 96.4542 228.781 96.4542C227.147 96.4542 226.089 95.0188 226.089 92.5985Z" fill="#999999"/>
<path fill-rule="evenodd" clip-rule="evenodd" d="M44.7784 119.629C44.9975 119.848 44.9975 120.204 44.7784 120.423L36.1719 129.029C35.9527 129.249 35.5974 129.249 35.3782 129.029L31.2621 124.913C31.0429 124.694 31.0429 124.339 31.2621 124.12C31.4812 123.9 31.8366 123.9 32.0558 124.12L35.7751 127.839L43.9846 119.629C44.2038 119.41 44.5592 119.41 44.7784 119.629Z" fill="#999999"/>
<path d="M56.3644 120.764V128.329H55.61V124.809H51.6286V128.329H50.8742V120.764H51.6286V124.075H55.61V120.764H56.3644ZM61.7173 125.291C61.6335 124.536 61.2668 123.73 60.1352 123.73C59.1399 123.73 58.5007 124.264 58.3645 125.301L61.7173 125.291ZM57.5892 125.668C57.5892 124.201 58.4693 122.975 60.1038 122.975C61.8011 122.975 62.2307 124.295 62.2831 124.421C62.5974 125.28 62.4717 126.035 62.4717 126.035H58.3645C58.5007 127.019 59.1399 127.606 60.1143 127.606C61.3192 127.606 61.6125 126.946 61.6859 126.841L62.3355 127.187C62.3355 127.187 61.8954 128.361 60.1038 128.361C58.4693 128.361 57.5892 127.124 57.5892 125.668ZM63.4141 120.555H64.1685V128.329H63.4141V120.555ZM68.1025 127.68C69.255 127.68 69.9046 126.82 69.9046 125.699C69.9046 124.599 69.255 123.74 68.1025 123.74C67.1386 123.74 66.3109 124.599 66.3109 125.699C66.3109 126.82 67.1386 127.68 68.1025 127.68ZM65.546 130.739V122.996H66.3004V124.128C66.6462 123.373 67.4634 123.007 68.113 123.007C69.7475 123.007 70.659 124.253 70.659 125.699C70.659 127.166 69.7475 128.413 68.113 128.413C67.4425 128.413 66.6462 127.962 66.3004 127.281V130.739H65.546ZM81.1173 125.06C81.1173 124.211 80.6039 123.73 79.8496 123.73C79.1476 123.73 78.4246 124.39 78.4246 125.06V128.329H77.6703V125.06C77.6703 124.39 77.2407 123.73 76.4235 123.73C75.6796 123.73 74.9881 124.39 74.9881 125.144V128.329H74.2337V122.996H74.9881V123.918C75.3233 123.342 75.8158 122.996 76.4549 122.996C77.2302 122.996 77.7436 123.331 78.1208 124.065C78.5084 123.52 79.0428 122.996 79.881 122.996C80.9706 122.996 81.8717 123.876 81.8717 124.976V128.329H81.1173V125.06ZM87.0732 125.291C86.9894 124.536 86.6226 123.73 85.4911 123.73C84.4957 123.73 83.8566 124.264 83.7204 125.301L87.0732 125.291ZM82.9451 125.668C82.9451 124.201 83.8252 122.975 85.4597 122.975C87.157 122.975 87.5866 124.295 87.6389 124.421C87.9533 125.28 87.8275 126.035 87.8275 126.035H83.7204C83.8566 127.019 84.4957 127.606 85.4701 127.606C86.675 127.606 86.9684 126.946 87.0417 126.841L87.6913 127.187C87.6913 127.187 87.2513 128.361 85.4597 128.361C83.8252 128.361 82.9451 127.124 82.9451 125.668ZM89.3358 126.883C89.5453 127.365 90.0377 127.648 90.6769 127.617C91.5989 127.596 91.9656 126.454 91.0226 126.15C90.6769 126.045 90.0482 125.877 89.5348 125.542C88.7385 125.008 88.749 124.222 88.99 123.74C89.3148 123.101 90.1425 122.912 90.6245 122.954C91.075 123.007 91.7036 123.164 92.1018 123.698L91.4941 124.138C91.2741 123.834 90.9178 123.74 90.5616 123.698C90.2368 123.667 89.8072 123.782 89.6501 124.075C89.5139 124.358 89.5243 124.641 89.9539 124.924C90.3625 125.196 90.8864 125.322 91.2531 125.448C93.0133 126.014 92.4475 128.319 90.6978 128.361C89.8177 128.402 88.9795 127.941 88.6547 127.177L89.3358 126.883ZM93.6743 126.883C93.8839 127.365 94.3763 127.648 95.0154 127.617C95.9374 127.596 96.3042 126.454 95.3612 126.15C95.0154 126.045 94.3868 125.877 93.8734 125.542C93.0771 125.008 93.0876 124.222 93.3286 123.74C93.6534 123.101 94.4811 122.912 94.963 122.954C95.4136 123.007 96.0422 123.164 96.4404 123.698L95.8327 124.138C95.6126 123.834 95.2564 123.74 94.9002 123.698C94.5754 123.667 94.1458 123.782 93.9887 124.075C93.8524 124.358 93.8629 124.641 94.2925 124.924C94.7011 125.196 95.225 125.322 95.5917 125.448C97.3519 126.014 96.7861 128.319 95.0364 128.361C94.1563 128.402 93.3181 127.941 92.9933 127.177L93.6743 126.883ZM100.093 127.648C101.036 127.648 101.884 126.883 101.895 125.71C101.884 124.547 101.036 123.771 100.093 123.771C98.9298 123.771 98.3011 124.61 98.3011 125.71C98.3011 126.81 98.9298 127.648 100.093 127.648ZM97.5467 125.71C97.5467 124.253 98.4583 123.028 100.082 123.028C100.7 123.028 101.392 123.352 101.874 124.128V122.996H102.628V128.329H101.874V127.281C101.371 128.099 100.711 128.402 100.082 128.402C98.4583 128.402 97.5467 127.156 97.5467 125.71ZM106.283 127.669C107.279 127.669 108.064 126.799 108.064 125.71C108.064 124.641 107.268 123.771 106.283 123.771C105.194 123.771 104.492 124.536 104.492 125.71C104.492 126.904 105.194 127.669 106.283 127.669ZM103.737 125.71C103.737 124.128 104.775 123.038 106.273 123.038C107.069 123.038 107.75 123.457 108.064 124.138V122.996H108.819V128.067C108.798 129.765 107.813 130.728 106.116 130.728C105.267 130.728 104.523 130.288 103.978 129.471L104.617 129.063C105.005 129.67 105.508 129.974 106.116 129.974C107.415 129.974 108.054 129.345 108.064 128.057V127.26C107.698 127.92 106.954 128.402 106.273 128.402C104.775 128.402 103.737 127.302 103.737 125.71ZM113.841 125.291C113.757 124.536 113.391 123.73 112.259 123.73C111.264 123.73 110.624 124.264 110.488 125.301L113.841 125.291ZM109.713 125.668C109.713 124.201 110.593 122.975 112.228 122.975C113.925 122.975 114.354 124.295 114.407 124.421C114.721 125.28 114.595 126.035 114.595 126.035H110.488C110.624 127.019 111.264 127.606 112.238 127.606C113.443 127.606 113.736 126.946 113.81 126.841L114.459 127.187C114.459 127.187 114.019 128.361 112.228 128.361C110.593 128.361 109.713 127.124 109.713 125.668Z" fill="#616161"/>
</g>
<defs>
<filter id="filter0_dd_1101_63609" x="0.338152" y="0.545883" width="269.343" height="163.671" filterUnits="userSpaceOnUse" color-interpolation-filters="sRGB">
<feFlood flood-opacity="0" result="BackgroundImageFix"/>
<feColorMatrix in="SourceAlpha" type="matrix" values="0 0 0 0 0 0 0 0 0 0 0 0 0 0 0 0 0 0 127 0" result="hardAlpha"/>
<feOffset/>
<feGaussianBlur stdDeviation="0.551933"/>
<feComposite in2="hardAlpha" operator="out"/>
<feColorMatrix type="matrix" values="0 0 0 0 0 0 0 0 0 0 0 0 0 0 0 0 0 0 0.2 0"/>
<feBlend mode="normal" in2="BackgroundImageFix" result="effect1_dropShadow_1101_63609"/>
<feColorMatrix in="SourceAlpha" type="matrix" values="0 0 0 0 0 0 0 0 0 0 0 0 0 0 0 0 0 0 127 0" result="hardAlpha"/>
<feOffset dy="2.20773"/>
<feGaussianBlur stdDeviation="8.83092"/>
<feComposite in2="hardAlpha" operator="out"/>
<feColorMatrix type="matrix" values="0 0 0 0 0 0 0 0 0 0 0 0 0 0 0 0 0 0 0.08 0"/>
<feBlend mode="normal" in2="effect1_dropShadow_1101_63609" result="effect2_dropShadow_1101_63609"/>
<feBlend mode="normal" in="SourceGraphic" in2="effect2_dropShadow_1101_63609" result="shape"/>
</filter>
</defs>
</svg>
