<svg width="270" height="148" viewBox="0 0 270 148" fill="none" xmlns="http://www.w3.org/2000/svg">
<g filter="url(#filter0_dd_957_52676)">
<rect width="234" height="112" transform="translate(18 16)" fill="white"/>
<path d="M36.0554 31.3937V32.2319H33.3493V40.0391H32.4871V32.2319H29.7929V31.3937H36.0554ZM37.3787 33.9442H38.2408V40.0391H37.3787V33.9442ZM37.2589 31.729C37.2589 31.4297 37.4505 31.1902 37.8097 31.1902C38.157 31.1902 38.3486 31.4297 38.3486 31.729C38.3486 32.0403 38.157 32.2798 37.8097 32.2798C37.4505 32.2798 37.2589 32.0403 37.2589 31.729ZM42.928 39.9073C42.7125 39.9552 42.3892 40.0151 42.0419 40.0151C41.1319 40.0151 40.4015 39.2847 40.4015 38.3866V34.7345H39.4076V33.8963H40.4015V32.0164H41.2636V33.8963H42.6885V34.7345H41.2636V38.3866C41.2636 38.8656 41.551 39.153 42.0419 39.153C42.3173 39.153 42.5448 39.1171 42.7364 39.0692L42.928 39.9073ZM44.1201 31.1543H44.9822V40.0391H44.1201V31.1543ZM50.7572 36.5666C50.6614 35.7044 50.2423 34.7824 48.9491 34.7824C47.8116 34.7824 47.0812 35.3931 46.9255 36.5785L50.7572 36.5666ZM46.0394 36.9976C46.0394 35.3213 47.0452 33.9203 48.9132 33.9203C50.853 33.9203 51.344 35.429 51.4038 35.5727C51.763 36.5546 51.6194 37.4167 51.6194 37.4167H46.9255C47.0812 38.5423 47.8116 39.2128 48.9252 39.2128C50.3022 39.2128 50.6375 38.4585 50.7213 38.3387L51.4637 38.7339C51.4637 38.7339 50.9608 40.075 48.9132 40.075C47.0452 40.075 46.0394 38.662 46.0394 36.9976Z" fill="#616161"/>
<mask id="path-2-inside-1_957_52676" fill="white">
<path d="M29.0386 55.3654C29.0386 52.969 30.9812 51.0264 33.3776 51.0264H236.7C239.096 51.0264 241.039 52.969 241.039 55.3654V88.5969C241.039 90.9932 239.096 92.9358 236.7 92.9358H33.3776C30.9812 92.9358 29.0386 90.9932 29.0386 88.5969V55.3654Z"/>
</mask>
<path d="M29.0386 55.3654C29.0386 52.969 30.9812 51.0264 33.3776 51.0264H236.7C239.096 51.0264 241.039 52.969 241.039 55.3654V88.5969C241.039 90.9932 239.096 92.9358 236.7 92.9358H33.3776C30.9812 92.9358 29.0386 90.9932 29.0386 88.5969V55.3654Z" fill="#EEEEEE"/>
<path d="M33.3776 51.0264V51.7748H236.7V51.0264V50.278H33.3776V51.0264ZM241.039 55.3654H240.29V88.5969H241.039H241.787V55.3654H241.039ZM236.7 92.9358V92.1875H33.3776V92.9358V93.6842H236.7V92.9358ZM29.0386 88.5969H29.787V55.3654H29.0386H28.2902V88.5969H29.0386ZM33.3776 92.9358V92.1875C31.3945 92.1875 29.787 90.5799 29.787 88.5969H29.0386H28.2902C28.2902 91.4065 30.5679 93.6842 33.3776 93.6842V92.9358ZM241.039 88.5969H240.29C240.29 90.5799 238.683 92.1875 236.7 92.1875V92.9358V93.6842C239.509 93.6842 241.787 91.4065 241.787 88.5969H241.039ZM236.7 51.0264V51.7748C238.683 51.7748 240.29 53.3823 240.29 55.3654H241.039H241.787C241.787 52.5557 239.509 50.278 236.7 50.278V51.0264ZM33.3776 51.0264V50.278C30.5679 50.278 28.2902 52.5557 28.2902 55.3654H29.0386H29.787C29.787 53.3823 31.3945 51.7748 33.3776 51.7748V51.0264Z" fill="#BDBDBD" mask="url(#path-2-inside-1_957_52676)"/>
<path d="M42.3569 76.1658C43.8387 76.1658 44.6739 75.0612 44.6739 73.6198C44.6739 72.2053 43.8387 71.1007 42.3569 71.1007C41.1176 71.1007 40.0534 72.2053 40.0534 73.6198C40.0534 75.0612 41.1176 76.1658 42.3569 76.1658ZM39.07 80.0993V70.1443H40.0399V71.5991C40.4845 70.6292 41.5352 70.1578 42.3704 70.1578C44.4718 70.1578 45.6438 71.7608 45.6438 73.6198C45.6438 75.5057 44.4718 77.1087 42.3704 77.1087C41.5083 77.1087 40.4845 76.5295 40.0399 75.6539V80.0993H39.07ZM46.8464 67.0056H47.8164V77.001H46.8464V67.0056ZM52.2931 76.1254C53.5055 76.1254 54.5967 75.142 54.6101 73.6333C54.5967 72.138 53.5055 71.1411 52.2931 71.1411C50.7979 71.1411 49.9896 72.2188 49.9896 73.6333C49.9896 75.0477 50.7979 76.1254 52.2931 76.1254ZM49.0197 73.6333C49.0197 71.7608 50.1917 70.1847 52.2797 70.1847C53.0745 70.1847 53.9635 70.6023 54.5832 71.5991V70.1443H55.5531V77.001H54.5832V75.6539C53.9366 76.7046 53.0879 77.0953 52.2797 77.0953C50.1917 77.0953 49.0197 75.4922 49.0197 73.6333ZM60.1632 76.0984C60.8637 76.0984 61.5103 75.829 61.9683 75.371L62.6958 76.0176C62.0492 76.6642 61.187 77.0683 60.2171 77.0683C58.0079 77.0683 56.7282 75.4384 56.7282 73.4581C56.7282 71.4914 58.0079 69.8614 60.2171 69.8614C61.187 69.8614 62.0492 70.2655 62.6958 70.9121L61.9683 71.5587C61.5103 71.1007 60.8637 70.8313 60.1632 70.8313C58.5737 70.8313 57.6981 72.0033 57.6981 73.4581C57.6981 74.9265 58.5737 76.0984 60.1632 76.0984ZM68.7181 73.0944C68.6104 72.1245 68.1389 71.0873 66.684 71.0873C65.4043 71.0873 64.5826 71.7743 64.4075 73.1079L68.7181 73.0944ZM63.4106 73.5794C63.4106 71.6934 64.5422 70.1173 66.6436 70.1173C68.8259 70.1173 69.3782 71.8147 69.4456 71.9763C69.8497 73.0809 69.688 74.0508 69.688 74.0508H64.4075C64.5826 75.3171 65.4043 76.0715 66.6571 76.0715C68.2062 76.0715 68.5834 75.2228 68.6777 75.0881L69.5129 75.5326C69.5129 75.5326 68.9471 77.0414 66.6436 77.0414C64.5422 77.0414 63.4106 75.4518 63.4106 73.5794ZM75.8352 73.1483C75.8352 71.8686 75.1078 71.1277 74.084 71.1277C73.0198 71.1277 72.0903 72.1245 72.0903 73.4177V77.001H71.1204V67.0056H72.0903V71.4375C72.4271 70.737 73.1949 70.1847 74.1244 70.1847C75.5119 70.1847 76.8051 71.3701 76.8051 73.0944V77.001H75.8352V73.1483ZM81.5877 76.1119C83.0964 76.1119 83.8912 75.0073 83.8912 73.5794C83.8912 72.1515 83.0964 71.0468 81.5877 71.0468C80.0654 71.0468 79.2976 72.1515 79.2976 73.5794C79.2976 75.0073 80.0654 76.1119 81.5877 76.1119ZM78.3277 73.5794C78.3277 71.7069 79.4862 70.1039 81.5877 70.1039C83.7026 70.1039 84.8611 71.7069 84.8611 73.5794C84.8611 75.4518 83.7026 77.0549 81.5877 77.0549C79.4862 77.0549 78.3277 75.4518 78.3277 73.5794ZM86.0594 67.0056H87.0293V77.001H86.0594V67.0056ZM91.5061 77.1087C89.4181 77.1087 88.2327 75.5057 88.2327 73.6198C88.2327 71.7473 89.4181 70.1308 91.5061 70.1308C92.3817 70.1308 93.2977 70.5754 93.8635 71.5991V67.0056H94.8334V77.001H93.8635V75.6404C93.2843 76.6642 92.3817 77.1087 91.5061 77.1087ZM89.2026 73.6198C89.2026 75.0612 90.0243 76.1388 91.5465 76.1388C92.7858 76.1388 93.8635 75.0612 93.8635 73.6198C93.8635 72.1919 92.7858 71.1007 91.5465 71.1007C90.0243 71.1007 89.2026 72.1919 89.2026 73.6198ZM101.466 73.0944C101.358 72.1245 100.887 71.0873 99.4317 71.0873C98.1519 71.0873 97.3302 71.7743 97.1551 73.1079L101.466 73.0944ZM96.1582 73.5794C96.1582 71.6934 97.2898 70.1173 99.3912 70.1173C101.574 70.1173 102.126 71.8147 102.193 71.9763C102.597 73.0809 102.436 74.0508 102.436 74.0508H97.1551C97.3302 75.3171 98.1519 76.0715 99.4047 76.0715C100.954 76.0715 101.331 75.2228 101.425 75.0881L102.261 75.5326C102.261 75.5326 101.695 77.0414 99.3912 77.0414C97.2898 77.0414 96.1582 75.4518 96.1582 73.5794ZM104.69 71.5857C105.08 70.6831 106.199 70.0769 107.128 70.0769V71.0738C105.875 71.0738 104.69 72.3805 104.69 73.4716V77.001H103.72V70.1443H104.69V71.5857Z" fill="#BDBDBD"/>
<path fill-rule="evenodd" clip-rule="evenodd" d="M44.7774 103.203C44.9966 103.423 44.9966 103.778 44.7774 103.997L36.171 112.604C35.9518 112.823 35.5964 112.823 35.3772 112.604L31.2611 108.488C31.0419 108.268 31.0419 107.913 31.2611 107.694C31.4803 107.475 31.8357 107.475 32.0549 107.694L35.7741 111.413L43.9836 103.203C44.2028 102.984 44.5582 102.984 44.7774 103.203Z" fill="#999999"/>
<path d="M56.3636 104.339V111.903H55.6093V108.383H51.6279V111.903H50.8735V104.339H51.6279V107.65H55.6093V104.339H56.3636ZM61.7166 108.865C61.6327 108.111 61.266 107.304 60.1345 107.304C59.1391 107.304 58.5 107.838 58.3638 108.875L61.7166 108.865ZM57.5885 109.242C57.5885 107.775 58.4686 106.549 60.1031 106.549C61.8004 106.549 62.23 107.87 62.2823 107.995C62.5967 108.854 62.4709 109.609 62.4709 109.609H58.3638C58.5 110.594 59.1391 111.18 60.1135 111.18C61.3184 111.18 61.6118 110.52 61.6851 110.416L62.3347 110.761C62.3347 110.761 61.8947 111.935 60.1031 111.935C58.4686 111.935 57.5885 110.698 57.5885 109.242ZM63.4134 104.129H64.1677V111.903H63.4134V104.129ZM68.1018 111.254C69.2543 111.254 69.9039 110.395 69.9039 109.274C69.9039 108.173 69.2543 107.314 68.1018 107.314C67.1379 107.314 66.3102 108.173 66.3102 109.274C66.3102 110.395 67.1379 111.254 68.1018 111.254ZM65.5453 114.313V106.57H66.2997V107.702C66.6454 106.948 67.4627 106.581 68.1123 106.581C69.7467 106.581 70.6583 107.828 70.6583 109.274C70.6583 110.74 69.7467 111.987 68.1123 111.987C67.4417 111.987 66.6454 111.537 66.2997 110.856V114.313H65.5453ZM81.1166 108.634C81.1166 107.786 80.6032 107.304 79.8488 107.304C79.1468 107.304 78.4239 107.964 78.4239 108.634V111.903H77.6695V108.634C77.6695 107.964 77.24 107.304 76.4227 107.304C75.6788 107.304 74.9873 107.964 74.9873 108.718V111.903H74.2329V106.57H74.9873V107.492C75.3226 106.916 75.815 106.57 76.4542 106.57C77.2295 106.57 77.7429 106.906 78.1201 107.639C78.5077 107.094 79.0421 106.57 79.8803 106.57C80.9699 106.57 81.871 107.45 81.871 108.551V111.903H81.1166V108.634ZM87.0724 108.865C86.9886 108.111 86.6219 107.304 85.4904 107.304C84.495 107.304 83.8559 107.838 83.7197 108.875L87.0724 108.865ZM82.9444 109.242C82.9444 107.775 83.8245 106.549 85.4589 106.549C87.1563 106.549 87.5858 107.87 87.6382 107.995C87.9525 108.854 87.8268 109.609 87.8268 109.609H83.7197C83.8559 110.594 84.495 111.18 85.4694 111.18C86.6743 111.18 86.9677 110.52 87.041 110.416L87.6906 110.761C87.6906 110.761 87.2506 111.935 85.4589 111.935C83.8245 111.935 82.9444 110.698 82.9444 109.242ZM89.335 110.457C89.5446 110.939 90.037 111.222 90.6761 111.191C91.5981 111.17 91.9648 110.028 91.0219 109.724C90.6761 109.619 90.0475 109.452 89.5341 109.116C88.7378 108.582 88.7483 107.796 88.9893 107.314C89.3141 106.675 90.1418 106.487 90.6237 106.528C91.0743 106.581 91.7029 106.738 92.101 107.272L91.4934 107.712C91.2733 107.409 90.9171 107.314 90.5609 107.272C90.2361 107.241 89.8065 107.356 89.6493 107.65C89.5131 107.932 89.5236 108.215 89.9532 108.498C90.3618 108.771 90.8857 108.896 91.2524 109.022C93.0126 109.588 92.4468 111.893 90.6971 111.935C89.817 111.977 88.9788 111.516 88.654 110.751L89.335 110.457ZM93.6736 110.457C93.8831 110.939 94.3756 111.222 95.0147 111.191C95.9367 111.17 96.3034 110.028 95.3605 109.724C95.0147 109.619 94.3861 109.452 93.8727 109.116C93.0764 108.582 93.0869 107.796 93.3278 107.314C93.6526 106.675 94.4804 106.487 94.9623 106.528C95.4128 106.581 96.0415 106.738 96.4396 107.272L95.8319 107.712C95.6119 107.409 95.2557 107.314 94.8995 107.272C94.5747 107.241 94.1451 107.356 93.9879 107.65C93.8517 107.932 93.8622 108.215 94.2918 108.498C94.7004 108.771 95.2243 108.896 95.591 109.022C97.3512 109.588 96.7854 111.893 95.0357 111.935C94.1556 111.977 93.3174 111.516 92.9926 110.751L93.6736 110.457ZM100.092 111.222C101.035 111.222 101.884 110.457 101.894 109.284C101.884 108.121 101.035 107.346 100.092 107.346C98.929 107.346 98.3004 108.184 98.3004 109.284C98.3004 110.384 98.929 111.222 100.092 111.222ZM97.546 109.284C97.546 107.828 98.4575 106.602 100.082 106.602C100.7 106.602 101.391 106.927 101.873 107.702V106.57H102.628V111.903H101.873V110.856C101.37 111.673 100.71 111.977 100.082 111.977C98.4575 111.977 97.546 110.73 97.546 109.284ZM106.283 111.243C107.278 111.243 108.064 110.374 108.064 109.284C108.064 108.215 107.267 107.346 106.283 107.346C105.193 107.346 104.491 108.111 104.491 109.284C104.491 110.478 105.193 111.243 106.283 111.243ZM103.737 109.284C103.737 107.702 104.774 106.612 106.272 106.612C107.068 106.612 107.749 107.031 108.064 107.712V106.57H108.818V111.641C108.797 113.339 107.812 114.303 106.115 114.303C105.266 114.303 104.522 113.863 103.978 113.045L104.617 112.637C105.004 113.244 105.507 113.548 106.115 113.548C107.414 113.548 108.053 112.92 108.064 111.631V110.835C107.697 111.495 106.953 111.977 106.272 111.977C104.774 111.977 103.737 110.877 103.737 109.284ZM113.84 108.865C113.756 108.111 113.39 107.304 112.258 107.304C111.263 107.304 110.624 107.838 110.488 108.875L113.84 108.865ZM109.712 109.242C109.712 107.775 110.592 106.549 112.227 106.549C113.924 106.549 114.354 107.87 114.406 107.995C114.72 108.854 114.595 109.609 114.595 109.609H110.488C110.624 110.594 111.263 111.18 112.237 111.18C113.442 111.18 113.736 110.52 113.809 110.416L114.458 110.761C114.458 110.761 114.018 111.935 112.227 111.935C110.592 111.935 109.712 110.698 109.712 109.242Z" fill="#616161"/>
</g>
<defs>
<filter id="filter0_dd_957_52676" x="0.338152" y="0.545883" width="269.324" height="147.324" filterUnits="userSpaceOnUse" color-interpolation-filters="sRGB">
<feFlood flood-opacity="0" result="BackgroundImageFix"/>
<feColorMatrix in="SourceAlpha" type="matrix" values="0 0 0 0 0 0 0 0 0 0 0 0 0 0 0 0 0 0 127 0" result="hardAlpha"/>
<feOffset/>
<feGaussianBlur stdDeviation="0.551933"/>
<feComposite in2="hardAlpha" operator="out"/>
<feColorMatrix type="matrix" values="0 0 0 0 0 0 0 0 0 0 0 0 0 0 0 0 0 0 0.2 0"/>
<feBlend mode="normal" in2="BackgroundImageFix" result="effect1_dropShadow_957_52676"/>
<feColorMatrix in="SourceAlpha" type="matrix" values="0 0 0 0 0 0 0 0 0 0 0 0 0 0 0 0 0 0 127 0" result="hardAlpha"/>
<feOffset dy="2.20773"/>
<feGaussianBlur stdDeviation="8.83092"/>
<feComposite in2="hardAlpha" operator="out"/>
<feColorMatrix type="matrix" values="0 0 0 0 0 0 0 0 0 0 0 0 0 0 0 0 0 0 0.08 0"/>
<feBlend mode="normal" in2="effect1_dropShadow_957_52676" result="effect2_dropShadow_957_52676"/>
<feBlend mode="normal" in="SourceGraphic" in2="effect2_dropShadow_957_52676" result="shape"/>
</filter>
</defs>
</svg>
