<svg width="285" height="74" viewBox="0 0 285 74" fill="none" xmlns="http://www.w3.org/2000/svg">
<rect width="284.245" height="73.9057" fill="white"/>
<path d="M27.3272 29.2337C29.9549 29.2337 31.8517 31.6442 31.8517 35.4376C31.8517 39.2508 29.9549 41.681 27.3272 41.681C24.6994 41.681 22.7829 39.2508 22.7829 35.4376C22.7829 31.6442 24.6994 29.2337 27.3272 29.2337ZM24.8377 35.4376C24.8377 38.1642 25.8454 39.7448 27.3272 39.7448C28.809 39.7448 29.8166 38.1642 29.8166 35.4376C29.8166 32.7506 28.809 31.17 27.3272 31.17C25.8454 31.17 24.8377 32.7506 24.8377 35.4376ZM34.1633 45.5337V27.9693H36.2971V34.7659H38.9644V36.5243H36.2971V45.5337H34.1633ZM41.5663 29.5301H53.895V31.1305C53.895 33.2643 53.9147 35.6945 53.1442 39.4286L51.0499 39.1916C51.3462 37.769 51.5438 36.5243 51.6426 35.3981L41.3489 35.9513L41.0723 34.1336L51.7612 33.778C51.8007 32.8494 51.8007 32.0196 51.8007 31.249H41.5663V29.5301ZM39.7288 43.3406V41.6217H45.5968V37.2751H47.7109V41.6217H55.5941V43.3406H39.7288ZM69.1812 27.9693H71.315V45.5732H69.1812V27.9693ZM57.9194 41.3056V29.5696H66.3164V31.3083H60.0335V39.5274C63.2539 39.5077 65.3087 39.4286 67.6401 38.9742L67.8377 40.7524C65.3087 41.2266 63.0761 41.3056 59.4012 41.3056H57.9194ZM86.3839 27.989H88.5177V40.8512H86.3839V34.4102H83.2425C82.8275 36.5045 81.0296 37.9271 78.7575 37.9271C76.1495 37.9271 74.1737 36.0699 74.1737 33.4816C74.1737 30.8934 76.1495 29.0559 78.7575 29.0559C81.0691 29.0559 82.9066 30.518 83.282 32.6913H86.3839V27.989ZM76.189 33.4816C76.189 35.0622 77.2954 36.0501 78.7575 36.0501C80.1998 36.0501 81.3062 35.0622 81.3062 33.4816C81.3062 31.9208 80.1998 30.9131 78.7575 30.9131C77.2954 30.9131 76.189 31.9208 76.189 33.4816ZM77.0781 45.1979V39.5669H79.2119V43.4789H88.9721V45.1979H77.0781ZM96.1802 29.4906H104.38V31.2293H98.2943V34.3905H104.083V36.0501H98.2943V39.725C101.041 39.7053 103.115 39.6065 105.565 39.2311L105.763 40.9302C103.076 41.3649 100.724 41.4439 97.583 41.4439H96.1802V29.4906ZM106.968 45.5337V27.9693H109.102V34.8054H111.769V36.5638H109.102V45.5337H106.968ZM124.882 27.9495H127.016V45.5732H124.882V27.9495ZM113.087 35.4376C113.087 31.6442 114.983 29.2337 117.631 29.2337C120.278 29.2337 122.175 31.6442 122.175 35.4376C122.175 39.2508 120.278 41.681 117.631 41.681C114.983 41.681 113.087 39.2508 113.087 35.4376ZM115.141 35.4376C115.141 38.1642 116.149 39.7448 117.631 39.7448C119.113 39.7448 120.14 38.1642 120.14 35.4376C120.14 32.7506 119.113 31.17 117.631 31.17C116.149 31.17 115.141 32.7506 115.141 35.4376ZM131.653 28.3644H143.626V29.8462H133.767V30.9131H143.211V32.3357H133.767V33.4421H143.764V34.9239H131.653V28.3644ZM129.677 37.5319V35.9513H145.483V37.5319H129.677ZM131.494 40.0806V38.5791H143.527V42.6491H133.628V43.8741H144.041V45.3954H131.534V41.2068H141.452V40.0806H131.494Z" fill="#1A1A1A"/>
<path fill-rule="evenodd" clip-rule="evenodd" d="M241.952 31.2499C242.274 30.9284 242.795 30.9284 243.116 31.2499L249.12 37.2536L255.124 31.2499C255.445 30.9284 255.966 30.9284 256.288 31.2499C256.609 31.5714 256.609 32.0926 256.288 32.4141L249.702 39C249.381 39.3215 248.859 39.3215 248.538 39L241.952 32.4141C241.631 32.0926 241.631 31.5714 241.952 31.2499Z" fill="#999999"/>
</svg>
