<svg width="117" height="50" viewBox="0 0 117 50" fill="none" xmlns="http://www.w3.org/2000/svg">
<path d="M0 25C0 11.1929 11.1929 0 25 0H92C105.807 0 117 11.1929 117 25C117 38.8071 105.807 50 92 50H25C11.1929 50 0 38.8071 0 25Z" fill="#FF8120"/>
<path d="M38.668 29.48C40.188 29.48 41.036 28.44 41.036 26.984C41.036 25.544 40.188 24.488 38.668 24.488C37.404 24.488 36.268 25.48 36.268 26.984C36.268 28.504 37.404 29.48 38.668 29.48ZM34.604 31V19H36.268V24.28C36.972 23.224 37.996 22.856 38.796 22.856C41.308 22.856 42.7 24.76 42.7 26.984C42.7 29.224 41.292 31.128 38.78 31.128C37.996 31.128 37.004 30.856 36.268 29.688V31H34.604ZM45.9301 27.4C45.9301 28.616 46.6661 29.48 47.9781 29.48C49.2901 29.48 50.1381 28.44 50.1221 27.32V22.728H51.7861V31.112H50.1221V29.864C49.5461 30.712 48.8261 31.112 47.7701 31.112C45.9621 31.112 44.2661 29.8 44.2661 27.48V22.76H45.9301V27.4ZM58.5754 30.904C58.2394 30.984 57.5354 31.112 56.9754 31.08C55.7274 31.016 54.5434 29.944 54.5434 28.552V24.312H53.1194V22.68H54.5434V19.848H56.2074V22.68H58.3674V24.312H56.2074V28.552C56.2074 29.096 56.5434 29.4 57.0874 29.416C57.4554 29.432 57.9194 29.352 58.2074 29.288L58.5754 30.904ZM64.2535 30.904C63.9175 30.984 63.2135 31.112 62.6535 31.08C61.4055 31.016 60.2215 29.944 60.2215 28.552V24.312H58.7975V22.68H60.2215V19.848H61.8855V22.68H64.0455V24.312H61.8855V28.552C61.8855 29.096 62.2215 29.4 62.7655 29.416C63.1335 29.432 63.5975 29.352 63.8855 29.288L64.2535 30.904ZM68.9035 29.528C70.4075 29.528 71.2875 28.44 71.2875 26.952C71.2875 25.448 70.4075 24.36 68.9035 24.36C67.3995 24.36 66.5355 25.448 66.5355 26.952C66.5355 28.44 67.3995 29.528 68.9035 29.528ZM64.8715 26.952C64.8715 24.664 66.4075 22.712 68.9035 22.712C71.4635 22.712 72.9515 24.664 72.9515 26.952C72.9515 29.224 71.4635 31.176 68.9035 31.176C66.4075 31.176 64.8715 29.224 64.8715 26.952ZM80.2096 26.472C80.2096 25.208 79.4896 24.408 78.1776 24.408C76.9456 24.408 76.0016 25.448 76.0176 26.568V31.112H74.3536V22.76H76.0176V24.088C76.5776 23.288 77.3136 22.76 78.3696 22.76C80.0016 22.76 81.8736 24.008 81.8736 26.408V31.112H80.2096V26.472Z" fill="white"/>
</svg>
