<svg width="670" height="118" viewBox="0 0 670 118" fill="none" xmlns="http://www.w3.org/2000/svg">
<path d="M10.2242 12.16C10.2242 11.68 10.2989 11.296 10.4482 11.008C10.6082 10.7093 10.8215 10.496 11.0882 10.368C11.3655 10.24 11.6695 10.176 12.0002 10.176C12.3309 10.176 12.6295 10.24 12.8962 10.368C13.1629 10.496 13.3762 10.7093 13.5362 11.008C13.6962 11.296 13.7762 11.68 13.7762 12.16C13.7762 12.6293 13.6962 13.0133 13.5362 13.312C13.3762 13.6 13.1629 13.8133 12.8962 13.952C12.6295 14.08 12.3309 14.144 12.0002 14.144C11.6695 14.144 11.3655 14.08 11.0882 13.952C10.8215 13.8133 10.6082 13.6 10.4482 13.312C10.2989 13.0133 10.2242 12.6293 10.2242 12.16ZM24.976 6.208H32.464V7.2H29.328V7.808C29.328 9.664 30.704 11.312 32.736 12L32.16 12.928C30.576 12.384 29.36 11.28 28.768 9.856C28.176 11.472 26.88 12.752 25.216 13.344L24.608 12.4C26.688 11.664 28.144 9.856 28.144 7.824V7.2H24.976V6.208ZM26.464 16.56C26.464 14.944 28.208 14.016 31.04 14.016C33.888 14.016 35.632 14.944 35.632 16.56C35.632 18.192 33.888 19.136 31.04 19.136C28.208 19.136 26.464 18.192 26.464 16.56ZM27.632 16.56C27.632 17.584 28.944 18.192 31.04 18.192C33.152 18.192 34.448 17.584 34.448 16.56C34.448 15.568 33.152 14.976 31.04 14.976C28.944 14.976 27.632 15.568 27.632 16.56ZM34.288 13.616V5.168H35.488V8.768H37.584V9.76H35.488V13.616H34.288ZM48.7304 5.168H49.9304V19.168H48.7304V5.168ZM38.6504 15.568C42.4264 13.76 44.3304 11.024 44.5864 7.664H39.2744V6.672H45.8024C45.8024 10.704 43.9464 14.256 39.2904 16.528L38.6504 15.568ZM52.3088 16.352H55.4608V12.528C54.2768 11.92 53.5568 10.912 53.5568 9.648C53.5568 7.472 55.6848 6.064 58.6288 6.064C61.6048 6.064 63.7008 7.472 63.7008 9.648C63.7008 10.896 62.9968 11.888 61.8448 12.512V16.352H64.9968V17.344H52.3088V16.352ZM54.7248 9.648C54.7248 11.232 56.3568 12.272 58.6288 12.272C60.9008 12.272 62.5488 11.232 62.5488 9.648C62.5488 8.064 60.9008 7.024 58.6288 7.024C56.3568 7.024 54.7248 8.064 54.7248 9.648ZM56.6448 16.352H60.6448V12.976C60.0368 13.136 59.3648 13.216 58.6288 13.216C57.9088 13.216 57.2528 13.136 56.6448 12.976V16.352ZM70.0631 6C72.1591 6 73.6951 7.344 73.6951 9.296C73.6951 11.248 72.1591 12.576 70.0631 12.576C67.9511 12.576 66.4311 11.248 66.4311 9.296C66.4311 7.344 67.9511 6 70.0631 6ZM67.5991 9.296C67.5991 10.64 68.6391 11.568 70.0631 11.568C71.4871 11.568 72.5431 10.64 72.5431 9.296C72.5431 7.952 71.4871 7.024 70.0631 7.024C68.6391 7.024 67.5991 7.952 67.5991 9.296ZM67.9671 16.528C67.9671 14.88 69.7111 13.92 72.5591 13.92C75.3911 13.92 77.1351 14.88 77.1351 16.528C77.1351 18.176 75.3911 19.136 72.5591 19.136C69.7111 19.136 67.9671 18.176 67.9671 16.528ZM69.1351 16.528C69.1351 17.552 70.4471 18.176 72.5591 18.176C74.6551 18.176 75.9511 17.552 75.9511 16.528C75.9511 15.504 74.6551 14.896 72.5591 14.896C70.4471 14.896 69.1351 15.504 69.1351 16.528ZM75.7911 13.472V5.168H76.9911V7.296H79.0551V8.304H76.9911V10.272H79.0551V11.28H76.9911V13.472H75.7911ZM87.4175 8.832H90.2655V5.168H91.4655V13.504H90.2655V9.824H87.4175V8.832ZM80.0415 12.416C82.0895 11.664 83.5775 9.776 83.5775 7.744V7.2H80.4095V6.208H87.8815V7.2H84.7775V7.744C84.7775 9.568 86.1855 11.312 88.2015 12.016L87.5775 12.976C86.0095 12.4 84.7935 11.216 84.2015 9.76C83.6095 11.424 82.2975 12.736 80.6495 13.376L80.0415 12.416ZM82.2175 16.56C82.2175 14.928 83.9775 13.952 86.8735 13.952C89.7535 13.952 91.5135 14.928 91.5135 16.56C91.5135 18.208 89.7535 19.152 86.8735 19.152C83.9775 19.152 82.2175 18.208 82.2175 16.56ZM83.4175 16.56C83.4175 17.584 84.7295 18.208 86.8735 18.208C89.0015 18.208 90.3295 17.584 90.3295 16.56C90.3295 15.52 89.0015 14.896 86.8735 14.896C84.7295 14.896 83.4175 15.52 83.4175 16.56ZM93.8119 16.352H99.5399V13.296H95.3319V6.16H96.5159V8.688H103.78V6.16H104.964V13.296H100.724V16.352H106.5V17.36H93.8119V16.352ZM96.5159 12.32H103.78V9.68H96.5159V12.32ZM111.184 16.336H116.928V12.928H118.128V16.336H123.872V17.344H111.184V16.336ZM111.824 12.448C114.144 12.048 116.896 10.08 116.896 7.824V7.456H112.24V6.464H122.8V7.456H118.144V7.824C118.144 10.08 120.928 12.016 123.28 12.4L122.784 13.344C120.688 12.928 118.432 11.552 117.536 9.632C116.624 11.568 114.384 12.96 112.32 13.392L111.824 12.448ZM135.178 5.168H136.378V19.168H135.178V5.168ZM125.082 15.44C126.266 15.44 127.626 15.44 129.034 15.392V13.84C127.37 13.664 126.298 12.704 126.298 11.296C126.298 9.728 127.626 8.704 129.626 8.704C131.626 8.704 132.986 9.728 132.986 11.296C132.986 12.688 131.898 13.648 130.25 13.84V15.344C131.61 15.28 132.986 15.184 134.266 15.008L134.346 15.904C131.242 16.432 127.834 16.464 125.258 16.464L125.082 15.44ZM125.386 7.872V6.896H129.034V5.168H130.25V6.896H133.898V7.872H125.386ZM127.418 11.296C127.418 12.288 128.33 12.928 129.626 12.928C130.954 12.928 131.85 12.288 131.85 11.296C131.85 10.288 130.954 9.632 129.626 9.632C128.33 9.632 127.418 10.288 127.418 11.296ZM146.086 6.4H147.286V8.944C147.286 11.504 149.03 14.08 151.046 15.024L150.326 15.984C148.742 15.2 147.366 13.52 146.71 11.504C146.07 13.632 144.678 15.424 143.046 16.24L142.31 15.248C144.342 14.272 146.086 11.6 146.086 8.944V6.4ZM152.598 19.184V5.152H153.798V19.184H152.598ZM163.664 8.704H166.496V5.168H167.696V13.36H166.496V9.696H163.664V8.704ZM156.272 12.272C158.32 11.536 159.808 9.68 159.808 7.664V7.072H156.656V6.08H164.128V7.072H161.008V7.648C161.008 9.472 162.432 11.232 164.448 11.936L163.824 12.896C162.256 12.32 161.04 11.12 160.448 9.664C159.856 11.296 158.544 12.592 156.896 13.232L156.272 12.272ZM158.64 18.976V14.064H167.696V18.976H158.64ZM159.824 18H166.528V15.024H159.824V18ZM180.779 5.168H181.931V19.168H180.779V5.168ZM170.235 11.2C170.235 8.224 171.403 6.352 173.195 6.352C174.907 6.352 176.027 7.984 176.171 10.64H178.011V5.488H179.147V18.448H178.011V11.632H176.171C176.075 14.368 174.923 16.064 173.195 16.064C171.403 16.064 170.235 14.192 170.235 11.2ZM171.339 11.2C171.339 13.488 172.059 14.944 173.195 14.944C174.363 14.944 175.083 13.488 175.083 11.2C175.083 8.912 174.363 7.472 173.195 7.472C172.059 7.472 171.339 8.912 171.339 11.2ZM197.207 5.152H198.407V10.688H200.455V11.696H198.407V19.184H197.207V5.152ZM187.879 15.472V6.64H191.399V7.616H189.063V14.464C189.751 14.432 190.615 14.368 191.543 14.176L191.671 15.168C190.359 15.456 189.303 15.472 188.487 15.472H187.879ZM192.199 15.472V6.64H195.895V7.616H193.367V14.464C194.471 14.448 195.351 14.4 196.343 14.144L196.487 15.136C195.255 15.44 194.279 15.472 192.855 15.472H192.199ZM210.833 5.152H212.017V10.752H214.337V11.776H212.017V19.184H210.833V5.152ZM201.809 7.472V6.496H208.129V11.456H203.041V14.784C205.649 14.784 207.457 14.688 209.585 14.288L209.697 15.28C207.505 15.68 205.649 15.792 202.961 15.792H201.857V10.464H206.945V7.472H201.809ZM226.077 8.832H228.925V5.168H230.125V13.504H228.925V9.824H226.077V8.832ZM218.701 12.416C220.749 11.664 222.237 9.776 222.237 7.744V7.2H219.069V6.208H226.541V7.2H223.437V7.744C223.437 9.568 224.845 11.312 226.861 12.016L226.237 12.976C224.669 12.4 223.453 11.216 222.861 9.76C222.269 11.424 220.957 12.736 219.309 13.376L218.701 12.416ZM220.877 16.56C220.877 14.928 222.637 13.952 225.533 13.952C228.413 13.952 230.173 14.928 230.173 16.56C230.173 18.208 228.413 19.152 225.533 19.152C222.637 19.152 220.877 18.208 220.877 16.56ZM222.077 16.56C222.077 17.584 223.389 18.208 225.533 18.208C227.661 18.208 228.989 17.584 228.989 16.56C228.989 15.52 227.661 14.896 225.533 14.896C223.389 14.896 222.077 15.52 222.077 16.56ZM232.471 16.352H238.199V13.296H233.991V6.16H235.175V8.688H242.439V6.16H243.623V13.296H239.383V16.352H245.159V17.36H232.471V16.352ZM235.175 12.32H242.439V9.68H235.175V12.32ZM255.842 5.152H257.058V10.88H259.314V11.888H257.058V19.168H255.842V5.152ZM246.418 15.552C250.018 13.744 251.97 10.992 252.242 7.664H247.058V6.672H253.458C253.458 10.624 251.602 14.224 247.09 16.48L246.418 15.552ZM273.23 5.152H274.43V10.72H276.75V11.728H274.43V19.184H273.23V5.152ZM264.302 15.68V6.544H270.798V7.52H265.486V14.656C268.062 14.656 269.838 14.576 271.886 14.176L272.03 15.2C269.87 15.6 268.046 15.68 265.39 15.68H264.302ZM277.512 11.712H290.2V12.624H277.512V11.712ZM279.032 14.672V13.792H288.6V16.752H280.248V18.096H289.048V18.992H279.064V15.904H287.432V14.672H279.032ZM279.128 6.48V5.6H288.552V8.48H280.328V9.728H288.808V10.624H279.16V7.648H287.368V6.48H279.128ZM300.596 5.68H301.844V6.48C301.844 8.464 304.436 10.176 306.9 10.544L306.404 11.504C304.276 11.136 302.132 9.92 301.236 8.208C300.356 9.952 298.196 11.136 296.036 11.504L295.54 10.544C298.036 10.176 300.596 8.512 300.596 6.48V5.68ZM294.884 14.08V13.088H307.54V14.08H301.78V19.168H300.596V14.08H294.884ZM28.176 37.808H29.328V38.576C29.328 39.84 30 41.168 31.312 41.936C32.672 41.088 33.36 39.664 33.36 38.576V37.808H34.528V38.576C34.528 40.032 35.6 41.472 37.36 42.08L36.768 42.976C35.392 42.48 34.416 41.488 33.92 40.32C33.504 41.456 32.656 42.544 31.36 43.104C30.016 42.576 29.152 41.552 28.736 40.368C28.24 41.488 27.28 42.464 25.952 42.976L25.344 42.08C27.104 41.44 28.176 39.92 28.176 38.576V37.808ZM24.976 33.264C24.976 31.328 26.496 30 28.608 30C30.72 30 32.24 31.328 32.24 33.264C32.24 35.184 30.72 36.496 28.608 36.496C26.496 36.496 24.976 35.184 24.976 33.264ZM26.144 33.264C26.144 34.592 27.184 35.504 28.608 35.504C30.048 35.504 31.072 34.592 31.072 33.264C31.072 31.936 30.048 31.008 28.608 31.008C27.184 31.008 26.144 31.936 26.144 33.264ZM34.896 37.184V29.184H36.112V37.184H34.896ZM42.1864 30.256C44.0904 30.256 45.4664 31.904 45.6424 34.544H48.7784V29.152H49.9624V43.184H48.7784V35.504H45.6424C45.5304 38.256 44.1224 40 42.1864 40C40.1544 40 38.7144 38.096 38.7144 35.12C38.7144 32.144 40.1544 30.256 42.1864 30.256ZM39.8504 35.12C39.8504 37.408 40.8104 38.928 42.1864 38.928C43.5784 38.928 44.5224 37.408 44.5224 35.12C44.5224 32.832 43.5784 31.328 42.1864 31.328C40.8104 31.328 39.8504 32.832 39.8504 35.12ZM52.3088 40.352H55.4608V36.528C54.2768 35.92 53.5568 34.912 53.5568 33.648C53.5568 31.472 55.6848 30.064 58.6288 30.064C61.6048 30.064 63.7008 31.472 63.7008 33.648C63.7008 34.896 62.9968 35.888 61.8448 36.512V40.352H64.9968V41.344H52.3088V40.352ZM54.7248 33.648C54.7248 35.232 56.3568 36.272 58.6288 36.272C60.9008 36.272 62.5488 35.232 62.5488 33.648C62.5488 32.064 60.9008 31.024 58.6288 31.024C56.3568 31.024 54.7248 32.064 54.7248 33.648ZM56.6448 40.352H60.6448V36.976C60.0368 37.136 59.3648 37.216 58.6288 37.216C57.9088 37.216 57.2528 37.136 56.6448 36.976V40.352ZM67.3111 40.608C67.8231 40.608 68.0951 40.96 68.0951 41.392C68.0951 41.856 67.8231 42.208 67.3111 42.208C66.7831 42.208 66.4951 41.856 66.4951 41.392C66.4951 40.96 66.7831 40.608 67.3111 40.608Z" fill="#616161"/>
<path d="M9.76019 82.16C9.76019 81.5627 9.85619 81.0827 10.0482 80.72C10.2509 80.3573 10.5229 80.096 10.8642 79.936C11.2055 79.7653 11.5842 79.68 12.0002 79.68C12.4162 79.68 12.7895 79.7653 13.1202 79.936C13.4615 80.096 13.7335 80.3573 13.9362 80.72C14.1389 81.0827 14.2402 81.5627 14.2402 82.16C14.2402 82.7467 14.1389 83.2213 13.9362 83.584C13.7335 83.9467 13.4615 84.2133 13.1202 84.384C12.7895 84.5547 12.4162 84.64 12.0002 84.64C11.5842 84.64 11.2055 84.5547 10.8642 84.384C10.5229 84.2133 10.2509 83.9467 10.0482 83.584C9.85619 83.2213 9.76019 82.7467 9.76019 82.16ZM24.88 76.048H32.544V77.44H29.6V77.616C29.6 79.36 30.72 81.008 32.928 81.696L32.096 83.04C30.512 82.544 29.392 81.52 28.784 80.24C28.16 81.744 26.976 82.928 25.28 83.504L24.416 82.144C26.672 81.376 27.872 79.536 27.872 77.616V77.44H24.88V76.048ZM26.32 86.56C26.32 84.864 28.16 83.856 31.072 83.856C34.016 83.856 35.824 84.864 35.824 86.56C35.824 88.272 34.016 89.264 31.072 89.264C28.16 89.264 26.32 88.272 26.32 86.56ZM28.016 86.56C28.016 87.456 29.136 87.936 31.072 87.936C33.024 87.936 34.128 87.456 34.128 86.56C34.128 85.68 33.024 85.216 31.072 85.216C29.136 85.216 28.016 85.68 28.016 86.56ZM33.952 83.552V75.056H35.664V78.48H37.648V79.888H35.664V83.552H33.952ZM48.4104 75.056H50.1384V89.28H48.4104V75.056ZM38.4584 85.408C42.1704 83.616 43.8824 81.184 44.1704 77.92H39.1784V76.544H45.9304C45.9304 80.8 44.2984 84.384 39.3704 86.768L38.4584 85.408ZM52.2128 86.144H55.1888V82.496C54.0688 81.84 53.3968 80.848 53.3968 79.584C53.3968 77.296 55.6048 75.824 58.6448 75.824C61.7008 75.824 63.8928 77.296 63.8928 79.584C63.8928 80.832 63.2208 81.84 62.1168 82.496V86.144H65.0928V87.536H52.2128V86.144ZM55.0768 79.584C55.0768 81.072 56.5328 81.984 58.6448 81.984C60.7408 81.984 62.2128 81.072 62.2128 79.584C62.2128 78.096 60.7408 77.184 58.6448 77.184C56.5328 77.184 55.0768 78.096 55.0768 79.584ZM56.9008 86.144H60.3888V83.136C59.8448 83.248 59.2688 83.312 58.6448 83.312C58.0208 83.312 57.4448 83.248 56.9008 83.136V86.144ZM70.0151 75.856C72.1911 75.856 73.8231 77.264 73.8231 79.264C73.8231 81.264 72.1911 82.672 70.0151 82.672C67.8391 82.672 66.2231 81.264 66.2231 79.264C66.2231 77.264 67.8391 75.856 70.0151 75.856ZM67.8391 86.528C67.8391 84.784 69.6631 83.76 72.5911 83.76C75.5031 83.76 77.3271 84.784 77.3271 86.528C77.3271 88.256 75.5031 89.264 72.5911 89.264C69.6631 89.264 67.8391 88.256 67.8391 86.528ZM67.9031 79.264C67.9031 80.48 68.7991 81.232 70.0151 81.232C71.2311 81.232 72.1431 80.48 72.1431 79.264C72.1431 78.064 71.2311 77.312 70.0151 77.312C68.7991 77.312 67.9031 78.064 67.9031 79.264ZM69.5351 86.528C69.5351 87.424 70.6391 87.92 72.5911 87.92C74.5271 87.92 75.6311 87.424 75.6311 86.528C75.6311 85.616 74.5271 85.136 72.5911 85.136C70.6391 85.136 69.5351 85.616 69.5351 86.528ZM75.4551 83.408V75.056H77.1831V76.96H79.1031V78.368H77.1831V80.032H79.1031V81.44H77.1831V83.408H75.4551ZM87.5135 78.608H89.9615V75.056H91.6895V83.504H89.9615V80.016H87.5135V78.608ZM79.8495 82.096C82.0895 81.312 83.3055 79.408 83.3055 77.488V77.376H80.3455V76H87.9615V77.376H85.0495V77.488C85.0495 79.232 86.1855 80.992 88.3615 81.728L87.5135 83.088C85.9455 82.544 84.8255 81.456 84.2175 80.112C83.5935 81.648 82.4095 82.88 80.7295 83.472L79.8495 82.096ZM82.1055 86.592C82.1055 84.896 83.9455 83.888 86.9375 83.888C89.9135 83.888 91.7375 84.896 91.7375 86.592C91.7375 88.304 89.9135 89.28 86.9375 89.28C83.9455 89.28 82.1055 88.304 82.1055 86.592ZM83.8335 86.592C83.8335 87.488 84.9535 87.968 86.9375 87.968C88.9055 87.968 90.0255 87.488 90.0255 86.592C90.0255 85.68 88.9055 85.2 86.9375 85.2C84.9535 85.2 83.8335 85.68 83.8335 86.592ZM93.7159 86.144H99.2839V83.328H95.1559V76H96.8519V78.336H103.444V76H105.14V83.328H100.996V86.144H106.596V87.552H93.7159V86.144ZM96.8519 81.968H103.444V79.696H96.8519V81.968ZM111.088 86.144H116.672V82.864H118.4V86.144H123.968V87.552H111.088V86.144ZM111.648 82.08C114.464 81.616 116.576 79.68 116.624 77.616H112.16V76.224H122.88V77.616H118.416C118.464 79.68 120.592 81.568 123.472 82.016L122.784 83.376C120.416 82.928 118.464 81.664 117.536 79.888C116.624 81.68 114.672 82.976 112.336 83.44L111.648 82.08ZM134.938 75.056H136.65V89.28H134.938V75.056ZM124.986 85.344C126.106 85.344 127.37 85.344 128.698 85.312V83.968C127.114 83.712 126.09 82.736 126.09 81.392C126.09 79.792 127.498 78.736 129.562 78.736C131.626 78.736 133.066 79.792 133.066 81.392C133.066 82.752 132.01 83.712 130.426 83.968V85.248C131.674 85.184 132.938 85.088 134.122 84.928L134.25 86.176C131.13 86.736 127.754 86.768 125.194 86.768L124.986 85.344ZM125.274 78.064V76.704H128.698V75.088H130.442V76.704H133.866V78.064H125.274ZM127.706 81.392C127.706 82.224 128.474 82.736 129.562 82.736C130.666 82.736 131.418 82.224 131.418 81.392C131.418 80.544 130.666 80.032 129.562 80.032C128.474 80.032 127.706 80.544 127.706 81.392ZM145.862 76.208H147.59V78.48C147.59 81.104 148.966 83.712 151.238 84.72L150.23 86.112C148.598 85.344 147.414 83.824 146.758 81.952C146.118 83.952 144.886 85.6 143.174 86.416L142.15 84.992C144.454 83.952 145.862 81.216 145.862 78.48V76.208ZM152.278 89.312V75.04H154.006V89.312H152.278ZM163.76 78.448H166.208V75.056H167.92V83.312H166.208V79.856H163.76V78.448ZM156.096 81.92C158.336 81.152 159.552 79.296 159.552 77.392V77.232H156.592V75.856H164.208V77.232H161.28V77.392C161.28 79.12 162.432 80.88 164.608 81.632L163.76 82.992C162.176 82.448 161.072 81.344 160.448 80C159.824 81.504 158.64 82.704 156.96 83.296L156.096 81.92ZM158.544 89.104V83.952H167.92V89.104H158.544ZM160.24 87.744H166.24V85.296H160.24V87.744ZM180.475 75.056H182.123V89.28H180.475V75.056ZM170.107 81.2C170.107 78.064 171.307 76.128 173.147 76.128C174.859 76.128 176.011 77.744 176.187 80.416H177.611V75.328H179.227V88.608H177.611V81.808H176.203C176.059 84.592 174.891 86.288 173.147 86.288C171.307 86.288 170.107 84.352 170.107 81.2ZM171.675 81.2C171.675 83.44 172.219 84.672 173.147 84.672C174.107 84.672 174.651 83.44 174.651 81.2C174.651 78.976 174.107 77.76 173.147 77.76C172.219 77.76 171.675 78.976 171.675 81.2ZM196.935 75.024H198.663V80.48H200.487V81.904H198.663V89.296H196.935V75.024ZM187.687 85.696V76.512H191.303V77.872H189.383V84.256C190.023 84.224 190.679 84.16 191.415 84.032L191.559 85.424C190.359 85.68 189.399 85.696 188.375 85.696H187.687ZM192.071 85.696V76.512H195.879V77.872H193.767V84.272C194.727 84.24 195.399 84.176 196.151 84L196.327 85.392C195.255 85.664 194.407 85.696 192.791 85.696H192.071ZM210.529 75.04H212.241V80.544H214.417V81.968H212.241V89.312H210.529V75.04ZM201.729 77.696V76.32H208.225V81.648H203.473V84.528C205.729 84.512 207.489 84.4 209.457 84.064L209.617 85.456C207.441 85.84 205.505 85.952 202.929 85.952H201.761V80.256H206.529V77.696H201.729ZM226.173 78.608H228.621V75.056H230.349V83.504H228.621V80.016H226.173V78.608ZM218.509 82.096C220.749 81.312 221.965 79.408 221.965 77.488V77.376H219.005V76H226.621V77.376H223.709V77.488C223.709 79.232 224.845 80.992 227.021 81.728L226.173 83.088C224.605 82.544 223.485 81.456 222.877 80.112C222.253 81.648 221.069 82.88 219.389 83.472L218.509 82.096ZM220.765 86.592C220.765 84.896 222.605 83.888 225.597 83.888C228.573 83.888 230.397 84.896 230.397 86.592C230.397 88.304 228.573 89.28 225.597 89.28C222.605 89.28 220.765 88.304 220.765 86.592ZM222.493 86.592C222.493 87.488 223.613 87.968 225.597 87.968C227.565 87.968 228.685 87.488 228.685 86.592C228.685 85.68 227.565 85.2 225.597 85.2C223.613 85.2 222.493 85.68 222.493 86.592ZM232.375 86.144H237.943V83.328H233.815V76H235.511V78.336H242.103V76H243.799V83.328H239.655V86.144H245.255V87.552H232.375V86.144ZM235.511 81.968H242.103V79.696H235.511V81.968ZM255.538 75.04H257.266V80.624H259.378V82.048H257.266V89.264H255.538V75.04ZM246.162 85.392C249.602 83.648 251.458 81.2 251.794 77.936H246.898V76.544H253.538C253.538 80.72 251.81 84.368 247.138 86.704L246.162 85.392ZM272.926 75.04H274.654V80.464H276.814V81.888H274.654V89.312H272.926V75.04ZM264.174 85.824V76.4H270.798V77.792H265.886V84.384C268.142 84.368 269.87 84.288 271.79 83.92L271.966 85.36C269.806 85.76 267.886 85.824 265.326 85.824H264.174ZM277.416 81.552H290.296V82.8H277.416V81.552ZM278.904 84.896V83.696H288.728V86.944H280.632V87.936H289.144V89.152H278.936V85.808H287.048V84.896H278.904ZM279.032 76.576V75.376H288.696V78.576H280.744V79.504H288.952V80.72H279.048V77.456H287V76.576H279.032ZM300.324 75.52H302.132V76.24C302.132 78.032 304.164 79.856 307.124 80.272L306.436 81.648C304.068 81.28 302.164 80.08 301.236 78.464C300.324 80.096 298.42 81.28 296.02 81.648L295.348 80.272C298.324 79.856 300.324 78.064 300.324 76.24V75.52ZM294.788 84.32V82.912H307.652V84.32H302.036V89.28H300.34V84.32H294.788ZM27.904 107.744H29.552V108.336C29.552 109.52 30.096 110.768 31.312 111.552C32.56 110.72 33.12 109.424 33.12 108.336V107.744H34.8V108.336C34.8 109.824 35.696 111.216 37.536 111.824L36.704 113.072C35.344 112.608 34.432 111.696 33.936 110.576C33.472 111.696 32.64 112.688 31.36 113.216C30.016 112.72 29.184 111.744 28.736 110.608C28.224 111.696 27.328 112.592 26.016 113.072L25.168 111.824C26.992 111.184 27.904 109.712 27.904 108.336V107.744ZM24.816 103.2C24.816 101.232 26.416 99.84 28.608 99.84C30.8 99.84 32.4 101.232 32.4 103.2C32.4 105.184 30.8 106.56 28.608 106.56C26.416 106.56 24.816 105.184 24.816 103.2ZM26.496 103.2C26.496 104.4 27.392 105.136 28.608 105.136C29.84 105.136 30.72 104.4 30.72 103.2C30.72 102.016 29.84 101.264 28.608 101.264C27.392 101.264 26.496 102.016 26.496 103.2ZM34.576 107.152V99.072H36.304V107.152H34.576ZM42.2184 100.08C44.1224 100.08 45.5624 101.696 45.8024 104.304H48.4904V99.04H50.2024V113.312H48.4904V105.68H45.8184C45.6424 108.432 44.1864 110.16 42.2184 110.16C40.1224 110.16 38.6024 108.192 38.6024 105.104C38.6024 102.032 40.1224 100.08 42.2184 100.08ZM40.2344 105.104C40.2344 107.312 41.0504 108.592 42.2184 108.592C43.4184 108.592 44.2024 107.312 44.2024 105.104C44.2024 102.928 43.4184 101.648 42.2184 101.648C41.0504 101.648 40.2344 102.928 40.2344 105.104ZM52.2128 110.144H55.1888V106.496C54.0688 105.84 53.3968 104.848 53.3968 103.584C53.3968 101.296 55.6048 99.824 58.6448 99.824C61.7008 99.824 63.8928 101.296 63.8928 103.584C63.8928 104.832 63.2208 105.84 62.1168 106.496V110.144H65.0928V111.536H52.2128V110.144ZM55.0768 103.584C55.0768 105.072 56.5328 105.984 58.6448 105.984C60.7408 105.984 62.2128 105.072 62.2128 103.584C62.2128 102.096 60.7408 101.184 58.6448 101.184C56.5328 101.184 55.0768 102.096 55.0768 103.584ZM56.9008 110.144H60.3888V107.136C59.8448 107.248 59.2688 107.312 58.6448 107.312C58.0208 107.312 57.4448 107.248 56.9008 107.136V110.144ZM67.3431 110.4C67.9831 110.4 68.3191 110.832 68.3191 111.376C68.3191 111.936 67.9831 112.368 67.3431 112.368C66.7031 112.368 66.3511 111.936 66.3511 111.376C66.3511 110.832 66.7031 110.4 67.3431 110.4Z" fill="#1A1A1A"/>
<path d="M359.091 88.4855C363.275 88.4855 366.667 85.0937 366.667 80.9097C366.667 76.7258 363.275 73.334 359.091 73.334C354.907 73.334 351.516 76.7258 351.516 80.9097C351.516 85.0937 354.907 88.4855 359.091 88.4855Z" fill="#E53935"/>
<path d="M359.091 80.4121C359.404 80.4123 359.659 80.666 359.659 80.9795V84.168C359.659 84.4816 359.404 84.7362 359.091 84.7363C358.777 84.7363 358.522 84.4817 358.522 84.168V80.9795C358.523 80.6659 358.777 80.4121 359.091 80.4121ZM359.095 77.1211C359.511 77.1211 359.849 77.4605 359.849 77.8789C359.849 78.2972 359.511 78.6367 359.095 78.6367H359.086C358.67 78.6365 358.333 78.297 358.333 77.8789C358.333 77.4607 358.67 77.1213 359.086 77.1211H359.095Z" fill="white"/>
<path d="M375.062 76.048H382.726V77.44H379.782V77.616C379.782 79.36 380.902 81.008 383.11 81.696L382.278 83.04C380.694 82.544 379.574 81.52 378.966 80.24C378.342 81.744 377.158 82.928 375.462 83.504L374.598 82.144C376.854 81.376 378.054 79.536 378.054 77.616V77.44H375.062V76.048ZM376.502 86.56C376.502 84.864 378.342 83.856 381.254 83.856C384.198 83.856 386.006 84.864 386.006 86.56C386.006 88.272 384.198 89.264 381.254 89.264C378.342 89.264 376.502 88.272 376.502 86.56ZM378.198 86.56C378.198 87.456 379.318 87.936 381.254 87.936C383.206 87.936 384.31 87.456 384.31 86.56C384.31 85.68 383.206 85.216 381.254 85.216C379.318 85.216 378.198 85.68 378.198 86.56ZM384.134 83.552V75.056H385.846V78.48H387.83V79.888H385.846V83.552H384.134ZM398.592 75.056H400.32V89.28H398.592V75.056ZM388.64 85.408C392.352 83.616 394.064 81.184 394.352 77.92H389.36V76.544H396.112C396.112 80.8 394.48 84.384 389.552 86.768L388.64 85.408ZM402.394 86.144H405.37V82.496C404.25 81.84 403.578 80.848 403.578 79.584C403.578 77.296 405.786 75.824 408.826 75.824C411.882 75.824 414.074 77.296 414.074 79.584C414.074 80.832 413.402 81.84 412.298 82.496V86.144H415.274V87.536H402.394V86.144ZM405.258 79.584C405.258 81.072 406.714 81.984 408.826 81.984C410.922 81.984 412.394 81.072 412.394 79.584C412.394 78.096 410.922 77.184 408.826 77.184C406.714 77.184 405.258 78.096 405.258 79.584ZM407.082 86.144H410.57V83.136C410.026 83.248 409.45 83.312 408.826 83.312C408.202 83.312 407.626 83.248 407.082 83.136V86.144ZM420.197 75.856C422.373 75.856 424.005 77.264 424.005 79.264C424.005 81.264 422.373 82.672 420.197 82.672C418.021 82.672 416.405 81.264 416.405 79.264C416.405 77.264 418.021 75.856 420.197 75.856ZM418.021 86.528C418.021 84.784 419.845 83.76 422.773 83.76C425.685 83.76 427.509 84.784 427.509 86.528C427.509 88.256 425.685 89.264 422.773 89.264C419.845 89.264 418.021 88.256 418.021 86.528ZM418.085 79.264C418.085 80.48 418.981 81.232 420.197 81.232C421.413 81.232 422.325 80.48 422.325 79.264C422.325 78.064 421.413 77.312 420.197 77.312C418.981 77.312 418.085 78.064 418.085 79.264ZM419.717 86.528C419.717 87.424 420.821 87.92 422.773 87.92C424.709 87.92 425.813 87.424 425.813 86.528C425.813 85.616 424.709 85.136 422.773 85.136C420.821 85.136 419.717 85.616 419.717 86.528ZM425.637 83.408V75.056H427.365V76.96H429.285V78.368H427.365V80.032H429.285V81.44H427.365V83.408H425.637ZM437.695 78.608H440.143V75.056H441.871V83.504H440.143V80.016H437.695V78.608ZM430.031 82.096C432.271 81.312 433.487 79.408 433.487 77.488V77.376H430.527V76H438.143V77.376H435.231V77.488C435.231 79.232 436.367 80.992 438.543 81.728L437.695 83.088C436.127 82.544 435.007 81.456 434.399 80.112C433.775 81.648 432.591 82.88 430.911 83.472L430.031 82.096ZM432.287 86.592C432.287 84.896 434.127 83.888 437.119 83.888C440.095 83.888 441.919 84.896 441.919 86.592C441.919 88.304 440.095 89.28 437.119 89.28C434.127 89.28 432.287 88.304 432.287 86.592ZM434.015 86.592C434.015 87.488 435.135 87.968 437.119 87.968C439.087 87.968 440.207 87.488 440.207 86.592C440.207 85.68 439.087 85.2 437.119 85.2C435.135 85.2 434.015 85.68 434.015 86.592ZM443.898 86.144H449.466V83.328H445.338V76H447.034V78.336H453.626V76H455.322V83.328H451.178V86.144H456.778V87.552H443.898V86.144ZM447.034 81.968H453.626V79.696H447.034V81.968ZM461.269 86.144H466.853V82.864H468.581V86.144H474.149V87.552H461.269V86.144ZM461.829 82.08C464.645 81.616 466.757 79.68 466.805 77.616H462.341V76.224H473.061V77.616H468.597C468.645 79.68 470.773 81.568 473.653 82.016L472.965 83.376C470.597 82.928 468.645 81.664 467.717 79.888C466.805 81.68 464.853 82.976 462.517 83.44L461.829 82.08ZM485.12 75.056H486.832V89.28H485.12V75.056ZM475.168 85.344C476.288 85.344 477.552 85.344 478.88 85.312V83.968C477.296 83.712 476.272 82.736 476.272 81.392C476.272 79.792 477.68 78.736 479.744 78.736C481.808 78.736 483.248 79.792 483.248 81.392C483.248 82.752 482.192 83.712 480.608 83.968V85.248C481.856 85.184 483.12 85.088 484.304 84.928L484.432 86.176C481.312 86.736 477.936 86.768 475.376 86.768L475.168 85.344ZM475.456 78.064V76.704H478.88V75.088H480.624V76.704H484.048V78.064H475.456ZM477.888 81.392C477.888 82.224 478.656 82.736 479.744 82.736C480.848 82.736 481.6 82.224 481.6 81.392C481.6 80.544 480.848 80.032 479.744 80.032C478.656 80.032 477.888 80.544 477.888 81.392ZM496.044 76.208H497.772V78.48C497.772 81.104 499.148 83.712 501.42 84.72L500.412 86.112C498.78 85.344 497.596 83.824 496.94 81.952C496.3 83.952 495.068 85.6 493.356 86.416L492.332 84.992C494.636 83.952 496.044 81.216 496.044 78.48V76.208ZM502.46 89.312V75.04H504.188V89.312H502.46ZM513.942 78.448H516.39V75.056H518.102V83.312H516.39V79.856H513.942V78.448ZM506.278 81.92C508.518 81.152 509.734 79.296 509.734 77.392V77.232H506.774V75.856H514.39V77.232H511.462V77.392C511.462 79.12 512.614 80.88 514.79 81.632L513.942 82.992C512.358 82.448 511.254 81.344 510.63 80C510.006 81.504 508.822 82.704 507.142 83.296L506.278 81.92ZM508.726 89.104V83.952H518.102V89.104H508.726ZM510.422 87.744H516.422V85.296H510.422V87.744ZM530.656 75.056H532.304V89.28H530.656V75.056ZM520.288 81.2C520.288 78.064 521.488 76.128 523.328 76.128C525.04 76.128 526.192 77.744 526.368 80.416H527.792V75.328H529.408V88.608H527.792V81.808H526.384C526.24 84.592 525.072 86.288 523.328 86.288C521.488 86.288 520.288 84.352 520.288 81.2ZM521.856 81.2C521.856 83.44 522.4 84.672 523.328 84.672C524.288 84.672 524.832 83.44 524.832 81.2C524.832 78.976 524.288 77.76 523.328 77.76C522.4 77.76 521.856 78.976 521.856 81.2ZM547.116 75.024H548.844V80.48H550.668V81.904H548.844V89.296H547.116V75.024ZM537.868 85.696V76.512H541.484V77.872H539.564V84.256C540.204 84.224 540.86 84.16 541.596 84.032L541.74 85.424C540.54 85.68 539.58 85.696 538.556 85.696H537.868ZM542.252 85.696V76.512H546.06V77.872H543.948V84.272C544.908 84.24 545.58 84.176 546.332 84L546.508 85.392C545.436 85.664 544.588 85.696 542.972 85.696H542.252ZM560.711 75.04H562.423V80.544H564.599V81.968H562.423V89.312H560.711V75.04ZM551.911 77.696V76.32H558.407V81.648H553.655V84.528C555.911 84.512 557.671 84.4 559.639 84.064L559.799 85.456C557.623 85.84 555.687 85.952 553.111 85.952H551.943V80.256H556.711V77.696H551.911ZM576.355 78.608H578.803V75.056H580.531V83.504H578.803V80.016H576.355V78.608ZM568.691 82.096C570.931 81.312 572.147 79.408 572.147 77.488V77.376H569.187V76H576.803V77.376H573.891V77.488C573.891 79.232 575.027 80.992 577.203 81.728L576.355 83.088C574.787 82.544 573.667 81.456 573.059 80.112C572.435 81.648 571.251 82.88 569.571 83.472L568.691 82.096ZM570.947 86.592C570.947 84.896 572.787 83.888 575.779 83.888C578.755 83.888 580.579 84.896 580.579 86.592C580.579 88.304 578.755 89.28 575.779 89.28C572.787 89.28 570.947 88.304 570.947 86.592ZM572.675 86.592C572.675 87.488 573.795 87.968 575.779 87.968C577.747 87.968 578.867 87.488 578.867 86.592C578.867 85.68 577.747 85.2 575.779 85.2C573.795 85.2 572.675 85.68 572.675 86.592ZM582.557 86.144H588.125V83.328H583.997V76H585.693V78.336H592.285V76H593.981V83.328H589.837V86.144H595.437V87.552H582.557V86.144ZM585.693 81.968H592.285V79.696H585.693V81.968ZM605.719 75.04H607.447V80.624H609.559V82.048H607.447V89.264H605.719V75.04ZM596.343 85.392C599.783 83.648 601.639 81.2 601.975 77.936H597.079V76.544H603.719C603.719 80.72 601.991 84.368 597.319 86.704L596.343 85.392ZM623.107 75.04H624.835V80.464H626.995V81.888H624.835V89.312H623.107V75.04ZM614.355 85.824V76.4H620.979V77.792H616.067V84.384C618.323 84.368 620.051 84.288 621.971 83.92L622.147 85.36C619.987 85.76 618.067 85.824 615.507 85.824H614.355ZM627.598 81.552H640.478V82.8H627.598V81.552ZM629.086 84.896V83.696H638.91V86.944H630.814V87.936H639.326V89.152H629.118V85.808H637.23V84.896H629.086ZM629.214 76.576V75.376H638.878V78.576H630.926V79.504H639.134V80.72H629.23V77.456H637.182V76.576H629.214ZM650.505 75.52H652.313V76.24C652.313 78.032 654.345 79.856 657.305 80.272L656.617 81.648C654.249 81.28 652.345 80.08 651.417 78.464C650.505 80.096 648.601 81.28 646.201 81.648L645.529 80.272C648.505 79.856 650.505 78.064 650.505 76.24V75.52ZM644.969 84.32V82.912H657.833V84.32H652.217V89.28H650.521V84.32H644.969ZM378.086 107.744H379.734V108.336C379.734 109.52 380.278 110.768 381.494 111.552C382.742 110.72 383.302 109.424 383.302 108.336V107.744H384.982V108.336C384.982 109.824 385.878 111.216 387.718 111.824L386.886 113.072C385.526 112.608 384.614 111.696 384.118 110.576C383.654 111.696 382.822 112.688 381.542 113.216C380.198 112.72 379.366 111.744 378.918 110.608C378.406 111.696 377.51 112.592 376.198 113.072L375.35 111.824C377.174 111.184 378.086 109.712 378.086 108.336V107.744ZM374.998 103.2C374.998 101.232 376.598 99.84 378.79 99.84C380.982 99.84 382.582 101.232 382.582 103.2C382.582 105.184 380.982 106.56 378.79 106.56C376.598 106.56 374.998 105.184 374.998 103.2ZM376.678 103.2C376.678 104.4 377.574 105.136 378.79 105.136C380.022 105.136 380.902 104.4 380.902 103.2C380.902 102.016 380.022 101.264 378.79 101.264C377.574 101.264 376.678 102.016 376.678 103.2ZM384.758 107.152V99.072H386.486V107.152H384.758ZM392.4 100.08C394.304 100.08 395.744 101.696 395.984 104.304H398.672V99.04H400.384V113.312H398.672V105.68H396C395.824 108.432 394.368 110.16 392.4 110.16C390.304 110.16 388.784 108.192 388.784 105.104C388.784 102.032 390.304 100.08 392.4 100.08ZM390.416 105.104C390.416 107.312 391.232 108.592 392.4 108.592C393.6 108.592 394.384 107.312 394.384 105.104C394.384 102.928 393.6 101.648 392.4 101.648C391.232 101.648 390.416 102.928 390.416 105.104ZM402.394 110.144H405.37V106.496C404.25 105.84 403.578 104.848 403.578 103.584C403.578 101.296 405.786 99.824 408.826 99.824C411.882 99.824 414.074 101.296 414.074 103.584C414.074 104.832 413.402 105.84 412.298 106.496V110.144H415.274V111.536H402.394V110.144ZM405.258 103.584C405.258 105.072 406.714 105.984 408.826 105.984C410.922 105.984 412.394 105.072 412.394 103.584C412.394 102.096 410.922 101.184 408.826 101.184C406.714 101.184 405.258 102.096 405.258 103.584ZM407.082 110.144H410.57V107.136C410.026 107.248 409.45 107.312 408.826 107.312C408.202 107.312 407.626 107.248 407.082 107.136V110.144ZM417.525 110.4C418.165 110.4 418.501 110.832 418.501 111.376C418.501 111.936 418.165 112.368 417.525 112.368C416.885 112.368 416.533 111.936 416.533 111.376C416.533 110.832 416.885 110.4 417.525 110.4Z" fill="#E53935"/>
<path d="M360 20.3337C364.603 20.3337 368.334 16.6027 368.334 12.0003C368.334 7.39795 364.603 3.66699 360 3.66699C355.398 3.66699 351.667 7.39795 351.667 12.0003C351.667 16.6027 355.398 20.3337 360 20.3337Z" fill="#999999"/>
<path d="M360 11.4531C360.345 11.4531 360.625 11.7329 360.625 12.0781V15.585C360.625 15.9299 360.345 16.21 360 16.21C359.655 16.2098 359.375 15.9298 359.375 15.585V12.0781C359.375 11.733 359.655 11.4533 360 11.4531ZM360.005 7.83301C360.462 7.83301 360.834 8.20593 360.834 8.66602C360.834 9.12625 360.463 9.5 360.005 9.5H359.996C359.538 9.5 359.167 9.12625 359.167 8.66602C359.167 8.20593 359.539 7.83301 359.996 7.83301H360.005Z" fill="white"/>
<path d="M376.976 6.208H384.464V7.2H381.328V7.808C381.328 9.664 382.704 11.312 384.736 12L384.16 12.928C382.576 12.384 381.36 11.28 380.768 9.856C380.176 11.472 378.88 12.752 377.216 13.344L376.608 12.4C378.688 11.664 380.144 9.856 380.144 7.824V7.2H376.976V6.208ZM378.464 16.56C378.464 14.944 380.208 14.016 383.04 14.016C385.888 14.016 387.632 14.944 387.632 16.56C387.632 18.192 385.888 19.136 383.04 19.136C380.208 19.136 378.464 18.192 378.464 16.56ZM379.632 16.56C379.632 17.584 380.944 18.192 383.04 18.192C385.152 18.192 386.448 17.584 386.448 16.56C386.448 15.568 385.152 14.976 383.04 14.976C380.944 14.976 379.632 15.568 379.632 16.56ZM386.288 13.616V5.168H387.488V8.768H389.584V9.76H387.488V13.616H386.288ZM400.73 5.168H401.93V19.168H400.73V5.168ZM390.65 15.568C394.426 13.76 396.33 11.024 396.586 7.664H391.274V6.672H397.802C397.802 10.704 395.946 14.256 391.29 16.528L390.65 15.568ZM404.309 16.352H407.461V12.528C406.277 11.92 405.557 10.912 405.557 9.648C405.557 7.472 407.685 6.064 410.629 6.064C413.605 6.064 415.701 7.472 415.701 9.648C415.701 10.896 414.997 11.888 413.845 12.512V16.352H416.997V17.344H404.309V16.352ZM406.725 9.648C406.725 11.232 408.357 12.272 410.629 12.272C412.901 12.272 414.549 11.232 414.549 9.648C414.549 8.064 412.901 7.024 410.629 7.024C408.357 7.024 406.725 8.064 406.725 9.648ZM408.645 16.352H412.645V12.976C412.037 13.136 411.365 13.216 410.629 13.216C409.909 13.216 409.253 13.136 408.645 12.976V16.352ZM422.063 6C424.159 6 425.695 7.344 425.695 9.296C425.695 11.248 424.159 12.576 422.063 12.576C419.951 12.576 418.431 11.248 418.431 9.296C418.431 7.344 419.951 6 422.063 6ZM419.599 9.296C419.599 10.64 420.639 11.568 422.063 11.568C423.487 11.568 424.543 10.64 424.543 9.296C424.543 7.952 423.487 7.024 422.063 7.024C420.639 7.024 419.599 7.952 419.599 9.296ZM419.967 16.528C419.967 14.88 421.711 13.92 424.559 13.92C427.391 13.92 429.135 14.88 429.135 16.528C429.135 18.176 427.391 19.136 424.559 19.136C421.711 19.136 419.967 18.176 419.967 16.528ZM421.135 16.528C421.135 17.552 422.447 18.176 424.559 18.176C426.655 18.176 427.951 17.552 427.951 16.528C427.951 15.504 426.655 14.896 424.559 14.896C422.447 14.896 421.135 15.504 421.135 16.528ZM427.791 13.472V5.168H428.991V7.296H431.055V8.304H428.991V10.272H431.055V11.28H428.991V13.472H427.791ZM439.418 8.832H442.266V5.168H443.466V13.504H442.266V9.824H439.418V8.832ZM432.042 12.416C434.09 11.664 435.578 9.776 435.578 7.744V7.2H432.41V6.208H439.882V7.2H436.778V7.744C436.778 9.568 438.186 11.312 440.202 12.016L439.578 12.976C438.01 12.4 436.794 11.216 436.202 9.76C435.61 11.424 434.298 12.736 432.65 13.376L432.042 12.416ZM434.218 16.56C434.218 14.928 435.978 13.952 438.874 13.952C441.754 13.952 443.514 14.928 443.514 16.56C443.514 18.208 441.754 19.152 438.874 19.152C435.978 19.152 434.218 18.208 434.218 16.56ZM435.418 16.56C435.418 17.584 436.73 18.208 438.874 18.208C441.002 18.208 442.33 17.584 442.33 16.56C442.33 15.52 441.002 14.896 438.874 14.896C436.73 14.896 435.418 15.52 435.418 16.56ZM445.812 16.352H451.54V13.296H447.332V6.16H448.516V8.688H455.78V6.16H456.964V13.296H452.724V16.352H458.5V17.36H445.812V16.352ZM448.516 12.32H455.78V9.68H448.516V12.32ZM463.184 16.336H468.928V12.928H470.128V16.336H475.872V17.344H463.184V16.336ZM463.824 12.448C466.144 12.048 468.896 10.08 468.896 7.824V7.456H464.24V6.464H474.8V7.456H470.144V7.824C470.144 10.08 472.928 12.016 475.28 12.4L474.784 13.344C472.688 12.928 470.432 11.552 469.536 9.632C468.624 11.568 466.384 12.96 464.32 13.392L463.824 12.448ZM487.178 5.168H488.378V19.168H487.178V5.168ZM477.082 15.44C478.266 15.44 479.626 15.44 481.034 15.392V13.84C479.37 13.664 478.298 12.704 478.298 11.296C478.298 9.728 479.626 8.704 481.626 8.704C483.626 8.704 484.986 9.728 484.986 11.296C484.986 12.688 483.898 13.648 482.25 13.84V15.344C483.61 15.28 484.986 15.184 486.266 15.008L486.346 15.904C483.242 16.432 479.834 16.464 477.258 16.464L477.082 15.44ZM477.386 7.872V6.896H481.034V5.168H482.25V6.896H485.898V7.872H477.386ZM479.418 11.296C479.418 12.288 480.33 12.928 481.626 12.928C482.954 12.928 483.85 12.288 483.85 11.296C483.85 10.288 482.954 9.632 481.626 9.632C480.33 9.632 479.418 10.288 479.418 11.296ZM498.086 6.4H499.286V8.944C499.286 11.504 501.03 14.08 503.046 15.024L502.326 15.984C500.742 15.2 499.366 13.52 498.71 11.504C498.07 13.632 496.678 15.424 495.046 16.24L494.31 15.248C496.342 14.272 498.086 11.6 498.086 8.944V6.4ZM504.598 19.184V5.152H505.798V19.184H504.598ZM515.664 8.704H518.496V5.168H519.696V13.36H518.496V9.696H515.664V8.704ZM508.272 12.272C510.32 11.536 511.808 9.68 511.808 7.664V7.072H508.656V6.08H516.128V7.072H513.008V7.648C513.008 9.472 514.432 11.232 516.448 11.936L515.824 12.896C514.256 12.32 513.04 11.12 512.448 9.664C511.856 11.296 510.544 12.592 508.896 13.232L508.272 12.272ZM510.64 18.976V14.064H519.696V18.976H510.64ZM511.824 18H518.528V15.024H511.824V18ZM532.779 5.168H533.931V19.168H532.779V5.168ZM522.235 11.2C522.235 8.224 523.403 6.352 525.195 6.352C526.907 6.352 528.027 7.984 528.171 10.64H530.011V5.488H531.147V18.448H530.011V11.632H528.171C528.075 14.368 526.923 16.064 525.195 16.064C523.403 16.064 522.235 14.192 522.235 11.2ZM523.339 11.2C523.339 13.488 524.059 14.944 525.195 14.944C526.363 14.944 527.083 13.488 527.083 11.2C527.083 8.912 526.363 7.472 525.195 7.472C524.059 7.472 523.339 8.912 523.339 11.2ZM549.207 5.152H550.407V10.688H552.455V11.696H550.407V19.184H549.207V5.152ZM539.879 15.472V6.64H543.399V7.616H541.063V14.464C541.751 14.432 542.615 14.368 543.543 14.176L543.671 15.168C542.359 15.456 541.303 15.472 540.487 15.472H539.879ZM544.199 15.472V6.64H547.895V7.616H545.367V14.464C546.471 14.448 547.351 14.4 548.343 14.144L548.487 15.136C547.255 15.44 546.279 15.472 544.855 15.472H544.199ZM562.833 5.152H564.017V10.752H566.337V11.776H564.017V19.184H562.833V5.152ZM553.809 7.472V6.496H560.129V11.456H555.041V14.784C557.649 14.784 559.457 14.688 561.585 14.288L561.697 15.28C559.505 15.68 557.649 15.792 554.961 15.792H553.857V10.464H558.945V7.472H553.809ZM578.077 8.832H580.925V5.168H582.125V13.504H580.925V9.824H578.077V8.832ZM570.701 12.416C572.749 11.664 574.237 9.776 574.237 7.744V7.2H571.069V6.208H578.541V7.2H575.437V7.744C575.437 9.568 576.845 11.312 578.861 12.016L578.237 12.976C576.669 12.4 575.453 11.216 574.861 9.76C574.269 11.424 572.957 12.736 571.309 13.376L570.701 12.416ZM572.877 16.56C572.877 14.928 574.637 13.952 577.533 13.952C580.413 13.952 582.173 14.928 582.173 16.56C582.173 18.208 580.413 19.152 577.533 19.152C574.637 19.152 572.877 18.208 572.877 16.56ZM574.077 16.56C574.077 17.584 575.389 18.208 577.533 18.208C579.661 18.208 580.989 17.584 580.989 16.56C580.989 15.52 579.661 14.896 577.533 14.896C575.389 14.896 574.077 15.52 574.077 16.56ZM584.471 16.352H590.199V13.296H585.991V6.16H587.175V8.688H594.439V6.16H595.623V13.296H591.383V16.352H597.159V17.36H584.471V16.352ZM587.175 12.32H594.439V9.68H587.175V12.32ZM607.842 5.152H609.058V10.88H611.314V11.888H609.058V19.168H607.842V5.152ZM598.418 15.552C602.018 13.744 603.97 10.992 604.242 7.664H599.058V6.672H605.458C605.458 10.624 603.602 14.224 599.09 16.48L598.418 15.552ZM625.23 5.152H626.43V10.72H628.75V11.728H626.43V19.184H625.23V5.152ZM616.302 15.68V6.544H622.798V7.52H617.486V14.656C620.062 14.656 621.838 14.576 623.886 14.176L624.03 15.2C621.87 15.6 620.046 15.68 617.39 15.68H616.302ZM629.512 11.712H642.2V12.624H629.512V11.712ZM631.032 14.672V13.792H640.6V16.752H632.248V18.096H641.048V18.992H631.064V15.904H639.432V14.672H631.032ZM631.128 6.48V5.6H640.552V8.48H632.328V9.728H640.808V10.624H631.16V7.648H639.368V6.48H631.128ZM652.596 5.68H653.844V6.48C653.844 8.464 656.436 10.176 658.9 10.544L658.404 11.504C656.276 11.136 654.132 9.92 653.236 8.208C652.356 9.952 650.196 11.136 648.036 11.504L647.54 10.544C650.036 10.176 652.596 8.512 652.596 6.48V5.68ZM646.884 14.08V13.088H659.54V14.08H653.78V19.168H652.596V14.08H646.884ZM380.176 37.808H381.328V38.576C381.328 39.84 382 41.168 383.312 41.936C384.672 41.088 385.36 39.664 385.36 38.576V37.808H386.528V38.576C386.528 40.032 387.6 41.472 389.36 42.08L388.768 42.976C387.392 42.48 386.416 41.488 385.92 40.32C385.504 41.456 384.656 42.544 383.36 43.104C382.016 42.576 381.152 41.552 380.736 40.368C380.24 41.488 379.28 42.464 377.952 42.976L377.344 42.08C379.104 41.44 380.176 39.92 380.176 38.576V37.808ZM376.976 33.264C376.976 31.328 378.496 30 380.608 30C382.72 30 384.24 31.328 384.24 33.264C384.24 35.184 382.72 36.496 380.608 36.496C378.496 36.496 376.976 35.184 376.976 33.264ZM378.144 33.264C378.144 34.592 379.184 35.504 380.608 35.504C382.048 35.504 383.072 34.592 383.072 33.264C383.072 31.936 382.048 31.008 380.608 31.008C379.184 31.008 378.144 31.936 378.144 33.264ZM386.896 37.184V29.184H388.112V37.184H386.896ZM394.186 30.256C396.09 30.256 397.466 31.904 397.642 34.544H400.778V29.152H401.962V43.184H400.778V35.504H397.642C397.53 38.256 396.122 40 394.186 40C392.154 40 390.714 38.096 390.714 35.12C390.714 32.144 392.154 30.256 394.186 30.256ZM391.85 35.12C391.85 37.408 392.81 38.928 394.186 38.928C395.578 38.928 396.522 37.408 396.522 35.12C396.522 32.832 395.578 31.328 394.186 31.328C392.81 31.328 391.85 32.832 391.85 35.12ZM404.309 40.352H407.461V36.528C406.277 35.92 405.557 34.912 405.557 33.648C405.557 31.472 407.685 30.064 410.629 30.064C413.605 30.064 415.701 31.472 415.701 33.648C415.701 34.896 414.997 35.888 413.845 36.512V40.352H416.997V41.344H404.309V40.352ZM406.725 33.648C406.725 35.232 408.357 36.272 410.629 36.272C412.901 36.272 414.549 35.232 414.549 33.648C414.549 32.064 412.901 31.024 410.629 31.024C408.357 31.024 406.725 32.064 406.725 33.648ZM408.645 40.352H412.645V36.976C412.037 37.136 411.365 37.216 410.629 37.216C409.909 37.216 409.253 37.136 408.645 36.976V40.352ZM419.311 40.608C419.823 40.608 420.095 40.96 420.095 41.392C420.095 41.856 419.823 42.208 419.311 42.208C418.783 42.208 418.495 41.856 418.495 41.392C418.495 40.96 418.783 40.608 419.311 40.608Z" fill="#616161"/>
</svg>
