<svg width="327" height="115" viewBox="0 0 327 115" fill="none" xmlns="http://www.w3.org/2000/svg">
<g filter="url(#filter0_dd_957_52690)">
<rect width="290.077" height="78.0773" transform="translate(18.5647 16.1162)" fill="white"/>
<path d="M29.6033 32.9531C29.6033 29.751 32.199 27.1553 35.4011 27.1553H291.805C295.007 27.1553 297.603 29.751 297.603 32.9531V77.3575C297.603 80.5595 295.008 83.1553 291.805 83.1553H35.4011C32.1991 83.1553 29.6033 80.5595 29.6033 77.3575V32.9531Z" fill="#F5F5F5"/>
<path d="M47.3993 61.0393C49.3793 61.0393 50.4953 59.5633 50.4953 57.6373C50.4953 55.7473 49.3793 54.2713 47.3993 54.2713C45.7433 54.2713 44.3213 55.7473 44.3213 57.6373C44.3213 59.5633 45.7433 61.0393 47.3993 61.0393ZM43.0073 66.2953V52.9933H44.3033V54.9373C44.8973 53.6413 46.3013 53.0113 47.4173 53.0113C50.2253 53.0113 51.7913 55.1533 51.7913 57.6373C51.7913 60.1573 50.2253 62.2993 47.4173 62.2993C46.2653 62.2993 44.8973 61.5253 44.3033 60.3553V66.2953H43.0073ZM53.3982 48.7993H54.6942V62.1553H53.3982V48.7993ZM60.6762 60.9853C62.2962 60.9853 63.7542 59.6713 63.7722 57.6553C63.7542 55.6573 62.2962 54.3253 60.6762 54.3253C58.6782 54.3253 57.5982 55.7653 57.5982 57.6553C57.5982 59.5453 58.6782 60.9853 60.6762 60.9853ZM56.3022 57.6553C56.3022 55.1533 57.8682 53.0473 60.6582 53.0473C61.7202 53.0473 62.9082 53.6053 63.7362 54.9373V52.9933H65.0322V62.1553H63.7362V60.3553C62.8722 61.7593 61.7382 62.2813 60.6582 62.2813C57.8682 62.2813 56.3022 60.1393 56.3022 57.6553ZM71.1923 60.9493C72.1283 60.9493 72.9923 60.5893 73.6043 59.9773L74.5763 60.8413C73.7123 61.7053 72.5603 62.2453 71.2643 62.2453C68.3123 62.2453 66.6023 60.0673 66.6023 57.4213C66.6023 54.7933 68.3123 52.6153 71.2643 52.6153C72.5603 52.6153 73.7123 53.1553 74.5763 54.0193L73.6043 54.8833C72.9923 54.2713 72.1283 53.9113 71.1923 53.9113C69.0683 53.9113 67.8983 55.4773 67.8983 57.4213C67.8983 59.3833 69.0683 60.9493 71.1923 60.9493ZM82.6235 56.9353C82.4795 55.6393 81.8495 54.2533 79.9055 54.2533C78.1955 54.2533 77.0975 55.1713 76.8635 56.9533L82.6235 56.9353ZM75.5315 57.5833C75.5315 55.0633 77.0435 52.9573 79.8515 52.9573C82.7675 52.9573 83.5055 55.2253 83.5955 55.4413C84.1355 56.9173 83.9195 58.2133 83.9195 58.2133H76.8635C77.0975 59.9053 78.1955 60.9133 79.8695 60.9133C81.9395 60.9133 82.4435 59.7793 82.5695 59.5993L83.6855 60.1933C83.6855 60.1933 82.9295 62.2093 79.8515 62.2093C77.0435 62.2093 75.5315 60.0853 75.5315 57.5833ZM92.1334 57.0073C92.1334 55.2973 91.1614 54.3073 89.7934 54.3073C88.3714 54.3073 87.1294 55.6393 87.1294 57.3673V62.1553H85.8334V48.7993H87.1294V54.7213C87.5794 53.7853 88.6054 53.0473 89.8474 53.0473C91.7014 53.0473 93.4294 54.6313 93.4294 56.9353V62.1553H92.1334V57.0073ZM99.8199 60.9673C101.836 60.9673 102.898 59.4913 102.898 57.5833C102.898 55.6753 101.836 54.1993 99.8199 54.1993C97.7859 54.1993 96.7599 55.6753 96.7599 57.5833C96.7599 59.4913 97.7859 60.9673 99.8199 60.9673ZM95.4639 57.5833C95.4639 55.0813 97.0119 52.9393 99.8199 52.9393C102.646 52.9393 104.194 55.0813 104.194 57.5833C104.194 60.0853 102.646 62.2273 99.8199 62.2273C97.0119 62.2273 95.4639 60.0853 95.4639 57.5833ZM105.795 48.7993H107.091V62.1553H105.795V48.7993ZM113.073 62.2993C110.283 62.2993 108.699 60.1573 108.699 57.6373C108.699 55.1353 110.283 52.9753 113.073 52.9753C114.243 52.9753 115.467 53.5693 116.223 54.9373V48.7993H117.519V62.1553H116.223V60.3373C115.449 61.7053 114.243 62.2993 113.073 62.2993ZM109.995 57.6373C109.995 59.5633 111.093 61.0033 113.127 61.0033C114.783 61.0033 116.223 59.5633 116.223 57.6373C116.223 55.7293 114.783 54.2713 113.127 54.2713C111.093 54.2713 109.995 55.7293 109.995 57.6373ZM126.381 56.9353C126.237 55.6393 125.607 54.2533 123.663 54.2533C121.953 54.2533 120.855 55.1713 120.621 56.9533L126.381 56.9353ZM119.289 57.5833C119.289 55.0633 120.801 52.9573 123.609 52.9573C126.525 52.9573 127.263 55.2253 127.353 55.4413C127.893 56.9173 127.677 58.2133 127.677 58.2133H120.621C120.855 59.9053 121.953 60.9133 123.627 60.9133C125.697 60.9133 126.201 59.7793 126.327 59.5993L127.443 60.1933C127.443 60.1933 126.687 62.2093 123.609 62.2093C120.801 62.2093 119.289 60.0853 119.289 57.5833ZM130.689 54.9193C131.211 53.7133 132.705 52.9033 133.947 52.9033V54.2353C132.273 54.2353 130.689 55.9813 130.689 57.4393V62.1553H129.393V52.9933H130.689V54.9193Z" fill="#999999"/>
</g>
<defs>
<filter id="filter0_dd_957_52690" x="0.902849" y="0.662094" width="325.401" height="113.401" filterUnits="userSpaceOnUse" color-interpolation-filters="sRGB">
<feFlood flood-opacity="0" result="BackgroundImageFix"/>
<feColorMatrix in="SourceAlpha" type="matrix" values="0 0 0 0 0 0 0 0 0 0 0 0 0 0 0 0 0 0 127 0" result="hardAlpha"/>
<feOffset/>
<feGaussianBlur stdDeviation="0.551933"/>
<feComposite in2="hardAlpha" operator="out"/>
<feColorMatrix type="matrix" values="0 0 0 0 0 0 0 0 0 0 0 0 0 0 0 0 0 0 0.2 0"/>
<feBlend mode="normal" in2="BackgroundImageFix" result="effect1_dropShadow_957_52690"/>
<feColorMatrix in="SourceAlpha" type="matrix" values="0 0 0 0 0 0 0 0 0 0 0 0 0 0 0 0 0 0 127 0" result="hardAlpha"/>
<feOffset dy="2.20773"/>
<feGaussianBlur stdDeviation="8.83092"/>
<feComposite in2="hardAlpha" operator="out"/>
<feColorMatrix type="matrix" values="0 0 0 0 0 0 0 0 0 0 0 0 0 0 0 0 0 0 0.08 0"/>
<feBlend mode="normal" in2="effect1_dropShadow_957_52690" result="effect2_dropShadow_957_52690"/>
<feBlend mode="normal" in="SourceGraphic" in2="effect2_dropShadow_957_52690" result="shape"/>
</filter>
</defs>
</svg>
