<svg width="264" height="372" viewBox="0 0 264 372" fill="none" xmlns="http://www.w3.org/2000/svg">
<rect x="31.5985" y="2.37977" width="223.818" height="356.282" rx="25.8837" fill="#D9D9D9" stroke="black" stroke-width="3.04515"/>
<g clip-path="url(#clip0_1099_78895)">
<mask id="mask0_1099_78895" style="mask-type:alpha" maskUnits="userSpaceOnUse" x="33" y="3" width="221" height="443">
<rect x="33.1211" y="3.90234" width="220.773" height="441.546" rx="24.3612" fill="black" fill-opacity="0.6"/>
</mask>
<g mask="url(#mask0_1099_78895)">
<path d="M33.1211 21.5642C33.1211 11.8098 41.0286 3.90234 50.7829 3.90234H236.232C245.987 3.90234 253.894 11.8098 253.894 21.5642V339.478C253.894 349.232 245.987 357.139 236.232 357.139H50.783C41.0286 357.139 33.1211 349.232 33.1211 339.477V21.5642Z" fill="black" fill-opacity="0.6"/>
<path d="M33.1211 3.90234H253.894V28.1874H33.1211V3.90234Z" fill="black" fill-opacity="0.6"/>
<path d="M116.767 17.9043C117.12 18.6881 117.837 19.1296 118.82 19.1076C120.432 19.0524 120.906 17.0213 119.339 16.5907C118.809 16.3921 117.926 16.1492 117.153 15.6193C116.038 14.8577 116.005 13.7097 116.369 12.937C116.822 11.9876 118.025 11.7006 118.732 11.7558C119.405 11.8 120.31 12.0759 120.873 12.8818L120.067 13.4227C119.725 12.937 119.195 12.7714 118.654 12.7272C118.169 12.7051 117.506 12.8486 117.252 13.3454C117.043 13.82 117.032 14.3499 117.694 14.8135C118.334 15.2551 119.107 15.4758 119.659 15.6745C122.253 16.4804 121.513 20.0017 118.853 20.079C117.55 20.1231 116.358 19.4277 115.873 18.2907L116.767 17.9043ZM125.647 19.814C125.438 19.8582 125.051 19.9244 124.687 19.9134C123.848 19.8913 123.098 19.1848 123.098 18.2907V15.1557H122.148V14.2064H123.098V12.3629H124.069V14.2064H125.471V15.1557H124.069V18.2907C124.069 18.7102 124.323 18.942 124.731 18.953C124.985 18.953 125.25 18.9089 125.438 18.8647L125.647 19.814ZM129.04 19.0524C129.978 19.0524 130.839 18.3238 130.85 17.1537C130.839 15.9836 129.978 15.244 129.04 15.244C127.892 15.244 127.263 16.0609 127.263 17.1537C127.263 18.2465 127.892 19.0524 129.04 19.0524ZM126.291 17.1537C126.291 15.5973 127.263 14.2837 128.996 14.2837C129.636 14.2837 130.343 14.6148 130.828 15.3655V14.2506H131.8V19.9355H130.828V18.9309C130.32 19.7147 129.647 20.0238 128.996 20.0238C127.263 20.0238 126.291 18.6881 126.291 17.1537ZM136.384 19.814C136.175 19.8582 135.788 19.9244 135.424 19.9134C134.585 19.8913 133.834 19.1848 133.834 18.2907V15.1557H132.885V14.2064H133.834V12.3629H134.806V14.2064H136.208V15.1557H134.806V18.2907C134.806 18.7102 135.06 18.942 135.468 18.953C135.722 18.953 135.987 18.9089 136.175 18.8647L136.384 19.814ZM138.468 17.507C138.468 18.3459 138.987 18.9972 139.903 18.9972C140.874 18.9972 141.482 18.1914 141.482 17.4297V14.2174H142.453V19.9355H141.482V19.0303C141.073 19.6264 140.598 19.9355 139.815 19.9355C138.545 19.9355 137.497 18.9972 137.497 17.5842V14.2506H138.468V17.507ZM144.574 18.3238C144.772 18.7985 145.236 19.0524 145.854 19.0303C146.759 18.9972 147.068 17.9706 146.185 17.6946C145.832 17.5842 145.192 17.4186 144.64 17.0544C143.779 16.4914 143.768 15.6304 144.044 15.0674C144.386 14.383 145.28 14.1622 145.821 14.2064C146.351 14.2616 147.013 14.4492 147.433 15.0122L146.649 15.5752C146.439 15.2882 146.108 15.1888 145.744 15.1557C145.423 15.1226 145.037 15.233 144.894 15.4979C144.783 15.7518 144.794 16.0057 145.17 16.2485C145.589 16.5245 146.119 16.657 146.505 16.7894C148.426 17.4076 147.83 19.9465 145.909 19.9907C144.927 20.0348 144.044 19.527 143.69 18.7212L144.574 18.3238ZM151.664 19.9465V11.8883H154.777C155.98 11.8883 156.984 12.8707 156.984 14.0739C156.984 14.7142 156.697 15.233 156.256 15.6304C156.322 15.6635 156.377 15.7077 156.444 15.7408C157.04 16.1382 157.492 16.8557 157.492 17.6725C157.492 18.9089 156.51 19.9465 155.284 19.9465H151.664ZM152.635 18.9972H155.229C155.947 18.9972 156.543 18.4563 156.543 17.6946C156.543 16.8557 155.958 16.2706 155.229 16.2706H152.635V18.9972ZM152.635 15.3213H154.832L154.799 15.3103C155.494 15.2882 156.035 14.7804 156.035 14.096C156.035 13.3675 155.472 12.8376 154.733 12.8376H152.635V15.3213ZM161.25 19.0524C162.189 19.0524 163.05 18.3238 163.061 17.1537C163.05 15.9836 162.189 15.244 161.25 15.244C160.102 15.244 159.473 16.0609 159.473 17.1537C159.473 18.2465 160.102 19.0524 161.25 19.0524ZM158.502 17.1537C158.502 15.5973 159.473 14.2837 161.206 14.2837C161.846 14.2837 162.553 14.6148 163.039 15.3655V14.2506H164.01V19.9355H163.039V18.9309C162.531 19.7147 161.858 20.0238 161.206 20.0238C159.473 20.0238 158.502 18.6881 158.502 17.1537ZM166.214 15.3875C166.556 14.6479 167.462 14.2064 168.135 14.2064V15.1888C167.097 15.1888 166.214 16.2044 166.214 17.0544V19.9355H165.243V14.2506H166.214V15.3875Z" fill="white"/>
<path d="M33.1211 28.1865H253.894V66.8218H33.1211V28.1865Z" fill="#007D00" fill-opacity="0.3"/>
<path d="M116.767 17.9043C117.12 18.6881 117.837 19.1296 118.82 19.1076C120.432 19.0524 120.906 17.0213 119.339 16.5907C118.809 16.3921 117.926 16.1492 117.153 15.6193C116.038 14.8577 116.005 13.7097 116.369 12.937C116.822 11.9876 118.025 11.7006 118.732 11.7558C119.405 11.8 120.31 12.0759 120.873 12.8818L120.067 13.4227C119.725 12.937 119.195 12.7714 118.654 12.7272C118.169 12.7051 117.506 12.8486 117.252 13.3454C117.043 13.82 117.032 14.3499 117.694 14.8135C118.334 15.2551 119.107 15.4758 119.659 15.6745C122.253 16.4804 121.513 20.0017 118.853 20.079C117.55 20.1231 116.358 19.4277 115.873 18.2907L116.767 17.9043ZM125.647 19.814C125.438 19.8582 125.051 19.9244 124.687 19.9134C123.848 19.8913 123.098 19.1848 123.098 18.2907V15.1557H122.148V14.2064H123.098V12.3629H124.069V14.2064H125.471V15.1557H124.069V18.2907C124.069 18.7102 124.323 18.942 124.731 18.953C124.985 18.953 125.25 18.9089 125.438 18.8647L125.647 19.814ZM129.04 19.0524C129.978 19.0524 130.839 18.3238 130.85 17.1537C130.839 15.9836 129.978 15.244 129.04 15.244C127.892 15.244 127.263 16.0609 127.263 17.1537C127.263 18.2465 127.892 19.0524 129.04 19.0524ZM126.291 17.1537C126.291 15.5973 127.263 14.2837 128.996 14.2837C129.636 14.2837 130.343 14.6148 130.828 15.3655V14.2506H131.8V19.9355H130.828V18.9309C130.32 19.7147 129.647 20.0238 128.996 20.0238C127.263 20.0238 126.291 18.6881 126.291 17.1537ZM136.384 19.814C136.175 19.8582 135.788 19.9244 135.424 19.9134C134.585 19.8913 133.834 19.1848 133.834 18.2907V15.1557H132.885V14.2064H133.834V12.3629H134.806V14.2064H136.208V15.1557H134.806V18.2907C134.806 18.7102 135.06 18.942 135.468 18.953C135.722 18.953 135.987 18.9089 136.175 18.8647L136.384 19.814ZM138.468 17.507C138.468 18.3459 138.987 18.9972 139.903 18.9972C140.874 18.9972 141.482 18.1914 141.482 17.4297V14.2174H142.453V19.9355H141.482V19.0303C141.073 19.6264 140.598 19.9355 139.815 19.9355C138.545 19.9355 137.497 18.9972 137.497 17.5842V14.2506H138.468V17.507ZM144.574 18.3238C144.772 18.7985 145.236 19.0524 145.854 19.0303C146.759 18.9972 147.068 17.9706 146.185 17.6946C145.832 17.5842 145.192 17.4186 144.64 17.0544C143.779 16.4914 143.768 15.6304 144.044 15.0674C144.386 14.383 145.28 14.1622 145.821 14.2064C146.351 14.2616 147.013 14.4492 147.433 15.0122L146.649 15.5752C146.439 15.2882 146.108 15.1888 145.744 15.1557C145.423 15.1226 145.037 15.233 144.894 15.4979C144.783 15.7518 144.794 16.0057 145.17 16.2485C145.589 16.5245 146.119 16.657 146.505 16.7894C148.426 17.4076 147.83 19.9465 145.909 19.9907C144.927 20.0348 144.044 19.527 143.69 18.7212L144.574 18.3238ZM151.664 19.9465V11.8883H154.777C155.98 11.8883 156.984 12.8707 156.984 14.0739C156.984 14.7142 156.697 15.233 156.256 15.6304C156.322 15.6635 156.377 15.7077 156.444 15.7408C157.04 16.1382 157.492 16.8557 157.492 17.6725C157.492 18.9089 156.51 19.9465 155.284 19.9465H151.664ZM152.635 18.9972H155.229C155.947 18.9972 156.543 18.4563 156.543 17.6946C156.543 16.8557 155.958 16.2706 155.229 16.2706H152.635V18.9972ZM152.635 15.3213H154.832L154.799 15.3103C155.494 15.2882 156.035 14.7804 156.035 14.096C156.035 13.3675 155.472 12.8376 154.733 12.8376H152.635V15.3213ZM161.25 19.0524C162.189 19.0524 163.05 18.3238 163.061 17.1537C163.05 15.9836 162.189 15.244 161.25 15.244C160.102 15.244 159.473 16.0609 159.473 17.1537C159.473 18.2465 160.102 19.0524 161.25 19.0524ZM158.502 17.1537C158.502 15.5973 159.473 14.2837 161.206 14.2837C161.846 14.2837 162.553 14.6148 163.039 15.3655V14.2506H164.01V19.9355H163.039V18.9309C162.531 19.7147 161.858 20.0238 161.206 20.0238C159.473 20.0238 158.502 18.6881 158.502 17.1537ZM166.214 15.3875C166.556 14.6479 167.462 14.2064 168.135 14.2064V15.1888C167.097 15.1888 166.214 16.2044 166.214 17.0544V19.9355H165.243V14.2506H166.214V15.3875Z" fill="white"/>
<path d="M136.59 48.2502L135.619 48.2171L135.773 43.9231H140.012V44.8945H136.712L136.634 47.0028C137.01 46.8041 137.451 46.6938 137.904 46.6938C139.361 46.6938 140.608 47.8749 140.608 49.343C140.608 50.8664 139.361 52.0365 137.904 52.0365C136.668 52.0365 135.553 51.1754 135.277 49.9943L136.226 49.7735C136.403 50.5573 137.043 51.0651 137.904 51.0651C138.908 51.0651 139.637 50.3807 139.637 49.343C139.637 48.3606 138.919 47.6652 137.904 47.6652C137.352 47.6652 136.932 47.8639 136.59 48.2502ZM144.362 51.043C145.367 51.043 146.106 50.3586 146.106 49.3651C146.106 48.3937 145.367 47.6872 144.362 47.6872C143.369 47.6872 142.651 48.3937 142.651 49.3651C142.651 50.3586 143.358 51.043 144.362 51.043ZM141.68 49.3651C141.68 48.8463 141.834 48.3606 142.099 47.9522L144.395 43.9231H145.51L143.887 46.76C144.053 46.7269 144.219 46.7158 144.384 46.7158C145.83 46.7158 147.078 47.897 147.078 49.3651C147.078 50.8553 145.841 52.0144 144.384 52.0144C142.938 52.0144 141.68 50.8553 141.68 49.3651Z" fill="white"/>
</g>
</g>
<line x1="30.9141" y1="27.85" x2="253.895" y2="27.85" stroke="#007D00" stroke-width="0.673089"/>
<line x1="30.9141" y1="66.4857" x2="253.895" y2="66.4857" stroke="#007D00" stroke-width="0.673089"/>
<g opacity="0.6" filter="url(#filter0_dd_1099_78895)">
<g clip-path="url(#clip1_1099_78895)">
<path d="M33.1172 204.528C33.1172 192.336 43.0015 182.451 55.1945 182.451H231.813C244.006 182.451 253.89 192.336 253.89 204.528V357.23H33.1172V204.528Z" fill="white"/>
<path d="M51.6994 208.79H53.4165V206.116H54.9374V212.641H53.4165V210.016H51.6994V208.79ZM45.714 211.439C47.4679 210.838 48.3019 209.403 48.3265 208.005H46.1187V206.79H52.0305V208.005H49.8596C49.8841 209.28 50.6814 210.58 52.374 211.157L51.6135 212.347C50.4115 211.942 49.5898 211.145 49.1237 210.151C48.6453 211.28 47.7623 212.187 46.4744 212.629L45.714 211.439ZM47.4679 214.996C47.4679 213.683 48.9029 212.886 51.221 212.886C53.5392 212.886 54.9742 213.683 54.9742 214.996C54.9742 216.345 53.5392 217.118 51.221 217.118C48.9029 217.118 47.4679 216.345 47.4679 214.996ZM48.9888 214.996C48.9888 215.634 49.7615 215.965 51.221 215.965C52.6683 215.965 53.4656 215.634 53.4656 214.996C53.4656 214.37 52.6683 214.039 51.221 214.039C49.7615 214.039 48.9888 214.37 48.9888 214.996ZM62.2538 207.281H64.0446V206.116H65.5777V211.831H64.0446V210.544H62.2538V209.342H64.0446V208.495H62.2538V207.281ZM56.7958 207.747V206.606H61.6161V209.624H58.3167V210.458C59.7027 210.445 60.7698 210.409 62.0331 210.249L62.1312 211.39C60.6594 211.611 59.4206 211.623 57.6421 211.623H56.8204V208.532H60.1074V207.747H56.7958ZM58.2431 213.414V212.273H65.5777V215.168H59.764V215.891H65.8966V217.044H58.2677V214.088H64.0691V213.414H58.2431ZM75.3591 208.471H77.4074V206.116H78.9282V214.235H77.4074V209.697H75.3591V208.471ZM69.6803 211.684C71.4833 211.071 72.2928 209.562 72.2928 207.98V206.778H73.8259V207.992C73.8259 209.427 74.5986 210.838 76.3035 211.439L75.494 212.604C74.3411 212.175 73.5438 211.365 73.09 210.347C72.6117 211.5 71.7531 212.408 70.4898 212.874L69.6803 211.684ZM71.6673 216.897V213.401H73.2004V215.683H79.1736V216.897H71.6673ZM80.7622 206.852H85.0673V208.054H82.2217V209.01H84.9691V210.151H82.2217V211.157C83.436 211.145 84.3191 211.083 85.3371 210.912L85.4843 212.114C84.2332 212.347 83.1662 212.371 81.5226 212.371H80.7622V206.852ZM82.1972 214.505V213.291H89.728V217.105H88.2194V214.505H82.1972ZM85.9381 212.739V206.312H87.3486V208.814H88.293V206.104H89.728V212.813H88.293V210.041H87.3486V212.739H85.9381Z" fill="#333333"/>
<path d="M236.693 205.792C236.868 205.669 237.111 205.682 237.272 205.835C237.433 205.988 237.46 206.229 237.347 206.411L237.29 206.485L232.446 211.597L237.29 216.709L237.347 216.782C237.46 216.964 237.433 217.205 237.272 217.358C237.111 217.511 236.868 217.525 236.693 217.402L236.622 217.341L231.813 212.265L227.005 217.341L226.934 217.402C226.759 217.525 226.515 217.511 226.354 217.358C226.17 217.184 226.162 216.893 226.337 216.709L231.179 211.597L226.337 206.485L226.28 206.411C226.167 206.23 226.193 205.988 226.354 205.835C226.516 205.682 226.759 205.669 226.934 205.792L227.005 205.852L231.813 210.928L236.622 205.852L236.693 205.792Z" fill="#555555"/>
<path d="M45.3828 238.871C45.3828 234.807 48.6776 231.512 52.7419 231.512H234.266C238.331 231.512 241.626 234.807 241.626 238.871V258.324C241.626 262.388 238.331 265.683 234.266 265.683H52.7419C48.6776 265.683 45.3828 262.388 45.3828 258.324V238.871Z" fill="white"/>
<path d="M57.8064 243.245H58.6343V252.903H57.8064V243.245ZM50.852 250.42C53.4572 249.172 54.7708 247.285 54.9474 244.967H51.2825V244.282H55.7863C55.7863 247.064 54.5058 249.515 51.2936 251.082L50.852 250.42ZM61.4568 243.631H62.2736V244.867H67.0423V243.631H67.8702V247.483H65.0554V248.543H69.0072V249.217H60.2867V248.543H64.2385V247.483H61.4568V243.631ZM61.4236 252.694V250.022H62.2515V252.009H68.0468V252.694H61.4236ZM62.2736 246.821H67.0423V245.53H62.2736V246.821ZM73.7835 243.488H74.6335V243.984C74.6335 245.265 76.3997 246.413 78.0334 246.667L77.7133 247.318C76.2783 247.064 74.8212 246.247 74.214 245.121C73.6179 246.269 72.1608 247.075 70.7037 247.329L70.3726 246.678C72.0394 246.424 73.7835 245.298 73.7835 243.984V243.488ZM69.8317 248.852V248.179H78.5853V248.852H74.6887V250.85H73.8497V248.852H69.8317ZM70.9576 252.683V249.901H71.7855V251.998H77.6139V252.683H70.9576Z" fill="#333333"/>
<path d="M45.3828 271.691C45.3828 269.728 46.9747 268.136 48.9384 268.136H238.07C240.034 268.136 241.626 269.728 241.626 271.691V298.751C241.626 300.715 240.034 302.307 238.07 302.307H48.9384C46.9747 302.307 45.3828 300.715 45.3828 298.751V271.691Z" fill="#FFF5E6"/>
<path d="M50.7306 285.708H59.4622V286.404H55.5103V289.539H54.6824V286.404H50.7306V285.708ZM51.2936 284.295C52.9825 284.052 54.6824 283.004 54.6824 281.767V281.745H51.5806V281.072H54.6824V279.869H55.5103V281.072H58.6122V281.745H55.5103V281.767C55.5103 282.993 57.1993 284.052 58.8882 284.295L58.5901 284.957C57.111 284.737 55.709 283.975 55.1019 282.915C54.4838 283.975 53.0708 284.726 51.5916 284.957L51.2936 284.295ZM60.5516 281.182H62.7262V279.935H63.5431V281.182H65.7066V281.845H63.5431V282.165C63.5431 283.467 64.5586 284.604 65.9716 285.057L65.5631 285.708C64.4593 285.344 63.5762 284.571 63.1457 283.567C62.7372 284.648 61.8652 285.476 60.7282 285.885L60.3087 285.233C61.7327 284.748 62.7262 283.545 62.7262 282.165V281.845H60.5516V281.182ZM62.0639 289.307V286.437H62.8918V288.622H68.4884V289.307H62.0639ZM65.3644 283.545V282.849H67.3845V279.88H68.2124V287.088H67.3845V283.545H65.3644ZM73.7835 280.112H74.6335V280.608C74.6335 281.889 76.3997 283.037 78.0334 283.291L77.7133 283.942C76.2783 283.688 74.8212 282.871 74.214 281.745C73.6179 282.893 72.1608 283.699 70.7037 283.953L70.3726 283.302C72.0394 283.048 73.7835 281.922 73.7835 280.608V280.112ZM69.8317 285.476V284.803H78.5853V285.476H74.6887V287.474H73.8497V285.476H69.8317ZM70.9576 289.307V286.525H71.7855V288.622H77.6139V289.307H70.9576Z" fill="#333333"/>
<path fill-rule="evenodd" clip-rule="evenodd" d="M234.7 281.108C234.939 281.348 234.939 281.736 234.7 281.976L227.954 288.721C227.715 288.961 227.326 288.961 227.087 288.721L224.02 285.655C223.781 285.416 223.781 285.027 224.02 284.788C224.26 284.548 224.648 284.548 224.888 284.788L227.52 287.421L233.833 281.108C234.072 280.869 234.46 280.869 234.7 281.108Z" fill="#EE6002"/>
<path d="M45.3828 312.12C45.3828 308.056 48.6776 304.761 52.7419 304.761H234.266C238.331 304.761 241.626 308.056 241.626 312.12V331.573C241.626 335.637 238.331 338.932 234.266 338.932H52.7419C48.6776 338.932 45.3828 335.637 45.3828 331.573V312.12Z" fill="white"/>
<path d="M50.7306 324.199H54.6935V321.847H55.5214V324.199H59.4843V324.894H50.7306V324.199ZM51.1722 321.516C52.7728 321.24 54.6714 319.883 54.6714 318.326V318.072H51.4592V317.388H58.7447V318.072H55.5324V318.326C55.5324 319.883 57.4531 321.218 59.0758 321.483L58.7336 322.134C57.2876 321.847 55.7311 320.898 55.113 319.573C54.4838 320.909 52.9383 321.87 51.5144 322.168L51.1722 321.516ZM67.2962 316.494H68.1241V326.153H67.2962V316.494ZM60.3308 323.58C61.1477 323.58 62.086 323.58 63.0574 323.547V322.477C61.9093 322.355 61.1698 321.693 61.1698 320.721C61.1698 319.64 62.086 318.933 63.4658 318.933C64.8456 318.933 65.7839 319.64 65.7839 320.721C65.7839 321.682 65.0333 322.344 63.8963 322.477V323.514C64.8346 323.47 65.7839 323.404 66.667 323.282L66.7222 323.901C64.5807 324.265 62.2295 324.287 60.4522 324.287L60.3308 323.58ZM60.5406 318.359V317.686H63.0574V316.494H63.8963V317.686H66.4131V318.359H60.5406ZM61.9425 320.721C61.9425 321.406 62.5717 321.847 63.4658 321.847C64.382 321.847 65.0002 321.406 65.0002 320.721C65.0002 320.026 64.382 319.573 63.4658 319.573C62.5717 319.573 61.9425 320.026 61.9425 320.721ZM73.7835 316.737H74.6335V317.233C74.6335 318.514 76.3997 319.662 78.0334 319.916L77.7133 320.567C76.2783 320.313 74.8212 319.496 74.214 318.37C73.6179 319.518 72.1608 320.324 70.7037 320.578L70.3726 319.927C72.0394 319.673 73.7835 318.547 73.7835 317.233V316.737ZM69.8317 322.101V321.428H78.5853V322.101H74.6887V324.099H73.8497V322.101H69.8317ZM70.9576 325.932V323.15H71.7855V325.247H77.6139V325.932H70.9576Z" fill="#333333"/>
</g>
</g>
<rect x="32.8106" y="182.176" width="221.386" height="175.392" stroke="#0D69D4" stroke-width="0.613259"/>
<rect x="45.3818" y="202.105" width="196.243" height="135.53" fill="#0D69D4" fill-opacity="0.2"/>
<rect x="33.1172" y="182.451" width="220.773" height="19.6243" fill="#007D00" fill-opacity="0.3"/>
<rect x="27.5977" y="152.095" width="21.5391" height="16.0899" rx="4.35943" fill="#007D00"/>
<path d="M31.7697 164.095V163.328L34.6476 160.178C34.9854 159.809 35.2635 159.488 35.4821 159.216C35.7006 158.941 35.8624 158.682 35.9674 158.441C36.0752 158.197 36.1292 157.942 36.1292 157.675C36.1292 157.368 36.0554 157.103 35.9078 156.879C35.763 156.654 35.5644 156.481 35.3118 156.359C35.0592 156.237 34.7753 156.176 34.4603 156.176C34.1254 156.176 33.8331 156.246 33.5833 156.385C33.3364 156.521 33.1448 156.713 33.0086 156.96C32.8752 157.206 32.8085 157.496 32.8085 157.828H31.8038C31.8038 157.317 31.9216 156.869 32.1571 156.483C32.3927 156.097 32.7134 155.796 33.1193 155.58C33.528 155.365 33.9863 155.257 34.4944 155.257C35.0052 155.257 35.4579 155.365 35.8524 155.58C36.2469 155.796 36.5563 156.087 36.7805 156.453C37.0047 156.819 37.1168 157.226 37.1168 157.675C37.1168 157.996 37.0587 158.309 36.9423 158.616C36.8288 158.919 36.6301 159.258 36.3463 159.633C36.0653 160.005 35.675 160.459 35.1755 160.995L33.2172 163.09V163.158H37.2701V164.095H31.7697ZM41.8722 164.214C41.2308 164.214 40.6844 164.039 40.2331 163.69C39.7819 163.338 39.437 162.829 39.1986 162.162C38.9602 161.492 38.841 160.683 38.841 159.735C38.841 158.793 38.9602 157.988 39.1986 157.321C39.4399 156.652 39.7861 156.141 40.2374 155.789C40.6915 155.434 41.2364 155.257 41.8722 155.257C42.5079 155.257 43.0514 155.434 43.5027 155.789C43.9568 156.141 44.3031 156.652 44.5415 157.321C44.7827 157.988 44.9034 158.793 44.9034 159.735C44.9034 160.683 44.7842 161.492 44.5457 162.162C44.3073 162.829 43.9625 163.338 43.5112 163.69C43.06 164.039 42.5136 164.214 41.8722 164.214ZM41.8722 163.277C42.5079 163.277 43.0018 162.971 43.3537 162.358C43.7056 161.745 43.8816 160.871 43.8816 159.735C43.8816 158.98 43.8007 158.337 43.639 157.807C43.48 157.276 43.2501 156.872 42.9493 156.593C42.6513 156.315 42.2922 156.176 41.8722 156.176C41.2421 156.176 40.7497 156.487 40.3949 157.109C40.0402 157.727 39.8628 158.603 39.8628 159.735C39.8628 160.49 39.9422 161.132 40.1012 161.66C40.2601 162.187 40.4886 162.589 40.7866 162.864C41.0874 163.14 41.4493 163.277 41.8722 163.277Z" fill="white"/>
<rect x="238.712" y="152.095" width="21.5391" height="16.0899" rx="4.35943" fill="#007D00"/>
<path d="M242.884 164.095V163.328L245.762 160.178C246.1 159.809 246.378 159.488 246.596 159.216C246.815 158.941 246.977 158.682 247.082 158.441C247.189 158.197 247.243 157.942 247.243 157.675C247.243 157.368 247.17 157.103 247.022 156.879C246.877 156.654 246.679 156.481 246.426 156.359C246.173 156.237 245.89 156.176 245.575 156.176C245.24 156.176 244.947 156.246 244.698 156.385C244.451 156.521 244.259 156.713 244.123 156.96C243.989 157.206 243.923 157.496 243.923 157.828H242.918C242.918 157.317 243.036 156.869 243.271 156.483C243.507 156.097 243.828 155.796 244.234 155.58C244.642 155.365 245.101 155.257 245.609 155.257C246.119 155.257 246.572 155.365 246.967 155.58C247.361 155.796 247.671 156.087 247.895 156.453C248.119 156.819 248.231 157.226 248.231 157.675C248.231 157.996 248.173 158.309 248.057 158.616C247.943 158.919 247.744 159.258 247.461 159.633C247.18 160.005 246.789 160.459 246.29 160.995L244.331 163.09V163.158H248.384V164.095H242.884ZM252.986 164.214C252.345 164.214 251.799 164.039 251.347 163.69C250.896 163.338 250.551 162.829 250.313 162.162C250.074 161.492 249.955 160.683 249.955 159.735C249.955 158.793 250.074 157.988 250.313 157.321C250.554 156.652 250.9 156.141 251.352 155.789C251.806 155.434 252.351 155.257 252.986 155.257C253.622 155.257 254.166 155.434 254.617 155.789C255.071 156.141 255.417 156.652 255.656 157.321C255.897 157.988 256.018 158.793 256.018 159.735C256.018 160.683 255.898 161.492 255.66 162.162C255.422 162.829 255.077 163.338 254.625 163.69C254.174 164.039 253.628 164.214 252.986 164.214ZM252.986 163.277C253.622 163.277 254.116 162.971 254.468 162.358C254.82 161.745 254.996 160.871 254.996 159.735C254.996 158.98 254.915 158.337 254.753 157.807C254.594 157.276 254.364 156.872 254.064 156.593C253.766 156.315 253.406 156.176 252.986 156.176C252.356 156.176 251.864 156.487 251.509 157.109C251.154 157.727 250.977 158.603 250.977 159.735C250.977 160.49 251.056 161.132 251.215 161.66C251.374 162.187 251.603 162.589 251.901 162.864C252.202 163.14 252.564 163.277 252.986 163.277Z" fill="white"/>
<line x1="23.3047" y1="182.788" x2="253.89" y2="182.788" stroke="#007D00" stroke-width="0.613259"/>
<line x1="23.3047" y1="201.799" x2="253.89" y2="201.799" stroke="#007D00" stroke-width="0.613259"/>
<rect x="33.1172" y="337.637" width="220.773" height="19.6243" fill="#007D00" fill-opacity="0.3"/>
<line x1="23.3047" y1="337.943" x2="253.89" y2="337.943" stroke="#007D00" stroke-width="0.613259"/>
<line x1="23.3047" y1="356.955" x2="253.89" y2="356.955" stroke="#007D00" stroke-width="0.613259"/>
<rect x="33.1172" y="202.105" width="12.2652" height="135.53" fill="#007D00" fill-opacity="0.3"/>
<line x1="33.4238" y1="172.67" x2="33.4238" y2="357.261" stroke="#007D00" stroke-width="0.613259"/>
<line x1="45.0742" y1="172.67" x2="45.0742" y2="357.261" stroke="#007D00" stroke-width="0.613259"/>
<rect x="241.626" y="202.105" width="12.2652" height="135.53" fill="#007D00" fill-opacity="0.3"/>
<line x1="241.933" y1="172.67" x2="241.933" y2="357.261" stroke="#007D00" stroke-width="0.613259"/>
<line x1="253.583" y1="172.67" x2="253.583" y2="357.261" stroke="#007D00" stroke-width="0.613259"/>
<rect x="45.3818" y="221.117" width="196.243" height="9.81214" fill="#C54600" fill-opacity="0.3"/>
<line x1="23.3047" y1="221.424" x2="241.625" y2="221.424" stroke="#C54600" stroke-width="0.613259"/>
<line x1="23.3047" y1="230.623" x2="241.625" y2="230.623" stroke="#C54600" stroke-width="0.613259"/>
<rect x="45.3818" y="265.272" width="196.243" height="2.45303" fill="#C54600" fill-opacity="0.3"/>
<line x1="23.3047" y1="265.579" x2="241.625" y2="265.579" stroke="#C54600" stroke-width="0.613259"/>
<line x1="23.3047" y1="267.418" x2="241.625" y2="267.418" stroke="#C54600" stroke-width="0.613259"/>
<rect x="45.3818" y="301.454" width="196.243" height="2.45303" fill="#C54600" fill-opacity="0.3"/>
<line x1="23.3047" y1="301.761" x2="241.625" y2="301.761" stroke="#C54600" stroke-width="0.613259"/>
<line x1="23.3047" y1="303.6" x2="241.625" y2="303.6" stroke="#C54600" stroke-width="0.613259"/>
<rect y="183.831" width="21.5391" height="16.0899" rx="4.35943" fill="#007D00"/>
<path d="M7.11809 195.95C6.55613 195.95 6.05519 195.854 5.61528 195.661C5.1782 195.468 4.83052 195.2 4.57225 194.856C4.31682 194.51 4.17775 194.108 4.15504 193.651H5.22787C5.25057 193.932 5.34707 194.175 5.51736 194.379C5.68765 194.581 5.91045 194.737 6.18575 194.848C6.46105 194.958 6.76616 195.014 7.10106 195.014C7.4757 195.014 7.80776 194.948 8.09726 194.818C8.38675 194.687 8.6138 194.506 8.77842 194.273C8.94303 194.04 9.02534 193.771 9.02534 193.464C9.02534 193.143 8.94587 192.861 8.78693 192.617C8.628 192.37 8.39527 192.177 8.08874 192.038C7.78222 191.899 7.40758 191.829 6.96483 191.829H6.26664V190.893H6.96483C7.31108 190.893 7.61477 190.83 7.87588 190.705C8.13983 190.58 8.3456 190.404 8.49318 190.177C8.64361 189.95 8.71882 189.684 8.71882 189.377C8.71882 189.082 8.65354 188.825 8.52298 188.606C8.39243 188.388 8.20795 188.218 7.96954 188.096C7.73397 187.974 7.45583 187.913 7.13512 187.913C6.83427 187.913 6.55046 187.968 6.28367 188.079C6.01972 188.186 5.80402 188.344 5.63656 188.551C5.46911 188.755 5.37829 189.002 5.3641 189.292H4.34236C4.35939 188.835 4.49704 188.435 4.75531 188.091C5.01359 187.745 5.35133 187.475 5.76854 187.282C6.18859 187.089 6.64979 186.993 7.15215 186.993C7.6914 186.993 8.15402 187.102 8.54001 187.321C8.926 187.537 9.22259 187.822 9.42978 188.177C9.63696 188.531 9.74056 188.914 9.74056 189.326C9.74056 189.817 9.61142 190.236 9.35315 190.582C9.09771 190.928 8.75004 191.168 8.31012 191.301V191.369C8.86073 191.46 9.29071 191.694 9.60007 192.072C9.90943 192.447 10.0641 192.911 10.0641 193.464C10.0641 193.938 9.93497 194.364 9.6767 194.741C9.42126 195.116 9.07217 195.411 8.62941 195.627C8.18666 195.842 7.68288 195.95 7.11809 195.95ZM11.8053 195.831V195.065L14.6832 191.914C15.021 191.545 15.2991 191.225 15.5177 190.952C15.7362 190.677 15.898 190.419 16.003 190.177C16.1108 189.933 16.1648 189.678 16.1648 189.411C16.1648 189.105 16.091 188.839 15.9434 188.615C15.7986 188.391 15.6 188.218 15.3474 188.096C15.0948 187.974 14.8109 187.913 14.4959 187.913C14.161 187.913 13.8687 187.982 13.6189 188.121C13.372 188.257 13.1804 188.449 13.0442 188.696C12.9108 188.943 12.8441 189.232 12.8441 189.564H11.8394C11.8394 189.054 11.9572 188.605 12.1927 188.219C12.4283 187.833 12.749 187.532 13.1549 187.317C13.5636 187.101 14.0219 186.993 14.53 186.993C15.0408 186.993 15.4935 187.101 15.888 187.317C16.2825 187.532 16.5919 187.823 16.8161 188.189C17.0403 188.555 17.1524 188.963 17.1524 189.411C17.1524 189.732 17.0943 190.045 16.9779 190.352C16.8644 190.656 16.6657 190.995 16.3819 191.369C16.1009 191.741 15.7106 192.195 15.2111 192.732L13.2528 194.826V194.894H17.3057V195.831H11.8053Z" fill="white"/>
<rect y="339.752" width="21.5391" height="16.0899" rx="4.35943" fill="#007D00"/>
<path d="M7.11809 351.871C6.55613 351.871 6.05519 351.775 5.61528 351.582C5.1782 351.389 4.83052 351.12 4.57225 350.777C4.31682 350.431 4.17775 350.029 4.15504 349.572H5.22787C5.25057 349.853 5.34707 350.096 5.51736 350.3C5.68765 350.502 5.91045 350.658 6.18575 350.769C6.46105 350.879 6.76616 350.935 7.10106 350.935C7.4757 350.935 7.80776 350.869 8.09726 350.739C8.38675 350.608 8.6138 350.427 8.77842 350.194C8.94303 349.961 9.02534 349.691 9.02534 349.385C9.02534 349.064 8.94587 348.782 8.78693 348.538C8.628 348.291 8.39527 348.098 8.08874 347.959C7.78222 347.82 7.40758 347.75 6.96483 347.75H6.26664V346.814H6.96483C7.31108 346.814 7.61477 346.751 7.87588 346.626C8.13983 346.501 8.3456 346.325 8.49318 346.098C8.64361 345.871 8.71882 345.604 8.71882 345.298C8.71882 345.003 8.65354 344.746 8.52298 344.527C8.39243 344.309 8.20795 344.139 7.96954 344.017C7.73397 343.894 7.45583 343.833 7.13512 343.833C6.83427 343.833 6.55046 343.889 6.28367 343.999C6.01972 344.107 5.80402 344.265 5.63656 344.472C5.46911 344.676 5.37829 344.923 5.3641 345.213H4.34236C4.35939 344.756 4.49704 344.356 4.75531 344.012C5.01359 343.666 5.35133 343.396 5.76854 343.203C6.18859 343.01 6.64979 342.914 7.15215 342.914C7.6914 342.914 8.15402 343.023 8.54001 343.242C8.926 343.457 9.22259 343.743 9.42978 344.097C9.63696 344.452 9.74056 344.835 9.74056 345.247C9.74056 345.738 9.61142 346.157 9.35315 346.503C9.09771 346.849 8.75004 347.089 8.31012 347.222V347.29C8.86073 347.381 9.29071 347.615 9.60007 347.993C9.90943 348.367 10.0641 348.831 10.0641 349.385C10.0641 349.859 9.93497 350.285 9.6767 350.662C9.42126 351.037 9.07217 351.332 8.62941 351.548C8.18666 351.763 7.68288 351.871 7.11809 351.871ZM11.8053 351.752V350.986L14.6832 347.835C15.021 347.466 15.2991 347.146 15.5177 346.873C15.7362 346.598 15.898 346.34 16.003 346.098C16.1108 345.854 16.1648 345.599 16.1648 345.332C16.1648 345.025 16.091 344.76 15.9434 344.536C15.7986 344.312 15.6 344.139 15.3474 344.017C15.0948 343.894 14.8109 343.833 14.4959 343.833C14.161 343.833 13.8687 343.903 13.6189 344.042C13.372 344.178 13.1804 344.37 13.0442 344.617C12.9108 344.864 12.8441 345.153 12.8441 345.485H11.8394C11.8394 344.974 11.9572 344.526 12.1927 344.14C12.4283 343.754 12.749 343.453 13.1549 343.237C13.5636 343.022 14.0219 342.914 14.53 342.914C15.0408 342.914 15.4935 343.022 15.888 343.237C16.2825 343.453 16.5919 343.744 16.8161 344.11C17.0403 344.476 17.1524 344.884 17.1524 345.332C17.1524 345.653 17.0943 345.966 16.9779 346.273C16.8644 346.577 16.6657 346.916 16.3819 347.29C16.1009 347.662 15.7106 348.116 15.2111 348.653L13.2528 350.747V350.815H17.3057V351.752H11.8053Z" fill="white"/>
<rect x="1.38086" y="218.326" width="20.5391" height="16.0899" rx="4.35943" fill="#C54600"/>
<path d="M8.61815 221.607V230.326H7.56235V222.714H7.51127L5.38264 224.128V223.055L7.56235 221.607H8.61815ZM14.0206 230.445C13.663 230.44 13.3054 230.372 12.9478 230.241C12.5902 230.11 12.2638 229.891 11.9686 229.581C11.6734 229.269 11.4365 228.847 11.2576 228.317C11.0788 227.783 10.9894 227.113 10.9894 226.307C10.9894 225.535 11.0618 224.851 11.2066 224.255C11.3513 223.656 11.5613 223.153 11.8366 222.744C12.1119 222.332 12.444 222.02 12.8328 221.807C13.2245 221.595 13.6658 221.488 14.1568 221.488C14.645 221.488 15.0792 221.586 15.4596 221.782C15.8427 221.975 16.1549 222.244 16.3962 222.591C16.6374 222.937 16.7935 223.336 16.8645 223.787H15.8257C15.7292 223.395 15.5419 223.07 15.2637 222.812C14.9856 222.554 14.6166 222.425 14.1568 222.425C13.4814 222.425 12.9492 222.718 12.5604 223.306C12.1744 223.893 11.98 224.718 11.9771 225.779H12.0452C12.2042 225.538 12.3929 225.332 12.6115 225.162C12.8328 224.989 13.0769 224.856 13.3437 224.762C13.6105 224.668 13.8929 224.621 14.1909 224.621C14.6904 224.621 15.1474 224.746 15.5617 224.996C15.9761 225.243 16.3082 225.585 16.5579 226.022C16.8077 226.456 16.9326 226.954 16.9326 227.516C16.9326 228.056 16.8119 228.549 16.5707 228.998C16.3295 229.444 15.9903 229.798 15.5532 230.062C15.119 230.323 14.6081 230.451 14.0206 230.445ZM14.0206 229.509C14.3782 229.509 14.6989 229.419 14.9827 229.241C15.2694 229.062 15.495 228.822 15.6597 228.521C15.8271 228.22 15.9108 227.885 15.9108 227.516C15.9108 227.156 15.8299 226.828 15.6682 226.533C15.5092 226.235 15.2893 225.998 15.0083 225.822C14.7301 225.646 14.4123 225.558 14.0547 225.558C13.785 225.558 13.5339 225.612 13.3011 225.72C13.0684 225.825 12.8641 225.97 12.6881 226.154C12.515 226.339 12.3787 226.55 12.2794 226.788C12.1801 227.024 12.1304 227.272 12.1304 227.533C12.1304 227.88 12.2113 228.203 12.373 228.504C12.5377 228.805 12.7619 229.048 13.0457 229.232C13.3324 229.417 13.6573 229.509 14.0206 229.509Z" fill="white"/>
<rect x="4.14062" y="258.342" width="14.5391" height="16.0899" rx="4.35943" fill="#C54600"/>
<path d="M8.10835 268.554V267.685L11.9399 261.623H12.5699V262.968H12.1442L9.24929 267.549V267.617H14.4091V268.554H8.10835ZM12.2123 270.342V268.29V267.885V261.623H13.2171V270.342H12.2123Z" fill="white"/>
<rect x="4.14062" y="295.597" width="14.5391" height="16.0899" rx="4.35943" fill="#C54600"/>
<path d="M8.10835 305.809V304.94L11.9399 298.878H12.5699V300.223H12.1442L9.24929 304.804V304.872H14.4091V305.809H8.10835ZM12.2123 307.597V305.545V305.14V298.878H13.2171V307.597H12.2123Z" fill="white"/>
<defs>
<filter id="filter0_dd_1099_78895" x="23.305" y="177.545" width="240.398" height="194.403" filterUnits="userSpaceOnUse" color-interpolation-filters="sRGB">
<feFlood flood-opacity="0" result="BackgroundImageFix"/>
<feColorMatrix in="SourceAlpha" type="matrix" values="0 0 0 0 0 0 0 0 0 0 0 0 0 0 0 0 0 0 127 0" result="hardAlpha"/>
<feOffset/>
<feGaussianBlur stdDeviation="2.45303"/>
<feComposite in2="hardAlpha" operator="out"/>
<feColorMatrix type="matrix" values="0 0 0 0 0 0 0 0 0 0 0 0 0 0 0 0 0 0 0.12 0"/>
<feBlend mode="normal" in2="BackgroundImageFix" result="effect1_dropShadow_1099_78895"/>
<feColorMatrix in="SourceAlpha" type="matrix" values="0 0 0 0 0 0 0 0 0 0 0 0 0 0 0 0 0 0 127 0" result="hardAlpha"/>
<feOffset dy="4.90607"/>
<feGaussianBlur stdDeviation="4.90607"/>
<feComposite in2="hardAlpha" operator="out"/>
<feColorMatrix type="matrix" values="0 0 0 0 0 0 0 0 0 0 0 0 0 0 0 0 0 0 0.12 0"/>
<feBlend mode="normal" in2="effect1_dropShadow_1099_78895" result="effect2_dropShadow_1099_78895"/>
<feBlend mode="normal" in="SourceGraphic" in2="effect2_dropShadow_1099_78895" result="shape"/>
</filter>
<clipPath id="clip0_1099_78895">
<rect width="220.773" height="354.341" fill="white" transform="translate(33.1211 3.90234)"/>
</clipPath>
<clipPath id="clip1_1099_78895">
<path d="M33.1172 204.528C33.1172 192.336 43.0015 182.451 55.1945 182.451H231.813C244.006 182.451 253.89 192.336 253.89 204.528V357.23H33.1172V204.528Z" fill="white"/>
</clipPath>
</defs>
</svg>
