<svg width="308" height="263" viewBox="0 0 308 263" fill="none" xmlns="http://www.w3.org/2000/svg">
<g filter="url(#filter0_dd_1335_48538)">
<g clip-path="url(#clip0_1335_48538)">
<path d="M47.1562 64C47.1562 51.8497 57.006 42 69.1563 42H253.156C265.307 42 275.156 51.8497 275.156 64V246.9H47.1562V64Z" fill="white"/>
<path d="M68.1706 67.0193H69.5639V75.1639H68.1706V67.0193ZM62.1666 74.3533H63.5472V76.9499H69.8679V78.0646H62.1666V74.3533ZM63.4586 67.7539C65.1686 67.7539 66.4732 68.9319 66.4732 70.5913C66.4732 72.2253 65.1686 73.4159 63.4586 73.4159C61.7612 73.4159 60.4439 72.2253 60.4439 70.5913C60.4439 68.9319 61.7612 67.7539 63.4586 67.7539ZM63.4586 68.9573C62.5212 68.9573 61.7992 69.5906 61.7992 70.5913C61.7992 71.5666 62.5212 72.1999 63.4586 72.1999C64.3959 72.1999 65.1179 71.5666 65.1179 70.5913C65.1179 69.5906 64.3959 68.9573 63.4586 68.9573ZM71.2299 72.2886H81.4139V73.3906H71.2299V72.2886ZM76.3092 74.1506C78.7285 74.1506 80.1979 74.9106 80.1979 76.2153C80.1979 77.5326 78.7285 78.2926 76.3092 78.2926C73.8772 78.2926 72.4079 77.5326 72.4079 76.2153C72.4079 74.9106 73.8772 74.1506 76.3092 74.1506ZM76.3092 75.2273C74.6879 75.2273 73.8139 75.5693 73.8139 76.2153C73.8139 76.8739 74.6879 77.2033 76.3092 77.2033C77.9179 77.2033 78.7919 76.8739 78.7919 76.2153C78.7919 75.5693 77.9179 75.2273 76.3092 75.2273ZM72.1545 67.5639H80.5019V68.6786H77.2972C77.4999 69.6159 78.8172 70.4646 80.9325 70.6673L80.4385 71.7566C78.4119 71.5539 76.9172 70.7433 76.3219 69.6033C75.7265 70.7433 74.2319 71.5539 72.1925 71.7566L71.7112 70.6673C73.8139 70.4646 75.1439 69.6159 75.3465 68.6786H72.1545V67.5639ZM87.2978 67.1966C89.8312 67.1966 91.3385 67.8679 91.3385 69.1219C91.3385 70.3759 89.8312 71.0599 87.2978 71.0599C84.7645 71.0599 83.2572 70.3759 83.2572 69.1219C83.2572 67.8679 84.7645 67.1966 87.2978 67.1966ZM87.2978 68.2099C85.5878 68.2099 84.7012 68.5266 84.7012 69.1219C84.7012 69.7299 85.5878 70.0339 87.2978 70.0339C88.9952 70.0339 89.8945 69.7299 89.8945 69.1219C89.8945 68.5266 88.9952 68.2099 87.2978 68.2099ZM82.2058 71.6679H92.3898V72.7826H82.2058V71.6679ZM83.3838 73.5299H91.1232V76.2913H84.7772V77.1399H91.4398V78.1913H83.4218V75.3159H89.7552V74.5813H83.3838V73.5299ZM99.6541 67.4879C101.351 67.4879 102.58 68.4633 102.58 69.8693C102.58 71.2499 101.351 72.2379 99.6541 72.2379C97.9694 72.2379 96.7281 71.2499 96.7281 69.8693C96.7281 68.4633 97.9694 67.4879 99.6541 67.4879ZM99.6541 68.6279C98.7421 68.6279 98.0707 69.0966 98.0707 69.8693C98.0707 70.6293 98.7421 71.0979 99.6541 71.0979C100.579 71.0979 101.25 70.6293 101.25 69.8693C101.25 69.0966 100.579 68.6279 99.6541 68.6279ZM103.961 67.0066H105.354V78.2926H103.961V67.0066ZM96.0061 73.0106C98.0201 73.0106 100.832 72.9979 103.264 72.6179L103.353 73.6439C102.377 73.8339 101.377 73.9479 100.401 74.0239V77.9379H99.0081V74.1126C97.9821 74.1506 97.0194 74.1633 96.1707 74.1633L96.0061 73.0106ZM106.957 68.8053H109.021V67.3106H110.389V68.8053H112.429V69.9073H106.957V68.8053ZM109.705 70.5153C111.137 70.5153 112.163 71.6046 112.163 73.1499C112.163 74.7079 111.137 75.7973 109.705 75.7973C108.287 75.7973 107.261 74.7079 107.261 73.1499C107.261 71.6046 108.287 70.5153 109.705 70.5153ZM109.705 71.6679C108.996 71.6679 108.489 72.2506 108.489 73.1499C108.489 74.0619 108.996 74.6319 109.705 74.6319C110.415 74.6319 110.934 74.0619 110.934 73.1499C110.934 72.2506 110.415 71.6679 109.705 71.6679ZM115.279 67.0066H116.596V78.2799H115.279V72.7826H114.189V77.7733H112.885V67.2473H114.189V71.6553H115.279V67.0066ZM120.795 72.4153H125.19V71.3513H122.049V67.5133H129.738V68.6279H123.417V70.2366H129.814V71.3513H126.571V72.4153H130.979V73.5299H120.795V72.4153ZM125.862 74.1886C128.281 74.1886 129.75 74.9233 129.75 76.2406C129.75 77.5579 128.281 78.2926 125.862 78.2926C123.43 78.2926 121.96 77.5579 121.96 76.2406C121.96 74.9233 123.43 74.1886 125.862 74.1886ZM125.862 75.2526C124.253 75.2526 123.366 75.5946 123.366 76.2406C123.366 76.9119 124.253 77.2286 125.862 77.2286C127.47 77.2286 128.344 76.9119 128.344 76.2406C128.344 75.5946 127.47 75.2526 125.862 75.2526ZM135.381 67.7793C137.142 67.7793 138.446 68.9193 138.446 70.5153C138.446 72.1239 137.142 73.2513 135.381 73.2513C133.608 73.2513 132.303 72.1239 132.303 70.5153C132.303 68.9193 133.608 67.7793 135.381 67.7793ZM135.381 68.9826C134.393 68.9826 133.658 69.5653 133.658 70.5153C133.658 71.4526 134.393 72.0606 135.381 72.0606C136.356 72.0606 137.091 71.4526 137.091 70.5153C137.091 69.5653 136.356 68.9826 135.381 68.9826ZM139.675 66.9939H141.056V78.3053H139.675V66.9939ZM131.796 74.8093C133.798 74.8093 136.61 74.7966 139.004 74.4293L139.105 75.4426C136.635 75.9239 133.937 75.9493 131.961 75.9493L131.796 74.8093ZM150.094 66.9939H151.5V71.4146H153.159V72.5673H151.5V78.2799H150.094V66.9939ZM148.536 68.1846C148.536 71.5033 147.18 74.3913 143.469 76.2533L142.684 75.2019C145.407 73.8086 146.864 71.8833 147.13 69.3119H143.279V68.1846H148.536ZM164.464 67.0193H165.87V72.8206H164.464V67.0193ZM158.346 73.3019H165.87V76.2153H159.739V77.1019H166.224V78.1913H158.371V75.2146H164.489V74.3786H158.346V73.3019ZM157.016 67.7159H163.083V68.8053H162.108V71.2626C162.602 71.2246 163.083 71.1739 163.552 71.1233L163.628 72.1113C161.386 72.4786 158.827 72.5293 156.864 72.5419L156.724 71.4273H157.991V68.8053H157.016V67.7159ZM159.334 71.4019L160.765 71.3513V68.8053H159.334V71.4019ZM167.51 75.7846H169.854V72.9093C168.967 72.3899 168.435 71.5919 168.435 70.5913C168.435 68.7799 170.196 67.6146 172.602 67.6146C175.022 67.6146 176.77 68.7799 176.77 70.5913C176.77 71.5919 176.238 72.3899 175.364 72.9093V75.7846H177.72V76.9119H167.51V75.7846ZM172.602 68.7039C170.943 68.7039 169.803 69.4259 169.803 70.5913C169.803 71.7693 170.943 72.4786 172.602 72.4786C174.262 72.4786 175.402 71.7693 175.402 70.5913C175.402 69.4259 174.262 68.7039 172.602 68.7039ZM171.247 75.7846H173.97V73.4286C173.552 73.5173 173.084 73.5679 172.602 73.5679C172.121 73.5679 171.665 73.5173 171.247 73.4286V75.7846ZM178.461 68.8053H180.526V67.3106H181.894V68.8053H183.933V69.9073H178.461V68.8053ZM181.21 70.5153C182.641 70.5153 183.667 71.6046 183.667 73.1499C183.667 74.7079 182.641 75.7973 181.21 75.7973C179.791 75.7973 178.765 74.7079 178.765 73.1499C178.765 71.6046 179.791 70.5153 181.21 70.5153ZM181.21 71.6679C180.5 71.6679 179.994 72.2506 179.994 73.1499C179.994 74.0619 180.5 74.6319 181.21 74.6319C181.919 74.6319 182.438 74.0619 182.438 73.1499C182.438 72.2506 181.919 71.6679 181.21 71.6679ZM186.783 67.0066H188.1V78.2799H186.783V72.7826H185.694V77.7733H184.389V67.2473H185.694V71.6553H186.783V67.0066ZM189.462 75.7846H191.806V72.9093C190.919 72.3899 190.387 71.5919 190.387 70.5913C190.387 68.7799 192.148 67.6146 194.554 67.6146C196.974 67.6146 198.722 68.7799 198.722 70.5913C198.722 71.5919 198.19 72.3899 197.316 72.9093V75.7846H199.672V76.9119H189.462V75.7846ZM194.554 68.7039C192.895 68.7039 191.755 69.4259 191.755 70.5913C191.755 71.7693 192.895 72.4786 194.554 72.4786C196.214 72.4786 197.354 71.7693 197.354 70.5913C197.354 69.4259 196.214 68.7039 194.554 68.7039ZM193.199 75.7846H195.922V73.4286C195.504 73.5173 195.036 73.5679 194.554 73.5679C194.073 73.5679 193.617 73.5173 193.199 73.4286V75.7846Z" fill="#333333"/>
<path d="M247.39 78.0326C247.21 78.2227 246.908 78.2315 246.718 78.0512C246.528 77.8708 246.52 77.5697 246.701 77.3793L247.39 78.0326ZM257.323 66.1674C257.503 65.9772 257.804 65.9696 257.995 66.1498C258.185 66.3302 258.192 66.6313 258.012 66.8217L253.01 72.1L258.012 77.3793C258.193 77.5697 258.185 77.8707 257.995 78.0512C257.804 78.2313 257.503 78.2229 257.323 78.0326L252.356 72.7904L247.39 78.0326L247.045 77.7054L246.701 77.3793L251.702 72.1L246.701 66.8217L246.642 66.7455C246.525 66.5581 246.552 66.3078 246.718 66.1498C246.885 65.9921 247.136 65.9786 247.317 66.1049L247.39 66.1674L252.356 71.4086L257.323 66.1674Z" fill="#555555"/>
<path d="M67.085 96.5128H67.94V100.48H69.593V101.198H67.94V106.511H67.085V96.5128ZM60.7238 97.5046H65.3522V98.2H61.5674V103.284C63.4028 103.284 64.6682 103.227 66.1274 102.942L66.23 103.672C64.691 103.957 63.3914 104.014 61.499 104.014H60.7238V97.5046ZM70.1481 102.065H79.1883V102.771H70.1481V102.065ZM71.3451 103.581H72.2001V105.576H78.2421V106.271H71.3451V103.581ZM71.2995 96.8662H78.0141V99.3172H72.1545V100.457H78.2307V101.13H71.3223V98.6674H77.1705V97.5388H71.2995V96.8662ZM85.1941 97.2994C86.5507 97.2994 87.5311 98.4736 87.6565 100.355H89.8909V96.5128H90.7345V106.511H89.8909V101.039H87.6565C87.5767 102.999 86.5735 104.242 85.1941 104.242C83.7463 104.242 82.7203 102.885 82.7203 100.765C82.7203 98.6446 83.7463 97.2994 85.1941 97.2994ZM85.1941 98.0632C84.2137 98.0632 83.5297 99.1348 83.5297 100.765C83.5297 102.395 84.2137 103.478 85.1941 103.478C86.1859 103.478 86.8585 102.395 86.8585 100.765C86.8585 99.1348 86.1859 98.0632 85.1941 98.0632ZM92.4182 104.504H101.458V105.222H92.4182V104.504ZM93.5354 97.288H100.33V100.275H94.4018V101.951H100.558V102.657H93.5582V99.5908H99.4862V97.9948H93.5354V97.288ZM109.583 96.5356H110.438V103.832H109.583V96.5356ZM104.065 103.17H104.92V105.564H110.757V106.271H104.065V103.17ZM104.909 97.0714H105.764V98.0974C105.764 99.6136 106.801 100.982 108.272 101.529L107.816 102.213C106.676 101.768 105.787 100.845 105.354 99.6934C104.932 100.925 104.031 101.916 102.857 102.395L102.401 101.711C103.883 101.13 104.909 99.6706 104.909 98.0974V97.0714ZM113.319 97.3222H120.033V98.029H114.174V101.198H120.147V101.905H117.081V104.504H121.196V105.222H112.156V104.504H116.237V101.905H113.319V97.3222ZM132.195 96.5242H133.016V106.499H132.195V96.5242ZM130.371 96.7522H131.169V105.998H130.371V102.885H128.912C128.616 103.718 127.886 104.253 126.985 104.253C125.777 104.253 124.899 103.307 124.899 101.951C124.899 100.594 125.777 99.6592 126.985 99.6592C128.194 99.6592 129.072 100.594 129.072 101.951L129.06 102.19H130.371V100.617H128.958V99.9214H130.371V96.7522ZM124.534 98.257H126.575V96.7864H127.419V98.257H129.471V98.9524H124.534V98.257ZM126.985 100.389C126.222 100.389 125.663 101.039 125.663 101.951C125.663 102.863 126.222 103.512 126.985 103.512C127.761 103.512 128.319 102.863 128.319 101.951C128.319 101.039 127.761 100.389 126.985 100.389ZM134.871 97.2538H138.701V97.9606H135.691V99.2488H138.598V99.9214H135.691V101.324C137.151 101.324 138.051 101.267 139.111 101.061L139.203 101.757C138.051 101.985 137.105 102.03 135.498 102.03H134.871V97.2538ZM142.007 96.5242H142.816V102.566H142.007V99.853H140.605V102.509H139.795V96.718H140.605V99.1462H142.007V96.5242ZM136.147 103.102H142.816V106.499H141.973V103.809H136.147V103.102ZM148.798 96.7066C150.987 96.7066 152.298 97.3108 152.298 98.428C152.298 99.5452 150.987 100.161 148.798 100.161C146.609 100.161 145.298 99.5452 145.298 98.428C145.298 97.3108 146.609 96.7066 148.798 96.7066ZM148.798 97.345C147.156 97.345 146.176 97.744 146.176 98.428C146.176 99.1234 147.156 99.511 148.798 99.511C150.439 99.511 151.42 99.1234 151.42 98.428C151.42 97.744 150.439 97.345 148.798 97.345ZM144.295 100.856H153.301V101.552H144.295V100.856ZM145.389 102.429H152.138V104.641H146.256V105.713H152.446V106.385H145.423V104.014H151.306V103.091H145.389V102.429ZM163.582 96.5242H164.437V98.9296H165.919V99.6592H164.437V102.361H163.582V96.5242ZM157.141 97.0714H157.984V98.6332H160.891V97.0714H161.735V101.723H157.141V97.0714ZM157.984 99.3172V101.016H160.891V99.3172H157.984ZM158.235 102.92H164.516V103.615H159.09V105.656H164.71V106.362H158.235V102.92ZM171.068 96.7066C173.257 96.7066 174.568 97.3108 174.568 98.428C174.568 99.5452 173.257 100.161 171.068 100.161C168.879 100.161 167.568 99.5452 167.568 98.428C167.568 97.3108 168.879 96.7066 171.068 96.7066ZM171.068 97.345C169.426 97.345 168.446 97.744 168.446 98.428C168.446 99.1234 169.426 99.511 171.068 99.511C172.71 99.511 173.69 99.1234 173.69 98.428C173.69 97.744 172.71 97.345 171.068 97.345ZM166.565 100.856H175.571V101.552H166.565V100.856ZM167.659 102.429H174.408V104.641H168.526V105.713H174.716V106.385H167.694V104.014H173.576V103.091H167.659V102.429ZM183.036 96.889H183.925V97.459C183.925 98.8726 185.772 100.092 187.528 100.355L187.174 101.039C185.658 100.776 184.13 99.91 183.492 98.6902C182.865 99.9328 181.326 100.776 179.787 101.039L179.434 100.355C181.212 100.092 183.036 98.9068 183.036 97.459V96.889ZM178.966 102.167H187.984V102.874H183.88V106.499H183.036V102.874H178.966V102.167ZM193.887 102.68H194.708V103.227C194.708 104.128 195.186 105.074 196.121 105.621C197.09 105.017 197.58 104.003 197.58 103.227V102.68H198.413V103.227C198.413 104.265 199.176 105.291 200.43 105.724L200.009 106.362C199.028 106.009 198.333 105.302 197.979 104.47C197.683 105.279 197.079 106.055 196.155 106.454C195.198 106.077 194.582 105.348 194.286 104.504C193.932 105.302 193.248 105.998 192.302 106.362L191.869 105.724C193.123 105.268 193.887 104.185 193.887 103.227V102.68ZM198.675 96.5356H199.541V102.236H198.675V96.5356ZM194.195 97.117C195.699 97.117 196.782 98.0632 196.782 99.4426C196.782 100.811 195.699 101.745 194.195 101.745C192.69 101.745 191.607 100.811 191.607 99.4426C191.607 98.0632 192.69 97.117 194.195 97.117ZM194.195 97.8352C193.18 97.8352 192.439 98.4964 192.439 99.4426C192.439 100.389 193.18 101.039 194.195 101.039C195.221 101.039 195.95 100.389 195.95 99.4426C195.95 98.4964 195.221 97.8352 194.195 97.8352ZM202.467 96.889H203.311V99.5566H209.228V100.252H202.467V96.889ZM201.236 101.62H210.276V102.327H201.236V101.62ZM202.41 103.341H203.254V105.553H209.285V106.26H202.41V103.341ZM213.945 97.5502H219.52V98.2684H217.149V99.6136C217.149 101.312 218.403 103.022 219.839 103.649L219.349 104.333C218.209 103.797 217.194 102.635 216.727 101.255C216.271 102.726 215.268 104.003 214.128 104.573L213.637 103.9C215.04 103.216 216.294 101.335 216.294 99.6136V98.2684H213.945V97.5502ZM220.911 96.5242H221.766V106.499H220.911V96.5242ZM232.89 96.5356H233.745V99.568H235.238V100.275H233.745V103.205H232.89V96.5356ZM225.993 102.213C226.791 102.213 227.726 102.213 228.695 102.179V101.426C227.543 101.335 226.802 100.799 226.802 99.967C226.802 99.055 227.714 98.4964 229.105 98.4964C230.507 98.4964 231.419 99.055 231.419 99.967C231.419 100.788 230.69 101.324 229.538 101.426V102.144C230.473 102.099 231.408 102.019 232.286 101.894L232.354 102.509C230.211 102.897 227.84 102.908 226.107 102.908L225.993 102.213ZM227.213 103.718H233.745V106.499H232.89V104.402H227.213V103.718ZM226.244 97.4476H228.695V96.4444H229.538V97.4476H231.978V98.0974H226.244V97.4476ZM229.105 99.0892C228.193 99.0892 227.612 99.4312 227.612 99.967C227.612 100.491 228.193 100.856 229.105 100.856C230.029 100.856 230.61 100.491 230.61 99.967C230.61 99.4312 230.029 99.0892 229.105 99.0892ZM243.204 96.5356H244.07V103.82H243.204V96.5356ZM237.697 103.079H238.541V105.564H244.378V106.271H237.697V103.079ZM238.723 97.231C240.205 97.231 241.311 98.2342 241.311 99.682C241.311 101.107 240.205 102.122 238.723 102.122C237.253 102.122 236.136 101.107 236.136 99.682C236.136 98.2342 237.253 97.231 238.723 97.231ZM238.723 97.972C237.732 97.972 236.968 98.6788 236.968 99.682C236.968 100.662 237.732 101.369 238.723 101.369C239.727 101.369 240.49 100.662 240.49 99.682C240.49 98.6788 239.727 97.972 238.723 97.972ZM245.754 98.257H247.817V96.8092H248.661V98.257H250.713V98.9524H245.754V98.257ZM248.239 99.6478C249.481 99.6478 250.382 100.583 250.382 101.905C250.382 103.25 249.481 104.174 248.239 104.174C246.996 104.174 246.107 103.25 246.107 101.905C246.107 100.583 246.996 99.6478 248.239 99.6478ZM248.239 100.366C247.441 100.366 246.871 101.016 246.871 101.905C246.871 102.806 247.441 103.444 248.239 103.444C249.037 103.444 249.618 102.806 249.618 101.905C249.618 101.016 249.037 100.366 248.239 100.366ZM253.38 96.5242H254.19V106.499H253.38V101.449H252.046V105.998H251.237V96.7636H252.046V100.742H253.38V96.5242ZM60.2792 121.493H64.3604V119.315H61.3622V114.231H62.2058V116.032H67.3814V114.231H68.225V119.315H65.204V121.493H69.3194V122.211H60.2792V121.493ZM62.2058 116.739V118.62H67.3814V116.739H62.2058ZM74.0697 117.115H75.7569V113.752H76.5549V122.986H75.7569V117.833H74.0697V117.115ZM72.2457 114.482H73.0665V116.374C73.0665 117.959 73.8531 119.669 75.1641 120.455L74.6625 121.117C73.7049 120.547 73.0209 119.464 72.6675 118.255C72.3027 119.578 71.5617 120.729 70.5699 121.333L70.0341 120.695C71.3907 119.897 72.2457 118.107 72.2457 116.397V114.482ZM77.7861 113.524H78.6069V123.499H77.7861V113.524ZM80.017 121.493H82.2628V118.768C81.4192 118.335 80.9062 117.617 80.9062 116.716C80.9062 115.166 82.4224 114.163 84.52 114.163C86.6404 114.163 88.1338 115.166 88.1338 116.716C88.1338 117.605 87.6322 118.312 86.8114 118.757V121.493H89.0572V122.2H80.017V121.493ZM84.52 114.847C82.9012 114.847 81.7384 115.588 81.7384 116.716C81.7384 117.845 82.9012 118.586 84.52 118.586C86.1388 118.586 87.313 117.845 87.313 116.716C87.313 115.588 86.1388 114.847 84.52 114.847ZM83.1064 121.493H85.9564V119.087C85.5232 119.201 85.0444 119.258 84.52 119.258C84.007 119.258 83.5396 119.201 83.1064 119.087V121.493Z" fill="#616161"/>
<path d="M59.8232 148.333C59.8232 143.915 63.405 140.333 67.8232 140.333H254.49C258.908 140.333 262.49 143.915 262.49 148.333V167.166C262.49 171.585 258.908 175.166 254.49 175.166H67.8232C63.405 175.166 59.8232 171.585 59.8232 167.166V148.333Z" fill="#FFF5E6"/>
<path fill-rule="evenodd" clip-rule="evenodd" d="M80.5377 152.551C80.7851 152.798 80.7851 153.199 80.5377 153.446L73.5711 160.413C73.3237 160.66 72.9227 160.66 72.6754 160.413L69.5087 157.246C69.2614 156.999 69.2614 156.598 69.5087 156.351C69.7561 156.103 70.1571 156.103 70.4044 156.351L73.1232 159.07L79.6421 152.551C79.8894 152.303 80.2904 152.303 80.5377 152.551Z" fill="#EE6002"/>
<path d="M88.7433 156.541C88.7433 155.264 89.25 153.562 89.9695 152.427H90.7903C89.9796 153.542 89.4121 155.234 89.4121 156.541C89.4121 157.848 89.9796 159.541 90.7903 160.655H89.9695C89.25 159.52 88.7433 157.818 88.7433 156.541ZM98.2557 152.072H99.0258V156.673H98.2557V152.072ZM93.2701 157.119H99.0258V159.216H94.0402V160.219H99.3602V160.838H93.2903V158.649H98.2658V157.717H93.2701V157.119ZM92.1554 152.68H96.9079V153.288H96.0162V155.589C96.4722 155.558 96.9282 155.518 97.3538 155.467L97.3943 156.014C95.621 156.288 93.5538 156.349 92.0034 156.349L91.9122 155.72L93.0471 155.71V153.288H92.1554V152.68ZM93.7869 155.69L95.2765 155.639V153.288H93.7869V155.69ZM104.14 152.397H104.93V152.903C104.93 154.16 106.572 155.244 108.132 155.477L107.818 156.085C106.47 155.852 105.112 155.082 104.545 153.998C103.988 155.102 102.62 155.852 101.252 156.085L100.937 155.477C102.518 155.244 104.14 154.19 104.14 152.903V152.397ZM100.522 157.088H108.537V157.717H104.889V160.939H104.14V157.717H100.522V157.088ZM111.574 156.541C111.574 157.828 111.067 159.52 110.358 160.655H109.537C110.338 159.551 110.905 157.848 110.905 156.541C110.905 155.234 110.338 153.531 109.537 152.427H110.358C111.067 153.562 111.574 155.254 111.574 156.541ZM119.698 152.072H120.438V160.939H119.698V156.288H118.462V160.493H117.732V152.305H118.462V155.659H119.698V152.072ZM116.719 153.227C116.719 155.477 115.929 157.605 113.395 159.034L112.949 158.477C115.017 157.331 115.848 155.7 115.969 153.856H113.274V153.227H116.719ZM128.186 152.082H128.957V158.558H128.186V152.082ZM123.292 157.899H124.042V160.108H129.23V160.736H123.292V157.899ZM124.204 152.701C125.521 152.701 126.504 153.592 126.504 154.879C126.504 156.146 125.521 157.048 124.204 157.048C122.897 157.048 121.904 156.146 121.904 154.879C121.904 153.592 122.897 152.701 124.204 152.701ZM124.204 153.359C123.322 153.359 122.643 153.987 122.643 154.879C122.643 155.751 123.322 156.379 124.204 156.379C125.096 156.379 125.775 155.751 125.775 154.879C125.775 153.987 125.096 153.359 124.204 153.359ZM135.175 154.393H136.979V152.072H137.739V157.352H136.979V155.021H135.175V154.393ZM134.83 157.635C136.654 157.635 137.769 158.254 137.769 159.287C137.769 160.331 136.654 160.929 134.83 160.929C132.996 160.929 131.881 160.331 131.881 159.287C131.881 158.254 132.996 157.635 134.83 157.635ZM134.83 158.233C133.472 158.233 132.641 158.629 132.641 159.287C132.641 159.936 133.472 160.331 134.83 160.331C136.178 160.331 137.019 159.936 137.019 159.287C137.019 158.629 136.178 158.233 134.83 158.233ZM130.736 152.731H135.469V153.359H133.503V153.704C133.503 154.859 134.395 155.963 135.671 156.409L135.276 157.017C134.283 156.653 133.513 155.903 133.138 154.981C132.763 156.034 131.932 156.865 130.888 157.271L130.503 156.663C131.8 156.186 132.743 154.991 132.743 153.704V153.359H130.736V152.731ZM139.225 159.155H142.852V157.22H140.187V152.701H140.937V154.302H145.538V152.701H146.288V157.22H143.602V159.155H147.26V159.794H139.225V159.155ZM140.937 154.93V156.602H145.538V154.93H140.937ZM150.237 156.47H153.854V155.426H151.25V152.488H157.239V153.106H152V154.798H157.3V155.426H154.604V156.47H158.242V157.088H150.237V156.47ZM154.229 157.747C156.114 157.747 157.259 158.325 157.259 159.338C157.259 160.361 156.114 160.929 154.229 160.929C152.334 160.929 151.2 160.361 151.2 159.338C151.2 158.325 152.334 157.747 154.229 157.747ZM154.229 158.345C152.821 158.345 151.96 158.71 151.96 159.338C151.96 159.976 152.821 160.331 154.229 160.331C155.638 160.331 156.489 159.976 156.489 159.338C156.489 158.71 155.638 158.345 154.229 158.345ZM161.856 152.721C163.234 152.721 164.217 153.572 164.217 154.798C164.217 156.034 163.234 156.875 161.856 156.875C160.468 156.875 159.485 156.034 159.485 154.798C159.485 153.572 160.468 152.721 161.856 152.721ZM161.856 153.379C160.914 153.379 160.225 153.957 160.225 154.798C160.225 155.629 160.914 156.217 161.856 156.217C162.789 156.217 163.478 155.629 163.478 154.798C163.478 153.957 162.789 153.379 161.856 153.379ZM165.423 152.062H166.183V160.949H165.423V152.062ZM159.029 158.345C160.65 158.345 162.9 158.345 164.835 158.041L164.896 158.598C162.9 158.983 160.721 158.993 159.13 158.993L159.029 158.345Z" fill="#333333"/>
<path fill-rule="evenodd" clip-rule="evenodd" d="M247.587 153.063C247.773 152.877 248.074 152.877 248.259 153.063L252.059 156.863C252.245 157.048 252.245 157.349 252.059 157.535L248.259 161.335C248.074 161.52 247.773 161.52 247.587 161.335C247.402 161.149 247.402 160.848 247.587 160.663L251.051 157.199L247.587 153.735C247.402 153.549 247.402 153.248 247.587 153.063Z" fill="#999999"/>
<g clip-path="url(#clip1_1335_48538)">
<rect width="202.667" height="66.6667" transform="translate(59.8232 180.233)" fill="url(#paint0_linear_1335_48538)"/>
<path d="M59.8232 200.9C59.8232 196.482 63.405 192.9 67.8232 192.9H254.49C258.908 192.9 262.49 196.482 262.49 200.9V218.634C262.49 223.052 258.908 226.634 254.49 226.634H67.8232C63.405 226.634 59.8232 223.052 59.8232 218.634V200.9Z" fill="#FF8120"/>
<path d="M158.53 204.599H159.523V207.254H160.78V208.065H159.523V210.639H158.53V204.599ZM152.45 209.625C153.139 209.625 153.93 209.625 154.75 209.605V208.997C153.747 208.886 153.119 208.419 153.119 207.7C153.119 206.879 153.96 206.372 155.237 206.372C156.524 206.372 157.365 206.879 157.365 207.7C157.365 208.419 156.737 208.886 155.743 208.997V209.564C156.524 209.524 157.314 209.463 158.054 209.362L158.135 210.061C156.23 210.395 154.132 210.406 152.572 210.416L152.45 209.625ZM153.565 211.054H159.523V213.557H158.53V211.834H153.565V211.054ZM152.673 205.339H154.75V204.518H155.743V205.339H157.801V206.079H152.673V205.339ZM155.237 207.031C154.507 207.031 154.061 207.284 154.061 207.7C154.061 208.105 154.507 208.369 155.237 208.369C155.966 208.369 156.422 208.105 156.422 207.7C156.422 207.284 155.966 207.031 155.237 207.031ZM167.762 204.599H168.765V211.095H167.762V204.599ZM162.928 210.446H163.911V212.564H169.018V213.375H162.928V210.446ZM163.921 205.197C165.269 205.197 166.292 206.119 166.292 207.436C166.292 208.723 165.269 209.666 163.921 209.666C162.584 209.666 161.55 208.723 161.55 207.436C161.55 206.119 162.584 205.197 163.921 205.197ZM163.921 206.058C163.131 206.058 162.513 206.606 162.513 207.436C162.513 208.247 163.131 208.794 163.921 208.794C164.722 208.794 165.33 208.247 165.33 207.436C165.33 206.606 164.722 206.058 163.921 206.058Z" fill="white"/>
</g>
</g>
</g>
<rect x="107.627" y="0.501953" width="16.558" height="16.558" rx="8.27899" fill="#333333"/>
<path d="M117.071 4.76719V12.8254L115.746 12.8144V6.22429L114.3 6.88661L113.804 5.67236L115.746 4.76719H117.071Z" fill="white"/>
<path d="M119.586 45.0986C119.586 43.0665 117.938 41.4191 115.906 41.4191C113.874 41.4191 112.227 43.0665 112.227 45.0986C112.227 47.1308 113.874 48.7782 115.906 48.7782C117.938 48.7782 119.586 47.1308 119.586 45.0986ZM115.906 45.0986L116.596 45.0986L116.596 17.06L115.906 17.06L115.216 17.06L115.216 45.0986L115.906 45.0986Z" fill="#333333"/>
<rect y="65.835" width="16.558" height="16.558" rx="8.27899" fill="#333333"/>
<path d="M5.46369 76.8338C7.08638 75.2773 9.2058 74.03 9.2058 72.7164C9.2058 71.756 8.62075 71.3476 7.8922 71.3476C7.41754 71.3476 6.82145 71.5242 6.45717 72.319L5.25396 71.7781C5.88316 70.3762 7.17469 70.0229 7.8922 70.0229C9.13957 70.0229 10.5304 70.9943 10.5304 72.7164C10.5304 74.3832 8.90775 75.6747 7.49481 76.8338H10.6519V78.1584H5.46369V76.8338Z" fill="white"/>
<path d="M55.1934 70.4337C53.1612 70.4337 51.5138 72.0811 51.5138 74.1133C51.5138 76.1454 53.1612 77.7928 55.1934 77.7928C57.2255 77.7928 58.8729 76.1454 58.8729 74.1133C58.8729 72.0811 57.2255 70.4337 55.1934 70.4337ZM55.1934 74.1133V73.4234H16.5581V74.1133V74.8032H55.1934V74.1133Z" fill="#333333"/>
<rect y="90.6719" width="16.558" height="16.558" rx="8.27899" fill="#333333"/>
<path d="M9.55903 98.8227C10.2655 99.2311 10.8174 99.9155 10.8174 100.721C10.8174 102.068 9.71358 103.062 8.02466 103.062C6.34679 103.062 5.25396 102.068 5.25396 100.622H6.5786C6.5786 101.218 6.99807 101.781 8.02466 101.781C9.0623 101.781 9.53696 101.218 9.53696 100.622C9.53696 100.015 9.16164 99.4188 8.04674 99.4188H7.48377V98.2377H8.06882C8.98502 98.2377 9.41553 97.6968 9.41553 97.1559C9.41553 96.6371 9.0071 96.1514 8.10193 96.1514C7.18572 96.1514 6.82145 96.6371 6.82145 97.1669H5.49681C5.49681 95.7981 6.55652 94.8709 8.10193 94.8709C9.62527 94.8709 10.685 95.7981 10.685 97.0676C10.685 97.8072 10.2103 98.4253 9.55903 98.8227Z" fill="white"/>
<path d="M55.1934 95.2706C53.1612 95.2706 51.5138 96.918 51.5138 98.9502C51.5138 100.982 53.1612 102.63 55.1934 102.63C57.2255 102.63 58.8729 100.982 58.8729 98.9502C58.8729 96.918 57.2255 95.2706 55.1934 95.2706ZM55.1934 98.9502V98.2603H16.5581V98.9502V99.6401H55.1934V98.9502Z" fill="#333333"/>
<rect y="150" width="16.558" height="16.558" rx="8.27899" fill="#333333"/>
<path d="M10.122 154.265V159.177H11.0713V160.48H10.122V162.323H8.80841V160.48H5.25396V159.177L8.8636 154.265H10.122ZM6.79937 159.177H8.80841V156.44L6.79937 159.177Z" fill="white"/>
<path d="M55.1934 154.6C53.1612 154.6 51.5138 156.247 51.5138 158.279C51.5138 160.311 53.1612 161.959 55.1934 161.959C57.2255 161.959 58.8729 160.311 58.8729 158.279C58.8729 156.247 57.2255 154.6 55.1934 154.6ZM55.1934 158.279V157.589H16.5581V158.279V158.969H55.1934V158.279Z" fill="#333333"/>
<rect x="290.664" y="64" width="16.558" height="16.558" rx="8.27899" fill="#333333"/>
<path d="M297.53 72.8021L296.205 72.7469L296.382 68.2652H300.907V69.5899H297.651L297.596 71.1905C297.938 71.047 298.313 70.9697 298.7 70.9697C300.201 70.9697 301.57 72.0956 301.57 73.6963C301.57 75.2196 300.179 76.4338 298.7 76.4338C297.441 76.4338 296.216 75.5397 295.918 74.2813L297.21 73.9833C297.375 74.6787 297.949 75.1092 298.7 75.1092C299.594 75.1092 300.245 74.5242 300.245 73.6963C300.245 72.8132 299.627 72.2943 298.7 72.2943C298.192 72.2943 297.85 72.4489 297.53 72.8021Z" fill="white"/>
<path d="M263.067 75.9588C265.1 75.9588 266.747 74.3115 266.747 72.2793C266.747 70.2471 265.1 68.5997 263.067 68.5997C261.035 68.5997 259.388 70.2471 259.388 72.2793C259.388 74.3115 261.035 75.9588 263.067 75.9588ZM263.067 72.2793L263.067 72.9692L291.106 72.9692L291.106 72.2793L291.106 71.5894L263.067 71.5894L263.067 72.2793Z" fill="#333333"/>
<rect x="288.631" y="201" width="16.558" height="16.558" rx="8.27899" fill="#333333"/>
<path d="M296.711 212.076C297.616 212.076 298.245 211.557 298.245 210.696C298.245 209.879 297.605 209.305 296.711 209.305C295.828 209.305 295.209 209.879 295.209 210.696C295.209 211.557 295.806 212.076 296.711 212.076ZM293.885 210.696C293.885 210.266 293.995 209.857 294.194 209.493H294.183L296.578 205.232H298.091L296.534 207.992C296.6 207.981 296.656 207.981 296.722 207.981C298.19 207.981 299.57 209.184 299.57 210.696C299.57 212.275 298.201 213.401 296.722 213.401C295.254 213.401 293.885 212.275 293.885 210.696Z" fill="white"/>
<path d="M261.034 212.959C263.066 212.959 264.714 211.311 264.714 209.279C264.714 207.247 263.066 205.6 261.034 205.6C259.002 205.6 257.355 207.247 257.355 209.279C257.355 211.311 259.002 212.959 261.034 212.959ZM261.034 209.279L261.034 209.969L289.073 209.969L289.073 209.279L289.073 208.589L261.034 208.589L261.034 209.279Z" fill="#333333"/>
<defs>
<filter id="filter0_dd_1335_48538" x="37.0229" y="36.9333" width="248.267" height="225.167" filterUnits="userSpaceOnUse" color-interpolation-filters="sRGB">
<feFlood flood-opacity="0" result="BackgroundImageFix"/>
<feColorMatrix in="SourceAlpha" type="matrix" values="0 0 0 0 0 0 0 0 0 0 0 0 0 0 0 0 0 0 127 0" result="hardAlpha"/>
<feOffset/>
<feGaussianBlur stdDeviation="2.53333"/>
<feComposite in2="hardAlpha" operator="out"/>
<feColorMatrix type="matrix" values="0 0 0 0 0 0 0 0 0 0 0 0 0 0 0 0 0 0 0.12 0"/>
<feBlend mode="normal" in2="BackgroundImageFix" result="effect1_dropShadow_1335_48538"/>
<feColorMatrix in="SourceAlpha" type="matrix" values="0 0 0 0 0 0 0 0 0 0 0 0 0 0 0 0 0 0 127 0" result="hardAlpha"/>
<feOffset dy="5.06667"/>
<feGaussianBlur stdDeviation="5.06667"/>
<feComposite in2="hardAlpha" operator="out"/>
<feColorMatrix type="matrix" values="0 0 0 0 0 0 0 0 0 0 0 0 0 0 0 0 0 0 0.12 0"/>
<feBlend mode="normal" in2="effect1_dropShadow_1335_48538" result="effect2_dropShadow_1335_48538"/>
<feBlend mode="normal" in="SourceGraphic" in2="effect2_dropShadow_1335_48538" result="shape"/>
</filter>
<linearGradient id="paint0_linear_1335_48538" x1="101.333" y1="-2.08333" x2="101.333" y2="52.7778" gradientUnits="userSpaceOnUse">
<stop stop-color="white" stop-opacity="0"/>
<stop offset="0.136083" stop-color="white" stop-opacity="0.8"/>
<stop offset="1" stop-color="white"/>
</linearGradient>
<clipPath id="clip0_1335_48538">
<path d="M47.1562 64C47.1562 51.8497 57.006 42 69.1563 42H253.156C265.307 42 275.156 51.8497 275.156 64V246.9H47.1562V64Z" fill="white"/>
</clipPath>
<clipPath id="clip1_1335_48538">
<rect width="202.667" height="66.6667" fill="white" transform="translate(59.8232 180.233)"/>
</clipPath>
</defs>
</svg>
