<svg width="221" height="104" viewBox="0 0 221 104" fill="none" xmlns="http://www.w3.org/2000/svg">
<rect x="1.62063" y="1.61087" width="180.758" height="56.5731" rx="6.20924" stroke="#E0E0E0" stroke-width="1.37983"/>
<mask id="path-2-inside-1_1101_61650" fill="white">
<path d="M2.31055 7.82011C2.31055 4.77187 4.78163 2.30078 7.82987 2.30078H63.0232V57.4941H7.82987C4.78163 57.4941 2.31055 55.023 2.31055 51.9747V7.82011Z"/>
</mask>
<path d="M2.31055 7.82011C2.31055 4.77187 4.78163 2.30078 7.82987 2.30078H63.0232V57.4941H7.82987C4.78163 57.4941 2.31055 55.023 2.31055 51.9747V7.82011Z" fill="white"/>
<path d="M2.31055 2.30078H63.0232H2.31055ZM63.0232 57.4941H2.31055H63.0232ZM2.31055 57.4941V2.30078V57.4941ZM64.403 2.30078V57.4941H61.6433V2.30078H64.403Z" fill="#E0E0E0" mask="url(#path-2-inside-1_1101_61650)"/>
<path d="M41.6289 29.0518C42.1507 29.1048 42.5576 29.5453 42.5576 30.0811C42.5574 30.6166 42.1505 31.0573 41.6289 31.1104L41.5225 31.1162H24.1738C23.6025 31.1161 23.1389 30.6524 23.1387 30.0811C23.1387 29.5096 23.6024 29.046 24.1738 29.0459H41.5225L41.6289 29.0518Z" fill="#333333"/>
<mask id="path-5-inside-2_1101_61650" fill="white">
<path d="M63.0234 2.30078H120.976V57.4941H63.0234V2.30078Z"/>
</mask>
<path d="M63.0234 2.30078H120.976V57.4941H63.0234V2.30078Z" fill="white"/>
<path d="M120.976 2.30078H119.597V57.4941H120.976H122.356V2.30078H120.976Z" fill="#E0E0E0" mask="url(#path-5-inside-2_1101_61650)"/>
<path d="M86.8246 35.6677C90.0258 32.5768 94.4634 29.6847 94.4634 26.9471C94.4634 24.9381 93.1829 24.0329 91.6596 24.0329C90.5999 24.0329 89.3635 24.4082 88.6129 26.0861L86.5156 25.1589C87.7298 22.4213 90.1804 21.7369 91.6596 21.7369C94.1102 21.7369 96.7594 23.6355 96.7594 26.9471C96.7594 30.3029 93.2271 33.1508 90.2908 35.6677H97.0023V37.9637H86.8246V35.6677Z" fill="#1A1A1A"/>
<path d="M176.17 2.30078C179.218 2.30082 181.689 4.7721 181.689 7.82031V51.9746C181.689 55.0228 179.218 57.4941 176.17 57.4941H120.977V2.30078H176.17Z" fill="white"/>
<path d="M176.17 2.30078C179.218 2.30082 181.689 4.7721 181.689 7.82031V51.9746C181.689 55.0228 179.218 57.4941 176.17 57.4941H120.977V2.30078H176.17Z" stroke="#E0E0E0"/>
<path d="M151.519 20.3721C152.09 20.3721 152.554 20.8357 152.554 21.4072V29.0469H160.192L160.299 29.0527C160.82 29.106 161.228 29.5464 161.228 30.082C161.228 30.6177 160.82 31.0581 160.299 31.1113L160.192 31.1172H152.554V38.7559L152.548 38.8623C152.495 39.3839 152.054 39.791 151.519 39.791C150.983 39.791 150.543 39.3839 150.489 38.8623L150.483 38.7559V31.1172H142.844C142.272 31.1172 141.809 30.6536 141.809 30.082C141.809 29.5105 142.272 29.0469 142.844 29.0469H150.483V21.4072C150.483 20.8357 150.947 20.3721 151.519 20.3721Z" fill="#333333"/>
<path d="M181.377 74.75L1.9988 74.75" stroke="black" stroke-width="1.10387"/>
<path d="M2 71.9902V77.5096" stroke="black" stroke-width="1.10387"/>
<path d="M181.377 71.9902V77.5096" stroke="black" stroke-width="1.10387"/>
<rect x="60.7793" y="80.8213" width="61.8165" height="22.9052" rx="4.41546" fill="#333333"/>
<path d="M85.4151 87.2949V96.2859H84.3223V88.5616L82.9314 89.3812L82.4099 88.425L84.3223 87.2949H85.4151ZM91.7601 91.6413C92.5052 92.0884 93.1261 92.8459 93.1261 93.7525C93.1261 95.2551 91.8098 96.3604 90.1581 96.3604C88.5189 96.3604 87.1901 95.2551 87.1901 93.7152H88.2829C88.2829 94.4976 88.9784 95.28 90.1581 95.28C91.3379 95.28 92.0581 94.51 92.0581 93.7152C92.0581 92.9329 91.549 92.1505 90.183 92.1505H89.5248V91.1073H90.183C91.3503 91.1073 91.9215 90.4243 91.9215 89.6916C91.9215 88.9962 91.2882 88.2883 90.2326 88.2883C89.1646 88.2883 88.5437 88.9838 88.5437 89.7041H87.4509C87.4509 88.2635 88.7052 87.2204 90.2326 87.2204C91.7601 87.2204 93.002 88.2635 93.002 89.6668C93.002 90.4988 92.4431 91.1943 91.7601 91.6413ZM97.5995 95.28C98.9655 95.28 99.7852 94.1871 99.7852 91.7904C99.7852 89.3812 98.978 88.3008 97.5995 88.3008C96.2211 88.3008 95.4014 89.3812 95.4014 91.7904C95.4014 94.1871 96.2211 95.28 97.5995 95.28ZM94.3086 91.7904C94.3086 88.9217 95.6125 87.2079 97.5995 87.2079C99.574 87.2079 100.878 88.9093 100.878 91.7904C100.878 94.6466 99.5865 96.3728 97.5995 96.3728C95.6125 96.3728 94.3086 94.6466 94.3086 91.7904Z" fill="white"/>
<path d="M189.656 8.51758V65.0907" stroke="black" stroke-width="1.10387"/>
<path d="M186.896 65.0908L192.416 65.0908" stroke="black" stroke-width="1.10387"/>
<path d="M186.896 8.51758L192.416 8.51758" stroke="black" stroke-width="1.10387"/>
<rect x="195.727" y="24.8037" width="24.285" height="24" rx="4.41546" fill="#333333"/>
<path d="M205.594 31.8251V37.4259H206.836V38.4939H205.594V40.8161H204.501V38.4939H200.465V37.4259L204.538 31.8251H205.594ZM201.782 37.4259H204.501V33.6755L201.782 37.4259ZM211.311 39.8102C212.677 39.8102 213.497 38.7174 213.497 36.3206C213.497 33.9115 212.69 32.831 211.311 32.831C209.933 32.831 209.113 33.9115 209.113 36.3206C209.113 38.7174 209.933 39.8102 211.311 39.8102ZM208.02 36.3206C208.02 33.452 209.324 31.7382 211.311 31.7382C213.286 31.7382 214.59 33.4395 214.59 36.3206C214.59 39.1769 213.298 40.9031 211.311 40.9031C209.324 40.9031 208.02 39.1769 208.02 36.3206Z" fill="white"/>
</svg>
