<svg width="337" height="159" viewBox="0 0 337 159" fill="none" xmlns="http://www.w3.org/2000/svg">
<g opacity="0.6">
<path d="M53 88C53 83.5817 56.5817 80 61 80H254C258.418 80 262 83.5817 262 88V149C262 153.418 258.418 157 254 157H61C56.5817 157 53 153.418 53 149V88Z" fill="#FF8120"/>
<path fill-rule="evenodd" clip-rule="evenodd" d="M91.5017 104.702C89.2035 104.702 86.9994 105.615 85.3743 107.24C83.7492 108.865 82.8363 111.069 82.8363 113.368C82.8363 117.719 81.9051 120.446 81.0282 122.054C80.5884 122.86 80.1569 123.394 79.8506 123.718C79.6972 123.88 79.5744 123.989 79.4969 124.054C79.4581 124.086 79.4305 124.108 79.4161 124.118L79.405 124.126C79.0581 124.363 78.9043 124.798 79.0262 125.201C79.1492 125.607 79.5235 125.885 79.9478 125.885H103.056C103.48 125.885 103.854 125.607 103.977 125.201C104.099 124.798 103.945 124.363 103.599 124.126L103.587 124.118C103.573 124.108 103.545 124.086 103.507 124.054C103.429 123.989 103.306 123.88 103.153 123.718C102.847 123.394 102.415 122.86 101.975 122.054C101.098 120.446 100.167 117.719 100.167 113.368C100.167 111.069 99.2543 108.865 97.6292 107.24C96.0041 105.615 93.8 104.702 91.5017 104.702ZM100.285 122.976C100.487 123.345 100.689 123.672 100.886 123.959H82.1171C82.3142 123.672 82.5171 123.345 82.7187 122.976C83.7674 121.053 84.7619 118.003 84.7619 113.368C84.7619 111.58 85.472 109.866 86.736 108.602C87.9999 107.338 89.7143 106.628 91.5017 106.628C93.2893 106.628 95.0036 107.338 96.2675 108.602C97.5315 109.866 98.2415 111.58 98.2415 113.368C98.2415 118.003 99.2361 121.053 100.285 122.976ZM90.1136 129.574C89.8469 129.114 89.2577 128.957 88.7977 129.224C88.3377 129.491 88.1812 130.08 88.448 130.54C88.7584 131.075 89.2038 131.519 89.7397 131.828C90.2756 132.136 90.8833 132.299 91.5017 132.299C92.1202 132.299 92.7279 132.136 93.2638 131.828C93.7997 131.519 94.2453 131.075 94.5556 130.54C94.8223 130.08 94.6658 129.491 94.2058 129.224C93.7459 128.957 93.1567 129.114 92.8898 129.574C92.7488 129.817 92.5463 130.019 92.3027 130.159C92.0591 130.299 91.7829 130.373 91.5017 130.373C91.2207 130.373 90.9444 130.299 90.7009 130.159C90.4572 130.019 90.2548 129.817 90.1136 129.574Z" fill="white"/>
<path d="M127.022 125.14C129.382 125.14 130.698 123.526 130.698 121.266C130.698 119.031 129.382 117.391 127.022 117.391C125.06 117.391 123.297 118.931 123.297 121.266C123.297 123.625 125.06 125.14 127.022 125.14ZM120.714 127.5V108.872H123.297V117.068C124.39 115.429 125.979 114.858 127.221 114.858C131.12 114.858 133.281 117.814 133.281 121.266C133.281 124.743 131.096 127.699 127.196 127.699C125.979 127.699 124.439 127.276 123.297 125.463V127.5H120.714ZM138.321 121.912C138.321 123.799 139.464 125.14 141.5 125.14C143.537 125.14 144.853 123.526 144.829 121.787V114.659H147.412V127.674H144.829V125.737C143.934 127.053 142.817 127.674 141.178 127.674C138.371 127.674 135.738 125.637 135.738 122.036V114.709H138.321V121.912ZM157.977 127.351C157.455 127.475 156.362 127.674 155.493 127.624C153.556 127.525 151.718 125.861 151.718 123.7V117.118H149.507V114.585H151.718V110.189H154.301V114.585H157.654V117.118H154.301V123.7C154.301 124.544 154.822 125.016 155.667 125.041C156.238 125.066 156.958 124.942 157.405 124.842L157.977 127.351ZM166.817 127.351C166.295 127.475 165.202 127.674 164.333 127.624C162.396 127.525 160.558 125.861 160.558 123.7V117.118H158.347V114.585H160.558V110.189H163.141V114.585H166.494V117.118H163.141V123.7C163.141 124.544 163.662 125.016 164.507 125.041C165.078 125.066 165.798 124.942 166.245 124.842L166.817 127.351ZM174.061 125.215C176.395 125.215 177.761 123.526 177.761 121.216C177.761 118.882 176.395 117.193 174.061 117.193C171.726 117.193 170.385 118.882 170.385 121.216C170.385 123.526 171.726 125.215 174.061 125.215ZM167.802 121.216C167.802 117.665 170.186 114.634 174.061 114.634C178.035 114.634 180.344 117.665 180.344 121.216C180.344 124.743 178.035 127.773 174.061 127.773C170.186 127.773 167.802 124.743 167.802 121.216ZM191.637 120.471C191.637 118.509 190.52 117.267 188.483 117.267C186.57 117.267 185.105 118.882 185.13 120.62V127.674H182.547V114.709H185.13V116.77C185.999 115.529 187.142 114.709 188.781 114.709C191.314 114.709 194.22 116.646 194.22 120.372V127.674H191.637V120.471Z" fill="white"/>
<path d="M223.78 108.975C224.351 108.975 224.815 109.438 224.815 110.01V117.649H232.455L232.561 117.655C233.083 117.708 233.49 118.149 233.49 118.685C233.49 119.22 233.083 119.661 232.561 119.714L232.455 119.72H224.815V127.358L224.809 127.465C224.756 127.986 224.315 128.394 223.78 128.394C223.244 128.393 222.804 127.986 222.75 127.465L222.745 127.358V119.72H215.106C214.534 119.72 214.071 119.256 214.071 118.685C214.071 118.113 214.534 117.649 215.106 117.649H222.745V110.01C222.745 109.438 223.208 108.975 223.78 108.975Z" fill="white"/>
</g>
<rect x="51.3101" y="80.3101" width="210.38" height="77.3798" stroke="#0D69D4" stroke-width="1.37983"/>
<rect x="107" y="100" width="11" height="37" fill="#C54600" fill-opacity="0.3"/>
<line x1="107.69" y1="59" x2="107.69" y2="157" stroke="#C54600" stroke-width="1.37983"/>
<line x1="116.69" y1="59" x2="116.69" y2="157" stroke="#C54600" stroke-width="1.37983"/>
<rect x="103" y="34" width="18" height="19" rx="5.51933" fill="#C54600"/>
<path d="M111.818 49.1509C111.078 49.1509 110.424 49.0198 109.856 48.7575C109.292 48.4915 108.852 48.1268 108.535 47.6633C108.219 47.1962 108.063 46.6643 108.066 46.0679C108.063 45.6007 108.155 45.1695 108.341 44.7743C108.528 44.3754 108.783 44.043 109.107 43.7771C109.434 43.5076 109.798 43.3369 110.201 43.2651V43.2004C109.673 43.0638 109.252 42.7674 108.94 42.311C108.627 41.8511 108.473 41.3283 108.476 40.7426C108.473 40.182 108.614 39.6807 108.902 39.2388C109.189 38.7968 109.585 38.4482 110.088 38.1931C110.594 37.938 111.171 37.8104 111.818 37.8104C112.458 37.8104 113.029 37.938 113.532 38.1931C114.035 38.4482 114.43 38.7968 114.718 39.2388C115.009 39.6807 115.156 40.182 115.16 40.7426C115.156 41.3283 114.996 41.8511 114.68 42.311C114.367 42.7674 113.952 43.0638 113.435 43.2004V43.2651C113.834 43.3369 114.193 43.5076 114.513 43.7771C114.833 44.043 115.088 44.3754 115.278 44.7743C115.469 45.1695 115.566 45.6007 115.569 46.0679C115.566 46.6643 115.404 47.1962 115.084 47.6633C114.768 48.1268 114.328 48.4915 113.764 48.7575C113.203 49.0198 112.555 49.1509 111.818 49.1509ZM111.818 47.9651C112.317 47.9651 112.749 47.8843 113.111 47.7226C113.474 47.5609 113.755 47.3327 113.952 47.0381C114.15 46.7434 114.251 46.3984 114.254 46.0032C114.251 45.5864 114.143 45.218 113.931 44.8982C113.719 44.5784 113.429 44.3269 113.063 44.1436C112.7 43.9604 112.285 43.8687 111.818 43.8687C111.347 43.8687 110.927 43.9604 110.557 44.1436C110.19 44.3269 109.901 44.5784 109.689 44.8982C109.48 45.218 109.378 45.5864 109.382 46.0032C109.378 46.3984 109.473 46.7434 109.667 47.0381C109.865 47.3327 110.147 47.5609 110.514 47.7226C110.88 47.8843 111.315 47.9651 111.818 47.9651ZM111.818 42.7261C112.213 42.7261 112.564 42.647 112.869 42.4889C113.178 42.3308 113.421 42.1098 113.597 41.826C113.773 41.5421 113.862 41.2097 113.866 40.8288C113.862 40.4551 113.774 40.1299 113.602 39.8532C113.429 39.5729 113.191 39.3573 112.885 39.2064C112.58 39.0519 112.224 38.9747 111.818 38.9747C111.405 38.9747 111.044 39.0519 110.735 39.2064C110.425 39.3573 110.187 39.5729 110.018 39.8532C109.849 40.1299 109.766 40.4551 109.77 40.8288C109.766 41.2097 109.851 41.5421 110.023 41.826C110.199 42.1098 110.442 42.3308 110.751 42.4889C111.06 42.647 111.415 42.7261 111.818 42.7261Z" fill="white"/>
<rect x="74" y="103" width="33" height="33" fill="#0D69D4" fill-opacity="0.2"/>
<rect x="196" y="100" width="11" height="37" fill="#C54600" fill-opacity="0.3"/>
<line x1="196.69" y1="59" x2="196.69" y2="157" stroke="#C54600" stroke-width="1.37983"/>
<line x1="205.69" y1="59" x2="205.69" y2="157" stroke="#C54600" stroke-width="1.37983"/>
<rect x="192" y="34" width="18" height="19" rx="5.51933" fill="#C54600"/>
<path d="M200.818 49.1509C200.078 49.1509 199.424 49.0198 198.856 48.7575C198.292 48.4915 197.852 48.1268 197.535 47.6633C197.219 47.1962 197.063 46.6643 197.066 46.0679C197.063 45.6007 197.155 45.1695 197.341 44.7743C197.528 44.3754 197.783 44.043 198.107 43.7771C198.434 43.5076 198.798 43.3369 199.201 43.2651V43.2004C198.673 43.0638 198.252 42.7674 197.94 42.311C197.627 41.8511 197.473 41.3283 197.476 40.7426C197.473 40.182 197.614 39.6807 197.902 39.2388C198.189 38.7968 198.585 38.4482 199.088 38.1931C199.594 37.938 200.171 37.8104 200.818 37.8104C201.458 37.8104 202.029 37.938 202.532 38.1931C203.035 38.4482 203.43 38.7968 203.718 39.2388C204.009 39.6807 204.156 40.182 204.16 40.7426C204.156 41.3283 203.996 41.8511 203.68 42.311C203.367 42.7674 202.952 43.0638 202.435 43.2004V43.2651C202.834 43.3369 203.193 43.5076 203.513 43.7771C203.833 44.043 204.088 44.3754 204.278 44.7743C204.469 45.1695 204.566 45.6007 204.569 46.0679C204.566 46.6643 204.404 47.1962 204.084 47.6633C203.768 48.1268 203.328 48.4915 202.764 48.7575C202.203 49.0198 201.555 49.1509 200.818 49.1509ZM200.818 47.9651C201.317 47.9651 201.749 47.8843 202.111 47.7226C202.474 47.5609 202.755 47.3327 202.952 47.0381C203.15 46.7434 203.251 46.3984 203.254 46.0032C203.251 45.5864 203.143 45.218 202.931 44.8982C202.719 44.5784 202.429 44.3269 202.063 44.1436C201.7 43.9604 201.285 43.8687 200.818 43.8687C200.347 43.8687 199.927 43.9604 199.557 44.1436C199.19 44.3269 198.901 44.5784 198.689 44.8982C198.48 45.218 198.378 45.5864 198.382 46.0032C198.378 46.3984 198.473 46.7434 198.667 47.0381C198.865 47.3327 199.147 47.5609 199.514 47.7226C199.88 47.8843 200.315 47.9651 200.818 47.9651ZM200.818 42.7261C201.213 42.7261 201.564 42.647 201.869 42.4889C202.178 42.3308 202.421 42.1098 202.597 41.826C202.773 41.5421 202.862 41.2097 202.866 40.8288C202.862 40.4551 202.774 40.1299 202.602 39.8532C202.429 39.5729 202.191 39.3573 201.885 39.2064C201.58 39.0519 201.224 38.9747 200.818 38.9747C200.405 38.9747 200.044 39.0519 199.735 39.2064C199.425 39.3573 199.187 39.5729 199.018 39.8532C198.849 40.1299 198.766 40.4551 198.77 40.8288C198.766 41.2097 198.851 41.5421 199.023 41.826C199.199 42.1098 199.442 42.3308 199.751 42.4889C200.06 42.647 200.415 42.7261 200.818 42.7261Z" fill="white"/>
<rect x="118" y="100" width="77" height="37" fill="#0D69D4" fill-opacity="0.2"/>
<rect x="206" y="103" width="33" height="33" fill="#0D69D4" fill-opacity="0.2"/>
<rect x="52" y="81" width="210" height="19" fill="#007D00" fill-opacity="0.3"/>
<line x1="30" y1="81.3101" x2="262" y2="81.3101" stroke="#007D00" stroke-width="1.37983"/>
<line x1="30" y1="99.3101" x2="262" y2="99.3101" stroke="#007D00" stroke-width="1.37983"/>
<rect y="81" width="25" height="19" rx="5.51933" fill="#007D00"/>
<path d="M9.16285 84.9613V96H7.82614V86.3627H7.76146L5.06648 88.1522V86.7939L7.82614 84.9613H9.16285ZM12.0788 93.7362V92.6367L16.9298 84.9613H17.7275V86.6646H17.1885L13.5233 92.4642V92.5504H20.056V93.7362H12.0788ZM17.2748 96V93.402V92.89V84.9613H18.5468V96H17.2748Z" fill="white"/>
<rect x="52" y="138" width="210" height="19" fill="#007D00" fill-opacity="0.3"/>
<line x1="30" y1="138.31" x2="262" y2="138.31" stroke="#007D00" stroke-width="1.37983"/>
<line x1="30" y1="156.31" x2="262" y2="156.31" stroke="#007D00" stroke-width="1.37983"/>
<rect y="138" width="25" height="19" rx="5.51933" fill="#007D00"/>
<path d="M9.16285 141.961V153H7.82614V143.363H7.76146L5.06648 145.152V143.794L7.82614 141.961H9.16285ZM12.0788 150.736V149.637L16.9298 141.961H17.7275V143.665H17.1885L13.5233 149.464V149.55H20.056V150.736H12.0788ZM17.2748 153V150.402V149.89V141.961H18.5468V153H17.2748Z" fill="white"/>
<rect x="52" y="100" width="22" height="37" fill="#007D00" fill-opacity="0.3"/>
<line x1="52.6899" y1="59" x2="52.6899" y2="157" stroke="#007D00" stroke-width="1.37983"/>
<line x1="72.6899" y1="59" x2="72.6899" y2="157" stroke="#007D00" stroke-width="1.37983"/>
<rect x="50" y="34" width="25" height="19" rx="5.51933" fill="#007D00"/>
<path d="M59.1629 37.9613V49H57.8261V39.3627H57.7615L55.0665 41.1522V39.7939L57.8261 37.9613H59.1629ZM66.0027 49.1509C65.55 49.1437 65.0972 49.0575 64.6445 48.8922C64.1917 48.7269 63.7785 48.4484 63.4048 48.0568C63.0311 47.6615 62.731 47.1279 62.5046 46.4559C62.2783 45.7804 62.1651 44.9324 62.1651 43.9119C62.1651 42.9345 62.2567 42.0685 62.44 41.3139C62.6232 40.5557 62.8891 39.9179 63.2377 39.4005C63.5862 38.8794 64.0066 38.4842 64.4989 38.2147C64.9948 37.9452 65.5536 37.8104 66.1752 37.8104C66.7933 37.8104 67.343 37.9344 67.8245 38.1823C68.3096 38.4267 68.7049 38.768 69.0103 39.2064C69.3158 39.6448 69.5134 40.1497 69.6032 40.721H68.2881C68.1659 40.2251 67.9287 39.8137 67.5766 39.4867C67.2245 39.1597 66.7573 38.9962 66.1752 38.9962C65.32 38.9962 64.6462 39.3681 64.154 40.1119C63.6653 40.8558 63.4191 41.8996 63.4155 43.2435H63.5018C63.703 42.9381 63.942 42.6776 64.2186 42.462C64.4989 42.2428 64.8079 42.0739 65.1457 41.9553C65.4835 41.8367 65.841 41.7774 66.2183 41.7774C66.8507 41.7774 67.4293 41.9355 67.9539 42.2518C68.4785 42.5644 68.8989 42.9974 69.2151 43.5507C69.5314 44.1005 69.6895 44.7311 69.6895 45.4426C69.6895 46.1254 69.5367 46.7506 69.2313 47.3183C68.9259 47.8825 68.4965 48.3316 67.9431 48.6658C67.3933 48.9964 66.7465 49.1581 66.0027 49.1509ZM66.0027 47.9651C66.4555 47.9651 66.8615 47.8519 67.2209 47.6256C67.5838 47.3992 67.8695 47.0955 68.0779 46.7147C68.2899 46.3338 68.3959 45.9098 68.3959 45.4426C68.3959 44.9863 68.2935 44.5712 68.0886 44.1975C67.8874 43.8202 67.6089 43.5202 67.2532 43.2974C66.9011 43.0746 66.4986 42.9632 66.0458 42.9632C65.7045 42.9632 65.3865 43.0315 65.0918 43.1681C64.7972 43.301 64.5384 43.4843 64.3157 43.7178C64.0965 43.9514 63.924 44.2191 63.7982 44.5209C63.6725 44.8192 63.6096 45.1336 63.6096 45.4642C63.6096 45.9026 63.712 46.3122 63.9168 46.6931C64.1252 47.074 64.4091 47.3812 64.7684 47.6148C65.1313 47.8483 65.5428 47.9651 66.0027 47.9651Z" fill="white"/>
<rect x="240" y="100" width="22" height="37" fill="#007D00" fill-opacity="0.3"/>
<line x1="240.69" y1="59" x2="240.69" y2="157" stroke="#007D00" stroke-width="1.37983"/>
<line x1="260.69" y1="59" x2="260.69" y2="157" stroke="#007D00" stroke-width="1.37983"/>
<rect x="238" y="34" width="25" height="19" rx="5.51933" fill="#007D00"/>
<path d="M247.163 37.9613V49H245.826V39.3627H245.761L243.066 41.1522V39.7939L245.826 37.9613H247.163ZM254.003 49.1509C253.55 49.1437 253.097 49.0575 252.644 48.8922C252.192 48.7269 251.778 48.4484 251.405 48.0568C251.031 47.6615 250.731 47.1279 250.505 46.4559C250.278 45.7804 250.165 44.9324 250.165 43.9119C250.165 42.9345 250.257 42.0685 250.44 41.3139C250.623 40.5557 250.889 39.9179 251.238 39.4005C251.586 38.8794 252.007 38.4842 252.499 38.2147C252.995 37.9452 253.554 37.8104 254.175 37.8104C254.793 37.8104 255.343 37.9344 255.825 38.1823C256.31 38.4267 256.705 38.768 257.01 39.2064C257.316 39.6448 257.513 40.1497 257.603 40.721H256.288C256.166 40.2251 255.929 39.8137 255.577 39.4867C255.224 39.1597 254.757 38.9962 254.175 38.9962C253.32 38.9962 252.646 39.3681 252.154 40.1119C251.665 40.8558 251.419 41.8996 251.416 43.2435H251.502C251.703 42.9381 251.942 42.6776 252.219 42.462C252.499 42.2428 252.808 42.0739 253.146 41.9553C253.483 41.8367 253.841 41.7774 254.218 41.7774C254.851 41.7774 255.429 41.9355 255.954 42.2518C256.479 42.5644 256.899 42.9974 257.215 43.5507C257.531 44.1005 257.689 44.7311 257.689 45.4426C257.689 46.1254 257.537 46.7506 257.231 47.3183C256.926 47.8825 256.496 48.3316 255.943 48.6658C255.393 48.9964 254.747 49.1581 254.003 49.1509ZM254.003 47.9651C254.455 47.9651 254.862 47.8519 255.221 47.6256C255.584 47.3992 255.869 47.0955 256.078 46.7147C256.29 46.3338 256.396 45.9098 256.396 45.4426C256.396 44.9863 256.293 44.5712 256.089 44.1975C255.887 43.8202 255.609 43.5202 255.253 43.2974C254.901 43.0746 254.499 42.9632 254.046 42.9632C253.704 42.9632 253.386 43.0315 253.092 43.1681C252.797 43.301 252.538 43.4843 252.316 43.7178C252.096 43.9514 251.924 44.2191 251.798 44.5209C251.672 44.8192 251.61 45.1336 251.61 45.4642C251.61 45.9026 251.712 46.3122 251.917 46.6931C252.125 47.074 252.409 47.3812 252.768 47.6148C253.131 47.8483 253.543 47.9651 254.003 47.9651Z" fill="white"/>
<rect x="64" width="54" height="29" rx="5.51933" fill="#333333"/>
<path d="M74.9049 10.0238V20.0138H73.6907V11.4312L72.1453 12.3419L71.5657 11.2795L73.6907 10.0238H74.9049ZM80.2301 18.9099C81.4858 18.9099 82.4102 18.0544 82.4102 16.8126C82.4102 15.5983 81.4858 14.7152 80.2301 14.7152C78.9883 14.7152 78.0914 15.5983 78.0914 16.8126C78.0914 18.0544 78.9745 18.9099 80.2301 18.9099ZM76.8771 16.8126C76.8771 16.1641 77.0703 15.5569 77.4014 15.0464L80.2715 10.01H81.6651L79.6368 13.5562C79.8438 13.5148 80.0507 13.501 80.2577 13.501C82.0653 13.501 83.6245 14.9774 83.6245 16.8126C83.6245 18.6754 82.0791 20.1242 80.2577 20.1242C78.4501 20.1242 76.8771 18.6754 76.8771 16.8126ZM85.3484 14.9498C85.9004 13.6252 87.1284 13.3354 87.7079 13.363C88.4668 13.4182 88.9222 13.7356 89.0464 13.8184L90.2192 14.5497C90.3986 14.6601 90.5504 14.798 90.9367 14.8118C91.2817 14.8256 91.806 14.7152 92.082 13.9977L93.2549 14.4531C92.7443 15.7915 91.4749 16.0951 90.8677 16.0675C90.1364 16.0261 89.6673 15.6811 89.5569 15.6121L88.384 14.8808C88.1909 14.7704 88.0529 14.6463 87.6389 14.6187C87.3078 14.6049 86.7972 14.729 86.5075 15.4328L85.3484 14.9498ZM95.1251 18.8133C97.1258 16.8816 99.9959 14.8256 99.9959 13.0732C99.9959 11.7486 99.1542 11.1139 98.1331 11.1139C97.4156 11.1139 96.6153 11.3623 96.1185 12.4799L95.0147 11.997C95.746 10.3274 97.1948 9.89963 98.1331 9.89963C99.6371 9.89963 101.21 11.0725 101.21 13.0732C101.21 15.143 98.823 17.1299 96.9326 18.8133H101.376V20.0276H95.1251V18.8133ZM108.394 10.0238V16.2469H109.774V17.4335H108.394V20.0138H107.18V17.4335H102.695V16.2469L107.221 10.0238H108.394ZM104.158 16.2469H107.18V12.0798L104.158 16.2469Z" fill="white"/>
<path d="M87.6352 102.03C87.6527 104.062 89.3142 105.695 91.3463 105.678C93.3784 105.66 95.0115 103.999 94.994 101.967C94.9765 99.9345 93.315 98.3013 91.2829 98.3189C89.2508 98.3364 87.6177 99.9979 87.6352 102.03ZM89.9954 29.0069L90.6247 102.004L92.0045 101.992L91.3752 28.995L89.9954 29.0069Z" fill="black"/>
<path d="M87.5 102L94.5 102" stroke="black" stroke-width="1.37983"/>
<path d="M271.5 80V156" stroke="black" stroke-width="1.37983"/>
<path d="M268 156L275 156" stroke="black" stroke-width="1.37983"/>
<path d="M268 80L275 80" stroke="black" stroke-width="1.37983"/>
<rect x="279.139" y="103.5" width="57" height="29" rx="5.51933" fill="#333333"/>
<path d="M291.88 118.353C292.707 118.85 293.397 119.692 293.397 120.699C293.397 122.369 291.935 123.597 290.1 123.597C288.278 123.597 286.802 122.369 286.802 120.658H288.016C288.016 121.527 288.789 122.396 290.1 122.396C291.41 122.396 292.211 121.541 292.211 120.658C292.211 119.788 291.645 118.919 290.127 118.919H289.396V117.76H290.127C291.424 117.76 292.059 117.001 292.059 116.187C292.059 115.414 291.355 114.628 290.182 114.628C288.996 114.628 288.306 115.4 288.306 116.201H287.091C287.091 114.6 288.485 113.441 290.182 113.441C291.88 113.441 293.259 114.6 293.259 116.159C293.259 117.084 292.638 117.856 291.88 118.353ZM298.078 122.41C299.334 122.41 300.258 121.554 300.258 120.313C300.258 119.098 299.334 118.215 298.078 118.215C296.836 118.215 295.939 119.098 295.939 120.313C295.939 121.554 296.822 122.41 298.078 122.41ZM294.725 120.313C294.725 119.664 294.918 119.057 295.249 118.546L298.119 113.51H299.513L297.485 117.056C297.692 117.015 297.899 117.001 298.106 117.001C299.913 117.001 301.472 118.477 301.472 120.313C301.472 122.175 299.927 123.624 298.106 123.624C296.298 123.624 294.725 122.175 294.725 120.313ZM303.196 118.45C303.748 117.125 304.976 116.835 305.556 116.863C306.315 116.918 306.77 117.236 306.894 117.318L308.067 118.05C308.246 118.16 308.398 118.298 308.785 118.312C309.13 118.326 309.654 118.215 309.93 117.498L311.103 117.953C310.592 119.292 309.323 119.595 308.716 119.567C307.984 119.526 307.515 119.181 307.405 119.112L306.232 118.381C306.039 118.27 305.901 118.146 305.487 118.119C305.156 118.105 304.645 118.229 304.355 118.933L303.196 118.45ZM314.505 118.919L313.29 118.878L313.483 113.51H318.782V114.724H314.656L314.56 117.36C315.029 117.111 315.581 116.973 316.147 116.973C317.968 116.973 319.527 118.45 319.527 120.285C319.527 122.189 317.968 123.652 316.147 123.652C314.601 123.652 313.208 122.576 312.863 121.099L314.049 120.823C314.27 121.803 315.07 122.438 316.147 122.438C317.402 122.438 318.313 121.582 318.313 120.285C318.313 119.057 317.416 118.188 316.147 118.188C315.457 118.188 314.932 118.436 314.505 118.919ZM322.522 118.919L321.308 118.878L321.501 113.51H326.8V114.724H322.674L322.577 117.36C323.046 117.111 323.598 116.973 324.164 116.973C325.985 116.973 327.545 118.45 327.545 120.285C327.545 122.189 325.985 123.652 324.164 123.652C322.619 123.652 321.225 122.576 320.88 121.099L322.067 120.823C322.288 121.803 323.088 122.438 324.164 122.438C325.42 122.438 326.33 121.582 326.33 120.285C326.33 119.057 325.434 118.188 324.164 118.188C323.474 118.188 322.95 118.436 322.522 118.919Z" fill="white"/>
</svg>
