<svg width="34" height="34" viewBox="0 0 34 34" fill="none" xmlns="http://www.w3.org/2000/svg">
<g id="icon_default">
<path id="Vector" fill-rule="evenodd" clip-rule="evenodd" d="M12.7604 5.201C12.8693 4.39508 13.5835 3.83398 14.3788 3.83398H19.6283C20.4236 3.83398 21.1378 4.39508 21.2467 5.201L21.6671 8.05855C22.1795 8.29678 22.6653 8.57366 23.1273 8.88522L25.9042 7.79833L25.9195 7.7929C26.6073 7.54915 27.4933 7.76863 27.9134 8.5039L30.5394 12.9316L30.5453 12.9421C30.9185 13.6089 30.782 14.474 30.1336 14.973L30.13 14.9757L27.7918 16.7578C27.8154 17.0219 27.8307 17.2964 27.8307 17.584C27.8307 17.8715 27.8154 18.1461 27.7918 18.4102L30.1336 20.195C30.782 20.6939 30.9185 21.5591 30.5453 22.2259L30.5394 22.2363L27.9134 26.6641C27.5096 27.3707 26.6448 27.652 25.8972 27.3669L25.889 27.3638L23.1227 26.2809C22.6659 26.5862 22.1817 26.8668 21.6673 27.1081L21.2467 29.967C21.1378 30.7729 20.4236 31.334 19.6283 31.334H14.3788C13.5835 31.334 12.8693 30.7729 12.7604 29.967L12.34 27.1094C11.8276 26.8712 11.3418 26.5943 10.8798 26.2827L8.10292 27.3696L8.0876 27.3751C7.39985 27.6188 6.51386 27.3994 6.09374 26.6642L3.46763 22.2363L3.4618 22.2259C3.08861 21.5591 3.22504 20.6939 3.87348 20.195L3.87705 20.1922L6.21564 18.4099C6.19176 18.1422 6.17636 17.8652 6.17636 17.584C6.17636 17.3028 6.19176 17.0258 6.21564 16.758L3.87706 14.9757L3.87348 14.973C3.25389 14.4962 3.04864 13.6278 3.4756 12.9182L6.09372 8.50383C6.49747 7.7973 7.36227 7.51598 8.1099 7.80111L8.11806 7.80422L10.8844 8.88704C11.3412 8.58172 11.8254 8.30119 12.3398 8.05987L12.7604 5.201ZM14.668 5.75259L14.1314 9.39953L13.6103 9.60768C12.9036 9.88992 12.2412 10.2793 11.6096 10.741L11.1664 11.065L7.66204 9.69332L5.32095 13.6406L8.29842 15.9098L8.22921 16.4495C8.17923 16.8391 8.14494 17.2176 8.14494 17.584C8.14494 17.9504 8.17923 18.3288 8.22921 18.7185L8.29842 19.2581L5.32095 21.5274L7.66204 25.4747L11.1737 24.1001L11.6192 24.4341C12.2374 24.8976 12.8967 25.2753 13.6103 25.5603L14.1314 25.7684L14.668 29.4154H19.3391L19.8757 25.7684L20.3968 25.5603C21.1034 25.278 21.7659 24.8886 22.3974 24.427L22.8407 24.103L26.345 25.4747L28.6861 21.5274L25.7087 19.2581L25.7779 18.7185C25.828 18.3279 25.8621 17.9626 25.8621 17.584C25.8621 17.2054 25.828 16.84 25.7779 16.4495L25.7087 15.9098L28.6861 13.6406L26.345 9.69332L22.8333 11.0678L22.3879 10.7339C21.7697 10.2704 21.1104 9.89269 20.3968 9.60768L19.8757 9.39953L19.3391 5.75259H14.668ZM17.0035 14.0665C15.0142 14.0665 13.3945 15.6452 13.3945 17.584C13.3945 19.5228 15.0142 21.1014 17.0035 21.1014C18.9928 21.1014 20.6126 19.5228 20.6126 17.584C20.6126 15.6452 18.9928 14.0665 17.0035 14.0665ZM11.4259 17.584C11.4259 14.5856 13.927 12.1479 17.0035 12.1479C20.08 12.1479 22.5812 14.5856 22.5812 17.584C22.5812 20.5824 20.08 23.02 17.0035 23.02C13.927 23.02 11.4259 20.5824 11.4259 17.584Z" fill="#1A1A1A"/>
</g>
</svg>
