<svg width="85" height="24" viewBox="0 0 85 24" fill="none" xmlns="http://www.w3.org/2000/svg">
<path d="M3.348 6.336V16.48H9.188V18.112H1.684V6.336H3.348ZM11.1285 9.728H12.7925V18.144H11.1285V9.728ZM11.0005 6.72C11.0005 6.192 11.3365 5.776 11.9605 5.776C12.5525 5.776 12.8885 6.192 12.8885 6.72C12.8885 7.248 12.5525 7.664 11.9605 7.664C11.3365 7.664 11.0005 7.248 11.0005 6.72ZM20.6753 13.472C20.6753 12.208 19.9553 11.408 18.6432 11.408C17.4112 11.408 16.4672 12.448 16.4832 13.568V18.112H14.8192V9.76H16.4832V11.088C17.0433 10.288 17.7793 9.76 18.8352 9.76C20.4673 9.76 22.3393 11.008 22.3393 13.408V18.112H20.6753V13.472ZM25.7882 6V13.52L29.0362 9.792H31.2762L28.0282 13.472L31.2442 18.144H29.2282L26.8442 14.688L25.7882 15.952V18.144H24.1242V6H25.7882ZM44.7994 6.336V7.968H41.3594V18.112H39.6954V7.968H36.2394V6.336H44.7994ZM50.749 13.28C50.621 12.176 49.949 11.264 48.541 11.264C47.245 11.264 46.301 11.92 46.109 13.28H50.749ZM44.509 13.952C44.509 11.664 45.933 9.728 48.509 9.728C51.165 9.728 51.917 11.84 51.981 12C52.477 13.296 52.333 14.688 52.333 14.688H46.109C46.365 15.888 47.213 16.624 48.525 16.624C50.141 16.624 50.509 15.728 50.573 15.632L52.029 16.304C52.029 16.304 51.309 18.16 48.509 18.16C45.933 18.16 44.509 16.224 44.509 13.952ZM61.2035 9.76L58.0835 13.936L61.1715 18.112H59.1235L57.1075 15.28L55.1395 18.112H53.0595L56.1155 13.936L53.0115 9.76H55.0915L57.1075 12.656L59.1395 9.76H61.2035ZM67.2066 17.904C66.8706 17.984 66.1666 18.112 65.6066 18.08C64.3586 18.016 63.1746 16.944 63.1746 15.552V11.312H61.7506V9.68H63.1746V6.848H64.8386V9.68H66.9986V11.312H64.8386V15.552C64.8386 16.096 65.1746 16.4 65.7186 16.416C66.0866 16.432 66.5506 16.352 66.8386 16.288L67.2066 17.904Z" fill="#333333"/>
<path d="M0.5 20H68.1506V20.8H0.5V20Z" fill="#333333"/>
<path fill-rule="evenodd" clip-rule="evenodd" d="M74.1464 7.64645C74.3417 7.45118 74.6583 7.45118 74.8536 7.64645L78.8536 11.6464C79.0488 11.8417 79.0488 12.1583 78.8536 12.3536L74.8536 16.3536C74.6583 16.5488 74.3417 16.5488 74.1464 16.3536C73.9512 16.1583 73.9512 15.8417 74.1464 15.6464L77.7929 12L74.1464 8.35355C73.9512 8.15829 73.9512 7.84171 74.1464 7.64645Z" fill="#555555"/>
</svg>
