<svg width="270" height="148" viewBox="0 0 270 148" fill="none" xmlns="http://www.w3.org/2000/svg">
<g filter="url(#filter0_dd_957_52662)">
<rect width="234" height="112" transform="translate(18 16)" fill="white"/>
<path d="M36.0554 31.3937V32.2319H33.3493V40.0391H32.4871V32.2319H29.7929V31.3937H36.0554ZM37.3787 33.9442H38.2408V40.0391H37.3787V33.9442ZM37.2589 31.729C37.2589 31.4297 37.4505 31.1902 37.8097 31.1902C38.157 31.1902 38.3486 31.4297 38.3486 31.729C38.3486 32.0403 38.157 32.2798 37.8097 32.2798C37.4505 32.2798 37.2589 32.0403 37.2589 31.729ZM42.928 39.9073C42.7125 39.9552 42.3892 40.0151 42.0419 40.0151C41.1319 40.0151 40.4015 39.2847 40.4015 38.3866V34.7345H39.4076V33.8963H40.4015V32.0164H41.2636V33.8963H42.6885V34.7345H41.2636V38.3866C41.2636 38.8656 41.551 39.153 42.0419 39.153C42.3173 39.153 42.5448 39.1171 42.7364 39.0692L42.928 39.9073ZM44.1201 31.1543H44.9822V40.0391H44.1201V31.1543ZM50.7572 36.5666C50.6614 35.7044 50.2423 34.7824 48.9491 34.7824C47.8116 34.7824 47.0812 35.3931 46.9255 36.5785L50.7572 36.5666ZM46.0394 36.9976C46.0394 35.3213 47.0452 33.9203 48.9132 33.9203C50.853 33.9203 51.344 35.429 51.4038 35.5727C51.763 36.5546 51.6194 37.4167 51.6194 37.4167H46.9255C47.0812 38.5423 47.8116 39.2128 48.9252 39.2128C50.3022 39.2128 50.6375 38.4585 50.7213 38.3387L51.4637 38.7339C51.4637 38.7339 50.9608 40.075 48.9132 40.075C47.0452 40.075 46.0394 38.662 46.0394 36.9976Z" fill="#616161"/>
<mask id="path-2-inside-1_957_52662" fill="white">
<path d="M29.0386 55.3654C29.0386 52.969 30.9812 51.0264 33.3776 51.0264H236.7C239.096 51.0264 241.039 52.969 241.039 55.3654V88.5969C241.039 90.9932 239.096 92.9358 236.7 92.9358H33.3776C30.9812 92.9358 29.0386 90.9932 29.0386 88.5969V55.3654Z"/>
</mask>
<path d="M29.0386 55.3654C29.0386 52.969 30.9812 51.0264 33.3776 51.0264H236.7C239.096 51.0264 241.039 52.969 241.039 55.3654V88.5969C241.039 90.9932 239.096 92.9358 236.7 92.9358H33.3776C30.9812 92.9358 29.0386 90.9932 29.0386 88.5969V55.3654Z" fill="white"/>
<path d="M33.3776 51.0264V51.7748H236.7V51.0264V50.278H33.3776V51.0264ZM241.039 55.3654H240.29V88.5969H241.039H241.787V55.3654H241.039ZM236.7 92.9358V92.1875H33.3776V92.9358V93.6842H236.7V92.9358ZM29.0386 88.5969H29.787V55.3654H29.0386H28.2902V88.5969H29.0386ZM33.3776 92.9358V92.1875C31.3945 92.1875 29.787 90.5799 29.787 88.5969H29.0386H28.2902C28.2902 91.4065 30.5679 93.6842 33.3776 93.6842V92.9358ZM241.039 88.5969H240.29C240.29 90.5799 238.683 92.1875 236.7 92.1875V92.9358V93.6842C239.509 93.6842 241.787 91.4065 241.787 88.5969H241.039ZM236.7 51.0264V51.7748C238.683 51.7748 240.29 53.3823 240.29 55.3654H241.039H241.787C241.787 52.5557 239.509 50.278 236.7 50.278V51.0264ZM33.3776 51.0264V50.278C30.5679 50.278 28.2902 52.5557 28.2902 55.3654H29.0386H29.787C29.787 53.3823 31.3945 51.7748 33.3776 51.7748V51.0264Z" fill="#999999" mask="url(#path-2-inside-1_957_52662)"/>
<path d="M42.3567 76.1658C43.8385 76.1658 44.6737 75.0612 44.6737 73.6198C44.6737 72.2053 43.8385 71.1007 42.3567 71.1007C41.1174 71.1007 40.0531 72.2053 40.0531 73.6198C40.0531 75.0612 41.1174 76.1658 42.3567 76.1658ZM39.0698 80.0993V70.1443H40.0397V71.5991C40.4842 70.6292 41.5349 70.1578 42.3701 70.1578C44.4716 70.1578 45.6436 71.7608 45.6436 73.6198C45.6436 75.5057 44.4716 77.1087 42.3701 77.1087C41.508 77.1087 40.4842 76.5295 40.0397 75.6539V80.0993H39.0698ZM46.8462 67.0056H47.8161V77.001H46.8462V67.0056ZM52.2929 76.1254C53.5053 76.1254 54.5964 75.142 54.6099 73.6333C54.5964 72.138 53.5053 71.1411 52.2929 71.1411C50.7976 71.1411 49.9894 72.2188 49.9894 73.6333C49.9894 75.0477 50.7976 76.1254 52.2929 76.1254ZM49.0195 73.6333C49.0195 71.7608 50.1914 70.1847 52.2794 70.1847C53.0742 70.1847 53.9633 70.6023 54.583 71.5991V70.1443H55.5529V77.001H54.583V75.6539C53.9364 76.7046 53.0877 77.0953 52.2794 77.0953C50.1914 77.0953 49.0195 75.4922 49.0195 73.6333ZM60.163 76.0984C60.8635 76.0984 61.5101 75.829 61.9681 75.371L62.6955 76.0176C62.0489 76.6642 61.1868 77.0683 60.2169 77.0683C58.0077 77.0683 56.7279 75.4384 56.7279 73.4581C56.7279 71.4914 58.0077 69.8614 60.2169 69.8614C61.1868 69.8614 62.0489 70.2655 62.6955 70.9121L61.9681 71.5587C61.5101 71.1007 60.8635 70.8313 60.163 70.8313C58.5734 70.8313 57.6978 72.0033 57.6978 73.4581C57.6978 74.9265 58.5734 76.0984 60.163 76.0984ZM68.7179 73.0944C68.6101 72.1245 68.1386 71.0873 66.6838 71.0873C65.4041 71.0873 64.5823 71.7743 64.4072 73.1079L68.7179 73.0944ZM63.4104 73.5794C63.4104 71.6934 64.5419 70.1173 66.6434 70.1173C68.8257 70.1173 69.378 71.8147 69.4453 71.9763C69.8495 73.0809 69.6878 74.0508 69.6878 74.0508H64.4072C64.5823 75.3171 65.4041 76.0715 66.6568 76.0715C68.206 76.0715 68.5832 75.2228 68.6775 75.0881L69.5127 75.5326C69.5127 75.5326 68.9469 77.0414 66.6434 77.0414C64.5419 77.0414 63.4104 75.4518 63.4104 73.5794ZM75.835 73.1483C75.835 71.8686 75.1076 71.1277 74.0838 71.1277C73.0196 71.1277 72.0901 72.1245 72.0901 73.4177V77.001H71.1202V67.0056H72.0901V71.4375C72.4268 70.737 73.1947 70.1847 74.1242 70.1847C75.5117 70.1847 76.8049 71.3701 76.8049 73.0944V77.001H75.835V73.1483ZM81.5874 76.1119C83.0962 76.1119 83.8909 75.0073 83.8909 73.5794C83.8909 72.1515 83.0962 71.0468 81.5874 71.0468C80.0652 71.0468 79.2974 72.1515 79.2974 73.5794C79.2974 75.0073 80.0652 76.1119 81.5874 76.1119ZM78.3275 73.5794C78.3275 71.7069 79.486 70.1039 81.5874 70.1039C83.7023 70.1039 84.8608 71.7069 84.8608 73.5794C84.8608 75.4518 83.7023 77.0549 81.5874 77.0549C79.486 77.0549 78.3275 75.4518 78.3275 73.5794ZM86.0592 67.0056H87.0291V77.001H86.0592V67.0056ZM91.5059 77.1087C89.4179 77.1087 88.2324 75.5057 88.2324 73.6198C88.2324 71.7473 89.4179 70.1308 91.5059 70.1308C92.3815 70.1308 93.2975 70.5754 93.8633 71.5991V67.0056H94.8332V77.001H93.8633V75.6404C93.284 76.6642 92.3815 77.1087 91.5059 77.1087ZM89.2023 73.6198C89.2023 75.0612 90.0241 76.1388 91.5463 76.1388C92.7856 76.1388 93.8633 75.0612 93.8633 73.6198C93.8633 72.1919 92.7856 71.1007 91.5463 71.1007C90.0241 71.1007 89.2023 72.1919 89.2023 73.6198ZM101.466 73.0944C101.358 72.1245 100.886 71.0873 99.4314 71.0873C98.1517 71.0873 97.3299 71.7743 97.1548 73.1079L101.466 73.0944ZM96.158 73.5794C96.158 71.6934 97.2895 70.1173 99.391 70.1173C101.573 70.1173 102.126 71.8147 102.193 71.9763C102.597 73.0809 102.435 74.0508 102.435 74.0508H97.1548C97.3299 75.3171 98.1517 76.0715 99.4045 76.0715C100.954 76.0715 101.331 75.2228 101.425 75.0881L102.26 75.5326C102.26 75.5326 101.695 77.0414 99.391 77.0414C97.2895 77.0414 96.158 75.4518 96.158 73.5794ZM104.69 71.5857C105.08 70.6831 106.198 70.0769 107.128 70.0769V71.0738C105.875 71.0738 104.69 72.3805 104.69 73.4716V77.001H103.72V70.1443H104.69V71.5857Z" fill="#333333"/>
<path fill-rule="evenodd" clip-rule="evenodd" d="M43.3392 103.831C43.5218 104.014 43.5218 104.31 43.3392 104.493L36.479 111.353C36.2963 111.536 36.0002 111.536 35.8175 111.353L32.6993 108.235C32.5166 108.052 32.5166 107.756 32.6993 107.573C32.8819 107.391 33.1781 107.391 33.3607 107.573L36.1483 110.361L42.6777 103.831C42.8604 103.649 43.1565 103.649 43.3392 103.831Z" fill="#166534"/>
<path d="M56.3634 104.339V111.903H55.609V108.383H51.6276V111.903H50.8733V104.339H51.6276V107.65H55.609V104.339H56.3634ZM61.7163 108.865C61.6325 108.111 61.2658 107.304 60.1342 107.304C59.1389 107.304 58.4998 107.838 58.3636 108.875L61.7163 108.865ZM57.5882 109.242C57.5882 107.775 58.4683 106.549 60.1028 106.549C61.8001 106.549 62.2297 107.87 62.2821 107.995C62.5964 108.854 62.4707 109.609 62.4707 109.609H58.3636C58.4998 110.594 59.1389 111.18 60.1133 111.18C61.3182 111.18 61.6115 110.52 61.6849 110.416L62.3345 110.761C62.3345 110.761 61.8944 111.935 60.1028 111.935C58.4683 111.935 57.5882 110.698 57.5882 109.242ZM63.4131 104.129H64.1675V111.903H63.4131V104.129ZM68.1016 111.254C69.2541 111.254 69.9037 110.395 69.9037 109.274C69.9037 108.173 69.2541 107.314 68.1016 107.314C67.1376 107.314 66.3099 108.173 66.3099 109.274C66.3099 110.395 67.1376 111.254 68.1016 111.254ZM65.5451 114.313V106.57H66.2994V107.702C66.6452 106.948 67.4624 106.581 68.112 106.581C69.7465 106.581 70.658 107.828 70.658 109.274C70.658 110.74 69.7465 111.987 68.112 111.987C67.4415 111.987 66.6452 111.537 66.2994 110.856V114.313H65.5451ZM81.1163 108.634C81.1163 107.786 80.6029 107.304 79.8486 107.304C79.1466 107.304 78.4237 107.964 78.4237 108.634V111.903H77.6693V108.634C77.6693 107.964 77.2397 107.304 76.4225 107.304C75.6786 107.304 74.9871 107.964 74.9871 108.718V111.903H74.2327V106.57H74.9871V107.492C75.3224 106.916 75.8148 106.57 76.4539 106.57C77.2292 106.57 77.7426 106.906 78.1198 107.639C78.5075 107.094 79.0418 106.57 79.88 106.57C80.9697 106.57 81.8707 107.45 81.8707 108.551V111.903H81.1163V108.634ZM87.0722 108.865C86.9884 108.111 86.6217 107.304 85.4901 107.304C84.4948 107.304 83.8556 107.838 83.7194 108.875L87.0722 108.865ZM82.9441 109.242C82.9441 107.775 83.8242 106.549 85.4587 106.549C87.156 106.549 87.5856 107.87 87.638 107.995C87.9523 108.854 87.8266 109.609 87.8266 109.609H83.7194C83.8556 110.594 84.4948 111.18 85.4692 111.18C86.6741 111.18 86.9674 110.52 87.0408 110.416L87.6904 110.761C87.6904 110.761 87.2503 111.935 85.4587 111.935C83.8242 111.935 82.9441 110.698 82.9441 109.242ZM89.3348 110.457C89.5443 110.939 90.0368 111.222 90.6759 111.191C91.5979 111.17 91.9646 110.028 91.0216 109.724C90.6759 109.619 90.0472 109.452 89.5338 109.116C88.7376 108.582 88.748 107.796 88.989 107.314C89.3138 106.675 90.1415 106.487 90.6235 106.528C91.074 106.581 91.7027 106.738 92.1008 107.272L91.4931 107.712C91.2731 107.409 90.9169 107.314 90.5606 107.272C90.2358 107.241 89.8063 107.356 89.6491 107.65C89.5129 107.932 89.5234 108.215 89.9529 108.498C90.3616 108.771 90.8854 108.896 91.2521 109.022C93.0123 109.588 92.4466 111.893 90.6968 111.935C89.8167 111.977 88.9785 111.516 88.6538 110.751L89.3348 110.457ZM93.6734 110.457C93.8829 110.939 94.3753 111.222 95.0145 111.191C95.9365 111.17 96.3032 110.028 95.3602 109.724C95.0145 109.619 94.3858 109.452 93.8724 109.116C93.0761 108.582 93.0866 107.796 93.3276 107.314C93.6524 106.675 94.4801 106.487 94.9621 106.528C95.4126 106.581 96.0412 106.738 96.4394 107.272L95.8317 107.712C95.6117 107.409 95.2554 107.314 94.8992 107.272C94.5744 107.241 94.1448 107.356 93.9877 107.65C93.8515 107.932 93.8619 108.215 94.2915 108.498C94.7001 108.771 95.224 108.896 95.5907 109.022C97.3509 109.588 96.7851 111.893 95.0354 111.935C94.1553 111.977 93.3171 111.516 92.9923 110.751L93.6734 110.457ZM100.092 111.222C101.035 111.222 101.883 110.457 101.894 109.284C101.883 108.121 101.035 107.346 100.092 107.346C98.9288 107.346 98.3001 108.184 98.3001 109.284C98.3001 110.384 98.9288 111.222 100.092 111.222ZM97.5458 109.284C97.5458 107.828 98.4573 106.602 100.081 106.602C100.699 106.602 101.391 106.927 101.873 107.702V106.57H102.627V111.903H101.873V110.856C101.37 111.673 100.71 111.977 100.081 111.977C98.4573 111.977 97.5458 110.73 97.5458 109.284ZM106.282 111.243C107.278 111.243 108.063 110.374 108.063 109.284C108.063 108.215 107.267 107.346 106.282 107.346C105.193 107.346 104.491 108.111 104.491 109.284C104.491 110.478 105.193 111.243 106.282 111.243ZM103.736 109.284C103.736 107.702 104.774 106.612 106.272 106.612C107.068 106.612 107.749 107.031 108.063 107.712V106.57H108.818V111.641C108.797 113.339 107.812 114.303 106.115 114.303C105.266 114.303 104.522 113.863 103.977 113.045L104.616 112.637C105.004 113.244 105.507 113.548 106.115 113.548C107.414 113.548 108.053 112.92 108.063 111.631V110.835C107.697 111.495 106.953 111.977 106.272 111.977C104.774 111.977 103.736 110.877 103.736 109.284ZM113.84 108.865C113.756 108.111 113.39 107.304 112.258 107.304C111.263 107.304 110.624 107.838 110.487 108.875L113.84 108.865ZM109.712 109.242C109.712 107.775 110.592 106.549 112.227 106.549C113.924 106.549 114.353 107.87 114.406 107.995C114.72 108.854 114.594 109.609 114.594 109.609H110.487C110.624 110.594 111.263 111.18 112.237 111.18C113.442 111.18 113.735 110.52 113.809 110.416L114.458 110.761C114.458 110.761 114.018 111.935 112.227 111.935C110.592 111.935 109.712 110.698 109.712 109.242Z" fill="#166534"/>
</g>
<defs>
<filter id="filter0_dd_957_52662" x="0.338152" y="0.545883" width="269.324" height="147.324" filterUnits="userSpaceOnUse" color-interpolation-filters="sRGB">
<feFlood flood-opacity="0" result="BackgroundImageFix"/>
<feColorMatrix in="SourceAlpha" type="matrix" values="0 0 0 0 0 0 0 0 0 0 0 0 0 0 0 0 0 0 127 0" result="hardAlpha"/>
<feOffset/>
<feGaussianBlur stdDeviation="0.551933"/>
<feComposite in2="hardAlpha" operator="out"/>
<feColorMatrix type="matrix" values="0 0 0 0 0 0 0 0 0 0 0 0 0 0 0 0 0 0 0.2 0"/>
<feBlend mode="normal" in2="BackgroundImageFix" result="effect1_dropShadow_957_52662"/>
<feColorMatrix in="SourceAlpha" type="matrix" values="0 0 0 0 0 0 0 0 0 0 0 0 0 0 0 0 0 0 127 0" result="hardAlpha"/>
<feOffset dy="2.20773"/>
<feGaussianBlur stdDeviation="8.83092"/>
<feComposite in2="hardAlpha" operator="out"/>
<feColorMatrix type="matrix" values="0 0 0 0 0 0 0 0 0 0 0 0 0 0 0 0 0 0 0.08 0"/>
<feBlend mode="normal" in2="effect1_dropShadow_957_52662" result="effect2_dropShadow_957_52662"/>
<feBlend mode="normal" in="SourceGraphic" in2="effect2_dropShadow_957_52662" result="shape"/>
</filter>
</defs>
</svg>
