<svg width="621" height="154" viewBox="0 0 621 154" fill="none" xmlns="http://www.w3.org/2000/svg">
<g opacity="0.6">
<mask id="path-1-inside-1_1282_48522" fill="white">
<path d="M44.155 59.3629C44.155 53.2664 49.0972 48.3242 55.1937 48.3242H229.58C235.677 48.3242 240.619 53.2664 240.619 59.3629V103.517C240.619 109.614 235.677 114.556 229.58 114.556H55.1937C49.0972 114.556 44.155 109.614 44.155 103.517V59.3629Z"/>
</mask>
<path d="M44.155 59.3629C44.155 53.2664 49.0972 48.3242 55.1937 48.3242H229.58C235.677 48.3242 240.619 53.2664 240.619 59.3629V103.517C240.619 109.614 235.677 114.556 229.58 114.556H55.1937C49.0972 114.556 44.155 109.614 44.155 103.517V59.3629Z" fill="white"/>
<path d="M55.1937 48.3242V49.7041H229.58V48.3242V46.9444H55.1937V48.3242ZM240.619 59.3629H239.239V103.517H240.619H241.999V59.3629H240.619ZM229.58 114.556V113.176H55.1937V114.556V115.936H229.58V114.556ZM44.155 103.517H45.5349V59.3629H44.155H42.7752V103.517H44.155ZM55.1937 114.556V113.176C49.8593 113.176 45.5349 108.852 45.5349 103.517H44.155H42.7752C42.7752 110.376 48.3351 115.936 55.1937 115.936V114.556ZM240.619 103.517H239.239C239.239 108.852 234.915 113.176 229.58 113.176V114.556V115.936C236.439 115.936 241.999 110.376 241.999 103.517H240.619ZM229.58 48.3242V49.7041C234.915 49.7041 239.239 54.0285 239.239 59.3629H240.619H241.999C241.999 52.5043 236.439 46.9444 229.58 46.9444V48.3242ZM55.1937 48.3242V46.9444C48.3351 46.9444 42.7752 52.5043 42.7752 59.3629H44.155H45.5349C45.5349 54.0285 49.8593 49.7041 55.1937 49.7041V48.3242Z" fill="#E0E0E0" mask="url(#path-1-inside-1_1282_48522)"/>
<path fill-rule="evenodd" clip-rule="evenodd" d="M100.324 72.1864C100.863 72.7252 100.863 73.5989 100.324 74.1377L85.1458 89.3159C84.6069 89.8548 83.7333 89.8548 83.1944 89.3159L76.2953 82.4167C75.7564 81.8779 75.7564 81.0042 76.2953 80.4654C76.8341 79.9265 77.7078 79.9265 78.2466 80.4654L84.1701 86.3888L98.3726 72.1864C98.9114 71.6475 99.7851 71.6475 100.324 72.1864Z" fill="#333333"/>
<path d="M121.067 90.6391C115.652 90.6391 112.225 86.4914 112.225 81.4743C112.225 76.4572 115.652 72.3094 121.067 72.3094C123.526 72.3094 125.736 73.3526 127.326 74.9918L126.009 76.2337C124.743 74.9173 123.004 74.1474 121.067 74.1474C116.72 74.1474 114.038 77.401 114.038 81.4743C114.038 85.5724 116.72 88.826 121.067 88.826C123.004 88.826 124.743 88.0312 126.009 86.7149L127.326 87.9567C125.736 89.596 123.526 90.6391 121.067 90.6391ZM139.123 83.3371C139.123 80.9775 137.781 79.6115 135.894 79.6115C133.932 79.6115 132.218 81.4494 132.218 83.8338V90.4404H130.43V72.0114H132.218V80.1828C132.839 78.8912 134.255 77.8729 135.968 77.8729C138.527 77.8729 140.911 80.0586 140.911 83.2377V90.4404H139.123V83.3371ZM144.289 77.7984H146.078V90.4404H144.289V77.7984ZM144.041 73.2036C144.041 72.5826 144.438 72.0859 145.184 72.0859C145.904 72.0859 146.301 72.5826 146.301 73.2036C146.301 73.8493 145.904 74.3461 145.184 74.3461C144.438 74.3461 144.041 73.8493 144.041 73.2036ZM155.553 88.9005C158.285 88.9005 159.825 86.8639 159.825 84.2063C159.825 81.5985 158.285 79.5618 155.553 79.5618C153.268 79.5618 151.305 81.5985 151.305 84.2063C151.305 86.8639 153.268 88.9005 155.553 88.9005ZM149.492 96.1529V77.7984H151.281V80.4808C152.1 78.6925 154.038 77.8232 155.577 77.8232C159.452 77.8232 161.613 80.7788 161.613 84.2063C161.613 87.6835 159.452 90.6391 155.577 90.6391C153.988 90.6391 152.1 89.5711 151.281 87.9567V96.1529H149.492ZM165.171 87.0129C165.668 88.1554 166.835 88.826 168.351 88.7515C170.536 88.7018 171.405 85.9946 169.17 85.2743C168.351 85.026 166.86 84.6286 165.643 83.8338C163.756 82.5671 163.781 80.7043 164.352 79.5618C165.122 78.0468 167.084 77.5997 168.226 77.6991C169.294 77.8232 170.785 78.1958 171.728 79.4625L170.288 80.5056C169.766 79.7854 168.922 79.5618 168.077 79.4625C167.307 79.388 166.289 79.6612 165.916 80.3566C165.594 81.0272 165.618 81.6978 166.637 82.3684C167.605 83.0142 168.847 83.3122 169.717 83.6103C173.889 84.9515 172.548 90.4156 168.4 90.5149C166.314 90.6143 164.327 89.5215 163.557 87.7084L165.171 87.0129Z" fill="#1A1A1A"/>
<path fill-rule="evenodd" clip-rule="evenodd" d="M191.593 72.4301C191.997 72.0259 192.652 72.0259 193.056 72.4301L201.335 80.7091C201.74 81.1132 201.74 81.7684 201.335 82.1726L193.056 90.4516C192.652 90.8557 191.997 90.8557 191.593 90.4516C191.189 90.0474 191.189 89.3922 191.593 88.988L199.14 81.4408L191.593 73.8936C191.189 73.4895 191.189 72.8342 191.593 72.4301Z" fill="#333333"/>
</g>
<rect x="43.4651" y="47.6343" width="197.316" height="67.6118" stroke="#0D69D4" stroke-width="1.37983"/>
<rect x="44.1545" y="48.3242" width="195.936" height="11.0387" fill="#007D00" fill-opacity="0.3"/>
<rect x="104.867" y="64.1914" width="5.51933" height="37.2555" fill="#C54600" fill-opacity="0.3"/>
<line x1="105.557" y1="42.1143" x2="105.557" y2="101.447" stroke="#C54600" stroke-width="1.37983"/>
<line x1="109.697" y1="42.1143" x2="109.697" y2="101.447" stroke="#C54600" stroke-width="1.37983"/>
<rect x="97.968" y="17.2773" width="18.279" height="19.3798" rx="5.51933" fill="#C54600"/>
<path d="M102.991 30.0136V28.914L107.842 21.2387H108.64V22.9419H108.101L104.436 28.7415V28.8278H110.969V30.0136H102.991ZM108.187 32.2773V29.6794V29.1673V21.2387H109.459V32.2773H108.187Z" fill="white"/>
<rect x="173.859" y="64.1914" width="5.51933" height="37.2555" fill="#C54600" fill-opacity="0.3"/>
<line x1="174.549" y1="42.1143" x2="174.549" y2="101.447" stroke="#C54600" stroke-width="1.37983"/>
<line x1="178.688" y1="42.1143" x2="178.688" y2="101.447" stroke="#C54600" stroke-width="1.37983"/>
<rect x="71.7512" y="64.8818" width="33.116" height="33.116" fill="#0D69D4" fill-opacity="0.2"/>
<rect x="110.386" y="63.502" width="63.4723" height="37.2555" fill="#0D69D4" fill-opacity="0.2"/>
<rect x="179.378" y="64.8818" width="33.116" height="33.116" fill="#0D69D4" fill-opacity="0.2"/>
<rect x="166.96" y="17.2773" width="18.279" height="19.3798" rx="5.51933" fill="#C54600"/>
<path d="M171.983 30.0136V28.914L176.834 21.2387H177.632V22.9419H177.093L173.428 28.7415V28.8278H179.96V30.0136H171.983ZM177.179 32.2773V29.6794V29.1673V21.2387H178.451V32.2773H177.179Z" fill="white"/>
<line x1="22.0774" y1="49.0142" x2="240.091" y2="49.0142" stroke="#007D00" stroke-width="1.37983"/>
<line x1="22.0774" y1="58.6724" x2="240.091" y2="58.6724" stroke="#007D00" stroke-width="1.37983"/>
<rect y="44.1846" width="18.279" height="19.3798" rx="5.51933" fill="#007D00"/>
<path d="M8.8179 59.3355C8.07767 59.3355 7.42369 59.2043 6.85595 58.942C6.2918 58.6761 5.85162 58.3114 5.53541 57.8479C5.21919 57.3807 5.06289 56.8489 5.06648 56.2524C5.06289 55.7853 5.15452 55.3541 5.34137 54.9588C5.52822 54.56 5.78334 54.2276 6.10674 53.9617C6.43373 53.6922 6.79846 53.5215 7.20091 53.4496V53.385C6.67269 53.2484 6.25227 52.952 5.93965 52.4956C5.62704 52.0357 5.47252 51.5128 5.47612 50.9271C5.47252 50.3666 5.61446 49.8653 5.90192 49.4233C6.18939 48.9814 6.58465 48.6328 7.08772 48.3777C7.59437 48.1226 8.1711 47.995 8.8179 47.995C9.45751 47.995 10.0288 48.1226 10.5319 48.3777C11.035 48.6328 11.4302 48.9814 11.7177 49.4233C12.0088 49.8653 12.1561 50.3666 12.1597 50.9271C12.1561 51.5128 11.9962 52.0357 11.68 52.4956C11.3674 52.952 10.9523 53.2484 10.4349 53.385V53.4496C10.8337 53.5215 11.1931 53.6922 11.5129 53.9617C11.8327 54.2276 12.0878 54.56 12.2783 54.9588C12.4687 55.3541 12.5657 55.7853 12.5693 56.2524C12.5657 56.8489 12.404 57.3807 12.0842 57.8479C11.768 58.3114 11.3278 58.6761 10.7637 58.942C10.2031 59.2043 9.55453 59.3355 8.8179 59.3355ZM8.8179 58.1497C9.31737 58.1497 9.74856 58.0688 10.1115 57.9071C10.4744 57.7454 10.7547 57.5173 10.9523 57.2226C11.15 56.928 11.2506 56.583 11.2542 56.1877C11.2506 55.7709 11.1428 55.4026 10.9308 55.0828C10.7188 54.763 10.4295 54.5115 10.063 54.3282C9.70006 54.1449 9.28503 54.0533 8.8179 54.0533C8.34717 54.0533 7.92676 54.1449 7.55664 54.3282C7.19013 54.5115 6.90086 54.763 6.68886 55.0828C6.48045 55.4026 6.37804 55.7709 6.38163 56.1877C6.37804 56.583 6.47326 56.928 6.6673 57.2226C6.86493 57.5173 7.14701 57.7454 7.51352 57.9071C7.88004 58.0688 8.31483 58.1497 8.8179 58.1497ZM8.8179 52.9106C9.21316 52.9106 9.56351 52.8316 9.86894 52.6735C10.178 52.5154 10.4205 52.2944 10.5966 52.0105C10.7727 51.7267 10.8625 51.3943 10.8661 51.0134C10.8625 50.6397 10.7745 50.3145 10.602 50.0378C10.4295 49.7575 10.1905 49.5419 9.88511 49.391C9.57968 49.2365 9.22394 49.1592 8.8179 49.1592C8.40467 49.1592 8.04354 49.2365 7.73451 49.391C7.42549 49.5419 7.18653 49.7575 7.01765 50.0378C6.84876 50.3145 6.76612 50.6397 6.76971 51.0134C6.76612 51.3943 6.85056 51.7267 7.02304 52.0105C7.19911 52.2944 7.44166 52.5154 7.75068 52.6735C8.05971 52.8316 8.41545 52.9106 8.8179 52.9106Z" fill="white"/>
<rect x="44.1545" y="103.519" width="195.936" height="11.0387" fill="#007D00" fill-opacity="0.3"/>
<line x1="22.0774" y1="104.209" x2="240.091" y2="104.209" stroke="#007D00" stroke-width="1.37983"/>
<line x1="22.0774" y1="113.867" x2="240.091" y2="113.867" stroke="#007D00" stroke-width="1.37983"/>
<rect y="99.3789" width="18.279" height="19.3798" rx="5.51933" fill="#007D00"/>
<path d="M8.8179 114.53C8.07767 114.53 7.42369 114.399 6.85595 114.136C6.2918 113.87 5.85162 113.506 5.53541 113.042C5.21919 112.575 5.06289 112.043 5.06648 111.447C5.06289 110.98 5.15452 110.548 5.34137 110.153C5.52822 109.754 5.78334 109.422 6.10674 109.156C6.43373 108.887 6.79846 108.716 7.20091 108.644V108.579C6.67269 108.443 6.25227 108.146 5.93965 107.69C5.62704 107.23 5.47252 106.707 5.47612 106.121C5.47252 105.561 5.61446 105.06 5.90192 104.618C6.18939 104.176 6.58465 103.827 7.08772 103.572C7.59437 103.317 8.1711 103.189 8.8179 103.189C9.45751 103.189 10.0288 103.317 10.5319 103.572C11.035 103.827 11.4302 104.176 11.7177 104.618C12.0088 105.06 12.1561 105.561 12.1597 106.121C12.1561 106.707 11.9962 107.23 11.68 107.69C11.3674 108.146 10.9523 108.443 10.4349 108.579V108.644C10.8337 108.716 11.1931 108.887 11.5129 109.156C11.8327 109.422 12.0878 109.754 12.2783 110.153C12.4687 110.548 12.5657 110.98 12.5693 111.447C12.5657 112.043 12.404 112.575 12.0842 113.042C11.768 113.506 11.3278 113.87 10.7637 114.136C10.2031 114.399 9.55453 114.53 8.8179 114.53ZM8.8179 113.344C9.31737 113.344 9.74856 113.263 10.1115 113.101C10.4744 112.94 10.7547 112.712 10.9523 112.417C11.15 112.122 11.2506 111.777 11.2542 111.382C11.2506 110.965 11.1428 110.597 10.9308 110.277C10.7188 109.957 10.4295 109.706 10.063 109.523C9.70006 109.339 9.28503 109.248 8.8179 109.248C8.34717 109.248 7.92676 109.339 7.55664 109.523C7.19013 109.706 6.90086 109.957 6.68886 110.277C6.48045 110.597 6.37804 110.965 6.38163 111.382C6.37804 111.777 6.47326 112.122 6.6673 112.417C6.86493 112.712 7.14701 112.94 7.51352 113.101C7.88004 113.263 8.31483 113.344 8.8179 113.344ZM8.8179 108.105C9.21316 108.105 9.56351 108.026 9.86894 107.868C10.178 107.71 10.4205 107.489 10.5966 107.205C10.7727 106.921 10.8625 106.589 10.8661 106.208C10.8625 105.834 10.7745 105.509 10.602 105.232C10.4295 104.952 10.1905 104.736 9.88511 104.585C9.57968 104.431 9.22394 104.354 8.8179 104.354C8.40467 104.354 8.04354 104.431 7.73451 104.585C7.42549 104.736 7.18653 104.952 7.01765 105.232C6.84876 105.509 6.76612 105.834 6.76971 106.208C6.76612 106.589 6.85056 106.921 7.02304 107.205C7.19911 107.489 7.44166 107.71 7.75068 107.868C8.05971 108.026 8.41545 108.105 8.8179 108.105Z" fill="white"/>
<rect x="44.155" y="59.3633" width="27.5966" height="44.1546" fill="#007D00" fill-opacity="0.3"/>
<line x1="44.8449" y1="26.2471" x2="44.8449" y2="114.556" stroke="#007D00" stroke-width="1.37983"/>
<line x1="71.0617" y1="26.2471" x2="71.0617" y2="114.556" stroke="#007D00" stroke-width="1.37983"/>
<rect x="44.155" y="1.41016" width="27.279" height="19.3798" rx="5.51933" fill="#007D00"/>
<path d="M49.4371 16.4102V15.44L53.0807 11.4514C53.5083 10.9843 53.8605 10.5782 54.1372 10.2333C54.4138 9.8847 54.6187 9.55771 54.7516 9.25228C54.8882 8.94325 54.9564 8.61986 54.9564 8.28208C54.9564 7.89401 54.863 7.55803 54.6762 7.27416C54.4929 6.99029 54.2414 6.7711 53.9216 6.61658C53.6018 6.46207 53.2424 6.38481 52.8436 6.38481C52.4196 6.38481 52.0494 6.47285 51.7332 6.64892C51.4206 6.8214 51.1781 7.06395 51.0056 7.37657C50.8367 7.68919 50.7523 8.05571 50.7523 8.47612H49.4802C49.4802 7.82933 49.6293 7.26158 49.9276 6.77289C50.2258 6.2842 50.6319 5.90331 51.1457 5.63022C51.6632 5.35713 52.2435 5.22058 52.8867 5.22058C53.5335 5.22058 54.1066 5.35713 54.6061 5.63022C55.1056 5.90331 55.4972 6.27163 55.7811 6.73516C56.065 7.1987 56.2069 7.71434 56.2069 8.28208C56.2069 8.68813 56.1332 9.08519 55.9859 9.47327C55.8422 9.85775 55.5907 10.2872 55.2313 10.7615C54.8756 11.2322 54.3815 11.8071 53.7491 12.4863L51.2697 15.1381V15.2244H56.4009V16.4102H49.4371ZM62.2275 16.5611C61.4154 16.5611 60.7237 16.3401 60.1524 15.8981C59.581 15.4525 59.1444 14.8075 58.8426 13.9631C58.5408 13.1151 58.3898 12.091 58.3898 10.8908C58.3898 9.69785 58.5408 8.67914 58.8426 7.83472C59.148 6.98669 59.5864 6.3399 60.1578 5.89433C60.7327 5.44516 61.4226 5.22058 62.2275 5.22058C63.0324 5.22058 63.7205 5.44516 64.2919 5.89433C64.8668 6.3399 65.3052 6.98669 65.607 7.83472C65.9124 8.67914 66.0652 9.69785 66.0652 10.8908C66.0652 12.091 65.9142 13.1151 65.6124 13.9631C65.3106 14.8075 64.874 15.4525 64.3026 15.8981C63.7313 16.3401 63.0396 16.5611 62.2275 16.5611ZM62.2275 15.3753C63.0324 15.3753 63.6576 14.9872 64.1032 14.211C64.5488 13.4349 64.7716 12.3282 64.7716 10.8908C64.7716 9.93501 64.6692 9.12112 64.4643 8.44917C64.2631 7.77722 63.9721 7.26518 63.5912 6.91303C63.2139 6.56089 62.7593 6.38481 62.2275 6.38481C61.4298 6.38481 60.8063 6.77828 60.3572 7.56522C59.908 8.34856 59.6834 9.4571 59.6834 10.8908C59.6834 11.8466 59.7841 12.6587 59.9853 13.3271C60.1865 13.9955 60.4758 14.5039 60.8531 14.8525C61.234 15.201 61.6921 15.3753 62.2275 15.3753Z" fill="white"/>
<rect x="212.495" y="59.3633" width="27.5966" height="44.1546" fill="#007D00" fill-opacity="0.3"/>
<path d="M249.75 48.3242V114.556" stroke="black" stroke-width="1.10387"/>
<path d="M246.99 114.556L252.51 114.556" stroke="black" stroke-width="1.10387"/>
<path d="M246.99 48.3242L252.51 48.3242" stroke="black" stroke-width="1.10387"/>
<rect x="255.821" y="69.4404" width="43.6027" height="24" rx="4.41546" fill="#333333"/>
<path d="M263.847 76.4619V82.0626H265.089V83.1306H263.847V85.4528H262.754V83.1306H258.718V82.0626L262.792 76.4619H263.847ZM260.035 82.0626H262.754V78.3122L260.035 82.0626ZM269.279 84.5339C270.409 84.5339 271.179 83.7143 271.179 82.8946C271.179 82.0874 270.409 81.2802 269.279 81.2802C268.161 81.2802 267.379 82.0874 267.379 82.8946C267.379 83.7143 268.149 84.5339 269.279 84.5339ZM266.286 82.8946C266.286 81.9633 266.957 81.1685 267.764 80.709C267.106 80.2619 266.534 79.5789 266.534 78.7717C266.534 77.3312 267.851 76.3004 269.279 76.3004C270.719 76.3004 272.048 77.3312 272.048 78.7717C272.048 79.5789 271.477 80.2619 270.819 80.709C271.613 81.1685 272.272 81.9633 272.272 82.8946C272.272 84.447 270.856 85.5895 269.279 85.5895C267.702 85.5895 266.286 84.447 266.286 82.8946ZM267.627 78.7593C267.627 79.4547 268.298 80.1502 269.279 80.1502C270.272 80.1502 270.955 79.4547 270.955 78.7593C270.955 78.0514 270.272 77.356 269.279 77.356C268.298 77.356 267.627 78.0514 267.627 78.7593ZM273.813 80.8953C274.31 79.7031 275.415 79.4423 275.937 79.4671C276.62 79.5168 277.029 79.8024 277.141 79.8769L278.197 80.5351C278.358 80.6345 278.495 80.7587 278.843 80.7711C279.153 80.7835 279.625 80.6841 279.873 80.0384L280.929 80.4482C280.469 81.6528 279.327 81.926 278.78 81.9012C278.122 81.8639 277.7 81.5534 277.601 81.4914L276.545 80.8332C276.371 80.7338 276.247 80.6221 275.875 80.5972C275.576 80.5848 275.117 80.6966 274.856 81.3299L273.813 80.8953ZM283.991 81.3175L282.898 81.2802L283.072 76.4494H287.84V77.5423H284.127L284.04 79.9142C284.462 79.6907 284.959 79.5665 285.468 79.5665C287.108 79.5665 288.511 80.8953 288.511 82.5469C288.511 84.2607 287.108 85.577 285.468 85.577C284.077 85.577 282.823 84.6084 282.513 83.2796L283.581 83.0312C283.779 83.913 284.5 84.4842 285.468 84.4842C286.598 84.4842 287.418 83.7143 287.418 82.5469C287.418 81.4417 286.611 80.6593 285.468 80.6593C284.847 80.6593 284.375 80.8828 283.991 81.3175ZM292.734 84.4594C293.864 84.4594 294.696 83.6894 294.696 82.5718C294.696 81.4789 293.864 80.6841 292.734 80.6841C291.616 80.6841 290.809 81.4789 290.809 82.5718C290.809 83.6894 291.604 84.4594 292.734 84.4594ZM289.716 82.5718C289.716 81.9881 289.89 81.4417 290.188 80.9822L292.771 76.4494H294.025L292.2 79.641C292.386 79.6037 292.572 79.5913 292.759 79.5913C294.385 79.5913 295.789 80.9201 295.789 82.5718C295.789 84.2483 294.398 85.5522 292.759 85.5522C291.132 85.5522 289.716 84.2483 289.716 82.5718Z" fill="white"/>
<path d="M238.711 122.836L44.1551 122.836" stroke="black" stroke-width="1.10387"/>
<path d="M44.155 120.076V125.595" stroke="black" stroke-width="1.10387"/>
<path d="M238.711 120.076V125.595" stroke="black" stroke-width="1.10387"/>
<rect x="110.525" y="128.907" width="61.8165" height="22.9052" rx="4.41546" fill="#333333"/>
<path d="M126.519 135.344V136.412H121.762V139.33H125.649V140.398H121.762V144.409H120.67V135.344H126.519ZM127.772 135.095H128.865V144.409H127.772V135.095ZM134.892 140.721C134.793 139.851 134.321 139.019 133.092 139.019C132.011 139.019 131.254 139.591 131.105 140.733L134.892 140.721ZM130.024 141.205C130.024 139.454 131.105 137.976 133.067 137.976C135.103 137.976 135.65 139.578 135.699 139.715C136.084 140.721 135.96 141.714 135.96 141.714H131.105C131.278 142.757 131.986 143.391 133.079 143.391C134.42 143.391 134.743 142.658 134.805 142.559L135.762 143.031C135.762 143.031 135.215 144.434 133.067 144.434C131.105 144.434 130.024 142.956 130.024 141.205ZM142.678 138.001L140.269 141.205L142.666 144.397H141.3L139.661 142.124L138.034 144.397H136.668L139.04 141.205L136.643 138.001H138.009L139.661 140.311L141.312 138.001H142.678ZM144.136 137.989H145.228V144.409H144.136V137.989ZM144.024 135.666C144.024 135.319 144.26 135.033 144.682 135.033C145.092 135.033 145.328 135.319 145.328 135.666C145.328 136.039 145.092 136.325 144.682 136.325C144.26 136.325 144.024 136.039 144.024 135.666ZM150.052 143.378C151.344 143.378 152.051 142.472 152.051 141.242C152.051 140.025 151.344 139.106 150.052 139.106C148.984 139.106 148.053 140 148.053 141.242C148.053 142.497 148.984 143.378 150.052 143.378ZM146.96 144.359V135.095H148.053V139.255C148.624 138.336 149.456 138.038 150.114 138.038C152.064 138.038 153.144 139.516 153.144 141.242C153.144 142.981 152.051 144.459 150.102 144.459C149.456 144.459 148.624 144.198 148.053 143.229V144.359H146.96ZM154.307 135.095H155.399V144.409H154.307V135.095ZM161.427 140.721C161.328 139.851 160.856 139.019 159.626 139.019C158.546 139.019 157.788 139.591 157.639 140.733L161.427 140.721ZM156.559 141.205C156.559 139.454 157.639 137.976 159.602 137.976C161.638 137.976 162.185 139.578 162.234 139.715C162.619 140.721 162.495 141.714 162.495 141.714H157.639C157.813 142.757 158.521 143.391 159.614 143.391C160.955 143.391 161.278 142.658 161.34 142.559L162.296 143.031C162.296 143.031 161.75 144.434 159.602 144.434C157.639 144.434 156.559 142.956 156.559 141.205Z" fill="white"/>
<line x1="213.185" y1="26.2471" x2="213.185" y2="114.556" stroke="#007D00" stroke-width="1.37983"/>
<line x1="239.401" y1="26.2471" x2="239.401" y2="114.556" stroke="#007D00" stroke-width="1.37983"/>
<rect x="212.495" y="1.41016" width="27.279" height="19.3798" rx="5.51933" fill="#007D00"/>
<path d="M217.777 16.4102V15.44L221.42 11.4514C221.848 10.9843 222.2 10.5782 222.477 10.2333C222.753 9.8847 222.958 9.55771 223.091 9.25228C223.228 8.94325 223.296 8.61986 223.296 8.28208C223.296 7.89401 223.203 7.55803 223.016 7.27416C222.832 6.99029 222.581 6.7711 222.261 6.61658C221.941 6.46207 221.582 6.38481 221.183 6.38481C220.759 6.38481 220.389 6.47285 220.073 6.64892C219.76 6.8214 219.518 7.06395 219.345 7.37657C219.176 7.68919 219.092 8.05571 219.092 8.47612H217.82C217.82 7.82933 217.969 7.26158 218.267 6.77289C218.565 6.2842 218.971 5.90331 219.485 5.63022C220.003 5.35713 220.583 5.22058 221.226 5.22058C221.873 5.22058 222.446 5.35713 222.946 5.63022C223.445 5.90331 223.837 6.27163 224.121 6.73516C224.405 7.1987 224.547 7.71434 224.547 8.28208C224.547 8.68813 224.473 9.08519 224.326 9.47327C224.182 9.85775 223.93 10.2872 223.571 10.7615C223.215 11.2322 222.721 11.8071 222.089 12.4863L219.609 15.1381V15.2244H224.741V16.4102H217.777ZM230.567 16.5611C229.755 16.5611 229.063 16.3401 228.492 15.8981C227.921 15.4525 227.484 14.8075 227.182 13.9631C226.88 13.1151 226.729 12.091 226.729 10.8908C226.729 9.69785 226.88 8.67914 227.182 7.83472C227.488 6.98669 227.926 6.3399 228.497 5.89433C229.072 5.44516 229.762 5.22058 230.567 5.22058C231.372 5.22058 232.06 5.44516 232.631 5.89433C233.206 6.3399 233.645 6.98669 233.947 7.83472C234.252 8.67914 234.405 9.69785 234.405 10.8908C234.405 12.091 234.254 13.1151 233.952 13.9631C233.65 14.8075 233.214 15.4525 232.642 15.8981C232.071 16.3401 231.379 16.5611 230.567 16.5611ZM230.567 15.3753C231.372 15.3753 231.997 14.9872 232.443 14.211C232.888 13.4349 233.111 12.3282 233.111 10.8908C233.111 9.93501 233.009 9.12112 232.804 8.44917C232.603 7.77722 232.312 7.26518 231.931 6.91303C231.553 6.56089 231.099 6.38481 230.567 6.38481C229.769 6.38481 229.146 6.77828 228.697 7.56522C228.248 8.34856 228.023 9.4571 228.023 10.8908C228.023 11.8466 228.124 12.6587 228.325 13.3271C228.526 13.9955 228.815 14.5039 229.193 14.8525C229.574 15.201 230.032 15.3753 230.567 15.3753Z" fill="white"/>
<g opacity="0.6">
<mask id="path-50-inside-2_1282_48522" fill="white">
<path d="M374.5 81.116C374.5 62.8265 389.327 48 407.616 48H519.81C538.099 48 552.925 62.8265 552.925 81.116V81.116C552.925 99.4054 538.099 114.232 519.809 114.232H407.616C389.327 114.232 374.5 99.4054 374.5 81.116V81.116Z"/>
</mask>
<path d="M374.5 81.116C374.5 62.8265 389.327 48 407.616 48H519.81C538.099 48 552.925 62.8265 552.925 81.116V81.116C552.925 99.4054 538.099 114.232 519.809 114.232H407.616C389.327 114.232 374.5 99.4054 374.5 81.116V81.116Z" fill="white"/>
<path d="M407.616 48V49.3798H519.81V48V46.6202H407.616V48ZM519.809 114.232V112.852H407.616V114.232V115.612H519.809V114.232ZM407.616 114.232V112.852C390.089 112.852 375.88 98.6434 375.88 81.116H374.5H373.12C373.12 100.167 388.565 115.612 407.616 115.612V114.232ZM552.925 81.116H551.546C551.546 98.6433 537.337 112.852 519.809 112.852V114.232V115.612C538.861 115.612 554.305 100.167 554.305 81.116H552.925ZM519.81 48V49.3798C537.337 49.3798 551.546 63.5886 551.546 81.116H552.925H554.305C554.305 62.0645 538.861 46.6202 519.81 46.6202V48ZM407.616 48V46.6202C388.565 46.6202 373.12 62.0645 373.12 81.116H374.5H375.88C375.88 63.5886 390.089 49.3798 407.616 49.3798V48Z" fill="#E0E0E0" mask="url(#path-50-inside-2_1282_48522)"/>
<path d="M413.135 66.2822C421.327 66.2823 427.969 72.9235 427.969 81.1152C427.969 89.3073 421.327 95.9491 413.135 95.9492C404.943 95.949 398.302 89.3072 398.302 81.1152C398.303 72.9236 404.944 66.2825 413.135 66.2822ZM413.135 68.3525C406.087 68.3528 400.373 74.0667 400.373 81.1152C400.373 88.1641 406.086 93.8787 413.135 93.8789C420.184 93.8788 425.899 88.1642 425.899 81.1152C425.899 74.0666 420.184 68.3526 413.135 68.3525ZM413.135 80.21C413.707 80.21 414.17 80.6737 414.17 81.2451V87.0518C414.17 87.6233 413.707 88.0869 413.135 88.0869C412.564 88.0868 412.1 87.6232 412.1 87.0518V81.2451C412.1 80.6738 412.564 80.2101 413.135 80.21ZM413.252 74.4082C413.774 74.4612 414.181 74.9017 414.181 75.4375C414.181 75.9734 413.774 76.4138 413.252 76.4668L413.147 76.4727H413.135C412.564 76.4725 412.1 76.009 412.1 75.4375C412.1 74.8661 412.564 74.4025 413.135 74.4023H413.147L413.252 74.4082Z" fill="#333333"/>
<path d="M444.706 89.2928C439.893 89.2928 436.847 85.6059 436.847 81.1463C436.847 76.6867 439.893 72.9998 444.706 72.9998C446.892 72.9998 448.857 73.927 450.27 75.3841L449.1 76.488C447.974 75.3179 446.428 74.6335 444.706 74.6335C440.843 74.6335 438.458 77.5256 438.458 81.1463C438.458 84.7891 440.843 87.6812 444.706 87.6812C446.428 87.6812 447.974 86.9747 449.1 85.8046L450.27 86.9085C448.857 88.3656 446.892 89.2928 444.706 89.2928ZM460.733 82.8021C460.733 80.7048 459.541 79.4905 457.863 79.4905C456.119 79.4905 454.595 81.1242 454.595 83.2436V89.1162H453.006V72.7348H454.595V79.9983C455.147 78.8503 456.406 77.9451 457.929 77.9451C460.203 77.9451 462.322 79.8879 462.322 82.7138V89.1162H460.733V82.8021ZM465.302 77.8789H466.892V89.1162H465.302V77.8789ZM465.082 73.7946C465.082 73.2426 465.435 72.8011 466.097 72.8011C466.737 72.8011 467.091 73.2426 467.091 73.7946C467.091 74.3686 466.737 74.8101 466.097 74.8101C465.435 74.8101 465.082 74.3686 465.082 73.7946ZM475.291 87.7474C477.72 87.7474 479.088 85.9371 479.088 83.5748C479.088 81.2567 477.72 79.4463 475.291 79.4463C473.26 79.4463 471.516 81.2567 471.516 83.5748C471.516 85.9371 473.26 87.7474 475.291 87.7474ZM469.904 94.194V77.8789H471.494V80.2632C472.222 78.6736 473.944 77.9009 475.313 77.9009C478.757 77.9009 480.678 80.5281 480.678 83.5748C480.678 86.6656 478.757 89.2928 475.313 89.2928C473.9 89.2928 472.222 88.3435 471.494 86.9085V94.194H469.904ZM483.818 86.0695C484.26 87.0851 485.297 87.6812 486.644 87.615C488.587 87.5708 489.36 85.1644 487.373 84.5241C486.644 84.3034 485.319 83.9501 484.238 83.2436C482.56 82.1177 482.582 80.4619 483.09 79.4463C483.774 78.0996 485.518 77.7022 486.534 77.7906C487.483 77.9009 488.808 78.2321 489.647 79.358L488.366 80.2853C487.902 79.645 487.152 79.4463 486.401 79.358C485.717 79.2918 484.812 79.5347 484.48 80.1528C484.193 80.7489 484.216 81.345 485.121 81.9411C485.982 82.5151 487.086 82.78 487.858 83.045C491.567 84.2371 490.375 89.0941 486.688 89.1824C484.834 89.2708 483.068 88.2994 482.383 86.6877L483.818 86.0695Z" fill="#1A1A1A"/>
<path fill-rule="evenodd" clip-rule="evenodd" d="M526.75 72.4496C527.155 72.8537 527.155 73.509 526.75 73.9131L510.882 89.7812C510.478 90.1853 509.823 90.1853 509.419 89.7812L501.83 82.1921C501.426 81.788 501.426 81.1327 501.83 80.7286C502.234 80.3244 502.889 80.3244 503.293 80.7286L510.151 87.5859L525.287 72.4496C525.691 72.0454 526.346 72.0454 526.75 72.4496Z" fill="#333333"/>
</g>
<rect x="374.626" y="46.2554" width="179.378" height="67.6118" stroke="#0D69D4" stroke-width="1.37983"/>
<rect x="430.509" y="57.9844" width="5.51933" height="44.1546" fill="#C54600" fill-opacity="0.3"/>
<line x1="431.198" y1="24.8682" x2="431.198" y2="113.177" stroke="#C54600" stroke-width="1.37983"/>
<line x1="435.338" y1="24.8682" x2="435.338" y2="113.177" stroke="#C54600" stroke-width="1.37983"/>
<rect x="424.129" width="18.279" height="19.3798" rx="5.51933" fill="#C54600"/>
<path d="M429.152 12.7362V11.6367L434.003 3.96134H434.801V5.66457H434.262L430.597 11.4642V11.5504H437.129V12.7362H429.152ZM434.348 15V12.402V11.89V3.96134H435.62V15H434.348Z" fill="white"/>
<rect x="397.393" y="63.5039" width="33.116" height="33.116" fill="#0D69D4" fill-opacity="0.2"/>
<rect x="492.602" y="57.9834" width="5.51933" height="44.1546" fill="#C54600" fill-opacity="0.3"/>
<line x1="493.292" y1="24.8682" x2="493.292" y2="113.177" stroke="#C54600" stroke-width="1.37983"/>
<line x1="497.431" y1="24.8682" x2="497.431" y2="113.177" stroke="#C54600" stroke-width="1.37983"/>
<rect x="486.222" width="18.279" height="19.3798" rx="5.51933" fill="#C54600"/>
<path d="M491.245 12.7362V11.6367L496.096 3.96134H496.894V5.66457H496.355L492.69 11.4642V11.5504H499.222V12.7362H491.245ZM496.441 15V12.402V11.89V3.96134H497.713V15H496.441Z" fill="white"/>
<rect x="436.028" y="63.5039" width="56.5731" height="33.116" fill="#0D69D4" fill-opacity="0.2"/>
<rect x="498.121" y="63.5039" width="33.116" height="33.116" fill="#0D69D4" fill-opacity="0.2"/>
<rect x="375.316" y="46.9463" width="177.998" height="11.0387" fill="#007D00" fill-opacity="0.3"/>
<line x1="353.239" y1="47.6363" x2="553.314" y2="47.6363" stroke="#007D00" stroke-width="1.37983"/>
<line x1="353.239" y1="57.2945" x2="553.314" y2="57.2945" stroke="#007D00" stroke-width="1.37983"/>
<rect x="330.99" y="42.7754" width="18.279" height="19.3798" rx="5.51933" fill="#007D00"/>
<path d="M339.809 57.9263C339.068 57.9263 338.414 57.7952 337.847 57.5328C337.283 57.2669 336.842 56.9022 336.526 56.4387C336.21 55.9715 336.054 55.4397 336.057 54.8432C336.054 54.3761 336.145 53.9449 336.332 53.5497C336.519 53.1508 336.774 52.8184 337.097 52.5525C337.424 52.283 337.789 52.1123 338.192 52.0405V51.9758C337.663 51.8392 337.243 51.5428 336.93 51.0864C336.618 50.6265 336.463 50.1037 336.467 49.518C336.463 48.9574 336.605 48.4561 336.893 48.0142C337.18 47.5722 337.575 47.2236 338.078 46.9685C338.585 46.7134 339.162 46.5858 339.809 46.5858C340.448 46.5858 341.02 46.7134 341.523 46.9685C342.026 47.2236 342.421 47.5722 342.708 48.0142C342.999 48.4561 343.147 48.9574 343.15 49.518C343.147 50.1037 342.987 50.6265 342.671 51.0864C342.358 51.5428 341.943 51.8392 341.426 51.9758V52.0405C341.824 52.1123 342.184 52.283 342.504 52.5525C342.823 52.8184 343.079 53.1508 343.269 53.5497C343.459 53.9449 343.556 54.3761 343.56 54.8432C343.556 55.4397 343.395 55.9715 343.075 56.4387C342.759 56.9022 342.319 57.2669 341.754 57.5328C341.194 57.7952 340.545 57.9263 339.809 57.9263ZM339.809 56.7405C340.308 56.7405 340.739 56.6597 341.102 56.498C341.465 56.3363 341.745 56.1081 341.943 55.8134C342.141 55.5188 342.241 55.1738 342.245 54.7786C342.241 54.3617 342.133 53.9934 341.921 53.6736C341.709 53.3538 341.42 53.1023 341.054 52.919C340.691 52.7358 340.276 52.6441 339.809 52.6441C339.338 52.6441 338.917 52.7358 338.547 52.919C338.181 53.1023 337.892 53.3538 337.68 53.6736C337.471 53.9934 337.369 54.3617 337.372 54.7786C337.369 55.1738 337.464 55.5188 337.658 55.8134C337.856 56.1081 338.138 56.3363 338.504 56.498C338.871 56.6597 339.306 56.7405 339.809 56.7405ZM339.809 51.5015C340.204 51.5015 340.554 51.4224 340.86 51.2643C341.169 51.1062 341.411 50.8852 341.587 50.6013C341.763 50.3175 341.853 49.9851 341.857 49.6042C341.853 49.2305 341.765 48.9053 341.593 48.6286C341.42 48.3483 341.181 48.1327 340.876 47.9818C340.57 47.8273 340.215 47.75 339.809 47.75C339.395 47.75 339.034 47.8273 338.725 47.9818C338.416 48.1327 338.177 48.3483 338.008 48.6286C337.839 48.9053 337.757 49.2305 337.76 49.6042C337.757 49.9851 337.841 50.3175 338.014 50.6013C338.19 50.8852 338.432 51.1062 338.741 51.2643C339.05 51.4224 339.406 51.5015 339.809 51.5015Z" fill="white"/>
<rect x="375.316" y="102.14" width="177.998" height="11.0387" fill="#007D00" fill-opacity="0.3"/>
<line x1="353.239" y1="102.83" x2="553.314" y2="102.83" stroke="#007D00" stroke-width="1.37983"/>
<line x1="353.239" y1="112.488" x2="553.314" y2="112.488" stroke="#007D00" stroke-width="1.37983"/>
<rect x="330.99" y="97.9688" width="18.279" height="19.3798" rx="5.51933" fill="#007D00"/>
<path d="M339.809 113.12C339.068 113.12 338.414 112.989 337.847 112.726C337.283 112.46 336.842 112.096 336.526 111.632C336.21 111.165 336.054 110.633 336.057 110.037C336.054 109.569 336.145 109.138 336.332 108.743C336.519 108.344 336.774 108.012 337.097 107.746C337.424 107.476 337.789 107.306 338.192 107.234V107.169C337.663 107.033 337.243 106.736 336.93 106.28C336.618 105.82 336.463 105.297 336.467 104.711C336.463 104.151 336.605 103.649 336.893 103.208C337.18 102.766 337.575 102.417 338.078 102.162C338.585 101.907 339.162 101.779 339.809 101.779C340.448 101.779 341.02 101.907 341.523 102.162C342.026 102.417 342.421 102.766 342.708 103.208C342.999 103.649 343.147 104.151 343.15 104.711C343.147 105.297 342.987 105.82 342.671 106.28C342.358 106.736 341.943 107.033 341.426 107.169V107.234C341.824 107.306 342.184 107.476 342.504 107.746C342.823 108.012 343.079 108.344 343.269 108.743C343.459 109.138 343.556 109.569 343.56 110.037C343.556 110.633 343.395 111.165 343.075 111.632C342.759 112.096 342.319 112.46 341.754 112.726C341.194 112.989 340.545 113.12 339.809 113.12ZM339.809 111.934C340.308 111.934 340.739 111.853 341.102 111.691C341.465 111.53 341.745 111.301 341.943 111.007C342.141 110.712 342.241 110.367 342.245 109.972C342.241 109.555 342.133 109.187 341.921 108.867C341.709 108.547 341.42 108.296 341.054 108.112C340.691 107.929 340.276 107.837 339.809 107.837C339.338 107.837 338.917 107.929 338.547 108.112C338.181 108.296 337.892 108.547 337.68 108.867C337.471 109.187 337.369 109.555 337.372 109.972C337.369 110.367 337.464 110.712 337.658 111.007C337.856 111.301 338.138 111.53 338.504 111.691C338.871 111.853 339.306 111.934 339.809 111.934ZM339.809 106.695C340.204 106.695 340.554 106.616 340.86 106.458C341.169 106.3 341.411 106.079 341.587 105.795C341.763 105.511 341.853 105.178 341.857 104.798C341.853 104.424 341.765 104.099 341.593 103.822C341.42 103.542 341.181 103.326 340.876 103.175C340.57 103.021 340.215 102.943 339.809 102.943C339.395 102.943 339.034 103.021 338.725 103.175C338.416 103.326 338.177 103.542 338.008 103.822C337.839 104.099 337.757 104.424 337.76 104.798C337.757 105.178 337.841 105.511 338.014 105.795C338.19 106.079 338.432 106.3 338.741 106.458C339.05 106.616 339.406 106.695 339.809 106.695Z" fill="white"/>
<rect x="375.316" y="57.9844" width="22.0773" height="44.1546" fill="#007D00" fill-opacity="0.3"/>
<line x1="376.006" y1="24.8682" x2="376.006" y2="113.177" stroke="#007D00" stroke-width="1.37983"/>
<line x1="396.704" y1="24.8682" x2="396.704" y2="113.177" stroke="#007D00" stroke-width="1.37983"/>
<rect x="373.715" width="25.279" height="19.3798" rx="5.51933" fill="#007D00"/>
<path d="M382.878 3.96134V15H381.541V5.36274H381.477L378.782 7.15221V5.79393L381.541 3.96134H382.878ZM389.718 15.1509C389.265 15.1437 388.813 15.0575 388.36 14.8922C387.907 14.7269 387.494 14.4484 387.12 14.0568C386.746 13.6615 386.446 13.1279 386.22 12.4559C385.994 11.7804 385.88 10.9324 385.88 9.91187C385.88 8.93449 385.972 8.0685 386.155 7.3139C386.339 6.55572 386.604 5.9179 386.953 5.40047C387.302 4.87944 387.722 4.48417 388.214 4.21467C388.71 3.94517 389.269 3.81043 389.891 3.81043C390.509 3.81043 391.058 3.93439 391.54 4.18233C392.025 4.42668 392.42 4.76804 392.726 5.20643C393.031 5.64481 393.229 6.14967 393.319 6.72101H392.003C391.881 6.22513 391.644 5.8137 391.292 5.48671C390.94 5.15971 390.473 4.99622 389.891 4.99622C389.035 4.99622 388.362 5.36813 387.869 6.11194C387.381 6.85576 387.134 7.89961 387.131 9.24351H387.217C387.418 8.93808 387.657 8.67757 387.934 8.46197C388.214 8.24278 388.523 8.07389 388.861 7.95531C389.199 7.83673 389.556 7.77744 389.934 7.77744C390.566 7.77744 391.145 7.93555 391.669 8.25176C392.194 8.56438 392.614 8.99737 392.93 9.55074C393.247 10.1005 393.405 10.7311 393.405 11.4426C393.405 12.1254 393.252 12.7506 392.947 13.3183C392.641 13.8825 392.212 14.3316 391.658 14.6658C391.109 14.9964 390.462 15.1581 389.718 15.1509ZM389.718 13.9651C390.171 13.9651 390.577 13.8519 390.936 13.6256C391.299 13.3992 391.585 13.0955 391.793 12.7147C392.005 12.3338 392.111 11.9098 392.111 11.4426C392.111 10.9863 392.009 10.5712 391.804 10.1975C391.603 9.82024 391.324 9.5202 390.969 9.29741C390.616 9.07463 390.214 8.96324 389.761 8.96324C389.42 8.96324 389.102 9.03151 388.807 9.16805C388.513 9.30101 388.254 9.48427 388.031 9.71783C387.812 9.9514 387.639 10.2191 387.514 10.5209C387.388 10.8192 387.325 11.1336 387.325 11.4642C387.325 11.9026 387.427 12.3122 387.632 12.6931C387.841 13.074 388.124 13.3812 388.484 13.6148C388.847 13.8483 389.258 13.9651 389.718 13.9651Z" fill="white"/>
<rect x="531.236" y="57.9844" width="22.0773" height="44.1546" fill="#007D00" fill-opacity="0.3"/>
<line x1="531.926" y1="24.8682" x2="531.926" y2="113.177" stroke="#007D00" stroke-width="1.37983"/>
<line x1="552.624" y1="24.8682" x2="552.624" y2="113.177" stroke="#007D00" stroke-width="1.37983"/>
<rect x="529.635" width="25.279" height="19.3798" rx="5.51933" fill="#007D00"/>
<path d="M538.798 3.96134V15H537.462V5.36274H537.397L534.702 7.15221V5.79393L537.462 3.96134H538.798ZM545.638 15.1509C545.185 15.1437 544.733 15.0575 544.28 14.8922C543.827 14.7269 543.414 14.4484 543.04 14.0568C542.667 13.6615 542.367 13.1279 542.14 12.4559C541.914 11.7804 541.801 10.9324 541.801 9.91187C541.801 8.93449 541.892 8.0685 542.075 7.3139C542.259 6.55572 542.525 5.9179 542.873 5.40047C543.222 4.87944 543.642 4.48417 544.134 4.21467C544.63 3.94517 545.189 3.81043 545.811 3.81043C546.429 3.81043 546.979 3.93439 547.46 4.18233C547.945 4.42668 548.34 4.76804 548.646 5.20643C548.951 5.64481 549.149 6.14967 549.239 6.72101H547.924C547.801 6.22513 547.564 5.8137 547.212 5.48671C546.86 5.15971 546.393 4.99622 545.811 4.99622C544.955 4.99622 544.282 5.36813 543.789 6.11194C543.301 6.85576 543.055 7.89961 543.051 9.24351H543.137C543.339 8.93808 543.577 8.67757 543.854 8.46197C544.134 8.24278 544.443 8.07389 544.781 7.95531C545.119 7.83673 545.477 7.77744 545.854 7.77744C546.486 7.77744 547.065 7.93555 547.589 8.25176C548.114 8.56438 548.534 8.99737 548.851 9.55074C549.167 10.1005 549.325 10.7311 549.325 11.4426C549.325 12.1254 549.172 12.7506 548.867 13.3183C548.561 13.8825 548.132 14.3316 547.579 14.6658C547.029 14.9964 546.382 15.1581 545.638 15.1509ZM545.638 13.9651C546.091 13.9651 546.497 13.8519 546.856 13.6256C547.219 13.3992 547.505 13.0955 547.713 12.7147C547.925 12.3338 548.031 11.9098 548.031 11.4426C548.031 10.9863 547.929 10.5712 547.724 10.1975C547.523 9.82024 547.244 9.5202 546.889 9.29741C546.537 9.07463 546.134 8.96324 545.681 8.96324C545.34 8.96324 545.022 9.03151 544.727 9.16805C544.433 9.30101 544.174 9.48427 543.951 9.71783C543.732 9.9514 543.559 10.2191 543.434 10.5209C543.308 10.8192 543.245 11.1336 543.245 11.4642C543.245 11.9026 543.347 12.3122 543.552 12.6931C543.761 13.074 544.045 13.3812 544.404 13.6148C544.767 13.8483 545.178 13.9651 545.638 13.9651Z" fill="white"/>
<path d="M562.973 46.9453V113.177" stroke="black" stroke-width="1.10387"/>
<path d="M560.213 113.178L565.732 113.178" stroke="black" stroke-width="1.10387"/>
<path d="M560.213 46.9453L565.732 46.9453" stroke="black" stroke-width="1.10387"/>
<rect x="569.044" y="68.0615" width="51.0387" height="24" rx="4.41546" fill="#333333"/>
<path d="M580.288 75.083V80.6837H581.53V81.7517H580.288V84.0739H579.195V81.7517H575.159V80.6837L579.232 75.083H580.288ZM576.475 80.6837H579.195V76.9333L576.475 80.6837ZM586.005 83.068C587.371 83.068 588.191 81.9752 588.191 79.5784C588.191 77.1693 587.384 76.0889 586.005 76.0889C584.627 76.0889 583.807 77.1693 583.807 79.5784C583.807 81.9752 584.627 83.068 586.005 83.068ZM582.714 79.5784C582.714 76.7098 584.018 74.996 586.005 74.996C587.98 74.996 589.284 76.6974 589.284 79.5784C589.284 82.4347 587.992 84.1609 586.005 84.1609C584.018 84.1609 582.714 82.4347 582.714 79.5784ZM590.824 79.5164C591.32 78.3242 592.426 78.0634 592.947 78.0882C593.63 78.1379 594.04 78.4235 594.152 78.498L595.207 79.1562C595.369 79.2556 595.506 79.3798 595.853 79.3922C596.164 79.4046 596.636 79.3052 596.884 78.6595L597.94 79.0693C597.48 80.2739 596.338 80.5471 595.791 80.5223C595.133 80.485 594.711 80.1745 594.611 80.1124L593.556 79.4543C593.382 79.3549 593.258 79.2432 592.885 79.2183C592.587 79.2059 592.128 79.3177 591.867 79.951L590.824 79.5164ZM604.64 75.083V80.6837H605.882V81.7517H604.64V84.0739H603.547V81.7517H599.511V80.6837L603.584 75.083H604.64ZM600.827 80.6837H603.547V76.9333L600.827 80.6837ZM610.071 83.155C611.201 83.155 611.971 82.3354 611.971 81.5157C611.971 80.7085 611.201 79.9013 610.071 79.9013C608.954 79.9013 608.171 80.7085 608.171 81.5157C608.171 82.3354 608.941 83.155 610.071 83.155ZM607.078 81.5157C607.078 80.5843 607.749 79.7896 608.556 79.3301C607.898 78.883 607.327 78.2 607.327 77.3928C607.327 75.9523 608.643 74.9215 610.071 74.9215C611.512 74.9215 612.841 75.9523 612.841 77.3928C612.841 78.2 612.269 78.883 611.611 79.3301C612.406 79.7896 613.064 80.5843 613.064 81.5157C613.064 83.068 611.648 84.2105 610.071 84.2105C608.494 84.2105 607.078 83.068 607.078 81.5157ZM608.42 77.3804C608.42 78.0758 609.09 78.7712 610.071 78.7712C611.065 78.7712 611.748 78.0758 611.748 77.3804C611.748 76.6725 611.065 75.9771 610.071 75.9771C609.09 75.9771 608.42 76.6725 608.42 77.3804Z" fill="white"/>
<path d="M551.934 124.216L375.316 124.216" stroke="black" stroke-width="1.10387"/>
<path d="M375.316 121.456V126.975" stroke="black" stroke-width="1.10387"/>
<path d="M551.934 121.456V126.975" stroke="black" stroke-width="1.10387"/>
<rect x="432.717" y="130.287" width="61.8165" height="22.9052" rx="4.41546" fill="#333333"/>
<path d="M448.71 136.723V137.791H443.954V140.71H447.841V141.778H443.954V145.789H442.861V136.723H448.71ZM449.963 136.475H451.056V145.789H449.963V136.475ZM457.084 142.101C456.984 141.231 456.512 140.399 455.283 140.399C454.203 140.399 453.445 140.971 453.296 142.113L457.084 142.101ZM452.216 142.585C452.216 140.834 453.296 139.356 455.258 139.356C457.295 139.356 457.841 140.958 457.891 141.095C458.276 142.101 458.152 143.094 458.152 143.094H453.296C453.47 144.137 454.178 144.771 455.271 144.771C456.612 144.771 456.935 144.038 456.997 143.939L457.953 144.41C457.953 144.41 457.407 145.814 455.258 145.814C453.296 145.814 452.216 144.336 452.216 142.585ZM464.87 139.381L462.46 142.585L464.857 145.777H463.491L461.852 143.504L460.225 145.777H458.859L461.231 142.585L458.834 139.381H460.2L461.852 141.691L463.504 139.381H464.87ZM466.327 139.369H467.42V145.789H466.327V139.369ZM466.215 137.046C466.215 136.699 466.451 136.413 466.873 136.413C467.283 136.413 467.519 136.699 467.519 137.046C467.519 137.419 467.283 137.704 466.873 137.704C466.451 137.704 466.215 137.419 466.215 137.046ZM472.244 144.758C473.535 144.758 474.243 143.852 474.243 142.622C474.243 141.405 473.535 140.486 472.244 140.486C471.176 140.486 470.244 141.38 470.244 142.622C470.244 143.876 471.176 144.758 472.244 144.758ZM469.151 145.739V136.475H470.244V140.635C470.815 139.716 471.647 139.418 472.306 139.418C474.255 139.418 475.336 140.896 475.336 142.622C475.336 144.361 474.243 145.839 472.293 145.839C471.647 145.839 470.815 145.578 470.244 144.609V145.739H469.151ZM476.498 136.475H477.591V145.789H476.498V136.475ZM483.618 142.101C483.519 141.231 483.047 140.399 481.818 140.399C480.737 140.399 479.98 140.971 479.831 142.113L483.618 142.101ZM478.75 142.585C478.75 140.834 479.831 139.356 481.793 139.356C483.83 139.356 484.376 140.958 484.426 141.095C484.811 142.101 484.686 143.094 484.686 143.094H479.831C480.005 144.137 480.713 144.771 481.805 144.771C483.147 144.771 483.469 144.038 483.532 143.939L484.488 144.41C484.488 144.41 483.941 145.814 481.793 145.814C479.831 145.814 478.75 144.336 478.75 142.585Z" fill="white"/>
</svg>
