<svg width="180" height="8" viewBox="0 0 180 8" fill="none" xmlns="http://www.w3.org/2000/svg">
<g clip-path="url(#clip0_1133_62618)">
<path d="M0 4C0 1.79086 1.79086 0 4 0H176C178.209 0 180 1.79086 180 4C180 6.20913 178.209 7.99999 176 7.99999H4C1.79086 7.99999 0 6.20913 0 4Z" fill="#F5F5F5"/>
<path d="M0 4C0 1.79086 1.79086 0 4 0H119C121.209 0 123 1.79086 123 4C123 6.20914 121.209 7.99999 119 7.99999H4C1.79087 7.99999 0 6.20914 0 4Z" fill="#FFC77D"/>
<g opacity="0.7">
<g clip-path="url(#clip1_1133_62618)">
<path d="M170 4.00293C170 2.89836 170.895 2.00293 172 2.00293C173.105 2.00293 174 2.89836 174 4.00293C174 5.1075 173.105 6.00293 172 6.00293C170.895 6.00293 170 5.1075 170 4.00293Z" fill="#FF8120"/>
</g>
</g>
<g clip-path="url(#clip2_1133_62618)">
<path d="M115 4.00293C115 2.89836 115.895 2.00293 117 2.00293C118.105 2.00293 119 2.89836 119 4.00293C119 5.1075 118.105 6.00293 117 6.00293C115.895 6.00293 115 5.1075 115 4.00293Z" fill="#FF8120"/>
</g>
<g clip-path="url(#clip3_1133_62618)">
<path d="M4 4.00293C4 2.89836 4.89543 2.00293 6 2.00293C7.10457 2.00293 8 2.89836 8 4.00293C8 5.1075 7.10457 6.00293 6 6.00293C4.89543 6.00293 4 5.1075 4 4.00293Z" fill="#FF8120"/>
</g>
<g clip-path="url(#clip4_1133_62618)">
<path d="M60 4.00293C60 2.89836 60.8954 2.00293 62 2.00293C63.1046 2.00293 64 2.89836 64 4.00293C64 5.1075 63.1046 6.00293 62 6.00293C60.8954 6.00293 60 5.1075 60 4.00293Z" fill="#FF8120"/>
</g>
</g>
<defs>
<clipPath id="clip0_1133_62618">
<path d="M0 4C0 1.79086 1.79086 0 4 0H176C178.209 0 180 1.79086 180 4C180 6.20913 178.209 7.99999 176 7.99999H4C1.79086 7.99999 0 6.20913 0 4Z" fill="white"/>
</clipPath>
<clipPath id="clip1_1133_62618">
<path d="M170 4.00293C170 2.89836 170.895 2.00293 172 2.00293C173.105 2.00293 174 2.89836 174 4.00293C174 5.1075 173.105 6.00293 172 6.00293C170.895 6.00293 170 5.1075 170 4.00293Z" fill="white"/>
</clipPath>
<clipPath id="clip2_1133_62618">
<path d="M115 4.00293C115 2.89836 115.895 2.00293 117 2.00293C118.105 2.00293 119 2.89836 119 4.00293C119 5.1075 118.105 6.00293 117 6.00293C115.895 6.00293 115 5.1075 115 4.00293Z" fill="white"/>
</clipPath>
<clipPath id="clip3_1133_62618">
<path d="M4 4.00293C4 2.89836 4.89543 2.00293 6 2.00293C7.10457 2.00293 8 2.89836 8 4.00293C8 5.1075 7.10457 6.00293 6 6.00293C4.89543 6.00293 4 5.1075 4 4.00293Z" fill="white"/>
</clipPath>
<clipPath id="clip4_1133_62618">
<path d="M60 4.00293C60 2.89836 60.8954 2.00293 62 2.00293C63.1046 2.00293 64 2.89836 64 4.00293C64 5.1075 63.1046 6.00293 62 6.00293C60.8954 6.00293 60 5.1075 60 4.00293Z" fill="white"/>
</clipPath>
</defs>
</svg>
