<svg width="470" height="650" viewBox="0 0 470 650" fill="none" xmlns="http://www.w3.org/2000/svg">
<g opacity="0.6">
<rect width="397.392" height="61.8165" transform="translate(31 35.8643)" fill="white"/>
<path fill-rule="evenodd" clip-rule="evenodd" d="M61.5848 59.3682C62.0158 59.7993 62.0158 60.4983 61.5848 60.9293L55.7421 66.772L61.5848 72.6146C62.0158 73.0457 62.0158 73.7446 61.5848 74.1757C61.1537 74.6068 60.4547 74.6068 60.0237 74.1757L53.4005 67.5525C52.9694 67.1214 52.9694 66.4225 53.4005 65.9914L60.0237 59.3682C60.4547 58.9372 61.1537 58.9372 61.5848 59.3682Z" fill="#555555"/>
<path d="M120.524 62.6868H120.414C120.414 62.5765 111.472 55.8429 111.472 55.8429C110.92 55.4013 110.037 55.4013 109.485 55.8429L110.479 57.1675L119.42 63.9011V74.6086C119.42 75.0501 119.199 75.4917 118.868 75.8228C118.537 76.154 118.096 76.3748 117.654 76.3748H117.433H115.115V69.1997C115.115 68.3166 114.453 67.6542 113.68 67.5439H113.459H107.499C106.615 67.5439 105.953 68.2062 105.843 68.9789V69.1997V76.3748H103.304C102.862 76.3748 102.421 76.154 102.09 75.8228C101.758 75.4917 101.538 75.0501 101.538 74.6086V74.3878V63.9011L110.479 57.1675L109.485 55.8429L100.544 62.5765C100.103 62.9076 99.8818 63.3492 99.8818 63.9011V74.3878C99.8818 75.3813 100.323 76.2644 100.986 76.9267C101.648 77.589 102.641 77.9202 103.525 77.9202H117.433C118.427 77.9202 119.31 77.589 119.972 76.9267C120.635 76.2644 121.076 75.3813 121.076 74.3878V63.9011C121.076 63.4596 120.855 63.018 120.524 62.6868ZM113.459 76.3748H107.499V69.1997H113.459V76.3748Z" fill="#333333"/>
<path d="M154.434 58.5898V61.1949H149.82V75.0153H147.171V61.1949H142.513V58.5898H154.434ZM162.619 68.1934C162.398 66.7142 161.426 65.6545 159.682 65.6545C158.071 65.6545 156.768 66.4935 156.503 68.2155L162.619 68.1934ZM154.03 69.1869C154.03 65.9857 156.062 63.2923 159.66 63.2923C163.369 63.2923 164.473 66.2948 164.539 66.4493C165.246 68.2376 165.091 70.3349 165.091 70.3349H156.503C156.901 71.7699 157.982 72.6751 159.682 72.6751C161.758 72.6751 162.221 71.5271 162.287 71.4388L164.605 72.4764C164.605 72.4764 163.546 75.0595 159.66 75.0595C156.062 75.0595 154.03 72.366 154.03 69.1869ZM177.898 63.3585L173.57 69.1869L177.831 74.9932H174.564L171.959 71.218L169.376 74.9932H166.108L170.303 69.1869L165.998 63.3585H169.287L171.959 67.2441L174.586 63.3585H177.898ZM186.651 74.7062C186.144 74.8166 185.018 75.0153 184.157 74.9491C182.435 74.8166 180.668 73.2933 180.668 71.218V65.8311H178.615V63.226H180.668V59.0976H183.318V63.226H186.431V65.8311H183.318V71.218C183.318 71.9245 183.737 72.2777 184.4 72.3219C184.885 72.344 185.658 72.2115 186.077 72.1232L186.651 74.7062Z" fill="#333333"/>
<path d="M348.914 53.5254C356.23 53.5255 362.16 59.4569 362.16 66.7725C362.16 74.0881 356.23 80.0184 348.914 80.0186C341.599 80.0183 335.667 74.088 335.667 66.7725C335.667 59.4569 341.599 53.5256 348.914 53.5254ZM348.914 55.1816C342.513 55.1819 337.323 60.3714 337.323 66.7725L337.327 67.0713C337.483 73.2347 342.451 78.2028 348.614 78.3594L348.914 78.3633C355.215 78.3632 360.342 73.3343 360.501 67.0713L360.505 66.7725C360.505 60.4713 355.476 55.3442 349.213 55.1855L348.914 55.1816ZM349.054 67.916C349.058 67.9168 349.063 67.9181 349.067 67.9189C349.071 67.9196 349.075 67.9202 349.078 67.9209C349.115 67.9285 349.15 67.9391 349.185 67.9512C349.191 67.9534 349.198 67.9556 349.204 67.958C349.33 68.0061 349.437 68.0855 349.521 68.1826C349.536 68.1989 349.55 68.2159 349.562 68.2334C349.579 68.256 349.595 68.2795 349.609 68.3037C349.621 68.3226 349.631 68.3423 349.641 68.3623C349.671 68.4254 349.697 68.4917 349.71 68.5615C349.797 68.9712 349.982 69.2299 350.217 69.4131C350.471 69.6108 350.824 69.7522 351.268 69.835C351.948 69.9616 352.709 69.9323 353.377 69.876L354.008 69.8154L354.091 69.8105C354.5 69.8109 354.852 70.1212 354.895 70.5371C354.937 70.9532 354.655 71.3282 354.254 71.4111L354.172 71.4238L353.527 71.4863C352.8 71.5484 351.853 71.5892 350.971 71.4248C350.373 71.3134 349.747 71.0983 349.222 70.6885C349.113 70.6036 349.01 70.5104 348.914 70.4111C348.818 70.5101 348.717 70.6038 348.608 70.6885C348.083 71.0984 347.457 71.3133 346.859 71.4248C345.977 71.5893 345.03 71.5484 344.303 71.4863L343.658 71.4238L343.576 71.4111C343.175 71.3285 342.893 70.9535 342.936 70.5371C342.978 70.121 343.33 69.8105 343.739 69.8105L343.822 69.8154L344.453 69.876C345.121 69.9323 345.882 69.9617 346.562 69.835C347.006 69.7521 347.36 69.6108 347.613 69.4131C347.848 69.2299 348.032 68.971 348.119 68.5615C348.133 68.4895 348.159 68.4213 348.191 68.3564C348.2 68.3385 348.21 68.3208 348.22 68.3037C348.233 68.2812 348.247 68.2594 348.263 68.2383C348.278 68.2173 348.294 68.1971 348.312 68.1777C348.396 68.083 348.501 68.0053 348.624 67.958C348.631 67.9555 348.638 67.9535 348.645 67.9512C348.679 67.939 348.715 67.9285 348.752 67.9209L348.776 67.916C348.8 67.9119 348.825 67.9121 348.85 67.9102C348.868 67.9086 348.886 67.9045 348.904 67.9043H348.925L349.054 67.916ZM345.032 64.1855C345.746 64.1859 346.326 64.7652 346.326 65.4795C346.326 66.1934 345.746 66.773 345.032 66.7734C344.318 66.7732 343.74 66.1935 343.739 65.4795C343.739 64.7651 344.318 64.1858 345.032 64.1855ZM352.795 64.1855C353.509 64.1859 354.089 64.7652 354.089 65.4795C354.088 66.1934 353.509 66.773 352.795 66.7734C352.081 66.7733 351.501 66.1936 351.501 65.4795C351.501 64.765 352.081 64.1857 352.795 64.1855Z" fill="#555555"/>
<path d="M413.619 62.0067H413.49C413.49 61.8779 403.058 54.0221 403.058 54.0221C402.415 53.507 401.384 53.507 400.74 54.0221L401.899 55.5675L412.331 63.4233V75.9154C412.331 76.4306 412.073 76.9457 411.687 77.3321C411.301 77.7184 410.786 77.976 410.27 77.976H410.013H407.308V69.605C407.308 68.5747 406.536 67.802 405.634 67.6732H405.377H398.422C397.392 67.6732 396.619 68.4459 396.49 69.3474V69.605V77.976H393.528C393.013 77.976 392.498 77.7184 392.112 77.3321C391.725 76.9457 391.468 76.4306 391.468 75.9154V75.6579V63.4233L401.899 55.5675L400.74 54.0221L390.309 61.8779C389.794 62.2643 389.536 62.7794 389.536 63.4233V75.6579C389.536 76.8169 390.051 77.8472 390.824 78.6199C391.597 79.3926 392.756 79.779 393.786 79.779H410.013C411.172 79.779 412.202 79.3926 412.975 78.6199C413.748 77.8472 414.263 76.8169 414.263 75.6579V63.4233C414.263 62.9082 414.005 62.3931 413.619 62.0067ZM405.377 77.976H398.422V69.605H405.377V77.976Z" fill="#333333"/>
</g>
<rect x="30.4207" y="35.3123" width="398.495" height="62.9203" stroke="#0D69D4" stroke-width="1.10387"/>
<rect x="136.944" y="40.2793" width="4.41546" height="52.9855" fill="#C54600" fill-opacity="0.3"/>
<line x1="137.496" y1="18.2021" x2="137.496" y2="97.6805" stroke="#C54600" stroke-width="1.10387"/>
<line x1="140.807" y1="18.2021" x2="140.807" y2="97.6805" stroke="#C54600" stroke-width="1.10387"/>
<line x1="84.5099" y1="18.2021" x2="84.5099" y2="97.6805" stroke="#C54600" stroke-width="1.10387"/>
<line x1="375.931" y1="18.2021" x2="375.931" y2="97.6805" stroke="#C54600" stroke-width="1.10387"/>
<rect x="30.6963" y="40.2803" width="52.9855" height="52.9855" fill="#FF0000" fill-opacity="0.2"/>
<rect x="0.339844" y="28.1377" width="14.5391" height="16.0899" rx="4.35943" fill="#007D00"/>
<path d="M4.30756 38.3496V37.4812L8.13909 31.4188H8.76917V32.7641H8.34344L5.44851 37.3449V37.4131H10.6083V38.3496H4.30756ZM8.41156 40.1377V38.0857V37.6813V31.4188H9.41627V40.1377H8.41156Z" fill="white"/>
<rect x="0.339844" y="86.0908" width="14.5391" height="16.0899" rx="4.35943" fill="#007D00"/>
<path d="M4.30756 96.3028V95.4343L8.13909 89.372H8.76917V90.7173H8.34344L5.44851 95.2981V95.3662H10.6083V96.3028H4.30756ZM8.41156 98.0908V96.0388V95.6344V89.372H9.41627V98.0908H8.41156Z" fill="white"/>
<rect x="44.2197" y="53.5273" width="26.4928" height="26.4928" fill="#0D69D4" fill-opacity="0.2"/>
<rect x="97.2041" y="53.5273" width="26.4928" height="26.4928" fill="#0D69D4" fill-opacity="0.2"/>
<rect x="335.639" y="53.5273" width="26.4928" height="26.4928" fill="#0D69D4" fill-opacity="0.2"/>
<rect x="388.625" y="53.5273" width="26.4928" height="26.4928" fill="#0D69D4" fill-opacity="0.2"/>
<rect x="322.394" y="40.2803" width="52.9855" height="52.9855" fill="#FF0000" fill-opacity="0.2"/>
<rect x="83.958" y="40.2803" width="52.9855" height="52.9855" fill="#FF0000" fill-opacity="0.2"/>
<rect x="375.379" y="40.2803" width="52.9855" height="52.9855" fill="#FF0000" fill-opacity="0.2"/>
<rect x="317.978" y="40.2793" width="4.41546" height="52.9855" fill="#C54600" fill-opacity="0.3"/>
<line x1="318.529" y1="18.2021" x2="318.529" y2="97.6805" stroke="#C54600" stroke-width="1.10387"/>
<line x1="321.842" y1="18.2021" x2="321.842" y2="97.6805" stroke="#C54600" stroke-width="1.10387"/>
<rect x="141.359" y="40.2803" width="176.618" height="52.9855" fill="#0D69D4" fill-opacity="0.2"/>
<rect x="131.424" y="0.541016" width="14.5391" height="16.0899" rx="4.35943" fill="#C54600"/>
<path d="M135.392 10.753V9.88449L139.223 3.82216H139.853V5.16745H139.427L136.532 9.74826V9.81637H141.692V10.753H135.392ZM139.496 12.541V10.489V10.0846V3.82216H140.5V12.541H139.496Z" fill="white"/>
<rect x="312.182" y="0.541016" width="14.5391" height="16.0899" rx="4.35943" fill="#C54600"/>
<path d="M316.149 10.753V9.88449L319.981 3.82216H320.611V5.16745H320.185L317.29 9.74826V9.81637H322.45V10.753H316.149ZM320.253 12.541V10.489V10.0846V3.82216H321.258V12.541H320.253Z" fill="white"/>
<rect x="30.9746" y="35.8643" width="397.392" height="4.41546" fill="#007D00" fill-opacity="0.3"/>
<line x1="19.9355" y1="36.4158" x2="428.366" y2="36.4158" stroke="#007D00" stroke-width="1.10387"/>
<line x1="19.9355" y1="40.5555" x2="428.366" y2="40.5555" stroke="#007D00" stroke-width="1.10387"/>
<rect x="30.9746" y="93.2656" width="397.392" height="4.41546" fill="#007D00" fill-opacity="0.3"/>
<line x1="19.9355" y1="94.3699" x2="428.366" y2="94.3699" stroke="#007D00" stroke-width="1.10387"/>
<line x1="19.9355" y1="97.1297" x2="428.366" y2="97.1297" stroke="#007D00" stroke-width="1.10387"/>
<path d="M438.852 35.8633V97.6798" stroke="black" stroke-width="1.10387"/>
<path d="M436.092 97.6797L441.611 97.6797" stroke="black" stroke-width="1.10387"/>
<path d="M436.092 35.8633L441.611 35.8633" stroke="black" stroke-width="1.10387"/>
<rect x="444.923" y="54.7715" width="24.285" height="24" rx="4.41546" fill="#333333"/>
<path d="M451.652 66.6485L450.559 66.6113L450.733 61.7805H455.501V62.8733H451.788L451.701 65.2453C452.124 65.0217 452.62 64.8975 453.13 64.8975C454.769 64.8975 456.172 66.2263 456.172 67.878C456.172 69.5917 454.769 70.9081 453.13 70.9081C451.739 70.9081 450.484 69.9394 450.174 68.6107L451.242 68.3623C451.441 69.244 452.161 69.8153 453.13 69.8153C454.26 69.8153 455.079 69.0453 455.079 67.878C455.079 66.7727 454.272 65.9904 453.13 65.9904C452.509 65.9904 452.037 66.2139 451.652 66.6485ZM460.395 69.7904C461.525 69.7904 462.357 69.0205 462.357 67.9028C462.357 66.81 461.525 66.0152 460.395 66.0152C459.277 66.0152 458.47 66.81 458.47 67.9028C458.47 69.0205 459.265 69.7904 460.395 69.7904ZM457.377 67.9028C457.377 67.3191 457.551 66.7727 457.849 66.3132L460.432 61.7805H461.687L459.861 64.9721C460.047 64.9348 460.234 64.9224 460.42 64.9224C462.047 64.9224 463.45 66.2512 463.45 67.9028C463.45 69.5793 462.059 70.8833 460.42 70.8833C458.793 70.8833 457.377 69.5793 457.377 67.9028Z" fill="white"/>
<path d="M432.227 155.082V208.068" stroke="black" stroke-width="1.10387"/>
<path d="M429.467 208.067L434.986 208.067" stroke="black" stroke-width="1.10387"/>
<path d="M429.467 155.082L434.986 155.082" stroke="black" stroke-width="1.10387"/>
<rect x="438.298" y="169.575" width="24.285" height="24" rx="4.41546" fill="#333333"/>
<path d="M448.665 176.597V182.197H449.907V183.265H448.665V185.588H447.573V183.265H443.537V182.197L447.61 176.597H448.665ZM444.853 182.197H447.573V178.447L444.853 182.197ZM454.097 184.669C455.227 184.669 455.997 183.849 455.997 183.029C455.997 182.222 455.227 181.415 454.097 181.415C452.979 181.415 452.197 182.222 452.197 183.029C452.197 183.849 452.967 184.669 454.097 184.669ZM451.104 183.029C451.104 182.098 451.775 181.303 452.582 180.844C451.924 180.397 451.352 179.714 451.352 178.906C451.352 177.466 452.669 176.435 454.097 176.435C455.537 176.435 456.866 177.466 456.866 178.906C456.866 179.714 456.295 180.397 455.637 180.844C456.432 181.303 457.09 182.098 457.09 183.029C457.09 184.582 455.674 185.724 454.097 185.724C452.52 185.724 451.104 184.582 451.104 183.029ZM452.445 178.894C452.445 179.589 453.116 180.285 454.097 180.285C455.09 180.285 455.773 179.589 455.773 178.894C455.773 178.186 455.09 177.491 454.097 177.491C453.116 177.491 452.445 178.186 452.445 178.894Z" fill="white"/>
<g opacity="0.6">
<rect width="397.392" height="61.8165" transform="translate(31 150.667)" fill="white"/>
<path d="M66.1248 173.393V175.998H61.5107V189.818H58.8614V175.998H54.2031V173.393H66.1248ZM74.309 182.996C74.0882 181.517 73.1168 180.457 71.3727 180.457C69.761 180.457 68.4585 181.296 68.1936 183.018L74.309 182.996ZM65.7209 183.99C65.7209 180.788 67.752 178.095 71.3506 178.095C75.0596 178.095 76.1635 181.098 76.2297 181.252C76.9362 183.04 76.7816 185.138 76.7816 185.138H68.1936C68.5909 186.573 69.6727 187.478 71.3727 187.478C73.448 187.478 73.9116 186.33 73.9778 186.242L76.2959 187.279C76.2959 187.279 75.2362 189.862 71.3506 189.862C67.752 189.862 65.7209 187.169 65.7209 183.99ZM89.588 178.161L85.2609 183.99L89.5218 189.796H86.2543L83.6492 186.021L81.0662 189.796H77.7987L81.9934 183.99L77.6883 178.161H80.9779L83.6492 182.047L86.2764 178.161H89.588ZM98.3418 189.509C97.8341 189.619 96.7081 189.818 95.8471 189.752C94.1251 189.619 92.3589 188.096 92.3589 186.021V180.634H90.3057V178.029H92.3589V173.9H95.0082V178.029H98.1211V180.634H95.0082V186.021C95.0082 186.727 95.4276 187.08 96.09 187.125C96.5757 187.147 97.3484 187.014 97.7678 186.926L98.3418 189.509Z" fill="#333333"/>
<path d="M348.914 168.328C356.23 168.328 362.16 174.26 362.16 181.575C362.16 188.891 356.23 194.821 348.914 194.821C341.599 194.821 335.667 188.891 335.667 181.575C335.667 174.26 341.599 168.328 348.914 168.328ZM348.914 169.984C342.513 169.985 337.323 175.174 337.323 181.575L337.327 181.874C337.483 188.037 342.451 193.006 348.614 193.162L348.914 193.166C355.215 193.166 360.342 188.137 360.501 181.874L360.505 181.575C360.505 175.274 355.476 170.147 349.213 169.988L348.914 169.984ZM349.054 182.719C349.058 182.72 349.063 182.721 349.067 182.722C349.071 182.722 349.075 182.723 349.078 182.724C349.115 182.731 349.15 182.742 349.185 182.754C349.191 182.756 349.198 182.758 349.204 182.761C349.33 182.809 349.437 182.888 349.521 182.985C349.536 183.002 349.55 183.019 349.562 183.036C349.579 183.059 349.595 183.082 349.609 183.106C349.621 183.125 349.631 183.145 349.641 183.165C349.671 183.228 349.697 183.294 349.71 183.364C349.797 183.774 349.982 184.033 350.217 184.216C350.471 184.413 350.824 184.555 351.268 184.638C351.948 184.764 352.709 184.735 353.377 184.679L354.008 184.618L354.091 184.613C354.5 184.614 354.852 184.924 354.895 185.34C354.937 185.756 354.655 186.131 354.254 186.214L354.172 186.227L353.527 186.289C352.8 186.351 351.853 186.392 350.971 186.228C350.373 186.116 349.747 185.901 349.222 185.491C349.113 185.406 349.01 185.313 348.914 185.214C348.818 185.313 348.717 185.407 348.608 185.491C348.083 185.901 347.457 186.116 346.859 186.228C345.977 186.392 345.03 186.351 344.303 186.289L343.658 186.227L343.576 186.214C343.175 186.131 342.893 185.756 342.936 185.34C342.978 184.924 343.33 184.613 343.739 184.613L343.822 184.618L344.453 184.679C345.121 184.735 345.882 184.764 346.562 184.638C347.006 184.555 347.36 184.414 347.613 184.216C347.848 184.033 348.032 183.774 348.119 183.364C348.133 183.292 348.159 183.224 348.191 183.159C348.2 183.141 348.21 183.124 348.22 183.106C348.233 183.084 348.247 183.062 348.263 183.041C348.278 183.02 348.294 183 348.312 182.98C348.396 182.886 348.501 182.808 348.624 182.761C348.631 182.758 348.638 182.756 348.645 182.754C348.679 182.742 348.715 182.731 348.752 182.724L348.776 182.719C348.8 182.715 348.825 182.715 348.85 182.713C348.868 182.711 348.886 182.707 348.904 182.707H348.925L349.054 182.719ZM345.032 178.988C345.746 178.989 346.326 179.568 346.326 180.282C346.326 180.996 345.746 181.576 345.032 181.576C344.318 181.576 343.74 180.996 343.739 180.282C343.739 179.568 344.318 178.988 345.032 178.988ZM352.795 178.988C353.509 178.989 354.089 179.568 354.089 180.282C354.088 180.996 353.509 181.576 352.795 181.576C352.081 181.576 351.501 180.996 351.501 180.282C351.501 179.568 352.081 178.988 352.795 178.988Z" fill="#555555"/>
<path d="M413.619 176.809H413.49C413.49 176.681 403.058 168.825 403.058 168.825C402.415 168.31 401.384 168.31 400.74 168.825L401.899 170.37L412.331 178.226V190.718C412.331 191.233 412.073 191.748 411.687 192.135C411.301 192.521 410.786 192.779 410.27 192.779H410.013H407.308V184.408C407.308 183.377 406.536 182.605 405.634 182.476H405.377H398.422C397.392 182.476 396.619 183.249 396.49 184.15V184.408V192.779H393.528C393.013 192.779 392.498 192.521 392.112 192.135C391.725 191.748 391.468 191.233 391.468 190.718V190.461V178.226L401.899 170.37L400.74 168.825L390.309 176.681C389.794 177.067 389.536 177.582 389.536 178.226V190.461C389.536 191.62 390.051 192.65 390.824 193.423C391.597 194.195 392.756 194.582 393.786 194.582H410.013C411.172 194.582 412.202 194.195 412.975 193.423C413.748 192.65 414.263 191.62 414.263 190.461V178.226C414.263 177.711 414.005 177.196 413.619 176.809ZM405.377 192.779H398.422V184.408H405.377V192.779Z" fill="#333333"/>
</g>
<line x1="375.929" y1="133.005" x2="375.929" y2="212.483" stroke="#C54600" stroke-width="1.10387"/>
<rect x="322.393" y="155.082" width="52.9855" height="52.9855" fill="#FF0000" fill-opacity="0.2"/>
<rect x="335.639" y="168.328" width="26.4928" height="26.4928" fill="#0D69D4" fill-opacity="0.2"/>
<rect x="388.625" y="168.328" width="26.4928" height="26.4928" fill="#0D69D4" fill-opacity="0.2"/>
<rect x="375.377" y="155.082" width="52.9855" height="52.9855" fill="#FF0000" fill-opacity="0.2"/>
<rect x="30.4197" y="150.115" width="398.495" height="62.9203" stroke="#0D69D4" stroke-width="1.10387"/>
<rect x="309.146" y="155.083" width="13.2464" height="52.9855" fill="#C54600" fill-opacity="0.3"/>
<rect x="306.662" y="116.447" width="19.5391" height="16.0899" rx="4.35943" fill="#C54600"/>
<path d="M313.899 119.728V128.447H312.844V120.835H312.793L310.664 122.249V121.176L312.844 119.728H313.899ZM316.407 128.447V127.681L319.285 124.531C319.623 124.162 319.901 123.841 320.119 123.568C320.338 123.293 320.5 123.035 320.605 122.794C320.712 122.55 320.766 122.294 320.766 122.027C320.766 121.721 320.693 121.455 320.545 121.231C320.4 121.007 320.202 120.834 319.949 120.712C319.696 120.59 319.413 120.529 319.098 120.529C318.763 120.529 318.47 120.598 318.221 120.737C317.974 120.874 317.782 121.065 317.646 121.312C317.512 121.559 317.446 121.849 317.446 122.181H316.441C316.441 121.67 316.559 121.221 316.794 120.835C317.03 120.449 317.351 120.148 317.756 119.933C318.165 119.717 318.624 119.609 319.132 119.609C319.642 119.609 320.095 119.717 320.49 119.933C320.884 120.148 321.193 120.439 321.418 120.805C321.642 121.172 321.754 121.579 321.754 122.027C321.754 122.348 321.696 122.662 321.579 122.968C321.466 123.272 321.267 123.611 320.983 123.986C320.702 124.357 320.312 124.812 319.813 125.348L317.854 127.443V127.511H321.907V128.447H316.407Z" fill="white"/>
<line x1="309.697" y1="133.005" x2="309.697" y2="212.483" stroke="#C54600" stroke-width="1.10387"/>
<line x1="321.84" y1="133.005" x2="321.84" y2="212.483" stroke="#C54600" stroke-width="1.10387"/>
<rect x="53.0488" y="155.082" width="256.097" height="52.9855" fill="#0D69D4" fill-opacity="0.2"/>
<rect x="30.9717" y="150.666" width="397.392" height="4.41546" fill="#007D00" fill-opacity="0.3"/>
<line x1="18.5527" y1="151.218" x2="428.363" y2="151.218" stroke="#007D00" stroke-width="1.10387"/>
<line x1="18.5527" y1="153.977" x2="428.363" y2="153.977" stroke="#007D00" stroke-width="1.10387"/>
<rect x="30.9717" y="208.068" width="397.392" height="4.41546" fill="#007D00" fill-opacity="0.3"/>
<line x1="18.5527" y1="207.793" x2="428.363" y2="207.793" stroke="#007D00" stroke-width="1.10387"/>
<line x1="18.5527" y1="211.932" x2="428.363" y2="211.932" stroke="#007D00" stroke-width="1.10387"/>
<rect x="30.6963" y="155.082" width="22.0773" height="52.9855" fill="#007D00" fill-opacity="0.3"/>
<rect x="30.6963" y="113.688" width="21.5391" height="16.0899" rx="4.35943" fill="#007D00"/>
<path d="M34.8684 125.688V124.921L37.7463 121.771C38.084 121.402 38.3621 121.081 38.5807 120.809C38.7992 120.533 38.961 120.275 39.066 120.034C39.1739 119.79 39.2278 119.534 39.2278 119.268C39.2278 118.961 39.154 118.696 39.0064 118.471C38.8617 118.247 38.663 118.074 38.4104 117.952C38.1578 117.83 37.874 117.769 37.5589 117.769C37.224 117.769 36.9317 117.839 36.6819 117.978C36.435 118.114 36.2435 118.305 36.1072 118.552C35.9738 118.799 35.9071 119.089 35.9071 119.421H34.9024C34.9024 118.91 35.0202 118.462 35.2558 118.076C35.4913 117.69 35.812 117.389 36.2179 117.173C36.6266 116.957 37.085 116.849 37.593 116.849C38.1039 116.849 38.5566 116.957 38.9511 117.173C39.3456 117.389 39.6549 117.68 39.8791 118.046C40.1034 118.412 40.2155 118.819 40.2155 119.268C40.2155 119.588 40.1573 119.902 40.0409 120.208C39.9274 120.512 39.7287 120.851 39.4449 121.226C39.1639 121.598 38.7737 122.052 38.2742 122.588L36.3158 124.683V124.751H40.3687V125.688H34.8684ZM44.9708 125.807C44.3294 125.807 43.783 125.632 43.3318 125.283C42.8805 124.931 42.5357 124.422 42.2973 123.755C42.0589 123.085 41.9397 122.276 41.9397 121.328C41.9397 120.386 42.0589 119.581 42.2973 118.914C42.5385 118.244 42.8848 117.734 43.336 117.382C43.7901 117.027 44.3351 116.849 44.9708 116.849C45.6066 116.849 46.1501 117.027 46.6014 117.382C47.0555 117.734 47.4017 118.244 47.6401 118.914C47.8814 119.581 48.002 120.386 48.002 121.328C48.002 122.276 47.8828 123.085 47.6444 123.755C47.406 124.422 47.0611 124.931 46.6099 125.283C46.1586 125.632 45.6122 125.807 44.9708 125.807ZM44.9708 124.87C45.6066 124.87 46.1004 124.564 46.4523 123.951C46.8043 123.337 46.9802 122.463 46.9802 121.328C46.9802 120.573 46.8994 119.93 46.7376 119.4C46.5786 118.869 46.3488 118.464 46.0479 118.186C45.7499 117.908 45.3909 117.769 44.9708 117.769C44.3407 117.769 43.8483 118.08 43.4936 118.701C43.1388 119.32 42.9614 120.196 42.9614 121.328C42.9614 122.083 43.0409 122.724 43.1998 123.252C43.3587 123.78 43.5872 124.182 43.8852 124.457C44.1861 124.732 44.5479 124.87 44.9708 124.87Z" fill="white"/>
<rect x="0.339844" y="142.664" width="14.5391" height="16.0899" rx="4.35943" fill="#007D00"/>
<path d="M4.30756 152.876V152.008L8.13909 145.945H8.76917V147.29H8.34344L5.44851 151.871V151.939H10.6083V152.876H4.30756ZM8.41156 154.664V152.612V152.208V145.945H9.41627V154.664H8.41156Z" fill="white"/>
<rect x="0.339844" y="200.617" width="14.5391" height="16.0899" rx="4.35943" fill="#007D00"/>
<path d="M4.30756 210.829V209.961L8.13909 203.898H8.76917V205.244H8.34344L5.44851 209.824V209.893H10.6083V210.829H4.30756ZM8.41156 212.617V210.565V210.161V203.898H9.41627V212.617H8.41156Z" fill="white"/>
<line x1="31.2482" y1="133.005" x2="31.2482" y2="212.483" stroke="#007D00" stroke-width="1.10387"/>
<line x1="52.2219" y1="133.005" x2="52.2219" y2="212.483" stroke="#007D00" stroke-width="1.10387"/>
<path d="M428.915 216.347L375.929 216.347" stroke="black" stroke-width="1.10387"/>
<path d="M375.93 213.587V219.106" stroke="black" stroke-width="1.10387"/>
<path d="M428.915 213.587V219.106" stroke="black" stroke-width="1.10387"/>
<rect x="390.832" y="222.418" width="23.1812" height="23.1812" rx="4.41546" fill="#333333"/>
<path d="M400.774 229.03V234.631H402.016V235.699H400.774V238.021H399.681V235.699H395.645V234.631L399.718 229.03H400.774ZM396.962 234.631H399.681V230.881L396.962 234.631ZM406.206 237.102C407.336 237.102 408.106 236.283 408.106 235.463C408.106 234.656 407.336 233.849 406.206 233.849C405.088 233.849 404.306 234.656 404.306 235.463C404.306 236.283 405.076 237.102 406.206 237.102ZM403.213 235.463C403.213 234.532 403.883 233.737 404.691 233.277C404.032 232.83 403.461 232.147 403.461 231.34C403.461 229.9 404.777 228.869 406.206 228.869C407.646 228.869 408.975 229.9 408.975 231.34C408.975 232.147 408.404 232.83 407.745 233.277C408.54 233.737 409.198 234.532 409.198 235.463C409.198 237.015 407.783 238.158 406.206 238.158C404.628 238.158 403.213 237.015 403.213 235.463ZM404.554 231.328C404.554 232.023 405.225 232.719 406.206 232.719C407.199 232.719 407.882 232.023 407.882 231.328C407.882 230.62 407.199 229.924 406.206 229.924C405.225 229.924 404.554 230.62 404.554 231.328Z" fill="white"/>
<g opacity="0.6">
<rect width="397.392" height="61.8165" transform="translate(30 280.923)" fill="white"/>
<path fill-rule="evenodd" clip-rule="evenodd" d="M60.5848 304.427C61.0158 304.858 61.0158 305.557 60.5848 305.988L54.7421 311.831L60.5848 317.673C61.0158 318.104 61.0158 318.803 60.5848 319.234C60.1537 319.665 59.4547 319.665 59.0237 319.234L52.4005 312.611C51.9694 312.18 51.9694 311.481 52.4005 311.05L59.0237 304.427C59.4547 303.996 60.1537 303.996 60.5848 304.427Z" fill="#555555"/>
<path d="M100.449 303.648V306.254H95.8349V320.074H93.1856V306.254H88.5273V303.648H100.449ZM108.633 313.252C108.412 311.773 107.441 310.713 105.697 310.713C104.085 310.713 102.783 311.552 102.518 313.274L108.633 313.252ZM100.045 314.245C100.045 311.044 102.076 308.351 105.675 308.351C109.384 308.351 110.488 311.353 110.554 311.508C111.26 313.296 111.106 315.394 111.106 315.394H102.518C102.915 316.829 103.997 317.734 105.697 317.734C107.772 317.734 108.236 316.586 108.302 316.497L110.62 317.535C110.62 317.535 109.56 320.118 105.675 320.118C102.076 320.118 100.045 317.425 100.045 314.245ZM123.912 308.417L119.585 314.245L123.846 320.052H120.579L117.973 316.277L115.39 320.052H112.123L116.318 314.245L112.013 308.417H115.302L117.973 312.303L120.601 308.417H123.912ZM132.666 319.765C132.158 319.875 131.032 320.074 130.171 320.008C128.449 319.875 126.683 318.352 126.683 316.277V310.89H124.63V308.285H126.683V304.156H129.332V308.285H132.445V310.89H129.332V316.277C129.332 316.983 129.752 317.336 130.414 317.38C130.9 317.403 131.673 317.27 132.092 317.182L132.666 319.765Z" fill="#333333"/>
<path d="M388.518 302.876H389.988V320.301H388.518V310.466H384.683V309.254H388.518V302.876ZM375.602 315.652C378.066 314.44 380.172 311.161 380.172 308.082V305.916H376.218V304.684H385.637V305.916H381.663V308.082C381.663 310.963 383.769 314.122 386.253 315.294L385.358 316.486C383.411 315.493 381.722 313.387 380.947 310.983C380.172 313.546 378.444 315.791 376.477 316.844L375.602 315.652ZM393.36 304.187H402.659V305.419H398.764V306.174C398.764 308.479 400.473 310.526 402.996 311.38L402.281 312.532C400.314 311.857 398.804 310.486 398.069 308.717C397.334 310.724 395.724 312.314 393.658 313.049L392.903 311.877C395.486 310.963 397.294 308.717 397.294 306.194V305.419H393.36V304.187ZM395.208 317.043C395.208 315.036 397.373 313.884 400.89 313.884C404.427 313.884 406.593 315.036 406.593 317.043C406.593 319.069 404.427 320.242 400.89 320.242C397.373 320.242 395.208 319.069 395.208 317.043ZM396.658 317.043C396.658 318.314 398.287 319.069 400.89 319.069C403.513 319.069 405.123 318.314 405.123 317.043C405.123 315.811 403.513 315.076 400.89 315.076C398.287 315.076 396.658 315.811 396.658 317.043ZM404.924 313.387V302.896H406.414V307.366H409.017V308.598H406.414V313.387H404.924Z" fill="#333333"/>
</g>
<rect x="30.4207" y="280.371" width="398.495" height="62.9203" stroke="#0D69D4" stroke-width="1.10387"/>
<rect x="83.958" y="285.339" width="4.41546" height="52.9855" fill="#C54600" fill-opacity="0.3"/>
<line x1="84.5099" y1="263.262" x2="84.5099" y2="342.74" stroke="#C54600" stroke-width="1.10387"/>
<rect x="78.9902" y="244.771" width="14.5391" height="16.0899" rx="4.35943" fill="#C54600"/>
<path d="M82.958 254.983V254.115L86.7895 248.053H87.4196V249.398H86.9938L84.0989 253.979V254.047H89.2587V254.983H82.958ZM87.0619 256.771V254.719V254.315V248.053H88.0667V256.771H87.0619Z" fill="white"/>
<rect x="343.918" y="244.771" width="14.5391" height="16.0899" rx="4.35943" fill="#C54600"/>
<path d="M347.886 254.983V254.115L351.717 248.053H352.347V249.398H351.922L349.027 253.979V254.047H354.186V254.983H347.886ZM351.99 256.771V254.719V254.315V248.053H352.994V256.771H351.99Z" fill="white"/>
<line x1="87.8224" y1="263.262" x2="87.8224" y2="342.74" stroke="#C54600" stroke-width="1.10387"/>
<rect x="30.6963" y="285.339" width="52.9855" height="52.9855" fill="#0D69D4" fill-opacity="0.2"/>
<rect x="0.339844" y="273.748" width="14.5391" height="16.0899" rx="4.35943" fill="#007D00"/>
<path d="M4.30756 283.96V283.092L8.13909 277.029H8.76917V278.374H8.34344L5.44851 282.955V283.023H10.6083V283.96H4.30756ZM8.41156 285.748V283.696V283.292V277.029H9.41627V285.748H8.41156Z" fill="white"/>
<rect x="0.339844" y="331.7" width="14.5391" height="16.0899" rx="4.35943" fill="#007D00"/>
<path d="M4.30756 341.912V341.044L8.13909 334.981H8.76917V336.327H8.34344L5.44851 340.907V340.976H10.6083V341.912H4.30756ZM8.41156 343.7V341.648V341.244V334.981H9.41627V343.7H8.41156Z" fill="white"/>
<rect x="353.302" y="285.339" width="4.41546" height="52.9855" fill="#C54600" fill-opacity="0.3"/>
<line x1="353.854" y1="263.262" x2="353.854" y2="342.74" stroke="#C54600" stroke-width="1.10387"/>
<line x1="357.166" y1="263.262" x2="357.166" y2="342.74" stroke="#C54600" stroke-width="1.10387"/>
<rect x="88.374" y="285.339" width="264.928" height="52.9855" fill="#0D69D4" fill-opacity="0.2"/>
<rect x="357.717" y="285.339" width="70.6474" height="52.9855" fill="#0D69D4" fill-opacity="0.2"/>
<rect x="30.9717" y="280.923" width="397.392" height="4.41546" fill="#007D00" fill-opacity="0.3"/>
<line x1="13.3105" y1="281.474" x2="428.364" y2="281.474" stroke="#007D00" stroke-width="1.10387"/>
<line x1="13.3105" y1="284.787" x2="428.364" y2="284.787" stroke="#007D00" stroke-width="1.10387"/>
<rect x="30.9717" y="338.323" width="397.392" height="4.41546" fill="#007D00" fill-opacity="0.3"/>
<line x1="13.3105" y1="338.875" x2="428.364" y2="338.875" stroke="#007D00" stroke-width="1.10387"/>
<line x1="13.3105" y1="342.187" x2="428.364" y2="342.187" stroke="#007D00" stroke-width="1.10387"/>
<rect x="357.717" y="285.337" width="17.6618" height="52.9855" fill="#007D00" fill-opacity="0.3"/>
<line x1="358.269" y1="267.676" x2="358.269" y2="338.323" stroke="#007D00" stroke-width="1.10387"/>
<line x1="374.826" y1="267.676" x2="374.826" y2="338.323" stroke="#007D00" stroke-width="1.10387"/>
<rect x="410.702" y="285.339" width="17.6618" height="52.9855" fill="#007D00" fill-opacity="0.3"/>
<rect x="408.77" y="248.911" width="20.5391" height="16.0899" rx="4.35943" fill="#007D00"/>
<path d="M416.007 252.192V260.911H414.951V253.299H414.9L412.771 254.713V253.64L414.951 252.192H416.007ZM421.409 261.03C421.052 261.025 420.694 260.957 420.336 260.826C419.979 260.695 419.652 260.475 419.357 260.166C419.062 259.854 418.825 259.432 418.646 258.902C418.468 258.368 418.378 257.698 418.378 256.892C418.378 256.12 418.45 255.436 418.595 254.84C418.74 254.241 418.95 253.738 419.225 253.329C419.501 252.917 419.833 252.605 420.222 252.392C420.613 252.18 421.055 252.073 421.546 252.073C422.034 252.073 422.468 252.171 422.848 252.367C423.231 252.56 423.544 252.829 423.785 253.176C424.026 253.522 424.182 253.921 424.253 254.372H423.214C423.118 253.98 422.931 253.655 422.652 253.397C422.374 253.139 422.005 253.01 421.546 253.01C420.87 253.01 420.338 253.303 419.949 253.891C419.563 254.478 419.369 255.303 419.366 256.364H419.434C419.593 256.123 419.782 255.917 420 255.747C420.222 255.574 420.466 255.441 420.732 255.347C420.999 255.253 421.282 255.206 421.58 255.206C422.079 255.206 422.536 255.331 422.95 255.581C423.365 255.828 423.697 256.17 423.947 256.607C424.196 257.041 424.321 257.539 424.321 258.101C424.321 258.641 424.201 259.134 423.959 259.583C423.718 260.028 423.379 260.383 422.942 260.647C422.508 260.908 421.997 261.036 421.409 261.03ZM421.409 260.094C421.767 260.094 422.088 260.004 422.371 259.826C422.658 259.647 422.884 259.407 423.048 259.106C423.216 258.805 423.3 258.47 423.3 258.101C423.3 257.741 423.219 257.413 423.057 257.118C422.898 256.82 422.678 256.583 422.397 256.407C422.119 256.231 421.801 256.143 421.443 256.143C421.174 256.143 420.923 256.197 420.69 256.305C420.457 256.41 420.253 256.555 420.077 256.739C419.904 256.924 419.767 257.135 419.668 257.373C419.569 257.609 419.519 257.857 419.519 258.118C419.519 258.465 419.6 258.788 419.762 259.089C419.926 259.39 420.151 259.633 420.434 259.817C420.721 260.001 421.046 260.094 421.409 260.094Z" fill="white"/>
<rect x="359.096" y="248.911" width="20.5391" height="16.0899" rx="4.35943" fill="#007D00"/>
<path d="M366.333 252.192V260.911H365.277V253.299H365.226L363.097 254.713V253.64L365.277 252.192H366.333ZM371.735 261.03C371.378 261.025 371.02 260.957 370.663 260.826C370.305 260.695 369.979 260.475 369.683 260.166C369.388 259.854 369.151 259.432 368.972 258.902C368.794 258.368 368.704 257.698 368.704 256.892C368.704 256.12 368.777 255.436 368.921 254.84C369.066 254.241 369.276 253.738 369.551 253.329C369.827 252.917 370.159 252.605 370.548 252.392C370.939 252.18 371.381 252.073 371.872 252.073C372.36 252.073 372.794 252.171 373.174 252.367C373.558 252.56 373.87 252.829 374.111 253.176C374.352 253.522 374.508 253.921 374.579 254.372H373.541C373.444 253.98 373.257 253.655 372.979 253.397C372.7 253.139 372.331 253.01 371.872 253.01C371.196 253.01 370.664 253.303 370.275 253.891C369.889 254.478 369.695 255.303 369.692 256.364H369.76C369.919 256.123 370.108 255.917 370.326 255.747C370.548 255.574 370.792 255.441 371.059 255.347C371.325 255.253 371.608 255.206 371.906 255.206C372.405 255.206 372.862 255.331 373.277 255.581C373.691 255.828 374.023 256.17 374.273 256.607C374.523 257.041 374.647 257.539 374.647 258.101C374.647 258.641 374.527 259.134 374.286 259.583C374.044 260.028 373.705 260.383 373.268 260.647C372.834 260.908 372.323 261.036 371.735 261.03ZM371.735 260.094C372.093 260.094 372.414 260.004 372.698 259.826C372.984 259.647 373.21 259.407 373.374 259.106C373.542 258.805 373.626 258.47 373.626 258.101C373.626 257.741 373.545 257.413 373.383 257.118C373.224 256.82 373.004 256.583 372.723 256.407C372.445 256.231 372.127 256.143 371.77 256.143C371.5 256.143 371.249 256.197 371.016 256.305C370.783 256.41 370.579 256.555 370.403 256.739C370.23 256.924 370.094 257.135 369.994 257.373C369.895 257.609 369.845 257.857 369.845 258.118C369.845 258.465 369.926 258.788 370.088 259.089C370.253 259.39 370.477 259.633 370.761 259.817C371.047 260.001 371.372 260.094 371.735 260.094Z" fill="white"/>
<line x1="411.254" y1="267.677" x2="411.254" y2="338.324" stroke="#007D00" stroke-width="1.10387"/>
<line x1="427.812" y1="267.677" x2="427.812" y2="338.324" stroke="#007D00" stroke-width="1.10387"/>
<rect width="397.392" height="61.8165" transform="translate(32 409.522)" fill="white"/>
<path d="M67.1248 432.248V434.853H62.5107V448.674H59.8614V434.853H55.2031V432.248H67.1248ZM75.309 441.852C75.0882 440.372 74.1168 439.313 72.3727 439.313C70.761 439.313 69.4585 440.152 69.1936 441.874L75.309 441.852ZM66.7209 442.845C66.7209 439.644 68.752 436.95 72.3506 436.95C76.0596 436.95 77.1635 439.953 77.2297 440.108C77.9362 441.896 77.7816 443.993 77.7816 443.993H69.1936C69.5909 445.428 70.6727 446.333 72.3727 446.333C74.448 446.333 74.9116 445.185 74.9778 445.097L77.2959 446.135C77.2959 446.135 76.2362 448.718 72.3506 448.718C68.752 448.718 66.7209 446.024 66.7209 442.845ZM90.588 437.017L86.2609 442.845L90.5218 448.651H87.2543L84.6492 444.876L82.0662 448.651H78.7987L82.9934 442.845L78.6883 437.017H81.9779L84.6492 440.902L87.2764 437.017H90.588ZM99.3418 448.364C98.8341 448.475 97.7081 448.674 96.8471 448.607C95.1251 448.475 93.3589 446.951 93.3589 444.876V439.489H91.3057V436.884H93.3589V432.756H96.0082V436.884H99.1211V439.489H96.0082V444.876C96.0082 445.583 96.4276 445.936 97.09 445.98C97.5757 446.002 98.3484 445.87 98.7678 445.781L99.3418 448.364Z" fill="#333333"/>
<path d="M116.531 429.667C122.475 429.667 127.294 434.486 127.294 440.43C127.294 446.374 122.475 451.192 116.531 451.192C110.588 451.192 105.769 446.373 105.769 440.43C105.769 434.486 110.588 429.667 116.531 429.667ZM116.531 431.323C111.502 431.324 107.425 435.4 107.425 440.43C107.425 445.459 111.502 449.537 116.531 449.537C121.561 449.537 125.639 445.459 125.639 440.43C125.639 435.4 121.561 431.323 116.531 431.323ZM119.602 438.453C119.91 438.145 120.408 438.145 120.716 438.453C121.024 438.761 121.024 439.259 120.716 439.567L117.089 443.194C116.781 443.503 116.283 443.503 115.975 443.194L112.348 439.567C112.039 439.259 112.039 438.761 112.348 438.453C112.656 438.153 113.162 438.145 113.47 438.453L116.536 441.52L119.602 438.453Z" fill="#333333"/>
<path d="M137.395 445.185C137.77 446.046 138.587 446.466 139.713 446.444C141.368 446.377 141.876 444.655 140.309 444.192C139.602 443.971 138.388 443.64 137.262 442.911C135.496 441.763 135.408 439.975 136.004 438.761C136.732 437.37 138.521 436.862 139.713 436.973C140.861 437.061 142.185 437.502 143.024 438.628L141.17 439.975C140.794 439.445 140.22 439.247 139.514 439.202C138.918 439.158 138.3 439.335 138.057 439.776C137.858 440.196 137.902 440.615 138.521 441.013C139.315 441.52 140.331 441.785 141.104 442.05C145.055 443.331 143.885 448.607 139.867 448.718C137.814 448.806 136.026 447.746 135.319 446.113L137.395 445.185ZM148.303 443.463C148.303 445.141 149.319 446.333 151.129 446.333C152.939 446.333 154.11 444.898 154.087 443.353V437.017H156.383V448.585H154.087V446.863C153.293 448.033 152.299 448.585 150.842 448.585C148.347 448.585 146.007 446.775 146.007 443.574V437.061H148.303V443.463ZM164.623 446.333C166.72 446.333 167.89 444.898 167.89 442.889C167.89 440.902 166.72 439.445 164.623 439.445C162.879 439.445 161.311 440.814 161.311 442.889C161.311 444.987 162.879 446.333 164.623 446.333ZM159.015 448.431V431.873H161.311V439.158C162.283 437.701 163.696 437.193 164.799 437.193C168.266 437.193 170.186 439.821 170.186 442.889C170.186 445.98 168.243 448.607 164.777 448.607C163.696 448.607 162.327 448.232 161.311 446.62V448.431H159.015Z" fill="#333333"/>
<path d="M349.914 427.184C357.23 427.184 363.16 433.115 363.16 440.431C363.16 447.746 357.23 453.677 349.914 453.677C342.599 453.677 336.667 447.746 336.667 440.431C336.667 433.115 342.599 427.184 349.914 427.184ZM349.914 428.84C343.513 428.84 338.323 434.03 338.323 440.431L338.327 440.729C338.483 446.893 343.451 451.861 349.614 452.018L349.914 452.021C356.215 452.021 361.342 446.993 361.501 440.729L361.505 440.431C361.505 434.129 356.476 429.002 350.213 428.844L349.914 428.84ZM350.054 441.574C350.058 441.575 350.063 441.576 350.067 441.577C350.071 441.578 350.075 441.578 350.078 441.579C350.115 441.587 350.15 441.597 350.185 441.609C350.191 441.612 350.198 441.614 350.204 441.616C350.33 441.664 350.437 441.744 350.521 441.841C350.536 441.857 350.55 441.874 350.562 441.892C350.579 441.914 350.595 441.938 350.609 441.962C350.621 441.981 350.631 442.001 350.641 442.021C350.671 442.084 350.697 442.15 350.71 442.22C350.797 442.629 350.982 442.888 351.217 443.071C351.471 443.269 351.824 443.41 352.268 443.493C352.948 443.62 353.709 443.591 354.377 443.534L355.008 443.474L355.091 443.469C355.5 443.469 355.852 443.779 355.895 444.195C355.937 444.611 355.655 444.986 355.254 445.069L355.172 445.082L354.527 445.145C353.8 445.207 352.853 445.247 351.971 445.083C351.373 444.972 350.747 444.757 350.222 444.347C350.113 444.262 350.01 444.169 349.914 444.069C349.818 444.168 349.717 444.262 349.608 444.347C349.083 444.757 348.457 444.972 347.859 445.083C346.977 445.247 346.03 445.207 345.303 445.145L344.658 445.082L344.576 445.069C344.175 444.987 343.893 444.612 343.936 444.195C343.978 443.779 344.33 443.469 344.739 443.469L344.822 443.474L345.453 443.534C346.121 443.591 346.882 443.62 347.562 443.493C348.006 443.41 348.36 443.269 348.613 443.071C348.848 442.888 349.032 442.629 349.119 442.22C349.133 442.148 349.159 442.079 349.191 442.015C349.2 441.997 349.21 441.979 349.22 441.962C349.233 441.939 349.247 441.918 349.263 441.896C349.278 441.875 349.294 441.855 349.312 441.836C349.396 441.741 349.501 441.664 349.624 441.616C349.631 441.614 349.638 441.612 349.645 441.609C349.679 441.597 349.715 441.587 349.752 441.579L349.776 441.574C349.8 441.57 349.825 441.57 349.85 441.568C349.868 441.567 349.886 441.563 349.904 441.562H349.925L350.054 441.574ZM346.032 437.844C346.746 437.844 347.326 438.423 347.326 439.138C347.326 439.852 346.746 440.431 346.032 440.432C345.318 440.431 344.74 439.852 344.739 439.138C344.739 438.423 345.318 437.844 346.032 437.844ZM353.795 437.844C354.509 437.844 355.089 438.423 355.089 439.138C355.088 439.852 354.509 440.431 353.795 440.432C353.081 440.431 352.501 439.852 352.501 439.138C352.501 438.423 353.081 437.844 353.795 437.844Z" fill="#555555"/>
<path d="M414.619 435.665H414.49C414.49 435.536 404.058 427.68 404.058 427.68C403.415 427.165 402.384 427.165 401.74 427.68L402.899 429.226L413.331 437.082V449.574C413.331 450.089 413.073 450.604 412.687 450.99C412.301 451.377 411.786 451.634 411.27 451.634H411.013H408.308V443.263C408.308 442.233 407.536 441.46 406.634 441.331H406.377H399.422C398.392 441.331 397.619 442.104 397.49 443.006V443.263V451.634H394.528C394.013 451.634 393.498 451.377 393.112 450.99C392.725 450.604 392.468 450.089 392.468 449.574V449.316V437.082L402.899 429.226L401.74 427.68L391.309 435.536C390.794 435.922 390.536 436.438 390.536 437.082V449.316C390.536 450.475 391.051 451.505 391.824 452.278C392.597 453.051 393.756 453.437 394.786 453.437H411.013C412.172 453.437 413.202 453.051 413.975 452.278C414.748 451.505 415.263 450.475 415.263 449.316V437.082C415.263 436.566 415.005 436.051 414.619 435.665ZM406.377 451.634H399.422V443.263H406.377V451.634Z" fill="#333333"/>
<rect x="31.8016" y="408.971" width="398.495" height="62.9203" stroke="#0D69D4" stroke-width="1.10387"/>
<rect x="319.358" y="413.938" width="4.41546" height="52.9855" fill="#C54600" fill-opacity="0.3"/>
<line x1="319.496" y1="400.969" x2="319.496" y2="471.34" stroke="#C54600" stroke-width="1.10387"/>
<line x1="323.636" y1="400.969" x2="323.636" y2="471.34" stroke="#C54600" stroke-width="1.10387"/>
<rect x="54.4307" y="413.938" width="264.928" height="52.9855" fill="#0D69D4" fill-opacity="0.2"/>
<rect x="0.34082" y="402.072" width="14.5391" height="16.0899" rx="4.35943" fill="#007D00"/>
<path d="M4.30854 412.284V411.416L8.14007 405.353H8.77014V406.699H8.34442L5.44949 411.28V411.348H10.6093V412.284H4.30854ZM8.41253 414.072V412.02V411.616V405.353H9.41725V414.072H8.41253Z" fill="white"/>
<rect x="32.0752" y="375.855" width="21.5391" height="16.0899" rx="4.35943" fill="#007D00"/>
<path d="M36.2473 387.855V387.089L39.1252 383.939C39.4629 383.57 39.7411 383.249 39.9596 382.977C40.1781 382.701 40.3399 382.443 40.4449 382.202C40.5528 381.958 40.6067 381.702 40.6067 381.436C40.6067 381.129 40.5329 380.864 40.3853 380.639C40.2406 380.415 40.0419 380.242 39.7893 380.12C39.5367 379.998 39.2529 379.937 38.9378 379.937C38.6029 379.937 38.3106 380.007 38.0609 380.146C37.8139 380.282 37.6224 380.473 37.4861 380.72C37.3527 380.967 37.286 381.257 37.286 381.589H36.2813C36.2813 381.078 36.3991 380.629 36.6347 380.243C36.8702 379.858 37.191 379.557 37.5968 379.341C38.0055 379.125 38.4639 379.017 38.9719 379.017C39.4828 379.017 39.9355 379.125 40.33 379.341C40.7245 379.557 41.0338 379.848 41.2581 380.214C41.4823 380.58 41.5944 380.987 41.5944 381.436C41.5944 381.756 41.5362 382.07 41.4198 382.376C41.3063 382.68 41.1076 383.019 40.8238 383.394C40.5428 383.766 40.1526 384.22 39.6531 384.756L37.6947 386.851V386.919H41.7476V387.855H36.2473ZM46.3497 387.975C45.7083 387.975 45.162 387.8 44.7107 387.451C44.2594 387.099 43.9146 386.59 43.6762 385.923C43.4378 385.253 43.3186 384.444 43.3186 383.496C43.3186 382.554 43.4378 381.749 43.6762 381.082C43.9174 380.412 44.2637 379.901 44.7149 379.55C45.1691 379.195 45.714 379.017 46.3497 379.017C46.9855 379.017 47.529 379.195 47.9803 379.55C48.4344 379.901 48.7806 380.412 49.019 381.082C49.2603 381.749 49.3809 382.554 49.3809 383.496C49.3809 384.444 49.2617 385.253 49.0233 385.923C48.7849 386.59 48.44 387.099 47.9888 387.451C47.5375 387.8 46.9912 387.975 46.3497 387.975ZM46.3497 387.038C46.9855 387.038 47.4793 386.732 47.8313 386.119C48.1832 385.505 48.3592 384.631 48.3592 383.496C48.3592 382.741 48.2783 382.098 48.1165 381.568C47.9576 381.037 47.7277 380.632 47.4268 380.354C47.1288 380.076 46.7698 379.937 46.3497 379.937C45.7197 379.937 45.2272 380.248 44.8725 380.869C44.5177 381.488 44.3403 382.364 44.3403 383.496C44.3403 384.251 44.4198 384.892 44.5787 385.42C44.7376 385.948 44.9661 386.35 45.2641 386.625C45.565 386.9 45.9268 387.038 46.3497 387.038Z" fill="white"/>
<rect x="0.34082" y="460.025" width="14.5391" height="16.0899" rx="4.35943" fill="#007D00"/>
<path d="M4.30854 470.237V469.369L8.14007 463.307H8.77014V464.652H8.34442L5.44949 469.233V469.301H10.6093V470.237H4.30854ZM8.41253 472.025V469.973V469.569V463.307H9.41725V472.025H8.41253Z" fill="white"/>
<rect x="323.774" y="413.938" width="105.971" height="52.9855" fill="#0D69D4" fill-opacity="0.2"/>
<line x1="377.311" y1="391.861" x2="377.311" y2="471.34" stroke="#C54600" stroke-width="1.10387"/>
<rect x="323.774" y="413.938" width="52.9855" height="52.9855" fill="#FF0000" fill-opacity="0.2"/>
<rect x="337.02" y="427.186" width="26.4928" height="26.4928" fill="#0D69D4" fill-opacity="0.2"/>
<rect x="390.006" y="427.186" width="26.4928" height="26.4928" fill="#0D69D4" fill-opacity="0.2"/>
<rect x="376.759" y="413.938" width="52.9855" height="52.9855" fill="#FF0000" fill-opacity="0.2"/>
<rect x="32.3535" y="409.524" width="397.392" height="4.41546" fill="#007D00" fill-opacity="0.3"/>
<rect x="124.524" y="382.755" width="14.5391" height="16.0899" rx="4.35943" fill="#C54600"/>
<path d="M128.492 392.967V392.098L132.324 386.036H132.954V387.381H132.528L129.633 391.962V392.03H134.793V392.967H128.492ZM132.596 394.755V392.703V392.298V386.036H133.601V394.755H132.596Z" fill="white"/>
<rect x="94.168" y="382.755" width="14.5391" height="16.0899" rx="4.35943" fill="#C54600"/>
<path d="M98.34 394.755V393.989L101.218 390.838C101.556 390.469 101.834 390.149 102.052 389.876C102.271 389.601 102.433 389.342 102.538 389.101C102.646 388.857 102.699 388.602 102.699 388.335C102.699 388.028 102.626 387.763 102.478 387.539C102.333 387.315 102.135 387.141 101.882 387.019C101.629 386.897 101.346 386.836 101.031 386.836C100.696 386.836 100.403 386.906 100.154 387.045C99.9067 387.181 99.7151 387.373 99.5789 387.62C99.4455 387.867 99.3788 388.156 99.3788 388.488H98.3741C98.3741 387.977 98.4919 387.529 98.7274 387.143C98.963 386.757 99.2837 386.456 99.6896 386.24C100.098 386.025 100.557 385.917 101.065 385.917C101.576 385.917 102.028 386.025 102.423 386.24C102.817 386.456 103.127 386.747 103.351 387.113C103.575 387.479 103.687 387.887 103.687 388.335C103.687 388.656 103.629 388.969 103.513 389.276C103.399 389.579 103.2 389.919 102.917 390.293C102.636 390.665 102.245 391.119 101.746 391.656L99.7875 393.75V393.818H103.84V394.755H98.34Z" fill="white"/>
<rect x="313.562" y="382.755" width="14.5391" height="16.0899" rx="4.35943" fill="#C54600"/>
<path d="M317.529 392.967V392.098L321.361 386.036H321.991V387.381H321.565L318.67 391.962V392.03H323.83V392.967H317.529ZM321.633 394.755V392.703V392.298V386.036H322.638V394.755H321.633Z" fill="white"/>
<line x1="18.5547" y1="410.076" x2="429.745" y2="410.076" stroke="#007D00" stroke-width="1.10387"/>
<line x1="18.5547" y1="414.216" x2="429.745" y2="414.216" stroke="#007D00" stroke-width="1.10387"/>
<rect x="32.3535" y="466.925" width="397.392" height="4.41546" fill="#007D00" fill-opacity="0.3"/>
<line x1="18.5547" y1="468.029" x2="429.745" y2="468.029" stroke="#007D00" stroke-width="1.10387"/>
<line x1="18.5547" y1="470.789" x2="429.745" y2="470.789" stroke="#007D00" stroke-width="1.10387"/>
<rect x="32.3525" y="413.938" width="22.0773" height="52.9855" fill="#007D00" fill-opacity="0.3"/>
<line x1="32.9045" y1="391.861" x2="32.9045" y2="471.34" stroke="#007D00" stroke-width="1.10387"/>
<line x1="53.8781" y1="391.861" x2="53.8781" y2="471.34" stroke="#007D00" stroke-width="1.10387"/>
<rect x="128.941" y="418.354" width="4.41546" height="52.9855" fill="#C54600" fill-opacity="0.3"/>
<line x1="129.493" y1="400.692" x2="129.493" y2="471.34" stroke="#C54600" stroke-width="1.10387"/>
<line x1="132.806" y1="400.692" x2="132.806" y2="471.34" stroke="#C54600" stroke-width="1.10387"/>
<rect x="100.793" y="413.938" width="2.20773" height="52.9855" fill="#C54600" fill-opacity="0.3"/>
<line x1="101.207" y1="400.692" x2="101.207" y2="466.924" stroke="#C54600" stroke-width="1.10387"/>
<line x1="102.587" y1="400.692" x2="102.587" y2="466.924" stroke="#C54600" stroke-width="1.10387"/>
<path d="M429.467 620.339L32.0752 620.339" stroke="black" stroke-width="1.10387"/>
<path d="M32.0752 617.579V623.098" stroke="black" stroke-width="1.10387"/>
<path d="M429.467 617.579V623.098" stroke="black" stroke-width="1.10387"/>
<rect x="185.513" y="626.41" width="90.517" height="23.1812" rx="4.41546" fill="#333333"/>
<path d="M197.863 640.97C199.738 640.97 201.315 639.406 201.315 637.518C201.315 635.63 199.738 634.066 197.863 634.066H196.36V640.97H197.863ZM195.267 642.051V632.985H197.863C200.346 632.985 202.383 635.022 202.383 637.518C202.383 640.014 200.346 642.051 197.863 642.051H195.267ZM208.264 638.362C208.165 637.493 207.693 636.661 206.464 636.661C205.383 636.661 204.626 637.232 204.477 638.375L208.264 638.362ZM203.396 638.847C203.396 637.096 204.477 635.618 206.439 635.618C208.475 635.618 209.022 637.22 209.071 637.356C209.456 638.362 209.332 639.356 209.332 639.356H204.477C204.65 640.399 205.358 641.032 206.451 641.032C207.792 641.032 208.115 640.3 208.177 640.2L209.134 640.672C209.134 640.672 208.587 642.075 206.439 642.075C204.477 642.075 203.396 640.598 203.396 638.847ZM216.143 635.643L213.461 642.038H212.455L209.772 635.643H210.952L212.951 640.498L214.963 635.643H216.143ZM217.35 635.63H218.443V642.051H217.35V635.63ZM217.238 633.308C217.238 632.96 217.474 632.675 217.896 632.675C218.306 632.675 218.542 632.96 218.542 633.308C218.542 633.681 218.306 633.966 217.896 633.966C217.474 633.966 217.238 633.681 217.238 633.308ZM222.869 641.007C223.478 641.007 224.024 640.772 224.421 640.374L225.229 641.119C224.633 641.728 223.825 642.1 222.919 642.1C220.857 642.1 219.665 640.585 219.665 638.735C219.665 636.897 220.857 635.382 222.919 635.382C223.825 635.382 224.633 635.754 225.229 636.363L224.421 637.096C224.024 636.698 223.478 636.475 222.869 636.475C221.503 636.475 220.758 637.468 220.758 638.735C220.758 640.002 221.503 641.007 222.869 641.007ZM230.809 638.362C230.71 637.493 230.238 636.661 229.008 636.661C227.928 636.661 227.171 637.232 227.022 638.375L230.809 638.362ZM225.941 638.847C225.941 637.096 227.022 635.618 228.984 635.618C231.02 635.618 231.567 637.22 231.616 637.356C232.001 638.362 231.877 639.356 231.877 639.356H227.022C227.195 640.399 227.903 641.032 228.996 641.032C230.337 641.032 230.66 640.3 230.722 640.2L231.678 640.672C231.678 640.672 231.132 642.075 228.984 642.075C227.022 642.075 225.941 640.598 225.941 638.847ZM244.761 635.643L242.861 642.038H241.83L240.377 637.369L238.949 642.038H237.918L235.981 635.643H237.124L238.44 640.163L239.806 635.643H240.936L242.327 640.163L243.619 635.643H244.761ZM248.144 642.1C246.22 642.1 245.127 640.623 245.127 638.884C245.127 637.158 246.22 635.668 248.144 635.668C248.89 635.668 249.697 636.053 250.218 636.909V632.737H251.311V642.001H250.218V640.858C249.684 641.753 248.89 642.1 248.144 642.1ZM246.22 638.884C246.22 640.113 246.927 641.007 248.219 641.007C249.274 641.007 250.218 640.138 250.218 638.884C250.218 637.642 249.274 636.76 248.219 636.76C246.927 636.76 246.22 637.667 246.22 638.884ZM253.138 635.63H254.231V642.051H253.138V635.63ZM253.026 633.308C253.026 632.96 253.262 632.675 253.685 632.675C254.094 632.675 254.33 632.96 254.33 633.308C254.33 633.681 254.094 633.966 253.685 633.966C253.262 633.966 253.026 633.681 253.026 633.308ZM259.477 641.902C259.241 641.951 258.806 642.026 258.396 642.013C257.453 641.989 256.608 641.194 256.608 640.188V636.661H255.54V635.593H256.608V633.519H257.701V635.593H259.278V636.661H257.701V640.188C257.701 640.66 257.987 640.921 258.446 640.933C258.732 640.933 259.03 640.883 259.241 640.834L259.477 641.902ZM265.272 638.536C265.272 637.468 264.738 636.773 263.744 636.773C262.775 636.773 261.968 637.655 261.968 638.735V642.051H260.875V632.737H261.968V636.748C262.316 636.127 263.061 635.692 263.781 635.692C265.234 635.692 266.364 636.872 266.364 638.437V642.051H265.272V638.536Z" fill="white"/>
<rect width="392.349" height="61.032" transform="translate(36.0859 541.739)" fill="white"/>
<path fill-rule="evenodd" clip-rule="evenodd" d="M66.2825 564.945C66.7081 565.371 66.7081 566.061 66.2825 566.486L60.514 572.255L66.2825 578.023C66.7081 578.449 66.7081 579.139 66.2825 579.565C65.8568 579.99 65.1668 579.99 64.7412 579.565L58.202 573.026C57.7764 572.6 57.7764 571.91 58.202 571.484L64.7412 564.945C65.1668 564.52 65.8568 564.52 66.2825 564.945Z" fill="#555555"/>
<path d="M92.7588 550.659C92.7588 547.907 94.9894 545.677 97.741 545.677H406.015C408.766 545.677 410.997 547.907 410.997 550.659V593.851C410.997 596.603 408.766 598.833 406.015 598.833H97.741C94.9894 598.833 92.7588 596.603 92.7588 593.851V550.659Z" fill="#F5F5F5"/>
<path d="M106.395 575.61H109.534V571.756C108.348 571.024 107.616 569.908 107.616 568.53C107.616 566.002 110.092 564.363 113.44 564.363C116.805 564.363 119.264 566.002 119.264 568.53C119.264 569.89 118.549 571.006 117.381 571.739V575.61H120.537V577.371H106.395V575.61ZM109.76 568.53C109.76 570.1 111.243 571.024 113.44 571.024C115.654 571.024 117.137 570.1 117.137 568.53C117.137 566.961 115.654 566.037 113.44 566.037C111.243 566.037 109.76 566.961 109.76 568.53ZM111.696 575.61H115.218V572.541C114.66 572.663 114.068 572.715 113.44 572.715C112.829 572.715 112.237 572.663 111.696 572.558V575.61ZM125.814 564.45C128.221 564.45 130.034 566.019 130.034 568.234C130.034 570.431 128.221 572 125.814 572C123.391 572 121.594 570.431 121.594 568.234C121.594 566.019 123.391 564.45 125.814 564.45ZM123.373 576.133C123.373 574.215 125.431 573.064 128.657 573.064C131.883 573.064 133.923 574.215 133.923 576.133C133.923 578.069 131.883 579.22 128.657 579.22C125.431 579.22 123.373 578.069 123.373 576.133ZM123.687 568.234C123.687 569.455 124.611 570.187 125.814 570.187C127.035 570.187 127.942 569.455 127.942 568.234C127.942 566.996 127.035 566.246 125.814 566.246C124.611 566.246 123.687 566.996 123.687 568.234ZM125.518 576.133C125.518 577.057 126.634 577.528 128.657 577.528C130.68 577.528 131.778 577.057 131.778 576.133C131.778 575.209 130.68 574.773 128.657 574.773C126.634 574.773 125.518 575.209 125.518 576.133ZM131.569 572.715V563.595H133.731V565.548H135.771V567.31H133.731V568.931H135.771V570.71H133.731V572.715H131.569ZM137.195 564.537H139.34V566.647H142.426V564.537H144.554V565.88H147.414V563.595H149.593V572.925H147.414V570.832H144.554V572.035H137.195V564.537ZM138.956 576.203C138.956 574.337 140.997 573.204 144.292 573.204C147.588 573.204 149.646 574.337 149.646 576.203C149.646 578.121 147.588 579.22 144.292 579.22C140.997 579.22 138.956 578.121 138.956 576.203ZM139.34 570.326H142.426V568.321H139.34V570.326ZM141.119 576.203C141.119 577.11 142.235 577.581 144.292 577.581C146.367 577.581 147.483 577.11 147.483 576.203C147.483 575.314 146.367 574.86 144.292 574.86C142.235 574.86 141.119 575.314 141.119 576.203ZM144.554 569.088H147.414V567.589H144.554V569.088ZM162.561 563.578H164.706V575.418H162.561V574.145H159.596V572.681H162.561V563.578ZM151.54 570.518C154.4 570.518 158.201 570.483 161.497 570.065L161.637 571.599C160.399 571.809 159.126 571.948 157.87 572.053V575H155.708V572.175C154.313 572.227 152.988 572.245 151.819 572.245L151.54 570.518ZM152.674 566.909C152.674 565.252 154.278 564.119 156.562 564.119C158.847 564.119 160.451 565.252 160.451 566.909C160.451 568.583 158.847 569.681 156.562 569.681C154.278 569.681 152.674 568.583 152.674 566.909ZM153.528 578.923V574.302H155.673V577.197H165.072V578.923H153.528ZM154.731 566.909C154.731 567.693 155.499 568.112 156.562 568.112C157.661 568.112 158.411 567.693 158.411 566.909C158.411 566.124 157.661 565.705 156.562 565.705C155.499 565.705 154.731 566.124 154.731 566.909ZM172.653 567.379C173.385 567.379 173.786 567.868 173.786 568.513C173.786 569.158 173.385 569.646 172.653 569.646C171.92 569.646 171.519 569.158 171.519 568.513C171.519 567.868 171.92 567.379 172.653 567.379ZM171.519 574.372C171.519 573.727 171.92 573.239 172.653 573.239C173.385 573.239 173.786 573.727 173.786 574.372C173.786 575 173.385 575.505 172.653 575.505C171.92 575.505 171.519 575 171.519 574.372Z" fill="#1A1A1A"/>
<path d="M181.644 565.848H182.934V574.428C184.573 574.41 186.16 574.323 187.991 573.939L188.165 575.055C186.16 575.474 184.451 575.561 182.62 575.561H181.644V565.848ZM185.881 570.434V569.353H189.351V564.558H190.589V578.648H189.351V570.434H185.881ZM192.595 579.45V564.192H193.85V579.45H192.595ZM207.114 564.174H208.422V579.467H207.114V564.174ZM196.529 570.679C196.529 567.435 198.134 565.377 200.4 565.377C202.65 565.377 204.254 567.435 204.254 570.679C204.254 573.922 202.65 575.997 200.4 575.997C198.134 575.997 196.529 573.922 196.529 570.679ZM197.802 570.679C197.802 573.172 198.866 574.829 200.4 574.829C201.918 574.829 202.999 573.172 202.999 570.679C202.999 568.185 201.918 566.546 200.4 566.546C198.866 566.546 197.802 568.185 197.802 570.679ZM222.261 564.174H223.552V579.467H222.261V571.428H218.896V570.33H222.261V564.174ZM211.084 575.491C213.281 574.428 214.955 571.812 214.955 569.144V567.906H211.485V566.86H214.955V564.453H216.245V566.86H219.68V567.906H216.245V569.144C216.245 571.69 217.972 574.184 220.186 575.195L219.454 576.206C217.727 575.404 216.298 573.73 215.617 571.707C214.955 573.852 213.542 575.631 211.816 576.485L211.084 575.491Z" fill="#1A1A1A"/>
<path d="M345.605 561.356C351.624 561.357 356.504 566.236 356.504 572.255C356.504 578.274 351.624 583.154 345.605 583.154C339.586 583.154 334.707 578.274 334.707 572.255C334.707 566.236 339.587 561.356 345.605 561.356ZM349.453 568.407C349.134 568.088 348.616 568.089 348.297 568.407L345.605 571.099L342.914 568.407L342.852 568.352C342.531 568.09 342.057 568.109 341.758 568.407C341.459 568.706 341.441 569.18 341.702 569.501L341.758 569.563L344.449 572.255L341.758 574.946C341.439 575.265 341.439 575.783 341.758 576.103C342.077 576.422 342.595 576.422 342.914 576.103L345.605 573.411L348.297 576.103L348.359 576.158C348.68 576.42 349.154 576.402 349.453 576.103C349.752 575.803 349.771 575.33 349.509 575.009L349.453 574.946L346.762 572.255L349.453 569.563C349.772 569.244 349.772 568.726 349.453 568.407Z" fill="#999999"/>
<path d="M375.202 568.811C376.164 563.817 380.949 560.557 385.89 561.529L386.349 561.63C391.03 562.802 394.028 567.492 393.097 572.329L392.997 572.793C392.602 574.402 391.803 575.813 390.735 576.939L394.364 581.338L394.43 581.428C394.737 581.888 394.654 582.515 394.22 582.873C393.786 583.232 393.155 583.196 392.761 582.806L392.687 582.724L389.062 578.329C387.159 579.561 384.802 580.083 382.409 579.613L381.951 579.51C377.421 578.376 374.466 573.949 375.124 569.28L375.202 568.811ZM385.478 563.668C381.737 562.933 378.078 565.401 377.34 569.232C376.603 573.063 379.08 576.737 382.821 577.473C386.562 578.208 390.221 575.74 390.959 571.909C391.696 568.077 389.219 564.404 385.478 563.668Z" fill="#333333"/>
<rect x="35.542" y="541.195" width="393.438" height="62.1219" stroke="#0D69D4" stroke-opacity="0.5" stroke-width="1.08986"/>
<rect x="88.3994" y="546.1" width="4.35943" height="52.3131" fill="#C54600" fill-opacity="0.3"/>
<line x1="88.9443" y1="524.303" x2="88.9443" y2="602.772" stroke="#C54600" stroke-width="1.08986"/>
<line x1="328.713" y1="524.303" x2="328.713" y2="602.772" stroke="#C54600" stroke-width="1.08986"/>
<line x1="92.2139" y1="524.303" x2="92.2139" y2="602.772" stroke="#C54600" stroke-width="1.08986"/>
<line x1="331.982" y1="524.303" x2="331.982" y2="602.772" stroke="#C54600" stroke-width="1.08986"/>
<rect x="83.1699" y="504.181" width="14.5391" height="16.0899" rx="4.35943" fill="#C54600"/>
<path d="M87.1376 514.393V513.524L90.9692 507.462H91.5992V508.807H91.1735L88.2786 513.388V513.456H93.4384V514.393H87.1376ZM91.2416 516.181V514.129V513.724V507.462H92.2463V516.181H91.2416Z" fill="white"/>
<rect x="322.938" y="504.181" width="14.5391" height="16.0899" rx="4.35943" fill="#C54600"/>
<path d="M326.906 514.393V513.524L330.738 507.462H331.368V508.807H330.942L328.047 513.388V513.456H333.207V514.393H326.906ZM331.01 516.181V514.129V513.724V507.462H332.015V516.181H331.01Z" fill="white"/>
<path d="M92.7598 546.1H328.169V598.413H92.7598V546.1Z" fill="#0D69D4" fill-opacity="0.2"/>
<rect x="36.0859" y="541.74" width="392.349" height="4.35943" fill="#007D00" fill-opacity="0.3"/>
<line x1="18.6475" y1="542.286" x2="428.434" y2="542.286" stroke="#007D00" stroke-width="1.08986"/>
<line x1="18.6475" y1="545.555" x2="428.434" y2="545.555" stroke="#007D00" stroke-width="1.08986"/>
<rect x="0.34082" y="535.786" width="14.5391" height="16.0899" rx="4.35943" fill="#007D00"/>
<path d="M4.30854 545.998V545.13L8.14007 539.067H8.77014V540.413H8.34442L5.44949 544.993V545.061H10.6093V545.998H4.30854ZM8.41253 547.786V545.734V545.33V539.067H9.41725V547.786H8.41253Z" fill="white"/>
<rect x="36.0859" y="598.413" width="392.349" height="4.35943" fill="#007D00" fill-opacity="0.3"/>
<line x1="18.6475" y1="598.959" x2="428.434" y2="598.959" stroke="#007D00" stroke-width="1.08986"/>
<line x1="18.6475" y1="602.228" x2="428.434" y2="602.228" stroke="#007D00" stroke-width="1.08986"/>
<rect x="0.34082" y="592.459" width="14.5391" height="16.0899" rx="4.35943" fill="#007D00"/>
<path d="M4.30854 602.671V601.802L8.14007 595.74H8.77014V597.085H8.34442L5.44949 601.666V601.734H10.6093V602.671H4.30854ZM8.41253 604.459V602.407V602.003V595.74H9.41725V604.459H8.41253Z" fill="white"/>
<rect x="410.997" y="546.1" width="17.4377" height="52.3131" fill="#007D00" fill-opacity="0.3"/>
<rect x="332.527" y="559.179" width="26.1566" height="26.1566" fill="#0D69D4" fill-opacity="0.2"/>
<rect x="371.763" y="559.179" width="26.1566" height="26.1566" fill="#0D69D4" fill-opacity="0.2"/>
<line x1="411.542" y1="524.303" x2="411.542" y2="602.772" stroke="#007D00" stroke-width="1.08986"/>
<line x1="427.89" y1="524.303" x2="427.89" y2="602.772" stroke="#007D00" stroke-width="1.08986"/>
<rect x="409.547" y="504.181" width="20.5391" height="16.0899" rx="4.35943" fill="#007D00"/>
<path d="M416.784 507.462V516.181H415.728V508.569H415.677L413.549 509.982V508.909L415.728 507.462H416.784ZM422.187 516.3C421.829 516.294 421.471 516.226 421.114 516.096C420.756 515.965 420.43 515.745 420.135 515.436C419.839 515.123 419.602 514.702 419.424 514.171C419.245 513.638 419.155 512.968 419.155 512.162C419.155 511.39 419.228 510.706 419.373 510.11C419.517 509.511 419.727 509.007 420.003 508.598C420.278 508.187 420.61 507.875 420.999 507.662C421.391 507.449 421.832 507.343 422.323 507.343C422.811 507.343 423.245 507.441 423.626 507.636C424.009 507.829 424.321 508.099 424.562 508.445C424.803 508.791 424.96 509.19 425.03 509.642H423.992C423.895 509.25 423.708 508.925 423.43 508.667C423.152 508.408 422.783 508.279 422.323 508.279C421.647 508.279 421.115 508.573 420.726 509.16C420.34 509.748 420.146 510.572 420.143 511.634H420.211C420.37 511.393 420.559 511.187 420.777 511.017C420.999 510.843 421.243 510.71 421.51 510.616C421.777 510.523 422.059 510.476 422.357 510.476C422.856 510.476 423.313 510.601 423.728 510.851C424.142 511.098 424.474 511.44 424.724 511.877C424.974 512.311 425.099 512.809 425.099 513.371C425.099 513.91 424.978 514.404 424.737 514.852C424.495 515.298 424.156 515.653 423.719 515.917C423.285 516.178 422.774 516.306 422.187 516.3ZM422.187 515.363C422.544 515.363 422.865 515.274 423.149 515.095C423.435 514.916 423.661 514.676 423.826 514.376C423.993 514.075 424.077 513.74 424.077 513.371C424.077 513.01 423.996 512.683 423.834 512.387C423.675 512.089 423.455 511.852 423.174 511.676C422.896 511.501 422.578 511.413 422.221 511.413C421.951 511.413 421.7 511.466 421.467 511.574C421.234 511.679 421.03 511.824 420.854 512.009C420.681 512.193 420.545 512.404 420.445 512.643C420.346 512.878 420.296 513.127 420.296 513.388C420.296 513.734 420.377 514.058 420.539 514.359C420.704 514.659 420.928 514.902 421.212 515.087C421.498 515.271 421.823 515.363 422.187 515.363Z" fill="white"/>
<rect x="358.685" y="559.178" width="13.0783" height="26.1566" fill="#C54600" fill-opacity="0.3"/>
<line x1="359.229" y1="541.74" x2="359.229" y2="585.335" stroke="#C54600" stroke-width="1.08986"/>
<line x1="371.217" y1="541.74" x2="371.217" y2="585.335" stroke="#C54600" stroke-width="1.08986"/>
<rect x="355.055" y="521.618" width="19.5391" height="16.0899" rx="4.35943" fill="#C54600"/>
<path d="M362.292 524.899V533.618H361.236V526.006H361.185L359.056 527.42V526.347L361.236 524.899H362.292ZM364.8 533.618V532.852L367.677 529.701C368.015 529.333 368.293 529.012 368.512 528.739C368.73 528.464 368.892 528.206 368.997 527.965C369.105 527.72 369.159 527.465 369.159 527.198C369.159 526.892 369.085 526.626 368.938 526.402C368.793 526.178 368.594 526.005 368.342 525.883C368.089 525.761 367.805 525.7 367.49 525.7C367.155 525.7 366.863 525.769 366.613 525.908C366.366 526.045 366.175 526.236 366.038 526.483C365.905 526.73 365.838 527.019 365.838 527.351H364.834C364.834 526.841 364.951 526.392 365.187 526.006C365.422 525.62 365.743 525.319 366.149 525.104C366.558 524.888 367.016 524.78 367.524 524.78C368.035 524.78 368.488 524.888 368.882 525.104C369.277 525.319 369.586 525.61 369.81 525.976C370.035 526.343 370.147 526.75 370.147 527.198C370.147 527.519 370.088 527.833 369.972 528.139C369.859 528.443 369.66 528.782 369.376 529.157C369.095 529.528 368.705 529.982 368.205 530.519L366.247 532.613V532.682H370.3V533.618H364.8Z" fill="white"/>
</svg>
