<svg width="491" height="95" viewBox="0 0 491 95" fill="none" xmlns="http://www.w3.org/2000/svg">
<rect x="1.31008" y="1.31008" width="180.758" height="56.5731" rx="6.20924" stroke="#E0E0E0" stroke-width="1.37983"/>
<mask id="path-2-inside-1_1101_61690" fill="white">
<path d="M2 7.51933C2 4.47109 4.47109 2 7.51933 2H62.7126V57.1933H7.51933C4.47109 57.1933 2 54.7222 2 51.6739V7.51933Z"/>
</mask>
<path d="M2 7.51933C2 4.47109 4.47109 2 7.51933 2H62.7126V57.1933H7.51933C4.47109 57.1933 2 54.7222 2 51.6739V7.51933Z" fill="white"/>
<path d="M2 2H62.7126H2ZM62.7126 57.1933H2H62.7126ZM2 57.1933V2V57.1933ZM64.0924 2V57.1933H61.3328V2H64.0924Z" fill="#E0E0E0" mask="url(#path-2-inside-1_1101_61690)"/>
<path d="M41.3184 28.751C41.8401 28.8041 42.2471 29.2445 42.2471 29.7803C42.2469 30.3159 41.84 30.7565 41.3184 30.8096L41.2119 30.8154H23.8633C23.2919 30.8153 22.8283 30.3516 22.8281 29.7803C22.8281 29.2088 23.2918 28.7452 23.8633 28.7451H41.2119L41.3184 28.751Z" fill="#BDBDBD"/>
<mask id="path-5-inside-2_1101_61690" fill="white">
<path d="M62.7129 2H120.666V57.1933H62.7129V2Z"/>
</mask>
<path d="M62.7129 2H120.666V57.1933H62.7129V2Z" fill="white"/>
<path d="M120.666 2H119.286V57.1933H120.666H122.046V2H120.666Z" fill="#E0E0E0" mask="url(#path-5-inside-2_1101_61690)"/>
<path d="M93.9672 21.6127V37.6629L91.6711 37.6408V24.1958L88.9998 25.5866L88.0284 23.5114L91.6932 21.6127H93.9672Z" fill="#1A1A1A"/>
<path d="M175.859 2C178.908 2.00004 181.379 4.47132 181.379 7.51953V51.6738C181.379 54.722 178.908 57.1933 175.859 57.1934H120.666V2H175.859Z" fill="white"/>
<path d="M175.859 2C178.908 2.00004 181.379 4.47132 181.379 7.51953V51.6738C181.379 54.722 178.908 57.1933 175.859 57.1934H120.666V2H175.859Z" stroke="#E0E0E0"/>
<path d="M151.208 20.0713C151.78 20.0713 152.243 20.5349 152.243 21.1064V28.7461H159.882L159.988 28.752C160.51 28.8052 160.917 29.2456 160.917 29.7812C160.917 30.3169 160.51 30.7573 159.988 30.8105L159.882 30.8164H152.243V38.4551L152.237 38.5615C152.184 39.0831 151.744 39.4902 151.208 39.4902C150.672 39.4902 150.232 39.0831 150.179 38.5615L150.173 38.4551V30.8164H142.533C141.962 30.8164 141.498 30.3528 141.498 29.7812C141.498 29.2097 141.962 28.7461 142.533 28.7461H150.173V21.1064C150.173 20.5349 150.636 20.0713 151.208 20.0713Z" fill="#333333"/>
<rect x="309.31" y="1.31008" width="180.758" height="56.5731" rx="6.20924" stroke="#E0E0E0" stroke-width="1.37983"/>
<mask id="path-11-inside-3_1101_61690" fill="white">
<path d="M310 7.51933C310 4.47109 312.471 2 315.519 2H370.713V57.1933H315.519C312.471 57.1933 310 54.7222 310 51.6739V7.51933Z"/>
</mask>
<path d="M310 7.51933C310 4.47109 312.471 2 315.519 2H370.713V57.1933H315.519C312.471 57.1933 310 54.7222 310 51.6739V7.51933Z" fill="white"/>
<path d="M310 2H370.713H310ZM370.713 57.1933H310H370.713ZM310 57.1933V2V57.1933ZM372.092 2V57.1933H369.333V2H372.092Z" fill="#E0E0E0" mask="url(#path-11-inside-3_1101_61690)"/>
<path d="M349.318 28.751C349.84 28.8041 350.247 29.2445 350.247 29.7803C350.247 30.3159 349.84 30.7565 349.318 30.8096L349.212 30.8154H331.863C331.292 30.8153 330.828 30.3516 330.828 29.7803C330.828 29.2088 331.292 28.7452 331.863 28.7451H349.212L349.318 28.751Z" fill="#333333"/>
<mask id="path-14-inside-4_1101_61690" fill="white">
<path d="M370.713 2H428.666V57.1933H370.713V2Z"/>
</mask>
<path d="M370.713 2H428.666V57.1933H370.713V2Z" fill="white"/>
<path d="M428.666 2H427.286V57.1933H428.666H430.046V2H428.666Z" fill="#E0E0E0" mask="url(#path-14-inside-4_1101_61690)"/>
<path d="M399.202 35.5214C401.123 35.5214 402.47 34.3072 402.47 32.4747C402.47 30.6865 401.101 29.406 399.202 29.406C397.326 29.406 395.979 30.6865 395.979 32.4747C395.979 34.3072 397.304 35.5214 399.202 35.5214ZM393.683 32.4747C393.683 31.393 394.014 30.3995 394.588 29.5826L399.092 21.5686H401.741L398.562 27.1541C398.783 27.132 399.004 27.11 399.224 27.11C402.161 27.11 404.766 29.4722 404.766 32.4747C404.766 35.5214 402.161 37.8175 399.224 37.8175C396.31 37.8175 393.683 35.5435 393.683 32.4747Z" fill="#1A1A1A"/>
<path d="M483.859 2C486.908 2.00004 489.379 4.47132 489.379 7.51953V51.6738C489.379 54.722 486.908 57.1933 483.859 57.1934H428.666V2H483.859Z" fill="white"/>
<path d="M483.859 2C486.908 2.00004 489.379 4.47132 489.379 7.51953V51.6738C489.379 54.722 486.908 57.1933 483.859 57.1934H428.666V2H483.859Z" stroke="#E0E0E0"/>
<path d="M459.208 20.0713C459.78 20.0713 460.243 20.5349 460.243 21.1064V28.7461H467.882L467.988 28.752C468.51 28.8052 468.917 29.2456 468.917 29.7812C468.917 30.3169 468.51 30.7573 467.988 30.8105L467.882 30.8164H460.243V38.4551L460.237 38.5615C460.184 39.0831 459.744 39.4902 459.208 39.4902C458.672 39.4902 458.232 39.0831 458.179 38.5615L458.173 38.4551V30.8164H450.533C449.962 30.8164 449.498 30.3528 449.498 29.7812C449.498 29.2097 449.962 28.7461 450.533 28.7461H458.173V21.1064C458.173 20.5349 458.636 20.0713 459.208 20.0713Z" fill="#BDBDBD"/>
<path d="M361.846 84.0457H362.894V86.2949C364.053 86.2397 365.226 86.1431 366.33 85.9637L366.413 86.7226C363.694 87.2332 360.728 87.247 358.562 87.247L358.424 86.3777C359.417 86.3777 360.604 86.3777 361.846 86.3363V84.0457ZM358.796 83.6456C360.562 83.1075 361.818 81.769 361.846 80.127H359.072V79.2715H361.846V77.7675H362.894V79.2715H365.709V80.127H362.88C362.908 81.7138 364.205 82.9971 365.957 83.5214L365.474 84.3217C364.053 83.8802 362.908 82.9557 362.37 81.7138C361.859 83.0109 360.714 83.9906 359.279 84.4597L358.796 83.6456ZM367.13 89.7721V77.6709H368.165V89.7721H367.13ZM379.315 77.6847H380.308V89.7583H379.315V83.411H377.548V89.1235H376.582V77.9607H377.548V82.5417H379.315V77.6847ZM370.539 86.7502V79.1611H375.009V80.0166H371.56V85.8809C373.216 85.8809 374.375 85.8119 375.686 85.536L375.81 86.3915C374.361 86.695 373.147 86.7502 371.311 86.7502H370.539ZM390.119 77.6847H391.154V80.4996H392.961V81.3689H391.154V84.2527H390.119V77.6847ZM381.84 83.5076C384.807 82.7901 386.587 81.2585 386.766 79.2577H382.378V78.416H387.897C387.897 81.4379 385.759 83.4938 382.24 84.3631L381.84 83.5076ZM383.137 89.5789V84.8736H384.103V86.3501H386.297V84.8736H387.249V89.5789H383.137ZM384.103 88.7786H386.297V87.1642H384.103V88.7786ZM387.345 88.9304C388.739 88.2956 389.457 86.9296 389.457 85.7705V84.7633H390.45V85.7291C390.45 86.9296 391.154 88.2956 392.534 88.9304L391.995 89.7031C390.988 89.2477 390.312 88.406 389.953 87.4539C389.595 88.3922 388.918 89.2339 387.897 89.7031L387.345 88.9304ZM402.331 77.6709H403.366V89.7721H402.331V77.6709ZM393.955 82.8177C393.955 80.2512 395.225 78.623 397.018 78.623C398.798 78.623 400.068 80.2512 400.068 82.8177C400.068 85.3842 398.798 87.0262 397.018 87.0262C395.225 87.0262 393.955 85.3842 393.955 82.8177ZM394.962 82.8177C394.962 84.7909 395.804 86.1017 397.018 86.1017C398.219 86.1017 399.074 84.7909 399.074 82.8177C399.074 80.8445 398.219 79.5475 397.018 79.5475C395.804 79.5475 394.962 80.8445 394.962 82.8177ZM411.472 87.8679C412.797 87.8679 413.79 86.902 413.79 85.5912C413.79 84.2803 412.797 83.3006 411.472 83.3006C410.161 83.3006 409.209 84.2803 409.209 85.5912C409.209 86.902 410.161 87.8679 411.472 87.8679ZM408.216 85.5912C408.216 84.9978 408.381 84.4321 408.657 83.9492L411.61 78.7886H412.755L410.672 82.4175C410.934 82.3486 411.21 82.3072 411.5 82.3072C413.307 82.3072 414.784 83.7836 414.784 85.5912C414.784 87.3849 413.307 88.8614 411.5 88.8614C409.706 88.8614 408.216 87.3849 408.216 85.5912ZM419.09 78.1401C420.884 78.1401 422.209 79.2301 422.209 80.8031C422.209 82.3762 420.884 83.4524 419.09 83.4524C417.296 83.4524 415.985 82.3762 415.985 80.8031C415.985 79.2301 417.296 78.1401 419.09 78.1401ZM416.993 80.8031C416.993 81.8656 417.89 82.6107 419.09 82.6107C420.304 82.6107 421.201 81.8656 421.201 80.8031C421.201 79.7407 420.304 78.9818 419.09 78.9818C417.89 78.9818 416.993 79.7407 416.993 80.8031ZM417.807 85.3152V84.4873H425.589V87.3711H418.842V88.7648H426.003V89.5927H417.848V86.5984H424.554V85.3152H417.807ZM424.54 83.8802V77.6847H425.589V83.8802H424.54ZM437.214 77.9469H438.194V82.6383H439.656V77.6847H440.65V89.7583H439.656V83.48H438.194V89.1511H437.214V77.9469ZM430.632 86.5846V79.2163H433.213V80.058H431.598V85.7153C432.054 85.7015 432.661 85.6464 433.323 85.4808L433.406 86.3501C432.398 86.5846 431.598 86.5846 431.101 86.5846H430.632ZM433.751 86.5846V79.2163H436.4V80.058H434.703V85.7291C435.269 85.7015 435.945 85.6464 436.662 85.4394L436.773 86.3087C435.765 86.5708 434.937 86.5846 434.234 86.5846H433.751Z" fill="#616161"/>
<path d="M55.5233 84.0457H56.5719V86.2949C57.731 86.2397 58.9038 86.1431 60.0077 85.9637L60.0905 86.7226C57.3722 87.2332 54.4056 87.247 52.2392 87.247L52.1013 86.3777C53.0947 86.3777 54.2814 86.3777 55.5233 86.3363V84.0457ZM52.4738 83.6456C54.24 83.1075 55.4957 81.769 55.5233 80.127H52.7498V79.2715H55.5233V77.7675H56.5719V79.2715H59.3868V80.127H56.5581C56.5857 81.7138 57.8828 82.9971 59.6351 83.5214L59.1522 84.3217C57.731 83.8802 56.5857 82.9557 56.0476 81.7138C55.537 83.0109 54.3918 83.9906 52.9568 84.4597L52.4738 83.6456ZM60.808 89.7721V77.6709H61.8429V89.7721H60.808ZM63.7612 87.3022H68.6734V84.3493H69.6944V87.3022H74.7032V88.1714H63.7612V87.3022ZM64.2165 83.6042C66.2725 83.2316 68.6458 81.4655 68.6458 79.4371V78.485H69.722V79.4371C69.722 81.4655 72.123 83.2316 74.1651 83.6042L73.7098 84.4735C71.9022 84.0733 69.9704 82.8315 69.1839 81.0929C68.3974 82.8177 66.4656 84.0733 64.6581 84.4735L64.2165 83.6042ZM83.7967 77.6847H84.8315V80.4996H86.6391V81.3689H84.8315V84.2527H83.7967V77.6847ZM75.5177 83.5076C78.4843 82.7901 80.2643 81.2585 80.4437 79.2577H76.0558V78.416H81.5751C81.5751 81.4379 79.4364 83.4938 75.9178 84.3631L75.5177 83.5076ZM76.8147 89.5789V84.8736H77.7806V86.3501H79.9745V84.8736H80.9266V89.5789H76.8147ZM77.7806 88.7786H79.9745V87.1642H77.7806V88.7786ZM81.0232 88.9304C82.4168 88.2956 83.1343 86.9296 83.1343 85.7705V84.7633H84.1278V85.7291C84.1278 86.9296 84.8315 88.2956 86.2114 88.9304L85.6732 89.7031C84.6659 89.2477 83.9898 88.406 83.6311 87.4539C83.2723 88.3922 82.5962 89.2339 81.5751 89.7031L81.0232 88.9304ZM96.0085 77.6709H97.0434V89.7721H96.0085V77.6709ZM87.6329 82.8177C87.6329 80.2512 88.9024 78.623 90.6961 78.623C92.4761 78.623 93.7456 80.2512 93.7456 82.8177C93.7456 85.3842 92.4761 87.0262 90.6961 87.0262C88.9024 87.0262 87.6329 85.3842 87.6329 82.8177ZM88.6402 82.8177C88.6402 84.7909 89.4819 86.1017 90.6961 86.1017C91.8966 86.1017 92.7521 84.7909 92.7521 82.8177C92.7521 80.8445 91.8966 79.5475 90.6961 79.5475C89.4819 79.5475 88.6402 80.8445 88.6402 82.8177ZM104.75 78.8024V88.751H103.756V80.0028L102.349 80.9411L101.797 80.1132L103.756 78.8024H104.75ZM109.682 78.1401C111.476 78.1401 112.801 79.2301 112.801 80.8031C112.801 82.3762 111.476 83.4524 109.682 83.4524C107.888 83.4524 106.577 82.3762 106.577 80.8031C106.577 79.2301 107.888 78.1401 109.682 78.1401ZM107.585 80.8031C107.585 81.8656 108.482 82.6107 109.682 82.6107C110.896 82.6107 111.793 81.8656 111.793 80.8031C111.793 79.7407 110.896 78.9818 109.682 78.9818C108.482 78.9818 107.585 79.7407 107.585 80.8031ZM108.399 85.3152V84.4873H116.181V87.3711H109.434V88.7648H116.595V89.5927H108.44V86.5984H115.146V85.3152H108.399ZM115.132 83.8802V77.6847H116.181V83.8802H115.132ZM127.806 77.9469H128.786V82.6383H130.248V77.6847H131.242V89.7583H130.248V83.48H128.786V89.1511H127.806V77.9469ZM121.224 86.5846V79.2163H123.805V80.058H122.19V85.7153C122.645 85.7015 123.253 85.6464 123.915 85.4808L123.998 86.3501C122.99 86.5846 122.19 86.5846 121.693 86.5846H121.224ZM124.343 86.5846V79.2163H126.992V80.058H125.295V85.7291C125.861 85.7015 126.537 85.6464 127.254 85.4394L127.365 86.3087C126.357 86.5708 125.529 86.5846 124.826 86.5846H124.343Z" fill="#616161"/>
</svg>
