<svg width="302" height="56" viewBox="0 0 302 56" fill="none" xmlns="http://www.w3.org/2000/svg">
<path d="M6 0.5H296C299.038 0.5 301.5 2.96243 301.5 6V50C301.5 53.0376 299.038 55.5 296 55.5H6C2.96243 55.5 0.5 53.0376 0.5 50V6C0.5 2.96243 2.96243 0.5 6 0.5Z" fill="white"/>
<path d="M6 0.5H296C299.038 0.5 301.5 2.96243 301.5 6V50C301.5 53.0376 299.038 55.5 296 55.5H6C2.96243 55.5 0.5 53.0376 0.5 50V6C0.5 2.96243 2.96243 0.5 6 0.5Z" stroke="#E0E0E0"/>
<path d="M18.462 28.7C19.974 28.7 21.18 27.458 21.18 25.982C21.18 24.47 19.956 23.264 18.444 23.264H14.772L14.79 28.7H18.462ZM13.494 35V22.004H18.498C20.694 22.004 22.44 23.786 22.44 25.982C22.44 28.16 20.694 29.96 18.498 29.96H14.79V35H13.494ZM24.0938 21.644H25.3898V35H24.0938V21.644ZM31.3717 33.83C32.9917 33.83 34.4497 32.516 34.4678 30.5C34.4497 28.502 32.9917 27.17 31.3717 27.17C29.3737 27.17 28.2937 28.61 28.2937 30.5C28.2937 32.39 29.3737 33.83 31.3717 33.83ZM26.9977 30.5C26.9977 27.998 28.5637 25.892 31.3538 25.892C32.4157 25.892 33.6038 26.45 34.4318 27.782V25.838H35.7278V35H34.4318V33.2C33.5678 34.604 32.4338 35.126 31.3538 35.126C28.5637 35.126 26.9977 32.984 26.9977 30.5ZM41.8879 33.794C42.8239 33.794 43.6879 33.434 44.2999 32.822L45.2719 33.686C44.4079 34.55 43.2559 35.09 41.9599 35.09C39.0079 35.09 37.2979 32.912 37.2979 30.266C37.2979 27.638 39.0079 25.46 41.9599 25.46C43.2559 25.46 44.4079 26 45.2719 26.864L44.2999 27.728C43.6879 27.116 42.8239 26.756 41.8879 26.756C39.7639 26.756 38.5939 28.322 38.5939 30.266C38.5939 32.228 39.7639 33.794 41.8879 33.794ZM53.319 29.78C53.175 28.484 52.545 27.098 50.601 27.098C48.891 27.098 47.793 28.016 47.559 29.798L53.319 29.78ZM46.227 30.428C46.227 27.908 47.739 25.802 50.547 25.802C53.463 25.802 54.201 28.07 54.291 28.286C54.831 29.762 54.615 31.058 54.615 31.058H47.559C47.793 32.75 48.891 33.758 50.565 33.758C52.635 33.758 53.139 32.624 53.265 32.444L54.381 33.038C54.381 33.038 53.625 35.054 50.547 35.054C47.739 35.054 46.227 32.93 46.227 30.428ZM62.829 29.852C62.829 28.142 61.857 27.152 60.489 27.152C59.067 27.152 57.825 28.484 57.825 30.212V35H56.529V21.644H57.825V27.566C58.275 26.63 59.301 25.892 60.543 25.892C62.397 25.892 64.125 27.476 64.125 29.78V35H62.829V29.852ZM70.5155 33.812C72.5315 33.812 73.5935 32.336 73.5935 30.428C73.5935 28.52 72.5315 27.044 70.5155 27.044C68.4815 27.044 67.4555 28.52 67.4555 30.428C67.4555 32.336 68.4815 33.812 70.5155 33.812ZM66.1595 30.428C66.1595 27.926 67.7075 25.784 70.5155 25.784C73.3415 25.784 74.8895 27.926 74.8895 30.428C74.8895 32.93 73.3415 35.072 70.5155 35.072C67.7075 35.072 66.1595 32.93 66.1595 30.428ZM76.4907 21.644H77.7867V35H76.4907V21.644ZM83.7686 35.144C80.9786 35.144 79.3946 33.002 79.3946 30.482C79.3946 27.98 80.9786 25.82 83.7686 25.82C84.9386 25.82 86.1626 26.414 86.9186 27.782V21.644H88.2146V35H86.9186V33.182C86.1446 34.55 84.9386 35.144 83.7686 35.144ZM80.6906 30.482C80.6906 32.408 81.7886 33.848 83.8226 33.848C85.4786 33.848 86.9186 32.408 86.9186 30.482C86.9186 28.574 85.4786 27.116 83.8226 27.116C81.7886 27.116 80.6906 28.574 80.6906 30.482ZM97.0769 29.78C96.9329 28.484 96.3029 27.098 94.3589 27.098C92.6489 27.098 91.5509 28.016 91.3169 29.798L97.0769 29.78ZM89.9849 30.428C89.9849 27.908 91.4969 25.802 94.3049 25.802C97.2209 25.802 97.9589 28.07 98.0489 28.286C98.5889 29.762 98.3729 31.058 98.3729 31.058H91.3169C91.5509 32.75 92.6489 33.758 94.3229 33.758C96.3929 33.758 96.8969 32.624 97.0229 32.444L98.1389 33.038C98.1389 33.038 97.3829 35.054 94.3049 35.054C91.4969 35.054 89.9849 32.93 89.9849 30.428ZM101.385 27.764C101.907 26.558 103.401 25.748 104.643 25.748V27.08C102.969 27.08 101.385 28.826 101.385 30.284V35H100.089V25.838H101.385V27.764Z" fill="#BDBDBD"/>
<path fill-rule="evenodd" clip-rule="evenodd" d="M271.293 24.2929C271.683 23.9024 272.317 23.9024 272.707 24.2929L278 29.5858L283.293 24.2929C283.683 23.9024 284.317 23.9024 284.707 24.2929C285.098 24.6834 285.098 25.3166 284.707 25.7071L278.707 31.7071C278.317 32.0976 277.683 32.0976 277.293 31.7071L271.293 25.7071C270.902 25.3166 270.902 24.6834 271.293 24.2929Z" fill="#616161"/>
</svg>
