<svg width="467" height="18" viewBox="0 0 467 18" fill="none" xmlns="http://www.w3.org/2000/svg">
<path d="M34 8C34 3.58172 37.5817 0 42 0H425C429.418 0 433 3.58172 433 8C433 12.4183 429.418 16 425 16H42C37.5817 16 34 12.4183 34 8Z" fill="white"/>
<path d="M34 8C34 3.58172 37.5817 0 42 0H193C197.418 0 201 3.58172 201 8C201 12.4183 197.418 16 193 16H42C37.5817 16 34 12.4183 34 8Z" fill="url(#paint0_linear_1558_48335)"/>
<rect y="1" width="16.558" height="16.558" rx="8.27899" fill="#333333"/>
<path d="M9.44413 5.26523V13.3235L8.11949 13.3124V6.72234L6.67343 7.38465L6.17669 6.1704L8.11949 5.26523H9.44413Z" fill="white"/>
<path d="M43.875 5.59975C41.8428 5.59975 40.1954 7.24714 40.1954 9.2793C40.1954 11.3115 41.8428 12.9588 43.875 12.9588C45.9072 12.9588 47.5546 11.3115 47.5546 9.2793C47.5546 7.24714 45.9072 5.59975 43.875 5.59975ZM43.875 9.2793L43.875 8.58938L16.2784 8.58938L16.2784 9.2793L16.2784 9.96921L43.875 9.96921L43.875 9.2793Z" fill="#333333"/>
<rect x="450" y="1" width="16.558" height="16.558" rx="8.27899" fill="#333333"/>
<path d="M455.464 11.9988C457.086 10.4424 459.206 9.19499 459.206 7.88139C459.206 6.92103 458.621 6.5126 457.892 6.5126C457.418 6.5126 456.821 6.68922 456.457 7.484L455.254 6.94311C455.883 5.5412 457.175 5.18796 457.892 5.18796C459.14 5.18796 460.53 6.15936 460.53 7.88139C460.53 9.54823 458.908 10.8398 457.495 11.9988H460.652V13.3235H455.464V11.9988Z" fill="white"/>
<path d="M422.404 12.9588C424.436 12.9588 426.084 11.3115 426.084 9.2793C426.084 7.24714 424.436 5.59975 422.404 5.59975C420.372 5.59975 418.725 7.24714 418.725 9.2793C418.725 11.3115 420.372 12.9588 422.404 12.9588ZM422.404 9.2793L422.404 9.96921L450.443 9.96921L450.443 9.2793L450.443 8.58938L422.404 8.58938L422.404 9.2793Z" fill="#333333"/>
<defs>
<linearGradient id="paint0_linear_1558_48335" x1="80.9687" y1="2.83333" x2="82.0449" y2="19.1929" gradientUnits="userSpaceOnUse">
<stop stop-color="#FF8120"/>
<stop offset="1" stop-color="#E54304"/>
</linearGradient>
</defs>
</svg>
