<svg width="340" height="78" viewBox="0 0 340 78" fill="none" xmlns="http://www.w3.org/2000/svg">
<g opacity="0.8">
<path d="M0 8C0 3.58172 3.58172 0 8 0H332C336.418 0 340 3.58172 340 8V70C340 74.4183 336.418 78 332 78H8C3.58172 78 0 74.4183 0 70V8Z" fill="#1A1A1A"/>
<path d="M35.2226 19.004V20.264H31.1546V32H29.8586V20.264H25.8086V19.004H35.2226ZM42.098 26.78C41.954 25.484 41.324 24.098 39.38 24.098C37.67 24.098 36.572 25.016 36.338 26.798L42.098 26.78ZM35.006 27.428C35.006 24.908 36.518 22.802 39.326 22.802C42.242 22.802 42.98 25.07 43.07 25.286C43.61 26.762 43.394 28.058 43.394 28.058H36.338C36.572 29.75 37.67 30.758 39.344 30.758C41.414 30.758 41.918 29.624 42.044 29.444L43.16 30.038C43.16 30.038 42.404 32.054 39.326 32.054C36.518 32.054 35.006 29.93 35.006 27.428ZM52.5888 22.838L49.1148 27.428L52.5888 32H50.9508L48.4488 28.598L45.9468 32H44.3088L47.7648 27.428L44.3088 22.838H45.9468L48.4488 26.276L50.9508 22.838H52.5888ZM58.66 31.802C58.336 31.874 57.85 31.964 57.328 31.964C55.96 31.964 54.862 30.866 54.862 29.516V24.026H53.368V22.766H54.862V19.94H56.158V22.766H58.3V24.026H56.158V29.516C56.158 30.236 56.59 30.668 57.328 30.668C57.742 30.668 58.084 30.614 58.372 30.542L58.66 31.802ZM69.8561 31.802C69.5321 31.874 69.0461 31.964 68.5241 31.964C67.1561 31.964 66.0581 30.866 66.0581 29.516V24.026H64.5641V22.766H66.0581V19.94H67.3541V22.766H69.4961V24.026H67.3541V29.516C67.3541 30.236 67.7861 30.668 68.5241 30.668C68.9381 30.668 69.2801 30.614 69.5681 30.542L69.8561 31.802ZM75.2975 30.812C77.3135 30.812 78.3755 29.336 78.3755 27.428C78.3755 25.52 77.3135 24.044 75.2975 24.044C73.2635 24.044 72.2375 25.52 72.2375 27.428C72.2375 29.336 73.2635 30.812 75.2975 30.812ZM70.9415 27.428C70.9415 24.926 72.4895 22.784 75.2975 22.784C78.1235 22.784 79.6715 24.926 79.6715 27.428C79.6715 29.93 78.1235 32.072 75.2975 32.072C72.4895 32.072 70.9415 29.93 70.9415 27.428ZM85.4487 30.83C87.0687 30.83 88.5267 29.516 88.5447 27.5C88.5267 25.502 87.0687 24.17 85.4487 24.17C83.4507 24.17 82.3707 25.61 82.3707 27.5C82.3707 29.39 83.4507 30.83 85.4487 30.83ZM81.0747 27.5C81.0747 24.998 82.6407 22.892 85.4307 22.892C86.4927 22.892 87.6807 23.45 88.5087 24.782V22.838H89.8047V32H88.5087V30.2C87.6447 31.604 86.5107 32.126 85.4307 32.126C82.6407 32.126 81.0747 29.984 81.0747 27.5ZM92.9228 29.516C93.2828 30.344 94.1288 30.83 95.2268 30.776C96.8108 30.74 97.4408 28.778 95.8208 28.256C95.2268 28.076 94.1468 27.788 93.2648 27.212C91.8968 26.294 91.9148 24.944 92.3288 24.116C92.8868 23.018 94.3088 22.694 95.1368 22.766C95.9108 22.856 96.9908 23.126 97.6748 24.044L96.6308 24.8C96.2528 24.278 95.6408 24.116 95.0288 24.044C94.4708 23.99 93.7328 24.188 93.4628 24.692C93.2288 25.178 93.2468 25.664 93.9848 26.15C94.6868 26.618 95.5868 26.834 96.2168 27.05C99.2408 28.022 98.2688 31.982 95.2628 32.054C93.7508 32.126 92.3108 31.334 91.7528 30.02L92.9228 29.516ZM104.483 31.802C104.159 31.874 103.673 31.964 103.151 31.964C101.783 31.964 100.685 30.866 100.685 29.516V24.026H99.1907V22.766H100.685V19.94H101.981V22.766H104.123V24.026H101.981V29.516C101.981 30.236 102.413 30.668 103.151 30.668C103.565 30.668 103.907 30.614 104.195 30.542L104.483 31.802ZM117.479 29.93L112.475 21.524V32H111.179V19.004H112.475L117.479 27.374L122.483 19.004H123.797V32H122.501V21.506L117.479 29.93ZM127.736 28.238C127.736 29.624 128.6 30.74 130.112 30.74C131.822 30.74 132.83 29.3 132.83 28.076V22.766H134.126V32H132.83V30.452C132.164 31.442 131.426 32 130.058 32C127.934 32 126.44 30.38 126.44 28.382V22.838H127.736V28.238ZM141.078 31.802C140.754 31.874 140.268 31.964 139.746 31.964C138.378 31.964 137.28 30.866 137.28 29.516V24.026H135.786V22.766H137.28V19.94H138.576V22.766H140.718V24.026H138.576V29.516C138.576 30.236 139.008 30.668 139.746 30.668C140.16 30.668 140.502 30.614 140.79 30.542L141.078 31.802ZM143.105 22.838H144.401V32H143.105V22.838ZM142.925 19.508C142.925 19.058 143.213 18.698 143.753 18.698C144.275 18.698 144.563 19.058 144.563 19.508C144.563 19.976 144.275 20.336 143.753 20.336C143.213 20.336 142.925 19.976 142.925 19.508ZM151.267 30.884C153.247 30.884 154.363 29.408 154.363 27.482C154.363 25.592 153.247 24.116 151.267 24.116C149.611 24.116 148.189 25.592 148.189 27.482C148.189 29.408 149.611 30.884 151.267 30.884ZM146.875 36.14V22.838H148.171V24.782C148.765 23.486 150.169 22.856 151.285 22.856C154.093 22.856 155.659 24.998 155.659 27.482C155.659 30.002 154.093 32.144 151.285 32.144C150.133 32.144 148.765 31.37 148.171 30.2V36.14H146.875ZM157.266 18.644H158.562V32H157.266V18.644ZM167.262 26.78C167.118 25.484 166.488 24.098 164.544 24.098C162.834 24.098 161.736 25.016 161.502 26.798L167.262 26.78ZM160.17 27.428C160.17 24.908 161.682 22.802 164.49 22.802C167.406 22.802 168.144 25.07 168.234 25.286C168.774 26.762 168.558 28.058 168.558 28.058H161.502C161.736 29.75 162.834 30.758 164.508 30.758C166.578 30.758 167.082 29.624 167.208 29.444L168.324 30.038C168.324 30.038 167.568 32.054 164.49 32.054C161.682 32.054 160.17 29.93 160.17 27.428ZM176.19 19.004V30.74H182.922V32H174.894V19.004H176.19ZM185.415 19.004H186.711V32H185.415V19.004ZM195.763 26.6C195.763 25.124 194.899 24.098 193.387 24.098C191.821 24.098 190.669 25.556 190.669 26.78V32H189.373V22.838H190.669V24.404C191.281 23.504 192.181 22.838 193.441 22.838C195.583 22.838 197.059 24.458 197.059 26.474V32H195.763V26.6ZM205.887 26.78C205.743 25.484 205.113 24.098 203.169 24.098C201.459 24.098 200.361 25.016 200.127 26.798L205.887 26.78ZM198.795 27.428C198.795 24.908 200.307 22.802 203.115 22.802C206.031 22.802 206.769 25.07 206.859 25.286C207.399 26.762 207.183 28.058 207.183 28.058H200.127C200.361 29.75 201.459 30.758 203.133 30.758C205.203 30.758 205.707 29.624 205.833 29.444L206.949 30.038C206.949 30.038 206.193 32.054 203.115 32.054C200.307 32.054 198.795 29.93 198.795 27.428ZM210.079 30.434C210.655 30.434 210.961 30.83 210.961 31.316C210.961 31.838 210.655 32.234 210.079 32.234C209.485 32.234 209.161 31.838 209.161 31.316C209.161 30.83 209.485 30.434 210.079 30.434ZM223.101 25.7C224.613 25.7 225.819 24.458 225.819 22.982C225.819 21.47 224.595 20.264 223.083 20.264H219.411L219.429 25.7H223.101ZM218.133 32V19.004H223.137C225.333 19.004 227.079 20.786 227.079 22.982C227.079 25.16 225.333 26.96 223.137 26.96H219.429V32H218.133ZM228.733 18.644H230.029V32H228.733V18.644ZM238.729 26.78C238.585 25.484 237.955 24.098 236.011 24.098C234.301 24.098 233.203 25.016 232.969 26.798L238.729 26.78ZM231.637 27.428C231.637 24.908 233.149 22.802 235.957 22.802C238.873 22.802 239.611 25.07 239.701 25.286C240.241 26.762 240.025 28.058 240.025 28.058H232.969C233.203 29.75 234.301 30.758 235.975 30.758C238.045 30.758 238.549 29.624 238.675 29.444L239.791 30.038C239.791 30.038 239.035 32.054 235.957 32.054C233.149 32.054 231.637 29.93 231.637 27.428ZM245.863 30.83C247.483 30.83 248.941 29.516 248.959 27.5C248.941 25.502 247.483 24.17 245.863 24.17C243.865 24.17 242.785 25.61 242.785 27.5C242.785 29.39 243.865 30.83 245.863 30.83ZM241.489 27.5C241.489 24.998 243.055 22.892 245.845 22.892C246.907 22.892 248.095 23.45 248.923 24.782V22.838H250.219V32H248.923V30.2C248.059 31.604 246.925 32.126 245.845 32.126C243.055 32.126 241.489 29.984 241.489 27.5ZM253.337 29.516C253.697 30.344 254.543 30.83 255.641 30.776C257.225 30.74 257.855 28.778 256.235 28.256C255.641 28.076 254.561 27.788 253.679 27.212C252.311 26.294 252.329 24.944 252.743 24.116C253.301 23.018 254.723 22.694 255.551 22.766C256.325 22.856 257.405 23.126 258.089 24.044L257.045 24.8C256.667 24.278 256.055 24.116 255.443 24.044C254.885 23.99 254.147 24.188 253.877 24.692C253.643 25.178 253.661 25.664 254.399 26.15C255.101 26.618 256.001 26.834 256.631 27.05C259.655 28.022 258.683 31.982 255.677 32.054C254.165 32.126 252.725 31.334 252.167 30.02L253.337 29.516ZM267.125 26.78C266.981 25.484 266.351 24.098 264.407 24.098C262.697 24.098 261.599 25.016 261.365 26.798L267.125 26.78ZM260.033 27.428C260.033 24.908 261.545 22.802 264.353 22.802C267.269 22.802 268.007 25.07 268.097 25.286C268.637 26.762 268.421 28.058 268.421 28.058H261.365C261.599 29.75 262.697 30.758 264.371 30.758C266.441 30.758 266.945 29.624 267.071 29.444L268.187 30.038C268.187 30.038 267.431 32.054 264.353 32.054C261.545 32.054 260.033 29.93 260.033 27.428ZM281.327 26.78C281.183 25.484 280.553 24.098 278.609 24.098C276.899 24.098 275.801 25.016 275.567 26.798L281.327 26.78ZM274.235 27.428C274.235 24.908 275.747 22.802 278.555 22.802C281.471 22.802 282.209 25.07 282.299 25.286C282.839 26.762 282.623 28.058 282.623 28.058H275.567C275.801 29.75 276.899 30.758 278.573 30.758C280.643 30.758 281.147 29.624 281.273 29.444L282.389 30.038C282.389 30.038 281.633 32.054 278.555 32.054C275.747 32.054 274.235 29.93 274.235 27.428ZM290.819 26.6C290.819 25.124 289.955 24.098 288.443 24.098C286.877 24.098 285.725 25.556 285.725 26.78V32H284.429V22.838H285.725V24.404C286.337 23.504 287.237 22.838 288.497 22.838C290.639 22.838 292.115 24.458 292.115 26.474V32H290.819V26.6ZM298.891 31.802C298.567 31.874 298.081 31.964 297.559 31.964C296.191 31.964 295.093 30.866 295.093 29.516V24.026H293.599V22.766H295.093V19.94H296.389V22.766H298.531V24.026H296.389V29.516C296.389 30.236 296.821 30.668 297.559 30.668C297.973 30.668 298.315 30.614 298.603 30.542L298.891 31.802ZM307.068 26.78C306.924 25.484 306.294 24.098 304.35 24.098C302.64 24.098 301.542 25.016 301.308 26.798L307.068 26.78ZM299.976 27.428C299.976 24.908 301.488 22.802 304.296 22.802C307.212 22.802 307.95 25.07 308.04 25.286C308.58 26.762 308.364 28.058 308.364 28.058H301.308C301.542 29.75 302.64 30.758 304.314 30.758C306.384 30.758 306.888 29.624 307.014 29.444L308.13 30.038C308.13 30.038 307.374 32.054 304.296 32.054C301.488 32.054 299.976 29.93 299.976 27.428ZM311.376 24.764C311.898 23.558 313.392 22.748 314.634 22.748V24.08C312.96 24.08 311.376 25.826 311.376 27.284V32H310.08V22.838H311.376V24.764ZM115.691 53.384C115.691 51.926 114.809 51.098 113.513 51.098C112.307 51.098 111.065 52.232 111.065 53.384V59H109.769V53.384C109.769 52.232 109.031 51.098 107.627 51.098C106.349 51.098 105.161 52.232 105.161 53.528V59H103.865V49.838H105.161V51.422C105.737 50.432 106.583 49.838 107.681 49.838C109.013 49.838 109.895 50.414 110.543 51.674C111.209 50.738 112.127 49.838 113.567 49.838C115.439 49.838 116.987 51.35 116.987 53.24V59H115.691V53.384ZM123.23 57.812C125.246 57.812 126.308 56.336 126.308 54.428C126.308 52.52 125.246 51.044 123.23 51.044C121.196 51.044 120.17 52.52 120.17 54.428C120.17 56.336 121.196 57.812 123.23 57.812ZM118.874 54.428C118.874 51.926 120.422 49.784 123.23 49.784C126.056 49.784 127.604 51.926 127.604 54.428C127.604 56.93 126.056 59.072 123.23 59.072C120.422 59.072 118.874 56.93 118.874 54.428ZM130.555 51.764C131.077 50.558 132.571 49.748 133.813 49.748V51.08C132.139 51.08 130.555 52.826 130.555 54.284V59H129.259V49.838H130.555V51.764ZM141.68 53.78C141.536 52.484 140.906 51.098 138.962 51.098C137.252 51.098 136.154 52.016 135.92 53.798L141.68 53.78ZM134.588 54.428C134.588 51.908 136.1 49.802 138.908 49.802C141.824 49.802 142.562 52.07 142.652 52.286C143.192 53.762 142.976 55.058 142.976 55.058H135.92C136.154 56.75 137.252 57.758 138.926 57.758C140.996 57.758 141.5 56.624 141.626 56.444L142.742 57.038C142.742 57.038 141.986 59.054 138.908 59.054C136.1 59.054 134.588 56.93 134.588 54.428ZM153.83 58.802C153.506 58.874 153.02 58.964 152.498 58.964C151.13 58.964 150.032 57.866 150.032 56.516V51.026H148.538V49.766H150.032V46.94H151.328V49.766H153.47V51.026H151.328V56.516C151.328 57.236 151.76 57.668 152.498 57.668C152.912 57.668 153.254 57.614 153.542 57.542L153.83 58.802ZM162.192 53.852C162.192 52.142 161.22 51.152 159.852 51.152C158.43 51.152 157.188 52.484 157.188 54.212V59H155.892V45.644H157.188V51.566C157.638 50.63 158.664 49.892 159.906 49.892C161.76 49.892 163.488 51.476 163.488 53.78V59H162.192V53.852ZM169.897 57.83C171.517 57.83 172.975 56.516 172.993 54.5C172.975 52.502 171.517 51.17 169.897 51.17C167.899 51.17 166.819 52.61 166.819 54.5C166.819 56.39 167.899 57.83 169.897 57.83ZM165.523 54.5C165.523 51.998 167.089 49.892 169.879 49.892C170.941 49.892 172.129 50.45 172.957 51.782V49.838H174.253V59H172.957V57.2C172.093 58.604 170.959 59.126 169.879 59.126C167.089 59.126 165.523 56.984 165.523 54.5ZM182.564 53.6C182.564 52.124 181.7 51.098 180.188 51.098C178.622 51.098 177.47 52.556 177.47 53.78V59H176.174V49.838H177.47V51.404C178.082 50.504 178.982 49.838 180.242 49.838C182.384 49.838 183.86 51.458 183.86 53.474V59H182.564V53.6ZM189.806 57.722C192.38 55.22 196.286 52.214 196.286 49.856C196.286 48.056 195.098 47.138 193.694 47.138C192.704 47.138 191.606 47.48 190.94 49.01L189.752 48.506C190.688 46.382 192.452 45.842 193.694 45.842C195.62 45.842 197.582 47.318 197.582 49.856C197.582 52.538 194.234 55.4 191.714 57.722H197.798V59.018H189.806V57.722ZM203.713 45.644H205.009V59H203.713V45.644ZM207.383 49.838H208.679V59H207.383V49.838ZM207.203 46.508C207.203 46.058 207.491 45.698 208.031 45.698C208.553 45.698 208.841 46.058 208.841 46.508C208.841 46.976 208.553 47.336 208.031 47.336C207.491 47.336 207.203 46.976 207.203 46.508ZM217.435 53.6C217.435 52.124 216.571 51.098 215.059 51.098C213.493 51.098 212.341 52.556 212.341 53.78V59H211.045V49.838H212.341V51.404C212.953 50.504 213.853 49.838 215.113 49.838C217.255 49.838 218.731 51.458 218.731 53.474V59H217.435V53.6ZM227.559 53.78C227.415 52.484 226.785 51.098 224.841 51.098C223.131 51.098 222.033 52.016 221.799 53.798L227.559 53.78ZM220.467 54.428C220.467 51.908 221.979 49.802 224.787 49.802C227.703 49.802 228.441 52.07 228.531 52.286C229.071 53.762 228.855 55.058 228.855 55.058H221.799C222.033 56.75 223.131 57.758 224.805 57.758C226.875 57.758 227.379 56.624 227.505 56.444L228.621 57.038C228.621 57.038 227.865 59.054 224.787 59.054C221.979 59.054 220.467 56.93 220.467 54.428ZM231.489 56.516C231.849 57.344 232.695 57.83 233.793 57.776C235.377 57.74 236.007 55.778 234.387 55.256C233.793 55.076 232.713 54.788 231.831 54.212C230.463 53.294 230.481 51.944 230.895 51.116C231.453 50.018 232.875 49.694 233.703 49.766C234.477 49.856 235.557 50.126 236.241 51.044L235.197 51.8C234.819 51.278 234.207 51.116 233.595 51.044C233.037 50.99 232.299 51.188 232.029 51.692C231.795 52.178 231.813 52.664 232.551 53.15C233.253 53.618 234.153 53.834 234.783 54.05C237.807 55.022 236.835 58.982 233.829 59.054C232.317 59.126 230.877 58.334 230.319 57.02L231.489 56.516Z" fill="white"/>
</g>
</svg>
