<svg width="371" height="157" viewBox="0 0 371 157" fill="none" xmlns="http://www.w3.org/2000/svg">
<path d="M4.27196 6.06169V18H3.07978V7.50224L1.39087 8.62818L0.728551 7.6347L3.07978 6.06169H4.27196ZM16.4112 4.70394H17.6531V9.05869H19.8221V10.0853H17.6531V15.2017H16.4112V4.70394ZM7.12218 12.6352V5.96235H13.497V7.0055H8.34747V11.5921C11.2451 11.5921 12.9009 11.5093 14.8216 11.1119L14.9707 12.1219C12.9506 12.5193 11.2451 12.6352 8.23156 12.6352H7.12218ZM8.67863 18.8776V14.1585H9.90392V17.851H18.3154V18.8776H8.67863ZM26.2415 12.4034H28.9405V9.78724H26.4733C25.7779 12.2378 24.2049 14.44 21.4728 16.0793L20.7443 15.1686C23.8572 13.2975 25.4467 10.6483 25.6785 7.60159H21.3569V6.57499H26.9038C26.9038 7.3201 26.8376 8.06521 26.7051 8.7772H28.9405V5.10133H30.1161V18.4471H28.9405V13.4134H26.2415V12.4034ZM31.8381 19.2087V4.7205H33.0303V19.2087H31.8381Z" fill="black"/>
<g clip-path="url(#clip0_1133_62664)">
<path d="M51 12.4998C51 10.7325 52.4327 9.2998 54.2 9.2998H367.8C369.567 9.2998 371 10.7325 371 12.4998C371 14.2671 369.567 15.6998 367.8 15.6998H54.2C52.4327 15.6998 51 14.2671 51 12.4998Z" fill="white"/>
<path d="M51 12.4998C51 10.7325 52.4327 9.2998 54.2 9.2998H127.8C129.567 9.2998 131 10.7325 131 12.4998C131 14.2671 129.567 15.6998 127.8 15.6998H54.2C52.4327 15.6998 51 14.2671 51 12.4998Z" fill="url(#paint0_linear_1133_62664)"/>
</g>
<path d="M0.910689 60.8244C3.27848 58.5228 6.87156 55.7576 6.87156 53.5885C6.87156 51.9327 5.77874 51.0883 4.48721 51.0883C3.57652 51.0883 2.56649 51.4029 1.95384 52.8103L0.861015 52.3467C1.72203 50.3929 3.34471 49.8961 4.48721 49.8961C6.25892 49.8961 8.06374 51.2539 8.06374 53.5885C8.06374 56.0557 4.98395 58.6884 2.66584 60.8244H8.26243V62.0166H0.910689V60.8244ZM19.629 48.7039H20.8709V53.0587H23.04V54.0853H20.8709V59.2017H19.629V48.7039ZM10.34 56.6352V49.9623H16.7148V51.0055H11.5653V55.5921C14.4629 55.5921 16.1187 55.5093 18.0394 55.1119L18.1885 56.1219C16.1684 56.5193 14.4629 56.6352 11.4494 56.6352H10.34ZM11.8964 62.8776V58.1585H13.1217V61.851H21.5332V62.8776H11.8964ZM29.4593 56.4034H32.1583V53.7872H29.6911C28.9957 56.2378 27.4227 58.44 24.6906 60.0793L23.9621 59.1686C27.075 57.2975 28.6645 54.6483 28.8964 51.6016H24.5747V50.575H30.1216C30.1216 51.3201 30.0554 52.0652 29.923 52.7772H32.1583V49.1013H33.3339V62.4471H32.1583V57.4134H29.4593V56.4034ZM35.0559 63.2087V48.7205H36.2481V63.2087H35.0559Z" fill="black"/>
<g clip-path="url(#clip1_1133_62664)">
<path d="M51 56.4998C51 54.7325 52.4327 53.2998 54.2 53.2998H367.8C369.567 53.2998 371 54.7325 371 56.4998C371 58.2671 369.567 59.6998 367.8 59.6998H54.2C52.4327 59.6998 51 58.2671 51 56.4998Z" fill="white"/>
<path d="M51 56.4998C51 54.7325 52.4327 53.2998 54.2 53.2998H207.8C209.567 53.2998 211 54.7325 211 56.4998C211 58.2671 209.567 59.6998 207.8 59.6998H54.2C52.4327 59.6998 51 58.2671 51 56.4998Z" fill="url(#paint1_linear_1133_62664)"/>
</g>
<path d="M6.7391 99.8239C7.71602 100.42 8.54392 101.43 8.54392 102.622C8.54392 104.626 6.72254 106.099 4.68591 106.099C2.66584 106.099 0.844457 104.626 0.844457 102.622H2.03663C2.03663 103.748 3.1129 104.891 4.68591 104.891C6.27548 104.891 7.35175 103.765 7.35175 102.639C7.35175 101.513 6.62319 100.403 4.71903 100.403H3.84145V99.2112H4.71903C6.35827 99.2112 7.18617 98.2343 7.18617 97.1746C7.18617 96.1811 6.2258 95.138 4.78526 95.138C3.34471 95.138 2.36779 96.1646 2.36779 97.2077H1.17562C1.17562 95.3367 2.89765 93.9458 4.78526 93.9458C6.68943 93.9458 8.37834 95.3367 8.37834 97.2077C8.37834 98.3005 7.63323 99.2278 6.7391 99.8239ZM19.9201 92.7039H21.1619V97.0587H23.331V98.0853H21.1619V103.202H19.9201V92.7039ZM10.631 100.635V93.9623H17.0059V95.0055H11.8563V99.5921C14.754 99.5921 16.4098 99.5093 18.3305 99.1119L18.4795 100.122C16.4595 100.519 14.754 100.635 11.7404 100.635H10.631ZM12.1875 106.878V102.159H13.4128V105.851H21.8242V106.878H12.1875ZM29.7504 100.403H32.4493V97.7872H29.9822C29.2868 100.238 27.7138 102.44 24.9817 104.079L24.2531 103.169C27.366 101.298 28.9556 98.6483 29.1874 95.6016H24.8658V94.575H30.4127C30.4127 95.3201 30.3465 96.0652 30.214 96.7772H32.4493V93.1013H33.625V106.447H32.4493V101.413H29.7504V100.403ZM35.347 107.209V92.7205H36.5392V107.209H35.347Z" fill="black"/>
<g clip-path="url(#clip2_1133_62664)">
<path d="M51 100.5C51 98.7325 52.4327 97.2998 54.2 97.2998H367.8C369.567 97.2998 371 98.7325 371 100.5C371 102.267 369.567 103.7 367.8 103.7H54.2C52.4327 103.7 51 102.267 51 100.5Z" fill="white"/>
<path d="M51 100.5C51 98.7325 52.4327 97.2998 54.2 97.2998H287.8C289.567 97.2998 291 98.7325 291 100.5C291 102.267 289.567 103.7 287.8 103.7H54.2C52.4327 103.7 51 102.267 51 100.5Z" fill="url(#paint2_linear_1133_62664)"/>
</g>
<path d="M7.43454 138.045V145.579H9.20624V146.738H7.43454V150H6.24236V146.738H0.844457V145.579L6.27548 138.045H7.43454ZM2.31812 145.579H6.24236V140.131L2.31812 145.579ZM20.583 136.704H21.8249V141.059H23.994V142.085H21.8249V147.202H20.583V136.704ZM11.294 144.635V137.962H17.6688V139.005H12.5193V143.592C15.4169 143.592 17.0727 143.509 18.9935 143.112L19.1425 144.122C17.1224 144.519 15.4169 144.635 12.4034 144.635H11.294ZM12.8505 150.878V146.159H14.0758V149.851H22.4872V150.878H12.8505ZM30.4134 144.403H33.1123V141.787H30.6452C29.9497 144.238 28.3767 146.44 25.6447 148.079L24.9161 147.169C28.029 145.298 29.6186 142.648 29.8504 139.602H25.5287V138.575H31.0757C31.0757 139.32 31.0094 140.065 30.877 140.777H33.1123V137.101H34.2879V150.447H33.1123V145.413H30.4134V144.403ZM36.0099 151.209V136.72H37.2021V151.209H36.0099Z" fill="black"/>
<g clip-path="url(#clip3_1133_62664)">
<path d="M51 144.5C51 142.732 52.4327 141.3 54.2 141.3H367.8C369.567 141.3 371 142.732 371 144.5C371 146.267 369.567 147.7 367.8 147.7H54.2C52.4327 147.7 51 146.267 51 144.5Z" fill="white"/>
<path d="M51 144.5C51 142.732 52.4327 141.3 54.2 141.3H367.8C369.567 141.3 371 142.732 371 144.5C371 146.267 369.567 147.7 367.8 147.7H54.2C52.4327 147.7 51 146.267 51 144.5Z" fill="url(#paint3_linear_1133_62664)"/>
</g>
<defs>
<linearGradient id="paint0_linear_1133_62664" x1="73.5" y1="10.4331" x2="73.8599" y2="16.9855" gradientUnits="userSpaceOnUse">
<stop stop-color="#FF8120"/>
<stop offset="1" stop-color="#E54304"/>
</linearGradient>
<linearGradient id="paint1_linear_1133_62664" x1="96" y1="54.4331" x2="96.1803" y2="61.0003" gradientUnits="userSpaceOnUse">
<stop stop-color="#FF8120"/>
<stop offset="1" stop-color="#E54304"/>
</linearGradient>
<linearGradient id="paint2_linear_1133_62664" x1="118.5" y1="98.4331" x2="118.62" y2="105.003" gradientUnits="userSpaceOnUse">
<stop stop-color="#FF8120"/>
<stop offset="1" stop-color="#E54304"/>
</linearGradient>
<linearGradient id="paint3_linear_1133_62664" x1="141" y1="142.433" x2="141.09" y2="149.004" gradientUnits="userSpaceOnUse">
<stop stop-color="#FF8120"/>
<stop offset="1" stop-color="#E54304"/>
</linearGradient>
<clipPath id="clip0_1133_62664">
<path d="M51 12.4998C51 10.7325 52.4327 9.2998 54.2 9.2998H367.8C369.567 9.2998 371 10.7325 371 12.4998C371 14.2671 369.567 15.6998 367.8 15.6998H54.2C52.4327 15.6998 51 14.2671 51 12.4998Z" fill="white"/>
</clipPath>
<clipPath id="clip1_1133_62664">
<path d="M51 56.4998C51 54.7325 52.4327 53.2998 54.2 53.2998H367.8C369.567 53.2998 371 54.7325 371 56.4998C371 58.2671 369.567 59.6998 367.8 59.6998H54.2C52.4327 59.6998 51 58.2671 51 56.4998Z" fill="white"/>
</clipPath>
<clipPath id="clip2_1133_62664">
<path d="M51 100.5C51 98.7325 52.4327 97.2998 54.2 97.2998H367.8C369.567 97.2998 371 98.7325 371 100.5C371 102.267 369.567 103.7 367.8 103.7H54.2C52.4327 103.7 51 102.267 51 100.5Z" fill="white"/>
</clipPath>
<clipPath id="clip3_1133_62664">
<path d="M51 144.5C51 142.732 52.4327 141.3 54.2 141.3H367.8C369.567 141.3 371 142.732 371 144.5C371 146.267 369.567 147.7 367.8 147.7H54.2C52.4327 147.7 51 146.267 51 144.5Z" fill="white"/>
</clipPath>
</defs>
</svg>
