<svg width="644" height="205" viewBox="0 0 644 205" fill="none" xmlns="http://www.w3.org/2000/svg">
<g opacity="0.6">
<path d="M43.7199 38.2481V49.7637H50.3255V51H42.4483V38.2481H43.7199ZM55.4452 49.852C57.0348 49.852 58.4654 48.5627 58.483 46.5845C58.4654 44.6241 57.0348 43.3171 55.4452 43.3171C53.4847 43.3171 52.425 44.73 52.425 46.5845C52.425 48.439 53.4847 49.852 55.4452 49.852ZM51.1534 46.5845C51.1534 44.1295 52.6899 42.0631 55.4275 42.0631C56.4696 42.0631 57.6353 42.6106 58.4477 43.9176V42.0101H59.7194V51H58.4477V49.2338C57.5999 50.6114 56.4872 51.1236 55.4275 51.1236C52.6899 51.1236 51.1534 49.0219 51.1534 46.5845ZM66.2752 49.8873C68.271 49.8873 69.3484 48.4567 69.3484 46.5669C69.3484 44.6947 68.271 43.2464 66.2752 43.2464C64.6327 43.2464 63.2374 44.6947 63.2374 46.5669C63.2374 48.4567 64.6327 49.8873 66.2752 49.8873ZM61.9657 51V37.8949H63.2374V43.8999C64.0675 42.4517 65.3038 42.0101 66.3105 42.0101C69.0834 42.0101 70.62 44.1119 70.62 46.5669C70.62 49.0395 69.0658 51.1413 66.2929 51.1413C65.3038 51.1413 64.0675 50.7174 63.2374 49.2338V51H61.9657ZM78.9441 45.8781C78.8028 44.6064 78.1847 43.2464 76.2772 43.2464C74.5993 43.2464 73.5219 44.1472 73.2923 45.8957L78.9441 45.8781ZM71.9854 46.5139C71.9854 44.0412 73.469 41.9748 76.2242 41.9748C79.0854 41.9748 79.8096 44.2002 79.8979 44.4121C80.4277 45.8604 80.2158 47.1321 80.2158 47.1321H73.2923C73.5219 48.7923 74.5993 49.7813 76.2419 49.7813C78.273 49.7813 78.7675 48.6686 78.8911 48.492L79.9862 49.0749C79.9862 49.0749 79.2444 51.053 76.2242 51.053C73.469 51.053 71.9854 48.9689 71.9854 46.5139ZM81.8281 37.8949H83.0998V51H81.8281V37.8949Z" fill="#616161"/>
<mask id="path-2-inside-1_1283_48543" fill="white">
<path d="M41 73.2311C41 69.6964 43.8654 66.8311 47.4 66.8311H295.112C298.647 66.8311 301.512 69.6964 301.512 73.2311V122.248C301.512 125.782 298.647 128.648 295.112 128.648H47.4C43.8654 128.648 41 125.782 41 122.248V73.2311Z"/>
</mask>
<path d="M41 73.2311C41 69.6964 43.8654 66.8311 47.4 66.8311H295.112C298.647 66.8311 301.512 69.6964 301.512 73.2311V122.248C301.512 125.782 298.647 128.648 295.112 128.648H47.4C43.8654 128.648 41 125.782 41 122.248V73.2311Z" fill="white"/>
<path d="M47.4 66.8311V67.9349H295.112V66.8311V65.7272H47.4V66.8311ZM301.512 73.2311H300.408V122.248H301.512H302.616V73.2311H301.512ZM295.112 128.648V127.544H47.4V128.648V129.751H295.112V128.648ZM41 122.248H42.1039V73.2311H41H39.8961V122.248H41ZM47.4 128.648V127.544C44.475 127.544 42.1039 125.173 42.1039 122.248H41H39.8961C39.8961 126.392 43.2557 129.751 47.4 129.751V128.648ZM301.512 122.248H300.408C300.408 125.172 298.037 127.544 295.112 127.544V128.648V129.751C299.257 129.751 302.616 126.392 302.616 122.248H301.512ZM295.112 66.8311V67.9349C298.037 67.9349 300.408 70.3061 300.408 73.2311H301.512H302.616C302.616 69.0868 299.257 65.7272 295.112 65.7272V66.8311ZM47.4 66.8311V65.7272C43.2557 65.7272 39.8961 69.0868 39.8961 73.2311H41H42.1039C42.1039 70.3061 44.475 67.9349 47.4 67.9349V66.8311Z" fill="#999999" mask="url(#path-2-inside-1_1283_48543)"/>
<path d="M60.6443 103.261C62.83 103.261 64.0619 101.632 64.0619 99.5059C64.0619 97.4196 62.83 95.7903 60.6443 95.7903C58.8163 95.7903 57.2466 97.4196 57.2466 99.5059C57.2466 101.632 58.8163 103.261 60.6443 103.261ZM55.7962 109.063V94.3795H57.2268V96.5255C57.8825 95.0949 59.4323 94.3994 60.6642 94.3994C63.7639 94.3994 65.4925 96.7639 65.4925 99.5059C65.4925 102.288 63.7639 104.652 60.6642 104.652C59.3926 104.652 57.8825 103.798 57.2268 102.506V109.063H55.7962ZM67.2664 89.7499H68.697V104.493H67.2664V89.7499ZM75.3003 103.202C77.0885 103.202 78.698 101.751 78.7178 99.5258C78.698 97.3202 77.0885 95.8499 75.3003 95.8499C73.0948 95.8499 71.9026 97.4395 71.9026 99.5258C71.9026 101.612 73.0948 103.202 75.3003 103.202ZM70.472 99.5258C70.472 96.7639 72.2006 94.4392 75.2804 94.4392C76.4527 94.4392 77.7641 95.0551 78.6781 96.5255V94.3795H80.1087V104.493H78.6781V102.506C77.7244 104.056 76.4726 104.632 75.2804 104.632C72.2006 104.632 70.472 102.268 70.472 99.5258ZM86.9087 103.162C87.9419 103.162 88.8956 102.765 89.5712 102.089L90.6441 103.043C89.6904 103.996 88.4188 104.593 86.9881 104.593C83.7295 104.593 81.8419 102.188 81.8419 99.2675C81.8419 96.3665 83.7295 93.9623 86.9881 93.9623C88.4188 93.9623 89.6904 94.5584 90.6441 95.5121L89.5712 96.4659C88.8956 95.7903 87.9419 95.3929 86.9087 95.3929C84.5641 95.3929 83.2725 97.1215 83.2725 99.2675C83.2725 101.433 84.5641 103.162 86.9087 103.162ZM99.5271 98.731C99.3682 97.3004 98.6727 95.7704 96.5268 95.7704C94.6392 95.7704 93.4272 96.7838 93.1689 98.7509L99.5271 98.731ZM91.6985 99.4463C91.6985 96.6645 93.3676 94.3398 96.4672 94.3398C99.6861 94.3398 100.501 96.8434 100.6 97.0818C101.196 98.7111 100.958 100.142 100.958 100.142H93.1689C93.4272 102.009 94.6392 103.122 96.4871 103.122C98.7721 103.122 99.3284 101.87 99.4675 101.672L100.699 102.327C100.699 102.327 99.8649 104.553 96.4672 104.553C93.3676 104.553 91.6985 102.208 91.6985 99.4463ZM110.025 98.8105C110.025 96.9229 108.952 95.83 107.442 95.83C105.872 95.83 104.501 97.3004 104.501 99.2079V104.493H103.07V89.7499H104.501V96.287C104.998 95.2538 106.13 94.4392 107.501 94.4392C109.548 94.4392 111.455 96.1877 111.455 98.731V104.493H110.025V98.8105ZM118.51 103.182C120.735 103.182 121.907 101.552 121.907 99.4463C121.907 97.3401 120.735 95.7108 118.51 95.7108C116.264 95.7108 115.132 97.3401 115.132 99.4463C115.132 101.552 116.264 103.182 118.51 103.182ZM113.701 99.4463C113.701 96.6844 115.41 94.3199 118.51 94.3199C121.629 94.3199 123.338 96.6844 123.338 99.4463C123.338 102.208 121.629 104.573 118.51 104.573C115.41 104.573 113.701 102.208 113.701 99.4463ZM125.106 89.7499H126.536V104.493H125.106V89.7499ZM133.139 104.652C130.06 104.652 128.311 102.288 128.311 99.5059C128.311 96.744 130.06 94.3597 133.139 94.3597C134.431 94.3597 135.782 95.0154 136.617 96.5255V89.7499H138.047V104.493H136.617V102.486C135.762 103.996 134.431 104.652 133.139 104.652ZM129.742 99.5059C129.742 101.632 130.954 103.222 133.199 103.222C135.027 103.222 136.617 101.632 136.617 99.5059C136.617 97.3997 135.027 95.7903 133.199 95.7903C130.954 95.7903 129.742 97.3997 129.742 99.5059ZM147.83 98.731C147.671 97.3004 146.975 95.7704 144.83 95.7704C142.942 95.7704 141.73 96.7838 141.472 98.7509L147.83 98.731ZM140.001 99.4463C140.001 96.6645 141.67 94.3398 144.77 94.3398C147.989 94.3398 148.803 96.8434 148.903 97.0818C149.499 98.7111 149.26 100.142 149.26 100.142H141.472C141.73 102.009 142.942 103.122 144.79 103.122C147.075 103.122 147.631 101.87 147.77 101.672L149.002 102.327C149.002 102.327 148.168 104.553 144.77 104.553C141.67 104.553 140.001 102.208 140.001 99.4463ZM152.585 96.5056C153.161 95.1743 154.811 94.2802 156.182 94.2802V95.7505C154.334 95.7505 152.585 97.6779 152.585 99.2873V104.493H151.155V94.3795H152.585V96.5056Z" fill="#333333"/>
<path fill-rule="evenodd" clip-rule="evenodd" d="M64.2147 143.792C64.538 144.116 64.538 144.64 64.2147 144.963L51.5202 157.658C51.1969 157.981 50.6727 157.981 50.3494 157.658L44.2781 151.586C43.9548 151.263 43.9548 150.739 44.2781 150.415C44.6014 150.092 45.1256 150.092 45.449 150.415L50.9348 155.901L63.0438 143.792C63.3672 143.469 63.8914 143.469 64.2147 143.792Z" fill="#999999"/>
<path d="M81.3043 144.567V155.725H80.1916V150.532H74.319V155.725H73.2063V144.567H74.319V149.45H80.1916V144.567H81.3043ZM89.1999 151.243C89.0762 150.13 88.5353 148.94 86.8663 148.94C85.3981 148.94 84.4554 149.728 84.2545 151.258L89.1999 151.243ZM83.1109 151.799C83.1109 149.636 84.4091 147.828 86.8199 147.828C89.3235 147.828 89.9571 149.775 90.0344 149.96C90.498 151.227 90.3126 152.34 90.3126 152.34H84.2545C84.4554 153.793 85.3981 154.658 86.8354 154.658C88.6126 154.658 89.0453 153.685 89.1535 153.53L90.1117 154.04C90.1117 154.04 89.4626 155.771 86.8199 155.771C84.4091 155.771 83.1109 153.947 83.1109 151.799ZM91.7027 144.258H92.8153V155.725H91.7027V144.258ZM98.6181 154.766C100.318 154.766 101.276 153.499 101.276 151.846C101.276 150.223 100.318 148.956 98.6181 148.956C97.1963 148.956 95.9754 150.223 95.9754 151.846C95.9754 153.499 97.1963 154.766 98.6181 154.766ZM94.8473 159.279V147.858H95.96V149.528C96.47 148.415 97.6754 147.874 98.6335 147.874C101.044 147.874 102.389 149.713 102.389 151.846C102.389 154.009 101.044 155.848 98.6335 155.848C97.6445 155.848 96.47 155.184 95.96 154.179V159.279H94.8473ZM117.815 150.903C117.815 149.651 117.058 148.94 115.945 148.94C114.91 148.94 113.843 149.914 113.843 150.903V155.725H112.73V150.903C112.73 149.914 112.097 148.94 110.891 148.94C109.794 148.94 108.774 149.914 108.774 151.027V155.725H107.662V147.858H108.774V149.218C109.269 148.368 109.995 147.858 110.938 147.858C112.081 147.858 112.839 148.353 113.395 149.435C113.967 148.631 114.755 147.858 115.991 147.858C117.599 147.858 118.928 149.157 118.928 150.779V155.725H117.815V150.903ZM126.6 151.243C126.476 150.13 125.935 148.94 124.266 148.94C122.798 148.94 121.855 149.728 121.654 151.258L126.6 151.243ZM120.511 151.799C120.511 149.636 121.809 147.828 124.22 147.828C126.723 147.828 127.357 149.775 127.434 149.96C127.898 151.227 127.712 152.34 127.712 152.34H121.654C121.855 153.793 122.798 154.658 124.235 154.658C126.013 154.658 126.445 153.685 126.553 153.53L127.512 154.04C127.512 154.04 126.862 155.771 124.22 155.771C121.809 155.771 120.511 153.947 120.511 151.799ZM129.937 153.592C130.246 154.303 130.973 154.72 131.915 154.674C133.275 154.643 133.816 152.958 132.425 152.51C131.915 152.356 130.988 152.108 130.231 151.614C129.056 150.826 129.072 149.667 129.427 148.956C129.906 148.013 131.127 147.735 131.838 147.797C132.502 147.874 133.43 148.106 134.017 148.894L133.121 149.543C132.796 149.095 132.271 148.956 131.745 148.894C131.266 148.848 130.633 149.018 130.401 149.45C130.2 149.867 130.215 150.285 130.849 150.702C131.452 151.104 132.224 151.289 132.765 151.475C135.361 152.309 134.527 155.709 131.946 155.771C130.648 155.833 129.412 155.153 128.933 154.025L129.937 153.592ZM136.336 153.592C136.646 154.303 137.372 154.72 138.315 154.674C139.675 154.643 140.215 152.958 138.825 152.51C138.315 152.356 137.387 152.108 136.63 151.614C135.456 150.826 135.471 149.667 135.827 148.956C136.306 148.013 137.526 147.735 138.237 147.797C138.902 147.874 139.829 148.106 140.416 148.894L139.52 149.543C139.195 149.095 138.67 148.956 138.145 148.894C137.666 148.848 137.032 149.018 136.8 149.45C136.599 149.867 136.615 150.285 137.248 150.702C137.851 151.104 138.624 151.289 139.165 151.475C141.761 152.309 140.926 155.709 138.346 155.771C137.047 155.833 135.811 155.153 135.332 154.025L136.336 153.592ZM145.804 154.72C147.195 154.72 148.446 153.592 148.462 151.861C148.446 150.146 147.195 149.002 145.804 149.002C144.088 149.002 143.161 150.238 143.161 151.861C143.161 153.484 144.088 154.72 145.804 154.72ZM142.048 151.861C142.048 149.713 143.393 147.905 145.788 147.905C146.7 147.905 147.72 148.384 148.431 149.528V147.858H149.544V155.725H148.431V154.179C147.689 155.385 146.715 155.833 145.788 155.833C143.393 155.833 142.048 153.994 142.048 151.861ZM154.935 154.751C156.403 154.751 157.562 153.468 157.562 151.861C157.562 150.285 156.387 149.002 154.935 149.002C153.327 149.002 152.292 150.13 152.292 151.861C152.292 153.623 153.327 154.751 154.935 154.751ZM151.179 151.861C151.179 149.528 152.709 147.92 154.919 147.92C156.094 147.92 157.098 148.538 157.562 149.543V147.858H158.675V155.338C158.644 157.842 157.191 159.264 154.687 159.264C153.436 159.264 152.338 158.615 151.535 157.409L152.477 156.806C153.049 157.703 153.791 158.151 154.687 158.151C156.604 158.151 157.546 157.224 157.562 155.323V154.148C157.021 155.122 155.924 155.833 154.919 155.833C152.709 155.833 151.179 154.21 151.179 151.861ZM166.082 151.243C165.959 150.13 165.418 148.94 163.749 148.94C162.281 148.94 161.338 149.728 161.137 151.258L166.082 151.243ZM159.993 151.799C159.993 149.636 161.292 147.828 163.702 147.828C166.206 147.828 166.84 149.775 166.917 149.96C167.381 151.227 167.195 152.34 167.195 152.34H161.137C161.338 153.793 162.281 154.658 163.718 154.658C165.495 154.658 165.928 153.685 166.036 153.53L166.994 154.04C166.994 154.04 166.345 155.771 163.702 155.771C161.292 155.771 159.993 153.947 159.993 151.799Z" fill="#616161"/>
</g>
<rect x="41.0638" y="31.2156" width="260.512" height="134.948" stroke="#0D69D4" stroke-width="1.10387"/>
<rect x="41.3396" y="58.5635" width="260.512" height="8.83092" fill="#C54600" fill-opacity="0.3"/>
<line x1="28.0938" y1="59.6395" x2="301.852" y2="59.6395" stroke="#C54600" stroke-width="1.10387"/>
<line x1="28.0938" y1="67.366" x2="301.852" y2="67.366" stroke="#C54600" stroke-width="1.10387"/>
<rect x="41.3394" y="32.0723" width="260.512" height="26.4928" fill="#0D69D4" fill-opacity="0.2"/>
<rect x="41.3394" y="129.211" width="260.512" height="8.83092" fill="#C54600" fill-opacity="0.3"/>
<line x1="28.0935" y1="130.287" x2="301.852" y2="130.287" stroke="#C54600" stroke-width="1.10387"/>
<line x1="28.0935" y1="138.013" x2="301.852" y2="138.014" stroke="#C54600" stroke-width="1.10387"/>
<rect x="41.3394" y="67.3955" width="260.512" height="61.8165" fill="#0D69D4" fill-opacity="0.2"/>
<rect x="261.009" y="85.5811" width="28.7005" height="26.4928" fill="#0D69D4" fill-opacity="0.2"/>
<rect x="41.3391" y="112.074" width="260.512" height="17.6618" fill="#007D00" fill-opacity="0.3"/>
<rect x="40.2354" y="69.0234" width="13.2464" height="44.1546" fill="#007D00" fill-opacity="0.3"/>
<line x1="40.7873" y1="21.1064" x2="40.7873" y2="129.394" stroke="#007D00" stroke-width="1.10387"/>
<line x1="52.9296" y1="21.1064" x2="52.9296" y2="129.394" stroke="#007D00" stroke-width="1.10387"/>
<rect x="34.4951" y="0.000976562" width="25.279" height="19.3798" rx="5.51933" fill="#007D00"/>
<path d="M43.658 3.96232V15.001H42.3213V5.36371H42.2566L39.5616 7.15318V5.79491L42.3213 3.96232H43.658ZM46.8327 15.001V14.0308L50.4763 10.0422C50.9039 9.57507 51.256 9.16903 51.5327 8.82407C51.8094 8.47552 52.0142 8.14853 52.1472 7.8431C52.2837 7.53407 52.352 7.21068 52.352 6.8729C52.352 6.48483 52.2586 6.14885 52.0717 5.86498C51.8885 5.58111 51.6369 5.36192 51.3171 5.2074C50.9973 5.05289 50.638 4.97564 50.2391 4.97564C49.8151 4.97564 49.445 5.06367 49.1288 5.23974C48.8162 5.41222 48.5736 5.65477 48.4011 5.96739C48.2323 6.28001 48.1478 6.64653 48.1478 7.06694H46.8758C46.8758 6.42015 47.0249 5.8524 47.3232 5.36371C47.6214 4.87502 48.0274 4.49413 48.5413 4.22104C49.0587 3.94795 49.639 3.8114 50.2822 3.8114C50.929 3.8114 51.5022 3.94795 52.0016 4.22104C52.5011 4.49413 52.8928 4.86245 53.1767 5.32598C53.4605 5.78952 53.6025 6.30516 53.6025 6.8729C53.6025 7.27895 53.5288 7.67601 53.3815 8.06409C53.2377 8.44857 52.9862 8.87797 52.6269 9.35229C52.2711 9.82301 51.7771 10.3979 51.1446 11.0771L48.6653 13.7289V13.8152H53.7965V15.001H46.8327Z" fill="white"/>
<rect x="288.329" y="69.0234" width="13.2464" height="44.1546" fill="#007D00" fill-opacity="0.3"/>
<line x1="288.881" y1="21.1064" x2="288.881" y2="129.394" stroke="#007D00" stroke-width="1.10387"/>
<rect x="282.865" y="0.000976562" width="25.279" height="19.3798" rx="5.51933" fill="#007D00"/>
<path d="M292.027 3.96232V15.001H290.691V5.36371H290.626L287.931 7.15318V5.79491L290.691 3.96232H292.027ZM295.202 15.001V14.0308L298.846 10.0422C299.273 9.57507 299.625 9.16903 299.902 8.82407C300.179 8.47552 300.384 8.14853 300.517 7.8431C300.653 7.53407 300.721 7.21068 300.721 6.8729C300.721 6.48483 300.628 6.14885 300.441 5.86498C300.258 5.58111 300.006 5.36192 299.687 5.2074C299.367 5.05289 299.007 4.97564 298.609 4.97564C298.184 4.97564 297.814 5.06367 297.498 5.23974C297.186 5.41222 296.943 5.65477 296.771 5.96739C296.602 6.28001 296.517 6.64653 296.517 7.06694H295.245C295.245 6.42015 295.394 5.8524 295.693 5.36371C295.991 4.87502 296.397 4.49413 296.911 4.22104C297.428 3.94795 298.008 3.8114 298.652 3.8114C299.298 3.8114 299.872 3.94795 300.371 4.22104C300.87 4.49413 301.262 4.86245 301.546 5.32598C301.83 5.78952 301.972 6.30516 301.972 6.8729C301.972 7.27895 301.898 7.67601 301.751 8.06409C301.607 8.44857 301.356 8.87797 300.996 9.35229C300.641 9.82301 300.146 10.3979 299.514 11.0771L297.035 13.7289V13.8152H302.166V15.001H295.202Z" fill="white"/>
<line x1="301.023" y1="21.1064" x2="301.023" y2="129.394" stroke="#007D00" stroke-width="1.10387"/>
<line x1="27.6323" y1="112.626" x2="301.851" y2="112.626" stroke="#007D00" stroke-width="1.10387"/>
<line x1="27.6323" y1="129.184" x2="301.851" y2="129.184" stroke="#007D00" stroke-width="1.10387"/>
<rect x="82.1812" y="61.1113" width="4.41546" height="49.3845" fill="#C54600" fill-opacity="0.3"/>
<line x1="82.7331" y1="21.7969" x2="82.7331" y2="111.327" stroke="#C54600" stroke-width="1.10387"/>
<line x1="86.0453" y1="21.7969" x2="86.0453" y2="111.327" stroke="#C54600" stroke-width="1.10387"/>
<rect x="75.2502" y="0.000976562" width="18.279" height="19.3798" rx="5.51933" fill="#C54600"/>
<path d="M80.2736 12.7372V11.6376L85.1246 3.96232H85.9223V5.66555H85.3833L81.7181 11.4652V11.5514H88.2508V12.7372H80.2736ZM85.4695 15.001V12.403V11.891V3.96232H86.7416V15.001H85.4695Z" fill="white"/>
<rect x="60.072" y="184.898" width="18.279" height="19.3798" rx="5.51933" fill="#C54600"/>
<path d="M65.0954 197.635V196.535L69.9464 188.86H70.7441V190.563H70.2051L66.5399 196.363V196.449H73.0725V197.635H65.0954ZM70.2913 199.898V197.3V196.788V188.86H71.5633V199.898H70.2913Z" fill="white"/>
<rect x="3.49902" y="46.915" width="18.279" height="19.3798" rx="5.51933" fill="#C54600"/>
<path d="M12.3169 62.066C11.5767 62.066 10.9227 61.9348 10.355 61.6725C9.79082 61.4066 9.35064 61.0419 9.03443 60.5783C8.71822 60.1112 8.56191 59.5794 8.5655 58.9829C8.56191 58.5158 8.65354 58.0846 8.84039 57.6893C9.02724 57.2904 9.28237 56.9581 9.60577 56.6922C9.93276 56.4227 10.2975 56.252 10.6999 56.1801V56.1154C10.1717 55.9789 9.7513 55.6824 9.43868 55.2261C9.12606 54.7661 8.97155 54.2433 8.97514 53.6576C8.97155 53.0971 9.11348 52.5958 9.40095 52.1538C9.68841 51.7118 10.0837 51.3633 10.5867 51.1082C11.0934 50.853 11.6701 50.7255 12.3169 50.7255C12.9565 50.7255 13.5279 50.853 14.0309 51.1082C14.534 51.3633 14.9293 51.7118 15.2167 52.1538C15.5078 52.5958 15.6551 53.0971 15.6587 53.6576C15.6551 54.2433 15.4952 54.7661 15.179 55.2261C14.8664 55.6824 14.4513 55.9789 13.9339 56.1154V56.1801C14.3328 56.252 14.6921 56.4227 15.0119 56.6922C15.3317 56.9581 15.5868 57.2904 15.7773 57.6893C15.9677 58.0846 16.0647 58.5158 16.0683 58.9829C16.0647 59.5794 15.903 60.1112 15.5832 60.5783C15.267 61.0419 14.8268 61.4066 14.2627 61.6725C13.7021 61.9348 13.0535 62.066 12.3169 62.066ZM12.3169 60.8802C12.8164 60.8802 13.2476 60.7993 13.6105 60.6376C13.9734 60.4759 14.2537 60.2477 14.4513 59.9531C14.649 59.6584 14.7496 59.3135 14.7532 58.9182C14.7496 58.5014 14.6418 58.1331 14.4298 57.8133C14.2178 57.4935 13.9285 57.2419 13.562 57.0587C13.1991 56.8754 12.7841 56.7838 12.3169 56.7838C11.8462 56.7838 11.4258 56.8754 11.0557 57.0587C10.6891 57.2419 10.3999 57.4935 10.1879 57.8133C9.97947 58.1331 9.87706 58.5014 9.88065 58.9182C9.87706 59.3135 9.97228 59.6584 10.1663 59.9531C10.364 60.2477 10.646 60.4759 11.0125 60.6376C11.3791 60.7993 11.8139 60.8802 12.3169 60.8802ZM12.3169 55.6411C12.7122 55.6411 13.0625 55.5621 13.368 55.404C13.677 55.2459 13.9195 55.0249 14.0956 54.741C14.2717 54.4571 14.3615 54.1247 14.3651 53.7438C14.3615 53.3701 14.2735 53.0449 14.101 52.7683C13.9285 52.488 13.6896 52.2724 13.3841 52.1215C13.0787 51.967 12.723 51.8897 12.3169 51.8897C11.9037 51.8897 11.5426 51.967 11.2335 52.1215C10.9245 52.2724 10.6856 52.488 10.5167 52.7683C10.3478 53.0449 10.2651 53.3701 10.2687 53.7438C10.2651 54.1247 10.3496 54.4571 10.5221 54.741C10.6981 55.0249 10.9407 55.2459 11.2497 55.404C11.5587 55.5621 11.9145 55.6411 12.3169 55.6411Z" fill="white"/>
<rect x="3.49902" y="129.705" width="18.279" height="19.3798" rx="5.51933" fill="#C54600"/>
<path d="M12.3169 144.856C11.5767 144.856 10.9227 144.725 10.355 144.463C9.79082 144.197 9.35064 143.832 9.03443 143.368C8.71822 142.901 8.56191 142.369 8.5655 141.773C8.56191 141.306 8.65354 140.875 8.84039 140.479C9.02724 140.08 9.28237 139.748 9.60577 139.482C9.93276 139.213 10.2975 139.042 10.6999 138.97V138.905C10.1717 138.769 9.7513 138.472 9.43868 138.016C9.12606 137.556 8.97155 137.033 8.97514 136.448C8.97155 135.887 9.11348 135.386 9.40095 134.944C9.68841 134.502 10.0837 134.153 10.5867 133.898C11.0934 133.643 11.6701 133.516 12.3169 133.516C12.9565 133.516 13.5279 133.643 14.0309 133.898C14.534 134.153 14.9293 134.502 15.2167 134.944C15.5078 135.386 15.6551 135.887 15.6587 136.448C15.6551 137.033 15.4952 137.556 15.179 138.016C14.8664 138.472 14.4513 138.769 13.9339 138.905V138.97C14.3328 139.042 14.6921 139.213 15.0119 139.482C15.3317 139.748 15.5868 140.08 15.7773 140.479C15.9677 140.875 16.0647 141.306 16.0683 141.773C16.0647 142.369 15.903 142.901 15.5832 143.368C15.267 143.832 14.8268 144.197 14.2627 144.463C13.7021 144.725 13.0535 144.856 12.3169 144.856ZM12.3169 143.67C12.8164 143.67 13.2476 143.589 13.6105 143.428C13.9734 143.266 14.2537 143.038 14.4513 142.743C14.649 142.448 14.7496 142.104 14.7532 141.708C14.7496 141.291 14.6418 140.923 14.4298 140.603C14.2178 140.284 13.9285 140.032 13.562 139.849C13.1991 139.665 12.7841 139.574 12.3169 139.574C11.8462 139.574 11.4258 139.665 11.0557 139.849C10.6891 140.032 10.3999 140.284 10.1879 140.603C9.97947 140.923 9.87706 141.291 9.88065 141.708C9.87706 142.104 9.97228 142.448 10.1663 142.743C10.364 143.038 10.646 143.266 11.0125 143.428C11.3791 143.589 11.8139 143.67 12.3169 143.67ZM12.3169 138.431C12.7122 138.431 13.0625 138.352 13.368 138.194C13.677 138.036 13.9195 137.815 14.0956 137.531C14.2717 137.247 14.3615 136.915 14.3651 136.534C14.3615 136.16 14.2735 135.835 14.101 135.558C13.9285 135.278 13.6896 135.062 13.3841 134.912C13.0787 134.757 12.723 134.68 12.3169 134.68C11.9037 134.68 11.5426 134.757 11.2335 134.912C10.9245 135.062 10.6856 135.278 10.5167 135.558C10.3478 135.835 10.2651 136.16 10.2687 136.534C10.2651 136.915 10.3496 137.247 10.5221 137.531C10.6981 137.815 10.9407 138.036 11.2497 138.194C11.5587 138.352 11.9145 138.431 12.3169 138.431Z" fill="white"/>
<rect x="257.697" y="61.1113" width="4.41546" height="50.589" fill="#C54600" fill-opacity="0.3"/>
<line x1="257.696" y1="21.7969" x2="257.696" y2="111.327" stroke="#C54600" stroke-width="1.10387"/>
<line x1="261.008" y1="21.7969" x2="261.008" y2="111.327" stroke="#C54600" stroke-width="1.10387"/>
<rect x="250.488" y="0.000976562" width="18.279" height="19.3798" rx="5.51933" fill="#C54600"/>
<path d="M255.512 12.7372V11.6376L260.363 3.96232H261.16V5.66555H260.621L256.956 11.4652V11.5514H263.489V12.7372H255.512ZM260.708 15.001V12.403V11.891V3.96232H261.98V15.001H260.708Z" fill="white"/>
<rect x="41.3398" y="67.9189" width="260.512" height="17.6618" fill="#007D00" fill-opacity="0.3"/>
<rect y="67.6113" width="25.279" height="19.3798" rx="5.51933" fill="#007D00"/>
<path d="M9.16285 71.5727V82.6113H7.82614V72.9741H7.76146L5.06648 74.7635V73.4053L7.82614 71.5727H9.16285ZM16.0027 82.7622C15.55 82.7551 15.0972 82.6688 14.6445 82.5035C14.1917 82.3382 13.7785 82.0598 13.4048 81.6681C13.0311 81.2728 12.731 80.7392 12.5046 80.0673C12.2783 79.3917 12.1651 78.5437 12.1651 77.5232C12.1651 76.5458 12.2567 75.6798 12.44 74.9252C12.6232 74.167 12.8891 73.5292 13.2377 73.0118C13.5862 72.4908 14.0066 72.0955 14.4989 71.826C14.9948 71.5565 15.5536 71.4218 16.1752 71.4218C16.7933 71.4218 17.343 71.5457 17.8245 71.7937C18.3096 72.038 18.7049 72.3794 19.0103 72.8178C19.3158 73.2561 19.5134 73.761 19.6032 74.3323H18.2881C18.1659 73.8365 17.9287 73.425 17.5766 73.098C17.2245 72.771 16.7573 72.6075 16.1752 72.6075C15.32 72.6075 14.6462 72.9795 14.154 73.7233C13.6653 74.4671 13.4191 75.5109 13.4155 76.8548H13.5018C13.703 76.5494 13.942 76.2889 14.2186 76.0733C14.4989 75.8541 14.8079 75.6852 15.1457 75.5666C15.4835 75.4481 15.841 75.3888 16.2183 75.3888C16.8507 75.3888 17.4293 75.5469 17.9539 75.8631C18.4785 76.1757 18.8989 76.6087 19.2151 77.1621C19.5314 77.7118 19.6895 78.3425 19.6895 79.0539C19.6895 79.7367 19.5367 80.3619 19.2313 80.9297C18.9259 81.4938 18.4965 81.943 17.9431 82.2772C17.3933 82.6077 16.7465 82.7694 16.0027 82.7622ZM16.0027 81.5765C16.4555 81.5765 16.8615 81.4633 17.2209 81.2369C17.5838 81.0105 17.8695 80.7069 18.0779 80.326C18.2899 79.9451 18.3959 79.5211 18.3959 79.0539C18.3959 78.5976 18.2935 78.1826 18.0886 77.8089C17.8874 77.4316 17.6089 77.1315 17.2532 76.9087C16.9011 76.686 16.4986 76.5746 16.0458 76.5746C15.7045 76.5746 15.3865 76.6428 15.0918 76.7794C14.7972 76.9123 14.5384 77.0956 14.3157 77.3292C14.0965 77.5627 13.924 77.8304 13.7982 78.1323C13.6725 78.4305 13.6096 78.7449 13.6096 79.0755C13.6096 79.5139 13.712 79.9235 13.9168 80.3044C14.1252 80.6853 14.4091 80.9925 14.7684 81.2261C15.1313 81.4597 15.5428 81.5765 16.0027 81.5765Z" fill="white"/>
<rect y="111.766" width="25.279" height="19.3798" rx="5.51933" fill="#007D00"/>
<path d="M9.16285 115.727V126.766H7.82614V117.128H7.76146L5.06648 118.918V117.56L7.82614 115.727H9.16285ZM16.0027 126.917C15.55 126.909 15.0972 126.823 14.6445 126.658C14.1917 126.493 13.7785 126.214 13.4048 125.822C13.0311 125.427 12.731 124.894 12.5046 124.222C12.2783 123.546 12.1651 122.698 12.1651 121.677C12.1651 120.7 12.2567 119.834 12.44 119.08C12.6232 118.321 12.8891 117.684 13.2377 117.166C13.5862 116.645 14.0066 116.25 14.4989 115.98C14.9948 115.711 15.5536 115.576 16.1752 115.576C16.7933 115.576 17.343 115.7 17.8245 115.948C18.3096 116.192 18.7049 116.534 19.0103 116.972C19.3158 117.41 19.5134 117.915 19.6032 118.487H18.2881C18.1659 117.991 17.9287 117.579 17.5766 117.252C17.2245 116.925 16.7573 116.762 16.1752 116.762C15.32 116.762 14.6462 117.134 14.154 117.878C13.6653 118.621 13.4191 119.665 13.4155 121.009H13.5018C13.703 120.704 13.942 120.443 14.2186 120.228C14.4989 120.008 14.8079 119.84 15.1457 119.721C15.4835 119.602 15.841 119.543 16.2183 119.543C16.8507 119.543 17.4293 119.701 17.9539 120.017C18.4785 120.33 18.8989 120.763 19.2151 121.316C19.5314 121.866 19.6895 122.497 19.6895 123.208C19.6895 123.891 19.5367 124.516 19.2313 125.084C18.9259 125.648 18.4965 126.097 17.9431 126.431C17.3933 126.762 16.7465 126.924 16.0027 126.917ZM16.0027 125.731C16.4555 125.731 16.8615 125.618 17.2209 125.391C17.5838 125.165 17.8695 124.861 18.0779 124.48C18.2899 124.099 18.3959 123.675 18.3959 123.208C18.3959 122.752 18.2935 122.337 18.0886 121.963C17.8874 121.586 17.6089 121.286 17.2532 121.063C16.9011 120.84 16.4986 120.729 16.0458 120.729C15.7045 120.729 15.3865 120.797 15.0918 120.934C14.7972 121.067 14.5384 121.25 14.3157 121.483C14.0965 121.717 13.924 121.985 13.7982 122.287C13.6725 122.585 13.6096 122.899 13.6096 123.23C13.6096 123.668 13.712 124.078 13.9168 124.459C14.1252 124.84 14.4091 125.147 14.7684 125.38C15.1313 125.614 15.5428 125.731 16.0027 125.731Z" fill="white"/>
<line x1="27.6331" y1="68.4705" x2="301.852" y2="68.4705" stroke="#007D00" stroke-width="1.10387"/>
<line x1="27.6331" y1="85.0281" x2="301.852" y2="85.0281" stroke="#007D00" stroke-width="1.10387"/>
<rect x="66.7283" y="138.567" width="4.41546" height="27.2552" fill="#C54600" fill-opacity="0.3"/>
<line x1="67.2802" y1="138.567" x2="67.2802" y2="183.484" stroke="#C54600" stroke-width="1.10387"/>
<line x1="70.5925" y1="138.567" x2="70.5925" y2="183.484" stroke="#C54600" stroke-width="1.10387"/>
<rect x="40.2358" y="138.567" width="26.4928" height="27.2552" fill="#0D69D4" fill-opacity="0.2"/>
<rect x="71.1445" y="138.567" width="230.708" height="27.5966" fill="#0D69D4" fill-opacity="0.2"/>
<rect x="371.947" y="29.5597" width="208.631" height="112.042" fill="white"/>
<rect x="371.947" y="29.5597" width="208.631" height="112.042" stroke="#0D69D4" stroke-width="1.10387"/>
<path d="M389.727 44.6769V45.5151H387.021V53.3223H386.159V45.5151H383.465V44.6769H389.727ZM391.05 47.2274H391.912V53.3223H391.05V47.2274ZM390.931 45.0122C390.931 44.7129 391.122 44.4734 391.481 44.4734C391.829 44.4734 392.02 44.7129 392.02 45.0122C392.02 45.3235 391.829 45.563 391.481 45.563C391.122 45.563 390.931 45.3235 390.931 45.0122ZM396.6 53.1906C396.384 53.2384 396.061 53.2983 395.714 53.2983C394.804 53.2983 394.073 52.5679 394.073 51.6698V48.0177H393.079V47.1795H394.073V45.2996H394.935V47.1795H396.36V48.0177H394.935V51.6698C394.935 52.1488 395.223 52.4362 395.714 52.4362C395.989 52.4362 396.216 52.4003 396.408 52.3524L396.6 53.1906ZM397.792 44.4375H398.654V53.3223H397.792V44.4375ZM404.429 49.8498C404.333 48.9876 403.914 48.0656 402.621 48.0656C401.483 48.0656 400.753 48.6763 400.597 49.8617L404.429 49.8498ZM399.711 50.2808C399.711 48.6045 400.717 47.2035 402.585 47.2035C404.525 47.2035 405.016 48.7122 405.075 48.8559C405.435 49.8378 405.291 50.6999 405.291 50.6999H400.597C400.753 51.8255 401.483 52.4961 402.597 52.4961C403.974 52.4961 404.309 51.7417 404.393 51.6219L405.135 52.0171C405.135 52.0171 404.632 53.3582 402.585 53.3582C400.717 53.3582 399.711 51.9452 399.711 50.2808Z" fill="#616161"/>
<mask id="path-60-inside-2_1283_48543" fill="white">
<path d="M382.71 68.6486C382.71 66.2522 384.653 64.3096 387.049 64.3096H565.476C567.873 64.3096 569.815 66.2522 569.815 68.6486V101.88C569.815 104.276 567.873 106.219 565.476 106.219H387.049C384.653 106.219 382.71 104.276 382.71 101.88V68.6486Z"/>
</mask>
<path d="M382.71 68.6486C382.71 66.2522 384.653 64.3096 387.049 64.3096H565.476C567.873 64.3096 569.815 66.2522 569.815 68.6486V101.88C569.815 104.276 567.873 106.219 565.476 106.219H387.049C384.653 106.219 382.71 104.276 382.71 101.88V68.6486Z" fill="white"/>
<path d="M387.049 64.3096V65.058H565.476V64.3096V63.5612H387.049V64.3096ZM569.815 68.6486H569.067V101.88H569.815H570.564V68.6486H569.815ZM565.476 106.219V105.471H387.049V106.219V106.967H565.476V106.219ZM382.71 101.88H383.459V68.6486H382.71H381.962V101.88H382.71ZM387.049 106.219V105.471C385.066 105.471 383.459 103.863 383.459 101.88H382.71H381.962C381.962 104.69 384.24 106.967 387.049 106.967V106.219ZM569.815 101.88H569.067C569.067 103.863 567.459 105.471 565.476 105.471V106.219V106.967C568.286 106.967 570.564 104.69 570.564 101.88H569.815ZM565.476 64.3096V65.058C567.459 65.058 569.067 66.6655 569.067 68.6486H569.815H570.564C570.564 65.8389 568.286 63.5612 565.476 63.5612V64.3096ZM387.049 64.3096V63.5612C384.24 63.5612 381.962 65.8389 381.962 68.6486H382.71H383.459C383.459 66.6655 385.066 65.058 387.049 65.058V64.3096Z" fill="#999999" mask="url(#path-60-inside-2_1283_48543)"/>
<path d="M396.029 89.449C397.51 89.449 398.346 88.3444 398.346 86.903C398.346 85.4885 397.51 84.3839 396.029 84.3839C394.789 84.3839 393.725 85.4885 393.725 86.903C393.725 88.3444 394.789 89.449 396.029 89.449ZM392.742 93.3825V83.4275H393.712V84.8823C394.156 83.9124 395.207 83.441 396.042 83.441C398.143 83.441 399.315 85.044 399.315 86.903C399.315 88.7889 398.143 90.3919 396.042 90.3919C395.18 90.3919 394.156 89.8127 393.712 88.9371V93.3825H392.742ZM400.518 80.2888H401.488V90.2842H400.518V80.2888ZM405.965 89.4086C407.177 89.4086 408.268 88.4252 408.282 86.9165C408.268 85.4212 407.177 84.4243 405.965 84.4243C404.47 84.4243 403.661 85.502 403.661 86.9165C403.661 88.3309 404.47 89.4086 405.965 89.4086ZM402.691 86.9165C402.691 85.044 403.863 83.4679 405.951 83.4679C406.746 83.4679 407.635 83.8855 408.255 84.8823V83.4275H409.225V90.2842H408.255V88.9371C407.608 89.9878 406.76 90.3785 405.951 90.3785C403.863 90.3785 402.691 88.7754 402.691 86.9165ZM413.835 89.3816C414.535 89.3816 415.182 89.1122 415.64 88.6542L416.367 89.3008C415.721 89.9474 414.859 90.3515 413.889 90.3515C411.68 90.3515 410.4 88.7216 410.4 86.7413C410.4 84.7746 411.68 83.1446 413.889 83.1446C414.859 83.1446 415.721 83.5487 416.367 84.1953L415.64 84.8419C415.182 84.3839 414.535 84.1145 413.835 84.1145C412.245 84.1145 411.37 85.2865 411.37 86.7413C411.37 88.2097 412.245 89.3816 413.835 89.3816ZM422.39 86.3776C422.282 85.4077 421.811 84.3705 420.356 84.3705C419.076 84.3705 418.254 85.0575 418.079 86.3911L422.39 86.3776ZM417.082 86.8626C417.082 84.9766 418.214 83.4005 420.315 83.4005C422.498 83.4005 423.05 85.0979 423.117 85.2595C423.521 86.3641 423.36 87.3341 423.36 87.3341H418.079C418.254 88.6003 419.076 89.3547 420.329 89.3547C421.878 89.3547 422.255 88.506 422.349 88.3713L423.185 88.8159C423.185 88.8159 422.619 90.3246 420.315 90.3246C418.214 90.3246 417.082 88.735 417.082 86.8626ZM429.507 86.4315C429.507 85.1518 428.779 84.4109 427.756 84.4109C426.691 84.4109 425.762 85.4077 425.762 86.7009V90.2842H424.792V80.2888H425.762V84.7207C426.099 84.0202 426.867 83.4679 427.796 83.4679C429.184 83.4679 430.477 84.6533 430.477 86.3776V90.2842H429.507V86.4315ZM435.259 89.3951C436.768 89.3951 437.563 88.2905 437.563 86.8626C437.563 85.4347 436.768 84.33 435.259 84.33C433.737 84.33 432.969 85.4347 432.969 86.8626C432.969 88.2905 433.737 89.3951 435.259 89.3951ZM431.999 86.8626C431.999 84.9901 433.158 83.3871 435.259 83.3871C437.374 83.3871 438.533 84.9901 438.533 86.8626C438.533 88.735 437.374 90.3381 435.259 90.3381C433.158 90.3381 431.999 88.735 431.999 86.8626ZM439.731 80.2888H440.701V90.2842H439.731V80.2888ZM445.178 90.3919C443.09 90.3919 441.904 88.7889 441.904 86.903C441.904 85.0305 443.09 83.414 445.178 83.414C446.053 83.414 446.969 83.8586 447.535 84.8823V80.2888H448.505V90.2842H447.535V88.9236C446.956 89.9474 446.053 90.3919 445.178 90.3919ZM442.874 86.903C442.874 88.3444 443.696 89.422 445.218 89.422C446.457 89.422 447.535 88.3444 447.535 86.903C447.535 85.4751 446.457 84.3839 445.218 84.3839C443.696 84.3839 442.874 85.4751 442.874 86.903ZM455.137 86.3776C455.03 85.4077 454.558 84.3705 453.103 84.3705C451.824 84.3705 451.002 85.0575 450.827 86.3911L455.137 86.3776ZM449.83 86.8626C449.83 84.9766 450.961 83.4005 453.063 83.4005C455.245 83.4005 455.797 85.0979 455.865 85.2595C456.269 86.3641 456.107 87.3341 456.107 87.3341H450.827C451.002 88.6003 451.824 89.3547 453.076 89.3547C454.625 89.3547 455.003 88.506 455.097 88.3713L455.932 88.8159C455.932 88.8159 455.366 90.3246 453.063 90.3246C450.961 90.3246 449.83 88.735 449.83 86.8626ZM458.361 84.8689C458.752 83.9663 459.87 83.3601 460.8 83.3601V84.357C459.547 84.357 458.361 85.6637 458.361 86.7548V90.2842H457.391V83.4275H458.361V84.8689Z" fill="#333333"/>
<path fill-rule="evenodd" clip-rule="evenodd" d="M398.449 116.487C398.668 116.706 398.668 117.061 398.449 117.28L389.843 125.887C389.623 126.106 389.268 126.106 389.049 125.887L384.933 121.771C384.714 121.552 384.714 121.196 384.933 120.977C385.152 120.758 385.507 120.758 385.726 120.977L389.446 124.696L397.655 116.487C397.874 116.267 398.23 116.267 398.449 116.487Z" fill="#999999"/>
<path d="M410.035 117.622V125.187H409.281V121.666H405.3V125.187H404.545V117.622H405.3V120.933H409.281V117.622H410.035ZM415.388 122.148C415.304 121.394 414.938 120.587 413.806 120.587C412.811 120.587 412.172 121.121 412.035 122.159L415.388 122.148ZM411.26 122.525C411.26 121.058 412.14 119.833 413.775 119.833C415.472 119.833 415.902 121.153 415.954 121.278C416.268 122.138 416.143 122.892 416.143 122.892H412.035C412.172 123.877 412.811 124.464 413.785 124.464C414.99 124.464 415.283 123.804 415.357 123.699L416.006 124.044C416.006 124.044 415.566 125.218 413.775 125.218C412.14 125.218 411.26 123.982 411.26 122.525ZM417.085 117.412H417.839V125.187H417.085V117.412ZM421.773 124.537C422.926 124.537 423.576 123.678 423.576 122.557C423.576 121.457 422.926 120.597 421.773 120.597C420.81 120.597 419.982 121.457 419.982 122.557C419.982 123.678 420.81 124.537 421.773 124.537ZM419.217 127.596V119.854H419.971V120.985C420.317 120.231 421.134 119.864 421.784 119.864C423.418 119.864 424.33 121.111 424.33 122.557C424.33 124.024 423.418 125.27 421.784 125.27C421.113 125.27 420.317 124.82 419.971 124.139V127.596H419.217ZM434.788 121.918C434.788 121.069 434.275 120.587 433.52 120.587C432.818 120.587 432.096 121.247 432.096 121.918V125.187H431.341V121.918C431.341 121.247 430.912 120.587 430.094 120.587C429.35 120.587 428.659 121.247 428.659 122.001V125.187H427.905V119.854H428.659V120.776C428.994 120.199 429.487 119.854 430.126 119.854C430.901 119.854 431.414 120.189 431.792 120.922C432.179 120.377 432.714 119.854 433.552 119.854C434.642 119.854 435.543 120.734 435.543 121.834V125.187H434.788V121.918ZM440.744 122.148C440.66 121.394 440.294 120.587 439.162 120.587C438.167 120.587 437.528 121.121 437.391 122.159L440.744 122.148ZM436.616 122.525C436.616 121.058 437.496 119.833 439.131 119.833C440.828 119.833 441.257 121.153 441.31 121.278C441.624 122.138 441.498 122.892 441.498 122.892H437.391C437.528 123.877 438.167 124.464 439.141 124.464C440.346 124.464 440.639 123.804 440.713 123.699L441.362 124.044C441.362 124.044 440.922 125.218 439.131 125.218C437.496 125.218 436.616 123.982 436.616 122.525ZM443.007 123.741C443.216 124.223 443.709 124.505 444.348 124.474C445.27 124.453 445.636 123.311 444.694 123.007C444.348 122.902 443.719 122.735 443.206 122.4C442.409 121.865 442.42 121.079 442.661 120.597C442.986 119.958 443.813 119.77 444.295 119.812C444.746 119.864 445.375 120.021 445.773 120.556L445.165 120.996C444.945 120.692 444.589 120.597 444.233 120.556C443.908 120.524 443.478 120.639 443.321 120.933C443.185 121.216 443.195 121.498 443.625 121.781C444.033 122.054 444.557 122.18 444.924 122.305C446.684 122.871 446.118 125.176 444.369 125.218C443.489 125.26 442.65 124.799 442.326 124.034L443.007 123.741ZM447.345 123.741C447.555 124.223 448.047 124.505 448.686 124.474C449.608 124.453 449.975 123.311 449.032 123.007C448.686 122.902 448.058 122.735 447.544 122.4C446.748 121.865 446.758 121.079 446.999 120.597C447.324 119.958 448.152 119.77 448.634 119.812C449.084 119.864 449.713 120.021 450.111 120.556L449.504 120.996C449.284 120.692 448.927 120.597 448.571 120.556C448.246 120.524 447.817 120.639 447.66 120.933C447.523 121.216 447.534 121.498 447.963 121.781C448.372 122.054 448.896 122.18 449.263 122.305C451.023 122.871 450.457 125.176 448.707 125.218C447.827 125.26 446.989 124.799 446.664 124.034L447.345 123.741ZM453.764 124.505C454.707 124.505 455.555 123.741 455.566 122.567C455.555 121.404 454.707 120.629 453.764 120.629C452.601 120.629 451.972 121.467 451.972 122.567C451.972 123.667 452.601 124.505 453.764 124.505ZM451.218 122.567C451.218 121.111 452.129 119.885 453.753 119.885C454.371 119.885 455.063 120.21 455.545 120.985V119.854H456.299V125.187H455.545V124.139C455.042 124.956 454.382 125.26 453.753 125.26C452.129 125.26 451.218 124.013 451.218 122.567ZM459.954 124.526C460.95 124.526 461.735 123.657 461.735 122.567C461.735 121.498 460.939 120.629 459.954 120.629C458.865 120.629 458.163 121.394 458.163 122.567C458.163 123.762 458.865 124.526 459.954 124.526ZM457.408 122.567C457.408 120.985 458.445 119.895 459.944 119.895C460.74 119.895 461.421 120.315 461.735 120.996V119.854H462.49V124.925C462.469 126.622 461.484 127.586 459.787 127.586C458.938 127.586 458.194 127.146 457.649 126.329L458.288 125.92C458.676 126.528 459.179 126.831 459.787 126.831C461.086 126.831 461.725 126.203 461.735 124.914V124.118C461.369 124.778 460.625 125.26 459.944 125.26C458.445 125.26 457.408 124.16 457.408 122.567ZM467.512 122.148C467.428 121.394 467.061 120.587 465.93 120.587C464.934 120.587 464.295 121.121 464.159 122.159L467.512 122.148ZM463.384 122.525C463.384 121.058 464.264 119.833 465.898 119.833C467.596 119.833 468.025 121.153 468.078 121.278C468.392 122.138 468.266 122.892 468.266 122.892H464.159C464.295 123.877 464.934 124.464 465.909 124.464C467.114 124.464 467.407 123.804 467.48 123.699L468.13 124.044C468.13 124.044 467.69 125.218 465.898 125.218C464.264 125.218 463.384 123.982 463.384 122.525Z" fill="#616161"/>
<path d="M572.851 154.021L375.259 154.02" stroke="black" stroke-width="1.10387"/>
<path d="M375.259 151.261V156.78" stroke="black" stroke-width="1.10387"/>
<path d="M572.851 151.261V156.78" stroke="black" stroke-width="1.10387"/>
<rect x="443.147" y="160.092" width="61.8165" height="23.1812" rx="4.41546" fill="#333333"/>
<path d="M459.141 166.667V167.735H454.384V170.653H458.271V171.721H454.384V175.732H453.291V166.667H459.141ZM460.394 166.418H461.486V175.732H460.394V166.418ZM467.514 172.044C467.415 171.175 466.943 170.343 465.713 170.343C464.633 170.343 463.875 170.914 463.726 172.056L467.514 172.044ZM462.646 172.528C462.646 170.777 463.726 169.3 465.689 169.3C467.725 169.3 468.272 170.901 468.321 171.038C468.706 172.044 468.582 173.037 468.582 173.037H463.726C463.9 174.081 464.608 174.714 465.701 174.714C467.042 174.714 467.365 173.981 467.427 173.882L468.383 174.354C468.383 174.354 467.837 175.757 465.689 175.757C463.726 175.757 462.646 174.279 462.646 172.528ZM475.3 169.324L472.891 172.528L475.288 175.72H473.922L472.282 173.447L470.656 175.72H469.29L471.661 172.528L469.265 169.324H470.631L472.282 171.634L473.934 169.324H475.3ZM476.757 169.312H477.85V175.732H476.757V169.312ZM476.646 166.99C476.646 166.642 476.882 166.356 477.304 166.356C477.714 166.356 477.95 166.642 477.95 166.99C477.95 167.362 477.714 167.648 477.304 167.648C476.882 167.648 476.646 167.362 476.646 166.99ZM482.674 174.702C483.965 174.702 484.673 173.795 484.673 172.566C484.673 171.349 483.965 170.43 482.674 170.43C481.606 170.43 480.675 171.324 480.675 172.566C480.675 173.82 481.606 174.702 482.674 174.702ZM479.582 175.683V166.418H480.675V170.579C481.246 169.66 482.078 169.362 482.736 169.362C484.686 169.362 485.766 170.839 485.766 172.566C485.766 174.304 484.673 175.782 482.724 175.782C482.078 175.782 481.246 175.521 480.675 174.553V175.683H479.582ZM486.928 166.418H488.021V175.732H486.928V166.418ZM494.049 172.044C493.95 171.175 493.478 170.343 492.248 170.343C491.168 170.343 490.41 170.914 490.261 172.056L494.049 172.044ZM489.181 172.528C489.181 170.777 490.261 169.3 492.223 169.3C494.26 169.3 494.806 170.901 494.856 171.038C495.241 172.044 495.117 173.037 495.117 173.037H490.261C490.435 174.081 491.143 174.714 492.236 174.714C493.577 174.714 493.9 173.981 493.962 173.882L494.918 174.354C494.918 174.354 494.372 175.757 492.223 175.757C490.261 175.757 489.181 174.279 489.181 172.528Z" fill="white"/>
<path d="M587.753 66.2637V107.107" stroke="black" stroke-width="1.10387"/>
<path d="M584.993 107.106L590.512 107.106" stroke="black" stroke-width="1.10387"/>
<path d="M584.993 66.2637L590.512 66.2637" stroke="black" stroke-width="1.10387"/>
<rect x="593.824" y="74.6855" width="50.0387" height="24" rx="4.41546" fill="#333333"/>
<path d="M605.068 81.707V87.3077H606.31V88.3757H605.068V90.698H603.975V88.3757H599.939V87.3077L604.013 81.707H605.068ZM601.256 87.3077H603.975V83.5573L601.256 87.3077ZM610.5 89.779C611.63 89.779 612.4 88.9594 612.4 88.1398C612.4 87.3326 611.63 86.5254 610.5 86.5254C609.382 86.5254 608.6 87.3326 608.6 88.1398C608.6 88.9594 609.37 89.779 610.5 89.779ZM607.507 88.1398C607.507 87.2084 608.177 86.4136 608.985 85.9541C608.326 85.507 607.755 84.824 607.755 84.0168C607.755 82.5763 609.072 81.5455 610.5 81.5455C611.94 81.5455 613.269 82.5763 613.269 84.0168C613.269 84.824 612.698 85.507 612.04 85.9541C612.834 86.4136 613.493 87.2084 613.493 88.1398C613.493 89.6921 612.077 90.8346 610.5 90.8346C608.923 90.8346 607.507 89.6921 607.507 88.1398ZM608.848 84.0044C608.848 84.6998 609.519 85.3953 610.5 85.3953C611.493 85.3953 612.176 84.6998 612.176 84.0044C612.176 83.2965 611.493 82.6011 610.5 82.6011C609.519 82.6011 608.848 83.2965 608.848 84.0044ZM615.034 86.1404C615.531 84.9482 616.636 84.6874 617.158 84.7123C617.841 84.7619 618.25 85.0476 618.362 85.1221L619.418 85.7802C619.579 85.8796 619.716 86.0038 620.064 86.0162C620.374 86.0286 620.846 85.9293 621.094 85.2835L622.15 85.6933C621.69 86.8979 620.548 87.1711 620.001 87.1463C619.343 87.109 618.921 86.7986 618.822 86.7365L617.766 86.0783C617.592 85.9789 617.468 85.8672 617.095 85.8423C616.797 85.8299 616.338 85.9417 616.077 86.575L615.034 86.1404ZM625.211 86.5626L624.119 86.5254L624.292 81.6946H629.061V82.7874H625.348L625.261 85.1593C625.683 84.9358 626.18 84.8116 626.689 84.8116C628.328 84.8116 629.732 86.1404 629.732 87.792C629.732 89.5058 628.328 90.8222 626.689 90.8222C625.298 90.8222 624.044 89.8535 623.734 88.5247L624.802 88.2764C625 89.1581 625.721 89.7293 626.689 89.7293C627.819 89.7293 628.639 88.9594 628.639 87.792C628.639 86.6868 627.832 85.9044 626.689 85.9044C626.068 85.9044 625.596 86.128 625.211 86.5626ZM633.955 89.7045C635.085 89.7045 635.917 88.9345 635.917 87.8169C635.917 86.724 635.085 85.9293 633.955 85.9293C632.837 85.9293 632.03 86.724 632.03 87.8169C632.03 88.9345 632.825 89.7045 633.955 89.7045ZM630.937 87.8169C630.937 87.2332 631.111 86.6868 631.409 86.2273L633.992 81.6946H635.246L633.421 84.8861C633.607 84.8489 633.793 84.8364 633.98 84.8364C635.606 84.8364 637.01 86.1652 637.01 87.8169C637.01 89.4934 635.619 90.7973 633.98 90.7973C632.353 90.7973 630.937 89.4934 630.937 87.8169Z" fill="white"/>
<rect x="34.4951" width="25.279" height="19.3798" rx="5.51933" fill="#007D00"/>
<path d="M43.658 3.96134V15H42.3213V5.36274H42.2566L39.5616 7.15221V5.79393L42.3213 3.96134H43.658ZM46.8327 15V14.0298L50.4763 10.0412C50.9039 9.5741 51.256 9.16805 51.5327 8.8231C51.8094 8.47454 52.0142 8.14755 52.1472 7.84212C52.2837 7.5331 52.352 7.2097 52.352 6.87193C52.352 6.48385 52.2586 6.14788 52.0717 5.864C51.8885 5.58013 51.6369 5.36094 51.3171 5.20643C50.9973 5.05191 50.638 4.97466 50.2391 4.97466C49.8151 4.97466 49.445 5.06269 49.1288 5.23877C48.8162 5.41125 48.5736 5.65379 48.4011 5.96641C48.2323 6.27903 48.1478 6.64555 48.1478 7.06597H46.8758C46.8758 6.41917 47.0249 5.85143 47.3232 5.36274C47.6214 4.87405 48.0274 4.49315 48.5413 4.22006C49.0587 3.94697 49.639 3.81043 50.2822 3.81043C50.929 3.81043 51.5022 3.94697 52.0016 4.22006C52.5011 4.49315 52.8928 4.86147 53.1767 5.32501C53.4605 5.78854 53.6025 6.30418 53.6025 6.87193C53.6025 7.27797 53.5288 7.67503 53.3815 8.06311C53.2377 8.4476 52.9862 8.877 52.6269 9.35131C52.2711 9.82204 51.7771 10.397 51.1446 11.0761L48.6653 13.728V13.8142H53.7965V15H46.8327Z" fill="white"/>
</svg>
