<svg width="262" height="148" viewBox="0 0 262 148" fill="none" xmlns="http://www.w3.org/2000/svg">
<g filter="url(#filter0_dd_1099_78736)">
<g clip-path="url(#clip0_1099_78736)">
<path d="M16 30.2043C16 18.0113 25.8843 8.12695 38.0773 8.12695H223.187C235.38 8.12695 245.264 18.0113 245.264 30.2043V153.328H16V30.2043Z" fill="white"/>
<rect width="203.791" height="105.158" transform="translate(28.7373 28.5059)" fill="white"/>
<rect width="203.791" height="20.3791" transform="translate(28.7373 28.5059)" fill="white"/>
<path d="M29.1449 39.9905H39.4618V41.2769H35.0803V44.5885H33.4882V41.2769H29.1449V39.9905ZM29.6798 38.1436C32.0234 37.8761 33.2971 36.7426 33.4627 35.7109H30.0747V34.4754H33.4882V33.189H35.0803V34.4754H38.5193V35.7109H35.1058C35.2841 36.7298 36.5705 37.8761 38.8886 38.1436L38.3409 39.3791C36.4177 39.1498 35.0293 38.3601 34.2906 37.303C33.5519 38.3601 32.1635 39.1498 30.2275 39.3791L29.6798 38.1436ZM40.4747 34.5263H42.7546V33.2399H44.3212V34.5263H46.6011V35.7491H44.3212V35.8255C44.3212 37.1374 45.1619 38.462 46.996 39.0097L46.2445 40.2452C44.9708 39.8631 44.0792 39.0862 43.5697 38.0927C43.0603 39.1626 42.1687 40.0159 40.8568 40.4363L40.0926 39.2008C41.9267 38.6276 42.7546 37.2393 42.7546 35.8255V35.7491H40.4747V34.5263ZM42.1814 44.3592V40.9075H43.7608V43.0983H49.9637V44.3592H42.1814ZM46.2318 37.7742V36.4878H48.1168V33.1635H49.6962V41.6081H48.1168V37.7742H46.2318ZM58.5677 33.1635H60.1471V37.6341H61.8157V38.946H60.1471V44.5758H58.5677V33.1635ZM51.1549 36.1184V34.8575H53.7022V33.3418H55.2944V34.8575H57.8163V36.1184H51.1549ZM51.6261 39.5065C51.6261 37.9144 52.8489 36.7935 54.5047 36.7935C56.1605 36.7935 57.396 37.9144 57.396 39.5065C57.396 41.0858 56.1605 42.2067 54.5047 42.2067C52.8489 42.2067 51.6261 41.0858 51.6261 39.5065ZM53.1418 39.5065C53.1418 40.3853 53.7022 40.9203 54.5047 40.9203C55.3071 40.9203 55.8803 40.3853 55.8803 39.5065C55.8803 38.6149 55.3071 38.0672 54.5047 38.0672C53.7022 38.0672 53.1418 38.6149 53.1418 39.5065ZM70.1523 33.1507H71.7316V44.563H70.1523V33.1507ZM62.2809 41.3661C65.2103 39.9777 66.484 38.1436 66.726 35.5962H62.8668V34.3353H68.3436C68.3436 37.8125 67.1336 40.6655 63.096 42.6143L62.2809 41.3661Z" fill="#333333"/>
<path d="M227.404 32.3653C227.586 32.2378 227.839 32.2516 228.007 32.4102C228.174 32.5689 228.201 32.8202 228.084 33.0088L228.024 33.085L222.994 38.3936L228.024 43.7022L228.084 43.7783C228.201 43.9669 228.174 44.2182 228.007 44.377C227.839 44.5356 227.586 44.5494 227.404 44.4219L227.331 44.3584L222.337 39.0869L217.344 44.3584C217.162 44.5496 216.86 44.5582 216.669 44.377C216.478 44.1956 216.469 43.8936 216.65 43.7022L221.68 38.3936L216.65 33.085L216.591 33.0088C216.474 32.8203 216.502 32.5688 216.669 32.4102C216.836 32.2517 217.089 32.2382 217.27 32.3653L217.344 32.4287L222.337 37.6992L227.331 32.4287L227.404 32.3653Z" fill="#555555"/>
<path d="M40.0947 84.5484C40.0947 77.514 45.7972 71.8115 52.8316 71.8115C59.866 71.8115 65.5686 77.514 65.5686 84.5484C65.5686 91.5828 59.866 97.2853 52.8316 97.2853C45.7972 97.2853 40.0947 91.5828 40.0947 84.5484Z" fill="#1D4ED8"/>
<path fill-rule="evenodd" clip-rule="evenodd" d="M48.9419 78.8164C48.4533 78.8164 47.9847 79.0105 47.6392 79.356C47.2937 79.7015 47.0996 80.1701 47.0996 80.6587V86.7997C47.0996 86.9626 47.1643 87.1188 47.2795 87.234C47.3946 87.3491 47.5508 87.4138 47.7137 87.4138C47.8766 87.4138 48.0328 87.3491 48.1479 87.234C48.2631 87.1188 48.3278 86.9626 48.3278 86.7997V80.6587C48.3278 80.4958 48.3925 80.3396 48.5077 80.2245C48.6228 80.1093 48.779 80.0446 48.9419 80.0446H55.0829C55.2458 80.0446 55.402 79.9799 55.5172 79.8647C55.6323 79.7496 55.697 79.5934 55.697 79.4305C55.697 79.2676 55.6323 79.1114 55.5172 78.9963C55.402 78.8811 55.2458 78.8164 55.0829 78.8164H48.9419ZM50.7842 81.2728C50.4585 81.2728 50.1461 81.4022 49.9157 81.6325C49.6854 81.8629 49.556 82.1753 49.556 82.501V89.0514C49.556 89.3772 49.6854 89.6896 49.9157 89.9199C50.1461 90.1502 50.4585 90.2796 50.7842 90.2796H57.3346C57.6604 90.2796 57.9728 90.1502 58.2031 89.9199C58.4334 89.6896 58.5628 89.3772 58.5628 89.0514V82.501C58.5628 82.1753 58.4334 81.8629 58.2031 81.6325C57.9728 81.4022 57.6604 81.2728 57.3346 81.2728H50.7842Z" fill="white"/>
<path d="M40.7609 105.218H41.5353V110.71H40.7609V105.218ZM34.6778 106.4V105.778H38.7128V108.214H35.442V109.508C37.0315 109.508 38.2237 109.457 39.6503 109.223L39.742 109.854C38.2645 110.089 37.0519 110.14 35.4114 110.14H34.6981V107.613H37.969V106.4H34.6778ZM35.6152 112.493C35.6152 111.474 36.7462 110.894 38.6109 110.894C40.4552 110.894 41.5965 111.474 41.5965 112.493C41.5965 113.523 40.4552 114.103 38.6109 114.103C36.7462 114.103 35.6152 113.523 35.6152 112.493ZM36.3794 112.493C36.3794 113.125 37.215 113.502 38.6109 113.502C39.9865 113.502 40.8322 113.125 40.8322 112.493C40.8322 111.882 39.9865 111.505 38.6109 111.505C37.215 111.505 36.3794 111.882 36.3794 112.493ZM44.018 106.125H50.1011V107.225C50.1011 108.54 50.1011 109.752 49.7343 111.556L48.9701 111.485C49.1637 110.629 49.2554 109.875 49.3063 109.172L43.8957 109.467L43.7836 108.835L49.3267 108.601C49.3471 108.132 49.3471 107.674 49.3471 107.225V106.757H44.018V106.125ZM43.05 112.86V112.218H51.1099V112.86H43.05ZM54.1132 109.824H57.761V108.733H55.1933V105.422H55.9473V106.451H60.3492V105.422H61.1134V108.733H58.5151V109.824H62.1629V110.455H54.1132V109.824ZM55.0099 111.984V111.362H61.1643V114.124H60.4103V111.984H55.0099ZM55.9473 108.122H60.3492V107.052H55.9473V108.122ZM65.1347 105.992H65.8785V107.613C65.8785 109.182 66.9178 110.812 68.1711 111.434L67.7024 112.035C66.7344 111.525 65.9091 110.466 65.5219 109.212C65.1245 110.537 64.2787 111.678 63.2802 112.218L62.8115 111.597C64.0851 110.955 65.1347 109.243 65.1347 107.613V105.992ZM68.9965 114.124V105.208H69.7607V108.835H71.2484V109.487H69.7607V114.124H68.9965Z" fill="#616161"/>
<path d="M98.9619 84.5484C98.9619 77.514 104.664 71.8115 111.699 71.8115C118.733 71.8115 124.436 77.514 124.436 84.5484C124.436 91.5828 118.733 97.2853 111.699 97.2853C104.664 97.2853 98.9619 91.5828 98.9619 84.5484Z" fill="#FEE500"/>
<g clip-path="url(#clip1_1099_78736)">
<g clip-path="url(#clip2_1099_78736)">
<path d="M111.775 78.9463C108.237 78.9463 105.387 81.1861 105.387 83.9859C105.387 85.793 106.583 87.3965 108.416 88.2619C108.288 88.7455 107.932 90.0691 107.856 90.349C107.779 90.7054 107.983 90.7054 108.11 90.6036C108.237 90.5272 109.841 89.4073 110.554 88.9237C110.935 88.9746 111.343 89.0001 111.724 89.0001C115.237 89.0001 118.113 86.7602 118.113 83.9604C118.138 81.1861 115.288 78.9463 111.775 78.9463Z" fill="#391B1B"/>
</g>
</g>
<path d="M98.6921 106.135C98.6921 108.703 97.8056 111.067 94.6265 112.646L94.2087 112.055C95.8696 111.23 96.8682 110.191 97.4082 108.988L94.3717 109.284L94.2495 108.601L97.6528 108.367C97.8056 107.857 97.8973 107.327 97.9279 106.767H94.6978V106.135H98.6921ZM100.18 114.124V105.198H100.954V108.846H102.391V109.487H100.954V114.124H100.18ZM107.502 106.135C107.502 108.703 106.616 111.067 103.437 112.646L103.019 112.055C104.68 111.23 105.679 110.191 106.219 108.988L103.182 109.284L103.06 108.601L106.463 108.367C106.616 107.857 106.708 107.327 106.738 106.767H103.508V106.135H107.502ZM108.99 114.124V105.198H109.765V108.846H111.201V109.487H109.765V114.124H108.99ZM115.752 105.799C117.637 105.799 118.982 106.716 118.982 108.122C118.982 109.447 117.811 110.313 116.129 110.425V112.33H119.808V112.962H111.728V112.33H115.375V110.425C113.694 110.313 112.522 109.437 112.522 108.122C112.522 106.716 113.878 105.799 115.752 105.799ZM113.266 108.122C113.266 109.141 114.316 109.834 115.752 109.834C117.189 109.834 118.249 109.141 118.249 108.122C118.249 107.093 117.189 106.41 115.752 106.41C114.316 106.41 113.266 107.093 113.266 108.122ZM120.538 110.028H124.176V109.06H121.608V105.452H127.589V106.064H122.372V106.93H127.355V107.521H122.372V108.458H127.64V109.06H124.94V110.028H128.588V110.649H120.538V110.028ZM121.435 112.086V111.464H127.538V114.124H126.774V112.086H121.435Z" fill="#616161"/>
<path d="M152.329 84.5484C152.329 77.514 158.032 71.8115 165.066 71.8115C172.1 71.8115 177.803 77.514 177.803 84.5484C177.803 91.5828 172.1 97.2853 165.066 97.2853C158.032 97.2853 152.329 91.5828 152.329 84.5484Z" fill="#15803D"/>
<path d="M165.709 88.3431C165.59 88.3546 164.673 89.1557 162.957 90.7466C162.866 90.8312 162.752 90.8872 162.629 90.9077C162.506 90.9283 162.38 90.9125 162.267 90.8622C162.153 90.8119 162.056 90.7295 161.989 90.6249C161.921 90.5204 161.886 90.3984 161.887 90.274C161.9 88.7698 161.894 87.912 161.872 87.7012C161.86 87.591 161.892 87.5228 161.872 87.5101C160.422 86.5937 159.334 85.0417 159.334 83.2776C159.334 80.4621 161.9 78.1797 165.066 78.1797C168.231 78.1797 170.797 80.4621 170.797 83.277C170.797 85.8989 168.571 88.0591 165.709 88.3431Z" fill="white"/>
<path d="M152.31 106.247H155.683V108.581H157.048V105.412H157.772V113.665H157.048V109.212H155.683V111.709H152.31V106.247ZM153.024 111.108H154.97V106.859H153.024V111.108ZM158.801 114.124V105.208H159.535V114.124H158.801ZM163.138 105.992H163.902V107.613C163.902 109.243 165.013 110.883 166.297 111.485L165.838 112.096C164.83 111.597 163.953 110.527 163.536 109.243C163.128 110.598 162.241 111.739 161.202 112.259L160.733 111.627C162.027 111.006 163.138 109.304 163.138 107.613V105.992ZM167.285 114.134V105.198H168.049V114.134H167.285ZM169.87 106.125H174.853V106.767H172.733V107.969C172.733 109.487 173.854 111.016 175.138 111.576L174.7 112.188C173.681 111.709 172.774 110.669 172.356 109.437C171.948 110.751 171.052 111.892 170.033 112.402L169.595 111.801C170.848 111.189 171.969 109.508 171.969 107.969V106.767H169.87V106.125ZM176.096 114.124V105.208H176.86V114.124H176.096Z" fill="#616161"/>
<path d="M201.195 84.5484C201.195 77.514 206.898 71.8115 213.932 71.8115C220.967 71.8115 226.669 77.514 226.669 84.5484C226.669 91.5828 220.967 97.2853 213.932 97.2853C206.898 97.2853 201.195 91.5828 201.195 84.5484Z" fill="#EEEEEE"/>
<path d="M209.474 83.2744C208.773 83.2744 208.2 83.8476 208.2 84.5481C208.2 85.2486 208.773 85.8218 209.474 85.8218C210.174 85.8218 210.748 85.2486 210.748 84.5481C210.748 83.8476 210.174 83.2744 209.474 83.2744ZM218.39 83.2744C217.689 83.2744 217.116 83.8476 217.116 84.5481C217.116 85.2486 217.689 85.8218 218.39 85.8218C219.09 85.8218 219.663 85.2486 219.663 84.5481C219.663 83.8476 219.09 83.2744 218.39 83.2744ZM213.932 83.2744C213.231 83.2744 212.658 83.8476 212.658 84.5481C212.658 85.2486 213.231 85.8218 213.932 85.8218C214.632 85.8218 215.205 85.2486 215.205 84.5481C215.205 83.8476 214.632 83.2744 213.932 83.2744Z" fill="#616161"/>
<path d="M201.289 106.064H205.344V106.696H202.043V111.281C203.663 111.281 204.722 111.24 205.955 110.996L206.047 111.617C204.743 111.872 203.663 111.923 201.961 111.923H201.289V106.064ZM204.814 109.09V108.458H207.402V105.208H208.166V114.134H207.402V109.09H204.814ZM209.651 112.33H213.298V110.384H210.619V105.84H211.373V107.45H215.999V105.84H216.753V110.384H214.052V112.33H217.731V112.972H209.651V112.33ZM211.373 109.763H215.999V108.081H211.373V109.763ZM224.992 105.208H225.757V114.124H224.992V105.208ZM218.573 111.831C220.978 110.68 222.19 108.937 222.353 106.797H218.97V106.166H223.128C223.128 108.733 221.946 110.996 218.981 112.442L218.573 111.831Z" fill="#616161"/>
</g>
</g>
<defs>
<filter id="filter0_dd_1099_78736" x="0" y="0.126953" width="261.265" height="177.201" filterUnits="userSpaceOnUse" color-interpolation-filters="sRGB">
<feFlood flood-opacity="0" result="BackgroundImageFix"/>
<feColorMatrix in="SourceAlpha" type="matrix" values="0 0 0 0 0 0 0 0 0 0 0 0 0 0 0 0 0 0 127 0" result="hardAlpha"/>
<feOffset/>
<feGaussianBlur stdDeviation="4"/>
<feComposite in2="hardAlpha" operator="out"/>
<feColorMatrix type="matrix" values="0 0 0 0 0 0 0 0 0 0 0 0 0 0 0 0 0 0 0.12 0"/>
<feBlend mode="normal" in2="BackgroundImageFix" result="effect1_dropShadow_1099_78736"/>
<feColorMatrix in="SourceAlpha" type="matrix" values="0 0 0 0 0 0 0 0 0 0 0 0 0 0 0 0 0 0 127 0" result="hardAlpha"/>
<feOffset dy="8"/>
<feGaussianBlur stdDeviation="8"/>
<feComposite in2="hardAlpha" operator="out"/>
<feColorMatrix type="matrix" values="0 0 0 0 0 0 0 0 0 0 0 0 0 0 0 0 0 0 0.12 0"/>
<feBlend mode="normal" in2="effect1_dropShadow_1099_78736" result="effect2_dropShadow_1099_78736"/>
<feBlend mode="normal" in="SourceGraphic" in2="effect2_dropShadow_1099_78736" result="shape"/>
</filter>
<clipPath id="clip0_1099_78736">
<path d="M16 30.2043C16 18.0113 25.8843 8.12695 38.0773 8.12695H223.187C235.38 8.12695 245.264 18.0113 245.264 30.2043V153.328H16V30.2043Z" fill="white"/>
</clipPath>
<clipPath id="clip1_1099_78736">
<rect width="15.2715" height="15.2715" fill="white" transform="translate(104.063 76.9131)"/>
</clipPath>
<clipPath id="clip2_1099_78736">
<rect width="15.2715" height="15.2715" fill="white" transform="translate(104.063 76.9121)"/>
</clipPath>
</defs>
</svg>
