<svg width="477" height="119" viewBox="0 0 477 119" fill="none" xmlns="http://www.w3.org/2000/svg">
<g filter="url(#filter0_d_1301_48622)">
<rect width="411.913" height="69.0565" transform="translate(46.6484 36.2227)" fill="white"/>
<rect width="82.3825" height="69.0565" transform="translate(46.6484 36.2227)" fill="white"/>
<path fill-rule="evenodd" clip-rule="evenodd" d="M87.7842 70.5491C94.0856 70.5491 99.2815 65.4637 99.2815 59.0518C99.2815 52.7504 94.1962 47.665 87.7842 47.665C81.4828 47.7756 76.3975 52.8609 76.3975 59.1623C76.3975 65.4637 81.4828 70.5491 87.7842 70.5491ZM84.4677 59.1623C85.131 59.1623 85.5732 58.7201 85.5732 58.0568C85.5732 57.3935 85.131 56.9513 84.4677 56.9513C83.8044 56.9513 83.3622 57.3935 83.3622 58.0568C83.3622 58.7201 83.8044 59.1623 84.4677 59.1623ZM91.1007 59.1623C91.764 59.1623 92.2062 58.7201 92.2062 58.0568C92.2062 57.3935 91.764 56.9513 91.1007 56.9513C90.4374 56.9513 89.9952 57.3935 89.9952 58.0568C89.9952 58.7201 90.548 59.1623 91.1007 59.1623ZM87.7842 60.1573C87.8948 60.1573 87.8948 60.1573 88.0053 60.1573C88.1159 60.1573 88.2264 60.2678 88.2264 60.2678C88.337 60.3784 88.4475 60.4889 88.4475 60.5995C88.5581 60.9311 88.6686 61.1522 88.8897 61.3733C89.1108 61.5945 89.4425 61.705 89.7741 61.705C90.548 61.8156 91.4324 61.705 92.0957 61.705C92.4273 61.705 92.8695 61.9261 92.8695 62.3683C92.8695 62.7 92.6484 63.1422 92.2062 63.1422H92.0957C91.4324 63.2527 90.4374 63.3633 89.4425 63.1422C88.8897 63.0316 88.4475 62.8105 87.8948 62.4789C87.7842 62.3683 87.6737 62.3683 87.6737 62.2578C87.5631 62.3683 87.4526 62.3683 87.4526 62.4789C87.0103 62.8105 86.4576 63.0316 85.9048 63.1422C84.9099 63.3633 83.9149 63.2527 83.2516 63.1422H83.1411C82.8094 63.1422 82.4778 62.8105 82.4778 62.3683C82.4778 61.9261 82.8094 61.705 83.2516 61.705C83.9149 61.8156 84.7993 61.8156 85.5732 61.705C85.9048 61.5945 86.2365 61.4839 86.4576 61.3733C86.6787 61.2628 86.7892 61.0417 86.8998 60.5995V60.4889C86.8998 60.3784 87.0103 60.2678 87.0103 60.2678C87.4526 60.1573 87.5631 60.1573 87.7842 60.1573Z" fill="#333333"/>
<path d="M73.7588 79.9782C75.3927 79.9782 76.601 81.365 76.7795 83.6305H79.2784V79.0446H80.5279V91.196H79.2784V84.6328H76.7932C76.6697 86.9945 75.4339 88.4773 73.7588 88.4773C71.9876 88.4773 70.7244 86.816 70.7244 84.2209C70.7244 81.6121 71.9876 79.9782 73.7588 79.9782ZM71.9052 84.2209C71.9052 86.1432 72.6604 87.3515 73.7588 87.3515C74.871 87.3515 75.6124 86.1432 75.6124 84.2209C75.6124 82.2987 74.871 81.1041 73.7588 81.1041C72.6604 81.1041 71.9052 82.2987 71.9052 84.2209ZM82.3475 88.6421H93.3181V89.6856H82.3475V88.6421ZM83.6656 80.9805V79.9508H92V83.7129H84.9288V85.5253H92.2746V86.5551H83.6931V82.7106H90.7505V80.9805H83.6656ZM102.868 79.072H104.117V87.9281H102.868V79.072ZM94.259 85.2232C96.1263 84.5093 97.2522 82.7655 97.2522 80.9531V79.7311H98.5154V80.9531C98.5154 82.7106 99.6413 84.3445 101.495 85.0036L100.836 86.0059C99.4491 85.4841 98.433 84.4406 97.8975 83.1088C97.3758 84.523 96.346 85.6626 94.918 86.2118L94.259 85.2232ZM96.2773 90.9214V87.1043H97.5405V89.8916H104.488V90.9214H96.2773Z" fill="#1A1A1A"/>
<rect width="82.3825" height="69.0565" transform="translate(129.031 36.2227)" fill="white"/>
<path d="M160.847 47.6592C163.216 47.6592 165.138 49.5805 165.138 51.9502V53.874H174.129L174.217 53.8789C174.649 53.9231 174.987 54.2883 174.987 54.7324C174.987 55.1765 174.649 55.5418 174.217 55.5859L174.129 55.5908H165.138V58.1836C165.425 58.1448 165.719 58.1231 166.018 58.123L166.346 58.1309C168.791 58.2519 170.871 59.7184 171.827 61.7852H175.938L176.127 61.79C177.923 61.8811 179.379 63.2591 179.593 65.0205C180.788 65.3685 181.659 66.4496 181.659 67.7285L181.656 67.874C181.579 69.3666 180.312 70.5536 178.763 70.5537L178.467 70.5391C177.055 70.3992 175.943 69.2704 175.87 67.874L175.866 67.7285C175.866 66.4772 176.701 65.417 177.856 65.0459C177.677 64.2266 176.989 63.5981 176.139 63.5117L175.938 63.502H172.331C172.369 63.7758 172.39 64.055 172.39 64.3389L172.382 64.6582C172.211 67.9422 169.427 70.5536 166.018 70.5537L165.689 70.5459C162.431 70.3847 159.817 67.8363 159.652 64.6582L159.645 64.3389C159.645 61.8087 161.196 59.6329 163.421 58.6631V51.9502C163.421 50.5284 162.269 49.376 160.847 49.376H159.645C159.171 49.3758 158.786 48.9912 158.786 48.5176C158.786 48.0438 159.171 47.6594 159.645 47.6592H160.847ZM166.018 59.8389C163.405 59.8391 161.361 61.8945 161.36 64.3389C161.361 66.7832 163.406 68.8377 166.018 68.8379C168.63 68.8377 170.674 66.7832 170.674 64.3389C170.674 61.8945 168.63 59.839 166.018 59.8389ZM178.763 66.6191C178.07 66.6193 177.582 67.1565 177.582 67.7285C177.582 68.3007 178.07 68.8368 178.763 68.8369C179.455 68.8368 179.943 68.3007 179.943 67.7285C179.943 67.1565 179.455 66.6193 178.763 66.6191ZM166.018 62.6436C166.977 62.6436 167.756 63.4019 167.756 64.3379C167.756 65.2741 166.977 66.0332 166.018 66.0332C165.058 66.0331 164.28 65.274 164.28 64.3379C164.281 63.402 165.058 62.6437 166.018 62.6436Z" fill="#616161"/>
<path d="M146.987 85.2507H151.834V83.9189H148.428V79.3604H149.664V80.6647H155.266V79.3604H156.516V83.9189H153.069V85.2507H157.93V86.2668H146.987V85.2507ZM148.209 88.3812V87.3789H156.584V91.1822H155.335V88.3812H148.209ZM149.664 82.9165H155.266V81.6259H149.664V82.9165ZM159.187 80.2803H165.969V81.3238H163.196V82.6694C163.196 84.7015 164.555 86.7748 166.381 87.5711L165.681 88.5597C164.28 87.9281 163.141 86.5826 162.578 84.9624C162.029 86.6924 160.903 88.1753 159.502 88.8618L158.788 87.8732C160.587 87.0082 161.946 84.7427 161.946 82.6694V81.3238H159.187V80.2803ZM167.48 91.1822V79.072H168.729V91.1822H167.48ZM170.645 85.0036H173.295V83.3559C172.361 82.9715 171.826 82.3536 171.826 81.5572C171.826 80.1155 173.487 79.278 176.11 79.278C178.746 79.278 180.407 80.1155 180.407 81.5572C180.407 82.3536 179.872 82.9715 178.938 83.3559V85.0036H181.588V85.9921H170.645V85.0036ZM171.949 88.9991C171.949 87.6261 173.515 86.8434 176.11 86.8434C178.705 86.8434 180.27 87.6261 180.27 88.9991C180.27 90.3859 178.705 91.1685 176.11 91.1685C173.515 91.1685 171.949 90.3859 171.949 88.9991ZM173.116 81.5572C173.116 82.3673 174.256 82.8479 176.11 82.8479C177.977 82.8479 179.117 82.3673 179.117 81.5572C179.117 80.7197 177.977 80.2391 176.11 80.2391C174.256 80.2391 173.116 80.7197 173.116 81.5572ZM173.212 88.9991C173.212 89.7817 174.27 90.2074 176.11 90.2074C177.936 90.2074 178.993 89.7817 178.993 88.9991C178.993 88.2302 177.936 87.8046 176.11 87.8046C174.27 87.8046 173.212 88.2302 173.212 88.9991ZM174.531 85.0036H177.702V83.6854C177.222 83.7678 176.686 83.809 176.11 83.809C175.533 83.809 175.011 83.7678 174.531 83.6854V85.0036ZM183.833 79.8409H192.03V80.8982C192.03 82.0378 192.03 83.2873 191.701 85.031H193.431V86.0608H188.557V91.196H187.28V86.0608H182.474V85.031H190.424C190.795 83.3147 190.795 82.0378 190.795 80.8982V80.8432H183.833V79.8409Z" fill="#616161"/>
<rect width="82.3825" height="69.0565" transform="translate(211.413 36.2227)" fill="white"/>
<path d="M262.704 67.0254C262.704 67.7884 262.389 68.5134 261.84 69.043C261.292 69.5713 260.555 69.8632 259.793 69.8633H245.417C244.655 69.8633 243.917 69.5715 243.369 69.043C242.82 68.5134 242.505 67.7884 242.505 67.0254V56.1367C242.505 55.8667 242.633 55.6122 242.849 55.4502L252.09 48.5215L252.209 48.4463C252.498 48.2961 252.852 48.3214 253.119 48.5215L262.361 55.4502C262.577 55.6122 262.704 55.8667 262.704 56.1367V67.0254Z" stroke="#616161" stroke-width="1.7163" stroke-linecap="round" stroke-linejoin="round"/>
<path d="M248.785 61.4641L251.581 64.4111C252.122 64.9817 253.032 64.9817 253.573 64.4111L256.369 61.4641C257.378 60.4013 257.378 58.6782 256.369 57.6154C255.361 56.5527 253.726 56.5527 252.717 57.6154V57.6154C252.641 57.6959 252.513 57.6959 252.437 57.6154V57.6154C251.428 56.5527 249.793 56.5527 248.785 57.6154C247.776 58.6782 247.776 60.4013 248.785 61.4641Z" fill="#616161"/>
<path d="M248.444 87.5437H256.723V91.0175H248.444V87.5437ZM247.112 86.6924V85.7038H251.959V84.8525C249.817 84.7564 248.65 84.1797 248.65 83.1499C248.65 82.0241 250.05 81.4336 252.577 81.4336C255.103 81.4336 256.518 82.0241 256.518 83.1499C256.518 84.1797 255.337 84.7564 253.208 84.8525V85.7038H258.055V86.6924H247.112ZM247.675 80.9943V80.0194H251.959V78.9072H253.208V80.0194H257.437V80.9943H247.675ZM249.666 90.0701H255.501V88.4911H249.666V90.0701ZM249.968 83.1499C249.968 83.6992 250.888 84.0012 252.577 84.0012C254.279 84.0012 255.199 83.6992 255.199 83.1499C255.199 82.6007 254.279 82.2987 252.577 82.2987C250.888 82.2987 249.968 82.6007 249.968 83.1499Z" fill="#616161"/>
<rect width="82.3825" height="69.0565" transform="translate(293.796 36.2227)" fill="white"/>
<path d="M342.159 47.6699C342.952 47.7095 343.703 48.0431 344.267 48.6074C344.867 49.2094 345.205 50.0255 345.205 50.876V67.3369C345.205 68.1875 344.867 69.0045 344.267 69.6064C343.666 70.2083 342.85 70.5467 342 70.5469H327.917C327.067 70.5468 326.251 70.2082 325.65 69.6064C325.087 69.0421 324.755 68.2889 324.716 67.4961L324.712 67.3369V50.876C324.712 50.0254 325.05 49.2095 325.65 48.6074C326.251 48.0054 327.067 47.6661 327.917 47.666H342L342.159 47.6699ZM327.917 49.3828C327.523 49.3829 327.144 49.5396 326.865 49.8193C326.586 50.0993 326.429 50.4794 326.429 50.876V67.3369L326.436 67.4854C326.47 67.8273 326.621 68.1488 326.865 68.3936C327.144 68.6731 327.523 68.8309 327.917 68.8311H342C342.394 68.8309 342.773 68.6733 343.052 68.3936C343.331 68.1137 343.489 67.7334 343.489 67.3369V50.876C343.489 50.4796 343.331 50.0992 343.052 49.8193C342.807 49.5746 342.487 49.4235 342.146 49.3896L342 49.3828H327.917ZM339.739 64.6025C340.172 64.6463 340.51 65.0116 340.51 65.4561C340.51 65.9004 340.172 66.2658 339.739 66.3096L339.652 66.3145H330.264C329.79 66.3142 329.405 65.9297 329.405 65.4561C329.405 64.9822 329.79 64.5979 330.264 64.5977H339.652L339.739 64.6025ZM339.744 59.8994C340.177 59.9432 340.515 60.3085 340.515 60.7529C340.514 61.1972 340.177 61.5626 339.744 61.6064L339.656 61.6113H330.264C329.79 61.6111 329.405 61.2266 329.405 60.7529C329.405 60.2791 329.79 59.8947 330.264 59.8945H339.656L339.744 59.8994ZM332.229 52.7803C332.853 52.121 333.866 52.1211 334.49 52.7803C335.115 53.4395 335.114 54.5086 334.49 55.168L332.756 57C332.423 57.3519 331.862 57.3519 331.528 57L329.794 55.168C329.17 54.5086 329.17 53.4396 329.794 52.7803C330.418 52.1214 331.43 52.1214 332.055 52.7803C332.102 52.8302 332.181 52.8302 332.229 52.7803Z" fill="#616161"/>
<path d="M326.357 79.0583H327.62V85.2232H326.357V79.0583ZM317.858 84.4543C320.865 83.8227 322.444 82.4497 322.636 80.6373H318.476V79.6075H324.009C324.009 82.7655 321.936 84.6603 318.311 85.4704L317.858 84.4543ZM319.739 86.761V85.7862H327.62V88.8069H321.002V90.0701H328.005V91.0587H319.767V87.8732H326.371V86.761H319.739ZM329.77 79.8272H336.264V80.8432H333.655V81.1178C333.655 82.6145 334.74 84.0287 336.566 84.5916L335.976 85.5802C334.589 85.1271 333.573 84.2072 333.051 83.0401C332.529 84.3308 331.472 85.3468 330.017 85.8411L329.385 84.8388C331.252 84.2346 332.406 82.7655 332.406 81.1178V80.8432H329.77V79.8272ZM331.225 91.0175V86.253H332.474V87.6398H337.692V86.253H338.928V91.0175H331.225ZM332.474 90.0152H337.692V88.6284H332.474V90.0152ZM337.665 85.7038V79.072H338.928V81.8044H340.672V82.8479H338.928V85.7038H337.665ZM350.002 79.0446H351.251V91.196H350.002V79.0446ZM341.736 84.2209C341.736 81.6121 343.027 79.9782 344.839 79.9782C346.638 79.9782 347.942 81.6121 347.942 84.2209C347.942 86.816 346.638 88.4773 344.839 88.4773C343.027 88.4773 341.736 86.816 341.736 84.2209ZM342.944 84.2209C342.944 86.1432 343.727 87.3515 344.839 87.3515C345.951 87.3515 346.734 86.1432 346.734 84.2209C346.734 82.2987 345.951 81.1041 344.839 81.1041C343.727 81.1041 342.944 82.2987 342.944 84.2209Z" fill="#616161"/>
<rect width="82.3825" height="69.0565" transform="translate(376.179 36.2227)" fill="white"/>
<path fill-rule="evenodd" clip-rule="evenodd" d="M409.646 51.3833V56.5322H414.795V51.3833H409.646ZM408.469 50.1072C408.797 49.816 409.221 49.667 409.646 49.667H414.795C415.22 49.667 415.644 49.816 415.972 50.1072C416.303 50.4012 416.511 50.8232 416.511 51.2879V56.6276C416.511 57.0923 416.303 57.5143 415.972 57.8083C415.644 58.0995 415.22 58.2485 414.795 58.2485H409.646C409.221 58.2485 408.797 58.0995 408.469 57.8083C408.138 57.5143 407.93 57.0923 407.93 56.6276V51.2879C407.93 50.8232 408.138 50.4012 408.469 50.1072ZM419.944 51.3833V56.5322H425.093V51.3833H419.944ZM418.767 50.1072C419.094 49.816 419.519 49.667 419.944 49.667H425.093C425.517 49.667 425.942 49.816 426.27 50.1072C426.6 50.4012 426.809 50.8232 426.809 51.2879V56.6276C426.809 57.0923 426.6 57.5143 426.27 57.8083C425.942 58.0995 425.517 58.2485 425.093 58.2485H419.944C419.519 58.2485 419.094 58.0995 418.767 57.8083C418.436 57.5143 418.228 57.0923 418.228 56.6276V51.2879C418.228 50.8232 418.436 50.4012 418.767 50.1072ZM409.646 61.6811V66.83H414.795V61.6811H409.646ZM408.469 60.405C408.797 60.1139 409.221 59.9648 409.646 59.9648H414.795C415.22 59.9648 415.644 60.1139 415.972 60.405C416.303 60.699 416.511 61.1211 416.511 61.5858V66.9254C416.511 67.3901 416.303 67.8121 415.972 68.1061C415.644 68.3973 415.22 68.5463 414.795 68.5463H409.646C409.221 68.5463 408.797 68.3973 408.469 68.1061C408.138 67.8121 407.93 67.3901 407.93 66.9254V61.5858C407.93 61.1211 408.138 60.699 408.469 60.405ZM419.944 61.6811V66.83H425.093V61.6811H419.944ZM418.767 60.405C419.094 60.1139 419.519 59.9648 419.944 59.9648H425.093C425.517 59.9648 425.942 60.1139 426.27 60.405C426.6 60.699 426.809 61.1211 426.809 61.5858V66.9254C426.809 67.3901 426.6 67.8121 426.27 68.1061C425.942 68.3973 425.517 68.5463 425.093 68.5463H419.944C419.519 68.5463 419.094 68.3973 418.767 68.1061C418.436 67.8121 418.228 67.3901 418.228 66.9254V61.5858C418.228 61.1211 418.436 60.699 418.767 60.405Z" fill="#1F2937"/>
<path d="M412.389 82.3536H414.71V79.072H415.959V87.9281H414.71V83.3834H412.389V82.3536ZM405.963 85.4429C407.803 84.7976 408.984 83.2049 408.984 81.5298V81.0217H406.348V80.0057H412.828V81.0217H410.233V81.516C410.233 83.0401 411.346 84.5642 413.131 85.182L412.513 86.1706C411.153 85.6901 410.151 84.7152 409.629 83.5069C409.108 84.8388 408.05 85.9235 406.609 86.4452L405.963 85.4429ZM408.16 90.9214V87.1592H409.41V89.8916H416.289V90.9214H408.16ZM422.722 83.809H424.465V79.3329H425.632V90.5644H424.465V84.8251H422.722V83.809ZM417.655 87.7908C419.316 86.816 420.168 84.7289 420.168 82.7792V82.2712H418.012V81.2551H420.168V79.4839H421.376V81.2551H423.504V82.2712H421.376V82.7792C421.376 84.6878 422.255 86.6375 423.902 87.5437L423.202 88.4773C422.035 87.8458 421.225 86.6787 420.786 85.2919C420.36 86.7748 419.55 88.0517 418.369 88.752L417.655 87.7908ZM426.896 91.1685V79.0583H428.09V91.1685H426.896Z" fill="#1A1A1A"/>
</g>
<rect x="161.618" y="0.466797" width="17.163" height="17.163" rx="8.58151" fill="#333333"/>
<path d="M171.654 8.76854C172.386 9.19189 172.958 9.9013 172.958 10.7366C172.958 12.1325 171.814 13.1623 170.063 13.1623C168.324 13.1623 167.191 12.1325 167.191 10.6336H168.564C168.564 11.2515 168.999 11.835 170.063 11.835C171.139 11.835 171.631 11.2515 171.631 10.6336C171.631 10.0043 171.242 9.38641 170.086 9.38641H169.503V8.16211H170.109C171.059 8.16211 171.505 7.60145 171.505 7.04079C171.505 6.50302 171.082 5.99957 170.143 5.99957C169.194 5.99957 168.816 6.50302 168.816 7.05223H167.443C167.443 5.63342 168.541 4.67229 170.143 4.67229C171.722 4.67229 172.821 5.63342 172.821 6.94926C172.821 7.71587 172.329 8.35662 171.654 8.76854Z" fill="white"/>
<path d="M174.013 46.0713C174.013 43.9649 172.306 42.2573 170.199 42.2573C168.093 42.2573 166.385 43.9649 166.385 46.0713C166.385 48.1777 168.093 49.8853 170.199 49.8853C172.306 49.8853 174.013 48.1777 174.013 46.0713ZM170.199 46.0713L170.914 46.0713L170.914 17.6293L170.199 17.6293L169.484 17.6293L169.484 46.0713L170.199 46.0713Z" fill="#333333"/>
<rect y="40.5137" width="17.163" height="17.163" rx="8.58151" fill="#333333"/>
<path d="M9.8798 44.7878V53.1405L8.50676 53.1291V46.2982L7.00786 46.9847L6.49297 45.7261L8.50676 44.7878H9.8798Z" fill="white"/>
<path d="M46.1875 45.2807C44.0811 45.2807 42.3735 46.9883 42.3735 49.0947C42.3735 51.2011 44.0811 52.9087 46.1875 52.9087C48.2939 52.9087 50.0015 51.2011 50.0015 49.0947C50.0015 46.9883 48.2939 45.2807 46.1875 45.2807ZM46.1875 49.0947L46.1875 48.3796L17.5825 48.3796L17.5825 49.0947L17.5825 49.8099L46.1875 49.8099L46.1875 49.0947Z" fill="#333333"/>
<rect y="79.1309" width="17.163" height="17.163" rx="8.58151" fill="#333333"/>
<path d="M5.79046 90.3846C7.47244 88.7713 9.6693 87.4784 9.6693 86.1168C9.6693 85.1213 9.06288 84.698 8.3077 84.698C7.8157 84.698 7.19783 84.881 6.82024 85.7049L5.57306 85.1442C6.22526 83.6911 7.56397 83.3249 8.3077 83.3249C9.60065 83.3249 11.0423 84.3318 11.0423 86.1168C11.0423 87.8445 9.36037 89.1832 7.89579 90.3846H11.1682V91.7577H5.79046V90.3846Z" fill="white"/>
<path d="M57.209 83.8979C55.1026 83.8979 53.395 85.6055 53.395 87.7119C53.395 89.8183 55.1026 91.5259 57.209 91.5259C59.3154 91.5259 61.023 89.8183 61.023 87.7119C61.023 85.6055 59.3154 83.8979 57.209 83.8979ZM57.209 87.7119V86.9968H17.1619V87.7119V88.427H57.209V87.7119Z" fill="#333333"/>
<defs>
<filter id="filter0_d_1301_48622" x="28.3412" y="13.3386" width="448.528" height="105.671" filterUnits="userSpaceOnUse" color-interpolation-filters="sRGB">
<feFlood flood-opacity="0" result="BackgroundImageFix"/>
<feColorMatrix in="SourceAlpha" type="matrix" values="0 0 0 0 0 0 0 0 0 0 0 0 0 0 0 0 0 0 127 0" result="hardAlpha"/>
<feOffset dy="-4.57681"/>
<feGaussianBlur stdDeviation="9.15361"/>
<feComposite in2="hardAlpha" operator="out"/>
<feColorMatrix type="matrix" values="0 0 0 0 0 0 0 0 0 0 0 0 0 0 0 0 0 0 0.12 0"/>
<feBlend mode="normal" in2="BackgroundImageFix" result="effect1_dropShadow_1301_48622"/>
<feBlend mode="normal" in="SourceGraphic" in2="effect1_dropShadow_1301_48622" result="shape"/>
</filter>
</defs>
</svg>
