<svg width="118" height="50" viewBox="0 0 118 50" fill="none" xmlns="http://www.w3.org/2000/svg">
<path d="M39.3345 29.48C40.8545 29.48 41.7025 28.44 41.7025 26.984C41.7025 25.544 40.8545 24.488 39.3345 24.488C38.0705 24.488 36.9345 25.48 36.9345 26.984C36.9345 28.504 38.0705 29.48 39.3345 29.48ZM35.2705 31V19H36.9345V24.28C37.6385 23.224 38.6625 22.856 39.4625 22.856C41.9745 22.856 43.3665 24.76 43.3665 26.984C43.3665 29.224 41.9585 31.128 39.4465 31.128C38.6625 31.128 37.6705 30.856 36.9345 29.688V31H35.2705ZM46.5966 27.4C46.5966 28.616 47.3326 29.48 48.6446 29.48C49.9566 29.48 50.8046 28.44 50.7886 27.32V22.728H52.4526V31.112H50.7886V29.864C50.2126 30.712 49.4926 31.112 48.4366 31.112C46.6286 31.112 44.9326 29.8 44.9326 27.48V22.76H46.5966V27.4ZM59.2419 30.904C58.9059 30.984 58.2019 31.112 57.6419 31.08C56.3939 31.016 55.2099 29.944 55.2099 28.552V24.312H53.7859V22.68H55.2099V19.848H56.8739V22.68H59.0339V24.312H56.8739V28.552C56.8739 29.096 57.2099 29.4 57.7539 29.416C58.1219 29.432 58.5859 29.352 58.8739 29.288L59.2419 30.904ZM64.92 30.904C64.584 30.984 63.88 31.112 63.32 31.08C62.072 31.016 60.888 29.944 60.888 28.552V24.312H59.464V22.68H60.888V19.848H62.552V22.68H64.712V24.312H62.552V28.552C62.552 29.096 62.888 29.4 63.432 29.416C63.8 29.432 64.264 29.352 64.552 29.288L64.92 30.904ZM69.57 29.528C71.074 29.528 71.954 28.44 71.954 26.952C71.954 25.448 71.074 24.36 69.57 24.36C68.066 24.36 67.202 25.448 67.202 26.952C67.202 28.44 68.066 29.528 69.57 29.528ZM65.538 26.952C65.538 24.664 67.074 22.712 69.57 22.712C72.13 22.712 73.618 24.664 73.618 26.952C73.618 29.224 72.13 31.176 69.57 31.176C67.074 31.176 65.538 29.224 65.538 26.952ZM80.8761 26.472C80.8761 25.208 80.1561 24.408 78.8441 24.408C77.6121 24.408 76.6681 25.448 76.6841 26.568V31.112H75.0201V22.76H76.6841V24.088C77.2441 23.288 77.9801 22.76 79.0361 22.76C80.6681 22.76 82.5401 24.008 82.5401 26.408V31.112H80.8761V26.472Z" fill="#BDBDBD"/>
</svg>
