<svg width="359" height="205" viewBox="0 0 359 205" fill="none" xmlns="http://www.w3.org/2000/svg">
<g filter="url(#filter0_dd_827_22495)">
<g clip-path="url(#clip0_827_22495)">
<path d="M24.7041 34.1915C24.7041 26.9061 30.6101 21 37.8956 21H321.513C328.798 21 334.704 26.906 334.704 34.1915V309.564H24.7041V34.1915Z" fill="white"/>
<rect width="310" height="48.8861" transform="translate(24.7042 28.915)" fill="white"/>
<path fill-rule="evenodd" clip-rule="evenodd" d="M48.8916 47.5028C49.2325 47.8437 49.2325 48.3964 48.8916 48.7373L44.2711 53.3578L48.8916 57.9784C49.2325 58.3193 49.2325 58.872 48.8916 59.2129C48.5507 59.5538 47.998 59.5538 47.6571 59.2129L42.4193 53.9751C42.0783 53.6342 42.0783 53.0815 42.4193 52.7406L47.6571 47.5028C47.998 47.1618 48.5507 47.1618 48.8916 47.5028Z" fill="#555555"/>
<path d="M74.2887 45.502H76.4886V46.8115C76.4886 48.9066 77.5536 50.8446 80.0153 51.6302L78.8805 53.3238C77.2393 52.7476 76.1045 51.6652 75.441 50.2859C74.7426 51.8921 73.4856 53.1667 71.6349 53.7952L70.5 52.0493C73.1364 51.1938 74.2887 49.0986 74.2887 46.9162V45.502ZM73.0491 57.2696C73.0491 55.384 75.1093 54.2491 78.4091 54.2491C81.7089 54.2491 83.7516 55.384 83.7516 57.2696C83.7516 59.2076 81.7089 60.325 78.4091 60.325C75.1093 60.325 73.0491 59.2076 73.0491 57.2696ZM75.2315 57.2696C75.2315 58.1949 76.3314 58.6663 78.4091 58.6663C80.4693 58.6663 81.6041 58.1949 81.6041 57.2696C81.6041 56.3792 80.4693 55.9252 78.4091 55.9252C76.3314 55.9252 75.2315 56.3792 75.2315 57.2696ZM78.6011 49.3256V47.5622H81.5168V44.6814H83.6993V53.8476H81.5168V49.3256H78.6011ZM96.6807 44.6814H98.8456V52.7127H96.6807V51.1414H93.7999V52.2588H86.4495V45.3274H88.597V47.1781H91.6873V45.3274H93.7999V46.6543H96.6807V44.6814ZM88.5272 54.9999V53.3238H98.8456V57.4617H90.6921V58.4743H99.2821V60.1504H88.5621V55.8903H96.6981V54.9999H88.5272ZM88.597 50.5827H91.6873V48.8018H88.597V50.5827ZM93.7999 49.5177H96.6807V48.2955H93.7999V49.5177Z" fill="#333333"/>
<g clip-path="url(#clip1_827_22495)">
<g clip-path="url(#clip2_827_22495)">
<path d="M42.5126 101.545C42.5126 94.9883 47.8281 89.6729 54.385 89.6729H305.023C311.58 89.6729 316.896 94.9883 316.896 101.545V135.093C316.896 141.65 311.58 146.966 305.023 146.966H54.385C47.8281 146.966 42.5126 141.65 42.5126 135.093V101.545Z" fill="#FFF5E6"/>
<path d="M58.3424 118.034C58.3424 112.57 62.7719 108.141 68.236 108.141C73.7001 108.141 78.1296 112.57 78.1296 118.034V118.604C78.1296 124.068 73.7001 128.497 68.236 128.497C62.7719 128.497 58.3424 124.068 58.3424 118.604V118.034Z" fill="#FF8120"/>
<path fill-rule="evenodd" clip-rule="evenodd" d="M73.0058 115.432C73.3277 115.754 73.3277 116.276 73.0058 116.598L67.6467 121.957C67.3248 122.279 66.8027 122.279 66.4808 121.957L64.0074 119.484C63.6854 119.162 63.6854 118.64 64.0074 118.318C64.3293 117.996 64.8513 117.996 65.1733 118.318L67.0637 120.208L71.8398 115.432C72.1618 115.11 72.6838 115.11 73.0058 115.432Z" fill="white"/>
<path d="M93.2208 112.561H94.2102V115.226H95.9383V116.057H94.2102V119.091H93.2208V112.561ZM85.8336 118.181V113.141H86.823V117.35C88.4587 117.35 90.1604 117.231 92.0204 116.848L92.1391 117.653C90.1868 118.062 88.4587 118.181 86.7438 118.181H85.8336ZM86.9681 123.932V119.724H94.2102V123.932H86.9681ZM87.9311 123.127H93.2472V120.516H87.9311V123.127ZM96.8834 113.748H103.097V114.579H100.511V116.136C100.511 117.97 101.857 120.027 103.506 120.806L102.938 121.597C101.646 120.951 100.551 119.579 100.036 118.036C99.5085 119.711 98.3477 121.201 97.0681 121.874L96.4877 121.096C98.0971 120.291 99.5481 118.101 99.5481 116.136V114.579H96.8834V113.748ZM104.521 124.104V112.561H105.511V117.257H107.423V118.088H105.511V124.104H104.521Z" fill="#333333"/>
<path d="M42.5126 163.784C42.5126 157.228 47.8281 151.912 54.385 151.912H305.023C311.58 151.912 316.896 157.228 316.896 163.784V183.125C316.896 189.682 311.58 194.997 305.023 194.997H54.385C47.8281 194.997 42.5126 189.682 42.5126 183.125V163.784Z" fill="white"/>
<mask id="path-9-inside-1_827_22495" fill="white">
<path d="M52.4062 173.455C52.4062 167.991 56.8358 163.562 62.2999 163.562C67.764 163.562 72.1935 167.991 72.1935 173.455C72.1935 178.919 67.764 183.349 62.2999 183.349C56.8358 183.349 52.4062 178.919 52.4062 173.455Z"/>
</mask>
<path d="M52.4062 173.455C52.4062 167.991 56.8358 163.562 62.2999 163.562C67.764 163.562 72.1935 167.991 72.1935 173.455C72.1935 178.919 67.764 183.349 62.2999 183.349C56.8358 183.349 52.4062 178.919 52.4062 173.455Z" fill="white"/>
<path d="M62.2999 183.349V182.524C57.2911 182.524 53.2307 178.464 53.2307 173.455H52.4062H51.5818C51.5818 179.375 56.3804 184.173 62.2999 184.173V183.349ZM72.1935 173.455H71.369C71.369 178.464 67.3086 182.524 62.2999 182.524V183.349V184.173C68.2193 184.173 73.018 179.375 73.018 173.455H72.1935ZM62.2999 163.562V164.386C67.3086 164.386 71.369 168.446 71.369 173.455H72.1935H73.018C73.018 167.536 68.2193 162.737 62.2999 162.737V163.562ZM62.2999 163.562V162.737C56.3804 162.737 51.5818 167.536 51.5818 173.455H52.4062H53.2307C53.2307 168.446 57.2911 164.386 62.2999 164.386V163.562Z" fill="#E0E0E0" mask="url(#path-9-inside-1_827_22495)"/>
<path d="M82.3773 168.773C83.4326 168.773 84.3033 169.393 84.7914 170.474H87.8122V167.862H88.7884V179.431H87.8122V174.946H84.8573C84.3824 176.12 83.4854 176.806 82.3773 176.806C80.702 176.806 79.5148 175.236 79.5148 172.783C79.5148 170.329 80.702 168.773 82.3773 168.773ZM80.4514 172.783C80.4514 174.669 81.2429 175.922 82.3773 175.922C83.525 175.922 84.3165 174.669 84.3165 172.783C84.3165 170.896 83.525 169.656 82.3773 169.656C81.2429 169.656 80.4514 170.896 80.4514 172.783ZM85.0684 171.292C85.1871 171.741 85.2399 172.242 85.2399 172.783C85.2399 173.271 85.1871 173.719 85.108 174.128H87.8122V171.292H85.0684ZM90.9472 169.063H97.1603V169.894H94.5748V171.45C94.5748 173.284 95.9203 175.342 97.5693 176.12L97.0021 176.912C95.7093 176.265 94.6144 174.893 94.0999 173.35C93.5723 175.025 92.4114 176.516 91.1318 177.189L90.5514 176.41C92.1608 175.606 93.6118 173.416 93.6118 171.45V169.894H90.9472V169.063ZM98.585 179.418V167.876H99.5744V172.572H101.487V173.403H99.5744V179.418H98.585Z" fill="#333333"/>
</g>
</g>
</g>
</g>
<defs>
<filter id="filter0_dd_827_22495" x="0.959425" y="0.223408" width="357.489" height="336.053" filterUnits="userSpaceOnUse" color-interpolation-filters="sRGB">
<feFlood flood-opacity="0" result="BackgroundImageFix"/>
<feColorMatrix in="SourceAlpha" type="matrix" values="0 0 0 0 0 0 0 0 0 0 0 0 0 0 0 0 0 0 127 0" result="hardAlpha"/>
<feOffset/>
<feGaussianBlur stdDeviation="0.742021"/>
<feComposite in2="hardAlpha" operator="out"/>
<feColorMatrix type="matrix" values="0 0 0 0 0 0 0 0 0 0 0 0 0 0 0 0 0 0 0.2 0"/>
<feBlend mode="normal" in2="BackgroundImageFix" result="effect1_dropShadow_827_22495"/>
<feColorMatrix in="SourceAlpha" type="matrix" values="0 0 0 0 0 0 0 0 0 0 0 0 0 0 0 0 0 0 127 0" result="hardAlpha"/>
<feOffset dy="2.96808"/>
<feGaussianBlur stdDeviation="11.8723"/>
<feComposite in2="hardAlpha" operator="out"/>
<feColorMatrix type="matrix" values="0 0 0 0 0 0 0 0 0 0 0 0 0 0 0 0 0 0 0.08 0"/>
<feBlend mode="normal" in2="effect1_dropShadow_827_22495" result="effect2_dropShadow_827_22495"/>
<feBlend mode="normal" in="SourceGraphic" in2="effect2_dropShadow_827_22495" result="shape"/>
</filter>
<clipPath id="clip0_827_22495">
<path d="M24.7041 34.1915C24.7041 26.9061 30.6101 21 37.8956 21H321.513C328.798 21 334.704 26.906 334.704 34.1915V309.564H24.7041V34.1915Z" fill="white"/>
</clipPath>
<clipPath id="clip1_827_22495">
<rect width="310" height="286.915" fill="white" transform="translate(24.7041 89.6729)"/>
</clipPath>
<clipPath id="clip2_827_22495">
<rect width="274.383" height="151.702" fill="white" transform="translate(42.5126 89.6729)"/>
</clipPath>
</defs>
</svg>
