<svg width="97" height="28" viewBox="0 0 97 28" fill="none" xmlns="http://www.w3.org/2000/svg">
<path d="M3.2748 6.58803V18.2522H9.98998V20.1288H1.36143V6.58803H3.2748ZM12.2213 10.4884H14.1347V20.1656H12.2213V10.4884ZM12.0741 7.02958C12.0741 6.42245 12.4605 5.94411 13.178 5.94411C13.8587 5.94411 14.245 6.42245 14.245 7.02958C14.245 7.63671 13.8587 8.11505 13.178 8.11505C12.4605 8.11505 12.0741 7.63671 12.0741 7.02958ZM23.1987 14.7934C23.1987 13.34 22.3708 12.4201 20.8622 12.4201C19.4456 12.4201 18.3601 13.616 18.3785 14.9038V20.1288H16.4651V10.5252H18.3785V12.0522C19.0224 11.1323 19.8687 10.5252 21.083 10.5252C22.9595 10.5252 25.1121 11.9602 25.1121 14.7198V20.1288H23.1987V14.7934ZM29.0779 6.20168V14.8486L32.8127 10.5619H35.3884L31.6536 14.7934L35.3516 20.1656H33.0335L30.2922 16.1917L29.0779 17.6451V20.1656H27.1646V6.20168H29.0779ZM50.9381 6.58803V8.4646H46.9826V20.1288H45.0692V8.4646H41.0953V6.58803H50.9381ZM57.7793 14.5727C57.6321 13.3032 56.8594 12.2545 55.2404 12.2545C53.7502 12.2545 52.6647 13.0089 52.444 14.5727H57.7793ZM50.6042 15.3454C50.6042 12.7145 52.2416 10.4884 55.2036 10.4884C58.2577 10.4884 59.1223 12.9169 59.1959 13.1008C59.7663 14.5911 59.6007 16.1917 59.6007 16.1917H52.444C52.7383 17.5715 53.7134 18.4178 55.222 18.4178C57.0802 18.4178 57.5033 17.3875 57.5769 17.2771L59.2511 18.0498C59.2511 18.0498 58.4232 20.184 55.2036 20.184C52.2416 20.184 50.6042 17.9578 50.6042 15.3454ZM69.8005 10.5252L66.213 15.327L69.7637 20.1288H67.4088L65.0907 16.8724L62.8278 20.1288H60.4361L63.95 15.327L60.3809 10.5252H62.7726L65.0907 13.8551L67.4272 10.5252H69.8005ZM76.7033 19.8896C76.3169 19.9816 75.5074 20.1288 74.8635 20.092C73.4285 20.0184 72.067 18.7857 72.067 17.1851V12.3097H70.4296V10.4332H72.067V7.17676H73.9804V10.4332H76.4641V12.3097H73.9804V17.1851C73.9804 17.8107 74.3668 18.1602 74.9923 18.1786C75.4154 18.197 75.949 18.105 76.2801 18.0314L76.7033 19.8896Z" fill="#616161"/>
<path d="M0 22.2997H77.7887V23.2196H0V22.2997Z" fill="#616161"/>
<path fill-rule="evenodd" clip-rule="evenodd" d="M84.4926 8.99359C84.7171 8.76906 85.0812 8.76906 85.3057 8.99359L89.9051 13.593C90.1296 13.8176 90.1296 14.1816 89.9051 14.4061L85.3057 19.0055C85.0812 19.2301 84.7171 19.2301 84.4926 19.0055C84.2681 18.781 84.2681 18.417 84.4926 18.1925L88.6855 13.9996L84.4926 9.80666C84.2681 9.58214 84.2681 9.21811 84.4926 8.99359Z" fill="#999999"/>
</svg>
