<svg width="293" height="163" viewBox="0 0 293 163" fill="none" xmlns="http://www.w3.org/2000/svg">
<g filter="url(#filter0_dd_1099_71500)">
<mask id="path-1-inside-1_1099_71500" fill="white">
<path d="M44 35.6512C44 30.7741 47.9537 26.8203 52.8309 26.8203H255.942C260.819 26.8203 264.773 30.7741 264.773 35.6512V133.256C264.773 138.133 260.819 142.087 255.942 142.087H52.8309C47.9537 142.087 44 138.133 44 133.256V35.6512Z"/>
</mask>
<path d="M44 35.6512C44 30.7741 47.9537 26.8203 52.8309 26.8203H255.942C260.819 26.8203 264.773 30.7741 264.773 35.6512V133.256C264.773 138.133 260.819 142.087 255.942 142.087H52.8309C47.9537 142.087 44 138.133 44 133.256V35.6512Z" fill="white"/>
<path d="M52.8309 26.8203V27.6827H255.942V26.8203V25.9579H52.8309V26.8203ZM264.773 35.6512H263.911V133.256H264.773H265.635V35.6512H264.773ZM255.942 142.087V141.225H52.8309V142.087V142.95H255.942V142.087ZM44 133.256H44.8624V35.6512H44H43.1376V133.256H44ZM52.8309 142.087V141.225C48.43 141.225 44.8624 137.657 44.8624 133.256H44H43.1376C43.1376 138.61 47.4775 142.95 52.8309 142.95V142.087ZM264.773 133.256H263.911C263.911 137.657 260.343 141.225 255.942 141.225V142.087V142.95C261.296 142.95 265.635 138.61 265.635 133.256H264.773ZM255.942 26.8203V27.6827C260.343 27.6827 263.911 31.2503 263.911 35.6512H264.773H265.635C265.635 30.2978 261.296 25.9579 255.942 25.9579V26.8203ZM52.8309 26.8203V25.9579C47.4775 25.9579 43.1376 30.2978 43.1376 35.6512H44H44.8624C44.8624 31.2503 48.43 27.6827 52.8309 27.6827V26.8203Z" fill="#999999" mask="url(#path-1-inside-1_1099_71500)"/>
<path d="M50.8989 44.0685C50.8989 38.353 55.5322 33.7197 61.2477 33.7197H247.525C253.24 33.7197 257.874 38.353 257.874 44.0685V71.5181C257.874 77.2335 253.24 81.8668 247.525 81.8668H61.2477C55.5322 81.8668 50.8989 77.2335 50.8989 71.518V44.0685Z" fill="white"/>
<path fill-rule="evenodd" clip-rule="evenodd" d="M79.105 52.0084C79.4418 52.3452 79.4418 52.8913 79.105 53.2281L69.6186 62.7144C69.2819 63.0512 68.7358 63.0512 68.399 62.7144L64.0871 58.4024C63.7503 58.0656 63.7503 57.5196 64.0871 57.1828C64.4238 56.846 64.9699 56.846 65.3067 57.1828L69.0088 60.885L77.8854 52.0084C78.2222 51.6717 78.7682 51.6717 79.105 52.0084Z" fill="#BDBDBD"/>
<path d="M91.0485 60.0454C91.5608 61.1786 92.6319 61.8461 94.06 61.815C96.4816 61.7374 97.1336 58.6328 94.8206 58.0119C94.0755 57.7324 92.8492 57.3909 91.7781 56.6613C90.2258 55.5902 90.2413 54.0224 90.707 53.0289C91.3279 51.725 92.9889 51.3524 93.9203 51.4301C94.8362 51.4921 96.078 51.8647 96.8386 52.9668L95.9073 53.5878C95.395 52.8582 94.6033 52.6098 93.8272 52.5477C93.1286 52.5167 92.1196 52.734 91.7315 53.4946C91.4211 54.2087 91.4211 55.0314 92.399 55.73C93.3149 56.3664 94.417 56.6769 95.1932 56.9563C98.7014 58.0274 97.7079 62.824 94.091 62.9327C92.3059 62.9948 90.676 62.0479 90.024 60.48L91.0485 60.0454ZM104.946 58.2913C104.822 57.1736 104.279 55.9783 102.602 55.9783C101.128 55.9783 100.181 56.77 99.979 58.3068L104.946 58.2913ZM98.8302 58.8501C98.8302 56.6769 100.134 54.8607 102.556 54.8607C105.071 54.8607 105.707 56.8166 105.785 57.0028C106.25 58.2757 106.064 59.3934 106.064 59.3934H99.979C100.181 60.8526 101.128 61.7219 102.571 61.7219C104.356 61.7219 104.791 60.7439 104.9 60.5887L105.862 61.1009C105.862 61.1009 105.21 62.8395 102.556 62.8395C100.134 62.8395 98.8302 61.0078 98.8302 58.8501ZM107.497 51.2748H108.615V62.793H107.497V51.2748ZM116.118 58.2913C115.994 57.1736 115.45 55.9783 113.774 55.9783C112.299 55.9783 111.352 56.77 111.15 58.3068L116.118 58.2913ZM110.002 58.8501C110.002 56.6769 111.306 54.8607 113.727 54.8607C116.242 54.8607 116.878 56.8166 116.956 57.0028C117.422 58.2757 117.235 59.3934 117.235 59.3934H111.15C111.352 60.8526 112.299 61.7219 113.743 61.7219C115.528 61.7219 115.963 60.7439 116.071 60.5887L117.034 61.1009C117.034 61.1009 116.382 62.8395 113.727 62.8395C111.306 62.8395 110.002 61.0078 110.002 58.8501ZM122.13 61.7529C122.938 61.7529 123.683 61.4425 124.21 60.9147L125.049 61.6598C124.304 62.4049 123.31 62.8706 122.192 62.8706C119.647 62.8706 118.172 60.9923 118.172 58.7104C118.172 56.444 119.647 54.5657 122.192 54.5657C123.31 54.5657 124.304 55.0314 125.049 55.7765L124.21 56.5216C123.683 55.9938 122.938 55.6834 122.13 55.6834C120.299 55.6834 119.29 57.0339 119.29 58.7104C119.29 60.4024 120.299 61.7529 122.13 61.7529ZM130.37 62.6222C130.091 62.6843 129.672 62.7619 129.222 62.7619C128.042 62.7619 127.095 61.815 127.095 60.6508V55.9162H125.807V54.8296H127.095V52.3925H128.213V54.8296H130.06V55.9162H128.213V60.6508C128.213 61.2717 128.585 61.6443 129.222 61.6443C129.579 61.6443 129.874 61.5977 130.122 61.5356L130.37 62.6222ZM138.114 61.784C140.676 61.784 142.492 59.7504 142.492 57.1891C142.492 54.6433 140.676 52.5943 138.114 52.5943C135.538 52.5943 133.737 54.6433 133.737 57.1891C133.737 59.7504 135.538 61.784 138.114 61.784ZM132.604 57.1891C132.604 54.0535 134.886 51.4611 138.114 51.4611C141.343 51.4611 143.625 54.0535 143.625 57.1891C143.625 60.3403 141.343 62.9172 138.114 62.9172C134.886 62.9172 132.604 60.3403 132.604 57.1891ZM149.224 61.8305C150.931 61.8305 151.894 60.5576 151.894 58.8967C151.894 57.2667 150.931 55.9938 149.224 55.9938C147.795 55.9938 146.569 57.2667 146.569 58.8967C146.569 60.5576 147.795 61.8305 149.224 61.8305ZM145.436 66.3633V54.8917H146.554V56.5682C147.066 55.4505 148.277 54.9072 149.239 54.9072C151.661 54.9072 153.011 56.7545 153.011 58.8967C153.011 61.0699 151.661 62.9172 149.239 62.9172C148.246 62.9172 147.066 62.2497 146.554 61.2407V66.3633H145.436ZM158.254 62.6222C157.975 62.6843 157.556 62.7619 157.106 62.7619C155.926 62.7619 154.979 61.815 154.979 60.6508V55.9162H153.691V54.8296H154.979V52.3925H156.097V54.8296H157.944V55.9162H156.097V60.6508C156.097 61.2717 156.469 61.6443 157.106 61.6443C157.463 61.6443 157.758 61.5977 158.006 61.5356L158.254 62.6222ZM160.002 54.8917H161.12V62.793H160.002V54.8917ZM159.847 52.0199C159.847 51.6319 160.095 51.3214 160.561 51.3214C161.011 51.3214 161.26 51.6319 161.26 52.0199C161.26 52.4235 161.011 52.734 160.561 52.734C160.095 52.734 159.847 52.4235 159.847 52.0199ZM166.623 61.7684C168.361 61.7684 169.277 60.4955 169.277 58.8501C169.277 57.2046 168.361 55.9318 166.623 55.9318C164.869 55.9318 163.984 57.2046 163.984 58.8501C163.984 60.4955 164.869 61.7684 166.623 61.7684ZM162.866 58.8501C162.866 56.6924 164.201 54.8451 166.623 54.8451C169.06 54.8451 170.395 56.6924 170.395 58.8501C170.395 61.0078 169.06 62.8551 166.623 62.8551C164.201 62.8551 162.866 61.0078 162.866 58.8501ZM177.411 58.136C177.411 56.8631 176.665 55.9783 175.362 55.9783C174.011 55.9783 173.018 57.2357 173.018 58.2913V62.793H171.9V54.8917H173.018V56.2422C173.545 55.4661 174.321 54.8917 175.408 54.8917C177.255 54.8917 178.528 56.2888 178.528 58.0274V62.793H177.411V58.136Z" fill="#333333"/>
<path fill-rule="evenodd" clip-rule="evenodd" d="M237.581 52.1611C237.834 51.9085 238.243 51.9085 238.496 52.1611L243.67 57.3355C243.923 57.5881 243.923 57.9976 243.67 58.2502L238.496 63.4246C238.243 63.6772 237.834 63.6772 237.581 63.4246C237.328 63.172 237.328 62.7624 237.581 62.5099L242.298 57.7928L237.581 53.0758C237.328 52.8232 237.328 52.4137 237.581 52.1611Z" fill="#999999"/>
<path d="M50.8989 92.041C50.8989 89.2796 53.1375 87.041 55.8989 87.041H252.874C255.635 87.041 257.874 89.2796 257.874 92.041V130.188C257.874 132.95 255.635 135.188 252.874 135.188H55.8989C53.1375 135.188 50.8989 132.949 50.8989 130.188V92.041Z" fill="#FFF5E6"/>
<path fill-rule="evenodd" clip-rule="evenodd" d="M79.105 103.678C79.4418 104.015 79.4418 104.561 79.105 104.898L69.6186 114.384C69.2819 114.721 68.7358 114.721 68.399 114.384L64.0871 110.072C63.7503 109.736 63.7503 109.19 64.0871 108.853C64.4238 108.516 64.9699 108.516 65.3067 108.853L69.0088 112.555L77.8854 103.678C78.2222 103.342 78.7682 103.342 79.105 103.678Z" fill="#EE6002"/>
<path d="M91.0485 113.367C91.5608 114.5 92.6319 115.167 94.06 115.136C96.4816 115.059 97.1336 111.954 94.8206 111.333C94.0755 111.054 92.8492 110.712 91.7781 109.983C90.2258 108.912 90.2413 107.344 90.707 106.35C91.3279 105.046 92.9889 104.674 93.9203 104.751C94.8362 104.813 96.078 105.186 96.8386 106.288L95.9073 106.909C95.395 106.179 94.6033 105.931 93.8272 105.869C93.1286 105.838 92.1196 106.055 91.7315 106.816C91.4211 107.53 91.4211 108.353 92.399 109.051C93.3149 109.688 94.417 109.998 95.1932 110.278C98.7014 111.349 97.7079 116.145 94.091 116.254C92.3059 116.316 90.676 115.369 90.024 113.801L91.0485 113.367ZM104.946 111.613C104.822 110.495 104.279 109.3 102.602 109.3C101.128 109.3 100.181 110.091 99.979 111.628L104.946 111.613ZM98.8302 112.171C98.8302 109.998 100.134 108.182 102.556 108.182C105.071 108.182 105.707 110.138 105.785 110.324C106.25 111.597 106.064 112.715 106.064 112.715H99.979C100.181 114.174 101.128 115.043 102.571 115.043C104.356 115.043 104.791 114.065 104.9 113.91L105.862 114.422C105.862 114.422 105.21 116.161 102.556 116.161C100.134 116.161 98.8302 114.329 98.8302 112.171ZM107.497 104.596H108.615V116.114H107.497V104.596ZM116.118 111.613C115.994 110.495 115.45 109.3 113.774 109.3C112.299 109.3 111.352 110.091 111.15 111.628L116.118 111.613ZM110.002 112.171C110.002 109.998 111.306 108.182 113.727 108.182C116.242 108.182 116.878 110.138 116.956 110.324C117.422 111.597 117.235 112.715 117.235 112.715H111.15C111.352 114.174 112.299 115.043 113.743 115.043C115.528 115.043 115.963 114.065 116.071 113.91L117.034 114.422C117.034 114.422 116.382 116.161 113.727 116.161C111.306 116.161 110.002 114.329 110.002 112.171ZM122.13 115.074C122.938 115.074 123.683 114.764 124.21 114.236L125.049 114.981C124.304 115.726 123.31 116.192 122.192 116.192C119.647 116.192 118.172 114.314 118.172 112.032C118.172 109.765 119.647 107.887 122.192 107.887C123.31 107.887 124.304 108.353 125.049 109.098L124.21 109.843C123.683 109.315 122.938 109.005 122.13 109.005C120.299 109.005 119.29 110.355 119.29 112.032C119.29 113.724 120.299 115.074 122.13 115.074ZM130.37 115.944C130.091 116.006 129.672 116.083 129.222 116.083C128.042 116.083 127.095 115.136 127.095 113.972V109.238H125.807V108.151H127.095V105.714H128.213V108.151H130.06V109.238H128.213V113.972C128.213 114.593 128.585 114.966 129.222 114.966C129.579 114.966 129.874 114.919 130.122 114.857L130.37 115.944ZM138.114 115.105C140.676 115.105 142.492 113.072 142.492 110.51C142.492 107.965 140.676 105.916 138.114 105.916C135.538 105.916 133.737 107.965 133.737 110.51C133.737 113.072 135.538 115.105 138.114 115.105ZM132.604 110.51C132.604 107.375 134.886 104.782 138.114 104.782C141.343 104.782 143.625 107.375 143.625 110.51C143.625 113.662 141.343 116.238 138.114 116.238C134.886 116.238 132.604 113.662 132.604 110.51ZM149.224 115.152C150.931 115.152 151.894 113.879 151.894 112.218C151.894 110.588 150.931 109.315 149.224 109.315C147.795 109.315 146.569 110.588 146.569 112.218C146.569 113.879 147.795 115.152 149.224 115.152ZM145.436 119.685V108.213H146.554V109.889C147.066 108.772 148.277 108.229 149.239 108.229C151.661 108.229 153.011 110.076 153.011 112.218C153.011 114.391 151.661 116.238 149.239 116.238C148.246 116.238 147.066 115.571 146.554 114.562V119.685H145.436ZM158.254 115.944C157.975 116.006 157.556 116.083 157.106 116.083C155.926 116.083 154.979 115.136 154.979 113.972V109.238H153.691V108.151H154.979V105.714H156.097V108.151H157.944V109.238H156.097V113.972C156.097 114.593 156.469 114.966 157.106 114.966C157.463 114.966 157.758 114.919 158.006 114.857L158.254 115.944ZM160.002 108.213H161.12V116.114H160.002V108.213ZM159.847 105.341C159.847 104.953 160.095 104.643 160.561 104.643C161.011 104.643 161.26 104.953 161.26 105.341C161.26 105.745 161.011 106.055 160.561 106.055C160.095 106.055 159.847 105.745 159.847 105.341ZM166.623 115.09C168.361 115.09 169.277 113.817 169.277 112.171C169.277 110.526 168.361 109.253 166.623 109.253C164.869 109.253 163.984 110.526 163.984 112.171C163.984 113.817 164.869 115.09 166.623 115.09ZM162.866 112.171C162.866 110.014 164.201 108.166 166.623 108.166C169.06 108.166 170.395 110.014 170.395 112.171C170.395 114.329 169.06 116.176 166.623 116.176C164.201 116.176 162.866 114.329 162.866 112.171ZM177.411 111.457C177.411 110.184 176.665 109.3 175.362 109.3C174.011 109.3 173.018 110.557 173.018 111.613V116.114H171.9V108.213H173.018V109.564C173.545 108.787 174.321 108.213 175.408 108.213C177.255 108.213 178.528 109.61 178.528 111.349V116.114H177.411V111.457Z" fill="#333333"/>
<path fill-rule="evenodd" clip-rule="evenodd" d="M237.581 105.482C237.834 105.23 238.243 105.23 238.496 105.482L243.67 110.657C243.923 110.909 243.923 111.319 243.67 111.571L238.496 116.746C238.243 116.998 237.834 116.998 237.581 116.746C237.328 116.493 237.328 116.084 237.581 115.831L242.298 111.114L237.581 106.397C237.328 106.145 237.328 105.735 237.581 105.482Z" fill="#999999"/>
</g>
<rect x="96.5889" width="16.558" height="16.558" rx="8.27899" fill="#333333"/>
<path d="M106.147 8.15084C106.854 8.55927 107.406 9.24367 107.406 10.0495C107.406 11.3962 106.302 12.3897 104.613 12.3897C102.935 12.3897 101.842 11.3962 101.842 9.95014H103.167C103.167 10.5462 103.586 11.1092 104.613 11.1092C105.651 11.1092 106.125 10.5462 106.125 9.95014C106.125 9.34301 105.75 8.74693 104.635 8.74693H104.072V7.56579H104.657C105.573 7.56579 106.004 7.0249 106.004 6.484C106.004 5.96519 105.595 5.47948 104.69 5.47948C103.774 5.47948 103.41 5.96519 103.41 6.49504H102.085C102.085 5.12625 103.145 4.199 104.69 4.199C106.214 4.199 107.273 5.12625 107.273 6.39569C107.273 7.13528 106.799 7.75345 106.147 8.15084Z" fill="white"/>
<path d="M108.547 44.5967C108.547 42.5645 106.9 40.9171 104.868 40.9171C102.836 40.9171 101.188 42.5645 101.188 44.5967C101.188 46.6288 102.836 48.2762 104.868 48.2762C106.9 48.2762 108.547 46.6288 108.547 44.5967ZM104.868 44.5967L105.558 44.5967L105.558 16.558L104.868 16.558L104.178 16.558L104.178 44.5967L104.868 44.5967Z" fill="#333333"/>
<rect y="31.7354" width="16.558" height="16.558" rx="8.27899" fill="#333333"/>
<path d="M9.44364 36.0006V44.0588L8.119 44.0478V37.4577L6.67294 38.12L6.1762 36.9058L8.119 36.0006H9.44364Z" fill="white"/>
<path d="M43.876 36.3351C41.8438 36.3351 40.1964 37.9825 40.1964 40.0146C40.1964 42.0468 41.8438 43.6942 43.876 43.6942C45.9081 43.6942 47.5555 42.0468 47.5555 40.0146C47.5555 37.9825 45.9081 36.3351 43.876 36.3351ZM43.876 40.0146L43.876 39.3247L16.2793 39.3247L16.2793 40.0146L16.2793 40.7046L43.876 40.7046L43.876 40.0146Z" fill="#333333"/>
<rect y="100.728" width="16.558" height="16.558" rx="8.27899" fill="#333333"/>
<path d="M5.46321 111.726C7.08589 110.17 9.20531 108.923 9.20531 107.609C9.20531 106.649 8.62026 106.24 7.89171 106.24C7.41705 106.24 6.82096 106.417 6.45668 107.212L5.25347 106.671C5.88267 105.269 7.1742 104.916 7.89171 104.916C9.13908 104.916 10.5299 105.887 10.5299 107.609C10.5299 109.276 8.90727 110.567 7.49432 111.726H10.6514V113.051H5.46321V111.726Z" fill="white"/>
<path d="M55.1934 105.326C53.1612 105.326 51.5138 106.974 51.5138 109.006C51.5138 111.038 53.1612 112.685 55.1934 112.685C57.2255 112.685 58.8729 111.038 58.8729 109.006C58.8729 106.974 57.2255 105.326 55.1934 105.326ZM55.1934 109.006V108.316H16.5581V109.006V109.696H55.1934V109.006Z" fill="#333333"/>
<rect x="275.967" y="49.6738" width="16.558" height="16.558" rx="8.27899" fill="#333333"/>
<path d="M286.088 53.9391V58.8513H287.038V60.1538H286.088V61.9973H284.775V60.1538H281.22V58.8513L284.83 53.9391H286.088ZM282.766 58.8513H284.775V56.1137L282.766 58.8513Z" fill="white"/>
<path d="M248.37 61.6327C250.402 61.6327 252.05 59.9853 252.05 57.9531C252.05 55.921 250.402 54.2736 248.37 54.2736C246.338 54.2736 244.691 55.921 244.691 57.9531C244.691 59.9853 246.338 61.6327 248.37 61.6327ZM248.37 57.9531L248.37 58.643L276.409 58.643L276.409 57.9531L276.409 57.2632L248.37 57.2632L248.37 57.9531Z" fill="#333333"/>
<defs>
<filter id="filter0_dd_1099_71500" x="30.2017" y="19.9212" width="248.37" height="142.863" filterUnits="userSpaceOnUse" color-interpolation-filters="sRGB">
<feFlood flood-opacity="0" result="BackgroundImageFix"/>
<feColorMatrix in="SourceAlpha" type="matrix" values="0 0 0 0 0 0 0 0 0 0 0 0 0 0 0 0 0 0 127 0" result="hardAlpha"/>
<feOffset/>
<feGaussianBlur stdDeviation="3.44958"/>
<feComposite in2="hardAlpha" operator="out"/>
<feColorMatrix type="matrix" values="0 0 0 0 0 0 0 0 0 0 0 0 0 0 0 0 0 0 0.12 0"/>
<feBlend mode="normal" in2="BackgroundImageFix" result="effect1_dropShadow_1099_71500"/>
<feColorMatrix in="SourceAlpha" type="matrix" values="0 0 0 0 0 0 0 0 0 0 0 0 0 0 0 0 0 0 127 0" result="hardAlpha"/>
<feOffset dy="6.89916"/>
<feGaussianBlur stdDeviation="6.89916"/>
<feComposite in2="hardAlpha" operator="out"/>
<feColorMatrix type="matrix" values="0 0 0 0 0 0 0 0 0 0 0 0 0 0 0 0 0 0 0.12 0"/>
<feBlend mode="normal" in2="effect1_dropShadow_1099_71500" result="effect2_dropShadow_1099_71500"/>
<feBlend mode="normal" in="SourceGraphic" in2="effect2_dropShadow_1099_71500" result="shape"/>
</filter>
</defs>
</svg>
