<svg width="457" height="44" viewBox="0 0 457 44" fill="none" xmlns="http://www.w3.org/2000/svg">
<g clip-path="url(#clip0_1101_59872)">
<path d="M0 8C0 3.58172 3.58172 0 8 0H449C453.418 0 457 3.58172 457 8V36C457 40.4183 453.418 44 449 44H8C3.58172 44 0 40.4183 0 36V8Z" fill="#F5F5F5"/>
<path d="M0 8C0 3.58172 3.58172 0 8 0H449C453.418 0 457 3.58172 457 8V36C457 40.4183 453.418 44 449 44H8C3.58172 44 0 40.4183 0 36V8Z" fill="white"/>
<rect x="0.5" y="0.5" width="151.333" height="43" rx="7.5" fill="white"/>
<rect x="0.5" y="0.5" width="151.333" height="43" rx="7.5" stroke="#111111"/>
<path d="M34.678 22.944H47.638V24.544H42.102V29.36H40.118V24.544H34.678V22.944ZM35.318 20.528C38.198 20.176 39.798 18.736 40.006 17.328H35.83V15.76H46.454V17.328H42.31C42.518 18.736 44.118 20.176 46.998 20.528L46.278 22.096C43.798 21.744 42.022 20.656 41.158 19.168C40.294 20.656 38.518 21.744 36.038 22.096L35.318 20.528ZM48.4964 22.112H61.4724V23.696H56.1444V26.16H54.1444V23.696H48.4964V22.112ZM50.0004 29.088V24.928H51.9844V27.504H60.0324V29.088H50.0004ZM50.0964 20.928V15.616H59.8244V20.928H50.0964ZM52.0324 19.344H57.8724V17.168H52.0324V19.344ZM62.3468 26.032H65.2268V22.496C64.1388 21.824 63.4668 20.8 63.4668 19.536C63.4668 17.216 65.7388 15.712 68.8108 15.712C71.8988 15.712 74.1548 17.216 74.1548 19.536C74.1548 20.784 73.4988 21.808 72.4268 22.48V26.032H75.3228V27.648H62.3468V26.032ZM65.4348 19.536C65.4348 20.976 66.7948 21.824 68.8108 21.824C70.8428 21.824 72.2028 20.976 72.2028 19.536C72.2028 18.096 70.8428 17.248 68.8108 17.248C66.7948 17.248 65.4348 18.096 65.4348 19.536ZM67.2108 26.032H70.4428V23.216C69.9308 23.328 69.3868 23.376 68.8108 23.376C68.2508 23.376 67.7068 23.328 67.2108 23.232V26.032ZM76.5491 16.512H79.4131V14.944H81.3811V16.512H84.2451V18.064H81.3811C81.3971 19.568 82.4691 21.056 84.7411 21.664L83.8451 23.2C82.2291 22.768 81.0931 21.856 80.4371 20.688C79.8131 22 78.6611 23.056 76.9971 23.536L76.0691 22C78.3411 21.344 79.3971 19.696 79.4131 18.064H76.5491V16.512ZM78.3891 26.608C78.3891 24.912 80.2611 23.92 83.2851 23.92C86.3091 23.92 88.1811 24.912 88.1811 26.608C88.1811 28.336 86.3091 29.344 83.2851 29.344C80.2611 29.344 78.3891 28.336 78.3891 26.608ZM80.3731 26.608C80.3731 27.424 81.3811 27.824 83.2851 27.824C85.1891 27.824 86.2131 27.424 86.2131 26.608C86.2131 25.84 85.1891 25.424 83.2851 25.424C81.3811 25.424 80.3731 25.84 80.3731 26.608ZM83.8451 20.448V18.848H86.1491V15.008H88.1331V23.664H86.1491V20.448H83.8451ZM100.368 14.992H102.256V29.328H100.368V22.16H99.0075V28.64H97.1675V15.264H99.0075V20.56H100.368V14.992ZM90.5755 25.824V16.608H92.5435V24.112C93.6955 24.08 94.9595 23.984 96.3515 23.712L96.5435 25.408C94.6715 25.76 93.0235 25.824 91.5675 25.824H90.5755ZM106.058 24.144H115.802V29.344H113.818V25.712H106.058V24.144ZM104.01 19.296C104.01 17.232 105.642 15.76 107.77 15.76C108.954 15.76 109.962 16.208 110.65 16.944H113.818V15.008H115.802V23.472H113.818V21.664H110.634C109.946 22.4 108.938 22.832 107.77 22.832C105.642 22.832 104.01 21.344 104.01 19.296ZM105.882 19.296C105.882 20.464 106.698 21.152 107.77 21.152C108.858 21.152 109.658 20.464 109.658 19.296C109.658 18.144 108.858 17.44 107.77 17.44C106.698 17.44 105.882 18.144 105.882 19.296ZM111.466 20.064H113.818V18.544H111.466C111.514 18.784 111.546 19.04 111.546 19.296C111.546 19.568 111.514 19.824 111.466 20.064Z" fill="#1A1A1A"/>
<path d="M204.596 15.888H205.764V17.424C205.764 19.344 207.22 21.104 209.204 21.808L208.58 22.736C207.044 22.176 205.812 20.992 205.22 19.504C204.628 21.184 203.38 22.48 201.748 23.136L201.092 22.176C203.188 21.408 204.596 19.504 204.596 17.344V15.888ZM202.964 26.608C202.964 25.008 204.692 24.08 207.54 24.08C210.404 24.08 212.132 25.008 212.132 26.608C212.132 28.208 210.404 29.136 207.54 29.136C204.692 29.136 202.964 28.208 202.964 26.608ZM204.132 26.608C204.132 27.6 205.444 28.192 207.54 28.192C209.652 28.192 210.948 27.6 210.948 26.608C210.948 25.616 209.652 25.024 207.54 25.024C205.444 25.024 204.132 25.616 204.132 26.608ZM210.788 23.696V15.168H211.988V18.832H214.084V19.84H211.988V23.696H210.788ZM224.638 15.168H225.838V18.624H227.918V19.6H225.838V23.104H224.638V15.168ZM215.662 22.272V16.112H221.806V17.088H216.846V21.28C219.646 21.28 221.246 21.2 223.102 20.816L223.246 21.792C221.294 22.192 219.646 22.272 216.734 22.272H215.662ZM217.086 28.96V23.856H225.838V28.96H217.086ZM218.254 27.984H224.654V24.816H218.254V27.984ZM239.497 15.168H240.649V29.168H239.497V21.904H237.449V28.432H236.329V15.488H237.449V20.896H239.497V15.168ZM229.513 25.52V16.88H230.697V24.464C232.073 24.448 233.577 24.352 235.289 24.016L235.433 25.072C233.513 25.44 231.913 25.52 230.393 25.52H229.513ZM244.803 24.208H254.131V29.168H252.931V25.168H244.803V24.208ZM242.851 19.312C242.851 17.344 244.387 15.968 246.451 15.968C247.667 15.968 248.691 16.448 249.331 17.248H252.931V15.168H254.131V23.408H252.931V21.392H249.315C248.675 22.176 247.651 22.656 246.451 22.656C244.387 22.656 242.851 21.28 242.851 19.312ZM243.987 19.312C243.987 20.688 245.043 21.632 246.451 21.632C247.843 21.632 248.883 20.688 248.883 19.312C248.883 17.968 247.843 16.992 246.451 16.992C245.043 16.992 243.987 17.968 243.987 19.312ZM249.859 20.4H252.931V18.24H249.875C249.971 18.576 250.035 18.928 250.035 19.312C250.035 19.696 249.971 20.064 249.859 20.4Z" fill="#616161"/>
<path d="M356.928 15.888H358.096V17.424C358.096 19.344 359.552 21.104 361.536 21.808L360.912 22.736C359.376 22.176 358.144 20.992 357.552 19.504C356.96 21.184 355.712 22.48 354.08 23.136L353.424 22.176C355.52 21.408 356.928 19.504 356.928 17.344V15.888ZM355.296 26.608C355.296 25.008 357.024 24.08 359.872 24.08C362.736 24.08 364.464 25.008 364.464 26.608C364.464 28.208 362.736 29.136 359.872 29.136C357.024 29.136 355.296 28.208 355.296 26.608ZM356.464 26.608C356.464 27.6 357.776 28.192 359.872 28.192C361.984 28.192 363.28 27.6 363.28 26.608C363.28 25.616 361.984 25.024 359.872 25.024C357.776 25.024 356.464 25.616 356.464 26.608ZM363.12 23.696V15.168H364.32V18.832H366.416V19.84H364.32V23.696H363.12ZM376.97 15.168H378.17V18.624H380.25V19.6H378.17V23.104H376.97V15.168ZM367.994 22.272V16.112H374.138V17.088H369.178V21.28C371.978 21.28 373.578 21.2 375.434 20.816L375.578 21.792C373.626 22.192 371.978 22.272 369.066 22.272H367.994ZM369.418 28.96V23.856H378.17V28.96H369.418ZM370.586 27.984H376.986V24.816H370.586V27.984ZM391.829 15.168H392.981V29.168H391.829V21.904H389.781V28.432H388.661V15.488H389.781V20.896H391.829V15.168ZM381.845 25.52V16.88H383.029V24.464C384.405 24.448 385.909 24.352 387.621 24.016L387.765 25.072C385.845 25.44 384.245 25.52 382.725 25.52H381.845ZM397.135 24.208H406.463V29.168H405.263V25.168H397.135V24.208ZM395.183 19.312C395.183 17.344 396.719 15.968 398.783 15.968C399.999 15.968 401.023 16.448 401.663 17.248H405.263V15.168H406.463V23.408H405.263V21.392H401.647C401.007 22.176 399.983 22.656 398.783 22.656C396.719 22.656 395.183 21.28 395.183 19.312ZM396.319 19.312C396.319 20.688 397.375 21.632 398.783 21.632C400.175 21.632 401.215 20.688 401.215 19.312C401.215 17.968 400.175 16.992 398.783 16.992C397.375 16.992 396.319 17.968 396.319 19.312ZM402.191 20.4H405.263V18.24H402.207C402.303 18.576 402.367 18.928 402.367 19.312C402.367 19.696 402.303 20.064 402.191 20.4Z" fill="#616161"/>
</g>
<defs>
<clipPath id="clip0_1101_59872">
<path d="M0 8C0 3.58172 3.58172 0 8 0H449C453.418 0 457 3.58172 457 8V36C457 40.4183 453.418 44 449 44H8C3.58172 44 0 40.4183 0 36V8Z" fill="white"/>
</clipPath>
</defs>
</svg>
