<svg width="165" height="94" viewBox="0 0 165 94" fill="none" xmlns="http://www.w3.org/2000/svg">
<path d="M57.9531 60.7125C57.9531 55.3781 53.6287 51.0537 48.2942 51.0537H34.4959C29.1615 51.0537 24.8371 55.3781 24.8371 60.7125V60.7125C24.8371 66.047 29.1615 70.3714 34.4959 70.3714H48.2942C53.6287 70.3714 57.9531 66.047 57.9531 60.7125V60.7125Z" fill="#BDBDBD"/>
<g filter="url(#filter0_dd_1239_48410)">
<circle cx="13.7983" cy="13.7983" r="13.7983" transform="matrix(-1 0 0 1 35.8758 46.9141)" fill="white"/>
</g>
<path d="M139.363 60.7125C139.363 55.3781 135.039 51.0537 129.705 51.0537H115.906C110.572 51.0537 106.247 55.3781 106.247 60.7125V60.7125C106.247 66.047 110.572 70.3714 115.906 70.3714H129.705C135.039 70.3714 139.363 66.047 139.363 60.7125V60.7125Z" fill="#FF8120"/>
<g filter="url(#filter1_dd_1239_48410)">
<circle cx="13.7983" cy="13.7983" r="13.7983" transform="matrix(-1 0 0 1 155.921 46.9141)" fill="white"/>
</g>
<rect x="27.5968" width="16.558" height="16.558" rx="8.27899" fill="#333333"/>
<path d="M37.1886 8.16188C37.9062 8.58135 38.3587 9.36509 38.3587 10.0384C38.3587 11.4072 37.2328 12.3786 35.6322 12.3786C34.0426 12.3786 32.9167 11.3852 32.9167 9.97222H34.0868C34.0868 10.778 34.727 11.341 35.6322 11.341C36.5594 11.341 37.2218 10.778 37.2218 9.97222C37.2218 9.19951 36.5705 8.64758 35.6543 8.64758H35.0803V7.66514H35.6653C36.5043 7.66514 37.1003 7.1684 37.1003 6.46193C37.1003 5.74441 36.5263 5.24767 35.7095 5.24767C34.8926 5.24767 34.3296 5.75545 34.3296 6.47296H33.1595C33.1595 5.13729 34.2082 4.21004 35.7095 4.21004C37.1886 4.21004 38.2373 5.11521 38.2373 6.39569C38.2373 7.01386 37.8399 7.74241 37.1886 8.16188Z" fill="white"/>
<path d="M39.5553 44.5967C39.5553 42.5645 37.908 40.9171 35.8758 40.9171C33.8436 40.9171 32.1962 42.5645 32.1962 44.5967C32.1962 46.6288 33.8436 48.2762 35.8758 48.2762C37.908 48.2762 39.5553 46.6288 39.5553 44.5967ZM35.8758 44.5967L36.5657 44.5967L36.5657 16.558L35.8758 16.558L35.1859 16.558L35.1859 44.5967L35.8758 44.5967Z" fill="#333333"/>
<rect x="125.565" width="16.558" height="16.558" rx="8.27899" fill="#333333"/>
<path d="M135.62 4.27627V9.22159H136.636V10.2371H135.62V12.3124H134.45V10.2371H130.995L130.884 9.22159L134.505 4.27627H135.62ZM132.275 9.22159H134.45V6.23011L132.275 9.22159Z" fill="white"/>
<path d="M137.523 44.5967C137.523 42.5645 135.876 40.9171 133.844 40.9171C131.811 40.9171 130.164 42.5645 130.164 44.5967C130.164 46.6288 131.811 48.2762 133.844 48.2762C135.876 48.2762 137.523 46.6288 137.523 44.5967ZM133.844 44.5967L134.533 44.5967L134.533 16.558L133.844 16.558L133.154 16.558L133.154 44.5967L133.844 44.5967Z" fill="#333333"/>
<defs>
<filter id="filter0_dd_1239_48410" x="2.75979" y="44.1544" width="38.6353" height="38.6353" filterUnits="userSpaceOnUse" color-interpolation-filters="sRGB">
<feFlood flood-opacity="0" result="BackgroundImageFix"/>
<feColorMatrix in="SourceAlpha" type="matrix" values="0 0 0 0 0 0 0 0 0 0 0 0 0 0 0 0 0 0 127 0" result="hardAlpha"/>
<feOffset/>
<feGaussianBlur stdDeviation="1.37983"/>
<feComposite in2="hardAlpha" operator="out"/>
<feColorMatrix type="matrix" values="0 0 0 0 0 0 0 0 0 0 0 0 0 0 0 0 0 0 0.12 0"/>
<feBlend mode="normal" in2="BackgroundImageFix" result="effect1_dropShadow_1239_48410"/>
<feColorMatrix in="SourceAlpha" type="matrix" values="0 0 0 0 0 0 0 0 0 0 0 0 0 0 0 0 0 0 127 0" result="hardAlpha"/>
<feOffset dy="2.75966"/>
<feGaussianBlur stdDeviation="2.75966"/>
<feComposite in2="hardAlpha" operator="out"/>
<feColorMatrix type="matrix" values="0 0 0 0 0 0 0 0 0 0 0 0 0 0 0 0 0 0 0.12 0"/>
<feBlend mode="normal" in2="effect1_dropShadow_1239_48410" result="effect2_dropShadow_1239_48410"/>
<feBlend mode="normal" in="SourceGraphic" in2="effect2_dropShadow_1239_48410" result="shape"/>
</filter>
<filter id="filter1_dd_1239_48410" x="122.805" y="44.1544" width="38.6353" height="38.6353" filterUnits="userSpaceOnUse" color-interpolation-filters="sRGB">
<feFlood flood-opacity="0" result="BackgroundImageFix"/>
<feColorMatrix in="SourceAlpha" type="matrix" values="0 0 0 0 0 0 0 0 0 0 0 0 0 0 0 0 0 0 127 0" result="hardAlpha"/>
<feOffset/>
<feGaussianBlur stdDeviation="1.37983"/>
<feComposite in2="hardAlpha" operator="out"/>
<feColorMatrix type="matrix" values="0 0 0 0 0 0 0 0 0 0 0 0 0 0 0 0 0 0 0.12 0"/>
<feBlend mode="normal" in2="BackgroundImageFix" result="effect1_dropShadow_1239_48410"/>
<feColorMatrix in="SourceAlpha" type="matrix" values="0 0 0 0 0 0 0 0 0 0 0 0 0 0 0 0 0 0 127 0" result="hardAlpha"/>
<feOffset dy="2.75966"/>
<feGaussianBlur stdDeviation="2.75966"/>
<feComposite in2="hardAlpha" operator="out"/>
<feColorMatrix type="matrix" values="0 0 0 0 0 0 0 0 0 0 0 0 0 0 0 0 0 0 0.12 0"/>
<feBlend mode="normal" in2="effect1_dropShadow_1239_48410" result="effect2_dropShadow_1239_48410"/>
<feBlend mode="normal" in="SourceGraphic" in2="effect2_dropShadow_1239_48410" result="shape"/>
</filter>
</defs>
</svg>
