<svg width="89" height="85" viewBox="0 0 89 85" fill="none" xmlns="http://www.w3.org/2000/svg">
<path d="M13.798 57.2627C21.0374 57.2627 26.9061 63.1317 26.9064 70.3711C26.9064 77.6107 21.0375 83.4795 13.798 83.4795C6.55862 83.4792 0.689575 77.6105 0.689575 70.3711C0.689828 63.1319 6.55877 57.2629 13.798 57.2627Z" fill="white"/>
<path d="M13.798 57.2627C21.0374 57.2627 26.9061 63.1317 26.9064 70.3711C26.9064 77.6107 21.0375 83.4795 13.798 83.4795C6.55862 83.4792 0.689575 77.6105 0.689575 70.3711C0.689828 63.1319 6.55877 57.2629 13.798 57.2627Z" stroke="#E0E0E0" stroke-width="1.37983"/>
<path d="M60.7125 70.3716C60.7125 62.751 66.8902 56.5732 74.5108 56.5732V56.5732C82.1314 56.5732 88.3092 62.751 88.3092 70.3716V70.3716C88.3092 77.9922 82.1314 84.1699 74.5108 84.1699V84.1699C66.8902 84.1699 60.7125 77.9922 60.7125 70.3716V70.3716Z" fill="#FF8120"/>
<path fill-rule="evenodd" clip-rule="evenodd" d="M82.0407 64.911C82.5796 65.4498 82.5796 66.3235 82.0407 66.8624L73.0718 75.8313C72.5329 76.3701 71.6593 76.3701 71.1204 75.8313L66.9809 71.6918C66.4421 71.1529 66.4421 70.2792 66.9809 69.7404C67.5198 69.2015 68.3934 69.2015 68.9323 69.7404L72.0961 72.9042L80.0893 64.911C80.6282 64.3721 81.5018 64.3721 82.0407 64.911Z" fill="white"/>
<rect x="66.2321" width="16.558" height="16.558" rx="8.27899" fill="#333333"/>
<path d="M71.7175 11.2858C73.3292 9.74041 75.5259 8.17292 75.5259 6.81516C75.5259 5.90999 74.9518 5.26975 74.135 5.26975C73.5058 5.26975 72.8766 5.72234 72.5896 6.37362L71.563 5.92103C72.0045 4.90547 73.0753 4.199 74.135 4.199C75.6473 4.199 76.696 5.28079 76.696 6.81516C76.696 8.50408 74.8635 10.0053 73.3733 11.2858H76.8284V12.3124H71.8279L71.7175 11.2858Z" fill="white"/>
<path d="M78.1906 44.5967C78.1906 42.5645 76.5432 40.9171 74.511 40.9171C72.4789 40.9171 70.8315 42.5645 70.8315 44.5967C70.8315 46.6288 72.4789 48.2762 74.511 48.2762C76.5432 48.2762 78.1906 46.6288 78.1906 44.5967ZM74.511 44.5967L75.201 44.5967L75.201 16.558L74.511 16.558L73.8211 16.558L73.8211 44.5967L74.511 44.5967Z" fill="#333333"/>
<rect x="5.51917" y="1.37988" width="16.558" height="16.558" rx="8.27899" fill="#333333"/>
<path d="M14.8305 5.66719V13.6923L13.6604 13.6813V6.91456L12.2475 7.69831L11.7618 6.71587L13.6715 5.66719H14.8305Z" fill="white"/>
<path d="M17.4777 45.9766C17.4777 43.9444 15.8303 42.297 13.7982 42.297C11.766 42.297 10.1186 43.9444 10.1186 45.9766C10.1186 48.0087 11.766 49.6561 13.7982 49.6561C15.8303 49.6561 17.4777 48.0087 17.4777 45.9766ZM13.7982 45.9766L14.4881 45.9766L14.4881 17.9379L13.7982 17.9379L13.1082 17.9379L13.1082 45.9766L13.7982 45.9766Z" fill="#333333"/>
</svg>
