<svg width="259" height="136" viewBox="0 0 259 136" fill="none" xmlns="http://www.w3.org/2000/svg">
<path d="M48.844 48.9113V56.7185H53.3223V57.5566H47.9819V48.9113H48.844ZM56.7933 56.7783C57.871 56.7783 58.8409 55.9042 58.8529 54.5631C58.8409 53.234 57.871 52.3479 56.7933 52.3479C55.4642 52.3479 54.7458 53.3058 54.7458 54.5631C54.7458 55.8204 55.4642 56.7783 56.7933 56.7783ZM53.8836 54.5631C53.8836 52.8987 54.9254 51.4977 56.7814 51.4977C57.4878 51.4977 58.2781 51.8689 58.8289 52.755V51.4618H59.6911V57.5566H58.8289V56.3592C58.2542 57.2932 57.4998 57.6405 56.7814 57.6405C54.9254 57.6405 53.8836 56.2155 53.8836 54.5631ZM64.1357 56.8023C65.4888 56.8023 66.2192 55.8324 66.2192 54.5511C66.2192 53.2819 65.4888 52.3 64.1357 52.3C63.0221 52.3 62.0762 53.2819 62.0762 54.5511C62.0762 55.8324 63.0221 56.8023 64.1357 56.8023ZM61.214 57.5566V48.6718H62.0762V52.743C62.639 51.7612 63.4772 51.4618 64.1597 51.4618C66.0396 51.4618 67.0814 52.8867 67.0814 54.5511C67.0814 56.2275 66.0276 57.6524 64.1477 57.6524C63.4772 57.6524 62.639 57.3651 62.0762 56.3592V57.5566H61.214ZM72.7248 54.0841C72.629 53.222 72.21 52.3 70.9167 52.3C69.7792 52.3 69.0488 52.9107 68.8931 54.0961L72.7248 54.0841ZM68.007 54.5152C68.007 52.8388 69.0129 51.4379 70.8808 51.4379C72.8206 51.4379 73.3116 52.9466 73.3714 53.0903C73.7307 54.0722 73.587 54.9343 73.587 54.9343H68.8931C69.0488 56.0599 69.7792 56.7304 70.8928 56.7304C72.2698 56.7304 72.6051 55.9761 72.6889 55.8563L73.4313 56.2515C73.4313 56.2515 72.9284 57.5926 70.8808 57.5926C69.0129 57.5926 68.007 56.1796 68.007 54.5152ZM74.6801 48.6718H75.5422V57.5566H74.6801V48.6718Z" fill="#616161"/>
<path d="M50.2539 68.918H220.364C221.955 68.918 223.244 70.2074 223.244 71.7979V107.199C223.244 108.79 221.955 110.079 220.364 110.079H50.2539C48.6635 110.079 47.374 108.79 47.374 107.199V71.7979C47.3742 70.2075 48.6636 68.9181 50.2539 68.918Z" fill="white"/>
<path d="M50.2539 68.918H220.364C221.955 68.918 223.244 70.2074 223.244 71.7979V107.199C223.244 108.79 221.955 110.079 220.364 110.079H50.2539C48.6635 110.079 47.374 108.79 47.374 107.199V71.7979C47.3742 70.2075 48.6636 68.9181 50.2539 68.918Z" stroke="#E0E0E0" stroke-width="0.748383"/>
<g clip-path="url(#clip0_1099_71271)">
<path fill-rule="evenodd" clip-rule="evenodd" d="M62.1772 83.5127C60.411 83.5127 58.9741 84.9496 58.9741 86.7158V92.2837C58.9741 94.0499 60.411 95.4868 62.1772 95.4868H67.7452C69.5114 95.4868 70.9483 94.0499 70.9483 92.2837V86.7158C70.9483 84.9496 69.5114 83.5127 67.7452 83.5127H62.1772ZM59.8198 92.4708C59.9171 93.6907 60.9349 94.6486 62.1772 94.6486H67.7452C69.0548 94.6486 70.1101 93.5859 70.1101 92.2837V91.3782L67.8874 89.5297C67.4907 89.2004 66.907 89.2229 66.5403 89.5896L63.7638 92.3661C63.5018 92.628 63.0827 92.628 62.8208 92.3661L62.2221 91.7674C61.8778 91.4231 61.3315 91.3782 60.9274 91.6626L59.9021 92.396C59.9021 92.396 59.8422 92.4409 59.8123 92.4708H59.8198ZM61.6159 87.2696C61.6159 87.8833 62.1173 88.3847 62.731 88.3847C63.3447 88.3847 63.8461 87.8833 63.8461 87.2696C63.8461 86.6559 63.3447 86.1545 62.731 86.1545C62.1173 86.1545 61.6159 86.6559 61.6159 87.2696Z" fill="#333333"/>
</g>
<path d="M81.7716 89.8037C82.9032 89.8037 83.8057 88.8742 83.8057 87.7696C83.8057 86.6381 82.8897 85.7355 81.7581 85.7355H79.0101L79.0235 89.8037H81.7716ZM78.0536 94.5186V84.7926H81.7985C83.442 84.7926 84.7487 86.1262 84.7487 87.7696C84.7487 89.3996 83.442 90.7467 81.7985 90.7467H79.0235V94.5186H78.0536ZM85.9863 84.5231H86.9562V94.5186H85.9863V84.5231ZM91.433 93.6429C92.6454 93.6429 93.7366 92.6596 93.75 91.1508C93.7366 89.6556 92.6454 88.6587 91.433 88.6587C89.9378 88.6587 89.1295 89.7364 89.1295 91.1508C89.1295 92.5653 89.9378 93.6429 91.433 93.6429ZM88.1596 91.1508C88.1596 89.2784 89.3316 87.7023 91.4196 87.7023C92.2144 87.7023 93.1034 88.1199 93.7231 89.1167V87.6619H94.693V94.5186H93.7231V93.1715C93.0765 94.2222 92.2278 94.6129 91.4196 94.6129C89.3316 94.6129 88.1596 93.0098 88.1596 91.1508ZM99.3031 93.616C100.004 93.616 100.65 93.3466 101.108 92.8886L101.836 93.5352C101.189 94.1818 100.327 94.5859 99.357 94.5859C97.1478 94.5859 95.8681 92.9559 95.8681 90.9757C95.8681 89.009 97.1478 87.379 99.357 87.379C100.327 87.379 101.189 87.7831 101.836 88.4297L101.108 89.0763C100.65 88.6183 100.004 88.3489 99.3031 88.3489C97.7136 88.3489 96.838 89.5208 96.838 90.9757C96.838 92.444 97.7136 93.616 99.3031 93.616ZM107.858 90.612C107.75 89.6421 107.279 88.6048 105.824 88.6048C104.544 88.6048 103.722 89.2918 103.547 90.6255L107.858 90.612ZM102.55 91.0969C102.55 89.211 103.682 87.6349 105.784 87.6349C107.966 87.6349 108.518 89.3323 108.585 89.4939C108.99 90.5985 108.828 91.5684 108.828 91.5684H103.547C103.722 92.8347 104.544 93.5891 105.797 93.5891C107.346 93.5891 107.723 92.7404 107.818 92.6057L108.653 93.0502C108.653 93.0502 108.087 94.559 105.784 94.559C103.682 94.559 102.55 92.9694 102.55 91.0969ZM114.975 90.6659C114.975 89.3861 114.248 88.6452 113.224 88.6452C112.16 88.6452 111.23 89.6421 111.23 90.9353V94.5186H110.26V84.5231H111.23V88.9551C111.567 88.2546 112.335 87.7023 113.264 87.7023C114.652 87.7023 115.945 88.8877 115.945 90.612V94.5186H114.975V90.6659ZM120.728 93.6295C122.236 93.6295 123.031 92.5249 123.031 91.0969C123.031 89.669 122.236 88.5644 120.728 88.5644C119.205 88.5644 118.437 89.669 118.437 91.0969C118.437 92.5249 119.205 93.6295 120.728 93.6295ZM117.468 91.0969C117.468 89.2245 118.626 87.6215 120.728 87.6215C122.842 87.6215 124.001 89.2245 124.001 91.0969C124.001 92.9694 122.842 94.5724 120.728 94.5724C118.626 94.5724 117.468 92.9694 117.468 91.0969ZM125.199 84.5231H126.169V94.5186H125.199V84.5231ZM130.646 94.6263C128.558 94.6263 127.373 93.0233 127.373 91.1374C127.373 89.2649 128.558 87.6484 130.646 87.6484C131.522 87.6484 132.438 88.0929 133.003 89.1167V84.5231H133.973V94.5186H133.003V93.158C132.424 94.1818 131.522 94.6263 130.646 94.6263ZM128.342 91.1374C128.342 92.5787 129.164 93.6564 130.686 93.6564C131.926 93.6564 133.003 92.5787 133.003 91.1374C133.003 89.7094 131.926 88.6183 130.686 88.6183C129.164 88.6183 128.342 89.7094 128.342 91.1374ZM140.606 90.612C140.498 89.6421 140.026 88.6048 138.572 88.6048C137.292 88.6048 136.47 89.2918 136.295 90.6255L140.606 90.612ZM135.298 91.0969C135.298 89.211 136.43 87.6349 138.531 87.6349C140.713 87.6349 141.266 89.3323 141.333 89.4939C141.737 90.5985 141.576 91.5684 141.576 91.5684H136.295C136.47 92.8347 137.292 93.5891 138.545 93.5891C140.094 93.5891 140.471 92.7404 140.565 92.6057L141.4 93.0502C141.4 93.0502 140.835 94.559 138.531 94.559C136.43 94.559 135.298 92.9694 135.298 91.0969ZM143.83 89.1033C144.22 88.2007 145.338 87.5945 146.268 87.5945V88.5914C145.015 88.5914 143.83 89.898 143.83 90.9892V94.5186H142.86V87.6619H143.83V89.1033Z" fill="#BDBDBD"/>
<rect width="17.9612" height="17.9612" transform="translate(196.677 80.5186)" fill="#FF0000" fill-opacity="0.1"/>
<path fill-rule="evenodd" clip-rule="evenodd" d="M200.638 86.7241C200.93 86.4318 201.404 86.4318 201.696 86.7241L205.657 90.6852L209.618 86.7241C209.911 86.4318 210.384 86.4318 210.677 86.7241C210.969 87.0163 210.969 87.4902 210.677 87.7825L206.186 92.2728C205.894 92.565 205.42 92.565 205.128 92.2728L200.638 87.7825C200.345 87.4902 200.345 87.0163 200.638 86.7241Z" fill="#616161"/>
<rect width="176.618" height="17.9612" transform="translate(47 116.44)" fill="#FF0000" fill-opacity="0.1"/>
<path fill-rule="evenodd" clip-rule="evenodd" d="M62.7388 120.721C62.958 120.94 62.958 121.296 62.7388 121.515L54.1324 130.121C53.9132 130.34 53.5578 130.34 53.3386 130.121L49.2225 126.005C49.0033 125.786 49.0033 125.431 49.2225 125.211C49.4417 124.992 49.7971 124.992 50.0163 125.211L53.7355 128.931L61.945 120.721C62.1642 120.502 62.5196 120.502 62.7388 120.721Z" fill="#999999"/>
<path d="M74.3248 121.856V129.421H73.5705V125.901H69.5891V129.421H68.8347V121.856H69.5891V125.167H73.5705V121.856H74.3248ZM79.6777 126.382C79.5939 125.628 79.2272 124.821 78.0957 124.821C77.1003 124.821 76.4612 125.356 76.325 126.393L79.6777 126.382ZM75.5497 126.76C75.5497 125.293 76.4298 124.067 78.0642 124.067C79.7616 124.067 80.1911 125.387 80.2435 125.513C80.5578 126.372 80.4321 127.126 80.4321 127.126H76.325C76.4612 128.111 77.1003 128.698 78.0747 128.698C79.2796 128.698 79.573 128.038 79.6463 127.933L80.2959 128.279C80.2959 128.279 79.8559 129.452 78.0642 129.452C76.4298 129.452 75.5497 128.216 75.5497 126.76ZM81.3746 121.647H82.1289V129.421H81.3746V121.647ZM86.063 128.771C87.2155 128.771 87.8651 127.912 87.8651 126.791C87.8651 125.691 87.2155 124.832 86.063 124.832C85.0991 124.832 84.2713 125.691 84.2713 126.791C84.2713 127.912 85.0991 128.771 86.063 128.771ZM83.5065 131.831V124.088H84.2609V125.219C84.6066 124.465 85.4239 124.098 86.0735 124.098C87.7079 124.098 88.6195 125.345 88.6195 126.791C88.6195 128.258 87.7079 129.505 86.0735 129.505C85.4029 129.505 84.6066 129.054 84.2609 128.373V131.831H83.5065ZM99.0778 126.152C99.0778 125.303 98.5644 124.821 97.81 124.821C97.108 124.821 96.3851 125.481 96.3851 126.152V129.421H95.6307V126.152C95.6307 125.481 95.2011 124.821 94.3839 124.821C93.64 124.821 92.9485 125.481 92.9485 126.236V129.421H92.1941V124.088H92.9485V125.01C93.2838 124.434 93.7762 124.088 94.4153 124.088C95.1907 124.088 95.704 124.423 96.0812 125.157C96.4689 124.612 97.0032 124.088 97.8414 124.088C98.9311 124.088 99.8321 124.968 99.8321 126.068V129.421H99.0778V126.152ZM105.034 126.382C104.95 125.628 104.583 124.821 103.452 124.821C102.456 124.821 101.817 125.356 101.681 126.393L105.034 126.382ZM100.906 126.76C100.906 125.293 101.786 124.067 103.42 124.067C105.117 124.067 105.547 125.387 105.599 125.513C105.914 126.372 105.788 127.126 105.788 127.126H101.681C101.817 128.111 102.456 128.698 103.431 128.698C104.635 128.698 104.929 128.038 105.002 127.933L105.652 128.279C105.652 128.279 105.212 129.452 103.42 129.452C101.786 129.452 100.906 128.216 100.906 126.76ZM107.296 127.975C107.506 128.457 107.998 128.74 108.637 128.708C109.559 128.687 109.926 127.545 108.983 127.242C108.637 127.137 108.009 126.969 107.495 126.634C106.699 126.1 106.709 125.314 106.95 124.832C107.275 124.193 108.103 124.004 108.585 124.046C109.035 124.098 109.664 124.256 110.062 124.79L109.455 125.23C109.235 124.926 108.878 124.832 108.522 124.79C108.197 124.758 107.768 124.874 107.611 125.167C107.474 125.45 107.485 125.733 107.914 126.016C108.323 126.288 108.847 126.414 109.214 126.54C110.974 127.105 110.408 129.41 108.658 129.452C107.778 129.494 106.94 129.033 106.615 128.268L107.296 127.975ZM111.635 127.975C111.844 128.457 112.337 128.74 112.976 128.708C113.898 128.687 114.265 127.545 113.322 127.242C112.976 127.137 112.347 126.969 111.834 126.634C111.038 126.1 111.048 125.314 111.289 124.832C111.614 124.193 112.442 124.004 112.923 124.046C113.374 124.098 114.003 124.256 114.401 124.79L113.793 125.23C113.573 124.926 113.217 124.832 112.861 124.79C112.536 124.758 112.106 124.874 111.949 125.167C111.813 125.45 111.823 125.733 112.253 126.016C112.662 126.288 113.185 126.414 113.552 126.54C115.312 127.105 114.747 129.41 112.997 129.452C112.117 129.494 111.279 129.033 110.954 128.268L111.635 127.975ZM118.053 128.74C118.996 128.74 119.845 127.975 119.855 126.802C119.845 125.639 118.996 124.863 118.053 124.863C116.89 124.863 116.262 125.701 116.262 126.802C116.262 127.902 116.89 128.74 118.053 128.74ZM115.507 126.802C115.507 125.345 116.419 124.119 118.043 124.119C118.661 124.119 119.352 124.444 119.834 125.219V124.088H120.589V129.421H119.834V128.373C119.331 129.19 118.671 129.494 118.043 129.494C116.419 129.494 115.507 128.247 115.507 126.802ZM124.244 128.761C125.239 128.761 126.025 127.891 126.025 126.802C126.025 125.733 125.229 124.863 124.244 124.863C123.154 124.863 122.452 125.628 122.452 126.802C122.452 127.996 123.154 128.761 124.244 128.761ZM121.698 126.802C121.698 125.219 122.735 124.13 124.233 124.13C125.03 124.13 125.711 124.549 126.025 125.23V124.088H126.779V129.159C126.758 130.856 125.773 131.82 124.076 131.82C123.227 131.82 122.484 131.38 121.939 130.563L122.578 130.154C122.965 130.762 123.468 131.066 124.076 131.066C125.375 131.066 126.014 130.437 126.025 129.148V128.352C125.658 129.012 124.914 129.494 124.233 129.494C122.735 129.494 121.698 128.394 121.698 126.802ZM131.801 126.382C131.718 125.628 131.351 124.821 130.219 124.821C129.224 124.821 128.585 125.356 128.449 126.393L131.801 126.382ZM127.673 126.76C127.673 125.293 128.553 124.067 130.188 124.067C131.885 124.067 132.315 125.387 132.367 125.513C132.682 126.372 132.556 127.126 132.556 127.126H128.449C128.585 128.111 129.224 128.698 130.198 128.698C131.403 128.698 131.697 128.038 131.77 127.933L132.42 128.279C132.42 128.279 131.98 129.452 130.188 129.452C128.553 129.452 127.673 128.216 127.673 126.76Z" fill="#616161"/>
<rect y="69.3936" width="16.558" height="16.558" rx="8.27899" fill="#333333"/>
<path d="M9.44364 73.6588V81.717L8.119 81.706V75.1159L6.67294 75.7782L6.1762 74.564L8.119 73.6588H9.44364Z" fill="white"/>
<path d="M43.876 73.9933C41.8438 73.9933 40.1964 75.6407 40.1964 77.6729C40.1964 79.705 41.8438 81.3524 43.876 81.3524C45.9081 81.3524 47.5555 79.705 47.5555 77.6729C47.5555 75.6407 45.9081 73.9933 43.876 73.9933ZM43.876 77.6729L43.876 76.9829L16.2793 76.9829L16.2793 77.6729L16.2793 78.3628L43.876 78.3628L43.876 77.6729Z" fill="#333333"/>
<rect y="90.0908" width="16.558" height="16.558" rx="8.27899" fill="#333333"/>
<path d="M5.46321 101.09C7.08589 99.5332 9.20531 98.2858 9.20531 96.9722C9.20531 96.0119 8.62026 95.6034 7.89171 95.6034C7.41705 95.6034 6.82096 95.78 6.45668 96.5748L5.25347 96.0339C5.88267 94.632 7.1742 94.2788 7.89171 94.2788C9.13908 94.2788 10.5299 95.2502 10.5299 96.9722C10.5299 98.6391 8.90727 99.9306 7.49432 101.09H10.6514V102.414H5.46321V101.09Z" fill="white"/>
<path d="M55.1924 94.6906C53.1602 94.6906 51.5128 96.338 51.5128 98.3701C51.5128 100.402 53.1602 102.05 55.1924 102.05C57.2245 102.05 58.8719 100.402 58.8719 98.3701C58.8719 96.338 57.2245 94.6906 55.1924 94.6906ZM55.1924 98.3701V97.6802H16.5571V98.3701V99.06H55.1924V98.3701Z" fill="#333333"/>
<rect x="241.47" y="81.8115" width="16.558" height="16.558" rx="8.27899" fill="#333333"/>
<path d="M248.335 90.6136L247.01 90.5585L247.187 86.0768H251.713V87.4014H248.456L248.401 89.002C248.743 88.8585 249.119 88.7812 249.505 88.7812C251.006 88.7812 252.375 89.9072 252.375 91.5078C252.375 93.0311 250.984 94.2454 249.505 94.2454C248.247 94.2454 247.021 93.3512 246.723 92.0928L248.015 91.7948C248.18 92.4902 248.754 92.9207 249.505 92.9207C250.399 92.9207 251.05 92.3357 251.05 91.5078C251.05 90.6247 250.432 90.1059 249.505 90.1059C248.997 90.1059 248.655 90.2604 248.335 90.6136Z" fill="white"/>
<path d="M213.873 93.7704C215.905 93.7704 217.553 92.123 217.553 90.0908C217.553 88.0587 215.905 86.4113 213.873 86.4113C211.841 86.4113 210.193 88.0587 210.193 90.0908C210.193 92.123 211.841 93.7704 213.873 93.7704ZM213.873 90.0908L213.873 90.7807L241.912 90.7807L241.912 90.0908L241.912 89.4009L213.873 89.4009L213.873 90.0908Z" fill="#333333"/>
<rect x="241.47" y="119.067" width="16.558" height="16.558" rx="8.27899" fill="#333333"/>
<path d="M249.549 130.143C250.454 130.143 251.083 129.625 251.083 128.764C251.083 127.947 250.443 127.373 249.549 127.373C248.666 127.373 248.048 127.947 248.048 128.764C248.048 129.625 248.644 130.143 249.549 130.143ZM246.723 128.764C246.723 128.333 246.834 127.925 247.032 127.56H247.021L249.417 123.299H250.929L249.372 126.059C249.439 126.048 249.494 126.048 249.56 126.048C251.028 126.048 252.408 127.251 252.408 128.764C252.408 130.342 251.039 131.468 249.56 131.468C248.092 131.468 246.723 130.342 246.723 128.764Z" fill="white"/>
<path d="M213.873 131.026C215.905 131.026 217.553 129.379 217.553 127.347C217.553 125.315 215.905 123.667 213.873 123.667C211.841 123.667 210.193 125.315 210.193 127.347C210.193 129.379 211.841 131.026 213.873 131.026ZM213.873 127.347L213.873 128.037L241.912 128.037L241.912 127.347L241.912 126.657L213.873 126.657L213.873 127.347Z" fill="#333333"/>
<rect x="53.8135" y="0.401367" width="16.558" height="16.558" rx="8.27899" fill="#333333"/>
<path d="M63.372 8.55221C64.0785 8.96064 64.6304 9.64503 64.6304 10.4509C64.6304 11.7976 63.5266 12.7911 61.8376 12.7911C60.1598 12.7911 59.0669 11.7976 59.0669 10.3515H60.3916C60.3916 10.9476 60.8111 11.5106 61.8376 11.5106C62.8753 11.5106 63.3499 10.9476 63.3499 10.3515C63.3499 9.74438 62.9746 9.14829 61.8597 9.14829H61.2968V7.96716H61.8818C62.798 7.96716 63.2285 7.42626 63.2285 6.88537C63.2285 6.36655 62.8201 5.88085 61.9149 5.88085C60.9987 5.88085 60.6344 6.36655 60.6344 6.89641H59.3098C59.3098 5.52762 60.3695 4.60037 61.9149 4.60037C63.4383 4.60037 64.498 5.52762 64.498 6.79706C64.498 7.53665 64.0233 8.15482 63.372 8.55221Z" fill="white"/>
<path d="M65.7718 44.998C65.7718 42.9659 64.1244 41.3185 62.0923 41.3185C60.0601 41.3185 58.4127 42.9659 58.4127 44.998C58.4127 47.0302 60.0601 48.6776 62.0923 48.6776C64.1244 48.6776 65.7718 47.0302 65.7718 44.998ZM62.0923 44.998L62.7822 44.998L62.7822 16.9594L62.0923 16.9594L61.4024 16.9594L61.4024 44.998L62.0923 44.998Z" fill="#333333"/>
<rect x="126.944" y="0.401367" width="16.558" height="16.558" rx="8.27899" fill="#333333"/>
<path d="M137.066 4.6666V9.5788H138.015V10.8814H137.066V12.7248H135.752V10.8814H132.198V9.5788L135.807 4.6666H137.066ZM133.743 9.5788H135.752V6.84121L133.743 9.5788Z" fill="white"/>
<path d="M138.902 83.1914C138.902 81.1592 137.255 79.5119 135.223 79.5119C133.19 79.5119 131.543 81.1592 131.543 83.1914C131.543 85.2236 133.19 86.871 135.223 86.871C137.255 86.871 138.902 85.2236 138.902 83.1914ZM135.223 83.1914L135.913 83.1914L135.913 16.9595L135.223 16.9595L134.533 16.9595L134.533 83.1914L135.223 83.1914Z" fill="#333333"/>
<defs>
<clipPath id="clip0_1099_71271">
<rect width="11.9741" height="11.9741" fill="white" transform="translate(58.9741 83.5127)"/>
</clipPath>
</defs>
</svg>
