<svg width="204" height="40" viewBox="0 0 204 40" fill="none" xmlns="http://www.w3.org/2000/svg">
<rect width="91.6667" height="40" fill="white"/>
<path d="M29.3852 15.6H33.5452V19.6133H30.3718V22.2533C31.7185 22.2533 32.9985 22.2 34.5318 21.92L34.6118 22.7467C32.9585 23.04 31.6385 23.08 30.1718 23.08H29.4118V18.8133H32.5852V16.44H29.3852V15.6ZM34.1052 19.3467V18.52H35.5852V14.6H36.5185V25.3467H35.5852V19.3467H34.1052ZM37.9318 25.9733V14.3067H38.8918V25.9733H37.9318ZM49.0605 14.2933H50.0605V25.9867H49.0605V14.2933ZM40.9672 19.2667C40.9672 16.7867 42.1938 15.2133 43.9272 15.2133C45.6472 15.2133 46.8738 16.7867 46.8738 19.2667C46.8738 21.7467 45.6472 23.3333 43.9272 23.3333C42.1938 23.3333 40.9672 21.7467 40.9672 19.2667ZM41.9405 19.2667C41.9405 21.1733 42.7538 22.44 43.9272 22.44C45.0872 22.44 45.9138 21.1733 45.9138 19.2667C45.9138 17.36 45.0872 16.1067 43.9272 16.1067C42.7538 16.1067 41.9405 17.36 41.9405 19.2667ZM53.4825 14.52H54.4691V15.64H60.2291V14.52H61.2291V18.36H53.4825V14.52ZM52.0691 20.1867V19.3733H62.6025V20.1867H52.0691ZM53.3491 22.0533V21.2933H61.2425V23.8533H54.3625V25.0533H61.6025V25.84H53.3891V23.12H60.2691V22.0533H53.3491ZM54.4691 17.5733H60.2291V16.4133H54.4691V17.5733Z" fill="#1A1A1A"/>
<path d="M138.295 15.933H142.455V19.9463H139.282V22.5863C140.629 22.5863 141.909 22.533 143.442 22.253L143.522 23.0797C141.869 23.373 140.549 23.413 139.082 23.413H138.322V19.1463H141.495V16.773H138.295V15.933ZM143.015 19.6797V18.853H144.495V14.933H145.429V25.6797H144.495V19.6797H143.015ZM146.842 26.3063V14.6397H147.802V26.3063H146.842ZM157.971 14.6263H158.971V26.3197H157.971V14.6263ZM149.877 19.5997C149.877 17.1197 151.104 15.5463 152.837 15.5463C154.557 15.5463 155.784 17.1197 155.784 19.5997C155.784 22.0797 154.557 23.6663 152.837 23.6663C151.104 23.6663 149.877 22.0797 149.877 19.5997ZM150.851 19.5997C150.851 21.5063 151.664 22.773 152.837 22.773C153.997 22.773 154.824 21.5063 154.824 19.5997C154.824 17.693 153.997 16.4397 152.837 16.4397C151.664 16.4397 150.851 17.693 150.851 19.5997ZM162.393 14.853H163.379V15.973H169.139V14.853H170.139V18.693H162.393V14.853ZM160.979 20.5197V19.7063H171.513V20.5197H160.979ZM162.259 22.3863V21.6263H170.153V24.1863H163.273V25.3863H170.513V26.173H162.299V23.453H169.179V22.3863H162.259ZM163.379 17.9063H169.139V16.7463H163.379V17.9063Z" fill="#616161"/>
</svg>
