<svg width="98" height="29" viewBox="0 0 98 29" fill="none" xmlns="http://www.w3.org/2000/svg">
<path d="M4.2538 6.76381V18.428H10.969V20.3046H2.34044V6.76381H4.2538ZM13.2003 10.6641H15.1137V20.3414H13.2003V10.6641ZM13.0531 7.20536C13.0531 6.59823 13.4395 6.11989 14.157 6.11989C14.8377 6.11989 15.224 6.59823 15.224 7.20536C15.224 7.81249 14.8377 8.29083 14.157 8.29083C13.4395 8.29083 13.0531 7.81249 13.0531 7.20536ZM24.1777 14.9692C24.1777 13.5158 23.3498 12.5959 21.8412 12.5959C20.4246 12.5959 19.3391 13.7918 19.3575 15.0796V20.3046H17.4441V10.7009H19.3575V12.2279C20.0014 11.3081 20.8477 10.7009 22.062 10.7009C23.9385 10.7009 26.0911 12.136 26.0911 14.8956V20.3046H24.1777V14.9692ZM30.0569 6.37746V15.0244L33.7917 10.7377H36.3674L32.6326 14.9692L36.3306 20.3414H34.0125L31.2712 16.3674L30.0569 17.8209V20.3414H28.1436V6.37746H30.0569ZM51.9171 6.76381V8.64039H47.9616V20.3046H46.0482V8.64039H42.0743V6.76381H51.9171ZM58.7583 14.7484C58.6111 13.479 57.8384 12.4303 56.2194 12.4303C54.7292 12.4303 53.6437 13.1846 53.423 14.7484H58.7583ZM51.5832 15.5211C51.5832 12.8903 53.2206 10.6641 56.1826 10.6641C59.2367 10.6641 60.1014 13.0926 60.1749 13.2766C60.7453 14.7668 60.5797 16.3674 60.5797 16.3674H53.423C53.7173 17.7473 54.6924 18.5936 56.201 18.5936C58.0592 18.5936 58.4823 17.5633 58.5559 17.4529L60.2301 18.2256C60.2301 18.2256 59.4022 20.3598 56.1826 20.3598C53.2206 20.3598 51.5832 18.1336 51.5832 15.5211ZM70.7795 10.7009L67.192 15.5028L70.7427 20.3046H68.3878L66.0697 17.0482L63.8068 20.3046H61.4151L64.929 15.5028L61.3599 10.7009H63.7516L66.0697 14.0309L68.4062 10.7009H70.7795ZM77.6823 20.0654C77.2959 20.1574 76.4864 20.3046 75.8425 20.2678C74.4075 20.1942 73.046 18.9615 73.046 17.3609V12.4855H71.4086V10.6089H73.046V7.35254H74.9594V10.6089H77.4431V12.4855H74.9594V17.3609C74.9594 17.9864 75.3458 18.336 75.9713 18.3544C76.3944 18.3728 76.928 18.2808 77.2591 18.2072L77.6823 20.0654Z" fill="#FF8120"/>
<path fill-rule="evenodd" clip-rule="evenodd" d="M85.4716 9.16937C85.6961 8.94485 86.0602 8.94485 86.2847 9.16937L90.8841 13.7688C91.1087 13.9933 91.1087 14.3574 90.8841 14.5819L86.2847 19.1813C86.0602 19.4058 85.6961 19.4058 85.4716 19.1813C85.2471 18.9568 85.2471 18.5928 85.4716 18.3682L89.6645 14.1753L85.4716 9.98244C85.2471 9.75792 85.2471 9.39389 85.4716 9.16937Z" fill="#FF8120"/>
</svg>
