<svg width="182" height="83" viewBox="0 0 182 83" fill="none" xmlns="http://www.w3.org/2000/svg">
<mask id="path-1-inside-1_890_34770" fill="white">
<path d="M44 43.1191C44 38.3562 47.8611 34.4951 52.6239 34.4951H173.359C178.122 34.4951 181.983 38.3562 181.983 43.1191V74.1653C181.983 78.9282 178.122 82.7892 173.359 82.7892H52.6239C47.8611 82.7892 44 78.9282 44 74.1653V43.1191Z"/>
</mask>
<path d="M44 43.1191C44 38.3562 47.8611 34.4951 52.6239 34.4951H173.359C178.122 34.4951 181.983 38.3562 181.983 43.1191V74.1653C181.983 78.9282 178.122 82.7892 173.359 82.7892H52.6239C47.8611 82.7892 44 78.9282 44 74.1653V43.1191Z" fill="white"/>
<path d="M52.6239 34.4951V35.3575H173.359V34.4951V33.6327H52.6239V34.4951ZM181.983 43.1191H181.121V74.1653H181.983H182.846V43.1191H181.983ZM173.359 82.7892V81.9268H52.6239V82.7892V83.6516H173.359V82.7892ZM44 74.1653H44.8624V43.1191H44H43.1376V74.1653H44ZM52.6239 82.7892V81.9268C48.3373 81.9268 44.8624 78.4519 44.8624 74.1653H44H43.1376C43.1376 79.4044 47.3848 83.6516 52.6239 83.6516V82.7892ZM181.983 74.1653H181.121C181.121 78.4519 177.646 81.9268 173.359 81.9268V82.7892V83.6516C178.598 83.6516 182.846 79.4044 182.846 74.1653H181.983ZM173.359 34.4951V35.3575C177.646 35.3575 181.121 38.8325 181.121 43.1191H181.983H182.846C182.846 37.8799 178.598 33.6327 173.359 33.6327V34.4951ZM52.6239 34.4951V33.6327C47.3848 33.6327 43.1376 37.8799 43.1376 43.1191H44H44.8624C44.8624 38.8325 48.3374 35.3575 52.6239 35.3575V34.4951Z" fill="#E0E0E0" mask="url(#path-1-inside-1_890_34770)"/>
<path fill-rule="evenodd" clip-rule="evenodd" d="M79.1057 52.8581C79.4425 53.1948 79.4425 53.7409 79.1057 54.0777L69.6194 63.564C69.2826 63.9008 68.7366 63.9008 68.3998 63.564L64.0878 59.252C63.751 58.9153 63.751 58.3692 64.0878 58.0324C64.4246 57.6956 64.9706 57.6956 65.3074 58.0324L69.0096 61.7346L77.8861 52.8581C78.2229 52.5213 78.7689 52.5213 79.1057 52.8581Z" fill="#999999"/>
<path d="M99.93 63.7668C96.5459 63.7668 94.4037 61.1744 94.4037 58.0387C94.4037 54.9031 96.5459 52.3107 99.93 52.3107C101.467 52.3107 102.848 52.9627 103.842 53.9872L103.019 54.7634C102.227 53.9406 101.141 53.4594 99.93 53.4594C97.2134 53.4594 95.5369 55.4929 95.5369 58.0387C95.5369 60.6 97.2134 62.6336 99.93 62.6336C101.141 62.6336 102.227 62.1368 103.019 61.3141L103.842 62.0903C102.848 63.1148 101.467 63.7668 99.93 63.7668ZM111.215 59.203C111.215 57.7283 110.377 56.8745 109.197 56.8745C107.97 56.8745 106.899 58.0232 106.899 59.5134V63.6426H105.782V52.1244H106.899V57.2315C107.287 56.4243 108.172 55.7879 109.243 55.7879C110.842 55.7879 112.332 57.1539 112.332 59.1409V63.6426H111.215V59.203ZM114.444 55.7413H115.562V63.6426H114.444V55.7413ZM114.289 52.8695C114.289 52.4815 114.537 52.171 115.003 52.171C115.453 52.171 115.701 52.4815 115.701 52.8695C115.701 53.2731 115.453 53.5836 115.003 53.5836C114.537 53.5836 114.289 53.2731 114.289 52.8695ZM121.484 62.6801C123.191 62.6801 124.154 61.4073 124.154 59.7463C124.154 58.1164 123.191 56.8435 121.484 56.8435C120.055 56.8435 118.829 58.1164 118.829 59.7463C118.829 61.4073 120.055 62.6801 121.484 62.6801ZM117.696 67.2129V55.7413H118.814V57.4178C119.326 56.3001 120.537 55.7568 121.499 55.7568C123.921 55.7568 125.271 57.6041 125.271 59.7463C125.271 61.9195 123.921 63.7668 121.499 63.7668C120.506 63.7668 119.326 63.0993 118.814 62.0903V67.2129H117.696ZM127.495 61.5004C127.806 62.2145 128.535 62.6336 129.482 62.587C130.848 62.556 131.392 60.8639 129.995 60.4138C129.482 60.2585 128.551 60.0102 127.79 59.5134C126.61 58.7218 126.626 57.5575 126.983 56.8435C127.464 55.8965 128.691 55.6171 129.405 55.6792C130.072 55.7568 131.004 55.9897 131.593 56.7814L130.693 57.4333C130.367 56.9832 129.839 56.8435 129.311 56.7814C128.83 56.7348 128.194 56.9055 127.961 57.3402C127.759 57.7593 127.775 58.1784 128.411 58.5976C129.017 59.0012 129.793 59.1874 130.336 59.3737C132.944 60.212 132.106 63.6271 129.513 63.6891C128.209 63.7512 126.968 63.0682 126.486 61.935L127.495 61.5004Z" fill="#1A1A1A"/>
<path fill-rule="evenodd" clip-rule="evenodd" d="M151.342 53.0107C151.594 52.7581 152.004 52.7581 152.256 53.0107L157.431 58.1851C157.683 58.4377 157.683 58.8472 157.431 59.0998L152.256 64.2742C152.004 64.5268 151.594 64.5268 151.342 64.2742C151.089 64.0216 151.089 63.6121 151.342 63.3595L156.059 58.6425L151.342 53.9254C151.089 53.6728 151.089 53.2633 151.342 53.0107Z" fill="#999999"/>
<rect y="50.9785" width="16.558" height="16.558" rx="8.27899" fill="#333333"/>
<path d="M9.31142 55.2658V63.2909L8.14133 63.2799V56.5132L6.72838 57.2969L6.24268 56.3145L8.15236 55.2658H9.31142Z" fill="white"/>
<path d="M43.8757 55.5783C41.8436 55.5783 40.1962 57.2257 40.1962 59.2578C40.1962 61.29 41.8436 62.9374 43.8757 62.9374C45.9079 62.9374 47.5553 61.29 47.5553 59.2578C47.5553 57.2257 45.9079 55.5783 43.8757 55.5783ZM43.8757 58.5679L16.2791 58.5679L16.2791 59.9477L43.8757 59.9477L43.8757 58.5679Z" fill="#333333"/>
<rect x="61.5166" width="16.558" height="16.558" rx="8.27899" fill="#333333"/>
<path d="M67.0021 11.2858C68.6138 9.74041 70.8105 8.17292 70.8105 6.81516C70.8105 5.90999 70.2365 5.26975 69.4196 5.26975C68.7904 5.26975 68.1612 5.72234 67.8742 6.37362L66.8476 5.92103C67.2891 4.90547 68.3599 4.199 69.4196 4.199C70.9319 4.199 71.9806 5.28079 71.9806 6.81516C71.9806 8.50408 70.1481 10.0053 68.6579 11.2858H72.113V12.3124H67.1125L67.0021 11.2858Z" fill="white"/>
<path d="M73.4752 44.5967C73.4752 42.5645 71.8278 40.9171 69.7957 40.9171C67.7635 40.9171 66.1161 42.5645 66.1161 44.5967C66.1161 46.6288 67.7635 48.2762 69.7957 48.2762C71.8278 48.2762 73.4752 46.6288 73.4752 44.5967ZM70.4856 44.5967L70.4856 16.558L69.1057 16.558L69.1057 44.5967L70.4856 44.5967Z" fill="#333333"/>
<rect x="100.152" width="16.558" height="16.558" rx="8.27899" fill="#333333"/>
<path d="M109.744 8.16188C110.461 8.58135 110.914 9.36509 110.914 10.0384C110.914 11.4072 109.788 12.3786 108.187 12.3786C106.598 12.3786 105.472 11.3852 105.472 9.97222H106.642C106.642 10.778 107.282 11.341 108.187 11.341C109.115 11.341 109.777 10.778 109.777 9.97222C109.777 9.19951 109.126 8.64758 108.209 8.64758H107.635V7.66514H108.22C109.059 7.66514 109.655 7.1684 109.655 6.46193C109.655 5.74441 109.081 5.24767 108.265 5.24767C107.448 5.24767 106.885 5.75545 106.885 6.47296H105.715C105.715 5.13729 106.763 4.21004 108.265 4.21004C109.744 4.21004 110.792 5.11521 110.792 6.39569C110.792 7.01386 110.395 7.74241 109.744 8.16188Z" fill="white"/>
<path d="M112.11 44.5967C112.11 42.5645 110.463 40.9171 108.431 40.9171C106.399 40.9171 104.751 42.5645 104.751 44.5967C104.751 46.6288 106.399 48.2762 108.431 48.2762C110.463 48.2762 112.11 46.6288 112.11 44.5967ZM109.121 44.5967L109.121 16.558L107.741 16.558L107.741 44.5967L109.121 44.5967Z" fill="#333333"/>
<rect x="145.686" width="16.558" height="16.558" rx="8.27899" fill="#333333"/>
<path d="M155.742 4.27627V9.22159H156.757V10.2371H155.742V12.3124H154.571V10.2371H151.116L151.006 9.22159L154.627 4.27627H155.742ZM152.397 9.22159H154.571V6.23011L152.397 9.22159Z" fill="white"/>
<path d="M157.645 44.5967C157.645 42.5645 155.997 40.9171 153.965 40.9171C151.933 40.9171 150.286 42.5645 150.286 44.5967C150.286 46.6288 151.933 48.2762 153.965 48.2762C155.997 48.2762 157.645 46.6288 157.645 44.5967ZM154.655 44.5967L154.655 16.558L153.275 16.558L153.275 44.5967L154.655 44.5967Z" fill="#333333"/>
</svg>
