<svg width="731" height="116" viewBox="0 0 731 116" fill="none" xmlns="http://www.w3.org/2000/svg">
<path d="M0 28C0 23.5817 3.58172 20 8 20H312C316.418 20 320 23.5817 320 28V88C320 92.4183 316.418 96 312 96H7.99999C3.58171 96 0 92.4183 0 88V28Z" fill="white"/>
<path d="M26.86 38.046C26.86 41.574 25.642 44.822 21.274 46.992L20.7 46.18C22.982 45.046 24.354 43.618 25.096 41.966L20.924 42.372L20.756 41.434L25.432 41.112C25.642 40.412 25.768 39.684 25.81 38.914H21.372V38.046H26.86ZM28.904 49.022V36.758H29.968V41.77H31.942V42.652H29.968V49.022H28.904ZM37.7423 41.434H39.5623V37.066H40.5563V48.378H39.5623V42.302H37.7423V41.434ZM33.1083 46.054V38.256H37.6443V39.11H34.1163V41.588H37.0703V42.414H34.1163V45.2C35.8803 45.2 36.9723 45.13 38.2743 44.864L38.3723 45.718C36.9723 46.012 35.8243 46.054 33.8923 46.054H33.1083ZM42.0263 49.022V36.772H43.0343V49.022H42.0263ZM45.9087 38.018H54.4487V39.236C54.4487 40.748 54.4487 42.414 54.0147 44.878L52.9507 44.752C53.3987 42.414 53.3987 40.706 53.3987 39.236V38.886H45.9087V38.018ZM44.7327 47.272V46.39H49.0867V41.994H50.1227V46.39H55.8067V47.272H44.7327ZM65.793 36.758H66.843V49.036H65.793V36.758ZM57.505 38.788V37.934H63.147V42.26H58.583V45.186C60.613 45.186 62.419 45.102 64.603 44.752L64.715 45.606C62.475 45.984 60.627 46.054 58.541 46.054H57.533V41.392H62.097V38.788H57.505Z" fill="#616161"/>
<path d="M21.296 63.824H28.766V65.408H23.222V68.288H28.496V69.8H23.222V73.148C25.724 73.13 27.614 73.04 29.846 72.698L30.026 74.246C27.578 74.642 25.436 74.714 22.574 74.714H21.296V63.824ZM31.124 78.44V62.438H33.068V68.666H35.498V70.268H33.068V78.44H31.124ZM47.4444 62.42H49.3884V78.476H47.4444V62.42ZM36.6984 69.242C36.6984 65.786 38.4264 63.59 40.8384 63.59C43.2504 63.59 44.9784 65.786 44.9784 69.242C44.9784 72.716 43.2504 74.93 40.8384 74.93C38.4264 74.93 36.6984 72.716 36.6984 69.242ZM38.5704 69.242C38.5704 71.726 39.4884 73.166 40.8384 73.166C42.1884 73.166 43.1244 71.726 43.1244 69.242C43.1244 66.794 42.1884 65.354 40.8384 65.354C39.4884 65.354 38.5704 66.794 38.5704 69.242ZM53.6128 62.798H64.5208V64.148H55.5388V65.12H64.1428V66.416H55.5388V67.424H64.6468V68.774H53.6128V62.798ZM51.8128 71.15V69.71H66.2128V71.15H51.8128ZM53.4688 73.472V72.104H64.4308V75.812H55.4128V76.928H64.8988V78.314H53.5048V74.498H62.5408V73.472H53.4688ZM74.5953 62.69C78.1773 62.69 80.3193 63.662 80.3193 65.426C80.3193 67.208 78.1773 68.18 74.5953 68.18C70.9953 68.18 68.8713 67.208 68.8713 65.426C68.8713 63.662 70.9953 62.69 74.5953 62.69ZM67.3593 70.61V69.08H81.8133V70.61H67.3593ZM69.0513 73.166V71.708H80.0133V75.596H70.9953V76.838H80.4813V78.314H69.0873V74.246H78.1233V73.166H69.0513ZM70.8693 65.426C70.8693 66.326 72.1653 66.758 74.5953 66.758C77.0253 66.758 78.3213 66.326 78.3213 65.426C78.3213 64.562 77.0253 64.112 74.5953 64.112C72.1653 64.112 70.8693 64.562 70.8693 65.426ZM98.2081 62.438H100.134V71.024H98.2081V62.438ZM87.2281 66.866C87.2281 64.688 89.0281 63.158 91.4941 63.158C93.9421 63.158 95.7601 64.688 95.7601 66.866C95.7601 69.08 93.9421 70.61 91.4941 70.61C89.0281 70.61 87.2281 69.08 87.2281 66.866ZM89.1181 66.866C89.1181 68.18 90.1081 69.008 91.4941 69.008C92.8801 69.008 93.8701 68.18 93.8701 66.866C93.8701 65.588 92.8801 64.742 91.4941 64.742C90.1081 64.742 89.1181 65.588 89.1181 66.866ZM89.6581 78.242V71.78H91.5661V73.454H98.2261V71.78H100.134V78.242H89.6581ZM91.5661 76.694H98.2261V74.948H91.5661V76.694ZM103.117 63.374H110.101V68.198H105.079V70.196C107.653 70.178 109.111 70.106 110.803 69.8L111.001 71.348C109.093 71.69 107.473 71.744 104.323 71.744H103.153V66.74H108.193V64.922H103.117V63.374ZM104.953 74.624V73.076H115.807V78.458H113.863V74.624H104.953ZM111.073 69.638V68.09H113.863V66.29H111.073V64.724H113.863V62.456H115.807V72.302H113.863V69.638H111.073ZM118.069 64.994H121.039V62.87H122.947V64.994H125.845V66.542H118.069V64.994ZM118.519 71.15C118.519 68.954 119.959 67.406 121.993 67.406C124.009 67.406 125.467 68.954 125.467 71.15C125.467 73.364 124.009 74.894 121.993 74.894C119.959 74.894 118.519 73.364 118.519 71.15ZM120.229 71.15C120.229 72.446 120.949 73.274 121.993 73.274C123.001 73.274 123.757 72.446 123.757 71.15C123.757 69.854 123.001 69.026 121.993 69.026C120.949 69.026 120.229 69.854 120.229 71.15ZM126.511 77.702V62.762H128.329V69.044H129.913V62.438H131.749V78.44H129.913V70.61H128.329V77.702H126.511ZM133.687 71.402H148.159V72.968H141.841V78.458H139.933V72.968H133.687V71.402ZM134.461 68.774C137.575 68.36 139.681 66.65 139.825 64.886H135.019V63.338H146.809V64.886H142.039C142.183 66.65 144.289 68.36 147.403 68.774L146.683 70.304C144.019 69.908 141.913 68.648 140.941 66.92C139.951 68.648 137.845 69.908 135.181 70.304L134.461 68.774ZM155.57 67.964H157.838V62.744H159.638V77.684H157.838V69.548H155.57V67.964ZM149 73.688C151.286 72.32 152.33 69.458 152.33 66.722V63.896H154.202V66.65C154.202 69.224 155.12 71.924 157.262 73.292L156.182 74.786C154.76 73.922 153.824 72.41 153.284 70.646C152.726 72.572 151.7 74.21 150.188 75.146L149 73.688ZM161.096 78.44V62.438H162.95V78.44H161.096ZM164.852 74.912H168.2V70.808C166.94 70.07 166.184 68.954 166.184 67.532C166.184 64.958 168.668 63.302 172.088 63.302C175.526 63.302 177.992 64.958 177.992 67.532C177.992 68.936 177.236 70.07 175.994 70.808V74.912H179.342V76.478H164.852V74.912ZM168.074 67.532C168.074 69.206 169.712 70.232 172.088 70.232C174.446 70.232 176.102 69.206 176.102 67.532C176.102 65.858 174.446 64.832 172.088 64.832C169.712 64.832 168.074 65.858 168.074 67.532ZM170.126 74.912H174.05V71.528C173.438 71.654 172.79 71.726 172.088 71.726C171.386 71.726 170.738 71.654 170.126 71.528V74.912Z" fill="#1A1A1A"/>
<path fill-rule="evenodd" clip-rule="evenodd" d="M284.47 63.9697C284.763 63.6768 285.237 63.6768 285.53 63.9697L291.53 69.9697C291.823 70.2626 291.823 70.7374 291.53 71.0303L285.53 77.0303C285.237 77.3232 284.763 77.3232 284.47 77.0303C284.177 76.7374 284.177 76.2626 284.47 75.9697L289.939 70.5L284.47 65.0303C284.177 64.7374 284.177 64.2626 284.47 63.9697Z" fill="#BDBDBD"/>
<rect x="383" width="348" height="116" rx="8" fill="white"/>
<path d="M403 36C403 22.7452 413.745 12 427 12C440.255 12 451 22.7452 451 36C451 49.2548 440.255 60 427 60C413.745 60 403 49.2548 403 36Z" fill="#FFF5E6"/>
<path d="M419.86 23.9014C424.069 23.9014 426.019 26.8453 426.987 28.6013C427.955 26.8453 429.905 23.9014 434.114 23.9014C438.324 23.9014 441.5 26.6774 441.5 31.1966C441.5 35.7157 439.047 39.5763 436.142 42.5202C433.404 45.2963 429.298 48.0982 427 48.0982C424.702 48.0982 420.596 45.2963 417.858 42.5202C414.94 39.5763 412.5 35.5866 412.5 31.1966C412.5 26.8065 415.65 23.9014 419.86 23.9014Z" fill="#FF8120"/>
<path d="M421.43 36.6393H420.835C420.524 36.6393 420.268 36.3911 420.268 36.0906V35.8162C420.268 35.5158 420.524 35.2675 420.835 35.2675C421.2 35.2675 421.471 34.9409 421.39 34.6013L420.619 31.4658C420.538 31.1262 420.808 30.7996 421.173 30.7996H422.052C422.323 30.7996 422.552 30.9825 422.607 31.2307L423.377 34.8364C423.431 35.0846 423.661 35.2675 423.931 35.2675H424.432C424.702 35.2675 424.918 35.0846 424.986 34.8364L425.838 31.2046C425.892 30.9563 426.122 30.7734 426.392 30.7734H427.393C427.649 30.7734 427.879 30.9433 427.947 31.1915L428.812 34.8233C428.866 35.0716 429.096 35.2414 429.366 35.2414H429.88C430.151 35.2414 430.38 35.0585 430.435 34.8103L431.205 31.2046C431.259 30.9563 431.489 30.7734 431.759 30.7734H432.598C432.963 30.7734 433.233 31.1 433.152 31.4397L432.381 34.5751C432.3 34.9148 432.571 35.2414 432.936 35.2414C433.247 35.2414 433.504 35.4896 433.504 35.7901V36.0645C433.504 36.3649 433.247 36.6131 432.936 36.6131H432.341C432.084 36.6131 431.854 36.783 431.786 37.0312L430.894 40.65C430.84 40.8982 430.61 41.0681 430.34 41.0681H429.096C428.826 41.0681 428.609 40.8852 428.542 40.6369L427.703 37.0312C427.649 36.783 427.42 36.6001 427.149 36.6001H426.608C426.338 36.6001 426.122 36.783 426.054 37.0312L425.216 40.6369C425.162 40.8852 424.932 41.0681 424.662 41.0681H423.418C423.161 41.0681 422.931 40.8982 422.863 40.65L421.971 37.0312C421.917 36.783 421.687 36.6131 421.417 36.6131L421.43 36.6393ZM424.094 38.2462H424.188L424.567 36.6393H423.756L424.107 38.2462H424.094ZM427.271 35.2806L426.919 33.7913H426.825L426.473 35.2806H427.257H427.271ZM429.61 38.2462H429.704L430.056 36.6393H429.245L429.623 38.2462H429.61Z" fill="white"/>
<path d="M464.36 19.24H472.76V21.26H466.84V24.24H472.48V26.18H466.84V29.58C469.4 29.56 471.5 29.5 473.86 29.12L474.08 31.08C471.38 31.52 468.94 31.6 465.84 31.6H464.36V19.24ZM475.16 35.68V17.76H477.64V24.6H480.28V26.64H477.64V35.68H475.16ZM493.29 17.72H495.79V35.7H493.29V17.72ZM481.45 25.38C481.45 21.46 483.45 19 486.17 19C488.87 19 490.85 21.46 490.85 25.38C490.85 29.32 488.87 31.78 486.17 31.78C483.45 31.78 481.45 29.32 481.45 25.38ZM483.85 25.38C483.85 28.06 484.79 29.54 486.17 29.54C487.53 29.54 488.47 28.06 488.47 25.38C488.47 22.7 487.53 21.24 486.17 21.24C484.79 21.24 483.85 22.7 483.85 25.38ZM500.301 18.14H512.601V19.82H502.761V20.72H512.201V22.32H502.761V23.26H512.741V24.94H500.301V18.14ZM498.321 27.62V25.8H514.461V27.62H498.321ZM500.141 30.24V28.52H512.501V32.8H502.601V33.82H512.981V35.54H500.181V31.16H510.061V30.24H500.141ZM532.431 17.76H534.931V27.38H532.431V17.76ZM520.331 22.72C520.331 20.24 522.411 18.5 525.191 18.5C527.971 18.5 530.051 20.24 530.051 22.72C530.051 25.18 527.971 26.94 525.191 26.94C522.411 26.94 520.331 25.18 520.331 22.72ZM522.751 22.72C522.751 24.08 523.791 24.88 525.191 24.88C526.591 24.88 527.631 24.08 527.631 22.72C527.631 21.36 526.591 20.54 525.191 20.54C523.791 20.54 522.751 21.36 522.751 22.72ZM523.051 35.48V28.18H525.511V29.88H532.471V28.18H534.931V35.48H523.051ZM525.511 33.5H532.471V31.8H525.511V33.5ZM538.041 18.78H545.921V24.36H540.541V26.32C543.201 26.3 544.761 26.22 546.581 25.9L546.841 27.86C544.721 28.24 542.881 28.3 539.441 28.3H538.081V22.52H543.461V20.76H538.041V18.78ZM540.121 31.6V29.64H552.381V35.7H549.881V31.6H540.121ZM546.941 26.02V24.06H549.881V22.24H546.941V20.24H549.881V17.76H552.381V28.8H549.881V26.02H546.941Z" fill="#1A1A1A"/>
<path d="M471.784 60.604H475.294V55.564H476.644V67.264H475.294V61.72H471.784V60.604ZM464.062 60.118L469.984 59.848C470.2 59.254 470.344 58.606 470.398 57.94H464.836V56.842H471.802C471.802 60.892 469.714 63.934 464.692 65.626L464.134 64.546C466.834 63.664 468.562 62.404 469.498 60.838L464.278 61.234L464.062 60.118ZM466.798 70.954V66.094H468.166V69.838H477.112V70.954H466.798ZM486.106 60.046H488.23V55.888H489.508V66.958H488.23V61.144H486.106V60.046ZM480.04 64.708V56.878H485.98V57.994H481.336V60.19H485.368V61.27H481.336V63.61C483.64 63.61 485.044 63.52 486.718 63.196L486.844 64.276C485.044 64.654 483.568 64.708 481.03 64.708H480.04ZM482.38 70.954V66.076H483.73V69.838H493.036V70.954H482.38ZM491.272 67.372V55.564H492.568V67.372H491.272ZM494.885 68.128H509.159V69.262H494.885V68.128ZM495.767 64.348C498.701 63.808 501.347 61.864 501.347 59.236V59.2H496.235V58.102H501.347V55.924H502.679V58.102H507.791V59.2H502.697V59.236C502.697 61.864 505.325 63.808 508.241 64.348L507.719 65.446C505.271 64.942 503.003 63.592 502.013 61.522C501.041 63.592 498.755 64.942 496.307 65.446L495.767 64.348ZM526.49 55.564H527.786V71.314H526.49V63.142H524.186V70.486H522.926V55.924H524.186V62.008H526.49V55.564ZM515.258 67.21V57.49H516.59V66.022C518.138 66.004 519.83 65.896 521.756 65.518L521.918 66.706C519.758 67.12 517.958 67.21 516.248 67.21H515.258ZM530.048 63.394H533.594V61.144C532.334 60.64 531.632 59.848 531.632 58.786C531.632 56.932 533.756 55.87 537.158 55.87C540.56 55.87 542.684 56.932 542.684 58.786C542.684 59.848 541.982 60.64 540.74 61.126V63.394H544.268V64.474H530.048V63.394ZM531.776 68.488C531.776 66.724 533.792 65.716 537.158 65.716C540.524 65.716 542.54 66.724 542.54 68.488C542.54 70.288 540.524 71.296 537.158 71.296C533.792 71.296 531.776 70.288 531.776 68.488ZM533.018 58.786C533.018 59.938 534.62 60.64 537.158 60.64C539.696 60.64 541.298 59.938 541.298 58.786C541.298 57.616 539.696 56.914 537.158 56.914C534.62 56.914 533.018 57.616 533.018 58.786ZM533.126 68.488C533.126 69.604 534.638 70.234 537.158 70.234C539.66 70.234 541.172 69.604 541.172 68.488C541.172 67.408 539.66 66.76 537.158 66.76C534.638 66.76 533.126 67.408 533.126 68.488ZM534.926 63.394H539.408V61.504C538.742 61.612 537.986 61.684 537.158 61.684C536.33 61.684 535.592 61.63 534.926 61.504V63.394ZM557.133 55.546H558.483V71.332H557.133V55.546ZM546.207 62.26C546.207 58.912 547.863 56.788 550.203 56.788C552.525 56.788 554.181 58.912 554.181 62.26C554.181 65.608 552.525 67.75 550.203 67.75C547.863 67.75 546.207 65.608 546.207 62.26ZM547.521 62.26C547.521 64.834 548.619 66.544 550.203 66.544C551.769 66.544 552.885 64.834 552.885 62.26C552.885 59.686 551.769 57.994 550.203 57.994C548.619 57.994 547.521 59.686 547.521 62.26ZM565.229 62.206H579.449V63.304H565.229V62.206ZM566.939 65.788V64.726H577.595V68.362H568.307V70.036H578.081V71.134H566.993V67.354H576.281V65.788H566.939ZM567.137 60.874V56.104H577.577V57.22H568.469V59.794H577.757V60.874H567.137ZM584.97 56.788C587.112 56.788 588.66 58.642 588.858 61.612H592.386V55.546H593.718V71.332H592.386V62.692H588.858C588.732 65.788 587.148 67.75 584.97 67.75C582.684 67.75 581.064 65.608 581.064 62.26C581.064 58.912 582.684 56.788 584.97 56.788ZM582.342 62.26C582.342 64.834 583.422 66.544 584.97 66.544C586.536 66.544 587.598 64.834 587.598 62.26C587.598 59.686 586.536 57.994 584.97 57.994C583.422 57.994 582.342 59.686 582.342 62.26ZM607.104 55.546H608.472V61.99H611.01V63.124H608.472V71.314H607.104V55.546ZM596.502 67.246C600.552 65.212 602.748 62.116 603.054 58.372H597.222V57.256H604.422C604.422 61.702 602.334 65.752 597.258 68.29L596.502 67.246ZM613.903 56.14H615.235V60.352H624.577V61.45H613.903V56.14ZM611.959 64.726V63.61H626.233V64.726H611.959ZM613.813 70.936V66.328H615.145V69.82H624.667V70.936H613.813ZM633.25 56.338H643.942V57.436C643.942 58.624 643.942 60.01 643.528 61.882L642.214 61.72C642.61 59.902 642.61 58.588 642.61 57.436H633.25V56.338ZM631.558 64.078V62.998H637.462V59.794H638.794V62.998H645.76V64.078H631.558ZM632.584 70.198C635.392 69.784 637.93 68.218 637.93 66.094V65.356H639.28V66.094C639.28 68.218 641.8 69.784 644.608 70.198L644.104 71.26C641.728 70.846 639.532 69.73 638.596 68.002C637.66 69.73 635.464 70.846 633.106 71.26L632.584 70.198ZM658.642 55.564H659.992V64.006H658.642V55.564ZM647.482 59.938C647.482 57.796 649.192 56.338 651.568 56.338C653.944 56.338 655.654 57.796 655.654 59.938C655.654 62.08 653.944 63.556 651.568 63.556C649.192 63.556 647.482 62.08 647.482 59.938ZM648.796 59.938C648.796 61.396 649.966 62.422 651.568 62.422C653.17 62.422 654.34 61.396 654.34 59.938C654.34 58.48 653.17 57.454 651.568 57.454C649.966 57.454 648.796 58.48 648.796 59.938ZM649.894 71.098V64.816H651.226V66.76H658.66V64.816H659.992V71.098H649.894ZM651.226 70H658.66V67.84H651.226V70ZM674.224 55.564H675.556V71.314H674.224V55.564ZM663.712 67.228V57.112H665.062V66.058C667.438 66.058 669.904 65.878 672.55 65.32L672.73 66.472C669.976 67.03 667.492 67.228 665.008 67.228H663.712ZM689.033 55.546H690.383V61.81H692.993V62.944H690.383V71.332H689.033V55.546ZM678.989 67.39V57.112H686.297V58.21H680.321V66.238C683.219 66.238 685.217 66.148 687.521 65.698L687.683 66.85C685.253 67.3 683.201 67.39 680.213 67.39H678.989ZM695.183 68.434C695.759 68.434 696.065 68.83 696.065 69.316C696.065 69.838 695.759 70.234 695.183 70.234C694.589 70.234 694.265 69.838 694.265 69.316C694.265 68.83 694.589 68.434 695.183 68.434ZM471.784 87.604H475.294V82.564H476.644V94.264H475.294V88.72H471.784V87.604ZM464.062 87.118L469.984 86.848C470.2 86.254 470.344 85.606 470.398 84.94H464.836V83.842H471.802C471.802 87.892 469.714 90.934 464.692 92.626L464.134 91.546C466.834 90.664 468.562 89.404 469.498 87.838L464.278 88.234L464.062 87.118ZM466.798 97.954V93.094H468.166V96.838H477.112V97.954H466.798ZM486.106 87.046H488.23V82.888H489.508V93.958H488.23V88.144H486.106V87.046ZM480.04 91.708V83.878H485.98V84.994H481.336V87.19H485.368V88.27H481.336V90.61C483.64 90.61 485.044 90.52 486.718 90.196L486.844 91.276C485.044 91.654 483.568 91.708 481.03 91.708H480.04ZM482.38 97.954V93.076H483.73V96.838H493.036V97.954H482.38ZM491.272 94.372V82.564H492.568V94.372H491.272ZM494.885 95.128H509.159V96.262H494.885V95.128ZM495.767 91.348C498.701 90.808 501.347 88.864 501.347 86.236V86.2H496.235V85.102H501.347V82.924H502.679V85.102H507.791V86.2H502.697V86.236C502.697 88.864 505.325 90.808 508.241 91.348L507.719 92.446C505.271 91.942 503.003 90.592 502.013 88.522C501.041 90.592 498.755 91.942 496.307 92.446L495.767 91.348ZM526.49 82.564H527.786V98.314H526.49V90.142H524.186V97.486H522.926V82.924H524.186V89.008H526.49V82.564ZM515.258 94.21V84.49H516.59V93.022C518.138 93.004 519.83 92.896 521.756 92.518L521.918 93.706C519.758 94.12 517.958 94.21 516.248 94.21H515.258ZM530.048 90.394H533.594V88.144C532.334 87.64 531.632 86.848 531.632 85.786C531.632 83.932 533.756 82.87 537.158 82.87C540.56 82.87 542.684 83.932 542.684 85.786C542.684 86.848 541.982 87.64 540.74 88.126V90.394H544.268V91.474H530.048V90.394ZM531.776 95.488C531.776 93.724 533.792 92.716 537.158 92.716C540.524 92.716 542.54 93.724 542.54 95.488C542.54 97.288 540.524 98.296 537.158 98.296C533.792 98.296 531.776 97.288 531.776 95.488ZM533.018 85.786C533.018 86.938 534.62 87.64 537.158 87.64C539.696 87.64 541.298 86.938 541.298 85.786C541.298 84.616 539.696 83.914 537.158 83.914C534.62 83.914 533.018 84.616 533.018 85.786ZM533.126 95.488C533.126 96.604 534.638 97.234 537.158 97.234C539.66 97.234 541.172 96.604 541.172 95.488C541.172 94.408 539.66 93.76 537.158 93.76C534.638 93.76 533.126 94.408 533.126 95.488ZM534.926 90.394H539.408V88.504C538.742 88.612 537.986 88.684 537.158 88.684C536.33 88.684 535.592 88.63 534.926 88.504V90.394ZM557.133 82.546H558.483V98.332H557.133V82.546ZM546.207 89.26C546.207 85.912 547.863 83.788 550.203 83.788C552.525 83.788 554.181 85.912 554.181 89.26C554.181 92.608 552.525 94.75 550.203 94.75C547.863 94.75 546.207 92.608 546.207 89.26ZM547.521 89.26C547.521 91.834 548.619 93.544 550.203 93.544C551.769 93.544 552.885 91.834 552.885 89.26C552.885 86.686 551.769 84.994 550.203 84.994C548.619 84.994 547.521 86.686 547.521 89.26ZM565.229 89.206H579.449V90.304H565.229V89.206ZM566.939 92.788V91.726H577.595V95.362H568.307V97.036H578.081V98.134H566.993V94.354H576.281V92.788H566.939ZM567.137 87.874V83.104H577.577V84.22H568.469V86.794H577.757V87.874H567.137ZM584.97 83.788C587.112 83.788 588.66 85.642 588.858 88.612H592.386V82.546H593.718V98.332H592.386V89.692H588.858C588.732 92.788 587.148 94.75 584.97 94.75C582.684 94.75 581.064 92.608 581.064 89.26C581.064 85.912 582.684 83.788 584.97 83.788ZM582.342 89.26C582.342 91.834 583.422 93.544 584.97 93.544C586.536 93.544 587.598 91.834 587.598 89.26C587.598 86.686 586.536 84.994 584.97 84.994C583.422 84.994 582.342 86.686 582.342 89.26ZM607.104 82.546H608.472V88.99H611.01V90.124H608.472V98.314H607.104V82.546ZM596.502 94.246C600.552 92.212 602.748 89.116 603.054 85.372H597.222V84.256H604.422C604.422 88.702 602.334 92.752 597.258 95.29L596.502 94.246ZM613.903 83.14H615.235V87.352H624.577V88.45H613.903V83.14ZM611.959 91.726V90.61H626.233V91.726H611.959ZM613.813 97.936V93.328H615.145V96.82H624.667V97.936H613.813ZM633.25 83.338H643.942V84.436C643.942 85.624 643.942 87.01 643.528 88.882L642.214 88.72C642.61 86.902 642.61 85.588 642.61 84.436H633.25V83.338ZM631.558 91.078V89.998H637.462V86.794H638.794V89.998H645.76V91.078H631.558ZM632.584 97.198C635.392 96.784 637.93 95.218 637.93 93.094V92.356H639.28V93.094C639.28 95.218 641.8 96.784 644.608 97.198L644.104 98.26C641.728 97.846 639.532 96.73 638.596 95.002C637.66 96.73 635.464 97.846 633.106 98.26L632.584 97.198ZM658.642 82.564H659.992V91.006H658.642V82.564ZM647.482 86.938C647.482 84.796 649.192 83.338 651.568 83.338C653.944 83.338 655.654 84.796 655.654 86.938C655.654 89.08 653.944 90.556 651.568 90.556C649.192 90.556 647.482 89.08 647.482 86.938ZM648.796 86.938C648.796 88.396 649.966 89.422 651.568 89.422C653.17 89.422 654.34 88.396 654.34 86.938C654.34 85.48 653.17 84.454 651.568 84.454C649.966 84.454 648.796 85.48 648.796 86.938ZM649.894 98.098V91.816H651.226V93.76H658.66V91.816H659.992V98.098H649.894ZM651.226 97H658.66V94.84H651.226V97ZM674.224 82.564H675.556V98.314H674.224V82.564ZM663.712 94.228V84.112H665.062V93.058C667.438 93.058 669.904 92.878 672.55 92.32L672.73 93.472C669.976 94.03 667.492 94.228 665.008 94.228H663.712ZM689.033 82.546H690.383V88.81H692.993V89.944H690.383V98.332H689.033V82.546ZM678.989 94.39V84.112H686.297V85.21H680.321V93.238C683.219 93.238 685.217 93.148 687.521 92.698L687.683 93.85C685.253 94.3 683.201 94.39 680.213 94.39H678.989ZM695.183 95.434C695.759 95.434 696.065 95.83 696.065 96.316C696.065 96.838 695.759 97.234 695.183 97.234C694.589 97.234 694.265 96.838 694.265 96.316C694.265 95.83 694.589 95.434 695.183 95.434Z" fill="#616161"/>
</svg>
