<svg width="448" height="310" viewBox="0 0 448 310" fill="none" xmlns="http://www.w3.org/2000/svg">
<path d="M1.15906 16.9292H2.15254V26.8916H1.15906V16.9292ZM6.92999 25.9671C7.6475 25.9671 8.30982 25.6911 8.77897 25.222L9.52407 25.8843C8.86175 26.5466 7.97866 26.9606 6.98518 26.9606C4.72226 26.9606 3.41142 25.291 3.41142 23.2626C3.41142 21.2481 4.72226 19.5785 6.98518 19.5785C7.97866 19.5785 8.86175 19.9924 9.52407 20.6548L8.77897 21.3171C8.30982 20.8479 7.6475 20.572 6.92999 20.572C5.30179 20.572 4.4049 21.7724 4.4049 23.2626C4.4049 24.7667 5.30179 25.9671 6.92999 25.9671ZM13.3655 25.9809C14.9109 25.9809 15.725 24.8495 15.725 23.3868C15.725 21.9242 14.9109 20.7927 13.3655 20.7927C11.8063 20.7927 11.0198 21.9242 11.0198 23.3868C11.0198 24.8495 11.8063 25.9809 13.3655 25.9809ZM10.0263 23.3868C10.0263 21.4689 11.213 19.8269 13.3655 19.8269C15.5318 19.8269 16.7185 21.4689 16.7185 23.3868C16.7185 25.3048 15.5318 26.9468 13.3655 26.9468C11.213 26.9468 10.0263 25.3048 10.0263 23.3868ZM22.7248 22.7521C22.7248 21.6206 22.0624 20.8341 20.9034 20.8341C19.7029 20.8341 18.8198 21.9518 18.8198 22.8901V26.8916H17.8263V19.8683H18.8198V21.0687C19.289 20.3788 19.9789 19.8683 20.9448 19.8683C22.5868 19.8683 23.7182 21.1101 23.7182 22.6555V26.8916H22.7248V22.7521ZM29.7004 17.7847V21.3171H33.2328V22.283H29.7004V25.8015H28.7484V22.283H25.216V21.3171H28.7484V17.7847H29.7004ZM41.9618 16.9292V17.8951H38.8433V26.8916H37.8499V17.8951H34.7452V16.9292H41.9618ZM43.271 19.8683H44.2645V26.8916H43.271V19.8683ZM43.133 17.3156C43.133 16.9706 43.3538 16.6946 43.7677 16.6946C44.1679 16.6946 44.3887 16.9706 44.3887 17.3156C44.3887 17.6743 44.1679 17.9503 43.7677 17.9503C43.3538 17.9503 43.133 17.6743 43.133 17.3156ZM49.4502 26.7398C49.2018 26.795 48.8292 26.864 48.4291 26.864C47.3804 26.864 46.5387 26.0223 46.5387 24.9874V20.7789H45.3935V19.8131H46.5387V17.6467H47.5322V19.8131H49.1742V20.7789H47.5322V24.9874C47.5322 25.5394 47.8633 25.8705 48.4291 25.8705C48.7464 25.8705 49.0086 25.8291 49.2294 25.7739L49.4502 26.7398ZM50.6082 16.6532H51.6017V26.8916H50.6082V16.6532ZM58.0409 22.8901C57.9305 21.8966 57.4476 20.8341 55.9574 20.8341C54.6465 20.8341 53.8048 21.5379 53.6254 22.9039L58.0409 22.8901ZM52.6044 23.3868C52.6044 21.4551 53.7634 19.8407 55.916 19.8407C58.1513 19.8407 58.717 21.5792 58.786 21.7448C59.2 22.8763 59.0344 23.8698 59.0344 23.8698H53.6254C53.8048 25.1668 54.6465 25.9395 55.9298 25.9395C57.5166 25.9395 57.9029 25.0702 57.9995 24.9322L58.855 25.3876C58.855 25.3876 58.2755 26.933 55.916 26.933C53.7634 26.933 52.6044 25.3048 52.6044 23.3868ZM64.9428 17.7847V21.3171H68.4751V22.283H64.9428V25.8015H63.9907V22.283H60.4583V21.3171H63.9907V17.7847H64.9428ZM70.2773 16.9292H71.2708V26.8916H70.2773V16.9292ZM76.0483 25.9671C76.7658 25.9671 77.4281 25.6911 77.8972 25.222L78.6423 25.8843C77.98 26.5466 77.0969 26.9606 76.1034 26.9606C73.8405 26.9606 72.5297 25.291 72.5297 23.2626C72.5297 21.2481 73.8405 19.5785 76.1034 19.5785C77.0969 19.5785 77.98 19.9924 78.6423 20.6548L77.8972 21.3171C77.4281 20.8479 76.7658 20.572 76.0483 20.572C74.4201 20.572 73.5232 21.7724 73.5232 23.2626C73.5232 24.7667 74.4201 25.9671 76.0483 25.9671ZM82.4838 25.9809C84.0292 25.9809 84.8433 24.8495 84.8433 23.3868C84.8433 21.9242 84.0292 20.7927 82.4838 20.7927C80.9246 20.7927 80.1381 21.9242 80.1381 23.3868C80.1381 24.8495 80.9246 25.9809 82.4838 25.9809ZM79.1446 23.3868C79.1446 21.4689 80.3312 19.8269 82.4838 19.8269C84.6501 19.8269 85.8368 21.4689 85.8368 23.3868C85.8368 25.3048 84.6501 26.9468 82.4838 26.9468C80.3312 26.9468 79.1446 25.3048 79.1446 23.3868ZM91.843 22.7521C91.843 21.6206 91.1807 20.8341 90.0216 20.8341C88.8212 20.8341 87.9381 21.9518 87.9381 22.8901V26.8916H86.9446V19.8683H87.9381V21.0687C88.4072 20.3788 89.0972 19.8683 90.063 19.8683C91.705 19.8683 92.8365 21.1101 92.8365 22.6555V26.8916H91.843V22.7521Z" fill="#616161"/>
<rect width="298.044" height="44.1546" transform="translate(149.021 0.314453)" fill="white"/>
<path fill-rule="evenodd" clip-rule="evenodd" d="M170.868 17.104C171.176 17.4119 171.176 17.9111 170.868 18.2191L166.695 22.3924L170.868 26.5657C171.176 26.8736 171.176 27.3728 170.868 27.6808C170.56 27.9887 170.061 27.9887 169.753 27.6808L165.022 22.9499C164.714 22.642 164.714 22.1428 165.022 21.8348L169.753 17.104C170.061 16.7961 170.56 16.7961 170.868 17.104Z" fill="#555555"/>
<path d="M199.342 16.8335V18.6943H196.046V28.566H194.154V18.6943H190.827V16.8335H199.342ZM205.188 23.6933C205.03 22.6367 204.336 21.8798 203.091 21.8798C201.94 21.8798 201.009 22.479 200.82 23.709L205.188 23.6933ZM199.054 24.4029C199.054 22.1163 200.505 20.1924 203.075 20.1924C205.724 20.1924 206.513 22.3371 206.56 22.4475C207.065 23.7248 206.954 25.2229 206.954 25.2229H200.82C201.104 26.2479 201.876 26.8945 203.091 26.8945C204.573 26.8945 204.904 26.0745 204.952 26.0114L206.607 26.7525C206.607 26.7525 205.85 28.5976 203.075 28.5976C200.505 28.5976 199.054 26.6737 199.054 24.4029ZM216.102 20.2397L213.011 24.4029L216.054 28.5503H213.72L211.86 25.8537L210.015 28.5503H207.681L210.677 24.4029L207.602 20.2397H209.952L211.86 23.0152L213.736 20.2397H216.102ZM222.354 28.3453C221.992 28.4241 221.187 28.566 220.572 28.5187C219.342 28.4241 218.081 27.336 218.081 25.8537V22.0059H216.614V20.1451H218.081V17.1962H219.973V20.1451H222.197V22.0059H219.973V25.8537C219.973 26.3583 220.273 26.6106 220.746 26.6422C221.093 26.6579 221.645 26.5633 221.944 26.5002L222.354 28.3453Z" fill="#333333"/>
<path d="M390.295 12.9297C395.52 12.9299 399.756 17.1664 399.756 22.3916C399.756 27.6169 395.52 31.8524 390.295 31.8525C385.07 31.8525 380.833 27.617 380.833 22.3916C380.833 17.1663 385.07 12.9298 390.295 12.9297ZM390.295 14.1123C385.723 14.1124 382.016 17.8195 382.016 22.3916L382.026 22.8174C382.241 27.0504 385.635 30.4443 389.868 30.6592L390.295 30.6699C394.724 30.6698 398.341 27.1916 398.562 22.8174L398.573 22.3916C398.573 17.9624 395.095 14.3448 390.721 14.123L390.295 14.1123ZM390.412 23.2119C390.478 23.2255 390.538 23.2516 390.592 23.2842C390.599 23.2886 390.607 23.2922 390.614 23.2969C390.634 23.3099 390.651 23.3257 390.669 23.3408C390.679 23.3492 390.69 23.3562 390.699 23.3652L390.708 23.374C390.717 23.3829 390.723 23.3939 390.731 23.4033C390.747 23.421 390.762 23.4385 390.775 23.458C390.781 23.4667 390.786 23.4764 390.791 23.4854C390.823 23.5387 390.848 23.5971 390.861 23.6611C390.923 23.9585 391.056 24.1453 391.226 24.2773C391.407 24.4186 391.659 24.52 391.977 24.5791C392.624 24.6996 393.374 24.6215 393.934 24.5645C394.251 24.5324 394.534 24.7641 394.566 25.0811C394.598 25.398 394.368 25.6813 394.051 25.7139C393.526 25.7673 392.605 25.8704 391.765 25.7139C391.338 25.6343 390.891 25.4813 390.516 25.1885C390.437 25.1273 390.364 25.0598 390.295 24.9883C390.226 25.0596 390.153 25.1275 390.075 25.1885C389.7 25.4813 389.253 25.6343 388.826 25.7139C387.986 25.8705 387.065 25.7674 386.54 25.7139C386.223 25.6815 385.992 25.3982 386.024 25.0811C386.057 24.764 386.34 24.5321 386.657 24.5645C387.217 24.6215 387.967 24.6997 388.614 24.5791C388.931 24.5199 389.184 24.4186 389.365 24.2773C389.534 24.1453 389.668 23.9583 389.729 23.6611C389.73 23.6569 389.732 23.6527 389.733 23.6484C389.75 23.5788 389.777 23.5125 389.816 23.4541C389.823 23.4442 389.832 23.4352 389.839 23.4258C389.855 23.4054 389.871 23.3854 389.89 23.3672C389.895 23.3616 389.902 23.3569 389.908 23.3516C389.93 23.3322 389.951 23.313 389.976 23.2969C389.982 23.2928 389.989 23.29 389.995 23.2861C390.02 23.2707 390.046 23.2557 390.074 23.2441C390.079 23.2422 390.084 23.2411 390.089 23.2393C390.118 23.2283 390.148 23.2183 390.179 23.2119C390.218 23.2039 390.257 23.2002 390.295 23.2002C390.333 23.2002 390.373 23.2039 390.412 23.2119ZM387.522 20.5439C388.033 20.5441 388.447 20.9576 388.447 21.4678C388.447 21.9779 388.033 22.3924 387.522 22.3926C387.012 22.3924 386.599 21.9779 386.599 21.4678C386.599 20.9576 387.012 20.5441 387.522 20.5439ZM393.067 20.5439C393.578 20.5441 393.992 20.9576 393.992 21.4678C393.992 21.9779 393.578 22.3924 393.067 22.3926C392.557 22.3924 392.144 21.9779 392.144 21.4678C392.144 20.9576 392.557 20.5441 393.067 20.5439Z" fill="#555555"/>
<path d="M436.511 18.9881H436.419C436.419 18.8961 428.968 13.2848 428.968 13.2848C428.508 12.9168 427.773 12.9168 427.313 13.2848L428.14 14.3886L435.592 19.9999V28.9229C435.592 29.2908 435.408 29.6588 435.132 29.9347C434.856 30.2107 434.488 30.3947 434.12 30.3947H433.936H432.004V24.4154C432.004 23.6795 431.452 23.1276 430.808 23.0356H430.624H425.657C424.921 23.0356 424.369 23.5875 424.277 24.2314V24.4154V30.3947H422.161C421.793 30.3947 421.425 30.2107 421.149 29.9347C420.873 29.6588 420.689 29.2908 420.689 28.9229V28.7389V19.9999L428.14 14.3886L427.313 13.2848L419.862 18.8961C419.494 19.172 419.31 19.54 419.31 19.9999V28.7389C419.31 29.5668 419.678 30.3027 420.229 30.8546C420.781 31.4065 421.609 31.6825 422.345 31.6825H433.936C434.764 31.6825 435.5 31.4065 436.052 30.8546C436.603 30.3027 436.971 29.5668 436.971 28.7389V19.9999C436.971 19.632 436.787 19.264 436.511 18.9881ZM430.624 30.3947H425.657V24.4154H430.624V30.3947Z" fill="#333333"/>
<path d="M8.08582 83.1616V84.1275H4.96739V93.124H3.97392V84.1275H0.869294V83.1616H8.08582ZM9.39504 86.1007H10.3885V93.124H9.39504V86.1007ZM9.25705 83.548C9.25705 83.203 9.47783 82.9271 9.89178 82.9271C10.2919 82.9271 10.5127 83.203 10.5127 83.548C10.5127 83.9067 10.2919 84.1827 9.89178 84.1827C9.47783 84.1827 9.25705 83.9067 9.25705 83.548ZM15.5742 92.9722C15.3258 93.0274 14.9533 93.0964 14.5531 93.0964C13.5045 93.0964 12.6628 92.2547 12.6628 91.2199V87.0114H11.5175V86.0455H12.6628V83.8791H13.6562V86.0455H15.2982V87.0114H13.6562V91.2199C13.6562 91.7718 13.9874 92.1029 14.5531 92.1029C14.8705 92.1029 15.1327 92.0616 15.3534 92.0064L15.5742 92.9722ZM16.7323 82.8857H17.7258V93.124H16.7323V82.8857ZM24.165 89.1225C24.0546 88.129 23.5716 87.0666 22.0814 87.0666C20.7706 87.0666 19.9289 87.7703 19.7495 89.1363L24.165 89.1225ZM18.7284 89.6193C18.7284 87.6875 19.8875 86.0731 22.04 86.0731C24.2753 86.0731 24.8411 87.8117 24.9101 87.9773C25.324 89.1087 25.1584 90.1022 25.1584 90.1022H19.7495C19.9289 91.3992 20.7706 92.1719 22.0538 92.1719C23.6406 92.1719 24.027 91.3026 24.1236 91.1647L24.9791 91.62C24.9791 91.62 24.3995 93.1654 22.04 93.1654C19.8875 93.1654 18.7284 91.5372 18.7284 89.6193ZM31.0668 84.0171V87.5495H34.5992V88.5154H31.0668V92.034H30.1147V88.5154H26.5824V87.5495H30.1147V84.0171H31.0668ZM36.4014 83.1616H37.3948V93.124H36.4014V83.1616ZM42.1723 92.1995C42.8898 92.1995 43.5521 91.9236 44.0213 91.4544L44.7664 92.1167C44.1041 92.7791 43.221 93.193 42.2275 93.193C39.9646 93.193 38.6537 91.5234 38.6537 89.4951C38.6537 87.4805 39.9646 85.8109 42.2275 85.8109C43.221 85.8109 44.1041 86.2249 44.7664 86.8872L44.0213 87.5495C43.5521 87.0804 42.8898 86.8044 42.1723 86.8044C40.5441 86.8044 39.6472 88.0048 39.6472 89.4951C39.6472 90.9991 40.5441 92.1995 42.1723 92.1995ZM48.6078 92.2133C50.1532 92.2133 50.9673 91.0819 50.9673 89.6193C50.9673 88.1566 50.1532 87.0252 48.6078 87.0252C47.0486 87.0252 46.2621 88.1566 46.2621 89.6193C46.2621 91.0819 47.0486 92.2133 48.6078 92.2133ZM45.2686 89.6193C45.2686 87.7013 46.4553 86.0593 48.6078 86.0593C50.7741 86.0593 51.9608 87.7013 51.9608 89.6193C51.9608 91.5372 50.7741 93.1792 48.6078 93.1792C46.4553 93.1792 45.2686 91.5372 45.2686 89.6193ZM57.9671 88.9845C57.9671 87.8531 57.3047 87.0666 56.1457 87.0666C54.9452 87.0666 54.0621 88.1842 54.0621 89.1225V93.124H53.0687V86.1007H54.0621V87.3011C54.5313 86.6112 55.2212 86.1007 56.1871 86.1007C57.8291 86.1007 58.9605 87.3425 58.9605 88.8879V93.124H57.9671V88.9845Z" fill="#616161"/>
<rect width="298.044" height="44.1546" transform="translate(149.021 66.5469)" fill="white"/>
<path d="M174.111 83.065V84.9258H170.815V94.7975H168.923V84.9258H165.595V83.065H174.111ZM179.957 89.9247C179.799 88.8682 179.105 88.1112 177.859 88.1112C176.708 88.1112 175.778 88.7105 175.588 89.9405L179.957 89.9247ZM173.822 90.6343C173.822 88.3478 175.273 86.4239 177.843 86.4239C180.493 86.4239 181.281 88.5685 181.329 88.6789C181.833 89.9562 181.723 91.4544 181.723 91.4544H175.588C175.872 92.4794 176.645 93.1259 177.859 93.1259C179.342 93.1259 179.673 92.3059 179.72 92.2428L181.376 92.984C181.376 92.984 180.619 94.829 177.843 94.829C175.273 94.829 173.822 92.9051 173.822 90.6343ZM190.87 86.4712L187.779 90.6343L190.823 94.7817H188.489L186.628 92.0851L184.783 94.7817H182.449L185.446 90.6343L182.37 86.4712H184.72L186.628 89.2466L188.505 86.4712H190.87ZM197.123 94.5767C196.76 94.6556 195.956 94.7975 195.341 94.7502C194.111 94.6556 192.849 93.5675 192.849 92.0851V88.2374H191.383V86.3766H192.849V83.4277H194.742V86.3766H196.965V88.2374H194.742V92.0851C194.742 92.5898 195.041 92.8421 195.514 92.8736C195.861 92.8894 196.413 92.7948 196.713 92.7317L197.123 94.5767Z" fill="#333333"/>
<path d="M390.295 79.1621C395.52 79.1623 399.756 83.3988 399.756 88.624C399.756 93.8493 395.52 98.0848 390.295 98.085C385.07 98.0849 380.833 93.8494 380.833 88.624C380.833 83.3987 385.07 79.1622 390.295 79.1621ZM390.295 80.3447C385.723 80.3448 382.016 84.0519 382.016 88.624L382.026 89.0498C382.241 93.2828 385.635 96.6767 389.868 96.8916L390.295 96.9023C394.724 96.9022 398.341 93.424 398.562 89.0498L398.573 88.624C398.573 84.1948 395.095 80.5772 390.721 80.3555L390.295 80.3447ZM390.412 89.4443C390.478 89.4579 390.538 89.484 390.592 89.5166C390.599 89.521 390.607 89.5246 390.614 89.5293C390.634 89.5423 390.651 89.5581 390.669 89.5732C390.679 89.5816 390.69 89.5886 390.699 89.5977L390.708 89.6064C390.717 89.6154 390.723 89.6263 390.731 89.6357C390.747 89.6534 390.762 89.6709 390.775 89.6904C390.781 89.6991 390.786 89.7088 390.791 89.7178C390.823 89.7711 390.848 89.8295 390.861 89.8936C390.923 90.1909 391.056 90.3777 391.226 90.5098C391.407 90.651 391.659 90.7524 391.977 90.8115C392.624 90.9321 393.374 90.8539 393.934 90.7969C394.251 90.7648 394.534 90.9965 394.566 91.3135C394.598 91.6305 394.368 91.9137 394.051 91.9463C393.526 91.9998 392.605 92.1028 391.765 91.9463C391.338 91.8667 390.891 91.7137 390.516 91.4209C390.437 91.3598 390.364 91.2922 390.295 91.2207C390.226 91.2921 390.153 91.3599 390.075 91.4209C389.7 91.7137 389.253 91.8667 388.826 91.9463C387.986 92.1029 387.065 91.9998 386.54 91.9463C386.223 91.9139 385.992 91.6306 386.024 91.3135C386.057 90.9964 386.34 90.7645 386.657 90.7969C387.217 90.8539 387.967 90.9321 388.614 90.8115C388.931 90.7524 389.184 90.651 389.365 90.5098C389.534 90.3777 389.668 90.1907 389.729 89.8936C389.73 89.8893 389.732 89.8851 389.733 89.8809C389.75 89.8112 389.777 89.745 389.816 89.6865C389.823 89.6766 389.832 89.6677 389.839 89.6582C389.855 89.6378 389.871 89.6178 389.89 89.5996C389.895 89.594 389.902 89.5894 389.908 89.584C389.93 89.5646 389.951 89.5454 389.976 89.5293C389.982 89.5252 389.989 89.5224 389.995 89.5186C390.02 89.5031 390.046 89.4881 390.074 89.4766C390.079 89.4746 390.084 89.4735 390.089 89.4717C390.118 89.4607 390.148 89.4507 390.179 89.4443C390.218 89.4364 390.257 89.4327 390.295 89.4326C390.333 89.4326 390.373 89.4363 390.412 89.4443ZM387.522 86.7764C388.033 86.7765 388.447 87.1901 388.447 87.7002C388.447 88.2103 388.033 88.6248 387.522 88.625C387.012 88.6248 386.599 88.2103 386.599 87.7002C386.599 87.1901 387.012 86.7765 387.522 86.7764ZM393.067 86.7764C393.578 86.7765 393.992 87.19 393.992 87.7002C393.992 88.2103 393.578 88.6248 393.067 88.625C392.557 88.6248 392.144 88.2103 392.144 87.7002C392.144 87.19 392.557 86.7765 393.067 86.7764Z" fill="#555555"/>
<path d="M436.511 85.2205H436.419C436.419 85.1285 428.968 79.5172 428.968 79.5172C428.508 79.1492 427.773 79.1492 427.313 79.5172L428.14 80.621L435.592 86.2324V95.1553C435.592 95.5232 435.408 95.8912 435.132 96.1672C434.856 96.4431 434.488 96.6271 434.12 96.6271H433.936H432.004V90.6478C432.004 89.9119 431.452 89.36 430.808 89.268H430.624H425.657C424.921 89.268 424.369 89.8199 424.277 90.4638V90.6478V96.6271H422.161C421.793 96.6271 421.425 96.4431 421.149 96.1672C420.873 95.8912 420.689 95.5232 420.689 95.1553V94.9713V86.2324L428.14 80.621L427.313 79.5172L419.862 85.1285C419.494 85.4045 419.31 85.7724 419.31 86.2324V94.9713C419.31 95.7992 419.678 96.5351 420.229 97.087C420.781 97.639 421.609 97.9149 422.345 97.9149H433.936C434.764 97.9149 435.5 97.639 436.052 97.087C436.603 96.5351 436.971 95.7992 436.971 94.9713V86.2324C436.971 85.8644 436.787 85.4964 436.511 85.2205ZM430.624 96.6271H425.657V90.6478H430.624V96.6271Z" fill="#333333"/>
<path d="M1.15906 149.393H2.15254V159.355H1.15906V149.393ZM6.92999 158.431C7.6475 158.431 8.30982 158.155 8.77897 157.686L9.52407 158.348C8.86175 159.011 7.97866 159.424 6.98518 159.424C4.72226 159.424 3.41142 157.755 3.41142 155.727C3.41142 153.712 4.72226 152.042 6.98518 152.042C7.97866 152.042 8.86175 152.456 9.52407 153.119L8.77897 153.781C8.30982 153.312 7.6475 153.036 6.92999 153.036C5.30179 153.036 4.4049 154.236 4.4049 155.727C4.4049 157.231 5.30179 158.431 6.92999 158.431ZM13.3655 158.445C14.9109 158.445 15.725 157.313 15.725 155.851C15.725 154.388 14.9109 153.257 13.3655 153.257C11.8063 153.257 11.0198 154.388 11.0198 155.851C11.0198 157.313 11.8063 158.445 13.3655 158.445ZM10.0263 155.851C10.0263 153.933 11.213 152.291 13.3655 152.291C15.5318 152.291 16.7185 153.933 16.7185 155.851C16.7185 157.769 15.5318 159.411 13.3655 159.411C11.213 159.411 10.0263 157.769 10.0263 155.851ZM22.7248 155.216C22.7248 154.085 22.0624 153.298 20.9034 153.298C19.7029 153.298 18.8198 154.416 18.8198 155.354V159.355H17.8263V152.332H18.8198V153.533C19.289 152.843 19.9789 152.332 20.9448 152.332C22.5868 152.332 23.7182 153.574 23.7182 155.119V159.355H22.7248V155.216ZM29.7004 150.249V153.781H33.2328V154.747H29.7004V158.265H28.7484V154.747H25.216V153.781H28.7484V150.249H29.7004ZM41.9618 149.393V150.359H38.8433V159.355H37.8499V150.359H34.7452V149.393H41.9618ZM43.271 152.332H44.2645V159.355H43.271V152.332ZM43.133 149.779C43.133 149.434 43.3538 149.159 43.7677 149.159C44.1679 149.159 44.3887 149.434 44.3887 149.779C44.3887 150.138 44.1679 150.414 43.7677 150.414C43.3538 150.414 43.133 150.138 43.133 149.779ZM49.4502 159.204C49.2018 159.259 48.8292 159.328 48.4291 159.328C47.3804 159.328 46.5387 158.486 46.5387 157.451V153.243H45.3935V152.277H46.5387V150.111H47.5322V152.277H49.1742V153.243H47.5322V157.451C47.5322 158.003 47.8633 158.334 48.4291 158.334C48.7464 158.334 49.0086 158.293 49.2294 158.238L49.4502 159.204ZM50.6082 149.117H51.6017V159.355H50.6082V149.117ZM58.0409 155.354C57.9305 154.36 57.4476 153.298 55.9574 153.298C54.6465 153.298 53.8048 154.002 53.6254 155.368L58.0409 155.354ZM52.6044 155.851C52.6044 153.919 53.7634 152.305 55.916 152.305C58.1513 152.305 58.717 154.043 58.786 154.209C59.2 155.34 59.0344 156.334 59.0344 156.334H53.6254C53.8048 157.631 54.6465 158.403 55.9298 158.403C57.5166 158.403 57.9029 157.534 57.9995 157.396L58.855 157.851C58.855 157.851 58.2755 159.397 55.916 159.397C53.7634 159.397 52.6044 157.769 52.6044 155.851ZM64.9428 150.249V153.781H68.4751V154.747H64.9428V158.265H63.9907V154.747H60.4583V153.781H63.9907V150.249H64.9428ZM77.2041 149.393V150.359H74.0857V159.355H73.0922V150.359H69.9875V149.393H77.2041ZM82.2446 155.354C82.1342 154.36 81.6512 153.298 80.161 153.298C78.8502 153.298 78.0085 154.002 77.8291 155.368L82.2446 155.354ZM76.808 155.851C76.808 153.919 77.9671 152.305 80.1196 152.305C82.3549 152.305 82.9207 154.043 82.9897 154.209C83.4036 155.34 83.238 156.334 83.238 156.334H77.8291C78.0085 157.631 78.8502 158.403 80.1334 158.403C81.7202 158.403 82.1066 157.534 82.2032 157.396L83.0587 157.851C83.0587 157.851 82.4791 159.397 80.1196 159.397C77.9671 159.397 76.808 157.769 76.808 155.851ZM90.0566 152.332L87.3935 155.851L90.0566 159.355H88.8009L86.8829 156.748L84.965 159.355H83.7093L86.3586 155.851L83.7093 152.332H84.965L86.8829 154.968L88.8009 152.332H90.0566ZM94.4806 159.204C94.2323 159.259 93.8597 159.328 93.4596 159.328C92.4109 159.328 91.5692 158.486 91.5692 157.451V153.243H90.4239V152.277H91.5692V150.111H92.5627V152.277H94.2047V153.243H92.5627V157.451C92.5627 158.003 92.8938 158.334 93.4596 158.334C93.7769 158.334 94.0391 158.293 94.2599 158.238L94.4806 159.204ZM96.3186 159.355V149.393H100.03C101.548 149.393 102.762 150.58 102.762 152.098C102.762 152.884 102.39 153.546 101.852 154.029C101.935 154.071 102.004 154.126 102.086 154.167C102.831 154.65 103.411 155.533 103.411 156.582C103.411 158.114 102.183 159.355 100.665 159.355H96.3186ZM97.3121 158.39H100.679C101.659 158.39 102.445 157.617 102.445 156.61C102.445 155.52 101.659 154.692 100.679 154.692H97.3121V158.39ZM97.3121 153.726H100.141C101.079 153.684 101.81 153.008 101.81 152.07C101.81 151.076 101.024 150.359 100.044 150.359H97.3121V153.726ZM108.263 159.204C108.014 159.259 107.642 159.328 107.242 159.328C106.193 159.328 105.351 158.486 105.351 157.451V153.243H104.206V152.277H105.351V150.111H106.345V152.277H107.987V153.243H106.345V157.451C106.345 158.003 106.676 158.334 107.242 158.334C107.559 158.334 107.821 158.293 108.042 158.238L108.263 159.204ZM114.578 155.216C114.578 154.085 113.916 153.298 112.757 153.298C111.556 153.298 110.673 154.416 110.673 155.354V159.355H109.679V152.332H110.673V153.533C111.142 152.843 111.832 152.332 112.798 152.332C114.44 152.332 115.571 153.574 115.571 155.119V159.355H114.578V155.216Z" fill="#616161"/>
<rect width="298.044" height="44.1546" transform="translate(149.021 132.778)" fill="white"/>
<path fill-rule="evenodd" clip-rule="evenodd" d="M170.868 149.568C171.176 149.876 171.176 150.375 170.868 150.683L166.695 154.856L170.868 159.03C171.176 159.337 171.176 159.837 170.868 160.145C170.56 160.453 170.061 160.453 169.753 160.145L165.022 155.414C164.714 155.106 164.714 154.607 165.022 154.299L169.753 149.568C170.061 149.26 170.56 149.26 170.868 149.568Z" fill="#555555"/>
<path d="M199.342 149.297V151.158H196.046V161.03H194.154V151.158H190.827V149.297H199.342ZM205.188 156.157C205.03 155.101 204.336 154.344 203.091 154.344C201.94 154.344 201.009 154.943 200.82 156.173L205.188 156.157ZM199.054 156.867C199.054 154.58 200.505 152.656 203.075 152.656C205.724 152.656 206.513 154.801 206.56 154.911C207.065 156.189 206.954 157.687 206.954 157.687H200.82C201.104 158.712 201.876 159.358 203.091 159.358C204.573 159.358 204.904 158.538 204.952 158.475L206.607 159.216C206.607 159.216 205.85 161.061 203.075 161.061C200.505 161.061 199.054 159.138 199.054 156.867ZM216.102 152.704L213.011 156.867L216.054 161.014H213.72L211.86 158.318L210.015 161.014H207.681L210.677 156.867L207.602 152.704H209.952L211.86 155.479L213.736 152.704H216.102ZM222.354 160.809C221.992 160.888 221.187 161.03 220.572 160.983C219.342 160.888 218.081 159.8 218.081 158.318V154.47H216.614V152.609H218.081V149.66H219.973V152.609H222.197V154.47H219.973V158.318C219.973 158.822 220.273 159.074 220.746 159.106C221.093 159.122 221.645 159.027 221.944 158.964L222.354 160.809Z" fill="#333333"/>
<path d="M419.297 148.46H420.347V160.907H419.297V153.881H416.558V153.016H419.297V148.46ZM410.072 157.586C411.832 156.72 413.336 154.378 413.336 152.178V150.631H410.512V149.751H417.239V150.631H414.401V152.178C414.401 154.236 415.905 156.493 417.679 157.33L417.041 158.182C415.65 157.472 414.443 155.968 413.89 154.25C413.336 156.081 412.102 157.685 410.697 158.437L410.072 157.586ZM422.756 149.397H429.398V150.276H426.616V150.816C426.616 152.462 427.837 153.924 429.639 154.534L429.128 155.357C427.723 154.875 426.645 153.896 426.119 152.632C425.594 154.066 424.445 155.201 422.969 155.726L422.429 154.889C424.274 154.236 425.566 152.632 425.566 150.83V150.276H422.756V149.397ZM424.076 158.579C424.076 157.146 425.623 156.322 428.135 156.322C430.661 156.322 432.208 157.146 432.208 158.579C432.208 160.027 430.661 160.864 428.135 160.864C425.623 160.864 424.076 160.027 424.076 158.579ZM425.112 158.579C425.112 159.487 426.276 160.027 428.135 160.027C430.008 160.027 431.158 159.487 431.158 158.579C431.158 157.699 430.008 157.174 428.135 157.174C426.276 157.174 425.112 157.699 425.112 158.579ZM431.016 155.968V148.474H432.08V151.667H433.94V152.547H432.08V155.968H431.016Z" fill="#333333"/>
<path d="M3.89113 224.621C6.07126 224.621 7.89264 222.8 7.89264 220.606C7.89264 218.412 6.07126 216.59 3.89113 216.59H2.15254V224.621H3.89113ZM1.15906 225.587V215.625H3.89113C6.62319 215.625 8.85852 217.86 8.85852 220.606C8.85852 223.352 6.62319 225.587 3.89113 225.587H1.15906ZM11.0459 220.04C11.446 219.116 12.5913 218.495 13.5434 218.495V219.516C12.2601 219.516 11.0459 220.854 11.0459 221.972V225.587H10.0524V218.564H11.0459V220.04ZM17.2463 224.676C18.7917 224.676 19.6058 223.545 19.6058 222.082C19.6058 220.62 18.7917 219.488 17.2463 219.488C15.6871 219.488 14.9006 220.62 14.9006 222.082C14.9006 223.545 15.6871 224.676 17.2463 224.676ZM13.9071 222.082C13.9071 220.164 15.0937 218.522 17.2463 218.522C19.4126 218.522 20.5993 220.164 20.5993 222.082C20.5993 224 19.4126 225.642 17.2463 225.642C15.0937 225.642 13.9071 224 13.9071 222.082ZM25.1567 224.731C26.6745 224.731 27.53 223.6 27.53 222.124C27.53 220.675 26.6745 219.543 25.1567 219.543C23.8873 219.543 22.7972 220.675 22.7972 222.124C22.7972 223.6 23.8873 224.731 25.1567 224.731ZM21.7899 228.761V218.564H22.7834V220.054C23.2387 219.06 24.315 218.577 25.1705 218.577C27.323 218.577 28.5235 220.219 28.5235 222.124C28.5235 224.055 27.323 225.697 25.1705 225.697C24.2874 225.697 23.2387 225.104 22.7834 224.207V228.761H21.7899ZM32.7266 225.697C30.5879 225.697 29.3736 224.055 29.3736 222.124C29.3736 220.206 30.5879 218.55 32.7266 218.55C33.6235 218.55 34.5618 219.005 35.1413 220.054V215.349H36.1348V225.587H35.1413V224.193C34.548 225.242 33.6235 225.697 32.7266 225.697ZM30.3671 222.124C30.3671 223.6 31.2088 224.704 32.768 224.704C34.0374 224.704 35.1413 223.6 35.1413 222.124C35.1413 220.661 34.0374 219.543 32.768 219.543C31.2088 219.543 30.3671 220.661 30.3671 222.124ZM40.601 224.676C42.1464 224.676 42.9605 223.545 42.9605 222.082C42.9605 220.62 42.1464 219.488 40.601 219.488C39.0418 219.488 38.2553 220.62 38.2553 222.082C38.2553 223.545 39.0418 224.676 40.601 224.676ZM37.2618 222.082C37.2618 220.164 38.4485 218.522 40.601 218.522C42.7674 218.522 43.954 220.164 43.954 222.082C43.954 224 42.7674 225.642 40.601 225.642C38.4485 225.642 37.2618 224 37.2618 222.082ZM53.6163 218.564L51.5189 225.587H50.5806L48.8973 220.247L47.2553 225.587H46.317L44.1782 218.564H45.2269L46.7861 223.766L48.3729 218.564H49.4078L51.0498 223.766L52.5676 218.564H53.6163ZM59.4116 221.447C59.4116 220.316 58.7493 219.529 57.5902 219.529C56.3897 219.529 55.5066 220.647 55.5066 221.585V225.587H54.5132V218.564H55.5066V219.764C55.9758 219.074 56.6657 218.564 57.6316 218.564C59.2736 218.564 60.4051 219.805 60.4051 221.351V225.587H59.4116V221.447ZM66.3873 216.48V220.012H69.9196V220.978H66.3873V224.497H65.4352V220.978H61.9028V220.012H65.4352V216.48H66.3873ZM71.7218 215.625H72.7153V225.587H71.7218V215.625ZM77.4928 224.662C78.2103 224.662 78.8726 224.386 79.3417 223.917L80.0868 224.58C79.4245 225.242 78.5414 225.656 77.548 225.656C75.285 225.656 73.9742 223.986 73.9742 221.958C73.9742 219.943 75.285 218.274 77.548 218.274C78.5414 218.274 79.4245 218.688 80.0868 219.35L79.3417 220.012C78.8726 219.543 78.2103 219.267 77.4928 219.267C75.8646 219.267 74.9677 220.468 74.9677 221.958C74.9677 223.462 75.8646 224.662 77.4928 224.662ZM83.9283 224.676C85.4737 224.676 86.2878 223.545 86.2878 222.082C86.2878 220.62 85.4737 219.488 83.9283 219.488C82.3691 219.488 81.5826 220.62 81.5826 222.082C81.5826 223.545 82.3691 224.676 83.9283 224.676ZM80.5891 222.082C80.5891 220.164 81.7757 218.522 83.9283 218.522C86.0946 218.522 87.2813 220.164 87.2813 222.082C87.2813 224 86.0946 225.642 83.9283 225.642C81.7757 225.642 80.5891 224 80.5891 222.082ZM93.2875 221.447C93.2875 220.316 92.6252 219.529 91.4661 219.529C90.2657 219.529 89.3826 220.647 89.3826 221.585V225.587H88.3891V218.564H89.3826V219.764C89.8517 219.074 90.5417 218.564 91.5075 218.564C93.1495 218.564 94.281 219.805 94.281 221.351V225.587H93.2875V221.447Z" fill="#616161"/>
<rect width="298.044" height="44.1546" transform="translate(149.021 199.01)" fill="white"/>
<path d="M174.111 215.529V217.39H170.815V227.261H168.923V217.39H165.595V215.529H174.111ZM179.957 222.389C179.799 221.332 179.105 220.575 177.859 220.575C176.708 220.575 175.778 221.174 175.588 222.404L179.957 222.389ZM173.822 223.098C173.822 220.812 175.273 218.888 177.843 218.888C180.493 218.888 181.281 221.032 181.329 221.143C181.833 222.42 181.723 223.918 181.723 223.918H175.588C175.872 224.943 176.645 225.59 177.859 225.59C179.342 225.59 179.673 224.77 179.72 224.707L181.376 225.448C181.376 225.448 180.619 227.293 177.843 227.293C175.273 227.293 173.822 225.369 173.822 223.098ZM190.87 218.935L187.779 223.098L190.823 227.246H188.489L186.628 224.549L184.783 227.246H182.449L185.446 223.098L182.37 218.935H184.72L186.628 221.71L188.505 218.935H190.87ZM197.123 227.041C196.76 227.119 195.956 227.261 195.341 227.214C194.111 227.119 192.849 226.031 192.849 224.549V220.701H191.383V218.84H192.849V215.892H194.742V218.84H196.965V220.701H194.742V224.549C194.742 225.054 195.041 225.306 195.514 225.337C195.861 225.353 196.413 225.259 196.713 225.196L197.123 227.041Z" fill="#333333"/>
<path d="M209.831 213.4C214.076 213.401 217.519 216.843 217.519 221.089C217.518 225.334 214.076 228.776 209.831 228.776C205.586 228.776 202.143 225.334 202.143 221.089C202.143 216.843 205.585 213.4 209.831 213.4ZM209.831 214.584C206.238 214.584 203.326 217.496 203.326 221.089C203.327 224.681 206.239 227.594 209.831 227.594C213.423 227.593 216.335 224.681 216.336 221.089C216.336 217.497 213.423 214.584 209.831 214.584ZM212.023 219.676C212.244 219.456 212.599 219.456 212.819 219.676C213.039 219.896 213.039 220.252 212.819 220.472L210.229 223.062C210.008 223.283 209.653 223.283 209.433 223.062L206.842 220.472C206.622 220.252 206.622 219.896 206.842 219.676C207.062 219.462 207.423 219.456 207.643 219.676L209.833 221.866L212.023 219.676Z" fill="#333333"/>
<path d="M224.732 224.77C225 225.385 225.583 225.684 226.388 225.669C227.57 225.621 227.933 224.391 226.813 224.06C226.309 223.902 225.442 223.666 224.637 223.146C223.376 222.325 223.313 221.048 223.738 220.181C224.259 219.187 225.536 218.825 226.388 218.904C227.208 218.967 228.154 219.282 228.753 220.086L227.428 221.048C227.16 220.67 226.75 220.528 226.246 220.496C225.82 220.465 225.378 220.591 225.205 220.906C225.063 221.206 225.095 221.505 225.536 221.789C226.104 222.152 226.829 222.341 227.381 222.531C230.204 223.445 229.368 227.214 226.498 227.293C225.032 227.356 223.754 226.599 223.25 225.432L224.732 224.77ZM232.524 223.54C232.524 224.738 233.249 225.59 234.542 225.59C235.835 225.59 236.671 224.565 236.655 223.461V218.935H238.295V227.198H236.655V225.968C236.088 226.804 235.378 227.198 234.337 227.198C232.555 227.198 230.884 225.905 230.884 223.619V218.967H232.524V223.54ZM244.181 225.59C245.679 225.59 246.515 224.565 246.515 223.13C246.515 221.71 245.679 220.67 244.181 220.67C242.935 220.67 241.815 221.647 241.815 223.13C241.815 224.628 242.935 225.59 244.181 225.59ZM240.175 227.088V215.261H241.815V220.465C242.509 219.424 243.518 219.061 244.307 219.061C246.783 219.061 248.155 220.938 248.155 223.13C248.155 225.337 246.767 227.214 244.291 227.214C243.518 227.214 242.541 226.946 241.815 225.795V227.088H240.175Z" fill="#333333"/>
<path d="M390.295 211.625C395.52 211.625 399.756 215.862 399.756 221.087C399.756 226.312 395.52 230.548 390.295 230.548C385.07 230.548 380.833 226.312 380.833 221.087C380.833 215.862 385.07 211.625 390.295 211.625ZM390.295 212.808C385.723 212.808 382.016 216.515 382.016 221.087L382.026 221.513C382.241 225.746 385.635 229.14 389.868 229.354L390.295 229.365C394.724 229.365 398.341 225.887 398.562 221.513L398.573 221.087C398.573 216.658 395.095 213.04 390.721 212.818L390.295 212.808ZM390.412 221.907C390.478 221.921 390.538 221.947 390.592 221.979C390.599 221.984 390.607 221.987 390.614 221.992C390.634 222.005 390.651 222.021 390.669 222.036C390.679 222.044 390.69 222.052 390.699 222.061L390.708 222.069C390.717 222.078 390.723 222.089 390.731 222.099C390.747 222.116 390.762 222.134 390.775 222.153C390.781 222.162 390.786 222.172 390.791 222.181C390.823 222.234 390.848 222.292 390.861 222.356C390.923 222.654 391.056 222.841 391.226 222.973C391.407 223.114 391.659 223.215 391.977 223.274C392.624 223.395 393.374 223.317 393.934 223.26C394.251 223.228 394.534 223.459 394.566 223.776C394.598 224.093 394.368 224.377 394.051 224.409C393.526 224.463 392.605 224.566 391.765 224.409C391.338 224.33 390.891 224.177 390.516 223.884C390.437 223.823 390.364 223.755 390.295 223.684C390.226 223.755 390.153 223.823 390.075 223.884C389.7 224.177 389.253 224.33 388.826 224.409C387.986 224.566 387.065 224.463 386.54 224.409C386.223 224.377 385.992 224.094 386.024 223.776C386.057 223.459 386.34 223.227 386.657 223.26C387.217 223.317 387.967 223.395 388.614 223.274C388.931 223.215 389.184 223.114 389.365 222.973C389.534 222.841 389.668 222.654 389.729 222.356C389.73 222.352 389.732 222.348 389.733 222.344C389.75 222.274 389.777 222.208 389.816 222.149C389.823 222.139 389.832 222.131 389.839 222.121C389.855 222.101 389.871 222.081 389.89 222.062C389.895 222.057 389.902 222.052 389.908 222.047C389.93 222.027 389.951 222.008 389.976 221.992C389.982 221.988 389.989 221.985 389.995 221.981C390.02 221.966 390.046 221.951 390.074 221.939C390.079 221.938 390.084 221.936 390.089 221.935C390.118 221.924 390.148 221.914 390.179 221.907C390.218 221.899 390.257 221.896 390.295 221.896C390.333 221.896 390.373 221.899 390.412 221.907ZM387.522 219.239C388.033 219.239 388.447 219.653 388.447 220.163C388.447 220.673 388.033 221.088 387.522 221.088C387.012 221.088 386.599 220.673 386.599 220.163C386.599 219.653 387.012 219.239 387.522 219.239ZM393.067 219.239C393.578 219.239 393.992 219.653 393.992 220.163C393.992 220.673 393.578 221.088 393.067 221.088C392.557 221.088 392.144 220.673 392.144 220.163C392.144 219.653 392.557 219.239 393.067 219.239Z" fill="#555555"/>
<path d="M436.511 217.683H436.419C436.419 217.591 428.968 211.98 428.968 211.98C428.508 211.612 427.773 211.612 427.313 211.98L428.14 213.084L435.592 218.695V227.618C435.592 227.986 435.408 228.354 435.132 228.63C434.856 228.906 434.488 229.09 434.12 229.09H433.936H432.004V223.111C432.004 222.375 431.452 221.823 430.808 221.731H430.624H425.657C424.921 221.731 424.369 222.283 424.277 222.927V223.111V229.09H422.161C421.793 229.09 421.425 228.906 421.149 228.63C420.873 228.354 420.689 227.986 420.689 227.618V227.434V218.695L428.14 213.084L427.313 211.98L419.862 217.591C419.494 217.867 419.31 218.235 419.31 218.695V227.434C419.31 228.262 419.678 228.998 420.229 229.55C420.781 230.102 421.609 230.378 422.345 230.378H433.936C434.764 230.378 435.5 230.102 436.052 229.55C436.603 228.998 436.971 228.262 436.971 227.434V218.695C436.971 218.327 436.787 217.959 436.511 217.683ZM430.624 229.09H425.657V223.111H430.624V229.09Z" fill="#333333"/>
<path d="M1.95936 289.415C2.41471 290.422 3.36679 291.016 4.63624 290.988C6.78877 290.919 7.3683 288.159 5.31235 287.608C4.65003 287.359 3.55997 287.056 2.60788 286.407C1.22805 285.455 1.24185 284.061 1.6558 283.178C2.20773 282.019 3.68415 281.688 4.51205 281.757C5.32615 281.812 6.43002 282.143 7.10613 283.123L6.27824 283.675C5.82289 283.026 5.11918 282.806 4.42926 282.751C3.80834 282.723 2.91145 282.916 2.56649 283.592C2.29052 284.227 2.29052 284.958 3.15982 285.579C3.97392 286.145 4.9536 286.421 5.64351 286.669C8.76193 287.621 7.87884 291.885 4.66383 291.982C3.07703 292.037 1.6282 291.195 1.04867 289.801L1.95936 289.415ZM14.083 287.856C13.9726 286.862 13.4897 285.8 11.9995 285.8C10.6886 285.8 9.84693 286.504 9.66755 287.87L14.083 287.856ZM8.64648 288.353C8.64648 286.421 9.80554 284.806 11.9581 284.806C14.1934 284.806 14.7591 286.545 14.8281 286.711C15.2421 287.842 15.0765 288.836 15.0765 288.836H9.66755C9.84693 290.133 10.6886 290.905 11.9719 290.905C13.5587 290.905 13.945 290.036 14.0416 289.898L14.8971 290.353C14.8971 290.353 14.3176 291.899 11.9581 291.899C9.80554 291.899 8.64648 290.271 8.64648 288.353ZM19.3217 290.961C20.5636 290.961 21.6813 289.953 21.6951 288.408C21.6813 286.876 20.5636 285.855 19.3217 285.855C17.7901 285.855 16.9622 286.959 16.9622 288.408C16.9622 289.857 17.7901 290.961 19.3217 290.961ZM15.9688 288.408C15.9688 286.49 17.1692 284.875 19.3079 284.875C20.122 284.875 21.0327 285.303 21.6675 286.324V284.834H22.6609V291.857H21.6675V290.478C21.0051 291.554 20.1358 291.954 19.3079 291.954C17.1692 291.954 15.9688 290.312 15.9688 288.408ZM24.828 286.31C25.2282 285.386 26.3734 284.765 27.3255 284.765V285.786C26.0423 285.786 24.828 287.125 24.828 288.242V291.857H23.8345V284.834H24.828V286.31ZM30.918 290.933C31.6356 290.933 32.2979 290.657 32.767 290.188L33.5121 290.85C32.8498 291.512 31.9667 291.926 30.9732 291.926C28.7103 291.926 27.3995 290.257 27.3995 288.228C27.3995 286.214 28.7103 284.544 30.9732 284.544C31.9667 284.544 32.8498 284.958 33.5121 285.621L32.767 286.283C32.2979 285.814 31.6356 285.538 30.918 285.538C29.2898 285.538 28.393 286.738 28.393 288.228C28.393 289.732 29.2898 290.933 30.918 290.933ZM39.3235 287.911C39.3235 286.6 38.5784 285.841 37.5297 285.841C36.4396 285.841 35.4876 286.862 35.4876 288.187V291.857H34.4941V281.619H35.4876V286.159C35.8325 285.441 36.619 284.875 37.5711 284.875C38.9923 284.875 40.317 286.09 40.317 287.856V291.857H39.3235V287.911Z" fill="#616161"/>
<rect width="298.044" height="44.2312" transform="translate(149.021 265.242)" fill="white"/>
<path fill-rule="evenodd" clip-rule="evenodd" d="M170.868 282.07C171.176 282.378 171.176 282.877 170.868 283.185L166.695 287.358L170.868 291.532C171.176 291.839 171.176 292.339 170.868 292.647C170.56 292.955 170.061 292.955 169.753 292.647L165.022 287.916C164.714 287.608 164.714 287.109 165.022 286.801L169.753 282.07C170.061 281.762 170.56 281.762 170.868 282.07Z" fill="#555555"/>
<path d="M190.022 272.968C190.022 270.443 192.069 268.396 194.594 268.396H429.878C432.403 268.396 434.45 270.443 434.45 272.968V301.748C434.45 304.273 432.403 306.32 429.878 306.32H194.594C192.069 306.32 190.022 304.273 190.022 301.748V272.968Z" fill="#F5F5F5"/>
<path d="M199.888 290.307H202.159V287.519C201.301 286.989 200.771 286.181 200.771 285.185C200.771 283.355 202.563 282.17 204.985 282.17C207.42 282.17 209.198 283.355 209.198 285.185C209.198 286.169 208.681 286.976 207.836 287.506V290.307H210.119V291.581H199.888V290.307ZM202.323 285.185C202.323 286.32 203.395 286.989 204.985 286.989C206.587 286.989 207.659 286.32 207.659 285.185C207.659 284.049 206.587 283.381 204.985 283.381C203.395 283.381 202.323 284.049 202.323 285.185ZM203.723 290.307H206.272V288.086C205.868 288.175 205.439 288.212 204.985 288.212C204.543 288.212 204.114 288.175 203.723 288.099V290.307ZM213.937 282.233C215.678 282.233 216.99 283.368 216.99 284.97C216.99 286.56 215.678 287.695 213.937 287.695C212.184 287.695 210.884 286.56 210.884 284.97C210.884 283.368 212.184 282.233 213.937 282.233ZM212.171 290.685C212.171 289.297 213.66 288.465 215.994 288.465C218.328 288.465 219.804 289.297 219.804 290.685C219.804 292.085 218.328 292.918 215.994 292.918C213.66 292.918 212.171 292.085 212.171 290.685ZM212.398 284.97C212.398 285.853 213.067 286.383 213.937 286.383C214.821 286.383 215.477 285.853 215.477 284.97C215.477 284.075 214.821 283.532 213.937 283.532C213.067 283.532 212.398 284.075 212.398 284.97ZM213.723 290.685C213.723 291.354 214.53 291.694 215.994 291.694C217.457 291.694 218.252 291.354 218.252 290.685C218.252 290.017 217.457 289.701 215.994 289.701C214.53 289.701 213.723 290.017 213.723 290.685ZM218.101 288.212V281.615H219.665V283.027H221.141V284.302H219.665V285.475H221.141V286.762H219.665V288.212H218.101ZM222.171 282.296H223.723V283.822H225.956V282.296H227.495V283.267H229.564V281.615H231.141V288.364H229.564V286.85H227.495V287.72H222.171V282.296ZM223.445 290.736C223.445 289.386 224.921 288.566 227.306 288.566C229.69 288.566 231.179 289.386 231.179 290.736C231.179 292.123 229.69 292.918 227.306 292.918C224.921 292.918 223.445 292.123 223.445 290.736ZM223.723 286.484H225.956V285.033H223.723V286.484ZM225.009 290.736C225.009 291.392 225.817 291.732 227.306 291.732C228.807 291.732 229.614 291.392 229.614 290.736C229.614 290.092 228.807 289.764 227.306 289.764C225.817 289.764 225.009 290.092 225.009 290.736ZM227.495 285.588H229.564V284.503H227.495V285.588ZM240.522 281.602H242.074V290.168H240.522V289.247H238.378V288.187H240.522V281.602ZM232.549 286.623C234.618 286.623 237.368 286.598 239.753 286.295L239.854 287.405C238.958 287.556 238.037 287.657 237.129 287.733V289.865H235.564V287.821C234.555 287.859 233.596 287.872 232.751 287.872L232.549 286.623ZM233.369 284.011C233.369 282.813 234.53 281.993 236.182 281.993C237.835 281.993 238.996 282.813 238.996 284.011C238.996 285.223 237.835 286.017 236.182 286.017C234.53 286.017 233.369 285.223 233.369 284.011ZM233.987 292.704V289.361H235.539V291.455H242.339V292.704H233.987ZM234.858 284.011C234.858 284.579 235.413 284.882 236.182 284.882C236.977 284.882 237.52 284.579 237.52 284.011C237.52 283.444 236.977 283.141 236.182 283.141C235.413 283.141 234.858 283.444 234.858 284.011ZM247.823 284.352C248.353 284.352 248.643 284.705 248.643 285.172C248.643 285.639 248.353 285.992 247.823 285.992C247.294 285.992 247.003 285.639 247.003 285.172C247.003 284.705 247.294 284.352 247.823 284.352ZM247.003 289.411C247.003 288.944 247.294 288.591 247.823 288.591C248.353 288.591 248.643 288.944 248.643 289.411C248.643 289.865 248.353 290.231 247.823 290.231C247.294 290.231 247.003 289.865 247.003 289.411Z" fill="#1A1A1A"/>
<path d="M254.685 282.977H255.618V289.184C256.804 289.172 257.952 289.108 259.277 288.831L259.403 289.638C257.952 289.941 256.716 290.004 255.391 290.004H254.685V282.977ZM257.75 286.295V285.513H260.261V282.044H261.157V292.237H260.261V286.295H257.75ZM262.607 292.817V281.779H263.516V292.817H262.607ZM273.112 281.766H274.058V292.83H273.112V281.766ZM265.454 286.472C265.454 284.125 266.615 282.637 268.255 282.637C269.882 282.637 271.043 284.125 271.043 286.472C271.043 288.818 269.882 290.32 268.255 290.32C266.615 290.32 265.454 288.818 265.454 286.472ZM266.375 286.472C266.375 288.276 267.145 289.474 268.255 289.474C269.352 289.474 270.134 288.276 270.134 286.472C270.134 284.668 269.352 283.482 268.255 283.482C267.145 283.482 266.375 284.668 266.375 286.472ZM284.07 281.766H285.004V292.83H284.07V287.014H281.635V286.219H284.07V281.766ZM275.984 289.954C277.573 289.184 278.784 287.292 278.784 285.362V284.466H276.274V283.709H278.784V281.968H279.718V283.709H282.203V284.466H279.718V285.362C279.718 287.203 280.967 289.008 282.569 289.739L282.039 290.471C280.79 289.891 279.756 288.68 279.264 287.216C278.784 288.768 277.762 290.055 276.514 290.673L275.984 289.954Z" fill="#1A1A1A"/>
<path d="M387.142 279.474C391.496 279.474 395.026 283.004 395.026 287.358C395.026 291.713 391.496 295.243 387.142 295.243C382.787 295.243 379.257 291.713 379.257 287.358C379.257 283.004 382.787 279.474 387.142 279.474ZM389.926 284.575C389.695 284.345 389.32 284.345 389.089 284.575L387.142 286.521L385.194 284.575L385.102 284.499C384.872 284.348 384.56 284.374 384.358 284.575C384.156 284.777 384.131 285.089 384.282 285.318L384.358 285.411L386.305 287.358L384.358 289.306C384.128 289.537 384.128 289.912 384.358 290.143C384.589 290.373 384.964 290.373 385.194 290.143L387.142 288.194L389.089 290.143L389.507 289.724L389.926 289.306L387.978 287.358L389.926 285.411C390.156 285.18 390.156 284.806 389.926 284.575ZM389.089 290.143C389.32 290.373 389.695 290.373 389.926 290.143C390.156 289.912 390.156 289.536 389.926 289.306L389.089 290.143Z" fill="#999999"/>
<path d="M408.553 284.867C409.248 281.254 412.71 278.895 416.285 279.597L416.616 279.672C420.003 280.519 422.173 283.912 421.5 287.412L421.427 287.747C421.141 288.911 420.564 289.932 419.791 290.747L422.415 293.928C422.692 294.265 422.646 294.762 422.311 295.039C421.976 295.315 421.48 295.268 421.202 294.931L418.581 291.752C417.204 292.643 415.498 293.022 413.766 292.681L413.434 292.607C410.157 291.787 408.02 288.583 408.496 285.205L408.553 284.867ZM415.987 281.146C413.281 280.614 410.633 282.399 410.099 285.171C409.566 287.942 411.358 290.6 414.064 291.133C416.771 291.665 419.418 289.88 419.952 287.108C420.486 284.336 418.694 281.678 415.987 281.146Z" fill="#333333"/>
</svg>
