<svg width="617" height="227" viewBox="0 0 617 227" fill="none" xmlns="http://www.w3.org/2000/svg">
<g filter="url(#filter0_dd_1099_76424)">
<g clip-path="url(#clip0_1099_76424)">
<path d="M47.5684 56.5233C47.5684 47.4236 54.9451 40.0469 64.0449 40.0469H271.374C280.474 40.0469 287.851 47.4237 287.851 56.5234V194.144C287.851 203.244 280.474 210.62 271.374 210.62H64.0449C54.9451 210.62 47.5684 203.244 47.5684 194.144V56.5233Z" fill="white"/>
<path d="M61.758 61.172H67.8575V62.6388H63.5588V64.8026H67.6542V66.2113H63.5588V68.6802C65.4177 68.6656 66.9426 68.6221 68.6563 68.3461L68.816 69.7694C66.8555 70.0889 65.0837 70.1469 62.8327 70.1469H61.758V61.172ZM69.6002 73.1095V60.0973H71.401V65.064H73.318V66.5453H71.401V73.1095H69.6002ZM82.7422 60.0683H84.5575V73.1241H82.7422V60.0683ZM74.1448 65.6304C74.1448 62.784 75.5971 60.9977 77.5721 60.9977C79.5327 60.9977 80.9704 62.784 80.9704 65.6304C80.9704 68.4914 79.5327 70.2776 77.5721 70.2776C75.5971 70.2776 74.1448 68.4914 74.1448 65.6304ZM75.8875 65.6304C75.8875 67.5764 76.5701 68.6511 77.5721 68.6511C78.5597 68.6511 79.2422 67.5764 79.2422 65.6304C79.2422 63.6844 78.5597 62.6243 77.5721 62.6243C76.5701 62.6243 75.8875 63.6844 75.8875 65.6304ZM87.8096 60.3733H96.7409V61.5932H89.5958V62.2467H96.4505V63.4085H89.5958V64.091H96.8426V65.3109H87.8096V60.3733ZM86.3718 67.257V65.9354H98.0915V67.257H86.3718ZM87.6934 69.1594V67.9105H96.6683V71.0183H89.4797V71.7589H97.0169V73.0079H87.7224V69.8274H94.8966V69.1594H87.6934Z" fill="#333333"/>
<path d="M61.7567 90.4109H62.636V96.2569C63.7529 96.245 64.8342 96.1856 66.0818 95.9242L66.2006 96.6846C64.8342 96.9698 63.6697 97.0292 62.4221 97.0292H61.7567V90.4109ZM64.6441 93.5359V92.7992H67.0086V89.5316H67.8522V99.1323H67.0086V93.5359H64.6441ZM69.2187 99.6789V89.2821H70.0742V99.6789H69.2187ZM72.7559 90.1851H79.7663V90.9099H73.6589V92.5021H79.5405V93.2269H73.6589V94.9023H79.8732V95.639H72.7559V90.1851ZM71.532 98.3125V97.5758H80.9545V98.3125H71.532ZM89.4228 89.2821H90.3139V99.6908H89.4228V97.1005H87.0345V96.3876H89.4228V89.2821ZM81.7707 94.7835C83.7312 94.7835 86.3453 94.7716 88.6148 94.4508L88.6742 95.1043C87.6523 95.2825 86.5829 95.3776 85.5492 95.437V99.3581H84.658V95.4845C83.6599 95.5202 82.7094 95.5321 81.8776 95.5321L81.7707 94.7835ZM82.543 91.8486C82.543 90.6248 83.6124 89.8168 85.1571 89.8168C86.6899 89.8168 87.7474 90.6248 87.7474 91.8486C87.7474 93.0844 86.6899 93.8805 85.1571 93.8805C83.6124 93.8805 82.543 93.0844 82.543 91.8486ZM83.3867 91.8486C83.3867 92.6566 84.1115 93.1913 85.1571 93.1913C86.1908 93.1913 86.9038 92.6566 86.9038 91.8486C86.9038 91.0525 86.1908 90.5059 85.1571 90.5059C84.1115 90.5059 83.3867 91.0525 83.3867 91.8486ZM93.2332 90.3515H100.327V91.6347C100.327 93.1675 100.327 94.5815 99.8991 96.6846L99.0079 96.6015C99.2337 95.6034 99.3406 94.7241 99.4 93.9042L93.0906 94.2488L92.9599 93.5121L99.4238 93.2388C99.4476 92.6922 99.4476 92.1576 99.4476 91.6347V91.0882H93.2332V90.3515ZM92.1044 98.2055V97.457H101.503V98.2055H92.1044ZM109.472 89.2702H110.375V93.524H112.051V94.2726H110.375V99.6789H109.472V89.2702ZM102.474 96.9936C105.147 95.6509 106.597 93.6072 106.799 91.1357H102.949V90.399H107.702C107.702 93.3339 106.324 96.0073 102.973 97.6827L102.474 96.9936ZM122.956 89.294H123.848V96.9698H122.956V94.1419H120.295C119.82 94.7597 119.047 95.1281 118.144 95.1281C116.611 95.1281 115.483 94.0706 115.483 92.5497C115.483 91.0169 116.611 89.9475 118.144 89.9475C119.035 89.9475 119.796 90.3158 120.271 90.9218H122.956V89.294ZM116.326 92.5497C116.326 93.6072 117.099 94.3557 118.144 94.3557C119.178 94.3557 119.962 93.6072 119.962 92.5497C119.962 91.4922 119.178 90.7436 118.144 90.7436C117.099 90.7436 116.326 91.4922 116.326 92.5497ZM117.229 99.4413V96.1737H118.12V98.7046H124.145V99.4413H117.229ZM120.675 91.6585C120.77 91.9318 120.818 92.2288 120.818 92.5497C120.818 92.8586 120.77 93.1438 120.687 93.4052H122.956V91.6585H120.675ZM133.243 89.2821H134.134V94.5934H133.243V93.5002H130.474V92.7873H133.243V91.5159H130.629C129.999 93.1556 128.383 94.2726 126.09 94.831L125.781 94.1062C128.312 93.5002 129.797 92.2288 129.963 90.5416H126.304V89.8049H130.938C130.938 90.1614 130.902 90.4941 130.843 90.8149H133.243V89.2821ZM127.468 95.8054V95.0805H134.134V97.5995H128.371V98.8591H134.49V99.572H127.492V96.9104H133.243V95.8054H127.468ZM136.709 90.2802H141.972V91.005H137.6V93.7854H142.02V94.5221H139.75V96.5896C140.772 96.542 141.782 96.4826 142.745 96.3638L142.816 97.0173C140.535 97.3619 138.039 97.4213 136.055 97.4094L135.936 96.6609C136.839 96.6609 137.837 96.649 138.859 96.6133V94.5221H136.709V90.2802ZM143.434 99.6908V89.2702H144.325V99.6908H143.434ZM146.496 90.3515H152.306V91.1H149.835V92.5021C149.835 94.2726 151.142 96.0549 152.639 96.7084L152.128 97.4213C150.94 96.8629 149.882 95.6509 149.395 94.2132C148.92 95.7459 147.874 97.0767 146.686 97.6708L146.175 96.9698C147.636 96.2569 148.943 94.2963 148.943 92.5021V91.1H146.496V90.3515ZM153.756 99.6789V89.2821H154.647V99.6789H153.756ZM161.976 89.8762C163.533 89.8762 164.661 90.8743 164.661 92.2764C164.661 93.6903 163.533 94.6766 161.976 94.6766C160.455 94.6766 159.314 93.6903 159.314 92.2764C159.314 90.8743 160.455 89.8762 161.976 89.8762ZM160.182 92.2764C160.182 93.2507 160.954 93.9399 161.976 93.9399C163.022 93.9399 163.794 93.2507 163.794 92.2764C163.794 91.3139 163.022 90.6248 161.976 90.6248C160.954 90.6248 160.182 91.3139 160.182 92.2764ZM160.206 99.4056V95.6152H161.073V98.6571C161.667 98.6333 162.475 98.5501 163.212 98.3006L163.366 99.0254C162.356 99.3581 161.37 99.4056 160.705 99.4056H160.206ZM162.986 96.34V95.6747H165.16V94.7241H166.04V95.6747H168.202V96.34H162.986ZM163.687 98.1937C163.687 97.3025 164.471 96.7322 165.6 96.7322C166.717 96.7322 167.513 97.3025 167.513 98.1937C167.513 99.0848 166.717 99.6552 165.6 99.6552C164.471 99.6552 163.687 99.0848 163.687 98.1937ZM164.483 98.1937C164.483 98.6927 164.935 99.0254 165.6 99.0254C166.254 99.0254 166.717 98.6927 166.717 98.1937C166.717 97.6946 166.254 97.3619 165.6 97.3619C164.935 97.3619 164.483 97.6946 164.483 98.1937ZM166.265 94.4627V89.2821H167.157V91.6347H168.713V92.3833H167.157V94.4627H166.265ZM172.298 89.9C173.854 89.9 174.995 90.898 174.995 92.3358C174.995 93.7854 173.854 94.7716 172.298 94.7716C170.741 94.7716 169.601 93.7854 169.601 92.3358C169.601 90.898 170.741 89.9 172.298 89.9ZM169.815 98.8828C171.122 98.3957 171.918 97.2669 171.918 96.2688V95.6865H172.773V96.2688C172.773 97.2074 173.272 98.1937 174.258 98.764C175.257 98.1461 175.767 97.0649 175.767 96.2688V95.6865H176.635V96.2688C176.635 97.35 177.407 98.4313 178.726 98.8828L178.286 99.5482C177.253 99.1799 176.54 98.4551 176.183 97.5758C175.863 98.4194 175.233 99.2274 174.27 99.6433C173.272 99.2512 172.642 98.4788 172.334 97.5995C171.965 98.4432 171.252 99.168 170.266 99.5482L169.815 98.8828ZM170.468 92.3358C170.468 93.3339 171.24 94.023 172.298 94.023C173.355 94.023 174.14 93.3339 174.14 92.3358C174.14 91.3496 173.355 90.6485 172.298 90.6485C171.24 90.6485 170.468 91.3496 170.468 92.3358ZM176.552 95.2112V89.2821H177.443V91.8011H178.999V92.5378H177.443V95.2112H176.552ZM182.43 90.0901C183.844 90.0901 184.865 91.3139 184.996 93.2745H187.325V89.2702H188.204V99.6908H187.325V93.9874H184.996C184.913 96.0311 183.867 97.3263 182.43 97.3263C180.921 97.3263 179.851 95.9123 179.851 93.7022C179.851 91.4922 180.921 90.0901 182.43 90.0901ZM180.695 93.7022C180.695 95.4014 181.408 96.5302 182.43 96.5302C183.463 96.5302 184.164 95.4014 184.164 93.7022C184.164 92.0031 183.463 90.8862 182.43 90.8862C181.408 90.8862 180.695 92.0031 180.695 93.7022ZM189.959 97.5877H192.3V94.7478C191.421 94.2963 190.886 93.5478 190.886 92.6091C190.886 90.9931 192.466 89.9475 194.653 89.9475C196.863 89.9475 198.419 90.9931 198.419 92.6091C198.419 93.5359 197.896 94.2726 197.041 94.736V97.5877H199.382V98.3244H189.959V97.5877ZM191.753 92.6091C191.753 93.7854 192.965 94.5577 194.653 94.5577C196.34 94.5577 197.564 93.7854 197.564 92.6091C197.564 91.4327 196.34 90.6604 194.653 90.6604C192.965 90.6604 191.753 91.4327 191.753 92.6091ZM193.179 97.5877H196.15V95.0805C195.698 95.1994 195.199 95.2588 194.653 95.2588C194.118 95.2588 193.631 95.1994 193.179 95.0805V97.5877ZM72.9734 108.233L70.3594 116.812H69.4682L67.2938 109.718L65.155 116.812H64.252L61.6379 108.233H62.5291L64.7035 115.338L66.8541 108.233H67.7334L69.9078 115.338L72.0823 108.233H72.9734ZM74.1644 110.764H75.02V116.812H74.1644V110.764ZM74.0456 108.565C74.0456 108.268 74.2357 108.031 74.5922 108.031C74.9368 108.031 75.1269 108.268 75.1269 108.565C75.1269 108.874 74.9368 109.112 74.5922 109.112C74.2357 109.112 74.0456 108.874 74.0456 108.565ZM76.5585 112.011H81.5728V112.855H76.5585V112.011ZM88.7043 108.233V109.064H84.1297V112.094H87.9082V112.926H84.1297V116.812H83.2742V108.233H88.7043ZM90.0196 110.764H90.8751V116.812H90.0196V110.764ZM89.9008 108.565C89.9008 108.268 90.0909 108.031 90.4474 108.031C90.7919 108.031 90.9821 108.268 90.9821 108.565C90.9821 108.874 90.7919 109.112 90.4474 109.112C90.0909 109.112 89.9008 108.874 89.9008 108.565ZM99.6515 108.256H103.264V108.993H100.531V112.13H103.382V112.855H99.6515V108.256ZM94.6967 116.336V115.588H98.9505V113.378H99.8297V115.588H104.119V116.336H94.6967ZM95.5284 112.855V108.268H99.0099V109.017H96.4077V112.106C97.287 112.094 98.1544 112.047 99.1168 111.809L99.2 112.57C98.0712 112.819 97.1087 112.855 96.0869 112.855H95.5284ZM106.266 107.662H107.145V110.443H113.312V111.168H106.266V107.662ZM104.983 113.33V112.593H114.405V113.33H104.983ZM106.207 117.429V114.388H107.086V116.693H113.372V117.429H106.207ZM125.87 107.282H126.725V117.679H125.87V107.282ZM118.301 115.16V108.565H122.21V109.302H119.18V114.411C120.677 114.411 121.628 114.352 122.733 114.102L122.828 114.851C121.64 115.112 120.63 115.16 118.966 115.16H118.301ZM121.497 112.011V111.263H123.778V107.532H124.622V117.132H123.778V112.011H121.497ZM135.787 107.27H136.679V117.691H135.787V107.27ZM128.575 111.702C128.575 109.492 129.668 108.09 131.213 108.09C132.746 108.09 133.839 109.492 133.839 111.702C133.839 113.912 132.746 115.326 131.213 115.326C129.668 115.326 128.575 113.912 128.575 111.702ZM129.442 111.702C129.442 113.401 130.167 114.53 131.213 114.53C132.247 114.53 132.983 113.401 132.983 111.702C132.983 110.003 132.247 108.886 131.213 108.886C130.167 108.886 129.442 110.003 129.442 111.702ZM146.133 107.27H147.012V117.691H146.133V111.964H143.935V111.239H146.133V107.27ZM138.956 115.184V108.245H143.757V108.981H139.836V111.156H143.293V111.88H139.836V114.435C141.76 114.435 142.984 114.388 144.41 114.114L144.505 114.851C143.008 115.112 141.749 115.184 139.74 115.184H138.956ZM148.767 112.142H158.19V112.819H148.767V112.142ZM149.896 114.34V113.687H157.001V115.885H150.799V116.883H157.334V117.548H149.92V115.255H156.134V114.34H149.896ZM149.967 108.256V107.603H156.966V109.742H150.858V110.668H157.156V111.334H149.991V109.124H156.087V108.256H149.967ZM168.834 107.294H169.725V110.455H171.282V111.191H169.725V114.245H168.834V107.294ZM161.645 113.211C162.477 113.211 163.451 113.211 164.461 113.176V112.391C163.261 112.296 162.489 111.738 162.489 110.87C162.489 109.92 163.439 109.338 164.889 109.338C166.351 109.338 167.301 109.92 167.301 110.87C167.301 111.726 166.541 112.284 165.341 112.391V113.14C166.315 113.092 167.289 113.009 168.204 112.879L168.275 113.52C166.042 113.924 163.57 113.936 161.764 113.936L161.645 113.211ZM161.907 108.922V108.245H164.461V107.199H165.341V108.245H167.883V108.922H161.907ZM162.917 115.493V114.78H169.725V117.679H168.834V115.493H162.917ZM163.333 110.87C163.333 111.417 163.939 111.797 164.889 111.797C165.852 111.797 166.458 111.417 166.458 110.87C166.458 110.312 165.852 109.956 164.889 109.956C163.939 109.956 163.333 110.312 163.333 110.87ZM179.584 107.294H180.487V114.887H179.584V107.294ZM172.217 110.573C172.217 109.064 173.381 108.019 174.914 108.019C176.459 108.019 177.611 109.064 177.611 110.573C177.611 112.059 176.459 113.116 174.914 113.116C173.381 113.116 172.217 112.059 172.217 110.573ZM173.084 110.573C173.084 111.595 173.88 112.332 174.914 112.332C175.96 112.332 176.756 111.595 176.756 110.573C176.756 109.528 175.96 108.791 174.914 108.791C173.88 108.791 173.084 109.528 173.084 110.573ZM173.845 117.441V114.114H174.724V116.705H180.807V117.441H173.845ZM182.241 109.088H184.392V107.579H185.271V109.088H187.41V109.813H182.241V109.088ZM182.61 112.89C182.61 111.512 183.537 110.538 184.832 110.538C186.127 110.538 187.066 111.512 187.066 112.89C187.066 114.293 186.127 115.255 184.832 115.255C183.537 115.255 182.61 114.293 182.61 112.89ZM183.406 112.89C183.406 113.829 184 114.495 184.832 114.495C185.664 114.495 186.269 113.829 186.269 112.89C186.269 111.964 185.664 111.286 184.832 111.286C184 111.286 183.406 111.964 183.406 112.89ZM187.957 117.156V107.532H188.8V111.678H190.191V107.282H191.034V117.679H190.191V112.415H188.8V117.156H187.957ZM192.551 113.235H201.95V113.972H197.673V117.679H196.793V113.972H192.551V113.235ZM193.122 111.607C194.892 111.346 196.758 110.158 196.758 108.755V108.672H193.443V107.947H201.035V108.672H197.744V108.755C197.744 110.158 199.609 111.346 201.38 111.607L201.035 112.332C199.455 112.059 197.875 111.179 197.257 109.92C196.627 111.179 195.047 112.059 193.466 112.332L193.122 111.607ZM206.925 111.025H208.684V107.52H209.515V117.144H208.684V111.774H206.925V111.025ZM202.719 114.756C204.133 113.924 205.024 112.059 205.024 110.276V108.28H205.879V110.253C205.879 111.904 206.699 113.687 208.066 114.506L207.543 115.196C206.545 114.601 205.832 113.473 205.464 112.213C205.083 113.591 204.311 114.792 203.277 115.421L202.719 114.756ZM210.799 117.679V107.282H211.654V117.679H210.799ZM213.124 115.588H215.465V112.748C214.585 112.296 214.051 111.548 214.051 110.609C214.051 108.993 215.631 107.947 217.817 107.947C220.027 107.947 221.584 108.993 221.584 110.609C221.584 111.536 221.061 112.273 220.206 112.736V115.588H222.546V116.324H213.124V115.588ZM214.918 110.609C214.918 111.785 216.13 112.558 217.817 112.558C219.505 112.558 220.728 111.785 220.728 110.609C220.728 109.433 219.505 108.66 217.817 108.66C216.13 108.66 214.918 109.433 214.918 110.609ZM216.344 115.588H219.314V113.081C218.863 113.199 218.364 113.259 217.817 113.259C217.283 113.259 216.795 113.199 216.344 113.081V115.588ZM62.0062 130.522C62.0062 128.764 62.5409 127.124 63.444 125.698H64.4064C63.3846 127.1 62.7905 128.752 62.7905 130.522C62.7905 132.293 63.3846 133.944 64.4064 135.346H63.444C62.5409 133.92 62.0062 132.281 62.0062 130.522ZM68.5504 130.76H69.4535V132.697C70.4516 132.649 71.4615 132.566 72.4121 132.411L72.4834 133.065C70.1426 133.504 67.588 133.516 65.7225 133.516L65.6037 132.768C66.4592 132.768 67.481 132.768 68.5504 132.732V130.76ZM65.9245 130.415C67.4454 129.952 68.5267 128.799 68.5504 127.385H66.1621V126.649H68.5504V125.353H69.4535V126.649H71.8774V127.385H69.4416C69.4654 128.752 70.5823 129.857 72.0913 130.308L71.6754 130.997C70.4516 130.617 69.4654 129.821 69.002 128.752C68.5623 129.869 67.5761 130.712 66.3404 131.116L65.9245 130.415ZM73.1013 135.691V125.27H73.9924V135.691H73.1013ZM83.7915 125.282H84.647V135.679H83.7915V130.213H82.2706V135.132H81.4388V125.52H82.2706V129.465H83.7915V125.282ZM76.2345 133.089V126.553H80.0843V127.29H77.1137V132.34C78.5396 132.34 79.5377 132.281 80.6665 132.043L80.7734 132.78C79.5258 133.041 78.4802 133.089 76.8999 133.089H76.2345ZM90.216 129.025H91.9746V125.52H92.8063V135.144H91.9746V129.774H90.216V129.025ZM86.0097 132.756C87.4237 131.924 88.3149 130.059 88.3149 128.276V126.28H89.1704V128.253C89.1704 129.904 89.9902 131.687 91.3567 132.506L90.8339 133.196C89.8358 132.601 89.1229 131.473 88.7545 130.213C88.3743 131.591 87.6019 132.792 86.5682 133.421L86.0097 132.756ZM94.0896 135.679V125.282H94.9451V135.679H94.0896ZM96.4148 129.643H105.802V130.368H101.548V131.437H104.59V133.79H98.4585V134.859H104.91V135.56H97.5911V133.136H103.722V132.126H97.5555V131.437H100.657V130.368H96.4148V129.643ZM96.9257 128.431C98.7318 128.264 100.478 127.468 100.585 126.363H97.2822V125.639H104.958V126.363H101.643C101.75 127.468 103.497 128.264 105.303 128.431L105.006 129.108C103.342 128.93 101.738 128.276 101.12 127.231C100.502 128.276 98.8981 128.93 97.2228 129.108L96.9257 128.431ZM113.973 125.282H114.852V129.583H116.432V130.332H114.852V135.679H113.973V125.282ZM106.677 132.815C108.246 131.199 108.887 129.227 108.994 127.148H106.998V126.411H109.826C109.826 128.87 109.268 131.318 107.39 133.326L106.677 132.815ZM109.648 133.516C111.264 131.663 111.751 129.31 111.822 127.148H110.159V126.411H112.666C112.666 128.859 112.297 131.746 110.373 134.015L109.648 133.516ZM117.308 126.351H123.118V127.1H120.647V128.502C120.647 130.273 121.954 132.055 123.451 132.708L122.94 133.421C121.752 132.863 120.694 131.651 120.207 130.213C119.732 131.746 118.686 133.077 117.498 133.671L116.987 132.97C118.449 132.257 119.756 130.296 119.756 128.502V127.1H117.308V126.351ZM124.568 135.679V125.282H125.459V135.679H124.568ZM136.995 125.27H137.898V129.524H139.573V130.273H137.898V135.679H136.995V125.27ZM129.996 132.994C132.669 131.651 134.119 129.607 134.321 127.136H130.471V126.399H135.224C135.224 129.334 133.846 132.007 130.495 133.683L129.996 132.994ZM141.494 125.496H142.373V128.205H148.528V128.942H141.494V125.496ZM140.211 130.914V130.178H149.598V130.914H140.211ZM141.34 133.754C141.34 132.554 142.671 131.877 144.892 131.877C147.103 131.877 148.445 132.554 148.445 133.754C148.445 134.954 147.103 135.643 144.892 135.643C142.671 135.643 141.34 134.954 141.34 133.754ZM142.231 133.754C142.231 134.503 143.241 134.93 144.892 134.93C146.544 134.93 147.542 134.503 147.542 133.754C147.542 133.005 146.544 132.578 144.892 132.578C143.241 132.578 142.231 133.005 142.231 133.754ZM153.171 130.522C153.171 132.281 152.648 133.92 151.745 135.346H150.782C151.804 133.944 152.386 132.293 152.386 130.522C152.386 128.752 151.804 127.1 150.782 125.698H151.745C152.648 127.124 153.171 128.764 153.171 130.522Z" fill="#333333"/>
<path d="M60.7705 164.627C60.7705 162.588 62.4236 160.935 64.4628 160.935H161.377C163.416 160.935 165.069 162.588 165.069 164.627V193.726C165.069 195.765 163.416 197.418 161.377 197.418H64.4628C62.4236 197.418 60.7705 195.765 60.7705 193.726V164.627Z" fill="#EEEEEE"/>
<path d="M103.489 174.668H105.652V173.587H106.935V174.668H109.121V175.666H106.935C106.947 176.593 107.803 177.413 109.335 177.734L108.824 178.72C107.636 178.47 106.781 177.888 106.329 177.14C105.866 177.971 104.998 178.589 103.751 178.863L103.228 177.876C104.808 177.544 105.652 176.653 105.664 175.666H103.489V174.668ZM102.824 179.433C104.773 179.433 107.387 179.421 109.632 179.112L109.716 180.051C108.801 180.205 107.862 180.312 106.935 180.372V183.817H105.652V180.443C104.689 180.479 103.786 180.49 102.978 180.49L102.824 179.433ZM110.31 184.126V173.563H111.569V184.126H110.31ZM113.11 181.774H117.221V179.338H118.481V181.774H122.675V182.819H113.11V181.774ZM113.407 178.518C115.57 178.15 117.174 176.557 117.174 174.977V174.193H118.528V174.977C118.528 176.581 120.132 178.15 122.307 178.518L121.76 179.587C119.99 179.243 118.54 178.209 117.851 176.819C117.15 178.197 115.7 179.243 113.93 179.587L113.407 178.518Z" fill="#333333"/>
<path d="M170.35 164.627C170.35 162.588 172.003 160.935 174.042 160.935H270.956C272.995 160.935 274.648 162.588 274.648 164.627V193.726C274.648 195.765 272.995 197.418 270.956 197.418H174.042C172.003 197.418 170.35 195.765 170.35 193.726V164.627Z" fill="#FF8120"/>
<path d="M219.425 173.575H220.697V176.664H222.134V177.71H220.697V180.716H219.425V173.575ZM212.308 179.457C213.104 179.457 214.007 179.457 214.958 179.433V178.768C213.793 178.625 213.068 178.066 213.068 177.235C213.068 176.26 214.067 175.666 215.587 175.666C217.12 175.666 218.106 176.26 218.106 177.235C218.106 178.066 217.393 178.625 216.229 178.768V179.385C217.132 179.338 218.047 179.267 218.891 179.16L218.986 180.051C216.752 180.443 214.304 180.455 212.462 180.467L212.308 179.457ZM212.569 175.345V174.419H214.958V173.48H216.229V174.419H218.605V175.345H212.569ZM213.627 182.178V181.18H220.697V184.126H219.425V182.178H213.627ZM214.28 177.235C214.28 177.674 214.779 177.96 215.587 177.96C216.407 177.96 216.906 177.674 216.906 177.235C216.906 176.771 216.407 176.51 215.587 176.51C214.779 176.51 214.28 176.771 214.28 177.235ZM230.127 173.575H231.411V181.203H230.127V173.575ZM222.879 176.914C222.879 175.357 224.103 174.264 225.695 174.264C227.299 174.264 228.511 175.357 228.511 176.914C228.511 178.447 227.299 179.552 225.695 179.552C224.103 179.552 222.879 178.447 222.879 176.914ZM224.127 176.914C224.127 177.841 224.804 178.435 225.695 178.435C226.587 178.435 227.276 177.841 227.276 176.914C227.276 175.963 226.587 175.369 225.695 175.369C224.804 175.369 224.127 175.963 224.127 176.914ZM224.495 183.924V180.443H225.767V182.891H231.708V183.924H224.495Z" fill="white"/>
</g>
</g>
<rect x="164.479" width="17.163" height="17.163" rx="8.58151" fill="#333333"/>
<path d="M174.358 4.27415V12.6268L172.985 12.6154V5.7845L171.486 6.47102L170.971 5.2124L172.985 4.27415H174.358Z" fill="white"/>
<path d="M176.874 45.6045C176.874 43.4981 175.166 41.7905 173.06 41.7905C170.953 41.7905 169.246 43.4981 169.246 45.6045C169.246 47.7109 170.953 49.4185 173.06 49.4185C175.166 49.4185 176.874 47.7109 176.874 45.6045ZM173.06 45.6045L173.775 45.6045L173.775 17.1625L173.06 17.1625L172.344 17.1625L172.344 45.6045L173.06 45.6045Z" fill="#333333"/>
<rect y="57.21" width="17.163" height="17.163" rx="8.58151" fill="#333333"/>
<path d="M5.79046 68.4637C7.47244 66.8504 9.6693 65.5575 9.6693 64.1959C9.6693 63.2004 9.06288 62.7771 8.3077 62.7771C7.8157 62.7771 7.19783 62.9601 6.82024 63.784L5.57306 63.2233C6.22526 61.7702 7.56397 61.404 8.3077 61.404C9.60065 61.404 11.0423 62.4109 11.0423 64.1959C11.0423 65.9236 9.36037 67.2623 7.89579 68.4637H11.1682V69.8368H5.79046V68.4637Z" fill="white"/>
<path d="M57.2109 61.978C55.1045 61.978 53.3969 63.6856 53.3969 65.792C53.3969 67.8984 55.1045 69.606 57.2109 69.606C59.3174 69.606 61.0249 67.8984 61.0249 65.792C61.0249 63.6856 59.3174 61.978 57.2109 61.978ZM57.2109 65.792V65.0769H17.1639V65.792V66.5071H57.2109V65.792Z" fill="#333333"/>
<rect y="110.13" width="17.163" height="17.163" rx="8.58151" fill="#333333"/>
<path d="M10.0354 118.432C10.7677 118.855 11.3398 119.564 11.3398 120.4C11.3398 121.796 10.1956 122.825 8.44501 122.825C6.70582 122.825 5.57306 121.796 5.57306 120.297H6.9461C6.9461 120.915 7.3809 121.498 8.44501 121.498C9.52056 121.498 10.0126 120.915 10.0126 120.297C10.0126 119.667 9.62354 119.049 8.46789 119.049H7.88435V117.825H8.49078C9.44046 117.825 9.8867 117.265 9.8867 116.704C9.8867 116.166 9.46335 115.663 8.5251 115.663C7.57541 115.663 7.19783 116.166 7.19783 116.715H5.82479C5.82479 115.297 6.92322 114.335 8.5251 114.335C10.1041 114.335 11.2025 115.297 11.2025 116.612C11.2025 117.379 10.7105 118.02 10.0354 118.432Z" fill="white"/>
<path d="M57.2109 114.897C55.1045 114.897 53.3969 116.605 53.3969 118.711C53.3969 120.817 55.1045 122.525 57.2109 122.525C59.3174 122.525 61.0249 120.817 61.0249 118.711C61.0249 116.605 59.3174 114.897 57.2109 114.897ZM57.2109 118.711V117.996H17.1639V118.711V119.426H57.2109V118.711Z" fill="#333333"/>
<rect x="301.783" y="171.63" width="17.163" height="17.163" rx="8.58151" fill="#333333"/>
<path d="M311.902 175.904V180.996H312.886V182.346H311.902V184.257H310.541V182.346H306.856V180.996L310.598 175.904H311.902ZM308.458 180.996H310.541V178.158L308.458 180.996Z" fill="white"/>
<path d="M273.178 184.025C275.284 184.025 276.992 182.317 276.992 180.211C276.992 178.105 275.284 176.397 273.178 176.397C271.071 176.397 269.364 178.105 269.364 180.211C269.364 182.317 271.071 184.025 273.178 184.025ZM273.178 180.211L273.178 180.926L301.62 180.926L301.62 180.211L301.62 179.496L273.178 179.496L273.178 180.211Z" fill="#333333"/>
<rect x="399.041" y="72.9424" width="17.163" height="17.163" rx="8.58151" fill="#333333"/>
<path d="M408.921 77.2165V85.5692L407.548 85.5578V78.7269L406.049 79.4134L405.534 78.1548L407.548 77.2165H408.921Z" fill="white"/>
<path d="M411.436 118.547C411.436 116.44 409.728 114.733 407.622 114.733C405.516 114.733 403.808 116.44 403.808 118.547C403.808 120.653 405.516 122.361 407.622 122.361C409.728 122.361 411.436 120.653 411.436 118.547ZM407.622 118.547L408.337 118.547L408.337 90.1049L407.622 90.1049L406.907 90.1049L406.907 118.547L407.622 118.547Z" fill="#333333"/>
<rect x="502.019" y="72.9424" width="17.163" height="17.163" rx="8.58151" fill="#333333"/>
<path d="M507.809 84.1962C509.491 82.5828 511.688 81.2899 511.688 79.9283C511.688 78.9328 511.081 78.5095 510.326 78.5095C509.834 78.5095 509.216 78.6926 508.839 79.5164L507.592 78.9557C508.244 77.5026 509.583 77.1364 510.326 77.1364C511.619 77.1364 513.061 78.1433 513.061 79.9283C513.061 81.656 511.379 82.9948 509.914 84.1962H513.187V85.5692H507.809V84.1962Z" fill="white"/>
<path d="M514.414 118.547C514.414 116.44 512.706 114.733 510.6 114.733C508.493 114.733 506.786 116.44 506.786 118.547C506.786 120.653 508.493 122.361 510.6 122.361C512.706 122.361 514.414 120.653 514.414 118.547ZM510.6 118.547L511.315 118.547L511.315 90.1049L510.6 90.1049L509.884 90.1049L509.884 118.547L510.6 118.547Z" fill="#333333"/>
<g opacity="0.8">
<path d="M387.6 120.713C387.6 115.658 391.698 111.56 396.753 111.56H607.286C612.342 111.56 616.44 115.658 616.44 120.713V156.732C616.44 161.787 612.342 165.886 607.286 165.886H396.753C391.698 165.886 387.6 161.787 387.6 156.732V120.713Z" fill="#1A1A1A"/>
<path d="M441.306 133.429V134.33H438.397V142.723H437.47V134.33H434.574V133.429H441.306ZM444.266 141.873C445.708 141.873 446.467 140.818 446.467 139.453C446.467 138.089 445.708 137.033 444.266 137.033C442.811 137.033 442.078 138.089 442.078 139.453C442.078 140.818 442.811 141.873 444.266 141.873ZM441.151 139.453C441.151 137.664 442.258 136.132 444.266 136.132C446.287 136.132 447.394 137.664 447.394 139.453C447.394 141.242 446.287 142.774 444.266 142.774C442.258 142.774 441.151 141.242 441.151 139.453ZM451.525 141.886C452.684 141.886 453.726 140.946 453.739 139.505C453.726 138.076 452.684 137.123 451.525 137.123C450.096 137.123 449.324 138.153 449.324 139.505C449.324 140.856 450.096 141.886 451.525 141.886ZM448.397 139.505C448.397 137.715 449.517 136.209 451.512 136.209C452.272 136.209 453.121 136.608 453.714 137.561V136.171H454.64V142.723H453.714V141.435C453.096 142.439 452.285 142.813 451.512 142.813C449.517 142.813 448.397 141.281 448.397 139.505ZM456.87 140.946C457.128 141.538 457.733 141.886 458.518 141.847C459.651 141.822 460.101 140.419 458.943 140.045C458.518 139.917 457.746 139.711 457.115 139.299C456.136 138.642 456.149 137.677 456.445 137.085C456.844 136.299 457.861 136.068 458.453 136.119C459.007 136.184 459.779 136.377 460.268 137.033L459.522 137.574C459.252 137.2 458.814 137.085 458.376 137.033C457.977 136.994 457.449 137.136 457.256 137.497C457.089 137.844 457.102 138.192 457.63 138.539C458.132 138.874 458.775 139.028 459.226 139.183C461.388 139.878 460.693 142.71 458.544 142.761C457.462 142.813 456.433 142.246 456.034 141.307L456.87 140.946ZM465.137 142.581C464.905 142.633 464.558 142.697 464.184 142.697C463.206 142.697 462.421 141.912 462.421 140.946V137.02H461.352V136.119H462.421V134.098H463.348V136.119H464.879V137.02H463.348V140.946C463.348 141.461 463.657 141.77 464.184 141.77C464.48 141.77 464.725 141.731 464.931 141.68L465.137 142.581ZM475.795 133.429V134.33H470.839V137.612H474.933V138.513H470.839V142.723H469.913V133.429H475.795ZM479.398 141.873C480.84 141.873 481.599 140.818 481.599 139.453C481.599 138.089 480.84 137.033 479.398 137.033C477.944 137.033 477.21 138.089 477.21 139.453C477.21 140.818 477.944 141.873 479.398 141.873ZM476.283 139.453C476.283 137.664 477.39 136.132 479.398 136.132C481.419 136.132 482.526 137.664 482.526 139.453C482.526 141.242 481.419 142.774 479.398 142.774C477.39 142.774 476.283 141.242 476.283 139.453ZM484.637 137.548C485.01 136.686 486.078 136.106 486.966 136.106V137.059C485.769 137.059 484.637 138.307 484.637 139.35V142.723H483.71V136.171H484.637V137.548ZM492.041 140.444C492.465 141.384 493.354 141.937 494.538 141.912C496.546 141.847 497.087 139.273 495.169 138.758C494.551 138.526 493.534 138.243 492.646 137.638C491.358 136.75 491.371 135.45 491.758 134.626C492.272 133.545 493.65 133.236 494.422 133.3C495.182 133.352 496.211 133.661 496.842 134.575L496.07 135.089C495.645 134.484 494.988 134.278 494.345 134.227C493.766 134.201 492.929 134.381 492.607 135.012C492.35 135.604 492.35 136.287 493.161 136.866C493.92 137.394 494.834 137.651 495.478 137.883C498.387 138.771 497.563 142.748 494.564 142.839C493.083 142.89 491.732 142.105 491.191 140.805L492.041 140.444ZM501.506 141.86C502.175 141.86 502.793 141.603 503.231 141.165L503.926 141.783C503.308 142.401 502.484 142.787 501.557 142.787C499.446 142.787 498.223 141.229 498.223 139.337C498.223 137.458 499.446 135.9 501.557 135.9C502.484 135.9 503.308 136.287 503.926 136.904L503.231 137.522C502.793 137.085 502.175 136.827 501.506 136.827C499.987 136.827 499.15 137.947 499.15 139.337C499.15 140.74 499.987 141.86 501.506 141.86ZM509.68 138.99C509.577 138.063 509.127 137.072 507.737 137.072C506.514 137.072 505.729 137.728 505.561 139.003L509.68 138.99ZM504.609 139.453C504.609 137.651 505.69 136.145 507.698 136.145C509.783 136.145 510.311 137.767 510.375 137.921C510.762 138.977 510.607 139.904 510.607 139.904H505.561C505.729 141.114 506.514 141.834 507.711 141.834C509.191 141.834 509.552 141.024 509.642 140.895L510.44 141.32C510.44 141.32 509.899 142.761 507.698 142.761C505.69 142.761 504.609 141.242 504.609 139.453ZM516.726 138.99C516.623 138.063 516.172 137.072 514.782 137.072C513.559 137.072 512.774 137.728 512.607 139.003L516.726 138.99ZM511.654 139.453C511.654 137.651 512.735 136.145 514.743 136.145C516.829 136.145 517.357 137.767 517.421 137.921C517.807 138.977 517.653 139.904 517.653 139.904H512.607C512.774 141.114 513.559 141.834 514.756 141.834C516.237 141.834 516.597 141.024 516.687 140.895L517.485 141.32C517.485 141.32 516.945 142.761 514.743 142.761C512.735 142.761 511.654 141.242 511.654 139.453ZM523.514 138.861C523.514 137.805 522.896 137.072 521.815 137.072C520.695 137.072 519.871 138.114 519.871 138.99V142.723H518.944V136.171H519.871V137.291C520.309 136.647 520.952 136.171 521.853 136.171C523.385 136.171 524.441 137.329 524.441 138.771V142.723H523.514V138.861ZM529.053 142.723V133.429H532.516C533.932 133.429 535.065 134.536 535.065 135.952C535.065 136.686 534.717 137.303 534.215 137.754C534.292 137.793 534.357 137.844 534.434 137.883C535.129 138.333 535.67 139.157 535.67 140.135C535.67 141.564 534.524 142.723 533.108 142.723H529.053ZM529.98 141.822H533.121C534.035 141.822 534.769 141.101 534.769 140.161C534.769 139.144 534.035 138.372 533.121 138.372H529.98V141.822ZM529.98 137.471H532.619C533.494 137.432 534.176 136.801 534.176 135.926C534.176 134.999 533.443 134.33 532.529 134.33H529.98V137.471ZM539.921 141.873C541.363 141.873 542.122 140.818 542.122 139.453C542.122 138.089 541.363 137.033 539.921 137.033C538.467 137.033 537.733 138.089 537.733 139.453C537.733 140.818 538.467 141.873 539.921 141.873ZM536.806 139.453C536.806 137.664 537.913 136.132 539.921 136.132C541.942 136.132 543.049 137.664 543.049 139.453C543.049 141.242 541.942 142.774 539.921 142.774C537.913 142.774 536.806 141.242 536.806 139.453ZM547.393 142.581C547.161 142.633 546.814 142.697 546.44 142.697C545.462 142.697 544.677 141.912 544.677 140.946V137.02H543.608V136.119H544.677V134.098H545.604V136.119H547.135V137.02H545.604V140.946C545.604 141.461 545.913 141.77 546.44 141.77C546.736 141.77 546.981 141.731 547.187 141.68L547.393 142.581ZM551.635 142.581C551.403 142.633 551.056 142.697 550.683 142.697C549.704 142.697 548.919 141.912 548.919 140.946V137.02H547.851V136.119H548.919V134.098H549.846V136.119H551.378V137.02H549.846V140.946C549.846 141.461 550.155 141.77 550.683 141.77C550.979 141.77 551.223 141.731 551.429 141.68L551.635 142.581ZM555.526 141.873C556.968 141.873 557.728 140.818 557.728 139.453C557.728 138.089 556.968 137.033 555.526 137.033C554.072 137.033 553.338 138.089 553.338 139.453C553.338 140.818 554.072 141.873 555.526 141.873ZM552.411 139.453C552.411 137.664 553.518 136.132 555.526 136.132C557.547 136.132 558.654 137.664 558.654 139.453C558.654 141.242 557.547 142.774 555.526 142.774C553.518 142.774 552.411 141.242 552.411 139.453ZM568.45 138.707C568.45 137.664 567.819 137.072 566.892 137.072C566.03 137.072 565.141 137.883 565.141 138.707V142.723H564.215V138.707C564.215 137.883 563.687 137.072 562.683 137.072C561.769 137.072 560.919 137.883 560.919 138.809V142.723H559.992V136.171H560.919V137.303C561.331 136.595 561.936 136.171 562.721 136.171C563.674 136.171 564.305 136.583 564.768 137.484C565.244 136.814 565.901 136.171 566.931 136.171C568.269 136.171 569.376 137.252 569.376 138.604V142.723H568.45V138.707Z" fill="white"/>
</g>
<defs>
<filter id="filter0_dd_1099_76424" x="37.0065" y="34.7659" width="261.406" height="191.697" filterUnits="userSpaceOnUse" color-interpolation-filters="sRGB">
<feFlood flood-opacity="0" result="BackgroundImageFix"/>
<feColorMatrix in="SourceAlpha" type="matrix" values="0 0 0 0 0 0 0 0 0 0 0 0 0 0 0 0 0 0 127 0" result="hardAlpha"/>
<feOffset/>
<feGaussianBlur stdDeviation="2.64047"/>
<feComposite in2="hardAlpha" operator="out"/>
<feColorMatrix type="matrix" values="0 0 0 0 0 0 0 0 0 0 0 0 0 0 0 0 0 0 0.12 0"/>
<feBlend mode="normal" in2="BackgroundImageFix" result="effect1_dropShadow_1099_76424"/>
<feColorMatrix in="SourceAlpha" type="matrix" values="0 0 0 0 0 0 0 0 0 0 0 0 0 0 0 0 0 0 127 0" result="hardAlpha"/>
<feOffset dy="5.28093"/>
<feGaussianBlur stdDeviation="5.28093"/>
<feComposite in2="hardAlpha" operator="out"/>
<feColorMatrix type="matrix" values="0 0 0 0 0 0 0 0 0 0 0 0 0 0 0 0 0 0 0.12 0"/>
<feBlend mode="normal" in2="effect1_dropShadow_1099_76424" result="effect2_dropShadow_1099_76424"/>
<feBlend mode="normal" in="SourceGraphic" in2="effect2_dropShadow_1099_76424" result="shape"/>
</filter>
<clipPath id="clip0_1099_76424">
<path d="M47.5684 56.5233C47.5684 47.4236 54.9451 40.0469 64.0449 40.0469H271.374C280.474 40.0469 287.851 47.4237 287.851 56.5234V194.144C287.851 203.244 280.474 210.62 271.374 210.62H64.0449C54.9451 210.62 47.5684 203.244 47.5684 194.144V56.5233Z" fill="white"/>
</clipPath>
</defs>
</svg>
