<svg width="97" height="27" viewBox="0 0 97 27" fill="none" xmlns="http://www.w3.org/2000/svg">
<path d="M3.204 6.878V18.29H9.774V20.126H1.332V6.878H3.204ZM11.9758 10.694H13.8478V20.162H11.9758V10.694ZM11.8318 7.31C11.8318 6.716 12.2098 6.248 12.9118 6.248C13.5778 6.248 13.9558 6.716 13.9558 7.31C13.9558 7.904 13.5778 8.372 12.9118 8.372C12.2098 8.372 11.8318 7.904 11.8318 7.31ZM22.7347 14.906C22.7347 13.484 21.9247 12.584 20.4487 12.584C19.0627 12.584 18.0007 13.754 18.0187 15.014V20.126H16.1467V10.73H18.0187V12.224C18.6487 11.324 19.4767 10.73 20.6647 10.73C22.5007 10.73 24.6067 12.134 24.6067 14.834V20.126H22.7347V14.906ZM28.5055 6.5V14.96L32.1595 10.766H34.6795L31.0255 14.906L34.6435 20.162H32.3755L29.6935 16.274L28.5055 17.696V20.162H26.6335V6.5H28.5055ZM49.9305 6.878V8.714H46.0605V20.126H44.1885V8.714H40.3005V6.878H49.9305ZM56.6426 14.69C56.4986 13.448 55.7426 12.422 54.1586 12.422C52.7006 12.422 51.6386 13.16 51.4226 14.69H56.6426ZM49.6226 15.446C49.6226 12.872 51.2246 10.694 54.1226 10.694C57.1106 10.694 57.9566 13.07 58.0286 13.25C58.5866 14.708 58.4246 16.274 58.4246 16.274H51.4226C51.7106 17.624 52.6646 18.452 54.1406 18.452C55.9586 18.452 56.3726 17.444 56.4446 17.336L58.0826 18.092C58.0826 18.092 57.2726 20.18 54.1226 20.18C51.2246 20.18 49.6226 18.002 49.6226 15.446ZM68.4227 10.73L64.9127 15.428L68.3867 20.126H66.0827L63.8147 16.94L61.6007 20.126H59.2607L62.6987 15.428L59.2067 10.73H61.5467L63.8147 13.988L66.1007 10.73H68.4227ZM75.195 19.892C74.817 19.982 74.025 20.126 73.395 20.09C71.991 20.018 70.659 18.812 70.659 17.246V12.476H69.057V10.64H70.659V7.454H72.531V10.64H74.961V12.476H72.531V17.246C72.531 17.858 72.909 18.2 73.521 18.218C73.935 18.236 74.457 18.146 74.781 18.074L75.195 19.892Z" fill="#333333"/>
<path d="M0 22.25H76.257V23.15H0V22.25Z" fill="#333333"/>
<path fill-rule="evenodd" clip-rule="evenodd" d="M84.0581 8.05806C84.3021 7.81398 84.6979 7.81398 84.9419 8.05806L89.9419 13.0581C90.186 13.3021 90.186 13.6979 89.9419 13.9419L84.9419 18.9419C84.6979 19.186 84.3021 19.186 84.0581 18.9419C83.814 18.6979 83.814 18.3021 84.0581 18.0581L88.6161 13.5L84.0581 8.94194C83.814 8.69786 83.814 8.30214 84.0581 8.05806Z" fill="#555555"/>
</svg>
