<svg width="98" height="29" viewBox="0 0 98 29" fill="none" xmlns="http://www.w3.org/2000/svg">
<path d="M4.25374 6.76381V18.428H10.9689V20.3046H2.34038V6.76381H4.25374ZM13.2002 10.6641H15.1136V20.3414H13.2002V10.6641ZM13.053 7.20536C13.053 6.59823 13.4394 6.11989 14.1569 6.11989C14.8376 6.11989 15.224 6.59823 15.224 7.20536C15.224 7.81249 14.8376 8.29083 14.1569 8.29083C13.4394 8.29083 13.053 7.81249 13.053 7.20536ZM24.1777 14.9692C24.1777 13.5158 23.3498 12.5959 21.8411 12.5959C20.4245 12.5959 19.339 13.7918 19.3574 15.0796V20.3046H17.4441V10.7009H19.3574V12.2279C20.0014 11.3081 20.8477 10.7009 22.0619 10.7009C23.9385 10.7009 26.091 12.136 26.091 14.8956V20.3046H24.1777V14.9692ZM30.0569 6.37746V15.0244L33.7916 10.7377H36.3673L32.6326 14.9692L36.3305 20.3414H34.0124L31.2711 16.3674L30.0569 17.8209V20.3414H28.1435V6.37746H30.0569ZM51.917 6.76381V8.64039H47.9615V20.3046H46.0481V8.64039H42.0742V6.76381H51.917ZM58.7583 14.7484C58.6111 13.479 57.8384 12.4303 56.2194 12.4303C54.7291 12.4303 53.6437 13.1846 53.4229 14.7484H58.7583ZM51.5831 15.5211C51.5831 12.8903 53.2205 10.6641 56.1826 10.6641C59.2366 10.6641 60.1013 13.0926 60.1749 13.2766C60.7452 14.7668 60.5796 16.3674 60.5796 16.3674H53.4229C53.7173 17.7473 54.6923 18.5936 56.201 18.5936C58.0591 18.5936 58.4823 17.5633 58.5559 17.4529L60.2301 18.2256C60.2301 18.2256 59.4022 20.3598 56.1826 20.3598C53.2205 20.3598 51.5831 18.1336 51.5831 15.5211ZM70.7795 10.7009L67.1919 15.5028L70.7427 20.3046H68.3878L66.0696 17.0482L63.8067 20.3046H61.415L64.929 15.5028L61.3598 10.7009H63.7515L66.0696 14.0309L68.4062 10.7009H70.7795ZM77.6822 20.0654C77.2959 20.1574 76.4864 20.3046 75.8424 20.2678C74.4074 20.1942 73.046 18.9615 73.046 17.3609V12.4855H71.4086V10.6089H73.046V7.35254H74.9593V10.6089H77.443V12.4855H74.9593V17.3609C74.9593 17.9864 75.3457 18.336 75.9712 18.3544C76.3944 18.3728 76.9279 18.2808 77.2591 18.2072L77.6822 20.0654Z" fill="#FF8120"/>
<path d="M0.978943 22.4755H78.7677V23.3954H0.978943V22.4755Z" fill="#FF8120"/>
<path fill-rule="evenodd" clip-rule="evenodd" d="M85.4716 9.16937C85.6961 8.94485 86.0602 8.94485 86.2847 9.16937L90.8841 13.7688C91.1087 13.9933 91.1087 14.3574 90.8841 14.5819L86.2847 19.1813C86.0602 19.4058 85.6961 19.4058 85.4716 19.1813C85.2471 18.9568 85.2471 18.5928 85.4716 18.3682L89.6645 14.1753L85.4716 9.98244C85.2471 9.75792 85.2471 9.39389 85.4716 9.16937Z" fill="#FF8120"/>
</svg>
