<svg width="320" height="132" viewBox="0 0 320 132" fill="none" xmlns="http://www.w3.org/2000/svg">
<g clip-path="url(#clip0_1313_15035)">
<g clip-path="url(#clip1_1313_15035)">
<path d="M258.33 94.0278C253.268 85.2415 247.064 77.1917 239.917 70.0756C229.492 59.7021 217.054 51.3307 203.257 45.615C189.948 40.0963 175.353 37.0258 160.052 37.0154V61.7249C172.002 61.7353 183.403 64.1316 193.807 68.4469C204.585 72.9179 214.305 79.4428 222.459 87.5341C228.091 93.1357 232.977 99.4739 236.961 106.414C240.052 111.787 246.598 114.09 252.334 111.725C259.274 108.851 262.085 100.532 258.34 94.0278H258.33Z" fill="url(#paint0_linear_1313_15035)"/>
<path d="M159.948 37.0154C144.679 37.0154 130.114 40.0548 116.805 45.5527C102.988 51.2581 90.5293 59.6087 80.0832 69.9822C72.9566 77.0569 66.7533 85.0755 61.6911 93.8203C57.884 100.397 60.7367 108.82 67.7595 111.725C73.4027 114.059 79.8654 111.808 82.8944 106.507C86.9089 99.505 91.8467 93.0942 97.5417 87.4511C105.716 79.3494 115.457 72.8349 126.255 68.3847C136.65 64.1004 148.019 61.7249 159.938 61.7249C159.969 61.7249 160 61.7249 160.031 61.7249V37.0154C160.031 37.0154 159.969 37.0154 159.938 37.0154H159.948Z" fill="url(#paint1_linear_1313_15035)"/>
<path d="M78.7728 94.5166L88.5785 110.626C89.6544 112.392 92.2097 112.46 93.3602 110.743L102.165 97.7227C103.325 96.0008 102.319 93.6663 100.278 93.3269L81.6766 90.2328C79.2759 89.8308 77.5168 92.434 78.7822 94.5122L88.5879 110.622C89.6638 112.388 92.2191 112.456 93.3696 110.738L102.175 97.7184C103.335 95.9965 102.328 93.662 100.287 93.3226L81.686 90.2285C79.2853 89.8265 77.5262 92.4296 78.7916 94.5079L78.7728 94.5166Z" fill="#333333"/>
<path d="M230.591 112.234C217.002 87.1714 190.467 70.1486 159.948 70.1486C129.429 70.1486 102.894 87.1714 89.3048 112.234H230.581H230.591Z" fill="#EEEEEE"/>
<path d="M150.452 86.147V102.333H148.299V94.2045H146.734V101.551H144.653V86.4138H146.734V92.3903H148.299V86.147H150.452ZM142.945 88.0146V89.8467H139.192V96.7481C140.758 96.7392 142.145 96.6592 143.71 96.3746L143.87 98.2244C141.896 98.598 140.171 98.6513 138.036 98.6691H136.916V88.0146H142.945ZM158.1 88.6905C158.1 90.6471 159.238 92.5326 161.8 93.333L160.59 95.0939C158.874 94.5247 157.673 93.4219 156.979 91.9989C156.277 93.6354 155.023 94.916 153.173 95.5386L151.946 93.7599C154.649 92.8527 155.805 90.7005 155.823 88.4771V87.0008H158.1V88.6905ZM165.037 86.147V89.9356H167.225V91.8211H165.037V95.752H162.76V86.147H165.037ZM159.736 96.0722C163.08 96.0722 165.197 97.2284 165.197 99.2027C165.197 101.195 163.08 102.333 159.736 102.333C156.321 102.333 154.187 101.195 154.187 99.2027C154.187 97.2284 156.321 96.0722 159.736 96.0722ZM159.736 97.8509C157.602 97.8509 156.446 98.3134 156.464 99.2027C156.446 100.128 157.602 100.555 159.736 100.555C161.835 100.555 162.956 100.128 162.956 99.2027C162.956 98.3134 161.835 97.8509 159.736 97.8509ZM173.913 90.5582C173.895 93.0306 175.211 95.8765 177.879 97.1038L176.616 98.8826C174.811 98.0555 173.521 96.4013 172.81 94.4536C172.081 96.5969 170.756 98.4112 168.879 99.2917L167.563 97.4952C170.266 96.2323 171.618 93.2263 171.636 90.5582V89.5621H168.203V87.7123H177.168V89.5621H173.913V90.5582ZM180.707 86.147V92.3191H183.091V94.2223H180.707V102.333H178.431V86.147H180.707Z" fill="#333333"/>
</g>
<g clip-path="url(#clip2_1313_15035)">
<path d="M129.502 29.2007L129.17 30.3833C127.656 30.3315 126.38 29.6883 125.519 28.6717C125.353 30.1551 124.575 31.514 123.247 32.4373L122.293 31.5866C124.035 30.4248 124.741 28.5265 124.284 26.8252L124.191 26.4829L121.494 27.2298L121.203 26.1821L127.832 24.346L128.122 25.3937L125.488 26.1302L125.581 26.4622C126.017 28.0182 127.49 29.1385 129.512 29.2111L129.502 29.2007ZM133.154 32.6032C133.558 34.0555 132.261 35.3418 129.73 36.0265C127.178 36.7526 125.384 36.3169 124.979 34.875C124.585 33.4435 125.903 32.1779 128.465 31.4622C130.996 30.7568 132.759 31.1717 133.154 32.6032ZM126.286 34.512C126.504 35.3315 127.676 35.4974 129.45 34.9995C131.214 34.512 132.116 33.7754 131.888 32.9559C131.67 32.1676 130.519 32.0016 128.755 32.4891C126.981 32.9871 126.048 33.7236 126.286 34.512ZM131.141 25.7464L132.915 25.2485L133.205 26.3169L131.432 26.8149L132.334 30.0721L131.037 30.4352L128.994 23.0804L130.291 22.7173L131.131 25.7464H131.141Z" fill="#616161"/>
<path d="M136.214 31.9914L135.343 31.0266C138.424 28.9001 139.689 26.3793 139.482 23.4125L134.865 24.1491L134.699 23.0806L140.664 22.1262C141.255 25.7984 140.197 29.2424 136.224 31.981L136.214 31.9914ZM146.193 32.7383L144.845 32.9561L142.832 20.4042L144.181 20.1864L146.193 32.7279V32.7383Z" fill="#616161"/>
<path d="M159.274 30.4357L147.646 30.9336L147.594 29.8133L150.374 29.6992L150.229 26.3797C149.16 25.8507 148.496 24.9585 148.444 23.8278C148.361 21.8258 150.26 20.4253 152.978 20.3112C155.716 20.1971 157.729 21.4316 157.812 23.4336C157.863 24.554 157.283 25.4772 156.287 26.0996L156.432 29.4502L159.212 29.3361L159.264 30.4565L159.274 30.4357ZM149.762 23.7656C149.824 25.1245 151.235 25.9648 153.227 25.8818C155.208 25.7988 156.577 24.8444 156.515 23.4855C156.453 22.1058 155.011 21.3071 153.029 21.3901C151.027 21.4731 149.689 22.3963 149.751 23.776L149.762 23.7656ZM155.094 29.4917L154.969 26.6598C154.461 26.8154 153.89 26.9088 153.278 26.9295C152.687 26.9502 152.117 26.9191 151.598 26.8154L151.722 29.637L155.094 29.4917Z" fill="#616161"/>
<path d="M167.438 23.6203C167.293 25.3838 165.778 26.5145 163.838 26.3797C161.899 26.2241 160.55 24.8859 160.695 23.1224C160.809 21.3382 162.345 20.2178 164.284 20.3631C166.224 20.5083 167.552 21.8361 167.438 23.6203ZM170.083 30.3423C169.969 31.8568 168.289 32.6349 165.706 32.4378C163.092 32.2614 161.515 31.2344 161.629 29.7199C161.743 28.195 163.444 27.4274 166.058 27.6141C168.641 27.8008 170.187 28.8174 170.073 30.3423H170.083ZM162.013 23.2158C161.919 24.3465 162.739 25.1452 163.921 25.249C165.114 25.3216 166.038 24.6577 166.121 23.527C166.204 22.4066 165.384 21.5871 164.201 21.4938C163.009 21.4108 162.085 22.1058 162.013 23.2261V23.2158ZM162.977 29.8133C162.894 30.6743 163.953 31.2241 165.789 31.3589C167.614 31.4938 168.704 31.0996 168.766 30.2386C168.828 29.388 167.801 28.8278 165.986 28.6929C164.15 28.5581 163.029 28.9523 162.977 29.8029V29.8133ZM172.303 23.1328L170.509 22.9979L170.394 24.6058L172.189 24.7407L172.106 25.861L170.311 25.7261L170.177 27.583L168.838 27.4793L169.388 20L170.726 20.1037L170.592 21.8983L172.386 22.0332L172.303 23.1328Z" fill="#616161"/>
<path d="M183.61 33.5887L172.189 31.4103L172.396 30.3107L177.427 31.2755L177.915 28.7132L174.201 28.0078L175.425 21.5867L176.753 21.8356L176.338 23.9829L182.469 25.1551L182.873 23.0078L184.18 23.2568L182.956 29.678L179.222 28.9622L178.734 31.5244L183.817 32.4995L183.61 33.5991V33.5887ZM181.857 28.3502L182.261 26.2236L176.131 25.0514L175.726 27.178L181.857 28.3502Z" fill="#616161"/>
<path d="M194.015 38.226L185.996 35.7675L187.231 31.7219L195.249 34.1804L194.015 38.226ZM192.469 30.0517C192.065 31.3692 190.623 31.8567 188.953 31.3588C187.293 30.8297 186.359 29.616 186.764 28.2986C187.158 27.0227 188.621 26.4936 190.291 27.0019C191.961 27.5102 192.863 28.7654 192.469 30.0414V30.0517ZM194.004 27.5414L186.878 25.3629L187.189 24.336L190.114 25.2384L190.519 23.921L191.795 24.3152L191.39 25.6326L194.305 26.5248L193.994 27.5517L194.004 27.5414ZM187.594 35.114L193.071 36.7945L193.672 34.8131L188.195 33.1326L187.594 35.114ZM187.988 28.6721C187.76 29.4189 188.268 30.0828 189.243 30.3733C190.208 30.6741 190.996 30.4044 191.224 29.6575C191.442 28.9418 190.944 28.2675 189.969 27.9874C188.994 27.6762 188.195 27.9459 187.977 28.6721H187.988ZM195.436 33.5787L194.15 33.1845L194.959 30.5393L193.06 29.9584L193.392 28.8899L195.291 29.4708L196.411 25.8194L197.697 26.2136L195.436 33.5787Z" fill="#616161"/>
</g>
</g>
<defs>
<linearGradient id="paint0_linear_1313_15035" x1="160.052" y1="74.837" x2="260" y2="74.837" gradientUnits="userSpaceOnUse">
<stop stop-color="#FFCD03"/>
<stop offset="0.55" stop-color="#B7D508"/>
<stop offset="1" stop-color="#709F00"/>
</linearGradient>
<linearGradient id="paint1_linear_1313_15035" x1="60.0002" y1="74.8266" x2="160.052" y2="74.8266" gradientUnits="userSpaceOnUse">
<stop stop-color="#DF0000"/>
<stop offset="0.49" stop-color="#ED4A04"/>
<stop offset="1" stop-color="#FF8D00"/>
</linearGradient>
<clipPath id="clip0_1313_15035">
<rect width="320" height="132" fill="white"/>
</clipPath>
<clipPath id="clip1_1313_15035">
<rect width="200" height="75.6431" fill="white" transform="translate(60 37.0154)"/>
</clipPath>
<clipPath id="clip2_1313_15035">
<rect width="76.4834" height="18.2261" fill="white" transform="translate(121.203 20)"/>
</clipPath>
</defs>
</svg>
