<svg width="13" height="13" viewBox="0 0 13 13" fill="none" xmlns="http://www.w3.org/2000/svg">
<g clip-path="url(#clip0_1_25258)">
<path d="M9.74967 11.9167H1.80523C1.61368 11.9167 1.42998 11.8406 1.29454 11.7051C1.1591 11.5697 1.08301 11.386 1.08301 11.1944V3.24999C1.08301 3.05845 1.1591 2.87475 1.29454 2.7393C1.42998 2.60386 1.61368 2.52777 1.80523 2.52777H5.41634V3.24999H1.80523V11.1944H9.74967V7.58333H10.4719V11.1944C10.4719 11.386 10.3958 11.5697 10.2604 11.7051C10.1249 11.8406 9.94122 11.9167 9.74967 11.9167Z" fill="#545454"/>
<path d="M6.49995 1.08331C6.40418 1.08331 6.31233 1.12136 6.24461 1.18908C6.17689 1.2568 6.13884 1.34865 6.13884 1.44442C6.13884 1.5402 6.17689 1.63205 6.24461 1.69977C6.31233 1.76749 6.40418 1.80554 6.49995 1.80554H10.6852L5.68384 6.80692C5.64604 6.8393 5.61534 6.87913 5.59366 6.92394C5.57199 6.96874 5.55981 7.01753 5.55789 7.06727C5.55597 7.117 5.56434 7.16659 5.5825 7.21293C5.60065 7.25927 5.62819 7.30136 5.66338 7.33655C5.69858 7.37174 5.74066 7.39928 5.787 7.41743C5.83334 7.43559 5.88293 7.44397 5.93267 7.44205C5.9824 7.44013 6.0312 7.42795 6.076 7.40627C6.1208 7.38459 6.16064 7.35389 6.19301 7.31609L11.1944 2.3147V6.49998C11.1944 6.59575 11.2324 6.6876 11.3002 6.75532C11.3679 6.82305 11.4597 6.86109 11.5555 6.86109C11.6513 6.86109 11.7431 6.82305 11.8109 6.75532C11.8786 6.6876 11.9166 6.59575 11.9166 6.49998V1.08331H6.49995Z" fill="#545454"/>
</g>
<defs>
<clipPath id="clip0_1_25258">
<rect width="13" height="13" fill="white"/>
</clipPath>
</defs>
</svg>
