<svg width="150" height="150" viewBox="0 0 150 150" fill="none" xmlns="http://www.w3.org/2000/svg">
<g style="mix-blend-mode:multiply">
<path d="M77.1675 149.982C117.382 149.982 149.982 116.836 149.982 75.9497C149.982 35.063 117.382 1.91776 77.1675 1.91776C36.9531 1.91776 4.35291 35.063 4.35291 75.9497C4.35291 116.836 36.9531 149.982 77.1675 149.982Z" fill="#FFC77D"/>
</g>
<path d="M144.692 74.032C144.692 114.416 112.497 147.126 72.8146 147.126C33.1326 147.126 0.9375 114.416 0.9375 74.032C0.9375 33.6483 33.1326 0.9375 72.8146 0.9375C112.497 0.9375 144.692 33.6483 144.692 74.032Z" fill="white" stroke="#FFAB3B" stroke-width="1.875"/>
<path d="M73.9193 11.0282C89.7415 11.0282 104.916 17.5692 116.104 29.2123C127.292 40.8555 133.577 56.6469 133.577 73.1128L73.9193 73.1129L73.9193 11.0282Z" fill="#FF8120"/>
<mask id="mask0_1778_1478" style="mask-type:alpha" maskUnits="userSpaceOnUse" x="73" y="11" width="61" height="63">
<path d="M73.9193 11.0282C89.7415 11.0282 104.916 17.5692 116.104 29.2123C127.292 40.8555 133.577 56.6469 133.577 73.1128L73.9193 73.1129L73.9193 11.0282Z" fill="#FDE7CC"/>
</mask>
<g mask="url(#mask0_1778_1478)">
<g clip-path="url(#clip0_1778_1478)">
<path d="M87.435 81.2439C87.3402 81.3095 87.1805 81.2239 87.122 81.375H85.9542C85.8978 81.3401 85.8456 81.2936 85.7839 81.2725C84.5437 80.8528 83.8497 79.9628 83.7943 78.6553C83.7624 77.9016 83.7847 77.1469 83.7837 76.3921C83.7837 75.8034 83.7837 75.2146 83.7837 74.6205C83.5197 74.629 83.4079 74.7812 83.2716 74.8806C81.6919 76.0317 80.125 77.1997 78.5356 78.3392C76.9559 79.4713 74.9983 78.91 74.2414 77.1384C74.1977 77.0348 74.2116 76.8847 74.0604 76.8403V75.4693C74.5214 74.2854 75.5656 73.6713 76.5258 72.9737C77.5808 72.2062 78.6272 71.4272 79.6864 70.6672C79.9291 70.4928 80.0653 70.2919 80.1462 70.0002C80.7988 67.6525 81.463 65.3091 82.1433 62.9688C82.2316 62.6654 82.1912 62.4614 82.0006 62.2098C81.215 61.1771 80.7477 60.0291 80.8552 58.7036C81.4939 58.7025 82.1316 58.7004 82.7703 58.6994L82.7564 58.73C82.8842 60.6845 83.624 62.3197 85.3059 63.4339C85.6434 63.6569 85.753 63.8926 85.752 64.2858C85.7381 68.9865 85.7434 73.6861 85.7424 78.3868C85.7424 79.3096 86.0766 80.0865 86.7388 80.7334C86.9485 80.9374 87.2912 80.9564 87.4328 81.2471L87.435 81.2439Z" fill="#3F404F"/>
<path d="M101.88 81.375C101.583 81.2312 101.269 81.116 100.994 80.9406C100.125 80.3888 99.6789 79.577 99.6619 78.5622C99.6395 77.1965 99.6565 75.8308 99.6565 74.4641C99.4298 74.4313 99.3329 74.5803 99.2126 74.6681C97.5584 75.8742 95.9233 77.1056 94.2531 78.2874C92.4274 79.5791 90.0685 78.5886 89.7321 76.3921C89.5671 75.3139 89.9908 74.4218 90.8647 73.7696C92.2646 72.7252 93.6655 71.6809 95.0972 70.6809C95.622 70.3141 95.9818 69.9061 96.0628 69.2666C96.0862 69.0795 96.1788 68.8998 96.2405 68.718C97.0687 68.9294 97.8352 69.3427 98.6932 69.4558C98.8092 69.4917 98.9231 69.5393 99.0423 69.5626C99.7396 69.7021 100.439 69.8374 101.137 69.9738C101.137 72.8035 101.143 75.6331 101.134 78.4628C101.131 79.5992 101.621 80.4459 102.584 81.0378C102.727 81.1255 102.935 81.1467 102.943 81.3771H101.881L101.88 81.375Z" fill="#3F404F"/>
<path d="M102.942 81.375C102.934 81.1446 102.726 81.1234 102.583 81.0357C101.62 80.4438 101.13 79.5971 101.133 78.4608C101.142 75.6311 101.136 72.8014 101.136 69.9717C102.55 70.052 103.955 69.9368 105.356 69.7603C105.361 72.7062 105.393 75.6533 105.357 78.5992C105.342 79.8053 104.703 80.6795 103.572 81.1721C103.43 81.2334 103.256 81.2323 103.154 81.375H102.942Z" fill="#5D5E70"/>
<path d="M105.357 69.7603C103.956 69.9378 102.552 70.052 101.137 69.9717C100.439 69.8353 99.7406 69.7011 99.0423 69.5605C98.9241 69.5362 98.8091 69.4897 98.6931 69.4537C98.9199 67.531 99.1626 65.6103 99.3691 63.6865C99.5224 62.2637 99.6948 60.8388 99.7406 59.4108C99.8045 57.4098 99.7555 55.4046 99.7619 53.4015C99.7619 53.2641 99.6735 53.0907 99.9237 52.9269C99.9769 53.0093 100.028 53.1034 100.092 53.188C101.292 54.7862 102.489 56.3866 103.694 57.9795C104.492 59.0323 105.503 59.5566 106.866 59.2554C107.396 59.1391 107.943 59.1021 108.481 59.0292C108.556 60.2955 108.891 61.5101 109.261 62.714C109.712 64.1875 110.244 65.6346 110.906 67.0278C111.097 67.4295 110.994 67.6102 110.626 67.8026C109.06 68.625 107.418 69.237 105.695 69.6419C105.578 69.6694 105.445 69.6546 105.355 69.7603H105.357Z" fill="#83DB3E"/>
<path d="M105.808 44.5667C105.921 44.8267 106.194 44.9134 106.388 45.0847C107.796 46.332 108.419 47.9154 108.434 49.7599C108.442 50.8128 108.444 51.8666 108.43 52.9194C108.426 53.2471 108.512 53.3497 108.858 53.282C109.428 53.171 110.008 53.1118 110.583 53.0304C110.815 54.282 111.101 55.524 111.253 56.7893C111.1 56.8273 110.949 56.8802 110.794 56.9024C109.58 57.0789 108.359 57.2121 107.154 57.4341C105.809 57.6814 104.668 57.4351 103.815 56.3136C102.564 54.671 101.327 53.0167 100.077 51.373C99.8567 51.0823 99.7301 50.7874 99.7524 50.41C99.7897 49.7652 99.7854 49.1215 99.8472 48.4746C100.023 46.6258 100.392 44.8859 101.984 43.6682C102.705 43.5509 103.404 43.756 104.113 43.8215C104.607 44.0392 105.101 44.2559 105.596 44.4737C105.644 44.5604 105.72 44.5889 105.816 44.5699L105.811 44.5667H105.808Z" fill="#83DB3E"/>
<path d="M101.982 43.6693C100.39 44.887 100.022 46.6269 99.8451 48.4756C99.7834 49.1226 99.7877 49.7663 99.7504 50.4111C99.7291 50.7885 99.8547 51.0834 100.075 51.3741C101.325 53.0178 102.562 54.672 103.813 56.3147C104.666 57.4362 105.807 57.6825 107.152 57.4351C108.357 57.2131 109.578 57.08 110.792 56.9034C110.947 56.8812 111.098 56.8284 111.251 56.7903C111.276 56.7967 111.301 56.803 111.325 56.8125C111.413 57.4002 111.502 57.988 111.59 58.5746C110.554 58.7268 109.517 58.879 108.482 59.0313C107.943 59.1042 107.396 59.1401 106.867 59.2575C105.503 59.5577 104.491 59.0344 103.694 57.9816C102.488 56.3876 101.291 54.7883 100.092 53.1901C100.028 53.1044 99.9761 53.0104 99.9239 52.929C99.6748 53.0928 99.7632 53.2662 99.7621 53.4036C99.7547 55.4067 99.8036 57.4119 99.7408 59.4129C99.6951 60.8409 99.5226 62.2658 99.3693 63.6886C99.1628 65.6135 98.9201 67.5341 98.6933 69.4558C97.8353 69.3427 97.0689 68.9294 96.2407 68.718C95.6116 68.404 94.9888 68.0764 94.3512 67.7825C93.9978 67.6197 93.9233 67.4664 94.0978 67.0785C95.1091 64.8186 95.9756 62.5079 96.4185 60.0608C96.4813 59.7162 96.5207 59.3674 96.5707 59.0207C96.6867 58.9837 96.8028 58.9435 96.9199 58.9097C98.2431 58.527 99.3278 57.099 98.7881 55.4394C98.4549 54.3475 97.6799 53.7556 96.5877 53.523C96.6335 51.9491 96.5005 50.372 96.6676 48.8002C96.9433 46.2104 99.0851 44.0318 101.668 43.72C101.773 43.7073 101.876 43.6883 101.981 43.6725L101.982 43.6693Z" fill="#4FB103"/>
<path d="M91.7641 32.5323C92.4465 33.2616 93.1565 33.9593 93.6132 34.8757C95.4984 38.661 93.428 43.2486 89.3211 44.3458C89.1859 44.3817 89.0486 44.4124 88.9123 44.4462C88.7792 44.2824 88.5738 44.2697 88.395 44.202C86.1158 43.35 84.6553 41.7698 84.0251 39.4231C83.742 38.3682 83.8793 37.2953 83.8154 36.2319C84.3285 35.2817 84.2785 34.2489 84.2508 33.2236C84.2434 32.9519 84.2923 32.7553 84.5776 32.676C85.178 32.675 85.7784 32.6877 86.3777 32.6697C88.1735 32.6147 89.9758 32.8145 91.7652 32.5323H91.7641ZM92.3049 35.9983C92.3049 35.7182 92.3273 35.4349 92.2996 35.158C92.2538 34.6929 91.8855 34.3589 91.4629 34.362C91.0073 34.3652 90.6528 34.713 90.6347 35.2151C90.6166 35.7224 90.6166 36.2319 90.6347 36.7404C90.6528 37.234 91.019 37.5892 91.4682 37.5902C91.8887 37.5902 92.2538 37.2541 92.2996 36.7879C92.3251 36.5279 92.3038 36.2626 92.3038 35.9994L92.3049 35.9983ZM89.5478 35.9687C89.5478 35.9687 89.55 35.9687 89.551 35.9687C89.551 35.7055 89.5691 35.4413 89.5468 35.1812C89.5063 34.7098 89.1593 34.3737 88.7324 34.362C88.2906 34.3493 87.901 34.7077 87.8797 35.1939C87.8574 35.7182 87.8563 36.2457 87.8797 36.77C87.901 37.2329 88.2651 37.5765 88.6909 37.5902C89.1092 37.6029 89.4925 37.2668 89.5404 36.8101C89.5691 36.5332 89.5457 36.2499 89.5457 35.9698L89.5478 35.9687Z" fill="#F7BF88"/>
<path d="M87.5478 44.5889C88.4728 44.9145 89.4032 45.201 90.1877 45.8489C91.281 46.7527 91.9602 47.8795 92.2092 49.2473C92.4754 50.7071 92.2689 52.1891 92.3242 53.6594C92.3285 53.7651 92.3274 53.8698 92.3285 53.9755C91.7125 54.1488 91.2242 53.9977 90.8637 53.522C90.6625 53.2567 90.4549 52.9967 90.2644 52.7229C90.1154 52.5094 89.994 52.465 89.7609 52.6457C88.6783 53.4829 87.5797 54.2989 86.4875 55.1224C86.4524 55.1192 86.4172 55.1181 86.3821 55.1192C86.083 54.4998 85.6093 54.004 85.193 53.4692C84.9876 53.2049 84.7949 53.3656 84.6193 53.5368C84.4713 53.6806 84.0998 53.762 84.3244 54.0378C84.7641 54.579 85.0738 55.227 85.6519 55.6541C85.6189 55.8739 85.7849 56.0008 85.8946 56.1498C86.5216 57.0039 87.1518 57.8548 87.7809 58.7068C86.1064 58.7142 84.4319 58.7205 82.7574 58.7279L82.7713 58.6973C82.7713 56.3464 82.7628 53.9956 82.7745 51.6458C82.7777 50.9301 82.75 50.2187 82.8586 49.4989C83.1524 47.5476 84.2158 46.1745 85.9084 45.2137C86.3672 44.9536 86.9133 44.9135 87.3359 44.5879C87.4062 44.5879 87.4764 44.5879 87.5478 44.5879V44.5889Z" fill="#E4F3FC"/>
<path d="M100.947 39.8026C99.3415 40.5648 97.7979 40.3956 96.5514 39.179C95.1654 37.826 94.9589 36.0396 96.0734 34.3906C97.0091 33.0069 98.3877 32.5175 100.044 32.8399C100.343 32.898 100.533 32.8885 100.657 32.5006C101.435 30.0715 103.061 28.4542 105.548 27.7915C107.119 27.3729 108.683 27.504 110.169 28.2206C110.027 28.3919 109.814 28.4458 109.627 28.5388C108.262 29.2206 107.024 30.0557 106.017 31.2216C104.74 32.6993 104.063 34.3906 103.999 36.3345C103.978 36.9497 104.059 37.5554 104.097 38.1653C103.027 38.1188 102.1 37.678 101.206 37.1378C101.078 37.0596 100.954 36.8651 100.806 36.9402C100.631 37.029 100.725 37.2531 100.714 37.419C100.653 38.2266 100.771 39.0173 100.946 39.8026H100.947Z" fill="#CBCBCA"/>
<path d="M114.546 37.8291C114.528 39.6187 113.931 41.2 112.698 42.4991C111.332 43.9388 109.637 44.6999 107.62 44.683C107.112 44.2052 106.476 43.8796 106.018 43.3437C104.761 41.8713 104.15 40.1737 104.222 38.2382C104.434 38.2403 104.646 38.2424 104.859 38.2435C106.926 38.2551 108.687 37.5363 110.099 36.0311C111.051 35.0163 111.597 33.7944 111.861 32.4403C112.165 32.5408 112.341 32.8114 112.593 32.9815C113.805 34.3747 114.55 35.9529 114.547 37.8291H114.546ZM112.819 39.5542C112.836 38.994 112.626 38.6832 112.2 38.5807C111.749 38.4718 111.396 38.6547 111.228 39.0955C111.134 39.3386 111.056 39.5976 111.032 39.8555C110.989 40.2931 111.209 40.6081 111.63 40.7307C112.058 40.8554 112.408 40.6937 112.595 40.2973C112.719 40.032 112.767 39.7318 112.818 39.5553L112.819 39.5542ZM109.408 40.1462C109.981 40.1515 110.361 39.6293 110.379 38.8122C110.391 38.3101 110.022 37.9253 109.536 37.9338C108.992 37.9433 108.586 38.5268 108.579 39.3048C108.575 39.772 108.939 40.1419 109.408 40.1462Z" fill="#F7BF88"/>
<path d="M111.861 32.4403C111.597 33.7934 111.051 35.0163 110.099 36.0311C108.687 37.5363 106.926 38.2551 104.859 38.2435C104.647 38.2424 104.435 38.2403 104.222 38.2382C104.181 38.2139 104.139 38.1896 104.099 38.1642C104.062 37.5543 103.981 36.9486 104.001 36.3334C104.065 34.3895 104.742 32.6993 106.019 31.2205C107.026 30.0546 108.265 29.2195 109.629 28.5377C109.815 28.4447 110.029 28.3908 110.171 28.2196C110.7 28.2883 111.011 28.8168 111.55 28.8644C111.781 30.0451 112.061 31.2216 111.862 32.4393L111.861 32.4403Z" fill="#E4E4E4"/>
<path d="M114.936 56.9013C117.221 56.5292 118.874 57.5863 119.468 59.8272C121.184 66.3058 122.891 72.7865 124.6 79.2662C124.618 79.3338 124.635 79.4025 124.651 79.4702C124.782 80.0294 124.552 80.4522 124.05 80.5727C123.587 80.6847 123.183 80.4247 123.036 79.8824C122.701 78.6467 122.384 77.4058 122.057 76.1669C120.642 70.8067 119.228 65.4475 117.809 60.0883C117.512 58.9678 116.682 58.3759 115.591 58.4805C114.639 58.5714 113.877 59.3674 113.826 60.3494C113.814 60.5914 113.872 60.8377 113.889 61.0819C113.92 61.5523 113.706 61.8641 113.243 61.9688C112.792 62.0713 112.405 61.8324 112.279 61.3599C112.005 60.3377 112.187 59.3779 112.729 58.4763C113.676 58.2427 114.437 57.7543 114.936 56.9002V56.9013Z" fill="#414250"/>
<path d="M91.7642 32.5323C89.9748 32.8145 88.1726 32.6148 86.3768 32.6697C85.7774 32.6877 85.177 32.675 84.5767 32.6761C84.6661 31.3178 85.2122 30.1561 86.1308 29.1625C87.0293 28.1889 88.1928 27.6974 89.4574 27.3972C91.397 27.3919 93.3365 27.393 95.2761 27.375C95.5954 27.3718 95.6455 27.4881 95.638 27.7735C95.5922 29.6709 94.1764 31.5968 92.2571 32.3442C92.0932 32.4076 91.9292 32.4699 91.7653 32.5323H91.7642Z" fill="#5D5E70"/>
<path d="M86.4873 55.1223C87.5795 54.2989 88.6781 53.4828 89.7607 52.6457C89.9938 52.4649 90.1162 52.5093 90.2642 52.7228C90.4547 52.9955 90.6623 53.2566 90.8635 53.5219C91.224 53.9976 91.7123 54.1488 92.3283 53.9754C93.2959 53.8517 94.2678 53.7492 95.2312 53.5949C95.6858 53.5219 96.136 53.5367 96.5895 53.5198C97.6817 53.7524 98.4567 54.3443 98.7899 55.4362C98.2331 56.5366 97.3645 57.1286 96.1041 57.2723C94.2934 57.4795 92.4965 57.8135 90.6889 58.0577C89.6351 58.1994 88.6813 57.9552 87.9883 57.0831C87.4762 56.4394 86.9876 55.7766 86.4884 55.1223H86.4873Z" fill="#F7BF88"/>
<path d="M89.4575 27.3972C88.1939 27.6974 87.0294 28.1889 86.1309 29.1624C85.2122 30.156 84.6662 31.3177 84.5767 32.676C84.2914 32.7553 84.2425 32.9519 84.2499 33.2236C84.2776 34.2489 84.3276 35.2816 83.8145 36.2319C83.0406 37.2012 82.139 37.9285 80.7913 37.8164C80.753 36.2309 80.7477 34.6464 80.7945 33.0608C80.8627 32.9984 80.8605 32.9255 80.8275 32.8483C80.836 29.9869 83.443 27.283 86.6472 27.3781C87.584 27.4056 88.5208 27.3919 89.4575 27.3972Z" fill="#3F404F"/>
<path d="M87.336 44.5879C86.9134 44.9134 86.3662 44.9536 85.9085 45.2136C84.2148 46.1755 83.1524 47.5476 82.8586 49.4989C82.75 50.2187 82.7788 50.9301 82.7745 51.6457C82.7628 53.9966 82.7713 56.3474 82.7713 58.6972C82.1326 58.6983 81.495 58.7004 80.8563 58.7015C80.8552 55.8253 80.8701 52.9491 80.8467 50.0739C80.8297 47.9662 82.3679 45.7749 84.4043 44.9853C85.0845 44.7221 85.7945 44.6428 86.495 44.498C86.775 44.5276 87.056 44.5572 87.336 44.5879Z" fill="#C0D8E4"/>
<path d="M87.3358 44.5878C87.0558 44.5582 86.7748 44.5286 86.4948 44.498C83.1788 43.9409 80.8593 41.2243 80.7911 37.8175C82.1388 37.9295 83.0415 37.2023 83.8144 36.233C83.8782 37.2964 83.7409 38.3693 84.0241 39.4242C84.6543 41.7698 86.1158 43.3511 88.3939 44.2031C88.5727 44.2697 88.7782 44.2823 88.9112 44.4472C88.462 44.5477 88.0053 44.5773 87.5465 44.5899C87.4763 44.5899 87.406 44.5899 87.3347 44.5899L87.3358 44.5878Z" fill="#DB9555"/>
<path d="M104.099 38.1653C104.14 38.1896 104.181 38.2139 104.222 38.2393C104.15 40.1737 104.761 41.8723 106.018 43.3448C106.476 43.8807 107.112 44.2063 107.62 44.6841C107.008 44.7686 106.416 44.5382 105.808 44.5688L105.814 44.572C105.794 44.4219 105.682 44.4737 105.593 44.4758C105.099 44.2581 104.606 44.0414 104.111 43.8236C103.533 43.3406 102.892 42.9389 102.395 42.3533C101.745 41.5901 101.311 40.7201 100.946 39.8047C100.771 39.0194 100.654 38.2276 100.714 37.4201C100.726 37.2552 100.631 37.0311 100.806 36.9412C100.954 36.8662 101.078 37.0607 101.207 37.1389C102.1 37.679 103.027 38.1198 104.097 38.1663L104.099 38.1653Z" fill="#DB9555"/>
<path d="M114.546 37.8291C114.549 35.9529 113.804 34.3737 112.593 32.9815C112.779 32.4118 113.114 31.9256 113.451 31.4351C114.023 30.6011 114.727 30.1053 115.795 30.4372L115.79 30.4351C115.822 30.5144 115.857 30.5133 115.897 30.4394C117.316 32.23 117.483 34.2447 116.336 36.1886C115.914 36.9053 115.312 37.4634 114.547 37.8302L114.546 37.8291Z" fill="#E4E4E4"/>
<path d="M111.327 56.8115C111.302 56.803 111.278 56.7956 111.253 56.7893C111.101 55.524 110.815 54.282 110.583 53.0304C111.477 52.9194 112.361 52.6097 113.272 52.9554C114.162 53.2936 114.782 53.8739 115.044 54.801C114.962 54.9331 114.877 55.0642 114.797 55.1984C114.349 55.9489 113.685 56.4077 112.833 56.5821C112.336 56.6846 111.829 56.7364 111.326 56.8115H111.327Z" fill="#F7BF88"/>
<path d="M115.794 30.4372C114.726 30.1053 114.022 30.6011 113.45 31.4351C113.114 31.9245 112.779 32.4107 112.592 32.9815C112.341 32.8114 112.164 32.5408 111.861 32.4403C112.06 31.2226 111.779 30.0461 111.549 28.8654C113.022 28.7217 114.352 29.0599 115.493 30.0282C115.628 30.1423 115.782 30.2364 115.794 30.4372Z" fill="#CBCBCA"/>
<path d="M111.327 56.8115C111.829 56.7364 112.337 56.6846 112.834 56.5821C113.686 56.4066 114.35 55.9489 114.798 55.1984C114.878 55.0642 114.962 54.9342 115.045 54.801C115.36 55.5187 115.147 56.209 114.935 56.9003C114.437 57.7544 113.676 58.2438 112.729 58.4763C112.35 58.508 111.971 58.5408 111.592 58.5736C111.503 57.9859 111.415 57.3981 111.327 56.8115Z" fill="#DB9555"/>
<path d="M80.827 32.8494C80.8598 32.9276 80.8608 33.0006 80.7942 33.0619C80.7657 32.9847 80.7699 32.9128 80.827 32.8494Z" fill="#DB9555"/>
<path d="M115.895 30.4394C115.857 30.5134 115.822 30.5144 115.789 30.4352C115.824 30.4362 115.859 30.4383 115.895 30.4394Z" fill="#CBCBCA"/>
<path d="M82.7574 58.7279C84.4319 58.7205 86.1064 58.7142 87.7809 58.7068C88.5122 59.5566 89.4117 60.0037 90.5614 59.86C91.1149 59.7902 91.6685 59.7215 92.222 59.6518C91.9782 61.2933 91.1213 62.5554 89.7566 63.4719C89.4319 63.6896 89.3383 63.9074 89.3393 64.2774C89.3521 68.9653 89.3415 73.6544 89.351 78.3424C89.3542 79.7419 88.7613 80.7249 87.4338 81.2439C87.2923 80.9543 86.9484 80.9353 86.7398 80.7302C86.0777 80.0833 85.7434 79.3064 85.7434 78.3836C85.7445 73.6829 85.7391 68.9833 85.753 64.2826C85.754 63.8894 85.6444 63.6548 85.307 63.4307C83.624 62.3176 82.8852 60.6813 82.7574 58.7268V58.7279Z" fill="#5D5E70"/>
<path d="M92.222 59.6528C91.6685 59.7226 91.1149 59.7913 90.5614 59.8611C89.4128 60.0048 88.5122 59.5577 87.7809 58.7079C87.1517 57.8559 86.5205 57.005 85.8945 56.1509C85.7849 56.0018 85.6178 55.875 85.6518 55.6541C85.9382 55.5325 86.1703 55.3391 86.3832 55.1192C86.4183 55.1171 86.4534 55.1192 86.4885 55.1224C86.9878 55.7767 87.4764 56.4394 87.9884 57.0832C88.6825 57.9552 89.6352 58.2005 90.6891 58.0578C92.4966 57.8147 94.2925 57.4796 96.1043 57.2724C97.3647 57.1286 98.2333 56.5356 98.79 55.4363C99.3308 57.0959 98.245 58.5239 96.9218 58.9066C96.8047 58.9404 96.6887 58.9806 96.5727 59.0176C95.1153 59.1782 93.6634 59.3727 92.2231 59.6518L92.222 59.6528Z" fill="#DB9555"/>
<path d="M105.593 44.4737C105.681 44.4726 105.791 44.4198 105.812 44.5699C105.717 44.5889 105.642 44.5604 105.593 44.4737Z" fill="#FEFEFE"/>
<path d="M92.305 35.9983C92.305 36.2615 92.3263 36.5258 92.3007 36.7869C92.2539 37.253 91.8898 37.5902 91.4693 37.5892C91.0201 37.5892 90.655 37.234 90.6358 36.7393C90.6167 36.2319 90.6167 35.7224 90.6358 35.214C90.6539 34.7119 91.0084 34.3652 91.464 34.361C91.8866 34.3578 92.255 34.6918 92.3007 35.1569C92.3284 35.4349 92.3061 35.7171 92.3061 35.9973L92.305 35.9983Z" fill="#414250"/>
<path d="M89.5479 35.9688C89.5479 36.2489 89.5714 36.5322 89.5426 36.8091C89.4947 37.2668 89.1104 37.6019 88.6931 37.5892C88.2673 37.5765 87.9033 37.233 87.882 36.7689C87.8575 36.2446 87.8586 35.7172 87.882 35.1929C87.9033 34.7066 88.2918 34.3494 88.7347 34.361C89.1626 34.3726 89.5096 34.7088 89.549 35.1802C89.5714 35.4413 89.5533 35.7056 89.5533 35.9677C89.5522 35.9677 89.5511 35.9677 89.5501 35.9677L89.5479 35.9688Z" fill="#414250"/>
<path d="M86.382 55.1202C86.1691 55.3401 85.937 55.5335 85.6507 55.6551C85.0726 55.228 84.7629 54.5801 84.3232 54.0389C84.0986 53.763 84.4701 53.6816 84.6181 53.5378C84.7937 53.3666 84.9864 53.2059 85.1919 53.4702C85.6081 54.0061 86.0818 54.5019 86.3809 55.1202H86.382Z" fill="#C0D8E4"/>
<path d="M112.819 39.5542C112.768 39.7318 112.719 40.032 112.596 40.2963C112.409 40.6937 112.058 40.8554 111.631 40.7296C111.208 40.606 110.99 40.292 111.033 39.8544C111.057 39.5965 111.136 39.3386 111.229 39.0944C111.397 38.6536 111.751 38.4718 112.201 38.5796C112.626 38.6822 112.837 38.9929 112.82 39.5532L112.819 39.5542Z" fill="#414250"/>
<path d="M109.407 40.1462C108.939 40.142 108.576 39.7731 108.579 39.3048C108.586 38.5268 108.992 37.9433 109.536 37.9338C110.022 37.9254 110.39 38.3091 110.379 38.8122C110.361 39.6293 109.981 40.1515 109.407 40.1462Z" fill="#414250"/>
</g>
</g>
<path d="M72.8229 141.715V138.733" stroke="#A35D54" stroke-width="0.410959" stroke-miterlimit="10"/>
<path d="M65.8667 141.343L66.172 138.378" stroke="#A35D54" stroke-width="0.410959" stroke-miterlimit="10"/>
<path d="M58.9851 140.234L59.5957 137.32" stroke="#A35D54" stroke-width="0.410959" stroke-miterlimit="10"/>
<path d="M52.2562 138.402L53.1621 135.565" stroke="#A35D54" stroke-width="0.410959" stroke-miterlimit="10"/>
<path d="M45.7518 135.864L46.945 133.139" stroke="#A35D54" stroke-width="0.410959" stroke-miterlimit="10"/>
<path d="M39.543 132.647L41.0093 130.066" stroke="#A35D54" stroke-width="0.410959" stroke-miterlimit="10"/>
<path d="M33.7019 128.789L35.4253 126.377" stroke="#A35D54" stroke-width="0.410959" stroke-miterlimit="10"/>
<path d="M28.2866 124.331L30.2491 122.115" stroke="#A35D54" stroke-width="0.410959" stroke-miterlimit="10"/>
<path d="M23.3611 119.323L25.5385 117.328" stroke="#A35D54" stroke-width="0.410959" stroke-miterlimit="10"/>
<path d="M18.9761 113.817L21.3483 112.065" stroke="#A35D54" stroke-width="0.410959" stroke-miterlimit="10"/>
<path d="M15.182 107.876L17.721 106.388" stroke="#A35D54" stroke-width="0.410959" stroke-miterlimit="10"/>
<path d="M12.0183 101.566L14.6979 100.353" stroke="#A35D54" stroke-width="0.410959" stroke-miterlimit="10"/>
<path d="M9.52124 94.9532L12.3113 94.0321" stroke="#A35D54" stroke-width="0.410959" stroke-miterlimit="10"/>
<path d="M7.71973 88.1116L10.5861 87.4907" stroke="#A35D54" stroke-width="0.410959" stroke-miterlimit="10"/>
<path d="M6.62891 81.1146L9.54551 80.8042" stroke="#A35D54" stroke-width="0.410959" stroke-miterlimit="10"/>
<path d="M6.26331 74.0402H9.19597" stroke="#A35D54" stroke-width="0.410959" stroke-miterlimit="10"/>
<path d="M6.62891 66.968L9.54551 67.2784" stroke="#A35D54" stroke-width="0.410959" stroke-miterlimit="10"/>
<path d="M7.71973 59.9712L10.5861 60.5921" stroke="#A35D54" stroke-width="0.410959" stroke-miterlimit="10"/>
<path d="M9.52124 53.1295L12.3113 54.0505" stroke="#A35D54" stroke-width="0.410959" stroke-miterlimit="10"/>
<path d="M12.0183 46.5167L14.6979 47.7298" stroke="#A35D54" stroke-width="0.410959" stroke-miterlimit="10"/>
<path d="M15.182 40.2062L17.721 41.695" stroke="#A35D54" stroke-width="0.410959" stroke-miterlimit="10"/>
<path d="M18.9761 34.2653L21.3483 36.0175" stroke="#A35D54" stroke-width="0.410959" stroke-miterlimit="10"/>
<path d="M23.3611 28.7592L25.5385 30.7545" stroke="#A35D54" stroke-width="0.410959" stroke-miterlimit="10"/>
<path d="M28.2866 23.7516L30.2491 25.9655" stroke="#A35D54" stroke-width="0.410959" stroke-miterlimit="10"/>
<path d="M33.7019 19.2935L35.4253 21.7054" stroke="#A35D54" stroke-width="0.410959" stroke-miterlimit="10"/>
<path d="M39.543 15.4355L41.0093 18.0169" stroke="#A35D54" stroke-width="0.410959" stroke-miterlimit="10"/>
<path d="M45.7518 12.219L46.943 14.9433" stroke="#A35D54" stroke-width="0.410959" stroke-miterlimit="10"/>
<path d="M52.2562 9.68054L53.1621 12.5172" stroke="#A35D54" stroke-width="0.410959" stroke-miterlimit="10"/>
<path d="M58.9851 7.84848L59.5957 10.7648" stroke="#A35D54" stroke-width="0.410959" stroke-miterlimit="10"/>
<path d="M65.8667 6.73965L66.172 9.70502" stroke="#A35D54" stroke-width="0.410959" stroke-miterlimit="10"/>
<path d="M72.8229 6.36789V9.34959" stroke="#A35D54" stroke-width="0.410959" stroke-miterlimit="10"/>
<path d="M79.7806 6.73965L79.4733 9.70502" stroke="#A35D54" stroke-width="0.410959" stroke-miterlimit="10"/>
<path d="M86.6624 7.84848L86.0518 10.7628" stroke="#A35D54" stroke-width="0.410959" stroke-miterlimit="10"/>
<path d="M93.3915 9.68054L92.4856 12.5172" stroke="#A35D54" stroke-width="0.410959" stroke-miterlimit="10"/>
<path d="M99.8957 12.219L98.7025 14.9433" stroke="#A35D54" stroke-width="0.410959" stroke-miterlimit="10"/>
<path d="M106.103 15.4355L104.638 18.0169" stroke="#A35D54" stroke-width="0.410959" stroke-miterlimit="10"/>
<path d="M111.946 19.2935L110.222 21.7054" stroke="#A35D54" stroke-width="0.410959" stroke-miterlimit="10"/>
<path d="M117.361 23.7516L115.399 25.9655" stroke="#A35D54" stroke-width="0.410959" stroke-miterlimit="10"/>
<path d="M122.286 28.7592L120.107 30.7545" stroke="#A35D54" stroke-width="0.410959" stroke-miterlimit="10"/>
<path d="M126.671 34.2653L124.299 36.0175" stroke="#A35D54" stroke-width="0.410959" stroke-miterlimit="10"/>
<path d="M130.466 40.2042L127.927 41.695" stroke="#A35D54" stroke-width="0.410959" stroke-miterlimit="10"/>
<path d="M133.63 46.5167L130.95 47.7278" stroke="#A35D54" stroke-width="0.410959" stroke-miterlimit="10"/>
<path d="M136.126 53.1295L133.336 54.0505" stroke="#A35D54" stroke-width="0.410959" stroke-miterlimit="10"/>
<path d="M137.928 59.9712L135.06 60.5921" stroke="#A35D54" stroke-width="0.410959" stroke-miterlimit="10"/>
<path d="M139.019 66.968L136.102 67.2784" stroke="#A35D54" stroke-width="0.410959" stroke-miterlimit="10"/>
<path d="M139.382 74.0402H136.452" stroke="#A35D54" stroke-width="0.410959" stroke-miterlimit="10"/>
<path d="M139.019 81.1146L136.102 80.8042" stroke="#A35D54" stroke-width="0.410959" stroke-miterlimit="10"/>
<path d="M137.928 88.1116L135.062 87.4907" stroke="#A35D54" stroke-width="0.410959" stroke-miterlimit="10"/>
<path d="M136.126 94.9532L133.336 94.0321" stroke="#A35D54" stroke-width="0.410959" stroke-miterlimit="10"/>
<path d="M133.63 101.566L130.95 100.353" stroke="#A35D54" stroke-width="0.410959" stroke-miterlimit="10"/>
<path d="M130.466 107.876L127.927 106.388" stroke="#A35D54" stroke-width="0.410959" stroke-miterlimit="10"/>
<path d="M126.671 113.817L124.299 112.065" stroke="#A35D54" stroke-width="0.410959" stroke-miterlimit="10"/>
<path d="M122.286 119.323L120.107 117.328" stroke="#A35D54" stroke-width="0.410959" stroke-miterlimit="10"/>
<path d="M117.361 124.331L115.399 122.115" stroke="#A35D54" stroke-width="0.410959" stroke-miterlimit="10"/>
<path d="M111.946 128.789L110.222 126.377" stroke="#A35D54" stroke-width="0.410959" stroke-miterlimit="10"/>
<path d="M106.103 132.647L104.638 130.066" stroke="#A35D54" stroke-width="0.410959" stroke-miterlimit="10"/>
<path d="M99.8957 135.864L98.7025 133.139" stroke="#A35D54" stroke-width="0.410959" stroke-miterlimit="10"/>
<path d="M93.3915 138.402L92.4856 135.565" stroke="#A35D54" stroke-width="0.410959" stroke-miterlimit="10"/>
<path d="M86.6624 140.234L86.0518 137.318" stroke="#A35D54" stroke-width="0.410959" stroke-miterlimit="10"/>
<path d="M79.7807 141.343L79.4753 138.378" stroke="#A35D54" stroke-width="0.410959" stroke-miterlimit="10"/>
<path d="M72.8229 144.941V137.996" stroke="#A35D54" stroke-width="0.821918" stroke-miterlimit="10"/>
<path d="M37.9559 135.443L41.3707 129.428" stroke="#A35D54" stroke-width="0.821918" stroke-miterlimit="10"/>
<path d="M12.4319 109.492L18.3474 106.018" stroke="#A35D54" stroke-width="0.821918" stroke-miterlimit="10"/>
<path d="M3.08948 74.0401H9.92099" stroke="#A35D54" stroke-width="0.821918" stroke-miterlimit="10"/>
<path d="M12.4319 38.5927L18.3474 42.0646" stroke="#A35D54" stroke-width="0.821918" stroke-miterlimit="10"/>
<path d="M37.9559 12.6397L41.3707 18.6542" stroke="#A35D54" stroke-width="0.821918" stroke-miterlimit="10"/>
<path d="M72.8229 3.14111V10.0868" stroke="#A35D54" stroke-width="0.821918" stroke-miterlimit="10"/>
<path d="M107.689 12.6418L104.274 18.6542" stroke="#A35D54" stroke-width="0.821918" stroke-miterlimit="10"/>
<path d="M133.214 38.5907L127.3 42.0646" stroke="#A35D54" stroke-width="0.821918" stroke-miterlimit="10"/>
<path d="M142.556 74.0401H135.726" stroke="#A35D54" stroke-width="0.821918" stroke-miterlimit="10"/>
<path d="M133.216 109.492L127.3 106.018" stroke="#A35D54" stroke-width="0.821918" stroke-miterlimit="10"/>
<path d="M107.691 135.443L104.274 129.428" stroke="#A35D54" stroke-width="0.821918" stroke-miterlimit="10"/>
<path d="M74.3692 75.921L74.6665 18.5335L77.9005 18.7091L72.8125 9.83139L66.8186 18.1046L70.6351 18.3129L71.1674 75.9292L74.3692 75.921Z" fill="#DB5700"/>
<path d="M70.5549 75.8741L126.999 76.3989L126.812 79.687L135.564 74.5486L127.451 68.4239L127.23 72.3021L70.561 72.6207L70.5549 75.8741Z" fill="#DB5700"/>
<path d="M74.2116 77.4915C76.088 76.6241 76.9175 74.3744 76.0643 72.4667C75.2112 70.559 72.9985 69.7156 71.1222 70.583C69.2458 71.4504 68.4163 73.7001 69.2695 75.6078C70.1226 77.5155 72.3353 78.3589 74.2116 77.4915Z" fill="#C62828"/>
<defs>
<clipPath id="clip0_1778_1478">
<rect width="50.625" height="54" fill="white" transform="translate(74.0625 27.375)"/>
</clipPath>
</defs>
</svg>
