<svg width="320" height="260" viewBox="0 0 320 260" fill="none" xmlns="http://www.w3.org/2000/svg">
<g clip-path="url(#clip0_11290_35745)">
<rect x="30" width="260" height="260" rx="130" fill="#FFF4E5"/>
<path d="M195.631 238.363L163.416 233.55L153.5 232.07L143.584 233.55L111.369 238.363C110.34 279.275 110.34 341.232 108.43 385.886C108.373 387.261 109.466 388.395 110.84 388.395H148.158C149.434 388.395 150.491 387.409 150.568 386.14C151.943 363.806 154.022 330.491 153.5 312.336C153.542 327.623 157.919 363.897 159.533 386.161C159.625 387.423 160.675 388.395 161.943 388.395H199.268C200.642 388.395 201.742 387.254 201.678 385.879C199.656 341.211 196.66 279.275 195.638 238.363H195.631Z" fill="#2F4063"/>
<path d="M119.762 236.094C119.924 238.835 118.691 241.387 117.634 243.846C116.45 246.595 115.266 249.351 114.082 252.099C113.856 252.621 113.927 253.234 114.462 253.544C114.906 253.805 115.682 253.692 115.907 253.163C117.141 250.302 118.367 247.448 119.6 244.586C120.763 241.894 122.053 239.103 121.877 236.094C121.841 235.523 121.411 235.037 120.819 235.037C120.27 235.037 119.727 235.523 119.762 236.094Z" fill="#223049"/>
<path d="M185.313 237.905C186.983 242.895 189.126 247.73 191.705 252.318C192.375 253.502 194.2 252.437 193.53 251.253C191.035 246.82 188.963 242.169 187.349 237.348C187.166 236.806 186.624 236.453 186.046 236.608C185.517 236.756 185.122 237.362 185.306 237.912L185.313 237.905Z" fill="#223049"/>
<path d="M142.533 245.925C144.373 254.376 146.043 262.861 147.445 271.396C148.827 279.825 149.933 288.303 150.652 296.817C151.061 301.673 151.35 306.543 151.498 311.413C151.54 312.773 153.654 312.773 153.612 311.413C153.351 302.737 152.64 294.075 151.589 285.463C150.539 276.851 149.137 268.224 147.509 259.675C146.6 254.89 145.613 250.119 144.577 245.362C144.457 244.805 143.809 244.481 143.273 244.622C142.695 244.777 142.413 245.362 142.533 245.925Z" fill="#223049"/>
<path d="M189.992 67.0187C193.798 73.3335 196.582 80.3178 201.332 85.9489C204.179 89.3248 207.689 92.1439 211.6 94.1947C214.913 95.9285 218.578 97.1689 221.347 99.6849C222.87 101.073 224.061 102.8 224.928 104.668C229.17 113.752 225.259 125.099 217.866 131.865C210.473 138.631 200.359 141.605 190.443 143.099C178.73 144.861 166.601 144.812 155.218 141.548C145.267 138.694 136.091 133.429 128.148 126.79C123.539 122.935 119.282 118.552 116.315 113.329C113.94 109.136 112.453 104.477 111.487 99.7554C109.866 91.7703 109.443 84.9693 110.775 76.9278C112.361 67.3852 115.519 59.1605 123.151 52.6413C129.424 47.285 137.811 43.5004 146.035 42.9295C164.24 41.6751 180.809 51.7885 189.985 67.0187H189.992Z" fill="#822F2F"/>
<path d="M189.076 67.5543C192.05 72.5089 194.397 77.8299 197.583 82.6646C200.754 87.4782 204.863 91.5659 209.874 94.4555C212.312 95.858 214.955 96.8658 217.415 98.226C219.875 99.5863 221.806 101.292 223.208 103.667C225.682 107.839 226.14 112.871 225.076 117.551C223.997 122.301 221.51 126.72 218.092 130.18C214.356 133.965 209.592 136.657 204.637 138.511C199.683 140.364 194.002 141.577 188.533 142.31C182.374 143.134 176.129 143.43 169.927 143.007C163.725 142.584 157.869 141.45 152.125 139.462C146.761 137.602 141.666 135.029 136.902 131.949C132.137 128.87 127.641 125.318 123.694 121.258C119.747 117.199 116.47 112.322 114.525 106.852C113.503 103.991 112.791 101.031 112.228 98.0498C111.664 95.0687 111.255 92.0311 111.107 88.9865C110.825 83.2285 111.48 77.4423 112.904 71.8534C114.109 67.1103 116.012 62.5645 118.951 58.6248C122.13 54.3539 126.471 50.9851 131.144 48.4761C135.816 45.9671 141.384 44.2122 146.902 43.9374C151.815 43.6977 156.727 44.2898 161.442 45.6923C170.745 48.455 178.948 54.2623 185.038 61.7752C186.518 63.6005 187.857 65.5387 189.076 67.5473C189.781 68.7101 191.606 67.6459 190.901 66.4831C185.665 57.8284 177.99 50.5904 168.814 46.2631C159.349 41.7949 148.178 40.3078 138.05 43.3383C127.923 46.3688 118.035 53.6985 113.461 63.8049C111.213 68.7736 109.993 74.1651 109.338 79.5707C108.577 85.8291 108.986 92.0945 110.127 98.2824C111.269 104.47 113.066 110.32 116.407 115.542C119.578 120.497 123.828 124.669 128.381 128.355C137.621 135.854 148.411 141.478 160.124 143.832C166.403 145.093 172.845 145.495 179.237 145.241C185.63 144.988 191.465 144.234 197.406 142.866C207.95 140.435 218.613 135.382 224.16 125.621C226.669 121.202 228.113 116 227.641 110.898C227.134 105.394 224.484 100.214 219.769 97.1759C217.359 95.6254 214.659 94.6106 212.129 93.2856C209.599 91.9606 207.28 90.3396 205.18 88.4297C200.754 84.3984 197.808 79.2395 195.031 74.003C193.692 71.4729 192.367 68.9357 190.894 66.4831C190.197 65.3202 188.364 66.3773 189.069 67.5473L189.076 67.5543Z" fill="#822F2F"/>
<path d="M199.359 217.579C199.133 223.528 198.746 229.469 198.189 235.396C198.076 236.58 197.851 237.947 196.794 238.546C196.251 238.856 195.596 238.892 194.968 238.92C168.201 240.069 141.398 240.435 114.603 240.019C113.186 239.998 111.622 239.914 110.614 238.955C109.599 237.99 109.486 236.453 109.437 235.072C108.866 217.77 108.838 200.453 109.352 183.151C109.874 165.483 106.843 140.343 122.13 127.686C130.693 120.596 139.813 118.305 150.751 117.706C153.274 117.565 155.811 117.438 158.327 117.657C171.091 118.77 184.918 127.129 190.852 138.659C194.736 146.207 194.108 153.875 195.469 161.909C196.561 168.344 198.556 174.595 199.718 181.009C200.592 185.865 199.366 190.594 199.493 195.534C199.676 202.885 199.641 210.236 199.359 217.579Z" fill="#6B8EBF"/>
<path d="M130.545 122.435C120.615 127.284 112.122 136.058 106.054 145.164C99.979 154.291 96.6665 165.144 89.3087 173.439C86.9336 176.118 84.1709 178.464 82.113 181.396C76.8554 188.888 77.1232 199.41 81.4646 207.466C82.6627 209.7 84.1568 211.786 85.9892 213.534C90.0276 217.389 95.6587 219.412 101.241 219.433C108.45 219.454 115.294 215.98 121.32 212.371" fill="#6B8EBF"/>
<path d="M96.0537 173.376C100.459 174.377 104.483 177.006 107.14 180.663C107.922 181.742 108.592 182.905 109.141 184.117C109.374 184.638 110.135 184.765 110.586 184.497C111.122 184.187 111.199 183.574 110.967 183.053C108.93 178.535 105.152 174.786 100.649 172.728C99.3521 172.136 98.006 171.656 96.6105 171.339C96.0537 171.212 95.4688 171.508 95.3067 172.079C95.1587 172.615 95.4829 173.249 96.0467 173.383L96.0537 173.376Z" fill="#C1C1C1"/>
<path d="M101.332 164.644C104.898 167.985 107.816 171.952 109.944 176.35C110.529 177.569 111.051 178.817 111.502 180.093C111.692 180.628 112.221 180.988 112.806 180.833C113.327 180.692 113.736 180.071 113.546 179.529C111.812 174.673 109.204 170.169 105.829 166.265C104.884 165.172 103.883 164.136 102.833 163.15C101.84 162.219 100.345 163.714 101.339 164.644H101.332Z" fill="#C1C1C1"/>
<path d="M165.277 171.085C158.913 158.28 155.029 143.705 153.197 131.005C152.929 129.159 152.711 127.227 153.296 125.451C159.392 106.944 196.428 129.934 204.208 136.051C218.057 146.926 229.785 160.845 235.352 177.781C238.009 185.872 238.665 194.921 235.416 202.786C232.237 210.468 225.316 216.501 217.275 218.594C209.233 220.687 200.248 218.806 193.728 213.647C186.385 207.839 184.468 199.875 179.943 192.334C175.496 184.927 169.223 179.035 165.277 171.085Z" fill="#6B8EBF"/>
<path d="M206.83 176.477C207.035 175.97 207.669 175.568 208.268 175.3C208.945 175.004 209.811 174.8 210.573 174.659C212.264 174.342 214.047 174.356 215.739 174.673C219.065 175.293 222.011 177.034 224.189 179.613C225.309 180.945 226.19 182.51 226.747 184.145C226.93 184.688 227.473 185.04 228.051 184.885C228.579 184.744 228.974 184.124 228.791 183.581C227.565 180.001 225.147 176.9 221.955 174.863C218.501 172.657 214.259 171.896 210.234 172.587C208.078 172.953 205.674 173.714 204.793 175.92C204.582 176.449 205.026 177.083 205.533 177.224C206.14 177.393 206.619 177.02 206.837 176.484L206.83 176.477Z" fill="#C1C1C1"/>
<path d="M193.7 192.405C192.509 195.393 192.805 198.684 193.284 201.785C193.763 204.886 194.595 208.206 195.694 211.286C195.885 211.821 196.413 212.181 196.998 212.026C197.52 211.885 197.928 211.265 197.738 210.722C196.674 207.741 195.885 204.675 195.377 201.553C194.919 198.706 194.644 195.703 195.744 192.962C195.955 192.433 195.511 191.799 195.004 191.658C194.404 191.496 193.918 191.862 193.7 192.398V192.405Z" fill="#C1C1C1"/>
<path d="M164.74 99.9386C163.747 100.27 163.31 108.734 163.218 109.904C162.943 113.59 163.028 117.339 162.964 121.04C162.964 121.293 162.95 121.554 162.837 121.78C162.626 122.195 162.133 122.357 161.696 122.498C159.666 123.154 157.735 124.133 156.008 125.388C153.563 127.171 151.032 129.645 148.051 129.123C145.472 128.672 143.858 126.107 142.871 123.675C140.827 118.65 142.949 113.047 141.285 107.719L164.733 99.9316L164.74 99.9386Z" fill="#D99C9A"/>
<path d="M151.406 122.09C151.808 122.442 152.217 122.809 152.4 123.281C152.576 123.732 152.52 124.232 152.456 124.704C152.189 126.551 151.681 128.404 150.568 129.969C149.454 131.534 147.643 132.774 145.592 132.95C142.949 133.183 140.405 131.597 139.087 129.511C137.769 127.425 137.459 124.951 137.466 122.548C137.473 119.56 137.374 114.986 140.828 113.506C140.997 113.435 141.18 113.365 141.37 113.393C141.589 113.428 141.751 113.576 141.906 113.724C144.922 116.635 148.2 119.334 151.413 122.083L151.406 122.09Z" fill="white"/>
<path d="M122.884 80.5785C122.828 78.2669 122.898 75.9552 122.997 73.6858C123.18 69.5206 123.202 65.299 125.196 61.4792C125.837 60.2528 126.599 59.1675 127.487 58.1949C130.158 55.2842 133.999 53.3813 139.369 51.6617C150.06 48.2365 162.309 51.2599 169.709 59.5692C174.544 64.996 176.623 70.9161 177.074 78.1048C177.554 85.7586 176.666 93.1587 171.556 99.1634C159.991 112.758 134.858 112.97 126.218 96.0342C125.767 95.1462 125.365 94.2229 125.013 93.2856C123.519 89.2402 122.99 84.9058 122.891 80.5785H122.884Z" fill="#FFC2B8"/>
<path d="M173.163 79.6976C174.129 79.1267 175.13 78.6263 176.159 78.1894C177.082 77.7947 178.047 77.4564 179.048 77.4282C180.916 77.3789 182.685 78.4501 183.855 79.909C186.674 83.4258 185.969 89.1556 182.502 92.0311C179.612 94.4203 175.249 94.6106 171.979 92.8346" fill="#FFC2B8"/>
<path d="M139.447 85.1666C140.657 85.1666 141.639 84.1853 141.639 82.9747C141.639 81.7642 140.657 80.7829 139.447 80.7829C138.236 80.7829 137.255 81.7642 137.255 82.9747C137.255 84.1853 138.236 85.1666 139.447 85.1666Z" fill="#1D2C38"/>
<path d="M156.601 85.1666C157.811 85.1666 158.792 84.1853 158.792 82.9747C158.792 81.7642 157.811 80.7829 156.601 80.7829C155.39 80.7829 154.409 81.7642 154.409 82.9747C154.409 84.1853 155.39 85.1666 156.601 85.1666Z" fill="#1D2C38"/>
<path d="M180.07 83.8628L175.898 84.9058C175.362 85.0398 174.988 85.674 175.158 86.2097C175.327 86.7453 175.883 87.0906 176.461 86.9497L180.634 85.9066C181.169 85.7727 181.543 85.1384 181.374 84.6028C181.205 84.0672 180.648 83.7218 180.07 83.8628Z" fill="#BD5C55"/>
<path d="M126.697 79.6976C125.732 79.1267 124.731 78.6263 123.702 78.1894C122.779 77.7947 121.813 77.4564 120.812 77.4282C118.945 77.3789 117.176 78.4501 116.006 79.909C113.187 83.4258 113.892 89.1556 117.359 92.0311C120.249 94.4203 124.611 94.6106 127.881 92.8346" fill="#FFC2B8"/>
<path d="M119.227 85.8996L123.399 86.9426C123.935 87.0765 124.569 86.7735 124.703 86.2026C124.837 85.6318 124.541 85.0468 123.963 84.8988L119.791 83.8557C119.255 83.7218 118.621 84.0249 118.487 84.5957C118.353 85.1666 118.649 85.7516 119.227 85.8996Z" fill="#BD5C55"/>
<path d="M117.224 64.5167C117.894 61.7258 119.423 59.1181 121.227 56.8488C130.819 44.7549 144.196 43.155 158.531 45.509C161.174 45.9459 163.873 46.397 166.255 47.6233C168.567 48.8144 170.456 50.682 172.225 52.5849C175.981 56.6303 179.47 61.169 180.872 66.5042C181.753 69.8448 181.33 76.2441 177.475 77.4916C172.937 78.9575 165.832 74.5033 162.464 71.9591C157.862 68.4775 154.084 64.0375 149.982 59.978C149.7 59.7031 149.39 59.4071 149.003 59.3507C148.495 59.2732 148.016 59.6044 147.607 59.9216C144.21 62.5504 140.806 65.1792 137.409 67.808C134.167 70.317 127.387 77.0194 122.996 76.7868C118.895 76.5683 116.816 70.7751 116.858 67.3429C116.872 66.3844 116.999 65.447 117.217 64.5238L117.224 64.5167Z" fill="#822F2F"/>
<path d="M118.246 64.7916C119.029 61.6131 120.861 58.8292 122.975 56.3766C124.836 54.2271 126.943 52.3101 129.297 50.7525C133.772 47.7995 139.002 46.2279 144.259 45.7909C147.057 45.5583 149.876 45.6006 152.674 45.8262C155.726 46.0728 158.742 46.4816 161.745 47.1652C163.359 47.5317 164.937 48.0391 166.368 48.8849C167.799 49.7306 168.976 50.7666 170.118 51.9084C172.38 54.1636 174.522 56.6162 176.312 59.2732C177.969 61.7329 179.442 64.4956 180.005 67.4345C180.027 67.5543 180.048 67.6671 180.069 67.7869C180.076 67.8503 180.09 67.9067 180.097 67.9701C180.076 67.7587 180.097 67.9278 180.097 67.9701C180.132 68.245 180.153 68.5199 180.175 68.7947C180.21 69.3585 180.217 69.9223 180.189 70.4862C180.175 70.7681 180.153 71.0429 180.125 71.3249C180.125 71.3883 180.083 71.6631 180.097 71.6068C180.111 71.4869 180.083 71.6984 180.076 71.7266C180.062 71.8111 180.048 71.9028 180.034 71.9873C179.935 72.5512 179.801 73.1009 179.618 73.6436C179.576 73.7704 179.526 73.8973 179.477 74.0241C179.47 74.0453 179.385 74.2426 179.435 74.1298C179.484 74.0171 179.399 74.2074 179.385 74.2285C179.265 74.4752 179.139 74.7219 178.998 74.9544C178.934 75.0601 178.857 75.1659 178.786 75.2716C178.765 75.2998 178.666 75.4337 178.786 75.2786C178.751 75.328 178.709 75.3773 178.666 75.4196C178.497 75.6169 178.314 75.8002 178.117 75.9693C177.919 76.1384 178.159 75.9623 178.011 76.0539C177.905 76.1173 177.807 76.1878 177.701 76.2512C177.595 76.3146 177.482 76.364 177.377 76.4204C177.567 76.3287 177.172 76.4908 177.095 76.512C176.848 76.5825 176.601 76.6388 176.355 76.6811C176.179 76.7093 176.503 76.667 176.327 76.6811C176.256 76.6882 176.186 76.6952 176.122 76.7023C175.967 76.7164 175.805 76.7234 175.65 76.7234C175.361 76.7234 175.072 76.7234 174.783 76.6952C174.635 76.6811 174.487 76.667 174.339 76.6459C174.388 76.6459 174.501 76.6741 174.283 76.6388C174.191 76.6247 174.092 76.6106 174.001 76.5895C173.352 76.4697 172.718 76.3005 172.091 76.1032C170.787 75.6803 169.631 75.1518 168.405 74.5104C166.171 73.3335 164.049 71.9239 162.09 70.3311C159.377 68.1252 156.931 65.6162 154.514 63.1001C153.316 61.8597 152.125 60.6123 150.905 59.4001C150.222 58.7235 149.475 58.1385 148.453 58.3288C147.565 58.4909 146.867 59.1746 146.176 59.7102C143.146 62.0571 140.115 64.3969 137.078 66.7438C135.238 68.1604 133.519 69.718 131.707 71.1698C130.728 71.9591 129.762 72.6921 128.677 73.418C128.148 73.7704 127.613 74.1087 127.056 74.4258C126.802 74.5668 126.541 74.7078 126.281 74.8417C126.154 74.9051 126.027 74.9685 125.9 75.0249C125.851 75.0461 125.484 75.2082 125.632 75.1518C125.146 75.3562 124.638 75.5253 124.124 75.6381C124.025 75.6592 123.92 75.6804 123.814 75.7015C123.617 75.7438 123.793 75.7015 123.835 75.7015C123.779 75.7015 123.722 75.7156 123.666 75.7226C123.412 75.7438 123.158 75.7508 122.905 75.7297C122.841 75.7297 122.771 75.7156 122.707 75.7085C122.729 75.7085 122.862 75.7367 122.743 75.7085C122.616 75.6803 122.489 75.6592 122.362 75.624C122.235 75.5887 122.115 75.5464 121.996 75.5042C121.841 75.4478 122.13 75.5676 121.982 75.5042C121.911 75.4689 121.834 75.4337 121.763 75.3984C121.53 75.2786 121.312 75.1447 121.101 74.9897C121.072 74.9685 120.945 74.8699 121.079 74.9756C121.03 74.9333 120.981 74.891 120.924 74.8487C120.812 74.75 120.699 74.6514 120.593 74.5457C120.403 74.3554 120.22 74.151 120.05 73.9396C119.973 73.8479 120.05 73.9325 120.05 73.9466C120.008 73.8902 119.966 73.8338 119.931 73.7775C119.832 73.6365 119.733 73.4885 119.635 73.3405C119.332 72.8542 119.064 72.3468 118.838 71.8182C118.888 71.931 118.768 71.635 118.74 71.5715C118.69 71.4376 118.641 71.3037 118.592 71.1628C118.493 70.8738 118.401 70.5848 118.324 70.2888C118.176 69.7462 118.056 69.1894 117.978 68.6256C118.007 68.844 117.964 68.4705 117.957 68.4282C117.943 68.3014 117.936 68.1816 117.929 68.0547C117.915 67.8151 117.908 67.5825 117.908 67.3429C117.915 66.4831 118.035 65.6373 118.232 64.8057C118.359 64.2489 118.056 63.664 117.492 63.5019C116.956 63.3539 116.322 63.6851 116.188 64.2419C115.54 66.9975 115.737 69.8096 116.808 72.4313C117.746 74.7219 119.36 77.0829 121.911 77.696C124.307 78.2739 126.746 77.0969 128.74 75.8777C131.073 74.454 133.194 72.6851 135.288 70.9231C137.501 69.0555 139.777 67.2865 142.068 65.5175C143.632 64.3124 145.19 63.1001 146.754 61.895C147.142 61.5919 147.537 61.2889 147.924 60.9929C148.164 60.8096 148.488 60.4784 148.791 60.415C148.904 60.3938 148.777 60.3797 148.876 60.4291C148.995 60.4925 149.115 60.6264 149.221 60.7321C149.545 61.0493 149.862 61.3664 150.172 61.6906C154.817 66.3914 159.222 71.3601 164.867 74.9121C167.27 76.4274 169.899 77.8017 172.676 78.4783C175.121 79.0703 178.011 79.1055 179.9 77.1886C181.626 75.4337 182.19 72.7767 182.289 70.3946C182.395 67.6248 181.669 65.0312 180.541 62.5222C179.153 59.4212 177.13 56.6374 174.931 54.065C172.732 51.4925 170.399 48.8567 167.489 47.1229C164.578 45.3892 160.836 44.7831 157.389 44.2827C154.38 43.8457 151.349 43.5568 148.312 43.5427C142.596 43.5216 136.859 44.4941 131.686 46.982C129.05 48.2506 126.612 49.9209 124.434 51.8802C121.996 54.072 119.769 56.6515 118.14 59.4988C117.288 60.9858 116.604 62.5857 116.195 64.2489C115.871 65.5669 117.908 66.1307 118.232 64.8127L118.246 64.7916Z" fill="#822F2F"/>
<path d="M142.174 72.8894C140.137 71.8957 137.635 71.9732 135.718 73.2348C135.26 73.5378 135.021 74.1862 135.338 74.6795C135.634 75.1376 136.289 75.3843 136.782 75.0601C136.973 74.9333 137.163 74.8205 137.367 74.7218C137.417 74.7007 137.748 74.5668 137.501 74.6584C137.607 74.6161 137.713 74.5809 137.818 74.5456C138.03 74.4752 138.248 74.4188 138.474 74.3765C138.53 74.3624 138.883 74.2778 138.608 74.3483C138.699 74.3272 138.805 74.3272 138.904 74.3201C139.115 74.306 139.327 74.306 139.538 74.3201C139.651 74.3201 139.764 74.3342 139.876 74.3483C139.996 74.3624 139.989 74.3624 139.848 74.3483C139.905 74.3554 139.961 74.3694 140.017 74.3765C140.236 74.4188 140.454 74.4752 140.673 74.5456C140.779 74.5809 140.884 74.6232 140.99 74.6584C140.736 74.5597 141.075 74.7007 141.124 74.7218C141.617 74.9615 142.287 74.8698 142.569 74.3413C142.822 73.8691 142.717 73.1572 142.188 72.8965L142.174 72.8894Z" fill="#1D2C38"/>
<path d="M155.128 74.299C154.874 74.4047 155.212 74.2708 155.262 74.2567C155.367 74.2215 155.473 74.1863 155.579 74.1581C155.783 74.1017 156.016 74.0312 156.227 74.0242C155.931 74.0383 156.305 74.0242 156.361 74.0242C156.474 74.0171 156.58 74.0101 156.692 74.0101C156.918 74.0101 157.136 74.0242 157.355 74.0453C157.475 74.0594 157.468 74.0594 157.32 74.0453C157.376 74.0524 157.432 74.0664 157.482 74.0735C157.587 74.0946 157.7 74.1158 157.806 74.144C158.024 74.2004 158.229 74.2708 158.44 74.3413C158.553 74.3836 158.546 74.3836 158.419 74.3272C158.468 74.3484 158.518 74.3695 158.567 74.3977C158.666 74.447 158.764 74.4964 158.863 74.5457C159.06 74.6514 159.244 74.7712 159.42 74.9051C159.871 75.2293 160.618 74.9968 160.865 74.5246C161.154 73.9748 160.963 73.4251 160.484 73.0798C158.616 71.7266 156.129 71.5927 154.049 72.4948C153.542 72.7133 153.387 73.5026 153.669 73.9396C154.007 74.4682 154.571 74.5527 155.114 74.3202L155.128 74.299Z" fill="#1D2C38"/>
<path d="M159.575 95.7311C157.735 94.4203 157.235 91.432 158.221 89.4305C159.011 87.8236 160.639 86.7171 162.373 86.4634C164.106 86.2097 165.911 86.7664 167.299 87.8588C169.723 89.7547 169.293 93.6591 166.918 95.5479C165.903 96.3584 164.593 96.6896 163.31 96.7249C161.999 96.7601 160.653 96.4923 159.575 95.7241V95.7311Z" fill="#F7A797"/>
<path d="M129.446 96.1117C127.607 94.8008 127.106 91.8126 128.093 89.8111C128.882 88.2042 130.51 87.0977 132.244 86.844C133.978 86.5902 135.782 87.147 137.17 88.2394C139.595 90.1352 139.165 94.0397 136.79 95.9285C135.775 96.739 134.464 97.0702 133.181 97.1055C131.871 97.1407 130.524 96.8729 129.446 96.1047V96.1117Z" fill="#F7A797"/>
<path d="M145.755 78.2316C145.832 79.0562 145.832 79.9019 145.698 80.7195C145.564 81.537 145.275 82.3052 145.071 83.1087C144.634 84.8213 145.029 86.5198 146.185 87.8518C146.558 88.2817 147.298 88.2323 147.679 87.8518C148.109 87.4219 148.052 86.7876 147.679 86.3577C147.333 85.963 147.101 85.4415 147.016 84.927C146.911 84.2292 147.122 83.5738 147.326 82.9184C147.799 81.396 148.017 79.8174 147.869 78.2246C147.82 77.6537 147.418 77.1674 146.812 77.1674C146.283 77.1674 145.705 77.6537 145.755 78.2246V78.2316Z" fill="#BD5C55"/>
<path d="M152.111 131.914C149.454 130.779 148.799 129.243 147.756 126.699C145.853 122.083 160.985 114.788 163.895 112.857C164.748 113.16 165.277 114.006 165.664 114.823C167.49 118.714 167.828 125.423 164.72 128.792C163.775 129.814 162.606 130.61 161.365 131.231C158.511 132.654 155.057 133.14 152.111 131.914Z" fill="white"/>
<path d="M137.367 122.224C138.023 124.747 139.038 127.481 141.089 129.201C143.548 131.259 147.072 131.407 149.609 129.377C150.871 128.369 151.752 126.84 152.006 125.24H149.969C150.582 128.426 153.5 130.709 156.65 131.012C160.103 131.343 163.345 129.307 165.255 126.558C166.341 124.993 167.045 123.161 167.426 121.3C167.539 120.744 167.264 120.159 166.686 119.996C166.165 119.856 165.502 120.173 165.382 120.736C164.832 123.422 163.55 126.142 161.189 127.693C158.983 129.137 156.206 129.398 154.042 127.876C152.985 127.129 152.252 125.987 151.999 124.683C151.808 123.689 150.124 123.661 149.962 124.683C149.602 126.938 147.826 128.75 145.437 128.743C143.048 128.736 141.624 127.079 140.666 125.198C140.102 124.105 139.721 122.893 139.397 121.667C139.052 120.349 137.015 120.906 137.36 122.231L137.367 122.224Z" fill="#C1C1C1"/>
<path d="M141.032 91.6857C142.47 93.5534 144.021 95.4281 146.262 96.3372C148.637 97.3028 151.604 96.8376 153.591 95.2307C154.825 94.23 155.614 92.5808 155.438 90.981C155.374 90.3748 155.008 89.9731 154.381 89.9238C150.237 89.5785 146.071 89.6348 141.941 90.0929C141.371 90.1564 140.884 90.5369 140.884 91.1501C140.884 91.6716 141.371 92.2707 141.941 92.2073C146.071 91.7492 150.237 91.6928 154.381 92.0381L153.324 90.981C153.472 92.32 152.717 93.4336 151.555 94.0749C150.977 94.3921 150.328 94.5753 149.673 94.6669C149.447 94.7022 149.151 94.7163 148.898 94.7163C148.728 94.7163 148.566 94.7162 148.397 94.7022C148.193 94.6881 148.214 94.6881 148.08 94.6669C147.002 94.4837 146.086 93.9833 145.317 93.3278C144.394 92.5385 143.562 91.5448 142.851 90.6145C142.505 90.1634 141.941 89.9238 141.406 90.2339C140.962 90.4947 140.673 91.2276 141.025 91.6787L141.032 91.6857Z" fill="#BD5C55"/>
<path d="M110.184 183.088C102.347 184.392 96.1733 181.185 88.7239 185.893C86.7223 187.154 85.0097 188.987 84.2768 191.242C83.9244 192.334 83.8116 193.483 83.7059 194.625C82.6417 206.564 89.5203 216.452 102.256 210.271C108.472 207.254 114.991 202.878 118.049 196.478" fill="#FFC2B8"/>
<path d="M117.753 200.066C116.724 200.087 115.899 199.361 115.758 198.304L106.8 131.865C106.709 131.167 106.927 130.42 107.399 129.842C107.872 129.264 108.541 128.919 109.225 128.905L158.214 127.749C159.242 127.728 160.067 128.454 160.208 129.511L169.166 195.95C169.257 196.648 169.039 197.395 168.567 197.973C168.094 198.551 167.425 198.896 166.741 198.91L117.745 200.066H117.753Z" fill="#EDEDED"/>
<path d="M155.296 132.274C155.367 132.823 155.437 133.373 155.508 133.923L156.086 138.419C156.367 140.625 156.649 142.831 156.938 145.03C157.284 147.729 157.629 150.436 157.981 153.135C158.362 156.095 158.743 159.055 159.123 162.015L160.272 170.938L161.343 179.296L162.252 186.358L162.908 191.439C163.013 192.236 163.112 193.039 163.218 193.836C163.218 193.871 163.225 193.906 163.232 193.941C163.302 194.505 163.669 194.998 164.289 194.998C164.804 194.998 165.417 194.512 165.346 193.941C165.276 193.37 165.205 192.842 165.135 192.292L164.557 187.796L163.704 181.185C163.359 178.486 163.013 175.779 162.661 173.08C162.281 170.12 161.9 167.16 161.519 164.2C161.139 161.24 160.758 158.252 160.371 155.277C160.011 152.494 159.652 149.703 159.299 146.919L158.39 139.857L157.735 134.776C157.629 133.979 157.53 133.176 157.425 132.379C157.425 132.344 157.418 132.309 157.411 132.274C157.34 131.71 156.974 131.216 156.353 131.216C155.839 131.216 155.226 131.703 155.296 132.274Z" fill="#BCBCBC"/>
<path d="M115.933 138.379C116.5 137.466 116.31 136.323 115.51 135.827C114.709 135.33 113.601 135.667 113.035 136.58C112.468 137.493 112.658 138.636 113.458 139.132C114.259 139.629 115.367 139.292 115.933 138.379Z" fill="#1D2C38"/>
<path d="M162.012 148.145C161.47 148.145 161.04 147.743 160.976 147.18L160.271 141.013C160.18 140.223 160.828 139.462 161.589 139.462C162.132 139.462 162.562 139.864 162.625 140.428L163.33 146.595C163.422 147.384 162.773 148.145 162.012 148.145Z" fill="#DBD7D7"/>
<path d="M151.864 128.581C151.681 129.144 151.166 129.546 150.623 129.553L144.675 129.61C143.914 129.617 143.428 128.863 143.689 128.073C143.872 127.509 144.386 127.108 144.929 127.101L150.877 127.044C151.638 127.037 152.125 127.791 151.864 128.581Z" fill="#DBD7D7"/>
<path d="M117.471 133.267C117.675 134.43 118.281 135.487 118.782 136.545C119 136.996 119.148 137.482 119.43 137.905C119.81 138.476 120.374 138.863 121.051 138.983C121.664 139.089 122.298 139.082 122.919 139.103C123.616 139.124 124.307 139.138 125.005 139.152C126.337 139.173 127.669 139.173 129.001 139.152C131.665 139.117 134.329 138.997 136.986 138.807C138.318 138.708 139.643 138.595 140.968 138.462C142.131 138.342 143.547 138.405 144.435 137.524C145.098 136.876 145.563 135.988 145.979 135.17C146.395 134.353 146.775 133.514 147.092 132.654C147.29 132.119 146.874 131.498 146.352 131.35C145.76 131.188 145.246 131.548 145.048 132.09C145.006 132.21 144.964 132.323 144.914 132.443C144.879 132.527 144.851 132.605 144.816 132.689C144.893 132.499 144.816 132.704 144.788 132.746C144.633 133.098 144.47 133.444 144.301 133.789C143.963 134.48 143.59 135.156 143.146 135.79C142.976 136.03 143.286 135.664 143.089 135.854C143.054 135.889 143.019 135.931 142.983 135.974C142.934 136.023 142.885 136.072 142.828 136.122C143.04 135.924 142.927 136.094 142.814 136.108C142.314 136.192 141.813 136.249 141.306 136.305C140.094 136.432 138.882 136.545 137.669 136.636C132.792 137.017 127.887 137.13 122.996 136.989C122.679 136.982 122.362 136.967 122.038 136.953C121.805 136.946 121.523 136.975 121.333 136.883C121.22 136.827 121.199 136.791 121.107 136.608C120.98 136.368 120.896 136.129 120.776 135.868C120.311 134.825 119.698 133.838 119.493 132.697C119.395 132.133 118.704 131.816 118.189 131.957C117.597 132.119 117.351 132.689 117.449 133.26L117.471 133.267Z" fill="#BCBCBC"/>
<path d="M133.448 165.32C136.402 165.32 138.797 162.926 138.797 159.971C138.797 157.017 136.402 154.622 133.448 154.622C130.494 154.622 128.099 157.017 128.099 159.971C128.099 162.926 130.494 165.32 133.448 165.32Z" fill="white"/>
<path d="M136.726 182.517C133.752 180.966 130.369 180.882 127.078 180.847C126.147 180.833 122.8 181.375 122.137 180.727C120.854 179.465 122.976 179.007 124.061 178.796C126.211 178.38 128.381 178.161 130.545 178.14C131.94 178.126 134.012 179.071 134.661 177.034C134.964 176.096 134.661 175.053 134.076 174.32C133.491 173.587 132.673 173.136 131.842 172.784C124.322 169.584 114.392 174.074 108.204 179.282C106.033 181.114 103.841 182.954 102.037 185.202C99.831 187.944 98.4144 191.27 98.1959 194.85C98.0056 197.895 98.8936 200.869 100.656 203.16C103.757 207.184 109.24 205.648 113.666 205.626C119.212 205.598 124.759 205.521 130.312 205.408C131.292 205.387 132.314 205.359 133.216 204.893C134.118 204.428 134.865 203.406 134.738 202.363C134.555 200.926 132.991 200.341 131.673 200.045C128.706 199.368 125.731 198.691 122.764 198.015C125.872 197.056 128.952 195.999 132.117 195.386C133.484 195.118 135.204 195.041 135.5 193.032C135.725 191.489 134.393 190.305 133.167 189.543C135.126 188.056 138.629 189.466 139.637 187.133C140.257 185.695 139.171 184.138 137.987 183.292C137.579 183.003 137.156 182.742 136.726 182.517Z" fill="#FFC2B8"/>
<path d="M118.529 190.608C122.215 189.346 126.084 188.825 129.974 189.064C130.545 189.1 131.032 188.557 131.032 188.007C131.032 187.408 130.545 186.985 129.974 186.95C125.915 186.703 121.813 187.253 117.965 188.571C117.422 188.754 117.07 189.297 117.225 189.875C117.366 190.403 117.986 190.798 118.529 190.615V190.608Z" fill="#BD5C55"/>
<path d="M118.606 198.67C119.452 198.48 120.291 198.283 121.137 198.092C121.679 197.966 122.046 197.317 121.877 196.789C121.693 196.225 121.158 195.915 120.573 196.049C119.727 196.239 118.888 196.436 118.043 196.626C117.5 196.753 117.134 197.402 117.303 197.93C117.486 198.494 118.022 198.804 118.606 198.67Z" fill="#BD5C55"/>
<path d="M198.647 146.848C200.191 152.36 203.44 157.23 206.844 161.832C210.248 166.434 213.891 170.923 216.408 176.068C218.924 181.213 220.241 187.197 218.698 192.708C217.155 198.219 212.228 202.991 206.498 203.117C202.326 203.209 198.372 200.897 195.631 197.747C192.896 194.597 191.219 190.671 189.831 186.739C186.342 176.815 184.439 166.335 184.221 155.82" fill="#FFC2B8"/>
<path d="M183.143 156.673C184.017 158.146 185.208 159.393 186.646 160.197C189.655 161.881 195.512 160.14 198.197 158.315C201.34 156.172 201.573 152.747 201.826 149.23C202.186 144.346 202.052 139.335 201.988 134.43C201.862 124.112 201.523 113.498 204.963 103.611C205.237 102.821 205.54 102.011 205.47 101.179C205.301 99.2691 203.391 99.0929 202.031 99.9809C200.515 100.975 200.029 103.427 199.409 105.027C197.555 109.841 196.047 114.781 194.898 119.813C194.574 121.223 194.229 122.745 193.151 123.718C191.579 125.134 189.169 124.824 187.125 125.353C182.699 126.502 180.493 131.343 178.886 135.621C177.977 138.032 177.335 141.316 179.513 142.69C180.098 143.064 180.817 143.212 181.346 143.663C182.699 144.819 182.029 146.961 181.663 148.702C181.12 151.274 181.712 154.27 183.143 156.673Z" fill="#FFC2B8"/>
<path d="M182.967 136.89C184.235 137.736 185.673 138.201 187.181 138.356L186.434 136.552C184.623 138.426 183.248 140.646 182.346 143.092C182.149 143.628 182.565 144.248 183.086 144.396C183.678 144.558 184.186 144.198 184.39 143.656C185.151 141.605 186.392 139.646 187.935 138.046C188.231 137.743 188.323 137.285 188.154 136.89C187.97 136.474 187.625 136.284 187.188 136.242C186.117 136.129 184.996 135.699 184.038 135.065C183.566 134.747 182.868 134.973 182.593 135.445C182.29 135.967 182.494 136.573 182.974 136.89H182.967Z" fill="#BD5C55"/>
<path d="M186.547 127.756C188.083 129.856 190.388 131.357 192.981 131.738C193.524 131.816 194.144 131.604 194.285 130.998C194.398 130.498 194.13 129.786 193.545 129.694C192.996 129.61 192.453 129.483 191.924 129.3C191.797 129.257 191.671 129.208 191.544 129.159C191.685 129.215 191.593 129.18 191.508 129.144C191.452 129.123 191.396 129.095 191.346 129.067C191.086 128.947 190.832 128.813 190.585 128.665C190.353 128.524 190.127 128.376 189.909 128.214C189.859 128.179 189.81 128.144 189.761 128.108C189.93 128.235 189.761 128.108 189.725 128.08C189.62 127.996 189.514 127.904 189.415 127.812C189.204 127.622 188.999 127.418 188.809 127.206C188.718 127.108 188.626 127.002 188.541 126.896C188.506 126.847 188.464 126.805 188.429 126.755C188.577 126.931 188.393 126.699 188.372 126.678C188.048 126.234 187.442 125.966 186.927 126.297C186.483 126.579 186.201 127.27 186.547 127.742V127.756Z" fill="#BD5C55"/>
<path d="M191.994 126.635C194.088 127.707 196.322 128.348 198.662 128.581C199.211 128.637 199.74 128.059 199.719 127.524C199.691 126.903 199.254 126.523 198.662 126.466C198.147 126.417 197.872 126.382 197.294 126.269C196.787 126.17 196.286 126.051 195.786 125.903C195.286 125.755 194.799 125.585 194.32 125.395C194.32 125.395 194.017 125.268 194.165 125.332C194.031 125.275 193.897 125.212 193.756 125.155C193.524 125.05 193.291 124.937 193.059 124.817C192.565 124.563 191.889 124.669 191.614 125.198C191.36 125.684 191.466 126.375 191.994 126.643V126.635Z" fill="#BD5C55"/>
<path d="M117.302 182.947C117.373 182.883 117.443 182.82 117.521 182.764L117.309 182.926C117.577 182.721 117.873 182.545 118.183 182.418L117.93 182.524C118.247 182.397 118.571 182.306 118.909 182.263L118.627 182.298C118.761 182.284 118.895 182.27 119.036 182.27C119.311 182.27 119.586 182.158 119.783 181.96C119.966 181.777 120.107 181.474 120.093 181.213C120.079 180.952 119.994 180.656 119.783 180.466C119.572 180.276 119.318 180.149 119.036 180.156C117.831 180.184 116.703 180.649 115.808 181.453C115.611 181.629 115.498 181.946 115.498 182.2C115.498 182.454 115.611 182.771 115.808 182.947C116.245 183.349 116.865 183.342 117.302 182.947Z" fill="#BD5C55"/>
<g clip-path="url(#clip1_11290_35745)">
<path d="M238.004 52.9042C237.997 49.671 237.992 46.5178 237.991 43.8757C231.806 42.436 226.231 40.3292 221.434 37.7315L221.434 37.7264C221.434 37.7264 221.431 37.7276 221.429 37.7289C221.428 37.7289 221.426 37.7276 221.424 37.7264L221.424 37.7315C216.631 40.3292 211.058 42.436 204.873 43.8757C204.874 46.5178 204.872 49.671 204.868 52.9042C204.854 64.4544 211.337 74.8948 221.445 80.2158L221.445 80.2208C221.445 80.2208 221.446 80.2208 221.449 80.2183C221.449 80.2183 221.449 80.2183 221.45 80.2183C221.45 80.2183 221.45 80.2183 221.451 80.2183C221.452 80.2183 221.454 80.2183 221.455 80.2208L221.455 80.2158C231.558 74.8948 238.029 64.4544 238.005 52.9042H238.004Z" fill="#43A047"/>
<path d="M218.488 66.612L211.48 59.5064L214.13 56.816L218.485 61.2314L228.743 50.8203L231.396 53.5106L218.488 66.612Z" fill="white"/>
</g>
</g>
<defs>
<clipPath id="clip0_11290_35745">
<rect x="30" width="260" height="260" rx="130" fill="white"/>
</clipPath>
<clipPath id="clip1_11290_35745">
<rect width="33.1353" height="42.4944" fill="white" transform="matrix(1 0 0.000483487 1 204.861 37.7264)"/>
</clipPath>
</defs>
</svg>
