<svg width="320" height="300" viewBox="0 0 320 300" fill="none" xmlns="http://www.w3.org/2000/svg">
<g clip-path="url(#clip0_5526_3210)">
<g clip-path="url(#clip1_5526_3210)">
<path d="M142.156 299L134 327.047" stroke="#A97B59" stroke-width="20" stroke-miterlimit="10" stroke-linecap="round"/>
<path d="M159.334 212H108.666C102.775 212 98 216.924 98 222.998V300.001C98 306.076 102.775 311 108.666 311H159.334C165.225 311 170 306.076 170 300.001V222.998C170 216.924 165.225 212 159.334 212Z" fill="#707889"/>
<path d="M112.909 222.019V298.402" stroke="#D57A37" stroke-width="13.51" stroke-miterlimit="10" stroke-linecap="round"/>
<path d="M161.836 144.741H253.829C261.182 144.741 267.156 150.711 267.156 158.06V254.607C267.156 261.956 261.182 267.926 253.829 267.926H148.515V158.066C148.515 150.717 154.489 144.747 161.843 144.747L161.836 144.741Z" fill="#939BAD"/>
<path d="M245.008 301.651L253.164 329.698" stroke="#A97B59" stroke-width="23.89" stroke-miterlimit="10" stroke-linecap="round"/>
<path d="M133.134 200.165C132.997 197.463 130.25 196.488 128.341 197.246V193.549L65.5275 194.164C64.0419 192.09 59.7093 192.76 59.4233 196.146C55.7061 240.251 51.0875 294.408 49.5832 338.644L85.0586 339.346C88.664 320.169 95.5452 251.812 97.1738 232.368C97.2049 234.207 97.236 236.046 97.2608 237.885C97.5344 255.396 93.9041 322.014 94.1777 339.526L128.814 340.209C132.6 296.93 135.285 243.569 133.134 200.171V200.165Z" fill="#274B54"/>
<path d="M118.356 85.6332L98.3023 83.3995L95.6003 107.626L115.654 109.859L118.356 85.6332Z" fill="#FFA88D"/>
<path d="M138.629 81.2047C138.878 84.3045 136.565 87.0129 133.464 87.2614C130.362 87.5099 127.651 85.199 127.403 82.0992C127.154 78.9994 129.467 76.291 132.568 76.0425C135.67 75.794 138.381 78.1049 138.629 81.2047Z" fill="#F9AB93"/>
<path d="M135.745 76.3096C133.992 92.0074 120.857 100.151 105.963 98.4866C91.0696 96.828 80.0546 85.988 81.8013 70.2964C83.5543 54.5985 97.0495 43.2243 111.943 44.8829C126.837 46.5415 137.492 60.6118 135.739 76.3096H135.745Z" fill="#FCC0A9"/>
<path d="M86.1278 76.8687C86.4199 80.509 83.6973 83.7019 80.0546 83.9877C76.412 84.2797 73.2169 81.565 72.9309 77.9185C72.6388 74.2783 75.3552 71.0853 79.0041 70.7995C82.6467 70.5076 85.8418 73.2284 86.1278 76.8687Z" fill="#FCC0A9"/>
<path d="M133.184 52.2628C132.954 52.1759 132.736 52.1386 132.531 52.1386C129.429 46.262 124.32 41.5533 117.961 39.3853C111.446 37.1614 103.626 37.8385 97.1303 39.8636C82.9949 44.2679 73.0304 60.6801 78.6311 75.1728C78.8238 75.676 79.0849 76.1854 79.5511 76.4649C80.2411 76.8811 81.1797 76.6327 81.7827 76.0922C83.3803 74.6634 84.6794 72.3526 86.2024 70.7374C88.1729 68.644 90.2056 66.6002 92.2942 64.6186C92.0269 64.8795 98.1311 66.6934 98.8335 66.7804C102.613 67.2401 107.213 66.4636 110.47 64.4509C111.166 64.0222 111.732 63.3327 112.41 62.9227C113.827 62.0716 115.219 62.5624 116.711 62.6307C118.657 62.7177 120.584 62.5748 122.48 62.14C125.7 61.407 128.565 59.9099 130.834 57.5928C130.3 58.1332 132.923 65.9604 133.159 67.0661C133.868 70.3399 134.421 73.4521 134.688 76.7942C134.738 77.403 135.011 78.2105 135.614 78.1236C135.857 78.0925 136.043 77.9061 136.205 77.726C142.384 70.843 143.254 56.1516 133.178 52.2566L133.184 52.2628Z" fill="#544234"/>
<path d="M122.826 77.9688L123.158 78.0502C123.828 78.2144 124.238 78.8906 124.074 79.5603L123.691 81.1229C123.526 81.7926 122.85 82.2024 122.179 82.0382L121.847 81.9568C121.177 81.7925 120.767 81.1164 120.932 80.4467L121.315 78.8841C121.479 78.2144 122.156 77.8046 122.826 77.9688Z" fill="#251E1C"/>
<path d="M105.294 74.6178L105.626 74.6992C106.296 74.8635 106.706 75.5396 106.542 76.2093L106.158 77.7719C105.994 78.4416 105.318 78.8514 104.647 78.6872L104.315 78.6058C103.645 78.4416 103.235 77.7654 103.399 77.0957L103.783 75.5331C103.947 74.8634 104.624 74.4536 105.294 74.6178Z" fill="#251E1C"/>
<path d="M115.785 72.6259C115.25 73.7503 114.815 74.9181 114.535 76.1295C114.293 77.1793 113.951 78.49 114.399 79.5275C114.598 79.9809 114.946 80.3164 115.368 80.5649C115.766 80.7947 116.295 80.9252 116.618 81.2668C117.494 82.1924 116.189 83.5032 115.574 84.1244C115.008 84.6897 115.891 85.5718 116.456 85.0065C117.246 84.2113 118.023 83.3416 118.116 82.1738C118.209 81.0059 117.55 80.2481 116.574 79.7821C116.139 79.5709 115.629 79.397 115.487 78.8814C115.325 78.3161 115.499 77.6328 115.605 77.0737C115.859 75.7505 116.282 74.4709 116.86 73.2533C117.202 72.5327 116.133 71.8991 115.785 72.6259Z" fill="#D47852"/>
<path d="M121.933 74.6075C122.778 74.0174 123.841 73.8186 124.836 74.1416C125.693 74.4212 126.452 75.1107 126.787 75.9555C126.906 76.2475 127.179 76.4525 127.509 76.3655C127.788 76.291 128.037 75.9431 127.919 75.6449C127.428 74.4274 126.477 73.4832 125.227 73.0483C123.978 72.6135 122.449 72.8371 121.348 73.6074C121.087 73.7875 120.969 74.1168 121.137 74.4025C121.286 74.6572 121.678 74.7939 121.933 74.6137V74.6075Z" fill="#251E1C"/>
<path d="M102.942 71.0667C104.409 69.8678 106.765 70.0541 108.083 71.3835C108.611 71.9177 109.438 71.0915 108.91 70.5573C107.113 68.7434 104.074 68.644 102.122 70.2405C101.879 70.4393 101.917 70.8555 102.122 71.0667C102.364 71.309 102.7 71.2655 102.949 71.0667H102.942Z" fill="#251E1C"/>
<path d="M107.455 87.1123C108.761 89.2431 111.017 90.678 113.51 90.9141C116.002 91.1502 118.675 89.9885 120.279 88.0069C120.652 87.5472 119.999 86.8825 119.62 87.3484C118.191 89.1126 115.978 90.1438 113.69 89.9947C111.403 89.8456 109.413 88.5287 108.257 86.6402C107.946 86.1308 107.138 86.5967 107.449 87.1123H107.455Z" fill="#CA492D"/>
<path d="M76.5052 73.1726C75.7344 74.738 75.492 76.496 75.8277 78.2106C76.126 79.7263 76.9279 81.329 78.4819 81.8508C79.116 82.0682 79.3895 81.0619 78.7554 80.8507C77.5309 80.4345 77.0087 78.9622 76.8036 77.8006C76.5612 76.4153 76.7787 74.9492 77.4003 73.6944C77.6925 73.098 76.7974 72.57 76.5052 73.1726Z" fill="#D47852"/>
<path d="M135.832 80.6705C136.043 82.3726 135.341 84.0499 133.992 85.0997C133.768 85.2736 133.812 85.6526 133.992 85.8327C134.209 86.0501 134.502 86.0066 134.725 85.8327C136.261 84.64 137.112 82.5962 136.87 80.6705C136.833 80.391 136.659 80.1549 136.354 80.1549C136.099 80.1549 135.801 80.391 135.838 80.6705H135.832Z" fill="#D47852"/>
<path d="M175.826 153.494C163.351 130.795 144.957 112.097 119.664 103.754C119.602 103.723 119.527 103.699 119.459 103.686C119.44 103.68 119.415 103.674 119.396 103.668C119.117 103.574 118.862 103.574 118.638 103.636C110.681 104.581 102.656 103.506 95.2344 100.512C94.9857 100.325 94.6625 100.207 94.2647 100.214C78.8736 100.263 64.0667 106.575 52.5172 116.576C46.9724 121.372 42.1736 127.012 38.1393 133.119C29.0265 146.909 17.5142 179.125 40.2652 187.176C46.5311 189.394 52.3742 187.971 58.6463 188.536C58.5841 191.357 57.9314 194.264 57.5336 197.072C63.2649 198.724 69.9659 198.587 75.896 199.122C82.8954 199.749 89.8885 200.37 96.8941 200.923C102.918 201.401 108.941 201.737 114.958 201.712C115.002 201.712 115.045 201.712 115.089 201.712C115.499 201.725 115.897 201.712 116.288 201.693C119.005 201.656 132.873 202.371 132.873 198.563C132.854 182.933 133.072 166.968 135.123 151.432C135.185 150.941 135.254 150.45 135.316 149.96C139.195 153.886 142.57 158.694 146.039 162.986C149.818 167.664 153.411 174.311 156.88 179.206C156.979 179.343 157.091 179.492 157.259 179.51C157.402 179.523 157.532 179.436 157.65 179.349C161.679 176.392 164.712 170.72 169.163 168.18C171.338 166.968 173.738 165.732 175.422 163.85C176.056 163.142 178.624 160.017 178.68 159.184C178.692 158.979 178.599 158.781 178.506 158.594C177.648 156.874 176.759 155.178 175.833 153.5L175.826 153.494Z" fill="#8AB8BD"/>
<path d="M103.328 146.232C104.894 155.526 105.59 164.949 105.441 174.367C105.416 175.976 107.915 175.976 107.94 174.367C108.089 164.719 107.343 155.078 105.74 145.568C105.628 144.903 104.807 144.53 104.204 144.698C103.496 144.891 103.216 145.568 103.334 146.232H103.328Z" fill="#8AB8BD"/>
<path d="M72.4772 128.323C70.1586 135.001 68.6418 141.927 67.9208 148.959C67.8026 150.102 69.5929 150.09 69.7048 148.959C70.4072 142.089 71.9302 135.318 74.199 128.795C74.5782 127.708 72.8501 127.242 72.4772 128.323Z" fill="#50A6AA"/>
<path d="M134.234 132.032C133.967 137.579 133.706 143.126 133.439 148.674C133.383 149.823 135.167 149.817 135.223 148.674C135.49 143.126 135.751 137.579 136.018 132.032C136.074 130.882 134.29 130.889 134.234 132.032Z" fill="#50A6AA"/>
<path d="M135.148 148.431C130.318 144.617 124.699 144.363 119.048 145.226C117.196 144.151 115.213 143.108 113.062 143.617C110.887 144.139 105.858 146.854 105.764 149.407C105.615 153.55 106.144 157.6 106.448 161.719C106.548 163.036 106.622 164.365 106.772 165.676C106.933 167.13 107.847 167.577 109.202 167.633C111.788 167.745 114.386 167.689 116.966 167.453C118.29 167.335 119.608 167.167 120.919 166.968C121.964 166.807 123.12 166.695 123.922 165.949C124.369 165.807 124.804 165.633 125.202 165.477C126.607 164.937 127.732 163.868 127.707 162.272C127.701 161.651 127.484 161.042 127.142 160.526C127.968 160.011 128.596 159.296 128.77 158.302C128.932 157.364 128.559 156.439 127.888 155.799C128.304 155.327 128.578 154.73 128.627 153.973C128.721 152.376 127.807 151.395 126.539 150.829C128.758 150.972 130.971 151.295 133.184 151.798C134.968 152.202 136.851 149.767 135.148 148.425V148.431Z" fill="#FCC0A9"/>
<path d="M119.521 151.239C121.342 150.947 123.219 151.016 125.016 151.426C125.669 151.575 125.948 150.568 125.296 150.419C123.3 149.966 121.261 149.91 119.241 150.233C118.961 150.276 118.806 150.624 118.874 150.873C118.955 151.171 119.235 151.283 119.515 151.239H119.521Z" fill="#D47852"/>
<path d="M120.335 156.582C122.268 156.389 124.226 156.414 126.147 156.693C126.427 156.737 126.707 156.625 126.787 156.327C126.856 156.085 126.707 155.724 126.421 155.687C124.4 155.395 122.362 155.333 120.329 155.538C120.049 155.569 119.807 155.755 119.807 156.06C119.807 156.321 120.049 156.607 120.329 156.582H120.335Z" fill="#D47852"/>
<path d="M120.683 161.098C122.368 160.824 124.102 160.899 125.762 161.29C126.414 161.446 126.694 160.439 126.041 160.284C124.189 159.843 122.287 159.787 120.403 160.091C120.124 160.135 119.968 160.483 120.037 160.731C120.118 161.029 120.397 161.141 120.677 161.098H120.683Z" fill="#D47852"/>
<path d="M92.1885 104.245C100.599 107.649 109.855 108.612 118.8 107.121C119.931 106.935 119.452 105.214 118.327 105.401C109.699 106.836 100.767 105.798 92.6609 102.524C91.5979 102.096 91.1317 103.817 92.1885 104.245Z" fill="#50A6AA"/>
<path d="M57.4714 144.313C61.1389 144.449 64.7008 145.903 67.4048 148.382C68.2502 149.158 69.5183 147.897 68.6667 147.121C65.6021 144.319 61.6238 142.685 57.4714 142.53C56.3215 142.486 56.3215 144.269 57.4714 144.313Z" fill="#50A6AA"/>
<path d="M104.173 145.176C104.335 152.972 104.776 160.756 105.497 168.521C105.603 169.658 107.387 169.664 107.281 168.521C106.56 160.756 106.119 152.972 105.957 145.176C105.932 144.027 104.148 144.027 104.173 145.176Z" fill="#50A6AA"/>
<path d="M55.0844 189.033C70.2456 186.76 85.0213 182.07 98.7278 175.199C100.642 174.236 102.538 173.236 104.416 172.186C105.622 171.509 108.089 170.105 106.827 168.378C106.156 167.459 104.608 168.347 105.286 169.279C105.597 169.701 101.998 171.484 101.55 171.727C99.9897 172.565 98.417 173.379 96.8257 174.155C93.5871 175.746 90.2925 177.218 86.9483 178.554C80.3219 181.2 73.5028 183.362 66.5656 185.008C62.6184 185.946 58.6338 186.71 54.6182 187.313C53.4869 187.48 53.9655 189.201 55.0906 189.033H55.0844Z" fill="#50A6AA"/>
<path d="M65.0178 150.742C75.3801 149.345 85.7361 147.947 96.0984 146.555C99.0759 146.152 102.047 145.754 105.025 145.35C106.156 145.195 105.677 143.48 104.552 143.63C94.1901 145.027 83.834 146.425 73.4717 147.816C70.4942 148.22 67.5229 148.618 64.5454 149.022C63.414 149.177 63.8927 150.891 65.0178 150.742Z" fill="#50A6AA"/>
<path d="M129.56 56.9902C129 63.4942 130.791 70.1597 134.533 75.5083C134.993 76.1667 135.838 76.4711 136.565 76.0425C137.218 75.6636 137.56 74.6696 137.1 74.0112C133.625 69.0353 132.015 63.0345 132.537 56.9902C132.606 56.1888 131.804 55.5055 131.052 55.5055C130.188 55.5055 129.634 56.1888 129.566 56.9902H129.56Z" fill="#544234"/>
<path d="M203.845 158.122C204.616 158.079 205.386 158.035 206.157 157.985C207.904 157.874 209.682 157.743 211.304 157.085C213.617 156.14 215.003 153.873 215.798 151.587C215.917 151.252 216.01 150.897 215.948 150.543C215.873 150.071 215.531 149.686 215.177 149.363C213.094 147.475 210.148 146.947 207.357 146.574C202.384 145.903 197.38 145.474 192.364 145.288C184.929 145.015 177.097 145.375 170.719 149.189C168.885 150.289 166.43 152.27 166.15 154.587C165.852 157.041 168.537 157.526 170.601 157.712C181.647 158.725 192.768 158.725 203.845 158.116V158.122Z" fill="#C2C2C3"/>
<path d="M200.631 149.021H184.196V166.782H200.631V149.021Z" fill="#FFA88D"/>
<path d="M213.815 134.939C213.815 147.549 203.584 156.215 190.965 156.215C178.346 156.215 168.115 147.549 168.115 134.939C168.115 122.328 178.346 112.103 190.965 112.103C203.584 112.103 213.815 122.328 213.815 134.939Z" fill="#FCC0A9"/>
<path d="M220.119 137.945C220.119 140.971 217.663 143.431 214.63 143.431C211.596 143.431 209.141 140.977 209.141 137.945C209.141 134.914 211.596 132.46 214.63 132.46C217.663 132.46 220.119 134.914 220.119 137.945Z" fill="#FCC0A9"/>
<path d="M228.927 138.442C229.275 133.522 228.977 128.435 227.043 123.844C225.421 119.999 222.673 116.564 218.944 114.594C218.49 110.439 216.109 106.575 212.491 104.419C208.669 102.139 203.795 102.034 199.811 103.941C198.387 102.245 196.423 101.207 194.303 100.568C192.072 99.8905 189.697 99.5551 187.36 99.5799C185.066 99.6047 182.772 100.009 180.659 100.928C179.627 101.375 178.67 101.953 177.793 102.661C177.377 102.997 176.985 103.357 176.624 103.742C176.227 104.164 175.854 104.68 175.344 104.978C174.772 105.301 174.082 105.258 173.448 105.326C172.895 105.388 172.348 105.475 171.807 105.599C170.738 105.848 169.7 106.233 168.718 106.711C166.784 107.656 165.031 109.041 163.664 110.693C162.265 112.383 161.196 114.352 160.655 116.489C160.376 117.607 160.494 119.042 159.686 119.931C158.821 120.887 157.734 121.651 156.832 122.577C153.165 126.341 150.486 131.33 150.778 136.709C150.846 137.939 151.07 139.175 151.468 140.343C151.387 141.194 151.306 142.045 151.232 142.896C151.008 143.219 150.79 143.542 150.604 143.89C149.429 146.102 149.056 148.698 149.578 151.146C150.492 155.476 154.34 158.52 158.399 159.781C160.823 160.532 163.347 160.57 165.846 160.234C169.501 159.75 175.35 158.923 175.58 154.19C175.686 151.923 174.368 150.419 173.063 148.705C170.172 144.909 168.68 140.113 168.749 135.361C168.773 133.659 168.767 129.926 170.004 128.596C170.657 127.888 172.64 127.54 173.541 127.137C174.791 126.571 176.009 125.95 177.178 125.236C179.341 123.912 181.231 121.968 181.672 119.446C181.852 119.39 182.032 119.347 182.219 119.309C183.674 119.608 185.184 119.632 186.682 119.365C188.392 119.061 190.026 118.396 191.58 117.62C191.705 117.719 191.829 117.812 191.941 117.924C192.656 120.521 194.477 122.825 196.889 124.043C198.194 124.701 199.649 125.043 201.11 125.062C202.508 125.08 203.839 124.434 205.094 124.36C205.2 125.894 205.256 127.373 205.884 128.808C206.499 130.205 207.575 131.441 208.992 132.025C209.327 132.168 209.713 132.299 209.881 132.622C209.986 132.827 209.974 133.069 209.98 133.299C209.999 134.566 210.44 135.827 211.223 136.821C211.497 137.169 211.864 137.504 212.305 137.492C212.846 137.473 213.219 136.92 213.337 136.392C213.567 135.38 213.542 133.436 214.742 133.05C215.643 132.765 216.675 132.901 217.464 133.423C219.584 134.821 219.565 138.778 217.931 140.499C216.973 141.505 215.587 142.058 214.22 142.188C213.654 142.244 213.088 142.182 212.529 142.275C211.969 142.368 211.447 142.573 210.937 142.809C208.836 143.803 206.723 145.636 205.623 147.705C204.411 149.984 203.882 153.289 205.268 155.619C206.306 157.358 208.227 158.333 210.098 158.911C212.1 159.526 214.238 159.756 216.327 159.781C220.535 159.83 225.508 158.942 228.697 155.998C230.947 153.923 231.507 150.674 231.494 147.736C231.482 144.487 230.587 141.25 228.939 138.449L228.927 138.442Z" fill="#C2C2C3"/>
<path d="M179.875 136.641C179.042 136.641 178.359 135.958 178.359 135.125V133.771C178.359 132.939 179.042 132.255 179.875 132.255C180.708 132.255 181.392 132.939 181.392 133.771V135.125C181.392 135.958 180.708 136.641 179.875 136.641Z" fill="#251E1C"/>
<path d="M195.615 136.641C194.782 136.641 194.098 135.958 194.098 135.125V133.771C194.098 132.939 194.782 132.255 195.615 132.255C196.448 132.255 197.131 132.939 197.131 133.771V135.125C197.131 135.958 196.448 136.641 195.615 136.641Z" fill="#251E1C"/>
<path d="M187.21 130.578C187.627 131.715 187.67 132.92 187.273 134.075C187.086 134.616 186.813 135.156 186.421 135.585C185.973 136.076 185.408 136.2 184.867 136.529C184.084 137.001 183.705 137.933 183.897 138.815C184.127 139.84 185.029 140.561 185.911 141.033C186.415 141.306 186.869 140.536 186.365 140.263C185.576 139.834 184.506 139.057 184.786 138.014C184.935 137.455 185.395 137.25 185.886 137.039C186.378 136.827 186.775 136.542 187.117 136.156C188.491 134.597 188.783 132.261 188.081 130.342C187.882 129.808 187.018 130.038 187.217 130.578H187.21Z" fill="#D47852"/>
<path d="M193.464 130.013C195.497 129.249 197.697 129.143 199.786 129.733C200.389 129.901 200.65 128.963 200.047 128.795C197.803 128.162 195.385 128.255 193.203 129.075C192.619 129.292 192.873 130.236 193.464 130.013Z" fill="#959596"/>
<path d="M176.5 130.628C178.483 129.715 180.696 129.398 182.859 129.659C183.12 129.69 183.344 129.41 183.344 129.174C183.344 128.882 183.114 128.721 182.859 128.69C180.516 128.41 178.147 128.808 176.009 129.789C175.437 130.05 175.934 130.889 176.5 130.628Z" fill="#959596"/>
<path d="M185.29 145.369C188.479 145.232 191.524 144.033 193.961 141.983C194.44 141.58 193.75 140.89 193.271 141.294C191.04 143.17 188.205 144.269 185.29 144.394C184.662 144.418 184.662 145.394 185.29 145.369Z" fill="#CA492D"/>
<path d="M184.55 145.195C185.29 147.673 188.031 148.953 190.449 148.17C193.091 147.319 194.552 144.623 194.34 141.94C194.291 141.319 193.315 141.312 193.364 141.94C193.532 144.126 192.488 146.419 190.319 147.189C188.385 147.872 186.098 146.978 185.489 144.934C185.308 144.338 184.37 144.592 184.55 145.195Z" fill="#CA492D"/>
<path d="M215.177 135.094C216.426 136.467 216.209 138.685 214.68 139.759C214.213 140.089 214.661 140.859 215.133 140.53C216.084 139.859 216.725 138.84 216.874 137.678C217.023 136.517 216.607 135.324 215.817 134.461C215.432 134.032 214.798 134.666 215.183 135.094H215.177Z" fill="#D47852"/>
<path d="M182.704 142.53C181.914 143.474 181.342 144.586 181.044 145.779C180.957 146.12 180.901 146.468 180.858 146.816C180.845 146.947 180.982 147.058 181.1 147.058C181.243 147.058 181.33 146.947 181.342 146.816C181.51 145.375 182.113 143.984 183.039 142.872C183.127 142.772 183.139 142.623 183.039 142.53C182.952 142.443 182.778 142.431 182.698 142.53H182.704Z" fill="#D47852"/>
<path d="M195.049 140.555C196.075 141.101 196.908 141.94 197.461 142.959C197.622 143.263 197.734 143.518 197.84 143.841C197.884 143.965 198.008 144.046 198.138 144.008C198.263 143.977 198.35 143.834 198.306 143.71C197.915 142.53 197.163 141.474 196.18 140.71C195.901 140.492 195.602 140.3 195.291 140.132C195.173 140.07 195.024 140.101 194.956 140.219C194.894 140.331 194.925 140.492 195.043 140.555H195.049Z" fill="#D47852"/>
<path d="M198.082 136.442C198.138 136.417 198.188 136.392 198.244 136.368C198.269 136.355 198.294 136.343 198.319 136.337C198.344 136.324 198.35 136.324 198.325 136.337C198.337 136.337 198.35 136.33 198.356 136.324C198.462 136.281 198.567 136.243 198.679 136.206C198.891 136.138 199.108 136.082 199.326 136.045C199.382 136.032 199.438 136.026 199.487 136.02C199.518 136.02 199.518 136.02 199.487 136.02C199.5 136.02 199.512 136.02 199.525 136.02C199.55 136.02 199.581 136.013 199.605 136.013C199.717 136.001 199.829 135.995 199.935 135.989C200.165 135.982 200.395 135.989 200.625 136.013C200.749 136.026 200.874 135.889 200.867 135.771C200.861 135.628 200.762 135.541 200.625 135.529C199.668 135.423 198.685 135.61 197.821 136.038C197.71 136.094 197.666 136.268 197.734 136.374C197.809 136.492 197.946 136.523 198.07 136.461L198.082 136.442Z" fill="#D47852"/>
<path d="M176.519 137.653C176.519 137.653 176.581 137.622 176.612 137.61C176.624 137.604 176.643 137.598 176.662 137.591C176.662 137.591 176.618 137.61 176.643 137.598C176.656 137.598 176.668 137.585 176.68 137.579C176.749 137.554 176.817 137.529 176.886 137.511C176.954 137.492 177.022 137.479 177.097 137.467C177.097 137.467 177.122 137.461 177.128 137.467C177.128 137.467 177.078 137.467 177.103 137.467C177.122 137.467 177.134 137.467 177.153 137.467C177.19 137.467 177.227 137.461 177.265 137.461C177.333 137.461 177.408 137.461 177.476 137.461C177.513 137.461 177.551 137.461 177.588 137.467C177.607 137.467 177.619 137.467 177.638 137.467C177.644 137.467 177.675 137.467 177.638 137.467C177.6 137.467 177.638 137.467 177.65 137.467C177.793 137.492 177.936 137.529 178.073 137.579C178.091 137.585 178.11 137.591 178.129 137.598C178.154 137.61 178.11 137.591 178.11 137.591C178.116 137.591 178.129 137.598 178.141 137.604C178.178 137.622 178.216 137.635 178.247 137.653C178.321 137.691 178.396 137.74 178.464 137.784C178.57 137.858 178.738 137.809 178.8 137.697C178.868 137.573 178.825 137.442 178.713 137.361C178.166 136.983 177.457 136.871 176.817 137.02C176.631 137.063 176.45 137.132 176.283 137.225C176.171 137.287 176.127 137.448 176.196 137.56C176.27 137.678 176.407 137.709 176.531 137.647L176.519 137.653Z" fill="#D47852"/>
<path d="M197.66 137.573C197.591 137.579 197.678 137.573 197.691 137.573C197.716 137.573 197.741 137.573 197.772 137.566C197.815 137.566 197.865 137.56 197.908 137.554C198.008 137.554 198.107 137.554 198.207 137.554C198.306 137.554 198.406 137.567 198.499 137.579C198.555 137.585 198.462 137.573 198.511 137.579C198.536 137.579 198.561 137.585 198.592 137.591C198.642 137.598 198.692 137.61 198.735 137.616C198.928 137.653 199.114 137.709 199.295 137.784C199.307 137.784 199.388 137.821 199.326 137.796C199.344 137.803 199.363 137.815 199.382 137.821C199.431 137.84 199.475 137.865 199.525 137.89C199.612 137.933 199.699 137.983 199.786 138.032C199.891 138.101 200.059 138.057 200.121 137.945C200.184 137.834 200.152 137.685 200.034 137.61C199.288 137.15 198.4 136.983 197.535 137.101C197.48 137.107 197.417 137.169 197.393 137.212C197.361 137.262 197.349 137.343 197.368 137.399C197.411 137.535 197.529 137.585 197.666 137.566L197.66 137.573Z" fill="#D47852"/>
<path d="M176.14 139.095C176.295 138.983 176.457 138.884 176.631 138.803C176.656 138.79 176.674 138.784 176.699 138.772C176.711 138.772 176.786 138.728 176.724 138.759C176.767 138.741 176.817 138.722 176.861 138.703C176.948 138.672 177.041 138.641 177.134 138.616C177.227 138.592 177.321 138.573 177.414 138.554C177.439 138.554 177.464 138.542 177.488 138.542C177.42 138.542 177.501 138.542 177.513 138.542C177.557 138.542 177.607 138.529 177.65 138.529C177.843 138.517 178.036 138.523 178.228 138.542C178.353 138.554 178.477 138.418 178.471 138.3C178.464 138.157 178.365 138.07 178.228 138.057C177.582 137.983 176.923 138.107 176.345 138.399C176.189 138.48 176.04 138.567 175.897 138.672C175.791 138.747 175.736 138.89 175.81 139.008C175.879 139.107 176.034 139.175 176.146 139.095H176.14Z" fill="#D47852"/>
<path d="M205.15 122.614C204.205 126.739 206.25 131.044 210.098 132.839C210.664 133.1 211.161 132.261 210.589 132.001C207.139 130.392 205.237 126.609 206.089 122.875C206.226 122.266 205.287 122.005 205.15 122.614Z" fill="#828282"/>
<path d="M191.512 117.62C192.389 120.496 194.054 123.142 196.87 124.428C198.225 125.049 199.692 125.354 201.178 125.49C202.664 125.627 204.367 125.751 205.666 124.869C206.182 124.521 205.697 123.676 205.175 124.03C204.031 124.807 202.49 124.639 201.178 124.515C199.867 124.391 198.412 124.093 197.169 123.49C194.676 122.291 193.234 119.924 192.451 117.359C192.27 116.762 191.326 117.017 191.512 117.62Z" fill="#828282"/>
<path d="M169.339 128.888C172.528 128.099 175.779 127.105 178.415 125.062C180.721 123.279 182.424 120.738 182.71 117.8C182.772 117.179 181.796 117.179 181.734 117.8C181.119 124.093 174.337 126.646 169.078 127.95C168.469 128.099 168.73 129.044 169.339 128.888Z" fill="#828282"/>
<path d="M214.823 133.672C216.078 132.808 217.514 133.423 218.241 134.641C219.124 136.113 218.807 137.933 218.484 139.523C218.359 140.138 219.298 140.399 219.422 139.784C219.814 137.846 220.131 135.628 218.919 133.901C217.875 132.417 215.923 131.733 214.325 132.833C213.809 133.187 214.3 134.032 214.816 133.672H214.823Z" fill="#828282"/>
<path d="M207.848 112.302C209.601 111.961 211.043 113.321 211.951 114.65C212.423 115.334 212.827 116.067 213.287 116.762C213.716 117.402 214.182 117.8 214.86 118.16C217.527 119.583 219.273 122.359 219.354 125.385C219.373 126.012 220.349 126.012 220.33 125.385C220.243 122.123 218.409 118.999 215.531 117.415C215.096 117.172 214.68 116.992 214.363 116.595C214.045 116.197 213.791 115.737 213.523 115.303C213.063 114.563 212.603 113.818 212.025 113.159C210.913 111.88 209.303 111.023 207.581 111.358C206.965 111.476 207.226 112.414 207.842 112.296L207.848 112.302Z" fill="#828282"/>
<path d="M222.021 122.043C223.743 124.012 223.904 126.807 223.929 129.298C223.929 129.926 224.911 129.926 224.905 129.298C224.88 126.522 224.625 123.534 222.711 121.353C222.294 120.881 221.611 121.571 222.021 122.043Z" fill="#828282"/>
<path d="M163.595 121.763C161.103 122.751 159.325 124.838 158.281 127.267C157.696 128.621 157.323 130.044 157.05 131.491C156.776 132.939 156.441 134.467 156.994 135.864C157.224 136.442 158.163 136.187 157.933 135.604C157.429 134.33 157.759 132.926 158.013 131.634C158.268 130.342 158.591 129.037 159.101 127.814C160.015 125.621 161.594 123.602 163.857 122.707C164.435 122.478 164.18 121.54 163.595 121.769V121.763Z" fill="#828282"/>
<path d="M155.912 279.257C150.666 279.331 146.47 283.624 146.538 288.848L147.141 336.178C144.033 337.793 141.068 339.663 138.308 341.818C136.829 342.974 135.405 344.21 134.056 345.514C133.031 346.508 131.825 347.564 131.551 349.03C130.911 352.41 134.591 353.652 137.252 353.335C141.398 352.844 145.575 351.739 149.597 350.652C153.569 349.577 157.497 348.322 161.351 346.875C164.553 345.676 167.555 345.005 167.288 341.079C167.151 339.072 166.921 337.072 166.741 335.072C166.635 333.929 166.61 332.68 166.082 331.68L165.535 288.593C165.467 283.369 161.165 279.188 155.919 279.257H155.912Z" fill="#FCC0A9"/>
<path d="M189.119 271.914C183.872 271.989 179.677 276.281 179.745 281.505L180.348 328.835C177.24 330.45 174.275 332.32 171.515 334.475C170.035 335.631 168.612 336.867 167.263 338.172C166.237 339.166 165.031 340.222 164.758 341.688C164.118 345.067 167.798 346.309 170.458 345.993C174.604 345.502 178.781 344.396 182.803 343.309C186.775 342.234 190.704 340.979 194.558 339.532C197.759 338.333 200.762 337.662 200.494 333.736C200.358 331.73 200.128 329.729 199.947 327.729C199.842 326.586 199.817 325.338 199.288 324.337L198.741 281.251C198.673 276.026 194.371 271.846 189.125 271.914H189.119Z" fill="#FCC0A9"/>
<path d="M242.938 190.909C240.793 185.206 237.418 180.081 233.005 175.87C232.806 175.677 232.594 175.534 232.377 175.435C226.08 169.291 218.577 164.495 210.465 161.097C208.333 160.203 206.17 159.339 203.926 158.762C201.756 158.203 200.469 158.992 198.319 159.433C193.302 160.451 188.479 159.749 183.562 158.687C182.667 158.495 181.759 158.302 180.851 158.358C180.168 158.401 179.503 158.588 178.837 158.768C171.105 160.905 163.359 163.992 156.354 167.912C148.055 172.552 140.503 178.746 135.07 186.585C130.451 193.245 127.803 201.209 128.021 209.334C128.263 218.217 131.931 228.709 141.715 230.834C146.371 231.846 151.418 231.101 156.117 229.933C156.099 230.026 156.086 230.119 156.08 230.219C155.769 234.518 155.459 238.816 155.148 243.115C155.055 244.364 156.242 245.258 157.373 245.333C170.551 246.19 183.767 246.302 196.957 245.625C200.121 245.463 203.285 245.258 206.443 245.003C208.153 244.867 209.862 244.718 211.571 244.556C214.294 244.295 216.569 244.382 216.743 241.096C217.011 235.921 217.197 230.734 217.297 225.554C217.346 223.038 217.377 220.516 217.384 218C217.39 216.223 216.594 213.322 218.465 213.067C220.492 212.788 224.097 214.328 226.204 214.633C228.187 214.925 230.419 215.459 232.433 215.31C236.958 214.968 241.179 213.279 243.41 209.079C246.382 203.476 245.07 196.581 242.938 190.915V190.909Z" fill="#FFFDEB"/>
<path d="M216.681 196.425C214.742 192.189 210.055 190.449 205.641 191.214C200.898 192.033 196.988 195.146 193.122 197.78C191.699 198.749 189.38 200.376 191.127 202.265C191.518 202.687 192.04 202.886 192.625 202.936C193.507 203.116 194.546 202.861 195.422 202.538C195.981 202.333 196.535 202.109 197.082 201.873C197.343 201.774 197.585 201.687 197.803 201.619C198.051 201.538 198.3 201.445 198.549 201.364C198.511 201.979 198.636 202.606 199.071 203.252C199.643 204.11 200.426 204.551 201.29 204.712C201.191 205.451 201.309 206.209 201.75 206.936C202.123 207.557 202.67 208.029 203.292 208.315C203.192 209.458 203.441 210.583 204.379 211.396C205.219 212.123 206.25 212.31 207.282 212.192C207.599 212.334 207.985 212.359 208.414 212.192C214.785 209.825 219.82 203.252 216.694 196.407L216.681 196.425Z" fill="#FCC0A9"/>
<path d="M185.893 188.971H175.276C173.267 188.971 171.639 190.598 171.639 192.605V222.454C171.639 224.461 173.267 226.088 175.276 226.088H185.893C187.901 226.088 189.529 224.461 189.529 222.454V192.605C189.529 190.598 187.901 188.971 185.893 188.971Z" fill="#423F3F"/>
<path d="M190.35 212.005C190.897 211.577 191.313 210.993 191.481 210.241C192.078 207.663 190.082 206.949 187.919 206.787C188.615 206.681 189.268 206.501 189.84 206.191C191.699 205.184 191.947 202.805 190.642 201.24C189.249 199.575 187.018 199.413 184.998 199.357C183.226 199.308 181.454 199.357 179.683 199.469C178.415 199.302 177.14 199.196 175.86 199.177C174.094 199.152 172.205 199.208 170.955 200.618C169.718 202.01 169.457 204.383 169.165 206.135C168.811 208.259 168.612 210.409 168.631 212.564C168.655 215.496 168.444 220.075 171.446 221.795C172.118 222.18 172.895 222.33 173.659 222.423C176.873 222.808 180.516 222.559 183.705 222.112C185.918 221.802 189.324 221.715 190.089 219.155C190.306 218.416 189.995 217.733 189.461 217.254C190.617 216.838 191.512 216.099 191.767 214.807C192.016 213.571 191.338 212.564 190.35 211.993V212.005Z" fill="#FCC0A9"/>
<path d="M180.466 207.564C182.853 207.787 185.259 207.756 187.639 207.477C188.093 207.421 188.485 207.122 188.485 206.632C188.485 206.216 188.093 205.731 187.639 205.787C185.259 206.073 182.853 206.097 180.466 205.874C180.012 205.83 179.621 206.296 179.621 206.719C179.621 207.216 180.012 207.526 180.466 207.564Z" fill="#D47852"/>
<path d="M180.553 213.216C183.481 213.384 186.421 213.161 189.299 212.583C189.747 212.496 190.008 211.962 189.89 211.539C189.759 211.073 189.299 210.856 188.845 210.949C186.116 211.496 183.332 211.676 180.553 211.521C179.459 211.458 179.465 213.154 180.553 213.216Z" fill="#D47852"/>
<path d="M180.64 218.522C183.301 218.522 185.955 218.286 188.572 217.838C189.026 217.764 189.274 217.205 189.162 216.795C189.032 216.316 188.572 216.124 188.118 216.205C185.644 216.627 183.145 216.826 180.634 216.826C179.54 216.826 179.54 218.522 180.634 218.522H180.64Z" fill="#D47852"/>
<path d="M199.425 201.637C201.775 200.544 204.1 199.413 206.406 198.233C206.816 198.022 206.934 197.45 206.71 197.071C206.468 196.655 205.958 196.556 205.548 196.767C203.242 197.947 200.917 199.084 198.567 200.171C198.151 200.364 198.045 200.96 198.263 201.333C198.511 201.761 199.009 201.83 199.425 201.637Z" fill="#D47852"/>
<path d="M202.179 205.203C204.404 204.308 206.605 203.346 208.774 202.327C209.191 202.134 209.296 201.538 209.079 201.165C208.83 200.743 208.333 200.662 207.916 200.861C205.878 201.817 203.814 202.724 201.731 203.569C201.309 203.743 201.01 204.134 201.141 204.613C201.253 205.017 201.756 205.377 202.185 205.203H202.179Z" fill="#D47852"/>
<path d="M204.796 208.949C207.139 207.943 209.489 206.942 211.833 205.936C212.255 205.756 212.349 205.135 212.137 204.774C211.882 204.34 211.397 204.29 210.975 204.47C208.631 205.476 206.282 206.476 203.938 207.483C203.515 207.663 203.422 208.284 203.634 208.644C203.888 209.079 204.373 209.129 204.796 208.949Z" fill="#D47852"/>
<path d="M167.916 201.289C167.145 208.017 167.362 214.8 168.494 221.478C168.618 222.224 169.544 222.64 170.216 222.46C171.005 222.243 171.322 221.485 171.198 220.739C170.116 214.316 169.979 207.762 170.719 201.296C170.806 200.544 170.01 199.892 169.314 199.892C168.488 199.892 167.996 200.538 167.909 201.296L167.916 201.289Z" fill="#EDE8C3"/>
<path d="M157.783 229.952C161.948 227.715 166.001 225.286 169.936 222.671C170.564 222.255 170.837 221.435 170.439 220.752C170.073 220.124 169.153 219.826 168.519 220.248C164.584 222.864 160.531 225.299 156.366 227.529C154.775 228.38 156.192 230.803 157.783 229.945V229.952Z" fill="#EDE8C3"/>
<path d="M168.226 200.364C161.37 202.631 154.495 204.861 147.614 207.048C145.898 207.595 146.632 210.297 148.36 209.75C155.241 207.564 162.116 205.333 168.972 203.066C170.676 202.501 169.948 199.798 168.226 200.364Z" fill="#EDE8C3"/>
<path d="M160.04 186.051C159.412 189.002 158.964 191.984 158.573 194.972C158.38 196.456 158.2 197.947 158.02 199.432C157.939 200.128 157.852 200.817 157.765 201.513C157.678 202.209 157.665 202.96 157.485 203.619L157.846 202.998L157.771 203.06H159.754L159.704 202.998V204.979L159.748 204.942C161.115 203.762 159.126 201.793 157.765 202.96L157.721 202.998C157.106 203.526 157.274 204.433 157.721 204.979L157.771 205.041C158.287 205.669 159.213 205.476 159.754 205.041C160.338 204.569 160.295 203.675 160.382 202.998C160.481 202.209 160.581 201.414 160.68 200.625C160.867 199.09 161.047 197.55 161.246 196.015C161.637 192.928 162.097 189.847 162.744 186.797C163.117 185.039 160.419 184.287 160.04 186.051Z" fill="#EDE8C3"/>
<path d="M214.164 193.319C214.58 193.599 214.791 194.375 214.953 194.835C215.189 195.494 215.363 196.177 215.469 196.866C215.674 198.177 215.637 199.562 215.457 200.873C215.264 202.265 214.903 203.644 214.456 204.973C214.039 206.222 213.579 207.663 212.846 208.762L213.349 208.259L213.237 208.309L214.934 208.526L214.878 208.477L215.289 209.464V209.384C214.953 209.831 214.605 210.284 214.263 210.732L214.319 210.713C216.047 210.197 215.307 207.495 213.573 208.011L213.517 208.029C212.889 208.216 212.535 208.75 212.485 209.377C212.454 209.794 212.641 210.216 212.945 210.496C213.449 210.962 214.045 210.974 214.642 210.713C215.388 210.39 215.705 209.303 216.004 208.62C216.377 207.781 216.725 206.93 217.023 206.066C217.62 204.371 218.03 202.631 218.254 200.848C218.478 199.065 218.428 197.339 218.08 195.618C217.732 193.897 217.073 191.878 215.575 190.884C214.077 189.89 212.659 192.307 214.157 193.301L214.164 193.319Z" fill="#EDE8C3"/>
<path d="M216.712 194.792C221.53 193.462 226.602 193.108 231.55 193.86C232.296 193.972 233.054 193.673 233.272 192.878C233.452 192.214 233.048 191.269 232.29 191.158C226.826 190.331 221.293 190.617 215.96 192.089C214.226 192.568 214.959 195.276 216.706 194.792H216.712Z" fill="#EDE8C3"/>
<path d="M181.579 163.495C188.64 165.552 196.336 165.266 203.205 162.619C203.913 162.346 204.398 161.675 204.187 160.899C204 160.222 203.173 159.644 202.465 159.917C196.025 162.396 188.957 162.719 182.331 160.793C180.597 160.29 179.857 162.992 181.585 163.495H181.579Z" fill="#EDE8C3"/>
<path d="M212.305 186.915C212.417 188.84 212.659 190.76 213.02 192.655C213.157 193.375 214.064 193.854 214.742 193.636C215.513 193.388 215.867 192.686 215.724 191.915C215.637 191.474 215.562 191.027 215.494 190.58C215.463 190.375 215.432 190.17 215.401 189.965C215.388 189.896 215.382 189.828 215.37 189.76L215.394 189.928C215.376 189.81 215.363 189.685 215.351 189.567C215.245 188.691 215.164 187.809 215.115 186.927C215.071 186.194 214.499 185.492 213.71 185.523C212.989 185.554 212.261 186.138 212.305 186.927V186.915Z" fill="#EDE8C3"/>
<path d="M218.254 241.208C217.06 238.624 213.225 240.866 214.412 243.444C219.037 253.47 219.503 265.95 210.285 273.007C210.39 271.1 210.496 269.193 210.602 267.286C210.869 262.459 211.124 257.533 209.825 252.874C208.861 249.426 207.245 246.917 205.132 245.078C206.679 245.022 208.221 244.972 209.769 244.923C212.622 244.836 212.634 240.4 209.769 240.494C206.841 240.581 203.863 240.003 200.923 239.779C197.84 239.543 194.751 239.413 191.661 239.382C188.945 239.357 186.222 239.537 183.524 239.338C180.677 239.127 177.806 239.096 174.952 239.096C168.407 239.096 161.855 239.58 155.421 240.804C152.699 241.32 149.995 241.494 147.328 242.394C144.667 243.289 142.15 244.569 139.819 246.122C135.188 249.209 131.296 253.396 128.456 258.167C121.954 269.081 121.257 282.288 122.42 294.631C122.606 296.626 122.749 298.52 122.774 300.508C122.787 301.278 122.805 302.086 123.197 302.744C123.893 303.918 125.472 303.931 126.684 304.167C128.219 304.459 129.761 304.701 131.309 304.9C134.411 305.298 137.537 305.515 140.664 305.621C146.998 305.832 153.333 305.577 159.661 305.378C172.093 304.987 184.506 304.198 196.889 303.024C197.175 302.999 197.43 302.925 197.66 302.819C198.648 303.142 199.755 302.993 200.793 302.515C201.452 302.21 201.943 301.309 201.893 300.601C201.862 300.135 201.831 299.657 201.8 299.179C203.422 298.713 204.976 298.06 206.207 296.93C208.936 294.42 209.321 290.326 209.526 286.63C209.676 283.916 209.825 281.201 209.974 278.486C212.007 277.194 214.101 275.946 215.78 274.2C224.507 265.143 223.115 251.75 218.248 241.195L218.254 241.208Z" fill="#885D68"/>
<path d="M207.506 212.496H262.693C268.934 212.496 274.006 217.559 274.006 223.802V301.061C274.006 307.298 268.94 312.367 262.693 312.367H207.506C201.265 312.367 196.193 307.304 196.193 301.061V223.802C196.193 217.565 201.259 212.496 207.506 212.496Z" fill="#707889"/>
<path d="M215.245 222.907V299.284" stroke="#646F87" stroke-width="13.53" stroke-miterlimit="10" stroke-linecap="round"/>
</g>
<g filter="url(#filter0_dd_5526_3210)">
<path d="M293.192 40.7533C293.315 41.3853 293.451 42.0095 293.545 42.6395C293.639 43.2695 293.702 43.9082 293.765 44.547C293.827 45.1858 293.943 45.8217 293.973 46.4516C294.003 47.0815 294.01 47.7339 294.008 48.3726C294.007 49.0112 294.027 49.6558 293.998 50.2925C293.968 50.9291 293.903 51.5676 293.848 52.2091C293.794 52.8506 293.611 53.4741 293.531 54.1028C293.451 54.7315 293.397 55.373 293.282 56.0035C293.167 56.6341 293.091 57.2697 292.943 57.8913C292.795 58.513 292.54 59.1049 292.363 59.7246C292.187 60.3442 292.126 60.9896 291.924 61.5964C291.723 62.2032 291.503 62.811 291.276 63.405C291.049 63.999 290.83 64.6067 290.57 65.1918C290.311 65.7769 289.902 66.2919 289.617 66.8641C289.332 67.4364 289.028 67.9919 288.721 68.5582C288.414 69.1245 288.239 69.7618 287.906 70.2976C287.573 70.8335 287.186 71.3544 286.824 71.8882C286.462 72.422 286.118 72.9548 285.734 73.465C285.35 73.9751 284.988 74.5089 284.585 75.0023C284.183 75.4957 283.65 75.8896 283.225 76.3594C282.799 76.8292 282.468 77.4004 282.017 77.8573C281.566 78.3143 281.062 78.7103 280.589 79.1436C280.116 79.5769 279.626 79.9827 279.13 80.3924C278.634 80.8021 278.115 81.1705 277.607 81.5596C277.099 81.9486 276.58 82.317 276.056 82.6786C275.533 83.0401 275.053 83.4773 274.507 83.8152C273.961 84.1531 273.415 84.491 272.86 84.7974C272.305 85.1038 271.728 85.3866 271.15 85.6694C270.573 85.9522 269.979 86.1898 269.401 86.4549C268.823 86.72 268.236 86.9713 267.636 87.2128C267.038 87.4435 266.46 87.7086 265.846 87.9118C265.232 88.1149 264.642 88.3417 264.023 88.5202C263.405 88.6988 262.756 88.7122 262.129 88.8593C261.502 89.0065 260.908 89.244 260.276 89.3665C259.644 89.4891 259.012 89.6116 258.382 89.7057C257.752 89.7997 257.099 89.7886 256.464 89.858C255.829 89.9275 255.191 90.0078 254.554 90.0419C253.917 90.076 253.276 90.1494 252.634 90.1589C251.992 90.1684 251.355 90.0571 250.712 90.0312C250.068 90.0054 249.428 90.0503 248.787 89.9959C248.145 89.9416 247.535 89.6692 246.902 89.5824C246.27 89.4957 245.637 89.4089 245.006 89.2937C244.376 89.1785 243.706 89.2498 243.084 89.1022C242.462 88.9545 241.866 88.692 241.251 88.5227C240.635 88.3535 240.015 88.1773 239.409 87.9757C238.802 87.774 238.166 87.6342 237.572 87.407C236.978 87.1799 236.461 86.7357 235.88 86.483C235.299 86.2303 234.711 85.9815 234.132 85.7003C233.553 85.4191 233.007 85.1007 232.448 84.7901C231.888 84.4794 231.228 84.3445 230.682 84.0084C230.135 83.6722 229.608 83.3066 229.078 82.9519C228.548 82.5971 228.018 82.2246 227.507 81.8404C226.997 81.4562 226.517 81.0278 226.019 80.6181C225.522 80.2083 225.122 79.6976 224.652 79.2722C224.183 78.8468 223.598 78.5233 223.145 78.0793C222.692 77.6353 222.308 77.1059 221.875 76.6324C221.442 76.1589 221.012 75.6923 220.603 75.1963C220.193 74.7003 219.729 74.2533 219.34 73.7455C218.951 73.2377 218.606 72.6957 218.245 72.1722C217.883 71.6488 217.573 71.0871 217.235 70.5411C216.897 69.9951 216.611 69.4286 216.301 68.867C215.991 68.3053 215.719 67.731 215.433 67.1644C215.147 66.5979 214.809 66.0519 214.547 65.4629C214.285 64.8738 214.044 64.2907 213.814 63.6928C213.583 63.095 213.318 62.5167 213.115 61.9032C212.912 61.2897 212.734 60.689 212.555 60.0706C212.377 59.4522 212.238 58.8388 212.091 58.2116C211.943 57.5845 211.744 56.9779 211.626 56.3527C211.507 55.7276 211.398 55.0877 211.311 54.4538C211.224 53.8199 211.144 53.1821 211.074 52.5472C211.005 51.9123 211.027 51.2619 210.996 50.6321C210.966 50.0022 210.97 49.3527 210.965 48.718C210.959 48.0833 210.825 47.4306 210.855 46.794C210.881 46.1504 211.042 45.5209 211.093 44.8903C211.145 44.2596 211.117 43.6012 211.203 42.9686C211.29 42.336 211.473 41.7125 211.592 41.0888C211.708 40.4582 211.844 39.8336 211.992 39.212C212.14 38.5903 212.352 37.9865 212.521 37.3707C212.691 36.755 212.737 36.0998 212.939 35.493C213.14 34.8861 213.432 34.31 213.656 33.7091C213.879 33.1082 214.128 32.5202 214.376 31.9321C214.625 31.3441 214.943 30.7808 215.221 30.2124C215.499 29.6441 215.795 29.0748 216.102 28.5085C216.409 27.9422 216.727 27.3965 217.063 26.8499C217.399 26.3033 217.71 25.7439 218.065 25.214C218.419 24.6841 218.785 24.1572 219.169 23.6471C219.553 23.1369 220.052 22.7164 220.455 22.223C220.858 21.7296 221.284 21.2598 221.712 20.7792C222.14 20.2986 222.491 19.7619 222.946 19.3118C223.401 18.8617 223.792 18.3477 224.265 17.9143C224.739 17.481 225.224 17.0683 225.72 16.6586C226.216 16.2489 226.758 15.9041 227.266 15.5151C227.774 15.126 228.247 14.6927 228.778 14.3272C229.308 13.9618 229.913 13.7272 230.459 13.3893C231.005 13.0515 231.528 12.6899 232.09 12.3796C232.651 12.0693 233.206 11.7628 233.78 11.4731C234.353 11.1835 234.96 10.9842 235.542 10.726C236.124 10.4678 236.678 10.1437 237.272 9.90611C237.866 9.66854 238.431 9.36508 239.041 9.15505C239.65 8.94503 240.302 8.9208 240.92 8.74223C241.539 8.56366 242.126 8.33001 242.753 8.1829C243.369 8.03282 244.014 8.01251 244.65 7.89686C245.286 7.78121 245.876 7.47288 246.506 7.37884C247.136 7.2848 247.797 7.37357 248.425 7.30802C249.053 7.24246 249.694 7.08752 250.331 7.05343C250.967 7.01933 251.617 6.95971 252.252 6.95411C252.886 6.9485 253.534 7.10897 254.166 7.13186C254.799 7.15474 255.453 7.03814 256.094 7.09248C256.736 7.14683 257.37 7.26896 257.999 7.34882C258.627 7.42868 259.251 7.61171 259.882 7.72695C260.512 7.84219 261.122 8.03304 261.747 8.16988C262.371 8.30672 263.02 8.35715 263.628 8.53032C264.237 8.70349 264.821 9.00925 265.428 9.2109C266.035 9.41256 266.672 9.52389 267.27 9.75795C267.868 9.99201 268.469 10.2153 269.05 10.468C269.631 10.7207 270.207 11.0126 270.787 11.2938C271.366 11.575 271.944 11.8385 272.503 12.1492C273.063 12.4598 273.567 12.8656 274.11 13.1948C274.652 13.5241 275.169 13.9044 275.696 14.27C276.223 14.6356 276.822 14.8873 277.332 15.2715C277.842 15.6558 278.256 16.1587 278.753 16.5684C279.251 16.9781 279.838 17.2731 280.307 17.6985C280.777 18.1239 281.144 18.6719 281.6 19.1228C282.057 19.5738 282.534 19.9952 282.967 20.4687C283.401 20.9422 283.813 21.4274 284.219 21.9165C284.625 22.4057 285.13 22.8292 285.519 23.337C285.908 23.8447 286.226 24.4025 286.591 24.9328C286.956 25.4631 287.228 26.0375 287.566 26.5835C287.904 27.1295 288.3 27.6333 288.617 28.1911C288.935 28.7488 289.293 29.283 289.572 29.8535C289.851 30.4239 289.961 31.0815 290.223 31.6705C290.485 32.2596 290.791 32.8144 291.022 33.4122C291.253 34.0101 291.466 34.6089 291.665 35.2155C291.864 35.8221 292.154 36.3955 292.332 37.0139C292.511 37.6323 292.668 38.2448 292.822 38.868C292.976 39.4912 293.021 40.131 293.143 40.763L293.192 40.7533Z" fill="white"/>
<g clip-path="url(#clip2_5526_3210)">
<path d="M206.799 49.0006C206.799 24.5733 226.602 4.77112 251.029 4.77112C275.456 4.77112 295.258 24.5733 295.258 49.0006C295.258 73.4279 275.456 93.2301 251.029 93.2301C226.602 93.2301 206.799 73.4279 206.799 49.0006Z" fill="#BCE4D2"/>
<path d="M227.313 28.9664C227.313 24.951 230.568 21.6958 234.584 21.6958H268.043C272.058 21.6958 275.313 24.951 275.313 28.9664V97.6958H227.313V28.9664Z" fill="#202121"/>
<rect x="246.313" y="24.6958" width="10" height="2" rx="1" fill="#3A3A3A"/>
<path d="M230.313 33.5429C230.313 30.8659 232.483 28.6958 235.16 28.6958H267.466C270.143 28.6958 272.313 30.8659 272.313 33.5429V97.6958H230.313V33.5429Z" fill="#E9EEF4"/>
<path d="M280.717 36.759C283.394 36.7591 285.564 38.929 285.564 41.6057V57.3586C285.564 60.0356 283.394 62.2063 280.717 62.2063H260.387C260.386 62.2078 260.386 62.2097 260.385 62.2112L258.253 65.8645C257.786 66.6661 256.627 66.6661 256.16 65.8645L254.029 62.2112C254.028 62.2098 254.028 62.2077 254.027 62.2063H252.846C250.169 62.2061 248 60.0355 248 57.3586V41.6057C248 38.9291 250.17 36.7592 252.846 36.759H280.717Z" fill="white"/>
<path d="M255.876 43.4647H277.688" stroke="#A3B7D8" stroke-width="2.42353" stroke-linecap="round"/>
<path d="M255.876 49.5236H277.688" stroke="#A3B7D8" stroke-width="2.42353" stroke-linecap="round"/>
<path d="M255.876 55.5825H277.688" stroke="#A3B7D8" stroke-width="2.42353" stroke-linecap="round"/>
</g>
</g>
<circle cx="227.784" cy="95.7561" r="3" fill="#BCE4D2"/>
<circle cx="224" cy="103" r="2" fill="#BCE4D2"/>
</g>
<defs>
<filter id="filter0_dd_5526_3210" x="190.799" y="-9.22888" width="120.459" height="120.459" filterUnits="userSpaceOnUse" color-interpolation-filters="sRGB">
<feFlood flood-opacity="0" result="BackgroundImageFix"/>
<feColorMatrix in="SourceAlpha" type="matrix" values="0 0 0 0 0 0 0 0 0 0 0 0 0 0 0 0 0 0 127 0" result="hardAlpha"/>
<feOffset/>
<feGaussianBlur stdDeviation="0.5"/>
<feComposite in2="hardAlpha" operator="out"/>
<feColorMatrix type="matrix" values="0 0 0 0 0 0 0 0 0 0 0 0 0 0 0 0 0 0 0.2 0"/>
<feBlend mode="normal" in2="BackgroundImageFix" result="effect1_dropShadow_5526_3210"/>
<feColorMatrix in="SourceAlpha" type="matrix" values="0 0 0 0 0 0 0 0 0 0 0 0 0 0 0 0 0 0 127 0" result="hardAlpha"/>
<feOffset dy="2"/>
<feGaussianBlur stdDeviation="8"/>
<feComposite in2="hardAlpha" operator="out"/>
<feColorMatrix type="matrix" values="0 0 0 0 0 0 0 0 0 0 0 0 0 0 0 0 0 0 0.08 0"/>
<feBlend mode="normal" in2="effect1_dropShadow_5526_3210" result="effect2_dropShadow_5526_3210"/>
<feBlend mode="normal" in="SourceGraphic" in2="effect2_dropShadow_5526_3210" result="shape"/>
</filter>
<clipPath id="clip0_5526_3210">
<rect width="320" height="300" rx="12" fill="white"/>
</clipPath>
<clipPath id="clip1_5526_3210">
<rect width="250" height="315" fill="white" transform="translate(27 38)"/>
</clipPath>
<clipPath id="clip2_5526_3210">
<path d="M206.799 49.0006C206.799 24.5733 226.602 4.77112 251.029 4.77112C275.456 4.77112 295.258 24.5733 295.258 49.0006C295.258 73.4279 275.456 93.2301 251.029 93.2301C226.602 93.2301 206.799 73.4279 206.799 49.0006Z" fill="white"/>
</clipPath>
</defs>
</svg>
