<svg width="298" height="90" viewBox="0 0 298 90" fill="none" xmlns="http://www.w3.org/2000/svg">
<path d="M56.8538 44.6284C49.0221 44.6284 42.6694 50.9811 42.6694 58.8128C42.6694 66.6446 49.0221 72.9973 56.8538 72.9973C64.6855 72.9973 71.0382 66.6446 71.0382 58.8128C71.0382 50.9811 64.6855 44.6284 56.8538 44.6284ZM56.8538 67.178C52.2307 67.178 48.4886 63.4359 48.4886 58.8128C48.4886 54.1898 52.2307 50.4477 56.8538 50.4477C61.4769 50.4477 65.219 54.1898 65.219 58.8128C65.219 63.4359 61.4769 67.178 56.8538 67.178Z" fill="#FF7700"/>
<path d="M159.054 59.9036C165.278 59.9036 170.329 54.8522 170.329 48.6288C170.329 42.4054 165.278 37.354 159.054 37.354C152.831 37.354 147.78 42.4054 147.78 48.6288C147.78 54.8522 152.831 59.9036 159.054 59.9036ZM159.054 43.1733C162.069 43.1733 164.51 45.6141 164.51 48.6288C164.51 51.6435 162.069 54.0844 159.054 54.0844C156.04 54.0844 153.599 51.6435 153.599 48.6288C153.599 45.6141 156.04 43.1733 159.054 43.1733Z" fill="#FF7700"/>
<path d="M82.6767 38.8091H76.8574V87.5453H82.6767V38.8091Z" fill="#FF7700"/>
<path d="M114.319 71.4697C117.285 71.3242 120.187 70.9524 123.015 70.3866C125.359 69.8936 126.871 67.5982 126.394 65.2463C126.37 65.1331 126.337 65.02 126.305 64.9068L125.949 63.6783C121.334 65.0119 116.453 65.7232 111.401 65.7232C111.312 65.7232 111.223 65.7232 111.134 65.7232C108.718 65.707 106.342 65.5373 104.014 65.2059C103.957 65.1978 103.893 65.1897 103.836 65.1816C103.173 65.0442 102.68 64.4623 102.68 63.7592V59.912H125.957V43.1816H96.8611V49.0009H120.138V54.0927H96.8611V63.7592C96.8611 67.38 99.504 70.3786 102.971 70.9362C103.06 70.9524 103.157 70.9605 103.246 70.9766C104.976 71.2191 106.73 71.3888 108.5 71.4697V77.3617H89.9507V83.1809H132.868V77.3617H114.319V71.4697Z" fill="#FF7700"/>
<path d="M180.877 67.9052V62.0859H137.232V67.9052H156.145V72.2696H144.328V81.7259C144.328 85.7428 147.586 89 151.602 89H166.514C170.531 89 173.788 85.7428 173.788 81.7259V72.2696H161.972V67.9052H180.885H180.877ZM167.961 78.0889V81.7259C167.961 82.5261 167.306 83.1807 166.506 83.1807H151.594C150.794 83.1807 150.14 82.5261 150.14 81.7259V78.0889H167.961Z" fill="#FF7700"/>
<path d="M213.489 17.0029H195.303V22.8222H213.489V27.914H204.396V31.5511H231.884V27.914H222.791V7.54666H227.883V11.9111H240.977V8.40338C234.672 3.76414 226.752 1 218.144 1C207.548 1 197.979 5.18663 191.206 11.9111H213.497V17.0029H213.489Z" fill="#3777BC"/>
<path d="M236.968 31.551H255.04C254.046 24.4629 250.829 18.0375 246.06 12.9294V27.914H236.968V31.551Z" fill="#3777BC"/>
<path d="M180.909 36.6431C181.022 45.3962 184.514 53.3815 190.204 59.4837V49.7364H208.389V45.372H190.204V40.2801H213.481V54.8283H195.295V59.4029C197.429 59.7423 199.611 59.9201 201.842 59.9201C203.426 59.9201 204.994 59.8312 206.53 59.6534C208.914 59.3867 211.234 58.9179 213.472 58.2632C213.731 58.6593 213.925 59.1119 214.022 59.6049C214.079 59.8716 214.103 60.1383 214.095 60.4051C214.079 62.167 212.834 63.7269 211.048 64.0987C211.04 64.0987 211.032 64.0987 211.015 64.0987C208.049 64.6968 204.97 65.0039 201.826 65.0039C199.927 65.0039 198.051 64.8907 196.209 64.6644C202.351 68.8995 209.924 71.4051 218.112 71.4051C218.112 80.2632 213.052 87.5292 206.635 88.1677C206.279 88.2001 206.118 88.6284 206.368 88.879C206.449 88.9598 206.554 89.0002 206.667 89.0002C233.428 88.8951 255.112 65.5292 255.331 36.627H180.885L180.909 36.6431ZM239.699 59.1927H229.152C225.636 59.1927 222.783 56.3397 222.783 52.8239V40.2721H246.06V52.8239C246.06 56.3397 243.207 59.1927 239.691 59.1927H239.699Z" fill="#3777BC"/>
<path d="M199.304 27.914H190.212V12.9294C185.451 18.0375 182.226 24.4629 181.232 31.551H199.304V27.914Z" fill="#3777BC"/>
<path d="M227.875 52.8315C227.875 53.5347 228.449 54.1005 229.144 54.1005H239.691C240.395 54.1005 240.96 53.5266 240.96 52.8315V45.3716H227.867V52.8315H227.875Z" fill="#3777BC"/>
<path d="M240.968 17.0029H227.875V22.8222H240.968V17.0029Z" fill="#3777BC"/>
</svg>
