<svg width="549" height="221" viewBox="0 0 549 221" fill="none" xmlns="http://www.w3.org/2000/svg">
<path d="M336.423 33.9206V44.0146H335.415V35.1386L333.987 36.0906L333.427 35.2506L335.415 33.9206H336.423ZM341.244 42.7966C341.692 42.7966 341.93 43.1046 341.93 43.4826C341.93 43.8886 341.692 44.1966 341.244 44.1966C340.782 44.1966 340.53 43.8886 340.53 43.4826C340.53 43.1046 340.782 42.7966 341.244 42.7966ZM357.554 32.7866H358.604V45.0366H357.554V32.7866ZM348.734 41.8866C352.038 40.3046 353.704 37.9106 353.928 34.9706H349.28V34.1026H354.992C354.992 37.6306 353.368 40.7386 349.294 42.7266L348.734 41.8866ZM361.95 33.2766H362.986V34.8446H369.034V33.2766H370.084V38.1626H366.514V39.5066H371.526V40.3606H360.466V39.5066H365.478V38.1626H361.95V33.2766ZM361.908 44.7706V41.3826H362.958V43.9026H370.308V44.7706H361.908ZM362.986 37.3226H369.034V35.6846H362.986V37.3226ZM375.691 33.9626H376.685V36.9726H379.359V33.9626H380.339V41.9566H375.691V33.9626ZM376.685 41.0886H379.359V37.8266H376.685V41.0886ZM381.893 44.4066V33.0666H382.887V37.6586H384.609V32.7866H385.617V45.0366H384.609V38.5266H382.887V44.4066H381.893ZM392.856 37.6306H396.118V35.9366H392.996C392.198 37.9106 390.308 39.3386 387.704 40.1226L387.27 39.2826C390.224 38.4146 392.072 36.7346 392.282 34.5786H387.9V33.7106H393.416C393.416 34.1866 393.36 34.6486 393.262 35.0826H396.118V32.7866H397.168V40.1646H396.118V38.4846H392.856V37.6306ZM389.146 42.6426C389.146 41.1726 390.7 40.2906 393.192 40.2906C395.656 40.2906 397.224 41.1726 397.224 42.6426C397.224 44.0986 395.656 44.9806 393.192 44.9806C390.7 44.9806 389.146 44.0986 389.146 42.6426ZM390.182 42.6426C390.182 43.5666 391.358 44.1406 393.192 44.1406C395.026 44.1406 396.188 43.5666 396.188 42.6426C396.188 41.6906 395.026 41.1306 393.192 41.1306C391.358 41.1306 390.182 41.6906 390.182 42.6426ZM399.898 38.9606C399.898 36.8886 400.528 34.9566 401.592 33.2766H402.726C401.522 34.9286 400.822 36.8746 400.822 38.9606C400.822 41.0466 401.522 42.9926 402.726 44.6446H401.592C400.528 42.9646 399.898 41.0326 399.898 38.9606ZM409.307 44.1266C406.255 44.1266 404.323 41.7886 404.323 38.9606C404.323 36.1326 406.255 33.7946 409.307 33.7946C410.693 33.7946 411.939 34.3826 412.835 35.3066L412.093 36.0066C411.379 35.2646 410.399 34.8306 409.307 34.8306C406.857 34.8306 405.345 36.6646 405.345 38.9606C405.345 41.2706 406.857 43.1046 409.307 43.1046C410.399 43.1046 411.379 42.6566 412.093 41.9146L412.835 42.6146C411.939 43.5386 410.693 44.1266 409.307 44.1266ZM417.116 43.0906C418.684 43.0906 419.51 41.9426 419.51 40.4586C419.51 38.9746 418.684 37.8266 417.116 37.8266C415.534 37.8266 414.736 38.9746 414.736 40.4586C414.736 41.9426 415.534 43.0906 417.116 43.0906ZM413.728 40.4586C413.728 38.5126 414.932 36.8466 417.116 36.8466C419.314 36.8466 420.518 38.5126 420.518 40.4586C420.518 42.4046 419.314 44.0706 417.116 44.0706C414.932 44.0706 413.728 42.4046 413.728 40.4586ZM421.53 33.6266H422.538V44.0146H421.53V33.6266ZM426.943 43.0906C428.511 43.0906 429.337 41.9426 429.337 40.4586C429.337 38.9746 428.511 37.8266 426.943 37.8266C425.361 37.8266 424.563 38.9746 424.563 40.4586C424.563 41.9426 425.361 43.0906 426.943 43.0906ZM423.555 40.4586C423.555 38.5126 424.759 36.8466 426.943 36.8466C429.141 36.8466 430.345 38.5126 430.345 40.4586C430.345 42.4046 429.141 44.0706 426.943 44.0706C424.759 44.0706 423.555 42.4046 423.555 40.4586ZM432.407 38.3866C432.813 37.4486 433.975 36.8186 434.941 36.8186V37.8546C433.639 37.8546 432.407 39.2126 432.407 40.3466V44.0146H431.399V36.8886H432.407V38.3866ZM439.707 33.3186L436.781 44.6866H435.773L438.713 33.3186H439.707ZM444.713 43.1326C446.295 43.1326 447.149 41.9986 447.149 40.5006C447.149 39.0166 446.295 37.8686 444.713 37.8686C443.411 37.8686 442.305 39.0166 442.305 40.5006C442.305 41.9986 443.411 43.1326 444.713 43.1326ZM441.297 44.0146V33.6266H442.305V38.3866C442.963 37.2386 443.943 36.8886 444.741 36.8886C446.939 36.8886 448.157 38.5546 448.157 40.5006C448.157 42.4606 446.925 44.1266 444.727 44.1266C443.943 44.1266 442.963 43.7906 442.305 42.6146V44.0146H441.297ZM452.423 43.1326C453.753 43.1326 454.803 41.9706 454.803 40.5146C454.803 39.0866 453.739 37.9246 452.423 37.9246C450.967 37.9246 450.029 38.9466 450.029 40.5146C450.029 42.1106 450.967 43.1326 452.423 43.1326ZM449.021 40.5146C449.021 38.4006 450.407 36.9446 452.409 36.9446C453.473 36.9446 454.383 37.5046 454.803 38.4146V36.8886H455.811V43.6646C455.783 45.9326 454.467 47.2206 452.199 47.2206C451.065 47.2206 450.071 46.6326 449.343 45.5406L450.197 44.9946C450.715 45.8066 451.387 46.2126 452.199 46.2126C453.935 46.2126 454.789 45.3726 454.803 43.6506V42.5866C454.313 43.4686 453.319 44.1126 452.409 44.1126C450.407 44.1126 449.021 42.6426 449.021 40.5146ZM461.065 33.3186L458.139 44.6866H457.131L460.071 33.3186H461.065ZM466.659 39.1146C467.835 39.1146 468.773 38.1486 468.773 37.0006C468.773 35.8246 467.821 34.8866 466.645 34.8866H463.789L463.803 39.1146H466.659ZM462.795 44.0146V33.9066H466.687C468.395 33.9066 469.753 35.2926 469.753 37.0006C469.753 38.6946 468.395 40.0946 466.687 40.0946H463.803V44.0146H462.795ZM471.856 38.3866C472.262 37.4486 473.424 36.8186 474.39 36.8186V37.8546C473.088 37.8546 471.856 39.2126 471.856 40.3466V44.0146H470.848V36.8886H471.856V38.3866ZM475.642 36.8886H476.65V44.0146H475.642V36.8886ZM475.502 34.2986C475.502 33.9486 475.726 33.6686 476.146 33.6686C476.552 33.6686 476.776 33.9486 476.776 34.2986C476.776 34.6626 476.552 34.9426 476.146 34.9426C475.726 34.9426 475.502 34.6626 475.502 34.2986ZM487.553 39.6466C487.553 38.5126 486.867 37.8686 485.859 37.8686C484.921 37.8686 483.955 38.7506 483.955 39.6466V44.0146H482.947V39.6466C482.947 38.7506 482.373 37.8686 481.281 37.8686C480.287 37.8686 479.363 38.7506 479.363 39.7586V44.0146H478.355V36.8886H479.363V38.1206C479.811 37.3506 480.469 36.8886 481.323 36.8886C482.359 36.8886 483.045 37.3366 483.549 38.3166C484.067 37.5886 484.781 36.8886 485.901 36.8886C487.357 36.8886 488.561 38.0646 488.561 39.5346V44.0146H487.553V39.6466ZM493.198 43.1046C494.458 43.1046 495.592 42.0826 495.606 40.5146C495.592 38.9606 494.458 37.9246 493.198 37.9246C491.644 37.9246 490.804 39.0446 490.804 40.5146C490.804 41.9846 491.644 43.1046 493.198 43.1046ZM489.796 40.5146C489.796 38.5686 491.014 36.9306 493.184 36.9306C494.01 36.9306 494.934 37.3646 495.578 38.4006V36.8886H496.586V44.0146H495.578V42.6146C494.906 43.7066 494.024 44.1126 493.184 44.1126C491.014 44.1126 489.796 42.4466 489.796 40.5146ZM498.784 38.3866C499.19 37.4486 500.352 36.8186 501.318 36.8186V37.8546C500.016 37.8546 498.784 39.2126 498.784 40.3466V44.0146H497.776V36.8886H498.784V38.3866ZM504.81 47.2346H503.718L505.118 43.7486L502.206 36.8886H503.312L505.65 42.4046L507.89 36.8886H508.982L506.266 43.5806L504.81 47.2346ZM512.96 38.9606C512.96 41.0326 512.344 42.9646 511.28 44.6446H510.146C511.35 42.9926 512.036 41.0466 512.036 38.9606C512.036 36.8746 511.35 34.9286 510.146 33.2766H511.28C512.344 34.9566 512.96 36.8886 512.96 38.9606Z" fill="#616161"/>
<path d="M332.321 84.4012C334.323 82.4692 337.347 80.1312 337.347 78.2972C337.347 76.8972 336.423 76.1832 335.331 76.1832C334.561 76.1832 333.707 76.4492 333.189 77.6392L332.265 77.2472C332.993 75.5952 334.365 75.1752 335.331 75.1752C336.829 75.1752 338.355 76.3232 338.355 78.2972C338.355 80.3692 335.765 82.6092 333.805 84.4012L338.523 84.4152V85.4232H332.307L332.321 84.4012ZM341.244 84.1912C341.692 84.1912 341.93 84.4992 341.93 84.8772C341.93 85.2832 341.692 85.5912 341.244 85.5912C340.782 85.5912 340.53 85.2832 340.53 84.8772C340.53 84.4992 340.782 84.1912 341.244 84.1912ZM350.12 74.9092H358.1V75.7772H351.17V78.7732H358.268V79.6412H350.12V74.9092ZM348.58 82.1472V81.2652H359.682V82.1472H354.614V86.4032H353.578V82.1472H348.58ZM369.468 74.1952H370.518V83.2532H369.468V78.5212H366.584V81.1532H361.082V74.9932H362.118V77.1912H365.548V74.9932H366.584V77.6532H369.468V74.1952ZM362.118 80.2852H365.548V78.0172H362.118V80.2852ZM362.678 86.1512V82.3712H363.728V85.2832H370.812V86.1512H362.678ZM381.887 74.1812H382.881V86.4312H381.887V80.0612H380.501V85.8012H379.521V74.4612H380.501V79.2072H381.887V74.1812ZM372.115 82.7352C373.515 81.6292 373.823 79.3752 373.823 77.8912V76.5332H372.521V75.6792H375.517V76.5332H374.747V77.8912C374.747 78.8852 374.803 80.8452 375.713 82.2032C376.595 80.9292 376.665 79.0812 376.665 77.8912V76.5332H375.895V75.6792H378.793V76.5332H377.575V77.8912C377.575 79.4312 377.883 81.6432 379.297 82.7352L378.695 83.4772C377.883 82.8332 377.421 81.8112 377.155 80.7332C376.931 81.8392 376.511 82.9172 375.699 83.5892C374.901 82.9032 374.467 81.7832 374.257 80.6632C373.991 81.7692 373.515 82.8192 372.717 83.4772L372.115 82.7352ZM387.578 75.3572H388.572V78.3672H391.246V75.3572H392.226V83.3512H387.578V75.3572ZM388.572 82.4832H391.246V79.2212H388.572V82.4832ZM393.78 85.8012V74.4612H394.774V79.0532H396.496V74.1812H397.504V86.4312H396.496V79.9212H394.774V85.8012H393.78ZM404.742 79.0252H408.004V77.3312H404.882C404.084 79.3052 402.194 80.7332 399.59 81.5172L399.156 80.6772C402.11 79.8092 403.958 78.1292 404.168 75.9732H399.786V75.1052H405.302C405.302 75.5812 405.246 76.0432 405.148 76.4772H408.004V74.1812H409.054V81.5592H408.004V79.8792H404.742V79.0252ZM401.032 84.0372C401.032 82.5672 402.586 81.6852 405.078 81.6852C407.542 81.6852 409.11 82.5672 409.11 84.0372C409.11 85.4932 407.542 86.3752 405.078 86.3752C402.586 86.3752 401.032 85.4932 401.032 84.0372ZM402.068 84.0372C402.068 84.9612 403.244 85.5352 405.078 85.5352C406.912 85.5352 408.074 84.9612 408.074 84.0372C408.074 83.0852 406.912 82.5252 405.078 82.5252C403.244 82.5252 402.068 83.0852 402.068 84.0372ZM411.784 80.3552C411.784 78.2832 412.414 76.3512 413.478 74.6712H414.612C413.408 76.3232 412.708 78.2692 412.708 80.3552C412.708 82.4412 413.408 84.3872 414.612 86.0392H413.478C412.414 84.3592 411.784 82.4272 411.784 80.3552ZM421.194 85.5212C418.142 85.5212 416.21 83.1832 416.21 80.3552C416.21 77.5272 418.142 75.1892 421.194 75.1892C422.58 75.1892 423.826 75.7772 424.722 76.7012L423.98 77.4012C423.266 76.6592 422.286 76.2252 421.194 76.2252C418.744 76.2252 417.232 78.0592 417.232 80.3552C417.232 82.6652 418.744 84.4992 421.194 84.4992C422.286 84.4992 423.266 84.0512 423.98 83.3092L424.722 84.0092C423.826 84.9332 422.58 85.5212 421.194 85.5212ZM429.002 84.4852C430.57 84.4852 431.396 83.3372 431.396 81.8532C431.396 80.3692 430.57 79.2212 429.002 79.2212C427.42 79.2212 426.622 80.3692 426.622 81.8532C426.622 83.3372 427.42 84.4852 429.002 84.4852ZM425.614 81.8532C425.614 79.9072 426.818 78.2412 429.002 78.2412C431.2 78.2412 432.404 79.9072 432.404 81.8532C432.404 83.7992 431.2 85.4652 429.002 85.4652C426.818 85.4652 425.614 83.7992 425.614 81.8532ZM433.416 75.0212H434.424V85.4092H433.416V75.0212ZM438.83 84.4852C440.398 84.4852 441.224 83.3372 441.224 81.8532C441.224 80.3692 440.398 79.2212 438.83 79.2212C437.248 79.2212 436.45 80.3692 436.45 81.8532C436.45 83.3372 437.248 84.4852 438.83 84.4852ZM435.442 81.8532C435.442 79.9072 436.646 78.2412 438.83 78.2412C441.028 78.2412 442.232 79.9072 442.232 81.8532C442.232 83.7992 441.028 85.4652 438.83 85.4652C436.646 85.4652 435.442 83.7992 435.442 81.8532ZM444.294 79.7812C444.7 78.8432 445.862 78.2132 446.828 78.2132V79.2492C445.526 79.2492 444.294 80.6072 444.294 81.7412V85.4092H443.286V78.2832H444.294V79.7812ZM451.593 74.7132L448.667 86.0812H447.659L450.599 74.7132H451.593ZM456.599 84.5272C458.181 84.5272 459.035 83.3932 459.035 81.8952C459.035 80.4112 458.181 79.2632 456.599 79.2632C455.297 79.2632 454.191 80.4112 454.191 81.8952C454.191 83.3932 455.297 84.5272 456.599 84.5272ZM453.183 85.4092V75.0212H454.191V79.7812C454.849 78.6332 455.829 78.2832 456.627 78.2832C458.825 78.2832 460.043 79.9492 460.043 81.8952C460.043 83.8552 458.811 85.5212 456.613 85.5212C455.829 85.5212 454.849 85.1852 454.191 84.0092V85.4092H453.183ZM464.309 84.5272C465.639 84.5272 466.689 83.3652 466.689 81.9092C466.689 80.4812 465.625 79.3192 464.309 79.3192C462.853 79.3192 461.915 80.3412 461.915 81.9092C461.915 83.5052 462.853 84.5272 464.309 84.5272ZM460.907 81.9092C460.907 79.7952 462.293 78.3392 464.295 78.3392C465.359 78.3392 466.269 78.8992 466.689 79.8092V78.2832H467.697V85.0592C467.669 87.3272 466.353 88.6152 464.085 88.6152C462.951 88.6152 461.957 88.0272 461.229 86.9352L462.083 86.3892C462.601 87.2012 463.273 87.6072 464.085 87.6072C465.821 87.6072 466.675 86.7672 466.689 85.0452V83.9812C466.199 84.8632 465.205 85.5072 464.295 85.5072C462.293 85.5072 460.907 84.0372 460.907 81.9092ZM472.952 74.7132L470.026 86.0812H469.018L471.958 74.7132H472.952ZM475.508 82.9312C475.97 83.9532 476.936 84.5552 478.224 84.5272C480.408 84.4572 480.996 81.6572 478.91 81.0972C478.238 80.8452 477.132 80.5372 476.166 79.8792C474.766 78.9132 474.78 77.4992 475.2 76.6032C475.76 75.4272 477.258 75.0912 478.098 75.1612C478.924 75.2172 480.044 75.5532 480.73 76.5472L479.89 77.1072C479.428 76.4492 478.714 76.2252 478.014 76.1692C477.384 76.1412 476.474 76.3372 476.124 77.0232C475.844 77.6672 475.844 78.4092 476.726 79.0392C477.552 79.6132 478.546 79.8932 479.246 80.1452C482.41 81.1112 481.514 85.4372 478.252 85.5352C476.642 85.5912 475.172 84.7372 474.584 83.3232L475.508 82.9312ZM487.808 81.3492C487.696 80.3412 487.206 79.2632 485.694 79.2632C484.364 79.2632 483.51 79.9772 483.328 81.3632L487.808 81.3492ZM482.292 81.8532C482.292 79.8932 483.468 78.2552 485.652 78.2552C487.92 78.2552 488.494 80.0192 488.564 80.1872C488.984 81.3352 488.816 82.3432 488.816 82.3432H483.328C483.51 83.6592 484.364 84.4432 485.666 84.4432C487.276 84.4432 487.668 83.5612 487.766 83.4212L488.634 83.8832C488.634 83.8832 488.046 85.4512 485.652 85.4512C483.468 85.4512 482.292 83.7992 482.292 81.8532ZM492.998 84.4712C493.726 84.4712 494.398 84.1912 494.874 83.7152L495.63 84.3872C494.958 85.0592 494.062 85.4792 493.054 85.4792C490.758 85.4792 489.428 83.7852 489.428 81.7272C489.428 79.6832 490.758 77.9892 493.054 77.9892C494.062 77.9892 494.958 78.4092 495.63 79.0812L494.874 79.7532C494.398 79.2772 493.726 78.9972 492.998 78.9972C491.346 78.9972 490.436 80.2152 490.436 81.7272C490.436 83.2532 491.346 84.4712 492.998 84.4712ZM499.527 84.4852C501.095 84.4852 501.921 83.3372 501.921 81.8532C501.921 80.3692 501.095 79.2212 499.527 79.2212C497.945 79.2212 497.147 80.3692 497.147 81.8532C497.147 83.3372 497.945 84.4852 499.527 84.4852ZM496.139 81.8532C496.139 79.9072 497.343 78.2412 499.527 78.2412C501.725 78.2412 502.929 79.9072 502.929 81.8532C502.929 83.7992 501.725 85.4652 499.527 85.4652C497.343 85.4652 496.139 83.7992 496.139 81.8532ZM509.023 81.2092C509.023 80.0612 508.351 79.2632 507.175 79.2632C505.957 79.2632 505.061 80.3972 505.061 81.3492V85.4092H504.053V78.2832H505.061V79.5012C505.537 78.8012 506.237 78.2832 507.217 78.2832C508.883 78.2832 510.031 79.5432 510.031 81.1112V85.4092H509.023V81.2092ZM514.55 85.5212C512.38 85.5212 511.148 83.8552 511.148 81.8952C511.148 79.9492 512.38 78.2692 514.55 78.2692C515.46 78.2692 516.412 78.7312 517 79.7952V75.0212H518.008V85.4092H517V83.9952C516.398 85.0592 515.46 85.5212 514.55 85.5212ZM512.156 81.8952C512.156 83.3932 513.01 84.5132 514.592 84.5132C515.88 84.5132 517 83.3932 517 81.8952C517 80.4112 515.88 79.2772 514.592 79.2772C513.01 79.2772 512.156 80.4112 512.156 81.8952ZM522.554 84.4992C523.814 84.4992 524.948 83.4772 524.962 81.9092C524.948 80.3552 523.814 79.3192 522.554 79.3192C521 79.3192 520.16 80.4392 520.16 81.9092C520.16 83.3792 521 84.4992 522.554 84.4992ZM519.152 81.9092C519.152 79.9632 520.37 78.3252 522.54 78.3252C523.366 78.3252 524.29 78.7592 524.934 79.7952V78.2832H525.942V85.4092H524.934V84.0092C524.262 85.1012 523.38 85.5072 522.54 85.5072C520.37 85.5072 519.152 83.8412 519.152 81.9092ZM530.626 85.5212C528.456 85.5212 527.224 83.8552 527.224 81.8952C527.224 79.9492 528.456 78.2692 530.626 78.2692C531.536 78.2692 532.488 78.7312 533.076 79.7952V75.0212H534.084V85.4092H533.076V83.9952C532.474 85.0592 531.536 85.5212 530.626 85.5212ZM528.232 81.8952C528.232 83.3932 529.086 84.5132 530.668 84.5132C531.956 84.5132 533.076 83.3932 533.076 81.8952C533.076 80.4112 531.956 79.2772 530.668 79.2772C529.086 79.2772 528.232 80.4112 528.232 81.8952ZM537.926 88.6292H536.834L538.234 85.1432L535.322 78.2832H536.428L538.766 83.7992L541.006 78.2832H542.098L539.382 84.9752L537.926 88.6292ZM546.076 80.3552C546.076 82.4272 545.46 84.3592 544.396 86.0392H543.262C544.466 84.3872 545.152 82.4412 545.152 80.3552C545.152 78.2692 544.466 76.3232 543.262 74.6712H544.396C545.46 76.3512 546.076 78.2832 546.076 80.3552Z" fill="#616161"/>
<path d="M337.123 124.342C337.949 124.846 338.649 125.7 338.649 126.708C338.649 128.402 337.109 129.648 335.387 129.648C333.679 129.648 332.139 128.402 332.139 126.708H333.147C333.147 127.66 334.057 128.626 335.387 128.626C336.731 128.626 337.641 127.674 337.641 126.722C337.641 125.77 337.025 124.832 335.415 124.832H334.673V123.824H335.415C336.801 123.824 337.501 122.998 337.501 122.102C337.501 121.262 336.689 120.38 335.471 120.38C334.253 120.38 333.427 121.248 333.427 122.13H332.419C332.419 120.548 333.875 119.372 335.471 119.372C337.081 119.372 338.509 120.548 338.509 122.13C338.509 123.054 337.879 123.838 337.123 124.342ZM341.244 128.346C341.692 128.346 341.93 128.654 341.93 129.032C341.93 129.438 341.692 129.746 341.244 129.746C340.782 129.746 340.53 129.438 340.53 129.032C340.53 128.654 340.782 128.346 341.244 128.346ZM353.396 122.746H355.468V118.616H356.448V129.956H355.468V123.628H353.396V122.746ZM348.44 127.142C350.106 126.162 351.156 123.964 351.156 121.864V119.512H352.164V121.836C352.164 123.782 353.13 125.882 354.74 126.848L354.124 127.66C352.948 126.96 352.108 125.63 351.674 124.146C351.226 125.77 350.316 127.184 349.098 127.926L348.44 127.142ZM357.96 130.586V118.336H358.968V130.586H357.96ZM369.468 118.35H370.518V127.408H369.468V122.676H366.584V125.308H361.082V119.148H362.118V121.346H365.548V119.148H366.584V121.808H369.468V118.35ZM362.118 124.44H365.548V122.172H362.118V124.44ZM362.678 130.306V126.526H363.728V129.438H370.812V130.306H362.678ZM381.887 118.336H382.881V130.586H381.887V124.216H380.501V129.956H379.521V118.616H380.501V123.362H381.887V118.336ZM372.115 126.89C373.515 125.784 373.823 123.53 373.823 122.046V120.688H372.521V119.834H375.517V120.688H374.747V122.046C374.747 123.04 374.803 125 375.713 126.358C376.595 125.084 376.665 123.236 376.665 122.046V120.688H375.895V119.834H378.793V120.688H377.575V122.046C377.575 123.586 377.883 125.798 379.297 126.89L378.695 127.632C377.883 126.988 377.421 125.966 377.155 124.888C376.931 125.994 376.511 127.072 375.699 127.744C374.901 127.058 374.467 125.938 374.257 124.818C373.991 125.924 373.515 126.974 372.717 127.632L372.115 126.89ZM387.578 119.512H388.572V122.522H391.246V119.512H392.226V127.506H387.578V119.512ZM388.572 126.638H391.246V123.376H388.572V126.638ZM393.78 129.956V118.616H394.774V123.208H396.496V118.336H397.504V130.586H396.496V124.076H394.774V129.956H393.78ZM404.742 123.18H408.004V121.486H404.882C404.084 123.46 402.194 124.888 399.59 125.672L399.156 124.832C402.11 123.964 403.958 122.284 404.168 120.128H399.786V119.26H405.302C405.302 119.736 405.246 120.198 405.148 120.632H408.004V118.336H409.054V125.714H408.004V124.034H404.742V123.18ZM401.032 128.192C401.032 126.722 402.586 125.84 405.078 125.84C407.542 125.84 409.11 126.722 409.11 128.192C409.11 129.648 407.542 130.53 405.078 130.53C402.586 130.53 401.032 129.648 401.032 128.192ZM402.068 128.192C402.068 129.116 403.244 129.69 405.078 129.69C406.912 129.69 408.074 129.116 408.074 128.192C408.074 127.24 406.912 126.68 405.078 126.68C403.244 126.68 402.068 127.24 402.068 128.192ZM411.784 124.51C411.784 122.438 412.414 120.506 413.478 118.826H414.612C413.408 120.478 412.708 122.424 412.708 124.51C412.708 126.596 413.408 128.542 414.612 130.194H413.478C412.414 128.514 411.784 126.582 411.784 124.51ZM421.194 129.676C418.142 129.676 416.21 127.338 416.21 124.51C416.21 121.682 418.142 119.344 421.194 119.344C422.58 119.344 423.826 119.932 424.722 120.856L423.98 121.556C423.266 120.814 422.286 120.38 421.194 120.38C418.744 120.38 417.232 122.214 417.232 124.51C417.232 126.82 418.744 128.654 421.194 128.654C422.286 128.654 423.266 128.206 423.98 127.464L424.722 128.164C423.826 129.088 422.58 129.676 421.194 129.676ZM429.002 128.64C430.57 128.64 431.396 127.492 431.396 126.008C431.396 124.524 430.57 123.376 429.002 123.376C427.42 123.376 426.622 124.524 426.622 126.008C426.622 127.492 427.42 128.64 429.002 128.64ZM425.614 126.008C425.614 124.062 426.818 122.396 429.002 122.396C431.2 122.396 432.404 124.062 432.404 126.008C432.404 127.954 431.2 129.62 429.002 129.62C426.818 129.62 425.614 127.954 425.614 126.008ZM433.416 119.176H434.424V129.564H433.416V119.176ZM438.83 128.64C440.398 128.64 441.224 127.492 441.224 126.008C441.224 124.524 440.398 123.376 438.83 123.376C437.248 123.376 436.45 124.524 436.45 126.008C436.45 127.492 437.248 128.64 438.83 128.64ZM435.442 126.008C435.442 124.062 436.646 122.396 438.83 122.396C441.028 122.396 442.232 124.062 442.232 126.008C442.232 127.954 441.028 129.62 438.83 129.62C436.646 129.62 435.442 127.954 435.442 126.008ZM444.294 123.936C444.7 122.998 445.862 122.368 446.828 122.368V123.404C445.526 123.404 444.294 124.762 444.294 125.896V129.564H443.286V122.438H444.294V123.936ZM451.593 118.868L448.667 130.236H447.659L450.599 118.868H451.593ZM456.599 128.682C458.181 128.682 459.035 127.548 459.035 126.05C459.035 124.566 458.181 123.418 456.599 123.418C455.297 123.418 454.191 124.566 454.191 126.05C454.191 127.548 455.297 128.682 456.599 128.682ZM453.183 129.564V119.176H454.191V123.936C454.849 122.788 455.829 122.438 456.627 122.438C458.825 122.438 460.043 124.104 460.043 126.05C460.043 128.01 458.811 129.676 456.613 129.676C455.829 129.676 454.849 129.34 454.191 128.164V129.564H453.183ZM464.309 128.682C465.639 128.682 466.689 127.52 466.689 126.064C466.689 124.636 465.625 123.474 464.309 123.474C462.853 123.474 461.915 124.496 461.915 126.064C461.915 127.66 462.853 128.682 464.309 128.682ZM460.907 126.064C460.907 123.95 462.293 122.494 464.295 122.494C465.359 122.494 466.269 123.054 466.689 123.964V122.438H467.697V129.214C467.669 131.482 466.353 132.77 464.085 132.77C462.951 132.77 461.957 132.182 461.229 131.09L462.083 130.544C462.601 131.356 463.273 131.762 464.085 131.762C465.821 131.762 466.675 130.922 466.689 129.2V128.136C466.199 129.018 465.205 129.662 464.295 129.662C462.293 129.662 460.907 128.192 460.907 126.064ZM472.952 118.868L470.026 130.236H469.018L471.958 118.868H472.952ZM478.182 129.41C477.93 129.466 477.552 129.536 477.146 129.536C476.082 129.536 475.228 128.682 475.228 127.632V123.362H474.066V122.382H475.228V120.184H476.236V122.382H477.902V123.362H476.236V127.632C476.236 128.192 476.572 128.528 477.146 128.528C477.468 128.528 477.734 128.486 477.958 128.43L478.182 129.41ZM484.308 125.504C484.196 124.496 483.706 123.418 482.194 123.418C480.864 123.418 480.01 124.132 479.828 125.518L484.308 125.504ZM478.792 126.008C478.792 124.048 479.968 122.41 482.152 122.41C484.42 122.41 484.994 124.174 485.064 124.342C485.484 125.49 485.316 126.498 485.316 126.498H479.828C480.01 127.814 480.864 128.598 482.166 128.598C483.776 128.598 484.168 127.716 484.266 127.576L485.134 128.038C485.134 128.038 484.546 129.606 482.152 129.606C479.968 129.606 478.792 127.954 478.792 126.008ZM487.426 123.936C487.832 122.998 488.994 122.368 489.96 122.368V123.404C488.658 123.404 487.426 124.762 487.426 125.896V129.564H486.418V122.438H487.426V123.936ZM491.211 122.438H492.219V129.564H491.211V122.438ZM491.071 119.848C491.071 119.498 491.295 119.218 491.715 119.218C492.121 119.218 492.345 119.498 492.345 119.848C492.345 120.212 492.121 120.492 491.715 120.492C491.295 120.492 491.071 120.212 491.071 119.848ZM497.481 129.41C497.229 129.466 496.851 129.536 496.445 129.536C495.381 129.536 494.527 128.682 494.527 127.632V123.362H493.365V122.382H494.527V120.184H495.535V122.382H497.201V123.362H495.535V127.632C495.535 128.192 495.871 128.528 496.445 128.528C496.767 128.528 497.033 128.486 497.257 128.43L497.481 129.41ZM498.824 122.438H499.832V129.564H498.824V122.438ZM498.684 119.848C498.684 119.498 498.908 119.218 499.328 119.218C499.734 119.218 499.958 119.498 499.958 119.848C499.958 120.212 499.734 120.492 499.328 120.492C498.908 120.492 498.684 120.212 498.684 119.848ZM504.575 128.654C505.835 128.654 506.969 127.632 506.983 126.064C506.969 124.51 505.835 123.474 504.575 123.474C503.021 123.474 502.181 124.594 502.181 126.064C502.181 127.534 503.021 128.654 504.575 128.654ZM501.173 126.064C501.173 124.118 502.391 122.48 504.561 122.48C505.387 122.48 506.311 122.914 506.955 123.95V122.438H507.963V129.564H506.955V128.164C506.283 129.256 505.401 129.662 504.561 129.662C502.391 129.662 501.173 127.996 501.173 126.064ZM510.162 123.936C510.568 122.998 511.73 122.368 512.696 122.368V123.404C511.394 123.404 510.162 124.762 510.162 125.896V129.564H509.154V122.438H510.162V123.936ZM516.188 132.784H515.096L516.496 129.298L513.584 122.438H514.69L517.028 127.954L519.268 122.438H520.36L517.644 129.13L516.188 132.784ZM524.338 124.51C524.338 126.582 523.722 128.514 522.658 130.194H521.524C522.728 128.542 523.414 126.596 523.414 124.51C523.414 122.424 522.728 120.478 521.524 118.826H522.658C523.722 120.506 524.338 122.438 524.338 124.51Z" fill="#616161"/>
<g clip-path="url(#clip0_1335_48370)" filter="url(#filter0_dd_1335_48370)">
<rect width="275.966" height="183.518" transform="translate(40.0151 16.5967)" fill="#FAFAFA"/>
<rect width="275.966" height="42.9281" transform="translate(40.0149 17.3628)" fill="white"/>
<path d="M59.5473 32.8894C61.387 32.8894 62.7515 34.4379 62.9968 36.9369H65.5419V31.8928H67.213V45.5838H65.5419V38.2861H63.0122C62.8282 40.9231 61.433 42.5635 59.5473 42.5635C57.5388 42.5635 56.0823 40.6931 56.0823 37.7188C56.0823 34.7598 57.5388 32.8894 59.5473 32.8894ZM59.5473 34.4225C58.4434 34.4225 57.6768 35.6337 57.6768 37.7188C57.6768 39.8192 58.4434 41.0457 59.5473 41.0457C60.6818 41.0457 61.433 39.8192 61.433 37.7188C61.433 35.6337 60.6818 34.4225 59.5473 34.4225ZM69.1528 42.5635H81.5099V43.9434H69.1528V42.5635ZM70.5939 32.8741H80.0688V37.2589H72.2804V39.0526H80.3754V40.4171H70.6246V35.9403H78.3977V34.2232H70.5939V32.8741ZM92.0047 31.9235H93.6912V41.8736H92.0047V31.9235ZM84.7376 40.9384H86.424V43.9434H94.0744V45.2925H84.7376V40.9384ZM85.7648 32.6594H87.4666V34.0239C87.4666 35.8944 88.5704 37.7035 90.7322 38.424L89.8583 39.7732C88.3251 39.2213 87.2366 38.1327 86.6387 36.7376C86.0408 38.2247 84.9216 39.4206 83.3117 40.0032L82.4532 38.6693C84.6456 37.8721 85.7648 35.9403 85.7648 34.0239V32.6594Z" fill="#333333"/>
<path d="M61.7594 75.3789C63.2235 75.3789 64.2816 76.6462 64.417 78.6762H66.8284V74.53H67.7389V85.3201H66.8284V79.4144H64.417C64.3308 81.5306 63.2481 82.8717 61.7594 82.8717C60.1968 82.8717 59.0895 81.4076 59.0895 79.1192C59.0895 76.8307 60.1968 75.3789 61.7594 75.3789ZM59.9631 79.1192C59.9631 80.8786 60.7013 82.0474 61.7594 82.0474C62.8298 82.0474 63.5557 80.8786 63.5557 79.1192C63.5557 77.3598 62.8298 76.2032 61.7594 76.2032C60.7013 76.2032 59.9631 77.3598 59.9631 79.1192ZM69.474 83.1547H79.2307V83.9298H69.474V83.1547ZM70.6797 76.1294V75.3666H78.0126V78.5901H71.6148V80.3987H78.2587V81.1615H70.7043V77.8519H77.1021V76.1294H70.6797ZM87.9172 74.5546H88.84V82.4288H87.9172V74.5546ZM80.166 80.1404C81.7655 79.5129 82.8728 77.938 82.8728 76.2401V75.1328H83.7955V76.2401C83.7955 77.8765 84.9152 79.3529 86.5023 79.9435L86.0102 80.6817C84.7798 80.2019 83.8201 79.2053 83.3526 77.9626C82.8974 79.2914 81.9254 80.3618 80.6581 80.8786L80.166 80.1404ZM81.9623 85.0618V81.7152H82.8851V84.2989H89.1845V85.0618H81.9623ZM95.9205 75.0959H96.8187V76.2771C96.8187 77.7535 97.9383 79.1069 99.464 79.6482L98.9841 80.3618C97.803 79.9312 96.8556 79.0207 96.4004 77.8765C95.9452 79.1684 94.9855 80.165 93.7305 80.6694L93.2261 79.9312C94.8378 79.3406 95.9205 77.8765 95.9205 76.2155V75.0959ZM94.6656 83.3393C94.6656 82.1089 95.9944 81.3953 98.1844 81.3953C100.387 81.3953 101.715 82.1089 101.715 83.3393C101.715 84.5696 100.387 85.2832 98.1844 85.2832C95.9944 85.2832 94.6656 84.5696 94.6656 83.3393ZM95.5637 83.3393C95.5637 84.1021 96.5726 84.5573 98.1844 84.5573C99.8084 84.5573 100.805 84.1021 100.805 83.3393C100.805 82.5764 99.8084 82.1212 98.1844 82.1212C96.5726 82.1212 95.5637 82.5764 95.5637 83.3393ZM100.682 81.1V74.5423H101.605V77.3598H103.217V78.1349H101.605V81.1H100.682ZM111.263 74.5423H112.186V77.1998H113.786V77.9503H112.186V80.6448H111.263V74.5423ZM104.361 80.005V75.2682H109.086V76.0187H105.271V79.2422C107.425 79.2422 108.655 79.1807 110.082 78.8854L110.193 79.6359C108.692 79.9435 107.425 80.005 105.185 80.005H104.361ZM105.456 85.1479V81.2231H112.186V85.1479H105.456ZM106.354 84.3974H111.276V81.9613H106.354V84.3974ZM120.122 77.3598H122.312V74.5423H123.235V80.9524H122.312V78.1226H120.122V77.3598ZM114.45 80.1157C116.025 79.5375 117.169 78.0857 117.169 76.5231V76.1048H114.733V75.342H120.479V76.1048H118.092V76.5231C118.092 77.9257 119.175 79.2668 120.725 79.8082L120.245 80.5464C119.039 80.1034 118.104 79.193 117.649 78.0734C117.194 79.3529 116.185 80.3618 114.918 80.854L114.45 80.1157ZM116.123 83.3024C116.123 82.0474 117.477 81.2969 119.704 81.2969C121.918 81.2969 123.272 82.0474 123.272 83.3024C123.272 84.5696 121.918 85.2955 119.704 85.2955C117.477 85.2955 116.123 84.5696 116.123 83.3024ZM117.046 83.3024C117.046 84.0898 118.055 84.5696 119.704 84.5696C121.34 84.5696 122.361 84.0898 122.361 83.3024C122.361 82.5026 121.34 82.0228 119.704 82.0228C118.055 82.0228 117.046 82.5026 117.046 83.3024ZM124.97 83.1424H129.375V80.7924H126.139V75.3051H127.049V77.249H132.635V75.3051H133.546V80.7924H130.285V83.1424H134.727V83.9175H124.97V83.1424ZM127.049 80.0419H132.635V78.0118H127.049V80.0419Z" fill="#616161"/>
<path d="M58.4128 104.358C58.4128 101.055 61.0899 98.3784 64.3921 98.3784H291.604C294.907 98.3784 297.584 101.055 297.584 104.358V198.471C297.584 201.773 294.907 204.45 291.604 204.45H64.3921C61.0898 204.45 58.4128 201.773 58.4128 198.471V104.358Z" fill="#F5F5F5"/>
<path d="M76.5402 125.975H77.4468V127.167C77.4468 128.657 78.5768 130.023 80.1167 130.57L79.6324 131.29C78.4402 130.855 77.484 129.936 77.0245 128.781C76.5651 130.085 75.5964 131.091 74.3297 131.6L73.8206 130.855C75.4474 130.259 76.5402 128.781 76.5402 127.105V125.975ZM81.3462 125.416H82.2776V128.26H83.9044V129.042H82.2776V132.035H81.3462V125.416ZM78.8252 132.333C81.0481 132.333 82.3893 133.053 82.3893 134.295C82.3893 135.537 81.0481 136.257 78.8252 136.257C76.6147 136.257 75.2735 135.537 75.2735 134.295C75.2735 133.053 76.6147 132.333 78.8252 132.333ZM78.8252 133.066C77.1984 133.066 76.1801 133.525 76.1801 134.295C76.1801 135.065 77.1984 135.525 78.8252 135.525C80.4645 135.525 81.4704 135.065 81.4704 134.295C81.4704 133.525 80.4645 133.066 78.8252 133.066ZM92.1092 125.416H93.0405V128.098H94.6549V128.856H93.0405V131.575H92.1092V125.416ZM85.1424 126.149H89.9111V126.906H86.0613V130.16C88.2346 130.16 89.4764 130.098 90.917 129.8L91.0287 130.557C89.5137 130.868 88.2346 130.93 85.9744 130.93H85.1424V126.149ZM86.2476 132.159H93.0405V136.121H86.2476V132.159ZM92.1216 132.904H87.1542V135.363H92.1216V132.904ZM102.86 125.416H103.791V128.036H105.406V128.831H103.791V131.774H102.86V125.416ZM95.8433 126.012H96.7622V127.713H99.929V126.012H100.848V131.079H95.8433V126.012ZM96.7622 128.458V130.309H99.929V128.458H96.7622ZM97.0354 132.383H103.878V133.14H97.9668V135.363H104.089V136.133H97.0354V132.383ZM111.015 125.615C113.399 125.615 114.827 126.273 114.827 127.49C114.827 128.707 113.399 129.377 111.015 129.377C108.63 129.377 107.202 128.707 107.202 127.49C107.202 126.273 108.63 125.615 111.015 125.615ZM111.015 126.31C109.227 126.31 108.159 126.745 108.159 127.49C108.159 128.247 109.227 128.67 111.015 128.67C112.803 128.67 113.871 128.247 113.871 127.49C113.871 126.745 112.803 126.31 111.015 126.31ZM106.11 130.135H115.92V130.892H106.11V130.135ZM107.302 131.849H114.653V134.258H108.245V135.425H114.989V136.158H107.339V133.575H113.747V132.569H107.302V131.849ZM127.604 125.428H128.535V133.451H127.604V130.495H124.822C124.325 131.141 123.518 131.526 122.574 131.526C120.972 131.526 119.793 130.421 119.793 128.831C119.793 127.229 120.972 126.111 122.574 126.111C123.506 126.111 124.3 126.496 124.797 127.13H127.604V125.428ZM121.618 132.619H122.549V135.264H128.846V136.034H121.618V132.619ZM122.574 126.943C121.481 126.943 120.674 127.726 120.674 128.831C120.674 129.936 121.481 130.719 122.574 130.719C123.655 130.719 124.474 129.936 124.474 128.831C124.474 127.726 123.655 126.943 122.574 126.943ZM125.219 127.9C125.319 128.185 125.368 128.496 125.368 128.831C125.368 129.154 125.319 129.452 125.232 129.725H127.604V127.9H125.219ZM130.841 126.074H135.722V129.042H131.785V130.656C133.697 130.656 135.101 130.594 136.79 130.296L136.877 131.079C135.15 131.364 133.697 131.426 131.71 131.426H130.866V128.309H134.803V126.832H130.841V126.074ZM137.87 125.428H138.801V128.222H140.428V129.005H138.801V132.022H137.87V125.428ZM131.76 132.606H138.801V136.282H137.87V133.376H131.76V132.606ZM149.105 125.403H150.024V136.294H149.105V130.57H146.708V129.787H149.105V125.403ZM141.43 127.316H143.902V125.602H144.82V127.316H147.267V128.061H144.82V128.943C144.82 130.756 146.05 132.532 147.627 133.252L147.105 133.972C145.876 133.401 144.858 132.209 144.373 130.768C143.902 132.296 142.896 133.562 141.666 134.171L141.145 133.463C142.709 132.706 143.902 130.843 143.902 128.943V128.061H141.43V127.316Z" fill="#616161"/>
<path d="M186.23 134.668C187.571 134.668 188.515 133.103 188.515 130.892C188.515 128.682 187.571 127.13 186.23 127.13C184.876 127.13 183.933 128.682 183.933 130.892C183.933 133.103 184.876 134.668 186.23 134.668ZM186.23 135.462C184.355 135.462 183.039 133.575 183.039 130.892C183.039 128.222 184.355 126.335 186.23 126.335C188.093 126.335 189.409 128.222 189.409 130.892C189.409 133.575 188.093 135.462 186.23 135.462ZM193.367 126.422V135.375H192.473V127.44L191.082 128.409L190.586 127.726L192.473 126.422H193.367ZM198.381 134.668C199.722 134.668 200.666 133.103 200.666 130.892C200.666 128.682 199.722 127.13 198.381 127.13C197.027 127.13 196.084 128.682 196.084 130.892C196.084 133.103 197.027 134.668 198.381 134.668ZM198.381 135.462C196.506 135.462 195.189 133.575 195.189 130.892C195.189 128.222 196.506 126.335 198.381 126.335C200.244 126.335 201.56 128.222 201.56 130.892C201.56 133.575 200.244 135.462 198.381 135.462ZM203.01 130.358H208.25V131.24H203.01V130.358ZM212.388 126.422V135.375H211.494V127.44L210.103 128.409L209.606 127.726L211.494 126.422H212.388ZM214.272 134.593C216.048 132.867 218.743 130.694 218.743 129.067C218.743 127.912 218.01 127.092 216.955 127.092C216.197 127.092 215.415 127.664 215.055 128.483L214.235 128.136C214.707 127.055 215.837 126.298 216.955 126.298C218.532 126.298 219.637 127.44 219.637 129.067C219.637 130.955 217.228 132.979 215.489 134.593H219.786V135.388H214.396L214.272 134.593ZM225.589 130.743C226.384 131.228 226.818 132.097 226.818 132.842C226.818 134.37 225.626 135.45 223.925 135.45C222.236 135.45 221.044 134.37 221.044 132.842H221.938C221.938 133.91 222.757 134.655 223.925 134.655C225.105 134.655 225.924 133.91 225.924 132.855C225.924 131.849 225.105 131.141 223.95 131.141H223.291V130.321H223.95C225.03 130.321 225.8 129.675 225.8 128.756C225.8 127.8 225.055 127.13 223.999 127.13C222.931 127.13 222.186 127.813 222.186 128.781H221.292C221.292 127.341 222.41 126.335 223.999 126.335C225.576 126.335 226.694 127.341 226.694 128.781C226.694 129.452 226.309 130.259 225.589 130.743ZM233.026 126.409V132.06H234.355V132.855H233.026V135.375H232.132V132.855H228.208L228.083 132.06L232.157 126.409H233.026ZM229.189 132.06H232.132V127.974L229.189 132.06ZM235.806 130.358H241.047V131.24H235.806V130.358ZM243.819 131.141L242.925 130.992L243.21 126.397H247.681V127.192H244.067L243.893 129.973C244.353 129.713 244.887 129.551 245.371 129.551C247.147 129.551 248.401 130.768 248.401 132.494C248.401 134.258 247.147 135.5 245.371 135.5C243.993 135.5 242.813 134.568 242.502 133.252L243.372 133.053C243.583 133.997 244.402 134.655 245.371 134.655C246.625 134.655 247.507 133.761 247.507 132.494C247.507 131.265 246.625 130.396 245.371 130.396C244.837 130.396 244.191 130.706 243.819 131.141ZM252.606 134.68C253.835 134.68 254.692 133.798 254.692 132.532C254.692 131.265 253.835 130.371 252.606 130.371C251.414 130.371 250.569 131.265 250.569 132.532C250.569 133.798 251.414 134.68 252.606 134.68ZM249.675 132.532C249.675 131.898 249.874 131.327 250.134 130.868L252.68 126.409H253.711L251.836 129.663C252.084 129.613 252.357 129.576 252.631 129.576C254.369 129.576 255.586 130.793 255.586 132.532C255.586 134.258 254.369 135.475 252.631 135.475C250.892 135.475 249.675 134.258 249.675 132.532ZM258.735 135.363H257.767L261.38 127.204H257.022V126.409H262.225L262.349 127.204L258.735 135.363ZM266.527 134.692C267.719 134.692 268.551 133.923 268.551 132.83C268.551 131.787 267.719 131.054 266.527 131.054C265.335 131.054 264.503 131.787 264.503 132.83C264.503 133.923 265.335 134.692 266.527 134.692ZM264.739 128.682C264.739 129.601 265.471 130.247 266.527 130.247C267.583 130.247 268.328 129.601 268.328 128.682C268.328 127.713 267.583 127.043 266.527 127.043C265.471 127.043 264.739 127.713 264.739 128.682ZM268.005 130.632C268.849 131.128 269.445 132.022 269.445 132.805C269.445 134.382 268.241 135.487 266.527 135.487C264.813 135.487 263.609 134.382 263.609 132.805C263.609 132.022 264.205 131.128 265.062 130.632C264.341 130.147 263.845 129.353 263.845 128.707C263.845 127.266 264.95 126.248 266.527 126.248C268.104 126.248 269.222 127.266 269.222 128.707C269.222 129.353 268.725 130.147 268.005 130.632Z" fill="#1A1A1A"/>
<path d="M79.2723 170.219H81.8429V166.481H82.7619V177.372H81.8429V170.976H79.2723V170.219ZM76.6892 167.437H77.6206V169.424C77.6206 171.386 78.8873 173.373 80.4396 174.106L79.8932 174.863C78.6638 174.23 77.6455 172.913 77.1611 171.361C76.6892 173 75.6585 174.391 74.4415 175.049L73.8578 174.304C75.4101 173.522 76.6892 171.436 76.6892 169.424V167.437ZM92.5438 166.481H93.4752V177.372H92.5438V166.481ZM85.2293 167.424H86.1607V170.305H89.4019V167.424H90.3209V174.739H85.2293V167.424ZM86.1607 171.051V173.969H89.4019V171.051H86.1607ZM99.7551 167.238H100.724V168.083C100.724 169.97 102.86 171.622 104.71 171.97L104.275 172.74C102.673 172.367 100.935 171.2 100.239 169.598C99.544 171.2 97.8178 172.367 96.2034 172.74L95.7936 171.97C97.6191 171.609 99.7551 169.97 99.7551 168.083V167.238ZM95.3589 175.099H105.207V175.869H95.3589V175.099ZM113.61 166.493H114.542V169.113H116.156V169.908H114.542V172.851H113.61V166.493ZM106.594 167.089H107.513V168.79H110.68V167.089H111.598V172.156H106.594V167.089ZM107.513 169.536V171.386H110.68V169.536H107.513ZM107.786 173.46H114.629V174.217H108.717V176.44H114.84V177.21H107.786V173.46ZM121.765 166.692C124.15 166.692 125.578 167.35 125.578 168.567C125.578 169.784 124.15 170.455 121.765 170.455C119.381 170.455 117.953 169.784 117.953 168.567C117.953 167.35 119.381 166.692 121.765 166.692ZM121.765 167.387C119.977 167.387 118.909 167.822 118.909 168.567C118.909 169.324 119.977 169.747 121.765 169.747C123.554 169.747 124.622 169.324 124.622 168.567C124.622 167.822 123.554 167.387 121.765 167.387ZM116.86 171.212H126.671V171.97H116.86V171.212ZM118.052 172.926H125.404V175.335H118.996V176.502H125.739V177.235H118.09V174.652H124.497V173.646H118.052V172.926ZM130.369 172.715H140.192V173.485H135.722V177.359H134.803V173.485H130.369V172.715ZM131.301 167.188H139.236V167.946H135.796V168.033C135.796 169.498 137.746 170.74 139.596 171.013L139.236 171.771C137.584 171.485 135.933 170.566 135.287 169.25C134.629 170.566 132.977 171.485 131.325 171.771L130.965 171.013C132.816 170.74 134.765 169.498 134.765 168.033V167.946H131.301V167.188ZM141.12 175.149H145.541V172.491H146.46V175.149H150.968V175.931H141.12V175.149ZM145.516 167.213H146.485V168.07C146.485 169.896 148.645 171.485 150.483 171.821L150.074 172.603C148.447 172.243 146.708 171.125 146 169.56C145.292 171.113 143.554 172.243 141.927 172.603L141.53 171.821C143.38 171.485 145.516 169.896 145.516 168.07V167.213Z" fill="#616161"/>
<path d="M188.279 170.219H190.85V166.481H191.769V177.372H190.85V170.976H188.279V170.219ZM185.696 167.437H186.627V169.424C186.627 171.386 187.894 173.373 189.446 174.106L188.9 174.863C187.671 174.23 186.652 172.913 186.168 171.361C185.696 173 184.665 174.391 183.448 175.049L182.865 174.304C184.417 173.522 185.696 171.436 185.696 169.424V167.437ZM198.521 166.63C200.905 166.63 202.333 167.3 202.333 168.505C202.333 169.722 200.905 170.405 198.521 170.405C196.136 170.405 194.708 169.722 194.708 168.505C194.708 167.3 196.136 166.63 198.521 166.63ZM198.521 167.337C196.732 167.337 195.664 167.772 195.664 168.505C195.664 169.262 196.732 169.685 198.521 169.685C200.309 169.685 201.377 169.262 201.377 168.505C201.377 167.772 200.309 167.337 198.521 167.337ZM193.615 171.125H203.426V171.883H198.98V172.926H202.159V175.335H195.751V176.502H202.494V177.235H194.845V174.652H201.253V173.646H194.807V172.926H198.049V171.883H193.615V171.125ZM207.234 167.449H208.166V169.424C208.166 171.411 209.519 173.41 211.084 174.143L210.525 174.888C209.296 174.279 208.228 172.975 207.719 171.411C207.222 173.062 206.142 174.453 204.875 175.087L204.304 174.317C205.881 173.559 207.234 171.485 207.234 169.424V167.449ZM212.289 166.481H213.22V177.372H212.289V166.481ZM219.142 167.077H226.431V167.871C226.431 168.728 226.431 169.722 226.133 171.088H227.723V171.858H217.875V171.088H225.214C225.525 169.722 225.525 168.728 225.525 167.871V167.847H219.142V167.077ZM219.092 173.373H226.481V177.223H219.092V173.373ZM225.574 174.118H219.998V176.465H225.574V174.118ZM228.924 167.971H231.37V166.568H232.289V167.971H234.723V168.716H232.289V169.076C232.289 170.541 233.431 171.821 235.021 172.33L234.562 173.062C233.32 172.653 232.326 171.783 231.842 170.653C231.382 171.87 230.401 172.802 229.122 173.261L228.65 172.528C230.252 171.982 231.37 170.628 231.37 169.076V168.716H228.924V167.971ZM234.338 169.846H236.611V166.505H237.542V174.615H236.611V170.628H234.338V169.846ZM230.625 173.882H231.556V176.341H237.852V177.111H230.625V173.882ZM240.63 167.213H247.895V168.157C247.895 169.188 247.895 170.305 247.585 171.883H249.199V172.665H244.741V177.384H243.797V172.665H239.376V171.883H246.641C246.976 170.33 246.976 169.175 246.976 168.157V167.971H240.63V167.213Z" fill="#1A1A1A"/>
</g>
<rect y="27.6348" width="16.558" height="16.558" rx="8.27899" fill="#333333"/>
<path d="M9.31142 31.9216V39.9467L8.14133 39.9357V33.169L6.72838 33.9527L6.24268 32.9703L8.15236 31.9216H9.31142Z" fill="white"/>
<path d="M43.8757 32.234C41.8436 32.234 40.1962 33.8814 40.1962 35.9136C40.1962 37.9457 41.8436 39.5931 43.8757 39.5931C45.9079 39.5931 47.5553 37.9457 47.5553 35.9136C47.5553 33.8814 45.9079 32.234 43.8757 32.234ZM43.8757 35.9136L43.8757 35.2237L16.2791 35.2237L16.2791 35.9136L16.2791 36.6035L43.8757 36.6035L43.8757 35.9136Z" fill="#333333"/>
<rect y="77" width="16.558" height="16.558" rx="8.27899" fill="#333333"/>
<path d="M5.48553 88.2853C7.09717 86.7399 9.29386 85.1724 9.29386 83.8147C9.29386 82.9095 8.71985 82.2693 7.90299 82.2693C7.27379 82.2693 6.64459 82.7218 6.35758 83.3731L5.33099 82.9205C5.77253 81.905 6.84328 81.1985 7.90299 81.1985C9.41529 81.1985 10.464 82.2803 10.464 83.8147C10.464 85.5036 8.63154 87.0048 7.14133 88.2853H10.5964V89.3119H5.59591L5.48553 88.2853Z" fill="white"/>
<path d="M43.8757 81.5993C41.8436 81.5993 40.1962 83.2466 40.1962 85.2788C40.1962 87.311 41.8436 88.9584 43.8757 88.9584C45.9079 88.9584 47.5553 87.311 47.5553 85.2788C47.5553 83.2466 45.9079 81.5993 43.8757 81.5993ZM43.8757 85.2788L43.8757 84.5889L16.2791 84.5889L16.2791 85.2788L16.2791 85.9687L43.8757 85.9687L43.8757 85.2788Z" fill="#333333"/>
<rect y="121.464" width="16.558" height="16.558" rx="8.27899" fill="#333333"/>
<path d="M9.55879 129.614C10.2653 130.023 10.8172 130.707 10.8172 131.513C10.8172 132.86 9.71333 133.853 8.02442 133.853C6.34654 133.853 5.25371 132.86 5.25371 131.414H6.57835C6.57835 132.01 6.99782 132.573 8.02442 132.573C9.06205 132.573 9.53671 132.01 9.53671 131.414C9.53671 130.806 9.1614 130.21 8.04649 130.21H7.48352V129.029H8.06857C8.98478 129.029 9.41529 128.488 9.41529 127.947C9.41529 127.429 9.00686 126.943 8.10169 126.943C7.18548 126.943 6.8212 127.429 6.8212 127.958H5.49657C5.49657 126.59 6.55628 125.662 8.10169 125.662C9.62502 125.662 10.6847 126.59 10.6847 127.859C10.6847 128.599 10.2101 129.217 9.55879 129.614Z" fill="white"/>
<path d="M63.4722 126.063C61.44 126.063 59.7926 127.71 59.7926 129.742C59.7926 131.774 61.44 133.422 63.4722 133.422C65.5043 133.422 67.1517 131.774 67.1517 129.742C67.1517 127.71 65.5043 126.063 63.4722 126.063ZM63.4722 129.742V129.052H15.1781V129.742V130.432H63.4722V129.742Z" fill="#333333"/>
<defs>
<filter id="filter0_dd_1335_48370" x="21.6174" y="0.498641" width="312.762" height="220.313" filterUnits="userSpaceOnUse" color-interpolation-filters="sRGB">
<feFlood flood-opacity="0" result="BackgroundImageFix"/>
<feColorMatrix in="SourceAlpha" type="matrix" values="0 0 0 0 0 0 0 0 0 0 0 0 0 0 0 0 0 0 127 0" result="hardAlpha"/>
<feOffset/>
<feGaussianBlur stdDeviation="0.57493"/>
<feComposite in2="hardAlpha" operator="out"/>
<feColorMatrix type="matrix" values="0 0 0 0 0 0 0 0 0 0 0 0 0 0 0 0 0 0 0.2 0"/>
<feBlend mode="normal" in2="BackgroundImageFix" result="effect1_dropShadow_1335_48370"/>
<feColorMatrix in="SourceAlpha" type="matrix" values="0 0 0 0 0 0 0 0 0 0 0 0 0 0 0 0 0 0 127 0" result="hardAlpha"/>
<feOffset dy="2.29972"/>
<feGaussianBlur stdDeviation="9.19888"/>
<feComposite in2="hardAlpha" operator="out"/>
<feColorMatrix type="matrix" values="0 0 0 0 0 0 0 0 0 0 0 0 0 0 0 0 0 0 0.08 0"/>
<feBlend mode="normal" in2="effect1_dropShadow_1335_48370" result="effect2_dropShadow_1335_48370"/>
<feBlend mode="normal" in="SourceGraphic" in2="effect2_dropShadow_1335_48370" result="shape"/>
</filter>
<clipPath id="clip0_1335_48370">
<rect width="275.966" height="183.518" fill="white" transform="translate(40.0151 16.5967)"/>
</clipPath>
</defs>
</svg>
