<svg width="524" height="144" viewBox="0 0 524 144" fill="none" xmlns="http://www.w3.org/2000/svg">
<g filter="url(#filter0_dd_311_24212)">
<rect x="13.6592" y="12.5967" width="82.7899" height="82.7899" rx="5.51933" fill="white"/>
</g>
<rect x="25.3779" y="106.425" width="59.3532" height="17.5193" rx="8.75966" fill="#10185C"/>
<path d="M33.7227 114.361C34.0707 113.557 35.0667 113.017 35.8947 113.017V113.905C34.7787 113.905 33.7227 115.069 33.7227 116.041V119.185H32.8587V113.077H33.7227V114.361ZM39.247 118.405C40.327 118.405 41.299 117.529 41.311 116.185C41.299 114.853 40.327 113.965 39.247 113.965C37.915 113.965 37.195 114.925 37.195 116.185C37.195 117.445 37.915 118.405 39.247 118.405ZM36.331 116.185C36.331 114.517 37.375 113.113 39.235 113.113C39.943 113.113 40.735 113.485 41.287 114.373V113.077H42.151V119.185H41.287V117.985C40.711 118.921 39.955 119.269 39.235 119.269C37.375 119.269 36.331 117.841 36.331 116.185ZM46.2858 119.281C44.4258 119.281 43.3698 117.853 43.3698 116.173C43.3698 114.505 44.4258 113.065 46.2858 113.065C47.0658 113.065 47.8818 113.461 48.3858 114.373V110.281H49.2498V119.185H48.3858V117.973C47.8698 118.885 47.0658 119.281 46.2858 119.281ZM44.2338 116.173C44.2338 117.457 44.9658 118.417 46.3218 118.417C47.4258 118.417 48.3858 117.457 48.3858 116.173C48.3858 114.901 47.4258 113.929 46.3218 113.929C44.9658 113.929 44.2338 114.901 44.2338 116.173ZM50.8603 113.077H51.7243V119.185H50.8603V113.077ZM50.7403 110.857C50.7403 110.557 50.9323 110.317 51.2923 110.317C51.6403 110.317 51.8323 110.557 51.8323 110.857C51.8323 111.169 51.6403 111.409 51.2923 111.409C50.9323 111.409 50.7403 111.169 50.7403 110.857ZM54.0861 116.677C54.0861 117.601 54.6621 118.345 55.6701 118.345C56.8101 118.345 57.4821 117.385 57.4821 116.569V113.029H58.3461V119.185H57.4821V118.153C57.0381 118.813 56.5461 119.185 55.6341 119.185C54.2181 119.185 53.2221 118.105 53.2221 116.773V113.077H54.0861V116.677ZM60.3207 117.529C60.5607 118.081 61.1247 118.405 61.8567 118.369C62.9127 118.345 63.3327 117.037 62.2527 116.689C61.8567 116.569 61.1367 116.377 60.5487 115.993C59.6367 115.381 59.6487 114.481 59.9247 113.929C60.2967 113.197 61.2447 112.981 61.7967 113.029C62.3127 113.089 63.0327 113.269 63.4887 113.881L62.7927 114.385C62.5407 114.037 62.1327 113.929 61.7247 113.881C61.3527 113.845 60.8607 113.977 60.6807 114.313C60.5247 114.637 60.5367 114.961 61.0287 115.285C61.4967 115.597 62.0967 115.741 62.5167 115.885C64.5327 116.533 63.8847 119.173 61.8807 119.221C60.8727 119.269 59.9127 118.741 59.5407 117.865L60.3207 117.529ZM65.0256 114.337H70.0896V115.189H65.0256V114.337ZM76.1319 110.521V115.981H77.4159V116.821H76.1319V119.185H75.2679V116.821H71.3559V115.981L75.2919 110.521H76.1319ZM72.4239 115.981H75.2679V112.033L72.4239 115.981Z" fill="white"/>
<path d="M47.0587 139.582C48.4027 139.582 49.3407 138.588 49.3407 137.594C49.3407 136.614 48.4027 135.648 47.0587 135.648C45.7287 135.648 44.7767 136.614 44.7767 137.594C44.7767 138.588 45.7147 139.582 47.0587 139.582ZM43.7687 137.566C43.7687 136.53 44.5107 135.634 45.4067 135.116C44.6787 134.626 44.0347 133.856 44.0347 132.946C44.0347 131.336 45.4767 130.174 47.0587 130.174C48.6407 130.174 50.0967 131.336 50.0967 132.946C50.0967 133.856 49.4527 134.626 48.7247 135.116C49.6067 135.634 50.3487 136.53 50.3487 137.566C50.3487 139.316 48.7947 140.59 47.0587 140.59C45.3227 140.59 43.7687 139.316 43.7687 137.566ZM45.0427 132.918C45.0427 133.772 45.8687 134.626 47.0587 134.626C48.2627 134.626 49.0887 133.772 49.0887 132.918C49.0887 132.05 48.2627 131.182 47.0587 131.182C45.8687 131.182 45.0427 132.05 45.0427 132.918ZM55.3644 139.596C56.9044 139.596 57.7724 138.448 57.7724 136.95C57.7724 135.48 56.9044 134.332 55.3644 134.332C54.0764 134.332 52.9704 135.48 52.9704 136.95C52.9704 138.448 54.0764 139.596 55.3644 139.596ZM51.9484 143.684V133.338H52.9564V134.85C53.4184 133.842 54.5104 133.352 55.3784 133.352C57.5624 133.352 58.7804 135.018 58.7804 136.95C58.7804 138.91 57.5624 140.576 55.3784 140.576C54.4824 140.576 53.4184 139.974 52.9564 139.064V143.684H51.9484ZM65.7958 133.338L63.0938 136.908L65.7958 140.464H64.5218L62.5758 137.818L60.6298 140.464H59.3558L62.0438 136.908L59.3558 133.338H60.6298L62.5758 136.012L64.5218 133.338H65.7958Z" fill="black"/>
<circle cx="90.9773" cy="89.867" r="5.51933" fill="#10185C" fill-opacity="0.14"/>
<circle cx="90.9773" cy="89.867" r="5.17437" stroke="#10185C" stroke-opacity="0.8" stroke-width="0.689916" stroke-dasharray="4.14 1.38"/>
<g filter="url(#filter1_dd_311_24212)">
<rect x="151.643" y="12.5967" width="82.7899" height="82.7899" rx="13.7983" fill="white"/>
</g>
<rect x="163.361" y="106.425" width="59.3532" height="17.5193" rx="8.75966" fill="#10185C"/>
<path d="M171.706 114.361C172.054 113.557 173.05 113.017 173.878 113.017V113.905C172.762 113.905 171.706 115.069 171.706 116.041V119.185H170.842V113.077H171.706V114.361ZM177.23 118.405C178.31 118.405 179.282 117.529 179.294 116.185C179.282 114.853 178.31 113.965 177.23 113.965C175.898 113.965 175.178 114.925 175.178 116.185C175.178 117.445 175.898 118.405 177.23 118.405ZM174.314 116.185C174.314 114.517 175.358 113.113 177.218 113.113C177.926 113.113 178.718 113.485 179.27 114.373V113.077H180.134V119.185H179.27V117.985C178.694 118.921 177.938 119.269 177.218 119.269C175.358 119.269 174.314 117.841 174.314 116.185ZM184.269 119.281C182.409 119.281 181.353 117.853 181.353 116.173C181.353 114.505 182.409 113.065 184.269 113.065C185.049 113.065 185.865 113.461 186.369 114.373V110.281H187.233V119.185H186.369V117.973C185.853 118.885 185.049 119.281 184.269 119.281ZM182.217 116.173C182.217 117.457 182.949 118.417 184.305 118.417C185.409 118.417 186.369 117.457 186.369 116.173C186.369 114.901 185.409 113.929 184.305 113.929C182.949 113.929 182.217 114.901 182.217 116.173ZM188.844 113.077H189.708V119.185H188.844V113.077ZM188.724 110.857C188.724 110.557 188.916 110.317 189.276 110.317C189.624 110.317 189.816 110.557 189.816 110.857C189.816 111.169 189.624 111.409 189.276 111.409C188.916 111.409 188.724 111.169 188.724 110.857ZM192.07 116.677C192.07 117.601 192.646 118.345 193.654 118.345C194.794 118.345 195.466 117.385 195.466 116.569V113.029H196.33V119.185H195.466V118.153C195.022 118.813 194.53 119.185 193.618 119.185C192.202 119.185 191.206 118.105 191.206 116.773V113.077H192.07V116.677ZM198.304 117.529C198.544 118.081 199.108 118.405 199.84 118.369C200.896 118.345 201.316 117.037 200.236 116.689C199.84 116.569 199.12 116.377 198.532 115.993C197.62 115.381 197.632 114.481 197.908 113.929C198.28 113.197 199.228 112.981 199.78 113.029C200.296 113.089 201.016 113.269 201.472 113.881L200.776 114.385C200.524 114.037 200.116 113.929 199.708 113.881C199.336 113.845 198.844 113.977 198.664 114.313C198.508 114.637 198.52 114.961 199.012 115.285C199.48 115.597 200.08 115.741 200.5 115.885C202.516 116.533 201.868 119.173 199.864 119.221C198.856 119.269 197.896 118.741 197.524 117.865L198.304 117.529ZM203.009 114.337H208.073V115.189H203.009V114.337ZM212.171 118.417C213.323 118.417 214.187 117.577 214.187 116.437C214.187 115.297 213.323 114.445 212.171 114.445C211.031 114.445 210.203 115.297 210.203 116.437C210.203 117.577 211.031 118.417 212.171 118.417ZM209.339 116.437C209.339 115.921 209.483 115.429 209.723 115.009L212.291 110.521H213.287L211.475 113.677C211.703 113.617 211.943 113.581 212.195 113.581C213.767 113.581 215.051 114.865 215.051 116.437C215.051 117.997 213.767 119.281 212.195 119.281C210.635 119.281 209.339 117.997 209.339 116.437Z" fill="white"/>
<path d="M182.15 130.37V140.464H181.142V131.588L179.714 132.54L179.154 131.7L181.142 130.37H182.15ZM187.323 139.568C188.667 139.568 189.675 138.588 189.675 137.258C189.675 135.928 188.667 134.934 187.323 134.934C185.993 134.934 185.027 135.928 185.027 137.258C185.027 138.588 185.993 139.568 187.323 139.568ZM184.019 137.258C184.019 136.656 184.187 136.082 184.467 135.592L187.463 130.356H188.625L186.511 134.038C186.777 133.968 187.057 133.926 187.351 133.926C189.185 133.926 190.683 135.424 190.683 137.258C190.683 139.078 189.185 140.576 187.351 140.576C185.531 140.576 184.019 139.078 184.019 137.258ZM195.71 139.596C197.25 139.596 198.118 138.448 198.118 136.95C198.118 135.48 197.25 134.332 195.71 134.332C194.422 134.332 193.316 135.48 193.316 136.95C193.316 138.448 194.422 139.596 195.71 139.596ZM192.294 143.684V133.338H193.302V134.85C193.764 133.842 194.856 133.352 195.724 133.352C197.908 133.352 199.126 135.018 199.126 136.95C199.126 138.91 197.908 140.576 195.724 140.576C194.828 140.576 193.764 139.974 193.302 139.064V143.684H192.294ZM206.141 133.338L203.439 136.908L206.141 140.464H204.867L202.921 137.818L200.975 140.464H199.701L202.389 136.908L199.701 133.338H200.975L202.921 136.012L204.867 133.338H206.141Z" fill="black"/>
<circle cx="220.679" cy="81.5884" r="13.7983" fill="#10185C" fill-opacity="0.14"/>
<circle cx="220.679" cy="81.5884" r="13.4534" stroke="#10185C" stroke-opacity="0.8" stroke-width="0.689916" stroke-dasharray="4.14 1.38"/>
<g filter="url(#filter2_dd_311_24212)">
<rect x="289.626" y="12.5967" width="82.7899" height="82.7899" rx="22.0773" fill="white"/>
</g>
<rect x="301.345" y="106.425" width="59.3532" height="17.5193" rx="8.75966" fill="#10185C"/>
<path d="M309.689 114.361C310.037 113.557 311.033 113.017 311.861 113.017V113.905C310.745 113.905 309.689 115.069 309.689 116.041V119.185H308.825V113.077H309.689V114.361ZM315.214 118.405C316.294 118.405 317.266 117.529 317.278 116.185C317.266 114.853 316.294 113.965 315.214 113.965C313.882 113.965 313.162 114.925 313.162 116.185C313.162 117.445 313.882 118.405 315.214 118.405ZM312.298 116.185C312.298 114.517 313.342 113.113 315.202 113.113C315.91 113.113 316.702 113.485 317.254 114.373V113.077H318.118V119.185H317.254V117.985C316.678 118.921 315.922 119.269 315.202 119.269C313.342 119.269 312.298 117.841 312.298 116.185ZM322.253 119.281C320.393 119.281 319.337 117.853 319.337 116.173C319.337 114.505 320.393 113.065 322.253 113.065C323.033 113.065 323.849 113.461 324.353 114.373V110.281H325.217V119.185H324.353V117.973C323.837 118.885 323.033 119.281 322.253 119.281ZM320.201 116.173C320.201 117.457 320.933 118.417 322.289 118.417C323.393 118.417 324.353 117.457 324.353 116.173C324.353 114.901 323.393 113.929 322.289 113.929C320.933 113.929 320.201 114.901 320.201 116.173ZM326.827 113.077H327.691V119.185H326.827V113.077ZM326.707 110.857C326.707 110.557 326.899 110.317 327.259 110.317C327.607 110.317 327.799 110.557 327.799 110.857C327.799 111.169 327.607 111.409 327.259 111.409C326.899 111.409 326.707 111.169 326.707 110.857ZM330.053 116.677C330.053 117.601 330.629 118.345 331.637 118.345C332.777 118.345 333.449 117.385 333.449 116.569V113.029H334.313V119.185H333.449V118.153C333.005 118.813 332.513 119.185 331.601 119.185C330.185 119.185 329.189 118.105 329.189 116.773V113.077H330.053V116.677ZM336.287 117.529C336.527 118.081 337.091 118.405 337.823 118.369C338.879 118.345 339.299 117.037 338.219 116.689C337.823 116.569 337.103 116.377 336.515 115.993C335.603 115.381 335.615 114.481 335.891 113.929C336.263 113.197 337.211 112.981 337.763 113.029C338.279 113.089 338.999 113.269 339.455 113.881L338.759 114.385C338.507 114.037 338.099 113.929 337.691 113.881C337.319 113.845 336.827 113.977 336.647 114.313C336.491 114.637 336.503 114.961 336.995 115.285C337.463 115.597 338.063 115.741 338.483 115.885C340.499 116.533 339.851 119.173 337.847 119.221C336.839 119.269 335.879 118.741 335.507 117.865L336.287 117.529ZM340.992 114.337H346.056V115.189H340.992V114.337ZM349.135 119.173H348.199L351.691 111.385H347.479V110.521H352.627V111.385L349.135 119.173Z" fill="white"/>
<path d="M320.807 130.356V136.726H322.305V137.706H320.807V140.464H319.799V137.706H315.235V136.726L319.827 130.356H320.807ZM316.481 136.726H319.799V132.12L316.481 136.726ZM327.113 139.554C328.709 139.554 329.689 138.224 329.689 135.41C329.689 132.596 328.709 131.28 327.113 131.28C325.503 131.28 324.523 132.596 324.523 135.41C324.523 138.224 325.503 139.554 327.113 139.554ZM323.515 135.41C323.515 132.176 324.943 130.272 327.113 130.272C329.269 130.272 330.697 132.176 330.697 135.41C330.697 138.644 329.283 140.562 327.113 140.562C324.929 140.562 323.515 138.644 323.515 135.41ZM335.713 139.596C337.253 139.596 338.121 138.448 338.121 136.95C338.121 135.48 337.253 134.332 335.713 134.332C334.425 134.332 333.319 135.48 333.319 136.95C333.319 138.448 334.425 139.596 335.713 139.596ZM332.297 143.684V133.338H333.305V134.85C333.767 133.842 334.859 133.352 335.727 133.352C337.911 133.352 339.129 135.018 339.129 136.95C339.129 138.91 337.911 140.576 335.727 140.576C334.831 140.576 333.767 139.974 333.305 139.064V143.684H332.297ZM346.144 133.338L343.442 136.908L346.144 140.464H344.87L342.924 137.818L340.978 140.464H339.704L342.392 136.908L339.704 133.338H340.978L342.924 136.012L344.87 133.338H346.144Z" fill="black"/>
<circle cx="350.385" cy="73.3088" r="22.0773" fill="#10185C" fill-opacity="0.14"/>
<circle cx="350.385" cy="73.3088" r="21.7324" stroke="#10185C" stroke-opacity="0.8" stroke-width="0.689916" stroke-dasharray="4.14 1.38"/>
<g filter="url(#filter3_dd_311_24212)">
<rect x="427.608" y="12.5967" width="82.7899" height="82.7899" rx="41.395" fill="white"/>
</g>
<rect x="429.327" y="106.425" width="79.3532" height="17.5193" rx="8.75966" fill="#10185C"/>
<path d="M437.672 114.361C438.02 113.557 439.016 113.017 439.844 113.017V113.905C438.728 113.905 437.672 115.069 437.672 116.041V119.185H436.808V113.077H437.672V114.361ZM443.196 118.405C444.276 118.405 445.248 117.529 445.26 116.185C445.248 114.853 444.276 113.965 443.196 113.965C441.864 113.965 441.144 114.925 441.144 116.185C441.144 117.445 441.864 118.405 443.196 118.405ZM440.28 116.185C440.28 114.517 441.324 113.113 443.184 113.113C443.892 113.113 444.684 113.485 445.236 114.373V113.077H446.1V119.185H445.236V117.985C444.66 118.921 443.904 119.269 443.184 119.269C441.324 119.269 440.28 117.841 440.28 116.185ZM450.235 119.281C448.375 119.281 447.319 117.853 447.319 116.173C447.319 114.505 448.375 113.065 450.235 113.065C451.015 113.065 451.831 113.461 452.335 114.373V110.281H453.199V119.185H452.335V117.973C451.819 118.885 451.015 119.281 450.235 119.281ZM448.183 116.173C448.183 117.457 448.915 118.417 450.271 118.417C451.375 118.417 452.335 117.457 452.335 116.173C452.335 114.901 451.375 113.929 450.271 113.929C448.915 113.929 448.183 114.901 448.183 116.173ZM454.809 113.077H455.673V119.185H454.809V113.077ZM454.689 110.857C454.689 110.557 454.881 110.317 455.241 110.317C455.589 110.317 455.781 110.557 455.781 110.857C455.781 111.169 455.589 111.409 455.241 111.409C454.881 111.409 454.689 111.169 454.689 110.857ZM458.035 116.677C458.035 117.601 458.611 118.345 459.619 118.345C460.759 118.345 461.431 117.385 461.431 116.569V113.029H462.295V119.185H461.431V118.153C460.987 118.813 460.495 119.185 459.583 119.185C458.167 119.185 457.171 118.105 457.171 116.773V113.077H458.035V116.677ZM464.27 117.529C464.51 118.081 465.074 118.405 465.806 118.369C466.862 118.345 467.282 117.037 466.202 116.689C465.806 116.569 465.086 116.377 464.498 115.993C463.586 115.381 463.598 114.481 463.874 113.929C464.246 113.197 465.194 112.981 465.746 113.029C466.262 113.089 466.982 113.269 467.438 113.881L466.742 114.385C466.49 114.037 466.082 113.929 465.674 113.881C465.302 113.845 464.81 113.977 464.63 114.313C464.474 114.637 464.486 114.961 464.978 115.285C465.446 115.597 466.046 115.741 466.466 115.885C468.482 116.533 467.834 119.173 465.83 119.221C464.822 119.269 463.862 118.741 463.49 117.865L464.27 117.529ZM468.975 114.337H474.039V115.189H468.975V114.337ZM478.137 118.381C478.761 118.381 479.337 118.141 479.745 117.733L480.393 118.309C479.817 118.885 479.049 119.245 478.185 119.245C476.217 119.245 475.077 117.793 475.077 116.029C475.077 114.277 476.217 112.825 478.185 112.825C479.049 112.825 479.817 113.185 480.393 113.761L479.745 114.337C479.337 113.929 478.761 113.689 478.137 113.689C476.721 113.689 475.941 114.733 475.941 116.029C475.941 117.337 476.721 118.381 478.137 118.381ZM481.343 113.077H482.207V119.185H481.343V113.077ZM481.223 110.857C481.223 110.557 481.415 110.317 481.775 110.317C482.123 110.317 482.315 110.557 482.315 110.857C482.315 111.169 482.123 111.409 481.775 111.409C481.415 111.409 481.223 111.169 481.223 110.857ZM484.509 114.361C484.857 113.557 485.853 113.017 486.681 113.017V113.905C485.565 113.905 484.509 115.069 484.509 116.041V119.185H483.645V113.077H484.509V114.361ZM489.925 118.381C490.549 118.381 491.125 118.141 491.533 117.733L492.181 118.309C491.605 118.885 490.837 119.245 489.973 119.245C488.005 119.245 486.865 117.793 486.865 116.029C486.865 114.277 488.005 112.825 489.973 112.825C490.837 112.825 491.605 113.185 492.181 113.761L491.533 114.337C491.125 113.929 490.549 113.689 489.925 113.689C488.509 113.689 487.729 114.733 487.729 116.029C487.729 117.337 488.509 118.381 489.925 118.381ZM492.987 110.281H493.851V119.185H492.987V110.281ZM499.571 115.705C499.475 114.841 499.055 113.917 497.759 113.917C496.619 113.917 495.887 114.529 495.731 115.717L499.571 115.705ZM494.843 116.137C494.843 114.457 495.851 113.053 497.723 113.053C499.667 113.053 500.159 114.565 500.219 114.709C500.579 115.693 500.435 116.557 500.435 116.557H495.731C495.887 117.685 496.619 118.357 497.735 118.357C499.115 118.357 499.451 117.601 499.535 117.481L500.279 117.877C500.279 117.877 499.775 119.221 497.723 119.221C495.851 119.221 494.843 117.805 494.843 116.137Z" fill="white"/>
<path d="M453.05 136.922C451.216 136.922 449.718 135.41 449.718 133.562C449.718 131.728 451.216 130.23 453.05 130.23C454.884 130.23 456.382 131.728 456.382 133.562C456.382 134.234 456.186 134.85 455.85 135.382L452.938 140.464H451.762L453.862 136.824C453.61 136.88 453.33 136.922 453.05 136.922ZM450.726 133.562C450.726 134.906 451.734 135.914 453.078 135.914C454.408 135.914 455.374 134.906 455.374 133.562C455.374 132.232 454.408 131.238 453.078 131.238C451.734 131.238 450.726 132.232 450.726 133.562ZM460.947 136.922C459.113 136.922 457.615 135.41 457.615 133.562C457.615 131.728 459.113 130.23 460.947 130.23C462.781 130.23 464.279 131.728 464.279 133.562C464.279 134.234 464.083 134.85 463.747 135.382L460.835 140.464H459.659L461.759 136.824C461.507 136.88 461.227 136.922 460.947 136.922ZM458.623 133.562C458.623 134.906 459.631 135.914 460.975 135.914C462.305 135.914 463.271 134.906 463.271 133.562C463.271 132.232 462.305 131.238 460.975 131.238C459.631 131.238 458.623 132.232 458.623 133.562ZM468.845 136.922C467.011 136.922 465.513 135.41 465.513 133.562C465.513 131.728 467.011 130.23 468.845 130.23C470.679 130.23 472.177 131.728 472.177 133.562C472.177 134.234 471.981 134.85 471.645 135.382L468.733 140.464H467.557L469.657 136.824C469.405 136.88 469.125 136.922 468.845 136.922ZM466.521 133.562C466.521 134.906 467.529 135.914 468.873 135.914C470.203 135.914 471.169 134.906 471.169 133.562C471.169 132.232 470.203 131.238 468.873 131.238C467.529 131.238 466.521 132.232 466.521 133.562ZM477.204 139.596C478.744 139.596 479.612 138.448 479.612 136.95C479.612 135.48 478.744 134.332 477.204 134.332C475.916 134.332 474.81 135.48 474.81 136.95C474.81 138.448 475.916 139.596 477.204 139.596ZM473.788 143.684V133.338H474.796V134.85C475.258 133.842 476.35 133.352 477.218 133.352C479.402 133.352 480.62 135.018 480.62 136.95C480.62 138.91 479.402 140.576 477.218 140.576C476.322 140.576 475.258 139.974 474.796 139.064V143.684H473.788ZM487.636 133.338L484.934 136.908L487.636 140.464H486.362L484.416 137.818L482.47 140.464H481.196L483.884 136.908L481.196 133.338H482.47L484.416 136.012L486.362 133.338H487.636Z" fill="black"/>
<defs>
<filter id="filter0_dd_311_24212" x="0.305967" y="0.912619" width="109.496" height="109.496" filterUnits="userSpaceOnUse" color-interpolation-filters="sRGB">
<feFlood flood-opacity="0" result="BackgroundImageFix"/>
<feColorMatrix in="SourceAlpha" type="matrix" values="0 0 0 0 0 0 0 0 0 0 0 0 0 0 0 0 0 0 127 0" result="hardAlpha"/>
<feOffset/>
<feGaussianBlur stdDeviation="0.417288"/>
<feComposite in2="hardAlpha" operator="out"/>
<feColorMatrix type="matrix" values="0 0 0 0 0 0 0 0 0 0 0 0 0 0 0 0 0 0 0.2 0"/>
<feBlend mode="normal" in2="BackgroundImageFix" result="effect1_dropShadow_311_24212"/>
<feColorMatrix in="SourceAlpha" type="matrix" values="0 0 0 0 0 0 0 0 0 0 0 0 0 0 0 0 0 0 127 0" result="hardAlpha"/>
<feOffset dy="1.66915"/>
<feGaussianBlur stdDeviation="6.67661"/>
<feComposite in2="hardAlpha" operator="out"/>
<feColorMatrix type="matrix" values="0 0 0 0 0 0 0 0 0 0 0 0 0 0 0 0 0 0 0.08 0"/>
<feBlend mode="normal" in2="effect1_dropShadow_311_24212" result="effect2_dropShadow_311_24212"/>
<feBlend mode="normal" in="SourceGraphic" in2="effect2_dropShadow_311_24212" result="shape"/>
</filter>
<filter id="filter1_dd_311_24212" x="138.289" y="0.912619" width="109.496" height="109.496" filterUnits="userSpaceOnUse" color-interpolation-filters="sRGB">
<feFlood flood-opacity="0" result="BackgroundImageFix"/>
<feColorMatrix in="SourceAlpha" type="matrix" values="0 0 0 0 0 0 0 0 0 0 0 0 0 0 0 0 0 0 127 0" result="hardAlpha"/>
<feOffset/>
<feGaussianBlur stdDeviation="0.417288"/>
<feComposite in2="hardAlpha" operator="out"/>
<feColorMatrix type="matrix" values="0 0 0 0 0 0 0 0 0 0 0 0 0 0 0 0 0 0 0.2 0"/>
<feBlend mode="normal" in2="BackgroundImageFix" result="effect1_dropShadow_311_24212"/>
<feColorMatrix in="SourceAlpha" type="matrix" values="0 0 0 0 0 0 0 0 0 0 0 0 0 0 0 0 0 0 127 0" result="hardAlpha"/>
<feOffset dy="1.66915"/>
<feGaussianBlur stdDeviation="6.67661"/>
<feComposite in2="hardAlpha" operator="out"/>
<feColorMatrix type="matrix" values="0 0 0 0 0 0 0 0 0 0 0 0 0 0 0 0 0 0 0.08 0"/>
<feBlend mode="normal" in2="effect1_dropShadow_311_24212" result="effect2_dropShadow_311_24212"/>
<feBlend mode="normal" in="SourceGraphic" in2="effect2_dropShadow_311_24212" result="shape"/>
</filter>
<filter id="filter2_dd_311_24212" x="276.273" y="0.912619" width="109.496" height="109.496" filterUnits="userSpaceOnUse" color-interpolation-filters="sRGB">
<feFlood flood-opacity="0" result="BackgroundImageFix"/>
<feColorMatrix in="SourceAlpha" type="matrix" values="0 0 0 0 0 0 0 0 0 0 0 0 0 0 0 0 0 0 127 0" result="hardAlpha"/>
<feOffset/>
<feGaussianBlur stdDeviation="0.417288"/>
<feComposite in2="hardAlpha" operator="out"/>
<feColorMatrix type="matrix" values="0 0 0 0 0 0 0 0 0 0 0 0 0 0 0 0 0 0 0.2 0"/>
<feBlend mode="normal" in2="BackgroundImageFix" result="effect1_dropShadow_311_24212"/>
<feColorMatrix in="SourceAlpha" type="matrix" values="0 0 0 0 0 0 0 0 0 0 0 0 0 0 0 0 0 0 127 0" result="hardAlpha"/>
<feOffset dy="1.66915"/>
<feGaussianBlur stdDeviation="6.67661"/>
<feComposite in2="hardAlpha" operator="out"/>
<feColorMatrix type="matrix" values="0 0 0 0 0 0 0 0 0 0 0 0 0 0 0 0 0 0 0.08 0"/>
<feBlend mode="normal" in2="effect1_dropShadow_311_24212" result="effect2_dropShadow_311_24212"/>
<feBlend mode="normal" in="SourceGraphic" in2="effect2_dropShadow_311_24212" result="shape"/>
</filter>
<filter id="filter3_dd_311_24212" x="414.255" y="0.912619" width="109.496" height="109.496" filterUnits="userSpaceOnUse" color-interpolation-filters="sRGB">
<feFlood flood-opacity="0" result="BackgroundImageFix"/>
<feColorMatrix in="SourceAlpha" type="matrix" values="0 0 0 0 0 0 0 0 0 0 0 0 0 0 0 0 0 0 127 0" result="hardAlpha"/>
<feOffset/>
<feGaussianBlur stdDeviation="0.417288"/>
<feComposite in2="hardAlpha" operator="out"/>
<feColorMatrix type="matrix" values="0 0 0 0 0 0 0 0 0 0 0 0 0 0 0 0 0 0 0.2 0"/>
<feBlend mode="normal" in2="BackgroundImageFix" result="effect1_dropShadow_311_24212"/>
<feColorMatrix in="SourceAlpha" type="matrix" values="0 0 0 0 0 0 0 0 0 0 0 0 0 0 0 0 0 0 127 0" result="hardAlpha"/>
<feOffset dy="1.66915"/>
<feGaussianBlur stdDeviation="6.67661"/>
<feComposite in2="hardAlpha" operator="out"/>
<feColorMatrix type="matrix" values="0 0 0 0 0 0 0 0 0 0 0 0 0 0 0 0 0 0 0.08 0"/>
<feBlend mode="normal" in2="effect1_dropShadow_311_24212" result="effect2_dropShadow_311_24212"/>
<feBlend mode="normal" in="SourceGraphic" in2="effect2_dropShadow_311_24212" result="shape"/>
</filter>
</defs>
</svg>
