<svg width="572" height="98" viewBox="0 0 572 98" fill="none" xmlns="http://www.w3.org/2000/svg">
<rect x="1.31008" y="1.31008" width="34.3794" height="34.3798" stroke="#1477F8" stroke-width="1.37983"/>
<path d="M18.5 5.08936C25.9057 5.08962 31.9091 11.0937 31.9092 18.4995C31.9092 25.9054 25.9058 31.9094 18.5 31.9097C11.094 31.9097 5.08984 25.9056 5.08984 18.4995C5.08993 11.0935 11.0941 5.08936 18.5 5.08936ZM18.5 7.15967C12.2372 7.15967 7.16024 12.2366 7.16016 18.4995C7.16016 24.7625 12.2371 29.8394 18.5 29.8394C24.7627 29.8391 29.8398 24.7623 29.8398 18.4995C29.8398 12.2368 24.7626 7.15993 18.5 7.15967ZM18.626 19.7173C18.6387 19.7192 18.6515 19.7207 18.6641 19.7231C18.6677 19.7238 18.6721 19.7234 18.6758 19.7241C18.7155 19.7323 18.7538 19.7441 18.791 19.7573C18.7969 19.7594 18.8027 19.7619 18.8086 19.7642C18.9028 19.7999 18.9886 19.8495 19.0625 19.9126C19.0677 19.9171 19.072 19.9227 19.0771 19.9272C19.1615 20.0028 19.2301 20.0935 19.2793 20.1948C19.2974 20.2322 19.3144 20.2714 19.3271 20.312L19.3496 20.3979C19.4411 20.8415 19.6403 21.121 19.8926 21.3179C20.1629 21.5285 20.54 21.6788 21.0137 21.7671C21.7394 21.9023 22.5514 21.8712 23.2646 21.811L23.9385 21.7466C24.4144 21.6982 24.8401 22.045 24.8887 22.521C24.9335 22.9666 24.6316 23.368 24.2021 23.4565L24.1143 23.4702C23.3303 23.5501 21.953 23.7053 20.6963 23.4712C20.0581 23.3522 19.3891 23.1231 18.8271 22.6851C18.711 22.5945 18.6027 22.494 18.5 22.3882C18.3976 22.4937 18.2906 22.5948 18.1748 22.6851C17.6128 23.1231 16.9439 23.3522 16.3057 23.4712C15.049 23.7053 13.6716 23.5501 12.8877 23.4702C12.4122 23.4216 12.0655 22.9964 12.1133 22.521C12.1618 22.045 12.5875 21.6982 13.0635 21.7466C13.9001 21.8319 15.0206 21.9474 15.9883 21.7671C16.462 21.6788 16.839 21.5285 17.1094 21.3179C17.3617 21.121 17.5609 20.8415 17.6523 20.3979C17.6545 20.3877 17.6577 20.3768 17.6602 20.3667C17.6637 20.3522 17.6666 20.337 17.6709 20.3228C17.7147 20.1765 17.7943 20.0481 17.8984 19.9478C17.9036 19.9427 17.9097 19.938 17.915 19.9331C17.9458 19.905 17.9793 19.8793 18.0137 19.856C18.0229 19.8497 18.0325 19.8433 18.042 19.8374C18.0799 19.8137 18.1199 19.7925 18.1611 19.7749C18.1873 19.7638 18.2146 19.7542 18.2422 19.7456C18.3098 19.7244 18.3808 19.7125 18.4531 19.7085C18.4664 19.7077 18.4799 19.7067 18.4932 19.7065C18.5371 19.7062 18.5813 19.7107 18.626 19.7173ZM14.3555 15.7368C15.1183 15.7369 15.7363 16.3558 15.7363 17.1187C15.7361 17.8813 15.1182 18.4994 14.3555 18.4995C13.5929 18.4992 12.9739 17.8812 12.9736 17.1187C12.9736 16.3559 13.5928 15.7371 14.3555 15.7368ZM22.6436 15.7368C23.4065 15.7368 24.0254 16.3557 24.0254 17.1187C24.0251 17.8813 23.4063 18.4995 22.6436 18.4995C21.8811 18.4991 21.263 17.8811 21.2627 17.1187C21.2627 16.356 21.881 15.7372 22.6436 15.7368Z" fill="#333333"/>
<rect x="2" y="2" width="33" height="3" fill="#007D00" fill-opacity="0.3"/>
<rect x="2" y="32" width="33" height="3" fill="#007D00" fill-opacity="0.3"/>
<rect x="2" y="35" width="33" height="3" transform="rotate(-90 2 35)" fill="#007D00" fill-opacity="0.3"/>
<rect x="32" y="35" width="33" height="3" transform="rotate(-90 32 35)" fill="#007D00" fill-opacity="0.3"/>
<rect x="67.8911" y="1.31008" width="34.3798" height="34.3798" stroke="#1477F8" stroke-width="1.37983"/>
<path d="M84.9961 5.67969C92.0295 5.67969 97.7314 11.3817 97.7314 18.415C97.7314 25.4484 92.0295 31.1504 84.9961 31.1504C82.9006 31.1504 80.9204 30.6437 79.1748 29.7451L78.8291 29.5596C78.7918 29.5389 78.7578 29.53 78.7295 29.5273L78.6631 29.5342L75.7119 30.5771C73.779 31.2599 71.9169 29.3977 72.5996 27.4648L73.6855 24.3906L73.6924 24.3271C73.6913 24.3135 73.6892 24.2984 73.6846 24.2822L73.6641 24.2305C72.7672 22.486 72.2607 20.5081 72.2607 18.415C72.2608 11.3817 77.9627 5.6797 84.9961 5.67969ZM84.9961 7.75C79.1058 7.75002 74.3311 12.5248 74.3311 18.415C74.3311 20.1714 74.755 21.8256 75.5049 23.2842L75.5977 23.4893C75.7652 23.9096 75.8142 24.3843 75.7051 24.8496L75.6377 25.0801L74.5518 28.1543C74.4484 28.4469 74.7299 28.7284 75.0225 28.625L77.9736 27.582L78.2148 27.5127C78.779 27.3832 79.3558 27.4854 79.833 27.75L80.1221 27.9043C81.582 28.6558 83.2381 29.0801 84.9961 29.0801C90.8864 29.0801 95.6611 24.3053 95.6611 18.415C95.6611 12.5248 90.8864 7.75001 84.9961 7.75ZM85.3018 14.7266C86.5136 13.4494 88.4786 13.4494 89.6904 14.7266C90.9021 16.0037 90.9022 18.0745 89.6904 19.3516L86.334 22.8887C85.6811 23.5764 84.5845 23.5766 83.9316 22.8887L80.5762 19.3516C79.3643 18.0744 79.3643 16.0037 80.5762 14.7266C81.788 13.4494 83.752 13.4494 84.9639 14.7266C85.0555 14.8232 85.21 14.823 85.3018 14.7266Z" fill="#333333"/>
<rect x="68.3486" y="2" width="33" height="3" fill="#007D00" fill-opacity="0.3"/>
<rect x="68.2324" y="32" width="33" height="3" fill="#007D00" fill-opacity="0.3"/>
<rect x="68.1162" y="35" width="33" height="3" transform="rotate(-90 68.1162 35)" fill="#007D00" fill-opacity="0.3"/>
<rect x="99" y="35" width="33" height="3" transform="rotate(-90 99 35)" fill="#007D00" fill-opacity="0.3"/>
<rect x="134.89" y="1.31008" width="34.3794" height="34.3798" stroke="#1477F8" stroke-width="1.37983"/>
<path d="M143.948 9.32229C144.272 9.32051 144.592 9.38352 144.89 9.50784C145.188 9.63228 145.459 9.81591 145.685 10.0469L148.015 12.3682C148.245 12.5975 148.427 12.87 148.552 13.1699C148.677 13.4701 148.74 13.7922 148.74 14.1172C148.74 14.4422 148.677 14.7643 148.552 15.0645C148.427 15.3645 148.245 15.6369 148.015 15.8662L146.821 17.0606C147.673 18.4044 148.673 19.649 149.801 20.7725C150.924 21.9 152.169 22.9 153.513 23.753L154.707 22.5586C154.937 22.3286 155.209 22.1461 155.509 22.0215C155.809 21.8969 156.131 21.833 156.456 21.833C156.781 21.833 157.103 21.8969 157.404 22.0215C157.703 22.1461 157.976 22.3286 158.205 22.5586L160.527 24.8887C160.758 25.1149 160.941 25.3852 161.066 25.6836C161.19 25.9819 161.253 26.3028 161.251 26.626C161.252 26.9514 161.188 27.2735 161.064 27.5742C160.939 27.8752 160.757 28.1489 160.527 28.3789L159.415 29.4981C158.93 29.9533 158.36 30.3073 157.737 30.5391C157.113 30.7709 156.45 30.8765 155.785 30.8487C155.555 30.861 155.324 30.861 155.094 30.8487C152.007 30.5523 148.253 28.5353 145.133 25.4073C142.013 22.2792 139.988 18.5664 139.725 15.4795C139.613 14.7043 139.676 13.9137 139.909 13.166C140.143 12.4182 140.542 11.7319 141.075 11.1582L142.195 10.0469C142.425 9.81655 142.698 9.63411 142.999 9.50979C143.3 9.38547 143.623 9.32149 143.948 9.32229ZM152.072 6.15335C153.693 6.15009 155.3 6.46768 156.797 7.08792C158.294 7.7081 159.654 8.61846 160.798 9.76663C161.96 10.9213 162.88 12.297 163.502 13.8125C164.124 15.328 164.436 16.9528 164.42 18.5908C164.42 18.8092 164.333 19.0195 164.179 19.1739C164.025 19.328 163.815 19.4141 163.597 19.4141C163.379 19.414 163.169 19.3281 163.015 19.1739C162.86 19.0195 162.774 18.8092 162.774 18.5908C162.786 17.1781 162.518 15.7765 161.986 14.4678C161.453 13.1592 160.667 11.969 159.672 10.9658C158.677 9.96252 157.493 9.16554 156.189 8.6221C154.885 8.07877 153.485 7.79978 152.072 7.79983C151.854 7.79974 151.645 7.7129 151.49 7.55862C151.336 7.40433 151.249 7.19477 151.249 6.97659C151.249 6.75844 151.336 6.5489 151.49 6.39456C151.645 6.24026 151.854 6.15344 152.072 6.15335ZM152.633 11.3555C153.505 11.3555 154.368 11.5282 155.172 11.8643C155.976 12.2004 156.706 12.6932 157.319 13.3135C157.931 13.9337 158.414 14.6692 158.74 15.4776C159.067 16.2861 159.229 17.1517 159.218 18.0235C159.218 18.2418 159.131 18.4511 158.977 18.6055C158.822 18.7598 158.613 18.8467 158.395 18.8467C158.176 18.8467 157.967 18.7598 157.813 18.6055C157.658 18.4511 157.572 18.2418 157.571 18.0235C157.577 17.3649 157.452 16.7118 157.201 16.1026C156.951 15.4933 156.582 14.94 156.114 14.4756C155.659 14.0135 155.118 13.6454 154.521 13.3926C153.923 13.1398 153.282 13.0069 152.633 13.002C152.415 13.002 152.205 12.9151 152.051 12.7608C151.897 12.6064 151.81 12.3971 151.81 12.1787C151.81 11.9605 151.897 11.7511 152.051 11.5967C152.205 11.4425 152.415 11.3555 152.633 11.3555Z" fill="#333333"/>
<rect x="135.349" y="2" width="33" height="3" fill="#007D00" fill-opacity="0.3"/>
<rect x="135.232" y="32" width="33" height="3" fill="#007D00" fill-opacity="0.3"/>
<rect x="135.116" y="35" width="33" height="3" transform="rotate(-90 135.116 35)" fill="#007D00" fill-opacity="0.3"/>
<rect x="166" y="35" width="33" height="3" transform="rotate(-90 166 35)" fill="#007D00" fill-opacity="0.3"/>
<rect x="201.888" y="1.31008" width="34.3798" height="34.3798" stroke="#1477F8" stroke-width="1.37983"/>
<path fill-rule="evenodd" clip-rule="evenodd" d="M219.176 4.75C216.886 4.75 214.69 5.65977 213.07 7.27918C211.451 8.89858 210.541 11.095 210.541 13.3851C210.541 17.7212 209.613 20.4385 208.739 22.0406C208.301 22.844 207.871 23.3769 207.566 23.6992C207.413 23.8604 207.291 23.9697 207.213 24.0341C207.175 24.0664 207.147 24.0875 207.133 24.0982L207.122 24.1061C206.776 24.3421 206.623 24.7754 206.744 25.1767C206.867 25.5814 207.24 25.8582 207.663 25.8582H230.69C231.113 25.8582 231.485 25.5814 231.608 25.1767C231.73 24.7754 231.576 24.3421 231.231 24.1061L231.22 24.0982C231.205 24.0875 231.178 24.0664 231.139 24.0341C231.062 23.9697 230.939 23.8604 230.787 23.6992C230.481 23.3769 230.051 22.844 229.613 22.0406C228.739 20.4385 227.811 17.7212 227.811 13.3851C227.811 11.095 226.902 8.89858 225.282 7.27918C223.663 5.65977 221.466 4.75 219.176 4.75ZM227.928 22.9594C228.129 23.3279 228.332 23.6534 228.528 23.9392H209.824C210.021 23.6534 210.223 23.3279 210.424 22.9594C211.469 21.0436 212.46 18.004 212.46 13.3851C212.46 11.6039 213.168 9.89559 214.427 8.63605C215.687 7.37653 217.395 6.66892 219.176 6.66892C220.957 6.66892 222.666 7.37653 223.925 8.63605C225.185 9.89559 225.892 11.6039 225.892 13.3851C225.892 18.004 226.883 21.0436 227.928 22.9594ZM217.793 29.5344C217.527 29.0759 216.94 28.92 216.482 29.1858C216.023 29.4517 215.867 30.0389 216.133 30.4973C216.442 31.0304 216.886 31.4729 217.42 31.7804C217.954 32.088 218.56 32.25 219.176 32.25C219.792 32.25 220.398 32.088 220.932 31.7804C221.466 31.4729 221.91 31.0304 222.219 30.4973C222.485 30.0389 222.329 29.4517 221.871 29.1858C221.412 28.92 220.825 29.0759 220.559 29.5344C220.419 29.7766 220.217 29.9778 219.974 30.1176C219.732 30.2575 219.456 30.3311 219.176 30.3311C218.896 30.3311 218.621 30.2575 218.378 30.1176C218.135 29.9778 217.934 29.7766 217.793 29.5344Z" fill="#333333"/>
<rect x="202.347" y="2" width="33" height="3" fill="#007D00" fill-opacity="0.3"/>
<rect x="202.231" y="32" width="33" height="3" fill="#007D00" fill-opacity="0.3"/>
<rect x="202.115" y="35" width="33" height="3" transform="rotate(-90 202.115 35)" fill="#007D00" fill-opacity="0.3"/>
<rect x="233" y="35" width="33" height="3" transform="rotate(-90 233 35)" fill="#007D00" fill-opacity="0.3"/>
<rect x="268.892" y="1.31057" width="34.3794" height="34.3798" stroke="#1477F8" stroke-width="1.37983"/>
<path d="M289.807 7.46191L292.08 9.91504H296.017C297.383 9.91517 298.5 11.0191 298.5 12.3682V27.0859C298.5 28.435 297.383 29.5389 296.017 29.5391H276.146C274.781 29.5389 273.663 28.435 273.663 27.0859V12.3682C273.663 11.0191 274.781 9.9152 276.146 9.91504H280.083L282.356 7.46191H289.807ZM286.082 13.5947C282.655 13.5947 279.872 16.3424 279.872 19.7275C279.872 23.1125 282.655 25.8594 286.082 25.8594C289.509 25.8591 292.291 23.1124 292.291 19.7275C292.291 16.3425 289.509 13.595 286.082 13.5947ZM286.023 15.7539C288.21 15.7541 289.983 17.5051 289.983 19.665C289.983 21.8248 288.21 23.576 286.023 23.5762C283.837 23.5762 282.064 21.8249 282.063 19.665C282.063 17.505 283.836 15.7539 286.023 15.7539Z" fill="#333333"/>
<rect x="269.35" y="2" width="33" height="3" fill="#007D00" fill-opacity="0.3"/>
<rect x="269.232" y="32" width="33" height="3" fill="#007D00" fill-opacity="0.3"/>
<rect x="269.116" y="35" width="33" height="3" transform="rotate(-90 269.116 35)" fill="#007D00" fill-opacity="0.3"/>
<rect x="300" y="35" width="33" height="3" transform="rotate(-90 300 35)" fill="#007D00" fill-opacity="0.3"/>
<rect x="335.891" y="1.31008" width="34.3798" height="34.3798" stroke="#1477F8" stroke-width="1.37983"/>
<path fill-rule="evenodd" clip-rule="evenodd" d="M365.053 9.27773C365.59 9.8147 365.59 10.6853 365.053 11.2223L349.928 26.3473C349.391 26.8842 348.521 26.8842 347.984 26.3473L341.109 19.4723C340.572 18.9353 340.572 18.0647 341.109 17.5277C341.646 16.9908 342.516 16.9908 343.053 17.5277L348.956 23.4305L363.109 9.27773C363.646 8.74076 364.516 8.74076 365.053 9.27773Z" fill="#333333"/>
<rect x="336.349" y="2" width="33" height="3" fill="#007D00" fill-opacity="0.3"/>
<rect x="336.232" y="32" width="33" height="3" fill="#007D00" fill-opacity="0.3"/>
<rect x="336.116" y="35" width="33" height="3" transform="rotate(-90 336.116 35)" fill="#007D00" fill-opacity="0.3"/>
<rect x="367" y="35" width="33" height="3" transform="rotate(-90 367 35)" fill="#007D00" fill-opacity="0.3"/>
<rect x="402.89" y="1.31008" width="34.3794" height="34.3798" stroke="#1477F8" stroke-width="1.37983"/>
<path fill-rule="evenodd" clip-rule="evenodd" d="M414.983 9.27773C415.52 8.74076 416.39 8.74076 416.927 9.27773L425.177 17.5277C425.714 18.0647 425.714 18.9353 425.177 19.4723L416.927 27.7223C416.39 28.2592 415.52 28.2592 414.983 27.7223C414.446 27.1853 414.446 26.3147 414.983 25.7777L422.26 18.5L414.983 11.2223C414.446 10.6853 414.446 9.8147 414.983 9.27773Z" fill="#333333"/>
<rect x="403.349" y="2" width="33" height="3" fill="#007D00" fill-opacity="0.3"/>
<rect x="403.232" y="32" width="33" height="3" fill="#007D00" fill-opacity="0.3"/>
<rect x="403.116" y="35" width="33" height="3" transform="rotate(-90 403.116 35)" fill="#007D00" fill-opacity="0.3"/>
<rect x="434" y="35" width="33" height="3" transform="rotate(-90 434 35)" fill="#007D00" fill-opacity="0.3"/>
<rect x="469.888" y="1.31008" width="34.3798" height="34.3798" stroke="#1477F8" stroke-width="1.37983"/>
<path fill-rule="evenodd" clip-rule="evenodd" d="M492.175 9.27773C492.712 9.8147 492.712 10.6853 492.175 11.2223L484.898 18.5L492.175 25.7777C492.712 26.3147 492.712 27.1853 492.175 27.7223C491.638 28.2592 490.768 28.2592 490.231 27.7223L481.981 19.4723C481.444 18.9353 481.444 18.0647 481.981 17.5277L490.231 9.27773C490.768 8.74076 491.638 8.74076 492.175 9.27773Z" fill="#333333"/>
<rect x="470.347" y="2" width="33" height="3" fill="#007D00" fill-opacity="0.3"/>
<rect x="470.231" y="32" width="33" height="3" fill="#007D00" fill-opacity="0.3"/>
<rect x="470.115" y="35" width="33" height="3" transform="rotate(-90 470.115 35)" fill="#007D00" fill-opacity="0.3"/>
<rect x="501" y="35" width="33" height="3" transform="rotate(-90 501 35)" fill="#007D00" fill-opacity="0.3"/>
<rect x="536.892" y="1.31008" width="34.3794" height="34.3798" stroke="#1477F8" stroke-width="1.37983"/>
<path d="M562.509 4.74756C563.532 4.74756 564.513 5.15544 565.235 5.87939C565.958 6.60351 566.364 7.58571 566.364 8.60889V28.3901C566.364 29.4134 565.958 30.3954 565.235 31.1196C564.513 31.8437 563.532 32.2515 562.509 32.2515H545.586C544.563 32.2514 543.582 31.8438 542.859 31.1196C542.182 30.4407 541.783 29.5351 541.735 28.5815L541.73 28.3901V8.60889C541.731 7.58571 542.137 6.60351 542.859 5.87939C543.582 5.1553 544.563 4.74766 545.586 4.74756H562.509ZM545.586 6.81787C545.113 6.81797 544.659 7.00583 544.324 7.34131C543.989 7.67696 543.801 8.13335 543.801 8.60889V28.3901L543.81 28.5679C543.85 28.9781 544.031 29.3641 544.324 29.6577C544.659 29.9932 545.113 30.1811 545.586 30.1812H562.509C562.982 30.1812 563.436 29.9932 563.771 29.6577C564.106 29.322 564.295 28.8658 564.295 28.3901V8.60889C564.295 8.13335 564.106 7.67696 563.771 7.34131C563.436 7.00598 562.981 6.81787 562.509 6.81787H545.586ZM559.794 25.1011C560.316 25.1541 560.723 25.5945 560.723 26.1304C560.723 26.6661 560.316 27.1067 559.794 27.1597L559.688 27.1655H548.406C547.835 27.1654 547.371 26.7018 547.371 26.1304C547.371 25.5589 547.835 25.0953 548.406 25.0952H559.688L559.794 25.1011ZM559.8 19.4487C560.321 19.5018 560.728 19.9423 560.729 20.478C560.729 21.0138 560.322 21.4542 559.8 21.5073L559.693 21.5132H548.406C547.835 21.5131 547.371 21.0495 547.371 20.478C547.371 19.9066 547.835 19.443 548.406 19.4429H559.693L559.8 19.4487ZM550.813 10.9302C551.566 10.1352 552.788 10.1351 553.541 10.9302C554.294 11.7252 554.294 13.0149 553.541 13.8101L551.448 16.019C551.046 16.4431 550.371 16.4433 549.969 16.019L547.877 13.8101C547.124 13.0149 547.124 11.7253 547.877 10.9302C548.63 10.1354 549.851 10.1355 550.604 10.9302C550.66 10.9903 550.756 10.9903 550.813 10.9302Z" fill="#1F2937"/>
<rect x="537.35" y="2" width="33" height="3" fill="#007D00" fill-opacity="0.3"/>
<rect x="537.232" y="32" width="33" height="3" fill="#007D00" fill-opacity="0.3"/>
<rect x="537.116" y="35" width="33" height="3" transform="rotate(-90 537.116 35)" fill="#007D00" fill-opacity="0.3"/>
<rect x="568" y="35" width="33" height="3" transform="rotate(-90 568 35)" fill="#007D00" fill-opacity="0.3"/>
<rect x="1.31008" y="62.3101" width="34.3798" height="34.3798" stroke="#1477F8" stroke-width="1.37983"/>
<g clip-path="url(#clip0_1010_44570)">
<path fill-rule="evenodd" clip-rule="evenodd" d="M13.4252 68.5195C10.1688 68.5195 7.51953 71.1688 7.51953 74.4252V84.6912C7.51953 87.9476 10.1688 90.5968 13.4252 90.5968H23.6912C26.9476 90.5968 29.5968 87.9476 29.5968 84.6912V74.4252C29.5968 71.1688 26.9476 68.5195 23.6912 68.5195H13.4252ZM9.07874 85.0361C9.25812 87.2852 11.1347 89.0514 13.4252 89.0514H23.6912C26.1059 89.0514 28.0514 87.0921 28.0514 84.6912V83.0216L23.9533 79.6134C23.222 79.0063 22.1457 79.0476 21.4696 79.7238L16.3505 84.8429C15.8675 85.3259 15.0948 85.3259 14.6119 84.8429L13.508 83.7391C12.8733 83.1044 11.866 83.0216 11.1209 83.5459L9.23052 84.8981C9.23052 84.8981 9.12014 84.9809 9.06494 85.0361H9.07874ZM12.3903 75.4463C12.3903 76.5777 13.3148 77.5022 14.4463 77.5022C15.5777 77.5022 16.5022 76.5777 16.5022 75.4463C16.5022 74.3148 15.5777 73.3903 14.4463 73.3903C13.3148 73.3903 12.3903 74.3148 12.3903 75.4463Z" fill="#333333"/>
</g>
<rect x="2" y="63" width="33" height="3" fill="#007D00" fill-opacity="0.3"/>
<rect x="2" y="93" width="33" height="3" fill="#007D00" fill-opacity="0.3"/>
<rect x="2" y="96" width="33" height="3" transform="rotate(-90 2 96)" fill="#007D00" fill-opacity="0.3"/>
<rect x="32" y="96" width="33" height="3" transform="rotate(-90 32 96)" fill="#007D00" fill-opacity="0.3"/>
<rect x="67.8911" y="62.3101" width="34.3798" height="34.3798" stroke="#1477F8" stroke-width="1.37983"/>
<path d="M85.4355 65.7549C92.8655 65.9429 98.8309 72.0247 98.8311 79.5L98.8262 79.8545C98.6381 87.2846 92.5564 93.25 85.0811 93.25L84.7266 93.2451C77.2966 93.057 71.3311 86.9753 71.3311 79.5C71.3312 71.9063 77.4873 65.7501 85.0811 65.75L85.4355 65.7549ZM85.0811 67.8193C78.6304 67.8195 73.4005 73.0494 73.4004 79.5C73.4004 85.9507 78.6303 91.1805 85.0811 91.1807C91.5319 91.1807 96.7617 85.9508 96.7617 79.5C96.7616 73.0493 91.5318 67.8193 85.0811 67.8193ZM85.0811 78.5938C85.6526 78.5938 86.1162 79.0574 86.1162 79.6289V85.415C86.1161 85.9865 85.6525 86.4502 85.0811 86.4502C84.5096 86.4502 84.046 85.9865 84.0459 85.415V79.6289C84.0459 79.0574 84.5095 78.5938 85.0811 78.5938ZM85.1982 72.8135C85.7201 72.8664 86.127 73.3069 86.127 73.8428C86.1269 74.3785 85.7201 74.8191 85.1982 74.8721L85.0928 74.8779H85.0811C84.5096 74.8779 84.046 74.4142 84.0459 73.8428C84.0459 73.2712 84.5095 72.8076 85.0811 72.8076H85.0928L85.1982 72.8135Z" fill="#333333"/>
<rect x="68.3486" y="63" width="33" height="3" fill="#007D00" fill-opacity="0.3"/>
<rect x="68.2324" y="93" width="33" height="3" fill="#007D00" fill-opacity="0.3"/>
<rect x="68.1162" y="96" width="33" height="3" transform="rotate(-90 68.1162 96)" fill="#007D00" fill-opacity="0.3"/>
<rect x="99" y="96" width="33" height="3" transform="rotate(-90 99 96)" fill="#007D00" fill-opacity="0.3"/>
<rect x="134.89" y="62.3101" width="34.3794" height="34.3794" stroke="#1477F8" stroke-width="1.37983"/>
<g clip-path="url(#clip1_1010_44570)">
<path d="M152.145 68.4609H152.058H152.019C147.298 68.535 143.456 72.408 143.456 77.0877C143.456 79.6983 144.701 82.5622 147.152 85.6092C147.29 85.7807 147.431 85.9521 147.577 86.1236C147.584 86.1314 147.588 86.1392 147.596 86.1469C147.871 86.4704 148.162 86.8015 148.464 87.1289C148.582 87.2574 148.7 87.386 148.822 87.5107C148.857 87.5497 148.892 87.5847 148.932 87.6237C150.193 88.9368 151.371 89.9538 152.082 90.5344C152.797 89.9499 153.987 88.9251 155.26 87.6003C155.287 87.573 155.315 87.5419 155.342 87.5146C155.472 87.3782 155.601 87.2418 155.727 87.1016C156.018 86.786 156.301 86.4665 156.568 86.1508C156.58 86.1392 156.587 86.1275 156.599 86.1158C156.745 85.9443 156.886 85.7729 157.023 85.5975C159.467 82.5544 160.708 79.6944 160.708 77.0877C160.704 72.408 156.866 68.535 152.145 68.4609ZM152.082 81.0738C149.568 81.0738 147.522 79.0437 147.522 76.55C147.522 74.0562 149.568 72.0262 152.082 72.0262C154.596 72.0262 156.642 74.0562 156.642 76.55C156.642 79.0437 154.596 81.0738 152.082 81.0738Z" fill="#333333"/>
</g>
<rect x="135.349" y="63" width="33" height="3" fill="#007D00" fill-opacity="0.3"/>
<rect x="135.232" y="93" width="33" height="3" fill="#007D00" fill-opacity="0.3"/>
<rect x="135.116" y="96" width="33" height="3" transform="rotate(-90 135.116 96)" fill="#007D00" fill-opacity="0.3"/>
<rect x="166" y="96" width="33" height="3" transform="rotate(-90 166 96)" fill="#007D00" fill-opacity="0.3"/>
<rect x="201.888" y="62.3101" width="34.3798" height="34.3798" stroke="#1477F8" stroke-width="1.37983"/>
<path fill-rule="evenodd" clip-rule="evenodd" d="M215.984 69.1875H214.953H210.828H209.797C209.523 69.1875 209.261 69.2841 209.068 69.456C208.874 69.6279 208.766 69.8611 208.766 70.1042V76.5208C208.766 76.7639 208.874 76.9971 209.068 77.169C209.261 77.3409 209.523 77.4375 209.797 77.4375H215.984C216.258 77.4375 216.52 77.3409 216.714 77.169C216.907 76.9971 217.016 76.7639 217.016 76.5208V70.1042C217.016 69.8611 216.907 69.6279 216.714 69.456C216.52 69.2841 216.258 69.1875 215.984 69.1875ZM228.36 69.1875H227.328H223.203H222.172C221.899 69.1875 221.636 69.2841 221.443 69.456C221.25 69.6279 221.141 69.8611 221.141 70.1042V76.5208C221.141 76.7639 221.25 76.9971 221.443 77.169C221.636 77.3409 221.899 77.4375 222.172 77.4375H228.36C228.633 77.4375 228.896 77.3409 229.089 77.169C229.282 76.9971 229.391 76.7639 229.391 76.5208V70.1042C229.391 69.8611 229.282 69.6279 229.089 69.456C228.896 69.2841 228.633 69.1875 228.36 69.1875ZM214.953 81.5622H215.984C216.258 81.5622 216.52 81.6588 216.714 81.8307C216.907 82.0026 217.016 82.2357 217.016 82.4789V88.8955C217.016 89.1386 216.907 89.3718 216.714 89.5437C216.52 89.7156 216.258 89.8122 215.984 89.8122H209.797C209.523 89.8122 209.261 89.7156 209.068 89.5437C208.874 89.3718 208.766 89.1386 208.766 88.8955V82.4789C208.766 82.2357 208.874 82.0026 209.068 81.8307C209.261 81.6588 209.523 81.5622 209.797 81.5622H210.828H214.953ZM228.36 81.5622H227.328H223.203H222.172C221.899 81.5622 221.636 81.6588 221.443 81.8307C221.25 82.0026 221.141 82.2357 221.141 82.4789V88.8955C221.141 89.1386 221.25 89.3718 221.443 89.5437C221.636 89.7156 221.899 89.8122 222.172 89.8122H228.36C228.633 89.8122 228.896 89.7156 229.089 89.5437C229.282 89.3718 229.391 89.1386 229.391 88.8955V82.4789C229.391 82.2357 229.282 82.0026 229.089 81.8307C228.896 81.6588 228.633 81.5622 228.36 81.5622Z" fill="#1F2937"/>
<rect x="202.347" y="63" width="33" height="3" fill="#007D00" fill-opacity="0.3"/>
<rect x="202.231" y="93" width="33" height="3" fill="#007D00" fill-opacity="0.3"/>
<rect x="202.115" y="96" width="33" height="3" transform="rotate(-90 202.115 96)" fill="#007D00" fill-opacity="0.3"/>
<rect x="233" y="96" width="33" height="3" transform="rotate(-90 233 96)" fill="#007D00" fill-opacity="0.3"/>
<rect x="268.892" y="62.3101" width="34.3798" height="34.3798" stroke="#1477F8" stroke-width="1.37983"/>
<path d="M286.437 66.1709C293.867 66.3589 299.832 72.4406 299.832 79.916L299.827 80.2705C299.639 87.7005 293.557 93.666 286.082 93.666L285.728 93.6611C278.298 93.473 272.332 87.3913 272.332 79.916C272.332 72.3222 278.488 66.1661 286.082 66.166L286.437 66.1709ZM286.082 68.2354C279.631 68.2355 274.401 73.4653 274.401 79.916C274.401 86.3667 279.631 91.5966 286.082 91.5967C292.533 91.5967 297.763 86.3668 297.763 79.916C297.763 73.4652 292.533 68.2354 286.082 68.2354ZM282.232 75.2451C282.232 74.7032 282.829 74.373 283.288 74.6602L291.296 79.665C291.728 79.9353 291.728 80.5647 291.296 80.835L283.288 85.8408C282.829 86.128 282.233 85.7975 282.232 85.2559V75.2451Z" fill="#333333"/>
<rect x="269.35" y="63" width="33" height="3" fill="#007D00" fill-opacity="0.3"/>
<rect x="269.232" y="93" width="33" height="3" fill="#007D00" fill-opacity="0.3"/>
<rect x="269.116" y="96" width="33" height="3" transform="rotate(-90 269.116 96)" fill="#007D00" fill-opacity="0.3"/>
<rect x="300" y="96" width="33" height="3" transform="rotate(-90 300 96)" fill="#007D00" fill-opacity="0.3"/>
<rect x="335.891" y="62.3101" width="34.3798" height="34.3798" stroke="#1477F8" stroke-width="1.37983"/>
<path fill-rule="evenodd" clip-rule="evenodd" d="M350.829 67.0758C351.85 65.3081 354.312 65.3081 355.333 67.0758L358.475 72.5112C358.56 72.6578 358.698 72.7623 358.858 72.8009L364.793 74.2323C366.724 74.6978 367.484 77.1351 366.185 78.6931L362.191 83.4837C362.084 83.6129 362.031 83.782 362.045 83.9524L362.572 90.2725C362.743 92.3279 360.752 93.8342 358.928 93.0294L353.318 90.5548C353.166 90.488 352.996 90.488 352.844 90.5548L347.234 93.0294C345.41 93.8342 343.419 92.3279 343.59 90.2725L344.117 83.9524C344.131 83.782 344.078 83.6129 343.971 83.4837L339.977 78.6931C338.678 77.1351 339.438 74.6978 341.369 74.2323L347.304 72.8009C347.464 72.7623 347.602 72.6578 347.687 72.5112L350.829 67.0758Z" fill="#333333"/>
<rect x="336.349" y="63" width="33" height="3" fill="#007D00" fill-opacity="0.3"/>
<rect x="336.232" y="93" width="33" height="3" fill="#007D00" fill-opacity="0.3"/>
<rect x="336.116" y="96" width="33" height="3" transform="rotate(-90 336.116 96)" fill="#007D00" fill-opacity="0.3"/>
<rect x="367" y="96" width="33" height="3" transform="rotate(-90 367 96)" fill="#007D00" fill-opacity="0.3"/>
<rect x="402.89" y="62.3101" width="34.3798" height="34.3798" stroke="#1477F8" stroke-width="1.37983"/>
<path d="M420.079 65.6582C427.724 65.6582 433.922 71.8552 433.922 79.5C433.922 87.1449 427.724 93.3428 420.079 93.3428C417.779 93.3427 415.606 92.7784 413.693 91.7822L411.08 92.707C408.32 93.6817 405.661 91.0227 406.637 88.2627L407.608 85.5127C406.729 83.6922 406.237 81.6507 406.237 79.5C406.237 71.8554 412.435 65.6585 420.079 65.6582ZM420.079 67.7275C413.578 67.7278 408.307 72.9985 408.307 79.5L408.312 79.8623C408.367 81.6645 408.826 83.3654 409.603 84.876C409.759 85.181 409.795 85.5369 409.681 85.8604L408.588 88.9521C408.205 90.0368 409.205 91.0833 410.286 90.7881L410.391 90.7549L413.36 89.7061C413.696 89.5873 414.067 89.6301 414.379 89.8027C415.962 90.6805 417.77 91.2046 419.693 91.2666L420.079 91.2725C426.479 91.2725 431.687 86.1652 431.848 79.8037L431.852 79.5C431.851 73.0998 426.744 67.8925 420.383 67.7314L420.079 67.7275ZM414.252 78.0869C415.065 78.0869 415.724 78.7459 415.724 79.5586C415.723 80.3711 415.065 81.0293 414.252 81.0293C413.439 81.0293 412.78 80.3711 412.78 79.5586C412.78 78.7459 413.439 78.0869 414.252 78.0869ZM420.138 78.0869C420.95 78.0869 421.609 78.7459 421.609 79.5586C421.609 80.3711 420.95 81.0293 420.138 81.0293C419.325 81.0292 418.666 80.3711 418.666 79.5586C418.666 78.7459 419.325 78.087 420.138 78.0869ZM426.025 78.0869C426.838 78.0871 427.496 78.746 427.496 79.5586C427.496 80.371 426.838 81.0291 426.025 81.0293C425.213 81.0293 424.554 80.3711 424.554 79.5586C424.554 78.7459 425.213 78.0869 426.025 78.0869Z" fill="#333333"/>
<rect x="403.349" y="63" width="33" height="3" fill="#007D00" fill-opacity="0.3"/>
<rect x="403.232" y="93" width="33" height="3" fill="#007D00" fill-opacity="0.3"/>
<rect x="403.116" y="96" width="33" height="3" transform="rotate(-90 403.116 96)" fill="#007D00" fill-opacity="0.3"/>
<rect x="434" y="96" width="33" height="3" transform="rotate(-90 434 96)" fill="#007D00" fill-opacity="0.3"/>
<rect x="469.888" y="62.3101" width="34.3798" height="34.3798" stroke="#1477F8" stroke-width="1.37983"/>
<path d="M494.753 65.6748C497.444 65.6749 499.625 67.8563 499.625 70.5469C499.625 73.2374 497.444 75.4188 494.753 75.4189C493.331 75.4189 492.053 74.809 491.162 73.8379L484.037 77.9961C484.191 78.4699 484.275 78.975 484.275 79.5C484.275 80.0246 484.192 80.5295 484.038 81.0029L491.165 85.1572C492.056 84.1885 493.334 83.5811 494.753 83.5811C497.443 83.5812 499.625 85.7627 499.625 88.4531C499.625 91.1438 497.444 93.3251 494.753 93.3252C492.062 93.325 489.881 91.1438 489.881 88.4531C489.881 87.9261 489.965 87.4188 490.12 86.9434L482.994 82.791C482.103 83.7622 480.825 84.3721 479.403 84.3721C476.713 84.3718 474.531 82.1906 474.531 79.5C474.531 76.8095 476.713 74.6282 479.403 74.6279C480.825 74.6279 482.103 75.2377 482.994 76.209L490.118 72.0518C489.964 71.5778 489.881 71.0721 489.881 70.5469C489.881 67.8563 492.062 65.675 494.753 65.6748ZM494.753 85.6514C493.766 85.6515 492.9 86.1626 492.4 86.9336C492.384 86.9704 492.367 87.0074 492.347 87.043C492.325 87.08 492.3 87.1142 492.274 87.1475C492.069 87.5374 491.951 87.9814 491.951 88.4531C491.951 90.0007 493.205 91.2557 494.753 91.2559C496.301 91.2558 497.556 90.0008 497.556 88.4531C497.555 86.9058 496.3 85.6515 494.753 85.6514ZM479.403 76.6982C477.856 76.6985 476.602 77.9526 476.602 79.5C476.602 81.0475 477.856 82.3025 479.403 82.3027C480.432 82.3027 481.329 81.7458 481.816 80.9189C481.818 80.916 481.821 80.9131 481.822 80.9102C481.826 80.9032 481.831 80.8965 481.835 80.8896C482.07 80.4798 482.206 80.0062 482.206 79.5C482.206 77.9524 480.951 76.6982 479.403 76.6982ZM494.753 67.7451C493.205 67.7453 491.951 68.9994 491.951 70.5469C491.951 72.0943 493.205 73.3494 494.753 73.3496C496.3 73.3495 497.555 72.0944 497.556 70.5469C497.556 68.9994 496.3 67.7452 494.753 67.7451Z" fill="#1F2937"/>
<rect x="470.347" y="63" width="33" height="3" fill="#007D00" fill-opacity="0.3"/>
<rect x="470.231" y="93" width="33" height="3" fill="#007D00" fill-opacity="0.3"/>
<rect x="470.115" y="96" width="33" height="3" transform="rotate(-90 470.115 96)" fill="#007D00" fill-opacity="0.3"/>
<rect x="501" y="96" width="33" height="3" transform="rotate(-90 501 96)" fill="#007D00" fill-opacity="0.3"/>
<rect x="536.892" y="62.3101" width="34.3793" height="34.3794" stroke="#1477F8" stroke-width="1.37983"/>
<path d="M542.774 65.6953C545.632 65.6956 547.949 68.0126 547.949 70.8701V73.1904H558.791L558.896 73.1963C559.419 73.2491 559.826 73.6896 559.826 74.2256C559.826 74.7615 559.419 75.2021 558.896 75.2549L558.791 75.2607H547.949V78.3867C548.296 78.34 548.651 78.3135 549.011 78.3135L549.406 78.3232C552.355 78.4694 554.863 80.2378 556.017 82.7305H560.973C563.243 82.7305 565.116 84.4346 565.382 86.6338C566.822 87.0539 567.873 88.3558 567.873 89.8975L567.869 90.0723C567.776 91.8724 566.249 93.3045 564.38 93.3047L564.2 93.2998C562.414 93.2115 560.982 91.8145 560.892 90.0723L560.887 89.8975C560.887 88.3877 561.893 87.1072 563.288 86.6602C563.054 85.5965 562.107 84.8008 560.973 84.8008H556.624C556.669 85.1305 556.695 85.4667 556.695 85.8086L556.686 86.1943C556.48 90.1545 553.122 93.3042 549.011 93.3047L548.615 93.2949C544.685 93.1008 541.534 90.0272 541.335 86.1943L541.325 85.8086C541.325 82.7569 543.196 80.1329 545.88 78.9639V74.2432C545.88 74.2373 545.879 74.2315 545.879 74.2256C545.879 74.2197 545.88 74.2139 545.88 74.208V70.8701C545.88 69.1556 544.489 67.7659 542.774 67.7656H541.325C540.754 67.7656 540.29 67.3019 540.29 66.7305C540.29 66.1589 540.754 65.6953 541.325 65.6953H542.774ZM549.011 80.3828C545.861 80.3828 543.395 82.8609 543.395 85.8086C543.395 88.7566 545.86 91.2344 549.011 91.2344C552.161 91.2339 554.626 88.7563 554.626 85.8086C554.626 82.8612 552.16 80.3833 549.011 80.3828ZM564.38 88.5596C563.545 88.5596 562.956 89.2075 562.956 89.8975C562.956 90.5874 563.545 91.2343 564.38 91.2344C565.215 91.2341 565.804 90.5873 565.804 89.8975C565.804 89.2076 565.215 88.5598 564.38 88.5596ZM549.01 83.7656C550.167 83.7656 551.106 84.6806 551.106 85.8096C551.106 86.9385 550.167 87.8535 549.01 87.8535C547.852 87.8534 546.914 86.9384 546.914 85.8096C546.914 84.6807 547.852 83.7658 549.01 83.7656Z" fill="#333333"/>
<rect x="537.35" y="63" width="33" height="3" fill="#007D00" fill-opacity="0.3"/>
<rect x="537.232" y="93" width="33" height="3" fill="#007D00" fill-opacity="0.3"/>
<rect x="537.116" y="96" width="33" height="3" transform="rotate(-90 537.116 96)" fill="#007D00" fill-opacity="0.3"/>
<rect x="568" y="96" width="33" height="3" transform="rotate(-90 568 96)" fill="#007D00" fill-opacity="0.3"/>
<defs>
<clipPath id="clip0_1010_44570">
<rect width="22.0773" height="22.0773" fill="white" transform="translate(7.51953 68.5195)"/>
</clipPath>
<clipPath id="clip1_1010_44570">
<rect width="17.2479" height="22.0773" fill="white" transform="translate(143.456 68.4609)"/>
</clipPath>
</defs>
</svg>
