<svg width="898" height="108" viewBox="0 0 898 108" fill="none" xmlns="http://www.w3.org/2000/svg">
<rect width="190" height="108" fill="#FA8100"/>
<path d="M19.168 30.48C20.688 30.48 21.536 29.44 21.536 27.984C21.536 26.544 20.688 25.488 19.168 25.488C17.904 25.488 16.768 26.48 16.768 27.984C16.768 29.504 17.904 30.48 19.168 30.48ZM15.104 32V20H16.768V25.28C17.472 24.224 18.496 23.856 19.296 23.856C21.808 23.856 23.2 25.76 23.2 27.984C23.2 30.224 21.792 32.128 19.28 32.128C18.496 32.128 17.504 31.856 16.768 30.688V32H15.104ZM26.1939 25.328C26.7219 24.272 28.0019 23.696 28.8659 23.696V25.376C27.3459 25.376 26.1939 26.768 26.1939 27.936V32.112H24.5299V23.744H26.1939V25.328ZM33.4859 30.576C34.7659 30.576 35.9659 29.632 35.9819 28.016C35.9659 26.416 34.7659 25.456 33.4859 25.456C31.9339 25.456 31.0699 26.528 31.0699 28.016C31.0699 29.504 31.9339 30.576 33.4859 30.576ZM29.4059 28.016C29.4059 25.744 30.8299 23.808 33.3739 23.808C34.2859 23.808 35.2779 24.272 35.9499 25.264V23.776H37.6139V32.096L35.9499 32.112V30.784C35.2459 31.808 34.3019 32.24 33.3739 32.24C30.8299 32.24 29.4059 30.288 29.4059 28.016ZM45.2284 27.472C45.2284 26.208 44.5084 25.408 43.1964 25.408C41.9644 25.408 41.0204 26.448 41.0364 27.568V32.112H39.3724V23.76H41.0364V25.088C41.5964 24.288 42.3324 23.76 43.3884 23.76C45.0204 23.76 46.8924 25.008 46.8924 27.408V32.112H45.2284V27.472ZM52.1814 32.128C49.7014 32.128 48.2934 30.224 48.2934 27.984C48.2934 25.76 49.7014 23.856 52.1814 23.856C53.0614 23.856 54.0694 24.288 54.7254 25.296V20H56.3894V32H54.7254V30.672C54.0374 31.76 53.0614 32.128 52.1814 32.128ZM49.9574 27.984C49.9574 29.44 50.8054 30.48 52.3254 30.48C53.5734 30.48 54.7254 29.504 54.7254 27.984C54.7254 26.48 53.5734 25.504 52.3254 25.504C50.8054 25.504 49.9574 26.544 49.9574 27.984ZM58.3838 25.28H65.3598V26.928H58.3838V25.28ZM70.9762 30.496C72.3682 30.496 73.3442 29.616 73.3442 28.288C73.3442 26.992 72.3522 26.064 70.9762 26.064C69.6162 26.064 68.6402 26.992 68.6402 28.288C68.6402 29.616 69.6002 30.496 70.9762 30.496ZM66.9762 28.288C66.9762 27.504 67.2162 26.784 67.6322 26.192L70.8962 20.384H72.8162L70.5122 24.432C70.6722 24.416 70.8322 24.4 70.9922 24.4C73.1202 24.4 75.0082 26.112 75.0082 28.288C75.0082 30.496 73.1202 32.16 70.9922 32.16C68.8802 32.16 66.9762 30.512 66.9762 28.288ZM80.6626 30.48C82.3746 30.48 83.3506 29.2 83.3506 26.224C83.3506 23.232 82.3746 21.952 80.6626 21.952C78.9506 21.952 77.9586 23.232 77.9586 26.224C77.9586 29.2 78.9506 30.48 80.6626 30.48ZM76.2946 26.224C76.2946 22.528 78.0226 20.288 80.6626 20.288C83.2706 20.288 85.0146 22.496 85.0146 26.224C85.0146 29.904 83.3026 32.144 80.6626 32.144C78.0226 32.144 76.2946 29.904 76.2946 26.224ZM90.6533 30.48C92.3653 30.48 93.3413 29.2 93.3413 26.224C93.3413 23.232 92.3653 21.952 90.6533 21.952C88.9413 21.952 87.9493 23.232 87.9493 26.224C87.9493 29.2 88.9413 30.48 90.6533 30.48ZM86.2853 26.224C86.2853 22.528 88.0133 20.288 90.6533 20.288C93.2613 20.288 95.0053 22.496 95.0053 26.224C95.0053 29.904 93.2933 32.144 90.6533 32.144C88.0133 32.144 86.2853 29.904 86.2853 26.224Z" fill="white"/>
<path d="M130.691 84.892L130.509 87.44H132.567V88.42H130.425L130.229 91.486H132.231V92.48H130.145L129.963 95H128.941L129.137 92.48H126.393L126.211 95H125.189L125.371 92.48H123.383V91.486H125.455L125.665 88.42H123.733V87.44H125.735L125.917 84.892H126.939L126.757 87.44H129.501L129.655 84.892H130.691ZM126.463 91.486H129.207L129.417 88.42H126.687L126.463 91.486ZM140.714 84.892V85.872H135.324V89.442H139.776V90.422H135.324V95H134.316V84.892H140.714ZM148.712 84.892V85.872H143.322V89.442H147.774V90.422H143.322V95H142.314V84.892H148.712ZM153.169 94.118C154.513 94.118 155.451 93.124 155.451 92.13C155.451 91.15 154.513 90.184 153.169 90.184C151.839 90.184 150.887 91.15 150.887 92.13C150.887 93.124 151.825 94.118 153.169 94.118ZM149.879 92.102C149.879 91.066 150.621 90.17 151.517 89.652C150.789 89.162 150.145 88.392 150.145 87.482C150.145 85.872 151.587 84.71 153.169 84.71C154.751 84.71 156.207 85.872 156.207 87.482C156.207 88.392 155.563 89.162 154.835 89.652C155.717 90.17 156.459 91.066 156.459 92.102C156.459 93.852 154.905 95.126 153.169 95.126C151.433 95.126 149.879 93.852 149.879 92.102ZM151.153 87.454C151.153 88.308 151.979 89.162 153.169 89.162C154.373 89.162 155.199 88.308 155.199 87.454C155.199 86.586 154.373 85.718 153.169 85.718C151.979 85.718 151.153 86.586 151.153 87.454ZM160.639 84.906V95H159.631V86.124L158.203 87.076L157.643 86.236L159.631 84.906H160.639ZM162.623 94.006C164.625 92.06 167.663 89.722 167.663 87.888C167.663 86.488 166.739 85.774 165.647 85.774C164.877 85.774 164.023 86.04 163.505 87.23L162.581 86.838C163.309 85.186 164.681 84.766 165.647 84.766C167.145 84.766 168.671 85.914 168.671 87.888C168.671 89.974 166.067 92.2 164.107 94.006H168.839V95.014H162.623V94.006ZM173.698 94.09C175.294 94.09 176.274 92.76 176.274 89.946C176.274 87.132 175.294 85.816 173.698 85.816C172.088 85.816 171.108 87.132 171.108 89.946C171.108 92.76 172.088 94.09 173.698 94.09ZM170.1 89.946C170.1 86.712 171.528 84.808 173.698 84.808C175.854 84.808 177.282 86.712 177.282 89.946C177.282 93.18 175.868 95.098 173.698 95.098C171.514 95.098 170.1 93.18 170.1 89.946Z" fill="white"/>
<rect width="173" height="108" transform="translate(206)" fill="#FFF5E6"/>
<path d="M225.168 30.48C226.688 30.48 227.536 29.44 227.536 27.984C227.536 26.544 226.688 25.488 225.168 25.488C223.904 25.488 222.768 26.48 222.768 27.984C222.768 29.504 223.904 30.48 225.168 30.48ZM221.104 32V20H222.768V25.28C223.472 24.224 224.496 23.856 225.296 23.856C227.808 23.856 229.2 25.76 229.2 27.984C229.2 30.224 227.792 32.128 225.28 32.128C224.496 32.128 223.504 31.856 222.768 30.688V32H221.104ZM232.194 25.328C232.722 24.272 234.002 23.696 234.866 23.696V25.376C233.346 25.376 232.194 26.768 232.194 27.936V32.112H230.53V23.744H232.194V25.328ZM239.486 30.576C240.766 30.576 241.966 29.632 241.982 28.016C241.966 26.416 240.766 25.456 239.486 25.456C237.934 25.456 237.07 26.528 237.07 28.016C237.07 29.504 237.934 30.576 239.486 30.576ZM235.406 28.016C235.406 25.744 236.83 23.808 239.374 23.808C240.286 23.808 241.278 24.272 241.95 25.264V23.776H243.614V32.096L241.95 32.112V30.784C241.246 31.808 240.302 32.24 239.374 32.24C236.83 32.24 235.406 30.288 235.406 28.016ZM251.228 27.472C251.228 26.208 250.508 25.408 249.196 25.408C247.964 25.408 247.02 26.448 247.036 27.568V32.112H245.372V23.76H247.036V25.088C247.596 24.288 248.332 23.76 249.388 23.76C251.02 23.76 252.892 25.008 252.892 27.408V32.112H251.228V27.472ZM258.181 32.128C255.701 32.128 254.293 30.224 254.293 27.984C254.293 25.76 255.701 23.856 258.181 23.856C259.061 23.856 260.069 24.288 260.725 25.296V20H262.389V32H260.725V30.672C260.037 31.76 259.061 32.128 258.181 32.128ZM255.957 27.984C255.957 29.44 256.805 30.48 258.325 30.48C259.573 30.48 260.725 29.504 260.725 27.984C260.725 26.48 259.573 25.504 258.325 25.504C256.805 25.504 255.957 26.544 255.957 27.984ZM264.384 25.28H271.36V26.928H264.384V25.28ZM275.104 26.816L273.456 26.752L273.696 20.4H280.048V22.064H275.296L275.184 24.752C275.712 24.496 276.304 24.368 276.912 24.368C279.056 24.368 280.944 26.032 280.944 28.256C280.944 30.48 279.04 32.192 276.912 32.192C275.104 32.192 273.408 30.928 272.992 29.168L274.608 28.784C274.864 29.856 275.744 30.528 276.912 30.528C278.288 30.528 279.28 29.616 279.28 28.256C279.28 26.912 278.32 26.032 276.912 26.032C276.144 26.032 275.584 26.288 275.104 26.816ZM286.6 30.48C288.312 30.48 289.288 29.2 289.288 26.224C289.288 23.232 288.312 21.952 286.6 21.952C284.888 21.952 283.896 23.232 283.896 26.224C283.896 29.2 284.888 30.48 286.6 30.48ZM282.232 26.224C282.232 22.528 283.96 20.288 286.6 20.288C289.208 20.288 290.952 22.496 290.952 26.224C290.952 29.904 289.24 32.144 286.6 32.144C283.96 32.144 282.232 29.904 282.232 26.224Z" fill="#616161"/>
<path d="M316.273 84.892L316.091 87.44H318.149V88.42H316.007L315.811 91.486H317.813V92.48H315.727L315.545 95H314.523L314.719 92.48H311.975L311.793 95H310.771L310.953 92.48H308.965V91.486H311.037L311.247 88.42H309.315V87.44H311.317L311.499 84.892H312.521L312.339 87.44H315.083L315.237 84.892H316.273ZM312.045 91.486H314.789L314.999 88.42H312.269L312.045 91.486ZM326.296 84.892V85.872H320.906V89.442H325.358V90.422H320.906V95H319.898V84.892H326.296ZM334.294 84.892V85.872H328.904V89.442H333.356V90.422H328.904V95H327.896V84.892H334.294ZM342.293 84.892V85.872H336.903V89.442H341.355V90.422H336.903V95H335.895V84.892H342.293ZM344.957 90.226L343.949 90.198L344.131 84.878H349.311V85.886H345.111L344.999 88.896C345.503 88.602 346.091 88.434 346.707 88.434C348.541 88.434 350.039 89.974 350.039 91.752C350.039 93.684 348.527 95.14 346.707 95.14C345.139 95.14 343.809 94.062 343.473 92.606L344.453 92.382C344.691 93.446 345.559 94.132 346.707 94.132C348.051 94.132 349.031 93.194 349.031 91.752C349.031 90.45 348.051 89.442 346.707 89.442C345.979 89.442 345.391 89.722 344.957 90.226ZM358.167 84.892V85.872H352.637V89.302H357.453V90.282H352.637V94.02H358.167V95H351.629V84.892H358.167ZM362.911 94.104C364.255 94.104 365.263 93.124 365.263 91.794C365.263 90.464 364.255 89.47 362.911 89.47C361.581 89.47 360.615 90.464 360.615 91.794C360.615 93.124 361.581 94.104 362.911 94.104ZM359.607 91.794C359.607 91.192 359.775 90.618 360.055 90.128L363.051 84.892H364.213L362.099 88.574C362.365 88.504 362.645 88.462 362.939 88.462C364.773 88.462 366.271 89.96 366.271 91.794C366.271 93.614 364.773 95.112 362.939 95.112C361.119 95.112 359.607 93.614 359.607 91.794Z" fill="#616161"/>
<rect width="173" height="108" transform="translate(379)" fill="#FEE3BE"/>
<path d="M398.168 30.48C399.688 30.48 400.536 29.44 400.536 27.984C400.536 26.544 399.688 25.488 398.168 25.488C396.904 25.488 395.768 26.48 395.768 27.984C395.768 29.504 396.904 30.48 398.168 30.48ZM394.104 32V20H395.768V25.28C396.472 24.224 397.496 23.856 398.296 23.856C400.808 23.856 402.2 25.76 402.2 27.984C402.2 30.224 400.792 32.128 398.28 32.128C397.496 32.128 396.504 31.856 395.768 30.688V32H394.104ZM405.194 25.328C405.722 24.272 407.002 23.696 407.866 23.696V25.376C406.346 25.376 405.194 26.768 405.194 27.936V32.112H403.53V23.744H405.194V25.328ZM412.486 30.576C413.766 30.576 414.966 29.632 414.982 28.016C414.966 26.416 413.766 25.456 412.486 25.456C410.934 25.456 410.07 26.528 410.07 28.016C410.07 29.504 410.934 30.576 412.486 30.576ZM408.406 28.016C408.406 25.744 409.83 23.808 412.374 23.808C413.286 23.808 414.278 24.272 414.95 25.264V23.776H416.614V32.096L414.95 32.112V30.784C414.246 31.808 413.302 32.24 412.374 32.24C409.83 32.24 408.406 30.288 408.406 28.016ZM424.228 27.472C424.228 26.208 423.508 25.408 422.196 25.408C420.964 25.408 420.02 26.448 420.036 27.568V32.112H418.372V23.76H420.036V25.088C420.596 24.288 421.332 23.76 422.388 23.76C424.02 23.76 425.892 25.008 425.892 27.408V32.112H424.228V27.472ZM431.181 32.128C428.701 32.128 427.293 30.224 427.293 27.984C427.293 25.76 428.701 23.856 431.181 23.856C432.061 23.856 433.069 24.288 433.725 25.296V20H435.389V32H433.725V30.672C433.037 31.76 432.061 32.128 431.181 32.128ZM428.957 27.984C428.957 29.44 429.805 30.48 431.325 30.48C432.573 30.48 433.725 29.504 433.725 27.984C433.725 26.48 432.573 25.504 431.325 25.504C429.805 25.504 428.957 26.544 428.957 27.984ZM437.384 25.28H444.36V26.928H437.384V25.28ZM450.168 20.416V32.048L448.504 32.032V22.288L446.568 23.296L445.864 21.792L448.52 20.416H450.168ZM456.6 30.48C458.312 30.48 459.288 29.2 459.288 26.224C459.288 23.232 458.312 21.952 456.6 21.952C454.888 21.952 453.896 23.232 453.896 26.224C453.896 29.2 454.888 30.48 456.6 30.48ZM452.232 26.224C452.232 22.528 453.96 20.288 456.6 20.288C459.208 20.288 460.952 22.496 460.952 26.224C460.952 29.904 459.24 32.144 456.6 32.144C453.96 32.144 452.232 29.904 452.232 26.224ZM466.591 30.48C468.303 30.48 469.279 29.2 469.279 26.224C469.279 23.232 468.303 21.952 466.591 21.952C464.879 21.952 463.887 23.232 463.887 26.224C463.887 29.2 464.879 30.48 466.591 30.48ZM462.223 26.224C462.223 22.528 463.951 20.288 466.591 20.288C469.199 20.288 470.943 22.496 470.943 26.224C470.943 29.904 469.231 32.144 466.591 32.144C463.951 32.144 462.223 29.904 462.223 26.224Z" fill="#616161"/>
<path d="M486.673 84.892L486.491 87.44H488.549V88.42H486.407L486.211 91.486H488.213V92.48H486.127L485.945 95H484.923L485.119 92.48H482.375L482.193 95H481.171L481.353 92.48H479.365V91.486H481.437L481.647 88.42H479.715V87.44H481.717L481.899 84.892H482.921L482.739 87.44H485.483L485.637 84.892H486.673ZM482.445 91.486H485.189L485.399 88.42H482.669L482.445 91.486ZM496.696 84.892V85.872H491.306V89.442H495.758V90.422H491.306V95H490.298V84.892H496.696ZM504.695 84.892V85.872H499.165V89.302H503.981V90.282H499.165V94.02H504.695V95H498.157V84.892H504.695ZM513.103 84.892V85.872H507.573V89.302H512.389V90.282H507.573V94.02H513.103V95H506.565V84.892H513.103ZM519.527 89.778C520.353 90.282 521.053 91.136 521.053 92.144C521.053 93.838 519.513 95.084 517.791 95.084C516.083 95.084 514.543 93.838 514.543 92.144H515.551C515.551 93.096 516.461 94.062 517.791 94.062C519.135 94.062 520.045 93.11 520.045 92.158C520.045 91.206 519.429 90.268 517.819 90.268H517.077V89.26H517.819C519.205 89.26 519.905 88.434 519.905 87.538C519.905 86.698 519.093 85.816 517.875 85.816C516.657 85.816 515.831 86.684 515.831 87.566H514.823C514.823 85.984 516.279 84.808 517.875 84.808C519.485 84.808 520.913 85.984 520.913 87.566C520.913 88.49 520.283 89.274 519.527 89.778ZM522.785 95V84.892H526.551C528.091 84.892 529.323 86.096 529.323 87.636C529.323 88.434 528.945 89.106 528.399 89.596C528.483 89.638 528.553 89.694 528.637 89.736C529.393 90.226 529.981 91.122 529.981 92.186C529.981 93.74 528.735 95 527.195 95H522.785ZM523.793 94.02H527.209C528.203 94.02 529.001 93.236 529.001 92.214C529.001 91.108 528.203 90.268 527.209 90.268H523.793V94.02ZM523.793 89.288H526.663C527.615 89.246 528.357 88.56 528.357 87.608C528.357 86.6 527.559 85.872 526.565 85.872H523.793V89.288ZM538.124 84.892V85.872H532.594V89.302H537.41V90.282H532.594V94.02H538.124V95H531.586V84.892H538.124Z" fill="#616161"/>
<rect width="173" height="108" transform="translate(552)" fill="#FFC77D"/>
<path d="M571.168 30.48C572.688 30.48 573.536 29.44 573.536 27.984C573.536 26.544 572.688 25.488 571.168 25.488C569.904 25.488 568.768 26.48 568.768 27.984C568.768 29.504 569.904 30.48 571.168 30.48ZM567.104 32V20H568.768V25.28C569.472 24.224 570.496 23.856 571.296 23.856C573.808 23.856 575.2 25.76 575.2 27.984C575.2 30.224 573.792 32.128 571.28 32.128C570.496 32.128 569.504 31.856 568.768 30.688V32H567.104ZM578.194 25.328C578.722 24.272 580.002 23.696 580.866 23.696V25.376C579.346 25.376 578.194 26.768 578.194 27.936V32.112H576.53V23.744H578.194V25.328ZM585.486 30.576C586.766 30.576 587.966 29.632 587.982 28.016C587.966 26.416 586.766 25.456 585.486 25.456C583.934 25.456 583.07 26.528 583.07 28.016C583.07 29.504 583.934 30.576 585.486 30.576ZM581.406 28.016C581.406 25.744 582.83 23.808 585.374 23.808C586.286 23.808 587.278 24.272 587.95 25.264V23.776H589.614V32.096L587.95 32.112V30.784C587.246 31.808 586.302 32.24 585.374 32.24C582.83 32.24 581.406 30.288 581.406 28.016ZM597.228 27.472C597.228 26.208 596.508 25.408 595.196 25.408C593.964 25.408 593.02 26.448 593.036 27.568V32.112H591.372V23.76H593.036V25.088C593.596 24.288 594.332 23.76 595.388 23.76C597.02 23.76 598.892 25.008 598.892 27.408V32.112H597.228V27.472ZM604.181 32.128C601.701 32.128 600.293 30.224 600.293 27.984C600.293 25.76 601.701 23.856 604.181 23.856C605.061 23.856 606.069 24.288 606.725 25.296V20H608.389V32H606.725V30.672C606.037 31.76 605.061 32.128 604.181 32.128ZM601.957 27.984C601.957 29.44 602.805 30.48 604.325 30.48C605.573 30.48 606.725 29.504 606.725 27.984C606.725 26.48 605.573 25.504 604.325 25.504C602.805 25.504 601.957 26.544 601.957 27.984ZM610.384 25.28H617.36V26.928H610.384V25.28ZM619.216 30.384C621.536 28.144 624.752 26.048 624.752 24.064C624.752 22.608 623.824 21.952 622.72 21.952C621.952 21.952 621.056 22.224 620.512 23.44L618.992 22.768C619.872 20.784 621.648 20.288 622.72 20.288C624.496 20.288 626.416 21.664 626.416 24.064C626.416 26.496 623.856 28.56 621.728 30.384H626.592V32.048H619.216V30.384ZM632.241 30.48C633.953 30.48 634.929 29.2 634.929 26.224C634.929 23.232 633.953 21.952 632.241 21.952C630.529 21.952 629.537 23.232 629.537 26.224C629.537 29.2 630.529 30.48 632.241 30.48ZM627.873 26.224C627.873 22.528 629.601 20.288 632.241 20.288C634.849 20.288 636.593 22.496 636.593 26.224C636.593 29.904 634.881 32.144 632.241 32.144C629.601 32.144 627.873 29.904 627.873 26.224ZM642.231 30.48C643.943 30.48 644.919 29.2 644.919 26.224C644.919 23.232 643.943 21.952 642.231 21.952C640.519 21.952 639.527 23.232 639.527 26.224C639.527 29.2 640.519 30.48 642.231 30.48ZM637.863 26.224C637.863 22.528 639.591 20.288 642.231 20.288C644.839 20.288 646.583 22.496 646.583 26.224C646.583 29.904 644.871 32.144 642.231 32.144C639.591 32.144 637.863 29.904 637.863 26.224Z" fill="#616161"/>
<path d="M660.085 84.892L659.903 87.44H661.961V88.42H659.819L659.623 91.486H661.625V92.48H659.539L659.357 95H658.335L658.531 92.48H655.787L655.605 95H654.583L654.765 92.48H652.777V91.486H654.849L655.059 88.42H653.127V87.44H655.129L655.311 84.892H656.333L656.151 87.44H658.895L659.049 84.892H660.085ZM655.857 91.486H658.601L658.811 88.42H656.081L655.857 91.486ZM670.109 84.892V85.872H664.719V89.442H669.171V90.422H664.719V95H663.711V84.892H670.109ZM678.107 84.892V85.872H672.717V89.442H677.169V90.422H672.717V95H671.709V84.892H678.107ZM684.019 95.112C680.967 95.112 679.035 92.774 679.035 89.946C679.035 87.118 680.967 84.78 684.019 84.78C685.405 84.78 686.651 85.368 687.547 86.292L686.805 86.992C686.091 86.25 685.111 85.816 684.019 85.816C681.569 85.816 680.057 87.65 680.057 89.946C680.057 92.256 681.569 94.09 684.019 94.09C685.111 94.09 686.091 93.642 686.805 92.9L687.547 93.6C686.651 94.524 685.405 95.112 684.019 95.112ZM690.862 94.986H689.77L693.844 85.9H688.93V84.892H694.936V85.9L690.862 94.986ZM698.328 94.986H697.236L701.31 85.9H696.396V84.892H702.402V85.9L698.328 94.986ZM706.913 94.02C709.125 94.02 710.973 92.172 710.973 89.946C710.973 87.72 709.125 85.872 706.913 85.872H705.149V94.02H706.913ZM704.141 95V84.892H706.913C709.685 84.892 711.953 87.16 711.953 89.946C711.953 92.732 709.685 95 706.913 95H704.141Z" fill="#616161"/>
<rect width="173" height="108" transform="translate(725)" fill="#EE6002"/>
<path d="M744.168 30.48C745.688 30.48 746.536 29.44 746.536 27.984C746.536 26.544 745.688 25.488 744.168 25.488C742.904 25.488 741.768 26.48 741.768 27.984C741.768 29.504 742.904 30.48 744.168 30.48ZM740.104 32V20H741.768V25.28C742.472 24.224 743.496 23.856 744.296 23.856C746.808 23.856 748.2 25.76 748.2 27.984C748.2 30.224 746.792 32.128 744.28 32.128C743.496 32.128 742.504 31.856 741.768 30.688V32H740.104ZM751.194 25.328C751.722 24.272 753.002 23.696 753.866 23.696V25.376C752.346 25.376 751.194 26.768 751.194 27.936V32.112H749.53V23.744H751.194V25.328ZM758.486 30.576C759.766 30.576 760.966 29.632 760.982 28.016C760.966 26.416 759.766 25.456 758.486 25.456C756.934 25.456 756.07 26.528 756.07 28.016C756.07 29.504 756.934 30.576 758.486 30.576ZM754.406 28.016C754.406 25.744 755.83 23.808 758.374 23.808C759.286 23.808 760.278 24.272 760.95 25.264V23.776H762.614V32.096L760.95 32.112V30.784C760.246 31.808 759.302 32.24 758.374 32.24C755.83 32.24 754.406 30.288 754.406 28.016ZM770.228 27.472C770.228 26.208 769.508 25.408 768.196 25.408C766.964 25.408 766.02 26.448 766.036 27.568V32.112H764.372V23.76H766.036V25.088C766.596 24.288 767.332 23.76 768.388 23.76C770.02 23.76 771.892 25.008 771.892 27.408V32.112H770.228V27.472ZM777.181 32.128C774.701 32.128 773.293 30.224 773.293 27.984C773.293 25.76 774.701 23.856 777.181 23.856C778.061 23.856 779.069 24.288 779.725 25.296V20H781.389V32H779.725V30.672C779.037 31.76 778.061 32.128 777.181 32.128ZM774.957 27.984C774.957 29.44 775.805 30.48 777.325 30.48C778.573 30.48 779.725 29.504 779.725 27.984C779.725 26.48 778.573 25.504 777.325 25.504C775.805 25.504 774.957 26.544 774.957 27.984ZM783.384 25.28H790.36V26.928H783.384V25.28ZM795.944 30.672C797.304 30.672 798.216 29.712 798.216 28.72C798.216 27.744 797.304 26.784 795.944 26.784C794.568 26.784 793.64 27.744 793.64 28.72C793.64 29.712 794.552 30.672 795.944 30.672ZM791.976 28.752C791.976 27.536 792.856 26.512 793.912 25.92C793.048 25.344 792.312 24.448 792.312 23.408C792.312 21.536 794.04 20.208 795.944 20.208C797.832 20.208 799.576 21.536 799.576 23.408C799.576 24.448 798.84 25.344 797.976 25.92C799.016 26.512 799.88 27.536 799.88 28.752C799.88 30.768 798.008 32.224 795.944 32.224C793.848 32.224 791.976 30.768 791.976 28.752ZM793.976 23.408C793.976 24.224 794.776 25.024 795.944 25.024C797.112 25.024 797.912 24.224 797.912 23.408C797.912 22.576 797.112 21.76 795.944 21.76C794.776 21.76 793.976 22.576 793.976 23.408ZM805.538 30.48C807.25 30.48 808.226 29.2 808.226 26.224C808.226 23.232 807.25 21.952 805.538 21.952C803.826 21.952 802.834 23.232 802.834 26.224C802.834 29.2 803.826 30.48 805.538 30.48ZM801.17 26.224C801.17 22.528 802.898 20.288 805.538 20.288C808.146 20.288 809.89 22.496 809.89 26.224C809.89 29.904 808.178 32.144 805.538 32.144C802.898 32.144 801.17 29.904 801.17 26.224ZM815.528 30.48C817.24 30.48 818.216 29.2 818.216 26.224C818.216 23.232 817.24 21.952 815.528 21.952C813.816 21.952 812.824 23.232 812.824 26.224C812.824 29.2 813.816 30.48 815.528 30.48ZM811.16 26.224C811.16 22.528 812.888 20.288 815.528 20.288C818.136 20.288 819.88 22.496 819.88 26.224C819.88 29.904 818.168 32.144 815.528 32.144C812.888 32.144 811.16 29.904 811.16 26.224Z" fill="white"/>
<path d="M834.288 84.892L834.106 87.44H836.164V88.42H834.022L833.826 91.486H835.828V92.48H833.742L833.56 95H832.538L832.734 92.48H829.99L829.808 95H828.786L828.968 92.48H826.98V91.486H829.052L829.262 88.42H827.33V87.44H829.332L829.514 84.892H830.536L830.354 87.44H833.098L833.252 84.892H834.288ZM830.06 91.486H832.804L833.014 88.42H830.284L830.06 91.486ZM844.312 84.892V85.872H838.782V89.302H843.598V90.282H838.782V94.02H844.312V95H837.774V84.892H844.312ZM852.72 84.892V85.872H847.19V89.302H852.006V90.282H847.19V94.02H852.72V95H846.182V84.892H852.72ZM857.464 94.104C858.808 94.104 859.816 93.124 859.816 91.794C859.816 90.464 858.808 89.47 857.464 89.47C856.134 89.47 855.168 90.464 855.168 91.794C855.168 93.124 856.134 94.104 857.464 94.104ZM854.16 91.794C854.16 91.192 854.328 90.618 854.608 90.128L857.604 84.892H858.766L856.652 88.574C856.918 88.504 857.198 88.462 857.492 88.462C859.326 88.462 860.824 89.96 860.824 91.794C860.824 93.614 859.326 95.112 857.492 95.112C855.672 95.112 854.16 93.614 854.16 91.794ZM865.702 94.09C867.298 94.09 868.278 92.76 868.278 89.946C868.278 87.132 867.298 85.816 865.702 85.816C864.092 85.816 863.112 87.132 863.112 89.946C863.112 92.76 864.092 94.09 865.702 94.09ZM862.104 89.946C862.104 86.712 863.532 84.808 865.702 84.808C867.858 84.808 869.286 86.712 869.286 89.946C869.286 93.18 867.872 95.098 865.702 95.098C863.518 95.098 862.104 93.18 862.104 89.946ZM874.151 94.09C875.747 94.09 876.727 92.76 876.727 89.946C876.727 87.132 875.747 85.816 874.151 85.816C872.541 85.816 871.561 87.132 871.561 89.946C871.561 92.76 872.541 94.09 874.151 94.09ZM870.553 89.946C870.553 86.712 871.981 84.808 874.151 84.808C876.307 84.808 877.735 86.712 877.735 89.946C877.735 93.18 876.321 95.098 874.151 95.098C871.967 95.098 870.553 93.18 870.553 89.946ZM879.073 94.006C881.075 92.06 884.113 89.722 884.113 87.888C884.113 86.488 883.189 85.774 882.097 85.774C881.327 85.774 880.473 86.04 879.955 87.23L879.031 86.838C879.759 85.186 881.131 84.766 882.097 84.766C883.595 84.766 885.121 85.914 885.121 87.888C885.121 89.974 882.517 92.2 880.557 94.006H885.289V95.014H879.073V94.006Z" fill="white"/>
</svg>
