<svg width="139" height="58" viewBox="0 0 139 58" fill="none" xmlns="http://www.w3.org/2000/svg">
<g clip-path="url(#clip0_311_24970)">
<g clip-path="url(#clip1_311_24970)">
<path d="M111.491 11.4438H99.766V15.1957H111.491V18.4787H105.628V20.8236H123.351V18.4787H117.489V5.3469H120.772V8.16085H129.213V5.89927C125.149 2.90815 120.042 1.12598 114.492 1.12598C107.661 1.12598 101.491 3.82529 97.124 8.16085H111.496V11.4438H111.491Z" fill="#3777BC"/>
<path d="M126.629 20.8236H138.281C137.64 16.2535 135.566 12.1107 132.491 8.81738V18.4786H126.629V20.8236Z" fill="#3777BC"/>
<path d="M90.4854 24.1066C90.5583 29.7501 92.8095 34.8986 96.478 38.833V32.5485H108.203V29.7345H96.478V26.4516H111.486V35.8314H99.761V38.7808C101.137 38.9997 102.544 39.1144 103.982 39.1144C105.003 39.1144 106.014 39.057 107.004 38.9424C108.542 38.7704 110.037 38.4682 111.481 38.0461C111.647 38.3014 111.772 38.5933 111.835 38.9111C111.871 39.0831 111.887 39.255 111.882 39.427C111.871 40.563 111.069 41.5687 109.917 41.8084C109.912 41.8084 109.907 41.8084 109.896 41.8084C107.984 42.1941 105.999 42.3921 103.971 42.3921C102.747 42.3921 101.538 42.3191 100.35 42.1732C104.31 44.9038 109.193 46.5192 114.472 46.5192C114.472 52.2305 111.21 56.9152 107.072 57.3269C106.843 57.3477 106.739 57.6239 106.9 57.7854C106.952 57.8376 107.02 57.8636 107.093 57.8636C124.347 57.7959 138.328 42.7308 138.468 24.0962H90.4697L90.4854 24.1066ZM128.39 38.6454H121.59C119.323 38.6454 117.484 36.8059 117.484 34.5391V26.4464H132.491V34.5391C132.491 36.8059 130.652 38.6454 128.385 38.6454H128.39Z" fill="#3777BC"/>
<path d="M102.346 18.4786H96.4838V8.81738C93.4145 12.1107 91.3353 16.2535 90.6943 20.8236H102.346V18.4786Z" fill="#3777BC"/>
<path d="M120.767 34.5441C120.767 34.9975 121.137 35.3623 121.585 35.3623H128.385C128.839 35.3623 129.204 34.9923 129.204 34.5441V29.7344H120.762V34.5441H120.767Z" fill="#3777BC"/>
<path d="M129.208 11.4438H120.767V15.1958H129.208V11.4438Z" fill="#3777BC"/>
<path d="M10.5223 28.7969C5.47282 28.7969 1.37695 32.8927 1.37695 37.9422C1.37695 42.9917 5.47282 47.0876 10.5223 47.0876C15.5718 47.0876 19.6676 42.9917 19.6676 37.9422C19.6676 32.8927 15.5718 28.7969 10.5223 28.7969ZM10.5223 43.3356C7.54159 43.3356 5.12889 40.9229 5.12889 37.9422C5.12889 34.9615 7.54159 32.5488 10.5223 32.5488C13.503 32.5488 15.9157 34.9615 15.9157 37.9422C15.9157 40.9229 13.503 43.3356 10.5223 43.3356Z" fill="#FF7700"/>
<path d="M76.4159 38.6457C80.4283 38.6457 83.6852 35.3888 83.6852 31.3763C83.6852 27.3638 80.4283 24.1069 76.4159 24.1069C72.4034 24.1069 69.1465 27.3638 69.1465 31.3763C69.1465 35.3888 72.4034 38.6457 76.4159 38.6457ZM76.4159 27.8589C78.3596 27.8589 79.9333 29.4326 79.9333 31.3763C79.9333 33.32 78.3596 34.8937 76.4159 34.8937C74.4721 34.8937 72.8984 33.32 72.8984 31.3763C72.8984 29.4326 74.4721 27.8589 76.4159 27.8589Z" fill="#FF7700"/>
<path d="M27.1719 25.0449H23.4199V56.4674H27.1719V25.0449Z" fill="#FF7700"/>
<path d="M47.5726 46.1028C49.485 46.009 51.3558 45.7693 53.1796 45.4046C54.6908 45.0867 55.6653 43.6068 55.3578 42.0903C55.3422 42.0174 55.3213 41.9444 55.3005 41.8715L55.0712 41.0794C52.0957 41.9392 48.9483 42.3978 45.6914 42.3978C45.6341 42.3978 45.5767 42.3978 45.5194 42.3978C43.9613 42.3874 42.4293 42.2779 40.9285 42.0643C40.892 42.0591 40.8503 42.0539 40.8139 42.0487C40.3866 41.9601 40.0687 41.5849 40.0687 41.1315V38.6511H55.0764V27.8643H36.3168V31.6162H51.3245V34.8991H36.3168V41.1315C36.3168 43.4661 38.0208 45.3993 40.2563 45.7589C40.3136 45.7693 40.3761 45.7745 40.4335 45.785C41.5486 45.9413 42.6794 46.0507 43.8206 46.1028V49.9017H31.8613V53.6536H59.5318V49.9017H47.5726V46.1028Z" fill="#FF7700"/>
<path d="M90.4852 43.8047V40.0527H62.3457V43.8047H74.5395V46.6186H66.921V52.7155C66.921 55.3054 69.021 57.4054 71.6109 57.4054H81.2252C83.8151 57.4054 85.9151 55.3054 85.9151 52.7155V46.6186H78.2966V43.8047H90.4904H90.4852ZM82.158 50.3706V52.7155C82.158 53.2314 81.7359 53.6535 81.22 53.6535H71.6057C71.0898 53.6535 70.6677 53.2314 70.6677 52.7155V50.3706H82.158Z" fill="#FF7700"/>
</g>
</g>
<defs>
<clipPath id="clip0_311_24970">
<rect width="138" height="57" fill="white" transform="translate(0.980469 0.5)"/>
</clipPath>
<clipPath id="clip1_311_24970">
<rect width="137.107" height="56.748" fill="white" transform="translate(1.37793 1.12598)"/>
</clipPath>
</defs>
</svg>
