<svg width="608" height="194" viewBox="0 0 608 194" fill="none" xmlns="http://www.w3.org/2000/svg">
<rect x="24.5" y="16.5" width="3" height="3" fill="#D9D9D9"/>
<path d="M22.9214 53.2033C24.9234 51.2573 27.9614 48.9193 27.9614 47.0853C27.9614 45.6853 27.0374 44.9713 25.9454 44.9713C25.1754 44.9713 24.3214 45.2373 23.8034 46.4273L22.8794 46.0353C23.6074 44.3833 24.9794 43.9633 25.9454 43.9633C27.4434 43.9633 28.9694 45.1113 28.9694 47.0853C28.9694 49.1713 26.3654 51.3973 24.4054 53.2033H29.1374V54.2113H22.9214V53.2033Z" fill="#616161"/>
<rect x="92.7124" y="14.5" width="6" height="6" fill="#D9D9D9"/>
<path d="M97.7464 43.7099V50.0799H99.2444V51.0599H97.7464V53.8179H96.7384V51.0599H92.1744V50.0799L96.7664 43.7099H97.7464ZM93.4204 50.0799H96.7384V45.4739L93.4204 50.0799Z" fill="#616161"/>
<rect x="161.425" y="13.5" width="8" height="8" fill="#D9D9D9"/>
<path d="M166.89 52.542C168.234 52.542 169.242 51.562 169.242 50.232C169.242 48.902 168.234 47.908 166.89 47.908C165.56 47.908 164.594 48.902 164.594 50.232C164.594 51.562 165.56 52.542 166.89 52.542ZM163.586 50.232C163.586 49.63 163.754 49.056 164.034 48.566L167.03 43.33H168.192L166.078 47.012C166.344 46.942 166.624 46.9 166.918 46.9C168.752 46.9 170.25 48.398 170.25 50.232C170.25 52.052 168.752 53.55 166.918 53.55C165.098 53.55 163.586 52.052 163.586 50.232Z" fill="#616161"/>
<rect x="233.138" y="11.5" width="11" height="11" fill="#D9D9D9"/>
<path d="M238.636 52.1761C239.98 52.1761 240.918 51.1821 240.918 50.1881C240.918 49.2081 239.98 48.2421 238.636 48.2421C237.306 48.2421 236.354 49.2081 236.354 50.1881C236.354 51.1821 237.292 52.1761 238.636 52.1761ZM235.346 50.1601C235.346 49.1241 236.088 48.2281 236.984 47.7101C236.256 47.2201 235.612 46.4501 235.612 45.5401C235.612 43.9301 237.054 42.7681 238.636 42.7681C240.218 42.7681 241.674 43.9301 241.674 45.5401C241.674 46.4501 241.03 47.2201 240.302 47.7101C241.184 48.2281 241.926 49.1241 241.926 50.1601C241.926 51.9101 240.372 53.1841 238.636 53.1841C236.9 53.1841 235.346 51.9101 235.346 50.1601ZM236.62 45.5121C236.62 46.3661 237.446 47.2201 238.636 47.2201C239.84 47.2201 240.666 46.3661 240.666 45.5121C240.666 44.6441 239.84 43.7761 238.636 43.7761C237.446 43.7761 236.62 44.6441 236.62 45.5121Z" fill="#616161"/>
<rect x="304.851" y="9.5" width="17" height="17" fill="#D9D9D9"/>
<path d="M310.801 44.2043V54.2983H309.793V45.4223L308.365 46.3743L307.805 45.5343L309.793 44.2043H310.801ZM312.585 53.3043C314.587 51.3583 317.625 49.0203 317.625 47.1863C317.625 45.7863 316.701 45.0723 315.609 45.0723C314.839 45.0723 313.985 45.3383 313.467 46.5283L312.543 46.1363C313.271 44.4843 314.643 44.0643 315.609 44.0643C317.107 44.0643 318.633 45.2123 318.633 47.1863C318.633 49.2723 316.029 51.4983 314.069 53.3043H318.801V54.3123H312.585V53.3043Z" fill="#616161"/>
<rect x="382.563" y="6.5" width="22" height="22" fill="#D9D9D9"/>
<path d="M390.808 43.4446V53.5386H389.8V44.6626L388.372 45.6146L387.812 44.7746L389.8 43.4446H390.808ZM395.841 52.6426C397.185 52.6426 398.193 51.6626 398.193 50.3326C398.193 49.0026 397.185 48.0086 395.841 48.0086C394.511 48.0086 393.545 49.0026 393.545 50.3326C393.545 51.6626 394.511 52.6426 395.841 52.6426ZM392.537 50.3326C392.537 49.7306 392.705 49.1566 392.985 48.6666L395.981 43.4306H397.143L395.029 47.1126C395.295 47.0426 395.575 47.0006 395.869 47.0006C397.703 47.0006 399.201 48.4986 399.201 50.3326C399.201 52.1526 397.703 53.6506 395.869 53.6506C394.049 53.6506 392.537 52.1526 392.537 50.3326Z" fill="#616161"/>
<rect x="465.275" y="3.5" width="28" height="28" fill="#D9D9D9"/>
<path d="M472.072 52.7848C474.074 50.8388 477.112 48.5008 477.112 46.6668C477.112 45.2668 476.188 44.5528 475.096 44.5528C474.326 44.5528 473.472 44.8188 472.954 46.0088L472.03 45.6168C472.758 43.9648 474.13 43.5448 475.096 43.5448C476.594 43.5448 478.12 44.6928 478.12 46.6668C478.12 48.7528 475.516 50.9788 473.556 52.7848H478.288V53.7928H472.072V52.7848ZM482.947 52.8688C484.543 52.8688 485.523 51.5388 485.523 48.7248C485.523 45.9108 484.543 44.5948 482.947 44.5948C481.337 44.5948 480.357 45.9108 480.357 48.7248C480.357 51.5388 481.337 52.8688 482.947 52.8688ZM479.349 48.7248C479.349 45.4908 480.777 43.5868 482.947 43.5868C485.103 43.5868 486.531 45.4908 486.531 48.7248C486.531 51.9588 485.117 53.8768 482.947 53.8768C480.763 53.8768 479.349 51.9588 479.349 48.7248Z" fill="#616161"/>
<rect x="553.988" y="0.5" width="33" height="33" fill="#D9D9D9"/>
<path d="M563.333 52.0255C565.335 50.0795 568.373 47.7415 568.373 45.9075C568.373 44.5075 567.449 43.7935 566.357 43.7935C565.587 43.7935 564.733 44.0595 564.215 45.2495L563.291 44.8575C564.019 43.2055 565.391 42.7855 566.357 42.7855C567.855 42.7855 569.381 43.9335 569.381 45.9075C569.381 47.9935 566.777 50.2195 564.817 52.0255H569.549V53.0335H563.333V52.0255ZM576.196 42.9115V49.2815H577.694V50.2615H576.196V53.0195H575.188V50.2615H570.624V49.2815L575.216 42.9115H576.196ZM571.87 49.2815H575.188V44.6755L571.87 49.2815Z" fill="#616161"/>
<rect x="0.5" y="100.577" width="39" height="39" fill="#D9D9D9"/>
<path d="M13.0905 189.839C15.0925 187.893 18.1305 185.555 18.1305 183.721C18.1305 182.321 17.2065 181.607 16.1145 181.607C15.3445 181.607 14.4905 181.873 13.9725 183.063L13.0485 182.671C13.7765 181.019 15.1485 180.599 16.1145 180.599C17.6125 180.599 19.1385 181.747 19.1385 183.721C19.1385 185.807 16.5345 188.033 14.5745 189.839H19.3065V190.847H13.0905V189.839ZM23.6718 189.951C25.0158 189.951 25.9538 188.957 25.9538 187.963C25.9538 186.983 25.0158 186.017 23.6718 186.017C22.3418 186.017 21.3898 186.983 21.3898 187.963C21.3898 188.957 22.3278 189.951 23.6718 189.951ZM20.3818 187.935C20.3818 186.899 21.1238 186.003 22.0198 185.485C21.2918 184.995 20.6478 184.225 20.6478 183.315C20.6478 181.705 22.0898 180.543 23.6718 180.543C25.2538 180.543 26.7098 181.705 26.7098 183.315C26.7098 184.225 26.0658 184.995 25.3378 185.485C26.2198 186.003 26.9618 186.899 26.9618 187.935C26.9618 189.685 25.4078 190.959 23.6718 190.959C21.9358 190.959 20.3818 189.685 20.3818 187.935ZM21.6558 183.287C21.6558 184.141 22.4818 184.995 23.6718 184.995C24.8758 184.995 25.7018 184.141 25.7018 183.287C25.7018 182.419 24.8758 181.551 23.6718 181.551C22.4818 181.551 21.6558 182.419 21.6558 183.287Z" fill="#616161"/>
<rect x="56.0581" y="100.577" width="44" height="44" fill="#D9D9D9"/>
<path d="M76.1108 185.091C76.9368 185.595 77.6368 186.449 77.6368 187.457C77.6368 189.151 76.0968 190.397 74.3748 190.397C72.6668 190.397 71.1268 189.151 71.1268 187.457H72.1348C72.1348 188.409 73.0448 189.375 74.3748 189.375C75.7188 189.375 76.6288 188.423 76.6288 187.471C76.6288 186.519 76.0128 185.581 74.4028 185.581H73.6608V184.573H74.4028C75.7888 184.573 76.4888 183.747 76.4888 182.851C76.4888 182.011 75.6768 181.129 74.4588 181.129C73.2408 181.129 72.4148 181.997 72.4148 182.879H71.4068C71.4068 181.297 72.8628 180.121 74.4588 180.121C76.0688 180.121 77.4968 181.297 77.4968 182.879C77.4968 183.803 76.8668 184.587 76.1108 185.091ZM78.7762 189.319C80.7782 187.373 83.8162 185.035 83.8162 183.201C83.8162 181.801 82.8922 181.087 81.8002 181.087C81.0302 181.087 80.1762 181.353 79.6582 182.543L78.7342 182.151C79.4622 180.499 80.8342 180.079 81.8002 180.079C83.2982 180.079 84.8242 181.227 84.8242 183.201C84.8242 185.287 82.2202 187.513 80.2602 189.319H84.9922V190.327H78.7762V189.319Z" fill="#616161"/>
<rect x="116.616" y="97.5771" width="50" height="50" fill="#D9D9D9"/>
<path d="M139.464 185.332C140.29 185.836 140.99 186.69 140.99 187.698C140.99 189.392 139.45 190.638 137.728 190.638C136.02 190.638 134.48 189.392 134.48 187.698H135.488C135.488 188.65 136.398 189.616 137.728 189.616C139.072 189.616 139.982 188.664 139.982 187.712C139.982 186.76 139.366 185.822 137.756 185.822H137.014V184.814H137.756C139.142 184.814 139.842 183.988 139.842 183.092C139.842 182.252 139.03 181.37 137.812 181.37C136.594 181.37 135.768 182.238 135.768 183.12H134.76C134.76 181.538 136.216 180.362 137.812 180.362C139.422 180.362 140.85 181.538 140.85 183.12C140.85 184.044 140.22 184.828 139.464 185.332ZM145.377 189.658C146.721 189.658 147.729 188.678 147.729 187.348C147.729 186.018 146.721 185.024 145.377 185.024C144.047 185.024 143.081 186.018 143.081 187.348C143.081 188.678 144.047 189.658 145.377 189.658ZM142.073 187.348C142.073 186.746 142.241 186.172 142.521 185.682L145.517 180.446H146.679L144.565 184.128C144.831 184.058 145.111 184.016 145.405 184.016C147.239 184.016 148.737 185.514 148.737 187.348C148.737 189.168 147.239 190.666 145.405 190.666C143.585 190.666 142.073 189.168 142.073 187.348Z" fill="#616161"/>
<rect x="183.174" y="95.5771" width="55" height="55" fill="#D9D9D9"/>
<path d="M208.583 180.686V187.056H210.081V188.036H208.583V190.794H207.575V188.036H203.011V187.056L207.603 180.686H208.583ZM204.257 187.056H207.575V182.45L204.257 187.056ZM214.749 189.884C216.345 189.884 217.325 188.554 217.325 185.74C217.325 182.926 216.345 181.61 214.749 181.61C213.139 181.61 212.159 182.926 212.159 185.74C212.159 188.554 213.139 189.884 214.749 189.884ZM211.151 185.74C211.151 182.506 212.579 180.602 214.749 180.602C216.905 180.602 218.333 182.506 218.333 185.74C218.333 188.974 216.919 190.892 214.749 190.892C212.565 190.892 211.151 188.974 211.151 185.74Z" fill="#616161"/>
<rect x="254.732" y="89.5771" width="66" height="66" fill="#D9D9D9"/>
<path d="M285.935 180.166V186.536H287.433V187.516H285.935V190.274H284.927V187.516H280.363V186.536L284.955 180.166H285.935ZM281.609 186.536H284.927V181.93L281.609 186.536ZM291.807 189.392C293.151 189.392 294.089 188.398 294.089 187.404C294.089 186.424 293.151 185.458 291.807 185.458C290.477 185.458 289.525 186.424 289.525 187.404C289.525 188.398 290.463 189.392 291.807 189.392ZM288.517 187.376C288.517 186.34 289.259 185.444 290.155 184.926C289.427 184.436 288.783 183.666 288.783 182.756C288.783 181.146 290.225 179.984 291.807 179.984C293.389 179.984 294.845 181.146 294.845 182.756C294.845 183.666 294.201 184.436 293.473 184.926C294.355 185.444 295.097 186.34 295.097 187.376C295.097 189.126 293.543 190.4 291.807 190.4C290.071 190.4 288.517 189.126 288.517 187.376ZM289.791 182.728C289.791 183.582 290.617 184.436 291.807 184.436C293.011 184.436 293.837 183.582 293.837 182.728C293.837 181.86 293.011 180.992 291.807 180.992C290.617 180.992 289.791 181.86 289.791 182.728Z" fill="#616161"/>
<rect x="337.29" y="86.5771" width="72" height="72" fill="#D9D9D9"/>
<path d="M367.816 185.741L366.808 185.713L366.99 180.393H372.17V181.401H367.97L367.858 184.411C368.362 184.117 368.95 183.949 369.566 183.949C371.4 183.949 372.898 185.489 372.898 187.267C372.898 189.199 371.386 190.655 369.566 190.655C367.998 190.655 366.668 189.577 366.332 188.121L367.312 187.897C367.55 188.961 368.418 189.647 369.566 189.647C370.91 189.647 371.89 188.709 371.89 187.267C371.89 185.965 370.91 184.957 369.566 184.957C368.838 184.957 368.25 185.237 367.816 185.741ZM374.049 189.521C376.051 187.575 379.089 185.237 379.089 183.403C379.089 182.003 378.165 181.289 377.073 181.289C376.303 181.289 375.449 181.555 374.931 182.745L374.007 182.353C374.735 180.701 376.107 180.281 377.073 180.281C378.571 180.281 380.097 181.429 380.097 183.403C380.097 185.489 377.493 187.715 375.533 189.521H380.265V190.529H374.049V189.521Z" fill="#616161"/>
<rect x="425.848" y="84.5771" width="77" height="77" fill="#D9D9D9"/>
<path d="M458.668 185.981L457.66 185.953L457.842 180.633H463.022V181.641H458.822L458.71 184.651C459.214 184.357 459.802 184.189 460.418 184.189C462.252 184.189 463.75 185.729 463.75 187.507C463.75 189.439 462.238 190.895 460.418 190.895C458.85 190.895 457.52 189.817 457.184 188.361L458.164 188.137C458.402 189.201 459.27 189.887 460.418 189.887C461.762 189.887 462.742 188.949 462.742 187.507C462.742 186.205 461.762 185.197 460.418 185.197C459.69 185.197 459.102 185.477 458.668 185.981ZM468.15 189.859C469.494 189.859 470.502 188.879 470.502 187.549C470.502 186.219 469.494 185.225 468.15 185.225C466.82 185.225 465.854 186.219 465.854 187.549C465.854 188.879 466.82 189.859 468.15 189.859ZM464.846 187.549C464.846 186.947 465.014 186.373 465.294 185.883L468.29 180.647H469.452L467.338 184.329C467.604 184.259 467.884 184.217 468.178 184.217C470.012 184.217 471.51 185.715 471.51 187.549C471.51 189.369 470.012 190.867 468.178 190.867C466.358 190.867 464.846 189.369 464.846 187.549Z" fill="#616161"/>
<rect x="519.406" y="78.5771" width="88" height="88" fill="#D9D9D9"/>
<path d="M559.293 189.34C560.637 189.34 561.645 188.36 561.645 187.03C561.645 185.7 560.637 184.706 559.293 184.706C557.963 184.706 556.997 185.7 556.997 187.03C556.997 188.36 557.963 189.34 559.293 189.34ZM555.989 187.03C555.989 186.428 556.157 185.854 556.437 185.364L559.433 180.128H560.595L558.481 183.81C558.747 183.74 559.027 183.698 559.321 183.698C561.155 183.698 562.653 185.196 562.653 187.03C562.653 188.85 561.155 190.348 559.321 190.348C557.501 190.348 555.989 188.85 555.989 187.03ZM569.319 180.128V186.498H570.817V187.478H569.319V190.236H568.311V187.478H563.747V186.498L568.339 180.128H569.319ZM564.993 186.498H568.311V181.892L564.993 186.498Z" fill="#616161"/>
</svg>
