<svg width="702" height="145" viewBox="0 0 702 145" fill="none" xmlns="http://www.w3.org/2000/svg">
<path d="M4.29085 2.19407V10H2.75V3.97033L0.898832 4.55886V3.34436L4.125 2.19407H4.29085ZM7.91828 8.82831H8.01994C8.44795 8.82831 8.81533 8.77659 9.12208 8.67315C9.43239 8.56615 9.68741 8.41278 9.88715 8.21304C10.0869 8.0133 10.2349 7.76897 10.3312 7.48006C10.4275 7.18758 10.4757 6.85587 10.4757 6.48492V5.00827C10.4757 4.72649 10.4471 4.4786 10.3901 4.2646C10.3366 4.05059 10.2581 3.87403 10.1547 3.73493C10.0548 3.59225 9.93709 3.48525 9.80155 3.41391C9.66958 3.34258 9.52334 3.30691 9.36283 3.30691C9.19163 3.30691 9.04004 3.34971 8.90807 3.43532C8.7761 3.51735 8.66374 3.62971 8.57101 3.77238C8.48184 3.91505 8.41228 4.07912 8.36235 4.2646C8.31598 4.4465 8.2928 4.63733 8.2928 4.83707C8.2928 5.03681 8.31598 5.22763 8.36235 5.40954C8.40872 5.58788 8.47827 5.7466 8.57101 5.8857C8.66374 6.02124 8.77966 6.13003 8.91877 6.21206C9.05787 6.29053 9.22195 6.32977 9.41099 6.32977C9.59289 6.32977 9.75518 6.29588 9.89785 6.22812C10.0441 6.15678 10.1671 6.06404 10.267 5.94991C10.3705 5.83577 10.4489 5.70915 10.5024 5.57004C10.5595 5.43094 10.588 5.29005 10.588 5.14738L11.0963 5.42559C11.0963 5.67526 11.0428 5.92137 10.9358 6.16391C10.8288 6.40645 10.679 6.6276 10.4864 6.82734C10.2973 7.02351 10.078 7.18045 9.8283 7.29815C9.57863 7.41586 9.31112 7.47471 9.02577 7.47471C8.66196 7.47471 8.33916 7.40872 8.05739 7.27675C7.77561 7.14121 7.53664 6.95574 7.34046 6.72033C7.14786 6.48136 7.00162 6.20315 6.90175 5.8857C6.80188 5.56826 6.75194 5.22406 6.75194 4.85312C6.75194 4.47504 6.81258 4.12014 6.93385 3.78843C7.05869 3.45672 7.23524 3.16424 7.46352 2.911C7.69536 2.65775 7.97178 2.4598 8.2928 2.31713C8.61737 2.17089 8.97762 2.09777 9.37353 2.09777C9.76945 2.09777 10.1297 2.17445 10.4543 2.32783C10.7789 2.4812 11.0571 2.69877 11.2889 2.98055C11.5207 3.25876 11.6991 3.59225 11.8239 3.98103C11.9523 4.36982 12.0165 4.8014 12.0165 5.27578V5.8108C12.0165 6.31729 11.9612 6.7881 11.8507 7.22325C11.7437 7.6584 11.5814 8.05253 11.3638 8.40564C11.1498 8.75519 10.8823 9.0548 10.5613 9.30448C10.2438 9.55415 9.87467 9.74497 9.45379 9.87695C9.03291 10.0089 8.56209 10.0749 8.04134 10.0749H7.91828V8.82831ZM18.4475 8.79621V10H13.1187V8.97276L15.6386 6.27092C15.8919 5.98914 16.0916 5.74125 16.2378 5.52724C16.3841 5.30967 16.4893 5.11528 16.5535 4.94407C16.6213 4.7693 16.6551 4.60344 16.6551 4.4465C16.6551 4.21109 16.6159 4.00957 16.5374 3.84193C16.459 3.67072 16.3431 3.53875 16.1897 3.44602C16.0399 3.35328 15.8544 3.30691 15.6333 3.30691C15.3979 3.30691 15.1945 3.36398 15.0233 3.47812C14.8557 3.59225 14.7273 3.75098 14.6381 3.95428C14.5525 4.15759 14.5097 4.38765 14.5097 4.64446H12.9635C12.9635 4.18078 13.0741 3.75633 13.2952 3.37111C13.5164 2.98233 13.8285 2.6738 14.2315 2.44553C14.6346 2.21369 15.1125 2.09777 15.6654 2.09777C16.2111 2.09777 16.6712 2.18694 17.0457 2.36528C17.4238 2.54005 17.7091 2.79329 17.9017 3.125C18.0979 3.45315 18.196 3.8455 18.196 4.30205C18.196 4.55886 18.155 4.81031 18.0729 5.05642C17.9909 5.29897 17.8732 5.54151 17.7198 5.78405C17.57 6.02302 17.3881 6.26557 17.1741 6.51168C16.9601 6.75778 16.7229 7.01281 16.4625 7.27675L15.1089 8.79621H18.4475ZM22.856 8.92461L21.9518 8.05253L26.1196 3.79913L27.0238 4.67656L22.856 8.92461ZM26.125 8.92461L21.9572 4.67656L22.8614 3.79913L27.0292 8.05253L26.125 8.92461ZM34.4445 2.19407V10H32.9037V3.97033L31.0525 4.55886V3.34436L34.2787 2.19407H34.4445ZM38.072 8.82831H38.1736C38.6016 8.82831 38.969 8.77659 39.2758 8.67315C39.5861 8.56615 39.8411 8.41278 40.0408 8.21304C40.2406 8.0133 40.3886 7.76897 40.4849 7.48006C40.5812 7.18758 40.6294 6.85587 40.6294 6.48492V5.00827C40.6294 4.72649 40.6008 4.4786 40.5437 4.2646C40.4902 4.05059 40.4118 3.87403 40.3083 3.73493C40.2085 3.59225 40.0908 3.48525 39.9552 3.41391C39.8233 3.34258 39.677 3.30691 39.5165 3.30691C39.3453 3.30691 39.1937 3.34971 39.0617 3.43532C38.9298 3.51735 38.8174 3.62971 38.7247 3.77238C38.6355 3.91505 38.566 4.07912 38.516 4.2646C38.4697 4.4465 38.4465 4.63733 38.4465 4.83707C38.4465 5.03681 38.4697 5.22763 38.516 5.40954C38.5624 5.58788 38.6319 5.7466 38.7247 5.8857C38.8174 6.02124 38.9333 6.13003 39.0724 6.21206C39.2116 6.29053 39.3756 6.32977 39.5647 6.32977C39.7466 6.32977 39.9089 6.29588 40.0515 6.22812C40.1978 6.15678 40.3208 6.06404 40.4207 5.94991C40.5241 5.83577 40.6026 5.70915 40.6561 5.57004C40.7132 5.43094 40.7417 5.29005 40.7417 5.14738L41.25 5.42559C41.25 5.67526 41.1965 5.92137 41.0895 6.16391C40.9825 6.40645 40.8327 6.6276 40.6401 6.82734C40.451 7.02351 40.2317 7.18045 39.982 7.29815C39.7323 7.41586 39.4648 7.47471 39.1795 7.47471C38.8156 7.47471 38.4928 7.40872 38.2111 7.27675C37.9293 7.14121 37.6903 6.95574 37.4941 6.72033C37.3015 6.48136 37.1553 6.20315 37.0554 5.8857C36.9556 5.56826 36.9056 5.22406 36.9056 4.85312C36.9056 4.47504 36.9663 4.12014 37.0875 3.78843C37.2124 3.45672 37.3889 3.16424 37.6172 2.911C37.849 2.65775 38.1255 2.4598 38.4465 2.31713C38.7711 2.17089 39.1313 2.09777 39.5272 2.09777C39.9231 2.09777 40.2834 2.17445 40.608 2.32783C40.9325 2.4812 41.2107 2.69877 41.4426 2.98055C41.6744 3.25876 41.8528 3.59225 41.9776 3.98103C42.106 4.36982 42.1702 4.8014 42.1702 5.27578V5.8108C42.1702 6.31729 42.1149 6.7881 42.0044 7.22325C41.8973 7.6584 41.7351 8.05253 41.5175 8.40564C41.3035 8.75519 41.036 9.0548 40.715 9.30448C40.3975 9.55415 40.0283 9.74497 39.6075 9.87695C39.1866 10.0089 38.7158 10.0749 38.195 10.0749H38.072V8.82831ZM48.6011 8.79621V10H43.2723V8.97276L45.7923 6.27092C46.0455 5.98914 46.2453 5.74125 46.3915 5.52724C46.5377 5.30967 46.643 5.11528 46.7072 4.94407C46.7749 4.7693 46.8088 4.60344 46.8088 4.4465C46.8088 4.21109 46.7696 4.00957 46.6911 3.84193C46.6126 3.67072 46.4967 3.53875 46.3434 3.44602C46.1936 3.35328 46.0081 3.30691 45.7869 3.30691C45.5515 3.30691 45.3482 3.36398 45.177 3.47812C45.0094 3.59225 44.881 3.75098 44.7918 3.95428C44.7062 4.15759 44.6634 4.38765 44.6634 4.64446H43.1172C43.1172 4.18078 43.2278 3.75633 43.4489 3.37111C43.67 2.98233 43.9821 2.6738 44.3852 2.44553C44.7882 2.21369 45.2662 2.09777 45.819 2.09777C46.3648 2.09777 46.8249 2.18694 47.1994 2.36528C47.5775 2.54005 47.8628 2.79329 48.0554 3.125C48.2516 3.45315 48.3497 3.8455 48.3497 4.30205C48.3497 4.55886 48.3087 4.81031 48.2266 5.05642C48.1446 5.29897 48.0269 5.54151 47.8735 5.78405C47.7237 6.02302 47.5418 6.26557 47.3278 6.51168C47.1138 6.75778 46.8766 7.01281 46.6162 7.27675L45.2626 8.79621H48.6011ZM52.4265 6.95039V6.83269C52.4265 6.08009 52.505 5.39705 52.6619 4.78356C52.8224 4.17008 53.0329 3.63149 53.2933 3.16781C53.5572 2.70056 53.8443 2.31356 54.1546 2.00681C54.4649 1.70007 54.7735 1.47893 55.0802 1.34339L55.3745 2.15662C55.1712 2.30643 54.9714 2.5133 54.7753 2.77724C54.5791 3.03762 54.4007 3.35863 54.2402 3.74028C54.0833 4.11836 53.9567 4.56421 53.8604 5.07782C53.7641 5.58788 53.7159 6.16926 53.7159 6.82199V6.96109C53.7159 7.61381 53.7641 8.19699 53.8604 8.7106C53.9567 9.22066 54.0833 9.6665 54.2402 10.0482C54.4007 10.4334 54.5791 10.7579 54.7753 11.0219C54.9714 11.2858 55.1712 11.4945 55.3745 11.6479L55.0802 12.4397C54.7735 12.3041 54.4649 12.083 54.1546 11.7763C53.8443 11.4731 53.5572 11.0879 53.2933 10.6206C53.0329 10.1569 52.8224 9.61835 52.6619 9.00486C52.505 8.38781 52.4265 7.70298 52.4265 6.95039ZM57.429 4.21109L58.3866 5.97131L59.3711 4.21109H61.0136L59.3764 7.04134L61.0885 10H59.4406L58.3973 8.13813L57.354 10H55.7062L57.4183 7.04134L55.7811 4.21109H57.429ZM63.0038 4.21109L63.9615 5.97131L64.946 4.21109H66.5885L64.9513 7.04134L66.6634 10H65.0155L63.9722 8.13813L62.9289 10H61.2811L62.9931 7.04134L61.356 4.21109H63.0038ZM68.5787 4.21109L69.5364 5.97131L70.5209 4.21109H72.1634L70.5262 7.04134L72.2383 10H70.5904L69.5471 8.13813L68.5038 10H66.856L68.568 7.04134L66.9309 4.21109H68.5787ZM74.4158 1.78211V10H72.875V1.78211H74.4158ZM74.1965 6.90224H73.7738C73.7774 6.49919 73.8309 6.12825 73.9343 5.7894C74.0377 5.44699 74.1858 5.15094 74.3784 4.90127C74.571 4.64803 74.801 4.45185 75.0685 4.31275C75.3396 4.17364 75.6392 4.10409 75.9674 4.10409C76.2527 4.10409 76.5113 4.14511 76.7431 4.22714C76.9786 4.30561 77.1801 4.43402 77.3477 4.61236C77.5189 4.78713 77.6509 5.01719 77.7436 5.30253C77.8364 5.58788 77.8827 5.93385 77.8827 6.34047V10H76.3312V6.32977C76.3312 6.07296 76.2937 5.87144 76.2188 5.7252C76.1475 5.57539 76.0423 5.47017 75.9032 5.40954C75.7676 5.34533 75.6 5.31323 75.4002 5.31323C75.1791 5.31323 74.9901 5.35425 74.8331 5.43629C74.6798 5.51832 74.5567 5.63246 74.464 5.7787C74.3712 5.92137 74.3035 6.08901 74.2607 6.28162C74.2179 6.47422 74.1965 6.6811 74.1965 6.90224ZM82.4732 8.73735V1.78211H84.0247V10H82.6283L82.4732 8.73735ZM78.8137 7.1751V7.06275C78.8137 6.62046 78.8636 6.2192 78.9635 5.85895C79.0633 5.49514 79.2096 5.18304 79.4022 4.92267C79.5948 4.66229 79.832 4.46077 80.1138 4.3181C80.3955 4.17543 80.7165 4.10409 81.0768 4.10409C81.4156 4.10409 81.7117 4.17543 81.9649 4.3181C82.2217 4.46077 82.4393 4.66408 82.6176 4.92802C82.7996 5.18839 82.9458 5.49692 83.0564 5.8536C83.1669 6.20671 83.2472 6.59371 83.2971 7.01459V7.2607C83.2472 7.66375 83.1669 8.03826 83.0564 8.38424C82.9458 8.73022 82.7996 9.0334 82.6176 9.29377C82.4393 9.55058 82.2217 9.75032 81.9649 9.893C81.7081 10.0357 81.4085 10.107 81.0661 10.107C80.7058 10.107 80.3848 10.0339 80.1031 9.88765C79.8248 9.74141 79.5894 9.53632 79.3968 9.27237C79.2078 9.00843 79.0633 8.69812 78.9635 8.34144C78.8636 7.98476 78.8137 7.59598 78.8137 7.1751ZM80.3545 7.06275V7.1751C80.3545 7.41407 80.3724 7.637 80.408 7.84387C80.4473 8.05075 80.5097 8.23444 80.5953 8.39494C80.6844 8.55188 80.7986 8.67494 80.9377 8.76411C81.0804 8.84971 81.2534 8.89251 81.4567 8.89251C81.7206 8.89251 81.9382 8.83366 82.1094 8.71595C82.2806 8.59468 82.4108 8.42883 82.4999 8.21839C82.5927 8.00795 82.6462 7.7654 82.6605 7.49076V6.78989C82.6498 6.56518 82.6176 6.36365 82.5641 6.18531C82.5142 6.00341 82.4393 5.84825 82.3394 5.71985C82.2431 5.59144 82.1219 5.49157 81.9756 5.42024C81.833 5.3489 81.6635 5.31323 81.4674 5.31323C81.2676 5.31323 81.0964 5.3596 80.9537 5.45234C80.8111 5.54151 80.6951 5.66456 80.606 5.8215C80.5204 5.97844 80.4562 6.16391 80.4134 6.37792C80.3741 6.58836 80.3545 6.81664 80.3545 7.06275ZM86.7694 5.32393V12.2257H85.2285V4.21109H86.657L86.7694 5.32393ZM90.4343 7.04134V7.1537C90.4343 7.57458 90.3843 7.96514 90.2845 8.32539C90.1882 8.68564 90.0455 8.99951 89.8565 9.26702C89.6674 9.53097 89.432 9.73784 89.1502 9.88765C88.872 10.0339 88.551 10.107 88.1872 10.107C87.8341 10.107 87.5273 10.0357 87.267 9.893C87.0066 9.75032 86.7872 9.55058 86.6089 9.29377C86.4341 9.0334 86.2932 8.732 86.1862 8.38959C86.0792 8.04718 85.9972 7.6798 85.9401 7.28745V6.99319C85.9972 6.57231 86.0792 6.1871 86.1862 5.83755C86.2932 5.48444 86.4341 5.17948 86.6089 4.92267C86.7872 4.66229 87.0048 4.46077 87.2616 4.3181C87.522 4.17543 87.827 4.10409 88.1765 4.10409C88.5439 4.10409 88.8667 4.17364 89.1449 4.31275C89.4267 4.45185 89.6621 4.65159 89.8511 4.91197C90.0437 5.17234 90.1882 5.48266 90.2845 5.8429C90.3843 6.20315 90.4343 6.60263 90.4343 7.04134ZM88.8881 7.1537V7.04134C88.8881 6.79524 88.8667 6.56874 88.8239 6.36187C88.7846 6.15143 88.7204 5.96774 88.6313 5.8108C88.5457 5.65386 88.4315 5.53259 88.2889 5.44699C88.1498 5.35782 87.9803 5.31323 87.7806 5.31323C87.5701 5.31323 87.39 5.34712 87.2402 5.41489C87.094 5.48266 86.9745 5.58074 86.8818 5.70915C86.789 5.83755 86.7195 5.99092 86.6731 6.16926C86.6267 6.3476 86.5982 6.54913 86.5875 6.77383V7.51751C86.6053 7.78145 86.6553 8.01865 86.7373 8.22909C86.8193 8.43596 86.946 8.60003 87.1172 8.7213C87.2884 8.84258 87.5131 8.90321 87.7913 8.90321C87.9946 8.90321 88.1658 8.85863 88.3049 8.76946C88.444 8.67672 88.5564 8.5501 88.642 8.38959C88.7311 8.22909 88.7936 8.04361 88.8292 7.83317C88.8685 7.62273 88.8881 7.39624 88.8881 7.1537ZM93.0184 4.21109V10H91.4722V4.21109H93.0184ZM91.3759 2.70234C91.3759 2.47763 91.4544 2.29216 91.6113 2.14592C91.7683 1.99968 91.9787 1.92656 92.2426 1.92656C92.503 1.92656 92.7117 1.99968 92.8686 2.14592C93.0291 2.29216 93.1094 2.47763 93.1094 2.70234C93.1094 2.92705 93.0291 3.11252 92.8686 3.25876C92.7117 3.405 92.503 3.47812 92.2426 3.47812C91.9787 3.47812 91.7683 3.405 91.6113 3.25876C91.4544 3.11252 91.3759 2.92705 91.3759 2.70234ZM96.9401 6.83269V6.95039C96.9401 7.67802 96.8581 8.34857 96.694 8.96206C96.5299 9.57198 96.3124 10.1124 96.0413 10.5832C95.7738 11.0576 95.4795 11.4517 95.1585 11.7656C94.8411 12.0794 94.5236 12.3041 94.2062 12.4397L93.9066 11.6479C94.1099 11.4981 94.3078 11.2912 94.5004 11.0272C94.6966 10.7633 94.8749 10.4387 95.0354 10.0535C95.196 9.67185 95.3226 9.22422 95.4153 8.7106C95.5116 8.19699 95.5598 7.61381 95.5598 6.96109V6.82199C95.5598 6.16926 95.5116 5.58609 95.4153 5.07247C95.319 4.55886 95.1888 4.11122 95.0247 3.72958C94.8642 3.34436 94.6859 3.02157 94.4897 2.76119C94.2971 2.49725 94.1027 2.29037 93.9066 2.14057L94.2062 1.34339C94.5236 1.47893 94.8411 1.70542 95.1585 2.02287C95.4795 2.33674 95.7738 2.72909 96.0413 3.19991C96.3124 3.67072 96.5299 4.21288 96.694 4.82637C96.8581 5.43629 96.9401 6.10506 96.9401 6.83269Z" fill="black"/>
<g clip-path="url(#clip0_311_25034)">
<g filter="url(#filter0_d_311_25034)">
<rect x="10.3125" y="31.0469" width="103.127" height="103.127" rx="10.3127" fill="white"/>
</g>
<g clip-path="url(#clip1_311_25034)">
<path d="M69.712 53.2242L35.1152 84.8061C38.8363 94.4169 48.8759 101.303 60.678 101.303C60.678 107.53 56.9928 112.633 52.3187 113.085C52.0594 113.11 51.9435 113.409 52.1269 113.586C52.1859 113.643 52.2639 113.673 52.3461 113.673C71.9257 113.6 87.7778 97.0155 87.782 76.5667C87.782 76.5626 87.782 76.5606 87.782 76.5565C87.782 65.7837 80.2386 56.6184 69.7099 53.2222L69.712 53.2242Z" fill="#FF8120"/>
<path d="M60.6572 51.7969C45.7352 51.7969 33.6396 62.8687 33.6396 76.5274C33.6396 79.4174 34.1839 82.1914 35.18 84.7702L69.6637 53.2063C66.8458 52.2951 63.8156 51.7969 60.6572 51.7969Z" fill="#3777BC"/>
<path d="M44.1202 86.1955C59.043 86.1955 71.1393 75.1237 71.1393 61.465C71.1393 58.575 70.595 55.801 69.5989 53.2222L35.1152 84.7861C37.9334 85.6973 40.9637 86.1955 44.1223 86.1955H44.1202Z" fill="#1C3C5E"/>
</g>
</g>
<path d="M195.791 2.19407V10H194.25V3.97033L192.399 4.55886V3.34436L195.625 2.19407H195.791ZM203.784 7.0895V8.29864H198.172L198.097 7.36236L201.344 2.21012H202.57L201.243 4.43045L199.627 7.0895H203.784ZM202.901 2.21012V10H201.36V2.21012H202.901ZM210.076 7.0895V8.29864H204.464L204.389 7.36236L207.636 2.21012H208.861L207.535 4.43045L205.919 7.0895H210.076ZM209.193 2.21012V10H207.652V2.21012H209.193ZM214.356 8.92461L213.452 8.05253L217.62 3.79913L218.524 4.67656L214.356 8.92461ZM217.625 8.92461L213.457 4.67656L214.361 3.79913L218.529 8.05253L217.625 8.92461ZM225.945 2.19407V10H224.404V3.97033L222.553 4.55886V3.34436L225.779 2.19407H225.945ZM233.938 7.0895V8.29864H228.325L228.25 7.36236L231.498 2.21012H232.723L231.396 4.43045L229.781 7.0895H233.938ZM233.055 2.21012V10H231.514V2.21012H233.055ZM240.23 7.0895V8.29864H234.617L234.542 7.36236L237.79 2.21012H239.015L237.688 4.43045L236.072 7.0895H240.23ZM239.347 2.21012V10H237.806V2.21012H239.347ZM243.927 6.95039V6.83269C243.927 6.08009 244.005 5.39705 244.162 4.78356C244.322 4.17008 244.533 3.63149 244.793 3.16781C245.057 2.70056 245.344 2.31356 245.655 2.00681C245.965 1.70007 246.273 1.47893 246.58 1.34339L246.874 2.15662C246.671 2.30643 246.471 2.5133 246.275 2.77724C246.079 3.03762 245.901 3.35863 245.74 3.74028C245.583 4.11836 245.457 4.56421 245.36 5.07782C245.264 5.58788 245.216 6.16926 245.216 6.82199V6.96109C245.216 7.61381 245.264 8.19699 245.36 8.7106C245.457 9.22066 245.583 9.6665 245.74 10.0482C245.901 10.4334 246.079 10.7579 246.275 11.0219C246.471 11.2858 246.671 11.4945 246.874 11.6479L246.58 12.4397C246.273 12.3041 245.965 12.083 245.655 11.7763C245.344 11.4731 245.057 11.0879 244.793 10.6206C244.533 10.1569 244.322 9.61835 244.162 9.00486C244.005 8.38781 243.927 7.70298 243.927 6.95039ZM248.929 4.21109L249.887 5.97131L250.871 4.21109H252.514L250.876 7.04134L252.588 10H250.941L249.897 8.13813L248.854 10H247.206L248.918 7.04134L247.281 4.21109H248.929ZM254.504 4.21109L255.462 5.97131L256.446 4.21109H258.088L256.451 7.04134L258.163 10H256.516L255.472 8.13813L254.429 10H252.781L254.493 7.04134L252.856 4.21109H254.504ZM260.341 1.78211V10H258.8V1.78211H260.341ZM260.122 6.90224H259.699C259.702 6.49919 259.756 6.12825 259.859 5.7894C259.963 5.44699 260.111 5.15094 260.303 4.90127C260.496 4.64803 260.726 4.45185 260.994 4.31275C261.265 4.17364 261.564 4.10409 261.892 4.10409C262.178 4.10409 262.436 4.14511 262.668 4.22714C262.904 4.30561 263.105 4.43402 263.273 4.61236C263.444 4.78713 263.576 5.01719 263.669 5.30253C263.761 5.58788 263.808 5.93385 263.808 6.34047V10H262.256V6.32977C262.256 6.07296 262.219 5.87144 262.144 5.7252C262.073 5.57539 261.967 5.47017 261.828 5.40954C261.693 5.34533 261.525 5.31323 261.325 5.31323C261.104 5.31323 260.915 5.35425 260.758 5.43629C260.605 5.51832 260.482 5.63246 260.389 5.7787C260.296 5.92137 260.229 6.08901 260.186 6.28162C260.143 6.47422 260.122 6.6811 260.122 6.90224ZM268.398 8.73735V1.78211H269.95V10H268.553L268.398 8.73735ZM264.739 7.1751V7.06275C264.739 6.62046 264.789 6.2192 264.889 5.85895C264.988 5.49514 265.135 5.18304 265.327 4.92267C265.52 4.66229 265.757 4.46077 266.039 4.3181C266.321 4.17543 266.642 4.10409 267.002 4.10409C267.341 4.10409 267.637 4.17543 267.89 4.3181C268.147 4.46077 268.364 4.66408 268.543 4.92802C268.725 5.18839 268.871 5.49692 268.981 5.8536C269.092 6.20671 269.172 6.59371 269.222 7.01459V7.2607C269.172 7.66375 269.092 8.03826 268.981 8.38424C268.871 8.73022 268.725 9.0334 268.543 9.29377C268.364 9.55058 268.147 9.75032 267.89 9.893C267.633 10.0357 267.334 10.107 266.991 10.107C266.631 10.107 266.31 10.0339 266.028 9.88765C265.75 9.74141 265.515 9.53632 265.322 9.27237C265.133 9.00843 264.988 8.69812 264.889 8.34144C264.789 7.98476 264.739 7.59598 264.739 7.1751ZM266.28 7.06275V7.1751C266.28 7.41407 266.297 7.637 266.333 7.84387C266.372 8.05075 266.435 8.23444 266.52 8.39494C266.61 8.55188 266.724 8.67494 266.863 8.76411C267.005 8.84971 267.178 8.89251 267.382 8.89251C267.646 8.89251 267.863 8.83366 268.034 8.71595C268.206 8.59468 268.336 8.42883 268.425 8.21839C268.518 8.00795 268.571 7.7654 268.586 7.49076V6.78989C268.575 6.56518 268.543 6.36365 268.489 6.18531C268.439 6.00341 268.364 5.84825 268.265 5.71985C268.168 5.59144 268.047 5.49157 267.901 5.42024C267.758 5.3489 267.589 5.31323 267.392 5.31323C267.193 5.31323 267.022 5.3596 266.879 5.45234C266.736 5.54151 266.62 5.66456 266.531 5.8215C266.445 5.97844 266.381 6.16391 266.338 6.37792C266.299 6.58836 266.28 6.81664 266.28 7.06275ZM272.694 5.32393V12.2257H271.154V4.21109H272.582L272.694 5.32393ZM276.359 7.04134V7.1537C276.359 7.57458 276.309 7.96514 276.21 8.32539C276.113 8.68564 275.971 8.99951 275.782 9.26702C275.593 9.53097 275.357 9.73784 275.075 9.88765C274.797 10.0339 274.476 10.107 274.112 10.107C273.759 10.107 273.452 10.0357 273.192 9.893C272.932 9.75032 272.712 9.55058 272.534 9.29377C272.359 9.0334 272.218 8.732 272.111 8.38959C272.004 8.04718 271.922 7.6798 271.865 7.28745V6.99319C271.922 6.57231 272.004 6.1871 272.111 5.83755C272.218 5.48444 272.359 5.17948 272.534 4.92267C272.712 4.66229 272.93 4.46077 273.187 4.3181C273.447 4.17543 273.752 4.10409 274.102 4.10409C274.469 4.10409 274.792 4.17364 275.07 4.31275C275.352 4.45185 275.587 4.65159 275.776 4.91197C275.969 5.17234 276.113 5.48266 276.21 5.8429C276.309 6.20315 276.359 6.60263 276.359 7.04134ZM274.813 7.1537V7.04134C274.813 6.79524 274.792 6.56874 274.749 6.36187C274.71 6.15143 274.646 5.96774 274.556 5.8108C274.471 5.65386 274.357 5.53259 274.214 5.44699C274.075 5.35782 273.905 5.31323 273.706 5.31323C273.495 5.31323 273.315 5.34712 273.165 5.41489C273.019 5.48266 272.9 5.58074 272.807 5.70915C272.714 5.83755 272.645 5.99092 272.598 6.16926C272.552 6.3476 272.523 6.54913 272.513 6.77383V7.51751C272.53 7.78145 272.58 8.01865 272.662 8.22909C272.744 8.43596 272.871 8.60003 273.042 8.7213C273.213 8.84258 273.438 8.90321 273.716 8.90321C273.92 8.90321 274.091 8.85863 274.23 8.76946C274.369 8.67672 274.481 8.5501 274.567 8.38959C274.656 8.22909 274.719 8.04361 274.754 7.83317C274.794 7.62273 274.813 7.39624 274.813 7.1537ZM278.944 4.21109V10H277.397V4.21109H278.944ZM277.301 2.70234C277.301 2.47763 277.379 2.29216 277.536 2.14592C277.693 1.99968 277.904 1.92656 278.168 1.92656C278.428 1.92656 278.637 1.99968 278.794 2.14592C278.954 2.29216 279.034 2.47763 279.034 2.70234C279.034 2.92705 278.954 3.11252 278.794 3.25876C278.637 3.405 278.428 3.47812 278.168 3.47812C277.904 3.47812 277.693 3.405 277.536 3.25876C277.379 3.11252 277.301 2.92705 277.301 2.70234ZM282.865 6.83269V6.95039C282.865 7.67802 282.783 8.34857 282.619 8.96206C282.455 9.57198 282.237 10.1124 281.966 10.5832C281.699 11.0576 281.405 11.4517 281.084 11.7656C280.766 12.0794 280.449 12.3041 280.131 12.4397L279.832 11.6479C280.035 11.4981 280.233 11.2912 280.426 11.0272C280.622 10.7633 280.8 10.4387 280.961 10.0535C281.121 9.67185 281.248 9.22422 281.34 8.7106C281.437 8.19699 281.485 7.61381 281.485 6.96109V6.82199C281.485 6.16926 281.437 5.58609 281.34 5.07247C281.244 4.55886 281.114 4.11122 280.95 3.72958C280.789 3.34436 280.611 3.02157 280.415 2.76119C280.222 2.49725 280.028 2.29037 279.832 2.14057L280.131 1.34339C280.449 1.47893 280.766 1.70542 281.084 2.02287C281.405 2.33674 281.699 2.72909 281.966 3.19991C282.237 3.67072 282.455 4.21288 282.619 4.82637C282.783 5.43629 282.865 6.10506 282.865 6.83269Z" fill="black"/>
<g clip-path="url(#clip2_311_25034)">
<g filter="url(#filter1_d_311_25034)">
<rect x="199.234" y="28.4688" width="77.3449" height="77.3449" rx="7.73449" fill="white"/>
</g>
<g clip-path="url(#clip3_311_25034)">
<path d="M243.283 44.6011L217.336 68.2875C220.127 75.4957 227.656 80.6603 236.508 80.6603C236.508 85.3304 233.744 89.1581 230.239 89.4969C230.044 89.5152 229.957 89.7396 230.095 89.8723C230.139 89.9151 230.197 89.938 230.259 89.938C244.944 89.883 256.833 77.4446 256.836 62.108C256.836 62.1049 256.836 62.1034 256.836 62.1004C256.836 54.0207 251.178 47.1468 243.282 44.5996L243.283 44.6011Z" fill="#FF8120"/>
<path d="M236.493 43.5308C225.301 43.5308 216.229 51.8346 216.229 62.0786C216.229 64.2461 216.638 66.3267 217.385 68.2608L243.248 44.5878C241.134 43.9045 238.861 43.5308 236.493 43.5308Z" fill="#3777BC"/>
<path d="M224.09 69.3296C235.282 69.3296 244.354 61.0258 244.354 50.7817C244.354 48.6143 243.946 46.5337 243.199 44.5996L217.336 68.2726C219.45 68.9559 221.722 69.3296 224.091 69.3296H224.09Z" fill="#1C3C5E"/>
</g>
</g>
<path d="M353.626 8.82831H353.728C354.156 8.82831 354.524 8.77659 354.83 8.67315C355.141 8.56615 355.396 8.41278 355.595 8.21304C355.795 8.0133 355.943 7.76897 356.039 7.48006C356.136 7.18758 356.184 6.85587 356.184 6.48492V5.00827C356.184 4.72649 356.155 4.4786 356.098 4.2646C356.045 4.05059 355.966 3.87403 355.863 3.73493C355.763 3.59225 355.645 3.48525 355.51 3.41391C355.378 3.34258 355.232 3.30691 355.071 3.30691C354.9 3.30691 354.748 3.34971 354.616 3.43532C354.484 3.51735 354.372 3.62971 354.279 3.77238C354.19 3.91505 354.12 4.07912 354.071 4.2646C354.024 4.4465 354.001 4.63733 354.001 4.83707C354.001 5.03681 354.024 5.22763 354.071 5.40954C354.117 5.58788 354.186 5.7466 354.279 5.8857C354.372 6.02124 354.488 6.13003 354.627 6.21206C354.766 6.29053 354.93 6.32977 355.119 6.32977C355.301 6.32977 355.463 6.29588 355.606 6.22812C355.752 6.15678 355.875 6.06404 355.975 5.94991C356.079 5.83577 356.157 5.70915 356.211 5.57004C356.268 5.43094 356.296 5.29005 356.296 5.14738L356.804 5.42559C356.804 5.67526 356.751 5.92137 356.644 6.16391C356.537 6.40645 356.387 6.6276 356.195 6.82734C356.006 7.02351 355.786 7.18045 355.536 7.29815C355.287 7.41586 355.019 7.47471 354.734 7.47471C354.37 7.47471 354.047 7.40872 353.766 7.27675C353.484 7.14121 353.245 6.95574 353.049 6.72033C352.856 6.48136 352.71 6.20315 352.61 5.8857C352.51 5.56826 352.46 5.22406 352.46 4.85312C352.46 4.47504 352.521 4.12014 352.642 3.78843C352.767 3.45672 352.943 3.16424 353.172 2.911C353.404 2.65775 353.68 2.4598 354.001 2.31713C354.326 2.17089 354.686 2.09777 355.082 2.09777C355.478 2.09777 355.838 2.17445 356.162 2.32783C356.487 2.4812 356.765 2.69877 356.997 2.98055C357.229 3.25876 357.407 3.59225 357.532 3.98103C357.661 4.36982 357.725 4.8014 357.725 5.27578V5.8108C357.725 6.31729 357.669 6.7881 357.559 7.22325C357.452 7.6584 357.29 8.05253 357.072 8.40564C356.858 8.75519 356.59 9.0548 356.269 9.30448C355.952 9.55415 355.583 9.74497 355.162 9.87695C354.741 10.0089 354.27 10.0749 353.75 10.0749H353.626V8.82831ZM362.802 2.12987H363.027V3.36041H362.936C362.529 3.36041 362.167 3.42105 361.85 3.54232C361.532 3.66359 361.263 3.83658 361.042 4.06129C360.824 4.28243 360.657 4.54994 360.539 4.86382C360.425 5.17769 360.368 5.52902 360.368 5.9178V7.21255C360.368 7.49076 360.394 7.73687 360.448 7.95088C360.505 8.16132 360.585 8.33787 360.689 8.48055C360.796 8.61965 360.921 8.72487 361.063 8.79621C361.206 8.86398 361.366 8.89786 361.545 8.89786C361.712 8.89786 361.864 8.86219 362 8.79086C362.139 8.71952 362.256 8.61965 362.353 8.49125C362.452 8.35927 362.527 8.2059 362.577 8.03113C362.631 7.85279 362.658 7.6584 362.658 7.44796C362.658 7.23752 362.631 7.04313 362.577 6.86479C362.527 6.68645 362.452 6.53308 362.353 6.40467C362.253 6.2727 362.131 6.17105 361.989 6.09971C361.846 6.02837 361.686 5.99271 361.507 5.99271C361.265 5.99271 361.051 6.04978 360.865 6.16391C360.683 6.27448 360.541 6.41716 360.437 6.59193C360.334 6.7667 360.279 6.95039 360.271 7.143L359.806 6.84339C359.817 6.56874 359.874 6.30837 359.977 6.06226C360.084 5.81615 360.23 5.59858 360.416 5.40954C360.605 5.21693 360.831 5.06712 361.095 4.96012C361.359 4.84955 361.657 4.79426 361.989 4.79426C362.353 4.79426 362.672 4.86382 362.946 5.00292C363.225 5.14203 363.457 5.33285 363.642 5.57539C363.827 5.81793 363.967 6.09793 364.059 6.41537C364.152 6.73282 364.198 7.07166 364.198 7.43191C364.198 7.80999 364.136 8.16132 364.011 8.4859C363.89 8.81047 363.713 9.09403 363.482 9.33658C363.253 9.57912 362.979 9.76816 362.658 9.9037C362.337 10.0392 361.976 10.107 361.577 10.107C361.163 10.107 360.787 10.0321 360.448 9.8823C360.113 9.72892 359.824 9.51492 359.581 9.24027C359.339 8.96563 359.151 8.63927 359.019 8.26119C358.891 7.88311 358.827 7.46936 358.827 7.01994V6.42072C358.827 5.79297 358.918 5.21871 359.1 4.69796C359.285 4.17364 359.551 3.72066 359.897 3.33901C360.243 2.9538 360.66 2.65597 361.149 2.44553C361.637 2.23509 362.189 2.12987 362.802 2.12987ZM368.564 8.92461L367.66 8.05253L371.828 3.79913L372.732 4.67656L368.564 8.92461ZM371.833 8.92461L367.665 4.67656L368.57 3.79913L372.737 8.05253L371.833 8.92461ZM377.488 8.82831H377.59C378.018 8.82831 378.385 8.77659 378.692 8.67315C379.002 8.56615 379.257 8.41278 379.457 8.21304C379.657 8.0133 379.805 7.76897 379.901 7.48006C379.998 7.18758 380.046 6.85587 380.046 6.48492V5.00827C380.046 4.72649 380.017 4.4786 379.96 4.2646C379.907 4.05059 379.828 3.87403 379.725 3.73493C379.625 3.59225 379.507 3.48525 379.372 3.41391C379.24 3.34258 379.093 3.30691 378.933 3.30691C378.762 3.30691 378.61 3.34971 378.478 3.43532C378.346 3.51735 378.234 3.62971 378.141 3.77238C378.052 3.91505 377.982 4.07912 377.932 4.2646C377.886 4.4465 377.863 4.63733 377.863 4.83707C377.863 5.03681 377.886 5.22763 377.932 5.40954C377.979 5.58788 378.048 5.7466 378.141 5.8857C378.234 6.02124 378.35 6.13003 378.489 6.21206C378.628 6.29053 378.792 6.32977 378.981 6.32977C379.163 6.32977 379.325 6.29588 379.468 6.22812C379.614 6.15678 379.737 6.06404 379.837 5.94991C379.94 5.83577 380.019 5.70915 380.072 5.57004C380.13 5.43094 380.158 5.29005 380.158 5.14738L380.666 5.42559C380.666 5.67526 380.613 5.92137 380.506 6.16391C380.399 6.40645 380.249 6.6276 380.056 6.82734C379.867 7.02351 379.648 7.18045 379.398 7.29815C379.149 7.41586 378.881 7.47471 378.596 7.47471C378.232 7.47471 377.909 7.40872 377.627 7.27675C377.346 7.14121 377.107 6.95574 376.91 6.72033C376.718 6.48136 376.572 6.20315 376.472 5.8857C376.372 5.56826 376.322 5.22406 376.322 4.85312C376.322 4.47504 376.383 4.12014 376.504 3.78843C376.629 3.45672 376.805 3.16424 377.034 2.911C377.265 2.65775 377.542 2.4598 377.863 2.31713C378.187 2.17089 378.548 2.09777 378.944 2.09777C379.339 2.09777 379.7 2.17445 380.024 2.32783C380.349 2.4812 380.627 2.69877 380.859 2.98055C381.091 3.25876 381.269 3.59225 381.394 3.98103C381.522 4.36982 381.587 4.8014 381.587 5.27578V5.8108C381.587 6.31729 381.531 6.7881 381.421 7.22325C381.314 7.6584 381.151 8.05253 380.934 8.40564C380.72 8.75519 380.452 9.0548 380.131 9.30448C379.814 9.55415 379.445 9.74497 379.024 9.87695C378.603 10.0089 378.132 10.0749 377.611 10.0749H377.488V8.82831ZM386.664 2.12987H386.889V3.36041H386.798C386.391 3.36041 386.029 3.42105 385.712 3.54232C385.394 3.66359 385.125 3.83658 384.904 4.06129C384.686 4.28243 384.518 4.54994 384.401 4.86382C384.287 5.17769 384.23 5.52902 384.23 5.9178V7.21255C384.23 7.49076 384.256 7.73687 384.31 7.95088C384.367 8.16132 384.447 8.33787 384.551 8.48055C384.658 8.61965 384.782 8.72487 384.925 8.79621C385.068 8.86398 385.228 8.89786 385.407 8.89786C385.574 8.89786 385.726 8.86219 385.861 8.79086C386 8.71952 386.118 8.61965 386.214 8.49125C386.314 8.35927 386.389 8.2059 386.439 8.03113C386.493 7.85279 386.519 7.6584 386.519 7.44796C386.519 7.23752 386.493 7.04313 386.439 6.86479C386.389 6.68645 386.314 6.53308 386.214 6.40467C386.115 6.2727 385.993 6.17105 385.851 6.09971C385.708 6.02837 385.547 5.99271 385.369 5.99271C385.127 5.99271 384.913 6.04978 384.727 6.16391C384.545 6.27448 384.403 6.41716 384.299 6.59193C384.196 6.7667 384.14 6.95039 384.133 7.143L383.668 6.84339C383.678 6.56874 383.736 6.30837 383.839 6.06226C383.946 5.81615 384.092 5.59858 384.278 5.40954C384.467 5.21693 384.693 5.06712 384.957 4.96012C385.221 4.84955 385.519 4.79426 385.851 4.79426C386.214 4.79426 386.534 4.86382 386.808 5.00292C387.087 5.14203 387.318 5.33285 387.504 5.57539C387.689 5.81793 387.828 6.09793 387.921 6.41537C388.014 6.73282 388.06 7.07166 388.06 7.43191C388.06 7.80999 387.998 8.16132 387.873 8.4859C387.752 8.81047 387.575 9.09403 387.343 9.33658C387.115 9.57912 386.84 9.76816 386.519 9.9037C386.198 10.0392 385.838 10.107 385.439 10.107C385.025 10.107 384.649 10.0321 384.31 9.8823C383.975 9.72892 383.686 9.51492 383.443 9.24027C383.201 8.96563 383.013 8.63927 382.881 8.26119C382.753 7.88311 382.689 7.46936 382.689 7.01994V6.42072C382.689 5.79297 382.78 5.21871 382.962 4.69796C383.147 4.17364 383.413 3.72066 383.759 3.33901C384.105 2.9538 384.522 2.65597 385.011 2.44553C385.499 2.23509 386.05 2.12987 386.664 2.12987ZM391.843 6.95039V6.83269C391.843 6.08009 391.921 5.39705 392.078 4.78356C392.239 4.17008 392.449 3.63149 392.71 3.16781C392.974 2.70056 393.261 2.31356 393.571 2.00681C393.881 1.70007 394.19 1.47893 394.497 1.34339L394.791 2.15662C394.588 2.30643 394.388 2.5133 394.192 2.77724C393.995 3.03762 393.817 3.35863 393.657 3.74028C393.5 4.11836 393.373 4.56421 393.277 5.07782C393.18 5.58788 393.132 6.16926 393.132 6.82199V6.96109C393.132 7.61381 393.18 8.19699 393.277 8.7106C393.373 9.22066 393.5 9.6665 393.657 10.0482C393.817 10.4334 393.995 10.7579 394.192 11.0219C394.388 11.2858 394.588 11.4945 394.791 11.6479L394.497 12.4397C394.19 12.3041 393.881 12.083 393.571 11.7763C393.261 11.4731 392.974 11.0879 392.71 10.6206C392.449 10.1569 392.239 9.61835 392.078 9.00486C391.921 8.38781 391.843 7.70298 391.843 6.95039ZM396.845 4.21109L397.803 5.97131L398.787 4.21109H400.43L398.793 7.04134L400.505 10H398.857L397.814 8.13813L396.77 10H395.123L396.835 7.04134L395.197 4.21109H396.845ZM402.682 1.78211V10H401.142V1.78211H402.682ZM402.463 6.90224H402.04C402.044 6.49919 402.097 6.12825 402.201 5.7894C402.304 5.44699 402.452 5.15094 402.645 4.90127C402.838 4.64803 403.068 4.45185 403.335 4.31275C403.606 4.17364 403.906 4.10409 404.234 4.10409C404.519 4.10409 404.778 4.14511 405.01 4.22714C405.245 4.30561 405.447 4.43402 405.614 4.61236C405.785 4.78713 405.917 5.01719 406.01 5.30253C406.103 5.58788 406.149 5.93385 406.149 6.34047V10H404.598V6.32977C404.598 6.07296 404.56 5.87144 404.485 5.7252C404.414 5.57539 404.309 5.47017 404.17 5.40954C404.034 5.34533 403.867 5.31323 403.667 5.31323C403.446 5.31323 403.257 5.35425 403.1 5.43629C402.946 5.51832 402.823 5.63246 402.731 5.7787C402.638 5.92137 402.57 6.08901 402.527 6.28162C402.484 6.47422 402.463 6.6811 402.463 6.90224ZM410.74 8.73735V1.78211H412.291V10H410.895L410.74 8.73735ZM407.08 7.1751V7.06275C407.08 6.62046 407.13 6.2192 407.23 5.85895C407.33 5.49514 407.476 5.18304 407.669 4.92267C407.861 4.66229 408.099 4.46077 408.38 4.3181C408.662 4.17543 408.983 4.10409 409.343 4.10409C409.682 4.10409 409.978 4.17543 410.231 4.3181C410.488 4.46077 410.706 4.66408 410.884 4.92802C411.066 5.18839 411.212 5.49692 411.323 5.8536C411.433 6.20671 411.514 6.59371 411.564 7.01459V7.2607C411.514 7.66375 411.433 8.03826 411.323 8.38424C411.212 8.73022 411.066 9.0334 410.884 9.29377C410.706 9.55058 410.488 9.75032 410.231 9.893C409.975 10.0357 409.675 10.107 409.333 10.107C408.972 10.107 408.651 10.0339 408.37 9.88765C408.091 9.74141 407.856 9.53632 407.663 9.27237C407.474 9.00843 407.33 8.69812 407.23 8.34144C407.13 7.98476 407.08 7.59598 407.08 7.1751ZM408.621 7.06275V7.1751C408.621 7.41407 408.639 7.637 408.675 7.84387C408.714 8.05075 408.776 8.23444 408.862 8.39494C408.951 8.55188 409.065 8.67494 409.204 8.76411C409.347 8.84971 409.52 8.89251 409.723 8.89251C409.987 8.89251 410.205 8.83366 410.376 8.71595C410.547 8.59468 410.677 8.42883 410.767 8.21839C410.859 8.00795 410.913 7.7654 410.927 7.49076V6.78989C410.916 6.56518 410.884 6.36365 410.831 6.18531C410.781 6.00341 410.706 5.84825 410.606 5.71985C410.51 5.59144 410.388 5.49157 410.242 5.42024C410.1 5.3489 409.93 5.31323 409.734 5.31323C409.534 5.31323 409.363 5.3596 409.22 5.45234C409.078 5.54151 408.962 5.66456 408.873 5.8215C408.787 5.97844 408.723 6.16391 408.68 6.37792C408.641 6.58836 408.621 6.81664 408.621 7.06275ZM415.036 5.32393V12.2257H413.495V4.21109H414.924L415.036 5.32393ZM418.701 7.04134V7.1537C418.701 7.57458 418.651 7.96514 418.551 8.32539C418.455 8.68564 418.312 8.99951 418.123 9.26702C417.934 9.53097 417.699 9.73784 417.417 9.88765C417.139 10.0339 416.818 10.107 416.454 10.107C416.101 10.107 415.794 10.0357 415.534 9.893C415.273 9.75032 415.054 9.55058 414.875 9.29377C414.701 9.0334 414.56 8.732 414.453 8.38959C414.346 8.04718 414.264 7.6798 414.207 7.28745V6.99319C414.264 6.57231 414.346 6.1871 414.453 5.83755C414.56 5.48444 414.701 5.17948 414.875 4.92267C415.054 4.66229 415.271 4.46077 415.528 4.3181C415.789 4.17543 416.094 4.10409 416.443 4.10409C416.81 4.10409 417.133 4.17364 417.411 4.31275C417.693 4.45185 417.929 4.65159 418.118 4.91197C418.31 5.17234 418.455 5.48266 418.551 5.8429C418.651 6.20315 418.701 6.60263 418.701 7.04134ZM417.155 7.1537V7.04134C417.155 6.79524 417.133 6.56874 417.09 6.36187C417.051 6.15143 416.987 5.96774 416.898 5.8108C416.812 5.65386 416.698 5.53259 416.555 5.44699C416.416 5.35782 416.247 5.31323 416.047 5.31323C415.837 5.31323 415.657 5.34712 415.507 5.41489C415.361 5.48266 415.241 5.58074 415.148 5.70915C415.056 5.83755 414.986 5.99092 414.94 6.16926C414.893 6.3476 414.865 6.54913 414.854 6.77383V7.51751C414.872 7.78145 414.922 8.01865 415.004 8.22909C415.086 8.43596 415.213 8.60003 415.384 8.7213C415.555 8.84258 415.78 8.90321 416.058 8.90321C416.261 8.90321 416.432 8.85863 416.571 8.76946C416.711 8.67672 416.823 8.5501 416.909 8.38959C416.998 8.22909 417.06 8.04361 417.096 7.83317C417.135 7.62273 417.155 7.39624 417.155 7.1537ZM421.285 4.21109V10H419.739V4.21109H421.285ZM419.642 2.70234C419.642 2.47763 419.721 2.29216 419.878 2.14592C420.035 1.99968 420.245 1.92656 420.509 1.92656C420.77 1.92656 420.978 1.99968 421.135 2.14592C421.296 2.29216 421.376 2.47763 421.376 2.70234C421.376 2.92705 421.296 3.11252 421.135 3.25876C420.978 3.405 420.77 3.47812 420.509 3.47812C420.245 3.47812 420.035 3.405 419.878 3.25876C419.721 3.11252 419.642 2.92705 419.642 2.70234ZM425.207 6.83269V6.95039C425.207 7.67802 425.125 8.34857 424.961 8.96206C424.796 9.57198 424.579 10.1124 424.308 10.5832C424.04 11.0576 423.746 11.4517 423.425 11.7656C423.108 12.0794 422.79 12.3041 422.473 12.4397L422.173 11.6479C422.376 11.4981 422.574 11.2912 422.767 11.0272C422.963 10.7633 423.141 10.4387 423.302 10.0535C423.463 9.67185 423.589 9.22422 423.682 8.7106C423.778 8.19699 423.826 7.61381 423.826 6.96109V6.82199C423.826 6.16926 423.778 5.58609 423.682 5.07247C423.586 4.55886 423.455 4.11122 423.291 3.72958C423.131 3.34436 422.952 3.02157 422.756 2.76119C422.564 2.49725 422.369 2.29037 422.173 2.14057L422.473 1.34339C422.79 1.47893 423.108 1.70542 423.425 2.02287C423.746 2.33674 424.04 2.72909 424.308 3.19991C424.579 3.67072 424.796 4.21288 424.961 4.82637C425.125 5.43629 425.207 6.10506 425.207 6.83269Z" fill="black"/>
<g clip-path="url(#clip4_311_25034)">
<g filter="url(#filter2_d_311_25034)">
<rect x="357.156" y="25.8906" width="51.5633" height="51.5633" rx="5.15633" fill="white"/>
</g>
<g clip-path="url(#clip5_311_25034)">
<path d="M386.856 36.979L369.558 52.77C371.418 57.5754 376.438 61.0185 382.339 61.0185C382.339 64.1319 380.496 66.6837 378.159 66.9096C378.03 66.9218 377.972 67.0713 378.063 67.1599C378.093 67.1883 378.132 67.2036 378.173 67.2036C387.963 67.167 395.889 58.8747 395.891 48.6503C395.891 48.6483 395.891 48.6472 395.891 48.6452C395.891 43.2588 392.119 38.6762 386.855 36.978L386.856 36.979Z" fill="#FF8120"/>
<path d="M382.328 36.2656C374.867 36.2656 368.819 41.8015 368.819 48.6309C368.819 50.0759 369.091 51.4629 369.589 52.7523L386.831 36.9703C385.422 36.5148 383.907 36.2656 382.328 36.2656Z" fill="#3777BC"/>
<path d="M374.06 53.4647C381.522 53.4647 387.57 47.9288 387.57 41.0994C387.57 39.6545 387.298 38.2674 386.799 36.978L369.558 52.76C370.967 53.2156 372.482 53.4647 374.061 53.4647H374.06Z" fill="#1C3C5E"/>
</g>
</g>
<path d="M499.326 2.21012V3.0394L496.314 10H494.688L497.7 3.41391H493.821V2.21012H499.326ZM505.656 8.79621V10H500.327V8.97276L502.847 6.27092C503.1 5.98914 503.3 5.74125 503.446 5.52724C503.592 5.30967 503.697 5.11528 503.762 4.94407C503.829 4.7693 503.863 4.60344 503.863 4.4465C503.863 4.21109 503.824 4.00957 503.746 3.84193C503.667 3.67072 503.551 3.53875 503.398 3.44602C503.248 3.35328 503.063 3.30691 502.841 3.30691C502.606 3.30691 502.403 3.36398 502.232 3.47812C502.064 3.59225 501.935 3.75098 501.846 3.95428C501.761 4.15759 501.718 4.38765 501.718 4.64446H500.172C500.172 4.18078 500.282 3.75633 500.503 3.37111C500.725 2.98233 501.037 2.6738 501.44 2.44553C501.843 2.21369 502.321 2.09777 502.874 2.09777C503.419 2.09777 503.879 2.18694 504.254 2.36528C504.632 2.54005 504.917 2.79329 505.11 3.125C505.306 3.45315 505.404 3.8455 505.404 4.30205C505.404 4.55886 505.363 4.81031 505.281 5.05642C505.199 5.29897 505.081 5.54151 504.928 5.78405C504.778 6.02302 504.596 6.26557 504.382 6.51168C504.168 6.75778 503.931 7.01281 503.671 7.27675L502.317 8.79621H505.656ZM510.064 8.92461L509.16 8.05253L513.328 3.79913L514.232 4.67656L510.064 8.92461ZM513.333 8.92461L509.165 4.67656L510.07 3.79913L514.237 8.05253L513.333 8.92461ZM523.188 2.21012V3.0394L520.176 10H518.55L521.562 3.41391H517.683V2.21012H523.188ZM529.517 8.79621V10H524.189V8.97276L526.709 6.27092C526.962 5.98914 527.162 5.74125 527.308 5.52724C527.454 5.30967 527.559 5.11528 527.624 4.94407C527.691 4.7693 527.725 4.60344 527.725 4.4465C527.725 4.21109 527.686 4.00957 527.607 3.84193C527.529 3.67072 527.413 3.53875 527.26 3.44602C527.11 3.35328 526.924 3.30691 526.703 3.30691C526.468 3.30691 526.265 3.36398 526.093 3.47812C525.926 3.59225 525.797 3.75098 525.708 3.95428C525.623 4.15759 525.58 4.38765 525.58 4.64446H524.034C524.034 4.18078 524.144 3.75633 524.365 3.37111C524.586 2.98233 524.898 2.6738 525.302 2.44553C525.705 2.21369 526.183 2.09777 526.735 2.09777C527.281 2.09777 527.741 2.18694 528.116 2.36528C528.494 2.54005 528.779 2.79329 528.972 3.125C529.168 3.45315 529.266 3.8455 529.266 4.30205C529.266 4.55886 529.225 4.81031 529.143 5.05642C529.061 5.29897 528.943 5.54151 528.79 5.78405C528.64 6.02302 528.458 6.26557 528.244 6.51168C528.03 6.75778 527.793 7.01281 527.533 7.27675L526.179 8.79621H529.517ZM533.343 6.95039V6.83269C533.343 6.08009 533.421 5.39705 533.578 4.78356C533.739 4.17008 533.949 3.63149 534.21 3.16781C534.474 2.70056 534.761 2.31356 535.071 2.00681C535.381 1.70007 535.69 1.47893 535.997 1.34339L536.291 2.15662C536.088 2.30643 535.888 2.5133 535.692 2.77724C535.495 3.03762 535.317 3.35863 535.157 3.74028C535 4.11836 534.873 4.56421 534.777 5.07782C534.68 5.58788 534.632 6.16926 534.632 6.82199V6.96109C534.632 7.61381 534.68 8.19699 534.777 8.7106C534.873 9.22066 535 9.6665 535.157 10.0482C535.317 10.4334 535.495 10.7579 535.692 11.0219C535.888 11.2858 536.088 11.4945 536.291 11.6479L535.997 12.4397C535.69 12.3041 535.381 12.083 535.071 11.7763C534.761 11.4731 534.474 11.0879 534.21 10.6206C533.949 10.1569 533.739 9.61835 533.578 9.00486C533.421 8.38781 533.343 7.70298 533.343 6.95039ZM538.607 1.78211V10H537.067V1.78211H538.607ZM538.388 6.90224H537.965C537.969 6.49919 538.023 6.12825 538.126 5.7894C538.229 5.44699 538.377 5.15094 538.57 4.90127C538.763 4.64803 538.993 4.45185 539.26 4.31275C539.531 4.17364 539.831 4.10409 540.159 4.10409C540.444 4.10409 540.703 4.14511 540.935 4.22714C541.17 4.30561 541.372 4.43402 541.539 4.61236C541.711 4.78713 541.843 5.01719 541.935 5.30253C542.028 5.58788 542.074 5.93385 542.074 6.34047V10H540.523V6.32977C540.523 6.07296 540.485 5.87144 540.41 5.7252C540.339 5.57539 540.234 5.47017 540.095 5.40954C539.959 5.34533 539.792 5.31323 539.592 5.31323C539.371 5.31323 539.182 5.35425 539.025 5.43629C538.871 5.51832 538.748 5.63246 538.656 5.7787C538.563 5.92137 538.495 6.08901 538.452 6.28162C538.41 6.47422 538.388 6.6811 538.388 6.90224ZM546.665 8.73735V1.78211H548.216V10H546.82L546.665 8.73735ZM543.005 7.1751V7.06275C543.005 6.62046 543.055 6.2192 543.155 5.85895C543.255 5.49514 543.401 5.18304 543.594 4.92267C543.786 4.66229 544.024 4.46077 544.305 4.3181C544.587 4.17543 544.908 4.10409 545.268 4.10409C545.607 4.10409 545.903 4.17543 546.157 4.3181C546.413 4.46077 546.631 4.66408 546.809 4.92802C546.991 5.18839 547.137 5.49692 547.248 5.8536C547.359 6.20671 547.439 6.59371 547.489 7.01459V7.2607C547.439 7.66375 547.359 8.03826 547.248 8.38424C547.137 8.73022 546.991 9.0334 546.809 9.29377C546.631 9.55058 546.413 9.75032 546.157 9.893C545.9 10.0357 545.6 10.107 545.258 10.107C544.898 10.107 544.576 10.0339 544.295 9.88765C544.017 9.74141 543.781 9.53632 543.588 9.27237C543.399 9.00843 543.255 8.69812 543.155 8.34144C543.055 7.98476 543.005 7.59598 543.005 7.1751ZM544.546 7.06275V7.1751C544.546 7.41407 544.564 7.637 544.6 7.84387C544.639 8.05075 544.701 8.23444 544.787 8.39494C544.876 8.55188 544.99 8.67494 545.129 8.76411C545.272 8.84971 545.445 8.89251 545.648 8.89251C545.912 8.89251 546.13 8.83366 546.301 8.71595C546.472 8.59468 546.602 8.42883 546.692 8.21839C546.784 8.00795 546.838 7.7654 546.852 7.49076V6.78989C546.841 6.56518 546.809 6.36365 546.756 6.18531C546.706 6.00341 546.631 5.84825 546.531 5.71985C546.435 5.59144 546.314 5.49157 546.167 5.42024C546.025 5.3489 545.855 5.31323 545.659 5.31323C545.459 5.31323 545.288 5.3596 545.145 5.45234C545.003 5.54151 544.887 5.66456 544.798 5.8215C544.712 5.97844 544.648 6.16391 544.605 6.37792C544.566 6.58836 544.546 6.81664 544.546 7.06275ZM550.961 5.32393V12.2257H549.42V4.21109H550.849L550.961 5.32393ZM554.626 7.04134V7.1537C554.626 7.57458 554.576 7.96514 554.476 8.32539C554.38 8.68564 554.237 8.99951 554.048 9.26702C553.859 9.53097 553.624 9.73784 553.342 9.88765C553.064 10.0339 552.743 10.107 552.379 10.107C552.026 10.107 551.719 10.0357 551.459 9.893C551.198 9.75032 550.979 9.55058 550.801 9.29377C550.626 9.0334 550.485 8.732 550.378 8.38959C550.271 8.04718 550.189 7.6798 550.132 7.28745V6.99319C550.189 6.57231 550.271 6.1871 550.378 5.83755C550.485 5.48444 550.626 5.17948 550.801 4.92267C550.979 4.66229 551.196 4.46077 551.453 4.3181C551.714 4.17543 552.019 4.10409 552.368 4.10409C552.736 4.10409 553.058 4.17364 553.337 4.31275C553.618 4.45185 553.854 4.65159 554.043 4.91197C554.235 5.17234 554.38 5.48266 554.476 5.8429C554.576 6.20315 554.626 6.60263 554.626 7.04134ZM553.08 7.1537V7.04134C553.08 6.79524 553.058 6.56874 553.016 6.36187C552.976 6.15143 552.912 5.96774 552.823 5.8108C552.737 5.65386 552.623 5.53259 552.481 5.44699C552.341 5.35782 552.172 5.31323 551.972 5.31323C551.762 5.31323 551.582 5.34712 551.432 5.41489C551.286 5.48266 551.166 5.58074 551.073 5.70915C550.981 5.83755 550.911 5.99092 550.865 6.16926C550.818 6.3476 550.79 6.54913 550.779 6.77383V7.51751C550.797 7.78145 550.847 8.01865 550.929 8.22909C551.011 8.43596 551.138 8.60003 551.309 8.7213C551.48 8.84258 551.705 8.90321 551.983 8.90321C552.186 8.90321 552.357 8.85863 552.497 8.76946C552.636 8.67672 552.748 8.5501 552.834 8.38959C552.923 8.22909 552.985 8.04361 553.021 7.83317C553.06 7.62273 553.08 7.39624 553.08 7.1537ZM557.21 4.21109V10H555.664V4.21109H557.21ZM555.568 2.70234C555.568 2.47763 555.646 2.29216 555.803 2.14592C555.96 1.99968 556.17 1.92656 556.434 1.92656C556.695 1.92656 556.903 1.99968 557.06 2.14592C557.221 2.29216 557.301 2.47763 557.301 2.70234C557.301 2.92705 557.221 3.11252 557.06 3.25876C556.903 3.405 556.695 3.47812 556.434 3.47812C556.17 3.47812 555.96 3.405 555.803 3.25876C555.646 3.11252 555.568 2.92705 555.568 2.70234ZM561.132 6.83269V6.95039C561.132 7.67802 561.05 8.34857 560.886 8.96206C560.722 9.57198 560.504 10.1124 560.233 10.5832C559.965 11.0576 559.671 11.4517 559.35 11.7656C559.033 12.0794 558.715 12.3041 558.398 12.4397L558.098 11.6479C558.302 11.4981 558.499 11.2912 558.692 11.0272C558.888 10.7633 559.067 10.4387 559.227 10.0535C559.388 9.67185 559.514 9.22422 559.607 8.7106C559.703 8.19699 559.751 7.61381 559.751 6.96109V6.82199C559.751 6.16926 559.703 5.58609 559.607 5.07247C559.511 4.55886 559.38 4.11122 559.216 3.72958C559.056 3.34436 558.878 3.02157 558.681 2.76119C558.489 2.49725 558.294 2.29037 558.098 2.14057L558.398 1.34339C558.715 1.47893 559.033 1.70542 559.35 2.02287C559.671 2.33674 559.965 2.72909 560.233 3.19991C560.504 3.67072 560.722 4.21288 560.886 4.82637C561.05 5.43629 561.132 6.10506 561.132 6.83269Z" fill="black"/>
<g clip-path="url(#clip6_311_25034)">
<g filter="url(#filter3_d_311_25034)">
<rect x="497.367" y="24.6016" width="38.6724" height="38.6724" rx="3.86724" fill="white"/>
</g>
<g clip-path="url(#clip7_311_25034)">
<path d="M519.392 32.6678L506.418 44.5109C507.813 48.115 511.578 50.6973 516.004 50.6973C516.004 53.0324 514.622 54.9462 512.869 55.1156C512.772 55.1248 512.729 55.237 512.797 55.3034C512.819 55.3247 512.849 55.3362 512.88 55.3362C520.222 55.3087 526.166 49.0895 526.168 41.4212C526.168 41.4197 526.168 41.4189 526.168 41.4174C526.168 37.3776 523.339 33.9406 519.391 32.667L519.392 32.6678Z" fill="#FF8120"/>
<path d="M515.996 32.1328C510.4 32.1328 505.864 36.2847 505.864 41.4068C505.864 42.4905 506.068 43.5308 506.442 44.4978L519.373 32.6613C518.317 32.3197 517.18 32.1328 515.996 32.1328Z" fill="#3777BC"/>
<path d="M509.795 45.032C515.391 45.032 519.927 40.8801 519.927 35.7581C519.927 34.6743 519.723 33.634 519.349 32.667L506.418 44.5035C507.475 44.8451 508.611 45.032 509.796 45.032H509.795Z" fill="#1C3C5E"/>
</g>
</g>
<path d="M635.992 7.0895V8.29864H630.38L630.305 7.36236L633.553 2.21012H634.778L633.451 4.43045L631.835 7.0895H635.992ZM635.109 2.21012V10H633.569V2.21012H635.109ZM642.075 7.86527C642.075 8.35392 641.961 8.76589 641.733 9.10117C641.505 9.43288 641.191 9.68434 640.791 9.85554C640.395 10.0232 639.946 10.107 639.443 10.107C638.94 10.107 638.489 10.0232 638.089 9.85554C637.69 9.68434 637.374 9.43288 637.143 9.10117C636.911 8.76589 636.795 8.35392 636.795 7.86527C636.795 7.53713 636.861 7.24108 636.993 6.97714C637.125 6.70963 637.308 6.48136 637.544 6.29232C637.783 6.09971 638.063 5.95347 638.384 5.8536C638.705 5.75016 639.054 5.69845 639.432 5.69845C639.939 5.69845 640.392 5.78762 640.791 5.96596C641.191 6.1443 641.505 6.39575 641.733 6.72033C641.961 7.04491 642.075 7.42656 642.075 7.86527ZM640.524 7.76362C640.524 7.52464 640.477 7.31955 640.385 7.14835C640.296 6.97358 640.169 6.83982 640.005 6.74708C639.841 6.65435 639.65 6.60798 639.432 6.60798C639.215 6.60798 639.024 6.65435 638.86 6.74708C638.696 6.83982 638.567 6.97358 638.475 7.14835C638.386 7.31955 638.341 7.52464 638.341 7.76362C638.341 7.99903 638.386 8.20234 638.475 8.37354C638.567 8.54475 638.696 8.67672 638.86 8.76946C639.028 8.85863 639.222 8.90321 639.443 8.90321C639.664 8.90321 639.855 8.85863 640.016 8.76946C640.18 8.67672 640.304 8.54475 640.39 8.37354C640.479 8.20234 640.524 7.99903 640.524 7.76362ZM641.91 4.2753C641.91 4.67121 641.804 5.02254 641.594 5.32928C641.383 5.63246 641.091 5.86965 640.716 6.04086C640.345 6.21206 639.921 6.29767 639.443 6.29767C638.962 6.29767 638.534 6.21206 638.159 6.04086C637.785 5.86965 637.492 5.63246 637.282 5.32928C637.071 5.02254 636.966 4.67121 636.966 4.2753C636.966 3.80448 637.071 3.40856 637.282 3.08755C637.496 2.76297 637.788 2.51687 638.159 2.34923C638.534 2.18159 638.958 2.09777 639.432 2.09777C639.914 2.09777 640.34 2.18159 640.711 2.34923C641.086 2.51687 641.378 2.76297 641.589 3.08755C641.803 3.40856 641.91 3.80448 641.91 4.2753ZM640.369 4.34485C640.369 4.13441 640.331 3.9525 640.256 3.79913C640.181 3.64219 640.074 3.52092 639.935 3.43532C639.8 3.34971 639.632 3.30691 639.432 3.30691C639.24 3.30691 639.074 3.34793 638.935 3.42997C638.799 3.512 638.694 3.63149 638.619 3.78843C638.548 3.9418 638.512 4.12727 638.512 4.34485C638.512 4.55529 638.548 4.74076 638.619 4.90127C638.694 5.05821 638.801 5.18126 638.94 5.27043C639.079 5.3596 639.247 5.40419 639.443 5.40419C639.639 5.40419 639.805 5.3596 639.941 5.27043C640.08 5.18126 640.185 5.05821 640.256 4.90127C640.331 4.74076 640.369 4.55529 640.369 4.34485ZM646.564 8.92461L645.66 8.05253L649.828 3.79913L650.732 4.67656L646.564 8.92461ZM649.833 8.92461L645.665 4.67656L646.57 3.79913L650.737 8.05253L649.833 8.92461ZM659.854 7.0895V8.29864H654.242L654.167 7.36236L657.414 2.21012H658.64L657.313 4.43045L655.697 7.0895H659.854ZM658.971 2.21012V10H657.43V2.21012H658.971ZM665.937 7.86527C665.937 8.35392 665.823 8.76589 665.595 9.10117C665.367 9.43288 665.053 9.68434 664.653 9.85554C664.257 10.0232 663.808 10.107 663.305 10.107C662.802 10.107 662.351 10.0232 661.951 9.85554C661.552 9.68434 661.236 9.43288 661.004 9.10117C660.773 8.76589 660.657 8.35392 660.657 7.86527C660.657 7.53713 660.723 7.24108 660.855 6.97714C660.987 6.70963 661.17 6.48136 661.406 6.29232C661.645 6.09971 661.925 5.95347 662.246 5.8536C662.567 5.75016 662.916 5.69845 663.294 5.69845C663.801 5.69845 664.254 5.78762 664.653 5.96596C665.053 6.1443 665.367 6.39575 665.595 6.72033C665.823 7.04491 665.937 7.42656 665.937 7.86527ZM664.386 7.76362C664.386 7.52464 664.339 7.31955 664.247 7.14835C664.157 6.97358 664.031 6.83982 663.867 6.74708C663.703 6.65435 663.512 6.60798 663.294 6.60798C663.077 6.60798 662.886 6.65435 662.722 6.74708C662.558 6.83982 662.429 6.97358 662.337 7.14835C662.247 7.31955 662.203 7.52464 662.203 7.76362C662.203 7.99903 662.247 8.20234 662.337 8.37354C662.429 8.54475 662.558 8.67672 662.722 8.76946C662.889 8.85863 663.084 8.90321 663.305 8.90321C663.526 8.90321 663.717 8.85863 663.877 8.76946C664.041 8.67672 664.166 8.54475 664.252 8.37354C664.341 8.20234 664.386 7.99903 664.386 7.76362ZM665.771 4.2753C665.771 4.67121 665.666 5.02254 665.456 5.32928C665.245 5.63246 664.953 5.86965 664.578 6.04086C664.207 6.21206 663.783 6.29767 663.305 6.29767C662.823 6.29767 662.395 6.21206 662.021 6.04086C661.646 5.86965 661.354 5.63246 661.143 5.32928C660.933 5.02254 660.828 4.67121 660.828 4.2753C660.828 3.80448 660.933 3.40856 661.143 3.08755C661.357 2.76297 661.65 2.51687 662.021 2.34923C662.395 2.18159 662.82 2.09777 663.294 2.09777C663.776 2.09777 664.202 2.18159 664.573 2.34923C664.947 2.51687 665.24 2.76297 665.45 3.08755C665.664 3.40856 665.771 3.80448 665.771 4.2753ZM664.231 4.34485C664.231 4.13441 664.193 3.9525 664.118 3.79913C664.043 3.64219 663.936 3.52092 663.797 3.43532C663.662 3.34971 663.494 3.30691 663.294 3.30691C663.102 3.30691 662.936 3.34793 662.797 3.42997C662.661 3.512 662.556 3.63149 662.481 3.78843C662.41 3.9418 662.374 4.12727 662.374 4.34485C662.374 4.55529 662.41 4.74076 662.481 4.90127C662.556 5.05821 662.663 5.18126 662.802 5.27043C662.941 5.3596 663.109 5.40419 663.305 5.40419C663.501 5.40419 663.667 5.3596 663.803 5.27043C663.942 5.18126 664.047 5.05821 664.118 4.90127C664.193 4.74076 664.231 4.55529 664.231 4.34485ZM669.843 6.95039V6.83269C669.843 6.08009 669.921 5.39705 670.078 4.78356C670.239 4.17008 670.449 3.63149 670.71 3.16781C670.974 2.70056 671.261 2.31356 671.571 2.00681C671.881 1.70007 672.19 1.47893 672.497 1.34339L672.791 2.15662C672.588 2.30643 672.388 2.5133 672.192 2.77724C671.995 3.03762 671.817 3.35863 671.657 3.74028C671.5 4.11836 671.373 4.56421 671.277 5.07782C671.18 5.58788 671.132 6.16926 671.132 6.82199V6.96109C671.132 7.61381 671.18 8.19699 671.277 8.7106C671.373 9.22066 671.5 9.6665 671.657 10.0482C671.817 10.4334 671.995 10.7579 672.192 11.0219C672.388 11.2858 672.588 11.4945 672.791 11.6479L672.497 12.4397C672.19 12.3041 671.881 12.083 671.571 11.7763C671.261 11.4731 670.974 11.0879 670.71 10.6206C670.449 10.1569 670.239 9.61835 670.078 9.00486C669.921 8.38781 669.843 7.70298 669.843 6.95039ZM675.145 5.40954V10H673.599V4.21109H675.049L675.145 5.40954ZM674.931 6.90224H674.503C674.503 6.49919 674.551 6.12825 674.647 5.7894C674.747 5.44699 674.892 5.15094 675.081 4.90127C675.273 4.64803 675.511 4.45185 675.792 4.31275C676.074 4.17364 676.4 4.10409 676.771 4.10409C677.028 4.10409 677.264 4.14332 677.478 4.22179C677.692 4.2967 677.875 4.41618 678.029 4.58026C678.186 4.74076 678.307 4.9512 678.392 5.21158C678.478 5.46839 678.521 5.77692 678.521 6.13716V10H676.98V6.30837C676.98 6.04443 676.944 5.84112 676.873 5.69845C676.802 5.55577 676.7 5.4559 676.568 5.39884C676.44 5.34177 676.285 5.31323 676.103 5.31323C675.903 5.31323 675.728 5.35425 675.578 5.43629C675.432 5.51832 675.311 5.63246 675.214 5.7787C675.118 5.92137 675.047 6.08901 675 6.28162C674.954 6.47422 674.931 6.6811 674.931 6.90224ZM678.376 6.72568L677.825 6.79524C677.825 6.41716 677.872 6.06583 677.964 5.74125C678.061 5.41667 678.202 5.13133 678.387 4.88522C678.576 4.63911 678.81 4.44828 679.088 4.31275C679.366 4.17364 679.687 4.10409 680.051 4.10409C680.329 4.10409 680.582 4.14511 680.811 4.22714C681.039 4.30561 681.233 4.43223 681.394 4.60701C681.558 4.77821 681.683 5.00292 681.768 5.28113C681.858 5.55934 681.902 5.89997 681.902 6.30302V10H680.356V6.30302C680.356 6.03551 680.32 5.8322 680.249 5.6931C680.181 5.55042 680.081 5.45234 679.949 5.39884C679.821 5.34177 679.668 5.31323 679.489 5.31323C679.304 5.31323 679.142 5.35068 679.002 5.42559C678.863 5.49692 678.747 5.59679 678.655 5.7252C678.562 5.8536 678.492 6.00341 678.446 6.17461C678.4 6.34225 678.376 6.52594 678.376 6.72568ZM686.514 8.73735V1.78211H688.066V10H686.669L686.514 8.73735ZM682.855 7.1751V7.06275C682.855 6.62046 682.904 6.2192 683.004 5.85895C683.104 5.49514 683.25 5.18304 683.443 4.92267C683.636 4.66229 683.873 4.46077 684.155 4.3181C684.436 4.17543 684.757 4.10409 685.118 4.10409C685.457 4.10409 685.753 4.17543 686.006 4.3181C686.263 4.46077 686.48 4.66408 686.659 4.92802C686.84 5.18839 686.987 5.49692 687.097 5.8536C687.208 6.20671 687.288 6.59371 687.338 7.01459V7.2607C687.288 7.66375 687.208 8.03826 687.097 8.38424C686.987 8.73022 686.84 9.0334 686.659 9.29377C686.48 9.55058 686.263 9.75032 686.006 9.893C685.749 10.0357 685.449 10.107 685.107 10.107C684.747 10.107 684.426 10.0339 684.144 9.88765C683.866 9.74141 683.63 9.53632 683.438 9.27237C683.249 9.00843 683.104 8.69812 683.004 8.34144C682.904 7.98476 682.855 7.59598 682.855 7.1751ZM684.395 7.06275V7.1751C684.395 7.41407 684.413 7.637 684.449 7.84387C684.488 8.05075 684.551 8.23444 684.636 8.39494C684.725 8.55188 684.839 8.67494 684.979 8.76411C685.121 8.84971 685.294 8.89251 685.498 8.89251C685.761 8.89251 685.979 8.83366 686.15 8.71595C686.321 8.59468 686.452 8.42883 686.541 8.21839C686.634 8.00795 686.687 7.7654 686.701 7.49076V6.78989C686.691 6.56518 686.659 6.36365 686.605 6.18531C686.555 6.00341 686.48 5.84825 686.38 5.71985C686.284 5.59144 686.163 5.49157 686.017 5.42024C685.874 5.3489 685.704 5.31323 685.508 5.31323C685.308 5.31323 685.137 5.3596 684.995 5.45234C684.852 5.54151 684.736 5.66456 684.647 5.8215C684.561 5.97844 684.497 6.16391 684.454 6.37792C684.415 6.58836 684.395 6.81664 684.395 7.06275ZM690.81 5.32393V12.2257H689.269V4.21109H690.698L690.81 5.32393ZM694.475 7.04134V7.1537C694.475 7.57458 694.425 7.96514 694.325 8.32539C694.229 8.68564 694.086 8.99951 693.897 9.26702C693.708 9.53097 693.473 9.73784 693.191 9.88765C692.913 10.0339 692.592 10.107 692.228 10.107C691.875 10.107 691.568 10.0357 691.308 9.893C691.047 9.75032 690.828 9.55058 690.65 9.29377C690.475 9.0334 690.334 8.732 690.227 8.38959C690.12 8.04718 690.038 7.6798 689.981 7.28745V6.99319C690.038 6.57231 690.12 6.1871 690.227 5.83755C690.334 5.48444 690.475 5.17948 690.65 4.92267C690.828 4.66229 691.046 4.46077 691.302 4.3181C691.563 4.17543 691.868 4.10409 692.217 4.10409C692.585 4.10409 692.908 4.17364 693.186 4.31275C693.468 4.45185 693.703 4.65159 693.892 4.91197C694.085 5.17234 694.229 5.48266 694.325 5.8429C694.425 6.20315 694.475 6.60263 694.475 7.04134ZM692.929 7.1537V7.04134C692.929 6.79524 692.908 6.56874 692.865 6.36187C692.826 6.15143 692.761 5.96774 692.672 5.8108C692.587 5.65386 692.472 5.53259 692.33 5.44699C692.191 5.35782 692.021 5.31323 691.821 5.31323C691.611 5.31323 691.431 5.34712 691.281 5.41489C691.135 5.48266 691.015 5.58074 690.923 5.70915C690.83 5.83755 690.76 5.99092 690.714 6.16926C690.668 6.3476 690.639 6.54913 690.628 6.77383V7.51751C690.646 7.78145 690.696 8.01865 690.778 8.22909C690.86 8.43596 690.987 8.60003 691.158 8.7213C691.329 8.84258 691.554 8.90321 691.832 8.90321C692.035 8.90321 692.207 8.85863 692.346 8.76946C692.485 8.67672 692.597 8.5501 692.683 8.38959C692.772 8.22909 692.834 8.04361 692.87 7.83317C692.909 7.62273 692.929 7.39624 692.929 7.1537ZM697.059 4.21109V10H695.513V4.21109H697.059ZM695.417 2.70234C695.417 2.47763 695.495 2.29216 695.652 2.14592C695.809 1.99968 696.02 1.92656 696.284 1.92656C696.544 1.92656 696.753 1.99968 696.909 2.14592C697.07 2.29216 697.15 2.47763 697.15 2.70234C697.15 2.92705 697.07 3.11252 696.909 3.25876C696.753 3.405 696.544 3.47812 696.284 3.47812C696.02 3.47812 695.809 3.405 695.652 3.25876C695.495 3.11252 695.417 2.92705 695.417 2.70234ZM700.981 6.83269V6.95039C700.981 7.67802 700.899 8.34857 700.735 8.96206C700.571 9.57198 700.353 10.1124 700.082 10.5832C699.815 11.0576 699.52 11.4517 699.199 11.7656C698.882 12.0794 698.564 12.3041 698.247 12.4397L697.947 11.6479C698.151 11.4981 698.349 11.2912 698.541 11.0272C698.737 10.7633 698.916 10.4387 699.076 10.0535C699.237 9.67185 699.363 9.22422 699.456 8.7106C699.552 8.19699 699.601 7.61381 699.601 6.96109V6.82199C699.601 6.16926 699.552 5.58609 699.456 5.07247C699.36 4.55886 699.23 4.11122 699.066 3.72958C698.905 3.34436 698.727 3.02157 698.531 2.76119C698.338 2.49725 698.144 2.29037 697.947 2.14057L698.247 1.34339C698.564 1.47893 698.882 1.70542 699.199 2.02287C699.52 2.33674 699.815 2.72909 700.082 3.19991C700.353 3.67072 700.571 4.21288 700.735 4.82637C700.899 5.43629 700.981 6.10506 700.981 6.83269Z" fill="black"/>
<g clip-path="url(#clip8_311_25034)">
<g filter="url(#filter4_d_311_25034)">
<rect x="632.578" y="23.3125" width="25.7816" height="25.7816" rx="2.57816" fill="white"/>
</g>
<g clip-path="url(#clip9_311_25034)">
<path d="M646.928 28.3565L638.279 36.2519C639.21 38.6547 641.719 40.3762 644.67 40.3762C644.67 41.9329 643.749 43.2088 642.58 43.3217C642.515 43.3278 642.486 43.4026 642.532 43.4469C642.547 43.4611 642.566 43.4687 642.587 43.4687C647.482 43.4504 651.445 39.3043 651.446 34.1921C651.446 34.1911 651.446 34.1906 651.446 34.1895C651.446 31.4963 649.56 29.205 646.928 28.356L646.928 28.3565Z" fill="#FF8120"/>
<path d="M644.665 28C640.934 28 637.91 30.7679 637.91 34.1826C637.91 34.9051 638.046 35.5986 638.295 36.2433L646.916 28.3523C646.212 28.1246 645.454 28 644.665 28Z" fill="#3777BC"/>
<path d="M640.531 36.5993C644.261 36.5993 647.285 33.8313 647.285 30.4167C647.285 29.6942 647.149 29.0007 646.9 28.356L638.279 36.2469C638.984 36.4747 639.741 36.5993 640.531 36.5993H640.531Z" fill="#1C3C5E"/>
</g>
</g>
<defs>
<filter id="filter0_d_311_25034" x="2.57801" y="25.8905" width="118.596" height="118.595" filterUnits="userSpaceOnUse" color-interpolation-filters="sRGB">
<feFlood flood-opacity="0" result="BackgroundImageFix"/>
<feColorMatrix in="SourceAlpha" type="matrix" values="0 0 0 0 0 0 0 0 0 0 0 0 0 0 0 0 0 0 127 0" result="hardAlpha"/>
<feOffset dy="2.57816"/>
<feGaussianBlur stdDeviation="3.86725"/>
<feColorMatrix type="matrix" values="0 0 0 0 0 0 0 0 0 0 0 0 0 0 0 0 0 0 0.25 0"/>
<feBlend mode="normal" in2="BackgroundImageFix" result="effect1_dropShadow_311_25034"/>
<feBlend mode="normal" in="SourceGraphic" in2="effect1_dropShadow_311_25034" result="shape"/>
</filter>
<filter id="filter1_d_311_25034" x="193.434" y="24.6015" width="88.9465" height="88.9465" filterUnits="userSpaceOnUse" color-interpolation-filters="sRGB">
<feFlood flood-opacity="0" result="BackgroundImageFix"/>
<feColorMatrix in="SourceAlpha" type="matrix" values="0 0 0 0 0 0 0 0 0 0 0 0 0 0 0 0 0 0 127 0" result="hardAlpha"/>
<feOffset dy="1.93362"/>
<feGaussianBlur stdDeviation="2.90043"/>
<feColorMatrix type="matrix" values="0 0 0 0 0 0 0 0 0 0 0 0 0 0 0 0 0 0 0.25 0"/>
<feBlend mode="normal" in2="BackgroundImageFix" result="effect1_dropShadow_311_25034"/>
<feBlend mode="normal" in="SourceGraphic" in2="effect1_dropShadow_311_25034" result="shape"/>
</filter>
<filter id="filter2_d_311_25034" x="353.289" y="23.3125" width="59.298" height="59.298" filterUnits="userSpaceOnUse" color-interpolation-filters="sRGB">
<feFlood flood-opacity="0" result="BackgroundImageFix"/>
<feColorMatrix in="SourceAlpha" type="matrix" values="0 0 0 0 0 0 0 0 0 0 0 0 0 0 0 0 0 0 127 0" result="hardAlpha"/>
<feOffset dy="1.28908"/>
<feGaussianBlur stdDeviation="1.93362"/>
<feColorMatrix type="matrix" values="0 0 0 0 0 0 0 0 0 0 0 0 0 0 0 0 0 0 0.25 0"/>
<feBlend mode="normal" in2="BackgroundImageFix" result="effect1_dropShadow_311_25034"/>
<feBlend mode="normal" in="SourceGraphic" in2="effect1_dropShadow_311_25034" result="shape"/>
</filter>
<filter id="filter3_d_311_25034" x="494.467" y="22.6679" width="44.4737" height="44.4732" filterUnits="userSpaceOnUse" color-interpolation-filters="sRGB">
<feFlood flood-opacity="0" result="BackgroundImageFix"/>
<feColorMatrix in="SourceAlpha" type="matrix" values="0 0 0 0 0 0 0 0 0 0 0 0 0 0 0 0 0 0 127 0" result="hardAlpha"/>
<feOffset dy="0.966811"/>
<feGaussianBlur stdDeviation="1.45022"/>
<feColorMatrix type="matrix" values="0 0 0 0 0 0 0 0 0 0 0 0 0 0 0 0 0 0 0.25 0"/>
<feBlend mode="normal" in2="BackgroundImageFix" result="effect1_dropShadow_311_25034"/>
<feBlend mode="normal" in="SourceGraphic" in2="effect1_dropShadow_311_25034" result="shape"/>
</filter>
<filter id="filter4_d_311_25034" x="630.645" y="22.0234" width="29.6485" height="29.649" filterUnits="userSpaceOnUse" color-interpolation-filters="sRGB">
<feFlood flood-opacity="0" result="BackgroundImageFix"/>
<feColorMatrix in="SourceAlpha" type="matrix" values="0 0 0 0 0 0 0 0 0 0 0 0 0 0 0 0 0 0 127 0" result="hardAlpha"/>
<feOffset dy="0.644541"/>
<feGaussianBlur stdDeviation="0.966811"/>
<feColorMatrix type="matrix" values="0 0 0 0 0 0 0 0 0 0 0 0 0 0 0 0 0 0 0.25 0"/>
<feBlend mode="normal" in2="BackgroundImageFix" result="effect1_dropShadow_311_25034"/>
<feBlend mode="normal" in="SourceGraphic" in2="effect1_dropShadow_311_25034" result="shape"/>
</filter>
<clipPath id="clip0_311_25034">
<rect width="124" height="124" fill="white" transform="translate(0 20.7344)"/>
</clipPath>
<clipPath id="clip1_311_25034">
<rect width="54.1414" height="61.8759" fill="white" transform="translate(33.6396 51.7969)"/>
</clipPath>
<clipPath id="clip2_311_25034">
<rect width="93" height="93" fill="white" transform="translate(191.5 20.7344)"/>
</clipPath>
<clipPath id="clip3_311_25034">
<rect width="40.6061" height="46.4069" fill="white" transform="translate(216.229 43.5308)"/>
</clipPath>
<clipPath id="clip4_311_25034">
<rect width="62" height="62" fill="white" transform="translate(352 20.7344)"/>
</clipPath>
<clipPath id="clip5_311_25034">
<rect width="27.0707" height="30.938" fill="white" transform="translate(368.819 36.2656)"/>
</clipPath>
<clipPath id="clip6_311_25034">
<rect width="46" height="46" fill="white" transform="translate(493.5 20.7344)"/>
</clipPath>
<clipPath id="clip7_311_25034">
<rect width="20.303" height="23.2035" fill="white" transform="translate(505.864 32.1328)"/>
</clipPath>
<clipPath id="clip8_311_25034">
<rect width="31" height="31" fill="white" transform="translate(630 20.7344)"/>
</clipPath>
<clipPath id="clip9_311_25034">
<rect width="13.5354" height="15.469" fill="white" transform="translate(637.91 28)"/>
</clipPath>
</defs>
</svg>
