<svg width="547" height="185" viewBox="0 0 547 185" fill="none" xmlns="http://www.w3.org/2000/svg">
<path d="M283.989 31.1999V41.2939H282.981V32.4179L281.553 33.3699L280.993 32.5299L282.981 31.1999H283.989ZM288.81 40.0759C289.258 40.0759 289.496 40.3839 289.496 40.7619C289.496 41.1679 289.258 41.4759 288.81 41.4759C288.348 41.4759 288.096 41.1679 288.096 40.7619C288.096 40.3839 288.348 40.0759 288.81 40.0759ZM305.12 30.0659H306.17V42.3159H305.12V30.0659ZM296.3 39.1659C299.604 37.5839 301.27 35.1899 301.494 32.2499H296.846V31.3819H302.558C302.558 34.9099 300.934 38.0179 296.86 40.0059L296.3 39.1659ZM309.517 30.5559H310.553V32.1239H316.601V30.5559H317.651V35.4419H314.081V36.7859H319.093V37.6399H308.033V36.7859H313.045V35.4419H309.517V30.5559ZM309.475 42.0499V38.6619H310.525V41.1819H317.875V42.0499H309.475ZM310.553 34.6019H316.601V32.9639H310.553V34.6019ZM327.892 34.7279H329.712V30.3599H330.706V41.6719H329.712V35.5959H327.892V34.7279ZM323.258 39.3479V31.5499H327.794V32.4039H324.266V34.8819H327.22V35.7079H324.266V38.4939C326.03 38.4939 327.122 38.4239 328.424 38.1579L328.522 39.0119C327.122 39.3059 325.974 39.3479 324.042 39.3479H323.258ZM332.176 42.3159V30.0659H333.184V42.3159H332.176ZM336.222 30.7939H344.202V31.6619H337.272V34.6579H344.37V35.5259H336.222V30.7939ZM334.682 38.0319V37.1499H345.784V38.0319H340.716V42.2879H339.68V38.0319H334.682ZM355.542 30.0519H356.592V42.3299H355.542V30.0519ZM347.254 32.0819V31.2279H352.896V35.5539H348.332V38.4799C350.362 38.4799 352.168 38.3959 354.352 38.0459L354.464 38.8999C352.224 39.2779 350.376 39.3479 348.29 39.3479H347.282V34.6859H351.846V32.0819H347.254ZM297.042 57.2399C297.042 55.1679 297.672 53.2359 298.736 51.5559H299.87C298.666 53.2079 297.966 55.1539 297.966 57.2399C297.966 59.3259 298.666 61.2719 299.87 62.9239H298.736C297.672 61.2439 297.042 59.3119 297.042 57.2399ZM306.452 62.4059C303.4 62.4059 301.468 60.0679 301.468 57.2399C301.468 54.4119 303.4 52.0739 306.452 52.0739C307.838 52.0739 309.084 52.6619 309.98 53.5859L309.238 54.2859C308.524 53.5439 307.544 53.1099 306.452 53.1099C304.002 53.1099 302.49 54.9439 302.49 57.2399C302.49 59.5499 304.002 61.3839 306.452 61.3839C307.544 61.3839 308.524 60.9359 309.238 60.1939L309.98 60.8939C309.084 61.8179 307.838 62.4059 306.452 62.4059ZM314.261 61.3699C315.829 61.3699 316.655 60.2219 316.655 58.7379C316.655 57.2539 315.829 56.1059 314.261 56.1059C312.679 56.1059 311.881 57.2539 311.881 58.7379C311.881 60.2219 312.679 61.3699 314.261 61.3699ZM310.873 58.7379C310.873 56.7919 312.077 55.1259 314.261 55.1259C316.459 55.1259 317.663 56.7919 317.663 58.7379C317.663 60.6839 316.459 62.3499 314.261 62.3499C312.077 62.3499 310.873 60.6839 310.873 58.7379ZM318.675 51.9059H319.683V62.2939H318.675V51.9059ZM324.088 61.3699C325.656 61.3699 326.482 60.2219 326.482 58.7379C326.482 57.2539 325.656 56.1059 324.088 56.1059C322.506 56.1059 321.708 57.2539 321.708 58.7379C321.708 60.2219 322.506 61.3699 324.088 61.3699ZM320.7 58.7379C320.7 56.7919 321.904 55.1259 324.088 55.1259C326.286 55.1259 327.49 56.7919 327.49 58.7379C327.49 60.6839 326.286 62.3499 324.088 62.3499C321.904 62.3499 320.7 60.6839 320.7 58.7379ZM329.552 56.6659C329.958 55.7279 331.12 55.0979 332.086 55.0979V56.1339C330.784 56.1339 329.552 57.4919 329.552 58.6259V62.2939H328.544V55.1679H329.552V56.6659ZM336.852 51.5979L333.926 62.9659H332.918L335.858 51.5979H336.852ZM341.858 61.4119C343.44 61.4119 344.294 60.2779 344.294 58.7799C344.294 57.2959 343.44 56.1479 341.858 56.1479C340.556 56.1479 339.45 57.2959 339.45 58.7799C339.45 60.2779 340.556 61.4119 341.858 61.4119ZM338.442 62.2939V51.9059H339.45V56.6659C340.108 55.5179 341.088 55.1679 341.886 55.1679C344.084 55.1679 345.302 56.8339 345.302 58.7799C345.302 60.7399 344.07 62.4059 341.872 62.4059C341.088 62.4059 340.108 62.0699 339.45 60.8939V62.2939H338.442ZM349.553 61.3699C351.121 61.3699 351.947 60.2219 351.947 58.7379C351.947 57.2539 351.121 56.1059 349.553 56.1059C347.971 56.1059 347.173 57.2539 347.173 58.7379C347.173 60.2219 347.971 61.3699 349.553 61.3699ZM346.165 58.7379C346.165 56.7919 347.369 55.1259 349.553 55.1259C351.751 55.1259 352.955 56.7919 352.955 58.7379C352.955 60.6839 351.751 62.3499 349.553 62.3499C347.369 62.3499 346.165 60.6839 346.165 58.7379ZM355.017 56.6659C355.423 55.7279 356.585 55.0979 357.551 55.0979V56.1339C356.249 56.1339 355.017 57.4919 355.017 58.6259V62.2939H354.009V55.1679H355.017V56.6659ZM361.322 62.4059C359.152 62.4059 357.92 60.7399 357.92 58.7799C357.92 56.8339 359.152 55.1539 361.322 55.1539C362.232 55.1539 363.184 55.6159 363.772 56.6799V51.9059H364.78V62.2939H363.772V60.8799C363.17 61.9439 362.232 62.4059 361.322 62.4059ZM358.928 58.7799C358.928 60.2779 359.782 61.3979 361.364 61.3979C362.652 61.3979 363.772 60.2779 363.772 58.7799C363.772 57.2959 362.652 56.1619 361.364 56.1619C359.782 56.1619 358.928 57.2959 358.928 58.7799ZM371.44 58.2339C371.328 57.2259 370.838 56.1479 369.326 56.1479C367.996 56.1479 367.142 56.8619 366.96 58.2479L371.44 58.2339ZM365.924 58.7379C365.924 56.7779 367.1 55.1399 369.284 55.1399C371.552 55.1399 372.126 56.9039 372.196 57.0719C372.616 58.2199 372.448 59.2279 372.448 59.2279H366.96C367.142 60.5439 367.996 61.3279 369.298 61.3279C370.908 61.3279 371.3 60.4459 371.398 60.3059L372.266 60.7679C372.266 60.7679 371.678 62.3359 369.284 62.3359C367.1 62.3359 365.924 60.6839 365.924 58.7379ZM374.557 56.6659C374.963 55.7279 376.125 55.0979 377.091 55.0979V56.1339C375.789 56.1339 374.557 57.4919 374.557 58.6259V62.2939H373.549V55.1679H374.557V56.6659ZM381.857 51.5979L378.931 62.9659H377.923L380.863 51.5979H381.857ZM387.451 57.3939C388.627 57.3939 389.565 56.4279 389.565 55.2799C389.565 54.1039 388.613 53.1659 387.437 53.1659H384.581L384.595 57.3939H387.451ZM383.587 62.2939V52.1859H387.479C389.187 52.1859 390.545 53.5719 390.545 55.2799C390.545 56.9739 389.187 58.3739 387.479 58.3739H384.595V62.2939H383.587ZM392.648 56.6659C393.054 55.7279 394.216 55.0979 395.182 55.0979V56.1339C393.88 56.1339 392.648 57.4919 392.648 58.6259V62.2939H391.64V55.1679H392.648V56.6659ZM396.433 55.1679H397.441V62.2939H396.433V55.1679ZM396.293 52.5779C396.293 52.2279 396.517 51.9479 396.937 51.9479C397.343 51.9479 397.567 52.2279 397.567 52.5779C397.567 52.9419 397.343 53.2219 396.937 53.2219C396.517 53.2219 396.293 52.9419 396.293 52.5779ZM408.345 57.9259C408.345 56.7919 407.659 56.1479 406.651 56.1479C405.713 56.1479 404.747 57.0299 404.747 57.9259V62.2939H403.739V57.9259C403.739 57.0299 403.165 56.1479 402.073 56.1479C401.079 56.1479 400.155 57.0299 400.155 58.0379V62.2939H399.147V55.1679H400.155V56.3999C400.603 55.6299 401.261 55.1679 402.115 55.1679C403.151 55.1679 403.837 55.6159 404.341 56.5959C404.859 55.8679 405.573 55.1679 406.693 55.1679C408.149 55.1679 409.353 56.3439 409.353 57.8139V62.2939H408.345V57.9259ZM410.909 55.1679H411.917V62.2939H410.909V55.1679ZM410.769 52.5779C410.769 52.2279 410.993 51.9479 411.413 51.9479C411.819 51.9479 412.043 52.2279 412.043 52.5779C412.043 52.9419 411.819 53.2219 411.413 53.2219C410.993 53.2219 410.769 52.9419 410.769 52.5779ZM417.179 62.1399C416.927 62.1959 416.549 62.2659 416.143 62.2659C415.079 62.2659 414.225 61.4119 414.225 60.3619V56.0919H413.063V55.1119H414.225V52.9139H415.233V55.1119H416.899V56.0919H415.233V60.3619C415.233 60.9219 415.569 61.2579 416.143 61.2579C416.465 61.2579 416.731 61.2159 416.955 61.1599L417.179 62.1399ZM418.522 55.1679H419.53V62.2939H418.522V55.1679ZM418.382 52.5779C418.382 52.2279 418.606 51.9479 419.026 51.9479C419.432 51.9479 419.656 52.2279 419.656 52.5779C419.656 52.9419 419.432 53.2219 419.026 53.2219C418.606 53.2219 418.382 52.9419 418.382 52.5779ZM427.496 55.1679L424.542 62.2939H423.562L420.594 55.1679H421.686L424.052 60.8519L426.404 55.1679H427.496ZM433.174 58.2339C433.062 57.2259 432.572 56.1479 431.06 56.1479C429.73 56.1479 428.876 56.8619 428.694 58.2479L433.174 58.2339ZM427.658 58.7379C427.658 56.7779 428.834 55.1399 431.018 55.1399C433.286 55.1399 433.86 56.9039 433.93 57.0719C434.35 58.2199 434.182 59.2279 434.182 59.2279H428.694C428.876 60.5439 429.73 61.3279 431.032 61.3279C432.642 61.3279 433.034 60.4459 433.132 60.3059L434 60.7679C434 60.7679 433.412 62.3359 431.018 62.3359C428.834 62.3359 427.658 60.6839 427.658 58.7379ZM439.196 51.5979L436.27 62.9659H435.262L438.202 51.5979H439.196ZM441.417 60.3619C441.697 61.0059 442.355 61.3839 443.209 61.3419C444.441 61.3139 444.931 59.7879 443.671 59.3819C443.209 59.2419 442.369 59.0179 441.683 58.5699C440.619 57.8559 440.633 56.8059 440.955 56.1619C441.389 55.3079 442.495 55.0559 443.139 55.1119C443.741 55.1819 444.581 55.3919 445.113 56.1059L444.301 56.6939C444.007 56.2879 443.531 56.1619 443.055 56.1059C442.621 56.0639 442.047 56.2179 441.837 56.6099C441.655 56.9879 441.669 57.3659 442.243 57.7439C442.789 58.1079 443.489 58.2759 443.979 58.4439C446.331 59.1999 445.575 62.2799 443.237 62.3359C442.061 62.3919 440.941 61.7759 440.507 60.7539L441.417 60.3619ZM451.907 58.2339C451.795 57.2259 451.305 56.1479 449.793 56.1479C448.463 56.1479 447.609 56.8619 447.427 58.2479L451.907 58.2339ZM446.391 58.7379C446.391 56.7779 447.567 55.1399 449.751 55.1399C452.019 55.1399 452.593 56.9039 452.663 57.0719C453.083 58.2199 452.915 59.2279 452.915 59.2279H447.427C447.609 60.5439 448.463 61.3279 449.765 61.3279C451.375 61.3279 451.767 60.4459 451.865 60.3059L452.733 60.7679C452.733 60.7679 452.145 62.3359 449.751 62.3359C447.567 62.3359 446.391 60.6839 446.391 58.7379ZM457.096 61.3559C457.824 61.3559 458.496 61.0759 458.972 60.5999L459.728 61.2719C459.056 61.9439 458.16 62.3639 457.152 62.3639C454.856 62.3639 453.526 60.6699 453.526 58.6119C453.526 56.5679 454.856 54.8739 457.152 54.8739C458.16 54.8739 459.056 55.2939 459.728 55.9659L458.972 56.6379C458.496 56.1619 457.824 55.8819 457.096 55.8819C455.444 55.8819 454.534 57.0999 454.534 58.6119C454.534 60.1379 455.444 61.3559 457.096 61.3559ZM463.626 61.3699C465.194 61.3699 466.02 60.2219 466.02 58.7379C466.02 57.2539 465.194 56.1059 463.626 56.1059C462.044 56.1059 461.246 57.2539 461.246 58.7379C461.246 60.2219 462.044 61.3699 463.626 61.3699ZM460.238 58.7379C460.238 56.7919 461.442 55.1259 463.626 55.1259C465.824 55.1259 467.028 56.7919 467.028 58.7379C467.028 60.6839 465.824 62.3499 463.626 62.3499C461.442 62.3499 460.238 60.6839 460.238 58.7379ZM473.122 58.0939C473.122 56.9459 472.45 56.1479 471.274 56.1479C470.056 56.1479 469.16 57.2819 469.16 58.2339V62.2939H468.152V55.1679H469.16V56.3859C469.636 55.6859 470.336 55.1679 471.316 55.1679C472.982 55.1679 474.13 56.4279 474.13 57.9959V62.2939H473.122V58.0939ZM478.649 62.4059C476.479 62.4059 475.247 60.7399 475.247 58.7799C475.247 56.8339 476.479 55.1539 478.649 55.1539C479.559 55.1539 480.511 55.6159 481.099 56.6799V51.9059H482.107V62.2939H481.099V60.8799C480.497 61.9439 479.559 62.4059 478.649 62.4059ZM476.255 58.7799C476.255 60.2779 477.109 61.3979 478.691 61.3979C479.979 61.3979 481.099 60.2779 481.099 58.7799C481.099 57.2959 479.979 56.1619 478.691 56.1619C477.109 56.1619 476.255 57.2959 476.255 58.7799ZM486.652 61.3839C487.912 61.3839 489.046 60.3619 489.06 58.7939C489.046 57.2399 487.912 56.2039 486.652 56.2039C485.098 56.2039 484.258 57.3239 484.258 58.7939C484.258 60.2639 485.098 61.3839 486.652 61.3839ZM483.25 58.7939C483.25 56.8479 484.468 55.2099 486.638 55.2099C487.464 55.2099 488.388 55.6439 489.032 56.6799V55.1679H490.04V62.2939H489.032V60.8939C488.36 61.9859 487.478 62.3919 486.638 62.3919C484.468 62.3919 483.25 60.7259 483.25 58.7939ZM492.239 56.6659C492.645 55.7279 493.807 55.0979 494.773 55.0979V56.1339C493.471 56.1339 492.239 57.4919 492.239 58.6259V62.2939H491.231V55.1679H492.239V56.6659ZM498.265 65.5139H497.173L498.573 62.0279L495.661 55.1679H496.767L499.105 60.6839L501.345 55.1679H502.437L499.721 61.8599L498.265 65.5139ZM506.415 57.2399C506.415 59.3119 505.799 61.2439 504.735 62.9239H503.601C504.805 61.2719 505.491 59.3259 505.491 57.2399C505.491 55.1539 504.805 53.2079 503.601 51.5559H504.735C505.799 53.2359 506.415 55.1679 506.415 57.2399Z" fill="#616161"/>
<path d="M279.887 96.8592C281.889 94.9272 284.913 92.5892 284.913 90.7552C284.913 89.3552 283.989 88.6412 282.897 88.6412C282.127 88.6412 281.273 88.9072 280.755 90.0972L279.831 89.7052C280.559 88.0532 281.931 87.6332 282.897 87.6332C284.395 87.6332 285.921 88.7812 285.921 90.7552C285.921 92.8272 283.331 95.0672 281.371 96.8592L286.089 96.8732V97.8812H279.873L279.887 96.8592ZM288.81 96.6492C289.258 96.6492 289.496 96.9572 289.496 97.3352C289.496 97.7412 289.258 98.0492 288.81 98.0492C288.348 98.0492 288.096 97.7412 288.096 97.3352C288.096 96.9572 288.348 96.6492 288.81 96.6492ZM304.56 86.6392H305.61V89.8032H307.444V90.6852H305.61V93.8632H304.56V86.6392ZM296.09 92.7852C297.07 92.7852 298.218 92.7852 299.408 92.7432V91.9592C297.98 91.8472 297.084 91.2872 297.084 90.3632C297.084 89.3552 298.19 88.7532 299.912 88.7532C301.648 88.7532 302.754 89.3552 302.754 90.3632C302.754 91.2732 301.872 91.8472 300.444 91.9592V92.7152C301.592 92.6592 302.74 92.5752 303.818 92.4212L303.888 93.0932C301.284 93.5412 298.358 93.5692 296.216 93.5692L296.09 92.7852ZM296.398 88.3472V87.5772H299.408V86.5132H300.444V87.5772H303.44V88.3472H296.398ZM297.728 95.1792V94.4372H305.61V96.8732H298.778V97.9932H306.086V98.7492H297.756V96.1732H304.588V95.1792H297.728ZM298.078 90.3632C298.078 90.9232 298.792 91.2732 299.912 91.2732C301.046 91.2732 301.76 90.9232 301.76 90.3632C301.76 89.8032 301.046 89.4532 299.912 89.4532C298.792 89.4532 298.078 89.8032 298.078 90.3632ZM311.141 87.3392H312.177V88.5712C312.177 90.3212 313.423 91.8612 315.187 92.4772L314.613 93.3032C313.269 92.7992 312.219 91.7912 311.687 90.4892C311.169 91.9732 310.049 93.1072 308.579 93.6672L308.033 92.8132C309.867 92.1412 311.141 90.5172 311.141 88.6132V87.3392ZM309.979 96.5652C309.979 95.1092 311.533 94.2552 314.067 94.2552C316.587 94.2552 318.127 95.1092 318.127 96.5652C318.127 98.0352 316.587 98.8612 314.067 98.8612C311.533 98.8612 309.979 98.0352 309.979 96.5652ZM311.043 96.5652C311.043 97.4752 312.177 98.0352 314.067 98.0352C315.929 98.0352 317.091 97.4752 317.091 96.5652C317.091 95.6412 315.929 95.0952 314.067 95.0952C312.177 95.0952 311.043 95.6412 311.043 96.5652ZM314.305 90.1532V89.2712H317.021V86.6392H318.071V93.8912H317.021V90.1532H314.305ZM328.277 86.6392H329.327V91.8612H331.273V92.7572H329.327V98.8892H328.277V86.6392ZM319.779 95.6272C320.773 95.6272 321.935 95.6272 323.139 95.5852V94.2272C321.725 94.0592 320.787 93.2332 320.787 92.0012C320.787 90.6292 321.963 89.7332 323.657 89.7332C325.365 89.7332 326.541 90.6292 326.541 92.0012C326.541 93.2192 325.603 94.0592 324.189 94.2272V95.5432C325.323 95.4872 326.457 95.4032 327.521 95.2492L327.605 96.0192C324.959 96.5092 322.075 96.5232 319.947 96.5232L319.779 95.6272ZM319.989 88.9912V88.1372H323.139V86.6532H324.189V88.1372H327.325V88.9912H319.989ZM321.781 92.0012C321.781 92.8692 322.537 93.4292 323.657 93.4292C324.791 93.4292 325.547 92.8692 325.547 92.0012C325.547 91.1192 324.791 90.5452 323.657 90.5452C322.537 90.5452 321.781 91.1192 321.781 92.0012ZM339.778 91.3012H341.598V86.9332H342.592V98.2452H341.598V92.1692H339.778V91.3012ZM335.144 95.9212V88.1232H339.68V88.9772H336.152V91.4552H339.106V92.2812H336.152V95.0672C337.916 95.0672 339.008 94.9972 340.31 94.7312L340.408 95.5852C339.008 95.8792 337.86 95.9212 335.928 95.9212H335.144ZM344.062 98.8892V86.6392H345.07V98.8892H344.062ZM348.108 87.3672H356.088V88.2352H349.158V91.2312H356.256V92.0992H348.108V87.3672ZM346.568 94.6052V93.7232H357.67V94.6052H352.602V98.8612H351.566V94.6052H346.568ZM367.429 86.6252H368.479V98.9032H367.429V86.6252ZM359.141 88.6552V87.8012H364.783V92.1272H360.219V95.0532C362.249 95.0532 364.055 94.9692 366.239 94.6192L366.351 95.4732C364.111 95.8512 362.263 95.9212 360.177 95.9212H359.169V91.2592H363.733V88.6552H359.141ZM297.042 113.813C297.042 111.741 297.672 109.809 298.736 108.129H299.87C298.666 109.781 297.966 111.727 297.966 113.813C297.966 115.899 298.666 117.845 299.87 119.497H298.736C297.672 117.817 297.042 115.885 297.042 113.813ZM306.452 118.979C303.4 118.979 301.468 116.641 301.468 113.813C301.468 110.985 303.4 108.647 306.452 108.647C307.838 108.647 309.084 109.235 309.98 110.159L309.238 110.859C308.524 110.117 307.544 109.683 306.452 109.683C304.002 109.683 302.49 111.517 302.49 113.813C302.49 116.123 304.002 117.957 306.452 117.957C307.544 117.957 308.524 117.509 309.238 116.767L309.98 117.467C309.084 118.391 307.838 118.979 306.452 118.979ZM314.261 117.943C315.829 117.943 316.655 116.795 316.655 115.311C316.655 113.827 315.829 112.679 314.261 112.679C312.679 112.679 311.881 113.827 311.881 115.311C311.881 116.795 312.679 117.943 314.261 117.943ZM310.873 115.311C310.873 113.365 312.077 111.699 314.261 111.699C316.459 111.699 317.663 113.365 317.663 115.311C317.663 117.257 316.459 118.923 314.261 118.923C312.077 118.923 310.873 117.257 310.873 115.311ZM318.675 108.479H319.683V118.867H318.675V108.479ZM324.088 117.943C325.656 117.943 326.482 116.795 326.482 115.311C326.482 113.827 325.656 112.679 324.088 112.679C322.506 112.679 321.708 113.827 321.708 115.311C321.708 116.795 322.506 117.943 324.088 117.943ZM320.7 115.311C320.7 113.365 321.904 111.699 324.088 111.699C326.286 111.699 327.49 113.365 327.49 115.311C327.49 117.257 326.286 118.923 324.088 118.923C321.904 118.923 320.7 117.257 320.7 115.311ZM329.552 113.239C329.958 112.301 331.12 111.671 332.086 111.671V112.707C330.784 112.707 329.552 114.065 329.552 115.199V118.867H328.544V111.741H329.552V113.239ZM336.852 108.171L333.926 119.539H332.918L335.858 108.171H336.852ZM341.858 117.985C343.44 117.985 344.294 116.851 344.294 115.353C344.294 113.869 343.44 112.721 341.858 112.721C340.556 112.721 339.45 113.869 339.45 115.353C339.45 116.851 340.556 117.985 341.858 117.985ZM338.442 118.867V108.479H339.45V113.239C340.108 112.091 341.088 111.741 341.886 111.741C344.084 111.741 345.302 113.407 345.302 115.353C345.302 117.313 344.07 118.979 341.872 118.979C341.088 118.979 340.108 118.643 339.45 117.467V118.867H338.442ZM349.553 117.943C351.121 117.943 351.947 116.795 351.947 115.311C351.947 113.827 351.121 112.679 349.553 112.679C347.971 112.679 347.173 113.827 347.173 115.311C347.173 116.795 347.971 117.943 349.553 117.943ZM346.165 115.311C346.165 113.365 347.369 111.699 349.553 111.699C351.751 111.699 352.955 113.365 352.955 115.311C352.955 117.257 351.751 118.923 349.553 118.923C347.369 118.923 346.165 117.257 346.165 115.311ZM355.017 113.239C355.423 112.301 356.585 111.671 357.551 111.671V112.707C356.249 112.707 355.017 114.065 355.017 115.199V118.867H354.009V111.741H355.017V113.239ZM361.322 118.979C359.152 118.979 357.92 117.313 357.92 115.353C357.92 113.407 359.152 111.727 361.322 111.727C362.232 111.727 363.184 112.189 363.772 113.253V108.479H364.78V118.867H363.772V117.453C363.17 118.517 362.232 118.979 361.322 118.979ZM358.928 115.353C358.928 116.851 359.782 117.971 361.364 117.971C362.652 117.971 363.772 116.851 363.772 115.353C363.772 113.869 362.652 112.735 361.364 112.735C359.782 112.735 358.928 113.869 358.928 115.353ZM371.44 114.807C371.328 113.799 370.838 112.721 369.326 112.721C367.996 112.721 367.142 113.435 366.96 114.821L371.44 114.807ZM365.924 115.311C365.924 113.351 367.1 111.713 369.284 111.713C371.552 111.713 372.126 113.477 372.196 113.645C372.616 114.793 372.448 115.801 372.448 115.801H366.96C367.142 117.117 367.996 117.901 369.298 117.901C370.908 117.901 371.3 117.019 371.398 116.879L372.266 117.341C372.266 117.341 371.678 118.909 369.284 118.909C367.1 118.909 365.924 117.257 365.924 115.311ZM374.557 113.239C374.963 112.301 376.125 111.671 377.091 111.671V112.707C375.789 112.707 374.557 114.065 374.557 115.199V118.867H373.549V111.741H374.557V113.239ZM381.857 108.171L378.931 119.539H377.923L380.863 108.171H381.857ZM387.451 113.967C388.627 113.967 389.565 113.001 389.565 111.853C389.565 110.677 388.613 109.739 387.437 109.739H384.581L384.595 113.967H387.451ZM383.587 118.867V108.759H387.479C389.187 108.759 390.545 110.145 390.545 111.853C390.545 113.547 389.187 114.947 387.479 114.947H384.595V118.867H383.587ZM392.648 113.239C393.054 112.301 394.216 111.671 395.182 111.671V112.707C393.88 112.707 392.648 114.065 392.648 115.199V118.867H391.64V111.741H392.648V113.239ZM396.433 111.741H397.441V118.867H396.433V111.741ZM396.293 109.151C396.293 108.801 396.517 108.521 396.937 108.521C397.343 108.521 397.567 108.801 397.567 109.151C397.567 109.515 397.343 109.795 396.937 109.795C396.517 109.795 396.293 109.515 396.293 109.151ZM408.345 114.499C408.345 113.365 407.659 112.721 406.651 112.721C405.713 112.721 404.747 113.603 404.747 114.499V118.867H403.739V114.499C403.739 113.603 403.165 112.721 402.073 112.721C401.079 112.721 400.155 113.603 400.155 114.611V118.867H399.147V111.741H400.155V112.973C400.603 112.203 401.261 111.741 402.115 111.741C403.151 111.741 403.837 112.189 404.341 113.169C404.859 112.441 405.573 111.741 406.693 111.741C408.149 111.741 409.353 112.917 409.353 114.387V118.867H408.345V114.499ZM410.909 111.741H411.917V118.867H410.909V111.741ZM410.769 109.151C410.769 108.801 410.993 108.521 411.413 108.521C411.819 108.521 412.043 108.801 412.043 109.151C412.043 109.515 411.819 109.795 411.413 109.795C410.993 109.795 410.769 109.515 410.769 109.151ZM417.179 118.713C416.927 118.769 416.549 118.839 416.143 118.839C415.079 118.839 414.225 117.985 414.225 116.935V112.665H413.063V111.685H414.225V109.487H415.233V111.685H416.899V112.665H415.233V116.935C415.233 117.495 415.569 117.831 416.143 117.831C416.465 117.831 416.731 117.789 416.955 117.733L417.179 118.713ZM418.522 111.741H419.53V118.867H418.522V111.741ZM418.382 109.151C418.382 108.801 418.606 108.521 419.026 108.521C419.432 108.521 419.656 108.801 419.656 109.151C419.656 109.515 419.432 109.795 419.026 109.795C418.606 109.795 418.382 109.515 418.382 109.151ZM427.496 111.741L424.542 118.867H423.562L420.594 111.741H421.686L424.052 117.425L426.404 111.741H427.496ZM433.174 114.807C433.062 113.799 432.572 112.721 431.06 112.721C429.73 112.721 428.876 113.435 428.694 114.821L433.174 114.807ZM427.658 115.311C427.658 113.351 428.834 111.713 431.018 111.713C433.286 111.713 433.86 113.477 433.93 113.645C434.35 114.793 434.182 115.801 434.182 115.801H428.694C428.876 117.117 429.73 117.901 431.032 117.901C432.642 117.901 433.034 117.019 433.132 116.879L434 117.341C434 117.341 433.412 118.909 431.018 118.909C428.834 118.909 427.658 117.257 427.658 115.311ZM439.196 108.171L436.27 119.539H435.262L438.202 108.171H439.196ZM441.417 116.935C441.697 117.579 442.355 117.957 443.209 117.915C444.441 117.887 444.931 116.361 443.671 115.955C443.209 115.815 442.369 115.591 441.683 115.143C440.619 114.429 440.633 113.379 440.955 112.735C441.389 111.881 442.495 111.629 443.139 111.685C443.741 111.755 444.581 111.965 445.113 112.679L444.301 113.267C444.007 112.861 443.531 112.735 443.055 112.679C442.621 112.637 442.047 112.791 441.837 113.183C441.655 113.561 441.669 113.939 442.243 114.317C442.789 114.681 443.489 114.849 443.979 115.017C446.331 115.773 445.575 118.853 443.237 118.909C442.061 118.965 440.941 118.349 440.507 117.327L441.417 116.935ZM451.907 114.807C451.795 113.799 451.305 112.721 449.793 112.721C448.463 112.721 447.609 113.435 447.427 114.821L451.907 114.807ZM446.391 115.311C446.391 113.351 447.567 111.713 449.751 111.713C452.019 111.713 452.593 113.477 452.663 113.645C453.083 114.793 452.915 115.801 452.915 115.801H447.427C447.609 117.117 448.463 117.901 449.765 117.901C451.375 117.901 451.767 117.019 451.865 116.879L452.733 117.341C452.733 117.341 452.145 118.909 449.751 118.909C447.567 118.909 446.391 117.257 446.391 115.311ZM457.096 117.929C457.824 117.929 458.496 117.649 458.972 117.173L459.728 117.845C459.056 118.517 458.16 118.937 457.152 118.937C454.856 118.937 453.526 117.243 453.526 115.185C453.526 113.141 454.856 111.447 457.152 111.447C458.16 111.447 459.056 111.867 459.728 112.539L458.972 113.211C458.496 112.735 457.824 112.455 457.096 112.455C455.444 112.455 454.534 113.673 454.534 115.185C454.534 116.711 455.444 117.929 457.096 117.929ZM463.626 117.943C465.194 117.943 466.02 116.795 466.02 115.311C466.02 113.827 465.194 112.679 463.626 112.679C462.044 112.679 461.246 113.827 461.246 115.311C461.246 116.795 462.044 117.943 463.626 117.943ZM460.238 115.311C460.238 113.365 461.442 111.699 463.626 111.699C465.824 111.699 467.028 113.365 467.028 115.311C467.028 117.257 465.824 118.923 463.626 118.923C461.442 118.923 460.238 117.257 460.238 115.311ZM473.122 114.667C473.122 113.519 472.45 112.721 471.274 112.721C470.056 112.721 469.16 113.855 469.16 114.807V118.867H468.152V111.741H469.16V112.959C469.636 112.259 470.336 111.741 471.316 111.741C472.982 111.741 474.13 113.001 474.13 114.569V118.867H473.122V114.667ZM478.649 118.979C476.479 118.979 475.247 117.313 475.247 115.353C475.247 113.407 476.479 111.727 478.649 111.727C479.559 111.727 480.511 112.189 481.099 113.253V108.479H482.107V118.867H481.099V117.453C480.497 118.517 479.559 118.979 478.649 118.979ZM476.255 115.353C476.255 116.851 477.109 117.971 478.691 117.971C479.979 117.971 481.099 116.851 481.099 115.353C481.099 113.869 479.979 112.735 478.691 112.735C477.109 112.735 476.255 113.869 476.255 115.353ZM486.652 117.957C487.912 117.957 489.046 116.935 489.06 115.367C489.046 113.813 487.912 112.777 486.652 112.777C485.098 112.777 484.258 113.897 484.258 115.367C484.258 116.837 485.098 117.957 486.652 117.957ZM483.25 115.367C483.25 113.421 484.468 111.783 486.638 111.783C487.464 111.783 488.388 112.217 489.032 113.253V111.741H490.04V118.867H489.032V117.467C488.36 118.559 487.478 118.965 486.638 118.965C484.468 118.965 483.25 117.299 483.25 115.367ZM492.239 113.239C492.645 112.301 493.807 111.671 494.773 111.671V112.707C493.471 112.707 492.239 114.065 492.239 115.199V118.867H491.231V111.741H492.239V113.239ZM498.265 122.087H497.173L498.573 118.601L495.661 111.741H496.767L499.105 117.257L501.345 111.741H502.437L499.721 118.433L498.265 122.087ZM503.671 113.211H509.579V114.205H503.671V113.211ZM514.71 117.999C516.25 117.999 517.118 116.851 517.118 115.353C517.118 113.883 516.25 112.735 514.71 112.735C513.422 112.735 512.316 113.883 512.316 115.353C512.316 116.851 513.422 117.999 514.71 117.999ZM511.294 122.087V111.741H512.302V113.253C512.764 112.245 513.856 111.755 514.724 111.755C516.908 111.755 518.126 113.421 518.126 115.353C518.126 117.313 516.908 118.979 514.724 118.979C513.828 118.979 512.764 118.377 512.302 117.467V122.087H511.294ZM520.193 113.239C520.599 112.301 521.761 111.671 522.727 111.671V112.707C521.425 112.707 520.193 114.065 520.193 115.199V118.867H519.185V111.741H520.193V113.239ZM528.612 114.807C528.5 113.799 528.01 112.721 526.498 112.721C525.168 112.721 524.314 113.435 524.132 114.821L528.612 114.807ZM523.096 115.311C523.096 113.351 524.272 111.713 526.456 111.713C528.724 111.713 529.298 113.477 529.368 113.645C529.788 114.793 529.62 115.801 529.62 115.801H524.132C524.314 117.117 525.168 117.901 526.47 117.901C528.08 117.901 528.472 117.019 528.57 116.879L529.438 117.341C529.438 117.341 528.85 118.909 526.456 118.909C524.272 118.909 523.096 117.257 523.096 115.311ZM531.435 116.935C531.715 117.579 532.373 117.957 533.227 117.915C534.459 117.887 534.949 116.361 533.689 115.955C533.227 115.815 532.387 115.591 531.701 115.143C530.637 114.429 530.651 113.379 530.973 112.735C531.407 111.881 532.513 111.629 533.157 111.685C533.759 111.755 534.599 111.965 535.131 112.679L534.319 113.267C534.025 112.861 533.549 112.735 533.073 112.679C532.639 112.637 532.065 112.791 531.855 113.183C531.673 113.561 531.687 113.939 532.261 114.317C532.807 114.681 533.507 114.849 533.997 115.017C536.349 115.773 535.593 118.853 533.255 118.909C532.079 118.965 530.959 118.349 530.525 117.327L531.435 116.935ZM537.032 116.935C537.312 117.579 537.97 117.957 538.824 117.915C540.056 117.887 540.546 116.361 539.286 115.955C538.824 115.815 537.984 115.591 537.298 115.143C536.234 114.429 536.248 113.379 536.57 112.735C537.004 111.881 538.11 111.629 538.754 111.685C539.356 111.755 540.196 111.965 540.728 112.679L539.916 113.267C539.622 112.861 539.146 112.735 538.67 112.679C538.236 112.637 537.662 112.791 537.452 113.183C537.27 113.561 537.284 113.939 537.858 114.317C538.404 114.681 539.104 114.849 539.594 115.017C541.946 115.773 541.19 118.853 538.852 118.909C537.676 118.965 536.556 118.349 536.122 117.327L537.032 116.935ZM545.125 113.813C545.125 115.885 544.509 117.817 543.445 119.497H542.311C543.515 117.845 544.201 115.899 544.201 113.813C544.201 111.727 543.515 109.781 542.311 108.129H543.445C544.509 109.809 545.125 111.741 545.125 113.813Z" fill="#616161"/>
<g filter="url(#filter0_dd_739_13919)">
<g clip-path="url(#clip0_739_13919)">
<path d="M27.8901 21.7262C27.8901 12.8181 35.1116 5.59668 44.0197 5.59668H232.534C241.442 5.59668 248.663 12.8181 248.663 21.7262V154.821C248.663 163.729 241.442 170.95 232.534 170.95H44.0197C35.1116 170.95 27.8901 163.729 27.8901 154.82V21.7262Z" fill="white"/>
<mask id="path-4-inside-1_739_13919" fill="white">
<path d="M44.0198 35.1675C44.0198 32.1982 46.4269 29.791 49.3963 29.791H227.157C230.127 29.791 232.534 32.1982 232.534 35.1675V56.6736C232.534 59.643 230.127 62.0501 227.157 62.0501H49.3963C46.4269 62.0501 44.0198 59.643 44.0198 56.6736V35.1675Z"/>
</mask>
<path d="M44.0198 35.1675C44.0198 32.1982 46.4269 29.791 49.3963 29.791H227.157C230.127 29.791 232.534 32.1982 232.534 35.1675V56.6736C232.534 59.643 230.127 62.0501 227.157 62.0501H49.3963C46.4269 62.0501 44.0198 59.643 44.0198 56.6736V35.1675Z" fill="white"/>
<path d="M49.3963 29.791V30.3671H227.157V29.791V29.215H49.3963V29.791ZM232.534 35.1675H231.958V56.6736H232.534H233.11V35.1675H232.534ZM227.157 62.0501V61.474H49.3963V62.0501V62.6262H227.157V62.0501ZM44.0198 56.6736H44.5958V35.1675H44.0198H43.4437V56.6736H44.0198ZM49.3963 62.0501V61.474C46.7451 61.474 44.5958 59.3248 44.5958 56.6736H44.0198H43.4437C43.4437 59.9611 46.1088 62.6262 49.3963 62.6262V62.0501ZM232.534 56.6736H231.958C231.958 59.3248 229.809 61.474 227.157 61.474V62.0501V62.6262C230.445 62.6262 233.11 59.9611 233.11 56.6736H232.534ZM227.157 29.791V30.3671C229.809 30.3671 231.958 32.5163 231.958 35.1675H232.534H233.11C233.11 31.88 230.445 29.215 227.157 29.215V29.791ZM49.3963 29.791V29.215C46.1088 29.215 43.4437 31.88 43.4437 35.1675H44.0198H44.5958C44.5958 32.5163 46.7451 30.3671 49.3963 30.3671V29.791Z" fill="#E0E0E0" mask="url(#path-4-inside-1_739_13919)"/>
<path d="M54.2712 49.3649C55.4118 49.3649 56.0547 48.5147 56.0547 47.4052C56.0547 46.3165 55.4118 45.4662 54.2712 45.4662C53.3172 45.4662 52.4981 46.3165 52.4981 47.4052C52.4981 48.5147 53.3172 49.3649 54.2712 49.3649ZM51.7412 52.3927V44.73H52.4877V45.8498C52.8299 45.1033 53.6387 44.7404 54.2816 44.7404C55.8991 44.7404 56.8012 45.9743 56.8012 47.4052C56.8012 48.8569 55.8991 50.0908 54.2816 50.0908C53.6179 50.0908 52.8299 49.6449 52.4877 48.9709V52.3927H51.7412ZM57.7269 42.314H58.4735V50.0078H57.7269V42.314ZM61.9194 49.3338C62.8526 49.3338 63.6925 48.5769 63.7029 47.4156C63.6925 46.2646 62.8526 45.4973 61.9194 45.4973C60.7685 45.4973 60.1463 46.3268 60.1463 47.4156C60.1463 48.5043 60.7685 49.3338 61.9194 49.3338ZM59.3998 47.4156C59.3998 45.9743 60.3019 44.7611 61.9091 44.7611C62.5208 44.7611 63.2052 45.0825 63.6822 45.8498V44.73H64.4287V50.0078H63.6822V48.9709C63.1844 49.7797 62.5312 50.0804 61.9091 50.0804C60.3019 50.0804 59.3998 48.8465 59.3998 47.4156ZM67.9773 49.3131C68.5165 49.3131 69.0142 49.1057 69.3667 48.7532L69.9267 49.2509C69.429 49.7486 68.7653 50.0597 68.0188 50.0597C66.3183 50.0597 65.3332 48.805 65.3332 47.2808C65.3332 45.7669 66.3183 44.5122 68.0188 44.5122C68.7653 44.5122 69.429 44.8233 69.9267 45.321L69.3667 45.8187C69.0142 45.4662 68.5165 45.2588 67.9773 45.2588C66.7538 45.2588 66.0798 46.1609 66.0798 47.2808C66.0798 48.411 66.7538 49.3131 67.9773 49.3131ZM74.5623 47.0008C74.4793 46.2542 74.1164 45.4558 72.9966 45.4558C72.0115 45.4558 71.379 45.9846 71.2442 47.0112L74.5623 47.0008ZM70.4769 47.3741C70.4769 45.9224 71.3479 44.7093 72.9655 44.7093C74.6452 44.7093 75.0704 46.0158 75.1222 46.1402C75.4333 46.9904 75.3088 47.737 75.3088 47.737H71.2442C71.379 48.7117 72.0115 49.2924 72.9758 49.2924C74.1683 49.2924 74.4586 48.6391 74.5312 48.5354L75.174 48.8776C75.174 48.8776 74.7386 50.0389 72.9655 50.0389C71.3479 50.0389 70.4769 48.8154 70.4769 47.3741ZM80.0405 47.0423C80.0405 46.0572 79.4806 45.4869 78.6926 45.4869C77.8734 45.4869 77.158 46.2542 77.158 47.2497V50.0078H76.4114V42.314H77.158V45.7254C77.4172 45.1862 78.0082 44.7611 78.7237 44.7611C79.7917 44.7611 80.7871 45.6736 80.7871 47.0008V50.0078H80.0405V47.0423ZM84.4684 49.3235C85.6297 49.3235 86.2415 48.4732 86.2415 47.3741C86.2415 46.275 85.6297 45.4247 84.4684 45.4247C83.2967 45.4247 82.7056 46.275 82.7056 47.3741C82.7056 48.4732 83.2967 49.3235 84.4684 49.3235ZM81.9591 47.3741C81.9591 45.9328 82.8508 44.6989 84.4684 44.6989C86.0963 44.6989 86.988 45.9328 86.988 47.3741C86.988 48.8154 86.0963 50.0493 84.4684 50.0493C82.8508 50.0493 81.9591 48.8154 81.9591 47.3741ZM87.9104 42.314H88.657V50.0078H87.9104V42.314ZM92.1029 50.0908C90.4957 50.0908 89.5832 48.8569 89.5832 47.4052C89.5832 45.9639 90.4957 44.7196 92.1029 44.7196C92.7769 44.7196 93.482 45.0618 93.9175 45.8498V42.314H94.6641V50.0078H93.9175V48.9605C93.4716 49.7486 92.7769 50.0908 92.1029 50.0908ZM90.3298 47.4052C90.3298 48.5147 90.9623 49.3442 92.134 49.3442C93.088 49.3442 93.9175 48.5147 93.9175 47.4052C93.9175 46.3061 93.088 45.4662 92.134 45.4662C90.9623 45.4662 90.3298 46.3061 90.3298 47.4052ZM99.7692 47.0008C99.6862 46.2542 99.3233 45.4558 98.2035 45.4558C97.2184 45.4558 96.5859 45.9846 96.4511 47.0112L99.7692 47.0008ZM95.6838 47.3741C95.6838 45.9224 96.5548 44.7093 98.1724 44.7093C99.8521 44.7093 100.277 46.0158 100.329 46.1402C100.64 46.9904 100.516 47.737 100.516 47.737H96.4511C96.5859 48.7117 97.2184 49.2924 98.1827 49.2924C99.3752 49.2924 99.6655 48.6391 99.7381 48.5354L100.381 48.8776C100.381 48.8776 99.9455 50.0389 98.1724 50.0389C96.5548 50.0389 95.6838 48.8154 95.6838 47.3741ZM102.251 45.8395C102.552 45.1448 103.412 44.6782 104.128 44.6782V45.4455C103.163 45.4455 102.251 46.4512 102.251 47.2911V50.0078H101.504V44.73H102.251V45.8395Z" fill="#BDBDBD"/>
<mask id="path-7-inside-2_739_13919" fill="white">
<path d="M44.0198 79.524C44.0198 76.5546 46.4269 74.1475 49.3963 74.1475H227.157C230.127 74.1475 232.534 76.5546 232.534 79.524V101.03C232.534 103.999 230.127 106.407 227.157 106.407H49.3963C46.4269 106.407 44.0198 103.999 44.0198 101.03V79.524Z"/>
</mask>
<path d="M44.0198 79.524C44.0198 76.5546 46.4269 74.1475 49.3963 74.1475H227.157C230.127 74.1475 232.534 76.5546 232.534 79.524V101.03C232.534 103.999 230.127 106.407 227.157 106.407H49.3963C46.4269 106.407 44.0198 103.999 44.0198 101.03V79.524Z" fill="white"/>
<path d="M49.3963 74.1475V74.7235H227.157V74.1475V73.5714H49.3963V74.1475ZM232.534 79.524H231.958V101.03H232.534H233.11V79.524H232.534ZM227.157 106.407V105.83H49.3963V106.407V106.983H227.157V106.407ZM44.0198 101.03H44.5958V79.524H44.0198H43.4437V101.03H44.0198ZM49.3963 106.407V105.83C46.7451 105.83 44.5958 103.681 44.5958 101.03H44.0198H43.4437C43.4437 104.318 46.1088 106.983 49.3963 106.983V106.407ZM232.534 101.03H231.958C231.958 103.681 229.809 105.83 227.157 105.83V106.407V106.983C230.445 106.983 233.11 104.318 233.11 101.03H232.534ZM227.157 74.1475V74.7235C229.809 74.7235 231.958 76.8728 231.958 79.524H232.534H233.11C233.11 76.2365 230.445 73.5714 227.157 73.5714V74.1475ZM49.3963 74.1475V73.5714C46.1088 73.5714 43.4437 76.2365 43.4437 79.524H44.0198H44.5958C44.5958 76.8728 46.7451 74.7235 49.3963 74.7235V74.1475Z" fill="#999999" mask="url(#path-7-inside-2_739_13919)"/>
<path d="M54.2712 93.7214C55.4118 93.7214 56.0547 92.8711 56.0547 91.7616C56.0547 90.6729 55.4118 89.8226 54.2712 89.8226C53.3172 89.8226 52.4981 90.6729 52.4981 91.7616C52.4981 92.8711 53.3172 93.7214 54.2712 93.7214ZM51.7412 96.7491V89.0864H52.4877V90.2063C52.8299 89.4597 53.6387 89.0968 54.2816 89.0968C55.8991 89.0968 56.8012 90.3307 56.8012 91.7616C56.8012 93.2133 55.8991 94.4472 54.2816 94.4472C53.6179 94.4472 52.8299 94.0013 52.4877 93.3274V96.7491H51.7412ZM57.7269 86.6705H58.4735V94.3643H57.7269V86.6705ZM61.9194 93.6903C62.8526 93.6903 63.6925 92.9333 63.7029 91.772C63.6925 90.6211 62.8526 89.8537 61.9194 89.8537C60.7685 89.8537 60.1463 90.6833 60.1463 91.772C60.1463 92.8608 60.7685 93.6903 61.9194 93.6903ZM59.3998 91.772C59.3998 90.3307 60.3019 89.1175 61.9091 89.1175C62.5208 89.1175 63.2052 89.439 63.6822 90.2063V89.0864H64.4287V94.3643H63.6822V93.3274C63.1844 94.1361 62.5312 94.4368 61.9091 94.4368C60.3019 94.4368 59.3998 93.2029 59.3998 91.772ZM67.9773 93.6695C68.5165 93.6695 69.0142 93.4622 69.3667 93.1096L69.9267 93.6073C69.429 94.105 68.7653 94.4161 68.0188 94.4161C66.3183 94.4161 65.3332 93.1615 65.3332 91.6372C65.3332 90.1233 66.3183 88.8687 68.0188 88.8687C68.7653 88.8687 69.429 89.1798 69.9267 89.6775L69.3667 90.1752C69.0142 89.8226 68.5165 89.6153 67.9773 89.6153C66.7538 89.6153 66.0798 90.5174 66.0798 91.6372C66.0798 92.7674 66.7538 93.6695 67.9773 93.6695ZM74.5623 91.3572C74.4793 90.6107 74.1164 89.8123 72.9966 89.8123C72.0115 89.8123 71.379 90.3411 71.2442 91.3676L74.5623 91.3572ZM70.4769 91.7305C70.4769 90.2789 71.3479 89.0657 72.9655 89.0657C74.6452 89.0657 75.0704 90.3722 75.1222 90.4966C75.4333 91.3469 75.3088 92.0934 75.3088 92.0934H71.2442C71.379 93.0681 72.0115 93.6488 72.9758 93.6488C74.1683 93.6488 74.4586 92.9956 74.5312 92.8919L75.174 93.234C75.174 93.234 74.7386 94.3954 72.9655 94.3954C71.3479 94.3954 70.4769 93.1718 70.4769 91.7305ZM80.0405 91.3987C80.0405 90.4137 79.4806 89.8434 78.6926 89.8434C77.8734 89.8434 77.158 90.6107 77.158 91.6061V94.3643H76.4114V86.6705H77.158V90.0819C77.4172 89.5427 78.0082 89.1175 78.7237 89.1175C79.7917 89.1175 80.7871 90.03 80.7871 91.3572V94.3643H80.0405V91.3987ZM84.4684 93.6799C85.6297 93.6799 86.2415 92.8296 86.2415 91.7305C86.2415 90.6314 85.6297 89.7812 84.4684 89.7812C83.2967 89.7812 82.7056 90.6314 82.7056 91.7305C82.7056 92.8296 83.2967 93.6799 84.4684 93.6799ZM81.9591 91.7305C81.9591 90.2892 82.8508 89.0553 84.4684 89.0553C86.0963 89.0553 86.988 90.2892 86.988 91.7305C86.988 93.1718 86.0963 94.4057 84.4684 94.4057C82.8508 94.4057 81.9591 93.1718 81.9591 91.7305ZM87.9104 86.6705H88.657V94.3643H87.9104V86.6705ZM92.1029 94.4472C90.4957 94.4472 89.5832 93.2133 89.5832 91.7616C89.5832 90.3204 90.4957 89.0761 92.1029 89.0761C92.7769 89.0761 93.482 89.4182 93.9175 90.2063V86.6705H94.6641V94.3643H93.9175V93.317C93.4716 94.105 92.7769 94.4472 92.1029 94.4472ZM90.3298 91.7616C90.3298 92.8711 90.9623 93.7006 92.134 93.7006C93.088 93.7006 93.9175 92.8711 93.9175 91.7616C93.9175 90.6625 93.088 89.8226 92.134 89.8226C90.9623 89.8226 90.3298 90.6625 90.3298 91.7616ZM99.7692 91.3572C99.6862 90.6107 99.3233 89.8123 98.2035 89.8123C97.2184 89.8123 96.5859 90.3411 96.4511 91.3676L99.7692 91.3572ZM95.6838 91.7305C95.6838 90.2789 96.5548 89.0657 98.1724 89.0657C99.8521 89.0657 100.277 90.3722 100.329 90.4966C100.64 91.3469 100.516 92.0934 100.516 92.0934H96.4511C96.5859 93.0681 97.2184 93.6488 98.1827 93.6488C99.3752 93.6488 99.6655 92.9956 99.7381 92.8919L100.381 93.234C100.381 93.234 99.9455 94.3954 98.1724 94.3954C96.5548 94.3954 95.6838 93.1718 95.6838 91.7305ZM102.251 90.1959C102.552 89.5012 103.412 89.0346 104.128 89.0346V89.8019C103.163 89.8019 102.251 90.8077 102.251 91.6476V94.3643H101.504V89.0864H102.251V90.1959Z" fill="#333333"/>
<mask id="path-10-inside-3_739_13919" fill="white">
<path d="M44.0198 132.937C44.0198 129.42 46.871 126.568 50.3882 126.568H127.876C131.393 126.568 134.244 129.42 134.244 132.937V152.485C134.244 156.002 131.393 158.853 127.876 158.853H50.3882C46.871 158.853 44.0198 156.002 44.0198 152.485V132.937Z"/>
</mask>
<path d="M50.3882 126.568V127.15H127.876V126.568V125.987H50.3882V126.568ZM134.244 132.937H133.663V152.485H134.244H134.826V132.937H134.244ZM127.876 158.853V158.271H50.3882V158.853V159.435H127.876V158.853ZM44.0198 152.485H44.6014V132.937H44.0198H43.4382V152.485H44.0198ZM50.3882 158.853V158.271C47.1922 158.271 44.6014 155.681 44.6014 152.485H44.0198H43.4382C43.4382 156.323 46.5498 159.435 50.3882 159.435V158.853ZM134.244 152.485H133.663C133.663 155.681 131.072 158.271 127.876 158.271V158.853V159.435C131.714 159.435 134.826 156.323 134.826 152.485H134.244ZM127.876 126.568V127.15C131.072 127.15 133.663 129.741 133.663 132.937H134.244H134.826C134.826 129.098 131.714 125.987 127.876 125.987V126.568ZM50.3882 126.568V125.987C46.5498 125.987 43.4382 129.098 43.4382 132.937H44.0198H44.6014C44.6014 129.741 47.1922 127.15 50.3882 127.15V126.568Z" fill="#E0E0E0" mask="url(#path-10-inside-3_739_13919)"/>
<path d="M80.5743 139.215H82.4796V138.262H83.6102V139.215H85.5364V140.094H83.6102C83.6207 140.911 84.3744 141.633 85.7249 141.916L85.2747 142.785C84.2278 142.565 83.4741 142.052 83.0763 141.392C82.668 142.125 81.9038 142.67 80.8046 142.91L80.344 142.041C81.7363 141.748 82.4796 140.963 82.49 140.094H80.5743V139.215ZM79.988 143.413C81.7049 143.413 84.008 143.402 85.9866 143.13L86.0599 143.957C85.2538 144.093 84.4267 144.187 83.6102 144.24V147.276H82.4796V144.303C81.6316 144.334 80.836 144.345 80.1241 144.345L79.988 143.413ZM86.5833 147.548V138.241H87.693V147.548H86.5833ZM89.0507 145.475H92.6728V143.329H93.7825V145.475H97.478V146.396H89.0507V145.475ZM89.3124 142.607C91.2177 142.282 92.631 140.879 92.631 139.487V138.796H93.8244V139.487C93.8244 140.9 95.2377 142.282 97.1534 142.607L96.6719 143.549C95.112 143.245 93.8349 142.335 93.2277 141.11C92.61 142.324 91.3328 143.245 89.773 143.549L89.3124 142.607Z" fill="#333333"/>
<path d="M142.309 132.937C142.309 129.42 145.16 126.568 148.678 126.568H226.165C229.682 126.568 232.534 129.42 232.534 132.937V152.485C232.534 156.002 229.682 158.853 226.165 158.853H148.678C145.16 158.853 142.309 156.002 142.309 152.485V132.937Z" fill="#FF8120"/>
<path d="M184.464 138.252H185.584V140.974H186.851V141.895H185.584V144.543H184.464V138.252ZM178.194 143.434C178.895 143.434 179.691 143.434 180.528 143.413V142.827C179.502 142.701 178.864 142.209 178.864 141.476C178.864 140.618 179.743 140.094 181.083 140.094C182.433 140.094 183.302 140.618 183.302 141.476C183.302 142.209 182.674 142.701 181.648 142.827V143.371C182.444 143.329 183.25 143.266 183.993 143.172L184.077 143.957C182.109 144.303 179.952 144.313 178.33 144.324L178.194 143.434ZM178.424 139.812V138.995H180.528V138.168H181.648V138.995H183.742V139.812H178.424ZM179.356 145.831V144.952H185.584V147.548H184.464V145.831H179.356ZM179.931 141.476C179.931 141.863 180.371 142.115 181.083 142.115C181.805 142.115 182.245 141.863 182.245 141.476C182.245 141.068 181.805 140.838 181.083 140.838C180.371 140.838 179.931 141.068 179.931 141.476ZM193.893 138.252H195.024V144.973H193.893V138.252ZM187.507 141.193C187.507 139.822 188.586 138.859 189.989 138.859C191.402 138.859 192.47 139.822 192.47 141.193C192.47 142.544 191.402 143.517 189.989 143.517C188.586 143.517 187.507 142.544 187.507 141.193ZM188.607 141.193C188.607 142.01 189.203 142.533 189.989 142.533C190.774 142.533 191.381 142.01 191.381 141.193C191.381 140.356 190.774 139.833 189.989 139.833C189.203 139.833 188.607 140.356 188.607 141.193ZM188.931 147.37V144.303H190.051V146.459H195.286V147.37H188.931Z" fill="white"/>
</g>
</g>
<rect y="37.333" width="16.558" height="16.558" rx="8.27899" fill="#333333"/>
<path d="M9.31142 41.6198V49.6449L8.14133 49.6339V42.8672L6.72838 43.6509L6.24268 42.6685L8.15236 41.6198H9.31142Z" fill="white"/>
<path d="M43.8757 41.9323C41.8436 41.9323 40.1962 43.5797 40.1962 45.6118C40.1962 47.644 41.8436 49.2914 43.8757 49.2914C45.9079 49.2914 47.5553 47.644 47.5553 45.6118C47.5553 43.5797 45.9079 41.9323 43.8757 41.9323ZM43.8757 44.9219L16.2791 44.9219L16.2791 46.3017L43.8757 46.3017L43.8757 44.9219Z" fill="#333333"/>
<rect y="81.4873" width="16.558" height="16.558" rx="8.27899" fill="#333333"/>
<path d="M5.48553 92.7726C7.09717 91.2272 9.29386 89.6597 9.29386 88.302C9.29386 87.3968 8.71985 86.7566 7.90299 86.7566C7.27379 86.7566 6.64459 87.2092 6.35758 87.8604L5.33099 87.4078C5.77253 86.3923 6.84328 85.6858 7.90299 85.6858C9.41529 85.6858 10.464 86.7676 10.464 88.302C10.464 89.9909 8.63154 91.4922 7.14133 92.7726H10.5964V93.7992H5.59591L5.48553 92.7726Z" fill="white"/>
<path d="M43.8757 86.0866C41.8436 86.0866 40.1962 87.734 40.1962 89.7661C40.1962 91.7983 41.8436 93.4457 43.8757 93.4457C45.9079 93.4457 47.5553 91.7983 47.5553 89.7661C47.5553 87.734 45.9079 86.0866 43.8757 86.0866ZM43.8757 89.0762L16.2791 89.0762L16.2791 90.456L43.8757 90.456L43.8757 89.0762Z" fill="#333333"/>
<defs>
<filter id="filter0_dd_739_13919" x="18.5846" y="0.943927" width="239.384" height="183.965" filterUnits="userSpaceOnUse" color-interpolation-filters="sRGB">
<feFlood flood-opacity="0" result="BackgroundImageFix"/>
<feColorMatrix in="SourceAlpha" type="matrix" values="0 0 0 0 0 0 0 0 0 0 0 0 0 0 0 0 0 0 127 0" result="hardAlpha"/>
<feOffset/>
<feGaussianBlur stdDeviation="2.32638"/>
<feComposite in2="hardAlpha" operator="out"/>
<feColorMatrix type="matrix" values="0 0 0 0 0 0 0 0 0 0 0 0 0 0 0 0 0 0 0.12 0"/>
<feBlend mode="normal" in2="BackgroundImageFix" result="effect1_dropShadow_739_13919"/>
<feColorMatrix in="SourceAlpha" type="matrix" values="0 0 0 0 0 0 0 0 0 0 0 0 0 0 0 0 0 0 127 0" result="hardAlpha"/>
<feOffset dy="4.65275"/>
<feGaussianBlur stdDeviation="4.65275"/>
<feComposite in2="hardAlpha" operator="out"/>
<feColorMatrix type="matrix" values="0 0 0 0 0 0 0 0 0 0 0 0 0 0 0 0 0 0 0.12 0"/>
<feBlend mode="normal" in2="effect1_dropShadow_739_13919" result="effect2_dropShadow_739_13919"/>
<feBlend mode="normal" in="SourceGraphic" in2="effect2_dropShadow_739_13919" result="shape"/>
</filter>
<clipPath id="clip0_739_13919">
<path d="M27.8901 21.7262C27.8901 12.8181 35.1116 5.59668 44.0197 5.59668H232.534C241.442 5.59668 248.663 12.8181 248.663 21.7262V154.821C248.663 163.729 241.442 170.95 232.534 170.95H44.0197C35.1116 170.95 27.8901 163.729 27.8901 154.82V21.7262Z" fill="white"/>
</clipPath>
</defs>
</svg>
