<svg width="384" height="118" viewBox="0 0 384 118" fill="none" xmlns="http://www.w3.org/2000/svg">
<path d="M5.208 22.624C5.964 24.388 7.448 25.256 9.772 25.172C13.048 25.088 14.28 21.308 10.892 20.244C9.576 19.768 7.252 19.124 5.208 17.752C2.268 15.764 1.792 12.628 2.968 10.164C4.2 7.588 7.42 6.664 9.632 6.832C11.452 6.972 13.972 7.7 15.54 9.912L12.432 12.096C11.676 11.06 10.64 10.724 9.324 10.64C8.176 10.556 6.888 10.836 6.412 11.816C6.048 12.712 5.908 13.636 7.308 14.588C8.848 15.624 10.724 16.156 12.152 16.66C19.46 19.012 17.388 28.784 9.912 28.98C6.3 29.12 3.052 27.244 1.708 24.108L5.208 22.624ZM27.3613 28.588C22.7413 28.588 18.7933 24.724 18.7933 19.964V7.392H22.6013V19.936C22.6013 22.708 24.5333 24.78 27.3613 24.78C30.1893 24.78 32.1213 22.708 32.1213 19.936V7.392H35.9293V19.964C35.9293 24.724 31.9533 28.588 27.3613 28.588ZM39.1538 7.392H42.9618V28.392H39.1538V7.392ZM61.0628 7.392V11.144H55.3788V28.392H51.5708V11.144H45.7748V7.392H61.0628Z" fill="#1A1A1A"/>
<path d="M92.211 6.16L86.135 29.792H82.299L88.403 6.16H92.211Z" fill="#1A1A1A"/>
<path d="M114.898 28.392V7.392H123.83C126.882 7.392 129.598 10.108 129.598 13.104C129.598 14.728 128.898 16.1 127.806 17.108C127.974 17.22 128.114 17.304 128.254 17.416C129.85 18.424 130.914 20.328 130.914 22.316C130.914 25.424 128.31 28.392 125.118 28.392H114.898ZM118.706 24.64H124.502C125.79 24.64 127.106 23.884 127.106 22.316C127.106 20.496 125.902 19.488 124.502 19.488H118.706V24.64ZM118.706 15.736H123.466C124.726 15.68 125.846 14.7 125.846 13.412C125.846 12.096 124.866 11.144 123.354 11.144H118.706V15.736ZM139.874 24.696C141.974 24.696 143.402 23.212 143.402 20.944C143.402 18.648 141.974 17.136 139.874 17.136C137.774 17.136 136.346 18.648 136.346 20.944C136.346 23.212 137.774 24.696 139.874 24.696ZM132.538 20.944C132.538 16.828 135.534 13.356 139.874 13.356C144.438 13.356 147.21 16.828 147.21 20.944C147.21 25.004 144.438 28.504 139.874 28.504C135.534 28.504 132.538 25.004 132.538 20.944ZM155.821 28.224C151.453 28.224 149.017 24.892 149.017 20.972C149.017 17.108 151.453 13.776 155.821 13.776C157.053 13.776 158.677 14.364 159.797 15.764V6.776H163.605V28L159.797 28.028V26.208C158.565 27.888 157.053 28.224 155.821 28.224ZM152.825 20.972C152.825 23.072 154.029 24.472 156.185 24.472C158.005 24.472 159.797 23.296 159.797 20.972C159.797 18.704 158.005 17.528 156.185 17.528C154.029 17.528 152.825 18.928 152.825 20.972ZM172.762 34.664H168.618L171.922 26.88L165.762 13.356H169.99L173.854 22.26L177.69 13.356H181.834L176.178 26.516H176.206L172.762 34.664Z" fill="#1A1A1A"/>
<path d="M212.233 6.16L206.157 29.792H202.321L208.425 6.16H212.233Z" fill="#1A1A1A"/>
<path d="M238.7 7.392V24.64H248.668V28.392H234.892V7.392H238.7ZM269.903 16.548C270.015 17.276 269.875 19.488 269.875 19.488C269.231 25.284 265.479 28.616 259.627 28.616C252.935 28.616 249.043 23.884 249.043 17.892C249.043 11.928 252.935 7.196 259.627 7.196C266.263 7.196 268.643 12.236 268.643 12.236L265.339 14.084C265.339 14.084 263.799 11.004 259.599 11.004C255.091 11.004 252.851 14.028 252.851 17.892C252.851 21.784 255.147 24.808 259.599 24.808C262.063 24.78 265.003 23.884 265.843 20.3H260.131V16.548H269.903Z" fill="#1A1A1A"/>
<path d="M301.255 6.16L295.179 29.792H291.343L297.447 6.16H301.255Z" fill="#1A1A1A"/>
<path d="M323.942 28.392V7.392H332.874C335.926 7.392 338.642 10.108 338.642 13.104C338.642 14.728 337.942 16.1 336.85 17.108C337.018 17.22 337.158 17.304 337.298 17.416C338.894 18.424 339.958 20.328 339.958 22.316C339.958 25.424 337.354 28.392 334.162 28.392H323.942ZM327.75 24.64H333.546C334.834 24.64 336.15 23.884 336.15 22.316C336.15 20.496 334.946 19.488 333.546 19.488H327.75V24.64ZM327.75 15.736H332.51C333.77 15.68 334.89 14.7 334.89 13.412C334.89 12.096 333.91 11.144 332.398 11.144H327.75V15.736ZM348.918 24.696C351.018 24.696 352.446 23.212 352.446 20.944C352.446 18.648 351.018 17.136 348.918 17.136C346.818 17.136 345.39 18.648 345.39 20.944C345.39 23.212 346.818 24.696 348.918 24.696ZM341.582 20.944C341.582 16.828 344.578 13.356 348.918 13.356C353.482 13.356 356.254 16.828 356.254 20.944C356.254 25.004 353.482 28.504 348.918 28.504C344.578 28.504 341.582 25.004 341.582 20.944ZM358.094 6.776H361.902V28.504H358.094V6.776ZM370.57 28.224C366.202 28.224 363.766 24.892 363.766 20.972C363.766 17.108 366.202 13.776 370.57 13.776C371.802 13.776 373.426 14.364 374.546 15.764V6.776H378.354V28L374.546 28.028V26.208C373.314 27.888 371.802 28.224 370.57 28.224ZM367.574 20.972C367.574 23.072 368.778 24.472 370.934 24.472C372.754 24.472 374.546 23.296 374.546 20.972C374.546 18.704 372.754 17.528 370.934 17.528C368.778 17.528 367.574 18.928 367.574 20.972Z" fill="#1A1A1A"/>
<rect x="16.4946" y="74" width="18.011" height="18.011" rx="9.00548" fill="#333333"/>
<path d="M26.4864 78.7881V87.5534L25.0456 87.5414V80.373L23.4726 81.0935L22.9323 79.7727L25.0456 78.7881H26.4864Z" fill="white"/>
<path d="M21.5029 43.9819C21.5029 46.1924 23.2949 47.9844 25.5054 47.9844C27.7159 47.9844 29.5078 46.1924 29.5078 43.9819C29.5078 41.7714 27.7159 39.9795 25.5054 39.9795C23.2949 39.9795 21.5029 41.7714 21.5029 43.9819ZM24.7549 43.9819V73.9892H26.2558V43.9819H24.7549Z" fill="#333333"/>
<path d="M18.085 103.173V104.223H12.31V108.048H17.08V109.098H12.31V114.003H11.23V103.173H18.085ZM22.2584 113.013C23.9384 113.013 24.8234 111.783 24.8234 110.193C24.8234 108.603 23.9384 107.373 22.2584 107.373C20.5634 107.373 19.7084 108.603 19.7084 110.193C19.7084 111.783 20.5634 113.013 22.2584 113.013ZM18.6284 110.193C18.6284 108.108 19.9184 106.323 22.2584 106.323C24.6134 106.323 25.9034 108.108 25.9034 110.193C25.9034 112.278 24.6134 114.063 22.2584 114.063C19.9184 114.063 18.6284 112.278 18.6284 110.193ZM32.6577 109.503C32.6577 108.273 31.9377 107.418 30.6777 107.418C29.3727 107.418 28.4127 108.633 28.4127 109.653V114.003H27.3327V106.368H28.4127V107.673C28.9227 106.923 29.6727 106.368 30.7227 106.368C32.5077 106.368 33.7377 107.718 33.7377 109.398V114.003H32.6577V109.503ZM39.3595 113.838C39.0895 113.898 38.6845 113.973 38.2495 113.973C37.1095 113.973 36.1945 113.058 36.1945 111.933V107.358H34.9495V106.308H36.1945V103.953H37.2745V106.308H39.0595V107.358H37.2745V111.933C37.2745 112.533 37.6345 112.893 38.2495 112.893C38.5945 112.893 38.8795 112.848 39.1195 112.788L39.3595 113.838Z" fill="#616161"/>
<rect x="130.495" y="74" width="18.011" height="18.011" rx="9.00548" fill="#333333"/>
<path d="M136.744 86.1125C138.51 84.4195 140.815 83.0627 140.815 81.6338C140.815 80.5892 140.179 80.1449 139.386 80.1449C138.87 80.1449 138.221 80.337 137.825 81.2015L136.516 80.6132C137.201 79.0882 138.606 78.704 139.386 78.704C140.743 78.704 142.256 79.7607 142.256 81.6338C142.256 83.4469 140.491 84.8518 138.954 86.1125H142.388V87.5534H136.744V86.1125Z" fill="white"/>
<path d="M135.503 43.9819C135.503 46.1924 137.295 47.9844 139.505 47.9844C141.716 47.9844 143.508 46.1924 143.508 43.9819C143.508 41.7714 141.716 39.9795 139.505 39.9795C137.295 39.9795 135.503 41.7714 135.503 43.9819ZM138.755 43.9819V73.9892H140.256V43.9819H138.755Z" fill="#333333"/>
<path d="M133.097 103.173V104.223H129.707V114.003H128.627V104.223H125.252V103.173H133.097ZM135.636 117.453H134.466L135.966 113.718L132.846 106.368H134.031L136.536 112.278L138.936 106.368H140.106L137.196 113.538L135.636 117.453ZM145.141 113.073C146.791 113.073 147.721 111.843 147.721 110.238C147.721 108.663 146.791 107.433 145.141 107.433C143.761 107.433 142.576 108.663 142.576 110.238C142.576 111.843 143.761 113.073 145.141 113.073ZM141.481 117.453V106.368H142.561V107.988C143.056 106.908 144.226 106.383 145.156 106.383C147.496 106.383 148.801 108.168 148.801 110.238C148.801 112.338 147.496 114.123 145.156 114.123C144.196 114.123 143.056 113.478 142.561 112.503V117.453H141.481ZM155.86 109.653C155.74 108.573 155.215 107.418 153.595 107.418C152.17 107.418 151.255 108.183 151.06 109.668L155.86 109.653ZM149.95 110.193C149.95 108.093 151.21 106.338 153.55 106.338C155.98 106.338 156.595 108.228 156.67 108.408C157.12 109.638 156.94 110.718 156.94 110.718H151.06C151.255 112.128 152.17 112.968 153.565 112.968C155.29 112.968 155.71 112.023 155.815 111.873L156.745 112.368C156.745 112.368 156.115 114.048 153.55 114.048C151.21 114.048 149.95 112.278 149.95 110.193Z" fill="#616161"/>
<rect x="232.995" y="74" width="18.011" height="18.011" rx="9.00548" fill="#333333"/>
<path d="M243.199 83.0146C243.968 83.4589 244.568 84.2034 244.568 85.0799C244.568 86.5448 243.367 87.6254 241.53 87.6254C239.705 87.6254 238.516 86.5448 238.516 84.9718H239.957C239.957 85.6202 240.413 86.2326 241.53 86.2326C242.659 86.2326 243.175 85.6202 243.175 84.9718C243.175 84.3114 242.767 83.663 241.554 83.663H240.942V82.3782H241.578C242.575 82.3782 243.043 81.7899 243.043 81.2015C243.043 80.6372 242.599 80.1089 241.614 80.1089C240.618 80.1089 240.221 80.6372 240.221 81.2135H238.78C238.78 79.7246 239.933 78.716 241.614 78.716C243.271 78.716 244.424 79.7246 244.424 81.1055C244.424 81.91 243.908 82.5824 243.199 83.0146Z" fill="white"/>
<path d="M238.003 43.9819C238.003 46.1924 239.795 47.9844 242.005 47.9844C244.216 47.9844 246.008 46.1924 246.008 43.9819C246.008 41.7714 244.216 39.9795 242.005 39.9795C239.795 39.9795 238.003 41.7714 238.003 43.9819ZM241.255 43.9819V73.9892H242.756V43.9819H241.255Z" fill="#333333"/>
<path d="M230.13 111.348C230.625 112.443 231.66 113.088 233.04 113.058C235.38 112.983 236.01 109.983 233.775 109.383C233.055 109.113 231.87 108.783 230.835 108.078C229.335 107.043 229.35 105.528 229.8 104.568C230.4 103.308 232.005 102.948 232.905 103.023C233.79 103.083 234.99 103.443 235.725 104.508L234.825 105.108C234.33 104.403 233.565 104.163 232.815 104.103C232.14 104.073 231.165 104.283 230.79 105.018C230.49 105.708 230.49 106.503 231.435 107.178C232.32 107.793 233.385 108.093 234.135 108.363C237.525 109.398 236.565 114.033 233.07 114.138C231.345 114.198 229.77 113.283 229.14 111.768L230.13 111.348ZM238.116 106.368H239.196V114.003H238.116V106.368ZM237.966 103.593C237.966 103.218 238.206 102.918 238.656 102.918C239.091 102.918 239.331 103.218 239.331 103.593C239.331 103.983 239.091 104.283 238.656 104.283C238.206 104.283 237.966 103.983 237.966 103.593ZM246.438 106.368V107.448L242.178 112.953H246.438V114.003H240.828V112.923L245.103 107.418H240.828V106.368H246.438ZM253.459 109.653C253.339 108.573 252.814 107.418 251.194 107.418C249.769 107.418 248.854 108.183 248.659 109.668L253.459 109.653ZM247.549 110.193C247.549 108.093 248.809 106.338 251.149 106.338C253.579 106.338 254.194 108.228 254.269 108.408C254.719 109.638 254.539 110.718 254.539 110.718H248.659C248.854 112.128 249.769 112.968 251.164 112.968C252.889 112.968 253.309 112.023 253.414 111.873L254.344 112.368C254.344 112.368 253.714 114.048 251.149 114.048C248.809 114.048 247.549 112.278 247.549 110.193Z" fill="#616161"/>
<rect x="332.995" y="74" width="18.011" height="18.011" rx="9.00548" fill="#333333"/>
<path d="M343.812 78.7881V84.1313H344.844V85.5482H343.812V87.5534H342.383V85.5482H338.516V84.1313L342.443 78.7881H343.812ZM340.197 84.1313H342.383V81.1535L340.197 84.1313Z" fill="white"/>
<path d="M338.003 43.9819C338.003 46.1924 339.795 47.9844 342.005 47.9844C344.216 47.9844 346.008 46.1924 346.008 43.9819C346.008 41.7714 344.216 39.9795 342.005 39.9795C339.795 39.9795 338.003 41.7714 338.003 43.9819ZM341.255 43.9819V73.9892H342.756V43.9819H341.255Z" fill="#333333"/>
<path d="M308.085 103.173V104.223H302.31V108.048H307.08V109.098H302.31V114.003H301.23V103.173H308.085ZM312.258 113.013C313.938 113.013 314.823 111.783 314.823 110.193C314.823 108.603 313.938 107.373 312.258 107.373C310.563 107.373 309.708 108.603 309.708 110.193C309.708 111.783 310.563 113.013 312.258 113.013ZM308.628 110.193C308.628 108.108 309.918 106.323 312.258 106.323C314.613 106.323 315.903 108.108 315.903 110.193C315.903 112.278 314.613 114.063 312.258 114.063C309.918 114.063 308.628 112.278 308.628 110.193ZM322.658 109.503C322.658 108.273 321.938 107.418 320.678 107.418C319.373 107.418 318.413 108.633 318.413 109.653V114.003H317.333V106.368H318.413V107.673C318.923 106.923 319.673 106.368 320.723 106.368C322.508 106.368 323.738 107.718 323.738 109.398V114.003H322.658V109.503ZM329.359 113.838C329.089 113.898 328.684 113.973 328.249 113.973C327.109 113.973 326.194 113.058 326.194 111.933V107.358H324.949V106.308H326.194V103.953H327.274V106.308H329.059V107.358H327.274V111.933C327.274 112.533 327.634 112.893 328.249 112.893C328.594 112.893 328.879 112.848 329.119 112.788L329.359 113.838ZM331.387 107.943H337.717V109.008H331.387V107.943ZM349.59 106.368L347.31 114.003H346.29L344.46 108.198L342.675 114.003H341.655L339.33 106.368H340.47L342.165 112.023L343.89 106.368H345.015L346.8 112.023L348.45 106.368H349.59ZM355.815 109.653C355.695 108.573 355.17 107.418 353.55 107.418C352.125 107.418 351.21 108.183 351.015 109.668L355.815 109.653ZM349.905 110.193C349.905 108.093 351.165 106.338 353.505 106.338C355.935 106.338 356.55 108.228 356.625 108.408C357.075 109.638 356.895 110.718 356.895 110.718H351.015C351.21 112.128 352.125 112.968 353.52 112.968C355.245 112.968 355.665 112.023 355.77 111.873L356.7 112.368C356.7 112.368 356.07 114.048 353.505 114.048C351.165 114.048 349.905 112.278 349.905 110.193ZM358.435 106.368H359.515V114.003H358.435V106.368ZM358.285 103.593C358.285 103.218 358.525 102.918 358.975 102.918C359.41 102.918 359.65 103.218 359.65 103.593C359.65 103.983 359.41 104.283 358.975 104.283C358.525 104.283 358.285 103.983 358.285 103.593ZM364.822 113.058C366.247 113.058 367.372 111.813 367.372 110.253C367.372 108.723 366.232 107.478 364.822 107.478C363.262 107.478 362.257 108.573 362.257 110.253C362.257 111.963 363.262 113.058 364.822 113.058ZM361.177 110.253C361.177 107.988 362.662 106.428 364.807 106.428C365.947 106.428 366.922 107.028 367.372 108.003V106.368H368.452V113.628C368.422 116.058 367.012 117.438 364.582 117.438C363.367 117.438 362.302 116.808 361.522 115.638L362.437 115.053C362.992 115.923 363.712 116.358 364.582 116.358C366.442 116.358 367.357 115.458 367.372 113.613V112.473C366.847 113.418 365.782 114.108 364.807 114.108C362.662 114.108 361.177 112.533 361.177 110.253ZM375.675 109.713C375.675 108.288 374.865 107.463 373.725 107.463C372.54 107.463 371.505 108.573 371.505 110.013V114.003H370.425V102.873H371.505V107.808C371.88 107.028 372.735 106.413 373.77 106.413C375.315 106.413 376.755 107.733 376.755 109.653V114.003H375.675V109.713ZM382.626 113.838C382.356 113.898 381.951 113.973 381.516 113.973C380.376 113.973 379.461 113.058 379.461 111.933V107.358H378.216V106.308H379.461V103.953H380.541V106.308H382.326V107.358H380.541V111.933C380.541 112.533 380.901 112.893 381.516 112.893C381.861 112.893 382.146 112.848 382.386 112.788L382.626 113.838Z" fill="#616161"/>
</svg>
