<svg width="154" height="160" viewBox="0 0 154 160" fill="none" xmlns="http://www.w3.org/2000/svg">
<g clip-path="url(#clip0_1824_29193)">
<path d="M63.6016 71.4L95.2016 51L126.002 70.2L124.802 104.6L95.2016 123L65.2016 104.6L63.6016 71.4Z" fill="url(#paint0_linear_1824_29193)"/>
<path d="M93.9961 117.27V132.784L133.999 109.86V109.787L120.519 102.066L93.9961 117.27Z" fill="#FFDFB2"/>
<path d="M120.516 71.7156L120.536 71.726V102.055L120.521 102.066L134 109.787V63.9844L120.516 71.7156Z" fill="#FFC77D"/>
<path d="M120.514 71.7178L133.999 63.9866V63.9245L93.9961 41V56.5194L120.514 71.7178Z" fill="#FFDFB2"/>
<path d="M67.4637 102.057V71.7272L67.5051 71.7013L54 63.9648V109.86V109.866L67.5362 102.103L67.4637 102.057Z" fill="#FFDFB2"/>
<path d="M93.9974 56.5195V41L54 63.9245V63.9659L67.5051 71.7023L93.9974 56.5195Z" fill="#FFC77D"/>
<path d="M93.9974 117.269L67.5362 102.102L54 109.864L93.9974 132.783V117.269Z" fill="#FFC77D"/>
<path d="M91.4897 71.674H93.0297V80.676H91.4897V71.674ZM82.9497 75.622C82.9497 73.788 84.4057 72.486 86.2817 72.486C88.1717 72.486 89.6137 73.788 89.6137 75.622C89.6137 77.428 88.1717 78.744 86.2817 78.744C84.4057 78.744 82.9497 77.428 82.9497 75.622ZM84.4477 75.622C84.4477 76.7 85.2457 77.4 86.2817 77.4C87.3177 77.4 88.1157 76.7 88.1157 75.622C88.1157 74.516 87.3177 73.816 86.2817 73.816C85.2457 73.816 84.4477 74.516 84.4477 75.622ZM84.8537 83.882V79.78H86.3797V82.65H93.3657V83.882H84.8537ZM101.668 74.768H103.782V71.674H105.322V79.066H103.782V76.014H101.668V74.768ZM94.948 77.82C96.908 77.134 97.958 75.468 97.958 73.788V73.718H95.368V72.486H102.06V73.718H99.512V73.788C99.512 75.314 100.492 76.84 102.41 77.498L101.64 78.702C100.268 78.226 99.302 77.288 98.77 76.112C98.224 77.442 97.202 78.52 95.718 79.038L94.948 77.82ZM96.922 81.768C96.922 80.284 98.532 79.388 101.15 79.388C103.754 79.388 105.364 80.284 105.364 81.768C105.364 83.266 103.754 84.134 101.15 84.134C98.532 84.134 96.922 83.266 96.922 81.768ZM98.462 81.768C98.462 82.538 99.428 82.958 101.15 82.958C102.858 82.958 103.838 82.538 103.838 81.768C103.838 80.984 102.858 80.564 101.15 80.564C99.428 80.564 98.462 80.984 98.462 81.768ZM82.7537 95.47H94.0097V96.716H82.7537V95.47ZM84.0417 99.852C84.0417 98.396 85.6657 97.584 88.3537 97.584C91.0277 97.584 92.6517 98.396 92.6517 99.852C92.6517 101.308 91.0277 102.134 88.3537 102.134C85.6657 102.134 84.0417 101.308 84.0417 99.852ZM84.1397 94.476V90.066H92.6377V91.312H85.6517V93.244H92.7217V94.476H84.1397ZM85.5957 99.852C85.5957 100.58 86.5757 100.944 88.3537 100.944C90.1317 100.944 91.0977 100.58 91.0977 99.852C91.0977 99.138 90.1317 98.76 88.3537 98.76C86.5757 98.76 85.5957 99.138 85.5957 99.852ZM96.362 96.772H97.874V98.214H103.334V96.772H104.86V101.994H96.362V96.772ZM94.976 95.862V94.616H103.068C103.348 93.3 103.376 92.32 103.376 91.424H96.39V90.192H104.874V91.158C104.874 92.124 104.874 93.16 104.58 94.616H106.26V95.862H94.976ZM97.874 100.762H103.334V99.39H97.874V100.762Z" fill="white"/>
</g>
<path opacity="0.15" d="M94 139.984C102.837 139.984 110 139.089 110 137.984C110 136.88 102.837 135.984 94 135.984C85.1634 135.984 78 136.88 78 137.984C78 139.089 85.1634 139.984 94 139.984Z" fill="url(#paint1_radial_1824_29193)"/>
<defs>
<linearGradient id="paint0_linear_1824_29193" x1="81.1516" y1="63.75" x2="117.139" y2="109.178" gradientUnits="userSpaceOnUse">
<stop stop-color="#FF8120"/>
<stop offset="1" stop-color="#E54304"/>
</linearGradient>
<radialGradient id="paint1_radial_1824_29193" cx="0" cy="0" r="1" gradientUnits="userSpaceOnUse" gradientTransform="translate(94 137.984) scale(16 2)">
<stop offset="0.154125" stop-color="#555555"/>
<stop offset="1" stop-color="#BBBBBB" stop-opacity="0.8"/>
</radialGradient>
<clipPath id="clip0_1824_29193">
<rect width="80" height="91.7859" fill="white" transform="translate(54 41)"/>
</clipPath>
</defs>
</svg>
