<svg width="154" height="160" viewBox="0 0 154 160" fill="none" xmlns="http://www.w3.org/2000/svg">
<path fill-rule="evenodd" clip-rule="evenodd" d="M26 24C21.5817 24 18 27.5817 18 32V48C18 52.4183 21.5817 56 26 56H76.2253L78.6129 60.4506C79.6572 62.3973 81.3504 62.3973 82.3947 60.4506L84.7822 56H128C132.418 56 136 52.4183 136 48V32C136 27.5817 132.418 24 128 24H26Z" fill="#1E40AF"/>
<path d="M27.7854 43.432H30.4314V40.198C29.4374 39.638 28.8354 38.742 28.8354 37.65C28.8354 35.676 30.7534 34.402 33.3854 34.402C36.0314 34.402 37.9354 35.676 37.9354 37.65C37.9354 38.742 37.3474 39.624 36.3534 40.198V43.432H39.0134V44.552H27.7854V43.432ZM30.1794 37.65C30.1794 38.98 31.4954 39.806 33.3854 39.806C35.2614 39.806 36.5914 38.98 36.5914 37.65C36.5914 36.32 35.2614 35.494 33.3854 35.494C31.4954 35.494 30.1794 36.32 30.1794 37.65ZM31.8034 43.432H34.9814V40.716C34.4914 40.828 33.9594 40.884 33.3854 40.884C32.8254 40.884 32.2934 40.828 31.8034 40.716V43.432ZM43.2697 34.416C45.1457 34.416 46.5457 35.634 46.5457 37.37C46.5457 39.106 45.1457 40.31 43.2697 40.31C41.3797 40.31 39.9937 39.106 39.9937 37.37C39.9937 35.634 41.3797 34.416 43.2697 34.416ZM41.3237 37.37C41.3237 38.462 42.1497 39.162 43.2697 39.162C44.3897 39.162 45.2157 38.462 45.2157 37.37C45.2157 36.278 44.3897 35.578 43.2697 35.578C42.1497 35.578 41.3237 36.278 41.3237 37.37ZM41.3797 43.712C41.3797 42.214 42.9617 41.332 45.4957 41.332C48.0297 41.332 49.6117 42.214 49.6117 43.712C49.6117 45.196 48.0297 46.078 45.4957 46.078C42.9617 46.078 41.3797 45.196 41.3797 43.712ZM42.7377 43.712C42.7377 44.524 43.7597 45 45.4957 45C47.2317 45 48.2537 44.524 48.2537 43.712C48.2537 42.886 47.2317 42.438 45.4957 42.438C43.7597 42.438 42.7377 42.886 42.7377 43.712ZM48.0997 40.996V33.702H49.4717V35.424H51.1937V36.558H49.4717V38.084H51.1937V39.218H49.4717V40.996H48.0997ZM60.6581 33.716H62.0441V42.69H60.6581V33.716ZM52.0761 37.636C52.0761 35.816 53.5041 34.542 55.3521 34.542C57.2141 34.542 58.6281 35.816 58.6281 37.636C58.6281 39.414 57.2141 40.716 55.3521 40.716C53.5041 40.716 52.0761 39.414 52.0761 37.636ZM53.4061 37.636C53.4061 38.756 54.2601 39.512 55.3521 39.512C56.4581 39.512 57.2981 38.756 57.2981 37.636C57.2981 36.488 56.4581 35.732 55.3521 35.732C54.2601 35.732 53.4061 36.488 53.4061 37.636ZM53.9801 45.84V41.794H55.3381V44.72H62.3941V45.84H53.9801ZM70.5004 36.838H72.7404V33.702H74.1124V41.066H72.7404V37.958H70.5004V36.838ZM63.8644 39.918C65.7684 39.246 66.9024 37.58 66.9024 35.872V35.662H64.2564V34.556H70.8924V35.662H68.2884V35.872C68.2884 37.412 69.3524 38.938 71.2144 39.582L70.5284 40.674C69.1564 40.184 68.1624 39.218 67.6304 38.014C67.0844 39.386 66.0204 40.478 64.5504 41.01L63.8644 39.918ZM65.8104 43.754C65.8104 42.298 67.4064 41.416 69.9964 41.416C72.5724 41.416 74.1544 42.298 74.1544 43.754C74.1544 45.238 72.5724 46.092 69.9964 46.092C67.4064 46.092 65.8104 45.238 65.8104 43.754ZM67.1964 43.754C67.1964 44.566 68.2184 45.028 69.9964 45.028C71.7464 45.028 72.7964 44.566 72.7964 43.754C72.7964 42.928 71.7464 42.466 69.9964 42.466C68.2184 42.466 67.1964 42.928 67.1964 43.754ZM84.7667 33.716H86.1387V42.858H84.7667V38.238H82.1627V40.828H76.4647V34.514H77.8227V36.6H80.8047V34.514H82.1627V37.118H84.7667V33.716ZM77.8227 39.708H80.8047V37.65H77.8227V39.708ZM78.0887 45.84V41.976H79.4747V44.72H86.4187V45.84H78.0887ZM88.449 35.396H92.817V33.87H94.203V35.396H98.557V36.516H88.449V35.396ZM87.917 44.706V43.586H92.817V41.962C90.689 41.822 89.387 40.968 89.387 39.596C89.387 38.112 90.969 37.23 93.503 37.23C96.037 37.23 97.605 38.112 97.605 39.596C97.605 40.968 96.317 41.822 94.203 41.962V43.586H99.145V44.706H87.917ZM90.787 39.596C90.787 40.45 91.781 40.912 93.503 40.912C95.211 40.912 96.205 40.45 96.205 39.596C96.205 38.77 95.211 38.294 93.503 38.294C91.781 38.294 90.787 38.77 90.787 39.596ZM111.794 33.702H113.18V40.1H111.794V33.702ZM103.17 38.63C103.632 38.63 104.122 38.63 104.626 38.616V35.578H103.492V34.5H110.156V35.578H109.022V38.462C109.596 38.406 110.17 38.364 110.702 38.294L110.786 39.274C108.308 39.666 105.48 39.736 103.31 39.75L103.17 38.63ZM104.99 41.724V40.66H113.18V43.768H106.376V44.888H113.6V45.98H105.018V42.774H111.822V41.724H104.99ZM105.956 38.602C106.53 38.588 107.104 38.56 107.692 38.532V35.578H105.956V38.602ZM114.986 43.432H117.632V40.198C116.638 39.638 116.036 38.742 116.036 37.65C116.036 35.676 117.954 34.402 120.586 34.402C123.232 34.402 125.136 35.676 125.136 37.65C125.136 38.742 124.548 39.624 123.554 40.198V43.432H126.214V44.552H114.986V43.432ZM117.38 37.65C117.38 38.98 118.696 39.806 120.586 39.806C122.462 39.806 123.792 38.98 123.792 37.65C123.792 36.32 122.462 35.494 120.586 35.494C118.696 35.494 117.38 36.32 117.38 37.65ZM119.004 43.432H122.182V40.716C121.692 40.828 121.16 40.884 120.586 40.884C120.026 40.884 119.494 40.828 119.004 40.716V43.432Z" fill="white"/>
<path fill-rule="evenodd" clip-rule="evenodd" d="M81.1058 78.6113C78.7632 78.6113 76.7867 80.2218 76.4939 82.418V82.784H79.7149C83.4483 82.784 86.7425 85.0533 87.9138 88.4208L91.5741 98.8158H104.238L98.3821 81.6127C97.7232 79.7826 95.9663 78.4649 93.9166 78.4649H81.1058V78.6113ZM105.629 103.062L113.828 127.073C114.194 128.098 115.292 128.61 116.317 128.317C117.342 128.025 117.928 126.926 117.562 125.902L102.116 80.5147C100.944 77.074 97.65 74.8047 93.9166 74.8047H81.1058C76.8599 74.8047 73.1997 77.8061 72.5408 81.8323L72.3944 82.784H66.7577C62.5118 82.784 58.8516 85.7854 58.1927 89.8117L51.0187 132.636C50.8722 133.661 51.6043 134.686 52.6292 134.833C53.7272 134.979 54.7521 134.32 54.8985 133.222L58.4855 111.993C58.6319 111.993 58.7784 111.993 58.9248 111.993H67.6361L65.3668 126.194C65.2204 127.219 65.9524 128.244 67.0505 128.391C68.1486 128.537 69.1734 127.805 69.3198 126.78L71.7356 111.993H92.0865L99.6266 133.515C99.9926 134.54 101.091 135.052 102.116 134.686C103.14 134.32 103.726 133.295 103.36 132.27L96.2591 111.993H97.1376C97.7232 111.993 98.3089 111.773 98.6749 111.334L105.776 103.062H105.629ZM94.8683 108.259H96.1127L100.871 102.696H92.8917L94.8683 108.259ZM87.3282 98.889L84.1072 89.6652C83.4483 87.8351 81.6914 86.5906 79.6417 86.5906H75.6886L73.7121 98.889H87.255H87.3282ZM73.1997 102.696H88.7191L90.6956 108.259H72.3212L73.1997 102.696ZM68.2218 108.259L71.7356 86.6638H66.7577C64.4883 86.6638 62.5118 88.2744 62.1458 90.4705L59.1444 108.259H68.2218Z" fill="#FDF7E9"/>
<path d="M78.9844 76.855C78.9844 75.3177 80.2289 74 81.8394 74H92.2344C93.7717 74 95.0894 75.2445 95.0894 76.855C95.0894 78.4655 93.8449 79.71 92.2344 79.71H81.8394C80.3021 79.71 78.9844 78.4655 78.9844 76.855Z" fill="url(#paint0_linear_1824_29321)"/>
<path d="M64.7109 85.1987C64.7109 83.6614 65.9554 82.3438 67.5659 82.3438H77.961C79.4983 82.3438 80.816 83.5882 80.816 85.1987C80.816 86.8092 79.5715 88.0537 77.961 88.0537H67.5659C66.0286 88.0537 64.7109 86.8092 64.7109 85.1987Z" fill="url(#paint1_linear_1824_29321)"/>
<path d="M101.453 137.537C102.545 137.537 103.43 136.619 103.43 135.487C103.43 134.355 102.545 133.438 101.453 133.438C100.361 133.438 99.4766 134.355 99.4766 135.487C99.4766 136.619 100.361 137.537 101.453 137.537Z" fill="#333333"/>
<path d="M53.3632 137.537C54.4548 137.537 55.3398 136.619 55.3398 135.487C55.3398 134.355 54.4548 133.438 53.3632 133.438C52.2716 133.438 51.3867 134.355 51.3867 135.487C51.3867 136.619 52.2716 137.537 53.3632 137.537Z" fill="#333333"/>
<path d="M116.023 131.545C117.115 131.545 118 130.627 118 129.495C118 128.363 117.115 127.445 116.023 127.445C114.932 127.445 114.047 128.363 114.047 129.495C114.047 130.627 114.932 131.545 116.023 131.545Z" fill="#333333"/>
<path d="M67.1289 131.545C68.2205 131.545 69.1054 130.627 69.1054 129.495C69.1054 128.363 68.2205 127.445 67.1289 127.445C66.0373 127.445 65.1523 128.363 65.1523 129.495C65.1523 130.627 66.0373 131.545 67.1289 131.545Z" fill="#333333"/>
<g clip-path="url(#clip0_1824_29321)">
<path d="M101.684 130.449V130.577C100.485 130.437 98.3298 130.512 97.0742 130.577L101.684 130.449Z" fill="#FEBDAD"/>
<path d="M135.745 127.891C136.469 128.61 137.338 129.195 137.728 130.195C138.316 131.702 137.911 132.938 136.904 134.096C132.583 139.064 126.97 143.588 122.447 148.436C119.866 149.847 118.586 148.354 116.922 146.692L135.745 127.891Z" fill="#4678FC"/>
<path d="M135.747 127.891L116.923 146.692C115.895 145.665 114.752 144.906 114.633 143.285C114.556 142.251 115.065 141.044 115.77 140.297C117.686 138.264 120.03 136.257 122.048 134.224C124.477 131.779 126.884 129.093 129.344 126.74C130.064 126.051 131.337 125.507 132.338 125.6C133.947 125.752 134.722 126.871 135.745 127.891H135.747Z" fill="#6191FE"/>
<path d="M114.361 108.578L119.179 113.421C119.829 113.812 120.231 113.372 120.124 112.671C121.762 114.366 122.635 114.956 123.731 117.188C125.377 120.541 126.169 124.431 129.342 126.74C126.884 129.095 124.477 131.781 122.046 134.224C120.028 136.255 117.684 138.263 115.768 140.297C114.538 139.039 113.336 138.222 111.569 137.905C107.019 137.089 101.557 137.492 96.8832 136.97C94.2437 136.675 92.8701 133.866 94.5123 131.728H103.091C102.687 131.278 102.313 130.65 101.683 130.577V130.449L101.781 130.382C98.4587 126.921 94.9485 123.622 91.5683 120.217C89.8509 118.486 87.3311 116.274 85.8686 114.463C84.991 113.375 84.6455 112.316 85.1929 110.971C85.6291 109.9 86.8351 109.045 87.9829 108.962C87.9794 109.213 88.1556 109.318 88.301 109.475C93.036 114.618 98.4912 119.323 103.277 124.444C103.999 124.867 104.555 124.187 104.046 123.549C102.032 121.576 100.087 119.53 98.0977 117.533C97.2766 115.44 98.4604 113.092 100.787 112.928L108.599 120.793C109.205 121.075 109.706 120.567 109.427 119.966C107.857 118.491 106.425 116.857 104.884 115.36C103.837 113.358 105.168 110.79 107.445 110.628L114.01 117.183C114.494 117.461 115.036 116.875 114.807 116.385C114.651 116.049 112.448 114.035 111.986 113.571C111.825 113.409 111.755 113.145 111.67 113.058C110.941 111.087 112.198 108.778 114.359 108.582L114.361 108.578Z" fill="#FECBBB"/>
<path d="M96.1792 115.613C94.9099 114.356 90.5718 109.707 89.3333 109.213C88.9655 109.066 88.3788 108.933 87.9836 108.962C86.8358 109.046 85.6298 109.902 85.1936 110.971C84.6462 112.315 84.9918 113.375 85.8693 114.463C87.3319 116.275 89.8516 118.486 91.5691 120.217C87.7561 121.757 83.442 120.34 81.2729 116.882C78.8148 112.961 80.0242 107.676 83.9757 105.279C90.9823 101.026 99.1745 108.13 96.1792 115.613Z" fill="#190A0A" fill-opacity="0.2"/>
<path d="M96.1782 115.613C96.818 116.248 97.4646 116.896 98.0992 117.532C100.087 119.529 102.034 121.575 104.047 123.548C104.555 124.186 104.001 124.868 103.279 124.444C98.4927 119.323 93.0375 114.618 88.3026 109.474C88.1572 109.316 87.9827 109.212 87.9844 108.961C88.3795 108.932 88.9663 109.065 89.3341 109.212C90.5725 109.706 94.9107 114.355 96.1799 115.612L96.1782 115.613Z" fill="#FBB3A0"/>
<path d="M100.789 112.928C102.725 112.791 103.613 114.123 104.886 115.358C106.429 116.855 107.859 118.49 109.429 119.964C109.708 120.564 109.207 121.072 108.601 120.791L100.789 112.926V112.928Z" fill="#FBB39F"/>
<path d="M111.671 113.056C111.758 113.143 111.826 113.408 111.987 113.57C112.449 114.035 114.652 116.049 114.808 116.383C115.035 116.873 114.495 117.46 114.011 117.182L107.445 110.626C109.313 110.493 110.456 111.835 111.671 113.056Z" fill="#FBB3A0"/>
<path d="M97.0764 130.575C98.3303 130.51 100.486 130.435 101.687 130.575C102.316 130.649 102.691 131.276 103.094 131.725H94.5156C95.217 130.812 95.9799 130.632 97.0764 130.575Z" fill="#FBB39F"/>
<path d="M120.126 112.671C120.234 113.372 119.832 113.812 119.182 113.421L114.363 108.578C116.676 108.366 118.633 111.127 120.125 112.671H120.126Z" fill="#FBB4A0"/>
</g>
<defs>
<linearGradient id="paint0_linear_1824_29321" x1="86.378" y1="74.366" x2="87.6957" y2="79.8564" gradientUnits="userSpaceOnUse">
<stop stop-color="#FF8120"/>
<stop offset="1" stop-color="#E54304"/>
</linearGradient>
<linearGradient id="paint1_linear_1824_29321" x1="72.1046" y1="82.7098" x2="73.4223" y2="88.2001" gradientUnits="userSpaceOnUse">
<stop stop-color="#FF8120"/>
<stop offset="1" stop-color="#E54304"/>
</linearGradient>
<clipPath id="clip0_1824_29321">
<rect width="58" height="45" fill="white" transform="translate(80 104)"/>
</clipPath>
</defs>
</svg>
