<svg width="320" height="150" viewBox="0 0 320 150" fill="none" xmlns="http://www.w3.org/2000/svg">
<g clip-path="url(#clip0_762_14590)">
<path d="M130.191 33.8633H76.6653C75.3803 33.8633 74.3386 34.905 74.3386 36.19V97.868C74.3386 99.153 75.3803 100.195 76.6653 100.195H130.191C131.476 100.195 132.518 99.153 132.518 97.868V36.19C132.518 34.905 131.476 33.8633 130.191 33.8633Z" fill="white"/>
<path d="M86.3826 51.2031C84.2047 51.2031 82.4374 49.4298 82.4374 47.2519C82.4374 45.074 84.2107 43.3066 86.3826 43.3066C88.5546 43.3066 90.3279 45.0799 90.3279 47.2519C90.3279 49.4239 88.5546 51.2031 86.3826 51.2031ZM86.3826 45.0918C85.1925 45.0918 84.2226 46.0618 84.2226 47.2519C84.2226 48.442 85.1925 49.4179 86.3826 49.4179C87.5728 49.4179 88.5427 48.448 88.5427 47.2519C88.5427 46.0558 87.5728 45.0918 86.3826 45.0918Z" fill="#CECECE"/>
<path d="M86.0614 48.1446C85.8352 48.1446 85.6032 48.0554 85.4306 47.8828L82.2351 44.6873C81.884 44.3362 81.884 43.7709 82.2351 43.4258C82.5862 43.0807 83.1515 43.0747 83.4966 43.4258L86.0614 45.9905L90.1792 41.8727C90.5303 41.5216 91.0956 41.5216 91.4407 41.8727C91.7858 42.2238 91.7918 42.7891 91.4407 43.1342L86.6921 47.8828C86.5196 48.0554 86.2875 48.1446 86.0614 48.1446Z" fill="#EE6002"/>
<path d="M86.3826 64.0683C84.2047 64.0683 82.4374 62.2951 82.4374 60.1231C82.4374 57.9511 84.2107 56.1719 86.3826 56.1719C88.5546 56.1719 90.3279 57.9452 90.3279 60.1231C90.3279 62.301 88.5546 64.0683 86.3826 64.0683ZM86.3826 57.9571C85.1925 57.9571 84.2226 58.927 84.2226 60.1231C84.2226 61.3192 85.1925 62.2831 86.3826 62.2831C87.5728 62.2831 88.5427 61.3132 88.5427 60.1231C88.5427 58.933 87.5728 57.9571 86.3826 57.9571Z" fill="#CECECE"/>
<path d="M86.0614 61.0099C85.8352 61.0099 85.6032 60.9206 85.4306 60.748L82.2351 57.5526C81.884 57.2015 81.884 56.6362 82.2351 56.291C82.5862 55.9459 83.1515 55.9399 83.4966 56.291L86.0614 58.8557L90.1792 54.7379C90.5303 54.3868 91.0956 54.3868 91.4407 54.7379C91.7858 55.089 91.7918 55.6543 91.4407 55.9995L86.6921 60.748C86.5196 60.9206 86.2875 61.0099 86.0614 61.0099Z" fill="#EE6002"/>
<path d="M86.3826 76.9277C84.2047 76.9277 82.4374 75.1544 82.4374 72.9765C82.4374 70.7986 84.2107 69.0312 86.3826 69.0312C88.5546 69.0312 90.3279 70.8045 90.3279 72.9765C90.3279 75.1485 88.5546 76.9277 86.3826 76.9277ZM86.3826 70.8164C85.1925 70.8164 84.2226 71.7864 84.2226 72.9765C84.2226 74.1666 85.1925 75.1425 86.3826 75.1425C87.5728 75.1425 88.5427 74.1726 88.5427 72.9765C88.5427 71.7804 87.5728 70.8164 86.3826 70.8164Z" fill="#CECECE"/>
<path d="M86.0614 73.8751C85.8352 73.8751 85.6032 73.7858 85.4306 73.6133L82.2351 70.4178C81.884 70.0667 81.884 69.5014 82.2351 69.1563C82.5862 68.8111 83.1515 68.8052 83.4966 69.1563L86.0614 71.721L90.1792 67.6032C90.5303 67.2521 91.0956 67.2521 91.4407 67.6032C91.7858 67.9542 91.7918 68.5195 91.4407 68.8647L86.6921 73.6133C86.5196 73.7858 86.2875 73.8751 86.0614 73.8751Z" fill="#EE6002"/>
<path d="M125.776 45.5088H95.1598C94.6659 45.5088 94.2672 45.1101 94.2672 44.6162C94.2672 44.1223 94.6659 43.7236 95.1598 43.7236H125.776C126.27 43.7236 126.668 44.1223 126.668 44.6162C126.668 45.1101 126.27 45.5088 125.776 45.5088Z" fill="#CECECE"/>
<path d="M117.391 49.4834H95.1598C94.6659 49.4834 94.2672 49.0847 94.2672 48.5908C94.2672 48.0969 94.6659 47.6982 95.1598 47.6982H117.391C117.885 47.6982 118.284 48.0969 118.284 48.5908C118.284 49.0847 117.885 49.4834 117.391 49.4834Z" fill="#CECECE"/>
<path d="M121.337 58.7666H107.525C107.031 58.7666 106.633 58.3679 106.633 57.874C106.633 57.3801 107.031 56.9814 107.525 56.9814H121.337C121.83 56.9814 122.229 57.3801 122.229 57.874C122.229 58.3679 121.83 58.7666 121.337 58.7666Z" fill="#CECECE"/>
<path d="M103.675 58.7666H95.1658C94.6719 58.7666 94.2732 58.3679 94.2732 57.874C94.2732 57.3801 94.6719 56.9814 95.1658 56.9814H103.675C104.169 56.9814 104.568 57.3801 104.568 57.874C104.568 58.3679 104.169 58.7666 103.675 58.7666Z" fill="#CECECE"/>
<path d="M124.294 62.7412H95.1598C94.6659 62.7412 94.2672 62.3425 94.2672 61.8486C94.2672 61.3547 94.6659 60.9561 95.1598 60.9561H124.294C124.788 60.9561 125.187 61.3547 125.187 61.8486C125.187 62.3425 124.788 62.7412 124.294 62.7412Z" fill="#CECECE"/>
<path d="M109.162 71.792H95.1658C94.6719 71.792 94.2732 71.3933 94.2732 70.8994C94.2732 70.4055 94.6719 70.0068 95.1658 70.0068H109.162C109.656 70.0068 110.054 70.4055 110.054 70.8994C110.054 71.3933 109.656 71.792 109.162 71.792Z" fill="#CECECE"/>
<path d="M120.599 75.7676H103.675C103.181 75.7676 102.783 75.3689 102.783 74.875C102.783 74.3811 103.181 73.9824 103.675 73.9824H120.599C121.093 73.9824 121.491 74.3811 121.491 74.875C121.491 75.3689 121.093 75.7676 120.599 75.7676Z" fill="#CECECE"/>
<path d="M99.7001 75.7676H95.1598C94.6659 75.7676 94.2672 75.3689 94.2672 74.875C94.2672 74.3811 94.6659 73.9824 95.1598 73.9824H99.7001C100.194 73.9824 100.593 74.3811 100.593 74.875C100.593 75.3689 100.194 75.7676 99.7001 75.7676Z" fill="#CECECE"/>
<path d="M86.3826 90.6972C84.2047 90.6972 82.4374 88.924 82.4374 86.752C82.4374 84.58 84.2107 82.8008 86.3826 82.8008C88.5546 82.8008 90.3279 84.5741 90.3279 86.752C90.3279 88.9299 88.5546 90.6972 86.3826 90.6972ZM86.3826 84.586C85.1925 84.586 84.2226 85.5559 84.2226 86.752C84.2226 87.9481 85.1925 88.9121 86.3826 88.9121C87.5728 88.9121 88.5427 87.9421 88.5427 86.752C88.5427 85.5619 87.5728 84.586 86.3826 84.586Z" fill="#CECECE"/>
<path d="M86.0614 87.6446C85.8352 87.6446 85.6032 87.5554 85.4306 87.3828L82.2351 84.1873C81.884 83.8362 81.884 83.2709 82.2351 82.9258C82.5862 82.5807 83.1515 82.5747 83.4966 82.9258L86.0614 85.4905L90.1792 81.3727C90.5303 81.0216 91.0956 81.0216 91.4407 81.3727C91.7858 81.7238 91.7918 82.2891 91.4407 82.6342L86.6921 87.3828C86.5196 87.5554 86.2875 87.6446 86.0614 87.6446Z" fill="#EE6002"/>
<path d="M121.337 85.4014H107.525C107.031 85.4014 106.633 85.0027 106.633 84.5088C106.633 84.0149 107.031 83.6162 107.525 83.6162H121.337C121.83 83.6162 122.229 84.0149 122.229 84.5088C122.229 85.0027 121.83 85.4014 121.337 85.4014Z" fill="#CECECE"/>
<path d="M103.675 85.4014H95.1658C94.6719 85.4014 94.2732 85.0027 94.2732 84.5088C94.2732 84.0149 94.6719 83.6162 95.1658 83.6162H103.675C104.169 83.6162 104.568 84.0149 104.568 84.5088C104.568 85.0027 104.169 85.4014 103.675 85.4014Z" fill="#CECECE"/>
<path d="M124.294 89.3701H95.1598C94.6659 89.3701 94.2672 88.9715 94.2672 88.4776C94.2672 87.9837 94.6659 87.585 95.1598 87.585H124.294C124.788 87.585 125.187 87.9837 125.187 88.4776C125.187 88.9715 124.788 89.3701 124.294 89.3701Z" fill="#CECECE"/>
<path d="M189.051 88.3946C188.606 88.3363 188.219 88.2675 187.769 88.2251C187.319 88.1828 186.874 88.1457 186.419 88.1192C185.964 88.0927 185.519 88.0345 185.069 88.0186C184.619 88.0027 184.163 88.0927 183.713 88.0821C183.263 88.0716 182.813 88.0133 182.363 88.008C181.913 88.0027 181.463 87.9974 181.012 87.9921C180.562 87.9868 180.112 87.9498 179.662 87.9339C179.238 87.9233 178.804 87.9127 178.37 87.9021C177.936 87.8915 177.512 87.8862 177.078 87.8756C176.644 87.865 176.22 87.8915 175.786 87.8862C175.352 87.8809 174.923 87.8862 174.494 87.8862C174.065 87.8862 173.631 87.8068 173.196 87.8174C172.762 87.828 172.333 87.8386 171.899 87.8597C171.465 87.8809 171.041 87.9868 170.612 88.0239C170.183 88.061 169.786 88.151 169.357 88.2039C169.119 88.5481 168.902 88.8765 168.674 89.2365C168.446 89.5966 168.182 89.9249 167.959 90.2903C167.737 90.6557 167.573 91.037 167.361 91.4077C167.149 91.7783 166.868 92.0961 166.662 92.472C166.461 92.8427 166.286 93.2293 166.09 93.6052C165.894 93.9812 165.709 94.3625 165.523 94.7437C165.338 95.125 165.105 95.4798 164.925 95.8664C164.745 96.2529 164.623 96.6607 164.448 97.0472C164.274 97.4338 164.168 97.8468 163.998 98.2387C163.829 98.6306 163.569 98.9748 163.405 99.3666C163.246 99.7585 163.135 100.172 162.976 100.563C162.817 100.955 162.595 101.326 162.447 101.723C162.299 102.12 162.277 102.565 162.129 102.962C161.981 103.359 161.737 103.725 161.6 104.122C161.462 104.519 161.393 104.948 161.261 105.35C161.128 105.753 161.022 106.166 160.89 106.568C160.758 106.971 160.535 107.347 160.413 107.749C160.292 108.152 160.265 108.591 160.143 108.999C160.022 109.407 159.868 109.804 159.751 110.212C159.635 110.619 159.471 111.016 159.354 111.424C159.238 111.832 159.09 112.234 158.984 112.642C158.878 113.05 158.841 113.484 158.74 113.892C158.639 114.3 158.449 114.697 158.348 115.105C158.248 115.512 158.216 115.946 158.12 116.36C158.025 116.773 157.94 117.191 157.85 117.599C157.76 118.006 157.654 118.43 157.564 118.838C157.474 119.256 157.416 119.674 157.331 120.082C157.247 120.501 157.104 120.908 157.024 121.316C156.945 121.729 156.839 122.137 156.765 122.55C156.691 122.963 156.696 123.392 156.622 123.805C156.542 124.218 156.373 124.615 156.294 125.028C156.214 125.441 156.246 125.875 156.172 126.288C156.098 126.701 155.923 127.099 155.849 127.512C155.775 127.925 155.732 128.343 155.658 128.756C155.584 129.169 155.499 129.582 155.425 129.995C155.351 130.408 155.362 130.837 155.293 131.25C155.219 131.663 155.102 132.071 155.028 132.484C154.954 132.897 154.827 133.305 154.758 133.718C154.689 134.131 154.673 134.554 154.599 134.973C154.525 135.391 154.504 135.809 154.435 136.223C154.366 136.636 154.17 137.033 154.107 137.446C154.043 137.859 154.017 138.282 153.948 138.695C153.879 139.108 153.805 139.527 153.741 139.94C153.678 140.353 153.672 140.782 153.609 141.195C153.545 141.608 153.476 142.026 153.413 142.439C153.349 142.852 153.206 143.26 153.143 143.673C153.079 144.086 153.032 144.504 152.968 144.923C152.91 145.315 152.846 145.701 152.793 146.093C152.74 146.485 152.756 146.887 152.703 147.279C152.65 147.671 152.55 148.058 152.497 148.45C152.444 148.841 152.37 149.297 152.322 149.689C152.899 149.885 152.952 149.588 153.561 149.588C154.17 149.588 154.17 149.572 154.774 149.572C155.377 149.572 155.383 149.689 155.986 149.689C156.59 149.689 156.595 149.63 157.199 149.63C157.803 149.63 157.808 149.62 158.417 149.62C159.026 149.62 159.026 149.689 159.635 149.689C160.244 149.689 160.244 149.593 160.853 149.593C161.462 149.593 161.462 149.615 162.071 149.615C162.68 149.615 162.733 149.874 163.31 149.694C163.395 149.281 163.405 148.788 163.49 148.37C163.575 147.957 163.707 147.549 163.792 147.136C163.877 146.723 164.035 146.321 164.12 145.908C164.205 145.495 164.178 145.055 164.268 144.642C164.358 144.229 164.443 143.811 164.533 143.398C164.623 142.985 164.793 142.588 164.883 142.175C164.973 141.761 165.063 141.348 165.158 140.935C165.253 140.522 165.243 140.088 165.338 139.675C165.433 139.262 165.587 138.865 165.682 138.452C165.778 138.039 165.815 137.61 165.91 137.202C166.005 136.794 166.106 136.376 166.207 135.968C166.307 135.555 166.487 135.163 166.593 134.756C166.699 134.348 166.731 133.919 166.837 133.506C166.943 133.093 167.117 132.701 167.223 132.293C167.329 131.886 167.377 131.457 167.483 131.049C167.589 130.641 167.71 130.233 167.822 129.826C167.933 129.418 168.081 129.021 168.198 128.613C168.314 128.205 168.462 127.808 168.584 127.4C168.706 126.993 168.86 126.601 168.981 126.193C169.103 125.785 169.225 125.383 169.347 124.975C169.468 124.567 169.474 124.128 169.601 123.725C169.728 123.323 169.892 122.926 170.019 122.523C170.146 122.121 170.289 121.718 170.422 121.316C170.554 120.914 170.723 120.522 170.861 120.125C170.999 119.722 171.068 119.298 171.211 118.901C171.354 118.504 171.544 118.118 171.687 117.726C171.83 117.334 172.01 116.942 172.159 116.545C172.307 116.148 172.45 115.751 172.609 115.359C172.768 114.967 172.958 114.586 173.117 114.194C173.276 113.802 173.371 113.384 173.535 112.992C173.699 112.6 173.97 112.256 174.139 111.869C174.308 111.482 174.409 111.064 174.584 110.678C174.759 110.291 174.933 109.904 175.108 109.523C175.283 109.142 175.521 108.782 175.701 108.401C175.881 108.019 175.971 107.59 176.162 107.214C176.352 106.838 176.617 106.494 176.813 106.118C177.009 105.742 177.11 105.319 177.306 104.943C177.502 104.567 177.735 104.212 177.941 103.841C178.142 103.471 178.381 103.116 178.592 102.75C178.804 102.385 178.963 101.988 179.18 101.622C179.397 101.257 179.662 100.923 179.879 100.563C180.096 100.203 180.377 99.875 180.599 99.5149C180.822 99.1548 181.049 98.8 181.282 98.4452C181.515 98.0904 181.738 97.7356 181.976 97.3808C182.214 97.0261 182.379 96.6342 182.622 96.2847C182.866 95.9352 183.178 95.6387 183.427 95.2945C183.676 94.9503 183.893 94.5849 184.147 94.246C184.401 93.9018 184.597 93.5099 184.857 93.171C185.116 92.8321 185.408 92.5144 185.678 92.1808C185.948 91.8472 186.239 91.5347 186.514 91.2064C186.79 90.8781 187.113 90.5922 187.399 90.2744C187.685 89.9567 187.886 89.5596 188.182 89.2471C188.479 88.9347 188.765 88.707 189.072 88.4105L189.051 88.3946Z" fill="white"/>
<path d="M189.125 88.1352C187.785 87.9498 186.424 87.7804 185.074 87.7486C184.746 87.738 184.417 87.7804 184.089 87.8015C183.718 87.8227 183.353 87.7962 182.982 87.7698C182.289 87.7221 181.59 87.738 180.891 87.7168C179.45 87.6745 178.005 87.5791 176.559 87.6056C175.828 87.6162 175.097 87.6374 174.367 87.6162C174.049 87.6056 173.737 87.5632 173.424 87.5527C173.043 87.5421 172.662 87.5632 172.28 87.5791C171.608 87.6056 170.946 87.7062 170.279 87.7962C170.114 87.8174 169.945 87.8492 169.781 87.8757C169.627 87.9022 169.421 87.8969 169.278 87.9498C169.024 88.0504 168.849 88.4635 168.706 88.6859C168.341 89.2366 167.927 89.7767 167.604 90.3539C167.456 90.624 167.324 90.9046 167.176 91.1747C167.006 91.4818 166.794 91.7519 166.604 92.0431C166.217 92.6309 165.936 93.2982 165.624 93.9283C165.322 94.532 164.978 95.1251 164.687 95.734C164.417 96.3059 164.189 96.9202 163.977 97.5133C163.871 97.8204 163.765 98.1223 163.606 98.4135C163.448 98.7047 163.268 98.9854 163.14 99.2978C162.881 99.9227 162.69 100.553 162.394 101.167C162.267 101.432 162.15 101.702 162.081 101.988C161.997 102.343 161.949 102.708 161.806 103.047C161.689 103.317 161.536 103.571 161.425 103.841C161.287 104.164 161.213 104.498 161.123 104.837C160.953 105.509 160.758 106.229 160.482 106.865C160.366 107.135 160.233 107.4 160.149 107.68C160.043 108.014 160.016 108.364 159.937 108.702C159.783 109.37 159.534 110.037 159.312 110.683C159.089 111.329 158.835 112.044 158.682 112.732C158.613 113.055 158.576 113.378 158.502 113.701C158.428 114.024 158.306 114.331 158.2 114.639C157.972 115.306 157.909 116.026 157.755 116.714C157.601 117.403 157.432 118.118 157.284 118.822C157.135 119.526 157.024 120.178 156.844 120.85C156.675 121.501 156.511 122.184 156.436 122.857C156.399 123.206 156.389 123.556 156.309 123.9C156.23 124.234 156.103 124.557 156.034 124.896C155.97 125.208 155.96 125.526 155.939 125.844C155.912 126.225 155.812 126.574 155.7 126.934C155.499 127.602 155.452 128.306 155.324 128.994C155.261 129.323 155.192 129.656 155.139 129.985C155.081 130.35 155.081 130.721 155.028 131.091C154.927 131.801 154.737 132.516 154.567 133.215C154.398 133.914 154.355 134.592 154.265 135.28C154.223 135.624 154.202 135.979 154.117 136.318C154.043 136.636 153.911 136.937 153.842 137.26C153.693 137.954 153.656 138.674 153.535 139.373C153.413 140.083 153.37 140.792 153.259 141.502C153.206 141.857 153.159 142.212 153.09 142.561C153.021 142.911 152.91 143.255 152.852 143.61C152.735 144.324 152.645 145.05 152.534 145.77C152.433 146.448 152.428 147.126 152.301 147.798C152.179 148.423 152.094 149.059 152.015 149.694C151.999 149.811 152.11 149.916 152.211 149.948C152.555 150.054 152.809 150.006 153.148 149.911C153.487 149.816 153.874 149.853 154.223 149.848C154.996 149.826 155.743 149.996 156.516 149.932C157.289 149.869 158.036 149.853 158.772 149.906C159.153 149.932 159.524 149.98 159.905 149.948C160.265 149.922 160.609 149.863 160.975 149.863C161.382 149.863 161.832 149.842 162.24 149.901C162.648 149.959 162.918 150.075 163.331 149.953C163.416 149.927 163.501 149.858 163.516 149.768C163.606 149.265 163.622 148.757 163.739 148.259C163.866 147.724 163.993 147.179 164.147 146.649C164.3 146.13 164.374 145.638 164.427 145.103C164.48 144.536 164.623 143.964 164.756 143.414C164.877 142.895 165.063 142.397 165.174 141.873C165.285 141.348 165.407 140.835 165.465 140.305C165.529 139.707 165.73 139.161 165.873 138.579C166.011 138.023 166.069 137.451 166.206 136.895C166.334 136.36 166.466 135.836 166.646 135.312C166.826 134.788 166.89 134.237 167.017 133.691C167.144 133.146 167.377 132.648 167.488 132.108C167.61 131.547 167.721 130.991 167.88 130.435C168.187 129.333 168.531 128.242 168.886 127.157C169.066 126.611 169.241 126.071 169.405 125.521C169.479 125.266 169.569 125.012 169.622 124.753C169.68 124.467 169.701 124.176 169.776 123.895C169.919 123.349 170.152 122.82 170.326 122.28C170.501 121.74 170.692 121.194 170.893 120.659C171.084 120.151 171.205 119.637 171.364 119.124C171.523 118.61 171.756 118.149 171.941 117.662C172.365 116.566 172.805 115.481 173.26 114.395C173.466 113.908 173.572 113.373 173.811 112.896C174.044 112.441 174.314 112.028 174.483 111.541C174.679 110.985 174.901 110.455 175.15 109.92C175.373 109.438 175.653 108.988 175.876 108.507C176.098 108.035 176.209 107.516 176.474 107.066C176.734 106.627 177.009 106.219 177.194 105.737C177.613 104.651 178.306 103.725 178.847 102.703C179.09 102.242 179.302 101.771 179.598 101.337C179.89 100.908 180.17 100.468 180.478 100.044C180.801 99.5944 181.086 99.1178 181.383 98.6518C181.68 98.1858 182.04 97.688 182.326 97.185C182.612 96.6819 182.86 96.2742 183.226 95.8558C183.559 95.4693 183.824 95.0509 184.11 94.6326C184.396 94.2143 184.682 93.7271 185 93.3034C185.318 92.8798 185.678 92.4721 186.022 92.0696C186.694 91.2859 187.436 90.571 188.039 89.7291C188.357 89.2842 188.797 88.9453 189.194 88.5694C189.443 88.3311 189.067 87.9604 188.818 88.1934C188.431 88.5641 188.002 88.903 187.679 89.3319C187.356 89.7608 187.07 90.1474 186.7 90.5234C185.958 91.2806 185.254 92.1173 184.608 92.9592C183.962 93.8012 183.475 94.765 182.776 95.5752C182.437 95.967 182.177 96.3748 181.928 96.8249C181.658 97.3121 181.335 97.7675 181.034 98.2334C180.435 99.1548 179.831 100.076 179.212 100.982C178.905 101.432 178.672 101.908 178.423 102.39C178.174 102.872 177.851 103.365 177.57 103.852C177.3 104.318 177.014 104.768 176.813 105.271C176.601 105.806 176.347 106.261 176.051 106.748C175.781 107.199 175.659 107.691 175.452 108.168C175.23 108.676 174.923 109.147 174.695 109.656C174.473 110.143 174.245 110.625 174.07 111.128C173.885 111.668 173.615 112.123 173.355 112.632C173.122 113.082 173.016 113.579 172.836 114.051C172.63 114.58 172.37 115.089 172.169 115.624C171.772 116.677 171.311 117.705 170.93 118.758C170.739 119.277 170.644 119.817 170.453 120.336C170.252 120.871 170.062 121.411 169.876 121.951C169.691 122.492 169.463 123.069 169.294 123.635C169.14 124.144 169.103 124.679 168.944 125.192C168.605 126.304 168.224 127.406 167.89 128.523C167.557 129.64 167.218 130.705 166.995 131.833C166.89 132.378 166.662 132.881 166.524 133.416C166.387 133.961 166.344 134.517 166.164 135.052C165.984 135.587 165.836 136.127 165.703 136.683C165.571 137.239 165.502 137.811 165.37 138.367C165.243 138.918 165.031 139.442 164.962 140.003C164.893 140.565 164.793 141.105 164.671 141.661C164.433 142.731 164.046 143.768 163.914 144.859C163.845 145.405 163.808 145.913 163.649 146.443C163.485 146.988 163.352 147.549 163.22 148.105C163.103 148.603 163.087 149.112 162.997 149.615L163.183 149.429C162.759 149.551 162.325 149.35 161.891 149.345C161.419 149.339 160.943 149.297 160.477 149.334C160.011 149.371 159.577 149.44 159.105 149.397C158.634 149.355 158.21 149.35 157.755 149.355C157.3 149.36 156.855 149.366 156.405 149.397C155.933 149.435 155.499 149.355 155.038 149.313C154.578 149.27 154.096 149.313 153.625 149.313C153.381 149.313 153.159 149.334 152.926 149.403C152.703 149.466 152.566 149.487 152.338 149.419L152.534 149.673C152.661 148.672 152.915 147.676 152.963 146.67C152.989 146.125 153.084 145.585 153.169 145.045C153.254 144.505 153.296 143.954 153.418 143.419C153.656 142.36 153.815 141.311 153.926 140.236C153.985 139.696 154.107 139.161 154.181 138.627C154.255 138.092 154.276 137.568 154.43 137.054C154.747 136.021 154.795 134.962 154.948 133.898C155.102 132.855 155.478 131.849 155.568 130.795C155.616 130.228 155.711 129.677 155.812 129.116C155.912 128.555 155.965 128.036 156.071 127.501C156.166 127.04 156.352 126.606 156.41 126.14C156.484 125.584 156.484 125.06 156.648 124.52C156.797 124.022 156.876 123.545 156.918 123.026C156.966 122.465 157.12 121.914 157.231 121.364C157.331 120.887 157.485 120.426 157.575 119.945C157.676 119.404 157.771 118.864 157.898 118.329C158.025 117.795 158.136 117.254 158.258 116.714C158.375 116.18 158.433 115.624 158.571 115.094C158.692 114.628 158.899 114.188 158.994 113.712C159.1 113.198 159.174 112.7 159.333 112.203C159.667 111.154 160.043 110.111 160.344 109.052C160.477 108.586 160.498 108.099 160.667 107.643C160.848 107.156 161.07 106.701 161.218 106.198C161.366 105.695 161.525 105.192 161.658 104.678C161.79 104.164 162.028 103.725 162.24 103.243C162.431 102.803 162.463 102.337 162.611 101.887C162.764 101.411 163.045 100.982 163.22 100.51C163.395 100.039 163.532 99.5255 163.786 99.0701C164.03 98.6359 164.237 98.2176 164.401 97.7516C164.565 97.2856 164.761 96.8143 164.941 96.3483C165.121 95.8823 165.38 95.4587 165.608 95.0192C166.101 94.0713 166.492 93.0281 167.101 92.1491C167.663 91.3389 168.076 90.4492 168.637 89.639C168.939 89.2048 169.22 88.76 169.516 88.3205L169.288 88.4529C170.575 88.2834 171.825 88.0769 173.128 88.0663C173.731 88.061 174.335 88.1351 174.944 88.1299C175.611 88.1299 176.284 88.1087 176.951 88.1193C178.264 88.1352 179.577 88.204 180.891 88.2358C181.526 88.2516 182.161 88.2358 182.797 88.2781C183.432 88.3205 184.015 88.3046 184.64 88.2781C185.333 88.2411 186.038 88.347 186.726 88.3999C187.462 88.4529 188.188 88.5429 188.918 88.6435C189.252 88.6912 189.395 88.1775 189.061 88.1352H189.125Z" fill="#8EA5C1"/>
<path d="M157.014 121.305C157.093 120.898 157.162 120.479 157.247 120.056C157.331 119.632 157.411 119.23 157.501 118.811C157.591 118.393 157.713 117.996 157.808 117.578C157.898 117.17 158.041 116.767 158.136 116.349C158.232 115.931 158.232 115.507 158.332 115.089C158.433 114.681 158.565 114.278 158.671 113.865C158.777 113.452 158.862 113.045 158.968 112.632C159.074 112.219 159.217 111.827 159.333 111.414C159.444 111.006 159.577 110.604 159.698 110.196C159.82 109.788 159.878 109.37 160 108.962C160.122 108.554 160.35 108.184 160.477 107.776C160.604 107.368 160.678 106.95 160.81 106.547C160.943 106.145 161.096 105.748 161.234 105.345C161.372 104.943 161.472 104.53 161.615 104.133C161.758 103.735 161.907 103.333 162.05 102.936C162.193 102.539 162.362 102.147 162.51 101.75C162.659 101.352 162.849 100.971 163.003 100.574C163.156 100.177 163.278 99.7691 163.442 99.3773C163.606 98.9854 163.786 98.5989 163.951 98.2123C164.115 97.8257 164.247 97.4127 164.422 97.0314C164.597 96.6449 164.777 96.2583 164.951 95.877C165.126 95.4958 165.296 95.0986 165.481 94.7173C165.666 94.3361 165.878 93.9654 166.069 93.5894C166.265 93.2082 166.54 92.8798 166.741 92.5092C166.943 92.1385 167.123 91.7519 167.334 91.3865C167.546 91.0212 167.779 90.6664 168.002 90.301C168.224 89.9356 168.409 89.5543 168.637 89.2048C168.865 88.8554 169.082 88.4794 169.315 88.1299C168.886 88.1828 168.457 88.2411 168.033 88.3152C167.61 88.3894 167.197 88.5217 166.773 88.6118C166.349 88.7018 165.921 88.7653 165.507 88.8818C165.094 88.9983 164.671 89.0989 164.263 89.2419C163.855 89.3849 163.485 89.6179 163.093 89.7926C162.701 89.9674 162.304 90.1315 161.922 90.3381C161.536 90.5446 161.133 90.7246 160.763 90.9629C160.392 91.2012 160.053 91.4766 159.704 91.7413C159.354 92.0061 159.015 92.2815 158.682 92.5727C158.348 92.864 158.062 93.1923 157.75 93.4994C157.437 93.8065 157.13 94.1137 156.834 94.4367C156.537 94.7597 156.267 95.0986 155.986 95.4375C155.706 95.7764 155.42 96.1047 155.155 96.4542C154.89 96.8037 154.572 97.1109 154.318 97.4709C154.064 97.831 153.847 98.2123 153.603 98.5777C153.36 98.9431 153.153 99.3296 152.92 99.7056C152.687 100.082 152.401 100.415 152.179 100.796C151.957 101.178 151.814 101.601 151.596 101.983C151.379 102.364 151.168 102.75 150.961 103.132C150.749 103.518 150.559 103.915 150.363 104.302C150.167 104.678 149.881 105.001 149.69 105.377C149.5 105.753 149.304 106.129 149.118 106.505C148.933 106.881 148.853 107.31 148.668 107.691C148.483 108.072 148.276 108.438 148.096 108.819C147.916 109.2 147.757 109.592 147.583 109.973C147.408 110.355 147.26 110.752 147.09 111.138C146.921 111.525 146.661 111.869 146.497 112.256C146.333 112.642 146.253 113.071 146.089 113.458C145.925 113.844 145.724 114.215 145.56 114.607C145.396 114.999 145.226 115.38 145.067 115.772C144.908 116.164 144.728 116.545 144.575 116.937C144.421 117.329 144.268 117.72 144.114 118.112C143.966 118.504 143.876 118.923 143.728 119.32C143.579 119.717 143.436 120.109 143.293 120.506C143.15 120.903 142.986 121.29 142.843 121.687C142.7 122.084 142.536 122.47 142.398 122.868C142.261 123.265 142.134 123.667 141.996 124.064C141.858 124.462 141.752 124.875 141.62 125.272C141.488 125.669 141.376 126.077 141.249 126.479C141.122 126.882 140.895 127.252 140.767 127.649C140.64 128.046 140.582 128.475 140.455 128.878C140.328 129.28 140.217 129.688 140.09 130.091C139.963 130.504 139.782 130.901 139.655 131.314C139.528 131.727 139.428 132.145 139.301 132.558C139.174 132.971 139.083 133.395 138.956 133.808C138.829 134.221 138.644 134.613 138.517 135.026C138.39 135.439 138.321 135.868 138.194 136.281C138.067 136.694 137.813 137.07 137.686 137.483C137.558 137.896 137.442 138.314 137.32 138.727C137.198 139.14 137.204 139.596 137.082 140.009C136.96 140.422 136.769 140.819 136.648 141.232C136.526 141.645 136.42 142.069 136.303 142.482C136.187 142.895 136.123 143.329 136.007 143.747C135.89 144.166 135.641 144.547 135.53 144.965C135.419 145.384 135.324 145.807 135.218 146.226C135.112 146.644 134.99 147.062 134.89 147.481C134.757 148.015 135.017 148.513 135.324 148.905C135.631 149.297 136.049 149.54 136.6 149.54C137.251 149.54 137.251 149.54 137.908 149.54C138.565 149.54 138.565 149.572 139.216 149.572C139.867 149.572 139.873 149.657 140.524 149.657C141.175 149.657 141.18 149.546 141.832 149.546C142.483 149.546 142.488 149.604 143.14 149.604C143.791 149.604 143.791 149.599 144.448 149.599C145.104 149.599 145.104 149.546 145.756 149.546C146.407 149.546 146.412 149.572 147.064 149.572C147.715 149.572 147.72 149.609 148.372 149.609C149.023 149.609 149.028 149.641 149.68 149.641C150.331 149.641 150.336 149.662 150.993 149.662C151.649 149.662 151.676 149.795 152.311 149.615C152.359 149.223 152.423 148.82 152.476 148.428C152.528 148.037 152.55 147.639 152.608 147.248C152.661 146.856 152.73 146.464 152.788 146.077C152.846 145.691 152.915 145.299 152.973 144.907C153.037 144.494 153.058 144.07 153.122 143.652C153.185 143.234 153.254 142.821 153.317 142.408C153.381 141.995 153.445 141.576 153.513 141.163C153.582 140.75 153.688 140.337 153.752 139.924C153.815 139.511 153.9 139.098 153.969 138.68C154.038 138.261 154.006 137.832 154.075 137.419C154.144 137.006 154.287 136.604 154.355 136.186C154.424 135.772 154.424 135.344 154.493 134.931C154.562 134.517 154.694 134.11 154.763 133.697C154.832 133.284 154.911 132.871 154.986 132.452C155.06 132.039 155.166 131.631 155.24 131.218C155.314 130.805 155.287 130.371 155.362 129.958C155.436 129.545 155.563 129.137 155.637 128.724C155.711 128.311 155.785 127.898 155.859 127.485C155.933 127.072 156.039 126.664 156.113 126.251C156.188 125.838 156.262 125.425 156.341 125.012C156.421 124.599 156.489 124.186 156.569 123.773C156.648 123.36 156.696 122.942 156.77 122.529C156.844 122.116 156.918 121.703 156.998 121.29L157.014 121.305Z" fill="#B43830"/>
<path d="M214.643 134.91C214.627 134.496 214.537 134.083 214.516 133.67C214.495 133.257 214.453 132.844 214.432 132.426C214.41 132.008 214.506 131.589 214.479 131.176C214.453 130.763 214.379 130.35 214.347 129.937C214.32 129.524 214.204 129.116 214.172 128.698C214.14 128.28 214.246 127.856 214.209 127.443C214.172 127.03 214.066 126.622 214.029 126.209C213.992 125.796 213.891 125.388 213.844 124.975C213.796 124.562 213.854 124.139 213.807 123.726C213.759 123.313 213.653 122.905 213.6 122.497C213.547 122.089 213.553 121.666 213.494 121.253C213.436 120.84 213.314 120.437 213.251 120.029C213.187 119.622 213.118 119.209 213.049 118.801C212.981 118.393 212.912 117.98 212.832 117.572C212.753 117.165 212.626 116.768 212.541 116.36C212.456 115.952 212.472 115.523 212.382 115.121C212.292 114.718 212.065 114.342 211.964 113.94C211.863 113.537 211.884 113.103 211.773 112.701C211.662 112.298 211.54 111.901 211.424 111.504C211.307 111.107 211.09 110.736 210.963 110.339C210.836 109.942 210.704 109.55 210.566 109.158C210.428 108.766 210.349 108.353 210.201 107.967C210.052 107.58 209.893 107.193 209.74 106.807C209.581 106.42 209.427 106.039 209.258 105.658C209.089 105.277 208.93 104.895 208.75 104.519C208.57 104.138 208.395 103.757 208.199 103.386C208.003 103.015 207.802 102.645 207.595 102.279C207.389 101.914 207.087 101.607 206.864 101.247C206.642 100.887 206.478 100.5 206.245 100.151C206.012 99.8011 205.715 99.494 205.472 99.1551C205.228 98.8162 205.022 98.4455 204.767 98.1119C204.513 97.7783 204.286 97.4182 204.021 97.0952C203.756 96.7721 203.491 96.4385 203.211 96.1261C202.93 95.8137 202.58 95.5648 202.284 95.2629C201.987 94.9611 201.717 94.6381 201.41 94.3521C201.103 94.0662 200.812 93.7591 200.494 93.4837C200.176 93.2083 199.827 92.97 199.493 92.7159C199.16 92.4617 198.81 92.2234 198.466 91.9851C198.122 91.7468 197.741 91.5615 197.386 91.3338C197.031 91.1061 196.724 90.7989 196.358 90.5977C195.982 90.3859 195.548 90.3118 195.167 90.1317C194.786 89.9517 194.426 89.6975 194.034 89.5492C193.642 89.401 193.208 89.3374 192.805 89.2156C192.403 89.0938 192 88.9561 191.587 88.8555C191.174 88.7549 190.756 88.7126 190.338 88.6331C189.919 88.5537 189.533 88.469 189.109 88.416C188.802 88.7126 188.527 89.0091 188.23 89.3162C187.933 89.6234 187.605 89.904 187.319 90.2217C187.033 90.5395 186.784 90.889 186.504 91.2173C186.223 91.5456 185.916 91.8421 185.651 92.1757C185.381 92.5093 185.106 92.8377 184.846 93.1766C184.587 93.5155 184.285 93.8226 184.031 94.1668C183.777 94.511 183.575 94.8923 183.326 95.2365C183.078 95.5807 182.823 95.9249 182.58 96.2744C182.336 96.6239 182.114 96.9892 181.876 97.344C181.637 97.6988 181.41 98.0589 181.171 98.4137C180.933 98.7685 180.631 99.0809 180.403 99.441C180.176 99.8011 180.027 100.214 179.805 100.574C179.583 100.934 179.281 101.252 179.058 101.617C178.836 101.983 178.624 102.353 178.412 102.719C178.201 103.084 178.089 103.518 177.878 103.889C177.666 104.26 177.364 104.578 177.157 104.954C176.951 105.324 176.797 105.727 176.596 106.103C176.395 106.479 176.247 106.881 176.045 107.257C175.844 107.633 175.659 108.014 175.468 108.396C175.277 108.777 175.071 109.147 174.88 109.534C174.69 109.921 174.467 110.281 174.282 110.667C174.097 111.054 173.89 111.424 173.71 111.811C173.53 112.198 173.35 112.584 173.175 112.971C173 113.357 172.81 113.744 172.64 114.13C172.471 114.522 172.407 114.956 172.238 115.348C172.068 115.74 171.846 116.111 171.687 116.503C171.528 116.895 171.422 117.313 171.264 117.71C171.105 118.107 170.856 118.467 170.702 118.864C170.549 119.262 170.369 119.648 170.22 120.051C170.072 120.453 169.919 120.85 169.77 121.247C169.622 121.65 169.58 122.084 169.437 122.487C169.294 122.889 169.061 123.26 168.918 123.662C168.775 124.065 168.637 124.467 168.499 124.869C168.362 125.272 168.235 125.68 168.102 126.087C167.97 126.49 167.896 126.913 167.763 127.321C167.631 127.729 167.483 128.126 167.356 128.534C167.228 128.942 167.096 129.344 166.974 129.752C166.853 130.16 166.71 130.562 166.593 130.97C166.477 131.377 166.365 131.791 166.249 132.204C166.132 132.617 166.048 133.035 165.936 133.443C165.82 133.856 165.672 134.253 165.56 134.666C165.449 135.079 165.343 135.492 165.232 135.9C165.121 136.307 164.989 136.715 164.883 137.128C164.777 137.541 164.692 137.96 164.586 138.373C164.48 138.786 164.48 139.225 164.38 139.638C164.279 140.051 164.062 140.438 163.967 140.856C163.871 141.275 163.802 141.693 163.707 142.111C163.612 142.53 163.479 142.932 163.389 143.35C163.299 143.769 163.209 144.182 163.119 144.6C163.029 145.018 163.045 145.458 162.955 145.871C162.865 146.284 162.696 146.686 162.606 147.105C162.516 147.523 162.463 147.947 162.378 148.365C162.293 148.783 162.193 149.196 162.108 149.615C162.717 149.827 162.749 149.594 163.395 149.594C164.041 149.594 164.035 149.557 164.681 149.557C165.327 149.557 165.322 149.546 165.968 149.546C166.614 149.546 166.609 149.631 167.255 149.631C167.901 149.631 167.896 149.615 168.542 149.615C169.188 149.615 169.182 149.567 169.829 149.567C170.475 149.567 170.469 149.647 171.115 149.647C171.761 149.647 171.756 149.647 172.402 149.647C173.048 149.647 173.043 149.562 173.689 149.562C174.335 149.562 174.33 149.652 174.976 149.652C175.622 149.652 175.622 149.678 176.262 149.678C176.903 149.678 176.903 149.631 177.549 149.631C178.195 149.631 178.19 149.673 178.836 149.673C179.482 149.673 179.477 149.562 180.123 149.562C180.769 149.562 180.763 149.546 181.41 149.546C182.056 149.546 182.05 149.599 182.696 149.599C183.342 149.599 183.337 149.604 183.983 149.604C184.629 149.604 184.624 149.652 185.27 149.652C185.916 149.652 185.911 149.546 186.557 149.546C187.203 149.546 187.197 149.647 187.838 149.647C188.479 149.647 188.479 149.567 189.125 149.567C189.771 149.567 189.766 149.615 190.412 149.615C191.058 149.615 191.052 149.615 191.698 149.615C192.345 149.615 192.339 149.578 192.985 149.578C193.631 149.578 193.626 149.609 194.272 149.609C194.918 149.609 194.918 149.609 195.559 149.609C196.2 149.609 196.2 149.636 196.846 149.636C197.492 149.636 197.492 149.562 198.132 149.562C198.773 149.562 198.773 149.562 199.419 149.562C200.065 149.562 200.065 149.609 200.706 149.609C201.347 149.609 201.352 149.689 201.993 149.689C202.633 149.689 202.639 149.604 203.279 149.604C203.92 149.604 203.926 149.551 204.566 149.551C205.207 149.551 205.207 149.562 205.853 149.562C206.499 149.562 206.499 149.668 207.14 149.668C207.781 149.668 207.786 149.567 208.427 149.567C209.067 149.567 209.073 149.641 209.713 149.641C210.354 149.641 210.359 149.588 211 149.588C211.641 149.588 211.646 149.588 212.292 149.588C212.938 149.588 212.944 149.715 213.574 149.578C213.981 149.196 214.188 148.99 214.596 148.609C214.622 148.196 214.675 147.804 214.691 147.385C214.707 146.967 214.776 146.554 214.786 146.141C214.797 145.728 214.707 145.31 214.718 144.891C214.728 144.473 214.76 144.06 214.765 143.647C214.77 143.234 214.744 142.816 214.744 142.397C214.744 141.979 214.77 141.566 214.765 141.147C214.76 140.729 214.77 140.316 214.765 139.898C214.76 139.479 214.686 139.066 214.675 138.653C214.665 138.235 214.76 137.817 214.744 137.404C214.728 136.985 214.659 136.572 214.643 136.159C214.627 135.746 214.665 135.328 214.643 134.91Z" fill="#B43830"/>
<path d="M151.48 105.191C151.109 106.578 150.733 107.961 150.363 109.348C150.177 110.031 150.05 110.725 149.875 111.413C149.701 112.102 149.473 112.811 149.277 113.515C148.906 114.876 148.546 116.248 148.202 117.614C148.022 118.318 147.863 119.028 147.667 119.732C147.493 120.368 147.498 121.035 147.297 121.66C147.201 121.956 147.085 122.247 147.005 122.549C146.921 122.872 146.894 123.206 146.841 123.534C146.741 124.196 146.391 124.779 146.285 125.441C146.238 125.748 146.211 126.06 146.137 126.367C146.063 126.69 145.941 127.003 145.846 127.32C145.644 127.988 145.47 128.665 145.321 129.343C145.025 130.71 144.813 132.076 144.448 133.426C144.262 134.109 144.141 134.803 143.971 135.491C143.807 136.164 143.595 136.815 143.415 137.482C143.209 138.255 143.029 139.013 142.949 139.812C142.875 140.548 142.589 141.269 142.446 141.994C142.303 142.719 142.017 143.456 141.911 144.207C141.864 144.557 141.842 144.906 141.763 145.251C141.668 145.632 141.535 145.997 141.445 146.379C141.35 146.797 141.578 147.236 142.001 147.358C142.404 147.469 142.88 147.221 142.981 146.802C143.14 146.114 143.357 145.478 143.436 144.774C143.505 144.154 143.733 143.593 143.871 142.99C144.024 142.296 144.156 141.607 144.342 140.924C144.527 140.241 144.532 139.569 144.702 138.896C145.036 137.567 145.449 136.259 145.729 134.914C145.877 134.199 146.089 133.505 146.248 132.791C146.396 132.129 146.513 131.472 146.629 130.805C146.746 130.138 146.91 129.433 147.095 128.766C147.281 128.099 147.508 127.453 147.667 126.791C147.826 126.129 147.842 125.531 148.091 124.911C148.207 124.615 148.308 124.329 148.361 124.016C148.414 123.704 148.435 123.354 148.52 123.031C148.594 122.729 148.71 122.438 148.811 122.142C148.933 121.771 148.986 121.4 149.028 121.014C149.097 120.362 149.33 119.737 149.484 119.102C149.817 117.709 150.151 116.306 150.543 114.929C150.76 114.167 150.945 113.394 151.173 112.636C151.401 111.879 151.544 111.101 151.75 110.333C152.168 108.76 152.592 107.193 153.016 105.62C153.28 104.63 151.75 104.211 151.485 105.196L151.48 105.191Z" fill="#831E18"/>
<path d="M132.798 113.733C133.131 113.484 133.386 113.14 133.693 112.875C134 112.61 134.312 112.335 134.598 112.044C134.884 111.752 135.25 111.514 135.509 111.202C135.769 110.889 135.986 110.524 136.219 110.185C136.452 109.846 136.589 109.449 136.791 109.089C136.992 108.729 137.283 108.416 137.442 108.035C137.601 107.654 137.633 107.23 137.754 106.833C137.876 106.436 138.088 106.076 138.173 105.668C138.252 105.271 138.263 104.852 138.305 104.434C138.347 104.016 138.374 103.619 138.379 103.2C138.379 102.83 138.369 102.448 138.31 102.083C138.252 101.718 138.178 101.347 138.088 100.987C137.998 100.627 137.913 100.261 137.813 99.9065C137.701 99.52 137.574 99.1281 137.437 98.7469C137.299 98.3656 137.066 98.0161 136.907 97.6507C136.748 97.2853 136.589 96.9041 136.399 96.5493C136.208 96.1945 135.97 95.8662 135.737 95.5326C135.504 95.199 135.329 94.823 135.059 94.5211C134.789 94.2193 134.471 93.9598 134.154 93.7057C133.836 93.4515 133.486 93.2608 133.126 93.0596C132.766 92.8584 132.411 92.7207 132.019 92.583C131.649 92.4506 131.289 92.2494 130.876 92.17C130.537 92.1064 130.182 92.1382 129.843 92.08C129.504 92.0217 129.16 91.9582 128.842 91.8311C128.45 91.6669 128.09 91.4339 127.762 91.1586C127.434 90.8832 127.185 90.539 126.894 90.2372C126.602 89.9406 126.295 89.6653 126.004 89.3687C125.713 89.0722 125.416 88.7809 125.125 88.4897C124.834 88.1984 124.564 87.8807 124.267 87.5895C123.97 87.2982 123.685 86.9964 123.383 86.7157C123.081 86.4351 122.705 86.2286 122.398 85.9532C122.091 85.6778 121.836 85.3336 121.519 85.0689C121.201 84.8041 120.873 84.5446 120.544 84.2905C120.216 84.0363 119.819 83.8774 119.48 83.6391C119.141 83.4008 118.786 83.189 118.432 82.9719C118.077 82.7548 117.748 82.5006 117.378 82.31C117.007 82.1193 116.642 81.9287 116.26 81.7646C115.837 81.5792 115.36 81.4309 114.899 81.3833C114.412 81.3303 113.904 81.3409 113.512 81.6269C113.126 81.9128 113.025 82.4159 112.972 82.8925C112.924 83.3532 112.93 83.8456 113.141 84.2587C113.353 84.6823 113.623 85.0901 113.962 85.4237C114.301 85.7573 114.709 86.0167 115.069 86.3133C115.381 86.5781 115.736 86.8005 116.038 87.0758C116.34 87.3512 116.562 87.7113 116.859 87.9972C117.155 88.2832 117.436 88.5744 117.717 88.871C117.997 89.1675 118.273 89.4693 118.543 89.7765C118.813 90.0836 119.099 90.3801 119.358 90.6979C119.618 91.0156 119.904 91.3121 120.153 91.6404C120.401 91.9688 120.64 92.2971 120.873 92.636C121.106 92.9749 121.312 93.2767 121.529 93.6209C121.116 93.3667 120.698 93.1443 120.232 92.9802C119.766 92.816 119.258 92.6836 118.776 92.6731C118.294 92.6625 117.78 92.779 117.325 92.9961C116.869 93.2132 116.562 93.5944 116.329 94.0181C116.091 94.4523 115.921 94.9448 115.959 95.4055C116.001 95.8926 116.313 96.3216 116.742 96.6128C116.382 96.6711 115.98 96.8299 115.662 97.0206C115.344 97.2112 115.027 97.4177 114.799 97.7037C114.571 97.9896 114.455 98.355 114.354 98.7098C114.211 99.197 114.322 99.7424 114.486 100.261C114.672 100.849 114.889 101.4 114.688 101.792C114.524 102.115 114.2 102.316 113.819 102.47C113.486 102.602 113.083 102.655 112.765 102.856C112.474 103.047 112.241 103.349 112.098 103.756C111.955 104.164 112.003 104.561 112.029 104.969C112.056 105.377 112.077 105.79 112.236 106.176C112.395 106.563 112.612 106.918 112.855 107.241C113.099 107.564 113.353 107.908 113.655 108.183C113.957 108.459 114.343 108.644 114.672 108.888C115 109.131 115.286 109.438 115.625 109.671C115.985 109.92 116.403 110.095 116.769 110.344C117.134 110.593 117.468 110.884 117.828 111.138C118.188 111.392 118.516 111.694 118.876 111.948C119.236 112.202 119.628 112.414 119.988 112.663C120.348 112.912 120.724 113.15 121.095 113.394C121.466 113.637 121.842 113.876 122.223 114.098C122.604 114.321 122.975 114.575 123.372 114.765C123.769 114.956 124.193 115.11 124.611 115.247C125.03 115.385 125.458 115.507 125.898 115.576C126.3 115.639 126.708 115.639 127.111 115.639C127.513 115.639 127.91 115.549 128.313 115.491C128.715 115.433 129.112 115.39 129.504 115.274C129.896 115.157 130.246 114.967 130.616 114.802C130.987 114.638 131.395 114.554 131.744 114.352C132.094 114.151 132.464 113.96 132.787 113.722L132.798 113.733Z" fill="#EBBEA7"/>
<path d="M170.226 76.8393C170.236 77.2841 170.141 77.7289 170.136 78.1685C170.136 78.6133 170.204 79.0581 170.189 79.4976C170.173 79.9424 170.162 80.3872 170.13 80.8267C170.099 81.2663 169.94 81.7005 169.892 82.14C169.85 82.5795 169.844 83.0243 169.786 83.4638C169.728 83.9034 169.686 84.3482 169.617 84.7824C169.543 85.2219 169.384 85.6402 169.294 86.0745C169.204 86.5087 169.161 86.9535 169.066 87.3824C168.971 87.8113 168.944 88.2668 168.828 88.6957C168.748 88.9922 168.658 89.2941 168.817 89.5482C168.976 89.7971 169.251 89.813 169.527 89.8395C169.956 89.8818 170.379 89.9136 170.808 89.9454C171.237 89.9772 171.661 90.0407 172.09 90.0672C172.519 90.0937 172.942 90.136 173.371 90.1519C173.8 90.1678 174.229 90.1519 174.658 90.1625C175.087 90.1731 175.516 90.1731 175.945 90.1784C176.374 90.1837 176.803 90.2896 177.231 90.2843C177.66 90.279 178.089 90.1943 178.518 90.1837C178.947 90.1731 179.376 90.2366 179.805 90.2207C180.234 90.2049 180.658 90.1413 181.087 90.1148C181.515 90.0884 181.939 90.046 182.368 90.0089C182.797 89.9719 183.221 89.9083 183.644 89.866C184.068 89.8236 184.497 89.76 184.92 89.7124C185.344 89.6647 185.789 89.723 186.212 89.6647C186.636 89.6065 187.054 89.4847 187.478 89.4211C187.61 89.4 187.759 89.3788 187.854 89.2835C188.008 89.1246 188.008 88.844 187.971 88.6215C187.907 88.1979 187.88 87.7743 187.822 87.3506C187.764 86.927 187.647 86.514 187.6 86.0903C187.552 85.6667 187.441 85.2484 187.399 84.8248C187.356 84.4011 187.436 83.9616 187.399 83.538C187.362 83.1143 187.229 82.696 187.197 82.2671C187.166 81.8382 187.123 81.4145 187.102 80.9909C187.081 80.5673 187.081 80.1383 187.065 79.7094C187.049 79.2805 187.118 78.8516 187.107 78.4279C187.097 78.0043 187.107 77.5754 187.107 77.1464C187.107 76.7175 186.959 76.2939 186.964 75.865C186.97 75.436 187.017 75.0124 187.028 74.5835C187.039 74.1545 187.081 73.7309 187.091 73.302C187.102 72.8731 187.081 72.4494 187.102 72.0205" fill="#EBBEA7"/>
<path d="M152.804 64.8353C152.931 64.9253 152.994 65.1 153.079 65.2377C153.317 65.619 153.317 66.0956 153.317 66.551C153.317 66.9693 153.317 67.3876 153.36 67.806C153.402 68.2243 153.407 68.6479 153.492 69.061C153.577 69.4687 153.773 69.8553 153.895 70.2577C154.011 70.6602 154.054 71.0891 154.207 71.481C154.361 71.8728 154.509 72.27 154.694 72.646C154.88 73.0219 155.181 73.3344 155.393 73.6997C155.605 74.0651 155.711 74.4941 155.944 74.8383C156.182 75.1877 156.489 75.4843 156.749 75.8126C157.008 76.1409 157.31 76.4375 157.591 76.7446C157.877 77.057 158.115 77.4118 158.422 77.6925C158.74 77.9837 159.084 78.2432 159.412 78.5027C159.741 78.7621 160.074 79.0587 160.424 79.2917C160.773 79.5247 161.192 79.6782 161.562 79.8848C161.933 80.0913 162.33 80.2554 162.717 80.4302C163.103 80.6049 163.458 80.8697 163.861 81.0127C164.263 81.1556 164.697 81.198 165.105 81.3198C165.513 81.4416 165.931 81.5051 166.349 81.5952C166.768 81.6852 167.16 81.8811 167.583 81.9447C168.007 82.0082 168.425 82.0718 168.854 82.1141C169.283 82.1565 169.712 82.0665 170.136 82.0929C170.559 82.1194 170.978 82.2518 171.406 82.2624C171.835 82.273 172.259 82.273 172.688 82.2624C173.117 82.2518 173.541 82.2624 173.969 82.2465C174.398 82.2306 174.822 82.1988 175.246 82.1724C175.669 82.1459 176.093 82.0506 176.517 82.0188C176.94 81.987 177.364 81.9288 177.787 81.8864C178.211 81.844 178.64 81.807 179.064 81.7646C179.487 81.7223 179.911 81.6693 180.335 81.6216C180.758 81.574 181.187 81.5528 181.605 81.5104C182.034 81.4628 182.463 81.4204 182.887 81.3675C183.311 81.3145 183.734 81.2192 184.158 81.1451C184.581 81.0709 185.005 81.0074 185.423 80.9015C185.842 80.7956 186.239 80.6367 186.647 80.4937C187.023 80.3666 187.383 80.2078 187.743 80.0489C188.103 79.89 188.479 79.7577 188.823 79.567C189.167 79.3764 189.517 79.1911 189.856 78.9792C190.195 78.7674 190.549 78.5927 190.878 78.365C191.206 78.1373 191.502 77.8725 191.815 77.6342C192.127 77.3959 192.408 77.11 192.715 76.8611C193.022 76.6122 193.393 76.4375 193.695 76.1833C194.023 75.9132 194.336 75.6273 194.648 75.3413C194.96 75.0554 195.188 74.6847 195.485 74.3829C195.781 74.081 196.136 73.8321 196.417 73.5197C196.697 73.2073 196.941 72.8578 197.206 72.5242C197.47 72.1906 197.756 71.8834 198.005 71.5392C198.254 71.195 198.461 70.8244 198.694 70.4696C198.927 70.1148 199.16 69.7653 199.377 69.4052C199.594 69.0451 199.864 68.7062 200.065 68.3355C200.266 67.9648 200.372 67.5412 200.552 67.1599C200.732 66.7787 200.912 66.3974 201.082 66.0108C201.251 65.6243 201.447 65.2483 201.601 64.8512C201.754 64.454 201.813 64.0304 201.945 63.6279C202.077 63.2255 202.204 62.8283 202.321 62.4206C202.437 62.0128 202.649 61.6316 202.75 61.2238C202.85 60.8161 202.866 60.3818 202.951 59.9688C203.036 59.5558 203.205 59.1533 203.274 58.7403C203.343 58.3219 203.295 57.8877 203.343 57.4694C203.391 57.0511 203.412 56.6274 203.449 56.2091C203.486 55.7907 203.549 55.3671 203.565 54.9488C203.581 54.5252 203.592 54.1068 203.587 53.6832C203.581 53.2596 203.639 52.8359 203.618 52.4123C203.597 51.9887 203.449 51.5756 203.407 51.1573C203.364 50.7337 203.369 50.31 203.301 49.897C203.232 49.4839 203.094 49.0762 203.004 48.6685C202.914 48.2607 202.856 47.8371 202.745 47.4293C202.633 47.0216 202.596 46.5874 202.459 46.1902C202.321 45.7931 202.099 45.4224 201.94 45.0305C201.781 44.6387 201.675 44.2256 201.5 43.8391C201.32 43.4578 201.024 43.1348 200.828 42.7588C200.632 42.3881 200.415 42.028 200.197 41.668C199.98 41.3079 199.79 40.9319 199.551 40.5824C199.313 40.2329 199.07 39.894 198.815 39.5551C198.561 39.2162 198.355 38.8455 198.085 38.5172C197.815 38.1889 197.566 37.85 197.28 37.5375C196.994 37.2251 196.65 36.9709 196.353 36.6691C196.057 36.3673 195.718 36.1184 195.405 35.8324C195.093 35.5465 194.78 35.2711 194.452 35.0011C194.124 34.731 193.801 34.4662 193.462 34.2173C193.123 33.9685 192.816 33.6719 192.466 33.4336C192.117 33.1953 191.757 32.9729 191.397 32.7505C191.036 32.5281 190.666 32.3322 190.295 32.1257C189.924 31.9191 189.559 31.7126 189.178 31.5273C188.797 31.3419 188.383 31.2413 187.997 31.0666C187.61 30.8918 187.245 30.6853 186.853 30.5318C186.461 30.3782 186.075 30.2087 185.672 30.0711C185.27 29.9334 184.867 29.8169 184.465 29.6951C184.062 29.5733 183.644 29.4992 183.236 29.3985C182.829 29.2979 182.421 29.1867 182.003 29.1073C181.584 29.0279 181.182 28.9114 180.763 28.8478C180.345 28.7843 179.927 28.7207 179.508 28.6784C179.09 28.636 178.666 28.5778 178.248 28.5513C177.819 28.5248 177.385 28.5407 176.951 28.5354C176.517 28.5301 176.093 28.6148 175.659 28.636C175.224 28.6572 174.796 28.6201 174.367 28.6625C173.938 28.7048 173.509 28.7419 173.08 28.8002C172.651 28.8584 172.233 28.9643 171.809 29.049C171.385 29.1338 170.983 29.2926 170.565 29.3932C170.146 29.4939 169.733 29.6104 169.32 29.7374C168.907 29.8645 168.489 29.9599 168.086 30.1028C167.684 30.2458 167.244 30.3093 166.847 30.4788C166.45 30.6483 166.079 30.8707 165.687 31.056C165.296 31.2413 164.898 31.4055 164.517 31.612C164.136 31.8185 163.813 32.1151 163.448 32.3428C163.082 32.5705 162.669 32.7293 162.32 32.9782C161.97 33.2271 161.621 33.4866 161.282 33.7566C160.943 34.0267 160.667 34.3656 160.35 34.6516C160.032 34.9428 159.661 35.1811 159.359 35.4882C159.058 35.7954 158.777 36.129 158.502 36.4626C158.232 36.7856 158.014 37.151 157.776 37.4899C157.538 37.8288 157.353 38.2101 157.135 38.5649C156.918 38.9196 156.669 39.2638 156.484 39.6345C156.299 40.0052 156.055 40.36 155.891 40.7413C155.727 41.1278 155.653 41.5462 155.515 41.9433C155.377 42.3405 155.144 42.7006 155.028 43.103C154.911 43.5055 154.805 43.9132 154.71 44.3209C154.61 44.7287 154.572 45.147 154.493 45.5601C154.414 45.9678 154.355 46.3861 154.292 46.7992C154.228 47.2122 154.223 47.6306 154.17 48.0489C154.117 48.4672 153.974 48.8697 153.932 49.2827C153.889 49.6958 153.932 50.1247 153.905 50.5377C153.873 50.9561 153.858 51.3744 153.831 51.7874C153.805 52.2005 153.656 52.6135 153.635 53.0319C153.614 53.4502 153.635 53.8738 153.614 54.2869C153.593 54.6999 153.598 55.1235 153.572 55.5419C153.545 55.9602 153.439 56.3732 153.418 56.7863C153.397 57.1993 153.418 57.6071 153.392 58.0201C153.01 57.9407 152.624 57.9407 152.232 57.9301C151.84 57.9195 151.459 57.9672 151.109 58.1631C150.649 58.4226 150.4 58.8356 150.23 59.3334C150.071 59.8152 150.034 60.3289 150.055 60.832C150.071 61.2821 150.108 61.7375 150.225 62.177C150.347 62.6271 150.511 63.0507 150.76 63.4214C151.009 63.7921 151.353 64.0833 151.761 64.3057C152.1 64.4911 152.502 64.6076 152.809 64.8247L152.804 64.8353Z" fill="#EBBEA7"/>
<path d="M153.286 57.9674C152.544 57.5491 151.512 57.6179 150.802 58.0839C149.966 58.6347 149.759 59.5666 149.717 60.5039C149.674 61.5153 149.907 62.4897 150.532 63.2999C151.157 64.1101 152.01 64.5867 153.005 64.7932C153.423 64.8832 153.863 64.6714 153.985 64.2372C154.091 63.84 153.852 63.3475 153.429 63.2575C152.724 63.1093 152.306 62.9239 151.829 62.3891C151.713 62.262 151.512 61.9072 151.454 61.7325C151.337 61.383 151.295 61.15 151.295 60.7899C151.295 60.6204 151.305 60.451 151.316 60.2815C151.316 60.2074 151.326 60.1332 151.337 60.0591C151.321 60.1756 151.337 60.0591 151.348 60.0062C151.363 59.932 151.379 59.8579 151.401 59.7838C151.416 59.7414 151.459 59.6196 151.416 59.7202C151.448 59.6514 151.485 59.5825 151.528 59.519C151.454 59.6249 151.602 59.4448 151.607 59.4395C151.522 59.5349 151.581 59.4554 151.655 59.4131C151.671 59.4025 151.835 59.3231 151.745 59.3601C151.665 59.3972 151.861 59.323 151.888 59.3178C151.946 59.3019 152.004 59.286 152.068 59.2754C151.904 59.3072 152.126 59.2754 152.147 59.2754C152.221 59.2754 152.29 59.2754 152.364 59.2807C152.227 59.2701 152.364 59.2913 152.428 59.3072C152.587 59.3442 152.333 59.2489 152.481 59.3336C152.851 59.5455 153.349 59.4237 153.566 59.0477C153.783 58.6717 153.656 58.174 153.28 57.9621L153.286 57.9674Z" fill="#A55535"/>
<path d="M162.325 60.6039C163.158 60.6039 163.834 59.5702 163.834 58.2951C163.834 57.02 163.158 55.9863 162.325 55.9863C161.491 55.9863 160.816 57.02 160.816 58.2951C160.816 59.5702 161.491 60.6039 162.325 60.6039Z" fill="#2B2927"/>
<path d="M160.705 50.7388C161.229 50.8235 161.605 50.8076 162.06 50.9665C162.489 51.1148 162.929 51.3213 163.352 51.5437C163.776 51.7661 164.152 52.0044 164.528 52.2903C164.904 52.5763 165.264 52.7987 165.555 53.0582C165.878 53.3388 166.36 53.3759 166.678 53.0582C166.964 52.7722 167.001 52.2162 166.678 51.9356C166.286 51.5914 165.852 51.3107 165.433 51.0036C165.015 50.6964 164.607 50.4211 164.147 50.1775C163.654 49.918 163.135 49.6903 162.616 49.4944C162.357 49.3938 162.108 49.3302 161.832 49.2932C161.69 49.272 161.552 49.2561 161.409 49.2455C161.266 49.2349 161.208 49.2296 161.123 49.2137C160.715 49.1449 160.249 49.3196 160.143 49.7697C160.059 50.151 160.26 50.6752 160.699 50.7494L160.705 50.7388Z" fill="#2B2927"/>
<path d="M162.743 71.0629C162.208 71.1 161.674 71.1953 161.144 71.2747C160.715 71.3436 160.212 71.3859 159.82 71.2747C159.651 71.2271 159.746 71.243 159.778 71.2589C159.73 71.2324 159.683 71.2059 159.635 71.1741C159.72 71.2324 159.614 71.1529 159.603 71.1424C159.566 71.1053 159.524 71.0629 159.487 71.0259C159.476 71.0153 159.397 70.9094 159.455 70.9888C159.423 70.9411 159.391 70.8935 159.365 70.8458C159.296 70.7346 159.291 70.7293 159.264 70.6393C159.195 70.4116 159.148 70.1786 159.084 69.9509C159.052 69.8291 159.01 69.7126 158.984 69.5908C158.973 69.5326 158.957 69.4796 158.952 69.4214C158.968 69.5326 158.957 69.4108 158.952 69.3631C158.952 69.326 158.952 69.2943 158.952 69.2572C158.962 69.3949 158.931 69.3313 158.952 69.2731C159.01 69.1354 158.946 69.2731 158.936 69.2943C158.957 69.2572 158.973 69.2254 158.999 69.1937C158.862 69.4002 158.999 69.2042 158.999 69.2201C158.999 69.199 159.137 69.1301 158.999 69.2201C159.042 69.1937 159.084 69.1672 159.127 69.146C159.142 69.1354 159.312 69.056 159.243 69.0877C159.338 69.0454 159.624 68.9712 159.804 68.9342C160.027 68.8918 160.239 68.8812 160.509 68.8812C160.758 68.8812 161.001 68.8865 161.245 68.8971C161.536 68.9077 161.621 68.9077 161.885 68.9818C162.108 69.0454 162.193 69.0825 162.383 69.1831C162.452 69.2201 162.521 69.2572 162.59 69.2943C162.627 69.3154 162.659 69.3366 162.696 69.3578C162.823 69.4267 162.648 69.3049 162.712 69.3684C162.743 69.4002 162.775 69.4267 162.807 69.4584C162.854 69.5061 162.892 69.5749 162.839 69.4849C162.865 69.5273 162.892 69.5696 162.913 69.612C162.86 69.5167 162.923 69.6438 162.939 69.6861C162.987 69.8132 162.939 69.5802 162.955 69.7179C162.96 69.792 162.955 69.8609 162.955 69.935C162.95 70.078 162.939 70.1045 162.923 70.2315C162.897 70.4328 162.897 70.4645 162.86 70.634C162.849 70.687 162.828 70.7399 162.812 70.7982L162.786 70.8723C162.812 70.814 162.812 70.8087 162.786 70.8564C162.764 70.8988 162.738 70.9411 162.712 70.9835C162.68 71.0312 162.685 71.0206 162.733 70.957L162.669 71.0259C162.669 71.0259 162.547 71.1424 162.547 71.1371C162.526 71.0841 162.733 71.0682 162.738 71.0682C162.314 71.1212 161.944 71.3965 161.944 71.8625C161.944 72.2491 162.309 72.7098 162.738 72.6568C163.511 72.5615 164.051 72.0108 164.311 71.2906C164.422 70.9835 164.443 70.6817 164.48 70.4169C164.533 70.0197 164.581 69.612 164.454 69.2201C164.051 67.9863 162.637 67.3773 161.43 67.3138C160.715 67.2767 159.99 67.2714 159.291 67.425C158.666 67.5627 157.993 67.8486 157.628 68.4046C157.263 68.9607 157.331 69.6173 157.501 70.2051C157.697 70.8935 157.84 71.5289 158.311 72.0902C158.841 72.7257 159.645 72.9587 160.45 72.9375C160.89 72.9269 161.329 72.8528 161.764 72.7839C162.145 72.7204 162.373 72.6833 162.738 72.6568C163.167 72.6304 163.532 72.3126 163.532 71.8625C163.532 71.4548 163.167 71.0417 162.738 71.0682L162.743 71.0629Z" fill="#A55535"/>
<path d="M165.65 65.624C166.731 67.0008 167.493 68.5577 168.182 70.1516C168.521 70.9406 168.669 71.7773 168.754 72.6245C168.796 73.0746 168.923 73.5036 168.981 73.9484C169.04 74.3773 169.055 74.8168 169.055 75.2458C169.055 75.9289 170.12 75.9289 170.114 75.2458C170.114 74.7586 170.083 74.2661 170.019 73.7842C169.961 73.3553 169.834 72.937 169.802 72.5027C169.723 71.5443 169.527 70.6123 169.145 69.7227C168.78 68.8754 168.431 68.0281 167.97 67.2285C167.504 66.413 166.985 65.6134 166.402 64.8721C166.228 64.6444 165.841 64.6868 165.656 64.8721C165.433 65.0945 165.481 65.3963 165.656 65.6187L165.65 65.624Z" fill="#BC7F6C"/>
<path d="M167.313 57.8237C167.949 57.8237 168.579 57.8767 169.209 57.8767C169.484 57.8767 169.749 57.6331 169.739 57.3471C169.728 57.0612 169.506 56.8176 169.209 56.8176C168.574 56.8176 167.943 56.7646 167.313 56.7646C167.038 56.7646 166.773 57.0082 166.784 57.2942C166.794 57.5801 167.017 57.8237 167.313 57.8237Z" fill="#BC7F6C"/>
<path d="M167.048 60.143C167.599 60.2119 168.155 60.2119 168.706 60.2807C168.833 60.2966 168.997 60.2119 169.082 60.1272C169.172 60.0371 169.241 59.8836 169.235 59.7512C169.23 59.6188 169.182 59.4705 169.082 59.3752C168.971 59.2746 168.854 59.2375 168.706 59.2216C168.155 59.1528 167.599 59.1528 167.048 59.084C166.921 59.0681 166.757 59.1528 166.672 59.2375C166.582 59.3276 166.514 59.4811 166.519 59.6135C166.524 59.7459 166.572 59.8942 166.672 59.9895C166.784 60.0901 166.9 60.1272 167.048 60.143Z" fill="#BC7F6C"/>
<path d="M190.533 58.5072C190.316 58.1259 190.073 57.7658 189.792 57.4322C189.511 57.0986 189.21 56.7861 188.881 56.4949C188.553 56.2037 188.23 55.9177 187.875 55.6635C187.52 55.4093 187.097 55.277 186.726 55.0387C186.355 54.8004 186.001 54.5674 185.625 54.3503C185.249 54.1332 184.899 53.8684 184.529 53.646C184.158 53.4236 183.761 53.2329 183.395 52.9999C183.03 52.767 182.633 52.5604 182.289 52.3115C181.944 52.0627 181.579 51.7926 181.256 51.5066C180.938 51.226 180.658 50.8977 180.345 50.6117C180.033 50.3258 179.747 50.0081 179.44 49.7115C179.133 49.415 178.783 49.1661 178.486 48.859C178.19 48.5518 177.989 48.16 177.708 47.8422C177.427 47.5245 177.051 47.2809 176.787 46.9473C176.522 46.6137 176.268 46.2642 176.019 45.92C175.77 45.5758 175.51 45.2316 175.283 44.8715C175.055 44.5114 174.859 44.1249 174.658 43.7542C174.457 43.3835 174.356 42.9546 174.187 42.5627C174.017 42.1709 173.816 41.8002 173.673 41.3978C173.535 40.9953 173.398 40.5399 173.297 40.1216C173.038 40.4764 172.736 40.8682 172.46 41.2177C172.185 41.5672 171.91 41.9114 171.624 42.245C171.338 42.5786 171.105 42.9758 170.803 43.2935C170.501 43.6112 170.125 43.876 169.807 44.1778C169.49 44.4797 169.114 44.7286 168.769 45.0092C168.425 45.2899 168.129 45.6341 167.769 45.8829C167.409 46.1318 166.985 46.3066 166.598 46.5184C166.212 46.7302 165.846 47.0003 165.439 47.1697C165.031 47.3392 164.581 47.3868 164.152 47.5086C163.723 47.6304 163.315 47.7734 162.87 47.8369C162.505 47.8899 162.129 47.9111 161.753 47.9058C161.377 47.9005 161.001 47.8528 160.641 47.7734C160.281 47.694 159.931 47.5351 159.614 47.3498C159.296 47.1644 158.973 46.9261 158.74 46.619C158.555 47.0109 158.327 47.408 158.115 47.784C157.903 48.16 157.718 48.5518 157.474 48.9119C157.231 49.272 156.945 49.595 156.675 49.9339C156.405 50.2728 156.113 50.5853 155.817 50.903C155.552 51.1889 155.25 51.4484 154.943 51.7079C154.636 51.9673 154.34 52.2215 154.006 52.4386C153.672 52.6557 153.312 52.8199 152.947 52.9682C152.581 53.1164 152.205 53.2435 151.814 53.2912C151.422 53.3389 151.046 53.3124 150.643 53.2435C150.167 53.1588 149.722 53.1217 149.372 52.9152C148.981 52.6822 148.716 52.3168 148.472 51.9621C148.229 51.6073 147.964 51.2472 147.842 50.8077C147.731 50.4052 147.779 49.9445 147.752 49.4891C147.726 49.0655 147.636 48.626 147.673 48.1759C147.71 47.7257 147.832 47.318 147.906 46.8785C147.98 46.4443 148.107 46.0259 148.213 45.6023C148.319 45.1787 148.425 44.7391 148.552 44.3367C148.695 43.8972 148.763 43.4524 148.912 43.0711C149.092 42.6104 149.256 42.1921 149.42 41.8585C149.605 41.4825 149.828 41.1224 150.034 40.7517C150.236 40.381 150.432 40.0051 150.649 39.645C150.866 39.2849 151.104 38.9354 151.337 38.5859C151.57 38.2364 151.877 37.9346 152.126 37.5957C152.375 37.2568 152.645 36.9337 152.904 36.6054C153.164 36.2771 153.344 35.88 153.619 35.5622C153.895 35.2445 154.207 34.9586 154.498 34.6514C154.784 34.3443 155.06 34.0213 155.362 33.73C155.663 33.4388 156.018 33.2005 156.331 32.9198C156.643 32.6392 156.897 32.2897 157.226 32.0196C157.549 31.7496 157.925 31.543 158.258 31.2889C158.592 31.0347 158.92 30.7646 159.264 30.5263C159.608 30.288 160.016 30.1345 160.371 29.9121C160.731 29.6844 161.038 29.3613 161.409 29.1495C161.78 28.9377 162.166 28.7471 162.547 28.5511C162.929 28.3552 163.315 28.1699 163.702 27.9951C164.088 27.8204 164.507 27.7092 164.904 27.5503C165.301 27.3915 165.714 27.275 166.116 27.132C166.519 26.989 166.927 26.8672 167.334 26.7454C167.742 26.6236 168.129 26.4118 168.542 26.3059C168.955 26.2 169.378 26.1206 169.797 26.0305C170.215 25.9405 170.644 25.9088 171.068 25.8399C171.491 25.7711 171.915 25.7181 172.339 25.6652C172.762 25.6122 173.191 25.5963 173.615 25.5646C174.038 25.5328 174.467 25.5169 174.891 25.501C175.315 25.4851 175.743 25.4481 176.167 25.4481C176.591 25.4481 177.025 25.3845 177.449 25.4057C177.872 25.4269 178.296 25.5593 178.719 25.5963C179.143 25.6334 179.567 25.7075 179.985 25.7658C180.403 25.824 180.832 25.8611 181.251 25.9405C181.685 26.02 182.114 26.0729 182.527 26.1841C182.94 26.2953 183.353 26.4648 183.761 26.6024C184.168 26.7401 184.587 26.8725 184.989 27.0261C185.392 27.1796 185.773 27.4073 186.17 27.5715C186.567 27.7357 187.001 27.831 187.404 27.9951C187.806 28.1593 188.188 28.3764 188.595 28.53C189.003 28.6835 189.411 28.8212 189.829 28.9536C190.248 29.086 190.655 29.2237 191.079 29.3243C191.503 29.4249 191.931 29.4831 192.366 29.5414C192.8 29.5996 193.224 29.6526 193.663 29.6738C194.103 29.695 194.537 29.6791 194.955 29.7532C195.373 29.8273 195.802 29.9279 196.215 30.055C196.628 30.1821 197.042 30.3145 197.439 30.484C197.836 30.6534 198.228 30.8388 198.604 31.0559C198.98 31.273 199.319 31.5377 199.668 31.7919C200.018 32.0461 200.356 32.3109 200.685 32.5915C201.013 32.8722 201.336 33.1634 201.638 33.4706C201.94 33.7777 202.189 34.1378 202.464 34.4661C202.739 34.7944 203.084 35.0804 203.338 35.4246C203.592 35.7688 203.761 36.1818 204 36.5419C204.238 36.902 204.519 37.2409 204.736 37.6116C204.953 37.9875 205.154 38.3688 205.355 38.7501C205.557 39.1366 205.662 39.5656 205.842 39.9521C206.022 40.3334 206.197 40.7147 206.367 41.0959C206.536 41.4825 206.774 41.8373 206.933 42.2238C207.092 42.6157 207.251 43.0023 207.405 43.3941C207.558 43.786 207.643 44.2043 207.786 44.5962C207.929 44.988 208.056 45.3905 208.199 45.7876C208.342 46.1848 208.522 46.5661 208.665 46.9632C208.808 47.3604 208.946 47.7575 209.083 48.1494C209.221 48.5412 209.443 48.9119 209.586 49.3091C209.729 49.7062 209.782 50.1298 209.93 50.527C210.079 50.9242 210.227 51.316 210.375 51.7026C210.524 52.0891 210.772 52.4492 210.937 52.8358C211.095 53.2224 211.265 53.6036 211.44 53.9902C211.614 54.3767 211.71 54.7898 211.895 55.1658C212.075 55.5417 212.329 55.8859 212.525 56.2566C212.721 56.6273 212.816 57.0509 213.028 57.4163C213.24 57.7817 213.542 58.0835 213.77 58.4436C213.997 58.8037 214.193 59.1638 214.437 59.5133C214.675 59.8575 214.94 60.1858 215.184 60.5247C215.427 60.8636 215.671 61.2078 215.92 61.5467C216.168 61.8856 216.38 62.251 216.624 62.5952C216.867 62.9394 217.111 63.2783 217.339 63.6331C217.566 63.9879 217.868 64.295 218.075 64.6604C218.281 65.0258 218.35 65.4653 218.53 65.8466C218.71 66.2278 218.896 66.5985 219.033 66.9957C219.171 67.3928 219.383 67.7741 219.473 68.1818C219.563 68.5949 219.51 69.0291 219.547 69.4421C219.584 69.8658 219.706 70.2841 219.674 70.7024C219.642 71.1208 219.536 71.5391 219.436 71.9468C219.335 72.3546 219.213 72.7676 219.028 73.1436C218.843 73.5196 218.504 73.7896 218.228 74.1074C217.953 74.4251 217.704 74.7534 217.365 74.997C217.026 75.2406 216.661 75.4524 216.28 75.6112C215.898 75.7701 215.491 75.8972 215.083 75.9554C214.675 76.0137 214.236 76.0614 213.828 75.9978C213.42 75.9343 213.012 75.6907 212.642 75.4842C212.573 75.876 212.478 76.2996 212.345 76.665C212.208 77.0357 212.102 77.4223 211.906 77.7559C211.71 78.0895 211.381 78.3437 211.127 78.6349C210.873 78.9262 210.661 79.2704 210.354 79.5192C210.047 79.7681 209.703 79.9482 209.359 80.1388C209.014 80.3294 208.654 80.4565 208.278 80.5836C207.881 80.7213 207.495 80.8749 207.087 80.9543C206.679 81.0337 206.261 81.0337 205.842 81.0443C205.424 81.0549 205.022 81.0284 204.603 80.9596C204.492 80.9384 204.026 80.9066 203.512 80.7372C203.168 80.626 202.798 80.4671 202.475 80.3294C201.945 80.1123 201.574 79.8476 201.633 79.6834C201.474 80.1017 201.262 80.5095 200.992 80.8696C200.722 81.2297 200.378 81.5262 200.023 81.8016C199.668 82.0769 199.308 82.3787 198.895 82.5482C198.482 82.7177 198.021 82.8342 197.576 82.8818C197.132 82.9295 196.681 82.7971 196.237 82.7124C195.792 82.6276 195.358 82.5429 194.95 82.347C194.542 82.1511 194.182 81.881 193.843 81.5897C193.504 81.2985 193.202 80.9278 192.959 80.5465C192.652 80.7742 192.329 81.0602 191.984 81.2349C191.64 81.4097 191.285 81.5791 190.92 81.6798C190.555 81.7804 190.163 81.7698 189.776 81.7751C189.39 81.7804 189.014 81.7433 188.654 81.6215C188.294 81.4997 187.981 81.272 187.69 81.0337C187.399 80.7954 187.097 80.5518 186.927 80.2023C186.71 79.7522 186.694 79.2862 186.721 78.815C186.747 78.3437 186.79 77.883 186.964 77.4223C187.129 76.988 187.34 76.5538 187.568 76.1249C187.796 75.7013 188.013 75.267 188.23 74.8646C188.431 74.4939 188.67 74.1497 188.839 73.7685C189.008 73.3872 189.183 73.0006 189.331 72.6141C189.48 72.2222 189.654 71.8356 189.776 71.4385C189.898 71.0413 189.914 70.6071 190.015 70.1994C190.115 69.7916 190.279 69.3998 190.369 68.992C190.459 68.5843 190.56 68.1765 190.634 67.7635C190.708 67.3504 190.772 66.9374 190.841 66.5244C190.909 66.1113 190.957 65.693 191.021 65.2799C191.095 64.8087 191.158 64.348 191.227 63.8979C191.296 63.4266 191.296 62.9659 191.328 62.5105C191.36 62.0551 191.381 61.5891 191.338 61.1231C191.296 60.6571 191.301 60.1964 191.158 59.7357C191.026 59.3173 190.793 58.9096 190.544 58.4754L190.533 58.5072Z" fill="#97928C"/>
<path d="M186.79 44.4369C187.992 48.9274 189.739 53.2749 191.969 57.3524C192.599 58.5068 193.271 59.6347 193.981 60.7414C194.214 61.1015 194.685 61.2498 195.066 61.0274C195.426 60.8156 195.585 60.3019 195.352 59.9418C192.911 56.1239 190.92 52.0252 189.453 47.7307C189.035 46.5074 188.659 45.2683 188.325 44.0186C188.061 43.0337 186.53 43.452 186.795 44.4422L186.79 44.4369Z" fill="#7C7670"/>
<path d="M195.305 44.9187C195.543 50.0765 196.067 55.2183 196.867 60.3177C196.936 60.7414 197.465 60.9744 197.846 60.8737C198.296 60.7519 198.466 60.323 198.402 59.8941C197.624 54.9323 197.126 49.9335 196.893 44.9134C196.872 44.4845 196.544 44.1191 196.099 44.1191C195.686 44.1191 195.283 44.4845 195.305 44.9134V44.9187Z" fill="#7C7670"/>
<path d="M195.898 68.8756C195.606 69.188 195.289 69.4845 194.955 69.7599C194.637 70.0247 194.246 70.2365 193.848 70.4536C193.478 70.6548 193.065 70.7978 192.646 70.9514C192.228 71.1049 191.826 71.1896 191.397 71.2903C190.968 71.3909 190.56 71.4915 190.126 71.5391C189.691 71.5868 189.263 71.6503 188.828 71.645C188.394 71.6398 187.96 71.5656 187.536 71.5074C187.113 71.4491 186.684 71.3379 186.281 71.2108C185.858 71.0784 185.413 71.0043 185.047 70.7925C184.682 70.5807 184.359 70.2524 184.062 69.9452C183.766 69.6381 183.512 69.2939 183.321 68.8914C183.146 68.5208 183.035 68.1077 182.966 67.6523C182.908 67.2552 182.876 66.8262 182.913 66.3603C182.945 65.9525 183.009 65.5183 183.088 65.0576C183.157 64.6445 183.194 64.1997 183.3 63.7602C183.395 63.3472 183.533 62.9235 183.66 62.4946C183.787 62.0657 183.856 61.6421 184.004 61.2184C184.152 60.7948 184.386 60.4241 184.55 60.0164C184.714 59.6086 184.91 59.2168 185.095 58.8196C185.28 58.4225 185.513 58.0465 185.725 57.6652C185.937 57.284 186.085 56.8497 186.318 56.4897C186.551 56.1296 186.827 55.7642 187.091 55.4253C187.356 55.0864 187.632 54.7157 187.928 54.4086C188.225 54.1014 188.638 53.8684 188.971 53.5984C189.321 53.3177 189.612 52.9576 189.988 52.7511C190.364 52.5446 190.819 52.4334 191.238 52.3169C191.656 52.1951 192.09 52.1792 192.525 52.1527C192.959 52.1263 193.382 52.1421 193.811 52.211C194.24 52.2798 194.685 52.2957 195.093 52.4493C195.501 52.6028 195.871 52.8464 196.231 53.0847C196.618 53.3442 196.951 53.6619 197.274 53.9955C197.597 54.3291 197.873 54.6945 198.122 55.0917C198.371 55.4888 198.63 55.8701 198.805 56.3043C198.98 56.7332 199.096 57.1886 199.197 57.644C199.297 58.0994 199.271 58.5654 199.303 59.0314C199.334 59.4974 199.329 59.9475 199.303 60.4135C199.271 60.8742 199.334 61.3508 199.255 61.8062C199.176 62.2616 198.974 62.6958 198.852 63.1407C198.741 63.559 198.71 64.0038 198.561 64.4168C198.413 64.8299 198.212 65.2164 198.026 65.6083C197.841 66.0002 197.645 66.392 197.423 66.768C197.2 67.144 196.93 67.4882 196.676 67.8324C196.422 68.1766 196.2 68.5684 195.903 68.8861L195.898 68.8756Z" fill="#EBBEA7"/>
<path d="M194.606 59.6456C194.05 59.8203 193.531 60.0851 192.959 60.2122C192.419 60.334 191.905 60.4293 191.391 60.6358C190.269 61.0753 189.098 61.3401 187.949 61.679C186.97 61.9649 187.388 63.5006 188.373 63.2094C189.527 62.8705 190.692 62.6057 191.815 62.1662C192.329 61.9649 192.848 61.8643 193.382 61.7425C193.954 61.6154 194.473 61.356 195.029 61.1759C195.437 61.0488 195.702 60.6252 195.585 60.1963C195.474 59.7938 195.019 59.5132 194.606 59.6403V59.6456Z" fill="#A55535"/>
<path d="M189.22 109.476C188.977 109.836 188.648 110.132 188.384 110.476C188.119 110.821 187.891 111.197 187.605 111.525C187.319 111.853 186.964 112.118 186.663 112.425C186.361 112.732 186.117 113.108 185.799 113.405C185.482 113.701 185.116 113.945 184.783 114.22C184.449 114.496 184.158 114.835 183.808 115.089C183.459 115.343 183.035 115.497 182.67 115.735C182.304 115.973 181.966 116.243 181.59 116.455C181.214 116.667 180.838 116.889 180.451 117.085C180.064 117.281 179.662 117.451 179.265 117.625C178.868 117.8 178.465 117.959 178.058 118.107C177.65 118.255 177.216 118.319 176.803 118.446C176.389 118.573 175.976 118.706 175.553 118.806C175.129 118.907 174.732 119.119 174.303 119.193C173.874 119.267 173.435 119.277 173.006 119.33C172.577 119.383 172.137 119.33 171.703 119.352C171.269 119.373 170.84 119.431 170.406 119.431C169.971 119.431 169.537 119.468 169.103 119.447C168.669 119.426 168.245 119.32 167.811 119.272C167.377 119.224 166.943 119.214 166.519 119.145C166.095 119.076 165.666 118.986 165.243 118.891C164.819 118.796 164.406 118.674 163.988 118.557C163.569 118.441 163.172 118.277 162.759 118.134C162.346 117.991 161.912 117.927 161.509 117.763C161.107 117.599 160.705 117.435 160.313 117.249C159.921 117.064 159.555 116.82 159.174 116.609C158.793 116.397 158.428 116.164 158.057 115.931C157.686 115.698 157.294 115.507 156.934 115.258C156.574 115.009 156.209 114.771 155.865 114.506C155.52 114.242 155.181 113.966 154.843 113.685C154.504 113.405 154.223 113.071 153.895 112.785C153.566 112.499 153.227 112.224 152.904 111.933C152.581 111.641 152.216 111.393 151.904 111.096C151.586 110.794 151.284 110.482 150.972 110.18C150.659 109.878 150.373 109.55 150.061 109.243C149.748 108.936 149.51 108.565 149.198 108.258C148.885 107.951 148.53 107.696 148.218 107.395C147.906 107.093 147.556 106.828 147.244 106.526C146.931 106.224 146.645 105.896 146.322 105.599C145.999 105.303 145.671 105.022 145.343 104.736C145.014 104.45 144.654 104.207 144.315 103.926C143.976 103.645 143.722 103.269 143.378 103.005C143.076 102.777 142.753 102.565 142.43 102.348C142.107 102.131 141.742 101.999 141.408 101.824C141.075 101.649 140.741 101.427 140.381 101.305C140.021 101.183 139.618 101.21 139.242 101.167C138.866 101.125 138.485 100.992 138.099 101.051C137.606 101.125 137.145 101.342 136.706 101.564C136.266 101.787 135.837 102.03 135.44 102.337C135.043 102.645 134.651 102.952 134.296 103.28C133.995 103.561 133.698 103.857 133.402 104.143C133.105 104.429 132.808 104.726 132.517 105.022C132.226 105.319 132.041 105.716 131.76 106.018C131.479 106.32 131.13 106.568 130.854 106.876C130.579 107.183 130.351 107.538 130.087 107.855C129.822 108.173 129.552 108.491 129.292 108.814C129.033 109.137 128.742 109.439 128.493 109.767C128.244 110.095 128.064 110.482 127.82 110.821C127.577 111.16 127.254 111.435 127.021 111.779C126.788 112.123 126.565 112.473 126.338 112.822C126.11 113.172 125.898 113.543 125.691 113.913C125.485 114.284 125.257 114.649 125.098 115.041C124.94 115.433 124.775 115.846 124.696 116.254C124.617 116.661 124.685 117.101 124.717 117.53C124.749 117.938 124.802 118.33 124.929 118.716C125.056 119.103 125.247 119.452 125.432 119.812C125.617 120.172 125.834 120.511 126.041 120.855C126.263 121.231 126.412 121.65 126.645 122.02C126.878 122.391 127.174 122.714 127.412 123.08C127.651 123.445 127.905 123.8 128.154 124.154C128.403 124.509 128.588 124.917 128.842 125.272C129.096 125.627 129.404 125.939 129.668 126.289C129.933 126.638 130.198 126.977 130.473 127.321C130.749 127.665 131.045 127.983 131.326 128.317C131.606 128.65 131.866 129.005 132.152 129.328C132.438 129.651 132.74 129.969 133.036 130.292C133.333 130.61 133.597 130.964 133.899 131.277C134.201 131.589 134.551 131.859 134.863 132.161C135.16 132.458 135.456 132.749 135.758 133.03C136.06 133.31 136.335 133.639 136.648 133.903C136.96 134.168 137.352 134.359 137.675 134.613C137.998 134.867 138.31 135.148 138.644 135.397C138.978 135.645 139.338 135.857 139.671 136.101C140.005 136.344 140.365 136.556 140.709 136.789C141.053 137.022 141.323 137.361 141.668 137.594C142.012 137.827 142.398 137.986 142.748 138.219C143.097 138.452 143.463 138.643 143.807 138.87C144.151 139.098 144.469 139.373 144.818 139.606C145.163 139.839 145.507 140.067 145.851 140.305C146.195 140.544 146.539 140.83 146.878 141.089C147.223 141.354 147.551 141.629 147.879 141.899C148.207 142.169 148.509 142.487 148.832 142.762C149.161 143.043 149.558 143.239 149.881 143.514C150.204 143.79 150.469 144.145 150.802 144.415C151.136 144.685 151.496 144.923 151.84 145.177C152.184 145.431 152.544 145.659 152.91 145.892C153.275 146.125 153.662 146.284 154.043 146.496C154.408 146.697 154.774 146.919 155.171 147.099C155.568 147.279 155.918 147.507 156.336 147.655C156.722 147.793 157.114 147.936 157.506 148.058C157.898 148.18 158.306 148.259 158.703 148.365C159.1 148.471 159.518 148.481 159.926 148.561C160.334 148.64 160.72 148.783 161.128 148.847C161.536 148.91 161.944 148.958 162.351 149.006C162.759 149.053 163.162 149.165 163.575 149.196C163.988 149.228 164.401 149.244 164.808 149.26C165.216 149.276 165.635 149.292 166.042 149.292C166.45 149.292 166.863 149.191 167.276 149.175C167.689 149.159 168.102 149.175 168.51 149.143C168.918 149.112 169.325 149.016 169.733 148.969C170.162 148.921 170.591 148.916 171.02 148.852C171.449 148.789 171.883 148.794 172.307 148.714C172.73 148.635 173.133 148.444 173.551 148.354C173.97 148.264 174.398 148.211 174.817 148.111C175.235 148.01 175.643 147.867 176.056 147.751C176.469 147.634 176.903 147.587 177.316 147.465C177.729 147.343 178.105 147.099 178.513 146.967C178.921 146.835 179.323 146.686 179.731 146.543C180.139 146.4 180.552 146.284 180.954 146.13C181.357 145.977 181.748 145.807 182.151 145.648C182.553 145.49 182.988 145.421 183.385 145.257C183.782 145.092 184.158 144.875 184.55 144.701C184.942 144.526 185.333 144.351 185.725 144.171C186.117 143.991 186.509 143.816 186.896 143.631C187.282 143.446 187.679 143.271 188.066 143.085C188.452 142.9 188.797 142.667 189.162 142.477C189.527 142.286 189.93 142.132 190.285 141.926C190.639 141.719 191.047 141.56 191.397 141.338C191.751 141.116 192.021 140.761 192.36 140.528C192.699 140.295 193.054 140.067 193.388 139.818C193.721 139.569 194.05 139.315 194.373 139.05C194.696 138.786 195.024 138.531 195.342 138.261C195.659 137.991 196.035 137.785 196.343 137.504C196.65 137.223 196.899 136.885 197.2 136.588C197.502 136.292 197.831 136.043 198.127 135.741C198.424 135.439 198.699 135.137 198.985 134.83C199.271 134.523 199.557 134.226 199.837 133.914C200.113 133.607 200.319 133.231 200.595 132.913" fill="#B43830"/>
<path d="M119.337 98.7307C119.718 98.8949 120.057 99.1438 120.386 99.3979L120.227 99.2761C120.518 99.5038 120.793 99.7527 121.026 100.044C121.143 100.192 121.408 100.277 121.588 100.277C121.784 100.277 122.017 100.192 122.149 100.044C122.281 99.8957 122.393 99.6945 122.382 99.4827L122.356 99.2709C122.318 99.1385 122.25 99.022 122.149 98.9214C121.863 98.5613 121.514 98.2806 121.148 98C120.83 97.7564 120.507 97.5234 120.137 97.3645C120.047 97.3063 119.946 97.2745 119.84 97.2692C119.734 97.248 119.628 97.248 119.522 97.2851C119.337 97.338 119.136 97.4757 119.046 97.6505C118.951 97.8358 118.898 98.0582 118.966 98.2647C119.025 98.4448 119.147 98.6619 119.332 98.7413L119.337 98.7307Z" fill="#A55535"/>
<path d="M117.208 102.602C117.568 102.793 117.955 102.941 118.278 103.185L118.119 103.063C118.379 103.264 118.585 103.518 118.839 103.73C119.003 103.868 119.178 103.963 119.401 103.963C119.597 103.963 119.83 103.878 119.962 103.73C120.094 103.582 120.205 103.381 120.195 103.169C120.184 102.968 120.121 102.74 119.962 102.608C119.824 102.491 119.697 102.364 119.57 102.242C119.401 102.073 119.215 101.914 119.019 101.776C118.707 101.554 118.347 101.416 118.013 101.236C117.828 101.135 117.605 101.098 117.399 101.157C117.214 101.21 117.012 101.347 116.922 101.522C116.827 101.707 116.774 101.93 116.843 102.136C116.906 102.327 117.023 102.512 117.208 102.613V102.602Z" fill="#A55535"/>
<path d="M122.663 95.7446C122.959 95.9299 123.25 96.1258 123.531 96.343L123.372 96.2212C123.573 96.3747 123.769 96.5442 123.949 96.7189C124.098 96.8619 124.304 96.9519 124.511 96.9519C124.707 96.9519 124.94 96.8672 125.072 96.7189C125.204 96.5707 125.316 96.3694 125.305 96.1576C125.294 95.9458 125.226 95.7446 125.072 95.5963C124.585 95.1303 124.034 94.7332 123.462 94.3784C123.287 94.2725 123.044 94.246 122.848 94.2989C122.652 94.3519 122.461 94.4896 122.371 94.6643C122.276 94.8497 122.223 95.0721 122.292 95.2786C122.361 95.4851 122.477 95.6387 122.657 95.7552L122.663 95.7446Z" fill="#A55535"/>
<path d="M130.187 94.9655C130.68 95.2832 131.088 95.548 131.495 95.924C131.935 96.3264 132.401 96.6971 132.819 97.1207C133.026 97.3272 133.243 97.5179 133.444 97.7297C133.486 97.7721 133.529 97.8197 133.566 97.8674C133.746 98.0792 133.545 97.825 133.624 97.9468C133.703 98.0686 133.772 98.1904 133.841 98.3175C134.122 98.8311 134.492 99.2759 134.794 99.779C135.011 100.15 135.509 100.282 135.88 100.065C136.251 99.8478 136.383 99.3501 136.166 98.9794C135.859 98.4657 135.483 98.005 135.197 97.4808C134.868 96.893 134.408 96.4747 133.942 96.0034C133.513 95.5692 133.036 95.1879 132.586 94.7802C132.094 94.3301 131.548 93.9647 130.987 93.6046C130.637 93.3769 130.097 93.5199 129.901 93.8905C129.695 94.2824 129.811 94.7378 130.187 94.9761V94.9655Z" fill="#A55535"/>
<path d="M140.365 136.222L140.333 136.265L141.022 135.873H140.985C141.17 135.952 141.361 136.026 141.546 136.106L141.514 136.079L141.721 136.429L141.705 136.381V136.805L141.715 136.757L141.509 137.107L141.551 137.064L141.202 137.271C141.106 137.244 141.011 137.223 140.91 137.202C140.969 137.26 141.032 137.319 141.09 137.382C141.212 137.504 141.329 137.62 141.451 137.742C141.652 137.943 141.848 138.139 142.033 138.362C142.234 138.6 142.42 138.849 142.653 139.055C142.886 139.262 143.129 139.426 143.362 139.611C143.812 139.972 144.247 140.385 144.665 140.782C145.083 141.179 145.443 141.587 145.957 141.873C146.471 142.159 146.921 142.402 147.381 142.736C147.842 143.069 148.335 143.35 148.758 143.715C149.224 144.118 149.658 144.478 150.214 144.759C150.77 145.039 151.316 145.373 151.914 145.537C152.904 145.802 153.323 144.266 152.338 144.007C151.84 143.874 151.369 143.572 150.913 143.339C150.702 143.228 150.479 143.117 150.289 142.969C150.087 142.81 149.913 142.619 149.717 142.46C149.245 142.079 148.726 141.767 148.234 141.412C147.805 141.105 147.371 140.835 146.899 140.591C146.46 140.363 146.174 140.056 145.825 139.712C145.417 139.315 144.988 138.923 144.548 138.563C144.109 138.203 143.669 137.885 143.299 137.435C142.928 136.985 142.526 136.593 142.118 136.185C141.842 135.91 141.556 135.682 141.149 135.688C140.741 135.693 140.37 135.894 140.217 136.259C140.063 136.625 140.174 137.07 140.497 137.313C140.942 137.642 141.429 137.456 141.731 137.049C141.985 136.704 141.789 136.159 141.445 135.963C141.037 135.725 140.614 135.905 140.36 136.249L140.365 136.222Z" fill="#831E18"/>
<path d="M206.727 124.768C206.303 125.536 205.858 126.299 205.398 127.051C204.942 127.792 204.439 128.512 204.01 129.269C203.809 129.624 203.645 129.995 203.407 130.334C203.158 130.694 202.888 131.049 202.644 131.414C202.422 131.748 202.22 132.102 201.95 132.399C201.654 132.727 201.368 133.05 201.108 133.41C200.632 134.067 200.155 134.729 199.652 135.364C199.387 135.698 199.133 136.047 198.826 136.344C198.519 136.641 198.206 136.932 197.936 137.281C197.423 137.954 196.867 138.579 196.29 139.193C195.712 139.807 195.066 140.337 194.479 140.94C193.79 141.65 193.075 142.323 192.313 142.953C191.926 143.276 191.54 143.599 191.158 143.922C190.804 144.224 190.512 144.584 190.158 144.885C189.829 145.166 189.872 145.722 190.158 146.008C190.481 146.331 190.952 146.289 191.28 146.008C191.587 145.749 191.841 145.431 192.138 145.166C192.482 144.859 192.848 144.578 193.192 144.282C193.875 143.689 194.558 143.106 195.199 142.471C196.411 141.269 197.703 140.141 198.768 138.791C199.006 138.489 199.213 138.171 199.483 137.896C199.79 137.588 200.108 137.318 200.383 136.979C200.955 136.275 201.495 135.55 202.04 134.819C202.268 134.512 202.475 134.184 202.723 133.903C203.031 133.559 203.332 133.225 203.597 132.844C203.835 132.5 204.058 132.139 204.301 131.801C204.561 131.435 204.847 131.08 205.059 130.683C206.012 128.946 207.14 127.31 208.093 125.573C208.585 124.678 207.214 123.873 206.721 124.774L206.727 124.768Z" fill="#831E18"/>
<path d="M171.226 124.52C171.491 124.943 171.804 125.325 172.047 125.764C172.275 126.177 172.508 126.585 172.683 127.019C173.075 127.999 173.562 128.936 173.938 129.926C174.128 130.429 174.234 130.959 174.462 131.446C174.557 131.653 174.69 131.849 174.785 132.06C174.886 132.288 174.928 132.537 174.976 132.781C175.187 133.818 175.505 134.819 175.759 135.847C175.902 136.413 176.072 136.932 176.104 137.52C176.135 138.166 176.273 138.812 176.358 139.453C176.416 139.876 176.961 140.109 177.337 140.009C177.798 139.882 177.952 139.458 177.893 139.029C177.825 138.526 177.724 138.023 177.697 137.52C177.666 136.937 177.576 136.403 177.412 135.847C177.11 134.814 176.834 133.776 176.585 132.728C176.453 132.177 176.358 131.663 176.098 131.155C175.998 130.959 175.886 130.774 175.807 130.572C175.712 130.324 175.653 130.059 175.569 129.799C175.24 128.772 174.711 127.808 174.298 126.813C174.065 126.257 173.827 125.717 173.535 125.187C173.244 124.657 172.905 124.218 172.598 123.72C172.063 122.852 170.686 123.651 171.226 124.52Z" fill="#831E18"/>
<path d="M195.924 92.5938C195.342 92.6149 194.796 92.8162 194.23 92.938C193.631 93.065 193.065 93.2663 192.514 93.5257C191.963 93.7852 191.45 94.0923 190.962 94.4365C190.475 94.7807 189.999 95.0826 189.554 95.4533C189.135 95.8028 188.828 96.2529 188.452 96.6447C188.045 97.0683 187.637 97.4761 187.266 97.9368C186.896 98.3975 186.541 98.8529 186.181 99.3189C185.815 99.7902 185.535 100.304 185.19 100.791C184.846 101.278 184.544 101.723 184.163 102.141C183.745 102.597 183.416 103.084 183.083 103.603C182.781 104.074 182.347 104.44 182.024 104.895C181.711 105.324 181.462 105.785 181.124 106.198C180.732 106.674 180.377 107.172 180.017 107.675C179.657 108.178 179.249 108.612 178.915 109.115C178.614 109.565 178.354 109.994 177.989 110.397C177.57 110.863 177.247 111.387 176.877 111.89C176.501 112.409 176.04 112.849 175.706 113.399C175.563 113.638 175.426 113.881 175.246 114.093C175.018 114.368 174.769 114.623 174.552 114.909C174.155 115.422 173.742 115.946 173.429 116.513C173.286 116.772 173.159 117.016 172.953 117.228C172.746 117.44 172.524 117.652 172.339 117.89C172.074 118.229 172.01 118.684 172.339 119.012C172.614 119.288 173.196 119.351 173.461 119.012C173.8 118.578 174.234 118.234 174.541 117.768C174.849 117.297 175.108 116.815 175.442 116.359C175.775 115.904 176.135 115.512 176.48 115.083C176.824 114.654 177.046 114.167 177.38 113.744C177.756 113.267 178.158 112.827 178.502 112.324C178.815 111.864 179.18 111.472 179.53 111.038C179.879 110.603 180.117 110.116 180.446 109.682C180.832 109.174 181.24 108.681 181.605 108.157C181.918 107.712 182.262 107.304 182.596 106.875C182.929 106.446 183.162 105.943 183.522 105.536C183.904 105.107 184.269 104.694 184.576 104.201C184.862 103.741 185.212 103.375 185.551 102.957C185.932 102.491 186.292 101.993 186.625 101.495C186.927 101.045 187.187 100.584 187.526 100.156C187.875 99.7107 188.219 99.2606 188.579 98.8264C188.94 98.3922 189.384 97.995 189.771 97.5608C190.157 97.1266 190.486 96.703 190.968 96.3799C191.487 96.0305 191.979 95.6492 192.519 95.3315C193.059 95.0137 193.594 94.7543 194.187 94.5901C194.489 94.5054 194.796 94.4577 195.098 94.3783C195.373 94.3042 195.644 94.2035 195.924 94.193C196.946 94.1559 196.946 92.5673 195.924 92.6043V92.5938Z" fill="#831E18"/>
</g>
<defs>
<clipPath id="clip0_762_14590">
<rect width="155.323" height="140" fill="white" transform="translate(64.3386 10)"/>
</clipPath>
</defs>
</svg>
 