<svg width="145" height="150" viewBox="0 0 145 150" fill="none" xmlns="http://www.w3.org/2000/svg">
<g clip-path="url(#clip0_7044_26219)">
<g clip-path="url(#clip1_7044_26219)">
<path d="M40.8503 107.924C41.1203 108.223 41.3253 108.578 41.6084 108.855C41.8947 109.138 42.2298 109.362 42.5291 109.622C42.8316 109.886 43.1635 110.107 43.4758 110.348C43.7946 110.592 44.0451 110.924 44.3737 111.145C44.7056 111.369 45.0732 111.532 45.4181 111.734C45.7629 111.935 46.0785 112.192 46.4364 112.371C46.7943 112.55 47.1944 112.638 47.5621 112.791C47.9297 112.944 48.2973 113.097 48.6747 113.227C49.0489 113.357 49.4263 113.487 49.8134 113.595C50.1941 113.699 50.591 113.751 50.9846 113.835C51.3718 113.917 51.759 114.014 52.1559 114.073C52.5463 114.132 52.9399 114.19 53.3401 114.229C53.7338 114.268 54.1339 114.255 54.5341 114.271C54.8887 114.288 55.2433 114.271 55.6012 114.255C55.9591 114.239 56.3235 114.291 56.6748 114.223C57.0262 114.154 57.3613 114.021 57.6932 113.878C58.0868 113.705 58.3796 113.445 58.6692 113.217C58.9978 112.957 59.2678 112.697 59.476 112.378C59.694 112.043 59.8502 111.695 59.9575 111.311C60.0584 110.937 60.1169 110.553 60.1332 110.146C60.1462 109.759 60.2145 109.356 60.1657 108.955C60.1169 108.568 60.0063 108.178 59.912 107.791C59.8209 107.403 59.7428 107.01 59.6224 106.636C59.4988 106.249 59.3036 105.894 59.1669 105.536C59.0368 105.191 58.9815 104.811 58.8384 104.466C58.6952 104.124 58.487 103.808 58.3406 103.467C58.1942 103.125 58.0575 102.78 57.9176 102.436C57.7777 102.091 57.6346 101.749 57.511 101.401C57.3873 101.05 57.2897 100.692 57.1954 100.334C57.101 99.9727 56.8993 99.6344 56.844 99.2667C56.7887 98.9024 56.8798 98.5184 56.8766 98.1443C56.87 97.7376 56.9123 97.2952 56.8928 96.8625C56.8733 96.4168 56.7204 95.9971 56.587 95.6197C56.4406 95.2097 56.2031 94.9072 55.7997 94.6957C55.3832 94.481 55.0481 94.3476 54.7391 94.3899C54.3649 94.4419 54.0103 94.6339 53.7663 94.9625C53.5646 95.2325 53.441 95.6132 53.3108 96.0068C53.2002 96.3419 53.0473 96.7063 52.979 97.0935C52.9139 97.4578 53.0278 97.858 52.9952 98.2321C52.9595 98.6128 52.7773 98.9869 52.7675 99.3481C52.7545 99.7547 52.8814 100.139 52.8879 100.477C52.8976 100.972 52.8814 101.417 52.8976 101.651C52.5918 101.417 52.2632 101.157 51.9834 100.897C51.7004 100.636 51.4239 100.363 51.1636 100.083C50.9033 99.8035 50.7569 99.4229 50.5129 99.1236C50.2722 98.8275 50.0347 98.5282 49.8069 98.2191C49.5792 97.9133 49.2669 97.6628 49.0489 97.3472C48.8276 97.0349 48.6032 96.7226 48.3852 96.4037C48.1705 96.0882 47.9525 95.7693 47.7345 95.4537C47.5165 95.1382 47.3831 94.7608 47.1619 94.4484C46.9407 94.1361 46.7259 93.8108 46.495 93.5082C46.264 93.2024 45.9939 92.9193 45.7499 92.6265C45.5027 92.3305 45.2066 92.0832 44.9431 91.8034C44.6796 91.5269 44.4486 91.2081 44.1623 90.951C43.8467 90.668 43.4465 90.4565 43.0691 90.2646C42.6755 90.0661 42.2558 89.8546 41.8198 89.9165C41.4066 89.975 41.0585 90.3589 40.8601 90.72C40.6486 91.1072 40.6161 91.5594 40.9349 91.8718C40.7429 91.4781 40.4241 91.182 40.0272 91.0259C39.64 90.873 39.1943 90.8957 38.7746 90.9738C38.3582 91.0519 37.9157 91.1755 37.6294 91.4911C37.3366 91.8132 37.2781 92.2622 37.213 92.6851C37.1512 93.1015 37.0959 93.5375 37.2358 93.9474C37.3724 94.3541 37.6099 94.7185 37.9223 95.0113C37.6034 94.8356 37.2748 94.8584 36.9527 94.982C36.6469 95.0991 36.3606 95.3073 36.1524 95.5904C35.9474 95.8669 35.8661 96.1988 35.8498 96.5371C35.8336 96.8918 35.8986 97.2106 36.0255 97.5359C36.1491 97.8548 36.2077 98.2321 36.4192 98.5152C36.6274 98.795 36.9007 99.0455 37.1414 99.2863C36.8909 99.039 36.5884 99.1626 36.3053 99.4359C36.0255 99.7059 35.8889 100.113 35.8368 100.279C35.7002 100.711 35.6676 101.16 35.8466 101.596C36.0223 102.026 36.2533 102.462 36.4485 102.823C36.6241 103.155 36.8421 103.47 37.0536 103.779C37.2651 104.088 37.47 104.41 37.7043 104.703C37.9385 104.993 38.202 105.266 38.4526 105.546C38.7031 105.826 39.0089 106.053 39.2659 106.327C39.5229 106.6 39.7572 106.893 40.0142 107.166C40.2745 107.439 40.5998 107.647 40.8503 107.924Z" fill="#EBBEA7"/>
<path d="M102.414 78.8385C102.756 78.5912 103.153 78.4286 103.524 78.2269C103.898 78.0251 104.23 77.7226 104.623 77.5794C105.027 77.433 105.45 77.3289 105.863 77.2639C106.283 77.1955 106.719 77.2118 107.138 77.2411C107.555 77.2704 107.948 77.3549 108.355 77.4981C108.362 77.0296 108.485 76.6685 108.654 76.3562C108.853 75.9885 109.123 75.6729 109.494 75.4907C109.832 75.3248 110.252 75.2988 110.685 75.263C111.065 75.2305 111.472 75.1979 111.895 75.25C112.285 75.2988 112.705 75.3151 113.102 75.4192C113.492 75.5233 113.886 75.6534 114.26 75.7998C114.647 75.9495 114.989 76.1967 115.334 76.3757C115.714 76.5741 116.111 76.7238 116.411 76.945C116.788 77.2216 117.077 77.5436 117.269 77.8202C117.494 78.1455 117.588 78.5359 117.731 78.9003C117.875 79.2614 118.066 79.6128 118.145 80C118.219 80.3806 118.278 80.7775 118.301 81.1679C118.324 81.5583 118.262 81.965 118.239 82.3554C118.642 82.3522 119.062 82.3489 119.43 82.4823C119.797 82.6157 120.123 82.8727 120.438 83.1135C120.747 83.351 121.073 83.6047 121.31 83.9203C121.544 84.2359 121.632 84.6426 121.782 85.0069C121.928 85.3746 122 85.7422 122.039 86.1326C122.078 86.523 122.101 86.9004 122.016 87.2876C121.932 87.6812 121.847 88.0684 121.655 88.4132C121.463 88.7581 121.226 89.0867 120.949 89.3698C120.676 89.6528 120.393 89.9586 120.058 90.1733C119.722 90.3848 119.293 90.4108 118.919 90.5442C118.545 90.6776 118.184 90.837 117.79 90.8826C117.396 90.9249 116.983 90.9151 116.589 90.8566C116.596 91.2958 116.446 91.6829 116.238 92.0375C116.033 92.3857 115.74 92.6557 115.399 92.9192C115.077 93.1697 114.755 93.4332 114.367 93.6057C113.98 93.7781 113.58 93.9115 113.186 94.0026C112.822 94.0839 112.428 94.0807 112.025 94.136C111.651 94.1848 111.273 94.3572 110.873 94.3832C110.493 94.406 110.099 94.4418 109.699 94.4385C109.315 94.4385 108.918 94.4223 108.524 94.3963C108.137 94.3702 107.763 94.1783 107.376 94.1262C106.989 94.0774 106.592 94.1002 106.208 94.0286C105.824 93.957 105.447 93.8562 105.069 93.7553C104.689 93.6545 104.311 93.5569 103.943 93.43C103.569 93.2999 103.179 93.2185 102.824 93.0624C102.463 92.9029 102.174 92.6036 101.839 92.4149C101.494 92.2197 101.116 92.0896 100.804 91.8619C100.485 91.6276 100.215 91.3381 99.9418 91.068C99.662 90.7915 99.444 90.4694 99.2163 90.1571C98.9886 89.8415 98.712 89.5552 98.5461 89.1973C98.3834 88.8492 98.3249 88.4588 98.2305 88.0716C98.1394 87.704 98.0841 87.3266 98.0613 86.9232C98.0386 86.5491 97.9279 86.1554 97.9702 85.7487C98.0125 85.3323 98.1719 84.9354 98.2793 84.5352C98.3867 84.135 98.442 83.7088 98.6079 83.3282C98.7738 82.9508 99.0178 82.5994 99.2326 82.2448C99.4473 81.8902 99.7694 81.6104 100.023 81.2818C100.277 80.9532 100.524 80.6279 100.814 80.3286C101.1 80.0292 101.373 79.7169 101.686 79.4469C101.92 79.2452 102.151 79.0337 102.405 78.8515L102.414 78.8385Z" fill="#97928C"/>
<path d="M60.9401 109.551C61.1451 109.86 61.2622 110.211 61.3989 110.543C61.5355 110.878 61.6494 111.22 61.7665 111.565C61.8804 111.906 62.1081 112.206 62.2513 112.544C62.3879 112.873 62.4302 113.253 62.6352 113.565C62.8564 113.904 63.1655 114.184 63.4257 114.502C63.6795 114.818 63.8747 115.192 64.1512 115.492C64.4278 115.791 64.8019 115.999 65.0915 116.282C65.3875 116.568 65.6055 116.936 65.9016 117.206C66.0968 117.385 66.3408 117.58 66.6043 117.622C67.1151 117.704 67.5608 117.18 67.8471 116.747C68.0683 116.412 68.179 116.009 68.3872 115.664C68.5921 115.319 68.8296 114.994 69.0216 114.639C69.2135 114.284 69.4933 113.979 69.6723 113.618C69.8545 113.26 69.9813 112.873 70.1505 112.508C70.3229 112.144 70.5116 111.789 70.6776 111.422C70.8435 111.054 70.9996 110.683 71.1591 110.315C71.3185 109.948 71.4291 109.557 71.5885 109.186C71.7447 108.816 71.9073 108.448 72.0635 108.077C72.2197 107.706 72.3596 107.329 72.5222 106.961C72.6817 106.593 72.8443 106.223 73.0102 105.858C73.1762 105.491 73.3681 105.136 73.5406 104.775C73.713 104.41 73.8724 104.04 74.0546 103.682C74.2368 103.324 74.4255 102.966 74.6207 102.615C74.8159 102.263 75.0762 101.951 75.2844 101.606C75.4926 101.261 75.7529 100.955 75.9741 100.62C76.1888 100.298 76.2897 99.8947 76.5207 99.5856C76.7517 99.2766 77.0184 98.987 77.2657 98.691C77.5162 98.3949 77.8546 98.1769 78.1181 97.8971C78.3816 97.6141 78.5475 97.2334 78.8273 96.9667C79.1071 96.6999 79.491 96.547 79.7871 96.2965C80.0799 96.0459 80.3206 95.7271 80.6297 95.4929C80.9388 95.2586 81.2967 95.0959 81.6155 94.878C81.9343 94.66 82.2401 94.4225 82.572 94.224C82.9038 94.0256 83.2162 93.7881 83.5578 93.6091C83.8994 93.4302 84.241 93.2415 84.5924 93.0788C84.9437 92.9194 85.3048 92.7698 85.666 92.6299C86.0271 92.49 86.4208 92.4477 86.7917 92.324C87.1593 92.2037 87.5204 92.067 87.8946 91.9662C88.2687 91.8653 88.6201 91.6701 89.0007 91.592C89.3781 91.514 89.7718 91.4977 90.1557 91.4391C90.5363 91.3806 90.9267 91.3057 91.3204 91.2569C91.7043 91.2114 92.1012 91.1919 92.4981 91.1561C92.8853 91.1203 93.2789 91.0975 93.6758 91.0715C94.063 91.0455 94.4567 90.9869 94.8536 90.9706C95.244 90.9576 95.6376 90.9609 96.0346 90.9544C96.425 90.9511 96.8186 91.0032 97.2155 91.0097C97.6059 91.0162 98.0029 90.9544 98.3998 90.9706C98.7902 90.9869 99.1773 91.1658 99.571 91.1919C99.9614 91.2179 100.358 91.1854 100.752 91.2211C101.142 91.2569 101.543 91.2374 101.933 91.2862C102.323 91.335 102.717 91.3806 103.104 91.4424C103.495 91.5009 103.872 91.6246 104.259 91.6961C104.646 91.7677 105.014 91.9336 105.398 92.0182C105.782 92.1028 106.192 92.0833 106.572 92.1776C106.956 92.2752 107.35 92.3306 107.727 92.4412C108.108 92.5518 108.44 92.8023 108.814 92.9292C109.188 93.0561 109.556 93.1862 109.923 93.3261C110.294 93.466 110.698 93.5148 111.059 93.671C111.423 93.8304 111.758 94.0386 112.11 94.211C112.464 94.3867 112.796 94.6014 113.138 94.7934C113.483 94.9853 113.801 95.2131 114.133 95.4245C114.465 95.636 114.839 95.7889 115.155 96.0199C115.474 96.2509 115.805 96.4721 116.105 96.7226C116.407 96.9764 116.664 97.2822 116.947 97.5523C117.227 97.8223 117.562 98.0403 117.823 98.3298C118.083 98.6161 118.317 98.9317 118.561 99.2343C118.802 99.5368 119.049 99.8427 119.277 100.158C119.501 100.474 119.631 100.854 119.843 101.183C120.051 101.508 120.263 101.834 120.458 102.172C120.65 102.507 120.9 102.816 121.079 103.161C121.258 103.506 121.372 103.88 121.538 104.235C121.704 104.586 121.902 104.921 122.055 105.279C122.208 105.637 122.387 105.982 122.527 106.346C122.667 106.707 122.751 107.091 122.885 107.459C123.015 107.823 123.109 108.204 123.23 108.572C123.35 108.942 123.425 109.323 123.536 109.697C123.646 110.071 123.734 110.449 123.835 110.823C123.936 111.2 124.063 111.568 124.157 111.942C124.251 112.319 124.433 112.677 124.521 113.055C124.609 113.435 124.668 113.823 124.746 114.2C124.824 114.584 124.84 114.977 124.912 115.355C124.983 115.739 125.094 116.116 125.159 116.497C125.224 116.884 125.377 117.252 125.436 117.632C125.497 118.019 125.517 118.413 125.572 118.79C125.627 119.171 125.65 119.555 125.702 119.936C125.754 120.316 125.748 120.707 125.797 121.087C125.845 121.468 126.021 121.836 126.067 122.216C126.112 122.597 126.083 122.991 126.129 123.371C126.174 123.752 126.249 124.133 126.291 124.513C126.333 124.894 126.363 125.281 126.402 125.662C126.441 126.046 126.359 126.439 126.395 126.82C126.431 127.204 126.519 127.581 126.555 127.962C126.59 128.346 126.665 128.723 126.698 129.107C126.73 129.491 126.792 129.872 126.821 130.255C126.851 130.639 126.841 131.026 126.87 131.41C126.9 131.794 127.017 132.172 127.043 132.556C127.069 132.939 127.078 133.323 127.101 133.707C127.124 134.091 127.16 134.475 127.179 134.859C127.199 135.243 127.098 135.633 127.114 136.017C127.134 136.401 127.176 136.785 127.192 137.169C127.209 137.553 127.313 137.933 127.326 138.317C127.339 138.701 127.277 139.088 127.287 139.472C127.296 139.856 127.336 140.24 127.342 140.624C127.352 141.008 127.29 141.395 127.296 141.779C127.303 142.163 127.42 142.547 127.423 142.931C127.427 143.315 127.326 143.702 127.329 144.086C127.329 144.47 127.391 144.853 127.388 145.241C127.384 145.628 127.296 146.008 127.293 146.392C127.29 146.776 127.316 147.16 127.309 147.547C127.303 147.931 127.28 148.315 127.27 148.699C127.261 149.083 127.313 149.47 127.303 149.854C127.293 150.238 127.287 150.622 127.274 151.009C127.261 151.393 127.202 151.747 127.186 152.131C126.623 152.31 126.603 152.082 126.015 152.082C125.426 152.082 125.423 152.235 124.834 152.235C124.245 152.235 124.242 152.073 123.653 152.073C123.064 152.073 123.061 152.109 122.468 152.109C121.876 152.109 121.876 152.209 121.284 152.209C120.692 152.209 120.692 152.232 120.103 152.232C119.514 152.232 119.511 152.161 118.922 152.161C118.333 152.161 118.33 152.112 117.741 152.112C117.152 152.112 117.149 152.187 116.56 152.187C115.971 152.187 115.968 152.239 115.376 152.239C114.784 152.239 114.784 152.099 114.192 152.099C113.6 152.099 113.6 152.255 113.011 152.255C112.422 152.255 112.419 152.154 111.83 152.154C111.241 152.154 111.238 152.167 110.646 152.167C110.053 152.167 110.053 152.193 109.461 152.193C108.869 152.193 108.869 152.206 108.277 152.206C107.685 152.206 107.685 152.18 107.093 152.18C106.501 152.18 106.501 152.154 105.909 152.154C105.317 152.154 105.317 152.19 104.724 152.19C104.132 152.19 104.132 152.216 103.54 152.216C102.948 152.216 102.948 152.18 102.356 152.18C101.764 152.18 101.764 152.089 101.172 152.089C100.58 152.089 100.58 152.122 99.9874 152.122C99.3953 152.122 99.3953 152.109 98.8032 152.109C98.2111 152.109 98.2111 152.19 97.619 152.19C97.0268 152.19 97.0268 152.125 96.4347 152.125C95.8426 152.125 95.8426 152.167 95.2505 152.167C94.6584 152.167 94.6584 152.102 94.0663 152.102C93.4741 152.102 93.4741 152.092 92.882 152.092C92.2899 152.092 92.2899 152.099 91.6978 152.099C91.1057 152.099 91.1057 152.118 90.5168 152.118C89.9279 152.118 89.9247 152.089 89.3326 152.089C88.7404 152.089 88.7404 152.216 88.1483 152.216C87.5562 152.216 87.5562 152.128 86.9641 152.128C86.372 152.128 86.372 152.141 85.7798 152.141C85.1877 152.141 85.1877 152.141 84.5956 152.141C84.0035 152.141 84.0035 152.144 83.4114 152.144C82.8192 152.144 82.8192 152.248 82.2271 152.248C81.635 152.248 81.635 152.232 81.0429 152.232C80.4508 152.232 80.4508 152.092 79.8587 152.092C79.2665 152.092 79.2665 152.125 78.6744 152.125C78.0823 152.125 78.0823 152.183 77.4902 152.183C76.8981 152.183 76.8981 152.144 76.3027 152.144C75.7073 152.144 75.7106 152.222 75.1315 152.092C75.0436 151.812 75.0046 151.578 74.9428 151.289C74.881 150.999 74.8679 150.7 74.8159 150.41C74.7541 150.056 74.6239 149.711 74.5654 149.356C74.5068 149.002 74.3539 148.66 74.2986 148.302C74.2433 147.947 74.2238 147.583 74.1685 147.228C74.1132 146.874 74.1164 146.493 74.0643 146.135C73.6739 146.21 73.277 146.33 72.8801 146.392C72.4865 146.454 72.0798 146.422 71.6861 146.47C71.2892 146.516 70.9053 146.682 70.5084 146.714C70.1115 146.747 69.7048 146.64 69.3079 146.656C68.9077 146.672 68.5108 146.825 68.1139 146.822C67.7137 146.822 67.3135 146.773 66.9166 146.75C66.5165 146.731 66.1228 146.643 65.7291 146.601C65.3322 146.561 64.9321 146.532 64.5384 146.474C64.1447 146.412 63.7413 146.389 63.3509 146.304C62.9605 146.22 62.5961 146.025 62.2155 145.917C61.8316 145.81 61.4639 145.66 61.0865 145.53C60.7091 145.4 60.3415 145.257 59.9771 145.104C59.6095 144.948 59.2419 144.805 58.8872 144.622C58.5326 144.44 58.1878 144.248 57.8494 144.04C57.5111 143.835 57.1304 143.685 56.8083 143.451C56.4862 143.22 56.1446 143.002 55.8388 142.742C55.5297 142.482 55.276 142.16 54.9897 141.877C54.7034 141.594 54.4431 141.284 54.1796 140.982C53.916 140.679 53.7176 140.325 53.4736 140.003C53.2296 139.684 52.9791 139.371 52.7546 139.036C52.5301 138.705 52.1983 138.434 51.9933 138.09C51.7883 137.745 51.6777 137.341 51.489 136.987C51.2971 136.632 51.1051 136.281 50.9262 135.92C50.7505 135.558 50.5162 135.223 50.3503 134.856C50.1844 134.488 50.0966 134.088 49.9404 133.717C49.7842 133.346 49.6443 132.969 49.4979 132.595C49.3483 132.22 49.1205 131.876 48.9806 131.501C48.8375 131.124 48.7236 130.737 48.5837 130.36C48.4536 130.005 48.3885 129.628 48.2616 129.273C48.1348 128.918 47.9949 128.567 47.868 128.212C47.7411 127.858 47.5914 127.51 47.4646 127.152C47.3377 126.797 47.2303 126.433 47.1067 126.078C46.9831 125.72 46.8985 125.353 46.7781 124.995C46.6577 124.637 46.4788 124.298 46.3551 123.941C46.2348 123.583 46.0266 123.254 45.9062 122.896C45.7858 122.538 45.8053 122.135 45.6882 121.774C45.5711 121.416 45.4474 121.058 45.3303 120.7C45.2132 120.342 45.0928 119.984 44.979 119.623C44.8651 119.262 44.7838 118.895 44.6731 118.533C44.5593 118.172 44.4096 117.824 44.299 117.463C44.1884 117.102 43.9672 116.773 43.8598 116.412C43.7492 116.051 43.7036 115.67 43.5963 115.309C43.4889 114.948 43.4336 114.61 43.3262 114.245C43.6939 114.148 43.9964 113.953 44.3641 113.849C44.7284 113.748 45.1058 113.676 45.4702 113.569C45.8346 113.465 46.2055 113.377 46.5731 113.269C46.9375 113.162 47.2986 113.045 47.663 112.938C48.0274 112.83 48.4113 112.791 48.7789 112.681C49.1433 112.573 49.4784 112.368 49.846 112.258C50.2104 112.15 50.6008 112.121 50.9652 112.014C51.3296 111.906 51.6745 111.727 52.0388 111.62C52.4032 111.513 52.7676 111.395 53.132 111.291C53.4996 111.187 53.8705 111.096 54.2349 110.999C54.6025 110.898 54.9636 110.771 55.3313 110.676C55.7022 110.582 56.0926 110.582 56.4635 110.494C56.8343 110.403 57.189 110.244 57.5599 110.159C57.9307 110.075 58.3081 110.013 58.6823 109.935C59.0564 109.857 59.4403 109.834 59.8145 109.766C60.1886 109.697 60.5692 109.619 60.9466 109.561L60.9401 109.551Z" fill="#6B8EBF"/>
<path d="M105.095 49.0213C105.466 49.1514 105.811 49.3694 106.169 49.5385C106.527 49.7045 106.911 49.8346 107.252 50.0331C107.594 50.2315 107.851 50.5634 108.173 50.7944C108.495 51.0286 108.798 51.2726 109.09 51.5361C109.386 51.8029 109.757 51.9884 110.021 52.2844C110.284 52.5805 110.427 52.9741 110.649 53.2995C110.87 53.6248 111.111 53.9404 111.286 54.295C111.462 54.6464 111.67 54.9912 111.794 55.3719C111.918 55.7493 111.908 56.1787 112.031 56.5561C112.155 56.94 112.425 57.2491 112.653 57.5842C112.864 57.8933 113.125 58.1275 113.408 58.3715C113.687 58.6123 113.948 58.8856 114.224 59.1296C114.488 59.3671 114.751 59.6111 114.979 59.8844C115.207 60.1576 115.327 60.5058 115.513 60.8083C115.698 61.1109 115.89 61.4037 116.03 61.729C116.17 62.0544 116.31 62.383 116.401 62.7246C116.492 63.0662 116.57 63.4143 116.609 63.7689C116.651 64.1398 116.664 64.5107 116.651 64.8751C116.638 65.246 116.511 65.6006 116.453 65.9617C116.394 66.3261 116.472 66.7197 116.375 67.0744C116.277 67.429 116.124 67.7738 115.997 68.1187C115.87 68.4636 115.61 68.7564 115.464 69.0947C115.317 69.4331 115.223 69.7942 115.064 70.1261C114.904 70.4612 114.719 70.78 114.556 71.1086C114.38 71.4599 114.24 71.8178 114.071 72.1594C113.899 72.5108 113.658 72.8199 113.489 73.1615C113.317 73.5096 113.203 73.8837 113.024 74.2188C112.842 74.5637 112.721 74.9346 112.529 75.2664C112.334 75.6015 112.018 75.8553 111.804 76.1741C111.589 76.493 111.459 76.8736 111.218 77.1729C110.981 77.4722 110.688 77.726 110.418 78.0058C110.154 78.2791 109.855 78.5133 109.556 78.7638C109.269 79.0046 109.032 79.3299 108.706 79.5512C108.397 79.7626 108.036 79.909 107.688 80.1042C107.33 80.3027 106.969 80.5239 106.579 80.6671C106.188 80.8102 105.762 80.8135 105.355 80.8916C104.946 80.9696 104.545 81.1128 104.132 81.1095C103.716 81.1095 103.286 81.0965 102.886 81.0022C102.486 80.9111 102.102 80.7191 101.731 80.5239C101.403 80.3515 101.11 80.1237 100.827 79.8895C100.544 79.6553 100.222 79.4536 99.9743 79.1738C99.7303 78.9005 99.5774 78.5458 99.3594 78.2465C99.1415 77.9472 98.9853 77.6089 98.7836 77.3031C98.5623 76.9745 98.3216 76.6589 98.1101 76.327C97.8954 75.9952 97.6644 75.6731 97.4562 75.338C97.248 75.0029 97.0593 74.6548 96.8576 74.3132C96.6559 73.9716 96.3533 73.6885 96.1613 73.3437C95.9661 72.9988 95.8002 72.6377 95.6148 72.2863C95.4293 71.9382 95.3643 71.525 95.1886 71.1704C95.0129 70.8158 94.8372 70.4644 94.6713 70.1033C94.5054 69.7454 94.3232 69.394 94.167 69.0297C94.0108 68.6653 93.7701 68.3367 93.6269 67.969C93.4838 67.6014 93.409 67.2045 93.2788 66.8336C93.1487 66.4595 92.999 66.0918 92.8819 65.7144C92.7648 65.337 92.6477 64.9597 92.5436 64.5758C92.4427 64.2049 92.3614 63.8047 92.267 63.3883C92.1792 63.0076 92.0816 62.6107 92.0002 62.1975C91.9254 61.8071 91.7725 61.42 91.7074 61.01C91.6456 60.6131 91.6684 60.1967 91.6196 59.79C91.5708 59.3898 91.561 58.9799 91.5285 58.5732C91.496 58.1666 91.4992 57.7631 91.4862 57.3565C91.4764 56.9465 91.4472 56.5431 91.4569 56.1364C91.4699 55.7265 91.4764 55.3198 91.5187 54.9197C91.561 54.5097 91.6521 54.1128 91.7302 53.7192C91.8083 53.3125 91.8408 52.8993 91.9579 52.5187C92.0816 52.1217 92.2963 51.7704 92.4655 51.4092C92.6412 51.0351 92.7745 50.6447 93.0088 50.3161C93.2398 49.9908 93.4805 49.6654 93.7733 49.4149C94.0694 49.1644 94.4566 49.0278 94.8047 48.8488C95.1463 48.6731 95.4976 48.5137 95.8783 48.3966C96.2427 48.2827 96.6136 48.1363 97.0072 48.0745C97.3879 48.0127 97.7848 48.0485 98.1784 48.029C98.5656 48.0094 98.956 47.9574 99.3464 47.9671C99.7368 47.9802 100.117 48.1038 100.505 48.1461C100.895 48.1851 101.302 48.0973 101.682 48.1591C102.076 48.2242 102.45 48.3673 102.821 48.4519C103.215 48.5397 103.586 48.6731 103.943 48.774C104.34 48.8879 104.75 48.8976 105.092 49.018L105.095 49.0213Z" fill="#97928C"/>
<path d="M100.687 94.3963C100.872 94.3508 101.074 94.3735 101.256 94.3215C101.559 94.2369 101.939 94.1328 102.092 93.8595C102.196 93.6643 102.092 93.4008 102.086 93.1828C102.07 92.8184 102.151 92.4508 102.141 92.0864C102.131 91.722 102.131 91.3576 102.125 90.9965C102.118 90.6321 101.978 90.2677 101.978 89.9066C101.978 89.5422 101.962 89.1779 101.965 88.8135C101.972 88.4491 102.034 88.0847 102.043 87.7203C102.057 87.3397 102.109 86.9037 102.17 86.4483C102.226 86.0383 102.398 85.6251 102.453 85.199C102.512 84.7662 102.525 84.327 102.541 83.9204C102.561 83.4584 102.515 83.0192 102.424 82.6483C102.255 81.9488 102.112 81.7536 101.835 81.6332C101.601 81.5291 101.256 81.5486 100.609 81.4868C100.137 81.4413 99.675 81.2949 99.2033 81.2656C98.7315 81.2363 98.2565 81.1485 97.7848 81.1322C97.4139 81.1192 97.0365 81.2591 96.6591 81.2623C96.285 81.2623 95.9043 81.1517 95.5302 81.1745C95.156 81.1973 94.7787 81.2591 94.411 81.3111C94.0369 81.3632 93.679 81.5031 93.3211 81.5909C92.9535 81.6788 92.5859 81.7569 92.2378 81.887C91.8831 82.0204 91.548 82.1863 91.2259 82.3685C90.9006 82.5539 90.598 82.7719 90.315 83.0159C90.0352 83.2567 89.7066 83.4681 89.4756 83.774C89.2576 84.0635 89.1633 84.4442 88.9941 84.7955C88.8412 85.1176 88.659 85.4462 88.5549 85.8236C88.4475 86.2043 88.3141 86.5914 88.2686 86.9916C88.2231 87.3852 88.197 87.7919 88.1938 88.1953C88.1873 88.5922 88.2231 88.9957 88.2393 89.3958C88.2588 89.796 88.3337 90.1929 88.3597 90.5898C88.3857 90.9965 88.4736 91.3934 88.4898 91.7838C88.5126 92.2816 88.6037 92.6655 88.7306 93.0071C88.89 93.4431 89.0462 93.8074 89.3813 94.058C89.6871 94.2857 90.0547 94.5134 90.5167 94.6468C90.8811 94.7509 91.3138 94.7737 91.779 94.8518C92.1499 94.9103 92.5241 94.9169 92.8982 94.9591C93.2691 95.0014 93.6335 95.1478 94.0076 95.1674C94.3817 95.1901 94.7591 95.0795 95.1365 95.0828C95.5107 95.0828 95.8848 95.1023 96.259 95.086C96.6331 95.0698 97.0072 95.0437 97.3781 95.0079C97.7523 94.9722 98.1264 94.9494 98.494 94.8973C98.8649 94.842 99.2228 94.7314 99.5904 94.6566C99.9581 94.585 100.319 94.5004 100.684 94.4093L100.687 94.3963Z" fill="#EBBEA7"/>
<path d="M72.8247 73.6885C72.9809 73.9618 73.1175 74.3424 73.4103 74.658C73.6445 74.9118 73.9536 75.1493 74.2562 75.4095C74.5295 75.6438 74.9004 75.7837 75.2159 76.0049C75.5185 76.2196 75.8276 76.4213 76.1529 76.6133C76.4783 76.8052 76.8003 76.9874 77.1387 77.1436C77.4868 77.303 77.8154 77.4885 78.1635 77.5958C78.5377 77.7097 78.8988 77.8724 79.2534 77.9049C79.6471 77.9407 80.0212 77.8203 80.3693 77.7357C80.737 77.6479 81.0395 77.4722 81.3291 77.2184C81.5893 76.9939 81.8626 76.7467 82.0383 76.3693C82.1652 76.0993 82.214 75.8064 82.2628 75.5104C82.3116 75.2176 82.445 74.928 82.458 74.632C82.4743 74.2676 82.4482 73.8577 82.4287 73.4282C82.4125 73.0476 82.2758 72.6539 82.2303 72.2407C82.188 71.8536 82.1262 71.4599 82.0546 71.0597C81.9863 70.6693 81.9277 70.2757 81.8333 69.8853C81.739 69.4981 81.6154 69.1175 81.4917 68.7401C81.3649 68.3562 81.2738 67.9658 81.1176 67.6014C80.9549 67.2272 80.763 66.8759 80.5645 66.5375C80.3563 66.1861 80.1253 65.8608 79.8748 65.5615C79.6113 65.2492 79.3673 64.9141 79.0549 64.6798C78.7361 64.4391 78.3359 64.3285 77.9618 64.1853C77.6365 64.0617 77.3111 63.9023 76.9695 63.899C76.6279 63.8958 76.2831 63.9901 75.9479 64.0845C75.6194 64.1755 75.3135 64.3415 75.0077 64.5074C74.7052 64.6733 74.3961 64.8392 74.1391 65.0572C73.8365 65.3142 73.5892 65.6233 73.3452 65.9291C73.1012 66.2382 72.9028 66.5733 72.7173 66.9214C72.5351 67.2695 72.3367 67.6111 72.2163 67.9885C72.0959 68.3627 71.9528 68.7433 71.8942 69.1337C71.8357 69.5209 71.956 69.9276 71.9593 70.3212C71.9625 70.7149 71.8845 71.1183 71.9528 71.5055C72.0211 71.8926 72.174 72.2635 72.3041 72.6344C72.4343 73.0053 72.623 73.3501 72.8182 73.6917L72.8247 73.6885Z" fill="#EBBEA7"/>
<path d="M109.949 57.9649C109.787 57.6168 109.598 57.2882 109.409 56.9564C109.221 56.6213 109.071 56.2699 108.853 55.9511C108.635 55.6322 108.446 55.2971 108.205 54.9978C107.961 54.6985 107.665 54.4513 107.399 54.178C107.132 53.9047 106.849 53.6477 106.556 53.3972C106.263 53.1499 106.003 52.8603 105.687 52.6391C105.375 52.4244 105.05 52.2227 104.724 52.0307C104.399 51.8388 104.025 51.7314 103.687 51.559C103.348 51.3898 103.059 51.1068 102.71 50.9571C102.362 50.8074 101.998 50.6838 101.64 50.5569C101.282 50.4301 100.924 50.2902 100.56 50.186C100.196 50.0819 99.7857 50.1503 99.4148 50.0689C99.0439 49.9876 98.6893 49.8347 98.3151 49.7729C97.941 49.7111 97.5604 49.7111 97.183 49.6688C96.8056 49.6265 96.4314 49.5777 96.054 49.5581C95.6766 49.5386 95.2992 49.402 94.9186 49.402C94.5379 49.402 94.1573 49.4475 93.7767 49.467C93.396 49.4866 93.0154 49.5191 92.638 49.5581C92.2606 49.5972 91.8962 49.7403 91.522 49.7989C91.1479 49.8575 90.7835 49.9583 90.4126 50.0364C90.0418 50.1145 89.6546 50.1275 89.2902 50.2251C88.9226 50.3259 88.5615 50.4398 88.2036 50.5602C87.8197 50.6871 87.4683 50.892 87.1039 51.0417C86.7265 51.1946 86.3134 51.2401 85.9587 51.4126C85.5944 51.5915 85.2235 51.7574 84.8819 51.9559C84.5337 52.1609 84.2084 52.4016 83.8798 52.6261C83.548 52.8538 83.2812 53.1662 82.9754 53.4167C82.663 53.6704 82.3963 53.9665 82.11 54.243C81.8204 54.5228 81.5341 54.7929 81.2706 55.0922C81.0071 55.3947 80.6947 55.655 80.4605 55.9771C80.223 56.2992 80.0766 56.6798 79.8651 57.0214C79.6569 57.3598 79.3999 57.6721 79.2177 58.03C79.0388 58.3846 78.9054 58.762 78.7492 59.1329C78.5963 59.5005 78.4694 59.8747 78.3425 60.2586C78.2189 60.636 78.105 61.0166 78.0074 61.407C77.9098 61.7909 77.8122 62.1748 77.7374 62.5717C77.6658 62.9589 77.565 63.3493 77.5162 63.7495C77.4674 64.1431 77.4088 64.54 77.3795 64.9435C77.3502 65.3697 77.3958 65.7991 77.3795 66.2253C77.3665 66.6515 77.2884 67.0777 77.2852 67.5039C77.2819 67.9301 77.3144 68.3595 77.3177 68.7857C77.3177 69.2119 77.2722 69.6414 77.2787 70.0676C77.2819 70.4938 77.36 70.92 77.36 71.3462C77.36 71.717 77.2591 72.0977 77.2364 72.4881C77.2136 72.8655 77.2364 73.2527 77.2071 73.6366C77.1778 74.0172 77.2103 74.4044 77.1941 74.785C77.1746 75.1722 77.0216 75.5561 77.0347 75.9335C77.0477 76.3239 77.0997 76.7175 77.1648 77.0852C77.2299 77.4528 77.373 77.8269 77.4999 78.2076C77.6203 78.5655 77.7472 78.9396 77.9131 79.2975C78.0725 79.6456 78.2775 79.9839 78.4694 80.3223C78.6614 80.6574 78.8891 80.9762 79.1071 81.2983C79.3283 81.6204 79.5333 81.9555 79.774 82.2548C80.0213 82.5639 80.2848 82.8567 80.5451 83.13C80.8216 83.4228 81.0786 83.7253 81.3584 83.9661C81.6512 84.2199 82.0286 84.3663 82.341 84.5907C82.6565 84.8152 82.9168 85.1276 83.2487 85.3228C83.5838 85.518 83.9937 85.5668 84.3418 85.7327C84.6899 85.8986 85.0185 86.1068 85.3796 86.2435C85.7408 86.3801 86.1247 86.4322 86.4988 86.5395C86.8697 86.6469 87.2178 86.8356 87.5952 86.9169C87.9726 86.9983 88.3467 87.1056 88.7306 87.1609C89.1113 87.2195 89.5017 87.239 89.8856 87.2716C90.2695 87.3041 90.6566 87.3561 91.0405 87.3659C91.4277 87.3789 91.8116 87.2846 92.1988 87.2781C92.5859 87.2683 92.9796 87.3854 93.3635 87.3561C93.7506 87.3269 94.1313 87.239 94.5152 87.1902C94.8991 87.1414 95.283 87.0829 95.6636 87.0145C96.0475 86.9462 96.4282 86.8844 96.8023 86.7998C97.183 86.712 97.5278 86.5005 97.8955 86.3996C98.2371 86.3053 98.5689 86.1849 98.9073 86.0743C99.2782 85.9507 99.6458 85.8335 100 85.6806C100.362 85.5277 100.726 85.4008 101.071 85.2187C101.416 85.0365 101.806 84.9291 102.135 84.7176C102.463 84.5094 102.789 84.2849 103.101 84.0507C103.413 83.8197 103.677 83.5204 103.973 83.2634C104.266 83.0096 104.49 82.6778 104.767 82.4045C105.043 82.1312 105.346 81.8872 105.606 81.5944C105.863 81.3048 106.101 80.9957 106.341 80.6899C106.582 80.3841 106.878 80.1206 107.103 79.7985C107.324 79.4797 107.578 79.1771 107.786 78.8452C107.991 78.5167 108.179 78.1685 108.368 77.8269C108.557 77.4853 108.638 77.0884 108.811 76.7403C108.983 76.3922 109.139 76.0376 109.295 75.6797C109.452 75.3218 109.582 74.9574 109.722 74.5931C109.861 74.2287 110.044 73.8806 110.167 73.5129C110.291 73.142 110.47 72.7874 110.577 72.4133C110.685 72.0391 110.811 71.665 110.903 71.2876C110.994 70.9069 110.951 70.5003 111.026 70.1164C111.101 69.7325 111.153 69.3486 111.212 68.9647C111.27 68.5775 111.452 68.2066 111.491 67.8227C111.53 67.4323 111.478 67.0354 111.501 66.6482C111.524 66.2578 111.472 65.8674 111.475 65.4803C111.478 65.0866 111.498 64.6995 111.482 64.3156C111.465 63.9219 111.413 63.538 111.374 63.1541C111.339 62.7962 111.29 62.4416 111.231 62.0837C111.173 61.7259 111.13 61.3712 111.049 61.0166C110.968 60.6652 110.896 60.3106 110.789 59.9658C110.681 59.6209 110.61 59.263 110.48 58.9247C110.349 58.5863 110.115 58.2935 109.962 57.9682L109.949 57.9649Z" fill="#EBBEA7"/>
<path d="M94.731 75.7433C95.0563 76.0824 95.3564 76.4765 95.6343 76.8544C95.9123 77.2323 96.1618 77.6296 96.3229 78.0722C96.484 78.5147 96.6166 78.9508 96.7398 79.3997C96.8788 79.9036 96.9356 80.3752 96.9356 80.8985C96.9356 81.3152 96.3039 81.3152 96.3039 80.8985C96.3039 80.6627 96.3071 80.4237 96.2787 80.1879C96.2534 79.9779 96.1871 79.7744 96.1302 79.5709C96.0102 79.1446 95.8807 78.7311 95.7354 78.3112C95.5901 77.8913 95.3532 77.5457 95.1069 77.2097C94.8605 76.8738 94.5794 76.5056 94.2825 76.1987C93.9856 75.8919 94.4436 75.4461 94.7279 75.7433H94.731Z" fill="#BC7F6C"/>
<path d="M86.7783 76.6803C86.6393 76.9452 86.554 77.2327 86.4498 77.5137C86.3456 77.7947 86.2698 78.0628 86.2224 78.3567C86.1719 78.67 86.1813 78.9414 86.2413 79.2515C86.3013 79.5777 86.3329 79.9072 86.4214 80.2269C86.5319 80.6275 85.9223 80.7987 85.8118 80.3981C85.717 80.0525 85.6855 79.7004 85.6191 79.3516C85.5465 78.9704 85.5465 78.6377 85.6033 78.2534C85.6539 77.911 85.7455 77.6009 85.8655 77.2779C85.9855 76.9549 86.0771 76.648 86.235 76.3541C86.4277 75.9891 86.9741 76.3153 86.7814 76.6803H86.7783Z" fill="#BC7F6C"/>
<path d="M113.261 81.2234C113.017 81.4218 112.695 81.6528 112.308 81.8415C111.996 81.9944 111.595 82.0172 111.218 82.1506C110.876 82.271 110.545 82.4662 110.17 82.5638C109.813 82.6581 109.445 82.7655 109.074 82.8306C108.703 82.8924 108.313 82.8273 107.945 82.8501C107.561 82.8761 107.194 82.8501 106.829 82.8273C106.439 82.8013 106.052 82.8533 105.707 82.7557C105.326 82.6484 104.981 82.4824 104.685 82.2775C104.373 82.0628 104.087 81.8025 103.904 81.4641C103.742 81.1616 103.628 80.7842 103.599 80.3677C103.579 80.0717 103.693 79.7789 103.748 79.4861C103.807 79.1965 103.817 78.8907 103.911 78.6076C104.025 78.2628 104.282 77.9277 104.451 77.534C104.601 77.1859 104.636 76.7565 104.825 76.3856C105.004 76.0407 105.196 75.6796 105.404 75.3315C105.606 74.9931 105.83 74.6548 106.061 74.3229C106.289 73.9943 106.582 73.708 106.832 73.399C107.086 73.0866 107.356 72.7906 107.636 72.5075C107.922 72.218 108.179 71.8959 108.485 71.6551C108.807 71.4014 109.224 71.307 109.565 71.1183C109.923 70.9199 110.242 70.6661 110.619 70.5587C111.003 70.4481 111.403 70.3733 111.807 70.3733C112.155 70.3733 112.49 70.4807 112.812 70.5978C113.131 70.7149 113.486 70.8092 113.765 71.0175C114.039 71.2192 114.221 71.5413 114.445 71.8048C114.67 72.0683 114.816 72.3774 114.979 72.6734C115.171 73.0216 115.343 73.3599 115.46 73.7341C115.578 74.1082 115.792 74.4693 115.841 74.8597C115.887 75.2501 115.822 75.6536 115.802 76.0472C115.779 76.4376 115.633 76.8118 115.545 77.1957C115.46 77.5796 115.467 77.9895 115.321 78.3571C115.174 78.7215 114.885 79.0143 114.683 79.3527C114.481 79.691 114.351 80.0749 114.094 80.3742C113.84 80.6736 113.564 80.9664 113.261 81.2169V81.2234Z" fill="#EBBEA7"/>
<path d="M105.756 70.5783C106.042 70.7897 106.393 70.8971 106.693 71.0728C107.005 71.255 107.308 71.4144 107.63 71.5282C107.968 71.6486 108.293 71.7267 108.641 71.743C108.983 71.7592 109.347 71.8308 109.699 71.7169C110.008 71.6193 110.275 71.3656 110.593 71.1476C110.909 70.9296 111.163 70.6628 111.4 70.3635C111.631 70.0707 111.927 69.8039 112.097 69.4526C112.259 69.1142 112.292 68.7141 112.402 68.3464C112.513 67.982 112.679 67.6307 112.75 67.2565C112.822 66.8759 112.933 66.5017 112.978 66.1309C113.024 65.7339 112.923 65.337 112.946 64.9792C112.972 64.579 113.118 64.1788 113.115 63.7786C113.108 63.3785 113.027 62.9751 112.991 62.5749C112.955 62.1747 112.855 61.7843 112.786 61.3874C112.721 60.9905 112.682 60.5903 112.588 60.1999C112.493 59.8095 112.289 59.4549 112.165 59.071C112.041 58.6903 111.95 58.2999 111.801 57.929C111.648 57.5581 111.53 57.171 111.348 56.8131C111.169 56.4552 110.899 56.1462 110.691 55.8046C110.483 55.463 110.33 55.0823 110.096 54.757C109.861 54.4316 109.598 54.1258 109.341 53.82C109.094 53.5272 108.866 53.2246 108.612 52.9546C108.352 52.6748 108.101 52.3917 107.831 52.1347C107.555 51.8712 107.298 51.5914 107.011 51.3507C106.722 51.1067 106.345 50.9765 106.039 50.7618C105.733 50.5438 105.45 50.2868 105.125 50.0948C104.802 49.9062 104.428 49.8118 104.083 49.6524C103.748 49.4962 103.433 49.275 103.075 49.1449C102.727 49.0212 102.346 48.9919 101.972 48.8943C101.611 48.8 101.259 48.6503 100.895 48.5625C100.531 48.4747 100.186 48.2925 99.8182 48.2144C99.4506 48.133 99.0569 48.1851 98.6893 48.1168C98.3217 48.0485 97.9475 48.0094 97.5766 47.9509C97.2058 47.8956 96.8511 47.7166 96.477 47.6743C96.1029 47.632 95.7189 47.7296 95.3448 47.7036C94.9707 47.6776 94.5998 47.6515 94.2224 47.6483C93.8482 47.6418 93.4741 47.5995 93.0967 47.6158C92.7226 47.632 92.3517 47.6873 91.9775 47.7264C91.6067 47.7654 91.239 47.837 90.8681 47.9021C90.5005 47.9671 90.1101 47.9444 89.7457 48.0354C89.3781 48.1298 88.9974 48.2014 88.6363 48.3185C88.2752 48.4356 87.9206 48.5853 87.5659 48.7187C87.2113 48.852 86.9087 49.1221 86.5541 49.2652C86.2028 49.4084 85.8579 49.5711 85.5065 49.7175C85.1552 49.8639 84.7517 49.8834 84.4004 50.0233C84.0262 50.1729 83.6944 50.4072 83.33 50.5341C82.9494 50.6642 82.5557 50.7293 82.1881 50.8464C81.8074 50.97 81.4138 51.0318 81.0461 51.162C80.672 51.2921 80.3109 51.458 79.9497 51.6109C79.5886 51.7671 79.2535 51.9786 78.9086 52.1738C78.5703 52.3657 78.2124 52.5382 77.8968 52.7854C77.5975 53.0197 77.3828 53.3613 77.0997 53.6606C76.8427 53.9339 76.4979 54.1551 76.2571 54.4934C76.0261 54.8155 75.935 55.2222 75.7398 55.5671C75.5446 55.9119 75.2551 56.2047 75.0989 56.5691C74.9427 56.9302 74.8419 57.3174 74.7183 57.6948C74.5979 58.0689 74.5556 58.4658 74.4677 58.8497C74.3799 59.2336 74.3148 59.6175 74.2595 60.0112C74.2042 60.4016 74.0546 60.7823 74.0318 61.1759C74.0058 61.5696 74.0936 61.9665 74.0969 62.3602C74.1034 62.7701 74.0318 63.2028 74.0969 63.616C74.1684 64.0357 74.3832 64.4066 74.5556 64.7774C74.7345 65.1581 74.9427 65.4932 75.2746 65.7632C75.639 66.0593 76.0424 66.2805 76.5044 66.3651C76.9566 66.4497 77.4414 66.4432 77.8936 66.3618C78.3523 66.2773 78.7948 66.1276 79.221 65.9422C79.6472 65.7567 80.0636 65.542 80.467 65.3208C80.8151 65.1288 81.1763 64.9531 81.5211 64.7547C81.866 64.553 82.1881 64.3155 82.5297 64.104C82.8713 63.8925 83.1706 63.6257 83.5057 63.4078C83.8408 63.1898 84.1922 63.0011 84.5208 62.7766C84.8493 62.5521 85.1584 62.2983 85.4838 62.0674C85.8091 61.8364 86.1377 61.6086 86.4565 61.3711C86.7754 61.1304 87.1593 60.9775 87.4748 60.7302C87.7872 60.483 88.0897 60.2194 88.3955 59.9624C88.7014 59.7054 88.9063 59.3345 89.2089 59.071C89.6156 58.7164 90.2402 58.3975 90.7087 58.6643C90.8942 58.7717 90.9495 59.0027 91.0633 59.1848C91.2683 59.5037 91.5969 59.7379 91.8149 60.047C92.0329 60.3561 92.2053 60.6977 92.4363 60.997C92.6673 61.2963 92.9308 61.5696 93.1748 61.8591C93.4188 62.1487 93.6986 62.4025 93.9556 62.6823C94.2126 62.9588 94.4469 63.2581 94.7169 63.5249C94.9869 63.7917 95.1984 64.117 95.4782 64.3708C95.758 64.6245 96.1224 64.7839 96.4119 65.0247C96.7015 65.2687 97.0073 65.4899 97.3066 65.7209C97.6092 65.9519 97.8532 66.2512 98.1655 66.4692C98.4746 66.6872 98.7902 66.8987 99.1122 67.1004C99.4311 67.3021 99.7271 67.5493 100.056 67.7413C100.407 67.943 100.837 68.0048 101.211 68.1772C101.578 68.3464 101.923 68.5807 102.301 68.7401C102.678 68.8962 103.049 69.0687 103.42 69.2346C103.794 69.4005 104.181 69.5372 104.536 69.7324C104.897 69.9308 105.245 70.1423 105.567 70.3896C105.635 70.4416 105.678 70.5294 105.749 70.5815L105.756 70.5783Z" fill="#97928C"/>
<path d="M90.1555 69.0621C90.0644 69.5762 90.0644 70.0967 89.9375 70.6075C89.8074 71.128 89.5861 71.577 89.1827 71.9414C88.8639 72.2277 88.3629 72.4424 88.301 72.9207C88.249 73.3143 88.493 73.6462 88.8248 73.8219C89.3779 74.1179 88.8867 74.9606 88.3336 74.6645C87.2502 74.0854 86.9834 72.6214 87.8748 71.7429C88.2685 71.3558 88.7468 71.1606 88.9257 70.601C89.1144 70.0121 89.1111 69.407 89.2152 68.8051C89.2608 68.5448 89.5796 68.3984 89.8171 68.4635C90.0904 68.5383 90.2043 68.8019 90.1587 69.0654L90.1555 69.0621Z" fill="#A55535"/>
<path d="M94.3102 67.2597C94.7592 67.2239 95.1984 67.1719 95.6473 67.2109C96.1028 67.2532 96.5681 67.302 97.0105 67.4289C97.427 67.5493 97.8109 67.7542 98.211 67.9234C98.5982 68.0861 98.9951 68.2227 99.353 68.4439C99.8865 68.7758 99.3953 69.6184 98.8617 69.2866C98.5266 69.0783 98.1557 68.9515 97.7978 68.7986C97.453 68.6522 97.1179 68.4732 96.7535 68.3724C95.9434 68.1414 95.1398 68.1739 94.3134 68.239C94.0499 68.2585 93.8254 67.9982 93.8254 67.751C93.8254 67.4712 94.0499 67.2825 94.3134 67.263L94.3102 67.2597Z" fill="#2B2927"/>
<path d="M87.0064 67.0678C86.4566 66.8661 85.9165 66.8173 85.3537 66.9767C84.7681 67.1427 84.2085 67.3379 83.6489 67.5721C83.4049 67.673 83.1121 67.4615 83.047 67.2305C82.9689 66.9475 83.1446 66.7327 83.3886 66.6286C83.9872 66.3749 84.5924 66.1601 85.2235 65.9975C85.897 65.8218 86.616 65.8868 87.2667 66.1243C87.5139 66.2154 87.6799 66.4562 87.6083 66.7262C87.5432 66.9637 87.2569 67.1589 87.0064 67.0678Z" fill="#2B2927"/>
<path d="M90.4387 80.1822C90.0939 79.9675 89.6742 79.8178 89.4041 79.5088C89.1309 79.1965 89.0333 78.767 88.8803 78.3929C88.7209 78.009 88.4932 77.6283 88.5062 77.2216C88.5062 77.137 88.542 77.0004 88.6136 76.9353C88.6982 76.8573 88.8869 76.9093 89.0202 76.893C89.3879 76.8507 89.7555 76.815 90.1264 76.8052C90.4973 76.7922 90.8649 76.6978 91.2358 76.6978C91.5644 76.6978 91.9581 76.636 92.355 76.6133C92.7519 76.5905 93.1325 76.7239 93.4351 76.9093C93.806 77.1338 93.9101 77.5925 93.9557 78.1033C94.0012 78.6011 94.0923 79.1444 94.0207 79.499C93.9166 80.0228 93.4546 80.2831 93.0089 80.4848C92.5827 80.68 92.1045 80.7776 91.6165 80.6995C91.1968 80.6312 90.8259 80.423 90.442 80.1822H90.4387Z" fill="#AE6243"/>
<path d="M90.1914 80.6052C89.6773 80.2961 89.1503 80.0781 88.8282 79.5381C88.6688 79.2713 88.5777 78.972 88.4703 78.6824C88.3597 78.3864 88.2035 78.1098 88.1092 77.8073C87.9237 77.2151 88.0279 76.4116 88.7957 76.3985C89.4333 76.3888 90.0938 76.3302 90.7282 76.2456C91.0242 76.2066 91.317 76.2066 91.6131 76.1806C91.9775 76.1513 92.3419 76.0895 92.7095 76.1383C93.2788 76.2131 93.8937 76.4831 94.1768 77.0134C94.4566 77.5437 94.4631 78.2139 94.5119 78.7996C94.5607 79.3949 94.4956 79.974 94.0369 80.4035C93.5782 80.8362 92.9014 81.1095 92.2833 81.1843C91.5057 81.2819 90.8388 80.9989 90.1914 80.5987C89.6578 80.2701 90.1458 79.4242 90.6826 79.7561C91.0568 79.987 91.4472 80.2213 91.9026 80.2311C92.3354 80.2408 92.7518 80.0879 93.1227 79.8732C93.4317 79.691 93.5619 79.486 93.5554 79.1281C93.5489 78.6759 93.5131 78.1782 93.409 77.7389C93.1845 76.802 91.9222 77.1566 91.2324 77.1794C90.7119 77.1956 90.1881 77.2737 89.6708 77.3128C89.4431 77.329 89.2121 77.3681 88.9844 77.3778C88.9421 77.3778 88.8737 77.3941 88.8347 77.3778C88.8217 77.3778 88.8087 77.3778 88.7957 77.3778C88.8607 77.329 88.929 77.2802 88.9941 77.2314C88.9746 77.2282 89.0266 77.4722 89.0364 77.5047C89.1145 77.7682 89.2446 78.009 89.3487 78.2627C89.4398 78.484 89.5016 78.715 89.609 78.9297C89.8302 79.3754 90.2825 79.5186 90.6826 79.7626C91.2194 80.0846 90.7314 80.9305 90.1914 80.6052Z" fill="#A55535"/>
<path d="M95.1171 71.8959C95.1171 72.2114 95.2407 72.488 95.4489 72.6962C95.6539 72.9044 95.9272 73.0378 96.246 73.0378C96.5648 73.0378 96.8414 72.9142 97.0496 72.7092C97.2578 72.5043 97.3066 72.2245 97.3099 71.9089C97.3099 71.5933 97.2123 71.3656 97.0073 71.1573C96.8023 70.9491 96.5778 70.7832 96.259 70.7832C95.9434 70.7832 95.6344 70.8613 95.4261 71.0662C95.2179 71.2712 95.1236 71.5803 95.1203 71.8959H95.1171Z" fill="#2B2927"/>
<path d="M85.1779 70.7996C85.1779 71.1151 85.3015 71.3917 85.5098 71.5999C85.7147 71.8081 85.988 71.9415 86.3068 71.9415C86.6224 71.9415 86.9022 71.8179 87.1104 71.6129C87.3187 71.4079 87.3675 71.1281 87.3707 70.8126C87.374 70.497 87.2731 70.2692 87.0681 70.061C86.8632 69.8528 86.6387 69.6869 86.3199 69.6869C86.0043 69.6869 85.6952 69.765 85.487 69.9699C85.2788 70.1749 85.1844 70.484 85.1812 70.7996H85.1779Z" fill="#2B2927"/>
<path d="M75.5739 115.251C75.1835 115.251 74.7898 115.306 74.4027 115.283C74.0155 115.26 73.6186 115.267 73.2315 115.218C72.8443 115.173 72.4799 114.958 72.096 114.89C71.7121 114.821 71.2989 114.89 70.9183 114.798C70.5376 114.707 70.1863 114.515 69.8121 114.405C69.438 114.294 69.0476 114.229 68.68 114.099C68.2863 113.956 67.8764 113.842 67.4795 113.686C67.0858 113.533 66.7312 113.269 66.331 113.133C65.9276 112.993 65.5046 112.924 65.098 112.83C64.6815 112.733 64.2683 112.593 63.8487 112.573C63.429 112.554 63.0093 112.667 62.5863 112.752C62.2545 112.82 61.9259 112.915 61.6038 113.029C61.2817 113.142 60.9564 113.25 60.6343 113.344C60.3057 113.442 59.9771 113.556 59.6355 113.572C59.2093 113.591 58.7408 113.507 58.3049 113.517C57.8331 113.526 57.4004 113.601 57.0881 113.94C56.8571 114.19 56.8116 114.525 56.8376 114.864C56.8604 115.192 56.9937 115.491 57.1955 115.752C57.4004 116.018 57.5989 116.295 57.8884 116.471C58.1715 116.643 58.4968 116.76 58.8026 116.89C59.167 117.047 59.5639 117.125 59.9381 117.268C60.309 117.411 60.6733 117.567 61.0507 117.694C61.4281 117.821 61.8055 117.948 62.1862 118.058C62.5668 118.169 62.9507 118.28 63.3346 118.377C63.7218 118.475 64.0894 118.654 64.4798 118.735C64.8702 118.816 65.2704 118.852 65.6608 118.921C66.0545 118.986 66.4449 119.077 66.8385 119.129C67.2322 119.178 67.6356 119.158 68.0325 119.194C68.4294 119.23 68.8231 119.35 69.22 119.366C69.6169 119.386 70.0204 119.33 70.4173 119.334C70.8142 119.334 71.2144 119.34 71.6113 119.327C72.0082 119.314 72.4084 119.282 72.8053 119.252C73.1664 119.226 73.5405 119.204 73.8952 119.122C74.253 119.041 74.5361 118.807 74.8419 118.598C75.138 118.397 75.4633 118.182 75.5934 117.847C75.7268 117.502 75.7724 117.079 75.6064 116.747" fill="#FFA791"/>
<path d="M53.0895 114.359C52.5787 114.509 52.2924 114.649 52.172 114.893C52.0256 115.192 52.1493 115.508 52.4323 115.895C52.6243 116.155 52.8 116.519 53.122 116.796C53.3888 117.024 53.789 117.131 54.1111 117.362C54.4104 117.573 54.6414 117.909 54.9635 118.114C55.2823 118.315 55.6922 118.371 56.0143 118.556C56.3527 118.751 56.6422 119.011 56.9545 119.181C57.3189 119.379 57.6247 119.623 57.9176 119.773C58.4316 120.033 58.8448 120.131 58.9684 120.186C59.3458 120.352 59.6972 120.586 60.0876 120.713C60.478 120.84 60.9139 120.814 61.3108 120.921C61.7045 121.025 62.0819 121.201 62.4821 121.299C62.879 121.396 63.2661 121.53 63.6631 121.637C64.0567 121.741 64.4699 121.79 64.8603 121.914C65.2442 122.037 65.6541 122.083 66.0413 122.213C66.4252 122.343 66.8026 122.486 67.1865 122.613C67.5704 122.74 67.9478 122.883 68.3349 123.007C68.7221 123.13 69.1125 123.231 69.4997 123.342C69.8901 123.452 70.2414 123.703 70.6351 123.797C71.0287 123.892 71.4387 123.931 71.8356 124.002C72.2358 124.074 72.6359 124.142 73.0361 124.184C73.4395 124.23 73.8429 124.305 74.2464 124.315C74.6498 124.324 75.0597 124.311 75.4664 124.282C75.8666 124.253 76.2602 124.136 76.6636 124.061C77.0313 123.992 77.3859 123.84 77.7535 123.768C78.1212 123.696 78.4986 123.664 78.8662 123.589C79.2338 123.514 79.6145 123.504 79.9821 123.426C80.3497 123.348 80.6978 123.192 81.0655 123.108C81.4331 123.026 81.8268 123.065 82.1912 122.977C82.715 122.854 83.2778 122.639 83.5901 122.203C83.7756 121.946 83.8276 121.634 83.8211 121.318C83.8179 121.012 83.7235 120.707 83.6389 120.414C83.5381 120.056 83.5218 119.659 83.3787 119.308C83.2388 118.963 83.0761 118.615 82.9004 118.276C82.728 117.948 82.4319 117.681 82.2302 117.359C82.0317 117.043 81.8626 116.705 81.6381 116.396C81.4169 116.093 81.1371 115.836 80.8931 115.543C80.6556 115.254 80.4604 114.925 80.2033 114.649C79.9496 114.372 79.7218 114.063 79.4551 113.8C79.1883 113.536 78.8174 113.377 78.5408 113.123C78.2611 112.869 78.0366 112.55 77.7503 112.313C77.4575 112.072 77.1159 111.896 76.8198 111.665C76.5172 111.434 76.2635 111.142 75.9609 110.927C75.6486 110.706 75.3102 110.533 74.9979 110.328C74.6791 110.117 74.383 109.876 74.0674 109.687C73.7388 109.489 73.3712 109.368 73.0491 109.193C72.5513 108.919 72.0275 108.614 71.4615 108.672C71.0645 108.714 70.7782 108.932 70.5472 109.209C70.3228 109.473 70.1959 109.804 70.1211 110.185C70.0527 110.533 70.0332 110.894 70.0885 111.262C70.1438 111.63 70.2382 111.984 70.4171 112.293C70.6383 112.674 70.9474 112.98 71.2467 113.302C71.546 113.624 71.7705 114.014 72.0503 114.346C72.3366 114.681 72.5578 114.981 72.7238 115.394C72.4082 115.599 72.1447 115.83 71.7608 115.97C71.4061 116.1 70.9995 116.1 70.5993 116.181C70.2252 116.256 69.8575 116.461 69.4541 116.497C69.0735 116.532 68.67 116.393 68.2699 116.399C67.8827 116.406 67.4858 116.562 67.0889 116.542C66.6985 116.526 66.3048 116.471 65.9112 116.435C65.5207 116.399 65.1434 116.23 64.7529 116.178C64.3593 116.126 63.9624 116.132 63.5785 116.067C63.1848 116.002 62.7944 115.934 62.417 115.859C62.0201 115.781 61.6427 115.664 61.2718 115.579C60.8716 115.488 60.4747 115.456 60.1136 115.364C59.7037 115.26 59.3556 115.042 59.0107 114.945C58.6333 114.837 58.2006 114.893 57.8167 114.782C57.436 114.671 57.0847 114.447 56.7008 114.356C56.3104 114.262 55.9167 114.19 55.5263 114.138C55.1294 114.083 54.7325 114.151 54.3388 114.164C53.9452 114.177 53.545 114.138 53.1546 114.242C53.1285 114.249 53.1285 114.349 53.1025 114.359H53.0895Z" fill="#EBBEA7"/>
<path d="M42.4609 93.3032C42.8741 93.9604 43.3068 94.6046 43.7037 95.2748C43.8826 95.5741 44.016 95.8995 44.2177 96.1858C44.4162 96.4721 44.6472 96.7356 44.8489 97.0154C45.2849 97.6238 45.6688 98.3005 46.173 98.8568C46.4073 99.1203 46.6838 99.3318 46.8985 99.6148C47.123 99.9109 47.2824 100.246 47.5102 100.539C47.6728 100.75 47.5395 101.082 47.3345 101.206C47.084 101.355 46.827 101.238 46.6675 101.03C46.4561 100.754 46.3097 100.428 46.0917 100.155C45.8737 99.8816 45.5842 99.6734 45.3629 99.4001C44.8749 98.795 44.4617 98.1313 44.0063 97.5001C43.8143 97.2333 43.5996 96.9861 43.4109 96.7193C43.2059 96.433 43.0693 96.1142 42.8936 95.8116C42.4934 95.1219 42.0445 94.4647 41.6215 93.788C41.2864 93.2544 42.1323 92.7632 42.4642 93.2967L42.4609 93.3032Z" fill="#A55535"/>
<path d="M39.5034 96.3485C39.9459 96.9406 40.4111 97.5132 40.8634 98.0989C41.3026 98.6715 41.6312 99.3059 42.0964 99.8655C42.5323 100.393 42.7438 101.017 43.131 101.57C43.5604 102.185 44.0094 102.794 44.4291 103.415C44.7837 103.935 43.9378 104.423 43.5864 103.906C43.1765 103.304 42.7438 102.715 42.3274 102.12C42.1289 101.837 41.9825 101.554 41.8361 101.245C41.6832 100.913 41.4815 100.646 41.2473 100.37C40.7918 99.8297 40.4892 99.1985 40.0598 98.6454C39.5945 98.0468 39.1163 97.4547 38.6641 96.843C38.5046 96.6283 38.6315 96.2997 38.8397 96.1761C39.087 96.0297 39.3505 96.1403 39.5067 96.3518L39.5034 96.3485Z" fill="#A55535"/>
<path d="M38.9666 100.454C39.6499 101.44 40.3754 102.39 41.1074 103.337C41.462 103.796 41.7613 104.264 42.2005 104.645C42.6658 105.048 42.9846 105.549 43.388 106.008C43.8012 106.48 43.1115 107.173 42.6983 106.698C42.2949 106.239 41.976 105.738 41.5108 105.334C41.0456 104.931 40.7267 104.43 40.3559 103.945C39.985 103.46 39.5815 103.002 39.2367 102.497C38.8756 101.974 38.4884 101.469 38.124 100.946C37.7661 100.428 38.612 99.9403 38.9666 100.454Z" fill="#A55535"/>
<path d="M67.5086 116.002C67.154 115.859 66.7636 115.843 66.409 115.703C66.0478 115.56 65.7811 115.283 65.4427 115.111C65.1239 114.948 64.74 114.958 64.4016 114.838C63.9884 114.688 63.5883 114.483 63.1848 114.307C62.9441 114.203 62.8888 113.849 63.0092 113.64C63.1556 113.39 63.4321 113.361 63.6761 113.465C64.0437 113.621 64.4081 113.829 64.7953 113.94C65.1597 114.044 65.5305 114.066 65.8754 114.239C66.178 114.389 66.4155 114.649 66.7245 114.785C67.0531 114.932 67.4338 114.929 67.7689 115.062C68.0129 115.16 68.1853 115.387 68.1105 115.664C68.0454 115.898 67.7559 116.103 67.5086 116.006V116.002Z" fill="#A55535"/>
<path d="M52.325 103.825C52.0518 104.215 51.6646 104.508 51.4661 104.947C51.2644 105.393 51.0822 105.871 50.9489 106.34C50.8155 106.811 50.6398 107.241 50.4511 107.69C50.2461 108.188 50.2754 108.718 50.2006 109.242C50.1615 109.502 49.8329 109.645 49.5987 109.583C49.3189 109.505 49.2213 109.245 49.2571 108.981C49.3319 108.451 49.3059 107.937 49.5076 107.429C49.5987 107.198 49.7158 106.977 49.8037 106.746C49.898 106.499 49.9566 106.239 50.0314 105.985C50.1843 105.471 50.3925 104.944 50.6203 104.456C50.8285 104.01 51.2026 103.727 51.4792 103.333C51.6288 103.119 51.9054 103.018 52.1461 103.158C52.3608 103.281 52.4714 103.607 52.3218 103.825H52.325Z" fill="#A55535"/>
<path d="M87.423 121.598C88.5519 122.343 89.8435 122.792 90.9724 123.534C91.5515 123.914 92.225 124.054 92.8626 124.305C93.484 124.552 94.1152 124.832 94.7594 125.017C95.4198 125.209 96.1291 125.434 96.8155 125.512C97.5085 125.59 98.247 125.512 98.927 125.388C99.5874 125.271 100.163 125.102 100.69 124.673C101.24 124.227 101.631 123.732 101.959 123.108C102.262 122.529 102.431 121.855 102.61 121.227C102.805 120.537 103.01 119.841 103.267 119.171C103.371 118.904 103.495 118.647 103.599 118.384C103.726 118.058 103.788 117.717 103.895 117.385C103.989 117.095 104.132 116.845 104.289 116.585C104.477 116.272 104.539 115.986 104.588 115.628C104.676 115.003 104.926 114.349 105.164 113.764C105.287 113.458 105.431 113.162 105.483 112.833C105.535 112.485 105.548 112.14 105.629 111.796C105.792 111.109 105.893 110.436 106.006 109.739C106.058 109.424 106.153 109.118 106.224 108.806C106.309 108.435 106.322 108.054 106.371 107.677C106.465 106.906 106.621 106.131 106.872 105.396C107.119 104.677 107.35 103.913 107.47 103.161C107.529 102.797 107.62 102.465 107.776 102.13C107.932 101.791 108.124 101.486 108.209 101.118C108.294 100.757 108.346 100.405 108.515 100.07C108.69 99.7222 108.964 99.4326 109.156 99.091C109.465 98.5445 110.307 99.0357 109.998 99.5823C109.839 99.8654 109.627 100.109 109.458 100.386C109.257 100.714 109.234 101.079 109.139 101.443C108.964 102.117 108.541 102.657 108.424 103.353C108.31 104.049 108.098 104.719 107.9 105.396C107.692 106.102 107.503 106.779 107.379 107.508C107.317 107.865 107.301 108.227 107.252 108.584C107.204 108.952 107.103 109.303 107.021 109.665C106.859 110.367 106.82 111.086 106.644 111.786C106.472 112.476 106.472 113.168 106.195 113.832C105.932 114.46 105.652 115.163 105.544 115.836C105.496 116.155 105.457 116.454 105.32 116.75C105.177 117.06 104.952 117.323 104.842 117.648C104.738 117.958 104.682 118.283 104.568 118.589C104.445 118.921 104.282 119.233 104.162 119.568C103.918 120.248 103.719 120.944 103.511 121.634C103.313 122.301 103.13 122.984 102.805 123.602C102.2 124.754 101.188 125.818 99.903 126.179C99.2165 126.371 98.4813 126.472 97.772 126.491C97.0172 126.511 96.36 126.423 95.628 126.25C94.8375 126.065 94.1087 125.811 93.3507 125.528C92.9668 125.385 92.5894 125.232 92.2055 125.086C91.8443 124.949 91.4604 124.871 91.1058 124.721C90.7642 124.578 90.4779 124.354 90.1591 124.168C89.8142 123.967 89.4433 123.801 89.092 123.612C88.3697 123.225 87.6247 122.896 86.9349 122.441C86.4112 122.096 86.9024 121.25 87.4262 121.598H87.423Z" fill="#4E719B"/>
<path d="M76.4003 135.617C77.1454 136.183 77.9002 136.733 78.6354 137.312C79.3837 137.904 80.184 138.418 80.9453 138.991C81.6839 139.544 82.5167 140.051 83.3301 140.484C83.688 140.676 84.0719 140.8 84.4232 141.011C84.8494 141.268 85.2626 141.538 85.7083 141.763C86.5542 142.186 87.3383 142.709 88.1679 143.168C88.9942 143.627 89.915 143.887 90.7674 144.287C91.1578 144.469 91.5742 144.639 91.9418 144.863C92.3355 145.104 92.6641 145.341 93.1033 145.504C93.9915 145.829 94.8796 146.145 95.7808 146.438C96.1745 146.565 96.5161 146.77 96.887 146.945C97.3197 147.154 97.8207 147.293 98.2827 147.424C98.7187 147.544 99.1644 147.583 99.6003 147.716C100.053 147.853 100.508 147.98 100.964 148.11C101.878 148.374 102.824 148.517 103.768 148.637C104.705 148.761 105.655 148.702 106.598 148.77C107.561 148.839 108.485 148.731 109.439 148.582C109.881 148.513 110.337 148.481 110.772 148.39C111.218 148.299 111.599 148.042 112.028 147.899C112.419 147.768 112.838 147.762 113.216 147.593C113.642 147.401 114.091 147.141 114.472 146.87C115.181 146.363 115.936 145.924 116.609 145.367C116.993 145.052 117.266 144.678 117.585 144.304C117.92 143.913 118.317 143.578 118.649 143.184C118.974 142.797 119.251 142.378 119.612 142.02C119.98 141.655 120.256 141.271 120.536 140.835C120.829 140.383 121.203 139.964 121.44 139.479C121.639 139.075 121.733 138.639 121.977 138.255C122.267 137.797 122.511 137.393 122.69 136.876C122.872 136.355 123.031 135.832 123.155 135.295C123.295 134.683 124.235 134.94 124.095 135.555C123.887 136.463 123.63 137.514 123.122 138.304C122.898 138.656 122.677 138.961 122.53 139.358C122.355 139.833 122.137 140.234 121.841 140.65C121.564 141.037 121.317 141.441 121.047 141.831C120.786 142.212 120.471 142.521 120.155 142.853C119.836 143.188 119.586 143.581 119.287 143.933C118.952 144.323 118.555 144.652 118.226 145.045C117.65 145.735 117.045 146.334 116.281 146.825C115.509 147.319 114.774 147.86 113.971 148.299C113.593 148.504 113.226 148.634 112.806 148.718C112.328 148.813 111.934 149.011 111.488 149.19C111.059 149.363 110.61 149.385 110.154 149.447C109.66 149.516 109.172 149.594 108.677 149.655C108.209 149.714 107.74 149.808 107.265 149.799C106.768 149.786 106.273 149.733 105.772 149.727C104.806 149.714 103.849 149.642 102.893 149.489C101.9 149.33 100.944 149.132 99.9777 148.855C99.0635 148.595 98.1363 148.416 97.2351 148.117C96.7894 147.97 96.3892 147.785 95.9728 147.573C95.5336 147.352 95.0488 147.258 94.5868 147.088C94.1671 146.936 93.7442 146.792 93.3245 146.63C92.8625 146.451 92.3615 146.317 91.9418 146.051C91.5612 145.81 91.2098 145.589 90.8031 145.393C90.3444 145.175 89.8857 144.98 89.4139 144.795C88.4932 144.427 87.6116 144.001 86.7559 143.503C86.2809 143.227 85.8352 142.924 85.3407 142.677C84.8494 142.433 84.3939 142.14 83.9222 141.86C83.4927 141.603 83.0178 141.447 82.5883 141.193C82.1166 140.917 81.6513 140.63 81.1893 140.338C80.7501 140.055 80.3402 139.749 79.9238 139.436C79.4813 139.108 78.9998 138.835 78.5606 138.506C77.6692 137.836 76.7907 137.143 75.9026 136.469C75.4081 136.095 75.8928 135.246 76.3938 135.627L76.4003 135.617Z" fill="#4E719B"/>
<path d="M72.4147 127.767C72.4668 128.434 72.47 129.1 72.5384 129.771C72.6067 130.441 72.7693 131.085 72.7986 131.759C72.8572 133.066 73.1858 134.368 73.368 135.663C73.5502 136.967 73.651 138.272 73.8885 139.573C74.0089 140.23 73.9894 140.92 74.1455 141.564C74.3049 142.215 74.4611 142.862 74.5815 143.523C74.6954 144.138 73.7551 144.401 73.6413 143.783C73.5209 143.123 73.3615 142.475 73.2053 141.825C73.0459 141.174 73.0687 140.494 72.9483 139.833C72.8279 139.183 72.701 138.526 72.6262 137.865C72.5481 137.175 72.5091 136.479 72.4082 135.793C72.213 134.482 71.8877 133.157 71.8291 131.83C71.7998 131.157 71.6437 130.509 71.5721 129.842C71.4973 129.149 71.494 128.46 71.442 127.767C71.3932 127.139 72.3692 127.142 72.418 127.767H72.4147Z" fill="#4E719B"/>
<path d="M66.0446 127.701C65.9048 128.183 65.8462 128.691 65.6347 129.146C65.5404 129.348 65.4135 129.533 65.3159 129.732C65.1988 129.972 65.15 130.233 65.0914 130.493C64.9873 130.974 64.8637 131.453 64.7465 131.931C64.6327 132.399 64.3887 132.796 64.2325 133.245C64.0731 133.704 64.0763 134.199 63.8974 134.651C63.7217 135.096 63.52 135.523 63.3638 135.978C63.0287 136.954 62.7327 137.943 62.4236 138.929C62.2349 139.524 61.2914 139.271 61.4834 138.669C61.7957 137.683 62.0885 136.694 62.4236 135.718C62.5733 135.285 62.749 134.878 62.9279 134.456C63.1296 133.984 63.1263 133.466 63.2923 132.985C63.4387 132.559 63.6762 132.178 63.7868 131.742C63.9137 131.241 64.0373 130.737 64.1512 130.233C64.2553 129.761 64.4017 129.367 64.6359 128.948C64.8995 128.479 64.9548 127.952 65.1044 127.441C65.2801 126.839 66.2236 127.096 66.0446 127.701Z" fill="#4E719B"/>
<path d="M62.9051 127.265C62.7294 127.474 62.596 127.711 62.4333 127.929C62.2349 128.193 62.0039 128.437 61.7859 128.687C61.5939 128.905 61.402 129.12 61.1808 129.309C60.979 129.478 60.7643 129.64 60.6212 129.865C60.4845 130.08 60.3739 130.307 60.221 130.512C60.0388 130.756 59.8111 130.929 59.5671 131.105C59.3621 131.251 59.2125 131.394 59.0888 131.612C58.9457 131.859 58.8155 132.1 58.6301 132.321C58.4609 132.523 58.1128 132.497 57.9404 132.321C57.7387 132.12 57.7712 131.833 57.9404 131.632C58.0998 131.44 58.1909 131.192 58.3275 130.984C58.4935 130.727 58.6984 130.538 58.9424 130.356C59.1214 130.223 59.3133 130.106 59.45 129.924C59.6094 129.709 59.7102 129.458 59.8696 129.24C60.0388 129.009 60.2438 128.83 60.4585 128.645C60.6927 128.446 60.8945 128.225 61.0962 127.994C61.2979 127.767 61.5159 127.545 61.6915 127.298C61.864 127.054 62.0234 126.804 62.2153 126.576C62.3845 126.374 62.7294 126.4 62.9051 126.576C63.1035 126.774 63.0775 127.064 62.9051 127.265Z" fill="#4E719B"/>
<path d="M105.499 96.5665C105.792 96.3582 106.052 96.111 106.338 95.893C106.624 95.6783 106.947 95.5091 107.223 95.2781C107.496 95.0471 107.763 94.8064 108.02 94.5559C108.258 94.3281 108.528 94.0874 108.632 93.775C108.733 93.466 108.599 93.1536 108.459 92.8608C108.326 92.5778 108.189 92.2492 107.929 92.0735C107.535 91.8067 107.073 91.7742 106.654 91.6831C106.211 91.5855 105.749 91.5497 105.349 91.3773C104.978 91.2179 104.62 90.9316 104.354 90.4728C104.084 90.0141 104.132 89.5294 104.005 89.1389C103.879 88.7518 103.631 88.4134 103.091 88.1369C102.792 87.984 102.431 87.8799 102.05 87.8636C101.709 87.8473 101.347 87.9742 100.983 88.023C100.625 88.0718 100.251 88.0523 99.9094 88.1239C99.5255 88.2052 99.1774 88.3484 98.8716 88.4069C98.4714 88.4818 98.0582 88.4687 97.658 88.5338C97.2579 88.5989 96.8772 88.8071 96.4771 88.8624C96.0736 88.9177 95.6637 88.8949 95.2603 88.9372C94.8569 88.9828 94.4534 89.0153 94.05 89.0478C93.6466 89.0804 93.2399 89.0967 92.8365 89.1194C92.4331 89.1455 92.0264 89.1455 91.6197 89.1617C91.2131 89.178 90.8096 89.2073 90.403 89.2138C89.9963 89.2203 89.5929 89.1682 89.1862 89.165C88.3891 89.1585 88.028 89.2235 87.8425 89.2919C87.54 89.4057 87.7189 89.6953 87.2407 90.4598C87.0064 90.834 86.6551 91.0585 86.2842 91.2699C85.91 91.4846 85.5749 91.7514 85.2561 92.0084C84.9438 92.2622 84.6249 92.5225 84.5468 93.017C84.4883 93.3911 84.6575 93.8011 84.8331 94.224C84.9861 94.5982 85.191 94.9755 85.409 95.3302C85.6465 95.7206 85.9165 96.0719 86.0922 96.381C86.2939 96.7389 86.4761 97.1033 86.6746 97.4611C86.873 97.819 87.0975 98.1639 87.2895 98.5217C87.4814 98.8829 87.5725 99.2993 87.758 99.6604C87.9434 100.025 88.1288 100.389 88.3078 100.757C88.4867 101.124 88.7242 101.466 88.8901 101.837C89.0561 102.208 89.1504 102.615 89.3066 102.992C89.4627 103.369 89.6905 103.717 89.8336 104.101C89.9768 104.482 90.1232 104.866 90.2501 105.256C90.3444 105.546 90.4843 105.881 90.6242 106.239C90.7511 106.561 90.8031 106.935 90.9853 107.231C91.1773 107.547 91.4603 107.765 91.7271 107.963C92.0069 108.171 92.2964 108.367 92.6771 108.344C92.9764 108.324 93.3017 108.106 93.6629 107.869C93.9492 107.68 94.2192 107.423 94.5088 107.173C94.7918 106.925 95.1106 106.714 95.3611 106.47C95.6735 106.164 96.0151 105.959 96.2168 105.767C96.4836 105.51 96.7438 105.24 96.9944 104.97C97.2481 104.7 97.375 104.316 97.6158 104.036C97.8565 103.756 98.2144 103.574 98.4486 103.288C98.6861 103.005 98.8293 102.641 99.0635 102.358C99.2978 102.071 99.5775 101.824 99.8183 101.541C100.056 101.258 100.336 101.011 100.583 100.737C100.83 100.464 101.006 100.119 101.266 99.8556C101.526 99.5921 101.852 99.4002 102.128 99.1529C102.395 98.9187 102.685 98.717 102.964 98.499C103.244 98.281 103.504 98.0402 103.791 97.832C104.077 97.6238 104.305 97.331 104.594 97.126C104.884 96.9211 105.206 96.7649 105.495 96.5599L105.499 96.5665Z" fill="white"/>
</g>
</g>
<path d="M56.4911 75.1375C56.0906 75.3508 55.6899 75.5515 55.2791 75.7449C54.8657 75.9333 54.4963 76.2312 54.0725 76.3873C53.6437 76.5458 53.1964 76.6321 52.7622 76.7557C52.3279 76.8793 51.8993 77.0504 51.4572 77.1466C51.0151 77.2428 50.5462 77.2017 50.0987 77.2754C49.6488 77.3442 49.2092 77.4454 48.7613 77.4816C48.3135 77.5178 47.8559 77.5841 47.4051 77.5903C46.9544 77.5965 46.4986 77.6053 46.045 77.5815C45.5913 77.5577 45.1421 77.4938 44.6931 77.4424C44.2441 77.3911 43.797 77.2946 43.3551 77.2081C42.9131 77.1215 42.4805 76.9798 42.0432 76.8657C41.6059 76.7516 41.1542 76.6827 40.7265 76.5384C40.2989 76.3941 39.8541 76.2776 39.436 76.1031C39.018 75.9287 38.6462 75.6485 38.2404 75.4488C37.8346 75.2491 37.4314 75.0545 37.0402 74.8221C36.6515 74.5946 36.2727 74.3496 35.8986 74.0894C35.5246 73.8292 35.1902 73.536 34.836 73.253C34.4817 72.9701 34.0979 72.7276 33.7633 72.4218C33.4288 72.116 33.0845 71.8279 32.7697 71.4994C32.4549 71.1708 32.1897 70.804 31.9022 70.4551C31.6147 70.1061 31.2975 69.7851 31.0298 69.4133C30.762 69.0416 30.4721 68.7002 30.2292 68.3156C29.9864 67.9309 29.7783 67.5283 29.5604 67.1309C29.3424 66.7334 29.1716 66.3052 28.986 65.8973C28.8005 65.4894 28.6197 65.0664 28.4591 64.6456C28.2984 64.2248 28.1401 63.7965 28.0119 63.3652C27.8836 62.934 27.8702 62.4686 27.7694 62.0295C27.6686 61.5904 27.5953 61.1433 27.5295 60.6987C27.4637 60.2541 27.3178 59.8131 27.282 59.3656C27.2462 58.918 27.2429 58.46 27.2371 58.0096C27.2314 57.5591 27.3133 57.1075 27.3401 56.6591C27.3669 56.2107 27.3586 55.7553 27.4105 55.3065C27.4623 54.8578 27.5845 54.4231 27.669 53.9764C27.756 53.5347 27.7426 53.0693 27.8572 52.6322C27.9719 52.1952 28.177 51.7869 28.3268 51.3568C28.4717 50.9293 28.5837 50.4872 28.7538 50.0719C28.9238 49.6566 29.1542 49.2605 29.3569 48.8597C29.5597 48.4589 29.6867 48.0092 29.9197 47.618C30.1477 47.2294 30.4715 46.8921 30.7272 46.5206C30.983 46.1492 31.2185 45.763 31.4994 45.4037C31.7804 45.0444 32.0589 44.6927 32.3652 44.358C32.6716 44.0234 33.0185 43.7308 33.3476 43.4159C33.6767 43.101 34.0187 42.811 34.3656 42.5184C34.7075 42.2283 35.0952 41.9902 35.46 41.7199C35.8247 41.4496 36.1411 41.1223 36.5263 40.8793C36.9064 40.6387 37.3275 40.4653 37.7305 40.2445C38.1334 40.0237 38.5444 39.8428 38.9528 39.657C39.3612 39.4711 39.7616 39.2454 40.1854 39.0894C40.6092 38.9333 41.0484 38.8072 41.4801 38.6786C41.9168 38.5474 42.3404 38.3789 42.78 38.2777C43.2221 38.1815 43.6855 38.1877 44.1305 38.1215C44.5756 38.0553 45.0257 37.999 45.4786 37.9603C45.9314 37.9215 46.3799 37.9353 46.8307 37.9291C47.2815 37.9229 47.7344 37.8842 48.188 37.9079C48.6417 37.9317 49.0836 38.0183 49.5352 38.0746C49.9868 38.131 50.4448 38.1022 50.8867 38.1887C51.3287 38.2752 51.7806 38.3566 52.2179 38.4707C52.6552 38.5848 53.083 38.7416 53.5106 38.8859C53.9383 39.0302 54.3781 39.1493 54.7961 39.3238C55.2142 39.4982 55.5981 39.7532 56.004 39.9529C56.4098 40.1526 56.823 40.3421 57.2116 40.5695C57.6003 40.797 57.9767 41.0496 58.3531 41.3022C58.7296 41.5548 59.0541 41.8657 59.4134 42.1461C59.7727 42.4265 60.1342 42.6868 60.4737 42.99C60.8132 43.2932 61.1278 43.6093 61.4426 43.9378C61.7574 44.2664 62.0597 44.5951 62.3521 44.9415C62.6446 45.2879 62.9172 45.6446 63.1824 46.0113C63.4475 46.3781 63.7599 46.7142 64.0028 47.0988C64.2457 47.4834 64.471 47.8708 64.6866 48.2758C64.9022 48.6808 65.0479 49.1093 65.2335 49.5173C65.419 49.9252 65.6047 50.3456 65.7654 50.7664C65.9261 51.1872 66.0569 51.6234 66.1851 52.0547C66.3134 52.4859 66.3943 52.9353 66.4951 53.3744C66.5959 53.8136 66.7817 54.2465 66.8525 54.6886C66.9233 55.1306 66.8391 55.6023 66.8749 56.0499C66.9107 56.4974 66.924 56.9502 66.9297 57.4007C66.9355 57.8511 67.0766 58.3072 67.0523 58.7606C67.0281 59.214 66.9662 59.6679 66.9118 60.1116C66.8573 60.5554 66.7077 60.998 66.6207 61.4397C66.5336 61.8814 66.3964 62.3113 66.2817 62.7484C66.1671 63.1855 66.0272 63.6104 65.8774 64.0405C65.7276 64.4705 65.618 64.905 65.443 65.3229C65.268 65.7408 65.0828 66.1514 64.8826 66.5571C64.6824 66.9628 64.4368 67.3416 64.2114 67.7352C63.9834 68.1238 63.8034 68.5443 63.5427 68.9183C63.282 69.2923 62.9529 69.6072 62.6743 69.959C62.3958 70.3107 62.1097 70.66 61.8034 70.9946C61.502 71.3267 61.249 71.7156 60.9199 72.0305C60.5908 72.3454 60.2336 72.6181 59.8867 72.9107C59.5397 73.2034 59.1851 73.4811 58.8204 73.7514C58.458 74.0142 58.0601 74.2324 57.6749 74.4755C57.2948 74.716 56.8966 74.9217 56.4937 75.1425L56.4911 75.1375Z" fill="white"/>
<path d="M53.2678 69.1957C53.8537 69.4613 53.9024 69.3628 54.4846 69.6326C55.0667 69.9025 55.0741 69.894 55.6605 70.1676C56.2463 70.4332 56.2086 70.5191 56.7945 70.7847C57.3803 71.0504 57.3735 71.0667 57.9594 71.3323C58.5452 71.598 58.5458 71.6059 59.1316 71.8715C59.7175 72.1372 59.752 72.0634 60.3384 72.3369C60.9248 72.6104 60.8934 72.6721 61.4834 72.9414C62.0735 73.2107 62.0735 73.2107 62.6557 73.4806C63.2379 73.7504 63.2211 73.7952 63.8075 74.0688C64.3939 74.3423 64.4075 74.3096 65.0013 74.5747C65.5449 74.8036 66.1173 74.59 66.4044 74.2094C66.6915 73.8288 66.6995 73.2569 66.3302 72.794C65.8958 72.2522 65.9594 72.1963 65.525 71.6545C65.0907 71.1127 65.0455 71.1476 64.6111 70.6058C64.1767 70.064 64.2067 70.0381 63.7723 69.4963C63.338 68.9546 63.2702 69.0068 62.8358 68.465C62.4014 67.9232 62.4614 67.8715 62.0307 67.3255C61.6 66.7795 61.5511 66.8186 61.1125 66.2731C60.6739 65.7276 60.6556 65.7487 60.2207 65.199C59.7821 64.6536 59.8725 64.5839 59.4339 64.0384" fill="white"/>
<path d="M49.0778 70.3762L49.3095 50.8314C49.3382 48.4113 51.3082 46.4645 53.7285 46.4645V46.4645C56.1692 46.4645 58.1478 48.4431 58.1478 50.8838L58.1478 55.2376" stroke="#BDBDBD" stroke-width="1.10239" stroke-linecap="round" stroke-linejoin="round"/>
<path d="M49.3612 51.4117L49.3612 50.8577C49.3612 48.4314 51.3281 46.4645 53.7545 46.4645V46.4645C56.1808 46.4645 58.1477 48.4314 58.1477 50.8577L58.1477 51.4117" stroke="url(#paint0_linear_7044_26219)" stroke-width="1.10239" stroke-linecap="round" stroke-linejoin="round"/>
<path d="M46.3022 45.0996C46.5535 45.1508 46.7425 45.3733 46.7427 45.6396C46.7427 45.9061 46.5536 46.1284 46.3022 46.1797L46.1919 46.1904H42.2075V70.376C42.2074 70.6803 41.9611 70.9268 41.6567 70.9268C41.3524 70.9267 41.1061 70.6803 41.106 70.376V46.1904H37.1216C36.8173 46.1903 36.5708 45.944 36.5708 45.6396C36.571 45.3355 36.8174 45.089 37.1216 45.0889H46.1919L46.3022 45.0996Z" fill="#BDBDBD"/>
<ellipse cx="41.6656" cy="70.3934" rx="0.833216" ry="0.841629" fill="#333333"/>
<ellipse cx="49.0863" cy="70.3934" rx="0.833216" ry="0.841629" fill="#333333"/>
<path d="M38.771 45.64L44.5428 45.64" stroke="url(#paint1_linear_7044_26219)" stroke-width="1.10239" stroke-linecap="round" stroke-linejoin="round"/>
<defs>
<linearGradient id="paint0_linear_7044_26219" x1="51.8324" y1="47.3406" x2="53.541" y2="51.7604" gradientUnits="userSpaceOnUse">
<stop stop-color="#FF8120"/>
<stop offset="1" stop-color="#E54304"/>
</linearGradient>
<linearGradient id="paint1_linear_7044_26219" x1="40.3943" y1="45.8171" x2="40.5148" y2="46.8297" gradientUnits="userSpaceOnUse">
<stop stop-color="#FF8120"/>
<stop offset="1" stop-color="#E54304"/>
</linearGradient>
<clipPath id="clip0_7044_26219">
<rect width="101.63" height="103.125" fill="white" transform="translate(34 46.875)"/>
</clipPath>
<clipPath id="clip1_7044_26219">
<rect width="101.63" height="104.62" fill="white" transform="translate(34 46.1277)"/>
</clipPath>
</defs>
</svg>
