<svg width="62" height="62" viewBox="0 0 62 62" fill="none" xmlns="http://www.w3.org/2000/svg">
<path d="M37.5768 11.5111C40.0165 11.5112 42.1799 13.0792 42.9391 15.3978L52.9977 46.1195C53.2196 46.7974 52.8503 47.5274 52.1725 47.7494C51.4947 47.9713 50.7647 47.6019 50.5426 46.9242L45.2184 30.6635L40.5944 36.2689C40.349 36.5663 39.9838 36.7386 39.5983 36.7386H39.0377L43.6793 50.4584C43.908 51.1341 43.5455 51.8674 42.8698 52.0961C42.1941 52.3244 41.4616 51.9621 41.233 51.2865L36.3112 36.7386H23.0592L21.5026 46.7211C21.3925 47.4257 20.7326 47.908 20.028 47.7982C19.3231 47.6883 18.8409 47.0275 18.9508 46.3226L20.4449 36.7386H14.7877C14.6899 36.7386 14.5951 36.7261 14.5035 36.7054L12.1881 51.0785C12.0745 51.7826 11.4108 52.2613 10.7067 52.1478C10.0027 52.0341 9.52401 51.3714 9.63733 50.6674L14.3053 21.6947C14.7459 18.9602 17.1059 16.9497 19.8756 16.9496H23.5299L23.6334 16.2845C24.0618 13.5372 26.4281 11.5113 29.2086 11.5111H37.5768ZM19.8756 19.5326C18.374 19.5327 17.0949 20.6233 16.8561 22.1058L14.9147 34.1556H20.8473L23.1276 19.5326H19.8756ZM23.4616 34.1556H35.4371L34.1696 30.4105H24.0455L23.4616 34.1556ZM38.1637 34.1556H38.9889L42.0787 30.4105H36.8961L38.1637 34.1556ZM24.4489 27.8265H33.2955L31.193 21.6117C30.7726 20.3692 29.6063 19.5326 28.2946 19.5326H25.7418L24.4489 27.8265ZM29.2086 14.0941C27.7013 14.0943 26.4185 15.1927 26.1862 16.682L26.1442 16.9496H28.2946C30.7138 16.9496 32.8638 18.492 33.6393 20.7836L36.0221 27.8265H44.2897L40.484 16.2015C40.0724 14.9446 38.8994 14.0942 37.5768 14.0941H29.2086Z" fill="#BDBDBD"/>
<path d="M27.8407 12.5355C27.8407 11.5161 28.6671 10.6897 29.6865 10.6897H36.4369C37.4563 10.6897 38.2827 11.5161 38.2827 12.5355C38.2827 13.5549 37.4563 14.3813 36.4369 14.3813H29.6865C28.6671 14.3813 27.8407 13.5549 27.8407 12.5355Z" fill="url(#paint0_linear_5636_1481)"/>
<path d="M18.5274 17.9741C18.5274 16.9547 19.3538 16.1283 20.3732 16.1283H27.1236C28.1431 16.1283 28.9695 16.9547 28.9695 17.9741C28.9695 18.9935 28.1431 19.8199 27.1236 19.8199H20.3732C19.3538 19.8199 18.5274 18.9935 18.5274 17.9741Z" fill="url(#paint1_linear_5636_1481)"/>
<ellipse cx="42.4578" cy="50.7039" rx="1.30525" ry="1.31843" fill="#333333"/>
<ellipse cx="11.1317" cy="50.7041" rx="1.30525" ry="1.31843" fill="#333333"/>
<ellipse cx="51.9879" cy="46.8149" rx="1.30525" ry="1.31843" fill="#333333"/>
<ellipse cx="20.1181" cy="46.8149" rx="1.30525" ry="1.31843" fill="#333333"/>
<defs>
<linearGradient id="paint0_linear_5636_1481" x1="30.7775" y1="11.3434" x2="31.6465" y2="14.9234" gradientUnits="userSpaceOnUse">
<stop stop-color="#FF8120"/>
<stop offset="1" stop-color="#E54304"/>
</linearGradient>
<linearGradient id="paint1_linear_5636_1481" x1="21.4642" y1="16.782" x2="22.3332" y2="20.362" gradientUnits="userSpaceOnUse">
<stop stop-color="#FF8120"/>
<stop offset="1" stop-color="#E54304"/>
</linearGradient>
</defs>
</svg>
