<svg width="55" height="55" viewBox="0 0 55 55" fill="none" xmlns="http://www.w3.org/2000/svg">
<g clip-path="url(#clip0_5637_907)">
<path d="M21.8013 8.75891C24.8925 8.75891 26.3242 10.9208 27.0354 12.2104C27.7465 10.9208 29.1783 8.75891 32.2695 8.75891C35.3606 8.75891 37.6932 10.7975 37.6932 14.1162C37.6932 17.4349 35.8916 20.2701 33.7581 22.432C31.7479 24.4706 28.7327 26.5282 27.0449 26.5282C25.3571 26.5282 22.3418 24.4706 20.3316 22.432C18.1887 20.2701 16.3966 17.3401 16.3966 14.1162C16.3966 10.8924 18.7102 8.75891 21.8013 8.75891Z" fill="url(#paint0_linear_5637_907)"/>
<path d="M22.9538 18.8477H22.517C22.2886 18.8477 22.1 18.6654 22.1 18.4448V18.2433C22.1 18.0226 22.2886 17.8403 22.517 17.8403C22.785 17.8403 22.9836 17.6005 22.924 17.3511L22.3581 15.0485C22.2985 14.7991 22.4971 14.5592 22.7652 14.5592H23.4105C23.6091 14.5592 23.7779 14.6935 23.8176 14.8758L24.3835 17.5237C24.4232 17.706 24.592 17.8403 24.7906 17.8403H25.1579C25.3565 17.8403 25.5154 17.706 25.565 17.5237L26.1905 14.8566C26.2302 14.6744 26.399 14.54 26.5976 14.54H27.3323C27.5209 14.54 27.6897 14.6648 27.7394 14.847L28.3748 17.5142C28.4145 17.6964 28.5833 17.8212 28.7818 17.8212H29.1591C29.3577 17.8212 29.5265 17.6868 29.5662 17.5046L30.1321 14.8566C30.1718 14.6744 30.3406 14.54 30.5392 14.54H31.1548C31.4228 14.54 31.6214 14.7799 31.5618 15.0293L30.9959 17.3319C30.9363 17.5813 31.1349 17.8212 31.403 17.8212C31.6313 17.8212 31.82 18.0034 31.82 18.2241V18.4256C31.82 18.6462 31.6313 18.8285 31.403 18.8285H30.9661C30.7775 18.8285 30.6087 18.9532 30.559 19.1355L29.9038 21.793C29.8641 21.9753 29.6953 22.1 29.4967 22.1H28.5833C28.3847 22.1 28.2259 21.9657 28.1762 21.7834L27.5606 19.1355C27.5209 18.9532 27.3521 18.8189 27.1536 18.8189H26.7564C26.5579 18.8189 26.399 18.9532 26.3494 19.1355L25.7338 21.7834C25.6941 21.9657 25.5253 22.1 25.3267 22.1H24.4133C24.2247 22.1 24.0559 21.9753 24.0062 21.793L23.351 19.1355C23.3112 18.9532 23.1425 18.8285 22.9439 18.8285L22.9538 18.8477ZM24.9097 20.0278H24.9792L25.2572 18.8477H24.6615L24.9197 20.0278H24.9097ZM27.2429 17.8499L26.9848 16.7562H26.9153L26.6571 17.8499H27.233H27.2429ZM28.9606 20.0278H29.0301L29.2882 18.8477H28.6925L28.9705 20.0278H28.9606Z" fill="white"/>
<path d="M21.8013 8.75891C24.8925 8.75891 26.3242 10.9208 27.0354 12.2104C27.7465 10.9208 29.1783 8.75891 32.2695 8.75891C35.3606 8.75891 37.6932 10.7975 37.6932 14.1162C37.6932 17.4349 35.8916 20.2701 33.7581 22.432C31.7479 24.4706 28.7327 26.5282 27.0449 26.5282C25.3571 26.5282 22.3418 24.4706 20.3316 22.432C18.1887 20.2701 16.3966 17.3401 16.3966 14.1162C16.3966 10.8924 18.7102 8.75891 21.8013 8.75891Z" fill="url(#paint1_linear_5637_907)"/>
</g>
<path d="M46.1739 26.5085C45.6693 26.0039 44.8313 25.4272 43.2815 26.2111C43.2635 26.2201 43.2455 26.2291 43.2274 26.2471L34.1177 32.6356C34.0457 31.3291 33.0815 30.4911 31.5137 30.392L22.0165 29.4099C21.9264 29.4099 19.7459 29.2387 17.9618 30.1938L12.8798 32.7167L13.2763 33.5277L16.2498 39.6729L16.6462 40.5019C17.0157 40.3938 17.5293 40.2496 18.0429 40.1415C18.4123 40.0694 21.6111 40.0784 24.4314 40.0874C31.2794 40.1144 34.2259 40.0874 34.7485 39.8621C35.6766 39.4657 44.3357 31.0408 46.0838 29.3378C46.9128 28.4277 46.7956 27.1662 46.1919 26.4994L46.1739 26.5085Z" fill="#E0E0E0"/>
<path d="M17.1239 41.5381L16.6283 40.5109L16.2319 39.6819L13.2584 33.5367L12.8619 32.7258L12.4294 31.8247C12.3754 31.7166 12.2852 31.6355 12.1681 31.5904C12.051 31.5544 11.9338 31.5544 11.8257 31.6084L7.65381 33.6178C7.42855 33.7259 7.33844 33.9963 7.44657 34.2215L12.1411 43.9349C12.1951 44.043 12.2852 44.1241 12.4024 44.1692C12.4474 44.1872 12.5015 44.1962 12.5556 44.1962C12.6186 44.1962 12.6907 44.1782 12.7538 44.1512L16.9257 42.1418C17.151 42.0337 17.2411 41.7634 17.1329 41.5381H17.1239Z" fill="#E0E0E0"/>
<path d="M21.1335 34.7172L32.1445 34.4829C32.1445 34.4829 33.8024 34.2036 33.8204 32.5907C33.8294 31.203 32.9014 30.9507 32.2706 30.6984C31.6399 30.4461 22.359 29.6893 22.359 29.6893C22.359 29.6893 20.1153 29.5811 18.6016 30.2299C15.8353 31.4013 13.1592 32.87 13.1592 32.87" fill="#E0E0E0"/>
<defs>
<linearGradient id="paint0_linear_5637_907" x1="22.3862" y1="11.9056" x2="30.2565" y2="25.6443" gradientUnits="userSpaceOnUse">
<stop stop-color="#FF8120"/>
<stop offset="1" stop-color="#E54304"/>
</linearGradient>
<linearGradient id="paint1_linear_5637_907" x1="22.3862" y1="11.9056" x2="30.2565" y2="25.6443" gradientUnits="userSpaceOnUse">
<stop stop-color="#FF8120"/>
<stop offset="1" stop-color="#E54304"/>
</linearGradient>
<clipPath id="clip0_5637_907">
<rect width="41.3036" height="37.4823" fill="white" transform="translate(7.79634 8.75891)"/>
</clipPath>
</defs>
</svg>
