<svg width="54" height="53" viewBox="0 0 54 53" fill="none" xmlns="http://www.w3.org/2000/svg">
<g id="icon_01">
<g id="Group 184929">
<g id="Group">
<path id="Vector" d="M23.358 29.7268C27.2274 29.7268 30.3641 26.7771 30.3641 23.1384C30.3641 19.4998 27.2274 16.55 23.358 16.55C19.4887 16.55 16.352 19.4998 16.352 23.1384C16.352 26.7771 19.4887 29.7268 23.358 29.7268Z" fill="#FFC77D"/>
<path id="Vector_2" d="M13.3381 43.55C11.9369 43.55 10.8 42.5804 10.8 41.387C10.8 34.9478 16.4577 29.6522 23.358 29.6522C30.2583 29.6522 35.916 34.9229 35.916 41.387C35.916 42.5804 34.7792 43.55 33.378 43.55H13.3645H13.3381Z" fill="#EEEEEE"/>
</g>
<g id="Group_2">
<path id="Vector_3" d="M34.7105 5.86662C34.7105 5.86662 34.6522 5.78887 34.6134 5.75C34.5745 5.80831 34.5162 5.86662 34.4773 5.92493C32.728 9.01533 28.5492 11.2505 23.5929 11.4838V17.7034C23.5929 29.307 34.6134 32.0864 34.6134 32.0864C34.6134 32.0864 45.6339 29.307 45.6339 17.7034V11.4838C40.6387 11.2505 36.4404 8.99589 34.7105 5.86662Z" fill="url(#paint0_linear_5620_1897)"/>
<path id="Vector_4" d="M29.696 19.0057L33.2723 22.893L39.939 16.3429" stroke="white" stroke-width="1.79447" stroke-linecap="round" stroke-linejoin="round"/>
</g>
</g>
</g>
<defs>
<linearGradient id="paint0_linear_5620_1897" x1="29.7919" y1="10.4137" x2="43.0535" y2="26.5791" gradientUnits="userSpaceOnUse">
<stop stop-color="#FF8120"/>
<stop offset="1" stop-color="#E54304"/>
</linearGradient>
</defs>
</svg>
