<svg width="155" height="43" viewBox="0 0 155 43" fill="none" xmlns="http://www.w3.org/2000/svg">
<path fill-rule="evenodd" clip-rule="evenodd" d="M54.1894 26.1058C53.0884 25.4865 52.2282 24.6263 51.6089 23.5597C50.9552 22.4931 50.6455 21.2889 50.6455 19.947C50.6455 18.6052 50.9552 17.4353 51.6089 16.3343C52.2626 15.2677 53.1228 14.4076 54.1894 13.7882C55.2904 13.1689 56.4602 12.8593 57.7333 12.8593C58.7655 12.8593 59.7289 13.0313 60.589 13.4098C61.4492 13.7882 62.2061 14.3043 62.7911 14.9581L61.346 16.4031C60.417 15.3709 59.2128 14.8548 57.6989 14.8548C56.8043 14.8548 55.9785 15.0613 55.2216 15.4742C54.4646 15.887 53.8453 16.5064 53.398 17.2977C52.9508 18.0891 52.7099 18.9836 52.7099 19.9814C52.7099 20.9792 52.9508 21.8738 53.398 22.6651C53.8453 23.4565 54.4646 24.0414 55.2216 24.4543C55.9785 24.8672 56.8043 25.0736 57.6989 25.0736C59.1095 25.0736 60.2794 24.6263 61.1739 23.7318C61.4492 23.4565 61.69 23.1124 61.8965 22.6651C62.1029 22.2523 62.2405 21.7706 62.3094 21.2545H57.6645V19.3965H64.2361C64.305 19.8094 64.3394 20.1879 64.3394 20.4975C64.3394 21.3577 64.2017 22.1835 63.9265 22.9404C63.6512 23.7318 63.2383 24.3855 62.6534 25.0048C62.0341 25.6585 61.3116 26.1746 60.4858 26.5187C59.6256 26.8628 58.6967 27.0348 57.6301 27.0348C56.4602 27.0348 55.256 26.7251 54.1894 26.1058ZM68.4682 26.3458C67.7112 25.8986 67.0919 25.2792 66.679 24.4879C66.2662 23.6965 66.0253 22.8364 66.0253 21.873C66.0253 20.9096 66.2318 20.0494 66.679 19.2581C67.0919 18.4667 67.7112 17.8474 68.4682 17.4001C69.2251 16.9528 70.1197 16.712 71.0831 16.712C72.0465 16.712 72.9066 16.9528 73.6636 17.4001C74.4205 17.8474 75.0399 18.4667 75.4527 19.2581C75.8656 20.0494 76.1065 20.9096 76.1065 21.8386C76.1065 22.802 75.9 23.6621 75.4527 24.4535C75.0399 25.2448 74.4205 25.8641 73.6636 26.3114C72.9066 26.7587 72.0465 26.9996 71.0487 26.9996C70.0853 27.034 69.2251 26.7931 68.4682 26.3458ZM72.5626 24.7631C73.0099 24.4879 73.3883 24.1094 73.6636 23.6277C73.9388 23.146 74.0765 22.5611 74.0765 21.9074C74.0765 21.2537 73.9388 20.6687 73.6636 20.1871C73.3883 19.7054 73.0099 19.3269 72.5626 19.0516C72.1153 18.7764 71.5992 18.6388 71.0831 18.6388C70.5326 18.6388 70.0509 18.7764 69.5692 19.0516C69.1219 19.3269 68.7434 19.7054 68.4682 20.1871C68.1929 20.6687 68.0553 21.2537 68.0553 21.9074C68.0553 22.5611 68.1929 23.146 68.4682 23.6277C68.7434 24.1094 69.1219 24.4879 69.5692 24.7631C70.0165 25.0384 70.5326 25.176 71.0831 25.176C71.5992 25.1416 72.1153 25.004 72.5626 24.7631ZM78.1708 24.4879C78.5837 25.2792 79.203 25.8986 79.96 26.3458C80.7169 26.7931 81.5771 27.034 82.5405 26.9996C83.5382 26.9996 84.3984 26.7587 85.1554 26.3114C85.9123 25.8641 86.5316 25.2448 86.9445 24.4535C87.3918 23.6621 87.5982 22.802 87.5982 21.8386C87.5982 20.9096 87.3574 20.0494 86.9445 19.2581C86.5316 18.4667 85.9123 17.8474 85.1554 17.4001C84.3984 16.9528 83.5382 16.712 82.5749 16.712C81.6115 16.712 80.7169 16.9528 79.96 17.4001C79.203 17.8474 78.5837 18.4667 78.1708 19.2581C77.7235 20.0494 77.5171 20.9096 77.5171 21.873C77.5171 22.8364 77.7579 23.6965 78.1708 24.4879ZM85.1554 23.6277C84.8801 24.1094 84.5016 24.4879 84.0544 24.7631C83.6071 25.004 83.091 25.1416 82.5749 25.176C82.0244 25.176 81.5083 25.0384 81.061 24.7631C80.6137 24.4879 80.2352 24.1094 79.96 23.6277C79.6847 23.146 79.5471 22.5611 79.5471 21.9074C79.5471 21.2537 79.6847 20.6687 79.96 20.1871C80.2352 19.7054 80.6137 19.3269 81.061 19.0516C81.5427 18.7764 82.0244 18.6388 82.5749 18.6388C83.091 18.6388 83.6071 18.7764 84.0544 19.0516C84.5016 19.3269 84.8801 19.7054 85.1554 20.1871C85.4306 20.6687 85.5682 21.2537 85.5682 21.9074C85.5682 22.5611 85.4306 23.146 85.1554 23.6277ZM90.9356 30.3031C90.1442 29.7525 89.6282 29.1332 89.3873 28.3763L91.2797 27.5849C91.4861 28.101 91.7958 28.5139 92.2775 28.8236C92.7247 29.1332 93.2753 29.3053 93.8602 29.3053C94.7547 29.3053 95.4429 29.03 95.959 28.4795C96.4751 27.929 96.7159 27.172 96.7159 26.1743V25.2453H96.6127C96.303 25.727 95.8902 26.071 95.3396 26.3463C94.8236 26.6215 94.2042 26.7592 93.5161 26.7592C92.6903 26.7592 91.9334 26.5527 91.2453 26.1398C90.5571 25.727 90.0066 25.1421 89.5937 24.3851C89.1809 23.6282 88.9744 22.768 88.9744 21.7702C88.9744 20.8068 89.1809 19.9122 89.5937 19.1897C90.0066 18.4328 90.5571 17.8478 91.2453 17.435C91.9334 17.0221 92.6903 16.8156 93.5161 16.8156C94.1698 16.8156 94.7891 16.9533 95.3396 17.2285C95.8902 17.5038 96.303 17.8823 96.6127 18.3295H96.7159V17.1253H98.6771V26.2775C98.6771 27.3097 98.4707 28.2042 98.0578 28.9268C97.6449 29.6493 97.0944 30.2342 96.3718 30.6127C95.6493 30.9912 94.8236 31.1976 93.8602 31.1976C92.6903 31.0944 91.727 30.8536 90.9356 30.3031ZM95.3052 24.4883C95.7181 24.2475 96.0622 23.869 96.3374 23.4217C96.6127 22.94 96.7159 22.3895 96.7159 21.7358C96.7159 21.0821 96.5783 20.4972 96.3374 20.0499C96.0622 19.5682 95.7181 19.2241 95.3052 18.9833C94.8924 18.7424 94.4107 18.6048 93.8946 18.6048C93.3785 18.6048 92.8968 18.7424 92.4495 18.9833C92.0022 19.2241 91.6581 19.5682 91.4173 20.0499C91.142 20.5316 91.0388 21.0821 91.0388 21.7358C91.0388 22.3895 91.1764 22.94 91.4173 23.4217C91.6925 23.9034 92.0366 24.2475 92.4495 24.4883C92.8624 24.7292 93.3441 24.8668 93.8946 24.8668C94.4107 24.8668 94.858 24.7292 95.3052 24.4883ZM103.116 13.1687H101.086V26.725H103.116V13.1687ZM110.341 27.0346C111.339 27.0346 112.199 26.7938 112.887 26.3465C113.575 25.8992 114.126 25.3831 114.504 24.7982L112.784 23.6628C112.165 24.5918 111.339 25.039 110.307 25.039C109.206 25.039 108.38 24.5229 107.898 23.5251L114.573 20.7726L114.332 20.1877C114.057 19.3964 113.541 18.6738 112.853 18.0201C112.165 17.3664 111.236 17.0223 110.066 17.0223C109.206 17.0223 108.414 17.2287 107.692 17.6416C106.969 18.0889 106.419 18.6738 105.971 19.4308C105.524 20.1877 105.318 21.0479 105.318 22.0113C105.318 22.9402 105.524 23.766 105.971 24.5229C106.419 25.3143 107.004 25.8992 107.761 26.3465C108.586 26.7938 109.412 27.0346 110.341 27.0346ZM107.554 21.8736C107.52 21.2543 107.657 20.7382 107.933 20.2909C108.208 19.8436 108.552 19.4996 108.965 19.2931C109.378 19.0523 109.791 18.9491 110.169 18.9491C110.616 18.9491 110.995 19.0523 111.339 19.2243C111.683 19.4308 111.924 19.6716 112.027 20.0157L107.554 21.8736ZM120.629 26.725H122.762V21.4607H125.342C126.134 21.4607 126.891 21.2887 127.544 20.9446C128.198 20.6006 128.749 20.0845 129.162 19.4652C129.574 18.8458 129.746 18.1233 129.746 17.332C129.746 16.5406 129.54 15.8181 129.162 15.1987C128.749 14.5794 128.198 14.0977 127.544 13.7193C126.856 13.3752 126.134 13.2032 125.342 13.2032H120.629V26.725ZM122.762 19.4308V15.1987H125.377C125.858 15.1987 126.237 15.302 126.581 15.5084C126.925 15.7148 127.2 15.9901 127.372 16.2998C127.544 16.6094 127.648 16.9535 127.648 17.332C127.648 17.7104 127.544 18.0201 127.372 18.3642C127.2 18.6738 126.925 18.9491 126.581 19.1555C126.237 19.3619 125.858 19.4652 125.377 19.4652H122.762V19.4308ZM131.57 26.725H133.669V13.1687H131.57V26.725ZM139.139 27.0346C139.793 27.0346 140.378 26.897 140.894 26.6217C141.41 26.3465 141.789 26.0024 142.064 25.5895H142.167V26.7594H144.197V20.7038C144.197 19.4652 143.819 18.5018 143.062 17.7792C142.305 17.0911 141.238 16.747 139.828 16.747C139.002 16.747 138.245 16.9191 137.557 17.2287C136.869 17.5384 136.318 18.0201 135.905 18.605L137.35 19.706C137.626 19.3275 137.97 19.0179 138.417 18.8114C138.864 18.605 139.311 18.5018 139.793 18.5018C140.481 18.5018 141.066 18.7082 141.514 19.0523C141.961 19.4308 142.167 19.9124 142.167 20.4974V20.9791C141.892 20.8414 141.548 20.7382 141.101 20.635C140.653 20.5318 140.137 20.4974 139.552 20.4974C138.382 20.4974 137.454 20.7726 136.697 21.3575C135.94 21.9424 135.561 22.7338 135.561 23.7316C135.561 24.3509 135.699 24.9358 136.008 25.4175C136.318 25.9336 136.731 26.3121 137.281 26.5873C137.832 26.897 138.451 27.0346 139.139 27.0346ZM139.518 25.3143C138.967 25.3143 138.52 25.1767 138.176 24.867C137.832 24.5918 137.66 24.2133 137.66 23.8004C137.66 23.3187 137.866 22.9058 138.21 22.5962C138.555 22.2865 139.174 22.1489 139.931 22.1489C140.344 22.1489 140.757 22.2177 141.135 22.2865C141.514 22.3897 141.858 22.5274 142.133 22.6994C142.133 23.1811 142.03 23.594 141.789 24.0068C141.548 24.4197 141.238 24.7294 140.825 24.9702C140.412 25.2111 140.034 25.3143 139.518 25.3143ZM144.954 17.0565L148.98 26.1743L146.881 30.8192H149.049L155.001 17.0565H152.765L150.081 23.6282H149.978L147.225 17.0565H144.954Z" fill="#333333"/>
<path d="M17.684 20.1964L0.205444 38.776C0.755951 40.806 2.5795 42.2855 4.78153 42.2855C5.6417 42.2855 6.46746 42.0446 7.19 41.6318L7.25881 41.5974L26.9394 30.2432L17.684 20.1964Z" fill="#EA4335"/>
<path d="M35.369 17.0312L26.8362 12.0767L17.2711 20.6095L26.8706 30.209L35.3346 25.3232C36.8141 24.5319 37.8119 22.9492 37.8119 21.16C37.8119 19.3709 36.8485 17.8226 35.369 17.0312Z" fill="#FBBC04"/>
<path d="M0.171057 3.5094C0.0678368 3.88787 -0.000976562 4.30075 -0.000976562 4.71363V37.5376C-0.000976562 37.9505 0.0678368 38.3633 0.171057 38.7418L18.269 20.6439L0.171057 3.5094Z" fill="#4285F4"/>
<path d="M17.7875 21.1256L26.8364 12.0766L7.19022 0.68801C6.46768 0.27513 5.64192 -0.00012207 4.74735 -0.00012207C2.54532 -0.00012207 0.721771 1.47936 0.171265 3.50936L17.7875 21.1256Z" fill="#34A853"/>
</svg>
