<svg width="24" height="24" viewBox="0 0 24 24" fill="none" xmlns="http://www.w3.org/2000/svg">
<g clip-path="url(#clip0_1577_1417)">
<path d="M21.5725 19.7474L21.4417 19.3586C20.1541 16.5572 14.0245 11.7266 14.0245 11.7266H10.5091C10.5091 11.7266 3.52213 15.7142 2.89033 19.8698L2.87833 19.9472C2.70373 21.2888 3.75673 22.4798 5.16433 22.4798H19.2931C19.9399 22.4798 20.5129 22.2308 20.9299 21.8354H20.9377L20.9395 21.8276C21.4813 21.3086 21.7555 20.54 21.5731 19.748L21.5725 19.7474Z" fill="#8494A9"/>
<path d="M14.1758 12.7775H16.2782C16.742 12.7775 17.1362 12.4403 17.2088 11.9825L17.5106 10.0703C17.2472 10.1939 16.9544 10.2701 16.6406 10.2719C16.1534 11.3789 15.272 12.2705 14.1764 12.7769L14.1758 12.7775Z" fill="#333333"/>
<path d="M7.55743 10.2708C7.15063 10.2684 6.77203 10.1502 6.45703 9.94922L6.98323 12.0618C7.08763 12.4812 7.46443 12.7758 7.89703 12.7758H10.0216C8.92603 12.2694 8.04403 11.3778 7.55743 10.2708Z" fill="#333333"/>
<path d="M7.19501 7.78836L10.468 4.12596C10.468 4.12596 14.4412 7.31676 17.0638 7.14276C17.1214 7.13916 17.188 7.11876 17.254 7.09056C17.4244 6.99456 17.5678 6.82236 17.6992 6.84936C17.7028 6.84996 17.7064 6.84756 17.71 6.84876C17.7598 3.44196 14.8294 0.660958 11.3584 1.03356C8.68901 1.32036 6.55121 3.48996 6.29981 6.16296C6.27401 6.43476 6.26742 6.70356 6.27882 6.96756C6.27882 6.96756 6.30041 6.96456 6.33041 6.96456C6.46241 6.96216 6.84401 7.02636 7.19561 7.78896L7.19501 7.78836Z" fill="#333333"/>
<path d="M18.6146 8.4108C18.6146 7.7526 18.2474 7.1802 17.699 6.8484C17.5676 6.8214 17.4242 6.9936 17.2538 7.0896C17.1878 7.1178 17.1212 7.1376 17.0636 7.1418C14.441 7.3158 10.4678 4.125 10.4678 4.125L7.19483 7.7874C6.84383 7.0248 6.46163 6.9612 6.32963 6.963C5.87723 7.3044 5.58203 7.824 5.58203 8.4108C5.58203 9.0486 5.92943 9.6138 6.45563 9.9492C6.77063 10.1502 7.14923 10.2684 7.55603 10.2708C8.04323 11.3778 8.92463 12.2694 10.0202 12.7758C10.6526 13.0686 11.3558 13.2348 12.098 13.2348C12.8402 13.2348 13.5434 13.0686 14.1758 12.7758C15.2714 12.2694 16.1534 11.3778 16.64 10.2708C16.9538 10.269 17.2466 10.1928 17.51 10.0692C18.1622 9.7632 18.6146 9.1374 18.6146 8.4108Z" fill="#FFCBA7"/>
<path d="M10.7038 8.66564C10.9954 8.66564 11.2318 8.38197 11.2318 8.03204C11.2318 7.68211 10.9954 7.39844 10.7038 7.39844C10.4122 7.39844 10.1758 7.68211 10.1758 8.03204C10.1758 8.38197 10.4122 8.66564 10.7038 8.66564Z" fill="black"/>
<path d="M13.4928 8.66564C13.7845 8.66564 14.0208 8.38197 14.0208 8.03204C14.0208 7.68211 13.7845 7.39844 13.4928 7.39844C13.2012 7.39844 12.9648 7.68211 12.9648 8.03204C12.9648 8.38197 13.2012 8.66564 13.4928 8.66564Z" fill="black"/>
<path d="M11.7555 11.2551C11.6739 11.2551 11.6157 11.1765 11.6373 11.0979C11.7063 10.8477 11.9355 10.6641 12.2073 10.6641C12.4791 10.6641 12.7083 10.8477 12.7773 11.0979C12.7989 11.1765 12.7407 11.2551 12.6591 11.2551H11.7555Z" fill="#5C2F17"/>
<path d="M10.9636 11.7662L10.957 13.8212C10.957 13.8914 10.9942 13.9538 11.0578 13.9844C11.3668 14.1332 12.3436 14.5142 13.3804 13.9868C13.4422 13.955 13.483 13.8878 13.483 13.8182L13.4896 11.7656H10.9642L10.9636 11.7662Z" fill="#FFCBA7"/>
<path d="M16.6289 12.0388L20.7191 7.85144C21.0527 7.51004 21.5831 7.45664 21.9779 7.72544C22.3829 8.00084 22.5239 8.53244 22.3091 8.97224L20.7917 12.49C20.5343 13.0864 19.9907 13.51 19.3493 13.6138L17.3423 13.9378L16.6295 12.0394L16.6289 12.0388Z" fill="#FFCBA7"/>
<path d="M7.78014 12.0388L3.68994 7.85144C3.35634 7.51004 2.82594 7.45664 2.43114 7.72544C2.02614 8.00084 1.88514 8.53244 2.09994 8.97224L3.61734 12.49C3.87474 13.0864 4.41834 13.51 5.05974 13.6138L7.06674 13.9378L7.77954 12.0394L7.78014 12.0388Z" fill="#FFCBA7"/>
<path d="M3.23956 21.4633C3.94396 22.4983 5.38876 22.7887 6.46636 22.1119L19.3754 14.3197C19.3754 14.3197 16.925 10.7641 16.9154 10.7695L3.91516 18.3643C2.83756 19.0411 2.53516 20.4283 3.23956 21.4633Z" fill="#AAB6C6"/>
<path d="M21.2491 21.4633C20.5447 22.4983 19.0999 22.7887 18.0223 22.1119L5.11328 14.3197C5.11328 14.3197 7.56368 10.7641 7.57328 10.7695L20.5735 18.3643C21.6511 19.0411 21.9535 20.4283 21.2491 21.4633Z" fill="#CFD5DD"/>
</g>
<defs>
<clipPath id="clip0_1577_1417">
<rect width="24" height="24" fill="white"/>
</clipPath>
</defs>
</svg>
