<svg width="24" height="24" viewBox="0 0 24 24" fill="none" xmlns="http://www.w3.org/2000/svg">
<g clip-path="url(#clip0_1577_2803)">
<path d="M6.92215 6.63586L7.82168 5.83354C8.22014 5.47769 8.47278 4.98682 8.52979 4.45574L8.6138 3.67202L10.4867 2.8697C10.9775 2.65967 11.208 2.09319 11.0028 1.60052C10.8281 1.18045 10.3889 0.939819 9.94 1.01303C8.54659 1.24046 5.61035 2.04398 3.80469 4.8578L6.92215 6.63586Z" fill="#FFCBA7"/>
<path d="M16.9564 6.67492L16.0568 5.87261C15.6584 5.51675 15.4057 5.02588 15.3487 4.4948L15.2647 3.71109L13.3918 2.90877C12.901 2.69874 12.6705 2.13225 12.8758 1.63958C13.0504 1.21952 13.4897 0.978882 13.9385 1.05209C15.3319 1.27953 18.2682 2.08305 20.0738 4.89686L16.9564 6.67492Z" fill="#FFCBA7"/>
<path d="M11.9462 16.4393C14.5658 16.4393 16.6893 14.3158 16.6893 11.6962C16.6893 9.07668 14.5658 6.95312 11.9462 6.95312C9.32668 6.95312 7.20312 9.07668 7.20312 11.6962C7.20312 14.3158 9.32668 16.4393 11.9462 16.4393Z" fill="#FFCBA7"/>
<path d="M7.61743 13.609C8.66604 13.609 9.51611 12.8116 9.51611 11.8279C9.51611 10.8443 8.66604 10.0469 7.61743 10.0469C6.56882 10.0469 5.71875 10.8443 5.71875 11.8279C5.71875 12.8116 6.56882 13.609 7.61743 13.609Z" fill="#FFCBA7"/>
<path d="M16.2737 13.609C17.3223 13.609 18.1724 12.8116 18.1724 11.8279C18.1724 10.8443 17.3223 10.0469 16.2737 10.0469C15.2251 10.0469 14.375 10.8443 14.375 11.8279C14.375 12.8116 15.2251 13.609 16.2737 13.609Z" fill="#FFCBA7"/>
<path d="M10.9248 17.9476C11.1954 18.0778 12.0517 18.4121 12.9597 17.95C13.0143 17.9224 13.0491 17.863 13.0491 17.8024L13.0503 17.4525L13.0551 16.0039H10.8419L10.8371 17.4573L10.8359 17.8048C10.8359 17.8666 10.8683 17.9212 10.9242 17.9482L10.9248 17.9476Z" fill="#FFCBA7"/>
<path d="M17.3117 10.3374C17.3597 7.08075 14.5579 4.42176 11.24 4.77821C8.6884 5.05245 6.64449 7.12636 6.40386 9.68154C6.37926 9.94138 6.37325 10.1982 6.38406 10.4503C6.38406 10.4503 6.84792 10.3398 7.26019 11.2352L10.389 7.73425C10.389 7.73425 14.1876 10.7845 16.6942 10.6183C16.7494 10.6147 16.813 10.5955 16.876 10.5685C17.0428 10.4743 17.1833 10.2996 17.3117 10.3374Z" fill="#333333"/>
<path d="M10.614 12.0743C10.8928 12.0743 11.1187 11.8032 11.1187 11.4688C11.1187 11.1344 10.8928 10.8633 10.614 10.8633C10.3353 10.8633 10.1094 11.1344 10.1094 11.4688C10.1094 11.8032 10.3353 12.0743 10.614 12.0743Z" fill="black"/>
<path d="M13.2781 12.0743C13.5568 12.0743 13.7828 11.8032 13.7828 11.4688C13.7828 11.1344 13.5568 10.8633 13.2781 10.8633C12.9994 10.8633 12.7734 11.1344 12.7734 11.4688C12.7734 11.8032 12.9994 12.0743 13.2781 12.0743Z" fill="black"/>
<path d="M12.5651 14.0586C12.6768 14.0586 12.7566 14.166 12.7266 14.2734C12.6323 14.6161 12.3185 14.8675 11.9464 14.8675C11.5744 14.8675 11.2605 14.6161 11.1663 14.2734C11.1369 14.1654 11.2161 14.0586 11.3278 14.0586H12.5651Z" fill="#5C2F17"/>
<path d="M20.4451 5.17605C20.4205 5.13645 20.3959 5.09684 20.3707 5.05724C20.2044 4.7932 19.8276 4.70618 19.5401 4.86401L17.1794 5.98617C16.9255 6.12599 16.7881 6.40564 16.8457 6.68288C16.8721 6.8113 16.9171 6.95532 16.9753 7.11314L17.0672 7.34537C17.2412 7.76784 17.4854 8.26831 17.7393 8.82279C17.7459 8.8384 17.7525 8.854 17.7591 8.8696C18.0063 9.5249 18.2409 10.32 18.364 11.1721C18.3388 14.3202 16.053 16.9246 13.0508 17.4533L13.0496 17.8031C13.0496 17.8643 13.0142 17.9231 12.9602 17.9507C12.0516 18.4128 11.1959 18.0792 10.9253 17.9483C10.8694 17.9213 10.837 17.8667 10.837 17.8049L10.8382 17.4575C7.845 16.9444 5.55866 14.3688 5.49985 11.2424C5.76929 8.899 6.96227 6.92831 6.96227 6.92831C7.12549 6.68408 7.04688 6.36783 6.78524 6.20761L4.32488 4.69058C4.04044 4.51656 3.65038 4.59457 3.47515 4.86101C3.44935 4.90061 3.42354 4.94022 3.39774 4.97982C0.589326 9.32807 0.0732492 14.418 2.78625 18.8215C3.57957 20.1093 4.32788 21.5165 4.98558 22.683C5.09719 22.8811 5.30542 22.9987 5.53226 22.9987H18.403C18.6292 22.9987 18.8362 22.8817 18.9484 22.6848C19.5797 21.5771 20.2992 20.2515 21.0596 19.0177C23.8044 14.5632 23.2037 9.62271 20.4451 5.17605Z" fill="#5268E9"/>
</g>
<defs>
<clipPath id="clip0_1577_2803">
<rect width="24" height="24" fill="white"/>
</clipPath>
</defs>
</svg>
