<svg width="20" height="21" viewBox="0 0 20 21" fill="none" xmlns="http://www.w3.org/2000/svg">
<g id="u1F68C">
<g id="Group">
<path id="Vector" d="M16.9324 4.1875H3.06641C1.96191 4.1875 1.06641 5.083 1.06641 6.1875V15.3915C1.06641 15.944 1.51391 16.3915 2.06641 16.3915H17.9329C18.4854 16.3915 18.9329 15.944 18.9329 15.3915V6.1875C18.9329 5.083 18.0369 4.1875 16.9324 4.1875Z" fill="#FFB72D"/>
<path id="Vector_2" d="M18.9324 12.5781H1.06641V15.3901C1.06641 15.9426 1.51391 16.3901 2.06641 16.3901H17.9329C18.4854 16.3901 18.9329 15.9426 18.9329 15.3901L18.9324 12.5781Z" fill="#FF8F00"/>
<g id="Group_2">
<path id="Vector_3" d="M4.18828 18.3844C5.36879 18.3844 6.32578 17.4274 6.32578 16.2469C6.32578 15.0664 5.36879 14.1094 4.18828 14.1094C3.00777 14.1094 2.05078 15.0664 2.05078 16.2469C2.05078 17.4274 3.00777 18.3844 4.18828 18.3844Z" fill="#313D4C"/>
<path id="Vector_4" d="M4.18703 17.1006C4.65923 17.1006 5.04203 16.7178 5.04203 16.2456C5.04203 15.7734 4.65923 15.3906 4.18703 15.3906C3.71483 15.3906 3.33203 15.7734 3.33203 16.2456C3.33203 16.7178 3.71483 17.1006 4.18703 17.1006Z" fill="#6B7683"/>
</g>
<g id="Group_3">
<path id="Vector_5" d="M15.618 18.3844C16.7985 18.3844 17.7555 17.4274 17.7555 16.2469C17.7555 15.0664 16.7985 14.1094 15.618 14.1094C14.4375 14.1094 13.4805 15.0664 13.4805 16.2469C13.4805 17.4274 14.4375 18.3844 15.618 18.3844Z" fill="#313D4C"/>
<path id="Vector_6" d="M15.6167 17.1006C16.0889 17.1006 16.4717 16.7178 16.4717 16.2456C16.4717 15.7734 16.0889 15.3906 15.6167 15.3906C15.1445 15.3906 14.7617 15.7734 14.7617 16.2456C14.7617 16.7178 15.1445 17.1006 15.6167 17.1006Z" fill="#6B7683"/>
</g>
<path id="Vector_7" d="M18.9338 14.6958C18.6058 14.6958 18.3398 14.4298 18.3398 14.1018C18.3398 13.7738 18.6058 13.5078 18.9338 13.5078V14.6953V14.6958Z" fill="white"/>
</g>
<path id="Vector_8" d="M3.08512 6.10938H8.93062V10.2644H3.08512C2.77062 10.2644 2.51562 10.0094 2.51562 9.69487V6.67938C2.51562 6.36488 2.77062 6.10988 3.08512 6.10988V6.10938Z" fill="#313D4C"/>
<path id="Vector_9" d="M9.64062 6.10987H15.4861C15.8006 6.10987 16.0556 6.36487 16.0556 6.67937V9.69487C16.0556 10.0094 15.8006 10.2644 15.4861 10.2644H9.64062V6.10987Z" fill="#313D4C"/>
<path id="Vector_10" d="M17.6554 6.10938H18.9314V11.7644H17.6554C17.3409 11.7644 17.0859 11.5094 17.0859 11.1949V6.67938C17.0859 6.36488 17.3409 6.10988 17.6554 6.10988V6.10938Z" fill="#313D4C"/>
</g>
</svg>
