<svg width="24" height="24" viewBox="0 0 24 24" fill="none" xmlns="http://www.w3.org/2000/svg">
<g clip-path="url(#clip0_813_2792)">
<path d="M13.7338 7.55552C13.6744 7.20932 13.7572 6.85112 13.9666 6.56972C14.1094 6.37832 14.2366 6.28052 14.2366 6.28052C14.9962 5.60312 15.235 4.66892 15.3022 4.30172C15.313 4.24232 15.3868 4.22252 15.4264 4.26812C15.715 4.60412 16.6162 5.52212 18.0022 5.72792C19.3222 5.92412 19.9414 6.80072 19.765 7.82372C19.5226 8.76392 18.8806 9.52532 18.046 9.91952C18.4228 10.0137 18.7834 10.1439 19.1206 10.3131C19.8646 10.1913 20.305 10.0197 20.5504 9.87092C20.749 9.75032 20.8738 9.53732 20.8792 9.30452C20.926 7.30292 20.6296 5.57552 20.3308 4.75952C19.9288 3.66452 18.7294 2.45432 17.1586 2.29112C15.5878 2.12792 14.884 3.14792 14.884 3.14792C12.3238 4.26992 12.8056 9.56372 12.8056 9.56372C12.8056 9.56372 12.934 10.0353 14.4196 10.2981C14.7574 10.1319 15.118 10.0029 15.4954 9.91112C14.5906 9.47732 13.915 8.60972 13.7338 7.55492V7.55552Z" fill="#FF8800"/>
<path d="M19.1205 10.3122C18.7833 10.143 18.4227 10.0128 18.0459 9.91856C17.6577 10.1022 17.2317 10.2138 16.7775 10.2138C16.3179 10.2138 15.8871 10.0986 15.4947 9.91016C15.1179 10.002 14.7567 10.1304 14.4189 10.2972C13.3083 10.845 12.4425 11.7702 12.0039 12.8934C12.2061 13.4118 12.3219 13.9692 12.3219 14.5536V21.7212H12.7479C12.7479 20.3736 13.5675 19.2168 14.7357 18.723C14.2713 18.4542 13.8975 18.0504 13.6791 17.5566C13.1187 17.5554 12.6645 17.1288 12.6645 16.6026C12.6645 16.2894 12.8271 16.0146 13.0755 15.84C13.0707 15.7122 13.0731 15.5826 13.0857 15.4506C13.2147 14.0814 14.3097 12.9696 15.6771 12.8232C17.4549 12.6324 18.9567 14.0574 18.9309 15.8022C18.9057 15.8022 18.8859 15.7968 18.8613 15.7962C19.1475 15.9648 19.3389 16.2618 19.3389 16.6026C19.3389 17.1288 18.8847 17.5554 18.3243 17.5566C18.1059 18.0504 17.7315 18.4548 17.2677 18.723C18.4359 19.2168 19.2555 20.373 19.2555 21.7212H21.8217V14.5536C21.8217 12.7134 20.7267 11.1174 19.1205 10.3122Z" fill="#482EC4"/>
<path d="M19.7649 7.82676C19.9413 6.80376 19.3221 5.92656 18.0021 5.73096C16.6161 5.52516 15.7149 4.60716 15.4263 4.27116C15.3873 4.22556 15.3129 4.24536 15.3021 4.30476C15.2349 4.67196 14.9961 5.60616 14.2365 6.28356C14.2365 6.28356 14.1093 6.38076 13.9665 6.57276C13.7565 6.85416 13.6743 7.21296 13.7337 7.55856C13.9149 8.61336 14.5905 9.48096 15.4953 9.91476C15.8877 10.1026 16.3179 10.2184 16.7781 10.2184C17.2323 10.2184 17.6583 10.1068 18.0465 9.92316C18.8811 9.52836 19.5231 8.76696 19.7655 7.82736L19.7649 7.82676ZM17.6631 6.45636C17.8533 6.45636 18.0075 6.64116 18.0075 6.86916C18.0075 7.09716 17.8533 7.28196 17.6631 7.28196C17.4729 7.28196 17.3187 7.09716 17.3187 6.86916C17.3187 6.64116 17.4729 6.45636 17.6631 6.45636ZM16.3257 8.68416H17.1831C17.2605 8.68416 17.3151 8.75856 17.2947 8.83296C17.2299 9.06996 17.0127 9.24456 16.7547 9.24456C16.4967 9.24456 16.2795 9.06996 16.2147 8.83296C16.1943 8.75856 16.2483 8.68416 16.3257 8.68416ZM15.8457 6.45636C16.0359 6.45636 16.1901 6.64116 16.1901 6.86916C16.1901 7.09716 16.0359 7.28196 15.8457 7.28196C15.6555 7.28196 15.5013 7.09716 15.5013 6.86916C15.5013 6.64116 15.6555 6.45636 15.8457 6.45636Z" fill="#FFC84D"/>
<path d="M15.8444 7.27873C16.0346 7.27873 16.1888 7.09391 16.1888 6.86592C16.1888 6.63794 16.0346 6.45312 15.8444 6.45312C15.6542 6.45312 15.5 6.63794 15.5 6.86592C15.5 7.09391 15.6542 7.27873 15.8444 7.27873Z" fill="black"/>
<path d="M17.6647 7.27873C17.8549 7.27873 18.0091 7.09392 18.0091 6.86592C18.0091 6.63792 17.8549 6.45312 17.6647 6.45312C17.4745 6.45312 17.3203 6.63792 17.3203 6.86592C17.3203 7.09392 17.4745 7.27873 17.6647 7.27873Z" fill="black"/>
<path d="M16.7519 9.24009C17.0099 9.24009 17.2271 9.06549 17.2919 8.82849C17.3123 8.75409 17.2577 8.67969 17.1803 8.67969H16.3229C16.2455 8.67969 16.1909 8.75409 16.2113 8.82849C16.2767 9.06549 16.4939 9.24009 16.7519 9.24009Z" fill="#5C2F17"/>
<path d="M12.0014 12.895C11.477 11.551 10.3388 10.4926 8.90659 10.0234C8.42179 10.3564 7.85779 10.5508 7.25179 10.5508C6.64579 10.5508 6.08179 10.3564 5.59699 10.0234C3.61159 10.6732 2.18359 12.4546 2.18359 14.5552V21.7228H4.74979C4.74979 20.4088 5.53039 19.279 6.65239 18.766C6.50359 18.6724 6.36379 18.5662 6.23779 18.4438L6.10699 18.8476C6.05239 19.0162 5.85199 19.0864 5.70379 18.9886L5.19319 18.6508C5.03839 18.5482 5.03179 18.3238 5.17999 18.2122L5.75479 17.7814C5.73079 17.7352 5.70199 17.6926 5.68099 17.6452C5.12059 17.644 4.66639 17.2174 4.66639 16.6912C4.66639 16.3894 4.81879 16.1242 5.05159 15.949C5.03419 15.949 5.02219 15.9508 5.02219 15.9508C5.01619 15.8158 5.01979 15.6778 5.03299 15.5386C5.13619 14.4406 5.86159 13.5082 6.84979 13.1062C7.12099 12.9958 7.41859 12.9658 7.70899 13.0048L7.84039 13.0222C7.89139 13.0288 7.94299 13.0282 7.99399 13.0198L8.25079 12.9772C8.40799 12.9514 8.56999 12.9562 8.72299 12.9994C9.97879 13.3486 10.8986 14.5204 10.8782 15.8896C10.877 15.8896 10.8752 15.8896 10.874 15.8896C11.1542 16.0594 11.3414 16.354 11.3414 16.69C11.3414 17.2162 10.8872 17.6428 10.3268 17.644C10.3094 17.6824 10.2854 17.7172 10.2668 17.755L10.8752 18.2116C11.0234 18.3232 11.0168 18.5476 10.862 18.6502L10.3514 18.988C10.2032 19.0858 10.0028 19.0156 9.94819 18.847L9.80659 18.4102C9.67159 18.5464 9.51799 18.6622 9.35539 18.7648C10.4768 19.2784 11.258 20.4076 11.258 21.7216H12.32V14.554C12.32 13.9696 12.2042 13.4116 12.002 12.8938L12.0014 12.895Z" fill="#5268E9"/>
<path d="M10.9096 6.20984V6.26384L10.4476 6.68384C10.3576 6.76184 10.2136 6.70784 10.2016 6.58784C10.1836 6.37184 10.1116 6.07184 9.92563 5.79584C9.66763 5.42384 9.18162 5.09984 8.23962 5.11184C6.03762 5.13584 5.61163 3.83984 5.61163 3.83984C5.61163 3.83984 5.26362 4.95584 4.84362 5.82584C4.69962 6.11384 4.55562 6.37184 4.41162 6.55784C4.30362 6.68984 4.10563 6.70784 3.97963 6.59384L3.59562 6.26984V6.20384C3.39162 6.41984 3.26562 6.69584 3.26562 7.00784C3.26562 7.57784 3.67962 8.04584 4.23762 8.18384C4.50162 8.95784 4.98162 9.60584 5.59963 10.0258C6.07963 10.3558 6.64363 10.5538 7.24962 10.5538C7.85563 10.5538 8.41962 10.3558 8.90562 10.0258C9.51762 9.60584 10.0036 8.95784 10.2616 8.18384C10.8256 8.04584 11.2396 7.57784 11.2396 7.00784C11.2396 6.70184 11.1136 6.41984 10.9096 6.20984ZM6.34362 7.17584C6.15162 7.17584 6.00163 6.98984 6.00163 6.76184C6.00163 6.53384 6.15162 6.34784 6.34362 6.34784C6.53562 6.34784 6.68563 6.53384 6.68563 6.76184C6.68563 6.98984 6.53562 7.17584 6.34362 7.17584ZM7.24962 9.43784C6.99163 9.43784 6.77563 9.26384 6.70963 9.02384C6.69163 8.95184 6.74563 8.87384 6.82363 8.87384H7.68163C7.75963 8.87384 7.81362 8.95184 7.78962 9.02384C7.72962 9.26384 7.50763 9.43784 7.24962 9.43784ZM8.16162 7.17584C7.96962 7.17584 7.81363 6.98984 7.81363 6.76184C7.81363 6.53384 7.96962 6.34784 8.16162 6.34784C8.35363 6.34784 8.50362 6.53384 8.50362 6.76184C8.50362 6.98984 8.35363 7.17584 8.16162 7.17584Z" fill="#FFC84D"/>
<path d="M6.3444 7.17326C6.5346 7.17326 6.6888 6.98846 6.6888 6.76046C6.6888 6.53246 6.5346 6.34766 6.3444 6.34766C6.1542 6.34766 6 6.53246 6 6.76046C6 6.98846 6.1542 7.17326 6.3444 7.17326Z" fill="black"/>
<path d="M8.16081 7.17326C8.35101 7.17326 8.50521 6.98844 8.50521 6.76046C8.50521 6.53247 8.35101 6.34766 8.16081 6.34766C7.9706 6.34766 7.81641 6.53247 7.81641 6.76046C7.81641 6.98844 7.9706 7.17326 8.16081 7.17326Z" fill="black"/>
<path d="M3.97795 6.59409C4.10695 6.70389 4.30375 6.68949 4.40875 6.55629C4.55455 6.37029 4.70155 6.10989 4.84075 5.82309C5.26315 4.95129 5.60995 3.83589 5.60995 3.83589C5.60995 3.83589 6.03595 5.13609 8.24155 5.10789C9.17875 5.09589 9.66535 5.41989 9.92455 5.79429C10.1142 6.06789 10.1856 6.36789 10.2036 6.58749C10.2138 6.70689 10.356 6.76209 10.4448 6.68169L10.9104 6.26049C10.9104 6.26049 10.9116 6.23769 10.9128 6.20529C10.9182 6.04989 10.9212 5.55069 10.7874 4.90629C10.626 4.12809 9.70075 2.77689 7.98235 2.42469C6.26395 2.07189 5.25055 3.18249 5.25055 3.18249C3.54115 3.60489 3.57475 5.80449 3.59455 6.20169C3.59635 6.24129 3.59875 6.26949 3.59875 6.26949L3.97915 6.59409H3.97795Z" fill="#FF8800"/>
<path d="M7.25092 9.4348C7.50892 9.4348 7.72552 9.2608 7.79092 9.0238C7.81132 8.9494 7.75672 8.875 7.67932 8.875H6.82312C6.74572 8.875 6.69052 8.9494 6.71152 9.0238C6.77692 9.2608 6.99352 9.4348 7.25152 9.4348H7.25092Z" fill="#5C2F17"/>
<path d="M9.35109 18.7695C8.95869 19.0167 8.49789 19.1655 7.99989 19.1655C7.50189 19.1655 7.04109 19.0167 6.64869 18.7695C5.52729 19.2831 4.74609 20.4123 4.74609 21.7263H11.2531C11.2531 20.4123 10.4731 19.2825 9.35109 18.7695Z" fill="#F56570"/>
<path d="M5.75226 17.7852L5.17746 18.216C5.02926 18.3276 5.03586 18.552 5.19066 18.6546L5.70126 18.9924C5.84946 19.0902 6.04986 19.02 6.10446 18.8514L6.23526 18.4476C6.03846 18.2568 5.87946 18.0306 5.75226 17.7852Z" fill="#FF8800"/>
<path d="M9.94569 18.8498C10.0003 19.0184 10.2007 19.0886 10.3489 18.9908L10.8595 18.653C11.0143 18.5504 11.0209 18.326 10.8727 18.2144L10.2643 17.7578C10.1431 17.999 9.99309 18.2228 9.80469 18.4124L9.94629 18.8492L9.94569 18.8498Z" fill="#FF8800"/>
<path d="M10.872 15.8926C10.806 15.8746 10.734 15.9646 10.644 16.0126C10.608 16.0306 10.578 16.0366 10.548 16.0426C10.236 16.0786 9.95397 16.0306 9.70197 15.9406C8.56797 15.5386 8.00997 14.1406 8.00997 14.1406C7.71597 14.7466 6.85197 15.4366 6.22197 15.8866C5.80797 16.1806 5.48997 16.3726 5.48997 16.3726C5.31597 15.9886 5.11797 15.9466 5.05197 15.9466C4.81797 16.1266 4.66797 16.3906 4.66797 16.6906C4.66797 17.2186 5.11797 17.6446 5.68197 17.6446C5.69997 17.6926 5.72997 17.7346 5.75397 17.7826C5.87997 18.0286 6.04197 18.2506 6.23997 18.4426C6.36597 18.5686 6.50397 18.6706 6.65397 18.7666C7.04397 19.0126 7.50597 19.1626 8.00397 19.1626C8.50197 19.1626 8.96397 19.0126 9.35397 18.7666C9.51597 18.6646 9.67197 18.5446 9.80397 18.4126C9.99597 18.2206 10.146 17.9986 10.266 17.7586C10.284 17.7166 10.308 17.6866 10.326 17.6446C10.884 17.6446 11.34 17.2186 11.34 16.6906C11.34 16.3546 11.154 16.0606 10.872 15.8926ZM7.28997 16.8226C7.13997 16.8226 7.01997 16.6786 7.01997 16.4986C7.01997 16.3186 7.13997 16.1746 7.28997 16.1746C7.43997 16.1746 7.55997 16.3186 7.55997 16.4986C7.55997 16.6786 7.43997 16.8226 7.28997 16.8226ZM8.00397 18.2146C7.79997 18.2146 7.63197 18.0826 7.57797 17.8966C7.55997 17.8366 7.60797 17.7766 7.66797 17.7766H8.33997C8.39997 17.7766 8.44197 17.8366 8.42397 17.8966C8.37597 18.0826 8.20797 18.2146 8.00397 18.2146ZM8.71797 16.8226C8.56797 16.8226 8.44797 16.6786 8.44797 16.4986C8.44797 16.3186 8.56797 16.1746 8.71797 16.1746C8.86797 16.1746 8.98797 16.3186 8.98797 16.4986C8.98797 16.6786 8.86797 16.8226 8.71797 16.8226Z" fill="#FFC84D"/>
<path d="M7.29013 16.8211C7.43953 16.8211 7.56073 16.6759 7.56073 16.4965C7.56073 16.3171 7.43953 16.1719 7.29013 16.1719C7.14073 16.1719 7.01953 16.3171 7.01953 16.4965C7.01953 16.6759 7.14073 16.8211 7.29013 16.8211Z" fill="black"/>
<path d="M8.71591 16.8211C8.86536 16.8211 8.98651 16.6757 8.98651 16.4965C8.98651 16.3172 8.86536 16.1719 8.71591 16.1719C8.56646 16.1719 8.44531 16.3172 8.44531 16.4965C8.44531 16.6757 8.56646 16.8211 8.71591 16.8211Z" fill="black"/>
<path d="M8.00185 18.2171C8.20465 18.2171 8.37505 18.0803 8.42605 17.8943C8.44225 17.8355 8.39905 17.7773 8.33845 17.7773H7.66525C7.60465 17.7773 7.56145 17.8355 7.57765 17.8943C7.62865 18.0809 7.79965 18.2171 8.00185 18.2171Z" fill="#5C2F17"/>
<path d="M5.48797 16.3734C5.48797 16.3734 5.80537 16.1796 6.21817 15.8862C6.85117 15.4356 7.71037 14.748 8.00977 14.1438C8.00977 14.1438 8.56417 15.537 9.69697 15.9438C9.95017 16.035 10.2322 16.0776 10.5436 16.0428C10.573 16.0398 10.6072 16.0308 10.6408 16.0164C10.7284 15.9666 10.8022 15.8778 10.87 15.8928C10.8712 15.8928 10.873 15.8922 10.8742 15.8928C10.8946 14.5236 9.97477 13.3518 8.71897 13.0026C8.56537 12.96 8.40397 12.9546 8.24677 12.9804L7.98997 13.023C7.93897 13.0314 7.88737 13.032 7.83637 13.0254L7.70497 13.008C7.41457 12.969 7.11697 12.999 6.84577 13.1094C5.85697 13.5114 5.13217 14.4438 5.02897 15.5418C5.01577 15.681 5.01277 15.8184 5.01817 15.954C5.01817 15.954 5.03017 15.9522 5.04757 15.9522C5.11777 15.9522 5.31037 15.99 5.48737 16.3746L5.48797 16.3734Z" fill="#FF8800"/>
<path d="M17.2653 18.7227C16.8915 18.9393 16.4631 19.0725 15.9999 19.0725C15.5367 19.0725 15.1083 18.9393 14.7339 18.7227C13.5657 19.2165 12.7461 20.3727 12.7461 21.7209H19.2531C19.2531 20.3733 18.4335 19.2165 17.2653 18.7227Z" fill="#64A7FF"/>
<path d="M18.8582 15.7975C18.5642 15.7915 18.3122 15.7435 18.1022 15.6715C17.3342 15.4135 17.0702 14.8555 17.0702 14.8555C17.0702 14.8555 16.5602 15.4615 15.9962 15.4615C15.4382 15.4615 14.8742 14.8555 14.8742 14.8555C14.5322 15.2875 14.1782 15.5275 13.8722 15.6715C13.4162 15.8815 13.0682 15.8635 13.0682 15.8635C13.0682 15.8575 13.0742 15.8515 13.0742 15.8455C12.8222 16.0195 12.6602 16.2895 12.6602 16.6075C12.6602 17.1295 13.1162 17.5555 13.6742 17.5615C13.8962 18.0535 14.2682 18.4555 14.7302 18.7255C15.1082 18.9415 15.5342 19.0735 15.9962 19.0735C16.4582 19.0735 16.8902 18.9415 17.2622 18.7255C17.7302 18.4555 18.1022 18.0535 18.3182 17.5615C18.8822 17.5555 19.3322 17.1295 19.3322 16.6075C19.3322 16.2655 19.1462 15.9655 18.8582 15.7975ZM15.2822 16.7335C15.1322 16.7335 15.0122 16.5895 15.0122 16.4095C15.0122 16.2295 15.1322 16.0855 15.2822 16.0855C15.4322 16.0855 15.5522 16.2295 15.5522 16.4095C15.5522 16.5895 15.4322 16.7335 15.2822 16.7335ZM15.9962 18.1315C15.7922 18.1315 15.6242 17.9935 15.5762 17.8075C15.5582 17.7475 15.6002 17.6935 15.6602 17.6935H16.3322C16.3922 17.6935 16.4402 17.7475 16.4222 17.8075C16.3682 17.9935 16.2002 18.1315 15.9962 18.1315ZM16.7102 16.7335C16.5602 16.7335 16.4402 16.5895 16.4402 16.4095C16.4402 16.2295 16.5602 16.0855 16.7102 16.0855C16.8602 16.0855 16.9802 16.2295 16.9802 16.4095C16.9802 16.5895 16.8602 16.7335 16.7102 16.7335Z" fill="#FFC84D"/>
<path d="M15.2823 16.7351C15.4317 16.7351 15.5529 16.5899 15.5529 16.4105C15.5529 16.2311 15.4317 16.0859 15.2823 16.0859C15.1329 16.0859 15.0117 16.2311 15.0117 16.4105C15.0117 16.5899 15.1329 16.7351 15.2823 16.7351Z" fill="black"/>
<path d="M16.712 16.7351C16.8614 16.7351 16.9826 16.5899 16.9826 16.4105C16.9826 16.2311 16.8614 16.0859 16.712 16.0859C16.5626 16.0859 16.4414 16.2311 16.4414 16.4105C16.4414 16.5899 16.5626 16.7351 16.712 16.7351Z" fill="black"/>
<path d="M15.9979 18.1312C16.2007 18.1312 16.3711 17.9944 16.4221 17.8084C16.4383 17.7496 16.3951 17.6914 16.3345 17.6914H15.6613C15.6007 17.6914 15.5575 17.7496 15.5737 17.8084C15.6247 17.9944 15.7957 18.1312 15.9979 18.1312Z" fill="#5C2F17"/>
<path d="M13.867 15.668C14.173 15.5258 14.5282 15.2834 14.8696 14.8556C14.8696 14.8556 15.433 15.4628 15.9946 15.4628C16.5562 15.4628 17.0692 14.8556 17.0692 14.8556C17.0692 14.8556 17.332 15.4136 18.0988 15.6728C18.31 15.7442 18.5602 15.791 18.8542 15.7988C18.8788 15.7988 18.8986 15.8048 18.9238 15.8048C18.9496 14.06 17.4478 12.635 15.67 12.8258C14.3026 12.9728 13.2076 14.084 13.0786 15.4532C13.066 15.5846 13.0642 15.7148 13.0684 15.8426C13.0684 15.8498 13.0672 15.8576 13.0684 15.8654C13.0684 15.8654 13.4116 15.881 13.8676 15.6686L13.867 15.668Z" fill="#FF8800"/>
</g>
<defs>
<clipPath id="clip0_813_2792">
<rect width="24" height="24" fill="white"/>
</clipPath>
</defs>
</svg>
