<svg width="24" height="24" viewBox="0 0 24 24" fill="none" xmlns="http://www.w3.org/2000/svg">
<g clip-path="url(#clip0_813_2708)">
<path d="M19.853 2.88281H4.14384C3.17964 2.88281 2.39844 3.66401 2.39844 4.62821V19.7554C2.39844 20.7196 3.17964 21.5008 4.14384 21.5008H16.9436L21.5984 16.846V4.62821C21.5984 3.66401 20.8172 2.88281 19.853 2.88281Z" fill="#E5E9EE"/>
<path d="M6.59766 11.6738C6.59766 11.402 6.73746 11.1488 6.96846 11.0048L8.77386 9.87562C8.95806 9.76042 9.17106 9.69922 9.38826 9.69922C10.0279 9.69922 10.5469 10.2176 10.5469 10.8578V17.5502C10.5469 18.0776 10.1191 18.5054 9.59166 18.5054C9.06426 18.5054 8.63646 18.0776 8.63646 17.5502V11.831L7.80246 12.3458C7.27686 12.6704 6.59886 12.2924 6.59886 11.6744L6.59766 11.6738Z" fill="#EF4452"/>
<path d="M11.5391 10.591C11.5391 10.1632 11.8859 9.81641 12.3137 9.81641H16.7015C17.0861 9.81641 17.3981 10.1284 17.3981 10.513C17.3981 10.9606 17.3063 11.4028 17.1275 11.8132L14.4731 17.92C14.3183 18.2758 13.9673 18.5062 13.5791 18.5062C12.8723 18.5062 12.4007 17.7784 12.6887 17.1334L15.2669 11.3662H12.3143C11.8865 11.3662 11.5397 11.0194 11.5397 10.5916L11.5391 10.591Z" fill="#EF4452"/>
<path d="M4.14384 2.88281H19.853C20.8166 2.88281 21.5984 3.66521 21.5984 4.62821V7.43981H2.39844V4.62821C2.39844 3.66461 3.18084 2.88281 4.14384 2.88281Z" fill="#FDAEB3"/>
<path d="M6.18033 4.33458C5.77893 4.33458 5.45312 4.00938 5.45312 3.60738V2.15298C5.45312 1.75098 5.77833 1.42578 6.18033 1.42578C6.58233 1.42578 6.90753 1.75098 6.90753 2.15298V3.60738C6.90753 4.00938 6.58233 4.33458 6.18033 4.33458Z" fill="#4B596A"/>
<path d="M17.817 4.33458C17.4156 4.33458 17.0898 4.00938 17.0898 3.60738V2.15298C17.0898 1.75098 17.415 1.42578 17.817 1.42578C18.219 1.42578 18.5442 1.75098 18.5442 2.15298V3.60738C18.5442 4.00938 18.219 4.33458 17.817 4.33458Z" fill="#4B596A"/>
<path fill-rule="evenodd" clip-rule="evenodd" d="M18.1093 16.8438H21.6001L16.9453 21.4986V18.0077C16.9453 17.3651 17.4661 16.8443 18.1087 16.8443L18.1093 16.8438Z" fill="#C0C7D1"/>
</g>
<defs>
<clipPath id="clip0_813_2708">
<rect width="24" height="24" fill="white"/>
</clipPath>
</defs>
</svg>
