<svg width="25" height="25" viewBox="0 0 25 25" fill="none" xmlns="http://www.w3.org/2000/svg">
<g id="u1F9BD_wheelchair" clip-path="url(#clip0_587_12250)">
<g id="Group">
<path id="Vector" d="M22.5526 19.7174H19.6024C19.4428 19.7174 19.3138 19.5884 19.3138 19.4288V11.7404C19.3138 10.6652 18.442 9.79405 17.3674 9.79405H10.2406C9.97963 9.79405 9.75403 9.61105 9.70003 9.35545L8.43463 3.32125C8.33923 2.86645 7.89102 2.57665 7.43742 2.67565L6.51942 2.87665L5.14062 3.17845L5.42142 4.46005L6.84762 10.9754C7.75962 10.4342 8.81982 10.1174 9.95563 10.1174C11.9506 10.1174 13.7194 11.0816 14.8366 12.5642H17.9176C18.097 12.5642 18.2422 12.7094 18.2422 12.8888V19.7696C18.2422 20.3618 18.7222 20.8418 19.3144 20.8418H22.5532C22.8634 20.8418 23.1154 20.5904 23.1154 20.2796C23.1154 19.9688 22.8634 19.7174 22.5526 19.7174Z" fill="#8A94A0"/>
<g id="Group_2">
<path id="Vector_2" d="M6.5189 2.875L2.8907 3.6694C2.5367 3.7468 2.3129 4.0966 2.3903 4.4506C2.4677 4.8046 2.8175 5.0284 3.1715 4.951L5.4209 4.4584L5.1401 3.1768L6.5189 2.875Z" fill="#4E5968"/>
<path id="Vector_3" d="M14.8339 12.5592C13.7179 11.0772 11.9479 10.1172 9.95594 10.1172C8.81594 10.1172 7.75994 10.4292 6.84794 10.9752C5.04794 12.0372 3.83594 13.9932 3.83594 16.2312C3.83594 19.6032 6.58394 22.3452 9.95594 22.3452C13.3279 22.3452 16.0699 19.6032 16.0699 16.2312C16.0699 14.8512 15.6019 13.5852 14.8339 12.5592ZM9.95594 11.2572C11.4679 11.2572 12.8299 11.9412 13.7419 13.0152L10.7059 15.1512C10.4899 15.0012 10.2319 14.9112 9.94994 14.9112C9.67394 14.9112 9.41594 15.0012 9.19994 15.1512L6.16394 13.0152C7.07594 11.9412 8.43794 11.2572 9.95594 11.2572ZM4.98194 16.2312C4.98194 15.3252 5.22794 14.4852 5.64794 13.7532L8.68394 15.8892C8.65394 15.9972 8.63594 16.1112 8.63594 16.2312C8.63594 16.8012 8.99594 17.2812 9.50594 17.4612V21.1752C6.97394 20.9472 4.98194 18.8172 4.98194 16.2312ZM10.4059 21.1752V17.4612C10.9099 17.2812 11.2699 16.8012 11.2699 16.2312C11.2699 16.1112 11.2519 15.9972 11.2219 15.8892L14.2579 13.7532C14.6779 14.4852 14.9239 15.3252 14.9239 16.2312C14.9239 18.8172 12.9319 20.9472 10.4059 21.1752Z" fill="#4E5968"/>
</g>
</g>
</g>
<defs>
<clipPath id="clip0_587_12250">
<rect width="24" height="24" fill="white" transform="translate(0.75 0.5)"/>
</clipPath>
</defs>
</svg>
