<svg width="24" height="24" viewBox="0 0 24 24" fill="none" xmlns="http://www.w3.org/2000/svg">
<g clip-path="url(#clip0_813_2260)">
<path d="M9.09585 2C7.92296 2 6.91469 2.69469 6.45277 3.69331C4.95786 4.01171 3.83623 5.33837 3.83623 6.92796C3.83623 7.43752 3.95502 7.91813 4.16066 8.3493C2.87258 9.06208 2 10.4334 2 12.0097C2 13.0638 2.39318 14.0238 3.03661 14.7595C2.82736 15.1937 2.70675 15.6779 2.70675 16.1917C2.70675 17.7324 3.76145 19.0235 5.18761 19.3914C5.55184 20.832 6.85318 21.8994 8.40659 21.8994C9.02047 21.8994 9.59456 21.7329 10.0872 21.4429C11.0551 20.8724 11.6117 19.7966 11.6117 18.6726V4.57072C11.6117 3.24887 10.6149 2.09648 9.29606 2.00663C9.23033 2.00241 9.16339 2 9.09645 2H9.09585Z" fill="#FA8D87"/>
<path d="M15.4533 2C16.6262 2 17.6345 2.69469 18.0964 3.69331C19.5913 4.01171 20.713 5.33837 20.713 6.92796C20.713 7.43752 20.5942 7.91813 20.3885 8.3493C21.6766 9.06208 22.5492 10.4334 22.5492 12.0097C22.5492 13.0638 22.156 14.0238 21.5126 14.7595C21.7218 15.1937 21.8424 15.6779 21.8424 16.1917C21.8424 17.7324 20.7877 19.0235 19.3616 19.3914C18.9973 20.832 17.696 21.8994 16.1426 21.8994C15.5287 21.8994 14.9546 21.7329 14.462 21.4429C13.4941 20.8724 12.9375 19.7966 12.9375 18.6726V4.57072C12.9375 3.24887 13.9343 2.09648 15.2531 2.00663C15.3189 2.00241 15.3858 2 15.4527 2H15.4533Z" fill="#FA8D87"/>
<path d="M7.28574 12.3228C7.27971 12.3228 7.27368 12.3228 7.26825 12.3228C5.54178 12.2631 4.64025 10.5583 4.60226 10.4859C4.47682 10.2429 4.5715 9.94381 4.81512 9.81778C5.05815 9.69114 5.35604 9.78642 5.48268 10.0294C5.49956 10.062 6.17013 11.2928 7.30262 11.332C7.5764 11.3416 7.79047 11.5708 7.78082 11.8446C7.77178 12.1123 7.55167 12.3234 7.28634 12.3234L7.28574 12.3228Z" fill="#F55662"/>
<path d="M7.03866 13.5253C6.76488 13.5253 6.54297 13.3033 6.54297 13.0296C6.54297 10.8882 8.16753 9.82447 9.02685 9.56095C9.28977 9.48074 9.56656 9.62788 9.64616 9.8896C9.72636 10.1507 9.58043 10.4269 9.31992 10.5077C9.24695 10.5312 7.53435 11.0969 7.53435 13.029C7.53435 13.3027 7.31243 13.5253 7.03866 13.5253Z" fill="#F55662"/>
<path d="M8.06758 19.4263C8.04285 19.4263 8.01752 19.4245 7.9922 19.4202C7.72144 19.3792 7.5357 19.126 7.57731 18.8552C7.94456 16.4551 6.18793 15.9751 5.98652 15.9281C5.72119 15.8666 5.55354 15.6013 5.61385 15.3359C5.67415 15.0712 5.93044 14.9035 6.2018 14.9602C7.1974 15.1779 8.97091 16.3044 8.55724 19.0054C8.51985 19.2508 8.30879 19.4263 8.06758 19.4263Z" fill="#F55662"/>
<path d="M7.86305 17.4315C7.59531 17.4315 7.374 17.218 7.36736 16.9485C7.36013 16.6753 7.57601 16.448 7.84919 16.4401C7.92577 16.4377 9.55033 16.3617 9.77888 14.9C9.82049 14.6292 10.0732 14.4429 10.3451 14.4869C10.6153 14.5291 10.801 14.783 10.7588 15.0532C10.4724 16.8827 8.7477 17.4092 7.87632 17.4315C7.8715 17.4315 7.86667 17.4315 7.86305 17.4315Z" fill="#F55662"/>
<path d="M9.98887 8.21857C9.7151 8.21857 9.49318 7.99666 9.49318 7.72288C9.49318 6.12666 7.33615 5.62916 7.31444 5.62434C7.0479 5.56524 6.87845 5.30111 6.93754 5.03397C6.99604 4.76743 7.25534 4.59798 7.5267 4.65587C7.64731 4.6818 10.4852 5.32584 10.4852 7.72288C10.4852 7.99666 10.2626 8.21857 9.98887 8.21857Z" fill="#F55662"/>
<path d="M17.5143 12.3216C17.249 12.3216 17.0283 12.1105 17.0198 11.8428C17.0102 11.569 17.2243 11.3399 17.498 11.3302C18.6402 11.291 19.3114 10.0397 19.3186 10.0271C19.4458 9.78524 19.7443 9.69177 19.9868 9.81781C20.2286 9.94384 20.3238 10.2417 20.1984 10.4842C20.161 10.5565 19.2589 12.2613 17.5324 12.321C17.5264 12.321 17.5204 12.321 17.5149 12.321L17.5143 12.3216Z" fill="#F55662"/>
<path d="M17.7583 13.525C17.4845 13.525 17.2626 13.3031 17.2626 13.0294C17.2626 11.0779 15.4975 10.5141 15.4794 10.5087C15.2177 10.4285 15.0706 10.1511 15.1508 9.88937C15.231 9.62766 15.5042 9.48112 15.7701 9.56072C16.6294 9.82425 18.254 10.888 18.254 13.0294C18.254 13.3031 18.0321 13.525 17.7583 13.525Z" fill="#F55662"/>
<path d="M16.7308 19.4267C16.4902 19.4267 16.2791 19.2512 16.2412 19.0057C15.8275 16.3042 17.601 15.1783 18.5966 14.9606C18.8631 14.9027 19.1279 15.071 19.187 15.3387C19.2454 15.6053 19.0772 15.8682 18.8119 15.9285C18.6105 15.9755 16.8538 16.4561 17.2211 18.8556C17.2621 19.1263 17.077 19.3796 16.8062 19.4206C16.7809 19.4242 16.7555 19.4267 16.7308 19.4267Z" fill="#F55662"/>
<path d="M16.9324 17.4315C16.9282 17.4315 16.924 17.4315 16.9197 17.4315C16.0484 17.4092 14.3231 16.8827 14.0372 15.0532C13.995 14.783 14.1802 14.5291 14.4509 14.4869C14.7205 14.4429 14.975 14.6292 15.0172 14.9C15.2463 16.3653 16.8781 16.4377 16.9475 16.4401C17.22 16.4498 17.4359 16.6777 17.4275 16.9509C17.419 17.2192 17.1995 17.4315 16.9324 17.4315Z" fill="#F55662"/>
<path d="M14.8082 8.21857C14.5344 8.21857 14.3125 7.99666 14.3125 7.72288C14.3125 5.32584 17.1504 4.68241 17.271 4.65587C17.5375 4.59798 17.8016 4.76743 17.8601 5.03397C17.9192 5.30111 17.7498 5.56524 17.4832 5.62434C17.4615 5.62916 15.3045 6.12666 15.3045 7.72288C15.3045 7.99666 15.0826 8.21857 14.8088 8.21857H14.8082Z" fill="#F55662"/>
</g>
<defs>
<clipPath id="clip0_813_2260">
<rect width="24" height="24" fill="white"/>
</clipPath>
</defs>
</svg>
