<svg width="24" height="24" viewBox="0 0 24 24" fill="none" xmlns="http://www.w3.org/2000/svg">
<g clip-path="url(#clip0_813_2199)">
<path d="M10.986 20.924C11.7539 21.4388 12.7461 21.4388 13.5134 20.924C15.6097 19.5177 19.7561 16.4403 21.5771 13.0109C24.067 8.32154 21.1431 3.64453 17.279 3.64453C15.0779 3.64453 13.7524 4.79372 13.0196 5.78301C12.6325 6.30548 11.8681 6.30548 11.4809 5.78301C10.7476 4.79372 9.4227 3.64453 7.22155 3.64453C3.35694 3.64453 0.433002 8.32213 2.92292 13.0114C4.74394 16.4409 8.88969 19.5183 10.9866 20.9246L10.986 20.924Z" fill="#EC4452"/>
<path d="M18.1505 5.94619L17.7246 3L17.2988 5.94619C17.1688 6.84704 16.603 7.55167 15.8802 7.71391L13.5156 8.24458L15.8802 8.77524C16.603 8.93749 17.1688 9.64212 17.2988 10.543L17.7246 13.4892L18.1505 10.543C18.2805 9.64212 18.8463 8.93749 19.5691 8.77524L21.9337 8.24458L19.5691 7.71391C18.8463 7.55167 18.2805 6.84704 18.1505 5.94619Z" fill="#FFD800"/>
<path d="M7.99649 12.9452L7.70187 10.9062L7.40725 12.9452C7.31705 13.5684 6.92579 14.0563 6.42558 14.1687L4.78906 14.536L6.42558 14.9032C6.92579 15.0157 7.31764 15.503 7.40725 16.1268L7.70187 18.1657L7.99649 16.1268C8.08669 15.5036 8.47796 15.0157 8.97816 14.9032L10.6141 14.536L8.97816 14.1687C8.47796 14.0563 8.08611 13.569 7.99649 12.9452Z" fill="#FFD800"/>
</g>
<defs>
<clipPath id="clip0_813_2199">
<rect width="24" height="24" fill="white"/>
</clipPath>
</defs>
</svg>
