<svg width="24" height="24" viewBox="0 0 24 24" fill="none" xmlns="http://www.w3.org/2000/svg">
<g clip-path="url(#clip0_813_2757)">
<path d="M20.5241 21.2165L12.1379 17.5391L4.8761 20.6705L3.3731 20.4329L3.0365 22.2311C3.0215 22.3745 3.1337 22.4993 3.2783 22.4993H21.3197C21.3197 21.9347 21.0047 21.4277 20.5241 21.2165Z" fill="#D1D1D1"/>
<path d="M12.0092 18.3232C14.8276 18.3232 17.1123 15.9152 17.1123 12.9448C17.1123 9.9744 14.8276 7.56641 12.0092 7.56641C9.19094 7.56641 6.90625 9.9744 6.90625 12.9448C6.90625 15.9152 9.19094 18.3232 12.0092 18.3232Z" fill="#FFB582"/>
<path d="M7.51851 15.1034C8.28596 15.1034 8.90811 14.4813 8.90811 13.7138C8.90811 12.9464 8.28596 12.3242 7.51851 12.3242C6.75105 12.3242 6.12891 12.9464 6.12891 13.7138C6.12891 14.4813 6.75105 15.1034 7.51851 15.1034Z" fill="#FFB582"/>
<path d="M16.6044 15.0565C17.3719 15.0565 17.994 14.4344 17.994 13.6669C17.994 12.8995 17.3719 12.2773 16.6044 12.2773C15.837 12.2773 15.2148 12.8995 15.2148 13.6669C15.2148 14.4344 15.837 15.0565 16.6044 15.0565Z" fill="#FFB582"/>
<path d="M17.1024 12.3731C17.1468 9.52126 14.535 7.19266 11.442 7.50466C9.06295 7.74466 7.15795 9.56086 6.93355 11.7989C6.91075 12.0263 6.90475 12.2513 6.91495 12.4721C6.91495 12.4721 7.34695 12.3755 7.73155 13.1597L11.5224 9.88246C11.5224 9.88246 14.1894 12.7649 16.5264 12.6197C16.578 12.6167 16.6374 12.5999 16.6962 12.5759C16.8522 12.4937 16.983 12.3407 17.1024 12.3731Z" fill="#FFDB87"/>
<path d="M10.7979 13.6438C11.0746 13.6438 11.2989 13.3746 11.2989 13.0426C11.2989 12.7106 11.0746 12.4414 10.7979 12.4414C10.5212 12.4414 10.2969 12.7106 10.2969 13.0426C10.2969 13.3746 10.5212 13.6438 10.7979 13.6438Z" fill="black"/>
<path d="M13.4424 13.6438C13.7191 13.6438 13.9434 13.3746 13.9434 13.0426C13.9434 12.7106 13.7191 12.4414 13.4424 12.4414C13.1657 12.4414 12.9414 12.7106 12.9414 13.0426C12.9414 13.3746 13.1657 13.6438 13.4424 13.6438Z" fill="black"/>
<path d="M17.0273 22.4974L16.3955 20.6146C16.3025 20.2984 16.4831 19.966 16.7993 19.873C16.9139 19.8394 17.0309 19.8418 17.1377 19.8736L17.0009 19.4086C16.9079 19.0924 17.0885 18.76 17.4047 18.667C17.5823 18.6148 17.7647 18.649 17.9069 18.745C17.8223 18.4252 18.0143 18.0934 18.3413 18.013C18.6533 17.9362 18.9695 18.1288 19.0601 18.4378L19.1309 18.6784C19.1507 18.4402 19.3133 18.2266 19.5569 18.1552C19.8731 18.0622 20.2055 18.2428 20.2985 18.559L20.7743 20.4628C20.7803 20.4874 20.7959 20.5084 20.8163 20.5222C20.8319 20.5324 20.8541 20.5246 20.8583 20.506L20.9591 20.0878C21.0407 19.7488 21.3821 19.5406 21.7211 19.6228C22.0601 19.7044 22.2683 20.0458 22.1861 20.3848L21.6989 22.4974H17.0261H17.0273Z" fill="#FFB582"/>
<path d="M13.2282 18.5969V17.5391H10.8906V18.5969L11.8812 19.3163C11.9874 19.3937 12.1314 19.3937 12.2376 19.3163L13.2282 18.5969Z" fill="#FFB582"/>
<path d="M13.1286 15.9648C13.1286 16.4898 12.7026 16.9158 12.1776 16.9158C11.6526 16.9158 11.2266 16.4898 11.2266 15.9648H13.1286Z" fill="#FF7D7D"/>
<path d="M13.3126 18.4841L12.1564 19.0541C12.0976 19.0901 12.0202 19.0901 11.9614 19.0541L10.8052 18.4841C10.6906 18.4145 10.5352 18.4871 10.5352 18.6107V20.2355C10.5352 20.3585 10.6906 20.4317 10.8052 20.3621L11.9614 19.7921C12.0202 19.7561 12.0976 19.7561 12.1564 19.7921L13.3126 20.3621C13.4272 20.4317 13.5826 20.3591 13.5826 20.2355V18.6107C13.5826 18.4877 13.4272 18.4145 13.3126 18.4841Z" fill="#23B169"/>
<path d="M3.44686 13.7687C4.36244 13.7687 5.10466 13.0265 5.10466 12.1109C5.10466 11.1953 4.36244 10.4531 3.44686 10.4531C2.53128 10.4531 1.78906 11.1953 1.78906 12.1109C1.78906 13.0265 2.53128 13.7687 3.44686 13.7687Z" fill="#EF4452"/>
<path d="M13.5797 4.8156C14.4953 4.8156 15.2375 4.07338 15.2375 3.1578C15.2375 2.24222 14.4953 1.5 13.5797 1.5C12.6641 1.5 11.9219 2.24222 11.9219 3.1578C11.9219 4.07338 12.6641 4.8156 13.5797 4.8156Z" fill="#596FF3"/>
<path d="M20.3453 16.9679C21.2609 16.9679 22.0031 16.2257 22.0031 15.3101C22.0031 14.3946 21.2609 13.6523 20.3453 13.6523C19.4297 13.6523 18.6875 14.3946 18.6875 15.3101C18.6875 16.2257 19.4297 16.9679 20.3453 16.9679Z" fill="#23B169"/>
<path d="M17.1972 9.31354C16.7454 6.90754 14.637 5.08594 12.1002 5.08594H12.0138C9.47997 5.08594 7.37277 6.90334 6.91797 9.30514C7.02717 9.31294 11.9124 9.65374 17.1972 9.31354Z" fill="#333333"/>
<path d="M17.2909 10.2146C17.2897 9.90558 17.2615 9.60378 17.2099 9.31038C17.2063 9.31038 17.2027 9.31038 17.1997 9.31038C11.9149 9.65058 7.02973 9.30918 6.92053 9.30138C6.91933 9.30138 6.91033 9.30078 6.91033 9.30078C6.85873 9.59298 6.82993 9.89358 6.82812 10.2008C11.3455 10.8476 15.2119 10.511 17.2915 10.214L17.2909 10.2146Z" fill="#BFBFBF"/>
<path d="M18.2771 10.0584C18.0197 10.1046 17.6831 10.1592 17.2901 10.2156C15.2105 10.5126 11.3447 10.8486 6.8267 10.2024C6.4991 10.1556 6.1691 10.1046 5.8349 10.047C5.4959 9.98884 5.1875 10.2564 5.1875 10.6086V10.7748C5.1875 11.2122 5.5025 11.5818 5.9255 11.64C7.8959 11.91 13.4549 12.5256 18.2267 11.6688C18.6329 11.5956 18.9287 11.232 18.9287 10.809V10.62C18.9287 10.266 18.6173 9.99724 18.2771 10.0584Z" fill="#333333"/>
<path d="M7.98427 18.3146C8.09047 18.0026 7.92427 17.663 7.61167 17.5568C7.49827 17.5184 7.38187 17.516 7.27387 17.543L7.43047 17.084C7.53667 16.772 7.37047 16.4324 7.05787 16.3262C6.88267 16.2662 6.69907 16.2926 6.55267 16.3826C6.65047 16.0664 6.47287 15.7274 6.14947 15.6326C5.84107 15.5426 5.51707 15.722 5.41327 16.0262L5.33227 16.2638C5.32267 16.0244 5.16907 15.8048 4.92907 15.7232C4.61707 15.617 4.27747 15.7832 4.17127 16.0958L3.61507 17.978C3.60787 18.002 3.59167 18.0224 3.57007 18.0356C3.55387 18.0452 3.53227 18.0362 3.52867 18.0176L3.44587 17.5952C3.37867 17.2532 3.04627 17.0306 2.70427 17.0984C2.36227 17.1656 2.13967 17.498 2.20747 17.84L2.63827 20.1122C2.78527 20.882 3.37207 21.5738 4.22227 21.8636C5.43847 22.2782 6.73207 21.7136 7.11127 20.6012C7.11727 20.5844 7.12147 20.5676 7.12687 20.5508L7.98427 18.3146Z" fill="#FFB582"/>
<path d="M7.73438 19.4391L8.97037 18.9062L9.88117 22.5026H8.45198L7.73438 19.4391Z" fill="#23B169"/>
<path d="M16.471 19.4391L15.235 18.9062L14.3242 22.5026H15.7534L16.471 19.4391Z" fill="#23B169"/>
<path d="M12.1768 15.1055C11.4784 15.1055 10.8574 15.3455 10.4572 15.7187C10.2466 15.9155 10.3846 16.2683 10.6726 16.2683L11.8714 16.1123C12.0742 16.0859 12.2794 16.0859 12.4822 16.1123L13.681 16.2683C13.969 16.2683 14.1076 15.9149 13.8964 15.7187C13.4956 15.3449 12.8746 15.1055 12.1768 15.1055Z" fill="#FFDB87"/>
</g>
<defs>
<clipPath id="clip0_813_2757">
<rect width="24" height="24" fill="white"/>
</clipPath>
</defs>
</svg>
