<svg width="24" height="24" viewBox="0 0 24 24" fill="none" xmlns="http://www.w3.org/2000/svg">
<g clip-path="url(#clip0_813_3643)">
<path d="M17.2594 2.43539C17.0254 2.67419 16.813 3.21059 16.6282 3.86159C16.4968 4.32479 16.1314 4.65059 15.6508 4.74419L15.595 4.75499L15.5884 4.75619L12.895 2.11379C12.0952 1.32899 10.8586 1.29179 10.1332 2.03099L7.68219 4.52879L7.66779 4.54319C7.76139 4.93559 7.99959 5.26799 8.32779 5.47979C8.43159 5.54939 8.54439 5.60639 8.66499 5.64899C9.33399 5.88539 9.88959 6.14039 10.1476 6.39419C11.0806 7.30978 10.9894 8.91479 9.94539 9.98099C8.89899 11.0454 7.29579 11.1666 6.36279 10.2516C6.10419 9.99839 5.83899 9.44759 5.58939 8.78339C5.54439 8.66339 5.48499 8.55178 5.41359 8.44919C5.19519 8.12459 4.85859 7.89299 4.46439 7.80719L4.44999 7.82159L1.99899 10.3194C1.27359 11.0586 1.33419 12.2946 2.13399 13.0794L4.82739 15.7218L4.82619 15.7284L4.81659 15.7842C4.73259 16.2672 4.41399 16.638 3.95319 16.7784C3.30579 16.9752 2.77299 17.1978 2.53899 17.4366C1.69239 18.2994 1.94199 19.9164 3.09579 21.048C4.24959 22.1802 5.87079 22.3986 6.71739 21.5358C6.95439 21.2946 7.16859 20.7486 7.35459 20.088C7.48839 19.6128 7.86639 19.2828 8.36199 19.197C8.36379 19.197 8.36619 19.1958 8.36799 19.1958L11.1082 21.8844C11.908 22.6692 13.1446 22.7064 13.87 21.9672L16.2928 19.4982C16.1698 18.9906 15.8062 18.582 15.3154 18.4098C14.6368 18.171 14.0716 17.913 13.8106 17.6568C12.877 16.7412 12.9688 15.1344 14.0146 14.0676C15.0604 13.0008 16.6654 12.8796 17.599 13.7952C17.8576 14.0484 18.1228 14.5992 18.3724 15.2634C18.55 15.7362 18.9478 16.0848 19.4398 16.2066L19.5058 16.2228L22.0042 13.6764C22.7296 12.9372 22.669 11.7012 21.8692 10.9164L19.129 8.22779C19.129 8.22779 19.1302 8.22359 19.1302 8.22179C19.2064 7.72439 19.5292 7.34039 20.002 7.19759C20.659 6.99899 21.2008 6.77398 21.4372 6.53278C22.2838 5.66999 22.0342 4.05299 20.8804 2.92139C19.7266 1.78919 18.1054 1.57079 17.2588 2.43359L17.2594 2.43539Z" fill="#3E5AF4"/>
</g>
<defs>
<clipPath id="clip0_813_3643">
<rect width="24" height="24" fill="white"/>
</clipPath>
</defs>
</svg>
