<svg width="24" height="24" viewBox="0 0 24 24" fill="none" xmlns="http://www.w3.org/2000/svg">
<g clip-path="url(#clip0_813_191)">
<path d="M8.3557 5.11071C7.0663 3.88791 5.9599 2.54631 5.9599 2.54631V2.55111C5.8945 2.42991 5.7697 2.34531 5.6227 2.34771C5.4121 2.35071 5.2441 2.52351 5.2471 2.73411L5.3683 11.6621C4.7929 11.1275 3.9643 10.8629 3.0865 11.0795C2.1865 11.3015 1.4749 12.0491 1.2955 12.9581C0.981699 14.5469 2.2063 15.9329 3.7333 15.9119C4.1023 15.9071 4.4515 15.8201 4.7641 15.6695C5.5969 15.2675 6.1675 14.4089 6.1543 13.4249L6.0445 5.29911C8.5345 5.74251 8.7223 7.92531 8.5987 9.23511C8.5735 9.49971 8.9389 9.60531 9.0565 9.36711C9.7417 7.97691 9.4249 6.12471 8.3563 5.11131L8.3557 5.11071Z" fill="#3D3D3D"/>
<path d="M14.3205 10.4135C13.0479 9.17328 11.9595 7.81668 11.9595 7.81668V7.82148C11.8959 7.69968 11.7723 7.61328 11.6253 7.61328C11.4147 7.61328 11.2443 7.78368 11.2443 7.99428V16.9235C10.6761 16.3811 9.85108 16.1057 8.97028 16.3103C8.06728 16.5203 7.34548 17.2577 7.15408 18.1643C6.81868 19.7489 8.02468 21.1511 9.55168 21.1511C9.92068 21.1511 10.2711 21.0695 10.5855 20.9225C11.4237 20.5319 12.0063 19.6811 12.0063 18.6965V10.5701C14.4897 11.0471 14.6481 13.2323 14.5071 14.5403C14.4783 14.8043 14.8425 14.9153 14.9631 14.6783C15.6669 13.2971 15.3753 11.4407 14.3205 10.4135Z" fill="#3D3D3D"/>
<path d="M21.9025 8.49942C20.6299 7.25922 19.5415 5.90262 19.5415 5.90262V5.90742C19.4779 5.78562 19.3543 5.69922 19.2073 5.69922C18.9967 5.69922 18.8263 5.86962 18.8263 6.08022V15.0094C18.2581 14.467 17.4331 14.1916 16.5523 14.3962C15.6493 14.6062 14.9275 15.3436 14.7361 16.2502C14.4007 17.8348 15.6067 19.237 17.1337 19.237C17.5027 19.237 17.8531 19.1554 18.1675 19.0084C19.0057 18.6178 19.5883 17.767 19.5877 16.7824V8.65602C22.0711 9.13302 22.2295 11.3182 22.0885 12.6262C22.0597 12.8902 22.4239 13.0012 22.5445 12.7642C23.2483 11.383 22.9573 9.52662 21.9025 8.49942Z" fill="#3D3D3D"/>
</g>
<defs>
<clipPath id="clip0_813_191">
<rect width="24" height="24" fill="white"/>
</clipPath>
</defs>
</svg>
