<svg width="24" height="24" viewBox="0 0 24 24" fill="none" xmlns="http://www.w3.org/2000/svg">
<g clip-path="url(#clip0_577_2620)">
<path d="M3.03137 21.4678C2.90337 21.4678 2.77537 21.4188 2.67787 21.3213C2.48237 21.1258 2.48237 20.8098 2.67787 20.6143L11.2354 12.0568C11.4309 11.8613 11.7469 11.8613 11.9424 12.0568C12.1379 12.2523 12.1379 12.5683 11.9424 12.7638L3.38487 21.3213C3.28737 21.4188 3.15937 21.4678 3.03137 21.4678Z" fill="#C0C7D1"/>
<path d="M13.0708 5.30859L18.6878 10.9256L12.1123 17.5011C11.6573 17.9561 11.0208 18.1796 10.3813 18.1086L8.02129 17.8476C7.03579 17.7386 6.25779 16.9606 6.14879 15.9751L5.88779 13.6151C5.81729 12.9756 6.04079 12.3391 6.49529 11.8841L13.0708 5.30859Z" fill="#E5E9EE"/>
<path d="M17.5784 4.41767L14.75 7.24609L16.7525 9.24862L19.581 6.42019L17.5784 4.41767Z" fill="#C0C7D1"/>
<path d="M12.3074 4.11052L11.6612 4.75682C11.5635 4.85445 11.5635 5.01274 11.6612 5.11037L18.8896 12.3388C18.9872 12.4364 19.1455 12.4364 19.2431 12.3388L19.8894 11.6925C19.987 11.5948 19.987 11.4366 19.8894 11.3389L12.661 4.11052C12.5634 4.01289 12.4051 4.01289 12.3074 4.11052Z" fill="#D0D5DA"/>
<path d="M17.3074 3.11052L16.6612 3.75682C16.5635 3.85445 16.5635 4.01274 16.6612 4.11037L19.8898 7.33902C19.9874 7.43665 20.1457 7.43665 20.2434 7.33902L20.8896 6.69272C20.9873 6.59509 20.9873 6.4368 20.8896 6.33917L17.661 3.11052C17.5634 3.01289 17.4051 3.01289 17.3074 3.11052Z" fill="#D0D5DA"/>
<path d="M6.49936 11.8857C6.04436 12.3407 5.82086 12.9772 5.89186 13.6167L6.25136 16.8667C6.30286 17.3317 6.67036 17.6992 7.13536 17.7507L10.3854 18.1102C11.0244 18.1807 11.6614 17.9572 12.1159 17.5027L14.5094 15.1092L8.89236 9.49219L6.49936 11.8857Z" fill="#EF4452"/>
</g>
<defs>
<clipPath id="clip0_577_2620">
<rect width="20" height="20" fill="white" transform="translate(2 2)"/>
</clipPath>
</defs>
</svg>
