<svg width="28" height="28" viewBox="0 0 28 28" fill="none" xmlns="http://www.w3.org/2000/svg">
<g id="CaretDown">
<path id="Vector" d="M23.6785 9.09523L14.9285 17.8452C14.8066 17.9676 14.6617 18.0647 14.5022 18.1309C14.3426 18.1972 14.1716 18.2313 13.9989 18.2313C13.8261 18.2313 13.6551 18.1972 13.4955 18.1309C13.336 18.0647 13.1911 17.9676 13.0692 17.8452L4.31917 9.09523C4.0726 8.84866 3.93408 8.51424 3.93408 8.16554C3.93408 7.81684 4.0726 7.48242 4.31917 7.23585C4.56574 6.98928 4.90016 6.85076 5.24886 6.85076C5.59756 6.85076 5.93198 6.98928 6.17855 7.23585L14 15.0573L21.8214 7.23476C22.0679 6.98819 22.4023 6.84967 22.751 6.84967C23.0997 6.84967 23.4342 6.98819 23.6807 7.23476C23.9273 7.48133 24.0658 7.81575 24.0658 8.16445C24.0658 8.51315 23.9273 8.84757 23.6807 9.09414L23.6785 9.09523Z" fill="white"/>
</g>
</svg>
