<svg width="201" height="160" viewBox="0 0 201 160" fill="none" xmlns="http://www.w3.org/2000/svg">
<g clip-path="url(#clip0_8633_5380)">
<g clip-path="url(#clip1_8633_5380)">
<path d="M89.7327 80.671C87.8288 79.6964 85.7058 79.1554 83.4031 78.4925C78.3739 77.0414 73.1148 75.4612 67.8161 75.4146C59.6903 75.3394 51.7585 75.9521 43.7477 77.1202C39.7602 77.7006 34.1562 78.2094 30.8297 80.5743C25.9406 84.057 22.0501 87.3893 18.3285 92.0365C14.3267 97.0349 11.9055 102.521 9.85427 108.558C7.23548 116.265 2.86724 123.793 1.41595 131.844C-0.663998 143.393 -1.2244 163.611 12.6132 166C26.9033 168.469 42.009 168.842 56.6153 168.681C69.2315 168.541 81.3986 166.595 93.9034 165.549C100.876 164.965 107.939 167.09 112.892 160.905C122.911 148.397 119.125 120.361 113.435 106.906C108.416 95.0355 101.113 86.5043 89.7327 80.671Z" fill="#EB9A60"/>
<path d="M48.2237 66.5072C49.2942 69.7069 48.935 75.3932 48.2237 79.3059C54.2839 83.9281 65.3338 82.8603 71.7461 80.0154C71.0348 74.6837 69.6087 69.7069 69.6087 64.3752" fill="#F7CBB4"/>
<path d="M78.4854 79.3553L37.7406 79.8235L38.3762 134.857L79.121 134.389L78.4854 79.3553Z" fill="white"/>
<path d="M65.7314 96.8318H66.9362L66.9401 102.92H65.7354L65.7334 99.9256H64.4503L64.4495 98.7993H65.7327L65.7314 96.8318ZM63.7925 96.9957C63.7931 97.8013 63.7365 98.5355 63.6229 99.1914L65.3926 101.986L64.3593 102.627L63.2104 100.703C62.7193 101.936 61.9498 102.627 61.0231 102.635L61.0223 101.38C61.9561 101.273 62.568 99.4979 62.5664 96.953L63.7925 96.9957Z" fill="#333333"/>
<path d="M56.4639 99.17C55.9866 99.726 55.2597 100.132 54.39 100.154L54.3894 99.0987C55.1735 99.0559 55.6935 98.4785 55.8143 97.9011H54.4741L54.4735 96.9031H58.3515L58.3521 97.7728H58.9936L58.993 96.8318H60.1978L60.2 100.239H58.9952L58.9943 98.7993H58.1816L58.1811 97.9011H57.0333C57.0192 98.0294 56.9979 98.1506 56.9552 98.2789L58.5811 99.2056L58.0043 100.09L56.4639 99.17ZM57.4769 100.325C59.0309 100.325 60.2573 100.667 60.2579 101.658C60.2586 102.649 59.0327 102.991 57.4786 102.991C55.9245 102.991 54.6982 102.649 54.6975 101.658C54.6969 100.667 55.9228 100.325 57.4769 100.325ZM57.478 102.043C58.2978 102.043 58.9607 101.936 58.9605 101.658C58.9603 101.387 58.2973 101.273 57.4775 101.273C56.6577 101.273 55.9948 101.387 55.995 101.658C55.9952 101.936 56.6582 102.043 57.478 102.043Z" fill="#333333"/>
<path d="M53.4309 96.8318L53.4338 101.337H52.229L52.2261 96.8318H53.4309ZM49.5244 96.8389C50.7148 96.8389 51.528 97.566 51.5287 98.6639C51.5294 99.7688 50.7172 100.489 49.5267 100.489C48.3362 100.489 47.5231 99.7688 47.5224 98.6639C47.5217 97.566 48.3339 96.8389 49.5244 96.8389ZM49.525 97.8441C49.0616 97.8441 48.7196 98.1363 48.72 98.6639C48.7203 99.1914 49.0627 99.4837 49.5261 99.4837C49.9894 99.4837 50.3314 99.1914 50.3311 98.6639C50.3307 98.1363 49.9884 97.8441 49.525 97.8441ZM49.2845 100.788L49.2852 101.836H53.5197L53.5204 102.92H48.0598L48.0584 100.788H49.2845Z" fill="#333333"/>
<path d="M70.8144 90.2939H70.1016L70.1018 90.7145H70.8147L70.8153 91.7196H70.1025L70.1028 92.2614H68.8981L68.8959 88.9109H70.1007L70.1009 89.2887H70.8138L70.8144 90.2939ZM66.2817 92.1259C65.1126 92.1259 64.3281 91.4915 64.3274 90.522C64.3268 89.5596 65.1106 88.918 66.2797 88.918C67.4488 88.918 68.2334 89.5596 68.234 90.522C68.2346 91.4915 67.4509 92.1259 66.2817 92.1259ZM66.2803 89.8947C65.8169 89.8947 65.5248 90.137 65.5251 90.522C65.5253 90.9069 65.8177 91.1493 66.2811 91.1493C66.7445 91.1493 67.0366 90.9069 67.0364 90.522C67.0361 90.137 66.7437 89.8947 66.2803 89.8947ZM67.451 92.3469C68.9623 92.3469 70.1601 92.6962 70.1608 93.7085C70.1614 94.7208 68.964 95.0701 67.4528 95.0701C65.9415 95.0701 64.7436 94.7208 64.743 93.7085C64.7423 92.6962 65.9397 92.3469 67.451 92.3469ZM67.4521 94.1077C68.2363 94.1077 68.8636 94.0008 68.8634 93.7085C68.8632 93.4234 68.2358 93.3093 67.4516 93.3093C66.6675 93.3093 66.0402 93.4234 66.0404 93.7085C66.0406 94.0008 66.668 94.1077 67.4521 94.1077Z" fill="#333333"/>
<path d="M62.6168 93.6799H63.8073L63.8081 94.7849H57.6488L57.6481 93.6799H58.8386L58.8378 92.3611C58.2316 92.019 57.882 91.4914 57.8816 90.857C57.8808 89.7093 59.0138 88.918 60.7247 88.918C62.4355 88.918 63.5695 89.7093 63.5703 90.857C63.5707 91.4914 63.2217 92.019 62.616 92.3611L62.6168 93.6799ZM60.7254 90.0015C59.8058 90.0015 59.1573 90.3366 59.1576 90.857C59.1579 91.3702 59.8069 91.7124 60.7265 91.7124C61.6461 91.7124 62.2946 91.3702 62.2942 90.857C62.2939 90.3366 61.645 90.0015 60.7254 90.0015ZM60.0428 92.7461L60.0434 93.6799H61.4121L61.4115 92.7461C61.1976 92.7746 60.9695 92.7889 60.7272 92.7889C60.4848 92.7889 60.2567 92.7746 60.0428 92.7461Z" fill="#333333"/>
<path d="M56.795 88.9109L56.7989 94.9988H55.5941L55.5902 88.9109H56.795ZM54.6493 89.0535L54.6504 90.7002C54.652 93.1739 53.2771 94.7137 51.1456 94.7137L51.1449 93.5731C52.6205 93.5588 53.4182 92.461 53.4171 90.7002L53.4168 90.1513H51.1427L51.142 89.0535H54.6493Z" fill="#333333"/>
<path d="M49.8861 89.8448H50.5989L50.5997 90.9925H49.8868L49.8876 92.2614H48.6829L48.6807 88.9109H49.8855L49.8861 89.8448ZM46.3369 91.2206C45.8667 91.7838 45.1256 92.2044 44.2417 92.2257L44.241 91.1707C45.0251 91.1279 45.5452 90.5576 45.666 89.9802H44.3258L44.3251 88.9822H48.2031L48.2038 89.9802H46.885C46.8779 90.0943 46.8495 90.2083 46.821 90.3224L48.4184 91.2063L47.8559 92.0974L46.3369 91.2206ZM47.2002 92.3469C48.7328 92.3469 49.9449 92.6962 49.9456 93.7085C49.9463 94.7208 48.7346 95.0701 47.2019 95.0701C45.6693 95.0701 44.4572 94.7208 44.4565 93.7085C44.4558 92.6962 45.6675 92.3469 47.2002 92.3469ZM47.2013 94.1077C48.0069 94.1077 48.6484 94.0008 48.6482 93.7085C48.648 93.4234 48.0063 93.3093 47.2008 93.3093C46.3952 93.3093 45.7537 93.4234 45.7539 93.7085C45.7541 94.0008 46.3958 94.1077 47.2013 94.1077Z" fill="#333333"/>
<path d="M82.5694 116.256C82.3664 116.015 82.1664 115.777 81.9694 115.539C80.4051 113.645 79.3335 111.326 77.8707 109.349C76.5125 107.512 73.8856 106.255 71.6706 105.737C65.0764 104.198 67.9392 114.014 70.9721 113.064C69.181 113.624 66.8705 113.889 66.9093 116.691C66.9332 118.207 68.8556 121.291 70.5124 121.059C65.9152 120.556 65.8197 126.856 69.7034 128.25C68.3004 129.801 66.1302 128.717 66.0466 131.718C65.9839 133.966 67.6765 134.788 68.8466 136.223C71.1034 138.986 74.2498 144.453 78.4946 143.191C81.4887 142.303 84.0888 139.12 85.3694 136.396C87.5904 131.677 89.2143 125.99 86.3844 121.226C85.3336 119.46 83.9037 117.831 82.5664 116.25L82.5694 116.256Z" fill="#F7D1BD"/>
<path d="M69.9959 129.992C72.5512 129.798 74.4916 131.593 76.2379 133.201C76.5901 133.526 77.1185 133.002 76.7663 132.674C74.8767 130.935 72.7572 129.036 69.9959 129.247C69.5213 129.283 69.5153 130.027 69.9959 129.992Z" fill="#BA8076"/>
<path d="M70.9751 121.851C73.5751 123.081 75.3543 125.379 77.5066 127.196C77.8707 127.502 78.4021 126.978 78.0349 126.669C75.8319 124.811 74.0109 122.464 71.3512 121.208C70.9183 121.002 70.5392 121.646 70.9751 121.851Z" fill="#BA8076"/>
<path d="M71.7213 113.413C73.7124 114.795 75.3005 116.724 76.8379 118.57C77.1453 118.939 77.6707 118.409 77.3662 118.043C75.7811 116.143 74.1453 114.193 72.0975 112.77C71.7034 112.496 71.3303 113.139 71.7213 113.413Z" fill="#BA8076"/>
<path d="M32.8824 116.662C33.0824 116.425 33.2794 116.19 33.4735 115.955C35.0143 114.09 36.0699 111.805 37.5107 109.858C38.8486 108.048 41.4362 106.811 43.618 106.3C50.1135 104.784 47.2936 114.454 44.3061 113.518C46.0704 114.07 48.3463 114.331 48.3081 117.091C48.2845 118.583 46.3909 121.622 44.7589 121.393C49.2872 120.897 49.3813 127.103 45.5558 128.476C46.9378 130.004 49.0755 128.937 49.1579 131.893C49.2196 134.107 47.5524 134.917 46.3997 136.33C44.1767 139.052 41.0775 144.437 36.8962 143.193C33.9469 142.319 31.3857 139.184 30.1243 136.5C27.9366 131.852 26.337 126.25 29.1245 121.557C30.1596 119.818 31.568 118.214 32.8824 116.656V116.662Z" fill="#F7D1BD"/>
<path d="M45.2706 129.459C42.5536 129.253 40.4629 131.122 38.6016 132.834C38.2546 133.154 38.7751 133.673 39.1221 133.354C40.8422 131.77 42.7535 130.001 45.2706 130.192C45.741 130.227 45.741 129.494 45.2706 129.459Z" fill="#BA8076"/>
<path d="M43.9327 121.543C41.3127 122.78 39.519 125.091 37.349 126.922C36.9873 127.227 37.5107 127.743 37.8694 127.441C39.9925 125.649 41.742 123.387 44.3032 122.176C44.7295 121.974 44.359 121.343 43.9327 121.543Z" fill="#BA8076"/>
<path d="M43.1975 113.228C41.1804 114.63 39.569 116.551 38.0076 118.422C37.7077 118.783 38.2252 119.305 38.5281 118.941C40.0454 117.123 41.6097 115.222 43.568 113.861C43.9532 113.595 43.5857 112.958 43.1975 113.228Z" fill="#BA8076"/>
<path d="M98.692 98.762C96.2205 102.671 92.585 105.735 89.334 108.97C88.9245 109.379 89.5603 110.013 89.9698 109.604C93.2784 106.312 96.9533 103.191 99.4679 99.2135C99.7768 98.7262 99.0009 98.2747 98.692 98.762Z" fill="#AD6349"/>
<path d="M94.198 125.237C96.3067 127.04 98.4369 128.82 100.405 130.777C100.815 131.185 101.451 130.551 101.041 130.143C99.0727 128.186 96.9425 126.406 94.8338 124.603C94.3956 124.231 93.7597 124.861 94.198 125.237Z" fill="#B28D52"/>
<path d="M93.7992 132.966C94.4818 133.973 95.4086 134.843 96.2492 135.714C97.2946 136.796 98.3579 137.857 99.4212 138.921C99.8307 139.329 100.467 138.695 100.057 138.287C99.0117 137.244 97.9663 136.201 96.9425 135.141C96.4432 134.625 95.9474 134.105 95.4625 133.571C95.1392 133.217 94.7943 132.837 94.5752 132.514C94.2519 132.038 93.4759 132.486 93.7992 132.966Z" fill="#B28D52"/>
<path d="M89.9483 141.852C91.2092 143.418 92.6246 144.833 94.1944 146.087C94.3848 146.238 94.6435 146.27 94.8303 146.087C94.9883 145.93 95.0206 145.607 94.8303 145.453C93.2604 144.195 91.8415 142.784 90.5841 141.218C90.4333 141.028 90.1064 141.06 89.9483 141.218C89.7615 141.404 89.7974 141.662 89.9483 141.852Z" fill="#AD6349"/>
<path d="M84.9801 148.28C85.7489 149.423 86.8194 150.415 88.1881 150.767C88.4144 150.824 88.6874 150.691 88.7413 150.455C88.7952 150.218 88.6694 149.968 88.4287 149.903C88.2743 149.864 88.1234 149.817 87.9761 149.76C87.9761 149.76 87.8468 149.706 87.9115 149.735C87.8827 149.724 87.854 149.71 87.8252 149.695C87.7534 149.663 87.6851 149.627 87.6169 149.591C87.4804 149.52 87.3511 149.441 87.2217 149.355C87.1571 149.312 87.096 149.269 87.0349 149.222C86.9164 149.136 87.096 149.272 86.981 149.179C86.9523 149.154 86.9236 149.133 86.8948 149.108C86.6649 148.914 86.4494 148.703 86.2518 148.477C86.2015 148.423 86.1548 148.366 86.1081 148.309C86.0866 148.28 86.0614 148.251 86.0399 148.223C85.9932 148.162 86.0435 148.23 86.0147 148.194C85.9249 148.076 85.8387 147.954 85.7561 147.829C85.6196 147.628 85.3609 147.542 85.1418 147.667C84.9406 147.786 84.8436 148.079 84.9801 148.28Z" fill="#AD6349"/>
<path d="M97.8406 123.843C98.1926 123.259 98.7063 122.622 99.4679 122.715C100.183 122.801 100.815 123.342 101.325 123.808C102.665 125.037 103.696 126.556 104.975 127.846C105.194 128.064 105.514 127.985 105.679 127.756C107.881 124.675 111.786 124.134 115.299 124.703C115.863 124.797 116.107 123.933 115.536 123.84C113.561 123.517 111.502 123.464 109.562 124.019C107.622 124.574 106.053 125.696 104.903 127.301L105.607 127.212C104.167 125.76 103.042 123.987 101.419 122.715C100.786 122.22 100.01 121.755 99.1733 121.815C98.207 121.884 97.5352 122.607 97.0646 123.392C96.7665 123.886 97.5424 124.338 97.8406 123.843Z" fill="#B28D52"/>
<path d="M107.026 114.757C105.155 115.885 103.409 117.362 102.036 119.064C101.886 119.254 101.853 119.512 102.036 119.698C102.194 119.855 102.518 119.888 102.672 119.698C104.001 118.053 105.668 116.624 107.482 115.531C107.978 115.233 107.525 114.459 107.03 114.757H107.026Z" fill="#B28D52"/>
<path d="M24.8737 99.0809C25.6245 100.113 25.9083 101.542 26.1777 102.761C26.5298 104.362 26.7668 106.007 26.774 107.652C26.774 108.228 27.6757 108.228 27.6721 107.652C27.6649 105.932 27.4135 104.201 27.0435 102.524C26.7597 101.238 26.4435 99.7187 25.6496 98.6294C25.312 98.1672 24.5324 98.6151 24.8737 99.0809Z" fill="#AD6349"/>
<path d="M24.7085 123.649C22.1938 125.473 20.818 128.486 18.174 130.166L18.7883 130.328C17.9657 129.045 16.7802 127.988 15.293 127.554C13.8058 127.121 12.2791 127.425 10.9858 128.21C10.4937 128.511 10.9427 129.285 11.4385 128.984C12.5341 128.318 13.8022 128.056 15.0523 128.418C16.3132 128.783 17.3155 129.693 18.0088 130.779C18.1345 130.976 18.4111 131.073 18.6231 130.94C19.9558 130.091 21.0084 128.916 22.0142 127.716C22.9805 126.562 23.9253 125.315 25.1539 124.423C25.6173 124.086 25.1683 123.308 24.7013 123.649H24.7085Z" fill="#AD6349"/>
<path d="M15.0739 109.834C17.3442 113.098 18.6159 116.91 19.2733 120.805C19.3703 121.371 20.236 121.131 20.139 120.569C19.4673 116.609 18.1597 112.704 15.8462 109.382C15.5193 108.913 14.7398 109.361 15.0703 109.834H15.0739Z" fill="#AD6349"/>
<path d="M23.8966 135.446C22.9626 136.993 21.8921 138.459 20.9581 140.007C20.6599 140.501 21.4359 140.953 21.734 140.458C22.668 138.91 23.7385 137.445 24.6725 135.897C24.9707 135.403 24.1947 134.951 23.8966 135.446Z" fill="#AD6349"/>
<path d="M28.1427 144.242C28.0565 144.41 27.9559 144.571 27.8481 144.726C27.8194 144.765 27.7906 144.815 27.7547 144.851C27.7799 144.826 27.7942 144.804 27.7619 144.844C27.7475 144.862 27.7332 144.88 27.7188 144.898C27.6505 144.98 27.5787 145.062 27.5104 145.145C27.2159 145.478 26.8998 145.793 26.5836 146.109C26.4184 146.273 26.404 146.578 26.5836 146.743C26.7632 146.908 27.0399 146.918 27.2195 146.743C27.5428 146.42 27.8697 146.098 28.1714 145.75C28.4552 145.428 28.7282 145.08 28.9222 144.697C29.0264 144.489 28.9833 144.202 28.7606 144.084C28.5558 143.977 28.2576 144.023 28.1463 144.245L28.1427 144.242Z" fill="#AD6349"/>
<path d="M31.9146 58.2303C26.8423 57.7896 21.109 65.0489 21.7699 69.8897C22.4309 76.7118 31.0345 79.349 36.9905 78.4711C44.7104 77.1525 51.9884 70.5489 48.0189 62.1896C47.5771 62.1896 47.3579 61.7489 47.1352 61.5303" fill="#B3AFAF"/>
<path d="M72.1736 49.9999C72.2454 56.7934 77.8243 62.2433 84.6389 62.1681C91.4499 62.0964 96.9102 56.5283 96.8383 49.7348C96.7629 42.9413 91.184 37.4914 84.373 37.5667C77.562 37.6383 72.1017 43.2064 72.1736 49.9999Z" fill="#F7CBB4"/>
<path d="M90.9003 49.7993L85.4184 49.8566" stroke="#BA8076" stroke-width="2.37624" stroke-linecap="round" stroke-linejoin="round"/>
<path d="M41.7072 50.3226C41.7791 57.1161 36.3188 62.6806 29.5042 62.7559C22.6932 62.8275 17.1143 57.3777 17.0425 50.5878C16.9706 43.7943 22.4309 38.2262 29.2419 38.1545C36.0529 38.0828 41.6318 43.5327 41.7072 50.3226Z" fill="#F7CBB4"/>
<path d="M22.9806 50.5233L28.4624 50.4624" stroke="#BA8076" stroke-width="2.37624" stroke-linecap="round" stroke-linejoin="round"/>
<path d="M26.501 44.2743C26.6842 61.3835 40.432 75.1066 57.208 74.9311C73.9841 74.7519 87.4373 60.7385 87.2541 43.6294C87.0709 26.5202 73.3231 12.797 56.5435 12.9726C39.7674 13.1518 26.3142 27.1652 26.501 44.2743Z" fill="#F7D1BD"/>
<path d="M66.0667 46.005C66.081 47.4597 66.9144 48.635 67.9203 48.6242C68.9297 48.6135 69.7344 47.4239 69.72 45.9692C69.7057 44.5108 68.8722 43.3392 67.8664 43.3499C66.857 43.3607 66.0523 44.5503 66.0667 46.0086V46.005Z" fill="#70544F"/>
<path d="M44.599 46.2307C44.6134 47.6855 45.4432 48.8571 46.4527 48.8464C47.4621 48.8356 48.2668 47.646 48.2488 46.1913C48.2345 44.733 47.4046 43.5613 46.3952 43.5721C45.3858 43.5828 44.5775 44.7724 44.5954 46.2307H44.599Z" fill="#70544F"/>
<path d="M49.2223 37.9573C46.9269 35.7788 43.4639 37.0221 41.2618 38.6882C40.8056 39.0322 41.2546 39.8097 41.7144 39.4622C43.5537 38.0719 46.6035 36.7104 48.5865 38.5915C49.0068 38.9892 49.6426 38.355 49.2223 37.9573Z" fill="#413939"/>
<path d="M65.1578 38.1151C67.1012 36.191 70.1727 37.4702 72.0443 38.8281C72.5113 39.1685 72.9603 38.391 72.4969 38.0542C70.2661 36.4382 66.7672 35.2558 64.522 37.4809C64.1124 37.8894 64.7447 38.52 65.1578 38.1151Z" fill="#413939"/>
<path d="M49.4594 55.2564C48.5326 55.9049 47.6274 56.6036 46.8406 57.417C46.0539 58.2303 45.4145 59.0938 45.1163 60.1473C44.9583 60.7026 45.824 60.9391 45.9821 60.3837C46.2443 59.4557 46.8622 58.6746 47.5268 57.9974C48.2488 57.2593 49.0679 56.6215 49.9121 56.0303C50.1096 55.8906 50.203 55.6398 50.0737 55.4176C49.9588 55.2205 49.6606 55.1166 49.4594 55.2564Z" fill="#BA8076"/>
<path d="M65.6284 55.3138C66.4726 55.905 67.288 56.5428 68.0137 57.2809C68.6783 57.9581 69.2961 58.7428 69.5584 59.6672C69.7164 60.2226 70.5822 59.9861 70.4241 59.4307C70.126 58.3809 69.4506 57.4779 68.6998 56.7004C67.9131 55.8871 67.0078 55.1884 66.081 54.5398C65.8835 54.4001 65.5817 54.504 65.4667 54.7011C65.3338 54.9232 65.4272 55.174 65.6284 55.3138Z" fill="#BA8076"/>
<path d="M56.8272 47.7212C56.8739 47.6495 56.9206 47.5814 56.9745 47.5134C56.9171 47.5886 56.9997 47.4847 57.0033 47.4775C57.0284 47.4489 57.0536 47.4202 57.0787 47.3915C57.129 47.3378 57.1793 47.284 57.2332 47.2375C57.2583 47.2124 57.2871 47.1909 57.3122 47.1694C57.3302 47.1551 57.3481 47.1407 57.3661 47.1264C57.3194 47.1622 57.3158 47.1658 57.3553 47.1371C57.4631 47.0726 57.5637 47.0046 57.6786 46.9508C57.5565 47.0081 57.7289 46.9365 57.7648 46.9257C57.8295 46.9078 57.8942 46.8971 57.9588 46.8827C57.8151 46.915 57.9912 46.8827 58.0343 46.8827C58.0881 46.8827 58.1456 46.8827 58.1995 46.8827C58.2282 46.8827 58.2534 46.8899 58.2821 46.8899C58.1456 46.8792 58.239 46.8827 58.2714 46.8899C58.336 46.9042 58.3971 46.9186 58.4582 46.9365C58.512 46.9544 58.5623 46.9723 58.6162 46.9938C58.4833 46.9472 58.6557 47.0153 58.6881 47.0296C58.803 47.087 58.9036 47.1586 59.0114 47.2303C59.0976 47.2876 58.9359 47.1658 59.015 47.2303C59.0365 47.2482 59.0617 47.2697 59.0832 47.2876C59.1299 47.327 59.173 47.3665 59.2161 47.4095C59.3131 47.5026 59.3993 47.6029 59.4856 47.7068C59.5538 47.7857 59.4424 47.6495 59.4856 47.7033C59.4999 47.7248 59.5179 47.7463 59.5323 47.7678C59.5682 47.8179 59.6041 47.8717 59.6364 47.9254C59.7083 48.0401 59.7765 48.1619 59.834 48.2837C59.8484 48.3124 59.8592 48.3411 59.8735 48.3697C59.8232 48.2586 59.8699 48.3554 59.8735 48.3805C59.8951 48.4378 59.9166 48.4987 59.9382 48.556C59.9813 48.685 60.0136 48.814 60.0388 48.9466C60.0459 48.9753 60.0495 49.0075 60.0531 49.0362C60.0316 48.9072 60.0531 49.0111 60.0531 49.0362C60.0567 49.0971 60.0639 49.158 60.0639 49.2189C60.0639 49.2798 60.0639 49.3407 60.0639 49.4016C60.0639 49.4446 60.0316 49.6596 60.0567 49.5235C60.0316 49.6632 59.9993 49.7958 59.9526 49.9284C59.9454 49.9534 59.8987 50.043 59.9526 49.9319C59.9346 49.9678 59.9166 50.0036 59.8987 50.0394C59.8663 50.1039 59.8268 50.1648 59.7873 50.2257C59.7693 50.2508 59.7514 50.2759 59.7334 50.301C59.8053 50.2007 59.7191 50.3153 59.7011 50.3332C59.6508 50.3906 59.5969 50.4443 59.5394 50.4981C59.5143 50.5196 59.4855 50.5411 59.4604 50.5661C59.4209 50.5984 59.4245 50.5948 59.4676 50.559C59.4496 50.5733 59.4281 50.5876 59.4101 50.602C59.3383 50.6485 59.2664 50.6951 59.191 50.7381C58.6881 51.0212 59.1407 51.7951 59.6436 51.5121C60.2399 51.1753 60.7033 50.6378 60.8758 49.9678C61.0338 49.3622 60.962 48.7029 60.7321 48.1261C60.2974 47.0368 59.27 45.9117 57.9912 45.987C57.1434 46.0371 56.5003 46.5889 56.0513 47.2697C55.9184 47.4704 56.0118 47.7642 56.213 47.8824C56.4321 48.0114 56.6943 47.9254 56.8272 47.7212Z" fill="#BA8076"/>
<path d="M49.1289 27.6094C48.8883 23.7863 53.5583 22.2348 58.1097 22.2348C63.6167 22.2348 65.9194 27.699 68.5561 31.2821C75.0223 39.8815 84.8149 46.958 96.0696 39.7919C90.5626 37.402 89.6034 29.2827 87.6887 24.2664C85.0556 17.5769 82.4188 11.1273 75.4749 8.26087C61.8241 3.0045 50.0881 8.73742 48.4141 22.8332" fill="#B3AFAF"/>
<path d="M54.1582 10.8874C37.1558 7.78085 15.602 29.9959 26.3789 46.7181C32.6043 36.2089 36.9151 30.7125 49.1289 27.6096" fill="#B3AFAF"/>
<path d="M41.4055 49.0183C41.9659 49.0183 42.555 49.0291 43.0687 48.7783C43.2807 48.6743 43.3561 48.359 43.2304 48.1656C43.0903 47.9506 42.8424 47.8932 42.6161 48.0043C42.5981 48.0115 42.5802 48.0222 42.5622 48.0294L42.67 47.9828C42.5263 48.0437 42.3754 48.076 42.2209 48.0975L42.3395 48.0831C42.0305 48.1226 41.718 48.1226 41.4091 48.1226C41.1756 48.1226 40.9493 48.3268 40.96 48.5704C40.9708 48.8141 41.1576 49.0183 41.4091 49.0183H41.4055Z" fill="#BA8076"/>
<path d="M71.6275 48.0617C71.6527 48.0509 71.6778 48.0366 71.703 48.0258L71.5952 48.0724C71.6958 48.0294 71.7964 48.0008 71.9042 47.9864L71.7856 48.0008C71.8898 47.9864 71.9904 47.9864 72.0945 48.0008L71.976 47.9864C72.0838 48.0008 72.1843 48.033 72.2849 48.0724L72.1772 48.0258C72.2023 48.0366 72.2275 48.0473 72.2526 48.0617C72.3604 48.1154 72.4789 48.1405 72.5975 48.1082C72.7016 48.0796 72.813 48.0008 72.8669 47.904C72.9208 47.8001 72.9495 47.6747 72.9136 47.56C72.8777 47.4525 72.813 47.3451 72.7088 47.2913C72.4681 47.1731 72.2131 47.0942 71.9437 47.0942C71.6742 47.0942 71.4192 47.1731 71.1785 47.2913C71.0815 47.3379 70.9989 47.4597 70.9737 47.56C70.945 47.6675 70.9558 47.8109 71.0204 47.904C71.0851 47.9972 71.1749 48.0832 71.2899 48.1082C71.412 48.1369 71.5234 48.119 71.6347 48.0617H71.6275Z" fill="#BA8076"/>
<path d="M64.0981 54.7798C60.2651 55.1381 55.358 55.5573 51.525 55.5573C50.688 62.8417 64.2166 61.2293 64.0981 54.7798Z" fill="#CA6F63"/>
</g>
<g clip-path="url(#clip2_8633_5380)">
<path d="M196.537 101.385C195.215 97.3232 192.669 93.0152 189.966 89.5659C184.391 82.4393 177.766 77.7928 169.031 74.365C167.906 73.9231 166.698 73.5953 165.419 73.214C161.556 72.0666 157.515 70.8195 153.431 70.7447C147.167 70.6271 141.049 71.0369 134.864 71.8707C130.678 72.4337 126.283 73.3031 122.467 75.1631C122.388 75.2023 122.317 75.2487 122.238 75.2878C108.342 80.4831 101.653 91.5863 95.3423 103.057C92.6787 107.903 89.2517 113.287 88.5081 118.738C87.2058 128.317 90.2826 136.566 99.4774 141.729C101.378 142.798 103.616 144.002 104.722 145.827C106.26 148.356 105.127 146.033 105.753 148.788C106.441 151.838 108.487 153.715 108.92 156.836C109.388 160.218 107.449 163.296 112.142 163.799C117.151 164.333 122.734 163.403 127.739 163.033C135.041 162.494 142.54 162.847 149.917 162.919C156.102 162.979 162.287 162.837 168.472 162.619C171.014 162.534 179.135 163.424 180.472 160.478C181.429 158.375 180.268 154.641 180.567 152.314C180.89 149.774 182.747 148.67 183.36 146.179C184.065 143.321 184.316 146.026 184.411 143.175C192.477 141.494 199.425 134.998 200.412 127.244C201.522 118.532 199.228 109.656 196.537 101.382V101.385Z" fill="#8DB579"/>
<path d="M138.412 62.4246C139.189 64.84 138.944 68.7424 138.381 71.6807C142.875 75.2096 151.08 73.3598 155.9 71.2716C155.266 69.2048 154.383 65.0036 154.426 60.991" fill="#F7CBB4"/>
<path d="M131.799 42.7952C131.728 49.5044 126.252 54.8866 119.564 54.8154C112.879 54.7443 107.517 49.2447 107.591 42.5356C107.662 35.8264 113.138 30.4442 119.823 30.5153C126.511 30.5865 131.87 36.0826 131.799 42.7952Z" fill="#F7CBB4"/>
<path d="M113.418 42.5996L118.798 42.6565" stroke="#BA8076" stroke-width="2.37624" stroke-linecap="round" stroke-linejoin="round"/>
<path d="M161.698 43.1154C161.628 49.8245 166.986 55.3206 173.675 55.3917C180.359 55.4629 185.835 50.0806 185.906 43.3715C185.977 36.6624 180.618 31.1663 173.933 31.0952C167.249 31.024 161.773 36.4063 161.702 43.1154H161.698Z" fill="#F7CBB4"/>
<path d="M180.079 43.3111L174.699 43.2542" stroke="#BA8076" stroke-width="2.37624" stroke-linecap="round" stroke-linejoin="round"/>
<path d="M176.623 37.1427C176.446 54.04 162.95 67.597 146.483 67.4191C130.016 67.2412 116.813 53.4032 116.991 36.5059C117.171 19.6086 130.665 6.05165 147.131 6.22951C163.598 6.40382 176.801 20.2454 176.62 37.1427H176.623Z" fill="#F7D1BD"/>
<path d="M137.792 38.8502C137.778 40.2874 136.963 41.447 135.97 41.4364C134.982 41.4257 134.191 40.2518 134.205 38.8146C134.22 37.3739 135.035 36.2178 136.027 36.2249C137.019 36.2356 137.81 37.413 137.792 38.8502Z" fill="#70544F"/>
<path d="M158.863 39.0744C158.849 40.5115 158.034 41.6712 157.041 41.6605C156.049 41.6499 155.262 40.4759 155.276 39.0352C155.29 37.5945 156.106 36.4384 157.098 36.449C158.087 36.4597 158.877 37.6372 158.863 39.0744Z" fill="#70544F"/>
<path d="M154.947 32.9452C156.889 31.0882 159.884 32.4329 161.688 33.806C162.141 34.1511 162.584 33.3792 162.134 33.0377C159.972 31.3906 156.573 30.1633 154.319 32.3155C153.905 32.7104 154.532 33.34 154.947 32.9452Z" fill="#413939"/>
<path d="M139.309 32.1482C137.105 29.9462 133.67 31.1165 131.48 32.7138C131.023 33.0482 131.466 33.8201 131.926 33.4822C133.762 32.1446 136.778 30.8782 138.682 32.7778C139.086 33.1833 139.713 32.5537 139.309 32.1482Z" fill="#413939"/>
<path d="M138.611 47.5906C140.064 48.8179 142.028 49.4404 143.871 49.757C146.171 50.1554 148.616 50.0985 150.828 49.3017C152.122 48.8357 153.298 48.1207 154.284 47.1566C154.691 46.7546 154.064 46.1286 153.656 46.527C150.53 49.5863 145.437 49.661 141.542 48.2203C140.727 47.9179 139.905 47.5266 139.235 46.961C138.802 46.5946 138.171 47.2207 138.607 47.5906H138.611Z" fill="#BA8076"/>
<path d="M155.209 44.944C156.038 45.5274 156.839 46.157 157.548 46.8863C158.2 47.5551 158.806 48.327 159.061 49.2412C159.217 49.7926 160.072 49.5578 159.916 49.0064C159.625 47.9677 158.962 47.0748 158.225 46.31C157.488 45.5452 156.563 44.8159 155.655 44.1756C155.46 44.0369 155.163 44.14 155.049 44.3357C154.918 44.5562 155.01 44.8052 155.209 44.944Z" fill="#BA8076"/>
<path d="M163.226 8.91533C153.809 -2.75626 133.096 -4.31437 118.795 12.3944C110.721 21.8249 111.263 31.3763 114.51 35.9759C119.38 42.6957 133.344 27.8403 134.971 22.8885C139.841 32.4399 151.207 27.8403 155.755 21.4727C156.403 26.0723 160.951 29.6083 165.172 29.2561C168.744 42.6957 181.086 42.6957 180.434 27.4881C180.107 17.2324 171.665 10.6869 163.222 8.91889L163.226 8.91533Z" fill="#97928C"/>
<path d="M114.159 91.3954C115.445 93.9638 116.994 96.4183 118.011 99.1112C118.21 99.6413 119.068 99.4101 118.866 98.8765C117.82 96.1053 116.243 93.5867 114.924 90.9472C114.669 90.4349 113.904 90.8867 114.159 91.3954Z" fill="#699055"/>
<path d="M107.942 104.593C109.64 103.437 111.674 104.561 113.067 105.685C114.708 107.012 116.129 108.737 117.079 110.626C117.338 111.139 118.1 110.687 117.845 110.178C116.796 108.094 115.183 106.183 113.333 104.775C111.692 103.526 109.399 102.53 107.496 103.825C107.028 104.145 107.471 104.913 107.942 104.593Z" fill="#699055"/>
<path d="M137.156 74.259L127.915 128.066L165.462 134.562L174.703 80.7549L137.156 74.259Z" fill="white"/>
<path d="M122.488 99.9723C123.959 96.1838 126.163 92.6371 129.222 90.9225C135.226 87.5572 134.971 95.3158 131.902 98.5707C133.514 96.6747 135.786 94.6612 136.97 97.8379C137.969 100.527 136.002 102.608 135.332 104.981C137.041 103.722 138.037 103.078 139.026 105.219C139.632 106.532 139.788 109.193 138.841 110.363C139.362 109.371 140.801 108.062 141.957 108.969C143.137 109.894 142.166 112.131 141.84 113.198C139.607 120.434 132.27 129.932 123.707 125.863C116.803 122.579 119.621 114.02 120.386 108.204C120.705 105.764 121.393 102.797 122.488 99.9688V99.9723Z" fill="#F7D1BD"/>
<path d="M130.087 97.8841C128.914 98.4853 127.957 99.5454 127.152 100.573C126.227 101.751 125.423 103.042 124.902 104.455C124.703 104.992 125.561 105.223 125.756 104.689C126.231 103.402 126.989 102.196 127.836 101.125C128.581 100.186 129.449 99.2075 130.53 98.6525C131.037 98.3928 130.59 97.6245 130.083 97.8841H130.087Z" fill="#BA8076"/>
<path d="M133.394 105.867C132.082 107.62 130.778 109.381 129.711 111.299C129.431 111.8 130.197 112.249 130.477 111.747C131.544 109.83 132.848 108.069 134.159 106.315C134.305 106.123 134.191 105.817 134 105.707C133.773 105.575 133.539 105.675 133.394 105.867Z" fill="#BA8076"/>
<path d="M137.144 109.904C136.481 110.584 136.024 111.452 135.602 112.295C135.152 113.191 134.751 114.116 134.258 114.991C133.975 115.489 134.741 115.938 135.024 115.44C135.506 114.589 135.899 113.689 136.332 112.814C136.729 112.018 137.14 111.174 137.767 110.534C138.168 110.125 137.541 109.495 137.14 109.904H137.144Z" fill="#BA8076"/>
<path d="M176.244 98.2007C167.242 92.7082 158.835 103.843 171.133 104.575C164.7 104.33 160.919 110.299 168.638 112C161.805 111.594 159.469 118.613 165.902 121.199C158.342 123.778 165.253 129.832 170.159 130.402C176.269 131.455 180.21 127.421 181.66 121.448C182.787 116.283 180.823 101.918 176.244 98.2043V98.2007Z" fill="#F7D1BD"/>
<path d="M171.016 105.002C172.115 105.294 173.21 105.614 174.291 105.966C175.301 106.297 176.351 106.628 177.276 107.158C177.772 107.443 178.218 106.674 177.722 106.39C176.755 105.838 175.663 105.486 174.614 105.138C173.504 104.771 172.381 104.444 171.25 104.145C170.697 103.999 170.463 104.857 171.016 105.002Z" fill="#BA8076"/>
<path d="M169.818 113.024C172.133 113.294 174.454 113.764 176.549 114.824C177.056 115.08 177.506 114.315 176.996 114.056C174.752 112.921 172.296 112.426 169.818 112.135C169.251 112.067 169.258 112.96 169.818 113.024Z" fill="#BA8076"/>
<path d="M168.305 122.042C169.017 122.43 169.769 122.6 170.573 122.661C171.378 122.721 172.168 122.761 172.955 122.974C173.504 123.123 173.742 122.266 173.189 122.117C172.392 121.9 171.576 121.839 170.758 121.782C170.052 121.736 169.382 121.615 168.752 121.27C168.252 120.996 167.802 121.764 168.305 122.038V122.042Z" fill="#BA8076"/>
<path d="M125.125 132.984C121.822 136.503 118.125 139.839 113.666 141.789C112.33 142.372 110.926 142.803 109.491 143.066C108.931 143.169 109.168 144.026 109.725 143.923C114.825 142.988 119.231 139.91 122.952 136.421C123.916 135.517 124.845 134.574 125.749 133.61C126.139 133.194 125.515 132.565 125.121 132.981L125.125 132.984Z" fill="#699055"/>
<path d="M170.79 132.44C170.467 132.237 170.045 132.422 170.031 132.821C170.024 133.052 170.169 133.287 170.276 133.479C170.701 134.265 171.222 135.008 171.729 135.745C172.328 136.613 172.944 137.474 173.607 138.295C174.341 139.213 175.075 140.163 175.897 141.002C177.07 142.201 178.53 143.197 180.256 143.226C180.827 143.236 180.827 142.347 180.256 142.336C177.68 142.294 176.18 139.9 174.66 138.178C173.551 136.919 172.594 135.492 171.683 134.083C171.474 133.76 171.268 133.436 171.08 133.098C171.023 132.995 170.974 132.885 170.917 132.781C170.935 132.813 170.945 132.771 170.914 132.756C171.052 132.813 170.435 133.262 170.346 133.208C170.832 133.514 171.275 132.746 170.793 132.44H170.79Z" fill="#699055"/>
<path d="M185.229 100.424C184.354 100.968 183.758 101.957 183.258 102.832C182.652 103.889 182.145 105.006 181.717 106.144C181.631 106.368 181.809 106.631 182.025 106.692C182.273 106.76 182.486 106.607 182.571 106.382C182.964 105.34 183.436 104.323 183.981 103.352C184.41 102.594 184.938 101.648 185.676 101.192C186.161 100.89 185.715 100.122 185.229 100.424Z" fill="#699055"/>
<path d="M185.452 105.995C185.909 105.995 186.367 105.995 186.82 106.048C186.881 106.055 186.98 106.069 187.083 106.091C187.193 106.112 187.302 106.137 187.412 106.165C187.646 106.229 187.859 106.308 188.064 106.407C188.27 106.507 188.554 106.471 188.67 106.247C188.777 106.048 188.734 105.749 188.511 105.639C188.004 105.39 187.48 105.241 186.92 105.169C186.434 105.105 185.941 105.102 185.452 105.102C185.222 105.102 184.999 105.305 185.009 105.546C185.02 105.788 185.204 105.991 185.452 105.991V105.995Z" fill="#699055"/>
<path d="M163.166 139.067C167.167 144.051 169.701 150.049 173.799 154.958C174.164 155.395 174.787 154.766 174.426 154.328C172.416 151.92 170.807 149.202 169.187 146.52C167.511 143.745 165.824 140.97 163.793 138.438C163.435 137.993 162.811 138.626 163.166 139.067Z" fill="#699055"/>
<path d="M129.452 39.7111H130.987C131.217 39.7111 131.441 39.5083 131.43 39.2664C131.42 39.0245 131.235 38.8218 130.987 38.8218H129.452C129.222 38.8218 128.999 39.0245 129.009 39.2664C129.02 39.5083 129.204 39.7111 129.452 39.7111Z" fill="#BA8076"/>
<path d="M129.573 41.4897H130.874C131.104 41.4897 131.327 41.2869 131.317 41.045C131.306 40.8031 131.122 40.6003 130.874 40.6003H129.573C129.343 40.6003 129.119 40.8031 129.13 41.045C129.141 41.2869 129.325 41.4897 129.573 41.4897Z" fill="#BA8076"/>
<path d="M160.997 39.2345H161.943C162.056 39.2345 162.177 39.1847 162.255 39.1029C162.333 39.0211 162.39 38.9002 162.386 38.7899C162.375 38.548 162.191 38.3452 161.943 38.3452H160.997C160.883 38.3452 160.763 38.395 160.685 38.4768C160.607 38.5587 160.55 38.6796 160.554 38.7899C160.564 39.0318 160.749 39.2345 160.997 39.2345Z" fill="#BA8076"/>
<path d="M160.33 40.017C160.245 40.1059 160.185 40.2269 160.189 40.3514C160.192 40.4759 160.235 40.6004 160.327 40.6858C160.408 40.7605 160.508 40.8103 160.614 40.8387C160.784 40.8814 160.965 40.8921 161.138 40.917L161.021 40.9028C161.163 40.9206 161.316 40.9348 161.45 40.9917L161.344 40.9455C161.344 40.9455 161.355 40.949 161.362 40.9526C161.472 41.0059 161.585 41.0308 161.702 40.9988C161.805 40.9704 161.915 40.8921 161.968 40.796C162.021 40.6929 162.049 40.5684 162.014 40.4545C161.978 40.3478 161.915 40.2375 161.812 40.1877C161.55 40.0597 161.252 40.0454 160.968 40.0063L161.085 40.0205C160.986 40.0063 160.88 39.9992 160.788 39.9601L160.894 40.0063C160.894 40.0063 160.876 39.9992 160.869 39.9921L160.958 40.0632C160.958 40.0632 160.951 40.0597 160.947 40.0561L161.018 40.1451C161.018 40.1451 161.018 40.1415 161.014 40.1379L161.06 40.2447C161.06 40.2447 161.06 40.2447 161.06 40.2411L161.075 40.3585C161.075 40.3585 161.075 40.3585 161.075 40.3549L161.06 40.4723C161.06 40.4723 161.06 40.4688 161.06 40.4652L161.014 40.5719C161.014 40.5719 161.014 40.5684 161.018 40.5648L160.947 40.6538C160.947 40.6538 160.947 40.6502 160.951 40.6502C161.029 40.5648 161.082 40.4545 161.082 40.3371C161.082 40.2269 161.032 40.0988 160.951 40.0241C160.869 39.9494 160.756 39.8889 160.639 39.8925C160.522 39.896 160.408 39.9352 160.327 40.0241L160.33 40.017Z" fill="#BA8076"/>
<path d="M137.016 45.4776C134.641 46.0361 134.379 48.9104 133.989 50.8883C133.879 51.4468 134.733 51.6851 134.843 51.123C135.038 50.1448 135.162 49.1452 135.495 48.1989C135.8 47.3309 136.318 46.5554 137.25 46.3349C137.806 46.2033 137.569 45.3459 137.016 45.4776Z" fill="#BA8076"/>
<path d="M142.79 38.0213C142.8 38.096 142.79 37.9928 142.797 38.096C142.797 38.1387 142.797 38.1813 142.797 38.224C142.797 38.2738 142.793 38.3236 142.786 38.3699C142.797 38.2845 142.772 38.4375 142.765 38.4588C142.744 38.5478 142.719 38.6367 142.687 38.7256C142.648 38.8359 142.655 38.8181 142.598 38.9391C142.425 39.3055 142.201 39.647 142.006 40.0027C141.581 40.7853 141.407 41.632 142.045 42.3577C142.541 42.9233 143.3 43.2328 143.984 43.4924C144.207 43.5778 144.47 43.3964 144.53 43.183C144.597 42.9339 144.445 42.7205 144.221 42.6351C143.686 42.4324 143.109 42.1905 142.705 41.7636C142.637 41.6924 142.644 41.7067 142.588 41.6071C142.566 41.5715 142.549 41.5359 142.531 41.5003C142.566 41.5786 142.517 41.4541 142.51 41.4292C142.499 41.3936 142.492 41.358 142.488 41.3225C142.499 41.4043 142.488 41.3367 142.488 41.2976C142.488 41.262 142.488 41.2264 142.488 41.1908C142.488 41.1802 142.495 41.1197 142.488 41.1766C142.481 41.2406 142.499 41.1304 142.499 41.1268C142.517 41.0521 142.534 40.981 142.559 40.9063C142.573 40.8707 142.584 40.8316 142.598 40.796C142.623 40.732 142.584 40.8244 142.627 40.7355C142.705 40.5683 142.793 40.4082 142.885 40.2482C143.077 39.9138 143.279 39.5865 143.431 39.2343C143.633 38.7683 143.725 38.2987 143.64 37.7936C143.601 37.5553 143.307 37.4236 143.094 37.4841C142.843 37.5517 142.747 37.7936 142.786 38.0319L142.79 38.0213Z" fill="#BA8076"/>
<path d="M160.33 97.3911L161.524 97.5566L160.691 103.587L159.498 103.422L159.907 100.456L158.636 100.28L158.79 99.1639L160.061 99.3401L160.33 97.3911ZM158.387 97.2872C158.277 98.0852 158.12 98.8047 157.918 99.4387L159.287 102.45L158.175 102.943L157.301 100.879C156.646 102.033 155.788 102.612 154.869 102.492L155.041 101.249C155.981 101.272 156.831 99.5975 157.178 97.0764L158.387 97.2872Z" fill="#333333"/>
<path d="M150.829 98.4342C150.28 98.9194 149.504 99.2221 148.64 99.1238L148.784 98.0787C149.567 98.144 150.161 97.6435 150.36 97.0881L149.033 96.904L149.169 95.9154L153.01 96.448L152.892 97.3095L153.527 97.3977L153.656 96.4655L154.849 96.631L154.383 100.007L153.19 99.841L153.387 98.4146L152.582 98.3029L152.705 97.4132L151.568 97.2555C151.536 97.3807 151.498 97.4978 151.438 97.619L152.922 98.7603L152.229 99.5567L150.829 98.4342ZM151.674 99.7172C153.213 99.9307 154.381 100.438 154.246 101.42C154.11 102.401 152.849 102.572 151.31 102.358C149.77 102.145 148.603 101.638 148.738 100.656C148.873 99.6744 150.135 99.5038 151.674 99.7172ZM151.439 101.419C152.251 101.532 152.923 101.517 152.961 101.241C152.998 100.973 152.357 100.769 151.544 100.656C150.732 100.544 150.06 100.566 150.023 100.834C149.985 101.11 150.627 101.307 151.439 101.419Z" fill="#333333"/>
<path d="M148.146 95.7016L147.53 100.165L146.337 99.9992L146.953 95.5361L148.146 95.7016ZM144.276 95.1721C145.455 95.3356 146.161 96.1675 146.01 97.255C145.859 98.3496 144.956 98.9512 143.777 98.7877C142.598 98.6242 141.891 97.7993 142.042 96.7048C142.192 95.6173 143.097 95.0086 144.276 95.1721ZM144.138 96.1678C143.679 96.1042 143.3 96.3467 143.228 96.8693C143.156 97.3918 143.455 97.7284 143.914 97.792C144.373 97.8556 144.752 97.6131 144.824 97.0905C144.896 96.568 144.597 96.2314 144.138 96.1678ZM143.496 99.051L143.352 100.089L147.547 100.671L147.399 101.744L141.99 100.994L142.281 98.8826L143.496 99.051Z" fill="#333333"/>
<path d="M166.263 91.6133L165.557 91.5154L165.499 91.932L166.205 92.0299L166.068 93.0256L165.362 92.9277L165.288 93.4644L164.095 93.2989L164.553 89.9799L165.746 90.1454L165.694 90.5196L166.4 90.6176L166.263 91.6133ZM161.522 92.8054C160.364 92.6449 159.674 91.9087 159.806 90.9483C159.938 89.9949 160.802 89.4671 161.96 89.6276C163.118 89.7882 163.807 90.5315 163.676 91.4848C163.543 92.4452 162.68 92.966 161.522 92.8054ZM161.827 90.5951C161.368 90.5315 161.045 90.7314 160.992 91.1127C160.94 91.4941 161.196 91.7743 161.655 91.838C162.114 91.9016 162.437 91.7017 162.489 91.3203C162.542 90.939 162.286 90.6587 161.827 90.5951ZM162.649 93.1849C164.146 93.3925 165.285 93.903 165.147 94.9058C165.008 95.9086 163.774 96.0901 162.277 95.8825C160.78 95.675 159.642 95.1644 159.78 94.1617C159.918 93.1589 161.152 92.9774 162.649 93.1849ZM162.409 94.9292C163.185 95.0369 163.821 95.0171 163.861 94.7276C163.9 94.4451 163.295 94.246 162.518 94.1383C161.741 94.0306 161.104 94.0574 161.065 94.3399C161.025 94.6294 161.632 94.8215 162.409 94.9292Z" fill="#333333"/>
<path d="M157.678 93.8414L158.857 94.0049L158.706 95.0994L152.605 94.2535L152.756 93.1589L153.936 93.3224L154.116 92.016C153.562 91.5938 153.289 91.0233 153.375 90.3948C153.532 89.2578 154.763 88.6296 156.458 88.8646C158.152 89.0996 159.167 90.0391 159.01 91.1761C158.923 91.8046 158.505 92.2792 157.858 92.5349L157.678 93.8414ZM156.31 89.938C155.399 89.8117 154.71 90.0545 154.639 90.57C154.569 91.0785 155.165 91.5065 156.076 91.6328C156.987 91.7591 157.676 91.5093 157.746 91.0008C157.817 90.4853 157.221 90.0643 156.31 89.938ZM155.257 92.5628L155.129 93.4879L156.485 93.6759L156.612 92.7508C156.397 92.7497 156.169 92.7325 155.929 92.6992C155.689 92.6659 155.465 92.6204 155.257 92.5628Z" fill="#333333"/>
<path d="M152.566 88.3179L151.734 94.3487L150.541 94.1832L151.373 88.1525L152.566 88.3179ZM150.421 88.1645L150.196 89.7957C149.858 92.2462 148.285 93.5826 146.174 93.2898L146.329 92.1599C147.793 92.3485 148.734 91.3706 148.975 89.6263L149.05 89.0826L146.797 88.7703L146.947 87.6827L150.421 88.1645Z" fill="#333333"/>
<path d="M145.595 88.2941L146.301 88.392L146.144 89.5289L145.438 89.431L145.264 90.688L144.071 90.5225L144.529 87.2035L145.722 87.369L145.595 88.2941ZM141.89 89.1694C141.347 89.6626 140.555 89.9775 139.677 89.8772L139.821 88.8321C140.603 88.8974 141.197 88.404 141.396 87.8486L140.068 87.6645L140.205 86.6759L144.046 87.2085L143.91 88.1972L142.603 88.016C142.581 88.128 142.537 88.2371 142.493 88.3462L143.954 89.4412L143.274 90.2465L141.89 89.1694ZM142.591 90.4036C144.109 90.6141 145.261 91.1266 145.123 92.1294C144.985 93.1321 143.736 93.3117 142.218 93.1012C140.7 92.8907 139.547 92.3782 139.686 91.3755C139.824 90.3727 141.072 90.1931 142.591 90.4036ZM142.35 92.1479C143.148 92.2585 143.798 92.2407 143.838 91.9512C143.877 91.6687 143.257 91.4676 142.459 91.357C141.661 91.2463 141.01 91.2712 140.971 91.5537C140.931 91.8432 141.552 92.0372 142.35 92.1479Z" fill="#333333"/>
</g>
</g>
<defs>
<clipPath id="clip0_8633_5380">
<rect width="200.396" height="160" fill="white" transform="translate(0.302002)"/>
</clipPath>
<clipPath id="clip1_8633_5380">
<rect width="119.604" height="162.376" fill="white" transform="translate(0.301979 6.33667)"/>
</clipPath>
<clipPath id="clip2_8633_5380">
<rect width="112.475" height="170.297" fill="white" transform="translate(88.2231)"/>
</clipPath>
</defs>
</svg>
