<svg width="341" height="79" viewBox="0 0 341 79" fill="none" xmlns="http://www.w3.org/2000/svg">
<rect width="341" height="60" transform="translate(0 19)" fill="white"/>
<g clip-path="url(#clip0_1101_59942)">
<path d="M11 35C11 30.5817 14.5817 27 19 27H323C327.418 27 331 30.5817 331 35V63C331 67.4183 327.418 71 323 71H19C14.5817 71 11 67.4183 11 63V35Z" fill="#F5F5F5"/>
<rect x="11.5" y="27.5" width="105.667" height="43" rx="7.5" fill="white"/>
<rect x="11.5" y="27.5" width="105.667" height="43" rx="7.5" stroke="#111111"/>
<path d="M22.846 49.944H35.806V51.544H30.27V56.36H28.286V51.544H22.846V49.944ZM23.486 47.528C26.366 47.176 27.966 45.736 28.174 44.328H23.998V42.76H34.622V44.328H30.478C30.686 45.736 32.286 47.176 35.166 47.528L34.446 49.096C31.966 48.744 30.19 47.656 29.326 46.168C28.462 47.656 26.686 48.744 24.206 49.096L23.486 47.528ZM36.6644 49.112H49.6404V50.696H44.3124V53.16H42.3124V50.696H36.6644V49.112ZM38.1684 56.088V51.928H40.1524V54.504H48.2004V56.088H38.1684ZM38.2644 47.928V42.616H47.9924V47.928H38.2644ZM40.2004 46.344H46.0404V44.168H40.2004V46.344ZM50.5147 53.032H53.3947V49.496C52.3067 48.824 51.6347 47.8 51.6347 46.536C51.6347 44.216 53.9067 42.712 56.9787 42.712C60.0667 42.712 62.3227 44.216 62.3227 46.536C62.3227 47.784 61.6667 48.808 60.5947 49.48V53.032H63.4907V54.648H50.5147V53.032ZM53.6027 46.536C53.6027 47.976 54.9627 48.824 56.9787 48.824C59.0107 48.824 60.3707 47.976 60.3707 46.536C60.3707 45.096 59.0107 44.248 56.9787 44.248C54.9627 44.248 53.6027 45.096 53.6027 46.536ZM55.3787 53.032H58.6107V50.216C58.0987 50.328 57.5547 50.376 56.9787 50.376C56.4187 50.376 55.8747 50.328 55.3787 50.232V53.032ZM64.7171 43.512H67.5811V41.944H69.5491V43.512H72.4131V45.064H69.5491C69.5651 46.568 70.6371 48.056 72.9091 48.664L72.0131 50.2C70.3971 49.768 69.2611 48.856 68.6051 47.688C67.9811 49 66.8291 50.056 65.1651 50.536L64.2371 49C66.5091 48.344 67.5651 46.696 67.5811 45.064H64.7171V43.512ZM66.5571 53.608C66.5571 51.912 68.4291 50.92 71.4531 50.92C74.4771 50.92 76.3491 51.912 76.3491 53.608C76.3491 55.336 74.4771 56.344 71.4531 56.344C68.4291 56.344 66.5571 55.336 66.5571 53.608ZM68.5411 53.608C68.5411 54.424 69.5491 54.824 71.4531 54.824C73.3571 54.824 74.3811 54.424 74.3811 53.608C74.3811 52.84 73.3571 52.424 71.4531 52.424C69.5491 52.424 68.5411 52.84 68.5411 53.608ZM72.0131 47.448V45.848H74.3171V42.008H76.3011V50.664H74.3171V47.448H72.0131ZM88.5355 41.992H90.4235V56.328H88.5355V49.16H87.1755V55.64H85.3355V42.264H87.1755V47.56H88.5355V41.992ZM78.7435 52.824V43.608H80.7115V51.112C81.8635 51.08 83.1275 50.984 84.5195 50.712L84.7115 52.408C82.8395 52.76 81.1915 52.824 79.7355 52.824H78.7435ZM94.2259 51.144H103.97V56.344H101.986V52.712H94.2259V51.144ZM92.1779 46.296C92.1779 44.232 93.8099 42.76 95.9379 42.76C97.1219 42.76 98.1299 43.208 98.8179 43.944H101.986V42.008H103.97V50.472H101.986V48.664H98.8019C98.1139 49.4 97.1059 49.832 95.9379 49.832C93.8099 49.832 92.1779 48.344 92.1779 46.296ZM94.0499 46.296C94.0499 47.464 94.8659 48.152 95.9379 48.152C97.0259 48.152 97.8259 47.464 97.8259 46.296C97.8259 45.144 97.0259 44.44 95.9379 44.44C94.8659 44.44 94.0499 45.144 94.0499 46.296ZM99.6339 47.064H101.986V45.544H99.6339C99.6819 45.784 99.7139 46.04 99.7139 46.296C99.7139 46.568 99.6819 46.824 99.6339 47.064Z" fill="#1A1A1A"/>
<path d="M147.096 42.888H148.264V44.424C148.264 46.344 149.72 48.104 151.704 48.808L151.08 49.736C149.544 49.176 148.312 47.992 147.72 46.504C147.128 48.184 145.88 49.48 144.248 50.136L143.592 49.176C145.688 48.408 147.096 46.504 147.096 44.344V42.888ZM145.464 53.608C145.464 52.008 147.192 51.08 150.04 51.08C152.904 51.08 154.632 52.008 154.632 53.608C154.632 55.208 152.904 56.136 150.04 56.136C147.192 56.136 145.464 55.208 145.464 53.608ZM146.632 53.608C146.632 54.6 147.944 55.192 150.04 55.192C152.152 55.192 153.448 54.6 153.448 53.608C153.448 52.616 152.152 52.024 150.04 52.024C147.944 52.024 146.632 52.616 146.632 53.608ZM153.288 50.696V42.168H154.488V45.832H156.584V46.84H154.488V50.696H153.288ZM167.138 42.168H168.338V45.624H170.418V46.6H168.338V50.104H167.138V42.168ZM158.162 49.272V43.112H164.306V44.088H159.346V48.28C162.146 48.28 163.746 48.2 165.602 47.816L165.746 48.792C163.794 49.192 162.146 49.272 159.234 49.272H158.162ZM159.586 55.96V50.856H168.338V55.96H159.586ZM160.754 54.984H167.154V51.816H160.754V54.984ZM181.997 42.168H183.149V56.168H181.997V48.904H179.949V55.432H178.829V42.488H179.949V47.896H181.997V42.168ZM172.013 52.52V43.88H173.197V51.464C174.573 51.448 176.077 51.352 177.789 51.016L177.933 52.072C176.013 52.44 174.413 52.52 172.893 52.52H172.013ZM187.303 51.208H196.631V56.168H195.431V52.168H187.303V51.208ZM185.351 46.312C185.351 44.344 186.887 42.968 188.951 42.968C190.167 42.968 191.191 43.448 191.831 44.248H195.431V42.168H196.631V50.408H195.431V48.392H191.815C191.175 49.176 190.151 49.656 188.951 49.656C186.887 49.656 185.351 48.28 185.351 46.312ZM186.487 46.312C186.487 47.688 187.543 48.632 188.951 48.632C190.343 48.632 191.383 47.688 191.383 46.312C191.383 44.968 190.343 43.992 188.951 43.992C187.543 43.992 186.487 44.968 186.487 46.312ZM192.359 47.4H195.431V45.24H192.375C192.471 45.576 192.535 45.928 192.535 46.312C192.535 46.696 192.471 47.064 192.359 47.4Z" fill="#616161"/>
<path d="M253.764 42.888H254.932V44.424C254.932 46.344 256.388 48.104 258.372 48.808L257.748 49.736C256.212 49.176 254.98 47.992 254.388 46.504C253.796 48.184 252.548 49.48 250.916 50.136L250.26 49.176C252.356 48.408 253.764 46.504 253.764 44.344V42.888ZM252.132 53.608C252.132 52.008 253.86 51.08 256.708 51.08C259.572 51.08 261.3 52.008 261.3 53.608C261.3 55.208 259.572 56.136 256.708 56.136C253.86 56.136 252.132 55.208 252.132 53.608ZM253.3 53.608C253.3 54.6 254.612 55.192 256.708 55.192C258.82 55.192 260.116 54.6 260.116 53.608C260.116 52.616 258.82 52.024 256.708 52.024C254.612 52.024 253.3 52.616 253.3 53.608ZM259.956 50.696V42.168H261.156V45.832H263.252V46.84H261.156V50.696H259.956ZM273.806 42.168H275.006V45.624H277.086V46.6H275.006V50.104H273.806V42.168ZM264.83 49.272V43.112H270.974V44.088H266.014V48.28C268.814 48.28 270.414 48.2 272.27 47.816L272.414 48.792C270.462 49.192 268.814 49.272 265.902 49.272H264.83ZM266.254 55.96V50.856H275.006V55.96H266.254ZM267.422 54.984H273.822V51.816H267.422V54.984ZM288.665 42.168H289.817V56.168H288.665V48.904H286.617V55.432H285.497V42.488H286.617V47.896H288.665V42.168ZM278.681 52.52V43.88H279.865V51.464C281.241 51.448 282.745 51.352 284.457 51.016L284.601 52.072C282.681 52.44 281.081 52.52 279.561 52.52H278.681ZM293.971 51.208H303.299V56.168H302.099V52.168H293.971V51.208ZM292.019 46.312C292.019 44.344 293.555 42.968 295.619 42.968C296.835 42.968 297.859 43.448 298.499 44.248H302.099V42.168H303.299V50.408H302.099V48.392H298.483C297.843 49.176 296.819 49.656 295.619 49.656C293.555 49.656 292.019 48.28 292.019 46.312ZM293.155 46.312C293.155 47.688 294.211 48.632 295.619 48.632C297.011 48.632 298.051 47.688 298.051 46.312C298.051 44.968 297.011 43.992 295.619 43.992C294.211 43.992 293.155 44.968 293.155 46.312ZM299.027 47.4H302.099V45.24H299.043C299.139 45.576 299.203 45.928 299.203 46.312C299.203 46.696 299.139 47.064 299.027 47.4Z" fill="#616161"/>
</g>
<path d="M15 17.8389V21.1614" stroke="#1E40AF" stroke-width="0.664516"/>
<path d="M118 19.5L15 19.5" stroke="#1E40AF" stroke-width="0.664516"/>
<path d="M118 17.8389V21.1614" stroke="#1E40AF" stroke-width="0.664516"/>
<path d="M31.43 2.98H32.18V5.43H33.49V6.06H32.18V8.62H31.43V2.98ZM25.43 4.59V3.99H27.64V2.9H28.39V3.99H30.6V4.59H25.43ZM25.93 6.58C25.93 5.65 26.76 5.05 28.01 5.05C29.26 5.05 30.1 5.65 30.1 6.58C30.1 7.53 29.26 8.13 28.01 8.13C26.76 8.13 25.93 7.53 25.93 6.58ZM26.61 10.2C26.61 9.25 27.68 8.7 29.45 8.7C31.21 8.7 32.28 9.25 32.28 10.2C32.28 11.15 31.21 11.71 29.45 11.71C27.68 11.71 26.61 11.15 26.61 10.2ZM26.64 6.58C26.64 7.17 27.19 7.56 28.01 7.56C28.83 7.56 29.38 7.17 29.38 6.58C29.38 6 28.83 5.62 28.01 5.62C27.19 5.62 26.64 6 26.64 6.58ZM27.35 10.2C27.35 10.79 28.15 11.13 29.45 11.13C30.75 11.13 31.55 10.79 31.55 10.2C31.55 9.62 30.75 9.28 29.45 9.28C28.15 9.28 27.35 9.62 27.35 10.2ZM34.9102 3.36H40.7802V6.31H38.2102V7.44H41.7902V8.05H33.8902V7.44H37.4702V6.31H34.9102V3.36ZM34.7702 9.6V8.98H40.8102V11.73H40.0702V9.6H34.7702ZM35.6402 5.7H40.0402V3.96H35.6402V5.7ZM50.8752 2.98H51.6252V11.74H50.8752V6.5H48.1552V5.89H50.8752V2.98ZM44.9152 9.61V3.96H45.6552V8.98C46.9952 8.98 48.1752 8.91 49.4952 8.63L49.5852 9.26C48.1952 9.54 46.9852 9.61 45.5852 9.61H44.9152ZM59.3154 2.97H60.0654V11.74H59.3154V2.97ZM53.4254 9.62V3.73H54.1754V6.05H56.7854V3.73H57.5254V9.62H53.4254ZM54.1754 9H56.7854V6.65H54.1754V9ZM64.2456 3.62C65.6056 3.62 66.5756 4.46 66.5756 5.67C66.5756 6.89 65.6056 7.72 64.2456 7.72C62.8756 7.72 61.9056 6.89 61.9056 5.67C61.9056 4.46 62.8756 3.62 64.2456 3.62ZM61.4556 9.17C63.0556 9.17 65.2756 9.17 67.1856 8.87L67.2456 9.42C65.2756 9.8 63.1256 9.81 61.5556 9.81L61.4556 9.17ZM62.6356 5.67C62.6356 6.49 63.3156 7.07 64.2456 7.07C65.1656 7.07 65.8456 6.49 65.8456 5.67C65.8456 4.84 65.1656 4.27 64.2456 4.27C63.3156 4.27 62.6356 4.84 62.6356 5.67ZM67.7656 11.74V2.97H68.5156V11.74H67.7656ZM75.6305 7.27C76.2205 7.63 76.7205 8.24 76.7205 8.96C76.7205 10.17 75.6205 11.06 74.3905 11.06C73.1705 11.06 72.0705 10.17 72.0705 8.96H72.7905C72.7905 9.64 73.4405 10.33 74.3905 10.33C75.3505 10.33 76.0005 9.65 76.0005 8.97C76.0005 8.29 75.5605 7.62 74.4105 7.62H73.8805V6.9H74.4105C75.4005 6.9 75.9005 6.31 75.9005 5.67C75.9005 5.07 75.3205 4.44 74.4505 4.44C73.5805 4.44 72.9905 5.06 72.9905 5.69H72.2705C72.2705 4.56 73.3105 3.72 74.4505 3.72C75.6005 3.72 76.6205 4.56 76.6205 5.69C76.6205 6.35 76.1705 6.91 75.6305 7.27ZM81.0544 7.27C81.6444 7.63 82.1444 8.24 82.1444 8.96C82.1444 10.17 81.0444 11.06 79.8144 11.06C78.5944 11.06 77.4944 10.17 77.4944 8.96H78.2144C78.2144 9.64 78.8644 10.33 79.8144 10.33C80.7744 10.33 81.4244 9.65 81.4244 8.97C81.4244 8.29 80.9844 7.62 79.8344 7.62H79.3044V6.9H79.8344C80.8244 6.9 81.3244 6.31 81.3244 5.67C81.3244 5.07 80.7444 4.44 79.8744 4.44C79.0044 4.44 78.4144 5.06 78.4144 5.69H77.6944C77.6944 4.56 78.7344 3.72 79.8744 3.72C81.0244 3.72 82.0444 4.56 82.0444 5.69C82.0444 6.35 81.5944 6.91 81.0544 7.27ZM83.5382 10.13C83.8582 10.13 84.0282 10.35 84.0282 10.62C84.0282 10.91 83.8582 11.13 83.5382 11.13C83.2082 11.13 83.0282 10.91 83.0282 10.62C83.0282 10.35 83.2082 10.13 83.5382 10.13ZM88.8649 7.27C89.4549 7.63 89.9549 8.24 89.9549 8.96C89.9549 10.17 88.8549 11.06 87.6249 11.06C86.4049 11.06 85.3049 10.17 85.3049 8.96H86.0249C86.0249 9.64 86.6749 10.33 87.6249 10.33C88.5849 10.33 89.2349 9.65 89.2349 8.97C89.2349 8.29 88.7949 7.62 87.6449 7.62H87.1149V6.9H87.6449C88.6349 6.9 89.1349 6.31 89.1349 5.67C89.1349 5.07 88.5549 4.44 87.6849 4.44C86.8149 4.44 86.2249 5.06 86.2249 5.69H85.5049C85.5049 4.56 86.5449 3.72 87.6849 3.72C88.8349 3.72 89.8549 4.56 89.8549 5.69C89.8549 6.35 89.4049 6.91 88.8649 7.27ZM94.2888 7.27C94.8788 7.63 95.3788 8.24 95.3788 8.96C95.3788 10.17 94.2788 11.06 93.0488 11.06C91.8288 11.06 90.7288 10.17 90.7288 8.96H91.4488C91.4488 9.64 92.0988 10.33 93.0488 10.33C94.0088 10.33 94.6588 9.65 94.6588 8.97C94.6588 8.29 94.2188 7.62 93.0688 7.62H92.5388V6.9H93.0688C94.0588 6.9 94.5588 6.31 94.5588 5.67C94.5588 5.07 93.9788 4.44 93.1088 4.44C92.2388 4.44 91.6488 5.06 91.6488 5.69H90.9288C90.9288 4.56 91.9688 3.72 93.1088 3.72C94.2588 3.72 95.2788 4.56 95.2788 5.69C95.2788 6.35 94.8288 6.91 94.2888 7.27ZM99.7126 7.27C100.303 7.63 100.803 8.24 100.803 8.96C100.803 10.17 99.7026 11.06 98.4726 11.06C97.2526 11.06 96.1526 10.17 96.1526 8.96H96.8726C96.8726 9.64 97.5226 10.33 98.4726 10.33C99.4326 10.33 100.083 9.65 100.083 8.97C100.083 8.29 99.6426 7.62 98.4926 7.62H97.9626V6.9H98.4926C99.4826 6.9 99.9826 6.31 99.9826 5.67C99.9826 5.07 99.4026 4.44 98.5326 4.44C97.6626 4.44 97.0726 5.06 97.0726 5.69H96.3526C96.3526 4.56 97.3926 3.72 98.5326 3.72C99.6826 3.72 100.703 4.56 100.703 5.69C100.703 6.35 100.253 6.91 99.7126 7.27ZM103.696 10.98L108.206 3.78H109.026L104.496 10.98H103.696ZM102.046 5.62C102.046 4.55 102.886 3.66 103.956 3.66C105.026 3.66 105.856 4.55 105.856 5.62C105.856 6.68 105.026 7.58 103.956 7.58C102.886 7.58 102.046 6.68 102.046 5.62ZM102.786 5.62C102.786 6.31 103.326 6.86 103.956 6.86C104.596 6.86 105.126 6.31 105.126 5.62C105.126 4.93 104.596 4.38 103.956 4.38C103.326 4.38 102.786 4.93 102.786 5.62ZM106.776 9.11C106.776 8.04 107.616 7.15 108.686 7.15C109.756 7.15 110.586 8.04 110.586 9.11C110.586 10.17 109.756 11.07 108.686 11.07C107.616 11.07 106.776 10.17 106.776 9.11ZM107.516 9.11C107.516 9.8 108.056 10.35 108.686 10.35C109.326 10.35 109.856 9.8 109.856 9.11C109.856 8.42 109.326 7.87 108.686 7.87C108.056 7.87 107.516 8.42 107.516 9.11Z" fill="#1E40AF"/>
<defs>
<clipPath id="clip0_1101_59942">
<path d="M11 35C11 30.5817 14.5817 27 19 27H323C327.418 27 331 30.5817 331 35V63C331 67.4183 327.418 71 323 71H19C14.5817 71 11 67.4183 11 63V35Z" fill="white"/>
</clipPath>
</defs>
</svg>
