<svg width="693" height="116" viewBox="0 0 693 116" fill="none" xmlns="http://www.w3.org/2000/svg">
<rect width="284.245" height="53.3434" transform="translate(31.7344 0.277344)" fill="white"/>
<path d="M58.4644 20.3653C60.8002 20.3653 62.4862 22.5079 62.4862 25.8799C62.4862 29.2694 60.8002 31.4296 58.4644 31.4296C56.1287 31.4296 54.4251 29.2694 54.4251 25.8799C54.4251 22.5079 56.1287 20.3653 58.4644 20.3653ZM56.2516 25.8799C56.2516 28.3035 57.1473 29.7085 58.4644 29.7085C59.7816 29.7085 60.6773 28.3035 60.6773 25.8799C60.6773 23.4914 59.7816 22.0864 58.4644 22.0864C57.1473 22.0864 56.2516 23.4914 56.2516 25.8799ZM64.541 34.8542V19.2413H66.4377V25.2828H68.8086V26.8458H66.4377V34.8542H64.541ZM71.1031 20.6288H82.062V22.0513C82.062 23.948 82.0795 26.1082 81.3946 29.4275L79.533 29.2167C79.7964 27.9522 79.972 26.8458 80.0599 25.8448L70.9099 26.3365L70.664 24.7208L80.1652 24.4046C80.2004 23.5792 80.2004 22.8416 80.2004 22.1567H71.1031V20.6288ZM69.4698 32.9048V31.3769H74.6858V27.5132H76.565V31.3769H83.5723V32.9048H69.4698ZM95.6314 19.2413H97.5281V34.8893H95.6314V19.2413ZM85.6209 31.0959V20.6639H93.0849V22.2094H87.5001V29.5153C90.3627 29.4977 92.1892 29.4275 94.2616 29.0235L94.4372 30.6041C92.1892 31.0256 90.2047 31.0959 86.9381 31.0959H85.6209ZM110.904 19.2589H112.801V30.6919H110.904V24.9666H108.112C107.743 26.8282 106.145 28.0927 104.125 28.0927C101.807 28.0927 100.051 26.4419 100.051 24.1412C100.051 21.8406 101.807 20.2073 104.125 20.2073C106.18 20.2073 107.813 21.5069 108.147 23.4387H110.904V19.2589ZM101.842 24.1412C101.842 25.5462 102.826 26.4243 104.125 26.4243C105.407 26.4243 106.391 25.5462 106.391 24.1412C106.391 22.7538 105.407 21.8581 104.125 21.8581C102.826 21.8581 101.842 22.7538 101.842 24.1412ZM102.633 34.5556V29.5504H104.529V33.0277H113.205V34.5556H102.633ZM119.576 20.5936H126.864V22.1391H121.455V24.9491H126.601V26.4243H121.455V29.6909C123.896 29.6733 125.74 29.5855 127.918 29.2518L128.093 30.7622C125.705 31.1486 123.615 31.2188 120.823 31.2188H119.576V20.5936ZM129.165 34.8542V19.2413H131.061V25.3179H133.432V26.8809H131.061V34.8542H129.165ZM145.07 19.2238H146.967V34.8893H145.07V19.2238ZM134.585 25.8799C134.585 22.5079 136.271 20.3653 138.625 20.3653C140.978 20.3653 142.664 22.5079 142.664 25.8799C142.664 29.2694 140.978 31.4296 138.625 31.4296C136.271 31.4296 134.585 29.2694 134.585 25.8799ZM136.412 25.8799C136.412 28.3035 137.307 29.7085 138.625 29.7085C139.942 29.7085 140.855 28.3035 140.855 25.8799C140.855 23.4914 139.942 22.0864 138.625 22.0864C137.307 22.0864 136.412 23.4914 136.412 25.8799ZM151.07 19.5926H161.713V20.9098H152.949V21.8581H161.344V23.1226H152.949V24.1061H161.836V25.4233H151.07V19.5926ZM149.314 27.7415V26.3365H163.364V27.7415H149.314ZM150.93 30.007V28.6723H161.625V32.2901H152.826V33.379H162.082V34.7313H150.965V31.0081H159.781V30.007H150.93Z" fill="#616161"/>
<path fill-rule="evenodd" clip-rule="evenodd" d="M273.686 22.746C274.008 22.4245 274.529 22.4245 274.851 22.746L280.854 28.7497L286.858 22.746C287.18 22.4245 287.701 22.4245 288.022 22.746C288.344 23.0675 288.344 23.5887 288.022 23.9102L281.437 30.4961C281.115 30.8176 280.594 30.8176 280.272 30.4961L273.686 23.9102C273.365 23.5887 273.365 23.0675 273.686 22.746Z" fill="#999999"/>
<rect width="284.245" height="115.468" transform="translate(365.654 0.277344)" fill="white"/>
<path d="M392.384 20.3653C394.72 20.3653 396.406 22.5079 396.406 25.8799C396.406 29.2694 394.72 31.4296 392.384 31.4296C390.049 31.4296 388.345 29.2694 388.345 25.8799C388.345 22.5079 390.049 20.3653 392.384 20.3653ZM390.172 25.8799C390.172 28.3035 391.067 29.7085 392.384 29.7085C393.702 29.7085 394.597 28.3035 394.597 25.8799C394.597 23.4914 393.702 22.0864 392.384 22.0864C391.067 22.0864 390.172 23.4914 390.172 25.8799ZM398.461 34.8542V19.2413H400.358V25.2828H402.729V26.8458H400.358V34.8542H398.461ZM405.023 20.6288H415.982V22.0513C415.982 23.948 415.999 26.1082 415.315 29.4275L413.453 29.2167C413.716 27.9522 413.892 26.8458 413.98 25.8448L404.83 26.3365L404.584 24.7208L414.085 24.4046C414.12 23.5792 414.12 22.8416 414.12 22.1567H405.023V20.6288ZM403.39 32.9048V31.3769H408.606V27.5132H410.485V31.3769H417.492V32.9048H403.39ZM429.551 19.2413H431.448V34.8893H429.551V19.2413ZM419.541 31.0959V20.6639H427.005V22.2094H421.42V29.5153C424.283 29.4977 426.109 29.4275 428.181 29.0235L428.357 30.6041C426.109 31.0256 424.125 31.0959 420.858 31.0959H419.541ZM444.824 19.2589H446.721V30.6919H444.824V24.9666H442.032C441.663 26.8282 440.065 28.0927 438.045 28.0927C435.727 28.0927 433.971 26.4419 433.971 24.1412C433.971 21.8406 435.727 20.2073 438.045 20.2073C440.1 20.2073 441.733 21.5069 442.067 23.4387H444.824V19.2589ZM435.762 24.1412C435.762 25.5462 436.746 26.4243 438.045 26.4243C439.327 26.4243 440.311 25.5462 440.311 24.1412C440.311 22.7538 439.327 21.8581 438.045 21.8581C436.746 21.8581 435.762 22.7538 435.762 24.1412ZM436.553 34.5556V29.5504H438.449V33.0277H447.125V34.5556H436.553ZM453.496 20.5936H460.784V22.1391H455.375V24.9491H460.52V26.4243H455.375V29.6909C457.816 29.6733 459.66 29.5855 461.838 29.2518L462.013 30.7622C459.625 31.1486 457.535 31.2188 454.743 31.2188H453.496V20.5936ZM463.085 34.8542V19.2413H464.981V25.3179H467.352V26.8809H464.981V34.8542H463.085ZM478.99 19.2238H480.887V34.8893H478.99V19.2238ZM468.505 25.8799C468.505 22.5079 470.191 20.3653 472.544 20.3653C474.898 20.3653 476.584 22.5079 476.584 25.8799C476.584 29.2694 474.898 31.4296 472.544 31.4296C470.191 31.4296 468.505 29.2694 468.505 25.8799ZM470.332 25.8799C470.332 28.3035 471.227 29.7085 472.544 29.7085C473.862 29.7085 474.775 28.3035 474.775 25.8799C474.775 23.4914 473.862 22.0864 472.544 22.0864C471.227 22.0864 470.332 23.4914 470.332 25.8799ZM484.99 19.5926H495.633V20.9098H486.869V21.8581H495.264V23.1226H486.869V24.1061H495.756V25.4233H484.99V19.5926ZM483.234 27.7415V26.3365H497.284V27.7415H483.234ZM484.849 30.007V28.6723H495.545V32.2901H486.746V33.379H496.001V34.7313H484.885V31.0081H493.701V30.007H484.849Z" fill="#616161"/>
<path fill-rule="evenodd" clip-rule="evenodd" d="M614.192 22.746C614.514 22.4245 615.035 22.4245 615.356 22.746L621.942 29.3319C622.264 29.6533 622.264 30.1746 621.942 30.4961C621.621 30.8176 621.1 30.8176 620.778 30.4961L614.774 24.4923L608.771 30.4961C608.449 30.8176 607.928 30.8176 607.606 30.4961C607.285 30.1746 607.285 29.6533 607.606 29.3319L614.192 22.746Z" fill="#999999"/>
<mask id="path-5-inside-1_1101_64829" fill="white">
<path d="M365.654 53.6211H649.9V115.746H365.654V53.6211Z"/>
</mask>
<path d="M365.654 53.6211V54.7187H649.9V53.6211V52.5235H365.654V53.6211Z" fill="#EEEEEE" mask="url(#path-5-inside-1_1101_64829)"/>
<path d="M392.402 78.2929C394.65 78.2929 396.23 80.3652 396.23 83.6318C396.23 86.8984 394.65 88.9883 392.402 88.9883C390.154 88.9883 388.556 86.8984 388.556 83.6318C388.556 80.3652 390.154 78.2929 392.402 78.2929ZM389.82 83.6318C389.82 86.1432 390.874 87.8116 392.402 87.8116C393.93 87.8116 394.984 86.1432 394.984 83.6318C394.984 81.1204 393.93 79.4696 392.402 79.4696C390.874 79.4696 389.82 81.1204 389.82 83.6318ZM398.795 92.4656V77.0986H400.112V83.2806H402.658V84.387H400.112V92.4656H398.795ZM405.164 78.609H415.666V80.0842C415.666 81.9634 415.666 84.0533 415.034 87.1794L413.734 87.0213C414.032 85.6164 414.191 84.4046 414.278 83.3157L404.953 83.8601L404.76 82.701L414.331 82.3146C414.366 81.5068 414.366 80.7692 414.366 80.0842V79.6979H405.164V78.609ZM403.495 90.323V89.2342H408.957V85.23H410.257V89.2342H417.369V90.323H403.495ZM429.903 77.0986H431.22V92.4832H429.903V77.0986ZM419.681 88.6546V78.5739H426.917V79.6803H420.981V87.5306C423.967 87.5306 425.934 87.4428 428.234 87.0038L428.375 88.1278C425.986 88.5668 423.984 88.6546 420.911 88.6546H419.681ZM445.158 77.1162H446.475V88.4263H445.158V82.4551H441.962C441.681 84.3694 440.1 85.669 438.045 85.669C435.78 85.669 434.111 84.106 434.111 81.8756C434.111 79.6452 435.78 78.0997 438.045 78.0997C440.118 78.0997 441.733 79.4169 441.962 81.3838H445.158V77.1162ZM435.358 81.8756C435.358 83.4211 436.517 84.5099 438.045 84.5099C439.573 84.5099 440.732 83.4211 440.732 81.8756C440.732 80.3477 439.573 79.2588 438.045 79.2588C436.517 79.2588 435.358 80.3477 435.358 81.8756ZM436.693 92.1144V87.2848H438.01V91.0255H446.914V92.1144H436.693ZM464.665 77.0986H465.93V92.4656H464.665V84.4924H462.417V91.6578H461.188V77.4499H462.417V83.3859H464.665V77.0986ZM453.706 88.4614V78.9778H455.006V87.3023C456.516 87.2848 458.167 87.1794 460.046 86.8106L460.204 87.9697C458.097 88.3736 456.341 88.4614 454.672 88.4614H453.706ZM468.119 84.7382H471.579V82.543C470.349 82.0512 469.664 81.2785 469.664 80.2423C469.664 78.4334 471.737 77.3972 475.056 77.3972C478.375 77.3972 480.447 78.4334 480.447 80.2423C480.447 81.2785 479.763 82.0512 478.551 82.5254V84.7382H481.993V85.792H468.119V84.7382ZM469.805 89.7084C469.805 87.9873 471.772 87.0038 475.056 87.0038C478.34 87.0038 480.307 87.9873 480.307 89.7084C480.307 91.4646 478.34 92.4481 475.056 92.4481C471.772 92.4481 469.805 91.4646 469.805 89.7084ZM471.017 80.2423C471.017 81.3663 472.58 82.0512 475.056 82.0512C477.532 82.0512 479.095 81.3663 479.095 80.2423C479.095 79.1007 477.532 78.4158 475.056 78.4158C472.58 78.4158 471.017 79.1007 471.017 80.2423ZM471.122 89.7084C471.122 90.7972 472.597 91.4119 475.056 91.4119C477.497 91.4119 478.972 90.7972 478.972 89.7084C478.972 88.6546 477.497 88.0224 475.056 88.0224C472.597 88.0224 471.122 88.6546 471.122 89.7084ZM472.878 84.7382H477.251V82.8942C476.601 82.9996 475.864 83.0698 475.056 83.0698C474.248 83.0698 473.528 83.0171 472.878 82.8942V84.7382Z" fill="#616161"/>
<rect y="14.0762" width="16.558" height="16.558" rx="8.27899" fill="#333333"/>
<path d="M9.44413 18.3414V26.3996L8.11949 26.3886V19.7985L6.67343 20.4608L6.17669 19.2466L8.11949 18.3414H9.44413Z" fill="white"/>
<path d="M43.875 18.6759C41.8428 18.6759 40.1954 20.3233 40.1954 22.3555C40.1954 24.3876 41.8428 26.035 43.875 26.035C45.9072 26.035 47.5546 24.3876 47.5546 22.3555C47.5546 20.3233 45.9072 18.6759 43.875 18.6759ZM43.875 22.3555L43.875 21.6656L16.2784 21.6656L16.2784 22.3555L16.2784 23.0454L43.875 23.0454L43.875 22.3555Z" fill="#333333"/>
<rect x="320.121" y="18.2148" width="16.558" height="16.558" rx="8.27899" fill="#333333"/>
<path d="M325.585 29.2137C327.207 27.6572 329.327 26.4098 329.327 25.0962C329.327 24.1359 328.742 23.7274 328.013 23.7274C327.539 23.7274 326.943 23.9041 326.578 24.6988L325.375 24.158C326.004 22.756 327.296 22.4028 328.013 22.4028C329.261 22.4028 330.652 23.3742 330.652 25.0962C330.652 26.7631 329.029 28.0546 327.616 29.2137H330.773V30.5383H325.585V29.2137Z" fill="white"/>
<path d="M292.525 30.1737C294.558 30.1737 296.205 28.5263 296.205 26.4941C296.205 24.462 294.558 22.8146 292.525 22.8146C290.493 22.8146 288.846 24.462 288.846 26.4941C288.846 28.5263 290.493 30.1737 292.525 30.1737ZM292.525 26.4941L292.525 27.1841L320.564 27.1841L320.564 26.4941L320.564 25.8042L292.525 25.8042L292.525 26.4941Z" fill="#333333"/>
<rect x="676.117" y="77.5479" width="16.558" height="16.558" rx="8.27899" fill="#333333"/>
<path d="M685.676 85.6987C686.383 86.1071 686.935 86.7915 686.935 87.5973C686.935 88.9441 685.831 89.9375 684.142 89.9375C682.464 89.9375 681.371 88.9441 681.371 87.498H682.696C682.696 88.0941 683.115 88.6571 684.142 88.6571C685.179 88.6571 685.654 88.0941 685.654 87.498C685.654 86.8909 685.279 86.2948 684.164 86.2948H683.601V85.1136H684.186C685.102 85.1136 685.533 84.5727 685.533 84.0319C685.533 83.513 685.124 83.0273 684.219 83.0273C683.303 83.0273 682.939 83.513 682.939 84.0429H681.614C681.614 82.6741 682.674 81.7469 684.219 81.7469C685.742 81.7469 686.802 82.6741 686.802 83.9435C686.802 84.6831 686.328 85.3013 685.676 85.6987Z" fill="white"/>
<path d="M648.521 89.5067C650.554 89.5067 652.201 87.8593 652.201 85.8271C652.201 83.795 650.554 82.1476 648.521 82.1476C646.489 82.1476 644.842 83.795 644.842 85.8271C644.842 87.8593 646.489 89.5067 648.521 89.5067ZM648.521 85.8271L648.521 86.5171L676.56 86.5171L676.56 85.8271L676.56 85.1372L648.521 85.1372L648.521 85.8271Z" fill="#333333"/>
</svg>
