<svg width="200" height="88" viewBox="0 0 200 88" fill="none" xmlns="http://www.w3.org/2000/svg">
<path d="M33.2856 39.0387C33.2856 32.9422 38.2278 28 44.3243 28H188.247C194.343 28 199.286 32.9422 199.286 39.0387V76.9613C199.286 83.0578 194.343 88 188.247 88H44.3243C38.2278 88 33.2856 83.0578 33.2856 76.9613V39.0387Z" fill="#FF8120"/>
<rect x="53.2441" y="45.3901" width="25.2208" height="25.2208" fill="#FF0000" fill-opacity="0.2"/>
<rect x="53.2441" y="45.3901" width="25.2208" height="25.2208" stroke="#E53935" stroke-width="1.09656" stroke-dasharray="2.19 2.19"/>
<path fill-rule="evenodd" clip-rule="evenodd" d="M75.4022 50.6454C75.8304 51.0736 75.8304 51.7679 75.4022 52.1962L63.3401 64.2583C62.9118 64.6865 62.2175 64.6865 61.7893 64.2583L56.3065 58.7755C55.8783 58.3473 55.8783 57.653 56.3065 57.2247C56.7348 56.7965 57.4291 56.7965 57.8573 57.2247L62.5647 61.9321L73.8514 50.6454C74.2796 50.2172 74.9739 50.2172 75.4022 50.6454Z" fill="white"/>
<path d="M93.9439 65.2369C93.1939 65.2369 91.9898 64.9013 91.1411 63.7368V65.1382H89.266V51.0847H91.1411V57.3219C91.9898 56.1376 93.1939 55.8218 93.9636 55.8218C96.5493 55.8218 98.4047 57.7759 98.4047 60.5195C98.4047 63.2828 96.5493 65.2369 93.9439 65.2369ZM91.1411 60.5392C91.1411 62.2762 92.3649 63.6381 93.8649 63.6381C95.4637 63.6381 96.5296 62.3946 96.5296 60.5392C96.5296 58.6838 95.4637 57.4601 93.8649 57.4601C92.3649 57.4601 91.1411 58.8417 91.1411 60.5392ZM102.503 61.1708C102.503 62.6314 103.372 63.5986 104.635 63.5986C106.017 63.5986 106.984 62.6907 106.964 61.2498V55.8021H108.859V65.1184H106.964V64.0131C106.372 64.7434 105.365 65.2171 104.457 65.2171C102.227 65.2171 100.628 63.5789 100.628 61.2695V55.8021H102.503V61.1708ZM112.576 65.1184V57.4206H110.839V55.8021H112.576V52.5453H114.432V55.8021H116.642V57.4206H114.432V65.1184H112.576ZM118.811 65.1184V57.4206H117.074V55.8021H118.811V52.5453H120.667V55.8021H122.877V57.4206H120.667V65.1184H118.811ZM128.565 63.5986C130.105 63.5986 131.171 62.3551 131.171 60.4997C131.171 58.6641 130.105 57.4206 128.565 57.4206C127.006 57.4206 125.96 58.6444 125.96 60.4997C125.96 62.3551 127.006 63.5986 128.565 63.5986ZM124.085 60.4997C124.085 57.7562 125.94 55.8021 128.565 55.8021C131.19 55.8021 133.026 57.7562 133.026 60.4997C133.026 63.2433 131.19 65.2171 128.565 65.2171C125.94 65.2171 124.085 63.2433 124.085 60.4997ZM141.407 59.8681C141.407 58.3878 140.597 57.4403 139.295 57.4403C137.933 57.4601 136.906 58.5259 136.926 59.8681V65.1184H135.051V55.8021H136.926V57.1245C137.538 56.3548 138.545 55.8218 139.472 55.8218C141.367 55.8218 143.282 57.1048 143.282 59.7892V65.1184H141.407V59.8681Z" fill="white"/>
<rect x="154.106" y="45.3901" width="25.2208" height="25.2208" fill="#FF0000" fill-opacity="0.2"/>
<rect x="154.106" y="45.3901" width="25.2208" height="25.2208" stroke="#E53935" stroke-width="1.09656" stroke-dasharray="2.19 2.19"/>
<path fill-rule="evenodd" clip-rule="evenodd" d="M167.681 65.124L167.685 65.04V58.9694H173.756L173.84 58.9655C174.255 58.9235 174.578 58.573 174.578 58.1471C174.578 57.7211 174.255 57.3707 173.84 57.3287L173.756 57.3248H167.685V51.2529C167.685 50.7987 167.317 50.4307 166.863 50.4307C166.408 50.4307 166.04 50.7987 166.04 51.2529V57.3248H159.969C159.515 57.3248 159.147 57.6929 159.147 58.1471C159.147 58.6013 159.515 58.9694 159.969 58.9694H166.04V65.04L166.044 65.124C166.086 65.5389 166.437 65.8623 166.863 65.8623C167.289 65.8623 167.639 65.5389 167.681 65.124Z" fill="white"/>
<rect x="0.935547" y="54" width="16.558" height="16.558" rx="8.27899" fill="#333333"/>
<path d="M10.247 58.2873V66.3124L9.07687 66.3014V59.5347L7.66392 60.3184L7.17822 59.336L9.08791 58.2873H10.247Z" fill="white"/>
<path d="M44.5903 58.5997C42.5582 58.5997 40.9108 60.2471 40.9108 62.2793C40.9108 64.3115 42.5582 65.9588 44.5903 65.9588C46.6225 65.9588 48.2699 64.3115 48.2699 62.2793C48.2699 60.2471 46.6225 58.5997 44.5903 58.5997ZM44.5903 61.5894L16.9937 61.5894L16.9937 62.9692L44.5903 62.9692L44.5903 61.5894Z" fill="#333333"/>
<rect x="61.6943" width="16.558" height="16.558" rx="8.27899" fill="#333333"/>
<path d="M67.1799 11.2858C68.7915 9.74041 70.9882 8.17292 70.9882 6.81516C70.9882 5.90999 70.4142 5.26975 69.5973 5.26975C68.9681 5.26975 68.3389 5.72234 68.0519 6.37362L67.0253 5.92103C67.4669 4.90547 68.5376 4.199 69.5973 4.199C71.1096 4.199 72.1583 5.28079 72.1583 6.81516C72.1583 8.50408 70.3259 10.0053 68.8357 11.2858H72.2908V12.3124H67.2902L67.1799 11.2858Z" fill="white"/>
<path d="M73.432 44.5967C73.432 42.5645 71.7846 40.9171 69.7524 40.9171C67.7203 40.9171 66.0729 42.5645 66.0729 44.5967C66.0729 46.6288 67.7203 48.2762 69.7524 48.2762C71.7846 48.2762 73.432 46.6288 73.432 44.5967ZM70.4424 44.5967L70.4424 16.558L69.0625 16.558L69.0625 44.5967L70.4424 44.5967Z" fill="#333333"/>
<rect x="167.694" width="16.558" height="16.558" rx="8.27899" fill="#333333"/>
<path d="M177.75 4.27627V9.22159H178.765V10.2371H177.75V12.3124H176.58V10.2371H173.125L173.014 9.22159L176.635 4.27627H177.75ZM174.405 9.22159H176.58V6.23011L174.405 9.22159Z" fill="white"/>
<path d="M179.432 44.5967C179.432 42.5645 177.785 40.9171 175.752 40.9171C173.72 40.9171 172.073 42.5645 172.073 44.5967C172.073 46.6288 173.72 48.2762 175.752 48.2762C177.785 48.2762 179.432 46.6288 179.432 44.5967ZM176.442 44.5967L176.442 16.558L175.063 16.558L175.063 44.5967L176.442 44.5967Z" fill="#333333"/>
<rect x="115.815" width="16.558" height="16.558" rx="8.27899" fill="#333333"/>
<path d="M125.407 8.16188C126.124 8.58135 126.577 9.36509 126.577 10.0384C126.577 11.4072 125.451 12.3786 123.85 12.3786C122.261 12.3786 121.135 11.3852 121.135 9.97222H122.305C122.305 10.778 122.945 11.341 123.85 11.341C124.778 11.341 125.44 10.778 125.44 9.97222C125.44 9.19951 124.789 8.64758 123.872 8.64758H123.298V7.66514H123.884C124.722 7.66514 125.319 7.1684 125.319 6.46193C125.319 5.74441 124.745 5.24767 123.928 5.24767C123.111 5.24767 122.548 5.75545 122.548 6.47296H121.378C121.378 5.13729 122.426 4.21004 123.928 4.21004C125.407 4.21004 126.456 5.11521 126.456 6.39569C126.456 7.01386 126.058 7.74241 125.407 8.16188Z" fill="white"/>
<path d="M127.553 44.5967C127.553 42.5645 125.905 40.9171 123.873 40.9171C121.841 40.9171 120.193 42.5645 120.193 44.5967C120.193 46.6288 121.841 48.2762 123.873 48.2762C125.905 48.2762 127.553 46.6288 127.553 44.5967ZM124.563 44.5967L124.563 16.558L123.183 16.558L123.183 44.5967L124.563 44.5967Z" fill="#333333"/>
</svg>
