<svg width="251" height="200" viewBox="0 0 251 200" fill="none" xmlns="http://www.w3.org/2000/svg">
<g filter="url(#filter0_dd_1099_78729)">
<g clip-path="url(#clip0_1099_78729)">
<path d="M11 27.959C11 15.8087 20.8497 5.95898 33 5.95898H218.264C230.415 5.95898 240.264 15.8087 240.264 27.959V210.174H11V27.959Z" fill="white"/>
<path d="M27.24 31.7852C28.7684 31.7852 29.9274 33.0462 30.144 35.1223H32.1182V30.97H33.6848V42.4205H32.1182V36.3832H30.1567C30.0039 38.574 28.8193 39.9241 27.24 39.9241C25.5459 39.9241 24.3105 38.3575 24.3105 35.8483C24.3105 33.3518 25.5459 31.7852 27.24 31.7852ZM25.8134 35.8483C25.8134 37.555 26.3866 38.4976 27.24 38.4976C28.1061 38.4976 28.6792 37.555 28.6792 35.8483C28.6792 34.1415 28.1061 33.2117 27.24 33.2117C26.3866 33.2117 25.8134 34.1415 25.8134 35.8483ZM35.1817 39.7967H45.5114V41.0959H35.1817V39.7967ZM36.3535 33.0207V31.7597H44.3396V35.5299H37.9329V36.8545H44.5943V38.1282H36.379V34.2944H42.7729V33.0207H36.3535ZM54.0772 30.9955H55.6693V39.3127H54.0772V30.9955ZM46.1676 36.5233C48.0654 35.861 48.906 34.2689 48.906 32.7405V31.6069H50.5109V32.7405C50.5109 34.2434 51.3261 35.7209 53.1856 36.3195L52.3705 37.5805C51.0968 37.1474 50.2179 36.2813 49.7212 35.186C49.2245 36.3578 48.3074 37.3003 46.9828 37.7716L46.1676 36.5233ZM48.0909 42.1913V38.523H49.6703V40.9303H55.9623V42.1913H48.0909ZM62.4011 31.1611C64.9994 31.1611 66.5279 31.8362 66.5279 33.1098C66.5279 34.3708 64.9994 35.0586 62.4011 35.0586C59.8155 35.0586 58.2743 34.3708 58.2743 33.1098C58.2743 31.8362 59.8155 31.1611 62.4011 31.1611ZM57.2426 36.8672V35.6063H67.5595V36.8672H57.2426ZM58.4272 38.7013V37.5296H66.2986V40.4336H59.9938V41.1341H66.6043V42.3186H58.4527V39.3255H64.7447V38.7013H58.4272ZM59.9174 33.1098C59.9174 33.6575 60.7326 33.8995 62.4011 33.8995C64.0696 33.8995 64.8848 33.6575 64.8848 33.1098C64.8848 32.5749 64.0696 32.3074 62.4011 32.3074C60.7326 32.3074 59.9174 32.5749 59.9174 33.1098ZM71.1321 37.8225H81.449V39.1089H77.0675V42.4205H75.4754V39.1089H71.1321V37.8225ZM71.6671 35.9757C74.0107 35.7082 75.2844 34.5746 75.45 33.5429H72.0619V32.3074H75.4754V31.021H77.0675V32.3074H80.5065V33.5429H77.093C77.2713 34.5619 78.5578 35.7082 80.8759 35.9757L80.3282 37.2111C78.4049 36.9819 77.0166 36.1922 76.2779 35.135C75.5391 36.1922 74.1508 36.9819 72.2148 37.2111L71.6671 35.9757ZM89.4927 30.97H91.0848V35.377H92.6897V36.6762H91.0848V42.3951H89.4927V30.97ZM82.0671 39.2108C84.7418 37.8352 86.1684 35.9884 86.4613 33.4283H82.6912V32.1546H88.0534C88.0534 35.5681 86.7288 38.4976 82.9459 40.4081L82.0671 39.2108ZM96.0585 36.2431H106.363V37.5168H96.0585V36.2431ZM97.2175 40.3062C97.2175 38.9816 98.7078 38.2173 101.166 38.2173C103.637 38.2173 105.127 38.9816 105.127 40.3062C105.127 41.6563 103.637 42.4078 101.166 42.4078C98.7078 42.4078 97.2175 41.6563 97.2175 40.3062ZM97.3067 35.4152V31.3139H105.127V32.5876H98.8606V34.167H105.191V35.4152H97.3067ZM98.8097 40.3062C98.8097 40.9176 99.6248 41.2105 101.166 41.2105C102.733 41.2105 103.535 40.9176 103.535 40.3062C103.535 39.7203 102.733 39.4146 101.166 39.4146C99.6248 39.4146 98.8097 39.7203 98.8097 40.3062ZM107.083 37.122H111.451V36.2686H108.369V33.1608H114.585V32.4221H108.344V31.212H116.139V34.2816H109.91V35.0713H116.368V36.2686H113.031V37.122H117.412V38.3829H107.083V37.122ZM108.216 40.3062V39.0325H116.215V42.3568H114.636V40.3062H108.216ZM128.309 30.9955H129.888V35.4662H131.556V36.7781H129.888V42.4078H128.309V30.9955ZM120.896 33.9505V32.6895H123.443V31.1738H125.035V32.6895H127.557V33.9505H120.896ZM121.367 37.3385C121.367 35.7464 122.59 34.6255 124.245 34.6255C125.901 34.6255 127.137 35.7464 127.137 37.3385C127.137 38.9179 125.901 40.0387 124.245 40.0387C122.59 40.0387 121.367 38.9179 121.367 37.3385ZM122.883 37.3385C122.883 38.2173 123.443 38.7523 124.245 38.7523C125.048 38.7523 125.621 38.2173 125.621 37.3385C125.621 36.4469 125.048 35.8992 124.245 35.8992C123.443 35.8992 122.883 36.4469 122.883 37.3385ZM134.773 31.8871H136.365V33.5684C136.365 35.6827 137.32 37.7843 139.231 38.6122L138.314 39.8859C137.002 39.2872 136.097 38.1409 135.588 36.7144C135.079 38.2556 134.149 39.5038 132.773 40.1406L131.831 38.8415C133.792 37.9881 134.773 35.7973 134.773 33.5684V31.8871ZM139.842 42.4205V30.97H141.421V42.4205H139.842ZM148.026 31.7725C148.026 32.5876 147.924 33.3136 147.707 33.9887H148.93V31.212H150.395V37.3385H148.93V35.2369H147.122C146.434 36.3195 145.351 37.1729 143.81 37.8098L143.033 36.6634C145.135 35.8228 146.166 34.6383 146.383 33.0334H143.619V31.7725H148.026ZM143.555 41.1723C145.033 40.6501 145.695 39.5038 145.695 38.3702V37.8352H147.211V38.3702C147.211 39.3 147.593 40.268 148.497 40.9048C149.452 40.217 149.847 39.2236 149.847 38.3702V37.8352H151.388V38.3702C151.388 39.5675 152.038 40.701 153.528 41.1723L152.764 42.3186C151.681 41.9365 150.981 41.236 150.586 40.3444C150.217 41.2233 149.567 42.0002 148.535 42.4205C147.478 42.0257 146.816 41.2742 146.459 40.3826C146.052 41.236 145.364 41.9365 144.319 42.3186L143.555 41.1723ZM151.236 37.4786V30.9828H152.739V37.4786H151.236ZM155.28 37.8225H156.834V38.816H161.508V37.8225H163.062V42.2804H155.28V37.8225ZM154.057 37.2366V35.9884H164.374V37.2366H154.057ZM154.579 34.2307C157.101 33.925 158.4 32.6641 158.4 31.4668V31.1102H160.031V31.4668C160.031 32.6513 161.343 33.925 163.865 34.2307L163.291 35.4534C161.368 35.2114 159.942 34.3963 159.216 33.2882C158.49 34.3963 157.076 35.2114 155.14 35.4534L154.579 34.2307ZM156.834 41.0449H161.508V40.0133H156.834V41.0449ZM173.042 30.9828H174.608V42.3951H173.042V30.9828ZM165.705 39.5802V32.0782H167.272V38.2301C168.8 38.2046 170.431 38.0772 172.112 37.7333L172.29 39.0452C170.342 39.4528 168.456 39.5802 166.712 39.5802H165.705ZM183.62 30.9828H185.187V35.4662H186.702V36.7781H185.187V42.3951H183.62V30.9828ZM175.914 39.0962C177.455 37.4149 177.914 35.7209 178.003 33.4283H176.411V32.1546H179.493C179.493 35.2751 179.175 37.7333 177.15 40.0005L175.914 39.0962ZM179.124 39.8477C180.652 37.9244 181.073 35.9502 181.149 33.4283H179.888V32.1546H182.652C182.652 35.4025 182.359 38.2428 180.359 40.7265L179.124 39.8477ZM190.123 41.6945C189.562 41.6945 189.256 41.3124 189.256 40.8284C189.256 40.3571 189.562 39.975 190.123 39.975C190.683 39.975 190.976 40.3571 190.976 40.8284C190.976 41.3124 190.683 41.6945 190.123 41.6945ZM187.257 33.5429C187.741 32.2437 188.887 31.3394 190.314 31.3394C191.944 31.3394 193.447 32.715 193.37 34.3708C193.32 35.2879 192.848 36.1794 191.6 37.122C190.976 37.5805 190.861 37.8225 190.874 38.7396L189.333 38.765C189.32 37.4149 189.715 36.5998 190.683 35.8738C191.6 35.1987 191.804 34.8166 191.829 34.2944C191.868 33.4155 191.18 32.8678 190.314 32.8678C189.486 32.8678 189.002 33.2627 188.696 34.0779L187.257 33.5429Z" fill="#333333"/>
<path d="M222.404 30.1973C222.586 30.0698 222.839 30.0836 223.007 30.2422C223.174 30.401 223.201 30.6523 223.084 30.8408L223.024 30.917L217.994 36.2256L223.024 41.5342L223.084 41.6104C223.201 41.7989 223.174 42.0502 223.007 42.209C222.839 42.3676 222.586 42.3815 222.404 42.2539L222.331 42.1905L217.337 36.919L212.344 42.1905C212.162 42.3817 211.86 42.3902 211.669 42.209C211.478 42.0277 211.469 41.7256 211.65 41.5342L216.68 36.2256L211.65 30.917L211.591 30.8408C211.474 30.6524 211.502 30.4009 211.669 30.2422C211.836 30.0837 212.089 30.0702 212.27 30.1973L212.344 30.2608L217.337 35.5313L222.331 30.2608L222.404 30.1973Z" fill="#555555"/>
<path d="M31.0394 60.7013H31.8991V64.6905H33.5613V65.4127H31.8991V70.7545H31.0394V60.7013ZM24.6429 68.2441V61.6986H29.297V62.3978H25.4912V67.5104C27.3368 67.5104 28.6092 67.4531 30.0765 67.1665L30.1796 67.9002C28.6321 68.1868 27.3253 68.2441 25.4224 68.2441H24.6429ZM34.1194 66.2839H43.2098V66.9946H34.1194V66.2839ZM35.2772 61.733V61.0566H42.0291V63.5212H36.137V64.6676H42.2469V65.3439H35.3001V62.8678H41.1808V61.733H35.2772ZM35.3231 70.5138V67.8085H36.1828V69.8145H42.2583V70.5138H35.3231ZM49.2489 61.4922C50.613 61.4922 51.5988 62.673 51.7249 64.5644H53.9717V60.7013H54.82V70.7545H53.9717V65.2522H51.7249C51.6447 67.2239 50.6359 68.4733 49.2489 68.4733C47.7931 68.4733 46.7614 67.1092 46.7614 64.9771C46.7614 62.8449 47.7931 61.4922 49.2489 61.4922ZM47.5752 64.9771C47.5752 66.6163 48.263 67.7053 49.2489 67.7053C50.2462 67.7053 50.9225 66.6163 50.9225 64.9771C50.9225 63.3378 50.2462 62.2603 49.2489 62.2603C48.263 62.2603 47.5752 63.3378 47.5752 64.9771ZM56.513 68.737H65.6033V69.4592H56.513V68.737ZM57.6364 62.1915V61.4808H64.4685V64.4841H58.5076V66.1692H64.6977V66.88H57.6593V63.7964H63.6202V62.1915H57.6364ZM73.7731 60.7242H74.6328V68.0607H73.7731V60.7242ZM66.5512 65.9285C68.0415 65.3439 69.0731 63.8766 69.0731 62.2947V61.263H69.9329V62.2947C69.9329 63.8193 70.976 65.1949 72.4548 65.7451L71.9963 66.4329C70.8499 65.9858 69.9558 65.0573 69.5202 63.8995C69.0961 65.1376 68.1905 66.1349 67.0098 66.6163L66.5512 65.9285ZM68.2249 70.5138V67.3958H69.0846V69.8031H74.9538V70.5138H68.2249ZM77.5294 61.5152H84.2813V62.2259H78.3892V65.4127H84.3959V66.1234H81.3123V68.737H85.4505V69.4592H76.3602V68.737H80.464V66.1234H77.5294V61.5152ZM96.5105 60.7127H97.3359V70.7431H96.5105V60.7127ZM88.8073 63.1544V62.4552H90.8592V60.9764H91.7075V62.4552H93.7708V63.1544H88.8073ZM89.1741 66.1692C89.1741 64.8051 90.0568 63.8651 91.2719 63.8651C92.487 63.8651 93.3696 64.8051 93.3696 66.1692C93.3696 66.2495 93.3696 66.3297 93.3582 66.41H94.6764V64.828H93.255V64.1288H94.6764V60.942H95.4789V70.2387H94.6764V67.1092H93.2091C92.9111 67.946 92.1774 68.4848 91.2719 68.4848C90.0568 68.4848 89.1741 67.5334 89.1741 66.1692ZM89.9421 66.1692C89.9421 67.0863 90.5038 67.7397 91.2719 67.7397C92.0514 67.7397 92.6131 67.0863 92.6131 66.1692C92.6131 65.2522 92.0514 64.5988 91.2719 64.5988C90.5038 64.5988 89.9421 65.2522 89.9421 66.1692ZM99.2008 61.4464H103.052V62.1571H100.026V63.4525H102.949V64.1288H100.026V65.5388C101.493 65.5388 102.399 65.4814 103.465 65.2751L103.557 65.9744C102.399 66.2036 101.448 66.2495 99.8313 66.2495H99.2008V61.4464ZM100.485 68.0377V67.327H107.191V70.7431H106.342V68.0377H100.485ZM104.153 66.7309V60.9076H104.967V63.3493H106.377V60.7127H107.191V66.7883H106.377V64.06H104.967V66.7309H104.153ZM113.205 60.8962C115.406 60.8962 116.725 61.5037 116.725 62.6271C116.725 63.7505 115.406 64.3695 113.205 64.3695C111.004 64.3695 109.686 63.7505 109.686 62.6271C109.686 61.5037 111.004 60.8962 113.205 60.8962ZM108.677 65.768V65.0688H117.733V65.768H108.677ZM109.778 67.3156V66.6507H116.564V68.8746H110.649V69.9521H116.874V70.6284H109.812V68.2441H115.727V67.3156H109.778ZM110.569 62.6271C110.569 63.3264 111.555 63.7161 113.205 63.7161C114.856 63.7161 115.842 63.3264 115.842 62.6271C115.842 61.9393 114.856 61.5381 113.205 61.5381C111.555 61.5381 110.569 61.9393 110.569 62.6271ZM128.071 60.7127H128.931V63.1315H130.421V63.8651H128.931V66.5819H128.071V60.7127ZM121.594 65.94V61.263H122.443V62.8334H125.366V61.263H126.214V65.94H121.594ZM122.443 65.2293H125.366V63.5212H122.443V65.2293ZM122.695 70.6055V67.1436H129.011V67.8429H123.555V69.8948H129.206V70.6055H122.695ZM135.599 60.8962C137.8 60.8962 139.118 61.5037 139.118 62.6271C139.118 63.7505 137.8 64.3695 135.599 64.3695C133.398 64.3695 132.08 63.7505 132.08 62.6271C132.08 61.5037 133.398 60.8962 135.599 60.8962ZM131.071 65.768V65.0688H140.127V65.768H131.071ZM132.171 67.3156V66.6507H138.958V68.8746H133.043V69.9521H139.267V70.6284H132.206V68.2441H138.121V67.3156H132.171ZM132.962 62.6271C132.962 63.3264 133.948 63.7161 135.599 63.7161C137.25 63.7161 138.235 63.3264 138.235 62.6271C138.235 61.9393 137.25 61.5381 135.599 61.5381C133.948 61.5381 132.962 61.9393 132.962 62.6271ZM147.633 61.0796H148.527V61.6527C148.527 63.0742 150.384 64.3007 152.15 64.5644L151.794 65.2522C150.27 64.9885 148.734 64.1173 148.092 62.8908C147.461 64.1402 145.914 64.9885 144.366 65.2522L144.011 64.5644C145.799 64.3007 147.633 63.1086 147.633 61.6527V61.0796ZM143.541 67.0978V66.387H152.608V67.0978H148.482V70.7431H147.633V67.0978H143.541ZM158.544 66.9029H159.37V67.4531C159.37 68.3587 159.851 69.3102 160.791 69.8604C161.765 69.2528 162.258 68.2326 162.258 67.4531V66.9029H163.095V67.4531C163.095 68.4963 163.863 69.528 165.124 69.9636L164.7 70.6055C163.714 70.2501 163.015 69.5394 162.66 68.7026C162.362 69.5165 161.754 70.296 160.825 70.6972C159.863 70.3189 159.244 69.5853 158.946 68.737C158.59 69.5394 157.902 70.2387 156.951 70.6055L156.515 69.9636C157.776 69.505 158.544 68.416 158.544 67.4531V66.9029ZM156.252 63.6473C156.252 62.2603 157.341 61.3088 158.854 61.3088C160.367 61.3088 161.456 62.2603 161.456 63.6473C161.456 65.0229 160.367 65.9629 158.854 65.9629C157.341 65.9629 156.252 65.0229 156.252 63.6473ZM157.088 63.6473C157.088 64.5988 157.834 65.2522 158.854 65.2522C159.885 65.2522 160.619 64.5988 160.619 63.6473C160.619 62.6959 159.885 62.031 158.854 62.031C157.834 62.031 157.088 62.6959 157.088 63.6473ZM163.359 66.4558V60.7242H164.23V66.4558H163.359ZM167.173 61.0796H168.021V63.762H173.97V64.4612H167.173V61.0796ZM165.935 66.5475V65.8368H175.025V66.5475H165.935ZM167.115 70.5023V67.5678H167.964V69.7916H174.028V70.5023H167.115ZM178.714 61.7444H184.32V62.4666H181.935V63.8193C181.935 65.5273 183.196 67.2468 184.64 67.8773L184.148 68.5651C183.001 68.0263 181.981 66.857 181.511 65.47C181.053 66.9487 180.044 68.2326 178.897 68.8058L178.404 68.1295C179.814 67.4417 181.075 65.5502 181.075 63.8193V62.4666H178.714V61.7444ZM185.718 70.7431V60.7127H186.578V70.7431H185.718ZM197.764 60.7242H198.624V63.7734H200.125V64.4841H198.624V67.4302H197.764V60.7242ZM190.829 66.4329C191.631 66.4329 192.571 66.4329 193.545 66.3985V65.6419C192.388 65.5502 191.643 65.0115 191.643 64.1746C191.643 63.2576 192.56 62.6959 193.958 62.6959C195.368 62.6959 196.285 63.2576 196.285 64.1746C196.285 65 195.551 65.5388 194.394 65.6419V66.3641C195.334 66.3183 196.274 66.238 197.156 66.1119L197.225 66.7309C195.07 67.1207 192.686 67.1322 190.943 67.1322L190.829 66.4329ZM191.081 62.2947V61.6413H193.545V60.6325H194.394V61.6413H196.847V62.2947H191.081ZM192.055 68.6338V67.946H198.624V70.7431H197.764V68.6338H192.055ZM192.456 64.1746C192.456 64.7019 193.041 65.0688 193.958 65.0688C194.887 65.0688 195.471 64.7019 195.471 64.1746C195.471 63.6359 194.887 63.292 193.958 63.292C193.041 63.292 192.456 63.6359 192.456 64.1746ZM208.135 60.7242H209.006V68.0492H208.135V60.7242ZM201.027 63.8881C201.027 62.4322 202.151 61.4235 203.629 61.4235C205.12 61.4235 206.232 62.4322 206.232 63.8881C206.232 65.321 205.12 66.3412 203.629 66.3412C202.151 66.3412 201.027 65.321 201.027 63.8881ZM201.864 63.8881C201.864 64.8739 202.632 65.5846 203.629 65.5846C204.638 65.5846 205.406 64.8739 205.406 63.8881C205.406 62.8793 204.638 62.1686 203.629 62.1686C202.632 62.1686 201.864 62.8793 201.864 63.8881ZM202.598 70.5138V67.3041H203.446V69.8031H209.315V70.5138H202.598ZM210.699 62.4552H212.774V60.9993H213.622V62.4552H215.685V63.1544H210.699V62.4552ZM211.054 66.1234C211.054 64.7937 211.948 63.8537 213.198 63.8537C214.447 63.8537 215.353 64.7937 215.353 66.1234C215.353 67.476 214.447 68.4046 213.198 68.4046C211.948 68.4046 211.054 67.476 211.054 66.1234ZM211.822 66.1234C211.822 67.029 212.395 67.6709 213.198 67.6709C214 67.6709 214.585 67.029 214.585 66.1234C214.585 65.2293 214 64.5759 213.198 64.5759C212.395 64.5759 211.822 65.2293 211.822 66.1234ZM216.213 70.2387V60.9535H217.026V64.9541H218.368V60.7127H219.182V70.7431H218.368V65.6649H217.026V70.2387H216.213ZM24.1958 85.7255H28.2997V83.5361H25.2848V78.4235H26.1331V80.2347H31.3374V78.4235H32.1857V83.5361H29.1479V85.7255H33.2862V86.4477H24.1958V85.7255ZM26.1331 82.8368H31.3374V80.9454H26.1331V82.8368ZM38.0628 81.3237H39.7593V77.942H40.5618V87.2272H39.7593V82.0458H38.0628V81.3237ZM34.0048 84.9231C35.3689 84.1207 36.2287 82.321 36.2287 80.6015V78.6757H37.054V80.5786C37.054 82.1719 37.845 83.8914 39.1632 84.6824L38.6589 85.3473C37.696 84.7741 37.0082 83.6851 36.6528 82.47C36.286 83.7997 35.5409 84.9575 34.5436 85.5651L34.0048 84.9231ZM41.7998 87.7431V77.7127H42.6251V87.7431H41.7998ZM44.043 85.7255H46.3013V82.9858C45.453 82.5502 44.9372 81.828 44.9372 80.9224C44.9372 79.3635 46.4618 78.3547 48.571 78.3547C50.7032 78.3547 52.2048 79.3635 52.2048 80.9224C52.2048 81.8166 51.7005 82.5273 50.8751 82.9744V85.7255H53.1334V86.4363H44.043V85.7255ZM45.774 80.9224C45.774 82.0573 46.9432 82.8024 48.571 82.8024C50.1988 82.8024 51.3795 82.0573 51.3795 80.9224C51.3795 79.7876 50.1988 79.0425 48.571 79.0425C46.9432 79.0425 45.774 79.7876 45.774 80.9224ZM47.1496 85.7255H50.0154V83.3068C49.5798 83.4214 49.0983 83.4787 48.571 83.4787C48.0552 83.4787 47.5852 83.4214 47.1496 83.3068V85.7255Z" fill="#616161"/>
<path d="M23.7373 113.431C23.7373 111.391 25.3904 109.738 27.4296 109.738H223.836C225.875 109.738 227.528 111.391 227.528 113.431V141.878C227.528 143.917 225.875 145.57 223.836 145.57H27.4296C25.3904 145.57 23.7373 143.917 23.7373 141.878V113.431Z" fill="#FF8120"/>
<path d="M104.523 128.502H113.739V129.511H109.738V132.583H108.512V129.511H104.523V128.502ZM105.038 126.909C107.056 126.656 108.386 125.613 108.5 124.57H105.382V123.584H108.512V122.392H109.738V123.584H112.879V124.57H109.761C109.876 125.59 111.206 126.656 113.2 126.909L112.765 127.883C111.091 127.677 109.784 126.92 109.131 125.923C108.477 126.931 107.159 127.665 105.474 127.883L105.038 126.909ZM121.129 122.369H122.367V126.37H123.88V127.39H122.367V132.56H121.129V122.369ZM114.412 129.786C116.876 128.536 118.206 126.782 118.447 124.444H114.939V123.447H119.696C119.696 126.439 118.458 129.052 115.111 130.726L114.412 129.786ZM126.928 127.126H136.144V128.135H126.928V127.126ZM127.994 130.714C127.994 129.522 129.312 128.857 131.513 128.857C133.691 128.857 135.021 129.522 135.021 130.714C135.021 131.895 133.691 132.571 131.513 132.571C129.312 132.571 127.994 131.895 127.994 130.714ZM128.062 126.301V122.713H135.021V123.71H129.289V125.327H135.078V126.301H128.062ZM129.232 130.714C129.232 131.322 130.046 131.62 131.513 131.62C132.969 131.62 133.771 131.322 133.771 130.714C133.771 130.118 132.969 129.797 131.513 129.797C130.046 129.797 129.232 130.118 129.232 130.714ZM136.84 127.906H140.829V127.023H138.009V124.364H143.706V123.55H137.998V122.61H144.921V125.235H139.224V126.083H145.128V127.023H142.067V127.906H146.068V128.903H136.84V127.906ZM137.86 130.542V129.557H144.979V132.514H143.752V130.542H137.86Z" fill="white"/>
<path d="M117.717 163.296H118.955V167.251H120.457V168.271H118.955V173.487H117.717V163.296ZM111.389 170.965V164.282H112.616V169.945C113.969 169.922 115.413 169.807 116.926 169.497L117.064 170.518C115.356 170.862 113.751 170.965 112.238 170.965H111.389ZM120.946 168.007H130.151V168.982H126.162V169.887C127.973 170.002 129.051 170.632 129.051 171.687C129.051 172.833 127.732 173.487 125.543 173.487C123.342 173.487 122.024 172.833 122.024 171.687C122.024 170.632 123.101 170.002 124.924 169.887V168.982H120.946V168.007ZM121.393 166.54C123.262 166.368 124.488 165.6 124.683 164.74H121.783V163.766H129.326V164.74H126.426C126.62 165.6 127.836 166.368 129.716 166.54L129.28 167.514C127.457 167.319 126.093 166.597 125.554 165.554C125.004 166.586 123.651 167.319 121.829 167.514L121.393 166.54ZM123.262 171.687C123.262 172.26 124.064 172.558 125.543 172.558C126.999 172.558 127.801 172.26 127.801 171.687C127.801 171.091 126.999 170.804 125.543 170.804C124.064 170.804 123.262 171.091 123.262 171.687ZM138.401 163.307H139.582V173.498H138.401V163.307ZM130.973 167.709C130.973 165.462 131.833 164.075 133.151 164.075C134.378 164.075 135.203 165.233 135.329 167.147H136.349V163.502H137.507V173.017H136.349V168.145H135.34C135.237 170.139 134.4 171.354 133.151 171.354C131.833 171.354 130.973 169.967 130.973 167.709ZM132.096 167.709C132.096 169.314 132.486 170.197 133.151 170.197C133.839 170.197 134.228 169.314 134.228 167.709C134.228 166.116 133.839 165.245 133.151 165.245C132.486 165.245 132.096 166.116 132.096 167.709Z" fill="#999999"/>
</g>
</g>
<defs>
<filter id="filter0_dd_1099_78729" x="0.810471" y="0.86422" width="249.644" height="224.594" filterUnits="userSpaceOnUse" color-interpolation-filters="sRGB">
<feFlood flood-opacity="0" result="BackgroundImageFix"/>
<feColorMatrix in="SourceAlpha" type="matrix" values="0 0 0 0 0 0 0 0 0 0 0 0 0 0 0 0 0 0 127 0" result="hardAlpha"/>
<feOffset/>
<feGaussianBlur stdDeviation="2.54738"/>
<feComposite in2="hardAlpha" operator="out"/>
<feColorMatrix type="matrix" values="0 0 0 0 0 0 0 0 0 0 0 0 0 0 0 0 0 0 0.12 0"/>
<feBlend mode="normal" in2="BackgroundImageFix" result="effect1_dropShadow_1099_78729"/>
<feColorMatrix in="SourceAlpha" type="matrix" values="0 0 0 0 0 0 0 0 0 0 0 0 0 0 0 0 0 0 127 0" result="hardAlpha"/>
<feOffset dy="5.09476"/>
<feGaussianBlur stdDeviation="5.09476"/>
<feComposite in2="hardAlpha" operator="out"/>
<feColorMatrix type="matrix" values="0 0 0 0 0 0 0 0 0 0 0 0 0 0 0 0 0 0 0.12 0"/>
<feBlend mode="normal" in2="effect1_dropShadow_1099_78729" result="effect2_dropShadow_1099_78729"/>
<feBlend mode="normal" in="SourceGraphic" in2="effect2_dropShadow_1099_78729" result="shape"/>
</filter>
<clipPath id="clip0_1099_78729">
<path d="M11 27.959C11 15.8087 20.8497 5.95898 33 5.95898H218.264C230.415 5.95898 240.264 15.8087 240.264 27.959V210.174H11V27.959Z" fill="white"/>
</clipPath>
</defs>
</svg>
