<svg width="151" height="56" viewBox="0 0 151 56" fill="none" xmlns="http://www.w3.org/2000/svg">
<mask id="path-1-inside-1_890_34784" fill="white">
<path d="M0 8C0 3.58172 3.58172 0 8 0H143C147.418 0 151 3.58172 151 8V48C151 52.4183 147.418 56 143 56H8C3.58172 56 0 52.4183 0 48V8Z"/>
</mask>
<path d="M0 8C0 3.58172 3.58172 0 8 0H143C147.418 0 151 3.58172 151 8V48C151 52.4183 147.418 56 143 56H8C3.58172 56 0 52.4183 0 48V8Z" fill="white"/>
<path d="M8 1H143V-1H8V1ZM150 8V48H152V8H150ZM143 55H8V57H143V55ZM1 48V8H-1V48H1ZM8 55C4.13401 55 1 51.866 1 48H-1C-1 52.9706 3.02944 57 8 57V55ZM150 48C150 51.866 146.866 55 143 55V57C147.971 57 152 52.9706 152 48H150ZM143 1C146.866 1 150 4.13401 150 8H152C152 3.02944 147.971 -1 143 -1V1ZM8 -1C3.02944 -1 -1 3.02944 -1 8H1C1 4.13401 4.13401 1 8 1V-1Z" fill="#E0E0E0" mask="url(#path-1-inside-1_890_34784)"/>
<path fill-rule="evenodd" clip-rule="evenodd" d="M40.7071 21.2929C41.0976 21.6834 41.0976 22.3166 40.7071 22.7071L29.7071 33.7071C29.3166 34.0976 28.6834 34.0976 28.2929 33.7071L23.2929 28.7071C22.9024 28.3166 22.9024 27.6834 23.2929 27.2929C23.6834 26.9024 24.3166 26.9024 24.7071 27.2929L29 31.5858L39.2929 21.2929C39.6834 20.9024 40.3166 20.9024 40.7071 21.2929Z" fill="#999999"/>
<path d="M56.2038 21.504V33.24H62.9358V34.5H54.9078V21.504H56.2038ZM68.1723 33.33C69.7923 33.33 71.2503 32.016 71.2683 30C71.2503 28.002 69.7923 26.67 68.1723 26.67C66.1743 26.67 65.0943 28.11 65.0943 30C65.0943 31.89 66.1743 33.33 68.1723 33.33ZM63.7983 30C63.7983 27.498 65.3643 25.392 68.1543 25.392C69.2163 25.392 70.4043 25.95 71.2323 27.282V25.338H72.5283V34.5H71.2323V32.7C70.3683 34.104 69.2343 34.626 68.1543 34.626C65.3643 34.626 63.7983 32.484 63.7983 30ZM79.2285 33.366C81.2625 33.366 82.3605 31.908 82.3605 29.982C82.3605 28.074 81.2625 26.598 79.2285 26.598C77.5545 26.598 76.1325 28.074 76.1325 29.982C76.1325 31.908 77.5545 33.366 79.2285 33.366ZM74.8365 34.5V21.144H76.1325V27.264C76.9785 25.788 78.2385 25.338 79.2645 25.338C82.0905 25.338 83.6565 27.48 83.6565 29.982C83.6565 32.502 82.0725 34.644 79.2465 34.644C78.2385 34.644 76.9785 34.212 76.1325 32.7V34.5H74.8365ZM92.1587 29.28C92.0147 27.984 91.3847 26.598 89.4407 26.598C87.7307 26.598 86.6327 27.516 86.3987 29.298L92.1587 29.28ZM85.0667 29.928C85.0667 27.408 86.5787 25.302 89.3867 25.302C92.3027 25.302 93.0407 27.57 93.1307 27.786C93.6707 29.262 93.4547 30.558 93.4547 30.558H86.3987C86.6327 32.25 87.7307 33.258 89.4047 33.258C91.4747 33.258 91.9787 32.124 92.1047 31.944L93.2207 32.538C93.2207 32.538 92.4647 34.554 89.3867 34.554C86.5787 34.554 85.0667 32.43 85.0667 29.928ZM95.1166 21.144H96.4126V34.5H95.1166V21.144Z" fill="#1A1A1A"/>
<path fill-rule="evenodd" clip-rule="evenodd" d="M115.47 21.4697C115.763 21.1768 116.237 21.1768 116.53 21.4697L122.53 27.4697C122.823 27.7626 122.823 28.2374 122.53 28.5303L116.53 34.5303C116.237 34.8232 115.763 34.8232 115.47 34.5303C115.177 34.2374 115.177 33.7626 115.47 33.4697L120.939 28L115.47 22.5303C115.177 22.2374 115.177 21.7626 115.47 21.4697Z" fill="#999999"/>
</svg>
