<svg width="285" height="54" viewBox="0 0 285 54" fill="none" xmlns="http://www.w3.org/2000/svg">
<rect width="284.245" height="53.3434" fill="white"/>
<path d="M26.7301 20.088C29.0658 20.088 30.7518 22.2306 30.7518 25.6025C30.7518 28.9921 29.0658 31.1522 26.7301 31.1522C24.3943 31.1522 22.6907 28.9921 22.6907 25.6025C22.6907 22.2306 24.3943 20.088 26.7301 20.088ZM24.5172 25.6025C24.5172 28.0261 25.4129 29.4311 26.7301 29.4311C28.0472 29.4311 28.9429 28.0261 28.9429 25.6025C28.9429 23.2141 28.0472 21.8091 26.7301 21.8091C25.4129 21.8091 24.5172 23.2141 24.5172 25.6025ZM32.8066 34.5769V18.964H34.7033V25.0054H37.0742V26.5685H34.7033V34.5769H32.8066ZM39.3687 20.3514H50.3276V21.774C50.3276 23.6707 50.3451 25.8308 49.6602 29.1501L47.7986 28.9394C48.0621 27.6749 48.2377 26.5685 48.3255 25.5674L39.1755 26.0592L38.9297 24.4434L48.4309 24.1273C48.466 23.3019 48.466 22.5643 48.466 21.8793H39.3687V20.3514ZM37.7354 32.6274V31.0995H42.9514V27.2358H44.8306V31.0995H51.8379V32.6274H37.7354ZM63.897 18.964H65.7938V34.612H63.897V18.964ZM53.8866 30.8185V20.3865H61.3505V21.932H55.7657V29.2379C58.6284 29.2204 60.4548 29.1501 62.5272 28.7462L62.7028 30.3268C60.4548 30.7483 58.4703 30.8185 55.2037 30.8185H53.8866ZM79.1701 18.9816H81.0668V30.4146H79.1701V24.6893H76.3776C76.0088 26.5509 74.4107 27.8154 72.391 27.8154C70.0728 27.8154 68.3166 26.1645 68.3166 23.8639C68.3166 21.5632 70.0728 19.9299 72.391 19.9299C74.4458 19.9299 76.0791 21.2295 76.4128 23.1614H79.1701V18.9816ZM70.1079 23.8639C70.1079 25.2689 71.0914 26.147 72.391 26.147C73.6731 26.147 74.6565 25.2689 74.6565 23.8639C74.6565 22.4765 73.6731 21.5808 72.391 21.5808C71.0914 21.5808 70.1079 22.4765 70.1079 23.8639ZM70.8982 34.2783V29.2731H72.7949V32.7504H81.4707V34.2783H70.8982ZM87.8413 20.3163H95.1296V21.8618H89.7205V24.6717H94.8662V26.147H89.7205V29.4135C92.1616 29.396 94.0056 29.3082 96.1834 28.9745L96.359 30.4848C93.9705 30.8712 91.8806 30.9415 89.0882 30.9415H87.8413V20.3163ZM97.4303 34.5769V18.964H99.327V25.0405H101.698V26.6036H99.327V34.5769H97.4303ZM113.336 18.9464H115.232V34.612H113.336V18.9464ZM102.851 25.6025C102.851 22.2306 104.537 20.088 106.89 20.088C109.244 20.088 110.93 22.2306 110.93 25.6025C110.93 28.9921 109.244 31.1522 106.89 31.1522C104.537 31.1522 102.851 28.9921 102.851 25.6025ZM104.677 25.6025C104.677 28.0261 105.573 29.4311 106.89 29.4311C108.207 29.4311 109.121 28.0261 109.121 25.6025C109.121 23.2141 108.207 21.8091 106.89 21.8091C105.573 21.8091 104.677 23.2141 104.677 25.6025ZM119.336 19.3152H129.978V20.6324H121.215V21.5808H129.61V22.8453H121.215V23.8287H130.101V25.1459H119.336V19.3152ZM117.579 27.4641V26.0592H131.629V27.4641H117.579ZM119.195 29.7297V28.3949H129.891V32.0128H121.092V33.1016H130.347V34.4539H119.23V30.7307H128.047V29.7297H119.195Z" fill="#616161"/>
<path fill-rule="evenodd" clip-rule="evenodd" d="M241.952 22.4687C242.274 22.1472 242.795 22.1472 243.116 22.4687L249.12 28.4724L255.124 22.4687C255.445 22.1472 255.966 22.1472 256.288 22.4687C256.609 22.7901 256.609 23.3114 256.288 23.6329L249.702 30.2187C249.381 30.5402 248.859 30.5402 248.538 30.2187L241.952 23.6329C241.631 23.3114 241.631 22.7901 241.952 22.4687Z" fill="#999999"/>
</svg>
