<svg width="200" height="53" viewBox="0 0 200 53" fill="none" xmlns="http://www.w3.org/2000/svg">
<path d="M8 1H192C196.142 1 199.5 4.35787 199.5 8.5V44.5C199.5 48.6421 196.142 52 192 52H8C3.85787 52 0.5 48.6421 0.5 44.5V8.5C0.5 4.35786 3.85786 1 8 1Z" fill="white"/>
<path d="M8 1H192C196.142 1 199.5 4.35787 199.5 8.5V44.5C199.5 48.6421 196.142 52 192 52H8C3.85787 52 0.5 48.6421 0.5 44.5V8.5C0.5 4.35786 3.85786 1 8 1Z" stroke="#E0E0E0"/>
<path fill-rule="evenodd" clip-rule="evenodd" d="M32.7071 19.7929C33.0976 20.1834 33.0976 20.8166 32.7071 21.2071L21.7071 32.2071C21.3166 32.5976 20.6834 32.5976 20.2929 32.2071L15.2929 27.2071C14.9024 26.8166 14.9024 26.1834 15.2929 25.7929C15.6834 25.4024 16.3166 25.4024 16.7071 25.7929L21 30.0858L31.2929 19.7929C31.6834 19.4024 32.3166 19.4024 32.7071 19.7929Z" fill="#BDBDBD"/>
<path d="M46.464 20.948V31.38H52.448V32.5H45.312V20.948H46.464ZM57.086 31.46C58.526 31.46 59.822 30.292 59.838 28.5C59.822 26.724 58.526 25.54 57.086 25.54C55.31 25.54 54.35 26.82 54.35 28.5C54.35 30.18 55.31 31.46 57.086 31.46ZM53.198 28.5C53.198 26.276 54.59 24.404 57.07 24.404C58.014 24.404 59.07 24.9 59.806 26.084V24.356H60.958V32.5H59.806V30.9C59.038 32.148 58.03 32.612 57.07 32.612C54.59 32.612 53.198 30.708 53.198 28.5ZM66.897 31.492C68.705 31.492 69.681 30.196 69.681 28.484C69.681 26.788 68.705 25.476 66.897 25.476C65.409 25.476 64.145 26.788 64.145 28.484C64.145 30.196 65.409 31.492 66.897 31.492ZM62.993 32.5V20.628H64.145V26.068C64.897 24.756 66.017 24.356 66.929 24.356C69.441 24.356 70.833 26.26 70.833 28.484C70.833 30.724 69.425 32.628 66.913 32.628C66.017 32.628 64.897 32.244 64.145 30.9V32.5H62.993ZM78.3739 27.86C78.2459 26.708 77.6859 25.476 75.9579 25.476C74.4379 25.476 73.4619 26.292 73.2539 27.876L78.3739 27.86ZM72.0699 28.436C72.0699 26.196 73.4139 24.324 75.9099 24.324C78.5019 24.324 79.1579 26.34 79.2379 26.532C79.7179 27.844 79.5259 28.996 79.5259 28.996H73.2539C73.4619 30.5 74.4379 31.396 75.9259 31.396C77.7659 31.396 78.2139 30.388 78.3259 30.228L79.3179 30.756C79.3179 30.756 78.6459 32.548 75.9099 32.548C73.4139 32.548 72.0699 30.66 72.0699 28.436ZM80.9865 20.628H82.1385V32.5H80.9865V20.628Z" fill="#333333"/>
</svg>
