<svg width="460" height="169" viewBox="0 0 460 169" fill="none" xmlns="http://www.w3.org/2000/svg">
<mask id="path-1-inside-1_1101_63579" fill="white">
<path d="M45.5352 9.78568C45.5352 4.54785 49.7812 0.301758 55.0191 0.301758H415.408C420.646 0.301758 424.892 4.54785 424.892 9.78567V121.512C424.892 126.75 420.646 130.996 415.408 130.996H55.0191C49.7813 130.996 45.5352 126.75 45.5352 121.512V9.78568Z"/>
</mask>
<path d="M45.5352 9.78568C45.5352 4.54785 49.7812 0.301758 55.0191 0.301758H415.408C420.646 0.301758 424.892 4.54785 424.892 9.78567V121.512C424.892 126.75 420.646 130.996 415.408 130.996H55.0191C49.7813 130.996 45.5352 126.75 45.5352 121.512V9.78568Z" fill="white"/>
<path d="M55.0191 0.301758V1.48725H415.408V0.301758V-0.883732H55.0191V0.301758ZM424.892 9.78567H423.706V121.512H424.892H426.077V9.78567H424.892ZM415.408 130.996V129.81H55.0191V130.996V132.181H415.408V130.996ZM45.5352 121.512H46.7206V9.78568H45.5352H44.3497V121.512H45.5352ZM55.0191 130.996V129.81C50.436 129.81 46.7206 126.095 46.7206 121.512H45.5352H44.3497C44.3497 127.404 49.1265 132.181 55.0191 132.181V130.996ZM424.892 121.512H423.706C423.706 126.095 419.991 129.81 415.408 129.81V130.996V132.181C421.3 132.181 426.077 127.404 426.077 121.512H424.892ZM415.408 0.301758V1.48725C419.991 1.48725 423.706 5.20258 423.706 9.78567H424.892H426.077C426.077 3.89312 421.3 -0.883732 415.408 -0.883732V0.301758ZM55.0191 0.301758V-0.883732C49.1265 -0.883732 44.3497 3.89313 44.3497 9.78568H45.5352H46.7206C46.7206 5.20258 50.436 1.48725 55.0191 1.48725V0.301758Z" fill="#E0E0E0" mask="url(#path-1-inside-1_1101_63579)"/>
<path d="M65.8694 34.3513C67.9558 34.3513 69.1318 32.796 69.1318 30.7664C69.1318 28.7748 67.9558 27.2194 65.8694 27.2194C64.1243 27.2194 62.6259 28.7748 62.6259 30.7664C62.6259 32.796 64.1243 34.3513 65.8694 34.3513ZM61.2412 39.8899V25.8727H62.6069V27.9212C63.2328 26.5556 64.7123 25.8917 65.8883 25.8917C68.8473 25.8917 70.4975 28.1489 70.4975 30.7664C70.4975 33.4219 68.8473 35.6791 65.8883 35.6791C64.6744 35.6791 63.2328 34.8635 62.6069 33.6306V39.8899H61.2412ZM72.1711 21.4532H73.5368V35.5273H72.1711V21.4532ZM79.8206 34.2944C81.5277 34.2944 83.0641 32.9098 83.0831 30.7854C83.0641 28.68 81.5277 27.2763 79.8206 27.2763C77.7152 27.2763 76.5771 28.7938 76.5771 30.7854C76.5771 32.777 77.7152 34.2944 79.8206 34.2944ZM75.2115 30.7854C75.2115 28.1489 76.8617 25.9296 79.8017 25.9296C80.9208 25.9296 82.1727 26.5176 83.0452 27.9212V25.8727H84.4109V35.5273H83.0452V33.6306C82.1347 35.1101 80.9397 35.6601 79.8017 35.6601C76.8617 35.6601 75.2115 33.4029 75.2115 30.7854ZM90.8824 34.2565C91.8688 34.2565 92.7792 33.8771 93.4241 33.2322L94.4484 34.1427C93.5379 35.0531 92.324 35.6222 90.9583 35.6222C87.8476 35.6222 86.0456 33.3271 86.0456 30.5388C86.0456 27.7695 87.8476 25.4744 90.9583 25.4744C92.324 25.4744 93.5379 26.0434 94.4484 26.9539L93.4241 27.8643C92.7792 27.2194 91.8688 26.8401 90.8824 26.8401C88.6442 26.8401 87.4113 28.4903 87.4113 30.5388C87.4113 32.6063 88.6442 34.2565 90.8824 34.2565ZM102.908 30.0267C102.757 28.661 102.093 27.2005 100.044 27.2005C98.2424 27.2005 97.0854 28.1678 96.8388 30.0456L102.908 30.0267ZM95.4352 30.7095C95.4352 28.054 97.0285 25.8348 99.9874 25.8348C103.06 25.8348 103.838 28.2247 103.933 28.4523C104.502 30.0077 104.274 31.3734 104.274 31.3734H96.8388C97.0854 33.1564 98.2424 34.2186 100.006 34.2186C102.188 34.2186 102.719 33.0236 102.852 32.8339L104.028 33.4599C104.028 33.4599 103.231 35.5842 99.9874 35.5842C97.0285 35.5842 95.4352 33.346 95.4352 30.7095ZM112.91 30.1025C112.91 28.3006 111.886 27.2574 110.444 27.2574C108.946 27.2574 107.637 28.661 107.637 30.4819V35.5273H106.271V21.4532H107.637V27.6936C108.111 26.7073 109.192 25.9296 110.501 25.9296C112.455 25.9296 114.276 27.5988 114.276 30.0267V35.5273H112.91V30.1025ZM120.99 34.2755C123.114 34.2755 124.234 32.7201 124.234 30.7095C124.234 28.6989 123.114 27.1436 120.99 27.1436C118.847 27.1436 117.765 28.6989 117.765 30.7095C117.765 32.7201 118.847 34.2755 120.99 34.2755ZM116.4 30.7095C116.4 28.073 118.031 25.8158 120.99 25.8158C123.968 25.8158 125.599 28.073 125.599 30.7095C125.599 33.346 123.968 35.6032 120.99 35.6032C118.031 35.6032 116.4 33.346 116.4 30.7095ZM127.267 21.4532H128.632V35.5273H127.267V21.4532ZM134.916 35.6791C131.976 35.6791 130.307 33.4219 130.307 30.7664C130.307 28.1299 131.976 25.8537 134.916 25.8537C136.149 25.8537 137.439 26.4797 138.236 27.9212V21.4532H139.601V35.5273H138.236V33.6116C137.42 35.0531 136.149 35.6791 134.916 35.6791ZM131.673 30.7664C131.673 32.796 132.83 34.3134 134.973 34.3134C136.718 34.3134 138.236 32.796 138.236 30.7664C138.236 28.7558 136.718 27.2194 134.973 27.2194C132.83 27.2194 131.673 28.7558 131.673 30.7664ZM148.92 30.0267C148.769 28.661 148.105 27.2005 146.056 27.2005C144.254 27.2005 143.097 28.1678 142.851 30.0456L148.92 30.0267ZM141.447 30.7095C141.447 28.054 143.04 25.8348 145.999 25.8348C149.072 25.8348 149.85 28.2247 149.945 28.4523C150.514 30.0077 150.286 31.3734 150.286 31.3734H142.851C143.097 33.1564 144.254 34.2186 146.018 34.2186C148.2 34.2186 148.731 33.0236 148.863 32.8339L150.039 33.4599C150.039 33.4599 149.243 35.5842 145.999 35.5842C143.04 35.5842 141.447 33.346 141.447 30.7095ZM153.44 27.9023C153.99 26.6314 155.565 25.7779 156.873 25.7779V27.1815C155.109 27.1815 153.44 29.0214 153.44 30.5578V35.5273H152.074V25.8727H153.44V27.9023Z" fill="#BDBDBD"/>
<mask id="path-4-inside-2_1101_63579" fill="white">
<path d="M59.7617 85.6572H410.667V116.77H59.7617V85.6572Z"/>
</mask>
<path d="M59.7617 85.6572H410.667V116.77H59.7617V85.6572Z" fill="white"/>
<path d="M59.7617 85.6572V86.8427H410.667V85.6572V84.4717H59.7617V85.6572Z" fill="#EEEEEE" mask="url(#path-4-inside-2_1101_63579)"/>
<path d="M348.078 109.692C349.97 109.692 351.132 108.115 351.132 104.779C351.132 101.443 349.97 99.883 348.078 99.883C346.169 99.883 345.007 101.443 345.007 104.779C345.007 108.115 346.169 109.692 348.078 109.692ZM343.812 104.779C343.812 100.945 345.505 98.688 348.078 98.688C350.634 98.688 352.327 100.945 352.327 104.779C352.327 108.613 350.65 110.887 348.078 110.887C345.489 110.887 343.812 108.613 343.812 104.779ZM358.273 109.692C360.165 109.692 361.326 108.115 361.326 104.779C361.326 101.443 360.165 99.883 358.273 99.883C356.364 99.883 355.202 101.443 355.202 104.779C355.202 108.115 356.364 109.692 358.273 109.692ZM354.007 104.779C354.007 100.945 355.7 98.688 358.273 98.688C360.828 98.688 362.521 100.945 362.521 104.779C362.521 108.613 360.845 110.887 358.273 110.887C355.683 110.887 354.007 108.613 354.007 104.779ZM368.467 109.692C370.359 109.692 371.521 108.115 371.521 104.779C371.521 101.443 370.359 99.883 368.467 99.883C366.559 99.883 365.397 101.443 365.397 104.779C365.397 108.115 366.559 109.692 368.467 109.692ZM364.202 104.779C364.202 100.945 365.895 98.688 368.467 98.688C371.023 98.688 372.716 100.945 372.716 104.779C372.716 108.613 371.04 110.887 368.467 110.887C365.878 110.887 364.202 108.613 364.202 104.779ZM378.994 98.0905L375.525 111.567H374.33L377.816 98.0905H378.994ZM385.178 109.692C387.07 109.692 388.231 108.115 388.231 104.779C388.231 101.443 387.07 99.883 385.178 99.883C383.269 99.883 382.107 101.443 382.107 104.779C382.107 108.115 383.269 109.692 385.178 109.692ZM380.912 104.779C380.912 100.945 382.605 98.688 385.178 98.688C387.733 98.688 389.426 100.945 389.426 104.779C389.426 108.613 387.75 110.887 385.178 110.887C382.588 110.887 380.912 108.613 380.912 104.779ZM395.372 109.692C397.264 109.692 398.426 108.115 398.426 104.779C398.426 101.443 397.264 99.883 395.372 99.883C393.464 99.883 392.302 101.443 392.302 104.779C392.302 108.115 393.464 109.692 395.372 109.692ZM391.107 104.779C391.107 100.945 392.8 98.688 395.372 98.688C397.928 98.688 399.621 100.945 399.621 104.779C399.621 108.613 397.945 110.887 395.372 110.887C392.783 110.887 391.107 108.613 391.107 104.779ZM405.567 109.692C407.459 109.692 408.621 108.115 408.621 104.779C408.621 101.443 407.459 99.883 405.567 99.883C403.658 99.883 402.497 101.443 402.497 104.779C402.497 108.115 403.658 109.692 405.567 109.692ZM401.302 104.779C401.302 100.945 402.995 98.688 405.567 98.688C408.123 98.688 409.816 100.945 409.816 104.779C409.816 108.613 408.14 110.887 405.567 110.887C402.978 110.887 401.302 108.613 401.302 104.779Z" fill="#999999"/>
<path fill-rule="evenodd" clip-rule="evenodd" d="M70.4661 147.26C70.8133 147.608 70.8133 148.171 70.4661 148.518L56.8329 162.151C56.4857 162.498 55.9228 162.498 55.5755 162.151L49.0553 155.631C48.7081 155.284 48.7081 154.721 49.0553 154.373C49.4026 154.026 49.9655 154.026 50.3127 154.373L56.2042 160.265L69.2087 147.26C69.5559 146.913 70.1188 146.913 70.4661 147.26Z" fill="#999999"/>
<path d="M88.8194 148.222V160.205H87.6244V154.629H81.3176V160.205H80.1227V148.222H81.3176V153.467H87.6244V148.222H88.8194ZM97.2988 155.392C97.166 154.197 96.5851 152.919 94.7927 152.919C93.216 152.919 92.2035 153.765 91.9878 155.409L97.2988 155.392ZM90.7596 155.989C90.7596 153.666 92.1538 151.724 94.7429 151.724C97.4316 151.724 98.112 153.815 98.195 154.014C98.6929 155.375 98.4938 156.57 98.4938 156.57H91.9878C92.2035 158.13 93.216 159.06 94.7595 159.06C96.6681 159.06 97.1328 158.014 97.249 157.848L98.278 158.396C98.278 158.396 97.5809 160.255 94.7429 160.255C92.1538 160.255 90.7596 158.296 90.7596 155.989ZM99.9866 147.89H101.182V160.205H99.9866V147.89ZM107.413 159.176C109.239 159.176 110.268 157.815 110.268 156.039C110.268 154.297 109.239 152.936 107.413 152.936C105.887 152.936 104.575 154.297 104.575 156.039C104.575 157.815 105.887 159.176 107.413 159.176ZM103.364 164.022V151.757H104.559V153.55C105.106 152.355 106.401 151.774 107.43 151.774C110.019 151.774 111.463 153.749 111.463 156.039C111.463 158.363 110.019 160.338 107.43 160.338C106.368 160.338 105.106 159.624 104.559 158.545V164.022H103.364ZM128.03 155.027C128.03 153.683 127.216 152.919 126.021 152.919C124.909 152.919 123.764 153.965 123.764 155.027V160.205H122.569V155.027C122.569 153.965 121.889 152.919 120.594 152.919C119.416 152.919 118.321 153.965 118.321 155.16V160.205H117.126V151.757H118.321V153.218C118.852 152.305 119.632 151.757 120.644 151.757C121.872 151.757 122.686 152.288 123.283 153.45C123.897 152.587 124.744 151.757 126.071 151.757C127.797 151.757 129.225 153.151 129.225 154.894V160.205H128.03V155.027ZM137.464 155.392C137.331 154.197 136.751 152.919 134.958 152.919C133.381 152.919 132.369 153.765 132.153 155.409L137.464 155.392ZM130.925 155.989C130.925 153.666 132.319 151.724 134.908 151.724C137.597 151.724 138.277 153.815 138.36 154.014C138.858 155.375 138.659 156.57 138.659 156.57H132.153C132.369 158.13 133.381 159.06 134.925 159.06C136.833 159.06 137.298 158.014 137.414 157.848L138.443 158.396C138.443 158.396 137.746 160.255 134.908 160.255C132.319 160.255 130.925 158.296 130.925 155.989ZM141.048 157.915C141.38 158.678 142.16 159.126 143.173 159.076C144.633 159.043 145.214 157.234 143.72 156.753C143.173 156.587 142.177 156.321 141.364 155.79C140.102 154.944 140.119 153.699 140.501 152.936C141.015 151.923 142.326 151.625 143.09 151.691C143.803 151.774 144.799 152.023 145.43 152.869L144.467 153.566C144.119 153.085 143.554 152.936 142.99 152.869C142.476 152.819 141.795 153.002 141.546 153.467C141.33 153.915 141.347 154.363 142.027 154.811C142.675 155.243 143.505 155.442 144.085 155.641C146.874 156.537 145.978 160.188 143.206 160.255C141.812 160.321 140.484 159.591 139.969 158.379L141.048 157.915ZM147.921 157.915C148.253 158.678 149.033 159.126 150.045 159.076C151.506 159.043 152.087 157.234 150.593 156.753C150.045 156.587 149.049 156.321 148.236 155.79C146.975 154.944 146.991 153.699 147.373 152.936C147.888 151.923 149.199 151.625 149.962 151.691C150.676 151.774 151.672 152.023 152.302 152.869L151.34 153.566C150.991 153.085 150.427 152.936 149.863 152.869C149.348 152.819 148.668 153.002 148.419 153.467C148.203 153.915 148.22 154.363 148.9 154.811C149.547 155.243 150.377 155.442 150.958 155.641C153.746 156.537 152.85 160.188 150.078 160.255C148.684 160.321 147.357 159.591 146.842 158.379L147.921 157.915ZM158.088 159.126C159.582 159.126 160.926 157.915 160.943 156.056C160.926 154.214 159.582 152.985 158.088 152.985C156.246 152.985 155.25 154.313 155.25 156.056C155.25 157.799 156.246 159.126 158.088 159.126ZM154.055 156.056C154.055 153.749 155.499 151.807 158.071 151.807C159.051 151.807 160.146 152.322 160.91 153.55V151.757H162.104V160.205H160.91V158.545C160.113 159.84 159.067 160.321 158.071 160.321C155.499 160.321 154.055 158.346 154.055 156.056ZM167.894 159.159C169.471 159.159 170.716 157.782 170.716 156.056C170.716 154.363 169.454 152.985 167.894 152.985C166.168 152.985 165.056 154.197 165.056 156.056C165.056 157.948 166.168 159.159 167.894 159.159ZM163.861 156.056C163.861 153.55 165.504 151.824 167.878 151.824C169.139 151.824 170.218 152.488 170.716 153.566V151.757H171.911V159.79C171.878 162.479 170.317 164.006 167.629 164.006C166.284 164.006 165.106 163.309 164.243 162.014L165.255 161.367C165.869 162.329 166.666 162.811 167.629 162.811C169.687 162.811 170.699 161.815 170.716 159.774V158.512C170.135 159.558 168.956 160.321 167.878 160.321C165.504 160.321 163.861 158.579 163.861 156.056ZM179.866 155.392C179.733 154.197 179.153 152.919 177.36 152.919C175.783 152.919 174.771 153.765 174.555 155.409L179.866 155.392ZM173.327 155.989C173.327 153.666 174.721 151.724 177.31 151.724C179.999 151.724 180.68 153.815 180.762 154.014C181.26 155.375 181.061 156.57 181.061 156.57H174.555C174.771 158.13 175.783 159.06 177.327 159.06C179.236 159.06 179.7 158.014 179.816 157.848L180.845 158.396C180.845 158.396 180.148 160.255 177.31 160.255C174.721 160.255 173.327 158.296 173.327 155.989Z" fill="#616161"/>
<rect y="3.06152" width="16.558" height="16.558" rx="8.27899" fill="#333333"/>
<path d="M9.44413 7.32676V15.385L8.11949 15.3739V8.78386L6.67343 9.44618L6.17669 8.23193L8.11949 7.32676H9.44413Z" fill="white"/>
<path d="M43.875 7.66127C41.8428 7.66127 40.1954 9.30866 40.1954 11.3408C40.1954 13.373 41.8428 15.0204 43.875 15.0204C45.9072 15.0204 47.5546 13.373 47.5546 11.3408C47.5546 9.30866 45.9072 7.66127 43.875 7.66127ZM43.875 11.3408L43.875 10.6509L16.2784 10.6509L16.2784 11.3408L16.2784 12.0307L43.875 12.0307L43.875 11.3408Z" fill="#333333"/>
<rect y="145.185" width="16.558" height="16.558" rx="8.27899" fill="#333333"/>
<path d="M10.122 149.45V154.362H11.0713V155.665H10.122V157.508H8.80841V155.665H5.25396V154.362L8.8636 149.45H10.122ZM6.79937 154.362H8.80841V151.624L6.79937 154.362Z" fill="white"/>
<path d="M43.875 149.784C41.8428 149.784 40.1954 151.432 40.1954 153.464C40.1954 155.496 41.8428 157.143 43.875 157.143C45.9072 157.143 47.5546 155.496 47.5546 153.464C47.5546 151.432 45.9072 149.784 43.875 149.784ZM43.875 153.464L43.875 152.774L16.2784 152.774L16.2784 153.464L16.2784 154.154L43.875 154.154L43.875 153.464Z" fill="#333333"/>
<rect y="23.7588" width="16.558" height="16.558" rx="8.27899" fill="#333333"/>
<path d="M5.46369 34.7576C7.08638 33.2012 9.2058 31.9538 9.2058 30.6402C9.2058 29.6798 8.62075 29.2714 7.8922 29.2714C7.41754 29.2714 6.82145 29.448 6.45717 30.2428L5.25396 29.7019C5.88316 28.3 7.17469 27.9468 7.8922 27.9468C9.13957 27.9468 10.5304 28.9182 10.5304 30.6402C10.5304 32.307 8.90775 33.5985 7.49481 34.7576H10.6519V36.0822H5.46369V34.7576Z" fill="white"/>
<path d="M55.1934 28.3585C53.1612 28.3585 51.5138 30.0059 51.5138 32.0381C51.5138 34.0702 53.1612 35.7176 55.1934 35.7176C57.2255 35.7176 58.8729 34.0702 58.8729 32.0381C58.8729 30.0059 57.2255 28.3585 55.1934 28.3585ZM55.1934 32.0381V31.3482L16.5581 31.3482V32.0381V32.728H55.1934V32.0381Z" fill="#333333"/>
<rect x="442.926" y="96.8896" width="16.558" height="16.558" rx="8.27899" fill="#333333"/>
<path d="M452.485 105.04C453.191 105.449 453.743 106.133 453.743 106.939C453.743 108.286 452.639 109.279 450.95 109.279C449.273 109.279 448.18 108.286 448.18 106.84H449.504C449.504 107.436 449.924 107.999 450.95 107.999C451.988 107.999 452.463 107.436 452.463 106.84C452.463 106.233 452.087 105.637 450.973 105.637H450.41V104.455H450.995C451.911 104.455 452.341 103.915 452.341 103.374C452.341 102.855 451.933 102.369 451.028 102.369C450.112 102.369 449.747 102.855 449.747 103.385H448.423C448.423 102.016 449.482 101.089 451.028 101.089C452.551 101.089 453.611 102.016 453.611 103.285C453.611 104.025 453.136 104.643 452.485 105.04Z" fill="white"/>
<path d="M415.33 108.848C417.362 108.848 419.01 107.201 419.01 105.169C419.01 103.137 417.362 101.489 415.33 101.489C413.298 101.489 411.651 103.137 411.651 105.169C411.651 107.201 413.298 108.848 415.33 108.848ZM415.33 105.169L415.33 105.859L443.369 105.859L443.369 105.169L443.369 104.479L415.33 104.479L415.33 105.169Z" fill="#333333"/>
</svg>
