<svg width="269" height="165" viewBox="0 0 269 165" fill="none" xmlns="http://www.w3.org/2000/svg">
<g filter="url(#filter0_dd_1101_63613)">
<rect width="233.192" height="128.348" transform="translate(18 16)" fill="white"/>
<mask id="path-1-inside-1_1101_63613" fill="white">
<path d="M29.0391 33.0261C29.0391 29.7196 31.7196 27.0391 35.0261 27.0391H234.994C238.301 27.0391 240.981 29.7196 240.981 33.0261V103.374C240.981 106.681 238.301 109.361 234.994 109.361H35.0261C31.7196 109.361 29.0391 106.681 29.0391 103.374V33.0261Z"/>
</mask>
<path d="M29.0391 33.0261C29.0391 29.7196 31.7196 27.0391 35.0261 27.0391H234.994C238.301 27.0391 240.981 29.7196 240.981 33.0261V103.374C240.981 106.681 238.301 109.361 234.994 109.361H35.0261C31.7196 109.361 29.0391 106.681 29.0391 103.374V33.0261Z" fill="white"/>
<path d="M35.0261 27.0391V28.5358H234.994V27.0391V25.5423H35.0261V27.0391ZM240.981 33.0261H239.484V103.374H240.981H242.478V33.0261H240.981ZM234.994 109.361V107.864H35.0261V109.361V110.858H234.994V109.361ZM29.0391 103.374H30.5358V33.0261H29.0391H27.5423V103.374H29.0391ZM35.0261 109.361V107.864C32.5462 107.864 30.5358 105.854 30.5358 103.374H29.0391H27.5423C27.5423 107.507 30.8929 110.858 35.0261 110.858V109.361ZM240.981 103.374H239.484C239.484 105.854 237.474 107.864 234.994 107.864V109.361V110.858C239.127 110.858 242.478 107.507 242.478 103.374H240.981ZM234.994 27.0391V28.5358C237.474 28.5358 239.484 30.5462 239.484 33.0261H240.981H242.478C242.478 28.8929 239.127 25.5423 234.994 25.5423V27.0391ZM35.0261 27.0391V25.5423C30.8929 25.5423 27.5423 28.8929 27.5423 33.0261H29.0391H30.5358C30.5358 30.5462 32.5462 28.5358 35.0261 28.5358V27.0391Z" fill="#E53935" mask="url(#path-1-inside-1_1101_63613)"/>
<path d="M41.8752 48.2771C43.1924 48.2771 43.9348 47.2953 43.9348 46.014C43.9348 44.7567 43.1924 43.7749 41.8752 43.7749C40.7736 43.7749 39.8276 44.7567 39.8276 46.014C39.8276 47.2953 40.7736 48.2771 41.8752 48.2771ZM38.9535 51.7736V42.9247H39.8157V44.2179C40.2108 43.3558 41.1448 42.9367 41.8872 42.9367C43.7551 42.9367 44.7969 44.3616 44.7969 46.014C44.7969 47.6904 43.7551 49.1153 41.8872 49.1153C41.1208 49.1153 40.2108 48.6004 39.8157 47.8221V51.7736H38.9535ZM45.8534 40.1347H46.7156V49.0195H45.8534V40.1347ZM50.6825 48.2412C51.7601 48.2412 52.73 47.3671 52.742 46.026C52.73 44.6969 51.7601 43.8108 50.6825 43.8108C49.3533 43.8108 48.6349 44.7687 48.6349 46.026C48.6349 47.2833 49.3533 48.2412 50.6825 48.2412ZM47.7727 46.026C47.7727 44.3616 48.8145 42.9606 50.6705 42.9606C51.377 42.9606 52.1673 43.3318 52.7181 44.2179V42.9247H53.5802V49.0195H52.7181V47.8221C52.1433 48.7561 51.3889 49.1034 50.6705 49.1034C48.8145 49.1034 47.7727 47.6784 47.7727 46.026ZM57.6656 48.2173C58.2883 48.2173 58.863 47.9778 59.2702 47.5707L59.9168 48.1454C59.342 48.7202 58.5757 49.0794 57.7135 49.0794C55.7498 49.0794 54.6122 47.6305 54.6122 45.8703C54.6122 44.1221 55.7498 42.6732 57.7135 42.6732C58.5757 42.6732 59.342 43.0325 59.9168 43.6072L59.2702 44.182C58.863 43.7749 58.2883 43.5354 57.6656 43.5354C56.2527 43.5354 55.4744 44.5771 55.4744 45.8703C55.4744 47.1755 56.2527 48.2173 57.6656 48.2173ZM65.2575 45.547C65.1617 44.6849 64.7426 43.7629 63.4494 43.7629C62.3119 43.7629 61.5814 44.3736 61.4258 45.559L65.2575 45.547ZM60.5397 45.9781C60.5397 44.3017 61.5455 42.9007 63.4135 42.9007C65.3533 42.9007 65.8442 44.4095 65.9041 44.5532C66.2633 45.5351 66.1196 46.3972 66.1196 46.3972H61.4258C61.5814 47.5228 62.3119 48.1933 63.4255 48.1933C64.8025 48.1933 65.1378 47.4389 65.2216 47.3192L65.964 47.7144C65.964 47.7144 65.4611 49.0555 63.4135 49.0555C61.5455 49.0555 60.5397 47.6425 60.5397 45.9781ZM71.5713 45.5949C71.5713 44.4574 70.9247 43.7988 70.0147 43.7988C69.0687 43.7988 68.2425 44.6849 68.2425 45.8344V49.0195H67.3804V40.1347H68.2425V44.0742C68.5419 43.4516 69.2244 42.9606 70.0506 42.9606C71.284 42.9606 72.4335 44.0143 72.4335 45.547V49.0195H71.5713V45.5949ZM76.6721 48.2292C78.0132 48.2292 78.7197 47.2474 78.7197 45.9781C78.7197 44.7088 78.0132 43.727 76.6721 43.727C75.3191 43.727 74.6365 44.7088 74.6365 45.9781C74.6365 47.2474 75.3191 48.2292 76.6721 48.2292ZM73.7744 45.9781C73.7744 44.3137 74.8042 42.8888 76.6721 42.8888C78.5521 42.8888 79.5818 44.3137 79.5818 45.9781C79.5818 47.6425 78.5521 49.0674 76.6721 49.0674C74.8042 49.0674 73.7744 47.6425 73.7744 45.9781ZM80.6345 40.1347H81.4967V49.0195H80.6345V40.1347ZM85.4636 49.1153C83.6076 49.1153 82.5539 47.6904 82.5539 46.014C82.5539 44.3496 83.6076 42.9127 85.4636 42.9127C86.2419 42.9127 87.0561 43.3079 87.5591 44.2179V40.1347H88.4212V49.0195H87.5591V47.8101C87.0442 48.7202 86.2419 49.1153 85.4636 49.1153ZM83.416 46.014C83.416 47.2953 84.1464 48.2532 85.4995 48.2532C86.6011 48.2532 87.5591 47.2953 87.5591 46.014C87.5591 44.7448 86.6011 43.7749 85.4995 43.7749C84.1464 43.7749 83.416 44.7448 83.416 46.014ZM94.3041 45.547C94.2083 44.6849 93.7892 43.7629 92.496 43.7629C91.3585 43.7629 90.6281 44.3736 90.4724 45.559L94.3041 45.547ZM89.5863 45.9781C89.5863 44.3017 90.5922 42.9007 92.4601 42.9007C94.3999 42.9007 94.8909 44.4095 94.9507 44.5532C95.31 45.5351 95.1663 46.3972 95.1663 46.3972H90.4724C90.6281 47.5228 91.3585 48.1933 92.4721 48.1933C93.8491 48.1933 94.1844 47.4389 94.2682 47.3192L95.0106 47.7144C95.0106 47.7144 94.5077 49.0555 92.4601 49.0555C90.5922 49.0555 89.5863 47.6425 89.5863 45.9781ZM97.1574 44.2059C97.5047 43.4037 98.4985 42.8648 99.3248 42.8648V43.7509C98.2112 43.7509 97.1574 44.9124 97.1574 45.8823V49.0195H96.2953V42.9247H97.1574V44.2059Z" fill="#333333"/>
<mask id="path-4-inside-2_1101_63613" fill="white">
<path d="M38.0195 80.8906H232.001V100.381H38.0195V80.8906Z"/>
</mask>
<path d="M38.0195 80.8906H232.001V100.381H38.0195V80.8906Z" fill="white"/>
<path d="M38.0195 80.8906V81.639H232.001V80.8906V80.1422H38.0195V80.8906Z" fill="#EEEEEE" mask="url(#path-4-inside-2_1101_63613)"/>
<path d="M192.489 95.6998C193.683 95.6998 194.417 94.7045 194.417 92.5985C194.417 90.4926 193.683 89.5077 192.489 89.5077C191.284 89.5077 190.551 90.4926 190.551 92.5985C190.551 94.7045 191.284 95.6998 192.489 95.6998ZM189.796 92.5985C189.796 90.1783 190.865 88.7533 192.489 88.7533C194.103 88.7533 195.171 90.1783 195.171 92.5985C195.171 95.0188 194.113 96.4542 192.489 96.4542C190.855 96.4542 189.796 95.0188 189.796 92.5985ZM198.925 95.6998C200.119 95.6998 200.853 94.7045 200.853 92.5985C200.853 90.4926 200.119 89.5077 198.925 89.5077C197.72 89.5077 196.987 90.4926 196.987 92.5985C196.987 94.7045 197.72 95.6998 198.925 95.6998ZM196.232 92.5985C196.232 90.1783 197.301 88.7533 198.925 88.7533C200.538 88.7533 201.607 90.1783 201.607 92.5985C201.607 95.0188 200.549 96.4542 198.925 96.4542C197.29 96.4542 196.232 95.0188 196.232 92.5985ZM205.361 95.6998C206.555 95.6998 207.288 94.7045 207.288 92.5985C207.288 90.4926 206.555 89.5077 205.361 89.5077C204.156 89.5077 203.422 90.4926 203.422 92.5985C203.422 94.7045 204.156 95.6998 205.361 95.6998ZM202.668 92.5985C202.668 90.1783 203.737 88.7533 205.361 88.7533C206.974 88.7533 208.043 90.1783 208.043 92.5985C208.043 95.0188 206.985 96.4542 205.361 96.4542C203.726 96.4542 202.668 95.0188 202.668 92.5985ZM212.006 88.3762L209.816 96.8838H209.062L211.262 88.3762H212.006ZM215.91 95.6998C217.104 95.6998 217.837 94.7045 217.837 92.5985C217.837 90.4926 217.104 89.5077 215.91 89.5077C214.705 89.5077 213.971 90.4926 213.971 92.5985C213.971 94.7045 214.705 95.6998 215.91 95.6998ZM213.217 92.5985C213.217 90.1783 214.286 88.7533 215.91 88.7533C217.523 88.7533 218.592 90.1783 218.592 92.5985C218.592 95.0188 217.534 96.4542 215.91 96.4542C214.275 96.4542 213.217 95.0188 213.217 92.5985ZM222.345 95.6998C223.54 95.6998 224.273 94.7045 224.273 92.5985C224.273 90.4926 223.54 89.5077 222.345 89.5077C221.141 89.5077 220.407 90.4926 220.407 92.5985C220.407 94.7045 221.141 95.6998 222.345 95.6998ZM219.653 92.5985C219.653 90.1783 220.721 88.7533 222.345 88.7533C223.959 88.7533 225.028 90.1783 225.028 92.5985C225.028 95.0188 223.969 96.4542 222.345 96.4542C220.711 96.4542 219.653 95.0188 219.653 92.5985ZM228.781 95.6998C229.976 95.6998 230.709 94.7045 230.709 92.5985C230.709 90.4926 229.976 89.5077 228.781 89.5077C227.576 89.5077 226.843 90.4926 226.843 92.5985C226.843 94.7045 227.576 95.6998 228.781 95.6998ZM226.089 92.5985C226.089 90.1783 227.157 88.7533 228.781 88.7533C230.395 88.7533 231.463 90.1783 231.463 92.5985C231.463 95.0188 230.405 96.4542 228.781 96.4542C227.147 96.4542 226.089 95.0188 226.089 92.5985Z" fill="#999999"/>
<path fill-rule="evenodd" clip-rule="evenodd" d="M44.7784 119.629C44.9975 119.848 44.9975 120.204 44.7784 120.423L36.1719 129.029C35.9527 129.249 35.5974 129.249 35.3782 129.029L31.2621 124.913C31.0429 124.694 31.0429 124.339 31.2621 124.12C31.4812 123.9 31.8366 123.9 32.0558 124.12L35.7751 127.839L43.9846 119.629C44.2038 119.41 44.5592 119.41 44.7784 119.629Z" fill="#999999"/>
<path d="M55.6414 120.764V121.498H51.5029V124.065H55.1071V124.798H51.5029V127.596H55.6414V128.329H50.7485V120.764H55.6414ZM57.641 124.117C57.9449 123.415 58.8145 122.944 59.5374 122.944V123.719C58.563 123.719 57.641 124.735 57.641 125.584V128.329H56.8867V122.996H57.641V124.117ZM61.2838 124.117C61.5877 123.415 62.4573 122.944 63.1802 122.944V123.719C62.2059 123.719 61.2838 124.735 61.2838 125.584V128.329H60.5295V122.996H61.2838V124.117ZM66.1416 127.638C67.3151 127.638 67.9333 126.778 67.9333 125.668C67.9333 124.557 67.3151 123.698 66.1416 123.698C64.9577 123.698 64.3605 124.557 64.3605 125.668C64.3605 126.778 64.9577 127.638 66.1416 127.638ZM63.6061 125.668C63.6061 124.211 64.5072 122.965 66.1416 122.965C67.7866 122.965 68.6876 124.211 68.6876 125.668C68.6876 127.124 67.7866 128.371 66.1416 128.371C64.5072 128.371 63.6061 127.124 63.6061 125.668ZM70.3805 124.117C70.6843 123.415 71.554 122.944 72.2769 122.944V123.719C71.3025 123.719 70.3805 124.735 70.3805 125.584V128.329H69.6261V122.996H70.3805V124.117ZM82.5808 125.06C82.5808 124.211 82.0674 123.73 81.313 123.73C80.611 123.73 79.8881 124.39 79.8881 125.06V128.329H79.1337V125.06C79.1337 124.39 78.7041 123.73 77.8869 123.73C77.143 123.73 76.4515 124.39 76.4515 125.144V128.329H75.6971V122.996H76.4515V123.918C76.7868 123.342 77.2792 122.996 77.9183 122.996C78.6936 122.996 79.207 123.331 79.5842 124.065C79.9719 123.52 80.5062 122.996 81.3444 122.996C82.4341 122.996 83.3351 123.876 83.3351 124.976V128.329H82.5808V125.06ZM88.5366 125.291C88.4528 124.536 88.0861 123.73 86.9545 123.73C85.9592 123.73 85.3201 124.264 85.1839 125.301L88.5366 125.291ZM84.4085 125.668C84.4085 124.201 85.2886 122.975 86.9231 122.975C88.6204 122.975 89.05 124.295 89.1024 124.421C89.4167 125.28 89.291 126.035 89.291 126.035H85.1839C85.3201 127.019 85.9592 127.606 86.9336 127.606C88.1385 127.606 88.4318 126.946 88.5052 126.841L89.1548 127.187C89.1548 127.187 88.7147 128.361 86.9231 128.361C85.2886 128.361 84.4085 127.124 84.4085 125.668ZM90.7992 126.883C91.0087 127.365 91.5012 127.648 92.1403 127.617C93.0623 127.596 93.429 126.454 92.4861 126.15C92.1403 126.045 91.5117 125.877 90.9983 125.542C90.202 125.008 90.2125 124.222 90.4534 123.74C90.7782 123.101 91.606 122.912 92.0879 122.954C92.5384 123.007 93.1671 123.164 93.5652 123.698L92.9575 124.138C92.7375 123.834 92.3813 123.74 92.025 123.698C91.7002 123.667 91.2707 123.782 91.1135 124.075C90.9773 124.358 90.9878 124.641 91.4174 124.924C91.826 125.196 92.3498 125.322 92.7166 125.448C94.4768 126.014 93.911 128.319 92.1613 128.361C91.2812 128.402 90.443 127.941 90.1182 127.177L90.7992 126.883ZM95.1378 126.883C95.3473 127.365 95.8398 127.648 96.4789 127.617C97.4009 127.596 97.7676 126.454 96.8246 126.15C96.4789 126.045 95.8502 125.877 95.3368 125.542C94.5406 125.008 94.551 124.222 94.792 123.74C95.1168 123.101 95.9445 122.912 96.4265 122.954C96.877 123.007 97.5057 123.164 97.9038 123.698L97.2961 124.138C97.0761 123.834 96.7199 123.74 96.3636 123.698C96.0388 123.667 95.6093 123.782 95.4521 124.075C95.3159 124.358 95.3264 124.641 95.7559 124.924C96.1646 125.196 96.6884 125.322 97.0551 125.448C98.8153 126.014 98.2496 128.319 96.4998 128.361C95.6197 128.402 94.7815 127.941 94.4567 127.177L95.1378 126.883ZM101.556 127.648C102.499 127.648 103.348 126.883 103.358 125.71C103.348 124.547 102.499 123.771 101.556 123.771C100.393 123.771 99.7646 124.61 99.7646 125.71C99.7646 126.81 100.393 127.648 101.556 127.648ZM99.0102 125.71C99.0102 124.253 99.9217 123.028 101.546 123.028C102.164 123.028 102.855 123.352 103.337 124.128V122.996H104.092V128.329H103.337V127.281C102.834 128.099 102.174 128.402 101.546 128.402C99.9217 128.402 99.0102 127.156 99.0102 125.71ZM107.747 127.669C108.742 127.669 109.528 126.799 109.528 125.71C109.528 124.641 108.732 123.771 107.747 123.771C106.657 123.771 105.955 124.536 105.955 125.71C105.955 126.904 106.657 127.669 107.747 127.669ZM105.201 125.71C105.201 124.128 106.238 123.038 107.736 123.038C108.533 123.038 109.214 123.457 109.528 124.138V122.996H110.282V128.067C110.261 129.765 109.276 130.728 107.579 130.728C106.73 130.728 105.987 130.288 105.442 129.471L106.081 129.063C106.468 129.67 106.971 129.974 107.579 129.974C108.878 129.974 109.517 129.345 109.528 128.057V127.26C109.161 127.92 108.417 128.402 107.736 128.402C106.238 128.402 105.201 127.302 105.201 125.71ZM115.304 125.291C115.221 124.536 114.854 123.73 113.722 123.73C112.727 123.73 112.088 124.264 111.952 125.301L115.304 125.291ZM111.176 125.668C111.176 124.201 112.056 122.975 113.691 122.975C115.388 122.975 115.818 124.295 115.87 124.421C116.185 125.28 116.059 126.035 116.059 126.035H111.952C112.088 127.019 112.727 127.606 113.701 127.606C114.906 127.606 115.2 126.946 115.273 126.841L115.923 127.187C115.923 127.187 115.483 128.361 113.691 128.361C112.056 128.361 111.176 127.124 111.176 125.668Z" fill="#616161"/>
</g>
<defs>
<filter id="filter0_dd_1101_63613" x="0.338152" y="0.545883" width="268.515" height="163.671" filterUnits="userSpaceOnUse" color-interpolation-filters="sRGB">
<feFlood flood-opacity="0" result="BackgroundImageFix"/>
<feColorMatrix in="SourceAlpha" type="matrix" values="0 0 0 0 0 0 0 0 0 0 0 0 0 0 0 0 0 0 127 0" result="hardAlpha"/>
<feOffset/>
<feGaussianBlur stdDeviation="0.551933"/>
<feComposite in2="hardAlpha" operator="out"/>
<feColorMatrix type="matrix" values="0 0 0 0 0 0 0 0 0 0 0 0 0 0 0 0 0 0 0.2 0"/>
<feBlend mode="normal" in2="BackgroundImageFix" result="effect1_dropShadow_1101_63613"/>
<feColorMatrix in="SourceAlpha" type="matrix" values="0 0 0 0 0 0 0 0 0 0 0 0 0 0 0 0 0 0 127 0" result="hardAlpha"/>
<feOffset dy="2.20773"/>
<feGaussianBlur stdDeviation="8.83092"/>
<feComposite in2="hardAlpha" operator="out"/>
<feColorMatrix type="matrix" values="0 0 0 0 0 0 0 0 0 0 0 0 0 0 0 0 0 0 0.08 0"/>
<feBlend mode="normal" in2="effect1_dropShadow_1101_63613" result="effect2_dropShadow_1101_63613"/>
<feBlend mode="normal" in="SourceGraphic" in2="effect2_dropShadow_1101_63613" result="shape"/>
</filter>
</defs>
</svg>
