<svg width="200" height="53" viewBox="0 0 200 53" fill="none" xmlns="http://www.w3.org/2000/svg">
<path d="M7.99951 1H192C196.142 1 199.5 4.35787 199.5 8.5V44.5C199.5 48.6421 196.142 52 192 52H7.99951C3.85738 52 0.499512 48.6421 0.499512 44.5V8.5C0.499512 4.35786 3.85738 1 7.99951 1Z" fill="white"/>
<path d="M7.99951 1H192C196.142 1 199.5 4.35787 199.5 8.5V44.5C199.5 48.6421 196.142 52 192 52H7.99951C3.85738 52 0.499512 48.6421 0.499512 44.5V8.5C0.499512 4.35786 3.85738 1 7.99951 1Z" stroke="#E0E0E0"/>
<mask id="path-2-inside-1_1099_71526" fill="white">
<path d="M11.9995 26.5C11.9995 20.9772 16.4767 16.5 21.9995 16.5C27.5224 16.5 31.9995 20.9772 31.9995 26.5C31.9995 32.0228 27.5224 36.5 21.9995 36.5C16.4767 36.5 11.9995 32.0228 11.9995 26.5Z"/>
</mask>
<path d="M11.9995 26.5C11.9995 20.9772 16.4767 16.5 21.9995 16.5C27.5224 16.5 31.9995 20.9772 31.9995 26.5C31.9995 32.0228 27.5224 36.5 21.9995 36.5C16.4767 36.5 11.9995 32.0228 11.9995 26.5Z" fill="white"/>
<path d="M21.9995 36.5V35.5C17.0289 35.5 12.9995 31.4706 12.9995 26.5H11.9995H10.9995C10.9995 32.5751 15.9244 37.5 21.9995 37.5V36.5ZM31.9995 26.5H30.9995C30.9995 31.4706 26.9701 35.5 21.9995 35.5V36.5V37.5C28.0746 37.5 32.9995 32.5751 32.9995 26.5H31.9995ZM21.9995 16.5V17.5C26.9701 17.5 30.9995 21.5294 30.9995 26.5H31.9995H32.9995C32.9995 20.4249 28.0746 15.5 21.9995 15.5V16.5ZM21.9995 16.5V15.5C15.9244 15.5 10.9995 20.4249 10.9995 26.5H11.9995H12.9995C12.9995 21.5294 17.0289 17.5 21.9995 17.5V16.5Z" fill="#E0E0E0" mask="url(#path-2-inside-1_1099_71526)"/>
<path d="M42.4635 20.948V31.38H48.4475V32.5H41.3115V20.948H42.4635ZM53.0855 31.46C54.5255 31.46 55.8215 30.292 55.8375 28.5C55.8215 26.724 54.5255 25.54 53.0855 25.54C51.3095 25.54 50.3495 26.82 50.3495 28.5C50.3495 30.18 51.3095 31.46 53.0855 31.46ZM49.1975 28.5C49.1975 26.276 50.5895 24.404 53.0695 24.404C54.0135 24.404 55.0695 24.9 55.8055 26.084V24.356H56.9575V32.5H55.8055V30.9C55.0375 32.148 54.0295 32.612 53.0695 32.612C50.5895 32.612 49.1975 30.708 49.1975 28.5ZM62.8965 31.492C64.7045 31.492 65.6805 30.196 65.6805 28.484C65.6805 26.788 64.7045 25.476 62.8965 25.476C61.4085 25.476 60.1445 26.788 60.1445 28.484C60.1445 30.196 61.4085 31.492 62.8965 31.492ZM58.9925 32.5V20.628H60.1445V26.068C60.8965 24.756 62.0165 24.356 62.9285 24.356C65.4405 24.356 66.8325 26.26 66.8325 28.484C66.8325 30.724 65.4245 32.628 62.9125 32.628C62.0165 32.628 60.8965 32.244 60.1445 30.9V32.5H58.9925ZM74.3734 27.86C74.2454 26.708 73.6854 25.476 71.9574 25.476C70.4374 25.476 69.4614 26.292 69.2534 27.876L74.3734 27.86ZM68.0694 28.436C68.0694 26.196 69.4134 24.324 71.9094 24.324C74.5014 24.324 75.1574 26.34 75.2374 26.532C75.7174 27.844 75.5254 28.996 75.5254 28.996H69.2534C69.4614 30.5 70.4374 31.396 71.9254 31.396C73.7654 31.396 74.2134 30.388 74.3254 30.228L75.3174 30.756C75.3174 30.756 74.6454 32.548 71.9094 32.548C69.4134 32.548 68.0694 30.66 68.0694 28.436ZM76.986 20.628H78.138V32.5H76.986V20.628Z" fill="#333333"/>
</svg>
