<svg width="106" height="50" viewBox="0 0 106 50" fill="none" xmlns="http://www.w3.org/2000/svg">
<mask id="path-1-inside-1_790_21405" fill="white">
<path d="M0.333252 5.79781C0.333252 2.59577 2.92902 0 6.13106 0H99.5354C102.737 0 105.333 2.59577 105.333 5.79781V44.2022C105.333 47.4042 102.737 50 99.5354 50H6.13106C2.92902 50 0.333252 47.4042 0.333252 44.2022V5.79781Z"/>
</mask>
<path d="M0.333252 5.79781C0.333252 2.59577 2.92902 0 6.13106 0H99.5354C102.737 0 105.333 2.59577 105.333 5.79781V44.2022C105.333 47.4042 102.737 50 99.5354 50H6.13106C2.92902 50 0.333252 47.4042 0.333252 44.2022V5.79781Z" fill="#FFC77D"/>
<path d="M6.13106 1H99.5354V-1H6.13106V1ZM104.333 5.79781V44.2022H106.333V5.79781H104.333ZM99.5354 49H6.13106V51H99.5354V49ZM1.33325 44.2022V5.79781H-0.666748V44.2022H1.33325ZM6.13106 49C3.4813 49 1.33325 46.8519 1.33325 44.2022H-0.666748C-0.666748 47.9565 2.37673 51 6.13106 51V49ZM104.333 44.2022C104.333 46.8519 102.185 49 99.5354 49V51C103.29 51 106.333 47.9565 106.333 44.2022H104.333ZM99.5354 1C102.185 1 104.333 3.14805 104.333 5.79781H106.333C106.333 2.04348 103.29 -1 99.5354 -1V1ZM6.13106 -1C2.37673 -1 -0.666748 2.04348 -0.666748 5.79781H1.33325C1.33325 3.14805 3.4813 1 6.13106 1V-1Z" fill="#EE6002" mask="url(#path-1-inside-1_790_21405)"/>
<path d="M33.0013 29.48C34.5213 29.48 35.3693 28.44 35.3693 26.984C35.3693 25.544 34.5213 24.488 33.0013 24.488C31.7373 24.488 30.6013 25.48 30.6013 26.984C30.6013 28.504 31.7373 29.48 33.0013 29.48ZM28.9373 31V19H30.6013V24.28C31.3053 23.224 32.3293 22.856 33.1293 22.856C35.6413 22.856 37.0333 24.76 37.0333 26.984C37.0333 29.224 35.6253 31.128 33.1133 31.128C32.3293 31.128 31.3373 30.856 30.6013 29.688V31H28.9373ZM40.2634 27.4C40.2634 28.616 40.9994 29.48 42.3114 29.48C43.6234 29.48 44.4714 28.44 44.4554 27.32V22.728H46.1194V31.112H44.4554V29.864C43.8794 30.712 43.1594 31.112 42.1034 31.112C40.2954 31.112 38.5994 29.8 38.5994 27.48V22.76H40.2634V27.4ZM52.9086 30.904C52.5726 30.984 51.8686 31.112 51.3086 31.08C50.0606 31.016 48.8766 29.944 48.8766 28.552V24.312H47.4526V22.68H48.8766V19.848H50.5406V22.68H52.7006V24.312H50.5406V28.552C50.5406 29.096 50.8766 29.4 51.4206 29.416C51.7886 29.432 52.2526 29.352 52.5406 29.288L52.9086 30.904ZM58.5868 30.904C58.2508 30.984 57.5468 31.112 56.9868 31.08C55.7388 31.016 54.5548 29.944 54.5548 28.552V24.312H53.1308V22.68H54.5548V19.848H56.2188V22.68H58.3788V24.312H56.2188V28.552C56.2188 29.096 56.5548 29.4 57.0988 29.416C57.4668 29.432 57.9308 29.352 58.2188 29.288L58.5868 30.904ZM63.2368 29.528C64.7408 29.528 65.6208 28.44 65.6208 26.952C65.6208 25.448 64.7408 24.36 63.2368 24.36C61.7328 24.36 60.8688 25.448 60.8688 26.952C60.8688 28.44 61.7328 29.528 63.2368 29.528ZM59.2048 26.952C59.2048 24.664 60.7408 22.712 63.2368 22.712C65.7968 22.712 67.2848 24.664 67.2848 26.952C67.2848 29.224 65.7968 31.176 63.2368 31.176C60.7408 31.176 59.2048 29.224 59.2048 26.952ZM74.5429 26.472C74.5429 25.208 73.8229 24.408 72.5109 24.408C71.2789 24.408 70.3349 25.448 70.3509 26.568V31.112H68.6869V22.76H70.3509V24.088C70.9109 23.288 71.6469 22.76 72.7029 22.76C74.3349 22.76 76.2069 24.008 76.2069 26.408V31.112H74.5429V26.472Z" fill="#EE6002"/>
</svg>
