<svg width="770" height="141" viewBox="0 0 770 141" fill="none" xmlns="http://www.w3.org/2000/svg">
<path d="M4.05 6.518H5.346V8.66C5.346 10.442 6.552 12.26 8.568 13.07L7.848 14.114C6.354 13.484 5.274 12.314 4.716 10.91C4.14 12.44 3.024 13.808 1.476 14.51L0.738 13.448C2.79 12.53 4.05 10.442 4.05 8.66V6.518ZM3.42 17.084V15.986H13.968V21.314H12.618V17.084H3.42ZM9.288 14.996V5.852H10.566V9.704H12.672V5.582H13.968V15.086H12.672V10.82H10.566V14.996H9.288ZM20.1904 6.374H21.5044V8.102C21.5044 10.262 23.1424 12.242 25.3744 13.034L24.6724 14.078C22.9444 13.448 21.5584 12.116 20.8924 10.442C20.2264 12.332 18.8224 13.79 16.9864 14.528L16.2484 13.448C18.6064 12.584 20.1904 10.442 20.1904 8.012V6.374ZM18.3544 18.434C18.3544 16.634 20.2984 15.59 23.5024 15.59C26.7244 15.59 28.6684 16.634 28.6684 18.434C28.6684 20.234 26.7244 21.278 23.5024 21.278C20.2984 21.278 18.3544 20.234 18.3544 18.434ZM19.6684 18.434C19.6684 19.55 21.1444 20.216 23.5024 20.216C25.8784 20.216 27.3364 19.55 27.3364 18.434C27.3364 17.318 25.8784 16.652 23.5024 16.652C21.1444 16.652 19.6684 17.318 19.6684 18.434ZM27.1564 15.158V5.564H28.5064V9.686H30.8644V10.82H28.5064V15.158H27.1564ZM32.4248 12.728H40.0208V14.006H32.4248V12.728ZM47.6767 16.814C48.2707 18.128 49.5127 18.902 51.1687 18.866C53.9767 18.776 54.7327 15.176 52.0507 14.456C51.1867 14.132 49.7647 13.736 48.5227 12.89C46.7227 11.648 46.7407 9.83 47.2807 8.678C48.0007 7.166 49.9267 6.734 51.0067 6.824C52.0687 6.896 53.5087 7.328 54.3907 8.606L53.3107 9.326C52.7167 8.48 51.7987 8.192 50.8987 8.12C50.0887 8.084 48.9187 8.336 48.4687 9.218C48.1087 10.046 48.1087 11 49.2427 11.81C50.3047 12.548 51.5827 12.908 52.4827 13.232C56.5507 14.474 55.3987 20.036 51.2047 20.162C49.1347 20.234 47.2447 19.136 46.4887 17.318L47.6767 16.814ZM63.7921 14.78C63.6481 13.484 63.0181 12.098 61.0741 12.098C59.3641 12.098 58.2661 13.016 58.0321 14.798L63.7921 14.78ZM56.7001 15.428C56.7001 12.908 58.2121 10.802 61.0201 10.802C63.9361 10.802 64.6741 13.07 64.7641 13.286C65.3041 14.762 65.0881 16.058 65.0881 16.058H58.0321C58.2661 17.75 59.3641 18.758 61.0381 18.758C63.1081 18.758 63.6121 17.624 63.7381 17.444L64.8541 18.038C64.8541 18.038 64.0981 20.054 61.0201 20.054C58.2121 20.054 56.7001 17.93 56.7001 15.428ZM70.764 18.794C71.7 18.794 72.564 18.434 73.176 17.822L74.148 18.686C73.284 19.55 72.132 20.09 70.836 20.09C67.884 20.09 66.174 17.912 66.174 15.266C66.174 12.638 67.884 10.46 70.836 10.46C72.132 10.46 73.284 11 74.148 11.864L73.176 12.728C72.564 12.116 71.7 11.756 70.764 11.756C68.64 11.756 67.47 13.322 67.47 15.266C67.47 17.228 68.64 18.794 70.764 18.794ZM79.4592 18.812C81.4752 18.812 82.5372 17.336 82.5372 15.428C82.5372 13.52 81.4752 12.044 79.4592 12.044C77.4252 12.044 76.3992 13.52 76.3992 15.428C76.3992 17.336 77.4252 18.812 79.4592 18.812ZM75.1032 15.428C75.1032 12.926 76.6512 10.784 79.4592 10.784C82.2852 10.784 83.8332 12.926 83.8332 15.428C83.8332 17.93 82.2852 20.072 79.4592 20.072C76.6512 20.072 75.1032 17.93 75.1032 15.428ZM91.9684 14.6C91.9684 13.124 91.1044 12.098 89.5924 12.098C88.0264 12.098 86.8744 13.556 86.8744 14.78V20H85.5784V10.838H86.8744V12.404C87.4864 11.504 88.3864 10.838 89.6464 10.838C91.7884 10.838 93.2644 12.458 93.2644 14.474V20H91.9684V14.6ZM99.3745 20.144C96.5845 20.144 95.0005 18.002 95.0005 15.482C95.0005 12.98 96.5845 10.82 99.3745 10.82C100.544 10.82 101.768 11.414 102.524 12.782V6.644H103.82V20H102.524V18.182C101.75 19.55 100.544 20.144 99.3745 20.144ZM96.2965 15.482C96.2965 17.408 97.3945 18.848 99.4285 18.848C101.084 18.848 102.524 17.408 102.524 15.482C102.524 13.574 101.084 12.116 99.4285 12.116C97.3945 12.116 96.2965 13.574 96.2965 15.482ZM109.965 18.83C111.585 18.83 113.043 17.516 113.061 15.5C113.043 13.502 111.585 12.17 109.965 12.17C107.967 12.17 106.887 13.61 106.887 15.5C106.887 17.39 107.967 18.83 109.965 18.83ZM105.591 15.5C105.591 12.998 107.157 10.892 109.947 10.892C111.009 10.892 112.197 11.45 113.025 12.782V10.838H114.321V20H113.025V18.2C112.161 19.604 111.027 20.126 109.947 20.126C107.157 20.126 105.591 17.984 105.591 15.5ZM117.448 12.764C117.97 11.558 119.464 10.748 120.706 10.748V12.08C119.032 12.08 117.448 13.826 117.448 15.284V20H116.152V10.838H117.448V12.764ZM125.495 24.14H124.091L125.891 19.658L122.147 10.838H123.569L126.575 17.93L129.455 10.838H130.859L127.367 19.442L125.495 24.14Z" fill="#616161"/>
<path d="M163.796 6.194C166.1 6.194 167.72 7.472 167.72 9.362C167.72 11.09 166.406 12.314 164.462 12.53V14.006C165.974 13.934 167.504 13.826 168.926 13.646L169.016 14.654C165.668 15.14 161.924 15.266 158.99 15.266L158.792 14.132C160.106 14.132 161.582 14.114 163.112 14.06V12.53C161.15 12.296 159.836 11.09 159.836 9.362C159.836 7.472 161.456 6.194 163.796 6.194ZM161.096 9.362C161.096 10.64 162.212 11.504 163.796 11.504C165.344 11.504 166.442 10.64 166.442 9.362C166.442 8.12 165.344 7.256 163.796 7.256C162.212 7.256 161.096 8.12 161.096 9.362ZM161.366 20.954V16.49H162.716V19.838H172.076V20.954H161.366ZM170.222 17.336V5.582H171.572V17.336H170.222ZM175.22 6.158H181.106V7.256H179.054V7.562C179.054 8.426 179.936 9.722 181.412 10.388C182.888 9.74 183.752 8.498 183.752 7.562V7.256H181.718V6.158H187.604V7.256H185.102V7.652C185.102 8.858 186.182 10.244 188.036 10.784L187.442 11.81C185.894 11.306 184.85 10.28 184.382 9.128C183.878 10.154 182.87 11.126 181.412 11.594C179.918 11.108 178.928 10.1 178.442 9.074C177.956 10.19 176.912 11.27 175.364 11.81L174.788 10.784C176.624 10.19 177.722 8.696 177.722 7.652V7.256H175.22V6.158ZM174.302 14.492V13.394H180.746V11.774H182.078V13.394H188.576V14.492H174.302ZM175.85 17.3V16.22H186.722V21.314H185.372V17.3H175.85ZM198.255 9.686H201.459V5.564H202.809V14.942H201.459V10.802H198.255V9.686ZM189.957 13.718C192.261 12.872 193.935 10.748 193.935 8.462V7.85H190.371V6.734H198.777V7.85H195.285V8.462C195.285 10.514 196.869 12.476 199.137 13.268L198.435 14.348C196.671 13.7 195.303 12.368 194.637 10.73C193.971 12.602 192.495 14.078 190.641 14.798L189.957 13.718ZM192.405 18.38C192.405 16.544 194.385 15.446 197.643 15.446C200.883 15.446 202.863 16.544 202.863 18.38C202.863 20.234 200.883 21.296 197.643 21.296C194.385 21.296 192.405 20.234 192.405 18.38ZM193.755 18.38C193.755 19.532 195.231 20.234 197.643 20.234C200.037 20.234 201.531 19.532 201.531 18.38C201.531 17.21 200.037 16.508 197.643 16.508C195.231 16.508 193.755 17.21 193.755 18.38ZM213.927 7.508H217.041V5.564H218.409V13.844H217.041V11.414H213.927V10.316H217.041V8.624H213.927V7.508ZM206.097 7.382V6.32H212.865V10.244H207.465V12.224C209.769 12.224 211.569 12.152 213.801 11.828L213.909 12.89C211.569 13.25 209.697 13.304 207.249 13.304H206.151V9.218H211.533V7.382H206.097ZM208.203 15.698V14.636H218.409V18.326H209.571V20.126H219.003V21.188H208.239V17.318H217.059V15.698H208.203Z" fill="#1A1A1A"/>
<path d="M4.05 44.518H5.346V46.66C5.346 48.442 6.552 50.26 8.568 51.07L7.848 52.114C6.354 51.484 5.274 50.314 4.716 48.91C4.14 50.44 3.024 51.808 1.476 52.51L0.738 51.448C2.79 50.53 4.05 48.442 4.05 46.66V44.518ZM3.42 55.084V53.986H13.968V59.314H12.618V55.084H3.42ZM9.288 52.996V43.852H10.566V47.704H12.672V43.582H13.968V53.086H12.672V48.82H10.566V52.996H9.288ZM20.1904 44.374H21.5044V46.102C21.5044 48.262 23.1424 50.242 25.3744 51.034L24.6724 52.078C22.9444 51.448 21.5584 50.116 20.8924 48.442C20.2264 50.332 18.8224 51.79 16.9864 52.528L16.2484 51.448C18.6064 50.584 20.1904 48.442 20.1904 46.012V44.374ZM18.3544 56.434C18.3544 54.634 20.2984 53.59 23.5024 53.59C26.7244 53.59 28.6684 54.634 28.6684 56.434C28.6684 58.234 26.7244 59.278 23.5024 59.278C20.2984 59.278 18.3544 58.234 18.3544 56.434ZM19.6684 56.434C19.6684 57.55 21.1444 58.216 23.5024 58.216C25.8784 58.216 27.3364 57.55 27.3364 56.434C27.3364 55.318 25.8784 54.652 23.5024 54.652C21.1444 54.652 19.6684 55.318 19.6684 56.434ZM27.1564 53.158V43.564H28.5064V47.686H30.8644V48.82H28.5064V53.158H27.1564ZM32.4248 50.728H40.0208V52.006H32.4248V50.728ZM51.5827 51.7C53.0947 51.7 54.3007 50.458 54.3007 48.982C54.3007 47.47 53.0767 46.264 51.5647 46.264H47.8927L47.9107 51.7H51.5827ZM46.6147 58V45.004H51.6187C53.8147 45.004 55.5607 46.786 55.5607 48.982C55.5607 51.16 53.8147 52.96 51.6187 52.96H47.9107V58H46.6147ZM58.5645 50.764C59.0865 49.558 60.5805 48.748 61.8225 48.748V50.08C60.1485 50.08 58.5645 51.826 58.5645 53.284V58H57.2685V48.838H58.5645V50.764ZM63.7317 48.838H65.0277V58H63.7317V48.838ZM63.5517 45.508C63.5517 45.058 63.8397 44.698 64.3797 44.698C64.9017 44.698 65.1897 45.058 65.1897 45.508C65.1897 45.976 64.9017 46.336 64.3797 46.336C63.8397 46.336 63.5517 45.976 63.5517 45.508ZM79.3464 52.384C79.3464 50.926 78.4644 50.098 77.1684 50.098C75.9624 50.098 74.7204 51.232 74.7204 52.384V58H73.4244V52.384C73.4244 51.232 72.6864 50.098 71.2824 50.098C70.0044 50.098 68.8164 51.232 68.8164 52.528V58H67.5204V48.838H68.8164V50.422C69.3924 49.432 70.2384 48.838 71.3364 48.838C72.6684 48.838 73.5504 49.414 74.1984 50.674C74.8644 49.738 75.7824 48.838 77.2224 48.838C79.0944 48.838 80.6424 50.35 80.6424 52.24V58H79.3464V52.384ZM86.9034 56.83C88.5234 56.83 89.9814 55.516 89.9994 53.5C89.9814 51.502 88.5234 50.17 86.9034 50.17C84.9054 50.17 83.8254 51.61 83.8254 53.5C83.8254 55.39 84.9054 56.83 86.9034 56.83ZM82.5294 53.5C82.5294 50.998 84.0954 48.892 86.8854 48.892C87.9474 48.892 89.1354 49.45 89.9634 50.782V48.838H91.2594V58H89.9634V56.2C89.0994 57.604 87.9654 58.126 86.8854 58.126C84.0954 58.126 82.5294 55.984 82.5294 53.5ZM94.3864 50.764C94.9084 49.558 96.4024 48.748 97.6444 48.748V50.08C95.9704 50.08 94.3864 51.826 94.3864 53.284V58H93.0904V48.838H94.3864V50.764ZM102.434 62.14H101.03L102.83 57.658L99.0855 48.838H100.508L103.514 55.93L106.394 48.838H107.798L104.306 57.442L102.434 62.14Z" fill="#1A1A1A"/>
<path d="M163.796 44.194C166.1 44.194 167.72 45.472 167.72 47.362C167.72 49.09 166.406 50.314 164.462 50.53V52.006C165.974 51.934 167.504 51.826 168.926 51.646L169.016 52.654C165.668 53.14 161.924 53.266 158.99 53.266L158.792 52.132C160.106 52.132 161.582 52.114 163.112 52.06V50.53C161.15 50.296 159.836 49.09 159.836 47.362C159.836 45.472 161.456 44.194 163.796 44.194ZM161.096 47.362C161.096 48.64 162.212 49.504 163.796 49.504C165.344 49.504 166.442 48.64 166.442 47.362C166.442 46.12 165.344 45.256 163.796 45.256C162.212 45.256 161.096 46.12 161.096 47.362ZM161.366 58.954V54.49H162.716V57.838H172.076V58.954H161.366ZM170.222 55.336V43.582H171.572V55.336H170.222ZM175.22 44.158H181.106V45.256H179.054V45.562C179.054 46.426 179.936 47.722 181.412 48.388C182.888 47.74 183.752 46.498 183.752 45.562V45.256H181.718V44.158H187.604V45.256H185.102V45.652C185.102 46.858 186.182 48.244 188.036 48.784L187.442 49.81C185.894 49.306 184.85 48.28 184.382 47.128C183.878 48.154 182.87 49.126 181.412 49.594C179.918 49.108 178.928 48.1 178.442 47.074C177.956 48.19 176.912 49.27 175.364 49.81L174.788 48.784C176.624 48.19 177.722 46.696 177.722 45.652V45.256H175.22V44.158ZM174.302 52.492V51.394H180.746V49.774H182.078V51.394H188.576V52.492H174.302ZM175.85 55.3V54.22H186.722V59.314H185.372V55.3H175.85ZM198.255 47.686H201.459V43.564H202.809V52.942H201.459V48.802H198.255V47.686ZM189.957 51.718C192.261 50.872 193.935 48.748 193.935 46.462V45.85H190.371V44.734H198.777V45.85H195.285V46.462C195.285 48.514 196.869 50.476 199.137 51.268L198.435 52.348C196.671 51.7 195.303 50.368 194.637 48.73C193.971 50.602 192.495 52.078 190.641 52.798L189.957 51.718ZM192.405 56.38C192.405 54.544 194.385 53.446 197.643 53.446C200.883 53.446 202.863 54.544 202.863 56.38C202.863 58.234 200.883 59.296 197.643 59.296C194.385 59.296 192.405 58.234 192.405 56.38ZM193.755 56.38C193.755 57.532 195.231 58.234 197.643 58.234C200.037 58.234 201.531 57.532 201.531 56.38C201.531 55.21 200.037 54.508 197.643 54.508C195.231 54.508 193.755 55.21 193.755 56.38ZM213.927 45.508H217.041V43.564H218.409V51.844H217.041V49.414H213.927V48.316H217.041V46.624H213.927V45.508ZM206.097 45.382V44.32H212.865V48.244H207.465V50.224C209.769 50.224 211.569 50.152 213.801 49.828L213.909 50.89C211.569 51.25 209.697 51.304 207.249 51.304H206.151V47.218H211.533V45.382H206.097ZM208.203 53.698V52.636H218.409V56.326H209.571V58.126H219.003V59.188H208.239V55.318H217.059V53.698H208.203Z" fill="#1A1A1A"/>
<path d="M443.05 44.518H444.346V46.66C444.346 48.442 445.552 50.26 447.568 51.07L446.848 52.114C445.354 51.484 444.274 50.314 443.716 48.91C443.14 50.44 442.024 51.808 440.476 52.51L439.738 51.448C441.79 50.53 443.05 48.442 443.05 46.66V44.518ZM442.42 55.084V53.986H452.968V59.314H451.618V55.084H442.42ZM448.288 52.996V43.852H449.566V47.704H451.672V43.582H452.968V53.086H451.672V48.82H449.566V52.996H448.288ZM459.19 44.374H460.504V46.102C460.504 48.262 462.142 50.242 464.374 51.034L463.672 52.078C461.944 51.448 460.558 50.116 459.892 48.442C459.226 50.332 457.822 51.79 455.986 52.528L455.248 51.448C457.606 50.584 459.19 48.442 459.19 46.012V44.374ZM457.354 56.434C457.354 54.634 459.298 53.59 462.502 53.59C465.724 53.59 467.668 54.634 467.668 56.434C467.668 58.234 465.724 59.278 462.502 59.278C459.298 59.278 457.354 58.234 457.354 56.434ZM458.668 56.434C458.668 57.55 460.144 58.216 462.502 58.216C464.878 58.216 466.336 57.55 466.336 56.434C466.336 55.318 464.878 54.652 462.502 54.652C460.144 54.652 458.668 55.318 458.668 56.434ZM466.156 53.158V43.564H467.506V47.686H469.864V48.82H467.506V53.158H466.156ZM471.425 50.728H479.021V52.006H471.425V50.728ZM490.583 51.7C492.095 51.7 493.301 50.458 493.301 48.982C493.301 47.47 492.077 46.264 490.565 46.264H486.893L486.911 51.7H490.583ZM485.615 58V45.004H490.619C492.815 45.004 494.561 46.786 494.561 48.982C494.561 51.16 492.815 52.96 490.619 52.96H486.911V58H485.615ZM497.565 50.764C498.087 49.558 499.581 48.748 500.823 48.748V50.08C499.149 50.08 497.565 51.826 497.565 53.284V58H496.269V48.838H497.565V50.764ZM502.732 48.838H504.028V58H502.732V48.838ZM502.552 45.508C502.552 45.058 502.84 44.698 503.38 44.698C503.902 44.698 504.19 45.058 504.19 45.508C504.19 45.976 503.902 46.336 503.38 46.336C502.84 46.336 502.552 45.976 502.552 45.508ZM518.346 52.384C518.346 50.926 517.464 50.098 516.168 50.098C514.962 50.098 513.72 51.232 513.72 52.384V58H512.424V52.384C512.424 51.232 511.686 50.098 510.282 50.098C509.004 50.098 507.816 51.232 507.816 52.528V58H506.52V48.838H507.816V50.422C508.392 49.432 509.238 48.838 510.336 48.838C511.668 48.838 512.55 49.414 513.198 50.674C513.864 49.738 514.782 48.838 516.222 48.838C518.094 48.838 519.642 50.35 519.642 52.24V58H518.346V52.384ZM525.903 56.83C527.523 56.83 528.981 55.516 528.999 53.5C528.981 51.502 527.523 50.17 525.903 50.17C523.905 50.17 522.825 51.61 522.825 53.5C522.825 55.39 523.905 56.83 525.903 56.83ZM521.529 53.5C521.529 50.998 523.095 48.892 525.885 48.892C526.947 48.892 528.135 49.45 528.963 50.782V48.838H530.259V58H528.963V56.2C528.099 57.604 526.965 58.126 525.885 58.126C523.095 58.126 521.529 55.984 521.529 53.5ZM533.386 50.764C533.908 49.558 535.402 48.748 536.644 48.748V50.08C534.97 50.08 533.386 51.826 533.386 53.284V58H532.09V48.838H533.386V50.764ZM541.434 62.14H540.03L541.83 57.658L538.086 48.838H539.508L542.514 55.93L545.394 48.838H546.798L543.306 57.442L541.434 62.14Z" fill="#1A1A1A"/>
<path d="M602.742 44.014C605.1 44.014 606.774 45.346 606.774 47.29C606.774 48.982 605.55 50.206 603.714 50.53V51.79C605.1 51.718 606.504 51.628 607.8 51.466L607.944 52.87C604.56 53.374 600.87 53.482 597.954 53.482L597.684 51.916C598.944 51.916 600.33 51.898 601.77 51.862V50.53C599.916 50.206 598.692 48.982 598.692 47.29C598.692 45.346 600.366 44.014 602.742 44.014ZM600.168 59.134V54.544H602.112V57.568H611.292V59.134H600.168ZM600.492 47.29C600.492 48.424 601.428 49.126 602.742 49.126C604.038 49.126 604.956 48.424 604.956 47.29C604.956 46.192 604.038 45.49 602.742 45.49C601.428 45.49 600.492 46.192 600.492 47.29ZM608.898 55.444V43.438H610.842V55.444H608.898ZM614.148 44.014H620.106V45.562H618.324V45.67C618.324 46.48 619.08 47.506 620.43 48.082C621.762 47.524 622.5 46.516 622.5 45.67V45.562H620.736V44.014H626.694V45.562H624.444V45.724C624.444 46.84 625.416 48.046 627.306 48.496L626.478 49.936C624.93 49.504 623.922 48.604 623.4 47.524C622.878 48.496 621.906 49.324 620.412 49.72C618.918 49.324 617.946 48.46 617.424 47.506C616.92 48.568 615.894 49.504 614.346 49.936L613.554 48.496C615.426 48.01 616.398 46.732 616.398 45.724V45.562H614.148V44.014ZM613.194 52.762V51.214H619.458V49.792H621.384V51.214H627.684V52.762H613.194ZM614.76 55.768V54.238H625.884V59.44H623.94V55.768H614.76ZM637.363 47.434H640.117V43.438H642.061V52.942H640.117V49.018H637.363V47.434ZM628.741 51.358C631.261 50.476 632.629 48.334 632.629 46.174V46.048H629.299V44.5H637.867V46.048H634.591V46.174C634.591 48.136 635.869 50.116 638.317 50.944L637.363 52.474C635.599 51.862 634.339 50.638 633.655 49.126C632.953 50.854 631.621 52.24 629.731 52.906L628.741 51.358ZM631.279 56.416C631.279 54.508 633.349 53.374 636.715 53.374C640.063 53.374 642.115 54.508 642.115 56.416C642.115 58.342 640.063 59.44 636.715 59.44C633.349 59.44 631.279 58.342 631.279 56.416ZM633.223 56.416C633.223 57.424 634.483 57.964 636.715 57.964C638.929 57.964 640.189 57.424 640.189 56.416C640.189 55.39 638.929 54.85 636.715 54.85C634.483 54.85 633.223 55.39 633.223 56.416ZM652.927 45.238H655.717V43.438H657.661V51.808H655.717V49.72H652.927V48.172H655.717V46.786H652.927V45.238ZM644.971 45.652V44.176H651.937V48.424H646.915V49.9C649.057 49.9 650.677 49.846 652.657 49.576L652.801 51.052C650.569 51.376 648.733 51.412 646.177 51.412H645.007V47.038H650.029V45.652H644.971ZM647.095 53.95V52.492H657.661V56.542H649.039V57.856H658.183V59.332H647.113V55.174H655.735V53.95H647.095Z" fill="#1A1A1A"/>
<path d="M443.05 6.518H444.346V8.66C444.346 10.442 445.552 12.26 447.568 13.07L446.848 14.114C445.354 13.484 444.274 12.314 443.716 10.91C443.14 12.44 442.024 13.808 440.476 14.51L439.738 13.448C441.79 12.53 443.05 10.442 443.05 8.66V6.518ZM442.42 17.084V15.986H452.968V21.314H451.618V17.084H442.42ZM448.288 14.996V5.852H449.566V9.704H451.672V5.582H452.968V15.086H451.672V10.82H449.566V14.996H448.288ZM459.19 6.374H460.504V8.102C460.504 10.262 462.142 12.242 464.374 13.034L463.672 14.078C461.944 13.448 460.558 12.116 459.892 10.442C459.226 12.332 457.822 13.79 455.986 14.528L455.248 13.448C457.606 12.584 459.19 10.442 459.19 8.012V6.374ZM457.354 18.434C457.354 16.634 459.298 15.59 462.502 15.59C465.724 15.59 467.668 16.634 467.668 18.434C467.668 20.234 465.724 21.278 462.502 21.278C459.298 21.278 457.354 20.234 457.354 18.434ZM458.668 18.434C458.668 19.55 460.144 20.216 462.502 20.216C464.878 20.216 466.336 19.55 466.336 18.434C466.336 17.318 464.878 16.652 462.502 16.652C460.144 16.652 458.668 17.318 458.668 18.434ZM466.156 15.158V5.564H467.506V9.686H469.864V10.82H467.506V15.158H466.156ZM471.425 12.728H479.021V14.006H471.425V12.728ZM486.677 16.814C487.271 18.128 488.513 18.902 490.169 18.866C492.977 18.776 493.733 15.176 491.051 14.456C490.187 14.132 488.765 13.736 487.523 12.89C485.723 11.648 485.741 9.83 486.281 8.678C487.001 7.166 488.927 6.734 490.007 6.824C491.069 6.896 492.509 7.328 493.391 8.606L492.311 9.326C491.717 8.48 490.799 8.192 489.899 8.12C489.089 8.084 487.919 8.336 487.469 9.218C487.109 10.046 487.109 11 488.243 11.81C489.305 12.548 490.583 12.908 491.483 13.232C495.551 14.474 494.399 20.036 490.205 20.162C488.135 20.234 486.245 19.136 485.489 17.318L486.677 16.814ZM502.792 14.78C502.648 13.484 502.018 12.098 500.074 12.098C498.364 12.098 497.266 13.016 497.032 14.798L502.792 14.78ZM495.7 15.428C495.7 12.908 497.212 10.802 500.02 10.802C502.936 10.802 503.674 13.07 503.764 13.286C504.304 14.762 504.088 16.058 504.088 16.058H497.032C497.266 17.75 498.364 18.758 500.038 18.758C502.108 18.758 502.612 17.624 502.738 17.444L503.854 18.038C503.854 18.038 503.098 20.054 500.02 20.054C497.212 20.054 495.7 17.93 495.7 15.428ZM509.764 18.794C510.7 18.794 511.564 18.434 512.176 17.822L513.148 18.686C512.284 19.55 511.132 20.09 509.836 20.09C506.884 20.09 505.174 17.912 505.174 15.266C505.174 12.638 506.884 10.46 509.836 10.46C511.132 10.46 512.284 11 513.148 11.864L512.176 12.728C511.564 12.116 510.7 11.756 509.764 11.756C507.64 11.756 506.47 13.322 506.47 15.266C506.47 17.228 507.64 18.794 509.764 18.794ZM518.459 18.812C520.475 18.812 521.537 17.336 521.537 15.428C521.537 13.52 520.475 12.044 518.459 12.044C516.425 12.044 515.399 13.52 515.399 15.428C515.399 17.336 516.425 18.812 518.459 18.812ZM514.103 15.428C514.103 12.926 515.651 10.784 518.459 10.784C521.285 10.784 522.833 12.926 522.833 15.428C522.833 17.93 521.285 20.072 518.459 20.072C515.651 20.072 514.103 17.93 514.103 15.428ZM530.968 14.6C530.968 13.124 530.104 12.098 528.592 12.098C527.026 12.098 525.874 13.556 525.874 14.78V20H524.578V10.838H525.874V12.404C526.486 11.504 527.386 10.838 528.646 10.838C530.788 10.838 532.264 12.458 532.264 14.474V20H530.968V14.6ZM538.374 20.144C535.584 20.144 534 18.002 534 15.482C534 12.98 535.584 10.82 538.374 10.82C539.544 10.82 540.768 11.414 541.524 12.782V6.644H542.82V20H541.524V18.182C540.75 19.55 539.544 20.144 538.374 20.144ZM535.296 15.482C535.296 17.408 536.394 18.848 538.428 18.848C540.084 18.848 541.524 17.408 541.524 15.482C541.524 13.574 540.084 12.116 538.428 12.116C536.394 12.116 535.296 13.574 535.296 15.482ZM548.965 18.83C550.585 18.83 552.043 17.516 552.061 15.5C552.043 13.502 550.585 12.17 548.965 12.17C546.967 12.17 545.887 13.61 545.887 15.5C545.887 17.39 546.967 18.83 548.965 18.83ZM544.591 15.5C544.591 12.998 546.157 10.892 548.947 10.892C550.009 10.892 551.197 11.45 552.025 12.782V10.838H553.321V20H552.025V18.2C551.161 19.604 550.027 20.126 548.947 20.126C546.157 20.126 544.591 17.984 544.591 15.5ZM556.448 12.764C556.97 11.558 558.464 10.748 559.706 10.748V12.08C558.032 12.08 556.448 13.826 556.448 15.284V20H555.152V10.838H556.448V12.764ZM564.495 24.14H563.091L564.891 19.658L561.147 10.838H562.569L565.575 17.93L568.455 10.838H569.859L566.367 19.442L564.495 24.14Z" fill="#616161"/>
<path d="M602.742 6.014C605.1 6.014 606.774 7.346 606.774 9.29C606.774 10.982 605.55 12.206 603.714 12.53V13.79C605.1 13.718 606.504 13.628 607.8 13.466L607.944 14.87C604.56 15.374 600.87 15.482 597.954 15.482L597.684 13.916C598.944 13.916 600.33 13.898 601.77 13.862V12.53C599.916 12.206 598.692 10.982 598.692 9.29C598.692 7.346 600.366 6.014 602.742 6.014ZM600.168 21.134V16.544H602.112V19.568H611.292V21.134H600.168ZM600.492 9.29C600.492 10.424 601.428 11.126 602.742 11.126C604.038 11.126 604.956 10.424 604.956 9.29C604.956 8.192 604.038 7.49 602.742 7.49C601.428 7.49 600.492 8.192 600.492 9.29ZM608.898 17.444V5.438H610.842V17.444H608.898ZM614.148 6.014H620.106V7.562H618.324V7.67C618.324 8.48 619.08 9.506 620.43 10.082C621.762 9.524 622.5 8.516 622.5 7.67V7.562H620.736V6.014H626.694V7.562H624.444V7.724C624.444 8.84 625.416 10.046 627.306 10.496L626.478 11.936C624.93 11.504 623.922 10.604 623.4 9.524C622.878 10.496 621.906 11.324 620.412 11.72C618.918 11.324 617.946 10.46 617.424 9.506C616.92 10.568 615.894 11.504 614.346 11.936L613.554 10.496C615.426 10.01 616.398 8.732 616.398 7.724V7.562H614.148V6.014ZM613.194 14.762V13.214H619.458V11.792H621.384V13.214H627.684V14.762H613.194ZM614.76 17.768V16.238H625.884V21.44H623.94V17.768H614.76ZM637.363 9.434H640.117V5.438H642.061V14.942H640.117V11.018H637.363V9.434ZM628.741 13.358C631.261 12.476 632.629 10.334 632.629 8.174V8.048H629.299V6.5H637.867V8.048H634.591V8.174C634.591 10.136 635.869 12.116 638.317 12.944L637.363 14.474C635.599 13.862 634.339 12.638 633.655 11.126C632.953 12.854 631.621 14.24 629.731 14.906L628.741 13.358ZM631.279 18.416C631.279 16.508 633.349 15.374 636.715 15.374C640.063 15.374 642.115 16.508 642.115 18.416C642.115 20.342 640.063 21.44 636.715 21.44C633.349 21.44 631.279 20.342 631.279 18.416ZM633.223 18.416C633.223 19.424 634.483 19.964 636.715 19.964C638.929 19.964 640.189 19.424 640.189 18.416C640.189 17.39 638.929 16.85 636.715 16.85C634.483 16.85 633.223 17.39 633.223 18.416ZM652.927 7.238H655.717V5.438H657.661V13.808H655.717V11.72H652.927V10.172H655.717V8.786H652.927V7.238ZM644.971 7.652V6.176H651.937V10.424H646.915V11.9C649.057 11.9 650.677 11.846 652.657 11.576L652.801 13.052C650.569 13.376 648.733 13.412 646.177 13.412H645.007V9.038H650.029V7.652H644.971ZM647.095 15.95V14.492H657.661V18.542H649.039V19.856H658.183V21.332H647.113V17.174H655.735V15.95H647.095Z" fill="#1A1A1A"/>
<path d="M4.05 82.518H5.346V84.66C5.346 86.442 6.552 88.26 8.568 89.07L7.848 90.114C6.354 89.484 5.274 88.314 4.716 86.91C4.14 88.44 3.024 89.808 1.476 90.51L0.738 89.448C2.79 88.53 4.05 86.442 4.05 84.66V82.518ZM3.42 93.084V91.986H13.968V97.314H12.618V93.084H3.42ZM9.288 90.996V81.852H10.566V85.704H12.672V81.582H13.968V91.086H12.672V86.82H10.566V90.996H9.288ZM20.1904 82.374H21.5044V84.102C21.5044 86.262 23.1424 88.242 25.3744 89.034L24.6724 90.078C22.9444 89.448 21.5584 88.116 20.8924 86.442C20.2264 88.332 18.8224 89.79 16.9864 90.528L16.2484 89.448C18.6064 88.584 20.1904 86.442 20.1904 84.012V82.374ZM18.3544 94.434C18.3544 92.634 20.2984 91.59 23.5024 91.59C26.7244 91.59 28.6684 92.634 28.6684 94.434C28.6684 96.234 26.7244 97.278 23.5024 97.278C20.2984 97.278 18.3544 96.234 18.3544 94.434ZM19.6684 94.434C19.6684 95.55 21.1444 96.216 23.5024 96.216C25.8784 96.216 27.3364 95.55 27.3364 94.434C27.3364 93.318 25.8784 92.652 23.5024 92.652C21.1444 92.652 19.6684 93.318 19.6684 94.434ZM27.1564 91.158V81.564H28.5064V85.686H30.8644V86.82H28.5064V91.158H27.1564ZM32.4248 88.728H40.0208V90.006H32.4248V88.728ZM47.6767 92.814C48.2707 94.128 49.5127 94.902 51.1687 94.866C53.9767 94.776 54.7327 91.176 52.0507 90.456C51.1867 90.132 49.7647 89.736 48.5227 88.89C46.7227 87.648 46.7407 85.83 47.2807 84.678C48.0007 83.166 49.9267 82.734 51.0067 82.824C52.0687 82.896 53.5087 83.328 54.3907 84.606L53.3107 85.326C52.7167 84.48 51.7987 84.192 50.8987 84.12C50.0887 84.084 48.9187 84.336 48.4687 85.218C48.1087 86.046 48.1087 87 49.2427 87.81C50.3047 88.548 51.5827 88.908 52.4827 89.232C56.5507 90.474 55.3987 96.036 51.2047 96.162C49.1347 96.234 47.2447 95.136 46.4887 93.318L47.6767 92.814ZM63.7921 90.78C63.6481 89.484 63.0181 88.098 61.0741 88.098C59.3641 88.098 58.2661 89.016 58.0321 90.798L63.7921 90.78ZM56.7001 91.428C56.7001 88.908 58.2121 86.802 61.0201 86.802C63.9361 86.802 64.6741 89.07 64.7641 89.286C65.3041 90.762 65.0881 92.058 65.0881 92.058H58.0321C58.2661 93.75 59.3641 94.758 61.0381 94.758C63.1081 94.758 63.6121 93.624 63.7381 93.444L64.8541 94.038C64.8541 94.038 64.0981 96.054 61.0201 96.054C58.2121 96.054 56.7001 93.93 56.7001 91.428ZM70.764 94.794C71.7 94.794 72.564 94.434 73.176 93.822L74.148 94.686C73.284 95.55 72.132 96.09 70.836 96.09C67.884 96.09 66.174 93.912 66.174 91.266C66.174 88.638 67.884 86.46 70.836 86.46C72.132 86.46 73.284 87 74.148 87.864L73.176 88.728C72.564 88.116 71.7 87.756 70.764 87.756C68.64 87.756 67.47 89.322 67.47 91.266C67.47 93.228 68.64 94.794 70.764 94.794ZM79.4592 94.812C81.4752 94.812 82.5372 93.336 82.5372 91.428C82.5372 89.52 81.4752 88.044 79.4592 88.044C77.4252 88.044 76.3992 89.52 76.3992 91.428C76.3992 93.336 77.4252 94.812 79.4592 94.812ZM75.1032 91.428C75.1032 88.926 76.6512 86.784 79.4592 86.784C82.2852 86.784 83.8332 88.926 83.8332 91.428C83.8332 93.93 82.2852 96.072 79.4592 96.072C76.6512 96.072 75.1032 93.93 75.1032 91.428ZM91.9684 90.6C91.9684 89.124 91.1044 88.098 89.5924 88.098C88.0264 88.098 86.8744 89.556 86.8744 90.78V96H85.5784V86.838H86.8744V88.404C87.4864 87.504 88.3864 86.838 89.6464 86.838C91.7884 86.838 93.2644 88.458 93.2644 90.474V96H91.9684V90.6ZM99.3745 96.144C96.5845 96.144 95.0005 94.002 95.0005 91.482C95.0005 88.98 96.5845 86.82 99.3745 86.82C100.544 86.82 101.768 87.414 102.524 88.782V82.644H103.82V96H102.524V94.182C101.75 95.55 100.544 96.144 99.3745 96.144ZM96.2965 91.482C96.2965 93.408 97.3945 94.848 99.4285 94.848C101.084 94.848 102.524 93.408 102.524 91.482C102.524 89.574 101.084 88.116 99.4285 88.116C97.3945 88.116 96.2965 89.574 96.2965 91.482ZM109.965 94.83C111.585 94.83 113.043 93.516 113.061 91.5C113.043 89.502 111.585 88.17 109.965 88.17C107.967 88.17 106.887 89.61 106.887 91.5C106.887 93.39 107.967 94.83 109.965 94.83ZM105.591 91.5C105.591 88.998 107.157 86.892 109.947 86.892C111.009 86.892 112.197 87.45 113.025 88.782V86.838H114.321V96H113.025V94.2C112.161 95.604 111.027 96.126 109.947 96.126C107.157 96.126 105.591 93.984 105.591 91.5ZM117.448 88.764C117.97 87.558 119.464 86.748 120.706 86.748V88.08C119.032 88.08 117.448 89.826 117.448 91.284V96H116.152V86.838H117.448V88.764ZM125.495 100.14H124.091L125.891 95.658L122.147 86.838H123.569L126.575 93.93L129.455 86.838H130.859L127.367 95.442L125.495 100.14Z" fill="#616161"/>
<path d="M260.768 82.608C264.098 82.608 266.474 84.228 266.474 86.712C266.474 89.052 264.404 90.582 261.434 90.78V94.146H267.932V95.262H253.658V94.146H260.102V90.78C257.132 90.582 255.062 89.034 255.062 86.712C255.062 84.228 257.456 82.608 260.768 82.608ZM256.376 86.712C256.376 88.512 258.23 89.736 260.768 89.736C263.306 89.736 265.178 88.512 265.178 86.712C265.178 84.894 263.306 83.688 260.768 83.688C258.23 83.688 256.376 84.894 256.376 86.712ZM269.24 90.312H283.514V91.428H269.24V90.312ZM271.058 83.166V82.104H281.66V85.974H272.408V87.774H282.002V88.836H271.094V84.948H280.328V83.166H271.058ZM271.13 96.954V92.706H272.48V95.856H282.02V96.954H271.13ZM285.741 82.158H291.627V83.256H289.575V83.562C289.575 84.426 290.457 85.722 291.933 86.388C293.409 85.74 294.273 84.498 294.273 83.562V83.256H292.239V82.158H298.125V83.256H295.623V83.652C295.623 84.858 296.703 86.244 298.557 86.784L297.963 87.81C296.415 87.306 295.371 86.28 294.903 85.128C294.399 86.154 293.391 87.126 291.933 87.594C290.439 87.108 289.449 86.1 288.963 85.074C288.477 86.19 287.433 87.27 285.885 87.81L285.309 86.784C287.145 86.19 288.243 84.696 288.243 83.652V83.256H285.741V82.158ZM284.823 90.492V89.394H291.267V87.774H292.599V89.394H299.097V90.492H284.823ZM286.371 93.3V92.22H297.243V97.314H295.893V93.3H286.371ZM308.775 85.686H311.979V81.564H313.329V90.942H311.979V86.802H308.775V85.686ZM300.477 89.718C302.781 88.872 304.455 86.748 304.455 84.462V83.85H300.891V82.734H309.297V83.85H305.805V84.462C305.805 86.514 307.389 88.476 309.657 89.268L308.955 90.348C307.191 89.7 305.823 88.368 305.157 86.73C304.491 88.602 303.015 90.078 301.161 90.798L300.477 89.718ZM302.925 94.38C302.925 92.544 304.905 91.446 308.163 91.446C311.403 91.446 313.383 92.544 313.383 94.38C313.383 96.234 311.403 97.296 308.163 97.296C304.905 97.296 302.925 96.234 302.925 94.38ZM304.275 94.38C304.275 95.532 305.751 96.234 308.163 96.234C310.557 96.234 312.051 95.532 312.051 94.38C312.051 93.21 310.557 92.508 308.163 92.508C305.751 92.508 304.275 93.21 304.275 94.38ZM324.448 83.508H327.562V81.564H328.93V89.844H327.562V87.414H324.448V86.316H327.562V84.624H324.448V83.508ZM316.618 83.382V82.32H323.386V86.244H317.986V88.224C320.29 88.224 322.09 88.152 324.322 87.828L324.43 88.89C322.09 89.25 320.218 89.304 317.77 89.304H316.672V85.218H322.054V83.382H316.618ZM318.724 91.698V90.636H328.93V94.326H320.092V96.126H329.524V97.188H318.76V93.318H327.58V91.698H318.724Z" fill="#1A1A1A"/>
<path d="M4.05 120.518H5.346V122.66C5.346 124.442 6.552 126.26 8.568 127.07L7.848 128.114C6.354 127.484 5.274 126.314 4.716 124.91C4.14 126.44 3.024 127.808 1.476 128.51L0.738 127.448C2.79 126.53 4.05 124.442 4.05 122.66V120.518ZM3.42 131.084V129.986H13.968V135.314H12.618V131.084H3.42ZM9.288 128.996V119.852H10.566V123.704H12.672V119.582H13.968V129.086H12.672V124.82H10.566V128.996H9.288ZM20.1904 120.374H21.5044V122.102C21.5044 124.262 23.1424 126.242 25.3744 127.034L24.6724 128.078C22.9444 127.448 21.5584 126.116 20.8924 124.442C20.2264 126.332 18.8224 127.79 16.9864 128.528L16.2484 127.448C18.6064 126.584 20.1904 124.442 20.1904 122.012V120.374ZM18.3544 132.434C18.3544 130.634 20.2984 129.59 23.5024 129.59C26.7244 129.59 28.6684 130.634 28.6684 132.434C28.6684 134.234 26.7244 135.278 23.5024 135.278C20.2984 135.278 18.3544 134.234 18.3544 132.434ZM19.6684 132.434C19.6684 133.55 21.1444 134.216 23.5024 134.216C25.8784 134.216 27.3364 133.55 27.3364 132.434C27.3364 131.318 25.8784 130.652 23.5024 130.652C21.1444 130.652 19.6684 131.318 19.6684 132.434ZM27.1564 129.158V119.564H28.5064V123.686H30.8644V124.82H28.5064V129.158H27.1564ZM32.4248 126.728H40.0208V128.006H32.4248V126.728ZM51.5827 127.7C53.0947 127.7 54.3007 126.458 54.3007 124.982C54.3007 123.47 53.0767 122.264 51.5647 122.264H47.8927L47.9107 127.7H51.5827ZM46.6147 134V121.004H51.6187C53.8147 121.004 55.5607 122.786 55.5607 124.982C55.5607 127.16 53.8147 128.96 51.6187 128.96H47.9107V134H46.6147ZM58.5645 126.764C59.0865 125.558 60.5805 124.748 61.8225 124.748V126.08C60.1485 126.08 58.5645 127.826 58.5645 129.284V134H57.2685V124.838H58.5645V126.764ZM63.7317 124.838H65.0277V134H63.7317V124.838ZM63.5517 121.508C63.5517 121.058 63.8397 120.698 64.3797 120.698C64.9017 120.698 65.1897 121.058 65.1897 121.508C65.1897 121.976 64.9017 122.336 64.3797 122.336C63.8397 122.336 63.5517 121.976 63.5517 121.508ZM79.3464 128.384C79.3464 126.926 78.4644 126.098 77.1684 126.098C75.9624 126.098 74.7204 127.232 74.7204 128.384V134H73.4244V128.384C73.4244 127.232 72.6864 126.098 71.2824 126.098C70.0044 126.098 68.8164 127.232 68.8164 128.528V134H67.5204V124.838H68.8164V126.422C69.3924 125.432 70.2384 124.838 71.3364 124.838C72.6684 124.838 73.5504 125.414 74.1984 126.674C74.8644 125.738 75.7824 124.838 77.2224 124.838C79.0944 124.838 80.6424 126.35 80.6424 128.24V134H79.3464V128.384ZM86.9034 132.83C88.5234 132.83 89.9814 131.516 89.9994 129.5C89.9814 127.502 88.5234 126.17 86.9034 126.17C84.9054 126.17 83.8254 127.61 83.8254 129.5C83.8254 131.39 84.9054 132.83 86.9034 132.83ZM82.5294 129.5C82.5294 126.998 84.0954 124.892 86.8854 124.892C87.9474 124.892 89.1354 125.45 89.9634 126.782V124.838H91.2594V134H89.9634V132.2C89.0994 133.604 87.9654 134.126 86.8854 134.126C84.0954 134.126 82.5294 131.984 82.5294 129.5ZM94.3864 126.764C94.9084 125.558 96.4024 124.748 97.6444 124.748V126.08C95.9704 126.08 94.3864 127.826 94.3864 129.284V134H93.0904V124.838H94.3864V126.764ZM102.434 138.14H101.03L102.83 133.658L99.0855 124.838H100.508L103.514 131.93L106.394 124.838H107.798L104.306 133.442L102.434 138.14Z" fill="#1A1A1A"/>
<path d="M260.768 120.608C264.098 120.608 266.474 122.228 266.474 124.712C266.474 127.052 264.404 128.582 261.434 128.78V132.146H267.932V133.262H253.658V132.146H260.102V128.78C257.132 128.582 255.062 127.034 255.062 124.712C255.062 122.228 257.456 120.608 260.768 120.608ZM256.376 124.712C256.376 126.512 258.23 127.736 260.768 127.736C263.306 127.736 265.178 126.512 265.178 124.712C265.178 122.894 263.306 121.688 260.768 121.688C258.23 121.688 256.376 122.894 256.376 124.712ZM269.24 128.312H283.514V129.428H269.24V128.312ZM271.058 121.166V120.104H281.66V123.974H272.408V125.774H282.002V126.836H271.094V122.948H280.328V121.166H271.058ZM271.13 134.954V130.706H272.48V133.856H282.02V134.954H271.13ZM285.741 120.158H291.627V121.256H289.575V121.562C289.575 122.426 290.457 123.722 291.933 124.388C293.409 123.74 294.273 122.498 294.273 121.562V121.256H292.239V120.158H298.125V121.256H295.623V121.652C295.623 122.858 296.703 124.244 298.557 124.784L297.963 125.81C296.415 125.306 295.371 124.28 294.903 123.128C294.399 124.154 293.391 125.126 291.933 125.594C290.439 125.108 289.449 124.1 288.963 123.074C288.477 124.19 287.433 125.27 285.885 125.81L285.309 124.784C287.145 124.19 288.243 122.696 288.243 121.652V121.256H285.741V120.158ZM284.823 128.492V127.394H291.267V125.774H292.599V127.394H299.097V128.492H284.823ZM286.371 131.3V130.22H297.243V135.314H295.893V131.3H286.371ZM308.775 123.686H311.979V119.564H313.329V128.942H311.979V124.802H308.775V123.686ZM300.477 127.718C302.781 126.872 304.455 124.748 304.455 122.462V121.85H300.891V120.734H309.297V121.85H305.805V122.462C305.805 124.514 307.389 126.476 309.657 127.268L308.955 128.348C307.191 127.7 305.823 126.368 305.157 124.73C304.491 126.602 303.015 128.078 301.161 128.798L300.477 127.718ZM302.925 132.38C302.925 130.544 304.905 129.446 308.163 129.446C311.403 129.446 313.383 130.544 313.383 132.38C313.383 134.234 311.403 135.296 308.163 135.296C304.905 135.296 302.925 134.234 302.925 132.38ZM304.275 132.38C304.275 133.532 305.751 134.234 308.163 134.234C310.557 134.234 312.051 133.532 312.051 132.38C312.051 131.21 310.557 130.508 308.163 130.508C305.751 130.508 304.275 131.21 304.275 132.38ZM324.448 121.508H327.562V119.564H328.93V127.844H327.562V125.414H324.448V124.316H327.562V122.624H324.448V121.508ZM316.618 121.382V120.32H323.386V124.244H317.986V126.224C320.29 126.224 322.09 126.152 324.322 125.828L324.43 126.89C322.09 127.25 320.218 127.304 317.77 127.304H316.672V123.218H322.054V121.382H316.618ZM318.724 129.698V128.636H328.93V132.326H320.092V134.126H329.524V135.188H318.76V131.318H327.58V129.698H318.724Z" fill="#1A1A1A"/>
<path d="M443.05 120.518H444.346V122.66C444.346 124.442 445.552 126.26 447.568 127.07L446.848 128.114C445.354 127.484 444.274 126.314 443.716 124.91C443.14 126.44 442.024 127.808 440.476 128.51L439.738 127.448C441.79 126.53 443.05 124.442 443.05 122.66V120.518ZM442.42 131.084V129.986H452.968V135.314H451.618V131.084H442.42ZM448.288 128.996V119.852H449.566V123.704H451.672V119.582H452.968V129.086H451.672V124.82H449.566V128.996H448.288ZM459.19 120.374H460.504V122.102C460.504 124.262 462.142 126.242 464.374 127.034L463.672 128.078C461.944 127.448 460.558 126.116 459.892 124.442C459.226 126.332 457.822 127.79 455.986 128.528L455.248 127.448C457.606 126.584 459.19 124.442 459.19 122.012V120.374ZM457.354 132.434C457.354 130.634 459.298 129.59 462.502 129.59C465.724 129.59 467.668 130.634 467.668 132.434C467.668 134.234 465.724 135.278 462.502 135.278C459.298 135.278 457.354 134.234 457.354 132.434ZM458.668 132.434C458.668 133.55 460.144 134.216 462.502 134.216C464.878 134.216 466.336 133.55 466.336 132.434C466.336 131.318 464.878 130.652 462.502 130.652C460.144 130.652 458.668 131.318 458.668 132.434ZM466.156 129.158V119.564H467.506V123.686H469.864V124.82H467.506V129.158H466.156ZM471.425 126.728H479.021V128.006H471.425V126.728ZM490.583 127.7C492.095 127.7 493.301 126.458 493.301 124.982C493.301 123.47 492.077 122.264 490.565 122.264H486.893L486.911 127.7H490.583ZM485.615 134V121.004H490.619C492.815 121.004 494.561 122.786 494.561 124.982C494.561 127.16 492.815 128.96 490.619 128.96H486.911V134H485.615ZM497.565 126.764C498.087 125.558 499.581 124.748 500.823 124.748V126.08C499.149 126.08 497.565 127.826 497.565 129.284V134H496.269V124.838H497.565V126.764ZM502.732 124.838H504.028V134H502.732V124.838ZM502.552 121.508C502.552 121.058 502.84 120.698 503.38 120.698C503.902 120.698 504.19 121.058 504.19 121.508C504.19 121.976 503.902 122.336 503.38 122.336C502.84 122.336 502.552 121.976 502.552 121.508ZM518.346 128.384C518.346 126.926 517.464 126.098 516.168 126.098C514.962 126.098 513.72 127.232 513.72 128.384V134H512.424V128.384C512.424 127.232 511.686 126.098 510.282 126.098C509.004 126.098 507.816 127.232 507.816 128.528V134H506.52V124.838H507.816V126.422C508.392 125.432 509.238 124.838 510.336 124.838C511.668 124.838 512.55 125.414 513.198 126.674C513.864 125.738 514.782 124.838 516.222 124.838C518.094 124.838 519.642 126.35 519.642 128.24V134H518.346V128.384ZM525.903 132.83C527.523 132.83 528.981 131.516 528.999 129.5C528.981 127.502 527.523 126.17 525.903 126.17C523.905 126.17 522.825 127.61 522.825 129.5C522.825 131.39 523.905 132.83 525.903 132.83ZM521.529 129.5C521.529 126.998 523.095 124.892 525.885 124.892C526.947 124.892 528.135 125.45 528.963 126.782V124.838H530.259V134H528.963V132.2C528.099 133.604 526.965 134.126 525.885 134.126C523.095 134.126 521.529 131.984 521.529 129.5ZM533.386 126.764C533.908 125.558 535.402 124.748 536.644 124.748V126.08C534.97 126.08 533.386 127.826 533.386 129.284V134H532.09V124.838H533.386V126.764ZM541.434 138.14H540.03L541.83 133.658L538.086 124.838H539.508L542.514 131.93L545.394 124.838H546.798L543.306 133.442L541.434 138.14Z" fill="#1A1A1A"/>
<path d="M699.786 120.338C703.188 120.338 705.69 122.048 705.69 124.658C705.69 127.034 703.638 128.636 700.74 128.924V131.912H707.04V133.478H692.55V131.912H698.814V128.924C695.916 128.636 693.882 127.034 693.882 124.658C693.882 122.048 696.384 120.338 699.786 120.338ZM695.772 124.658C695.772 126.368 697.446 127.448 699.786 127.448C702.126 127.448 703.8 126.368 703.8 124.658C703.8 122.948 702.126 121.868 699.786 121.868C697.446 121.868 695.772 122.948 695.772 124.658ZM708.132 128.168H722.622V129.734H708.132V128.168ZM709.95 121.346V119.87H720.822V124.118H711.876V125.522H721.146V126.98H709.968V122.732H718.914V121.346H709.95ZM709.986 135.134V130.778H711.93V133.568H721.2V135.134H709.986ZM724.669 120.014H730.627V121.562H728.845V121.67C728.845 122.48 729.601 123.506 730.951 124.082C732.283 123.524 733.021 122.516 733.021 121.67V121.562H731.257V120.014H737.215V121.562H734.965V121.724C734.965 122.84 735.937 124.046 737.827 124.496L736.999 125.936C735.451 125.504 734.443 124.604 733.921 123.524C733.399 124.496 732.427 125.324 730.933 125.72C729.439 125.324 728.467 124.46 727.945 123.506C727.441 124.568 726.415 125.504 724.867 125.936L724.075 124.496C725.947 124.01 726.919 122.732 726.919 121.724V121.562H724.669V120.014ZM723.715 128.762V127.214H729.979V125.792H731.905V127.214H738.205V128.762H723.715ZM725.281 131.768V130.238H736.405V135.44H734.461V131.768H725.281ZM747.883 123.434H750.637V119.438H752.581V128.942H750.637V125.018H747.883V123.434ZM739.261 127.358C741.781 126.476 743.149 124.334 743.149 122.174V122.048H739.819V120.5H748.387V122.048H745.111V122.174C745.111 124.136 746.389 126.116 748.837 126.944L747.883 128.474C746.119 127.862 744.859 126.638 744.175 125.126C743.473 126.854 742.141 128.24 740.251 128.906L739.261 127.358ZM741.799 132.416C741.799 130.508 743.869 129.374 747.235 129.374C750.583 129.374 752.635 130.508 752.635 132.416C752.635 134.342 750.583 135.44 747.235 135.44C743.869 135.44 741.799 134.342 741.799 132.416ZM743.743 132.416C743.743 133.424 745.003 133.964 747.235 133.964C749.449 133.964 750.709 133.424 750.709 132.416C750.709 131.39 749.449 130.85 747.235 130.85C745.003 130.85 743.743 131.39 743.743 132.416ZM763.448 121.238H766.238V119.438H768.182V127.808H766.238V125.72H763.448V124.172H766.238V122.786H763.448V121.238ZM755.492 121.652V120.176H762.458V124.424H757.436V125.9C759.578 125.9 761.198 125.846 763.178 125.576L763.322 127.052C761.09 127.376 759.254 127.412 756.698 127.412H755.528V123.038H760.55V121.652H755.492ZM757.616 129.95V128.492H768.182V132.542H759.56V133.856H768.704V135.332H757.634V131.174H766.256V129.95H757.616Z" fill="#1A1A1A"/>
<path d="M443.05 82.518H444.346V84.66C444.346 86.442 445.552 88.26 447.568 89.07L446.848 90.114C445.354 89.484 444.274 88.314 443.716 86.91C443.14 88.44 442.024 89.808 440.476 90.51L439.738 89.448C441.79 88.53 443.05 86.442 443.05 84.66V82.518ZM442.42 93.084V91.986H452.968V97.314H451.618V93.084H442.42ZM448.288 90.996V81.852H449.566V85.704H451.672V81.582H452.968V91.086H451.672V86.82H449.566V90.996H448.288ZM459.19 82.374H460.504V84.102C460.504 86.262 462.142 88.242 464.374 89.034L463.672 90.078C461.944 89.448 460.558 88.116 459.892 86.442C459.226 88.332 457.822 89.79 455.986 90.528L455.248 89.448C457.606 88.584 459.19 86.442 459.19 84.012V82.374ZM457.354 94.434C457.354 92.634 459.298 91.59 462.502 91.59C465.724 91.59 467.668 92.634 467.668 94.434C467.668 96.234 465.724 97.278 462.502 97.278C459.298 97.278 457.354 96.234 457.354 94.434ZM458.668 94.434C458.668 95.55 460.144 96.216 462.502 96.216C464.878 96.216 466.336 95.55 466.336 94.434C466.336 93.318 464.878 92.652 462.502 92.652C460.144 92.652 458.668 93.318 458.668 94.434ZM466.156 91.158V81.564H467.506V85.686H469.864V86.82H467.506V91.158H466.156ZM471.425 88.728H479.021V90.006H471.425V88.728ZM486.677 92.814C487.271 94.128 488.513 94.902 490.169 94.866C492.977 94.776 493.733 91.176 491.051 90.456C490.187 90.132 488.765 89.736 487.523 88.89C485.723 87.648 485.741 85.83 486.281 84.678C487.001 83.166 488.927 82.734 490.007 82.824C491.069 82.896 492.509 83.328 493.391 84.606L492.311 85.326C491.717 84.48 490.799 84.192 489.899 84.12C489.089 84.084 487.919 84.336 487.469 85.218C487.109 86.046 487.109 87 488.243 87.81C489.305 88.548 490.583 88.908 491.483 89.232C495.551 90.474 494.399 96.036 490.205 96.162C488.135 96.234 486.245 95.136 485.489 93.318L486.677 92.814ZM502.792 90.78C502.648 89.484 502.018 88.098 500.074 88.098C498.364 88.098 497.266 89.016 497.032 90.798L502.792 90.78ZM495.7 91.428C495.7 88.908 497.212 86.802 500.02 86.802C502.936 86.802 503.674 89.07 503.764 89.286C504.304 90.762 504.088 92.058 504.088 92.058H497.032C497.266 93.75 498.364 94.758 500.038 94.758C502.108 94.758 502.612 93.624 502.738 93.444L503.854 94.038C503.854 94.038 503.098 96.054 500.02 96.054C497.212 96.054 495.7 93.93 495.7 91.428ZM509.764 94.794C510.7 94.794 511.564 94.434 512.176 93.822L513.148 94.686C512.284 95.55 511.132 96.09 509.836 96.09C506.884 96.09 505.174 93.912 505.174 91.266C505.174 88.638 506.884 86.46 509.836 86.46C511.132 86.46 512.284 87 513.148 87.864L512.176 88.728C511.564 88.116 510.7 87.756 509.764 87.756C507.64 87.756 506.47 89.322 506.47 91.266C506.47 93.228 507.64 94.794 509.764 94.794ZM518.459 94.812C520.475 94.812 521.537 93.336 521.537 91.428C521.537 89.52 520.475 88.044 518.459 88.044C516.425 88.044 515.399 89.52 515.399 91.428C515.399 93.336 516.425 94.812 518.459 94.812ZM514.103 91.428C514.103 88.926 515.651 86.784 518.459 86.784C521.285 86.784 522.833 88.926 522.833 91.428C522.833 93.93 521.285 96.072 518.459 96.072C515.651 96.072 514.103 93.93 514.103 91.428ZM530.968 90.6C530.968 89.124 530.104 88.098 528.592 88.098C527.026 88.098 525.874 89.556 525.874 90.78V96H524.578V86.838H525.874V88.404C526.486 87.504 527.386 86.838 528.646 86.838C530.788 86.838 532.264 88.458 532.264 90.474V96H530.968V90.6ZM538.374 96.144C535.584 96.144 534 94.002 534 91.482C534 88.98 535.584 86.82 538.374 86.82C539.544 86.82 540.768 87.414 541.524 88.782V82.644H542.82V96H541.524V94.182C540.75 95.55 539.544 96.144 538.374 96.144ZM535.296 91.482C535.296 93.408 536.394 94.848 538.428 94.848C540.084 94.848 541.524 93.408 541.524 91.482C541.524 89.574 540.084 88.116 538.428 88.116C536.394 88.116 535.296 89.574 535.296 91.482ZM548.965 94.83C550.585 94.83 552.043 93.516 552.061 91.5C552.043 89.502 550.585 88.17 548.965 88.17C546.967 88.17 545.887 89.61 545.887 91.5C545.887 93.39 546.967 94.83 548.965 94.83ZM544.591 91.5C544.591 88.998 546.157 86.892 548.947 86.892C550.009 86.892 551.197 87.45 552.025 88.782V86.838H553.321V96H552.025V94.2C551.161 95.604 550.027 96.126 548.947 96.126C546.157 96.126 544.591 93.984 544.591 91.5ZM556.448 88.764C556.97 87.558 558.464 86.748 559.706 86.748V88.08C558.032 88.08 556.448 89.826 556.448 91.284V96H555.152V86.838H556.448V88.764ZM564.495 100.14H563.091L564.891 95.658L561.147 86.838H562.569L565.575 93.93L568.455 86.838H569.859L566.367 95.442L564.495 100.14Z" fill="#616161"/>
<path d="M699.786 82.338C703.188 82.338 705.69 84.048 705.69 86.658C705.69 89.034 703.638 90.636 700.74 90.924V93.912H707.04V95.478H692.55V93.912H698.814V90.924C695.916 90.636 693.882 89.034 693.882 86.658C693.882 84.048 696.384 82.338 699.786 82.338ZM695.772 86.658C695.772 88.368 697.446 89.448 699.786 89.448C702.126 89.448 703.8 88.368 703.8 86.658C703.8 84.948 702.126 83.868 699.786 83.868C697.446 83.868 695.772 84.948 695.772 86.658ZM708.132 90.168H722.622V91.734H708.132V90.168ZM709.95 83.346V81.87H720.822V86.118H711.876V87.522H721.146V88.98H709.968V84.732H718.914V83.346H709.95ZM709.986 97.134V92.778H711.93V95.568H721.2V97.134H709.986ZM724.669 82.014H730.627V83.562H728.845V83.67C728.845 84.48 729.601 85.506 730.951 86.082C732.283 85.524 733.021 84.516 733.021 83.67V83.562H731.257V82.014H737.215V83.562H734.965V83.724C734.965 84.84 735.937 86.046 737.827 86.496L736.999 87.936C735.451 87.504 734.443 86.604 733.921 85.524C733.399 86.496 732.427 87.324 730.933 87.72C729.439 87.324 728.467 86.46 727.945 85.506C727.441 86.568 726.415 87.504 724.867 87.936L724.075 86.496C725.947 86.01 726.919 84.732 726.919 83.724V83.562H724.669V82.014ZM723.715 90.762V89.214H729.979V87.792H731.905V89.214H738.205V90.762H723.715ZM725.281 93.768V92.238H736.405V97.44H734.461V93.768H725.281ZM747.883 85.434H750.637V81.438H752.581V90.942H750.637V87.018H747.883V85.434ZM739.261 89.358C741.781 88.476 743.149 86.334 743.149 84.174V84.048H739.819V82.5H748.387V84.048H745.111V84.174C745.111 86.136 746.389 88.116 748.837 88.944L747.883 90.474C746.119 89.862 744.859 88.638 744.175 87.126C743.473 88.854 742.141 90.24 740.251 90.906L739.261 89.358ZM741.799 94.416C741.799 92.508 743.869 91.374 747.235 91.374C750.583 91.374 752.635 92.508 752.635 94.416C752.635 96.342 750.583 97.44 747.235 97.44C743.869 97.44 741.799 96.342 741.799 94.416ZM743.743 94.416C743.743 95.424 745.003 95.964 747.235 95.964C749.449 95.964 750.709 95.424 750.709 94.416C750.709 93.39 749.449 92.85 747.235 92.85C745.003 92.85 743.743 93.39 743.743 94.416ZM763.448 83.238H766.238V81.438H768.182V89.808H766.238V87.72H763.448V86.172H766.238V84.786H763.448V83.238ZM755.492 83.652V82.176H762.458V86.424H757.436V87.9C759.578 87.9 761.198 87.846 763.178 87.576L763.322 89.052C761.09 89.376 759.254 89.412 756.698 89.412H755.528V85.038H760.55V83.652H755.492ZM757.616 91.95V90.492H768.182V94.542H759.56V95.856H768.704V97.332H757.634V93.174H766.256V91.95H757.616Z" fill="#1A1A1A"/>
</svg>
