<svg width="65" height="27" viewBox="0 0 65 27" fill="none" xmlns="http://www.w3.org/2000/svg">
<path d="M2.77212 7.004V18.74H9.50412V20H1.47612V7.004H2.77212ZM14.7406 18.83C16.3606 18.83 17.8186 17.516 17.8366 15.5C17.8186 13.502 16.3606 12.17 14.7406 12.17C12.7426 12.17 11.6626 13.61 11.6626 15.5C11.6626 17.39 12.7426 18.83 14.7406 18.83ZM10.3666 15.5C10.3666 12.998 11.9326 10.892 14.7226 10.892C15.7846 10.892 16.9726 11.45 17.8006 12.782V10.838H19.0966V20H17.8006V18.2C16.9366 19.604 15.8026 20.126 14.7226 20.126C11.9326 20.126 10.3666 17.984 10.3666 15.5ZM25.7967 18.866C27.8307 18.866 28.9287 17.408 28.9287 15.482C28.9287 13.574 27.8307 12.098 25.7967 12.098C24.1227 12.098 22.7007 13.574 22.7007 15.482C22.7007 17.408 24.1227 18.866 25.7967 18.866ZM21.4047 20V6.644H22.7007V12.764C23.5467 11.288 24.8067 10.838 25.8327 10.838C28.6587 10.838 30.2247 12.98 30.2247 15.482C30.2247 18.002 28.6407 20.144 25.8147 20.144C24.8067 20.144 23.5467 19.712 22.7007 18.2V20H21.4047ZM38.727 14.78C38.583 13.484 37.953 12.098 36.009 12.098C34.299 12.098 33.201 13.016 32.967 14.798L38.727 14.78ZM31.635 15.428C31.635 12.908 33.147 10.802 35.955 10.802C38.871 10.802 39.609 13.07 39.699 13.286C40.239 14.762 40.023 16.058 40.023 16.058H32.967C33.201 17.75 34.299 18.758 35.973 18.758C38.043 18.758 38.547 17.624 38.673 17.444L39.789 18.038C39.789 18.038 39.033 20.054 35.955 20.054C33.147 20.054 31.635 17.93 31.635 15.428ZM41.6849 6.644H42.9809V20H41.6849V6.644Z" fill="#333333"/>
<path d="M0.00012207 22.25H44.1329V23.15H0.00012207V22.25Z" fill="#333333"/>
<path fill-rule="evenodd" clip-rule="evenodd" d="M52.0582 8.05806C52.3023 7.81398 52.698 7.81398 52.9421 8.05806L57.9421 13.0581C58.1861 13.3021 58.1861 13.6979 57.9421 13.9419L52.9421 18.9419C52.698 19.186 52.3023 19.186 52.0582 18.9419C51.8141 18.6979 51.8141 18.3021 52.0582 18.0581L56.6162 13.5L52.0582 8.94194C51.8141 8.69786 51.8141 8.30214 52.0582 8.05806Z" fill="#555555"/>
</svg>
