<svg width="360" height="210" viewBox="0 0 360 210" fill="none" xmlns="http://www.w3.org/2000/svg">
<g filter="url(#filter0_dd_1127_61260)">
<g clip-path="url(#clip0_1127_61260)">
<rect x="21.7041" y="19.0215" width="316" height="233.638" rx="11.9527" fill="white"/>
<path d="M36.6448 115.244C36.6448 110.293 40.6584 106.279 45.6094 106.279C50.5604 106.279 54.5739 110.293 54.5739 115.244C54.5739 120.195 50.5604 124.208 45.6094 124.208C40.6584 124.208 36.6448 120.195 36.6448 115.244Z" fill="#FEE500"/>
<g clip-path="url(#clip1_1127_61260)">
<g clip-path="url(#clip2_1127_61260)">
<g clip-path="url(#clip3_1127_61260)">
<path d="M45.6623 111.3C43.1723 111.3 41.1659 112.876 41.1659 114.847C41.1659 116.119 42.0079 117.247 43.2977 117.856C43.2081 118.197 42.9573 119.128 42.9036 119.325C42.8498 119.576 42.9931 119.576 43.0827 119.504C43.1723 119.451 44.3009 118.663 44.8025 118.322C45.0712 118.358 45.3578 118.376 45.6265 118.376C48.0987 118.376 50.123 116.799 50.123 114.829C50.1409 112.876 48.1345 111.3 45.6623 111.3Z" fill="#391B1B"/>
</g>
</g>
</g>
<path d="M67.1796 110.049C67.1796 113.653 66.1845 116.759 61.8008 118.964L61.0344 117.862C63.0917 116.826 64.3288 115.616 65.0146 114.177L61.3168 114.54L61.1285 113.29L65.4449 113.021C65.6063 112.456 65.7004 111.851 65.7542 111.205H61.7336V110.049H67.1796ZM68.847 120.806V108.852H70.2992V113.545H72.0742V114.742H70.2992V120.806H68.847ZM78.8203 110.049C78.8203 113.653 77.8253 116.759 73.4416 118.964L72.6751 117.862C74.7325 116.826 75.9696 115.616 76.6554 114.177L72.9575 114.54L72.7693 113.29L77.0857 113.021C77.2471 112.456 77.3412 111.851 77.395 111.205H73.3744V110.049H78.8203ZM80.4877 120.806V108.852H81.94V113.545H83.715V114.742H81.94V120.806H80.4877ZM89.6946 109.538C92.2361 109.538 94.1052 110.815 94.1052 112.765C94.1052 114.54 92.5723 115.737 90.4073 115.952V118.184H95.1137V119.354H84.289V118.184H88.9685V115.952C86.8036 115.737 85.2841 114.54 85.2841 112.765C85.2841 110.815 87.1532 109.538 89.6946 109.538ZM86.696 112.765C86.696 114.043 87.9466 114.85 89.6946 114.85C91.4427 114.85 92.6933 114.043 92.6933 112.765C92.6933 111.488 91.4427 110.681 89.6946 110.681C87.9466 110.681 86.696 111.488 86.696 112.765ZM107.388 108.879H108.841V117.646H107.388V114.661H104.591C104.027 115.307 103.166 115.683 102.198 115.683C100.423 115.683 99.0782 114.433 99.0782 112.658C99.0782 110.869 100.423 109.592 102.198 109.592C103.166 109.592 104 109.968 104.564 110.614H107.388V108.879ZM100.45 112.658C100.45 113.733 101.189 114.433 102.198 114.433C103.193 114.433 103.946 113.733 103.946 112.658C103.946 111.568 103.193 110.869 102.198 110.869C101.189 110.869 100.45 111.568 100.45 112.658ZM101.055 120.591V116.759H102.507V119.421H109.15V120.591H101.055ZM105.196 111.784C105.277 112.053 105.317 112.348 105.317 112.658C105.317 112.954 105.277 113.236 105.21 113.491H107.388V111.784H105.196ZM119.029 108.866H120.481V114.903H119.029V113.868H116.178V112.765H119.029V111.568H116.326C115.587 113.397 113.839 114.581 111.203 115.186L110.719 114.016C113.516 113.411 114.928 112.147 115.116 110.533H111.378V109.377H116.716C116.716 109.753 116.689 110.116 116.622 110.466H119.029V108.866ZM112.669 116.53V115.387H120.481V118.534H114.134V119.556H120.791V120.699H112.696V117.445H119.029V116.53H112.669Z" fill="#1A1A1A"/>
<path fill-rule="evenodd" clip-rule="evenodd" d="M311.161 110.366C311.38 110.147 311.735 110.147 311.954 110.366L316.436 114.849C316.655 115.067 316.655 115.422 316.436 115.641L311.954 120.123C311.735 120.342 311.38 120.342 311.161 120.123C310.942 119.904 310.942 119.55 311.161 119.331L315.247 115.245L311.161 111.159C310.942 110.94 310.942 110.585 311.161 110.366Z" fill="#BDBDBD"/>
<path d="M36.6448 172.102C36.6448 167.151 40.6584 163.138 45.6094 163.138C50.5604 163.138 54.5739 167.151 54.5739 172.102C54.5739 177.053 50.5604 181.067 45.6094 181.067C40.6584 181.067 36.6448 177.053 36.6448 172.102Z" fill="#03C75A"/>
<path d="M47.0197 167.997V172.132L44.199 167.997H41.1271V176.208H44.1797V172.074L47.0197 176.208H50.0916V167.997H47.0197Z" fill="white"/>
<path d="M61.5185 166.934H62.9438V173.51C64.1137 173.483 65.1894 173.416 66.4265 173.16L66.6148 174.37C65.1222 174.693 63.8044 174.747 62.3253 174.747H61.5185V166.934ZM64.8398 170.78V169.597H67.3275V165.966H68.6856V177.1H67.3275V170.78H64.8398ZM69.8689 177.678V165.724H71.2405V177.678H69.8689ZM81.0525 165.711H82.5048V177.705H81.0525V165.711ZM73.0248 170.807C73.0248 168.225 74.3157 166.585 76.1175 166.585C77.9194 166.585 79.2103 168.225 79.2103 170.807C79.2103 173.402 77.9194 175.056 76.1175 175.056C74.3157 175.056 73.0248 173.402 73.0248 170.807ZM74.4232 170.807C74.4232 172.663 75.109 173.738 76.1175 173.738C77.126 173.738 77.8253 172.663 77.8253 170.807C77.8253 168.978 77.126 167.902 76.1175 167.902C75.109 167.902 74.4232 168.978 74.4232 170.807ZM92.7874 165.711H94.2397V177.705H92.7874V171.197H90.3804V174.801H84.7328V166.665H86.185V169.637H88.9551V166.665H90.3804V170.027H92.7874V165.711ZM86.185 173.631H88.9551V170.78H86.185V173.631ZM107.388 165.738H108.841V174.505H107.388V171.52H104.591C104.027 172.165 103.166 172.542 102.198 172.542C100.423 172.542 99.0782 171.291 99.0782 169.516C99.0782 167.728 100.423 166.45 102.198 166.45C103.166 166.45 104 166.827 104.564 167.472H107.388V165.738ZM100.45 169.516C100.45 170.592 101.189 171.291 102.198 171.291C103.193 171.291 103.946 170.592 103.946 169.516C103.946 168.427 103.193 167.728 102.198 167.728C101.189 167.728 100.45 168.427 100.45 169.516ZM101.055 177.45V173.617H102.507V176.28H109.15V177.45H101.055ZM105.196 168.642C105.277 168.911 105.317 169.207 105.317 169.516C105.317 169.812 105.277 170.094 105.21 170.35H107.388V168.642H105.196ZM119.029 165.724H120.481V171.762H119.029V170.726H116.178V169.624H119.029V168.427H116.326C115.587 170.256 113.839 171.439 111.203 172.044L110.719 170.874C113.516 170.269 114.928 169.005 115.116 167.391H111.378V166.235H116.716C116.716 166.612 116.689 166.975 116.622 167.324H119.029V165.724ZM112.669 173.389V172.246H120.481V175.392H114.134V176.414H120.791V177.557H112.696V174.303H119.029V173.389H112.669Z" fill="#1A1A1A"/>
<path fill-rule="evenodd" clip-rule="evenodd" d="M244.833 167.225C245.052 167.006 245.407 167.006 245.626 167.225L250.108 171.707C250.327 171.926 250.327 172.28 250.108 172.499L245.626 176.982C245.407 177.2 245.052 177.2 244.833 176.982C244.614 176.763 244.614 176.408 244.833 176.189L248.919 172.103L244.833 168.017C244.614 167.798 244.614 167.443 244.833 167.225Z" fill="#BDBDBD"/>
<rect width="268.936" height="49.8323" transform="translate(21.5546 26.8838)" fill="white"/>
<path fill-rule="evenodd" clip-rule="evenodd" d="M46.2101 45.8319C46.5576 46.1794 46.5576 46.7429 46.2101 47.0904L41.5002 51.8003L46.2101 56.5103C46.5576 56.8578 46.5576 57.4212 46.2101 57.7687C45.8626 58.1162 45.2992 58.1162 44.9517 57.7687L39.6125 52.4296C39.265 52.082 39.265 51.5186 39.6125 51.1711L44.9517 45.8319C45.2992 45.4844 45.8626 45.4844 46.2101 45.8319Z" fill="#555555"/>
<path d="M70.942 54.9539C71.4581 56.1107 72.4725 56.7336 73.9853 56.6803C76.2278 56.6091 77.0108 53.9217 74.7328 53.2276C73.8963 52.925 72.4191 52.5157 71.1377 51.6614C69.3046 50.4156 69.0911 48.4579 69.7852 46.9986C70.5504 45.3968 72.5615 44.8451 73.8607 44.9519C74.9997 45.0409 76.5659 45.4858 77.527 46.874L75.765 48.0842C75.2667 47.3723 74.5548 47.1587 73.7005 47.0875C72.9531 47.0341 72.0454 47.2299 71.7073 47.924C71.4403 48.5469 71.3869 49.2232 72.3302 49.8817C73.3268 50.558 74.537 50.8962 75.4269 51.2165C79.9296 52.6581 78.6482 58.6913 74.0565 58.8159C71.8318 58.8871 69.8029 57.7303 68.9843 55.7904L70.942 54.9539ZM92.2318 45.2544V58.4956H89.4554L82.3721 48.2266V58.4956H80.2364V45.2544H82.9238L90.0961 55.648V45.2544H92.2318ZM96.189 54.9539C96.7052 56.1107 97.7196 56.7336 99.2324 56.6803C101.475 56.6091 102.258 53.9217 99.9798 53.2276C99.1434 52.925 97.6662 52.5157 96.3848 51.6614C94.5517 50.4156 94.3381 48.4579 95.0322 46.9986C95.7975 45.3968 97.8086 44.8451 99.1078 44.9519C100.247 45.0409 101.813 45.4858 102.774 46.874L101.012 48.0842C100.514 47.3723 99.8019 47.1587 98.9476 47.0875C98.2001 47.0341 97.2925 47.2299 96.9543 47.924C96.6874 48.5469 96.634 49.2232 97.5772 49.8817C98.5739 50.558 99.7841 50.8962 100.674 51.2165C105.177 52.6581 103.895 58.6913 99.3036 58.8159C97.0789 58.8871 95.05 57.7303 94.2313 55.7904L96.189 54.9539ZM115.704 43.8484H117.929V55.5056H115.704V51.7148H112.109C111.344 52.5335 110.24 53.014 108.995 53.014C106.628 53.014 104.794 51.2877 104.794 48.9029C104.794 46.5002 106.628 44.7917 108.995 44.7917C110.24 44.7917 111.344 45.2722 112.109 46.0731H115.704V43.8484ZM106.877 48.9029C106.877 50.2732 107.784 51.0919 108.995 51.0919C110.187 51.0919 111.095 50.2732 111.095 48.9029C111.095 47.5503 110.187 46.7316 108.995 46.7316C107.784 46.7316 106.877 47.5503 106.877 48.9029ZM107.411 59.4922V54.3666H109.635V57.7303H118.285V59.4922H107.411ZM113.07 47.835C113.141 48.1732 113.195 48.5291 113.195 48.9029C113.195 49.2766 113.159 49.6147 113.07 49.9529H115.704V47.835H113.07ZM131.126 43.8306H133.333V51.8572H131.126V50.6292H127.513V48.9385H131.126V47.5325H127.691C126.712 49.9351 124.452 51.4479 120.946 52.2131L120.216 50.4512C123.865 49.7037 125.538 48.1376 125.804 46.2155H121.106V44.4535H128.243C128.243 44.9519 128.207 45.4146 128.136 45.8595H131.126V43.8306ZM122.832 54.1886V52.4623H133.333V56.8048H125.057V57.9083H133.671V59.6346H122.85V55.1675H131.126V54.1886H122.832Z" fill="#333333"/>
</g>
</g>
<defs>
<filter id="filter0_dd_1127_61260" x="0.189209" y="0.195953" width="359.03" height="276.668" filterUnits="userSpaceOnUse" color-interpolation-filters="sRGB">
<feFlood flood-opacity="0" result="BackgroundImageFix"/>
<feColorMatrix in="SourceAlpha" type="matrix" values="0 0 0 0 0 0 0 0 0 0 0 0 0 0 0 0 0 0 127 0" result="hardAlpha"/>
<feOffset/>
<feGaussianBlur stdDeviation="0.67234"/>
<feComposite in2="hardAlpha" operator="out"/>
<feColorMatrix type="matrix" values="0 0 0 0 0 0 0 0 0 0 0 0 0 0 0 0 0 0 0.2 0"/>
<feBlend mode="normal" in2="BackgroundImageFix" result="effect1_dropShadow_1127_61260"/>
<feColorMatrix in="SourceAlpha" type="matrix" values="0 0 0 0 0 0 0 0 0 0 0 0 0 0 0 0 0 0 127 0" result="hardAlpha"/>
<feOffset dy="2.68936"/>
<feGaussianBlur stdDeviation="10.7574"/>
<feComposite in2="hardAlpha" operator="out"/>
<feColorMatrix type="matrix" values="0 0 0 0 0 0 0 0 0 0 0 0 0 0 0 0 0 0 0.08 0"/>
<feBlend mode="normal" in2="effect1_dropShadow_1127_61260" result="effect2_dropShadow_1127_61260"/>
<feBlend mode="normal" in="SourceGraphic" in2="effect2_dropShadow_1127_61260" result="shape"/>
</filter>
<clipPath id="clip0_1127_61260">
<rect x="21.7041" y="19.0215" width="316" height="233.638" rx="11.9527" fill="white"/>
</clipPath>
<clipPath id="clip1_1127_61260">
<rect width="10.7485" height="10.7485" fill="white" transform="translate(40.2351 109.869)"/>
</clipPath>
<clipPath id="clip2_1127_61260">
<rect width="10.7485" height="10.7485" fill="white" transform="translate(40.235 109.868)"/>
</clipPath>
<clipPath id="clip3_1127_61260">
<rect width="10.7485" height="10.7485" fill="white" transform="translate(40.2349 109.868)"/>
</clipPath>
</defs>
</svg>
