<svg width="141" height="48" viewBox="0 0 141 48" fill="none" xmlns="http://www.w3.org/2000/svg">
<mask id="path-1-inside-1_890_34798" fill="white">
<path d="M-0.000244141 8C-0.000244141 3.58172 3.58148 0 7.99976 0H133C137.418 0 141 3.58172 141 8V40C141 44.4183 137.418 48 133 48H7.99976C3.58148 48 -0.000244141 44.4183 -0.000244141 40V8Z"/>
</mask>
<path d="M-0.000244141 8C-0.000244141 3.58172 3.58148 0 7.99976 0H133C137.418 0 141 3.58172 141 8V40C141 44.4183 137.418 48 133 48H7.99976C3.58148 48 -0.000244141 44.4183 -0.000244141 40V8Z" fill="white"/>
<path d="M7.99976 0V1H133V0V-1H7.99976V0ZM141 8H140V40H141H142V8H141ZM133 48V47H7.99976V48V49H133V48ZM-0.000244141 40H0.999756V8H-0.000244141H-1.00024V40H-0.000244141ZM7.99976 48V47C4.13376 47 0.999756 43.866 0.999756 40H-0.000244141H-1.00024C-1.00024 44.9706 3.0292 49 7.99976 49V48ZM141 40H140C140 43.866 136.866 47 133 47V48V49C137.97 49 142 44.9706 142 40H141ZM133 0V1C136.866 1 140 4.13401 140 8H141H142C142 3.02944 137.97 -1 133 -1V0ZM7.99976 0V-1C3.02919 -1 -1.00024 3.02944 -1.00024 8H-0.000244141H0.999756C0.999756 4.13401 4.13376 1 7.99976 1V0Z" fill="#E0E0E0" mask="url(#path-1-inside-1_890_34798)"/>
<path fill-rule="evenodd" clip-rule="evenodd" d="M40.7069 17.2929C41.0974 17.6834 41.0974 18.3166 40.7069 18.7071L29.7069 29.7071C29.3163 30.0976 28.6832 30.0976 28.2926 29.7071L23.2926 24.7071C22.9021 24.3166 22.9021 23.6834 23.2926 23.2929C23.6832 22.9024 24.3163 22.9024 24.7069 23.2929L28.9998 27.5858L39.2927 17.2929C39.6832 16.9024 40.3163 16.9024 40.7069 17.2929Z" fill="#333333"/>
<path d="M50.7718 17.504V29.24H57.5038V30.5H49.4758V17.504H50.7718ZM62.7403 29.33C64.3603 29.33 65.8183 28.016 65.8363 26C65.8183 24.002 64.3603 22.67 62.7403 22.67C60.7423 22.67 59.6623 24.11 59.6623 26C59.6623 27.89 60.7423 29.33 62.7403 29.33ZM58.3663 26C58.3663 23.498 59.9323 21.392 62.7223 21.392C63.7843 21.392 64.9723 21.95 65.8003 23.282V21.338H67.0963V30.5H65.8003V28.7C64.9363 30.104 63.8023 30.626 62.7223 30.626C59.9323 30.626 58.3663 28.484 58.3663 26ZM73.7964 29.366C75.8304 29.366 76.9284 27.908 76.9284 25.982C76.9284 24.074 75.8304 22.598 73.7964 22.598C72.1224 22.598 70.7004 24.074 70.7004 25.982C70.7004 27.908 72.1224 29.366 73.7964 29.366ZM69.4044 30.5V17.144H70.7004V23.264C71.5464 21.788 72.8064 21.338 73.8324 21.338C76.6584 21.338 78.2244 23.48 78.2244 25.982C78.2244 28.502 76.6404 30.644 73.8144 30.644C72.8064 30.644 71.5464 30.212 70.7004 28.7V30.5H69.4044ZM86.7266 25.28C86.5826 23.984 85.9526 22.598 84.0086 22.598C82.2986 22.598 81.2006 23.516 80.9666 25.298L86.7266 25.28ZM79.6346 25.928C79.6346 23.408 81.1466 21.302 83.9546 21.302C86.8706 21.302 87.6086 23.57 87.6986 23.786C88.2386 25.262 88.0226 26.558 88.0226 26.558H80.9666C81.2006 28.25 82.2986 29.258 83.9726 29.258C86.0426 29.258 86.5466 28.124 86.6726 27.944L87.7886 28.538C87.7886 28.538 87.0326 30.554 83.9546 30.554C81.1466 30.554 79.6346 28.43 79.6346 25.928ZM89.6846 17.144H90.9806V30.5H89.6846V17.144Z" fill="#1A1A1A"/>
<path fill-rule="evenodd" clip-rule="evenodd" d="M105.469 17.4697C105.762 17.1768 106.237 17.1768 106.53 17.4697L112.53 23.4697C112.823 23.7626 112.823 24.2374 112.53 24.5303L106.53 30.5303C106.237 30.8232 105.762 30.8232 105.469 30.5303C105.177 30.2374 105.177 29.7626 105.469 29.4697L110.939 24L105.469 18.5303C105.177 18.2374 105.177 17.7626 105.469 17.4697Z" fill="#333333"/>
</svg>
