<svg width="251" height="166" viewBox="0 0 251 166" fill="none" xmlns="http://www.w3.org/2000/svg">
<g filter="url(#filter0_dd_1099_78714)">
<g clip-path="url(#clip0_1099_78714)">
<path d="M11 28.1349C11 15.942 20.8844 6.05762 33.0773 6.05762H218.187C230.38 6.05762 240.264 15.942 240.264 28.1349V189.974H11V28.1349Z" fill="white"/>
<path d="M30.2586 33.9472H32.1819V31.1324H33.5829V37.8575H32.1819V35.0808H30.2586V33.9472ZM29.7873 38.1504C32.1564 38.1504 33.6211 38.9656 33.6211 40.3157C33.6211 41.6785 32.1564 42.4682 29.7873 42.4682C27.4055 42.4682 25.9408 41.6785 25.9408 40.3157C25.9408 38.9656 27.4055 38.1504 29.7873 38.1504ZM29.7873 39.2203C28.2207 39.2203 27.3419 39.6024 27.3419 40.3157C27.3419 41.0162 28.2207 41.3983 29.7873 41.3983C31.3412 41.3983 32.2328 41.0162 32.2328 40.3157C32.2328 39.6024 31.3412 39.2203 29.7873 39.2203ZM24.527 31.8711H30.6152V32.992H28.2971V33.0556C28.2971 34.444 29.1887 35.8323 30.9337 36.4309L30.2331 37.5263C28.9849 37.0932 28.1061 36.2399 27.6221 35.17C27.1253 36.38 26.1955 37.3607 24.8454 37.832L24.1449 36.7239C25.9281 36.0998 26.8833 34.5841 26.8833 33.0556V32.992H24.527V31.8711ZM41.27 32.3933H43.2187V31.1324H44.6325V37.0423H43.2187V35.5903H41.27V34.4822H43.2187V33.5142H41.27V32.3933ZM35.6275 31.6418H40.5694V34.6732H37.0413V35.6922C38.5443 35.6794 39.6906 35.6412 41.0662 35.4629L41.1681 36.5201C39.6014 36.7621 38.3023 36.7748 36.4936 36.7748H35.653V33.667H39.1938V32.7117H35.6275V31.6418ZM37.1305 37.5263H44.6325V40.4176H38.5315V41.3219H44.9891V42.3918H37.1559V39.4241H43.2442V38.5835H37.1305V37.5263ZM54.8793 33.6288H57.0955V31.1324H58.4965V39.5387H57.0955V34.7751H54.8793V33.6288ZM51.7587 31.8074H53.1725V33.1193C53.1725 34.635 54.0641 36.0998 55.7836 36.7239L55.0448 37.7938C53.8348 37.3352 52.9687 36.4564 52.4975 35.3483C52.0134 36.5838 51.0837 37.5772 49.7718 38.074L49.033 36.9659C50.8289 36.3418 51.7587 34.7624 51.7587 33.1066V31.8074ZM51.0709 38.6599H52.472V41.1181H58.7513V42.2389H51.0709V38.6599ZM60.5411 31.9093H64.9608V33.0302H61.8785V34.151H64.8462V35.2082H61.8785V36.3927C63.2413 36.38 64.1966 36.329 65.292 36.138L65.4193 37.2588C64.1329 37.4881 63.0375 37.5263 61.3053 37.5263H60.5411V31.9093ZM68.3998 31.1196H69.7244V38.023H68.3998V35.1063H67.2535V37.9593H65.9543V31.3362H67.2535V33.9727H68.3998V31.1196ZM62.0059 38.558H69.7244V42.4682H68.3361V39.6788H62.0059V38.558Z" fill="#333333"/>
<path d="M222.404 30.2959C222.586 30.1684 222.839 30.1822 223.007 30.3408C223.174 30.4996 223.201 30.7509 223.084 30.9395L223.024 31.0156L217.994 36.3242L223.024 41.6328L223.084 41.709C223.201 41.8976 223.174 42.1489 223.007 42.3076C222.839 42.4663 222.586 42.4801 222.404 42.3526L222.331 42.2891L217.337 37.0176L212.344 42.2891C212.162 42.4803 211.86 42.4889 211.669 42.3076C211.478 42.1263 211.469 41.8243 211.65 41.6328L216.68 36.3242L211.65 31.0156L211.591 30.9395C211.474 30.751 211.502 30.4995 211.669 30.3408C211.836 30.1823 212.089 30.1688 212.27 30.2959L212.344 30.3594L217.337 35.6299L222.331 30.3594L222.404 30.2959Z" fill="#555555"/>
<path d="M23.7373 64.647C23.7373 60.4264 27.1588 57.0049 31.3795 57.0049H219.886C224.106 57.0049 227.528 60.4264 227.528 64.647V85.1944C227.528 89.4151 224.106 92.8366 219.886 92.8366H31.3795C27.1588 92.8366 23.7373 89.4151 23.7373 85.1944V64.647Z" fill="white"/>
<path d="M36.6385 69.7274H37.4982V79.7577H36.6385V69.7274ZM34.5407 70.8049C34.5407 73.6937 33.211 76.2385 29.8752 77.8663L29.4167 77.1785C32.122 75.8831 33.4861 73.9229 33.6695 71.5157H29.8637V70.8049H34.5407ZM40.4293 70.1286H41.2775V71.4125H46.2296V70.1286H47.0894V74.1293H44.1663V75.2297H48.2701V75.929H39.2142V75.2297H43.318V74.1293H40.4293V70.1286ZM41.2775 72.1003V73.4415H46.2296V72.1003H41.2775ZM40.3949 76.7658H41.2546V78.8292H47.2728V79.5399H40.3949V76.7658ZM53.2301 69.9796H54.1128V70.4954C54.1128 71.8252 55.9469 73.0173 57.6435 73.281L57.311 73.9573C55.8208 73.6937 54.3077 72.8454 53.6772 71.6761C53.0582 72.8683 51.545 73.7051 50.0319 73.9688L49.688 73.2925C51.4189 73.0288 53.2301 71.8596 53.2301 70.4954V69.9796ZM49.1263 74.8515H58.2166V75.5507H54.1701V77.6256H53.2989V75.5507H49.1263V74.8515ZM50.2955 76.6397H51.1553V78.8177H57.2079V79.5284H50.2955V76.6397Z" fill="#333333"/>
<path d="M23.7373 99.0761C23.7373 97.0369 25.3904 95.3838 27.4296 95.3838H223.836C225.875 95.3838 227.528 97.0369 227.528 99.0761V127.523C227.528 129.562 225.875 131.215 223.836 131.215H27.4296C25.3904 131.215 23.7373 129.562 23.7373 127.523V99.0761Z" fill="#FFF5E6"/>
<path d="M29.2906 114.17H38.358V114.893H34.2541V118.148H33.3944V114.893H29.2906V114.17ZM30.1732 109.356H33.3944V108.106H34.2541V109.356H37.4753V110.055H34.2541V110.078C34.2541 111.35 36.008 112.451 37.7619 112.703L37.4524 113.391C35.9163 113.162 34.4605 112.371 33.83 111.27C33.1881 112.371 31.7208 113.15 30.1847 113.391L29.8752 112.703C31.6291 112.451 33.3944 111.362 33.3944 110.078V110.055H30.1732V109.356ZM39.4893 109.47H41.7475V108.175H42.5958V109.47H44.8426V110.158H42.5958V110.491C42.5958 111.843 43.6504 113.024 45.1177 113.494L44.6936 114.17C43.5473 113.792 42.6302 112.99 42.1831 111.946C41.759 113.07 40.8534 113.93 39.6727 114.354L39.2371 113.677C40.7158 113.173 41.7475 111.924 41.7475 110.491V110.158H39.4893V109.47ZM44.4872 111.201H46.585V108.118H47.4447V115.603H46.585V111.924H44.4872V111.201ZM41.0597 114.927H41.9195V117.197H47.7313V117.907H41.0597V114.927ZM53.2301 108.358H54.1128V108.874C54.1128 110.204 55.9469 111.396 57.6435 111.66L57.311 112.336C55.8208 112.073 54.3077 111.224 53.6772 110.055C53.0582 111.247 51.545 112.084 50.0319 112.348L49.688 111.671C51.4189 111.408 53.2301 110.238 53.2301 108.874V108.358ZM49.1263 113.23H58.2166V113.93H54.1701V116.004H53.2989V113.93H49.1263V113.23ZM50.2955 115.019H51.1553V117.197H57.2079V117.907H50.2955V115.019Z" fill="#333333"/>
<path fill-rule="evenodd" clip-rule="evenodd" d="M220.335 109.028C220.584 109.277 220.584 109.68 220.335 109.929L213.33 116.934C213.081 117.183 212.678 117.183 212.429 116.934L209.245 113.75C208.996 113.501 208.996 113.098 209.245 112.849C209.494 112.601 209.897 112.601 210.146 112.849L212.88 115.583L219.435 109.028C219.683 108.78 220.087 108.78 220.335 109.028Z" fill="#EE6002"/>
<path d="M23.7373 141.405C23.7373 137.184 27.1588 133.763 31.3795 133.763H219.886C224.106 133.763 227.528 137.184 227.528 141.405V161.952C227.528 166.173 224.106 169.594 219.886 169.594H31.3795C27.1588 169.594 23.7373 166.173 23.7373 161.952V141.405Z" fill="white"/>
<path d="M29.2906 154.487H33.4059V152.045H34.2656V154.487H38.3809V155.209H29.2906V154.487ZM30.0471 147.414H37.6129V148.124H34.2771V148.388C34.2771 150.004 36.2717 151.391 37.9568 151.667L37.6014 152.343C36.0997 152.045 34.4834 151.059 33.8415 149.683C33.1881 151.07 31.5832 152.068 30.1044 152.377L29.7491 151.701C31.4113 151.414 33.3829 150.004 33.3829 148.388V148.124H30.0471V147.414ZM46.4933 146.485H47.353V156.516H46.4933V146.485ZM39.26 153.845C40.1083 153.845 41.0827 153.845 42.0914 153.81V152.698C40.8992 152.572 40.1312 151.884 40.1312 150.876C40.1312 149.752 41.0827 149.019 42.5156 149.019C43.9485 149.019 44.9228 149.752 44.9228 150.876C44.9228 151.873 44.1433 152.561 42.9626 152.698V153.776C43.937 153.73 44.9228 153.661 45.8399 153.535L45.8972 154.177C43.6733 154.555 41.2317 154.578 39.3861 154.578L39.26 153.845ZM39.4778 147.723H42.0914V146.485H42.9626V147.723H45.5762V148.422H39.4778V147.723ZM42.5156 149.683C41.587 149.683 40.9336 150.153 40.9336 150.876C40.9336 151.586 41.587 152.045 42.5156 152.045C43.467 152.045 44.109 151.586 44.109 150.876C44.109 150.153 43.467 149.683 42.5156 149.683ZM53.2301 146.737H54.1128V147.253C54.1128 148.583 55.9469 149.775 57.6435 150.039L57.311 150.715C55.8208 150.451 54.3077 149.603 53.6772 148.434C53.0582 149.626 51.545 150.463 50.0319 150.727L49.688 150.05C51.4189 149.787 53.2301 148.617 53.2301 147.253V146.737ZM49.1263 151.609H58.2166V152.309H54.1701V154.383H53.2989V152.309H49.1263V151.609ZM50.2955 153.398H51.1553V155.576H57.2079V156.286H50.2955V153.398Z" fill="#333333"/>
</g>
</g>
<defs>
<filter id="filter0_dd_1099_78714" x="0.810471" y="0.962852" width="249.644" height="204.296" filterUnits="userSpaceOnUse" color-interpolation-filters="sRGB">
<feFlood flood-opacity="0" result="BackgroundImageFix"/>
<feColorMatrix in="SourceAlpha" type="matrix" values="0 0 0 0 0 0 0 0 0 0 0 0 0 0 0 0 0 0 127 0" result="hardAlpha"/>
<feOffset/>
<feGaussianBlur stdDeviation="2.54738"/>
<feComposite in2="hardAlpha" operator="out"/>
<feColorMatrix type="matrix" values="0 0 0 0 0 0 0 0 0 0 0 0 0 0 0 0 0 0 0.12 0"/>
<feBlend mode="normal" in2="BackgroundImageFix" result="effect1_dropShadow_1099_78714"/>
<feColorMatrix in="SourceAlpha" type="matrix" values="0 0 0 0 0 0 0 0 0 0 0 0 0 0 0 0 0 0 127 0" result="hardAlpha"/>
<feOffset dy="5.09476"/>
<feGaussianBlur stdDeviation="5.09476"/>
<feComposite in2="hardAlpha" operator="out"/>
<feColorMatrix type="matrix" values="0 0 0 0 0 0 0 0 0 0 0 0 0 0 0 0 0 0 0.12 0"/>
<feBlend mode="normal" in2="effect1_dropShadow_1099_78714" result="effect2_dropShadow_1099_78714"/>
<feBlend mode="normal" in="SourceGraphic" in2="effect2_dropShadow_1099_78714" result="shape"/>
</filter>
<clipPath id="clip0_1099_78714">
<path d="M11 28.1349C11 15.942 20.8844 6.05762 33.0773 6.05762H218.187C230.38 6.05762 240.264 15.942 240.264 28.1349V189.974H11V28.1349Z" fill="white"/>
</clipPath>
</defs>
</svg>
