<svg width="251" height="198" viewBox="0 0 251 198" fill="none" xmlns="http://www.w3.org/2000/svg">
<g filter="url(#filter0_dd_1099_78726)">
<g clip-path="url(#clip0_1099_78726)">
<path d="M11 28.0773C11 15.8844 20.8844 6 33.0773 6H218.187C230.38 6 240.264 15.8843 240.264 28.0773V211.038H11V28.0773Z" fill="white"/>
<path d="M32.1309 31.0747H33.532V39.2646H32.1309V31.0747ZM26.0936 38.4494H27.482V41.0605H33.8377V42.1813H26.0936V38.4494ZM27.3928 31.8135C29.1123 31.8135 30.4242 32.998 30.4242 34.6666C30.4242 36.3096 29.1123 37.5069 27.3928 37.5069C25.6861 37.5069 24.3614 36.3096 24.3614 34.6666C24.3614 32.998 25.6861 31.8135 27.3928 31.8135ZM27.3928 33.0235C26.4503 33.0235 25.7243 33.6603 25.7243 34.6666C25.7243 35.6473 26.4503 36.2841 27.3928 36.2841C28.3353 36.2841 29.0613 35.6473 29.0613 34.6666C29.0613 33.6603 28.3353 33.0235 27.3928 33.0235ZM35.2072 36.3733H45.4477V37.4814H35.2072V36.3733ZM40.3147 38.2456C42.7474 38.2456 44.2249 39.0098 44.2249 40.3217C44.2249 41.6464 42.7474 42.4106 40.3147 42.4106C37.8692 42.4106 36.3917 41.6464 36.3917 40.3217C36.3917 39.0098 37.8692 38.2456 40.3147 38.2456ZM40.3147 39.3283C38.6844 39.3283 37.8055 39.6722 37.8055 40.3217C37.8055 40.9841 38.6844 41.3152 40.3147 41.3152C41.9323 41.3152 42.8111 40.9841 42.8111 40.3217C42.8111 39.6722 41.9323 39.3283 40.3147 39.3283ZM36.137 31.6224H44.5306V32.7433H41.3082C41.512 33.6858 42.8366 34.5392 44.9637 34.743L44.4669 35.8383C42.429 35.6346 40.9261 34.8194 40.3274 33.6731C39.7288 34.8194 38.2258 35.6346 36.1752 35.8383L35.6912 34.743C37.8055 34.5392 39.1429 33.6858 39.3467 32.7433H36.137V31.6224ZM51.3643 31.2531C53.9116 31.2531 55.4273 31.9281 55.4273 33.1891C55.4273 34.45 53.9116 35.1378 51.3643 35.1378C48.8169 35.1378 47.3012 34.45 47.3012 33.1891C47.3012 31.9281 48.8169 31.2531 51.3643 31.2531ZM51.3643 32.272C49.6448 32.272 48.7532 32.5904 48.7532 33.1891C48.7532 33.8004 49.6448 34.1061 51.3643 34.1061C53.071 34.1061 53.9753 33.8004 53.9753 33.1891C53.9753 32.5904 53.071 32.272 51.3643 32.272ZM46.244 35.7492H56.4845V36.87H46.244V35.7492ZM47.4286 37.6215H55.2108V40.3982H48.8296V41.2515H55.5292V42.3087H47.4668V39.4174H53.8352V38.6787H47.4286V37.6215ZM63.789 31.546C65.4958 31.546 66.7312 32.5268 66.7312 33.9405C66.7312 35.3289 65.4958 36.3224 63.789 36.3224C62.095 36.3224 60.8468 35.3289 60.8468 33.9405C60.8468 32.5268 62.095 31.546 63.789 31.546ZM63.789 32.6923C62.872 32.6923 62.1969 33.1636 62.1969 33.9405C62.1969 34.7048 62.872 35.176 63.789 35.176C64.7188 35.176 65.3939 34.7048 65.3939 33.9405C65.3939 33.1636 64.7188 32.6923 63.789 32.6923ZM68.1196 31.062H69.5206V42.4106H68.1196V31.062ZM60.1208 37.0993C62.146 37.0993 64.9736 37.0866 67.419 36.7045L67.5082 37.7361C66.5275 37.9272 65.5212 38.0418 64.5405 38.1183V42.054H63.1394V38.2074C62.1077 38.2456 61.1397 38.2584 60.2864 38.2584L60.1208 37.0993ZM71.1321 32.8706H73.2083V31.3677H74.5839V32.8706H76.6345V33.9788H71.1321V32.8706ZM73.8961 34.5901C75.3353 34.5901 76.367 35.6855 76.367 37.2394C76.367 38.806 75.3353 39.9014 73.8961 39.9014C72.4695 39.9014 71.4378 38.806 71.4378 37.2394C71.4378 35.6855 72.4695 34.5901 73.8961 34.5901ZM73.8961 35.7492C73.1828 35.7492 72.6733 36.3351 72.6733 37.2394C72.6733 38.1565 73.1828 38.7296 73.8961 38.7296C74.6093 38.7296 75.1315 38.1565 75.1315 37.2394C75.1315 36.3351 74.6093 35.7492 73.8961 35.7492ZM79.5003 31.062H80.8249V42.3979H79.5003V36.87H78.4049V41.8884H77.093V31.304H78.4049V35.7365H79.5003V31.062ZM85.0471 36.5007H89.4668V35.4308H86.3081V31.5715H94.0394V32.6923H87.6837V34.3099H94.1158V35.4308H90.8552V36.5007H95.2876V37.6215H85.0471V36.5007ZM90.1419 38.2838C92.5746 38.2838 94.0521 39.0226 94.0521 40.3472C94.0521 41.6719 92.5746 42.4106 90.1419 42.4106C87.6964 42.4106 86.2189 41.6719 86.2189 40.3472C86.2189 39.0226 87.6964 38.2838 90.1419 38.2838ZM90.1419 39.3537C88.5243 39.3537 87.6327 39.6976 87.6327 40.3472C87.6327 41.0223 88.5243 41.3407 90.1419 41.3407C91.7595 41.3407 92.6383 41.0223 92.6383 40.3472C92.6383 39.6976 91.7595 39.3537 90.1419 39.3537ZM99.714 31.839C101.484 31.839 102.796 32.9853 102.796 34.5901C102.796 36.2077 101.484 37.3413 99.714 37.3413C97.9308 37.3413 96.6189 36.2077 96.6189 34.5901C96.6189 32.9853 97.9308 31.839 99.714 31.839ZM99.714 33.049C98.7205 33.049 97.9818 33.6349 97.9818 34.5901C97.9818 35.5327 98.7205 36.144 99.714 36.144C100.695 36.144 101.433 35.5327 101.433 34.5901C101.433 33.6349 100.695 33.049 99.714 33.049ZM104.032 31.0493H105.42V42.4233H104.032V31.0493ZM96.1094 38.9079C98.1219 38.9079 100.949 38.8952 103.357 38.5258L103.459 39.5448C100.975 40.0288 98.262 40.0543 96.275 40.0543L96.1094 38.9079ZM114.508 31.0493H115.922V35.4945H117.591V36.6535H115.922V42.3979H114.508V31.0493ZM112.942 32.2465C112.942 35.5836 111.579 38.4876 107.847 40.36L107.057 39.3028C109.796 37.9017 111.26 35.9657 111.528 33.3801H107.656V32.2465H112.942ZM128.958 31.0747H130.372V36.9083H128.958V31.0747ZM122.806 37.3923H130.372V40.3217H124.207V41.2133H130.729V42.3087H122.832V39.3155H128.984V38.4749H122.806V37.3923ZM121.469 31.7753H127.57V32.8706H126.589V35.3416C127.086 35.3034 127.57 35.2525 128.041 35.2015L128.117 36.195C125.863 36.5644 123.29 36.6153 121.316 36.628L121.176 35.5072H122.45V32.8706H121.469V31.7753ZM123.8 35.4817L125.239 35.4308V32.8706H123.8V35.4817ZM132.022 39.8887H134.378V36.9974C133.486 36.4752 132.951 35.6728 132.951 34.6666C132.951 32.8452 134.722 31.6734 137.142 31.6734C139.575 31.6734 141.332 32.8452 141.332 34.6666C141.332 35.6728 140.797 36.4752 139.919 36.9974V39.8887H142.288V41.0223H132.022V39.8887ZM137.142 32.7688C135.473 32.7688 134.327 33.4948 134.327 34.6666C134.327 35.8511 135.473 36.5644 137.142 36.5644C138.81 36.5644 139.957 35.8511 139.957 34.6666C139.957 33.4948 138.81 32.7688 137.142 32.7688ZM135.779 39.8887H138.517V37.5196C138.097 37.6088 137.626 37.6597 137.142 37.6597C136.658 37.6597 136.199 37.6088 135.779 37.5196V39.8887ZM143.033 32.8706H145.109V31.3677H146.485V32.8706H148.535V33.9788H143.033V32.8706ZM145.797 34.5901C147.236 34.5901 148.268 35.6855 148.268 37.2394C148.268 38.806 147.236 39.9014 145.797 39.9014C144.37 39.9014 143.339 38.806 143.339 37.2394C143.339 35.6855 144.37 34.5901 145.797 34.5901ZM145.797 35.7492C145.084 35.7492 144.574 36.3351 144.574 37.2394C144.574 38.1565 145.084 38.7296 145.797 38.7296C146.51 38.7296 147.032 38.1565 147.032 37.2394C147.032 36.3351 146.51 35.7492 145.797 35.7492ZM151.401 31.062H152.726V42.3979H151.401V36.87H150.306V41.8884H148.994V31.304H150.306V35.7365H151.401V31.062ZM154.095 39.8887H156.452V36.9974C155.56 36.4752 155.025 35.6728 155.025 34.6666C155.025 32.8452 156.796 31.6734 159.216 31.6734C161.648 31.6734 163.406 32.8452 163.406 34.6666C163.406 35.6728 162.871 36.4752 161.992 36.9974V39.8887H164.361V41.0223H154.095V39.8887ZM159.216 32.7688C157.547 32.7688 156.401 33.4948 156.401 34.6666C156.401 35.8511 157.547 36.5644 159.216 36.5644C160.884 36.5644 162.03 35.8511 162.03 34.6666C162.03 33.4948 160.884 32.7688 159.216 32.7688ZM157.853 39.8887H160.591V37.5196C160.171 37.6088 159.7 37.6597 159.216 37.6597C158.732 37.6597 158.273 37.6088 157.853 37.5196V39.8887Z" fill="#333333"/>
<path d="M222.404 30.2383C222.586 30.1108 222.839 30.1246 223.007 30.2832C223.174 30.442 223.201 30.6933 223.084 30.8819L223.024 30.958L217.994 36.2666L223.024 41.5752L223.084 41.6514C223.201 41.84 223.174 42.0912 223.007 42.25C222.839 42.4086 222.586 42.4225 222.404 42.2949L222.331 42.2315L217.337 36.96L212.344 42.2315C212.162 42.4227 211.86 42.4312 211.669 42.25C211.478 42.0687 211.469 41.7666 211.65 41.5752L216.68 36.2666L211.65 30.958L211.591 30.8819C211.474 30.6934 211.502 30.4419 211.669 30.2832C211.836 30.1247 212.089 30.1112 212.27 30.2383L212.344 30.3018L217.337 35.5723L222.331 30.3018L222.404 30.2383Z" fill="#555555"/>
<path d="M31.0394 60.7423H31.8991V64.7315H33.5613V65.4537H31.8991V70.7955H31.0394V60.7423ZM24.6429 61.7396H29.297V62.4389H25.4912V67.5515C27.3368 67.5515 28.6092 67.4941 30.0765 67.2076L30.1796 67.9412C28.6321 68.2278 27.3253 68.2851 25.4224 68.2851H24.6429V61.7396ZM34.1194 66.3249H43.2098V67.0356H34.1194V66.3249ZM35.3231 67.8495H36.1828V69.8556H42.2583V70.5548H35.3231V67.8495ZM35.2772 61.0977H42.0291V63.5623H36.137V64.7086H42.2469V65.3849H35.3001V62.9088H41.1808V61.774H35.2772V61.0977ZM49.2489 61.5333C50.613 61.5333 51.5988 62.714 51.7249 64.6054H53.9717V60.7423H54.82V70.7955H53.9717V65.2932H51.7249C51.6447 67.2649 50.6359 68.5144 49.2489 68.5144C47.7931 68.5144 46.7614 67.1502 46.7614 65.0181C46.7614 62.8859 47.7931 61.5333 49.2489 61.5333ZM49.2489 62.3013C48.263 62.3013 47.5752 63.3788 47.5752 65.0181C47.5752 66.6573 48.263 67.7463 49.2489 67.7463C50.2462 67.7463 50.9225 66.6573 50.9225 65.0181C50.9225 63.3788 50.2462 62.3013 49.2489 62.3013ZM56.513 68.778H65.6033V69.5002H56.513V68.778ZM57.6364 61.5218H64.4685V64.5252H58.5076V66.2103H64.6977V66.921H57.6593V63.8374H63.6202V62.2325H57.6364V61.5218ZM73.7731 60.7652H74.6328V68.1017H73.7731V60.7652ZM68.2249 67.4368H69.0846V69.8441H74.9538V70.5548H68.2249V67.4368ZM69.0731 61.304H69.9329V62.3357C69.9329 63.8603 70.976 65.2359 72.4548 65.7861L71.9963 66.4739C70.8499 66.0268 69.9558 65.0983 69.5202 63.9405C69.0961 65.1786 68.1905 66.1759 67.0098 66.6573L66.5512 65.9695C68.0415 65.3849 69.0731 63.9176 69.0731 62.3357V61.304ZM77.5294 61.5562H84.2813V62.2669H78.3892V65.4537H84.3959V66.1644H81.3123V68.778H85.4505V69.5002H76.3602V68.778H80.464V66.1644H77.5294V61.5562ZM96.5105 60.7538H97.3359V70.7841H96.5105V60.7538ZM94.6764 60.983H95.4789V70.2797H94.6764V67.1502H93.2091C92.9111 67.9871 92.1774 68.5258 91.2719 68.5258C90.0568 68.5258 89.1741 67.5744 89.1741 66.2103C89.1741 64.8461 90.0568 63.9061 91.2719 63.9061C92.487 63.9061 93.3696 64.8461 93.3696 66.2103L93.3582 66.451H94.6764V64.8691H93.255V64.1698H94.6764V60.983ZM88.8073 62.4962H90.8592V61.0174H91.7075V62.4962H93.7708V63.1954H88.8073V62.4962ZM91.2719 64.6398C90.5038 64.6398 89.9421 65.2932 89.9421 66.2103C89.9421 67.1273 90.5038 67.7807 91.2719 67.7807C92.0514 67.7807 92.6131 67.1273 92.6131 66.2103C92.6131 65.2932 92.0514 64.6398 91.2719 64.6398ZM99.2008 61.4874H103.052V62.1981H100.026V63.4935H102.949V64.1698H100.026V65.5798C101.493 65.5798 102.399 65.5225 103.465 65.3161L103.557 66.0154C102.399 66.2446 101.448 66.2905 99.8313 66.2905H99.2008V61.4874ZM106.377 60.7538H107.191V66.8293H106.377V64.101H104.967V66.772H104.153V60.9486H104.967V63.3903H106.377V60.7538ZM100.485 67.368H107.191V70.7841H106.342V68.0788H100.485V67.368ZM113.205 60.9372C115.406 60.9372 116.725 61.5447 116.725 62.6681C116.725 63.7915 115.406 64.4105 113.205 64.4105C111.004 64.4105 109.686 63.7915 109.686 62.6681C109.686 61.5447 111.004 60.9372 113.205 60.9372ZM113.205 61.5791C111.555 61.5791 110.569 61.9803 110.569 62.6681C110.569 63.3674 111.555 63.7571 113.205 63.7571C114.856 63.7571 115.842 63.3674 115.842 62.6681C115.842 61.9803 114.856 61.5791 113.205 61.5791ZM108.677 65.1098H117.733V65.809H108.677V65.1098ZM109.778 66.6917H116.564V68.9156H110.649V69.9931H116.874V70.6694H109.812V68.2851H115.727V67.3566H109.778V66.6917ZM128.071 60.7538H128.931V63.1725H130.421V63.9061H128.931V66.6229H128.071V60.7538ZM121.594 61.304H122.443V62.8745H125.366V61.304H126.214V65.981H121.594V61.304ZM122.443 63.5623V65.2703H125.366V63.5623H122.443ZM122.695 67.1846H129.011V67.8839H123.555V69.9358H129.206V70.6465H122.695V67.1846ZM135.599 60.9372C137.8 60.9372 139.118 61.5447 139.118 62.6681C139.118 63.7915 137.8 64.4105 135.599 64.4105C133.398 64.4105 132.08 63.7915 132.08 62.6681C132.08 61.5447 133.398 60.9372 135.599 60.9372ZM135.599 61.5791C133.948 61.5791 132.962 61.9803 132.962 62.6681C132.962 63.3674 133.948 63.7571 135.599 63.7571C137.25 63.7571 138.235 63.3674 138.235 62.6681C138.235 61.9803 137.25 61.5791 135.599 61.5791ZM131.071 65.1098H140.127V65.809H131.071V65.1098ZM132.171 66.6917H138.958V68.9156H133.043V69.9931H139.267V70.6694H132.206V68.2851H138.121V67.3566H132.171V66.6917ZM147.633 61.1206H148.527V61.6937C148.527 63.1152 150.384 64.3418 152.15 64.6054L151.794 65.2932C150.27 65.0295 148.734 64.1583 148.092 62.9318C147.461 64.1813 145.914 65.0295 144.366 65.2932L144.011 64.6054C145.799 64.3418 147.633 63.1496 147.633 61.6937V61.1206ZM143.541 66.4281H152.608V67.1388H148.482V70.7841H147.633V67.1388H143.541V66.4281ZM158.544 66.9439H159.37V67.4941C159.37 68.3997 159.851 69.3512 160.791 69.9014C161.765 69.2939 162.258 68.2736 162.258 67.4941V66.9439H163.095V67.4941C163.095 68.5373 163.863 69.569 165.124 70.0046L164.7 70.6465C163.714 70.2912 163.015 69.5804 162.66 68.7436C162.362 69.5575 161.754 70.337 160.825 70.7382C159.863 70.3599 159.244 69.6263 158.946 68.778C158.59 69.5804 157.902 70.2797 156.951 70.6465L156.515 70.0046C157.776 69.5461 158.544 68.457 158.544 67.4941V66.9439ZM163.359 60.7652H164.23V66.4968H163.359V60.7652ZM158.854 61.3498C160.367 61.3498 161.456 62.3013 161.456 63.6883C161.456 65.0639 160.367 66.0039 158.854 66.0039C157.341 66.0039 156.252 65.0639 156.252 63.6883C156.252 62.3013 157.341 61.3498 158.854 61.3498ZM158.854 62.072C157.834 62.072 157.088 62.7369 157.088 63.6883C157.088 64.6398 157.834 65.2932 158.854 65.2932C159.885 65.2932 160.619 64.6398 160.619 63.6883C160.619 62.7369 159.885 62.072 158.854 62.072ZM167.173 61.1206H168.021V63.803H173.97V64.5022H167.173V61.1206ZM165.935 65.8778H175.025V66.5885H165.935V65.8778ZM167.115 67.6088H167.964V69.8326H174.028V70.5434H167.115V67.6088ZM178.714 61.7855H184.32V62.5076H181.935V63.8603C181.935 65.5683 183.196 67.2878 184.64 67.9183L184.148 68.6061C183.001 68.0673 181.981 66.898 181.511 65.511C181.053 66.9898 180.044 68.2736 178.897 68.8468L178.404 68.1705C179.814 67.4827 181.075 65.5912 181.075 63.8603V62.5076H178.714V61.7855ZM185.718 60.7538H186.578V70.7841H185.718V60.7538ZM197.764 60.7652H198.624V63.8144H200.125V64.5252H198.624V67.4712H197.764V60.7652ZM190.829 66.4739C191.631 66.4739 192.571 66.4739 193.545 66.4395V65.6829C192.388 65.5912 191.643 65.0525 191.643 64.2157C191.643 63.2986 192.56 62.7369 193.958 62.7369C195.368 62.7369 196.285 63.2986 196.285 64.2157C196.285 65.041 195.551 65.5798 194.394 65.6829V66.4051C195.334 66.3593 196.274 66.279 197.156 66.1529L197.225 66.772C195.07 67.1617 192.686 67.1732 190.943 67.1732L190.829 66.4739ZM192.055 67.9871H198.624V70.7841H197.764V68.6748H192.055V67.9871ZM191.081 61.6823H193.545V60.6735H194.394V61.6823H196.847V62.3357H191.081V61.6823ZM193.958 63.333C193.041 63.333 192.456 63.6769 192.456 64.2157C192.456 64.743 193.041 65.1098 193.958 65.1098C194.887 65.1098 195.471 64.743 195.471 64.2157C195.471 63.6769 194.887 63.333 193.958 63.333ZM208.135 60.7652H209.006V68.0902H208.135V60.7652ZM202.598 67.3451H203.446V69.8441H209.315V70.5548H202.598V67.3451ZM203.629 61.4645C205.12 61.4645 206.232 62.4732 206.232 63.9291C206.232 65.362 205.12 66.3822 203.629 66.3822C202.151 66.3822 201.027 65.362 201.027 63.9291C201.027 62.4732 202.151 61.4645 203.629 61.4645ZM203.629 62.2096C202.632 62.2096 201.864 62.9203 201.864 63.9291C201.864 64.9149 202.632 65.6256 203.629 65.6256C204.638 65.6256 205.406 64.9149 205.406 63.9291C205.406 62.9203 204.638 62.2096 203.629 62.2096ZM210.699 62.4962H212.774V61.0403H213.622V62.4962H215.685V63.1954H210.699V62.4962ZM213.198 63.8947C214.447 63.8947 215.353 64.8347 215.353 66.1644C215.353 67.5171 214.447 68.4456 213.198 68.4456C211.948 68.4456 211.054 67.5171 211.054 66.1644C211.054 64.8347 211.948 63.8947 213.198 63.8947ZM213.198 64.6169C212.395 64.6169 211.822 65.2703 211.822 66.1644C211.822 67.07 212.395 67.7119 213.198 67.7119C214 67.7119 214.585 67.07 214.585 66.1644C214.585 65.2703 214 64.6169 213.198 64.6169ZM218.368 60.7538H219.182V70.7841H218.368V65.7059H217.026V70.2797H216.213V60.9945H217.026V64.9952H218.368V60.7538ZM24.1958 85.7666H28.2997V83.5771H25.2848V78.4645H26.1331V80.2757H31.3374V78.4645H32.1857V83.5771H29.1479V85.7666H33.2862V86.4887H24.1958V85.7666ZM26.1331 80.9864V82.8778H31.3374V80.9864H26.1331ZM38.0628 81.3647H39.7593V77.983H40.5618V87.2682H39.7593V82.0869H38.0628V81.3647ZM36.2287 78.7167H37.054V80.6196C37.054 82.213 37.845 83.9324 39.1632 84.7234L38.6589 85.3883C37.696 84.8151 37.0082 83.7261 36.6528 82.511C36.286 83.8407 35.5409 84.9985 34.5436 85.6061L34.0048 84.9641C35.3689 84.1617 36.2287 82.362 36.2287 80.6425V78.7167ZM41.7998 77.7538H42.6251V87.7841H41.7998V77.7538ZM44.043 85.7666H46.3013V83.0268C45.453 82.5912 44.9372 81.8691 44.9372 80.9635C44.9372 79.4045 46.4618 78.3957 48.571 78.3957C50.7032 78.3957 52.2048 79.4045 52.2048 80.9635C52.2048 81.8576 51.7005 82.5683 50.8751 83.0154V85.7666H53.1334V86.4773H44.043V85.7666ZM48.571 79.0835C46.9432 79.0835 45.774 79.8286 45.774 80.9635C45.774 82.0983 46.9432 82.8434 48.571 82.8434C50.1988 82.8434 51.3795 82.0983 51.3795 80.9635C51.3795 79.8286 50.1988 79.0835 48.571 79.0835ZM47.1496 85.7666H50.0154V83.3478C49.5798 83.4624 49.0983 83.5198 48.571 83.5198C48.0552 83.5198 47.5852 83.4624 47.1496 83.3478V85.7666Z" fill="#616161"/>
<path d="M23.7373 108.377C23.7373 106.338 25.3904 104.685 27.4296 104.685H223.836C225.875 104.685 227.528 106.338 227.528 108.377V136.019C227.528 138.058 225.875 139.711 223.836 139.711H27.4296C25.3904 139.711 23.7373 138.058 23.7373 136.019V108.377Z" fill="#FFF5E6"/>
<path fill-rule="evenodd" clip-rule="evenodd" d="M44.5677 116.971C44.8164 117.219 44.8164 117.623 44.5677 117.871L37.5624 124.877C37.3137 125.125 36.9105 125.125 36.6618 124.877L33.4775 121.692C33.2288 121.444 33.2288 121.04 33.4775 120.792C33.7262 120.543 34.1295 120.543 34.3782 120.792L37.1121 123.526L43.6671 116.971C43.9158 116.722 44.319 116.722 44.5677 116.971Z" fill="#EE6002"/>
<path d="M52.8185 120.922C52.8185 119.638 53.328 117.926 54.0514 116.785H54.8768C54.0616 117.906 53.491 119.608 53.491 120.922C53.491 122.237 54.0616 123.938 54.8768 125.059H54.0514C53.328 123.918 52.8185 122.206 52.8185 120.922ZM62.3836 116.429H63.158V121.055H62.3836V116.429ZM57.3704 121.503H63.158V123.612H58.1448V124.621H63.4943V125.243H57.3907V123.042H62.3938V122.104H57.3704V121.503ZM56.2495 117.04H61.0284V117.651H60.1317V119.964C60.5902 119.934 61.0488 119.893 61.4767 119.842L61.5175 120.392C59.7343 120.667 57.6557 120.729 56.0967 120.729L56.005 120.097L57.1462 120.087V117.651H56.2495V117.04ZM57.89 120.066L59.3879 120.015V117.651H57.89V120.066ZM68.3001 116.755H69.0949V117.264C69.0949 118.528 70.7456 119.618 72.3148 119.852L71.9989 120.464C70.6437 120.229 69.2783 119.455 68.7077 118.365C68.1473 119.475 66.7717 120.229 65.3961 120.464L65.0802 119.852C66.6698 119.618 68.3001 118.558 68.3001 117.264V116.755ZM64.6625 121.472H72.7224V122.104H69.0542V125.344H68.3001V122.104H64.6625V121.472ZM75.7757 120.922C75.7757 122.216 75.2662 123.918 74.5529 125.059H73.7276C74.5325 123.948 75.1032 122.237 75.1032 120.922C75.1032 119.608 74.5325 117.896 73.7276 116.785H74.5529C75.2662 117.926 75.7757 119.628 75.7757 120.922ZM83.945 116.429H84.6889V125.344H83.945V120.667H82.7019V124.896H81.9683V116.663H82.7019V120.036H83.945V116.429ZM80.9493 117.59C80.9493 119.852 80.1545 121.992 77.6072 123.429L77.1588 122.868C79.2375 121.717 80.073 120.076 80.1953 118.222H77.4849V117.59H80.9493ZM92.4803 116.439H93.2547V122.95H92.4803V116.439ZM87.5587 122.288H88.3128V124.509H93.5298V125.141H87.5587V122.288ZM88.4758 117.06C89.8004 117.06 90.7888 117.957 90.7888 119.251C90.7888 120.525 89.8004 121.432 88.4758 121.432C87.1614 121.432 86.1628 120.525 86.1628 119.251C86.1628 117.957 87.1614 117.06 88.4758 117.06ZM88.4758 117.723C87.5893 117.723 86.9066 118.354 86.9066 119.251C86.9066 120.127 87.5893 120.759 88.4758 120.759C89.3725 120.759 90.0552 120.127 90.0552 119.251C90.0552 118.354 89.3725 117.723 88.4758 117.723ZM99.5075 118.762H101.321V116.429H102.085V121.737H101.321V119.394H99.5075V118.762ZM99.161 122.023C100.995 122.023 102.116 122.644 102.116 123.684C102.116 124.733 100.995 125.334 99.161 125.334C97.3167 125.334 96.1959 124.733 96.1959 123.684C96.1959 122.644 97.3167 122.023 99.161 122.023ZM99.161 122.624C97.7956 122.624 96.9601 123.021 96.9601 123.684C96.9601 124.336 97.7956 124.733 99.161 124.733C100.516 124.733 101.362 124.336 101.362 123.684C101.362 123.021 100.516 122.624 99.161 122.624ZM95.0445 117.091H99.803V117.723H97.8262V118.069C97.8262 119.231 98.7229 120.341 100.007 120.79L99.6094 121.401C98.6108 121.034 97.8364 120.28 97.4594 119.353C97.0824 120.413 96.2468 121.248 95.1973 121.656L94.8101 121.044C96.1144 120.566 97.062 119.363 97.062 118.069V117.723H95.0445V117.091ZM103.58 123.551H107.228V121.605H104.548V117.06H105.302V118.67H109.928V117.06H110.682V121.605H107.982V123.551H111.66V124.193H103.58V123.551ZM105.302 119.302V120.983H109.928V119.302H105.302ZM114.653 120.851H118.291V119.801H115.672V116.846H121.694V117.468H116.426V119.17H121.755V119.801H119.045V120.851H122.703V121.472H114.653V120.851ZM118.668 122.135C120.563 122.135 121.714 122.716 121.714 123.734C121.714 124.764 120.563 125.334 118.668 125.334C116.762 125.334 115.621 124.764 115.621 123.734C115.621 122.716 116.762 122.135 118.668 122.135ZM118.668 122.736C117.251 122.736 116.385 123.103 116.385 123.734C116.385 124.376 117.251 124.733 118.668 124.733C120.084 124.733 120.94 124.376 120.94 123.734C120.94 123.103 120.084 122.736 118.668 122.736ZM126.337 117.081C127.723 117.081 128.711 117.937 128.711 119.17C128.711 120.413 127.723 121.258 126.337 121.258C124.941 121.258 123.953 120.413 123.953 119.17C123.953 117.937 124.941 117.081 126.337 117.081ZM126.337 117.743C125.389 117.743 124.696 118.324 124.696 119.17C124.696 120.005 125.389 120.596 126.337 120.596C127.274 120.596 127.967 120.005 127.967 119.17C127.967 118.324 127.274 117.743 126.337 117.743ZM129.924 116.418H130.688V125.355H129.924V116.418ZM123.494 122.736C125.124 122.736 127.386 122.736 129.333 122.43L129.394 122.991C127.386 123.378 125.196 123.388 123.596 123.388L123.494 122.736Z" fill="#333333"/>
<path fill-rule="evenodd" clip-rule="evenodd" d="M212.543 117.442C212.73 117.255 213.032 117.255 213.219 117.442L217.04 121.263C217.226 121.449 217.226 121.752 217.04 121.938L213.219 125.759C213.032 125.946 212.73 125.946 212.543 125.759C212.357 125.573 212.357 125.27 212.543 125.084L216.027 121.6L212.543 118.117C212.357 117.931 212.357 117.628 212.543 117.442Z" fill="#999999"/>
<g clip-path="url(#clip1_1099_78726)">
<rect width="203.791" height="66.2319" transform="translate(23.7373 144.806)" fill="url(#paint0_linear_1099_78726)"/>
<path d="M23.7373 161.235C23.7373 159.196 25.3904 157.543 27.4296 157.543H223.836C225.875 157.543 227.528 159.196 227.528 161.235V186.967C227.528 189.006 225.875 190.659 223.836 190.659H27.4296C25.3904 190.659 23.7373 189.006 23.7373 186.967V161.235Z" fill="#FF8120"/>
<path d="M123.042 168.888H124.041V171.557H125.304V172.373H124.041V174.961H123.042V168.888ZM116.928 173.942C117.621 173.942 118.416 173.942 119.241 173.921V173.31C118.233 173.198 117.601 172.729 117.601 172.006C117.601 171.18 118.447 170.671 119.73 170.671C121.024 170.671 121.87 171.18 121.87 172.006C121.87 172.729 121.238 173.198 120.24 173.31V173.881C121.024 173.84 121.819 173.779 122.563 173.677L122.645 174.38C120.729 174.716 118.62 174.726 117.051 174.737L116.928 173.942ZM118.049 175.379H124.041V177.895H123.042V176.163H118.049V175.379ZM117.152 169.632H119.241V168.806H120.24V169.632H122.308V170.375H117.152V169.632ZM119.73 171.333C118.997 171.333 118.548 171.588 118.548 172.006C118.548 172.413 118.997 172.678 119.73 172.678C120.464 172.678 120.923 172.413 120.923 172.006C120.923 171.588 120.464 171.333 119.73 171.333ZM132.229 168.888H133.238V175.419H132.229V168.888ZM127.369 174.767H128.357V176.897H133.493V177.712H127.369V174.767ZM128.368 169.489C129.723 169.489 130.752 170.416 130.752 171.741C130.752 173.035 129.723 173.983 128.368 173.983C127.023 173.983 125.983 173.035 125.983 171.741C125.983 170.416 127.023 169.489 128.368 169.489ZM128.368 170.355C127.573 170.355 126.951 170.905 126.951 171.741C126.951 172.556 127.573 173.106 128.368 173.106C129.173 173.106 129.784 172.556 129.784 171.741C129.784 170.905 129.173 170.355 128.368 170.355Z" fill="white"/>
</g>
</g>
</g>
<defs>
<filter id="filter0_dd_1099_78726" x="0.810471" y="0.905235" width="249.644" height="225.417" filterUnits="userSpaceOnUse" color-interpolation-filters="sRGB">
<feFlood flood-opacity="0" result="BackgroundImageFix"/>
<feColorMatrix in="SourceAlpha" type="matrix" values="0 0 0 0 0 0 0 0 0 0 0 0 0 0 0 0 0 0 127 0" result="hardAlpha"/>
<feOffset/>
<feGaussianBlur stdDeviation="2.54738"/>
<feComposite in2="hardAlpha" operator="out"/>
<feColorMatrix type="matrix" values="0 0 0 0 0 0 0 0 0 0 0 0 0 0 0 0 0 0 0.12 0"/>
<feBlend mode="normal" in2="BackgroundImageFix" result="effect1_dropShadow_1099_78726"/>
<feColorMatrix in="SourceAlpha" type="matrix" values="0 0 0 0 0 0 0 0 0 0 0 0 0 0 0 0 0 0 127 0" result="hardAlpha"/>
<feOffset dy="5.09476"/>
<feGaussianBlur stdDeviation="5.09476"/>
<feComposite in2="hardAlpha" operator="out"/>
<feColorMatrix type="matrix" values="0 0 0 0 0 0 0 0 0 0 0 0 0 0 0 0 0 0 0.12 0"/>
<feBlend mode="normal" in2="effect1_dropShadow_1099_78726" result="effect2_dropShadow_1099_78726"/>
<feBlend mode="normal" in="SourceGraphic" in2="effect2_dropShadow_1099_78726" result="shape"/>
</filter>
<linearGradient id="paint0_linear_1099_78726" x1="101.895" y1="-2.06975" x2="101.895" y2="52.4336" gradientUnits="userSpaceOnUse">
<stop stop-color="white" stop-opacity="0"/>
<stop offset="0.136083" stop-color="white" stop-opacity="0.8"/>
<stop offset="1" stop-color="white"/>
</linearGradient>
<clipPath id="clip0_1099_78726">
<path d="M11 28.0773C11 15.8844 20.8844 6 33.0773 6H218.187C230.38 6 240.264 15.8843 240.264 28.0773V211.038H11V28.0773Z" fill="white"/>
</clipPath>
<clipPath id="clip1_1099_78726">
<rect width="203.791" height="66.2319" fill="white" transform="translate(23.7373 144.806)"/>
</clipPath>
</defs>
</svg>
