<svg width="359" height="231" viewBox="0 0 359 231" fill="none" xmlns="http://www.w3.org/2000/svg">
<g filter="url(#filter0_dd_1130_60675)">
<g clip-path="url(#clip0_1130_60675)">
<path d="M18 25.8121C18 20.393 22.393 16 27.8121 16H331.069C336.488 16 340.881 20.393 340.881 25.8121V231.254H18V25.8121Z" fill="white"/>
<rect width="309.634" height="106.57" transform="translate(24.623 16)" fill="white"/>
<path d="M38.1143 53.7769C38.1143 44.8354 45.3628 37.5869 54.3043 37.5869C63.2458 37.5869 70.4943 44.8354 70.4943 53.7769C70.4943 62.7185 63.2458 69.967 54.3043 69.967C45.3628 69.967 38.1143 62.7185 38.1143 53.7769Z" fill="#FFF5E6"/>
<path d="M49.4872 45.6152C52.3267 45.6152 53.642 47.6011 54.2952 48.7857C54.9485 47.6011 56.2637 45.6152 59.1032 45.6152C61.9427 45.6152 64.0854 47.4879 64.0854 50.5365C64.0854 53.585 62.4305 56.1893 60.4707 58.1752C58.6242 60.0479 55.8543 61.938 54.3039 61.938C52.7535 61.938 49.9837 60.0479 48.1372 58.1752C46.1687 56.1893 44.5225 53.4979 44.5225 50.5365C44.5225 47.575 46.6477 45.6152 49.4872 45.6152Z" fill="#FF6767"/>
<path d="M50.547 54.208H50.1457C49.936 54.208 49.7627 54.0405 49.7627 53.8378V53.6528C49.7627 53.4501 49.936 53.2826 50.1457 53.2826C50.392 53.2826 50.5744 53.0623 50.5197 52.8332L49.9998 50.7181C49.9451 50.4889 50.1275 50.2686 50.3738 50.2686H50.9666C51.149 50.2686 51.304 50.392 51.3405 50.5594L51.8604 52.9918C51.8968 53.1592 52.0519 53.2826 52.2343 53.2826H52.5717C52.7541 53.2826 52.9001 53.1592 52.9457 52.9918L53.5203 50.5418C53.5567 50.3744 53.7118 50.251 53.8942 50.251H54.5691C54.7424 50.251 54.8974 50.3655 54.943 50.533L55.5267 52.983C55.5632 53.1504 55.7182 53.265 55.9006 53.265H56.2472C56.4296 53.265 56.5847 53.1416 56.6211 52.9742L57.141 50.5418C57.1775 50.3744 57.3325 50.251 57.5149 50.251H58.0804C58.3266 50.251 58.509 50.4713 58.4543 50.7004L57.9345 52.8155C57.8797 53.0447 58.0622 53.265 58.3084 53.265C58.5182 53.265 58.6914 53.4324 58.6914 53.6351V53.8202C58.6914 54.0229 58.5182 54.1904 58.3084 54.1904H57.9071C57.7338 54.1904 57.5788 54.3049 57.5332 54.4724L56.9312 56.9135C56.8948 57.081 56.7397 57.1956 56.5573 57.1956H55.7182C55.5358 57.1956 55.3899 57.0722 55.3443 56.9047L54.7788 54.4724C54.7424 54.3049 54.5873 54.1815 54.4049 54.1815H54.0401C53.8577 54.1815 53.7118 54.3049 53.6662 54.4724L53.1007 56.9047C53.0642 57.0722 52.9092 57.1956 52.7268 57.1956H51.8877C51.7144 57.1956 51.5594 57.081 51.5138 56.9135L50.9119 54.4724C50.8754 54.3049 50.7203 54.1904 50.5379 54.1904L50.547 54.208ZM52.3437 55.292H52.4076L52.6629 54.208H52.1157L52.3529 55.292H52.3437ZM54.487 53.2914L54.2499 52.2868H54.186L53.9489 53.2914H54.4779H54.487ZM56.0648 55.292H56.1286L56.3658 54.208H55.8186L56.0739 55.292H56.0648Z" fill="white"/>
<path d="M82.2991 42.4681C83.9181 42.4681 85.1458 43.8038 85.3752 46.003H87.4664V41.6047H89.1259V53.7337H87.4664V47.3386H85.3887C85.2268 49.6592 83.9721 51.0893 82.2991 51.0893C80.5047 51.0893 79.196 49.4299 79.196 46.772C79.196 44.1276 80.5047 42.4681 82.2991 42.4681ZM80.788 46.772C80.788 48.5799 81.3951 49.5783 82.2991 49.5783C83.2165 49.5783 83.8236 48.5799 83.8236 46.772C83.8236 44.9641 83.2165 43.9792 82.2991 43.9792C81.3951 43.9792 80.788 44.9641 80.788 46.772ZM92.5598 49.6322H94.2328V52.1552H101.221V53.4909H92.5598V49.6322ZM90.8869 48.6608V42.5491H94.0439V43.8848H92.5328V47.3117C93.0725 47.2847 93.5717 47.2442 94.1249 47.1228L94.2463 48.4719C93.2884 48.6473 92.5328 48.6608 91.4805 48.6608H90.8869ZM94.6241 48.6608V42.5491H97.9835V43.8848H96.2566V47.3117C97.12 47.2982 97.6597 47.2577 98.2668 47.1093L98.4152 48.445C97.5518 48.6338 96.8367 48.6608 95.2717 48.6608H94.6241ZM97.5922 46.1514V44.8292H99.2517V41.6317H100.911V50.3878H99.2517V46.1514H97.5922ZM114.167 41.6317H115.759V53.7202H114.167V41.6317ZM105.384 44.7887V43.4665H107.407V41.915H109.053V43.4665H111.104V44.7887H105.384ZM105.64 48.2696C105.64 46.5696 106.733 45.3689 108.217 45.3689C109.701 45.3689 110.794 46.5696 110.794 48.2696V48.3775H111.86V46.8799H110.524V45.5577H111.86V41.834H113.411V53.1671H111.86V49.6997H110.497C110.079 50.6036 109.242 51.1838 108.217 51.1838C106.733 51.1838 105.64 49.9695 105.64 48.2696ZM107.111 48.2696C107.111 49.214 107.556 49.7672 108.217 49.7672C108.878 49.7672 109.337 49.214 109.337 48.2696C109.337 47.3252 108.878 46.772 108.217 46.772C107.556 46.772 107.111 47.3252 107.111 48.2696ZM117.506 42.4412H122.242V43.7633H119.112V44.8157H122.134V46.0704H119.112V47.1767C120.447 47.1633 121.419 47.0958 122.539 46.9069L122.7 48.2291C121.324 48.4854 120.151 48.5124 118.343 48.5124H117.506V42.4412ZM119.085 50.86V49.5243H127.369V53.7202H125.709V50.86H119.085ZM123.2 48.9172V41.8475H124.751V44.5998H125.79V41.6182H127.369V48.9981H125.79V45.949H124.751V48.9172H123.2ZM134.243 41.8071C136.995 41.8071 138.614 42.5221 138.614 43.8713C138.614 45.207 136.995 45.9355 134.243 45.9355C131.504 45.9355 129.872 45.207 129.872 43.8713C129.872 42.5221 131.504 41.8071 134.243 41.8071ZM128.779 47.8513V46.5157H139.707V47.8513H128.779ZM130.034 49.7941V48.5529H138.371V51.629H131.693V52.371H138.695V53.6258H130.061V50.4552H136.725V49.7941H130.034ZM131.612 43.8713C131.612 44.4514 132.476 44.7078 134.243 44.7078C136.01 44.7078 136.874 44.4514 136.874 43.8713C136.874 43.3046 136.01 43.0213 134.243 43.0213C132.476 43.0213 131.612 43.3046 131.612 43.8713ZM151.317 41.6317H152.99V44.384H154.609V45.7601H152.99V48.6878H151.317V41.6317ZM143.856 48.0672V42.3197H145.515V43.8848H147.984V42.3197H149.644V48.0672H143.856ZM145.164 53.5718V49.2275H153.07V50.5497H146.837V52.2361H153.3V53.5718H145.164ZM145.515 46.745H147.984V45.1665H145.515V46.745ZM160.633 41.8071C163.385 41.8071 165.004 42.5221 165.004 43.8713C165.004 45.207 163.385 45.9355 160.633 45.9355C157.894 45.9355 156.262 45.207 156.262 43.8713C156.262 42.5221 157.894 41.8071 160.633 41.8071ZM155.169 47.8513V46.5157H166.097V47.8513H155.169ZM156.423 49.7941V48.5529H164.761V51.629H158.083V52.371H165.085V53.6258H156.45V50.4552H163.115V49.7941H156.423ZM158.002 43.8713C158.002 44.4514 158.865 44.7078 160.633 44.7078C162.4 44.7078 163.264 44.4514 163.264 43.8713C163.264 43.3046 162.4 43.0213 160.633 43.0213C158.865 43.0213 158.002 43.3046 158.002 43.8713ZM174.469 41.9824H176.236V42.5761C176.236 44.0062 177.693 45.5847 180.405 45.949L179.757 47.2847C177.666 46.9609 176.128 45.976 175.359 44.6673C174.576 45.9895 173.038 46.9609 170.947 47.2847L170.286 45.949C173.011 45.5847 174.469 44.0197 174.469 42.5761V41.9824ZM169.881 49.5783V48.2156H180.81V49.5783H176.141V53.7202H174.469V49.5783H169.881ZM187.319 48.9846H188.938V49.4029C188.938 50.3743 189.343 51.3862 190.314 52.0607C191.313 51.3457 191.731 50.2933 191.731 49.4029V48.9846H193.377V49.4029C193.377 50.6576 194.065 51.8314 195.644 52.3171L194.834 53.5448C193.687 53.1536 192.945 52.4115 192.527 51.4806C192.136 52.4115 191.434 53.221 190.341 53.6662C189.235 53.248 188.533 52.4655 188.142 51.5211C187.71 52.425 186.968 53.1536 185.876 53.5448L185.053 52.3171C186.631 51.7774 187.319 50.5767 187.319 49.4029V48.9846ZM184.756 45.153C184.756 43.453 186.159 42.2523 188.034 42.2523C189.91 42.2523 191.313 43.453 191.313 45.153C191.313 46.826 189.91 48.0267 188.034 48.0267C186.159 48.0267 184.756 46.826 184.756 45.153ZM186.388 45.153C186.388 46.0839 187.09 46.6506 188.034 46.6506C188.979 46.6506 189.68 46.0839 189.68 45.153C189.68 44.2086 188.979 43.6419 188.034 43.6419C187.09 43.6419 186.388 44.2086 186.388 45.153ZM192.918 48.4719V41.6317H194.618V48.4719H192.918ZM204.043 41.6047H205.715V46.2188H207.415V47.595H205.715V53.7067H204.043V41.6047ZM196.649 50.7386V42.7785H198.309V49.3624C199.86 49.3354 201.52 49.187 203.233 48.8497L203.408 50.2124C201.385 50.6306 199.469 50.7386 197.674 50.7386H196.649ZM207.962 50.9274H210.391V47.9458C209.473 47.3791 208.907 46.5157 208.907 45.4498C208.907 43.4935 210.822 42.2253 213.413 42.2253C216.017 42.2253 217.919 43.4935 217.919 45.4498C217.919 46.5022 217.366 47.3656 216.462 47.9323V50.9274H218.904V52.2901H207.962V50.9274ZM210.566 45.4498C210.566 46.6641 211.713 47.3791 213.413 47.3791C215.126 47.3791 216.273 46.6641 216.273 45.4498C216.273 44.2356 215.126 43.5205 213.413 43.5205C211.713 43.5205 210.566 44.2356 210.566 45.4498ZM212.064 50.9274H214.789V48.5529C214.357 48.6473 213.899 48.6878 213.413 48.6878C212.941 48.6878 212.482 48.6473 212.064 48.5664V50.9274ZM222.77 52.9647C222.176 52.9647 221.852 52.5599 221.852 52.0472C221.852 51.5481 222.176 51.1433 222.77 51.1433C223.363 51.1433 223.674 51.5481 223.674 52.0472C223.674 52.5599 223.363 52.9647 222.77 52.9647ZM219.734 44.33C220.247 42.9538 221.461 41.9959 222.972 41.9959C224.699 41.9959 226.291 43.453 226.21 45.207C226.156 46.1784 225.657 47.1228 224.335 48.1212C223.674 48.6069 223.552 48.8632 223.566 49.8346L221.933 49.8616C221.92 48.4315 222.338 47.568 223.363 46.799C224.335 46.0839 224.551 45.6792 224.577 45.126C224.618 44.1951 223.889 43.6149 222.972 43.6149C222.095 43.6149 221.582 44.0332 221.259 44.8967L219.734 44.33Z" fill="#1A1A1A"/>
<path d="M79.0746 73.7457H83.4216V72.4464H80.3617V68.5001H81.2602V69.7265H86.5058V68.5001H87.4165V72.4464H84.3201V73.7457H88.6672V74.4985H79.0746V73.7457ZM80.1431 76.3199V75.5792H87.4772V78.8698H86.5786V76.3199H80.1431ZM81.2602 71.7179H86.5058V70.4429H81.2602V71.7179ZM89.9141 69.3379H95.8518V70.1029H93.3261V71.5357C93.3261 73.345 94.6618 75.1663 96.1918 75.8342L95.6696 76.5627C94.4554 75.992 93.3747 74.7535 92.8769 73.2842C92.3912 74.8506 91.3226 76.2106 90.1084 76.8177L89.5862 76.1013C91.0798 75.3728 92.4154 73.3692 92.4154 71.5357V70.1029H89.9141V69.3379ZM97.3332 78.8698V68.2451H98.2438V78.8698H97.3332ZM100.098 73.5271H102.49V72.0093C101.64 71.6693 101.166 71.135 101.166 70.4186C101.166 69.1679 102.599 68.4515 104.894 68.4515C107.189 68.4515 108.622 69.1679 108.622 70.4186C108.622 71.135 108.148 71.6693 107.311 71.9971V73.5271H109.69V74.2556H100.098V73.5271ZM101.264 76.9634C101.264 75.7735 102.624 75.0935 104.894 75.0935C107.165 75.0935 108.525 75.7735 108.525 76.9634C108.525 78.1777 107.165 78.8577 104.894 78.8577C102.624 78.8577 101.264 78.1777 101.264 76.9634ZM102.101 70.4186C102.101 71.1957 103.182 71.6693 104.894 71.6693C106.606 71.6693 107.687 71.1957 107.687 70.4186C107.687 69.6293 106.606 69.1558 104.894 69.1558C103.182 69.1558 102.101 69.6293 102.101 70.4186ZM102.174 76.9634C102.174 77.7163 103.194 78.1413 104.894 78.1413C106.582 78.1413 107.602 77.7163 107.602 76.9634C107.602 76.2349 106.582 75.7977 104.894 75.7977C103.194 75.7977 102.174 76.2349 102.174 76.9634ZM103.389 73.5271H106.412V72.2521C105.963 72.325 105.453 72.3736 104.894 72.3736C104.336 72.3736 103.838 72.3371 103.389 72.2521V73.5271ZM111.836 68.9494H118.939V69.8722C118.939 70.88 118.939 71.9729 118.636 73.515H120.214V74.2799H115.855V78.8941H114.932V74.2799H110.61V73.515H117.713C118.041 71.9971 118.041 70.8679 118.041 69.8722V69.6901H111.836V68.9494ZM122.481 77.0606L121.813 79.3069H121.17L121.534 77.0606H122.481ZM127.038 76.7327H129.43V73.8307C128.531 73.3692 127.985 72.6043 127.985 71.645C127.985 69.9936 129.6 68.9251 131.834 68.9251C134.092 68.9251 135.683 69.9936 135.683 71.645C135.683 72.5921 135.149 73.345 134.274 73.8185V76.7327H136.667V77.4856H127.038V76.7327ZM128.871 71.645C128.871 72.8471 130.11 73.6364 131.834 73.6364C133.558 73.6364 134.809 72.8471 134.809 71.645C134.809 70.4429 133.558 69.6536 131.834 69.6536C130.11 69.6536 128.871 70.4429 128.871 71.645ZM130.328 76.7327H133.364V74.1706C132.902 74.2921 132.392 74.3528 131.834 74.3528C131.287 74.3528 130.79 74.2921 130.328 74.1706V76.7327ZM140.524 68.8765C142.115 68.8765 143.28 69.8965 143.28 71.3779C143.28 72.8593 142.115 73.8671 140.524 73.8671C138.921 73.8671 137.768 72.8593 137.768 71.3779C137.768 69.8965 138.921 68.8765 140.524 68.8765ZM138.654 71.3779C138.654 72.3978 139.443 73.1021 140.524 73.1021C141.605 73.1021 142.406 72.3978 142.406 71.3779C142.406 70.3579 141.605 69.6536 140.524 69.6536C139.443 69.6536 138.654 70.3579 138.654 71.3779ZM138.933 76.8663C138.933 75.6156 140.257 74.8871 142.418 74.8871C144.568 74.8871 145.891 75.6156 145.891 76.8663C145.891 78.117 144.568 78.8455 142.418 78.8455C140.257 78.8455 138.933 78.117 138.933 76.8663ZM139.82 76.8663C139.82 77.6434 140.816 78.117 142.418 78.117C144.009 78.117 144.993 77.6434 144.993 76.8663C144.993 76.0892 144.009 75.6277 142.418 75.6277C140.816 75.6277 139.82 76.0892 139.82 76.8663ZM144.871 74.5471V68.2451H145.782V69.8601H147.348V70.625H145.782V72.1186H147.348V72.8835H145.782V74.5471H144.871ZM150.866 69.1801H151.776V71.1107C151.776 73.0535 153.1 75.0085 154.63 75.7249L154.084 76.4534C152.881 75.8585 151.837 74.5835 151.339 73.0535C150.854 74.6685 149.797 76.0285 148.559 76.6477L148 75.8949C149.542 75.1542 150.866 73.1264 150.866 71.1107V69.1801ZM155.808 78.8819V68.233H156.718V78.8819H155.808ZM164.025 70.2122H166.38V68.2451H167.291V73.7335H166.38V70.965H164.025V70.2122ZM158.573 73.0292C160.151 72.495 161.244 71.1593 161.244 69.5929V68.5729H162.13V69.5929C162.13 70.9893 163.247 72.2886 164.753 72.7985L164.279 73.5028C163.114 73.0778 162.179 72.2278 161.705 71.1593C161.268 72.3614 160.297 73.2964 159.058 73.7457L158.573 73.0292ZM160.479 75.0206V74.2921H167.291V76.8056H161.39V77.9955H167.692V78.7241H160.491V76.1135H166.392V75.0206H160.479ZM171.794 73.3328H181.386V74.0856H171.794V73.3328ZM172.947 76.9391C172.947 75.7249 174.307 75.0328 176.578 75.0328C178.836 75.0328 180.208 75.7249 180.208 76.9391C180.208 78.1655 178.836 78.8577 176.578 78.8577C174.307 78.8577 172.947 78.1655 172.947 76.9391ZM173.008 72.2886V68.6822H180.184V69.4472H173.906V71.5479H180.257V72.2886H173.008ZM173.858 76.9391C173.858 77.7041 174.89 78.1291 176.578 78.1291C178.266 78.1291 179.286 77.7041 179.286 76.9391C179.286 76.1984 178.266 75.7492 176.578 75.7492C174.89 75.7492 173.858 76.1984 173.858 76.9391ZM187.807 69.0708C188.779 69.0708 189.58 69.6415 190.03 70.6372H192.81V68.233H193.709V78.8819H192.81V74.7535H190.09C189.653 75.8342 188.827 76.4656 187.807 76.4656C186.265 76.4656 185.173 75.0206 185.173 72.7621C185.173 70.5036 186.265 69.0708 187.807 69.0708ZM186.035 72.7621C186.035 74.4985 186.763 75.652 187.807 75.652C188.864 75.652 189.592 74.4985 189.592 72.7621C189.592 71.0257 188.864 69.8843 187.807 69.8843C186.763 69.8843 186.035 71.0257 186.035 72.7621ZM190.285 71.39C190.394 71.8029 190.442 72.2643 190.442 72.7621C190.442 73.2114 190.394 73.6242 190.321 74.0007H192.81V71.39H190.285ZM203.31 68.233H204.208V78.8819H203.31V73.1021H201.245V72.3493H203.31V68.233ZM195.866 69.9936V69.2529H200.602V72.9321H196.789V75.5549C198.635 75.5549 199.946 75.4942 201.488 75.2149L201.573 75.9677C199.983 76.2592 198.623 76.3199 196.704 76.3199H195.891V72.1914H199.716V69.9936H195.866ZM213.251 68.233H214.173V72.58H215.886V73.345H214.173V78.8698H213.251V68.233ZM206.099 76.1256C208.831 74.7535 210.312 72.665 210.519 70.1393H206.584V69.3865H211.441C211.441 72.3857 210.033 75.1178 206.609 76.8299L206.099 76.1256ZM216.853 69.3379H222.791V70.1029H220.265V71.5357C220.265 73.345 221.601 75.1663 223.131 75.8342L222.609 76.5627C221.395 75.992 220.314 74.7535 219.816 73.2842C219.33 74.8506 218.262 76.2106 217.048 76.8177L216.525 76.1013C218.019 75.3728 219.355 73.3692 219.355 71.5357V70.1029H216.853V69.3379ZM224.272 78.8698V68.2451H225.183V78.8698H224.272ZM237.87 68.2451H238.744V78.8698H237.87V68.2451ZM229.71 70.8315V70.0908H231.884V68.5244H232.782V70.0908H234.968V70.8315H229.71ZM230.099 74.0249C230.099 72.58 231.034 71.5843 232.321 71.5843C233.608 71.5843 234.543 72.58 234.543 74.0249C234.543 74.1099 234.543 74.1949 234.531 74.2799H235.927V72.6043H234.421V71.8636H235.927V68.4879H236.777V78.3355H235.927V75.0206H234.373C234.057 75.907 233.28 76.4777 232.321 76.4777C231.034 76.4777 230.099 75.4699 230.099 74.0249ZM230.912 74.0249C230.912 74.9963 231.507 75.6885 232.321 75.6885C233.146 75.6885 233.741 74.9963 233.741 74.0249C233.741 73.0535 233.146 72.3614 232.321 72.3614C231.507 72.3614 230.912 73.0535 230.912 74.0249ZM240.72 69.0222H244.799V69.7751H241.594V71.1472H244.69V71.8636H241.594V73.3571C243.148 73.3571 244.107 73.2964 245.237 73.0778L245.334 73.8185C244.107 74.0614 243.099 74.1099 241.387 74.1099H240.72V69.0222ZM242.08 76.0042V75.2513H249.183V78.8698H248.284V76.0042H242.08ZM245.965 74.6199V68.4515H246.827V71.0379H248.321V68.2451H249.183V74.6806H248.321V71.7907H246.827V74.6199H245.965ZM258.517 68.233H259.427V78.8819H258.517V68.233ZM251.146 72.7621C251.146 70.5036 252.263 69.0708 253.842 69.0708C255.408 69.0708 256.525 70.5036 256.525 72.7621C256.525 75.0206 255.408 76.4656 253.842 76.4656C252.263 76.4656 251.146 75.0206 251.146 72.7621ZM252.033 72.7621C252.033 74.4985 252.773 75.652 253.842 75.652C254.898 75.652 255.651 74.4985 255.651 72.7621C255.651 71.0257 254.898 69.8843 253.842 69.8843C252.773 69.8843 252.033 71.0257 252.033 72.7621ZM266.65 74.8021H267.524V75.3849C267.524 76.3442 268.034 77.352 269.03 77.9348C270.062 77.2913 270.584 76.2106 270.584 75.3849V74.8021H271.471V75.3849C271.471 76.4899 272.284 77.5827 273.62 78.0441L273.171 78.7241C272.126 78.3477 271.386 77.5948 271.009 76.7084C270.694 77.5706 270.05 78.3962 269.066 78.8212C268.046 78.4205 267.391 77.6434 267.075 76.7449C266.699 77.5948 265.97 78.3355 264.962 78.7241L264.501 78.0441C265.837 77.5584 266.65 76.4049 266.65 75.3849V74.8021ZM264.222 71.3536C264.222 69.8843 265.375 68.8765 266.978 68.8765C268.581 68.8765 269.734 69.8843 269.734 71.3536C269.734 72.8107 268.581 73.8064 266.978 73.8064C265.375 73.8064 264.222 72.8107 264.222 71.3536ZM265.108 71.3536C265.108 72.3614 265.897 73.0535 266.978 73.0535C268.071 73.0535 268.848 72.3614 268.848 71.3536C268.848 70.3458 268.071 69.6415 266.978 69.6415C265.897 69.6415 265.108 70.3458 265.108 71.3536ZM271.75 74.3285V68.2572H272.673V74.3285H271.75ZM274.806 69.3379H280.744V70.1029H278.218V71.5357C278.218 73.345 279.554 75.1663 281.084 75.8342L280.562 76.5627C279.347 75.992 278.267 74.7535 277.769 73.2842C277.283 74.8506 276.215 76.2106 275 76.8177L274.478 76.1013C275.972 75.3728 277.307 73.3692 277.307 71.5357V70.1029H274.806V69.3379ZM282.225 78.8698V68.2451H283.136V78.8698H282.225ZM285.463 69.2044H290.32V74.1099H285.463V69.2044ZM286.35 73.3571H289.434V69.945H286.35V73.3571ZM286.653 78.627V75.2878H287.552V77.8741H293.72V78.627H286.653ZM292.324 76.0285V68.233H293.235V71.4871H294.813V72.2521H293.235V76.0285H292.324ZM301.016 69.0708C302.461 69.0708 303.505 70.3215 303.639 72.325H306.019V68.233H306.917V78.8819H306.019V73.0535H303.639C303.554 75.142 302.485 76.4656 301.016 76.4656C299.474 76.4656 298.381 75.0206 298.381 72.7621C298.381 70.5036 299.474 69.0708 301.016 69.0708ZM299.243 72.7621C299.243 74.4985 299.972 75.652 301.016 75.652C302.072 75.652 302.789 74.4985 302.789 72.7621C302.789 71.0257 302.072 69.8843 301.016 69.8843C299.972 69.8843 299.243 71.0257 299.243 72.7621ZM308.711 76.7449H318.34V77.5098H308.711V76.7449ZM309.9 69.8115V69.0586H317.137V72.24H310.823V74.0249H317.38V74.7778H309.925V71.5114H316.239V69.8115H309.9ZM86.8458 86.2572H87.7565V94.0285H86.8458V86.2572ZM79.196 91.7699C80.7745 91.1507 81.8673 89.5964 81.8673 87.9208V86.8279H82.778V87.9208C82.778 89.5357 83.883 90.9928 85.4494 91.5757L84.9637 92.3042C83.7494 91.8307 82.8023 90.8471 82.3409 89.6207C81.8916 90.9321 80.9324 91.9885 79.6817 92.4985L79.196 91.7699ZM80.9688 96.627V93.3242H81.8795V95.8741H88.0965V96.627H80.9688ZM94.9063 86.7915H95.7927V87.9572C95.7927 89.4143 96.8977 90.75 98.4033 91.2842L97.9298 91.9885C96.7641 91.5635 95.8291 90.665 95.3799 89.5357C94.9306 90.8107 93.9835 91.7942 92.7449 92.2921L92.2471 91.5635C93.8378 90.9807 94.9063 89.5357 94.9063 87.8965V86.7915ZM93.6678 94.927C93.6678 93.7127 94.9792 93.0085 97.1405 93.0085C99.314 93.0085 100.625 93.7127 100.625 94.927C100.625 96.1413 99.314 96.8455 97.1405 96.8455C94.9792 96.8455 93.6678 96.1413 93.6678 94.927ZM94.5542 94.927C94.5542 95.6798 95.5499 96.1291 97.1405 96.1291C98.7433 96.1291 99.7269 95.6798 99.7269 94.927C99.7269 94.1742 98.7433 93.7249 97.1405 93.7249C95.5499 93.7249 94.5542 94.1742 94.5542 94.927ZM99.6055 92.7171V86.2451H100.516V89.0257H102.107V89.7907H100.516V92.7171H99.6055ZM110.093 86.2572H111.004V89.475H112.594V90.2278H111.004V93.4578H110.093V86.2572ZM102.747 92.2314C103.597 92.2314 104.592 92.2314 105.624 92.1949V91.3207C104.386 91.2114 103.609 90.6771 103.609 89.8271C103.609 88.8922 104.568 88.3336 106.062 88.3336C107.555 88.3336 108.526 88.8922 108.526 89.8271C108.526 90.6771 107.749 91.2114 106.523 91.3085V92.1585C107.519 92.1099 108.526 92.0249 109.449 91.8914L109.51 92.5228C107.264 92.9356 104.726 92.9599 102.868 92.9599L102.747 92.2314ZM103.014 87.8722V87.1801H105.624V86.1601H106.523V87.1801H109.121V87.8722H103.014ZM104.167 95.2306C104.167 94.1742 105.43 93.6035 107.616 93.6035C109.814 93.6035 111.089 94.1742 111.089 95.2306C111.089 96.2748 109.814 96.8577 107.616 96.8577C105.43 96.8577 104.167 96.2748 104.167 95.2306ZM104.471 89.8271C104.471 90.3857 105.09 90.7135 106.062 90.7135C107.045 90.7135 107.664 90.3857 107.664 89.8271C107.664 89.305 107.045 88.9529 106.062 88.9529C105.09 88.9529 104.471 89.305 104.471 89.8271ZM105.078 95.2306C105.078 95.8255 105.989 96.1777 107.616 96.1777C109.243 96.1777 110.166 95.8255 110.166 95.2306C110.166 94.6234 109.243 94.2834 107.616 94.2834C105.989 94.2834 105.078 94.6234 105.078 95.2306ZM121.442 86.2451H122.317V96.8698H121.442V86.2451ZM113.44 90.8228C113.44 88.5643 114.327 87.1436 115.687 87.1436C116.986 87.1436 117.836 88.3822 117.945 90.3978H119.342V86.4879H120.204V96.3234H119.342V91.1507H117.945C117.872 93.227 116.998 94.5142 115.687 94.5142C114.327 94.5142 113.44 93.0935 113.44 90.8228ZM114.278 90.8228C114.278 92.5592 114.825 93.6642 115.687 93.6642C116.573 93.6642 117.12 92.5592 117.12 90.8228C117.12 89.0864 116.573 87.9936 115.687 87.9936C114.825 87.9936 114.278 89.0864 114.278 90.8228ZM133.935 86.233H134.846V90.4343H136.4V91.1992H134.846V96.8819H133.935V86.233ZM126.856 94.0649V87.3622H129.527V88.1029H127.754V93.2999C128.276 93.2756 128.932 93.227 129.636 93.0813L129.734 93.8342C128.738 94.0527 127.936 94.0649 127.317 94.0649H126.856ZM130.134 94.0649V87.3622H132.939V88.1029H131.021V93.2999C131.858 93.2878 132.526 93.2513 133.279 93.0571L133.388 93.8099C132.453 94.0406 131.713 94.0649 130.632 94.0649H130.134ZM144.289 86.233H145.187V90.4828H146.948V91.26H145.187V96.8819H144.289V86.233ZM137.44 87.9936V87.2529H142.237V91.0171H138.375V93.5428C140.354 93.5428 141.727 93.4699 143.342 93.1663L143.427 93.9192C141.763 94.2227 140.354 94.3077 138.315 94.3077H137.477V90.2643H141.338V87.9936H137.44ZM157.57 86.2451H158.481V88.8072H160.06V89.5843H158.481V92.4621H157.57V86.2451ZM150.71 91.7821V86.8279H151.608V88.4915H154.705V86.8279H155.603V91.7821H150.71ZM151.608 91.0292H154.705V89.22H151.608V91.0292ZM151.876 96.7241V93.0571H158.566V93.7977H152.786V95.9713H158.773V96.7241H151.876ZM165.544 86.4394C167.876 86.4394 169.272 87.0829 169.272 88.2729C169.272 89.4629 167.876 90.1186 165.544 90.1186C163.213 90.1186 161.817 89.4629 161.817 88.2729C161.817 87.0829 163.213 86.4394 165.544 86.4394ZM160.748 91.5999V90.8593H170.341V91.5999H160.748ZM161.914 93.2392V92.5349H169.102V94.8906H162.837V96.032H169.43V96.7484H161.95V94.2227H168.216V93.2392H161.914ZM162.752 88.2729C162.752 89.0136 163.796 89.4264 165.544 89.4264C167.293 89.4264 168.337 89.0136 168.337 88.2729C168.337 87.5443 167.293 87.1194 165.544 87.1194C163.796 87.1194 162.752 87.5443 162.752 88.2729ZM178.292 86.6337H179.239V87.2408C179.239 88.7465 181.206 90.0457 183.076 90.325L182.7 91.0535C181.085 90.7743 179.458 89.8514 178.778 88.5522C178.11 89.8757 176.47 90.7743 174.831 91.0535L174.455 90.325C176.349 90.0457 178.292 88.7829 178.292 87.2408V86.6337ZM173.957 93.0085V92.2556H183.562V93.0085H179.19V96.8698H178.292V93.0085H173.957ZM189.849 92.8021H190.724V93.3849C190.724 94.3442 191.234 95.352 192.229 95.9348C193.261 95.2913 193.784 94.2106 193.784 93.3849V92.8021H194.67V93.3849C194.67 94.4899 195.484 95.5827 196.819 96.0441L196.37 96.7241C195.326 96.3477 194.585 95.5948 194.209 94.7084C193.893 95.5706 193.249 96.3962 192.266 96.8212C191.246 96.4205 190.59 95.6434 190.274 94.7449C189.898 95.5948 189.169 96.3355 188.162 96.7241L187.7 96.0441C189.036 95.5584 189.849 94.4049 189.849 93.3849V92.8021ZM187.421 89.3536C187.421 87.8843 188.574 86.8765 190.177 86.8765C191.78 86.8765 192.934 87.8843 192.934 89.3536C192.934 90.8107 191.78 91.8064 190.177 91.8064C188.574 91.8064 187.421 90.8107 187.421 89.3536ZM188.307 89.3536C188.307 90.3614 189.097 91.0535 190.177 91.0535C191.27 91.0535 192.047 90.3614 192.047 89.3536C192.047 88.3458 191.27 87.6415 190.177 87.6415C189.097 87.6415 188.307 88.3458 188.307 89.3536ZM194.949 92.3285V86.2572H195.872V92.3285H194.949ZM198.989 86.6337H199.888V89.475H206.19V90.2157H198.989V86.6337ZM197.678 92.4256V91.6728H207.307V92.4256H197.678ZM198.928 96.6148V93.5063H199.827V95.862H206.25V96.6148H198.928ZM219.022 86.2451H219.896V96.8698H219.022V86.2451ZM210.862 88.8315V88.0908H213.036V86.5244H213.934V88.0908H216.12V88.8315H210.862ZM211.251 92.0249C211.251 90.58 212.186 89.5843 213.473 89.5843C214.76 89.5843 215.695 90.58 215.695 92.0249C215.695 92.1099 215.695 92.1949 215.683 92.2799H217.079V90.6043H215.574V89.8636H217.079V86.4879H217.929V96.3355H217.079V93.0206H215.525C215.209 93.907 214.432 94.4777 213.473 94.4777C212.186 94.4777 211.251 93.4699 211.251 92.0249ZM212.064 92.0249C212.064 92.9963 212.659 93.6885 213.473 93.6885C214.299 93.6885 214.894 92.9963 214.894 92.0249C214.894 91.0535 214.299 90.3614 213.473 90.3614C212.659 90.3614 212.064 91.0535 212.064 92.0249ZM221.872 87.0222H225.952V87.7751H222.746V89.1472H225.842V89.8636H222.746V91.3571C224.3 91.3571 225.26 91.2964 226.389 91.0778L226.486 91.8185C225.26 92.0614 224.252 92.1099 222.54 92.1099H221.872V87.0222ZM223.232 94.0042V93.2513H230.335V96.8698H229.437V94.0042H223.232ZM227.117 92.6199V86.4515H227.979V89.0379H229.473V86.2451H230.335V92.6806H229.473V89.7907H227.979V92.6199H227.117ZM239.669 86.233H240.58V96.8819H239.669V86.233ZM232.298 90.7621C232.298 88.5036 233.416 87.0708 234.994 87.0708C236.56 87.0708 237.678 88.5036 237.678 90.7621C237.678 93.0206 236.56 94.4656 234.994 94.4656C233.416 94.4656 232.298 93.0206 232.298 90.7621ZM233.185 90.7621C233.185 92.4985 233.926 93.652 234.994 93.652C236.05 93.652 236.803 92.4985 236.803 90.7621C236.803 89.0257 236.05 87.8843 234.994 87.8843C233.926 87.8843 233.185 89.0257 233.185 90.7621ZM245.617 86.8644H250.304V87.5929H246.527V90.4464C248.604 90.4464 249.854 90.3736 251.299 90.0821L251.409 90.8107C249.891 91.1264 248.592 91.1871 246.43 91.1871H245.617V86.8644ZM246.649 92.8749V92.1464H253.364V94.7327H247.572V95.9834H253.752V96.7241H246.673V94.0285H252.465V92.8749H246.649ZM252.453 91.5999V86.2451H253.364V88.5036H254.942V89.2686H253.364V91.5999H252.453ZM262.892 86.233H263.79V90.4828H265.551V91.26H263.79V96.8819H262.892V86.233ZM256.043 87.9936V87.2529H260.84V91.0171H256.978V93.5428C258.958 93.5428 260.33 93.4699 261.945 93.1663L262.03 93.9192C260.366 94.2227 258.958 94.3077 256.918 94.3077H256.08V90.2643H259.941V87.9936H256.043ZM266.142 94.7327H268.534V91.8307C267.636 91.3692 267.089 90.6043 267.089 89.645C267.089 87.9936 268.704 86.9251 270.938 86.9251C273.197 86.9251 274.788 87.9936 274.788 89.645C274.788 90.5921 274.253 91.345 273.379 91.8185V94.7327H275.771V95.4856H266.142V94.7327ZM267.976 89.645C267.976 90.8471 269.214 91.6364 270.938 91.6364C272.663 91.6364 273.913 90.8471 273.913 89.645C273.913 88.4429 272.663 87.6536 270.938 87.6536C269.214 87.6536 267.976 88.4429 267.976 89.645ZM269.433 94.7327H272.468V92.1706C272.007 92.2921 271.497 92.3528 270.938 92.3528C270.392 92.3528 269.894 92.2921 269.433 92.1706V94.7327Z" fill="#616161"/>
<rect width="309.634" height="114.851" transform="translate(24.623 122.57)" fill="white"/>
<path d="M38.1143 146.488C38.1143 137.546 45.3628 130.298 54.3043 130.298C63.2458 130.298 70.4943 137.546 70.4943 146.488C70.4943 155.429 63.2458 162.678 54.3043 162.678C45.3628 162.678 38.1143 155.429 38.1143 146.488Z" fill="#FFF5E6"/>
<path d="M49.4872 138.326C52.3267 138.326 53.642 140.312 54.2952 141.497C54.9485 140.312 56.2637 138.326 59.1032 138.326C61.9427 138.326 64.0854 140.199 64.0854 143.247C64.0854 146.296 62.4305 148.9 60.4707 150.886C58.6242 152.759 55.8543 154.649 54.3039 154.649C52.7535 154.649 49.9837 152.759 48.1372 150.886C46.1687 148.9 44.5225 146.209 44.5225 143.247C44.5225 140.286 46.6477 138.326 49.4872 138.326Z" fill="#FF8120"/>
<path d="M50.547 146.919H50.1457C49.936 146.919 49.7627 146.751 49.7627 146.549V146.364C49.7627 146.161 49.936 145.994 50.1457 145.994C50.392 145.994 50.5744 145.773 50.5197 145.544L49.9998 143.429C49.9451 143.2 50.1275 142.98 50.3738 142.98H50.9666C51.149 142.98 51.304 143.103 51.3405 143.27L51.8604 145.703C51.8968 145.87 52.0519 145.994 52.2343 145.994H52.5717C52.7541 145.994 52.9001 145.87 52.9457 145.703L53.5203 143.253C53.5567 143.085 53.7118 142.962 53.8942 142.962H54.5691C54.7424 142.962 54.8974 143.076 54.943 143.244L55.5267 145.694C55.5632 145.861 55.7182 145.976 55.9006 145.976H56.2472C56.4296 145.976 56.5847 145.853 56.6211 145.685L57.141 143.253C57.1775 143.085 57.3325 142.962 57.5149 142.962H58.0804C58.3266 142.962 58.509 143.182 58.4543 143.411L57.9345 145.526C57.8797 145.756 58.0622 145.976 58.3084 145.976C58.5182 145.976 58.6914 146.143 58.6914 146.346V146.531C58.6914 146.734 58.5182 146.901 58.3084 146.901H57.9071C57.7338 146.901 57.5788 147.016 57.5332 147.183L56.9312 149.624C56.8948 149.792 56.7397 149.907 56.5573 149.907H55.7182C55.5358 149.907 55.3899 149.783 55.3443 149.616L54.7788 147.183C54.7424 147.016 54.5873 146.892 54.4049 146.892H54.0401C53.8577 146.892 53.7118 147.016 53.6662 147.183L53.1007 149.616C53.0642 149.783 52.9092 149.907 52.7268 149.907H51.8877C51.7144 149.907 51.5594 149.792 51.5138 149.624L50.9119 147.183C50.8754 147.016 50.7203 146.901 50.5379 146.901L50.547 146.919ZM52.3437 148.003H52.4076L52.6629 146.919H52.1157L52.3529 148.003H52.3437ZM54.487 146.002L54.2499 144.998H54.186L53.9489 146.002H54.4779H54.487ZM56.0648 148.003H56.1286L56.3658 146.919H55.8186L56.0739 148.003H56.0648Z" fill="white"/>
<path d="M87.7767 134.343H89.3687V146.431H87.7767V134.343ZM78.9936 137.5V136.177H81.0174V134.626H82.6634V136.177H84.7141V137.5H78.9936ZM79.25 140.981C79.25 139.281 80.3428 138.08 81.8269 138.08C83.311 138.08 84.4038 139.281 84.4038 140.981V141.088H85.4696V139.591H84.134V138.269H85.4696V134.545H87.0212V145.878H85.4696V142.411H84.107C83.6887 143.315 82.8522 143.895 81.8269 143.895C80.3428 143.895 79.25 142.68 79.25 140.981ZM80.7206 140.981C80.7206 141.925 81.1658 142.478 81.8269 142.478C82.488 142.478 82.9467 141.925 82.9467 140.981C82.9467 140.036 82.488 139.483 81.8269 139.483C81.1658 139.483 80.7206 140.036 80.7206 140.981ZM91.1162 135.152H95.8518V136.474H92.7217V137.527H95.7439V138.781H92.7217V139.888C94.0574 139.874 95.0288 139.807 96.1486 139.618L96.3105 140.94C94.9344 141.196 93.7606 141.223 91.9527 141.223H91.1162V135.152ZM92.6947 143.571V142.235H100.979V146.431H99.3192V143.571H92.6947ZM96.8097 141.628V134.558H98.3613V137.311H99.4001V134.329H100.979V141.709H99.4001V138.66H98.3613V141.628H96.8097ZM102.389 140.522H113.317V141.844H102.389V140.522ZM103.482 137.176C103.482 135.651 105.222 134.693 107.853 134.693C110.484 134.693 112.224 135.651 112.224 137.176C112.224 138.727 110.484 139.672 107.853 139.672C105.222 139.672 103.482 138.727 103.482 137.176ZM103.725 146.215V142.694H105.384V144.88H112.089V146.215H103.725ZM105.209 137.176C105.209 137.945 106.193 138.336 107.853 138.336C109.512 138.336 110.497 137.945 110.497 137.176C110.497 136.42 109.512 136.029 107.853 136.029C106.193 136.029 105.209 136.42 105.209 137.176ZM120.38 135.179C121.999 135.179 123.227 136.515 123.456 138.714H125.547V134.316H127.207V146.445H125.547V140.05H123.47C123.308 142.37 122.053 143.8 120.38 143.8C118.586 143.8 117.277 142.141 117.277 139.483C117.277 136.839 118.586 135.179 120.38 135.179ZM118.869 139.483C118.869 141.291 119.476 142.289 120.38 142.289C121.297 142.289 121.904 141.291 121.904 139.483C121.904 137.675 121.297 136.69 120.38 136.69C119.476 136.69 118.869 137.675 118.869 139.483ZM130.303 141.385H133.892V140.427H135.579V141.385H139.154V142.64H130.303V141.385ZM128.968 140.009V134.828H132.111V136.11H130.6V138.7C131.126 138.673 131.639 138.619 132.219 138.512L132.354 139.807C131.342 139.996 130.573 140.009 129.561 140.009H128.968ZM131.194 144.745C131.194 143.638 132.516 143.045 134.715 143.045C136.928 143.045 138.236 143.638 138.236 144.745C138.236 145.824 136.928 146.445 134.715 146.445C132.516 146.445 131.194 145.824 131.194 144.745ZM132.678 140.009V134.828H136.037V136.11H134.324V138.7C135.187 138.687 135.727 138.633 136.334 138.498L136.469 139.78C135.606 139.996 134.904 140.009 133.325 140.009H132.678ZM132.975 144.745C132.975 145.136 133.595 145.311 134.715 145.311C135.835 145.311 136.442 145.136 136.442 144.745C136.442 144.34 135.835 144.165 134.715 144.165C133.595 144.165 132.975 144.34 132.975 144.745ZM135.7 137.931V136.69H137.333V134.343H138.992V140.778H137.333V137.931H135.7ZM149.266 134.329H150.858V146.418H149.266V134.329ZM140.321 142.734C142.763 141.277 143.829 139.51 144.058 137.108H140.982V135.773H145.704C145.704 136.92 145.583 137.999 145.286 138.997H146.716V134.599H148.281V145.878H146.716V140.333H144.774C144.085 141.709 142.966 142.91 141.266 143.908L140.321 142.734ZM163.007 134.343H164.68V137.095H166.299V138.471H164.68V141.399H163.007V134.343ZM155.547 140.778V135.031H157.206V136.596H159.675V135.031H161.334V140.778H155.547ZM156.855 146.283V141.938H164.761V143.261H158.528V144.947H164.991V146.283H156.855ZM157.206 139.456H159.675V137.877H157.206V139.456ZM172.324 134.518C175.076 134.518 176.695 135.233 176.695 136.582C176.695 137.918 175.076 138.646 172.324 138.646C169.585 138.646 167.952 137.918 167.952 136.582C167.952 135.233 169.585 134.518 172.324 134.518ZM166.86 140.562V139.227H177.788V140.562H166.86ZM168.114 142.505V141.264H176.452V144.34H169.774V145.082H176.776V146.337H168.141V143.166H174.806V142.505H168.114ZM169.693 136.582C169.693 137.162 170.556 137.419 172.324 137.419C174.091 137.419 174.955 137.162 174.955 136.582C174.955 136.016 174.091 135.732 172.324 135.732C170.556 135.732 169.693 136.016 169.693 136.582ZM186.159 134.693H187.927V135.287C187.927 136.717 189.384 138.296 192.096 138.66L191.448 139.996C189.357 139.672 187.819 138.687 187.05 137.378C186.267 138.7 184.729 139.672 182.638 139.996L181.977 138.66C184.702 138.296 186.159 136.731 186.159 135.287V134.693ZM181.572 142.289V140.927H192.5V142.289H187.832V146.431H186.159V142.289H181.572ZM199.01 141.696H200.629V142.114C200.629 143.085 201.034 144.097 202.005 144.772C203.004 144.057 203.422 143.004 203.422 142.114V141.696H205.068V142.114C205.068 143.369 205.756 144.542 207.334 145.028L206.525 146.256C205.378 145.865 204.636 145.122 204.218 144.192C203.827 145.122 203.125 145.932 202.032 146.377C200.926 145.959 200.224 145.176 199.833 144.232C199.401 145.136 198.659 145.865 197.566 146.256L196.744 145.028C198.322 144.488 199.01 143.288 199.01 142.114V141.696ZM196.447 137.864C196.447 136.164 197.85 134.963 199.725 134.963C201.601 134.963 203.004 136.164 203.004 137.864C203.004 139.537 201.601 140.738 199.725 140.738C197.85 140.738 196.447 139.537 196.447 137.864ZM198.079 137.864C198.079 138.795 198.781 139.362 199.725 139.362C200.67 139.362 201.371 138.795 201.371 137.864C201.371 136.92 200.67 136.353 199.725 136.353C198.781 136.353 198.079 136.92 198.079 137.864ZM204.609 141.183V134.343H206.309V141.183H204.609ZM215.733 134.316H217.406V138.93H219.106V140.306H217.406V146.418H215.733V134.316ZM208.34 143.449V135.489H209.999V142.073C211.551 142.046 213.21 141.898 214.924 141.561L215.099 142.923C213.076 143.342 211.16 143.449 209.365 143.449H208.34ZM219.653 143.638H222.082V140.657C221.164 140.09 220.597 139.227 220.597 138.161C220.597 136.204 222.513 134.936 225.104 134.936C227.708 134.936 229.61 136.204 229.61 138.161C229.61 139.213 229.057 140.077 228.153 140.643V143.638H230.595V145.001H219.653V143.638ZM222.257 138.161C222.257 139.375 223.404 140.09 225.104 140.09C226.817 140.09 227.964 139.375 227.964 138.161C227.964 136.946 226.817 136.231 225.104 136.231C223.404 136.231 222.257 136.946 222.257 138.161ZM223.754 143.638H226.48V141.264C226.048 141.358 225.589 141.399 225.104 141.399C224.631 141.399 224.173 141.358 223.754 141.277V143.638ZM234.46 145.676C233.867 145.676 233.543 145.271 233.543 144.758C233.543 144.259 233.867 143.854 234.46 143.854C235.054 143.854 235.364 144.259 235.364 144.758C235.364 145.271 235.054 145.676 234.46 145.676ZM231.425 137.041C231.938 135.665 233.152 134.707 234.663 134.707C236.39 134.707 237.982 136.164 237.901 137.918C237.847 138.889 237.348 139.834 236.026 140.832C235.364 141.318 235.243 141.574 235.256 142.546L233.624 142.573C233.61 141.142 234.029 140.279 235.054 139.51C236.026 138.795 236.241 138.39 236.268 137.837C236.309 136.906 235.58 136.326 234.663 136.326C233.786 136.326 233.273 136.744 232.949 137.608L231.425 137.041Z" fill="#1A1A1A"/>
<path d="M81.6974 161.502H82.5838V162.668C82.5838 164.125 83.6887 165.461 85.1944 165.995L84.7208 166.699C83.5552 166.274 82.6202 165.376 82.1709 164.247C81.7216 165.522 80.7745 166.505 79.536 167.003L79.0381 166.274C80.6288 165.692 81.6974 164.247 81.6974 162.607V161.502ZM80.4588 169.638C80.4588 168.424 81.7702 167.719 83.9316 167.719C86.1051 167.719 87.4165 168.424 87.4165 169.638C87.4165 170.852 86.1051 171.556 83.9316 171.556C81.7702 171.556 80.4588 170.852 80.4588 169.638ZM81.3452 169.638C81.3452 170.391 82.3409 170.84 83.9316 170.84C85.5344 170.84 86.5179 170.391 86.5179 169.638C86.5179 168.885 85.5344 168.436 83.9316 168.436C82.3409 168.436 81.3452 168.885 81.3452 169.638ZM86.3965 167.428V160.956H87.3072V163.737H88.8979V164.502H87.3072V167.428H86.3965ZM96.9203 160.956H97.831V163.579H99.4095V164.32H97.831V166.979H96.9203V160.956ZM90.1084 166.347V161.672H94.7711V162.413H91.0069V165.594C93.1318 165.594 94.3461 165.534 95.7546 165.242L95.8639 165.983C94.3825 166.287 93.1318 166.347 90.9219 166.347H90.1084ZM91.189 171.423V167.549H97.831V171.423H91.189ZM92.0754 170.682H96.9325V168.278H92.0754V170.682ZM104.894 161.15C107.226 161.15 108.622 161.794 108.622 162.984C108.622 164.174 107.226 164.829 104.894 164.829C102.563 164.829 101.166 164.174 101.166 162.984C101.166 161.794 102.563 161.15 104.894 161.15ZM100.098 166.311V165.57H109.69V166.311H100.098ZM101.264 167.95V167.246H108.452V169.602H102.186V170.743H108.78V171.459H101.3V168.934H107.566V167.95H101.264ZM102.101 162.984C102.101 163.725 103.146 164.137 104.894 164.137C106.643 164.137 107.687 163.725 107.687 162.984C107.687 162.255 106.643 161.83 104.894 161.83C103.146 161.83 102.101 162.255 102.101 162.984ZM120.556 160.956H121.467V165.352H123.227V166.117H121.467V171.581H120.556V160.956ZM113.246 163.421V162.668H115.966V161.077H116.889V162.668H119.536V163.421H113.246ZM113.865 166.76C113.865 165.327 114.958 164.332 116.44 164.332C117.933 164.332 119.014 165.327 119.014 166.76C119.014 168.193 117.933 169.189 116.44 169.189C114.958 169.189 113.865 168.193 113.865 166.76ZM114.74 166.76C114.74 167.732 115.444 168.424 116.44 168.424C117.423 168.424 118.14 167.732 118.14 166.76C118.14 165.789 117.423 165.084 116.44 165.084C115.444 165.084 114.74 165.789 114.74 166.76ZM124.316 161.879H129.137V162.85H131.626V160.968H132.537V168.715H131.626V165.874H129.137V166.833H124.316V161.879ZM125.203 166.092H128.251V162.62H125.203V166.092ZM125.737 171.338V168.023H126.648V170.585H132.792V171.338H125.737ZM129.137 165.121H131.626V163.603H129.137V165.121ZM142.649 163.907H144.835V160.968H145.746V168.739H144.835V164.66H142.649V163.907ZM137.064 166.651C138.618 166.092 139.76 164.684 139.76 163.154V162.583H137.355V161.83H143.026V162.583H140.67V163.142C140.67 164.526 141.751 165.874 143.269 166.408L142.807 167.124C141.617 166.687 140.682 165.789 140.233 164.684C139.784 165.91 138.8 166.906 137.537 167.379L137.064 166.651ZM138.982 171.338V168.059H139.893V170.585H146.049V171.338H138.982ZM147.527 166.42H157.156V167.161H152.87V169.347H151.947V167.161H147.527V166.42ZM148.765 171.35V168.302H149.676V170.597H156.087V171.35H148.765ZM148.778 165.169V161.466H155.905V165.169H148.778ZM149.664 164.429H155.007V162.195H149.664V164.429ZM165.288 160.944H166.211V165.291H167.923V166.056H166.211V171.581H165.288V160.944ZM158.136 168.837C160.868 167.464 162.349 165.376 162.556 162.85H158.621V162.097H163.478C163.478 165.097 162.07 167.829 158.646 169.541L158.136 168.837ZM175.799 160.944H176.722V165.291H178.434V166.056H176.722V171.581H175.799V160.944ZM168.647 168.837C171.379 167.464 172.861 165.376 173.067 162.85H169.133V162.097H173.99C173.99 165.097 172.582 167.829 169.157 169.541L168.647 168.837ZM184.588 161.782C186.033 161.782 187.078 163.032 187.211 165.036H189.591V160.944H190.49V171.593H189.591V165.764H187.211C187.126 167.853 186.058 169.177 184.588 169.177C183.046 169.177 181.954 167.732 181.954 165.473C181.954 163.215 183.046 161.782 184.588 161.782ZM182.816 165.473C182.816 167.209 183.544 168.363 184.588 168.363C185.645 168.363 186.361 167.209 186.361 165.473C186.361 163.737 185.645 162.595 184.588 162.595C183.544 162.595 182.816 163.737 182.816 165.473ZM193.752 167.294H197.079V166.262H197.99V167.294H201.305V168.011H193.752V167.294ZM192.574 165.837V161.49H195.222V162.219H193.473V165.109C194.007 165.084 194.639 165.036 195.355 164.878L195.464 165.619C194.457 165.825 193.667 165.837 193.036 165.837H192.574ZM194.542 170.051C194.542 169.067 195.634 168.533 197.529 168.533C199.411 168.533 200.516 169.067 200.516 170.051C200.516 171.034 199.411 171.569 197.529 171.569C195.634 171.569 194.542 171.034 194.542 170.051ZM195.489 170.051C195.489 170.609 196.241 170.913 197.529 170.913C198.804 170.913 199.556 170.609 199.556 170.051C199.556 169.492 198.804 169.177 197.529 169.177C196.241 169.177 195.489 169.492 195.489 170.051ZM195.829 165.837V161.49H198.755V162.219H196.727V165.109C197.638 165.097 198.342 165.048 199.168 164.866L199.265 165.594C198.281 165.813 197.492 165.837 196.339 165.837H195.829ZM198.245 163.895V163.178H200.212V160.956H201.111V166.602H200.212V163.895H198.245ZM210.93 160.956H211.804V171.581H210.93V160.956ZM202.807 168.618C205.102 167.246 206.255 165.303 206.425 163.069H203.244V162.316H207.336C207.336 163.36 207.166 164.38 206.802 165.327H208.72V161.235H209.582V171.022H208.72V166.068H206.474C205.83 167.307 204.81 168.412 203.341 169.286L202.807 168.618ZM216.259 161.745H221.941V162.498H219.561V162.96C219.561 164.368 220.606 165.619 222.148 166.141L221.711 166.845C220.509 166.432 219.586 165.594 219.136 164.514C218.687 165.74 217.704 166.712 216.441 167.161L215.979 166.444C217.558 165.886 218.663 164.514 218.663 162.972V162.498H216.259V161.745ZM217.388 169.602C217.388 168.375 218.711 167.671 220.861 167.671C223.022 167.671 224.346 168.375 224.346 169.602C224.346 170.84 223.022 171.556 220.861 171.556C218.711 171.556 217.388 170.84 217.388 169.602ZM218.274 169.602C218.274 170.379 219.27 170.84 220.861 170.84C222.463 170.84 223.447 170.379 223.447 169.602C223.447 168.849 222.463 168.399 220.861 168.399C219.27 168.399 218.274 168.849 218.274 169.602ZM223.326 167.367V160.956H224.236V163.688H225.827V164.441H224.236V167.367H223.326ZM234.299 160.956H235.209V171.581H234.299V160.956ZM226.649 168.849C229.514 167.477 230.959 165.4 231.154 162.85H227.122V162.097H232.077C232.077 165.157 230.668 167.853 227.135 169.577L226.649 168.849ZM237.027 169.444H239.419V166.542C238.52 166.08 237.974 165.315 237.974 164.356C237.974 162.705 239.589 161.636 241.823 161.636C244.082 161.636 245.672 162.705 245.672 164.356C245.672 165.303 245.138 166.056 244.264 166.529V169.444H246.656V170.196H237.027V169.444ZM238.86 164.356C238.86 165.558 240.099 166.347 241.823 166.347C243.547 166.347 244.798 165.558 244.798 164.356C244.798 163.154 243.547 162.365 241.823 162.365C240.099 162.365 238.86 163.154 238.86 164.356ZM240.318 169.444H243.353V166.882C242.892 167.003 242.382 167.064 241.823 167.064C241.277 167.064 240.779 167.003 240.318 166.882V169.444ZM250.514 161.587C252.104 161.587 253.27 162.607 253.27 164.089C253.27 165.57 252.104 166.578 250.514 166.578C248.911 166.578 247.757 165.57 247.757 164.089C247.757 162.607 248.911 161.587 250.514 161.587ZM248.644 164.089C248.644 165.109 249.433 165.813 250.514 165.813C251.594 165.813 252.396 165.109 252.396 164.089C252.396 163.069 251.594 162.365 250.514 162.365C249.433 162.365 248.644 163.069 248.644 164.089ZM248.923 169.577C248.923 168.327 250.246 167.598 252.408 167.598C254.557 167.598 255.881 168.327 255.881 169.577C255.881 170.828 254.557 171.556 252.408 171.556C250.246 171.556 248.923 170.828 248.923 169.577ZM249.809 169.577C249.809 170.354 250.805 170.828 252.408 170.828C253.998 170.828 254.982 170.354 254.982 169.577C254.982 168.8 253.998 168.339 252.408 168.339C250.805 168.339 249.809 168.8 249.809 169.577ZM254.861 167.258V160.956H255.771V162.571H257.338V163.336H255.771V164.829H257.338V165.594H255.771V167.258H254.861ZM258.05 169.444H262.397V167.124H259.204V161.709H260.102V163.627H265.615V161.709H266.514V167.124H263.296V169.444H267.679V170.209H258.05V169.444ZM260.102 166.384H265.615V164.38H260.102V166.384ZM276.357 160.956H277.268V167.392H276.357V164.951H274.548V164.198H276.357V160.956ZM268.562 162.826V162.085H271.185V160.847H272.083V162.085H274.706V162.826H268.562ZM269.181 165.279C269.181 164.162 270.213 163.385 271.634 163.385C273.067 163.385 274.075 164.162 274.075 165.279C274.075 166.408 273.067 167.173 271.634 167.173C270.213 167.173 269.181 166.408 269.181 165.279ZM270.055 165.279C270.055 165.983 270.711 166.469 271.634 166.469C272.545 166.469 273.2 165.983 273.2 165.279C273.2 164.575 272.545 164.089 271.634 164.089C270.711 164.089 270.055 164.575 270.055 165.279ZM270.395 171.435V167.962H277.268V171.435H270.395ZM271.294 170.694H276.382V168.703H271.294V170.694ZM289.906 160.956H290.781V171.581H289.906V160.956ZM281.747 163.542V162.802H283.92V161.235H284.819V162.802H287.004V163.542H281.747ZM282.135 166.736C282.135 165.291 283.07 164.295 284.357 164.295C285.644 164.295 286.579 165.291 286.579 166.736C286.579 166.821 286.579 166.906 286.567 166.991H287.964V165.315H286.458V164.575H287.964V161.199H288.814V171.046H287.964V167.732H286.409C286.094 168.618 285.316 169.189 284.357 169.189C283.07 169.189 282.135 168.181 282.135 166.736ZM282.949 166.736C282.949 167.707 283.544 168.399 284.357 168.399C285.183 168.399 285.778 167.707 285.778 166.736C285.778 165.764 285.183 165.072 284.357 165.072C283.544 165.072 282.949 165.764 282.949 166.736ZM292.756 161.733H296.836V162.486H293.63V163.858H296.727V164.575H293.63V166.068C295.185 166.068 296.144 166.007 297.273 165.789L297.37 166.529C296.144 166.772 295.136 166.821 293.424 166.821H292.756V161.733ZM294.116 168.715V167.962H301.219V171.581H300.321V168.715H294.116ZM298.002 167.331V161.162H298.864V163.749H300.357V160.956H301.219V167.392H300.357V164.502H298.864V167.331H298.002ZM307.59 161.15C309.922 161.15 311.318 161.794 311.318 162.984C311.318 164.174 309.922 164.829 307.59 164.829C305.259 164.829 303.863 164.174 303.863 162.984C303.863 161.794 305.259 161.15 307.59 161.15ZM302.794 166.311V165.57H312.387V166.311H302.794ZM303.96 167.95V167.246H311.148V169.602H304.883V170.743H311.476V171.459H303.996V168.934H310.262V167.95H303.96ZM304.798 162.984C304.798 163.725 305.842 164.137 307.59 164.137C309.339 164.137 310.383 163.725 310.383 162.984C310.383 162.255 309.339 161.83 307.59 161.83C305.842 161.83 304.798 162.255 304.798 162.984ZM86.4087 178.956H87.3193V181.518H88.8979V182.295H87.3193V185.173H86.4087V178.956ZM79.5481 184.493V179.539H80.4467V181.202H83.543V179.539H84.4416V184.493H79.5481ZM80.4467 183.74H83.543V181.931H80.4467V183.74ZM80.7138 189.435V185.768H87.4043V186.509H81.6245V188.682H87.6108V189.435H80.7138ZM94.3825 179.15C96.7139 179.15 98.1103 179.794 98.1103 180.984C98.1103 182.174 96.7139 182.829 94.3825 182.829C92.0512 182.829 90.6548 182.174 90.6548 180.984C90.6548 179.794 92.0512 179.15 94.3825 179.15ZM89.5862 184.311V183.57H99.1788V184.311H89.5862ZM90.7519 185.95V185.246H97.9403V187.602H91.6747V188.743H98.2681V189.459H90.7883V186.934H97.0539V185.95H90.7519ZM91.5897 180.984C91.5897 181.725 92.634 182.137 94.3825 182.137C96.131 182.137 97.1753 181.725 97.1753 180.984C97.1753 180.255 96.131 179.83 94.3825 179.83C92.634 179.83 91.5897 180.255 91.5897 180.984ZM107.13 179.345H108.077V179.952C108.077 181.457 110.044 182.757 111.914 183.036L111.538 183.764C109.923 183.485 108.296 182.562 107.616 181.263C106.948 182.587 105.309 183.485 103.669 183.764L103.293 183.036C105.187 182.757 107.13 181.494 107.13 179.952V179.345ZM102.795 185.719V184.967H112.4V185.719H108.029V189.581H107.13V185.719H102.795ZM118.688 185.513H119.562V186.096C119.562 187.055 120.072 188.063 121.068 188.646C122.1 188.002 122.622 186.922 122.622 186.096V185.513H123.508V186.096C123.508 187.201 124.322 188.294 125.657 188.755L125.208 189.435C124.164 189.059 123.423 188.306 123.047 187.419C122.731 188.281 122.088 189.107 121.104 189.532C120.084 189.131 119.428 188.354 119.113 187.456C118.736 188.306 118.008 189.046 117 189.435L116.538 188.755C117.874 188.269 118.688 187.116 118.688 186.096V185.513ZM116.259 182.065C116.259 180.595 117.413 179.587 119.015 179.587C120.618 179.587 121.772 180.595 121.772 182.065C121.772 183.522 120.618 184.517 119.015 184.517C117.413 184.517 116.259 183.522 116.259 182.065ZM117.146 182.065C117.146 183.072 117.935 183.764 119.015 183.764C120.108 183.764 120.885 183.072 120.885 182.065C120.885 181.057 120.108 180.352 119.015 180.352C117.935 180.352 117.146 181.057 117.146 182.065ZM123.787 185.039V178.968H124.71V185.039H123.787ZM131.312 179.15C133.643 179.15 135.04 179.794 135.04 180.984C135.04 182.174 133.643 182.829 131.312 182.829C128.981 182.829 127.584 182.174 127.584 180.984C127.584 179.794 128.981 179.15 131.312 179.15ZM126.516 184.311V183.57H136.108V184.311H126.516ZM127.681 185.95V185.246H134.87V187.602H128.604V188.743H135.198V189.459H127.718V186.934H133.983V185.95H127.681ZM128.519 180.984C128.519 181.725 129.564 182.137 131.312 182.137C133.061 182.137 134.105 181.725 134.105 180.984C134.105 180.255 133.061 179.83 131.312 179.83C129.564 179.83 128.519 180.255 128.519 180.984ZM140.053 180.049H145.99V180.814H143.465V182.247C143.465 184.056 144.8 185.877 146.33 186.545L145.808 187.274C144.594 186.703 143.513 185.464 143.015 183.995C142.53 185.562 141.461 186.922 140.247 187.529L139.725 186.812C141.218 186.084 142.554 184.08 142.554 182.247V180.814H140.053V180.049ZM147.472 189.581V178.956H148.382V189.581H147.472ZM160.256 178.956H161.166V181.275H162.757V182.028H161.166V184.372H160.256V178.956ZM153.152 181.7C153.152 180.316 154.306 179.345 155.872 179.345C157.463 179.345 158.616 180.316 158.616 181.7C158.616 183.097 157.463 184.056 155.872 184.056C154.306 184.056 153.152 183.097 153.152 181.7ZM154.039 181.7C154.039 182.635 154.816 183.315 155.872 183.315C156.953 183.315 157.73 182.635 157.73 181.7C157.73 180.765 156.953 180.085 155.872 180.085C154.816 180.085 154.039 180.765 154.039 181.7ZM154.464 185.61V184.882H161.166V187.456H155.386V188.694H161.555V189.435H154.488V186.764H160.268V185.61H154.464ZM171.253 178.944H172.152V189.593H171.253V185.052H169.043V184.311H171.253V182.15H169.116V181.397H171.253V178.944ZM163.81 180.68V179.927H168.436V183.692H164.732V186.339C166.335 186.339 167.659 186.278 169.262 186.023L169.347 186.788C167.671 187.055 166.311 187.104 164.623 187.104H163.834V182.939H167.537V180.68H163.81ZM175.196 179.94H182.347V180.692H176.094V184.068H182.469V184.809H175.196V179.94ZM173.957 188.111V187.359H183.586V188.111H173.957ZM192.276 178.944H193.175V189.593H192.276V185.052H190.066V184.311H192.276V182.15H190.139V181.397H192.276V178.944ZM184.833 180.68V179.927H189.459V183.692H185.756V186.339C187.359 186.339 188.682 186.278 190.285 186.023L190.37 186.788C188.694 187.055 187.334 187.104 185.646 187.104H184.857V182.939H188.561V180.68H184.833ZM194.98 187.444H197.372V184.542C196.474 184.08 195.927 183.315 195.927 182.356C195.927 180.705 197.542 179.636 199.777 179.636C202.035 179.636 203.626 180.705 203.626 182.356C203.626 183.303 203.092 184.056 202.217 184.529V187.444H204.609V188.196H194.98V187.444ZM196.814 182.356C196.814 183.558 198.052 184.347 199.777 184.347C201.501 184.347 202.752 183.558 202.752 182.356C202.752 181.154 201.501 180.365 199.777 180.365C198.052 180.365 196.814 181.154 196.814 182.356ZM198.271 187.444H201.307V184.882C200.845 185.003 200.335 185.064 199.777 185.064C199.23 185.064 198.732 185.003 198.271 184.882V187.444ZM81.8916 197.782C83.3366 197.782 84.3808 199.032 84.5144 201.036H86.8944V196.944H87.7929V207.593H86.8944V201.764H84.5144C84.4294 203.853 83.3609 205.177 81.8916 205.177C80.3495 205.177 79.2567 203.732 79.2567 201.473C79.2567 199.215 80.3495 197.782 81.8916 197.782ZM80.1188 201.473C80.1188 203.209 80.8474 204.363 81.8916 204.363C82.948 204.363 83.6644 203.209 83.6644 201.473C83.6644 199.737 82.948 198.595 81.8916 198.595C80.8474 198.595 80.1188 199.737 80.1188 201.473ZM89.5862 205.456H99.2152V206.221H89.5862V205.456ZM90.7762 198.522V197.77H98.0131V200.951H91.699V202.736H98.256V203.489H90.8005V200.222H97.1146V198.522H90.7762ZM107.869 196.968H108.78V204.739H107.869V196.968ZM100.219 202.481C101.798 201.862 102.891 200.307 102.891 198.632V197.539H103.801V198.632C103.801 200.247 104.906 201.704 106.473 202.287L105.987 203.015C104.773 202.542 103.826 201.558 103.364 200.332C102.915 201.643 101.956 202.699 100.705 203.209L100.219 202.481ZM101.992 207.338V204.035H102.903V206.585H109.12V207.338H101.992ZM115.93 197.502H116.816V198.668C116.816 200.125 117.921 201.461 119.427 201.995L118.953 202.699C117.787 202.274 116.852 201.376 116.403 200.247C115.954 201.522 115.007 202.505 113.768 203.003L113.27 202.274C114.861 201.692 115.93 200.247 115.93 198.607V197.502ZM114.691 205.638C114.691 204.424 116.002 203.719 118.164 203.719C120.337 203.719 121.649 204.424 121.649 205.638C121.649 206.852 120.337 207.556 118.164 207.556C116.002 207.556 114.691 206.852 114.691 205.638ZM115.577 205.638C115.577 206.391 116.573 206.84 118.164 206.84C119.767 206.84 120.75 206.391 120.75 205.638C120.75 204.885 119.767 204.436 118.164 204.436C116.573 204.436 115.577 204.885 115.577 205.638ZM120.629 203.428V196.956H121.539V199.737H123.13V200.502H121.539V203.428H120.629ZM131.116 196.968H132.027V200.186H133.618V200.939H132.027V204.169H131.116V196.968ZM123.77 202.942C124.62 202.942 125.616 202.942 126.648 202.906V202.032C125.409 201.922 124.632 201.388 124.632 200.538C124.632 199.603 125.591 199.045 127.085 199.045C128.578 199.045 129.55 199.603 129.55 200.538C129.55 201.388 128.773 201.922 127.546 202.019V202.869C128.542 202.821 129.55 202.736 130.473 202.602L130.533 203.234C128.287 203.647 125.749 203.671 123.891 203.671L123.77 202.942ZM124.037 198.583V197.891H126.648V196.871H127.546V197.891H130.145V198.583H124.037ZM125.191 205.941C125.191 204.885 126.453 204.314 128.639 204.314C130.837 204.314 132.112 204.885 132.112 205.941C132.112 206.986 130.837 207.569 128.639 207.569C126.453 207.569 125.191 206.986 125.191 205.941ZM125.494 200.538C125.494 201.097 126.113 201.424 127.085 201.424C128.068 201.424 128.688 201.097 128.688 200.538C128.688 200.016 128.068 199.664 127.085 199.664C126.113 199.664 125.494 200.016 125.494 200.538ZM126.101 205.941C126.101 206.536 127.012 206.889 128.639 206.889C130.266 206.889 131.189 206.536 131.189 205.941C131.189 205.334 130.266 204.994 128.639 204.994C127.012 204.994 126.101 205.334 126.101 205.941ZM139.126 197.15C141.458 197.15 142.854 197.794 142.854 198.984C142.854 200.174 141.458 200.829 139.126 200.829C136.795 200.829 135.399 200.174 135.399 198.984C135.399 197.794 136.795 197.15 139.126 197.15ZM134.33 202.311V201.57H143.923V202.311H134.33ZM135.496 203.95V203.246H142.684V205.602H136.419V206.743H143.012V207.459H135.532V204.934H141.798V203.95H135.496ZM136.334 198.984C136.334 199.725 137.378 200.137 139.126 200.137C140.875 200.137 141.919 199.725 141.919 198.984C141.919 198.255 140.875 197.83 139.126 197.83C137.378 197.83 136.334 198.255 136.334 198.984ZM147.673 198.122H153.598V198.862H152.42V204.023C152.991 203.987 153.562 203.926 154.108 203.865L154.157 204.545C151.935 204.897 149.397 204.934 147.527 204.934L147.418 204.157C147.855 204.157 148.341 204.157 148.838 204.144V198.862H147.673V198.122ZM149.737 204.132C150.32 204.12 150.927 204.108 151.534 204.072V198.862H149.737V204.132ZM154.776 207.581V196.956H155.687V201.23H157.447V201.995H155.687V207.581H154.776ZM161.026 197.6C162.616 197.6 163.782 198.62 163.782 200.101C163.782 201.582 162.616 202.602 161.026 202.602C159.435 202.602 158.269 201.582 158.269 200.101C158.269 198.62 159.435 197.6 161.026 197.6ZM159.156 200.101C159.156 201.133 159.945 201.837 161.026 201.837C162.106 201.837 162.908 201.133 162.908 200.101C162.908 199.081 162.106 198.377 161.026 198.377C159.945 198.377 159.156 199.081 159.156 200.101ZM159.411 204.521V203.78H166.283V207.593H165.373V204.521H159.411ZM165.373 203.222V196.956H166.283V199.725H167.874V200.49H166.283V203.222H165.373ZM175.812 196.956H176.722V201.352H178.483V202.117H176.722V207.581H175.812V196.956ZM168.502 199.421V198.668H171.222V197.077H172.144V198.668H174.792V199.421H168.502ZM169.121 202.76C169.121 201.327 170.214 200.332 171.695 200.332C173.189 200.332 174.269 201.327 174.269 202.76C174.269 204.193 173.189 205.189 171.695 205.189C170.214 205.189 169.121 204.193 169.121 202.76ZM169.995 202.76C169.995 203.732 170.7 204.424 171.695 204.424C172.679 204.424 173.395 203.732 173.395 202.76C173.395 201.789 172.679 201.084 171.695 201.084C170.7 201.084 169.995 201.789 169.995 202.76ZM180.094 198.037H187.501V199.093C187.501 200.405 187.501 201.849 187.125 203.987L186.202 203.877C186.59 201.849 186.59 200.368 186.59 199.093V198.79H180.094V198.037ZM179.074 206.063V205.298H182.85V201.485H183.749V205.298H188.679V206.063H179.074ZM200.066 196.956H200.989V202.469H200.066V196.956ZM192.465 201.327C192.89 201.327 193.352 201.315 193.825 201.315V198.413H192.757V197.685H198.451V198.413H197.383V201.169C197.929 201.133 198.476 201.084 198.986 201.024L199.034 201.679C196.909 202.007 194.432 202.08 192.574 202.08L192.465 201.327ZM194.092 203.719V203.003H200.989V205.517H195.015V206.719H201.39V207.459H194.117V204.837H200.079V203.719H194.092ZM194.712 201.291C195.294 201.279 195.901 201.254 196.496 201.23V198.413H194.712V201.291ZM202.795 205.444H205.187V202.542C204.288 202.08 203.742 201.315 203.742 200.356C203.742 198.705 205.357 197.636 207.591 197.636C209.849 197.636 211.44 198.705 211.44 200.356C211.44 201.303 210.906 202.056 210.032 202.529V205.444H212.424V206.196H202.795V205.444ZM204.628 200.356C204.628 201.558 205.867 202.347 207.591 202.347C209.315 202.347 210.566 201.558 210.566 200.356C210.566 199.154 209.315 198.365 207.591 198.365C205.867 198.365 204.628 199.154 204.628 200.356ZM206.085 205.444H209.121V202.882C208.66 203.003 208.15 203.064 207.591 203.064C207.045 203.064 206.547 203.003 206.085 202.882V205.444ZM220.628 196.968H221.539V200.477H223.13V201.242H221.539V204.934H220.628V196.968ZM213.343 199.008V198.267H216.026V196.968H216.937V198.267H219.62V199.008H213.343ZM213.95 201.594C213.95 200.392 214.97 199.615 216.476 199.615C217.981 199.615 219.013 200.392 219.013 201.594C219.013 202.784 217.981 203.562 216.476 203.562C214.97 203.562 213.95 202.784 213.95 201.594ZM214.812 201.594C214.812 202.347 215.48 202.845 216.476 202.845C217.471 202.845 218.139 202.347 218.139 201.594C218.139 200.829 217.471 200.332 216.476 200.332C215.48 200.332 214.812 200.829 214.812 201.594ZM214.958 207.338V204.29H215.856V206.585H222.037V207.338H214.958ZM231.494 201.157H234.323V199.688H231.615C230.923 201.4 229.284 202.639 227.025 203.319L226.649 202.59C229.211 201.837 230.814 200.38 230.996 198.51H227.195V197.757H231.979C231.979 198.17 231.931 198.571 231.846 198.947H234.323V196.956H235.234V203.355H234.323V201.898H231.494V201.157ZM228.276 205.504C228.276 204.229 229.624 203.464 231.785 203.464C233.922 203.464 235.282 204.229 235.282 205.504C235.282 206.767 233.922 207.532 231.785 207.532C229.624 207.532 228.276 206.767 228.276 205.504ZM229.174 205.504C229.174 206.306 230.194 206.804 231.785 206.804C233.376 206.804 234.384 206.306 234.384 205.504C234.384 204.679 233.376 204.193 231.785 204.193C230.194 204.193 229.174 204.679 229.174 205.504ZM237.027 203.064H246.656V203.817H242.26V207.581H241.362V203.817H237.027V203.064ZM238.108 199.712C238.108 198.292 239.601 197.405 241.811 197.405C244.033 197.405 245.515 198.292 245.515 199.712C245.515 201.133 244.033 202.032 241.811 202.032C239.601 202.032 238.108 201.133 238.108 199.712ZM239.043 199.712C239.043 200.672 240.16 201.303 241.811 201.303C243.462 201.303 244.592 200.672 244.592 199.712C244.592 198.765 243.462 198.134 241.811 198.134C240.16 198.134 239.043 198.765 239.043 199.712ZM258.007 196.968H258.93V204.727H258.007V196.968ZM250.479 200.32C250.479 198.777 251.669 197.709 253.235 197.709C254.814 197.709 255.991 198.777 255.991 200.32C255.991 201.837 254.814 202.918 253.235 202.918C251.669 202.918 250.479 201.837 250.479 200.32ZM251.365 200.32C251.365 201.364 252.179 202.117 253.235 202.117C254.304 202.117 255.117 201.364 255.117 200.32C255.117 199.251 254.304 198.498 253.235 198.498C252.179 198.498 251.365 199.251 251.365 200.32ZM252.142 207.338V203.938H253.041V206.585H259.258V207.338H252.142ZM266.394 199.737H268.555V196.956H269.466V203.282H268.555V200.49H266.394V199.737ZM260.796 202.457C262.35 201.886 263.48 200.453 263.48 198.911V198.498H261.075V197.745H266.746V198.498H264.39V198.911C264.39 200.295 265.459 201.619 266.989 202.153L266.515 202.882C265.325 202.444 264.402 201.546 263.953 200.441C263.504 201.704 262.508 202.699 261.258 203.185L260.796 202.457ZM262.448 205.602C262.448 204.363 263.783 203.622 265.981 203.622C268.167 203.622 269.502 204.363 269.502 205.602C269.502 206.852 268.167 207.569 265.981 207.569C263.783 207.569 262.448 206.852 262.448 205.602ZM263.358 205.602C263.358 206.379 264.354 206.852 265.981 206.852C267.596 206.852 268.604 206.379 268.604 205.602C268.604 204.812 267.596 204.339 265.981 204.339C264.354 204.339 263.358 204.812 263.358 205.602ZM271.271 202.044H280.864V202.797H271.271V202.044ZM272.425 205.65C272.425 204.436 273.785 203.744 276.056 203.744C278.314 203.744 279.686 204.436 279.686 205.65C279.686 206.876 278.314 207.569 276.056 207.569C273.785 207.569 272.425 206.876 272.425 205.65ZM272.486 200.999V197.393H279.662V198.158H273.384V200.259H279.735V200.999H272.486ZM273.336 205.65C273.336 206.415 274.368 206.84 276.056 206.84C277.743 206.84 278.763 206.415 278.763 205.65C278.763 204.909 277.743 204.46 276.056 204.46C274.368 204.46 273.336 204.909 273.336 205.65ZM283.034 203.039H283.932V204.472H289.239V203.039H290.137V207.447H283.034V203.039ZM281.771 202.08V201.303H288.947C289.251 199.992 289.251 199.045 289.251 198.219V198.195H283.009V197.442H290.137V198.219C290.137 199.032 290.137 199.98 289.858 201.303H291.4V202.08H281.771ZM283.932 206.706H289.239V205.189H283.932V206.706ZM302.751 196.968H303.662V204.739H302.751V196.968ZM295.101 202.481C296.68 201.862 297.773 200.307 297.773 198.632V197.539H298.683V198.632C298.683 200.247 299.788 201.704 301.355 202.287L300.869 203.015C299.655 202.542 298.708 201.558 298.246 200.332C297.797 201.643 296.838 202.699 295.587 203.209L295.101 202.481ZM296.874 207.338V204.035H297.785V206.585H304.002V207.338H296.874ZM305.771 198.255H308.175V196.907H309.074V198.255H311.441V198.996H309.074V199.215C309.074 200.575 310.203 201.764 311.757 202.226L311.332 202.93C310.106 202.554 309.122 201.752 308.636 200.696C308.187 201.862 307.216 202.784 305.965 203.209L305.516 202.493C307.07 201.983 308.175 200.684 308.175 199.215V198.996H305.771V198.255ZM307.191 205.614C307.191 204.387 308.527 203.683 310.725 203.683C312.911 203.683 314.246 204.387 314.246 205.614C314.246 206.84 312.911 207.556 310.725 207.556C308.527 207.556 307.191 206.84 307.191 205.614ZM308.102 205.614C308.102 206.379 309.098 206.84 310.725 206.84C312.34 206.84 313.348 206.379 313.348 205.614C313.348 204.861 312.34 204.399 310.725 204.399C309.098 204.399 308.102 204.861 308.102 205.614ZM311.126 200.757V200.004H313.299V196.956H314.21V203.392H313.299V200.757H311.126ZM83.8709 215.15C86.2022 215.15 87.5986 215.794 87.5986 216.984C87.5986 218.174 86.2022 218.829 83.8709 218.829C81.5395 218.829 80.1431 218.174 80.1431 216.984C80.1431 215.794 81.5395 215.15 83.8709 215.15ZM79.0746 220.311V219.57H88.6672V220.311H79.0746ZM80.2403 221.95V221.246H87.4286V223.602H81.1631V224.743H87.7565V225.459H80.2767V222.934H86.5422V221.95H80.2403ZM81.0781 216.984C81.0781 217.725 82.1223 218.137 83.8709 218.137C85.6194 218.137 86.6636 217.725 86.6636 216.984C86.6636 216.255 85.6194 215.83 83.8709 215.83C82.1223 215.83 81.0781 216.255 81.0781 216.984ZM93.522 215.806H100.674V216.559H94.4327V219.934H100.795V220.687H97.5291V223.456H101.913V224.221H92.2835V223.456H96.6305V220.687H93.522V215.806ZM105.977 215.648C107.604 215.648 108.769 216.668 108.769 218.137C108.769 219.473 107.822 220.42 106.438 220.602V222.424C107.421 222.375 108.417 222.302 109.34 222.181L109.413 222.861C107.179 223.237 104.677 223.262 102.819 223.262L102.674 222.497C103.524 222.497 104.507 222.497 105.527 222.46V220.602C104.131 220.432 103.172 219.485 103.172 218.137C103.172 216.668 104.337 215.648 105.977 215.648ZM104.058 218.137C104.058 219.145 104.859 219.849 105.977 219.849C107.081 219.849 107.883 219.145 107.883 218.137C107.883 217.13 107.081 216.425 105.977 216.425C104.859 216.425 104.058 217.13 104.058 218.137ZM110.02 225.581V214.956H110.919V219.364H112.643V220.129H110.919V225.581H110.02ZM114.545 215.94H121.697V216.692H115.444V220.068H121.819V220.809H114.545V215.94ZM113.307 224.111V223.359H122.936V224.111H113.307ZM131.626 214.944H132.525V225.593H131.626V221.052H129.416V220.311H131.626V218.15H129.489V217.397H131.626V214.944ZM124.183 216.68V215.927H128.809V219.692H125.106V222.339C126.708 222.339 128.032 222.278 129.635 222.023L129.72 222.788C128.044 223.055 126.684 223.104 124.996 223.104H124.207V218.939H127.911V216.68H124.183ZM134.33 223.444H136.722V220.542C135.824 220.08 135.277 219.315 135.277 218.356C135.277 216.705 136.892 215.636 139.126 215.636C141.385 215.636 142.976 216.705 142.976 218.356C142.976 219.303 142.441 220.056 141.567 220.529V223.444H143.959V224.196H134.33V223.444ZM136.164 218.356C136.164 219.558 137.402 220.347 139.126 220.347C140.851 220.347 142.101 219.558 142.101 218.356C142.101 217.154 140.851 216.365 139.126 216.365C137.402 216.365 136.164 217.154 136.164 218.356ZM137.621 223.444H140.656V220.882C140.195 221.003 139.685 221.064 139.126 221.064C138.58 221.064 138.082 221.003 137.621 220.882V223.444Z" fill="#616161"/>
</g>
</g>
<defs>
<filter id="filter0_dd_1130_60675" x="0.338152" y="0.545883" width="358.205" height="250.578" filterUnits="userSpaceOnUse" color-interpolation-filters="sRGB">
<feFlood flood-opacity="0" result="BackgroundImageFix"/>
<feColorMatrix in="SourceAlpha" type="matrix" values="0 0 0 0 0 0 0 0 0 0 0 0 0 0 0 0 0 0 127 0" result="hardAlpha"/>
<feOffset/>
<feGaussianBlur stdDeviation="0.551933"/>
<feComposite in2="hardAlpha" operator="out"/>
<feColorMatrix type="matrix" values="0 0 0 0 0 0 0 0 0 0 0 0 0 0 0 0 0 0 0.2 0"/>
<feBlend mode="normal" in2="BackgroundImageFix" result="effect1_dropShadow_1130_60675"/>
<feColorMatrix in="SourceAlpha" type="matrix" values="0 0 0 0 0 0 0 0 0 0 0 0 0 0 0 0 0 0 127 0" result="hardAlpha"/>
<feOffset dy="2.20773"/>
<feGaussianBlur stdDeviation="8.83092"/>
<feComposite in2="hardAlpha" operator="out"/>
<feColorMatrix type="matrix" values="0 0 0 0 0 0 0 0 0 0 0 0 0 0 0 0 0 0 0.08 0"/>
<feBlend mode="normal" in2="effect1_dropShadow_1130_60675" result="effect2_dropShadow_1130_60675"/>
<feBlend mode="normal" in="SourceGraphic" in2="effect2_dropShadow_1130_60675" result="shape"/>
</filter>
<clipPath id="clip0_1130_60675">
<path d="M18 25.8121C18 20.393 22.393 16 27.8121 16H331.069C336.488 16 340.881 20.393 340.881 25.8121V231.254H18V25.8121Z" fill="white"/>
</clipPath>
</defs>
</svg>
