<svg width="266" height="373" viewBox="0 0 266 373" fill="none" xmlns="http://www.w3.org/2000/svg">
<rect x="32.9706" y="1.78895" width="223.818" height="356.282" rx="25.8837" fill="#D9D9D9" stroke="black" stroke-width="3.04515"/>
<g clip-path="url(#clip0_1099_78753)">
<mask id="mask0_1099_78753" style="mask-type:alpha" maskUnits="userSpaceOnUse" x="34" y="3" width="222" height="442">
<rect x="34.4922" y="3.31152" width="220.773" height="441.546" rx="24.3612" fill="black" fill-opacity="0.6"/>
</mask>
<g mask="url(#mask0_1099_78753)">
<path d="M34.4922 20.9733C34.4922 11.219 42.3997 3.31152 52.154 3.31152H237.603C247.358 3.31152 255.265 11.219 255.265 20.9734V338.887C255.265 348.641 247.358 356.548 237.603 356.548H52.154C42.3997 356.548 34.4922 348.641 34.4922 338.887V20.9733Z" fill="black" fill-opacity="0.6"/>
<path d="M34.4922 3.31152H255.265V27.5966H34.4922V3.31152Z" fill="black" fill-opacity="0.6"/>
<path d="M118.138 17.3135C118.491 18.0973 119.209 18.5388 120.191 18.5167C121.803 18.4615 122.277 16.4304 120.71 15.9999C120.18 15.8012 119.297 15.5584 118.524 15.0285C117.409 14.2669 117.376 13.1188 117.74 12.3461C118.193 11.3968 119.396 11.1098 120.103 11.165C120.776 11.2092 121.681 11.4851 122.244 12.2909L121.438 12.8318C121.096 12.3461 120.566 12.1806 120.025 12.1364C119.54 12.1143 118.877 12.2578 118.623 12.7546C118.414 13.2292 118.403 13.7591 119.065 14.2227C119.705 14.6642 120.478 14.885 121.03 15.0837C123.624 15.8895 122.884 19.4109 120.224 19.4881C118.922 19.5323 117.729 18.8369 117.244 17.6999L118.138 17.3135ZM127.019 19.2232C126.809 19.2674 126.422 19.3336 126.058 19.3226C125.219 19.3005 124.469 18.594 124.469 17.6999V14.5649H123.519V13.6156H124.469V11.7721H125.44V13.6156H126.842V14.5649H125.44V17.6999C125.44 18.1193 125.694 18.3512 126.102 18.3622C126.356 18.3622 126.621 18.318 126.809 18.2739L127.019 19.2232ZM130.411 18.4615C131.349 18.4615 132.21 17.733 132.221 16.5629C132.21 15.3928 131.349 14.6532 130.411 14.6532C129.263 14.6532 128.634 15.4701 128.634 16.5629C128.634 17.6557 129.263 18.4615 130.411 18.4615ZM127.662 16.5629C127.662 15.0064 128.634 13.6928 130.367 13.6928C131.007 13.6928 131.714 14.024 132.199 14.7746V13.6597H133.171V19.3446H132.199V18.3401C131.692 19.1239 131.018 19.4329 130.367 19.4329C128.634 19.4329 127.662 18.0973 127.662 16.5629ZM137.755 19.2232C137.546 19.2674 137.159 19.3336 136.795 19.3226C135.956 19.3005 135.205 18.594 135.205 17.6999V14.5649H134.256V13.6156H135.205V11.7721H136.177V13.6156H137.579V14.5649H136.177V17.6999C136.177 18.1193 136.431 18.3512 136.839 18.3622C137.093 18.3622 137.358 18.318 137.546 18.2739L137.755 19.2232ZM139.839 16.9161C139.839 17.7551 140.358 18.4064 141.274 18.4064C142.246 18.4064 142.853 17.6005 142.853 16.8389V13.6266H143.824V19.3446H142.853V18.4395C142.444 19.0356 141.97 19.3446 141.186 19.3446C139.916 19.3446 138.868 18.4064 138.868 16.9934V13.6597H139.839V16.9161ZM145.945 17.733C146.143 18.2077 146.607 18.4615 147.225 18.4395C148.13 18.4064 148.439 17.3798 147.556 17.1038C147.203 16.9934 146.563 16.8278 146.011 16.4636C145.15 15.9006 145.139 15.0396 145.415 14.4766C145.757 13.7922 146.651 13.5714 147.192 13.6156C147.722 13.6708 148.384 13.8584 148.804 14.4214L148.02 14.9844C147.81 14.6974 147.479 14.598 147.115 14.5649C146.795 14.5318 146.408 14.6422 146.265 14.9071C146.154 15.161 146.165 15.4149 146.541 15.6577C146.96 15.9337 147.49 16.0662 147.876 16.1986C149.797 16.8168 149.201 19.3557 147.28 19.3998C146.298 19.444 145.415 18.9362 145.062 18.1304L145.945 17.733ZM153.035 19.3557V11.2975H156.148C157.351 11.2975 158.355 12.2799 158.355 13.4831C158.355 14.1234 158.068 14.6422 157.627 15.0396C157.693 15.0727 157.748 15.1168 157.815 15.15C158.411 15.5473 158.863 16.2649 158.863 17.0817C158.863 18.318 157.881 19.3557 156.656 19.3557H153.035ZM154.006 18.4064H156.6C157.318 18.4064 157.914 17.8655 157.914 17.1038C157.914 16.2649 157.329 15.6798 156.6 15.6798H154.006V18.4064ZM154.006 14.7305H156.203L156.17 14.7194C156.865 14.6974 157.406 14.1896 157.406 13.5052C157.406 12.7766 156.843 12.2468 156.104 12.2468H154.006V14.7305ZM162.622 18.4615C163.56 18.4615 164.421 17.733 164.432 16.5629C164.421 15.3928 163.56 14.6532 162.622 14.6532C161.473 14.6532 160.844 15.4701 160.844 16.5629C160.844 17.6557 161.473 18.4615 162.622 18.4615ZM159.873 16.5629C159.873 15.0064 160.844 13.6928 162.577 13.6928C163.218 13.6928 163.924 14.024 164.41 14.7746V13.6597H165.381V19.3446H164.41V18.3401C163.902 19.1239 163.229 19.4329 162.577 19.4329C160.844 19.4329 159.873 18.0973 159.873 16.5629ZM167.585 14.7967C167.928 14.0571 168.833 13.6156 169.506 13.6156V14.598C168.468 14.598 167.585 15.6136 167.585 16.4636V19.3446H166.614V13.6597H167.585V14.7967Z" fill="white"/>
<path d="M34.4922 27.5967H255.265V66.232H34.4922V27.5967Z" fill="#007D00" fill-opacity="0.3"/>
<path d="M118.138 17.3135C118.491 18.0973 119.209 18.5388 120.191 18.5167C121.803 18.4615 122.277 16.4304 120.71 15.9999C120.18 15.8012 119.297 15.5584 118.524 15.0285C117.409 14.2669 117.376 13.1188 117.74 12.3461C118.193 11.3968 119.396 11.1098 120.103 11.165C120.776 11.2092 121.681 11.4851 122.244 12.2909L121.438 12.8318C121.096 12.3461 120.566 12.1806 120.025 12.1364C119.54 12.1143 118.877 12.2578 118.623 12.7546C118.414 13.2292 118.403 13.7591 119.065 14.2227C119.705 14.6642 120.478 14.885 121.03 15.0837C123.624 15.8895 122.884 19.4109 120.224 19.4881C118.922 19.5323 117.729 18.8369 117.244 17.6999L118.138 17.3135ZM127.019 19.2232C126.809 19.2674 126.422 19.3336 126.058 19.3226C125.219 19.3005 124.469 18.594 124.469 17.6999V14.5649H123.519V13.6156H124.469V11.7721H125.44V13.6156H126.842V14.5649H125.44V17.6999C125.44 18.1193 125.694 18.3512 126.102 18.3622C126.356 18.3622 126.621 18.318 126.809 18.2739L127.019 19.2232ZM130.411 18.4615C131.349 18.4615 132.21 17.733 132.221 16.5629C132.21 15.3928 131.349 14.6532 130.411 14.6532C129.263 14.6532 128.634 15.4701 128.634 16.5629C128.634 17.6557 129.263 18.4615 130.411 18.4615ZM127.662 16.5629C127.662 15.0064 128.634 13.6928 130.367 13.6928C131.007 13.6928 131.714 14.024 132.199 14.7746V13.6597H133.171V19.3446H132.199V18.3401C131.692 19.1239 131.018 19.4329 130.367 19.4329C128.634 19.4329 127.662 18.0973 127.662 16.5629ZM137.755 19.2232C137.546 19.2674 137.159 19.3336 136.795 19.3226C135.956 19.3005 135.205 18.594 135.205 17.6999V14.5649H134.256V13.6156H135.205V11.7721H136.177V13.6156H137.579V14.5649H136.177V17.6999C136.177 18.1193 136.431 18.3512 136.839 18.3622C137.093 18.3622 137.358 18.318 137.546 18.2739L137.755 19.2232ZM139.839 16.9161C139.839 17.7551 140.358 18.4064 141.274 18.4064C142.246 18.4064 142.853 17.6005 142.853 16.8389V13.6266H143.824V19.3446H142.853V18.4395C142.444 19.0356 141.97 19.3446 141.186 19.3446C139.916 19.3446 138.868 18.4064 138.868 16.9934V13.6597H139.839V16.9161ZM145.945 17.733C146.143 18.2077 146.607 18.4615 147.225 18.4395C148.13 18.4064 148.439 17.3798 147.556 17.1038C147.203 16.9934 146.563 16.8278 146.011 16.4636C145.15 15.9006 145.139 15.0396 145.415 14.4766C145.757 13.7922 146.651 13.5714 147.192 13.6156C147.722 13.6708 148.384 13.8584 148.804 14.4214L148.02 14.9844C147.81 14.6974 147.479 14.598 147.115 14.5649C146.795 14.5318 146.408 14.6422 146.265 14.9071C146.154 15.161 146.165 15.4149 146.541 15.6577C146.96 15.9337 147.49 16.0662 147.876 16.1986C149.797 16.8168 149.201 19.3557 147.28 19.3998C146.298 19.444 145.415 18.9362 145.062 18.1304L145.945 17.733ZM153.035 19.3557V11.2975H156.148C157.351 11.2975 158.355 12.2799 158.355 13.4831C158.355 14.1234 158.068 14.6422 157.627 15.0396C157.693 15.0727 157.748 15.1168 157.815 15.15C158.411 15.5473 158.863 16.2649 158.863 17.0817C158.863 18.318 157.881 19.3557 156.656 19.3557H153.035ZM154.006 18.4064H156.6C157.318 18.4064 157.914 17.8655 157.914 17.1038C157.914 16.2649 157.329 15.6798 156.6 15.6798H154.006V18.4064ZM154.006 14.7305H156.203L156.17 14.7194C156.865 14.6974 157.406 14.1896 157.406 13.5052C157.406 12.7766 156.843 12.2468 156.104 12.2468H154.006V14.7305ZM162.622 18.4615C163.56 18.4615 164.421 17.733 164.432 16.5629C164.421 15.3928 163.56 14.6532 162.622 14.6532C161.473 14.6532 160.844 15.4701 160.844 16.5629C160.844 17.6557 161.473 18.4615 162.622 18.4615ZM159.873 16.5629C159.873 15.0064 160.844 13.6928 162.577 13.6928C163.218 13.6928 163.924 14.024 164.41 14.7746V13.6597H165.381V19.3446H164.41V18.3401C163.902 19.1239 163.229 19.4329 162.577 19.4329C160.844 19.4329 159.873 18.0973 159.873 16.5629ZM167.585 14.7967C167.928 14.0571 168.833 13.6156 169.506 13.6156V14.598C168.468 14.598 167.585 15.6136 167.585 16.4636V19.3446H166.614V13.6597H167.585V14.7967Z" fill="white"/>
<path d="M137.961 47.6594L136.99 47.6263L137.144 43.3322H141.383V44.3036H138.083L138.005 46.412C138.381 46.2133 138.822 46.1029 139.275 46.1029C140.732 46.1029 141.979 47.2841 141.979 48.7522C141.979 50.2755 140.732 51.4456 139.275 51.4456C138.039 51.4456 136.924 50.5846 136.648 49.4035L137.597 49.1827C137.774 49.9665 138.414 50.4742 139.275 50.4742C140.279 50.4742 141.008 49.7898 141.008 48.7522C141.008 47.7698 140.29 47.0743 139.275 47.0743C138.723 47.0743 138.304 47.273 137.961 47.6594ZM145.733 50.4522C146.738 50.4522 147.477 49.7678 147.477 48.7743C147.477 47.8029 146.738 47.0964 145.733 47.0964C144.74 47.0964 144.022 47.8029 144.022 48.7743C144.022 49.7678 144.729 50.4522 145.733 50.4522ZM143.051 48.7743C143.051 48.2555 143.205 47.7698 143.47 47.3613L145.766 43.3322H146.881L145.258 46.1692C145.424 46.1361 145.59 46.125 145.755 46.125C147.201 46.125 148.449 47.3061 148.449 48.7743C148.449 50.2645 147.212 51.4236 145.755 51.4236C144.309 51.4236 143.051 50.2645 143.051 48.7743Z" fill="white"/>
</g>
</g>
<rect x="27.5947" y="133.844" width="21.5391" height="16.0899" rx="4.35943" fill="#007D00"/>
<path d="M31.7668 145.844V145.077L34.6447 141.927C34.9824 141.558 35.2606 141.237 35.4791 140.965C35.6977 140.69 35.8594 140.431 35.9644 140.19C36.0723 139.946 36.1262 139.691 36.1262 139.424C36.1262 139.117 36.0524 138.852 35.9048 138.628C35.7601 138.403 35.5614 138.23 35.3088 138.108C35.0562 137.986 34.7724 137.925 34.4574 137.925C34.1225 137.925 33.8301 137.995 33.5804 138.134C33.3335 138.27 33.1419 138.462 33.0057 138.709C32.8723 138.956 32.8056 139.245 32.8056 139.577H31.8009C31.8009 139.066 31.9186 138.618 32.1542 138.232C32.3898 137.846 32.7105 137.545 33.1163 137.329C33.525 137.114 33.9834 137.006 34.4914 137.006C35.0023 137.006 35.455 137.114 35.8495 137.329C36.244 137.545 36.5534 137.836 36.7776 138.202C37.0018 138.568 37.1139 138.975 37.1139 139.424C37.1139 139.745 37.0557 140.058 36.9394 140.365C36.8258 140.668 36.6272 141.008 36.3433 141.382C36.0624 141.754 35.6721 142.208 35.1726 142.744L33.2143 144.839V144.907H37.2672V145.844H31.7668ZM41.8693 145.963C41.2278 145.963 40.6815 145.788 40.2302 145.439C39.7789 145.087 39.4341 144.578 39.1957 143.911C38.9573 143.241 38.8381 142.432 38.8381 141.484C38.8381 140.542 38.9573 139.737 39.1957 139.07C39.4369 138.401 39.7832 137.89 40.2345 137.538C40.6886 137.183 41.2335 137.006 41.8693 137.006C42.505 137.006 43.0485 137.183 43.4998 137.538C43.9539 137.89 44.3002 138.401 44.5386 139.07C44.7798 139.737 44.9004 140.542 44.9004 141.484C44.9004 142.432 44.7812 143.241 44.5428 143.911C44.3044 144.578 43.9596 145.087 43.5083 145.439C43.057 145.788 42.5107 145.963 41.8693 145.963ZM41.8693 145.026C42.505 145.026 42.9989 144.72 43.3508 144.107C43.7027 143.494 43.8787 142.62 43.8787 141.484C43.8787 140.729 43.7978 140.087 43.636 139.556C43.4771 139.025 43.2472 138.621 42.9463 138.342C42.6483 138.064 42.2893 137.925 41.8693 137.925C41.2392 137.925 40.7468 138.236 40.392 138.858C40.0372 139.476 39.8598 140.352 39.8598 141.484C39.8598 142.239 39.9393 142.881 40.0982 143.409C40.2572 143.936 40.4857 144.338 40.7837 144.613C41.0845 144.889 41.4464 145.026 41.8693 145.026Z" fill="white"/>
<rect x="238.709" y="133.844" width="21.5391" height="16.0899" rx="4.35943" fill="#007D00"/>
<path d="M242.881 145.844V145.077L245.759 141.927C246.097 141.558 246.375 141.237 246.593 140.965C246.812 140.69 246.974 140.431 247.079 140.19C247.187 139.946 247.24 139.691 247.24 139.424C247.24 139.117 247.167 138.852 247.019 138.628C246.874 138.403 246.676 138.23 246.423 138.108C246.17 137.986 245.887 137.925 245.572 137.925C245.237 137.925 244.944 137.995 244.695 138.134C244.448 138.27 244.256 138.462 244.12 138.709C243.987 138.956 243.92 139.245 243.92 139.577H242.915C242.915 139.066 243.033 138.618 243.268 138.232C243.504 137.846 243.825 137.545 244.231 137.329C244.639 137.114 245.098 137.006 245.606 137.006C246.117 137.006 246.569 137.114 246.964 137.329C247.358 137.545 247.668 137.836 247.892 138.202C248.116 138.568 248.228 138.975 248.228 139.424C248.228 139.745 248.17 140.058 248.054 140.365C247.94 140.668 247.741 141.008 247.458 141.382C247.177 141.754 246.786 142.208 246.287 142.744L244.329 144.839V144.907H248.381V145.844H242.881ZM252.984 145.963C252.342 145.963 251.796 145.788 251.344 145.439C250.893 145.087 250.548 144.578 250.31 143.911C250.072 143.241 249.952 142.432 249.952 141.484C249.952 140.542 250.072 139.737 250.31 139.07C250.551 138.401 250.897 137.89 251.349 137.538C251.803 137.183 252.348 137.006 252.984 137.006C253.619 137.006 254.163 137.183 254.614 137.538C255.068 137.89 255.414 138.401 255.653 139.07C255.894 139.737 256.015 140.542 256.015 141.484C256.015 142.432 255.895 143.241 255.657 143.911C255.419 144.578 255.074 145.087 254.623 145.439C254.171 145.788 253.625 145.963 252.984 145.963ZM252.984 145.026C253.619 145.026 254.113 144.72 254.465 144.107C254.817 143.494 254.993 142.62 254.993 141.484C254.993 140.729 254.912 140.087 254.75 139.556C254.591 139.025 254.361 138.621 254.061 138.342C253.763 138.064 253.404 137.925 252.984 137.925C252.353 137.925 251.861 138.236 251.506 138.858C251.151 139.476 250.974 140.352 250.974 141.484C250.974 142.239 251.054 142.881 251.213 143.409C251.371 143.936 251.6 144.338 251.898 144.613C252.199 144.889 252.561 145.026 252.984 145.026Z" fill="white"/>
<line x1="32.2861" y1="27.2601" x2="255.267" y2="27.2601" stroke="#007D00" stroke-width="0.673089"/>
<line x1="32.2861" y1="65.8949" x2="255.267" y2="65.8949" stroke="#007D00" stroke-width="0.673089"/>
<g opacity="0.8" filter="url(#filter0_dd_1099_78753)">
<g clip-path="url(#clip1_1099_78753)">
<path d="M34.4932 205.321C34.4932 180.935 54.2619 161.166 78.6478 161.166H211.112C235.498 161.166 255.266 180.935 255.266 205.321V358.022H34.4932V205.321Z" fill="white"/>
<path d="M54.8415 184.868H56.1907V192.754H54.8415V184.868ZM49.0278 191.969H50.3647V194.483H56.4851V195.563H49.0278V191.969ZM50.2789 185.579C51.9347 185.579 53.198 186.72 53.198 188.326C53.198 189.909 51.9347 191.061 50.2789 191.061C48.6354 191.061 47.3598 189.909 47.3598 188.326C47.3598 186.72 48.6354 185.579 50.2789 185.579ZM50.2789 186.744C49.3713 186.744 48.6722 187.357 48.6722 188.326C48.6722 189.271 49.3713 189.884 50.2789 189.884C51.1865 189.884 51.8856 189.271 51.8856 188.326C51.8856 187.357 51.1865 186.744 50.2789 186.744ZM57.8039 189.97H67.6651V191.037H57.8039V189.97ZM62.7222 191.773C65.0648 191.773 66.4876 192.509 66.4876 193.772C66.4876 195.048 65.0648 195.784 62.7222 195.784C60.3673 195.784 58.9445 195.048 58.9445 193.772C58.9445 192.509 60.3673 191.773 62.7222 191.773ZM62.7222 192.815C61.1523 192.815 60.306 193.147 60.306 193.772C60.306 194.41 61.1523 194.729 62.7222 194.729C64.2799 194.729 65.1262 194.41 65.1262 193.772C65.1262 193.147 64.2799 192.815 62.7222 192.815ZM58.6992 185.395H66.782V186.474H63.6789C63.8751 187.382 65.1507 188.204 67.199 188.4L66.7206 189.455C64.7582 189.258 63.3109 188.473 62.7345 187.37C62.158 188.473 60.7107 189.258 58.736 189.455L58.2699 188.4C60.306 188.204 61.5938 187.382 61.79 186.474H58.6992V185.395ZM73.3625 185.039C75.8156 185.039 77.2751 185.689 77.2751 186.904C77.2751 188.118 75.8156 188.78 73.3625 188.78C70.9095 188.78 69.4499 188.118 69.4499 186.904C69.4499 185.689 70.9095 185.039 73.3625 185.039ZM73.3625 186.02C71.7067 186.02 70.8482 186.327 70.8482 186.904C70.8482 187.492 71.7067 187.787 73.3625 187.787C75.0061 187.787 75.8769 187.492 75.8769 186.904C75.8769 186.327 75.0061 186.02 73.3625 186.02ZM68.4319 189.369H78.2931V190.448H68.4319V189.369ZM69.5726 191.172H77.0666V193.846H70.9218V194.667H77.3732V195.685H69.6094V192.901H75.742V192.19H69.5726V191.172ZM85.3271 185.321C86.9706 185.321 88.1604 186.266 88.1604 187.627C88.1604 188.964 86.9706 189.921 85.3271 189.921C83.6958 189.921 82.4938 188.964 82.4938 187.627C82.4938 186.266 83.6958 185.321 85.3271 185.321ZM85.3271 186.425C84.444 186.425 83.794 186.879 83.794 187.627C83.794 188.363 84.444 188.817 85.3271 188.817C86.2225 188.817 86.8725 188.363 86.8725 187.627C86.8725 186.879 86.2225 186.425 85.3271 186.425ZM89.4973 184.855H90.8464V195.784H89.4973V184.855ZM81.7947 190.669C83.7449 190.669 86.4678 190.657 88.8227 190.289L88.9085 191.282C87.9641 191.466 86.9952 191.577 86.0507 191.65V195.44H84.7016V191.736C83.7081 191.773 82.7759 191.785 81.9542 191.785L81.7947 190.669ZM92.3983 186.597H94.3975V185.15H95.7221V186.597H97.6968V187.664H92.3983V186.597ZM95.0598 188.253C96.4458 188.253 97.4392 189.308 97.4392 190.804C97.4392 192.312 96.4458 193.367 95.0598 193.367C93.6861 193.367 92.6926 192.312 92.6926 190.804C92.6926 189.308 93.6861 188.253 95.0598 188.253ZM95.0598 189.369C94.373 189.369 93.8823 189.933 93.8823 190.804C93.8823 191.687 94.373 192.239 95.0598 192.239C95.7467 192.239 96.2495 191.687 96.2495 190.804C96.2495 189.933 95.7467 189.369 95.0598 189.369ZM100.456 184.855H101.732V195.771H100.456V190.448H99.4017V195.281H98.1384V185.088H99.4017V189.357H100.456V184.855ZM105.798 190.092H110.054V189.062H107.012V185.346H114.457V186.425H108.337V187.983H114.531V189.062H111.391V190.092H115.659V191.172H105.798V190.092ZM110.704 191.81C113.047 191.81 114.469 192.521 114.469 193.797C114.469 195.072 113.047 195.784 110.704 195.784C108.349 195.784 106.926 195.072 106.926 193.797C106.926 192.521 108.349 191.81 110.704 191.81ZM110.704 192.84C109.146 192.84 108.288 193.171 108.288 193.797C108.288 194.447 109.146 194.753 110.704 194.753C112.262 194.753 113.108 194.447 113.108 193.797C113.108 193.171 112.262 192.84 110.704 192.84ZM119.921 185.603C121.626 185.603 122.89 186.707 122.89 188.253C122.89 189.81 121.626 190.902 119.921 190.902C118.204 190.902 116.941 189.81 116.941 188.253C116.941 186.707 118.204 185.603 119.921 185.603ZM119.921 186.769C118.965 186.769 118.253 187.333 118.253 188.253C118.253 189.16 118.965 189.749 119.921 189.749C120.866 189.749 121.577 189.16 121.577 188.253C121.577 187.333 120.866 186.769 119.921 186.769ZM124.079 184.843H125.416V195.796H124.079V184.843ZM116.45 192.411C118.388 192.411 121.111 192.398 123.429 192.043L123.527 193.024C121.136 193.49 118.523 193.514 116.61 193.514L116.45 192.411ZM134.168 184.843H135.529V189.124H137.136V190.24H135.529V195.771H134.168V184.843ZM132.659 185.996C132.659 189.209 131.347 192.006 127.753 193.809L126.993 192.791C129.63 191.442 131.04 189.577 131.298 187.088H127.569V185.996H132.659ZM148.083 184.868H149.444V190.485H148.083V184.868ZM142.158 190.951H149.444V193.772H143.508V194.631H149.787V195.685H142.183V192.803H148.107V191.994H142.158V190.951ZM140.871 185.542H146.746V186.597H145.801V188.976C146.28 188.94 146.746 188.89 147.199 188.841L147.273 189.798C145.102 190.154 142.625 190.203 140.723 190.215L140.589 189.136H141.815V186.597H140.871V185.542ZM143.115 189.111L144.501 189.062V186.597H143.115V189.111ZM151.033 193.355H153.302V190.571C152.443 190.068 151.928 189.295 151.928 188.326C151.928 186.572 153.633 185.444 155.963 185.444C158.306 185.444 159.998 186.572 159.998 188.326C159.998 189.295 159.483 190.068 158.637 190.571V193.355H160.918V194.447H151.033V193.355ZM155.963 186.499C154.356 186.499 153.253 187.198 153.253 188.326C153.253 189.467 154.356 190.154 155.963 190.154C157.57 190.154 158.674 189.467 158.674 188.326C158.674 187.198 157.57 186.499 155.963 186.499ZM154.651 193.355H157.288V191.074C156.883 191.16 156.429 191.209 155.963 191.209C155.497 191.209 155.056 191.16 154.651 191.074V193.355ZM161.636 186.597H163.635V185.15H164.96V186.597H166.935V187.664H161.636V186.597ZM164.298 188.253C165.684 188.253 166.677 189.308 166.677 190.804C166.677 192.312 165.684 193.367 164.298 193.367C162.924 193.367 161.93 192.312 161.93 190.804C161.93 189.308 162.924 188.253 164.298 188.253ZM164.298 189.369C163.611 189.369 163.12 189.933 163.12 190.804C163.12 191.687 163.611 192.239 164.298 192.239C164.985 192.239 165.487 191.687 165.487 190.804C165.487 189.933 164.985 189.369 164.298 189.369ZM169.694 184.855H170.97V195.771H169.694V190.448H168.64V195.281H167.376V185.088H168.64V189.357H169.694V184.855ZM172.289 193.355H174.558V190.571C173.699 190.068 173.184 189.295 173.184 188.326C173.184 186.572 174.889 185.444 177.219 185.444C179.562 185.444 181.255 186.572 181.255 188.326C181.255 189.295 180.739 190.068 179.893 190.571V193.355H182.174V194.447H172.289V193.355ZM177.219 186.499C175.613 186.499 174.509 187.198 174.509 188.326C174.509 189.467 175.613 190.154 177.219 190.154C178.826 190.154 179.93 189.467 179.93 188.326C179.93 187.198 178.826 186.499 177.219 186.499ZM175.907 193.355H178.544V191.074C178.139 191.16 177.685 191.209 177.219 191.209C176.753 191.209 176.312 191.16 175.907 191.074V193.355Z" fill="#333333"/>
<path d="M238.069 184.507C238.244 184.384 238.487 184.397 238.648 184.55C238.809 184.702 238.836 184.944 238.723 185.126L238.666 185.2L233.822 190.311L238.666 195.424L238.723 195.497C238.836 195.679 238.809 195.92 238.648 196.073C238.487 196.226 238.244 196.239 238.069 196.117L237.998 196.056L233.189 190.979L228.38 196.056L228.31 196.117C228.135 196.24 227.891 196.226 227.73 196.073C227.546 195.899 227.538 195.608 227.713 195.424L232.555 190.311L227.713 185.2L227.656 185.126C227.543 184.944 227.569 184.703 227.73 184.55C227.891 184.397 228.135 184.384 228.31 184.507L228.38 184.567L233.189 189.642L237.998 184.567L238.069 184.507Z" fill="#555555"/>
<path d="M53.7904 213.363H54.6183V217.204H56.2189V217.899H54.6183V223.043H53.7904V213.363ZM47.6308 214.323H52.1125V214.996H48.4477V219.919C50.2249 219.919 51.4502 219.864 52.8632 219.588L52.9625 220.295C51.4723 220.571 50.2139 220.626 48.3815 220.626H47.6308V214.323ZM56.7564 218.738H65.51V219.423H56.7564V218.738ZM57.9154 220.206H58.7433V222.138H64.5938V222.812H57.9154V220.206ZM57.8713 213.705H64.3731V216.078H58.6992V217.182H64.5828V217.833H57.8934V215.449H63.5562V214.356H57.8713V213.705ZM71.3255 214.124C72.6391 214.124 73.5884 215.261 73.7098 217.083H75.8734V213.363H76.6903V223.043H75.8734V217.745H73.7098C73.6326 219.644 72.6612 220.847 71.3255 220.847C69.9236 220.847 68.9301 219.533 68.9301 217.48C68.9301 215.427 69.9236 214.124 71.3255 214.124ZM71.3255 214.864C70.3762 214.864 69.7138 215.901 69.7138 217.48C69.7138 219.058 70.3762 220.107 71.3255 220.107C72.2859 220.107 72.9371 219.058 72.9371 217.48C72.9371 215.901 72.2859 214.864 71.3255 214.864ZM78.3206 221.101H87.0742V221.796H78.3206V221.101ZM79.4024 214.113H85.9814V217.005H80.2413V218.628H86.2022V219.312H79.4244V216.343H85.1645V214.798H79.4024V214.113ZM94.9414 213.385H95.7693V220.449H94.9414V213.385ZM89.5987 219.809H90.4266V222.127H96.0783V222.812H89.5987V219.809ZM90.4155 213.903H91.2434V214.897C91.2434 216.365 92.2479 217.69 93.6719 218.22L93.2304 218.882C92.1265 218.451 91.2655 217.557 90.846 216.442C90.4376 217.634 89.5655 218.595 88.4286 219.058L87.987 218.396C89.422 217.833 90.4155 216.42 90.4155 214.897V213.903ZM98.5586 214.146H105.06V214.831H99.3865V217.899H105.171V218.584H102.201V221.101H106.186V221.796H97.4327V221.101H101.385V218.584H98.5586V214.146ZM116.837 213.374H117.631V223.032H116.837V213.374ZM115.071 213.594H115.843V222.547H115.071V219.533H113.658C113.371 220.339 112.664 220.858 111.792 220.858C110.622 220.858 109.772 219.942 109.772 218.628C109.772 217.314 110.622 216.409 111.792 216.409C112.962 216.409 113.812 217.314 113.812 218.628L113.801 218.86H115.071V217.336H113.702V216.663H115.071V213.594ZM109.419 215.051H111.395V213.627H112.212V215.051H114.198V215.725H109.419V215.051ZM111.792 217.116C111.052 217.116 110.512 217.745 110.512 218.628C110.512 219.511 111.052 220.14 111.792 220.14C112.543 220.14 113.084 219.511 113.084 218.628C113.084 217.745 112.543 217.116 111.792 217.116ZM119.427 214.08H123.136V214.764H120.222V216.012H123.037V216.663H120.222V218.021C121.635 218.021 122.507 217.966 123.534 217.767L123.622 218.44C122.507 218.661 121.591 218.705 120.035 218.705H119.427V214.08ZM126.338 213.374H127.121V219.224H126.338V216.597H124.98V219.169H124.196V213.561H124.98V215.912H126.338V213.374ZM120.664 219.743H127.121V223.032H126.304V220.427H120.664V219.743ZM132.913 213.55C135.033 213.55 136.302 214.135 136.302 215.217C136.302 216.299 135.033 216.895 132.913 216.895C130.794 216.895 129.524 216.299 129.524 215.217C129.524 214.135 130.794 213.55 132.913 213.55ZM132.913 214.168C131.324 214.168 130.374 214.555 130.374 215.217C130.374 215.89 131.324 216.266 132.913 216.266C134.503 216.266 135.452 215.89 135.452 215.217C135.452 214.555 134.503 214.168 132.913 214.168ZM128.553 217.568H137.273V218.242H128.553V217.568ZM129.613 219.092H136.148V221.233H130.452V222.271H136.446V222.922H129.646V220.626H135.342V219.732H129.613V219.092ZM147.228 213.374H148.056V215.703H149.491V216.409H148.056V219.025H147.228V213.374ZM140.992 213.903H141.808V215.416H144.623V213.903H145.44V218.407H140.992V213.903ZM141.808 216.078V217.723H144.623V216.078H141.808ZM142.051 219.566H148.134V220.24H142.879V222.216H148.321V222.9H142.051V219.566ZM154.477 213.55C156.597 213.55 157.866 214.135 157.866 215.217C157.866 216.299 156.597 216.895 154.477 216.895C152.358 216.895 151.089 216.299 151.089 215.217C151.089 214.135 152.358 213.55 154.477 213.55ZM154.477 214.168C152.888 214.168 151.938 214.555 151.938 215.217C151.938 215.89 152.888 216.266 154.477 216.266C156.067 216.266 157.016 215.89 157.016 215.217C157.016 214.555 156.067 214.168 154.477 214.168ZM150.117 217.568H158.838V218.242H150.117V217.568ZM151.177 219.092H157.712V221.233H152.016V222.271H158.01V222.922H151.21V220.626H156.906V219.732H151.177V219.092ZM166.066 213.727H166.927V214.279C166.927 215.648 168.715 216.829 170.415 217.083L170.073 217.745C168.605 217.491 167.126 216.652 166.508 215.471C165.9 216.674 164.41 217.491 162.92 217.745L162.578 217.083C164.3 216.829 166.066 215.681 166.066 214.279V213.727ZM162.125 218.838H170.857V219.522H166.883V223.032H166.066V219.522H162.125V218.838ZM176.573 219.334H177.368V219.864C177.368 220.736 177.831 221.653 178.736 222.182C179.675 221.597 180.149 220.615 180.149 219.864V219.334H180.955V219.864C180.955 220.869 181.695 221.862 182.909 222.282L182.501 222.9C181.551 222.558 180.878 221.873 180.536 221.068C180.249 221.851 179.664 222.602 178.77 222.988C177.842 222.624 177.246 221.917 176.959 221.101C176.617 221.873 175.955 222.547 175.039 222.9L174.619 222.282C175.833 221.84 176.573 220.792 176.573 219.864V219.334ZM181.209 213.385H182.048V218.904H181.209V213.385ZM176.871 213.948C178.328 213.948 179.377 214.864 179.377 216.199C179.377 217.524 178.328 218.429 176.871 218.429C175.414 218.429 174.365 217.524 174.365 216.199C174.365 214.864 175.414 213.948 176.871 213.948ZM176.871 214.643C175.889 214.643 175.171 215.283 175.171 216.199C175.171 217.116 175.889 217.745 176.871 217.745C177.864 217.745 178.571 217.116 178.571 216.199C178.571 215.283 177.864 214.643 176.871 214.643ZM184.882 213.727H185.698V216.31H191.428V216.983H184.882V213.727ZM183.689 218.308H192.443V218.992H183.689V218.308ZM184.826 219.975H185.643V222.116H191.483V222.801H184.826V219.975ZM195.996 214.367H201.393V215.062H199.097V216.365C199.097 218.01 200.312 219.666 201.703 220.273L201.228 220.935C200.124 220.416 199.142 219.29 198.689 217.955C198.247 219.379 197.276 220.615 196.172 221.167L195.698 220.516C197.055 219.853 198.27 218.032 198.27 216.365V215.062H195.996V214.367ZM202.74 213.374H203.568V223.032H202.74V213.374ZM214.34 213.385H215.168V216.321H216.614V217.005H215.168V219.842H214.34V213.385ZM207.662 218.882C208.434 218.882 209.339 218.882 210.278 218.849V218.12C209.163 218.032 208.445 217.513 208.445 216.707C208.445 215.824 209.328 215.283 210.675 215.283C212.033 215.283 212.916 215.824 212.916 216.707C212.916 217.502 212.209 218.021 211.095 218.12V218.816C212 218.771 212.905 218.694 213.755 218.573L213.821 219.169C211.746 219.544 209.45 219.555 207.772 219.555L207.662 218.882ZM208.843 220.339H215.168V223.032H214.34V221.001H208.843V220.339ZM207.904 214.268H210.278V213.296H211.095V214.268H213.457V214.897H207.904V214.268ZM210.675 215.857C209.792 215.857 209.229 216.188 209.229 216.707C209.229 217.215 209.792 217.568 210.675 217.568C211.569 217.568 212.132 217.215 212.132 216.707C212.132 216.188 211.569 215.857 210.675 215.857ZM224.326 213.385H225.165V220.438H224.326V213.385ZM218.995 219.721H219.812V222.127H225.463V222.812H218.995V219.721ZM219.988 214.058C221.423 214.058 222.494 215.029 222.494 216.431C222.494 217.811 221.423 218.794 219.988 218.794C218.564 218.794 217.483 217.811 217.483 216.431C217.483 215.029 218.564 214.058 219.988 214.058ZM219.988 214.775C219.028 214.775 218.288 215.46 218.288 216.431C218.288 217.381 219.028 218.065 219.988 218.065C220.96 218.065 221.699 217.381 221.699 216.431C221.699 215.46 220.96 214.775 219.988 214.775ZM226.796 215.051H228.794V213.65H229.611V215.051H231.598V215.725H226.796V215.051ZM229.202 216.398C230.405 216.398 231.277 217.303 231.277 218.584C231.277 219.886 230.405 220.78 229.202 220.78C227.999 220.78 227.138 219.886 227.138 218.584C227.138 217.303 227.999 216.398 229.202 216.398ZM229.202 217.094C228.429 217.094 227.877 217.723 227.877 218.584C227.877 219.456 228.429 220.074 229.202 220.074C229.975 220.074 230.538 219.456 230.538 218.584C230.538 217.723 229.975 217.094 229.202 217.094ZM234.181 213.374H234.964V223.032H234.181V218.142H232.889V222.547H232.105V213.605H232.889V217.458H234.181V213.374ZM47.2003 238.09H51.1522V235.981H48.249V231.058H49.0659V232.802H54.0774V231.058H54.8943V235.981H51.969V238.09H55.954V238.785H47.2003V238.09ZM49.0659 233.486V235.308H54.0774V233.486H49.0659ZM60.5537 233.851H62.1874V230.594H62.9601V239.536H62.1874V234.546H60.5537V233.851ZM58.7875 231.301H59.5823V233.133C59.5823 234.668 60.344 236.323 61.6134 237.085L61.1277 237.725C60.2004 237.173 59.5381 236.125 59.1959 234.955C58.8427 236.235 58.1252 237.35 57.1648 237.935L56.646 237.317C57.9596 236.544 58.7875 234.811 58.7875 233.155V231.301ZM64.1523 230.374H64.9471V240.032H64.1523V230.374ZM66.3124 238.09H68.4871V235.451C67.6702 235.032 67.1735 234.336 67.1735 233.464C67.1735 231.963 68.6416 230.992 70.6727 230.992C72.7259 230.992 74.172 231.963 74.172 233.464C74.172 234.325 73.6863 235.01 72.8915 235.44V238.09H75.0661V238.774H66.3124V238.09ZM70.6727 231.654C69.1052 231.654 67.9793 232.372 67.9793 233.464C67.9793 234.557 69.1052 235.275 70.6727 235.275C72.2402 235.275 73.3772 234.557 73.3772 233.464C73.3772 232.372 72.2402 231.654 70.6727 231.654ZM69.3039 238.09H72.0636V235.76C71.6441 235.871 71.1805 235.926 70.6727 235.926C70.176 235.926 69.7234 235.871 69.3039 235.76V238.09Z" fill="#616161"/>
<path d="M46.7588 260.047C46.7588 258.083 48.3507 256.491 50.3143 256.491H239.446C241.41 256.491 243.002 258.083 243.002 260.047V286.665C243.002 288.629 241.41 290.22 239.446 290.22H50.3143C48.3507 290.22 46.7588 288.629 46.7588 286.665V260.047Z" fill="#FFF5E6"/>
<path fill-rule="evenodd" clip-rule="evenodd" d="M66.817 268.323C67.0565 268.563 67.0565 268.951 66.817 269.19L60.0712 275.936C59.8317 276.176 59.4434 276.176 59.2039 275.936L56.1376 272.87C55.8981 272.631 55.8981 272.242 56.1376 272.003C56.3771 271.763 56.7654 271.763 57.0049 272.003L59.6376 274.635L65.9498 268.323C66.1893 268.084 66.5776 268.084 66.817 268.323Z" fill="#EE6002"/>
<path d="M74.7626 272.535C74.7626 271.299 75.2533 269.65 75.9499 268.551H76.7447C75.9597 269.631 75.4103 271.269 75.4103 272.535C75.4103 273.801 75.9597 275.439 76.7447 276.519H75.9499C75.2533 275.42 74.7626 273.771 74.7626 272.535ZM83.9735 268.208H84.7192V272.663H83.9735V268.208ZM79.1459 273.094H84.7192V275.125H79.8916V276.097H85.043V276.695H79.1655V274.576H83.9833V273.673H79.1459V273.094ZM78.0666 268.797H82.6685V269.385H81.805V271.613C82.2466 271.583 82.6881 271.544 83.1002 271.495L83.1395 272.025C81.4223 272.29 79.4207 272.349 77.9194 272.349L77.8311 271.74L78.93 271.73V269.385H78.0666V268.797ZM79.6463 271.711L81.0887 271.662V269.385H79.6463V271.711ZM89.6709 268.522H90.4362V269.012C90.4362 270.229 92.0258 271.279 93.5369 271.505L93.2327 272.093C91.9277 271.868 90.6129 271.122 90.0634 270.072C89.5237 271.142 88.1991 271.868 86.8744 272.093L86.5703 271.505C88.1009 271.279 89.6709 270.259 89.6709 269.012V268.522ZM86.168 273.065H93.9294V273.673H90.397V276.793H89.6709V273.673H86.168V273.065ZM96.8696 272.535C96.8696 273.781 96.3789 275.42 95.6921 276.519H94.8973C95.6725 275.449 96.2219 273.801 96.2219 272.535C96.2219 271.269 95.6725 269.621 94.8973 268.551H95.6921C96.3789 269.65 96.8696 271.289 96.8696 272.535ZM104.736 268.208H105.453V276.793H104.736V272.29H103.539V276.362H102.833V268.433H103.539V271.681H104.736V268.208ZM101.852 269.326C101.852 271.505 101.086 273.565 98.6332 274.949L98.2015 274.409C100.203 273.3 101.008 271.721 101.125 269.935H98.5155V269.326H101.852ZM112.955 268.218H113.701V274.488H112.955V268.218ZM108.216 273.85H108.942V275.989H113.966V276.597H108.216V273.85ZM109.099 268.816C110.375 268.816 111.327 269.68 111.327 270.926C111.327 272.152 110.375 273.026 109.099 273.026C107.834 273.026 106.872 272.152 106.872 270.926C106.872 269.68 107.834 268.816 109.099 268.816ZM109.099 269.454C108.246 269.454 107.588 270.062 107.588 270.926C107.588 271.77 108.246 272.378 109.099 272.378C109.963 272.378 110.62 271.77 110.62 270.926C110.62 270.062 109.963 269.454 109.099 269.454ZM119.722 270.455H121.469V268.208H122.205V273.32H121.469V271.063H119.722V270.455ZM119.389 273.595C121.155 273.595 122.234 274.193 122.234 275.194C122.234 276.205 121.155 276.784 119.389 276.784C117.613 276.784 116.533 276.205 116.533 275.194C116.533 274.193 117.613 273.595 119.389 273.595ZM119.389 274.174C118.074 274.174 117.269 274.556 117.269 275.194C117.269 275.822 118.074 276.205 119.389 276.205C120.694 276.205 121.508 275.822 121.508 275.194C121.508 274.556 120.694 274.174 119.389 274.174ZM115.425 268.846H120.007V269.454H118.103V269.788C118.103 270.906 118.967 271.976 120.203 272.407L119.821 272.996C118.859 272.643 118.113 271.917 117.75 271.024C117.387 272.044 116.583 272.849 115.572 273.241L115.199 272.653C116.455 272.192 117.367 271.034 117.367 269.788V269.454H115.425V268.846ZM123.644 275.066H127.157V273.192H124.576V268.816H125.302V270.366H129.757V268.816H130.483V273.192H127.883V275.066H131.425V275.685H123.644V275.066ZM125.302 270.975V272.594H129.757V270.975H125.302ZM134.307 272.466H137.81V271.456H135.288V268.61H141.087V269.209H136.014V270.847H141.146V271.456H138.536V272.466H142.059V273.065H134.307V272.466ZM138.173 273.703C139.998 273.703 141.107 274.262 141.107 275.243C141.107 276.234 139.998 276.784 138.173 276.784C136.338 276.784 135.239 276.234 135.239 275.243C135.239 274.262 136.338 273.703 138.173 273.703ZM138.173 274.282C136.809 274.282 135.975 274.635 135.975 275.243C135.975 275.861 136.809 276.205 138.173 276.205C139.537 276.205 140.361 275.861 140.361 275.243C140.361 274.635 139.537 274.282 138.173 274.282ZM145.558 268.836C146.893 268.836 147.844 269.66 147.844 270.847C147.844 272.044 146.893 272.859 145.558 272.859C144.214 272.859 143.262 272.044 143.262 270.847C143.262 269.66 144.214 268.836 145.558 268.836ZM145.558 269.474C144.646 269.474 143.978 270.033 143.978 270.847C143.978 271.652 144.646 272.221 145.558 272.221C146.461 272.221 147.128 271.652 147.128 270.847C147.128 270.033 146.461 269.474 145.558 269.474ZM149.012 268.198H149.748V276.803H149.012V268.198ZM142.821 274.282C144.391 274.282 146.569 274.282 148.443 273.987L148.502 274.527C146.569 274.9 144.459 274.91 142.919 274.91L142.821 274.282Z" fill="#333333"/>
<path fill-rule="evenodd" clip-rule="evenodd" d="M228.572 268.572C228.752 268.393 229.043 268.393 229.223 268.572L232.902 272.252C233.082 272.431 233.082 272.723 232.902 272.902L229.223 276.582C229.043 276.761 228.752 276.761 228.572 276.582C228.393 276.402 228.393 276.111 228.572 275.931L231.927 272.577L228.572 269.223C228.393 269.043 228.393 268.752 228.572 268.572Z" fill="#999999"/>
<g clip-path="url(#clip2_1099_78753)">
<rect width="196.243" height="63.7789" transform="translate(46.7588 295.127)" fill="url(#paint0_linear_1099_78753)"/>
<path d="M46.7588 310.948C46.7588 308.984 48.3507 307.393 50.3143 307.393H239.446C241.41 307.393 243.002 308.984 243.002 310.948V335.726C243.002 337.69 241.41 339.282 239.446 339.282H50.3143C48.3507 339.282 46.7588 337.69 46.7588 335.726V310.948Z" fill="#FF8120"/>
<path d="M142.052 318.928H143.013V321.499H144.23V322.284H143.013V324.776H142.052V318.928ZM136.164 323.795C136.832 323.795 137.597 323.795 138.392 323.776V323.187C137.42 323.079 136.812 322.628 136.812 321.931C136.812 321.136 137.626 320.645 138.863 320.645C140.109 320.645 140.923 321.136 140.923 321.931C140.923 322.628 140.315 323.079 139.353 323.187V323.736C140.109 323.697 140.874 323.638 141.591 323.54L141.669 324.217C139.824 324.541 137.793 324.551 136.282 324.56L136.164 323.795ZM137.244 325.179H143.013V327.602H142.052V325.934H137.244V325.179ZM136.38 319.645H138.392V318.85H139.353V319.645H141.345V320.361H136.38V319.645ZM138.863 321.283C138.156 321.283 137.725 321.529 137.725 321.931C137.725 322.323 138.156 322.578 138.863 322.578C139.569 322.578 140.011 322.323 140.011 321.931C140.011 321.529 139.569 321.283 138.863 321.283ZM150.899 318.928H151.87V325.218H150.899V318.928ZM146.218 324.59H147.17V326.641H152.116V327.426H146.218V324.59ZM147.18 319.507C148.485 319.507 149.476 320.4 149.476 321.676C149.476 322.922 148.485 323.834 147.18 323.834C145.885 323.834 144.884 322.922 144.884 321.676C144.884 320.4 145.885 319.507 147.18 319.507ZM147.18 320.341C146.415 320.341 145.816 320.871 145.816 321.676C145.816 322.461 146.415 322.991 147.18 322.991C147.955 322.991 148.544 322.461 148.544 321.676C148.544 320.871 147.955 320.341 147.18 320.341Z" fill="white"/>
</g>
<path d="M247.907 229.237C247.907 228.56 248.456 228.011 249.134 228.011V228.011C249.811 228.011 250.36 228.56 250.36 229.237V300.375C250.36 301.053 249.811 301.602 249.134 301.602V301.602C248.456 301.602 247.907 301.053 247.907 300.375V229.237Z" fill="#E0E0E0"/>
</g>
</g>
<rect x="34.1856" y="161.718" width="221.386" height="196.618" stroke="#0D69D4" stroke-width="0.613259"/>
<rect x="46.7568" y="289.344" width="196.243" height="4.90607" fill="#C54600" fill-opacity="0.3"/>
<line x1="24.6797" y1="289.65" x2="255.265" y2="289.65" stroke="#C54600" stroke-width="0.613259"/>
<line x1="24.6797" y1="293.943" x2="255.265" y2="293.943" stroke="#C54600" stroke-width="0.613259"/>
<rect x="46.7578" y="181.647" width="196.243" height="107.695" fill="#0D69D4" fill-opacity="0.2"/>
<rect x="46.7568" y="201.976" width="196.243" height="9.81214" fill="#C54600" fill-opacity="0.3"/>
<line x1="24.6797" y1="202.326" x2="243" y2="202.326" stroke="#C54600" stroke-width="0.613259"/>
<line x1="24.6797" y1="211.525" x2="243" y2="211.525" stroke="#C54600" stroke-width="0.613259"/>
<rect x="46.7578" y="294.007" width="196.243" height="63.7789" fill="#0D69D4" fill-opacity="0.2"/>
<rect x="34.4922" y="162.024" width="220.773" height="19.6243" fill="#007D00" fill-opacity="0.3"/>
<line x1="24.6797" y1="162.331" x2="255.265" y2="162.331" stroke="#007D00" stroke-width="0.613259"/>
<line x1="24.6797" y1="181.343" x2="255.265" y2="181.343" stroke="#007D00" stroke-width="0.613259"/>
<rect x="34.4922" y="181.647" width="12.2652" height="176.38" fill="#007D00" fill-opacity="0.3"/>
<line x1="34.7988" y1="152.212" x2="34.7988" y2="358.029" stroke="#007D00" stroke-width="0.613259"/>
<line x1="46.4492" y1="152.212" x2="46.4492" y2="358.029" stroke="#007D00" stroke-width="0.613259"/>
<rect x="243.001" y="181.648" width="12.2652" height="176.38" fill="#007D00" fill-opacity="0.3"/>
<line x1="243.308" y1="152.212" x2="243.308" y2="358.029" stroke="#007D00" stroke-width="0.613259"/>
<line x1="254.958" y1="152.212" x2="254.958" y2="358.029" stroke="#007D00" stroke-width="0.613259"/>
<rect x="46.7568" y="244.527" width="196.243" height="12.2652" fill="#C54600" fill-opacity="0.3"/>
<line x1="24.6797" y1="244.642" x2="243" y2="244.642" stroke="#C54600" stroke-width="0.613259"/>
<line x1="24.6797" y1="256.293" x2="243" y2="256.293" stroke="#C54600" stroke-width="0.613259"/>
<rect x="46.7568" y="294.286" width="196.243" height="12.2652" fill="#007D00" fill-opacity="0.3"/>
<line x1="24.6797" y1="294.315" x2="243" y2="294.315" stroke="#007D00" stroke-width="0.613259"/>
<line x1="24.6797" y1="305.967" x2="243" y2="305.967" stroke="#007D00" stroke-width="0.613259"/>
<rect x="46.7568" y="338.441" width="196.243" height="19.6243" fill="#007D00" fill-opacity="0.3"/>
<line x1="24.6797" y1="338.471" x2="243" y2="338.471" stroke="#007D00" stroke-width="0.613259"/>
<line x1="24.6797" y1="357.48" x2="243" y2="357.48" stroke="#007D00" stroke-width="0.613259"/>
<rect y="164.2" width="21.5391" height="16.0899" rx="4.35943" fill="#007D00"/>
<path d="M7.11809 176.319C6.55613 176.319 6.05519 176.223 5.61528 176.03C5.1782 175.837 4.83052 175.569 4.57225 175.225C4.31682 174.879 4.17775 174.477 4.15504 174.02H5.22787C5.25057 174.301 5.34707 174.544 5.51736 174.748C5.68765 174.95 5.91045 175.106 6.18575 175.217C6.46105 175.327 6.76616 175.383 7.10106 175.383C7.4757 175.383 7.80776 175.318 8.09726 175.187C8.38675 175.056 8.6138 174.875 8.77842 174.642C8.94303 174.409 9.02534 174.14 9.02534 173.833C9.02534 173.512 8.94587 173.23 8.78693 172.986C8.628 172.739 8.39527 172.546 8.08874 172.407C7.78222 172.268 7.40758 172.198 6.96483 172.198H6.26664V171.262H6.96483C7.31108 171.262 7.61477 171.199 7.87588 171.074C8.13983 170.95 8.3456 170.774 8.49318 170.547C8.64361 170.32 8.71882 170.053 8.71882 169.746C8.71882 169.451 8.65354 169.194 8.52298 168.976C8.39243 168.757 8.20795 168.587 7.96954 168.465C7.73397 168.343 7.45583 168.282 7.13512 168.282C6.83427 168.282 6.55046 168.337 6.28367 168.448C6.01972 168.556 5.80402 168.713 5.63656 168.92C5.46911 169.125 5.37829 169.372 5.3641 169.661H4.34236C4.35939 169.204 4.49704 168.804 4.75531 168.461C5.01359 168.114 5.35133 167.845 5.76854 167.652C6.18859 167.459 6.64979 167.362 7.15215 167.362C7.6914 167.362 8.15402 167.471 8.54001 167.69C8.926 167.906 9.22259 168.191 9.42978 168.546C9.63696 168.9 9.74056 169.284 9.74056 169.695C9.74056 170.186 9.61142 170.605 9.35315 170.951C9.09771 171.297 8.75004 171.537 8.31012 171.67V171.739C8.86073 171.829 9.29071 172.064 9.60007 172.441C9.90943 172.816 10.0641 173.28 10.0641 173.833C10.0641 174.307 9.93497 174.733 9.6767 175.11C9.42126 175.485 9.07217 175.78 8.62941 175.996C8.18666 176.212 7.68288 176.319 7.11809 176.319ZM11.8053 176.2V175.434L14.6832 172.284C15.021 171.915 15.2991 171.594 15.5177 171.321C15.7362 171.046 15.898 170.788 16.003 170.547C16.1108 170.302 16.1648 170.047 16.1648 169.78C16.1648 169.474 16.091 169.208 15.9434 168.984C15.7986 168.76 15.6 168.587 15.3474 168.465C15.0948 168.343 14.8109 168.282 14.4959 168.282C14.161 168.282 13.8687 168.351 13.6189 168.49C13.372 168.627 13.1804 168.818 13.0442 169.065C12.9108 169.312 12.8441 169.601 12.8441 169.934H11.8394C11.8394 169.423 11.9572 168.974 12.1927 168.588C12.4283 168.202 12.749 167.901 13.1549 167.686C13.5636 167.47 14.0219 167.362 14.53 167.362C15.0408 167.362 15.4935 167.47 15.888 167.686C16.2825 167.901 16.5919 168.192 16.8161 168.558C17.0403 168.925 17.1524 169.332 17.1524 169.78C17.1524 170.101 17.0943 170.415 16.9779 170.721C16.8644 171.025 16.6657 171.364 16.3819 171.739C16.1009 172.11 15.7106 172.564 15.2111 173.101L13.2528 175.195V175.264H17.3057V176.2H11.8053Z" fill="white"/>
<rect y="296.665" width="21.5391" height="16.0899" rx="4.35943" fill="#007D00"/>
<path d="M4.17207 308.665V307.899L7.04997 304.748C7.38772 304.379 7.66586 304.059 7.88439 303.786C8.10293 303.511 8.26471 303.253 8.36972 303.011C8.47757 302.767 8.5315 302.512 8.5315 302.245C8.5315 301.939 8.45771 301.673 8.31012 301.449C8.16537 301.225 7.9667 301.052 7.7141 300.93C7.46151 300.808 7.17769 300.747 6.86265 300.747C6.52775 300.747 6.23542 300.816 5.98566 300.955C5.73874 301.091 5.54716 301.283 5.41093 301.53C5.27754 301.777 5.21084 302.066 5.21084 302.398H4.20613C4.20613 301.887 4.32391 301.439 4.55948 301.053C4.79505 300.667 5.11576 300.366 5.52162 300.151C5.93032 299.935 6.38868 299.827 6.89671 299.827C7.40758 299.827 7.86027 299.935 8.25478 300.151C8.64928 300.366 8.95864 300.657 9.18286 301.023C9.40707 301.389 9.51918 301.797 9.51918 302.245C9.51918 302.566 9.461 302.879 9.34463 303.186C9.23111 303.49 9.03243 303.829 8.74862 304.203C8.46764 304.575 8.07739 305.029 7.57787 305.566L5.61954 307.66V307.728H9.67244V308.665H4.17207ZM14.2745 308.784C13.6331 308.784 13.0868 308.61 12.6355 308.261C12.1842 307.909 11.8394 307.399 11.601 306.732C11.3626 306.062 11.2434 305.254 11.2434 304.306C11.2434 303.363 11.3626 302.559 11.601 301.892C11.8422 301.222 12.1885 300.711 12.6397 300.359C13.0939 300.004 13.6388 299.827 14.2745 299.827C14.9103 299.827 15.4538 300.004 15.9051 300.359C16.3592 300.711 16.7054 301.222 16.9438 301.892C17.1851 302.559 17.3057 303.363 17.3057 304.306C17.3057 305.254 17.1865 306.062 16.9481 306.732C16.7097 307.399 16.3648 307.909 15.9136 308.261C15.4623 308.61 14.916 308.784 14.2745 308.784ZM14.2745 307.848C14.9103 307.848 15.4041 307.541 15.7561 306.928C16.108 306.315 16.284 305.441 16.284 304.306C16.284 303.551 16.2031 302.908 16.0413 302.377C15.8824 301.846 15.6525 301.442 15.3516 301.164C15.0536 300.886 14.6946 300.747 14.2745 300.747C13.6445 300.747 13.152 301.057 12.7973 301.679C12.4425 302.298 12.2651 303.173 12.2651 304.306C12.2651 305.061 12.3446 305.702 12.5035 306.23C12.6625 306.758 12.8909 307.159 13.1889 307.435C13.4898 307.71 13.8516 307.848 14.2745 307.848Z" fill="white"/>
<rect y="339.439" width="21.5391" height="16.0899" rx="4.35943" fill="#007D00"/>
<path d="M7.11809 351.559C6.55613 351.559 6.05519 351.462 5.61528 351.269C5.1782 351.076 4.83052 350.808 4.57225 350.465C4.31682 350.118 4.17775 349.717 4.15504 349.26H5.22787C5.25057 349.541 5.34707 349.783 5.51736 349.988C5.68765 350.189 5.91045 350.345 6.18575 350.456C6.46105 350.567 6.76616 350.622 7.10106 350.622C7.4757 350.622 7.80776 350.557 8.09726 350.426C8.38675 350.296 8.6138 350.114 8.77842 349.881C8.94303 349.649 9.02534 349.379 9.02534 349.072C9.02534 348.752 8.94587 348.469 8.78693 348.225C8.628 347.978 8.39527 347.785 8.08874 347.646C7.78222 347.507 7.40758 347.438 6.96483 347.438H6.26664V346.501H6.96483C7.31108 346.501 7.61477 346.439 7.87588 346.314C8.13983 346.189 8.3456 346.013 8.49318 345.786C8.64361 345.559 8.71882 345.292 8.71882 344.985C8.71882 344.69 8.65354 344.433 8.52298 344.215C8.39243 343.996 8.20795 343.826 7.96954 343.704C7.73397 343.582 7.45583 343.521 7.13512 343.521C6.83427 343.521 6.55046 343.576 6.28367 343.687C6.01972 343.795 5.80402 343.952 5.63656 344.16C5.46911 344.364 5.37829 344.611 5.3641 344.9H4.34236C4.35939 344.443 4.49704 344.043 4.75531 343.7C5.01359 343.354 5.35133 343.084 5.76854 342.891C6.18859 342.698 6.64979 342.601 7.15215 342.601C7.6914 342.601 8.15402 342.711 8.54001 342.929C8.926 343.145 9.22259 343.43 9.42978 343.785C9.63696 344.14 9.74056 344.523 9.74056 344.934C9.74056 345.425 9.61142 345.844 9.35315 346.19C9.09771 346.537 8.75004 346.776 8.31012 346.91V346.978C8.86073 347.069 9.29071 347.303 9.60007 347.68C9.90943 348.055 10.0641 348.519 10.0641 349.072C10.0641 349.546 9.93497 349.972 9.6767 350.35C9.42126 350.724 9.07217 351.019 8.62941 351.235C8.18666 351.451 7.68288 351.559 7.11809 351.559ZM11.8053 351.439V350.673L14.6832 347.523C15.021 347.154 15.2991 346.833 15.5177 346.561C15.7362 346.285 15.898 346.027 16.003 345.786C16.1108 345.542 16.1648 345.286 16.1648 345.02C16.1648 344.713 16.091 344.448 15.9434 344.223C15.7986 343.999 15.6 343.826 15.3474 343.704C15.0948 343.582 14.8109 343.521 14.4959 343.521C14.161 343.521 13.8687 343.59 13.6189 343.73C13.372 343.866 13.1804 344.057 13.0442 344.304C12.9108 344.551 12.8441 344.841 12.8441 345.173H11.8394C11.8394 344.662 11.9572 344.213 12.1927 343.827C12.4283 343.441 12.749 343.141 13.1549 342.925C13.5636 342.709 14.0219 342.601 14.53 342.601C15.0408 342.601 15.4935 342.709 15.888 342.925C16.2825 343.141 16.5919 343.432 16.8161 343.798C17.0403 344.164 17.1524 344.571 17.1524 345.02C17.1524 345.34 17.0943 345.654 16.9779 345.96C16.8644 346.264 16.6657 346.603 16.3819 346.978C16.1009 347.35 15.7106 347.804 15.2111 348.34L13.2528 350.435V350.503H17.3057V351.439H11.8053Z" fill="white"/>
<rect x="1.37891" y="198.696" width="20.5391" height="16.0899" rx="4.35943" fill="#C54600"/>
<path d="M8.6162 201.977V210.696H7.5604V203.084H7.50931L5.38069 204.498V203.425L7.5604 201.977H8.6162ZM14.0187 210.815C13.661 210.81 13.3034 210.742 12.9458 210.611C12.5882 210.481 12.2618 210.261 11.9667 209.951C11.6715 209.639 11.4345 209.218 11.2557 208.687C11.0769 208.153 10.9875 207.483 10.9875 206.677C10.9875 205.905 11.0599 205.221 11.2046 204.625C11.3494 204.027 11.5594 203.523 11.8347 203.114C12.11 202.703 12.4421 202.39 12.8309 202.178C13.2225 201.965 13.6639 201.858 14.1549 201.858C14.6431 201.858 15.0773 201.956 15.4576 202.152C15.8408 202.345 16.153 202.615 16.3942 202.961C16.6354 203.307 16.7915 203.706 16.8625 204.157H15.8237C15.7272 203.765 15.5399 203.441 15.2618 203.182C14.9836 202.924 14.6147 202.795 14.1549 202.795C13.4794 202.795 12.9472 203.089 12.5584 203.676C12.1724 204.264 11.978 205.088 11.9752 206.15H12.0433C12.2022 205.908 12.391 205.703 12.6095 205.532C12.8309 205.359 13.075 205.226 13.3418 205.132C13.6085 205.038 13.8909 204.992 14.1889 204.992C14.6885 204.992 15.1454 205.116 15.5598 205.366C15.9742 205.613 16.3062 205.955 16.556 206.392C16.8057 206.826 16.9306 207.325 16.9306 207.887C16.9306 208.426 16.81 208.92 16.5687 209.368C16.3275 209.814 15.9883 210.168 15.5513 210.432C15.117 210.693 14.6062 210.821 14.0187 210.815ZM14.0187 209.879C14.3763 209.879 14.697 209.789 14.9808 209.611C15.2674 209.432 15.4931 209.192 15.6577 208.891C15.8251 208.59 15.9089 208.255 15.9089 207.887C15.9089 207.526 15.828 207.198 15.6662 206.903C15.5073 206.605 15.2873 206.368 15.0063 206.192C14.7282 206.016 14.4103 205.928 14.0527 205.928C13.7831 205.928 13.5319 205.982 13.2992 206.09C13.0664 206.195 12.8621 206.34 12.6861 206.524C12.513 206.709 12.3768 206.92 12.2774 207.159C12.1781 207.394 12.1284 207.642 12.1284 207.904C12.1284 208.25 12.2093 208.573 12.3711 208.874C12.5357 209.175 12.7599 209.418 13.0437 209.602C13.3304 209.787 13.6554 209.879 14.0187 209.879Z" fill="white"/>
<rect y="242.852" width="21.5391" height="16.0899" rx="4.35943" fill="#C54600"/>
<path d="M4.17207 254.852V254.085L7.04997 250.935C7.38772 250.566 7.66586 250.245 7.88439 249.973C8.10293 249.697 8.26471 249.439 8.36972 249.198C8.47757 248.954 8.5315 248.698 8.5315 248.432C8.5315 248.125 8.45771 247.86 8.31012 247.636C8.16537 247.411 7.9667 247.238 7.7141 247.116C7.46151 246.994 7.17769 246.933 6.86265 246.933C6.52775 246.933 6.23542 247.003 5.98566 247.142C5.73874 247.278 5.54716 247.469 5.41093 247.716C5.27754 247.963 5.21084 248.253 5.21084 248.585H4.20613C4.20613 248.074 4.32391 247.626 4.55948 247.24C4.79505 246.854 5.11576 246.553 5.52162 246.337C5.93032 246.121 6.38868 246.014 6.89671 246.014C7.40758 246.014 7.86027 246.121 8.25478 246.337C8.64928 246.553 8.95864 246.844 9.18286 247.21C9.40707 247.576 9.51918 247.983 9.51918 248.432C9.51918 248.752 9.461 249.066 9.34463 249.372C9.23111 249.676 9.03243 250.015 8.74862 250.39C8.46764 250.762 8.07739 251.216 7.57787 251.752L5.61954 253.847V253.915H9.67244V254.852H4.17207ZM14.2745 254.971C13.6331 254.971 13.0868 254.796 12.6355 254.447C12.1842 254.095 11.8394 253.586 11.601 252.919C11.3626 252.249 11.2434 251.44 11.2434 250.492C11.2434 249.55 11.3626 248.745 11.601 248.078C11.8422 247.408 12.1885 246.898 12.6397 246.546C13.0939 246.191 13.6388 246.014 14.2745 246.014C14.9103 246.014 15.4538 246.191 15.9051 246.546C16.3592 246.898 16.7054 247.408 16.9438 248.078C17.1851 248.745 17.3057 249.55 17.3057 250.492C17.3057 251.44 17.1865 252.249 16.9481 252.919C16.7097 253.586 16.3648 254.095 15.9136 254.447C15.4623 254.796 14.916 254.971 14.2745 254.971ZM14.2745 254.034C14.9103 254.034 15.4041 253.728 15.7561 253.115C16.108 252.502 16.284 251.627 16.284 250.492C16.284 249.737 16.2031 249.094 16.0413 248.564C15.8824 248.033 15.6525 247.628 15.3516 247.35C15.0536 247.072 14.6946 246.933 14.2745 246.933C13.6445 246.933 13.152 247.244 12.7973 247.865C12.4425 248.484 12.2651 249.36 12.2651 250.492C12.2651 251.247 12.3446 251.889 12.5035 252.416C12.6625 252.944 12.8909 253.346 13.1889 253.621C13.4898 253.897 13.8516 254.034 14.2745 254.034Z" fill="white"/>
<rect x="4.13867" y="278.727" width="14.5391" height="16.0899" rx="4.35943" fill="#C54600"/>
<path d="M11.1035 290.846C10.5188 290.846 10.0023 290.742 9.55386 290.535C9.10827 290.325 8.76059 290.037 8.51083 289.671C8.26107 289.302 8.13761 288.882 8.14045 288.411C8.13761 288.042 8.20999 287.701 8.35757 287.389C8.50516 287.074 8.70667 286.811 8.9621 286.601C9.22037 286.388 9.50845 286.254 9.82632 286.197V286.146C9.40911 286.038 9.07705 285.804 8.83013 285.443C8.58321 285.08 8.46116 284.667 8.464 284.204C8.46116 283.762 8.57327 283.366 8.80033 283.017C9.02738 282.668 9.33958 282.392 9.73692 282.191C10.1371 281.989 10.5926 281.889 11.1035 281.889C11.6087 281.889 12.06 281.989 12.4573 282.191C12.8547 282.392 13.1668 282.668 13.3939 283.017C13.6238 283.366 13.7402 283.762 13.743 284.204C13.7402 284.667 13.6139 285.08 13.3641 285.443C13.1172 285.804 12.7894 286.038 12.3807 286.146V286.197C12.6957 286.254 12.9795 286.388 13.2321 286.601C13.4847 286.811 13.6862 287.074 13.8367 287.389C13.9871 287.701 14.0637 288.042 14.0665 288.411C14.0637 288.882 13.936 289.302 13.6834 289.671C13.4336 290.037 13.086 290.325 12.6404 290.535C12.1976 290.742 11.6853 290.846 11.1035 290.846ZM11.1035 289.909C11.498 289.909 11.8386 289.845 12.1252 289.718C12.4119 289.59 12.6333 289.41 12.7894 289.177C12.9455 288.944 13.0249 288.672 13.0278 288.36C13.0249 288.03 12.9398 287.739 12.7723 287.487C12.6049 287.234 12.3764 287.036 12.0869 286.891C11.8003 286.746 11.4725 286.674 11.1035 286.674C10.7317 286.674 10.3996 286.746 10.1073 286.891C9.81781 287.036 9.58934 287.234 9.42188 287.487C9.25727 287.739 9.17638 288.03 9.17922 288.36C9.17638 288.672 9.25159 288.944 9.40486 289.177C9.56095 289.41 9.78375 289.59 10.0732 289.718C10.3627 289.845 10.7062 289.909 11.1035 289.909ZM11.1035 285.771C11.4157 285.771 11.6924 285.709 11.9337 285.584C12.1777 285.459 12.3693 285.284 12.5084 285.06C12.6475 284.836 12.7184 284.573 12.7213 284.273C12.7184 283.977 12.6489 283.721 12.5127 283.502C12.3764 283.281 12.1877 283.11 11.9464 282.991C11.7052 282.869 11.4242 282.808 11.1035 282.808C10.7771 282.808 10.4919 282.869 10.2478 282.991C10.0037 283.11 9.81497 283.281 9.68158 283.502C9.54818 283.721 9.48291 283.977 9.48574 284.273C9.48291 284.573 9.5496 284.836 9.68583 285.06C9.8249 285.284 10.0165 285.459 10.2606 285.584C10.5046 285.709 10.7856 285.771 11.1035 285.771Z" fill="white"/>
<defs>
<filter id="filter0_dd_1099_78753" x="24.681" y="156.26" width="240.398" height="216.481" filterUnits="userSpaceOnUse" color-interpolation-filters="sRGB">
<feFlood flood-opacity="0" result="BackgroundImageFix"/>
<feColorMatrix in="SourceAlpha" type="matrix" values="0 0 0 0 0 0 0 0 0 0 0 0 0 0 0 0 0 0 127 0" result="hardAlpha"/>
<feOffset/>
<feGaussianBlur stdDeviation="2.45303"/>
<feComposite in2="hardAlpha" operator="out"/>
<feColorMatrix type="matrix" values="0 0 0 0 0 0 0 0 0 0 0 0 0 0 0 0 0 0 0.12 0"/>
<feBlend mode="normal" in2="BackgroundImageFix" result="effect1_dropShadow_1099_78753"/>
<feColorMatrix in="SourceAlpha" type="matrix" values="0 0 0 0 0 0 0 0 0 0 0 0 0 0 0 0 0 0 127 0" result="hardAlpha"/>
<feOffset dy="4.90607"/>
<feGaussianBlur stdDeviation="4.90607"/>
<feComposite in2="hardAlpha" operator="out"/>
<feColorMatrix type="matrix" values="0 0 0 0 0 0 0 0 0 0 0 0 0 0 0 0 0 0 0.12 0"/>
<feBlend mode="normal" in2="effect1_dropShadow_1099_78753" result="effect2_dropShadow_1099_78753"/>
<feBlend mode="normal" in="SourceGraphic" in2="effect2_dropShadow_1099_78753" result="shape"/>
</filter>
<linearGradient id="paint0_linear_1099_78753" x1="98.1214" y1="-1.99309" x2="98.1214" y2="50.4916" gradientUnits="userSpaceOnUse">
<stop stop-color="white" stop-opacity="0"/>
<stop offset="0.136083" stop-color="white" stop-opacity="0.8"/>
<stop offset="1" stop-color="white"/>
</linearGradient>
<clipPath id="clip0_1099_78753">
<rect width="220.773" height="354.341" fill="white" transform="translate(34.4932 3.31152)"/>
</clipPath>
<clipPath id="clip1_1099_78753">
<path d="M34.4932 205.321C34.4932 180.935 54.2619 161.166 78.6478 161.166H211.112C235.498 161.166 255.266 180.935 255.266 205.321V358.022H34.4932V205.321Z" fill="white"/>
</clipPath>
<clipPath id="clip2_1099_78753">
<rect width="196.243" height="63.7789" fill="white" transform="translate(46.7588 295.127)"/>
</clipPath>
</defs>
</svg>
