<svg width="126" height="70" viewBox="0 0 126 70" fill="none" xmlns="http://www.w3.org/2000/svg">
<path d="M58.3672 44.0859C64.8826 44.0862 70.1641 49.3683 70.1641 55.8838C70.1638 62.399 64.8824 67.6804 58.3672 67.6807C51.8517 67.6807 46.5696 62.3992 46.5693 55.8838C46.5693 49.3682 51.8516 44.0859 58.3672 44.0859Z" fill="white"/>
<path d="M58.3672 44.0859C64.8826 44.0862 70.1641 49.3683 70.1641 55.8838C70.1638 62.399 64.8824 67.6804 58.3672 67.6807C51.8517 67.6807 46.5696 62.3992 46.5693 55.8838C46.5693 49.3682 51.8516 44.0859 58.3672 44.0859Z" stroke="#E0E0E0" stroke-width="1.24185"/>
<path d="M100.59 55.8833C100.59 49.0248 106.15 43.4648 113.009 43.4648C119.867 43.4648 125.427 49.0248 125.427 55.8833C125.427 62.7419 119.867 68.3018 113.009 68.3018C106.15 68.3018 100.59 62.7419 100.59 55.8833Z" fill="#FF8120"/>
<path fill-rule="evenodd" clip-rule="evenodd" d="M119.786 50.9692C120.271 51.4542 120.271 52.2405 119.786 52.7254L111.714 60.7975C111.229 61.2824 110.442 61.2824 109.958 60.7975L106.232 57.0719C105.747 56.5869 105.747 55.8006 106.232 55.3157C106.717 54.8307 107.503 54.8307 107.988 55.3157L110.836 58.1631L118.03 50.9692C118.514 50.4842 119.301 50.4842 119.786 50.9692Z" fill="white"/>
<rect x="0.00012207" y="42.3838" width="27.4185" height="27" rx="4.96739" fill="#333333"/>
<path d="M6.91708 59.3158C8.71776 57.5772 11.3008 55.7269 11.3008 54.1497C11.3008 52.9575 10.5433 52.3863 9.62431 52.3863C8.97855 52.3863 8.25828 52.6098 7.81121 53.6157L6.81773 53.1811C7.47591 51.6784 8.77986 51.2935 9.62431 51.2935C10.9779 51.2935 12.3936 52.349 12.3936 54.1497C12.3936 56.0125 10.2452 57.8007 8.5439 59.3158H12.5427V60.4086H6.91708V59.3158ZM17.0086 59.3903C18.3746 59.3903 19.1942 58.2975 19.1942 55.9007C19.1942 53.4915 18.387 52.4111 17.0086 52.4111C15.6301 52.4111 14.8105 53.4915 14.8105 55.9007C14.8105 58.2975 15.6301 59.3903 17.0086 59.3903ZM13.7177 55.9007C13.7177 53.032 15.0216 51.3183 17.0086 51.3183C18.9831 51.3183 20.287 53.0196 20.287 55.9007C20.287 58.757 18.9955 60.4831 17.0086 60.4831C15.0216 60.4831 13.7177 58.757 13.7177 55.9007Z" fill="white"/>
<path d="M34.2488 43.4648V68.3018" stroke="black" stroke-width="1.24185"/>
<path d="M31.1442 68.3018L37.3534 68.3018" stroke="black" stroke-width="1.24185"/>
<path d="M31.1442 43.4648L37.3534 43.4648" stroke="black" stroke-width="1.24185"/>
<rect x="45.9482" width="24.837" height="26.0788" rx="4.96739" fill="#333333"/>
<path d="M51.7375 16.4711C53.5382 14.7325 56.1212 12.8821 56.1212 11.305C56.1212 10.1128 55.3637 9.54156 54.4447 9.54156C53.799 9.54156 53.0787 9.76509 52.6316 10.771L51.6381 10.3363C52.2963 8.8337 53.6003 8.44873 54.4447 8.44873C55.7983 8.44873 57.214 9.5043 57.214 11.305C57.214 13.1678 55.0656 14.956 53.3643 16.4711H57.3631V17.5639H51.7375V16.4711ZM61.829 16.5456C63.195 16.5456 64.0146 15.4528 64.0146 13.056C64.0146 10.6468 63.2074 9.56639 61.829 9.56639C60.4505 9.56639 59.6309 10.6468 59.6309 13.056C59.6309 15.4528 60.4505 16.5456 61.829 16.5456ZM58.5381 13.056C58.5381 10.1873 59.842 8.47357 61.829 8.47357C63.8035 8.47357 65.1074 10.1749 65.1074 13.056C65.1074 15.9122 63.8159 17.6384 61.829 17.6384C59.842 17.6384 58.5381 15.9122 58.5381 13.056Z" fill="white"/>
<path d="M70.785 32.9092L45.9481 32.9092" stroke="black" stroke-width="1.24185"/>
<path d="M45.9481 29.8047V36.0139" stroke="black" stroke-width="1.24185"/>
<path d="M70.7852 29.8047V36.0139" stroke="black" stroke-width="1.24185"/>
</svg>
