<svg width="226" height="57" viewBox="0 0 226 57" fill="none" xmlns="http://www.w3.org/2000/svg">
<g opacity="0.8">
<path d="M0 10.0118C0 4.48242 4.48242 0 10.0118 0H215.253C220.782 0 225.265 4.48242 225.265 10.0118V46.3143C225.265 51.8436 220.782 56.326 215.253 56.326H10.0118C4.48242 56.326 0 51.8436 0 46.3143V10.0118Z" fill="#1A1A1A"/>
<path d="M46.2264 22.998V23.9835H43.0445V33.1631H42.0308V23.9835H38.863V22.998H46.2264ZM49.464 32.2339C51.0409 32.2339 51.8716 31.0794 51.8716 29.587C51.8716 28.0946 51.0409 26.9401 49.464 26.9401C47.8731 26.9401 47.0706 28.0946 47.0706 29.587C47.0706 31.0794 47.8731 32.2339 49.464 32.2339ZM46.0569 29.587C46.0569 27.63 47.2677 25.9546 49.464 25.9546C51.6744 25.9546 52.8852 27.63 52.8852 29.587C52.8852 31.544 51.6744 33.2194 49.464 33.2194C47.2677 33.2194 46.0569 31.544 46.0569 29.587ZM57.404 32.2479C58.6711 32.2479 59.8115 31.2202 59.8256 29.6433C59.8115 28.0806 58.6711 27.0387 57.404 27.0387C55.8412 27.0387 54.9965 28.165 54.9965 29.6433C54.9965 31.1216 55.8412 32.2479 57.404 32.2479ZM53.9828 29.6433C53.9828 27.6863 55.2077 26.0391 57.3899 26.0391C58.2206 26.0391 59.1498 26.4755 59.7974 27.5174V25.9969H60.8111V33.1631H59.7974V31.7552C59.1216 32.8533 58.2347 33.2616 57.3899 33.2616C55.2077 33.2616 53.9828 31.5862 53.9828 29.6433ZM63.25 31.2202C63.5316 31.8678 64.1933 32.2479 65.0521 32.2057C66.2911 32.1776 66.7839 30.6429 65.5168 30.2346C65.0521 30.0939 64.2074 29.8686 63.5175 29.4181C62.4475 28.7 62.4616 27.6441 62.7854 26.9965C63.2219 26.1376 64.3341 25.8842 64.9817 25.9405C65.5871 26.0109 66.4319 26.2221 66.9669 26.9401L66.1503 27.5315C65.8546 27.1232 65.376 26.9965 64.8973 26.9401C64.4608 26.8979 63.8836 27.0528 63.6724 27.447C63.4894 27.8271 63.5034 28.2073 64.0807 28.5874C64.6298 28.9535 65.3337 29.1224 65.8265 29.2913C68.1918 30.0516 67.4315 33.149 65.0803 33.2053C63.8977 33.2616 62.7713 32.6422 62.3349 31.6144L63.25 31.2202ZM72.2918 33.0082C72.0384 33.0645 71.6582 33.1349 71.2499 33.1349C70.1799 33.1349 69.3211 32.2761 69.3211 31.2202V26.9261H68.1525V25.9405H69.3211V23.7301H70.3348V25.9405H72.0102V26.9261H70.3348V31.2202C70.3348 31.7833 70.6727 32.1212 71.2499 32.1212C71.5737 32.1212 71.8412 32.079 72.0665 32.0227L72.2918 33.0082ZM83.9493 22.998V23.9835H78.5289V27.5737H83.006V28.5592H78.5289V33.1631H77.5152V22.998H83.9493ZM87.8899 32.2339C89.4668 32.2339 90.2974 31.0794 90.2974 29.587C90.2974 28.0946 89.4668 26.9401 87.8899 26.9401C86.299 26.9401 85.4965 28.0946 85.4965 29.587C85.4965 31.0794 86.299 32.2339 87.8899 32.2339ZM84.4828 29.587C84.4828 27.63 85.6936 25.9546 87.8899 25.9546C90.1003 25.9546 91.3111 27.63 91.3111 29.587C91.3111 31.544 90.1003 33.2194 87.8899 33.2194C85.6936 33.2194 84.4828 31.544 84.4828 29.587ZM93.6195 27.5033C94.0278 26.56 95.1963 25.9265 96.1678 25.9265V26.9683C94.8584 26.9683 93.6195 28.334 93.6195 29.4744V33.1631H92.6058V25.9969H93.6195V27.5033ZM101.718 30.6711C102.182 31.6989 103.154 32.3043 104.449 32.2761C106.645 32.2057 107.237 29.3899 105.139 28.8267C104.463 28.5733 103.351 28.2636 102.379 27.6019C100.972 26.6304 100.986 25.2084 101.408 24.3074C101.971 23.1247 103.478 22.7868 104.322 22.8572C105.153 22.9135 106.279 23.2514 106.969 24.2511L106.124 24.8142C105.66 24.1525 104.942 23.9272 104.238 23.8709C103.604 23.8428 102.689 24.0399 102.337 24.7297C102.056 25.3774 102.056 26.1236 102.943 26.7571C103.773 27.3344 104.773 27.6159 105.477 27.8694C108.659 28.8408 107.758 33.1912 104.477 33.2898C102.858 33.3461 101.38 32.4873 100.789 31.0653L101.718 30.6711ZM112.07 32.2198C112.802 32.2198 113.478 31.9382 113.957 31.4595L114.717 32.1353C114.041 32.8111 113.14 33.2335 112.126 33.2335C109.817 33.2335 108.48 31.5299 108.48 29.4603C108.48 27.4048 109.817 25.7012 112.126 25.7012C113.14 25.7012 114.041 26.1236 114.717 26.7994L113.957 27.4752C113.478 26.9965 112.802 26.7149 112.07 26.7149C110.409 26.7149 109.494 27.9398 109.494 29.4603C109.494 30.9949 110.409 32.2198 112.07 32.2198ZM121.011 29.0802C120.899 28.0665 120.406 26.9824 118.885 26.9824C117.548 26.9824 116.689 27.7004 116.506 29.0942L121.011 29.0802ZM115.464 29.587C115.464 27.6159 116.647 25.9687 118.843 25.9687C121.124 25.9687 121.701 27.7427 121.771 27.9116C122.194 29.0661 122.025 30.0798 122.025 30.0798H116.506C116.689 31.4032 117.548 32.1916 118.857 32.1916C120.476 32.1916 120.87 31.3047 120.969 31.1639L121.842 31.6285C121.842 31.6285 121.251 33.2053 118.843 33.2053C116.647 33.2053 115.464 31.544 115.464 29.587ZM128.717 29.0802C128.604 28.0665 128.112 26.9824 126.591 26.9824C125.254 26.9824 124.395 27.7004 124.212 29.0942L128.717 29.0802ZM123.17 29.587C123.17 27.6159 124.353 25.9687 126.549 25.9687C128.83 25.9687 129.407 27.7427 129.477 27.9116C129.9 29.0661 129.731 30.0798 129.731 30.0798H124.212C124.395 31.4032 125.254 32.1916 126.563 32.1916C128.182 32.1916 128.576 31.3047 128.675 31.1639L129.548 31.6285C129.548 31.6285 128.956 33.2053 126.549 33.2053C124.353 33.2053 123.17 31.544 123.17 29.587ZM136.141 28.9394C136.141 27.7849 135.466 26.9824 134.283 26.9824C133.058 26.9824 132.157 28.1228 132.157 29.0802V33.1631H131.143V25.9969H132.157V27.2217C132.636 26.5178 133.34 25.9969 134.325 25.9969C136.001 25.9969 137.155 27.264 137.155 28.8408V33.1631H136.141V28.9394ZM142.2 33.1631V22.998H145.988C147.536 22.998 148.775 24.2088 148.775 25.7575C148.775 26.56 148.395 27.2358 147.846 27.7286C147.93 27.7708 148.001 27.8271 148.085 27.8694C148.846 28.3621 149.437 29.2632 149.437 30.3332C149.437 31.896 148.184 33.1631 146.635 33.1631H142.2ZM143.214 32.1776H146.649C147.649 32.1776 148.451 31.3891 148.451 30.3614C148.451 29.2491 147.649 28.4044 146.649 28.4044H143.214V32.1776ZM143.214 27.4188H146.1C147.058 27.3766 147.804 26.6867 147.804 25.7294C147.804 24.7157 147.001 23.9835 146.002 23.9835H143.214V27.4188ZM154.087 32.2339C155.664 32.2339 156.495 31.0794 156.495 29.587C156.495 28.0946 155.664 26.9401 154.087 26.9401C152.496 26.9401 151.694 28.0946 151.694 29.587C151.694 31.0794 152.496 32.2339 154.087 32.2339ZM150.68 29.587C150.68 27.63 151.891 25.9546 154.087 25.9546C156.298 25.9546 157.508 27.63 157.508 29.587C157.508 31.544 156.298 33.2194 154.087 33.2194C151.891 33.2194 150.68 31.544 150.68 29.587ZM162.259 33.0082C162.006 33.0645 161.626 33.1349 161.217 33.1349C160.147 33.1349 159.289 32.2761 159.289 31.2202V26.9261H158.12V25.9405H159.289V23.7301H160.302V25.9405H161.978V26.9261H160.302V31.2202C160.302 31.7833 160.64 32.1212 161.217 32.1212C161.541 32.1212 161.809 32.079 162.034 32.0227L162.259 33.0082ZM166.899 33.0082C166.646 33.0645 166.266 33.1349 165.857 33.1349C164.787 33.1349 163.928 32.2761 163.928 31.2202V26.9261H162.76V25.9405H163.928V23.7301H164.942V25.9405H166.618V26.9261H164.942V31.2202C164.942 31.7833 165.28 32.1212 165.857 32.1212C166.181 32.1212 166.449 32.079 166.674 32.0227L166.899 33.0082ZM171.155 32.2339C172.732 32.2339 173.563 31.0794 173.563 29.587C173.563 28.0946 172.732 26.9401 171.155 26.9401C169.564 26.9401 168.762 28.0946 168.762 29.587C168.762 31.0794 169.564 32.2339 171.155 32.2339ZM167.748 29.587C167.748 27.63 168.959 25.9546 171.155 25.9546C173.366 25.9546 174.576 27.63 174.576 29.587C174.576 31.544 173.366 33.2194 171.155 33.2194C168.959 33.2194 167.748 31.544 167.748 29.587ZM185.29 28.7704C185.29 27.63 184.6 26.9824 183.586 26.9824C182.643 26.9824 181.672 27.8694 181.672 28.7704V33.1631H180.658V28.7704C180.658 27.8694 180.081 26.9824 178.983 26.9824C177.983 26.9824 177.054 27.8694 177.054 28.8831V33.1631H176.04V25.9969H177.054V27.2358C177.504 26.4615 178.166 25.9969 179.025 25.9969C180.067 25.9969 180.756 26.4474 181.263 27.4329C181.784 26.7008 182.502 25.9969 183.629 25.9969C185.093 25.9969 186.304 27.1795 186.304 28.6578V33.1631H185.29V28.7704Z" fill="white"/>
</g>
</svg>
