<svg width="183" height="92" viewBox="0 0 183 92" fill="none" xmlns="http://www.w3.org/2000/svg">
<rect x="1.31008" y="1.31008" width="142.123" height="48.2941" rx="6.20924" stroke="#E0E0E0" stroke-width="1.37983"/>
<mask id="path-2-inside-1_1101_61668" fill="white">
<path d="M2 7.51933C2 4.47109 4.47109 2 7.51933 2H48.9143V48.9143H7.51933C4.47109 48.9143 2 46.4432 2 43.395V7.51933Z"/>
</mask>
<path d="M2 7.51933C2 4.47109 4.47109 2 7.51933 2H48.9143V48.9143H7.51933C4.47109 48.9143 2 46.4432 2 43.395V7.51933Z" fill="white"/>
<path d="M2 2H48.9143H2ZM48.9143 48.9143H2H48.9143ZM2 48.9143V2V48.9143ZM50.2941 2V48.9143H47.5345V2H50.2941Z" fill="#E0E0E0" mask="url(#path-2-inside-1_1101_61668)"/>
<path d="M33.0928 24.584C33.6144 24.6371 34.0214 25.0776 34.0215 25.6133C34.0215 26.149 33.6145 26.5894 33.0928 26.6426L32.9873 26.6484H18.2402C17.6687 26.6484 17.2051 26.1848 17.2051 25.6133C17.2052 25.0418 17.6687 24.5781 18.2402 24.5781H32.9873L33.0928 24.584Z" fill="#333333"/>
<mask id="path-5-inside-2_1101_61668" fill="white">
<path d="M48.9141 2H95.8283V48.9143H48.9141V2Z"/>
</mask>
<path d="M48.9141 2H95.8283V48.9143H48.9141V2Z" fill="white"/>
<path d="M95.8283 2H94.4485V48.9143H95.8283H97.2082V2H95.8283Z" fill="#E0E0E0" mask="url(#path-5-inside-2_1101_61668)"/>
<path d="M68.0302 31.0059C70.8312 28.3015 74.7141 25.7709 74.7141 23.3755C74.7141 21.6176 73.5936 20.8255 72.2607 20.8255C71.3335 20.8255 70.2517 21.1539 69.5949 22.6221L67.7597 21.8107C68.8222 19.4154 70.9664 18.8165 72.2607 18.8165C74.405 18.8165 76.7231 20.4778 76.7231 23.3755C76.7231 26.3118 73.6323 28.8037 71.063 31.0059H76.9356V33.015H68.0302V31.0059Z" fill="#1A1A1A"/>
<path d="M137.223 2C140.271 2 142.742 4.47129 142.742 7.51953V43.3945C142.742 46.4428 140.271 48.9141 137.223 48.9141H95.8281V2H137.223Z" fill="white"/>
<path d="M137.223 2C140.271 2 142.742 4.47129 142.742 7.51953V43.3945C142.742 46.4428 140.271 48.9141 137.223 48.9141H95.8281V2H137.223Z" stroke="#E0E0E0"/>
<path d="M119.44 17.2051C120.012 17.2053 120.476 17.6688 120.476 18.2402V24.5781H126.813L126.919 24.584C127.441 24.637 127.848 25.0775 127.848 25.6133C127.848 26.1491 127.441 26.5896 126.919 26.6426L126.813 26.6484H120.476V32.9873L120.47 33.0928C120.417 33.6144 119.976 34.0213 119.44 34.0215C118.905 34.0215 118.464 33.6145 118.411 33.0928L118.405 32.9873V26.6484H112.066C111.495 26.6483 111.031 26.1848 111.031 25.6133C111.031 25.0419 111.495 24.5782 112.066 24.5781H118.405V18.2402C118.405 17.6687 118.869 17.2051 119.44 17.2051Z" fill="#333333"/>
<path d="M143.598 62.749L2.85479 62.749" stroke="black" stroke-width="1.10387"/>
<path d="M2.85547 59.9893V65.5086" stroke="black" stroke-width="1.10387"/>
<path d="M143.598 59.9893V65.5086" stroke="black" stroke-width="1.10387"/>
<rect x="42.3184" y="68.8203" width="61.8165" height="22.9052" rx="4.41546" fill="#333333"/>
<path d="M67.0573 75.2939V84.2849H65.9644V76.5606L64.5736 77.3802L64.052 76.424L65.9644 75.2939H67.0573ZM72.1107 83.279C73.4768 83.279 74.2964 82.1862 74.2964 79.7894C74.2964 77.3802 73.4892 76.2998 72.1107 76.2998C70.7323 76.2998 69.9127 77.3802 69.9127 79.7894C69.9127 82.1862 70.7323 83.279 72.1107 83.279ZM68.8198 79.7894C68.8198 76.9207 70.1238 75.207 72.1107 75.207C74.0853 75.207 75.3892 76.9083 75.3892 79.7894C75.3892 82.6456 74.0977 84.3718 72.1107 84.3718C70.1238 84.3718 68.8198 82.6456 68.8198 79.7894ZM76.6934 83.2045C78.4941 81.4659 81.0772 79.6155 81.0772 78.0384C81.0772 76.8462 80.3196 76.275 79.4007 76.275C78.7549 76.275 78.0346 76.4985 77.5876 77.5044L76.5941 77.0697C77.2523 75.5671 78.5562 75.1821 79.4007 75.1821C80.7543 75.1821 82.17 76.2377 82.17 78.0384C82.17 79.9012 80.0216 81.6894 78.3203 83.2045H82.319V84.2973H76.6934V83.2045Z" fill="white"/>
<path d="M151.877 1.86328V49.1229" stroke="black" stroke-width="1.10387"/>
<path d="M149.117 49.123L154.637 49.123" stroke="black" stroke-width="1.10387"/>
<path d="M149.117 1.86328L154.637 1.86328" stroke="black" stroke-width="1.10387"/>
<rect x="157.947" y="13.4932" width="24.285" height="24" rx="4.41546" fill="#333333"/>
<path d="M167.756 24.8611C168.501 25.3081 169.122 26.0657 169.122 26.9722C169.122 28.4748 167.806 29.5801 166.154 29.5801C164.515 29.5801 163.186 28.4748 163.186 26.935H164.279C164.279 27.7173 164.974 28.4997 166.154 28.4997C167.334 28.4997 168.054 27.7297 168.054 26.935C168.054 26.1526 167.545 25.3702 166.179 25.3702H165.521V24.3271H166.179C167.346 24.3271 167.917 23.6441 167.917 22.9114C167.917 22.2159 167.284 21.5081 166.228 21.5081C165.16 21.5081 164.54 22.2035 164.54 22.9238H163.447C163.447 21.4832 164.701 20.4401 166.228 20.4401C167.756 20.4401 168.998 21.4832 168.998 22.8865C168.998 23.7186 168.439 24.414 167.756 24.8611ZM175.446 20.5146V26.1153H176.688V27.1833H175.446V29.5056H174.353V27.1833H170.317V26.1153L174.39 20.5146H175.446ZM171.633 26.1153H174.353V22.365L171.633 26.1153Z" fill="white"/>
</svg>
