<svg width="488" height="126" viewBox="0 0 488 126" fill="none" xmlns="http://www.w3.org/2000/svg">
<path d="M150.153 14.0341C152.333 14.0341 154.155 12.2127 154.155 10.0188C154.155 7.82487 152.333 6.0035 150.153 6.0035H148.415V14.0341H150.153ZM147.421 15V5.03761H150.153C152.885 5.03761 155.121 7.27294 155.121 10.0188C155.121 12.7647 152.885 15 150.153 15H147.421ZM161.423 10.9985C161.313 10.005 160.83 8.94254 159.34 8.94254C158.029 8.94254 157.187 9.64625 157.008 11.0123L161.423 10.9985ZM155.987 11.4952C155.987 9.56346 157.146 7.94906 159.298 7.94906C161.534 7.94906 162.099 9.68765 162.168 9.85323C162.582 10.9847 162.417 11.9782 162.417 11.9782H157.008C157.187 13.2752 158.029 14.0479 159.312 14.0479C160.899 14.0479 161.285 13.1786 161.382 13.0406L162.237 13.496C162.237 13.496 161.658 15.0414 159.298 15.0414C157.146 15.0414 155.987 13.4132 155.987 11.4952ZM165.23 15H164.237V8.94254H162.968V7.97666H164.237V6.62442C164.237 5.49296 165.161 4.56847 166.307 4.56847C166.831 4.56847 167.314 4.77544 167.673 5.09281L167.01 5.83792C166.79 5.64474 166.61 5.56195 166.307 5.56195C165.644 5.56195 165.23 5.9759 165.23 6.62442V7.97666H167.259V8.94254H165.23V15ZM171.262 14.1031C172.504 14.1031 173.622 13.0958 173.636 11.5504C173.622 10.0188 172.504 8.99773 171.262 8.99773C169.731 8.99773 168.903 10.1016 168.903 11.5504C168.903 12.9992 169.731 14.1031 171.262 14.1031ZM167.909 11.5504C167.909 9.63245 169.11 8.01805 171.248 8.01805C172.063 8.01805 172.973 8.4458 173.608 9.46687V7.97666H174.601V15H173.608V13.6202C172.946 14.6964 172.076 15.0966 171.248 15.0966C169.11 15.0966 167.909 13.4546 167.909 11.5504ZM176.986 12.1162C176.986 13.1786 177.648 14.0341 178.807 14.0341C180.118 14.0341 180.891 12.9303 180.891 11.992V7.92146H181.884V15H180.891V13.8133C180.38 14.5723 179.814 15 178.766 15C177.138 15 175.992 13.7582 175.992 12.2265V7.97666H176.986V12.1162ZM183.272 4.76165H184.265V15H183.272V4.76165ZM189.401 14.8482C189.152 14.9034 188.78 14.9724 188.38 14.9724C187.331 14.9724 186.489 14.1307 186.489 13.0958V8.88734H185.344V7.92146H186.489V5.75513H187.483V7.92146H189.125V8.88734H187.483V13.0958C187.483 13.6478 187.814 13.9789 188.38 13.9789C188.697 13.9789 188.959 13.9375 189.18 13.8823L189.401 14.8482Z" fill="#616161"/>
<path d="M298.858 10.1706C300.017 10.1706 300.941 9.2185 300.941 8.08704C300.941 6.92798 300.003 6.0035 298.844 6.0035H296.029L296.043 10.1706H298.858ZM295.05 15V5.03761H298.885C300.569 5.03761 301.907 6.40365 301.907 8.08704C301.907 9.75664 300.569 11.1365 298.885 11.1365H296.043V15H295.05ZM303.98 9.45308C304.38 8.52859 305.525 7.90766 306.477 7.90766V8.92874C305.194 8.92874 303.98 10.2672 303.98 11.3848V15H302.987V7.97666H303.98V9.45308ZM312.278 10.9985C312.167 10.005 311.684 8.94254 310.194 8.94254C308.883 8.94254 308.042 9.64625 307.862 11.0123L312.278 10.9985ZM306.841 11.4952C306.841 9.56346 308 7.94906 310.153 7.94906C312.388 7.94906 312.954 9.68765 313.023 9.85323C313.437 10.9847 313.271 11.9782 313.271 11.9782H307.862C308.042 13.2752 308.883 14.0479 310.167 14.0479C311.753 14.0479 312.14 13.1786 312.236 13.0406L313.092 13.496C313.092 13.496 312.512 15.0414 310.153 15.0414C308 15.0414 306.841 13.4132 306.841 11.4952ZM315.06 13.0958C315.336 13.7306 315.985 14.1031 316.827 14.0617C318.041 14.0341 318.524 12.5301 317.282 12.1299C316.827 11.992 315.999 11.7712 315.323 11.3296C314.274 10.6259 314.288 9.59106 314.605 8.95634C315.033 8.11464 316.123 7.86627 316.758 7.92146C317.351 7.99045 318.179 8.19743 318.703 8.90114L317.903 9.48067C317.613 9.08052 317.144 8.95634 316.675 8.90114C316.247 8.85975 315.681 9.01153 315.474 9.39788C315.295 9.77044 315.309 10.143 315.874 10.5155C316.413 10.8743 317.103 11.0399 317.585 11.2055C319.904 11.9506 319.158 14.9862 316.854 15.0414C315.695 15.0966 314.591 14.4895 314.163 13.4822L315.06 13.0958ZM320.577 13.0958C320.853 13.7306 321.501 14.1031 322.343 14.0617C323.557 14.0341 324.04 12.5301 322.799 12.1299C322.343 11.992 321.515 11.7712 320.839 11.3296C319.79 10.6259 319.804 9.59106 320.122 8.95634C320.549 8.11464 321.639 7.86627 322.274 7.92146C322.868 7.99045 323.695 8.19743 324.22 8.90114L323.419 9.48067C323.13 9.08052 322.661 8.95634 322.191 8.90114C321.764 8.85975 321.198 9.01153 320.991 9.39788C320.812 9.77044 320.825 10.143 321.391 10.5155C321.929 10.8743 322.619 11.0399 323.102 11.2055C325.42 11.9506 324.675 14.9862 322.371 15.0414C321.212 15.0966 320.108 14.4895 319.68 13.4822L320.577 13.0958Z" fill="#616161"/>
<path d="M424.74 14.0341C426.92 14.0341 428.742 12.2127 428.742 10.0188C428.742 7.82487 426.92 6.0035 424.74 6.0035H423.002V14.0341H424.74ZM422.008 15V5.03761H424.74C427.472 5.03761 429.708 7.27294 429.708 10.0188C429.708 12.7647 427.472 15 424.74 15H422.008ZM431.47 13.0958C431.746 13.7306 432.395 14.1031 433.237 14.0617C434.451 14.0341 434.934 12.5301 433.692 12.1299C433.237 11.992 432.409 11.7712 431.733 11.3296C430.684 10.6259 430.698 9.59106 431.015 8.95634C431.443 8.11464 432.533 7.86627 433.168 7.92146C433.761 7.99045 434.589 8.19743 435.113 8.90114L434.313 9.48067C434.023 9.08052 433.554 8.95634 433.085 8.90114C432.657 8.85975 432.091 9.01153 431.884 9.39788C431.705 9.77044 431.719 10.143 432.285 10.5155C432.823 10.8743 433.513 11.0399 433.996 11.2055C436.314 11.9506 435.569 14.9862 433.264 15.0414C432.105 15.0966 431.001 14.4895 430.574 13.4822L431.47 13.0958ZM436.556 7.97666H437.549V15H436.556V7.97666ZM436.418 5.42397C436.418 5.07901 436.639 4.80304 437.053 4.80304C437.453 4.80304 437.673 5.07901 437.673 5.42397C437.673 5.78272 437.453 6.05869 437.053 6.05869C436.639 6.05869 436.418 5.78272 436.418 5.42397ZM442.224 14.1031C443.466 14.1031 444.584 13.0958 444.598 11.5504C444.584 10.0188 443.466 8.99773 442.224 8.99773C440.693 8.99773 439.865 10.1016 439.865 11.5504C439.865 12.9992 440.693 14.1031 442.224 14.1031ZM438.871 11.5504C438.871 9.63245 440.072 8.01805 442.211 8.01805C443.025 8.01805 443.935 8.4458 444.57 9.46687V7.97666H445.564V15H444.57V13.6202C443.908 14.6964 443.039 15.0966 442.211 15.0966C440.072 15.0966 438.871 13.4546 438.871 11.5504ZM450.47 14.1307C452.029 14.1307 452.871 13.013 452.871 11.5366C452.871 10.074 452.029 8.94254 450.47 8.94254C449.187 8.94254 448.096 10.074 448.096 11.5366C448.096 13.013 449.187 14.1307 450.47 14.1307ZM447.103 15V4.76165H448.096V9.45308C448.745 8.32161 449.711 7.97666 450.497 7.97666C452.664 7.97666 453.864 9.61866 453.864 11.5366C453.864 13.4684 452.65 15.1104 450.484 15.1104C449.711 15.1104 448.745 14.7792 448.096 13.6202V15H447.103ZM454.867 4.76165H455.861V15H454.867V4.76165ZM462.3 10.9985C462.189 10.005 461.706 8.94254 460.216 8.94254C458.905 8.94254 458.064 9.64625 457.884 11.0123L462.3 10.9985ZM456.863 11.4952C456.863 9.56346 458.022 7.94906 460.175 7.94906C462.41 7.94906 462.976 9.68765 463.045 9.85323C463.459 10.9847 463.293 11.9782 463.293 11.9782H457.884C458.064 13.2752 458.905 14.0479 460.189 14.0479C461.775 14.0479 462.162 13.1786 462.258 13.0406L463.114 13.496C463.114 13.496 462.534 15.0414 460.175 15.0414C458.022 15.0414 456.863 13.4132 456.863 11.4952ZM467.538 15.1104C465.4 15.1104 464.185 13.4684 464.185 11.5366C464.185 9.61866 465.4 7.96286 467.538 7.96286C468.435 7.96286 469.374 8.4182 469.953 9.46687V4.76165H470.947V15H469.953V13.6064C469.36 14.655 468.435 15.1104 467.538 15.1104ZM465.179 11.5366C465.179 13.013 466.021 14.1169 467.58 14.1169C468.849 14.1169 469.953 13.013 469.953 11.5366C469.953 10.074 468.849 8.95634 467.58 8.95634C466.021 8.95634 465.179 10.074 465.179 11.5366Z" fill="#616161"/>
<path d="M4.99499 59.7899C2.92524 59.7899 1.17286 58.0652 1.17286 55.816V49.731H2.16634V55.8298C2.16634 57.5546 3.39439 58.7965 4.99499 58.7965C6.5956 58.7965 7.82365 57.5546 7.82365 55.8298V49.731H8.81713V55.816C8.81713 58.0652 7.06474 59.7899 4.99499 59.7899ZM15.4645 55.5539C15.4645 54.4224 14.8021 53.6359 13.6431 53.6359C12.4426 53.6359 11.5595 54.7536 11.5595 55.6918V59.6934H10.5661V52.67H11.5595V53.8705C12.0287 53.1806 12.7186 52.67 13.6845 52.67C15.3265 52.67 16.4579 53.9119 16.4579 55.4573V59.6934H15.4645V55.5539ZM18.4557 57.7892C18.7316 58.4239 19.3802 58.7965 20.2219 58.7551C21.4361 58.7275 21.9191 57.2235 20.6772 56.8233C20.2219 56.6853 19.394 56.4646 18.7179 56.023C17.6692 55.3193 17.683 54.2844 18.0003 53.6497C18.4281 52.808 19.5182 52.5596 20.1529 52.6148C20.7462 52.6838 21.5741 52.8908 22.0984 53.5945L21.2981 54.174C21.0084 53.7739 20.5392 53.6497 20.0701 53.5945C19.6423 53.5531 19.0766 53.7049 18.8696 54.0912C18.6903 54.4638 18.7041 54.8364 19.2698 55.2089C19.8079 55.5677 20.4978 55.7332 20.9808 55.8988C23.2989 56.6439 22.5538 59.6796 20.2495 59.7348C19.0904 59.7899 17.9865 59.1828 17.5588 58.1755L18.4557 57.7892ZM28.7949 55.6918C28.6845 54.6984 28.2016 53.6359 26.7114 53.6359C25.4005 53.6359 24.5589 54.3396 24.3795 55.7056L28.7949 55.6918ZM23.3584 56.1886C23.3584 54.2568 24.5175 52.6424 26.67 52.6424C28.9053 52.6424 29.4711 54.381 29.54 54.5466C29.954 55.678 29.7884 56.6715 29.7884 56.6715H24.3795C24.5589 57.9686 25.4005 58.7413 26.6838 58.7413C28.2706 58.7413 28.657 57.872 28.7535 57.734L29.609 58.1893C29.609 58.1893 29.0295 59.7348 26.67 59.7348C24.5175 59.7348 23.3584 58.1066 23.3584 56.1886ZM30.8325 49.455H31.8259V59.6934H30.8325V49.455ZM38.2651 55.6918C38.1547 54.6984 37.6718 53.6359 36.1816 53.6359C34.8707 53.6359 34.029 54.3396 33.8496 55.7056L38.2651 55.6918ZM32.8286 56.1886C32.8286 54.2568 33.9876 52.6424 36.1402 52.6424C38.3755 52.6424 38.9412 54.381 39.0102 54.5466C39.4242 55.678 39.2586 56.6715 39.2586 56.6715H33.8496C34.029 57.9686 34.8707 58.7413 36.154 58.7413C37.7408 58.7413 38.1271 57.872 38.2237 57.734L39.0792 58.1893C39.0792 58.1893 38.4997 59.7348 36.1402 59.7348C33.9876 59.7348 32.8286 58.1066 32.8286 56.1886ZM43.3797 58.7689C44.0972 58.7689 44.7595 58.4929 45.2286 58.0238L45.9737 58.6861C45.3114 59.3484 44.4283 59.7624 43.4348 59.7624C41.1719 59.7624 39.8611 58.0928 39.8611 56.0644C39.8611 54.0498 41.1719 52.3802 43.4348 52.3802C44.4283 52.3802 45.3114 52.7942 45.9737 53.4565L45.2286 54.1188C44.7595 53.6497 44.0972 53.3737 43.3797 53.3737C41.7514 53.3737 40.8546 54.5742 40.8546 56.0644C40.8546 57.5684 41.7514 58.7689 43.3797 58.7689ZM50.4743 59.5416C50.2259 59.5968 49.8533 59.6658 49.4532 59.6658C48.4045 59.6658 47.5628 58.8241 47.5628 57.7892V53.5807H46.4175V52.6148H47.5628V50.4485H48.5563V52.6148H50.1983V53.5807H48.5563V57.7892C48.5563 58.3411 48.8874 58.6723 49.4532 58.6723C49.7705 58.6723 50.0327 58.6309 50.2535 58.5757L50.4743 59.5416ZM56.5128 55.6918C56.4025 54.6984 55.9195 53.6359 54.4293 53.6359C53.1185 53.6359 52.2768 54.3396 52.0974 55.7056L56.5128 55.6918ZM51.0763 56.1886C51.0763 54.2568 52.2354 52.6424 54.3879 52.6424C56.6232 52.6424 57.189 54.381 57.258 54.5466C57.6719 55.678 57.5063 56.6715 57.5063 56.6715H52.0974C52.2768 57.9686 53.1185 58.7413 54.4017 58.7413C55.9885 58.7413 56.3749 57.872 56.4715 57.734L57.3269 58.1893C57.3269 58.1893 56.7474 59.7348 54.3879 59.7348C52.2354 59.7348 51.0763 58.1066 51.0763 56.1886ZM61.7516 59.8037C59.6128 59.8037 58.3986 58.1617 58.3986 56.23C58.3986 54.312 59.6128 52.6562 61.7516 52.6562C62.6485 52.6562 63.5867 53.1116 64.1663 54.1602V49.455H65.1598V59.6934H64.1663V58.2997C63.573 59.3484 62.6485 59.8037 61.7516 59.8037ZM59.3921 56.23C59.3921 57.7064 60.2338 58.8103 61.793 58.8103C63.0624 58.8103 64.1663 57.7064 64.1663 56.23C64.1663 54.7674 63.0624 53.6497 61.793 53.6497C60.2338 53.6497 59.3921 54.7674 59.3921 56.23Z" fill="#616161"/>
<mask id="path-5-inside-1_890_34872" fill="white">
<path d="M133.232 55.1937C133.232 45.2869 141.263 37.2559 151.17 37.2559H188.425C198.332 37.2559 206.363 45.2869 206.363 55.1937C206.363 65.1005 198.332 73.1315 188.425 73.1315H151.17C141.263 73.1315 133.232 65.1005 133.232 55.1937Z"/>
</mask>
<path d="M133.232 55.1937C133.232 45.2869 141.263 37.2559 151.17 37.2559H188.425C198.332 37.2559 206.363 45.2869 206.363 55.1937C206.363 65.1005 198.332 73.1315 188.425 73.1315H151.17C141.263 73.1315 133.232 65.1005 133.232 55.1937Z" fill="white"/>
<path d="M151.17 37.2559V38.1694H188.425V37.2559V36.3423H151.17V37.2559ZM188.425 73.1315V72.2179H151.17V73.1315V74.0451H188.425V73.1315ZM151.17 73.1315V72.2179C141.768 72.2179 134.145 64.5959 134.145 55.1937H133.232H132.318C132.318 65.605 140.758 74.0451 151.17 74.0451V73.1315ZM206.363 55.1937H205.449C205.449 64.5959 197.827 72.2179 188.425 72.2179V73.1315V74.0451C198.837 74.0451 207.277 65.605 207.277 55.1937H206.363ZM188.425 37.2559V38.1694C197.827 38.1694 205.449 45.7914 205.449 55.1937H206.363H207.277C207.277 44.7823 198.837 36.3423 188.425 36.3423V37.2559ZM151.17 37.2559V36.3423C140.758 36.3423 132.318 44.7823 132.318 55.1937H133.232H134.145C134.145 45.7914 141.768 38.1694 151.17 38.1694V37.2559Z" fill="#E0E0E0" mask="url(#path-5-inside-1_890_34872)"/>
<path d="M157.083 60.3103C153.896 60.3103 151.879 57.8692 151.879 54.9166C151.879 51.964 153.896 49.5229 157.083 49.5229C158.53 49.5229 159.831 50.1368 160.766 51.1016L159.991 51.8324C159.246 51.0577 158.223 50.6046 157.083 50.6046C154.525 50.6046 152.946 52.5194 152.946 54.9166C152.946 57.3284 154.525 59.2433 157.083 59.2433C158.223 59.2433 159.246 58.7755 159.991 58.0008L160.766 58.7317C159.831 59.6964 158.53 60.3103 157.083 60.3103ZM167.694 56.0129C167.694 54.6243 166.904 53.8203 165.793 53.8203C164.639 53.8203 163.63 54.902 163.63 56.3052V60.1934H162.578V49.3475H163.63V54.1565C163.996 53.3964 164.829 52.7971 165.837 52.7971C167.343 52.7971 168.746 54.0834 168.746 55.9544V60.1934H167.694V56.0129ZM170.719 52.7533H171.772V60.1934H170.719V52.7533ZM170.573 50.0491C170.573 49.6837 170.807 49.3914 171.245 49.3914C171.669 49.3914 171.903 49.6837 171.903 50.0491C171.903 50.4292 171.669 50.7215 171.245 50.7215C170.807 50.7215 170.573 50.4292 170.573 50.0491ZM177.333 59.2871C178.94 59.2871 179.847 58.0885 179.847 56.5245C179.847 54.9897 178.94 53.7911 177.333 53.7911C175.988 53.7911 174.833 54.9897 174.833 56.5245C174.833 58.0885 175.988 59.2871 177.333 59.2871ZM173.766 63.5553V52.7533H174.818V54.3319C175.301 53.2795 176.441 52.7679 177.347 52.7679C179.627 52.7679 180.899 54.5073 180.899 56.5245C180.899 58.5709 179.627 60.3103 177.347 60.3103C176.412 60.3103 175.301 59.6818 174.818 58.7317V63.5553H173.766ZM182.978 58.1762C183.271 58.8486 183.958 59.2433 184.849 59.1994C186.135 59.1702 186.647 57.5769 185.332 57.153C184.849 57.0068 183.972 56.773 183.256 56.3052C182.145 55.5598 182.16 54.4635 182.496 53.7911C182.949 52.8995 184.104 52.6363 184.776 52.6948C185.405 52.7679 186.282 52.9872 186.837 53.7326L185.989 54.3465C185.682 53.9226 185.185 53.7911 184.688 53.7326C184.235 53.6888 183.636 53.8496 183.417 54.2588C183.227 54.6535 183.241 55.0482 183.841 55.4428C184.411 55.8229 185.141 55.9983 185.653 56.1737C188.109 56.963 187.319 60.1787 184.878 60.2372C183.651 60.2957 182.481 59.6525 182.028 58.5855L182.978 58.1762Z" fill="#1A1A1A"/>
<mask id="path-8-inside-2_890_34872" fill="white">
<path d="M272.595 55.1937C272.595 45.2869 280.626 37.2559 290.533 37.2559H327.788C337.695 37.2559 345.726 45.2869 345.726 55.1937C345.726 65.1005 337.695 73.1315 327.788 73.1315H290.533C280.626 73.1315 272.595 65.1005 272.595 55.1937Z"/>
</mask>
<path d="M272.595 55.1937C272.595 45.2869 280.626 37.2559 290.533 37.2559H327.788C337.695 37.2559 345.726 45.2869 345.726 55.1937C345.726 65.1005 337.695 73.1315 327.788 73.1315H290.533C280.626 73.1315 272.595 65.1005 272.595 55.1937Z" fill="#EEEEEE"/>
<path d="M290.533 37.2559V38.1757H327.788V37.2559V36.336H290.533V37.2559ZM327.788 73.1315V72.2116H290.533V73.1315V74.0514H327.788V73.1315ZM290.533 73.1315V72.2116C281.134 72.2116 273.515 64.5924 273.515 55.1937H272.595H271.675C271.675 65.6085 280.118 74.0514 290.533 74.0514V73.1315ZM345.726 55.1937H344.806C344.806 64.5924 337.187 72.2116 327.788 72.2116V73.1315V74.0514C338.203 74.0514 346.646 65.6085 346.646 55.1937H345.726ZM327.788 37.2559V38.1757C337.187 38.1757 344.806 45.7949 344.806 55.1937H345.726H346.646C346.646 44.7789 338.203 36.336 327.788 36.336V37.2559ZM290.533 37.2559V36.336C280.118 36.336 271.675 44.7789 271.675 55.1937H272.595H273.515C273.515 45.7949 281.134 38.1757 290.533 38.1757V37.2559Z" fill="#616161" mask="url(#path-8-inside-2_890_34872)"/>
<path d="M296.489 59.8111C293.281 59.8111 291.25 57.3532 291.25 54.3801C291.25 51.407 293.281 48.9491 296.489 48.9491C297.946 48.9491 299.256 49.5672 300.198 50.5386L299.418 51.2745C298.668 50.4945 297.637 50.0382 296.489 50.0382C293.914 50.0382 292.324 51.9663 292.324 54.3801C292.324 56.8086 293.914 58.7367 296.489 58.7367C297.637 58.7367 298.668 58.2657 299.418 57.4856L300.198 58.2215C299.256 59.1929 297.946 59.8111 296.489 59.8111ZM307.174 55.484C307.174 54.0857 306.379 53.2762 305.26 53.2762C304.098 53.2762 303.082 54.3654 303.082 55.7783V59.6934H302.022V48.7724H303.082V53.6147C303.45 52.8494 304.289 52.2459 305.304 52.2459C306.82 52.2459 308.233 53.5411 308.233 55.4251V59.6934H307.174V55.484ZM310.22 52.2018H311.28V59.6934H310.22V52.2018ZM310.073 49.4789C310.073 49.111 310.308 48.8166 310.75 48.8166C311.177 48.8166 311.412 49.111 311.412 49.4789C311.412 49.8616 311.177 50.156 310.75 50.156C310.308 50.156 310.073 49.8616 310.073 49.4789ZM316.879 58.7808C318.498 58.7808 319.411 57.5739 319.411 55.9991C319.411 54.4537 318.498 53.2468 316.879 53.2468C315.525 53.2468 314.362 54.4537 314.362 55.9991C314.362 57.5739 315.525 58.7808 316.879 58.7808ZM313.288 63.0785V52.2018H314.348V53.7914C314.833 52.7316 315.981 52.2165 316.894 52.2165C319.19 52.2165 320.47 53.968 320.47 55.9991C320.47 58.0596 319.19 59.8111 316.894 59.8111C315.952 59.8111 314.833 59.1782 314.348 58.2215V63.0785H313.288ZM322.564 57.6622C322.858 58.3393 323.55 58.7367 324.448 58.6925C325.743 58.6631 326.258 57.0588 324.934 56.632C324.448 56.4848 323.565 56.2493 322.844 55.7783C321.725 55.0277 321.74 53.9238 322.078 53.2468C322.534 52.349 323.697 52.084 324.374 52.1429C325.007 52.2165 325.89 52.4373 326.45 53.1879L325.596 53.8061C325.287 53.3792 324.786 53.2468 324.286 53.1879C323.83 53.1438 323.226 53.3057 323.005 53.7178C322.814 54.1152 322.829 54.5125 323.432 54.9099C324.006 55.2926 324.742 55.4692 325.257 55.6459C327.73 56.4406 326.935 59.6786 324.477 59.7375C323.241 59.7964 322.063 59.1488 321.607 58.0744L322.564 57.6622Z" fill="#2A2A2A"/>
<mask id="path-11-inside-3_890_34872" fill="white">
<path d="M411.958 55.1937C411.958 45.2869 419.989 37.2559 429.896 37.2559H465.771C475.678 37.2559 483.709 45.2869 483.709 55.1937C483.709 65.1005 475.678 73.1315 465.771 73.1315H429.896C419.989 73.1315 411.958 65.1005 411.958 55.1937Z"/>
</mask>
<path d="M411.958 55.1937C411.958 45.2869 419.989 37.2559 429.896 37.2559H465.771C475.678 37.2559 483.709 45.2869 483.709 55.1937C483.709 65.1005 475.678 73.1315 465.771 73.1315H429.896C419.989 73.1315 411.958 65.1005 411.958 55.1937Z" fill="#EEEEEE"/>
<path d="M429.896 37.2559V38.1757H465.771V37.2559V36.336H429.896V37.2559ZM465.771 73.1315V72.2116H429.896V73.1315V74.0514H465.771V73.1315ZM429.896 73.1315V72.2116C420.497 72.2116 412.878 64.5924 412.878 55.1937H411.958H411.038C411.038 65.6085 419.481 74.0514 429.896 74.0514V73.1315ZM483.709 55.1937H482.789C482.789 64.5924 475.17 72.2116 465.771 72.2116V73.1315V74.0514C476.186 74.0514 484.629 65.6085 484.629 55.1937H483.709ZM465.771 37.2559V38.1757C475.17 38.1757 482.789 45.7949 482.789 55.1937H483.709H484.629C484.629 44.7789 476.186 36.336 465.771 36.336V37.2559ZM429.896 37.2559V36.336C419.481 36.336 411.038 44.7789 411.038 55.1937H411.958H412.878C412.878 45.7949 420.497 38.1757 429.896 38.1757V37.2559Z" fill="#BDBDBD" mask="url(#path-11-inside-3_890_34872)"/>
<path d="M435.163 59.8111C431.954 59.8111 429.923 57.3532 429.923 54.3801C429.923 51.407 431.954 48.9491 435.163 48.9491C436.62 48.9491 437.93 49.5672 438.872 50.5386L438.091 51.2745C437.341 50.4945 436.311 50.0382 435.163 50.0382C432.587 50.0382 430.997 51.9663 430.997 54.3801C430.997 56.8086 432.587 58.7367 435.163 58.7367C436.311 58.7367 437.341 58.2657 438.091 57.4856L438.872 58.2215C437.93 59.1929 436.62 59.8111 435.163 59.8111ZM445.847 55.484C445.847 54.0857 445.052 53.2762 443.934 53.2762C442.771 53.2762 441.755 54.3654 441.755 55.7783V59.6934H440.696V48.7724H441.755V53.6147C442.123 52.8494 442.962 52.2459 443.978 52.2459C445.494 52.2459 446.907 53.5411 446.907 55.4251V59.6934H445.847V55.484ZM448.893 52.2018H449.953V59.6934H448.893V52.2018ZM448.746 49.4789C448.746 49.111 448.982 48.8166 449.423 48.8166C449.85 48.8166 450.086 49.111 450.086 49.4789C450.086 49.8616 449.85 50.156 449.423 50.156C448.982 50.156 448.746 49.8616 448.746 49.4789ZM455.553 58.7808C457.172 58.7808 458.084 57.5739 458.084 55.9991C458.084 54.4537 457.172 53.2468 455.553 53.2468C454.199 53.2468 453.036 54.4537 453.036 55.9991C453.036 57.5739 454.199 58.7808 455.553 58.7808ZM451.961 63.0785V52.2018H453.021V53.7914C453.507 52.7316 454.655 52.2165 455.567 52.2165C457.863 52.2165 459.144 53.968 459.144 55.9991C459.144 58.0596 457.863 59.8111 455.567 59.8111C454.625 59.8111 453.507 59.1782 453.021 58.2215V63.0785H451.961ZM461.237 57.6622C461.532 58.3393 462.223 58.7367 463.121 58.6925C464.416 58.6631 464.932 57.0588 463.607 56.632C463.121 56.4848 462.238 56.2493 461.517 55.7783C460.398 55.0277 460.413 53.9238 460.752 53.2468C461.208 52.349 462.371 52.084 463.048 52.1429C463.68 52.2165 464.564 52.4373 465.123 53.1879L464.269 53.8061C463.96 53.3792 463.46 53.2468 462.959 53.1879C462.503 53.1438 461.9 53.3057 461.679 53.7178C461.487 54.1152 461.502 54.5125 462.106 54.9099C462.68 55.2926 463.416 55.4692 463.931 55.6459C466.403 56.4406 465.609 59.6786 463.151 59.7375C461.914 59.7964 460.737 59.1488 460.281 58.0744L461.237 57.6622Z" fill="#BDBDBD"/>
<path d="M16.7333 109.685C17.1886 110.692 18.1407 111.285 19.4101 111.258C21.5627 111.189 22.1422 108.429 20.0863 107.877C19.4239 107.629 18.3339 107.325 17.3818 106.677C16.002 105.725 16.0158 104.331 16.4297 103.448C16.9816 102.289 18.4581 101.958 19.286 102.027C20.1001 102.082 21.2039 102.413 21.88 103.393L21.0521 103.945C20.5968 103.296 19.8931 103.075 19.2032 103.02C18.5822 102.992 17.6854 103.186 17.3404 103.862C17.0644 104.496 17.0644 105.228 17.9337 105.849C18.7478 106.414 19.7275 106.69 20.4174 106.939C23.5358 107.891 22.6527 112.155 19.4377 112.251C17.8509 112.306 16.4021 111.465 15.8226 110.071L16.7333 109.685ZM28.8569 108.125C28.7465 107.132 28.2636 106.069 26.7734 106.069C25.4625 106.069 24.6208 106.773 24.4415 108.139L28.8569 108.125ZM23.4204 108.622C23.4204 106.69 24.5794 105.076 26.732 105.076C28.9673 105.076 29.533 106.815 29.602 106.98C30.016 108.112 29.8504 109.105 29.8504 109.105H24.4415C24.6208 110.402 25.4625 111.175 26.7458 111.175C28.3326 111.175 28.7189 110.306 28.8155 110.168L29.671 110.623C29.671 110.623 29.0915 112.168 26.732 112.168C24.5794 112.168 23.4204 110.54 23.4204 108.622ZM30.8944 101.889H31.8879V112.127H30.8944V101.889ZM38.3271 108.125C38.2167 107.132 37.7338 106.069 36.2436 106.069C34.9327 106.069 34.091 106.773 33.9116 108.139L38.3271 108.125ZM32.8906 108.622C32.8906 106.69 34.0496 105.076 36.2022 105.076C38.4375 105.076 39.0032 106.815 39.0722 106.98C39.4862 108.112 39.3206 109.105 39.3206 109.105H33.9116C34.091 110.402 34.9327 111.175 36.216 111.175C37.8028 111.175 38.1891 110.306 38.2857 110.168L39.1412 110.623C39.1412 110.623 38.5617 112.168 36.2022 112.168C34.0496 112.168 32.8906 110.54 32.8906 108.622ZM43.4416 111.202C44.1592 111.202 44.8215 110.926 45.2906 110.457L46.0357 111.12C45.3734 111.782 44.4903 112.196 43.4968 112.196C41.2339 112.196 39.9231 110.526 39.9231 108.498C39.9231 106.483 41.2339 104.814 43.4968 104.814C44.4903 104.814 45.3734 105.228 46.0357 105.89L45.2906 106.552C44.8215 106.083 44.1592 105.807 43.4416 105.807C41.8134 105.807 40.9165 107.008 40.9165 108.498C40.9165 110.002 41.8134 111.202 43.4416 111.202ZM50.5362 111.975C50.2879 112.03 49.9153 112.099 49.5152 112.099C48.4665 112.099 47.6248 111.258 47.6248 110.223V106.014H46.4795V105.048H47.6248V102.882H48.6183V105.048H50.2603V106.014H48.6183V110.223C48.6183 110.775 48.9494 111.106 49.5152 111.106C49.8325 111.106 50.0947 111.064 50.3155 111.009L50.5362 111.975ZM56.5748 108.125C56.4644 107.132 55.9815 106.069 54.4913 106.069C53.1804 106.069 52.3388 106.773 52.1594 108.139L56.5748 108.125ZM51.1383 108.622C51.1383 106.69 52.2974 105.076 54.4499 105.076C56.6852 105.076 57.251 106.815 57.3199 106.98C57.7339 108.112 57.5683 109.105 57.5683 109.105H52.1594C52.3388 110.402 53.1804 111.175 54.4637 111.175C56.0505 111.175 56.4369 110.306 56.5334 110.168L57.3889 110.623C57.3889 110.623 56.8094 112.168 54.4499 112.168C52.2974 112.168 51.1383 110.54 51.1383 108.622ZM61.8136 112.237C59.6748 112.237 58.4606 110.595 58.4606 108.664C58.4606 106.746 59.6748 105.09 61.8136 105.09C62.7105 105.09 63.6487 105.545 64.2283 106.594V101.889H65.2217V112.127H64.2283V110.733C63.6349 111.782 62.7105 112.237 61.8136 112.237ZM59.454 108.664C59.454 110.14 60.2957 111.244 61.855 111.244C63.1244 111.244 64.2283 110.14 64.2283 108.664C64.2283 107.201 63.1244 106.083 61.855 106.083C60.2957 106.083 59.454 107.201 59.454 108.664Z" fill="#616161"/>
<mask id="path-15-inside-4_890_34872" fill="white">
<path d="M132.464 107.627C132.464 97.7205 140.495 89.6895 150.402 89.6895H189.037C198.944 89.6895 206.975 97.7205 206.975 107.627C206.975 117.534 198.944 125.565 189.037 125.565H150.402C140.495 125.565 132.464 117.534 132.464 107.627Z"/>
</mask>
<path d="M132.464 107.627C132.464 97.7205 140.495 89.6895 150.402 89.6895H189.037C198.944 89.6895 206.975 97.7205 206.975 107.627C206.975 117.534 198.944 125.565 189.037 125.565H150.402C140.495 125.565 132.464 117.534 132.464 107.627Z" fill="#FF8120"/>
<path d="M150.402 89.6895V90.6093H189.037V89.6895V88.7696H150.402V89.6895ZM189.037 125.565V124.645H150.402V125.565V126.485H189.037V125.565ZM150.402 125.565V124.645C141.003 124.645 133.384 117.026 133.384 107.627H132.464H131.544C131.544 118.042 139.987 126.485 150.402 126.485V125.565ZM206.975 107.627H206.055C206.055 117.026 198.436 124.645 189.037 124.645V125.565V126.485C199.452 126.485 207.895 118.042 207.895 107.627H206.975ZM189.037 89.6895V90.6093C198.436 90.6093 206.055 98.2285 206.055 107.627H206.975H207.895C207.895 97.2124 199.452 88.7696 189.037 88.7696V89.6895ZM150.402 89.6895V88.7696C139.987 88.7696 131.544 97.2124 131.544 107.627H132.464H133.384C133.384 98.2285 141.003 90.6093 150.402 90.6093V89.6895Z" fill="#EE6002" mask="url(#path-15-inside-4_890_34872)"/>
<path d="M156.533 112.348C153.266 112.348 151.191 109.846 151.191 106.814C151.191 103.782 153.266 101.265 156.533 101.28C158.02 101.28 159.359 101.913 160.316 102.899L159.271 104.032C158.609 103.325 157.622 102.825 156.533 102.825C154.178 102.825 152.736 104.577 152.736 106.814C152.736 109.066 154.178 110.817 156.533 110.817C157.696 110.817 158.535 110.361 159.241 109.64L160.316 110.729C159.359 111.715 158.093 112.362 156.533 112.348ZM167.234 108.124C167.234 106.976 166.763 106.137 165.527 106.137C164.393 106.137 163.495 107.152 163.495 108.3V112.259H161.965V101.088H163.495V105.754C163.966 105.033 164.879 104.621 165.556 104.621C167.499 104.621 168.765 106.122 168.765 107.947V112.259H167.234V108.124ZM170.595 104.518H172.126V112.259H170.595V104.518ZM170.477 101.751C170.477 101.265 170.786 100.882 171.36 100.882C171.905 100.882 172.214 101.265 172.214 101.751C172.214 102.236 171.905 102.619 171.36 102.619C170.786 102.619 170.477 102.236 170.477 101.751ZM177.92 110.802C179.348 110.802 180.142 109.801 180.142 108.403C180.142 107.02 179.348 106.034 177.92 106.034C176.713 106.034 175.624 106.961 175.624 108.403C175.624 109.86 176.713 110.802 177.92 110.802ZM174.078 115.571V104.518H175.609V105.857C176.139 104.886 177.361 104.532 178.008 104.532C180.29 104.532 181.673 106.313 181.673 108.403C181.673 110.508 180.29 112.304 178.008 112.304C177.346 112.304 176.139 111.906 175.609 110.949V115.571H174.078ZM184.098 109.963C184.348 110.537 184.893 110.817 185.644 110.802C186.747 110.758 187.086 109.61 186.041 109.301C185.57 109.154 184.76 108.933 184.01 108.447C182.832 107.682 182.773 106.49 183.171 105.68C183.657 104.753 184.849 104.415 185.644 104.488C186.409 104.547 187.292 104.841 187.851 105.592L186.615 106.49C186.365 106.137 185.982 106.004 185.511 105.975C185.114 105.945 184.702 106.063 184.54 106.357C184.407 106.637 184.437 106.917 184.849 107.182C185.379 107.52 186.056 107.697 186.571 107.873C189.205 108.727 188.425 112.245 185.747 112.318C184.378 112.377 183.186 111.671 182.715 110.582L184.098 109.963Z" fill="white"/>
<mask id="path-18-inside-5_890_34872" fill="white">
<path d="M273.207 107.627C273.207 97.7205 281.238 89.6895 291.145 89.6895H328.4C338.307 89.6895 346.338 97.7205 346.338 107.627C346.338 117.534 338.307 125.565 328.4 125.565H291.145C281.238 125.565 273.207 117.534 273.207 107.627Z"/>
</mask>
<path d="M273.207 107.627C273.207 97.7205 281.238 89.6895 291.145 89.6895H328.4C338.307 89.6895 346.338 97.7205 346.338 107.627C346.338 117.534 338.307 125.565 328.4 125.565H291.145C281.238 125.565 273.207 117.534 273.207 107.627Z" fill="#EE6002"/>
<path d="M291.145 89.6895V90.6093H328.4V89.6895V88.7696H291.145V89.6895ZM328.4 125.565V124.645H291.145V125.565V126.485H328.4V125.565ZM291.145 125.565V124.645C281.746 124.645 274.127 117.026 274.127 107.627H273.207H272.287C272.287 118.042 280.73 126.485 291.145 126.485V125.565ZM346.338 107.627H345.418C345.418 117.026 337.799 124.645 328.4 124.645V125.565V126.485C338.815 126.485 347.258 118.042 347.258 107.627H346.338ZM328.4 89.6895V90.6093C337.799 90.6093 345.418 98.2285 345.418 107.627H346.338H347.258C347.258 97.2124 338.815 88.7696 328.4 88.7696V89.6895ZM291.145 89.6895V88.7696C280.73 88.7696 272.287 97.2124 272.287 107.627H273.207H274.127C274.127 98.2285 281.746 90.6093 291.145 90.6093V89.6895Z" fill="#EE6002" mask="url(#path-18-inside-5_890_34872)"/>
<path d="M296.586 112.348C293.319 112.348 291.244 109.846 291.244 106.814C291.244 103.782 293.319 101.265 296.586 101.28C298.073 101.28 299.412 101.913 300.369 102.899L299.324 104.032C298.662 103.325 297.675 102.825 296.586 102.825C294.231 102.825 292.789 104.577 292.789 106.814C292.789 109.066 294.231 110.817 296.586 110.817C297.749 110.817 298.588 110.361 299.294 109.64L300.369 110.729C299.412 111.715 298.146 112.362 296.586 112.348ZM307.287 108.124C307.287 106.976 306.816 106.137 305.579 106.137C304.446 106.137 303.548 107.152 303.548 108.3V112.259H302.018V101.088H303.548V105.754C304.019 105.033 304.932 104.621 305.609 104.621C307.552 104.621 308.818 106.122 308.818 107.947V112.259H307.287V108.124ZM310.648 104.518H312.179V112.259H310.648V104.518ZM310.53 101.751C310.53 101.265 310.839 100.882 311.413 100.882C311.958 100.882 312.267 101.265 312.267 101.751C312.267 102.236 311.958 102.619 311.413 102.619C310.839 102.619 310.53 102.236 310.53 101.751ZM317.973 110.802C319.401 110.802 320.195 109.801 320.195 108.403C320.195 107.02 319.401 106.034 317.973 106.034C316.766 106.034 315.677 106.961 315.677 108.403C315.677 109.86 316.766 110.802 317.973 110.802ZM314.131 115.571V104.518H315.662V105.857C316.192 104.886 317.414 104.532 318.061 104.532C320.343 104.532 321.726 106.313 321.726 108.403C321.726 110.508 320.343 112.304 318.061 112.304C317.399 112.304 316.192 111.906 315.662 110.949V115.571H314.131ZM324.151 109.963C324.401 110.537 324.946 110.817 325.697 110.802C326.8 110.758 327.139 109.61 326.094 109.301C325.623 109.154 324.813 108.933 324.063 108.447C322.885 107.682 322.826 106.49 323.224 105.68C323.71 104.753 324.902 104.415 325.697 104.488C326.462 104.547 327.345 104.841 327.904 105.592L326.668 106.49C326.418 106.137 326.035 106.004 325.564 105.975C325.167 105.945 324.755 106.063 324.593 106.357C324.46 106.637 324.49 106.917 324.902 107.182C325.432 107.52 326.109 107.697 326.624 107.873C329.258 108.727 328.478 112.245 325.8 112.318C324.431 112.377 323.239 111.671 322.768 110.582L324.151 109.963Z" fill="white"/>
<mask id="path-21-inside-6_890_34872" fill="white">
<path d="M412.57 107.627C412.57 97.7205 420.601 89.6895 430.508 89.6895H469.143C479.05 89.6895 487.081 97.7205 487.081 107.627C487.081 117.534 479.05 125.565 469.143 125.565H430.508C420.601 125.565 412.57 117.534 412.57 107.627Z"/>
</mask>
<path d="M412.57 107.627C412.57 97.7205 420.601 89.6895 430.508 89.6895H469.143C479.05 89.6895 487.081 97.7205 487.081 107.627C487.081 117.534 479.05 125.565 469.143 125.565H430.508C420.601 125.565 412.57 117.534 412.57 107.627Z" fill="#EEEEEE"/>
<path d="M430.508 89.6895V90.6093H469.143V89.6895V88.7696H430.508V89.6895ZM469.143 125.565V124.645H430.508V125.565V126.485H469.143V125.565ZM430.508 125.565V124.645C421.109 124.645 413.49 117.026 413.49 107.627H412.57H411.65C411.65 118.042 420.093 126.485 430.508 126.485V125.565ZM487.081 107.627H486.161C486.161 117.026 478.542 124.645 469.143 124.645V125.565V126.485C479.558 126.485 488.001 118.042 488.001 107.627H487.081ZM469.143 89.6895V90.6093C478.542 90.6093 486.161 98.2285 486.161 107.627H487.081H488.001C488.001 97.2124 479.558 88.7696 469.143 88.7696V89.6895ZM430.508 89.6895V88.7696C420.093 88.7696 411.65 97.2124 411.65 107.627H412.57H413.49C413.49 98.2285 421.109 90.6093 430.508 90.6093V89.6895Z" fill="#BDBDBD" mask="url(#path-21-inside-6_890_34872)"/>
<path d="M436.639 112.348C433.372 112.348 431.297 109.846 431.297 106.814C431.297 103.782 433.372 101.265 436.639 101.28C438.126 101.28 439.465 101.913 440.422 102.899L439.377 104.032C438.715 103.325 437.728 102.825 436.639 102.825C434.284 102.825 432.842 104.577 432.842 106.814C432.842 109.066 434.284 110.817 436.639 110.817C437.802 110.817 438.641 110.361 439.347 109.64L440.422 110.729C439.465 111.715 438.199 112.362 436.639 112.348ZM447.34 108.124C447.34 106.976 446.869 106.137 445.632 106.137C444.499 106.137 443.601 107.152 443.601 108.3V112.259H442.071V101.088H443.601V105.754C444.072 105.033 444.985 104.621 445.662 104.621C447.605 104.621 448.87 106.122 448.87 107.947V112.259H447.34V108.124ZM450.701 104.518H452.232V112.259H450.701V104.518ZM450.583 101.751C450.583 101.265 450.892 100.882 451.466 100.882C452.011 100.882 452.32 101.265 452.32 101.751C452.32 102.236 452.011 102.619 451.466 102.619C450.892 102.619 450.583 102.236 450.583 101.751ZM458.026 110.802C459.454 110.802 460.248 109.801 460.248 108.403C460.248 107.02 459.454 106.034 458.026 106.034C456.819 106.034 455.73 106.961 455.73 108.403C455.73 109.86 456.819 110.802 458.026 110.802ZM454.184 115.571V104.518H455.715V105.857C456.245 104.886 457.467 104.532 458.114 104.532C460.396 104.532 461.779 106.313 461.779 108.403C461.779 110.508 460.396 112.304 458.114 112.304C457.452 112.304 456.245 111.906 455.715 110.949V115.571H454.184ZM464.204 109.963C464.454 110.537 464.999 110.817 465.75 110.802C466.853 110.758 467.192 109.61 466.147 109.301C465.676 109.154 464.866 108.933 464.116 108.447C462.938 107.682 462.879 106.49 463.277 105.68C463.763 104.753 464.955 104.415 465.75 104.488C466.515 104.547 467.398 104.841 467.957 105.592L466.721 106.49C466.471 106.137 466.088 106.004 465.617 105.975C465.22 105.945 464.808 106.063 464.646 106.357C464.513 106.637 464.543 106.917 464.955 107.182C465.485 107.52 466.162 107.697 466.677 107.873C469.311 108.727 468.531 112.245 465.853 112.318C464.484 112.377 463.292 111.671 462.821 110.582L464.204 109.963Z" fill="#BDBDBD"/>
</svg>
