<svg width="251" height="291" viewBox="0 0 251 291" fill="none" xmlns="http://www.w3.org/2000/svg">
<g filter="url(#filter0_dd_1099_78743)">
<g clip-path="url(#clip0_1099_78743)">
<path d="M11 28.1017C11 15.9087 20.8843 6.02441 33.0773 6.02441H218.187C230.38 6.02441 240.264 15.9088 240.264 28.1017V309.587H11V28.1017Z" fill="white"/>
<rect width="203.791" height="178.317" transform="translate(23.7373 26.4033)" fill="white"/>
<rect width="203.791" height="20.3791" transform="translate(23.7373 26.4033)" fill="white"/>
<path d="M24.1321 36.7161H28.4882V35.7354H25.4568V31.3539H27.0107V32.3856H31.5705V31.3539H33.1371V35.7354H30.0675V36.7161H34.449V37.9898H24.1321V36.7161ZM25.2785 40.0532V38.805H33.2008V42.4732H31.6342V40.0532H25.2785ZM27.0107 34.4999H31.5705V33.5574H27.0107V34.4999ZM35.5256 32.1563H41.9195V33.4555H39.525V34.1815C39.525 36.0411 40.5057 38.0026 42.3781 38.7923L41.512 40.0405C40.2001 39.4673 39.2703 38.321 38.7608 36.9454C38.2513 38.4484 37.3088 39.7093 35.9714 40.3207L35.0798 39.0725C36.9521 38.2191 37.9329 36.1175 37.9329 34.1815V33.4555H35.5256V32.1563ZM43.0277 42.4732V31.0609H44.607V42.4732H43.0277ZM46.2058 36.4869H48.5494V35.0985C47.7088 34.7292 47.2375 34.156 47.2375 33.4173C47.2375 32.0544 48.8551 31.2265 51.3643 31.2265C53.8862 31.2265 55.491 32.0544 55.491 33.4173C55.491 34.1688 55.007 34.7419 54.1536 35.1113V36.4869H56.5227V37.7351H46.2058V36.4869ZM47.3903 40.3971C47.3903 39.0979 48.8806 38.3465 51.3388 38.3465C53.8098 38.3465 55.3 39.0979 55.3 40.3971C55.3 41.7345 53.8098 42.4732 51.3388 42.4732C48.8806 42.4732 47.3903 41.7345 47.3903 40.3971ZM48.8678 33.4173C48.8678 34.0669 49.7722 34.398 51.3643 34.398C52.9436 34.398 53.8607 34.0669 53.8607 33.4173C53.8607 32.7677 52.9436 32.4238 51.3643 32.4238C49.7722 32.4238 48.8678 32.7677 48.8678 33.4173ZM48.9825 40.3971C48.9825 40.9957 49.7849 41.2887 51.3388 41.2887C52.9054 41.2887 53.7079 40.9957 53.7079 40.3971C53.7079 39.8112 52.9054 39.531 51.3388 39.531C49.7849 39.531 48.9825 39.8112 48.9825 40.3971ZM50.116 36.4869H52.587V35.5061C52.2049 35.5571 51.7973 35.5826 51.3643 35.5826C50.9185 35.5826 50.4982 35.5571 50.116 35.5061V36.4869ZM58.4399 31.7233H66.3495V32.7422C66.3495 33.8121 66.3495 34.9839 66.0566 36.5888H67.5723V37.8752H63.1526V42.486H61.5605V37.8752H57.2554V36.5888H64.4772C64.7702 35.1113 64.7956 33.9777 64.7956 32.9842H58.4399V31.7233ZM75.6796 31.0609H77.259V34.3471H78.8002V35.6462H77.259V39.4546H75.6796V31.0609ZM68.6871 32.997V31.7487H73.8965V35.3151H70.2792V36.5506C72.1515 36.5378 73.4252 36.4741 74.8645 36.2067L75.0173 37.4676C73.3997 37.7606 71.935 37.8242 69.6678 37.8242H68.6998V34.1305H72.3426V32.997H68.6871ZM69.9608 42.2567V38.7923H71.5529V40.9957H77.6921V42.2567H69.9608ZM82.2713 41.76C81.7109 41.76 81.4052 41.3778 81.4052 40.8938C81.4052 40.4226 81.7109 40.0405 82.2713 40.0405C82.8317 40.0405 83.1246 40.4226 83.1246 40.8938C83.1246 41.3778 82.8317 41.76 82.2713 41.76ZM79.4055 33.6083C79.8895 32.3092 81.0358 31.4048 82.4623 31.4048C84.0927 31.4048 85.5956 32.7804 85.5192 34.4362C85.4682 35.3533 84.997 36.2449 83.7488 37.1874C83.1246 37.6459 83.01 37.8879 83.0228 38.805L81.4816 38.8305C81.4688 37.4804 81.8637 36.6652 82.8317 35.9392C83.7488 35.2641 83.9525 34.882 83.978 34.3598C84.0162 33.481 83.3284 32.9333 82.4623 32.9333C81.6344 32.9333 81.1504 33.3281 80.8447 34.1433L79.4055 33.6083Z" fill="#333333"/>
<path d="M222.404 30.2627C222.586 30.1352 222.839 30.149 223.007 30.3076C223.174 30.4664 223.201 30.7177 223.084 30.9063L223.024 30.9824L217.994 36.291L223.024 41.5996L223.084 41.6758C223.201 41.8644 223.174 42.1157 223.007 42.2744C222.839 42.4331 222.586 42.4469 222.404 42.3194L222.331 42.2559L217.337 36.9844L212.344 42.2559C212.162 42.4471 211.86 42.4557 211.669 42.2744C211.478 42.0931 211.469 41.7911 211.65 41.5996L216.68 36.291L211.65 30.9824L211.591 30.9063C211.474 30.7178 211.502 30.4663 211.669 30.3076C211.836 30.1491 212.089 30.1356 212.27 30.2627L212.344 30.3262L217.337 35.5967L222.331 30.3262L222.404 30.2627Z" fill="#555555"/>
<path d="M28.2882 61.145H29.1823V61.7182C29.1823 63.1396 31.0394 64.3662 32.8047 64.6298L32.4494 65.3176C30.9247 65.054 29.3887 64.1828 28.7467 62.9562C28.1163 64.2057 26.5687 65.054 25.0212 65.3176L24.6658 64.6298C26.4541 64.3662 28.2882 63.174 28.2882 61.7182V61.145ZM24.1958 67.1632V66.4525H33.2632V67.1632H29.1365V70.8085H28.2882V67.1632H24.1958ZM35.3116 66.5212H36.1599V67.8739H41.1693V66.5212H42.0176V70.6824H35.3116V66.5212ZM34.1194 65.6157V64.882H40.8942C41.1808 63.644 41.1808 62.7499 41.1808 61.9704V61.9474H35.2887V61.2367H42.0176V61.9704C42.0176 62.7384 42.0176 63.6325 41.7539 64.882H43.2098V65.6157H34.1194ZM36.1599 69.9831H41.1693V68.5502H36.1599V69.9831ZM44.2379 61.8099H49.6371V62.532H47.3903V63.8847C47.3903 65.4781 48.5595 67.2664 49.9924 67.9427L49.4995 68.6305C48.3761 68.0688 47.4247 66.8766 46.9776 65.5354C46.5191 66.9912 45.5103 68.2866 44.3984 68.8712L43.894 68.1949C45.2925 67.4956 46.5535 65.5927 46.5535 63.8847V62.532H44.2379V61.8099ZM50.8751 70.8085V60.7782H51.7348V64.8591H53.397V65.5813H51.7348V70.8085H50.8751ZM57.2107 61.5118C58.7697 61.5118 59.8816 62.4747 59.8816 63.8618C59.8816 65.2603 58.7697 66.2117 57.2107 66.2117C55.6403 66.2117 54.5283 65.2603 54.5283 63.8618C54.5283 62.4747 55.6403 61.5118 57.2107 61.5118ZM54.0125 67.8739C55.8466 67.8739 58.3914 67.8739 60.5809 67.53L60.6497 68.1605C58.3914 68.5961 55.9268 68.6076 54.1271 68.6076L54.0125 67.8739ZM55.3651 63.8618C55.3651 64.8018 56.1446 65.4666 57.2107 65.4666C58.2653 65.4666 59.0448 64.8018 59.0448 63.8618C59.0448 62.9103 58.2653 62.2569 57.2107 62.2569C56.1446 62.2569 55.3651 62.9103 55.3651 63.8618ZM61.2458 70.82V60.7667H62.1055V70.82H61.2458ZM69.2451 61.1565C70.7353 61.1565 71.8358 62.0621 71.8358 63.3689C71.8358 64.6757 70.7353 65.5698 69.2451 65.5698C67.7549 65.5698 66.6659 64.6757 66.6659 63.3689C66.6659 62.0621 67.7549 61.1565 69.2451 61.1565ZM67.5027 63.3689C67.5027 64.2515 68.2478 64.8705 69.2451 64.8705C70.2539 64.8705 70.999 64.2515 70.999 63.3689C70.999 62.4862 70.2539 61.8557 69.2451 61.8557C68.2478 61.8557 67.5027 62.4862 67.5027 63.3689ZM68.179 67.1173V66.4295H74.6443V68.8254H69.0388V69.9831H74.9882V70.6709H68.2134V68.1834H73.7845V67.1173H68.179ZM73.7731 65.9252V60.7782H74.6443V65.9252H73.7731ZM78.8363 61.294H79.6731V62.3945C79.6731 63.7701 80.7162 65.031 82.1377 65.5354L81.6906 66.2003C80.5901 65.7991 79.7075 64.9508 79.2833 63.8847C78.8592 65.0883 77.9651 66.0169 76.7958 66.4869L76.3258 65.7991C77.8275 65.2488 78.8363 63.8847 78.8363 62.3372V61.294ZM77.667 68.9744C77.667 67.8281 78.905 67.1632 80.9455 67.1632C82.9974 67.1632 84.2354 67.8281 84.2354 68.9744C84.2354 70.1207 82.9974 70.7856 80.9455 70.7856C78.905 70.7856 77.667 70.1207 77.667 68.9744ZM78.5038 68.9744C78.5038 69.6851 79.4438 70.1092 80.9455 70.1092C82.4586 70.1092 83.3872 69.6851 83.3872 68.9744C83.3872 68.2637 82.4586 67.8395 80.9455 67.8395C79.4438 67.8395 78.5038 68.2637 78.5038 68.9744ZM83.2725 66.8881V60.7782H84.1323V63.4033H85.6339V64.1254H84.1323V66.8881H83.2725ZM88.4045 61.3972H89.2298V62.7613C89.2298 63.8847 90.0093 65.0196 91.2818 65.5125L90.8347 66.1659C89.8718 65.7991 89.184 65.054 88.8286 64.1828C88.4733 65.1457 87.7511 66.0054 86.7538 66.441L86.2953 65.7761C87.6021 65.203 88.4045 63.8962 88.4045 62.7613V61.3972ZM88.095 68.9973C88.095 67.8739 89.3674 67.209 91.4308 67.209C93.4942 67.209 94.7666 67.8739 94.7666 68.9973C94.7666 70.1322 93.4942 70.7856 91.4308 70.7856C89.3674 70.7856 88.095 70.1322 88.095 68.9973ZM88.9433 68.9973C88.9433 69.6966 89.8947 70.1207 91.4308 70.1207C92.9669 70.1207 93.9068 69.6966 93.9068 68.9973C93.9068 68.298 92.9669 67.8854 91.4308 67.8854C89.8947 67.8854 88.9433 68.298 88.9433 68.9973ZM91.7403 66.6588V60.9845H92.5542V63.495H93.8954V60.7896H94.7207V66.9798H93.8954V64.2057H92.5542V66.6588H91.7403ZM103.097 60.7782H103.957V63.3689H105.458V64.091H103.957V66.6932H103.097V60.7782ZM96.1615 65.8105C96.964 65.8105 97.9039 65.8105 98.8783 65.7761V65.1342C97.7091 65.0425 96.9754 64.584 96.9754 63.8274C96.9754 63.002 97.881 62.5091 99.291 62.5091C100.712 62.5091 101.618 63.002 101.618 63.8274C101.618 64.5725 100.896 65.0425 99.7266 65.1342V65.7532C100.667 65.7074 101.607 65.6386 102.489 65.5125L102.547 66.0627C100.414 66.4295 98.0186 66.4525 96.2647 66.4525L96.1615 65.8105ZM96.4137 62.1767V61.5462H98.8783V60.675H99.7266V61.5462H102.18V62.1767H96.4137ZM97.5027 67.7707V67.1632H103.957V69.1578H98.3625V70.0748H104.346V70.6939H97.5257V68.5846H103.12V67.7707H97.5027ZM97.7893 63.8274C97.7893 64.2859 98.3739 64.5725 99.291 64.5725C100.22 64.5725 100.804 64.2859 100.804 63.8274C100.804 63.3689 100.22 63.0823 99.291 63.0823C98.3739 63.0823 97.7893 63.3689 97.7893 63.8274ZM106.59 61.8786H111.633V62.3945C111.633 63.1969 111.633 64.5152 111.347 66.3952L110.498 66.3264C110.774 64.6298 110.797 63.3918 110.797 62.5894H106.59V61.8786ZM106.028 67.8739C106.681 67.8739 107.415 67.8624 108.183 67.851V64.7559H109.031V67.8281C110.143 67.7822 111.278 67.7134 112.31 67.5873L112.356 68.2178C110.269 68.5502 107.919 68.5961 106.142 68.5961L106.028 67.8739ZM112.94 70.8085V60.7782H113.788V64.9966H115.428V65.7188H113.788V70.8085H112.94ZM125.937 60.7896H126.797V68.1261H125.937V60.7896ZM118.716 65.9939C120.206 65.4093 121.238 63.942 121.238 62.3601V61.3284H122.097V62.3601C122.097 63.8847 123.14 65.2603 124.619 65.8105L124.161 66.4983C123.014 66.0513 122.12 65.1227 121.685 63.965C121.26 65.203 120.355 66.2003 119.174 66.6817L118.716 65.9939ZM120.389 70.5792V67.4612H121.249V69.8685H127.118V70.5792H120.389ZM132.605 64.7559H134.187V61.0189H134.99V70.2812H134.187V65.4666H132.605V64.7559ZM128.444 68.0802C129.797 67.2893 130.599 65.5239 130.599 63.8732V63.3574H128.708V62.6467H130.599V61.1335H131.425V62.6467H133.293V63.3574H131.425V63.8732C131.425 65.4781 132.25 67.1403 133.591 67.8739L133.098 68.5159C132.113 67.9656 131.39 66.9225 131.024 65.7074C130.668 67.0027 129.946 68.1376 128.949 68.7451L128.444 68.0802ZM136.193 70.8085V60.7782H137.019V70.8085H136.193ZM145.338 60.7782H146.197V63.3689H147.699V64.091H146.197V66.6932H145.338V60.7782ZM138.402 65.8105C139.205 65.8105 140.145 65.8105 141.119 65.7761V65.1342C139.95 65.0425 139.216 64.584 139.216 63.8274C139.216 63.002 140.122 62.5091 141.532 62.5091C142.953 62.5091 143.859 63.002 143.859 63.8274C143.859 64.5725 143.137 65.0425 141.967 65.1342V65.7532C142.907 65.7074 143.847 65.6386 144.73 65.5125L144.787 66.0627C142.655 66.4295 140.259 66.4525 138.505 66.4525L138.402 65.8105ZM138.655 62.1767V61.5462H141.119V60.675H141.967V61.5462H144.421V62.1767H138.655ZM139.744 67.7707V67.1632H146.197V69.1578H140.603V70.0748H146.587V70.6939H139.766V68.5846H145.36V67.7707H139.744ZM140.03 63.8274C140.03 64.2859 140.615 64.5725 141.532 64.5725C142.46 64.5725 143.045 64.2859 143.045 63.8274C143.045 63.3689 142.46 63.0823 141.532 63.0823C140.615 63.0823 140.03 63.3689 140.03 63.8274ZM148.383 65.7532H152.476V64.5725H149.53V61.2482H156.304V61.9474H150.378V63.8618H156.373V64.5725H153.324V65.7532H157.439V66.4525H148.383V65.7532ZM149.472 68.9973C149.472 67.851 150.756 67.1976 152.9 67.1976C155.032 67.1976 156.327 67.851 156.327 68.9973C156.327 70.1551 155.032 70.797 152.9 70.797C150.756 70.797 149.472 70.1551 149.472 68.9973ZM150.332 68.9973C150.332 69.7195 151.306 70.1207 152.9 70.1207C154.493 70.1207 155.456 69.7195 155.456 68.9973C155.456 68.2866 154.493 67.8739 152.9 67.8739C151.306 67.8739 150.332 68.2866 150.332 68.9973ZM161.151 61.8099H166.757V62.532H164.372V63.8847C164.372 65.5927 165.633 67.3122 167.078 67.9427L166.585 68.6305C165.439 68.0917 164.418 66.9225 163.948 65.5354C163.49 67.0142 162.481 68.298 161.335 68.8712L160.842 68.1949C162.252 67.5071 163.513 65.6157 163.513 63.8847V62.532H161.151V61.8099ZM168.155 70.8085V60.7782H169.015V70.8085H168.155ZM178.079 60.7782H178.939V68.4127H178.079V67.3466H176.027V66.7161H178.079V60.7782ZM170.697 65.4322C172.554 65.4322 175.041 65.4093 177.185 65.1457L177.242 65.7647C176.348 65.9137 175.408 66.0054 174.491 66.0513V68.0459H173.631V66.0971C172.622 66.143 171.659 66.1544 170.823 66.1544L170.697 65.4322ZM171.499 62.9333C171.499 61.8786 172.496 61.1909 173.964 61.1909C175.431 61.1909 176.428 61.8786 176.428 62.9333C176.428 63.9993 175.431 64.6757 173.964 64.6757C172.496 64.6757 171.499 63.9993 171.499 62.9333ZM172.141 70.5792V67.6676H173.001V69.8685H179.191V70.5792H172.141ZM172.313 62.9333C172.313 63.5981 173.001 64.0223 173.964 64.0223C174.938 64.0223 175.603 63.5981 175.603 62.9333C175.603 62.2684 174.938 61.8328 173.964 61.8328C173.001 61.8328 172.313 62.2684 172.313 62.9333ZM183.774 61.4316H188.417V65.5125H183.774V61.4316ZM184.496 70.1092C186.193 69.9029 187.855 68.94 187.855 67.9198H184.897V67.2434H187.855V66.2576H188.726V67.2434H191.684V67.9198H188.726C188.726 68.9171 190.354 69.8914 192.028 70.1092L191.741 70.7741C190.251 70.5678 188.875 69.8456 188.291 68.9056C187.683 69.857 186.285 70.5678 184.794 70.7741L184.496 70.1092ZM184.599 64.8247H187.591V62.1194H184.599V64.8247ZM190.583 66.5442V60.7782H191.443V66.5442H190.583ZM203.042 60.7896H203.913V68.1146H203.042V60.7896ZM195.935 63.9535C195.935 62.4977 197.058 61.4889 198.537 61.4889C200.027 61.4889 201.139 62.4977 201.139 63.9535C201.139 65.3864 200.027 66.4066 198.537 66.4066C197.058 66.4066 195.935 65.3864 195.935 63.9535ZM196.771 63.9535C196.771 64.9393 197.539 65.65 198.537 65.65C199.545 65.65 200.314 64.9393 200.314 63.9535C200.314 62.9447 199.545 62.234 198.537 62.234C197.539 62.234 196.771 62.9447 196.771 63.9535ZM197.505 70.5792V67.3695H198.353V69.8685H204.222V70.5792H197.505ZM205.938 61.8099H211.544V62.532H209.16V63.8847C209.16 65.5927 210.421 67.3122 211.865 67.9427L211.372 68.6305C210.226 68.0917 209.205 66.9225 208.735 65.5354C208.277 67.0142 207.268 68.298 206.122 68.8712L205.629 68.1949C207.039 67.5071 208.3 65.6157 208.3 63.8847V62.532H205.938V61.8099ZM212.942 70.8085V60.7782H213.802V70.8085H212.942ZM222.9 60.7782H223.76V70.8085H222.9V60.7782ZM215.679 68.2293C218.384 66.9339 219.748 64.9737 219.931 62.5664H216.126V61.8557H220.803C220.803 64.7445 219.473 67.2893 216.137 68.9171L215.679 68.2293ZM25.4453 77.9845H26.2936V80.5981H32.2316V81.3088H25.4453V77.9845ZM24.2073 83.2117V82.501H33.2632V83.2117H24.2073ZM25.2963 85.9515C25.2963 84.7937 26.5802 84.1403 28.7238 84.1403C30.856 84.1403 32.1513 84.7937 32.1513 85.9515C32.1513 87.1092 30.856 87.7741 28.7238 87.7741C26.5802 87.7741 25.2963 87.1092 25.2963 85.9515ZM26.156 85.9515C26.156 86.6736 27.1304 87.0863 28.7238 87.0863C30.3172 87.0863 31.2801 86.6736 31.2801 85.9515C31.2801 85.2293 30.3172 84.8166 28.7238 84.8166C27.1304 84.8166 26.156 85.2293 26.156 85.9515ZM36.6658 83.4983H45.7562V84.2205H43.3489V87.8085H42.4777V84.2205H39.9099V87.8085H39.0272V84.2205H36.6658V83.4983ZM37.686 80.3689C37.686 79.0277 39.096 78.2023 41.1823 78.2023C43.2801 78.2023 44.6786 79.0277 44.6786 80.3689C44.6786 81.7101 43.2801 82.5469 41.1823 82.5469C39.096 82.5469 37.686 81.7101 37.686 80.3689ZM38.5687 80.3689C38.5687 81.2745 39.6233 81.8476 41.1823 81.8476C42.7413 81.8476 43.8074 81.2745 43.8074 80.3689C43.8074 79.4747 42.7413 78.8901 41.1823 78.8901C39.6233 78.8901 38.5687 79.4747 38.5687 80.3689ZM46.8989 78.8099H52.5044V79.532H50.1201V80.8847C50.1201 82.5927 51.381 84.3122 52.8254 84.9427L52.3325 85.6305C51.1862 85.0917 50.1659 83.9225 49.6959 82.5354C49.2374 84.0142 48.2287 85.298 47.0823 85.8712L46.5894 85.1949C47.9994 84.5071 49.2603 82.6157 49.2603 80.8847V79.532H46.8989V78.8099ZM53.9029 87.8085V77.7782H54.7627V87.8085H53.9029ZM59.5164 78.4316C61.0524 78.4316 62.1529 79.3945 62.1529 80.7815C62.1529 82.0425 61.2588 82.9366 59.952 83.1086V84.8281C60.8805 84.7822 61.8205 84.7134 62.6917 84.5988L62.7605 85.2407C60.6512 85.5961 58.2898 85.619 56.5359 85.619L56.3984 84.8968C57.2008 84.8968 58.1293 84.8968 59.0922 84.8624V83.1086C57.774 82.9481 56.8684 82.054 56.8684 80.7815C56.8684 79.3945 57.9688 78.4316 59.5164 78.4316ZM57.7052 80.7815C57.7052 81.733 58.4618 82.3979 59.5164 82.3979C60.5595 82.3979 61.3161 81.733 61.3161 80.7815C61.3161 79.8301 60.5595 79.1652 59.5164 79.1652C58.4618 79.1652 57.7052 79.8301 57.7052 80.7815ZM63.3336 87.8085V77.7782H64.1819V81.9393H65.8097V82.6615H64.1819V87.8085H63.3336ZM75.8953 77.7782H76.7551V79.5435H78.2338V80.2542H76.7551V81.6757H78.2338V82.3864H76.7551V84.2434H75.8953V77.7782ZM69.0174 79.6238V78.936H71.5508V77.6865H72.4105V78.936H74.9439V79.6238H69.0174ZM69.5905 81.9049C69.5905 80.8389 70.542 80.1511 71.9749 80.1511C73.4078 80.1511 74.3707 80.8389 74.3707 81.9049C74.3707 82.9939 73.4078 83.6817 71.9749 83.6817C70.542 83.6817 69.5905 82.9939 69.5905 81.9049ZM70.3586 86.0546C70.3586 84.9656 71.5966 84.3351 73.6256 84.3351C75.6431 84.3351 76.8697 84.9656 76.8697 86.0546C76.8697 87.1436 75.6431 87.7856 73.6256 87.7856C71.5966 87.7856 70.3586 87.1436 70.3586 86.0546ZM70.4044 81.9049C70.4044 82.5813 71.0349 83.0283 71.9749 83.0283C72.9149 83.0283 73.5454 82.5813 73.5454 81.9049C73.5454 81.2401 72.9149 80.8045 71.9749 80.8045C71.0349 80.8045 70.4044 81.2401 70.4044 81.9049ZM71.2183 86.0546C71.2183 86.731 72.1354 87.1207 73.6256 87.1207C75.1158 87.1207 76.0329 86.731 76.0329 86.0546C76.0329 85.3898 75.1158 85 73.6256 85C72.1354 85 71.2183 85.3898 71.2183 86.0546ZM81.3826 78.294H82.2195V79.3945C82.2195 80.7701 83.2626 82.031 84.6841 82.5354L84.237 83.2003C83.1365 82.7991 82.2538 81.9508 81.8297 80.8847C81.4056 82.0883 80.5114 83.0169 79.3422 83.4869L78.8722 82.7991C80.3739 82.2488 81.3826 80.8847 81.3826 79.3372V78.294ZM80.2134 85.9744C80.2134 84.8281 81.4514 84.1632 83.4919 84.1632C85.5438 84.1632 86.7818 84.8281 86.7818 85.9744C86.7818 87.1207 85.5438 87.7856 83.4919 87.7856C81.4514 87.7856 80.2134 87.1207 80.2134 85.9744ZM81.0502 85.9744C81.0502 86.6851 81.9902 87.1092 83.4919 87.1092C85.005 87.1092 85.9335 86.6851 85.9335 85.9744C85.9335 85.2637 85.005 84.8395 83.4919 84.8395C81.9902 84.8395 81.0502 85.2637 81.0502 85.9744ZM85.8189 83.8881V77.7782H86.6787V80.4033H88.1803V81.1254H86.6787V83.8881H85.8189ZM96.5105 77.7782H97.3359V87.8085H96.5105V77.7782ZM88.9563 82.0998C88.9563 79.9677 89.7931 78.6265 91.077 78.6265C92.3035 78.6265 93.106 79.7957 93.2091 81.6986H94.5274V78.0074H95.3413V87.2926H94.5274V82.4093H93.2091C93.1404 84.3695 92.315 85.5846 91.077 85.5846C89.7931 85.5846 88.9563 84.2434 88.9563 82.0998ZM89.7472 82.0998C89.7472 83.7391 90.2631 84.7822 91.077 84.7822C91.9138 84.7822 92.4296 83.7391 92.4296 82.0998C92.4296 80.4606 91.9138 79.4289 91.077 79.4289C90.2631 79.4289 89.7472 80.4606 89.7472 82.0998ZM108.648 77.7782H109.519V82.9825H108.648V77.7782ZM101.472 81.9049C101.873 81.9049 102.309 81.8935 102.756 81.8935V79.1538H101.747V78.466H107.123V79.1538H106.115V81.7559C106.631 81.7215 107.146 81.6757 107.628 81.6184L107.674 82.2374C105.668 82.5469 103.329 82.6157 101.575 82.6157L101.472 81.9049ZM103.008 84.1632V83.4869H109.519V85.8597H103.879V86.9946H109.898V87.6939H103.031V85.2178H108.66V84.1632H103.008ZM103.593 81.8705C104.143 81.8591 104.716 81.8362 105.278 81.8132V79.1538H103.593V81.8705ZM111.224 85.791H113.482V83.0513C112.634 82.6157 112.118 81.8935 112.118 80.9879C112.118 79.4289 113.643 78.4201 115.752 78.4201C117.884 78.4201 119.386 79.4289 119.386 80.9879C119.386 81.882 118.881 82.5927 118.056 83.0398V85.791H120.314V86.5017H111.224V85.791ZM112.955 80.9879C112.955 82.1227 114.124 82.8678 115.752 82.8678C117.38 82.8678 118.56 82.1227 118.56 80.9879C118.56 79.853 117.38 79.1079 115.752 79.1079C114.124 79.1079 112.955 79.853 112.955 80.9879ZM114.33 85.791H117.196V83.3722C116.761 83.4869 116.279 83.5442 115.752 83.5442C115.236 83.5442 114.766 83.4869 114.33 83.3722V85.791ZM128.06 77.7896H128.919V81.1025H130.421V81.8247H128.919V85.3095H128.06V77.7896ZM121.182 79.7155V79.0162H123.715V77.7896H124.575V79.0162H127.108V79.7155H121.182ZM121.755 82.1571C121.755 81.0223 122.718 80.2886 124.139 80.2886C125.561 80.2886 126.535 81.0223 126.535 82.1571C126.535 83.2805 125.561 84.0142 124.139 84.0142C122.718 84.0142 121.755 83.2805 121.755 82.1571ZM122.569 82.1571C122.569 82.8678 123.199 83.3378 124.139 83.3378C125.079 83.3378 125.71 82.8678 125.71 82.1571C125.71 81.4349 125.079 80.965 124.139 80.965C123.199 80.965 122.569 81.4349 122.569 82.1571ZM122.706 87.5792V84.702H123.555V86.8685H129.389V87.5792H122.706ZM133.617 82.7647H135.876V81.3318C135.073 81.0108 134.626 80.5064 134.626 79.8301C134.626 78.6494 135.979 77.9731 138.145 77.9731C140.312 77.9731 141.665 78.6494 141.665 79.8301C141.665 80.5064 141.217 81.0108 140.426 81.3203V82.7647H142.673V83.4525H133.617V82.7647ZM134.718 86.0088C134.718 84.8854 136.002 84.2434 138.145 84.2434C140.289 84.2434 141.573 84.8854 141.573 86.0088C141.573 87.1551 140.289 87.797 138.145 87.797C136.002 87.797 134.718 87.1551 134.718 86.0088ZM135.509 79.8301C135.509 80.5637 136.529 81.0108 138.145 81.0108C139.762 81.0108 140.782 80.5637 140.782 79.8301C140.782 79.085 139.762 78.6379 138.145 78.6379C136.529 78.6379 135.509 79.085 135.509 79.8301ZM135.578 86.0088C135.578 86.7195 136.54 87.1207 138.145 87.1207C139.739 87.1207 140.702 86.7195 140.702 86.0088C140.702 85.321 139.739 84.9083 138.145 84.9083C136.54 84.9083 135.578 85.321 135.578 86.0088ZM136.724 82.7647H139.578V81.561C139.154 81.6298 138.673 81.6757 138.145 81.6757C137.618 81.6757 137.148 81.6413 136.724 81.561V82.7647ZM144.699 78.443H151.405V79.3142C151.405 80.2657 151.405 81.2974 151.118 82.7532H152.608V83.4754H148.493V87.8314H147.622V83.4754H143.541V82.7532H150.247C150.556 81.3203 150.556 80.2542 150.556 79.3142V79.1423H144.699V78.443Z" fill="#616161"/>
<path d="M42.263 110.384C43.466 110.384 44.5323 111.158 44.9066 112.301L49.8666 127.447C49.976 127.782 49.7936 128.142 49.4593 128.251C49.1251 128.36 48.7651 128.178 48.6556 127.844L46.0306 119.827L43.7513 122.591C43.6303 122.737 43.4502 122.822 43.2601 122.822H42.9828L45.2718 129.587C45.3843 129.92 45.2062 130.281 44.8734 130.394C44.5404 130.506 44.1787 130.328 44.0658 129.995L41.639 122.822H35.1058L34.3382 127.744C34.2839 128.092 33.9581 128.33 33.6107 128.275C33.2633 128.221 33.0254 127.895 33.0795 127.548L33.8168 122.822H31.0277C30.9793 122.822 30.9324 122.816 30.8871 122.806L29.7455 129.892C29.6895 130.239 29.3622 130.475 29.015 130.419C28.668 130.363 28.4319 130.036 28.4877 129.689L30.7894 115.404C31.0067 114.056 32.1701 113.066 33.5355 113.065H35.3382L35.389 112.737C35.6003 111.383 36.7663 110.384 38.1371 110.384H42.263ZM33.5355 114.339C32.7953 114.339 32.165 114.877 32.0472 115.607L31.0902 121.549H34.015L35.139 114.339H33.5355ZM35.3041 121.549H41.2084L40.5834 119.702H35.5921L35.3041 121.549ZM42.5521 121.549H42.9603L44.4837 119.702H41.9281L42.5521 121.549ZM35.7904 118.429H40.1527L39.1156 115.363C38.9082 114.751 38.3334 114.339 37.6869 114.339H36.4281L35.7904 118.429ZM38.1371 111.657C37.394 111.657 36.7613 112.199 36.6468 112.934L36.6263 113.065H37.6869C38.8795 113.065 39.9392 113.825 40.3216 114.955L41.4964 118.429H45.5736L43.6966 112.696C43.4936 112.077 42.9151 111.657 42.263 111.657H38.1371Z" fill="#BDBDBD"/>
<path d="M37.4629 110.889C37.4629 110.386 37.8703 109.979 38.3729 109.979H41.7012C42.2038 109.979 42.6112 110.386 42.6112 110.889C42.6112 111.391 42.2038 111.799 41.7012 111.799H38.3729C37.8703 111.799 37.4629 111.391 37.4629 110.889Z" fill="url(#paint0_linear_1099_78743)"/>
<path d="M32.8711 113.569C32.8711 113.067 33.2785 112.659 33.7812 112.659H37.1094C37.612 112.659 38.0195 113.067 38.0195 113.569C38.0195 114.072 37.612 114.479 37.1094 114.479H33.7812C33.2785 114.479 32.8711 114.072 32.8711 113.569Z" fill="url(#paint1_linear_1099_78743)"/>
<ellipse cx="44.6699" cy="129.708" rx="0.643545" ry="0.650042" fill="#333333"/>
<ellipse cx="29.2246" cy="129.708" rx="0.643545" ry="0.650042" fill="#333333"/>
<ellipse cx="49.3691" cy="127.79" rx="0.643545" ry="0.650042" fill="#333333"/>
<ellipse cx="33.6553" cy="127.79" rx="0.643545" ry="0.650042" fill="#333333"/>
<path d="M64.6994 108.94H66.1438V109.799C66.1438 111.175 66.843 112.447 68.4594 112.963L67.7142 114.075C66.6367 113.697 65.8916 112.986 65.456 112.081C64.9975 113.135 64.1721 113.972 62.957 114.385L62.2119 113.238C63.9428 112.677 64.6994 111.301 64.6994 109.868V108.94ZM63.8855 116.666C63.8855 115.428 65.2382 114.683 67.4047 114.683C69.5713 114.683 70.9125 115.428 70.9125 116.666C70.9125 117.938 69.5713 118.672 67.4047 118.672C65.2382 118.672 63.8855 117.938 63.8855 116.666ZM65.3184 116.666C65.3184 117.273 66.0406 117.583 67.4047 117.583C68.7574 117.583 69.5025 117.273 69.5025 116.666C69.5025 116.081 68.7574 115.783 67.4047 115.783C66.0406 115.783 65.3184 116.081 65.3184 116.666ZM67.5308 111.45V110.292H69.4452V108.401H70.8781V114.419H69.4452V111.45H67.5308ZM79.3229 108.401H80.7558V115.795H79.3229V108.401ZM72.3762 111.656C72.3762 110.132 73.6028 109.054 75.1618 109.054C76.7322 109.054 77.9473 110.132 77.9473 111.656C77.9473 113.158 76.7322 114.259 75.1618 114.259C73.6028 114.259 72.3762 113.158 72.3762 111.656ZM73.7633 111.656C73.7633 112.493 74.3823 113.021 75.1618 113.021C75.9527 113.021 76.5603 112.493 76.5603 111.656C76.5603 110.797 75.9527 110.281 75.1618 110.281C74.3823 110.281 73.7633 110.797 73.7633 111.656ZM73.9352 118.477V115.05H75.3452V117.342H81.008V118.477H73.9352ZM82.1508 113.284H84.26V112.035C83.5035 111.702 83.0793 111.186 83.0793 110.522C83.0793 109.295 84.5351 108.55 86.7934 108.55C89.0631 108.55 90.5075 109.295 90.5075 110.522C90.5075 111.198 90.0719 111.714 89.3038 112.046V113.284H91.436V114.408H82.1508V113.284ZM83.2169 116.803C83.2169 115.634 84.5581 114.958 86.7705 114.958C88.9943 114.958 90.3355 115.634 90.3355 116.803C90.3355 118.007 88.9943 118.672 86.7705 118.672C84.5581 118.672 83.2169 118.007 83.2169 116.803ZM84.5466 110.522C84.5466 111.106 85.3605 111.404 86.7934 111.404C88.2148 111.404 89.0402 111.106 89.0402 110.522C89.0402 109.937 88.2148 109.627 86.7934 109.627C85.3605 109.627 84.5466 109.937 84.5466 110.522ZM84.6498 116.803C84.6498 117.342 85.372 117.606 86.7705 117.606C88.1804 117.606 88.9026 117.342 88.9026 116.803C88.9026 116.276 88.1804 116.024 86.7705 116.024C85.372 116.024 84.6498 116.276 84.6498 116.803ZM85.67 113.284H87.8939V112.402C87.55 112.447 87.1831 112.47 86.7934 112.47C86.3922 112.47 86.0139 112.447 85.67 112.402V113.284ZM94.6322 116.299H98.5527V114.385H95.6181V109.043H97.0281V110.648H101.499V109.043H102.909V114.385H99.9741V116.299H103.929V117.457H94.6322V116.299ZM97.0281 113.25H101.499V111.771H97.0281V113.25ZM111.938 108.401H113.279V114.843H111.938V112.103H111.124V114.488H109.795V108.596H111.124V110.957H111.938V108.401ZM104.487 110.567V109.467H106.298V108.504H107.697V109.467H109.496V110.567H104.487ZM104.797 112.7C104.797 111.645 105.725 110.911 106.998 110.911C108.293 110.911 109.221 111.645 109.221 112.7C109.221 113.766 108.293 114.488 106.998 114.488C105.725 114.488 104.797 113.766 104.797 112.7ZM106.046 112.7C106.046 113.192 106.447 113.479 106.998 113.479C107.559 113.479 107.96 113.192 107.96 112.7C107.96 112.207 107.559 111.932 106.998 111.932C106.447 111.932 106.046 112.207 106.046 112.7ZM106.287 116.815C106.287 115.623 107.617 114.946 109.817 114.946C112.018 114.946 113.337 115.623 113.337 116.815C113.337 117.996 112.018 118.672 109.817 118.672C107.617 118.672 106.287 117.996 106.287 116.815ZM107.708 116.815C107.708 117.354 108.43 117.606 109.817 117.606C111.205 117.606 111.915 117.354 111.915 116.815C111.915 116.253 111.205 116.012 109.817 116.012C108.43 116.012 107.708 116.253 107.708 116.815ZM121.587 108.389H123.008V118.66H121.587V108.389ZM114.502 115.783C117.139 114.534 118.285 112.883 118.503 110.59H115.03V109.455H119.959C119.959 112.585 118.87 115.153 115.236 116.907L114.502 115.783Z" fill="#1A1A1A"/>
<path d="M68.9077 130.632H69.6719V135.207H68.9077V133.424H66.9309V132.802H68.9077V130.632ZM62.4883 134.779C64.6281 134.249 65.9018 133.159 66.0546 131.702H62.957V131.07H66.8698C66.8698 133.281 65.3108 134.748 62.7634 135.39L62.4883 134.779ZM63.9556 136.226V135.604H69.6719V137.764H64.73V138.844H69.9776V139.456H63.976V137.173H68.9077V136.226H63.9556ZM73.5302 131.325C74.7427 131.325 75.619 132.374 75.7311 134.055H77.7282V130.622H78.4823V139.558H77.7282V134.667H75.7311C75.6598 136.419 74.7631 137.53 73.5302 137.53C72.2361 137.53 71.319 136.317 71.319 134.422C71.319 132.527 72.2361 131.325 73.5302 131.325ZM72.0425 134.422C72.0425 135.879 72.6539 136.847 73.5302 136.847C74.4166 136.847 75.0178 135.879 75.0178 134.422C75.0178 132.965 74.4166 132.007 73.5302 132.007C72.6539 132.007 72.0425 132.965 72.0425 134.422ZM88.3125 130.622H89.0768V134.167H90.5542V134.809H89.0768V139.558H88.3125V130.622ZM82.6268 137.326V131.508H86.7637V132.13H83.3808V136.674C85.0213 136.674 86.1524 136.623 87.4566 136.368L87.5483 137.021C86.1727 137.275 85.0111 137.326 83.3197 137.326H82.6268ZM97.561 130.632H98.3151V139.548H97.561V130.632ZM91.6104 137.235V131.508H92.3746V136.572C93.7196 136.572 95.1156 136.47 96.6134 136.154L96.7153 136.807C95.1563 137.122 93.7502 137.235 92.344 137.235H91.6104ZM106.382 130.632H107.146V139.548H106.382V130.632ZM99.9622 137.255C102.367 136.103 103.579 134.361 103.743 132.221H100.36V131.59H104.517C104.517 134.157 103.335 136.419 100.37 137.866L99.9622 137.255ZM111.993 130.774H112.747V131.63H117.149V130.774H117.914V133.709H111.993V130.774ZM110.913 135.085V134.463H118.963V135.085H115.315V135.991H117.924V137.938H112.666V138.844H118.199V139.446H111.922V137.387H117.18V136.572H111.892V135.991H114.551V135.085H110.913ZM112.747 133.108H117.149V132.221H112.747V133.108ZM126.276 130.632H127.04V137.275H126.276V134.657H124.737V134.025H126.276V132.965H124.737V132.333H126.276V130.632ZM119.744 135.248C120.101 135.248 120.488 135.248 120.895 135.237V131.987H119.989V131.355H124.676V131.987H123.779V135.135C124.187 135.105 124.594 135.074 124.971 135.023L125.012 135.604C123.3 135.869 121.272 135.9 119.836 135.9L119.744 135.248ZM121.354 139.344V136.725H122.108V138.712H127.274V139.344H121.354ZM121.639 135.227C122.098 135.217 122.567 135.207 123.035 135.176V131.987H121.639V135.227ZM134.617 130.632H135.381V134.32H136.859V134.962H135.381V139.548H134.617V130.632ZM128.483 132.7V132.068H130.766V130.734H131.54V132.068H133.761V132.7H128.483ZM129.003 135.502C129.003 134.3 129.92 133.464 131.163 133.464C132.416 133.464 133.323 134.3 133.323 135.502C133.323 136.705 132.416 137.54 131.163 137.54C129.92 137.54 129.003 136.705 129.003 135.502ZM129.736 135.502C129.736 136.317 130.327 136.898 131.163 136.898C131.988 136.898 132.589 136.317 132.589 135.502C132.589 134.687 131.988 134.096 131.163 134.096C130.327 134.096 129.736 134.687 129.736 135.502ZM143.866 130.642H144.63V137.163H143.866V130.642ZM137.446 135.268C138.771 134.748 139.688 133.444 139.688 132.038V131.121H140.452V132.038C140.452 133.393 141.379 134.616 142.694 135.105L142.286 135.716C141.267 135.319 140.473 134.494 140.085 133.464C139.708 134.565 138.903 135.451 137.854 135.879L137.446 135.268ZM138.934 139.344V136.572H139.698V138.712H144.915V139.344H138.934ZM152.585 134.157H154.959V132.924H152.687C152.106 134.361 150.731 135.4 148.836 135.971L148.52 135.36C150.67 134.728 152.015 133.505 152.168 131.936H148.978V131.304H152.993C152.993 131.651 152.952 131.987 152.881 132.303H154.959V130.632H155.724V136.002H154.959V134.779H152.585V134.157ZM149.885 137.805C149.885 136.735 151.016 136.093 152.83 136.093C154.623 136.093 155.764 136.735 155.764 137.805C155.764 138.865 154.623 139.507 152.83 139.507C151.016 139.507 149.885 138.865 149.885 137.805ZM150.639 137.805C150.639 138.478 151.495 138.895 152.83 138.895C154.165 138.895 155.01 138.478 155.01 137.805C155.01 137.112 154.165 136.705 152.83 136.705C151.495 136.705 150.639 137.112 150.639 137.805ZM157.218 135.757H165.298V136.389H161.61V139.548H160.856V136.389H157.218V135.757ZM158.125 132.945C158.125 131.753 159.378 131.009 161.233 131.009C163.097 131.009 164.34 131.753 164.34 132.945C164.34 134.137 163.097 134.891 161.233 134.891C159.378 134.891 158.125 134.137 158.125 132.945ZM158.909 132.945C158.909 133.75 159.847 134.28 161.233 134.28C162.618 134.28 163.566 133.75 163.566 132.945C163.566 132.15 162.618 131.62 161.233 131.62C159.847 131.62 158.909 132.15 158.909 132.945ZM174.802 130.632H175.567V135.258H174.802V130.632ZM168.352 134.555C169.667 134.086 170.625 132.894 170.625 131.569V130.897H171.389V131.569C171.389 132.833 172.357 133.953 173.661 134.392L173.284 134.993C172.245 134.626 171.42 133.862 171.022 132.884C170.635 133.933 169.799 134.758 168.729 135.166L168.352 134.555ZM169.83 136.328V135.716H175.567V137.826H170.594V138.824H175.883V139.446H169.85V137.255H174.813V136.328H169.83ZM183.898 130.632H184.632V139.548H183.898V134.922H182.594V139.079H181.881V130.835H182.594V134.28H183.898V130.632ZM177.54 137.224V131.722H178.294V136.552C179.17 136.542 180.128 136.48 181.218 136.267L181.31 136.939C180.087 137.173 179.068 137.224 178.1 137.224H177.54ZM187.96 134.453C188.347 134.453 188.561 134.697 188.561 135.044C188.561 135.4 188.347 135.645 187.96 135.645C187.573 135.645 187.359 135.4 187.359 135.044C187.359 134.697 187.573 134.453 187.96 134.453ZM193.626 131.213C195.011 131.213 196 132.068 196 133.301C196 134.432 195.185 135.227 194.003 135.37V136.898C194.879 136.858 195.786 136.786 196.621 136.654L196.682 137.214C194.675 137.591 192.484 137.601 190.885 137.601L190.783 136.959C191.506 136.959 192.342 136.959 193.228 136.929V135.37C192.046 135.217 191.241 134.422 191.241 133.301C191.241 132.068 192.23 131.213 193.626 131.213ZM191.985 133.301C191.985 134.147 192.678 134.728 193.626 134.728C194.563 134.728 195.256 134.147 195.256 133.301C195.256 132.456 194.563 131.875 193.626 131.875C192.678 131.875 191.985 132.456 191.985 133.301ZM197.212 139.558V130.622H197.976V139.558H197.212ZM206.379 130.632H207.113V139.548H206.379V130.632ZM199.664 134.473C199.664 132.578 200.408 131.386 201.549 131.386C202.64 131.386 203.353 132.425 203.445 134.117H204.616V130.835H205.34V139.089H204.616V134.748H203.445C203.384 136.491 202.65 137.571 201.549 137.571C200.408 137.571 199.664 136.379 199.664 134.473ZM200.367 134.473C200.367 135.93 200.826 136.858 201.549 136.858C202.293 136.858 202.752 135.93 202.752 134.473C202.752 133.016 202.293 132.099 201.549 132.099C200.826 132.099 200.367 133.016 200.367 134.473ZM212.805 133.689H214.914V130.622H215.669V139.558H214.914V134.31H212.805V133.689ZM208.363 137.041C209.636 136.399 210.686 134.687 210.686 133.036V131.406H211.45V133.036C211.45 134.646 212.489 136.277 213.763 136.878L213.315 137.499C212.306 136.98 211.47 135.9 211.073 134.626C210.686 135.971 209.84 137.112 208.842 137.652L208.363 137.041ZM62.3558 151.9H66.0037V151.156C64.4243 151.095 63.5174 150.636 63.5174 149.821C63.5174 148.935 64.567 148.466 66.3807 148.466C68.1944 148.466 69.2439 148.935 69.2439 149.821C69.2439 150.636 68.3473 151.095 66.7679 151.156V151.9H70.4056V152.511H62.3558V151.9ZM62.7838 148.058V147.467H66.0037V146.52H66.7679V147.467H69.9368V148.058H62.7838ZM63.4053 155.344V153.122H64.1696V154.722H69.5191V155.344H63.4053ZM64.2816 149.821C64.2816 150.32 65.0357 150.606 66.3807 150.606C67.7257 150.606 68.4797 150.32 68.4797 149.821C68.4797 149.301 67.7257 149.026 66.3807 149.026C65.0357 149.026 64.2816 149.301 64.2816 149.821ZM71.3394 147.549H76.1387V148.191H74.1415V149.393C74.1415 150.809 75.1809 152.399 76.4546 153L76.0164 153.612C75.0178 153.112 74.1721 152.053 73.7747 150.86C73.3671 152.154 72.4704 153.306 71.4821 153.826L71.0337 153.224C72.2768 152.603 73.3977 150.911 73.3977 149.393V148.191H71.3394V147.549ZM77.2391 155.548V146.632H78.0034V150.259H79.4808V150.901H78.0034V155.548H77.2391ZM84.4192 149.689H86.5284V146.622H87.2824V155.558H86.5284V150.31H84.4192V149.689ZM79.9765 153.041C81.2502 152.399 82.2998 150.687 82.2998 149.036V147.406H83.064V149.036C83.064 150.646 84.1033 152.277 85.377 152.878L84.9287 153.499C83.9199 152.98 83.0844 151.9 82.687 150.626C82.2998 151.971 81.454 153.112 80.4555 153.652L79.9765 153.041ZM97.5509 146.622H98.3151V155.558H97.5509V146.622ZM91.3658 150.422C91.3658 148.527 92.3032 147.325 93.6279 147.325C94.9423 147.325 95.8798 148.527 95.8798 150.422C95.8798 152.317 94.9423 153.53 93.6279 153.53C92.3032 153.53 91.3658 152.317 91.3658 150.422ZM92.1096 150.422C92.1096 151.879 92.7312 152.847 93.6279 152.847C94.5144 152.847 95.1461 151.879 95.1461 150.422C95.1461 148.965 94.5144 148.007 93.6279 148.007C92.7312 148.007 92.1096 148.965 92.1096 150.422ZM99.8603 151.054H103.498V150.004H100.879V147.049H106.901V147.671H101.633V149.373H106.962V150.004H104.252V151.054H107.91V151.676H99.8603V151.054ZM100.828 153.938C100.828 152.919 101.97 152.338 103.875 152.338C105.77 152.338 106.922 152.919 106.922 153.938C106.922 154.967 105.77 155.537 103.875 155.537C101.97 155.537 100.828 154.967 100.828 153.938ZM101.593 153.938C101.593 154.58 102.459 154.936 103.875 154.936C105.291 154.936 106.147 154.58 106.147 153.938C106.147 153.306 105.291 152.939 103.875 152.939C102.459 152.939 101.593 153.306 101.593 153.938ZM114.805 146.601H115.569V148.772H116.914V149.413H115.569V151.533H114.805V146.601ZM108.691 148.048V147.447H110.943V146.53H111.707V147.447H113.959V148.048H108.691ZM109.201 149.933C109.201 149.026 110.036 148.466 111.32 148.466C112.604 148.466 113.45 149.026 113.45 149.933C113.45 150.83 112.604 151.39 111.32 151.39C110.036 151.39 109.201 150.83 109.201 149.933ZM109.924 149.933C109.924 150.473 110.474 150.83 111.32 150.83C112.166 150.83 112.716 150.473 112.716 149.933C112.716 149.383 112.166 149.036 111.32 149.036C110.474 149.036 109.924 149.383 109.924 149.933ZM109.934 152.582V152.002H115.569V153.958H110.709V154.844H115.895V155.446H109.965V153.398H114.815V152.582H109.934ZM123.361 146.958H124.156V147.467C124.156 148.731 125.807 149.821 127.376 150.055L127.06 150.667C125.705 150.432 124.34 149.658 123.769 148.568C123.208 149.678 121.833 150.432 120.457 150.667L120.141 150.055C121.731 149.821 123.361 148.761 123.361 147.467V146.958ZM119.724 152.307V151.676H127.784V152.307H124.115V155.548H123.361V152.307H119.724ZM133.039 152.134H133.772V152.623C133.772 153.428 134.2 154.274 135.036 154.763C135.902 154.223 136.34 153.316 136.34 152.623V152.134H137.084V152.623C137.084 153.55 137.767 154.467 138.888 154.855L138.511 155.425C137.634 155.109 137.013 154.478 136.697 153.734C136.432 154.457 135.892 155.15 135.066 155.507C134.211 155.171 133.66 154.518 133.395 153.764C133.08 154.478 132.468 155.099 131.622 155.425L131.235 154.855C132.356 154.447 133.039 153.479 133.039 152.623V152.134ZM131.001 149.24C131.001 148.007 131.969 147.162 133.314 147.162C134.659 147.162 135.627 148.007 135.627 149.24C135.627 150.463 134.659 151.299 133.314 151.299C131.969 151.299 131.001 150.463 131.001 149.24ZM131.745 149.24C131.745 150.086 132.407 150.667 133.314 150.667C134.231 150.667 134.883 150.086 134.883 149.24C134.883 148.394 134.231 147.804 133.314 147.804C132.407 147.804 131.745 148.394 131.745 149.24ZM137.318 151.737V146.642H138.093V151.737H137.318ZM140.637 147.345H146.638V147.977H141.401V150.809H146.74V151.441H143.999V153.764H147.678V154.406H139.597V153.764H143.245V151.441H140.637V147.345ZM148.408 151.553H152.055V150.575H149.457V148.435H154.684V147.477H149.437V146.866H155.438V148.996H150.201V149.974H155.632V150.575H152.82V151.553H156.488V152.185H148.408V151.553ZM149.304 153.51V152.878H155.489V155.456H154.725V153.51H149.304ZM160.51 147.345H166.512V147.977H161.274V150.809H166.614V151.441H163.873V153.764H167.551V154.406H159.471V153.764H163.119V151.441H160.51V147.345ZM170.951 147.213C172.316 147.213 173.294 148.068 173.294 149.301C173.294 150.422 172.5 151.217 171.338 151.37V152.898C172.163 152.858 172.999 152.796 173.773 152.694L173.834 153.265C171.96 153.581 169.861 153.601 168.302 153.601L168.179 152.959C168.893 152.959 169.718 152.959 170.574 152.929V151.37C169.402 151.227 168.597 150.432 168.597 149.301C168.597 148.068 169.575 147.213 170.951 147.213ZM169.341 149.301C169.341 150.147 170.013 150.738 170.951 150.738C171.878 150.738 172.551 150.147 172.551 149.301C172.551 148.456 171.878 147.865 170.951 147.865C170.013 147.865 169.341 148.456 169.341 149.301ZM174.344 155.548V146.632H175.098V150.331H176.545V150.972H175.098V155.548H174.344ZM178.131 147.457H184.132V148.089H178.885V150.922H184.234V151.543H178.131V147.457ZM177.092 154.315V153.683H185.172V154.315H177.092ZM192.454 146.622H193.208V155.558H192.454V151.747H190.599V151.125H192.454V149.312H190.66V148.68H192.454V146.622ZM186.208 148.079V147.447H190.09V150.606H186.982V152.827C188.327 152.827 189.438 152.776 190.783 152.562L190.854 153.204C189.448 153.428 188.307 153.469 186.89 153.469H186.228V149.974H189.336V148.079H186.208ZM194.712 153.754H196.72V151.319C195.966 150.932 195.507 150.29 195.507 149.485C195.507 148.099 196.862 147.202 198.737 147.202C200.632 147.202 201.967 148.099 201.967 149.485C201.967 150.28 201.519 150.911 200.785 151.309V153.754H202.793V154.386H194.712V153.754ZM196.251 149.485C196.251 150.494 197.29 151.156 198.737 151.156C200.184 151.156 201.234 150.494 201.234 149.485C201.234 148.476 200.184 147.814 198.737 147.814C197.29 147.814 196.251 148.476 196.251 149.485ZM197.474 153.754H200.021V151.604C199.634 151.706 199.206 151.757 198.737 151.757C198.279 151.757 197.861 151.706 197.474 151.604V153.754Z" fill="#616161"/>
<path fill-rule="evenodd" clip-rule="evenodd" d="M31.4817 182.433L31.444 182.444L29.3369 182.444V181.171L31.287 181.171C31.3265 181.165 31.373 181.16 31.4258 181.158C31.5559 181.154 31.7216 181.169 31.9081 181.231C32.2917 181.358 32.6886 181.658 33.0377 182.222C33.7114 183.308 34.2815 185.493 34.2815 189.923V189.959L34.2776 189.993L34.2776 189.994L34.2772 189.997L34.2753 190.018C34.2735 190.037 34.271 190.068 34.2684 190.108C34.2633 190.189 34.258 190.306 34.2579 190.448C34.2578 190.735 34.2794 191.105 34.3589 191.463C34.44 191.828 34.5699 192.129 34.7491 192.331C34.9084 192.51 35.1319 192.642 35.5094 192.642H42.5119C42.5348 192.639 42.5665 192.637 42.606 192.634C42.6856 192.628 42.7975 192.622 42.9329 192.619C43.2018 192.615 43.5735 192.627 43.9757 192.693C44.7455 192.82 45.8174 193.181 46.3133 194.235L46.3286 194.267L48.4084 200.39L47.2024 200.799L45.1469 194.749C44.9187 194.298 44.4028 194.054 43.7689 193.95C43.4627 193.899 43.1708 193.89 42.9531 193.893C42.8452 193.895 42.7581 193.9 42.6996 193.904C42.6704 193.906 42.6485 193.908 42.6349 193.909L42.6209 193.911L42.62 193.911L42.6192 193.911L42.5828 193.915H35.5094C34.7672 193.915 34.1977 193.628 33.7974 193.178C33.4171 192.75 33.2208 192.213 33.1155 191.739C33.0088 191.259 32.9841 190.789 32.9842 190.447C32.9843 190.275 32.9907 190.13 32.9973 190.027C33.0006 189.975 33.004 189.934 33.0066 189.904C33.007 189.9 33.0074 189.896 33.0078 189.892C33.005 185.523 32.4285 183.656 31.9551 182.893C31.7302 182.53 31.5529 182.455 31.506 182.439C31.4961 182.436 31.4879 182.434 31.4817 182.433Z" fill="#BDBDBD"/>
<path d="M31.0886 180.853H28.2228C27.7832 180.853 27.4268 181.209 27.4268 181.649C27.4268 182.088 27.7832 182.445 28.2228 182.445H31.0886C31.5283 182.445 31.8847 182.088 31.8847 181.649C31.8847 181.209 31.5283 180.853 31.0886 180.853Z" fill="url(#paint2_linear_1099_78743)"/>
<path d="M48.9357 199.816L46.6999 200.703C46.2912 200.865 46.0914 201.327 46.2535 201.736C46.4157 202.145 46.8784 202.345 47.287 202.182L49.5228 201.295C49.9315 201.133 50.1313 200.671 49.9692 200.262C49.8071 199.853 49.3443 199.653 48.9357 199.816Z" fill="url(#paint3_linear_1099_78743)"/>
<path fill-rule="evenodd" clip-rule="evenodd" d="M40.8972 188.52C40.8974 188.52 40.8976 188.52 40.8007 187.891C40.7037 187.262 40.7039 187.261 40.7041 187.261L40.7055 187.261L40.7081 187.261L40.7152 187.26L40.7377 187.257C40.7561 187.254 40.7814 187.251 40.8127 187.248C40.875 187.241 40.962 187.233 41.0655 187.227C41.2688 187.216 41.5538 187.215 41.8499 187.259C42.1362 187.301 42.4957 187.396 42.7966 187.623C43.1287 187.874 43.348 188.258 43.348 188.755V201.231H42.0743V188.755C42.0743 188.674 42.0553 188.66 42.0297 188.64L42.0288 188.64C41.9715 188.596 41.8533 188.547 41.662 188.519C41.4804 188.491 41.2877 188.491 41.1328 188.499C41.0573 188.503 40.9949 188.509 40.9528 188.514C40.9318 188.516 40.9161 188.518 40.9066 188.519L40.8972 188.52ZM40.8972 188.52L40.8965 188.521C40.8964 188.521 40.8965 188.521 40.8972 188.52Z" fill="#BDBDBD"/>
<path d="M40.4552 187.097H35.6789C35.2392 187.097 34.8828 187.453 34.8828 187.893C34.8828 188.332 35.2392 188.689 35.6789 188.689H40.4552C40.8949 188.689 41.2513 188.332 41.2513 187.893C41.2513 187.453 40.8949 187.097 40.4552 187.097Z" fill="url(#paint4_linear_1099_78743)"/>
<path d="M42.7111 201.868C43.0628 201.868 43.3479 201.583 43.3479 201.232C43.3479 200.88 43.0628 200.595 42.7111 200.595C42.3593 200.595 42.0742 200.88 42.0742 201.232C42.0742 201.583 42.3593 201.868 42.7111 201.868Z" fill="#333333"/>
<path fill-rule="evenodd" clip-rule="evenodd" d="M42.7113 202.506C43.4148 202.506 43.985 201.935 43.985 201.232C43.985 200.528 43.4148 199.958 42.7113 199.958C42.0079 199.958 41.4376 200.528 41.4376 201.232C41.4376 201.935 42.0079 202.506 42.7113 202.506ZM44.6219 201.232C44.6219 202.287 43.7665 203.142 42.7113 203.142C41.6562 203.142 40.8008 202.287 40.8008 201.232C40.8008 200.177 41.6562 199.321 42.7113 199.321C43.7665 199.321 44.6219 200.177 44.6219 201.232Z" fill="#BDBDBD"/>
<path d="M34.0276 202.334C37.3215 202.334 39.9918 199.663 39.9918 196.369C39.9918 193.076 37.3215 190.405 34.0276 190.405C30.7337 190.405 28.0635 193.076 28.0635 196.369C28.0635 199.663 30.7337 202.334 34.0276 202.334Z" fill="white"/>
<path fill-rule="evenodd" clip-rule="evenodd" d="M34.0277 190.883C30.9976 190.883 28.5412 193.339 28.5412 196.37C28.5412 199.4 30.9976 201.856 34.0277 201.856C37.0578 201.856 39.5142 199.4 39.5142 196.37C39.5142 193.339 37.0578 190.883 34.0277 190.883ZM27.5859 196.37C27.5859 192.812 30.47 189.928 34.0277 189.928C37.5854 189.928 40.4695 192.812 40.4695 196.37C40.4695 199.927 37.5854 202.811 34.0277 202.811C30.47 202.811 27.5859 199.927 27.5859 196.37Z" fill="#BDBDBD"/>
<path fill-rule="evenodd" clip-rule="evenodd" d="M34.1139 193.908C32.707 193.908 31.5665 195.049 31.5665 196.456C31.5665 197.863 32.707 199.003 34.1139 199.003C35.5208 199.003 36.6613 197.863 36.6613 196.456C36.6613 195.049 35.5208 193.908 34.1139 193.908ZM30.9297 196.456C30.9297 194.697 32.3553 193.271 34.1139 193.271C35.8725 193.271 37.2981 194.697 37.2981 196.456C37.2981 198.214 35.8725 199.64 34.1139 199.64C32.3553 199.64 30.9297 198.214 30.9297 196.456Z" fill="#BDBDBD"/>
<path d="M66.2126 180.626H67.7142V181.13C67.7142 182.345 68.9523 183.686 71.2564 183.996L70.7061 185.131C68.9293 184.856 67.6225 184.019 66.9691 182.907C66.3043 184.03 64.9975 184.856 63.2207 185.131L62.659 183.996C64.9745 183.686 66.2126 182.357 66.2126 181.13V180.626ZM62.3151 187.079V185.922H71.6003V187.079H67.634V190.599H66.2126V187.079H62.3151ZM72.2501 185.188H76.1705V184.305H73.3735V180.775H80.4119V181.898H74.772V183.17H80.4693V184.305H77.592V185.188H81.5239V186.311H72.2501V185.188ZM73.2933 188.73C73.2933 187.527 74.6345 186.839 76.8469 186.839C79.0707 186.839 80.4119 187.527 80.4119 188.73C80.4119 189.934 79.0707 190.61 76.8469 190.61C74.6345 190.61 73.2933 189.934 73.2933 188.73ZM74.7262 188.73C74.7262 189.28 75.4598 189.533 76.8469 189.533C78.2569 189.533 78.979 189.28 78.979 188.73C78.979 188.18 78.2569 187.916 76.8469 187.916C75.4598 187.916 74.7262 188.18 74.7262 188.73ZM82.5635 180.992H84.8103V180.224H86.2432V180.992H88.4785V181.932H82.5635V180.992ZM82.1737 185.222C84.0881 185.222 86.5641 185.211 88.7192 184.947L88.7995 185.807C87.9626 185.945 87.1029 186.025 86.2546 186.082V186.747H90.6794V189.04H85.1427V189.578H90.966V190.518H83.7442V188.168H89.2809V187.687H83.7327V186.747H84.8217V186.151C83.9391 186.185 83.0908 186.185 82.3342 186.185L82.1737 185.222ZM83.0105 183.514C83.0105 182.655 83.9849 182.15 85.5095 182.15C87.0456 182.15 88.02 182.655 88.02 183.514C88.02 184.374 87.0456 184.879 85.5095 184.879C83.9849 184.879 83.0105 184.374 83.0105 183.514ZM84.3632 183.514C84.3632 183.835 84.7873 183.984 85.5095 183.984C86.2432 183.984 86.6788 183.835 86.6788 183.514C86.6788 183.193 86.2432 183.033 85.5095 183.033C84.7873 183.033 84.3632 183.193 84.3632 183.514ZM89.258 186.38V180.328H90.6794V186.38H89.258ZM96.247 184.237H97.4506V180.5H98.7689V190.117H97.4506V185.383H96.247V184.237ZM91.8795 187.584C93.3353 186.724 93.8856 185.028 93.8856 183.446V183.205H92.2578V182.059H93.8856V180.66H95.2382V182.059H96.8546V183.205H95.2382V183.446C95.2382 184.993 95.7999 186.575 97.2443 187.355L96.4648 188.409C95.5477 187.928 94.9402 187.091 94.5848 186.094C94.2295 187.183 93.6105 188.111 92.6819 188.65L91.8795 187.584ZM99.5255 190.587V180.316H100.878V190.587H99.5255ZM104.795 181.038C106.171 181.038 107.214 182.173 107.409 184.042H109.185V180.305H110.595V190.61H109.185V185.177H107.42C107.283 187.148 106.216 188.363 104.795 188.363C103.27 188.363 102.158 186.953 102.158 184.695C102.158 182.448 103.27 181.038 104.795 181.038ZM103.511 184.695C103.511 186.231 104.027 187.079 104.795 187.079C105.575 187.079 106.09 186.231 106.09 184.695C106.09 183.159 105.575 182.322 104.795 182.322C104.027 182.322 103.511 183.159 103.511 184.695Z" fill="#1A1A1A"/>
<path d="M68.9077 202.558H69.6719V207.134H68.9077V205.35H66.9309V204.729H68.9077V202.558ZM62.4883 206.706C64.6281 206.176 65.9018 205.085 66.0546 203.628H62.957V202.997H66.8698C66.8698 205.208 65.3108 206.675 62.7634 207.317L62.4883 206.706ZM63.9556 208.153V207.531H69.6719V209.691H64.73V210.771H69.9776V211.383H63.976V209.1H68.9077V208.153H63.9556ZM75.191 203.129C77.0455 203.129 78.4211 204.107 78.4211 205.575C78.4211 207.052 77.0455 208.02 75.191 208.02C73.3467 208.02 71.961 207.052 71.961 205.575C71.961 204.107 73.3467 203.129 75.191 203.129ZM71.1662 210.272V209.63H79.2465V210.272H71.1662ZM72.6946 205.575C72.6946 206.665 73.7645 207.398 75.191 207.398C76.6278 207.398 77.6875 206.665 77.6875 205.575C77.6875 204.494 76.6278 203.751 75.191 203.751C73.7645 203.751 72.6946 204.494 72.6946 205.575ZM86.4978 202.558H87.2621V207.185H86.4978V202.558ZM80.0479 206.481C81.3623 206.013 82.3201 204.821 82.3201 203.496V202.823H83.0844V203.496C83.0844 204.759 84.0524 205.88 85.3566 206.318L84.9796 206.92C83.9403 206.553 83.1149 205.789 82.7175 204.81C82.3303 205.86 81.4948 206.685 80.4249 207.093L80.0479 206.481ZM81.5254 208.254V207.643H87.2621V209.752H82.2896V210.751H87.5779V211.372H81.5457V209.182H86.508V208.254H81.5254ZM94.6774 202.885H95.4722V203.394C95.4722 204.658 97.1229 205.748 98.6921 205.982L98.3762 206.594C97.021 206.359 95.6556 205.585 95.085 204.494C94.5246 205.605 93.149 206.359 91.7734 206.594L91.4575 205.982C93.0471 205.748 94.6774 204.688 94.6774 203.394V202.885ZM91.0397 208.234V207.602H99.0997V208.234H95.4314V211.474H94.6774V208.234H91.0397ZM103.132 207.796H103.856V208.927H105.486V207.796H106.199V211.352H103.132V207.796ZM102.256 205.004C102.256 203.781 103.203 202.956 104.538 202.956C105.741 202.956 106.647 203.628 106.8 204.668H108.665V202.558H109.429V207.276H108.665V205.299H106.811C106.668 206.349 105.751 207.052 104.538 207.052C103.203 207.052 102.256 206.217 102.256 205.004ZM102.989 205.004C102.989 205.829 103.631 206.42 104.538 206.42C105.445 206.42 106.097 205.829 106.097 205.004C106.097 204.179 105.445 203.598 104.538 203.598C103.631 203.598 102.989 204.179 102.989 205.004ZM103.856 210.751H105.486V209.508H103.856V210.751ZM106.332 210.843C107.391 210.394 107.962 209.406 107.962 208.489V207.735H108.706V208.489C108.706 209.436 109.276 210.425 110.346 210.843L109.959 211.423C109.144 211.077 108.614 210.455 108.339 209.712C108.054 210.445 107.514 211.077 106.719 211.423L106.332 210.843ZM117.455 202.558H118.209V211.474H117.455V206.787H115.336V206.145H117.455V202.558ZM110.913 209.171C113.318 207.989 114.439 206.257 114.592 204.148H111.29V203.516H115.356C115.356 206.043 114.286 208.295 111.341 209.762L110.913 209.171ZM125.807 202.548H126.571V206.135H128.008V206.777H126.571V211.474H125.807V202.548ZM120.101 209.202V203.435H120.855V208.57C122.149 208.57 123.494 208.468 124.951 208.163L125.043 208.805C123.514 209.11 122.159 209.202 120.804 209.202H120.101ZM131.001 203.221H135.77V203.853H133.772V204.24C133.772 205.422 134.649 206.471 135.943 206.909L135.576 207.5C134.567 207.154 133.793 206.451 133.416 205.544C133.039 206.573 132.213 207.388 131.154 207.765L130.766 207.164C132.091 206.695 133.018 205.544 133.018 204.25V203.853H131.001V203.221ZM131.948 209.813C131.948 208.784 133.059 208.193 134.863 208.193C136.676 208.193 137.787 208.784 137.787 209.813C137.787 210.853 136.676 211.454 134.863 211.454C133.059 211.454 131.948 210.853 131.948 209.813ZM132.692 209.813C132.692 210.466 133.528 210.853 134.863 210.853C136.208 210.853 137.033 210.466 137.033 209.813C137.033 209.182 136.208 208.805 134.863 208.805C133.528 208.805 132.692 209.182 132.692 209.813ZM136.931 207.939V202.558H137.695V204.851H139.03V205.483H137.695V207.939H136.931ZM141.951 203.343H142.715V204.963C142.715 206.594 143.826 208.234 145.11 208.835L144.651 209.447C143.642 208.947 142.766 207.877 142.348 206.594C141.941 207.949 141.054 209.09 140.015 209.61L139.546 208.978C140.84 208.356 141.951 206.655 141.951 204.963V203.343ZM146.098 211.484V202.548H146.862V211.484H146.098ZM154.552 202.558H155.316V205.279H156.651V205.921H155.316V209.08H154.552V202.558ZM148.428 207.429C150.547 206.767 151.943 205.483 152.106 203.883H148.795V203.251H152.932C152.932 205.544 151.301 207.235 148.754 208.051L148.428 207.429ZM149.783 211.271V208.417H150.547V210.639H155.724V211.271H149.783ZM164.026 203.139C164.026 205.381 162.436 206.981 159.858 207.714L159.573 207.113C161.702 206.512 163.058 205.31 163.21 203.761H160.021V203.139H164.026ZM161.06 211.352V208.132H166.807V208.754H161.814V210.73H166.96V211.352H161.06ZM164.046 205.575V204.953H166.023V202.558H166.787V207.623H166.023V205.575H164.046ZM174.813 202.558H175.577V211.474H174.813V202.558ZM168.393 209.182C170.798 208.03 172.011 206.288 172.174 204.148H168.791V203.516H172.948C172.948 206.084 171.766 208.346 168.801 209.793L168.393 209.182ZM183.164 202.548H183.939V206.196H185.376V206.838H183.939V211.474H183.164V202.548ZM177.163 209.171C179.455 208.02 180.699 206.267 180.872 204.148H177.57V203.516H181.646C181.646 206.033 180.464 208.326 177.591 209.762L177.163 209.171ZM189.123 203.099H195.175V203.72C195.175 204.413 195.175 205.269 194.941 206.41L194.177 206.318C194.421 205.187 194.421 204.393 194.421 203.72H189.123V203.099ZM188.165 207.653V207.032H191.507V205.177H192.261V207.032H196.204V207.653H188.165ZM189.194 211.281V208.58H189.958V210.649H195.41V211.281H189.194ZM203.12 202.569H203.884V205.31H205.219V205.952H203.884V209.121H203.12V202.569ZM197.352 203.771V203.149H201.357V205.666H198.127V207.103C199.696 207.103 200.847 207.052 202.233 206.807L202.304 207.449C200.888 207.684 199.696 207.735 198.066 207.735H197.373V205.075H200.603V203.771H197.352ZM198.412 211.271V208.621H199.176V210.639H204.291V211.271H198.412ZM211.92 202.569H212.684V205.513H214.019V206.155H212.684V209.253H211.92V202.569ZM205.806 204.28V203.659H208.058V202.569H208.822V203.659H211.074V204.28H205.806ZM206.315 206.451C206.315 205.442 207.171 204.79 208.435 204.79C209.698 204.79 210.565 205.442 210.565 206.451C210.565 207.449 209.698 208.102 208.435 208.102C207.171 208.102 206.315 207.449 206.315 206.451ZM207.039 206.451C207.039 207.083 207.599 207.5 208.435 207.5C209.27 207.5 209.831 207.083 209.831 206.451C209.831 205.809 209.27 205.391 208.435 205.391C207.599 205.391 207.039 205.809 207.039 206.451ZM207.161 211.271V208.713H207.915V210.639H213.102V211.271H207.161ZM221.016 206.084H223.391V204.851H221.118C220.537 206.288 219.162 207.327 217.267 207.898L216.951 207.286C219.101 206.655 220.446 205.432 220.599 203.863H217.409V203.231H221.424C221.424 203.577 221.383 203.914 221.312 204.23H223.391V202.558H224.155V207.928H223.391V206.706H221.016V206.084ZM218.316 209.732C218.316 208.662 219.447 208.02 221.261 208.02C223.054 208.02 224.195 208.662 224.195 209.732C224.195 210.792 223.054 211.434 221.261 211.434C219.447 211.434 218.316 210.792 218.316 209.732ZM219.07 209.732C219.07 210.404 219.926 210.822 221.261 210.822C222.596 210.822 223.441 210.404 223.441 209.732C223.441 209.039 222.596 208.631 221.261 208.631C219.926 208.631 219.07 209.039 219.07 209.732ZM62.3558 223.684H70.4361V224.316H66.7475V227.474H65.9935V224.316H62.3558V223.684ZM63.2627 220.871C63.2627 219.679 64.516 218.935 66.3705 218.935C68.2352 218.935 69.4783 219.679 69.4783 220.871C69.4783 222.064 68.2352 222.818 66.3705 222.818C64.516 222.818 63.2627 222.064 63.2627 220.871ZM64.0473 220.871C64.0473 221.676 64.9847 222.206 66.3705 222.206C67.7563 222.206 68.7039 221.676 68.7039 220.871C68.7039 220.077 67.7563 219.547 66.3705 219.547C64.9847 219.547 64.0473 220.077 64.0473 220.871ZM79.9301 218.548H80.6943V227.484H79.9301V218.548ZM73.7451 222.349C73.7451 220.454 74.6825 219.251 76.0072 219.251C77.3216 219.251 78.2591 220.454 78.2591 222.349C78.2591 224.244 77.3216 225.457 76.0072 225.457C74.6825 225.457 73.7451 224.244 73.7451 222.349ZM74.4889 222.349C74.4889 223.806 75.1105 224.774 76.0072 224.774C76.8937 224.774 77.5254 223.806 77.5254 222.349C77.5254 220.892 76.8937 219.934 76.0072 219.934C75.1105 219.934 74.4889 220.892 74.4889 222.349ZM82.2396 222.981H85.8772V221.931H83.2585V218.976H89.2805V219.598H84.0126V221.299H89.3417V221.931H86.6313V222.981H90.2893V223.602H82.2396V222.981ZM83.2076 225.864C83.2076 224.845 84.3488 224.265 86.2543 224.265C88.1495 224.265 89.3009 224.845 89.3009 225.864C89.3009 226.894 88.1495 227.464 86.2543 227.464C84.3488 227.464 83.2076 226.894 83.2076 225.864ZM83.9718 225.864C83.9718 226.506 84.8379 226.863 86.2543 226.863C87.6706 226.863 88.5265 226.506 88.5265 225.864C88.5265 225.233 87.6706 224.866 86.2543 224.866C84.8379 224.866 83.9718 225.233 83.9718 225.864ZM97.184 218.528H97.9482V220.698H99.2933V221.34H97.9482V223.46H97.184V218.528ZM91.0703 219.975V219.374H93.3222V218.457H94.0864V219.374H96.3383V219.975H91.0703ZM91.5798 221.86C91.5798 220.953 92.4153 220.393 93.6992 220.393C94.9831 220.393 95.8288 220.953 95.8288 221.86C95.8288 222.757 94.9831 223.317 93.6992 223.317C92.4153 223.317 91.5798 222.757 91.5798 221.86ZM92.3032 221.86C92.3032 222.4 92.8535 222.757 93.6992 222.757C94.5449 222.757 95.0952 222.4 95.0952 221.86C95.0952 221.31 94.5449 220.963 93.6992 220.963C92.8535 220.963 92.3032 221.31 92.3032 221.86ZM92.3134 224.509V223.928H97.9482V225.885H93.0878V226.771H98.2743V227.372H92.344V225.324H97.1942V224.509H92.3134ZM105.741 218.885H106.535V219.394C106.535 220.658 108.186 221.748 109.755 221.982L109.439 222.594C108.084 222.359 106.719 221.585 106.148 220.494C105.588 221.605 104.212 222.359 102.837 222.594L102.521 221.982C104.11 221.748 105.741 220.688 105.741 219.394V218.885ZM102.103 224.234V223.602H110.163V224.234H106.495V227.474H105.741V224.234H102.103ZM115.418 224.061H116.152V224.55C116.152 225.355 116.58 226.201 117.415 226.69C118.281 226.15 118.719 225.243 118.719 224.55V224.061H119.463V224.55C119.463 225.477 120.146 226.394 121.267 226.781L120.89 227.352C120.014 227.036 119.392 226.404 119.076 225.661C118.811 226.384 118.271 227.077 117.446 227.434C116.59 227.097 116.04 226.445 115.775 225.691C115.459 226.404 114.847 227.026 114.002 227.352L113.614 226.781C114.735 226.374 115.418 225.406 115.418 224.55V224.061ZM113.38 221.167C113.38 219.934 114.348 219.088 115.693 219.088C117.038 219.088 118.006 219.934 118.006 221.167C118.006 222.39 117.038 223.225 115.693 223.225C114.348 223.225 113.38 222.39 113.38 221.167ZM114.124 221.167C114.124 222.013 114.786 222.594 115.693 222.594C116.61 222.594 117.262 222.013 117.262 221.167C117.262 220.321 116.61 219.73 115.693 219.73C114.786 219.73 114.124 220.321 114.124 221.167ZM119.698 223.663V218.569H120.472V223.663H119.698ZM123.016 219.272H129.017V219.903H123.78V222.736H129.119V223.368H126.378V225.691H130.057V226.333H121.977V225.691H125.624V223.368H123.016V219.272ZM130.787 223.48H134.435V222.502H131.836V220.362H137.064V219.404H131.816V218.793H137.818V220.922H132.58V221.901H138.011V222.502H135.199V223.48H138.867V224.112H130.787V223.48ZM131.684 225.436V224.805H137.869V227.383H137.104V225.436H131.684ZM142.889 219.272H148.891V219.903H143.654V222.736H148.993V223.368H146.252V225.691H149.93V226.333H141.85V225.691H145.498V223.368H142.889V219.272ZM153.33 219.139C154.695 219.139 155.674 219.995 155.674 221.228C155.674 222.349 154.879 223.144 153.717 223.297V224.825C154.543 224.784 155.378 224.723 156.153 224.621L156.214 225.192C154.339 225.508 152.24 225.528 150.681 225.528L150.559 224.886C151.272 224.886 152.097 224.886 152.953 224.856V223.297C151.781 223.154 150.976 222.359 150.976 221.228C150.976 219.995 151.955 219.139 153.33 219.139ZM151.72 221.228C151.72 222.074 152.393 222.665 153.33 222.665C154.257 222.665 154.93 222.074 154.93 221.228C154.93 220.382 154.257 219.791 153.33 219.791C152.393 219.791 151.72 220.382 151.72 221.228ZM156.723 227.474V218.558H157.477V222.257H158.924V222.899H157.477V227.474H156.723ZM160.51 219.384H166.512V220.016H161.264V222.848H166.614V223.47H160.51V219.384ZM159.471 226.241V225.61H167.551V226.241H159.471ZM174.833 218.548H175.587V227.484H174.833V223.674H172.979V223.052H174.833V221.238H173.04V220.607H174.833V218.548ZM168.587 220.005V219.374H172.469V222.532H169.361V224.754C170.706 224.754 171.817 224.703 173.162 224.489L173.233 225.131C171.827 225.355 170.686 225.396 169.27 225.396H168.607V221.901H171.715V220.005H168.587ZM177.092 225.681H179.099V223.246C178.345 222.858 177.886 222.217 177.886 221.412C177.886 220.026 179.242 219.129 181.116 219.129C183.012 219.129 184.346 220.026 184.346 221.412C184.346 222.206 183.898 222.838 183.164 223.235V225.681H185.172V226.313H177.092V225.681ZM178.63 221.412C178.63 222.42 179.669 223.083 181.116 223.083C182.563 223.083 183.613 222.42 183.613 221.412C183.613 220.403 182.563 219.74 181.116 219.74C179.669 219.74 178.63 220.403 178.63 221.412ZM179.853 225.681H182.4V223.531C182.013 223.633 181.585 223.684 181.116 223.684C180.658 223.684 180.24 223.633 179.853 223.531V225.681Z" fill="#616161"/>
<path fill-rule="evenodd" clip-rule="evenodd" d="M43.5238 255.742C42.0032 255.742 40.7655 256.966 40.7475 258.486L40.5686 273.582C40.5644 273.933 40.2759 274.215 39.9242 274.211C39.5725 274.207 39.2908 273.918 39.295 273.567L39.4739 258.471C39.5002 256.253 41.3057 254.469 43.5238 254.469C45.7606 254.469 47.5739 256.282 47.5739 258.519V261.882C47.5739 262.233 47.2888 262.518 46.9371 262.518C46.5853 262.518 46.3002 262.233 46.3002 261.882V258.519C46.3002 256.986 45.0572 255.742 43.5238 255.742Z" fill="#BDBDBD"/>
<path fill-rule="evenodd" clip-rule="evenodd" d="M43.5437 255.742C42.0214 255.742 40.7874 256.977 40.7874 258.499V258.927C40.7874 259.278 40.5022 259.564 40.1505 259.564C39.7988 259.564 39.5137 259.278 39.5137 258.927V258.499C39.5137 256.273 41.318 254.469 43.5437 254.469C45.7694 254.469 47.5737 256.273 47.5737 258.499V258.927C47.5737 259.278 47.2886 259.564 46.9369 259.564C46.5852 259.564 46.3001 259.278 46.3001 258.927V258.499C46.3001 256.976 45.066 255.742 43.5437 255.742Z" fill="url(#paint5_linear_1099_78743)"/>
<path fill-rule="evenodd" clip-rule="evenodd" d="M30.6974 253.832C30.3457 253.832 30.0605 254.117 30.0605 254.469C30.0605 254.821 30.3457 255.106 30.6974 255.106H33.5632V273.574C33.5632 273.926 33.8483 274.211 34.2 274.211C34.5518 274.211 34.8369 273.926 34.8369 273.574V255.106H37.7027C38.0544 255.106 38.3395 254.821 38.3395 254.469C38.3395 254.117 38.0544 253.832 37.7027 253.832H30.6974Z" fill="#BDBDBD"/>
<ellipse cx="34.207" cy="273.588" rx="0.643545" ry="0.650042" fill="#333333"/>
<ellipse cx="39.9385" cy="273.588" rx="0.643545" ry="0.650042" fill="#333333"/>
<path fill-rule="evenodd" clip-rule="evenodd" d="M31.334 254.469C31.334 254.117 31.6191 253.832 31.9708 253.832H36.4287C36.7805 253.832 37.0656 254.117 37.0656 254.469C37.0656 254.821 36.7805 255.106 36.4287 255.106H31.9708C31.6191 255.106 31.334 254.821 31.334 254.469Z" fill="url(#paint6_linear_1099_78743)"/>
<path d="M62.6246 253.239H68.3791V254.408H66.224V255.062C66.224 256.736 67.1067 258.501 68.7918 259.212L68.0123 260.335C66.8316 259.819 65.9948 258.787 65.5362 257.549C65.0777 258.902 64.2294 260.037 63.0258 260.587L62.2234 259.464C63.9085 258.696 64.7911 256.804 64.7911 255.062V254.408H62.6246V253.239ZM69.3764 262.524V252.253H70.7978V262.524H69.3764ZM72.445 253.021H77.9359V254.168H77.0991V256.69C77.5117 256.655 77.913 256.609 78.3027 256.564L78.3944 257.595C76.3654 257.962 74.0269 258.008 72.3304 258.008L72.1813 256.85H73.2704V254.168H72.445V253.021ZM73.4767 260.576C73.4767 259.349 74.8064 258.627 76.9386 258.627C79.0822 258.627 80.4005 259.349 80.4005 260.576C80.4005 261.802 79.0822 262.524 76.9386 262.524C74.8064 262.524 73.4767 261.802 73.4767 260.576ZM74.6459 256.827C75.0013 256.816 75.3681 256.804 75.7349 256.781V254.168H74.6459V256.827ZM74.8867 260.576C74.8867 261.137 75.5859 261.435 76.9386 261.435C78.2798 261.435 79.002 261.137 79.002 260.576C79.002 260.014 78.2798 259.727 76.9386 259.727C75.5859 259.727 74.8867 260.014 74.8867 260.576ZM78.8759 258.444V252.253H80.2973V254.695H81.6844V255.864H80.2973V258.444H78.8759ZM89.2236 252.23H90.6565V262.536H89.2236V252.23ZM82.4374 256.621C82.4374 254.374 83.5837 252.964 85.1427 252.964C86.6902 252.964 87.8251 254.374 87.8251 256.621C87.8251 258.879 86.6902 260.289 85.1427 260.289C83.5837 260.289 82.4374 258.879 82.4374 256.621ZM83.813 256.621C83.813 258.157 84.3517 259.005 85.1427 259.005C85.9222 259.005 86.461 258.157 86.461 256.621C86.461 255.085 85.9222 254.248 85.1427 254.248C84.3517 254.248 83.813 255.085 83.813 256.621Z" fill="#1A1A1A"/>
<path d="M68.9077 274.484H69.6719V279.059H68.9077V277.276H66.9309V276.655H68.9077V274.484ZM62.4883 278.631C64.6281 278.102 65.9018 277.011 66.0546 275.554H62.957V274.922H66.8698C66.8698 277.134 65.3108 278.601 62.7634 279.243L62.4883 278.631ZM63.9556 280.078V279.457H69.6719V281.617H64.73V282.697H69.9776V283.308H63.976V281.026H68.9077V280.078H63.9556ZM73.5302 275.177C74.7427 275.177 75.619 276.227 75.7311 277.908H77.7282V274.474H78.4823V283.41H77.7282V278.519H75.7311C75.6598 280.272 74.7631 281.383 73.5302 281.383C72.2361 281.383 71.319 280.17 71.319 278.275C71.319 276.379 72.2361 275.177 73.5302 275.177ZM72.0425 278.275C72.0425 279.732 72.6539 280.7 73.5302 280.7C74.4166 280.7 75.0178 279.732 75.0178 278.275C75.0178 276.818 74.4166 275.86 73.5302 275.86C72.6539 275.86 72.0425 276.818 72.0425 278.275ZM88.3125 274.474H89.0768V278.02H90.5542V278.662H89.0768V283.41H88.3125V274.474ZM82.6268 281.179V275.361H86.7637V275.982H83.3808V280.527C85.0213 280.527 86.1524 280.476 87.4566 280.221L87.5483 280.873C86.1727 281.128 85.0111 281.179 83.3197 281.179H82.6268ZM97.561 274.484H98.3151V283.4H97.561V274.484ZM91.6104 281.087V275.361H92.3746V280.425C93.7196 280.425 95.1156 280.323 96.6134 280.007L96.7153 280.659C95.1563 280.975 93.7502 281.087 92.344 281.087H91.6104ZM106.382 274.484H107.146V283.4H106.382V274.484ZM99.9622 281.107C102.367 279.956 103.579 278.214 103.743 276.074H100.36V275.442H104.517C104.517 278.01 103.335 280.272 100.37 281.719L99.9622 281.107ZM111.993 274.627H112.747V275.483H117.149V274.627H117.914V277.561H111.993V274.627ZM110.913 278.937V278.316H118.963V278.937H115.315V279.844H117.924V281.79H112.666V282.697H118.199V283.298H111.922V281.24H117.18V280.425H111.892V279.844H114.551V278.937H110.913ZM112.747 276.96H117.149V276.074H112.747V276.96ZM126.276 274.484H127.04V281.128H126.276V278.509H124.737V277.877H126.276V276.818H124.737V276.186H126.276V274.484ZM119.744 279.1C120.101 279.1 120.488 279.1 120.895 279.09V275.839H119.989V275.208H124.676V275.839H123.779V278.988C124.187 278.957 124.594 278.927 124.971 278.876L125.012 279.457C123.3 279.722 121.272 279.752 119.836 279.752L119.744 279.1ZM121.354 283.196V280.578H122.108V282.565H127.274V283.196H121.354ZM121.639 279.08C122.098 279.07 122.567 279.059 123.035 279.029V275.839H121.639V279.08ZM134.678 274.494H135.443V277.439H136.777V278.081H135.443V281.179H134.678V274.494ZM128.565 276.206V275.585H130.816V274.494H131.581V275.585H133.833V276.206H128.565ZM129.074 278.377C129.074 277.368 129.93 276.716 131.193 276.716C132.457 276.716 133.323 277.368 133.323 278.377C133.323 279.375 132.457 280.027 131.193 280.027C129.93 280.027 129.074 279.375 129.074 278.377ZM129.798 278.377C129.798 279.008 130.358 279.426 131.193 279.426C132.029 279.426 132.589 279.008 132.589 278.377C132.589 277.735 132.029 277.317 131.193 277.317C130.358 277.317 129.798 277.735 129.798 278.377ZM129.92 283.196V280.639H130.674V282.565H135.86V283.196H129.92ZM143.775 278.01H146.149V276.777H143.877C143.296 278.214 141.92 279.253 140.025 279.824L139.709 279.212C141.859 278.58 143.204 277.358 143.357 275.789H140.168V275.157H144.183C144.183 275.503 144.142 275.839 144.07 276.155H146.149V274.484H146.913V279.854H146.149V278.631H143.775V278.01ZM141.075 281.658C141.075 280.588 142.206 279.946 144.019 279.946C145.813 279.946 146.954 280.588 146.954 281.658C146.954 282.717 145.813 283.359 144.019 283.359C142.206 283.359 141.075 282.717 141.075 281.658ZM141.829 281.658C141.829 282.33 142.685 282.748 144.019 282.748C145.354 282.748 146.2 282.33 146.2 281.658C146.2 280.965 145.354 280.557 144.019 280.557C142.685 280.557 141.829 280.965 141.829 281.658ZM148.408 279.61H156.488V280.241H152.799V283.4H152.045V280.241H148.408V279.61ZM149.314 276.797C149.314 275.605 150.568 274.861 152.422 274.861C154.287 274.861 155.53 275.605 155.53 276.797C155.53 277.989 154.287 278.743 152.422 278.743C150.568 278.743 149.314 277.989 149.314 276.797ZM150.099 276.797C150.099 277.602 151.036 278.132 152.422 278.132C153.808 278.132 154.756 277.602 154.756 276.797C154.756 276.002 153.808 275.473 152.422 275.473C151.036 275.473 150.099 276.002 150.099 276.797ZM165.982 274.474H166.746V283.41H165.982V274.474ZM159.797 278.275C159.797 276.379 160.734 275.177 162.059 275.177C163.373 275.177 164.311 276.379 164.311 278.275C164.311 280.17 163.373 281.383 162.059 281.383C160.734 281.383 159.797 280.17 159.797 278.275ZM160.541 278.275C160.541 279.732 161.162 280.7 162.059 280.7C162.945 280.7 163.577 279.732 163.577 278.275C163.577 276.818 162.945 275.86 162.059 275.86C161.162 275.86 160.541 276.818 160.541 278.275ZM168.291 278.907H171.929V277.857H169.31V274.902H175.332V275.524H170.064V277.225H175.393V277.857H172.683V278.907H176.341V279.528H168.291V278.907ZM169.259 281.79C169.259 280.771 170.401 280.19 172.306 280.19C174.201 280.19 175.353 280.771 175.353 281.79C175.353 282.819 174.201 283.39 172.306 283.39C170.401 283.39 169.259 282.819 169.259 281.79ZM170.024 281.79C170.024 282.432 170.89 282.789 172.306 282.789C173.722 282.789 174.578 282.432 174.578 281.79C174.578 281.158 173.722 280.792 172.306 280.792C170.89 280.792 170.024 281.158 170.024 281.79ZM183.236 274.454H184V276.624H185.345V277.266H184V279.385H183.236V274.454ZM177.122 275.901V275.299H179.374V274.382H180.138V275.299H182.39V275.901H177.122ZM177.632 277.786C177.632 276.879 178.467 276.318 179.751 276.318C181.035 276.318 181.881 276.879 181.881 277.786C181.881 278.682 181.035 279.243 179.751 279.243C178.467 279.243 177.632 278.682 177.632 277.786ZM178.355 277.786C178.355 278.326 178.905 278.682 179.751 278.682C180.597 278.682 181.147 278.326 181.147 277.786C181.147 277.235 180.597 276.889 179.751 276.889C178.905 276.889 178.355 277.235 178.355 277.786ZM178.365 280.435V279.854H184V281.811H179.14V282.697H184.326V283.298H178.396V281.25H183.246V280.435H178.365ZM191.792 274.81H192.587V275.32C192.587 276.583 194.238 277.674 195.807 277.908L195.491 278.519C194.136 278.285 192.771 277.511 192.2 276.42C191.64 277.531 190.264 278.285 188.888 278.519L188.572 277.908C190.162 277.674 191.792 276.614 191.792 275.32V274.81ZM188.155 280.16V279.528H196.215V280.16H192.546V283.4H191.792V280.16H188.155ZM201.47 279.987H202.203V280.476C202.203 281.281 202.631 282.126 203.467 282.615C204.333 282.075 204.771 281.169 204.771 280.476V279.987H205.515V280.476C205.515 281.403 206.198 282.32 207.319 282.707L206.942 283.278C206.065 282.962 205.444 282.33 205.128 281.586C204.863 282.31 204.323 283.003 203.498 283.359C202.642 283.023 202.091 282.371 201.826 281.617C201.511 282.33 200.899 282.952 200.053 283.278L199.666 282.707C200.787 282.3 201.47 281.332 201.47 280.476V279.987ZM199.432 277.093C199.432 275.86 200.4 275.014 201.745 275.014C203.09 275.014 204.058 275.86 204.058 277.093C204.058 278.316 203.09 279.151 201.745 279.151C200.4 279.151 199.432 278.316 199.432 277.093ZM200.176 277.093C200.176 277.938 200.838 278.519 201.745 278.519C202.662 278.519 203.314 277.938 203.314 277.093C203.314 276.247 202.662 275.656 201.745 275.656C200.838 275.656 200.176 276.247 200.176 277.093ZM205.749 279.589V274.494H206.524V279.589H205.749ZM209.068 275.198H215.069V275.829H209.832V278.662H215.171V279.294H212.43V281.617H216.109V282.259H208.028V281.617H211.676V279.294H209.068V275.198ZM216.839 279.406H220.486V278.428H217.888V276.288H223.115V275.33H217.868V274.719H223.869V276.848H218.632V277.826H224.063V278.428H221.251V279.406H224.919V280.038H216.839V279.406ZM217.735 281.362V280.73H223.92V283.308H223.156V281.362H217.735ZM63.3952 291.198H69.3968V291.829H64.1594V294.662H69.4987V295.294H66.7577V297.617H70.4361V298.259H62.3558V297.617H66.0037V295.294H63.3952V291.198ZM73.8358 291.065C75.2012 291.065 76.1794 291.921 76.1794 293.154C76.1794 294.275 75.3846 295.07 74.223 295.222V296.751C75.0484 296.71 75.8839 296.649 76.6583 296.547L76.7195 297.118C74.8446 297.434 72.7456 297.454 71.1866 297.454L71.0643 296.812C71.7776 296.812 72.6029 296.812 73.4588 296.781V295.222C72.287 295.08 71.4821 294.285 71.4821 293.154C71.4821 291.921 72.4603 291.065 73.8358 291.065ZM72.2259 293.154C72.2259 294 72.8984 294.591 73.8358 294.591C74.7631 294.591 75.4356 294 75.4356 293.154C75.4356 292.308 74.7631 291.717 73.8358 291.717C72.8984 291.717 72.2259 292.308 72.2259 293.154ZM77.229 299.4V290.484H77.983V294.183H79.4299V294.825H77.983V299.4H77.229ZM81.0159 291.31H87.0175V291.941H81.7699V294.774H87.1194V295.396H81.0159V291.31ZM79.9765 298.167V297.535H88.0568V298.167H79.9765ZM95.3388 290.474H96.0928V299.41H95.3388V295.599H93.4843V294.978H95.3388V293.164H93.5454V292.532H95.3388V290.474ZM89.0926 291.931V291.299H92.9748V294.458H89.867V296.679C91.212 296.679 92.3227 296.629 93.6677 296.415L93.739 297.056C92.3329 297.281 91.1916 297.321 89.7753 297.321H89.113V293.826H92.2208V291.931H89.0926ZM97.5973 297.607H99.6046V295.171C98.8506 294.784 98.3921 294.142 98.3921 293.337C98.3921 291.952 99.7473 291.055 101.622 291.055C103.517 291.055 104.852 291.952 104.852 293.337C104.852 294.132 104.404 294.764 103.67 295.161V297.607H105.678V298.238H97.5973V297.607ZM99.1359 293.337C99.1359 294.346 100.175 295.008 101.622 295.008C103.069 295.008 104.119 294.346 104.119 293.337C104.119 292.329 103.069 291.666 101.622 291.666C100.175 291.666 99.1359 292.329 99.1359 293.337ZM100.359 297.607H102.906V295.457C102.519 295.559 102.091 295.61 101.622 295.61C101.164 295.61 100.746 295.559 100.359 295.457V297.607Z" fill="#616161"/>
</g>
</g>
<defs>
<filter id="filter0_dd_1099_78743" x="0.810471" y="0.929649" width="249.644" height="323.943" filterUnits="userSpaceOnUse" color-interpolation-filters="sRGB">
<feFlood flood-opacity="0" result="BackgroundImageFix"/>
<feColorMatrix in="SourceAlpha" type="matrix" values="0 0 0 0 0 0 0 0 0 0 0 0 0 0 0 0 0 0 127 0" result="hardAlpha"/>
<feOffset/>
<feGaussianBlur stdDeviation="2.54738"/>
<feComposite in2="hardAlpha" operator="out"/>
<feColorMatrix type="matrix" values="0 0 0 0 0 0 0 0 0 0 0 0 0 0 0 0 0 0 0.12 0"/>
<feBlend mode="normal" in2="BackgroundImageFix" result="effect1_dropShadow_1099_78743"/>
<feColorMatrix in="SourceAlpha" type="matrix" values="0 0 0 0 0 0 0 0 0 0 0 0 0 0 0 0 0 0 127 0" result="hardAlpha"/>
<feOffset dy="5.09476"/>
<feGaussianBlur stdDeviation="5.09476"/>
<feComposite in2="hardAlpha" operator="out"/>
<feColorMatrix type="matrix" values="0 0 0 0 0 0 0 0 0 0 0 0 0 0 0 0 0 0 0.12 0"/>
<feBlend mode="normal" in2="effect1_dropShadow_1099_78743" result="effect2_dropShadow_1099_78743"/>
<feBlend mode="normal" in="SourceGraphic" in2="effect2_dropShadow_1099_78743" result="shape"/>
</filter>
<linearGradient id="paint0_linear_1099_78743" x1="38.9109" y1="110.301" x2="39.3393" y2="112.066" gradientUnits="userSpaceOnUse">
<stop stop-color="#FF8120"/>
<stop offset="1" stop-color="#E54304"/>
</linearGradient>
<linearGradient id="paint1_linear_1099_78743" x1="34.3191" y1="112.981" x2="34.7475" y2="114.747" gradientUnits="userSpaceOnUse">
<stop stop-color="#FF8120"/>
<stop offset="1" stop-color="#E54304"/>
</linearGradient>
<linearGradient id="paint2_linear_1099_78743" x1="28.6805" y1="181.134" x2="29.0587" y2="182.677" gradientUnits="userSpaceOnUse">
<stop stop-color="#FF8120"/>
<stop offset="1" stop-color="#E54304"/>
</linearGradient>
<linearGradient id="paint3_linear_1099_78743" x1="47.109" y1="200.844" x2="48.0566" y2="202.104" gradientUnits="userSpaceOnUse">
<stop stop-color="#FF8120"/>
<stop offset="1" stop-color="#E54304"/>
</linearGradient>
<linearGradient id="paint4_linear_1099_78743" x1="36.6739" y1="187.379" x2="36.9465" y2="188.967" gradientUnits="userSpaceOnUse">
<stop stop-color="#FF8120"/>
<stop offset="1" stop-color="#E54304"/>
</linearGradient>
<linearGradient id="paint5_linear_1099_78743" x1="41.7806" y1="255.371" x2="43.6912" y2="259.774" gradientUnits="userSpaceOnUse">
<stop stop-color="#FF8120"/>
<stop offset="1" stop-color="#E54304"/>
</linearGradient>
<linearGradient id="paint6_linear_1099_78743" x1="32.946" y1="254.058" x2="33.141" y2="255.336" gradientUnits="userSpaceOnUse">
<stop stop-color="#FF8120"/>
<stop offset="1" stop-color="#E54304"/>
</linearGradient>
<clipPath id="clip0_1099_78743">
<path d="M11 28.1017C11 15.9087 20.8843 6.02441 33.0773 6.02441H218.187C230.38 6.02441 240.264 15.9088 240.264 28.1017V309.587H11V28.1017Z" fill="white"/>
</clipPath>
</defs>
</svg>
