<svg width="105" height="50" viewBox="0 0 105 50" fill="none" xmlns="http://www.w3.org/2000/svg">
<mask id="path-1-inside-1_790_21402" fill="white">
<path d="M0 5.79781C0 2.59577 2.59577 0 5.79781 0H99.2022C102.404 0 105 2.59577 105 5.79781V44.2022C105 47.4042 102.404 50 99.2022 50H5.79781C2.59577 50 0 47.4042 0 44.2022V5.79781Z"/>
</mask>
<path d="M5.79781 1H99.2022V-1H5.79781V1ZM104 5.79781V44.2022H106V5.79781H104ZM99.2022 49H5.79781V51H99.2022V49ZM1 44.2022V5.79781H-1V44.2022H1ZM5.79781 49C3.14805 49 1 46.8519 1 44.2022H-1C-1 47.9565 2.04348 51 5.79781 51V49ZM104 44.2022C104 46.8519 101.852 49 99.2022 49V51C102.957 51 106 47.9565 106 44.2022H104ZM99.2022 1C101.852 1 104 3.14805 104 5.79781H106C106 2.04348 102.957 -1 99.2022 -1V1ZM5.79781 -1C2.04348 -1 -1 2.04348 -1 5.79781H1C1 3.14805 3.14805 1 5.79781 1V-1Z" fill="#FF8120" mask="url(#path-1-inside-1_790_21402)"/>
<path d="M32.668 29.48C34.188 29.48 35.036 28.44 35.036 26.984C35.036 25.544 34.188 24.488 32.668 24.488C31.404 24.488 30.268 25.48 30.268 26.984C30.268 28.504 31.404 29.48 32.668 29.48ZM28.604 31V19H30.268V24.28C30.972 23.224 31.996 22.856 32.796 22.856C35.308 22.856 36.7 24.76 36.7 26.984C36.7 29.224 35.292 31.128 32.78 31.128C31.996 31.128 31.004 30.856 30.268 29.688V31H28.604ZM39.9301 27.4C39.9301 28.616 40.6661 29.48 41.9781 29.48C43.2901 29.48 44.1381 28.44 44.1221 27.32V22.728H45.7861V31.112H44.1221V29.864C43.5461 30.712 42.8261 31.112 41.7701 31.112C39.9621 31.112 38.2661 29.8 38.2661 27.48V22.76H39.9301V27.4ZM52.5754 30.904C52.2394 30.984 51.5354 31.112 50.9754 31.08C49.7274 31.016 48.5434 29.944 48.5434 28.552V24.312H47.1194V22.68H48.5434V19.848H50.2074V22.68H52.3674V24.312H50.2074V28.552C50.2074 29.096 50.5434 29.4 51.0874 29.416C51.4554 29.432 51.9194 29.352 52.2074 29.288L52.5754 30.904ZM58.2535 30.904C57.9175 30.984 57.2135 31.112 56.6535 31.08C55.4055 31.016 54.2215 29.944 54.2215 28.552V24.312H52.7975V22.68H54.2215V19.848H55.8855V22.68H58.0455V24.312H55.8855V28.552C55.8855 29.096 56.2215 29.4 56.7655 29.416C57.1335 29.432 57.5975 29.352 57.8855 29.288L58.2535 30.904ZM62.9035 29.528C64.4075 29.528 65.2875 28.44 65.2875 26.952C65.2875 25.448 64.4075 24.36 62.9035 24.36C61.3995 24.36 60.5355 25.448 60.5355 26.952C60.5355 28.44 61.3995 29.528 62.9035 29.528ZM58.8715 26.952C58.8715 24.664 60.4075 22.712 62.9035 22.712C65.4635 22.712 66.9515 24.664 66.9515 26.952C66.9515 29.224 65.4635 31.176 62.9035 31.176C60.4075 31.176 58.8715 29.224 58.8715 26.952ZM74.2096 26.472C74.2096 25.208 73.4896 24.408 72.1776 24.408C70.9456 24.408 70.0016 25.448 70.0176 26.568V31.112H68.3536V22.76H70.0176V24.088C70.5776 23.288 71.3136 22.76 72.3696 22.76C74.0016 22.76 75.8736 24.008 75.8736 26.408V31.112H74.2096V26.472Z" fill="#FF8120"/>
</svg>
