<svg width="294" height="235" viewBox="0 0 294 235" fill="none" xmlns="http://www.w3.org/2000/svg">
<g filter="url(#filter0_dd_1130_60668)">
<g clip-path="url(#clip0_1130_60668)">
<path d="M23 32.3697C23 25.5958 28.4913 20.1045 35.2652 20.1045H259.105C265.878 20.1045 271.37 25.5958 271.37 32.3697V287.792H23V32.3697Z" fill="white"/>
<mask id="path-2-inside-1_1130_60668" fill="white">
<path d="M39.5576 20.1045H254.811V95.4995H39.5576V20.1045Z"/>
</mask>
<path d="M254.811 95.4995V94.8095H39.5576V95.4995V96.1894H254.811V95.4995Z" fill="#EEEEEE" mask="url(#path-2-inside-1_1130_60668)"/>
<path d="M39.944 47.0509H43.4018V46.0175H40.9678V42.8783H41.6826V43.8539H45.8552V42.8783H46.5796V46.0175H44.1166V47.0509H47.5744V47.6498H39.944V47.0509ZM40.7939 49.0986V48.5094H46.6279V51.127H45.9131V49.0986H40.7939ZM41.6826 45.4379H45.8552V44.4237H41.6826V45.4379ZM48.5433 43.5448H53.2665V44.1533H51.2574V45.293C51.2574 46.7322 52.3199 48.181 53.5369 48.7123L53.1216 49.2918C52.1557 48.8378 51.2961 47.8526 50.9001 46.6839C50.5137 47.9299 49.6637 49.0117 48.6979 49.4946L48.2825 48.9248C49.4706 48.3452 50.533 46.7515 50.533 45.293V44.1533H48.5433V43.5448ZM54.4449 51.127V42.6755H55.1693V51.127H54.4449ZM56.6211 46.8771H58.5239V45.6697C57.8477 45.3993 57.471 44.9743 57.471 44.4044C57.471 43.4096 58.6108 42.8397 60.4363 42.8397C62.2618 42.8397 63.4016 43.4096 63.4016 44.4044C63.4016 44.9743 63.0249 45.3993 62.3584 45.6601V46.8771H64.2515V47.4566H56.6211V46.8771ZM57.5483 49.6105C57.5483 48.664 58.6301 48.1231 60.4363 48.1231C62.2425 48.1231 63.3243 48.664 63.3243 49.6105C63.3243 50.5764 62.2425 51.1173 60.4363 51.1173C58.6301 51.1173 57.5483 50.5764 57.5483 49.6105ZM58.2148 44.4044C58.2148 45.0226 59.0744 45.3993 60.4363 45.3993C61.7982 45.3993 62.6578 45.0226 62.6578 44.4044C62.6578 43.7766 61.7982 43.3999 60.4363 43.3999C59.0744 43.3999 58.2148 43.7766 58.2148 44.4044ZM58.2727 49.6105C58.2727 50.2094 59.0841 50.5474 60.4363 50.5474C61.7789 50.5474 62.5902 50.2094 62.5902 49.6105C62.5902 49.031 61.7789 48.6833 60.4363 48.6833C59.0841 48.6833 58.2727 49.031 58.2727 49.6105ZM59.2386 46.8771H61.6437V45.8629C61.2863 45.9209 60.8806 45.9595 60.4363 45.9595C59.992 45.9595 59.596 45.9305 59.2386 45.8629V46.8771ZM65.9352 43.2357H71.5856V43.9698C71.5856 44.7715 71.5856 45.6408 71.3441 46.8674H72.5997V47.4759H69.1322V51.1463H68.3982V47.4759H64.9596V46.8674H70.61C70.8708 45.6601 70.8708 44.7618 70.8708 43.9698V43.8249H65.9352V43.2357Z" fill="#616161"/>
<path d="M39.9798 66.6986H44.2891V65.6057H41.2838V61.4083H42.6001V62.5011H47.344V61.4083H48.6728V65.6057H45.6178V66.6986H49.9519V67.7666H39.9798V66.6986ZM41.0851 69.7287V68.6731H48.7349V72.1751H47.4061V69.7287H41.0851ZM42.6001 64.5502H47.344V63.5194H42.6001V64.5502ZM51.0657 62.2155H57.2625V63.3332H54.8409V64.2894C54.8409 66.1149 55.9213 68.0149 57.6723 68.7476L56.9272 69.8032C55.6481 69.2319 54.6919 68.0646 54.1827 66.6613C53.686 68.1764 52.7174 69.4679 51.4258 70.0764L50.6683 69.0332C52.4069 68.226 53.4873 66.1646 53.4873 64.2894V63.3332H51.0657V62.2155ZM58.4795 72.1751V61.1351H59.8207V72.1751H58.4795ZM61.481 66.475H63.8156V65.0469C62.996 64.6868 62.5241 64.1279 62.5241 63.4077C62.5241 62.0913 64.0516 61.3214 66.4732 61.3214C68.8824 61.3214 70.4223 62.0913 70.4223 63.4077C70.4223 64.1279 69.9504 64.6992 69.1059 65.0593V66.475H71.453V67.5182H61.481V66.475ZM62.6483 70.1882C62.6483 68.9215 64.0764 68.2012 66.4608 68.2012C68.8327 68.2012 70.2608 68.9215 70.2608 70.1882C70.2608 71.4548 68.8327 72.1751 66.4608 72.1751C64.0764 72.1751 62.6483 71.4548 62.6483 70.1882ZM63.9026 63.4077C63.9026 64.0907 64.8588 64.4757 66.4732 64.4757C68.0876 64.4757 69.0438 64.0907 69.0438 63.4077C69.0438 62.7122 68.0876 62.3397 66.4732 62.3397C64.8588 62.3397 63.9026 62.7122 63.9026 63.4077ZM63.9895 70.1882C63.9895 70.8339 64.8588 71.1568 66.4608 71.1568C68.0379 71.1568 68.9072 70.8339 68.9072 70.1882C68.9072 69.5548 68.0379 69.2195 66.4608 69.2195C64.8588 69.2195 63.9895 69.5548 63.9895 70.1882ZM65.1444 66.475H67.7771V65.407C67.3798 65.4691 66.9451 65.494 66.4732 65.494C65.9889 65.494 65.5542 65.4691 65.1444 65.407V66.475ZM73.4361 61.8181H80.9866V62.7867C80.9866 63.8299 80.9866 64.96 80.7009 66.5371H82.216V67.63H77.8695V72.2H76.5159V67.63H72.2315V66.5371H79.3597C79.6578 65.0345 79.6702 63.892 79.6702 62.8861H73.4361V61.8181ZM93.5146 61.1475H94.8434V69.1947H93.5146V61.1475ZM85.7655 66.6116C87.5289 65.9783 88.4479 64.4136 88.4479 62.8364V61.7436H89.8015V62.8364C89.8015 64.3639 90.7081 65.8293 92.4467 66.4254L91.7636 67.4809C90.5218 67.0339 89.6277 66.1397 89.1433 65.0097C88.659 66.2267 87.7401 67.1953 86.4485 67.6796L85.7655 66.6116ZM87.6159 71.964V68.4372H88.9571V70.8836H95.1663V71.964H87.6159ZM96.7769 62.3521H99.0867V61.0978H100.415V62.3521H102.7V63.4201H100.415V63.4698C100.415 64.724 101.347 65.9038 103.073 66.3757L102.465 67.4064C101.198 67.0587 100.291 66.3136 99.7821 65.3574C99.2978 66.4378 98.3789 67.2947 97.0873 67.692L96.4416 66.6489C98.1677 66.1273 99.0867 64.8358 99.0867 63.4698V63.4201H96.7769V62.3521ZM98.2174 70.1012C98.2174 68.7973 99.6455 68.0398 101.968 68.0398C104.278 68.0398 105.693 68.7973 105.693 70.1012C105.693 71.4052 104.278 72.1627 101.968 72.1627C99.6455 72.1627 98.2174 71.4052 98.2174 70.1012ZM99.5586 70.1012C99.5586 70.7718 100.415 71.1444 101.968 71.1444C103.495 71.1444 104.365 70.7718 104.365 70.1012C104.365 69.4306 103.495 69.0705 101.968 69.0705C100.415 69.0705 99.5586 69.4306 99.5586 70.1012ZM102.39 65.2456V64.1652H104.315V61.1351H105.656V67.8038H104.315V65.2456H102.39ZM115.936 63.4822H117.824V61.1351H119.153V66.7855H117.824V64.5502H115.936V63.4822ZM109.951 65.941C111.677 65.3698 112.621 64.0162 112.621 62.7371V62.6874H110.336V61.607H116.247V62.6874H113.974V62.7371C113.974 63.9665 114.868 65.1959 116.533 65.6927L115.912 66.7358C114.67 66.3633 113.788 65.5809 113.316 64.5874C112.819 65.6803 111.888 66.5744 110.596 66.9718L109.951 65.941ZM111.95 68.313V67.2822H119.153V70.1137H113.291V71.0202H119.525V72.0634H111.963V69.1326H117.836V68.313H111.95ZM120.937 62.9854H123.284V61.3586H124.613V62.9854H126.923V64.041H124.613V64.6247C124.613 66.2888 125.532 68.077 127.196 68.8842L126.476 69.9025C125.284 69.3313 124.427 68.226 123.955 66.9221C123.483 68.3254 122.576 69.5051 121.322 70.1012L120.59 69.0705C122.316 68.2757 123.284 66.4005 123.284 64.6247V64.041H120.937V62.9854ZM127.991 72.1751V61.1351H129.332V65.5312H131.021V66.6489H129.332V72.1751H127.991Z" fill="#1A1A1A"/>
<path fill-rule="evenodd" clip-rule="evenodd" d="M244.098 62.176C244.3 61.9739 244.628 61.9739 244.83 62.176L248.969 66.3155C249.171 66.5175 249.171 66.8452 248.969 67.0472L244.83 71.1867C244.628 71.3888 244.3 71.3888 244.098 71.1867C243.896 70.9847 243.896 70.657 244.098 70.455L247.871 66.6813L244.098 62.9077C243.896 62.7057 243.896 62.378 244.098 62.176Z" fill="#BDBDBD"/>
<mask id="path-7-inside-2_1130_60668" fill="white">
<path d="M39.5576 95.499H254.811V170.894H39.5576V95.499Z"/>
</mask>
<path d="M254.811 170.894V170.204H39.5576V170.894V171.584H254.811V170.894Z" fill="#EEEEEE" mask="url(#path-7-inside-2_1130_60668)"/>
<path d="M40.1468 118.698H44.6671V119.297H42.774V119.664C42.774 120.784 43.6047 121.779 44.8313 122.194L44.4836 122.755C43.5274 122.426 42.7933 121.76 42.4359 120.9C42.0786 121.876 41.2962 122.648 40.2917 123.006L39.9247 122.436C41.1803 121.992 42.0593 120.9 42.0593 119.673V119.297H40.1468V118.698ZM41.0451 124.947C41.0451 123.972 42.0979 123.411 43.8075 123.411C45.5268 123.411 46.5796 123.972 46.5796 124.947C46.5796 125.932 45.5268 126.502 43.8075 126.502C42.0979 126.502 41.0451 125.932 41.0451 124.947ZM41.7502 124.947C41.7502 125.565 42.5422 125.932 43.8075 125.932C45.0825 125.932 45.8648 125.565 45.8648 124.947C45.8648 124.348 45.0825 123.991 43.8075 123.991C42.5422 123.991 41.7502 124.348 41.7502 124.947ZM45.7682 123.17V118.07H46.4927V120.243H47.758V120.842H46.4927V123.17H45.7682ZM54.4738 118.07H55.1982V126.522H54.4738V118.07ZM48.3888 124.348C50.6682 123.257 51.8177 121.605 51.9722 119.577H48.7655V118.978H52.7063C52.7063 121.412 51.5858 123.556 48.7751 124.928L48.3888 124.348ZM56.6211 124.822H58.5239V122.513C57.8091 122.146 57.3745 121.538 57.3745 120.775C57.3745 119.461 58.6591 118.611 60.4363 118.611C62.2328 118.611 63.4982 119.461 63.4982 120.775C63.4982 121.528 63.0732 122.127 62.3777 122.503V124.822H64.2805V125.42H56.6211V124.822ZM58.0796 120.775C58.0796 121.731 59.0648 122.359 60.4363 122.359C61.8079 122.359 62.8027 121.731 62.8027 120.775C62.8027 119.818 61.8079 119.19 60.4363 119.19C59.0648 119.19 58.0796 119.818 58.0796 120.775ZM59.2386 124.822H61.6533V122.784C61.2863 122.88 60.8806 122.928 60.4363 122.928C60.0017 122.928 59.6056 122.88 59.2386 122.784V124.822ZM67.326 118.572C68.5913 118.572 69.5186 119.384 69.5186 120.562C69.5186 121.74 68.5913 122.542 67.326 122.542C66.0511 122.542 65.1335 121.74 65.1335 120.562C65.1335 119.384 66.0511 118.572 67.326 118.572ZM65.8386 120.562C65.8386 121.373 66.4664 121.934 67.326 121.934C68.1857 121.934 68.8231 121.373 68.8231 120.562C68.8231 119.751 68.1857 119.19 67.326 119.19C66.4664 119.19 65.8386 119.751 65.8386 120.562ZM66.0607 124.928C66.0607 123.933 67.1135 123.353 68.8328 123.353C70.5424 123.353 71.5952 123.933 71.5952 124.928C71.5952 125.923 70.5424 126.502 68.8328 126.502C67.1135 126.502 66.0607 125.923 66.0607 124.928ZM66.7658 124.928C66.7658 125.546 67.5578 125.923 68.8328 125.923C70.0981 125.923 70.8805 125.546 70.8805 124.928C70.8805 124.31 70.0981 123.943 68.8328 123.943C67.5578 123.943 66.7658 124.31 66.7658 124.928ZM70.7839 123.083V118.07H71.5083V119.355H72.7543V119.963H71.5083V121.151H72.7543V121.76H71.5083V123.083H70.7839ZM73.2982 124.822H76.756V122.977H74.2158V118.669H74.9305V120.195H79.3156V118.669H80.0304V122.977H77.4708V124.822H80.9576V125.43H73.2982V124.822ZM74.9305 122.388H79.3156V120.794H74.9305V122.388ZM87.8377 118.07H88.5621V123.189H87.8377V121.248H86.3985V120.649H87.8377V118.07ZM81.6367 119.557V118.968H83.723V117.983H84.4378V118.968H86.5241V119.557H81.6367ZM82.1293 121.509C82.1293 120.62 82.9503 120.002 84.0804 120.002C85.2201 120.002 86.0218 120.62 86.0218 121.509C86.0218 122.407 85.2201 123.015 84.0804 123.015C82.9503 123.015 82.1293 122.407 82.1293 121.509ZM82.8248 121.509C82.8248 122.069 83.3463 122.455 84.0804 122.455C84.8048 122.455 85.3264 122.069 85.3264 121.509C85.3264 120.948 84.8048 120.562 84.0804 120.562C83.3463 120.562 82.8248 120.948 82.8248 121.509ZM83.0952 126.406V123.643H88.5621V126.406H83.0952ZM83.81 125.816H87.857V124.232H83.81V125.816Z" fill="#616161"/>
<path d="M39.9798 145.136H44.3015V142.95H41.0975V137.262H42.4139V139.075H47.5303V137.262H48.8466V142.95H45.6303V145.136H49.9767V146.228H39.9798V145.136ZM42.4139 141.894H47.5303V140.131H42.4139V141.894ZM51.016 137.747H53.3259V136.492H54.6546V137.747H56.9397V138.815H54.6546V138.864C54.6546 140.119 55.586 141.298 57.3122 141.77L56.7037 142.801C55.437 142.453 54.5305 141.708 54.0213 140.752C53.537 141.832 52.618 142.689 51.3265 143.087L50.6807 142.043C52.4069 141.522 53.3259 140.23 53.3259 138.864V138.815H51.016V137.747ZM52.4566 145.496C52.4566 144.192 53.8847 143.434 56.207 143.434C58.5168 143.434 59.9325 144.192 59.9325 145.496C59.9325 146.8 58.5168 147.557 56.207 147.557C53.8847 147.557 52.4566 146.8 52.4566 145.496ZM53.7978 145.496C53.7978 146.166 54.6546 146.539 56.207 146.539C57.7344 146.539 58.6037 146.166 58.6037 145.496C58.6037 144.825 57.7344 144.465 56.207 144.465C54.6546 144.465 53.7978 144.825 53.7978 145.496ZM56.6292 140.64V139.56H58.5541V136.53H59.8953V143.198H58.5541V140.64H56.6292ZM69.2674 136.53H70.6086V147.57H69.2674V136.53ZM61.5431 144.564C64.4242 143.174 65.7529 141.286 65.9765 138.753H62.1019V137.685H67.3425C67.3425 140.988 66.0758 143.77 62.2509 145.62L61.5431 144.564ZM76.1947 137.213H83.7451V138.181C83.7451 139.224 83.7451 140.355 83.4595 141.932H84.9746V143.024H80.6281V147.594H79.2745V143.024H74.9901V141.932H82.1183C82.4164 140.429 82.4288 139.287 82.4288 138.281H76.1947V137.213ZM93.8996 136.53H95.1787V147.57H93.8996V141.894H92.7199V147.048H91.478V136.741H92.7199V140.814H93.8996V136.53ZM86.1008 144.726V137.722H90.3852V144.726H86.1008ZM87.3427 143.683H89.1433V138.777H87.3427V143.683ZM104.253 136.517H105.594V147.594H104.253V136.517ZM97.0625 144.974V137.424H98.3913V140.205H101.074V137.424H102.402V144.974H97.0625ZM98.3913 143.894H101.074V141.249H98.3913V143.894ZM110.336 137.61H116.533V138.728H114.111V139.684C114.111 141.509 115.191 143.409 116.942 144.142L116.197 145.198C114.918 144.626 113.962 143.459 113.453 142.056C112.956 143.571 111.987 144.862 110.696 145.471L109.938 144.428C111.677 143.621 112.757 141.559 112.757 139.684V138.728H110.336V137.61ZM117.75 147.57V136.53H119.091V147.57H117.75ZM128.587 136.53H129.928V144.912H128.587V143.919H126.439V142.987H128.587V136.53ZM120.689 141.509C122.713 141.497 125.433 141.472 127.767 141.187L127.842 142.13C126.935 142.279 125.992 142.379 125.06 142.453V144.577H123.731V142.528C122.701 142.577 121.72 142.59 120.863 142.59L120.689 141.509ZM121.521 138.889C121.521 137.722 122.651 136.939 124.265 136.939C125.88 136.939 126.997 137.722 126.997 138.889C126.997 140.069 125.88 140.839 124.265 140.839C122.651 140.839 121.521 140.069 121.521 138.889ZM122.154 147.359V144.105H123.495V146.278H130.189V147.359H122.154ZM122.788 138.889C122.788 139.498 123.396 139.845 124.265 139.845C125.135 139.845 125.718 139.498 125.718 138.889C125.718 138.268 125.135 137.908 124.265 137.908C123.396 137.908 122.788 138.268 122.788 138.889Z" fill="#1A1A1A"/>
<path fill-rule="evenodd" clip-rule="evenodd" d="M244.098 137.57C244.3 137.368 244.628 137.368 244.83 137.57L248.969 141.71C249.171 141.912 249.171 142.24 248.969 142.442L244.83 146.581C244.628 146.783 244.3 146.783 244.098 146.581C243.896 146.379 243.896 146.052 244.098 145.849L247.871 142.076L244.098 138.302C243.896 138.1 243.896 137.773 244.098 137.57Z" fill="#BDBDBD"/>
<mask id="path-12-inside-3_1130_60668" fill="white">
<path d="M39.5576 170.895H254.811V246.289H39.5576V170.895Z"/>
</mask>
<path d="M254.811 246.289V245.6H39.5576V246.289V246.979H254.811V246.289Z" fill="#EEEEEE" mask="url(#path-12-inside-3_1130_60668)"/>
<path d="M39.944 197.841H43.4018V196.807H40.9678V193.668H41.6826V194.644H45.8552V193.668H46.5796V196.807H44.1166V197.841H47.5744V198.44H39.944V197.841ZM40.7939 199.889V199.299H46.6279V201.917H45.9131V199.889H40.7939ZM41.6826 196.228H45.8552V195.214H41.6826V196.228ZM48.5433 194.335H53.2665V194.943H51.2574V196.083C51.2574 197.522 52.3199 198.971 53.5369 199.502L53.1216 200.082C52.1557 199.628 51.2961 198.643 50.9001 197.474C50.5137 198.72 49.6637 199.802 48.6979 200.285L48.2825 199.715C49.4706 199.135 50.533 197.542 50.533 196.083V194.943H48.5433V194.335ZM54.4449 201.917V193.466H55.1693V201.917H54.4449ZM56.6211 197.667H58.5239V196.46C57.8477 196.189 57.471 195.764 57.471 195.194C57.471 194.2 58.6108 193.63 60.4363 193.63C62.2618 193.63 63.4016 194.2 63.4016 195.194C63.4016 195.764 63.0249 196.189 62.3584 196.45V197.667H64.2515V198.247H56.6211V197.667ZM57.5483 200.401C57.5483 199.454 58.6301 198.913 60.4363 198.913C62.2425 198.913 63.3243 199.454 63.3243 200.401C63.3243 201.366 62.2425 201.907 60.4363 201.907C58.6301 201.907 57.5483 201.366 57.5483 200.401ZM58.2148 195.194C58.2148 195.813 59.0744 196.189 60.4363 196.189C61.7982 196.189 62.6578 195.813 62.6578 195.194C62.6578 194.567 61.7982 194.19 60.4363 194.19C59.0744 194.19 58.2148 194.567 58.2148 195.194ZM58.2727 200.401C58.2727 200.999 59.0841 201.337 60.4363 201.337C61.7789 201.337 62.5902 200.999 62.5902 200.401C62.5902 199.821 61.7789 199.473 60.4363 199.473C59.0841 199.473 58.2727 199.821 58.2727 200.401ZM59.2386 197.667H61.6437V196.653C61.2863 196.711 60.8806 196.75 60.4363 196.75C59.992 196.75 59.596 196.721 59.2386 196.653V197.667ZM65.9352 194.026H71.5856V194.76C71.5856 195.562 71.5856 196.431 71.3441 197.657H72.5997V198.266H69.1322V201.936H68.3982V198.266H64.9596V197.657H70.61C70.8708 196.45 70.8708 195.552 70.8708 194.76V194.615H65.9352V194.026Z" fill="#616161"/>
<path d="M47.7538 211.938H49.0826V218.209H47.7538V211.938ZM40.1785 215.079C40.1785 213.552 41.4204 212.472 43.1217 212.472C44.8106 212.472 46.0649 213.552 46.0649 215.079C46.0649 216.619 44.8106 217.7 43.1217 217.7C41.4204 217.7 40.1785 216.619 40.1785 215.079ZM41.4825 215.079C41.4825 216.011 42.1779 216.582 43.1217 216.582C44.0655 216.582 44.761 216.011 44.761 215.079C44.761 214.16 44.0655 213.577 43.1217 213.577C42.1779 213.577 41.4825 214.16 41.4825 215.079ZM41.8426 222.829V218.743H49.0826V222.829H41.8426ZM43.1466 221.773H47.7787V219.798H43.1466V221.773ZM51.6245 212.248H59.7959V213.254H58.2808V214.955H59.7214V215.974H51.6866V214.955H53.1396V213.254H51.6245V212.248ZM50.7304 217.737V216.694H60.7025V217.737H50.7304ZM51.8977 219.476V218.507H59.4606V221.115H53.2389V221.885H59.7835V222.878H51.9226V220.196H58.1567V219.476H51.8977ZM54.4808 214.955H56.9397V213.254H54.4808V214.955ZM68.7955 211.938H70.1242V215.191H71.6641V216.296H70.1242V220.059H68.7955V211.938ZM61.9032 213.689V212.621H66.9203V215.949H63.2444V217.352C65.1072 217.34 66.4111 217.265 67.9013 216.992L68.0255 218.085C66.4111 218.37 64.9706 218.42 62.8222 218.42H61.928V214.955H65.5915V213.689H61.9032ZM63.1699 222.754V219.413H64.5111V221.674H70.5713V222.754H63.1699ZM73.461 212.782H81.0362V213.862H74.8146V215.228H80.8003V216.284H74.8146V217.712H81.1356V218.78H73.461V212.782ZM72.2315 221.624V220.531H82.2284V221.624H72.2315ZM93.5022 211.913H94.8434V222.99H93.5022V211.913ZM86.3119 220.37V212.819H87.6407V215.601H90.3231V212.819H91.6519V220.37H86.3119ZM87.6407 219.289H90.3231V216.644H87.6407V219.289ZM96.4912 217.265H98.8259V215.837C98.0063 215.477 97.5344 214.918 97.5344 214.198C97.5344 212.881 99.0619 212.111 101.483 212.111C103.893 212.111 105.433 212.881 105.433 214.198C105.433 214.918 104.961 215.489 104.116 215.849V217.265H106.463V218.308H96.4912V217.265ZM97.6586 220.978C97.6586 219.712 99.0867 218.991 101.471 218.991C103.843 218.991 105.271 219.712 105.271 220.978C105.271 222.245 103.843 222.965 101.471 222.965C99.0867 222.965 97.6586 222.245 97.6586 220.978ZM98.9128 214.198C98.9128 214.881 99.8691 215.266 101.483 215.266C103.098 215.266 104.054 214.881 104.054 214.198C104.054 213.502 103.098 213.13 101.483 213.13C99.8691 213.13 98.9128 213.502 98.9128 214.198ZM98.9998 220.978C98.9998 221.624 99.8691 221.947 101.471 221.947C103.048 221.947 103.917 221.624 103.917 220.978C103.917 220.345 103.048 220.01 101.471 220.01C99.8691 220.01 98.9998 220.345 98.9998 220.978ZM100.155 217.265H102.787V216.197C102.39 216.259 101.955 216.284 101.483 216.284C100.999 216.284 100.565 216.259 100.155 216.197V217.265ZM110.336 213.006H116.533V214.123H114.111V215.079C114.111 216.905 115.191 218.805 116.942 219.538L116.197 220.593C114.918 220.022 113.962 218.855 113.453 217.451C112.956 218.966 111.987 220.258 110.696 220.866L109.938 219.823C111.677 219.016 112.757 216.955 112.757 215.079V214.123H110.336V213.006ZM117.75 222.965V211.925H119.091V222.965H117.75ZM128.587 211.925H129.928V220.308H128.587V219.314H126.439V218.383H128.587V211.925ZM120.689 216.905C122.713 216.893 125.433 216.868 127.767 216.582L127.842 217.526C126.935 217.675 125.992 217.774 125.06 217.849V219.972H123.731V217.923C122.701 217.973 121.72 217.985 120.863 217.985L120.689 216.905ZM121.521 214.285C121.521 213.117 122.651 212.335 124.265 212.335C125.88 212.335 126.997 213.117 126.997 214.285C126.997 215.464 125.88 216.234 124.265 216.234C122.651 216.234 121.521 215.464 121.521 214.285ZM122.154 222.754V219.5H123.495V221.674H130.189V222.754H122.154ZM122.788 214.285C122.788 214.893 123.396 215.241 124.265 215.241C125.135 215.241 125.718 214.893 125.718 214.285C125.718 213.664 125.135 213.304 124.265 213.304C123.396 213.304 122.788 213.664 122.788 214.285Z" fill="#1A1A1A"/>
<path fill-rule="evenodd" clip-rule="evenodd" d="M244.098 212.966C244.3 212.764 244.628 212.764 244.83 212.966L248.969 217.106C249.171 217.308 249.171 217.635 248.969 217.837L244.83 221.977C244.628 222.179 244.3 222.179 244.098 221.977C243.896 221.775 243.896 221.447 244.098 221.245L247.871 217.471L244.098 213.698C243.896 213.496 243.896 213.168 244.098 212.966Z" fill="#BDBDBD"/>
</g>
</g>
<defs>
<filter id="filter0_dd_1130_60668" x="0.922689" y="0.786845" width="292.525" height="311.842" filterUnits="userSpaceOnUse" color-interpolation-filters="sRGB">
<feFlood flood-opacity="0" result="BackgroundImageFix"/>
<feColorMatrix in="SourceAlpha" type="matrix" values="0 0 0 0 0 0 0 0 0 0 0 0 0 0 0 0 0 0 127 0" result="hardAlpha"/>
<feOffset/>
<feGaussianBlur stdDeviation="0.689916"/>
<feComposite in2="hardAlpha" operator="out"/>
<feColorMatrix type="matrix" values="0 0 0 0 0 0 0 0 0 0 0 0 0 0 0 0 0 0 0.2 0"/>
<feBlend mode="normal" in2="BackgroundImageFix" result="effect1_dropShadow_1130_60668"/>
<feColorMatrix in="SourceAlpha" type="matrix" values="0 0 0 0 0 0 0 0 0 0 0 0 0 0 0 0 0 0 127 0" result="hardAlpha"/>
<feOffset dy="2.75966"/>
<feGaussianBlur stdDeviation="11.0387"/>
<feComposite in2="hardAlpha" operator="out"/>
<feColorMatrix type="matrix" values="0 0 0 0 0 0 0 0 0 0 0 0 0 0 0 0 0 0 0.08 0"/>
<feBlend mode="normal" in2="effect1_dropShadow_1130_60668" result="effect2_dropShadow_1130_60668"/>
<feBlend mode="normal" in="SourceGraphic" in2="effect2_dropShadow_1130_60668" result="shape"/>
</filter>
<clipPath id="clip0_1130_60668">
<path d="M23 32.3697C23 25.5958 28.4913 20.1045 35.2652 20.1045H259.105C265.878 20.1045 271.37 25.5958 271.37 32.3697V287.792H23V32.3697Z" fill="white"/>
</clipPath>
</defs>
</svg>
