<svg width="85" height="34" viewBox="0 0 85 34" fill="none" xmlns="http://www.w3.org/2000/svg">
<path d="M5.06 8.408V23.432H13.7V26.264H2.18V8.408H5.06ZM20.6764 23.6C22.4524 23.6 24.1804 22.328 24.2044 20.048C24.1804 17.744 22.4524 16.496 20.6764 16.496C18.5404 16.496 17.2924 17.96 17.2924 20.048C17.2924 22.136 18.5404 23.6 20.6764 23.6ZM14.4124 20.048C14.4124 16.592 16.5964 13.664 20.4364 13.664C21.8044 13.664 23.1964 14.288 24.2044 15.632V13.592H27.0844V26.24H24.2044V24.44C23.1964 25.808 21.8044 26.432 20.4364 26.432C16.5964 26.432 14.4124 23.48 14.4124 20.048ZM36.0964 23.36C38.1604 23.36 39.2884 21.968 39.2884 19.976C39.2884 18.032 38.1604 16.64 36.0964 16.64C34.3684 16.64 32.7364 17.888 32.7364 19.976C32.7364 22.112 34.3684 23.36 36.0964 23.36ZM29.8564 26V7.904H32.7364V15.728C33.7684 14.312 35.2324 13.808 36.3364 13.808C40.0804 13.808 42.1684 16.664 42.1684 19.976C42.1684 23.336 40.0804 26.192 36.3364 26.192C35.2324 26.192 33.8164 25.856 32.7364 24.248V26.024L29.8564 26ZM53.2312 18.848C52.9912 17.24 51.9352 16.088 50.0392 16.088C48.2872 16.088 46.8712 17 46.5832 18.872L53.2312 18.848ZM43.8952 19.928C43.8952 16.448 46.1032 13.52 50.0152 13.52C54.0472 13.52 55.2472 16.784 55.3192 16.952C56.0872 18.896 55.9192 21.176 55.9192 21.176H46.5832C47.0152 22.736 48.1912 23.72 50.0392 23.72C52.2952 23.72 52.7992 22.472 52.8712 22.376L55.3912 23.504C55.3912 23.504 54.2392 26.312 50.0152 26.312C46.1032 26.312 43.8952 23.384 43.8952 19.928ZM57.8571 7.904H60.7371V26.312H57.8571V7.904Z" fill="#333333"/>
<path d="M0.5 29H62.1291V30.2H0.5V29Z" fill="#333333"/>
<path fill-rule="evenodd" clip-rule="evenodd" d="M71.5581 11.5581C71.8021 11.314 72.1979 11.314 72.4419 11.5581L77.4419 16.5581C77.686 16.8021 77.686 17.1979 77.4419 17.4419L72.4419 22.4419C72.1979 22.686 71.8021 22.686 71.5581 22.4419C71.314 22.1979 71.314 21.8021 71.5581 21.5581L76.1161 17L71.5581 12.4419C71.314 12.1979 71.314 11.8021 71.5581 11.5581Z" fill="#555555"/>
</svg>
