<svg width="156" height="50" viewBox="0 0 156 50" fill="none" xmlns="http://www.w3.org/2000/svg">
<path d="M0 6.79781C0 3.59577 2.59577 1 5.79781 1H104.202C107.404 1 110 3.59577 110 6.79781V43.2022C110 46.4042 107.404 49 104.202 49H5.7978C2.59576 49 0 46.4042 0 43.2022V6.79781Z" fill="#FF8120"/>
<path d="M35.168 29.48C36.688 29.48 37.536 28.44 37.536 26.984C37.536 25.544 36.688 24.488 35.168 24.488C33.904 24.488 32.768 25.48 32.768 26.984C32.768 28.504 33.904 29.48 35.168 29.48ZM31.104 31V19H32.768V24.28C33.472 23.224 34.496 22.856 35.296 22.856C37.808 22.856 39.2 24.76 39.2 26.984C39.2 29.224 37.792 31.128 35.28 31.128C34.496 31.128 33.504 30.856 32.768 29.688V31H31.104ZM42.4301 27.4C42.4301 28.616 43.1661 29.48 44.4781 29.48C45.7901 29.48 46.6381 28.44 46.6221 27.32V22.728H48.2861V31.112H46.6221V29.864C46.0461 30.712 45.3261 31.112 44.2701 31.112C42.4621 31.112 40.7661 29.8 40.7661 27.48V22.76H42.4301V27.4ZM55.0754 30.904C54.7394 30.984 54.0354 31.112 53.4754 31.08C52.2274 31.016 51.0434 29.944 51.0434 28.552V24.312H49.6194V22.68H51.0434V19.848H52.7074V22.68H54.8674V24.312H52.7074V28.552C52.7074 29.096 53.0434 29.4 53.5874 29.416C53.9554 29.432 54.4194 29.352 54.7074 29.288L55.0754 30.904ZM60.7535 30.904C60.4175 30.984 59.7135 31.112 59.1535 31.08C57.9055 31.016 56.7215 29.944 56.7215 28.552V24.312H55.2975V22.68H56.7215V19.848H58.3855V22.68H60.5455V24.312H58.3855V28.552C58.3855 29.096 58.7215 29.4 59.2655 29.416C59.6335 29.432 60.0975 29.352 60.3855 29.288L60.7535 30.904ZM65.4035 29.528C66.9075 29.528 67.7875 28.44 67.7875 26.952C67.7875 25.448 66.9075 24.36 65.4035 24.36C63.8995 24.36 63.0355 25.448 63.0355 26.952C63.0355 28.44 63.8995 29.528 65.4035 29.528ZM61.3715 26.952C61.3715 24.664 62.9075 22.712 65.4035 22.712C67.9635 22.712 69.4515 24.664 69.4515 26.952C69.4515 29.224 67.9635 31.176 65.4035 31.176C62.9075 31.176 61.3715 29.224 61.3715 26.952ZM76.7096 26.472C76.7096 25.208 75.9896 24.408 74.6776 24.408C73.4456 24.408 72.5016 25.448 72.5176 26.568V31.112H70.8536V22.76H72.5176V24.088C73.0776 23.288 73.8136 22.76 74.8696 22.76C76.5016 22.76 78.3736 24.008 78.3736 26.408V31.112H76.7096V26.472Z" fill="white"/>
<path d="M117.449 1V49" stroke="#712222" stroke-width="1.37983"/>
<path d="M114 49L120.899 49" stroke="#712222" stroke-width="1.37983"/>
<path d="M114 1L120.899 1" stroke="#712222" stroke-width="1.37983"/>
<rect x="125.039" y="10.5" width="30.7983" height="29" rx="5.51933" fill="#712222"/>
<path d="M138.299 20.5238V26.7469H139.679V27.9335H138.299V30.5138H137.085V27.9335H132.6V26.7469L137.126 20.5238H138.299ZM134.063 26.7469H137.085V22.5798L134.063 26.7469ZM144.334 29.4927C145.59 29.4927 146.445 28.582 146.445 27.6713C146.445 26.7745 145.59 25.8776 144.334 25.8776C143.092 25.8776 142.223 26.7745 142.223 27.6713C142.223 28.582 143.078 29.4927 144.334 29.4927ZM141.009 27.6713C141.009 26.6365 141.754 25.7534 142.651 25.2428C141.919 24.7461 141.285 23.9872 141.285 23.0903C141.285 21.4897 142.747 20.3444 144.334 20.3444C145.935 20.3444 147.411 21.4897 147.411 23.0903C147.411 23.9872 146.776 24.7461 146.045 25.2428C146.928 25.7534 147.659 26.6365 147.659 27.6713C147.659 29.3961 146.086 30.6656 144.334 30.6656C142.582 30.6656 141.009 29.3961 141.009 27.6713ZM142.499 23.0765C142.499 23.8492 143.244 24.6219 144.334 24.6219C145.438 24.6219 146.197 23.8492 146.197 23.0765C146.197 22.29 145.438 21.5173 144.334 21.5173C143.244 21.5173 142.499 22.29 142.499 23.0765Z" fill="white"/>
</svg>
