<svg width="128" height="48" viewBox="0 0 128 48" fill="none" xmlns="http://www.w3.org/2000/svg">
<mask id="path-1-inside-1_890_34787" fill="white">
<path d="M0 24C0 10.7452 10.7452 0 24 0H104C117.255 0 128 10.7452 128 24C128 37.2548 117.255 48 104 48H24C10.7452 48 0 37.2548 0 24Z"/>
</mask>
<path d="M0 24C0 10.7452 10.7452 0 24 0H104C117.255 0 128 10.7452 128 24C128 37.2548 117.255 48 104 48H24C10.7452 48 0 37.2548 0 24Z" fill="white"/>
<path d="M24 1H104V-1H24V1ZM104 47H24V49H104V47ZM24 47C11.2975 47 1 36.7025 1 24H-1C-1 37.8071 10.1929 49 24 49V47ZM127 24C127 36.7025 116.703 47 104 47V49C117.807 49 129 37.8071 129 24H127ZM104 1C116.703 1 127 11.2975 127 24H129C129 10.1929 117.807 -1 104 -1V1ZM24 -1C10.1929 -1 -1 10.1929 -1 24H1C1 11.2975 11.2975 1 24 1V-1Z" fill="#E0E0E0" mask="url(#path-1-inside-1_890_34787)"/>
<path d="M28 13.25C33.9371 13.25 38.75 18.0629 38.75 24C38.75 29.9371 33.9371 34.75 28 34.75C22.0629 34.75 17.25 29.9371 17.25 24C17.25 18.0629 22.0629 13.25 28 13.25ZM28 14.75C22.8914 14.75 18.75 18.8914 18.75 24C18.75 29.1086 22.8914 33.25 28 33.25C33.1086 33.25 37.25 29.1086 37.25 24C37.25 18.8914 33.1086 14.75 28 14.75ZM28 23.3438C28.4142 23.3438 28.75 23.6795 28.75 24.0938V28.3018L28.7461 28.3789C28.7075 28.7569 28.3882 29.0518 28 29.0518C27.6118 29.0518 27.2925 28.7569 27.2539 28.3789L27.25 28.3018V24.0938C27.25 23.6795 27.5858 23.3438 28 23.3438ZM28.085 19.1396C28.4632 19.1781 28.7588 19.4974 28.7588 19.8857C28.7585 20.2739 28.463 20.5935 28.085 20.6318L28.0088 20.6357H28C27.5859 20.6357 27.2503 20.2997 27.25 19.8857C27.25 19.4715 27.5858 19.1357 28 19.1357H28.0088L28.085 19.1396Z" fill="#333333"/>
<path d="M46.464 18.448V28.88H52.448V30H45.312V18.448H46.464ZM57.086 28.96C58.526 28.96 59.822 27.792 59.838 26C59.822 24.224 58.526 23.04 57.086 23.04C55.31 23.04 54.35 24.32 54.35 26C54.35 27.68 55.31 28.96 57.086 28.96ZM53.198 26C53.198 23.776 54.59 21.904 57.07 21.904C58.014 21.904 59.07 22.4 59.806 23.584V21.856H60.958V30H59.806V28.4C59.038 29.648 58.03 30.112 57.07 30.112C54.59 30.112 53.198 28.208 53.198 26ZM66.897 28.992C68.705 28.992 69.681 27.696 69.681 25.984C69.681 24.288 68.705 22.976 66.897 22.976C65.409 22.976 64.145 24.288 64.145 25.984C64.145 27.696 65.409 28.992 66.897 28.992ZM62.993 30V18.128H64.145V23.568C64.897 22.256 66.017 21.856 66.929 21.856C69.441 21.856 70.833 23.76 70.833 25.984C70.833 28.224 69.425 30.128 66.913 30.128C66.017 30.128 64.897 29.744 64.145 28.4V30H62.993ZM78.3739 25.36C78.2459 24.208 77.6859 22.976 75.9579 22.976C74.4379 22.976 73.4619 23.792 73.2539 25.376L78.3739 25.36ZM72.0699 25.936C72.0699 23.696 73.4139 21.824 75.9099 21.824C78.5019 21.824 79.1579 23.84 79.2379 24.032C79.7179 25.344 79.5259 26.496 79.5259 26.496H73.2539C73.4619 28 74.4379 28.896 75.9259 28.896C77.7659 28.896 78.2139 27.888 78.3259 27.728L79.3179 28.256C79.3179 28.256 78.6459 30.048 75.9099 30.048C73.4139 30.048 72.0699 28.16 72.0699 25.936ZM80.9865 18.128H82.1385V30H80.9865V18.128Z" fill="#1A1A1A"/>
<path fill-rule="evenodd" clip-rule="evenodd" d="M109.03 17.7197C109.323 18.0126 109.323 18.4874 109.03 18.7803L97.5303 30.2803C97.2374 30.5732 96.7626 30.5732 96.4697 30.2803L90.9697 24.7803C90.6768 24.4874 90.6768 24.0126 90.9697 23.7197C91.2626 23.4268 91.7374 23.4268 92.0303 23.7197L97 28.6893L107.97 17.7197C108.263 17.4268 108.737 17.4268 109.03 17.7197Z" fill="#333333"/>
</svg>
