<svg width="763" height="282" viewBox="0 0 763 282" fill="none" xmlns="http://www.w3.org/2000/svg">
<g filter="url(#filter0_dd_1303_48672)">
<path d="M407 16C407 11.5817 410.582 8 415 8H739C743.418 8 747 11.5817 747 16V250C747 254.418 743.418 258 739 258H415C410.582 258 407 254.418 407 250V16Z" fill="#FAFAFA" shape-rendering="crispEdges"/>
<path d="M427.64 43.74H443.86V45.76H440.04V51.66H437.54V45.76H433.86V51.66H431.34V45.76H427.64V43.74ZM429.24 38.38C429.24 35.92 431.88 34.38 435.7 34.38C439.52 34.38 442.16 35.92 442.16 38.38C442.16 40.8 439.52 42.36 435.7 42.36C431.88 42.36 429.24 40.8 429.24 38.38ZM431.78 38.38C431.78 39.68 433.3 40.4 435.7 40.4C438.08 40.4 439.62 39.68 439.62 38.38C439.62 37.08 438.08 36.34 435.7 36.34C433.3 36.34 431.78 37.08 431.78 38.38ZM450.71 34.94C453.51 34.94 455.61 36.78 455.61 39.34C455.61 41.92 453.51 43.74 450.71 43.74C447.89 43.74 445.77 41.92 445.77 39.34C445.77 36.78 447.89 34.94 450.71 34.94ZM445.01 46.02C448.17 46.02 452.59 46 456.37 45.44L456.55 47.24C452.65 48 448.41 48.04 445.31 48.04L445.01 46.02ZM448.19 39.34C448.19 40.76 449.27 41.62 450.71 41.62C452.11 41.62 453.19 40.76 453.19 39.34C453.19 37.9 452.11 37.06 450.71 37.06C449.27 37.06 448.19 37.9 448.19 39.34ZM457.37 51.7V33.72H459.85V51.7H457.37ZM466.361 35.16H468.821V37.8C468.821 41.02 470.161 44.28 473.021 45.68L471.521 47.64C469.641 46.68 468.341 44.9 467.601 42.74C466.821 45.06 465.441 46.98 463.421 47.98L461.921 45.98C464.901 44.58 466.361 41.14 466.361 37.8V35.16ZM473.801 51.68V33.76H476.281V40.68H478.941V42.74H476.281V51.68H473.801ZM491.211 33.76H493.691V38.36H496.111V40.38H493.691V45.12H491.211V33.76ZM479.631 37.42V35.48H483.651V33.62H486.131V35.48H490.171V37.42H479.631ZM480.511 41.24C480.511 39.34 482.311 38.04 484.911 38.04C487.491 38.04 489.291 39.34 489.291 41.24C489.291 43.18 487.491 44.46 484.911 44.46C482.311 44.46 480.511 43.18 480.511 41.24ZM481.891 48.5C481.891 46.5 484.211 45.32 487.911 45.32C491.591 45.32 493.891 46.5 493.891 48.5C493.891 50.5 491.591 51.68 487.911 51.68C484.211 51.68 481.891 50.5 481.891 48.5ZM482.891 41.24C482.891 42.14 483.691 42.66 484.911 42.66C486.091 42.66 486.911 42.14 486.911 41.24C486.911 40.34 486.091 39.86 484.911 39.86C483.691 39.86 482.891 40.34 482.891 41.24ZM484.371 48.5C484.371 49.38 485.611 49.82 487.911 49.82C490.211 49.82 491.451 49.38 491.451 48.5C491.451 47.62 490.211 47.18 487.911 47.18C485.611 47.18 484.371 47.62 484.371 48.5Z" fill="#1A1A1A"/>
<path d="M436.091 100.485C440.275 100.485 443.667 97.0937 443.667 92.9097C443.667 88.7258 440.275 85.334 436.091 85.334C431.907 85.334 428.516 88.7258 428.516 92.9097C428.516 97.0937 431.907 100.485 436.091 100.485Z" fill="#E53935"/>
<path d="M436.091 92.4121C436.404 92.4123 436.659 92.666 436.659 92.9795V96.168C436.659 96.4816 436.404 96.7362 436.091 96.7363C435.777 96.7363 435.522 96.4817 435.522 96.168V92.9795C435.523 92.6659 435.777 92.4121 436.091 92.4121ZM436.095 89.1211C436.511 89.1211 436.849 89.4605 436.849 89.8789C436.849 90.2972 436.511 90.6367 436.095 90.6367H436.086C435.67 90.6365 435.333 90.297 435.333 89.8789C435.333 89.4607 435.67 89.1213 436.086 89.1211H436.095Z" fill="white"/>
<path d="M452.062 88.048H459.726V89.44H456.782V89.616C456.782 91.36 457.902 93.008 460.11 93.696L459.278 95.04C457.694 94.544 456.574 93.52 455.966 92.24C455.342 93.744 454.158 94.928 452.462 95.504L451.598 94.144C453.854 93.376 455.054 91.536 455.054 89.616V89.44H452.062V88.048ZM453.502 98.56C453.502 96.864 455.342 95.856 458.254 95.856C461.198 95.856 463.006 96.864 463.006 98.56C463.006 100.272 461.198 101.264 458.254 101.264C455.342 101.264 453.502 100.272 453.502 98.56ZM455.198 98.56C455.198 99.456 456.318 99.936 458.254 99.936C460.206 99.936 461.31 99.456 461.31 98.56C461.31 97.68 460.206 97.216 458.254 97.216C456.318 97.216 455.198 97.68 455.198 98.56ZM461.134 95.552V87.056H462.846V90.48H464.83V91.888H462.846V95.552H461.134ZM474.904 87.056H476.632V92.48H478.792V93.92H476.632V101.28H474.904V87.056ZM466.072 97.936V88.208H467.768V91.792H471.144V88.208H472.856V97.936H466.072ZM467.768 96.544H471.144V93.136H467.768V96.544ZM480.946 87.936H490.674V89.184C490.674 90.528 490.674 91.984 490.306 94.016H492.258V95.424H486.658V101.312H484.914V95.424H479.394V94.016H488.578C488.962 92.08 488.978 90.608 488.978 89.312H480.946V87.936ZM503.293 87.056H505.005V101.28H503.293V87.056ZM494.029 97.696V88.416H495.757V96.24C497.725 96.208 499.821 96.048 502.029 95.6L502.237 97.04C499.773 97.536 497.453 97.696 495.277 97.696H494.029ZM508.727 87.568H510.423V91.088H518.503V92.464H508.727V87.568ZM507.063 95.504V94.128H519.943V95.504H507.063ZM508.615 100.96V96.752H510.327V99.584H518.583V100.96H508.615ZM533.779 87.04H535.507V92.464H537.667V93.888H535.507V101.312H533.779V87.04ZM525.027 97.824V88.4H531.651V89.792H526.739V96.384C528.995 96.368 530.723 96.288 532.643 95.92L532.819 97.36C530.659 97.76 528.739 97.824 526.179 97.824H525.027ZM544.701 87.344C547.805 87.344 549.789 88.368 549.789 90.08C549.789 91.792 547.805 92.816 544.701 92.816C541.581 92.816 539.613 91.792 539.613 90.08C539.613 88.368 541.581 87.344 544.701 87.344ZM538.269 95.168V93.808H551.117V95.168H538.269ZM539.805 101.104V96.336H549.565V101.104H539.805ZM541.389 90.08C541.389 90.992 542.621 91.472 544.701 91.472C546.781 91.472 548.013 90.992 548.013 90.08C548.013 89.152 546.781 88.688 544.701 88.688C542.621 88.688 541.389 89.152 541.389 90.08ZM541.485 99.744H547.885V97.696H541.485V99.744ZM561.528 87.056H563.24V89.824H565.224V91.248H563.24V94.144H561.528V87.056ZM552.744 93.632V87.68H554.456V92.192C556.248 92.16 558.184 92.016 560.232 91.616L560.44 93.024C558.088 93.488 555.944 93.632 553.912 93.632H552.744ZM554.008 96.112V94.768H563.24V98.512H555.752V99.744H563.704V101.104H554.04V97.232H561.528V96.112H554.008ZM569.476 98.144H575.044V95.008H570.9V88.16H580.9V95.008H576.756V98.144H582.356V99.536H569.476V98.144ZM572.58 93.648H579.204V89.52H572.58V93.648ZM585.006 87.84H594.478V89.232H586.75V92.208H594.654V93.6H585.006V87.84ZM583.31 96.592V95.184H596.19V96.592H590.558V101.264H588.862V96.592H583.31ZM604.01 88.208H605.722V90.48C605.722 93.008 606.97 95.616 609.146 96.672L608.106 98.048C606.586 97.264 605.482 95.744 604.874 93.92C604.25 95.872 603.082 97.488 601.466 98.32L600.442 96.912C602.698 95.84 604.01 93.104 604.01 90.48V88.208ZM610.01 101.28V87.056H611.738V92.656H613.914V94.096H611.738V101.28H610.01ZM623.876 87.04H625.588V92.544H627.764V93.968H625.588V101.312H623.876V87.04ZM615.076 89.696V88.32H621.572V93.648H616.82V96.528C619.076 96.512 620.836 96.4 622.804 96.064L622.964 97.456C620.788 97.84 618.852 97.952 616.276 97.952H615.108V92.256H619.876V89.696H615.076ZM628.783 88.448H636.767V89.888H633.647V91.12C633.647 93.472 635.039 95.92 637.295 96.864L636.335 98.224C634.687 97.488 633.455 95.984 632.799 94.176C632.159 96.128 630.911 97.792 629.247 98.576L628.271 97.232C630.511 96.192 631.903 93.536 631.903 91.12V89.888H628.783V88.448ZM638.335 101.28V87.056H640.063V101.28H638.335ZM652.249 87.056H653.961V101.28H652.249V87.056ZM642.985 97.696V88.416H644.713V96.24C646.681 96.208 648.777 96.048 650.985 95.6L651.193 97.04C648.729 97.536 646.409 97.696 644.233 97.696H642.985ZM658.355 98.544L657.283 102.176H656.051L656.643 98.544H658.355ZM674.142 87.056H675.87V94.384H674.142V87.056ZM664.334 92.64H665.95V89.296H664.718V87.952H672.35V89.296H671.118V92.432C671.742 92.384 672.366 92.336 672.958 92.256L673.054 93.488C670.222 93.936 666.99 94.016 664.51 94.016L664.334 92.64ZM666.398 96.336V95.008H675.87V98.656H668.126V99.808H676.318V101.168H666.414V97.408H674.158V96.336H666.398ZM667.614 92.608C668.222 92.592 668.83 92.56 669.454 92.544V89.296H667.614V92.608ZM677.929 98.144H680.905V94.496C679.785 93.84 679.113 92.848 679.113 91.584C679.113 89.296 681.321 87.824 684.361 87.824C687.417 87.824 689.609 89.296 689.609 91.584C689.609 92.832 688.937 93.84 687.833 94.496V98.144H690.809V99.536H677.929V98.144ZM680.793 91.584C680.793 93.072 682.249 93.984 684.361 93.984C686.457 93.984 687.929 93.072 687.929 91.584C687.929 90.096 686.457 89.184 684.361 89.184C682.249 89.184 680.793 90.096 680.793 91.584ZM682.617 98.144H686.105V95.136C685.561 95.248 684.985 95.312 684.361 95.312C683.737 95.312 683.161 95.248 682.617 95.136V98.144ZM701.171 87.072H702.899V91.552H704.867V92.976H702.899V97.712H701.171V87.072ZM691.779 90V88.64H695.123V87.056H696.835V88.64H700.163V90H691.779ZM692.531 93.344C692.531 91.728 693.939 90.64 695.971 90.64C698.019 90.64 699.443 91.728 699.443 93.344C699.443 94.96 698.019 96.048 695.971 96.048C693.939 96.048 692.531 94.96 692.531 93.344ZM693.859 101.008V96.88H695.571V99.616H703.459V101.008H693.859ZM694.163 93.344C694.163 94.208 694.899 94.72 695.971 94.72C697.043 94.72 697.779 94.208 697.779 93.344C697.779 92.464 697.043 91.952 695.971 91.952C694.899 91.952 694.163 92.464 694.163 93.344ZM712.415 87.808H714.127V89.312C714.127 91.12 715.279 92.816 717.439 93.52L716.543 94.848C715.023 94.32 713.919 93.28 713.311 91.952C712.687 93.456 711.535 94.656 709.903 95.264L708.975 93.904C711.263 93.12 712.415 91.2 712.415 89.152V87.808ZM710.911 98.592C710.911 96.912 712.735 95.92 715.663 95.92C718.607 95.92 720.415 96.912 720.415 98.592C720.415 100.272 718.607 101.264 715.663 101.264C712.735 101.264 710.911 100.272 710.911 98.592ZM712.607 98.592C712.607 99.472 713.727 99.936 715.663 99.936C717.615 99.936 718.719 99.472 718.719 98.592C718.719 97.712 717.615 97.248 715.663 97.248C713.727 97.248 712.607 97.712 712.607 98.592ZM718.543 95.568V87.056H720.255V90.512H722.239V91.936H720.255V95.568H718.543ZM451.726 117.808H464.574V119.184H459.006V120.56H463.022V125.104H453.262V120.56H457.294V119.184H451.726V117.808ZM452.878 112.864V111.488H463.406V112.864H461.454V115.36H463.31V116.736H452.958V115.36H454.83V112.864H452.878ZM454.942 123.744H461.342V121.92H454.942V123.744ZM456.558 115.36H459.726V112.864H456.558V115.36ZM471.992 111.28C475.176 111.28 477.08 112.144 477.08 113.712C477.08 115.296 475.176 116.16 471.992 116.16C468.792 116.16 466.904 115.296 466.904 113.712C466.904 112.144 468.792 111.28 471.992 111.28ZM465.56 118.32V116.96H478.408V118.32H465.56ZM467.064 120.592V119.296H476.808V122.752H468.792V123.856H477.224V125.168H467.096V121.552H475.128V120.592H467.064ZM468.68 113.712C468.68 114.512 469.832 114.896 471.992 114.896C474.152 114.896 475.304 114.512 475.304 113.712C475.304 112.944 474.152 112.544 471.992 112.544C469.832 112.544 468.68 112.944 468.68 113.712ZM492.34 111.072H494.068V115.552H496.036V116.976H494.068V121.712H492.34V111.072ZM482.948 114V112.64H486.292V111.056H488.004V112.64H491.332V114H482.948ZM483.7 117.344C483.7 115.728 485.108 114.64 487.14 114.64C489.188 114.64 490.612 115.728 490.612 117.344C490.612 118.96 489.188 120.048 487.14 120.048C485.108 120.048 483.7 118.96 483.7 117.344ZM485.028 125.008V120.88H486.74V123.616H494.628V125.008H485.028ZM485.332 117.344C485.332 118.208 486.068 118.72 487.14 118.72C488.212 118.72 488.948 118.208 488.948 117.344C488.948 116.464 488.212 115.952 487.14 115.952C486.068 115.952 485.332 116.464 485.332 117.344ZM506.862 111.072H508.574V121.568H506.862V116.32H504.014V119.264H497.406V112H499.118V114.304H502.318V112H504.014V114.928H506.862V111.072ZM499.118 117.888H502.318V115.632H499.118V117.888ZM499.294 125.008V120.544H501.006V123.616H508.894V125.008H499.294ZM521.113 111.056H522.761V125.28H521.113V111.056ZM510.745 117.2C510.745 114.064 511.945 112.128 513.785 112.128C515.497 112.128 516.649 113.744 516.825 116.416H518.249V111.328H519.865V124.608H518.249V117.808H516.841C516.697 120.592 515.529 122.288 513.785 122.288C511.945 122.288 510.745 120.352 510.745 117.2ZM512.313 117.2C512.313 119.44 512.857 120.672 513.785 120.672C514.745 120.672 515.289 119.44 515.289 117.2C515.289 114.976 514.745 113.76 513.785 113.76C512.857 113.76 512.313 114.976 512.313 117.2ZM527.973 119.024H540.837V120.416H535.221V125.296H533.525V120.416H527.973V119.024ZM528.661 116.688C531.429 116.32 533.301 114.8 533.429 113.232H529.157V111.856H539.637V113.232H535.397C535.525 114.8 537.397 116.32 540.165 116.688L539.525 118.048C537.157 117.696 535.285 116.576 534.421 115.04C533.541 116.576 531.669 117.696 529.301 118.048L528.661 116.688ZM541.791 118.208H554.671V119.568H549.247V122.176H547.519V119.568H541.791V118.208ZM543.359 125.024V120.896H545.071V123.632H553.263V125.024H543.359ZM543.423 116.848V111.68H553.023V116.848H543.423ZM545.103 115.488H551.327V113.04H545.103V115.488ZM555.609 113.328H558.249V111.44H559.945V113.328H562.521V114.704H555.609V113.328ZM556.009 118.8C556.009 116.848 557.289 115.472 559.097 115.472C560.889 115.472 562.185 116.848 562.185 118.8C562.185 120.768 560.889 122.128 559.097 122.128C557.289 122.128 556.009 120.768 556.009 118.8ZM557.529 118.8C557.529 119.952 558.169 120.688 559.097 120.688C559.993 120.688 560.665 119.952 560.665 118.8C560.665 117.648 559.993 116.912 559.097 116.912C558.169 116.912 557.529 117.648 557.529 118.8ZM563.113 124.624V111.344H564.729V116.928H566.137V111.056H567.769V125.28H566.137V118.32H564.729V124.624H563.113ZM569.476 119.024H582.34V120.416H576.724V125.296H575.028V120.416H569.476V119.024ZM570.164 116.688C572.932 116.32 574.804 114.8 574.932 113.232H570.66V111.856H581.14V113.232H576.9C577.028 114.8 578.9 116.32 581.668 116.688L581.028 118.048C578.66 117.696 576.788 116.576 575.924 115.04C575.044 116.576 573.172 117.696 570.804 118.048L570.164 116.688ZM588.91 115.968H590.926V111.328H592.526V124.608H590.926V117.376H588.91V115.968ZM583.07 121.056C585.102 119.84 586.03 117.296 586.03 114.864V112.352H587.694V114.8C587.694 117.088 588.51 119.488 590.414 120.704L589.454 122.032C588.19 121.264 587.358 119.92 586.878 118.352C586.382 120.064 585.47 121.52 584.126 122.352L583.07 121.056ZM593.822 125.28V111.056H595.47V125.28H593.822ZM597.144 122.144H600.12V118.496C599 117.84 598.328 116.848 598.328 115.584C598.328 113.296 600.536 111.824 603.576 111.824C606.632 111.824 608.824 113.296 608.824 115.584C608.824 116.832 608.152 117.84 607.048 118.496V122.144H610.024V123.536H597.144V122.144ZM600.008 115.584C600.008 117.072 601.464 117.984 603.576 117.984C605.672 117.984 607.144 117.072 607.144 115.584C607.144 114.096 605.672 113.184 603.576 113.184C601.464 113.184 600.008 114.096 600.008 115.584ZM601.832 122.144H605.32V119.136C604.776 119.248 604.2 119.312 603.576 119.312C602.952 119.312 602.376 119.248 601.832 119.136V122.144ZM612.275 122.4C612.915 122.4 613.251 122.832 613.251 123.376C613.251 123.936 612.915 124.368 612.275 124.368C611.635 124.368 611.283 123.936 611.283 123.376C611.283 122.832 611.635 122.4 612.275 122.4ZM618.804 119.024H631.668V120.416H626.052V125.296H624.356V120.416H618.804V119.024ZM619.492 116.688C622.26 116.32 624.132 114.8 624.26 113.232H619.988V111.856H630.468V113.232H626.228C626.356 114.8 628.228 116.32 630.996 116.688L630.356 118.048C627.988 117.696 626.116 116.576 625.252 115.04C624.372 116.576 622.5 117.696 620.132 118.048L619.492 116.688ZM632.622 118.208H645.502V119.568H640.078V122.176H638.35V119.568H632.622V118.208ZM634.19 125.024V120.896H635.902V123.632H644.094V125.024H634.19ZM634.254 116.848V111.68H643.854V116.848H634.254ZM635.934 115.488H642.158V113.04H635.934V115.488ZM646.473 122.144H649.449V118.496C648.329 117.84 647.657 116.848 647.657 115.584C647.657 113.296 649.865 111.824 652.905 111.824C655.961 111.824 658.153 113.296 658.153 115.584C658.153 116.832 657.481 117.84 656.377 118.496V122.144H659.353V123.536H646.473V122.144ZM649.337 115.584C649.337 117.072 650.793 117.984 652.905 117.984C655.001 117.984 656.473 117.072 656.473 115.584C656.473 114.096 655.001 113.184 652.905 113.184C650.793 113.184 649.337 114.096 649.337 115.584ZM651.161 122.144H654.649V119.136C654.105 119.248 653.529 119.312 652.905 119.312C652.281 119.312 651.705 119.248 651.161 119.136V122.144ZM660.675 112.624H663.651V111.008H665.363V112.624H668.307V114H665.363V114.064C665.363 115.68 666.563 117.2 668.787 117.808L668.003 119.136C666.371 118.688 665.203 117.728 664.547 116.496C663.923 117.888 662.739 118.992 661.075 119.504L660.243 118.16C662.467 117.488 663.651 115.824 663.651 114.064V114H660.675V112.624ZM662.531 122.608C662.531 120.928 664.371 119.952 667.363 119.952C670.339 119.952 672.163 120.928 672.163 122.608C672.163 124.288 670.339 125.264 667.363 125.264C664.371 125.264 662.531 124.288 662.531 122.608ZM664.259 122.608C664.259 123.472 665.363 123.952 667.363 123.952C669.331 123.952 670.451 123.472 670.451 122.608C670.451 121.744 669.331 121.28 667.363 121.28C665.363 121.28 664.259 121.744 664.259 122.608ZM667.907 116.352V114.96H670.387V111.056H672.115V119.648H670.387V116.352H667.907ZM677.709 112.208H679.437V114.48C679.437 117.104 680.813 119.712 683.085 120.72L682.077 122.112C680.445 121.344 679.261 119.824 678.605 117.952C677.965 119.952 676.733 121.6 675.021 122.416L673.997 120.992C676.301 119.952 677.709 117.216 677.709 114.48V112.208ZM684.125 125.312V111.04H685.853V125.312H684.125ZM691.977 112.368H693.593V115.68H695.897V112.368H697.497V121.824H691.977V112.368ZM693.593 120.448H695.897V117.024H693.593V120.448ZM698.905 124.608V111.328H700.505V116.576H702.025V111.056H703.673V125.28H702.025V117.968H700.505V124.608H698.905ZM710.9 116.064H712.612V117.952H718.196V119.328H705.348V117.952H710.9V116.064ZM706.052 115.52C708.964 115.136 710.884 113.536 710.884 111.808V111.296H712.644V111.808C712.644 113.568 714.548 115.136 717.476 115.52L716.836 116.88C714.516 116.512 712.66 115.456 711.764 113.952C710.868 115.456 709.012 116.528 706.692 116.88L706.052 115.52ZM706.852 122.768C706.852 121.184 708.676 120.272 711.764 120.272C714.82 120.272 716.66 121.184 716.66 122.768C716.66 124.384 714.82 125.264 711.764 125.264C708.676 125.264 706.852 124.384 706.852 122.768ZM708.58 122.768C708.58 123.568 709.7 123.984 711.764 123.984C713.812 123.984 714.916 123.568 714.916 122.768C714.916 121.984 713.812 121.584 711.764 121.584C709.7 121.584 708.58 121.984 708.58 122.768ZM455.998 135.664C458.046 135.664 459.518 136.816 459.518 138.512C459.518 139.952 458.462 141.008 456.878 141.28V142.48C458.062 142.416 459.262 142.304 460.35 142.144L460.478 143.376C457.582 143.92 454.286 143.968 451.902 143.968L451.694 142.592C452.718 142.592 453.918 142.592 455.166 142.544V141.296C453.566 141.024 452.462 139.968 452.462 138.512C452.462 136.816 453.95 135.664 455.998 135.664ZM453.63 148.992V144.992H455.358V147.6H463.39V148.992H453.63ZM454.078 138.512C454.078 139.472 454.846 140.064 455.998 140.064C457.134 140.064 457.918 139.472 457.918 138.512C457.918 137.568 457.134 136.96 455.998 136.96C454.846 136.96 454.078 137.568 454.078 138.512ZM461.182 145.92V135.072H462.894V139.664H464.83V141.088H462.894V145.92H461.182ZM465.56 146.224H468.984V143.824H467.096V139.2H475.24V137.392H467.08V136.016H476.936V140.544H468.808V142.432H477.256V143.824H475.176V146.224H478.44V147.616H465.56V146.224ZM470.664 146.224H473.496V143.824H470.664V146.224ZM490.516 138.832H493.012V135.072H494.74V145.44H493.012V140.24H490.516V138.832ZM482.9 142.416C485.14 141.648 486.356 139.792 486.356 137.888V137.472H483.396V136.096H491.012V137.472H488.1V137.888C488.1 139.616 489.252 141.392 491.412 142.128L490.564 143.488C488.996 142.928 487.876 141.856 487.252 140.496C486.644 142 485.444 143.216 483.764 143.792L482.9 142.416ZM485.476 149.008V144.56H487.204V147.616H495.108V149.008H485.476ZM506.302 135.056H508.014V140.736H509.982V142.16H508.014V149.28H506.302V135.056ZM496.574 145.232C498.558 143.088 499.23 140.8 499.358 137.936H497.134V136.544H500.99C500.99 140.256 500.478 143.408 497.934 146.208L496.574 145.232ZM500.606 146.16C502.606 143.728 503.166 141.04 503.278 137.936H501.454V136.544H504.894C504.894 140.368 504.494 144.032 501.966 147.12L500.606 146.16ZM511.033 136.448H519.017V137.888H515.897V139.12C515.897 141.472 517.289 143.92 519.545 144.864L518.585 146.224C516.937 145.488 515.705 143.984 515.049 142.176C514.409 144.128 513.161 145.792 511.497 146.576L510.521 145.232C512.761 144.192 514.153 141.536 514.153 139.12V137.888H511.033V136.448ZM520.585 149.28V135.056H522.313V149.28H520.585ZM527.973 143.6H540.837V145.008H535.253V149.296H533.541V145.008H527.973V143.6ZM528.693 141.376C531.509 141.024 533.365 139.568 533.525 138.112H529.173V136.736H533.541V135.072H535.253V136.736H539.637V138.112H535.285C535.445 139.536 537.301 141.024 540.085 141.376L539.477 142.736C537.141 142.448 535.317 141.392 534.405 140C533.493 141.408 531.653 142.432 529.301 142.736L528.693 141.376ZM551.135 135.04H552.863V140.624H554.975V142.048H552.863V149.264H551.135V135.04ZM541.759 145.392C545.199 143.648 547.055 141.2 547.391 137.936H542.495V136.544H549.135C549.135 140.72 547.407 144.368 542.735 146.704L541.759 145.392ZM559.179 143.024H572.043V144.416H566.427V149.296H564.731V144.416H559.179V143.024ZM559.867 140.688C562.635 140.32 564.507 138.8 564.635 137.232H560.363V135.856H570.843V137.232H566.603C566.731 138.8 568.603 140.32 571.371 140.688L570.731 142.048C568.363 141.696 566.491 140.576 565.627 139.04C564.747 140.576 562.875 141.696 560.507 142.048L559.867 140.688ZM572.997 142.208H585.877V143.568H580.453V146.176H578.725V143.568H572.997V142.208ZM574.565 149.024V144.896H576.277V147.632H584.469V149.024H574.565ZM574.629 140.848V135.68H584.229V140.848H574.629ZM576.309 139.488H582.533V137.04H576.309V139.488ZM596.848 135.04H598.576V149.312H596.848V135.04ZM587.296 141.104C587.296 138.032 588.832 136.08 590.976 136.08C593.12 136.08 594.656 138.032 594.656 141.104C594.656 144.192 593.12 146.16 590.976 146.16C588.832 146.16 587.296 144.192 587.296 141.104ZM588.96 141.104C588.96 143.312 589.776 144.592 590.976 144.592C592.176 144.592 593.008 143.312 593.008 141.104C593.008 138.928 592.176 137.648 590.976 137.648C589.776 137.648 588.96 138.928 588.96 141.104ZM608.059 136.08C609.963 136.08 611.403 137.696 611.643 140.304H614.331V135.04H616.043V149.312H614.331V141.68H611.659C611.483 144.432 610.027 146.16 608.059 146.16C605.963 146.16 604.443 144.192 604.443 141.104C604.443 138.032 605.963 136.08 608.059 136.08ZM606.075 141.104C606.075 143.312 606.891 144.592 608.059 144.592C609.259 144.592 610.043 143.312 610.043 141.104C610.043 138.928 609.259 137.648 608.059 137.648C606.891 137.648 606.075 138.928 606.075 141.104ZM628.15 135.04H629.862V149.312H628.15V143.44H625.542V142.064H628.15V139.568H625.606V138.16H628.15V135.04ZM618.518 137.664V136.288H624.822V141.616H620.262V144.656C622.134 144.64 623.766 144.56 625.67 144.272L625.814 145.68C623.67 146.032 621.846 146.08 619.654 146.08H618.55V140.24H623.11V137.664H618.518ZM642.048 135.056H643.776V149.28H642.048V146H639.04V144.672H642.048V135.056ZM631.824 142.4C634.48 142.4 638 142.384 641.072 141.968L641.168 143.2C639.856 143.424 638.528 143.568 637.216 143.664V148.848H635.488V143.76C634.256 143.808 633.088 143.808 632.032 143.808L631.824 142.4ZM632.832 138.56C632.832 136.864 634.336 135.696 636.448 135.696C638.544 135.696 640.032 136.864 640.032 138.56C640.032 140.288 638.544 141.424 636.448 141.424C634.336 141.424 632.832 140.288 632.832 138.56ZM634.448 138.56C634.448 139.536 635.264 140.112 636.448 140.112C637.6 140.112 638.4 139.536 638.4 138.56C638.4 137.616 637.6 137.008 636.448 137.008C635.264 137.008 634.448 137.616 634.448 138.56ZM645.723 146.144H648.699V142.496C647.579 141.84 646.907 140.848 646.907 139.584C646.907 137.296 649.115 135.824 652.155 135.824C655.211 135.824 657.403 137.296 657.403 139.584C657.403 140.832 656.731 141.84 655.627 142.496V146.144H658.603V147.536H645.723V146.144ZM648.587 139.584C648.587 141.072 650.043 141.984 652.155 141.984C654.251 141.984 655.723 141.072 655.723 139.584C655.723 138.096 654.251 137.184 652.155 137.184C650.043 137.184 648.587 138.096 648.587 139.584ZM650.411 146.144H653.899V143.136C653.355 143.248 652.779 143.312 652.155 143.312C651.531 143.312 650.955 143.248 650.411 143.136V146.144ZM660.853 146.4C661.493 146.4 661.829 146.832 661.829 147.376C661.829 147.936 661.493 148.368 660.853 148.368C660.213 148.368 659.861 147.936 659.861 147.376C659.861 146.832 660.213 146.4 660.853 146.4Z" fill="#E53935"/>
<path d="M437.224 178.16C437.224 177.68 437.299 177.296 437.448 177.008C437.608 176.709 437.822 176.496 438.088 176.368C438.366 176.24 438.67 176.176 439 176.176C439.331 176.176 439.63 176.24 439.896 176.368C440.163 176.496 440.376 176.709 440.536 177.008C440.696 177.296 440.776 177.68 440.776 178.16C440.776 178.629 440.696 179.013 440.536 179.312C440.376 179.6 440.163 179.813 439.896 179.952C439.63 180.08 439.331 180.144 439 180.144C438.67 180.144 438.366 180.08 438.088 179.952C437.822 179.813 437.608 179.6 437.448 179.312C437.299 179.013 437.224 178.629 437.224 178.16ZM455.672 178.544H456.888V181.152C458.232 181.088 459.592 180.976 460.872 180.768L460.968 181.648C457.816 182.24 454.376 182.256 451.864 182.256L451.704 181.248C452.856 181.248 454.232 181.248 455.672 181.2V178.544ZM452.136 178.08C454.184 177.456 455.64 175.904 455.672 174H452.456V173.008H455.672V171.264H456.888V173.008H460.152V174H456.872C456.904 175.84 458.408 177.328 460.44 177.936L459.88 178.864C458.232 178.352 456.904 177.28 456.28 175.84C455.688 177.344 454.36 178.48 452.696 179.024L452.136 178.08ZM461.8 185.184V171.152H463V185.184H461.8ZM471.186 176.16H472.386V178.176H478.114V179.152H465.474V178.176H471.186V176.16ZM466.194 175.872C468.61 175.632 470.962 174.4 471.026 172.8H466.642V171.84H476.978V172.8H472.578C472.642 174.4 474.994 175.632 477.41 175.872L476.978 176.832C474.722 176.544 472.578 175.536 471.81 174C471.042 175.552 468.898 176.544 466.626 176.832L466.194 175.872ZM467.01 182.736C467.01 181.2 468.786 180.336 471.794 180.336C474.786 180.336 476.578 181.2 476.578 182.736C476.578 184.288 474.786 185.136 471.794 185.136C468.786 185.136 467.01 184.288 467.01 182.736ZM468.21 182.736C468.21 183.68 469.554 184.208 471.794 184.208C474.034 184.208 475.362 183.68 475.362 182.736C475.362 181.808 474.034 181.28 471.794 181.28C469.554 181.28 468.21 181.808 468.21 182.736ZM493.134 171.168H494.334V178.32H493.134V176.848H489.406V175.888H493.134V174.176H489.614C488.766 176.384 486.59 177.888 483.502 178.64L483.086 177.664C486.494 176.848 488.494 175.136 488.718 172.864H483.79V171.872H490.03C490.03 172.352 489.982 172.8 489.902 173.232H493.134V171.168ZM485.358 179.952V178.976H494.334V182.368H486.574V184.064H494.814V185.024H485.39V181.44H493.134V179.952H485.358ZM507.385 171.168H508.537V185.168H507.385V171.168ZM496.521 181.456C498.441 180.288 499.577 177.728 499.577 175.152V173.824H496.873V172.832H503.289V173.824H500.745V175.152C500.745 177.584 501.833 180.032 503.737 181.136L503.001 182.016C501.641 181.184 500.665 179.664 500.169 177.872C499.689 179.808 498.665 181.472 497.257 182.352L496.521 181.456ZM502.217 177.216V176.224H504.585V171.504H505.705V184.432H504.585V177.216H502.217ZM512.147 171.92H521.539V172.944C521.539 174.048 521.539 175.328 521.155 177.088H523.203V178.08H510.515V177.088H519.971C520.371 175.328 520.371 174.048 520.371 172.944V172.912H512.147V171.92ZM512.083 184.992V180.032H521.603V184.992H512.083ZM513.251 184.016H520.435V180.992H513.251V184.016ZM527.661 172.064C529.501 172.064 530.845 173.408 530.845 175.344C530.845 177.28 529.501 178.624 527.661 178.624C525.821 178.624 524.493 177.28 524.493 175.344C524.493 173.408 525.821 172.064 527.661 172.064ZM525.581 175.344C525.581 176.656 526.461 177.616 527.661 177.616C528.861 177.616 529.757 176.656 529.757 175.344C529.757 174.016 528.861 173.072 527.661 173.072C526.461 173.072 525.581 174.016 525.581 175.344ZM526.765 181.28V180.304H536.125V185.168H534.925V181.28H526.765ZM531.981 179.408V171.44H533.117V174.784H534.973V171.184H536.125V179.504H534.973V175.792H533.117V179.408H531.981ZM542.473 172.08H548.953V177.776H542.473V172.08ZM543.481 184.192C545.849 183.904 548.169 182.56 548.169 181.136H544.041V180.192H548.169V178.816H549.385V180.192H553.513V181.136H549.385C549.385 182.528 551.657 183.888 553.993 184.192L553.593 185.12C551.513 184.832 549.593 183.824 548.777 182.512C547.929 183.84 545.977 184.832 543.897 185.12L543.481 184.192ZM543.625 176.816H547.801V173.04H543.625V176.816ZM551.977 179.216V171.168H553.177V179.216H551.977ZM569.381 171.168H570.581V178.32H569.381V176.848H565.653V175.888H569.381V174.176H565.861C565.013 176.384 562.837 177.888 559.749 178.64L559.333 177.664C562.741 176.848 564.741 175.136 564.965 172.864H560.037V171.872H566.277C566.277 172.352 566.229 172.8 566.149 173.232H569.381V171.168ZM561.605 179.952V178.976H570.581V182.368H562.821V184.064H571.061V185.024H561.637V181.44H569.381V179.952H561.605ZM583.632 171.168H584.784V185.168H583.632V171.168ZM572.768 181.456C574.688 180.288 575.824 177.728 575.824 175.152V173.824H573.12V172.832H579.536V173.824H576.992V175.152C576.992 177.584 578.08 180.032 579.984 181.136L579.248 182.016C577.888 181.184 576.912 179.664 576.416 177.872C575.936 179.808 574.912 181.472 573.504 182.352L572.768 181.456ZM578.464 177.216V176.224H580.832V171.504H581.952V184.432H580.832V177.216H578.464ZM593.178 179.968C596.026 179.968 597.77 180.928 597.77 182.56C597.77 184.208 596.026 185.152 593.178 185.152C590.33 185.152 588.586 184.208 588.586 182.56C588.586 180.928 590.33 179.968 593.178 179.968ZM587.386 178.496V172.048H588.57V174.192H592.65V172.048H593.834V178.496H587.386ZM588.57 177.52H592.65V175.152H588.57V177.52ZM589.754 182.56C589.754 183.584 591.066 184.192 593.178 184.192C595.274 184.192 596.57 183.584 596.57 182.56C596.57 181.552 595.274 180.944 593.178 180.944C591.066 180.944 589.754 181.552 589.754 182.56ZM596.426 179.6V171.168H597.626V174.72H599.706V175.728H597.626V179.6H596.426ZM601.284 171.888H602.484V174.08H606.404V171.888H607.588V174.624H610.884V171.168H612.084V178.816H610.884V175.616H607.588V178.288H601.284V171.888ZM602.484 177.296H606.404V175.024H602.484V177.296ZM603.156 184.96V179.504H604.34V181.232H610.884V179.504H612.068V184.96H603.156ZM604.34 183.984H610.884V182.208H604.34V183.984ZM614.431 178.56H627.071V179.536H614.431V178.56ZM615.839 174.432C615.839 172.688 617.759 171.648 620.751 171.648C623.743 171.648 625.663 172.688 625.663 174.432C625.663 176.176 623.743 177.216 620.751 177.216C617.759 177.216 615.839 176.176 615.839 174.432ZM616.079 184.864V180.8H617.279V183.872H625.679V184.864H616.079ZM617.071 174.432C617.071 175.552 618.527 176.24 620.751 176.24C622.991 176.24 624.431 175.552 624.431 174.432C624.431 173.312 622.991 172.64 620.751 172.64C618.527 172.64 617.071 173.312 617.071 174.432ZM632.139 172.208H639.627V173.2H636.491V173.808C636.491 175.664 637.867 177.312 639.899 178L639.323 178.928C637.739 178.384 636.523 177.28 635.931 175.856C635.339 177.472 634.043 178.752 632.379 179.344L631.771 178.4C633.851 177.664 635.307 175.856 635.307 173.824V173.2H632.139V172.208ZM633.627 182.56C633.627 180.944 635.371 180.016 638.203 180.016C641.051 180.016 642.795 180.944 642.795 182.56C642.795 184.192 641.051 185.136 638.203 185.136C635.371 185.136 633.627 184.192 633.627 182.56ZM634.795 182.56C634.795 183.584 636.107 184.192 638.203 184.192C640.315 184.192 641.611 183.584 641.611 182.56C641.611 181.568 640.315 180.976 638.203 180.976C636.107 180.976 634.795 181.568 634.795 182.56ZM641.451 179.616V171.168H642.651V174.768H644.747V175.76H642.651V179.616H641.451ZM655.893 171.168H657.093V185.168H655.893V171.168ZM645.813 181.568C649.589 179.76 651.493 177.024 651.749 173.664H646.437V172.672H652.965C652.965 176.704 651.109 180.256 646.453 182.528L645.813 181.568ZM659.471 182.352H662.623V178.528C661.439 177.92 660.719 176.912 660.719 175.648C660.719 173.472 662.847 172.064 665.791 172.064C668.767 172.064 670.863 173.472 670.863 175.648C670.863 176.896 670.159 177.888 669.007 178.512V182.352H672.159V183.344H659.471V182.352ZM661.887 175.648C661.887 177.232 663.519 178.272 665.791 178.272C668.063 178.272 669.711 177.232 669.711 175.648C669.711 174.064 668.063 173.024 665.791 173.024C663.519 173.024 661.887 174.064 661.887 175.648ZM663.807 182.352H667.807V178.976C667.199 179.136 666.527 179.216 665.791 179.216C665.071 179.216 664.415 179.136 663.807 178.976V182.352ZM677.226 172C679.322 172 680.858 173.344 680.858 175.296C680.858 177.248 679.322 178.576 677.226 178.576C675.114 178.576 673.594 177.248 673.594 175.296C673.594 173.344 675.114 172 677.226 172ZM674.762 175.296C674.762 176.64 675.802 177.568 677.226 177.568C678.65 177.568 679.706 176.64 679.706 175.296C679.706 173.952 678.65 173.024 677.226 173.024C675.802 173.024 674.762 173.952 674.762 175.296ZM675.13 182.528C675.13 180.88 676.874 179.92 679.722 179.92C682.554 179.92 684.298 180.88 684.298 182.528C684.298 184.176 682.554 185.136 679.722 185.136C676.874 185.136 675.13 184.176 675.13 182.528ZM676.298 182.528C676.298 183.552 677.61 184.176 679.722 184.176C681.818 184.176 683.114 183.552 683.114 182.528C683.114 181.504 681.818 180.896 679.722 180.896C677.61 180.896 676.298 181.504 676.298 182.528ZM682.954 179.472V171.168H684.154V173.296H686.218V174.304H684.154V176.272H686.218V177.28H684.154V179.472H682.954ZM697.396 171.168H698.596V185.168H697.396V171.168ZM687.316 181.568C691.092 179.76 692.996 177.024 693.252 173.664H687.94V172.672H694.468C694.468 176.704 692.612 180.256 687.956 182.528L687.316 181.568ZM701.758 172.256H708.67V172.992C708.67 173.888 708.67 175.28 708.302 177.136L707.118 177.008C707.47 175.328 707.502 174.128 707.502 173.248H701.758V172.256ZM700.894 178.448C701.79 178.448 702.83 178.448 703.902 178.416V175.36H705.086V178.384C706.638 178.32 708.238 178.208 709.678 178L709.758 178.88C706.862 179.376 703.502 179.44 701.038 179.44L700.894 178.448ZM703.054 184.848V180.752H704.238V183.856H712.286V184.848H703.054ZM710.638 181.712V171.168H711.838V175.76H713.886V176.752H711.838V181.712H710.638ZM457.96 195.424C461.032 195.424 462.872 196.272 462.872 197.84C462.872 199.408 461.032 200.272 457.96 200.272C454.888 200.272 453.048 199.408 453.048 197.84C453.048 196.272 454.888 195.424 457.96 195.424ZM451.64 202.224V201.248H464.28V202.224H451.64ZM453.176 204.384V203.456H462.648V206.56H454.392V208.064H463.08V209.008H453.224V205.68H461.48V204.384H453.176ZM454.28 197.84C454.28 198.816 455.656 199.36 457.96 199.36C460.264 199.36 461.64 198.816 461.64 197.84C461.64 196.88 460.264 196.32 457.96 196.32C455.656 196.32 454.28 196.88 454.28 197.84ZM469.012 202.608H474.724V201.184H470.692V195.584H480.084V196.544H471.892V197.872H479.716V198.8H471.892V200.24H480.164V201.184H475.924V202.608H481.652V203.584H469.012V202.608ZM470.548 206.912C470.548 205.44 472.276 204.688 475.332 204.688C478.372 204.688 480.116 205.44 480.116 206.912C480.116 208.368 478.372 209.136 475.332 209.136C472.276 209.136 470.548 208.368 470.548 206.912ZM471.748 206.912C471.748 207.776 473.044 208.224 475.332 208.224C477.604 208.224 478.916 207.776 478.916 206.912C478.916 206.064 477.604 205.584 475.332 205.584C473.044 205.584 471.748 206.064 471.748 206.912ZM482.814 197.6H485.71V195.568H486.894V197.6H489.774V198.576H482.814V197.6ZM483.31 202.72C483.31 200.864 484.558 199.552 486.302 199.552C488.046 199.552 489.31 200.864 489.31 202.72C489.31 204.608 488.046 205.904 486.302 205.904C484.558 205.904 483.31 204.608 483.31 202.72ZM484.382 202.72C484.382 203.984 485.182 204.88 486.302 204.88C487.422 204.88 488.238 203.984 488.238 202.72C488.238 201.472 487.422 200.56 486.302 200.56C485.182 200.56 484.382 201.472 484.382 202.72ZM490.51 208.464V195.504H491.646V201.088H493.518V195.168H494.654V209.168H493.518V202.08H491.646V208.464H490.51ZM509.834 195.184H511.034V199.44H513.13V200.432H511.034V204.544H509.834V195.184ZM500.154 203.152C501.274 203.152 502.586 203.152 503.946 203.104V202.048C502.33 201.92 501.29 201.168 501.29 200C501.29 198.72 502.57 197.936 504.522 197.936C506.49 197.936 507.77 198.72 507.77 200C507.77 201.152 506.746 201.904 505.13 202.048V203.056C506.442 202.992 507.754 202.88 508.986 202.704L509.082 203.568C506.074 204.112 502.746 204.128 500.314 204.128L500.154 203.152ZM500.506 197.376V196.464H503.946V195.056H505.13V196.464H508.554V197.376H500.506ZM501.866 206.224V205.264H511.034V209.168H509.834V206.224H501.866ZM502.426 200C502.426 200.736 503.242 201.248 504.522 201.248C505.818 201.248 506.634 200.736 506.634 200C506.634 199.248 505.818 198.768 504.522 198.768C503.242 198.768 502.426 199.248 502.426 200ZM524.292 195.184H525.508V205.408H524.292V195.184ZM514.372 199.6C514.372 197.568 515.94 196.16 518.004 196.16C520.084 196.16 521.636 197.568 521.636 199.6C521.636 201.6 520.084 203.024 518.004 203.024C515.94 203.024 514.372 201.6 514.372 199.6ZM515.54 199.6C515.54 200.976 516.612 201.968 518.004 201.968C519.412 201.968 520.484 200.976 520.484 199.6C520.484 198.192 519.412 197.2 518.004 197.2C516.612 197.2 515.54 198.192 515.54 199.6ZM516.564 208.848V204.368H517.748V207.856H525.94V208.848H516.564ZM527.855 197.6H530.751V195.568H531.935V197.6H534.815V198.576H527.855V197.6ZM528.351 202.72C528.351 200.864 529.599 199.552 531.343 199.552C533.087 199.552 534.351 200.864 534.351 202.72C534.351 204.608 533.087 205.904 531.343 205.904C529.599 205.904 528.351 204.608 528.351 202.72ZM529.423 202.72C529.423 203.984 530.223 204.88 531.343 204.88C532.463 204.88 533.279 203.984 533.279 202.72C533.279 201.472 532.463 200.56 531.343 200.56C530.223 200.56 529.423 201.472 529.423 202.72ZM535.551 208.464V195.504H536.687V201.088H538.559V195.168H539.695V209.168H538.559V202.08H536.687V208.464H535.551ZM541.721 203.184H554.377V204.176H548.617V209.168H547.433V204.176H541.721V203.184ZM542.489 200.992C544.873 200.64 547.385 199.04 547.385 197.152V197.04H542.921V196.064H553.145V197.04H548.713V197.152C548.713 199.04 551.225 200.64 553.609 200.992L553.145 201.968C551.017 201.6 548.889 200.416 548.057 198.72C547.209 200.416 545.081 201.6 542.953 201.968L542.489 200.992ZM561.06 200.208H563.428V195.488H564.548V208.448H563.428V201.216H561.06V200.208ZM555.396 205.232C557.3 204.112 558.5 201.6 558.5 199.2V196.512H559.652V199.168C559.652 201.392 560.756 203.792 562.596 204.896L561.892 205.824C560.548 205.024 559.588 203.504 559.092 201.808C558.58 203.664 557.54 205.28 556.148 206.128L555.396 205.232ZM566.276 209.168V195.168H567.428V209.168H566.276ZM569.39 206.352H572.542V202.528C571.358 201.92 570.638 200.912 570.638 199.648C570.638 197.472 572.766 196.064 575.71 196.064C578.686 196.064 580.782 197.472 580.782 199.648C580.782 200.896 580.078 201.888 578.926 202.512V206.352H582.078V207.344H569.39V206.352ZM571.806 199.648C571.806 201.232 573.438 202.272 575.71 202.272C577.982 202.272 579.63 201.232 579.63 199.648C579.63 198.064 577.982 197.024 575.71 197.024C573.438 197.024 571.806 198.064 571.806 199.648ZM573.726 206.352H577.726V202.976C577.118 203.136 576.446 203.216 575.71 203.216C574.99 203.216 574.334 203.136 573.726 202.976V206.352ZM584.392 206.608C584.904 206.608 585.176 206.96 585.176 207.392C585.176 207.856 584.904 208.208 584.392 208.208C583.864 208.208 583.576 207.856 583.576 207.392C583.576 206.96 583.864 206.608 584.392 206.608Z" fill="#616161"/>
</g>
<g filter="url(#filter1_dd_1303_48672)">
<path d="M16 16C16 11.5817 19.5817 8 24 8H348C352.418 8 356 11.5817 356 16V250C356 254.418 352.418 258 348 258H24C19.5817 258 16 254.418 16 250V16Z" fill="#FAFAFA" shape-rendering="crispEdges"/>
<path d="M36.64 43.74H52.86V45.76H49.04V51.66H46.54V45.76H42.86V51.66H40.34V45.76H36.64V43.74ZM38.24 38.38C38.24 35.92 40.88 34.38 44.7 34.38C48.52 34.38 51.16 35.92 51.16 38.38C51.16 40.8 48.52 42.36 44.7 42.36C40.88 42.36 38.24 40.8 38.24 38.38ZM40.78 38.38C40.78 39.68 42.3 40.4 44.7 40.4C47.08 40.4 48.62 39.68 48.62 38.38C48.62 37.08 47.08 36.34 44.7 36.34C42.3 36.34 40.78 37.08 40.78 38.38ZM59.7105 34.94C62.5105 34.94 64.6105 36.78 64.6105 39.34C64.6105 41.92 62.5105 43.74 59.7105 43.74C56.8905 43.74 54.7705 41.92 54.7705 39.34C54.7705 36.78 56.8905 34.94 59.7105 34.94ZM54.0105 46.02C57.1705 46.02 61.5905 46 65.3705 45.44L65.5505 47.24C61.6505 48 57.4105 48.04 54.3105 48.04L54.0105 46.02ZM57.1905 39.34C57.1905 40.76 58.2705 41.62 59.7105 41.62C61.1105 41.62 62.1905 40.76 62.1905 39.34C62.1905 37.9 61.1105 37.06 59.7105 37.06C58.2705 37.06 57.1905 37.9 57.1905 39.34ZM66.3705 51.7V33.72H68.8505V51.7H66.3705ZM75.3609 35.16H77.8209V37.8C77.8209 41.02 79.1609 44.28 82.0209 45.68L80.5209 47.64C78.6409 46.68 77.3409 44.9 76.6009 42.74C75.8209 45.06 74.4409 46.98 72.4209 47.98L70.9209 45.98C73.9009 44.58 75.3609 41.14 75.3609 37.8V35.16ZM82.8009 51.68V33.76H85.2809V40.68H87.9409V42.74H85.2809V51.68H82.8009ZM100.211 33.76H102.691V38.36H105.111V40.38H102.691V45.12H100.211V33.76ZM88.6314 37.42V35.48H92.6514V33.62H95.1314V35.48H99.1714V37.42H88.6314ZM89.5114 41.24C89.5114 39.34 91.3114 38.04 93.9114 38.04C96.4914 38.04 98.2914 39.34 98.2914 41.24C98.2914 43.18 96.4914 44.46 93.9114 44.46C91.3114 44.46 89.5114 43.18 89.5114 41.24ZM90.8914 48.5C90.8914 46.5 93.2114 45.32 96.9114 45.32C100.591 45.32 102.891 46.5 102.891 48.5C102.891 50.5 100.591 51.68 96.9114 51.68C93.2114 51.68 90.8914 50.5 90.8914 48.5ZM91.8914 41.24C91.8914 42.14 92.6914 42.66 93.9114 42.66C95.0914 42.66 95.9114 42.14 95.9114 41.24C95.9114 40.34 95.0914 39.86 93.9114 39.86C92.6914 39.86 91.8914 40.34 91.8914 41.24ZM93.3714 48.5C93.3714 49.38 94.6114 49.82 96.9114 49.82C99.2114 49.82 100.451 49.38 100.451 48.5C100.451 47.62 99.2114 47.18 96.9114 47.18C94.6114 47.18 93.3714 47.62 93.3714 48.5Z" fill="#1A1A1A"/>
<path d="M46.0003 102.334C50.6027 102.334 54.3337 98.6027 54.3337 94.0003C54.3337 89.398 50.6027 85.667 46.0003 85.667C41.398 85.667 37.667 89.398 37.667 94.0003C37.667 98.6027 41.398 102.334 46.0003 102.334Z" fill="#999999"/>
<path d="M46 93.4531C46.3452 93.4531 46.625 93.7329 46.625 94.0781V97.585C46.6248 97.9299 46.345 98.21 46 98.21C45.6551 98.2098 45.3752 97.9298 45.375 97.585V94.0781C45.375 93.733 45.655 93.4533 46 93.4531ZM46.0049 89.833C46.4625 89.833 46.8338 90.2059 46.834 90.666C46.834 91.1263 46.4626 91.5 46.0049 91.5H45.9961C45.5384 91.5 45.167 91.1263 45.167 90.666C45.1672 90.2059 45.5385 89.833 45.9961 89.833H46.0049Z" fill="white"/>
<path d="M66.672 94.544H67.888V97.152C69.232 97.088 70.592 96.976 71.872 96.768L71.968 97.648C68.816 98.24 65.376 98.256 62.864 98.256L62.704 97.248C63.856 97.248 65.232 97.248 66.672 97.2V94.544ZM63.136 94.08C65.184 93.456 66.64 91.904 66.672 90H63.456V89.008H66.672V87.264H67.888V89.008H71.152V90H67.872C67.904 91.84 69.408 93.328 71.44 93.936L70.88 94.864C69.232 94.352 67.904 93.28 67.28 91.84C66.688 93.344 65.36 94.48 63.696 95.024L63.136 94.08ZM72.8 101.184V87.152H74V101.184H72.8ZM82.1864 92.16H83.3864V94.176H89.1144V95.152H76.4744V94.176H82.1864V92.16ZM77.1944 91.872C79.6104 91.632 81.9624 90.4 82.0264 88.8H77.6424V87.84H87.9784V88.8H83.5784C83.6424 90.4 85.9944 91.632 88.4104 91.872L87.9784 92.832C85.7224 92.544 83.5784 91.536 82.8104 90C82.0424 91.552 79.8984 92.544 77.6264 92.832L77.1944 91.872ZM78.0104 98.736C78.0104 97.2 79.7864 96.336 82.7944 96.336C85.7864 96.336 87.5784 97.2 87.5784 98.736C87.5784 100.288 85.7864 101.136 82.7944 101.136C79.7864 101.136 78.0104 100.288 78.0104 98.736ZM79.2104 98.736C79.2104 99.68 80.5544 100.208 82.7944 100.208C85.0344 100.208 86.3624 99.68 86.3624 98.736C86.3624 97.808 85.0344 97.28 82.7944 97.28C80.5544 97.28 79.2104 97.808 79.2104 98.736ZM104.134 87.168H105.334V94.32H104.134V92.848H100.406V91.888H104.134V90.176H100.614C99.7662 92.384 97.5902 93.888 94.5022 94.64L94.0862 93.664C97.4942 92.848 99.4942 91.136 99.7182 88.864H94.7902V87.872H101.03C101.03 88.352 100.982 88.8 100.902 89.232H104.134V87.168ZM96.3582 95.952V94.976H105.334V98.368H97.5742V100.064H105.814V101.024H96.3902V97.44H104.134V95.952H96.3582ZM118.385 87.168H119.537V101.168H118.385V87.168ZM107.521 97.456C109.441 96.288 110.577 93.728 110.577 91.152V89.824H107.873V88.832H114.289V89.824H111.745V91.152C111.745 93.584 112.833 96.032 114.737 97.136L114.001 98.016C112.641 97.184 111.665 95.664 111.169 93.872C110.689 95.808 109.665 97.472 108.257 98.352L107.521 97.456ZM113.217 93.216V92.224H115.585V87.504H116.705V100.432H115.585V93.216H113.217ZM123.147 87.92H132.539V88.944C132.539 90.048 132.539 91.328 132.155 93.088H134.203V94.08H121.515V93.088H130.971C131.371 91.328 131.371 90.048 131.371 88.944V88.912H123.147V87.92ZM123.083 100.992V96.032H132.603V100.992H123.083ZM124.251 100.016H131.435V96.992H124.251V100.016ZM138.661 88.064C140.501 88.064 141.845 89.408 141.845 91.344C141.845 93.28 140.501 94.624 138.661 94.624C136.821 94.624 135.493 93.28 135.493 91.344C135.493 89.408 136.821 88.064 138.661 88.064ZM136.581 91.344C136.581 92.656 137.461 93.616 138.661 93.616C139.861 93.616 140.757 92.656 140.757 91.344C140.757 90.016 139.861 89.072 138.661 89.072C137.461 89.072 136.581 90.016 136.581 91.344ZM137.765 97.28V96.304H147.125V101.168H145.925V97.28H137.765ZM142.981 95.408V87.44H144.117V90.784H145.973V87.184H147.125V95.504H145.973V91.792H144.117V95.408H142.981ZM153.473 88.08H159.953V93.776H153.473V88.08ZM154.481 100.192C156.849 99.904 159.169 98.56 159.169 97.136H155.041V96.192H159.169V94.816H160.385V96.192H164.513V97.136H160.385C160.385 98.528 162.657 99.888 164.993 100.192L164.593 101.12C162.513 100.832 160.593 99.824 159.777 98.512C158.929 99.84 156.977 100.832 154.897 101.12L154.481 100.192ZM154.625 92.816H158.801V89.04H154.625V92.816ZM162.977 95.216V87.168H164.177V95.216H162.977ZM180.381 87.168H181.581V94.32H180.381V92.848H176.653V91.888H180.381V90.176H176.861C176.013 92.384 173.837 93.888 170.749 94.64L170.333 93.664C173.741 92.848 175.741 91.136 175.965 88.864H171.037V87.872H177.277C177.277 88.352 177.229 88.8 177.149 89.232H180.381V87.168ZM172.605 95.952V94.976H181.581V98.368H173.821V100.064H182.061V101.024H172.637V97.44H180.381V95.952H172.605ZM194.631 87.168H195.783V101.168H194.631V87.168ZM183.767 97.456C185.687 96.288 186.823 93.728 186.823 91.152V89.824H184.119V88.832H190.535V89.824H187.991V91.152C187.991 93.584 189.079 96.032 190.983 97.136L190.247 98.016C188.887 97.184 187.911 95.664 187.415 93.872C186.935 95.808 185.911 97.472 184.503 98.352L183.767 97.456ZM189.463 93.216V92.224H191.831V87.504H192.951V100.432H191.831V93.216H189.463ZM204.178 95.968C207.026 95.968 208.77 96.928 208.77 98.56C208.77 100.208 207.026 101.152 204.178 101.152C201.33 101.152 199.586 100.208 199.586 98.56C199.586 96.928 201.33 95.968 204.178 95.968ZM198.386 94.496V88.048H199.57V90.192H203.65V88.048H204.834V94.496H198.386ZM199.57 93.52H203.65V91.152H199.57V93.52ZM200.754 98.56C200.754 99.584 202.066 100.192 204.178 100.192C206.274 100.192 207.57 99.584 207.57 98.56C207.57 97.552 206.274 96.944 204.178 96.944C202.066 96.944 200.754 97.552 200.754 98.56ZM207.426 95.6V87.168H208.626V90.72H210.706V91.728H208.626V95.6H207.426ZM212.284 87.888H213.484V90.08H217.404V87.888H218.588V90.624H221.884V87.168H223.084V94.816H221.884V91.616H218.588V94.288H212.284V87.888ZM213.484 93.296H217.404V91.024H213.484V93.296ZM214.156 100.96V95.504H215.34V97.232H221.884V95.504H223.068V100.96H214.156ZM215.34 99.984H221.884V98.208H215.34V99.984ZM225.431 94.56H238.071V95.536H225.431V94.56ZM226.839 90.432C226.839 88.688 228.759 87.648 231.751 87.648C234.743 87.648 236.663 88.688 236.663 90.432C236.663 92.176 234.743 93.216 231.751 93.216C228.759 93.216 226.839 92.176 226.839 90.432ZM227.079 100.864V96.8H228.279V99.872H236.679V100.864H227.079ZM228.071 90.432C228.071 91.552 229.527 92.24 231.751 92.24C233.991 92.24 235.431 91.552 235.431 90.432C235.431 89.312 233.991 88.64 231.751 88.64C229.527 88.64 228.071 89.312 228.071 90.432ZM243.139 88.208H250.627V89.2H247.491V89.808C247.491 91.664 248.867 93.312 250.899 94L250.323 94.928C248.739 94.384 247.523 93.28 246.931 91.856C246.339 93.472 245.043 94.752 243.379 95.344L242.771 94.4C244.851 93.664 246.307 91.856 246.307 89.824V89.2H243.139V88.208ZM244.627 98.56C244.627 96.944 246.371 96.016 249.203 96.016C252.051 96.016 253.795 96.944 253.795 98.56C253.795 100.192 252.051 101.136 249.203 101.136C246.371 101.136 244.627 100.192 244.627 98.56ZM245.795 98.56C245.795 99.584 247.107 100.192 249.203 100.192C251.315 100.192 252.611 99.584 252.611 98.56C252.611 97.568 251.315 96.976 249.203 96.976C247.107 96.976 245.795 97.568 245.795 98.56ZM252.451 95.616V87.168H253.651V90.768H255.747V91.76H253.651V95.616H252.451ZM266.893 87.168H268.093V101.168H266.893V87.168ZM256.813 97.568C260.589 95.76 262.493 93.024 262.749 89.664H257.437V88.672H263.965C263.965 92.704 262.109 96.256 257.453 98.528L256.813 97.568ZM270.471 98.352H273.623V94.528C272.439 93.92 271.719 92.912 271.719 91.648C271.719 89.472 273.847 88.064 276.791 88.064C279.767 88.064 281.863 89.472 281.863 91.648C281.863 92.896 281.159 93.888 280.007 94.512V98.352H283.159V99.344H270.471V98.352ZM272.887 91.648C272.887 93.232 274.519 94.272 276.791 94.272C279.063 94.272 280.711 93.232 280.711 91.648C280.711 90.064 279.063 89.024 276.791 89.024C274.519 89.024 272.887 90.064 272.887 91.648ZM274.807 98.352H278.807V94.976C278.199 95.136 277.527 95.216 276.791 95.216C276.071 95.216 275.415 95.136 274.807 94.976V98.352ZM288.226 88C290.322 88 291.858 89.344 291.858 91.296C291.858 93.248 290.322 94.576 288.226 94.576C286.114 94.576 284.594 93.248 284.594 91.296C284.594 89.344 286.114 88 288.226 88ZM285.762 91.296C285.762 92.64 286.802 93.568 288.226 93.568C289.65 93.568 290.706 92.64 290.706 91.296C290.706 89.952 289.65 89.024 288.226 89.024C286.802 89.024 285.762 89.952 285.762 91.296ZM286.13 98.528C286.13 96.88 287.874 95.92 290.722 95.92C293.554 95.92 295.298 96.88 295.298 98.528C295.298 100.176 293.554 101.136 290.722 101.136C287.874 101.136 286.13 100.176 286.13 98.528ZM287.298 98.528C287.298 99.552 288.61 100.176 290.722 100.176C292.818 100.176 294.114 99.552 294.114 98.528C294.114 97.504 292.818 96.896 290.722 96.896C288.61 96.896 287.298 97.504 287.298 98.528ZM293.954 95.472V87.168H295.154V89.296H297.218V90.304H295.154V92.272H297.218V93.28H295.154V95.472H293.954ZM308.396 87.168H309.596V101.168H308.396V87.168ZM298.316 97.568C302.092 95.76 303.996 93.024 304.252 89.664H298.94V88.672H305.468C305.468 92.704 303.612 96.256 298.956 98.528L298.316 97.568ZM312.758 88.256H319.67V88.992C319.67 89.888 319.67 91.28 319.302 93.136L318.118 93.008C318.47 91.328 318.502 90.128 318.502 89.248H312.758V88.256ZM311.894 94.448C312.79 94.448 313.83 94.448 314.902 94.416V91.36H316.086V94.384C317.638 94.32 319.238 94.208 320.678 94L320.758 94.88C317.862 95.376 314.502 95.44 312.038 95.44L311.894 94.448ZM314.054 100.848V96.752H315.238V99.856H323.286V100.848H314.054ZM321.638 97.712V87.168H322.838V91.76H324.886V92.752H322.838V97.712H321.638ZM68.96 111.424C72.032 111.424 73.872 112.272 73.872 113.84C73.872 115.408 72.032 116.272 68.96 116.272C65.888 116.272 64.048 115.408 64.048 113.84C64.048 112.272 65.888 111.424 68.96 111.424ZM62.64 118.224V117.248H75.28V118.224H62.64ZM64.176 120.384V119.456H73.648V122.56H65.392V124.064H74.08V125.008H64.224V121.68H72.48V120.384H64.176ZM65.28 113.84C65.28 114.816 66.656 115.36 68.96 115.36C71.264 115.36 72.64 114.816 72.64 113.84C72.64 112.88 71.264 112.32 68.96 112.32C66.656 112.32 65.28 112.88 65.28 113.84ZM80.0119 118.608H85.7239V117.184H81.6919V111.584H91.0839V112.544H82.8919V113.872H90.7159V114.8H82.8919V116.24H91.1639V117.184H86.9239V118.608H92.6519V119.584H80.0119V118.608ZM81.5479 122.912C81.5479 121.44 83.2759 120.688 86.3319 120.688C89.3719 120.688 91.1159 121.44 91.1159 122.912C91.1159 124.368 89.3719 125.136 86.3319 125.136C83.2759 125.136 81.5479 124.368 81.5479 122.912ZM82.7479 122.912C82.7479 123.776 84.0439 124.224 86.3319 124.224C88.6039 124.224 89.9159 123.776 89.9159 122.912C89.9159 122.064 88.6039 121.584 86.3319 121.584C84.0439 121.584 82.7479 122.064 82.7479 122.912ZM93.8142 113.6H96.7102V111.568H97.8942V113.6H100.774V114.576H93.8142V113.6ZM94.3102 118.72C94.3102 116.864 95.5582 115.552 97.3022 115.552C99.0462 115.552 100.31 116.864 100.31 118.72C100.31 120.608 99.0462 121.904 97.3022 121.904C95.5582 121.904 94.3102 120.608 94.3102 118.72ZM95.3822 118.72C95.3822 119.984 96.1822 120.88 97.3022 120.88C98.4222 120.88 99.2382 119.984 99.2382 118.72C99.2382 117.472 98.4222 116.56 97.3022 116.56C96.1822 116.56 95.3822 117.472 95.3822 118.72ZM101.51 124.464V111.504H102.646V117.088H104.518V111.168H105.654V125.168H104.518V118.08H102.646V124.464H101.51ZM120.834 111.184H122.034V115.44H124.13V116.432H122.034V120.544H120.834V111.184ZM111.154 119.152C112.274 119.152 113.586 119.152 114.946 119.104V118.048C113.33 117.92 112.29 117.168 112.29 116C112.29 114.72 113.57 113.936 115.522 113.936C117.49 113.936 118.77 114.72 118.77 116C118.77 117.152 117.746 117.904 116.13 118.048V119.056C117.442 118.992 118.754 118.88 119.986 118.704L120.082 119.568C117.074 120.112 113.746 120.128 111.314 120.128L111.154 119.152ZM111.506 113.376V112.464H114.946V111.056H116.13V112.464H119.554V113.376H111.506ZM112.866 122.224V121.264H122.034V125.168H120.834V122.224H112.866ZM113.426 116C113.426 116.736 114.242 117.248 115.522 117.248C116.818 117.248 117.634 116.736 117.634 116C117.634 115.248 116.818 114.768 115.522 114.768C114.242 114.768 113.426 115.248 113.426 116ZM135.292 111.184H136.508V121.408H135.292V111.184ZM125.372 115.6C125.372 113.568 126.94 112.16 129.004 112.16C131.084 112.16 132.636 113.568 132.636 115.6C132.636 117.6 131.084 119.024 129.004 119.024C126.94 119.024 125.372 117.6 125.372 115.6ZM126.54 115.6C126.54 116.976 127.612 117.968 129.004 117.968C130.412 117.968 131.484 116.976 131.484 115.6C131.484 114.192 130.412 113.2 129.004 113.2C127.612 113.2 126.54 114.192 126.54 115.6ZM127.564 124.848V120.368H128.748V123.856H136.94V124.848H127.564ZM138.855 113.6H141.751V111.568H142.935V113.6H145.815V114.576H138.855V113.6ZM139.351 118.72C139.351 116.864 140.599 115.552 142.343 115.552C144.087 115.552 145.351 116.864 145.351 118.72C145.351 120.608 144.087 121.904 142.343 121.904C140.599 121.904 139.351 120.608 139.351 118.72ZM140.423 118.72C140.423 119.984 141.223 120.88 142.343 120.88C143.463 120.88 144.279 119.984 144.279 118.72C144.279 117.472 143.463 116.56 142.343 116.56C141.223 116.56 140.423 117.472 140.423 118.72ZM146.551 124.464V111.504H147.687V117.088H149.559V111.168H150.695V125.168H149.559V118.08H147.687V124.464H146.551ZM152.721 119.184H165.377V120.176H159.617V125.168H158.433V120.176H152.721V119.184ZM153.489 116.992C155.873 116.64 158.385 115.04 158.385 113.152V113.04H153.921V112.064H164.145V113.04H159.713V113.152C159.713 115.04 162.225 116.64 164.609 116.992L164.145 117.968C162.017 117.6 159.889 116.416 159.057 114.72C158.209 116.416 156.081 117.6 153.953 117.968L153.489 116.992ZM172.06 116.208H174.428V111.488H175.548V124.448H174.428V117.216H172.06V116.208ZM166.396 121.232C168.3 120.112 169.5 117.6 169.5 115.2V112.512H170.652V115.168C170.652 117.392 171.756 119.792 173.596 120.896L172.892 121.824C171.548 121.024 170.588 119.504 170.092 117.808C169.58 119.664 168.54 121.28 167.148 122.128L166.396 121.232ZM177.276 125.168V111.168H178.428V125.168H177.276ZM180.39 122.352H183.542V118.528C182.358 117.92 181.638 116.912 181.638 115.648C181.638 113.472 183.766 112.064 186.71 112.064C189.686 112.064 191.782 113.472 191.782 115.648C191.782 116.896 191.078 117.888 189.926 118.512V122.352H193.078V123.344H180.39V122.352ZM182.806 115.648C182.806 117.232 184.438 118.272 186.71 118.272C188.982 118.272 190.63 117.232 190.63 115.648C190.63 114.064 188.982 113.024 186.71 113.024C184.438 113.024 182.806 114.064 182.806 115.648ZM184.726 122.352H188.726V118.976C188.118 119.136 187.446 119.216 186.71 119.216C185.99 119.216 185.334 119.136 184.726 118.976V122.352ZM195.392 122.608C195.904 122.608 196.176 122.96 196.176 123.392C196.176 123.856 195.904 124.208 195.392 124.208C194.864 124.208 194.576 123.856 194.576 123.392C194.576 122.96 194.864 122.608 195.392 122.608ZM202.167 112.208H209.655V113.2H206.519V113.808C206.519 115.664 207.895 117.312 209.927 118L209.351 118.928C207.767 118.384 206.551 117.28 205.959 115.856C205.367 117.472 204.071 118.752 202.407 119.344L201.799 118.4C203.879 117.664 205.335 115.856 205.335 113.824V113.2H202.167V112.208ZM203.655 122.56C203.655 120.944 205.399 120.016 208.231 120.016C211.079 120.016 212.823 120.944 212.823 122.56C212.823 124.192 211.079 125.136 208.231 125.136C205.399 125.136 203.655 124.192 203.655 122.56ZM204.823 122.56C204.823 123.584 206.135 124.192 208.231 124.192C210.343 124.192 211.639 123.584 211.639 122.56C211.639 121.568 210.343 120.976 208.231 120.976C206.135 120.976 204.823 121.568 204.823 122.56ZM211.479 119.616V111.168H212.679V114.768H214.775V115.76H212.679V119.616H211.479ZM225.921 111.168H227.121V125.168H225.921V111.168ZM215.841 121.568C219.617 119.76 221.521 117.024 221.777 113.664H216.465V112.672H222.993C222.993 116.704 221.137 120.256 216.481 122.528L215.841 121.568ZM229.499 122.352H232.651V118.528C231.467 117.92 230.747 116.912 230.747 115.648C230.747 113.472 232.875 112.064 235.819 112.064C238.795 112.064 240.891 113.472 240.891 115.648C240.891 116.896 240.187 117.888 239.035 118.512V122.352H242.187V123.344H229.499V122.352ZM231.915 115.648C231.915 117.232 233.547 118.272 235.819 118.272C238.091 118.272 239.739 117.232 239.739 115.648C239.739 114.064 238.091 113.024 235.819 113.024C233.547 113.024 231.915 114.064 231.915 115.648ZM233.835 122.352H237.835V118.976C237.227 119.136 236.555 119.216 235.819 119.216C235.099 119.216 234.443 119.136 233.835 118.976V122.352ZM247.254 112C249.35 112 250.886 113.344 250.886 115.296C250.886 117.248 249.35 118.576 247.254 118.576C245.142 118.576 243.622 117.248 243.622 115.296C243.622 113.344 245.142 112 247.254 112ZM244.79 115.296C244.79 116.64 245.83 117.568 247.254 117.568C248.678 117.568 249.734 116.64 249.734 115.296C249.734 113.952 248.678 113.024 247.254 113.024C245.83 113.024 244.79 113.952 244.79 115.296ZM245.158 122.528C245.158 120.88 246.902 119.92 249.75 119.92C252.582 119.92 254.326 120.88 254.326 122.528C254.326 124.176 252.582 125.136 249.75 125.136C246.902 125.136 245.158 124.176 245.158 122.528ZM246.326 122.528C246.326 123.552 247.638 124.176 249.75 124.176C251.846 124.176 253.142 123.552 253.142 122.528C253.142 121.504 251.846 120.896 249.75 120.896C247.638 120.896 246.326 121.504 246.326 122.528ZM252.982 119.472V111.168H254.182V113.296H256.246V114.304H254.182V116.272H256.246V117.28H254.182V119.472H252.982ZM267.424 111.168H268.624V125.168H267.424V111.168ZM257.344 121.568C261.12 119.76 263.024 117.024 263.28 113.664H257.968V112.672H264.496C264.496 116.704 262.64 120.256 257.984 122.528L257.344 121.568ZM271.787 112.256H278.699V112.992C278.699 113.888 278.699 115.28 278.331 117.136L277.147 117.008C277.499 115.328 277.531 114.128 277.531 113.248H271.787V112.256ZM270.923 118.448C271.819 118.448 272.859 118.448 273.931 118.416V115.36H275.115V118.384C276.667 118.32 278.267 118.208 279.707 118L279.787 118.88C276.891 119.376 273.531 119.44 271.067 119.44L270.923 118.448ZM273.083 124.848V120.752H274.267V123.856H282.315V124.848H273.083ZM280.667 121.712V111.168H281.867V115.76H283.915V116.752H281.867V121.712H280.667ZM289.365 112.192C291.541 112.192 293.093 113.536 293.093 115.472C293.093 117.424 291.541 118.752 289.365 118.752C287.173 118.752 285.621 117.424 285.621 115.472C285.621 113.536 287.173 112.192 289.365 112.192ZM284.901 121.072C287.461 121.072 291.013 121.072 294.069 120.592L294.165 121.472C291.013 122.08 287.573 122.096 285.061 122.096L284.901 121.072ZM286.789 115.472C286.789 116.784 287.877 117.712 289.365 117.712C290.837 117.712 291.925 116.784 291.925 115.472C291.925 114.144 290.837 113.232 289.365 113.232C287.877 113.232 286.789 114.144 286.789 115.472ZM294.997 125.184V111.152H296.197V125.184H294.997ZM302.209 119.184H314.865V120.176H309.105V125.168H307.921V120.176H302.209V119.184ZM302.977 116.992C305.361 116.64 307.873 115.04 307.873 113.152V113.04H303.409V112.064H313.633V113.04H309.201V113.152C309.201 115.04 311.713 116.64 314.097 116.992L313.633 117.968C311.505 117.6 309.377 116.416 308.545 114.72C307.697 116.416 305.569 117.6 303.441 117.968L302.977 116.992ZM316.027 118.368H328.715V119.344H323.067V122.224H321.851V119.344H316.027V118.368ZM317.659 124.864V120.848H318.859V123.872H327.307V124.864H317.659ZM317.675 116.72V111.84H327.067V116.72H317.675ZM318.843 115.744H325.883V112.8H318.843V115.744ZM69.792 136.08C69.792 139.584 67.296 142.096 63.28 143.248L62.784 142.304C66.128 141.36 68.256 139.488 68.496 137.056H63.504V136.08H69.792ZM65.12 148.96V143.76H74.128V148.96H65.12ZM66.288 147.984H72.944V144.736H66.288V147.984ZM69.808 139.808V138.8H72.928V135.168H74.128V143.168H72.928V139.808H69.808ZM78.1224 136.32H87.5624V137.296H79.3384V139.328H87.2584V140.288H79.3384V142.464H87.7064V143.44H83.4024V146.4H89.1624V147.392H76.4744V146.4H82.2024V143.44H78.1224V136.32ZM94.4862 136.704H101.526V137.424C101.526 138.544 101.526 140.384 101.126 143.008L99.9422 142.912C100.326 140.544 100.358 138.816 100.358 137.696H94.4862V136.704ZM93.7022 145.072C94.6142 145.072 95.6382 145.056 96.7102 145.04V140.72H97.8942V145.008C99.4462 144.944 101.03 144.848 102.47 144.672L102.534 145.552C99.6222 146.016 96.3422 146.08 93.8622 146.08L93.7022 145.072ZM103.35 149.168V135.168H104.534V141.056H106.822V142.064H104.534V149.168H103.35ZM115.121 138.832H117.969V135.168H119.169V143.504H117.969V139.824H115.121V138.832ZM107.745 142.416C109.793 141.664 111.281 139.776 111.281 137.744V137.2H108.113V136.208H115.585V137.2H112.481V137.744C112.481 139.568 113.889 141.312 115.905 142.016L115.281 142.976C113.713 142.4 112.497 141.216 111.905 139.76C111.313 141.424 110.001 142.736 108.353 143.376L107.745 142.416ZM109.921 146.56C109.921 144.928 111.681 143.952 114.577 143.952C117.457 143.952 119.217 144.928 119.217 146.56C119.217 148.208 117.457 149.152 114.577 149.152C111.681 149.152 109.921 148.208 109.921 146.56ZM111.121 146.56C111.121 147.584 112.433 148.208 114.577 148.208C116.705 148.208 118.033 147.584 118.033 146.56C118.033 145.52 116.705 144.896 114.577 144.896C112.433 144.896 111.121 145.52 111.121 146.56ZM132.235 135.168H133.387V149.168H132.235V135.168ZM121.691 141.2C121.691 138.224 122.859 136.352 124.651 136.352C126.363 136.352 127.483 137.984 127.627 140.64H129.467V135.488H130.603V148.448H129.467V141.632H127.627C127.531 144.368 126.379 146.064 124.651 146.064C122.859 146.064 121.691 144.192 121.691 141.2ZM122.795 141.2C122.795 143.488 123.515 144.944 124.651 144.944C125.819 144.944 126.539 143.488 126.539 141.2C126.539 138.912 125.819 137.472 124.651 137.472C123.515 137.472 122.795 138.912 122.795 141.2ZM142.325 139.968H145.637V135.152H146.821V149.184H145.637V140.944H142.325V139.968ZM135.349 145.232C137.349 144.224 138.997 141.536 138.997 138.944V136.384H140.197V138.944C140.197 141.472 141.829 144.032 143.829 144.976L143.125 145.952C141.541 145.136 140.229 143.44 139.605 141.44C138.997 143.552 137.669 145.344 136.101 146.192L135.349 145.232ZM150.976 146.784L150.096 149.744H149.248L149.728 146.784H150.976ZM158.642 135.728H159.826V137.52H166.738V135.728H167.938V141.312H163.858V142.848H169.586V143.824H156.946V142.848H162.674V141.312H158.642V135.728ZM158.594 148.864V144.992H159.794V147.872H168.194V148.864H158.594ZM159.826 140.352H166.738V138.48H159.826V140.352ZM181.021 135.184H182.237V145.408H181.021V135.184ZM171.101 139.6C171.101 137.568 172.669 136.16 174.733 136.16C176.813 136.16 178.365 137.568 178.365 139.6C178.365 141.6 176.813 143.024 174.733 143.024C172.669 143.024 171.101 141.6 171.101 139.6ZM172.269 139.6C172.269 140.976 173.341 141.968 174.733 141.968C176.141 141.968 177.213 140.976 177.213 139.6C177.213 138.192 176.141 137.2 174.733 137.2C173.341 137.2 172.269 138.192 172.269 139.6ZM173.293 148.848V144.368H174.477V147.856H182.669V148.848H173.293ZM184.615 143.504H197.303V144.48H191.511V149.168H190.327V144.48H184.615V143.504ZM186.231 141.792V135.76H187.415V137.696H194.471V135.76H195.655V141.792H186.231ZM187.415 140.8H194.471V138.672H187.415V140.8ZM208.113 135.168H209.313V138.624H211.393V139.6H209.313V143.104H208.113V135.168ZM199.137 142.272V136.112H205.281V137.088H200.321V141.28C203.121 141.28 204.721 141.2 206.577 140.816L206.721 141.792C204.769 142.192 203.121 142.272 200.209 142.272H199.137ZM200.561 148.96V143.856H209.313V148.96H200.561ZM201.729 147.984H208.129V144.816H201.729V147.984ZM212.284 141.584H224.972V142.496H221.516V143.808H223.372V146.768H215.02V148.128H223.82V149.008H213.836V145.92H222.204V144.688H213.804V143.808H215.74V142.496H212.284V141.584ZM213.9 136.464V135.584H223.324V138.448H215.1V139.696H223.58V140.576H213.932V137.632H222.14V136.464H213.9ZM216.908 143.808H220.332V142.496H216.908V143.808ZM229.672 141.872H242.312V142.864H229.672V141.872ZM231.192 146.624C231.192 145.024 232.984 144.112 235.976 144.112C238.952 144.112 240.76 145.024 240.76 146.624C240.76 148.24 238.952 149.152 235.976 149.152C232.984 149.152 231.192 148.24 231.192 146.624ZM231.272 140.496V135.744H240.728V136.752H232.456V139.52H240.824V140.496H231.272ZM232.392 146.624C232.392 147.632 233.752 148.192 235.976 148.192C238.2 148.192 239.544 147.632 239.544 146.624C239.544 145.648 238.2 145.056 235.976 145.056C233.752 145.056 232.392 145.648 232.392 146.624ZM247.027 142.432H252.755V140.672H253.955V142.432H259.667V143.424H247.027V142.432ZM247.779 140.416C250.355 140.176 252.611 139.104 252.707 137.504H248.339V136.544H252.755V135.12H253.955V136.544H258.387V137.504H254.003C254.099 139.104 256.339 140.176 258.915 140.416L258.547 141.36C256.275 141.104 254.195 140.288 253.347 138.88C252.499 140.288 250.419 141.104 248.163 141.36L247.779 140.416ZM248.563 146.832C248.563 145.328 250.323 144.512 253.347 144.512C256.355 144.512 258.131 145.328 258.131 146.832C258.131 148.32 256.355 149.136 253.347 149.136C250.323 149.136 248.563 148.32 248.563 146.832ZM249.763 146.832C249.763 147.712 251.091 148.224 253.347 148.224C255.587 148.224 256.915 147.712 256.915 146.832C256.915 145.92 255.587 145.424 253.347 145.424C251.091 145.424 249.763 145.92 249.763 146.832ZM275.119 135.168H276.271V149.168H275.119V135.168ZM264.575 141.2C264.575 138.224 265.743 136.352 267.535 136.352C268.735 136.352 269.663 137.168 270.143 138.576H272.383V135.488H273.519V148.448H272.383V143.824H270.143C269.663 145.248 268.735 146.064 267.535 146.064C265.743 146.064 264.575 144.192 264.575 141.2ZM265.679 141.2C265.679 143.488 266.399 144.944 267.535 144.944C268.703 144.944 269.439 143.488 269.439 141.2C269.439 138.912 268.703 137.472 267.535 137.472C266.399 137.472 265.679 138.912 265.679 141.2ZM270.399 142.832H272.383V139.568H270.399C270.479 140.064 270.527 140.608 270.527 141.2C270.527 141.792 270.479 142.336 270.399 142.832ZM281.69 135.888H282.858V137.424C282.858 139.344 284.314 141.104 286.298 141.808L285.674 142.736C284.138 142.176 282.906 140.992 282.314 139.504C281.722 141.184 280.474 142.48 278.842 143.136L278.186 142.176C280.282 141.408 281.69 139.504 281.69 137.344V135.888ZM280.058 146.608C280.058 145.008 281.786 144.08 284.634 144.08C287.498 144.08 289.226 145.008 289.226 146.608C289.226 148.208 287.498 149.136 284.634 149.136C281.786 149.136 280.058 148.208 280.058 146.608ZM281.226 146.608C281.226 147.6 282.538 148.192 284.634 148.192C286.746 148.192 288.042 147.6 288.042 146.608C288.042 145.616 286.746 145.024 284.634 145.024C282.538 145.024 281.226 145.616 281.226 146.608ZM287.882 143.696V135.168H289.082V138.832H291.178V139.84H289.082V143.696H287.882ZM297.238 135.92H306.63V136.944C306.63 138.048 306.63 139.328 306.246 141.088H308.294V142.08H295.606V141.088H305.062C305.462 139.328 305.462 138.048 305.462 136.944V136.912H297.238V135.92ZM297.174 148.992V144.032H306.694V148.992H297.174ZM298.342 148.016H305.526V144.992H298.342V148.016ZM312.752 136.064C314.592 136.064 315.936 137.408 315.936 139.344C315.936 141.28 314.592 142.624 312.752 142.624C310.912 142.624 309.584 141.28 309.584 139.344C309.584 137.408 310.912 136.064 312.752 136.064ZM310.672 139.344C310.672 140.656 311.552 141.616 312.752 141.616C313.952 141.616 314.848 140.656 314.848 139.344C314.848 138.016 313.952 137.072 312.752 137.072C311.552 137.072 310.672 138.016 310.672 139.344ZM311.856 145.28V144.304H321.216V149.168H320.016V145.28H311.856ZM317.072 143.408V135.44H318.208V138.784H320.064V135.184H321.216V143.504H320.064V139.792H318.208V143.408H317.072ZM72.864 159.152H74.064V173.184H72.864V159.152ZM63.152 165.12C63.152 162.144 64.624 160.256 66.704 160.256C68.768 160.256 70.24 162.144 70.24 165.12C70.24 168.096 68.768 170 66.704 170C64.624 170 63.152 168.096 63.152 165.12ZM64.32 165.12C64.32 167.408 65.296 168.928 66.704 168.928C68.096 168.928 69.088 167.408 69.088 165.12C69.088 162.832 68.096 161.328 66.704 161.328C65.296 161.328 64.32 162.832 64.32 165.12ZM90.2999 159.184H91.4999V169.536H90.2999V165.76H87.0039V167.136H80.7159V160.096H81.8999V162.608H85.8199V160.096H87.0039V161.76H90.2999V159.184ZM81.8999 166.144H85.8199V163.552H81.8999V166.144ZM82.5399 172.848V168.528H83.7399V171.856H91.8359V172.848H82.5399ZM87.0039 164.768H90.2999V162.752H87.0039V164.768ZM93.8622 166.112H99.5742V164.464H95.4622V159.824H104.918V160.8H96.6462V163.472H105.014V164.464H100.758V166.112H106.502V167.088H93.8622V166.112ZM95.3822 170.64C95.3822 169.04 97.1742 168.128 100.166 168.128C103.142 168.128 104.95 169.04 104.95 170.64C104.95 172.256 103.142 173.152 100.166 173.152C97.1742 173.152 95.3822 172.256 95.3822 170.64ZM96.5822 170.64C96.5822 171.648 97.9422 172.208 100.166 172.208C102.39 172.208 103.734 171.648 103.734 170.64C103.734 169.648 102.39 169.072 100.166 169.072C97.9422 169.072 96.5822 169.648 96.5822 170.64ZM112.562 159.76H119.106V160.704H113.794V162.88H119.266V163.808H116.466V165.28C117.778 165.216 119.106 165.12 120.338 164.976L120.418 165.824C117.442 166.272 114.098 166.368 111.458 166.368L111.298 165.392C112.514 165.392 113.874 165.376 115.266 165.328V163.808H112.562V159.76ZM113.474 168.32V167.376H122.658V170.592H114.674V172.032H123.154V173.008H113.49V169.664H121.49V168.32H113.474ZM121.474 166.704V159.168H122.658V166.704H121.474ZM134.302 159.68H135.55V160.48C135.55 162.464 138.142 164.176 140.606 164.544L140.11 165.504C137.982 165.136 135.838 163.92 134.942 162.208C134.062 163.952 131.902 165.136 129.742 165.504L129.246 164.544C131.742 164.176 134.302 162.512 134.302 160.48V159.68ZM128.59 168.08V167.088H141.246V168.08H135.486V173.168H134.302V168.08H128.59ZM149.498 167.808H150.65V168.576C150.65 169.84 151.322 171.168 152.634 171.936C153.994 171.088 154.682 169.664 154.682 168.576V167.808H155.85V168.576C155.85 170.032 156.922 171.472 158.682 172.08L158.09 172.976C156.714 172.48 155.738 171.488 155.242 170.32C154.826 171.456 153.978 172.544 152.682 173.104C151.338 172.576 150.474 171.552 150.058 170.368C149.562 171.488 148.602 172.464 147.274 172.976L146.666 172.08C148.426 171.44 149.498 169.92 149.498 168.576V167.808ZM146.298 163.264C146.298 161.328 147.818 160 149.93 160C152.042 160 153.562 161.328 153.562 163.264C153.562 165.184 152.042 166.496 149.93 166.496C147.818 166.496 146.298 165.184 146.298 163.264ZM147.466 163.264C147.466 164.592 148.506 165.504 149.93 165.504C151.37 165.504 152.394 164.592 152.394 163.264C152.394 161.936 151.37 161.008 149.93 161.008C148.506 161.008 147.466 161.936 147.466 163.264ZM156.218 167.184V159.184H157.434V167.184H156.218ZM163.508 160.256C165.412 160.256 166.788 161.904 166.964 164.544H170.1V159.152H171.284V173.184H170.1V165.504H166.964C166.852 168.256 165.444 170 163.508 170C161.476 170 160.036 168.096 160.036 165.12C160.036 162.144 161.476 160.256 163.508 160.256ZM161.172 165.12C161.172 167.408 162.132 168.928 163.508 168.928C164.9 168.928 165.844 167.408 165.844 165.12C165.844 162.832 164.9 161.328 163.508 161.328C162.132 161.328 161.172 162.832 161.172 165.12ZM173.631 170.352H176.783V166.528C175.599 165.92 174.879 164.912 174.879 163.648C174.879 161.472 177.007 160.064 179.951 160.064C182.927 160.064 185.023 161.472 185.023 163.648C185.023 164.896 184.319 165.888 183.167 166.512V170.352H186.319V171.344H173.631V170.352ZM176.047 163.648C176.047 165.232 177.679 166.272 179.951 166.272C182.223 166.272 183.871 165.232 183.871 163.648C183.871 162.064 182.223 161.024 179.951 161.024C177.679 161.024 176.047 162.064 176.047 163.648ZM177.967 170.352H181.967V166.976C181.359 167.136 180.687 167.216 179.951 167.216C179.231 167.216 178.575 167.136 177.967 166.976V170.352ZM188.633 170.608C189.145 170.608 189.417 170.96 189.417 171.392C189.417 171.856 189.145 172.208 188.633 172.208C188.105 172.208 187.817 171.856 187.817 171.392C187.817 170.96 188.105 170.608 188.633 170.608Z" fill="#616161"/>
<path d="M46.0003 210.334C50.6027 210.334 54.3337 206.603 54.3337 202C54.3337 197.398 50.6027 193.667 46.0003 193.667C41.398 193.667 37.667 197.398 37.667 202C37.667 206.603 41.398 210.334 46.0003 210.334Z" fill="#999999"/>
<path d="M46 201.453C46.3452 201.453 46.625 201.733 46.625 202.078V205.585C46.6248 205.93 46.345 206.21 46 206.21C45.6551 206.21 45.3752 205.93 45.375 205.585V202.078C45.375 201.733 45.655 201.453 46 201.453ZM46.0049 197.833C46.4625 197.833 46.8338 198.206 46.834 198.666C46.834 199.126 46.4626 199.5 46.0049 199.5H45.9961C45.5384 199.5 45.167 199.126 45.167 198.666C45.1672 198.206 45.5385 197.833 45.9961 197.833H46.0049Z" fill="white"/>
<path d="M63.168 196.512H64.304V199.952H67.36V196.512H68.48V205.648H63.168V196.512ZM64.304 204.656H67.36V200.928H64.304V204.656ZM70.256 208.448V195.488H71.392V200.736H73.36V195.168H74.512V209.168H73.36V201.728H71.392V208.448H70.256ZM82.1864 200.064H83.3864V202.144H89.1144V203.12H76.4744V202.144H82.1864V200.064ZM77.2424 199.824C79.6744 199.472 82.1864 197.936 82.1864 196.032V195.392H83.4024V196.032C83.4024 197.92 85.9304 199.472 88.3464 199.824L87.8824 200.784C85.7864 200.416 83.6744 199.312 82.8104 197.68C81.9304 199.312 79.8184 200.416 77.7064 200.784L77.2424 199.824ZM78.0104 206.72C78.0104 205.184 79.7864 204.32 82.7944 204.32C85.7864 204.32 87.5784 205.184 87.5784 206.72C87.5784 208.288 85.7864 209.136 82.7944 209.136C79.7864 209.136 78.0104 208.288 78.0104 206.72ZM79.2104 206.72C79.2104 207.664 80.5544 208.208 82.7944 208.208C85.0344 208.208 86.3624 207.664 86.3624 206.72C86.3624 205.792 85.0344 205.248 82.7944 205.248C80.5544 205.248 79.2104 205.792 79.2104 206.72ZM94.2782 196.608H102.102V197.616H98.7742V199.504C98.7742 201.888 100.534 204.288 102.55 205.168L101.862 206.128C100.262 205.376 98.8382 203.744 98.1822 201.808C97.5422 203.872 96.1342 205.664 94.5342 206.464L93.8462 205.52C95.8142 204.56 97.5742 201.92 97.5742 199.504V197.616H94.2782V196.608ZM104.054 209.168V195.168H105.254V209.168H104.054ZM117.969 195.184H119.169V205.52H117.969V201.712H114.385C113.745 202.544 112.705 203.04 111.489 203.04C109.425 203.04 107.905 201.616 107.905 199.568C107.905 197.504 109.425 196.064 111.489 196.064C112.689 196.064 113.713 196.56 114.353 197.376H117.969V195.184ZM109.041 199.568C109.041 200.992 110.081 202 111.489 202C112.881 202 113.937 200.992 113.937 199.568C113.937 198.144 112.881 197.136 111.489 197.136C110.081 197.136 109.041 198.144 109.041 199.568ZM110.257 208.848V204.448H111.457V207.856H119.569V208.848H110.257ZM114.897 198.368C115.025 198.736 115.089 199.136 115.089 199.568C115.089 199.984 115.025 200.368 114.913 200.72H117.969V198.368H114.897ZM128.508 195.888H129.676V197.424C129.676 199.344 131.132 201.104 133.116 201.808L132.492 202.736C130.956 202.176 129.724 200.992 129.132 199.504C128.54 201.184 127.292 202.48 125.66 203.136L125.004 202.176C127.1 201.408 128.508 199.504 128.508 197.344V195.888ZM126.876 206.608C126.876 205.008 128.604 204.08 131.452 204.08C134.316 204.08 136.044 205.008 136.044 206.608C136.044 208.208 134.316 209.136 131.452 209.136C128.604 209.136 126.876 208.208 126.876 206.608ZM128.044 206.608C128.044 207.6 129.356 208.192 131.452 208.192C133.564 208.192 134.86 207.6 134.86 206.608C134.86 205.616 133.564 205.024 131.452 205.024C129.356 205.024 128.044 205.616 128.044 206.608ZM134.7 203.696V195.168H135.9V198.832H137.996V199.84H135.9V203.696H134.7ZM138.887 201.952H151.527V202.928H145.799V204.624H149.975V208.976H140.455V204.624H144.615V202.928H138.887V201.952ZM140.071 196.608V195.632H150.311V196.608H148.167V199.632H150.263V200.608H140.119V199.632H142.215V196.608H140.071ZM141.623 208H148.807V205.584H141.623V208ZM143.431 199.632H146.983V196.608H143.431V199.632ZM159.041 196.064C161.953 196.064 164.113 197.6 164.113 199.904C164.113 202.224 161.953 203.744 159.041 203.744C156.145 203.744 153.969 202.224 153.969 199.904C153.969 197.6 156.145 196.064 159.041 196.064ZM152.721 207.28V206.272H165.409V207.28H152.721ZM155.121 199.904C155.121 201.616 156.801 202.768 159.041 202.768C161.297 202.768 162.961 201.616 162.961 199.904C162.961 198.208 161.297 197.04 159.041 197.04C156.801 197.04 155.121 198.208 155.121 199.904ZM166.556 206.416H172.284V203.728H168.156V199.44H176.476V197.184H168.124V196.208H177.66V200.4H169.34V202.752H177.98V203.728H173.468V206.416H179.244V207.408H166.556V206.416ZM184.455 196.512H185.591V199.952H188.647V196.512H189.767V205.648H184.455V196.512ZM185.591 204.656H188.647V200.928H185.591V204.656ZM191.543 208.448V195.488H192.679V200.736H194.647V195.168H195.799V209.168H194.647V201.728H192.679V208.448H191.543ZM203.474 200.064H204.674V202.144H210.402V203.12H197.762V202.144H203.474V200.064ZM198.53 199.824C200.962 199.472 203.474 197.936 203.474 196.032V195.392H204.69V196.032C204.69 197.92 207.218 199.472 209.634 199.824L209.17 200.784C207.074 200.416 204.962 199.312 204.098 197.68C203.218 199.312 201.106 200.416 198.994 200.784L198.53 199.824ZM199.298 206.72C199.298 205.184 201.074 204.32 204.082 204.32C207.074 204.32 208.866 205.184 208.866 206.72C208.866 208.288 207.074 209.136 204.082 209.136C201.074 209.136 199.298 208.288 199.298 206.72ZM200.498 206.72C200.498 207.664 201.842 208.208 204.082 208.208C206.322 208.208 207.65 207.664 207.65 206.72C207.65 205.792 206.322 205.248 204.082 205.248C201.842 205.248 200.498 205.792 200.498 206.72ZM221.82 195.152H223.02V209.184H221.82V195.152ZM212.108 201.12C212.108 198.144 213.58 196.256 215.66 196.256C217.724 196.256 219.196 198.144 219.196 201.12C219.196 204.096 217.724 206 215.66 206C213.58 206 212.108 204.096 212.108 201.12ZM213.276 201.12C213.276 203.408 214.252 204.928 215.66 204.928C217.052 204.928 218.044 203.408 218.044 201.12C218.044 198.832 217.052 197.328 215.66 197.328C214.252 197.328 213.276 198.832 213.276 201.12ZM228.968 206.336H234.712V202.928H235.912V206.336H241.656V207.344H228.968V206.336ZM229.608 202.448C231.928 202.048 234.68 200.08 234.68 197.824V197.456H230.024V196.464H240.584V197.456H235.928V197.824C235.928 200.08 238.712 202.016 241.064 202.4L240.568 203.344C238.472 202.928 236.216 201.552 235.32 199.632C234.408 201.568 232.168 202.96 230.104 203.392L229.608 202.448ZM244.435 195.92H253.827V196.944C253.827 198.048 253.827 199.328 253.443 201.088H255.491V202.08H242.803V201.088H252.259C252.659 199.328 252.659 198.048 252.659 196.944V196.912H244.435V195.92ZM244.371 208.992V204.032H253.891V208.992H244.371ZM245.539 208.016H252.723V204.992H245.539V208.016ZM261.934 195.52H263.134V199.056H271.39V200.032H261.934V195.52ZM260.19 202.512V201.52H272.83V202.512H260.19ZM261.134 208.176C263.47 207.856 265.646 206.672 265.886 204.992H261.678V204.016H271.342V204.992H267.15C267.39 206.672 269.566 207.856 271.902 208.176L271.454 209.104C269.326 208.768 267.342 207.808 266.51 206.288C265.678 207.808 263.694 208.768 261.582 209.104L261.134 208.176ZM277.721 196.256C279.625 196.256 281.001 197.904 281.177 200.544H284.313V195.152H285.497V209.184H284.313V201.504H281.177C281.065 204.256 279.657 206 277.721 206C275.689 206 274.249 204.096 274.249 201.12C274.249 198.144 275.689 196.256 277.721 196.256ZM275.385 201.12C275.385 203.408 276.345 204.928 277.721 204.928C279.113 204.928 280.057 203.408 280.057 201.12C280.057 198.832 279.113 197.328 277.721 197.328C276.345 197.328 275.385 198.832 275.385 201.12ZM298.083 195.168H299.283V202.432H298.083V195.168ZM288.035 201.488C290.115 200.816 291.603 199.072 291.603 197.152V196.96H288.371V195.968H296.035V196.96H292.819V197.152C292.819 198.96 294.339 200.592 296.387 201.216L295.811 202.144C294.179 201.616 292.867 200.512 292.243 199.056C291.651 200.64 290.307 201.856 288.611 202.432L288.035 201.488ZM290.275 204.08V203.136H299.283V206.432H291.475V208.048H299.779V209.008H290.323V205.552H298.099V204.08H290.275ZM310.927 195.68H312.175V196.48C312.175 198.464 314.767 200.176 317.231 200.544L316.735 201.504C314.607 201.136 312.463 199.92 311.567 198.208C310.687 199.952 308.527 201.136 306.367 201.504L305.871 200.544C308.367 200.176 310.927 198.512 310.927 196.48V195.68ZM305.215 204.08V203.088H317.871V204.08H312.111V209.168H310.927V204.08H305.215ZM326.123 203.808H327.275V204.576C327.275 205.84 327.947 207.168 329.259 207.936C330.619 207.088 331.307 205.664 331.307 204.576V203.808H332.475V204.576C332.475 206.032 333.547 207.472 335.307 208.08L334.715 208.976C333.339 208.48 332.363 207.488 331.867 206.32C331.451 207.456 330.603 208.544 329.307 209.104C327.963 208.576 327.099 207.552 326.683 206.368C326.187 207.488 325.227 208.464 323.899 208.976L323.291 208.08C325.051 207.44 326.123 205.92 326.123 204.576V203.808ZM322.923 199.264C322.923 197.328 324.443 196 326.555 196C328.667 196 330.187 197.328 330.187 199.264C330.187 201.184 328.667 202.496 326.555 202.496C324.443 202.496 322.923 201.184 322.923 199.264ZM324.091 199.264C324.091 200.592 325.131 201.504 326.555 201.504C327.995 201.504 329.019 200.592 329.019 199.264C329.019 197.936 327.995 197.008 326.555 197.008C325.131 197.008 324.091 197.936 324.091 199.264ZM332.843 203.184V195.184H334.059V203.184H332.843ZM66.352 220.256C68.256 220.256 69.632 221.904 69.808 224.544H72.944V219.152H74.128V233.184H72.944V225.504H69.808C69.696 228.256 68.288 230 66.352 230C64.32 230 62.88 228.096 62.88 225.12C62.88 222.144 64.32 220.256 66.352 220.256ZM64.016 225.12C64.016 227.408 64.976 228.928 66.352 228.928C67.744 228.928 68.688 227.408 68.688 225.12C68.688 222.832 67.744 221.328 66.352 221.328C64.976 221.328 64.016 222.832 64.016 225.12ZM76.4744 230.352H79.6264V226.528C78.4424 225.92 77.7224 224.912 77.7224 223.648C77.7224 221.472 79.8504 220.064 82.7944 220.064C85.7704 220.064 87.8664 221.472 87.8664 223.648C87.8664 224.896 87.1624 225.888 86.0104 226.512V230.352H89.1624V231.344H76.4744V230.352ZM78.8904 223.648C78.8904 225.232 80.5224 226.272 82.7944 226.272C85.0664 226.272 86.7144 225.232 86.7144 223.648C86.7144 222.064 85.0664 221.024 82.7944 221.024C80.5224 221.024 78.8904 222.064 78.8904 223.648ZM80.8104 230.352H84.8104V226.976C84.2024 227.136 83.5304 227.216 82.7944 227.216C82.0744 227.216 81.4184 227.136 80.8104 226.976V230.352ZM91.4768 230.608C91.9888 230.608 92.2608 230.96 92.2608 231.392C92.2608 231.856 91.9888 232.208 91.4768 232.208C90.9488 232.208 90.6608 231.856 90.6608 231.392C90.6608 230.96 90.9488 230.608 91.4768 230.608Z" fill="#616161"/>
</g>
<defs>
<filter id="filter0_dd_1303_48672" x="391" y="0" width="372" height="282" filterUnits="userSpaceOnUse" color-interpolation-filters="sRGB">
<feFlood flood-opacity="0" result="BackgroundImageFix"/>
<feColorMatrix in="SourceAlpha" type="matrix" values="0 0 0 0 0 0 0 0 0 0 0 0 0 0 0 0 0 0 127 0" result="hardAlpha"/>
<feOffset/>
<feGaussianBlur stdDeviation="4"/>
<feComposite in2="hardAlpha" operator="out"/>
<feColorMatrix type="matrix" values="0 0 0 0 0 0 0 0 0 0 0 0 0 0 0 0 0 0 0.12 0"/>
<feBlend mode="normal" in2="BackgroundImageFix" result="effect1_dropShadow_1303_48672"/>
<feColorMatrix in="SourceAlpha" type="matrix" values="0 0 0 0 0 0 0 0 0 0 0 0 0 0 0 0 0 0 127 0" result="hardAlpha"/>
<feOffset dy="8"/>
<feGaussianBlur stdDeviation="8"/>
<feComposite in2="hardAlpha" operator="out"/>
<feColorMatrix type="matrix" values="0 0 0 0 0 0 0 0 0 0 0 0 0 0 0 0 0 0 0.12 0"/>
<feBlend mode="normal" in2="effect1_dropShadow_1303_48672" result="effect2_dropShadow_1303_48672"/>
<feBlend mode="normal" in="SourceGraphic" in2="effect2_dropShadow_1303_48672" result="shape"/>
</filter>
<filter id="filter1_dd_1303_48672" x="0" y="0" width="372" height="282" filterUnits="userSpaceOnUse" color-interpolation-filters="sRGB">
<feFlood flood-opacity="0" result="BackgroundImageFix"/>
<feColorMatrix in="SourceAlpha" type="matrix" values="0 0 0 0 0 0 0 0 0 0 0 0 0 0 0 0 0 0 127 0" result="hardAlpha"/>
<feOffset/>
<feGaussianBlur stdDeviation="4"/>
<feComposite in2="hardAlpha" operator="out"/>
<feColorMatrix type="matrix" values="0 0 0 0 0 0 0 0 0 0 0 0 0 0 0 0 0 0 0.12 0"/>
<feBlend mode="normal" in2="BackgroundImageFix" result="effect1_dropShadow_1303_48672"/>
<feColorMatrix in="SourceAlpha" type="matrix" values="0 0 0 0 0 0 0 0 0 0 0 0 0 0 0 0 0 0 127 0" result="hardAlpha"/>
<feOffset dy="8"/>
<feGaussianBlur stdDeviation="8"/>
<feComposite in2="hardAlpha" operator="out"/>
<feColorMatrix type="matrix" values="0 0 0 0 0 0 0 0 0 0 0 0 0 0 0 0 0 0 0.12 0"/>
<feBlend mode="normal" in2="effect1_dropShadow_1303_48672" result="effect2_dropShadow_1303_48672"/>
<feBlend mode="normal" in="SourceGraphic" in2="effect2_dropShadow_1303_48672" result="shape"/>
</filter>
</defs>
</svg>
