<svg width="429" height="112" viewBox="0 0 429 112" fill="none" xmlns="http://www.w3.org/2000/svg">
<g clip-path="url(#clip0_1101_59955)">
<rect width="360" height="112" fill="white"/>
<rect width="360" height="64" transform="translate(0 48)" fill="white"/>
<mask id="path-1-inside-1_1101_59955" fill="white">
<path d="M20 80C20 68.9543 28.9543 60 40 60H60C71.0457 60 80 68.9543 80 80C80 91.0457 71.0457 100 60 100H40C28.9543 100 20 91.0457 20 80Z"/>
</mask>
<path d="M20 80C20 68.9543 28.9543 60 40 60H60C71.0457 60 80 68.9543 80 80C80 91.0457 71.0457 100 60 100H40C28.9543 100 20 91.0457 20 80Z" fill="#FF8120"/>
<path d="M40 60V61H60V60V59H40V60ZM60 100V99H40V100V101H60V100ZM40 100V99C29.5066 99 21 90.4934 21 80H20H19C19 91.598 28.402 101 40 101V100ZM80 80H79C79 90.4934 70.4934 99 60 99V100V101C71.598 101 81 91.598 81 80H80ZM60 60V61C70.4934 61 79 69.5066 79 80H80H81C81 68.402 71.598 59 60 59V60ZM40 60V59C28.402 59 19 68.402 19 80H20H21C21 69.5066 29.5066 61 40 61V60Z" fill="#EE6002" mask="url(#path-1-inside-1_1101_59955)"/>
<path d="M44.128 76.832H46.624V73.072H48.352V83.44H46.624V78.24H44.128V76.832ZM36.512 80.416C38.752 79.648 39.968 77.792 39.968 75.888V75.472H37.008V74.096H44.624V75.472H41.712V75.888C41.712 77.616 42.864 79.392 45.024 80.128L44.176 81.488C42.608 80.928 41.488 79.856 40.864 78.496C40.256 80 39.056 81.216 37.376 81.792L36.512 80.416ZM39.088 87.008V82.56H40.816V85.616H48.72V87.008H39.088ZM56.1544 78.544H58.0264V73.328H59.6264V86.592H58.0264V79.936H56.1544V78.544ZM50.1704 83.2C52.1544 82.048 53.0344 79.648 53.0344 77.408V76.944H50.6344V75.552H53.0344V73.536H54.6824V75.552H57.0344V76.944H54.6824V77.408C54.6824 79.6 55.5784 81.84 57.5464 82.896L56.6024 84.176C55.2904 83.472 54.3944 82.224 53.8664 80.72C53.3704 82.336 52.4744 83.728 51.1464 84.512L50.1704 83.2ZM60.8744 87.28V73.056H62.5224V87.28H60.8744Z" fill="white"/>
<mask id="path-4-inside-2_1101_59955" fill="white">
<path d="M88 80C88 68.9543 96.9543 60 108 60H156C167.046 60 176 68.9543 176 80C176 91.0457 167.046 100 156 100H108C96.9543 100 88 91.0457 88 80Z"/>
</mask>
<path d="M88 80C88 68.9543 96.9543 60 108 60H156C167.046 60 176 68.9543 176 80C176 91.0457 167.046 100 156 100H108C96.9543 100 88 91.0457 88 80Z" fill="white"/>
<path d="M108 60V61H156V60V59H108V60ZM156 100V99H108V100V101H156V100ZM108 100V99C97.5066 99 89 90.4934 89 80H88H87C87 91.598 96.402 101 108 101V100ZM176 80H175C175 90.4934 166.493 99 156 99V100V101C167.598 101 177 91.598 177 80H176ZM156 60V61C166.493 61 175 69.5066 175 80H176H177C177 68.402 167.598 59 156 59V60ZM108 60V59C96.402 59 87 68.402 87 80H88H89C89 69.5066 97.5066 61 108 61V60Z" fill="#E0E0E0" mask="url(#path-4-inside-2_1101_59955)"/>
<path d="M104.64 79.808H110.368V78.608H106.288V75.648H114.496V74.464H106.256V73.584H115.68V76.464H107.456V77.728H115.936V78.608H111.568V79.808H117.328V80.704H104.64V79.808ZM106.16 82.688V81.808H115.728V84.768H107.376V86.128H116.176V87.008H106.192V83.92H114.56V82.688H106.16ZM118.922 74.72H123.914V79.536H120.106V82.704C121.722 82.704 123.258 82.64 125.098 82.304L125.194 83.296C123.21 83.648 121.626 83.696 119.866 83.696H118.954V78.576H122.762V75.728H118.922V74.72ZM124.586 79.216V78.224H126.362V73.52H127.482V86.416H126.362V79.216H124.586ZM129.178 87.168V73.168H130.33V87.168H129.178ZM142.533 73.152H143.733V87.184H142.533V73.152ZM132.821 79.12C132.821 76.144 134.293 74.256 136.373 74.256C138.437 74.256 139.909 76.144 139.909 79.12C139.909 82.096 138.437 84 136.373 84C134.293 84 132.821 82.096 132.821 79.12ZM133.989 79.12C133.989 81.408 134.965 82.928 136.373 82.928C137.765 82.928 138.757 81.408 138.757 79.12C138.757 76.832 137.765 75.328 136.373 75.328C134.965 75.328 133.989 76.832 133.989 79.12ZM156.447 73.152H157.631V87.184H156.447V79.472H153.487V78.496H156.447V73.152ZM146.783 83.808V74.464H153.247V75.456H147.967V78.384H152.623V79.36H147.967V82.8C150.559 82.8 152.207 82.736 154.127 82.368L154.255 83.36C152.239 83.712 150.543 83.808 147.839 83.808H146.783Z" fill="#1A1A1A"/>
<mask id="path-7-inside-3_1101_59955" fill="white">
<path d="M184 80C184 68.9543 192.954 60 204 60H238C249.046 60 258 68.9543 258 80C258 91.0457 249.046 100 238 100H204C192.954 100 184 91.0457 184 80Z"/>
</mask>
<path d="M184 80C184 68.9543 192.954 60 204 60H238C249.046 60 258 68.9543 258 80C258 91.0457 249.046 100 238 100H204C192.954 100 184 91.0457 184 80Z" fill="white"/>
<path d="M204 60V61H238V60V59H204V60ZM238 100V99H204V100V101H238V100ZM204 100V99C193.507 99 185 90.4934 185 80H184H183C183 91.598 192.402 101 204 101V100ZM258 80H257C257 90.4934 248.493 99 238 99V100V101C249.598 101 259 91.598 259 80H258ZM238 60V61C248.493 61 257 69.5066 257 80H258H259C259 68.402 249.598 59 238 59V60ZM204 60V59C192.402 59 183 68.402 183 80H184H185C185 69.5066 193.507 61 204 61V60Z" fill="#E0E0E0" mask="url(#path-7-inside-3_1101_59955)"/>
<path d="M210.88 73.168H212.08V80.432H210.88V73.168ZM200.752 79.328C202.816 78.592 204.32 76.72 204.32 74.64V73.584H205.52V74.64C205.52 76.624 207.04 78.384 209.088 79.072L208.496 80.016C206.864 79.44 205.568 78.24 204.944 76.704C204.336 78.352 203.024 79.648 201.344 80.288L200.752 79.328ZM203.072 82.112V81.152H212.08V84.464H204.272V86.032H212.576V87.008H203.104V83.568H210.896V82.112H203.072ZM224.778 73.152H225.962V87.184H224.778V79.376H221.434V83.632H215.034V74.272H216.234V77.936H220.25V74.272H221.434V78.4H224.778V73.152ZM216.234 82.64H220.25V78.896H216.234V82.64ZM235.509 74.624C235.509 78.656 234.117 82.368 229.125 84.848L228.469 83.92C231.077 82.624 232.645 80.992 233.493 79.104L228.725 79.568L228.533 78.496L233.877 78.128C234.117 77.328 234.261 76.496 234.309 75.616H229.237V74.624H235.509ZM237.845 87.168V73.152H239.061V78.88H241.317V79.888H239.061V87.168H237.845Z" fill="black" fill-opacity="0.8"/>
<mask id="path-10-inside-4_1101_59955" fill="white">
<path d="M266 80C266 68.9543 274.954 60 286 60H348C359.046 60 368 68.9543 368 80C368 91.0457 359.046 100 348 100H286C274.954 100 266 91.0457 266 80Z"/>
</mask>
<path d="M266 80C266 68.9543 274.954 60 286 60H348C359.046 60 368 68.9543 368 80C368 91.0457 359.046 100 348 100H286C274.954 100 266 91.0457 266 80Z" fill="white"/>
<path d="M286 60V61H348V60V59H286V60ZM348 100V99H286V100V101H348V100ZM286 100V99C275.507 99 267 90.4934 267 80H266H265C265 91.598 274.402 101 286 101V100ZM368 80H367C367 90.4934 358.493 99 348 99V100V101C359.598 101 369 91.598 369 80H368ZM348 60V61C358.493 61 367 69.5066 367 80H368H369C369 68.402 359.598 59 348 59V60ZM286 60V59C274.402 59 265 68.402 265 80H266H267C267 69.5066 275.507 61 286 61V60Z" fill="#E0E0E0" mask="url(#path-10-inside-4_1101_59955)"/>
<path d="M286.352 74.256C288.256 74.256 289.632 75.904 289.808 78.544H292.944V73.152H294.128V87.184H292.944V79.504H289.808C289.696 82.256 288.288 84 286.352 84C284.32 84 282.88 82.096 282.88 79.12C282.88 76.144 284.32 74.256 286.352 74.256ZM284.016 79.12C284.016 81.408 284.976 82.928 286.352 82.928C287.744 82.928 288.688 81.408 288.688 79.12C288.688 76.832 287.744 75.328 286.352 75.328C284.976 75.328 284.016 76.832 284.016 79.12ZM307.338 73.152H308.49V87.152H307.338V79.84H305.578V86.464H304.442V73.472H305.578V78.864H307.338V73.152ZM296.522 83.088C298.25 80.96 298.81 78.384 298.906 75.856H296.81V74.88H299.93C299.93 77.76 299.514 81.024 297.466 83.68L296.522 83.088ZM299.802 84.112C301.754 81.648 302.106 78.464 302.154 75.856H300.394V74.88H303.21C303.21 77.728 303.002 81.68 300.778 84.672L299.802 84.112ZM310.309 84.352H316.037V81.296H311.829V74.16H313.013V76.688H320.277V74.16H321.461V81.296H317.221V84.352H322.997V85.36H310.309V84.352ZM313.013 80.32H320.277V77.68H313.013V80.32ZM334.767 73.168H335.919V82.032H334.767V78H332.895V81.52H331.759V73.456H332.895V77.008H334.767V73.168ZM324.047 75.84V74.864H327.055V73.28H328.223V74.864H331.183V75.84H324.047ZM324.671 78.96C324.671 77.52 325.871 76.576 327.631 76.576C329.391 76.576 330.607 77.52 330.607 78.96C330.607 80.432 329.391 81.36 327.631 81.36C325.871 81.36 324.671 80.432 324.671 78.96ZM325.727 78.96C325.727 79.872 326.511 80.464 327.631 80.464C328.751 80.464 329.551 79.872 329.551 78.96C329.551 78.064 328.751 77.488 327.631 77.488C326.511 77.488 325.727 78.064 325.727 78.96ZM326.687 84.72C326.687 83.168 328.415 82.288 331.327 82.288C334.255 82.288 335.999 83.168 335.999 84.72C335.999 86.256 334.255 87.136 331.327 87.136C328.415 87.136 326.687 86.256 326.687 84.72ZM327.855 84.72C327.855 85.664 329.167 86.208 331.327 86.208C333.503 86.208 334.799 85.664 334.799 84.72C334.799 83.744 333.503 83.216 331.327 83.216C329.167 83.216 327.855 83.744 327.855 84.72ZM338.234 75.616H341.418V73.408H342.602V75.616H345.754V76.576H342.602V77.712C342.602 80 344.058 82.288 346.042 83.264L345.37 84.192C343.85 83.424 342.618 81.888 342.026 80.064C341.434 82.032 340.138 83.664 338.554 84.448L337.866 83.536C339.898 82.56 341.434 80.16 341.434 77.712V76.576H338.234V75.616ZM347.514 87.168V73.168H348.714V78.96H351.05V79.968H348.714V87.168H347.514Z" fill="#1A1A1A"/>
<mask id="path-13-outside-5_1101_59955" maskUnits="userSpaceOnUse" x="0" y="0" width="360" height="49" fill="black">
<rect fill="white" width="360" height="49"/>
<path d="M0 0H360V48H0V0Z"/>
</mask>
<path d="M360 48V47H0V48V49H360V48Z" fill="#EEEEEE" mask="url(#path-13-outside-5_1101_59955)"/>
<mask id="path-15-inside-6_1101_59955" fill="white">
<path d="M0 0H124V48H0V0Z"/>
</mask>
<path d="M0 0H124V48H0V0Z" fill="white"/>
<path d="M124 48V46.5H0V48V49.5H124V48Z" fill="#111111" mask="url(#path-15-inside-6_1101_59955)"/>
<path d="M24.2619 17.76H26.2779V18.96C26.2779 20.88 27.2539 22.656 29.5099 23.376L28.4699 24.928C26.9659 24.4 25.9259 23.408 25.3179 22.144C24.6779 23.616 23.5259 24.784 21.8299 25.36L20.7899 23.76C23.2059 22.976 24.2619 21.056 24.2619 19.056V17.76ZM23.1259 28.544C23.1259 26.816 25.0139 25.776 28.0379 25.776C31.0619 25.776 32.9339 26.816 32.9339 28.544C32.9339 30.32 31.0619 31.344 28.0379 31.344C25.0139 31.344 23.1259 30.32 23.1259 28.544ZM25.1259 28.544C25.1259 29.392 26.1339 29.824 28.0379 29.824C29.9259 29.824 30.9659 29.392 30.9659 28.544C30.9659 27.728 29.9259 27.312 28.0379 27.312C26.1339 27.312 25.1259 27.728 25.1259 28.544ZM28.2139 21.264V19.648H30.8859V17.008H32.8859V25.408H30.8859V21.264H28.2139ZM44.6563 17.008H46.6563V27.328H44.6563V17.008ZM34.9603 21.552C34.9603 19.424 36.6723 17.92 38.8483 17.92C41.0403 17.92 42.7363 19.424 42.7363 21.552C42.7363 23.648 41.0403 25.184 38.8483 25.184C36.6723 25.184 34.9603 23.648 34.9603 21.552ZM36.8963 21.552C36.8963 22.72 37.7603 23.456 38.8483 23.456C39.9523 23.456 40.8003 22.72 40.8003 21.552C40.8003 20.352 39.9523 19.632 38.8483 19.632C37.7603 19.632 36.8963 20.352 36.8963 21.552ZM37.1363 31.072V26.288H39.1043V29.488H47.0083V31.072H37.1363ZM48.5866 23.824H51.5306V22.08C50.4746 21.616 49.8826 20.896 49.8826 19.968C49.8826 18.256 51.9146 17.216 55.0666 17.216C58.2346 17.216 60.2506 18.256 60.2506 19.968C60.2506 20.912 59.6426 21.632 58.5706 22.096V23.824H61.5466V25.392H48.5866V23.824ZM50.0746 28.736C50.0746 27.104 51.9466 26.16 55.0346 26.16C58.1386 26.16 60.0106 27.104 60.0106 28.736C60.0106 30.416 58.1386 31.344 55.0346 31.344C51.9466 31.344 50.0746 30.416 50.0746 28.736ZM51.9306 19.968C51.9306 20.784 53.0666 21.2 55.0666 21.2C57.0506 21.2 58.2026 20.784 58.2026 19.968C58.2026 19.152 57.0506 18.72 55.0666 18.72C53.0666 18.72 51.9306 19.152 51.9306 19.968ZM52.0746 28.736C52.0746 29.488 53.0826 29.856 55.0346 29.856C57.0026 29.856 58.0106 29.488 58.0106 28.736C58.0106 28 57.0026 27.648 55.0346 27.648C53.0826 27.648 52.0746 28 52.0746 28.736ZM53.4986 23.824H56.6026V22.592C56.1226 22.656 55.6106 22.688 55.0666 22.688C54.5066 22.688 53.9786 22.656 53.4986 22.592V23.824ZM62.437 28.032H67.909V25.36H63.813V17.904H65.781V20.144H72.021V17.904H73.989V25.36H69.893V28.032H75.413V29.648H62.437V28.032ZM65.781 23.776H72.021V21.712H65.781V23.776ZM86.5754 17.008H88.4474V26H86.5754V22.176H85.4394V25.504H83.5834V17.28H85.4394V20.576H86.5754V17.008ZM76.1754 20.032V18.496H78.7034V17.152H80.6554V18.496H83.1674V20.032H76.1754ZM76.6074 23.008C76.6074 21.536 77.9034 20.512 79.6794 20.512C81.4874 20.512 82.7834 21.536 82.7834 23.008C82.7834 24.496 81.4874 25.504 79.6794 25.504C77.9034 25.504 76.6074 24.496 76.6074 23.008ZM78.3514 23.008C78.3514 23.696 78.9114 24.096 79.6794 24.096C80.4634 24.096 81.0234 23.696 81.0234 23.008C81.0234 22.32 80.4634 21.936 79.6794 21.936C78.9114 21.936 78.3514 22.32 78.3514 23.008ZM78.6874 28.752C78.6874 27.088 80.5434 26.144 83.6154 26.144C86.6874 26.144 88.5274 27.088 88.5274 28.752C88.5274 30.4 86.6874 31.344 83.6154 31.344C80.5434 31.344 78.6874 30.4 78.6874 28.752ZM80.6714 28.752C80.6714 29.504 81.6794 29.856 83.6154 29.856C85.5514 29.856 86.5434 29.504 86.5434 28.752C86.5434 27.968 85.5514 27.632 83.6154 27.632C81.6794 27.632 80.6714 27.968 80.6714 28.752ZM100.026 16.992H102.01V31.328H100.026V16.992ZM90.1378 27.312C93.8177 25.568 95.4178 23.264 95.7218 20.064H90.8738V18.48H97.7538C97.7538 22.848 96.2338 26.432 91.1618 28.88L90.1378 27.312Z" fill="#1A1A1A"/>
<rect width="82" height="48" transform="translate(124)" fill="white"/>
<path d="M145.245 18.608H153.069V19.616H149.741V21.504C149.741 23.888 151.501 26.288 153.517 27.168L152.829 28.128C151.229 27.376 149.805 25.744 149.149 23.808C148.509 25.872 147.101 27.664 145.501 28.464L144.813 27.52C146.781 26.56 148.541 23.92 148.541 21.504V19.616H145.245V18.608ZM155.021 31.168V17.168H156.221V31.168H155.021ZM159.08 18.384H166.584V19.376H165.144V23.504C165.864 23.456 166.584 23.392 167.256 23.296L167.336 24.192C164.504 24.672 161.224 24.72 158.856 24.72L158.712 23.696C159.272 23.696 159.864 23.696 160.504 23.68V19.376H159.08V18.384ZM160.456 28.592C160.456 26.992 162.2 26.064 165.032 26.064C167.896 26.064 169.624 26.992 169.624 28.592C169.624 30.208 167.896 31.136 165.032 31.136C162.2 31.136 160.456 30.208 160.456 28.592ZM161.64 28.592C161.64 29.584 162.92 30.192 165.032 30.192C167.16 30.192 168.456 29.584 168.456 28.592C168.456 27.616 167.16 27.024 165.032 27.024C162.92 27.024 161.64 27.616 161.64 28.592ZM161.672 23.664C162.424 23.648 163.208 23.632 163.992 23.584V19.376H161.672V23.664ZM168.296 25.76V17.168H169.496V20.816H171.592V21.824H169.496V25.76H168.296ZM182.706 17.152H183.906V31.184H182.706V17.152ZM172.994 23.12C172.994 20.144 174.466 18.256 176.546 18.256C178.61 18.256 180.082 20.144 180.082 23.12C180.082 26.096 178.61 28 176.546 28C174.466 28 172.994 26.096 172.994 23.12ZM174.162 23.12C174.162 25.408 175.138 26.928 176.546 26.928C177.938 26.928 178.93 25.408 178.93 23.12C178.93 20.832 177.938 19.328 176.546 19.328C175.138 19.328 174.162 20.832 174.162 23.12Z" fill="#1A1A1A"/>
<rect width="110" height="48" transform="translate(206)" fill="white"/>
<path d="M236.627 17.152H237.827V21.44H239.923V22.432H237.827V27.488H236.627V17.152ZM227.267 21.6C227.267 19.568 228.819 18.16 230.899 18.16C232.979 18.16 234.531 19.568 234.531 21.6C234.531 23.616 232.979 25.04 230.899 25.04C228.819 25.04 227.267 23.616 227.267 21.6ZM228.435 21.6C228.435 22.992 229.491 23.984 230.899 23.984C232.307 23.984 233.379 22.992 233.379 21.6C233.379 20.208 232.307 19.2 230.899 19.2C229.491 19.2 228.435 20.208 228.435 21.6ZM229.155 30.848V26.432H230.339V29.856H238.483V30.848H229.155ZM248.221 21.056H251.101V17.184H252.301V27.424H251.101V22.048H248.221V21.056ZM240.861 24.672C242.909 23.936 244.413 22.08 244.413 20.064V19.312H241.245V18.32H248.717V19.312H245.613V20.048C245.613 21.872 247.037 23.648 249.037 24.352L248.429 25.296C246.861 24.72 245.629 23.536 245.037 22.08C244.445 23.696 243.149 25.008 241.485 25.632L240.861 24.672ZM243.389 30.848V26.528H244.589V29.856H252.701V30.848H243.389ZM256.296 26.848H257.496V29.856H265.896V30.848H256.296V26.848ZM254.648 25.696V24.72H260.376V22.304H261.56V24.72H267.336V25.696H254.648ZM255.496 22.256C257.896 21.84 260.376 20.176 260.376 18.176V17.536H261.576V18.176C261.576 20.176 264.056 21.856 266.44 22.256L265.96 23.2C263.896 22.8 261.848 21.6 260.984 19.904C260.12 21.6 258.056 22.8 255.976 23.2L255.496 22.256ZM268.802 18.112H276.29V19.088H273.154V19.616C273.154 21.44 274.546 23.088 276.578 23.744L276.018 24.688C274.402 24.144 273.17 23.024 272.578 21.6C271.986 23.184 270.69 24.4 269.026 24.992L268.418 24.032C270.498 23.328 271.97 21.616 271.97 19.632V19.088H268.802V18.112ZM270.546 30.976V25.504H271.73V27.248H278.146V25.504H279.33V30.976H270.546ZM271.73 30H278.146V28.208H271.73V30ZM278.13 24.832V17.168H279.33V20.416H281.426V21.44H279.33V24.832H278.13ZM292.541 17.152H293.741V31.184H292.541V17.152ZM282.829 23.12C282.829 20.144 284.301 18.256 286.381 18.256C288.445 18.256 289.917 20.144 289.917 23.12C289.917 26.096 288.445 28 286.381 28C284.301 28 282.829 26.096 282.829 23.12ZM283.997 23.12C283.997 25.408 284.973 26.928 286.381 26.928C287.773 26.928 288.765 25.408 288.765 23.12C288.765 20.832 287.773 19.328 286.381 19.328C284.973 19.328 283.997 20.832 283.997 23.12Z" fill="#1A1A1A"/>
<rect width="141" height="48" transform="translate(316)" fill="white"/>
<path d="M337.676 18.544H344.076V27.632H337.676V18.544ZM338.86 26.656H342.924V19.52H338.86V26.656ZM347.1 31.184V17.152H348.3V31.184H347.1ZM351.702 18.752H356.278V19.264C356.278 20.448 356.294 22.768 355.35 26.512L354.134 26.32C354.998 23.264 355.094 21.04 355.11 19.728H351.702V18.752ZM350.71 29.056V28.048H363.35V29.056H350.71ZM357.302 19.728V18.752H361.91V19.808C361.91 21.328 361.91 23.392 361.286 26.512L360.086 26.368C360.71 23.408 360.71 21.312 360.71 19.808V19.728H357.302ZM366.929 26.176H376.033V30.976H366.929V26.176ZM365.089 18.864V17.888H371.297V21.744H366.321V23.824C368.609 23.824 370.353 23.76 372.449 23.408L372.545 24.4C370.353 24.752 368.577 24.816 366.177 24.816H365.137V20.816H370.113V18.864H365.089ZM368.097 30H374.849V27.136H368.097V30ZM372.177 21.312V20.336H374.833V17.184H376.033V25.392H374.833V21.312H372.177ZM384.795 25.968C387.643 25.968 389.387 26.928 389.387 28.56C389.387 30.208 387.643 31.152 384.795 31.152C381.947 31.152 380.203 30.208 380.203 28.56C380.203 26.928 381.947 25.968 384.795 25.968ZM379.003 24.496V18.048H380.187V20.192H384.267V18.048H385.451V24.496H379.003ZM380.187 23.52H384.267V21.152H380.187V23.52ZM381.371 28.56C381.371 29.584 382.683 30.192 384.795 30.192C386.891 30.192 388.187 29.584 388.187 28.56C388.187 27.552 386.891 26.944 384.795 26.944C382.683 26.944 381.371 27.552 381.371 28.56ZM388.043 25.6V17.168H389.243V20.72H391.323V21.728H389.243V25.6H388.043ZM392.645 18.608H400.469V19.616H397.141V21.504C397.141 23.888 398.901 26.288 400.917 27.168L400.229 28.128C398.629 27.376 397.205 25.744 396.549 23.808C395.909 25.872 394.501 27.664 392.901 28.464L392.213 27.52C394.181 26.56 395.941 23.92 395.941 21.504V19.616H392.645V18.608ZM402.421 31.168V17.168H403.621V31.168H402.421ZM413.505 18C415.601 18 417.137 19.344 417.137 21.296C417.137 23.248 415.601 24.576 413.505 24.576C411.393 24.576 409.873 23.248 409.873 21.296C409.873 19.344 411.393 18 413.505 18ZM411.041 21.296C411.041 22.64 412.081 23.568 413.505 23.568C414.929 23.568 415.985 22.64 415.985 21.296C415.985 19.952 414.929 19.024 413.505 19.024C412.081 19.024 411.041 19.952 411.041 21.296ZM411.409 28.528C411.409 26.88 413.153 25.92 416.001 25.92C418.833 25.92 420.577 26.88 420.577 28.528C420.577 30.176 418.833 31.136 416.001 31.136C413.153 31.136 411.409 30.176 411.409 28.528ZM412.577 28.528C412.577 29.552 413.889 30.176 416.001 30.176C418.097 30.176 419.393 29.552 419.393 28.528C419.393 27.504 418.097 26.896 416.001 26.896C413.889 26.896 412.577 27.504 412.577 28.528ZM419.233 25.472V17.168H420.433V19.296H422.497V20.304H420.433V22.272H422.497V23.28H420.433V25.472H419.233ZM433.084 17.168H434.284V20.224H436.364V21.216H434.284V24.304H433.084V17.168ZM424.044 23.552V17.968H430.444V23.552H424.044ZM425.212 22.592H429.276V18.928H425.212V22.592ZM425.436 25.936V24.976H434.284V28.368H426.652V30H434.796V30.976H425.468V27.456H433.1V25.936H425.436Z" fill="#1A1A1A"/>
</g>
<rect x="380" y="19" width="12" height="12" rx="6" fill="#333333"/>
<path d="M386.656 22.192V28.032L385.696 28.024V23.248L384.648 23.728L384.288 22.848L385.696 22.192H386.656Z" fill="white"/>
<path d="M360 27.6667C361.473 27.6667 362.667 26.4728 362.667 25C362.667 23.5272 361.473 22.3333 360 22.3333C358.527 22.3333 357.333 23.5272 357.333 25C357.333 26.4728 358.527 27.6667 360 27.6667ZM360 25L360 25.5L380 25.5L380 25L380 24.5L360 24.5L360 25Z" fill="#333333"/>
<rect x="380" y="76" width="12" height="12" rx="6" fill="#333333"/>
<path d="M383.996 84.072C385.172 82.944 386.708 82.04 386.708 81.088C386.708 80.392 386.284 80.096 385.756 80.096C385.412 80.096 384.98 80.224 384.716 80.8L383.844 80.408C384.3 79.392 385.236 79.136 385.756 79.136C386.66 79.136 387.668 79.84 387.668 81.088C387.668 82.296 386.492 83.232 385.468 84.072H387.756V85.032H383.996V84.072Z" fill="white"/>
<path d="M360 84.6667C361.473 84.6667 362.667 83.4728 362.667 82C362.667 80.5272 361.473 79.3333 360 79.3333C358.527 79.3333 357.333 80.5272 357.333 82C357.333 83.4728 358.527 84.6667 360 84.6667ZM360 82L360 82.5L380 82.5L380 82L380 81.5L360 81.5L360 82Z" fill="#333333"/>
<path d="M398.83 21.77V29.01H397.95V22.79L396.83 23.45L396.41 22.68L397.95 21.77H398.83ZM402.569 29.08C401.019 29.08 400.139 27.89 400.139 26.49C400.139 25.1 401.019 23.9 402.569 23.9C403.169 23.9 403.819 24.21 404.239 24.9V21.54H405.119V29H404.239V28.08C403.809 28.8 403.169 29.08 402.569 29.08ZM401.019 26.49C401.019 27.48 401.589 28.2 402.629 28.2C403.479 28.2 404.239 27.5 404.239 26.49C404.239 25.49 403.479 24.78 402.629 24.78C401.589 24.78 401.019 25.51 401.019 26.49ZM409.915 26.07C409.835 25.37 409.455 24.7 408.465 24.7C407.595 24.7 406.985 25.16 406.865 26.08L409.915 26.07ZM405.995 26.46C405.995 25.05 406.865 23.86 408.445 23.86C410.085 23.86 410.525 25.15 410.565 25.26C410.875 26.07 410.775 26.87 410.775 26.87H406.865C407.005 27.71 407.575 28.22 408.455 28.22C409.535 28.22 409.795 27.63 409.845 27.55L410.615 27.93C410.615 27.93 410.175 29.06 408.445 29.06C406.865 29.06 405.995 27.87 405.995 26.46ZM414.25 28.24C415.29 28.24 415.87 27.49 415.87 26.48C415.87 25.48 415.29 24.74 414.25 24.74C413.38 24.74 412.62 25.46 412.62 26.48C412.62 27.51 413.38 28.24 414.25 28.24ZM411.73 31.32V23.87H412.61V24.87C412.95 24.18 413.76 23.88 414.29 23.88C415.85 23.88 416.75 25.08 416.75 26.48C416.75 27.9 415.85 29.1 414.29 29.1C413.74 29.1 412.95 28.75 412.61 28.1V31.32H411.73ZM420.249 28.92C420.059 28.96 419.709 29.02 419.379 29.01C418.619 28.99 417.939 28.35 417.939 27.54V24.7H417.079V23.84H417.939V22.17H418.819V23.84H420.089V24.7H418.819V27.54C418.819 27.92 419.049 28.13 419.419 28.14C419.649 28.14 419.889 28.1 420.059 28.06L420.249 28.92ZM424.765 26.21C424.765 25.35 424.335 24.79 423.535 24.79C422.755 24.79 422.105 25.5 422.105 26.37V29.04H421.225V21.54H422.105V24.77C422.385 24.27 422.985 23.92 423.565 23.92C424.735 23.92 425.645 24.87 425.645 26.13V29.04H424.765V26.21Z" fill="black"/>
<path d="M396.57 85.14C398.02 83.74 400.1 82.25 400.1 80.98C400.1 80.02 399.49 79.56 398.75 79.56C398.23 79.56 397.65 79.74 397.29 80.55L396.49 80.2C397.02 78.99 398.07 78.68 398.75 78.68C399.84 78.68 400.98 79.53 400.98 80.98C400.98 82.48 399.25 83.92 397.88 85.14H401.1V86.02H396.57V85.14ZM404.366 86.08C402.816 86.08 401.936 84.89 401.936 83.49C401.936 82.1 402.816 80.9 404.366 80.9C404.966 80.9 405.616 81.21 406.036 81.9V78.54H406.916V86H406.036V85.08C405.606 85.8 404.966 86.08 404.366 86.08ZM402.816 83.49C402.816 84.48 403.386 85.2 404.426 85.2C405.276 85.2 406.036 84.5 406.036 83.49C406.036 82.49 405.276 81.78 404.426 81.78C403.386 81.78 402.816 82.51 402.816 83.49ZM411.712 83.07C411.632 82.37 411.252 81.7 410.262 81.7C409.392 81.7 408.782 82.16 408.662 83.08L411.712 83.07ZM407.792 83.46C407.792 82.05 408.662 80.86 410.242 80.86C411.882 80.86 412.322 82.15 412.362 82.26C412.672 83.07 412.572 83.87 412.572 83.87H408.662C408.802 84.71 409.372 85.22 410.252 85.22C411.332 85.22 411.592 84.63 411.642 84.55L412.412 84.93C412.412 84.93 411.972 86.06 410.242 86.06C408.662 86.06 407.792 84.87 407.792 83.46ZM416.047 85.24C417.087 85.24 417.667 84.49 417.667 83.48C417.667 82.48 417.087 81.74 416.047 81.74C415.177 81.74 414.417 82.46 414.417 83.48C414.417 84.51 415.177 85.24 416.047 85.24ZM413.527 88.32V80.87H414.407V81.87C414.747 81.18 415.557 80.88 416.087 80.88C417.647 80.88 418.547 82.08 418.547 83.48C418.547 84.9 417.647 86.1 416.087 86.1C415.537 86.1 414.747 85.75 414.407 85.1V88.32H413.527ZM422.045 85.92C421.855 85.96 421.505 86.02 421.175 86.01C420.415 85.99 419.735 85.35 419.735 84.54V81.7H418.875V80.84H419.735V79.17H420.615V80.84H421.885V81.7H420.615V84.54C420.615 84.92 420.845 85.13 421.215 85.14C421.445 85.14 421.685 85.1 421.855 85.06L422.045 85.92ZM426.562 83.21C426.562 82.35 426.132 81.79 425.332 81.79C424.552 81.79 423.902 82.5 423.902 83.37V86.04H423.022V78.54H423.902V81.77C424.182 81.27 424.782 80.92 425.362 80.92C426.532 80.92 427.442 81.87 427.442 83.13V86.04H426.562V83.21Z" fill="black"/>
<defs>
<clipPath id="clip0_1101_59955">
<rect width="360" height="112" fill="white"/>
</clipPath>
</defs>
</svg>
