<svg width="306" height="160" viewBox="0 0 306 160" fill="none" xmlns="http://www.w3.org/2000/svg">
<g filter="url(#filter0_dd_790_21611)">
<g clip-path="url(#clip0_790_21611)">
<path d="M15 -67.9227C15 -80.1157 24.8843 -90 37.0773 -90H268.923C281.116 -90 291 -80.1157 291 -67.9227V115.923C291 128.116 281.116 138 268.923 138H37.0773C24.8844 138 15 128.116 15 115.923V-67.9227Z" fill="white"/>
<path d="M34.0116 -22.4144H35.1898V-14.5812C36.6864 -14.5972 38.1352 -14.6768 39.8069 -15.027L39.9661 -14.0081C38.1352 -13.626 36.5749 -13.5464 34.9032 -13.5464H34.0116V-22.4144ZM37.8805 -18.2272V-19.2143H41.0488V-23.5926H42.1792V-10.7283H41.0488V-18.2272H37.8805ZM44.0101 -9.99596V-23.927H45.1564V-9.99596H44.0101ZM48.7497 -22.7169H58.1432V-21.7458H49.9597V-19.6123H57.8406V-18.6411H49.9597V-16.3963H58.2864V-15.4091H48.7497V-22.7169ZM47.1098 -11.8269V-12.814H59.7353V-11.8269H47.1098ZM71.0821 -23.927H72.2762V-9.98004H71.0821V-13.4508H67.882V-14.4061H71.0821V-23.927ZM60.8289 -16.5555C63.4559 -16.5555 66.9585 -16.5714 69.9995 -17.0013L70.0791 -16.1256C68.7099 -15.8868 67.2769 -15.7594 65.8918 -15.6798V-10.4258H64.6977V-15.6161C63.3603 -15.5684 62.0867 -15.5524 60.9722 -15.5524L60.8289 -16.5555ZM61.8638 -20.488C61.8638 -22.1279 63.2967 -23.2105 65.3664 -23.2105C67.4202 -23.2105 68.8372 -22.1279 68.8372 -20.488C68.8372 -18.8322 67.4202 -17.7655 65.3664 -17.7655C63.2967 -17.7655 61.8638 -18.8322 61.8638 -20.488ZM62.9942 -20.488C62.9942 -19.4054 63.9654 -18.6889 65.3664 -18.6889C66.7516 -18.6889 67.7068 -19.4054 67.7068 -20.488C67.7068 -21.5547 66.7516 -22.2871 65.3664 -22.2871C63.9654 -22.2871 62.9942 -21.5547 62.9942 -20.488ZM76.1879 -22.4941H85.6928V-20.7746C85.6928 -18.7207 85.6928 -16.8261 85.1196 -14.0081L83.9255 -14.1195C84.228 -15.4569 84.3713 -16.6351 84.4509 -17.7336L75.9968 -17.2719L75.8217 -18.259L84.4828 -18.6252C84.5146 -19.3576 84.5146 -20.074 84.5146 -20.7746V-21.5069H76.1879V-22.4941ZM74.6753 -11.9702V-12.9732H87.269V-11.9702H74.6753ZM97.9471 -23.9429H99.1571V-18.2431H101.402V-17.2401H99.1571V-9.99596H97.9471V-23.9429ZM88.5696 -13.5941C92.1518 -15.3932 94.0942 -18.1317 94.3649 -21.4433H89.2064V-22.4304H95.5749C95.5749 -18.4978 93.728 -14.9156 89.2383 -12.6707L88.5696 -13.5941ZM116.015 -23.911H117.209V-13.626H116.015V-17.4152H112.448C111.812 -16.5873 110.777 -16.0938 109.567 -16.0938C107.513 -16.0938 106 -17.5107 106 -19.5486C106 -21.6025 107.513 -23.0354 109.567 -23.0354C110.761 -23.0354 111.78 -22.5418 112.417 -21.7298H116.015V-23.911ZM107.131 -19.5486C107.131 -18.1317 108.166 -17.1286 109.567 -17.1286C110.952 -17.1286 112.003 -18.1317 112.003 -19.5486C112.003 -20.9656 110.952 -21.9687 109.567 -21.9687C108.166 -21.9687 107.131 -20.9656 107.131 -19.5486ZM108.341 -10.3144V-14.6927H109.535V-11.3015H117.607V-10.3144H108.341ZM112.958 -20.7427C113.085 -20.3765 113.149 -19.9785 113.149 -19.5486C113.149 -19.1347 113.085 -18.7526 112.974 -18.4023H116.015V-20.7427H112.958ZM129.798 -23.927H130.992V-16.8102H129.798V-18.275H126.088V-19.2302H129.798V-20.9338H126.295C125.451 -18.7367 123.286 -17.2401 120.213 -16.4918L119.799 -17.463C123.19 -18.275 125.18 -19.9785 125.403 -22.2393H120.5V-23.2264H126.709C126.709 -22.7488 126.661 -22.303 126.582 -21.8731H129.798V-23.927ZM122.06 -15.1863V-16.1574H130.992V-12.7822H123.27V-11.0945H131.469V-10.1393H122.092V-13.7056H129.798V-15.1863H122.06ZM134.442 -22.5896H141.495V-21.6184H135.636V-17.8928H141.558V-16.9057H138.517V-14.1355C139.887 -14.1991 141.24 -14.2787 142.53 -14.438L142.625 -13.5623C139.568 -13.1006 136.225 -13.021 133.566 -13.0369L133.407 -14.0399C134.617 -14.0399 135.954 -14.0559 137.323 -14.1036V-16.9057H134.442V-22.5896ZM143.453 -9.98004V-23.9429H144.647V-9.98004H143.453ZM147.556 -22.4941H155.341V-21.491H152.03V-19.6123C152.03 -17.2401 153.781 -14.8519 155.787 -13.9762L155.102 -13.021C153.51 -13.7693 152.093 -15.3932 151.44 -17.3197C150.804 -15.2659 149.403 -13.4827 147.81 -12.6866L147.126 -13.626C149.084 -14.5812 150.835 -17.2082 150.835 -19.6123V-21.491H147.556V-22.4941ZM157.284 -9.99596V-23.927H158.478V-9.99596H157.284ZM168.298 -23.1309C170.384 -23.1309 171.896 -21.7935 171.896 -19.9148C171.896 -18.0202 170.384 -16.6988 168.298 -16.6988C166.26 -16.6988 164.732 -18.0202 164.732 -19.9148C164.732 -21.7935 166.26 -23.1309 168.298 -23.1309ZM165.894 -19.9148C165.894 -18.6093 166.929 -17.6859 168.298 -17.6859C169.699 -17.6859 170.734 -18.6093 170.734 -19.9148C170.734 -21.2044 169.699 -22.1279 168.298 -22.1279C166.929 -22.1279 165.894 -21.2044 165.894 -19.9148ZM165.926 -10.3621V-15.441H167.088V-11.3652C167.884 -11.397 168.967 -11.5085 169.954 -11.8428L170.161 -10.8716C168.808 -10.4258 167.486 -10.3621 166.595 -10.3621H165.926ZM169.651 -14.4698V-15.3614H172.565V-16.6351H173.743V-15.3614H176.641V-14.4698H169.651ZM170.591 -11.9861C170.591 -13.1802 171.642 -13.9444 173.154 -13.9444C174.651 -13.9444 175.717 -13.1802 175.717 -11.9861C175.717 -10.792 174.651 -10.0278 173.154 -10.0278C171.642 -10.0278 170.591 -10.792 170.591 -11.9861ZM171.658 -11.9861C171.658 -11.3174 172.263 -10.8716 173.154 -10.8716C174.03 -10.8716 174.651 -11.3174 174.651 -11.9861C174.651 -12.6548 174.03 -13.1006 173.154 -13.1006C172.263 -13.1006 171.658 -12.6548 171.658 -11.9861ZM174.046 -16.9853V-23.927H175.24V-20.7746H177.325V-19.7715H175.24V-16.9853H174.046ZM182.129 -23.0991C184.214 -23.0991 185.743 -21.7617 185.743 -19.8352C185.743 -17.8928 184.214 -16.5714 182.129 -16.5714C180.043 -16.5714 178.515 -17.8928 178.515 -19.8352C178.515 -21.7617 180.043 -23.0991 182.129 -23.0991ZM178.801 -11.0627C180.553 -11.7154 181.619 -13.228 181.619 -14.5653V-15.3455H182.766V-14.5653C182.766 -13.3076 183.434 -11.9861 184.756 -11.2219C186.093 -12.0498 186.778 -13.4986 186.778 -14.5653V-15.3455H187.94V-14.5653C187.94 -13.1165 188.975 -11.6677 190.742 -11.0627L190.153 -10.1711C188.768 -10.6646 187.813 -11.6358 187.335 -12.814C186.905 -11.6836 186.061 -10.601 184.772 -10.0437C183.434 -10.5691 182.59 -11.604 182.176 -12.7822C181.683 -11.6518 180.728 -10.6806 179.406 -10.1711L178.801 -11.0627ZM179.677 -19.8352C179.677 -18.4978 180.712 -17.5744 182.129 -17.5744C183.546 -17.5744 184.596 -18.4978 184.596 -19.8352C184.596 -21.1567 183.546 -22.096 182.129 -22.096C180.712 -22.096 179.677 -21.1567 179.677 -19.8352ZM187.828 -15.9823V-23.927H189.023V-20.5517H191.108V-19.5646H189.023V-15.9823H187.828ZM195.705 -22.8443C197.599 -22.8443 198.968 -21.2044 199.143 -18.5775H202.264V-23.9429H203.442V-9.98004H202.264V-17.6222H199.143C199.032 -14.8837 197.631 -13.1483 195.705 -13.1483C193.683 -13.1483 192.25 -15.043 192.25 -18.0043C192.25 -20.9656 193.683 -22.8443 195.705 -22.8443ZM193.38 -18.0043C193.38 -15.7276 194.335 -14.2151 195.705 -14.2151C197.09 -14.2151 198.029 -15.7276 198.029 -18.0043C198.029 -20.281 197.09 -21.7776 195.705 -21.7776C194.335 -21.7776 193.38 -20.281 193.38 -18.0043ZM205.794 -12.7981H208.93V-16.6032C207.752 -17.2082 207.035 -18.2113 207.035 -19.469C207.035 -21.6343 209.153 -23.0354 212.082 -23.0354C215.044 -23.0354 217.129 -21.6343 217.129 -19.469C217.129 -18.2272 216.429 -17.2401 215.283 -16.6192V-12.7981H218.419V-11.811H205.794V-12.7981ZM208.198 -19.469C208.198 -17.8928 209.822 -16.858 212.082 -16.858C214.343 -16.858 215.983 -17.8928 215.983 -19.469C215.983 -21.0452 214.343 -22.0801 212.082 -22.0801C209.822 -22.0801 208.198 -21.0452 208.198 -19.469ZM210.108 -12.7981H214.088V-16.1574C213.483 -15.9982 212.815 -15.9186 212.082 -15.9186C211.366 -15.9186 210.713 -15.9982 210.108 -16.1574V-12.7981ZM49.0412 1.34673L45.5385 12.8418H44.3445L41.4309 3.33688L38.5651 12.8418H37.3551L33.8524 1.34673H35.0465L37.9601 10.8676L40.8418 1.34673H42.02L44.9335 10.8676L47.8471 1.34673H49.0412ZM50.6371 4.73794H51.7834V12.8418H50.6371V4.73794ZM50.4779 1.79253C50.4779 1.3945 50.7326 1.07608 51.2102 1.07608C51.672 1.07608 51.9267 1.3945 51.9267 1.79253C51.9267 2.20648 51.672 2.5249 51.2102 2.5249C50.7326 2.5249 50.4779 2.20648 50.4779 1.79253ZM53.845 6.40966H60.5637V7.54006H53.845V6.40966ZM70.1194 1.34673V2.46121H63.9898V6.5211H69.0527V7.63558H63.9898V12.8418H62.8435V1.34673H70.1194ZM71.8818 4.73794H73.0282V12.8418H71.8818V4.73794ZM71.7226 1.79253C71.7226 1.3945 71.9774 1.07608 72.455 1.07608C72.9167 1.07608 73.1715 1.3945 73.1715 1.79253C73.1715 2.20648 72.9167 2.5249 72.455 2.5249C71.9774 2.5249 71.7226 2.20648 71.7226 1.79253ZM84.7879 1.37858H89.6279V2.36569H85.966V6.56887H89.7871V7.54006H84.7879V1.37858ZM78.1488 12.205V11.2019H83.8485V8.24059H85.0267V11.2019H90.7742V12.205H78.1488ZM79.2632 7.54006V1.3945H83.9281V2.39753H80.4414V6.53703C81.6196 6.5211 82.7818 6.45742 84.0714 6.139L84.1829 7.15795C82.6704 7.49229 81.3808 7.54006 80.0115 7.54006H79.2632ZM93.651 0.58252H94.8292V4.30807H103.092V5.27926H93.651V0.58252ZM91.9315 8.1769V7.18979H104.557V8.1769H91.9315ZM93.5714 13.6697V9.59388H94.7496V12.6826H103.172V13.6697H93.5714ZM119.918 0.0730436H121.064V14.004H119.918V0.0730436ZM109.776 10.6288V1.79253H115.014V2.77964H110.955V9.62573C112.961 9.62573 114.234 9.54612 115.715 9.21178L115.842 10.2148C114.25 10.5651 112.897 10.6288 110.668 10.6288H109.776ZM114.059 6.40966V5.40663H117.116V0.407388H118.246V13.2717H117.116V6.40966H114.059ZM133.207 0.0571227H134.401V14.02H133.207V0.0571227ZM123.543 5.99571C123.543 3.03438 125.008 1.15568 127.078 1.15568C129.132 1.15568 130.596 3.03438 130.596 5.99571C130.596 8.95704 129.132 10.8517 127.078 10.8517C125.008 10.8517 123.543 8.95704 123.543 5.99571ZM124.705 5.99571C124.705 8.27243 125.677 9.78494 127.078 9.78494C128.463 9.78494 129.45 8.27243 129.45 5.99571C129.45 3.71898 128.463 2.2224 127.078 2.2224C125.677 2.2224 124.705 3.71898 124.705 5.99571ZM147.07 0.0571227H148.248V14.02H147.07V6.34597H144.124V5.37478H147.07V0.0571227ZM137.453 10.6606V1.36266H143.885V2.34977H138.632V5.26334H143.265V6.23452H138.632V9.65757C141.211 9.65757 142.851 9.59388 144.761 9.2277L144.889 10.2148C142.882 10.5651 141.195 10.6606 138.504 10.6606H137.453ZM150.599 6.58479H163.225V7.49229H150.599V6.58479ZM152.112 9.5302V8.65454H161.633V11.5999H153.322V12.9373H162.078V13.8289H152.144V10.7561H160.47V9.5302H152.112ZM152.207 1.37858V0.502915H161.585V3.36872H153.401V4.61057H161.84V5.50215H152.239V2.54082H160.407V1.37858H152.207ZM177.487 0.0889646H178.681V4.32399H180.767V5.3111H178.681V9.40283H177.487V0.0889646ZM167.855 8.01769C168.969 8.01769 170.275 8.01769 171.628 7.96993V6.91913C170.02 6.79176 168.985 6.04347 168.985 4.88123C168.985 3.60754 170.259 2.8274 172.201 2.8274C174.16 2.8274 175.433 3.60754 175.433 4.88123C175.433 6.02755 174.415 6.77584 172.806 6.91913V7.92217C174.112 7.85848 175.418 7.74703 176.643 7.5719L176.739 8.43164C173.746 8.97296 170.434 8.98888 168.014 8.98888L167.855 8.01769ZM168.205 2.27016V1.36266H171.628V-0.0384039H172.806V1.36266H176.214V2.27016H168.205ZM169.559 11.0746V10.1193H178.681V14.004H177.487V11.0746H169.559ZM170.116 4.88123C170.116 5.6136 170.928 6.12308 172.201 6.12308C173.491 6.12308 174.303 5.6136 174.303 4.88123C174.303 4.13293 173.491 3.6553 172.201 3.6553C170.928 3.6553 170.116 4.13293 170.116 4.88123ZM191.891 0.0889646H193.101V10.2626H191.891V0.0889646ZM182.02 4.4832C182.02 2.46121 183.58 1.06015 185.634 1.06015C187.704 1.06015 189.248 2.46121 189.248 4.4832C189.248 6.47334 187.704 7.89032 185.634 7.89032C183.58 7.89032 182.02 6.47334 182.02 4.4832ZM183.182 4.4832C183.182 5.85242 184.249 6.83953 185.634 6.83953C187.035 6.83953 188.102 5.85242 188.102 4.4832C188.102 3.08214 187.035 2.09503 185.634 2.09503C184.249 2.09503 183.182 3.08214 183.182 4.4832ZM184.201 13.6856V9.2277H185.379V12.6985H193.531V13.6856H184.201ZM195.452 2.49306H198.334V0.471073H199.512V2.49306H202.378V3.46425H195.452V2.49306ZM195.946 7.58782C195.946 5.74097 197.188 4.43544 198.923 4.43544C200.659 4.43544 201.916 5.74097 201.916 7.58782C201.916 9.46652 200.659 10.7561 198.923 10.7561C197.188 10.7561 195.946 9.46652 195.946 7.58782ZM197.013 7.58782C197.013 8.84559 197.809 9.73717 198.923 9.73717C200.038 9.73717 200.85 8.84559 200.85 7.58782C200.85 6.34597 200.038 5.43847 198.923 5.43847C197.809 5.43847 197.013 6.34597 197.013 7.58782ZM203.11 13.3035V0.407388H204.241V5.96387H206.104V0.0730436H207.234V14.004H206.104V6.95098H204.241V13.3035H203.11ZM209.267 8.04953H221.861V9.03664H216.129V14.004H214.951V9.03664H209.267V8.04953ZM210.031 5.86834C212.403 5.51807 214.903 3.92596 214.903 2.04726V1.93582H210.461V0.964627H220.635V1.93582H216.225V2.04726C216.225 3.92596 218.724 5.51807 221.096 5.86834L220.635 6.83953C218.517 6.47334 216.4 5.29518 215.572 3.60754C214.728 5.29518 212.61 6.47334 210.493 6.83953L210.031 5.86834ZM228.527 5.0882H230.883V0.391466H231.997V13.2876H230.883V6.09123H228.527V5.0882ZM222.891 10.0874C224.785 8.97296 225.979 6.47334 225.979 4.08517V1.41042H227.126V4.05333C227.126 6.26637 228.224 8.65454 230.055 9.7531L229.355 10.6765C228.017 9.88047 227.062 8.36796 226.568 6.68032C226.059 8.52717 225.024 10.1352 223.639 10.979L222.891 10.0874ZM233.717 14.004V0.0730436H234.863V14.004H233.717ZM236.833 11.2019H239.969V7.39677C238.791 6.79176 238.074 5.78873 238.074 4.53096C238.074 2.36569 240.192 0.964627 243.121 0.964627C246.083 0.964627 248.168 2.36569 248.168 4.53096C248.168 5.77281 247.468 6.75992 246.322 7.38085V11.2019H249.458V12.189H236.833V11.2019ZM239.237 4.53096C239.237 6.10716 240.861 7.14203 243.121 7.14203C245.382 7.14203 247.022 6.10716 247.022 4.53096C247.022 2.95477 245.382 1.9199 243.121 1.9199C240.861 1.9199 239.237 2.95477 239.237 4.53096ZM241.147 11.2019H245.127V7.84256C244.522 8.00177 243.854 8.08138 243.121 8.08138C242.405 8.08138 241.752 8.00177 241.147 7.84256V11.2019ZM34.346 30.0943C34.346 27.7379 35.0624 25.5408 36.2724 23.6303H37.5621C36.1928 25.509 35.3968 27.722 35.3968 30.0943C35.3968 32.4665 36.1928 34.6796 37.5621 36.5582H36.2724C35.0624 34.6477 34.346 32.4506 34.346 30.0943ZM43.1147 30.4127H44.3247V33.0078C45.6621 32.9441 47.0154 32.8327 48.2891 32.6257L48.3846 33.5014C45.2481 34.0905 41.8251 34.1064 39.3255 34.1064L39.1663 33.1034C40.3126 33.1034 41.6818 33.1034 43.1147 33.0556V30.4127ZM39.5961 29.951C41.6341 29.3301 43.0829 27.7857 43.1147 25.8911H39.9146V24.904H43.1147V23.1686H44.3247V24.904H47.5726V25.8911H44.3088C44.3406 27.722 45.8372 29.2027 47.8592 29.8077L47.302 30.7311C45.6621 30.2216 44.3406 29.1549 43.7197 27.722C43.1306 29.2186 41.8092 30.349 40.1534 30.8903L39.5961 29.951ZM49.2125 37.02V23.0571H50.4066V37.02H49.2125ZM63.5366 23.073H64.6829V37.004H63.5366V29.6803H61.4987V36.2717H60.3842V23.3915H61.4987V28.6773H63.5366V23.073ZM53.4108 33.5332V24.7766H58.5692V25.7637H54.5889V32.5302C56.4995 32.5302 57.8368 32.4506 59.3493 32.1322L59.4926 33.1193C57.8209 33.4695 56.4199 33.5332 54.3023 33.5332H53.4108ZM72.145 28.0882H74.5013V23.3915H75.6158V36.2876H74.5013V29.0912H72.145V28.0882ZM66.5089 33.0874C68.4035 31.973 69.5976 29.4733 69.5976 27.0852V24.4104H70.7439V27.0533C70.7439 29.2664 71.8425 31.6545 73.6734 32.7531L72.9729 33.6765C71.6355 32.8805 70.6803 31.368 70.1867 29.6803C69.6772 31.5272 68.6424 33.1352 67.2572 33.979L66.5089 33.0874ZM77.3353 37.004V23.073H78.4816V37.004H77.3353ZM80.4509 28.9161H93.0286V29.8873H87.3288V31.3202H91.4046V34.4726H83.1893V35.9055H91.8345V36.8448H82.0271V33.5969H90.2424V32.2436H81.9793V31.3202H86.1347V29.8873H80.4509V28.9161ZM81.1355 27.2921C83.5555 27.0692 85.8959 26.0025 86.0392 24.5219H81.6131V23.5507H91.8982V24.5219H87.4562C87.5995 26.0025 89.9399 27.0692 92.3599 27.2921L91.9619 28.1997C89.7329 27.9608 87.5836 27.0852 86.7557 25.6841C85.9278 27.0852 83.7784 27.9608 81.5335 28.1997L81.1355 27.2921ZM103.977 23.073H105.156V28.8365H107.273V29.8395H105.156V37.004H103.977V23.073ZM94.2018 33.167C96.3034 31.0018 97.1632 28.3589 97.3065 25.5727H94.6317V24.5856H98.4209C98.4209 27.8812 97.6726 31.161 95.1571 33.8517L94.2018 33.167ZM98.1821 34.1064C100.347 31.6227 101 28.4703 101.096 25.5727H98.8667V24.5856H102.226C102.226 27.8653 101.733 31.7341 99.1533 34.7751L98.1821 34.1064ZM108.446 24.5059H116.232V25.509H112.92V27.3877C112.92 29.7599 114.671 32.1481 116.678 33.0238L115.993 33.979C114.401 33.2307 112.984 31.6068 112.331 29.6803C111.694 31.7341 110.293 33.5173 108.701 34.3134L108.016 33.374C109.975 32.4188 111.726 29.7918 111.726 27.3877V25.509H108.446V24.5059ZM118.174 37.004V23.073H119.368V37.004H118.174ZM134.825 23.0571H136.035V28.7569H138.28V29.7599H136.035V37.004H134.825V23.0571ZM125.447 33.4059C129.03 31.6068 130.972 28.8683 131.243 25.5567H126.084V24.5696H132.453C132.453 28.5022 130.606 32.0844 126.116 34.3293L125.447 33.4059ZM140.854 23.3596H142.032V26.9896H150.279V27.9768H140.854V23.3596ZM139.135 30.6197V29.6326H151.712V30.6197H139.135ZM140.647 34.4248C140.647 32.8168 142.43 31.9093 145.407 31.9093C148.369 31.9093 150.168 32.8168 150.168 34.4248C150.168 36.0329 148.369 36.9563 145.407 36.9563C142.43 36.9563 140.647 36.0329 140.647 34.4248ZM141.841 34.4248C141.841 35.4278 143.194 36.001 145.407 36.001C147.621 36.001 148.958 35.4278 148.958 34.4248C148.958 33.4218 147.621 32.8486 145.407 32.8486C143.194 32.8486 141.841 33.4218 141.841 34.4248ZM156.5 30.0943C156.5 32.4506 155.799 34.6477 154.589 36.5582H153.299C154.669 34.6796 155.449 32.4665 155.449 30.0943C155.449 27.722 154.669 25.509 153.299 23.6303H154.589C155.799 25.5408 156.5 27.7379 156.5 30.0943Z" fill="#333333"/>
<path d="M32.6902 76.2747C32.6902 73.4425 34.9862 71.1465 37.8184 71.1465H144.334C147.166 71.1465 149.462 73.4425 149.462 76.2747V114.784C149.462 117.617 147.166 119.913 144.334 119.913H37.8184C34.9862 119.913 32.6902 117.617 32.6902 114.784V76.2747Z" fill="#EEEEEE"/>
<path d="M78.5091 90.1298H81.4067V88.6809H83.1262V90.1298H86.0557V91.4671H83.1262C83.1421 92.709 84.2884 93.8075 86.3423 94.2374L85.6577 95.5589C84.0656 95.2245 82.9192 94.4444 82.3142 93.4414C81.6933 94.5558 80.5311 95.3837 78.8593 95.7499L78.1588 94.4285C80.2763 93.9827 81.4067 92.7886 81.4226 91.4671H78.5091V90.1298ZM77.6175 96.5141C80.2286 96.5141 83.7312 96.4982 86.7403 96.0843L86.8518 97.342C85.6258 97.549 84.3681 97.6923 83.1262 97.7719V102.389H81.4067V97.8674C80.1171 97.9152 78.9071 97.9311 77.8245 97.9311L77.6175 96.5141ZM87.6478 102.803V88.6491H89.3354V102.803H87.6478ZM91.4003 99.6506H96.909V96.3868H98.5966V99.6506H104.217V101.052H91.4003V99.6506ZM91.7983 95.2882C94.6959 94.7947 96.8453 92.6612 96.8453 90.5437V89.4929H98.6603V90.5437C98.6603 92.6931 100.81 94.7947 103.723 95.2882L102.991 96.7211C100.619 96.2594 98.6762 94.8743 97.7528 93.0115C96.8134 94.8583 94.8711 96.2594 92.4988 96.7211L91.7983 95.2882Z" fill="#333333"/>
<path d="M156.538 76.2747C156.538 73.4425 158.834 71.1465 161.666 71.1465H268.182C271.014 71.1465 273.31 73.4425 273.31 76.2747V114.784C273.31 117.617 271.014 119.913 268.182 119.913H161.666C158.834 119.913 156.538 117.617 156.538 114.784V76.2747Z" fill="#FF8120"/>
<path d="M210.875 88.665H212.578V92.8045H214.505V94.2056H212.578V98.2336H210.875V88.665ZM201.338 96.546C202.405 96.546 203.615 96.546 204.888 96.5141V95.6226C203.328 95.4315 202.357 94.6832 202.357 93.5687C202.357 92.2632 203.694 91.4671 205.732 91.4671C207.786 91.4671 209.108 92.2632 209.108 93.5687C209.108 94.6832 208.152 95.4315 206.592 95.6226V96.4505C207.802 96.3868 209.028 96.2912 210.158 96.148L210.286 97.342C207.293 97.8674 204.013 97.8834 201.545 97.8993L201.338 96.546ZM201.688 91.0373V89.7954H204.888V88.5376H206.592V89.7954H209.776V91.0373H201.688ZM203.105 100.192V98.8545H212.578V102.803H210.875V100.192H203.105ZM203.981 93.5687C203.981 94.1578 204.65 94.5399 205.732 94.5399C206.831 94.5399 207.5 94.1578 207.5 93.5687C207.5 92.9478 206.831 92.5975 205.732 92.5975C204.65 92.5975 203.981 92.9478 203.981 93.5687ZM225.215 88.665H226.934V98.8864H225.215V88.665ZM215.503 93.1389C215.503 91.0532 217.143 89.5884 219.276 89.5884C221.426 89.5884 223.05 91.0532 223.05 93.1389C223.05 95.1927 221.426 96.6733 219.276 96.6733C217.143 96.6733 215.503 95.1927 215.503 93.1389ZM217.175 93.1389C217.175 94.3807 218.082 95.1768 219.276 95.1768C220.47 95.1768 221.394 94.3807 221.394 93.1389C221.394 91.8652 220.47 91.0691 219.276 91.0691C218.082 91.0691 217.175 91.8652 217.175 93.1389ZM217.668 102.532V97.8674H219.372V101.147H227.332V102.532H217.668Z" fill="white"/>
</g>
</g>
<defs>
<filter id="filter0_dd_790_21611" x="0.847878" y="-97.0761" width="304.304" height="256.304" filterUnits="userSpaceOnUse" color-interpolation-filters="sRGB">
<feFlood flood-opacity="0" result="BackgroundImageFix"/>
<feColorMatrix in="SourceAlpha" type="matrix" values="0 0 0 0 0 0 0 0 0 0 0 0 0 0 0 0 0 0 127 0" result="hardAlpha"/>
<feOffset/>
<feGaussianBlur stdDeviation="3.53803"/>
<feComposite in2="hardAlpha" operator="out"/>
<feColorMatrix type="matrix" values="0 0 0 0 0 0 0 0 0 0 0 0 0 0 0 0 0 0 0.12 0"/>
<feBlend mode="normal" in2="BackgroundImageFix" result="effect1_dropShadow_790_21611"/>
<feColorMatrix in="SourceAlpha" type="matrix" values="0 0 0 0 0 0 0 0 0 0 0 0 0 0 0 0 0 0 127 0" result="hardAlpha"/>
<feOffset dy="7.07606"/>
<feGaussianBlur stdDeviation="7.07606"/>
<feComposite in2="hardAlpha" operator="out"/>
<feColorMatrix type="matrix" values="0 0 0 0 0 0 0 0 0 0 0 0 0 0 0 0 0 0 0.12 0"/>
<feBlend mode="normal" in2="effect1_dropShadow_790_21611" result="effect2_dropShadow_790_21611"/>
<feBlend mode="normal" in="SourceGraphic" in2="effect2_dropShadow_790_21611" result="shape"/>
</filter>
<clipPath id="clip0_790_21611">
<path d="M15 -67.9227C15 -80.1157 24.8843 -90 37.0773 -90H268.923C281.116 -90 291 -80.1157 291 -67.9227V115.923C291 128.116 281.116 138 268.923 138H37.0773C24.8844 138 15 128.116 15 115.923V-67.9227Z" fill="white"/>
</clipPath>
</defs>
</svg>
