<svg width="582" height="235" viewBox="0 0 582 235" fill="none" xmlns="http://www.w3.org/2000/svg">
<g filter="url(#filter0_dd_1099_71598)">
<mask id="path-1-inside-1_1099_71598" fill="white">
<path d="M357.83 17.1303C357.83 12.3548 361.701 8.4834 366.477 8.4834H560.297C565.073 8.4834 568.944 12.3548 568.944 17.1303V206.811C568.944 211.587 565.073 215.458 560.297 215.458H366.477C361.701 215.458 357.83 211.587 357.83 206.811V17.1303Z"/>
</mask>
<path d="M357.83 17.1303C357.83 12.3548 361.701 8.4834 366.477 8.4834H560.297C565.073 8.4834 568.944 12.3548 568.944 17.1303V206.811C568.944 211.587 565.073 215.458 560.297 215.458H366.477C361.701 215.458 357.83 211.587 357.83 206.811V17.1303Z" fill="white"/>
<path d="M366.477 8.4834V9.29405H560.297V8.4834V7.67275H366.477V8.4834ZM568.944 17.1303H568.134V206.811H568.944H569.755V17.1303H568.944ZM560.297 215.458V214.648H366.477V215.458V216.269H560.297V215.458ZM357.83 206.811H358.641V17.1303H357.83H357.019V206.811H357.83ZM366.477 215.458V214.648C362.149 214.648 358.641 211.139 358.641 206.811H357.83H357.019C357.019 212.035 361.254 216.269 366.477 216.269V215.458ZM568.944 206.811H568.134C568.134 211.139 564.625 214.648 560.297 214.648V215.458V216.269C565.521 216.269 569.755 212.035 569.755 206.811H568.944ZM560.297 8.4834V9.29405C564.625 9.29405 568.134 12.8025 568.134 17.1303H568.944H569.755C569.755 11.9071 565.521 7.67275 560.297 7.67275V8.4834ZM366.477 8.4834V7.67275C361.254 7.67275 357.019 11.9071 357.019 17.1303H357.83H358.641C358.641 12.8025 362.149 9.29405 366.477 9.29405V8.4834Z" fill="#999999" mask="url(#path-1-inside-1_1099_71598)"/>
<path d="M364.315 24.6966C364.315 19.324 368.671 14.9688 374.043 14.9688H552.731C558.104 14.9688 562.459 19.324 562.459 24.6966V49.9392C562.459 55.3117 558.104 59.667 552.731 59.667H374.043C368.671 59.667 364.315 55.3117 364.315 49.9392V24.6966Z" fill="white"/>
<path fill-rule="evenodd" clip-rule="evenodd" d="M390.829 31.88C391.146 32.1966 391.146 32.7099 390.829 33.0264L381.912 41.9436C381.596 42.2602 381.082 42.2602 380.766 41.9436L376.713 37.8904C376.396 37.5738 376.396 37.0605 376.713 36.7439C377.029 36.4273 377.542 36.4273 377.859 36.7439L381.339 40.224L389.683 31.88C390 31.5634 390.513 31.5634 390.829 31.88Z" fill="#BDBDBD"/>
<path d="M402.056 39.7346C402.538 40.7998 403.545 41.4273 404.887 41.3981C407.163 41.3251 407.776 38.4068 405.602 37.8231C404.902 37.5605 403.749 37.2395 402.742 36.5537C401.283 35.5468 401.298 34.0731 401.735 33.1392C402.319 31.9135 403.88 31.5633 404.756 31.6362C405.617 31.6946 406.784 32.0448 407.499 33.0808L406.624 33.6645C406.142 32.9787 405.398 32.7452 404.668 32.6868C404.012 32.6577 403.063 32.862 402.698 33.5769C402.407 34.2482 402.407 35.0215 403.326 35.6782C404.187 36.2764 405.223 36.5682 405.952 36.8309C409.25 37.8377 408.316 42.3466 404.916 42.4487C403.238 42.5071 401.706 41.617 401.093 40.1432L402.056 39.7346ZM415.12 38.0858C415.004 37.0352 414.493 35.9116 412.917 35.9116C411.531 35.9116 410.641 36.6558 410.451 38.1004L415.12 38.0858ZM409.371 38.6111C409.371 36.5682 410.597 34.861 412.873 34.861C415.237 34.861 415.835 36.6996 415.908 36.8747C416.346 38.0712 416.171 39.1218 416.171 39.1218H410.451C410.641 40.4934 411.531 41.3106 412.888 41.3106C414.566 41.3106 414.974 40.3913 415.077 40.2454L415.981 40.7269C415.981 40.7269 415.368 42.3612 412.873 42.3612C410.597 42.3612 409.371 40.6393 409.371 38.6111ZM417.518 31.4903H418.569V42.3174H417.518V31.4903ZM425.621 38.0858C425.505 37.0352 424.994 35.9116 423.418 35.9116C422.032 35.9116 421.142 36.6558 420.952 38.1004L425.621 38.0858ZM419.872 38.6111C419.872 36.5682 421.098 34.861 423.374 34.861C425.738 34.861 426.336 36.6996 426.409 36.8747C426.847 38.0712 426.672 39.1218 426.672 39.1218H420.952C421.142 40.4934 422.032 41.3106 423.389 41.3106C425.067 41.3106 425.476 40.3913 425.578 40.2454L426.482 40.7269C426.482 40.7269 425.87 42.3612 423.374 42.3612C421.098 42.3612 419.872 40.6393 419.872 38.6111ZM431.273 41.3397C432.032 41.3397 432.732 41.0479 433.229 40.5518L434.017 41.2522C433.316 41.9526 432.382 42.3903 431.332 42.3903C428.939 42.3903 427.552 40.6247 427.552 38.4798C427.552 36.3494 428.939 34.5838 431.332 34.5838C432.382 34.5838 433.316 35.0215 434.017 35.7219L433.229 36.4223C432.732 35.9262 432.032 35.6344 431.273 35.6344C429.551 35.6344 428.603 36.9039 428.603 38.4798C428.603 40.0703 429.551 41.3397 431.273 41.3397ZM439.019 42.1569C438.756 42.2152 438.362 42.2882 437.939 42.2882C436.83 42.2882 435.94 41.3981 435.94 40.3037V35.8533H434.729V34.8318H435.94V32.5409H436.991V34.8318H438.727V35.8533H436.991V40.3037C436.991 40.8874 437.341 41.2376 437.939 41.2376C438.275 41.2376 438.552 41.1938 438.786 41.1355L439.019 42.1569ZM446.298 41.3689C448.706 41.3689 450.413 39.4574 450.413 37.0498C450.413 34.6567 448.706 32.7306 446.298 32.7306C443.876 32.7306 442.184 34.6567 442.184 37.0498C442.184 39.4574 443.876 41.3689 446.298 41.3689ZM441.118 37.0498C441.118 34.1022 443.263 31.6654 446.298 31.6654C449.333 31.6654 451.478 34.1022 451.478 37.0498C451.478 40.0119 449.333 42.4341 446.298 42.4341C443.263 42.4341 441.118 40.0119 441.118 37.0498ZM456.741 41.4127C458.346 41.4127 459.251 40.2162 459.251 38.6549C459.251 37.1227 458.346 35.9262 456.741 35.9262C455.399 35.9262 454.246 37.1227 454.246 38.6549C454.246 40.2162 455.399 41.4127 456.741 41.4127ZM453.181 45.6735V34.8902H454.231V36.4661C454.713 35.4155 455.851 34.9048 456.756 34.9048C459.032 34.9048 460.301 36.6412 460.301 38.6549C460.301 40.6977 459.032 42.4341 456.756 42.4341C455.822 42.4341 454.713 41.8067 454.231 40.8582V45.6735H453.181ZM465.23 42.1569C464.967 42.2152 464.573 42.2882 464.15 42.2882C463.041 42.2882 462.151 41.3981 462.151 40.3037V35.8533H460.94V34.8318H462.151V32.5409H463.202V34.8318H464.938V35.8533H463.202V40.3037C463.202 40.8874 463.552 41.2376 464.15 41.2376C464.486 41.2376 464.763 41.1938 464.996 41.1355L465.23 42.1569ZM466.873 34.8902H467.924V42.3174H466.873V34.8902ZM466.727 32.1907C466.727 31.8259 466.96 31.5341 467.398 31.5341C467.821 31.5341 468.055 31.8259 468.055 32.1907C468.055 32.5701 467.821 32.862 467.398 32.862C466.96 32.862 466.727 32.5701 466.727 32.1907ZM473.096 41.3543C474.73 41.3543 475.591 40.1578 475.591 38.6111C475.591 37.0644 474.73 35.8678 473.096 35.8678C471.447 35.8678 470.615 37.0644 470.615 38.6111C470.615 40.1578 471.447 41.3543 473.096 41.3543ZM469.565 38.6111C469.565 36.5828 470.82 34.8464 473.096 34.8464C475.387 34.8464 476.642 36.5828 476.642 38.6111C476.642 40.6393 475.387 42.3757 473.096 42.3757C470.82 42.3757 469.565 40.6393 469.565 38.6111ZM483.237 37.9399C483.237 36.7433 482.536 35.9116 481.311 35.9116C480.041 35.9116 479.107 37.0935 479.107 38.0858V42.3174H478.057V34.8902H479.107V36.1597C479.603 35.4301 480.333 34.8902 481.354 34.8902C483.091 34.8902 484.287 36.2035 484.287 37.8377V42.3174H483.237V37.9399Z" fill="#333333"/>
<path d="M364.315 69.2303C364.315 66.6345 366.42 64.5303 369.015 64.5303H557.759C560.355 64.5303 562.459 66.6345 562.459 69.2303V104.529C562.459 107.124 560.355 109.229 557.759 109.229H369.015C366.42 109.229 364.315 107.124 364.315 104.529V69.2303Z" fill="#FFF5E6"/>
<path fill-rule="evenodd" clip-rule="evenodd" d="M390.829 80.1691C391.146 80.4857 391.146 80.9989 390.829 81.3155L381.912 90.2327C381.596 90.5492 381.082 90.5492 380.766 90.2327L376.713 86.1794C376.396 85.8628 376.396 85.3496 376.713 85.033C377.029 84.7164 377.542 84.7164 377.859 85.033L381.339 88.513L389.683 80.1691C390 79.8525 390.513 79.8525 390.829 80.1691Z" fill="#EE6002"/>
<path d="M402.056 89.2962C402.538 90.3614 403.545 90.9888 404.887 90.9596C407.163 90.8867 407.776 87.9683 405.602 87.3847C404.902 87.122 403.749 86.801 402.742 86.1152C401.283 85.1083 401.298 83.6346 401.735 82.7007C402.319 81.475 403.88 81.1248 404.756 81.1978C405.617 81.2561 406.784 81.6063 407.499 82.6423L406.624 83.226C406.142 82.5402 405.398 82.3067 404.668 82.2484C404.012 82.2192 403.063 82.4235 402.698 83.1385C402.407 83.8097 402.407 84.583 403.326 85.2397C404.187 85.8379 405.223 86.1298 405.952 86.3924C409.25 87.3992 408.316 91.9081 404.916 92.0102C403.238 92.0686 401.706 91.1785 401.093 89.7047L402.056 89.2962ZM415.12 87.6473C415.004 86.5967 414.493 85.4731 412.917 85.4731C411.531 85.4731 410.641 86.2173 410.451 87.6619L415.12 87.6473ZM409.371 88.1726C409.371 86.1298 410.597 84.4225 412.873 84.4225C415.237 84.4225 415.835 86.2611 415.908 86.4362C416.346 87.6327 416.171 88.6833 416.171 88.6833H410.451C410.641 90.0549 411.531 90.8721 412.888 90.8721C414.566 90.8721 414.974 89.9528 415.077 89.8069L415.981 90.2884C415.981 90.2884 415.368 91.9227 412.873 91.9227C410.597 91.9227 409.371 90.2009 409.371 88.1726ZM417.518 81.0519H418.569V91.8789H417.518V81.0519ZM425.621 87.6473C425.505 86.5967 424.994 85.4731 423.418 85.4731C422.032 85.4731 421.142 86.2173 420.952 87.6619L425.621 87.6473ZM419.872 88.1726C419.872 86.1298 421.098 84.4225 423.374 84.4225C425.738 84.4225 426.336 86.2611 426.409 86.4362C426.847 87.6327 426.672 88.6833 426.672 88.6833H420.952C421.142 90.0549 422.032 90.8721 423.389 90.8721C425.067 90.8721 425.476 89.9528 425.578 89.8069L426.482 90.2884C426.482 90.2884 425.87 91.9227 423.374 91.9227C421.098 91.9227 419.872 90.2009 419.872 88.1726ZM431.273 90.9013C432.032 90.9013 432.732 90.6094 433.229 90.1133L434.017 90.8137C433.316 91.5141 432.382 91.9519 431.332 91.9519C428.939 91.9519 427.552 90.1863 427.552 88.0413C427.552 85.9109 428.939 84.1453 431.332 84.1453C432.382 84.1453 433.316 84.583 434.017 85.2835L433.229 85.9839C432.732 85.4877 432.032 85.1959 431.273 85.1959C429.551 85.1959 428.603 86.4654 428.603 88.0413C428.603 89.6318 429.551 90.9013 431.273 90.9013ZM439.019 91.7184C438.756 91.7768 438.362 91.8497 437.939 91.8497C436.83 91.8497 435.94 90.9596 435.94 89.8652V85.4148H434.729V84.3934H435.94V82.1025H436.991V84.3934H438.727V85.4148H436.991V89.8652C436.991 90.4489 437.341 90.7991 437.939 90.7991C438.275 90.7991 438.552 90.7553 438.786 90.697L439.019 91.7184ZM446.298 90.9304C448.706 90.9304 450.413 89.0189 450.413 86.6113C450.413 84.2183 448.706 82.2921 446.298 82.2921C443.876 82.2921 442.184 84.2183 442.184 86.6113C442.184 89.0189 443.876 90.9304 446.298 90.9304ZM441.118 86.6113C441.118 83.6638 443.263 81.227 446.298 81.227C449.333 81.227 451.478 83.6638 451.478 86.6113C451.478 89.5734 449.333 91.9956 446.298 91.9956C443.263 91.9956 441.118 89.5734 441.118 86.6113ZM456.741 90.9742C458.346 90.9742 459.251 89.7777 459.251 88.2164C459.251 86.6843 458.346 85.4877 456.741 85.4877C455.399 85.4877 454.246 86.6843 454.246 88.2164C454.246 89.7777 455.399 90.9742 456.741 90.9742ZM453.181 95.235V84.4517H454.231V86.0276C454.713 84.977 455.851 84.4663 456.756 84.4663C459.032 84.4663 460.301 86.2027 460.301 88.2164C460.301 90.2592 459.032 91.9956 456.756 91.9956C455.822 91.9956 454.713 91.3682 454.231 90.4197V95.235H453.181ZM465.23 91.7184C464.967 91.7768 464.573 91.8497 464.15 91.8497C463.041 91.8497 462.151 90.9596 462.151 89.8652V85.4148H460.94V84.3934H462.151V82.1025H463.202V84.3934H464.938V85.4148H463.202V89.8652C463.202 90.4489 463.552 90.7991 464.15 90.7991C464.486 90.7991 464.763 90.7553 464.996 90.697L465.23 91.7184ZM466.873 84.4517H467.924V91.8789H466.873V84.4517ZM466.727 81.7523C466.727 81.3875 466.96 81.0956 467.398 81.0956C467.821 81.0956 468.055 81.3875 468.055 81.7523C468.055 82.1316 467.821 82.4235 467.398 82.4235C466.96 82.4235 466.727 82.1316 466.727 81.7523ZM473.096 90.9159C474.73 90.9159 475.591 89.7193 475.591 88.1726C475.591 86.6259 474.73 85.4294 473.096 85.4294C471.447 85.4294 470.615 86.6259 470.615 88.1726C470.615 89.7193 471.447 90.9159 473.096 90.9159ZM469.565 88.1726C469.565 86.1444 470.82 84.4079 473.096 84.4079C475.387 84.4079 476.642 86.1444 476.642 88.1726C476.642 90.2009 475.387 91.9373 473.096 91.9373C470.82 91.9373 469.565 90.2009 469.565 88.1726ZM483.237 87.5014C483.237 86.3049 482.536 85.4731 481.311 85.4731C480.041 85.4731 479.107 86.6551 479.107 87.6473V91.8789H478.057V84.4517H479.107V85.7212C479.603 84.9916 480.333 84.4517 481.354 84.4517C483.091 84.4517 484.287 85.765 484.287 87.3992V91.8789H483.237V87.5014Z" fill="#333333"/>
<path d="M364.315 118.793C364.315 116.197 366.42 114.093 369.015 114.093H557.759C560.355 114.093 562.459 116.197 562.459 118.793V154.091C562.459 156.687 560.355 158.791 557.759 158.791H369.015C366.42 158.791 364.315 156.687 364.315 154.091V118.793Z" fill="#FFF5E6"/>
<path fill-rule="evenodd" clip-rule="evenodd" d="M390.829 129.733C391.146 130.049 391.146 130.562 390.829 130.879L381.912 139.796C381.596 140.113 381.082 140.113 380.766 139.796L376.713 135.743C376.396 135.426 376.396 134.913 376.713 134.596C377.029 134.28 377.542 134.28 377.859 134.596L381.339 138.076L389.683 129.733C390 129.416 390.513 129.416 390.829 129.733Z" fill="#EE6002"/>
<path d="M402.056 138.859C402.538 139.924 403.545 140.551 404.887 140.522C407.163 140.449 407.776 137.531 405.602 136.947C404.902 136.685 403.749 136.363 402.742 135.678C401.283 134.671 401.298 133.197 401.735 132.263C402.319 131.038 403.88 130.687 404.756 130.76C405.617 130.819 406.784 131.169 407.499 132.205L406.624 132.789C406.142 132.103 405.398 131.869 404.668 131.811C404.012 131.782 403.063 131.986 402.698 132.701C402.407 133.372 402.407 134.146 403.326 134.802C404.187 135.4 405.223 135.692 405.952 135.955C409.25 136.962 408.316 141.471 404.916 141.573C403.238 141.631 401.706 140.741 401.093 139.267L402.056 138.859ZM415.12 137.21C415.004 136.159 414.493 135.036 412.917 135.036C411.531 135.036 410.641 135.78 410.451 137.224L415.12 137.21ZM409.371 137.735C409.371 135.692 410.597 133.985 412.873 133.985C415.237 133.985 415.835 135.824 415.908 135.999C416.346 137.195 416.171 138.246 416.171 138.246H410.451C410.641 139.617 411.531 140.435 412.888 140.435C414.566 140.435 414.974 139.515 415.077 139.369L415.981 139.851C415.981 139.851 415.368 141.485 412.873 141.485C410.597 141.485 409.371 139.763 409.371 137.735ZM417.518 130.614H418.569V141.441H417.518V130.614ZM425.621 137.21C425.505 136.159 424.994 135.036 423.418 135.036C422.032 135.036 421.142 135.78 420.952 137.224L425.621 137.21ZM419.872 137.735C419.872 135.692 421.098 133.985 423.374 133.985C425.738 133.985 426.336 135.824 426.409 135.999C426.847 137.195 426.672 138.246 426.672 138.246H420.952C421.142 139.617 422.032 140.435 423.389 140.435C425.067 140.435 425.476 139.515 425.578 139.369L426.482 139.851C426.482 139.851 425.87 141.485 423.374 141.485C421.098 141.485 419.872 139.763 419.872 137.735ZM431.273 140.464C432.032 140.464 432.732 140.172 433.229 139.676L434.017 140.376C433.316 141.077 432.382 141.514 431.332 141.514C428.939 141.514 427.552 139.749 427.552 137.604C427.552 135.473 428.939 133.708 431.332 133.708C432.382 133.708 433.316 134.146 434.017 134.846L433.229 135.546C432.732 135.05 432.032 134.758 431.273 134.758C429.551 134.758 428.603 136.028 428.603 137.604C428.603 139.194 429.551 140.464 431.273 140.464ZM439.019 141.281C438.756 141.339 438.362 141.412 437.939 141.412C436.83 141.412 435.94 140.522 435.94 139.428V134.977H434.729V133.956H435.94V131.665H436.991V133.956H438.727V134.977H436.991V139.428C436.991 140.011 437.341 140.362 437.939 140.362C438.275 140.362 438.552 140.318 438.786 140.259L439.019 141.281ZM446.298 140.493C448.706 140.493 450.413 138.581 450.413 136.174C450.413 133.781 448.706 131.855 446.298 131.855C443.876 131.855 442.184 133.781 442.184 136.174C442.184 138.581 443.876 140.493 446.298 140.493ZM441.118 136.174C441.118 133.226 443.263 130.789 446.298 130.789C449.333 130.789 451.478 133.226 451.478 136.174C451.478 139.136 449.333 141.558 446.298 141.558C443.263 141.558 441.118 139.136 441.118 136.174ZM456.741 140.537C458.346 140.537 459.251 139.34 459.251 137.779C459.251 136.247 458.346 135.05 456.741 135.05C455.399 135.05 454.246 136.247 454.246 137.779C454.246 139.34 455.399 140.537 456.741 140.537ZM453.181 144.798V134.014H454.231V135.59C454.713 134.54 455.851 134.029 456.756 134.029C459.032 134.029 460.301 135.765 460.301 137.779C460.301 139.822 459.032 141.558 456.756 141.558C455.822 141.558 454.713 140.931 454.231 139.982V144.798H453.181ZM465.23 141.281C464.967 141.339 464.573 141.412 464.15 141.412C463.041 141.412 462.151 140.522 462.151 139.428V134.977H460.94V133.956H462.151V131.665H463.202V133.956H464.938V134.977H463.202V139.428C463.202 140.011 463.552 140.362 464.15 140.362C464.486 140.362 464.763 140.318 464.996 140.259L465.23 141.281ZM466.873 134.014H467.924V141.441H466.873V134.014ZM466.727 131.315C466.727 130.95 466.96 130.658 467.398 130.658C467.821 130.658 468.055 130.95 468.055 131.315C468.055 131.694 467.821 131.986 467.398 131.986C466.96 131.986 466.727 131.694 466.727 131.315ZM473.096 140.478C474.73 140.478 475.591 139.282 475.591 137.735C475.591 136.188 474.73 134.992 473.096 134.992C471.447 134.992 470.615 136.188 470.615 137.735C470.615 139.282 471.447 140.478 473.096 140.478ZM469.565 137.735C469.565 135.707 470.82 133.97 473.096 133.97C475.387 133.97 476.642 135.707 476.642 137.735C476.642 139.763 475.387 141.5 473.096 141.5C470.82 141.5 469.565 139.763 469.565 137.735ZM483.237 137.064C483.237 135.867 482.536 135.036 481.311 135.036C480.041 135.036 479.107 136.218 479.107 137.21V141.441H478.057V134.014H479.107V135.284C479.603 134.554 480.333 134.014 481.354 134.014C483.091 134.014 484.287 135.327 484.287 136.962V141.441H483.237V137.064Z" fill="#333333"/>
<path d="M364.315 173.383C364.315 168.011 368.671 163.655 374.043 163.655H552.731C558.104 163.655 562.459 168.011 562.459 173.383V198.626C562.459 203.998 558.104 208.354 552.731 208.354H374.043C368.671 208.354 364.315 203.998 364.315 198.626V173.383Z" fill="white"/>
<path fill-rule="evenodd" clip-rule="evenodd" d="M390.829 180.568C391.146 180.884 391.146 181.397 390.829 181.714L381.912 190.631C381.596 190.948 381.082 190.948 380.766 190.631L376.713 186.578C376.396 186.261 376.396 185.748 376.713 185.431C377.029 185.115 377.542 185.115 377.859 185.431L381.339 188.911L389.683 180.568C390 180.251 390.513 180.251 390.829 180.568Z" fill="#BDBDBD"/>
<path d="M402.056 188.421C402.538 189.486 403.545 190.114 404.887 190.085C407.163 190.012 407.776 187.093 405.602 186.51C404.902 186.247 403.749 185.926 402.742 185.24C401.283 184.233 401.298 182.76 401.735 181.826C402.319 180.6 403.88 180.25 404.756 180.323C405.617 180.381 406.784 180.731 407.499 181.767L406.624 182.351C406.142 181.665 405.398 181.432 404.668 181.373C404.012 181.344 403.063 181.548 402.698 182.263C402.407 182.935 402.407 183.708 403.326 184.365C404.187 184.963 405.223 185.255 405.952 185.517C409.25 186.524 408.316 191.033 404.916 191.135C403.238 191.194 401.706 190.304 401.093 188.83L402.056 188.421ZM415.12 186.772C415.004 185.722 414.493 184.598 412.917 184.598C411.531 184.598 410.641 185.342 410.451 186.787L415.12 186.772ZM409.371 187.298C409.371 185.255 410.597 183.548 412.873 183.548C415.237 183.548 415.835 185.386 415.908 185.561C416.346 186.758 416.171 187.808 416.171 187.808H410.451C410.641 189.18 411.531 189.997 412.888 189.997C414.566 189.997 414.974 189.078 415.077 188.932L415.981 189.413C415.981 189.413 415.368 191.048 412.873 191.048C410.597 191.048 409.371 189.326 409.371 187.298ZM417.518 180.177H418.569V191.004H417.518V180.177ZM425.621 186.772C425.505 185.722 424.994 184.598 423.418 184.598C422.032 184.598 421.142 185.342 420.952 186.787L425.621 186.772ZM419.872 187.298C419.872 185.255 421.098 183.548 423.374 183.548C425.738 183.548 426.336 185.386 426.409 185.561C426.847 186.758 426.672 187.808 426.672 187.808H420.952C421.142 189.18 422.032 189.997 423.389 189.997C425.067 189.997 425.476 189.078 425.578 188.932L426.482 189.413C426.482 189.413 425.87 191.048 423.374 191.048C421.098 191.048 419.872 189.326 419.872 187.298ZM431.273 190.026C432.032 190.026 432.732 189.734 433.229 189.238L434.017 189.939C433.316 190.639 432.382 191.077 431.332 191.077C428.939 191.077 427.552 189.311 427.552 187.166C427.552 185.036 428.939 183.27 431.332 183.27C432.382 183.27 433.316 183.708 434.017 184.408L433.229 185.109C432.732 184.613 432.032 184.321 431.273 184.321C429.551 184.321 428.603 185.59 428.603 187.166C428.603 188.757 429.551 190.026 431.273 190.026ZM439.019 190.843C438.756 190.902 438.362 190.975 437.939 190.975C436.83 190.975 435.94 190.085 435.94 188.99V184.54H434.729V183.518H435.94V181.227H436.991V183.518H438.727V184.54H436.991V188.99C436.991 189.574 437.341 189.924 437.939 189.924C438.275 189.924 438.552 189.88 438.786 189.822L439.019 190.843ZM446.298 190.055C448.706 190.055 450.413 188.144 450.413 185.736C450.413 183.343 448.706 181.417 446.298 181.417C443.876 181.417 442.184 183.343 442.184 185.736C442.184 188.144 443.876 190.055 446.298 190.055ZM441.118 185.736C441.118 182.789 443.263 180.352 446.298 180.352C449.333 180.352 451.478 182.789 451.478 185.736C451.478 188.698 449.333 191.121 446.298 191.121C443.263 191.121 441.118 188.698 441.118 185.736ZM456.741 190.099C458.346 190.099 459.251 188.903 459.251 187.341C459.251 185.809 458.346 184.613 456.741 184.613C455.399 184.613 454.246 185.809 454.246 187.341C454.246 188.903 455.399 190.099 456.741 190.099ZM453.181 194.36V183.577H454.231V185.153C454.713 184.102 455.851 183.591 456.756 183.591C459.032 183.591 460.301 185.328 460.301 187.341C460.301 189.384 459.032 191.121 456.756 191.121C455.822 191.121 454.713 190.493 454.231 189.545V194.36H453.181ZM465.23 190.843C464.967 190.902 464.573 190.975 464.15 190.975C463.041 190.975 462.151 190.085 462.151 188.99V184.54H460.94V183.518H462.151V181.227H463.202V183.518H464.938V184.54H463.202V188.99C463.202 189.574 463.552 189.924 464.15 189.924C464.486 189.924 464.763 189.88 464.996 189.822L465.23 190.843ZM466.873 183.577H467.924V191.004H466.873V183.577ZM466.727 180.877C466.727 180.512 466.96 180.221 467.398 180.221C467.821 180.221 468.055 180.512 468.055 180.877C468.055 181.257 467.821 181.548 467.398 181.548C466.96 181.548 466.727 181.257 466.727 180.877ZM473.096 190.041C474.73 190.041 475.591 188.844 475.591 187.298C475.591 185.751 474.73 184.554 473.096 184.554C471.447 184.554 470.615 185.751 470.615 187.298C470.615 188.844 471.447 190.041 473.096 190.041ZM469.565 187.298C469.565 185.269 470.82 183.533 473.096 183.533C475.387 183.533 476.642 185.269 476.642 187.298C476.642 189.326 475.387 191.062 473.096 191.062C470.82 191.062 469.565 189.326 469.565 187.298ZM483.237 186.626C483.237 185.43 482.536 184.598 481.311 184.598C480.041 184.598 479.107 185.78 479.107 186.772V191.004H478.057V183.577H479.107V184.846C479.603 184.117 480.333 183.577 481.354 183.577C483.091 183.577 484.287 184.89 484.287 186.524V191.004H483.237V186.626Z" fill="#333333"/>
</g>
<rect x="365.219" y="60.9141" width="198.008" height="4.95021" fill="#C54600" fill-opacity="0.3"/>
<line x1="345.419" y1="61.1873" x2="569.829" y2="61.1873" stroke="#C54600" stroke-width="1.10387"/>
<line x1="345.419" y1="65.3133" x2="569.829" y2="65.3133" stroke="#C54600" stroke-width="1.10387"/>
<rect x="365.22" y="111.242" width="198.008" height="4.95021" fill="#C54600" fill-opacity="0.3"/>
<line x1="345.419" y1="111.514" x2="569.829" y2="111.514" stroke="#C54600" stroke-width="1.10387"/>
<line x1="345.419" y1="115.641" x2="569.829" y2="115.641" stroke="#C54600" stroke-width="1.10387"/>
<rect x="365.22" y="161.569" width="198.008" height="4.95021" fill="#C54600" fill-opacity="0.3"/>
<line x1="345.419" y1="161.842" x2="569.829" y2="161.842" stroke="#C54600" stroke-width="1.10387"/>
<line x1="345.419" y1="165.969" x2="569.829" y2="165.969" stroke="#C54600" stroke-width="1.10387"/>
<rect x="358.621" y="8.9375" width="211.209" height="6.60028" fill="#007D00" fill-opacity="0.3"/>
<line x1="345.419" y1="9.20979" x2="569.829" y2="9.20979" stroke="#007D00" stroke-width="1.10387"/>
<line x1="345.419" y1="14.9852" x2="569.829" y2="14.9852" stroke="#007D00" stroke-width="1.10387"/>
<rect x="358.621" y="208.585" width="211.209" height="6.60028" fill="#007D00" fill-opacity="0.3"/>
<line x1="345.419" y1="208.857" x2="569.829" y2="208.857" stroke="#007D00" stroke-width="1.10387"/>
<line x1="345.419" y1="214.633" x2="569.829" y2="214.633" stroke="#007D00" stroke-width="1.10387"/>
<rect x="357.516" y="12.2256" width="6.60027" height="196.358" fill="#007D00" fill-opacity="0.3"/>
<line x1="358.147" y1="9.02832" x2="358.147" y2="215.451" stroke="#007D00" stroke-width="1.10387"/>
<line x1="363.666" y1="9.02832" x2="363.666" y2="215.451" stroke="#007D00" stroke-width="1.10387"/>
<rect x="562.125" y="12.2256" width="6.60027" height="196.358" fill="#007D00" fill-opacity="0.3"/>
<line x1="562.363" y1="9.02832" x2="562.363" y2="215.451" stroke="#007D00" stroke-width="1.10387"/>
<line x1="568.986" y1="9.02832" x2="568.986" y2="215.451" stroke="#007D00" stroke-width="1.10387"/>
<g opacity="0.2">
<path d="M39.9526 102.418C39.9526 98.8706 42.8281 95.9951 46.3751 95.9951H226.205C229.752 95.9951 232.627 98.8706 232.627 102.418V133.727C232.627 137.274 229.752 140.15 226.205 140.15H46.3751C42.8281 140.15 39.9526 137.274 39.9526 133.727V102.418Z" fill="white"/>
<mask id="path-37-inside-2_1099_71598" fill="white">
<path d="M49.5864 114.459C49.5864 112.021 51.5633 110.044 54.0019 110.044H61.2272C63.6658 110.044 65.6426 112.021 65.6426 114.459V121.685C65.6426 124.123 63.6658 126.1 61.2272 126.1H54.0019C51.5633 126.1 49.5864 124.123 49.5864 121.685V114.459Z"/>
</mask>
<path d="M49.5864 114.459C49.5864 112.021 51.5633 110.044 54.0019 110.044H61.2272C63.6658 110.044 65.6426 112.021 65.6426 114.459V121.685C65.6426 124.123 63.6658 126.1 61.2272 126.1H54.0019C51.5633 126.1 49.5864 124.123 49.5864 121.685V114.459Z" fill="white"/>
<path d="M54.0019 110.044V110.847H61.2272V110.044V109.241H54.0019V110.044ZM65.6426 114.459H64.8398V121.685H65.6426H66.4455V114.459H65.6426ZM61.2272 126.1V125.297H54.0019V126.1V126.903H61.2272V126.1ZM49.5864 121.685H50.3892V114.459H49.5864H48.7836V121.685H49.5864ZM54.0019 126.1V125.297C52.0067 125.297 50.3892 123.68 50.3892 121.685H49.5864H48.7836C48.7836 124.567 51.1199 126.903 54.0019 126.903V126.1ZM65.6426 121.685H64.8398C64.8398 123.68 63.2224 125.297 61.2272 125.297V126.1V126.903C64.1092 126.903 66.4455 124.567 66.4455 121.685H65.6426ZM61.2272 110.044V110.847C63.2224 110.847 64.8398 112.464 64.8398 114.459H65.6426H66.4455C66.4455 111.577 64.1092 109.241 61.2272 109.241V110.044ZM54.0019 110.044V109.241C51.1199 109.241 48.7836 111.577 48.7836 114.459H49.5864H50.3892C50.3892 112.464 52.0067 110.847 54.0019 110.847V110.044Z" fill="#E0E0E0" mask="url(#path-37-inside-2_1099_71598)"/>
<path d="M74.2903 112.639V122.061H79.6949V123.072H73.2499V112.639H74.2903ZM83.8988 122.133C85.1993 122.133 86.3698 121.078 86.3843 119.46C86.3698 117.856 85.1993 116.786 83.8988 116.786C82.2948 116.786 81.4277 117.942 81.4277 119.46C81.4277 120.977 82.2948 122.133 83.8988 122.133ZM80.3873 119.46C80.3873 117.451 81.6445 115.76 83.8843 115.76C84.7369 115.76 85.6907 116.208 86.3554 117.278V115.717H87.3958V123.072H86.3554V121.627C85.6617 122.754 84.7514 123.173 83.8843 123.173C81.6445 123.173 80.3873 121.454 80.3873 119.46ZM92.7748 122.162C94.4077 122.162 95.2892 120.991 95.2892 119.445C95.2892 117.913 94.4077 116.728 92.7748 116.728C91.4309 116.728 90.2893 117.913 90.2893 119.445C90.2893 120.991 91.4309 122.162 92.7748 122.162ZM89.2488 123.072V112.35H90.2893V117.263C90.9684 116.078 91.98 115.717 92.8037 115.717C95.0724 115.717 96.3296 117.437 96.3296 119.445C96.3296 121.468 95.058 123.188 92.7892 123.188C91.98 123.188 90.9684 122.841 90.2893 121.627V123.072H89.2488ZM103.155 118.882C103.04 117.841 102.534 116.728 100.973 116.728C99.6004 116.728 98.719 117.465 98.5311 118.896L103.155 118.882ZM97.4618 119.402C97.4618 117.379 98.6756 115.688 100.93 115.688C103.271 115.688 103.863 117.509 103.936 117.682C104.369 118.867 104.196 119.908 104.196 119.908H98.5311C98.719 121.266 99.6004 122.075 100.944 122.075C102.606 122.075 103.011 121.165 103.112 121.02L104.008 121.497C104.008 121.497 103.401 123.116 100.93 123.116C98.6756 123.116 97.4618 121.41 97.4618 119.402ZM105.53 112.35H106.57V123.072H105.53V112.35Z" fill="#333333"/>
</g>
<g opacity="0.2">
<path d="M39.9526 102.418C39.9526 98.8706 42.8281 95.9951 46.3751 95.9951H226.205C229.752 95.9951 232.627 98.8706 232.627 102.418V133.727C232.627 137.274 229.752 140.15 226.205 140.15H46.3751C42.8281 140.15 39.9526 137.274 39.9526 133.727V102.418Z" fill="white"/>
<mask id="path-41-inside-3_1099_71598" fill="white">
<path d="M49.5864 114.459C49.5864 112.021 51.5633 110.044 54.0019 110.044H61.2272C63.6658 110.044 65.6426 112.021 65.6426 114.459V121.685C65.6426 124.123 63.6658 126.1 61.2272 126.1H54.0019C51.5633 126.1 49.5864 124.123 49.5864 121.685V114.459Z"/>
</mask>
<path d="M49.5864 114.459C49.5864 112.021 51.5633 110.044 54.0019 110.044H61.2272C63.6658 110.044 65.6426 112.021 65.6426 114.459V121.685C65.6426 124.123 63.6658 126.1 61.2272 126.1H54.0019C51.5633 126.1 49.5864 124.123 49.5864 121.685V114.459Z" fill="white"/>
<path d="M54.0019 110.044V110.847H61.2272V110.044V109.241H54.0019V110.044ZM65.6426 114.459H64.8398V121.685H65.6426H66.4455V114.459H65.6426ZM61.2272 126.1V125.297H54.0019V126.1V126.903H61.2272V126.1ZM49.5864 121.685H50.3892V114.459H49.5864H48.7836V121.685H49.5864ZM54.0019 126.1V125.297C52.0067 125.297 50.3892 123.68 50.3892 121.685H49.5864H48.7836C48.7836 124.567 51.1199 126.903 54.0019 126.903V126.1ZM65.6426 121.685H64.8398C64.8398 123.68 63.2224 125.297 61.2272 125.297V126.1V126.903C64.1092 126.903 66.4455 124.567 66.4455 121.685H65.6426ZM61.2272 110.044V110.847C63.2224 110.847 64.8398 112.464 64.8398 114.459H65.6426H66.4455C66.4455 111.577 64.1092 109.241 61.2272 109.241V110.044ZM54.0019 110.044V109.241C51.1199 109.241 48.7836 111.577 48.7836 114.459H49.5864H50.3892C50.3892 112.464 52.0067 110.847 54.0019 110.847V110.044Z" fill="#E0E0E0" mask="url(#path-41-inside-3_1099_71598)"/>
<path d="M74.2903 112.639V122.061H79.6949V123.072H73.2499V112.639H74.2903ZM83.8988 122.133C85.1993 122.133 86.3698 121.078 86.3843 119.46C86.3698 117.856 85.1993 116.786 83.8988 116.786C82.2948 116.786 81.4277 117.942 81.4277 119.46C81.4277 120.977 82.2948 122.133 83.8988 122.133ZM80.3873 119.46C80.3873 117.451 81.6445 115.76 83.8843 115.76C84.7369 115.76 85.6907 116.208 86.3554 117.278V115.717H87.3958V123.072H86.3554V121.627C85.6617 122.754 84.7514 123.173 83.8843 123.173C81.6445 123.173 80.3873 121.454 80.3873 119.46ZM92.7748 122.162C94.4077 122.162 95.2892 120.991 95.2892 119.445C95.2892 117.913 94.4077 116.728 92.7748 116.728C91.4309 116.728 90.2893 117.913 90.2893 119.445C90.2893 120.991 91.4309 122.162 92.7748 122.162ZM89.2488 123.072V112.35H90.2893V117.263C90.9684 116.078 91.98 115.717 92.8037 115.717C95.0724 115.717 96.3296 117.437 96.3296 119.445C96.3296 121.468 95.058 123.188 92.7892 123.188C91.98 123.188 90.9684 122.841 90.2893 121.627V123.072H89.2488ZM103.155 118.882C103.04 117.841 102.534 116.728 100.973 116.728C99.6004 116.728 98.719 117.465 98.5311 118.896L103.155 118.882ZM97.4618 119.402C97.4618 117.379 98.6756 115.688 100.93 115.688C103.271 115.688 103.863 117.509 103.936 117.682C104.369 118.867 104.196 119.908 104.196 119.908H98.5311C98.719 121.266 99.6004 122.075 100.944 122.075C102.606 122.075 103.011 121.165 103.112 121.02L104.008 121.497C104.008 121.497 103.401 123.116 100.93 123.116C98.6756 123.116 97.4618 121.41 97.4618 119.402ZM105.53 112.35H106.57V123.072H105.53V112.35Z" fill="#333333"/>
</g>
<rect x="39.5512" y="95.5937" width="193.477" height="44.9574" stroke="#0D69D4" stroke-width="0.802811"/>
<rect x="49.5874" y="107.233" width="176.618" height="21.6759" fill="#0D69D4" fill-opacity="0.2"/>
<rect x="49.5874" y="110.044" width="16.0562" height="16.0562" fill="#0D69D4" fill-opacity="0.2"/>
<path d="M74.2918 112.801V122.223H79.6963V123.234H73.2514V112.801H74.2918ZM83.8039 122.295C85.1045 122.295 86.275 121.24 86.2894 119.622C86.275 118.018 85.1045 116.948 83.8039 116.948C82.1999 116.948 81.3329 118.104 81.3329 119.622C81.3329 121.139 82.1999 122.295 83.8039 122.295ZM80.2924 119.622C80.2924 117.613 81.5496 115.922 83.7895 115.922C84.642 115.922 85.5958 116.37 86.2605 117.44V115.879H87.3009V123.234H86.2605V121.789C85.5669 122.916 84.6565 123.336 83.7895 123.336C81.5496 123.336 80.2924 121.616 80.2924 119.622ZM92.5835 122.324C94.2165 122.324 95.0979 121.153 95.0979 119.607C95.0979 118.076 94.2165 116.891 92.5835 116.891C91.2396 116.891 90.098 118.076 90.098 119.607C90.098 121.153 91.2396 122.324 92.5835 122.324ZM89.0576 123.234V112.512H90.098V117.425C90.7772 116.24 91.7888 115.879 92.6124 115.879C94.8812 115.879 96.1384 117.599 96.1384 119.607C96.1384 121.63 94.8667 123.35 92.598 123.35C91.7888 123.35 90.7772 123.003 90.098 121.789V123.234H89.0576ZM102.868 119.044C102.752 118.003 102.246 116.891 100.686 116.891C99.3129 116.891 98.4314 117.628 98.2435 119.058L102.868 119.044ZM97.1742 119.564C97.1742 117.541 98.3881 115.85 100.642 115.85C102.983 115.85 103.576 117.671 103.648 117.844C104.082 119.029 103.908 120.07 103.908 120.07H98.2435C98.4314 121.428 99.3129 122.237 100.657 122.237C102.319 122.237 102.723 121.327 102.824 121.182L103.72 121.659C103.72 121.659 103.113 123.278 100.642 123.278C98.3881 123.278 97.1742 121.573 97.1742 119.564ZM105.146 112.512H106.187V123.234H105.146V112.512Z" fill="#333333"/>
<rect x="65.6426" y="107.234" width="6.42248" height="21.6759" fill="#C54600" fill-opacity="0.3"/>
<line x1="66.044" y1="94.3887" x2="66.044" y2="128.91" stroke="#C54600" stroke-width="0.802811"/>
<line x1="71.6631" y1="94.3887" x2="71.6631" y2="128.91" stroke="#C54600" stroke-width="0.802811"/>
<rect x="39.9526" y="95.9941" width="192.675" height="11.2394" fill="#007D00" fill-opacity="0.3"/>
<line x1="27.1084" y1="96.3955" x2="232.628" y2="96.3955" stroke="#007D00" stroke-width="0.802811"/>
<line x1="27.1084" y1="106.832" x2="232.628" y2="106.832" stroke="#007D00" stroke-width="0.802811"/>
<rect x="39.9526" y="128.91" width="192.675" height="11.2394" fill="#007D00" fill-opacity="0.3"/>
<line x1="27.1084" y1="129.311" x2="232.628" y2="129.311" stroke="#007D00" stroke-width="0.802811"/>
<line x1="27.1084" y1="139.748" x2="232.628" y2="139.748" stroke="#007D00" stroke-width="0.802811"/>
<rect x="39.9541" y="107.234" width="9.63373" height="21.6759" fill="#007D00" fill-opacity="0.3"/>
<line x1="40.3555" y1="83.1494" x2="40.3555" y2="140.149" stroke="#007D00" stroke-width="0.802811"/>
<line x1="49.1871" y1="83.1494" x2="49.187" y2="140.149" stroke="#007D00" stroke-width="0.802811"/>
<rect x="226.206" y="107.233" width="6.42248" height="21.6759" fill="#007D00" fill-opacity="0.3"/>
<line x1="226.607" y1="83.1494" x2="226.607" y2="140.149" stroke="#007D00" stroke-width="0.802811"/>
<line x1="232.226" y1="83.1494" x2="232.226" y2="140.149" stroke="#007D00" stroke-width="0.802811"/>
<rect x="60.7627" y="68.6514" width="18.279" height="19.3798" rx="5.51933" fill="#C54600"/>
<path d="M69.5808 83.8023C68.8406 83.8023 68.1866 83.6711 67.6189 83.4088C67.0547 83.1429 66.6146 82.7782 66.2983 82.3147C65.9821 81.8475 65.8258 81.3157 65.8294 80.7192C65.8258 80.2521 65.9175 79.8209 66.1043 79.4256C66.2912 79.0268 66.5463 78.6944 66.8697 78.4285C67.1967 78.159 67.5614 77.9883 67.9638 77.9164V77.8518C67.4356 77.7152 67.0152 77.4188 66.7026 76.9624C66.39 76.5025 66.2355 75.9796 66.2391 75.3939C66.2355 74.8334 66.3774 74.3321 66.6649 73.8901C66.9523 73.4482 67.3476 73.0996 67.8507 72.8445C68.3573 72.5894 68.934 72.4618 69.5808 72.4618C70.2204 72.4618 70.7918 72.5894 71.2948 72.8445C71.7979 73.0996 72.1932 73.4482 72.4806 73.8901C72.7717 74.3321 72.919 74.8334 72.9226 75.3939C72.919 75.9796 72.7591 76.5025 72.4429 76.9624C72.1303 77.4188 71.7153 77.7152 71.1978 77.8518V77.9164C71.5967 77.9883 71.956 78.159 72.2758 78.4285C72.5956 78.6944 72.8508 79.0268 73.0412 79.4256C73.2316 79.8209 73.3287 80.2521 73.3323 80.7192C73.3287 81.3157 73.167 81.8475 72.8472 82.3147C72.5309 82.7782 72.0908 83.1429 71.5266 83.4088C70.9661 83.6711 70.3175 83.8023 69.5808 83.8023ZM69.5808 82.6165C70.0803 82.6165 70.5115 82.5356 70.8744 82.3739C71.2374 82.2122 71.5176 81.9841 71.7153 81.6894C71.9129 81.3948 72.0135 81.0498 72.0171 80.6545C72.0135 80.2377 71.9057 79.8694 71.6937 79.5496C71.4817 79.2298 71.1924 78.9783 70.8259 78.795C70.463 78.6117 70.048 78.5201 69.5808 78.5201C69.1101 78.5201 68.6897 78.6117 68.3196 78.795C67.9531 78.9783 67.6638 79.2298 67.4518 79.5496C67.2434 79.8694 67.141 80.2377 67.1446 80.6545C67.141 81.0498 67.2362 81.3948 67.4302 81.6894C67.6279 81.9841 67.9099 82.2122 68.2765 82.3739C68.643 82.5356 69.0778 82.6165 69.5808 82.6165ZM69.5808 77.3774C69.9761 77.3774 70.3264 77.2984 70.6319 77.1403C70.9409 76.9822 71.1835 76.7612 71.3595 76.4773C71.5356 76.1934 71.6254 75.8611 71.629 75.4802C71.6254 75.1065 71.5374 74.7813 71.3649 74.5046C71.1924 74.2243 70.9535 74.0087 70.6481 73.8578C70.3426 73.7033 69.9869 73.626 69.5808 73.626C69.1676 73.626 68.8065 73.7033 68.4975 73.8578C68.1884 74.0087 67.9495 74.2243 67.7806 74.5046C67.6117 74.7813 67.5291 75.1065 67.5326 75.4802C67.5291 75.8611 67.6135 76.1934 67.786 76.4773C67.962 76.7612 68.2046 76.9822 68.5136 77.1403C68.8226 77.2984 69.1784 77.3774 69.5808 77.3774Z" fill="white"/>
<rect x="327.07" y="49.6738" width="18.279" height="19.3798" rx="5.51933" fill="#C54600"/>
<path d="M336.018 64.8247C335.565 64.8176 335.112 64.7313 334.66 64.566C334.207 64.4007 333.794 64.1223 333.42 63.7306C333.046 63.3353 332.746 62.8017 332.52 62.1298C332.293 61.4542 332.18 60.6062 332.18 59.5857C332.18 58.6083 332.272 57.7423 332.455 56.9877C332.638 56.2295 332.904 55.5917 333.253 55.0743C333.601 54.5533 334.022 54.158 334.514 53.8885C335.01 53.619 335.569 53.4843 336.19 53.4843C336.808 53.4843 337.358 53.6082 337.84 53.8562C338.325 54.1005 338.72 54.4419 339.025 54.8803C339.331 55.3186 339.528 55.8235 339.618 56.3948H338.303C338.181 55.899 337.944 55.4875 337.592 55.1605C337.24 54.8335 336.772 54.67 336.19 54.67C335.335 54.67 334.661 55.042 334.169 55.7858C333.68 56.5296 333.434 57.5734 333.431 58.9173H333.517C333.718 58.6119 333.957 58.3514 334.234 58.1358C334.514 57.9166 334.823 57.7477 335.161 57.6291C335.499 57.5106 335.856 57.4513 336.233 57.4513C336.866 57.4513 337.444 57.6094 337.969 57.9256C338.494 58.2382 338.914 58.6712 339.23 59.2246C339.546 59.7743 339.705 60.405 339.705 61.1164C339.705 61.7992 339.552 62.4244 339.246 62.9922C338.941 63.5563 338.512 64.0055 337.958 64.3397C337.408 64.6702 336.762 64.8319 336.018 64.8247ZM336.018 63.639C336.471 63.639 336.877 63.5258 337.236 63.2994C337.599 63.073 337.885 62.7694 338.093 62.3885C338.305 62.0076 338.411 61.5836 338.411 61.1164C338.411 60.6601 338.309 60.2451 338.104 59.8714C337.903 59.4941 337.624 59.194 337.268 58.9712C336.916 58.7485 336.514 58.6371 336.061 58.6371C335.72 58.6371 335.402 58.7053 335.107 58.8419C334.812 58.9748 334.554 59.1581 334.331 59.3917C334.112 59.6252 333.939 59.8929 333.813 60.1948C333.688 60.493 333.625 60.8074 333.625 61.138C333.625 61.5764 333.727 61.986 333.932 62.3669C334.14 62.7478 334.424 63.055 334.784 63.2886C335.146 63.5222 335.558 63.639 336.018 63.639Z" fill="white"/>
<rect x="327.07" y="99.3477" width="18.279" height="19.3798" rx="5.51933" fill="#C54600"/>
<path d="M336.018 114.499C335.565 114.491 335.112 114.405 334.66 114.24C334.207 114.075 333.794 113.796 333.42 113.404C333.046 113.009 332.746 112.476 332.52 111.804C332.293 111.128 332.18 110.28 332.18 109.26C332.18 108.282 332.272 107.416 332.455 106.662C332.638 105.903 332.904 105.266 333.253 104.748C333.601 104.227 334.022 103.832 334.514 103.562C335.01 103.293 335.569 103.158 336.19 103.158C336.808 103.158 337.358 103.282 337.84 103.53C338.325 103.774 338.72 104.116 339.025 104.554C339.331 104.992 339.528 105.497 339.618 106.069H338.303C338.181 105.573 337.944 105.161 337.592 104.834C337.24 104.507 336.772 104.344 336.19 104.344C335.335 104.344 334.661 104.716 334.169 105.46C333.68 106.203 333.434 107.247 333.431 108.591H333.517C333.718 108.286 333.957 108.025 334.234 107.81C334.514 107.59 334.823 107.422 335.161 107.303C335.499 107.184 335.856 107.125 336.233 107.125C336.866 107.125 337.444 107.283 337.969 107.599C338.494 107.912 338.914 108.345 339.23 108.898C339.546 109.448 339.705 110.079 339.705 110.79C339.705 111.473 339.552 112.098 339.246 112.666C338.941 113.23 338.512 113.679 337.958 114.013C337.408 114.344 336.762 114.506 336.018 114.499ZM336.018 113.313C336.471 113.313 336.877 113.2 337.236 112.973C337.599 112.747 337.885 112.443 338.093 112.062C338.305 111.681 338.411 111.257 338.411 110.79C338.411 110.334 338.309 109.919 338.104 109.545C337.903 109.168 337.624 108.868 337.268 108.645C336.916 108.422 336.514 108.311 336.061 108.311C335.72 108.311 335.402 108.379 335.107 108.516C334.812 108.649 334.554 108.832 334.331 109.065C334.112 109.299 333.939 109.567 333.813 109.869C333.688 110.167 333.625 110.481 333.625 110.812C333.625 111.25 333.727 111.66 333.932 112.041C334.14 112.422 334.424 112.729 334.784 112.962C335.146 113.196 335.558 113.313 336.018 113.313Z" fill="white"/>
<rect x="327.07" y="149.022" width="18.279" height="19.3798" rx="5.51933" fill="#C54600"/>
<path d="M336.018 164.173C335.565 164.166 335.112 164.08 334.66 163.915C334.207 163.749 333.794 163.471 333.42 163.079C333.046 162.684 332.746 162.15 332.52 161.478C332.293 160.803 332.18 159.955 332.18 158.934C332.18 157.957 332.272 157.091 332.455 156.336C332.638 155.578 332.904 154.94 333.253 154.423C333.601 153.902 334.022 153.507 334.514 153.237C335.01 152.968 335.569 152.833 336.19 152.833C336.808 152.833 337.358 152.957 337.84 153.205C338.325 153.449 338.72 153.791 339.025 154.229C339.331 154.667 339.528 155.172 339.618 155.743H338.303C338.181 155.248 337.944 154.836 337.592 154.509C337.24 154.182 336.772 154.019 336.19 154.019C335.335 154.019 334.661 154.391 334.169 155.134C333.68 155.878 333.434 156.922 333.431 158.266H333.517C333.718 157.961 333.957 157.7 334.234 157.484C334.514 157.265 334.823 157.096 335.161 156.978C335.499 156.859 335.856 156.8 336.233 156.8C336.866 156.8 337.444 156.958 337.969 157.274C338.494 157.587 338.914 158.02 339.23 158.573C339.546 159.123 339.705 159.754 339.705 160.465C339.705 161.148 339.552 161.773 339.246 162.341C338.941 162.905 338.512 163.354 337.958 163.688C337.408 164.019 336.762 164.181 336.018 164.173ZM336.018 162.988C336.471 162.988 336.877 162.874 337.236 162.648C337.599 162.422 337.885 162.118 338.093 161.737C338.305 161.356 338.411 160.932 338.411 160.465C338.411 160.009 338.309 159.594 338.104 159.22C337.903 158.843 337.624 158.543 337.268 158.32C336.916 158.097 336.514 157.986 336.061 157.986C335.72 157.986 335.402 158.054 335.107 158.191C334.812 158.323 334.554 158.507 334.331 158.74C334.112 158.974 333.939 159.242 333.813 159.543C333.688 159.842 333.625 160.156 333.625 160.487C333.625 160.925 333.727 161.335 333.932 161.716C334.14 162.096 334.424 162.404 334.784 162.637C335.146 162.871 335.558 162.988 336.018 162.988Z" fill="white"/>
<rect x="31.7354" y="68.6514" width="25.279" height="19.3798" rx="5.51933" fill="#007D00"/>
<path d="M40.8985 72.6127V83.6514H39.5617V74.0141H39.4971L36.8021 75.8036V74.4453L39.5617 72.6127H40.8985ZM44.0731 83.6514V82.6812L47.7168 78.6926C48.1444 78.2255 48.4965 77.8194 48.7732 77.4745C49.0499 77.1259 49.2547 76.7989 49.3877 76.4935C49.5242 76.1845 49.5925 75.8611 49.5925 75.5233C49.5925 75.1352 49.499 74.7992 49.3122 74.5154C49.1289 74.2315 48.8774 74.0123 48.5576 73.8578C48.2378 73.7033 47.8785 73.626 47.4796 73.626C47.0556 73.626 46.6855 73.7141 46.3693 73.8901C46.0567 74.0626 45.8141 74.3052 45.6416 74.6178C45.4727 74.9304 45.3883 75.2969 45.3883 75.7173H44.1163C44.1163 75.0705 44.2654 74.5028 44.5636 74.0141C44.8619 73.5254 45.2679 73.1445 45.7818 72.8714C46.2992 72.5983 46.8795 72.4618 47.5227 72.4618C48.1695 72.4618 48.7427 72.5983 49.2421 72.8714C49.7416 73.1445 50.1333 73.5128 50.4171 73.9764C50.701 74.4399 50.8429 74.9556 50.8429 75.5233C50.8429 75.9293 50.7693 76.3264 50.622 76.7145C50.4782 77.099 50.2267 77.5284 49.8674 78.0027C49.5116 78.4734 49.0175 79.0483 48.3851 79.7275L45.9057 82.3793V82.4656H51.037V83.6514H44.0731Z" fill="white"/>
<rect y="86.5889" width="25.279" height="19.3798" rx="5.51933" fill="#007D00"/>
<path d="M9.1631 90.5502V101.589H7.82639V91.9516H7.76171L5.06672 93.7411V92.3828L7.82639 90.5502H9.1631ZM12.0791 99.3251V98.2255L16.93 90.5502H17.7278V92.2534H17.1888L13.5236 98.053V98.1393H20.0562V99.3251H12.0791ZM17.275 101.589V98.9909V98.4789V90.5502H18.547V101.589H17.275Z" fill="white"/>
<rect y="121.085" width="25.279" height="19.3798" rx="5.51933" fill="#007D00"/>
<path d="M9.1631 125.046V136.085H7.82639V126.448H7.76171L5.06672 128.237V126.879L7.82639 125.046H9.1631ZM12.0791 133.821V132.722L16.93 125.046H17.7278V126.75H17.1888L13.5236 132.549V132.635H20.0562V133.821H12.0791ZM17.275 136.085V133.487V132.975V125.046H18.547V136.085H17.275Z" fill="white"/>
<rect x="220.133" y="68.6514" width="18.279" height="19.3798" rx="5.51933" fill="#007D00"/>
<path d="M228.951 83.8023C228.211 83.8023 227.557 83.6711 226.989 83.4088C226.425 83.1429 225.985 82.7782 225.668 82.3147C225.352 81.8475 225.196 81.3157 225.2 80.7192C225.196 80.2521 225.288 79.8209 225.474 79.4256C225.661 79.0268 225.916 78.6944 226.24 78.4285C226.567 78.159 226.932 77.9883 227.334 77.9164V77.8518C226.806 77.7152 226.385 77.4188 226.073 76.9624C225.76 76.5025 225.606 75.9796 225.609 75.3939C225.606 74.8334 225.748 74.3321 226.035 73.8901C226.322 73.4482 226.718 73.0996 227.221 72.8445C227.727 72.5894 228.304 72.4618 228.951 72.4618C229.591 72.4618 230.162 72.5894 230.665 72.8445C231.168 73.0996 231.563 73.4482 231.851 73.8901C232.142 74.3321 232.289 74.8334 232.293 75.3939C232.289 75.9796 232.129 76.5025 231.813 76.9624C231.5 77.4188 231.085 77.7152 230.568 77.8518V77.9164C230.967 77.9883 231.326 78.159 231.646 78.4285C231.966 78.6944 232.221 79.0268 232.411 79.4256C232.602 79.8209 232.699 80.2521 232.702 80.7192C232.699 81.3157 232.537 81.8475 232.217 82.3147C231.901 82.7782 231.461 83.1429 230.897 83.4088C230.336 83.6711 229.688 83.8023 228.951 83.8023ZM228.951 82.6165C229.45 82.6165 229.882 82.5356 230.245 82.3739C230.607 82.2122 230.888 81.9841 231.085 81.6894C231.283 81.3948 231.384 81.0498 231.387 80.6545C231.384 80.2377 231.276 79.8694 231.064 79.5496C230.852 79.2298 230.563 78.9783 230.196 78.795C229.833 78.6117 229.418 78.5201 228.951 78.5201C228.48 78.5201 228.06 78.6117 227.69 78.795C227.323 78.9783 227.034 79.2298 226.822 79.5496C226.614 79.8694 226.511 80.2377 226.515 80.6545C226.511 81.0498 226.606 81.3948 226.8 81.6894C226.998 81.9841 227.28 82.2122 227.647 82.3739C228.013 82.5356 228.448 82.6165 228.951 82.6165ZM228.951 77.3774C229.346 77.3774 229.697 77.2984 230.002 77.1403C230.311 76.9822 230.554 76.7612 230.73 76.4773C230.906 76.1934 230.996 75.8611 230.999 75.4802C230.996 75.1065 230.908 74.7813 230.735 74.5046C230.563 74.2243 230.324 74.0087 230.018 73.8578C229.713 73.7033 229.357 73.626 228.951 73.626C228.538 73.626 228.177 73.7033 227.868 73.8578C227.559 74.0087 227.32 74.2243 227.151 74.5046C226.982 74.7813 226.899 75.1065 226.903 75.4802C226.899 75.8611 226.984 76.1934 227.156 76.4773C227.332 76.7612 227.575 76.9822 227.884 77.1403C228.193 77.2984 228.549 77.3774 228.951 77.3774Z" fill="white"/>
<rect x="327.07" width="18.279" height="19.3798" rx="5.51933" fill="#007D00"/>
<path d="M335.888 15.1509C335.148 15.1509 334.494 15.0198 333.927 14.7575C333.362 14.4915 332.922 14.1268 332.606 13.6633C332.29 13.1962 332.133 12.6643 332.137 12.0679C332.133 11.6007 332.225 11.1695 332.412 10.7743C332.599 10.3754 332.854 10.043 333.177 9.77712C333.504 9.50762 333.869 9.33694 334.271 9.26507V9.20039C333.743 9.06385 333.323 8.7674 333.01 8.31105C332.698 7.8511 332.543 7.32828 332.547 6.74257C332.543 6.18201 332.685 5.68074 332.972 5.23877C333.26 4.79679 333.655 4.44824 334.158 4.19311C334.665 3.93799 335.242 3.81043 335.888 3.81043C336.528 3.81043 337.099 3.93799 337.602 4.19311C338.106 4.44824 338.501 4.79679 338.788 5.23877C339.079 5.68074 339.227 6.18201 339.23 6.74257C339.227 7.32828 339.067 7.8511 338.751 8.31105C338.438 8.7674 338.023 9.06385 337.505 9.20039V9.26507C337.904 9.33694 338.264 9.50762 338.583 9.77712C338.903 10.043 339.158 10.3754 339.349 10.7743C339.539 11.1695 339.636 11.6007 339.64 12.0679C339.636 12.6643 339.475 13.1962 339.155 13.6633C338.839 14.1268 338.398 14.4915 337.834 14.7575C337.274 15.0198 336.625 15.1509 335.888 15.1509ZM335.888 13.9651C336.388 13.9651 336.819 13.8843 337.182 13.7226C337.545 13.5609 337.825 13.3327 338.023 13.0381C338.221 12.7434 338.321 12.3984 338.325 12.0032C338.321 11.5864 338.213 11.218 338.001 10.8982C337.789 10.5784 337.5 10.3269 337.134 10.1436C336.771 9.96038 336.356 9.86875 335.888 9.86875C335.418 9.86875 334.997 9.96038 334.627 10.1436C334.261 10.3269 333.971 10.5784 333.759 10.8982C333.551 11.218 333.449 11.5864 333.452 12.0032C333.449 12.3984 333.544 12.7434 333.738 13.0381C333.935 13.3327 334.218 13.5609 334.584 13.7226C334.951 13.8843 335.385 13.9651 335.888 13.9651ZM335.888 8.72608C336.284 8.72608 336.634 8.64702 336.939 8.48892C337.249 8.33081 337.491 8.10982 337.667 7.82595C337.843 7.54208 337.933 7.2097 337.937 6.82881C337.933 6.4551 337.845 6.12991 337.673 5.85322C337.5 5.57294 337.261 5.35735 336.956 5.20643C336.65 5.05191 336.294 4.97466 335.888 4.97466C335.475 4.97466 335.114 5.05191 334.805 5.20643C334.496 5.35735 334.257 5.57294 334.088 5.85322C333.919 6.12991 333.837 6.4551 333.84 6.82881C333.837 7.2097 333.921 7.54208 334.094 7.82595C334.27 8.10982 334.512 8.33081 334.821 8.48892C335.13 8.64702 335.486 8.72608 335.888 8.72608Z" fill="white"/>
<rect x="327.07" y="197.316" width="18.279" height="19.3798" rx="5.51933" fill="#007D00"/>
<path d="M335.888 212.467C335.148 212.467 334.494 212.336 333.927 212.074C333.362 211.808 332.922 211.443 332.606 210.98C332.29 210.513 332.133 209.981 332.137 209.384C332.133 208.917 332.225 208.486 332.412 208.091C332.599 207.692 332.854 207.359 333.177 207.094C333.504 206.824 333.869 206.653 334.271 206.581V206.517C333.743 206.38 333.323 206.084 333.01 205.627C332.698 205.168 332.543 204.645 332.547 204.059C332.543 203.498 332.685 202.997 332.972 202.555C333.26 202.113 333.655 201.765 334.158 201.51C334.665 201.254 335.242 201.127 335.888 201.127C336.528 201.127 337.099 201.254 337.602 201.51C338.106 201.765 338.501 202.113 338.788 202.555C339.079 202.997 339.227 203.498 339.23 204.059C339.227 204.645 339.067 205.168 338.751 205.627C338.438 206.084 338.023 206.38 337.505 206.517V206.581C337.904 206.653 338.264 206.824 338.583 207.094C338.903 207.359 339.158 207.692 339.349 208.091C339.539 208.486 339.636 208.917 339.64 209.384C339.636 209.981 339.475 210.513 339.155 210.98C338.839 211.443 338.398 211.808 337.834 212.074C337.274 212.336 336.625 212.467 335.888 212.467ZM335.888 211.282C336.388 211.282 336.819 211.201 337.182 211.039C337.545 210.877 337.825 210.649 338.023 210.354C338.221 210.06 338.321 209.715 338.325 209.32C338.321 208.903 338.213 208.534 338.001 208.215C337.789 207.895 337.5 207.643 337.134 207.46C336.771 207.277 336.356 207.185 335.888 207.185C335.418 207.185 334.997 207.277 334.627 207.46C334.261 207.643 333.971 207.895 333.759 208.215C333.551 208.534 333.449 208.903 333.452 209.32C333.449 209.715 333.544 210.06 333.738 210.354C333.935 210.649 334.218 210.877 334.584 211.039C334.951 211.201 335.385 211.282 335.888 211.282ZM335.888 206.042C336.284 206.042 336.634 205.963 336.939 205.805C337.249 205.647 337.491 205.426 337.667 205.142C337.843 204.858 337.933 204.526 337.937 204.145C337.933 203.772 337.845 203.446 337.673 203.17C337.5 202.889 337.261 202.674 336.956 202.523C336.65 202.368 336.294 202.291 335.888 202.291C335.475 202.291 335.114 202.368 334.805 202.523C334.496 202.674 334.257 202.889 334.088 203.17C333.919 203.446 333.837 203.772 333.84 204.145C333.837 204.526 333.921 204.858 334.094 205.142C334.27 205.426 334.512 205.647 334.821 205.805C335.13 205.963 335.486 206.042 335.888 206.042Z" fill="white"/>
<rect x="556.122" y="212.494" width="18.279" height="19.3798" rx="5.51933" fill="#007D00"/>
<path d="M564.94 227.645C564.2 227.645 563.546 227.514 562.978 227.252C562.414 226.986 561.974 226.621 561.658 226.157C561.342 225.69 561.185 225.158 561.189 224.562C561.185 224.095 561.277 223.664 561.464 223.268C561.651 222.87 561.906 222.537 562.229 222.271C562.556 222.002 562.921 221.831 563.323 221.759V221.695C562.795 221.558 562.375 221.262 562.062 220.805C561.749 220.345 561.595 219.822 561.598 219.237C561.595 218.676 561.737 218.175 562.024 217.733C562.312 217.291 562.707 216.942 563.21 216.687C563.717 216.432 564.293 216.305 564.94 216.305C565.58 216.305 566.151 216.432 566.654 216.687C567.157 216.942 567.553 217.291 567.84 217.733C568.131 218.175 568.278 218.676 568.282 219.237C568.278 219.822 568.118 220.345 567.802 220.805C567.49 221.262 567.075 221.558 566.557 221.695V221.759C566.956 221.831 567.315 222.002 567.635 222.271C567.955 222.537 568.21 222.87 568.401 223.268C568.591 223.664 568.688 224.095 568.692 224.562C568.688 225.158 568.526 225.69 568.207 226.157C567.89 226.621 567.45 226.986 566.886 227.252C566.325 227.514 565.677 227.645 564.94 227.645ZM564.94 226.459C565.44 226.459 565.871 226.378 566.234 226.217C566.597 226.055 566.877 225.827 567.075 225.532C567.272 225.238 567.373 224.893 567.376 224.497C567.373 224.08 567.265 223.712 567.053 223.392C566.841 223.073 566.552 222.821 566.185 222.638C565.822 222.455 565.407 222.363 564.94 222.363C564.469 222.363 564.049 222.455 563.679 222.638C563.312 222.821 563.023 223.073 562.811 223.392C562.603 223.712 562.5 224.08 562.504 224.497C562.5 224.893 562.596 225.238 562.79 225.532C562.987 225.827 563.269 226.055 563.636 226.217C564.002 226.378 564.437 226.459 564.94 226.459ZM564.94 221.22C565.335 221.22 565.686 221.141 565.991 220.983C566.3 220.825 566.543 220.604 566.719 220.32C566.895 220.036 566.985 219.704 566.988 219.323C566.985 218.949 566.897 218.624 566.724 218.347C566.552 218.067 566.313 217.851 566.007 217.701C565.702 217.546 565.346 217.469 564.94 217.469C564.527 217.469 564.166 217.546 563.857 217.701C563.548 217.851 563.309 218.067 563.14 218.347C562.971 218.624 562.888 218.949 562.892 219.323C562.888 219.704 562.973 220.036 563.145 220.32C563.321 220.604 563.564 220.825 563.873 220.983C564.182 221.141 564.538 221.22 564.94 221.22Z" fill="white"/>
<defs>
<filter id="filter0_dd_1099_71598" x="344.86" y="1.99819" width="237.055" height="232.915" filterUnits="userSpaceOnUse" color-interpolation-filters="sRGB">
<feFlood flood-opacity="0" result="BackgroundImageFix"/>
<feColorMatrix in="SourceAlpha" type="matrix" values="0 0 0 0 0 0 0 0 0 0 0 0 0 0 0 0 0 0 127 0" result="hardAlpha"/>
<feOffset/>
<feGaussianBlur stdDeviation="3.2426"/>
<feComposite in2="hardAlpha" operator="out"/>
<feColorMatrix type="matrix" values="0 0 0 0 0 0 0 0 0 0 0 0 0 0 0 0 0 0 0.12 0"/>
<feBlend mode="normal" in2="BackgroundImageFix" result="effect1_dropShadow_1099_71598"/>
<feColorMatrix in="SourceAlpha" type="matrix" values="0 0 0 0 0 0 0 0 0 0 0 0 0 0 0 0 0 0 127 0" result="hardAlpha"/>
<feOffset dy="6.48521"/>
<feGaussianBlur stdDeviation="6.48521"/>
<feComposite in2="hardAlpha" operator="out"/>
<feColorMatrix type="matrix" values="0 0 0 0 0 0 0 0 0 0 0 0 0 0 0 0 0 0 0.12 0"/>
<feBlend mode="normal" in2="effect1_dropShadow_1099_71598" result="effect2_dropShadow_1099_71598"/>
<feBlend mode="normal" in="SourceGraphic" in2="effect2_dropShadow_1099_71598" result="shape"/>
</filter>
</defs>
</svg>
