<svg width="449" height="49" viewBox="0 0 449 49" fill="none" xmlns="http://www.w3.org/2000/svg">
<g clip-path="url(#clip0_1101_59862)">
<mask id="path-1-outside-1_1101_59862" maskUnits="userSpaceOnUse" x="0" y="0" width="449" height="49" fill="black">
<rect fill="white" width="449" height="49"/>
<path d="M0 0H449V48H0V0Z"/>
</mask>
<mask id="path-3-inside-2_1101_59862" fill="white">
<path d="M0 0H124V48H0V0Z"/>
</mask>
<path d="M0 0H124V48H0V0Z" fill="white"/>
<path d="M124 48V46.5H0V48V49.5H124V48Z" fill="#111111" mask="url(#path-3-inside-2_1101_59862)"/>
<path d="M24.2619 17.76H26.2779V18.96C26.2779 20.88 27.2539 22.656 29.5099 23.376L28.4699 24.928C26.9659 24.4 25.9259 23.408 25.3179 22.144C24.6779 23.616 23.5259 24.784 21.8299 25.36L20.7899 23.76C23.2059 22.976 24.2619 21.056 24.2619 19.056V17.76ZM23.1259 28.544C23.1259 26.816 25.0139 25.776 28.0379 25.776C31.0619 25.776 32.9339 26.816 32.9339 28.544C32.9339 30.32 31.0619 31.344 28.0379 31.344C25.0139 31.344 23.1259 30.32 23.1259 28.544ZM25.1259 28.544C25.1259 29.392 26.1339 29.824 28.0379 29.824C29.9259 29.824 30.9659 29.392 30.9659 28.544C30.9659 27.728 29.9259 27.312 28.0379 27.312C26.1339 27.312 25.1259 27.728 25.1259 28.544ZM28.2139 21.264V19.648H30.8859V17.008H32.8859V25.408H30.8859V21.264H28.2139ZM44.6563 17.008H46.6563V27.328H44.6563V17.008ZM34.9603 21.552C34.9603 19.424 36.6723 17.92 38.8483 17.92C41.0403 17.92 42.7363 19.424 42.7363 21.552C42.7363 23.648 41.0403 25.184 38.8483 25.184C36.6723 25.184 34.9603 23.648 34.9603 21.552ZM36.8963 21.552C36.8963 22.72 37.7603 23.456 38.8483 23.456C39.9523 23.456 40.8003 22.72 40.8003 21.552C40.8003 20.352 39.9523 19.632 38.8483 19.632C37.7603 19.632 36.8963 20.352 36.8963 21.552ZM37.1363 31.072V26.288H39.1043V29.488H47.0083V31.072H37.1363ZM48.5866 23.824H51.5306V22.08C50.4746 21.616 49.8826 20.896 49.8826 19.968C49.8826 18.256 51.9146 17.216 55.0666 17.216C58.2346 17.216 60.2506 18.256 60.2506 19.968C60.2506 20.912 59.6426 21.632 58.5706 22.096V23.824H61.5466V25.392H48.5866V23.824ZM50.0746 28.736C50.0746 27.104 51.9466 26.16 55.0346 26.16C58.1386 26.16 60.0106 27.104 60.0106 28.736C60.0106 30.416 58.1386 31.344 55.0346 31.344C51.9466 31.344 50.0746 30.416 50.0746 28.736ZM51.9306 19.968C51.9306 20.784 53.0666 21.2 55.0666 21.2C57.0506 21.2 58.2026 20.784 58.2026 19.968C58.2026 19.152 57.0506 18.72 55.0666 18.72C53.0666 18.72 51.9306 19.152 51.9306 19.968ZM52.0746 28.736C52.0746 29.488 53.0826 29.856 55.0346 29.856C57.0026 29.856 58.0106 29.488 58.0106 28.736C58.0106 28 57.0026 27.648 55.0346 27.648C53.0826 27.648 52.0746 28 52.0746 28.736ZM53.4986 23.824H56.6026V22.592C56.1226 22.656 55.6106 22.688 55.0666 22.688C54.5066 22.688 53.9786 22.656 53.4986 22.592V23.824ZM62.437 28.032H67.909V25.36H63.813V17.904H65.781V20.144H72.021V17.904H73.989V25.36H69.893V28.032H75.413V29.648H62.437V28.032ZM65.781 23.776H72.021V21.712H65.781V23.776ZM86.5754 17.008H88.4474V26H86.5754V22.176H85.4394V25.504H83.5834V17.28H85.4394V20.576H86.5754V17.008ZM76.1754 20.032V18.496H78.7034V17.152H80.6554V18.496H83.1674V20.032H76.1754ZM76.6074 23.008C76.6074 21.536 77.9034 20.512 79.6794 20.512C81.4874 20.512 82.7834 21.536 82.7834 23.008C82.7834 24.496 81.4874 25.504 79.6794 25.504C77.9034 25.504 76.6074 24.496 76.6074 23.008ZM78.3514 23.008C78.3514 23.696 78.9114 24.096 79.6794 24.096C80.4634 24.096 81.0234 23.696 81.0234 23.008C81.0234 22.32 80.4634 21.936 79.6794 21.936C78.9114 21.936 78.3514 22.32 78.3514 23.008ZM78.6874 28.752C78.6874 27.088 80.5434 26.144 83.6154 26.144C86.6874 26.144 88.5274 27.088 88.5274 28.752C88.5274 30.4 86.6874 31.344 83.6154 31.344C80.5434 31.344 78.6874 30.4 78.6874 28.752ZM80.6714 28.752C80.6714 29.504 81.6794 29.856 83.6154 29.856C85.5514 29.856 86.5434 29.504 86.5434 28.752C86.5434 27.968 85.5514 27.632 83.6154 27.632C81.6794 27.632 80.6714 27.968 80.6714 28.752ZM100.026 16.992H102.01V31.328H100.026V16.992ZM90.1378 27.312C93.8177 25.568 95.4178 23.264 95.7218 20.064H90.8738V18.48H97.7538C97.7538 22.848 96.2338 26.432 91.1618 28.88L90.1378 27.312Z" fill="#1A1A1A"/>
<rect width="82" height="48" transform="translate(124)" fill="white"/>
<path d="M145.245 18.608H153.069V19.616H149.741V21.504C149.741 23.888 151.501 26.288 153.517 27.168L152.829 28.128C151.229 27.376 149.805 25.744 149.149 23.808C148.509 25.872 147.101 27.664 145.501 28.464L144.813 27.52C146.781 26.56 148.541 23.92 148.541 21.504V19.616H145.245V18.608ZM155.021 31.168V17.168H156.221V31.168H155.021ZM159.08 18.384H166.584V19.376H165.144V23.504C165.864 23.456 166.584 23.392 167.256 23.296L167.336 24.192C164.504 24.672 161.224 24.72 158.856 24.72L158.712 23.696C159.272 23.696 159.864 23.696 160.504 23.68V19.376H159.08V18.384ZM160.456 28.592C160.456 26.992 162.2 26.064 165.032 26.064C167.896 26.064 169.624 26.992 169.624 28.592C169.624 30.208 167.896 31.136 165.032 31.136C162.2 31.136 160.456 30.208 160.456 28.592ZM161.64 28.592C161.64 29.584 162.92 30.192 165.032 30.192C167.16 30.192 168.456 29.584 168.456 28.592C168.456 27.616 167.16 27.024 165.032 27.024C162.92 27.024 161.64 27.616 161.64 28.592ZM161.672 23.664C162.424 23.648 163.208 23.632 163.992 23.584V19.376H161.672V23.664ZM168.296 25.76V17.168H169.496V20.816H171.592V21.824H169.496V25.76H168.296ZM182.706 17.152H183.906V31.184H182.706V17.152ZM172.994 23.12C172.994 20.144 174.466 18.256 176.546 18.256C178.61 18.256 180.082 20.144 180.082 23.12C180.082 26.096 178.61 28 176.546 28C174.466 28 172.994 26.096 172.994 23.12ZM174.162 23.12C174.162 25.408 175.138 26.928 176.546 26.928C177.938 26.928 178.93 25.408 178.93 23.12C178.93 20.832 177.938 19.328 176.546 19.328C175.138 19.328 174.162 20.832 174.162 23.12Z" fill="#1A1A1A"/>
<rect width="110" height="48" transform="translate(206)" fill="white"/>
<path d="M236.627 17.152H237.827V21.44H239.923V22.432H237.827V27.488H236.627V17.152ZM227.267 21.6C227.267 19.568 228.819 18.16 230.899 18.16C232.979 18.16 234.531 19.568 234.531 21.6C234.531 23.616 232.979 25.04 230.899 25.04C228.819 25.04 227.267 23.616 227.267 21.6ZM228.435 21.6C228.435 22.992 229.491 23.984 230.899 23.984C232.307 23.984 233.379 22.992 233.379 21.6C233.379 20.208 232.307 19.2 230.899 19.2C229.491 19.2 228.435 20.208 228.435 21.6ZM229.155 30.848V26.432H230.339V29.856H238.483V30.848H229.155ZM248.221 21.056H251.101V17.184H252.301V27.424H251.101V22.048H248.221V21.056ZM240.861 24.672C242.909 23.936 244.413 22.08 244.413 20.064V19.312H241.245V18.32H248.717V19.312H245.613V20.048C245.613 21.872 247.037 23.648 249.037 24.352L248.429 25.296C246.861 24.72 245.629 23.536 245.037 22.08C244.445 23.696 243.149 25.008 241.485 25.632L240.861 24.672ZM243.389 30.848V26.528H244.589V29.856H252.701V30.848H243.389ZM256.296 26.848H257.496V29.856H265.896V30.848H256.296V26.848ZM254.648 25.696V24.72H260.376V22.304H261.56V24.72H267.336V25.696H254.648ZM255.496 22.256C257.896 21.84 260.376 20.176 260.376 18.176V17.536H261.576V18.176C261.576 20.176 264.056 21.856 266.44 22.256L265.96 23.2C263.896 22.8 261.848 21.6 260.984 19.904C260.12 21.6 258.056 22.8 255.976 23.2L255.496 22.256ZM268.802 18.112H276.29V19.088H273.154V19.616C273.154 21.44 274.546 23.088 276.578 23.744L276.018 24.688C274.402 24.144 273.17 23.024 272.578 21.6C271.986 23.184 270.69 24.4 269.026 24.992L268.418 24.032C270.498 23.328 271.97 21.616 271.97 19.632V19.088H268.802V18.112ZM270.546 30.976V25.504H271.73V27.248H278.146V25.504H279.33V30.976H270.546ZM271.73 30H278.146V28.208H271.73V30ZM278.13 24.832V17.168H279.33V20.416H281.426V21.44H279.33V24.832H278.13ZM292.541 17.152H293.741V31.184H292.541V17.152ZM282.829 23.12C282.829 20.144 284.301 18.256 286.381 18.256C288.445 18.256 289.917 20.144 289.917 23.12C289.917 26.096 288.445 28 286.381 28C284.301 28 282.829 26.096 282.829 23.12ZM283.997 23.12C283.997 25.408 284.973 26.928 286.381 26.928C287.773 26.928 288.765 25.408 288.765 23.12C288.765 20.832 287.773 19.328 286.381 19.328C284.973 19.328 283.997 20.832 283.997 23.12Z" fill="#1A1A1A"/>
<rect width="141" height="48" transform="translate(316)" fill="white"/>
<path d="M337.676 18.544H344.076V27.632H337.676V18.544ZM338.86 26.656H342.924V19.52H338.86V26.656ZM347.1 31.184V17.152H348.3V31.184H347.1ZM351.702 18.752H356.278V19.264C356.278 20.448 356.294 22.768 355.35 26.512L354.134 26.32C354.998 23.264 355.094 21.04 355.11 19.728H351.702V18.752ZM350.71 29.056V28.048H363.35V29.056H350.71ZM357.302 19.728V18.752H361.91V19.808C361.91 21.328 361.91 23.392 361.286 26.512L360.086 26.368C360.71 23.408 360.71 21.312 360.71 19.808V19.728H357.302ZM366.929 26.176H376.033V30.976H366.929V26.176ZM365.089 18.864V17.888H371.297V21.744H366.321V23.824C368.609 23.824 370.353 23.76 372.449 23.408L372.545 24.4C370.353 24.752 368.577 24.816 366.177 24.816H365.137V20.816H370.113V18.864H365.089ZM368.097 30H374.849V27.136H368.097V30ZM372.177 21.312V20.336H374.833V17.184H376.033V25.392H374.833V21.312H372.177ZM384.795 25.968C387.643 25.968 389.387 26.928 389.387 28.56C389.387 30.208 387.643 31.152 384.795 31.152C381.947 31.152 380.203 30.208 380.203 28.56C380.203 26.928 381.947 25.968 384.795 25.968ZM379.003 24.496V18.048H380.187V20.192H384.267V18.048H385.451V24.496H379.003ZM380.187 23.52H384.267V21.152H380.187V23.52ZM381.371 28.56C381.371 29.584 382.683 30.192 384.795 30.192C386.891 30.192 388.187 29.584 388.187 28.56C388.187 27.552 386.891 26.944 384.795 26.944C382.683 26.944 381.371 27.552 381.371 28.56ZM388.043 25.6V17.168H389.243V20.72H391.323V21.728H389.243V25.6H388.043ZM392.645 18.608H400.469V19.616H397.141V21.504C397.141 23.888 398.901 26.288 400.917 27.168L400.229 28.128C398.629 27.376 397.205 25.744 396.549 23.808C395.909 25.872 394.501 27.664 392.901 28.464L392.213 27.52C394.181 26.56 395.941 23.92 395.941 21.504V19.616H392.645V18.608ZM402.421 31.168V17.168H403.621V31.168H402.421ZM413.505 18C415.601 18 417.137 19.344 417.137 21.296C417.137 23.248 415.601 24.576 413.505 24.576C411.393 24.576 409.873 23.248 409.873 21.296C409.873 19.344 411.393 18 413.505 18ZM411.041 21.296C411.041 22.64 412.081 23.568 413.505 23.568C414.929 23.568 415.985 22.64 415.985 21.296C415.985 19.952 414.929 19.024 413.505 19.024C412.081 19.024 411.041 19.952 411.041 21.296ZM411.409 28.528C411.409 26.88 413.153 25.92 416.001 25.92C418.833 25.92 420.577 26.88 420.577 28.528C420.577 30.176 418.833 31.136 416.001 31.136C413.153 31.136 411.409 30.176 411.409 28.528ZM412.577 28.528C412.577 29.552 413.889 30.176 416.001 30.176C418.097 30.176 419.393 29.552 419.393 28.528C419.393 27.504 418.097 26.896 416.001 26.896C413.889 26.896 412.577 27.504 412.577 28.528ZM419.233 25.472V17.168H420.433V19.296H422.497V20.304H420.433V22.272H422.497V23.28H420.433V25.472H419.233ZM433.084 17.168H434.284V20.224H436.364V21.216H434.284V24.304H433.084V17.168ZM424.044 23.552V17.968H430.444V23.552H424.044ZM425.212 22.592H429.276V18.928H425.212V22.592ZM425.436 25.936V24.976H434.284V28.368H426.652V30H434.796V30.976H425.468V27.456H433.1V25.936H425.436Z" fill="#1A1A1A"/>
</g>
<path d="M449 48V47H0V48V49H449V48Z" fill="#EEEEEE" mask="url(#path-1-outside-1_1101_59862)"/>
<defs>
<clipPath id="clip0_1101_59862">
<path d="M0 0H449V48H0V0Z" fill="white"/>
</clipPath>
</defs>
</svg>
