<svg width="758" height="256" viewBox="0 0 758 256" fill="none" xmlns="http://www.w3.org/2000/svg">
<g filter="url(#filter0_dd_1303_48688)">
<rect x="16" y="8" width="335" height="352" rx="8" fill="#FAFAFA" shape-rendering="crispEdges"/>
<mask id="path-2-inside-1_1303_48688" fill="white">
<path d="M36 28H331V64H36V28Z"/>
</mask>
<path d="M331 64V63H36V64V65H331V64Z" fill="#E0E0E0" mask="url(#path-2-inside-1_1303_48688)"/>
<path d="M43.824 35.76H46.928V33.168H48.128V40.4H46.928V36.752H43.824V35.76ZM36.64 39.472C38.72 38.768 40.16 37.008 40.16 34.944V33.6H41.328V34.944C41.328 36.784 42.8 38.496 44.784 39.168L44.16 40.096C42.624 39.536 41.392 38.416 40.768 37.008C40.192 38.592 38.912 39.824 37.28 40.416L36.64 39.472ZM39.152 42.096V41.136H48.128V44.448H40.352V46.016H48.656V46.976H39.168V43.536H46.944V42.096H39.152ZM60.7144 33.168H61.9304V40.848H60.7144V33.168ZM51.1624 34.832V33.856H57.4984V37.6H52.3624V39.552C54.8584 39.552 56.7304 39.472 58.9704 39.104L59.1144 40.096C56.7944 40.48 54.8904 40.544 52.3144 40.544H51.1944V36.656H56.3304V34.832H51.1624ZM52.9064 46.976V41.568H54.0904V43.264H60.7464V41.568H61.9304V46.976H52.9064ZM54.0904 45.984H60.7464V44.224H54.0904V45.984ZM65.9248 34.096H75.2848V35.312C75.2848 36.64 75.2848 38.08 74.8848 40.112H76.9648V41.12H71.2208V47.2H70.0048V41.12H64.3088V40.112H73.6688C74.1008 38.112 74.1008 36.624 74.1008 35.312V35.072H65.9248V34.096ZM78.1271 40.592H90.8151V41.568H85.1671V44.336H83.9511V41.568H78.1271V40.592ZM79.7591 46.864V43.056H80.9431V45.856H89.4071V46.864H79.7591ZM79.8391 39.2V33.6H81.0231V35.424H87.9351V33.6H89.1351V39.2H79.8391ZM81.0231 38.224H87.9351V36.368H81.0231V38.224Z" fill="#1A1A1A"/>
<path d="M248.916 34.608H256.74V35.616H253.412V37.504C253.412 39.888 255.172 42.288 257.188 43.168L256.5 44.128C254.9 43.376 253.476 41.744 252.82 39.808C252.18 41.872 250.772 43.664 249.172 44.464L248.484 43.52C250.452 42.56 252.212 39.92 252.212 37.504V35.616H248.916V34.608ZM258.692 47.168V33.168H259.892V47.168H258.692ZM268.734 41.968C271.582 41.968 273.326 42.928 273.326 44.56C273.326 46.208 271.582 47.152 268.734 47.152C265.886 47.152 264.142 46.208 264.142 44.56C264.142 42.928 265.886 41.968 268.734 41.968ZM262.942 40.496V34.048H264.126V36.192H268.206V34.048H269.39V40.496H262.942ZM264.126 39.52H268.206V37.152H264.126V39.52ZM265.31 44.56C265.31 45.584 266.622 46.192 268.734 46.192C270.83 46.192 272.126 45.584 272.126 44.56C272.126 43.552 270.83 42.944 268.734 42.944C266.622 42.944 265.31 43.552 265.31 44.56ZM271.982 41.6V33.168H273.182V36.72H275.262V37.728H273.182V41.6H271.982ZM276.425 34.608H283.961V35.616H280.825V37.504C280.825 39.728 282.457 42.224 284.457 43.168L283.769 44.128C282.201 43.344 280.873 41.68 280.249 39.808C279.609 41.84 278.201 43.648 276.649 44.464L275.945 43.52C277.897 42.544 279.657 39.888 279.657 37.504V35.616H276.425V34.608ZM285.689 47.168V33.168H286.889V38.864H289.209V39.872H286.889V47.168H285.689ZM300.211 33.168H301.427V47.168H300.211V33.168ZM290.259 43.536C292.307 42.576 293.907 40.208 293.907 37.712V36.576H290.643V35.616H293.891V33.408H295.107V35.616H298.323V36.576H295.091V37.712C295.091 40.096 296.739 42.368 298.803 43.264L298.115 44.208C296.531 43.472 295.171 41.952 294.531 40.064C293.907 42.048 292.547 43.664 290.947 44.448L290.259 43.536ZM313.485 33.152H314.685V37.36H316.781V38.352H314.685V43.296H313.485V33.152ZM304.509 40.816V34.368H310.669V35.376H305.693V39.808C308.493 39.808 310.093 39.728 311.949 39.344L312.093 40.32C310.141 40.704 308.493 40.816 305.581 40.816H304.509ZM306.013 46.848V42.288H307.197V45.856H315.325V46.848H306.013ZM323.352 38.72H325.56V33.504H326.68V46.432H325.56V39.712H323.352V38.72ZM317.544 43.36C319.432 42.256 320.552 39.792 320.552 37.488V36.768H317.912V35.776H320.552V33.664H321.704V35.776H324.312V36.768H321.704V37.488C321.704 39.728 322.856 42.048 324.728 43.072L324.04 43.968C322.664 43.2 321.656 41.744 321.144 40.048C320.648 41.856 319.64 43.44 318.248 44.288L317.544 43.36ZM328.36 47.168V33.168H329.512V47.168H328.36Z" fill="#1A1A1A"/>
<mask id="path-6-inside-2_1303_48688" fill="white">
<path d="M36 76H331V112H36V76Z"/>
</mask>
<path d="M331 112V111H36V112V113H331V112Z" fill="#E0E0E0" mask="url(#path-6-inside-2_1303_48688)"/>
<path d="M43.824 83.76H46.928V81.168H48.128V88.4H46.928V84.752H43.824V83.76ZM36.64 87.472C38.72 86.768 40.16 85.008 40.16 82.944V81.6H41.328V82.944C41.328 84.784 42.8 86.496 44.784 87.168L44.16 88.096C42.624 87.536 41.392 86.416 40.768 85.008C40.192 86.592 38.912 87.824 37.28 88.416L36.64 87.472ZM39.152 90.096V89.136H48.128V92.448H40.352V94.016H48.656V94.976H39.168V91.536H46.944V90.096H39.152ZM60.7144 81.168H61.9304V88.848H60.7144V81.168ZM51.1624 82.832V81.856H57.4984V85.6H52.3624V87.552C54.8584 87.552 56.7304 87.472 58.9704 87.104L59.1144 88.096C56.7944 88.48 54.8904 88.544 52.3144 88.544H51.1944V84.656H56.3304V82.832H51.1624ZM52.9064 94.976V89.568H54.0904V91.264H60.7464V89.568H61.9304V94.976H52.9064ZM54.0904 93.984H60.7464V92.224H54.0904V93.984ZM68.2288 81.696C70.3088 81.696 71.8448 82.96 71.8448 84.784C71.8448 86.608 70.3088 87.856 68.2288 87.856C66.1488 87.856 64.6288 86.608 64.6288 84.784C64.6288 82.96 66.1488 81.696 68.2288 81.696ZM65.7968 84.784C65.7968 86.016 66.8368 86.88 68.2288 86.88C69.6368 86.88 70.6768 86.016 70.6768 84.784C70.6768 83.552 69.6368 82.672 68.2288 82.672C66.8368 82.672 65.7968 83.552 65.7968 84.784ZM66.7408 90.016V89.056H75.7648V92.4H67.9408V94.016H76.2448V94.976H66.7888V91.504H74.5648V90.016H66.7408ZM74.5488 88.352V81.168H75.7648V88.352H74.5488ZM78.4151 82.608H85.9511V83.616H82.8151V85.504C82.8151 87.728 84.4471 90.224 86.4471 91.168L85.7591 92.128C84.1911 91.344 82.8631 89.68 82.2391 87.808C81.5991 89.84 80.1911 91.648 78.6391 92.464L77.9351 91.52C79.8871 90.544 81.6471 87.888 81.6471 85.504V83.616H78.4151V82.608ZM87.6791 95.168V81.168H88.8791V86.864H91.1991V87.872H88.8791V95.168H87.6791Z" fill="#1A1A1A"/>
<path d="M244.152 92.864C246.44 90.64 249.912 87.968 249.912 85.872C249.912 84.272 248.856 83.456 247.608 83.456C246.728 83.456 245.752 83.76 245.16 85.12L244.104 84.672C244.936 82.784 246.504 82.304 247.608 82.304C249.32 82.304 251.064 83.616 251.064 85.872C251.064 88.256 248.088 90.8 245.848 92.864H251.256V94.016H244.152V92.864ZM256.831 92.96C258.655 92.96 259.775 91.44 259.775 88.224C259.775 85.008 258.655 83.504 256.831 83.504C254.991 83.504 253.871 85.008 253.871 88.224C253.871 91.44 254.991 92.96 256.831 92.96ZM252.719 88.224C252.719 84.528 254.351 82.352 256.831 82.352C259.295 82.352 260.927 84.528 260.927 88.224C260.927 91.92 259.311 94.112 256.831 94.112C254.335 94.112 252.719 91.92 252.719 88.224ZM262.477 92.864C264.765 90.64 268.237 87.968 268.237 85.872C268.237 84.272 267.181 83.456 265.933 83.456C265.053 83.456 264.077 83.76 263.485 85.12L262.429 84.672C263.261 82.784 264.829 82.304 265.933 82.304C267.645 82.304 269.389 83.616 269.389 85.872C269.389 88.256 266.413 90.8 264.173 92.864H269.581V94.016H262.477V92.864ZM274.372 82.464V94H273.22V83.856L271.588 84.944L270.948 83.984L273.22 82.464H274.372ZM276.901 87.536H283.653V88.672H276.901V87.536ZM289.528 92.96C291.352 92.96 292.472 91.44 292.472 88.224C292.472 85.008 291.352 83.504 289.528 83.504C287.688 83.504 286.568 85.008 286.568 88.224C286.568 91.44 287.688 92.96 289.528 92.96ZM285.416 88.224C285.416 84.528 287.048 82.352 289.528 82.352C291.992 82.352 293.624 84.528 293.624 88.224C293.624 91.92 292.008 94.112 289.528 94.112C287.032 94.112 285.416 91.92 285.416 88.224ZM298.918 89.952C296.822 89.952 295.11 88.224 295.11 86.112C295.11 84.016 296.822 82.304 298.918 82.304C301.014 82.304 302.726 84.016 302.726 86.112C302.726 86.88 302.502 87.584 302.118 88.192L298.79 94H297.446L299.846 89.84C299.558 89.904 299.238 89.952 298.918 89.952ZM296.262 86.112C296.262 87.648 297.414 88.8 298.95 88.8C300.47 88.8 301.574 87.648 301.574 86.112C301.574 84.592 300.47 83.456 298.95 83.456C297.414 83.456 296.262 84.592 296.262 86.112ZM304.529 87.536H311.281V88.672H304.529V87.536ZM318.756 88.032C319.7 88.608 320.5 89.584 320.5 90.736C320.5 92.672 318.74 94.096 316.772 94.096C314.82 94.096 313.06 92.672 313.06 90.736H314.212C314.212 91.824 315.252 92.928 316.772 92.928C318.308 92.928 319.348 91.84 319.348 90.752C319.348 89.664 318.644 88.592 316.804 88.592H315.956V87.44H316.804C318.388 87.44 319.188 86.496 319.188 85.472C319.188 84.512 318.26 83.504 316.868 83.504C315.476 83.504 314.532 84.496 314.532 85.504H313.38C313.38 83.696 315.044 82.352 316.868 82.352C318.708 82.352 320.34 83.696 320.34 85.504C320.34 86.56 319.62 87.456 318.756 88.032ZM326.084 92.96C327.908 92.96 329.028 91.44 329.028 88.224C329.028 85.008 327.908 83.504 326.084 83.504C324.244 83.504 323.124 85.008 323.124 88.224C323.124 91.44 324.244 92.96 326.084 92.96ZM321.972 88.224C321.972 84.528 323.604 82.352 326.084 82.352C328.548 82.352 330.18 84.528 330.18 88.224C330.18 91.92 328.564 94.112 326.084 94.112C323.588 94.112 321.972 91.92 321.972 88.224Z" fill="#1A1A1A"/>
<mask id="path-10-inside-3_1303_48688" fill="white">
<path d="M36 124H331V160H36V124Z"/>
</mask>
<path d="M331 160V159H36V160V161H331V160Z" fill="#E0E0E0" mask="url(#path-10-inside-3_1303_48688)"/>
<path d="M36.976 130.208H44.464V131.2H41.328V131.808C41.328 133.664 42.704 135.312 44.736 136L44.16 136.928C42.576 136.384 41.36 135.28 40.768 133.856C40.176 135.472 38.88 136.752 37.216 137.344L36.608 136.4C38.688 135.664 40.144 133.856 40.144 131.824V131.2H36.976V130.208ZM38.464 140.56C38.464 138.944 40.208 138.016 43.04 138.016C45.888 138.016 47.632 138.944 47.632 140.56C47.632 142.192 45.888 143.136 43.04 143.136C40.208 143.136 38.464 142.192 38.464 140.56ZM39.632 140.56C39.632 141.584 40.944 142.192 43.04 142.192C45.152 142.192 46.448 141.584 46.448 140.56C46.448 139.568 45.152 138.976 43.04 138.976C40.944 138.976 39.632 139.568 39.632 140.56ZM46.288 137.616V129.168H47.488V132.768H49.584V133.76H47.488V137.616H46.288ZM50.9224 130.72H55.7384V135.552H52.1064V138.752C53.6264 138.752 55.0664 138.688 56.8104 138.384L56.9064 139.36C54.9864 139.696 53.4984 139.76 51.8344 139.76H50.9544V134.576H54.6024V131.696H50.9224V130.72ZM56.5544 137.312V136.32H58.4104V133.84H56.5544V132.832H58.4104V129.456H59.5464V142.432H58.4104V137.312H56.5544ZM61.1784 143.168V129.168H62.3304V143.168H61.1784ZM67.9728 129.84H69.1728V131.2C69.1728 133.248 70.6768 135.072 72.7088 135.808L72.1168 136.752C70.5168 136.144 69.2208 134.928 68.6128 133.36C68.0048 135.04 66.7088 136.368 65.0608 137.008L64.4368 136.048C66.5168 135.28 67.9728 133.328 67.9728 131.2V129.84ZM66.4208 139.312V138.32H75.7488V143.168H74.5488V139.312H66.4208ZM74.5488 137.6V129.168H75.7488V137.6H74.5488ZM78.4791 130.208H85.9671V131.2H82.8311V131.808C82.8311 133.664 84.2071 135.312 86.2391 136L85.6631 136.928C84.0791 136.384 82.8631 135.28 82.2711 133.856C81.6791 135.472 80.3831 136.752 78.7191 137.344L78.1111 136.4C80.1911 135.664 81.6471 133.856 81.6471 131.824V131.2H78.4791V130.208ZM79.9671 140.56C79.9671 138.944 81.7111 138.016 84.5431 138.016C87.3911 138.016 89.1351 138.944 89.1351 140.56C89.1351 142.192 87.3911 143.136 84.5431 143.136C81.7111 143.136 79.9671 142.192 79.9671 140.56ZM81.1351 140.56C81.1351 141.584 82.4471 142.192 84.5431 142.192C86.6551 142.192 87.9511 141.584 87.9511 140.56C87.9511 139.568 86.6551 138.976 84.5431 138.976C82.4471 138.976 81.1351 139.568 81.1351 140.56ZM87.7911 137.616V129.168H88.9911V132.768H91.0871V133.76H88.9911V137.616H87.7911Z" fill="#1A1A1A"/>
<path d="M305.437 137.392H306.573V139.168H309.133V137.392H310.253V142.976H305.437V137.392ZM304.061 133.008C304.061 131.088 305.549 129.792 307.645 129.792C309.533 129.792 310.957 130.848 311.197 132.48H314.125V129.168H315.325V136.576H314.125V133.472H311.213C310.989 135.12 309.549 136.224 307.645 136.224C305.549 136.224 304.061 134.912 304.061 133.008ZM305.213 133.008C305.213 134.304 306.221 135.232 307.645 135.232C309.069 135.232 310.093 134.304 310.093 133.008C310.093 131.712 309.069 130.8 307.645 130.8C306.221 130.8 305.213 131.712 305.213 133.008ZM306.573 142.032H309.133V140.08H306.573V142.032ZM310.461 142.176C312.125 141.472 313.021 139.92 313.021 138.48V137.296H314.189V138.48C314.189 139.968 315.085 141.52 316.765 142.176L316.157 143.088C314.877 142.544 314.045 141.568 313.613 140.4C313.165 141.552 312.317 142.544 311.069 143.088L310.461 142.176ZM323.976 129.488C327 129.488 328.888 130.464 328.888 132.128C328.888 133.792 327 134.752 323.976 134.752C320.952 134.752 319.064 133.792 319.064 132.128C319.064 130.464 320.952 129.488 323.976 129.488ZM317.656 136.976V136H330.296V136.976H317.656ZM319.224 142.976V138.4H328.744V142.976H319.224ZM320.296 132.128C320.296 133.168 321.72 133.792 323.976 133.792C326.232 133.792 327.656 133.168 327.656 132.128C327.656 131.056 326.232 130.448 323.976 130.448C321.72 130.448 320.296 131.056 320.296 132.128ZM320.392 142H327.576V139.36H320.392V142Z" fill="#1A1A1A"/>
<mask id="path-14-inside-4_1303_48688" fill="white">
<path d="M36 172H331V208H36V172Z"/>
</mask>
<path d="M331 208V207H36V208V209H331V208Z" fill="#E0E0E0" mask="url(#path-14-inside-4_1303_48688)"/>
<path d="M46.88 177.168H48.08V184.672H46.88V177.168ZM36.96 181.056C36.96 179.152 38.48 177.856 40.592 177.856C42.704 177.856 44.224 179.152 44.224 181.056C44.224 182.96 42.704 184.272 40.592 184.272C38.48 184.272 36.96 182.96 36.96 181.056ZM38.128 181.056C38.128 182.352 39.168 183.264 40.592 183.264C42.016 183.264 43.056 182.352 43.056 181.056C43.056 179.76 42.016 178.848 40.592 178.848C39.168 178.848 38.128 179.76 38.128 181.056ZM39.104 190.976V185.392H40.288V187.12H46.896V185.392H48.08V190.976H39.104ZM40.288 190H46.896V188.08H40.288V190ZM50.9064 178.608H58.7304V179.616H55.4024V181.504C55.4024 183.888 57.1624 186.288 59.1784 187.168L58.4904 188.128C56.8904 187.376 55.4664 185.744 54.8104 183.808C54.1704 185.872 52.7624 187.664 51.1624 188.464L50.4744 187.52C52.4424 186.56 54.2024 183.92 54.2024 181.504V179.616H50.9064V178.608ZM60.6824 191.168V177.168H61.8824V191.168H60.6824ZM71.7488 180.832H74.5968V177.168H75.7968V185.504H74.5968V181.824H71.7488V180.832ZM64.3728 184.416C66.4208 183.664 67.9088 181.776 67.9088 179.744V179.2H64.7408V178.208H72.2128V179.2H69.1088V179.744C69.1088 181.568 70.5168 183.312 72.5328 184.016L71.9088 184.976C70.3408 184.4 69.1248 183.216 68.5328 181.76C67.9408 183.424 66.6288 184.736 64.9808 185.376L64.3728 184.416ZM66.5488 188.56C66.5488 186.928 68.3088 185.952 71.2048 185.952C74.0848 185.952 75.8448 186.928 75.8448 188.56C75.8448 190.208 74.0848 191.152 71.2048 191.152C68.3088 191.152 66.5488 190.208 66.5488 188.56ZM67.7488 188.56C67.7488 189.584 69.0608 190.208 71.2048 190.208C73.3328 190.208 74.6608 189.584 74.6608 188.56C74.6608 187.52 73.3328 186.896 71.2048 186.896C69.0608 186.896 67.7488 187.52 67.7488 188.56ZM78.1431 188.352H83.8711V185.296H79.6631V178.16H80.8471V180.688H88.1111V178.16H89.2951V185.296H85.0551V188.352H90.8311V189.36H78.1431V188.352ZM80.8471 184.32H88.1111V181.68H80.8471V184.32Z" fill="#1A1A1A"/>
<path d="M285.817 177.152H287.017V181.36H289.113V182.352H287.017V187.296H285.817V177.152ZM276.841 184.816V178.368H283.001V179.376H278.025V183.808C280.825 183.808 282.425 183.728 284.281 183.344L284.425 184.32C282.473 184.704 280.825 184.816 277.913 184.816H276.841ZM278.345 190.848V186.288H279.529V189.856H287.657V190.848H278.345ZM289.987 184.176H295.715V182.448H291.603V177.744H301.059V178.72H292.787V181.472H301.187V182.448H296.915V184.176H302.643V185.136H289.987V184.176ZM291.395 187.536V186.56H301.091V191.296H299.891V187.536H291.395ZM314.109 177.168H315.309V187.52H314.109V182.512H311.021V181.504H314.109V177.168ZM304.029 184.928C307.261 183.84 309.501 181.808 309.757 179.248H304.733V178.256H311.053C311.053 181.84 308.493 184.576 304.541 185.904L304.029 184.928ZM306.493 190.848V186.464H307.709V189.856H315.661V190.848H306.493ZM317.656 183.12H330.296V184.096H324.568V185.504H328.664V188.592H320.408V190.064H329.096V191.008H319.24V187.712H327.496V186.432H319.192V185.504H323.368V184.096H317.656V183.12ZM319.32 181.888V177.648H328.648V181.888H319.32ZM320.488 180.928H327.48V178.608H320.488V180.928Z" fill="#1A1A1A"/>
<mask id="path-18-inside-5_1303_48688" fill="white">
<path d="M36 220H331V256H36V220Z"/>
</mask>
<path d="M331 256V255H36V256V257H331V256Z" fill="#E0E0E0" mask="url(#path-18-inside-5_1303_48688)"/>
<path d="M36.912 226.608H44.448V227.616H41.312V229.504C41.312 231.728 42.944 234.224 44.944 235.168L44.256 236.128C42.688 235.344 41.36 233.68 40.736 231.808C40.096 233.84 38.688 235.648 37.136 236.464L36.432 235.52C38.384 234.544 40.144 231.888 40.144 229.504V227.616H36.912V226.608ZM46.176 239.168V225.168H47.376V230.864H49.696V231.872H47.376V239.168H46.176ZM60.6824 225.168H61.8824V235.824H60.6824V234.336H57.8184V233.456H60.6824V225.168ZM50.3784 231.664C52.9704 231.664 56.4424 231.632 59.4344 231.264L59.5144 232.128C58.2664 232.336 56.9544 232.464 55.6744 232.528V235.312H54.4744V232.592C53.0664 232.656 51.7224 232.672 50.5544 232.672L50.3784 231.664ZM51.4984 228.176C51.4984 226.704 52.8904 225.744 54.9384 225.744C56.9864 225.744 58.3784 226.704 58.3784 228.176C58.3784 229.664 56.9864 230.608 54.9384 230.608C52.8904 230.608 51.4984 229.664 51.4984 228.176ZM52.3944 238.848V234.784H53.5944V237.856H62.2344V238.848H52.3944ZM52.6344 228.176C52.6344 229.104 53.5944 229.696 54.9384 229.696C56.2984 229.696 57.2264 229.104 57.2264 228.176C57.2264 227.248 56.2984 226.64 54.9384 226.64C53.5944 226.64 52.6344 227.248 52.6344 228.176ZM64.3088 232.224H70.0368V230.672H66.0048V225.536H67.1888V227.12H74.1008V225.536H75.3008V230.672H71.2208V232.224H76.9488V233.2H64.3088V232.224ZM65.8448 236.704C65.8448 235.152 67.6368 234.256 70.6288 234.256C73.6048 234.256 75.3968 235.152 75.3968 236.704C75.3968 238.272 73.6048 239.136 70.6288 239.136C67.6368 239.136 65.8448 238.272 65.8448 236.704ZM67.0608 236.704C67.0608 237.648 68.3888 238.224 70.6288 238.224C72.8528 238.224 74.1968 237.648 74.1968 236.704C74.1968 235.744 72.8528 235.2 70.6288 235.2C68.3888 235.2 67.0608 235.744 67.0608 236.704ZM67.1888 229.712H74.1008V228.064H67.1888V229.712ZM81.6151 226.4H82.7831V228.944C82.7831 231.408 84.4151 233.968 86.3831 234.944L85.6471 235.888C84.1271 235.088 82.8311 233.424 82.2231 231.456C81.5991 233.536 80.2711 235.328 78.7031 236.176L77.9671 235.2C79.9671 234.192 81.6151 231.504 81.6151 228.944V226.4ZM87.6791 239.168V225.168H88.8791V230.864H91.2151V231.888H88.8791V239.168H87.6791ZM101.594 225.168H102.794V228.784H104.89V229.792H102.794V233.424H101.594V225.168ZM91.9135 232.192C93.0335 232.192 94.3455 232.192 95.7055 232.144V231.248C94.0735 231.12 93.0495 230.48 93.0495 229.424C93.0495 228.272 94.3135 227.584 96.2815 227.584C98.2655 227.584 99.5295 228.272 99.5295 229.424C99.5295 230.464 98.5215 231.12 96.8895 231.248V232.112C98.2015 232.048 99.5135 231.952 100.746 231.776L100.826 232.544C97.8495 233.056 94.5055 233.088 92.0575 233.088L91.9135 232.192ZM92.2655 227.12V226.24H95.7055V225.024H96.8895V226.24H100.314V227.12H92.2655ZM93.7855 234.928V234.08H102.794V236.864H94.9855V238.144H103.338V239.008H93.8175V236.064H101.626V234.928H93.7855ZM94.1855 229.424C94.1855 230.064 95.0015 230.464 96.2815 230.464C97.5775 230.464 98.3935 230.064 98.3935 229.424C98.3935 228.784 97.5775 228.384 96.2815 228.384C95.0015 228.384 94.1855 228.784 94.1855 229.424ZM105.828 232.112H111.54V230.464H107.428V225.824H116.884V226.8H108.612V229.472H116.98V230.464H112.724V232.112H118.468V233.088H105.828V232.112ZM107.348 236.64C107.348 235.04 109.14 234.128 112.132 234.128C115.108 234.128 116.916 235.04 116.916 236.64C116.916 238.256 115.108 239.152 112.132 239.152C109.14 239.152 107.348 238.256 107.348 236.64ZM108.548 236.64C108.548 237.648 109.908 238.208 112.132 238.208C114.356 238.208 115.7 237.648 115.7 236.64C115.7 235.648 114.356 235.072 112.132 235.072C109.908 235.072 108.548 235.648 108.548 236.64Z" fill="#1A1A1A"/>
<path d="M305.437 233.392H306.573V235.168H309.133V233.392H310.253V238.976H305.437V233.392ZM304.061 229.008C304.061 227.088 305.549 225.792 307.645 225.792C309.533 225.792 310.957 226.848 311.197 228.48H314.125V225.168H315.325V232.576H314.125V229.472H311.213C310.989 231.12 309.549 232.224 307.645 232.224C305.549 232.224 304.061 230.912 304.061 229.008ZM305.213 229.008C305.213 230.304 306.221 231.232 307.645 231.232C309.069 231.232 310.093 230.304 310.093 229.008C310.093 227.712 309.069 226.8 307.645 226.8C306.221 226.8 305.213 227.712 305.213 229.008ZM306.573 238.032H309.133V236.08H306.573V238.032ZM310.461 238.176C312.125 237.472 313.021 235.92 313.021 234.48V233.296H314.189V234.48C314.189 235.968 315.085 237.52 316.765 238.176L316.157 239.088C314.877 238.544 314.045 237.568 313.613 236.4C313.165 237.552 312.317 238.544 311.069 239.088L310.461 238.176ZM323.976 225.488C327 225.488 328.888 226.464 328.888 228.128C328.888 229.792 327 230.752 323.976 230.752C320.952 230.752 319.064 229.792 319.064 228.128C319.064 226.464 320.952 225.488 323.976 225.488ZM317.656 232.976V232H330.296V232.976H317.656ZM319.224 238.976V234.4H328.744V238.976H319.224ZM320.296 228.128C320.296 229.168 321.72 229.792 323.976 229.792C326.232 229.792 327.656 229.168 327.656 228.128C327.656 227.056 326.232 226.448 323.976 226.448C321.72 226.448 320.296 227.056 320.296 228.128ZM320.392 238H327.576V235.36H320.392V238Z" fill="#1A1A1A"/>
</g>
<g filter="url(#filter1_dd_1303_48688)">
<rect x="402" y="8" width="335" height="299" rx="8" fill="#FAFAFA" shape-rendering="crispEdges"/>
<path d="M433.898 39.938H435.842V55.94H433.898V39.938ZM422.702 51.584C426.878 49.568 428.804 46.832 429.128 43.16H423.512V41.612H431.108C431.108 46.4 429.272 50.432 423.728 53.114L422.702 51.584ZM440.084 40.55H441.992V42.296H448.868V40.55H450.794V47.012H446.366V48.524H452.648V50.072H438.194V48.524H444.44V47.012H440.084V40.55ZM439.994 55.652V51.17H441.938V54.068H451.046V55.652H439.994ZM441.992 45.482H448.868V43.79H441.992V45.482ZM462.363 43.934H465.117V39.938H467.061V49.442H465.117V45.518H462.363V43.934ZM453.741 47.858C456.261 46.976 457.629 44.834 457.629 42.674V42.548H454.299V41H462.867V42.548H459.591V42.674C459.591 44.636 460.869 46.616 463.317 47.444L462.363 48.974C460.599 48.362 459.339 47.138 458.655 45.626C457.953 47.354 456.621 48.74 454.731 49.406L453.741 47.858ZM456.279 52.916C456.279 51.008 458.349 49.874 461.715 49.874C465.063 49.874 467.115 51.008 467.115 52.916C467.115 54.842 465.063 55.94 461.715 55.94C458.349 55.94 456.279 54.842 456.279 52.916ZM458.223 52.916C458.223 53.924 459.483 54.464 461.715 54.464C463.929 54.464 465.189 53.924 465.189 52.916C465.189 51.89 463.929 51.35 461.715 51.35C459.483 51.35 458.223 51.89 458.223 52.916ZM469.359 52.412H475.623V49.244H470.979V41H472.887V43.628H480.303V41H482.211V49.244H477.549V52.412H483.849V53.996H469.359V52.412ZM472.887 47.714H480.303V45.158H472.887V47.714Z" fill="#1A1A1A"/>
<mask id="path-24-inside-6_1303_48688" fill="white">
<path d="M657 36C657 31.5817 660.582 28 665 28H709C713.418 28 717 31.5817 717 36V60C717 64.4183 713.418 68 709 68H665C660.582 68 657 64.4183 657 60V36Z"/>
</mask>
<path d="M665 28V29H709V28V27H665V28ZM717 36H716V60H717H718V36H717ZM709 68V67H665V68V69H709V68ZM657 60H658V36H657H656V60H657ZM665 68V67C661.134 67 658 63.866 658 60H657H656C656 64.9706 660.029 69 665 69V68ZM717 60H716C716 63.866 712.866 67 709 67V68V69C713.971 69 718 64.9706 718 60H717ZM709 28V29C712.866 29 716 32.134 716 36H717H718C718 31.0294 713.971 27 709 27V28ZM665 28V27C660.029 27 656 31.0294 656 36H657H658C658 32.134 661.134 29 665 29V28Z" fill="#E0E0E0" mask="url(#path-24-inside-6_1303_48688)"/>
<path d="M679.08 41.52H680.888V42.24C680.888 44.032 682.92 45.856 685.88 46.272L685.192 47.648C682.824 47.28 680.92 46.08 679.992 44.464C679.08 46.096 677.176 47.28 674.776 47.648L674.104 46.272C677.08 45.856 679.08 44.064 679.08 42.24V41.52ZM673.544 50.32V48.912H686.408V50.32H680.792V55.28H679.096V50.32H673.544ZM695.01 44.608H697.458V41.056H699.186V49.504H697.458V46.016H695.01V44.608ZM687.346 48.096C689.586 47.312 690.802 45.408 690.802 43.488V43.376H687.842V42H695.458V43.376H692.546V43.488C692.546 45.232 693.682 46.992 695.858 47.728L695.01 49.088C693.442 48.544 692.322 47.456 691.714 46.112C691.09 47.648 689.906 48.88 688.226 49.472L687.346 48.096ZM689.602 52.592C689.602 50.896 691.442 49.888 694.434 49.888C697.41 49.888 699.234 50.896 699.234 52.592C699.234 54.304 697.41 55.28 694.434 55.28C691.442 55.28 689.602 54.304 689.602 52.592ZM691.33 52.592C691.33 53.488 692.45 53.968 694.434 53.968C696.402 53.968 697.522 53.488 697.522 52.592C697.522 51.68 696.402 51.2 694.434 51.2C692.45 51.2 691.33 51.68 691.33 52.592Z" fill="#333333"/>
<path d="M424.628 94.194H425.96V96.21H433.736V94.194H435.086V100.476H430.496V102.204H436.94V103.302H422.72V102.204H429.164V100.476H424.628V94.194ZM424.574 108.972V104.616H425.924V107.856H435.374V108.972H424.574ZM425.96 99.396H433.736V97.29H425.96V99.396ZM449.822 93.582H451.19V105.084H449.822V93.582ZM438.662 98.55C438.662 96.264 440.426 94.68 442.748 94.68C445.088 94.68 446.834 96.264 446.834 98.55C446.834 100.8 445.088 102.402 442.748 102.402C440.426 102.402 438.662 100.8 438.662 98.55ZM439.976 98.55C439.976 100.098 441.182 101.214 442.748 101.214C444.332 101.214 445.538 100.098 445.538 98.55C445.538 96.966 444.332 95.85 442.748 95.85C441.182 95.85 439.976 96.966 439.976 98.55ZM441.128 108.954V103.914H442.46V107.838H451.676V108.954H441.128ZM454.605 95.292H462.525V96.102C462.525 97.362 462.525 99.432 462.075 102.384L460.743 102.276C461.175 99.612 461.211 97.668 461.211 96.408H454.605V95.292ZM453.723 104.706C454.749 104.706 455.901 104.688 457.107 104.67V99.81H458.439V104.634C460.185 104.562 461.967 104.454 463.587 104.256L463.659 105.246C460.383 105.768 456.693 105.84 453.903 105.84L453.723 104.706ZM464.577 109.314V93.564H465.909V100.188H468.483V101.322H465.909V109.314H464.577ZM474.561 94.716C477.009 94.716 478.755 96.228 478.755 98.406C478.755 100.602 477.009 102.096 474.561 102.096C472.095 102.096 470.349 100.602 470.349 98.406C470.349 96.228 472.095 94.716 474.561 94.716ZM469.539 104.706C472.419 104.706 476.415 104.706 479.853 104.166L479.961 105.156C476.415 105.84 472.545 105.858 469.719 105.858L469.539 104.706ZM471.663 98.406C471.663 99.882 472.887 100.926 474.561 100.926C476.217 100.926 477.441 99.882 477.441 98.406C477.441 96.912 476.217 95.886 474.561 95.886C472.887 95.886 471.663 96.912 471.663 98.406ZM480.897 109.332V93.546H482.247V109.332H480.897ZM499.776 93.546H501.144V99.99H503.682V101.124H501.144V109.314H499.776V93.546ZM489.174 105.246C493.224 103.212 495.42 100.116 495.726 96.372H489.894V95.256H497.094C497.094 99.702 495.006 103.752 489.93 106.29L489.174 105.246ZM505.945 94.23H517.573V95.328H512.623C512.659 97.164 515.323 98.586 518.059 98.892L517.555 99.972C515.017 99.648 512.605 98.478 511.759 96.714C510.895 98.496 508.483 99.648 505.945 99.972L505.441 98.892C508.177 98.586 510.859 97.164 510.895 95.328H505.945V94.23ZM504.631 102.6V101.502H511.075V99.108H512.407V101.502H518.905V102.6H504.631ZM506.215 105.3V104.22H517.087V109.314H515.755V105.3H506.215ZM521.095 94.788H528.871V95.616C528.871 96.624 528.871 98.19 528.457 100.278L527.125 100.134C527.521 98.244 527.557 96.894 527.557 95.904H521.095V94.788ZM520.123 101.754C521.131 101.754 522.301 101.754 523.507 101.718V98.28H524.839V101.682C526.585 101.61 528.385 101.484 530.005 101.25L530.095 102.24C526.837 102.798 523.057 102.87 520.285 102.87L520.123 101.754ZM522.553 108.954V104.346H523.885V107.838H532.939V108.954H522.553ZM531.085 105.426V93.564H532.435V98.73H534.739V99.846H532.435V105.426H531.085ZM541.771 101.916H544.705V99.072H542.023C541.267 101.736 539.557 104.13 536.587 105.912L535.795 104.922C539.179 102.888 540.907 100.008 541.159 96.696H536.461V95.58H542.491C542.491 96.39 542.419 97.2 542.275 97.974H544.705V93.978H545.983V108.486H544.705V103.014H541.771V101.916ZM547.855 109.314V93.564H549.151V109.314H547.855Z" fill="#616161"/>
<path d="M584.896 94.788C587.038 94.788 588.586 96.642 588.784 99.612H592.312V93.546H593.644V109.332H592.312V100.692H588.784C588.658 103.788 587.074 105.75 584.896 105.75C582.61 105.75 580.99 103.608 580.99 100.26C580.99 96.912 582.61 94.788 584.896 94.788ZM582.268 100.26C582.268 102.834 583.348 104.544 584.896 104.544C586.462 104.544 587.524 102.834 587.524 100.26C587.524 97.686 586.462 95.994 584.896 95.994C583.348 95.994 582.268 97.686 582.268 100.26ZM596.932 95.112H604.06V99.342H607.894V93.546H609.226V109.332H607.894V100.458H604.06V105.318H596.932V95.112ZM598.264 104.238H602.728V96.21H598.264V104.238ZM623.405 93.564H624.737V109.314H623.405V93.564ZM612.893 105.228V95.112H614.243V104.058C616.619 104.058 619.085 103.878 621.731 103.32L621.911 104.472C619.157 105.03 616.673 105.228 614.189 105.228H612.893Z" fill="#1A1A1A"/>
<path d="M426.896 137.788C429.038 137.788 430.586 139.642 430.784 142.612H434.312V136.546H435.644V152.332H434.312V143.692H430.784C430.658 146.788 429.074 148.75 426.896 148.75C424.61 148.75 422.99 146.608 422.99 143.26C422.99 139.912 424.61 137.788 426.896 137.788ZM424.268 143.26C424.268 145.834 425.348 147.544 426.896 147.544C428.462 147.544 429.524 145.834 429.524 143.26C429.524 140.686 428.462 138.994 426.896 138.994C425.348 138.994 424.268 140.686 424.268 143.26ZM438.302 149.164H452.576V150.298H438.302V149.164ZM440.066 138.886V137.77H450.794V142.486H441.434V145.132H451.154V146.248H440.102V141.406H449.462V138.886H440.066ZM465.405 136.582H466.755V148.102H465.405V136.582ZM454.065 144.754C456.405 143.836 458.025 141.532 458.025 139.048V137.428H459.375V139.048C459.375 141.442 461.013 143.602 463.335 144.466L462.615 145.546C460.815 144.844 459.411 143.386 458.727 141.568C458.061 143.512 456.639 145.078 454.785 145.834L454.065 144.754ZM456.693 151.954V147.058H458.043V150.838H467.259V151.954H456.693ZM484.968 136.546H486.318V152.332H484.968V136.546ZM474.042 143.26C474.042 139.912 475.698 137.788 478.038 137.788C480.36 137.788 482.016 139.912 482.016 143.26C482.016 146.608 480.36 148.75 478.038 148.75C475.698 148.75 474.042 146.608 474.042 143.26ZM475.356 143.26C475.356 145.834 476.454 147.544 478.038 147.544C479.604 147.544 480.72 145.834 480.72 143.26C480.72 140.686 479.604 138.994 478.038 138.994C476.454 138.994 475.356 140.686 475.356 143.26ZM489.048 144.7H503.322V145.816H489.048V144.7ZM490.866 138.04V136.978H501.468V140.632H492.216V142.234H501.81V143.314H490.902V139.624H500.136V138.04H490.866ZM490.992 152.098V147.292H501.468V152.098H490.992ZM492.306 151H500.154V148.372H492.306V151Z" fill="#616161"/>
<path d="M588.046 137.194H593.32V137.806C593.32 138.706 593.32 140.272 592.87 142.36L591.574 142.198C591.934 140.452 591.988 139.174 592.006 138.292H588.046V137.194ZM580.738 144.466V143.35H587.47V140.614H588.802V143.35H594.94V144.466H580.738ZM581.944 151.198C584.482 150.874 586.948 149.452 587.128 147.76H582.592V146.68H587.146V145.06H588.496V146.68H593.05V147.76H588.514C588.694 149.47 591.16 150.874 593.698 151.198L593.194 152.224C590.908 151.882 588.748 150.784 587.83 149.218C586.894 150.784 584.734 151.882 582.43 152.224L581.944 151.198ZM581.962 138.292V137.194H586.732V137.77C586.732 138.652 586.732 140.236 586.012 142.36L584.698 142.144C585.292 140.38 585.4 139.156 585.418 138.292H581.962ZM596.284 144.916H610.558V146.014H604.204V149.128H602.836V146.014H596.284V144.916ZM598.12 151.972V147.688H599.452V150.838H608.974V151.972H598.12ZM598.21 143.35V137.05H599.542V139.102H607.318V137.05H608.668V143.35H598.21ZM599.542 142.252H607.318V140.164H599.542V142.252ZM623.387 136.546H624.737V152.332H623.387V136.546ZM612.461 143.26C612.461 139.912 614.117 137.788 616.457 137.788C618.779 137.788 620.435 139.912 620.435 143.26C620.435 146.608 618.779 148.75 616.457 148.75C614.117 148.75 612.461 146.608 612.461 143.26ZM613.775 143.26C613.775 145.834 614.873 147.544 616.457 147.544C618.023 147.544 619.139 145.834 619.139 143.26C619.139 140.686 618.023 138.994 616.457 138.994C614.873 138.994 613.775 140.686 613.775 143.26Z" fill="#1A1A1A"/>
<path d="M426.896 180.788C429.038 180.788 430.586 182.642 430.784 185.612H434.312V179.546H435.644V195.332H434.312V186.692H430.784C430.658 189.788 429.074 191.75 426.896 191.75C424.61 191.75 422.99 189.608 422.99 186.26C422.99 182.912 424.61 180.788 426.896 180.788ZM424.268 186.26C424.268 188.834 425.348 190.544 426.896 190.544C428.462 190.544 429.524 188.834 429.524 186.26C429.524 183.686 428.462 181.994 426.896 181.994C425.348 181.994 424.268 183.686 424.268 186.26ZM438.302 192.164H452.576V193.298H438.302V192.164ZM440.066 181.886V180.77H450.794V185.486H441.434V188.132H451.154V189.248H440.102V184.406H449.462V181.886H440.066ZM465.405 179.582H466.755V191.102H465.405V179.582ZM454.065 187.754C456.405 186.836 458.025 184.532 458.025 182.048V180.428H459.375V182.048C459.375 184.442 461.013 186.602 463.335 187.466L462.615 188.546C460.815 187.844 459.411 186.386 458.727 184.568C458.061 186.512 456.639 188.078 454.785 188.834L454.065 187.754ZM456.693 194.954V190.058H458.043V193.838H467.259V194.954H456.693ZM477.462 180.464H478.794V182.048C478.794 184.298 480.396 186.278 482.664 187.07L481.926 188.132C480.198 187.484 478.848 186.188 478.164 184.514C477.498 186.422 476.058 187.88 474.168 188.6L473.466 187.502C475.824 186.638 477.462 184.55 477.462 182.102V180.464ZM475.968 192.326C475.968 190.454 477.966 189.356 481.224 189.356C484.464 189.356 486.444 190.454 486.444 192.326C486.444 194.216 484.464 195.278 481.224 195.278C477.966 195.278 475.968 194.216 475.968 192.326ZM477.336 192.326C477.336 193.496 478.794 194.216 481.224 194.216C483.618 194.216 485.112 193.496 485.112 192.326C485.112 191.138 483.618 190.436 481.224 190.436C478.794 190.436 477.336 191.138 477.336 192.326ZM481.53 184.082V182.948H485.022V179.564H486.372V188.888H485.022V184.082H481.53ZM500.64 179.564H501.972V187.79H500.64V185.756H496.914V187.142H489.84V180.302H491.19V182.588H495.582V180.302H496.914V181.832H500.64V179.564ZM491.19 186.044H495.582V183.65H491.19V186.044ZM491.856 189.662V188.582H501.972V192.254H493.224V194.018H502.566V195.098H491.91V191.228H500.64V189.662H491.856ZM496.914 184.694H500.64V182.894H496.914V184.694Z" fill="#616161"/>
<path d="M584.896 180.788C586.336 180.788 587.524 181.634 588.19 183.11H592.312V179.546H593.644V195.332H592.312V189.212H588.28C587.632 190.814 586.408 191.75 584.896 191.75C582.61 191.75 580.99 189.608 580.99 186.26C580.99 182.912 582.61 180.788 584.896 180.788ZM582.268 186.26C582.268 188.834 583.348 190.544 584.896 190.544C586.462 190.544 587.542 188.834 587.542 186.26C587.542 183.686 586.462 181.994 584.896 181.994C583.348 181.994 582.268 183.686 582.268 186.26ZM588.568 184.226C588.73 184.838 588.802 185.522 588.802 186.26C588.802 186.926 588.73 187.538 588.622 188.096H592.312V184.226H588.568ZM600.298 180.464H601.63V182.048C601.63 184.298 603.232 186.278 605.5 187.07L604.762 188.132C603.034 187.484 601.684 186.188 601 184.514C600.334 186.422 598.894 187.88 597.004 188.6L596.302 187.502C598.66 186.638 600.298 184.55 600.298 182.102V180.464ZM598.804 192.326C598.804 190.454 600.802 189.356 604.06 189.356C607.3 189.356 609.28 190.454 609.28 192.326C609.28 194.216 607.3 195.278 604.06 195.278C600.802 195.278 598.804 194.216 598.804 192.326ZM600.172 192.326C600.172 193.496 601.63 194.216 604.06 194.216C606.454 194.216 607.948 193.496 607.948 192.326C607.948 191.138 606.454 190.436 604.06 190.436C601.63 190.436 600.172 191.138 600.172 192.326ZM604.366 184.082V182.948H607.858V179.564H609.208V188.888H607.858V184.082H604.366Z" fill="#1A1A1A"/>
<path d="M426.896 223.788C429.038 223.788 430.586 225.642 430.784 228.612H434.312V222.546H435.644V238.332H434.312V229.692H430.784C430.658 232.788 429.074 234.75 426.896 234.75C424.61 234.75 422.99 232.608 422.99 229.26C422.99 225.912 424.61 223.788 426.896 223.788ZM424.268 229.26C424.268 231.834 425.348 233.544 426.896 233.544C428.462 233.544 429.524 231.834 429.524 229.26C429.524 226.686 428.462 224.994 426.896 224.994C425.348 224.994 424.268 226.686 424.268 229.26ZM438.302 235.164H452.576V236.298H438.302V235.164ZM440.066 224.886V223.77H450.794V228.486H441.434V231.132H451.154V232.248H440.102V227.406H449.462V224.886H440.066ZM465.405 222.582H466.755V234.102H465.405V222.582ZM454.065 230.754C456.405 229.836 458.025 227.532 458.025 225.048V223.428H459.375V225.048C459.375 227.442 461.013 229.602 463.335 230.466L462.615 231.546C460.815 230.844 459.411 229.386 458.727 227.568C458.061 229.512 456.639 231.078 454.785 231.834L454.065 230.754ZM456.693 237.954V233.058H458.043V236.838H467.259V237.954H456.693ZM476.796 223.536H478.092V225.678C478.092 227.442 479.316 229.224 481.314 229.998L480.612 231.024C479.1 230.448 478.02 229.278 477.462 227.91C476.904 229.422 475.77 230.772 474.204 231.456L473.484 230.412C475.536 229.512 476.796 227.46 476.796 225.678V223.536ZM476.31 235.47C476.31 233.706 478.308 232.662 481.548 232.662C484.788 232.662 486.786 233.706 486.786 235.47C486.786 237.252 484.788 238.278 481.548 238.278C478.308 238.278 476.31 237.252 476.31 235.47ZM477.642 235.47C477.642 236.568 479.136 237.234 481.548 237.234C483.96 237.234 485.436 236.568 485.436 235.47C485.436 234.372 483.96 233.724 481.548 233.724C479.136 233.724 477.642 234.372 477.642 235.47ZM482.034 231.798V222.888H483.312V226.83H485.418V222.582H486.714V232.302H485.418V227.946H483.312V231.798H482.034ZM500.64 222.564H501.99V234.246H500.64V228.774H496.104V227.676H500.64V225.75H496.104V224.652H500.64V222.564ZM489.966 231.87V223.716H491.316V230.736C493.494 230.736 495.564 230.592 497.994 230.16L498.12 231.294C495.582 231.744 493.458 231.87 491.154 231.87H489.966ZM491.946 237.954V233.238H493.278V236.838H502.404V237.954H491.946ZM516.115 222.564H517.465V231.852H516.115V230.97H512.947V230.07H516.115V222.564ZM504.559 228.54C507.601 228.54 511.453 228.504 514.837 228.126L514.927 229.008C513.397 229.224 511.795 229.368 510.229 229.44V231.906H508.897V229.494C507.421 229.548 505.999 229.548 504.739 229.548L504.559 228.54ZM505.783 225.246C505.783 223.77 507.313 222.87 509.653 222.87C511.993 222.87 513.523 223.77 513.523 225.246C513.523 226.704 511.993 227.586 509.653 227.586C507.313 227.586 505.783 226.704 505.783 225.246ZM506.971 233.418V232.446H517.465V235.65H508.339V237.126H518.023V238.134H507.007V234.75H516.133V233.418H506.971ZM507.043 225.246C507.043 226.11 508.087 226.668 509.653 226.668C511.237 226.668 512.263 226.11 512.263 225.246C512.263 224.382 511.237 223.824 509.653 223.824C508.087 223.824 507.043 224.382 507.043 225.246ZM524.623 223.158C526.963 223.158 528.691 224.58 528.691 226.632C528.691 228.684 526.963 230.088 524.623 230.088C522.283 230.088 520.573 228.684 520.573 226.632C520.573 224.58 522.283 223.158 524.623 223.158ZM521.887 226.632C521.887 228.018 523.057 228.99 524.623 228.99C526.207 228.99 527.377 228.018 527.377 226.632C527.377 225.246 526.207 224.256 524.623 224.256C523.057 224.256 521.887 225.246 521.887 226.632ZM522.949 232.518V231.438H533.101V235.2H524.299V237.018H533.641V238.098H523.003V234.192H531.751V232.518H522.949ZM531.733 230.646V222.564H533.101V230.646H531.733Z" fill="#616161"/>
<path d="M584.644 224.022V237H583.348V225.588L581.512 226.812L580.792 225.732L583.348 224.022H584.644ZM591.45 232.446C589.092 232.446 587.166 230.502 587.166 228.126C587.166 225.768 589.092 223.842 591.45 223.842C593.808 223.842 595.734 225.768 595.734 228.126C595.734 228.99 595.482 229.782 595.05 230.466L591.306 237H589.794L592.494 232.32C592.17 232.392 591.81 232.446 591.45 232.446ZM588.462 228.126C588.462 229.854 589.758 231.15 591.486 231.15C593.196 231.15 594.438 229.854 594.438 228.126C594.438 226.416 593.196 225.138 591.486 225.138C589.758 225.138 588.462 226.416 588.462 228.126ZM599.366 230.862L598.07 230.826L598.304 223.986H604.964V225.282H599.564L599.42 229.152C600.068 228.774 600.824 228.558 601.616 228.558C603.974 228.558 605.9 230.538 605.9 232.824C605.9 235.308 603.956 237.18 601.616 237.18C599.6 237.18 597.89 235.794 597.458 233.922L598.718 233.634C599.024 235.002 600.14 235.884 601.616 235.884C603.344 235.884 604.604 234.678 604.604 232.824C604.604 231.15 603.344 229.854 601.616 229.854C600.68 229.854 599.924 230.214 599.366 230.862ZM611.893 232.446C609.535 232.446 607.609 230.502 607.609 228.126C607.609 225.768 609.535 223.842 611.893 223.842C614.251 223.842 616.177 225.768 616.177 228.126C616.177 228.99 615.925 229.782 615.493 230.466L611.749 237H610.237L612.937 232.32C612.613 232.392 612.253 232.446 611.893 232.446ZM608.905 228.126C608.905 229.854 610.201 231.15 611.929 231.15C613.639 231.15 614.881 229.854 614.881 228.126C614.881 226.416 613.639 225.138 611.929 225.138C610.201 225.138 608.905 226.416 608.905 228.126ZM618.998 235.434C619.574 235.434 619.88 235.83 619.88 236.316C619.88 236.838 619.574 237.234 618.998 237.234C618.404 237.234 618.08 236.838 618.08 236.316C618.08 235.83 618.404 235.434 618.998 235.434ZM627.087 235.83C629.139 235.83 630.399 234.12 630.399 230.502C630.399 226.884 629.139 225.192 627.087 225.192C625.017 225.192 623.757 226.884 623.757 230.502C623.757 234.12 625.017 235.83 627.087 235.83ZM622.461 230.502C622.461 226.344 624.297 223.896 627.087 223.896C629.859 223.896 631.695 226.344 631.695 230.502C631.695 234.66 629.877 237.126 627.087 237.126C624.279 237.126 622.461 234.66 622.461 230.502ZM633.457 235.722C636.031 233.22 639.937 230.214 639.937 227.856C639.937 226.056 638.749 225.138 637.345 225.138C636.355 225.138 635.257 225.48 634.591 227.01L633.403 226.506C634.339 224.382 636.103 223.842 637.345 223.842C639.271 223.842 641.233 225.318 641.233 227.856C641.233 230.538 637.885 233.4 635.365 235.722H641.449V237.018H633.457V235.722ZM644.248 235.434C644.824 235.434 645.13 235.83 645.13 236.316C645.13 236.838 644.824 237.234 644.248 237.234C643.654 237.234 643.33 236.838 643.33 236.316C643.33 235.83 643.654 235.434 644.248 235.434ZM652.264 226.722V229.494L654.838 228.666L655.234 229.872L652.66 230.7L654.298 232.968L653.29 233.76L651.634 231.456L649.978 233.76L648.988 232.968L650.626 230.7L648.034 229.872L648.43 228.666L651.004 229.494V226.722H652.264ZM661.764 226.722V229.494L664.338 228.666L664.734 229.872L662.16 230.7L663.798 232.968L662.79 233.76L661.134 231.456L659.478 233.76L658.488 232.968L660.126 230.7L657.534 229.872L657.93 228.666L660.504 229.494V226.722H661.764Z" fill="#1A1A1A"/>
</g>
<defs>
<filter id="filter0_dd_1303_48688" x="0" y="0" width="367" height="384" filterUnits="userSpaceOnUse" color-interpolation-filters="sRGB">
<feFlood flood-opacity="0" result="BackgroundImageFix"/>
<feColorMatrix in="SourceAlpha" type="matrix" values="0 0 0 0 0 0 0 0 0 0 0 0 0 0 0 0 0 0 127 0" result="hardAlpha"/>
<feOffset/>
<feGaussianBlur stdDeviation="4"/>
<feComposite in2="hardAlpha" operator="out"/>
<feColorMatrix type="matrix" values="0 0 0 0 0 0 0 0 0 0 0 0 0 0 0 0 0 0 0.12 0"/>
<feBlend mode="normal" in2="BackgroundImageFix" result="effect1_dropShadow_1303_48688"/>
<feColorMatrix in="SourceAlpha" type="matrix" values="0 0 0 0 0 0 0 0 0 0 0 0 0 0 0 0 0 0 127 0" result="hardAlpha"/>
<feOffset dy="8"/>
<feGaussianBlur stdDeviation="8"/>
<feComposite in2="hardAlpha" operator="out"/>
<feColorMatrix type="matrix" values="0 0 0 0 0 0 0 0 0 0 0 0 0 0 0 0 0 0 0.12 0"/>
<feBlend mode="normal" in2="effect1_dropShadow_1303_48688" result="effect2_dropShadow_1303_48688"/>
<feBlend mode="normal" in="SourceGraphic" in2="effect2_dropShadow_1303_48688" result="shape"/>
</filter>
<filter id="filter1_dd_1303_48688" x="386" y="0" width="372" height="331" filterUnits="userSpaceOnUse" color-interpolation-filters="sRGB">
<feFlood flood-opacity="0" result="BackgroundImageFix"/>
<feColorMatrix in="SourceAlpha" type="matrix" values="0 0 0 0 0 0 0 0 0 0 0 0 0 0 0 0 0 0 127 0" result="hardAlpha"/>
<feOffset/>
<feGaussianBlur stdDeviation="4"/>
<feComposite in2="hardAlpha" operator="out"/>
<feColorMatrix type="matrix" values="0 0 0 0 0 0 0 0 0 0 0 0 0 0 0 0 0 0 0.12 0"/>
<feBlend mode="normal" in2="BackgroundImageFix" result="effect1_dropShadow_1303_48688"/>
<feColorMatrix in="SourceAlpha" type="matrix" values="0 0 0 0 0 0 0 0 0 0 0 0 0 0 0 0 0 0 127 0" result="hardAlpha"/>
<feOffset dy="8"/>
<feGaussianBlur stdDeviation="8"/>
<feComposite in2="hardAlpha" operator="out"/>
<feColorMatrix type="matrix" values="0 0 0 0 0 0 0 0 0 0 0 0 0 0 0 0 0 0 0.12 0"/>
<feBlend mode="normal" in2="effect1_dropShadow_1303_48688" result="effect2_dropShadow_1303_48688"/>
<feBlend mode="normal" in="SourceGraphic" in2="effect2_dropShadow_1303_48688" result="shape"/>
</filter>
</defs>
</svg>
