<svg width="285" height="116" viewBox="0 0 285 116" fill="none" xmlns="http://www.w3.org/2000/svg">
<rect width="284.245" height="115.468" fill="white"/>
<path d="M26.7301 20.088C29.0658 20.088 30.7518 22.2306 30.7518 25.6025C30.7518 28.9921 29.0658 31.1522 26.7301 31.1522C24.3943 31.1522 22.6907 28.9921 22.6907 25.6025C22.6907 22.2306 24.3943 20.088 26.7301 20.088ZM24.5172 25.6025C24.5172 28.0261 25.4129 29.4311 26.7301 29.4311C28.0472 29.4311 28.9429 28.0261 28.9429 25.6025C28.9429 23.2141 28.0472 21.8091 26.7301 21.8091C25.4129 21.8091 24.5172 23.2141 24.5172 25.6025ZM32.8066 34.5769V18.964H34.7033V25.0054H37.0742V26.5685H34.7033V34.5769H32.8066ZM39.3687 20.3514H50.3276V21.774C50.3276 23.6707 50.3451 25.8308 49.6602 29.1501L47.7986 28.9394C48.0621 27.6749 48.2377 26.5685 48.3255 25.5674L39.1755 26.0592L38.9297 24.4434L48.4309 24.1273C48.466 23.3019 48.466 22.5643 48.466 21.8793H39.3687V20.3514ZM37.7354 32.6274V31.0995H42.9514V27.2358H44.8306V31.0995H51.8379V32.6274H37.7354ZM63.897 18.964H65.7938V34.612H63.897V18.964ZM53.8866 30.8185V20.3865H61.3505V21.932H55.7657V29.2379C58.6284 29.2204 60.4548 29.1501 62.5272 28.7462L62.7028 30.3268C60.4548 30.7483 58.4703 30.8185 55.2037 30.8185H53.8866ZM79.1701 18.9816H81.0668V30.4146H79.1701V24.6893H76.3776C76.0088 26.5509 74.4107 27.8154 72.391 27.8154C70.0728 27.8154 68.3166 26.1645 68.3166 23.8639C68.3166 21.5632 70.0728 19.9299 72.391 19.9299C74.4458 19.9299 76.0791 21.2295 76.4128 23.1614H79.1701V18.9816ZM70.1079 23.8639C70.1079 25.2689 71.0914 26.147 72.391 26.147C73.6731 26.147 74.6565 25.2689 74.6565 23.8639C74.6565 22.4765 73.6731 21.5808 72.391 21.5808C71.0914 21.5808 70.1079 22.4765 70.1079 23.8639ZM70.8982 34.2783V29.2731H72.7949V32.7504H81.4707V34.2783H70.8982ZM87.8413 20.3163H95.1296V21.8618H89.7205V24.6717H94.8662V26.147H89.7205V29.4135C92.1616 29.396 94.0056 29.3082 96.1834 28.9745L96.359 30.4848C93.9705 30.8712 91.8806 30.9415 89.0882 30.9415H87.8413V20.3163ZM97.4303 34.5769V18.964H99.327V25.0405H101.698V26.6036H99.327V34.5769H97.4303ZM113.336 18.9464H115.232V34.612H113.336V18.9464ZM102.851 25.6025C102.851 22.2306 104.537 20.088 106.89 20.088C109.244 20.088 110.93 22.2306 110.93 25.6025C110.93 28.9921 109.244 31.1522 106.89 31.1522C104.537 31.1522 102.851 28.9921 102.851 25.6025ZM104.677 25.6025C104.677 28.0261 105.573 29.4311 106.89 29.4311C108.207 29.4311 109.121 28.0261 109.121 25.6025C109.121 23.2141 108.207 21.8091 106.89 21.8091C105.573 21.8091 104.677 23.2141 104.677 25.6025ZM119.336 19.3152H129.978V20.6324H121.215V21.5808H129.61V22.8453H121.215V23.8287H130.101V25.1459H119.336V19.3152ZM117.579 27.4641V26.0592H131.629V27.4641H117.579ZM119.195 29.7297V28.3949H129.891V32.0128H121.092V33.1016H130.347V34.4539H119.23V30.7307H128.047V29.7297H119.195Z" fill="#616161"/>
<path fill-rule="evenodd" clip-rule="evenodd" d="M248.538 22.4687C248.859 22.1472 249.381 22.1472 249.702 22.4687L256.288 29.0545C256.609 29.376 256.609 29.8972 256.288 30.2187C255.966 30.5402 255.445 30.5402 255.124 30.2187L249.12 24.215L243.116 30.2187C242.795 30.5402 242.274 30.5402 241.952 30.2187C241.631 29.8972 241.631 29.376 241.952 29.0545L248.538 22.4687Z" fill="#999999"/>
<mask id="path-3-inside-1_1101_64847" fill="white">
<path d="M0 53.3438H284.245V115.468H0V53.3438Z"/>
</mask>
<path d="M0 53.3438V54.4414H284.245V53.3438V52.2461H0V53.3438Z" fill="#EEEEEE" mask="url(#path-3-inside-1_1101_64847)"/>
<path d="M26.7476 78.0155C28.9956 78.0155 30.5762 80.0879 30.5762 83.3545C30.5762 86.6211 28.9956 88.711 26.7476 88.711C24.4997 88.711 22.9015 86.6211 22.9015 83.3545C22.9015 80.0879 24.4997 78.0155 26.7476 78.0155ZM24.166 83.3545C24.166 85.8659 25.2197 87.5343 26.7476 87.5343C28.2755 87.5343 29.3293 85.8659 29.3293 83.3545C29.3293 80.8431 28.2755 79.1922 26.7476 79.1922C25.2197 79.1922 24.166 80.8431 24.166 83.3545ZM33.1403 92.1883V76.8213H34.4575V83.0032H37.004V84.1096H34.4575V92.1883H33.1403ZM39.5092 78.3317H50.0115V79.8069C50.0115 81.6861 50.0115 83.776 49.3792 86.9021L48.0796 86.744C48.3782 85.339 48.5362 84.1272 48.624 83.0384L39.2985 83.5828L39.1053 82.4237L48.6767 82.0373C48.7119 81.2294 48.7119 80.4918 48.7119 79.8069V79.4205H39.5092V78.3317ZM37.8408 90.0457V88.9568H43.3027V84.9526H44.6023V88.9568H51.715V90.0457H37.8408ZM64.2483 76.8213H65.5655V92.2059H64.2483V76.8213ZM54.027 88.3773V78.2965H61.2627V79.403H55.3267V87.2533C58.3122 87.2533 60.2792 87.1655 62.5799 86.7264L62.7204 87.8504C60.3319 88.2895 58.3298 88.3773 55.2564 88.3773H54.027ZM79.5037 76.8389H80.8209V88.149H79.5037V82.1778H76.3074C76.0264 84.0921 74.4458 85.3917 72.391 85.3917C70.1255 85.3917 68.4571 83.8287 68.4571 81.5982C68.4571 79.3678 70.1255 77.8224 72.391 77.8224C74.4634 77.8224 76.0791 79.1395 76.3074 81.1065H79.5037V76.8389ZM69.704 81.5982C69.704 83.1437 70.8631 84.2326 72.391 84.2326C73.9189 84.2326 75.078 83.1437 75.078 81.5982C75.078 80.0703 73.9189 78.9815 72.391 78.9815C70.8631 78.9815 69.704 80.0703 69.704 81.5982ZM71.0387 91.8371V87.0074H72.3559V90.7482H81.26V91.8371H71.0387ZM99.0109 76.8213H100.275V92.1883H99.0109V84.215H96.7629V91.3804H95.5336V77.1726H96.7629V83.1086H99.0109V76.8213ZM88.052 88.1841V78.7005H89.3516V87.025C90.862 87.0074 92.5129 86.9021 94.392 86.5332L94.5501 87.6924C92.4426 88.0963 90.6864 88.1841 89.018 88.1841H88.052ZM102.464 84.4609H105.924V82.2656C104.695 81.7739 104.01 81.0011 104.01 79.965C104.01 78.156 106.082 77.1199 109.402 77.1199C112.721 77.1199 114.793 78.156 114.793 79.965C114.793 81.0011 114.108 81.7739 112.896 82.248V84.4609H116.339V85.5146H102.464V84.4609ZM104.15 89.431C104.15 87.7099 106.117 86.7264 109.402 86.7264C112.686 86.7264 114.653 87.7099 114.653 89.431C114.653 91.1872 112.686 92.1707 109.402 92.1707C106.117 92.1707 104.15 91.1872 104.15 89.431ZM105.362 79.965C105.362 81.0889 106.925 81.7739 109.402 81.7739C111.878 81.7739 113.441 81.0889 113.441 79.965C113.441 78.8234 111.878 78.1385 109.402 78.1385C106.925 78.1385 105.362 78.8234 105.362 79.965ZM105.468 89.431C105.468 90.5199 106.943 91.1346 109.402 91.1346C111.843 91.1346 113.318 90.5199 113.318 89.431C113.318 88.3773 111.843 87.745 109.402 87.745C106.943 87.745 105.468 88.3773 105.468 89.431ZM107.224 84.4609H111.597V82.6169C110.947 82.7222 110.209 82.7925 109.402 82.7925C108.594 82.7925 107.874 82.7398 107.224 82.6169V84.4609Z" fill="#616161"/>
</svg>
