<svg width="122" height="70" viewBox="0 0 122 70" fill="none" xmlns="http://www.w3.org/2000/svg">
<mask id="path-1-inside-1_827_22638" fill="white">
<path d="M41.8087 48.9842C41.8087 45.9359 44.2797 43.4648 47.328 43.4648H61.1263C64.1745 43.4648 66.6456 45.9359 66.6456 48.9842V62.7825C66.6456 65.8307 64.1745 68.3018 61.1263 68.3018H47.328C44.2797 68.3018 41.8087 65.8307 41.8087 62.7825V48.9842Z"/>
</mask>
<path d="M41.8087 48.9842C41.8087 45.9359 44.2797 43.4648 47.328 43.4648H61.1263C64.1745 43.4648 66.6456 45.9359 66.6456 48.9842V62.7825C66.6456 65.8307 64.1745 68.3018 61.1263 68.3018H47.328C44.2797 68.3018 41.8087 65.8307 41.8087 62.7825V48.9842Z" fill="white"/>
<path d="M47.328 44.7067H61.1263V42.223H47.328V44.7067ZM65.4038 48.9842V62.7825H67.8875V48.9842H65.4038ZM61.1263 67.06H47.328V69.5437H61.1263V67.06ZM43.0505 62.7825V48.9842H40.5668V62.7825H43.0505ZM47.328 67.06C44.9656 67.06 43.0505 65.1449 43.0505 62.7825H40.5668C40.5668 66.5166 43.5939 69.5437 47.328 69.5437V67.06ZM65.4038 62.7825C65.4038 65.1449 63.4887 67.06 61.1263 67.06V69.5437C64.8604 69.5437 67.8875 66.5166 67.8875 62.7825H65.4038ZM61.1263 44.7067C63.4887 44.7067 65.4038 46.6218 65.4038 48.9842H67.8875C67.8875 45.2501 64.8604 42.223 61.1263 42.223V44.7067ZM47.328 42.223C43.5939 42.223 40.5668 45.2501 40.5668 48.9842H43.0505C43.0505 46.6218 44.9656 44.7067 47.328 44.7067V42.223Z" fill="#E0E0E0" mask="url(#path-1-inside-1_827_22638)"/>
<path d="M96.4501 48.9842C96.4501 45.9359 98.9212 43.4648 101.969 43.4648H115.768C118.816 43.4648 121.287 45.9359 121.287 48.9842V62.7825C121.287 65.8307 118.816 68.3018 115.768 68.3018H101.969C98.9212 68.3018 96.4501 65.8307 96.4501 62.7825V48.9842Z" fill="#FF8120"/>
<path fill-rule="evenodd" clip-rule="evenodd" d="M115.645 50.9692C116.13 51.4542 116.13 52.2405 115.645 52.7254L107.573 60.7975C107.089 61.2824 106.302 61.2824 105.817 60.7975L102.092 57.0719C101.607 56.5869 101.607 55.8006 102.092 55.3157C102.577 54.8307 103.363 54.8307 103.848 55.3157L106.695 58.1631L113.889 50.9692C114.374 50.4842 115.161 50.4842 115.645 50.9692Z" fill="white"/>
<rect y="42.3838" width="24.837" height="27" rx="4.96739" fill="#333333"/>
<path d="M5.62631 59.3158C7.42699 57.5772 10.01 55.7269 10.01 54.1497C10.01 52.9575 9.25251 52.3863 8.33354 52.3863C7.68778 52.3863 6.96751 52.6098 6.52044 53.6157L5.52696 53.1811C6.18514 51.6784 7.48908 51.2935 8.33354 51.2935C9.68716 51.2935 11.1029 52.349 11.1029 54.1497C11.1029 56.0125 8.95447 57.8007 7.25313 59.3158H11.2519V60.4086H5.62631V59.3158ZM15.7178 59.3903C17.0838 59.3903 17.9034 58.2975 17.9034 55.9007C17.9034 53.4915 17.0962 52.4111 15.7178 52.4111C14.3393 52.4111 13.5197 53.4915 13.5197 55.9007C13.5197 58.2975 14.3393 59.3903 15.7178 59.3903ZM12.4269 55.9007C12.4269 53.032 13.7308 51.3183 15.7178 51.3183C17.6923 51.3183 18.9963 53.0196 18.9963 55.9007C18.9963 58.757 17.7047 60.4831 15.7178 60.4831C13.7308 60.4831 12.4269 58.757 12.4269 55.9007Z" fill="white"/>
<path d="M31.6671 43.4648V68.3018" stroke="black" stroke-width="1.24185"/>
<path d="M28.5625 68.3018L34.7717 68.3018" stroke="black" stroke-width="1.24185"/>
<path d="M28.5625 43.4648L34.7717 43.4648" stroke="black" stroke-width="1.24185"/>
<rect x="41.8087" width="24.837" height="26.0788" rx="4.96739" fill="#333333"/>
<path d="M47.5979 16.4711C49.3986 14.7325 51.9816 12.8821 51.9816 11.305C51.9816 10.1128 51.2241 9.54156 50.3051 9.54156C49.6594 9.54156 48.9391 9.76509 48.492 10.771L47.4986 10.3363C48.1567 8.8337 49.4607 8.44873 50.3051 8.44873C51.6587 8.44873 53.0745 9.5043 53.0745 11.305C53.0745 13.1678 50.9261 14.956 49.2247 16.4711H53.2235V17.5639H47.5979V16.4711ZM57.6894 16.5456C59.0554 16.5456 59.875 15.4528 59.875 13.056C59.875 10.6468 59.0678 9.56639 57.6894 9.56639C56.3109 9.56639 55.4913 10.6468 55.4913 13.056C55.4913 15.4528 56.3109 16.5456 57.6894 16.5456ZM54.3985 13.056C54.3985 10.1873 55.7024 8.47357 57.6894 8.47357C59.6639 8.47357 60.9679 10.1749 60.9679 13.056C60.9679 15.9122 59.6763 17.6384 57.6894 17.6384C55.7024 17.6384 54.3985 15.9122 54.3985 13.056Z" fill="white"/>
<path d="M66.6454 32.9092L41.8085 32.9092" stroke="black" stroke-width="1.24185"/>
<path d="M41.8085 29.8047V36.0139" stroke="black" stroke-width="1.24185"/>
<path d="M66.6456 29.8047V36.0139" stroke="black" stroke-width="1.24185"/>
</svg>
