<svg width="627" height="172" viewBox="0 0 627 172" fill="none" xmlns="http://www.w3.org/2000/svg">
<g filter="url(#filter0_dd_1130_60637)">
<rect x="340.818" y="26.9268" width="264.928" height="126.674" rx="13.2464" fill="white" shape-rendering="crispEdges"/>
<path d="M358.48 65.5619C358.48 56.4172 365.894 49.0039 375.038 49.0039C384.183 49.0039 391.596 56.4172 391.596 65.5619C391.596 74.7066 384.183 82.1199 375.038 82.1199C365.894 82.1199 358.48 74.7066 358.48 65.5619Z" fill="#FFF5E6"/>
<path d="M370.113 57.2148C373.017 57.2148 374.362 59.2459 375.03 60.4574C375.698 59.2459 377.043 57.2148 379.947 57.2148C382.851 57.2148 385.043 59.1301 385.043 62.2479C385.043 65.3657 383.35 68.0293 381.346 70.0603C379.457 71.9755 376.625 73.9086 375.039 73.9086C373.453 73.9086 370.621 71.9755 368.732 70.0603C366.719 68.0293 365.035 65.2767 365.035 62.2479C365.035 59.2192 367.209 57.2148 370.113 57.2148Z" fill="#FF8120"/>
<path d="M371.197 66.003H370.786C370.572 66.003 370.395 65.8317 370.395 65.6244V65.4352C370.395 65.2279 370.572 65.0566 370.786 65.0566C371.038 65.0566 371.225 64.8313 371.169 64.5969L370.637 62.4338C370.581 62.1994 370.768 61.9741 371.019 61.9741H371.626C371.812 61.9741 371.971 62.1003 372.008 62.2715L372.54 64.7592C372.577 64.9304 372.736 65.0566 372.922 65.0566H373.267C373.454 65.0566 373.603 64.9304 373.65 64.7592L374.237 62.2535C374.275 62.0822 374.433 61.9561 374.62 61.9561H375.31C375.487 61.9561 375.646 62.0732 375.693 62.2445L376.29 64.7502C376.327 64.9214 376.485 65.0386 376.672 65.0386H377.026C377.213 65.0386 377.372 64.9124 377.409 64.7411L377.941 62.2535C377.978 62.0822 378.136 61.9561 378.323 61.9561H378.901C379.153 61.9561 379.34 62.1814 379.284 62.4157L378.752 64.5789C378.696 64.8132 378.883 65.0386 379.134 65.0386C379.349 65.0386 379.526 65.2098 379.526 65.4171V65.6064C379.526 65.8137 379.349 65.985 379.134 65.985H378.724C378.547 65.985 378.388 66.1021 378.342 66.2734L377.726 68.77C377.689 68.9413 377.53 69.0585 377.344 69.0585H376.485C376.299 69.0585 376.15 68.9323 376.103 68.761L375.525 66.2734C375.487 66.1021 375.329 65.976 375.142 65.976H374.769C374.583 65.976 374.433 66.1021 374.387 66.2734L373.808 68.761C373.771 68.9323 373.613 69.0585 373.426 69.0585H372.568C372.391 69.0585 372.232 68.9413 372.185 68.77L371.57 66.2734C371.532 66.1021 371.374 65.985 371.187 65.985L371.197 66.003ZM373.034 67.1116H373.1L373.361 66.003H372.801L373.044 67.1116H373.034ZM375.226 65.0656L374.984 64.0381H374.918L374.676 65.0656H375.217H375.226ZM376.84 67.1116H376.905L377.148 66.003H376.588L376.849 67.1116H376.84Z" fill="white"/>
<path d="M421.829 53.8897V55.5179H418.945V64.1557H417.289V55.5179H414.378V53.8897H421.829ZM423.189 56.815H424.845V64.1833H423.189V56.815ZM423.12 54.1933C423.12 53.6966 423.437 53.2964 424.017 53.2964C424.61 53.2964 424.927 53.6966 424.927 54.1933C424.927 54.7038 424.61 55.104 424.017 55.104C423.437 55.104 423.12 54.7038 423.12 54.1933ZM431.18 63.9625C430.863 64.0315 430.159 64.1557 429.621 64.1143C428.545 64.0315 427.441 63.0794 427.441 61.7824V58.4156H426.157V56.7874H427.441V54.2071H429.096V56.7874H431.042V58.4156H429.096V61.7824C429.096 62.2239 429.359 62.4447 429.773 62.4723C430.076 62.4861 430.559 62.4033 430.821 62.3481L431.18 63.9625ZM432.152 53.6H433.808V64.1833H432.152V53.6ZM440.256 59.892C440.118 58.9675 439.511 58.3052 438.421 58.3052C437.414 58.3052 436.6 58.8295 436.434 59.9058L440.256 59.892ZM434.889 60.5129C434.889 58.5122 436.158 56.8288 438.407 56.8288C440.726 56.8288 441.415 58.7054 441.457 58.8019C441.898 59.9196 441.802 61.2304 441.802 61.2304H436.434C436.683 62.1273 437.359 62.6931 438.421 62.6931C439.718 62.6931 440.008 61.9756 440.049 61.9204L441.498 62.5689C441.498 62.5689 440.836 64.1833 438.407 64.1833C436.158 64.1833 434.889 62.4999 434.889 60.5129Z" fill="#1A1A1A"/>
<path d="M414.779 80.4083H420.144V80.9795C420.144 81.675 420.144 82.7554 419.858 84.1959L418.939 84.0966C419.212 82.7926 419.237 81.8612 419.237 81.1782H414.779V80.4083ZM414.108 85.2142C414.804 85.2142 415.611 85.2142 416.443 85.1894V82.8175H417.362V85.1645C418.567 85.1149 419.809 85.0279 420.926 84.8665L420.988 85.5495C418.741 85.9345 416.133 85.9842 414.22 85.9842L414.108 85.2142ZM415.785 90.1816V87.0025H416.704V89.4117H422.95V90.1816H415.785ZM421.671 87.7476V79.5638H422.603V83.1279H424.192V83.8979H422.603V87.7476H421.671ZM432.869 79.5762H433.8V85.7482H432.869V79.5762ZM425.008 84.7299C426.622 84.1462 427.765 82.6684 427.765 81.0416V79.9985H428.696V81.0416C428.696 82.6063 429.876 83.9724 431.466 84.5188L431.006 85.2515C429.752 84.8168 428.734 83.8854 428.249 82.6809C427.777 83.96 426.759 84.9783 425.468 85.4626L425.008 84.7299ZM426.809 90.281V86.3816H433.8V90.281H426.809ZM427.715 89.5234H432.894V87.1267H427.715V89.5234ZM438.416 86.2698H439.31V86.8659C439.31 87.8469 439.832 88.8777 440.85 89.4738C441.906 88.8156 442.44 87.7103 442.44 86.8659V86.2698H443.346V86.8659C443.346 87.996 444.178 89.1136 445.544 89.5855L445.085 90.281C444.017 89.896 443.259 89.126 442.874 88.2195C442.552 89.1012 441.893 89.9457 440.887 90.3803C439.844 89.9705 439.174 89.1757 438.851 88.2568C438.466 89.126 437.721 89.8836 436.69 90.281L436.218 89.5855C437.584 89.0888 438.416 87.909 438.416 86.8659V86.2698ZM435.932 82.7429C435.932 81.2403 437.112 80.2096 438.751 80.2096C440.391 80.2096 441.57 81.2403 441.57 82.7429C441.57 84.2332 440.391 85.2515 438.751 85.2515C437.112 85.2515 435.932 84.2332 435.932 82.7429ZM436.839 82.7429C436.839 83.7737 437.646 84.4815 438.751 84.4815C439.869 84.4815 440.664 83.7737 440.664 82.7429C440.664 81.7122 439.869 80.9919 438.751 80.9919C437.646 80.9919 436.839 81.7122 436.839 82.7429ZM443.632 85.7855V79.5762H444.576V85.7855H443.632ZM447.763 79.9612H448.682V82.8671H455.128V83.6247H447.763V79.9612ZM446.422 85.8848V85.1149H456.27V85.8848H446.422ZM447.701 90.1692V86.9901H448.62V89.3993H455.19V90.1692H447.701ZM459.931 85.1894H464.377V83.8606H461.248V79.8246H462.167V81.0789H467.532V79.8246H468.463V83.8606H465.296V85.1894H469.742V85.9593H459.931V85.1894ZM461.024 87.8221V87.0646H468.525V90.43H467.606V87.8221H461.024ZM462.167 83.1155H467.532V81.8116H462.167V83.1155ZM471.017 80.6815H477.09V81.4638H474.507V82.9292C474.507 84.7796 475.873 86.6423 477.438 87.3254L476.904 88.0705C475.662 87.4868 474.557 86.2201 474.047 84.7175C473.551 86.3195 472.458 87.7103 471.216 88.3313L470.682 87.5986C472.209 86.8535 473.575 84.8044 473.575 82.9292V81.4638H471.017V80.6815ZM478.605 90.43V79.5638H479.536V90.43H478.605ZM481.433 84.9659H483.879V83.4135C483.01 83.0658 482.525 82.5194 482.525 81.7867C482.525 80.5076 483.991 79.7749 486.338 79.7749C488.685 79.7749 490.15 80.5076 490.15 81.7867C490.15 82.5194 489.666 83.0658 488.809 83.4011V84.9659H491.243V85.711H481.433V84.9659ZM482.625 88.4803C482.625 87.2633 484.016 86.5678 486.338 86.5678C488.66 86.5678 490.051 87.2633 490.051 88.4803C490.051 89.7221 488.66 90.4176 486.338 90.4176C484.016 90.4176 482.625 89.7221 482.625 88.4803ZM483.482 81.7867C483.482 82.5815 484.587 83.0658 486.338 83.0658C488.089 83.0658 489.194 82.5815 489.194 81.7867C489.194 80.9795 488.089 80.4952 486.338 80.4952C484.587 80.4952 483.482 80.9795 483.482 81.7867ZM483.556 88.4803C483.556 89.2502 484.599 89.6849 486.338 89.6849C488.064 89.6849 489.107 89.2502 489.107 88.4803C489.107 87.7352 488.064 87.2881 486.338 87.2881C484.599 87.2881 483.556 87.7352 483.556 88.4803ZM484.798 84.9659H487.89V83.6619C487.431 83.7364 486.909 83.7861 486.338 83.7861C485.767 83.7861 485.257 83.7488 484.798 83.6619V84.9659ZM493.437 80.2841H500.702V81.2279C500.702 82.2586 500.702 83.3763 500.392 84.9534H502.006V85.7358H497.548V90.4548H496.604V85.7358H492.183V84.9534H499.448C499.783 83.4011 499.783 82.2462 499.783 81.2279V81.0416H493.437V80.2841ZM502.934 84.643H512.782V85.3508H502.934V84.643ZM504.113 86.9404V86.2574H511.54V88.5548H505.057V89.5979H511.887V90.2934H504.138V87.8966H510.633V86.9404H504.113ZM504.188 80.5821V79.8991H511.502V82.1344H505.119V83.1031H511.701V83.7985H504.213V81.4887H510.583V80.5821H504.188ZM523.857 79.5638H524.788V83.8606H526.589V84.6554H524.788V90.43H523.857V79.5638ZM516.902 87.8097V80.4952H517.821V83.3763H521.025V80.4952H521.944V87.8097H516.902ZM517.821 87.0397H521.025V84.1214H517.821V87.0397ZM534.694 79.5638H535.626V82.4076H537.24V83.19H535.626V86.2574H534.694V79.5638ZM527.715 85.4998V80.3338H532.657V81.0913H528.646V82.507H532.471V83.2521H528.646V84.7423C530.757 84.7423 531.962 84.6926 533.39 84.4443L533.49 85.1894C531.999 85.4502 530.757 85.4998 528.535 85.4998H527.715ZM528.621 88.4679C528.621 87.2384 529.963 86.5306 532.186 86.5306C534.408 86.5306 535.75 87.2384 535.75 88.4679C535.75 89.6973 534.408 90.4052 532.186 90.4052C529.963 90.4052 528.621 89.6973 528.621 88.4679ZM529.54 88.4679C529.54 89.2254 530.546 89.6849 532.186 89.6849C533.825 89.6849 534.831 89.2254 534.831 88.4679C534.831 87.7228 533.825 87.2633 532.186 87.2633C530.546 87.2633 529.54 87.7228 529.54 88.4679ZM542.849 80.2592C545.109 80.2592 546.786 81.4514 546.786 83.2397C546.786 85.0404 545.109 86.2201 542.849 86.2201C540.601 86.2201 538.913 85.0404 538.913 83.2397C538.913 81.4514 540.601 80.2592 542.849 80.2592ZM537.944 88.9646V88.1822H547.792V88.9646H537.944ZM539.807 83.2397C539.807 84.5685 541.111 85.4626 542.849 85.4626C544.6 85.4626 545.892 84.5685 545.892 83.2397C545.892 81.9233 544.6 81.0168 542.849 81.0168C541.111 81.0168 539.807 81.9233 539.807 83.2397ZM548.694 88.294H553.14V86.2077H549.936V82.8795H556.394V81.1285H549.911V80.371H557.313V83.6247H550.855V85.4502H557.561V86.2077H554.059V88.294H558.542V89.064H548.694V88.294ZM417.226 106.741C418.418 106.741 419.25 105.859 419.25 104.978C419.25 104.108 418.418 103.251 417.226 103.251C416.046 103.251 415.201 104.108 415.201 104.978C415.201 105.859 416.033 106.741 417.226 106.741ZM414.307 104.953C414.307 104.034 414.965 103.239 415.76 102.78C415.114 102.345 414.543 101.662 414.543 100.855C414.543 99.4266 415.822 98.3958 417.226 98.3958C418.629 98.3958 419.92 99.4266 419.92 100.855C419.92 101.662 419.349 102.345 418.703 102.78C419.486 103.239 420.144 104.034 420.144 104.953C420.144 106.505 418.765 107.635 417.226 107.635C415.686 107.635 414.307 106.505 414.307 104.953ZM415.437 100.83C415.437 101.587 416.17 102.345 417.226 102.345C418.294 102.345 419.026 101.587 419.026 100.83C419.026 100.06 418.294 99.29 417.226 99.29C416.17 99.29 415.437 100.06 415.437 100.83ZM422.639 103.289L421.745 103.264L421.906 98.5449H426.501V99.439H422.776L422.676 102.109C423.123 101.848 423.645 101.699 424.191 101.699C425.818 101.699 427.147 103.065 427.147 104.642C427.147 106.356 425.806 107.648 424.191 107.648C422.801 107.648 421.621 106.691 421.323 105.4L422.192 105.201C422.403 106.145 423.173 106.753 424.191 106.753C425.384 106.753 426.253 105.921 426.253 104.642C426.253 103.487 425.384 102.593 424.191 102.593C423.546 102.593 423.024 102.842 422.639 103.289ZM430.958 107.499L436.559 98.5573H437.577L431.952 107.499H430.958ZM428.909 100.842C428.909 99.5135 429.952 98.4083 431.281 98.4083C432.61 98.4083 433.641 99.5135 433.641 100.842C433.641 102.159 432.61 103.276 431.281 103.276C429.952 103.276 428.909 102.159 428.909 100.842ZM429.828 100.842C429.828 101.699 430.499 102.382 431.281 102.382C432.076 102.382 432.734 101.699 432.734 100.842C432.734 99.9854 432.076 99.3024 431.281 99.3024C430.499 99.3024 429.828 99.9854 429.828 100.842ZM434.783 105.176C434.783 103.848 435.826 102.742 437.155 102.742C438.484 102.742 439.515 103.848 439.515 105.176C439.515 106.493 438.484 107.61 437.155 107.61C435.826 107.61 434.783 106.493 434.783 105.176ZM435.702 105.176C435.702 106.033 436.373 106.716 437.155 106.716C437.95 106.716 438.608 106.033 438.608 105.176C438.608 104.319 437.95 103.636 437.155 103.636C436.373 103.636 435.702 104.319 435.702 105.176ZM440.65 102.991C441.122 101.823 442.177 101.625 442.637 101.649C443.332 101.699 443.68 101.972 443.792 102.047L444.835 102.693C444.996 102.792 445.158 102.929 445.543 102.953C445.853 102.966 446.35 102.879 446.598 102.221L447.467 102.544C447.008 103.723 445.94 103.885 445.493 103.872C444.797 103.848 444.45 103.537 444.363 103.487L443.295 102.817C443.133 102.717 442.984 102.593 442.587 102.568C442.264 102.556 441.78 102.668 441.494 103.338L440.65 102.991ZM451.354 98.5697V107.523H450.46V99.6501L449.194 100.495L448.697 99.7495L450.46 98.5697H451.354ZM456.274 106.716C457.69 106.716 458.559 105.536 458.559 103.04C458.559 100.544 457.69 99.3769 456.274 99.3769C454.846 99.3769 453.976 100.544 453.976 103.04C453.976 105.536 454.846 106.716 456.274 106.716ZM453.082 103.04C453.082 100.172 454.349 98.4828 456.274 98.4828C458.186 98.4828 459.453 100.172 459.453 103.04C459.453 105.909 458.199 107.61 456.274 107.61C454.337 107.61 453.082 105.909 453.082 103.04ZM463.799 106.716C465.214 106.716 466.084 105.536 466.084 103.04C466.084 100.544 465.214 99.3769 463.799 99.3769C462.37 99.3769 461.501 100.544 461.501 103.04C461.501 105.536 462.37 106.716 463.799 106.716ZM460.607 103.04C460.607 100.172 461.874 98.4828 463.799 98.4828C465.711 98.4828 466.978 100.172 466.978 103.04C466.978 105.909 465.723 107.61 463.799 107.61C461.861 107.61 460.607 105.909 460.607 103.04ZM470.777 107.499L476.378 98.5573H477.396L471.77 107.499H470.777ZM468.728 100.842C468.728 99.5135 469.771 98.4083 471.1 98.4083C472.428 98.4083 473.459 99.5135 473.459 100.842C473.459 102.159 472.428 103.276 471.1 103.276C469.771 103.276 468.728 102.159 468.728 100.842ZM469.647 100.842C469.647 101.699 470.317 102.382 471.1 102.382C471.894 102.382 472.553 101.699 472.553 100.842C472.553 99.9854 471.894 99.3024 471.1 99.3024C470.317 99.3024 469.647 99.9854 469.647 100.842ZM474.602 105.176C474.602 103.848 475.645 102.742 476.974 102.742C478.302 102.742 479.333 103.848 479.333 105.176C479.333 106.493 478.302 107.61 476.974 107.61C475.645 107.61 474.602 106.493 474.602 105.176ZM475.521 105.176C475.521 106.033 476.191 106.716 476.974 106.716C477.768 106.716 478.427 106.033 478.427 105.176C478.427 104.319 477.768 103.636 476.974 103.636C476.191 103.636 475.521 104.319 475.521 105.176ZM484.035 98.6815H490.107V99.4638H487.524V100.929C487.524 102.78 488.89 104.642 490.455 105.325L489.921 106.07C488.679 105.487 487.574 104.22 487.065 102.717C486.568 104.319 485.475 105.71 484.234 106.331L483.7 105.599C485.227 104.853 486.593 102.804 486.593 100.929V99.4638H484.035V98.6815ZM491.623 108.43V97.5638H492.554V108.43H491.623ZM502.373 97.5638H503.304V105.835H502.373V104.68H500.15V103.997H502.373V97.5638ZM494.376 102.606C496.387 102.606 499.082 102.581 501.404 102.295L501.467 102.966C500.498 103.127 499.48 103.227 498.486 103.276V105.437H497.555V103.326C496.462 103.376 495.419 103.388 494.512 103.388L494.376 102.606ZM495.245 99.8985C495.245 98.756 496.325 98.0109 497.915 98.0109C499.504 98.0109 500.585 98.756 500.585 99.8985C500.585 101.053 499.504 101.786 497.915 101.786C496.325 101.786 495.245 101.053 495.245 99.8985ZM495.94 108.182V105.027H496.872V107.412H503.578V108.182H495.94ZM496.127 99.8985C496.127 100.619 496.872 101.078 497.915 101.078C498.97 101.078 499.691 100.619 499.691 99.8985C499.691 99.1782 498.97 98.7063 497.915 98.7063C496.872 98.7063 496.127 99.1782 496.127 99.8985ZM516.28 97.5638H517.174V108.43H516.28V97.5638ZM507.934 100.209V99.4514H510.157V97.8494H511.076V99.4514H513.312V100.209H507.934ZM508.332 103.475C508.332 101.997 509.288 100.979 510.604 100.979C511.921 100.979 512.877 101.997 512.877 103.475C512.877 103.562 512.877 103.649 512.865 103.736H514.293V102.022H512.753V101.265H514.293V97.8122H515.162V107.884H514.293V104.493H512.703C512.38 105.4 511.585 105.984 510.604 105.984C509.288 105.984 508.332 104.953 508.332 103.475ZM509.164 103.475C509.164 104.468 509.772 105.176 510.604 105.176C511.449 105.176 512.057 104.468 512.057 103.475C512.057 102.482 511.449 101.774 510.604 101.774C509.772 101.774 509.164 102.482 509.164 103.475ZM519.194 98.3586H523.367V99.1285H520.088V100.532H523.255V101.265H520.088V102.792C521.678 102.792 522.659 102.73 523.814 102.506L523.913 103.264C522.659 103.512 521.628 103.562 519.877 103.562H519.194V98.3586ZM520.585 105.499V104.729H527.85V108.43H526.931V105.499H520.585ZM524.559 104.084V97.7749H525.441V100.42H526.968V97.5638H527.85V104.146H526.968V101.19H525.441V104.084H524.559ZM534.366 97.7625C536.75 97.7625 538.178 98.4207 538.178 99.6377C538.178 100.855 536.75 101.525 534.366 101.525C531.981 101.525 530.553 100.855 530.553 99.6377C530.553 98.4207 531.981 97.7625 534.366 97.7625ZM529.46 103.04V102.283H539.271V103.04H529.46ZM530.653 104.717V103.997H538.004V106.406H531.596V107.573H538.34V108.306H530.69V105.723H537.098V104.717H530.653ZM531.509 99.6377C531.509 100.395 532.577 100.817 534.366 100.817C536.154 100.817 537.222 100.395 537.222 99.6377C537.222 98.8926 536.154 98.4579 534.366 98.4579C532.577 98.4579 531.509 98.8926 531.509 99.6377ZM550.47 97.5638H551.402V100.184H553.016V100.979H551.402V103.922H550.47V97.5638ZM543.454 103.227V98.1599H544.373V99.8612H547.54V98.1599H548.458V103.227H543.454ZM544.373 102.457H547.54V100.606H544.373V102.457ZM544.646 108.281V104.531H551.489V105.288H545.577V107.511H551.7V108.281H544.646ZM558.625 97.7625C561.01 97.7625 562.438 98.4207 562.438 99.6377C562.438 100.855 561.01 101.525 558.625 101.525C556.241 101.525 554.813 100.855 554.813 99.6377C554.813 98.4207 556.241 97.7625 558.625 97.7625ZM553.72 103.04V102.283H563.531V103.04H553.72ZM554.912 104.717V103.997H562.264V106.406H555.856V107.573H562.599V108.306H554.95V105.723H561.357V104.717H554.912ZM555.769 99.6377C555.769 100.395 556.837 100.817 558.625 100.817C560.414 100.817 561.482 100.395 561.482 99.6377C561.482 98.8926 560.414 98.4579 558.625 98.4579C556.837 98.4579 555.769 98.8926 555.769 99.6377ZM571.663 97.9612H572.631V98.5821C572.631 100.122 574.643 101.451 576.556 101.736L576.171 102.482C574.519 102.196 572.855 101.252 572.159 99.9233C571.476 101.277 569.8 102.196 568.123 102.482L567.738 101.736C569.676 101.451 571.663 100.159 571.663 98.5821V97.9612ZM567.229 104.481V103.711H577.052V104.481H572.582V108.43H571.663V104.481H567.229ZM416.915 123.27H417.809V123.866C417.809 124.847 418.331 125.878 419.349 126.474C420.405 125.816 420.939 124.71 420.939 123.866V123.27H421.845V123.866C421.845 124.996 422.677 126.114 424.043 126.586L423.584 127.281C422.516 126.896 421.758 126.126 421.373 125.219C421.05 126.101 420.392 126.946 419.386 127.38C418.343 126.971 417.673 126.176 417.35 125.257C416.965 126.126 416.22 126.884 415.189 127.281L414.717 126.586C416.083 126.089 416.915 124.909 416.915 123.866V123.27ZM414.431 119.743C414.431 118.24 415.611 117.21 417.25 117.21C418.89 117.21 420.069 118.24 420.069 119.743C420.069 121.233 418.89 122.251 417.25 122.251C415.611 122.251 414.431 121.233 414.431 119.743ZM415.338 119.743C415.338 120.774 416.145 121.482 417.25 121.482C418.368 121.482 419.163 120.774 419.163 119.743C419.163 118.712 418.368 117.992 417.25 117.992C416.145 117.992 415.338 118.712 415.338 119.743ZM422.131 122.785V116.576H423.075V122.785H422.131ZM426.262 116.961H427.181V119.867H433.626V120.625H426.262V116.961ZM424.921 122.885V122.115H434.769V122.885H424.921ZM426.2 127.169V123.99H427.119V126.399H433.689V127.169H426.2ZM438.766 117.681H444.838V118.464H442.255V119.929C442.255 121.78 443.621 123.642 445.186 124.325L444.652 125.07C443.41 124.487 442.305 123.22 441.796 121.717C441.299 123.319 440.206 124.71 438.964 125.331L438.43 124.599C439.958 123.853 441.324 121.804 441.324 119.929V118.464H438.766V117.681ZM446.353 127.43V116.564H447.285V127.43H446.353ZM459.428 116.564H460.359V118.936H461.986V119.706H460.359V122.102H459.428V116.564ZM452.163 119.37C452.163 117.955 453.343 116.961 454.945 116.961C456.572 116.961 457.751 117.955 457.751 119.37C457.751 120.799 456.572 121.78 454.945 121.78C453.343 121.78 452.163 120.799 452.163 119.37ZM453.07 119.37C453.07 120.327 453.864 121.022 454.945 121.022C456.05 121.022 456.845 120.327 456.845 119.37C456.845 118.414 456.05 117.719 454.945 117.719C453.864 117.719 453.07 118.414 453.07 119.37ZM453.504 123.369V122.624H460.359V125.257H454.448V126.523H460.757V127.281H453.529V124.549H459.44V123.369H453.504ZM470.675 116.551H471.594V127.442H470.675V122.798H468.415V122.04H470.675V119.83H468.489V119.06H470.675V116.551ZM463.063 118.327V117.557H467.794V121.407H464.006V124.114C465.646 124.114 466.999 124.052 468.638 123.791L468.725 124.574C467.012 124.847 465.621 124.897 463.895 124.897H463.087V120.637H466.875V118.327H463.063ZM474.707 117.57H482.022V118.34H475.626V121.792H482.146V122.55H474.707V117.57ZM473.441 125.927V125.157H483.288V125.927H473.441ZM492.176 116.551H493.095V127.442H492.176V122.798H489.916V122.04H492.176V119.83H489.991V119.06H492.176V116.551ZM484.564 118.327V117.557H489.295V121.407H485.507V124.114C487.147 124.114 488.5 124.052 490.14 123.791L490.226 124.574C488.513 124.847 487.122 124.897 485.396 124.897H484.588V120.637H488.376V118.327H484.564ZM494.942 125.244H497.388V122.276C496.469 121.804 495.91 121.022 495.91 120.041C495.91 118.352 497.562 117.259 499.847 117.259C502.157 117.259 503.784 118.352 503.784 120.041C503.784 121.01 503.237 121.78 502.343 122.264V125.244H504.79V126.014H494.942V125.244ZM496.817 120.041C496.817 121.27 498.084 122.078 499.847 122.078C501.61 122.078 502.89 121.27 502.89 120.041C502.89 118.812 501.61 118.004 499.847 118.004C498.084 118.004 496.817 118.812 496.817 120.041ZM498.307 125.244H501.412V122.624C500.94 122.748 500.418 122.81 499.847 122.81C499.288 122.81 498.779 122.748 498.307 122.624V125.244Z" fill="#616161"/>
</g>
<rect x="609.886" y="91.0898" width="16.558" height="16.558" rx="8.27899" fill="#333333"/>
<path d="M617.966 102.166C618.871 102.166 619.5 101.647 619.5 100.786C619.5 99.9692 618.86 99.3952 617.966 99.3952C617.083 99.3952 616.464 99.9692 616.464 100.786C616.464 101.647 617.06 102.166 617.966 102.166ZM615.14 100.786C615.14 100.356 615.25 99.9472 615.449 99.5829H615.438L617.833 95.322H619.345L617.789 98.0816C617.855 98.0706 617.91 98.0706 617.977 98.0706C619.445 98.0706 620.825 99.2738 620.825 100.786C620.825 102.365 619.456 103.491 617.977 103.491C616.508 103.491 615.14 102.365 615.14 100.786Z" fill="white"/>
<path d="M582.289 103.049C584.321 103.049 585.969 101.401 585.969 99.3691C585.969 97.337 584.321 95.6896 582.289 95.6896C580.257 95.6896 578.61 97.337 578.61 99.3691C578.61 101.401 580.257 103.049 582.289 103.049ZM582.289 99.3691L582.289 100.059L610.328 100.059L610.328 99.3691L610.328 98.6792L582.289 98.6792L582.289 99.3691Z" fill="#333333"/>
<rect x="362.896" y="0.0205078" width="16.558" height="16.558" rx="8.27899" fill="#333333"/>
<path d="M369.761 8.82263L368.436 8.76743L368.613 4.28574H373.139V5.61038H369.883L369.827 7.21098C370.17 7.06748 370.545 6.99021 370.931 6.99021C372.432 6.99021 373.801 8.11615 373.801 9.71676C373.801 11.2401 372.41 12.4543 370.931 12.4543C369.673 12.4543 368.448 11.5602 368.149 10.3018L369.441 10.0038C369.607 10.6992 370.181 11.1297 370.931 11.1297C371.825 11.1297 372.477 10.5447 372.477 9.71676C372.477 8.83367 371.858 8.31485 370.931 8.31485C370.423 8.31485 370.081 8.46939 369.761 8.82263Z" fill="white"/>
<path d="M374.854 44.6172C374.854 42.585 373.207 40.9376 371.175 40.9376C369.143 40.9376 367.495 42.585 367.495 44.6172C367.495 46.6493 369.143 48.2967 371.175 48.2967C373.207 48.2967 374.854 46.6493 374.854 44.6172ZM371.175 44.6172L371.865 44.6172L371.865 16.5785L371.175 16.5785L370.485 16.5785L370.485 44.6172L371.175 44.6172Z" fill="#333333"/>
<rect x="423.608" y="0.0205078" width="16.558" height="16.558" rx="8.27899" fill="#333333"/>
<path d="M429.072 11.0193C430.695 9.46287 432.814 8.2155 432.814 6.9019C432.814 5.94154 432.229 5.53311 431.501 5.53311C431.026 5.53311 430.43 5.70973 430.066 6.50451L428.862 5.96362C429.492 4.56171 430.783 4.20847 431.501 4.20847C432.748 4.20847 434.139 5.17987 434.139 6.9019C434.139 8.56874 432.516 9.86026 431.103 11.0193H434.26V12.344H429.072V11.0193Z" fill="white"/>
<path d="M435.567 44.6172C435.567 42.585 433.92 40.9376 431.888 40.9376C429.856 40.9376 428.208 42.585 428.208 44.6172C428.208 46.6493 429.856 48.2967 431.888 48.2967C433.92 48.2967 435.567 46.6493 435.567 44.6172ZM431.888 44.6172L432.578 44.6172L432.578 16.5785L431.888 16.5785L431.198 16.5785L431.198 44.6172L431.888 44.6172Z" fill="#333333"/>
<g filter="url(#filter1_dd_1130_60637)">
<path d="M42.7744 56.5943C42.7744 50.4978 47.7166 45.5557 53.8131 45.5557H296.663C302.76 45.5557 307.702 50.4978 307.702 56.5943V96.8692C307.702 102.966 302.76 107.908 296.663 107.908H53.8131C47.7166 107.908 42.7744 102.966 42.7744 96.8692V56.5943Z" fill="white" shape-rendering="crispEdges"/>
<path d="M69.2582 68.3496C67.0242 68.3496 65.6099 66.6381 65.6099 64.568C65.6099 62.4979 67.0242 60.7865 69.2582 60.7865C70.2728 60.7865 71.1849 61.2169 71.8408 61.8933L71.2976 62.4057C70.775 61.8625 70.0576 61.5448 69.2582 61.5448C67.4648 61.5448 66.358 62.8873 66.358 64.568C66.358 66.259 67.4648 67.6015 69.2582 67.6015C70.0576 67.6015 70.775 67.2735 71.2976 66.7304L71.8408 67.2428C71.1849 67.9191 70.2728 68.3496 69.2582 68.3496ZM75.131 67.6015C76.0533 67.6015 76.8834 66.8533 76.8937 65.7056C76.8834 64.568 76.0533 63.8097 75.131 63.8097C73.9935 63.8097 73.3786 64.6295 73.3786 65.7056C73.3786 66.7816 73.9935 67.6015 75.131 67.6015ZM72.6407 65.7056C72.6407 64.2811 73.5323 63.082 75.1208 63.082C75.7254 63.082 76.4018 63.3997 76.8732 64.1581V63.0513H77.611V68.2676H76.8732V67.2428C76.3813 68.0421 75.7356 68.3393 75.1208 68.3393C73.5323 68.3393 72.6407 67.1198 72.6407 65.7056ZM81.5652 68.1548C81.3808 68.1958 81.1041 68.2471 80.8069 68.2471C80.028 68.2471 79.4029 67.6219 79.4029 66.8533V63.7277H78.5523V63.0103H79.4029V61.4014H80.1408V63.0103H81.3603V63.7277H80.1408V66.8533C80.1408 67.2633 80.3867 67.5092 80.8069 67.5092C81.0426 67.5092 81.2373 67.4785 81.4013 67.4375L81.5652 68.1548ZM86.1965 65.2956C86.1146 64.5578 85.7559 63.7687 84.6491 63.7687C83.6755 63.7687 83.0504 64.2913 82.9172 65.3059L86.1965 65.2956ZM82.1588 65.6646C82.1588 64.2298 83.0196 63.0308 84.6183 63.0308C86.2785 63.0308 86.6987 64.3221 86.7499 64.445C87.0574 65.2854 86.9344 66.0232 86.9344 66.0232H82.9172C83.0504 66.9866 83.6755 67.5605 84.6286 67.5605C85.8071 67.5605 86.0941 66.9148 86.1658 66.8123L86.8012 67.1505C86.8012 67.1505 86.3708 68.2983 84.6183 68.2983C83.0196 68.2983 82.1588 67.089 82.1588 65.6646ZM90.2338 67.6219C91.2073 67.6219 91.976 66.7714 91.976 65.7056C91.976 64.6603 91.1971 63.8097 90.2338 63.8097C89.168 63.8097 88.4814 64.5578 88.4814 65.7056C88.4814 66.8738 89.168 67.6219 90.2338 67.6219ZM87.7435 65.7056C87.7435 64.1581 88.7581 63.0923 90.2235 63.0923C91.0024 63.0923 91.6685 63.5022 91.976 64.1683V63.0513H92.7138V68.0114C92.6933 69.6716 91.73 70.6144 90.0698 70.6144C89.2397 70.6144 88.5121 70.184 87.9792 69.3846L88.6043 68.9849C88.9835 69.5793 89.4754 69.8765 90.0698 69.8765C91.3406 69.8765 91.9657 69.2616 91.976 68.0011V67.2223C91.6173 67.8679 90.8897 68.3393 90.2235 68.3393C88.7581 68.3393 87.7435 67.2633 87.7435 65.7056ZM96.0684 67.5912C97.2162 67.5912 97.8209 66.7509 97.8209 65.6646C97.8209 64.5783 97.2162 63.7379 96.0684 63.7379C94.9104 63.7379 94.3263 64.5783 94.3263 65.6646C94.3263 66.7509 94.9104 67.5912 96.0684 67.5912ZM93.5884 65.6646C93.5884 64.2401 94.4697 63.0206 96.0684 63.0206C97.6774 63.0206 98.5587 64.2401 98.5587 65.6646C98.5587 67.089 97.6774 68.3086 96.0684 68.3086C94.4697 68.3086 93.5884 67.089 93.5884 65.6646ZM100.215 64.1478C100.512 63.4612 101.362 63.0001 102.069 63.0001V63.7584C101.116 63.7584 100.215 64.7525 100.215 65.5826V68.2676H99.4767V63.0513H100.215V64.1478ZM104.772 70.6246H103.972L104.997 68.0729L102.866 63.0513H103.675L105.387 67.089L107.026 63.0513H107.826L105.838 67.9499L104.772 70.6246Z" fill="#616161"/>
<path d="M72.6255 81.5899V82.9339H69.7926V91.2875H68.4223V82.9339H65.5762V81.5899H72.6255ZM73.9782 84.3833H75.3485V91.3139H73.9782V84.3833ZM73.8728 81.9062C73.8728 81.4713 74.1495 81.1288 74.6634 81.1288C75.1509 81.1288 75.4276 81.4713 75.4276 81.9062C75.4276 82.341 75.1509 82.6835 74.6634 82.6835C74.1495 82.6835 73.8728 82.341 73.8728 81.9062ZM81.0895 91.1163C80.8128 91.1821 80.2331 91.2875 79.7719 91.2612C78.7442 91.2085 77.7692 90.3257 77.7692 89.1794V85.6877H76.5965V84.3437H77.7692V82.0116H79.1395V84.3437H80.9183V85.6877H79.1395V89.1794C79.1395 89.6274 79.4162 89.8777 79.8642 89.8909C80.1672 89.9041 80.5493 89.8382 80.7865 89.7855L81.0895 91.1163ZM82.1432 81.3132H83.5135V91.3139H82.1432V81.3132ZM89.7035 87.3084C89.5981 86.3992 89.0447 85.6482 87.8852 85.6482C86.8179 85.6482 86.0405 86.1884 85.8824 87.3084H89.7035ZM84.5648 87.8618C84.5648 85.9776 85.7375 84.3833 87.8588 84.3833C90.0461 84.3833 90.6654 86.1225 90.7181 86.2543C91.1265 87.3215 91.0079 88.4679 91.0079 88.4679H85.8824C86.0932 89.4561 86.7916 90.0622 87.872 90.0622C89.2028 90.0622 89.5059 89.3243 89.5586 89.2452L90.7576 89.7986C90.7576 89.7986 90.1647 91.3271 87.8588 91.3271C85.7375 91.3271 84.5648 89.7328 84.5648 87.8618Z" fill="#1A1A1A"/>
<path fill-rule="evenodd" clip-rule="evenodd" d="M274.257 81.4147C274.471 81.2003 274.819 81.2003 275.033 81.4147L279.425 85.8067C279.639 86.0211 279.639 86.3688 279.425 86.5832L275.033 90.9752C274.819 91.1896 274.471 91.1896 274.257 90.9752C274.042 90.7608 274.042 90.4132 274.257 90.1988L278.26 86.1949L274.257 82.1911C274.042 81.9767 274.042 81.6291 274.257 81.4147Z" fill="#BDBDBD"/>
</g>
<rect x="267.688" y="126.966" width="16.558" height="16.558" rx="8.27899" fill="#333333"/>
<path d="M277.81 131.231V136.143H278.759V137.446H277.81V139.289H276.496V137.446H272.941V136.143L276.551 131.231H277.81ZM274.487 136.143H276.496V133.406L274.487 136.143Z" fill="white"/>
<path d="M272.287 99.3691C272.287 101.401 273.935 103.049 275.967 103.049C277.999 103.049 279.646 101.401 279.646 99.3691C279.646 97.337 277.999 95.6896 275.967 95.6896C273.935 95.6896 272.287 97.337 272.287 99.3691ZM275.967 99.3691H275.277V127.408H275.967H276.657V99.3691H275.967Z" fill="#333333"/>
<rect x="80.0303" y="11.0596" width="16.558" height="16.558" rx="8.27899" fill="#333333"/>
<path d="M89.5893 19.2104C90.2958 19.6188 90.8477 20.3032 90.8477 21.1091C90.8477 22.4558 89.7438 23.4493 88.0549 23.4493C86.3771 23.4493 85.2842 22.4558 85.2842 21.0097H86.6089C86.6089 21.6058 87.0283 22.1688 88.0549 22.1688C89.0926 22.1688 89.5672 21.6058 89.5672 21.0097C89.5672 20.4026 89.1919 19.8065 88.077 19.8065H87.514V18.6254H88.0991C89.0153 18.6254 89.4458 18.0845 89.4458 17.5436C89.4458 17.0248 89.0374 16.5391 88.1322 16.5391C87.216 16.5391 86.8517 17.0248 86.8517 17.5546H85.5271C85.5271 16.1858 86.5868 15.2586 88.1322 15.2586C89.6555 15.2586 90.7153 16.1858 90.7153 17.4553C90.7153 18.1949 90.2406 18.813 89.5893 19.2104Z" fill="white"/>
<path d="M91.9891 55.6563C91.9891 53.6241 90.3417 51.9767 88.3096 51.9767C86.2774 51.9767 84.63 53.6241 84.63 55.6562C84.63 57.6884 86.2774 59.3358 88.3096 59.3358C90.3417 59.3358 91.9891 57.6884 91.9891 55.6563ZM88.3096 55.6562L88.9995 55.6563L88.9995 27.6176L88.3096 27.6176L87.6197 27.6176L87.6197 55.6562L88.3096 55.6562Z" fill="#333333"/>
<rect y="51.0742" width="16.558" height="16.558" rx="8.27899" fill="#333333"/>
<path d="M9.44413 55.3395V63.3977L8.11949 63.3866V56.7966L6.67343 57.4589L6.17669 56.2446L8.11949 55.3395H9.44413Z" fill="white"/>
<path d="M43.876 55.674C41.8438 55.674 40.1964 57.3214 40.1964 59.3535C40.1964 61.3857 41.8438 63.0331 43.876 63.0331C45.9081 63.0331 47.5555 61.3857 47.5555 59.3535C47.5555 57.3214 45.9081 55.674 43.876 55.674ZM43.876 59.3535L43.876 58.6636L16.2793 58.6636L16.2793 59.3535L16.2793 60.0434L43.876 60.0434L43.876 59.3535Z" fill="#333333"/>
<rect y="81.4307" width="16.558" height="16.558" rx="8.27899" fill="#333333"/>
<path d="M5.46369 92.4295C7.08638 90.873 9.2058 89.6257 9.2058 88.3121C9.2058 87.3517 8.62075 86.9433 7.8922 86.9433C7.41754 86.9433 6.82145 87.1199 6.45717 87.9147L5.25396 87.3738C5.88316 85.9719 7.17469 85.6186 7.8922 85.6186C9.13957 85.6186 10.5304 86.59 10.5304 88.3121C10.5304 89.9789 8.90775 91.2704 7.49481 92.4295H10.6519V93.7541H5.46369V92.4295Z" fill="white"/>
<path d="M55.1934 86.0304C53.1612 86.0304 51.5138 87.6778 51.5138 89.71C51.5138 91.7421 53.1612 93.3895 55.1934 93.3895C57.2255 93.3895 58.8729 91.7421 58.8729 89.71C58.8729 87.6778 57.2255 86.0304 55.1934 86.0304ZM55.1934 89.71V89.02H16.5581V89.71V90.3999H55.1934V89.71Z" fill="#333333"/>
<defs>
<filter id="filter0_dd_1130_60637" x="324.818" y="12.9268" width="296.928" height="158.674" filterUnits="userSpaceOnUse" color-interpolation-filters="sRGB">
<feFlood flood-opacity="0" result="BackgroundImageFix"/>
<feColorMatrix in="SourceAlpha" type="matrix" values="0 0 0 0 0 0 0 0 0 0 0 0 0 0 0 0 0 0 127 0" result="hardAlpha"/>
<feOffset/>
<feGaussianBlur stdDeviation="0.5"/>
<feComposite in2="hardAlpha" operator="out"/>
<feColorMatrix type="matrix" values="0 0 0 0 0 0 0 0 0 0 0 0 0 0 0 0 0 0 0.2 0"/>
<feBlend mode="normal" in2="BackgroundImageFix" result="effect1_dropShadow_1130_60637"/>
<feColorMatrix in="SourceAlpha" type="matrix" values="0 0 0 0 0 0 0 0 0 0 0 0 0 0 0 0 0 0 127 0" result="hardAlpha"/>
<feOffset dy="2"/>
<feGaussianBlur stdDeviation="8"/>
<feComposite in2="hardAlpha" operator="out"/>
<feColorMatrix type="matrix" values="0 0 0 0 0 0 0 0 0 0 0 0 0 0 0 0 0 0 0.08 0"/>
<feBlend mode="normal" in2="effect1_dropShadow_1130_60637" result="effect2_dropShadow_1130_60637"/>
<feBlend mode="normal" in="SourceGraphic" in2="effect2_dropShadow_1130_60637" result="shape"/>
</filter>
<filter id="filter1_dd_1130_60637" x="26.7744" y="31.5557" width="296.928" height="94.3525" filterUnits="userSpaceOnUse" color-interpolation-filters="sRGB">
<feFlood flood-opacity="0" result="BackgroundImageFix"/>
<feColorMatrix in="SourceAlpha" type="matrix" values="0 0 0 0 0 0 0 0 0 0 0 0 0 0 0 0 0 0 127 0" result="hardAlpha"/>
<feOffset/>
<feGaussianBlur stdDeviation="0.5"/>
<feComposite in2="hardAlpha" operator="out"/>
<feColorMatrix type="matrix" values="0 0 0 0 0 0 0 0 0 0 0 0 0 0 0 0 0 0 0.2 0"/>
<feBlend mode="normal" in2="BackgroundImageFix" result="effect1_dropShadow_1130_60637"/>
<feColorMatrix in="SourceAlpha" type="matrix" values="0 0 0 0 0 0 0 0 0 0 0 0 0 0 0 0 0 0 127 0" result="hardAlpha"/>
<feOffset dy="2"/>
<feGaussianBlur stdDeviation="8"/>
<feComposite in2="hardAlpha" operator="out"/>
<feColorMatrix type="matrix" values="0 0 0 0 0 0 0 0 0 0 0 0 0 0 0 0 0 0 0.08 0"/>
<feBlend mode="normal" in2="effect1_dropShadow_1130_60637" result="effect2_dropShadow_1130_60637"/>
<feBlend mode="normal" in="SourceGraphic" in2="effect2_dropShadow_1130_60637" result="shape"/>
</filter>
</defs>
</svg>
