<svg width="470" height="138" viewBox="0 0 470 138" fill="none" xmlns="http://www.w3.org/2000/svg">
<g filter="url(#filter0_d_1099_72111)">
<rect width="411.913" height="68.6521" transform="translate(19.1953 25.6621)" fill="white"/>
<rect width="82.3825" height="69.0565" transform="translate(19.1953 25.6621)" fill="white"/>
<path fill-rule="evenodd" clip-rule="evenodd" d="M60.3311 59.9885C66.6325 59.9885 71.8284 54.9032 71.8284 48.4912C71.8284 42.1898 66.743 37.1045 60.3311 37.1045C54.0297 37.215 48.9443 42.3004 48.9443 48.6018C48.9443 54.9032 54.0297 59.9885 60.3311 59.9885ZM57.0146 48.6018C57.6779 48.6018 58.1201 48.1596 58.1201 47.4963C58.1201 46.833 57.6779 46.3908 57.0146 46.3908C56.3512 46.3908 55.909 46.833 55.909 47.4963C55.909 48.1596 56.3512 48.6018 57.0146 48.6018ZM63.6476 48.6018C64.3109 48.6018 64.7531 48.1596 64.7531 47.4963C64.7531 46.833 64.3109 46.3908 63.6476 46.3908C62.9843 46.3908 62.5421 46.833 62.5421 47.4963C62.5421 48.1596 63.0949 48.6018 63.6476 48.6018ZM60.3311 49.5967C60.4416 49.5967 60.4416 49.5967 60.5522 49.5967C60.6627 49.5967 60.7733 49.7073 60.7733 49.7073C60.8838 49.8178 60.9944 49.9284 60.9944 50.0389C61.1049 50.3706 61.2155 50.5917 61.4366 50.8128C61.6577 51.0339 61.9893 51.1445 62.321 51.1445C63.0949 51.255 63.9793 51.1445 64.6426 51.1445C64.9742 51.1445 65.4164 51.3656 65.4164 51.8078C65.4164 52.1394 65.1953 52.5816 64.7531 52.5816H64.6426C63.9793 52.6922 62.9843 52.8027 61.9893 52.5816C61.4366 52.4711 60.9944 52.25 60.4416 51.9183C60.3311 51.8078 60.2205 51.8078 60.2205 51.6972C60.11 51.8078 59.9994 51.8078 59.9994 51.9183C59.5572 52.25 59.0045 52.4711 58.4517 52.5816C57.4568 52.8027 56.4618 52.6922 55.7985 52.5816H55.6879C55.3563 52.5816 55.0246 52.25 55.0246 51.8078C55.0246 51.3656 55.3563 51.1445 55.7985 51.1445C56.4618 51.255 57.3462 51.255 58.1201 51.1445C58.4517 51.0339 58.7834 50.9234 59.0045 50.8128C59.2256 50.7023 59.3361 50.4812 59.4467 50.0389V49.9284C59.4467 49.8178 59.5572 49.7073 59.5572 49.7073C59.9994 49.5967 60.11 49.5967 60.3311 49.5967Z" fill="#333333"/>
<path d="M46.3057 69.4177C47.9396 69.4177 49.1479 70.8044 49.3264 73.07H51.8253V68.484H53.0748V80.6354H51.8253V74.0723H49.3401C49.2165 76.4339 47.9808 77.9168 46.3057 77.9168C44.5345 77.9168 43.2713 76.2554 43.2713 73.6604C43.2713 71.0516 44.5345 69.4177 46.3057 69.4177ZM44.4521 73.6604C44.4521 75.5826 45.2073 76.7909 46.3057 76.7909C47.4179 76.7909 48.1593 75.5826 48.1593 73.6604C48.1593 71.7381 47.4179 70.5436 46.3057 70.5436C45.2073 70.5436 44.4521 71.7381 44.4521 73.6604ZM54.8944 78.0816H65.865V79.1251H54.8944V78.0816ZM56.2125 70.42V69.3902H64.5469V73.1523H57.4757V74.9648H64.8215V75.9945H56.24V72.15H63.2974V70.42H56.2125ZM75.4148 68.5115H76.6643V77.3676H75.4148V68.5115ZM66.8059 74.6627C68.6732 73.9487 69.7991 72.2049 69.7991 70.3925V69.1705H71.0623V70.3925C71.0623 72.15 72.1882 73.7839 74.0418 74.443L73.3827 75.4453C71.9959 74.9236 70.9799 73.8801 70.4444 72.5482C69.9227 73.9624 68.8929 75.1021 67.4649 75.6513L66.8059 74.6627ZM68.8242 80.3608V76.5438H70.0874V79.331H77.035V80.3608H68.8242Z" fill="#1A1A1A"/>
<rect width="82.3825" height="69.0565" transform="translate(101.578 25.6621)" fill="white"/>
<path d="M133.394 37.0986C135.763 37.0987 137.685 39.02 137.685 41.3896V43.3135H146.675L146.763 43.3184C147.195 43.3623 147.533 43.7275 147.533 44.1719C147.533 44.6161 147.195 44.9815 146.763 45.0254L146.675 45.0303H137.685V47.623C137.972 47.5843 138.266 47.5625 138.564 47.5625L138.893 47.5703C141.338 47.6914 143.418 49.1577 144.374 51.2246H148.484L148.674 51.2295C150.47 51.3205 151.926 52.6986 152.14 54.46C153.335 54.8079 154.206 55.8891 154.206 57.168L154.203 57.3135C154.125 58.8061 152.859 59.9931 151.31 59.9932L151.014 59.9785C149.602 59.8387 148.49 58.7099 148.417 57.3135L148.413 57.168C148.413 55.9167 149.248 54.8565 150.403 54.4854C150.224 53.666 149.536 53.0376 148.686 52.9512L148.484 52.9414H144.877C144.915 53.2152 144.937 53.4944 144.937 53.7783L144.929 54.0977C144.758 57.3816 141.974 59.993 138.564 59.9932L138.236 59.9854C134.978 59.8243 132.364 57.2759 132.199 54.0977L132.191 53.7783C132.192 51.248 133.743 49.0723 135.968 48.1025V41.3896C135.968 39.9679 134.815 38.8155 133.394 38.8154H132.191C131.718 38.8154 131.333 38.4308 131.333 37.957C131.333 37.4831 131.717 37.0986 132.191 37.0986H133.394ZM138.564 49.2783C135.952 49.2783 133.907 51.3339 133.907 53.7783C133.907 56.2227 135.952 58.2773 138.564 58.2773C141.177 58.2771 143.22 56.2226 143.221 53.7783C143.221 51.334 141.177 49.2785 138.564 49.2783ZM151.31 56.0586C150.617 56.0587 150.129 56.5959 150.129 57.168C150.129 57.7401 150.617 58.2762 151.31 58.2764C152.002 58.2763 152.49 57.7401 152.49 57.168C152.49 56.5959 152.002 56.0587 151.31 56.0586ZM138.564 52.083C139.524 52.0831 140.302 52.8414 140.303 53.7773C140.303 54.7135 139.524 55.4725 138.564 55.4727C137.605 55.4727 136.826 54.7135 136.826 53.7773C136.826 52.8414 137.605 52.083 138.564 52.083Z" fill="#616161"/>
<path d="M119.534 74.6902H124.38V73.3583H120.975V68.7998H122.211V70.1042H127.813V68.7998H129.062V73.3583H125.616V74.6902H130.477V75.7062H119.534V74.6902ZM120.756 77.8207V76.8184H129.131V80.6217H127.882V77.8207H120.756ZM122.211 72.356H127.813V71.0653H122.211V72.356ZM131.733 69.7197H138.516V70.7633H135.743V72.1088C135.743 74.1409 137.102 76.2142 138.928 77.0106L138.228 77.9992C136.827 77.3676 135.688 76.022 135.125 74.4018C134.576 76.1318 133.45 77.6147 132.049 78.3013L131.335 77.3127C133.134 76.4476 134.493 74.1821 134.493 72.1088V70.7633H131.733V69.7197ZM140.027 80.6217V68.5115H141.276V80.6217H140.027ZM143.192 74.443H145.842V72.7954C144.908 72.4109 144.373 71.793 144.373 70.9967C144.373 69.555 146.034 68.7174 148.656 68.7174C151.293 68.7174 152.954 69.555 152.954 70.9967C152.954 71.793 152.419 72.4109 151.485 72.7954V74.443H154.135V75.4316H143.192V74.443ZM144.496 78.4386C144.496 77.0655 146.061 76.2829 148.656 76.2829C151.251 76.2829 152.817 77.0655 152.817 78.4386C152.817 79.8253 151.251 80.608 148.656 80.608C146.061 80.608 144.496 79.8253 144.496 78.4386ZM145.663 70.9967C145.663 71.8068 146.803 72.2873 148.656 72.2873C150.524 72.2873 151.663 71.8068 151.663 70.9967C151.663 70.1591 150.524 69.6786 148.656 69.6786C146.803 69.6786 145.663 70.1591 145.663 70.9967ZM145.759 78.4386C145.759 79.2212 146.817 79.6468 148.656 79.6468C150.483 79.6468 151.54 79.2212 151.54 78.4386C151.54 77.6697 150.483 77.244 148.656 77.244C146.817 77.244 145.759 77.6697 145.759 78.4386ZM147.077 74.443H150.249V73.1249C149.769 73.2073 149.233 73.2485 148.656 73.2485C148.08 73.2485 147.558 73.2073 147.077 73.1249V74.443ZM156.38 69.2804H164.577V70.3376C164.577 71.4772 164.577 72.7267 164.248 74.4705H165.978V75.5002H161.103V80.6354H159.826V75.5002H155.021V74.4705H162.971C163.341 72.7542 163.341 71.4772 163.341 70.3376V70.2827H156.38V69.2804Z" fill="#616161"/>
<rect width="82.3825" height="69.0565" transform="translate(183.96 25.6621)" fill="white"/>
<path d="M235.251 56.4648C235.251 57.1325 235.01 57.7714 234.582 58.2754L234.387 58.4824C233.839 59.0108 233.102 59.3026 232.34 59.3027H217.964C217.297 59.3027 216.649 59.0798 216.13 58.6699L215.916 58.4824C215.367 57.9529 215.052 57.2278 215.052 56.4648V45.5762C215.052 45.3061 215.179 45.0517 215.396 44.8896L224.637 37.9609L224.756 37.8857C225.045 37.7356 225.399 37.7609 225.666 37.9609L234.908 44.8896C235.124 45.0517 235.251 45.3062 235.251 45.5762V56.4648Z" stroke="#616161" stroke-width="1.7163" stroke-linecap="round" stroke-linejoin="round"/>
<path d="M221.331 50.9036L224.127 53.8506C224.668 54.4212 225.577 54.4212 226.119 53.8506L228.915 50.9036C229.924 49.8408 229.924 48.1177 228.915 47.0549C227.907 45.9921 226.272 45.9921 225.263 47.0549C225.187 47.1354 225.059 47.1354 224.982 47.0549C223.974 45.9921 222.339 45.9921 221.331 47.0549C220.322 48.1177 220.322 49.8408 221.331 50.9036Z" fill="#616161"/>
<path d="M220.991 76.9831H229.27V80.4569H220.991V76.9831ZM219.659 76.1318V75.1433H224.506V74.292C222.364 74.1959 221.197 73.6192 221.197 72.5894C221.197 71.4635 222.597 70.8731 225.124 70.8731C227.65 70.8731 229.064 71.4635 229.064 72.5894C229.064 73.6192 227.884 74.1959 225.755 74.292V75.1433H230.602V76.1318H219.659ZM220.222 70.4337V69.4589H224.506V68.3467H225.755V69.4589H229.984V70.4337H220.222ZM222.213 79.5095H228.048V77.9305H222.213V79.5095ZM222.515 72.5894C222.515 73.1386 223.435 73.4407 225.124 73.4407C226.826 73.4407 227.746 73.1386 227.746 72.5894C227.746 72.0402 226.826 71.7381 225.124 71.7381C223.435 71.7381 222.515 72.0402 222.515 72.5894Z" fill="#616161"/>
<rect width="82.3825" height="69.0565" transform="translate(266.343 25.6621)" fill="white"/>
<path d="M314.706 37.1094C315.498 37.1489 316.25 37.4825 316.813 38.0469C317.414 38.6489 317.752 39.4649 317.752 40.3154V56.7764C317.752 57.6269 317.414 58.4439 316.813 59.0459C316.213 59.6477 315.397 59.9862 314.547 59.9863H300.464C299.614 59.9862 298.798 59.6476 298.197 59.0459C297.634 58.4815 297.302 57.7283 297.263 56.9355L297.259 56.7764V40.3154C297.259 39.4648 297.597 38.6489 298.197 38.0469C298.798 37.4448 299.613 37.1056 300.464 37.1055H314.547L314.706 37.1094ZM300.464 38.8223C300.07 38.8224 299.691 38.979 299.412 39.2588C299.133 39.5387 298.976 39.9188 298.976 40.3154V56.7764L298.982 56.9248C299.016 57.2667 299.168 57.5883 299.412 57.833C299.691 58.1125 300.07 58.2704 300.464 58.2705H314.547C314.941 58.2704 315.319 58.1127 315.599 57.833C315.878 57.5532 316.036 57.1728 316.036 56.7764V40.3154C316.036 39.919 315.878 39.5387 315.599 39.2588C315.354 39.014 315.034 38.863 314.693 38.8291L314.547 38.8223H300.464ZM312.286 54.042C312.719 54.0857 313.057 54.451 313.057 54.8955C313.056 55.3398 312.719 55.7053 312.286 55.749L312.199 55.7539H302.811C302.337 55.7537 301.952 55.3691 301.952 54.8955C301.952 54.4217 302.337 54.0373 302.811 54.0371H312.199L312.286 54.042ZM312.291 49.3389C312.724 49.3827 313.062 49.748 313.062 50.1924C313.061 50.6366 312.724 51.0021 312.291 51.0459L312.203 51.0508H302.811C302.337 51.0506 301.952 50.666 301.952 50.1924C301.952 49.7186 302.337 49.3342 302.811 49.334H312.203L312.291 49.3389ZM304.775 42.2197C305.4 41.5605 306.413 41.5606 307.037 42.2197C307.661 42.879 307.661 43.9481 307.037 44.6074L305.303 46.4395C304.969 46.7914 304.408 46.7914 304.075 46.4395L302.341 44.6074C301.717 43.9481 301.716 42.879 302.341 42.2197C302.965 41.5608 303.977 41.5609 304.602 42.2197C304.649 42.2696 304.728 42.2696 304.775 42.2197Z" fill="#616161"/>
<path d="M298.904 68.4977H300.167V74.6627H298.904V68.4977ZM290.405 73.8938C293.412 73.2622 294.991 71.8891 295.183 70.0767H291.023V69.047H296.556C296.556 72.2049 294.483 74.0997 290.858 74.9098L290.405 73.8938ZM292.286 76.2005V75.2256H300.167V78.2463H293.549V79.5095H300.552V80.4981H292.314V77.3127H298.918V76.2005H292.286ZM302.316 69.2666H308.811V70.2827H306.202V70.5573C306.202 72.0539 307.287 73.4681 309.113 74.0311L308.523 75.0197C307.136 74.5666 306.12 73.6466 305.598 72.4796C305.076 73.7702 304.019 74.7863 302.564 75.2806L301.932 74.2782C303.799 73.6741 304.953 72.2049 304.953 70.5573V70.2827H302.316V69.2666ZM303.772 80.4569V75.6925H305.021V77.0792H310.239V75.6925H311.475V80.4569H303.772ZM305.021 79.4546H310.239V78.0678H305.021V79.4546ZM310.211 75.1433V68.5115H311.475V71.2438H313.218V72.2873H311.475V75.1433H310.211ZM322.549 68.484H323.798V80.6354H322.549V68.484ZM314.283 73.6604C314.283 71.0516 315.574 69.4177 317.386 69.4177C319.185 69.4177 320.489 71.0516 320.489 73.6604C320.489 76.2554 319.185 77.9168 317.386 77.9168C315.574 77.9168 314.283 76.2554 314.283 73.6604ZM315.491 73.6604C315.491 75.5826 316.274 76.7909 317.386 76.7909C318.498 76.7909 319.281 75.5826 319.281 73.6604C319.281 71.7381 318.498 70.5436 317.386 70.5436C316.274 70.5436 315.491 71.7381 315.491 73.6604Z" fill="#616161"/>
<rect width="82.3825" height="69.0565" transform="translate(348.726 25.6621)" fill="white"/>
<path fill-rule="evenodd" clip-rule="evenodd" d="M382.194 40.8227V45.9717H387.343V40.8227H382.194ZM381.017 39.5466C381.344 39.2555 381.769 39.1064 382.194 39.1064H387.343C387.767 39.1064 388.192 39.2555 388.52 39.5466C388.85 39.8407 389.059 40.2627 389.059 40.7274V46.067C389.059 46.5317 388.85 46.9537 388.52 47.2478C388.192 47.5389 387.767 47.688 387.343 47.688H382.194C381.769 47.688 381.344 47.5389 381.017 47.2478C380.686 46.9537 380.478 46.5317 380.478 46.067V40.7274C380.478 40.2627 380.686 39.8407 381.017 39.5466ZM392.492 40.8227V45.9717H397.641V40.8227H392.492ZM391.315 39.5466C391.642 39.2555 392.067 39.1064 392.492 39.1064H397.641C398.065 39.1064 398.49 39.2555 398.817 39.5466C399.148 39.8407 399.357 40.2627 399.357 40.7274V46.067C399.357 46.5317 399.148 46.9537 398.817 47.2478C398.49 47.5389 398.065 47.688 397.641 47.688H392.492C392.067 47.688 391.642 47.5389 391.315 47.2478C390.984 46.9537 390.775 46.5317 390.775 46.067V40.7274C390.775 40.2627 390.984 39.8407 391.315 39.5466ZM382.194 51.1206V56.2695H387.343V51.1206H382.194ZM381.017 49.8444C381.344 49.5533 381.769 49.4043 382.194 49.4043H387.343C387.767 49.4043 388.192 49.5533 388.52 49.8444C388.85 50.1385 389.059 50.5605 389.059 51.0252V56.3648C389.059 56.8295 388.85 57.2515 388.52 57.5456C388.192 57.8367 387.767 57.9858 387.343 57.9858H382.194C381.769 57.9858 381.344 57.8367 381.017 57.5456C380.686 57.2515 380.478 56.8295 380.478 56.3648V51.0252C380.478 50.5605 380.686 50.1385 381.017 49.8444ZM392.492 51.1206V56.2695H397.641V51.1206H392.492ZM391.315 49.8444C391.642 49.5533 392.067 49.4043 392.492 49.4043H397.641C398.065 49.4043 398.49 49.5533 398.817 49.8444C399.148 50.1385 399.357 50.5605 399.357 51.0252V56.3648C399.357 56.8295 399.148 57.2515 398.817 57.5456C398.49 57.8367 398.065 57.9858 397.641 57.9858H392.492C392.067 57.9858 391.642 57.8367 391.315 57.5456C390.984 57.2515 390.775 56.8295 390.775 56.3648V51.0252C390.775 50.5605 390.984 50.1385 391.315 49.8444Z" fill="#1F2937"/>
<path d="M384.936 71.793H387.256V68.5115H388.506V77.3676H387.256V72.8228H384.936V71.793ZM378.51 74.8824C380.35 74.2371 381.531 72.6443 381.531 70.9692V70.4612H378.895V69.4451H385.375V70.4612H382.78V70.9555C382.78 72.4796 383.892 74.0036 385.677 74.6215L385.06 75.6101C383.7 75.1295 382.698 74.1547 382.176 72.9464C381.654 74.2782 380.597 75.3629 379.155 75.8847L378.51 74.8824ZM380.707 80.3608V76.5987H381.956V79.331H388.835V80.3608H380.707ZM395.268 73.2485H397.012V68.7723H398.179V80.0038H397.012V74.2645H395.268V73.2485ZM390.202 77.2303C391.863 76.2554 392.715 74.1684 392.715 72.2187V71.7107H390.559V70.6946H392.715V68.9234H393.923V70.6946H396.051V71.7107H393.923V72.2187C393.923 74.1272 394.802 76.0769 396.449 76.9831L395.749 77.9168C394.582 77.2852 393.772 76.1181 393.332 74.7313C392.907 76.2142 392.097 77.4912 390.916 78.1914L390.202 77.2303ZM399.442 80.608V68.4977H400.637V80.608H399.442Z" fill="#1A1A1A"/>
</g>
<rect x="18.8604" y="25.6631" width="82.3825" height="68.6521" fill="#FF0000" fill-opacity="0.2"/>
<line x1="102.388" y1="25.6631" x2="102.388" y2="94.3152" stroke="#C54600" stroke-width="1.1442"/>
<line x1="184.769" y1="25.6631" x2="184.769" y2="94.3152" stroke="#C54600" stroke-width="1.1442"/>
<line x1="267.154" y1="25.6631" x2="267.154" y2="94.3152" stroke="#C54600" stroke-width="1.1442"/>
<line x1="349.536" y1="25.6631" x2="349.536" y2="94.3152" stroke="#C54600" stroke-width="1.1442"/>
<rect x="46.8926" y="34.8174" width="27.4608" height="27.4608" fill="#0D69D4" fill-opacity="0.2"/>
<rect x="101.814" y="25.6631" width="82.3825" height="68.6521" fill="#FF0000" fill-opacity="0.2"/>
<rect x="128.989" y="35.1025" width="27.1748" height="25.7445" fill="#0D69D4" fill-opacity="0.2"/>
<rect x="184.198" y="25.6631" width="82.3825" height="68.6521" fill="#FF0000" fill-opacity="0.2"/>
<rect x="211.658" y="34.8174" width="27.4608" height="27.4608" fill="#0D69D4" fill-opacity="0.2"/>
<rect x="266.582" y="25.6631" width="82.3825" height="68.6521" fill="#FF0000" fill-opacity="0.2"/>
<rect x="294.042" y="34.8174" width="27.4608" height="27.4608" fill="#0D69D4" fill-opacity="0.2"/>
<rect x="348.962" y="25.6631" width="82.3825" height="68.6521" fill="#FF0000" fill-opacity="0.2"/>
<rect x="376.422" y="34.8174" width="27.4608" height="27.4608" fill="#0D69D4" fill-opacity="0.2"/>
<path d="M437.64 25.6621V94.3142" stroke="black" stroke-width="1.1442"/>
<path d="M434.779 94.3145L440.5 94.3145" stroke="black" stroke-width="1.1442"/>
<path d="M434.779 25.6621L440.5 25.6621" stroke="black" stroke-width="1.1442"/>
<rect x="443.933" y="47.4883" width="25.1724" height="25" rx="4.57681" fill="#333333"/>
<path d="M452.264 63.4714C453.436 63.4714 454.298 62.6733 454.298 61.5148C454.298 60.382 453.436 59.5582 452.264 59.5582C451.106 59.5582 450.269 60.382 450.269 61.5148C450.269 62.6733 451.093 63.4714 452.264 63.4714ZM449.136 61.5148C449.136 60.9098 449.317 60.3434 449.626 59.8671L452.303 55.1688H453.603L451.711 58.4769C451.904 58.4383 452.097 58.4254 452.29 58.4254C453.976 58.4254 455.431 59.8028 455.431 61.5148C455.431 63.2525 453.989 64.6041 452.29 64.6041C450.604 64.6041 449.136 63.2525 449.136 61.5148ZM460.077 63.4585C461.493 63.4585 462.343 62.3257 462.343 59.8414C462.343 57.3442 461.506 56.2243 460.077 56.2243C458.648 56.2243 457.799 57.3442 457.799 59.8414C457.799 62.3257 458.648 63.4585 460.077 63.4585ZM456.666 59.8414C456.666 56.8679 458.017 55.0915 460.077 55.0915C462.124 55.0915 463.475 56.855 463.475 59.8414C463.475 62.802 462.137 64.5913 460.077 64.5913C458.017 64.5913 456.666 62.802 456.666 59.8414Z" fill="white"/>
<path d="M328.94 34.8154V62.2763" stroke="black" stroke-width="1.1442"/>
<path d="M326.08 62.2764L331.801 62.2764" stroke="black" stroke-width="1.1442"/>
<path d="M326.08 34.8154L331.801 34.8154" stroke="black" stroke-width="1.1442"/>
<rect x="335.233" y="36.0459" width="25.1724" height="25" rx="4.57681" fill="#333333"/>
<path d="M340.102 51.8651C342.093 49.9428 344.949 47.897 344.949 46.1532C344.949 44.8351 344.111 44.2035 343.095 44.2035C342.381 44.2035 341.585 44.4507 341.091 45.5628L339.992 45.0823C340.72 43.4209 342.162 42.9952 343.095 42.9952C344.592 42.9952 346.157 44.1623 346.157 46.1532C346.157 48.2128 343.782 50.19 341.901 51.8651H346.322V53.0734H340.102V51.8651ZM353.305 43.1188V49.3112H354.678V50.492H353.305V53.0596H352.097V50.492H347.635V49.3112L352.138 43.1188H353.305ZM349.09 49.3112H352.097V45.1646L349.09 49.3112Z" fill="white"/>
<path d="M427.913 107.472L16.0005 107.472" stroke="black" stroke-width="1.1442"/>
<path d="M16 104.611V110.332" stroke="black" stroke-width="1.1442"/>
<path d="M427.913 104.611V110.332" stroke="black" stroke-width="1.1442"/>
<rect x="175.045" y="113.765" width="93.8245" height="24.0283" rx="4.57681" fill="#333333"/>
<path d="M187.846 129.21C189.79 129.21 191.425 127.588 191.425 125.631C191.425 123.675 189.79 122.053 187.846 122.053H186.289V129.21H187.846ZM185.156 130.33V120.933H187.846C190.421 120.933 192.532 123.044 192.532 125.631C192.532 128.219 190.421 130.33 187.846 130.33H185.156ZM198.628 126.507C198.525 125.606 198.036 124.743 196.761 124.743C195.641 124.743 194.856 125.335 194.702 126.52L198.628 126.507ZM193.582 127.009C193.582 125.194 194.702 123.662 196.736 123.662C198.847 123.662 199.413 125.322 199.465 125.464C199.864 126.507 199.735 127.537 199.735 127.537H194.702C194.882 128.618 195.616 129.274 196.749 129.274C198.139 129.274 198.473 128.515 198.538 128.412L199.529 128.901C199.529 128.901 198.963 130.356 196.736 130.356C194.702 130.356 193.582 128.824 193.582 127.009ZM206.795 123.688L204.014 130.317H202.971L200.191 123.688H201.414L203.486 128.721L205.572 123.688H206.795ZM208.046 123.675H209.178V130.33H208.046V123.675ZM207.93 121.268C207.93 120.907 208.174 120.611 208.612 120.611C209.037 120.611 209.281 120.907 209.281 121.268C209.281 121.654 209.037 121.95 208.612 121.95C208.174 121.95 207.93 121.654 207.93 121.268ZM213.766 129.249C214.397 129.249 214.963 129.004 215.375 128.592L216.212 129.364C215.594 129.995 214.758 130.381 213.818 130.381C211.681 130.381 210.445 128.811 210.445 126.893C210.445 124.988 211.681 123.417 213.818 123.417C214.758 123.417 215.594 123.804 216.212 124.434L215.375 125.194C214.963 124.782 214.397 124.55 213.766 124.55C212.35 124.55 211.578 125.58 211.578 126.893C211.578 128.206 212.35 129.249 213.766 129.249ZM221.997 126.507C221.894 125.606 221.404 124.743 220.13 124.743C219.01 124.743 218.225 125.335 218.071 126.52L221.997 126.507ZM216.951 127.009C216.951 125.194 218.071 123.662 220.104 123.662C222.215 123.662 222.782 125.322 222.833 125.464C223.232 126.507 223.104 127.537 223.104 127.537H218.071C218.251 128.618 218.984 129.274 220.117 129.274C221.507 129.274 221.842 128.515 221.906 128.412L222.898 128.901C222.898 128.901 222.331 130.356 220.104 130.356C218.071 130.356 216.951 128.824 216.951 127.009ZM236.458 123.688L234.489 130.317H233.42L231.914 125.477L230.434 130.317H229.366L227.358 123.688H228.542L229.906 128.373L231.322 123.688H232.494L233.935 128.373L235.274 123.688H236.458ZM239.965 130.381C237.97 130.381 236.837 128.849 236.837 127.047C236.837 125.258 237.97 123.713 239.965 123.713C240.738 123.713 241.574 124.113 242.115 125.001V120.676H243.248V130.278H242.115V129.094C241.561 130.021 240.738 130.381 239.965 130.381ZM237.97 127.047C237.97 128.322 238.704 129.249 240.042 129.249C241.137 129.249 242.115 128.347 242.115 127.047C242.115 125.76 241.137 124.846 240.042 124.846C238.704 124.846 237.97 125.786 237.97 127.047ZM245.141 123.675H246.274V130.33H245.141V123.675ZM245.026 121.268C245.026 120.907 245.27 120.611 245.708 120.611C246.133 120.611 246.377 120.907 246.377 121.268C246.377 121.654 246.133 121.95 245.708 121.95C245.27 121.95 245.026 121.654 245.026 121.268ZM251.712 130.175C251.467 130.227 251.017 130.304 250.592 130.291C249.614 130.265 248.738 129.442 248.738 128.399V124.743H247.631V123.636H248.738V121.487H249.871V123.636H251.506V124.743H249.871V128.399C249.871 128.888 250.167 129.158 250.643 129.171C250.939 129.171 251.248 129.12 251.467 129.068L251.712 130.175ZM257.718 126.687C257.718 125.58 257.165 124.859 256.135 124.859C255.131 124.859 254.294 125.773 254.294 126.893V130.33H253.161V120.676H254.294V124.833C254.655 124.19 255.427 123.739 256.174 123.739C257.68 123.739 258.851 124.962 258.851 126.584V130.33H257.718V126.687Z" fill="white"/>
<rect x="101.815" y="25.6621" width="13.7304" height="68.6521" fill="#007D00" fill-opacity="0.3"/>
<rect x="98.9551" y="0.775391" width="20.7781" height="16.1297" rx="4.51873" fill="#007D00"/>
<path d="M106.456 3.73794V12.7754H105.362V4.88527H105.309L103.103 6.35033V5.2383L105.362 3.73794H106.456ZM109.056 12.7754V11.9811L112.039 8.7156C112.389 8.33315 112.677 8.00072 112.904 7.7183C113.13 7.43294 113.298 7.16523 113.407 6.91517C113.518 6.66217 113.574 6.3974 113.574 6.12086C113.574 5.80314 113.498 5.52807 113.345 5.29566C113.195 5.06326 112.989 4.8838 112.727 4.7573C112.465 4.6308 112.171 4.56755 111.845 4.56755C111.497 4.56755 111.194 4.63963 110.936 4.78378C110.68 4.92499 110.481 5.12356 110.34 5.37951C110.202 5.63545 110.132 5.93552 110.132 6.27972H109.091C109.091 5.75018 109.213 5.28537 109.457 4.88527C109.701 4.48518 110.034 4.17334 110.455 3.94975C110.878 3.72617 111.353 3.61438 111.88 3.61438C112.409 3.61438 112.879 3.72617 113.288 3.94975C113.696 4.17334 114.017 4.47488 114.25 4.85438C114.482 5.23389 114.598 5.65604 114.598 6.12086C114.598 6.45329 114.538 6.77837 114.417 7.09609C114.3 7.41088 114.094 7.76243 113.799 8.15076C113.508 8.53614 113.104 9.00684 112.586 9.56286L110.556 11.734V11.8046H114.757V12.7754H109.056Z" fill="white"/>
<rect x="169.037" y="0.775391" width="20.7781" height="16.1297" rx="4.51873" fill="#007D00"/>
<path d="M176.539 3.73794V12.7754H175.444V4.88527H175.391L173.185 6.35033V5.2383L175.444 3.73794H176.539ZM179.138 12.7754V11.9811L182.121 8.7156C182.471 8.33315 182.759 8.00072 182.986 7.7183C183.212 7.43294 183.38 7.16523 183.489 6.91517C183.601 6.66217 183.656 6.3974 183.656 6.12086C183.656 5.80314 183.58 5.52807 183.427 5.29566C183.277 5.06326 183.071 4.8838 182.809 4.7573C182.547 4.6308 182.253 4.56755 181.927 4.56755C181.579 4.56755 181.276 4.63963 181.018 4.78378C180.762 4.92499 180.563 5.12356 180.422 5.37951C180.284 5.63545 180.214 5.93552 180.214 6.27972H179.173C179.173 5.75018 179.295 5.28537 179.539 4.88527C179.783 4.48518 180.116 4.17334 180.537 3.94975C180.96 3.72617 181.435 3.61438 181.962 3.61438C182.491 3.61438 182.961 3.72617 183.37 3.94975C183.778 4.17334 184.099 4.47488 184.332 4.85438C184.564 5.23389 184.68 5.65604 184.68 6.12086C184.68 6.45329 184.62 6.77837 184.499 7.09609C184.382 7.41088 184.176 7.76243 183.881 8.15076C183.59 8.53614 183.186 9.00684 182.668 9.56286L180.638 11.734V11.8046H184.839V12.7754H179.138Z" fill="white"/>
<line x1="102.96" y1="11.9316" x2="102.96" y2="94.3142" stroke="#007D00" stroke-width="1.1442"/>
<line x1="116.117" y1="11.9316" x2="116.117" y2="94.3142" stroke="#007D00" stroke-width="1.1442"/>
<rect x="170.469" y="25.6602" width="13.7304" height="68.6521" fill="#007D00" fill-opacity="0.3"/>
<line x1="171.613" y1="11.9307" x2="171.613" y2="94.3132" stroke="#007D00" stroke-width="1.1442"/>
<line x1="184.77" y1="11.9307" x2="184.77" y2="94.3132" stroke="#007D00" stroke-width="1.1442"/>
<defs>
<filter id="filter0_d_1099_72111" x="0.888086" y="2.77808" width="448.528" height="105.671" filterUnits="userSpaceOnUse" color-interpolation-filters="sRGB">
<feFlood flood-opacity="0" result="BackgroundImageFix"/>
<feColorMatrix in="SourceAlpha" type="matrix" values="0 0 0 0 0 0 0 0 0 0 0 0 0 0 0 0 0 0 127 0" result="hardAlpha"/>
<feOffset dy="-4.57681"/>
<feGaussianBlur stdDeviation="9.15361"/>
<feComposite in2="hardAlpha" operator="out"/>
<feColorMatrix type="matrix" values="0 0 0 0 0 0 0 0 0 0 0 0 0 0 0 0 0 0 0.12 0"/>
<feBlend mode="normal" in2="BackgroundImageFix" result="effect1_dropShadow_1099_72111"/>
<feBlend mode="normal" in="SourceGraphic" in2="effect1_dropShadow_1099_72111" result="shape"/>
</filter>
</defs>
</svg>
