<svg width="353" height="221" viewBox="0 0 353 221" fill="none" xmlns="http://www.w3.org/2000/svg">
<g filter="url(#filter0_dd_827_22472)">
<g clip-path="url(#clip0_827_22472)">
<path d="M21.7041 30.7258C21.7041 24.2498 26.9539 19 33.4299 19H319.978C326.454 19 331.704 24.2498 331.704 30.7258V276.234H21.7041V30.7258Z" fill="white"/>
<g clip-path="url(#clip1_827_22472)">
<path d="M45.9179 47.5495H47.7354V60.6824H45.9179V47.5495ZM36.8744 56.9888C37.8711 56.9888 38.9997 56.9888 40.1723 56.9594V55.8162C38.7505 55.5524 37.8271 54.6583 37.8271 53.4271C37.8271 51.9613 39.1609 50.9793 41.081 50.9793C43.0158 50.9793 44.3496 51.9613 44.3496 53.4271C44.3496 54.6583 43.4262 55.567 41.9898 55.8308V56.8862C43.089 56.8275 44.1883 56.7396 45.229 56.6077L45.3463 57.9122C42.4881 58.4398 39.4247 58.4545 37.0942 58.4545L36.8744 56.9888ZM37.1236 50.4223V49.0006H40.1723V47.5935H41.9898V49.0006H45.0385V50.4223H37.1236ZM39.5567 53.4271C39.5567 54.1453 40.1869 54.5263 41.081 54.5263C41.9898 54.5263 42.62 54.1453 42.62 53.4271C42.62 52.7235 41.9898 52.3424 41.081 52.3424C40.1869 52.3424 39.5567 52.7235 39.5567 53.4271ZM58.6114 47.5349H60.4142V57.4871H58.6114V56.4171H56.1196V55.1859H58.6114V47.5349ZM49.348 53.3684C51.7518 53.3684 54.9471 53.3391 57.7173 52.9873L57.8345 54.2772C56.7939 54.4531 55.7239 54.5703 54.6686 54.6583V57.1353H52.8511V54.7609C51.6785 54.8048 50.5646 54.8195 49.5825 54.8195L49.348 53.3684ZM50.3007 50.3344C50.3007 48.942 51.6492 47.9892 53.5693 47.9892C55.4894 47.9892 56.8379 48.942 56.8379 50.3344C56.8379 51.7415 55.4894 52.6649 53.5693 52.6649C51.6492 52.6649 50.3007 51.7415 50.3007 50.3344ZM51.0189 60.4332V56.549H52.8218V58.9821H60.722V60.4332H51.0189ZM52.0303 50.3344C52.0303 50.994 52.6752 51.3457 53.5693 51.3457C54.4927 51.3457 55.123 50.994 55.123 50.3344C55.123 49.6748 54.4927 49.323 53.5693 49.323C52.6752 49.323 52.0303 49.6748 52.0303 50.3344ZM70.4401 47.5202H72.2722V52.5916H74.119V54.0866H72.2722V60.6677H70.4401V47.5202ZM61.8949 57.0034C64.9729 55.4204 66.6146 53.2951 66.9517 50.349H62.6131V48.8833H68.7838C68.7838 52.8115 67.2595 56.1826 62.9063 58.3812L61.8949 57.0034ZM83.6466 47.5495H85.4787V54.5996H83.6466V47.5495ZM74.779 51.1845C74.779 49.367 76.3033 48.0918 78.3407 48.0918C80.378 48.0918 81.9024 49.367 81.9024 51.1845C81.9024 52.9873 80.378 54.2772 78.3407 54.2772C76.3033 54.2772 74.779 52.9873 74.779 51.1845ZM76.5525 51.1845C76.5525 52.1812 77.3147 52.7675 78.3407 52.7675C79.3667 52.7675 80.1288 52.1812 80.1288 51.1845C80.1288 50.1878 79.3667 49.5869 78.3407 49.5869C77.3147 49.5869 76.5525 50.1878 76.5525 51.1845ZM76.7723 60.5358V55.1859H78.5752V56.4318H83.6759V55.1859H85.4787V60.5358H76.7723ZM78.5752 59.0847H83.6759V57.8389H78.5752V59.0847ZM93.1155 47.7401C96.1055 47.7401 97.8644 48.5169 97.8644 49.9826C97.8644 51.4337 96.1055 52.2252 93.1155 52.2252C90.1401 52.2252 88.3665 51.4337 88.3665 49.9826C88.3665 48.5169 90.1401 47.7401 93.1155 47.7401ZM87.1793 54.3065V52.8554H99.0516V54.3065H87.1793ZM88.5424 56.4171V55.0687H97.6006V58.4105H90.3453V59.2167H97.9524V60.5798H88.5717V57.1353H95.8124V56.4171H88.5424ZM90.2573 49.9826C90.2573 50.6129 91.1954 50.8914 93.1155 50.8914C95.0356 50.8914 95.9736 50.6129 95.9736 49.9826C95.9736 49.367 95.0356 49.0592 93.1155 49.0592C91.1954 49.0592 90.2573 49.367 90.2573 49.9826ZM107.179 48.0772C109.172 48.0772 110.609 49.2204 110.609 50.8767C110.609 52.5037 109.172 53.6616 107.179 53.6616C105.2 53.6616 103.749 52.5037 103.749 50.8767C103.749 49.2204 105.2 48.0772 107.179 48.0772ZM102.958 54.4677C105.259 54.4677 108.513 54.4531 111.312 54.0133L111.43 55.3472C110.345 55.5524 109.246 55.6989 108.146 55.7869V60.272H106.329V55.8895C105.186 55.9334 104.101 55.9481 103.163 55.9481L102.958 54.4677ZM105.493 50.8767C105.493 51.6975 106.197 52.1812 107.179 52.1812C108.161 52.1812 108.879 51.6975 108.879 50.8767C108.879 50.0266 108.161 49.5429 107.179 49.5429C106.197 49.5429 105.493 50.0266 105.493 50.8767ZM112.074 60.6824V47.5349H113.892V60.6824H112.074ZM115.505 49.5429H117.776V47.8866H119.565V49.5429H121.807V50.9793H115.505V49.5429ZM115.798 54.7169C115.798 52.8994 117.014 51.6096 118.671 51.6096C120.341 51.6096 121.543 52.8994 121.543 54.7169C121.543 56.549 120.341 57.8242 118.671 57.8242C117.014 57.8242 115.798 56.549 115.798 54.7169ZM117.41 54.7169C117.41 55.7429 117.938 56.3145 118.671 56.3145C119.418 56.3145 119.946 55.7429 119.946 54.7169C119.946 53.7055 119.418 53.1046 118.671 53.1046C117.938 53.1046 117.41 53.7055 117.41 54.7169ZM122.291 60.1107V47.7987H123.991V52.8994H125.046V47.5349H126.776V60.6677H125.046V54.3651H123.991V60.1107H122.291ZM131.298 53.7642H136.31V52.6356H132.734V48.1211H141.734V49.5576H134.522V51.1845H141.807V52.6356H138.128V53.7642H143.155V55.2006H131.298V53.7642ZM132.631 58.2933C132.631 56.7542 134.346 55.8748 137.175 55.8748C140.019 55.8748 141.734 56.7542 141.734 58.2933C141.734 59.8323 140.019 60.697 137.175 60.697C134.346 60.697 132.631 59.8323 132.631 58.2933ZM134.464 58.2933C134.464 58.9968 135.402 59.3193 137.175 59.3193C138.978 59.3193 139.901 58.9968 139.901 58.2933C139.901 57.5897 138.978 57.2526 137.175 57.2526C135.402 57.2526 134.464 57.5897 134.464 58.2933ZM148.08 48.4143C150.132 48.4143 151.671 49.7628 151.671 51.6389C151.671 53.5297 150.132 54.8635 148.08 54.8635C146.014 54.8635 144.46 53.5297 144.46 51.6389C144.46 49.7628 146.014 48.4143 148.08 48.4143ZM143.903 56.5344C146.219 56.5344 149.458 56.5197 152.228 56.1093L152.36 57.4285C149.502 57.9855 146.395 58.0148 144.123 58.0148L143.903 56.5344ZM146.234 51.6389C146.234 52.6795 147.025 53.3098 148.08 53.3098C149.106 53.3098 149.898 52.6795 149.898 51.6389C149.898 50.5836 149.106 49.968 148.08 49.968C147.025 49.968 146.234 50.5836 146.234 51.6389ZM152.961 60.697V47.5202H154.779V60.697H152.961ZM164.893 47.5202H166.725V52.5916H168.572V54.0866H166.725V60.6677H164.893V47.5202ZM156.347 57.0034C159.425 55.4204 161.067 53.2951 161.404 50.349H157.066V48.8833H163.236C163.236 52.8115 161.712 56.1826 157.359 58.3812L156.347 57.0034ZM181.301 47.5495H183.133V54.2772H181.301V47.5495ZM172.434 52.5916C172.873 52.5916 173.342 52.5916 173.826 52.5769V49.7481H172.756V48.341H179.836V49.7481H178.766V52.3864C179.308 52.3424 179.836 52.2838 180.349 52.2252L180.436 53.515C177.827 53.9547 174.881 54.0133 172.61 54.028L172.434 52.5916ZM174.266 56.1973V54.8195H183.133V58.3226H176.083V59.1727H183.5V60.5798H174.295V57.0181H181.331V56.1973H174.266ZM175.57 52.5476C176.054 52.533 176.538 52.5183 177.021 52.489V49.7481H175.57V52.5476ZM184.805 57.6483H187.443V54.4091C186.446 53.7935 185.831 52.8554 185.831 51.6975C185.831 49.5722 187.912 48.1944 190.726 48.1944C193.555 48.1944 195.622 49.5722 195.622 51.6975C195.622 52.8408 195.021 53.7788 194.039 54.3944V57.6483H196.692V59.1287H184.805V57.6483ZM187.634 51.6975C187.634 53.0167 188.879 53.7935 190.726 53.7935C192.588 53.7935 193.834 53.0167 193.834 51.6975C193.834 50.3784 192.588 49.6015 190.726 49.6015C188.879 49.6015 187.634 50.3784 187.634 51.6975ZM189.26 57.6483H192.221V55.0687C191.752 55.1713 191.254 55.2152 190.726 55.2152C190.213 55.2152 189.715 55.1713 189.26 55.0833V57.6483ZM197.366 49.5429H199.638V47.8866H201.426V49.5429H203.669V50.9793H197.366V49.5429ZM197.659 54.7169C197.659 52.8994 198.876 51.6096 200.532 51.6096C202.203 51.6096 203.405 52.8994 203.405 54.7169C203.405 56.549 202.203 57.8242 200.532 57.8242C198.876 57.8242 197.659 56.549 197.659 54.7169ZM199.272 54.7169C199.272 55.7429 199.799 56.3145 200.532 56.3145C201.28 56.3145 201.807 55.7429 201.807 54.7169C201.807 53.7055 201.28 53.1046 200.532 53.1046C199.799 53.1046 199.272 53.7055 199.272 54.7169ZM204.153 60.1107V47.7987H205.853V52.8994H206.908V47.5349H208.638V60.6677H206.908V54.3651H205.853V60.1107H204.153ZM209.986 57.6483H212.625V54.4091C211.628 53.7935 211.012 52.8554 211.012 51.6975C211.012 49.5722 213.094 48.1944 215.908 48.1944C218.737 48.1944 220.803 49.5722 220.803 51.6975C220.803 52.8408 220.203 53.7788 219.22 54.3944V57.6483H221.873V59.1287H209.986V57.6483ZM212.815 51.6975C212.815 53.0167 214.061 53.7935 215.908 53.7935C217.769 53.7935 219.015 53.0167 219.015 51.6975C219.015 50.3784 217.769 49.6015 215.908 49.6015C214.061 49.6015 212.815 50.3784 212.815 51.6975ZM214.442 57.6483H217.403V55.0687C216.934 55.1713 216.436 55.2152 215.908 55.2152C215.395 55.2152 214.897 55.1713 214.442 55.0833V57.6483Z" fill="#333333"/>
<path d="M310.936 46.8393C311.214 46.5457 311.678 46.5326 311.972 46.8109C312.265 47.0893 312.277 47.5534 311.999 47.8471L306.331 53.8295L311.999 59.8119L312.048 59.8695C312.274 60.1634 312.247 60.5871 311.972 60.848C311.697 61.1089 311.271 61.1146 310.989 60.8725L310.936 60.8207L305.321 54.8949L299.708 60.8207L299.653 60.8725C299.372 61.1146 298.947 61.1087 298.672 60.848C298.378 60.5697 298.365 60.1057 298.644 59.8119L304.312 53.8295L298.644 47.8471L298.595 47.7904C298.368 47.4963 298.397 47.0719 298.672 46.8109C298.948 46.5502 299.372 46.5451 299.653 46.7875L299.708 46.8393L305.321 52.7641L310.936 46.8393Z" fill="#555555"/>
<path d="M46.9141 77.9951H306.494C312.12 77.9953 316.68 82.556 316.681 88.1816V107.596C316.681 113.222 312.12 117.782 306.494 117.782H46.9141C41.2883 117.782 36.7276 113.222 36.7276 107.596V88.1816C36.7278 82.556 41.2885 77.9954 46.9141 77.9951Z" fill="white"/>
<path d="M46.9141 77.9951H306.494C312.12 77.9953 316.68 82.556 316.681 88.1816V107.596C316.681 113.222 312.12 117.782 306.494 117.782H46.9141C41.2883 117.782 36.7276 113.222 36.7276 107.596V88.1816C36.7278 82.556 41.2885 77.9954 46.9141 77.9951Z" stroke="#E0E0E0" stroke-width="0.73286"/>
<mask id="path-5-inside-1_827_22472" fill="white">
<path d="M45.1557 92.685C45.1557 91.5117 46.1069 90.5605 47.2802 90.5605H57.6884C58.8617 90.5605 59.8129 91.5117 59.8129 92.685V103.093C59.8129 104.267 58.8617 105.218 57.6884 105.218H47.2802C46.1069 105.218 45.1557 104.267 45.1557 103.093V92.685Z"/>
</mask>
<path d="M45.1557 92.685C45.1557 91.5117 46.1069 90.5605 47.2802 90.5605H57.6884C58.8617 90.5605 59.8129 91.5117 59.8129 92.685V103.093C59.8129 104.267 58.8617 105.218 57.6884 105.218H47.2802C46.1069 105.218 45.1557 104.267 45.1557 103.093V92.685Z" fill="white"/>
<path d="M47.2802 90.5605V91.2934H57.6884V90.5605V89.8277H47.2802V90.5605ZM59.8129 92.685H59.08V103.093H59.8129H60.5458V92.685H59.8129ZM57.6884 105.218V104.485H47.2802V105.218V105.951H57.6884V105.218ZM45.1557 103.093H45.8886V92.685H45.1557H44.4228V103.093H45.1557ZM47.2802 105.218V104.485C46.5116 104.485 45.8886 103.862 45.8886 103.093H45.1557H44.4228C44.4228 104.671 45.7021 105.951 47.2802 105.951V105.218ZM59.8129 103.093H59.08C59.08 103.862 58.457 104.485 57.6884 104.485V105.218V105.951C59.2665 105.951 60.5458 104.671 60.5458 103.093H59.8129ZM57.6884 90.5605V91.2934C58.457 91.2934 59.08 91.9165 59.08 92.685H59.8129H60.5458C60.5458 91.107 59.2665 89.8277 57.6884 89.8277V90.5605ZM47.2802 90.5605V89.8277C45.7021 89.8277 44.4228 91.107 44.4228 92.685H45.1557H45.8886C45.8886 91.9165 46.5116 91.2934 47.2802 91.2934V90.5605Z" fill="#E0E0E0" mask="url(#path-5-inside-1_827_22472)"/>
<path d="M72.3771 95.3299H74.4349V92.2299H75.8596V100.778H74.4349V96.4908H72.3771V95.3299ZM66.0979 98.2848C67.9447 97.6517 68.9473 96.1214 68.9473 94.5517V94.2087H66.5068V93.0742H72.786V94.2087H70.3851V94.5517C70.3851 95.9763 71.3349 97.4406 73.1158 98.0474L72.4166 99.1687C71.1239 98.707 70.2005 97.8231 69.686 96.7019C69.1847 97.9419 68.1954 98.9444 66.8102 99.4193L66.0979 98.2848ZM68.2217 103.72V100.053H69.6464V102.572H76.163V103.72H68.2217ZM82.3062 96.7414H83.8496V92.441H85.1687V103.377H83.8496V97.8891H82.3062V96.7414ZM77.3725 100.58C79.0083 99.6304 79.7338 97.6517 79.7338 95.8048V95.4223H77.7551V94.2746H79.7338V92.6125H81.0925V94.2746H83.0317V95.4223H81.0925V95.8048C81.0925 97.6121 81.8313 99.4589 83.4538 100.33L82.6755 101.385C81.5938 100.804 80.8551 99.7755 80.4198 98.5355C80.0108 99.8678 79.2721 101.015 78.1772 101.662L77.3725 100.58ZM86.1976 103.944V92.2168H87.5564V103.944H86.1976ZM91.9073 97.8495H96.4979V96.7282H93.2132V92.7444H101.22V93.8657H94.6247V95.5938H101.286V96.7282H97.9094V97.8495H102.513V98.984H91.9073V97.8495ZM93.1341 101.82C93.1341 100.448 94.6511 99.6831 97.1839 99.6831C99.6902 99.6831 101.22 100.448 101.22 101.82C101.22 103.179 99.6902 103.944 97.1839 103.944C94.6511 103.944 93.1341 103.179 93.1341 101.82ZM94.5587 101.82C94.5587 102.519 95.4953 102.862 97.1839 102.862C98.8592 102.862 99.7826 102.519 99.7826 101.82C99.7826 101.134 98.8592 100.765 97.1839 100.765C95.4953 100.765 94.5587 101.134 94.5587 101.82ZM107.087 93.0214C108.92 93.0214 110.279 94.1955 110.279 95.8576C110.279 97.5197 108.92 98.6938 107.087 98.6938C105.24 98.6938 103.894 97.5197 103.894 95.8576C103.894 94.1955 105.24 93.0214 107.087 93.0214ZM103.367 100.343C105.451 100.343 108.366 100.33 110.873 99.947L110.978 100.976C108.406 101.477 105.596 101.504 103.525 101.504L103.367 100.343ZM105.279 95.8576C105.279 96.847 106.058 97.4802 107.087 97.4802C108.116 97.4802 108.894 96.847 108.894 95.8576C108.894 94.8682 108.116 94.2482 107.087 94.2482C106.058 94.2482 105.279 94.8682 105.279 95.8576ZM111.572 103.97V92.2036H112.983V103.97H111.572ZM122.437 92.2168H123.862V96.8997H125.643V98.0738H123.862V103.944H122.437V92.2168ZM114.668 95.1453V94.0108H117.425V92.3882H118.862V94.0108H121.554V95.1453H114.668ZM115.222 98.6938C115.222 97.0844 116.475 95.9499 118.15 95.9499C119.839 95.9499 121.065 97.0844 121.065 98.6938C121.065 100.316 119.839 101.451 118.15 101.451C116.475 101.451 115.222 100.316 115.222 98.6938ZM116.58 98.6938C116.58 99.6699 117.227 100.29 118.15 100.29C119.047 100.29 119.707 99.6699 119.707 98.6938C119.707 97.7308 119.047 97.1108 118.15 97.1108C117.227 97.1108 116.58 97.7308 116.58 98.6938ZM134.424 92.2168H135.849V103.944H134.424V92.2168ZM126.219 100.752C129.28 99.2742 130.691 97.2691 130.929 94.578H126.813V93.4436H132.38C132.38 96.9525 131.034 99.9074 126.971 101.873L126.219 100.752Z" fill="#333333"/>
<g clip-path="url(#clip2_827_22472)">
<path d="M36.3614 143.359C36.3614 137.53 41.0862 132.806 46.9146 132.806H306.494C312.322 132.806 317.047 137.53 317.047 143.359V160.773C317.047 166.601 312.322 171.326 306.494 171.326H46.9146C41.0862 171.326 36.3614 166.601 36.3614 160.773V143.359Z" fill="#FFF5E6"/>
<path d="M45.1557 145.19C45.1557 144.017 46.1069 143.065 47.2802 143.065H60.6199C61.7932 143.065 62.7444 144.017 62.7444 145.19V158.53C62.7444 159.703 61.7932 160.654 60.6199 160.654H47.2802C46.1069 160.654 45.1557 159.703 45.1557 158.53V145.19Z" fill="#FF8120"/>
<path fill-rule="evenodd" clip-rule="evenodd" d="M57.9493 148.96C58.2355 149.246 58.2355 149.71 57.9493 149.996L53.1857 154.76C52.8995 155.046 52.4355 155.046 52.1493 154.76L49.9507 152.561C49.6645 152.275 49.6645 151.811 49.9507 151.525C50.2369 151.239 50.701 151.239 50.9872 151.525L52.6675 153.205L56.9129 148.96C57.1991 148.674 57.6631 148.674 57.9493 148.96Z" fill="white"/>
<path d="M71.9608 147.06V147.846H70.6123V155.843H71.9608V156.64H69.815V147.06H71.9608ZM80.5934 146.661H81.4846V151.985H80.5934V146.661ZM73.2531 150.883C73.6635 150.883 74.1091 150.871 74.5664 150.871V148.068H73.5345V147.365H79.0339V148.068H78.0021V150.73C78.5297 150.695 79.0574 150.648 79.5499 150.589L79.5968 151.223C77.5447 151.539 75.1527 151.61 73.3586 151.61L73.2531 150.883ZM74.8244 153.193V152.501H81.4846V154.928H75.7155V156.089H81.8716V156.804H74.8478V154.271H80.6052V153.193H74.8244ZM75.4224 150.847C75.9852 150.836 76.5715 150.812 77.1461 150.789V148.068H75.4224V150.847ZM87.402 147.037H88.3166V147.623C88.3166 149.077 90.2162 150.332 92.0219 150.601L91.6584 151.305C90.0989 151.035 88.5277 150.144 87.871 148.889C87.2261 150.167 85.6431 151.035 84.0602 151.305L83.6967 150.601C85.5259 150.332 87.402 149.112 87.402 147.623V147.037ZM83.2159 153.193V152.466H92.491V153.193H88.2697V156.921H87.402V153.193H83.2159ZM93.6477 147.06H95.7935V156.64H93.6477V155.843H94.9962V147.846H93.6477V147.06ZM107.769 146.661H108.625V156.921H107.769V151.539H106.339V156.405H105.494V146.931H106.339V150.812H107.769V146.661ZM99.9597 154.072C102.352 152.747 103.313 150.859 103.454 148.725H100.335V147.998H104.322C104.322 150.601 103.407 153.064 100.476 154.717L99.9597 154.072ZM117.591 146.673H118.482V154.166H117.591V146.673ZM110.321 149.909C110.321 148.42 111.47 147.388 112.983 147.388C114.507 147.388 115.645 148.42 115.645 149.909C115.645 151.375 114.507 152.419 112.983 152.419C111.47 152.419 110.321 151.375 110.321 149.909ZM111.177 149.909C111.177 150.918 111.963 151.645 112.983 151.645C114.015 151.645 114.8 150.918 114.8 149.909C114.8 148.878 114.015 148.151 112.983 148.151C111.963 148.151 111.177 148.878 111.177 149.909ZM111.928 156.687V153.404H112.795V155.96H118.799V156.687H111.928ZM125.678 149.347H127.765V146.661H128.644V152.77H127.765V150.074H125.678V149.347ZM120.272 151.973C121.773 151.422 122.864 150.038 122.864 148.549V148.151H120.542V147.424H126.018V148.151H123.743V148.549C123.743 149.886 124.775 151.164 126.252 151.68L125.795 152.384C124.646 151.961 123.755 151.094 123.321 150.027C122.887 151.246 121.926 152.208 120.718 152.677L120.272 151.973ZM121.867 155.01C121.867 153.814 123.157 153.099 125.279 153.099C127.39 153.099 128.68 153.814 128.68 155.01C128.68 156.218 127.39 156.91 125.279 156.91C123.157 156.91 121.867 156.218 121.867 155.01ZM122.746 155.01C122.746 155.761 123.708 156.218 125.279 156.218C126.839 156.218 127.812 155.761 127.812 155.01C127.812 154.248 126.839 153.791 125.279 153.791C123.708 153.791 122.746 154.248 122.746 155.01ZM130.364 154.858H134.562V152.618H131.478V147.388H132.346V149.241H137.669V147.388H138.537V152.618H135.43V154.858H139.663V155.596H130.364V154.858ZM132.346 151.903H137.669V149.968H132.346V151.903ZM147.995 146.65H148.875V156.933H147.995V146.65ZM140.878 151.023C140.878 148.842 141.957 147.459 143.481 147.459C144.994 147.459 146.072 148.842 146.072 151.023C146.072 153.204 144.994 154.6 143.481 154.6C141.957 154.6 140.878 153.204 140.878 151.023ZM141.734 151.023C141.734 152.7 142.449 153.814 143.481 153.814C144.501 153.814 145.228 152.7 145.228 151.023C145.228 149.347 144.501 148.244 143.481 148.244C142.449 148.244 141.734 149.347 141.734 151.023ZM150.641 151.762H152.951V150.296C152.131 149.968 151.673 149.452 151.673 148.76C151.673 147.553 153.057 146.861 155.273 146.861C157.489 146.861 158.873 147.553 158.873 148.76C158.873 149.452 158.416 149.968 157.606 150.285V151.762H159.905V152.466H150.641V151.762ZM151.767 155.08C151.767 153.931 153.08 153.275 155.273 153.275C157.466 153.275 158.779 153.931 158.779 155.08C158.779 156.253 157.466 156.91 155.273 156.91C153.08 156.91 151.767 156.253 151.767 155.08ZM152.576 148.76C152.576 149.511 153.62 149.968 155.273 149.968C156.926 149.968 157.97 149.511 157.97 148.76C157.97 147.998 156.926 147.541 155.273 147.541C153.62 147.541 152.576 147.998 152.576 148.76ZM152.646 155.08C152.646 155.807 153.631 156.218 155.273 156.218C156.903 156.218 157.888 155.807 157.888 155.08C157.888 154.377 156.903 153.955 155.273 153.955C153.631 153.955 152.646 154.377 152.646 155.08ZM153.819 151.762H156.739V150.531C156.305 150.601 155.812 150.648 155.273 150.648C154.734 150.648 154.253 150.613 153.819 150.531V151.762ZM160.792 151.75H164.978V150.543H161.964V147.142H168.894V147.857H162.832V149.816H168.965V150.543H165.846V151.75H170.055V152.466H160.792V151.75ZM161.906 155.069C161.906 153.896 163.219 153.228 165.412 153.228C167.593 153.228 168.918 153.896 168.918 155.069C168.918 156.253 167.593 156.91 165.412 156.91C163.219 156.91 161.906 156.253 161.906 155.069ZM162.785 155.069C162.785 155.807 163.782 156.218 165.412 156.218C167.042 156.218 168.027 155.807 168.027 155.069C168.027 154.342 167.042 153.92 165.412 153.92C163.782 153.92 162.785 154.342 162.785 155.069ZM174.237 147.412C175.832 147.412 176.969 148.397 176.969 149.816C176.969 151.246 175.832 152.219 174.237 152.219C172.631 152.219 171.493 151.246 171.493 149.816C171.493 148.397 172.631 147.412 174.237 147.412ZM170.966 153.92C172.842 153.92 175.445 153.92 177.684 153.568L177.755 154.213C175.445 154.658 172.924 154.67 171.083 154.67L170.966 153.92ZM172.349 149.816C172.349 150.777 173.147 151.457 174.237 151.457C175.316 151.457 176.113 150.777 176.113 149.816C176.113 148.842 175.316 148.174 174.237 148.174C173.147 148.174 172.349 148.842 172.349 149.816ZM178.365 156.933V146.65H179.244V156.933H178.365Z" fill="#333333"/>
<path fill-rule="evenodd" clip-rule="evenodd" d="M299.803 147.28C300.017 147.065 300.365 147.065 300.58 147.28L304.977 151.677C305.192 151.892 305.192 152.24 304.977 152.455L300.58 156.852C300.365 157.066 300.017 157.066 299.803 156.852C299.588 156.637 299.588 156.289 299.803 156.074L303.811 152.066L299.803 148.057C299.588 147.843 299.588 147.495 299.803 147.28Z" fill="#999999"/>
<path d="M36.3614 186.276C36.3614 180.447 41.0862 175.723 46.9146 175.723H306.494C312.322 175.723 317.047 180.447 317.047 186.276V203.69C317.047 209.518 312.322 214.243 306.494 214.243H46.9146C41.0862 214.243 36.3614 209.518 36.3614 203.69V186.276Z" fill="white"/>
<path d="M47.2797 186.555H60.6196C61.5904 186.555 62.3781 187.342 62.3784 188.312V201.652C62.3784 202.623 61.5905 203.411 60.6196 203.411H47.2797C46.309 203.411 45.5219 202.623 45.5219 201.652V188.312C45.5222 187.342 46.3091 186.555 47.2797 186.555Z" fill="white"/>
<path d="M47.2797 186.555H60.6196C61.5904 186.555 62.3781 187.342 62.3784 188.312V201.652C62.3784 202.623 61.5905 203.411 60.6196 203.411H47.2797C46.309 203.411 45.5219 202.623 45.5219 201.652V188.312C45.5222 187.342 46.3091 186.555 47.2797 186.555Z" stroke="#E0E0E0" stroke-width="0.73286"/>
<path d="M71.9608 189.977V190.763H70.6123V198.76H71.9608V199.557H69.815V189.977H71.9608ZM80.5934 189.578H81.4846V194.902H80.5934V189.578ZM73.2531 193.8C73.6635 193.8 74.1091 193.788 74.5664 193.788V190.985H73.5345V190.282H79.0339V190.985H78.0021V193.647C78.5297 193.612 79.0574 193.565 79.5499 193.506L79.5968 194.14C77.5447 194.456 75.1527 194.527 73.3586 194.527L73.2531 193.8ZM74.8244 196.11V195.418H81.4846V197.845H75.7155V199.006H81.8716V199.721H74.8478V197.188H80.6052V196.11H74.8244ZM75.4224 193.764C75.9852 193.753 76.5715 193.729 77.1461 193.706V190.985H75.4224V193.764ZM87.402 189.954H88.3166V190.54C88.3166 191.994 90.2162 193.249 92.0219 193.518L91.6584 194.222C90.0989 193.952 88.5277 193.061 87.871 191.806C87.2261 193.084 85.6431 193.952 84.0602 194.222L83.6967 193.518C85.5259 193.249 87.402 192.029 87.402 190.54V189.954ZM83.2159 196.11V195.383H92.491V196.11H88.2697V199.838H87.402V196.11H83.2159ZM93.6477 189.977H95.7935V199.557H93.6477V198.76H94.9962V190.763H93.6477V189.977ZM100.933 190.622H108.086V191.642C108.086 192.908 108.086 194.304 107.722 196.368L106.831 196.262C107.206 194.304 107.206 192.873 107.206 191.642V191.349H100.933V190.622ZM99.948 198.373V197.634H103.595V193.952H104.462V197.634H109.223V198.373H99.948ZM110.087 195.43H119.385V196.168H116.923V199.838H116.032V196.168H113.405V199.838H112.502V196.168H110.087V195.43ZM111.13 192.228C111.13 190.856 112.573 190.012 114.707 190.012C116.852 190.012 118.283 190.856 118.283 192.228C118.283 193.6 116.852 194.456 114.707 194.456C112.573 194.456 111.13 193.6 111.13 192.228ZM112.033 192.228C112.033 193.155 113.112 193.741 114.707 193.741C116.301 193.741 117.392 193.155 117.392 192.228C117.392 191.314 116.301 190.716 114.707 190.716C113.112 190.716 112.033 191.314 112.033 192.228ZM122.911 190.071H123.79V191.068C123.79 192.568 124.892 193.905 126.381 194.445L125.948 195.136C124.775 194.691 123.825 193.8 123.38 192.651C122.934 193.882 121.984 194.855 120.776 195.324L120.319 194.62C121.844 194.058 122.911 192.627 122.911 191.068V190.071ZM121.773 197.012V196.285H128.609V199.838H127.73V197.012H121.773ZM127.73 195.758V189.578H128.609V195.758H127.73ZM137.915 189.578H138.783V194.937H137.915V193.612H135.488V194.515H130.88V190.059H131.759V191.548H134.62V190.059H135.488V191.056H137.915V189.578ZM131.759 193.8H134.62V192.24H131.759V193.8ZM132.193 196.157V195.453H138.783V197.845H133.084V198.994H139.17V199.698H132.228V197.177H137.915V196.157H132.193ZM135.488 192.92H137.915V191.748H135.488V192.92ZM145.955 192.264H148.042V189.578H148.922V195.687H148.042V192.991H145.955V192.264ZM140.55 194.89C142.05 194.339 143.141 192.955 143.141 191.466V191.068H140.819V190.341H146.295V191.068H144.02V191.466C144.02 192.803 145.052 194.081 146.53 194.597L146.072 195.301C144.923 194.878 144.032 194.011 143.598 192.944C143.164 194.163 142.203 195.125 140.995 195.594L140.55 194.89ZM142.144 197.927C142.144 196.731 143.434 196.016 145.556 196.016C147.667 196.016 148.957 196.731 148.957 197.927C148.957 199.135 147.667 199.827 145.556 199.827C143.434 199.827 142.144 199.135 142.144 197.927ZM143.024 197.927C143.024 198.678 143.985 199.135 145.556 199.135C147.116 199.135 148.089 198.678 148.089 197.927C148.089 197.165 147.116 196.708 145.556 196.708C143.985 196.708 143.024 197.165 143.024 197.927ZM150.641 197.775H154.839V195.535H151.755V190.305H152.623V192.158H157.947V190.305H158.814V195.535H155.707V197.775H159.94V198.513H150.641V197.775ZM152.623 194.82H157.947V192.885H152.623V194.82ZM168.32 189.567H169.187V199.85H168.32V194.445H166.057V193.706H168.32V189.567ZM160.803 197.177C162.281 196.461 163.407 194.703 163.407 192.908V192.076H161.073V191.372H163.407V189.754H164.274V191.372H166.584V192.076H164.274V192.908C164.274 194.62 165.435 196.297 166.924 196.977L166.432 197.657C165.271 197.118 164.309 195.992 163.852 194.632C163.407 196.074 162.457 197.27 161.296 197.845L160.803 197.177ZM178.435 189.567H179.314V199.85H178.435V189.567ZM171.493 191.267V190.552H176.219V194.175H172.396V196.626C174.096 196.626 175.609 196.555 177.438 196.262L177.532 196.977C175.656 197.294 174.108 197.353 172.361 197.353H171.517V193.448H175.339V191.267H171.493ZM181.069 194.667H185.255V193.46H182.242V190.059H189.172V190.774H183.109V192.733H189.242V193.46H186.123V194.667H190.332V195.383H181.069V194.667ZM182.183 197.986C182.183 196.813 183.496 196.145 185.689 196.145C187.87 196.145 189.195 196.813 189.195 197.986C189.195 199.17 187.87 199.827 185.689 199.827C183.496 199.827 182.183 199.17 182.183 197.986ZM183.062 197.986C183.062 198.724 184.059 199.135 185.689 199.135C187.319 199.135 188.304 198.724 188.304 197.986C188.304 197.259 187.319 196.837 185.689 196.837C184.059 196.837 183.062 197.259 183.062 197.986ZM194.514 190.329C196.109 190.329 197.247 191.314 197.247 192.733C197.247 194.163 196.109 195.136 194.514 195.136C192.908 195.136 191.771 194.163 191.771 192.733C191.771 191.314 192.908 190.329 194.514 190.329ZM191.243 196.837C193.119 196.837 195.722 196.837 197.962 196.485L198.032 197.13C195.722 197.575 193.201 197.587 191.36 197.587L191.243 196.837ZM192.627 192.733C192.627 193.694 193.424 194.374 194.514 194.374C195.593 194.374 196.391 193.694 196.391 192.733C196.391 191.759 195.593 191.091 194.514 191.091C193.424 191.091 192.627 191.759 192.627 192.733ZM198.642 199.85V189.567H199.521V199.85H198.642Z" fill="#333333"/>
<path fill-rule="evenodd" clip-rule="evenodd" d="M299.803 190.197C300.017 189.982 300.365 189.982 300.58 190.197L304.977 194.594C305.192 194.809 305.192 195.157 304.977 195.372L300.58 199.769C300.365 199.983 300.017 199.983 299.803 199.769C299.588 199.554 299.588 199.206 299.803 198.991L303.811 194.983L299.803 190.974C299.588 190.76 299.588 190.412 299.803 190.197Z" fill="#999999"/>
<path d="M36.3614 229.194C36.3614 223.365 41.0862 218.641 46.9146 218.641H306.494C312.322 218.641 317.047 223.365 317.047 229.194V246.608C317.047 252.436 312.322 257.161 306.494 257.161H46.9146C41.0862 257.161 36.3614 252.436 36.3614 246.608V229.194Z" fill="white"/>
</g>
</g>
</g>
</g>
<defs>
<filter id="filter0_dd_827_22472" x="0.597721" y="0.531917" width="352.213" height="299.447" filterUnits="userSpaceOnUse" color-interpolation-filters="sRGB">
<feFlood flood-opacity="0" result="BackgroundImageFix"/>
<feColorMatrix in="SourceAlpha" type="matrix" values="0 0 0 0 0 0 0 0 0 0 0 0 0 0 0 0 0 0 127 0" result="hardAlpha"/>
<feOffset/>
<feGaussianBlur stdDeviation="0.659574"/>
<feComposite in2="hardAlpha" operator="out"/>
<feColorMatrix type="matrix" values="0 0 0 0 0 0 0 0 0 0 0 0 0 0 0 0 0 0 0.2 0"/>
<feBlend mode="normal" in2="BackgroundImageFix" result="effect1_dropShadow_827_22472"/>
<feColorMatrix in="SourceAlpha" type="matrix" values="0 0 0 0 0 0 0 0 0 0 0 0 0 0 0 0 0 0 127 0" result="hardAlpha"/>
<feOffset dy="2.6383"/>
<feGaussianBlur stdDeviation="10.5532"/>
<feComposite in2="hardAlpha" operator="out"/>
<feColorMatrix type="matrix" values="0 0 0 0 0 0 0 0 0 0 0 0 0 0 0 0 0 0 0.08 0"/>
<feBlend mode="normal" in2="effect1_dropShadow_827_22472" result="effect2_dropShadow_827_22472"/>
<feBlend mode="normal" in="SourceGraphic" in2="effect2_dropShadow_827_22472" result="shape"/>
</filter>
<clipPath id="clip0_827_22472">
<path d="M21.7041 30.7258C21.7041 24.2498 26.9539 19 33.4299 19H319.978C326.454 19 331.704 24.2498 331.704 30.7258V276.234H21.7041V30.7258Z" fill="white"/>
</clipPath>
<clipPath id="clip1_827_22472">
<rect width="280.686" height="255.035" fill="white" transform="translate(36.3614 42.4512)"/>
</clipPath>
<clipPath id="clip2_827_22472">
<rect width="280.686" height="134.846" fill="white" transform="translate(36.3614 132.806)"/>
</clipPath>
</defs>
</svg>
