<svg width="269" height="148" viewBox="0 0 269 148" fill="none" xmlns="http://www.w3.org/2000/svg">
<g filter="url(#filter0_dd_1099_71313)">
<rect width="233" height="112" transform="translate(18 16)" fill="white"/>
<path d="M30.8826 31.3937V39.2009H35.3609V40.0391H30.0205V31.3937H30.8826ZM38.8319 39.2607C39.9096 39.2607 40.8795 38.3866 40.8915 37.0455C40.8795 35.7164 39.9096 34.8303 38.8319 34.8303C37.5028 34.8303 36.7843 35.7882 36.7843 37.0455C36.7843 38.3028 37.5028 39.2607 38.8319 39.2607ZM35.9222 37.0455C35.9222 35.3811 36.964 33.9801 38.8199 33.9801C39.5264 33.9801 40.3167 34.3513 40.8675 35.2374V33.9442H41.7297V40.0391H40.8675V38.8416C40.2928 39.7756 39.5384 40.1229 38.8199 40.1229C36.964 40.1229 35.9222 38.698 35.9222 37.0455ZM46.1743 39.2847C47.5274 39.2847 48.2578 38.3148 48.2578 37.0336C48.2578 35.7643 47.5274 34.7824 46.1743 34.7824C45.0607 34.7824 44.1148 35.7643 44.1148 37.0336C44.1148 38.3148 45.0607 39.2847 46.1743 39.2847ZM43.2526 40.0391V31.1543H44.1148V35.2255C44.6775 34.2436 45.5157 33.9442 46.1983 33.9442C48.0782 33.9442 49.1199 35.3691 49.1199 37.0336C49.1199 38.7099 48.0662 40.1349 46.1863 40.1349C45.5157 40.1349 44.6775 39.8475 44.1148 38.8416V40.0391H43.2526ZM54.7634 36.5666C54.6676 35.7044 54.2485 34.7824 52.9553 34.7824C51.8178 34.7824 51.0874 35.3931 50.9317 36.5785L54.7634 36.5666ZM50.0456 36.9976C50.0456 35.3213 51.0514 33.9203 52.9194 33.9203C54.8592 33.9203 55.3501 35.429 55.41 35.5727C55.7692 36.5546 55.6256 37.4167 55.6256 37.4167H50.9317C51.0874 38.5423 51.8178 39.2128 52.9314 39.2128C54.3084 39.2128 54.6437 38.4585 54.7275 38.3387L55.4699 38.7339C55.4699 38.7339 54.967 40.075 52.9194 40.075C51.0514 40.075 50.0456 38.662 50.0456 36.9976ZM56.7187 31.1543H57.5808V40.0391H56.7187V31.1543Z" fill="#616161"/>
<mask id="path-2-inside-1_1099_71313" fill="white">
<path d="M29.0386 55.3654C29.0386 52.969 30.9812 51.0264 33.3776 51.0264H236.7C239.096 51.0264 241.039 52.969 241.039 55.3654V88.5969C241.039 90.9932 239.096 92.9358 236.7 92.9358H33.3776C30.9812 92.9358 29.0386 90.9932 29.0386 88.5969V55.3654Z"/>
</mask>
<path d="M29.0386 55.3654C29.0386 52.969 30.9812 51.0264 33.3776 51.0264H236.7C239.096 51.0264 241.039 52.969 241.039 55.3654V88.5969C241.039 90.9932 239.096 92.9358 236.7 92.9358H33.3776C30.9812 92.9358 29.0386 90.9932 29.0386 88.5969V55.3654Z" fill="white"/>
<path d="M33.3776 51.0264V52.5231H236.7V51.0264V49.5296H33.3776V51.0264ZM241.039 55.3654H239.542V88.5969H241.039H242.535V55.3654H241.039ZM236.7 92.9358V91.4391H33.3776V92.9358V94.4326H236.7V92.9358ZM29.0386 88.5969H30.5353V55.3654H29.0386H27.5418V88.5969H29.0386ZM33.3776 92.9358V91.4391C31.8078 91.4391 30.5353 90.1666 30.5353 88.5969H29.0386H27.5418C27.5418 91.8199 30.1546 94.4326 33.3776 94.4326V92.9358ZM241.039 88.5969H239.542C239.542 90.1666 238.269 91.4391 236.7 91.4391V92.9358V94.4326C239.923 94.4326 242.535 91.8198 242.535 88.5969H241.039ZM236.7 51.0264V52.5231C238.269 52.5231 239.542 53.7956 239.542 55.3654H241.039H242.535C242.535 52.1424 239.923 49.5296 236.7 49.5296V51.0264ZM33.3776 51.0264V49.5296C30.1546 49.5296 27.5418 52.1424 27.5418 55.3654H29.0386H30.5353C30.5353 53.7956 31.8078 52.5231 33.3776 52.5231V51.0264Z" fill="#E53935" mask="url(#path-2-inside-1_1099_71313)"/>
<path d="M43.8789 66.9786C46.371 66.9786 48.1492 68.191 48.1492 70.05C48.1492 71.8012 46.6 72.9462 44.3773 73.0944V75.6135H49.2403V76.4487H38.5579V75.6135H43.3805V73.0944C41.1578 72.9462 39.6086 71.7877 39.6086 70.05C39.6086 68.191 41.4002 66.9786 43.8789 66.9786ZM40.592 70.05C40.592 71.3971 41.9795 72.3131 43.8789 72.3131C45.7783 72.3131 47.1793 71.3971 47.1793 70.05C47.1793 68.6894 45.7783 67.7869 43.8789 67.7869C41.9795 67.7869 40.592 68.6894 40.592 70.05ZM50.2195 73.2291H60.9019V74.0643H58.073V77.9844H57.0762V74.0643H54.0318V77.9844H53.0215V74.0643H50.2195V73.2291ZM51.4992 67.504V66.6823H59.5953V69.6593H52.55V71.1546H59.8647V71.9898H51.5262V68.8915H58.5849V67.504H51.4992Z" fill="#333333"/>
<path fill-rule="evenodd" clip-rule="evenodd" d="M218.058 69.2065C218.35 68.9142 218.824 68.9142 219.116 69.2065L223.077 73.1676L227.038 69.2065C227.33 68.9142 227.804 68.9142 228.097 69.2065C228.389 69.4988 228.389 69.9726 228.097 70.2649L223.606 74.7552C223.314 75.0474 222.84 75.0474 222.548 74.7552L218.058 70.2649C217.765 69.9726 217.765 69.4988 218.058 69.2065Z" fill="#616161"/>
<path d="M38.019 101.199C41.7216 101.199 44.7229 104.201 44.7231 107.903C44.7231 111.606 41.7217 114.607 38.019 114.607C34.3165 114.607 31.3149 111.606 31.3149 107.903C31.3152 104.201 34.3166 101.199 38.019 101.199ZM38.019 102.135C34.8333 102.135 32.2507 104.718 32.2505 107.903C32.2505 111.089 34.8331 113.672 38.019 113.672C41.2051 113.672 43.7876 111.089 43.7876 107.903C43.7874 104.718 41.2049 102.135 38.019 102.135ZM35.8169 105.701C35.9767 105.541 36.2242 105.522 36.4058 105.642L36.479 105.701L38.0181 107.241L39.5591 105.701L39.6323 105.642C39.8136 105.522 40.0603 105.542 40.2202 105.701C40.4029 105.884 40.4028 106.181 40.2202 106.363L38.6802 107.902L40.2202 109.443L40.2808 109.517C40.4006 109.698 40.38 109.945 40.2202 110.104C40.0604 110.264 39.8139 110.285 39.6323 110.165L39.5591 110.104L38.0181 108.564L36.479 110.104L36.4058 110.165C36.2242 110.285 35.9768 110.264 35.8169 110.104C35.6349 109.922 35.6346 109.626 35.8169 109.443L37.3569 107.902L35.8169 106.363L35.7573 106.29C35.6375 106.108 35.6571 105.861 35.8169 105.701Z" fill="#C62828"/>
<path d="M55.6405 104.339V105.072H51.5019V107.639H55.1061V108.372H51.5019V111.17H55.6405V111.903H50.7475V104.339H55.6405ZM57.6401 107.691C57.9439 106.989 58.8135 106.518 59.5365 106.518V107.293C58.5621 107.293 57.6401 108.31 57.6401 109.158V111.903H56.8857V106.57H57.6401V107.691ZM61.2829 107.691C61.5867 106.989 62.4563 106.518 63.1793 106.518V107.293C62.2049 107.293 61.2829 108.31 61.2829 109.158V111.903H60.5285V106.57H61.2829V107.691ZM66.1406 111.212C67.3141 111.212 67.9323 110.353 67.9323 109.242C67.9323 108.131 67.3141 107.272 66.1406 107.272C64.9567 107.272 64.3595 108.131 64.3595 109.242C64.3595 110.353 64.9567 111.212 66.1406 111.212ZM63.6051 109.242C63.6051 107.786 64.5062 106.539 66.1406 106.539C67.7856 106.539 68.6866 107.786 68.6866 109.242C68.6866 110.698 67.7856 111.945 66.1406 111.945C64.5062 111.945 63.6051 110.698 63.6051 109.242ZM70.3795 107.691C70.6834 106.989 71.553 106.518 72.2759 106.518V107.293C71.3015 107.293 70.3795 108.31 70.3795 109.158V111.903H69.6252V106.57H70.3795V107.691ZM82.5798 108.634C82.5798 107.786 82.0664 107.304 81.312 107.304C80.61 107.304 79.8871 107.964 79.8871 108.634V111.903H79.1327V108.634C79.1327 107.964 78.7031 107.304 77.8859 107.304C77.142 107.304 76.4505 107.964 76.4505 108.718V111.903H75.6961V106.57H76.4505V107.492C76.7858 106.916 77.2782 106.57 77.9173 106.57C78.6927 106.57 79.2061 106.906 79.5832 107.639C79.9709 107.094 80.5053 106.57 81.3434 106.57C82.4331 106.57 83.3341 107.45 83.3341 108.551V111.903H82.5798V108.634ZM88.5356 108.865C88.4518 108.111 88.0851 107.304 86.9535 107.304C85.9582 107.304 85.3191 107.838 85.1829 108.875L88.5356 108.865ZM84.4075 109.242C84.4075 107.775 85.2876 106.549 86.9221 106.549C88.6195 106.549 89.049 107.87 89.1014 107.995C89.4157 108.854 89.29 109.609 89.29 109.609H85.1829C85.3191 110.594 85.9582 111.18 86.9326 111.18C88.1375 111.18 88.4309 110.52 88.5042 110.416L89.1538 110.761C89.1538 110.761 88.7137 111.935 86.9221 111.935C85.2876 111.935 84.4075 110.698 84.4075 109.242ZM90.7982 110.457C91.0078 110.939 91.5002 111.222 92.1393 111.191C93.0613 111.17 93.428 110.028 92.4851 109.724C92.1393 109.619 91.5107 109.452 90.9973 109.116C90.201 108.582 90.2115 107.796 90.4525 107.314C90.7773 106.675 91.605 106.487 92.0869 106.528C92.5375 106.581 93.1661 106.738 93.5642 107.272L92.9566 107.712C92.7365 107.409 92.3803 107.314 92.0241 107.272C91.6993 107.241 91.2697 107.356 91.1125 107.65C90.9763 107.932 90.9868 108.215 91.4164 108.498C91.825 108.771 92.3489 108.896 92.7156 109.022C94.4758 109.588 93.91 111.893 92.1603 111.935C91.2802 111.977 90.442 111.516 90.1172 110.751L90.7982 110.457ZM95.1368 110.457C95.3463 110.939 95.8388 111.222 96.4779 111.191C97.3999 111.17 97.7666 110.028 96.8237 109.724C96.4779 109.619 95.8493 109.452 95.3359 109.116C94.5396 108.582 94.5501 107.796 94.791 107.314C95.1158 106.675 95.9436 106.487 96.4255 106.528C96.876 106.581 97.5047 106.738 97.9028 107.272L97.2951 107.712C97.0751 107.409 96.7189 107.314 96.3626 107.272C96.0378 107.241 95.6083 107.356 95.4511 107.65C95.3149 107.932 95.3254 108.215 95.755 108.498C96.1636 108.771 96.6874 108.896 97.0542 109.022C98.8144 109.588 98.2486 111.893 96.4989 111.935C95.6188 111.977 94.7806 111.516 94.4558 110.751L95.1368 110.457ZM101.555 111.222C102.498 111.222 103.347 110.457 103.357 109.284C103.347 108.121 102.498 107.346 101.555 107.346C100.392 107.346 99.7636 108.184 99.7636 109.284C99.7636 110.384 100.392 111.222 101.555 111.222ZM99.0092 109.284C99.0092 107.828 99.9207 106.602 101.545 106.602C102.163 106.602 102.854 106.927 103.336 107.702V106.57H104.091V111.903H103.336V110.856C102.833 111.673 102.173 111.977 101.545 111.977C99.9207 111.977 99.0092 110.73 99.0092 109.284ZM107.746 111.243C108.741 111.243 109.527 110.374 109.527 109.284C109.527 108.215 108.731 107.346 107.746 107.346C106.656 107.346 105.954 108.111 105.954 109.284C105.954 110.478 106.656 111.243 107.746 111.243ZM105.2 109.284C105.2 107.702 106.237 106.612 107.735 106.612C108.532 106.612 109.213 107.031 109.527 107.712V106.57H110.281V111.641C110.26 113.339 109.275 114.303 107.578 114.303C106.729 114.303 105.986 113.863 105.441 113.045L106.08 112.637C106.468 113.244 106.97 113.548 107.578 113.548C108.877 113.548 109.516 112.92 109.527 111.631V110.835C109.16 111.495 108.416 111.977 107.735 111.977C106.237 111.977 105.2 110.877 105.2 109.284ZM115.303 108.865C115.22 108.111 114.853 107.304 113.721 107.304C112.726 107.304 112.087 107.838 111.951 108.875L115.303 108.865ZM111.175 109.242C111.175 107.775 112.056 106.549 113.69 106.549C115.387 106.549 115.817 107.87 115.869 107.995C116.184 108.854 116.058 109.609 116.058 109.609H111.951C112.087 110.594 112.726 111.18 113.7 111.18C114.905 111.18 115.199 110.52 115.272 110.416L115.922 110.761C115.922 110.761 115.482 111.935 113.69 111.935C112.056 111.935 111.175 110.698 111.175 109.242Z" fill="#C62828"/>
</g>
<defs>
<filter id="filter0_dd_1099_71313" x="0.338152" y="0.545883" width="268.324" height="147.324" filterUnits="userSpaceOnUse" color-interpolation-filters="sRGB">
<feFlood flood-opacity="0" result="BackgroundImageFix"/>
<feColorMatrix in="SourceAlpha" type="matrix" values="0 0 0 0 0 0 0 0 0 0 0 0 0 0 0 0 0 0 127 0" result="hardAlpha"/>
<feOffset/>
<feGaussianBlur stdDeviation="0.551933"/>
<feComposite in2="hardAlpha" operator="out"/>
<feColorMatrix type="matrix" values="0 0 0 0 0 0 0 0 0 0 0 0 0 0 0 0 0 0 0.2 0"/>
<feBlend mode="normal" in2="BackgroundImageFix" result="effect1_dropShadow_1099_71313"/>
<feColorMatrix in="SourceAlpha" type="matrix" values="0 0 0 0 0 0 0 0 0 0 0 0 0 0 0 0 0 0 127 0" result="hardAlpha"/>
<feOffset dy="2.20773"/>
<feGaussianBlur stdDeviation="8.83092"/>
<feComposite in2="hardAlpha" operator="out"/>
<feColorMatrix type="matrix" values="0 0 0 0 0 0 0 0 0 0 0 0 0 0 0 0 0 0 0.08 0"/>
<feBlend mode="normal" in2="effect1_dropShadow_1099_71313" result="effect2_dropShadow_1099_71313"/>
<feBlend mode="normal" in="SourceGraphic" in2="effect2_dropShadow_1099_71313" result="shape"/>
</filter>
</defs>
</svg>
