<svg width="302" height="160" viewBox="0 0 302 160" fill="none" xmlns="http://www.w3.org/2000/svg">
<g filter="url(#filter0_dd_790_21621)">
<g clip-path="url(#clip0_790_21621)">
<rect x="13" y="-84" width="276" height="225" rx="22.0773" fill="white"/>
<path d="M37.1211 -18.7539H38.1559V-13.9521H40.1567V-13.0828H38.1559V-6.65275H37.1211V-18.7539ZM29.4216 -9.67458V-17.5534H35.0237V-16.7117H30.4427V-10.5577C32.6642 -10.5577 34.1958 -10.6267 35.962 -10.9716L36.0862 -10.0885C34.2234 -9.74358 32.6504 -9.67458 30.3599 -9.67458H29.4216ZM40.8285 -12.0341H51.7706V-11.1786H40.8285V-12.0341ZM42.2222 -17.512V-18.3261H50.3494V-15.3595H43.257V-13.9797H50.6116V-13.1656H42.2498V-16.146H49.3283V-17.512H42.2222ZM42.2774 -6.94252V-10.1989H43.3122V-7.78421H50.6254V-6.94252H42.2774ZM59.0399 -17.8018C60.6819 -17.8018 61.8686 -16.3806 62.0204 -14.1038H64.7248V-18.7539H65.7459V-6.65275H64.7248V-13.2759H62.0204C61.9238 -10.9026 60.7095 -9.39862 59.0399 -9.39862C57.2875 -9.39862 56.0457 -11.0406 56.0457 -13.6071C56.0457 -16.1736 57.2875 -17.8018 59.0399 -17.8018ZM57.0254 -13.6071C57.0254 -11.6339 57.8533 -10.3231 59.0399 -10.3231C60.2404 -10.3231 61.0545 -11.6339 61.0545 -13.6071C61.0545 -15.5803 60.2404 -16.8773 59.0399 -16.8773C57.8533 -16.8773 57.0254 -15.5803 57.0254 -13.6071ZM67.7838 -9.08126H78.7258V-8.21196H67.7838V-9.08126ZM69.136 -16.9601V-17.8156H77.3598V-14.2004H70.1847V-12.1721H77.6358V-11.3166H69.1636V-15.0283H76.3387V-16.9601H69.136ZM88.5598 -18.7263H89.5946V-9.89536H88.5598V-18.7263ZM79.8668 -12.4618C81.6606 -13.1656 82.9025 -14.9317 82.9025 -16.8359V-18.0778H83.9373V-16.8359C83.9373 -15.0007 85.193 -13.3449 86.973 -12.6826L86.421 -11.8547C85.0412 -12.3929 83.9649 -13.5105 83.4406 -14.9041C82.9301 -13.4139 81.84 -12.2135 80.4188 -11.6339L79.8668 -12.4618ZM81.8814 -6.94252V-10.6957H82.9163V-7.79801H89.981V-6.94252H81.8814ZM93.0813 -17.7742H101.209V-16.9187H94.1162V-13.0828H101.347V-12.2273H97.6348V-9.08126H102.616V-8.21196H91.6739V-9.08126H96.6137V-12.2273H93.0813V-17.7742ZM115.929 -18.7401H116.922V-6.66655H115.929V-18.7401ZM106.656 -15.801V-16.6427H109.126V-18.4227H110.147V-16.6427H112.631V-15.801H106.656ZM107.098 -12.1721C107.098 -13.8141 108.16 -14.9455 109.623 -14.9455C111.086 -14.9455 112.148 -13.8141 112.148 -12.1721C112.148 -12.0755 112.148 -11.9789 112.134 -11.8823H113.721V-13.7865H112.01V-14.6282H113.721V-18.4641H114.687V-7.27368H113.721V-11.0406H111.955C111.596 -10.0333 110.713 -9.38482 109.623 -9.38482C108.16 -9.38482 107.098 -10.5301 107.098 -12.1721ZM108.023 -12.1721C108.023 -11.0682 108.699 -10.2817 109.623 -10.2817C110.561 -10.2817 111.238 -11.0682 111.238 -12.1721C111.238 -13.2759 110.561 -14.0625 109.623 -14.0625C108.699 -14.0625 108.023 -13.2759 108.023 -12.1721ZM119.167 -17.857H123.804V-17.0015H120.161V-15.4423H123.679V-14.6282H120.161V-12.931C121.927 -12.931 123.017 -13 124.3 -13.2483L124.411 -12.4067C123.017 -12.1307 121.872 -12.0755 119.926 -12.0755H119.167V-17.857ZM120.713 -9.92295V-10.7784H128.785V-6.66655H127.764V-9.92295H120.713ZM125.128 -11.496V-18.5055H126.108V-15.5665H127.805V-18.7401H128.785V-11.427H127.805V-14.711H126.108V-11.496H125.128ZM136.025 -18.5193C138.674 -18.5193 140.261 -17.788 140.261 -16.4358C140.261 -15.0835 138.674 -14.3384 136.025 -14.3384C133.375 -14.3384 131.788 -15.0835 131.788 -16.4358C131.788 -17.788 133.375 -18.5193 136.025 -18.5193ZM130.574 -12.655V-13.4967H141.475V-12.655H130.574ZM131.899 -10.7922V-11.5926H140.067V-8.91568H132.948V-7.61863H140.44V-6.80453H131.94V-9.67458H139.06V-10.7922H131.899ZM132.851 -16.4358C132.851 -15.5941 134.038 -15.1249 136.025 -15.1249C138.012 -15.1249 139.198 -15.5941 139.198 -16.4358C139.198 -17.2637 138.012 -17.7466 136.025 -17.7466C134.038 -17.7466 132.851 -17.2637 132.851 -16.4358ZM153.919 -18.7401H154.953V-15.8286H156.747V-14.9455H154.953V-11.6753H153.919V-18.7401ZM146.123 -12.448V-18.0778H147.144V-16.1874H150.662V-18.0778H151.683V-12.448H146.123ZM147.144 -13.3035H150.662V-15.3595H147.144V-13.3035ZM147.447 -6.83213V-10.9992H155.05V-10.1575H148.482V-7.68763H155.285V-6.83213H147.447ZM162.98 -18.5193C165.629 -18.5193 167.216 -17.788 167.216 -16.4358C167.216 -15.0835 165.629 -14.3384 162.98 -14.3384C160.331 -14.3384 158.744 -15.0835 158.744 -16.4358C158.744 -17.788 160.331 -18.5193 162.98 -18.5193ZM157.529 -12.655V-13.4967H168.43V-12.655H157.529ZM158.854 -10.7922V-11.5926H167.023V-8.91568H159.903V-7.61863H167.395V-6.80453H158.895V-9.67458H166.015V-10.7922H158.854ZM159.806 -16.4358C159.806 -15.5941 160.993 -15.1249 162.98 -15.1249C164.967 -15.1249 166.153 -15.5941 166.153 -16.4358C166.153 -17.2637 164.967 -17.7466 162.98 -17.7466C160.993 -17.7466 159.806 -17.2637 159.806 -16.4358ZM177.466 -18.2985H178.542V-17.6086C178.542 -15.8976 180.777 -14.4212 182.902 -14.1038L182.474 -13.2759C180.639 -13.5933 178.79 -14.642 178.018 -16.1184C177.259 -14.6144 175.396 -13.5933 173.533 -13.2759L173.105 -14.1038C175.258 -14.4212 177.466 -15.8562 177.466 -17.6086V-18.2985ZM172.54 -11.0544V-11.9099H183.454V-11.0544H178.487V-6.66655H177.466V-11.0544H172.54ZM190.599 -11.289H191.593V-10.6267C191.593 -9.5366 192.172 -8.39134 193.304 -7.72902C194.477 -8.46033 195.07 -9.68838 195.07 -10.6267V-11.289H196.077V-10.6267C196.077 -9.37102 197.002 -8.12917 198.519 -7.60484L198.009 -6.83213C196.822 -7.25988 195.981 -8.11537 195.553 -9.12265C195.194 -8.14297 194.463 -7.20469 193.345 -6.72174C192.186 -7.17709 191.441 -8.06018 191.082 -9.08126C190.654 -8.11537 189.826 -7.27368 188.681 -6.83213L188.157 -7.60484C189.675 -8.15677 190.599 -9.46761 190.599 -10.6267V-11.289ZM187.84 -15.2077C187.84 -16.8773 189.15 -18.0226 190.972 -18.0226C192.793 -18.0226 194.104 -16.8773 194.104 -15.2077C194.104 -13.5519 192.793 -12.4204 190.972 -12.4204C189.15 -12.4204 187.84 -13.5519 187.84 -15.2077ZM188.847 -15.2077C188.847 -14.0625 189.744 -13.2759 190.972 -13.2759C192.214 -13.2759 193.097 -14.0625 193.097 -15.2077C193.097 -16.353 192.214 -17.1533 190.972 -17.1533C189.744 -17.1533 188.847 -16.353 188.847 -15.2077ZM196.394 -11.8271V-18.7263H197.443V-11.8271H196.394ZM200.985 -18.2985H202.006V-15.0697H209.167V-14.228H200.985V-18.2985ZM199.495 -11.7167V-12.5722H210.437V-11.7167H199.495ZM200.916 -6.95632V-10.4887H201.937V-7.81181H209.236V-6.95632H200.916ZM214.878 -17.4982H221.625V-16.6289H218.755V-15.0007C218.755 -12.9448 220.273 -10.875 222.011 -10.1161L221.418 -9.28823C220.038 -9.93675 218.81 -11.3442 218.244 -13.0138C217.692 -11.2338 216.478 -9.68838 215.098 -8.99847L214.505 -9.81257C216.202 -10.6405 217.72 -12.9172 217.72 -15.0007V-16.6289H214.878V-17.4982ZM223.308 -6.66655V-18.7401H224.343V-6.66655H223.308ZM237.808 -18.7263H238.843V-15.0559H240.65V-14.2004H238.843V-10.6543H237.808V-18.7263ZM229.46 -11.8547C230.426 -11.8547 231.557 -11.8547 232.73 -11.8961V-12.8068C231.337 -12.9172 230.44 -13.5657 230.44 -14.573C230.44 -15.6769 231.544 -16.353 233.227 -16.353C234.924 -16.353 236.028 -15.6769 236.028 -14.573C236.028 -13.5795 235.145 -12.931 233.751 -12.8068V-11.9375C234.883 -11.9927 236.014 -12.0893 237.077 -12.2411L237.159 -11.496C234.565 -11.0268 231.695 -11.013 229.598 -11.013L229.46 -11.8547ZM229.764 -16.8359V-17.6224H232.73V-18.8367H233.751V-17.6224H236.704V-16.8359H229.764ZM230.936 -9.20544V-10.0333H238.843V-6.66655H237.808V-9.20544H230.936ZM231.419 -14.573C231.419 -13.9383 232.123 -13.4967 233.227 -13.4967C234.345 -13.4967 235.048 -13.9383 235.048 -14.573C235.048 -15.2215 234.345 -15.6355 233.227 -15.6355C232.123 -15.6355 231.419 -15.2215 231.419 -14.573ZM250.291 -18.7263H251.34V-9.90916H250.291V-18.7263ZM241.736 -14.9179C241.736 -16.6703 243.088 -17.8846 244.868 -17.8846C246.662 -17.8846 248.001 -16.6703 248.001 -14.9179C248.001 -13.1932 246.662 -11.9651 244.868 -11.9651C243.088 -11.9651 241.736 -13.1932 241.736 -14.9179ZM242.743 -14.9179C242.743 -13.7313 243.668 -12.8758 244.868 -12.8758C246.083 -12.8758 247.007 -13.7313 247.007 -14.9179C247.007 -16.1322 246.083 -16.9877 244.868 -16.9877C243.668 -16.9877 242.743 -16.1322 242.743 -14.9179ZM243.627 -6.94252V-10.806H244.648V-7.79801H251.712V-6.94252H243.627ZM253.378 -16.6427H255.875V-18.3951H256.896V-16.6427H259.38V-15.801H253.378V-16.6427ZM253.805 -12.2273C253.805 -13.8279 254.882 -14.9593 256.386 -14.9593C257.89 -14.9593 258.98 -13.8279 258.98 -12.2273C258.98 -10.5991 257.89 -9.48141 256.386 -9.48141C254.882 -9.48141 253.805 -10.5991 253.805 -12.2273ZM254.73 -12.2273C254.73 -11.1372 255.42 -10.3645 256.386 -10.3645C257.352 -10.3645 258.055 -11.1372 258.055 -12.2273C258.055 -13.3035 257.352 -14.09 256.386 -14.09C255.42 -14.09 254.73 -13.3035 254.73 -12.2273ZM260.015 -7.27368V-18.4503H260.994V-13.6347H262.609V-18.7401H263.588V-6.66655H262.609V-12.7792H260.994V-7.27368H260.015ZM28.8835 11.9049H33.8233V9.26947H30.1943V3.11542H31.2154V5.29555H37.4798V3.11542H38.5009V9.26947H34.8443V11.9049H39.8255V12.7742H28.8835V11.9049ZM31.2154 8.42777H37.4798V6.15105H31.2154V8.42777ZM45.5752 6.60639H47.6173V2.53589H48.5832V13.7125H47.6173V7.47568H45.5752V6.60639ZM40.6906 10.9391C42.3326 9.97318 43.3674 7.80684 43.3674 5.7371V3.41898H44.3609V5.7095C44.3609 7.62747 45.313 9.69721 46.8998 10.6493L46.2927 11.4496C45.1336 10.7597 44.3057 9.44884 43.878 7.98622C43.4364 9.58683 42.5395 10.9805 41.3391 11.7118L40.6906 10.9391ZM50.0734 14.3334V2.25992H51.0669V14.3334H50.0734ZM52.7736 11.9049H55.4919V8.60715C54.4708 8.08281 53.8499 7.21352 53.8499 6.12345C53.8499 4.24688 55.6851 3.03263 58.2239 3.03263C60.7904 3.03263 62.598 4.24688 62.598 6.12345C62.598 7.19972 61.9909 8.05521 60.9974 8.59335V11.9049H63.7157V12.7604H52.7736V11.9049ZM54.8572 6.12345C54.8572 7.48948 56.2646 8.38637 58.2239 8.38637C60.1833 8.38637 61.6045 7.48948 61.6045 6.12345C61.6045 4.75742 60.1833 3.86052 58.2239 3.86052C56.2646 3.86052 54.8572 4.75742 54.8572 6.12345ZM56.513 11.9049H59.9625V8.9935C59.4382 9.13148 58.8587 9.20047 58.2239 9.20047C57.603 9.20047 57.0373 9.13148 56.513 8.9935V11.9049Z" fill="#616161"/>
<path d="M28.3315 45.2345C28.3315 42.7799 30.3214 40.79 32.776 40.79H269.191C271.645 40.79 273.635 42.7799 273.635 45.2345V78.8097C273.635 81.2643 271.645 83.2541 269.191 83.2541H32.776C30.3214 83.2541 28.3315 81.2642 28.3315 78.8096V45.2345Z" fill="#FF8120"/>
<path d="M125.952 62.7279H137.046V63.9422H132.231V67.6401H130.754V63.9422H125.952V62.7279ZM126.573 60.81C129.002 60.5064 130.602 59.2507 130.74 57.9951H126.987V56.8084H130.754V55.3734H132.231V56.8084H136.011V57.9951H132.258C132.396 59.2231 133.997 60.5064 136.398 60.81L135.873 61.9828C133.859 61.7344 132.286 60.8238 131.499 59.6233C130.713 60.8376 129.126 61.7206 127.098 61.9828L126.573 60.81ZM145.942 55.3458H147.432V60.1614H149.254V61.3895H147.432V67.6125H145.942V55.3458ZM137.856 64.2733C140.823 62.7693 142.423 60.6582 142.713 57.8433H138.491V56.6429H144.217C144.217 60.2442 142.727 63.3902 138.698 65.4048L137.856 64.2733ZM152.921 61.0721H164.015V62.2864H152.921V61.0721ZM154.205 65.391C154.205 63.956 155.791 63.1557 158.441 63.1557C161.062 63.1557 162.663 63.956 162.663 65.391C162.663 66.8122 161.062 67.6263 158.441 67.6263C155.791 67.6263 154.205 66.8122 154.205 65.391ZM154.287 60.0786V55.7598H162.663V56.9602H155.764V58.9058H162.732V60.0786H154.287ZM155.695 65.391C155.695 66.1223 156.675 66.4811 158.441 66.4811C160.193 66.4811 161.159 66.1223 161.159 65.391C161.159 64.6735 160.193 64.2871 158.441 64.2871C156.675 64.2871 155.695 64.6735 155.695 65.391ZM164.853 62.0104H169.655V60.9479H166.26V57.7467H173.118V56.767H166.246V55.6356H174.581V58.7954H167.723V59.8165H174.829V60.9479H171.145V62.0104H175.96V63.2109H164.853V62.0104ZM166.081 65.184V63.9974H174.65V67.5573H173.173V65.184H166.081Z" fill="white"/>
<path d="M141.511 103.943H143.001V108.703H144.808V109.931H143.001V116.209H141.511V103.943ZM133.894 113.174V105.129H135.37V111.946C136.999 111.918 138.737 111.78 140.559 111.407L140.724 112.635C138.668 113.049 136.736 113.174 134.915 113.174H133.894ZM145.397 109.614H156.478V110.786H151.676V111.877C153.856 112.015 155.153 112.773 155.153 114.043C155.153 115.423 153.566 116.209 150.931 116.209C148.281 116.209 146.695 115.423 146.695 114.043C146.695 112.773 147.992 112.015 150.186 111.877V110.786H145.397V109.614ZM145.936 107.847C148.185 107.64 149.661 106.716 149.896 105.681H146.405V104.508H155.484V105.681H151.993C152.228 106.716 153.69 107.64 155.953 107.847L155.429 109.02C153.235 108.786 151.593 107.916 150.944 106.661C150.282 107.903 148.654 108.786 146.46 109.02L145.936 107.847ZM148.185 114.043C148.185 114.733 149.151 115.092 150.931 115.092C152.683 115.092 153.649 114.733 153.649 114.043C153.649 113.325 152.683 112.98 150.931 112.98C149.151 112.98 148.185 113.325 148.185 114.043ZM166.408 103.956H167.829V116.223H166.408V103.956ZM157.467 109.255C157.467 106.55 158.502 104.881 160.088 104.881C161.565 104.881 162.558 106.274 162.71 108.579H163.938V104.191H165.332V115.643H163.938V109.779H162.724C162.6 112.18 161.592 113.643 160.088 113.643C158.502 113.643 157.467 111.973 157.467 109.255ZM158.819 109.255C158.819 111.187 159.288 112.249 160.088 112.249C160.916 112.249 161.385 111.187 161.385 109.255C161.385 107.337 160.916 106.288 160.088 106.288C159.288 106.288 158.819 107.337 158.819 109.255Z" fill="#999999"/>
</g>
</g>
<defs>
<filter id="filter0_dd_790_21621" x="0.734828" y="-90.1326" width="300.53" height="249.53" filterUnits="userSpaceOnUse" color-interpolation-filters="sRGB">
<feFlood flood-opacity="0" result="BackgroundImageFix"/>
<feColorMatrix in="SourceAlpha" type="matrix" values="0 0 0 0 0 0 0 0 0 0 0 0 0 0 0 0 0 0 127 0" result="hardAlpha"/>
<feOffset/>
<feGaussianBlur stdDeviation="3.06629"/>
<feComposite in2="hardAlpha" operator="out"/>
<feColorMatrix type="matrix" values="0 0 0 0 0 0 0 0 0 0 0 0 0 0 0 0 0 0 0.12 0"/>
<feBlend mode="normal" in2="BackgroundImageFix" result="effect1_dropShadow_790_21621"/>
<feColorMatrix in="SourceAlpha" type="matrix" values="0 0 0 0 0 0 0 0 0 0 0 0 0 0 0 0 0 0 127 0" result="hardAlpha"/>
<feOffset dy="6.13259"/>
<feGaussianBlur stdDeviation="6.13259"/>
<feComposite in2="hardAlpha" operator="out"/>
<feColorMatrix type="matrix" values="0 0 0 0 0 0 0 0 0 0 0 0 0 0 0 0 0 0 0.12 0"/>
<feBlend mode="normal" in2="effect1_dropShadow_790_21621" result="effect2_dropShadow_790_21621"/>
<feBlend mode="normal" in="SourceGraphic" in2="effect2_dropShadow_790_21621" result="shape"/>
</filter>
<clipPath id="clip0_790_21621">
<rect x="13" y="-84" width="276" height="225" rx="22.0773" fill="white"/>
</clipPath>
</defs>
</svg>
