<svg width="265" height="375" viewBox="0 0 265 375" fill="none" xmlns="http://www.w3.org/2000/svg">
<rect x="31.5936" y="2.37977" width="223.818" height="356.282" rx="25.8837" fill="#D9D9D9" stroke="black" stroke-width="3.04515"/>
<g clip-path="url(#clip0_1099_78959)">
<mask id="mask0_1099_78959" style="mask-type:alpha" maskUnits="userSpaceOnUse" x="33" y="3" width="221" height="443">
<rect x="33.1162" y="3.90234" width="220.773" height="441.546" rx="24.3612" fill="black" fill-opacity="0.6"/>
</mask>
<g mask="url(#mask0_1099_78959)">
<path d="M33.1162 21.5642C33.1162 11.8098 41.0237 3.90234 50.7781 3.90234H236.227C245.982 3.90234 253.889 11.8098 253.889 21.5642V339.478C253.889 349.232 245.982 357.139 236.227 357.139H50.7781C41.0237 357.139 33.1162 349.232 33.1162 339.477V21.5642Z" fill="black" fill-opacity="0.6"/>
<path d="M33.1162 3.90234H253.889V28.1874H33.1162V3.90234Z" fill="black" fill-opacity="0.6"/>
<path d="M116.764 17.9043C117.117 18.6881 117.835 19.1296 118.817 19.1076C120.429 19.0524 120.903 17.0213 119.336 16.5907C118.806 16.3921 117.923 16.1492 117.15 15.6193C116.035 14.8577 116.002 13.7097 116.366 12.937C116.819 11.9876 118.022 11.7006 118.729 11.7558C119.402 11.8 120.307 12.0759 120.87 12.8818L120.064 13.4227C119.722 12.937 119.192 12.7714 118.651 12.7272C118.166 12.7051 117.503 12.8486 117.249 13.3454C117.04 13.82 117.029 14.3499 117.691 14.8135C118.331 15.2551 119.104 15.4758 119.656 15.6745C122.25 16.4804 121.51 20.0017 118.85 20.079C117.548 20.1231 116.355 19.4277 115.87 18.2907L116.764 17.9043ZM125.645 19.814C125.435 19.8582 125.048 19.9244 124.684 19.9134C123.845 19.8913 123.095 19.1848 123.095 18.2907V15.1557H122.145V14.2064H123.095V12.3629H124.066V14.2064H125.468V15.1557H124.066V18.2907C124.066 18.7102 124.32 18.942 124.728 18.953C124.982 18.953 125.247 18.9089 125.435 18.8647L125.645 19.814ZM129.037 19.0524C129.975 19.0524 130.836 18.3238 130.847 17.1537C130.836 15.9836 129.975 15.244 129.037 15.244C127.889 15.244 127.26 16.0609 127.26 17.1537C127.26 18.2465 127.889 19.0524 129.037 19.0524ZM126.288 17.1537C126.288 15.5973 127.26 14.2837 128.993 14.2837C129.633 14.2837 130.34 14.6148 130.825 15.3655V14.2506H131.797V19.9355H130.825V18.9309C130.318 19.7147 129.644 20.0238 128.993 20.0238C127.26 20.0238 126.288 18.6881 126.288 17.1537ZM136.381 19.814C136.172 19.8582 135.785 19.9244 135.421 19.9134C134.582 19.8913 133.831 19.1848 133.831 18.2907V15.1557H132.882V14.2064H133.831V12.3629H134.803V14.2064H136.205V15.1557H134.803V18.2907C134.803 18.7102 135.057 18.942 135.465 18.953C135.719 18.953 135.984 18.9089 136.172 18.8647L136.381 19.814ZM138.465 17.507C138.465 18.3459 138.984 18.9972 139.9 18.9972C140.872 18.9972 141.479 18.1914 141.479 17.4297V14.2174H142.45V19.9355H141.479V19.0303C141.07 19.6264 140.596 19.9355 139.812 19.9355C138.542 19.9355 137.494 18.9972 137.494 17.5842V14.2506H138.465V17.507ZM144.571 18.3238C144.769 18.7985 145.233 19.0524 145.851 19.0303C146.756 18.9972 147.065 17.9706 146.182 17.6946C145.829 17.5842 145.189 17.4186 144.637 17.0544C143.776 16.4914 143.765 15.6304 144.041 15.0674C144.383 14.383 145.277 14.1622 145.818 14.2064C146.348 14.2616 147.01 14.4492 147.43 15.0122L146.646 15.5752C146.436 15.2882 146.105 15.1888 145.741 15.1557C145.421 15.1226 145.034 15.233 144.891 15.4979C144.78 15.7518 144.791 16.0057 145.167 16.2485C145.586 16.5245 146.116 16.657 146.502 16.7894C148.423 17.4076 147.827 19.9465 145.906 19.9907C144.924 20.0348 144.041 19.527 143.687 18.7212L144.571 18.3238ZM151.661 19.9465V11.8883H154.774C155.977 11.8883 156.981 12.8707 156.981 14.0739C156.981 14.7142 156.694 15.233 156.253 15.6304C156.319 15.6635 156.374 15.7077 156.441 15.7408C157.037 16.1382 157.489 16.8557 157.489 17.6725C157.489 18.9089 156.507 19.9465 155.282 19.9465H151.661ZM152.632 18.9972H155.226C155.944 18.9972 156.54 18.4563 156.54 17.6946C156.54 16.8557 155.955 16.2706 155.226 16.2706H152.632V18.9972ZM152.632 15.3213H154.829L154.796 15.3103C155.491 15.2882 156.032 14.7804 156.032 14.096C156.032 13.3675 155.469 12.8376 154.73 12.8376H152.632V15.3213ZM161.247 19.0524C162.186 19.0524 163.047 18.3238 163.058 17.1537C163.047 15.9836 162.186 15.244 161.247 15.244C160.099 15.244 159.47 16.0609 159.47 17.1537C159.47 18.2465 160.099 19.0524 161.247 19.0524ZM158.499 17.1537C158.499 15.5973 159.47 14.2837 161.203 14.2837C161.844 14.2837 162.55 14.6148 163.036 15.3655V14.2506H164.007V19.9355H163.036V18.9309C162.528 19.7147 161.855 20.0238 161.203 20.0238C159.47 20.0238 158.499 18.6881 158.499 17.1537ZM166.211 15.3875C166.554 14.6479 167.459 14.2064 168.132 14.2064V15.1888C167.094 15.1888 166.211 16.2044 166.211 17.0544V19.9355H165.24V14.2506H166.211V15.3875Z" fill="white"/>
<path d="M33.1162 28.1865H253.889V66.8218H33.1162V28.1865Z" fill="#007D00" fill-opacity="0.3"/>
<path d="M116.764 17.9043C117.117 18.6881 117.835 19.1296 118.817 19.1076C120.429 19.0524 120.903 17.0213 119.336 16.5907C118.806 16.3921 117.923 16.1492 117.15 15.6193C116.035 14.8577 116.002 13.7097 116.366 12.937C116.819 11.9876 118.022 11.7006 118.729 11.7558C119.402 11.8 120.307 12.0759 120.87 12.8818L120.064 13.4227C119.722 12.937 119.192 12.7714 118.651 12.7272C118.166 12.7051 117.503 12.8486 117.249 13.3454C117.04 13.82 117.029 14.3499 117.691 14.8135C118.331 15.2551 119.104 15.4758 119.656 15.6745C122.25 16.4804 121.51 20.0017 118.85 20.079C117.548 20.1231 116.355 19.4277 115.87 18.2907L116.764 17.9043ZM125.645 19.814C125.435 19.8582 125.048 19.9244 124.684 19.9134C123.845 19.8913 123.095 19.1848 123.095 18.2907V15.1557H122.145V14.2064H123.095V12.3629H124.066V14.2064H125.468V15.1557H124.066V18.2907C124.066 18.7102 124.32 18.942 124.728 18.953C124.982 18.953 125.247 18.9089 125.435 18.8647L125.645 19.814ZM129.037 19.0524C129.975 19.0524 130.836 18.3238 130.847 17.1537C130.836 15.9836 129.975 15.244 129.037 15.244C127.889 15.244 127.26 16.0609 127.26 17.1537C127.26 18.2465 127.889 19.0524 129.037 19.0524ZM126.288 17.1537C126.288 15.5973 127.26 14.2837 128.993 14.2837C129.633 14.2837 130.34 14.6148 130.825 15.3655V14.2506H131.797V19.9355H130.825V18.9309C130.318 19.7147 129.644 20.0238 128.993 20.0238C127.26 20.0238 126.288 18.6881 126.288 17.1537ZM136.381 19.814C136.172 19.8582 135.785 19.9244 135.421 19.9134C134.582 19.8913 133.831 19.1848 133.831 18.2907V15.1557H132.882V14.2064H133.831V12.3629H134.803V14.2064H136.205V15.1557H134.803V18.2907C134.803 18.7102 135.057 18.942 135.465 18.953C135.719 18.953 135.984 18.9089 136.172 18.8647L136.381 19.814ZM138.465 17.507C138.465 18.3459 138.984 18.9972 139.9 18.9972C140.872 18.9972 141.479 18.1914 141.479 17.4297V14.2174H142.45V19.9355H141.479V19.0303C141.07 19.6264 140.596 19.9355 139.812 19.9355C138.542 19.9355 137.494 18.9972 137.494 17.5842V14.2506H138.465V17.507ZM144.571 18.3238C144.769 18.7985 145.233 19.0524 145.851 19.0303C146.756 18.9972 147.065 17.9706 146.182 17.6946C145.829 17.5842 145.189 17.4186 144.637 17.0544C143.776 16.4914 143.765 15.6304 144.041 15.0674C144.383 14.383 145.277 14.1622 145.818 14.2064C146.348 14.2616 147.01 14.4492 147.43 15.0122L146.646 15.5752C146.436 15.2882 146.105 15.1888 145.741 15.1557C145.421 15.1226 145.034 15.233 144.891 15.4979C144.78 15.7518 144.791 16.0057 145.167 16.2485C145.586 16.5245 146.116 16.657 146.502 16.7894C148.423 17.4076 147.827 19.9465 145.906 19.9907C144.924 20.0348 144.041 19.527 143.687 18.7212L144.571 18.3238ZM151.661 19.9465V11.8883H154.774C155.977 11.8883 156.981 12.8707 156.981 14.0739C156.981 14.7142 156.694 15.233 156.253 15.6304C156.319 15.6635 156.374 15.7077 156.441 15.7408C157.037 16.1382 157.489 16.8557 157.489 17.6725C157.489 18.9089 156.507 19.9465 155.282 19.9465H151.661ZM152.632 18.9972H155.226C155.944 18.9972 156.54 18.4563 156.54 17.6946C156.54 16.8557 155.955 16.2706 155.226 16.2706H152.632V18.9972ZM152.632 15.3213H154.829L154.796 15.3103C155.491 15.2882 156.032 14.7804 156.032 14.096C156.032 13.3675 155.469 12.8376 154.73 12.8376H152.632V15.3213ZM161.247 19.0524C162.186 19.0524 163.047 18.3238 163.058 17.1537C163.047 15.9836 162.186 15.244 161.247 15.244C160.099 15.244 159.47 16.0609 159.47 17.1537C159.47 18.2465 160.099 19.0524 161.247 19.0524ZM158.499 17.1537C158.499 15.5973 159.47 14.2837 161.203 14.2837C161.844 14.2837 162.55 14.6148 163.036 15.3655V14.2506H164.007V19.9355H163.036V18.9309C162.528 19.7147 161.855 20.0238 161.203 20.0238C159.47 20.0238 158.499 18.6881 158.499 17.1537ZM166.211 15.3875C166.554 14.6479 167.459 14.2064 168.132 14.2064V15.1888C167.094 15.1888 166.211 16.2044 166.211 17.0544V19.9355H165.24V14.2506H166.211V15.3875Z" fill="white"/>
<path d="M136.585 48.2502L135.614 48.2171L135.768 43.9231H140.007V44.8945H136.707L136.63 47.0028C137.005 46.8041 137.446 46.6938 137.899 46.6938C139.356 46.6938 140.603 47.8749 140.603 49.343C140.603 50.8664 139.356 52.0365 137.899 52.0365C136.663 52.0365 135.548 51.1754 135.272 49.9943L136.221 49.7735C136.398 50.5573 137.038 51.0651 137.899 51.0651C138.903 51.0651 139.632 50.3807 139.632 49.343C139.632 48.3606 138.915 47.6652 137.899 47.6652C137.347 47.6652 136.928 47.8639 136.585 48.2502ZM144.357 51.043C145.362 51.043 146.101 50.3586 146.101 49.3651C146.101 48.3937 145.362 47.6872 144.357 47.6872C143.364 47.6872 142.646 48.3937 142.646 49.3651C142.646 50.3586 143.353 51.043 144.357 51.043ZM141.675 49.3651C141.675 48.8463 141.829 48.3606 142.094 47.9522L144.39 43.9231H145.505L143.883 46.76C144.048 46.7269 144.214 46.7158 144.379 46.7158C145.825 46.7158 147.073 47.897 147.073 49.3651C147.073 50.8553 145.836 52.0144 144.379 52.0144C142.933 52.0144 141.675 50.8553 141.675 49.3651Z" fill="white"/>
</g>
</g>
<line x1="30.9092" y1="27.85" x2="253.89" y2="27.85" stroke="#007D00" stroke-width="0.673089"/>
<line x1="30.9092" y1="66.4857" x2="253.89" y2="66.4857" stroke="#007D00" stroke-width="0.673089"/>
<g opacity="0.6" filter="url(#filter0_dd_1099_78959)">
<g clip-path="url(#clip1_1099_78959)">
<path d="M33.6641 241.785C33.6641 229.592 43.5484 219.708 55.7414 219.708H232.36C244.553 219.708 254.437 229.592 254.437 241.785V359.531H33.6641V241.785Z" fill="white"/>
<rect width="196.243" height="100.856" transform="translate(45.9297 239.332)" fill="white"/>
<rect width="196.243" height="19.6243" transform="translate(45.9297 239.332)" fill="white"/>
<path d="M46.3222 249.947H56.257V251.186H52.0377V254.375H50.5046V251.186H46.3222V249.947ZM46.8373 248.168C49.0941 247.911 50.3206 246.819 50.4801 245.826H47.2175V244.636H50.5046V243.397H52.0377V244.636H55.3493V245.826H52.0623C52.234 246.807 53.4728 247.911 55.705 248.168L55.1776 249.358C53.3256 249.137 51.9887 248.377 51.2773 247.359C50.5659 248.377 49.229 249.137 47.3647 249.358L46.8373 248.168ZM57.2323 244.685H59.4278V243.446H60.9364V244.685H63.1319V245.863H60.9364V245.936C60.9364 247.199 61.7459 248.475 63.5121 249.002L62.7885 250.192C61.5619 249.824 60.7034 249.076 60.2128 248.119C59.7222 249.15 58.8636 249.971 57.6003 250.376L56.8644 249.186C58.6306 248.634 59.4278 247.298 59.4278 245.936V245.863H57.2323V244.685ZM58.8759 254.154V250.83H60.3967V252.94H66.3699V254.154H58.8759ZM62.7762 247.813V246.574H64.5914V243.373H66.1123V251.505H64.5914V247.813H62.7762ZM74.6553 243.373H76.1762V247.678H77.7829V248.941H76.1762V254.362H74.6553V243.373ZM67.517 246.218V245.004H69.97V243.544H71.5031V245.004H73.9317V246.218H67.517ZM67.9708 249.481C67.9708 247.948 69.1482 246.868 70.7427 246.868C72.3372 246.868 73.5269 247.948 73.5269 249.481C73.5269 251.002 72.3372 252.081 70.7427 252.081C69.1482 252.081 67.9708 251.002 67.9708 249.481ZM69.4303 249.481C69.4303 250.327 69.97 250.842 70.7427 250.842C71.5154 250.842 72.0673 250.327 72.0673 249.481C72.0673 248.622 71.5154 248.095 70.7427 248.095C69.97 248.095 69.4303 248.622 69.4303 249.481ZM85.8108 243.36H87.3316V254.35H85.8108V243.36ZM78.2309 251.271C81.0519 249.935 82.2784 248.168 82.5114 245.715H78.7951V244.501H84.0691C84.0691 247.849 82.9039 250.597 79.0159 252.473L78.2309 251.271Z" fill="#333333"/>
<path d="M237.24 243.049C237.415 242.926 237.658 242.939 237.819 243.092C237.98 243.244 238.007 243.486 237.894 243.668L237.837 243.742L232.993 248.853L237.837 253.966L237.894 254.039C238.007 254.221 237.98 254.462 237.819 254.615C237.658 254.768 237.415 254.781 237.24 254.659L237.169 254.598L232.36 249.521L227.551 254.598L227.481 254.659C227.306 254.782 227.062 254.768 226.901 254.615C226.717 254.441 226.709 254.15 226.883 253.966L231.726 248.853L226.883 243.742L226.827 243.668C226.714 243.486 226.74 243.245 226.901 243.092C227.062 242.939 227.306 242.926 227.481 243.049L227.551 243.109L232.36 248.184L237.169 243.109L237.24 243.049Z" fill="#555555"/>
<path d="M57.0703 293.299C57.0703 286.525 62.5616 281.034 69.3355 281.034C76.1094 281.034 81.6007 286.525 81.6007 293.299C81.6007 300.073 76.1094 305.565 69.3355 305.565C62.5616 305.565 57.0703 300.073 57.0703 293.299Z" fill="#1D4ED8"/>
<path fill-rule="evenodd" clip-rule="evenodd" d="M65.5905 287.78C65.12 287.78 64.6687 287.967 64.336 288.3C64.0033 288.633 63.8164 289.084 63.8164 289.554V295.468C63.8164 295.625 63.8787 295.775 63.9896 295.886C64.1005 295.997 64.2509 296.059 64.4078 296.059C64.5646 296.059 64.715 295.997 64.8259 295.886C64.9368 295.775 64.9991 295.625 64.9991 295.468V289.554C64.9991 289.398 65.0614 289.247 65.1723 289.136C65.2832 289.025 65.4336 288.963 65.5905 288.963H71.504C71.6609 288.963 71.8113 288.901 71.9222 288.79C72.0331 288.679 72.0954 288.528 72.0954 288.372C72.0954 288.215 72.0331 288.064 71.9222 287.953C71.8113 287.843 71.6609 287.78 71.504 287.78H65.5905ZM67.3645 290.146C67.0509 290.146 66.75 290.27 66.5282 290.492C66.3064 290.714 66.1818 291.015 66.1818 291.328V297.636C66.1818 297.95 66.3064 298.251 66.5282 298.473C66.75 298.694 67.0509 298.819 67.3645 298.819H73.6723C73.986 298.819 74.2869 298.694 74.5087 298.473C74.7305 298.251 74.8551 297.95 74.8551 297.636V291.328C74.8551 291.015 74.7305 290.714 74.5087 290.492C74.2869 290.27 73.986 290.146 73.6723 290.146H67.3645Z" fill="white"/>
<path d="M57.5082 313.611H58.2539V318.9H57.5082V313.611ZM51.6503 314.749V314.151H55.536V316.496H52.3863V317.742C53.9169 317.742 55.065 317.693 56.4387 317.467L56.527 318.076C55.1042 318.301 53.9366 318.35 52.3568 318.35H51.67V315.917H54.8197V314.749H51.6503ZM52.5531 320.617C52.5531 319.636 53.6422 319.077 55.4378 319.077C57.2138 319.077 58.3128 319.636 58.3128 320.617C58.3128 321.608 57.2138 322.167 55.4378 322.167C53.6422 322.167 52.5531 321.608 52.5531 320.617ZM53.289 320.617C53.289 321.225 54.0936 321.588 55.4378 321.588C56.7625 321.588 57.5769 321.225 57.5769 320.617C57.5769 320.028 56.7625 319.665 55.4378 319.665C54.0936 319.665 53.289 320.028 53.289 320.617ZM60.6446 314.484H66.5025V315.544C66.5025 316.81 66.5025 317.978 66.1492 319.714L65.4133 319.646C65.5998 318.821 65.6881 318.095 65.7371 317.418L60.5269 317.703L60.4189 317.094L65.7567 316.869C65.7764 316.417 65.7764 315.976 65.7764 315.544V315.093H60.6446V314.484ZM59.7125 320.97V320.352H67.4739V320.97H59.7125ZM70.3659 318.046H73.8787V316.996H71.406V313.807H72.1321V314.798H76.371V313.807H77.1069V316.996H74.6048V318.046H78.1175V318.655H70.3659V318.046ZM71.2294 320.126V319.528H77.1559V322.187H76.4298V320.126H71.2294ZM72.1321 316.408H76.371V315.377H72.1321V316.408ZM80.9792 314.357H81.6955V315.917C81.6955 317.428 82.6963 318.998 83.9032 319.597L83.4519 320.176C82.5197 319.685 81.7249 318.664 81.3521 317.458C80.9694 318.733 80.155 319.832 79.1934 320.352L78.742 319.754C79.9686 319.135 80.9792 317.487 80.9792 315.917V314.357ZM84.698 322.187V313.601H85.4339V317.094H86.8665V317.722H85.4339V322.187H84.698Z" fill="#616161"/>
<path d="M113.881 293.299C113.881 286.525 119.372 281.034 126.146 281.034C132.92 281.034 138.411 286.525 138.411 293.299C138.411 300.073 132.92 305.565 126.146 305.565C119.372 305.565 113.881 300.073 113.881 293.299Z" fill="#FEE500"/>
<g clip-path="url(#clip2_1099_78959)">
<g clip-path="url(#clip3_1099_78959)">
<path d="M126.218 287.903C122.812 287.903 120.066 290.06 120.066 292.756C120.066 294.496 121.218 296.041 122.983 296.874C122.861 297.34 122.517 298.614 122.444 298.884C122.37 299.227 122.566 299.227 122.689 299.129C122.812 299.055 124.356 297.977 125.042 297.511C125.41 297.56 125.802 297.585 126.169 297.585C129.552 297.585 132.321 295.428 132.321 292.732C132.346 290.06 129.601 287.903 126.218 287.903Z" fill="#391B1B"/>
</g>
</g>
<path d="M113.454 314.494C113.454 316.967 112.601 319.243 109.539 320.764L109.137 320.195C110.736 319.4 111.698 318.4 112.218 317.242L109.294 317.526L109.176 316.869L112.454 316.643C112.601 316.153 112.689 315.642 112.719 315.103H109.608V314.494H113.454ZM114.887 322.187V313.592H115.633V317.104H117.016V317.722H115.633V322.187H114.887ZM121.938 314.494C121.938 316.967 121.085 319.243 118.023 320.764L117.621 320.195C119.221 319.4 120.182 318.4 120.702 317.242L117.778 317.526L117.66 316.869L120.938 316.643C121.085 316.153 121.173 315.642 121.203 315.103H118.092V314.494H121.938ZM123.371 322.187V313.592H124.117V317.104H125.5V317.722H124.117V322.187H123.371ZM129.883 314.17C131.698 314.17 132.993 315.054 132.993 316.408C132.993 317.683 131.865 318.517 130.246 318.625V320.46H133.788V321.068H126.007V320.46H129.52V318.625C127.901 318.517 126.772 317.673 126.772 316.408C126.772 315.054 128.077 314.17 129.883 314.17ZM127.489 316.408C127.489 317.389 128.499 318.056 129.883 318.056C131.266 318.056 132.287 317.389 132.287 316.408C132.287 315.417 131.266 314.759 129.883 314.759C128.499 314.759 127.489 315.417 127.489 316.408ZM134.491 318.243H137.994V317.31H135.521V313.837H141.281V314.426H136.257V315.26H141.055V315.829H136.257V316.731H141.33V317.31H138.73V318.243H142.243V318.841H134.491V318.243ZM135.355 320.225V319.626H141.232V322.187H140.496V320.225H135.355Z" fill="#616161"/>
<path d="M165.19 293.299C165.19 286.525 170.682 281.034 177.456 281.034C184.229 281.034 189.721 286.525 189.721 293.299C189.721 300.073 184.229 305.565 177.456 305.565C170.682 305.565 165.19 300.073 165.19 293.299Z" fill="#15803D"/>
<path d="M178.075 296.954C177.961 296.965 177.078 297.737 175.425 299.268C175.338 299.35 175.228 299.404 175.11 299.424C174.991 299.443 174.87 299.428 174.761 299.38C174.651 299.331 174.558 299.252 174.493 299.151C174.428 299.051 174.394 298.933 174.395 298.813C174.407 297.365 174.402 296.539 174.38 296.336C174.369 296.23 174.4 296.164 174.38 296.152C172.984 295.269 171.937 293.775 171.937 292.076C171.937 289.365 174.408 287.167 177.456 287.167C180.504 287.167 182.975 289.365 182.975 292.076C182.975 294.6 180.832 296.68 178.075 296.954Z" fill="white"/>
<path d="M165.172 314.602H168.42V316.849H169.735V313.798H170.432V321.745H169.735V317.458H168.42V319.862H165.172V314.602ZM165.859 319.283H167.733V315.191H165.859V319.283ZM171.423 322.187V313.601H172.129V322.187H171.423ZM175.599 314.357H176.335V315.917C176.335 317.487 177.405 319.067 178.641 319.646L178.199 320.234C177.228 319.754 176.384 318.723 175.982 317.487C175.589 318.792 174.736 319.891 173.735 320.391L173.284 319.783C174.53 319.184 175.599 317.546 175.599 315.917V314.357ZM179.593 322.197V313.592H180.329V322.197H179.593ZM182.082 314.484H186.88V315.103H184.839V316.26C184.839 317.722 185.918 319.194 187.154 319.734L186.733 320.323C185.751 319.862 184.878 318.861 184.476 317.673C184.083 318.939 183.22 320.038 182.239 320.529L181.817 319.95C183.024 319.361 184.103 317.742 184.103 316.26V315.103H182.082V314.484ZM188.077 322.187V313.601H188.813V322.187H188.077Z" fill="#616161"/>
<path d="M212.001 293.299C212.001 286.525 217.492 281.034 224.266 281.034C231.04 281.034 236.531 286.525 236.531 293.299C236.531 300.073 231.04 305.565 224.266 305.565C217.492 305.565 212.001 300.073 212.001 293.299Z" fill="#EEEEEE"/>
<path d="M219.974 292.073C219.299 292.073 218.747 292.625 218.747 293.3C218.747 293.974 219.299 294.526 219.974 294.526C220.648 294.526 221.2 293.974 221.2 293.3C221.2 292.625 220.648 292.073 219.974 292.073ZM228.559 292.073C227.885 292.073 227.333 292.625 227.333 293.3C227.333 293.974 227.885 294.526 228.559 294.526C229.234 294.526 229.786 293.974 229.786 293.3C229.786 292.625 229.234 292.073 228.559 292.073ZM224.266 292.073C223.592 292.073 223.04 292.625 223.04 293.3C223.04 293.974 223.592 294.526 224.266 294.526C224.941 294.526 225.493 293.974 225.493 293.3C225.493 292.625 224.941 292.073 224.266 292.073Z" fill="#616161"/>
<path d="M212.091 314.426H215.996V315.034H212.817V319.449C214.377 319.449 215.398 319.41 216.585 319.175L216.673 319.773C215.417 320.019 214.377 320.068 212.738 320.068H212.091V314.426ZM215.486 317.34V316.731H217.978V313.601H218.714V322.197H217.978V317.34H215.486ZM220.143 320.46H223.656V318.586H221.075V314.21H221.801V315.76H226.256V314.21H226.982V318.586H224.382V320.46H227.924V321.078H220.143V320.46ZM221.801 317.987H226.256V316.368H221.801V317.987ZM234.917 313.601H235.653V322.187H234.917V313.601ZM228.735 319.979C231.051 318.87 232.218 317.193 232.375 315.132H229.118V314.524H233.121C233.121 316.996 231.983 319.175 229.128 320.568L228.735 319.979Z" fill="#616161"/>
</g>
</g>
<rect x="32.8076" y="219.155" width="221.386" height="140.436" stroke="#0D69D4" stroke-width="0.613259"/>
<rect x="45.3789" y="239.087" width="196.243" height="100.574" fill="#0D69D4" fill-opacity="0.2"/>
<rect x="45.3789" y="258.711" width="196.243" height="7.3591" fill="#C54600" fill-opacity="0.3"/>
<line x1="23.3018" y1="259.018" x2="241.622" y2="259.018" stroke="#C54600" stroke-width="0.613259"/>
<line x1="23.3018" y1="265.763" x2="241.622" y2="265.763" stroke="#C54600" stroke-width="0.613259"/>
<rect x="33.6641" y="219.708" width="220.773" height="19.6243" fill="#007D00" fill-opacity="0.3"/>
<rect x="26.2148" y="189.352" width="21.5391" height="16.0899" rx="4.35943" fill="#007D00"/>
<path d="M30.3869 201.352V200.585L33.2648 197.435C33.6026 197.066 33.8807 196.745 34.0992 196.473C34.3178 196.197 34.4796 195.939 34.5846 195.698C34.6924 195.454 34.7463 195.198 34.7463 194.932C34.7463 194.625 34.6725 194.36 34.525 194.136C34.3802 193.911 34.1815 193.738 33.9289 193.616C33.6764 193.494 33.3925 193.433 33.0775 193.433C32.7426 193.433 32.4503 193.503 32.2005 193.642C31.9536 193.778 31.762 193.969 31.6258 194.216C31.4924 194.463 31.4257 194.753 31.4257 195.085H30.421C30.421 194.574 30.5388 194.126 30.7743 193.74C31.0099 193.354 31.3306 193.053 31.7365 192.837C32.1452 192.621 32.6035 192.514 33.1116 192.514C33.6224 192.514 34.0751 192.621 34.4696 192.837C34.8641 193.053 35.1735 193.344 35.3977 193.71C35.6219 194.076 35.734 194.483 35.734 194.932C35.734 195.252 35.6758 195.566 35.5595 195.872C35.446 196.176 35.2473 196.515 34.9635 196.89C34.6825 197.262 34.2922 197.716 33.7927 198.252L31.8344 200.347V200.415H35.8873V201.352H30.3869ZM40.4894 201.471C39.848 201.471 39.3016 201.296 38.8503 200.947C38.3991 200.595 38.0542 200.086 37.8158 199.419C37.5774 198.749 37.4582 197.94 37.4582 196.992C37.4582 196.05 37.5774 195.245 37.8158 194.578C38.0571 193.908 38.4033 193.398 38.8546 193.046C39.3087 192.691 39.8536 192.514 40.4894 192.514C41.1251 192.514 41.6686 192.691 42.1199 193.046C42.574 193.398 42.9203 193.908 43.1587 194.578C43.3999 195.245 43.5205 196.05 43.5205 196.992C43.5205 197.94 43.4013 198.749 43.1629 199.419C42.9245 200.086 42.5797 200.595 42.1284 200.947C41.6772 201.296 41.1308 201.471 40.4894 201.471ZM40.4894 200.534C41.1251 200.534 41.619 200.228 41.9709 199.615C42.3228 199.002 42.4988 198.127 42.4988 196.992C42.4988 196.237 42.4179 195.594 42.2561 195.064C42.0972 194.533 41.8673 194.128 41.5665 193.85C41.2685 193.572 40.9094 193.433 40.4894 193.433C39.8593 193.433 39.3669 193.744 39.0121 194.365C38.6573 194.984 38.48 195.86 38.48 196.992C38.48 197.747 38.5594 198.389 38.7184 198.916C38.8773 199.444 39.1058 199.846 39.4038 200.121C39.7046 200.397 40.0665 200.534 40.4894 200.534Z" fill="white"/>
<rect x="236.968" y="189.352" width="21.5391" height="16.0899" rx="4.35943" fill="#007D00"/>
<path d="M241.14 201.352V200.585L244.018 197.435C244.355 197.066 244.634 196.745 244.852 196.473C245.071 196.197 245.232 195.939 245.337 195.698C245.445 195.454 245.499 195.198 245.499 194.932C245.499 194.625 245.425 194.36 245.278 194.136C245.133 193.911 244.934 193.738 244.682 193.616C244.429 193.494 244.145 193.433 243.83 193.433C243.496 193.433 243.203 193.503 242.953 193.642C242.707 193.778 242.515 193.969 242.379 194.216C242.245 194.463 242.179 194.753 242.179 195.085H241.174C241.174 194.574 241.292 194.126 241.527 193.74C241.763 193.354 242.084 193.053 242.489 192.837C242.898 192.621 243.356 192.514 243.864 192.514C244.375 192.514 244.828 192.621 245.223 192.837C245.617 193.053 245.926 193.344 246.151 193.71C246.375 194.076 246.487 194.483 246.487 194.932C246.487 195.252 246.429 195.566 246.312 195.872C246.199 196.176 246 196.515 245.716 196.89C245.435 197.262 245.045 197.716 244.546 198.252L242.587 200.347V200.415H246.64V201.352H241.14ZM251.242 201.471C250.601 201.471 250.055 201.296 249.603 200.947C249.152 200.595 248.807 200.086 248.569 199.419C248.33 198.749 248.211 197.94 248.211 196.992C248.211 196.05 248.33 195.245 248.569 194.578C248.81 193.908 249.156 193.398 249.608 193.046C250.062 192.691 250.607 192.514 251.242 192.514C251.878 192.514 252.422 192.691 252.873 193.046C253.327 193.398 253.673 193.908 253.912 194.578C254.153 195.245 254.273 196.05 254.273 196.992C254.273 197.94 254.154 198.749 253.916 199.419C253.677 200.086 253.333 200.595 252.881 200.947C252.43 201.296 251.884 201.471 251.242 201.471ZM251.242 200.534C251.878 200.534 252.372 200.228 252.724 199.615C253.076 199.002 253.252 198.127 253.252 196.992C253.252 196.237 253.171 195.594 253.009 195.064C252.85 194.533 252.62 194.128 252.319 193.85C252.021 193.572 251.662 193.433 251.242 193.433C250.612 193.433 250.12 193.744 249.765 194.365C249.41 194.984 249.233 195.86 249.233 196.992C249.233 197.747 249.312 198.389 249.471 198.916C249.63 199.444 249.859 199.846 250.157 200.121C250.458 200.397 250.819 200.534 251.242 200.534Z" fill="white"/>
<line x1="23.3018" y1="219.77" x2="253.887" y2="219.77" stroke="#007D00" stroke-width="0.613259"/>
<line x1="23.3018" y1="238.781" x2="253.887" y2="238.781" stroke="#007D00" stroke-width="0.613259"/>
<rect x="33.1133" y="339.661" width="220.773" height="19.6243" fill="#007D00" fill-opacity="0.3"/>
<rect x="49.667" y="305.502" width="36.1823" height="4.98584" fill="#C54600" fill-opacity="0.3"/>
<line x1="23.1758" y1="305.503" x2="90.5116" y2="305.503" stroke="#C54600" stroke-width="0.613259"/>
<line x1="23.1758" y1="309.918" x2="90.5116" y2="309.918" stroke="#C54600" stroke-width="0.613259"/>
<rect x="44.7627" y="275.587" width="45.9944" height="4.98584" fill="#007D00" fill-opacity="0.3"/>
<line x1="23.1758" y1="275.696" x2="90.5116" y2="275.696" stroke="#007D00" stroke-width="0.613259"/>
<path d="M44.3047 279.915L90.3754 279.914" stroke="#007D00" stroke-width="0.613259"/>
<rect x="44.7637" y="325.446" width="45.9944" height="4.98584" fill="#007D00" fill-opacity="0.3"/>
<path d="M45.5322 325.372L90.5142 325.372" stroke="#007D00" stroke-width="0.613259"/>
<path d="M45.2539 329.788H90.5124" stroke="#007D00" stroke-width="0.613259"/>
<rect x="44.7666" y="280.571" width="4.90607" height="44.8726" fill="#007D00" fill-opacity="0.3"/>
<line x1="45.0732" y1="265.614" x2="45.0732" y2="330.43" stroke="#007D00" stroke-width="0.613259"/>
<line x1="49.3662" y1="265.614" x2="49.3662" y2="330.43" stroke="#007D00" stroke-width="0.613259"/>
<rect x="85.8506" y="280.571" width="4.90607" height="44.8726" fill="#007D00" fill-opacity="0.3"/>
<line x1="86.1572" y1="265.614" x2="86.1572" y2="330.43" stroke="#007D00" stroke-width="0.613259"/>
<line x1="90.4502" y1="265.614" x2="90.4502" y2="330.43" stroke="#007D00" stroke-width="0.613259"/>
<line x1="23.3008" y1="339.968" x2="253.886" y2="339.968" stroke="#007D00" stroke-width="0.613259"/>
<line x1="23.3008" y1="358.978" x2="253.886" y2="358.978" stroke="#007D00" stroke-width="0.613259"/>
<rect x="33.1143" y="239.086" width="12.2652" height="100.574" fill="#007D00" fill-opacity="0.3"/>
<line x1="33.4209" y1="209.649" x2="33.4209" y2="359.285" stroke="#007D00" stroke-width="0.613259"/>
<line x1="45.0713" y1="209.649" x2="45.0713" y2="359.285" stroke="#007D00" stroke-width="0.613259"/>
<rect x="241.623" y="239.086" width="12.2652" height="100.574" fill="#007D00" fill-opacity="0.3"/>
<line x1="241.93" y1="209.65" x2="241.93" y2="359.285" stroke="#007D00" stroke-width="0.613259"/>
<line x1="253.58" y1="209.65" x2="253.58" y2="359.285" stroke="#007D00" stroke-width="0.613259"/>
<rect x="45.0733" y="265.763" width="196.856" height="74.2043" stroke="#0D69D4" stroke-width="0.613259"/>
<rect x="45.3799" y="275.882" width="45.9944" height="53.9668" fill="#0D69D4" fill-opacity="0.2"/>
<rect x="103.025" y="275.882" width="44.1546" height="53.9668" fill="#0D69D4" fill-opacity="0.2"/>
<rect x="158.833" y="275.882" width="35.569" height="53.9668" fill="#0D69D4" fill-opacity="0.2"/>
<rect x="206.052" y="275.882" width="35.569" height="53.9668" fill="#0D69D4" fill-opacity="0.2"/>
<rect x="45.5332" y="266.622" width="196.243" height="9.81214" fill="#007D00" fill-opacity="0.3"/>
<line x1="23.3027" y1="266.377" x2="241.623" y2="266.377" stroke="#007D00" stroke-width="0.613259"/>
<line x1="44.3076" y1="275.774" x2="241.624" y2="275.774" stroke="#007D00" stroke-width="0.613259"/>
<rect x="45.3799" y="329.849" width="196.243" height="9.81214" fill="#007D00" fill-opacity="0.3"/>
<line x1="23.3027" y1="339.355" x2="241.623" y2="339.354" stroke="#007D00" stroke-width="0.613259"/>
<line x1="23.3027" y1="329.787" x2="241.623" y2="329.787" stroke="#007D00" stroke-width="0.613259"/>
<rect x="40.0137" y="261.102" width="14.5391" height="16.0899" rx="4.35943" fill="#007D00"/>
<path d="M46.9785 273.221C46.3938 273.221 45.8773 273.117 45.4289 272.91C44.9833 272.7 44.6356 272.412 44.3858 272.046C44.1361 271.677 44.0126 271.257 44.0155 270.786C44.0126 270.417 44.085 270.076 44.2326 269.764C44.3802 269.449 44.5817 269.186 44.8371 268.976C45.0954 268.763 45.3834 268.629 45.7013 268.572V268.521C45.2841 268.413 44.952 268.179 44.7051 267.818C44.4582 267.455 44.3362 267.042 44.339 266.579C44.3362 266.137 44.4483 265.741 44.6753 265.392C44.9024 265.043 45.2146 264.767 45.6119 264.566C46.0121 264.364 46.4676 264.264 46.9785 264.264C47.4837 264.264 47.935 264.364 48.3323 264.566C48.7297 264.767 49.0418 265.043 49.2689 265.392C49.4988 265.741 49.6152 266.137 49.618 266.579C49.6152 267.042 49.4889 267.455 49.2391 267.818C48.9922 268.179 48.6644 268.413 48.2557 268.521V268.572C48.5707 268.629 48.8545 268.763 49.1071 268.976C49.3597 269.186 49.5612 269.449 49.7117 269.764C49.8621 270.076 49.9387 270.417 49.9415 270.786C49.9387 271.257 49.811 271.677 49.5584 272.046C49.3086 272.412 48.961 272.7 48.5154 272.91C48.0726 273.117 47.5603 273.221 46.9785 273.221ZM46.9785 272.284C47.373 272.284 47.7136 272.22 48.0002 272.093C48.2869 271.965 48.5083 271.785 48.6644 271.552C48.8205 271.319 48.8999 271.047 48.9028 270.735C48.8999 270.405 48.8148 270.114 48.6473 269.862C48.4799 269.609 48.2514 269.411 47.9619 269.266C47.6753 269.121 47.3475 269.049 46.9785 269.049C46.6067 269.049 46.2746 269.121 45.9823 269.266C45.6928 269.411 45.4643 269.609 45.2969 269.862C45.1323 270.114 45.0514 270.405 45.0542 270.735C45.0514 271.047 45.1266 271.319 45.2799 271.552C45.436 271.785 45.6588 271.965 45.9482 272.093C46.2377 272.22 46.5812 272.284 46.9785 272.284ZM46.9785 268.146C47.2907 268.146 47.5674 268.084 47.8087 267.959C48.0527 267.834 48.2443 267.659 48.3834 267.435C48.5225 267.211 48.5934 266.948 48.5963 266.648C48.5934 266.352 48.5239 266.096 48.3877 265.877C48.2514 265.656 48.0627 265.485 47.8214 265.366C47.5802 265.244 47.2992 265.183 46.9785 265.183C46.6521 265.183 46.3669 265.244 46.1228 265.366C45.8787 265.485 45.69 265.656 45.5566 265.877C45.4232 266.096 45.3579 266.352 45.3607 266.648C45.3579 266.948 45.4246 267.211 45.5608 267.435C45.6999 267.659 45.8915 267.834 46.1356 267.959C46.3796 268.084 46.6606 268.146 46.9785 268.146Z" fill="white"/>
<rect x="81.4102" y="261.102" width="14.5391" height="16.0899" rx="4.35943" fill="#007D00"/>
<path d="M88.375 273.221C87.7903 273.221 87.2738 273.117 86.8253 272.91C86.3798 272.7 86.0321 272.412 85.7823 272.046C85.5326 271.677 85.4091 271.257 85.4119 270.786C85.4091 270.417 85.4815 270.076 85.6291 269.764C85.7766 269.449 85.9782 269.186 86.2336 268.976C86.4919 268.763 86.7799 268.629 87.0978 268.572V268.521C86.6806 268.413 86.3485 268.179 86.1016 267.818C85.8547 267.455 85.7326 267.042 85.7355 266.579C85.7326 266.137 85.8448 265.741 86.0718 265.392C86.2989 265.043 86.6111 264.767 87.0084 264.566C87.4086 264.364 87.8641 264.264 88.375 264.264C88.8802 264.264 89.3314 264.364 89.7288 264.566C90.1261 264.767 90.4383 265.043 90.6654 265.392C90.8953 265.741 91.0116 266.137 91.0145 266.579C91.0116 267.042 90.8853 267.455 90.6356 267.818C90.3887 268.179 90.0609 268.413 89.6522 268.521V268.572C89.9672 268.629 90.251 268.763 90.5036 268.976C90.7562 269.186 90.9577 269.449 91.1081 269.764C91.2586 270.076 91.3352 270.417 91.338 270.786C91.3352 271.257 91.2075 271.677 90.9549 272.046C90.7051 272.412 90.3574 272.7 89.9119 272.91C89.4691 273.117 88.9568 273.221 88.375 273.221ZM88.375 272.284C88.7695 272.284 89.1101 272.22 89.3967 272.093C89.6834 271.965 89.9048 271.785 90.0609 271.552C90.217 271.319 90.2964 271.047 90.2993 270.735C90.2964 270.405 90.2113 270.114 90.0438 269.862C89.8764 269.609 89.6479 269.411 89.3584 269.266C89.0718 269.121 88.7439 269.049 88.375 269.049C88.0032 269.049 87.6711 269.121 87.3788 269.266C87.0893 269.411 86.8608 269.609 86.6934 269.862C86.5288 270.114 86.4479 270.405 86.4507 270.735C86.4479 271.047 86.5231 271.319 86.6763 271.552C86.8324 271.785 87.0552 271.965 87.3447 272.093C87.6342 272.22 87.9776 272.284 88.375 272.284ZM88.375 268.146C88.6872 268.146 88.9639 268.084 89.2051 267.959C89.4492 267.834 89.6408 267.659 89.7799 267.435C89.9189 267.211 89.9899 266.948 89.9927 266.648C89.9899 266.352 89.9204 266.096 89.7841 265.877C89.6479 265.656 89.4592 265.485 89.2179 265.366C88.9767 265.244 88.6957 265.183 88.375 265.183C88.0486 265.183 87.7634 265.244 87.5193 265.366C87.2752 265.485 87.0865 265.656 86.9531 265.877C86.8197 266.096 86.7544 266.352 86.7572 266.648C86.7544 266.948 86.8211 267.211 86.9573 267.435C87.0964 267.659 87.288 267.834 87.532 267.959C87.7761 268.084 88.0571 268.146 88.375 268.146Z" fill="white"/>
<rect y="248.683" width="19.5391" height="16.0899" rx="4.35943" fill="#C54600"/>
<path d="M7.23729 251.964V260.683H6.18149V253.071H6.13041L4.00178 254.484V253.411L6.18149 251.964H7.23729ZM9.74481 260.683V259.916L12.6227 256.766C12.9605 256.397 13.2386 256.076 13.4571 255.804C13.6757 255.529 13.8375 255.27 13.9425 255.029C14.0503 254.785 14.1042 254.529 14.1042 254.263C14.1042 253.956 14.0305 253.691 13.8829 253.467C13.7381 253.242 13.5394 253.069 13.2869 252.947C13.0343 252.825 12.7504 252.764 12.4354 252.764C12.1005 252.764 11.8082 252.834 11.5584 252.973C11.3115 253.109 11.1199 253.301 10.9837 253.547C10.8503 253.794 10.7836 254.084 10.7836 254.416H9.77887C9.77887 253.905 9.89666 253.457 10.1322 253.071C10.3678 252.685 10.6885 252.384 11.0944 252.168C11.5031 251.952 11.9614 251.845 12.4695 251.845C12.9803 251.845 13.433 251.952 13.8275 252.168C14.222 252.384 14.5314 252.675 14.7556 253.041C14.9798 253.407 15.0919 253.814 15.0919 254.263C15.0919 254.583 15.0337 254.897 14.9174 255.204C14.8039 255.507 14.6052 255.846 14.3214 256.221C14.0404 256.593 13.6501 257.047 13.1506 257.583L11.1923 259.678V259.746H15.2452V260.683H9.74481Z" fill="white"/>
<rect x="2.75977" y="298.356" width="14.5391" height="16.0899" rx="4.35943" fill="#C54600"/>
<path d="M9.72459 310.476C9.13993 310.476 8.62338 310.372 8.17495 310.165C7.72936 309.955 7.38168 309.667 7.13193 309.301C6.88217 308.932 6.75871 308.512 6.76154 308.04C6.75871 307.672 6.83108 307.331 6.97866 307.019C7.12625 306.704 7.32776 306.441 7.58319 306.231C7.84147 306.018 8.12954 305.883 8.44742 305.827V305.776C8.03021 305.668 7.69814 305.434 7.45122 305.073C7.2043 304.71 7.08226 304.297 7.0851 303.834C7.08226 303.392 7.19437 302.996 7.42142 302.647C7.64847 302.297 7.96067 302.022 8.35802 301.821C8.7582 301.619 9.21372 301.518 9.72459 301.518C10.2298 301.518 10.6811 301.619 11.0784 301.821C11.4757 302.022 11.7879 302.297 12.015 302.647C12.2449 302.996 12.3613 303.392 12.3641 303.834C12.3613 304.297 12.235 304.71 11.9852 305.073C11.7383 305.434 11.4105 305.668 11.0018 305.776V305.827C11.3168 305.883 11.6006 306.018 11.8532 306.231C12.1058 306.441 12.3073 306.704 12.4578 307.019C12.6082 307.331 12.6848 307.672 12.6876 308.04C12.6848 308.512 12.5571 308.932 12.3045 309.301C12.0547 309.667 11.7071 309.955 11.2615 310.165C10.8187 310.372 10.3064 310.476 9.72459 310.476ZM9.72459 309.539C10.1191 309.539 10.4597 309.475 10.7463 309.347C11.033 309.22 11.2544 309.04 11.4105 308.807C11.5666 308.574 11.646 308.302 11.6489 307.989C11.646 307.66 11.5609 307.369 11.3934 307.117C11.226 306.864 10.9975 306.665 10.708 306.521C10.4214 306.376 10.0936 306.304 9.72459 306.304C9.35279 306.304 9.02073 306.376 8.7284 306.521C8.4389 306.665 8.21043 306.864 8.04298 307.117C7.87836 307.369 7.79748 307.66 7.80031 307.989C7.79748 308.302 7.87269 308.574 8.02595 308.807C8.18205 309.04 8.40484 309.22 8.69434 309.347C8.98383 309.475 9.32725 309.539 9.72459 309.539ZM9.72459 305.401C10.0368 305.401 10.3135 305.339 10.5548 305.214C10.7988 305.089 10.9904 304.914 11.1295 304.69C11.2686 304.466 11.3395 304.203 11.3424 303.902C11.3395 303.607 11.27 303.35 11.1337 303.132C10.9975 302.911 10.8088 302.74 10.5675 302.621C10.3263 302.499 10.0453 302.438 9.72459 302.438C9.3982 302.438 9.11297 302.499 8.86889 302.621C8.6248 302.74 8.43606 302.911 8.30267 303.132C8.16928 303.35 8.104 303.607 8.10684 303.902C8.104 304.203 8.1707 304.466 8.30693 304.69C8.446 304.914 8.63757 305.089 8.88166 305.214C9.12574 305.339 9.40672 305.401 9.72459 305.401Z" fill="white"/>
<rect y="221.086" width="21.5391" height="16.0899" rx="4.35943" fill="#007D00"/>
<path d="M7.11809 233.205C6.55613 233.205 6.05519 233.109 5.61528 232.916C5.1782 232.723 4.83052 232.454 4.57225 232.111C4.31682 231.765 4.17775 231.363 4.15504 230.906H5.22787C5.25057 231.187 5.34707 231.43 5.51736 231.634C5.68765 231.836 5.91045 231.992 6.18575 232.103C6.46105 232.213 6.76616 232.269 7.10106 232.269C7.4757 232.269 7.80776 232.203 8.09726 232.073C8.38675 231.942 8.6138 231.761 8.77842 231.528C8.94303 231.295 9.02534 231.025 9.02534 230.719C9.02534 230.398 8.94587 230.116 8.78693 229.872C8.628 229.625 8.39527 229.432 8.08874 229.293C7.78222 229.154 7.40758 229.084 6.96483 229.084H6.26664V228.148H6.96483C7.31108 228.148 7.61477 228.085 7.87588 227.96C8.13983 227.835 8.3456 227.659 8.49318 227.432C8.64361 227.205 8.71882 226.938 8.71882 226.632C8.71882 226.337 8.65354 226.08 8.52298 225.861C8.39243 225.643 8.20795 225.473 7.96954 225.351C7.73397 225.228 7.45583 225.167 7.13512 225.167C6.83427 225.167 6.55046 225.223 6.28367 225.333C6.01972 225.441 5.80402 225.599 5.63656 225.806C5.46911 226.01 5.37829 226.257 5.3641 226.547H4.34236C4.35939 226.09 4.49704 225.69 4.75531 225.346C5.01359 225 5.35133 224.73 5.76854 224.537C6.18859 224.344 6.64979 224.248 7.15215 224.248C7.6914 224.248 8.15402 224.357 8.54001 224.576C8.926 224.791 9.22259 225.077 9.42978 225.431C9.63696 225.786 9.74056 226.169 9.74056 226.581C9.74056 227.072 9.61142 227.49 9.35315 227.837C9.09771 228.183 8.75004 228.423 8.31012 228.556V228.624C8.86073 228.715 9.29071 228.949 9.60007 229.327C9.90943 229.701 10.0641 230.165 10.0641 230.719C10.0641 231.193 9.93497 231.619 9.6767 231.996C9.42126 232.371 9.07217 232.666 8.62941 232.882C8.18666 233.097 7.68288 233.205 7.11809 233.205ZM11.8053 233.086V232.32L14.6832 229.169C15.021 228.8 15.2991 228.48 15.5177 228.207C15.7362 227.932 15.898 227.674 16.003 227.432C16.1108 227.188 16.1648 226.933 16.1648 226.666C16.1648 226.359 16.091 226.094 15.9434 225.87C15.7986 225.646 15.6 225.473 15.3474 225.351C15.0948 225.228 14.8109 225.167 14.4959 225.167C14.161 225.167 13.8687 225.237 13.6189 225.376C13.372 225.512 13.1804 225.704 13.0442 225.951C12.9108 226.198 12.8441 226.487 12.8441 226.819H11.8394C11.8394 226.308 11.9572 225.86 12.1927 225.474C12.4283 225.088 12.749 224.787 13.1549 224.571C13.5636 224.356 14.0219 224.248 14.53 224.248C15.0408 224.248 15.4935 224.356 15.888 224.571C16.2825 224.787 16.5919 225.078 16.8161 225.444C17.0403 225.81 17.1524 226.218 17.1524 226.666C17.1524 226.987 17.0943 227.3 16.9779 227.607C16.8644 227.911 16.6657 228.25 16.3819 228.624C16.1009 228.996 15.7106 229.45 15.2111 229.987L13.2528 232.081V232.149H17.3057V233.086H11.8053Z" fill="white"/>
<rect y="343.891" width="21.5391" height="16.0899" rx="4.35943" fill="#007D00"/>
<path d="M7.11809 356.01C6.55613 356.01 6.05519 355.913 5.61528 355.72C5.1782 355.527 4.83052 355.259 4.57225 354.916C4.31682 354.569 4.17775 354.168 4.15504 353.711H5.22787C5.25057 353.992 5.34707 354.235 5.51736 354.439C5.68765 354.64 5.91045 354.797 6.18575 354.907C6.46105 355.018 6.76616 355.073 7.10106 355.073C7.4757 355.073 7.80776 355.008 8.09726 354.877C8.38675 354.747 8.6138 354.565 8.77842 354.332C8.94303 354.1 9.02534 353.83 9.02534 353.524C9.02534 353.203 8.94587 352.92 8.78693 352.676C8.628 352.429 8.39527 352.236 8.08874 352.097C7.78222 351.958 7.40758 351.889 6.96483 351.889H6.26664V350.952H6.96483C7.31108 350.952 7.61477 350.89 7.87588 350.765C8.13983 350.64 8.3456 350.464 8.49318 350.237C8.64361 350.01 8.71882 349.743 8.71882 349.437C8.71882 349.141 8.65354 348.885 8.52298 348.666C8.39243 348.448 8.20795 348.277 7.96954 348.155C7.73397 348.033 7.45583 347.972 7.13512 347.972C6.83427 347.972 6.55046 348.027 6.28367 348.138C6.01972 348.246 5.80402 348.404 5.63656 348.611C5.46911 348.815 5.37829 349.062 5.3641 349.351H4.34236C4.35939 348.895 4.49704 348.494 4.75531 348.151C5.01359 347.805 5.35133 347.535 5.76854 347.342C6.18859 347.149 6.64979 347.053 7.15215 347.053C7.6914 347.053 8.15402 347.162 8.54001 347.38C8.926 347.596 9.22259 347.881 9.42978 348.236C9.63696 348.591 9.74056 348.974 9.74056 349.386C9.74056 349.877 9.61142 350.295 9.35315 350.641C9.09771 350.988 8.75004 351.228 8.31012 351.361V351.429C8.86073 351.52 9.29071 351.754 9.60007 352.131C9.90943 352.506 10.0641 352.97 10.0641 353.524C10.0641 353.998 9.93497 354.423 9.6767 354.801C9.42126 355.175 9.07217 355.471 8.62941 355.686C8.18666 355.902 7.68288 356.01 7.11809 356.01ZM11.8053 355.891V355.124L14.6832 351.974C15.021 351.605 15.2991 351.284 15.5177 351.012C15.7362 350.737 15.898 350.478 16.003 350.237C16.1108 349.993 16.1648 349.737 16.1648 349.471C16.1648 349.164 16.091 348.899 15.9434 348.675C15.7986 348.45 15.6 348.277 15.3474 348.155C15.0948 348.033 14.8109 347.972 14.4959 347.972C14.161 347.972 13.8687 348.042 13.6189 348.181C13.372 348.317 13.1804 348.509 13.0442 348.755C12.9108 349.002 12.8441 349.292 12.8441 349.624H11.8394C11.8394 349.113 11.9572 348.665 12.1927 348.279C12.4283 347.893 12.749 347.592 13.1549 347.376C13.5636 347.16 14.0219 347.053 14.53 347.053C15.0408 347.053 15.4935 347.16 15.888 347.376C16.2825 347.592 16.5919 347.883 16.8161 348.249C17.0403 348.615 17.1524 349.022 17.1524 349.471C17.1524 349.791 17.0943 350.105 16.9779 350.412C16.8644 350.715 16.6657 351.054 16.3819 351.429C16.1009 351.801 15.7106 352.255 15.2111 352.791L13.2528 354.886V354.954H17.3057V355.891H11.8053Z" fill="white"/>
<rect y="266.62" width="20.5391" height="16.0899" rx="4.35943" fill="#007D00"/>
<path d="M7.23729 269.901V278.62H6.18149V271.008H6.13041L4.00178 272.422V271.349L6.18149 269.901H7.23729ZM12.6397 278.739C12.2821 278.734 11.9245 278.666 11.5669 278.535C11.2093 278.404 10.8829 278.184 10.5878 277.875C10.2926 277.563 10.0556 277.141 9.87679 276.611C9.69799 276.077 9.60858 275.407 9.60858 274.601C9.60858 273.829 9.68096 273.145 9.8257 272.549C9.97045 271.95 10.1805 271.447 10.4558 271.038C10.7311 270.626 11.0631 270.314 11.452 270.101C11.8436 269.888 12.285 269.782 12.776 269.782C13.2641 269.782 13.6984 269.88 14.0787 270.076C14.4619 270.269 14.7741 270.538 15.0153 270.885C15.2565 271.231 15.4126 271.63 15.4836 272.081H14.4448C14.3483 271.689 14.161 271.364 13.8829 271.106C13.6047 270.848 13.2358 270.719 12.776 270.719C12.1005 270.719 11.5683 271.012 11.1795 271.6C10.7935 272.187 10.5991 273.012 10.5963 274.073H10.6644C10.8233 273.832 11.0121 273.626 11.2306 273.456C11.452 273.283 11.6961 273.15 11.9628 273.056C12.2296 272.962 12.512 272.915 12.81 272.915C13.3096 272.915 13.7665 273.04 14.1809 273.29C14.5952 273.537 14.9273 273.879 15.1771 274.316C15.4268 274.75 15.5517 275.248 15.5517 275.81C15.5517 276.35 15.4311 276.843 15.1898 277.292C14.9486 277.737 14.6094 278.092 14.1724 278.356C13.7381 278.617 13.2272 278.745 12.6397 278.739ZM12.6397 277.803C12.9974 277.803 13.3181 277.713 13.6019 277.535C13.8885 277.356 14.1142 277.116 14.2788 276.815C14.4462 276.514 14.53 276.179 14.53 275.81C14.53 275.45 14.4491 275.122 14.2873 274.827C14.1284 274.529 13.9084 274.292 13.6274 274.116C13.3493 273.94 13.0314 273.852 12.6738 273.852C12.4042 273.852 12.153 273.906 11.9203 274.014C11.6875 274.119 11.4832 274.264 11.3072 274.448C11.1341 274.632 10.9979 274.844 10.8985 275.082C10.7992 275.318 10.7495 275.566 10.7495 275.827C10.7495 276.174 10.8304 276.497 10.9922 276.798C11.1568 277.099 11.381 277.342 11.6648 277.526C11.9515 277.71 12.2765 277.803 12.6397 277.803Z" fill="white"/>
<rect y="325.953" width="20.5391" height="16.0899" rx="4.35943" fill="#007D00"/>
<path d="M7.23729 329.234V337.953H6.18149V330.341H6.13041L4.00178 331.755V330.682L6.18149 329.234H7.23729ZM12.6397 338.072C12.2821 338.067 11.9245 337.999 11.5669 337.868C11.2093 337.737 10.8829 337.517 10.5878 337.208C10.2926 336.896 10.0556 336.474 9.87679 335.944C9.69799 335.41 9.60858 334.74 9.60858 333.934C9.60858 333.162 9.68096 332.478 9.8257 331.882C9.97045 331.283 10.1805 330.78 10.4558 330.371C10.7311 329.959 11.0631 329.647 11.452 329.434C11.8436 329.221 12.285 329.115 12.776 329.115C13.2641 329.115 13.6984 329.213 14.0787 329.409C14.4619 329.602 14.7741 329.871 15.0153 330.218C15.2565 330.564 15.4126 330.963 15.4836 331.414H14.4448C14.3483 331.022 14.161 330.697 13.8829 330.439C13.6047 330.181 13.2358 330.052 12.776 330.052C12.1005 330.052 11.5683 330.345 11.1795 330.933C10.7935 331.52 10.5991 332.345 10.5963 333.406H10.6644C10.8233 333.165 11.0121 332.959 11.2306 332.789C11.452 332.616 11.6961 332.483 11.9628 332.389C12.2296 332.295 12.512 332.248 12.81 332.248C13.3096 332.248 13.7665 332.373 14.1809 332.623C14.5952 332.87 14.9273 333.212 15.1771 333.649C15.4268 334.083 15.5517 334.581 15.5517 335.143C15.5517 335.683 15.4311 336.176 15.1898 336.625C14.9486 337.07 14.6094 337.425 14.1724 337.689C13.7381 337.95 13.2272 338.078 12.6397 338.072ZM12.6397 337.136C12.9974 337.136 13.3181 337.046 13.6019 336.868C13.8885 336.689 14.1142 336.449 14.2788 336.148C14.4462 335.847 14.53 335.512 14.53 335.143C14.53 334.783 14.4491 334.455 14.2873 334.16C14.1284 333.862 13.9084 333.625 13.6274 333.449C13.3493 333.273 13.0314 333.185 12.6738 333.185C12.4042 333.185 12.153 333.239 11.9203 333.347C11.6875 333.452 11.4832 333.597 11.3072 333.781C11.1341 333.965 10.9979 334.177 10.8985 334.415C10.7992 334.651 10.7495 334.899 10.7495 335.16C10.7495 335.507 10.8304 335.83 10.9922 336.131C11.1568 336.432 11.381 336.675 11.6648 336.859C11.9515 337.043 12.2765 337.136 12.6397 337.136Z" fill="white"/>
<path d="M241.471 336.992L45.5346 336.992" stroke="black" stroke-width="1.10387"/>
<path d="M45.5342 334.232V339.752" stroke="black" stroke-width="1.10387"/>
<path d="M241.471 334.232V339.752" stroke="black" stroke-width="1.10387"/>
<rect x="113.836" y="343.063" width="59.3328" height="22.9052" rx="4.41546" fill="#333333"/>
<path d="M123.483 349.09H130.934V349.947C130.934 350.829 130.934 351.834 130.686 353.188H132.176V354.107H129.494V356.678H128.388V354.107H126.662V356.678H125.557V354.107H122.254V353.188H129.556C129.817 351.847 129.817 350.866 129.817 349.997H123.483V349.09ZM123.409 359.248V355.771H124.551V358.317H131.22V359.248H123.409ZM133.12 353.685H143.018V354.616H133.12V353.685ZM134.288 357.472C134.288 356.206 135.703 355.486 138.05 355.486C140.385 355.486 141.813 356.206 141.813 357.472C141.813 358.739 140.385 359.459 138.05 359.459C135.703 359.459 134.288 358.739 134.288 357.472ZM134.362 352.704V348.916H141.788V349.848H135.48V351.797H141.863V352.704H134.362ZM135.43 357.472C135.43 358.193 136.399 358.578 138.05 358.578C139.702 358.578 140.658 358.193 140.658 357.472C140.658 356.777 139.702 356.367 138.05 356.367C136.399 356.367 135.43 356.777 135.43 357.472ZM143.949 354.256H153.872V355.163H149.575V357.199H148.432V355.163H143.949V354.256ZM145.191 359.248V356.255H146.309V358.305H152.779V359.248H145.191ZM145.266 353.275V348.854H146.383V350.183H151.45V348.854H152.58V353.275H145.266ZM146.383 352.368H151.45V351.065H146.383V352.368ZM162.205 348.481H163.347V351.052H164.937V351.984H163.347V354.492H162.205V348.481ZM154.841 350.332V349.45H157.511V348.395H158.641V349.45H161.311V350.332H154.841ZM155.437 352.567C155.437 351.45 156.48 350.766 158.069 350.766C159.659 350.766 160.715 351.45 160.715 352.567C160.715 353.66 159.659 354.355 158.069 354.355C156.48 354.355 155.437 353.66 155.437 352.567ZM156.331 355.87V355.026H163.347V357.547H157.473V358.491H163.72V359.36H156.356V356.74H162.23V355.87H156.331ZM156.517 352.567C156.517 353.163 157.126 353.536 158.069 353.536C159.013 353.536 159.622 353.163 159.622 352.567C159.622 351.946 159.013 351.586 158.069 351.586C157.126 351.586 156.517 351.946 156.517 352.567Z" fill="white"/>
<defs>
<filter id="filter0_dd_1099_78959" x="23.8519" y="214.802" width="240.398" height="159.448" filterUnits="userSpaceOnUse" color-interpolation-filters="sRGB">
<feFlood flood-opacity="0" result="BackgroundImageFix"/>
<feColorMatrix in="SourceAlpha" type="matrix" values="0 0 0 0 0 0 0 0 0 0 0 0 0 0 0 0 0 0 127 0" result="hardAlpha"/>
<feOffset/>
<feGaussianBlur stdDeviation="2.45303"/>
<feComposite in2="hardAlpha" operator="out"/>
<feColorMatrix type="matrix" values="0 0 0 0 0 0 0 0 0 0 0 0 0 0 0 0 0 0 0.12 0"/>
<feBlend mode="normal" in2="BackgroundImageFix" result="effect1_dropShadow_1099_78959"/>
<feColorMatrix in="SourceAlpha" type="matrix" values="0 0 0 0 0 0 0 0 0 0 0 0 0 0 0 0 0 0 127 0" result="hardAlpha"/>
<feOffset dy="4.90607"/>
<feGaussianBlur stdDeviation="4.90607"/>
<feComposite in2="hardAlpha" operator="out"/>
<feColorMatrix type="matrix" values="0 0 0 0 0 0 0 0 0 0 0 0 0 0 0 0 0 0 0.12 0"/>
<feBlend mode="normal" in2="effect1_dropShadow_1099_78959" result="effect2_dropShadow_1099_78959"/>
<feBlend mode="normal" in="SourceGraphic" in2="effect2_dropShadow_1099_78959" result="shape"/>
</filter>
<clipPath id="clip0_1099_78959">
<rect width="220.773" height="354.341" fill="white" transform="translate(33.1162 3.90234)"/>
</clipPath>
<clipPath id="clip1_1099_78959">
<path d="M33.6641 241.785C33.6641 229.592 43.5484 219.708 55.7414 219.708H232.36C244.553 219.708 254.437 229.592 254.437 241.785V359.531H33.6641V241.785Z" fill="white"/>
</clipPath>
<clipPath id="clip2_1099_78959">
<rect width="14.7059" height="14.7059" fill="white" transform="translate(118.793 285.946)"/>
</clipPath>
<clipPath id="clip3_1099_78959">
<rect width="14.7059" height="14.7059" fill="white" transform="translate(118.793 285.944)"/>
</clipPath>
</defs>
</svg>
