<svg width="379" height="85" viewBox="0 0 379 85" fill="none" xmlns="http://www.w3.org/2000/svg">
<rect width="295.284" height="46.3624" transform="translate(43.8926 38.6348)" fill="white"/>
<path fill-rule="evenodd" clip-rule="evenodd" d="M66.8309 56.263C67.1542 56.5863 67.1542 57.1105 66.8309 57.4338L62.4489 61.8158L66.8309 66.1978C67.1542 66.5211 67.1542 67.0453 66.8309 67.3686C66.5076 67.6919 65.9834 67.6919 65.6601 67.3686L60.6927 62.4012C60.3694 62.0779 60.3694 61.5537 60.6927 61.2304L65.6601 56.263C65.9834 55.9397 66.5076 55.9397 66.8309 56.263Z" fill="#555555"/>
<path d="M96.7291 55.1784V57.1323H93.2685V67.4976H91.2816V57.1323H87.7878V55.1784H96.7291ZM102.867 62.3812C102.702 61.2718 101.973 60.477 100.665 60.477C99.4563 60.477 98.4794 61.1062 98.2807 62.3977L102.867 62.3812ZM96.4262 63.1263C96.4262 60.7254 97.9495 58.7053 100.648 58.7053C103.43 58.7053 104.258 60.9572 104.308 61.0731C104.838 62.4143 104.722 63.9873 104.722 63.9873H98.2807C98.5787 65.0635 99.39 65.7424 100.665 65.7424C102.221 65.7424 102.569 64.8814 102.619 64.8152L104.357 65.5934C104.357 65.5934 103.563 67.5307 100.648 67.5307C97.9495 67.5307 96.4262 65.5106 96.4262 63.1263ZM114.327 58.755L111.081 63.1263L114.277 67.481H111.826L109.872 64.6496L107.935 67.481H105.485L108.631 63.1263L105.402 58.755H107.869L109.872 61.6692L111.843 58.755H114.327ZM120.892 67.2658C120.511 67.3485 119.667 67.4976 119.021 67.4479C117.729 67.3485 116.405 66.206 116.405 64.6496V60.6094H114.865V58.6556H116.405V55.5593H118.392V58.6556H120.726V60.6094H118.392V64.6496C118.392 65.1794 118.706 65.4444 119.203 65.4775C119.567 65.4941 120.147 65.3947 120.461 65.3285L120.892 67.2658Z" fill="#333333"/>
<path d="M279.568 51.8809C285.055 51.8812 289.503 56.3298 289.503 61.8164C289.503 67.3028 285.055 71.7507 279.568 71.751C274.082 71.751 269.633 67.303 269.633 61.8164C269.633 56.3296 274.082 51.8809 279.568 51.8809ZM279.568 53.123C274.767 53.123 270.875 57.0154 270.875 61.8164L270.887 62.2637C271.112 66.7082 274.676 70.2725 279.12 70.498L279.568 70.5088C284.219 70.5085 288.017 66.8564 288.25 62.2637L288.261 61.8164C288.261 57.1656 284.608 53.3679 280.016 53.1348L279.568 53.123ZM279.621 62.6689C279.633 62.6699 279.646 62.6701 279.657 62.6719L279.69 62.6777C279.698 62.6795 279.707 62.6826 279.715 62.6846C279.738 62.6904 279.762 62.6975 279.784 62.7061C279.799 62.7118 279.815 62.7187 279.829 62.7256C279.847 62.734 279.864 62.7439 279.881 62.7539C279.896 62.763 279.912 62.7729 279.926 62.7832C279.944 62.7969 279.963 62.8124 279.979 62.8281C279.988 62.8357 279.997 62.8435 280.005 62.8516C280.025 62.8725 280.044 62.8961 280.061 62.9199C280.109 62.9881 280.145 63.0662 280.162 63.1494L280.189 63.2607C280.262 63.5092 280.389 63.6756 280.544 63.7969C280.734 63.9449 280.999 64.0513 281.332 64.1133C281.842 64.2082 282.413 64.1858 282.914 64.1436L283.388 64.0986L283.511 64.0977C283.791 64.1263 284.023 64.3486 284.053 64.6396C284.082 64.9307 283.9 65.1959 283.631 65.2803L283.511 65.3047L283.027 65.3516C282.482 65.3981 281.772 65.4288 281.11 65.3057C280.663 65.2222 280.193 65.0608 279.799 64.7539C279.717 64.6903 279.641 64.6193 279.568 64.5449C279.496 64.6196 279.419 64.6901 279.337 64.7539C278.943 65.0609 278.473 65.2221 278.025 65.3057C277.364 65.4288 276.654 65.3981 276.108 65.3516L275.625 65.3047L275.505 65.2803C275.236 65.196 275.054 64.9309 275.083 64.6396C275.113 64.3485 275.345 64.1261 275.625 64.0977L275.748 64.0986L276.222 64.1436C276.723 64.1858 277.294 64.2082 277.804 64.1133C278.136 64.0512 278.402 63.945 278.592 63.7969C278.747 63.6756 278.874 63.5092 278.946 63.2607L278.974 63.1494C278.991 63.066 279.026 62.9883 279.075 62.9199C279.092 62.8957 279.11 62.8718 279.131 62.8506C279.138 62.8435 279.146 62.8378 279.153 62.8311C279.171 62.8141 279.19 62.7978 279.21 62.7832C279.226 62.7718 279.242 62.7609 279.259 62.751C279.273 62.7426 279.288 62.7348 279.303 62.7275C279.319 62.7194 279.337 62.7117 279.354 62.7051C279.375 62.6974 279.396 62.691 279.417 62.6855C279.426 62.6831 279.436 62.6797 279.445 62.6777C279.451 62.6766 279.457 62.6758 279.463 62.6748C279.479 62.6719 279.497 62.6705 279.514 62.6689C279.532 62.6673 279.55 62.666 279.568 62.666C279.586 62.6661 279.604 62.6674 279.621 62.6689ZM276.656 59.876C277.192 59.8764 277.627 60.3101 277.627 60.8457C277.626 61.381 277.192 61.816 276.656 61.8164C276.121 61.8162 275.687 61.3811 275.687 60.8457C275.687 60.31 276.121 59.8761 276.656 59.876ZM282.479 59.876C283.014 59.8764 283.449 60.3101 283.449 60.8457C283.449 61.381 283.014 61.816 282.479 61.8164C281.943 61.8164 281.508 61.3812 281.508 60.8457C281.508 60.3099 281.943 59.876 282.479 59.876Z" fill="#555555"/>
<path d="M328.096 58.2421H328C328 58.1455 320.176 52.2536 320.176 52.2536C319.693 51.8673 318.92 51.8673 318.437 52.2536L319.307 53.4127L327.13 59.3046V68.6736C327.13 69.06 326.937 69.4463 326.647 69.7361C326.358 70.0259 325.971 70.219 325.585 70.219H325.392H323.363V63.9408C323.363 63.1681 322.784 62.5886 322.108 62.492H321.915H316.699C315.926 62.492 315.347 63.0715 315.25 63.7476V63.9408V70.219H313.028C312.642 70.219 312.256 70.0259 311.966 69.7361C311.676 69.4463 311.483 69.06 311.483 68.6736V68.4805V59.3046L319.307 53.4127L318.437 52.2536L310.614 58.1455C310.227 58.4353 310.034 58.8216 310.034 59.3046V68.4805C310.034 69.3498 310.421 70.1225 311 70.702C311.58 71.2815 312.449 71.5713 313.222 71.5713H325.392C326.261 71.5713 327.034 71.2815 327.613 70.702C328.193 70.1225 328.579 69.3498 328.579 68.4805V59.3046C328.579 58.9182 328.386 58.5319 328.096 58.2421ZM321.915 70.219H316.699V63.9408H321.915V70.219Z" fill="#333333"/>
<rect x="136.968" width="16.558" height="16.558" rx="8.27899" fill="#333333"/>
<path d="M146.527 8.15084C147.233 8.55927 147.785 9.24367 147.785 10.0495C147.785 11.3962 146.681 12.3897 144.992 12.3897C143.315 12.3897 142.222 11.3962 142.222 9.95014H143.546C143.546 10.5462 143.966 11.1092 144.992 11.1092C146.03 11.1092 146.505 10.5462 146.505 9.95014C146.505 9.34301 146.129 8.74693 145.015 8.74693H144.452V7.56579H145.037C145.953 7.56579 146.383 7.0249 146.383 6.484C146.383 5.96519 145.975 5.47948 145.07 5.47948C144.153 5.47948 143.789 5.96519 143.789 6.49504H142.465C142.465 5.12625 143.524 4.199 145.07 4.199C146.593 4.199 147.653 5.12625 147.653 6.39569C147.653 7.13528 147.178 7.75345 146.527 8.15084Z" fill="white"/>
<path d="M148.927 44.5967C148.927 42.5645 147.279 40.9171 145.247 40.9171C143.215 40.9171 141.568 42.5645 141.568 44.5967C141.568 46.6288 143.215 48.2762 145.247 48.2762C147.279 48.2762 148.927 46.6288 148.927 44.5967ZM145.247 44.5967L145.937 44.5967L145.937 16.558L145.247 16.558L144.557 16.558L144.557 44.5967L145.247 44.5967Z" fill="#333333"/>
<rect y="38.6348" width="16.558" height="16.558" rx="8.27899" fill="#333333"/>
<path d="M9.44413 42.9V50.9582L8.11949 50.9472V44.3571L6.67343 45.0194L6.17669 43.8052L8.11949 42.9H9.44413Z" fill="white"/>
<path d="M43.875 43.2345C41.8428 43.2345 40.1954 44.8819 40.1954 46.9141C40.1954 48.9462 41.8428 50.5936 43.875 50.5936C45.9072 50.5936 47.5546 48.9462 47.5546 46.9141C47.5546 44.8819 45.9072 43.2345 43.875 43.2345ZM43.875 46.9141L43.875 46.2241L16.2784 46.2241L16.2784 46.9141L16.2784 47.604L43.875 47.604L43.875 46.9141Z" fill="#333333"/>
<rect y="59.332" width="16.558" height="16.558" rx="8.27899" fill="#333333"/>
<path d="M5.46369 70.3308C7.08638 68.7744 9.2058 67.527 9.2058 66.2134C9.2058 65.2531 8.62075 64.8446 7.8922 64.8446C7.41754 64.8446 6.82145 65.0213 6.45717 65.816L5.25396 65.2751C5.88316 63.8732 7.17469 63.52 7.8922 63.52C9.13957 63.52 10.5304 64.4914 10.5304 66.2134C10.5304 67.8803 8.90775 69.1718 7.49481 70.3308H10.6519V71.6555H5.46369V70.3308Z" fill="white"/>
<path d="M55.1934 63.9318C53.1612 63.9318 51.5138 65.5792 51.5138 67.6113C51.5138 69.6435 53.1612 71.2909 55.1934 71.2909C57.2255 71.2909 58.8729 69.6435 58.8729 67.6113C58.8729 65.5792 57.2255 63.9318 55.1934 63.9318ZM55.1934 67.6113V66.9214H16.5581V67.6113V68.3012H55.1934V67.6113Z" fill="#333333"/>
<rect x="362" y="53.8135" width="16.558" height="16.558" rx="8.27899" fill="#333333"/>
<path d="M372.122 58.0787V62.9909H373.071V64.2935H372.122V66.1369H370.808V64.2935H367.254V62.9909L370.864 58.0787H372.122ZM368.799 62.9909H370.808V60.2533L368.799 62.9909Z" fill="white"/>
<path d="M334.403 65.7723C336.435 65.7723 338.083 64.1249 338.083 62.0928C338.083 60.0606 336.435 58.4132 334.403 58.4132C332.371 58.4132 330.724 60.0606 330.724 62.0928C330.724 64.1249 332.371 65.7723 334.403 65.7723ZM334.403 62.0928L334.403 62.7827L362.442 62.7827L362.442 62.0928L362.442 61.4029L334.403 61.4029L334.403 62.0928Z" fill="#333333"/>
</svg>
