<svg width="97" height="27" viewBox="0 0 97 27" fill="none" xmlns="http://www.w3.org/2000/svg">
<path d="M3.20388 6.878V18.29H9.77388V20.126H1.33188V6.878H3.20388ZM11.9757 10.694H13.8477V20.162H11.9757V10.694ZM11.8317 7.31C11.8317 6.716 12.2097 6.248 12.9117 6.248C13.5777 6.248 13.9557 6.716 13.9557 7.31C13.9557 7.904 13.5777 8.372 12.9117 8.372C12.2097 8.372 11.8317 7.904 11.8317 7.31ZM22.7345 14.906C22.7345 13.484 21.9245 12.584 20.4485 12.584C19.0625 12.584 18.0005 13.754 18.0185 15.014V20.126H16.1465V10.73H18.0185V12.224C18.6485 11.324 19.4765 10.73 20.6645 10.73C22.5005 10.73 24.6065 12.134 24.6065 14.834V20.126H22.7345V14.906ZM28.5054 6.5V14.96L32.1594 10.766H34.6794L31.0254 14.906L34.6434 20.162H32.3754L29.6934 16.274L28.5054 17.696V20.162H26.6334V6.5H28.5054ZM49.9304 6.878V8.714H46.0604V20.126H44.1884V8.714H40.3004V6.878H49.9304ZM56.6425 14.69C56.4985 13.448 55.7425 12.422 54.1585 12.422C52.7005 12.422 51.6385 13.16 51.4225 14.69H56.6425ZM49.6225 15.446C49.6225 12.872 51.2245 10.694 54.1225 10.694C57.1105 10.694 57.9565 13.07 58.0285 13.25C58.5865 14.708 58.4245 16.274 58.4245 16.274H51.4225C51.7105 17.624 52.6645 18.452 54.1405 18.452C55.9585 18.452 56.3725 17.444 56.4445 17.336L58.0825 18.092C58.0825 18.092 57.2725 20.18 54.1225 20.18C51.2245 20.18 49.6225 18.002 49.6225 15.446ZM68.4226 10.73L64.9126 15.428L68.3866 20.126H66.0826L63.8146 16.94L61.6006 20.126H59.2606L62.6986 15.428L59.2066 10.73H61.5466L63.8146 13.988L66.1006 10.73H68.4226ZM75.1948 19.892C74.8168 19.982 74.0248 20.126 73.3948 20.09C71.9908 20.018 70.6588 18.812 70.6588 17.246V12.476H69.0568V10.64H70.6588V7.454H72.5308V10.64H74.9608V12.476H72.5308V17.246C72.5308 17.858 72.9088 18.2 73.5208 18.218C73.9348 18.236 74.4568 18.146 74.7808 18.074L75.1948 19.892Z" fill="#333333"/>
<path d="M-0.00012207 22.25H76.2568V23.15H-0.00012207V22.25Z" fill="#333333"/>
<path fill-rule="evenodd" clip-rule="evenodd" d="M84.0579 8.05806C84.302 7.81398 84.6977 7.81398 84.9418 8.05806L89.9418 13.0581C90.1859 13.3021 90.1859 13.6979 89.9418 13.9419L84.9418 18.9419C84.6977 19.186 84.302 19.186 84.0579 18.9419C83.8139 18.6979 83.8139 18.3021 84.0579 18.0581L88.616 13.5L84.0579 8.94194C83.8139 8.69786 83.8139 8.30214 84.0579 8.05806Z" fill="#555555"/>
</svg>
