<svg width="120" height="48" viewBox="0 0 120 48" fill="none" xmlns="http://www.w3.org/2000/svg">
<mask id="path-1-inside-1_790_21299" fill="white">
<path d="M0 5.79781C0 2.59577 2.59577 0 5.79781 0H114.202C117.404 0 120 2.59577 120 5.79781V42.2022C120 45.4042 117.404 48 114.202 48H5.79781C2.59577 48 0 45.4042 0 42.2022V5.79781Z"/>
</mask>
<path d="M5.79781 1H114.202V-1H5.79781V1ZM119 5.79781V42.2022H121V5.79781H119ZM114.202 47H5.79781V49H114.202V47ZM1 42.2022V5.79781H-1V42.2022H1ZM5.79781 47C3.14805 47 1 44.8519 1 42.2022H-1C-1 45.9565 2.04348 49 5.79781 49V47ZM119 42.2022C119 44.852 116.852 47 114.202 47V49C117.957 49 121 45.9565 121 42.2022H119ZM114.202 1C116.852 1 119 3.14805 119 5.79781H121C121 2.04348 117.957 -1 114.202 -1V1ZM5.79781 -1C2.04348 -1 -1 2.04348 -1 5.79781H1C1 3.14805 3.14805 1 5.79781 1V-1Z" fill="#FF8120" mask="url(#path-1-inside-1_790_21299)"/>
<path d="M40.168 28.48C41.688 28.48 42.536 27.44 42.536 25.984C42.536 24.544 41.688 23.488 40.168 23.488C38.904 23.488 37.768 24.48 37.768 25.984C37.768 27.504 38.904 28.48 40.168 28.48ZM36.104 30V18H37.768V23.28C38.472 22.224 39.496 21.856 40.296 21.856C42.808 21.856 44.2 23.76 44.2 25.984C44.2 28.224 42.792 30.128 40.28 30.128C39.496 30.128 38.504 29.856 37.768 28.688V30H36.104ZM47.4301 26.4C47.4301 27.616 48.1661 28.48 49.4781 28.48C50.7901 28.48 51.6381 27.44 51.6221 26.32V21.728H53.2861V30.112H51.6221V28.864C51.0461 29.712 50.3261 30.112 49.2701 30.112C47.4621 30.112 45.7661 28.8 45.7661 26.48V21.76H47.4301V26.4ZM60.0754 29.904C59.7394 29.984 59.0354 30.112 58.4754 30.08C57.2274 30.016 56.0434 28.944 56.0434 27.552V23.312H54.6194V21.68H56.0434V18.848H57.7074V21.68H59.8674V23.312H57.7074V27.552C57.7074 28.096 58.0434 28.4 58.5874 28.416C58.9554 28.432 59.4194 28.352 59.7074 28.288L60.0754 29.904ZM65.7535 29.904C65.4175 29.984 64.7135 30.112 64.1535 30.08C62.9055 30.016 61.7215 28.944 61.7215 27.552V23.312H60.2975V21.68H61.7215V18.848H63.3855V21.68H65.5455V23.312H63.3855V27.552C63.3855 28.096 63.7215 28.4 64.2655 28.416C64.6335 28.432 65.0975 28.352 65.3855 28.288L65.7535 29.904ZM70.4035 28.528C71.9075 28.528 72.7875 27.44 72.7875 25.952C72.7875 24.448 71.9075 23.36 70.4035 23.36C68.8995 23.36 68.0355 24.448 68.0355 25.952C68.0355 27.44 68.8995 28.528 70.4035 28.528ZM66.3715 25.952C66.3715 23.664 67.9075 21.712 70.4035 21.712C72.9635 21.712 74.4515 23.664 74.4515 25.952C74.4515 28.224 72.9635 30.176 70.4035 30.176C67.9075 30.176 66.3715 28.224 66.3715 25.952ZM81.7096 25.472C81.7096 24.208 80.9896 23.408 79.6776 23.408C78.4456 23.408 77.5016 24.448 77.5176 25.568V30.112H75.8536V21.76H77.5176V23.088C78.0776 22.288 78.8136 21.76 79.8696 21.76C81.5016 21.76 83.3736 23.008 83.3736 25.408V30.112H81.7096V25.472Z" fill="#FF8120"/>
</svg>
