<svg width="200" height="53" viewBox="0 0 200 53" fill="none" xmlns="http://www.w3.org/2000/svg">
<path d="M8.00049 1H192C196.143 1 199.5 4.35787 199.5 8.5V44.5C199.5 48.6421 196.143 52 192 52H8.00049C3.85835 52 0.500488 48.6421 0.500488 44.5V8.5C0.500488 4.35786 3.85835 1 8.00049 1Z" fill="white"/>
<path d="M8.00049 1H192C196.143 1 199.5 4.35787 199.5 8.5V44.5C199.5 48.6421 196.143 52 192 52H8.00049C3.85835 52 0.500488 48.6421 0.500488 44.5V8.5C0.500488 4.35786 3.85835 1 8.00049 1Z" stroke="#E0E0E0"/>
<mask id="path-2-inside-1_1099_71523" fill="white">
<path d="M12.0005 20.5C12.0005 18.2909 13.7913 16.5 16.0005 16.5H28.0005C30.2096 16.5 32.0005 18.2909 32.0005 20.5V32.5C32.0005 34.7091 30.2096 36.5 28.0005 36.5H16.0005C13.7913 36.5 12.0005 34.7091 12.0005 32.5V20.5Z"/>
</mask>
<path d="M12.0005 20.5C12.0005 18.2909 13.7913 16.5 16.0005 16.5H28.0005C30.2096 16.5 32.0005 18.2909 32.0005 20.5V32.5C32.0005 34.7091 30.2096 36.5 28.0005 36.5H16.0005C13.7913 36.5 12.0005 34.7091 12.0005 32.5V20.5Z" fill="white"/>
<path d="M16.0005 16.5V17.5H28.0005V16.5V15.5H16.0005V16.5ZM32.0005 20.5H31.0005V32.5H32.0005H33.0005V20.5H32.0005ZM28.0005 36.5V35.5H16.0005V36.5V37.5H28.0005V36.5ZM12.0005 32.5H13.0005V20.5H12.0005H11.0005V32.5H12.0005ZM16.0005 36.5V35.5C14.3436 35.5 13.0005 34.1569 13.0005 32.5H12.0005H11.0005C11.0005 35.2614 13.2391 37.5 16.0005 37.5V36.5ZM32.0005 32.5H31.0005C31.0005 34.1569 29.6573 35.5 28.0005 35.5V36.5V37.5C30.7619 37.5 33.0005 35.2614 33.0005 32.5H32.0005ZM28.0005 16.5V17.5C29.6573 17.5 31.0005 18.8431 31.0005 20.5H32.0005H33.0005C33.0005 17.7386 30.7619 15.5 28.0005 15.5V16.5ZM16.0005 16.5V15.5C13.2391 15.5 11.0005 17.7386 11.0005 20.5H12.0005H13.0005C13.0005 18.8431 14.3436 17.5 16.0005 17.5V16.5Z" fill="#E0E0E0" mask="url(#path-2-inside-1_1099_71523)"/>
<path d="M42.4645 20.948V31.38H48.4485V32.5H41.3125V20.948H42.4645ZM53.0865 31.46C54.5265 31.46 55.8225 30.292 55.8385 28.5C55.8225 26.724 54.5265 25.54 53.0865 25.54C51.3105 25.54 50.3505 26.82 50.3505 28.5C50.3505 30.18 51.3105 31.46 53.0865 31.46ZM49.1985 28.5C49.1985 26.276 50.5905 24.404 53.0705 24.404C54.0145 24.404 55.0705 24.9 55.8065 26.084V24.356H56.9585V32.5H55.8065V30.9C55.0385 32.148 54.0305 32.612 53.0705 32.612C50.5905 32.612 49.1985 30.708 49.1985 28.5ZM62.8975 31.492C64.7055 31.492 65.6815 30.196 65.6815 28.484C65.6815 26.788 64.7055 25.476 62.8975 25.476C61.4095 25.476 60.1455 26.788 60.1455 28.484C60.1455 30.196 61.4095 31.492 62.8975 31.492ZM58.9935 32.5V20.628H60.1455V26.068C60.8975 24.756 62.0175 24.356 62.9295 24.356C65.4415 24.356 66.8335 26.26 66.8335 28.484C66.8335 30.724 65.4255 32.628 62.9135 32.628C62.0175 32.628 60.8975 32.244 60.1455 30.9V32.5H58.9935ZM74.3744 27.86C74.2464 26.708 73.6864 25.476 71.9584 25.476C70.4384 25.476 69.4624 26.292 69.2544 27.876L74.3744 27.86ZM68.0704 28.436C68.0704 26.196 69.4144 24.324 71.9104 24.324C74.5024 24.324 75.1584 26.34 75.2384 26.532C75.7184 27.844 75.5264 28.996 75.5264 28.996H69.2544C69.4624 30.5 70.4384 31.396 71.9264 31.396C73.7664 31.396 74.2144 30.388 74.3264 30.228L75.3184 30.756C75.3184 30.756 74.6464 32.548 71.9104 32.548C69.4144 32.548 68.0704 30.66 68.0704 28.436ZM76.987 20.628H78.139V32.5H76.987V20.628Z" fill="#333333"/>
</svg>
