<svg width="251" height="169" viewBox="0 0 251 169" fill="none" xmlns="http://www.w3.org/2000/svg">
<g filter="url(#filter0_dd_1099_78733)">
<g clip-path="url(#clip0_1099_78733)">
<path d="M11 27.7472C11 15.5543 20.8843 5.66992 33.0773 5.66992H218.527C230.72 5.66992 240.604 15.5543 240.604 27.7472V202.158H11V27.7472Z" fill="white"/>
<path d="M30.2968 33.4831H32.08V30.7065H33.6594V37.4825H32.08V34.7568H30.2968V33.4831ZM24.0812 36.2343C25.9026 35.6102 26.7687 34.1199 26.7942 32.6679H24.5015V31.407H30.6407V32.6679H28.3863C28.4118 33.9926 29.2397 35.3427 30.9973 35.9413L30.2077 37.1768C28.9594 36.7565 28.1061 35.9286 27.6221 34.8969C27.1253 36.0687 26.2083 37.0112 24.8709 37.4698L24.0812 36.2343ZM25.9026 39.928C25.9026 38.5651 27.3928 37.7372 29.8001 37.7372C32.2074 37.7372 33.6976 38.5651 33.6976 39.928C33.6976 41.329 32.2074 42.1315 29.8001 42.1315C27.3928 42.1315 25.9026 41.329 25.9026 39.928ZM27.482 39.928C27.482 40.5903 28.2844 40.9342 29.8001 40.9342C31.303 40.9342 32.1309 40.5903 32.1309 39.928C32.1309 39.2784 31.303 38.9345 29.8001 38.9345C28.2844 38.9345 27.482 39.2784 27.482 39.928ZM41.2572 31.9165H43.1168V30.7065H44.7089V36.6419H43.1168V35.3045H41.2572V34.0563H43.1168V33.1774H41.2572V31.9165ZM35.5893 32.4005V31.2159H40.5949V34.3492H37.1687V35.2153C38.6079 35.2026 39.7161 35.1644 41.028 34.9988L41.1299 36.1833C39.6014 36.4126 38.315 36.4253 36.4681 36.4253H35.6148V33.2156H39.0283V32.4005H35.5893ZM37.0923 38.2849V37.1004H44.7089V40.1063H38.6716V40.8578H45.0401V42.055H37.1177V38.9854H43.1423V38.2849H37.0923ZM54.8665 33.1519H56.9936V30.7065H58.573V39.1383H56.9936V34.4256H54.8665V33.1519ZM48.9693 36.489C50.8417 35.8522 51.6823 34.2855 51.6823 32.6425V31.3942H53.2744V32.6552C53.2744 34.1454 54.0768 35.6102 55.8473 36.2343L55.0066 37.4443C53.8094 36.9985 52.9815 36.1579 52.5102 35.1007C52.0134 36.298 51.1219 37.2405 49.81 37.7245L48.9693 36.489ZM51.0327 41.9022V38.2722H52.6248V40.6412H58.8277V41.9022H51.0327ZM60.4774 31.4707H64.9481V32.7189H61.9931V33.7124H64.8462V34.8969H61.9931V35.9413C63.2541 35.9286 64.1711 35.8649 65.2283 35.6866L65.3811 36.9348C64.082 37.1768 62.9739 37.2023 61.2671 37.2023H60.4774V31.4707ZM61.9676 39.4185V38.1575H69.7881V42.1187H68.2215V39.4185H61.9676ZM65.8524 37.5844V30.9102H67.3171V33.5086H68.2979V30.6937H69.7881V37.6608H68.2979V34.7823H67.3171V37.5844H65.8524Z" fill="#333333"/>
<path d="M222.744 29.9082C222.926 29.7807 223.179 29.7945 223.347 29.9531C223.514 30.1119 223.541 30.3632 223.424 30.5518L223.364 30.628L218.334 35.9365L223.364 41.2451L223.424 41.3213C223.541 41.5099 223.514 41.7612 223.347 41.9199C223.179 42.0786 222.926 42.0924 222.744 41.9649L222.671 41.9014L217.677 36.6299L212.684 41.9014C212.502 42.0926 212.2 42.1012 212.009 41.9199C211.818 41.7386 211.809 41.4366 211.99 41.2451L217.019 35.9365L211.99 30.628L211.931 30.5518C211.814 30.3633 211.842 30.1118 212.009 29.9531C212.176 29.7946 212.428 29.7811 212.61 29.9082L212.684 29.9717L217.677 35.2422L222.671 29.9717L222.744 29.9082Z" fill="#555555"/>
<path d="M23.7373 64.2593C23.7373 60.0387 27.1588 56.6172 31.3795 56.6172H220.225C224.446 56.6172 227.868 60.0387 227.868 64.2593V84.8067C227.868 89.0274 224.446 92.4489 220.225 92.4489H31.3795C27.1588 92.4489 23.7373 89.0274 23.7373 84.8067V64.2593Z" fill="white"/>
<path d="M36.6385 69.3397H37.4982V79.37H36.6385V69.3397ZM29.4167 76.7908C32.122 75.4954 33.4861 73.5352 33.6695 71.128H29.8637V70.4172H34.5407C34.5407 73.306 33.211 75.8508 29.8752 77.4786L29.4167 76.7908ZM40.4293 69.7409H41.2775V71.0248H46.2296V69.7409H47.0894V73.7416H44.1663V74.842H48.2701V75.5413H39.2142V74.842H43.318V73.7416H40.4293V69.7409ZM40.3949 79.1522V76.3781H41.2546V78.4415H47.2728V79.1522H40.3949ZM41.2775 73.0538H46.2296V71.7126H41.2775V73.0538ZM53.2301 69.5919H54.1128V70.1077C54.1128 71.4375 55.9469 72.6296 57.6435 72.8933L57.311 73.5696C55.8208 73.306 54.3077 72.4577 53.6772 71.2884C53.0582 72.4806 51.545 73.3174 50.0319 73.5811L49.688 72.9048C51.4189 72.6411 53.2301 71.4719 53.2301 70.1077V69.5919ZM49.1263 75.163V74.4638H58.2166V75.163H54.1701V77.2379H53.2989V75.163H49.1263ZM50.2955 79.1408V76.252H51.1553V78.43H57.2079V79.1408H50.2955Z" fill="#333333"/>
<path d="M23.7373 98.6884C23.7373 96.6492 25.3904 94.9961 27.4296 94.9961H224.175C226.214 94.9961 227.868 96.6492 227.868 98.6884V127.135C227.868 129.175 226.214 130.828 224.175 130.828H27.4296C25.3904 130.828 23.7373 129.175 23.7373 127.135V98.6884Z" fill="#FFF5E6"/>
<path d="M29.2906 113.783H38.358V114.505H34.2541V117.76H33.3944V114.505H29.2906V113.783ZM29.8752 112.315C31.6291 112.063 33.3944 110.974 33.3944 109.69V109.667H30.1732V108.968H33.3944V107.719H34.2541V108.968H37.4753V109.667H34.2541V109.69C34.2541 110.963 36.008 112.063 37.7619 112.315L37.4524 113.003C35.9163 112.774 34.4605 111.983 33.83 110.882C33.1881 111.983 31.7208 112.762 30.1847 113.003L29.8752 112.315ZM39.4893 109.083H41.7475V107.787H42.5958V109.083H44.8426V109.771H42.5958V110.103C42.5958 111.456 43.6504 112.636 45.1177 113.106L44.6936 113.783C43.5473 113.404 42.6302 112.602 42.1831 111.559C41.759 112.682 40.8534 113.542 39.6727 113.966L39.2371 113.29C40.7158 112.785 41.7475 111.536 41.7475 110.103V109.771H39.4893V109.083ZM41.0597 117.52V114.539H41.9195V116.809H47.7313V117.52H41.0597ZM44.4872 111.536V110.814H46.585V107.73H47.4447V115.216H46.585V111.536H44.4872ZM53.2301 107.971H54.1128V108.487C54.1128 109.816 55.9469 111.009 57.6435 111.272L57.311 111.949C55.8208 111.685 54.3077 110.837 53.6772 109.667C53.0582 110.86 51.545 111.696 50.0319 111.96L49.688 111.284C51.4189 111.02 53.2301 109.851 53.2301 108.487V107.971ZM49.1263 113.542V112.843H58.2166V113.542H54.1701V115.617H53.2989V113.542H49.1263ZM50.2955 117.52V114.631H51.1553V116.809H57.2079V117.52H50.2955Z" fill="#333333"/>
<path fill-rule="evenodd" clip-rule="evenodd" d="M220.675 108.641C220.924 108.889 220.924 109.293 220.675 109.541L213.67 116.547C213.421 116.795 213.018 116.795 212.769 116.547L209.585 113.362C209.336 113.114 209.336 112.71 209.585 112.462C209.834 112.213 210.237 112.213 210.486 112.462L213.22 115.196L219.774 108.641C220.023 108.392 220.426 108.392 220.675 108.641Z" fill="#EE6002"/>
<path d="M23.7373 141.017C23.7373 136.797 27.1588 133.375 31.3795 133.375H220.225C224.446 133.375 227.868 136.797 227.868 141.017V161.565C227.868 165.785 224.446 169.207 220.225 169.207H31.3795C27.1588 169.207 23.7373 165.785 23.7373 161.565V141.017Z" fill="white"/>
<path d="M29.2906 154.099H33.4059V151.657H34.2656V154.099H38.3809V154.821H29.2906V154.099ZM29.7491 151.313C31.4113 151.027 33.3829 149.617 33.3829 148V147.737H30.0471V147.026H37.6129V147.737H34.2771V148C34.2771 149.617 36.2717 151.004 37.9568 151.279L37.6014 151.955C36.0997 151.657 34.4834 150.671 33.8415 149.296C33.1881 150.683 31.5832 151.68 30.1044 151.99L29.7491 151.313ZM46.4933 146.098H47.353V156.128H46.4933V146.098ZM39.26 153.457C40.1083 153.457 41.0827 153.457 42.0914 153.423V152.311C40.8992 152.184 40.1312 151.497 40.1312 150.488C40.1312 149.365 41.0827 148.631 42.5156 148.631C43.9485 148.631 44.9228 149.365 44.9228 150.488C44.9228 151.485 44.1433 152.173 42.9626 152.311V153.388C43.937 153.342 44.9228 153.273 45.8399 153.147L45.8972 153.789C43.6733 154.168 41.2317 154.191 39.3861 154.191L39.26 153.457ZM39.4778 148.035V147.336H42.0914V146.098H42.9626V147.336H45.5762V148.035H39.4778ZM40.9336 150.488C40.9336 151.199 41.587 151.657 42.5156 151.657C43.467 151.657 44.109 151.199 44.109 150.488C44.109 149.766 43.467 149.296 42.5156 149.296C41.587 149.296 40.9336 149.766 40.9336 150.488ZM53.2301 146.35H54.1128V146.866C54.1128 148.195 55.9469 149.387 57.6435 149.651L57.311 150.327C55.8208 150.064 54.3077 149.216 53.6772 148.046C53.0582 149.238 51.545 150.075 50.0319 150.339L49.688 149.663C51.4189 149.399 53.2301 148.23 53.2301 146.866V146.35ZM49.1263 151.921V151.222H58.2166V151.921H54.1701V153.996H53.2989V151.921H49.1263ZM50.2955 155.899V153.01H51.1553V155.188H57.2079V155.899H50.2955Z" fill="#333333"/>
</g>
</g>
<defs>
<filter id="filter0_dd_1099_78733" x="0.810471" y="0.575157" width="249.984" height="216.867" filterUnits="userSpaceOnUse" color-interpolation-filters="sRGB">
<feFlood flood-opacity="0" result="BackgroundImageFix"/>
<feColorMatrix in="SourceAlpha" type="matrix" values="0 0 0 0 0 0 0 0 0 0 0 0 0 0 0 0 0 0 127 0" result="hardAlpha"/>
<feOffset/>
<feGaussianBlur stdDeviation="2.54738"/>
<feComposite in2="hardAlpha" operator="out"/>
<feColorMatrix type="matrix" values="0 0 0 0 0 0 0 0 0 0 0 0 0 0 0 0 0 0 0.12 0"/>
<feBlend mode="normal" in2="BackgroundImageFix" result="effect1_dropShadow_1099_78733"/>
<feColorMatrix in="SourceAlpha" type="matrix" values="0 0 0 0 0 0 0 0 0 0 0 0 0 0 0 0 0 0 127 0" result="hardAlpha"/>
<feOffset dy="5.09476"/>
<feGaussianBlur stdDeviation="5.09476"/>
<feComposite in2="hardAlpha" operator="out"/>
<feColorMatrix type="matrix" values="0 0 0 0 0 0 0 0 0 0 0 0 0 0 0 0 0 0 0.12 0"/>
<feBlend mode="normal" in2="effect1_dropShadow_1099_78733" result="effect2_dropShadow_1099_78733"/>
<feBlend mode="normal" in="SourceGraphic" in2="effect2_dropShadow_1099_78733" result="shape"/>
</filter>
<clipPath id="clip0_1099_78733">
<path d="M11 27.7472C11 15.5543 20.8843 5.66992 33.0773 5.66992H218.527C230.72 5.66992 240.604 15.5543 240.604 27.7472V202.158H11V27.7472Z" fill="white"/>
</clipPath>
</defs>
</svg>
