<svg width="814" height="127" viewBox="0 0 814 127" fill="none" xmlns="http://www.w3.org/2000/svg">
<path d="M8.624 20.448V21.568H2.464V25.648H7.552V26.768H2.464V32H1.312V20.448H8.624ZM10.3785 23.856H11.5305V32H10.3785V23.856ZM10.2185 20.896C10.2185 20.496 10.4745 20.176 10.9545 20.176C11.4185 20.176 11.6745 20.496 11.6745 20.896C11.6745 21.312 11.4185 21.632 10.9545 21.632C10.4745 21.632 10.2185 21.312 10.2185 20.896ZM13.4896 20.128H14.6416V32H13.4896V20.128ZM16.5428 20.128H17.6948V32H16.5428V20.128Z" fill="#616161"/>
<path d="M75.9028 12C75.9028 5.37258 81.2754 0 87.9028 0H297.903C304.53 0 309.903 5.37258 309.903 12V40C309.903 46.6274 304.53 52 297.903 52H87.9028C81.2754 52 75.9028 46.6274 75.9028 40V12Z" fill="white"/>
<path fill-rule="evenodd" clip-rule="evenodd" d="M108.61 19.2929C109 19.6834 109 20.3166 108.61 20.7071L97.6099 31.7071C97.2194 32.0976 96.5862 32.0976 96.1957 31.7071L91.1957 26.7071C90.8052 26.3166 90.8052 25.6834 91.1957 25.2929C91.5862 24.9024 92.2194 24.9024 92.6099 25.2929L96.9028 29.5858L107.196 19.2929C107.586 18.9024 108.219 18.9024 108.61 19.2929Z" fill="#BDBDBD"/>
<path d="M122.367 20.448V30.88H128.351V32H121.215V20.448H122.367ZM132.989 30.96C134.429 30.96 135.725 29.792 135.741 28C135.725 26.224 134.429 25.04 132.989 25.04C131.213 25.04 130.253 26.32 130.253 28C130.253 29.68 131.213 30.96 132.989 30.96ZM129.101 28C129.101 25.776 130.493 23.904 132.973 23.904C133.917 23.904 134.973 24.4 135.709 25.584V23.856H136.861V32H135.709V30.4C134.941 31.648 133.933 32.112 132.973 32.112C130.493 32.112 129.101 30.208 129.101 28ZM142.8 30.992C144.608 30.992 145.584 29.696 145.584 27.984C145.584 26.288 144.608 24.976 142.8 24.976C141.312 24.976 140.048 26.288 140.048 27.984C140.048 29.696 141.312 30.992 142.8 30.992ZM138.896 32V20.128H140.048V25.568C140.8 24.256 141.92 23.856 142.832 23.856C145.344 23.856 146.736 25.76 146.736 27.984C146.736 30.224 145.328 32.128 142.816 32.128C141.92 32.128 140.8 31.744 140.048 30.4V32H138.896ZM154.277 27.36C154.149 26.208 153.589 24.976 151.861 24.976C150.341 24.976 149.365 25.792 149.157 27.376L154.277 27.36ZM147.973 27.936C147.973 25.696 149.317 23.824 151.813 23.824C154.405 23.824 155.061 25.84 155.141 26.032C155.621 27.344 155.429 28.496 155.429 28.496H149.157C149.365 30 150.341 30.896 151.829 30.896C153.669 30.896 154.117 29.888 154.229 29.728L155.221 30.256C155.221 30.256 154.549 32.048 151.813 32.048C149.317 32.048 147.973 30.16 147.973 27.936ZM156.889 20.128H158.041V32H156.889V20.128Z" fill="#333333"/>
<path d="M327.853 8C327.853 3.58172 331.435 0 335.853 0H553.853C558.271 0 561.853 3.58172 561.853 8V44C561.853 48.4183 558.271 52 553.853 52H335.853C331.435 52 327.853 48.4183 327.853 44V8Z" fill="white"/>
<mask id="path-6-inside-1_1099_71554" fill="white">
<path d="M339.853 20C339.853 17.7909 341.644 16 343.853 16H355.853C358.062 16 359.853 17.7909 359.853 20V32C359.853 34.2091 358.062 36 355.853 36H343.853C341.644 36 339.853 34.2091 339.853 32V20Z"/>
</mask>
<path d="M339.853 20C339.853 17.7909 341.644 16 343.853 16H355.853C358.062 16 359.853 17.7909 359.853 20V32C359.853 34.2091 358.062 36 355.853 36H343.853C341.644 36 339.853 34.2091 339.853 32V20Z" fill="white"/>
<path d="M343.853 16V17H355.853V16V15H343.853V16ZM359.853 20H358.853V32H359.853H360.853V20H359.853ZM355.853 36V35H343.853V36V37H355.853V36ZM339.853 32H340.853V20H339.853H338.853V32H339.853ZM343.853 36V35C342.196 35 340.853 33.6569 340.853 32H339.853H338.853C338.853 34.7614 341.092 37 343.853 37V36ZM359.853 32H358.853C358.853 33.6569 357.51 35 355.853 35V36V37C358.614 37 360.853 34.7614 360.853 32H359.853ZM355.853 16V17C357.51 17 358.853 18.3431 358.853 20H359.853H360.853C360.853 17.2386 358.614 15 355.853 15V16ZM343.853 16V15C341.092 15 338.853 17.2386 338.853 20H339.853H340.853C340.853 18.3431 342.196 17 343.853 17V16Z" fill="#E0E0E0" mask="url(#path-6-inside-1_1099_71554)"/>
<path d="M370.317 20.448V30.88H376.301V32H369.165V20.448H370.317ZM380.939 30.96C382.379 30.96 383.675 29.792 383.691 28C383.675 26.224 382.379 25.04 380.939 25.04C379.163 25.04 378.203 26.32 378.203 28C378.203 29.68 379.163 30.96 380.939 30.96ZM377.051 28C377.051 25.776 378.443 23.904 380.923 23.904C381.867 23.904 382.923 24.4 383.659 25.584V23.856H384.811V32H383.659V30.4C382.891 31.648 381.883 32.112 380.923 32.112C378.443 32.112 377.051 30.208 377.051 28ZM390.75 30.992C392.558 30.992 393.534 29.696 393.534 27.984C393.534 26.288 392.558 24.976 390.75 24.976C389.262 24.976 387.998 26.288 387.998 27.984C387.998 29.696 389.262 30.992 390.75 30.992ZM386.846 32V20.128H387.998V25.568C388.75 24.256 389.87 23.856 390.782 23.856C393.294 23.856 394.686 25.76 394.686 27.984C394.686 30.224 393.278 32.128 390.766 32.128C389.87 32.128 388.75 31.744 387.998 30.4V32H386.846ZM402.227 27.36C402.099 26.208 401.539 24.976 399.811 24.976C398.291 24.976 397.315 25.792 397.107 27.376L402.227 27.36ZM395.923 27.936C395.923 25.696 397.267 23.824 399.763 23.824C402.355 23.824 403.011 25.84 403.091 26.032C403.571 27.344 403.379 28.496 403.379 28.496H397.107C397.315 30 398.291 30.896 399.779 30.896C401.619 30.896 402.067 29.888 402.179 29.728L403.171 30.256C403.171 30.256 402.499 32.048 399.763 32.048C397.267 32.048 395.923 30.16 395.923 27.936ZM404.84 20.128H405.992V32H404.84V20.128Z" fill="#333333"/>
<path d="M579.803 8C579.803 3.58172 583.384 0 587.803 0H805.803C810.221 0 813.803 3.58172 813.803 8V44C813.803 48.4183 810.221 52 805.803 52H587.803C583.384 52 579.803 48.4183 579.803 44V8Z" fill="white"/>
<mask id="path-10-inside-2_1099_71554" fill="white">
<path d="M591.803 26C591.803 20.4772 596.28 16 601.803 16C607.326 16 611.803 20.4772 611.803 26C611.803 31.5228 607.326 36 601.803 36C596.28 36 591.803 31.5228 591.803 26Z"/>
</mask>
<path d="M591.803 26C591.803 20.4772 596.28 16 601.803 16C607.326 16 611.803 20.4772 611.803 26C611.803 31.5228 607.326 36 601.803 36C596.28 36 591.803 31.5228 591.803 26Z" fill="white"/>
<path d="M601.803 36V35C596.832 35 592.803 30.9706 592.803 26H591.803H590.803C590.803 32.0751 595.728 37 601.803 37V36ZM611.803 26H610.803C610.803 30.9706 606.773 35 601.803 35V36V37C607.878 37 612.803 32.0751 612.803 26H611.803ZM601.803 16V17C606.773 17 610.803 21.0294 610.803 26H611.803H612.803C612.803 19.9249 607.878 15 601.803 15V16ZM601.803 16V15C595.728 15 590.803 19.9249 590.803 26H591.803H592.803C592.803 21.0294 596.832 17 601.803 17V16Z" fill="#E0E0E0" mask="url(#path-10-inside-2_1099_71554)"/>
<path d="M622.267 20.448V30.88H628.251V32H621.115V20.448H622.267ZM632.889 30.96C634.329 30.96 635.625 29.792 635.641 28C635.625 26.224 634.329 25.04 632.889 25.04C631.113 25.04 630.153 26.32 630.153 28C630.153 29.68 631.113 30.96 632.889 30.96ZM629.001 28C629.001 25.776 630.393 23.904 632.873 23.904C633.817 23.904 634.873 24.4 635.609 25.584V23.856H636.761V32H635.609V30.4C634.841 31.648 633.833 32.112 632.873 32.112C630.393 32.112 629.001 30.208 629.001 28ZM642.7 30.992C644.508 30.992 645.484 29.696 645.484 27.984C645.484 26.288 644.508 24.976 642.7 24.976C641.212 24.976 639.948 26.288 639.948 27.984C639.948 29.696 641.212 30.992 642.7 30.992ZM638.796 32V20.128H639.948V25.568C640.7 24.256 641.82 23.856 642.732 23.856C645.244 23.856 646.636 25.76 646.636 27.984C646.636 30.224 645.228 32.128 642.716 32.128C641.82 32.128 640.7 31.744 639.948 30.4V32H638.796ZM654.177 27.36C654.049 26.208 653.489 24.976 651.761 24.976C650.241 24.976 649.265 25.792 649.057 27.376L654.177 27.36ZM647.873 27.936C647.873 25.696 649.217 23.824 651.713 23.824C654.305 23.824 654.961 25.84 655.041 26.032C655.521 27.344 655.329 28.496 655.329 28.496H649.057C649.265 30 650.241 30.896 651.729 30.896C653.569 30.896 654.017 29.888 654.129 29.728L655.121 30.256C655.121 30.256 654.449 32.048 651.713 32.048C649.217 32.048 647.873 30.16 647.873 27.936ZM656.789 20.128H657.941V32H656.789V20.128Z" fill="#333333"/>
<path d="M6.912 105.037C9.552 105.037 11.424 102.941 11.424 100.301C11.424 97.6771 9.552 95.5651 6.912 95.5651C4.256 95.5651 2.4 97.6771 2.4 100.301C2.4 102.941 4.256 105.037 6.912 105.037ZM1.232 100.301C1.232 97.0691 3.584 94.3971 6.912 94.3971C10.24 94.3971 12.592 97.0691 12.592 100.301C12.592 103.549 10.24 106.205 6.912 106.205C3.584 106.205 1.232 103.549 1.232 100.301ZM15.6696 102.733C15.6696 103.965 16.4376 104.957 17.7816 104.957C19.3016 104.957 20.1976 103.677 20.1976 102.589V97.8691H21.3496V106.077H20.1976V104.701C19.6056 105.581 18.9496 106.077 17.7336 106.077C15.8456 106.077 14.5176 104.637 14.5176 102.861V97.9331H15.6696V102.733ZM27.5124 105.901C27.2244 105.965 26.7924 106.045 26.3284 106.045C25.1124 106.045 24.1364 105.069 24.1364 103.869V98.9891H22.8084V97.8691H24.1364V95.3571H25.2884V97.8691H27.1924V98.9891H25.2884V103.869C25.2884 104.509 25.6724 104.893 26.3284 104.893C26.6964 104.893 27.0004 104.845 27.2564 104.781L27.5124 105.901ZM29.1052 94.2051H30.2572V106.077H29.1052V94.2051ZM32.3504 97.9331H33.5024V106.077H32.3504V97.9331ZM32.1904 94.9731C32.1904 94.5731 32.4464 94.2531 32.9264 94.2531C33.3904 94.2531 33.6464 94.5731 33.6464 94.9731C33.6464 95.3891 33.3904 95.7091 32.9264 95.7091C32.4464 95.7091 32.1904 95.3891 32.1904 94.9731ZM41.2695 101.277C41.2695 99.9651 40.5015 99.0531 39.1575 99.0531C37.7655 99.0531 36.7415 100.349 36.7415 101.437V106.077H35.5895V97.9331H36.7415V99.3251C37.2855 98.5251 38.0855 97.9331 39.2055 97.9331C41.1095 97.9331 42.4215 99.3731 42.4215 101.165V106.077H41.2695V101.277ZM50.252 101.437C50.124 100.285 49.564 99.0531 47.836 99.0531C46.316 99.0531 45.34 99.8691 45.132 101.453L50.252 101.437ZM43.948 102.013C43.948 99.7731 45.292 97.9011 47.788 97.9011C50.38 97.9011 51.036 99.9171 51.116 100.109C51.596 101.421 51.404 102.573 51.404 102.573H45.132C45.34 104.077 46.316 104.973 47.804 104.973C49.644 104.973 50.092 103.965 50.204 103.805L51.196 104.333C51.196 104.333 50.524 106.125 47.788 106.125C45.292 106.125 43.948 104.237 43.948 102.013Z" fill="#616161"/>
<path d="M83.9028 74.5771H301.903C306.045 74.5771 309.403 77.935 309.403 82.0771V118.077C309.403 122.219 306.045 125.577 301.903 125.577H83.9028C79.7607 125.577 76.4028 122.219 76.4028 118.077V82.0771C76.4028 77.935 79.7607 74.5771 83.9028 74.5771Z" fill="white"/>
<path d="M83.9028 74.5771H301.903C306.045 74.5771 309.403 77.935 309.403 82.0771V118.077C309.403 122.219 306.045 125.577 301.903 125.577H83.9028C79.7607 125.577 76.4028 122.219 76.4028 118.077V82.0771C76.4028 77.935 79.7607 74.5771 83.9028 74.5771Z" stroke="#E0E0E0"/>
<path fill-rule="evenodd" clip-rule="evenodd" d="M108.61 93.37C109 93.7606 109 94.3937 108.61 94.7843L97.6099 105.784C97.2194 106.175 96.5862 106.175 96.1957 105.784L91.1957 100.784C90.8052 100.394 90.8052 99.7606 91.1957 99.37C91.5862 98.9795 92.2194 98.9795 92.6099 99.37L96.9028 103.663L107.196 93.37C107.586 92.9795 108.219 92.9795 108.61 93.37Z" fill="#BDBDBD"/>
<path d="M122.367 94.5251V104.957H128.351V106.077H121.215V94.5251H122.367ZM132.989 105.037C134.429 105.037 135.725 103.869 135.741 102.077C135.725 100.301 134.429 99.1171 132.989 99.1171C131.213 99.1171 130.253 100.397 130.253 102.077C130.253 103.757 131.213 105.037 132.989 105.037ZM129.101 102.077C129.101 99.8531 130.493 97.9811 132.973 97.9811C133.917 97.9811 134.973 98.4771 135.709 99.6611V97.9331H136.861V106.077H135.709V104.477C134.941 105.725 133.933 106.189 132.973 106.189C130.493 106.189 129.101 104.285 129.101 102.077ZM142.8 105.069C144.608 105.069 145.584 103.773 145.584 102.061C145.584 100.365 144.608 99.0531 142.8 99.0531C141.312 99.0531 140.048 100.365 140.048 102.061C140.048 103.773 141.312 105.069 142.8 105.069ZM138.896 106.077V94.2051H140.048V99.6451C140.8 98.3331 141.92 97.9331 142.832 97.9331C145.344 97.9331 146.736 99.8371 146.736 102.061C146.736 104.301 145.328 106.205 142.816 106.205C141.92 106.205 140.8 105.821 140.048 104.477V106.077H138.896ZM154.277 101.437C154.149 100.285 153.589 99.0531 151.861 99.0531C150.341 99.0531 149.365 99.8691 149.157 101.453L154.277 101.437ZM147.973 102.013C147.973 99.7731 149.317 97.9011 151.813 97.9011C154.405 97.9011 155.061 99.9171 155.141 100.109C155.621 101.421 155.429 102.573 155.429 102.573H149.157C149.365 104.077 150.341 104.973 151.829 104.973C153.669 104.973 154.117 103.965 154.229 103.805L155.221 104.333C155.221 104.333 154.549 106.125 151.813 106.125C149.317 106.125 147.973 104.237 147.973 102.013ZM156.889 94.2051H158.041V106.077H156.889V94.2051Z" fill="#333333"/>
<path d="M335.853 74.5771H553.853C557.995 74.5771 561.353 77.935 561.353 82.0771V118.077C561.353 122.219 557.995 125.577 553.853 125.577H335.853C331.711 125.577 328.353 122.219 328.353 118.077V82.0771C328.353 77.935 331.711 74.5771 335.853 74.5771Z" fill="white"/>
<path d="M335.853 74.5771H553.853C557.995 74.5771 561.353 77.935 561.353 82.0771V118.077C561.353 122.219 557.995 125.577 553.853 125.577H335.853C331.711 125.577 328.353 122.219 328.353 118.077V82.0771C328.353 77.935 331.711 74.5771 335.853 74.5771Z" stroke="#E0E0E0"/>
<mask id="path-18-inside-3_1099_71554" fill="white">
<path d="M339.853 94.0771C339.853 91.868 341.644 90.0771 343.853 90.0771H355.853C358.062 90.0771 359.853 91.868 359.853 94.0771V106.077C359.853 108.286 358.062 110.077 355.853 110.077H343.853C341.644 110.077 339.853 108.286 339.853 106.077V94.0771Z"/>
</mask>
<path d="M339.853 94.0771C339.853 91.868 341.644 90.0771 343.853 90.0771H355.853C358.062 90.0771 359.853 91.868 359.853 94.0771V106.077C359.853 108.286 358.062 110.077 355.853 110.077H343.853C341.644 110.077 339.853 108.286 339.853 106.077V94.0771Z" fill="white"/>
<path d="M343.853 90.0771V91.0771H355.853V90.0771V89.0771H343.853V90.0771ZM359.853 94.0771H358.853V106.077H359.853H360.853V94.0771H359.853ZM355.853 110.077V109.077H343.853V110.077V111.077H355.853V110.077ZM339.853 106.077H340.853V94.0771H339.853H338.853V106.077H339.853ZM343.853 110.077V109.077C342.196 109.077 340.853 107.734 340.853 106.077H339.853H338.853C338.853 108.839 341.092 111.077 343.853 111.077V110.077ZM359.853 106.077H358.853C358.853 107.734 357.51 109.077 355.853 109.077V110.077V111.077C358.614 111.077 360.853 108.839 360.853 106.077H359.853ZM355.853 90.0771V91.0771C357.51 91.0771 358.853 92.4203 358.853 94.0771H359.853H360.853C360.853 91.3157 358.614 89.0771 355.853 89.0771V90.0771ZM343.853 90.0771V89.0771C341.092 89.0771 338.853 91.3157 338.853 94.0771H339.853H340.853C340.853 92.4203 342.196 91.0771 343.853 91.0771V90.0771Z" fill="#E0E0E0" mask="url(#path-18-inside-3_1099_71554)"/>
<path d="M370.317 94.5251V104.957H376.301V106.077H369.165V94.5251H370.317ZM380.939 105.037C382.379 105.037 383.675 103.869 383.691 102.077C383.675 100.301 382.379 99.1171 380.939 99.1171C379.163 99.1171 378.203 100.397 378.203 102.077C378.203 103.757 379.163 105.037 380.939 105.037ZM377.051 102.077C377.051 99.8531 378.443 97.9811 380.923 97.9811C381.867 97.9811 382.923 98.4771 383.659 99.6611V97.9331H384.811V106.077H383.659V104.477C382.891 105.725 381.883 106.189 380.923 106.189C378.443 106.189 377.051 104.285 377.051 102.077ZM390.75 105.069C392.558 105.069 393.534 103.773 393.534 102.061C393.534 100.365 392.558 99.0531 390.75 99.0531C389.262 99.0531 387.998 100.365 387.998 102.061C387.998 103.773 389.262 105.069 390.75 105.069ZM386.846 106.077V94.2051H387.998V99.6451C388.75 98.3331 389.87 97.9331 390.782 97.9331C393.294 97.9331 394.686 99.8371 394.686 102.061C394.686 104.301 393.278 106.205 390.766 106.205C389.87 106.205 388.75 105.821 387.998 104.477V106.077H386.846ZM402.227 101.437C402.099 100.285 401.539 99.0531 399.811 99.0531C398.291 99.0531 397.315 99.8691 397.107 101.453L402.227 101.437ZM395.923 102.013C395.923 99.7731 397.267 97.9011 399.763 97.9011C402.355 97.9011 403.011 99.9171 403.091 100.109C403.571 101.421 403.379 102.573 403.379 102.573H397.107C397.315 104.077 398.291 104.973 399.779 104.973C401.619 104.973 402.067 103.965 402.179 103.805L403.171 104.333C403.171 104.333 402.499 106.125 399.763 106.125C397.267 106.125 395.923 104.237 395.923 102.013ZM404.84 94.2051H405.992V106.077H404.84V94.2051Z" fill="#333333"/>
<path d="M587.803 74.5771H805.803C809.945 74.5771 813.303 77.935 813.303 82.0771V118.077C813.303 122.219 809.945 125.577 805.803 125.577H587.803C583.661 125.577 580.303 122.219 580.303 118.077V82.0771C580.303 77.935 583.661 74.5771 587.803 74.5771Z" fill="white"/>
<path d="M587.803 74.5771H805.803C809.945 74.5771 813.303 77.935 813.303 82.0771V118.077C813.303 122.219 809.945 125.577 805.803 125.577H587.803C583.661 125.577 580.303 122.219 580.303 118.077V82.0771C580.303 77.935 583.661 74.5771 587.803 74.5771Z" stroke="#E0E0E0"/>
<mask id="path-22-inside-4_1099_71554" fill="white">
<path d="M591.803 100.077C591.803 94.5543 596.28 90.0771 601.803 90.0771C607.326 90.0771 611.803 94.5543 611.803 100.077C611.803 105.6 607.326 110.077 601.803 110.077C596.28 110.077 591.803 105.6 591.803 100.077Z"/>
</mask>
<path d="M591.803 100.077C591.803 94.5543 596.28 90.0771 601.803 90.0771C607.326 90.0771 611.803 94.5543 611.803 100.077C611.803 105.6 607.326 110.077 601.803 110.077C596.28 110.077 591.803 105.6 591.803 100.077Z" fill="white"/>
<path d="M601.803 110.077V109.077C596.832 109.077 592.803 105.048 592.803 100.077H591.803H590.803C590.803 106.152 595.728 111.077 601.803 111.077V110.077ZM611.803 100.077H610.803C610.803 105.048 606.773 109.077 601.803 109.077V110.077V111.077C607.878 111.077 612.803 106.152 612.803 100.077H611.803ZM601.803 90.0771V91.0771C606.773 91.0771 610.803 95.1066 610.803 100.077H611.803H612.803C612.803 94.002 607.878 89.0771 601.803 89.0771V90.0771ZM601.803 90.0771V89.0771C595.728 89.0771 590.803 94.002 590.803 100.077H591.803H592.803C592.803 95.1066 596.832 91.0771 601.803 91.0771V90.0771Z" fill="#E0E0E0" mask="url(#path-22-inside-4_1099_71554)"/>
<path d="M622.267 94.5251V104.957H628.251V106.077H621.115V94.5251H622.267ZM632.889 105.037C634.329 105.037 635.625 103.869 635.641 102.077C635.625 100.301 634.329 99.1171 632.889 99.1171C631.113 99.1171 630.153 100.397 630.153 102.077C630.153 103.757 631.113 105.037 632.889 105.037ZM629.001 102.077C629.001 99.8531 630.393 97.9811 632.873 97.9811C633.817 97.9811 634.873 98.4771 635.609 99.6611V97.9331H636.761V106.077H635.609V104.477C634.841 105.725 633.833 106.189 632.873 106.189C630.393 106.189 629.001 104.285 629.001 102.077ZM642.7 105.069C644.508 105.069 645.484 103.773 645.484 102.061C645.484 100.365 644.508 99.0531 642.7 99.0531C641.212 99.0531 639.948 100.365 639.948 102.061C639.948 103.773 641.212 105.069 642.7 105.069ZM638.796 106.077V94.2051H639.948V99.6451C640.7 98.3331 641.82 97.9331 642.732 97.9331C645.244 97.9331 646.636 99.8371 646.636 102.061C646.636 104.301 645.228 106.205 642.716 106.205C641.82 106.205 640.7 105.821 639.948 104.477V106.077H638.796ZM654.177 101.437C654.049 100.285 653.489 99.0531 651.761 99.0531C650.241 99.0531 649.265 99.8691 649.057 101.453L654.177 101.437ZM647.873 102.013C647.873 99.7731 649.217 97.9011 651.713 97.9011C654.305 97.9011 654.961 99.9171 655.041 100.109C655.521 101.421 655.329 102.573 655.329 102.573H649.057C649.265 104.077 650.241 104.973 651.729 104.973C653.569 104.973 654.017 103.965 654.129 103.805L655.121 104.333C655.121 104.333 654.449 106.125 651.713 106.125C649.217 106.125 647.873 104.237 647.873 102.013ZM656.789 94.2051H657.941V106.077H656.789V94.2051Z" fill="#333333"/>
</svg>
