<svg width="434" height="111" viewBox="0 0 434 111" fill="none" xmlns="http://www.w3.org/2000/svg">
<path d="M3.89113 14.0341C6.07126 14.0341 7.89264 12.2127 7.89264 10.0188C7.89264 7.82487 6.07126 6.0035 3.89113 6.0035H2.15254V14.0341H3.89113ZM1.15906 15V5.03761H3.89113C6.62319 5.03761 8.85852 7.27294 8.85852 10.0188C8.85852 12.7647 6.62319 15 3.89113 15H1.15906ZM15.161 10.9985C15.0506 10.005 14.5677 8.94254 13.0775 8.94254C11.7666 8.94254 10.9249 9.64625 10.7455 11.0123L15.161 10.9985ZM9.72447 11.4952C9.72447 9.56346 10.8835 7.94906 13.0361 7.94906C15.2714 7.94906 15.8371 9.68765 15.9061 9.85323C16.3201 10.9847 16.1545 11.9782 16.1545 11.9782H10.7455C10.9249 13.2752 11.7666 14.0479 13.0499 14.0479C14.6367 14.0479 15.023 13.1786 15.1196 13.0406L15.9751 13.496C15.9751 13.496 15.3956 15.0414 13.0361 15.0414C10.8835 15.0414 9.72447 13.4132 9.72447 11.4952ZM18.9683 15H17.9748V8.94254H16.7053V7.97666H17.9748V6.62442C17.9748 5.49296 18.8993 4.56847 20.0445 4.56847C20.5689 4.56847 21.0518 4.77544 21.4106 5.09281L20.7483 5.83792C20.5275 5.64474 20.3481 5.56195 20.0445 5.56195C19.3822 5.56195 18.9683 5.9759 18.9683 6.62442V7.97666H20.9966V8.94254H18.9683V15ZM25.0001 14.1031C26.2419 14.1031 27.3596 13.0958 27.3734 11.5504C27.3596 10.0188 26.2419 8.99773 25.0001 8.99773C23.4685 8.99773 22.6406 10.1016 22.6406 11.5504C22.6406 12.9992 23.4685 14.1031 25.0001 14.1031ZM21.6471 11.5504C21.6471 9.63245 22.8475 8.01805 24.9863 8.01805C25.8004 8.01805 26.7111 8.4458 27.3458 9.46687V7.97666H28.3393V15H27.3458V13.6202C26.6835 14.6964 25.8142 15.0966 24.9863 15.0966C22.8475 15.0966 21.6471 13.4546 21.6471 11.5504ZM30.7236 12.1162C30.7236 13.1786 31.3859 14.0341 32.545 14.0341C33.8558 14.0341 34.6285 12.9303 34.6285 11.992V7.92146H35.622V15H34.6285V13.8133C34.118 14.5723 33.5522 15 32.5036 15C30.8754 15 29.7301 13.7582 29.7301 12.2265V7.97666H30.7236V12.1162ZM37.0094 4.76165H38.0028V15H37.0094V4.76165ZM43.1385 14.8482C42.8901 14.9034 42.5176 14.9724 42.1174 14.9724C41.0688 14.9724 40.2271 14.1307 40.2271 13.0958V8.88734H39.0818V7.92146H40.2271V5.75513H41.2205V7.92146H42.8625V8.88734H41.2205V13.0958C41.2205 13.6478 41.5517 13.9789 42.1174 13.9789C42.4348 13.9789 42.697 13.9375 42.9177 13.8823L43.1385 14.8482Z" fill="#616161"/>
<mask id="path-2-inside-1_827_22534" fill="white">
<path d="M121.425 5.51932C121.425 2.47108 123.896 0 126.945 0H137.983C141.031 0 143.503 2.47109 143.503 5.51933V16.558C143.503 19.6062 141.031 22.0773 137.983 22.0773H126.945C123.896 22.0773 121.425 19.6062 121.425 16.558V5.51932Z"/>
</mask>
<path d="M121.425 5.51932C121.425 2.47108 123.896 0 126.945 0H137.983C141.031 0 143.503 2.47109 143.503 5.51933V16.558C143.503 19.6062 141.031 22.0773 137.983 22.0773H126.945C123.896 22.0773 121.425 19.6062 121.425 16.558V5.51932Z" fill="white"/>
<path d="M126.945 1.10387H137.983V-1.10387H126.945V1.10387ZM142.399 5.51933V16.558H144.606V5.51933H142.399ZM137.983 20.9734H126.945V23.1812H137.983V20.9734ZM122.529 16.558V5.51932H120.321V16.558H122.529ZM126.945 20.9734C124.506 20.9734 122.529 18.9966 122.529 16.558H120.321C120.321 20.2159 123.287 23.1812 126.945 23.1812V20.9734ZM142.399 16.558C142.399 18.9966 140.422 20.9734 137.983 20.9734V23.1812C141.641 23.1812 144.606 20.2159 144.606 16.558H142.399ZM137.983 1.10387C140.422 1.10387 142.399 3.08073 142.399 5.51933H144.606C144.606 1.86144 141.641 -1.10387 137.983 -1.10387V1.10387ZM126.945 -1.10387C123.287 -1.10387 120.321 1.86143 120.321 5.51932H122.529C122.529 3.08073 124.506 1.10387 126.945 1.10387V-1.10387Z" fill="#E0E0E0" mask="url(#path-2-inside-1_827_22534)"/>
<path d="M158.267 16.6494C155.259 16.6494 153.355 14.3451 153.355 11.5579C153.355 8.77061 155.259 6.46629 158.267 6.46629C159.633 6.46629 160.861 7.04582 161.744 7.95651L161.013 8.64642C160.309 7.91511 159.343 7.48737 158.267 7.48737C155.852 7.48737 154.362 9.29494 154.362 11.5579C154.362 13.8346 155.852 15.6422 158.267 15.6422C159.343 15.6422 160.309 15.2006 161.013 14.4693L161.744 15.1592C160.861 16.0699 159.633 16.6494 158.267 16.6494ZM168.206 12.5927C168.206 11.2819 167.461 10.523 166.412 10.523C165.322 10.523 164.37 11.5441 164.37 12.8687V16.5391H163.376V6.30071H164.37V10.8404C164.715 10.1228 165.501 9.55711 166.453 9.55711C167.875 9.55711 169.199 10.7714 169.199 12.5375V16.5391H168.206V12.5927ZM176.103 12.5375C175.993 11.5441 175.51 10.4816 174.02 10.4816C172.709 10.4816 171.867 11.1853 171.688 12.5513L176.103 12.5375ZM170.667 13.0343C170.667 11.1025 171.826 9.48812 173.978 9.48812C176.214 9.48812 176.779 11.2267 176.848 11.3923C177.262 12.5238 177.097 13.5172 177.097 13.5172H171.688C171.867 14.8143 172.709 15.587 173.992 15.587C175.579 15.587 175.965 14.7177 176.062 14.5797L176.917 15.035C176.917 15.035 176.338 16.5805 173.978 16.5805C171.826 16.5805 170.667 14.9523 170.667 13.0343ZM181.356 15.6146C182.073 15.6146 182.736 15.3386 183.205 14.8695L183.95 15.5318C183.288 16.1941 182.405 16.6081 181.411 16.6081C179.148 16.6081 177.837 14.9385 177.837 12.9101C177.837 10.8955 179.148 9.22595 181.411 9.22595C182.405 9.22595 183.288 9.6399 183.95 10.3022L183.205 10.9645C182.736 10.4954 182.073 10.2194 181.356 10.2194C179.728 10.2194 178.831 11.4199 178.831 12.9101C178.831 14.4141 179.728 15.6146 181.356 15.6146ZM186.05 6.30071V13.2275L189.237 9.51572H190.548L187.885 12.6065L190.672 16.5391H189.458L187.181 13.3517L186.05 14.7315V16.5391H185.056V6.30071H186.05ZM195.289 15.6698C196.848 15.6698 197.69 14.5521 197.69 13.0757C197.69 11.6131 196.848 10.4816 195.289 10.4816C194.006 10.4816 192.916 11.6131 192.916 13.0757C192.916 14.5521 194.006 15.6698 195.289 15.6698ZM191.922 16.5391V6.30071H192.916V10.9921C193.564 9.86068 194.53 9.51572 195.317 9.51572C197.483 9.51572 198.683 11.1577 198.683 13.0757C198.683 15.0074 197.469 16.6494 195.303 16.6494C194.53 16.6494 193.564 16.3183 192.916 15.1592V16.5391H191.922ZM203.012 15.6284C204.557 15.6284 205.371 14.4969 205.371 13.0343C205.371 11.5717 204.557 10.4402 203.012 10.4402C201.452 10.4402 200.666 11.5717 200.666 13.0343C200.666 14.4969 201.452 15.6284 203.012 15.6284ZM199.672 13.0343C199.672 11.1163 200.859 9.47432 203.012 9.47432C205.178 9.47432 206.365 11.1163 206.365 13.0343C206.365 14.9523 205.178 16.5943 203.012 16.5943C200.859 16.5943 199.672 14.9523 199.672 13.0343ZM213.275 9.51572L210.611 13.0343L213.275 16.5391H212.019L210.101 13.9312L208.183 16.5391H206.927L209.577 13.0343L206.927 9.51572H208.183L210.101 12.1512L212.019 9.51572H213.275ZM224.718 6.57668V7.54256H221.6V16.5391H220.606V7.54256H217.502V6.57668H224.718ZM229.897 12.5375C229.786 11.5441 229.304 10.4816 227.813 10.4816C226.502 10.4816 225.661 11.1853 225.481 12.5513L229.897 12.5375ZM224.46 13.0343C224.46 11.1025 225.619 9.48812 227.772 9.48812C230.007 9.48812 230.573 11.2267 230.642 11.3923C231.056 12.5238 230.89 13.5172 230.89 13.5172H225.481C225.661 14.8143 226.502 15.587 227.786 15.587C229.373 15.587 229.759 14.7177 229.855 14.5797L230.711 15.035C230.711 15.035 230.131 16.5805 227.772 16.5805C225.619 16.5805 224.46 14.9523 224.46 13.0343ZM237.847 9.51572L235.184 13.0343L237.847 16.5391H236.591L234.673 13.9312L232.755 16.5391H231.5L234.149 13.0343L231.5 9.51572H232.755L234.673 12.1512L236.591 9.51572H237.847ZM242.409 16.3873C242.161 16.4425 241.788 16.5115 241.388 16.5115C240.339 16.5115 239.497 15.6698 239.497 14.6349V10.4264H238.352V9.46052H239.497V7.29419H240.491V9.46052H242.133V10.4264H240.491V14.6349C240.491 15.1868 240.822 15.518 241.388 15.518C241.705 15.518 241.967 15.4766 242.188 15.4214L242.409 16.3873Z" fill="#616161"/>
<path d="M310.565 5.51932C310.565 2.47108 313.036 0 316.085 0H327.123C330.172 0 332.643 2.47109 332.643 5.51933V16.558C332.643 19.6062 330.172 22.0773 327.123 22.0773H316.085C313.036 22.0773 310.565 19.6062 310.565 16.558V5.51932Z" fill="#FF8120"/>
<path fill-rule="evenodd" clip-rule="evenodd" d="M327.628 6.67097C328.059 7.10206 328.059 7.80099 327.628 8.23207L320.453 15.4072C320.022 15.8383 319.323 15.8383 318.892 15.4072L315.58 12.0956C315.149 11.6645 315.149 10.9656 315.58 10.5345C316.011 10.1034 316.71 10.1034 317.141 10.5345L319.672 13.0655L326.067 6.67097C326.498 6.23988 327.197 6.23988 327.628 6.67097Z" fill="white"/>
<path d="M347.407 16.6494C344.399 16.6494 342.495 14.3451 342.495 11.5579C342.495 8.77061 344.399 6.46629 347.407 6.46629C348.773 6.46629 350.001 7.04582 350.884 7.95651L350.153 8.64642C349.449 7.91511 348.483 7.48737 347.407 7.48737C344.992 7.48737 343.502 9.29494 343.502 11.5579C343.502 13.8346 344.992 15.6422 347.407 15.6422C348.483 15.6422 349.449 15.2006 350.153 14.4693L350.884 15.1592C350.001 16.0699 348.773 16.6494 347.407 16.6494ZM357.346 12.5927C357.346 11.2819 356.601 10.523 355.552 10.523C354.462 10.523 353.51 11.5441 353.51 12.8687V16.5391H352.516V6.30071H353.51V10.8404C353.855 10.1228 354.641 9.55711 355.594 9.55711C357.015 9.55711 358.339 10.7714 358.339 12.5375V16.5391H357.346V12.5927ZM365.244 12.5375C365.133 11.5441 364.65 10.4816 363.16 10.4816C361.849 10.4816 361.007 11.1853 360.828 12.5513L365.244 12.5375ZM359.807 13.0343C359.807 11.1025 360.966 9.48812 363.119 9.48812C365.354 9.48812 365.92 11.2267 365.989 11.3923C366.403 12.5238 366.237 13.5172 366.237 13.5172H360.828C361.007 14.8143 361.849 15.587 363.132 15.587C364.719 15.587 365.106 14.7177 365.202 14.5797L366.058 15.035C366.058 15.035 365.478 16.5805 363.119 16.5805C360.966 16.5805 359.807 14.9523 359.807 13.0343ZM370.496 15.6146C371.214 15.6146 371.876 15.3386 372.345 14.8695L373.09 15.5318C372.428 16.1941 371.545 16.6081 370.551 16.6081C368.288 16.6081 366.977 14.9385 366.977 12.9101C366.977 10.8955 368.288 9.22595 370.551 9.22595C371.545 9.22595 372.428 9.6399 373.09 10.3022L372.345 10.9645C371.876 10.4954 371.214 10.2194 370.496 10.2194C368.868 10.2194 367.971 11.4199 367.971 12.9101C367.971 14.4141 368.868 15.6146 370.496 15.6146ZM375.19 6.30071V13.2275L378.377 9.51572H379.688L377.025 12.6065L379.812 16.5391H378.598L376.321 13.3517L375.19 14.7315V16.5391H374.196V6.30071H375.19ZM384.429 15.6698C385.988 15.6698 386.83 14.5521 386.83 13.0757C386.83 11.6131 385.988 10.4816 384.429 10.4816C383.146 10.4816 382.056 11.6131 382.056 13.0757C382.056 14.5521 383.146 15.6698 384.429 15.6698ZM381.062 16.5391V6.30071H382.056V10.9921C382.704 9.86068 383.67 9.51572 384.457 9.51572C386.623 9.51572 387.823 11.1577 387.823 13.0757C387.823 15.0074 386.609 16.6494 384.443 16.6494C383.67 16.6494 382.704 16.3183 382.056 15.1592V16.5391H381.062ZM392.152 15.6284C393.697 15.6284 394.511 14.4969 394.511 13.0343C394.511 11.5717 393.697 10.4402 392.152 10.4402C390.593 10.4402 389.806 11.5717 389.806 13.0343C389.806 14.4969 390.593 15.6284 392.152 15.6284ZM388.813 13.0343C388.813 11.1163 389.999 9.47432 392.152 9.47432C394.318 9.47432 395.505 11.1163 395.505 13.0343C395.505 14.9523 394.318 16.5943 392.152 16.5943C389.999 16.5943 388.813 14.9523 388.813 13.0343ZM402.415 9.51572L399.752 13.0343L402.415 16.5391H401.159L399.241 13.9312L397.323 16.5391H396.067L398.717 13.0343L396.067 9.51572H397.323L399.241 12.1512L401.159 9.51572H402.415ZM413.859 6.57668V7.54256H410.74V16.5391H409.747V7.54256H406.642V6.57668H413.859ZM419.037 12.5375C418.927 11.5441 418.444 10.4816 416.953 10.4816C415.643 10.4816 414.801 11.1853 414.622 12.5513L419.037 12.5375ZM413.6 13.0343C413.6 11.1025 414.76 9.48812 416.912 9.48812C419.147 9.48812 419.713 11.2267 419.782 11.3923C420.196 12.5238 420.03 13.5172 420.03 13.5172H414.622C414.801 14.8143 415.643 15.587 416.926 15.587C418.513 15.587 418.899 14.7177 418.996 14.5797L419.851 15.035C419.851 15.035 419.272 16.5805 416.912 16.5805C414.76 16.5805 413.6 14.9523 413.6 13.0343ZM426.987 9.51572L424.324 13.0343L426.987 16.5391H425.731L423.813 13.9312L421.895 16.5391H420.64L423.289 13.0343L420.64 9.51572H421.895L423.813 12.1512L425.731 9.51572H426.987ZM431.549 16.3873C431.301 16.4425 430.928 16.5115 430.528 16.5115C429.479 16.5115 428.638 15.6698 428.638 14.6349V10.4264H427.492V9.46052H428.638V7.29419H429.631V9.46052H431.273V10.4264H429.631V14.6349C429.631 15.1868 429.962 15.518 430.528 15.518C430.845 15.518 431.108 15.4766 431.328 15.4214L431.549 16.3873Z" fill="#616161"/>
<path d="M4.9536 54.3249C6.11266 54.3249 7.03714 53.3728 7.03714 52.2413C7.03714 51.0823 6.09886 50.1578 4.9398 50.1578H2.12494L2.13874 54.3249H4.9536ZM1.14526 59.1543V49.1919H4.98119C6.66459 49.1919 8.00303 50.5579 8.00303 52.2413C8.00303 53.9109 6.66459 55.2908 4.98119 55.2908H2.13874V59.1543H1.14526ZM10.0757 53.6074C10.4758 52.6829 11.6211 52.062 12.5732 52.062V53.083C11.2899 53.083 10.0757 54.4215 10.0757 55.5391V59.1543H9.0822V52.131H10.0757V53.6074ZM18.3734 55.1528C18.263 54.1593 17.7801 53.0968 16.2899 53.0968C14.979 53.0968 14.1373 53.8005 13.958 55.1666L18.3734 55.1528ZM12.9369 55.6495C12.9369 53.7178 14.096 52.1034 16.2485 52.1034C18.4838 52.1034 19.0496 53.8419 19.1185 54.0075C19.5325 55.139 19.3669 56.1325 19.3669 56.1325H13.958C14.1373 57.4295 14.979 58.2022 16.2623 58.2022C17.8491 58.2022 18.2354 57.3329 18.332 57.1949L19.1875 57.6503C19.1875 57.6503 18.608 59.1957 16.2485 59.1957C14.096 59.1957 12.9369 57.5675 12.9369 55.6495ZM21.1561 57.2501C21.432 57.8849 22.0805 58.2574 22.9222 58.216C24.1365 58.1884 24.6194 56.6844 23.3776 56.2842C22.9222 56.1463 22.0943 55.9255 21.4182 55.4839C20.3696 54.7802 20.3834 53.7454 20.7007 53.1106C21.1285 52.2689 22.2185 52.0206 22.8532 52.0758C23.4466 52.1448 24.2745 52.3517 24.7988 53.0554L23.9985 53.635C23.7087 53.2348 23.2396 53.1106 22.7705 53.0554C22.3427 53.014 21.777 53.1658 21.57 53.5522C21.3906 53.9247 21.4044 54.2973 21.9702 54.6698C22.5083 55.0286 23.1982 55.1942 23.6811 55.3598C25.9993 56.1049 25.2542 59.1405 22.9498 59.1957C21.7908 59.2509 20.6869 58.6438 20.2592 57.6365L21.1561 57.2501ZM26.6727 57.2501C26.9487 57.8849 27.5972 58.2574 28.4389 58.216C29.6531 58.1884 30.1361 56.6844 28.8942 56.2842C28.4389 56.1463 27.611 55.9255 26.9349 55.4839C25.8862 54.7802 25.9 53.7454 26.2173 53.1106C26.6451 52.2689 27.7352 52.0206 28.3699 52.0758C28.9632 52.1448 29.7911 52.3517 30.3154 53.0554L29.5151 53.635C29.2254 53.2348 28.7562 53.1106 28.2871 53.0554C27.8593 53.014 27.2936 53.1658 27.0866 53.5522C26.9073 53.9247 26.9211 54.2973 27.4868 54.6698C28.0249 55.0286 28.7148 55.1942 29.1978 55.3598C31.5159 56.1049 30.7708 59.1405 28.4665 59.1957C27.3074 59.2509 26.2035 58.6438 25.7758 57.6365L26.6727 57.2501ZM37.0119 55.1528C36.9016 54.1593 36.4186 53.0968 34.9284 53.0968C33.6176 53.0968 32.7759 53.8005 32.5965 55.1666L37.0119 55.1528ZM31.5754 55.6495C31.5754 53.7178 32.7345 52.1034 34.887 52.1034C37.1223 52.1034 37.6881 53.8419 37.7571 54.0075C38.171 55.139 38.0054 56.1325 38.0054 56.1325H32.5965C32.7759 57.4295 33.6176 58.2022 34.9008 58.2022C36.4876 58.2022 36.874 57.3329 36.9705 57.1949L37.826 57.6503C37.826 57.6503 37.2465 59.1957 34.887 59.1957C32.7345 59.1957 31.5754 57.5675 31.5754 55.6495ZM42.2507 59.2647C40.1119 59.2647 38.8977 57.6227 38.8977 55.6909C38.8977 53.773 40.1119 52.1172 42.2507 52.1172C43.1476 52.1172 44.0858 52.5725 44.6654 53.6212V48.9159H45.6589V59.1543H44.6654V57.7607C44.072 58.8093 43.1476 59.2647 42.2507 59.2647ZM39.8912 55.6909C39.8912 57.1673 40.7329 58.2712 42.2921 58.2712C43.5615 58.2712 44.6654 57.1673 44.6654 55.6909C44.6654 54.2283 43.5615 53.1106 42.2921 53.1106C40.7329 53.1106 39.8912 54.2283 39.8912 55.6909Z" fill="#616161"/>
<mask id="path-9-inside-2_827_22534" fill="white">
<path d="M121.425 49.6736C121.425 46.6254 123.896 44.1543 126.945 44.1543H137.983C141.031 44.1543 143.503 46.6254 143.503 49.6736V60.7123C143.503 63.7605 141.031 66.2316 137.983 66.2316H126.945C123.896 66.2316 121.425 63.7605 121.425 60.7123V49.6736Z"/>
</mask>
<path d="M121.425 49.6736C121.425 46.6254 123.896 44.1543 126.945 44.1543H137.983C141.031 44.1543 143.503 46.6254 143.503 49.6736V60.7123C143.503 63.7605 141.031 66.2316 137.983 66.2316H126.945C123.896 66.2316 121.425 63.7605 121.425 60.7123V49.6736Z" fill="white"/>
<path d="M126.945 45.2582H137.983V43.0504H126.945V45.2582ZM142.399 49.6736V60.7123H144.606V49.6736H142.399ZM137.983 65.1277H126.945V67.3355H137.983V65.1277ZM122.529 60.7123V49.6736H120.321V60.7123H122.529ZM126.945 65.1277C124.506 65.1277 122.529 63.1509 122.529 60.7123H120.321C120.321 64.3702 123.287 67.3355 126.945 67.3355V65.1277ZM142.399 60.7123C142.399 63.1509 140.422 65.1277 137.983 65.1277V67.3355C141.641 67.3355 144.606 64.3702 144.606 60.7123H142.399ZM137.983 45.2582C140.422 45.2582 142.399 47.235 142.399 49.6736H144.606C144.606 46.0157 141.641 43.0504 137.983 43.0504V45.2582ZM126.945 43.0504C123.287 43.0504 120.321 46.0157 120.321 49.6736H122.529C122.529 47.235 124.506 45.2582 126.945 45.2582V43.0504Z" fill="#999999" mask="url(#path-9-inside-2_827_22534)"/>
<path d="M158.267 60.8037C155.259 60.8037 153.355 58.4994 153.355 55.7122C153.355 52.9249 155.259 50.6206 158.267 50.6206C159.633 50.6206 160.861 51.2001 161.744 52.1108L161.013 52.8007C160.309 52.0694 159.343 51.6417 158.267 51.6417C155.852 51.6417 154.362 53.4492 154.362 55.7122C154.362 57.9889 155.852 59.7965 158.267 59.7965C159.343 59.7965 160.309 59.3549 161.013 58.6236L161.744 59.3135C160.861 60.2242 159.633 60.8037 158.267 60.8037ZM168.206 56.747C168.206 55.4362 167.461 54.6773 166.412 54.6773C165.322 54.6773 164.37 55.6984 164.37 57.023V60.6934H163.376V50.455H164.37V54.9947C164.715 54.2771 165.501 53.7114 166.453 53.7114C167.875 53.7114 169.199 54.9257 169.199 56.6918V60.6934H168.206V56.747ZM176.103 56.6918C175.993 55.6984 175.51 54.6359 174.02 54.6359C172.709 54.6359 171.867 55.3396 171.688 56.7056L176.103 56.6918ZM170.667 57.1886C170.667 55.2568 171.826 53.6424 173.978 53.6424C176.214 53.6424 176.779 55.381 176.848 55.5466C177.262 56.678 177.097 57.6715 177.097 57.6715H171.688C171.867 58.9686 172.709 59.7413 173.992 59.7413C175.579 59.7413 175.965 58.872 176.062 58.734L176.917 59.1893C176.917 59.1893 176.338 60.7348 173.978 60.7348C171.826 60.7348 170.667 59.1066 170.667 57.1886ZM181.356 59.7689C182.073 59.7689 182.736 59.4929 183.205 59.0238L183.95 59.6861C183.288 60.3484 182.405 60.7624 181.411 60.7624C179.148 60.7624 177.837 59.0928 177.837 57.0644C177.837 55.0498 179.148 53.3802 181.411 53.3802C182.405 53.3802 183.288 53.7942 183.95 54.4565L183.205 55.1188C182.736 54.6497 182.073 54.3737 181.356 54.3737C179.728 54.3737 178.831 55.5742 178.831 57.0644C178.831 58.5684 179.728 59.7689 181.356 59.7689ZM186.05 50.455V57.3818L189.237 53.67H190.548L187.885 56.7608L190.672 60.6934H189.458L187.181 57.5059L186.05 58.8858V60.6934H185.056V50.455H186.05ZM195.289 59.8241C196.848 59.8241 197.69 58.7064 197.69 57.23C197.69 55.7674 196.848 54.6359 195.289 54.6359C194.006 54.6359 192.916 55.7674 192.916 57.23C192.916 58.7064 194.006 59.8241 195.289 59.8241ZM191.922 60.6934V50.455H192.916V55.1464C193.564 54.015 194.53 53.67 195.317 53.67C197.483 53.67 198.683 55.312 198.683 57.23C198.683 59.1617 197.469 60.8037 195.303 60.8037C194.53 60.8037 193.564 60.4726 192.916 59.3135V60.6934H191.922ZM203.012 59.7827C204.557 59.7827 205.371 58.6512 205.371 57.1886C205.371 55.726 204.557 54.5945 203.012 54.5945C201.452 54.5945 200.666 55.726 200.666 57.1886C200.666 58.6512 201.452 59.7827 203.012 59.7827ZM199.672 57.1886C199.672 55.2706 200.859 53.6286 203.012 53.6286C205.178 53.6286 206.365 55.2706 206.365 57.1886C206.365 59.1066 205.178 60.7486 203.012 60.7486C200.859 60.7486 199.672 59.1066 199.672 57.1886ZM213.275 53.67L210.611 57.1886L213.275 60.6934H212.019L210.101 58.0855L208.183 60.6934H206.927L209.577 57.1886L206.927 53.67H208.183L210.101 56.3055L212.019 53.67H213.275ZM224.718 50.731V51.6969H221.6V60.6934H220.606V51.6969H217.502V50.731H224.718ZM229.897 56.6918C229.786 55.6984 229.304 54.6359 227.813 54.6359C226.502 54.6359 225.661 55.3396 225.481 56.7056L229.897 56.6918ZM224.46 57.1886C224.46 55.2568 225.619 53.6424 227.772 53.6424C230.007 53.6424 230.573 55.381 230.642 55.5466C231.056 56.678 230.89 57.6715 230.89 57.6715H225.481C225.661 58.9686 226.502 59.7413 227.786 59.7413C229.373 59.7413 229.759 58.872 229.855 58.734L230.711 59.1893C230.711 59.1893 230.131 60.7348 227.772 60.7348C225.619 60.7348 224.46 59.1066 224.46 57.1886ZM237.847 53.67L235.184 57.1886L237.847 60.6934H236.591L234.673 58.0855L232.755 60.6934H231.5L234.149 57.1886L231.5 53.67H232.755L234.673 56.3055L236.591 53.67H237.847ZM242.409 60.5416C242.161 60.5968 241.788 60.6658 241.388 60.6658C240.339 60.6658 239.497 59.8241 239.497 58.7892V54.5807H238.352V53.6148H239.497V51.4485H240.491V53.6148H242.133V54.5807H240.491V58.7892C240.491 59.3411 240.822 59.6723 241.388 59.6723C241.705 59.6723 241.967 59.6309 242.188 59.5757L242.409 60.5416Z" fill="#616161"/>
<path d="M310.565 49.6736C310.565 46.6254 313.036 44.1543 316.085 44.1543H327.123C330.172 44.1543 332.643 46.6254 332.643 49.6736V60.7123C332.643 63.7605 330.172 66.2316 327.123 66.2316H316.085C313.036 66.2316 310.565 63.7605 310.565 60.7123V49.6736Z" fill="#EE6002"/>
<path fill-rule="evenodd" clip-rule="evenodd" d="M327.628 50.8253C328.059 51.2564 328.059 51.9553 327.628 52.3864L320.453 59.5615C320.022 59.9926 319.323 59.9926 318.892 59.5615L315.58 56.2499C315.149 55.8188 315.149 55.1199 315.58 54.6888C316.011 54.2577 316.71 54.2577 317.141 54.6888L319.672 57.2198L326.067 50.8253C326.498 50.3942 327.197 50.3942 327.628 50.8253Z" fill="white"/>
<path d="M347.407 60.8037C344.399 60.8037 342.495 58.4994 342.495 55.7122C342.495 52.9249 344.399 50.6206 347.407 50.6206C348.773 50.6206 350.001 51.2001 350.884 52.1108L350.153 52.8007C349.449 52.0694 348.483 51.6417 347.407 51.6417C344.992 51.6417 343.502 53.4492 343.502 55.7122C343.502 57.9889 344.992 59.7965 347.407 59.7965C348.483 59.7965 349.449 59.3549 350.153 58.6236L350.884 59.3135C350.001 60.2242 348.773 60.8037 347.407 60.8037ZM357.346 56.747C357.346 55.4362 356.601 54.6773 355.552 54.6773C354.462 54.6773 353.51 55.6984 353.51 57.023V60.6934H352.516V50.455H353.51V54.9947C353.855 54.2771 354.641 53.7114 355.594 53.7114C357.015 53.7114 358.339 54.9257 358.339 56.6918V60.6934H357.346V56.747ZM365.244 56.6918C365.133 55.6984 364.65 54.6359 363.16 54.6359C361.849 54.6359 361.007 55.3396 360.828 56.7056L365.244 56.6918ZM359.807 57.1886C359.807 55.2568 360.966 53.6424 363.119 53.6424C365.354 53.6424 365.92 55.381 365.989 55.5466C366.403 56.678 366.237 57.6715 366.237 57.6715H360.828C361.007 58.9686 361.849 59.7413 363.132 59.7413C364.719 59.7413 365.106 58.872 365.202 58.734L366.058 59.1893C366.058 59.1893 365.478 60.7348 363.119 60.7348C360.966 60.7348 359.807 59.1066 359.807 57.1886ZM370.496 59.7689C371.214 59.7689 371.876 59.4929 372.345 59.0238L373.09 59.6861C372.428 60.3484 371.545 60.7624 370.551 60.7624C368.288 60.7624 366.977 59.0928 366.977 57.0644C366.977 55.0498 368.288 53.3802 370.551 53.3802C371.545 53.3802 372.428 53.7942 373.09 54.4565L372.345 55.1188C371.876 54.6497 371.214 54.3737 370.496 54.3737C368.868 54.3737 367.971 55.5742 367.971 57.0644C367.971 58.5684 368.868 59.7689 370.496 59.7689ZM375.19 50.455V57.3818L378.377 53.67H379.688L377.025 56.7608L379.812 60.6934H378.598L376.321 57.5059L375.19 58.8858V60.6934H374.196V50.455H375.19ZM384.429 59.8241C385.988 59.8241 386.83 58.7064 386.83 57.23C386.83 55.7674 385.988 54.6359 384.429 54.6359C383.146 54.6359 382.056 55.7674 382.056 57.23C382.056 58.7064 383.146 59.8241 384.429 59.8241ZM381.062 60.6934V50.455H382.056V55.1464C382.704 54.015 383.67 53.67 384.457 53.67C386.623 53.67 387.823 55.312 387.823 57.23C387.823 59.1617 386.609 60.8037 384.443 60.8037C383.67 60.8037 382.704 60.4726 382.056 59.3135V60.6934H381.062ZM392.152 59.7827C393.697 59.7827 394.511 58.6512 394.511 57.1886C394.511 55.726 393.697 54.5945 392.152 54.5945C390.593 54.5945 389.806 55.726 389.806 57.1886C389.806 58.6512 390.593 59.7827 392.152 59.7827ZM388.813 57.1886C388.813 55.2706 389.999 53.6286 392.152 53.6286C394.318 53.6286 395.505 55.2706 395.505 57.1886C395.505 59.1066 394.318 60.7486 392.152 60.7486C389.999 60.7486 388.813 59.1066 388.813 57.1886ZM402.415 53.67L399.752 57.1886L402.415 60.6934H401.159L399.241 58.0855L397.323 60.6934H396.067L398.717 57.1886L396.067 53.67H397.323L399.241 56.3055L401.159 53.67H402.415ZM413.859 50.731V51.6969H410.74V60.6934H409.747V51.6969H406.642V50.731H413.859ZM419.037 56.6918C418.927 55.6984 418.444 54.6359 416.953 54.6359C415.643 54.6359 414.801 55.3396 414.622 56.7056L419.037 56.6918ZM413.6 57.1886C413.6 55.2568 414.76 53.6424 416.912 53.6424C419.147 53.6424 419.713 55.381 419.782 55.5466C420.196 56.678 420.03 57.6715 420.03 57.6715H414.622C414.801 58.9686 415.643 59.7413 416.926 59.7413C418.513 59.7413 418.899 58.872 418.996 58.734L419.851 59.1893C419.851 59.1893 419.272 60.7348 416.912 60.7348C414.76 60.7348 413.6 59.1066 413.6 57.1886ZM426.987 53.67L424.324 57.1886L426.987 60.6934H425.731L423.813 58.0855L421.895 60.6934H420.64L423.289 57.1886L420.64 53.67H421.895L423.813 56.3055L425.731 53.67H426.987ZM431.549 60.5416C431.301 60.5968 430.928 60.6658 430.528 60.6658C429.479 60.6658 428.638 59.8241 428.638 58.7892V54.5807H427.492V53.6148H428.638V51.4485H429.631V53.6148H431.273V54.5807H429.631V58.7892C429.631 59.3411 429.962 59.6723 430.528 59.6723C430.845 59.6723 431.108 59.6309 431.328 59.5757L431.549 60.5416Z" fill="#616161"/>
<path d="M3.89113 102.344C6.07126 102.344 7.89264 100.522 7.89264 98.3284C7.89264 96.1344 6.07126 94.3131 3.89113 94.3131H2.15254V102.344H3.89113ZM1.15906 103.31V93.3472H3.89113C6.62319 93.3472 8.85852 95.5825 8.85852 98.3284C8.85852 101.074 6.62319 103.31 3.89113 103.31H1.15906ZM10.1766 96.2862H11.1701V103.31H10.1766V96.2862ZM10.0386 93.7335C10.0386 93.3886 10.2594 93.1126 10.6733 93.1126C11.0735 93.1126 11.2942 93.3886 11.2942 93.7335C11.2942 94.0923 11.0735 94.3683 10.6733 94.3683C10.2594 94.3683 10.0386 94.0923 10.0386 93.7335ZM13.3891 101.405C13.6651 102.04 14.3136 102.413 15.1553 102.371C16.3695 102.344 16.8525 100.84 15.6106 100.44C15.1553 100.302 14.3274 100.081 13.6513 99.6392C12.6026 98.9355 12.6164 97.9006 12.9338 97.2659C13.3615 96.4242 14.4516 96.1758 15.0863 96.231C15.6796 96.3 16.5075 96.507 17.0319 97.2107L16.2316 97.7902C15.9418 97.3901 15.4727 97.2659 15.0035 97.2107C14.5758 97.1693 14.01 97.3211 13.8031 97.7075C13.6237 98.08 13.6375 98.4526 14.2032 98.8251C14.7413 99.1839 15.4313 99.3495 15.9142 99.515C18.2323 100.26 17.4872 103.296 15.1829 103.351C14.0238 103.406 12.92 102.799 12.4922 101.792L13.3891 101.405ZM21.6448 102.413C22.8867 102.413 24.0043 101.405 24.0181 99.86C24.0043 98.3284 22.8867 97.3073 21.6448 97.3073C20.1132 97.3073 19.2853 98.4112 19.2853 99.86C19.2853 101.309 20.1132 102.413 21.6448 102.413ZM18.2918 99.86C18.2918 97.942 19.4923 96.3276 21.631 96.3276C22.4451 96.3276 23.3558 96.7554 23.9905 97.7764V96.2862H24.984V103.31H23.9905V101.93C23.3282 103.006 22.4589 103.406 21.631 103.406C19.4923 103.406 18.2918 101.764 18.2918 99.86ZM29.8902 102.44C31.4494 102.44 32.2911 101.323 32.2911 99.8462C32.2911 98.3836 31.4494 97.2521 29.8902 97.2521C28.6069 97.2521 27.5169 98.3836 27.5169 99.8462C27.5169 101.323 28.6069 102.44 29.8902 102.44ZM26.5234 103.31V93.0712H27.5169V97.7626C28.1654 96.6312 29.1313 96.2862 29.9178 96.2862C32.0841 96.2862 33.2846 97.9282 33.2846 99.8462C33.2846 101.778 32.0703 103.42 29.904 103.42C29.1313 103.42 28.1654 103.089 27.5169 101.93V103.31H26.5234ZM34.2874 93.0712H35.2809V103.31H34.2874V93.0712ZM41.7201 99.3081C41.6097 98.3146 41.1268 97.2521 39.6365 97.2521C38.3257 97.2521 37.484 97.9558 37.3046 99.3219L41.7201 99.3081ZM36.2835 99.8048C36.2835 97.873 37.4426 96.2586 39.5951 96.2586C41.8305 96.2586 42.3962 97.9972 42.4652 98.1628C42.8791 99.2943 42.7136 100.288 42.7136 100.288H37.3046C37.484 101.585 38.3257 102.357 39.6089 102.357C41.1957 102.357 41.5821 101.488 41.6787 101.35L42.5342 101.806C42.5342 101.806 41.9547 103.351 39.5951 103.351C37.4426 103.351 36.2835 101.723 36.2835 99.8048ZM46.9588 103.42C44.8201 103.42 43.6058 101.778 43.6058 99.8462C43.6058 97.9282 44.8201 96.2724 46.9588 96.2724C47.8557 96.2724 48.794 96.7278 49.3735 97.7764V93.0712H50.367V103.31H49.3735V101.916C48.7802 102.965 47.8557 103.42 46.9588 103.42ZM44.5993 99.8462C44.5993 101.323 45.441 102.426 47.0002 102.426C48.2696 102.426 49.3735 101.323 49.3735 99.8462C49.3735 98.3836 48.2696 97.2659 47.0002 97.2659C45.441 97.2659 44.5993 98.3836 44.5993 99.8462Z" fill="#616161"/>
<mask id="path-16-inside-3_827_22534" fill="white">
<path d="M121.425 93.8289C121.425 90.7807 123.897 88.3096 126.945 88.3096H137.983C141.032 88.3096 143.503 90.7807 143.503 93.8289V104.868C143.503 107.916 141.032 110.387 137.983 110.387H126.945C123.896 110.387 121.425 107.916 121.425 104.868V93.8289Z"/>
</mask>
<path d="M121.425 93.8289C121.425 90.7807 123.897 88.3096 126.945 88.3096H137.983C141.032 88.3096 143.503 90.7807 143.503 93.8289V104.868C143.503 107.916 141.032 110.387 137.983 110.387H126.945C123.896 110.387 121.425 107.916 121.425 104.868V93.8289Z" fill="#EEEEEE"/>
<path d="M126.945 89.4134H137.983V87.2057H126.945V89.4134ZM142.399 93.8289V104.868H144.607V93.8289H142.399ZM137.983 109.283H126.945V111.491H137.983V109.283ZM122.529 104.868V93.8289H120.322V104.868H122.529ZM126.945 109.283C124.506 109.283 122.529 107.306 122.529 104.868H120.322C120.322 108.525 123.287 111.491 126.945 111.491V109.283ZM142.399 104.868C142.399 107.306 140.422 109.283 137.983 109.283V111.491C141.641 111.491 144.607 108.525 144.607 104.868H142.399ZM137.983 89.4134C140.422 89.4134 142.399 91.3903 142.399 93.8289H144.607C144.607 90.171 141.641 87.2057 137.983 87.2057V89.4134ZM126.945 87.2057C123.287 87.2057 120.322 90.171 120.322 93.8289H122.529C122.529 91.3903 124.506 89.4134 126.945 89.4134V87.2057Z" fill="#BDBDBD" mask="url(#path-16-inside-3_827_22534)"/>
<path d="M158.267 104.959C155.259 104.959 153.355 102.655 153.355 99.8674C153.355 97.0802 155.259 94.7759 158.267 94.7759C159.633 94.7759 160.861 95.3554 161.744 96.2661L161.013 96.956C160.309 96.2247 159.343 95.7969 158.267 95.7969C155.852 95.7969 154.362 97.6045 154.362 99.8674C154.362 102.144 155.852 103.952 158.267 103.952C159.343 103.952 160.309 103.51 161.013 102.779L161.744 103.469C160.861 104.379 159.633 104.959 158.267 104.959ZM168.206 100.902C168.206 99.5915 167.461 98.8326 166.412 98.8326C165.322 98.8326 164.37 99.8536 164.37 101.178V104.849H163.376V94.6103H164.37V99.1499C164.715 98.4324 165.501 97.8667 166.454 97.8667C167.875 97.8667 169.199 99.0809 169.199 100.847V104.849H168.206V100.902ZM176.103 100.847C175.993 99.8536 175.51 98.7912 174.02 98.7912C172.709 98.7912 171.867 99.4949 171.688 100.861L176.103 100.847ZM170.667 101.344C170.667 99.4121 171.826 97.7977 173.979 97.7977C176.214 97.7977 176.78 99.5363 176.849 99.7019C177.263 100.833 177.097 101.827 177.097 101.827H171.688C171.867 103.124 172.709 103.897 173.992 103.897C175.579 103.897 175.966 103.027 176.062 102.889L176.918 103.345C176.918 103.345 176.338 104.89 173.979 104.89C171.826 104.89 170.667 103.262 170.667 101.344ZM181.356 103.924C182.074 103.924 182.736 103.648 183.205 103.179L183.95 103.841C183.288 104.504 182.405 104.918 181.411 104.918C179.148 104.918 177.837 103.248 177.837 101.22C177.837 99.2051 179.148 97.5355 181.411 97.5355C182.405 97.5355 183.288 97.9495 183.95 98.6118L183.205 99.2741C182.736 98.805 182.074 98.529 181.356 98.529C179.728 98.529 178.831 99.7295 178.831 101.22C178.831 102.724 179.728 103.924 181.356 103.924ZM186.05 94.6103V101.537L189.237 97.8253H190.548L187.885 100.916L190.672 104.849H189.458L187.181 101.661L186.05 103.041V104.849H185.056V94.6103H186.05ZM195.289 103.979C196.848 103.979 197.69 102.862 197.69 101.385C197.69 99.9226 196.848 98.7912 195.289 98.7912C194.006 98.7912 192.916 99.9226 192.916 101.385C192.916 102.862 194.006 103.979 195.289 103.979ZM191.922 104.849V94.6103H192.916V99.3017C193.564 98.1702 194.53 97.8253 195.317 97.8253C197.483 97.8253 198.683 99.4673 198.683 101.385C198.683 103.317 197.469 104.959 195.303 104.959C194.53 104.959 193.564 104.628 192.916 103.469V104.849H191.922ZM203.012 103.938C204.557 103.938 205.371 102.806 205.371 101.344C205.371 99.8812 204.557 98.7498 203.012 98.7498C201.453 98.7498 200.666 99.8812 200.666 101.344C200.666 102.806 201.453 103.938 203.012 103.938ZM199.673 101.344C199.673 99.4259 200.859 97.7839 203.012 97.7839C205.178 97.7839 206.365 99.4259 206.365 101.344C206.365 103.262 205.178 104.904 203.012 104.904C200.859 104.904 199.673 103.262 199.673 101.344ZM213.275 97.8253L210.612 101.344L213.275 104.849H212.019L210.101 102.241L208.183 104.849H206.927L209.577 101.344L206.927 97.8253H208.183L210.101 100.461L212.019 97.8253H213.275ZM224.719 94.8862V95.8521H221.6V104.849H220.607V95.8521H217.502V94.8862H224.719ZM229.897 100.847C229.787 99.8536 229.304 98.7912 227.813 98.7912C226.503 98.7912 225.661 99.4949 225.482 100.861L229.897 100.847ZM224.46 101.344C224.46 99.4121 225.62 97.7977 227.772 97.7977C230.007 97.7977 230.573 99.5363 230.642 99.7019C231.056 100.833 230.89 101.827 230.89 101.827H225.482C225.661 103.124 226.503 103.897 227.786 103.897C229.373 103.897 229.759 103.027 229.856 102.889L230.711 103.345C230.711 103.345 230.132 104.89 227.772 104.89C225.62 104.89 224.46 103.262 224.46 101.344ZM237.847 97.8253L235.184 101.344L237.847 104.849H236.591L234.673 102.241L232.755 104.849H231.5L234.149 101.344L231.5 97.8253H232.755L234.673 100.461L236.591 97.8253H237.847ZM242.409 104.697C242.161 104.752 241.788 104.821 241.388 104.821C240.339 104.821 239.498 103.979 239.498 102.944V98.736H238.352V97.7701H239.498V95.6038H240.491V97.7701H242.133V98.736H240.491V102.944C240.491 103.496 240.822 103.828 241.388 103.828C241.705 103.828 241.967 103.786 242.188 103.731L242.409 104.697Z" fill="#616161"/>
<mask id="path-19-inside-4_827_22534" fill="white">
<path d="M310.565 93.8289C310.565 90.7807 313.036 88.3096 316.085 88.3096H327.123C330.172 88.3096 332.643 90.7807 332.643 93.8289V104.868C332.643 107.916 330.172 110.387 327.123 110.387H316.085C313.036 110.387 310.565 107.916 310.565 104.868V93.8289Z"/>
</mask>
<path d="M310.565 93.8289C310.565 90.7807 313.036 88.3096 316.085 88.3096H327.123C330.172 88.3096 332.643 90.7807 332.643 93.8289V104.868C332.643 107.916 330.172 110.387 327.123 110.387H316.085C313.036 110.387 310.565 107.916 310.565 104.868V93.8289Z" fill="#EEEEEE"/>
<path d="M316.085 89.4134H327.123V87.2057H316.085V89.4134ZM331.539 93.8289V104.868H333.747V93.8289H331.539ZM327.123 109.283H316.085V111.491H327.123V109.283ZM311.669 104.868V93.8289H309.462V104.868H311.669ZM316.085 109.283C313.646 109.283 311.669 107.306 311.669 104.868H309.462C309.462 108.525 312.427 111.491 316.085 111.491V109.283ZM331.539 104.868C331.539 107.306 329.562 109.283 327.123 109.283V111.491C330.781 111.491 333.747 108.525 333.747 104.868H331.539ZM327.123 89.4134C329.562 89.4134 331.539 91.3903 331.539 93.8289H333.747C333.747 90.171 330.781 87.2057 327.123 87.2057V89.4134ZM316.085 87.2057C312.427 87.2057 309.462 90.171 309.462 93.8289H311.669C311.669 91.3903 313.646 89.4134 316.085 89.4134V87.2057Z" fill="#BDBDBD" mask="url(#path-19-inside-4_827_22534)"/>
<path fill-rule="evenodd" clip-rule="evenodd" d="M327.628 94.9805C328.059 95.4116 328.059 96.1106 327.628 96.5416L320.453 103.717C320.022 104.148 319.323 104.148 318.892 103.717L315.58 100.405C315.149 99.9741 315.149 99.2752 315.58 98.8441C316.011 98.413 316.71 98.413 317.141 98.8441L319.672 101.375L326.067 94.9805C326.498 94.5495 327.197 94.5495 327.628 94.9805Z" fill="#BDBDBD"/>
<path d="M347.407 104.959C344.399 104.959 342.495 102.655 342.495 99.8674C342.495 97.0802 344.399 94.7759 347.407 94.7759C348.773 94.7759 350.001 95.3554 350.884 96.2661L350.153 96.956C349.449 96.2247 348.483 95.7969 347.407 95.7969C344.992 95.7969 343.502 97.6045 343.502 99.8674C343.502 102.144 344.992 103.952 347.407 103.952C348.483 103.952 349.449 103.51 350.153 102.779L350.884 103.469C350.001 104.379 348.773 104.959 347.407 104.959ZM357.346 100.902C357.346 99.5915 356.601 98.8326 355.552 98.8326C354.462 98.8326 353.51 99.8536 353.51 101.178V104.849H352.516V94.6103H353.51V99.1499C353.855 98.4324 354.641 97.8667 355.594 97.8667C357.015 97.8667 358.339 99.0809 358.339 100.847V104.849H357.346V100.902ZM365.244 100.847C365.133 99.8536 364.65 98.7912 363.16 98.7912C361.849 98.7912 361.007 99.4949 360.828 100.861L365.244 100.847ZM359.807 101.344C359.807 99.4121 360.966 97.7977 363.119 97.7977C365.354 97.7977 365.92 99.5363 365.989 99.7019C366.403 100.833 366.237 101.827 366.237 101.827H360.828C361.007 103.124 361.849 103.897 363.132 103.897C364.719 103.897 365.106 103.027 365.202 102.889L366.058 103.345C366.058 103.345 365.478 104.89 363.119 104.89C360.966 104.89 359.807 103.262 359.807 101.344ZM370.496 103.924C371.214 103.924 371.876 103.648 372.345 103.179L373.09 103.841C372.428 104.504 371.545 104.918 370.551 104.918C368.288 104.918 366.977 103.248 366.977 101.22C366.977 99.2051 368.288 97.5355 370.551 97.5355C371.545 97.5355 372.428 97.9495 373.09 98.6118L372.345 99.2741C371.876 98.805 371.214 98.529 370.496 98.529C368.868 98.529 367.971 99.7295 367.971 101.22C367.971 102.724 368.868 103.924 370.496 103.924ZM375.19 94.6103V101.537L378.377 97.8253H379.688L377.025 100.916L379.812 104.849H378.598L376.321 101.661L375.19 103.041V104.849H374.196V94.6103H375.19ZM384.429 103.979C385.988 103.979 386.83 102.862 386.83 101.385C386.83 99.9226 385.988 98.7912 384.429 98.7912C383.146 98.7912 382.056 99.9226 382.056 101.385C382.056 102.862 383.146 103.979 384.429 103.979ZM381.062 104.849V94.6103H382.056V99.3017C382.704 98.1702 383.67 97.8253 384.457 97.8253C386.623 97.8253 387.823 99.4673 387.823 101.385C387.823 103.317 386.609 104.959 384.443 104.959C383.67 104.959 382.704 104.628 382.056 103.469V104.849H381.062ZM392.152 103.938C393.697 103.938 394.511 102.806 394.511 101.344C394.511 99.8812 393.697 98.7498 392.152 98.7498C390.593 98.7498 389.806 99.8812 389.806 101.344C389.806 102.806 390.593 103.938 392.152 103.938ZM388.813 101.344C388.813 99.4259 389.999 97.7839 392.152 97.7839C394.318 97.7839 395.505 99.4259 395.505 101.344C395.505 103.262 394.318 104.904 392.152 104.904C389.999 104.904 388.813 103.262 388.813 101.344ZM402.415 97.8253L399.752 101.344L402.415 104.849H401.159L399.241 102.241L397.323 104.849H396.067L398.717 101.344L396.067 97.8253H397.323L399.241 100.461L401.159 97.8253H402.415ZM413.859 94.8862V95.8521H410.74V104.849H409.747V95.8521H406.642V94.8862H413.859ZM419.037 100.847C418.927 99.8536 418.444 98.7912 416.953 98.7912C415.643 98.7912 414.801 99.4949 414.622 100.861L419.037 100.847ZM413.6 101.344C413.6 99.4121 414.76 97.7977 416.912 97.7977C419.147 97.7977 419.713 99.5363 419.782 99.7019C420.196 100.833 420.03 101.827 420.03 101.827H414.622C414.801 103.124 415.643 103.897 416.926 103.897C418.513 103.897 418.899 103.027 418.996 102.889L419.851 103.345C419.851 103.345 419.272 104.89 416.912 104.89C414.76 104.89 413.6 103.262 413.6 101.344ZM426.987 97.8253L424.324 101.344L426.987 104.849H425.731L423.813 102.241L421.895 104.849H420.64L423.289 101.344L420.64 97.8253H421.895L423.813 100.461L425.731 97.8253H426.987ZM431.549 104.697C431.301 104.752 430.928 104.821 430.528 104.821C429.479 104.821 428.638 103.979 428.638 102.944V98.736H427.492V97.7701H428.638V95.6038H429.631V97.7701H431.273V98.736H429.631V102.944C429.631 103.496 429.962 103.828 430.528 103.828C430.845 103.828 431.108 103.786 431.328 103.731L431.549 104.697Z" fill="#616161"/>
</svg>
