<svg width="66" height="66" viewBox="0 0 66 66" fill="none" xmlns="http://www.w3.org/2000/svg">
<path fill-rule="evenodd" clip-rule="evenodd" d="M28.7604 21.201C28.8693 20.3951 29.5835 19.834 30.3788 19.834H35.6283C36.4236 19.834 37.1378 20.3951 37.2467 21.201L37.6671 24.0586C38.1795 24.2968 38.6653 24.5737 39.1273 24.8852L41.9042 23.7983L41.9195 23.7929C42.6073 23.5492 43.4933 23.7686 43.9134 24.5039L46.5394 28.9316L46.5453 28.9421C46.9185 29.6089 46.782 30.474 46.1336 30.973L46.13 30.9757L43.7918 32.7578C43.8154 33.0219 43.8307 33.2964 43.8307 33.584C43.8307 33.8715 43.8154 34.1461 43.7918 34.4102L46.1336 36.195C46.782 36.6939 46.9185 37.5591 46.5453 38.2259L46.5394 38.2363L43.9134 42.6641C43.5096 43.3707 42.6448 43.652 41.8972 43.3669L41.889 43.3638L39.1227 42.2809C38.6659 42.5862 38.1817 42.8668 37.6673 43.1081L37.2467 45.967C37.1378 46.7729 36.4236 47.334 35.6283 47.334H30.3788C29.5835 47.334 28.8693 46.7729 28.7604 45.967L28.34 43.1094C27.8276 42.8712 27.3418 42.5943 26.8798 42.2827L24.1029 43.3696L24.0876 43.3751C23.3998 43.6188 22.5139 43.3994 22.0937 42.6642L19.4676 38.2363L19.4618 38.2259C19.0886 37.5591 19.225 36.6939 19.8735 36.195L19.8771 36.1922L22.2156 34.4099C22.1918 34.1422 22.1764 33.8652 22.1764 33.584C22.1764 33.3028 22.1918 33.0258 22.2156 32.758L19.8771 30.9757L19.8735 30.973C19.2539 30.4962 19.0486 29.6278 19.4756 28.9182L22.0937 24.5038C22.4975 23.7973 23.3623 23.516 24.1099 23.8011L24.1181 23.8042L26.8844 24.887C27.3412 24.5817 27.8254 24.3012 28.3398 24.0599L28.7604 21.201ZM30.668 21.7526L30.1314 25.3995L29.6103 25.6077C28.9036 25.8899 28.2412 26.2793 27.6096 26.741L27.1664 27.065L23.662 25.6933L21.321 29.6406L24.2984 31.9098L24.2292 32.4495C24.1792 32.8391 24.1449 33.2176 24.1449 33.584C24.1449 33.9504 24.1792 34.3288 24.2292 34.7185L24.2984 35.2581L21.321 37.5274L23.662 41.4747L27.1737 40.1001L27.6192 40.4341C28.2374 40.8976 28.8967 41.2753 29.6103 41.5603L30.1314 41.7684L30.668 45.4154H35.3391L35.8757 41.7684L36.3968 41.5603C37.1034 41.278 37.7659 40.8886 38.3974 40.427L38.8407 40.103L42.345 41.4747L44.6861 37.5274L41.7087 35.2581L41.7779 34.7185C41.828 34.3279 41.8621 33.9626 41.8621 33.584C41.8621 33.2054 41.828 32.84 41.7779 32.4495L41.7087 31.9098L44.6861 29.6406L42.345 25.6933L38.8333 27.0678L38.3879 26.7339C37.7697 26.2704 37.1104 25.8927 36.3968 25.6077L35.8757 25.3995L35.3391 21.7526H30.668ZM33.0035 30.0665C31.0142 30.0665 29.3945 31.6452 29.3945 33.584C29.3945 35.5228 31.0142 37.1014 33.0035 37.1014C34.9928 37.1014 36.6126 35.5228 36.6126 33.584C36.6126 31.6452 34.9928 30.0665 33.0035 30.0665ZM27.4259 33.584C27.4259 30.5856 29.927 28.1479 33.0035 28.1479C36.08 28.1479 38.5812 30.5856 38.5812 33.584C38.5812 36.5824 36.08 39.02 33.0035 39.02C29.927 39.02 27.4259 36.5824 27.4259 33.584Z" fill="#BDBDBD"/>
</svg>
