<svg width="269" height="148" viewBox="0 0 269 148" fill="none" xmlns="http://www.w3.org/2000/svg">
<g filter="url(#filter0_dd_957_52671)">
<rect width="233" height="112" transform="translate(18 16)" fill="white"/>
<path d="M36.0554 31.3937V32.2319H33.3493V40.0391H32.4871V32.2319H29.7929V31.3937H36.0554ZM37.3787 33.9442H38.2408V40.0391H37.3787V33.9442ZM37.2589 31.729C37.2589 31.4297 37.4505 31.1902 37.8097 31.1902C38.157 31.1902 38.3486 31.4297 38.3486 31.729C38.3486 32.0403 38.157 32.2798 37.8097 32.2798C37.4505 32.2798 37.2589 32.0403 37.2589 31.729ZM42.928 39.9073C42.7125 39.9552 42.3892 40.0151 42.0419 40.0151C41.1319 40.0151 40.4015 39.2847 40.4015 38.3866V34.7345H39.4076V33.8963H40.4015V32.0164H41.2636V33.8963H42.6885V34.7345H41.2636V38.3866C41.2636 38.8656 41.551 39.153 42.0419 39.153C42.3173 39.153 42.5448 39.1171 42.7364 39.0692L42.928 39.9073ZM44.1201 31.1543H44.9822V40.0391H44.1201V31.1543ZM50.7572 36.5666C50.6614 35.7044 50.2423 34.7824 48.9491 34.7824C47.8116 34.7824 47.0812 35.3931 46.9255 36.5785L50.7572 36.5666ZM46.0394 36.9976C46.0394 35.3213 47.0452 33.9203 48.9132 33.9203C50.853 33.9203 51.344 35.429 51.4038 35.5727C51.763 36.5546 51.6194 37.4167 51.6194 37.4167H46.9255C47.0812 38.5423 47.8116 39.2128 48.9252 39.2128C50.3022 39.2128 50.6375 38.4585 50.7213 38.3387L51.4637 38.7339C51.4637 38.7339 50.9608 40.075 48.9132 40.075C47.0452 40.075 46.0394 38.662 46.0394 36.9976Z" fill="#616161"/>
<mask id="path-2-inside-1_957_52671" fill="white">
<path d="M29.0386 55.3654C29.0386 52.969 30.9812 51.0264 33.3776 51.0264H236.7C239.096 51.0264 241.039 52.969 241.039 55.3654V88.5969C241.039 90.9932 239.096 92.9358 236.7 92.9358H33.3776C30.9812 92.9358 29.0386 90.9932 29.0386 88.5969V55.3654Z"/>
</mask>
<path d="M29.0386 55.3654C29.0386 52.969 30.9812 51.0264 33.3776 51.0264H236.7C239.096 51.0264 241.039 52.969 241.039 55.3654V88.5969C241.039 90.9932 239.096 92.9358 236.7 92.9358H33.3776C30.9812 92.9358 29.0386 90.9932 29.0386 88.5969V55.3654Z" fill="white"/>
<path d="M33.3776 51.0264V52.5231H236.7V51.0264V49.5296H33.3776V51.0264ZM241.039 55.3654H239.542V88.5969H241.039H242.535V55.3654H241.039ZM236.7 92.9358V91.4391H33.3776V92.9358V94.4326H236.7V92.9358ZM29.0386 88.5969H30.5353V55.3654H29.0386H27.5418V88.5969H29.0386ZM33.3776 92.9358V91.4391C31.8078 91.4391 30.5353 90.1666 30.5353 88.5969H29.0386H27.5418C27.5418 91.8199 30.1546 94.4326 33.3776 94.4326V92.9358ZM241.039 88.5969H239.542C239.542 90.1666 238.269 91.4391 236.7 91.4391V92.9358V94.4326C239.923 94.4326 242.535 91.8198 242.535 88.5969H241.039ZM236.7 51.0264V52.5231C238.269 52.5231 239.542 53.7956 239.542 55.3654H241.039H242.535C242.535 52.1424 239.923 49.5296 236.7 49.5296V51.0264ZM33.3776 51.0264V49.5296C30.1546 49.5296 27.5418 52.1424 27.5418 55.3654H29.0386H30.5353C30.5353 53.7956 31.8078 52.5231 33.3776 52.5231V51.0264Z" fill="#E53935" mask="url(#path-2-inside-1_957_52671)"/>
<path d="M43.6364 69.3091H45.2394V66.4533H46.1959V73.3908H45.2394V70.1308H43.6364V69.3091ZM39.1102 72.7576V67.046H43.5556V67.8677H40.0801V69.4438H43.0841V70.2386H40.0801V71.9359C41.7909 71.9359 42.8551 71.8686 44.1079 71.6126L44.2022 72.4343C42.8551 72.7038 41.737 72.7576 39.8511 72.7576H39.1102ZM40.565 74.886V74.0643H48.4725V77.9844H47.4756V74.886H40.565ZM47.516 73.4851V66.1973H48.4725V73.4851H47.516ZM54.9882 67.0056H56.0389V67.9216C56.0389 69.9692 58.3559 71.7608 60.3631 72.138L59.8916 72.9732C58.1539 72.569 56.2679 71.3028 55.5136 69.565C54.7592 71.3028 52.8867 72.569 51.1355 72.9732L50.691 72.138C52.6712 71.7473 54.9882 69.9692 54.9882 67.9216V67.0056ZM50.2195 76.3678V75.5326H60.9019V76.3678H50.2195ZM63.2686 67.2211H71.2165V68.0428H64.2924V69.8479H70.9605V70.6697H64.2924V72.569H71.3377V73.4042H63.2686V67.2211ZM61.8811 76.4352V75.6H72.5636V76.4352H61.8811ZM85.1565 66.1973H86.1668V72.5152H85.1565V66.1973ZM76.8045 69.4707C76.8045 67.8677 78.0843 66.7766 79.8624 66.7766C81.6406 66.7766 82.9203 67.8677 82.9203 69.4707C82.9203 71.0738 81.6406 72.1784 79.8624 72.1784C78.0843 72.1784 76.8045 71.0738 76.8045 69.4707ZM77.7879 69.4707C77.7879 70.5619 78.6635 71.3297 79.8624 71.3297C81.0613 71.3297 81.937 70.5619 81.937 69.4707C81.937 68.3796 81.0613 67.6118 79.8624 67.6118C78.6635 67.6118 77.7879 68.3796 77.7879 69.4707ZM78.6096 77.8227V73.1214H79.6065V74.5762H85.17V73.1214H86.1668V77.8227H78.6096ZM79.6065 77.001H85.17V75.3845H79.6065V77.001ZM88.6548 66.9113H93.7333V70.2116H89.692V72.0706C91.9147 72.0706 93.0463 72.0302 94.4338 71.7743L94.5415 72.596C93.0732 72.8519 91.9012 72.8924 89.5169 72.8924H88.6952V69.4169H92.7364V67.7465H88.6548V66.9113ZM90.0019 74.913V74.0913H97.8689V78.0113H96.8585V74.913H90.0019ZM94.5146 71.222V70.4002H96.8585V68.7972H94.5146V67.962H96.8585V66.2108H97.8689V73.4447H96.8585V71.222H94.5146ZM108.172 66.9786C110.664 66.9786 112.442 68.191 112.442 70.05C112.442 71.8012 110.893 72.9462 108.67 73.0944V75.6135H113.533V76.4487H102.851V75.6135H107.673V73.0944C105.451 72.9462 103.901 71.7877 103.901 70.05C103.901 68.191 105.693 66.9786 108.172 66.9786ZM104.885 70.05C104.885 71.3971 106.272 72.3131 108.172 72.3131C110.071 72.3131 111.472 71.3971 111.472 70.05C111.472 68.6894 110.071 67.7869 108.172 67.7869C106.272 67.7869 104.885 68.6894 104.885 70.05ZM114.512 73.2291H125.195V74.0643H122.366V77.9844H121.369V74.0643H118.325V77.9844H117.314V74.0643H114.512V73.2291ZM115.792 67.504V66.6823H123.888V69.6593H116.843V71.1546H124.158V71.9898H115.819V68.8915H122.878V67.504H115.792Z" fill="#333333"/>
<path d="M38.019 101.199C41.7216 101.199 44.7229 104.201 44.7231 107.903C44.7231 111.606 41.7217 114.607 38.019 114.607C34.3165 114.607 31.3149 111.606 31.3149 107.903C31.3152 104.201 34.3166 101.199 38.019 101.199ZM38.019 102.135C34.8333 102.135 32.2507 104.718 32.2505 107.903C32.2505 111.089 34.8331 113.672 38.019 113.672C41.2051 113.672 43.7876 111.089 43.7876 107.903C43.7874 104.718 41.2049 102.135 38.019 102.135ZM35.8169 105.701C35.9767 105.541 36.2242 105.522 36.4058 105.642L36.479 105.701L38.0181 107.241L39.5591 105.701L39.6323 105.642C39.8136 105.522 40.0603 105.542 40.2202 105.701C40.4029 105.884 40.4028 106.181 40.2202 106.363L38.6802 107.902L40.2202 109.443L40.2808 109.517C40.4006 109.698 40.38 109.945 40.2202 110.104C40.0604 110.264 39.8139 110.285 39.6323 110.165L39.5591 110.104L38.0181 108.564L36.479 110.104L36.4058 110.165C36.2242 110.285 35.9768 110.264 35.8169 110.104C35.6349 109.922 35.6346 109.626 35.8169 109.443L37.3569 107.902L35.8169 106.363L35.7573 106.29C35.6375 106.108 35.6571 105.861 35.8169 105.701Z" fill="#C62828"/>
<path d="M55.6405 104.339V105.072H51.5019V107.639H55.1061V108.372H51.5019V111.17H55.6405V111.903H50.7475V104.339H55.6405ZM57.6401 107.691C57.9439 106.989 58.8135 106.518 59.5365 106.518V107.293C58.5621 107.293 57.6401 108.31 57.6401 109.158V111.903H56.8857V106.57H57.6401V107.691ZM61.2829 107.691C61.5867 106.989 62.4563 106.518 63.1793 106.518V107.293C62.2049 107.293 61.2829 108.31 61.2829 109.158V111.903H60.5285V106.57H61.2829V107.691ZM66.1406 111.212C67.3141 111.212 67.9323 110.353 67.9323 109.242C67.9323 108.131 67.3141 107.272 66.1406 107.272C64.9567 107.272 64.3595 108.131 64.3595 109.242C64.3595 110.353 64.9567 111.212 66.1406 111.212ZM63.6051 109.242C63.6051 107.786 64.5062 106.539 66.1406 106.539C67.7856 106.539 68.6866 107.786 68.6866 109.242C68.6866 110.698 67.7856 111.945 66.1406 111.945C64.5062 111.945 63.6051 110.698 63.6051 109.242ZM70.3795 107.691C70.6834 106.989 71.553 106.518 72.2759 106.518V107.293C71.3015 107.293 70.3795 108.31 70.3795 109.158V111.903H69.6252V106.57H70.3795V107.691ZM82.5798 108.634C82.5798 107.786 82.0664 107.304 81.312 107.304C80.61 107.304 79.8871 107.964 79.8871 108.634V111.903H79.1327V108.634C79.1327 107.964 78.7031 107.304 77.8859 107.304C77.142 107.304 76.4505 107.964 76.4505 108.718V111.903H75.6961V106.57H76.4505V107.492C76.7858 106.916 77.2782 106.57 77.9173 106.57C78.6927 106.57 79.2061 106.906 79.5832 107.639C79.9709 107.094 80.5053 106.57 81.3434 106.57C82.4331 106.57 83.3341 107.45 83.3341 108.551V111.903H82.5798V108.634ZM88.5356 108.865C88.4518 108.111 88.0851 107.304 86.9535 107.304C85.9582 107.304 85.3191 107.838 85.1829 108.875L88.5356 108.865ZM84.4075 109.242C84.4075 107.775 85.2876 106.549 86.9221 106.549C88.6195 106.549 89.049 107.87 89.1014 107.995C89.4157 108.854 89.29 109.609 89.29 109.609H85.1829C85.3191 110.594 85.9582 111.18 86.9326 111.18C88.1375 111.18 88.4309 110.52 88.5042 110.416L89.1538 110.761C89.1538 110.761 88.7137 111.935 86.9221 111.935C85.2876 111.935 84.4075 110.698 84.4075 109.242ZM90.7982 110.457C91.0078 110.939 91.5002 111.222 92.1393 111.191C93.0613 111.17 93.428 110.028 92.4851 109.724C92.1393 109.619 91.5107 109.452 90.9973 109.116C90.201 108.582 90.2115 107.796 90.4525 107.314C90.7773 106.675 91.605 106.487 92.0869 106.528C92.5375 106.581 93.1661 106.738 93.5642 107.272L92.9566 107.712C92.7365 107.409 92.3803 107.314 92.0241 107.272C91.6993 107.241 91.2697 107.356 91.1125 107.65C90.9763 107.932 90.9868 108.215 91.4164 108.498C91.825 108.771 92.3489 108.896 92.7156 109.022C94.4758 109.588 93.91 111.893 92.1603 111.935C91.2802 111.977 90.442 111.516 90.1172 110.751L90.7982 110.457ZM95.1368 110.457C95.3463 110.939 95.8388 111.222 96.4779 111.191C97.3999 111.17 97.7666 110.028 96.8237 109.724C96.4779 109.619 95.8493 109.452 95.3359 109.116C94.5396 108.582 94.5501 107.796 94.791 107.314C95.1158 106.675 95.9436 106.487 96.4255 106.528C96.876 106.581 97.5047 106.738 97.9028 107.272L97.2951 107.712C97.0751 107.409 96.7189 107.314 96.3626 107.272C96.0378 107.241 95.6083 107.356 95.4511 107.65C95.3149 107.932 95.3254 108.215 95.755 108.498C96.1636 108.771 96.6874 108.896 97.0542 109.022C98.8144 109.588 98.2486 111.893 96.4989 111.935C95.6188 111.977 94.7806 111.516 94.4558 110.751L95.1368 110.457ZM101.555 111.222C102.498 111.222 103.347 110.457 103.357 109.284C103.347 108.121 102.498 107.346 101.555 107.346C100.392 107.346 99.7636 108.184 99.7636 109.284C99.7636 110.384 100.392 111.222 101.555 111.222ZM99.0092 109.284C99.0092 107.828 99.9207 106.602 101.545 106.602C102.163 106.602 102.854 106.927 103.336 107.702V106.57H104.091V111.903H103.336V110.856C102.833 111.673 102.173 111.977 101.545 111.977C99.9207 111.977 99.0092 110.73 99.0092 109.284ZM107.746 111.243C108.741 111.243 109.527 110.374 109.527 109.284C109.527 108.215 108.731 107.346 107.746 107.346C106.656 107.346 105.954 108.111 105.954 109.284C105.954 110.478 106.656 111.243 107.746 111.243ZM105.2 109.284C105.2 107.702 106.237 106.612 107.735 106.612C108.532 106.612 109.213 107.031 109.527 107.712V106.57H110.281V111.641C110.26 113.339 109.275 114.303 107.578 114.303C106.729 114.303 105.986 113.863 105.441 113.045L106.08 112.637C106.468 113.244 106.97 113.548 107.578 113.548C108.877 113.548 109.516 112.92 109.527 111.631V110.835C109.16 111.495 108.416 111.977 107.735 111.977C106.237 111.977 105.2 110.877 105.2 109.284ZM115.303 108.865C115.22 108.111 114.853 107.304 113.721 107.304C112.726 107.304 112.087 107.838 111.951 108.875L115.303 108.865ZM111.175 109.242C111.175 107.775 112.056 106.549 113.69 106.549C115.387 106.549 115.817 107.87 115.869 107.995C116.184 108.854 116.058 109.609 116.058 109.609H111.951C112.087 110.594 112.726 111.18 113.7 111.18C114.905 111.18 115.199 110.52 115.272 110.416L115.922 110.761C115.922 110.761 115.482 111.935 113.69 111.935C112.056 111.935 111.175 110.698 111.175 109.242Z" fill="#C62828"/>
</g>
<defs>
<filter id="filter0_dd_957_52671" x="0.338152" y="0.545883" width="268.324" height="147.324" filterUnits="userSpaceOnUse" color-interpolation-filters="sRGB">
<feFlood flood-opacity="0" result="BackgroundImageFix"/>
<feColorMatrix in="SourceAlpha" type="matrix" values="0 0 0 0 0 0 0 0 0 0 0 0 0 0 0 0 0 0 127 0" result="hardAlpha"/>
<feOffset/>
<feGaussianBlur stdDeviation="0.551933"/>
<feComposite in2="hardAlpha" operator="out"/>
<feColorMatrix type="matrix" values="0 0 0 0 0 0 0 0 0 0 0 0 0 0 0 0 0 0 0.2 0"/>
<feBlend mode="normal" in2="BackgroundImageFix" result="effect1_dropShadow_957_52671"/>
<feColorMatrix in="SourceAlpha" type="matrix" values="0 0 0 0 0 0 0 0 0 0 0 0 0 0 0 0 0 0 127 0" result="hardAlpha"/>
<feOffset dy="2.20773"/>
<feGaussianBlur stdDeviation="8.83092"/>
<feComposite in2="hardAlpha" operator="out"/>
<feColorMatrix type="matrix" values="0 0 0 0 0 0 0 0 0 0 0 0 0 0 0 0 0 0 0.08 0"/>
<feBlend mode="normal" in2="effect1_dropShadow_957_52671" result="effect2_dropShadow_957_52671"/>
<feBlend mode="normal" in="SourceGraphic" in2="effect2_dropShadow_957_52671" result="shape"/>
</filter>
</defs>
</svg>
