<svg width="382" height="162" viewBox="0 0 382 162" fill="none" xmlns="http://www.w3.org/2000/svg">
<path d="M57 17.8389V21.1614" stroke="#1E40AF" stroke-width="0.664516"/>
<path d="M160 19.5L57 19.5" stroke="#1E40AF" stroke-width="0.664516"/>
<path d="M160 17.8389V21.1614" stroke="#1E40AF" stroke-width="0.664516"/>
<path d="M1 113V116.323" stroke="#1E40AF" stroke-width="0.664516"/>
<path d="M300 114.661L0.999997 114.661" stroke="#1E40AF" stroke-width="0.664516"/>
<path d="M300 113V116.323" stroke="#1E40AF" stroke-width="0.664516"/>
<path d="M73.43 2.98H74.18V5.43H75.49V6.06H74.18V8.62H73.43V2.98ZM67.43 4.59V3.99H69.64V2.9H70.39V3.99H72.6V4.59H67.43ZM67.93 6.58C67.93 5.65 68.76 5.05 70.01 5.05C71.26 5.05 72.1 5.65 72.1 6.58C72.1 7.53 71.26 8.13 70.01 8.13C68.76 8.13 67.93 7.53 67.93 6.58ZM68.61 10.2C68.61 9.25 69.68 8.7 71.45 8.7C73.21 8.7 74.28 9.25 74.28 10.2C74.28 11.15 73.21 11.71 71.45 11.71C69.68 11.71 68.61 11.15 68.61 10.2ZM68.64 6.58C68.64 7.17 69.19 7.56 70.01 7.56C70.83 7.56 71.38 7.17 71.38 6.58C71.38 6 70.83 5.62 70.01 5.62C69.19 5.62 68.64 6 68.64 6.58ZM69.35 10.2C69.35 10.79 70.15 11.13 71.45 11.13C72.75 11.13 73.55 10.79 73.55 10.2C73.55 9.62 72.75 9.28 71.45 9.28C70.15 9.28 69.35 9.62 69.35 10.2ZM76.9102 3.36H82.7802V6.31H80.2102V7.44H83.7902V8.05H75.8902V7.44H79.4702V6.31H76.9102V3.36ZM76.7702 9.6V8.98H82.8102V11.73H82.0702V9.6H76.7702ZM77.6402 5.7H82.0402V3.96H77.6402V5.7ZM92.8752 2.98H93.6252V11.74H92.8752V6.5H90.1552V5.89H92.8752V2.98ZM86.9152 9.61V3.96H87.6552V8.98C88.9952 8.98 90.1752 8.91 91.4952 8.63L91.5852 9.26C90.1952 9.54 88.9852 9.61 87.5852 9.61H86.9152ZM101.315 2.97H102.065V11.74H101.315V2.97ZM95.4254 9.62V3.73H96.1754V6.05H98.7854V3.73H99.5254V9.62H95.4254ZM96.1754 9H98.7854V6.65H96.1754V9ZM106.246 3.62C107.606 3.62 108.576 4.46 108.576 5.67C108.576 6.89 107.606 7.72 106.246 7.72C104.876 7.72 103.906 6.89 103.906 5.67C103.906 4.46 104.876 3.62 106.246 3.62ZM103.456 9.17C105.056 9.17 107.276 9.17 109.186 8.87L109.246 9.42C107.276 9.8 105.126 9.81 103.556 9.81L103.456 9.17ZM104.636 5.67C104.636 6.49 105.316 7.07 106.246 7.07C107.166 7.07 107.846 6.49 107.846 5.67C107.846 4.84 107.166 4.27 106.246 4.27C105.316 4.27 104.636 4.84 104.636 5.67ZM109.766 11.74V2.97H110.516V11.74H109.766ZM117.631 7.27C118.221 7.63 118.721 8.24 118.721 8.96C118.721 10.17 117.621 11.06 116.391 11.06C115.171 11.06 114.071 10.17 114.071 8.96H114.791C114.791 9.64 115.441 10.33 116.391 10.33C117.351 10.33 118.001 9.65 118.001 8.97C118.001 8.29 117.561 7.62 116.411 7.62H115.881V6.9H116.411C117.401 6.9 117.901 6.31 117.901 5.67C117.901 5.07 117.321 4.44 116.451 4.44C115.581 4.44 114.991 5.06 114.991 5.69H114.271C114.271 4.56 115.311 3.72 116.451 3.72C117.601 3.72 118.621 4.56 118.621 5.69C118.621 6.35 118.171 6.91 117.631 7.27ZM123.054 7.27C123.644 7.63 124.144 8.24 124.144 8.96C124.144 10.17 123.044 11.06 121.814 11.06C120.594 11.06 119.494 10.17 119.494 8.96H120.214C120.214 9.64 120.864 10.33 121.814 10.33C122.774 10.33 123.424 9.65 123.424 8.97C123.424 8.29 122.984 7.62 121.834 7.62H121.304V6.9H121.834C122.824 6.9 123.324 6.31 123.324 5.67C123.324 5.07 122.744 4.44 121.874 4.44C121.004 4.44 120.414 5.06 120.414 5.69H119.694C119.694 4.56 120.734 3.72 121.874 3.72C123.024 3.72 124.044 4.56 124.044 5.69C124.044 6.35 123.594 6.91 123.054 7.27ZM125.538 10.13C125.858 10.13 126.028 10.35 126.028 10.62C126.028 10.91 125.858 11.13 125.538 11.13C125.208 11.13 125.028 10.91 125.028 10.62C125.028 10.35 125.208 10.13 125.538 10.13ZM130.865 7.27C131.455 7.63 131.955 8.24 131.955 8.96C131.955 10.17 130.855 11.06 129.625 11.06C128.405 11.06 127.305 10.17 127.305 8.96H128.025C128.025 9.64 128.675 10.33 129.625 10.33C130.585 10.33 131.235 9.65 131.235 8.97C131.235 8.29 130.795 7.62 129.645 7.62H129.115V6.9H129.645C130.635 6.9 131.135 6.31 131.135 5.67C131.135 5.07 130.555 4.44 129.685 4.44C128.815 4.44 128.225 5.06 128.225 5.69H127.505C127.505 4.56 128.545 3.72 129.685 3.72C130.835 3.72 131.855 4.56 131.855 5.69C131.855 6.35 131.405 6.91 130.865 7.27ZM136.289 7.27C136.879 7.63 137.379 8.24 137.379 8.96C137.379 10.17 136.279 11.06 135.049 11.06C133.829 11.06 132.729 10.17 132.729 8.96H133.449C133.449 9.64 134.099 10.33 135.049 10.33C136.009 10.33 136.659 9.65 136.659 8.97C136.659 8.29 136.219 7.62 135.069 7.62H134.539V6.9H135.069C136.059 6.9 136.559 6.31 136.559 5.67C136.559 5.07 135.979 4.44 135.109 4.44C134.239 4.44 133.649 5.06 133.649 5.69H132.929C132.929 4.56 133.969 3.72 135.109 3.72C136.259 3.72 137.279 4.56 137.279 5.69C137.279 6.35 136.829 6.91 136.289 7.27ZM141.713 7.27C142.303 7.63 142.803 8.24 142.803 8.96C142.803 10.17 141.703 11.06 140.473 11.06C139.253 11.06 138.153 10.17 138.153 8.96H138.873C138.873 9.64 139.523 10.33 140.473 10.33C141.433 10.33 142.083 9.65 142.083 8.97C142.083 8.29 141.643 7.62 140.493 7.62H139.963V6.9H140.493C141.483 6.9 141.983 6.31 141.983 5.67C141.983 5.07 141.403 4.44 140.533 4.44C139.663 4.44 139.073 5.06 139.073 5.69H138.353C138.353 4.56 139.393 3.72 140.533 3.72C141.683 3.72 142.703 4.56 142.703 5.69C142.703 6.35 142.253 6.91 141.713 7.27ZM145.696 10.98L150.206 3.78H151.026L146.496 10.98H145.696ZM144.046 5.62C144.046 4.55 144.886 3.66 145.956 3.66C147.026 3.66 147.856 4.55 147.856 5.62C147.856 6.68 147.026 7.58 145.956 7.58C144.886 7.58 144.046 6.68 144.046 5.62ZM144.786 5.62C144.786 6.31 145.326 6.86 145.956 6.86C146.596 6.86 147.126 6.31 147.126 5.62C147.126 4.93 146.596 4.38 145.956 4.38C145.326 4.38 144.786 4.93 144.786 5.62ZM148.776 9.11C148.776 8.04 149.616 7.15 150.686 7.15C151.756 7.15 152.586 8.04 152.586 9.11C152.586 10.17 151.756 11.07 150.686 11.07C149.616 11.07 148.776 10.17 148.776 9.11ZM149.516 9.11C149.516 9.8 150.056 10.35 150.686 10.35C151.326 10.35 151.856 9.8 151.856 9.11C151.856 8.42 151.326 7.87 150.686 7.87C150.056 7.87 149.516 8.42 149.516 9.11Z" fill="#1E40AF"/>
<path d="M113.37 96.98H114.12V100.71H115.51V101.35H114.12V105.73H113.37V96.98ZM107.3 103.4C108.01 103.4 108.84 103.4 109.7 103.37V102.4C108.69 102.28 108.02 101.69 108.02 100.81C108.02 99.83 108.86 99.19 110.07 99.19C111.29 99.19 112.13 99.83 112.13 100.81C112.13 101.68 111.46 102.28 110.45 102.4V103.34C111.26 103.3 112.07 103.24 112.83 103.13L112.89 103.68C111 104.03 108.94 104.04 107.42 104.04L107.3 103.4ZM107.45 98.66V98.05H109.7V96.99H110.45V98.05H112.69V98.66H107.45ZM108.73 100.81C108.73 101.43 109.27 101.83 110.07 101.83C110.88 101.83 111.42 101.43 111.42 100.81C111.42 100.18 110.88 99.77 110.07 99.77C109.27 99.77 108.73 100.18 108.73 100.81ZM116.3 97.74H120.27V98.54H122.32V96.99H123.07V103.37H122.32V101.03H120.27V101.82H116.3V97.74ZM117.03 101.21H119.54V98.35H117.03V101.21ZM117.47 105.53V102.8H118.22V104.91H123.28V105.53H117.47ZM120.27 100.41H122.32V99.16H120.27V100.41ZM127.385 97.88H133.355V98.96C133.355 100.25 133.355 101.44 132.995 103.21L132.245 103.14C132.435 102.3 132.525 101.56 132.575 100.87L127.265 101.16L127.155 100.54L132.595 100.31C132.615 99.85 132.615 99.4 132.615 98.96V98.5H127.385V97.88ZM126.435 104.49V103.86H134.345V104.49H126.435ZM141.335 96.98H142.085V105.73H141.335V96.98ZM135.035 103.48C137.395 102.35 138.585 100.64 138.745 98.54H135.425V97.92H139.505C139.505 100.44 138.345 102.66 135.435 104.08L135.035 103.48ZM149.376 96.97H150.136V100.55H151.546V101.18H150.136V105.73H149.376V96.97ZM143.486 103.47C145.736 102.34 146.956 100.62 147.126 98.54H143.886V97.92H147.886C147.886 100.39 146.726 102.64 143.906 104.05L143.486 103.47ZM155.541 102.45H161.141V105.61H155.541V102.45ZM154.471 101.44V97.51H155.221V100.8C156.591 100.8 157.741 100.71 159.011 100.45L159.111 101.09C157.771 101.36 156.581 101.44 155.141 101.44H154.471ZM156.261 105H160.411V103.06H156.261V105ZM157.881 99.26V98.64H160.391V96.98H161.141V102.02H160.391V99.26H157.881ZM164.771 97.66C165.961 97.66 166.821 98.69 166.931 100.34H168.891V96.97H169.631V105.74H168.891V100.94H166.931C166.861 102.66 165.981 103.75 164.771 103.75C163.501 103.75 162.601 102.56 162.601 100.7C162.601 98.84 163.501 97.66 164.771 97.66ZM163.311 100.7C163.311 102.13 163.911 103.08 164.771 103.08C165.641 103.08 166.231 102.13 166.231 100.7C166.231 99.27 165.641 98.33 164.771 98.33C163.911 98.33 163.311 99.27 163.311 100.7ZM176.901 96.97H177.661V100.55H179.071V101.18H177.661V105.73H176.901V96.97ZM171.011 103.47C173.261 102.34 174.481 100.62 174.651 98.54H171.411V97.92H175.411C175.411 100.39 174.251 102.64 171.431 104.05L171.011 103.47ZM179.841 97.74H183.811V98.54H185.861V96.99H186.611V103.37H185.861V101.03H183.811V101.82H179.841V97.74ZM180.571 101.21H183.081V98.35H180.571V101.21ZM181.011 105.53V102.8H181.761V104.91H186.821V105.53H181.011ZM183.811 100.41H185.861V99.16H183.811V100.41ZM193.516 97.58H194.296V98.26C194.296 99.78 196.016 101.11 197.506 101.39L197.156 102.01C195.866 101.71 194.466 100.77 193.906 99.48C193.346 100.77 191.956 101.71 190.656 102.01L190.326 101.39C191.796 101.1 193.516 99.78 193.516 98.26V97.58ZM189.976 104.53V103.91H197.906V104.53H189.976ZM199.416 97.88H205.386V98.96C205.386 100.25 205.386 101.44 205.026 103.21L204.276 103.14C204.466 102.3 204.556 101.56 204.606 100.87L199.296 101.16L199.186 100.54L204.626 100.31C204.646 99.85 204.646 99.4 204.646 98.96V98.5H199.416V97.88ZM198.466 104.49V103.86H206.376V104.49H198.466ZM206.957 101.13H210.537V100.38H207.987V98.53H213.117V97.79H207.967V97.24H213.857V99.04H208.717V99.83H214.017V100.38H211.287V101.13H214.887V101.69H206.957V101.13ZM207.907 102.93V102.38H213.887V104.23H208.667V105.08H214.167V105.63H207.927V103.7H213.157V102.93H207.907Z" fill="#1E40AF"/>
<g clip-path="url(#clip0_1101_59915)">
<mask id="path-9-outside-1_1101_59915" maskUnits="userSpaceOnUse" x="57" y="29" width="264" height="41" fill="black">
<rect fill="white" x="57" y="29" width="264" height="41"/>
<path d="M57 29H320.333V69H57V29Z"/>
</mask>
<mask id="path-11-inside-2_1101_59915" fill="white">
<path d="M57 29H160.333V69H57V29Z"/>
</mask>
<path d="M57 29H160.333V69H57V29Z" fill="white"/>
<path d="M160.333 69V67.75H57V69V70.25H160.333V69Z" fill="#111111" mask="url(#path-11-inside-2_1101_59915)"/>
<path d="M77.2176 43.8H78.8976V44.8C78.8976 46.4 79.7109 47.88 81.5909 48.48L80.7242 49.7733C79.4709 49.3333 78.6042 48.5067 78.0976 47.4533C77.5642 48.68 76.6042 49.6533 75.1909 50.1333L74.3242 48.8C76.3376 48.1467 77.2176 46.5467 77.2176 44.88V43.8ZM76.2709 52.7867C76.2709 51.3467 77.8442 50.48 80.3642 50.48C82.8842 50.48 84.4442 51.3467 84.4442 52.7867C84.4442 54.2667 82.8842 55.12 80.3642 55.12C77.8442 55.12 76.2709 54.2667 76.2709 52.7867ZM77.9376 52.7867C77.9376 53.4933 78.7776 53.8533 80.3642 53.8533C81.9376 53.8533 82.8042 53.4933 82.8042 52.7867C82.8042 52.1067 81.9376 51.76 80.3642 51.76C78.7776 51.76 77.9376 52.1067 77.9376 52.7867ZM80.5109 46.72V45.3733H82.7376V43.1733H84.4042V50.1733H82.7376V46.72H80.5109ZM94.2129 43.1733H95.8796V51.7733H94.2129V43.1733ZM86.1329 46.96C86.1329 45.1867 87.5596 43.9333 89.3729 43.9333C91.1996 43.9333 92.6129 45.1867 92.6129 46.96C92.6129 48.7067 91.1996 49.9867 89.3729 49.9867C87.5596 49.9867 86.1329 48.7067 86.1329 46.96ZM87.7462 46.96C87.7462 47.9333 88.4662 48.5467 89.3729 48.5467C90.2929 48.5467 90.9996 47.9333 90.9996 46.96C90.9996 45.96 90.2929 45.36 89.3729 45.36C88.4662 45.36 87.7462 45.96 87.7462 46.96ZM87.9462 54.8933V50.9067H89.5862V53.5733H96.1729V54.8933H87.9462ZM97.4882 48.8533H99.9415V47.4C99.0615 47.0133 98.5682 46.4133 98.5682 45.64C98.5682 44.2133 100.262 43.3467 102.888 43.3467C105.528 43.3467 107.208 44.2133 107.208 45.64C107.208 46.4267 106.702 47.0267 105.808 47.4133V48.8533H108.288V50.16H97.4882V48.8533ZM98.7282 52.9467C98.7282 51.5867 100.288 50.8 102.862 50.8C105.448 50.8 107.008 51.5867 107.008 52.9467C107.008 54.3467 105.448 55.12 102.862 55.12C100.288 55.12 98.7282 54.3467 98.7282 52.9467ZM100.275 45.64C100.275 46.32 101.222 46.6667 102.888 46.6667C104.542 46.6667 105.502 46.32 105.502 45.64C105.502 44.96 104.542 44.6 102.888 44.6C101.222 44.6 100.275 44.96 100.275 45.64ZM100.395 52.9467C100.395 53.5733 101.235 53.88 102.862 53.88C104.502 53.88 105.342 53.5733 105.342 52.9467C105.342 52.3333 104.502 52.04 102.862 52.04C101.235 52.04 100.395 52.3333 100.395 52.9467ZM101.582 48.8533H104.168V47.8267C103.768 47.88 103.342 47.9067 102.888 47.9067C102.422 47.9067 101.982 47.88 101.582 47.8267V48.8533ZM109.03 52.36H113.59V50.1333H110.177V43.92H111.817V45.7867H117.017V43.92H118.657V50.1333H115.244V52.36H119.844V53.7067H109.03V52.36ZM111.817 48.8133H117.017V47.0933H111.817V48.8133ZM129.145 43.1733H130.705V50.6667H129.145V47.48H128.199V50.2533H126.652V43.4H128.199V46.1467H129.145V43.1733ZM120.479 45.6933V44.4133H122.585V43.2933H124.212V44.4133H126.305V45.6933H120.479ZM120.839 48.1733C120.839 46.9467 121.919 46.0933 123.399 46.0933C124.905 46.0933 125.985 46.9467 125.985 48.1733C125.985 49.4133 124.905 50.2533 123.399 50.2533C121.919 50.2533 120.839 49.4133 120.839 48.1733ZM122.292 48.1733C122.292 48.7467 122.759 49.08 123.399 49.08C124.052 49.08 124.519 48.7467 124.519 48.1733C124.519 47.6 124.052 47.28 123.399 47.28C122.759 47.28 122.292 47.6 122.292 48.1733ZM122.572 52.96C122.572 51.5733 124.119 50.7867 126.679 50.7867C129.239 50.7867 130.772 51.5733 130.772 52.96C130.772 54.3333 129.239 55.12 126.679 55.12C124.119 55.12 122.572 54.3333 122.572 52.96ZM124.225 52.96C124.225 53.5867 125.065 53.88 126.679 53.88C128.292 53.88 129.119 53.5867 129.119 52.96C129.119 52.3067 128.292 52.0267 126.679 52.0267C125.065 52.0267 124.225 52.3067 124.225 52.96ZM140.354 43.16H142.007V55.1067H140.354V43.16ZM132.114 51.76C135.181 50.3067 136.514 48.3867 136.767 45.72H132.727V44.4H138.461C138.461 48.04 137.194 51.0267 132.967 53.0667L132.114 51.76Z" fill="#1A1A1A"/>
<rect width="68.3333" height="40" transform="translate(160.334 29)" fill="white"/>
<path d="M178.038 44.5067H184.558V45.3467H181.785V46.92C181.785 48.9067 183.251 50.9067 184.931 51.64L184.358 52.44C183.025 51.8133 181.838 50.4533 181.291 48.84C180.758 50.56 179.585 52.0533 178.251 52.72L177.678 51.9333C179.318 51.1333 180.785 48.9333 180.785 46.92V45.3467H178.038V44.5067ZM186.185 54.9733V43.3067H187.185V54.9733H186.185ZM189.567 44.32H195.82V45.1467H194.62V48.5867C195.22 48.5467 195.82 48.4933 196.38 48.4133L196.447 49.16C194.087 49.56 191.353 49.6 189.38 49.6L189.26 48.7467C189.727 48.7467 190.22 48.7467 190.753 48.7333V45.1467H189.567V44.32ZM190.713 52.8267C190.713 51.4933 192.167 50.72 194.527 50.72C196.913 50.72 198.353 51.4933 198.353 52.8267C198.353 54.1733 196.913 54.9467 194.527 54.9467C192.167 54.9467 190.713 54.1733 190.713 52.8267ZM191.7 52.8267C191.7 53.6533 192.767 54.16 194.527 54.16C196.3 54.16 197.38 53.6533 197.38 52.8267C197.38 52.0133 196.3 51.52 194.527 51.52C192.767 51.52 191.7 52.0133 191.7 52.8267ZM191.727 48.72C192.353 48.7067 193.007 48.6933 193.66 48.6533V45.1467H191.727V48.72ZM197.247 50.4667V43.3067H198.247V46.3467H199.993V47.1867H198.247V50.4667H197.247ZM209.255 43.2933H210.255V54.9867H209.255V43.2933ZM201.162 48.2667C201.162 45.7867 202.388 44.2133 204.122 44.2133C205.842 44.2133 207.068 45.7867 207.068 48.2667C207.068 50.7467 205.842 52.3333 204.122 52.3333C202.388 52.3333 201.162 50.7467 201.162 48.2667ZM202.135 48.2667C202.135 50.1733 202.948 51.44 204.122 51.44C205.282 51.44 206.108 50.1733 206.108 48.2667C206.108 46.36 205.282 45.1067 204.122 45.1067C202.948 45.1067 202.135 46.36 202.135 48.2667Z" fill="#1A1A1A"/>
<rect width="91.3333" height="40" transform="translate(228.666 29)" fill="white"/>
<path d="M254.021 43.2933H255.021V46.8667H256.768V47.6933H255.021V51.9067H254.021V43.2933ZM246.221 47C246.221 45.3067 247.515 44.1333 249.248 44.1333C250.981 44.1333 252.275 45.3067 252.275 47C252.275 48.68 250.981 49.8667 249.248 49.8667C247.515 49.8667 246.221 48.68 246.221 47ZM247.195 47C247.195 48.16 248.075 48.9867 249.248 48.9867C250.421 48.9867 251.315 48.16 251.315 47C251.315 45.84 250.421 45 249.248 45C248.075 45 247.195 45.84 247.195 47ZM247.795 54.7067V51.0267H248.781V53.88H255.568V54.7067H247.795ZM263.683 46.5467H266.083V43.32H267.083V51.8533H266.083V47.3733H263.683V46.5467ZM257.55 49.56C259.257 48.9467 260.51 47.4 260.51 45.72V45.0933H257.87V44.2667H264.097V45.0933H261.51V45.7067C261.51 47.2267 262.697 48.7067 264.363 49.2933L263.857 50.08C262.55 49.6 261.523 48.6133 261.03 47.4C260.537 48.7467 259.457 49.84 258.07 50.36L257.55 49.56ZM259.657 54.7067V51.1067H260.657V53.88H267.417V54.7067H259.657ZM270.412 51.3733H271.412V53.88H278.412V54.7067H270.412V51.3733ZM269.039 50.4133V49.6H273.812V47.5867H274.799V49.6H279.612V50.4133H269.039ZM269.745 47.5467C271.745 47.2 273.812 45.8133 273.812 44.1467V43.6133H274.812V44.1467C274.812 45.8133 276.879 47.2133 278.865 47.5467L278.465 48.3333C276.745 48 275.039 47 274.319 45.5867C273.599 47 271.879 48 270.145 48.3333L269.745 47.5467ZM280.834 44.0933H287.074V44.9067H284.461V45.3467C284.461 46.8667 285.621 48.24 287.314 48.7867L286.847 49.5733C285.501 49.12 284.474 48.1867 283.981 47C283.487 48.32 282.407 49.3333 281.021 49.8267L280.514 49.0267C282.247 48.44 283.474 47.0133 283.474 45.36V44.9067H280.834V44.0933ZM282.287 54.8133V50.2533H283.274V51.7067H288.621V50.2533H289.607V54.8133H282.287ZM283.274 54H288.621V52.5067H283.274V54ZM288.607 49.6933V43.3067H289.607V46.0133H291.354V46.8667H289.607V49.6933H288.607ZM300.616 43.2933H301.616V54.9867H300.616V43.2933ZM292.523 48.2667C292.523 45.7867 293.749 44.2133 295.482 44.2133C297.202 44.2133 298.429 45.7867 298.429 48.2667C298.429 50.7467 297.202 52.3333 295.482 52.3333C293.749 52.3333 292.523 50.7467 292.523 48.2667ZM293.496 48.2667C293.496 50.1733 294.309 51.44 295.482 51.44C296.643 51.44 297.469 50.1733 297.469 48.2667C297.469 46.36 296.643 45.1067 295.482 45.1067C294.309 45.1067 293.496 46.36 293.496 48.2667Z" fill="#1A1A1A"/>
<rect width="117.333" height="40" transform="translate(320 29)" fill="white"/>
</g>
<path d="M320.333 69V68.1667H57V69V69.8333H320.333V69Z" fill="#EEEEEE" mask="url(#path-9-outside-1_1101_59915)"/>
<mask id="path-16-outside-3_1101_59915" maskUnits="userSpaceOnUse" x="1" y="121" width="299" height="41" fill="black">
<rect fill="white" x="1" y="121" width="299" height="41"/>
<path d="M1 121H300V161H1V121Z"/>
</mask>
<path d="M300 161V160.167H1V161V161.833H300V161Z" fill="#EEEEEE" mask="url(#path-16-outside-3_1101_59915)"/>
<mask id="path-18-inside-4_1101_59915" fill="white">
<path d="M1 121H104.333V161H1V121Z"/>
</mask>
<path d="M1 121H104.333V161H1V121Z" fill="white"/>
<path d="M104.333 161V159.75H1V161V162.25H104.333V161Z" fill="#111111" mask="url(#path-18-inside-4_1101_59915)"/>
<path d="M21.2176 135.8H22.8976V136.8C22.8976 138.4 23.7109 139.88 25.5909 140.48L24.7242 141.773C23.4709 141.333 22.6042 140.507 22.0976 139.453C21.5642 140.68 20.6042 141.653 19.1909 142.133L18.3242 140.8C20.3376 140.147 21.2176 138.547 21.2176 136.88V135.8ZM20.2709 144.787C20.2709 143.347 21.8442 142.48 24.3642 142.48C26.8842 142.48 28.4442 143.347 28.4442 144.787C28.4442 146.267 26.8842 147.12 24.3642 147.12C21.8442 147.12 20.2709 146.267 20.2709 144.787ZM21.9376 144.787C21.9376 145.493 22.7776 145.853 24.3642 145.853C25.9376 145.853 26.8042 145.493 26.8042 144.787C26.8042 144.107 25.9376 143.76 24.3642 143.76C22.7776 143.76 21.9376 144.107 21.9376 144.787ZM24.5109 138.72V137.373H26.7376V135.173H28.4042V142.173H26.7376V138.72H24.5109ZM38.2129 135.173H39.8796V143.773H38.2129V135.173ZM30.1329 138.96C30.1329 137.187 31.5596 135.933 33.3729 135.933C35.1996 135.933 36.6129 137.187 36.6129 138.96C36.6129 140.707 35.1996 141.987 33.3729 141.987C31.5596 141.987 30.1329 140.707 30.1329 138.96ZM31.7462 138.96C31.7462 139.933 32.4662 140.547 33.3729 140.547C34.2929 140.547 34.9996 139.933 34.9996 138.96C34.9996 137.96 34.2929 137.36 33.3729 137.36C32.4662 137.36 31.7462 137.96 31.7462 138.96ZM31.9462 146.893V142.907H33.5862V145.573H40.1729V146.893H31.9462ZM41.4882 140.853H43.9415V139.4C43.0615 139.013 42.5682 138.413 42.5682 137.64C42.5682 136.213 44.2615 135.347 46.8882 135.347C49.5282 135.347 51.2082 136.213 51.2082 137.64C51.2082 138.427 50.7015 139.027 49.8082 139.413V140.853H52.2882V142.16H41.4882V140.853ZM42.7282 144.947C42.7282 143.587 44.2882 142.8 46.8615 142.8C49.4482 142.8 51.0082 143.587 51.0082 144.947C51.0082 146.347 49.4482 147.12 46.8615 147.12C44.2882 147.12 42.7282 146.347 42.7282 144.947ZM44.2749 137.64C44.2749 138.32 45.2215 138.667 46.8882 138.667C48.5415 138.667 49.5015 138.32 49.5015 137.64C49.5015 136.96 48.5415 136.6 46.8882 136.6C45.2215 136.6 44.2749 136.96 44.2749 137.64ZM44.3949 144.947C44.3949 145.573 45.2349 145.88 46.8615 145.88C48.5015 145.88 49.3415 145.573 49.3415 144.947C49.3415 144.333 48.5015 144.04 46.8615 144.04C45.2349 144.04 44.3949 144.333 44.3949 144.947ZM45.5815 140.853H48.1682V139.827C47.7682 139.88 47.3415 139.907 46.8882 139.907C46.4215 139.907 45.9815 139.88 45.5815 139.827V140.853ZM53.0302 144.36H57.5902V142.133H54.1768V135.92H55.8168V137.787H61.0168V135.92H62.6568V142.133H59.2435V144.36H63.8435V145.707H53.0302V144.36ZM55.8168 140.813H61.0168V139.093H55.8168V140.813ZM73.1455 135.173H74.7055V142.667H73.1455V139.48H72.1988V142.253H70.6522V135.4H72.1988V138.147H73.1455V135.173ZM64.4788 137.693V136.413H66.5855V135.293H68.2122V136.413H70.3055V137.693H64.4788ZM64.8388 140.173C64.8388 138.947 65.9188 138.093 67.3988 138.093C68.9055 138.093 69.9855 138.947 69.9855 140.173C69.9855 141.413 68.9055 142.253 67.3988 142.253C65.9188 142.253 64.8388 141.413 64.8388 140.173ZM66.2922 140.173C66.2922 140.747 66.7588 141.08 67.3988 141.08C68.0522 141.08 68.5188 140.747 68.5188 140.173C68.5188 139.6 68.0522 139.28 67.3988 139.28C66.7588 139.28 66.2922 139.6 66.2922 140.173ZM66.5722 144.96C66.5722 143.573 68.1188 142.787 70.6788 142.787C73.2388 142.787 74.7722 143.573 74.7722 144.96C74.7722 146.333 73.2388 147.12 70.6788 147.12C68.1188 147.12 66.5722 146.333 66.5722 144.96ZM68.2255 144.96C68.2255 145.587 69.0655 145.88 70.6788 145.88C72.2922 145.88 73.1188 145.587 73.1188 144.96C73.1188 144.307 72.2922 144.027 70.6788 144.027C69.0655 144.027 68.2255 144.307 68.2255 144.96ZM84.3541 135.16H86.0075V147.107H84.3541V135.16ZM76.1141 143.76C79.1808 142.307 80.5141 140.387 80.7675 137.72H76.7275V136.4H82.4608C82.4608 140.04 81.1941 143.027 76.9675 145.067L76.1141 143.76Z" fill="#1A1A1A"/>
<rect width="68.3333" height="40" transform="translate(104.334 121)" fill="white"/>
<path d="M122.038 136.507H128.558V137.347H125.785V138.92C125.785 140.907 127.251 142.907 128.931 143.64L128.358 144.44C127.025 143.813 125.838 142.453 125.291 140.84C124.758 142.56 123.585 144.053 122.251 144.72L121.678 143.933C123.318 143.133 124.785 140.933 124.785 138.92V137.347H122.038V136.507ZM130.185 146.973V135.307H131.185V146.973H130.185ZM133.567 136.32H139.82V137.147H138.62V140.587C139.22 140.547 139.82 140.493 140.38 140.413L140.447 141.16C138.087 141.56 135.353 141.6 133.38 141.6L133.26 140.747C133.727 140.747 134.22 140.747 134.753 140.733V137.147H133.567V136.32ZM134.713 144.827C134.713 143.493 136.167 142.72 138.527 142.72C140.913 142.72 142.353 143.493 142.353 144.827C142.353 146.173 140.913 146.947 138.527 146.947C136.167 146.947 134.713 146.173 134.713 144.827ZM135.7 144.827C135.7 145.653 136.767 146.16 138.527 146.16C140.3 146.16 141.38 145.653 141.38 144.827C141.38 144.013 140.3 143.52 138.527 143.52C136.767 143.52 135.7 144.013 135.7 144.827ZM135.727 140.72C136.353 140.707 137.007 140.693 137.66 140.653V137.147H135.727V140.72ZM141.247 142.467V135.307H142.247V138.347H143.993V139.187H142.247V142.467H141.247ZM153.255 135.293H154.255V146.987H153.255V135.293ZM145.162 140.267C145.162 137.787 146.388 136.213 148.122 136.213C149.842 136.213 151.068 137.787 151.068 140.267C151.068 142.747 149.842 144.333 148.122 144.333C146.388 144.333 145.162 142.747 145.162 140.267ZM146.135 140.267C146.135 142.173 146.948 143.44 148.122 143.44C149.282 143.44 150.108 142.173 150.108 140.267C150.108 138.36 149.282 137.107 148.122 137.107C146.948 137.107 146.135 138.36 146.135 140.267Z" fill="#1A1A1A"/>
<rect width="91.3333" height="40" transform="translate(172.666 121)" fill="white"/>
<path d="M198.021 135.293H199.021V138.867H200.768V139.693H199.021V143.907H198.021V135.293ZM190.221 139C190.221 137.307 191.515 136.133 193.248 136.133C194.981 136.133 196.275 137.307 196.275 139C196.275 140.68 194.981 141.867 193.248 141.867C191.515 141.867 190.221 140.68 190.221 139ZM191.195 139C191.195 140.16 192.075 140.987 193.248 140.987C194.421 140.987 195.315 140.16 195.315 139C195.315 137.84 194.421 137 193.248 137C192.075 137 191.195 137.84 191.195 139ZM191.795 146.707V143.027H192.781V145.88H199.568V146.707H191.795ZM207.683 138.547H210.083V135.32H211.083V143.853H210.083V139.373H207.683V138.547ZM201.55 141.56C203.257 140.947 204.51 139.4 204.51 137.72V137.093H201.87V136.267H208.097V137.093H205.51V137.707C205.51 139.227 206.697 140.707 208.363 141.293L207.857 142.08C206.55 141.6 205.523 140.613 205.03 139.4C204.537 140.747 203.457 141.84 202.07 142.36L201.55 141.56ZM203.657 146.707V143.107H204.657V145.88H211.417V146.707H203.657ZM214.412 143.373H215.412V145.88H222.412V146.707H214.412V143.373ZM213.039 142.413V141.6H217.812V139.587H218.799V141.6H223.612V142.413H213.039ZM213.745 139.547C215.745 139.2 217.812 137.813 217.812 136.147V135.613H218.812V136.147C218.812 137.813 220.879 139.213 222.865 139.547L222.465 140.333C220.745 140 219.039 139 218.319 137.587C217.599 139 215.879 140 214.145 140.333L213.745 139.547ZM224.834 136.093H231.074V136.907H228.461V137.347C228.461 138.867 229.621 140.24 231.314 140.787L230.847 141.573C229.501 141.12 228.474 140.187 227.981 139C227.487 140.32 226.407 141.333 225.021 141.827L224.514 141.027C226.247 140.44 227.474 139.013 227.474 137.36V136.907H224.834V136.093ZM226.287 146.813V142.253H227.274V143.707H232.621V142.253H233.607V146.813H226.287ZM227.274 146H232.621V144.507H227.274V146ZM232.607 141.693V135.307H233.607V138.013H235.354V138.867H233.607V141.693H232.607ZM244.616 135.293H245.616V146.987H244.616V135.293ZM236.523 140.267C236.523 137.787 237.749 136.213 239.482 136.213C241.202 136.213 242.429 137.787 242.429 140.267C242.429 142.747 241.202 144.333 239.482 144.333C237.749 144.333 236.523 142.747 236.523 140.267ZM237.496 140.267C237.496 142.173 238.309 143.44 239.482 143.44C240.643 143.44 241.469 142.173 241.469 140.267C241.469 138.36 240.643 137.107 239.482 137.107C238.309 137.107 237.496 138.36 237.496 140.267Z" fill="#1A1A1A"/>
<rect width="117.333" height="40" transform="translate(264 121)" fill="white"/>
<path d="M281.979 136.453H287.313V144.027H281.979V136.453ZM282.966 143.213H286.353V137.267H282.966V143.213ZM289.833 146.987V135.293H290.833V146.987H289.833ZM293.668 136.627H297.481V137.053C297.481 138.04 297.495 139.973 296.708 143.093L295.695 142.933C296.415 140.387 296.495 138.533 296.508 137.44H293.668V136.627ZM292.841 145.213V144.373H303.375V145.213H292.841ZM298.335 137.44V136.627H302.175V137.507C302.175 138.773 302.175 140.493 301.655 143.093L300.655 142.973C301.175 140.507 301.175 138.76 301.175 137.507V137.44H298.335ZM306.357 142.813H313.943V146.813H306.357V142.813ZM304.823 136.72V135.907H309.997V139.12H305.85V140.853C307.757 140.853 309.21 140.8 310.957 140.507L311.037 141.333C309.21 141.627 307.73 141.68 305.73 141.68H304.863V138.347H309.01V136.72H304.823ZM307.33 146H312.957V143.613H307.33V146ZM310.73 138.76V137.947H312.943V135.32H313.943V142.16H312.943V138.76H310.73ZM321.245 142.64C323.619 142.64 325.072 143.44 325.072 144.8C325.072 146.173 323.619 146.96 321.245 146.96C318.872 146.96 317.419 146.173 317.419 144.8C317.419 143.44 318.872 142.64 321.245 142.64ZM316.419 141.413V136.04H317.405V137.827H320.805V136.04H321.792V141.413H316.419ZM317.405 140.6H320.805V138.627H317.405V140.6ZM318.392 144.8C318.392 145.653 319.485 146.16 321.245 146.16C322.992 146.16 324.072 145.653 324.072 144.8C324.072 143.96 322.992 143.453 321.245 143.453C319.485 143.453 318.392 143.96 318.392 144.8ZM323.952 142.333V135.307H324.952V138.267H326.685V139.107H324.952V142.333H323.952ZM327.787 136.507H334.307V137.347H331.534V138.92C331.534 140.907 333.001 142.907 334.681 143.64L334.107 144.44C332.774 143.813 331.587 142.453 331.041 140.84C330.507 142.56 329.334 144.053 328.001 144.72L327.427 143.933C329.067 143.133 330.534 140.933 330.534 138.92V137.347H327.787V136.507ZM335.934 146.973V135.307H336.934V146.973H335.934ZM345.17 136C346.917 136 348.197 137.12 348.197 138.747C348.197 140.373 346.917 141.48 345.17 141.48C343.41 141.48 342.144 140.373 342.144 138.747C342.144 137.12 343.41 136 345.17 136ZM343.117 138.747C343.117 139.867 343.984 140.64 345.17 140.64C346.357 140.64 347.237 139.867 347.237 138.747C347.237 137.627 346.357 136.853 345.17 136.853C343.984 136.853 343.117 137.627 343.117 138.747ZM343.424 144.773C343.424 143.4 344.877 142.6 347.25 142.6C349.61 142.6 351.064 143.4 351.064 144.773C351.064 146.147 349.61 146.947 347.25 146.947C344.877 146.947 343.424 146.147 343.424 144.773ZM344.397 144.773C344.397 145.627 345.49 146.147 347.25 146.147C348.997 146.147 350.077 145.627 350.077 144.773C350.077 143.92 348.997 143.413 347.25 143.413C345.49 143.413 344.397 143.92 344.397 144.773ZM349.944 142.227V135.307H350.944V137.08H352.664V137.92H350.944V139.56H352.664V140.4H350.944V142.227H349.944ZM361.486 135.307H362.486V137.853H364.219V138.68H362.486V141.253H361.486V135.307ZM353.952 140.627V135.973H359.286V140.627H353.952ZM354.926 139.827H358.312V136.773H354.926V139.827ZM355.112 142.613V141.813H362.486V144.64H356.126V146H362.912V146.813H355.139V143.88H361.499V142.613H355.112Z" fill="#1A1A1A"/>
<rect x="1" y="121" width="299" height="40" fill="#1477F8" fill-opacity="0.15"/>
<defs>
<clipPath id="clip0_1101_59915">
<path d="M57 29H320.333V69H57V29Z" fill="white"/>
</clipPath>
</defs>
</svg>
