<svg width="302" height="48" viewBox="0 0 302 48" fill="none" xmlns="http://www.w3.org/2000/svg">
<path d="M6 0.5H296C299.038 0.5 301.5 2.96243 301.5 6V42C301.5 45.0376 299.038 47.5 296 47.5H6C2.96243 47.5 0.5 45.0376 0.5 42V6C0.5 2.96243 2.96243 0.5 6 0.5Z" fill="white"/>
<path d="M6 0.5H296C299.038 0.5 301.5 2.96243 301.5 6V42C301.5 45.0376 299.038 47.5 296 47.5H6C2.96243 47.5 0.5 45.0376 0.5 42V6C0.5 2.96243 2.96243 0.5 6 0.5Z" stroke="#E0E0E0"/>
<path d="M17.744 24.4C19.088 24.4 20.16 23.296 20.16 21.984C20.16 20.64 19.072 19.568 17.728 19.568H14.464L14.48 24.4H17.744ZM13.328 30V18.448H17.776C19.728 18.448 21.28 20.032 21.28 21.984C21.28 23.92 19.728 25.52 17.776 25.52H14.48V30H13.328ZM22.7334 18.128H23.8854V30H22.7334V18.128ZM29.186 28.96C30.626 28.96 31.922 27.792 31.938 26C31.922 24.224 30.626 23.04 29.186 23.04C27.41 23.04 26.45 24.32 26.45 26C26.45 27.68 27.41 28.96 29.186 28.96ZM25.298 26C25.298 23.776 26.69 21.904 29.17 21.904C30.114 21.904 31.17 22.4 31.906 23.584V21.856H33.058V30H31.906V28.4C31.138 29.648 30.13 30.112 29.17 30.112C26.69 30.112 25.298 28.208 25.298 26ZM38.517 28.928C39.349 28.928 40.117 28.608 40.661 28.064L41.525 28.832C40.757 29.6 39.733 30.08 38.581 30.08C35.957 30.08 34.437 28.144 34.437 25.792C34.437 23.456 35.957 21.52 38.581 21.52C39.733 21.52 40.757 22 41.525 22.768L40.661 23.536C40.117 22.992 39.349 22.672 38.517 22.672C36.629 22.672 35.589 24.064 35.589 25.792C35.589 27.536 36.629 28.928 38.517 28.928ZM48.6614 25.36C48.5334 24.208 47.9734 22.976 46.2454 22.976C44.7254 22.976 43.7494 23.792 43.5414 25.376L48.6614 25.36ZM42.3574 25.936C42.3574 23.696 43.7014 21.824 46.1974 21.824C48.7894 21.824 49.4454 23.84 49.5254 24.032C50.0054 25.344 49.8134 26.496 49.8134 26.496H43.5414C43.7494 28 44.7254 28.896 46.2134 28.896C48.0534 28.896 48.5014 27.888 48.6134 27.728L49.6054 28.256C49.6054 28.256 48.9334 30.048 46.1974 30.048C43.7014 30.048 42.3574 28.16 42.3574 25.936ZM57.098 25.424C57.098 23.904 56.234 23.024 55.018 23.024C53.754 23.024 52.65 24.208 52.65 25.744V30H51.498V18.128H52.65V23.392C53.05 22.56 53.962 21.904 55.066 21.904C56.714 21.904 58.25 23.312 58.25 25.36V30H57.098V25.424ZM63.9137 28.944C65.7057 28.944 66.6497 27.632 66.6497 25.936C66.6497 24.24 65.7057 22.928 63.9137 22.928C62.1057 22.928 61.1937 24.24 61.1937 25.936C61.1937 27.632 62.1057 28.944 63.9137 28.944ZM60.0417 25.936C60.0417 23.712 61.4177 21.808 63.9137 21.808C66.4257 21.808 67.8017 23.712 67.8017 25.936C67.8017 28.16 66.4257 30.064 63.9137 30.064C61.4177 30.064 60.0417 28.16 60.0417 25.936ZM69.2084 18.128H70.3604V30H69.2084V18.128ZM75.661 30.128C73.181 30.128 71.773 28.224 71.773 25.984C71.773 23.76 73.181 21.84 75.661 21.84C76.701 21.84 77.789 22.368 78.461 23.584V18.128H79.613V30H78.461V28.384C77.773 29.6 76.701 30.128 75.661 30.128ZM72.925 25.984C72.925 27.696 73.901 28.976 75.709 28.976C77.181 28.976 78.461 27.696 78.461 25.984C78.461 24.288 77.181 22.992 75.709 22.992C73.901 22.992 72.925 24.288 72.925 25.984ZM87.4739 25.36C87.3459 24.208 86.7859 22.976 85.0579 22.976C83.5379 22.976 82.5619 23.792 82.3539 25.376L87.4739 25.36ZM81.1699 25.936C81.1699 23.696 82.5139 21.824 85.0099 21.824C87.6019 21.824 88.2579 23.84 88.3379 24.032C88.8179 25.344 88.6259 26.496 88.6259 26.496H82.3539C82.5619 28 83.5379 28.896 85.0259 28.896C86.8659 28.896 87.3139 27.888 87.4259 27.728L88.4179 28.256C88.4179 28.256 87.7459 30.048 85.0099 30.048C82.5139 30.048 81.1699 28.16 81.1699 25.936ZM91.2865 23.568C91.7505 22.496 93.0785 21.776 94.1825 21.776V22.96C92.6945 22.96 91.2865 24.512 91.2865 25.808V30H90.1345V21.856H91.2865V23.568Z" fill="#BDBDBD"/>
<path fill-rule="evenodd" clip-rule="evenodd" d="M271.293 20.2929C271.683 19.9024 272.317 19.9024 272.707 20.2929L278 25.5858L283.293 20.2929C283.683 19.9024 284.317 19.9024 284.707 20.2929C285.098 20.6834 285.098 21.3166 284.707 21.7071L278.707 27.7071C278.317 28.0976 277.683 28.0976 277.293 27.7071L271.293 21.7071C270.902 21.3166 270.902 20.6834 271.293 20.2929Z" fill="#616161"/>
</svg>
