<svg width="224" height="94" viewBox="0 0 224 94" fill="none" xmlns="http://www.w3.org/2000/svg">
<rect x="41.8159" y="35.8677" width="180.758" height="56.5731" rx="6.20924" stroke="#E0E0E0" stroke-width="1.37983"/>
<mask id="path-2-inside-1_1429_48378" fill="white">
<path d="M42.5059 42.0769C42.5059 39.0287 44.9769 36.5576 48.0252 36.5576H103.218V91.7509H48.0252C44.9769 91.7509 42.5059 89.2798 42.5059 86.2316V42.0769Z"/>
</mask>
<path d="M42.5059 42.0769C42.5059 39.0287 44.9769 36.5576 48.0252 36.5576H103.218V91.7509H48.0252C44.9769 91.7509 42.5059 89.2798 42.5059 86.2316V42.0769Z" fill="white"/>
<path d="M42.5059 36.5576H103.218H42.5059ZM103.218 91.7509H42.5059H103.218ZM42.5059 91.7509V36.5576V91.7509ZM104.598 36.5576V91.7509H101.839V36.5576H104.598Z" fill="#E0E0E0" mask="url(#path-2-inside-1_1429_48378)"/>
<path d="M81.8242 63.3086C82.346 63.3617 82.7529 63.8021 82.7529 64.3379C82.7527 64.8735 82.3458 65.3141 81.8242 65.3672L81.7178 65.373H64.3691C63.7978 65.373 63.3342 64.9092 63.334 64.3379C63.334 63.7664 63.7977 63.3028 64.3691 63.3027H81.7178L81.8242 63.3086Z" fill="#333333"/>
<mask id="path-5-inside-2_1429_48378" fill="white">
<path d="M103.219 36.5576H161.172V91.7509H103.219V36.5576Z"/>
</mask>
<path d="M103.219 36.5576H161.172V91.7509H103.219V36.5576Z" fill="white"/>
<path d="M161.172 36.5576H159.792V91.7509H161.172H162.552V36.5576H161.172Z" fill="#E0E0E0" mask="url(#path-5-inside-2_1429_48378)"/>
<path d="M127.02 69.9245C130.221 66.8337 134.659 63.9415 134.659 61.204C134.659 59.1949 133.378 58.2897 131.855 58.2897C130.795 58.2897 129.559 58.6651 128.808 60.3429L126.711 59.4157C127.925 56.6781 130.376 55.9937 131.855 55.9937C134.305 55.9937 136.955 57.8924 136.955 61.204C136.955 64.5597 133.422 67.4077 130.486 69.9245H137.198V72.2205H127.02V69.9245Z" fill="#1A1A1A"/>
<path d="M216.365 36.5576C219.413 36.5577 221.885 39.0289 221.885 42.0771V86.2314C221.885 89.2797 219.413 91.7509 216.365 91.751H161.172V36.5576H216.365Z" fill="white"/>
<path d="M216.365 36.5576C219.413 36.5577 221.885 39.0289 221.885 42.0771V86.2314C221.885 89.2797 219.413 91.7509 216.365 91.751H161.172V36.5576H216.365Z" stroke="#E0E0E0"/>
<path d="M191.714 54.6289C192.285 54.6289 192.749 55.0925 192.749 55.6641V63.3037H200.388L200.494 63.3096C201.016 63.3628 201.423 63.8032 201.423 64.3389C201.423 64.8745 201.016 65.3149 200.494 65.3682L200.388 65.374H192.749V73.0127L192.743 73.1191C192.69 73.6407 192.25 74.0479 191.714 74.0479C191.178 74.0478 190.738 73.6407 190.685 73.1191L190.679 73.0127V65.374H183.039C182.468 65.374 182.004 64.9104 182.004 64.3389C182.004 63.7673 182.468 63.3037 183.039 63.3037H190.679V55.6641C190.679 55.0925 191.142 54.6289 191.714 54.6289Z" fill="#333333"/>
<rect y="55.4717" width="16.558" height="16.558" rx="8.27899" fill="#333333"/>
<path d="M5.46369 66.4705C7.08638 64.914 9.2058 63.6667 9.2058 62.3531C9.2058 61.3927 8.62075 60.9843 7.8922 60.9843C7.41754 60.9843 6.82145 61.1609 6.45717 61.9557L5.25396 61.4148C5.88316 60.0129 7.17469 59.6596 7.8922 59.6596C9.13957 59.6596 10.5304 60.631 10.5304 62.3531C10.5304 64.0199 8.90775 65.3114 7.49481 66.4705H10.6519V67.7951H5.46369V66.4705Z" fill="white"/>
<path d="M55.1934 60.0714C53.1612 60.0714 51.5138 61.7188 51.5138 63.751C51.5138 65.7831 53.1612 67.4305 55.1934 67.4305C57.2255 67.4305 58.8729 65.7831 58.8729 63.751C58.8729 61.7188 57.2255 60.0714 55.1934 60.0714ZM55.1934 63.751V63.0611H16.5581V63.751V64.4409H55.1934V63.751Z" fill="#333333"/>
<rect x="122.604" width="16.558" height="16.558" rx="8.27899" fill="#333333"/>
<path d="M132.048 4.26523V12.3235L130.723 12.3124V5.72234L129.277 6.38465L128.78 5.1704L130.723 4.26523H132.048Z" fill="white"/>
<path d="M134.562 44.5967C134.562 42.5645 132.915 40.9171 130.883 40.9171C128.851 40.9171 127.203 42.5645 127.203 44.5967C127.203 46.6288 128.851 48.2762 130.883 48.2762C132.915 48.2762 134.562 46.6288 134.562 44.5967ZM130.883 44.5967L131.573 44.5967L131.573 16.558L130.883 16.558L130.193 16.558L130.193 44.5967L130.883 44.5967Z" fill="#333333"/>
</svg>
