<svg width="648" height="188" viewBox="0 0 648 188" fill="none" xmlns="http://www.w3.org/2000/svg">
<rect x="374.707" y="30.9406" width="207.251" height="114.802" fill="white"/>
<rect x="374.707" y="30.9406" width="207.251" height="114.802" stroke="#0D69D4" stroke-width="1.10387"/>
<path d="M387.038 45.7824V53.5895H391.516V54.4277H386.176V45.7824H387.038ZM394.987 53.6494C396.065 53.6494 397.035 52.7753 397.047 51.4342C397.035 50.1051 396.065 49.219 394.987 49.219C393.658 49.219 392.94 50.1769 392.94 51.4342C392.94 52.6915 393.658 53.6494 394.987 53.6494ZM392.077 51.4342C392.077 49.7698 393.119 48.3688 394.975 48.3688C395.682 48.3688 396.472 48.74 397.023 49.6261V48.3329H397.885V54.4277H397.023V53.2303C396.448 54.1643 395.694 54.5116 394.975 54.5116C393.119 54.5116 392.077 53.0866 392.077 51.4342ZM402.33 53.6734C403.683 53.6734 404.413 52.7035 404.413 51.4222C404.413 50.153 403.683 49.1711 402.33 49.1711C401.216 49.1711 400.27 50.153 400.27 51.4222C400.27 52.7035 401.216 53.6734 402.33 53.6734ZM399.408 54.4277V45.5429H400.27V49.6141C400.833 48.6323 401.671 48.3329 402.354 48.3329C404.233 48.3329 405.275 49.7578 405.275 51.4222C405.275 53.0986 404.221 54.5235 402.342 54.5235C401.671 54.5235 400.833 54.2361 400.27 53.2303V54.4277H399.408ZM410.919 50.9552C410.823 50.0931 410.404 49.1711 409.111 49.1711C407.973 49.1711 407.243 49.7818 407.087 50.9672L410.919 50.9552ZM406.201 51.3863C406.201 49.7099 407.207 48.309 409.075 48.309C411.014 48.309 411.505 49.8177 411.565 49.9614C411.925 50.9433 411.781 51.8054 411.781 51.8054H407.087C407.243 52.931 407.973 53.6015 409.087 53.6015C410.464 53.6015 410.799 52.8471 410.883 52.7274L411.625 53.1226C411.625 53.1226 411.122 54.4637 409.075 54.4637C407.207 54.4637 406.201 53.0507 406.201 51.3863ZM412.874 45.5429H413.736V54.4277H412.874V45.5429Z" fill="#616161"/>
<path d="M388.448 65.7881H568.217C569.808 65.7883 571.097 67.0776 571.097 68.668V104.069C571.097 105.66 569.808 106.949 568.217 106.949H388.448C386.857 106.949 385.568 105.66 385.568 104.069V68.668C385.568 67.0776 386.857 65.7883 388.448 65.7881Z" fill="white"/>
<path d="M388.448 65.7881H568.217C569.808 65.7883 571.097 67.0776 571.097 68.668V104.069C571.097 105.66 569.808 106.949 568.217 106.949H388.448C386.857 106.949 385.568 105.66 385.568 104.069V68.668C385.568 67.0776 386.857 65.7883 388.448 65.7881Z" stroke="#E0E0E0" stroke-width="0.748383"/>
<path d="M399.01 86.6739C400.142 86.6739 401.044 85.7444 401.044 84.6397C401.044 83.5082 400.128 82.6056 398.997 82.6056H396.249L396.262 86.6739H399.01ZM395.292 91.3887V81.6627H399.037C400.681 81.6627 401.987 82.9963 401.987 84.6397C401.987 86.2697 400.681 87.6168 399.037 87.6168H396.262V91.3887H395.292ZM403.225 81.3933H404.195V91.3887H403.225V81.3933ZM408.672 90.5131C409.884 90.5131 410.975 89.5297 410.989 88.0209C410.975 86.5257 409.884 85.5288 408.672 85.5288C407.177 85.5288 406.368 86.6065 406.368 88.0209C406.368 89.4354 407.177 90.5131 408.672 90.5131ZM405.398 88.0209C405.398 86.1485 406.57 84.5724 408.658 84.5724C409.453 84.5724 410.342 84.99 410.962 85.9868V84.532H411.932V91.3887H410.962V90.0416C410.315 91.0923 409.467 91.483 408.658 91.483C406.57 91.483 405.398 89.8799 405.398 88.0209ZM416.542 90.4861C417.242 90.4861 417.889 90.2167 418.347 89.7587L419.074 90.4053C418.428 91.0519 417.566 91.456 416.596 91.456C414.387 91.456 413.107 89.826 413.107 87.8458C413.107 85.8791 414.387 84.2491 416.596 84.2491C417.566 84.2491 418.428 84.6532 419.074 85.2998L418.347 85.9464C417.889 85.4884 417.242 85.219 416.542 85.219C414.952 85.219 414.077 86.391 414.077 87.8458C414.077 89.3142 414.952 90.4861 416.542 90.4861ZM425.097 87.4821C424.989 86.5122 424.518 85.4749 423.063 85.4749C421.783 85.4749 420.961 86.162 420.786 87.4956L425.097 87.4821ZM419.789 87.9671C419.789 86.0811 420.921 84.505 423.022 84.505C425.205 84.505 425.757 86.2024 425.824 86.364C426.228 87.4686 426.067 88.4385 426.067 88.4385H420.786C420.961 89.7048 421.783 90.4592 423.036 90.4592C424.585 90.4592 424.962 89.6105 425.056 89.4758L425.892 89.9203C425.892 89.9203 425.326 91.4291 423.022 91.4291C420.921 91.4291 419.789 89.8395 419.789 87.9671ZM432.214 87.536C432.214 86.2563 431.486 85.5154 430.463 85.5154C429.398 85.5154 428.469 86.5122 428.469 87.8054V91.3887H427.499V81.3933H428.469V85.8252C428.806 85.1247 429.574 84.5724 430.503 84.5724C431.891 84.5724 433.184 85.7578 433.184 87.4821V91.3887H432.214V87.536ZM437.966 90.4996C439.475 90.4996 440.27 89.395 440.27 87.9671C440.27 86.5391 439.475 85.4345 437.966 85.4345C436.444 85.4345 435.676 86.5391 435.676 87.9671C435.676 89.395 436.444 90.4996 437.966 90.4996ZM434.706 87.9671C434.706 86.0946 435.865 84.4916 437.966 84.4916C440.081 84.4916 441.24 86.0946 441.24 87.9671C441.24 89.8395 440.081 91.4426 437.966 91.4426C435.865 91.4426 434.706 89.8395 434.706 87.9671ZM442.438 81.3933H443.408V91.3887H442.438V81.3933ZM447.885 91.4964C445.797 91.4964 444.611 89.8934 444.611 88.0075C444.611 86.135 445.797 84.5185 447.885 84.5185C448.76 84.5185 449.676 84.9631 450.242 85.9868V81.3933H451.212V91.3887H450.242V90.0281C449.663 91.0519 448.76 91.4964 447.885 91.4964ZM445.581 88.0075C445.581 89.4489 446.403 90.5265 447.925 90.5265C449.164 90.5265 450.242 89.4489 450.242 88.0075C450.242 86.5796 449.164 85.4884 447.925 85.4884C446.403 85.4884 445.581 86.5796 445.581 88.0075ZM457.844 87.4821C457.737 86.5122 457.265 85.4749 455.81 85.4749C454.531 85.4749 453.709 86.162 453.534 87.4956L457.844 87.4821ZM452.537 87.9671C452.537 86.0811 453.668 84.505 455.77 84.505C457.952 84.505 458.505 86.2024 458.572 86.364C458.976 87.4686 458.814 88.4385 458.814 88.4385H453.534C453.709 89.7048 454.531 90.4592 455.783 90.4592C457.333 90.4592 457.71 89.6105 457.804 89.4758L458.639 89.9203C458.639 89.9203 458.073 91.4291 455.77 91.4291C453.668 91.4291 452.537 89.8395 452.537 87.9671ZM461.068 85.9734C461.459 85.0708 462.577 84.4646 463.507 84.4646V85.4615C462.254 85.4615 461.068 86.7682 461.068 87.8593V91.3887H460.099V84.532H461.068V85.9734Z" fill="#BDBDBD"/>
<path fill-rule="evenodd" clip-rule="evenodd" d="M548.49 83.5942C548.782 83.3019 549.256 83.3019 549.549 83.5942L553.51 87.5553L557.471 83.5942C557.763 83.3019 558.237 83.3019 558.529 83.5942C558.821 83.8865 558.821 84.3603 558.529 84.6526L554.039 89.1429C553.747 89.4351 553.273 89.4351 552.98 89.1429L548.49 84.6526C548.198 84.3603 548.198 83.8865 548.49 83.5942Z" fill="#616161"/>
<path fill-rule="evenodd" clip-rule="evenodd" d="M400.933 117.591C401.152 117.81 401.152 118.166 400.933 118.385L392.326 126.991C392.107 127.211 391.752 127.211 391.532 126.991L387.416 122.875C387.197 122.656 387.197 122.301 387.416 122.081C387.636 121.862 387.991 121.862 388.21 122.081L391.929 125.801L400.139 117.591C400.358 117.372 400.713 117.372 400.933 117.591Z" fill="#999999"/>
<path d="M412.519 118.726V126.291H411.764V122.771H407.783V126.291H407.029V118.726H407.783V122.037H411.764V118.726H412.519ZM417.872 123.253C417.788 122.498 417.421 121.691 416.29 121.691C415.294 121.691 414.655 122.226 414.519 123.263L417.872 123.253ZM413.744 123.63C413.744 122.163 414.624 120.937 416.258 120.937C417.955 120.937 418.385 122.257 418.437 122.383C418.752 123.242 418.626 123.996 418.626 123.996H414.519C414.655 124.981 415.294 125.568 416.269 125.568C417.473 125.568 417.767 124.908 417.84 124.803L418.49 125.149C418.49 125.149 418.05 126.322 416.258 126.322C414.624 126.322 413.744 125.086 413.744 123.63ZM419.568 118.517H420.323V126.291H419.568V118.517ZM424.257 125.641C425.409 125.641 426.059 124.782 426.059 123.661C426.059 122.561 425.409 121.702 424.257 121.702C423.293 121.702 422.465 122.561 422.465 123.661C422.465 124.782 423.293 125.641 424.257 125.641ZM421.7 128.701V120.958H422.455V122.09C422.8 121.335 423.618 120.969 424.267 120.969C425.902 120.969 426.813 122.215 426.813 123.661C426.813 125.128 425.902 126.375 424.267 126.375C423.597 126.375 422.8 125.924 422.455 125.243V128.701H421.7ZM437.272 123.022C437.272 122.173 436.758 121.691 436.004 121.691C435.302 121.691 434.579 122.352 434.579 123.022V126.291H433.825V123.022C433.825 122.352 433.395 121.691 432.578 121.691C431.834 121.691 431.142 122.352 431.142 123.106V126.291H430.388V120.958H431.142V121.88C431.478 121.304 431.97 120.958 432.609 120.958C433.385 120.958 433.898 121.293 434.275 122.027C434.663 121.482 435.197 120.958 436.035 120.958C437.125 120.958 438.026 121.838 438.026 122.938V126.291H437.272V123.022ZM443.227 123.253C443.144 122.498 442.777 121.691 441.645 121.691C440.65 121.691 440.011 122.226 439.875 123.263L443.227 123.253ZM439.099 123.63C439.099 122.163 439.979 120.937 441.614 120.937C443.311 120.937 443.741 122.257 443.793 122.383C444.108 123.242 443.982 123.996 443.982 123.996H439.875C440.011 124.981 440.65 125.568 441.624 125.568C442.829 125.568 443.123 124.908 443.196 124.803L443.846 125.149C443.846 125.149 443.406 126.322 441.614 126.322C439.979 126.322 439.099 125.086 439.099 123.63ZM445.49 124.845C445.7 125.327 446.192 125.61 446.831 125.579C447.753 125.558 448.12 124.416 447.177 124.112C446.831 124.007 446.203 123.839 445.689 123.504C444.893 122.97 444.903 122.184 445.144 121.702C445.469 121.063 446.297 120.874 446.779 120.916C447.229 120.969 447.858 121.126 448.256 121.66L447.648 122.1C447.428 121.796 447.072 121.702 446.716 121.66C446.391 121.629 445.962 121.744 445.804 122.037C445.668 122.32 445.679 122.603 446.108 122.886C446.517 123.158 447.041 123.284 447.407 123.41C449.168 123.976 448.602 126.281 446.852 126.322C445.972 126.364 445.134 125.903 444.809 125.139L445.49 124.845ZM449.829 124.845C450.038 125.327 450.531 125.61 451.17 125.579C452.092 125.558 452.458 124.416 451.515 124.112C451.17 124.007 450.541 123.839 450.028 123.504C449.231 122.97 449.242 122.184 449.483 121.702C449.808 121.063 450.635 120.874 451.117 120.916C451.568 120.969 452.197 121.126 452.595 121.66L451.987 122.1C451.767 121.796 451.411 121.702 451.054 121.66C450.73 121.629 450.3 121.744 450.143 122.037C450.007 122.32 450.017 122.603 450.447 122.886C450.855 123.158 451.379 123.284 451.746 123.41C453.506 123.976 452.94 126.281 451.191 126.322C450.311 126.364 449.472 125.903 449.148 125.139L449.829 124.845ZM456.247 125.61C457.19 125.61 458.039 124.845 458.049 123.672C458.039 122.509 457.19 121.733 456.247 121.733C455.084 121.733 454.455 122.572 454.455 123.672C454.455 124.772 455.084 125.61 456.247 125.61ZM453.701 123.672C453.701 122.215 454.613 120.989 456.237 120.989C456.855 120.989 457.546 121.314 458.028 122.09V120.958H458.783V126.291H458.028V125.243C457.525 126.061 456.865 126.364 456.237 126.364C454.613 126.364 453.701 125.118 453.701 123.672ZM462.438 125.631C463.433 125.631 464.219 124.761 464.219 123.672C464.219 122.603 463.422 121.733 462.438 121.733C461.348 121.733 460.646 122.498 460.646 123.672C460.646 124.866 461.348 125.631 462.438 125.631ZM459.892 123.672C459.892 122.09 460.929 121 462.427 121C463.223 121 463.904 121.419 464.219 122.1V120.958H464.973V126.029C464.952 127.726 463.967 128.69 462.27 128.69C461.421 128.69 460.677 128.25 460.133 127.433L460.772 127.024C461.159 127.632 461.662 127.936 462.27 127.936C463.569 127.936 464.208 127.307 464.219 126.019V125.222C463.852 125.882 463.108 126.364 462.427 126.364C460.929 126.364 459.892 125.264 459.892 123.672ZM469.995 123.253C469.912 122.498 469.545 121.691 468.413 121.691C467.418 121.691 466.779 122.226 466.643 123.263L469.995 123.253ZM465.867 123.63C465.867 122.163 466.747 120.937 468.382 120.937C470.079 120.937 470.509 122.257 470.561 122.383C470.875 123.242 470.75 123.996 470.75 123.996H466.643C466.779 124.981 467.418 125.568 468.392 125.568C469.597 125.568 469.891 124.908 469.964 124.803L470.613 125.149C470.613 125.149 470.173 126.322 468.382 126.322C466.747 126.322 465.867 125.086 465.867 123.63Z" fill="#616161"/>
<path d="M576.714 154.987L379.122 154.987" stroke="black" stroke-width="1.10387"/>
<path d="M379.123 152.228V157.747" stroke="black" stroke-width="1.10387"/>
<path d="M576.714 152.228V157.747" stroke="black" stroke-width="1.10387"/>
<rect x="447.01" y="161.059" width="61.8165" height="23.1812" rx="4.41546" fill="#333333"/>
<path d="M463.004 167.634V168.702H458.248V171.62H462.135V172.688H458.248V176.699H457.155V167.634H463.004ZM464.257 167.385H465.35V176.699H464.257V167.385ZM471.377 173.011C471.278 172.142 470.806 171.309 469.577 171.309C468.496 171.309 467.739 171.881 467.59 173.023L471.377 173.011ZM466.509 173.495C466.509 171.744 467.59 170.266 469.552 170.266C471.588 170.266 472.135 171.868 472.185 172.005C472.57 173.011 472.445 174.004 472.445 174.004H467.59C467.764 175.047 468.471 175.681 469.564 175.681C470.905 175.681 471.228 174.948 471.29 174.849L472.247 175.321C472.247 175.321 471.7 176.724 469.552 176.724C467.59 176.724 466.509 175.246 466.509 173.495ZM479.163 170.291L476.754 173.495L479.151 176.687H477.785L476.146 174.414L474.519 176.687H473.153L475.525 173.495L473.128 170.291H474.494L476.146 172.601L477.797 170.291H479.163ZM480.621 170.279H481.714V176.699H480.621V170.279ZM480.509 167.956C480.509 167.609 480.745 167.323 481.167 167.323C481.577 167.323 481.813 167.609 481.813 167.956C481.813 168.329 481.577 168.615 481.167 168.615C480.745 168.615 480.509 168.329 480.509 167.956ZM486.537 175.668C487.829 175.668 488.537 174.762 488.537 173.532C488.537 172.315 487.829 171.396 486.537 171.396C485.469 171.396 484.538 172.291 484.538 173.532C484.538 174.787 485.469 175.668 486.537 175.668ZM483.445 176.649V167.385H484.538V171.545C485.109 170.626 485.941 170.328 486.599 170.328C488.549 170.328 489.629 171.806 489.629 173.532C489.629 175.271 488.537 176.749 486.587 176.749C485.941 176.749 485.109 176.488 484.538 175.519V176.649H483.445ZM490.792 167.385H491.884V176.699H490.792V167.385ZM497.912 173.011C497.813 172.142 497.341 171.309 496.111 171.309C495.031 171.309 494.274 171.881 494.125 173.023L497.912 173.011ZM493.044 173.495C493.044 171.744 494.125 170.266 496.087 170.266C498.123 170.266 498.67 171.868 498.719 172.005C499.104 173.011 498.98 174.004 498.98 174.004H494.125C494.298 175.047 495.006 175.681 496.099 175.681C497.44 175.681 497.763 174.948 497.825 174.849L498.781 175.321C498.781 175.321 498.235 176.724 496.087 176.724C494.125 176.724 493.044 175.246 493.044 173.495Z" fill="white"/>
<path d="M591.617 69.0234V109.866" stroke="black" stroke-width="1.10387"/>
<path d="M588.857 109.866L594.376 109.866" stroke="black" stroke-width="1.10387"/>
<path d="M588.857 69.0234L594.376 69.0234" stroke="black" stroke-width="1.10387"/>
<rect x="597.688" y="77.4453" width="50.0387" height="24" rx="4.41546" fill="#333333"/>
<path d="M608.932 84.4667V90.0675H610.174V91.1355H608.932V93.4577H607.839V91.1355H603.803V90.0675L607.876 84.4667H608.932ZM605.119 90.0675H607.839V86.3171L605.119 90.0675ZM614.363 92.5388C615.494 92.5388 616.264 91.7191 616.264 90.8995C616.264 90.0923 615.494 89.2851 614.363 89.2851C613.246 89.2851 612.463 90.0923 612.463 90.8995C612.463 91.7191 613.233 92.5388 614.363 92.5388ZM611.371 90.8995C611.371 89.9681 612.041 89.1734 612.848 88.7139C612.19 88.2668 611.619 87.5838 611.619 86.7766C611.619 85.336 612.935 84.3053 614.363 84.3053C615.804 84.3053 617.133 85.336 617.133 86.7766C617.133 87.5838 616.562 88.2668 615.903 88.7139C616.698 89.1734 617.356 89.9681 617.356 90.8995C617.356 92.4518 615.941 93.5943 614.363 93.5943C612.786 93.5943 611.371 92.4518 611.371 90.8995ZM612.712 86.7642C612.712 87.4596 613.382 88.155 614.363 88.155C615.357 88.155 616.04 87.4596 616.04 86.7642C616.04 86.0563 615.357 85.3609 614.363 85.3609C613.382 85.3609 612.712 86.0563 612.712 86.7642ZM618.898 88.9001C619.395 87.708 620.5 87.4472 621.021 87.472C621.704 87.5217 622.114 87.8073 622.226 87.8818L623.282 88.54C623.443 88.6394 623.58 88.7635 623.927 88.776C624.238 88.7884 624.71 88.689 624.958 88.0433L626.014 88.4531C625.554 89.6577 624.412 89.9309 623.865 89.906C623.207 89.8688 622.785 89.5583 622.685 89.4962L621.63 88.8381C621.456 88.7387 621.332 88.6269 620.959 88.6021C620.661 88.5897 620.202 88.7014 619.941 89.3348L618.898 88.9001ZM629.075 89.3224L627.982 89.2851L628.156 84.4543H632.925V85.5472H629.212L629.125 87.9191C629.547 87.6956 630.044 87.5714 630.553 87.5714C632.192 87.5714 633.596 88.9001 633.596 90.5518C633.596 92.2656 632.192 93.5819 630.553 93.5819C629.162 93.5819 627.908 92.6133 627.597 91.2845L628.665 91.0361C628.864 91.9178 629.584 92.4891 630.553 92.4891C631.683 92.4891 632.503 91.7191 632.503 90.5518C632.503 89.4466 631.696 88.6642 630.553 88.6642C629.932 88.6642 629.46 88.8877 629.075 89.3224ZM637.819 92.4643C638.949 92.4643 639.781 91.6943 639.781 90.5766C639.781 89.4838 638.949 88.689 637.819 88.689C636.701 88.689 635.894 89.4838 635.894 90.5766C635.894 91.6943 636.688 92.4643 637.819 92.4643ZM634.801 90.5766C634.801 89.993 634.975 89.4466 635.273 88.9871L637.856 84.4543H639.11L637.285 87.6459C637.471 87.6086 637.657 87.5962 637.843 87.5962C639.47 87.5962 640.873 88.925 640.873 90.5766C640.873 92.2531 639.483 93.5571 637.843 93.5571C636.217 93.5571 634.801 92.2531 634.801 90.5766Z" fill="white"/>
<path d="M45.9904 31.1515V42.667H52.596V43.9033H44.7188V31.1515H45.9904ZM57.6163 42.7553C59.2059 42.7553 60.6365 41.466 60.6542 39.4879C60.6365 37.5274 59.2059 36.2204 57.6163 36.2204C55.6559 36.2204 54.5962 37.6334 54.5962 39.4879C54.5962 41.3424 55.6559 42.7553 57.6163 42.7553ZM53.3245 39.4879C53.3245 37.0329 54.8611 34.9664 57.5987 34.9664C58.6407 34.9664 59.8064 35.5139 60.6189 36.8209V34.9134H61.8905V43.9033H60.6189V42.1371C59.7711 43.5148 58.6584 44.027 57.5987 44.027C54.8611 44.027 53.3245 41.9252 53.3245 39.4879ZM68.347 42.7906C70.3428 42.7906 71.4202 41.36 71.4202 39.4702C71.4202 37.598 70.3428 36.1498 68.347 36.1498C66.7045 36.1498 65.3092 37.598 65.3092 39.4702C65.3092 41.36 66.7045 42.7906 68.347 42.7906ZM64.0375 43.9033V30.7982H65.3092V36.8033C66.1393 35.355 67.3756 34.9134 68.3823 34.9134C71.1553 34.9134 72.6918 37.0152 72.6918 39.4702C72.6918 41.9429 71.1376 44.0446 68.3647 44.0446C67.3756 44.0446 66.1393 43.6207 65.3092 42.1371V43.9033H64.0375ZM80.9166 38.7814C80.7753 37.5097 80.1571 36.1498 78.2497 36.1498C76.5718 36.1498 75.4944 37.0505 75.2648 38.799L80.9166 38.7814ZM73.9578 39.4172C73.9578 36.9446 75.4414 34.8781 78.1967 34.8781C81.0579 34.8781 81.782 37.1035 81.8703 37.3155C82.4002 38.7637 82.1883 40.0354 82.1883 40.0354H75.2648C75.4944 41.6956 76.5718 42.6847 78.2143 42.6847C80.2454 42.6847 80.74 41.572 80.8636 41.3953L81.9586 41.9782C81.9586 41.9782 81.2169 43.9563 78.1967 43.9563C75.4414 43.9563 73.9578 41.8722 73.9578 39.4172ZM83.7012 30.7982H84.9729V43.9033H83.7012V30.7982Z" fill="#616161"/>
<path fill-rule="evenodd" clip-rule="evenodd" d="M66.4852 139.881C66.8085 140.204 66.8085 140.729 66.4852 141.052L53.7907 153.746C53.4674 154.07 52.9432 154.07 52.6199 153.746L46.5486 147.675C46.2253 147.352 46.2253 146.828 46.5486 146.504C46.872 146.181 47.3961 146.181 47.7195 146.504L53.2053 151.99L65.3144 139.881C65.6377 139.558 66.1619 139.558 66.4852 139.881Z" fill="#999999"/>
<path d="M83.5748 140.657V151.814H82.4621V146.622H76.5896V151.814H75.4769V140.657H76.5896V145.54H82.4621V140.657H83.5748ZM91.6359 147.333C91.5123 146.22 90.9714 145.03 89.3024 145.03C87.8342 145.03 86.8915 145.818 86.6906 147.348L91.6359 147.333ZM85.547 147.889C85.547 145.726 86.8452 143.917 89.256 143.917C91.7596 143.917 92.3932 145.865 92.4705 146.05C92.9341 147.317 92.7486 148.43 92.7486 148.43H86.6906C86.8915 149.883 87.8342 150.748 89.2715 150.748C91.0487 150.748 91.4814 149.775 91.5896 149.62L92.5477 150.13C92.5477 150.13 91.8987 151.861 89.256 151.861C86.8452 151.861 85.547 150.037 85.547 147.889ZM94.3043 140.347H95.417V151.814H94.3043V140.347ZM101.385 150.856C103.085 150.856 104.043 149.589 104.043 147.935C104.043 146.313 103.085 145.046 101.385 145.046C99.9635 145.046 98.7427 146.313 98.7427 147.935C98.7427 149.589 99.9635 150.856 101.385 150.856ZM97.6145 155.369V143.948H98.7272V145.617C99.2372 144.505 100.443 143.964 101.401 143.964C103.812 143.964 105.156 145.803 105.156 147.935C105.156 150.099 103.812 151.938 101.401 151.938C100.412 151.938 99.2372 151.274 98.7272 150.269V155.369H97.6145ZM120.913 146.993C120.913 145.741 120.156 145.03 119.043 145.03C118.008 145.03 116.942 146.004 116.942 146.993V151.814H115.829V146.993C115.829 146.004 115.195 145.03 113.99 145.03C112.893 145.03 111.873 146.004 111.873 147.116V151.814H110.76V143.948H111.873V145.308C112.367 144.458 113.094 143.948 114.036 143.948C115.18 143.948 115.937 144.443 116.493 145.525C117.065 144.721 117.853 143.948 119.09 143.948C120.697 143.948 122.026 145.246 122.026 146.869V151.814H120.913V146.993ZM129.864 147.333C129.74 146.22 129.199 145.03 127.53 145.03C126.062 145.03 125.119 145.818 124.918 147.348L129.864 147.333ZM123.775 147.889C123.775 145.726 125.073 143.917 127.484 143.917C129.987 143.917 130.621 145.865 130.698 146.05C131.162 147.317 130.976 148.43 130.976 148.43H124.918C125.119 149.883 126.062 150.748 127.499 150.748C129.277 150.748 129.709 149.775 129.817 149.62L130.776 150.13C130.776 150.13 130.126 151.861 127.484 151.861C125.073 151.861 123.775 150.037 123.775 147.889ZM133.367 149.682C133.676 150.393 134.402 150.81 135.345 150.764C136.705 150.733 137.246 149.048 135.855 148.6C135.345 148.445 134.418 148.198 133.66 147.704C132.486 146.915 132.501 145.756 132.857 145.046C133.336 144.103 134.557 143.825 135.268 143.886C135.932 143.964 136.859 144.196 137.447 144.984L136.55 145.633C136.226 145.185 135.7 145.046 135.175 144.984C134.696 144.937 134.062 145.107 133.83 145.54C133.629 145.957 133.645 146.375 134.278 146.792C134.881 147.194 135.654 147.379 136.195 147.565C138.791 148.399 137.957 151.799 135.376 151.861C134.078 151.923 132.841 151.243 132.362 150.115L133.367 149.682ZM139.932 149.682C140.241 150.393 140.967 150.81 141.91 150.764C143.27 150.733 143.811 149.048 142.42 148.6C141.91 148.445 140.983 148.198 140.225 147.704C139.051 146.915 139.066 145.756 139.422 145.046C139.901 144.103 141.122 143.825 141.832 143.886C142.497 143.964 143.424 144.196 144.012 144.984L143.115 145.633C142.791 145.185 142.265 145.046 141.74 144.984C141.261 144.937 140.627 145.107 140.395 145.54C140.194 145.957 140.21 146.375 140.843 146.792C141.446 147.194 142.219 147.379 142.76 147.565C145.356 148.399 144.522 151.799 141.941 151.861C140.643 151.923 139.406 151.243 138.927 150.115L139.932 149.682ZM149.564 150.81C150.955 150.81 152.207 149.682 152.222 147.951C152.207 146.236 150.955 145.092 149.564 145.092C147.849 145.092 146.922 146.328 146.922 147.951C146.922 149.574 147.849 150.81 149.564 150.81ZM145.809 147.951C145.809 145.803 147.154 143.995 149.549 143.995C150.461 143.995 151.481 144.474 152.192 145.617V143.948H153.304V151.814H152.192V150.269C151.45 151.474 150.476 151.923 149.549 151.923C147.154 151.923 145.809 150.084 145.809 147.951ZM158.861 150.841C160.329 150.841 161.488 149.558 161.488 147.951C161.488 146.375 160.314 145.092 158.861 145.092C157.254 145.092 156.218 146.22 156.218 147.951C156.218 149.713 157.254 150.841 158.861 150.841ZM155.106 147.951C155.106 145.617 156.636 144.01 158.846 144.01C160.02 144.01 161.025 144.628 161.488 145.633V143.948H162.601V151.428C162.57 153.932 161.117 155.353 158.614 155.353C157.362 155.353 156.265 154.704 155.461 153.499L156.404 152.896C156.976 153.793 157.717 154.241 158.614 154.241C160.53 154.241 161.473 153.314 161.488 151.413V150.238C160.947 151.212 159.85 151.923 158.846 151.923C156.636 151.923 155.106 150.3 155.106 147.951ZM170.174 147.333C170.051 146.22 169.51 145.03 167.841 145.03C166.373 145.03 165.43 145.818 165.229 147.348L170.174 147.333ZM164.085 147.889C164.085 145.726 165.383 143.917 167.794 143.917C170.298 143.917 170.932 145.865 171.009 146.05C171.472 147.317 171.287 148.43 171.287 148.43H165.229C165.43 149.883 166.373 150.748 167.81 150.748C169.587 150.748 170.02 149.775 170.128 149.62L171.086 150.13C171.086 150.13 170.437 151.861 167.794 151.861C165.383 151.861 164.085 150.037 164.085 147.889Z" fill="#616161"/>
<path d="M45.9904 31.1515V42.667H52.596V43.9033H44.7188V31.1515H45.9904ZM57.6163 42.7553C59.2059 42.7553 60.6365 41.466 60.6542 39.4879C60.6365 37.5274 59.2059 36.2204 57.6163 36.2204C55.6559 36.2204 54.5962 37.6334 54.5962 39.4879C54.5962 41.3424 55.6559 42.7553 57.6163 42.7553ZM53.3245 39.4879C53.3245 37.0329 54.8611 34.9664 57.5987 34.9664C58.6407 34.9664 59.8064 35.5139 60.6189 36.8209V34.9134H61.8905V43.9033H60.6189V42.1371C59.7711 43.5148 58.6584 44.027 57.5987 44.027C54.8611 44.027 53.3245 41.9252 53.3245 39.4879ZM68.347 42.7906C70.3428 42.7906 71.4202 41.36 71.4202 39.4702C71.4202 37.598 70.3428 36.1498 68.347 36.1498C66.7045 36.1498 65.3092 37.598 65.3092 39.4702C65.3092 41.36 66.7045 42.7906 68.347 42.7906ZM64.0375 43.9033V30.7982H65.3092V36.8033C66.1393 35.355 67.3756 34.9134 68.3823 34.9134C71.1553 34.9134 72.6918 37.0152 72.6918 39.4702C72.6918 41.9429 71.1376 44.0446 68.3647 44.0446C67.3756 44.0446 66.1393 43.6207 65.3092 42.1371V43.9033H64.0375ZM80.9166 38.7814C80.7753 37.5097 80.1571 36.1498 78.2497 36.1498C76.5718 36.1498 75.4944 37.0505 75.2648 38.799L80.9166 38.7814ZM73.9578 39.4172C73.9578 36.9446 75.4414 34.8781 78.1967 34.8781C81.0579 34.8781 81.782 37.1035 81.8703 37.3155C82.4002 38.7637 82.1883 40.0354 82.1883 40.0354H75.2648C75.4944 41.6956 76.5718 42.6847 78.2143 42.6847C80.2454 42.6847 80.74 41.572 80.8636 41.3953L81.9586 41.9782C81.9586 41.9782 81.2169 43.9563 78.1967 43.9563C75.4414 43.9563 73.9578 41.8722 73.9578 39.4172ZM83.7012 30.7982H84.9729V43.9033H83.7012V30.7982Z" fill="#616161"/>
<path fill-rule="evenodd" clip-rule="evenodd" d="M66.4852 139.881C66.8085 140.204 66.8085 140.729 66.4852 141.052L53.7907 153.746C53.4674 154.07 52.9432 154.07 52.6199 153.746L46.5486 147.675C46.2253 147.352 46.2253 146.828 46.5486 146.504C46.872 146.181 47.3961 146.181 47.7195 146.504L53.2053 151.99L65.3144 139.881C65.6377 139.558 66.1619 139.558 66.4852 139.881Z" fill="#999999"/>
<path d="M83.5748 140.657V151.814H82.4621V146.622H76.5896V151.814H75.4769V140.657H76.5896V145.54H82.4621V140.657H83.5748ZM91.6359 147.333C91.5123 146.22 90.9714 145.03 89.3024 145.03C87.8342 145.03 86.8915 145.818 86.6906 147.348L91.6359 147.333ZM85.547 147.889C85.547 145.726 86.8452 143.917 89.256 143.917C91.7596 143.917 92.3932 145.865 92.4705 146.05C92.9341 147.317 92.7486 148.43 92.7486 148.43H86.6906C86.8915 149.883 87.8342 150.748 89.2715 150.748C91.0487 150.748 91.4814 149.775 91.5896 149.62L92.5477 150.13C92.5477 150.13 91.8987 151.861 89.256 151.861C86.8452 151.861 85.547 150.037 85.547 147.889ZM94.3043 140.347H95.417V151.814H94.3043V140.347ZM101.385 150.856C103.085 150.856 104.043 149.589 104.043 147.935C104.043 146.313 103.085 145.046 101.385 145.046C99.9635 145.046 98.7427 146.313 98.7427 147.935C98.7427 149.589 99.9635 150.856 101.385 150.856ZM97.6145 155.369V143.948H98.7272V145.617C99.2372 144.505 100.443 143.964 101.401 143.964C103.812 143.964 105.156 145.803 105.156 147.935C105.156 150.099 103.812 151.938 101.401 151.938C100.412 151.938 99.2372 151.274 98.7272 150.269V155.369H97.6145ZM120.913 146.993C120.913 145.741 120.156 145.03 119.043 145.03C118.008 145.03 116.942 146.004 116.942 146.993V151.814H115.829V146.993C115.829 146.004 115.195 145.03 113.99 145.03C112.893 145.03 111.873 146.004 111.873 147.116V151.814H110.76V143.948H111.873V145.308C112.367 144.458 113.094 143.948 114.036 143.948C115.18 143.948 115.937 144.443 116.493 145.525C117.065 144.721 117.853 143.948 119.09 143.948C120.697 143.948 122.026 145.246 122.026 146.869V151.814H120.913V146.993ZM129.864 147.333C129.74 146.22 129.199 145.03 127.53 145.03C126.062 145.03 125.119 145.818 124.918 147.348L129.864 147.333ZM123.775 147.889C123.775 145.726 125.073 143.917 127.484 143.917C129.987 143.917 130.621 145.865 130.698 146.05C131.162 147.317 130.976 148.43 130.976 148.43H124.918C125.119 149.883 126.062 150.748 127.499 150.748C129.277 150.748 129.709 149.775 129.817 149.62L130.776 150.13C130.776 150.13 130.126 151.861 127.484 151.861C125.073 151.861 123.775 150.037 123.775 147.889ZM133.367 149.682C133.676 150.393 134.402 150.81 135.345 150.764C136.705 150.733 137.246 149.048 135.855 148.6C135.345 148.445 134.418 148.198 133.66 147.704C132.486 146.915 132.501 145.756 132.857 145.046C133.336 144.103 134.557 143.825 135.268 143.886C135.932 143.964 136.859 144.196 137.447 144.984L136.55 145.633C136.226 145.185 135.7 145.046 135.175 144.984C134.696 144.937 134.062 145.107 133.83 145.54C133.629 145.957 133.645 146.375 134.278 146.792C134.881 147.194 135.654 147.379 136.195 147.565C138.791 148.399 137.957 151.799 135.376 151.861C134.078 151.923 132.841 151.243 132.362 150.115L133.367 149.682ZM139.932 149.682C140.241 150.393 140.967 150.81 141.91 150.764C143.27 150.733 143.811 149.048 142.42 148.6C141.91 148.445 140.983 148.198 140.225 147.704C139.051 146.915 139.066 145.756 139.422 145.046C139.901 144.103 141.122 143.825 141.832 143.886C142.497 143.964 143.424 144.196 144.012 144.984L143.115 145.633C142.791 145.185 142.265 145.046 141.74 144.984C141.261 144.937 140.627 145.107 140.395 145.54C140.194 145.957 140.21 146.375 140.843 146.792C141.446 147.194 142.219 147.379 142.76 147.565C145.356 148.399 144.522 151.799 141.941 151.861C140.643 151.923 139.406 151.243 138.927 150.115L139.932 149.682ZM149.564 150.81C150.955 150.81 152.207 149.682 152.222 147.951C152.207 146.236 150.955 145.092 149.564 145.092C147.849 145.092 146.922 146.328 146.922 147.951C146.922 149.574 147.849 150.81 149.564 150.81ZM145.809 147.951C145.809 145.803 147.154 143.995 149.549 143.995C150.461 143.995 151.481 144.474 152.192 145.617V143.948H153.304V151.814H152.192V150.269C151.45 151.474 150.476 151.923 149.549 151.923C147.154 151.923 145.809 150.084 145.809 147.951ZM158.861 150.841C160.329 150.841 161.488 149.558 161.488 147.951C161.488 146.375 160.314 145.092 158.861 145.092C157.254 145.092 156.218 146.22 156.218 147.951C156.218 149.713 157.254 150.841 158.861 150.841ZM155.106 147.951C155.106 145.617 156.636 144.01 158.846 144.01C160.02 144.01 161.025 144.628 161.488 145.633V143.948H162.601V151.428C162.57 153.932 161.117 155.353 158.614 155.353C157.362 155.353 156.265 154.704 155.461 153.499L156.404 152.896C156.976 153.793 157.717 154.241 158.614 154.241C160.53 154.241 161.473 153.314 161.488 151.413V150.238C160.947 151.212 159.85 151.923 158.846 151.923C156.636 151.923 155.106 150.3 155.106 147.951ZM170.174 147.333C170.051 146.22 169.51 145.03 167.841 145.03C166.373 145.03 165.43 145.818 165.229 147.348L170.174 147.333ZM164.085 147.889C164.085 145.726 165.383 143.917 167.794 143.917C170.298 143.917 170.932 145.865 171.009 146.05C171.472 147.317 171.287 148.43 171.287 148.43H165.229C165.43 149.883 166.373 150.748 167.81 150.748C169.587 150.748 170.02 149.775 170.128 149.62L171.086 150.13C171.086 150.13 170.437 151.861 167.794 151.861C165.383 151.861 164.085 150.037 164.085 147.889Z" fill="#616161"/>
<rect x="42.7186" y="23.3514" width="264.928" height="137.642" stroke="#0D69D4" stroke-width="1.10387"/>
<rect x="43.2705" y="50.3945" width="263.824" height="8.83092" fill="#C54600" fill-opacity="0.3"/>
<line x1="25.6089" y1="50.9481" x2="307.095" y2="50.9481" stroke="#C54600" stroke-width="1.10387"/>
<line x1="25.6089" y1="58.6746" x2="307.095" y2="58.6746" stroke="#C54600" stroke-width="1.10387"/>
<rect x="43.2705" y="23.9033" width="263.824" height="26.4928" fill="#0D69D4" fill-opacity="0.2"/>
<rect x="43.2705" y="124.354" width="263.824" height="8.83092" fill="#C54600" fill-opacity="0.3"/>
<line x1="25.6089" y1="124.906" x2="307.095" y2="124.906" stroke="#C54600" stroke-width="1.10387"/>
<line x1="25.6089" y1="132.635" x2="307.095" y2="132.635" stroke="#C54600" stroke-width="1.10387"/>
<rect x="43.2705" y="133.187" width="263.824" height="27.2552" fill="#0D69D4" fill-opacity="0.2"/>
<rect x="69.2114" y="133.186" width="4.41546" height="27.2552" fill="#C54600" fill-opacity="0.3"/>
<line x1="69.7634" y1="133.186" x2="69.7634" y2="178.103" stroke="#C54600" stroke-width="1.10387"/>
<line x1="73.0754" y1="133.186" x2="73.0754" y2="178.103" stroke="#C54600" stroke-width="1.10387"/>
<path d="M49.8931 59.4375H300.47C303.823 59.4375 306.541 62.1558 306.542 65.5088V117.586C306.542 120.939 303.823 123.657 300.47 123.657H49.8931C46.5401 123.657 43.8218 120.939 43.8218 117.586V65.5088C43.8219 62.1558 46.5401 59.4376 49.8931 59.4375Z" fill="white"/>
<path d="M49.8931 59.4375H300.47C303.823 59.4375 306.541 62.1558 306.542 65.5088V117.586C306.542 120.939 303.823 123.657 300.47 123.657H49.8931C46.5401 123.657 43.8218 120.939 43.8218 117.586V65.5088C43.8219 62.1558 46.5401 59.4376 49.8931 59.4375Z" stroke="#E0E0E0" stroke-width="1.10387"/>
<path d="M63.6498 91.5935C65.3188 91.5935 66.6501 90.2225 66.6501 88.5932C66.6501 86.9241 65.299 85.5929 63.6299 85.5929H59.5765L59.5964 91.5935H63.6498ZM58.1658 98.5479V84.202H63.6895C66.1136 84.202 68.041 86.1691 68.041 88.5932C68.041 90.9974 66.1136 92.9844 63.6895 92.9844H59.5964V98.5479H58.1658ZM69.7341 83.8046H71.1647V98.5479H69.7341V83.8046ZM77.6355 97.2563C79.4237 97.2563 81.0332 95.8058 81.0531 93.5805C81.0332 91.3749 79.4237 89.9046 77.6355 89.9046C75.43 89.9046 74.2378 91.4941 74.2378 93.5805C74.2378 95.6668 75.43 97.2563 77.6355 97.2563ZM72.8072 93.5805C72.8072 90.8186 74.5358 88.4938 77.6156 88.4938C78.7879 88.4938 80.0993 89.1098 81.0133 90.5801V88.4342H82.4439V98.5479H81.0133V96.5609C80.0596 98.1107 78.8078 98.6869 77.6156 98.6869C74.5358 98.6869 72.8072 96.3225 72.8072 93.5805ZM89.1114 97.2166C90.1446 97.2166 91.0984 96.8192 91.7739 96.1436L92.8469 97.0974C91.8931 98.0511 90.6215 98.6472 89.1909 98.6472C85.9323 98.6472 84.0447 96.243 84.0447 93.3222C84.0447 90.4212 85.9323 88.017 89.1909 88.017C90.6215 88.017 91.8931 88.6131 92.8469 89.5668L91.7739 90.5205C91.0984 89.845 90.1446 89.4476 89.1114 89.4476C86.7668 89.4476 85.4753 91.1762 85.4753 93.3222C85.4753 95.4879 86.7668 97.2166 89.1114 97.2166ZM101.597 92.7857C101.438 91.3551 100.743 89.8251 98.5971 89.8251C96.7095 89.8251 95.4975 90.8385 95.2392 92.8055L101.597 92.7857ZM93.7688 93.501C93.7688 90.7192 95.4379 88.3945 98.5375 88.3945C101.756 88.3945 102.571 90.8981 102.67 91.1365C103.266 92.7658 103.028 94.1964 103.028 94.1964H95.2392C95.4975 96.0642 96.7095 97.1769 98.5574 97.1769C100.842 97.1769 101.399 95.9251 101.538 95.7264L102.77 96.3821C102.77 96.3821 101.935 98.6075 98.5375 98.6075C95.4379 98.6075 93.7688 96.2628 93.7688 93.501ZM111.963 92.8652C111.963 90.9775 110.89 89.8847 109.38 89.8847C107.81 89.8847 106.439 91.3551 106.439 93.2625V98.5479H105.008V83.8046H106.439V90.3417C106.936 89.3085 108.068 88.4938 109.439 88.4938C111.486 88.4938 113.393 90.2424 113.393 92.7857V98.5479H111.963V92.8652ZM120.315 97.2365C122.54 97.2365 123.713 95.6072 123.713 93.501C123.713 91.3948 122.54 89.7655 120.315 89.7655C118.07 89.7655 116.937 91.3948 116.937 93.501C116.937 95.6072 118.07 97.2365 120.315 97.2365ZM115.507 93.501C115.507 90.7391 117.215 88.3746 120.315 88.3746C123.435 88.3746 125.143 90.7391 125.143 93.501C125.143 96.2628 123.435 98.6273 120.315 98.6273C117.215 98.6273 115.507 96.2628 115.507 93.501ZM126.778 83.8046H128.209V98.5479H126.778V83.8046ZM134.68 98.7068C131.6 98.7068 129.852 96.3423 129.852 93.5606C129.852 90.7987 131.6 88.4144 134.68 88.4144C135.971 88.4144 137.322 89.0701 138.157 90.5801V83.8046H139.588V98.5479H138.157V96.541C137.303 98.0511 135.971 98.7068 134.68 98.7068ZM131.282 93.5606C131.282 95.6866 132.494 97.2762 134.739 97.2762C136.567 97.2762 138.157 95.6866 138.157 93.5606C138.157 91.4544 136.567 89.845 134.739 89.845C132.494 89.845 131.282 91.4544 131.282 93.5606ZM149.238 92.7857C149.079 91.3551 148.383 89.8251 146.238 89.8251C144.35 89.8251 143.138 90.8385 142.88 92.8055L149.238 92.7857ZM141.409 93.501C141.409 90.7192 143.078 88.3945 146.178 88.3945C149.397 88.3945 150.211 90.8981 150.311 91.1365C150.907 92.7658 150.668 94.1964 150.668 94.1964H142.88C143.138 96.0642 144.35 97.1769 146.198 97.1769C148.483 97.1769 149.039 95.9251 149.178 95.7264L150.41 96.3821C150.41 96.3821 149.576 98.6075 146.178 98.6075C143.078 98.6075 141.409 96.2628 141.409 93.501ZM153.861 90.5603C154.437 89.229 156.086 88.3349 157.457 88.3349V89.8052C155.609 89.8052 153.861 91.7326 153.861 93.342V98.5479H152.43V88.4342H153.861V90.5603Z" fill="#BDBDBD"/>
<path fill-rule="evenodd" clip-rule="evenodd" d="M273.197 85.9654C273.628 85.5219 274.327 85.5219 274.758 85.9654L280.601 91.9762L286.444 85.9654C286.875 85.5219 287.574 85.5219 288.005 85.9654C288.436 86.4089 288.436 87.128 288.005 87.5715L281.382 94.3852C280.951 94.8287 280.252 94.8287 279.821 94.3852L273.197 87.5715C272.766 87.128 272.766 86.4089 273.197 85.9654Z" fill="#616161"/>
<path d="M49.8931 59.1611H300.47C303.823 59.1611 306.541 61.8794 306.542 65.2324V117.31C306.542 120.663 303.823 123.381 300.47 123.381H49.8931C46.5401 123.381 43.8218 120.663 43.8218 117.31V65.2324C43.8219 61.8795 46.5401 59.1612 49.8931 59.1611Z" fill="white"/>
<path d="M49.8931 59.1611H300.47C303.823 59.1611 306.541 61.8794 306.542 65.2324V117.31C306.542 120.663 303.823 123.381 300.47 123.381H49.8931C46.5401 123.381 43.8218 120.663 43.8218 117.31V65.2324C43.8219 61.8795 46.5401 59.1612 49.8931 59.1611Z" stroke="#E0E0E0" stroke-width="1.10387"/>
<path d="M63.6498 91.3171C65.3188 91.3171 66.6501 89.9461 66.6501 88.3168C66.6501 86.6478 65.299 85.3165 63.6299 85.3165H59.5765L59.5964 91.3171H63.6498ZM58.1658 98.2715V83.9256H63.6895C66.1136 83.9256 68.041 85.8927 68.041 88.3168C68.041 90.721 66.1136 92.708 63.6895 92.708H59.5964V98.2715H58.1658ZM69.7341 83.5283H71.1647V98.2715H69.7341V83.5283ZM77.6355 96.98C79.4237 96.98 81.0332 95.5295 81.0531 93.3041C81.0332 91.0986 79.4237 89.6282 77.6355 89.6282C75.43 89.6282 74.2378 91.2178 74.2378 93.3041C74.2378 95.3904 75.43 96.98 77.6355 96.98ZM72.8072 93.3041C72.8072 90.5422 74.5358 88.2175 77.6156 88.2175C78.7879 88.2175 80.0993 88.8334 81.0133 90.3038V88.1579H82.4439V98.2715H81.0133V96.2845C80.0596 97.8344 78.8078 98.4106 77.6156 98.4106C74.5358 98.4106 72.8072 96.0461 72.8072 93.3041ZM89.1114 96.9402C90.1446 96.9402 91.0984 96.5428 91.7739 95.8673L92.8469 96.821C91.8931 97.7747 90.6215 98.3708 89.1909 98.3708C85.9323 98.3708 84.0447 95.9666 84.0447 93.0458C84.0447 90.1448 85.9323 87.7406 89.1909 87.7406C90.6215 87.7406 91.8931 88.3367 92.8469 89.2904L91.7739 90.2442C91.0984 89.5686 90.1446 89.1712 89.1114 89.1712C86.7668 89.1712 85.4753 90.8999 85.4753 93.0458C85.4753 95.2116 86.7668 96.9402 89.1114 96.9402ZM101.597 92.5093C101.438 91.0787 100.743 89.5487 98.5971 89.5487C96.7095 89.5487 95.4975 90.5621 95.2392 92.5292L101.597 92.5093ZM93.7688 93.2246C93.7688 90.4429 95.4379 88.1181 98.5375 88.1181C101.756 88.1181 102.571 90.6217 102.67 90.8601C103.266 92.4894 103.028 93.92 103.028 93.92H95.2392C95.4975 95.7878 96.7095 96.9005 98.5574 96.9005C100.842 96.9005 101.399 95.6487 101.538 95.45L102.77 96.1057C102.77 96.1057 101.935 98.3311 98.5375 98.3311C95.4379 98.3311 93.7688 95.9865 93.7688 93.2246ZM111.963 92.5888C111.963 90.7012 110.89 89.6083 109.38 89.6083C107.81 89.6083 106.439 91.0787 106.439 92.9862V98.2715H105.008V83.5283H106.439V90.0653C106.936 89.0321 108.068 88.2175 109.439 88.2175C111.486 88.2175 113.393 89.966 113.393 92.5093V98.2715H111.963V92.5888ZM120.315 96.9601C122.54 96.9601 123.713 95.3308 123.713 93.2246C123.713 91.1184 122.54 89.4891 120.315 89.4891C118.07 89.4891 116.937 91.1184 116.937 93.2246C116.937 95.3308 118.07 96.9601 120.315 96.9601ZM115.507 93.2246C115.507 90.4627 117.215 88.0983 120.315 88.0983C123.435 88.0983 125.143 90.4627 125.143 93.2246C125.143 95.9865 123.435 98.351 120.315 98.351C117.215 98.351 115.507 95.9865 115.507 93.2246ZM126.778 83.5283H128.209V98.2715H126.778V83.5283ZM134.68 98.4304C131.6 98.4304 129.852 96.066 129.852 93.2842C129.852 90.5223 131.6 88.138 134.68 88.138C135.971 88.138 137.322 88.7937 138.157 90.3038V83.5283H139.588V98.2715H138.157V96.2647C137.303 97.7747 135.971 98.4304 134.68 98.4304ZM131.282 93.2842C131.282 95.4103 132.494 96.9998 134.739 96.9998C136.567 96.9998 138.157 95.4103 138.157 93.2842C138.157 91.178 136.567 89.5686 134.739 89.5686C132.494 89.5686 131.282 91.178 131.282 93.2842ZM149.238 92.5093C149.079 91.0787 148.383 89.5487 146.238 89.5487C144.35 89.5487 143.138 90.5621 142.88 92.5292L149.238 92.5093ZM141.409 93.2246C141.409 90.4429 143.078 88.1181 146.178 88.1181C149.397 88.1181 150.211 90.6217 150.311 90.8601C150.907 92.4894 150.668 93.92 150.668 93.92H142.88C143.138 95.7878 144.35 96.9005 146.198 96.9005C148.483 96.9005 149.039 95.6487 149.178 95.45L150.41 96.1057C150.41 96.1057 149.576 98.3311 146.178 98.3311C143.078 98.3311 141.409 95.9865 141.409 93.2246ZM153.861 90.2839C154.437 88.9527 156.086 88.0585 157.457 88.0585V89.5289C155.609 89.5289 153.861 91.4562 153.861 93.0657V98.2715H152.43V88.1579H153.861V90.2839Z" fill="#BDBDBD"/>
<path fill-rule="evenodd" clip-rule="evenodd" d="M273.197 85.6891C273.628 85.2456 274.327 85.2456 274.758 85.6891L280.601 91.6998L286.444 85.6891C286.875 85.2456 287.574 85.2456 288.005 85.6891C288.436 86.1326 288.436 86.8516 288.005 87.2951L281.382 94.1089C280.951 94.5524 280.252 94.5524 279.821 94.1089L273.197 87.2951C272.766 86.8516 272.766 86.1326 273.197 85.6891Z" fill="#616161"/>
<rect x="42.7181" y="58.3338" width="264.928" height="66.2319" stroke="#0D69D4" stroke-width="1.10387"/>
<rect x="262.939" y="75.7852" width="4.41546" height="30.9082" fill="#C54600" fill-opacity="0.3"/>
<line x1="263.491" y1="23.3096" x2="263.491" y2="124.014" stroke="#C54600" stroke-width="1.10387"/>
<line x1="266.803" y1="23.3096" x2="266.803" y2="124.014" stroke="#C54600" stroke-width="1.10387"/>
<rect x="56.5176" y="76.5469" width="206.423" height="29.8044" fill="#0D69D4" fill-opacity="0.2"/>
<rect x="267.355" y="76.8887" width="26.4928" height="29.8044" fill="#0D69D4" fill-opacity="0.2"/>
<rect x="43.27" y="59.2266" width="263.824" height="17.6618" fill="#007D00" fill-opacity="0.3"/>
<line x1="25.6084" y1="59.4373" x2="307.094" y2="59.4373" stroke="#007D00" stroke-width="1.10387"/>
<line x1="25.6084" y1="75.9949" x2="307.094" y2="75.9949" stroke="#007D00" stroke-width="1.10387"/>
<rect x="43.2695" y="106.352" width="263.824" height="17.6618" fill="#007D00" fill-opacity="0.3"/>
<line x1="25.6084" y1="106.903" x2="307.094" y2="106.903" stroke="#007D00" stroke-width="1.10387"/>
<line x1="25.6084" y1="123.462" x2="307.094" y2="123.462" stroke="#007D00" stroke-width="1.10387"/>
<rect x="43.2705" y="75.7852" width="13.2464" height="30.9082" fill="#007D00" fill-opacity="0.3"/>
<line x1="43.8224" y1="23.3096" x2="43.8224" y2="124.014" stroke="#007D00" stroke-width="1.10387"/>
<line x1="55.9645" y1="23.3096" x2="55.9645" y2="124.014" stroke="#007D00" stroke-width="1.10387"/>
<rect x="293.849" y="76.8887" width="13.2464" height="29.8044" fill="#007D00" fill-opacity="0.3"/>
<line x1="294.401" y1="23.3096" x2="294.401" y2="124.014" stroke="#007D00" stroke-width="1.10387"/>
<line x1="306.543" y1="23.3096" x2="306.543" y2="124.014" stroke="#007D00" stroke-width="1.10387"/>
<rect x="3.5" y="37.2559" width="18.279" height="19.3798" rx="5.51933" fill="#C54600"/>
<path d="M12.3181 52.4068C11.5779 52.4068 10.9239 52.2756 10.3562 52.0133C9.79204 51.7474 9.35186 51.3827 9.03565 50.9191C8.71944 50.452 8.56313 49.9202 8.56672 49.3237C8.56313 48.8566 8.65476 48.4254 8.84161 48.0301C9.02846 47.6313 9.28359 47.2989 9.60699 47.033C9.93398 46.7635 10.2987 46.5928 10.7012 46.5209V46.4563C10.1729 46.3197 9.75252 46.0233 9.4399 45.5669C9.12728 45.107 8.97277 44.5841 8.97636 43.9984C8.97277 43.4379 9.1147 42.9366 9.40217 42.4946C9.68963 42.0526 10.0849 41.7041 10.588 41.449C11.0946 41.1938 11.6713 41.0663 12.3181 41.0663C12.9578 41.0663 13.5291 41.1938 14.0322 41.449C14.5352 41.7041 14.9305 42.0526 15.2179 42.4946C15.509 42.9366 15.6563 43.4379 15.6599 43.9984C15.6563 44.5841 15.4964 45.107 15.1802 45.5669C14.8676 46.0233 14.4526 46.3197 13.9351 46.4563V46.5209C14.334 46.5928 14.6933 46.7635 15.0131 47.033C15.3329 47.2989 15.5881 47.6313 15.7785 48.0301C15.9689 48.4254 16.066 48.8566 16.0696 49.3237C16.066 49.9202 15.9043 50.452 15.5845 50.9191C15.2683 51.3827 14.8281 51.7474 14.2639 52.0133C13.7034 52.2756 13.0548 52.4068 12.3181 52.4068ZM12.3181 51.221C12.8176 51.221 13.2488 51.1401 13.6117 50.9784C13.9747 50.8167 14.2549 50.5886 14.4526 50.2939C14.6502 49.9993 14.7508 49.6543 14.7544 49.259C14.7508 48.8422 14.643 48.4739 14.431 48.1541C14.219 47.8343 13.9297 47.5828 13.5632 47.3995C13.2003 47.2162 12.7853 47.1246 12.3181 47.1246C11.8474 47.1246 11.427 47.2162 11.0569 47.3995C10.6904 47.5828 10.4011 47.8343 10.1891 48.1541C9.98069 48.4739 9.87828 48.8422 9.88188 49.259C9.87828 49.6543 9.9735 49.9993 10.1675 50.2939C10.3652 50.5886 10.6473 50.8167 11.0138 50.9784C11.3803 51.1401 11.8151 51.221 12.3181 51.221ZM12.3181 45.9819C12.7134 45.9819 13.0638 45.9029 13.3692 45.7448C13.6782 45.5867 13.9208 45.3657 14.0968 45.0818C14.2729 44.7979 14.3627 44.4656 14.3663 44.0847C14.3627 43.711 14.2747 43.3858 14.1022 43.1091C13.9297 42.8288 13.6908 42.6132 13.3854 42.4623C13.0799 42.3078 12.7242 42.2305 12.3181 42.2305C11.9049 42.2305 11.5438 42.3078 11.2348 42.4623C10.9257 42.6132 10.6868 42.8288 10.5179 43.1091C10.349 43.3858 10.2664 43.711 10.27 44.0847C10.2664 44.4656 10.3508 44.7979 10.5233 45.0818C10.6994 45.3657 10.9419 45.5867 11.2509 45.7448C11.56 45.9029 11.9157 45.9819 12.3181 45.9819Z" fill="white"/>
<rect x="3.5" y="124.186" width="18.279" height="19.3798" rx="5.51933" fill="#C54600"/>
<path d="M12.3181 139.336C11.5779 139.336 10.9239 139.205 10.3562 138.943C9.79204 138.677 9.35186 138.312 9.03565 137.849C8.71944 137.382 8.56313 136.85 8.56672 136.253C8.56313 135.786 8.65476 135.355 8.84161 134.96C9.02846 134.561 9.28359 134.229 9.60699 133.963C9.93398 133.693 10.2987 133.522 10.7012 133.451V133.386C10.1729 133.249 9.75252 132.953 9.4399 132.497C9.12728 132.037 8.97277 131.514 8.97636 130.928C8.97277 130.368 9.1147 129.866 9.40217 129.424C9.68963 128.982 10.0849 128.634 10.588 128.379C11.0946 128.124 11.6713 127.996 12.3181 127.996C12.9578 127.996 13.5291 128.124 14.0322 128.379C14.5352 128.634 14.9305 128.982 15.2179 129.424C15.509 129.866 15.6563 130.368 15.6599 130.928C15.6563 131.514 15.4964 132.037 15.1802 132.497C14.8676 132.953 14.4526 133.249 13.9351 133.386V133.451C14.334 133.522 14.6933 133.693 15.0131 133.963C15.3329 134.229 15.5881 134.561 15.7785 134.96C15.9689 135.355 16.066 135.786 16.0696 136.253C16.066 136.85 15.9043 137.382 15.5845 137.849C15.2683 138.312 14.8281 138.677 14.2639 138.943C13.7034 139.205 13.0548 139.336 12.3181 139.336ZM12.3181 138.151C12.8176 138.151 13.2488 138.07 13.6117 137.908C13.9747 137.746 14.2549 137.518 14.4526 137.224C14.6502 136.929 14.7508 136.584 14.7544 136.189C14.7508 135.772 14.643 135.404 14.431 135.084C14.219 134.764 13.9297 134.512 13.5632 134.329C13.2003 134.146 12.7853 134.054 12.3181 134.054C11.8474 134.054 11.427 134.146 11.0569 134.329C10.6904 134.512 10.4011 134.764 10.1891 135.084C9.98069 135.404 9.87828 135.772 9.88188 136.189C9.87828 136.584 9.9735 136.929 10.1675 137.224C10.3652 137.518 10.6473 137.746 11.0138 137.908C11.3803 138.07 11.8151 138.151 12.3181 138.151ZM12.3181 132.912C12.7134 132.912 13.0638 132.833 13.3692 132.674C13.6782 132.516 13.9208 132.295 14.0968 132.011C14.2729 131.728 14.3627 131.395 14.3663 131.014C14.3627 130.641 14.2747 130.315 14.1022 130.039C13.9297 129.758 13.6908 129.543 13.3854 129.392C13.0799 129.237 12.7242 129.16 12.3181 129.16C11.9049 129.16 11.5438 129.237 11.2348 129.392C10.9257 129.543 10.6868 129.758 10.5179 130.039C10.349 130.315 10.2664 130.641 10.27 131.014C10.2664 131.395 10.3508 131.728 10.5233 132.011C10.6994 132.295 10.9419 132.516 11.2509 132.674C11.56 132.833 11.9157 132.912 12.3181 132.912Z" fill="white"/>
<rect y="57.9531" width="25.279" height="19.3798" rx="5.51933" fill="#007D00"/>
<path d="M9.1631 61.9145V72.9531H7.82639V63.3159H7.76171L5.06672 65.1053V63.7471L7.82639 61.9145H9.1631ZM16.003 73.104C15.5502 73.0969 15.0975 73.0106 14.6447 72.8453C14.1919 72.68 13.7787 72.4016 13.405 72.0099C13.0313 71.6146 12.7313 71.081 12.5049 70.4091C12.2785 69.7335 12.1653 68.8855 12.1653 67.865C12.1653 66.8876 12.2569 66.0216 12.4402 65.267C12.6235 64.5088 12.8894 63.871 13.2379 63.3536C13.5865 62.8326 14.0069 62.4373 14.4992 62.1678C14.995 61.8983 15.5538 61.7636 16.1754 61.7636C16.7935 61.7636 17.3433 61.8875 17.8248 62.1355C18.3099 62.3798 18.7051 62.7212 19.0106 63.1596C19.316 63.5979 19.5136 64.1028 19.6035 64.6741H18.2883C18.1661 64.1783 17.929 63.7668 17.5768 63.4398C17.2247 63.1128 16.7576 62.9493 16.1754 62.9493C15.3202 62.9493 14.6465 63.3213 14.1542 64.0651C13.6655 64.8089 13.4194 65.8527 13.4158 67.1966H13.502C13.7032 66.8912 13.9422 66.6307 14.2189 66.4151C14.4992 66.1959 14.8082 66.027 15.146 65.9084C15.4837 65.7899 15.8413 65.7306 16.2186 65.7306C16.851 65.7306 17.4295 65.8887 17.9541 66.2049C18.4788 66.5175 18.8992 66.9505 19.2154 67.5039C19.5316 68.0536 19.6897 68.6843 19.6897 69.3957C19.6897 70.0785 19.537 70.7037 19.2316 71.2715C18.9261 71.8356 18.4967 72.2848 17.9434 72.6189C17.3936 72.9495 16.7468 73.1112 16.003 73.104ZM16.003 71.9183C16.4557 71.9183 16.8618 71.8051 17.2211 71.5787C17.584 71.3523 17.8697 71.0487 18.0781 70.6678C18.2901 70.2869 18.3961 69.8629 18.3961 69.3957C18.3961 68.9394 18.2937 68.5244 18.0889 68.1507C17.8877 67.7734 17.6092 67.4733 17.2534 67.2505C16.9013 67.0278 16.4988 66.9164 16.0461 66.9164C15.7047 66.9164 15.3867 66.9846 15.0921 67.1212C14.7974 67.2541 14.5387 67.4374 14.3159 67.671C14.0967 67.9045 13.9242 68.1722 13.7985 68.4741C13.6727 68.7723 13.6098 69.0867 13.6098 69.4173C13.6098 69.8557 13.7122 70.2653 13.9171 70.6462C14.1255 71.0271 14.4093 71.3343 14.7687 71.5679C15.1316 71.8015 15.543 71.9183 16.003 71.9183Z" fill="white"/>
<rect y="103.487" width="25.279" height="19.3798" rx="5.51933" fill="#007D00"/>
<path d="M9.1631 107.449V118.487H7.82639V108.85H7.76171L5.06672 110.64V109.281L7.82639 107.449H9.1631ZM16.003 118.638C15.5502 118.631 15.0975 118.545 14.6447 118.38C14.1919 118.214 13.7787 117.936 13.405 117.544C13.0313 117.149 12.7313 116.615 12.5049 115.943C12.2785 115.268 12.1653 114.42 12.1653 113.399C12.1653 112.422 12.2569 111.556 12.4402 110.801C12.6235 110.043 12.8894 109.405 13.2379 108.888C13.5865 108.367 14.0069 107.971 14.4992 107.702C14.995 107.432 15.5538 107.298 16.1754 107.298C16.7935 107.298 17.3433 107.422 17.8248 107.67C18.3099 107.914 18.7051 108.255 19.0106 108.694C19.316 109.132 19.5136 109.637 19.6035 110.208H18.2883C18.1661 109.712 17.929 109.301 17.5768 108.974C17.2247 108.647 16.7576 108.484 16.1754 108.484C15.3202 108.484 14.6465 108.855 14.1542 109.599C13.6655 110.343 13.4194 111.387 13.4158 112.731H13.502C13.7032 112.425 13.9422 112.165 14.2189 111.949C14.4992 111.73 14.8082 111.561 15.146 111.443C15.4837 111.324 15.8413 111.265 16.2186 111.265C16.851 111.265 17.4295 111.423 17.9541 111.739C18.4788 112.052 18.8992 112.485 19.2154 113.038C19.5316 113.588 19.6897 114.218 19.6897 114.93C19.6897 115.613 19.537 116.238 19.2316 116.806C18.9261 117.37 18.4967 117.819 17.9434 118.153C17.3936 118.484 16.7468 118.645 16.003 118.638ZM16.003 117.452C16.4557 117.452 16.8618 117.339 17.2211 117.113C17.584 116.886 17.8697 116.583 18.0781 116.202C18.2901 115.821 18.3961 115.397 18.3961 114.93C18.3961 114.474 18.2937 114.059 18.0889 113.685C17.8877 113.308 17.6092 113.008 17.2534 112.785C16.9013 112.562 16.4988 112.451 16.0461 112.451C15.7047 112.451 15.3867 112.519 15.0921 112.655C14.7974 112.788 14.5387 112.972 14.3159 113.205C14.0967 113.439 13.9242 113.706 13.7985 114.008C13.6727 114.306 13.6098 114.621 13.6098 114.951C13.6098 115.39 13.7122 115.8 13.9171 116.18C14.1255 116.561 14.4093 116.869 14.7687 117.102C15.1316 117.336 15.543 117.452 16.003 117.452Z" fill="white"/>
<rect x="38.6357" width="25.279" height="19.3798" rx="5.51933" fill="#007D00"/>
<path d="M47.7984 3.96134V15H46.4616V5.36274H46.397L43.702 7.15221V5.79393L46.4616 3.96134H47.7984ZM50.973 15V14.0298L54.6167 10.0412C55.0443 9.5741 55.3964 9.16805 55.6731 8.8231C55.9498 8.47454 56.1546 8.14755 56.2876 7.84212C56.4241 7.5331 56.4924 7.2097 56.4924 6.87193C56.4924 6.48385 56.3989 6.14788 56.2121 5.864C56.0288 5.58013 55.7773 5.36094 55.4575 5.20643C55.1377 5.05191 54.7784 4.97466 54.3795 4.97466C53.9555 4.97466 53.5854 5.06269 53.2692 5.23877C52.9566 5.41125 52.714 5.65379 52.5415 5.96641C52.3726 6.27903 52.2882 6.64555 52.2882 7.06597H51.0162C51.0162 6.41917 51.1653 5.85143 51.4635 5.36274C51.7618 4.87405 52.1678 4.49315 52.6817 4.22006C53.1991 3.94697 53.7794 3.81043 54.4226 3.81043C55.0694 3.81043 55.6426 3.94697 56.142 4.22006C56.6415 4.49315 57.0332 4.86147 57.317 5.32501C57.6009 5.78854 57.7428 6.30418 57.7428 6.87193C57.7428 7.27797 57.6692 7.67503 57.5219 8.06311C57.3781 8.4476 57.1266 8.877 56.7673 9.35131C56.4115 9.82204 55.9174 10.397 55.285 11.0761L52.8056 13.728V13.8142H57.9369V15H50.973Z" fill="white"/>
<rect x="287.005" width="25.279" height="19.3798" rx="5.51933" fill="#007D00"/>
<path d="M296.168 3.96134V15H294.831V5.36274H294.767L292.072 7.15221V5.79393L294.831 3.96134H296.168ZM299.343 15V14.0298L302.986 10.0412C303.414 9.5741 303.766 9.16805 304.043 8.8231C304.319 8.47454 304.524 8.14755 304.657 7.84212C304.794 7.5331 304.862 7.2097 304.862 6.87193C304.862 6.48385 304.769 6.14788 304.582 5.864C304.398 5.58013 304.147 5.36094 303.827 5.20643C303.507 5.05191 303.148 4.97466 302.749 4.97466C302.325 4.97466 301.955 5.06269 301.639 5.23877C301.326 5.41125 301.084 5.65379 300.911 5.96641C300.742 6.27903 300.658 6.64555 300.658 7.06597H299.386C299.386 6.41917 299.535 5.85143 299.833 5.36274C300.131 4.87405 300.537 4.49315 301.051 4.22006C301.569 3.94697 302.149 3.81043 302.792 3.81043C303.439 3.81043 304.012 3.94697 304.512 4.22006C305.011 4.49315 305.403 4.86147 305.687 5.32501C305.971 5.78854 306.112 6.30418 306.112 6.87193C306.112 7.27797 306.039 7.67503 305.891 8.06311C305.748 8.4476 305.496 8.877 305.137 9.35131C304.781 9.82204 304.287 10.397 303.655 11.0761L301.175 13.728V13.8142H306.307V15H299.343Z" fill="white"/>
<rect x="254.63" width="18.279" height="19.3798" rx="5.51933" fill="#C54600"/>
<path d="M259.653 12.7362V11.6367L264.504 3.96134H265.302V5.66457H264.763L261.098 11.4642V11.5504H267.63V12.7362H259.653ZM264.849 15V12.402V11.89V3.96134H266.121V15H264.849Z" fill="white"/>
<rect x="61.4531" y="168.34" width="18.279" height="19.3798" rx="5.51933" fill="#C54600"/>
<path d="M66.4767 181.076V179.977L71.3277 172.301H72.1254V174.004H71.5864L67.9212 179.804V179.89H74.4539V181.076H66.4767ZM71.6727 183.34V180.742V180.23V172.301H72.9447V183.34H71.6727Z" fill="white"/>
</svg>
