<svg width="183" height="59" viewBox="0 0 183 59" fill="none" xmlns="http://www.w3.org/2000/svg">
<rect x="1.31008" y="1.31008" width="180.758" height="56.5731" rx="6.20924" stroke="#E0E0E0" stroke-width="1.37983"/>
<mask id="path-2-inside-1_1101_61624" fill="white">
<path d="M2 7.51933C2 4.47109 4.47109 2 7.51933 2H62.7126V57.1933H7.51933C4.47109 57.1933 2 54.7222 2 51.6739V7.51933Z"/>
</mask>
<path d="M2 7.51933C2 4.47109 4.47109 2 7.51933 2H62.7126V57.1933H7.51933C4.47109 57.1933 2 54.7222 2 51.6739V7.51933Z" fill="white"/>
<path d="M2 2H62.7126H2ZM62.7126 57.1933H2H62.7126ZM2 57.1933V2V57.1933ZM64.0924 2V57.1933H61.3328V2H64.0924Z" fill="#E0E0E0" mask="url(#path-2-inside-1_1101_61624)"/>
<path d="M41.3184 28.751C41.8401 28.8041 42.2471 29.2445 42.2471 29.7803C42.2469 30.3159 41.84 30.7565 41.3184 30.8096L41.2119 30.8154H23.8633C23.2919 30.8153 22.8283 30.3516 22.8281 29.7803C22.8281 29.2088 23.2918 28.7452 23.8633 28.7451H41.2119L41.3184 28.751Z" fill="#BDBDBD"/>
<mask id="path-5-inside-2_1101_61624" fill="white">
<path d="M62.7129 2H120.666V57.1933H62.7129V2Z"/>
</mask>
<path d="M62.7129 2H120.666V57.1933H62.7129V2Z" fill="white"/>
<path d="M120.666 2H119.286V57.1933H120.666H122.046V2H120.666Z" fill="#E0E0E0" mask="url(#path-5-inside-2_1101_61624)"/>
<path d="M86.5141 35.3669C89.7153 32.276 94.1528 29.3839 94.1528 26.6463C94.1528 24.6373 92.8724 23.7321 91.349 23.7321C90.2893 23.7321 89.053 24.1074 88.3024 25.7853L86.205 24.8581C87.4193 22.1205 89.8698 21.4361 91.349 21.4361C93.7996 21.4361 96.4489 23.3347 96.4489 26.6463C96.4489 30.0021 92.9165 32.8501 89.9802 35.3669H96.6917V37.6629H86.5141V35.3669Z" fill="#1A1A1A"/>
<path d="M175.859 2C178.908 2.00004 181.379 4.47132 181.379 7.51953V51.6738C181.379 54.722 178.908 57.1933 175.859 57.1934H120.666V2H175.859Z" fill="white"/>
<path d="M175.859 2C178.908 2.00004 181.379 4.47132 181.379 7.51953V51.6738C181.379 54.722 178.908 57.1933 175.859 57.1934H120.666V2H175.859Z" stroke="#E0E0E0"/>
<path d="M151.208 20.0713C151.78 20.0713 152.243 20.5349 152.243 21.1064V28.7461H159.882L159.988 28.752C160.51 28.8052 160.917 29.2456 160.917 29.7812C160.917 30.3169 160.51 30.7573 159.988 30.8105L159.882 30.8164H152.243V38.4551L152.237 38.5615C152.184 39.0831 151.744 39.4902 151.208 39.4902C150.672 39.4902 150.232 39.0831 150.179 38.5615L150.173 38.4551V30.8164H142.533C141.962 30.8164 141.498 30.3528 141.498 29.7812C141.498 29.2097 141.962 28.7461 142.533 28.7461H150.173V21.1064C150.173 20.5349 150.636 20.0713 151.208 20.0713Z" fill="#BDBDBD"/>
</svg>
