<svg width="156" height="57" viewBox="0 0 156 57" fill="none" xmlns="http://www.w3.org/2000/svg">
<path d="M0 6.7978C0 3.59576 2.59577 1 5.79781 1H104.202C107.404 1 110 3.59577 110 6.79781V50.2022C110 53.4042 107.404 56 104.202 56H5.7978C2.59576 56 0 53.4042 0 50.2022V6.7978Z" fill="#FF8120"/>
<path d="M32.814 33.29C34.524 33.29 35.478 32.12 35.478 30.482C35.478 28.862 34.524 27.674 32.814 27.674C31.392 27.674 30.114 28.79 30.114 30.482C30.114 32.192 31.392 33.29 32.814 33.29ZM28.242 35V21.5H30.114V27.44C30.906 26.252 32.058 25.838 32.958 25.838C35.784 25.838 37.35 27.98 37.35 30.482C37.35 33.002 35.766 35.144 32.94 35.144C32.058 35.144 30.942 34.838 30.114 33.524V35H28.242ZM41.0026 30.95C41.0026 32.318 41.8306 33.29 43.3066 33.29C44.7826 33.29 45.7366 32.12 45.7186 30.86V25.694H47.5906V35.126H45.7186V33.722C45.0706 34.676 44.2606 35.126 43.0726 35.126C41.0386 35.126 39.1306 33.65 39.1306 31.04V25.73H41.0026V30.95ZM55.2473 34.892C54.8693 34.982 54.0773 35.126 53.4473 35.09C52.0433 35.018 50.7113 33.812 50.7113 32.246V27.476H49.1093V25.64H50.7113V22.454H52.5833V25.64H55.0133V27.476H52.5833V32.246C52.5833 32.858 52.9613 33.2 53.5733 33.218C53.9873 33.236 54.5093 33.146 54.8333 33.074L55.2473 34.892ZM61.6539 34.892C61.2759 34.982 60.4839 35.126 59.8539 35.09C58.4499 35.018 57.1179 33.812 57.1179 32.246V27.476H55.5159V25.64H57.1179V22.454H58.9899V25.64H61.4199V27.476H58.9899V32.246C58.9899 32.858 59.3679 33.2 59.9799 33.218C60.3939 33.236 60.9159 33.146 61.2399 33.074L61.6539 34.892ZM66.9039 33.344C68.5959 33.344 69.5859 32.12 69.5859 30.446C69.5859 28.754 68.5959 27.53 66.9039 27.53C65.2119 27.53 64.2399 28.754 64.2399 30.446C64.2399 32.12 65.2119 33.344 66.9039 33.344ZM62.3679 30.446C62.3679 27.872 64.0959 25.676 66.9039 25.676C69.7839 25.676 71.4579 27.872 71.4579 30.446C71.4579 33.002 69.7839 35.198 66.9039 35.198C64.0959 35.198 62.3679 33.002 62.3679 30.446ZM79.6421 29.906C79.6421 28.484 78.8321 27.584 77.3561 27.584C75.9701 27.584 74.9081 28.754 74.9261 30.014V35.126H73.0541V25.73H74.9261V27.224C75.5561 26.324 76.3841 25.73 77.5721 25.73C79.4081 25.73 81.5141 27.134 81.5141 29.834V35.126H79.6421V29.906Z" fill="white"/>
<path d="M117.449 1V56" stroke="#712222" stroke-width="1.37983"/>
<path d="M114 56L120.899 56" stroke="#712222" stroke-width="1.37983"/>
<path d="M114 1L120.899 1" stroke="#712222" stroke-width="1.37983"/>
<rect x="125.039" y="14" width="30.7983" height="29" rx="5.51933" fill="#712222"/>
<path d="M134.256 29.419L133.042 29.3776L133.235 24.01H138.533V25.2243H134.408L134.311 27.8597C134.78 27.6114 135.332 27.4734 135.898 27.4734C137.719 27.4734 139.278 28.9498 139.278 30.785C139.278 32.6892 137.719 34.1518 135.898 34.1518C134.352 34.1518 132.959 33.0755 132.614 31.5991L133.801 31.3231C134.021 32.3028 134.822 32.9375 135.898 32.9375C137.154 32.9375 138.064 32.082 138.064 30.785C138.064 29.5569 137.167 28.6876 135.898 28.6876C135.208 28.6876 134.684 28.936 134.256 29.419ZM142.273 29.419L141.059 29.3776L141.252 24.01H146.551V25.2243H142.425L142.329 27.8597C142.798 27.6114 143.35 27.4734 143.915 27.4734C145.737 27.4734 147.296 28.9498 147.296 30.785C147.296 32.6892 145.737 34.1518 143.915 34.1518C142.37 34.1518 140.976 33.0755 140.631 31.5991L141.818 31.3231C142.039 32.3028 142.839 32.9375 143.915 32.9375C145.171 32.9375 146.082 32.082 146.082 30.785C146.082 29.5569 145.185 28.6876 143.915 28.6876C143.226 28.6876 142.701 28.936 142.273 29.419Z" fill="white"/>
</svg>
