<svg width="159" height="38" viewBox="0 0 159 38" fill="none" xmlns="http://www.w3.org/2000/svg">
<path d="M0 9C0 4.58172 3.58172 1 8 1H102C106.418 1 110 4.58172 110 9V29C110 33.4183 106.418 37 102 37H8C3.58172 37 0 33.4183 0 29V9Z" fill="#FF8120"/>
<path d="M35.168 23.48C36.688 23.48 37.536 22.44 37.536 20.984C37.536 19.544 36.688 18.488 35.168 18.488C33.904 18.488 32.768 19.48 32.768 20.984C32.768 22.504 33.904 23.48 35.168 23.48ZM31.104 25V13H32.768V18.28C33.472 17.224 34.496 16.856 35.296 16.856C37.808 16.856 39.2 18.76 39.2 20.984C39.2 23.224 37.792 25.128 35.28 25.128C34.496 25.128 33.504 24.856 32.768 23.688V25H31.104ZM42.4301 21.4C42.4301 22.616 43.1661 23.48 44.4781 23.48C45.7901 23.48 46.6381 22.44 46.6221 21.32V16.728H48.2861V25.112H46.6221V23.864C46.0461 24.712 45.3261 25.112 44.2701 25.112C42.4621 25.112 40.7661 23.8 40.7661 21.48V16.76H42.4301V21.4ZM55.0754 24.904C54.7394 24.984 54.0354 25.112 53.4754 25.08C52.2274 25.016 51.0434 23.944 51.0434 22.552V18.312H49.6194V16.68H51.0434V13.848H52.7074V16.68H54.8674V18.312H52.7074V22.552C52.7074 23.096 53.0434 23.4 53.5874 23.416C53.9554 23.432 54.4194 23.352 54.7074 23.288L55.0754 24.904ZM60.7535 24.904C60.4175 24.984 59.7135 25.112 59.1535 25.08C57.9055 25.016 56.7215 23.944 56.7215 22.552V18.312H55.2975V16.68H56.7215V13.848H58.3855V16.68H60.5455V18.312H58.3855V22.552C58.3855 23.096 58.7215 23.4 59.2655 23.416C59.6335 23.432 60.0975 23.352 60.3855 23.288L60.7535 24.904ZM65.4035 23.528C66.9075 23.528 67.7875 22.44 67.7875 20.952C67.7875 19.448 66.9075 18.36 65.4035 18.36C63.8995 18.36 63.0355 19.448 63.0355 20.952C63.0355 22.44 63.8995 23.528 65.4035 23.528ZM61.3715 20.952C61.3715 18.664 62.9075 16.712 65.4035 16.712C67.9635 16.712 69.4515 18.664 69.4515 20.952C69.4515 23.224 67.9635 25.176 65.4035 25.176C62.9075 25.176 61.3715 23.224 61.3715 20.952ZM76.7096 20.472C76.7096 19.208 75.9896 18.408 74.6776 18.408C73.4456 18.408 72.5016 19.448 72.5176 20.568V25.112H70.8536V16.76H72.5176V18.088C73.0776 17.288 73.8136 16.76 74.8696 16.76C76.5016 16.76 78.3736 18.008 78.3736 20.408V25.112H76.7096V20.472Z" fill="white"/>
<path d="M120.449 1V37" stroke="#712222" stroke-width="1.37983"/>
<path d="M117 37L123.899 37" stroke="#712222" stroke-width="1.37983"/>
<path d="M117 1L123.899 1" stroke="#712222" stroke-width="1.37983"/>
<rect x="128.039" y="4.5" width="30.7983" height="29" rx="5.51933" fill="#712222"/>
<path d="M140.678 19.3532C141.506 19.85 142.196 20.6917 142.196 21.6989C142.196 23.3685 140.733 24.5966 138.898 24.5966C137.077 24.5966 135.6 23.3685 135.6 21.6575H136.814C136.814 22.5268 137.587 23.3961 138.898 23.3961C140.209 23.3961 141.009 22.5406 141.009 21.6575C141.009 20.7883 140.443 19.919 138.926 19.919H138.194V18.7599H138.926C140.223 18.7599 140.857 18.001 140.857 17.1869C140.857 16.4142 140.154 15.6277 138.981 15.6277C137.794 15.6277 137.104 16.4004 137.104 17.2007H135.89C135.89 15.6001 137.284 14.441 138.981 14.441C140.678 14.441 142.058 15.6001 142.058 17.1593C142.058 18.0838 141.437 18.8565 140.678 19.3532ZM146.876 23.4099C148.132 23.4099 149.057 22.5544 149.057 21.3126C149.057 20.0983 148.132 19.2152 146.876 19.2152C145.635 19.2152 144.738 20.0983 144.738 21.3126C144.738 22.5544 145.621 23.4099 146.876 23.4099ZM143.523 21.3126C143.523 20.6641 143.717 20.0569 144.048 19.5464L146.918 14.51H148.311L146.283 18.0562C146.49 18.0148 146.697 18.001 146.904 18.001C148.712 18.001 150.271 19.4774 150.271 21.3126C150.271 23.1754 148.725 24.6242 146.904 24.6242C145.096 24.6242 143.523 23.1754 143.523 21.3126Z" fill="white"/>
</svg>
