<svg width="289" height="67" viewBox="0 0 289 67" fill="none" xmlns="http://www.w3.org/2000/svg">
<path d="M3.89113 36.6503C6.07126 36.6503 7.89264 34.829 7.89264 32.635C7.89264 30.4411 6.07126 28.6197 3.89113 28.6197H2.15254V36.6503H3.89113ZM1.15906 37.6162V27.6538H3.89113C6.62319 27.6538 8.85852 29.8892 8.85852 32.635C8.85852 35.3809 6.62319 37.6162 3.89113 37.6162H1.15906ZM15.161 33.6147C15.0506 32.6212 14.5677 31.5587 13.0775 31.5587C11.7666 31.5587 10.9249 32.2625 10.7455 33.6285L15.161 33.6147ZM9.72447 34.1114C9.72447 32.1797 10.8835 30.5653 13.0361 30.5653C15.2714 30.5653 15.8371 32.3039 15.9061 32.4694C16.3201 33.6009 16.1545 34.5944 16.1545 34.5944H10.7455C10.9249 35.8914 11.7666 36.6641 13.0499 36.6641C14.6367 36.6641 15.023 35.7948 15.1196 35.6568L15.9751 36.1122C15.9751 36.1122 15.3956 37.6576 13.0361 37.6576C10.8835 37.6576 9.72447 36.0294 9.72447 34.1114ZM18.9683 37.6162H17.9748V31.5587H16.7053V30.5929H17.9748V29.2406C17.9748 28.1092 18.8993 27.1847 20.0445 27.1847C20.5689 27.1847 21.0518 27.3917 21.4106 27.709L20.7483 28.4541C20.5275 28.261 20.3481 28.1782 20.0445 28.1782C19.3822 28.1782 18.9683 28.5921 18.9683 29.2406V30.5929H20.9966V31.5587H18.9683V37.6162ZM25.0001 36.7193C26.2419 36.7193 27.3596 35.712 27.3734 34.1666C27.3596 32.635 26.2419 31.6139 25.0001 31.6139C23.4685 31.6139 22.6406 32.7178 22.6406 34.1666C22.6406 35.6155 23.4685 36.7193 25.0001 36.7193ZM21.6471 34.1666C21.6471 32.2487 22.8475 30.6343 24.9863 30.6343C25.8004 30.6343 26.7111 31.062 27.3458 32.0831V30.5929H28.3393V37.6162H27.3458V36.2364C26.6835 37.3126 25.8142 37.7128 24.9863 37.7128C22.8475 37.7128 21.6471 36.0708 21.6471 34.1666ZM30.7236 34.7324C30.7236 35.7948 31.3859 36.6503 32.545 36.6503C33.8558 36.6503 34.6285 35.5465 34.6285 34.6082V30.5377H35.622V37.6162H34.6285V36.4296C34.118 37.1885 33.5522 37.6162 32.5036 37.6162C30.8754 37.6162 29.7301 36.3744 29.7301 34.8427V30.5929H30.7236V34.7324ZM37.0094 27.3779H38.0028V37.6162H37.0094V27.3779ZM43.1385 37.4644C42.8901 37.5196 42.5176 37.5886 42.1174 37.5886C41.0688 37.5886 40.2271 36.7469 40.2271 35.712V31.5036H39.0818V30.5377H40.2271V28.3713H41.2205V30.5377H42.8625V31.5036H41.2205V35.712C41.2205 36.264 41.5517 36.5951 42.1174 36.5951C42.4348 36.5951 42.697 36.5537 42.9177 36.4985L43.1385 37.4644Z" fill="#616161"/>
<path d="M171.099 33.1159C171.099 27.7814 166.775 23.457 161.44 23.457H147.642C142.308 23.457 137.983 27.7814 137.983 33.1159C137.983 38.4503 142.308 42.7747 147.642 42.7747H161.44C166.775 42.7747 171.099 38.4503 171.099 33.1159Z" fill="#BDBDBD"/>
<g filter="url(#filter0_dd_827_22626)">
<circle cx="13.7983" cy="13.7983" r="13.7983" transform="matrix(-1 0 0 1 149.022 19.3174)" fill="white"/>
</g>
<path d="M263.548 33.1159C263.548 27.7814 259.224 23.457 253.889 23.457H240.091C234.756 23.457 230.432 27.7814 230.432 33.1159C230.432 38.4503 234.756 42.7747 240.091 42.7747H253.889C259.224 42.7747 263.548 38.4503 263.548 33.1159Z" fill="#FF8120"/>
<g filter="url(#filter1_dd_827_22626)">
<circle cx="13.7983" cy="13.7983" r="13.7983" transform="matrix(-1 0 0 1 280.106 19.3174)" fill="white"/>
</g>
<defs>
<filter id="filter0_dd_827_22626" x="117.425" y="17.3174" width="35.5966" height="35.5967" filterUnits="userSpaceOnUse" color-interpolation-filters="sRGB">
<feFlood flood-opacity="0" result="BackgroundImageFix"/>
<feColorMatrix in="SourceAlpha" type="matrix" values="0 0 0 0 0 0 0 0 0 0 0 0 0 0 0 0 0 0 127 0" result="hardAlpha"/>
<feOffset/>
<feGaussianBlur stdDeviation="1"/>
<feComposite in2="hardAlpha" operator="out"/>
<feColorMatrix type="matrix" values="0 0 0 0 0 0 0 0 0 0 0 0 0 0 0 0 0 0 0.12 0"/>
<feBlend mode="normal" in2="BackgroundImageFix" result="effect1_dropShadow_827_22626"/>
<feColorMatrix in="SourceAlpha" type="matrix" values="0 0 0 0 0 0 0 0 0 0 0 0 0 0 0 0 0 0 127 0" result="hardAlpha"/>
<feOffset dy="2"/>
<feGaussianBlur stdDeviation="2"/>
<feComposite in2="hardAlpha" operator="out"/>
<feColorMatrix type="matrix" values="0 0 0 0 0 0 0 0 0 0 0 0 0 0 0 0 0 0 0.12 0"/>
<feBlend mode="normal" in2="effect1_dropShadow_827_22626" result="effect2_dropShadow_827_22626"/>
<feBlend mode="normal" in="SourceGraphic" in2="effect2_dropShadow_827_22626" result="shape"/>
</filter>
<filter id="filter1_dd_827_22626" x="248.509" y="17.3174" width="35.5966" height="35.5967" filterUnits="userSpaceOnUse" color-interpolation-filters="sRGB">
<feFlood flood-opacity="0" result="BackgroundImageFix"/>
<feColorMatrix in="SourceAlpha" type="matrix" values="0 0 0 0 0 0 0 0 0 0 0 0 0 0 0 0 0 0 127 0" result="hardAlpha"/>
<feOffset/>
<feGaussianBlur stdDeviation="1"/>
<feComposite in2="hardAlpha" operator="out"/>
<feColorMatrix type="matrix" values="0 0 0 0 0 0 0 0 0 0 0 0 0 0 0 0 0 0 0.12 0"/>
<feBlend mode="normal" in2="BackgroundImageFix" result="effect1_dropShadow_827_22626"/>
<feColorMatrix in="SourceAlpha" type="matrix" values="0 0 0 0 0 0 0 0 0 0 0 0 0 0 0 0 0 0 127 0" result="hardAlpha"/>
<feOffset dy="2"/>
<feGaussianBlur stdDeviation="2"/>
<feComposite in2="hardAlpha" operator="out"/>
<feColorMatrix type="matrix" values="0 0 0 0 0 0 0 0 0 0 0 0 0 0 0 0 0 0 0.12 0"/>
<feBlend mode="normal" in2="effect1_dropShadow_827_22626" result="effect2_dropShadow_827_22626"/>
<feBlend mode="normal" in="SourceGraphic" in2="effect2_dropShadow_827_22626" result="shape"/>
</filter>
</defs>
</svg>
