<svg width="89" height="85" viewBox="0 0 89 85" fill="none" xmlns="http://www.w3.org/2000/svg">
<mask id="path-1-inside-1_1239_48408" fill="white">
<path d="M0 60.5732C0 58.3641 1.79086 56.5732 4 56.5732H23.5966C25.8058 56.5732 27.5966 58.3641 27.5966 60.5732V80.1699C27.5966 82.379 25.8058 84.1699 23.5966 84.1699H4C1.79086 84.1699 0 82.379 0 80.1699V60.5732Z"/>
</mask>
<path d="M0 60.5732C0 58.3641 1.79086 56.5732 4 56.5732H23.5966C25.8058 56.5732 27.5966 58.3641 27.5966 60.5732V80.1699C27.5966 82.379 25.8058 84.1699 23.5966 84.1699H4C1.79086 84.1699 0 82.379 0 80.1699V60.5732Z" fill="white"/>
<path d="M4 56.5732V57.9531H23.5966V56.5732V55.1934H4V56.5732ZM27.5966 60.5732H26.2168V80.1699H27.5966H28.9765V60.5732H27.5966ZM23.5966 84.1699V82.79H4V84.1699V85.5497H23.5966V84.1699ZM0 80.1699H1.37983V60.5732H0H-1.37983V80.1699H0ZM4 84.1699V82.79C2.55292 82.79 1.37983 81.617 1.37983 80.1699H0H-1.37983C-1.37983 83.1411 1.0288 85.5497 4 85.5497V84.1699ZM27.5966 80.1699H26.2168C26.2168 81.617 25.0437 82.79 23.5966 82.79V84.1699V85.5497C26.5678 85.5497 28.9765 83.1411 28.9765 80.1699H27.5966ZM23.5966 56.5732V57.9531C25.0437 57.9531 26.2168 59.1262 26.2168 60.5732H27.5966H28.9765C28.9765 57.602 26.5678 55.1934 23.5966 55.1934V56.5732ZM4 56.5732V55.1934C1.0288 55.1934 -1.37983 57.602 -1.37983 60.5732H0H1.37983C1.37983 59.1262 2.55292 57.9531 4 57.9531V56.5732Z" fill="#E0E0E0" mask="url(#path-1-inside-1_1239_48408)"/>
<path d="M60.7124 60.5732C60.7124 58.3641 62.5033 56.5732 64.7124 56.5732H84.309C86.5182 56.5732 88.309 58.3641 88.309 60.5732V80.1699C88.309 82.379 86.5182 84.1699 84.309 84.1699H64.7124C62.5033 84.1699 60.7124 82.379 60.7124 80.1699V60.5732Z" fill="#FF8120"/>
<path fill-rule="evenodd" clip-rule="evenodd" d="M82.0406 64.911C82.5794 65.4498 82.5794 66.3235 82.0406 66.8624L73.0717 75.8313C72.5328 76.3701 71.6592 76.3701 71.1203 75.8313L66.9808 71.6918C66.4419 71.1529 66.4419 70.2792 66.9808 69.7404C67.5197 69.2015 68.3933 69.2015 68.9322 69.7404L72.096 72.9042L80.0892 64.911C80.6281 64.3721 81.5017 64.3721 82.0406 64.911Z" fill="white"/>
<rect x="66.2319" width="16.558" height="16.558" rx="8.27899" fill="#333333"/>
<path d="M71.7174 11.2858C73.329 9.74041 75.5257 8.17292 75.5257 6.81516C75.5257 5.90999 74.9517 5.26975 74.1349 5.26975C73.5057 5.26975 72.8765 5.72234 72.5895 6.37362L71.5629 5.92103C72.0044 4.90547 73.0752 4.199 74.1349 4.199C75.6472 4.199 76.6958 5.28079 76.6958 6.81516C76.6958 8.50408 74.8634 10.0053 73.3732 11.2858H76.8283V12.3124H71.8278L71.7174 11.2858Z" fill="white"/>
<path d="M78.1905 44.5967C78.1905 42.5645 76.5431 40.9171 74.5109 40.9171C72.4788 40.9171 70.8314 42.5645 70.8314 44.5967C70.8314 46.6288 72.4788 48.2762 74.5109 48.2762C76.5431 48.2762 78.1905 46.6288 78.1905 44.5967ZM74.5109 44.5967L75.2008 44.5967L75.2008 16.558L74.5109 16.558L73.821 16.558L73.821 44.5967L74.5109 44.5967Z" fill="#333333"/>
<rect x="5.51904" y="1.37988" width="16.558" height="16.558" rx="8.27899" fill="#333333"/>
<path d="M14.8304 5.66719V13.6923L13.6603 13.6813V6.91456L12.2474 7.69831L11.7617 6.71587L13.6713 5.66719H14.8304Z" fill="white"/>
<path d="M17.4776 45.9766C17.4776 43.9444 15.8302 42.297 13.798 42.297C11.7659 42.297 10.1185 43.9444 10.1185 45.9766C10.1185 48.0087 11.7659 49.6561 13.798 49.6561C15.8302 49.6561 17.4776 48.0087 17.4776 45.9766ZM13.798 45.9766L14.488 45.9766L14.488 17.9379L13.798 17.9379L13.1081 17.9379L13.1081 45.9766L13.798 45.9766Z" fill="#333333"/>
</svg>
