<svg width="120" height="120" viewBox="0 0 120 120" fill="none" xmlns="http://www.w3.org/2000/svg">
<rect x="0.5" y="0.5" width="119" height="119" rx="7.5" fill="white"/>
<rect x="0.5" y="0.5" width="119" height="119" rx="7.5" stroke="#333333"/>
<path d="M112 8H8V112H112V8Z" fill="white"/>
<path d="M39.2679 13.4379C40.0187 13.4379 40.6274 12.8293 40.6274 12.0785C40.6274 11.3277 40.0187 10.719 39.2679 10.719C38.5171 10.719 37.9084 11.3277 37.9084 12.0785C37.9084 12.8293 38.5171 13.4379 39.2679 13.4379Z" fill="black"/>
<path d="M63.0588 13.4379C63.8096 13.4379 64.4183 12.8293 64.4183 12.0785C64.4183 11.3277 63.8096 10.719 63.0588 10.719C62.308 10.719 61.6993 11.3277 61.6993 12.0785C61.6993 12.8293 62.308 13.4379 63.0588 13.4379Z" fill="black"/>
<path d="M66.4575 13.4379C67.2083 13.4379 67.817 12.8293 67.817 12.0785C67.817 11.3277 67.2083 10.719 66.4575 10.719C65.7067 10.719 65.098 11.3277 65.098 12.0785C65.098 12.8293 65.7067 13.4379 66.4575 13.4379Z" fill="black"/>
<path d="M69.8562 13.4379C70.607 13.4379 71.2157 12.8293 71.2157 12.0785C71.2157 11.3277 70.607 10.719 69.8562 10.719C69.1054 10.719 68.4967 11.3277 68.4967 12.0785C68.4967 12.8293 69.1054 13.4379 69.8562 13.4379Z" fill="black"/>
<path d="M73.2549 13.4379C74.0057 13.4379 74.6143 12.8293 74.6143 12.0785C74.6143 11.3277 74.0057 10.719 73.2549 10.719C72.504 10.719 71.8954 11.3277 71.8954 12.0785C71.8954 12.8293 72.504 13.4379 73.2549 13.4379Z" fill="black"/>
<path d="M39.2679 16.8366C40.0187 16.8366 40.6274 16.228 40.6274 15.4772C40.6274 14.7263 40.0187 14.1177 39.2679 14.1177C38.5171 14.1177 37.9084 14.7263 37.9084 15.4772C37.9084 16.228 38.5171 16.8366 39.2679 16.8366Z" fill="black"/>
<path d="M49.4641 16.8366C50.2149 16.8366 50.8236 16.228 50.8236 15.4772C50.8236 14.7263 50.2149 14.1177 49.4641 14.1177C48.7133 14.1177 48.1046 14.7263 48.1046 15.4772C48.1046 16.228 48.7133 16.8366 49.4641 16.8366Z" fill="black"/>
<path d="M52.8628 16.8366C53.6136 16.8366 54.2223 16.228 54.2223 15.4772C54.2223 14.7263 53.6136 14.1177 52.8628 14.1177C52.112 14.1177 51.5033 14.7263 51.5033 15.4772C51.5033 16.228 52.112 16.8366 52.8628 16.8366Z" fill="black"/>
<path d="M66.4575 16.8366C67.2083 16.8366 67.817 16.228 67.817 15.4772C67.817 14.7263 67.2083 14.1177 66.4575 14.1177C65.7067 14.1177 65.098 14.7263 65.098 15.4772C65.098 16.228 65.7067 16.8366 66.4575 16.8366Z" fill="black"/>
<path d="M69.8562 16.8366C70.607 16.8366 71.2157 16.228 71.2157 15.4772C71.2157 14.7263 70.607 14.1177 69.8562 14.1177C69.1054 14.1177 68.4967 14.7263 68.4967 15.4772C68.4967 16.228 69.1054 16.8366 69.8562 16.8366Z" fill="black"/>
<path d="M80.0523 16.8366C80.8032 16.8366 81.4118 16.228 81.4118 15.4772C81.4118 14.7263 80.8032 14.1177 80.0523 14.1177C79.3015 14.1177 78.6929 14.7263 78.6929 15.4772C78.6929 16.228 79.3015 16.8366 80.0523 16.8366Z" fill="black"/>
<path d="M39.2679 20.2353C40.0187 20.2353 40.6274 19.6267 40.6274 18.8758C40.6274 18.125 40.0187 17.5164 39.2679 17.5164C38.5171 17.5164 37.9084 18.125 37.9084 18.8758C37.9084 19.6267 38.5171 20.2353 39.2679 20.2353Z" fill="black"/>
<path d="M63.0588 20.2353C63.8096 20.2353 64.4183 19.6267 64.4183 18.8758C64.4183 18.125 63.8096 17.5164 63.0588 17.5164C62.308 17.5164 61.6993 18.125 61.6993 18.8758C61.6993 19.6267 62.308 20.2353 63.0588 20.2353Z" fill="black"/>
<path d="M66.4575 20.2353C67.2083 20.2353 67.817 19.6267 67.817 18.8758C67.817 18.125 67.2083 17.5164 66.4575 17.5164C65.7067 17.5164 65.098 18.125 65.098 18.8758C65.098 19.6267 65.7067 20.2353 66.4575 20.2353Z" fill="black"/>
<path d="M73.2549 20.2353C74.0057 20.2353 74.6143 19.6267 74.6143 18.8758C74.6143 18.125 74.0057 17.5164 73.2549 17.5164C72.504 17.5164 71.8954 18.125 71.8954 18.8758C71.8954 19.6267 72.504 20.2353 73.2549 20.2353Z" fill="black"/>
<path d="M42.6666 23.634C43.4174 23.634 44.0261 23.0253 44.0261 22.2745C44.0261 21.5237 43.4174 20.915 42.6666 20.915C41.9158 20.915 41.3071 21.5237 41.3071 22.2745C41.3071 23.0253 41.9158 23.634 42.6666 23.634Z" fill="black"/>
<path d="M52.8628 23.634C53.6136 23.634 54.2223 23.0253 54.2223 22.2745C54.2223 21.5237 53.6136 20.915 52.8628 20.915C52.112 20.915 51.5033 21.5237 51.5033 22.2745C51.5033 23.0253 52.112 23.634 52.8628 23.634Z" fill="black"/>
<path d="M66.4575 23.634C67.2083 23.634 67.817 23.0253 67.817 22.2745C67.817 21.5237 67.2083 20.915 66.4575 20.915C65.7067 20.915 65.098 21.5237 65.098 22.2745C65.098 23.0253 65.7067 23.634 66.4575 23.634Z" fill="black"/>
<path d="M69.8562 23.634C70.607 23.634 71.2157 23.0253 71.2157 22.2745C71.2157 21.5237 70.607 20.915 69.8562 20.915C69.1054 20.915 68.4967 21.5237 68.4967 22.2745C68.4967 23.0253 69.1054 23.634 69.8562 23.634Z" fill="black"/>
<path d="M73.2549 23.634C74.0057 23.634 74.6143 23.0253 74.6143 22.2745C74.6143 21.5237 74.0057 20.915 73.2549 20.915C72.504 20.915 71.8954 21.5237 71.8954 22.2745C71.8954 23.0253 72.504 23.634 73.2549 23.634Z" fill="black"/>
<path d="M80.0523 23.634C80.8032 23.634 81.4118 23.0253 81.4118 22.2745C81.4118 21.5237 80.8032 20.915 80.0523 20.915C79.3015 20.915 78.6929 21.5237 78.6929 22.2745C78.6929 23.0253 79.3015 23.634 80.0523 23.634Z" fill="black"/>
<path d="M39.2679 27.0327C40.0187 27.0327 40.6274 26.424 40.6274 25.6732C40.6274 24.9224 40.0187 24.3137 39.2679 24.3137C38.5171 24.3137 37.9084 24.9224 37.9084 25.6732C37.9084 26.424 38.5171 27.0327 39.2679 27.0327Z" fill="black"/>
<path d="M42.6666 27.0327C43.4174 27.0327 44.0261 26.424 44.0261 25.6732C44.0261 24.9224 43.4174 24.3137 42.6666 24.3137C41.9158 24.3137 41.3071 24.9224 41.3071 25.6732C41.3071 26.424 41.9158 27.0327 42.6666 27.0327Z" fill="black"/>
<path d="M46.0654 27.0327C46.8162 27.0327 47.4249 26.424 47.4249 25.6732C47.4249 24.9224 46.8162 24.3137 46.0654 24.3137C45.3146 24.3137 44.7059 24.9224 44.7059 25.6732C44.7059 26.424 45.3146 27.0327 46.0654 27.0327Z" fill="black"/>
<path d="M49.4641 27.0327C50.2149 27.0327 50.8236 26.424 50.8236 25.6732C50.8236 24.9224 50.2149 24.3137 49.4641 24.3137C48.7133 24.3137 48.1046 24.9224 48.1046 25.6732C48.1046 26.424 48.7133 27.0327 49.4641 27.0327Z" fill="black"/>
<path d="M52.8628 27.0327C53.6136 27.0327 54.2223 26.424 54.2223 25.6732C54.2223 24.9224 53.6136 24.3137 52.8628 24.3137C52.112 24.3137 51.5033 24.9224 51.5033 25.6732C51.5033 26.424 52.112 27.0327 52.8628 27.0327Z" fill="black"/>
<path d="M59.6601 27.0327C60.411 27.0327 61.0196 26.424 61.0196 25.6732C61.0196 24.9224 60.411 24.3137 59.6601 24.3137C58.9093 24.3137 58.3007 24.9224 58.3007 25.6732C58.3007 26.424 58.9093 27.0327 59.6601 27.0327Z" fill="black"/>
<path d="M63.0588 27.0327C63.8096 27.0327 64.4183 26.424 64.4183 25.6732C64.4183 24.9224 63.8096 24.3137 63.0588 24.3137C62.308 24.3137 61.6993 24.9224 61.6993 25.6732C61.6993 26.424 62.308 27.0327 63.0588 27.0327Z" fill="black"/>
<path d="M66.4575 27.0327C67.2083 27.0327 67.817 26.424 67.817 25.6732C67.817 24.9224 67.2083 24.3137 66.4575 24.3137C65.7067 24.3137 65.098 24.9224 65.098 25.6732C65.098 26.424 65.7067 27.0327 66.4575 27.0327Z" fill="black"/>
<path d="M69.8562 27.0327C70.607 27.0327 71.2157 26.424 71.2157 25.6732C71.2157 24.9224 70.607 24.3137 69.8562 24.3137C69.1054 24.3137 68.4967 24.9224 68.4967 25.6732C68.4967 26.424 69.1054 27.0327 69.8562 27.0327Z" fill="black"/>
<path d="M76.6535 27.0327C77.4044 27.0327 78.013 26.424 78.013 25.6732C78.013 24.9224 77.4044 24.3137 76.6535 24.3137C75.9027 24.3137 75.2941 24.9224 75.2941 25.6732C75.2941 26.424 75.9027 27.0327 76.6535 27.0327Z" fill="black"/>
<path d="M80.0523 27.0327C80.8032 27.0327 81.4118 26.424 81.4118 25.6732C81.4118 24.9224 80.8032 24.3137 80.0523 24.3137C79.3015 24.3137 78.6929 24.9224 78.6929 25.6732C78.6929 26.424 79.3015 27.0327 80.0523 27.0327Z" fill="black"/>
<path d="M46.0654 30.4314C46.8162 30.4314 47.4249 29.8227 47.4249 29.0719C47.4249 28.3211 46.8162 27.7124 46.0654 27.7124C45.3146 27.7124 44.7059 28.3211 44.7059 29.0719C44.7059 29.8227 45.3146 30.4314 46.0654 30.4314Z" fill="black"/>
<path d="M49.4641 30.4314C50.2149 30.4314 50.8236 29.8227 50.8236 29.0719C50.8236 28.3211 50.2149 27.7124 49.4641 27.7124C48.7133 27.7124 48.1046 28.3211 48.1046 29.0719C48.1046 29.8227 48.7133 30.4314 49.4641 30.4314Z" fill="black"/>
<path d="M63.0588 30.4314C63.8096 30.4314 64.4183 29.8227 64.4183 29.0719C64.4183 28.3211 63.8096 27.7124 63.0588 27.7124C62.308 27.7124 61.6993 28.3211 61.6993 29.0719C61.6993 29.8227 62.308 30.4314 63.0588 30.4314Z" fill="black"/>
<path d="M66.4575 30.4314C67.2083 30.4314 67.817 29.8227 67.817 29.0719C67.817 28.3211 67.2083 27.7124 66.4575 27.7124C65.7067 27.7124 65.098 28.3211 65.098 29.0719C65.098 29.8227 65.7067 30.4314 66.4575 30.4314Z" fill="black"/>
<path d="M80.0523 30.4314C80.8032 30.4314 81.4118 29.8227 81.4118 29.0719C81.4118 28.3211 80.8032 27.7124 80.0523 27.7124C79.3015 27.7124 78.6929 28.3211 78.6929 29.0719C78.6929 29.8227 79.3015 30.4314 80.0523 30.4314Z" fill="black"/>
<path d="M39.2679 33.83C40.0187 33.83 40.6274 33.2214 40.6274 32.4706C40.6274 31.7197 40.0187 31.1111 39.2679 31.1111C38.5171 31.1111 37.9084 31.7197 37.9084 32.4706C37.9084 33.2214 38.5171 33.83 39.2679 33.83Z" fill="black"/>
<path d="M46.0654 33.83C46.8162 33.83 47.4249 33.2214 47.4249 32.4706C47.4249 31.7197 46.8162 31.1111 46.0654 31.1111C45.3146 31.1111 44.7059 31.7197 44.7059 32.4706C44.7059 33.2214 45.3146 33.83 46.0654 33.83Z" fill="black"/>
<path d="M52.8628 33.83C53.6136 33.83 54.2223 33.2214 54.2223 32.4706C54.2223 31.7197 53.6136 31.1111 52.8628 31.1111C52.112 31.1111 51.5033 31.7197 51.5033 32.4706C51.5033 33.2214 52.112 33.83 52.8628 33.83Z" fill="black"/>
<path d="M59.6601 33.83C60.411 33.83 61.0196 33.2214 61.0196 32.4706C61.0196 31.7197 60.411 31.1111 59.6601 31.1111C58.9093 31.1111 58.3007 31.7197 58.3007 32.4706C58.3007 33.2214 58.9093 33.83 59.6601 33.83Z" fill="black"/>
<path d="M66.4575 33.83C67.2083 33.83 67.817 33.2214 67.817 32.4706C67.817 31.7197 67.2083 31.1111 66.4575 31.1111C65.7067 31.1111 65.098 31.7197 65.098 32.4706C65.098 33.2214 65.7067 33.83 66.4575 33.83Z" fill="black"/>
<path d="M73.2549 33.83C74.0057 33.83 74.6143 33.2214 74.6143 32.4706C74.6143 31.7197 74.0057 31.1111 73.2549 31.1111C72.504 31.1111 71.8954 31.7197 71.8954 32.4706C71.8954 33.2214 72.504 33.83 73.2549 33.83Z" fill="black"/>
<path d="M80.0523 33.83C80.8032 33.83 81.4118 33.2214 81.4118 32.4706C81.4118 31.7197 80.8032 31.1111 80.0523 31.1111C79.3015 31.1111 78.6929 31.7197 78.6929 32.4706C78.6929 33.2214 79.3015 33.83 80.0523 33.83Z" fill="black"/>
<path d="M46.0654 37.2287C46.8162 37.2287 47.4249 36.6201 47.4249 35.8692C47.4249 35.1184 46.8162 34.5098 46.0654 34.5098C45.3146 34.5098 44.7059 35.1184 44.7059 35.8692C44.7059 36.6201 45.3146 37.2287 46.0654 37.2287Z" fill="black"/>
<path d="M52.8628 37.2287C53.6136 37.2287 54.2223 36.6201 54.2223 35.8692C54.2223 35.1184 53.6136 34.5098 52.8628 34.5098C52.112 34.5098 51.5033 35.1184 51.5033 35.8692C51.5033 36.6201 52.112 37.2287 52.8628 37.2287Z" fill="black"/>
<path d="M56.2615 37.2287C57.0123 37.2287 57.6209 36.6201 57.6209 35.8692C57.6209 35.1184 57.0123 34.5098 56.2615 34.5098C55.5106 34.5098 54.902 35.1184 54.902 35.8692C54.902 36.6201 55.5106 37.2287 56.2615 37.2287Z" fill="black"/>
<path d="M63.0588 37.2287C63.8096 37.2287 64.4183 36.6201 64.4183 35.8692C64.4183 35.1184 63.8096 34.5098 63.0588 34.5098C62.308 34.5098 61.6993 35.1184 61.6993 35.8692C61.6993 36.6201 62.308 37.2287 63.0588 37.2287Z" fill="black"/>
<path d="M66.4575 37.2287C67.2083 37.2287 67.817 36.6201 67.817 35.8692C67.817 35.1184 67.2083 34.5098 66.4575 34.5098C65.7067 34.5098 65.098 35.1184 65.098 35.8692C65.098 36.6201 65.7067 37.2287 66.4575 37.2287Z" fill="black"/>
<path d="M69.8562 37.2287C70.607 37.2287 71.2157 36.6201 71.2157 35.8692C71.2157 35.1184 70.607 34.5098 69.8562 34.5098C69.1054 34.5098 68.4967 35.1184 68.4967 35.8692C68.4967 36.6201 69.1054 37.2287 69.8562 37.2287Z" fill="black"/>
<path d="M73.2549 37.2287C74.0057 37.2287 74.6143 36.6201 74.6143 35.8692C74.6143 35.1184 74.0057 34.5098 73.2549 34.5098C72.504 34.5098 71.8954 35.1184 71.8954 35.8692C71.8954 36.6201 72.504 37.2287 73.2549 37.2287Z" fill="black"/>
<path d="M12.0785 40.6274C12.8293 40.6274 13.4379 40.0187 13.4379 39.2679C13.4379 38.5171 12.8293 37.9084 12.0785 37.9084C11.3277 37.9084 10.719 38.5171 10.719 39.2679C10.719 40.0187 11.3277 40.6274 12.0785 40.6274Z" fill="black"/>
<path d="M22.2745 40.6274C23.0253 40.6274 23.634 40.0187 23.634 39.2679C23.634 38.5171 23.0253 37.9084 22.2745 37.9084C21.5237 37.9084 20.915 38.5171 20.915 39.2679C20.915 40.0187 21.5237 40.6274 22.2745 40.6274Z" fill="black"/>
<path d="M25.6732 40.6274C26.424 40.6274 27.0327 40.0187 27.0327 39.2679C27.0327 38.5171 26.424 37.9084 25.6732 37.9084C24.9224 37.9084 24.3137 38.5171 24.3137 39.2679C24.3137 40.0187 24.9224 40.6274 25.6732 40.6274Z" fill="black"/>
<path d="M29.0719 40.6274C29.8227 40.6274 30.4314 40.0187 30.4314 39.2679C30.4314 38.5171 29.8227 37.9084 29.0719 37.9084C28.3211 37.9084 27.7124 38.5171 27.7124 39.2679C27.7124 40.0187 28.3211 40.6274 29.0719 40.6274Z" fill="black"/>
<path d="M32.4706 40.6274C33.2214 40.6274 33.83 40.0187 33.83 39.2679C33.83 38.5171 33.2214 37.9084 32.4706 37.9084C31.7197 37.9084 31.1111 38.5171 31.1111 39.2679C31.1111 40.0187 31.7197 40.6274 32.4706 40.6274Z" fill="black"/>
<path d="M35.8692 40.6274C36.6201 40.6274 37.2287 40.0187 37.2287 39.2679C37.2287 38.5171 36.6201 37.9084 35.8692 37.9084C35.1184 37.9084 34.5098 38.5171 34.5098 39.2679C34.5098 40.0187 35.1184 40.6274 35.8692 40.6274Z" fill="black"/>
<path d="M39.2679 40.6274C40.0187 40.6274 40.6274 40.0187 40.6274 39.2679C40.6274 38.5171 40.0187 37.9084 39.2679 37.9084C38.5171 37.9084 37.9084 38.5171 37.9084 39.2679C37.9084 40.0187 38.5171 40.6274 39.2679 40.6274Z" fill="black"/>
<path d="M46.0654 40.6274C46.8162 40.6274 47.4249 40.0187 47.4249 39.2679C47.4249 38.5171 46.8162 37.9084 46.0654 37.9084C45.3146 37.9084 44.7059 38.5171 44.7059 39.2679C44.7059 40.0187 45.3146 40.6274 46.0654 40.6274Z" fill="black"/>
<path d="M52.8628 40.6274C53.6136 40.6274 54.2223 40.0187 54.2223 39.2679C54.2223 38.5171 53.6136 37.9084 52.8628 37.9084C52.112 37.9084 51.5033 38.5171 51.5033 39.2679C51.5033 40.0187 52.112 40.6274 52.8628 40.6274Z" fill="black"/>
<path d="M56.2615 40.6274C57.0123 40.6274 57.6209 40.0187 57.6209 39.2679C57.6209 38.5171 57.0123 37.9084 56.2615 37.9084C55.5106 37.9084 54.902 38.5171 54.902 39.2679C54.902 40.0187 55.5106 40.6274 56.2615 40.6274Z" fill="black"/>
<path d="M69.8562 40.6274C70.607 40.6274 71.2157 40.0187 71.2157 39.2679C71.2157 38.5171 70.607 37.9084 69.8562 37.9084C69.1054 37.9084 68.4967 38.5171 68.4967 39.2679C68.4967 40.0187 69.1054 40.6274 69.8562 40.6274Z" fill="black"/>
<path d="M76.6535 40.6274C77.4044 40.6274 78.013 40.0187 78.013 39.2679C78.013 38.5171 77.4044 37.9084 76.6535 37.9084C75.9027 37.9084 75.2941 38.5171 75.2941 39.2679C75.2941 40.0187 75.9027 40.6274 76.6535 40.6274Z" fill="black"/>
<path d="M80.0523 40.6274C80.8032 40.6274 81.4118 40.0187 81.4118 39.2679C81.4118 38.5171 80.8032 37.9084 80.0523 37.9084C79.3015 37.9084 78.6929 38.5171 78.6929 39.2679C78.6929 40.0187 79.3015 40.6274 80.0523 40.6274Z" fill="black"/>
<path d="M83.451 40.6274C84.2018 40.6274 84.8105 40.0187 84.8105 39.2679C84.8105 38.5171 84.2018 37.9084 83.451 37.9084C82.7002 37.9084 82.0916 38.5171 82.0916 39.2679C82.0916 40.0187 82.7002 40.6274 83.451 40.6274Z" fill="black"/>
<path d="M93.6471 40.6274C94.3979 40.6274 95.0066 40.0187 95.0066 39.2679C95.0066 38.5171 94.3979 37.9084 93.6471 37.9084C92.8963 37.9084 92.2876 38.5171 92.2876 39.2679C92.2876 40.0187 92.8963 40.6274 93.6471 40.6274Z" fill="black"/>
<path d="M100.444 40.6274C101.195 40.6274 101.804 40.0187 101.804 39.2679C101.804 38.5171 101.195 37.9084 100.444 37.9084C99.6936 37.9084 99.085 38.5171 99.085 39.2679C99.085 40.0187 99.6936 40.6274 100.444 40.6274Z" fill="black"/>
<path d="M103.843 40.6274C104.594 40.6274 105.203 40.0187 105.203 39.2679C105.203 38.5171 104.594 37.9084 103.843 37.9084C103.092 37.9084 102.484 38.5171 102.484 39.2679C102.484 40.0187 103.092 40.6274 103.843 40.6274Z" fill="black"/>
<path d="M107.242 40.6274C107.993 40.6274 108.601 40.0187 108.601 39.2679C108.601 38.5171 107.993 37.9084 107.242 37.9084C106.491 37.9084 105.882 38.5171 105.882 39.2679C105.882 40.0187 106.491 40.6274 107.242 40.6274Z" fill="black"/>
<path d="M22.2745 44.0261C23.0253 44.0261 23.634 43.4174 23.634 42.6666C23.634 41.9158 23.0253 41.3071 22.2745 41.3071C21.5237 41.3071 20.915 41.9158 20.915 42.6666C20.915 43.4174 21.5237 44.0261 22.2745 44.0261Z" fill="black"/>
<path d="M25.6732 44.0261C26.424 44.0261 27.0327 43.4174 27.0327 42.6666C27.0327 41.9158 26.424 41.3071 25.6732 41.3071C24.9224 41.3071 24.3137 41.9158 24.3137 42.6666C24.3137 43.4174 24.9224 44.0261 25.6732 44.0261Z" fill="black"/>
<path d="M39.2679 44.0261C40.0187 44.0261 40.6274 43.4174 40.6274 42.6666C40.6274 41.9158 40.0187 41.3071 39.2679 41.3071C38.5171 41.3071 37.9084 41.9158 37.9084 42.6666C37.9084 43.4174 38.5171 44.0261 39.2679 44.0261Z" fill="black"/>
<path d="M42.6666 44.0261C43.4174 44.0261 44.0261 43.4174 44.0261 42.6666C44.0261 41.9158 43.4174 41.3071 42.6666 41.3071C41.9158 41.3071 41.3071 41.9158 41.3071 42.6666C41.3071 43.4174 41.9158 44.0261 42.6666 44.0261Z" fill="black"/>
<path d="M46.0654 44.0261C46.8162 44.0261 47.4249 43.4174 47.4249 42.6666C47.4249 41.9158 46.8162 41.3071 46.0654 41.3071C45.3146 41.3071 44.7059 41.9158 44.7059 42.6666C44.7059 43.4174 45.3146 44.0261 46.0654 44.0261Z" fill="black"/>
<path d="M56.2615 44.0261C57.0123 44.0261 57.6209 43.4174 57.6209 42.6666C57.6209 41.9158 57.0123 41.3071 56.2615 41.3071C55.5106 41.3071 54.902 41.9158 54.902 42.6666C54.902 43.4174 55.5106 44.0261 56.2615 44.0261Z" fill="black"/>
<path d="M66.4575 44.0261C67.2083 44.0261 67.817 43.4174 67.817 42.6666C67.817 41.9158 67.2083 41.3071 66.4575 41.3071C65.7067 41.3071 65.098 41.9158 65.098 42.6666C65.098 43.4174 65.7067 44.0261 66.4575 44.0261Z" fill="black"/>
<path d="M83.451 44.0261C84.2018 44.0261 84.8105 43.4174 84.8105 42.6666C84.8105 41.9158 84.2018 41.3071 83.451 41.3071C82.7002 41.3071 82.0916 41.9158 82.0916 42.6666C82.0916 43.4174 82.7002 44.0261 83.451 44.0261Z" fill="black"/>
<path d="M93.6471 44.0261C94.3979 44.0261 95.0066 43.4174 95.0066 42.6666C95.0066 41.9158 94.3979 41.3071 93.6471 41.3071C92.8963 41.3071 92.2876 41.9158 92.2876 42.6666C92.2876 43.4174 92.8963 44.0261 93.6471 44.0261Z" fill="black"/>
<path d="M97.0458 44.0261C97.7966 44.0261 98.4052 43.4174 98.4052 42.6666C98.4052 41.9158 97.7966 41.3071 97.0458 41.3071C96.2949 41.3071 95.6863 41.9158 95.6863 42.6666C95.6863 43.4174 96.2949 44.0261 97.0458 44.0261Z" fill="black"/>
<path d="M100.444 44.0261C101.195 44.0261 101.804 43.4174 101.804 42.6666C101.804 41.9158 101.195 41.3071 100.444 41.3071C99.6936 41.3071 99.085 41.9158 99.085 42.6666C99.085 43.4174 99.6936 44.0261 100.444 44.0261Z" fill="black"/>
<path d="M107.242 44.0261C107.993 44.0261 108.601 43.4174 108.601 42.6666C108.601 41.9158 107.993 41.3071 107.242 41.3071C106.491 41.3071 105.882 41.9158 105.882 42.6666C105.882 43.4174 106.491 44.0261 107.242 44.0261Z" fill="black"/>
<path d="M18.8758 47.4249C19.6267 47.4249 20.2353 46.8162 20.2353 46.0654C20.2353 45.3146 19.6267 44.7059 18.8758 44.7059C18.125 44.7059 17.5164 45.3146 17.5164 46.0654C17.5164 46.8162 18.125 47.4249 18.8758 47.4249Z" fill="black"/>
<path d="M22.2745 47.4249C23.0253 47.4249 23.634 46.8162 23.634 46.0654C23.634 45.3146 23.0253 44.7059 22.2745 44.7059C21.5237 44.7059 20.915 45.3146 20.915 46.0654C20.915 46.8162 21.5237 47.4249 22.2745 47.4249Z" fill="black"/>
<path d="M25.6732 47.4249C26.424 47.4249 27.0327 46.8162 27.0327 46.0654C27.0327 45.3146 26.424 44.7059 25.6732 44.7059C24.9224 44.7059 24.3137 45.3146 24.3137 46.0654C24.3137 46.8162 24.9224 47.4249 25.6732 47.4249Z" fill="black"/>
<path d="M29.0719 47.4249C29.8227 47.4249 30.4314 46.8162 30.4314 46.0654C30.4314 45.3146 29.8227 44.7059 29.0719 44.7059C28.3211 44.7059 27.7124 45.3146 27.7124 46.0654C27.7124 46.8162 28.3211 47.4249 29.0719 47.4249Z" fill="black"/>
<path d="M32.4706 47.4249C33.2214 47.4249 33.83 46.8162 33.83 46.0654C33.83 45.3146 33.2214 44.7059 32.4706 44.7059C31.7197 44.7059 31.1111 45.3146 31.1111 46.0654C31.1111 46.8162 31.7197 47.4249 32.4706 47.4249Z" fill="black"/>
<path d="M42.6666 47.4249C43.4174 47.4249 44.0261 46.8162 44.0261 46.0654C44.0261 45.3146 43.4174 44.7059 42.6666 44.7059C41.9158 44.7059 41.3071 45.3146 41.3071 46.0654C41.3071 46.8162 41.9158 47.4249 42.6666 47.4249Z" fill="black"/>
<path d="M46.0654 47.4249C46.8162 47.4249 47.4249 46.8162 47.4249 46.0654C47.4249 45.3146 46.8162 44.7059 46.0654 44.7059C45.3146 44.7059 44.7059 45.3146 44.7059 46.0654C44.7059 46.8162 45.3146 47.4249 46.0654 47.4249Z" fill="black"/>
<path d="M49.4641 47.4249C50.2149 47.4249 50.8236 46.8162 50.8236 46.0654C50.8236 45.3146 50.2149 44.7059 49.4641 44.7059C48.7133 44.7059 48.1046 45.3146 48.1046 46.0654C48.1046 46.8162 48.7133 47.4249 49.4641 47.4249Z" fill="black"/>
<path d="M56.2615 47.4249C57.0123 47.4249 57.6209 46.8162 57.6209 46.0654C57.6209 45.3146 57.0123 44.7059 56.2615 44.7059C55.5106 44.7059 54.902 45.3146 54.902 46.0654C54.902 46.8162 55.5106 47.4249 56.2615 47.4249Z" fill="black"/>
<path d="M63.0588 47.4249C63.8096 47.4249 64.4183 46.8162 64.4183 46.0654C64.4183 45.3146 63.8096 44.7059 63.0588 44.7059C62.308 44.7059 61.6993 45.3146 61.6993 46.0654C61.6993 46.8162 62.308 47.4249 63.0588 47.4249Z" fill="black"/>
<path d="M66.4575 47.4249C67.2083 47.4249 67.817 46.8162 67.817 46.0654C67.817 45.3146 67.2083 44.7059 66.4575 44.7059C65.7067 44.7059 65.098 45.3146 65.098 46.0654C65.098 46.8162 65.7067 47.4249 66.4575 47.4249Z" fill="black"/>
<path d="M80.0523 47.4249C80.8032 47.4249 81.4118 46.8162 81.4118 46.0654C81.4118 45.3146 80.8032 44.7059 80.0523 44.7059C79.3015 44.7059 78.6929 45.3146 78.6929 46.0654C78.6929 46.8162 79.3015 47.4249 80.0523 47.4249Z" fill="black"/>
<path d="M97.0458 47.4249C97.7966 47.4249 98.4052 46.8162 98.4052 46.0654C98.4052 45.3146 97.7966 44.7059 97.0458 44.7059C96.2949 44.7059 95.6863 45.3146 95.6863 46.0654C95.6863 46.8162 96.2949 47.4249 97.0458 47.4249Z" fill="black"/>
<path d="M12.0785 50.8236C12.8293 50.8236 13.4379 50.2149 13.4379 49.4641C13.4379 48.7133 12.8293 48.1046 12.0785 48.1046C11.3277 48.1046 10.719 48.7133 10.719 49.4641C10.719 50.2149 11.3277 50.8236 12.0785 50.8236Z" fill="black"/>
<path d="M15.4772 50.8236C16.228 50.8236 16.8366 50.2149 16.8366 49.4641C16.8366 48.7133 16.228 48.1046 15.4772 48.1046C14.7263 48.1046 14.1177 48.7133 14.1177 49.4641C14.1177 50.2149 14.7263 50.8236 15.4772 50.8236Z" fill="black"/>
<path d="M18.8758 50.8236C19.6267 50.8236 20.2353 50.2149 20.2353 49.4641C20.2353 48.7133 19.6267 48.1046 18.8758 48.1046C18.125 48.1046 17.5164 48.7133 17.5164 49.4641C17.5164 50.2149 18.125 50.8236 18.8758 50.8236Z" fill="black"/>
<path d="M29.0719 50.8236C29.8227 50.8236 30.4314 50.2149 30.4314 49.4641C30.4314 48.7133 29.8227 48.1046 29.0719 48.1046C28.3211 48.1046 27.7124 48.7133 27.7124 49.4641C27.7124 50.2149 28.3211 50.8236 29.0719 50.8236Z" fill="black"/>
<path d="M35.8692 50.8236C36.6201 50.8236 37.2287 50.2149 37.2287 49.4641C37.2287 48.7133 36.6201 48.1046 35.8692 48.1046C35.1184 48.1046 34.5098 48.7133 34.5098 49.4641C34.5098 50.2149 35.1184 50.8236 35.8692 50.8236Z" fill="black"/>
<path d="M39.2679 50.8236C40.0187 50.8236 40.6274 50.2149 40.6274 49.4641C40.6274 48.7133 40.0187 48.1046 39.2679 48.1046C38.5171 48.1046 37.9084 48.7133 37.9084 49.4641C37.9084 50.2149 38.5171 50.8236 39.2679 50.8236Z" fill="black"/>
<path d="M42.6666 50.8236C43.4174 50.8236 44.0261 50.2149 44.0261 49.4641C44.0261 48.7133 43.4174 48.1046 42.6666 48.1046C41.9158 48.1046 41.3071 48.7133 41.3071 49.4641C41.3071 50.2149 41.9158 50.8236 42.6666 50.8236Z" fill="black"/>
<path d="M49.4641 50.8236C50.2149 50.8236 50.8236 50.2149 50.8236 49.4641C50.8236 48.7133 50.2149 48.1046 49.4641 48.1046C48.7133 48.1046 48.1046 48.7133 48.1046 49.4641C48.1046 50.2149 48.7133 50.8236 49.4641 50.8236Z" fill="black"/>
<path d="M52.8628 50.8236C53.6136 50.8236 54.2223 50.2149 54.2223 49.4641C54.2223 48.7133 53.6136 48.1046 52.8628 48.1046C52.112 48.1046 51.5033 48.7133 51.5033 49.4641C51.5033 50.2149 52.112 50.8236 52.8628 50.8236Z" fill="black"/>
<path d="M56.2615 50.8236C57.0123 50.8236 57.6209 50.2149 57.6209 49.4641C57.6209 48.7133 57.0123 48.1046 56.2615 48.1046C55.5106 48.1046 54.902 48.7133 54.902 49.4641C54.902 50.2149 55.5106 50.8236 56.2615 50.8236Z" fill="black"/>
<path d="M66.4575 50.8236C67.2083 50.8236 67.817 50.2149 67.817 49.4641C67.817 48.7133 67.2083 48.1046 66.4575 48.1046C65.7067 48.1046 65.098 48.7133 65.098 49.4641C65.098 50.2149 65.7067 50.8236 66.4575 50.8236Z" fill="black"/>
<path d="M73.2549 50.8236C74.0057 50.8236 74.6143 50.2149 74.6143 49.4641C74.6143 48.7133 74.0057 48.1046 73.2549 48.1046C72.504 48.1046 71.8954 48.7133 71.8954 49.4641C71.8954 50.2149 72.504 50.8236 73.2549 50.8236Z" fill="black"/>
<path d="M76.6535 50.8236C77.4044 50.8236 78.013 50.2149 78.013 49.4641C78.013 48.7133 77.4044 48.1046 76.6535 48.1046C75.9027 48.1046 75.2941 48.7133 75.2941 49.4641C75.2941 50.2149 75.9027 50.8236 76.6535 50.8236Z" fill="black"/>
<path d="M80.0523 50.8236C80.8032 50.8236 81.4118 50.2149 81.4118 49.4641C81.4118 48.7133 80.8032 48.1046 80.0523 48.1046C79.3015 48.1046 78.6929 48.7133 78.6929 49.4641C78.6929 50.2149 79.3015 50.8236 80.0523 50.8236Z" fill="black"/>
<path d="M93.6471 50.8236C94.3979 50.8236 95.0066 50.2149 95.0066 49.4641C95.0066 48.7133 94.3979 48.1046 93.6471 48.1046C92.8963 48.1046 92.2876 48.7133 92.2876 49.4641C92.2876 50.2149 92.8963 50.8236 93.6471 50.8236Z" fill="black"/>
<path d="M97.0458 50.8236C97.7966 50.8236 98.4052 50.2149 98.4052 49.4641C98.4052 48.7133 97.7966 48.1046 97.0458 48.1046C96.2949 48.1046 95.6863 48.7133 95.6863 49.4641C95.6863 50.2149 96.2949 50.8236 97.0458 50.8236Z" fill="black"/>
<path d="M103.843 50.8236C104.594 50.8236 105.203 50.2149 105.203 49.4641C105.203 48.7133 104.594 48.1046 103.843 48.1046C103.092 48.1046 102.484 48.7133 102.484 49.4641C102.484 50.2149 103.092 50.8236 103.843 50.8236Z" fill="black"/>
<path d="M25.6732 54.2223C26.424 54.2223 27.0327 53.6136 27.0327 52.8628C27.0327 52.112 26.424 51.5033 25.6732 51.5033C24.9224 51.5033 24.3137 52.112 24.3137 52.8628C24.3137 53.6136 24.9224 54.2223 25.6732 54.2223Z" fill="black"/>
<path d="M32.4706 54.2223C33.2214 54.2223 33.83 53.6136 33.83 52.8628C33.83 52.112 33.2214 51.5033 32.4706 51.5033C31.7197 51.5033 31.1111 52.112 31.1111 52.8628C31.1111 53.6136 31.7197 54.2223 32.4706 54.2223Z" fill="black"/>
<path d="M35.8692 54.2223C36.6201 54.2223 37.2287 53.6136 37.2287 52.8628C37.2287 52.112 36.6201 51.5033 35.8692 51.5033C35.1184 51.5033 34.5098 52.112 34.5098 52.8628C34.5098 53.6136 35.1184 54.2223 35.8692 54.2223Z" fill="black"/>
<path d="M42.6666 54.2223C43.4174 54.2223 44.0261 53.6136 44.0261 52.8628C44.0261 52.112 43.4174 51.5033 42.6666 51.5033C41.9158 51.5033 41.3071 52.112 41.3071 52.8628C41.3071 53.6136 41.9158 54.2223 42.6666 54.2223Z" fill="black"/>
<path d="M56.2615 54.2223C57.0123 54.2223 57.6209 53.6136 57.6209 52.8628C57.6209 52.112 57.0123 51.5033 56.2615 51.5033C55.5106 51.5033 54.902 52.112 54.902 52.8628C54.902 53.6136 55.5106 54.2223 56.2615 54.2223Z" fill="black"/>
<path d="M63.0588 54.2223C63.8096 54.2223 64.4183 53.6136 64.4183 52.8628C64.4183 52.112 63.8096 51.5033 63.0588 51.5033C62.308 51.5033 61.6993 52.112 61.6993 52.8628C61.6993 53.6136 62.308 54.2223 63.0588 54.2223Z" fill="black"/>
<path d="M66.4575 54.2223C67.2083 54.2223 67.817 53.6136 67.817 52.8628C67.817 52.112 67.2083 51.5033 66.4575 51.5033C65.7067 51.5033 65.098 52.112 65.098 52.8628C65.098 53.6136 65.7067 54.2223 66.4575 54.2223Z" fill="black"/>
<path d="M69.8562 54.2223C70.607 54.2223 71.2157 53.6136 71.2157 52.8628C71.2157 52.112 70.607 51.5033 69.8562 51.5033C69.1054 51.5033 68.4967 52.112 68.4967 52.8628C68.4967 53.6136 69.1054 54.2223 69.8562 54.2223Z" fill="black"/>
<path d="M76.6535 54.2223C77.4044 54.2223 78.013 53.6136 78.013 52.8628C78.013 52.112 77.4044 51.5033 76.6535 51.5033C75.9027 51.5033 75.2941 52.112 75.2941 52.8628C75.2941 53.6136 75.9027 54.2223 76.6535 54.2223Z" fill="black"/>
<path d="M80.0523 54.2223C80.8032 54.2223 81.4118 53.6136 81.4118 52.8628C81.4118 52.112 80.8032 51.5033 80.0523 51.5033C79.3015 51.5033 78.6929 52.112 78.6929 52.8628C78.6929 53.6136 79.3015 54.2223 80.0523 54.2223Z" fill="black"/>
<path d="M83.451 54.2223C84.2018 54.2223 84.8105 53.6136 84.8105 52.8628C84.8105 52.112 84.2018 51.5033 83.451 51.5033C82.7002 51.5033 82.0916 52.112 82.0916 52.8628C82.0916 53.6136 82.7002 54.2223 83.451 54.2223Z" fill="black"/>
<path d="M90.2484 54.2223C90.9992 54.2223 91.6079 53.6136 91.6079 52.8628C91.6079 52.112 90.9992 51.5033 90.2484 51.5033C89.4976 51.5033 88.8889 52.112 88.8889 52.8628C88.8889 53.6136 89.4976 54.2223 90.2484 54.2223Z" fill="black"/>
<path d="M97.0458 54.2223C97.7966 54.2223 98.4052 53.6136 98.4052 52.8628C98.4052 52.112 97.7966 51.5033 97.0458 51.5033C96.2949 51.5033 95.6863 52.112 95.6863 52.8628C95.6863 53.6136 96.2949 54.2223 97.0458 54.2223Z" fill="black"/>
<path d="M100.444 54.2223C101.195 54.2223 101.804 53.6136 101.804 52.8628C101.804 52.112 101.195 51.5033 100.444 51.5033C99.6936 51.5033 99.085 52.112 99.085 52.8628C99.085 53.6136 99.6936 54.2223 100.444 54.2223Z" fill="black"/>
<path d="M107.242 54.2223C107.993 54.2223 108.601 53.6136 108.601 52.8628C108.601 52.112 107.993 51.5033 107.242 51.5033C106.491 51.5033 105.882 52.112 105.882 52.8628C105.882 53.6136 106.491 54.2223 107.242 54.2223Z" fill="black"/>
<path d="M15.4772 57.6209C16.228 57.6209 16.8366 57.0123 16.8366 56.2615C16.8366 55.5106 16.228 54.902 15.4772 54.902C14.7263 54.902 14.1177 55.5106 14.1177 56.2615C14.1177 57.0123 14.7263 57.6209 15.4772 57.6209Z" fill="black"/>
<path d="M35.8692 57.6209C36.6201 57.6209 37.2287 57.0123 37.2287 56.2615C37.2287 55.5106 36.6201 54.902 35.8692 54.902C35.1184 54.902 34.5098 55.5106 34.5098 56.2615C34.5098 57.0123 35.1184 57.6209 35.8692 57.6209Z" fill="black"/>
<path d="M39.2679 57.6209C40.0187 57.6209 40.6274 57.0123 40.6274 56.2615C40.6274 55.5106 40.0187 54.902 39.2679 54.902C38.5171 54.902 37.9084 55.5106 37.9084 56.2615C37.9084 57.0123 38.5171 57.6209 39.2679 57.6209Z" fill="black"/>
<path d="M46.0654 57.6209C46.8162 57.6209 47.4249 57.0123 47.4249 56.2615C47.4249 55.5106 46.8162 54.902 46.0654 54.902C45.3146 54.902 44.7059 55.5106 44.7059 56.2615C44.7059 57.0123 45.3146 57.6209 46.0654 57.6209Z" fill="black"/>
<path d="M56.2615 57.6209C57.0123 57.6209 57.6209 57.0123 57.6209 56.2615C57.6209 55.5106 57.0123 54.902 56.2615 54.902C55.5106 54.902 54.902 55.5106 54.902 56.2615C54.902 57.0123 55.5106 57.6209 56.2615 57.6209Z" fill="black"/>
<path d="M59.6601 57.6209C60.411 57.6209 61.0196 57.0123 61.0196 56.2615C61.0196 55.5106 60.411 54.902 59.6601 54.902C58.9093 54.902 58.3007 55.5106 58.3007 56.2615C58.3007 57.0123 58.9093 57.6209 59.6601 57.6209Z" fill="black"/>
<path d="M66.4575 57.6209C67.2083 57.6209 67.817 57.0123 67.817 56.2615C67.817 55.5106 67.2083 54.902 66.4575 54.902C65.7067 54.902 65.098 55.5106 65.098 56.2615C65.098 57.0123 65.7067 57.6209 66.4575 57.6209Z" fill="black"/>
<path d="M83.451 57.6209C84.2018 57.6209 84.8105 57.0123 84.8105 56.2615C84.8105 55.5106 84.2018 54.902 83.451 54.902C82.7002 54.902 82.0916 55.5106 82.0916 56.2615C82.0916 57.0123 82.7002 57.6209 83.451 57.6209Z" fill="black"/>
<path d="M90.2484 57.6209C90.9992 57.6209 91.6079 57.0123 91.6079 56.2615C91.6079 55.5106 90.9992 54.902 90.2484 54.902C89.4976 54.902 88.8889 55.5106 88.8889 56.2615C88.8889 57.0123 89.4976 57.6209 90.2484 57.6209Z" fill="black"/>
<path d="M100.444 57.6209C101.195 57.6209 101.804 57.0123 101.804 56.2615C101.804 55.5106 101.195 54.902 100.444 54.902C99.6936 54.902 99.085 55.5106 99.085 56.2615C99.085 57.0123 99.6936 57.6209 100.444 57.6209Z" fill="black"/>
<path d="M12.0785 61.0196C12.8293 61.0196 13.4379 60.411 13.4379 59.6601C13.4379 58.9093 12.8293 58.3007 12.0785 58.3007C11.3277 58.3007 10.719 58.9093 10.719 59.6601C10.719 60.411 11.3277 61.0196 12.0785 61.0196Z" fill="black"/>
<path d="M29.0719 61.0196C29.8227 61.0196 30.4314 60.411 30.4314 59.6601C30.4314 58.9093 29.8227 58.3007 29.0719 58.3007C28.3211 58.3007 27.7124 58.9093 27.7124 59.6601C27.7124 60.411 28.3211 61.0196 29.0719 61.0196Z" fill="black"/>
<path d="M32.4706 61.0196C33.2214 61.0196 33.83 60.411 33.83 59.6601C33.83 58.9093 33.2214 58.3007 32.4706 58.3007C31.7197 58.3007 31.1111 58.9093 31.1111 59.6601C31.1111 60.411 31.7197 61.0196 32.4706 61.0196Z" fill="black"/>
<path d="M56.2615 61.0196C57.0123 61.0196 57.6209 60.411 57.6209 59.6601C57.6209 58.9093 57.0123 58.3007 56.2615 58.3007C55.5106 58.3007 54.902 58.9093 54.902 59.6601C54.902 60.411 55.5106 61.0196 56.2615 61.0196Z" fill="black"/>
<path d="M66.4575 61.0196C67.2083 61.0196 67.817 60.411 67.817 59.6601C67.817 58.9093 67.2083 58.3007 66.4575 58.3007C65.7067 58.3007 65.098 58.9093 65.098 59.6601C65.098 60.411 65.7067 61.0196 66.4575 61.0196Z" fill="black"/>
<path d="M69.8562 61.0196C70.607 61.0196 71.2157 60.411 71.2157 59.6601C71.2157 58.9093 70.607 58.3007 69.8562 58.3007C69.1054 58.3007 68.4967 58.9093 68.4967 59.6601C68.4967 60.411 69.1054 61.0196 69.8562 61.0196Z" fill="black"/>
<path d="M73.2549 61.0196C74.0057 61.0196 74.6143 60.411 74.6143 59.6601C74.6143 58.9093 74.0057 58.3007 73.2549 58.3007C72.504 58.3007 71.8954 58.9093 71.8954 59.6601C71.8954 60.411 72.504 61.0196 73.2549 61.0196Z" fill="black"/>
<path d="M76.6535 61.0196C77.4044 61.0196 78.013 60.411 78.013 59.6601C78.013 58.9093 77.4044 58.3007 76.6535 58.3007C75.9027 58.3007 75.2941 58.9093 75.2941 59.6601C75.2941 60.411 75.9027 61.0196 76.6535 61.0196Z" fill="black"/>
<path d="M80.0523 61.0196C80.8032 61.0196 81.4118 60.411 81.4118 59.6601C81.4118 58.9093 80.8032 58.3007 80.0523 58.3007C79.3015 58.3007 78.6929 58.9093 78.6929 59.6601C78.6929 60.411 79.3015 61.0196 80.0523 61.0196Z" fill="black"/>
<path d="M86.8497 61.0196C87.6005 61.0196 88.2092 60.411 88.2092 59.6601C88.2092 58.9093 87.6005 58.3007 86.8497 58.3007C86.0989 58.3007 85.4902 58.9093 85.4902 59.6601C85.4902 60.411 86.0989 61.0196 86.8497 61.0196Z" fill="black"/>
<path d="M100.444 61.0196C101.195 61.0196 101.804 60.411 101.804 59.6601C101.804 58.9093 101.195 58.3007 100.444 58.3007C99.6936 58.3007 99.085 58.9093 99.085 59.6601C99.085 60.411 99.6936 61.0196 100.444 61.0196Z" fill="black"/>
<path d="M103.843 61.0196C104.594 61.0196 105.203 60.411 105.203 59.6601C105.203 58.9093 104.594 58.3007 103.843 58.3007C103.092 58.3007 102.484 58.9093 102.484 59.6601C102.484 60.411 103.092 61.0196 103.843 61.0196Z" fill="black"/>
<path d="M18.8758 64.4183C19.6267 64.4183 20.2353 63.8096 20.2353 63.0588C20.2353 62.308 19.6267 61.6993 18.8758 61.6993C18.125 61.6993 17.5164 62.308 17.5164 63.0588C17.5164 63.8096 18.125 64.4183 18.8758 64.4183Z" fill="black"/>
<path d="M22.2745 64.4183C23.0253 64.4183 23.634 63.8096 23.634 63.0588C23.634 62.308 23.0253 61.6993 22.2745 61.6993C21.5237 61.6993 20.915 62.308 20.915 63.0588C20.915 63.8096 21.5237 64.4183 22.2745 64.4183Z" fill="black"/>
<path d="M25.6732 64.4183C26.424 64.4183 27.0327 63.8096 27.0327 63.0588C27.0327 62.308 26.424 61.6993 25.6732 61.6993C24.9224 61.6993 24.3137 62.308 24.3137 63.0588C24.3137 63.8096 24.9224 64.4183 25.6732 64.4183Z" fill="black"/>
<path d="M29.0719 64.4183C29.8227 64.4183 30.4314 63.8096 30.4314 63.0588C30.4314 62.308 29.8227 61.6993 29.0719 61.6993C28.3211 61.6993 27.7124 62.308 27.7124 63.0588C27.7124 63.8096 28.3211 64.4183 29.0719 64.4183Z" fill="black"/>
<path d="M39.2679 64.4183C40.0187 64.4183 40.6274 63.8096 40.6274 63.0588C40.6274 62.308 40.0187 61.6993 39.2679 61.6993C38.5171 61.6993 37.9084 62.308 37.9084 63.0588C37.9084 63.8096 38.5171 64.4183 39.2679 64.4183Z" fill="black"/>
<path d="M42.6666 64.4183C43.4174 64.4183 44.0261 63.8096 44.0261 63.0588C44.0261 62.308 43.4174 61.6993 42.6666 61.6993C41.9158 61.6993 41.3071 62.308 41.3071 63.0588C41.3071 63.8096 41.9158 64.4183 42.6666 64.4183Z" fill="black"/>
<path d="M46.0654 64.4183C46.8162 64.4183 47.4249 63.8096 47.4249 63.0588C47.4249 62.308 46.8162 61.6993 46.0654 61.6993C45.3146 61.6993 44.7059 62.308 44.7059 63.0588C44.7059 63.8096 45.3146 64.4183 46.0654 64.4183Z" fill="black"/>
<path d="M52.8628 64.4183C53.6136 64.4183 54.2223 63.8096 54.2223 63.0588C54.2223 62.308 53.6136 61.6993 52.8628 61.6993C52.112 61.6993 51.5033 62.308 51.5033 63.0588C51.5033 63.8096 52.112 64.4183 52.8628 64.4183Z" fill="black"/>
<path d="M63.0588 64.4183C63.8096 64.4183 64.4183 63.8096 64.4183 63.0588C64.4183 62.308 63.8096 61.6993 63.0588 61.6993C62.308 61.6993 61.6993 62.308 61.6993 63.0588C61.6993 63.8096 62.308 64.4183 63.0588 64.4183Z" fill="black"/>
<path d="M69.8562 64.4183C70.607 64.4183 71.2157 63.8096 71.2157 63.0588C71.2157 62.308 70.607 61.6993 69.8562 61.6993C69.1054 61.6993 68.4967 62.308 68.4967 63.0588C68.4967 63.8096 69.1054 64.4183 69.8562 64.4183Z" fill="black"/>
<path d="M73.2549 64.4183C74.0057 64.4183 74.6143 63.8096 74.6143 63.0588C74.6143 62.308 74.0057 61.6993 73.2549 61.6993C72.504 61.6993 71.8954 62.308 71.8954 63.0588C71.8954 63.8096 72.504 64.4183 73.2549 64.4183Z" fill="black"/>
<path d="M76.6535 64.4183C77.4044 64.4183 78.013 63.8096 78.013 63.0588C78.013 62.308 77.4044 61.6993 76.6535 61.6993C75.9027 61.6993 75.2941 62.308 75.2941 63.0588C75.2941 63.8096 75.9027 64.4183 76.6535 64.4183Z" fill="black"/>
<path d="M83.451 64.4183C84.2018 64.4183 84.8105 63.8096 84.8105 63.0588C84.8105 62.308 84.2018 61.6993 83.451 61.6993C82.7002 61.6993 82.0916 62.308 82.0916 63.0588C82.0916 63.8096 82.7002 64.4183 83.451 64.4183Z" fill="black"/>
<path d="M93.6471 64.4183C94.3979 64.4183 95.0066 63.8096 95.0066 63.0588C95.0066 62.308 94.3979 61.6993 93.6471 61.6993C92.8963 61.6993 92.2876 62.308 92.2876 63.0588C92.2876 63.8096 92.8963 64.4183 93.6471 64.4183Z" fill="black"/>
<path d="M100.444 64.4183C101.195 64.4183 101.804 63.8096 101.804 63.0588C101.804 62.308 101.195 61.6993 100.444 61.6993C99.6936 61.6993 99.085 62.308 99.085 63.0588C99.085 63.8096 99.6936 64.4183 100.444 64.4183Z" fill="black"/>
<path d="M12.0785 67.817C12.8293 67.817 13.4379 67.2083 13.4379 66.4575C13.4379 65.7067 12.8293 65.098 12.0785 65.098C11.3277 65.098 10.719 65.7067 10.719 66.4575C10.719 67.2083 11.3277 67.817 12.0785 67.817Z" fill="black"/>
<path d="M22.2745 67.817C23.0253 67.817 23.634 67.2083 23.634 66.4575C23.634 65.7067 23.0253 65.098 22.2745 65.098C21.5237 65.098 20.915 65.7067 20.915 66.4575C20.915 67.2083 21.5237 67.817 22.2745 67.817Z" fill="black"/>
<path d="M29.0719 67.817C29.8227 67.817 30.4314 67.2083 30.4314 66.4575C30.4314 65.7067 29.8227 65.098 29.0719 65.098C28.3211 65.098 27.7124 65.7067 27.7124 66.4575C27.7124 67.2083 28.3211 67.817 29.0719 67.817Z" fill="black"/>
<path d="M32.4706 67.817C33.2214 67.817 33.83 67.2083 33.83 66.4575C33.83 65.7067 33.2214 65.098 32.4706 65.098C31.7197 65.098 31.1111 65.7067 31.1111 66.4575C31.1111 67.2083 31.7197 67.817 32.4706 67.817Z" fill="black"/>
<path d="M46.0654 67.817C46.8162 67.817 47.4249 67.2083 47.4249 66.4575C47.4249 65.7067 46.8162 65.098 46.0654 65.098C45.3146 65.098 44.7059 65.7067 44.7059 66.4575C44.7059 67.2083 45.3146 67.817 46.0654 67.817Z" fill="black"/>
<path d="M49.4641 67.817C50.2149 67.817 50.8236 67.2083 50.8236 66.4575C50.8236 65.7067 50.2149 65.098 49.4641 65.098C48.7133 65.098 48.1046 65.7067 48.1046 66.4575C48.1046 67.2083 48.7133 67.817 49.4641 67.817Z" fill="black"/>
<path d="M59.6601 67.817C60.411 67.817 61.0196 67.2083 61.0196 66.4575C61.0196 65.7067 60.411 65.098 59.6601 65.098C58.9093 65.098 58.3007 65.7067 58.3007 66.4575C58.3007 67.2083 58.9093 67.817 59.6601 67.817Z" fill="black"/>
<path d="M93.6471 67.817C94.3979 67.817 95.0066 67.2083 95.0066 66.4575C95.0066 65.7067 94.3979 65.098 93.6471 65.098C92.8963 65.098 92.2876 65.7067 92.2876 66.4575C92.2876 67.2083 92.8963 67.817 93.6471 67.817Z" fill="black"/>
<path d="M100.444 67.817C101.195 67.817 101.804 67.2083 101.804 66.4575C101.804 65.7067 101.195 65.098 100.444 65.098C99.6936 65.098 99.085 65.7067 99.085 66.4575C99.085 67.2083 99.6936 67.817 100.444 67.817Z" fill="black"/>
<path d="M12.0785 71.2157C12.8293 71.2157 13.4379 70.607 13.4379 69.8562C13.4379 69.1054 12.8293 68.4967 12.0785 68.4967C11.3277 68.4967 10.719 69.1054 10.719 69.8562C10.719 70.607 11.3277 71.2157 12.0785 71.2157Z" fill="black"/>
<path d="M18.8758 71.2157C19.6267 71.2157 20.2353 70.607 20.2353 69.8562C20.2353 69.1054 19.6267 68.4967 18.8758 68.4967C18.125 68.4967 17.5164 69.1054 17.5164 69.8562C17.5164 70.607 18.125 71.2157 18.8758 71.2157Z" fill="black"/>
<path d="M22.2745 71.2157C23.0253 71.2157 23.634 70.607 23.634 69.8562C23.634 69.1054 23.0253 68.4967 22.2745 68.4967C21.5237 68.4967 20.915 69.1054 20.915 69.8562C20.915 70.607 21.5237 71.2157 22.2745 71.2157Z" fill="black"/>
<path d="M25.6732 71.2157C26.424 71.2157 27.0327 70.607 27.0327 69.8562C27.0327 69.1054 26.424 68.4967 25.6732 68.4967C24.9224 68.4967 24.3137 69.1054 24.3137 69.8562C24.3137 70.607 24.9224 71.2157 25.6732 71.2157Z" fill="black"/>
<path d="M29.0719 71.2157C29.8227 71.2157 30.4314 70.607 30.4314 69.8562C30.4314 69.1054 29.8227 68.4967 29.0719 68.4967C28.3211 68.4967 27.7124 69.1054 27.7124 69.8562C27.7124 70.607 28.3211 71.2157 29.0719 71.2157Z" fill="black"/>
<path d="M35.8692 71.2157C36.6201 71.2157 37.2287 70.607 37.2287 69.8562C37.2287 69.1054 36.6201 68.4967 35.8692 68.4967C35.1184 68.4967 34.5098 69.1054 34.5098 69.8562C34.5098 70.607 35.1184 71.2157 35.8692 71.2157Z" fill="black"/>
<path d="M52.8628 71.2157C53.6136 71.2157 54.2223 70.607 54.2223 69.8562C54.2223 69.1054 53.6136 68.4967 52.8628 68.4967C52.112 68.4967 51.5033 69.1054 51.5033 69.8562C51.5033 70.607 52.112 71.2157 52.8628 71.2157Z" fill="black"/>
<path d="M56.2615 71.2157C57.0123 71.2157 57.6209 70.607 57.6209 69.8562C57.6209 69.1054 57.0123 68.4967 56.2615 68.4967C55.5106 68.4967 54.902 69.1054 54.902 69.8562C54.902 70.607 55.5106 71.2157 56.2615 71.2157Z" fill="black"/>
<path d="M59.6601 71.2157C60.411 71.2157 61.0196 70.607 61.0196 69.8562C61.0196 69.1054 60.411 68.4967 59.6601 68.4967C58.9093 68.4967 58.3007 69.1054 58.3007 69.8562C58.3007 70.607 58.9093 71.2157 59.6601 71.2157Z" fill="black"/>
<path d="M66.4575 71.2157C67.2083 71.2157 67.817 70.607 67.817 69.8562C67.817 69.1054 67.2083 68.4967 66.4575 68.4967C65.7067 68.4967 65.098 69.1054 65.098 69.8562C65.098 70.607 65.7067 71.2157 66.4575 71.2157Z" fill="black"/>
<path d="M69.8562 71.2157C70.607 71.2157 71.2157 70.607 71.2157 69.8562C71.2157 69.1054 70.607 68.4967 69.8562 68.4967C69.1054 68.4967 68.4967 69.1054 68.4967 69.8562C68.4967 70.607 69.1054 71.2157 69.8562 71.2157Z" fill="black"/>
<path d="M86.8497 71.2157C87.6005 71.2157 88.2092 70.607 88.2092 69.8562C88.2092 69.1054 87.6005 68.4967 86.8497 68.4967C86.0989 68.4967 85.4902 69.1054 85.4902 69.8562C85.4902 70.607 86.0989 71.2157 86.8497 71.2157Z" fill="black"/>
<path d="M97.0458 71.2157C97.7966 71.2157 98.4052 70.607 98.4052 69.8562C98.4052 69.1054 97.7966 68.4967 97.0458 68.4967C96.2949 68.4967 95.6863 69.1054 95.6863 69.8562C95.6863 70.607 96.2949 71.2157 97.0458 71.2157Z" fill="black"/>
<path d="M12.0785 74.6143C12.8293 74.6143 13.4379 74.0057 13.4379 73.2549C13.4379 72.504 12.8293 71.8954 12.0785 71.8954C11.3277 71.8954 10.719 72.504 10.719 73.2549C10.719 74.0057 11.3277 74.6143 12.0785 74.6143Z" fill="black"/>
<path d="M15.4772 74.6143C16.228 74.6143 16.8366 74.0057 16.8366 73.2549C16.8366 72.504 16.228 71.8954 15.4772 71.8954C14.7263 71.8954 14.1177 72.504 14.1177 73.2549C14.1177 74.0057 14.7263 74.6143 15.4772 74.6143Z" fill="black"/>
<path d="M22.2745 74.6143C23.0253 74.6143 23.634 74.0057 23.634 73.2549C23.634 72.504 23.0253 71.8954 22.2745 71.8954C21.5237 71.8954 20.915 72.504 20.915 73.2549C20.915 74.0057 21.5237 74.6143 22.2745 74.6143Z" fill="black"/>
<path d="M25.6732 74.6143C26.424 74.6143 27.0327 74.0057 27.0327 73.2549C27.0327 72.504 26.424 71.8954 25.6732 71.8954C24.9224 71.8954 24.3137 72.504 24.3137 73.2549C24.3137 74.0057 24.9224 74.6143 25.6732 74.6143Z" fill="black"/>
<path d="M32.4706 74.6143C33.2214 74.6143 33.83 74.0057 33.83 73.2549C33.83 72.504 33.2214 71.8954 32.4706 71.8954C31.7197 71.8954 31.1111 72.504 31.1111 73.2549C31.1111 74.0057 31.7197 74.6143 32.4706 74.6143Z" fill="black"/>
<path d="M35.8692 74.6143C36.6201 74.6143 37.2287 74.0057 37.2287 73.2549C37.2287 72.504 36.6201 71.8954 35.8692 71.8954C35.1184 71.8954 34.5098 72.504 34.5098 73.2549C34.5098 74.0057 35.1184 74.6143 35.8692 74.6143Z" fill="black"/>
<path d="M39.2679 74.6143C40.0187 74.6143 40.6274 74.0057 40.6274 73.2549C40.6274 72.504 40.0187 71.8954 39.2679 71.8954C38.5171 71.8954 37.9084 72.504 37.9084 73.2549C37.9084 74.0057 38.5171 74.6143 39.2679 74.6143Z" fill="black"/>
<path d="M42.6666 74.6143C43.4174 74.6143 44.0261 74.0057 44.0261 73.2549C44.0261 72.504 43.4174 71.8954 42.6666 71.8954C41.9158 71.8954 41.3071 72.504 41.3071 73.2549C41.3071 74.0057 41.9158 74.6143 42.6666 74.6143Z" fill="black"/>
<path d="M46.0654 74.6143C46.8162 74.6143 47.4249 74.0057 47.4249 73.2549C47.4249 72.504 46.8162 71.8954 46.0654 71.8954C45.3146 71.8954 44.7059 72.504 44.7059 73.2549C44.7059 74.0057 45.3146 74.6143 46.0654 74.6143Z" fill="black"/>
<path d="M63.0588 74.6143C63.8096 74.6143 64.4183 74.0057 64.4183 73.2549C64.4183 72.504 63.8096 71.8954 63.0588 71.8954C62.308 71.8954 61.6993 72.504 61.6993 73.2549C61.6993 74.0057 62.308 74.6143 63.0588 74.6143Z" fill="black"/>
<path d="M66.4575 74.6143C67.2083 74.6143 67.817 74.0057 67.817 73.2549C67.817 72.504 67.2083 71.8954 66.4575 71.8954C65.7067 71.8954 65.098 72.504 65.098 73.2549C65.098 74.0057 65.7067 74.6143 66.4575 74.6143Z" fill="black"/>
<path d="M73.2549 74.6143C74.0057 74.6143 74.6143 74.0057 74.6143 73.2549C74.6143 72.504 74.0057 71.8954 73.2549 71.8954C72.504 71.8954 71.8954 72.504 71.8954 73.2549C71.8954 74.0057 72.504 74.6143 73.2549 74.6143Z" fill="black"/>
<path d="M76.6535 74.6143C77.4044 74.6143 78.013 74.0057 78.013 73.2549C78.013 72.504 77.4044 71.8954 76.6535 71.8954C75.9027 71.8954 75.2941 72.504 75.2941 73.2549C75.2941 74.0057 75.9027 74.6143 76.6535 74.6143Z" fill="black"/>
<path d="M80.0523 74.6143C80.8032 74.6143 81.4118 74.0057 81.4118 73.2549C81.4118 72.504 80.8032 71.8954 80.0523 71.8954C79.3015 71.8954 78.6929 72.504 78.6929 73.2549C78.6929 74.0057 79.3015 74.6143 80.0523 74.6143Z" fill="black"/>
<path d="M86.8497 74.6143C87.6005 74.6143 88.2092 74.0057 88.2092 73.2549C88.2092 72.504 87.6005 71.8954 86.8497 71.8954C86.0989 71.8954 85.4902 72.504 85.4902 73.2549C85.4902 74.0057 86.0989 74.6143 86.8497 74.6143Z" fill="black"/>
<path d="M90.2484 74.6143C90.9992 74.6143 91.6079 74.0057 91.6079 73.2549C91.6079 72.504 90.9992 71.8954 90.2484 71.8954C89.4976 71.8954 88.8889 72.504 88.8889 73.2549C88.8889 74.0057 89.4976 74.6143 90.2484 74.6143Z" fill="black"/>
<path d="M12.0785 78.013C12.8293 78.013 13.4379 77.4044 13.4379 76.6535C13.4379 75.9027 12.8293 75.2941 12.0785 75.2941C11.3277 75.2941 10.719 75.9027 10.719 76.6535C10.719 77.4044 11.3277 78.013 12.0785 78.013Z" fill="black"/>
<path d="M15.4772 78.013C16.228 78.013 16.8366 77.4044 16.8366 76.6535C16.8366 75.9027 16.228 75.2941 15.4772 75.2941C14.7263 75.2941 14.1177 75.9027 14.1177 76.6535C14.1177 77.4044 14.7263 78.013 15.4772 78.013Z" fill="black"/>
<path d="M22.2745 78.013C23.0253 78.013 23.634 77.4044 23.634 76.6535C23.634 75.9027 23.0253 75.2941 22.2745 75.2941C21.5237 75.2941 20.915 75.9027 20.915 76.6535C20.915 77.4044 21.5237 78.013 22.2745 78.013Z" fill="black"/>
<path d="M35.8692 78.013C36.6201 78.013 37.2287 77.4044 37.2287 76.6535C37.2287 75.9027 36.6201 75.2941 35.8692 75.2941C35.1184 75.2941 34.5098 75.9027 34.5098 76.6535C34.5098 77.4044 35.1184 78.013 35.8692 78.013Z" fill="black"/>
<path d="M42.6666 78.013C43.4174 78.013 44.0261 77.4044 44.0261 76.6535C44.0261 75.9027 43.4174 75.2941 42.6666 75.2941C41.9158 75.2941 41.3071 75.9027 41.3071 76.6535C41.3071 77.4044 41.9158 78.013 42.6666 78.013Z" fill="black"/>
<path d="M52.8628 78.013C53.6136 78.013 54.2223 77.4044 54.2223 76.6535C54.2223 75.9027 53.6136 75.2941 52.8628 75.2941C52.112 75.2941 51.5033 75.9027 51.5033 76.6535C51.5033 77.4044 52.112 78.013 52.8628 78.013Z" fill="black"/>
<path d="M59.6601 78.013C60.411 78.013 61.0196 77.4044 61.0196 76.6535C61.0196 75.9027 60.411 75.2941 59.6601 75.2941C58.9093 75.2941 58.3007 75.9027 58.3007 76.6535C58.3007 77.4044 58.9093 78.013 59.6601 78.013Z" fill="black"/>
<path d="M86.8497 78.013C87.6005 78.013 88.2092 77.4044 88.2092 76.6535C88.2092 75.9027 87.6005 75.2941 86.8497 75.2941C86.0989 75.2941 85.4902 75.9027 85.4902 76.6535C85.4902 77.4044 86.0989 78.013 86.8497 78.013Z" fill="black"/>
<path d="M90.2484 78.013C90.9992 78.013 91.6079 77.4044 91.6079 76.6535C91.6079 75.9027 90.9992 75.2941 90.2484 75.2941C89.4976 75.2941 88.8889 75.9027 88.8889 76.6535C88.8889 77.4044 89.4976 78.013 90.2484 78.013Z" fill="black"/>
<path d="M93.6471 78.013C94.3979 78.013 95.0066 77.4044 95.0066 76.6535C95.0066 75.9027 94.3979 75.2941 93.6471 75.2941C92.8963 75.2941 92.2876 75.9027 92.2876 76.6535C92.2876 77.4044 92.8963 78.013 93.6471 78.013Z" fill="black"/>
<path d="M97.0458 78.013C97.7966 78.013 98.4052 77.4044 98.4052 76.6535C98.4052 75.9027 97.7966 75.2941 97.0458 75.2941C96.2949 75.2941 95.6863 75.9027 95.6863 76.6535C95.6863 77.4044 96.2949 78.013 97.0458 78.013Z" fill="black"/>
<path d="M100.444 78.013C101.195 78.013 101.804 77.4044 101.804 76.6535C101.804 75.9027 101.195 75.2941 100.444 75.2941C99.6936 75.2941 99.085 75.9027 99.085 76.6535C99.085 77.4044 99.6936 78.013 100.444 78.013Z" fill="black"/>
<path d="M103.843 78.013C104.594 78.013 105.203 77.4044 105.203 76.6535C105.203 75.9027 104.594 75.2941 103.843 75.2941C103.092 75.2941 102.484 75.9027 102.484 76.6535C102.484 77.4044 103.092 78.013 103.843 78.013Z" fill="black"/>
<path d="M12.0785 81.4118C12.8293 81.4118 13.4379 80.8032 13.4379 80.0523C13.4379 79.3015 12.8293 78.6929 12.0785 78.6929C11.3277 78.6929 10.719 79.3015 10.719 80.0523C10.719 80.8032 11.3277 81.4118 12.0785 81.4118Z" fill="black"/>
<path d="M15.4772 81.4118C16.228 81.4118 16.8366 80.8032 16.8366 80.0523C16.8366 79.3015 16.228 78.6929 15.4772 78.6929C14.7263 78.6929 14.1177 79.3015 14.1177 80.0523C14.1177 80.8032 14.7263 81.4118 15.4772 81.4118Z" fill="black"/>
<path d="M18.8758 81.4118C19.6267 81.4118 20.2353 80.8032 20.2353 80.0523C20.2353 79.3015 19.6267 78.6929 18.8758 78.6929C18.125 78.6929 17.5164 79.3015 17.5164 80.0523C17.5164 80.8032 18.125 81.4118 18.8758 81.4118Z" fill="black"/>
<path d="M25.6732 81.4118C26.424 81.4118 27.0327 80.8032 27.0327 80.0523C27.0327 79.3015 26.424 78.6929 25.6732 78.6929C24.9224 78.6929 24.3137 79.3015 24.3137 80.0523C24.3137 80.8032 24.9224 81.4118 25.6732 81.4118Z" fill="black"/>
<path d="M29.0719 81.4118C29.8227 81.4118 30.4314 80.8032 30.4314 80.0523C30.4314 79.3015 29.8227 78.6929 29.0719 78.6929C28.3211 78.6929 27.7124 79.3015 27.7124 80.0523C27.7124 80.8032 28.3211 81.4118 29.0719 81.4118Z" fill="black"/>
<path d="M32.4706 81.4118C33.2214 81.4118 33.83 80.8032 33.83 80.0523C33.83 79.3015 33.2214 78.6929 32.4706 78.6929C31.7197 78.6929 31.1111 79.3015 31.1111 80.0523C31.1111 80.8032 31.7197 81.4118 32.4706 81.4118Z" fill="black"/>
<path d="M39.2679 81.4118C40.0187 81.4118 40.6274 80.8032 40.6274 80.0523C40.6274 79.3015 40.0187 78.6929 39.2679 78.6929C38.5171 78.6929 37.9084 79.3015 37.9084 80.0523C37.9084 80.8032 38.5171 81.4118 39.2679 81.4118Z" fill="black"/>
<path d="M46.0654 81.4118C46.8162 81.4118 47.4249 80.8032 47.4249 80.0523C47.4249 79.3015 46.8162 78.6929 46.0654 78.6929C45.3146 78.6929 44.7059 79.3015 44.7059 80.0523C44.7059 80.8032 45.3146 81.4118 46.0654 81.4118Z" fill="black"/>
<path d="M52.8628 81.4118C53.6136 81.4118 54.2223 80.8032 54.2223 80.0523C54.2223 79.3015 53.6136 78.6929 52.8628 78.6929C52.112 78.6929 51.5033 79.3015 51.5033 80.0523C51.5033 80.8032 52.112 81.4118 52.8628 81.4118Z" fill="black"/>
<path d="M56.2615 81.4118C57.0123 81.4118 57.6209 80.8032 57.6209 80.0523C57.6209 79.3015 57.0123 78.6929 56.2615 78.6929C55.5106 78.6929 54.902 79.3015 54.902 80.0523C54.902 80.8032 55.5106 81.4118 56.2615 81.4118Z" fill="black"/>
<path d="M59.6601 81.4118C60.411 81.4118 61.0196 80.8032 61.0196 80.0523C61.0196 79.3015 60.411 78.6929 59.6601 78.6929C58.9093 78.6929 58.3007 79.3015 58.3007 80.0523C58.3007 80.8032 58.9093 81.4118 59.6601 81.4118Z" fill="black"/>
<path d="M63.0588 81.4118C63.8096 81.4118 64.4183 80.8032 64.4183 80.0523C64.4183 79.3015 63.8096 78.6929 63.0588 78.6929C62.308 78.6929 61.6993 79.3015 61.6993 80.0523C61.6993 80.8032 62.308 81.4118 63.0588 81.4118Z" fill="black"/>
<path d="M73.2549 81.4118C74.0057 81.4118 74.6143 80.8032 74.6143 80.0523C74.6143 79.3015 74.0057 78.6929 73.2549 78.6929C72.504 78.6929 71.8954 79.3015 71.8954 80.0523C71.8954 80.8032 72.504 81.4118 73.2549 81.4118Z" fill="black"/>
<path d="M76.6535 81.4118C77.4044 81.4118 78.013 80.8032 78.013 80.0523C78.013 79.3015 77.4044 78.6929 76.6535 78.6929C75.9027 78.6929 75.2941 79.3015 75.2941 80.0523C75.2941 80.8032 75.9027 81.4118 76.6535 81.4118Z" fill="black"/>
<path d="M80.0523 81.4118C80.8032 81.4118 81.4118 80.8032 81.4118 80.0523C81.4118 79.3015 80.8032 78.6929 80.0523 78.6929C79.3015 78.6929 78.6929 79.3015 78.6929 80.0523C78.6929 80.8032 79.3015 81.4118 80.0523 81.4118Z" fill="black"/>
<path d="M83.451 81.4118C84.2018 81.4118 84.8105 80.8032 84.8105 80.0523C84.8105 79.3015 84.2018 78.6929 83.451 78.6929C82.7002 78.6929 82.0916 79.3015 82.0916 80.0523C82.0916 80.8032 82.7002 81.4118 83.451 81.4118Z" fill="black"/>
<path d="M86.8497 81.4118C87.6005 81.4118 88.2092 80.8032 88.2092 80.0523C88.2092 79.3015 87.6005 78.6929 86.8497 78.6929C86.0989 78.6929 85.4902 79.3015 85.4902 80.0523C85.4902 80.8032 86.0989 81.4118 86.8497 81.4118Z" fill="black"/>
<path d="M90.2484 81.4118C90.9992 81.4118 91.6079 80.8032 91.6079 80.0523C91.6079 79.3015 90.9992 78.6929 90.2484 78.6929C89.4976 78.6929 88.8889 79.3015 88.8889 80.0523C88.8889 80.8032 89.4976 81.4118 90.2484 81.4118Z" fill="black"/>
<path d="M93.6471 81.4118C94.3979 81.4118 95.0066 80.8032 95.0066 80.0523C95.0066 79.3015 94.3979 78.6929 93.6471 78.6929C92.8963 78.6929 92.2876 79.3015 92.2876 80.0523C92.2876 80.8032 92.8963 81.4118 93.6471 81.4118Z" fill="black"/>
<path d="M100.444 81.4118C101.195 81.4118 101.804 80.8032 101.804 80.0523C101.804 79.3015 101.195 78.6929 100.444 78.6929C99.6936 78.6929 99.085 79.3015 99.085 80.0523C99.085 80.8032 99.6936 81.4118 100.444 81.4118Z" fill="black"/>
<path d="M103.843 81.4118C104.594 81.4118 105.203 80.8032 105.203 80.0523C105.203 79.3015 104.594 78.6929 103.843 78.6929C103.092 78.6929 102.484 79.3015 102.484 80.0523C102.484 80.8032 103.092 81.4118 103.843 81.4118Z" fill="black"/>
<path d="M107.242 81.4118C107.993 81.4118 108.601 80.8032 108.601 80.0523C108.601 79.3015 107.993 78.6929 107.242 78.6929C106.491 78.6929 105.882 79.3015 105.882 80.0523C105.882 80.8032 106.491 81.4118 107.242 81.4118Z" fill="black"/>
<path d="M39.2679 84.8105C40.0187 84.8105 40.6274 84.2018 40.6274 83.451C40.6274 82.7002 40.0187 82.0916 39.2679 82.0916C38.5171 82.0916 37.9084 82.7002 37.9084 83.451C37.9084 84.2018 38.5171 84.8105 39.2679 84.8105Z" fill="black"/>
<path d="M42.6666 84.8105C43.4174 84.8105 44.0261 84.2018 44.0261 83.451C44.0261 82.7002 43.4174 82.0916 42.6666 82.0916C41.9158 82.0916 41.3071 82.7002 41.3071 83.451C41.3071 84.2018 41.9158 84.8105 42.6666 84.8105Z" fill="black"/>
<path d="M59.6601 84.8105C60.411 84.8105 61.0196 84.2018 61.0196 83.451C61.0196 82.7002 60.411 82.0916 59.6601 82.0916C58.9093 82.0916 58.3007 82.7002 58.3007 83.451C58.3007 84.2018 58.9093 84.8105 59.6601 84.8105Z" fill="black"/>
<path d="M66.4575 84.8105C67.2083 84.8105 67.817 84.2018 67.817 83.451C67.817 82.7002 67.2083 82.0916 66.4575 82.0916C65.7067 82.0916 65.098 82.7002 65.098 83.451C65.098 84.2018 65.7067 84.8105 66.4575 84.8105Z" fill="black"/>
<path d="M80.0523 84.8105C80.8032 84.8105 81.4118 84.2018 81.4118 83.451C81.4118 82.7002 80.8032 82.0916 80.0523 82.0916C79.3015 82.0916 78.6929 82.7002 78.6929 83.451C78.6929 84.2018 79.3015 84.8105 80.0523 84.8105Z" fill="black"/>
<path d="M93.6471 84.8105C94.3979 84.8105 95.0066 84.2018 95.0066 83.451C95.0066 82.7002 94.3979 82.0916 93.6471 82.0916C92.8963 82.0916 92.2876 82.7002 92.2876 83.451C92.2876 84.2018 92.8963 84.8105 93.6471 84.8105Z" fill="black"/>
<path d="M100.444 84.8105C101.195 84.8105 101.804 84.2018 101.804 83.451C101.804 82.7002 101.195 82.0916 100.444 82.0916C99.6936 82.0916 99.085 82.7002 99.085 83.451C99.085 84.2018 99.6936 84.8105 100.444 84.8105Z" fill="black"/>
<path d="M107.242 84.8105C107.993 84.8105 108.601 84.2018 108.601 83.451C108.601 82.7002 107.993 82.0916 107.242 82.0916C106.491 82.0916 105.882 82.7002 105.882 83.451C105.882 84.2018 106.491 84.8105 107.242 84.8105Z" fill="black"/>
<path d="M39.2679 88.2092C40.0187 88.2092 40.6274 87.6005 40.6274 86.8497C40.6274 86.0989 40.0187 85.4902 39.2679 85.4902C38.5171 85.4902 37.9084 86.0989 37.9084 86.8497C37.9084 87.6005 38.5171 88.2092 39.2679 88.2092Z" fill="black"/>
<path d="M42.6666 88.2092C43.4174 88.2092 44.0261 87.6005 44.0261 86.8497C44.0261 86.0989 43.4174 85.4902 42.6666 85.4902C41.9158 85.4902 41.3071 86.0989 41.3071 86.8497C41.3071 87.6005 41.9158 88.2092 42.6666 88.2092Z" fill="black"/>
<path d="M46.0654 88.2092C46.8162 88.2092 47.4249 87.6005 47.4249 86.8497C47.4249 86.0989 46.8162 85.4902 46.0654 85.4902C45.3146 85.4902 44.7059 86.0989 44.7059 86.8497C44.7059 87.6005 45.3146 88.2092 46.0654 88.2092Z" fill="black"/>
<path d="M49.4641 88.2092C50.2149 88.2092 50.8236 87.6005 50.8236 86.8497C50.8236 86.0989 50.2149 85.4902 49.4641 85.4902C48.7133 85.4902 48.1046 86.0989 48.1046 86.8497C48.1046 87.6005 48.7133 88.2092 49.4641 88.2092Z" fill="black"/>
<path d="M52.8628 88.2092C53.6136 88.2092 54.2223 87.6005 54.2223 86.8497C54.2223 86.0989 53.6136 85.4902 52.8628 85.4902C52.112 85.4902 51.5033 86.0989 51.5033 86.8497C51.5033 87.6005 52.112 88.2092 52.8628 88.2092Z" fill="black"/>
<path d="M59.6601 88.2092C60.411 88.2092 61.0196 87.6005 61.0196 86.8497C61.0196 86.0989 60.411 85.4902 59.6601 85.4902C58.9093 85.4902 58.3007 86.0989 58.3007 86.8497C58.3007 87.6005 58.9093 88.2092 59.6601 88.2092Z" fill="black"/>
<path d="M66.4575 88.2092C67.2083 88.2092 67.817 87.6005 67.817 86.8497C67.817 86.0989 67.2083 85.4902 66.4575 85.4902C65.7067 85.4902 65.098 86.0989 65.098 86.8497C65.098 87.6005 65.7067 88.2092 66.4575 88.2092Z" fill="black"/>
<path d="M76.6535 88.2092C77.4044 88.2092 78.013 87.6005 78.013 86.8497C78.013 86.0989 77.4044 85.4902 76.6535 85.4902C75.9027 85.4902 75.2941 86.0989 75.2941 86.8497C75.2941 87.6005 75.9027 88.2092 76.6535 88.2092Z" fill="black"/>
<path d="M80.0523 88.2092C80.8032 88.2092 81.4118 87.6005 81.4118 86.8497C81.4118 86.0989 80.8032 85.4902 80.0523 85.4902C79.3015 85.4902 78.6929 86.0989 78.6929 86.8497C78.6929 87.6005 79.3015 88.2092 80.0523 88.2092Z" fill="black"/>
<path d="M86.8497 88.2092C87.6005 88.2092 88.2092 87.6005 88.2092 86.8497C88.2092 86.0989 87.6005 85.4902 86.8497 85.4902C86.0989 85.4902 85.4902 86.0989 85.4902 86.8497C85.4902 87.6005 86.0989 88.2092 86.8497 88.2092Z" fill="black"/>
<path d="M93.6471 88.2092C94.3979 88.2092 95.0066 87.6005 95.0066 86.8497C95.0066 86.0989 94.3979 85.4902 93.6471 85.4902C92.8963 85.4902 92.2876 86.0989 92.2876 86.8497C92.2876 87.6005 92.8963 88.2092 93.6471 88.2092Z" fill="black"/>
<path d="M97.0458 88.2092C97.7966 88.2092 98.4052 87.6005 98.4052 86.8497C98.4052 86.0989 97.7966 85.4902 97.0458 85.4902C96.2949 85.4902 95.6863 86.0989 95.6863 86.8497C95.6863 87.6005 96.2949 88.2092 97.0458 88.2092Z" fill="black"/>
<path d="M39.2679 91.6079C40.0187 91.6079 40.6274 90.9992 40.6274 90.2484C40.6274 89.4976 40.0187 88.8889 39.2679 88.8889C38.5171 88.8889 37.9084 89.4976 37.9084 90.2484C37.9084 90.9992 38.5171 91.6079 39.2679 91.6079Z" fill="black"/>
<path d="M42.6666 91.6079C43.4174 91.6079 44.0261 90.9992 44.0261 90.2484C44.0261 89.4976 43.4174 88.8889 42.6666 88.8889C41.9158 88.8889 41.3071 89.4976 41.3071 90.2484C41.3071 90.9992 41.9158 91.6079 42.6666 91.6079Z" fill="black"/>
<path d="M46.0654 91.6079C46.8162 91.6079 47.4249 90.9992 47.4249 90.2484C47.4249 89.4976 46.8162 88.8889 46.0654 88.8889C45.3146 88.8889 44.7059 89.4976 44.7059 90.2484C44.7059 90.9992 45.3146 91.6079 46.0654 91.6079Z" fill="black"/>
<path d="M59.6601 91.6079C60.411 91.6079 61.0196 90.9992 61.0196 90.2484C61.0196 89.4976 60.411 88.8889 59.6601 88.8889C58.9093 88.8889 58.3007 89.4976 58.3007 90.2484C58.3007 90.9992 58.9093 91.6079 59.6601 91.6079Z" fill="black"/>
<path d="M63.0588 91.6079C63.8096 91.6079 64.4183 90.9992 64.4183 90.2484C64.4183 89.4976 63.8096 88.8889 63.0588 88.8889C62.308 88.8889 61.6993 89.4976 61.6993 90.2484C61.6993 90.9992 62.308 91.6079 63.0588 91.6079Z" fill="black"/>
<path d="M73.2549 91.6079C74.0057 91.6079 74.6143 90.9992 74.6143 90.2484C74.6143 89.4976 74.0057 88.8889 73.2549 88.8889C72.504 88.8889 71.8954 89.4976 71.8954 90.2484C71.8954 90.9992 72.504 91.6079 73.2549 91.6079Z" fill="black"/>
<path d="M76.6535 91.6079C77.4044 91.6079 78.013 90.9992 78.013 90.2484C78.013 89.4976 77.4044 88.8889 76.6535 88.8889C75.9027 88.8889 75.2941 89.4976 75.2941 90.2484C75.2941 90.9992 75.9027 91.6079 76.6535 91.6079Z" fill="black"/>
<path d="M80.0523 91.6079C80.8032 91.6079 81.4118 90.9992 81.4118 90.2484C81.4118 89.4976 80.8032 88.8889 80.0523 88.8889C79.3015 88.8889 78.6929 89.4976 78.6929 90.2484C78.6929 90.9992 79.3015 91.6079 80.0523 91.6079Z" fill="black"/>
<path d="M93.6471 91.6079C94.3979 91.6079 95.0066 90.9992 95.0066 90.2484C95.0066 89.4976 94.3979 88.8889 93.6471 88.8889C92.8963 88.8889 92.2876 89.4976 92.2876 90.2484C92.2876 90.9992 92.8963 91.6079 93.6471 91.6079Z" fill="black"/>
<path d="M100.444 91.6079C101.195 91.6079 101.804 90.9992 101.804 90.2484C101.804 89.4976 101.195 88.8889 100.444 88.8889C99.6936 88.8889 99.085 89.4976 99.085 90.2484C99.085 90.9992 99.6936 91.6079 100.444 91.6079Z" fill="black"/>
<path d="M39.2679 95.0066C40.0187 95.0066 40.6274 94.3979 40.6274 93.6471C40.6274 92.8963 40.0187 92.2876 39.2679 92.2876C38.5171 92.2876 37.9084 92.8963 37.9084 93.6471C37.9084 94.3979 38.5171 95.0066 39.2679 95.0066Z" fill="black"/>
<path d="M49.4641 95.0066C50.2149 95.0066 50.8236 94.3979 50.8236 93.6471C50.8236 92.8963 50.2149 92.2876 49.4641 92.2876C48.7133 92.2876 48.1046 92.8963 48.1046 93.6471C48.1046 94.3979 48.7133 95.0066 49.4641 95.0066Z" fill="black"/>
<path d="M56.2615 95.0066C57.0123 95.0066 57.6209 94.3979 57.6209 93.6471C57.6209 92.8963 57.0123 92.2876 56.2615 92.2876C55.5106 92.2876 54.902 92.8963 54.902 93.6471C54.902 94.3979 55.5106 95.0066 56.2615 95.0066Z" fill="black"/>
<path d="M59.6601 95.0066C60.411 95.0066 61.0196 94.3979 61.0196 93.6471C61.0196 92.8963 60.411 92.2876 59.6601 92.2876C58.9093 92.2876 58.3007 92.8963 58.3007 93.6471C58.3007 94.3979 58.9093 95.0066 59.6601 95.0066Z" fill="black"/>
<path d="M63.0588 95.0066C63.8096 95.0066 64.4183 94.3979 64.4183 93.6471C64.4183 92.8963 63.8096 92.2876 63.0588 92.2876C62.308 92.2876 61.6993 92.8963 61.6993 93.6471C61.6993 94.3979 62.308 95.0066 63.0588 95.0066Z" fill="black"/>
<path d="M69.8562 95.0066C70.607 95.0066 71.2157 94.3979 71.2157 93.6471C71.2157 92.8963 70.607 92.2876 69.8562 92.2876C69.1054 92.2876 68.4967 92.8963 68.4967 93.6471C68.4967 94.3979 69.1054 95.0066 69.8562 95.0066Z" fill="black"/>
<path d="M80.0523 95.0066C80.8032 95.0066 81.4118 94.3979 81.4118 93.6471C81.4118 92.8963 80.8032 92.2876 80.0523 92.2876C79.3015 92.2876 78.6929 92.8963 78.6929 93.6471C78.6929 94.3979 79.3015 95.0066 80.0523 95.0066Z" fill="black"/>
<path d="M83.451 95.0066C84.2018 95.0066 84.8105 94.3979 84.8105 93.6471C84.8105 92.8963 84.2018 92.2876 83.451 92.2876C82.7002 92.2876 82.0916 92.8963 82.0916 93.6471C82.0916 94.3979 82.7002 95.0066 83.451 95.0066Z" fill="black"/>
<path d="M86.8497 95.0066C87.6005 95.0066 88.2092 94.3979 88.2092 93.6471C88.2092 92.8963 87.6005 92.2876 86.8497 92.2876C86.0989 92.2876 85.4902 92.8963 85.4902 93.6471C85.4902 94.3979 86.0989 95.0066 86.8497 95.0066Z" fill="black"/>
<path d="M90.2484 95.0066C90.9992 95.0066 91.6079 94.3979 91.6079 93.6471C91.6079 92.8963 90.9992 92.2876 90.2484 92.2876C89.4976 92.2876 88.8889 92.8963 88.8889 93.6471C88.8889 94.3979 89.4976 95.0066 90.2484 95.0066Z" fill="black"/>
<path d="M93.6471 95.0066C94.3979 95.0066 95.0066 94.3979 95.0066 93.6471C95.0066 92.8963 94.3979 92.2876 93.6471 92.2876C92.8963 92.2876 92.2876 92.8963 92.2876 93.6471C92.2876 94.3979 92.8963 95.0066 93.6471 95.0066Z" fill="black"/>
<path d="M97.0458 95.0066C97.7966 95.0066 98.4052 94.3979 98.4052 93.6471C98.4052 92.8963 97.7966 92.2876 97.0458 92.2876C96.2949 92.2876 95.6863 92.8963 95.6863 93.6471C95.6863 94.3979 96.2949 95.0066 97.0458 95.0066Z" fill="black"/>
<path d="M103.843 95.0066C104.594 95.0066 105.203 94.3979 105.203 93.6471C105.203 92.8963 104.594 92.2876 103.843 92.2876C103.092 92.2876 102.484 92.8963 102.484 93.6471C102.484 94.3979 103.092 95.0066 103.843 95.0066Z" fill="black"/>
<path d="M39.2679 98.4052C40.0187 98.4052 40.6274 97.7966 40.6274 97.0458C40.6274 96.2949 40.0187 95.6863 39.2679 95.6863C38.5171 95.6863 37.9084 96.2949 37.9084 97.0458C37.9084 97.7966 38.5171 98.4052 39.2679 98.4052Z" fill="black"/>
<path d="M46.0654 98.4052C46.8162 98.4052 47.4249 97.7966 47.4249 97.0458C47.4249 96.2949 46.8162 95.6863 46.0654 95.6863C45.3146 95.6863 44.7059 96.2949 44.7059 97.0458C44.7059 97.7966 45.3146 98.4052 46.0654 98.4052Z" fill="black"/>
<path d="M52.8628 98.4052C53.6136 98.4052 54.2223 97.7966 54.2223 97.0458C54.2223 96.2949 53.6136 95.6863 52.8628 95.6863C52.112 95.6863 51.5033 96.2949 51.5033 97.0458C51.5033 97.7966 52.112 98.4052 52.8628 98.4052Z" fill="black"/>
<path d="M76.6535 98.4052C77.4044 98.4052 78.013 97.7966 78.013 97.0458C78.013 96.2949 77.4044 95.6863 76.6535 95.6863C75.9027 95.6863 75.2941 96.2949 75.2941 97.0458C75.2941 97.7966 75.9027 98.4052 76.6535 98.4052Z" fill="black"/>
<path d="M83.451 98.4052C84.2018 98.4052 84.8105 97.7966 84.8105 97.0458C84.8105 96.2949 84.2018 95.6863 83.451 95.6863C82.7002 95.6863 82.0916 96.2949 82.0916 97.0458C82.0916 97.7966 82.7002 98.4052 83.451 98.4052Z" fill="black"/>
<path d="M90.2484 98.4052C90.9992 98.4052 91.6079 97.7966 91.6079 97.0458C91.6079 96.2949 90.9992 95.6863 90.2484 95.6863C89.4976 95.6863 88.8889 96.2949 88.8889 97.0458C88.8889 97.7966 89.4976 98.4052 90.2484 98.4052Z" fill="black"/>
<path d="M97.0458 98.4052C97.7966 98.4052 98.4052 97.7966 98.4052 97.0458C98.4052 96.2949 97.7966 95.6863 97.0458 95.6863C96.2949 95.6863 95.6863 96.2949 95.6863 97.0458C95.6863 97.7966 96.2949 98.4052 97.0458 98.4052Z" fill="black"/>
<path d="M100.444 98.4052C101.195 98.4052 101.804 97.7966 101.804 97.0458C101.804 96.2949 101.195 95.6863 100.444 95.6863C99.6936 95.6863 99.085 96.2949 99.085 97.0458C99.085 97.7966 99.6936 98.4052 100.444 98.4052Z" fill="black"/>
<path d="M103.843 98.4052C104.594 98.4052 105.203 97.7966 105.203 97.0458C105.203 96.2949 104.594 95.6863 103.843 95.6863C103.092 95.6863 102.484 96.2949 102.484 97.0458C102.484 97.7966 103.092 98.4052 103.843 98.4052Z" fill="black"/>
<path d="M49.4641 101.804C50.2149 101.804 50.8236 101.195 50.8236 100.444C50.8236 99.6936 50.2149 99.085 49.4641 99.085C48.7133 99.085 48.1046 99.6936 48.1046 100.444C48.1046 101.195 48.7133 101.804 49.4641 101.804Z" fill="black"/>
<path d="M52.8628 101.804C53.6136 101.804 54.2223 101.195 54.2223 100.444C54.2223 99.6936 53.6136 99.085 52.8628 99.085C52.112 99.085 51.5033 99.6936 51.5033 100.444C51.5033 101.195 52.112 101.804 52.8628 101.804Z" fill="black"/>
<path d="M59.6601 101.804C60.411 101.804 61.0196 101.195 61.0196 100.444C61.0196 99.6936 60.411 99.085 59.6601 99.085C58.9093 99.085 58.3007 99.6936 58.3007 100.444C58.3007 101.195 58.9093 101.804 59.6601 101.804Z" fill="black"/>
<path d="M69.8562 101.804C70.607 101.804 71.2157 101.195 71.2157 100.444C71.2157 99.6936 70.607 99.085 69.8562 99.085C69.1054 99.085 68.4967 99.6936 68.4967 100.444C68.4967 101.195 69.1054 101.804 69.8562 101.804Z" fill="black"/>
<path d="M86.8497 101.804C87.6005 101.804 88.2092 101.195 88.2092 100.444C88.2092 99.6936 87.6005 99.085 86.8497 99.085C86.0989 99.085 85.4902 99.6936 85.4902 100.444C85.4902 101.195 86.0989 101.804 86.8497 101.804Z" fill="black"/>
<path d="M90.2484 101.804C90.9992 101.804 91.6079 101.195 91.6079 100.444C91.6079 99.6936 90.9992 99.085 90.2484 99.085C89.4976 99.085 88.8889 99.6936 88.8889 100.444C88.8889 101.195 89.4976 101.804 90.2484 101.804Z" fill="black"/>
<path d="M97.0458 101.804C97.7966 101.804 98.4052 101.195 98.4052 100.444C98.4052 99.6936 97.7966 99.085 97.0458 99.085C96.2949 99.085 95.6863 99.6936 95.6863 100.444C95.6863 101.195 96.2949 101.804 97.0458 101.804Z" fill="black"/>
<path d="M100.444 101.804C101.195 101.804 101.804 101.195 101.804 100.444C101.804 99.6936 101.195 99.085 100.444 99.085C99.6936 99.085 99.085 99.6936 99.085 100.444C99.085 101.195 99.6936 101.804 100.444 101.804Z" fill="black"/>
<path d="M103.843 101.804C104.594 101.804 105.203 101.195 105.203 100.444C105.203 99.6936 104.594 99.085 103.843 99.085C103.092 99.085 102.484 99.6936 102.484 100.444C102.484 101.195 103.092 101.804 103.843 101.804Z" fill="black"/>
<path d="M107.242 101.804C107.993 101.804 108.601 101.195 108.601 100.444C108.601 99.6936 107.993 99.085 107.242 99.085C106.491 99.085 105.882 99.6936 105.882 100.444C105.882 101.195 106.491 101.804 107.242 101.804Z" fill="black"/>
<path d="M42.6666 105.203C43.4174 105.203 44.0261 104.594 44.0261 103.843C44.0261 103.092 43.4174 102.484 42.6666 102.484C41.9158 102.484 41.3071 103.092 41.3071 103.843C41.3071 104.594 41.9158 105.203 42.6666 105.203Z" fill="black"/>
<path d="M46.0654 105.203C46.8162 105.203 47.4249 104.594 47.4249 103.843C47.4249 103.092 46.8162 102.484 46.0654 102.484C45.3146 102.484 44.7059 103.092 44.7059 103.843C44.7059 104.594 45.3146 105.203 46.0654 105.203Z" fill="black"/>
<path d="M52.8628 105.203C53.6136 105.203 54.2223 104.594 54.2223 103.843C54.2223 103.092 53.6136 102.484 52.8628 102.484C52.112 102.484 51.5033 103.092 51.5033 103.843C51.5033 104.594 52.112 105.203 52.8628 105.203Z" fill="black"/>
<path d="M56.2615 105.203C57.0123 105.203 57.6209 104.594 57.6209 103.843C57.6209 103.092 57.0123 102.484 56.2615 102.484C55.5106 102.484 54.902 103.092 54.902 103.843C54.902 104.594 55.5106 105.203 56.2615 105.203Z" fill="black"/>
<path d="M59.6601 105.203C60.411 105.203 61.0196 104.594 61.0196 103.843C61.0196 103.092 60.411 102.484 59.6601 102.484C58.9093 102.484 58.3007 103.092 58.3007 103.843C58.3007 104.594 58.9093 105.203 59.6601 105.203Z" fill="black"/>
<path d="M73.2549 105.203C74.0057 105.203 74.6143 104.594 74.6143 103.843C74.6143 103.092 74.0057 102.484 73.2549 102.484C72.504 102.484 71.8954 103.092 71.8954 103.843C71.8954 104.594 72.504 105.203 73.2549 105.203Z" fill="black"/>
<path d="M86.8497 105.203C87.6005 105.203 88.2092 104.594 88.2092 103.843C88.2092 103.092 87.6005 102.484 86.8497 102.484C86.0989 102.484 85.4902 103.092 85.4902 103.843C85.4902 104.594 86.0989 105.203 86.8497 105.203Z" fill="black"/>
<path d="M97.0458 105.203C97.7966 105.203 98.4052 104.594 98.4052 103.843C98.4052 103.092 97.7966 102.484 97.0458 102.484C96.2949 102.484 95.6863 103.092 95.6863 103.843C95.6863 104.594 96.2949 105.203 97.0458 105.203Z" fill="black"/>
<path d="M103.843 105.203C104.594 105.203 105.203 104.594 105.203 103.843C105.203 103.092 104.594 102.484 103.843 102.484C103.092 102.484 102.484 103.092 102.484 103.843C102.484 104.594 103.092 105.203 103.843 105.203Z" fill="black"/>
<path d="M39.2679 108.601C40.0187 108.601 40.6274 107.993 40.6274 107.242C40.6274 106.491 40.0187 105.882 39.2679 105.882C38.5171 105.882 37.9084 106.491 37.9084 107.242C37.9084 107.993 38.5171 108.601 39.2679 108.601Z" fill="black"/>
<path d="M42.6666 108.601C43.4174 108.601 44.0261 107.993 44.0261 107.242C44.0261 106.491 43.4174 105.882 42.6666 105.882C41.9158 105.882 41.3071 106.491 41.3071 107.242C41.3071 107.993 41.9158 108.601 42.6666 108.601Z" fill="black"/>
<path d="M52.8628 108.601C53.6136 108.601 54.2223 107.993 54.2223 107.242C54.2223 106.491 53.6136 105.882 52.8628 105.882C52.112 105.882 51.5033 106.491 51.5033 107.242C51.5033 107.993 52.112 108.601 52.8628 108.601Z" fill="black"/>
<path d="M63.0588 108.601C63.8096 108.601 64.4183 107.993 64.4183 107.242C64.4183 106.491 63.8096 105.882 63.0588 105.882C62.308 105.882 61.6993 106.491 61.6993 107.242C61.6993 107.993 62.308 108.601 63.0588 108.601Z" fill="black"/>
<path d="M66.4575 108.601C67.2083 108.601 67.817 107.993 67.817 107.242C67.817 106.491 67.2083 105.882 66.4575 105.882C65.7067 105.882 65.098 106.491 65.098 107.242C65.098 107.993 65.7067 108.601 66.4575 108.601Z" fill="black"/>
<path d="M73.2549 108.601C74.0057 108.601 74.6143 107.993 74.6143 107.242C74.6143 106.491 74.0057 105.882 73.2549 105.882C72.504 105.882 71.8954 106.491 71.8954 107.242C71.8954 107.993 72.504 108.601 73.2549 108.601Z" fill="black"/>
<path d="M76.6535 108.601C77.4044 108.601 78.013 107.993 78.013 107.242C78.013 106.491 77.4044 105.882 76.6535 105.882C75.9027 105.882 75.2941 106.491 75.2941 107.242C75.2941 107.993 75.9027 108.601 76.6535 108.601Z" fill="black"/>
<path d="M83.451 108.601C84.2018 108.601 84.8105 107.993 84.8105 107.242C84.8105 106.491 84.2018 105.882 83.451 105.882C82.7002 105.882 82.0916 106.491 82.0916 107.242C82.0916 107.993 82.7002 108.601 83.451 108.601Z" fill="black"/>
<path d="M86.8497 108.601C87.6005 108.601 88.2092 107.993 88.2092 107.242C88.2092 106.491 87.6005 105.882 86.8497 105.882C86.0989 105.882 85.4902 106.491 85.4902 107.242C85.4902 107.993 86.0989 108.601 86.8497 108.601Z" fill="black"/>
<path d="M90.2484 108.601C90.9992 108.601 91.6079 107.993 91.6079 107.242C91.6079 106.491 90.9992 105.882 90.2484 105.882C89.4976 105.882 88.8889 106.491 88.8889 107.242C88.8889 107.993 89.4976 108.601 90.2484 108.601Z" fill="black"/>
<path d="M93.6471 108.601C94.3979 108.601 95.0066 107.993 95.0066 107.242C95.0066 106.491 94.3979 105.882 93.6471 105.882C92.8963 105.882 92.2876 106.491 92.2876 107.242C92.2876 107.993 92.8963 108.601 93.6471 108.601Z" fill="black"/>
<path d="M97.0458 108.601C97.7966 108.601 98.4052 107.993 98.4052 107.242C98.4052 106.491 97.7966 105.882 97.0458 105.882C96.2949 105.882 95.6863 106.491 95.6863 107.242C95.6863 107.993 96.2949 108.601 97.0458 108.601Z" fill="black"/>
<path d="M22.6144 34.5098C29.1841 34.5098 34.5098 29.1841 34.5098 22.6144C34.5098 16.0448 29.1841 10.719 22.6144 10.719C16.0448 10.719 10.719 16.0448 10.719 22.6144C10.719 29.1841 16.0448 34.5098 22.6144 34.5098Z" fill="black"/>
<path d="M22.6144 31.1111C27.307 31.1111 31.1111 27.307 31.1111 22.6144C31.1111 17.9218 27.307 14.1177 22.6144 14.1177C17.9218 14.1177 14.1177 17.9218 14.1177 22.6144C14.1177 27.307 17.9218 31.1111 22.6144 31.1111Z" fill="white"/>
<path d="M22.6144 27.7124C25.43 27.7124 27.7124 25.43 27.7124 22.6144C27.7124 19.7988 25.43 17.5164 22.6144 17.5164C19.7988 17.5164 17.5164 19.7988 17.5164 22.6144C17.5164 25.43 19.7988 27.7124 22.6144 27.7124Z" fill="black"/>
<path d="M97.3857 34.5098C103.955 34.5098 109.281 29.1841 109.281 22.6144C109.281 16.0448 103.955 10.719 97.3857 10.719C90.816 10.719 85.4902 16.0448 85.4902 22.6144C85.4902 29.1841 90.816 34.5098 97.3857 34.5098Z" fill="black"/>
<path d="M97.3856 31.1111C102.078 31.1111 105.882 27.307 105.882 22.6144C105.882 17.9218 102.078 14.1177 97.3856 14.1177C92.693 14.1177 88.8889 17.9218 88.8889 22.6144C88.8889 27.307 92.693 31.1111 97.3856 31.1111Z" fill="white"/>
<path d="M97.3856 27.7124C100.201 27.7124 102.484 25.43 102.484 22.6144C102.484 19.7988 100.201 17.5164 97.3856 17.5164C94.5701 17.5164 92.2876 19.7988 92.2876 22.6144C92.2876 25.43 94.5701 27.7124 97.3856 27.7124Z" fill="black"/>
<path d="M22.6144 109.281C29.1841 109.281 34.5098 103.955 34.5098 97.3857C34.5098 90.816 29.1841 85.4902 22.6144 85.4902C16.0448 85.4902 10.719 90.816 10.719 97.3857C10.719 103.955 16.0448 109.281 22.6144 109.281Z" fill="black"/>
<path d="M22.6144 105.882C27.307 105.882 31.1111 102.078 31.1111 97.3856C31.1111 92.693 27.307 88.8889 22.6144 88.8889C17.9218 88.8889 14.1177 92.693 14.1177 97.3856C14.1177 102.078 17.9218 105.882 22.6144 105.882Z" fill="white"/>
<path d="M22.6144 102.484C25.43 102.484 27.7124 100.201 27.7124 97.3856C27.7124 94.5701 25.43 92.2876 22.6144 92.2876C19.7988 92.2876 17.5164 94.5701 17.5164 97.3856C17.5164 100.201 19.7988 102.484 22.6144 102.484Z" fill="black"/>
<rect x="50.4758" y="52.0758" width="20" height="20" rx="10" fill="white"/>
<g clip-path="url(#clip0_618_4078)">
<g clip-path="url(#clip1_618_4078)">
<path d="M62.8582 54.588L54.3029 62.6794C55.223 65.1417 57.7057 66.906 60.6242 66.906C60.6242 68.5013 59.7129 69.8089 58.5571 69.9246C58.4929 69.9309 58.4643 70.0075 58.5096 70.0529C58.5242 70.0675 58.5435 70.0753 58.5639 70.0753C63.4056 70.0565 67.3257 65.8075 67.3267 60.5685C67.3267 60.5674 67.3267 60.5669 67.3267 60.5659C67.3267 57.8058 65.4613 55.4577 62.8577 54.5875L62.8582 54.588Z" fill="#F18200"/>
<path d="M60.6237 54.2267C56.9215 54.2267 53.9207 57.0649 53.9207 60.5663C53.9207 61.3071 54.0557 62.0183 54.3028 62.6793L62.8582 54.588C62.159 54.3544 61.4072 54.2267 60.6237 54.2267Z" fill="#3777BC"/>
<path d="M56.5368 63.0407C60.239 63.0407 63.2398 60.2024 63.2398 56.701C63.2398 55.9602 63.1048 55.2491 62.8577 54.588L54.3029 62.6794C55.002 62.9129 55.7538 63.0407 56.5374 63.0407H56.5368Z" fill="#1C3C5E"/>
</g>
</g>
<defs>
<clipPath id="clip0_618_4078">
<rect width="13.6594" height="15.8491" fill="white" transform="translate(53.6461 54.1512)"/>
</clipPath>
<clipPath id="clip1_618_4078">
<rect width="13.4065" height="15.8491" fill="white" transform="translate(53.9207 54.2267)"/>
</clipPath>
</defs>
</svg>
