<svg width="24" height="25" viewBox="0 0 24 25" fill="none" xmlns="http://www.w3.org/2000/svg">
<g clip-path="url(#clip0_2832_2690)">
<path fill-rule="evenodd" clip-rule="evenodd" d="M13.9406 0.524399H10.1525C9.89956 0.583879 9.64224 0.590487 9.38491 0.597096C9.25557 0.600417 9.12623 0.603739 8.99745 0.613774C7.91995 0.697524 6.84495 0.792524 5.77183 0.926899C4.88808 1.03815 4.05058 1.26127 3.29245 1.7419C1.71058 2.74502 0.718701 4.13252 0.419326 6.0169C0.138076 7.7869 0.00807568 9.56252 0.0543257 11.3513C0.0949507 12.9188 0.223701 14.4825 0.620576 16.0038C0.946826 17.2531 1.69683 18.2356 2.73433 18.9981C2.73499 18.9982 2.73565 18.9983 2.73632 18.9984C3.51568 19.6309 4.40415 20.0114 5.39552 20.1557C6.33552 20.2919 7.27927 20.3913 8.22614 20.4607C8.38802 20.4725 8.48614 20.5338 8.57614 20.6744C9.20052 21.6538 9.85364 22.6132 10.5474 23.5457C10.8761 23.9875 11.2424 24.3619 11.7886 24.5144H12.303C12.8874 24.3207 13.2605 23.8838 13.6086 23.4069C14.2624 22.5125 14.8868 21.5982 15.4824 20.6644C15.5593 20.5438 15.6399 20.4807 15.7924 20.4675C16.8086 20.3807 17.8224 20.275 18.8324 20.1282C20.8486 19.8344 23.2099 17.8738 23.5818 15.3344L23.5919 15.2653C23.7436 14.2303 23.8949 13.1974 23.9518 12.1519C23.9524 12.1411 23.9522 12.1298 23.952 12.1186C23.9513 12.0759 23.9505 12.0323 23.9955 12.0032V9.1919C23.9318 9.01201 23.9272 8.82481 23.9225 8.63824C23.9206 8.56293 23.9188 8.48773 23.913 8.41315C23.8355 7.4244 23.708 6.44315 23.5049 5.47315C23.198 4.00815 22.3411 2.9119 21.1743 2.02753C20.2361 1.3169 19.1568 1.00815 18.0055 0.899401C17.8511 0.885026 17.6961 0.870026 17.5418 0.855026C17.5418 0.855198 17.5419 0.855368 17.542 0.85554C17.2191 0.783399 16.8906 0.758682 16.5623 0.733978C16.4815 0.727895 16.4007 0.721813 16.32 0.715024C16.2701 0.710793 16.2202 0.706546 16.1704 0.7023C15.4615 0.641927 14.753 0.581579 14.0412 0.568149C14.0025 0.566899 13.9631 0.565024 13.9406 0.524399ZM13.4042 16.7378C13.3995 16.6787 13.3958 16.6194 13.3922 16.5601C13.3839 16.4254 13.3756 16.2906 13.3543 16.1575C13.2874 15.7425 13.0374 15.5213 12.6218 15.4675C12.2181 15.4156 11.8168 15.4169 11.4137 15.4688C11.0131 15.5206 10.7631 15.7438 10.695 16.1469C10.6343 16.5094 10.6475 16.875 10.6637 17.2413C10.6805 17.608 10.802 17.9063 11.1336 18.0939C11.134 18.0936 11.1345 18.0934 11.1349 18.0932C11.6655 18.2163 12.2011 18.2213 12.7343 18.1313C13.0524 18.0775 13.2593 17.8719 13.3374 17.5513C13.3825 17.3654 13.3879 17.1757 13.3932 16.986C13.3956 16.9026 13.3979 16.8193 13.4036 16.7363V16.7382C13.4038 16.738 13.404 16.7379 13.4042 16.7378ZM11.7181 4.45752C11.9962 4.41377 12.2762 4.4044 12.5581 4.40002V4.4019C13.7893 4.41502 14.8856 4.77377 15.7762 5.66252C16.9887 6.87315 17.205 9.08252 15.6618 10.4713C15.2299 10.8594 14.7474 11.1725 14.2625 11.485C14.1697 11.5449 14.0795 11.6087 13.9894 11.6725C13.9459 11.7033 13.9024 11.7341 13.8587 11.7644C13.4762 12.0281 13.2962 12.3756 13.3106 12.8563C13.33 13.4994 12.9931 13.9744 12.4487 14.1656C11.6918 14.4313 10.8675 13.9631 10.7568 13.1675C10.5925 11.9831 10.8762 10.9513 11.8737 10.195C12.1224 10.0063 12.3825 9.8344 12.6487 9.67252C12.9487 9.49002 13.2456 9.30315 13.5093 9.0694C13.7356 8.8694 13.9262 8.64315 13.9831 8.33627C14.0937 7.74315 13.83 7.29002 13.2625 7.08377C12.4356 6.78315 11.4368 7.0494 10.9793 7.69002C10.8522 7.86794 10.7748 8.06825 10.697 8.26964C10.6876 8.29393 10.6782 8.31824 10.6687 8.34252C10.4106 9.00127 9.75433 9.34502 9.06183 9.18877C8.41495 9.04315 7.96433 8.43065 8.00245 7.75002C8.01183 7.5844 8.05807 7.42627 8.11683 7.27377C8.75432 5.61315 9.99745 4.72877 11.7181 4.45752Z" fill="#EE6002"/>
<path d="M12.5581 4.40002C13.7894 4.41315 14.8863 4.77252 15.7763 5.66065C16.9894 6.87127 17.2056 9.08065 15.6619 10.4694C15.23 10.8581 14.7475 11.1713 14.2625 11.4831C14.125 11.5719 13.9938 11.6694 13.8588 11.7625C13.4769 12.0263 13.2963 12.3744 13.3106 12.8544C13.33 13.4975 12.9931 13.9725 12.4488 14.1638C11.6919 14.4294 10.8669 13.9619 10.7569 13.1656C10.5925 11.9813 10.8763 10.9494 11.8737 10.1931C12.1225 10.0044 12.3825 9.83252 12.6488 9.67065C12.9488 9.48815 13.245 9.30127 13.5094 9.06752C13.735 8.86752 13.9256 8.64127 13.9831 8.3344C14.0931 7.74127 13.83 7.28815 13.2625 7.0819C12.4356 6.78127 11.4369 7.0469 10.9794 7.68815C10.8369 7.88752 10.7569 8.11565 10.6688 8.34065C10.4106 9.00002 9.75438 9.34315 9.06188 9.1869C8.415 9.04127 7.96437 8.42815 8.0025 7.74815C8.01187 7.58252 8.05813 7.42502 8.11688 7.2719C8.75437 5.6119 9.9975 4.7269 11.7181 4.45565C11.9963 4.4119 12.2762 4.40252 12.5581 4.39815V4.40002Z" fill="#FEFEFE"/>
<path d="M13.4038 16.7381C13.385 17.01 13.4025 17.2856 13.3375 17.5531C13.2594 17.8731 13.0525 18.0788 12.7344 18.1331C12.2013 18.2238 11.665 18.2181 11.135 18.095C10.8019 17.9075 10.68 17.6088 10.6631 17.2413C10.6463 16.875 10.6331 16.5088 10.6944 16.1469C10.7619 15.7438 11.0125 15.5206 11.4131 15.4688C11.8163 15.4169 12.2175 15.4156 12.6213 15.4675C13.0375 15.5213 13.2869 15.7425 13.3538 16.1575C13.3844 16.3488 13.3881 16.545 13.4038 16.7388V16.7381Z" fill="#FEFEFE"/>
</g>
<defs>
<clipPath id="clip0_2832_2690">
<rect width="24" height="24" fill="white" transform="translate(0 0.52002)"/>
</clipPath>
</defs>
</svg>
