<svg width="34" height="34" viewBox="0 0 34 34" fill="none" xmlns="http://www.w3.org/2000/svg">
<g id="Layer_1">
<g id="Group">
<path id="Vector" d="M17.3484 3.26172L5.67578 13.8214V33.1274H13.4222H20.6834H28.616V14.044L17.3484 3.26172Z" fill="white"/>
<path id="Vector (Stroke)" fill-rule="evenodd" clip-rule="evenodd" d="M5.30602 13.4191L16.9786 2.85938L17.7279 2.86987L28.9954 13.6522L29.1652 14.0495V33.1329L28.6152 33.6829H5.675L5.125 33.1329V13.8269L5.30602 13.4191ZM6.225 14.0711V32.5829H28.0652V14.2845L17.3371 4.01842L6.225 14.0711Z" fill="#1A1A1A"/>
<path id="Vector_2" d="M33.1625 17.1472L18.0563 2.24907C17.8192 1.97541 17.4798 1.8477 17.1441 1.86959C16.8084 1.8477 16.4691 1.97541 16.2319 2.24907L1.12578 17.1472C0.724412 17.6143 0.775495 18.3149 1.24255 18.7199C1.7096 19.1212 2.41017 19.9421 2.81519 19.475L17.1441 5.47083L31.4767 19.475C31.8781 19.9421 32.5823 19.1212 33.0494 18.7199C33.5164 18.3185 33.5675 17.6143 33.1661 17.1472H33.1625Z" fill="#FFC77D"/>
<path id="Vector (Stroke)_2" fill-rule="evenodd" clip-rule="evenodd" d="M17.1434 1.31801C17.6231 1.297 18.1094 1.48197 18.4556 1.87031L33.512 16.7194C33.5373 16.7399 33.5609 16.7629 33.5825 16.788C34.1806 17.4839 34.106 18.5356 33.4071 19.1362C33.3377 19.1959 33.2676 19.2611 33.1861 19.3369C33.1395 19.3802 33.0893 19.4269 33.0333 19.4781C32.8921 19.6072 32.7251 19.7538 32.5507 19.8746C32.3852 19.9891 32.1584 20.1197 31.899 20.1548C31.6028 20.1948 31.3036 20.1034 31.0775 19.8538L17.1434 6.23905L3.21223 19.8545C2.98547 20.1033 2.68648 20.1948 2.38991 20.1548C2.13024 20.1197 1.90348 19.989 1.738 19.8743C1.56372 19.7535 1.39701 19.6067 1.25612 19.4777C1.20107 19.4273 1.15154 19.3811 1.10564 19.3383C1.02351 19.2618 0.953011 19.1961 0.883307 19.1362L0.881443 19.1346C0.185988 18.5315 0.108856 17.485 0.707885 16.788C0.717735 16.7765 0.728053 16.7655 0.738812 16.7548L15.8311 1.87032C16.1773 1.48197 16.6636 1.297 17.1434 1.31801ZM17.1076 2.41763C16.9347 2.40636 16.7656 2.47144 16.6468 2.60849C16.6374 2.61933 16.6276 2.6298 16.6174 2.63987L1.53003 17.5195C1.33979 17.756 1.36824 18.0999 1.60118 18.3028C1.68688 18.3765 1.78533 18.4681 1.87796 18.5543C1.92011 18.5936 1.96106 18.6317 1.99905 18.6665C2.13353 18.7896 2.25485 18.8941 2.36473 18.9703C2.40779 19.0002 2.44417 19.0222 2.4741 19.0378L16.7589 5.0767C16.9726 4.86784 17.314 4.86782 17.5277 5.07665L31.8157 19.0373C31.8456 19.0216 31.8818 18.9997 31.9246 18.9701C32.0348 18.8938 32.1565 18.7892 32.2912 18.6661C32.3298 18.6308 32.3715 18.5921 32.4144 18.5522C32.5069 18.4663 32.6051 18.3751 32.6901 18.302C32.9156 18.1082 32.9503 17.7722 32.7723 17.5349L17.6694 2.63987C17.6592 2.6298 17.6493 2.61933 17.6399 2.60849C17.5212 2.47144 17.3521 2.40636 17.1792 2.41763C17.1553 2.41919 17.1314 2.41919 17.1076 2.41763Z" fill="#1A1A1A"/>
</g>
<path id="Vector_3" d="M19.9017 16.9727C18.7307 16.9727 17.7073 17.5983 17.1458 18.5319C16.5843 17.5983 15.5577 16.9727 14.3898 16.9727C12.6124 16.9727 11.1719 18.4132 11.1719 20.1906C11.1719 24.2107 17.1458 27.2393 17.1458 27.2393C17.1458 27.2393 23.1197 24.2684 23.1197 20.1906C23.1197 18.4132 21.6792 16.9727 19.9017 16.9727Z" fill="#FFC77D"/>
<path id="Vector (Stroke)_3" fill-rule="evenodd" clip-rule="evenodd" d="M10.6914 20.1898C10.6914 18.1453 12.3485 16.4883 14.393 16.4883C15.4865 16.4883 16.4718 16.965 17.1488 17.7206C17.825 16.9651 18.8086 16.4883 19.9049 16.4883C21.9494 16.4883 23.6064 18.1453 23.6064 20.1898C23.6064 22.4586 21.9586 24.346 20.4466 25.6139C19.6764 26.2599 18.9086 26.7725 18.3345 27.1233C18.047 27.299 17.8067 27.4349 17.6374 27.5274C17.5527 27.5736 17.4856 27.6091 17.4392 27.6332C17.4159 27.6453 17.3978 27.6546 17.3852 27.661L17.3705 27.6685L17.3663 27.6706L17.365 27.6712C17.3648 27.6713 17.3643 27.6716 17.1489 27.2386C16.9302 27.6699 16.9301 27.6698 16.93 27.6697L16.9283 27.6689L16.9241 27.6667L16.9094 27.6592C16.8968 27.6527 16.8788 27.6432 16.8556 27.631C16.8092 27.6064 16.7422 27.5704 16.6575 27.5234C16.4883 27.4295 16.2483 27.2916 15.9609 27.1137C15.3872 26.7585 14.6199 26.2406 13.8502 25.5914C12.3406 24.3182 10.6914 22.4305 10.6914 20.1898ZM17.1489 27.2386L16.93 27.6697C17.0662 27.7388 17.2275 27.7396 17.3643 27.6716L17.1489 27.2386ZM17.1509 26.691C17.1584 26.6869 17.166 26.6828 17.1738 26.6785C17.3312 26.5926 17.5577 26.4645 17.8302 26.298C18.3762 25.9643 19.1019 25.4793 19.8251 24.8728C21.3001 23.6359 22.6392 21.9989 22.6392 20.1898C22.6392 18.6795 21.4152 17.4555 19.9049 17.4555C18.9105 17.4555 18.041 17.9861 17.5634 18.7804C17.4759 18.9258 17.3186 19.0147 17.1489 19.0147C16.9792 19.0147 16.8219 18.9258 16.7345 18.7804C16.257 17.9863 15.3844 17.4555 14.393 17.4555C12.8826 17.4555 11.6586 18.6795 11.6586 20.1898C11.6586 21.9692 12.9963 23.6059 14.4738 24.852C15.1975 25.4625 15.9237 25.953 16.4701 26.2913C16.7428 26.4602 16.9694 26.5903 17.1269 26.6777C17.1351 26.6823 17.1431 26.6867 17.1509 26.691Z" fill="#1A1A1A"/>
</g>
</svg>
