<svg width="40" height="40" viewBox="0 0 40 40" fill="none" xmlns="http://www.w3.org/2000/svg">
<path fill-rule="evenodd" clip-rule="evenodd" d="M19.6326 5.06666C19.8695 4.97782 20.1306 4.97782 20.3675 5.06666L31.5303 9.25271C31.9388 9.40588 32.2094 9.79636 32.2094 10.2326V20C32.2094 24.6533 29.1238 28.4073 26.2706 30.9039C24.822 32.1714 23.3783 33.1634 22.2989 33.8381C21.7581 34.1761 21.3059 34.4361 20.9866 34.6129C20.8268 34.7014 20.7001 34.7691 20.6119 34.8154C20.5678 34.8385 20.5333 34.8563 20.5091 34.8687L20.4806 34.8832L20.4723 34.8874L20.4697 34.8887C20.4697 34.8887 20.4681 34.8895 20.0001 33.9535C19.5321 34.8895 19.5314 34.8892 19.5314 34.8892L19.5278 34.8874L19.5195 34.8832L19.491 34.8687C19.4669 34.8563 19.4324 34.8385 19.3883 34.8154C19.3001 34.7691 19.1733 34.7014 19.0136 34.6129C18.6942 34.4361 18.242 34.1761 17.7012 33.8381C16.6218 33.1634 15.1781 32.1714 13.7295 30.9039C10.8763 28.4073 7.79077 24.6533 7.79077 20V10.2326C7.79077 9.79636 8.06137 9.40588 8.46983 9.25271L19.6326 5.06666ZM20.0001 33.9535L19.5314 34.8892C19.826 35.0365 20.1735 35.0369 20.4681 34.8895L20.0001 33.9535Z" fill="#43A047"/>
<path fill-rule="evenodd" clip-rule="evenodd" d="M26.4168 15.1882C26.7624 15.4954 26.7935 16.0246 26.4863 16.3702L19.7886 23.9051C19.6355 24.0774 19.418 24.1789 19.1875 24.1857C18.957 24.1925 18.734 24.1039 18.5709 23.9408L14.3849 19.7548C14.0579 19.4278 14.0579 18.8978 14.3849 18.5708C14.7118 18.2439 15.2419 18.2439 15.5689 18.5708L19.1271 22.129L25.2348 15.2578C25.542 14.9122 26.0712 14.881 26.4168 15.1882Z" fill="white"/>
</svg>
