<svg width="40" height="40" viewBox="0 0 40 40" fill="none" xmlns="http://www.w3.org/2000/svg">
<g clip-path="url(#clip0_763_16343)">
<path d="M18.6893 3.99609H21.2518C21.2832 4.07253 21.3527 4.05374 21.4116 4.05875C22.3658 4.14396 23.3069 4.30686 24.2298 4.56437C26.8744 5.30306 29.1945 6.6094 31.1531 8.54291C30.2703 9.42007 29.3875 10.2972 28.5047 11.1744C28.4101 11.0791 28.3029 10.9927 28.2246 10.8855C28.0661 10.67 27.9521 10.7045 27.7754 10.8862C27.1783 11.5002 26.5605 12.0935 25.9509 12.6944C25.85 12.6054 25.7448 12.5208 25.6502 12.4262C24.1884 10.9664 22.728 9.50528 21.2662 8.04543C21.1723 7.95145 21.0933 7.83429 20.9498 7.80422C20.8834 7.70209 20.7794 7.74908 20.6936 7.74783C20.2362 7.74281 19.7776 7.75535 19.3208 7.74093C19.1216 7.73467 19.0577 7.78605 19.0596 7.99531C19.0708 9.02535 19.0639 10.0548 19.0665 11.0848C19.0665 11.1725 19.0289 11.2753 19.126 11.3429C19.4004 11.7583 19.8221 12.0371 20.1272 12.4237C19.5552 12.4312 18.9881 12.4832 18.4268 12.6004C17.3027 12.8353 16.2971 13.3284 15.3736 14.0007C15.0635 13.7821 14.8674 13.4356 14.5322 13.2445C14.5115 13.1192 14.4037 13.0609 14.326 12.9826C13.7502 12.4024 13.1745 11.821 12.5899 11.2489C12.3938 11.0566 12.2096 10.6901 11.9872 10.7277C11.7566 10.7665 11.5755 11.1005 11.3725 11.3053C11.1952 11.4795 11.026 11.6643 10.8375 11.8254C10.6871 11.9538 10.7021 12.0327 10.8387 12.1668C11.5818 12.8967 12.3142 13.6373 13.051 14.3735C13.1087 14.4311 13.1569 14.5051 13.249 14.5157C13.4301 14.8666 13.7947 15.0552 14.0084 15.3772C12.9658 16.7869 12.4514 18.3721 12.4339 20.122C12.3499 20.0468 12.266 19.9704 12.1814 19.8958C11.8976 19.644 11.6783 19.3232 11.3481 19.1208C11.3142 19.1008 11.2798 19.0638 11.2453 19.0638C10.1326 19.06 9.01985 19.0625 7.90712 19.0569C7.74985 19.0563 7.7486 19.1396 7.74923 19.253C7.75173 19.721 7.74672 20.1891 7.75299 20.6571C7.75424 20.753 7.70098 20.867 7.80937 20.9447C7.83193 21.0669 7.92654 21.1377 8.00674 21.2178C9.49164 22.7034 10.9772 24.1889 12.4627 25.6738C12.5504 25.7615 12.6306 25.8612 12.7634 25.885C12.2346 26.4213 11.7071 26.9595 11.1764 27.4945C10.8377 27.8358 10.8408 28.172 11.1858 28.5033C10.308 29.3855 9.42961 30.2676 8.55183 31.1498C6.1528 28.7044 4.72115 25.7747 4.17856 22.3989C4.1203 22.0361 4.14661 21.6589 4 21.3112V18.686C4.08897 18.6465 4.06015 18.5626 4.06704 18.4955C4.27944 16.3803 4.84082 14.3629 5.87273 12.502C8.45973 7.83366 12.39 5.04806 17.663 4.16902C18.0051 4.112 18.361 4.13519 18.6893 3.99609Z" fill="#6B8EBF"/>
<path d="M31.3172 31.3128C29.4946 33.141 27.3524 34.4542 24.897 35.2431C22.6803 35.9554 20.411 36.1653 18.0965 35.8846C14.4588 35.4429 11.3505 33.9098 8.72909 31.3648C8.6633 31.3009 8.61004 31.2232 8.55115 31.1517C9.42893 30.2696 10.3073 29.3874 11.1851 28.5052C11.6864 28.0121 12.1939 27.5247 12.6876 27.0241C13.0359 26.6713 13.4156 26.3487 13.7214 25.954C14.0158 25.7284 14.2696 25.4615 14.5052 25.1764C15.1367 24.605 15.7294 23.9941 16.3153 23.3764C17.017 22.6821 17.7212 21.9911 18.4192 21.2931C18.8885 20.8238 19.349 20.3451 19.8132 19.8702C19.8314 19.8658 19.8502 19.8608 19.8684 19.8564C19.9342 19.936 19.9949 20.0206 20.0676 20.0939C21.6377 21.6659 23.2085 23.2373 24.7805 24.8068C24.8531 24.8794 24.9384 24.9396 25.0179 25.006C25.0129 25.0248 25.0098 25.0442 25.0085 25.0636C22.9704 26.6576 20.6509 26.6425 18.6754 25.0229C18.6122 24.9709 18.5558 24.9007 18.4612 24.9603C18.4875 25.0267 18.5163 25.09 18.5382 25.1557C19.4661 27.9307 21.9441 29.4726 24.8488 29.0503C25.9095 28.8962 26.8493 28.4451 27.6369 27.7026L27.6644 27.7001H27.692C28.5792 28.5942 29.4645 29.4889 30.3542 30.3798C30.67 30.6962 30.9958 31.002 31.3172 31.3121V31.3128Z" fill="#414952"/>
<path d="M31.3172 31.3131C30.9958 31.0023 30.67 30.6966 30.3542 30.3808C29.4645 29.4899 28.5792 28.5945 27.692 27.7011C30.4494 25.1398 30.0566 20.8668 27.0448 18.8311C26.5054 18.4665 25.922 18.1958 25.2097 18.0423C25.9797 18.8775 26.4609 19.776 26.5812 20.8467C26.7666 22.4995 26.2572 23.8898 25.0186 25.007C24.939 24.9405 24.8544 24.8804 24.7811 24.8077C23.2091 23.2376 21.6377 21.6669 20.0683 20.0949C19.9956 20.0222 19.9354 19.937 19.869 19.8574C19.9962 19.7227 20.1209 19.5842 20.2512 19.4527C21.2938 18.402 22.337 17.3525 23.3802 16.303C23.981 15.7016 24.5819 15.1007 25.1827 14.4992C25.4597 14.2568 25.7247 14.0018 25.9596 13.7173C26.8324 12.8947 27.677 12.0432 28.5053 11.1754C29.3881 10.2983 30.2709 9.4211 31.1537 8.54395C31.7645 9.05332 32.2608 9.66921 32.7382 10.297C34.3816 12.4573 35.4417 14.8745 35.8176 17.5661C36.5545 22.8398 35.0508 27.401 31.3911 31.2586C31.3704 31.2805 31.3423 31.2943 31.3172 31.3125V31.3131Z" fill="#333940"/>
<path d="M25.1834 14.4984C24.5826 15.0999 23.9817 15.7007 23.3808 16.3022C23.2631 16.1412 23.1146 16.0152 22.9517 15.9C21.8233 15.1011 20.5764 14.7853 19.2093 15.0046C18.1336 15.1769 17.2031 15.6512 16.4363 16.4331C15.8962 15.9031 15.3561 15.373 14.816 14.8436C14.7559 14.7847 14.7007 14.7233 14.6895 14.6356C14.9175 14.4245 15.1462 14.2133 15.3743 14.0028C16.2978 13.3311 17.3034 12.8374 18.4274 12.6025C18.9882 12.4853 19.5558 12.4333 20.1278 12.4258C22.0632 12.5072 23.763 13.1626 25.1834 14.499V14.4984Z" fill="#FDA201"/>
<path d="M14.6894 14.6354C14.7007 14.7237 14.7564 14.7851 14.816 14.8434C15.356 15.3735 15.8961 15.9035 16.4362 16.4329C16.4362 16.4536 16.4368 16.4743 16.4368 16.495C16.3886 16.5338 16.3341 16.5676 16.2927 16.6134C15.1092 17.916 14.7389 19.4391 15.106 21.1414C15.2902 21.996 15.6568 22.7704 16.3159 23.3763C15.7301 23.9934 15.138 24.6049 14.5058 25.1757C14.009 24.6381 13.5904 24.0473 13.2565 23.3938C12.7314 22.3657 12.5015 21.2655 12.4338 20.1233C12.452 18.3733 12.9664 16.7882 14.0083 15.3785C14.2351 15.1304 14.462 14.8829 14.6888 14.6348L14.6894 14.6354Z" fill="#FBB913"/>
<path d="M12.4338 20.1243C12.5015 21.2664 12.7308 22.3667 13.2565 23.3948C13.5898 24.0477 14.009 24.6391 14.5058 25.1767C14.2702 25.4618 14.0165 25.7287 13.7214 25.9542C13.7132 25.9473 13.7051 25.9411 13.6982 25.9336C13.5503 25.7901 13.4213 25.5626 13.249 25.5232C13.0353 25.4737 12.952 25.7907 12.7634 25.8872C12.6306 25.8634 12.5504 25.7638 12.4627 25.676C10.9771 24.1911 9.49159 22.7056 8.00669 21.2201C7.92649 21.1399 7.83188 21.0691 7.80933 20.9469C8.90202 20.9438 9.99408 20.9356 11.0861 20.9413C11.2866 20.9425 11.3543 20.893 11.3487 20.6838C11.3349 20.1637 11.3462 19.6437 11.3474 19.123C11.6776 19.3254 11.8969 19.6462 12.1807 19.8981C12.2653 19.9733 12.3492 20.0491 12.4332 20.1243H12.4338Z" fill="#406CAA"/>
<path d="M25.1834 14.499C23.763 13.1626 22.0632 12.5066 20.1278 12.4258C19.8227 12.0386 19.4004 11.7604 19.1266 11.345C19.6366 11.3437 20.1472 11.3281 20.6566 11.3475C20.8966 11.3563 20.9479 11.2823 20.9461 11.0524C20.9367 9.97037 20.9473 8.8877 20.9505 7.80566C21.0946 7.83574 21.1729 7.9529 21.2669 8.04688C22.7286 9.50673 24.1884 10.9678 25.6508 12.4277C25.746 12.5223 25.8513 12.6069 25.9515 12.6958C25.7999 12.8625 25.5417 13.0197 25.5248 13.1996C25.5048 13.4126 25.8124 13.5379 25.9603 13.7171C25.7253 14.0015 25.4609 14.2565 25.1834 14.499Z" fill="#406CAA"/>
<path d="M20.9499 7.80571C20.9467 8.88775 20.9361 9.97042 20.9455 11.0525C20.9474 11.2824 20.896 11.3563 20.656 11.3476C20.1466 11.3288 19.636 11.3438 19.126 11.345C19.0289 11.2774 19.0665 11.1746 19.0665 11.0869C19.064 10.0569 19.0709 9.02684 19.0596 7.99744C19.0571 7.78817 19.121 7.73679 19.3209 7.74306C19.7782 7.75684 20.2362 7.74494 20.6936 7.74995C20.7794 7.75121 20.8835 7.70421 20.9499 7.80634V7.80571Z" fill="#FEA200"/>
<path d="M11.3481 19.1225C11.3468 19.6425 11.3355 20.1632 11.3493 20.6832C11.3549 20.8919 11.2867 20.9414 11.0868 20.9407C9.99472 20.9345 8.90203 20.9426 7.80997 20.9464C7.70221 20.8687 7.75483 20.7546 7.75358 20.6588C7.74732 20.1908 7.75233 19.7227 7.74982 19.2547C7.74982 19.1413 7.74982 19.058 7.90771 19.0586C9.02045 19.0642 10.1332 19.0617 11.2459 19.0655C11.2804 19.0655 11.3142 19.1025 11.3487 19.1225H11.3481Z" fill="#FCB912"/>
<path d="M11.3732 11.3079C11.5762 11.103 11.7566 10.7691 11.9878 10.7302C12.2102 10.6926 12.3944 11.0592 12.5905 11.2515C13.1745 11.8235 13.7503 12.4043 14.3267 12.9851C14.4044 13.0635 14.5128 13.1217 14.5328 13.247C14.3135 13.4557 14.0936 13.6643 13.8743 13.873C13.0661 13.0735 12.2578 12.2746 11.4521 11.4727C11.4114 11.4326 11.3989 11.3637 11.3732 11.3085V11.3079Z" fill="#FDA201"/>
<path d="M11.3731 11.3082C11.3988 11.3634 11.4113 11.4323 11.452 11.4724C12.2578 12.2744 13.066 13.0732 13.8742 13.8727C13.6662 14.0876 13.4582 14.3031 13.2496 14.518C13.1575 14.5074 13.1092 14.4334 13.0516 14.3758C12.3148 13.6396 11.5824 12.899 10.8393 12.1691C10.7027 12.035 10.6877 11.9561 10.838 11.8276C11.0266 11.6666 11.1958 11.4818 11.3731 11.3076V11.3082Z" fill="#F8B817"/>
<path d="M25.9597 13.7166C25.8118 13.5374 25.5042 13.4121 25.5242 13.199C25.5412 13.0192 25.7993 12.8626 25.9509 12.6953C26.5606 12.0944 27.1783 11.5005 27.7754 10.8871C27.9527 10.7048 28.0668 10.6709 28.2246 10.8865C28.303 10.9936 28.4107 11.0794 28.5047 11.1753C27.6764 12.0431 26.8318 12.8945 25.9591 13.7172L25.9597 13.7166Z" fill="#F69F08"/>
<path d="M12.7635 25.8858C12.9521 25.79 13.0354 25.4723 13.249 25.5218C13.4213 25.5619 13.5498 25.7887 13.6983 25.9322C13.7058 25.9391 13.7139 25.946 13.7214 25.9529C13.4163 26.3476 13.0366 26.6703 12.6883 27.023C12.1939 27.5236 11.6871 28.0111 11.1858 28.5041C10.84 28.1717 10.8368 27.8354 11.1764 27.4954C11.7071 26.9603 12.2347 26.4228 12.7635 25.8858Z" fill="#F8B817"/>
<path d="M13.2496 14.5173C13.4576 14.3024 13.6657 14.0869 13.8743 13.872C14.0936 13.6634 14.3135 13.4547 14.5328 13.2461C14.8686 13.4366 15.0641 13.7837 15.3742 14.0023C15.1462 14.2135 14.9175 14.4246 14.6894 14.6351C14.4626 14.8832 14.2358 15.1314 14.009 15.3788C13.7954 15.0568 13.4307 14.8682 13.2496 14.5173Z" fill="#406CAA"/>
<path d="M25.0186 25.0066C26.2579 23.8895 26.7666 22.4992 26.5812 20.8464C26.4609 19.7756 25.9797 18.8772 25.2097 18.042C25.922 18.1955 26.5054 18.4662 27.0448 18.8308C30.056 20.8664 30.4494 25.1395 27.692 27.7008H27.6645L27.6369 27.7033C26.7942 26.7904 25.9058 25.9226 25.0085 25.0643C25.0098 25.0449 25.0129 25.0254 25.0179 25.0066H25.0186Z" fill="#E7EBF3"/>
<path d="M25.0085 25.0636C25.9058 25.922 26.7942 26.7898 27.6369 27.7026C26.8493 28.4451 25.9089 28.8962 24.8488 29.0503C21.9441 29.4726 19.4662 27.9307 18.5382 25.1557C18.5163 25.09 18.4875 25.0267 18.4612 24.9603C18.5558 24.9007 18.6122 24.9709 18.6755 25.0229C20.6509 26.6425 22.9704 26.6576 25.0085 25.0636Z" fill="#FDFDFD"/>
<path d="M16.4369 16.4958C16.4369 16.4752 16.4369 16.4545 16.4363 16.4338C17.2032 15.6519 18.133 15.1776 19.2087 15.0053C20.5758 14.786 21.8227 15.1024 22.9511 15.9006C23.114 16.0159 23.2625 16.1418 23.3802 16.3029C22.3371 17.3523 21.2939 18.4018 20.2513 19.4525C20.1203 19.5841 19.9963 19.7219 19.8691 19.8572C19.8509 19.8616 19.8321 19.866 19.814 19.871C19.1567 19.2044 18.5026 18.534 17.841 17.8711C17.378 17.4075 16.9049 16.9538 16.4369 16.4958Z" fill="#FDD300"/>
<path d="M16.4368 16.4961C16.9055 16.9541 17.3785 17.4077 17.8409 17.8714C18.5025 18.5342 19.1566 19.204 19.8139 19.8713C19.3496 20.3456 18.8891 20.8242 18.4198 21.2942C17.7218 21.9921 17.0176 22.6832 16.3159 23.3774C15.6561 22.7709 15.2902 21.9971 15.106 21.1425C14.7395 19.4402 15.1092 17.9171 16.2927 16.6145C16.334 16.5688 16.3886 16.5356 16.4368 16.4961Z" fill="#FBD915"/>
</g>
<defs>
<clipPath id="clip0_763_16343">
<rect width="32" height="32.0088" fill="white" transform="translate(4 3.99609)"/>
</clipPath>
</defs>
</svg>
