<svg width="20" height="20" viewBox="0 0 20 20" fill="none" xmlns="http://www.w3.org/2000/svg">
<path id="Vector" d="M9.99994 0C4.47994 0 -6.10352e-05 4.48 -6.10352e-05 10C-6.10352e-05 15.52 4.47994 20 9.99994 20C15.5199 20 19.9999 15.52 19.9999 10C19.9999 4.48 15.5199 0 9.99994 0ZM8.65211 14.3478C8.29193 14.708 7.70795 14.708 7.34776 14.3478L3.70543 10.7055C3.3158 10.3159 3.3158 9.68414 3.70543 9.29451C4.09468 8.90526 4.72564 8.90482 5.11543 9.29353L7.53168 11.703C7.7904 11.961 8.20919 11.9607 8.46755 11.7024L14.8799 5.29C15.2717 4.89829 15.9071 4.89941 16.2974 5.29251C16.6858 5.68365 16.6847 6.31524 16.2949 6.705L8.65211 14.3478Z" fill="#43A047"/>
</svg>
