<svg width="17" height="16" viewBox="0 0 17 16" fill="none" xmlns="http://www.w3.org/2000/svg">
<g id="Group">
<path id="Vector" d="M8.13788 16C12.6323 16 16.2758 12.4183 16.2758 8C16.2758 3.58172 12.6323 0 8.13788 0C3.64345 0 0 3.58172 0 8C0 12.4183 3.64345 16 8.13788 16Z" fill="url(#paint0_linear_6853_23884)"/>
<path id="Vector_2" d="M7.23314 11.9568C6.88572 11.9443 6.5602 11.7815 6.32859 11.5217L3.99364 8.89261C3.63369 8.48886 3.54293 7.88792 3.82149 7.42469C4.28473 6.64848 5.30196 6.5984 5.8497 7.21186L7.20497 8.73612L10.2661 4.70482C10.5947 4.2729 11.1644 4.06945 11.6745 4.25099C12.5259 4.55771 12.77 5.54363 12.2724 6.19778L8.28481 11.4435C8.05945 11.7408 7.71516 11.9317 7.34269 11.9536C7.30513 11.9536 7.26757 11.9536 7.23001 11.9536L7.23314 11.9568Z" fill="#EEEEEE"/>
</g>
<defs>
<linearGradient id="paint0_linear_6853_23884" x1="4.57756" y1="2.83333" x2="12.1963" y2="14.1215" gradientUnits="userSpaceOnUse">
<stop stop-color="#FF8120"/>
<stop offset="1" stop-color="#E54304"/>
</linearGradient>
</defs>
</svg>
