<svg width="24" height="25" viewBox="0 0 24 25" fill="none" xmlns="http://www.w3.org/2000/svg">
<path d="M0 12.5C0 5.87258 5.37258 0.5 12 0.5V0.5C18.6274 0.5 24 5.87258 24 12.5V12.5C24 19.1274 18.6274 24.5 12 24.5V24.5C5.37258 24.5 0 19.1274 0 12.5V12.5Z" fill="#1A1A1A"/>
<g clip-path="url(#clip0_8527_76647)">
<path d="M17.3804 16.0544C17.1717 16.5365 16.9247 16.9803 16.6385 17.3883C16.2483 17.9446 15.9289 18.3296 15.6827 18.5434C15.3011 18.8944 14.8922 19.0741 14.4544 19.0843C14.14 19.0843 13.761 18.9949 13.3197 18.8134C12.877 18.6328 12.4702 18.5434 12.0982 18.5434C11.7081 18.5434 11.2897 18.6328 10.8421 18.8134C10.3939 18.9949 10.0328 19.0894 9.75672 19.0988C9.33686 19.1167 8.91836 18.9318 8.50062 18.5434C8.234 18.3109 7.90051 17.9122 7.501 17.3474C7.07236 16.7443 6.71996 16.045 6.44389 15.2477C6.14822 14.3865 6 13.5526 6 12.7452C6 11.8204 6.19984 11.0227 6.60011 10.3543C6.91469 9.81739 7.33319 9.39386 7.85698 9.08295C8.38077 8.77203 8.94672 8.61359 9.5562 8.60345C9.88969 8.60345 10.327 8.70661 10.8705 8.90934C11.4124 9.11276 11.7604 9.21592 11.9129 9.21592C12.027 9.21592 12.4136 9.0953 13.0689 8.85483C13.6886 8.63182 14.2116 8.53948 14.6401 8.57585C15.8011 8.66956 16.6734 9.12724 17.2535 9.95181C16.2151 10.581 15.7014 11.4622 15.7117 12.5926C15.721 13.4732 16.0405 14.2059 16.6683 14.7877C16.9528 15.0577 17.2705 15.2664 17.624 15.4146C17.5474 15.637 17.4664 15.8499 17.3804 16.0544ZM14.7176 5.57607C14.7176 6.26622 14.4654 6.91062 13.9629 7.50707C13.3564 8.21613 12.6228 8.62586 11.8273 8.5612C11.8171 8.47841 11.8112 8.39126 11.8112 8.29969C11.8112 7.63714 12.0997 6.92808 12.6119 6.34833C12.8676 6.05479 13.1928 5.81072 13.5872 5.61602C13.9808 5.42422 14.353 5.31815 14.7031 5.29999C14.7133 5.39225 14.7176 5.48452 14.7176 5.57606V5.57607Z" fill="white"/>
</g>
<defs>
<clipPath id="clip0_8527_76647">
<rect width="14.37" height="14.37" fill="white" transform="translate(4.81506 5.315)"/>
</clipPath>
</defs>
</svg>
