<svg width="26" height="36" viewBox="0 0 26 36" fill="none" xmlns="http://www.w3.org/2000/svg">
<g id="Layer_1" clip-path="url(#clip0_771_1235)">
<path id="Vector" d="M24.6896 10.168H1.53125V34.9693H24.6896V10.168Z" fill="white"/>
<path id="Vector (Stroke)" fill-rule="evenodd" clip-rule="evenodd" d="M0.980469 10.1672C0.980469 9.86343 1.22671 9.61719 1.53047 9.61719H24.6888C24.9926 9.61719 25.2388 9.86343 25.2388 10.1672V34.9685C25.2388 35.2723 24.9926 35.5185 24.6888 35.5185H1.53047C1.22671 35.5185 0.980469 35.2723 0.980469 34.9685V10.1672ZM2.08047 10.7172V34.4185H24.1388V10.7172H2.08047Z" fill="#1A1A1A"/>
<path id="Vector_2" d="M17.6788 4.1272H14.5828V1.03125H11.6389V4.1272H8.54297V7.07109H11.6389V10.167H14.5828V7.07109H17.6788V4.1272Z" fill="#FFC77D"/>
<path id="Vector (Stroke)_2" fill-rule="evenodd" clip-rule="evenodd" d="M11.092 1.03047C11.092 0.726712 11.3383 0.480469 11.642 0.480469H14.5859C14.8897 0.480469 15.1359 0.726712 15.1359 1.03047V3.57641H17.6819C17.9856 3.57641 18.2319 3.82266 18.2319 4.12641V7.07031C18.2319 7.37406 17.9856 7.62031 17.6819 7.62031H15.1359V10.1663C15.1359 10.47 14.8897 10.7163 14.5859 10.7163H11.642C11.3383 10.7163 11.092 10.47 11.092 10.1663V7.62031H8.54609C8.24234 7.62031 7.99609 7.37406 7.99609 7.07031V4.12641C7.99609 3.82266 8.24234 3.57641 8.54609 3.57641H11.092V1.03047ZM12.192 1.58047V4.12641C12.192 4.43017 11.9458 4.67641 11.642 4.67641H9.09609V6.52031H11.642C11.9458 6.52031 12.192 6.76655 12.192 7.07031V9.61625H14.0359V7.07031C14.0359 6.76655 14.2822 6.52031 14.5859 6.52031H17.1319V4.67641H14.5859C14.2822 4.67641 14.0359 4.43017 14.0359 4.12641V1.58047H12.192Z" fill="#1A1A1A"/>
<path id="Vector_3" d="M13.1073 30.6562H8.45703V34.9686H13.1073V30.6562Z" fill="#FFC77D"/>
<path id="Vector (Stroke)_3" fill-rule="evenodd" clip-rule="evenodd" d="M7.91016 30.6555C7.91016 30.3517 8.1564 30.1055 8.46016 30.1055H13.1104C13.4142 30.1055 13.6604 30.3517 13.6604 30.6555V34.9678C13.6604 35.2716 13.4142 35.5178 13.1104 35.5178H8.46016C8.1564 35.5178 7.91016 35.2716 7.91016 34.9678V30.6555ZM9.01016 31.2055V34.4178H12.5604V31.2055H9.01016Z" fill="#1A1A1A"/>
<path id="Vector_4" d="M17.7635 30.6562H13.1133V34.9686H17.7635V30.6562Z" fill="#FFC77D"/>
<path id="Vector (Stroke)_4" fill-rule="evenodd" clip-rule="evenodd" d="M12.5625 30.6555C12.5625 30.3517 12.8087 30.1055 13.1125 30.1055H17.7628C18.0665 30.1055 18.3128 30.3517 18.3128 30.6555V34.9678C18.3128 35.2716 18.0665 35.5178 17.7628 35.5178H13.1125C12.8087 35.5178 12.5625 35.2716 12.5625 34.9678V30.6555ZM13.6625 31.2055V34.4178H17.2128V31.2055H13.6625Z" fill="#1A1A1A"/>
<path id="Vector (Stroke)_5" fill-rule="evenodd" clip-rule="evenodd" d="M6.54761 14.3984C6.89751 14.3984 7.18116 14.6821 7.18116 15.032V16.1428C7.18116 16.4927 6.89751 16.7764 6.54761 16.7764C6.19771 16.7764 5.91406 16.4927 5.91406 16.1428V15.032C5.91406 14.6821 6.19771 14.3984 6.54761 14.3984Z" fill="#1A1A1A"/>
<path id="Vector (Stroke)_6" fill-rule="evenodd" clip-rule="evenodd" d="M13.1101 14.3984C13.46 14.3984 13.7437 14.6821 13.7437 15.032V16.1428C13.7437 16.4927 13.46 16.7764 13.1101 16.7764C12.7602 16.7764 12.4766 16.4927 12.4766 16.1428V15.032C12.4766 14.6821 12.7602 14.3984 13.1101 14.3984Z" fill="#1A1A1A"/>
<path id="Vector (Stroke)_7" fill-rule="evenodd" clip-rule="evenodd" d="M19.6804 14.3984C20.0303 14.3984 20.314 14.6821 20.314 15.032V16.1428C20.314 16.4927 20.0303 16.7764 19.6804 16.7764C19.3305 16.7764 19.0469 16.4927 19.0469 16.1428V15.032C19.0469 14.6821 19.3305 14.3984 19.6804 14.3984Z" fill="#1A1A1A"/>
<path id="Vector (Stroke)_8" fill-rule="evenodd" clip-rule="evenodd" d="M6.54761 19.2266C6.89751 19.2266 7.18116 19.5102 7.18116 19.8601V20.9667C7.18116 21.3166 6.89751 21.6003 6.54761 21.6003C6.19771 21.6003 5.91406 21.3166 5.91406 20.9667V19.8601C5.91406 19.5102 6.19771 19.2266 6.54761 19.2266Z" fill="#1A1A1A"/>
<path id="Vector (Stroke)_9" fill-rule="evenodd" clip-rule="evenodd" d="M13.1101 19.2266C13.46 19.2266 13.7437 19.5102 13.7437 19.8601V20.9667C13.7437 21.3166 13.46 21.6003 13.1101 21.6003C12.7602 21.6003 12.4766 21.3166 12.4766 20.9667V19.8601C12.4766 19.5102 12.7602 19.2266 13.1101 19.2266Z" fill="#1A1A1A"/>
<path id="Vector (Stroke)_10" fill-rule="evenodd" clip-rule="evenodd" d="M19.6804 19.2266C20.0303 19.2266 20.314 19.5102 20.314 19.8601V20.9667C20.314 21.3166 20.0303 21.6003 19.6804 21.6003C19.3305 21.6003 19.0469 21.3166 19.0469 20.9667V19.8601C19.0469 19.5102 19.3305 19.2266 19.6804 19.2266Z" fill="#1A1A1A"/>
<path id="Vector (Stroke)_11" fill-rule="evenodd" clip-rule="evenodd" d="M6.54761 24.0469C6.89751 24.0469 7.18116 24.3305 7.18116 24.6804V25.7912C7.18116 26.1411 6.89751 26.4248 6.54761 26.4248C6.19771 26.4248 5.91406 26.1411 5.91406 25.7912V24.6804C5.91406 24.3305 6.19771 24.0469 6.54761 24.0469Z" fill="#1A1A1A"/>
<path id="Vector (Stroke)_12" fill-rule="evenodd" clip-rule="evenodd" d="M13.1101 24.0469C13.46 24.0469 13.7437 24.3305 13.7437 24.6804V25.7912C13.7437 26.1411 13.46 26.4248 13.1101 26.4248C12.7602 26.4248 12.4766 26.1411 12.4766 25.7912V24.6804C12.4766 24.3305 12.7602 24.0469 13.1101 24.0469Z" fill="#1A1A1A"/>
<path id="Vector (Stroke)_13" fill-rule="evenodd" clip-rule="evenodd" d="M19.6804 24.0469C20.0303 24.0469 20.314 24.3305 20.314 24.6804V25.7912C20.314 26.1411 20.0303 26.4248 19.6804 26.4248C19.3305 26.4248 19.0469 26.1411 19.0469 25.7912V24.6804C19.0469 24.3305 19.3305 24.0469 19.6804 24.0469Z" fill="#1A1A1A"/>
</g>
<defs>
<clipPath id="clip0_771_1235">
<rect width="24.4254" height="35.2" fill="white" transform="translate(0.898438 0.398438)"/>
</clipPath>
</defs>
</svg>
