<svg width="76" height="76" viewBox="0 0 76 76" fill="none" xmlns="http://www.w3.org/2000/svg">
<g clip-path="url(#clip0_3278_10585)">
<path d="M45.3302 72.4655C43.6104 70.8536 42.128 69.0713 41.1268 66.9027C36.8587 57.6565 42.7538 46.6668 52.807 45.1197C54.1772 44.9082 55.5431 44.9988 56.9111 44.9751C58.1087 45.1779 59.2933 45.4326 60.4564 45.7886C63.7816 47.0941 66.4745 49.1807 68.3885 52.2318C74.3311 61.7153 68.4705 74.3385 57.401 75.8446C53.1587 76.4208 49.3049 75.3829 45.8632 72.8216C45.6927 72.6942 45.5071 72.5842 45.3302 72.4677V72.4655ZM62.0877 55.2635C62.0618 54.5493 61.7122 54.0357 61.0757 53.7423C60.3507 53.4056 59.7012 53.6085 59.1574 54.1414C58.0051 55.2721 56.855 56.405 55.7416 57.5745C55.3381 57.9974 55.1007 57.9543 54.7188 57.5572C53.6593 56.4481 52.5653 55.3736 51.4756 54.2947C50.5801 53.4056 49.5983 53.3495 48.8582 54.1242C48.1418 54.8751 48.2195 55.8116 49.0848 56.6877C50.1443 57.7601 51.1951 58.8411 52.2848 59.879C52.7293 60.2998 52.794 60.5631 52.3064 61.0205C51.1671 62.0865 50.0838 63.2107 48.9898 64.3241C48.1742 65.1527 48.1375 66.0676 48.8647 66.8164C49.5983 67.5716 50.5845 67.5436 51.4217 66.715C52.5696 65.58 53.7154 64.4428 54.8375 63.2819C55.1525 62.9561 55.3467 62.9388 55.6682 63.2733C56.7709 64.4148 57.9016 65.5303 59.0258 66.6502C59.8781 67.4983 60.8729 67.5803 61.5806 66.8746C62.338 66.1194 62.2797 65.1311 61.4102 64.2508C60.314 63.1416 59.2243 62.0217 58.0958 60.945C57.6966 60.5652 57.7484 60.3495 58.1152 59.9956C59.22 58.9318 60.2881 57.8313 61.3735 56.7459C61.7856 56.3338 62.105 55.885 62.0855 55.2635H62.0877Z" fill="#DF5655"/>
<path d="M56.9023 10.4028C55.7759 10.3942 54.6496 10.3855 53.521 10.3769C51.5833 10.3596 50.129 8.90742 50.1225 6.96324C50.116 4.70402 50.1268 2.4448 50.1311 0.187741C49.8981 -0.0906157 49.5787 0.0259057 49.3004 0.0259057C35.9026 0.0194323 22.5048 0.0194323 9.10913 0.0237479C6.8197 0.0215901 5.25313 1.58168 5.25313 3.8668C5.25098 25.5117 5.25098 47.1567 5.25098 68.8016C5.25098 70.9961 6.89954 72.5238 8.93219 72.5152C20.7958 72.4634 32.6594 72.4893 44.523 72.4893C44.7927 72.4893 45.0603 72.4742 45.33 72.4655C43.6102 70.8536 42.1278 69.0713 41.1266 66.9027C36.8585 57.6565 42.7536 46.6668 52.8068 45.1197C54.177 44.9082 55.5429 44.9988 56.9109 44.9751C58.1085 45.1779 59.2932 45.4326 60.4562 45.7886C60.4562 34.2573 60.4562 22.7282 60.4519 11.1969C60.4519 10.9163 60.5727 10.597 60.2901 10.3661C59.1615 10.3769 58.0308 10.3898 56.9023 10.4006M15.7724 20.0482C16.0163 19.4418 16.4759 19.0987 17.134 19.0966C22.4293 19.0901 27.7223 19.0836 33.0176 19.0987C33.9088 19.1009 34.5928 19.8496 34.6079 20.7106C34.6252 21.7183 33.8958 22.4822 32.8212 22.493C30.5901 22.5145 28.3611 22.4994 26.1299 22.4994C25.7803 22.4994 25.4308 22.4994 25.0812 22.4994C22.5544 22.4994 20.0276 22.5102 17.503 22.4951C16.0486 22.4865 15.2546 21.345 15.7746 20.0482H15.7724ZM41.3726 39.7878C39.9485 39.8136 38.5221 39.7942 37.0958 39.7942C30.6138 39.7942 24.1318 39.7964 17.6497 39.7921C15.986 39.7921 15.0949 38.424 15.8846 37.0991C16.2903 36.4173 16.9463 36.2597 17.6842 36.2619C21.6114 36.2684 25.5386 36.2641 29.4658 36.2641C33.365 36.2641 37.2663 36.2597 41.1655 36.2641C42.4148 36.2641 43.1614 36.9049 43.1873 37.9644C43.2132 39.039 42.5162 39.764 41.3726 39.7856V39.7878ZM49.9499 30.082C49.6284 30.8588 48.9983 31.0983 48.1977 31.094C44.5964 31.081 40.9928 31.0896 37.3915 31.0896C35.8594 31.0896 34.3274 31.0896 32.7953 31.0896C27.6619 31.0896 22.5264 31.0918 17.3929 31.0853C16.4608 31.0853 15.9494 30.7099 15.7099 29.8899C15.4919 29.1455 15.6904 28.5068 16.2925 28.0234C16.7132 27.6846 17.2289 27.6738 17.749 27.6738C25.0337 27.6782 32.3185 27.676 39.6032 27.676C42.4796 27.676 45.3559 27.6652 48.2323 27.6803C49.6348 27.6889 50.4591 28.8585 49.952 30.0798L49.9499 30.082Z" fill="#F0F2FD"/>
<path d="M60.29 10.3683C59.1614 10.3791 58.0307 10.392 56.9022 10.4028C55.7758 10.3942 54.6495 10.3877 53.5209 10.3769C51.5832 10.3596 50.1289 8.90743 50.1224 6.96325C50.1159 4.70403 50.1267 2.44481 50.131 0.187744C51.1646 1.1976 52.2111 2.19666 53.2296 3.22162C55.5903 5.59736 57.9379 7.98605 60.29 10.3704V10.3683Z" fill="#C4C9E1"/>
<path d="M32.7953 31.0896C27.6619 31.0896 22.5263 31.0918 17.3929 31.0853C16.4607 31.0853 15.9493 30.7098 15.7098 29.8899C15.4919 29.1454 15.6904 28.5067 16.2924 28.0234C16.7132 27.6846 17.2289 27.6738 17.7489 27.6738C25.0337 27.6781 32.3184 27.676 39.6031 27.676C42.4795 27.676 45.3559 27.6652 48.2322 27.6803C49.6348 27.6889 50.4591 28.8585 49.952 30.0798C49.6305 30.8566 49.0004 31.0961 48.1998 31.0918C44.5985 31.0788 40.9949 31.0875 37.3936 31.0875C35.8615 31.0875 34.3295 31.0875 32.7974 31.0875L32.7953 31.0896Z" fill="#C4C9E1"/>
<path d="M29.4658 36.264C33.365 36.264 37.2663 36.2597 41.1654 36.264C42.4148 36.264 43.1614 36.9049 43.1873 37.9644C43.2132 39.039 42.5162 39.764 41.3726 39.7856C39.9484 39.8115 38.5221 39.7921 37.0958 39.7921C30.6138 39.7921 24.1317 39.7942 17.6497 39.7899C15.986 39.7899 15.0949 38.4218 15.8846 37.097C16.2903 36.4151 16.9463 36.2576 17.6842 36.2597C21.6114 36.2662 25.5386 36.2619 29.4658 36.2619V36.264Z" fill="#C4C9E1"/>
<path d="M25.0787 22.4994C22.5519 22.4994 20.0252 22.5102 17.5005 22.4951C16.0462 22.4865 15.2521 21.345 15.7721 20.0482C16.016 19.4418 16.4756 19.0987 17.1337 19.0966C22.429 19.0901 27.722 19.0836 33.0173 19.0987C33.9085 19.1009 34.5925 19.8496 34.6076 20.7106C34.6249 21.7183 33.8955 22.4822 32.8209 22.493C30.5898 22.5145 28.3608 22.4994 26.1296 22.4994C25.78 22.4994 25.4305 22.4994 25.0809 22.4994H25.0787Z" fill="#C4C9E1"/>
<path d="M62.0875 55.2635C62.1069 55.8828 61.7876 56.3338 61.3755 56.7459C60.2901 57.8291 59.222 58.9318 58.1172 59.9956C57.7503 60.3494 57.6986 60.5652 58.0977 60.945C59.2263 62.0217 60.316 63.1395 61.4121 64.2508C62.2817 65.1311 62.34 66.1194 61.5826 66.8746C60.8748 67.5802 59.8801 67.4961 59.0278 66.6502C57.9035 65.5303 56.7729 64.4148 55.6702 63.2733C55.3487 62.9388 55.1545 62.9561 54.8395 63.2819C53.7174 64.4428 52.5716 65.58 51.4237 66.715C50.5843 67.5436 49.6003 67.5716 48.8667 66.8164C48.1395 66.0676 48.1783 65.1527 48.9918 64.3241C50.0858 63.2129 51.169 62.0865 52.3084 61.0205C52.796 60.5631 52.7291 60.2998 52.2868 59.879C51.1949 58.8411 50.1441 57.7601 49.0868 56.6877C48.2215 55.8116 48.1438 54.8751 48.8602 54.1242C49.5982 53.3495 50.58 53.4078 51.4776 54.2946C52.5673 55.3735 53.6613 56.4481 54.7208 57.5572C55.1006 57.9543 55.3401 57.9974 55.7436 57.5745C56.857 56.405 58.0071 55.2721 59.1594 54.1414C59.701 53.6085 60.3505 53.4056 61.0777 53.7423C61.7164 54.0379 62.0638 54.5493 62.0897 55.2635H62.0875Z" fill="white"/>
</g>
<defs>
<clipPath id="clip0_3278_10585">
<rect width="65.498" height="76" fill="white" transform="translate(5.25098)"/>
</clipPath>
</defs>
</svg>
