<svg width="80" height="80" viewBox="0 0 80 80" fill="none" xmlns="http://www.w3.org/2000/svg">
<g clip-path="url(#clip0_1346_27672)">
<path d="M28.5616 39.0955C31.0212 39.2196 33.8012 38.8442 36.2235 39.0645C36.819 39.1188 37.1361 39.3143 37.2092 39.9396C37.3056 40.7634 37.3056 42.9604 37.2092 43.7843C37.1486 44.2979 36.8656 44.619 36.337 44.6563C33.9349 44.4856 31.2467 44.875 28.8803 44.6594C28.3673 44.6128 27.991 44.4468 27.9039 43.8913C27.7889 43.159 27.806 40.7045 27.8946 39.9396C27.9444 39.5098 28.1356 39.2227 28.5616 39.094V39.0955Z" fill="white"/>
<path d="M43.4577 39.0955C45.9174 39.2196 48.6973 38.8442 51.1196 39.0645C51.7151 39.1188 52.0322 39.3143 52.1053 39.9396C52.2017 40.7634 52.2017 42.9604 52.1053 43.7843C52.0447 44.2979 51.7617 44.619 51.2331 44.6563C48.831 44.4856 46.1428 44.875 43.7765 44.6594C43.2634 44.6128 42.8871 44.4468 42.8001 43.8913C42.685 43.159 42.7021 40.7045 42.7907 39.9396C42.8405 39.5098 43.0317 39.2227 43.4577 39.094V39.0955Z" fill="white"/>
<path d="M56.7587 26.9686C56.7509 23.3473 56.7727 19.7213 56.7493 16.0984C56.4244 14.4693 55.1308 13.1629 53.447 13H26.6694C25.0477 13.0683 23.6516 14.3467 23.2924 15.9076C23.1898 19.5925 23.2504 23.2836 23.2411 26.9686C23.2349 29.1392 23.2442 31.3144 23.2411 33.4851C23.238 35.3454 23.2427 37.2103 23.2411 39.0706C23.2395 40.9309 23.2411 42.7959 23.2411 44.6562V66.9984C24.7912 67 26.346 66.9984 27.8961 66.9984C29.1352 66.9984 30.3806 66.9984 31.6197 66.9984V53.0345C34.0996 53.0345 36.5872 53.0392 39.0686 53.0345C39.6874 53.0345 40.3108 53.0345 40.9312 53.0345C43.4126 53.0376 45.8987 53.033 48.3801 53.0345V66.9984C49.6192 66.9984 50.8646 66.9984 52.1037 66.9984C53.6538 66.9984 55.2086 67 56.7587 66.9984V44.6562C56.7587 42.7959 56.7602 40.9309 56.7587 39.0706C56.7571 37.2103 56.7618 35.3454 56.7587 33.4851C56.7556 31.3144 56.7633 29.1392 56.7587 26.9686ZM39.9999 17.1845C44.8896 17.1845 48.8543 21.1487 48.8543 26.0376C48.8543 30.9266 44.8896 34.8908 39.9999 34.8908C35.1102 34.8908 31.1455 30.9266 31.1455 26.0376C31.1455 21.1487 35.1102 17.1845 39.9999 17.1845ZM27.8945 39.941C27.9443 39.5113 28.1355 39.2242 28.5615 39.0954C31.0211 39.2196 33.801 38.8441 36.2234 39.0644C36.8188 39.1187 37.136 39.3142 37.2091 39.9395C37.3055 40.7634 37.3055 42.9603 37.2091 43.7842C37.1485 44.2978 36.8655 44.6189 36.3369 44.6562C33.9348 44.4855 31.2466 44.875 28.8802 44.6593C28.3672 44.6127 27.9909 44.4467 27.9038 43.8913C27.7888 43.1589 27.8059 40.7044 27.8945 39.9395V39.941ZM52.1068 43.7858C52.0462 44.2993 51.7632 44.6205 51.2346 44.6577C48.8325 44.4871 46.1443 44.8765 43.778 44.6608C43.2649 44.6143 42.8886 44.4483 42.8016 43.8928C42.6865 43.1605 42.7036 40.706 42.7922 39.941C42.842 39.5113 43.0332 39.2242 43.4592 39.0954C45.9189 39.2196 48.6988 38.8441 51.1211 39.0644C51.7166 39.1187 52.0337 39.3142 52.1068 39.9395C52.2032 40.7634 52.2032 42.9603 52.1068 43.7842V43.7858Z" fill="#93A1B5"/>
<path d="M39.0686 53.0347V66.9986C36.5872 66.9986 34.1012 66.9986 31.6198 66.9986V53.0347C34.0996 53.0347 36.5872 53.0393 39.0686 53.0347ZM37.2231 60.0166C37.2231 59.4938 36.7987 59.0702 36.2763 59.0702C35.7539 59.0702 35.3294 59.4938 35.3294 60.0166C35.3294 60.5395 35.7539 60.9631 36.2763 60.9631C36.7987 60.9631 37.2231 60.5395 37.2231 60.0166Z" fill="white"/>
<path d="M40.9313 53.0345C43.4127 53.0376 45.8987 53.033 48.3801 53.0345V66.9984C45.8987 66.9984 43.4127 66.9984 40.9313 66.9984V53.0345ZM44.672 60.0165C44.672 59.4936 44.2476 59.07 43.7252 59.07C43.2028 59.07 42.7783 59.4936 42.7783 60.0165C42.7783 60.5393 43.2028 60.9629 43.7252 60.9629C44.2476 60.9629 44.672 60.5393 44.672 60.0165Z" fill="white"/>
<path d="M40.9313 53.0344V66.9983C40.3125 66.9983 39.6891 66.9983 39.0687 66.9983V53.0344C39.6875 53.0344 40.311 53.0344 40.9313 53.0344Z" fill="white"/>
<path d="M36.2763 60.963C36.7993 60.963 37.2232 60.5392 37.2232 60.0165C37.2232 59.4938 36.7993 59.0701 36.2763 59.0701C35.7534 59.0701 35.3295 59.4938 35.3295 60.0165C35.3295 60.5392 35.7534 60.963 36.2763 60.963Z" fill="white"/>
<path d="M43.7236 60.963C44.2465 60.963 44.6704 60.5392 44.6704 60.0165C44.6704 59.4938 44.2465 59.0701 43.7236 59.0701C43.2007 59.0701 42.7767 59.4938 42.7767 60.0165C42.7767 60.5392 43.2007 60.963 43.7236 60.963Z" fill="white"/>
<path d="M48.8542 26.0377C48.8542 30.9266 44.8896 34.8908 39.9999 34.8908C35.1102 34.8908 31.1455 30.9266 31.1455 26.0377C31.1455 21.1488 35.1102 17.1846 39.9999 17.1846C44.8896 17.1846 48.8542 21.1488 48.8542 26.0377ZM38.1373 22.3729C38.0502 22.902 38.201 23.6219 38.1373 24.1758H36.3337C35.6248 24.1758 34.8863 25.2898 34.8692 25.9803C34.8521 26.7142 35.5673 27.8995 36.3337 27.8995H38.1373V29.7024C38.1373 30.4674 39.3236 31.1842 40.0574 31.1671C40.7462 31.15 41.8609 30.413 41.8609 29.7024V27.8995H43.6645C44.3719 27.8995 45.1119 26.7871 45.129 26.0951C45.1741 24.2317 43.3006 24.0098 41.8609 24.1758C41.8143 23.3939 42.0242 22.5141 41.6122 21.8066C40.7633 20.3497 38.3954 20.8167 38.1388 22.3714L38.1373 22.3729Z" fill="white"/>
<path d="M38.1373 22.3731C38.3954 20.8184 40.7617 20.3514 41.6106 21.8083C42.0226 22.5158 41.8127 23.3955 41.8594 24.1775C43.2991 24.013 45.1726 24.2334 45.1275 26.0968C45.1104 26.7888 44.3719 27.9012 43.6629 27.9012H41.8594V29.7041C41.8594 30.4132 40.7446 31.1517 40.0559 31.1688C39.322 31.1858 38.1357 30.4706 38.1357 29.7041V27.9012H36.3322C35.5673 27.9012 34.8505 26.7158 34.8676 25.982C34.8847 25.2931 35.6217 24.1775 36.3322 24.1775H38.1357C38.1995 23.6221 38.0487 22.9021 38.1357 22.3746L38.1373 22.3731Z" fill="#F46614"/>
<path d="M23.2412 33.4852C23.2381 35.3455 23.2428 37.2105 23.2412 39.0708C21.7626 38.9125 19.841 39.2865 18.4184 39.0646C17.8586 38.9777 17.6954 38.596 17.6487 38.0871C17.5943 37.4836 17.5772 34.3681 17.742 33.9802C17.8789 33.6575 18.1929 33.5209 18.5241 33.4821C19.9809 33.3115 21.7487 33.614 23.2397 33.4852H23.2412Z" fill="white"/>
<path d="M56.7587 39.0707C56.7572 37.2104 56.7619 35.3454 56.7587 33.4851C58.2373 33.6434 60.159 33.2695 61.5816 33.4913C62.1413 33.5782 62.3046 33.9599 62.3512 34.4688C62.4056 35.0724 62.4227 38.1879 62.2579 38.5757C62.1211 38.8985 61.8071 39.035 61.4759 39.0738C60.0191 39.2445 58.2513 38.9419 56.7603 39.0707H56.7587Z" fill="white"/>
<path d="M23.2412 44.6564V50.2419C21.7626 50.0837 19.841 50.4576 18.4184 50.2357C17.8586 50.1489 17.6954 49.7672 17.6487 49.2583C17.5943 48.6547 17.5772 45.5392 17.742 45.1513C17.8789 44.8286 18.1929 44.6921 18.5241 44.6533C19.9809 44.4826 21.7487 44.7852 23.2397 44.6564H23.2412Z" fill="white"/>
<path d="M56.7589 50.2418V44.6563C58.2375 44.8145 60.1592 44.4406 61.5818 44.6625C62.1415 44.7494 62.3047 45.131 62.3514 45.6399C62.4058 46.2435 62.4229 49.359 62.2581 49.7469C62.1213 50.0696 61.8072 50.2061 61.4761 50.2449C60.0192 50.4156 58.2515 50.1131 56.7605 50.2418H56.7589Z" fill="white"/>
<path d="M18.5256 33.4837C19.9824 33.313 21.7502 33.6156 23.2412 33.4868C23.2443 31.3162 23.235 29.1409 23.2412 26.9703C21.0024 27.1161 18.5225 26.7748 16.3132 26.9656C15.0072 27.0789 13 28.5637 13 29.9368V67.0002C16.4111 67.0033 19.8301 66.9955 23.2412 67.0002V50.2435C21.7626 50.0852 19.841 50.4591 18.4183 50.2373C17.8586 50.1504 17.6954 49.7687 17.6487 49.2598C17.5943 48.6562 17.5772 45.5407 17.742 45.1529C17.8788 44.8301 18.1929 44.6936 18.5241 44.6548C19.9809 44.4841 21.7486 44.7867 23.2397 44.6579C23.2397 42.7976 23.2381 40.9326 23.2397 39.0723C21.7611 38.9141 19.8394 39.288 18.4168 39.0661C17.8571 38.9792 17.6938 38.5976 17.6472 38.0887C17.5928 37.4851 17.5757 34.3696 17.7405 33.9817C17.8773 33.659 18.1914 33.5225 18.5225 33.4837H18.5256Z" fill="#778091"/>
<path d="M66.5973 28.9421C66.047 27.87 64.8964 27.0694 63.6868 26.9639C61.476 26.7731 58.9961 27.1144 56.7588 26.9686C56.7635 29.1392 56.7557 31.3145 56.7588 33.4851C58.2374 33.6433 60.1591 33.2694 61.5817 33.4913C62.1414 33.5782 62.3047 33.9598 62.3513 34.4687C62.4057 35.0723 62.4228 38.1878 62.258 38.5757C62.1212 38.8984 61.8071 39.0349 61.476 39.0737C60.0192 39.2444 58.2514 38.9419 56.7604 39.0706C56.7619 40.9309 56.7604 42.7959 56.7604 44.6562C58.2389 44.8145 60.1606 44.4405 61.5832 44.6624C62.143 44.7493 62.3062 45.131 62.3528 45.6399C62.4073 46.2434 62.4244 49.3589 62.2596 49.7468C62.1227 50.0695 61.8087 50.2061 61.4775 50.2449C60.0207 50.4155 58.2529 50.113 56.7619 50.2418V66.9985C60.1731 66.9938 63.592 67.0016 67.0031 66.9985V29.9367C67.0031 29.8824 66.6673 29.0725 66.6005 28.9437L66.5973 28.9421Z" fill="#778091"/>
</g>
<g clip-path="url(#clip1_1346_27672)">
<circle opacity="0.5" cx="54.2222" cy="56.2222" r="14.2222" fill="#EFF6FF"/>
<path fill-rule="evenodd" clip-rule="evenodd" d="M66.0741 56.2222C66.0741 62.7678 60.7678 68.0741 54.2222 68.0741C47.6766 68.0741 42.3704 62.7678 42.3704 56.2222C42.3704 49.6766 47.6766 44.3704 54.2222 44.3704C60.7678 44.3704 66.0741 49.6766 66.0741 56.2222ZM64.0304 66.5214C61.4786 68.9522 58.0247 70.4444 54.2222 70.4444C46.3675 70.4444 40 64.0769 40 56.2222C40 48.3675 46.3675 42 54.2222 42C62.0769 42 68.4444 48.3675 68.4444 56.2222C68.4444 59.4199 67.3891 62.3711 65.6078 64.7466L72.838 71.9768C73.3008 72.4396 73.3008 73.19 72.838 73.6529C72.3751 74.1157 71.6247 74.1157 71.1619 73.6529L64.0304 66.5214Z" fill="url(#paint0_linear_1346_27672)"/>
</g>
<defs>
<linearGradient id="paint0_linear_1346_27672" x1="49.3333" y1="47.6667" x2="64.459" y2="70.5135" gradientUnits="userSpaceOnUse">
<stop stop-color="#FF8120"/>
<stop offset="1" stop-color="#E54304"/>
</linearGradient>
<clipPath id="clip0_1346_27672">
<rect width="54" height="54" fill="white" transform="translate(13 13)"/>
</clipPath>
<clipPath id="clip1_1346_27672">
<rect width="33.1852" height="32" fill="white" transform="translate(40 42)"/>
</clipPath>
</defs>
</svg>
