<svg width="24" height="25" viewBox="0 0 24 25" fill="none" xmlns="http://www.w3.org/2000/svg">
<path d="M12 0.799805C18.4617 0.799805 23.7002 6.03827 23.7002 12.5C23.7002 18.9617 18.4617 24.2002 12 24.2002C5.53827 24.2002 0.299805 18.9617 0.299805 12.5C0.299805 6.03827 5.53827 0.799805 12 0.799805Z" fill="#EEEEEE"/>
<path d="M12 0.799805C18.4617 0.799805 23.7002 6.03827 23.7002 12.5C23.7002 18.9617 18.4617 24.2002 12 24.2002C5.53827 24.2002 0.299805 18.9617 0.299805 12.5C0.299805 6.03827 5.53827 0.799805 12 0.799805Z" stroke="#E2E2E2" stroke-width="0.6"/>
<g clip-path="url(#clip0_6463_3541)">
<path d="M13.9454 5.91458L6.49609 12.9598C7.29731 15.1038 9.45901 16.64 12.0002 16.64C12.0002 18.0291 11.2067 19.1676 10.2003 19.2683C10.1445 19.2738 10.1195 19.3405 10.159 19.38C10.1717 19.3927 10.1885 19.3995 10.2062 19.3995C14.422 19.3832 17.8352 15.6835 17.8362 11.1218C17.8362 11.1209 17.8362 11.1204 17.8362 11.1195C17.8362 8.71634 16.2119 6.67176 13.9449 5.91412L13.9454 5.91458Z" fill="#F18200"/>
<path d="M11.9998 5.60001C8.77634 5.60001 6.16342 8.0713 6.16342 11.12C6.16342 11.7651 6.28099 12.3842 6.49617 12.9599L13.9454 5.91459C13.3367 5.71122 12.6821 5.60001 11.9998 5.60001Z" fill="#3777BC"/>
<path d="M8.44126 13.2744C11.6647 13.2744 14.2777 10.8031 14.2777 7.75443C14.2777 7.10937 14.1601 6.49019 13.9449 5.91458L6.49609 12.9598C7.10484 13.1632 7.75943 13.2744 8.44171 13.2744H8.44126Z" fill="#1C3C5E"/>
</g>
<defs>
<clipPath id="clip0_6463_3541">
<rect width="11.6733" height="13.8" fill="white" transform="translate(6.16342 5.60001)"/>
</clipPath>
</defs>
</svg>
