<svg width="200" height="83" viewBox="0 0 200 83" fill="none" xmlns="http://www.w3.org/2000/svg">
<g clip-path="url(#clip0_5542_1813)">
<g clip-path="url(#clip1_5542_1813)">
<path d="M160.168 14.8284H143.174V20.2667H160.168V25.0251H151.671V28.4241H177.359V25.0251H168.862V5.99128H173.621V10.07H185.857V6.79191C179.965 2.45641 172.563 -0.126755 164.519 -0.126755C154.617 -0.126755 145.674 3.78576 139.344 10.07H160.176V14.8284H160.168Z" fill="#3777BC"/>
<path d="M182.11 28.424H198.999C198.07 21.8 195.064 15.7952 190.608 11.0217V25.0251H182.11V28.424Z" fill="#3777BC"/>
<path d="M129.722 33.1825C129.828 41.3625 133.09 48.825 138.408 54.5276V45.4186H155.402V41.3399H138.408V36.5814H160.161V50.177H143.166V54.4521C145.16 54.7693 147.2 54.9355 149.284 54.9355C150.765 54.9355 152.23 54.8524 153.665 54.6863C155.893 54.437 158.061 53.9989 160.153 53.3871C160.395 53.7572 160.576 54.1802 160.667 54.6409C160.72 54.8902 160.742 55.1394 160.735 55.3887C160.72 57.0353 159.557 58.493 157.887 58.8405C157.88 58.8405 157.872 58.8405 157.857 58.8405C155.085 59.3994 152.207 59.6864 149.269 59.6864C147.494 59.6864 145.742 59.5807 144.02 59.3692C149.76 63.327 156.838 65.6685 164.489 65.6685C164.489 73.9467 159.761 80.737 153.763 81.3337C153.431 81.3639 153.28 81.7642 153.514 81.9984C153.59 82.0739 153.688 82.1116 153.794 82.1116C178.802 82.0135 199.067 60.1774 199.271 33.1674H129.699L129.722 33.1825ZM184.663 54.2557H174.806C171.521 54.2557 168.855 51.5895 168.855 48.3039V36.5739H190.608V48.3039C190.608 51.5895 187.941 54.2557 184.656 54.2557H184.663Z" fill="#3777BC"/>
<path d="M146.913 25.0251H138.415V11.0217C133.967 15.7952 130.953 21.8 130.024 28.424H146.913V25.0251Z" fill="#3777BC"/>
<path d="M173.613 48.3114C173.613 48.9685 174.149 49.4973 174.799 49.4973H184.656C185.313 49.4973 185.842 48.961 185.842 48.3114V41.3399H173.605V48.3114H173.613Z" fill="#3777BC"/>
<path d="M185.849 14.8284H173.613V20.2667H185.849V14.8284Z" fill="#3777BC"/>
<path d="M13.8191 39.9803C6.50014 39.9803 0.563385 45.9171 0.563385 53.2361C0.563385 60.555 6.50014 66.4918 13.8191 66.4918C21.1381 66.4918 27.0748 60.555 27.0748 53.2361C27.0748 45.9171 21.1381 39.9803 13.8191 39.9803ZM13.8191 61.0535C9.49873 61.0535 6.00163 57.5564 6.00163 53.2361C6.00163 48.9157 9.49873 45.4186 13.8191 45.4186C18.1395 45.4186 21.6366 48.9157 21.6366 53.2361C21.6366 57.5564 18.1395 61.0535 13.8191 61.0535Z" fill="#FF7700"/>
<path d="M109.328 54.2557C115.144 54.2557 119.865 49.535 119.865 43.7191C119.865 37.9032 115.144 33.1825 109.328 33.1825C103.512 33.1825 98.7917 37.9032 98.7917 43.7191C98.7917 49.535 103.512 54.2557 109.328 54.2557ZM109.328 38.6208C112.146 38.6208 114.427 40.9018 114.427 43.7191C114.427 46.5364 112.146 48.8175 109.328 48.8175C106.511 48.8175 104.23 46.5364 104.23 43.7191C104.23 40.9018 106.511 38.6208 109.328 38.6208Z" fill="#FF7700"/>
<path d="M37.9513 34.5421H32.5131V80.0874H37.9513V34.5421Z" fill="#FF7700"/>
<path d="M67.5218 65.0642C70.2938 64.9283 73.0054 64.5808 75.649 64.0521C77.8394 63.5914 79.2518 61.4463 78.8062 59.2483C78.7835 59.1426 78.7533 59.0369 78.7231 58.9311L78.3908 57.783C74.0779 59.0293 69.5159 59.694 64.7952 59.694C64.7121 59.694 64.629 59.694 64.5459 59.694C62.2875 59.6789 60.0669 59.5203 57.8916 59.2106C57.8387 59.203 57.7783 59.1955 57.7254 59.1879C57.1061 59.0595 56.6453 58.5157 56.6453 57.8586V54.2633H78.3983V38.6283H51.2071V44.0666H72.9601V48.825H51.2071V57.8586C51.2071 61.2424 53.677 64.0446 56.9172 64.5657C57.0003 64.5808 57.091 64.5884 57.174 64.6035C58.7904 64.8301 60.4294 64.9887 62.0836 65.0642V70.5705H44.7492V76.0087H84.8562V70.5705H67.5218V65.0642Z" fill="#FF7700"/>
<path d="M129.722 61.7333V56.2951H88.9349V61.7333H106.609V65.812H95.5666V74.6492C95.5666 78.4031 98.6105 81.447 102.364 81.447H116.3C120.054 81.447 123.098 78.4031 123.098 74.6492V65.812H112.055V61.7333H129.729H129.722ZM117.652 71.2503V74.6492C117.652 75.3969 117.04 76.0087 116.292 76.0087H102.357C101.609 76.0087 100.997 75.3969 100.997 74.6492V71.2503H117.652Z" fill="#FF7700"/>
</g>
</g>
<defs>
<clipPath id="clip0_5542_1813">
<rect width="200" height="82.2535" fill="white"/>
</clipPath>
<clipPath id="clip1_5542_1813">
<rect width="198.73" height="82.2535" fill="white" transform="translate(0.563385 -0.126755)"/>
</clipPath>
</defs>
</svg>
