<svg width="24" height="25" viewBox="0 0 24 25" fill="none" xmlns="http://www.w3.org/2000/svg">
<path fill-rule="evenodd" clip-rule="evenodd" d="M5.21429 2.5C4.3618 2.5 3.54424 2.83865 2.94144 3.44144C2.33865 4.04424 2 4.8618 2 5.71429V16.4286C2 16.7127 2.11288 16.9853 2.31381 17.1862C2.51475 17.3871 2.78727 17.5 3.07143 17.5C3.35559 17.5 3.62811 17.3871 3.82904 17.1862C4.02997 16.9853 4.14286 16.7127 4.14286 16.4286V5.71429C4.14286 5.43013 4.25574 5.1576 4.45667 4.95667C4.6576 4.75574 4.93013 4.64286 5.21429 4.64286H15.9286C16.2127 4.64286 16.4853 4.52997 16.6862 4.32904C16.8871 4.12811 17 3.85559 17 3.57143C17 3.28727 16.8871 3.01475 16.6862 2.81381C16.4853 2.61288 16.2127 2.5 15.9286 2.5H5.21429ZM8.42857 6.78571C7.86025 6.78571 7.31521 7.01148 6.91334 7.41334C6.51148 7.81521 6.28571 8.36025 6.28571 8.92857V20.3571C6.28571 20.9255 6.51148 21.4705 6.91334 21.8724C7.31521 22.2742 7.86025 22.5 8.42857 22.5H19.8571C20.4255 22.5 20.9705 22.2742 21.3724 21.8724C21.7742 21.4705 22 20.9255 22 20.3571V8.92857C22 8.36025 21.7742 7.81521 21.3724 7.41334C20.9705 7.01148 20.4255 6.78571 19.8571 6.78571H8.42857Z" fill="#EEEEEE"/>
</svg>
