<svg width="25" height="24" viewBox="0 0 25 24" fill="none" xmlns="http://www.w3.org/2000/svg">
<g clip-path="url(#clip0_283_5598)">
<path d="M17.8711 2C18.7032 2.00004 19.5272 2.16391 20.2959 2.48242C21.0645 2.80092 21.7633 3.26801 22.3516 3.85645C22.94 4.44467 23.4071 5.14346 23.7256 5.91211C24.044 6.68078 24.208 7.50489 24.208 8.33691C24.208 9.16897 24.0441 9.99303 23.7256 10.7617C23.4071 11.5304 22.94 12.2291 22.3516 12.8174L13.3906 21.7773C13.0938 22.0739 12.6132 22.074 12.3164 21.7773L3.35547 12.8174C2.16728 11.6291 1.50003 10.0173 1.5 8.33691C1.5 6.65654 2.16733 5.0447 3.35547 3.85645C4.54367 2.66824 6.15557 2.00106 7.83594 2.00098C9.51637 2.00098 11.1281 2.66823 12.3164 3.85645L12.8535 4.39355L13.3906 3.85645C13.9788 3.26803 14.6776 2.80091 15.4463 2.48242C16.215 2.16398 17.0391 2 17.8711 2Z" fill="#1477F8"/>
</g>
<defs>
<clipPath id="clip0_283_5598">
<rect width="24" height="24" fill="white" transform="translate(0.5)"/>
</clipPath>
</defs>
</svg>
