<svg width="950" height="210" viewBox="0 0 950 210" fill="none" xmlns="http://www.w3.org/2000/svg">
<path d="M230.562 35.008H268.258V40.192C268.258 46.976 268.258 55.04 266.146 67.328L262.178 66.944C264.418 55.296 264.418 46.848 264.418 40.192V38.336H230.562V35.008ZM224.994 72.704H275.234V76.032H224.994V72.704ZM279.524 56.832H302.692V49.728H285.988V31.552H323.364V34.752H289.828V46.464H323.812V49.728H306.468V56.832H329.764V60.032H279.524V56.832ZM304.612 64.576C316.388 64.576 323.556 68.16 323.556 74.432C323.556 80.832 316.388 84.352 304.612 84.352C292.772 84.352 285.668 80.832 285.668 74.432C285.668 68.16 292.772 64.576 304.612 64.576ZM304.612 67.648C295.396 67.648 289.572 70.208 289.572 74.432C289.572 78.784 295.396 81.28 304.612 81.28C313.828 81.28 319.588 78.784 319.588 74.432C319.588 70.208 313.828 67.648 304.612 67.648ZM373.029 28.8H376.933V46.144H385.509V49.344H376.933V70.016H373.029V28.8ZM342.885 65.792H346.661V79.872H379.685V83.136H342.885V65.792ZM349.605 32.896C357.797 32.896 363.877 38.464 363.877 46.464C363.877 54.4 357.797 59.968 349.605 59.968C341.413 59.968 335.397 54.4 335.397 46.464C335.397 38.464 341.413 32.896 349.605 32.896ZM349.605 36.288C343.653 36.288 339.173 40.64 339.173 46.464C339.173 52.224 343.653 56.512 349.605 56.512C355.621 56.512 360.165 52.224 360.165 46.464C360.165 40.64 355.621 36.288 349.605 36.288ZM441.221 28.096H448.325V85.248H441.221V28.096ZM417.861 32.256C426.437 32.256 432.645 40.064 432.645 52.416C432.645 64.832 426.437 72.64 417.861 72.64C409.285 72.64 403.077 64.832 403.077 52.416C403.077 40.064 409.285 32.256 417.861 32.256ZM417.861 38.656C413.125 38.656 409.861 43.712 409.861 52.416C409.861 61.184 413.125 66.304 417.861 66.304C422.597 66.304 425.861 61.184 425.861 52.416C425.861 43.712 422.597 38.656 417.861 38.656ZM455.878 72.832H478.086V63.488H462.022V44.8H494.47V37.632H461.894V32.064H501.446V50.368H468.934V57.856H502.726V63.488H485.062V72.832H507.462V78.528H455.878V72.832ZM536.136 29.12C548.616 29.12 556.552 33.216 556.552 40C556.552 46.784 548.616 50.816 536.136 50.816C523.656 50.816 515.72 46.784 515.72 40C515.72 33.216 523.656 29.12 536.136 29.12ZM536.136 34.496C527.816 34.496 522.952 36.416 522.952 40C522.952 43.52 527.816 45.376 536.136 45.376C544.392 45.376 549.256 43.52 549.256 40C549.256 36.416 544.392 34.496 536.136 34.496ZM516.488 65.344H532.616V59.904H510.408V54.272H561.864V59.904H539.592V65.344H555.656V84.48H516.488V65.344ZM548.744 70.912H523.4V78.912H548.744V70.912ZM571.529 30.272H609.801V35.84H578.505V42.112H610.377V47.68H594.185V51.904H616.393V57.472H564.937V51.904H587.145V47.68H571.529V30.272ZM570.889 61.184H609.993V75.136H577.929V79.296H611.593V84.672H571.081V70.144H603.081V66.432H570.889V61.184ZM619.467 55.936H641.611V50.816H626.123V29.504H633.099V34.88H657.291V29.504H664.331V50.816H648.651V55.936H670.923V61.568H619.467V55.936ZM633.099 40.128V45.312H657.291V40.128H633.099ZM625.547 65.792H664.715V84.48H625.547V65.792ZM657.803 71.36H632.459V78.912H657.803V71.36ZM699.66 29.952C711.692 29.952 718.988 33.344 718.988 39.552C718.988 45.824 711.692 49.28 699.66 49.28C687.564 49.28 680.332 45.824 680.332 39.552C680.332 33.344 687.564 29.952 699.66 29.952ZM699.66 32.896C690.188 32.896 684.3 35.392 684.3 39.552C684.3 43.776 690.188 46.272 699.66 46.272C709.132 46.272 715.02 43.776 715.02 39.552C715.02 35.392 709.132 32.896 699.66 32.896ZM674.572 53.504H724.748V56.704H674.572V53.504ZM680.78 62.08H718.156V73.92H684.748V80.64H719.948V83.776H680.972V70.976H714.38V65.152H680.78V62.08ZM205.074 124.8H208.914V180.544H205.074V124.8ZM179.922 129.344C188.05 129.344 193.81 136.768 193.81 148.48C193.81 160.192 188.05 167.744 179.922 167.744C171.73 167.744 165.97 160.192 165.97 148.48C165.97 136.768 171.73 129.344 179.922 129.344ZM179.922 132.736C173.906 132.736 169.746 139.2 169.746 148.48C169.746 157.824 173.906 164.288 179.922 164.288C185.81 164.288 190.034 157.824 190.034 148.48C190.034 139.2 185.81 132.736 179.922 132.736ZM218.323 152.832H231.187V144.512C226.643 142.848 224.083 140.032 224.083 136.192C224.083 129.728 231.443 126.016 243.411 126.016C255.315 126.016 262.739 129.728 262.739 136.192C262.739 139.968 260.243 142.784 255.763 144.448V152.832H268.499V156.032H218.323V152.832ZM243.411 160.832C255.251 160.832 262.355 164.352 262.355 170.56C262.355 176.832 255.251 180.352 243.411 180.352C231.571 180.352 224.467 176.832 224.467 170.56C224.467 164.352 231.571 160.832 243.411 160.832ZM243.411 163.84C234.131 163.84 228.371 166.4 228.371 170.56C228.371 174.784 234.131 177.28 243.411 177.28C252.627 177.28 258.387 174.784 258.387 170.56C258.387 166.4 252.627 163.84 243.411 163.84ZM243.411 129.088C234.067 129.088 228.051 131.776 228.051 136.192C228.051 140.544 234.067 143.296 243.411 143.296C252.755 143.296 258.771 140.544 258.771 136.192C258.771 131.776 252.755 129.088 243.411 129.088ZM234.963 152.832H251.923V145.536C249.427 146.048 246.611 146.304 243.411 146.304C240.275 146.304 237.395 146.048 234.963 145.536V152.832ZM272.661 134.848H284.757V126.528H288.597V134.848H300.629V138.112H272.661V134.848ZM286.677 142.336C293.525 142.336 298.517 147.456 298.517 154.752C298.517 162.176 293.525 167.232 286.677 167.232C279.765 167.232 274.837 162.176 274.837 154.752C274.837 147.456 279.765 142.336 286.677 142.336ZM286.677 145.664C281.813 145.664 278.357 149.568 278.357 154.752C278.357 160 281.813 163.904 286.677 163.904C291.541 163.904 295.061 160 295.061 154.752C295.061 149.568 291.541 145.664 286.677 145.664ZM315.797 124.864H319.509V180.48H315.797V151.872H307.477V177.6H303.829V126.272H307.477V148.608H315.797V124.864ZM340.724 156.992H390.964V160.256H367.668V180.48H363.828V160.256H340.724V156.992ZM345.524 128.64H385.972V131.84H367.924V132.736C367.924 140.736 378.996 147.136 387.7 148.544L386.164 151.744C378.164 150.208 369.076 145.408 365.812 138.368C362.548 145.408 353.46 150.208 345.46 151.744L343.924 148.544C352.628 147.136 363.7 140.736 363.7 132.736V131.84H345.524V128.64ZM436.662 124.8H440.502V180.544H436.662V154.624H423.798V151.296H436.662V140.672H423.798V137.408H436.662V124.8ZM410.166 129.856H414.006V140.608C414.006 150.528 421.238 160.768 428.79 164.48L426.486 167.616C420.278 164.288 414.582 157.184 412.15 148.992C409.718 157.568 404.022 165.056 397.878 168.512L395.446 165.376C402.998 161.472 410.166 150.784 410.166 140.608V129.856ZM477.367 144.384H491.255V124.8H495.031V180.544H491.255V147.584H477.367V144.384ZM464.695 129.856H468.535V140.608C468.535 150.528 475.767 160.64 483.319 164.352L481.079 167.488C474.807 164.224 469.111 157.12 466.679 148.992C464.311 157.568 458.615 165.056 452.407 168.512L449.975 165.376C457.527 161.472 464.695 150.784 464.695 140.608V129.856ZM556.631 124.864H560.535V139.008H569.111V142.272H560.535V156.608H556.631V124.864ZM545.559 128.64C545.559 142.336 535.639 152.384 519.383 156.928L517.847 153.792C531.799 149.888 540.567 142.016 541.463 131.84H520.215V128.64H545.559ZM525.975 159.36H560.535V179.584H525.975V159.36ZM556.695 162.56H529.815V176.384H556.695V162.56ZM586.264 129.92H590.04V140.608C590.04 150.336 597.208 160.512 604.696 164.224L602.328 167.296C596.248 164.032 590.68 157.184 588.248 149.184C585.816 157.632 580.12 164.992 573.976 168.448L571.544 165.312C579.096 161.408 586.264 150.72 586.264 140.608V129.92ZM610.648 124.864H614.552V147.84H624.152V151.168H614.552V180.48H610.648V124.864ZM665.69 124.864H669.594V139.392H678.17V142.72H669.594V157.056H665.69V124.864ZM635.162 159.616H638.938V166.272H665.754V159.616H669.594V179.648H635.162V159.616ZM638.938 169.344V176.448H665.754V169.344H638.938ZM626.906 130.944H641.434V124.288H645.338V130.944H659.802V134.144H626.906V130.944ZM643.354 137.152C651.226 137.152 656.474 140.928 656.474 146.816C656.474 152.832 651.226 156.608 643.354 156.608C635.418 156.608 630.234 152.832 630.234 146.816C630.234 140.928 635.418 137.152 643.354 137.152ZM643.354 140.16C637.658 140.16 633.882 142.912 633.882 146.816C633.882 150.784 637.658 153.536 643.354 153.536C648.986 153.536 652.762 150.784 652.762 146.816C652.762 142.912 648.986 140.16 643.354 140.16ZM722.459 124.864H726.299V180.48H722.459V124.864ZM684.955 130.368H688.859V162.432H689.435C697.947 162.432 706.651 161.792 716.123 159.808L716.699 163.136C706.907 165.12 698.267 165.888 689.435 165.888H684.955V130.368ZM774.301 124.8H778.205V147.328H787.741V150.656H778.205V180.544H774.301V124.8ZM742.557 163.072C753.181 163.072 760.285 162.752 768.605 161.152L769.117 164.544C760.477 166.144 753.309 166.464 742.557 166.464H738.333V130.432H764.061V133.632H742.109V163.072H742.557Z" fill="black"/>
</svg>
