<svg width="15" height="16" viewBox="0 0 15 16" fill="none" xmlns="http://www.w3.org/2000/svg">
<path fill-rule="evenodd" clip-rule="evenodd" d="M14.09 1.52169C14.3748 1.221 14.362 0.746302 14.0613 0.461417C13.7607 0.176532 13.286 0.189343 13.0011 0.490031L7.25609 6.55368L1.51112 0.490031C1.22624 0.189343 0.751534 0.176532 0.450846 0.461417C0.150158 0.746302 0.137347 1.221 0.422233 1.52169L6.22293 7.64416L0.422233 13.7666C0.137347 14.0673 0.150158 14.542 0.450846 14.8269C0.751534 15.1118 1.22624 15.099 1.51112 14.7983L7.25609 8.73463L13.0011 14.7983C13.286 15.099 13.7607 15.1118 14.0613 14.8269C14.362 14.542 14.3748 14.0673 14.09 13.7666L8.28926 7.64416L14.09 1.52169Z" fill="#999999"/>
</svg>
