<svg width="24" height="24" viewBox="0 0 24 24" fill="none" xmlns="http://www.w3.org/2000/svg">
<path fill-rule="evenodd" clip-rule="evenodd" d="M3.02339 8.20456C2.64558 8.48783 2.42322 8.93248 2.42322 9.40469V18.9209C2.42322 19.7957 2.78423 20.6231 3.40787 21.2242C4.02965 21.8236 4.8616 22.1511 5.71806 22.1511H18.2819C19.1384 22.1511 19.9704 21.8236 20.5921 21.2242C21.2158 20.6231 21.5768 19.7957 21.5768 18.9209V9.40469C21.5768 8.93248 21.3544 8.48783 20.9766 8.20456L12.8998 2.14881C12.3666 1.74898 11.6334 1.74898 11.1002 2.14881L3.02339 8.20456ZM3.92322 9.40469L12 3.34894L20.0768 9.40469V18.9209C20.0768 19.3797 19.8877 19.8198 19.5511 20.1443C19.2145 20.4688 18.758 20.6511 18.2819 20.6511H16.1923C16.1923 20.6511 16.1923 20.6511 16.1923 20.6511V14.1627C16.1923 13.3343 15.5207 12.6627 14.6923 12.6627H9.30774C8.47931 12.6627 7.80774 13.3343 7.80774 14.1627V20.6511C7.80774 20.6511 7.80774 20.6511 7.80774 20.6511H5.71806C5.24204 20.6511 4.78551 20.4688 4.44891 20.1443C4.11232 19.8198 3.92322 19.3797 3.92322 18.9209V9.40469ZM10.8077 20.6511H13.1923C13.1923 20.6511 13.1923 20.6511 13.1923 20.6511H14.6923V15.6627V14.1627H13.1923H10.8077H9.30774V15.6627V20.6511H10.8077C10.8077 20.6511 10.8077 20.6511 10.8077 20.6511Z" fill="#333333"/>
</svg>
