<svg width="24" height="24" viewBox="0 0 24 24" fill="none" xmlns="http://www.w3.org/2000/svg">
<path fill-rule="evenodd" clip-rule="evenodd" d="M16.8546 7.75C16.9484 7.51839 17 7.26523 17 7C17 6.73477 16.9484 6.48161 16.8546 6.25H21V7.75H16.8546ZM13.1454 7.75H3V6.25H13.1454C13.0516 6.48161 13 6.73477 13 7C13 7.26523 13.0516 7.51839 13.1454 7.75Z" fill="#333333"/>
<path fill-rule="evenodd" clip-rule="evenodd" d="M18.5 7C18.5 8.933 16.933 10.5 15 10.5C13.067 10.5 11.5 8.933 11.5 7C11.5 5.067 13.067 3.5 15 3.5C16.933 3.5 18.5 5.067 18.5 7ZM15 9C16.1046 9 17 8.10457 17 7C17 5.89543 16.1046 5 15 5C13.8954 5 13 5.89543 13 7C13 8.10457 13.8954 9 15 9Z" fill="#333333"/>
<path fill-rule="evenodd" clip-rule="evenodd" d="M10.8546 16.75C10.9484 16.5184 11 16.2652 11 16C11 15.7348 10.9484 15.4816 10.8546 15.25H21V16.75H10.8546ZM7.14538 16.75H3V15.25H7.14538C7.05163 15.4816 7 15.7348 7 16C7 16.2652 7.05163 16.5184 7.14538 16.75Z" fill="#333333"/>
<path fill-rule="evenodd" clip-rule="evenodd" d="M12.5 16C12.5 17.933 10.933 19.5 9 19.5C7.067 19.5 5.5 17.933 5.5 16C5.5 14.067 7.067 12.5 9 12.5C10.933 12.5 12.5 14.067 12.5 16ZM9 18C10.1046 18 11 17.1046 11 16C11 14.8954 10.1046 14 9 14C7.89543 14 7 14.8954 7 16C7 17.1046 7.89543 18 9 18Z" fill="#333333"/>
</svg>
