<svg width="20" height="20" viewBox="0 0 20 20" fill="none" xmlns="http://www.w3.org/2000/svg">
<path d="M11.4583 3.75C11.4583 3.40483 11.7382 3.125 12.0833 3.125H16.25C16.5952 3.125 16.875 3.40483 16.875 3.75V7.91667C16.875 8.26184 16.5952 8.54167 16.25 8.54167C15.9048 8.54167 15.625 8.26184 15.625 7.91667V5.25888L11.8308 9.05308C11.5867 9.29717 11.1911 9.29717 10.947 9.05308C10.7029 8.809 10.7029 8.41325 10.947 8.16917L14.7411 4.375H12.0833C11.7382 4.375 11.4583 4.09517 11.4583 3.75Z" fill="white"/>
<path d="M9.05308 10.9469C9.29717 11.191 9.29717 11.5867 9.05308 11.8308L5.25888 15.625H7.91667C8.26184 15.625 8.54167 15.9048 8.54167 16.25C8.54167 16.5952 8.26184 16.875 7.91667 16.875H3.75C3.40483 16.875 3.125 16.5952 3.125 16.25V12.0833C3.125 11.7382 3.40483 11.4583 3.75 11.4583C4.09517 11.4583 4.375 11.7382 4.375 12.0833V14.7411L8.16917 10.9469C8.41325 10.7028 8.809 10.7028 9.05308 10.9469Z" fill="white"/>
</svg>
