<svg width="16" height="16" viewBox="0 0 16 16" fill="none" xmlns="http://www.w3.org/2000/svg">
<path fill-rule="evenodd" clip-rule="evenodd" d="M3.47489 1.33594C2.90657 1.33594 2.36152 1.5617 1.95966 1.96357C1.5578 2.36543 1.33203 2.91047 1.33203 3.47879V10.6217C1.33203 10.8111 1.40729 10.9928 1.54124 11.1267C1.6752 11.2607 1.85688 11.3359 2.04632 11.3359C2.23576 11.3359 2.41744 11.2607 2.55139 11.1267C2.68535 10.9928 2.7606 10.8111 2.7606 10.6217V3.47879C2.7606 3.28935 2.83586 3.10767 2.96981 2.97372C3.10377 2.83976 3.28545 2.76451 3.47489 2.76451H10.6177C10.8072 2.76451 10.9889 2.68925 11.1228 2.5553C11.2568 2.42134 11.332 2.23966 11.332 2.05022C11.332 1.86078 11.2568 1.6791 11.1228 1.54515C10.9889 1.41119 10.8072 1.33594 10.6177 1.33594H3.47489ZM5.61775 4.19308C5.23887 4.19308 4.8755 4.34359 4.60759 4.6115C4.33968 4.87941 4.18917 5.24277 4.18917 5.62165V13.2407C4.18917 13.6196 4.33968 13.9829 4.60759 14.2509C4.8755 14.5188 5.23887 14.6693 5.61775 14.6693H13.2368C13.6157 14.6693 13.979 14.5188 14.2469 14.2509C14.5149 13.9829 14.6654 13.6196 14.6654 13.2407V5.62165C14.6654 5.24277 14.5149 4.87941 14.2469 4.6115C13.979 4.34359 13.6157 4.19308 13.2368 4.19308H5.61775Z" fill="#1E40AF"/>
</svg>
