<svg width="22" height="22" viewBox="0 0 22 22" fill="none" xmlns="http://www.w3.org/2000/svg">
<g id="icon_default">
<path id="vector" fill-rule="evenodd" clip-rule="evenodd" d="M11.6631 5.56934C11.6631 5.15512 11.3273 4.81934 10.9131 4.81934C10.4989 4.81934 10.1631 5.15512 10.1631 5.56934V10.163H5.56946C5.15524 10.163 4.81946 10.4988 4.81946 10.913C4.81946 11.3272 5.15524 11.663 5.56946 11.663H10.1631V16.2567C10.1631 16.6709 10.4989 17.0067 10.9131 17.0067C11.3273 17.0067 11.6631 16.6709 11.6631 16.2567V11.663H16.2568C16.671 11.663 17.0068 11.3272 17.0068 10.913C17.0068 10.4988 16.671 10.163 16.2568 10.163H11.6631V5.56934Z" fill="#BDBDBD"/>
</g>
</svg>
