<svg width="20" height="20" viewBox="0 0 20 20" fill="none" xmlns="http://www.w3.org/2000/svg">
<path d="M2.83319 11.933C2.83319 11.5188 3.16892 11.183 3.58319 11.183H8.58319C8.99746 11.183 9.33319 11.5188 9.33319 11.933V16.933C9.33319 17.3472 8.99746 17.683 8.58319 17.683C8.16892 17.683 7.83319 17.3472 7.83319 16.933V13.7437L3.28019 18.2967C2.98724 18.5896 2.51254 18.5896 2.21959 18.2967C1.92664 18.0038 1.92664 17.5289 2.21959 17.236L6.77249 12.683H3.58319C3.16892 12.683 2.83319 12.3472 2.83319 11.933Z" fill="white"/>
<path d="M18.2345 2.21967C18.5275 2.51257 18.5275 2.98746 18.2345 3.28036L13.6815 7.83337H16.8708C17.2851 7.83337 17.6208 8.16917 17.6208 8.58337C17.6208 8.99757 17.2851 9.33337 16.8708 9.33337H11.8708C11.4566 9.33337 11.1208 8.99757 11.1208 8.58337V3.58337C11.1208 3.16917 11.4566 2.83337 11.8708 2.83337C12.2851 2.83337 12.6208 3.16917 12.6208 3.58337V6.77267L17.1738 2.21967C17.4668 1.92677 17.9416 1.92677 18.2345 2.21967Z" fill="white"/>
</svg>
