<svg width="19" height="19" viewBox="0 0 19 19" fill="none" xmlns="http://www.w3.org/2000/svg">
<g id="icon_default">
<path id="Vector" d="M9.09089 17.4855C13.2749 17.4855 16.6667 14.0937 16.6667 9.90974C16.6667 5.72577 13.2749 2.33398 9.09089 2.33398C4.90692 2.33398 1.51514 5.72577 1.51514 9.90974C1.51514 14.0937 4.90692 17.4855 9.09089 17.4855Z" fill="#E53935"/>
<path id="Union" fill-rule="evenodd" clip-rule="evenodd" d="M9.08658 6.12207C8.6705 6.12207 8.33319 6.46125 8.33319 6.87965C8.33319 7.29804 8.6705 7.63722 9.08658 7.63722H9.09495C9.51104 7.63722 9.84834 7.29804 9.84834 6.87965C9.84834 6.46125 9.51104 6.12207 9.09495 6.12207H9.08658ZM9.65895 9.98097C9.65895 9.66717 9.40456 9.41279 9.09077 9.41279C8.77697 9.41279 8.52258 9.66717 8.52258 9.98097V13.169C8.52258 13.4828 8.77697 13.7372 9.09077 13.7372C9.40456 13.7372 9.65895 13.4828 9.65895 13.169V9.98097Z" fill="white"/>
</g>
</svg>
