<svg width="20" height="20" viewBox="0 0 20 20" fill="none" xmlns="http://www.w3.org/2000/svg">
<g id="icon_default">
<path id="Vector" d="M10.0001 18.3337C14.6025 18.3337 18.3334 14.6027 18.3334 10.0003C18.3334 5.39795 14.6025 1.66699 10.0001 1.66699C5.39771 1.66699 1.66675 5.39795 1.66675 10.0003C1.66675 14.6027 5.39771 18.3337 10.0001 18.3337Z" fill="#999999"/>
<path id="Union" fill-rule="evenodd" clip-rule="evenodd" d="M9.99548 5.83398C9.53778 5.83398 9.16675 6.20708 9.16675 6.66732C9.16675 7.12756 9.53778 7.50065 9.99548 7.50065H10.0047C10.4624 7.50065 10.8334 7.12756 10.8334 6.66732C10.8334 6.20708 10.4624 5.83398 10.0047 5.83398H9.99548ZM10.6251 10.0788C10.6251 9.7336 10.3453 9.45378 10.0001 9.45378C9.6549 9.45378 9.37508 9.7336 9.37508 10.0788V13.5856C9.37508 13.9308 9.6549 14.2106 10.0001 14.2106C10.3453 14.2106 10.6251 13.9308 10.6251 13.5856V10.0788Z" fill="white"/>
</g>
</svg>
