<svg width="20" height="20" viewBox="0 0 20 20" fill="none" xmlns="http://www.w3.org/2000/svg">
<g id="icon_default">
<path id="Subtract" fill-rule="evenodd" clip-rule="evenodd" d="M10.1932 18.1862C10.1932 18.1862 17.0114 13.6407 17.0114 8.33771C17.0114 6.52942 16.293 4.79519 15.0144 3.51653C13.7357 2.23787 12.0015 1.51953 10.1932 1.51953C8.38489 1.51953 6.65066 2.23787 5.372 3.51653C4.09334 4.79519 3.375 6.52942 3.375 8.33771C3.375 13.6407 10.1932 18.1862 10.1932 18.1862ZM13.2247 8.47562C13.2247 10.1492 11.868 11.5059 10.1944 11.5059C8.52078 11.5059 7.16406 10.1492 7.16406 8.47562C7.16406 6.80203 8.52078 5.44531 10.1944 5.44531C11.868 5.44531 13.2247 6.80203 13.2247 8.47562Z" fill="#333333"/>
</g>
</svg>
