<svg width="16" height="17" viewBox="0 0 16 17" fill="none" xmlns="http://www.w3.org/2000/svg">
<path fill-rule="evenodd" clip-rule="evenodd" d="M2.94446 8.49995C2.94446 5.70785 5.20791 3.4444 8.00001 3.4444C10.7921 3.4444 13.0556 5.70785 13.0556 8.49995C13.0556 11.2921 10.7921 13.5555 8.00001 13.5555C5.20791 13.5555 2.94446 11.2921 2.94446 8.49995ZM8.00001 2.4444C4.65562 2.4444 1.94446 5.15556 1.94446 8.49995C1.94446 11.8443 4.65562 14.5555 8.00001 14.5555C11.3444 14.5555 14.0556 11.8443 14.0556 8.49995C14.0556 5.15556 11.3444 2.4444 8.00001 2.4444ZM8.49996 5.16665C8.49996 4.8905 8.2761 4.66665 7.99996 4.66665C7.72382 4.66665 7.49996 4.8905 7.49996 5.16665V8.49998C7.49996 8.68937 7.60696 8.8625 7.77635 8.94719L9.99857 10.0583C10.2456 10.1818 10.5459 10.0817 10.6694 9.8347C10.7929 9.58771 10.6928 9.28737 10.4458 9.16388L8.49996 8.19096V5.16665Z" fill="#999999"/>
</svg>
