<svg width="40" height="40" viewBox="0 0 40 40" fill="none" xmlns="http://www.w3.org/2000/svg">
<g clip-path="url(#clip0_763_17353)">
<path d="M14.1879 22.7187C14.1515 22.5475 14.0149 22.5803 13.8979 22.5795C13.5999 22.5777 13.3019 22.5724 13.0039 22.5812C12.83 22.5865 12.7742 22.5165 12.7742 22.348C12.7786 20.0412 12.7059 17.7308 12.8043 15.4275C12.8779 13.6937 13.779 12.2986 15.089 11.1793C15.8384 10.539 16.6934 10.1 17.6601 9.88446C17.825 9.84809 17.9864 9.84366 18.1514 9.84277C17.1208 10.2853 16.704 11.072 16.7386 12.1842C16.7803 13.5314 16.7483 14.8812 16.7519 16.2302C16.7519 16.4058 16.7537 16.5867 16.7909 16.757C16.9967 17.7175 17.6698 18.2621 18.8121 18.4093C18.8139 18.4217 18.8157 18.4332 18.8183 18.4456C18.8148 19.823 18.8113 21.2012 18.8077 22.5786C17.3585 22.575 15.9093 22.5706 14.4602 22.567C14.3537 22.567 14.2269 22.5431 14.2251 22.7143C14.2136 22.7222 14.2012 22.724 14.187 22.7187H14.1879Z" fill="#FF6767"/>
<path d="M28.9697 35.9837C28.3045 35.9837 27.6402 35.9837 26.975 35.9837C26.975 31.1528 26.9751 26.3219 26.9804 21.4919C26.9804 21.1975 26.8509 20.8063 27.0407 20.6361C27.203 20.4906 27.5861 20.5891 27.8708 20.5828C28.5156 20.5704 28.9626 20.1687 28.9714 19.5913C28.9803 19.0059 28.5511 18.5873 27.9072 18.5678C27.5542 18.5572 27.2003 18.5678 26.8465 18.5678C27.1427 17.8964 27.1152 17.233 26.7959 16.5767C27.4238 16.59 28.0562 16.5164 28.677 16.6681C29.9 16.9652 30.8251 18.0073 30.9492 19.2241C31.0805 20.5066 30.4437 21.6968 29.2961 22.2475C29.0389 22.3708 28.959 22.5039 28.9599 22.7859C28.9714 27.1849 28.9688 31.5839 28.9697 35.9829V35.9837Z" fill="#3F404F"/>
<path d="M23.1969 4.86454C22.1796 3.99095 21.0417 3.76834 19.7841 4.24726C17.731 5.03039 16.9727 7.73807 18.538 9.4755C18.617 9.56241 18.7385 9.62272 18.7403 9.76463C18.7651 9.76995 18.7899 9.77438 18.8148 9.7797L18.813 9.76995C19.5127 9.73536 20.0351 10.0679 20.4732 10.5744C21.6519 10.679 22.6665 10.3651 23.4851 9.46486C24.6585 8.17531 24.5308 5.97759 23.1951 4.86277L23.1969 4.86454Z" fill="#F7BF88"/>
<path d="M26.7951 16.5787C26.4306 16.1007 25.9845 15.7397 25.377 15.6306C23.973 15.3796 22.5682 15.1304 21.1616 14.8918C20.9292 14.8528 20.86 14.7597 20.8645 14.5264C20.8795 13.7211 20.8538 12.9158 20.876 12.1114C20.8911 11.5536 20.7838 11.0418 20.4742 10.5753C20.0361 10.0689 19.5137 9.7372 18.814 9.77091L18.8157 9.78066C18.8157 12.6569 18.8149 15.5331 18.814 18.4092C18.8157 18.4217 18.8175 18.4332 18.8202 18.4456C20.2631 18.7303 21.7061 19.015 23.1482 19.3006C23.6218 19.3946 24.0928 19.5028 24.5681 19.5888C25.557 19.768 26.31 19.4079 26.8466 18.5698C27.1428 17.8984 27.1153 17.235 26.796 16.5787H26.7951Z" fill="#FF6767"/>
<path d="M18.7403 9.76562C18.6117 9.77272 18.4822 9.77982 18.3536 9.78691C18.2969 9.84811 18.2215 9.84278 18.1479 9.84633L18.1532 9.84278C17.1226 10.2853 16.7058 11.072 16.7404 12.1842C16.7821 13.5314 16.7501 14.8812 16.7537 16.2302C16.7537 16.4058 16.7555 16.5867 16.7927 16.757C16.9985 17.7175 17.6716 18.2621 18.8139 18.4093C18.8139 15.5331 18.8148 12.6569 18.8157 9.7807C18.7909 9.77538 18.766 9.77006 18.7412 9.76562H18.7403Z" fill="#FF6767"/>
<path d="M18.3536 9.78712C18.2968 9.84831 18.2214 9.84299 18.1478 9.84654C18.1984 9.76495 18.28 9.78889 18.3536 9.78712Z" fill="#99DCFD"/>
<path d="M20.8794 30.3544C20.8927 29.5491 20.8058 28.7775 20.5202 28.0272C20.4732 27.9048 20.4395 27.7762 20.4005 27.6511C19.8959 26.0503 19.3912 24.4494 18.8866 22.8486C18.899 22.7475 18.8582 22.6615 18.8094 22.5781C17.3602 22.5746 15.9111 22.5701 14.4619 22.5666C14.3554 22.5666 14.2286 22.5426 14.2268 22.7138C14.2153 22.7218 14.2029 22.7236 14.1887 22.7182C13.8393 24.5169 13.4792 26.3146 13.1484 28.1168C13.0694 28.546 12.8974 28.8954 12.6322 29.2342C11.4615 30.7313 10.3112 32.2452 9.14228 33.745C8.99329 33.9365 8.99063 34.0244 9.1884 34.1813C9.93162 34.7702 10.6571 35.3822 11.3888 35.9862C11.7622 35.9862 12.1347 35.9862 12.508 35.9862C13.387 34.7489 14.2659 33.5126 15.1457 32.2763C15.6618 31.5508 16.1807 30.8262 16.6977 30.1016C16.7829 30.1841 16.7438 30.2896 16.7438 30.3837C16.7456 32.2514 16.7447 34.1184 16.7438 35.9862C17.433 35.9879 18.1221 35.9897 18.8112 35.9915L18.8085 36.0012C19.4959 35.9968 20.1832 35.9924 20.8706 35.9879C20.8706 34.1113 20.8475 32.2337 20.8777 30.357L20.8794 30.3544Z" fill="#3F404F"/>
</g>
<defs>
<clipPath id="clip0_763_17353">
<rect width="21.932" height="32" fill="white" transform="translate(9.03406 4)"/>
</clipPath>
</defs>
</svg>
