<svg width="32" height="38" viewBox="0 0 32 38" fill="none" xmlns="http://www.w3.org/2000/svg">
<g clip-path="url(#clip0_8527_75268)">
<g clip-path="url(#clip1_8527_75268)">
<path d="M21.1823 1.28149L1.13953 20.2372C3.29525 26.0058 9.11143 30.1389 15.9487 30.1389C15.9487 33.8763 13.8137 36.9395 11.1059 37.2107C10.9557 37.2253 10.8885 37.4049 10.9948 37.5111C11.029 37.5453 11.0742 37.5636 11.1218 37.5636C22.4647 37.5197 31.6482 27.5655 31.6507 15.2919C31.6507 15.2894 31.6507 15.2882 31.6507 15.2858C31.6507 8.81982 27.2806 3.31875 21.1811 1.28027L21.1823 1.28149Z" fill="#F18200"/>
<path d="M15.9475 0.43512C7.27451 0.43512 0.244278 7.08428 0.244278 15.287C0.244278 17.0226 0.560614 18.6886 1.13955 20.2373L21.1823 1.28153C19.5444 0.734356 17.7832 0.43512 15.9475 0.43512Z" fill="#3777BC"/>
<path d="M6.37311 21.0837C15.0461 21.0837 22.0763 14.4345 22.0763 6.23178C22.0763 4.49621 21.76 2.83026 21.1811 1.28156L1.13953 20.2373C2.77739 20.7845 4.53861 21.0837 6.37434 21.0837H6.37311Z" fill="#1C3C5E"/>
</g>
</g>
<defs>
<clipPath id="clip0_8527_75268">
<rect width="32" height="37.1298" fill="white"/>
</clipPath>
<clipPath id="clip1_8527_75268">
<rect width="31.4076" height="37.1298" fill="white" transform="translate(0.244278 0.43512)"/>
</clipPath>
</defs>
</svg>
