<svg width="120" height="120" viewBox="0 0 120 120" fill="none" xmlns="http://www.w3.org/2000/svg">
<path d="M0 60C0 26.8629 26.8629 0 60 0C93.1371 0 120 26.8629 120 60C120 93.1371 93.1371 120 60 120C26.8629 120 0 93.1371 0 60Z" fill="#FFF5E6"/>
<mask id="mask0_11081_19237" style="mask-type:alpha" maskUnits="userSpaceOnUse" x="0" y="0" width="120" height="120">
<path d="M0 60C0 26.8629 26.8629 0 60 0C93.1371 0 120 26.8629 120 60C120 93.1371 93.1371 120 60 120C26.8629 120 0 93.1371 0 60Z" fill="white"/>
</mask>
<g mask="url(#mask0_11081_19237)">
<path d="M38.5354 59.7579C37.0608 59.7579 35.7387 58.7283 35.4273 57.2283L32.7514 44.4021L23.4653 42.2666C21.7555 41.8725 20.6877 40.1691 21.0818 38.4594C21.4759 36.7497 23.1793 35.6819 24.889 36.0759L36.1582 38.6691C37.3659 38.9488 38.3066 39.9022 38.5544 41.1161L41.6435 55.9317C41.9994 57.6478 40.8998 59.3321 39.1837 59.6944C38.9676 59.7388 38.7451 59.7643 38.529 59.7643L38.5354 59.7579Z" fill="#FFC77D"/>
<path d="M48.9398 95.8735C45.0817 95.8735 41.9482 92.7401 41.9482 88.8821C41.9482 85.0241 45.0817 81.8906 48.9398 81.8906C52.7979 81.8906 55.9314 85.0241 55.9314 88.8821C55.9314 92.7401 52.7979 95.8735 48.9398 95.8735Z" fill="#FFC77D"/>
<path d="M70.5504 95.8735C66.6923 95.8735 63.5588 92.7401 63.5588 88.8821C63.5588 85.0241 66.6923 81.8906 70.5504 81.8906C74.4085 81.8906 77.542 85.0241 77.542 88.8821C77.542 92.7401 74.4085 95.8735 70.5504 95.8735Z" fill="#FFC77D"/>
<path fill-rule="evenodd" clip-rule="evenodd" d="M39.0313 75.5916L34.385 52.685L34.3787 52.6786C33.832 49.9838 35.8977 47.4668 38.6435 47.4795L87.8644 47.6575C91.0869 47.6702 93.1717 51.0579 91.7289 53.9371L82.0169 73.3479C80.2626 76.8564 76.6778 79.0682 72.7562 79.0682H43.2834C41.2177 79.0682 39.4444 77.6127 39.0313 75.5916ZM46.6901 66.5859C46.6901 68.3401 48.1138 69.7638 49.8681 69.7638C51.6223 69.7638 53.0461 68.3401 53.0461 66.5859V59.9694C53.0461 58.2152 51.6223 56.7915 49.8681 56.7915C48.1138 56.7915 46.6901 58.2152 46.6901 59.9694V66.5859ZM61.4997 69.7638C59.7454 69.7638 58.3217 68.3401 58.3217 66.5859V59.9694C58.3217 58.2152 59.7454 56.7915 61.4997 56.7915C63.2539 56.7915 64.6777 58.2152 64.6777 59.9694V66.5859C64.6777 68.3401 63.2539 69.7638 61.4997 69.7638ZM69.9532 66.5859C69.9532 68.3401 71.377 69.7638 73.1312 69.7638C74.8855 69.7638 76.3092 68.3401 76.3092 66.5859V59.9694C76.3092 58.2152 74.8855 56.7915 73.1312 56.7915C71.377 56.7915 69.9532 58.2152 69.9532 59.9694V66.5859Z" fill="#FFC77D"/>
<path d="M80.25 66C89.7769 66 97.5 58.2769 97.5 48.75C97.5 39.2231 89.7769 31.5 80.25 31.5C70.7231 31.5 63 39.2231 63 48.75C63 58.2769 70.7231 66 80.25 66Z" fill="url(#paint0_linear_11081_19237)"/>
<path d="M86.3488 56.8818L80.25 50.783L74.1512 56.8818L72.1183 54.8489L78.2171 48.7501L72.1183 42.6513L74.1512 40.6183L80.25 46.7171L86.3488 40.6183L88.3817 42.6513L82.2829 48.7501L88.3817 54.8489L86.3488 56.8818Z" fill="white"/>
</g>
<defs>
<linearGradient id="paint0_linear_11081_19237" x1="72.7031" y1="37.6094" x2="89.2344" y2="61.6875" gradientUnits="userSpaceOnUse">
<stop stop-color="#FF8120"/>
<stop offset="1" stop-color="#E54304"/>
</linearGradient>
</defs>
</svg>
