<svg width="80" height="80" viewBox="0 0 80 80" fill="none" xmlns="http://www.w3.org/2000/svg">
<g clip-path="url(#clip0_8739_39045)">
<mask id="path-1-inside-1_8739_39045" fill="white">
<path d="M0 40C0 17.9086 17.9086 0 40 0C62.0914 0 80 17.9086 80 40C80 62.0914 62.0914 80 40 80C17.9086 80 0 62.0914 0 40Z"/>
</mask>
<path d="M0 40C0 17.9086 17.9086 0 40 0C62.0914 0 80 17.9086 80 40C80 62.0914 62.0914 80 40 80C17.9086 80 0 62.0914 0 40Z" fill="white"/>
<path d="M40 78C19.0132 78 2 60.9868 2 40H-2C-2 63.196 16.804 82 40 82V78ZM78 40C78 60.9868 60.9868 78 40 78V82C63.196 82 82 63.196 82 40H78ZM40 2C60.9868 2 78 19.0132 78 40H82C82 16.804 63.196 -2 40 -2V2ZM40 -2C16.804 -2 -2 16.804 -2 40H2C2 19.0132 19.0132 2 40 2V-2Z" fill="#111111" mask="url(#path-1-inside-1_8739_39045)"/>
<path d="M39.9905 25.1154V56.3269C39.9905 57.2981 39.6 58.2308 38.9239 58.9231C38.2382 59.6154 37.3239 60 36.3525 60C35.3907 59.9904 34.4669 59.5962 33.7907 58.9135C33.1146 58.2308 32.7241 57.2981 32.7146 56.3269C32.4098 56.3558 32.1051 56.3558 31.8003 56.3269C30.1147 56.3269 28.4957 55.6442 27.3053 54.4423C26.1149 53.2404 25.4387 51.6058 25.4387 49.9038C25.4387 49.4519 25.4959 49 25.5911 48.5577C24.1054 48.0577 22.7912 47.1442 21.8103 45.9135C20.8294 44.6827 20.2104 43.1923 20.0485 41.6154C19.877 40.0385 20.1627 38.4519 20.8675 37.0385C21.5722 35.625 22.6579 34.4423 24.0007 33.6346C23.7626 32.9615 23.6388 32.25 23.6388 31.5385C23.6388 30 24.1911 28.5096 25.1911 27.3462C26.1911 26.1827 27.572 25.4135 29.0862 25.1923C29.1719 23.7885 29.7814 22.4712 30.7909 21.5C31.8099 20.5385 33.1431 20 34.5431 20C35.943 20 37.2763 20.5385 38.2953 21.5C39.3143 22.4615 39.9238 23.7885 40 25.1923V25.1154H39.9905Z" fill="#FFA64D"/>
<path fill-rule="evenodd" clip-rule="evenodd" d="M31.6531 22.405C30.8723 23.1583 30.4003 24.1794 30.3339 25.2685L30.272 26.2824L29.2668 26.4292C28.0562 26.606 26.946 27.222 26.1391 28.1609C25.3343 29.0973 24.8888 30.2985 24.8888 31.5385C24.8888 32.1058 24.9877 32.6765 25.1791 33.2178L25.5194 34.1798L24.645 34.7058C23.5092 35.3889 22.5865 36.392 21.9861 37.5962C21.3881 38.7957 21.1456 40.1418 21.2911 41.4803L21.292 41.4877C21.4289 42.822 21.9533 44.0872 22.7878 45.1344C23.617 46.1748 24.7293 46.9488 25.9898 47.373L27.0481 47.7292L26.8131 48.8208C26.7328 49.1937 26.6887 49.5563 26.6887 49.9038C26.6887 51.2755 27.2343 52.5943 28.1934 53.5627C29.1522 54.5307 30.4527 55.0769 31.8003 55.0769H31.8594L31.9181 55.0825C32.1445 55.1039 32.3704 55.1039 32.5968 55.0825L33.9512 54.9543L33.9645 56.3147C33.9709 56.9613 34.232 57.5826 34.6789 58.0338C35.1239 58.4832 35.7313 58.742 36.3587 58.75C36.9892 58.7484 37.5811 58.5009 38.0326 58.0466C38.4849 57.5819 38.7405 56.9617 38.7405 56.3269V25.1037C38.6467 24.0745 38.1827 23.1123 37.4374 22.4091C36.6465 21.6628 35.6186 21.25 34.5431 21.25C33.4695 21.25 32.4435 21.6613 31.6531 22.405ZM41.06 23.8654C40.7527 22.6228 40.0967 21.4811 39.1532 20.5909C37.9062 19.4141 36.2674 18.75 34.5431 18.75C32.8188 18.75 31.18 19.4141 29.933 20.5909L29.9242 20.5992C28.9226 21.5628 28.2431 22.8045 27.9659 24.1547C26.5224 24.5589 25.2268 25.3868 24.2431 26.5314C23.048 27.922 22.3888 29.7015 22.3888 31.5385C22.3888 32.0649 22.4451 32.5901 22.5547 33.1038C21.3741 33.9912 20.4132 35.1481 19.7488 36.4807C18.938 38.107 18.6089 39.9326 18.8054 41.7468C18.9928 43.5649 19.7063 45.2791 20.8328 46.6925C21.7436 47.8354 22.9026 48.7402 24.2112 49.3501C24.1966 49.5326 24.1887 49.7174 24.1887 49.9038C24.1887 51.936 24.9955 53.8865 26.4172 55.3219C27.8 56.7181 29.6703 57.5313 31.6332 57.5751C31.8554 58.4077 32.2911 59.1756 32.9026 59.7931C33.8084 60.7076 35.046 61.237 36.34 61.2499L36.3525 61.25C37.661 61.25 38.894 60.7295 39.812 59.8027L39.8181 59.7965C40.7163 58.8768 41.2405 57.633 41.2405 56.3269V25.1926L41.25 25.1923V23.8654H41.06Z" fill="#282828"/>
<path d="M29.9987 38.3333C28.1977 38.2436 26.5021 37.4963 25.2594 36.2606C24.0166 35.0249 23.332 33.3807 23.332 31.6667C23.332 29.9527 24.0271 28.3184 25.2594 27.0727C26.5021 25.8371 28.1977 25.0897 29.9987 25" fill="#FFA64D"/>
<path fill-rule="evenodd" clip-rule="evenodd" d="M31.2471 24.9379C31.2815 25.6274 30.7504 26.2141 30.0609 26.2485C28.5646 26.323 27.1639 26.9436 26.1444 27.9555C25.135 28.9777 24.582 30.2987 24.582 31.6667C24.582 33.0436 25.1309 34.3701 26.1407 35.3742C27.1606 36.3883 28.5628 37.0103 30.0609 37.0849C30.7504 37.1192 31.2815 37.706 31.2471 38.3955C31.2128 39.085 30.626 39.6162 29.9365 39.5818C27.8327 39.477 25.8437 38.6043 24.378 37.147C22.9024 35.6798 22.082 33.7178 22.082 31.6667C22.082 29.6083 22.9179 27.6623 24.3707 26.1937L24.378 26.1863L24.378 26.1864C25.8437 24.7291 27.8327 23.8563 29.9365 23.7516C30.626 23.7172 31.2128 24.2484 31.2471 24.9379Z" fill="#282828"/>
<path d="M33.332 43.334C34.2046 43.334 35.0772 43.5085 35.88 43.8401C36.6915 44.1717 37.4245 44.6691 38.0441 45.2886C38.6636 45.9082 39.1523 46.6411 39.4926 47.4527C39.8242 48.2642 39.9987 49.1281 39.9987 50.0007" fill="#FFA64D"/>
<path fill-rule="evenodd" clip-rule="evenodd" d="M32.082 43.334C32.082 42.6436 32.6417 42.084 33.332 42.084C34.3685 42.084 35.4024 42.2907 36.355 42.6839C37.327 43.0814 38.1973 43.6741 38.928 44.4047C39.6645 45.1412 40.2435 46.011 40.6453 46.9692L40.6498 46.9798L40.6497 46.9798C41.0407 47.9368 41.2487 48.9609 41.2487 50.0007C41.2487 50.691 40.6891 51.2507 39.9987 51.2507C39.3083 51.2507 38.7487 50.691 38.7487 50.0007C38.7487 49.297 38.6084 48.5953 38.3376 47.9308C38.059 47.2682 37.6614 46.6737 37.1602 46.1725C36.6523 45.6646 36.0574 45.2629 35.4072 44.9972L35.4028 44.9954L35.4028 44.9954C34.7505 44.726 34.0399 44.584 33.332 44.584C32.6417 44.584 32.082 44.0243 32.082 43.334Z" fill="#282828"/>
<path d="M35 31.6667C35.6556 31.6667 36.3112 31.4928 36.9143 31.1565C37.5262 30.8203 38.0769 30.3333 38.5402 29.7072C39.0035 29.0928 39.3706 28.3507 39.6241 27.5507C39.8776 26.7391 40 25.8812 40 25" fill="#FFA64D"/>
<path fill-rule="evenodd" clip-rule="evenodd" d="M40 23.75C40.6904 23.75 41.25 24.3096 41.25 25C41.25 25.9968 41.1115 26.9813 40.8173 27.9234L40.8157 27.9283L40.8157 27.9283C40.5265 28.841 40.1007 29.7126 39.5417 30.4553C38.9818 31.2107 38.2998 31.8208 37.5197 32.2502C36.7402 32.684 35.8774 32.9167 35 32.9167C34.3096 32.9167 33.75 32.357 33.75 31.6667C33.75 30.9763 34.3096 30.4167 35 30.4167C35.4326 30.4167 35.8797 30.3022 36.3057 30.0647L36.3123 30.061L36.3124 30.061C36.7531 29.8188 37.1702 29.4573 37.5354 28.9637L37.5421 28.9547L37.5421 28.9547C37.9076 28.47 38.2146 27.8601 38.4317 27.1756C38.644 26.4952 38.75 25.7646 38.75 25C38.75 24.3096 39.3096 23.75 40 23.75Z" fill="#282828"/>
<path d="M40.0095 25.1154V56.3269C40.0095 57.2981 40.4 58.2308 41.0761 58.9231C41.7618 59.6154 42.6761 60 43.6475 60C44.6093 59.9904 45.5331 59.5962 46.2093 58.9135C46.8854 58.2308 47.2759 57.2981 47.2854 56.3269C47.5902 56.3558 47.8949 56.3558 48.1997 56.3269C49.8853 56.3269 51.5043 55.6442 52.6947 54.4423C53.8851 53.2404 54.5613 51.6058 54.5613 49.9038C54.5613 49.4519 54.5041 49 54.4089 48.5577C55.8946 48.0577 57.2088 47.1442 58.1897 45.9135C59.1706 44.6827 59.7896 43.1923 59.9515 41.6154C60.123 40.0385 59.8373 38.4519 59.1325 37.0385C58.4278 35.625 57.3421 34.4423 55.9993 33.6346C56.2374 32.9615 56.3612 32.25 56.3612 31.5385C56.3612 30 55.8089 28.5096 54.8089 27.3462C53.8089 26.1827 52.428 25.4135 50.9138 25.1923C50.8281 23.7885 50.2186 22.4712 49.2091 21.5C48.1901 20.5385 46.8569 20 45.4569 20C44.057 20 42.7237 20.5385 41.7047 21.5C40.6857 22.4615 40.0762 23.7885 40 25.1923V25.1154H40.0095Z" fill="#FFA64D"/>
<path fill-rule="evenodd" clip-rule="evenodd" d="M40.8468 20.5909C42.0938 19.4141 43.7326 18.75 45.4569 18.75C47.1812 18.75 48.82 19.4141 50.067 20.5909L50.0758 20.5991C51.0775 21.5628 51.7569 22.8045 52.0341 24.1547C53.4776 24.5589 54.7732 25.3868 55.7569 26.5314C56.952 27.922 57.6112 29.7015 57.6112 31.5385C57.6112 32.0649 57.5549 32.5901 57.4453 33.1038C58.6259 33.9912 59.5868 35.1481 60.2512 36.4807C61.062 38.107 61.3911 39.9326 61.1946 41.7468C61.0072 43.5649 60.2937 45.2791 59.1672 46.6925C58.2564 47.8354 57.0974 48.7402 55.7888 49.3501C55.8034 49.5326 55.8113 49.7174 55.8113 49.9038C55.8113 51.936 55.0045 53.8865 53.5828 55.3219C52.2 56.7181 50.3297 57.5313 48.3668 57.5751C48.1446 58.4077 47.7089 59.1756 47.0974 59.7931C46.1916 60.7076 44.954 61.237 43.66 61.2499L43.6475 61.2501C42.339 61.2501 41.106 60.7295 40.188 59.8027L40.1819 59.7965C39.2837 58.8769 38.7595 57.633 38.7595 56.3269V25.1926L38.75 25.1923V23.8654H38.94C39.2473 22.6228 39.9033 21.4811 40.8468 20.5909ZM41.2595 25.1037C41.3533 24.0745 41.8173 23.1123 42.5626 22.4091C43.3535 21.6628 44.3814 21.25 45.4569 21.25C46.5305 21.25 47.5565 21.6613 48.3469 22.405C49.1277 23.1583 49.5997 24.1794 49.6661 25.2685L49.728 26.2824L50.7332 26.4292C51.9438 26.606 53.054 27.222 53.8609 28.1609C54.6657 29.0973 55.1112 30.2985 55.1112 31.5385C55.1112 32.1058 55.0123 32.6765 54.8209 33.2178L54.4806 34.1798L55.355 34.7058C56.4908 35.3889 57.4135 36.392 58.0139 37.5962C58.6119 38.7957 58.8544 40.1418 58.7089 41.4803L58.7081 41.4877C58.5711 42.822 58.0467 44.0872 57.2122 45.1344C56.383 46.1748 55.2707 46.9488 54.0102 47.373L52.9519 47.7292L53.1869 48.8208C53.2672 49.1937 53.3113 49.5563 53.3113 49.9038C53.3113 51.2755 52.7657 52.5943 51.8066 53.5627C50.8478 54.5307 49.5473 55.0769 48.1997 55.0769H48.1406L48.0819 55.0825C47.8555 55.1039 47.6296 55.1039 47.4032 55.0825L46.0488 54.9543L46.0355 56.3147C46.0291 56.9613 45.768 57.5826 45.3211 58.0338C44.8761 58.4832 44.2687 58.742 43.6413 58.75C43.0107 58.7484 42.4189 58.5009 41.9674 58.0466C41.5151 57.5819 41.2595 56.9617 41.2595 56.3269V25.1037Z" fill="#282828"/>
<path d="M50 38.3333C51.8009 38.2436 53.4966 37.4963 54.7393 36.2606C55.9821 35.0249 56.6667 33.3807 56.6667 31.6667C56.6667 29.9527 55.9716 28.3184 54.7393 27.0727C53.4966 25.8371 51.8009 25.0897 50 25" fill="#FFA64D"/>
<path fill-rule="evenodd" clip-rule="evenodd" d="M48.7516 24.9379C48.7859 24.2484 49.3727 23.7172 50.0622 23.7516C52.166 23.8563 54.1551 24.7291 55.6207 26.1864L55.628 26.1937L55.628 26.1937C57.0808 27.6623 57.9167 29.6083 57.9167 31.6667C57.9167 33.7178 57.0964 35.6798 55.6207 37.147C54.1551 38.6043 52.166 39.477 50.0622 39.5818C49.3727 39.6162 48.7859 39.085 48.7516 38.3955C48.7172 37.706 49.2484 37.1192 49.9379 37.0849C51.436 37.0103 52.8381 36.3883 53.858 35.3742C54.8679 34.3701 55.4167 33.0436 55.4167 31.6667C55.4167 30.2987 54.8637 28.9777 53.8543 27.9555C52.8348 26.9436 51.4342 26.323 49.9379 26.2485C49.2484 26.2141 48.7172 25.6274 48.7516 24.9379Z" fill="#282828"/>
<path d="M46.6667 43.334C44.8953 43.334 43.2024 44.0408 41.9546 45.2886C40.7068 46.5364 40 48.238 40 50.0007" fill="#FFA64D"/>
<path fill-rule="evenodd" clip-rule="evenodd" d="M41.0707 44.4047C42.5515 42.9239 44.5617 42.084 46.6667 42.084C47.357 42.084 47.9167 42.6436 47.9167 43.334C47.9167 44.0243 47.357 44.584 46.6667 44.584C45.2288 44.584 43.8533 45.1577 42.8385 46.1725C41.8243 47.1867 41.25 48.5707 41.25 50.0007C41.25 50.691 40.6904 51.2507 40 51.2507C39.3096 51.2507 38.75 50.691 38.75 50.0007C38.75 47.9053 39.5893 45.8861 41.0707 44.4047Z" fill="#282828"/>
<path d="M45 31.6667C44.3444 31.6667 43.6888 31.4928 43.0857 31.1565C42.4738 30.8203 41.9231 30.3333 41.4598 29.7072C40.9965 29.0928 40.6294 28.3507 40.3759 27.5507C40.1224 26.7391 40 25.8812 40 25" fill="#FFA64D"/>
<path fill-rule="evenodd" clip-rule="evenodd" d="M40 23.75C40.6904 23.75 41.25 24.3096 41.25 25C41.25 25.7646 41.356 26.4952 41.5683 27.1756C41.7854 27.8601 42.0924 28.4699 42.4579 28.9547L42.4646 28.9637L42.4646 28.9637C42.8298 29.4573 43.2469 29.8188 43.6876 30.061L43.6943 30.0647L43.6943 30.0647C44.1203 30.3022 44.5674 30.4167 45 30.4167C45.6904 30.4167 46.25 30.9763 46.25 31.6667C46.25 32.357 45.6904 32.9167 45 32.9167C44.1227 32.9167 43.2599 32.684 42.4805 32.2502C41.7003 31.8209 41.0183 31.2108 40.4583 30.4553C39.8993 29.7126 39.4735 28.841 39.1843 27.9283L39.1827 27.9234L39.1827 27.9234C38.8885 26.9813 38.75 25.9968 38.75 25C38.75 24.3096 39.3096 23.75 40 23.75Z" fill="#282828"/>
</g>
<defs>
<clipPath id="clip0_8739_39045">
<rect width="80" height="80" fill="white"/>
</clipPath>
</defs>
</svg>
