<svg width="80" height="80" viewBox="0 0 80 80" fill="none" xmlns="http://www.w3.org/2000/svg">
<g clip-path="url(#clip0_8739_39102)">
<mask id="path-1-inside-1_8739_39102" fill="white">
<path d="M0 40C0 17.9086 17.9086 0 40 0C62.0914 0 80 17.9086 80 40C80 62.0914 62.0914 80 40 80C17.9086 80 0 62.0914 0 40Z"/>
</mask>
<path d="M0 40C0 17.9086 17.9086 0 40 0C62.0914 0 80 17.9086 80 40C80 62.0914 62.0914 80 40 80C17.9086 80 0 62.0914 0 40Z" fill="white"/>
<path d="M40 78C19.0132 78 2 60.9868 2 40H-2C-2 63.196 16.804 82 40 82V78ZM78 40C78 60.9868 60.9868 78 40 78V82C63.196 82 82 63.196 82 40H78ZM40 2C60.9868 2 78 19.0132 78 40H82C82 16.804 63.196 -2 40 -2V2ZM40 -2C16.804 -2 -2 16.804 -2 40H2C2 19.0132 19.0132 2 40 2V-2Z" fill="#111111" mask="url(#path-1-inside-1_8739_39102)"/>
<g clip-path="url(#clip1_8739_39102)">
<path fill-rule="evenodd" clip-rule="evenodd" d="M35.0011 20.708C34.1544 20.708 33.4629 21.3995 33.4629 22.2462V26.5358C33.4629 27.2261 32.9032 27.7858 32.2129 27.7858C31.5225 27.7858 30.9629 27.2261 30.9629 26.5358V22.2462C30.9629 20.0188 32.7737 18.208 35.0011 18.208H45.0011C47.2285 18.208 49.0393 20.0188 49.0393 22.2462V26.5358C49.0393 27.2261 48.4797 27.7858 47.7893 27.7858C47.0989 27.7858 46.5393 27.2261 46.5393 26.5358V22.2462C46.5393 21.3995 45.8478 20.708 45.0011 20.708H35.0011Z" fill="#282828"/>
<path d="M24.2322 27.0986H55.7693C58.4056 27.0986 60.5504 29.2434 60.5504 31.8797V54.516C60.5504 57.1523 58.4056 59.297 55.7693 59.297H24.2322C21.5959 59.297 19.4512 57.1523 19.4512 54.516V31.8797C19.4512 29.2434 21.5959 27.0986 24.2322 27.0986Z" fill="#EF5750"/>
<path fill-rule="evenodd" clip-rule="evenodd" d="M24.2322 28.3486C22.2863 28.3486 20.7012 29.9338 20.7012 31.8797V54.516C20.7012 56.4619 22.2863 58.047 24.2322 58.047H55.7693C57.7152 58.047 59.3004 56.4619 59.3004 54.516V31.8797C59.3004 29.9338 57.7152 28.3486 55.7693 28.3486H24.2322ZM18.2012 31.8797C18.2012 28.553 20.9056 25.8486 24.2322 25.8486H55.7693C59.0959 25.8486 61.8004 28.553 61.8004 31.8797V54.516C61.8004 57.8426 59.0959 60.547 55.7693 60.547H24.2322C20.9056 60.547 18.2012 57.8426 18.2012 54.516V31.8797Z" fill="#282828"/>
<path d="M39.9958 50.2984C38.7 50.2984 37.6455 49.2438 37.6455 47.948V45.7943H35.5007C34.2049 45.7943 33.1504 44.7398 33.1504 43.444C33.1504 42.1482 34.2049 41.0937 35.5007 41.0937H37.6455V38.9489C37.6455 37.6531 38.7 36.5986 39.9958 36.5986C41.2916 36.5986 42.3461 37.6531 42.3461 38.9489V41.0937H44.4909C45.7867 41.0937 46.8412 42.1482 46.8412 43.444C46.8412 44.7398 45.7867 45.7943 44.4909 45.7943H42.3461V47.948C42.3461 49.2438 41.2916 50.2984 39.9958 50.2984Z" fill="#FFEC7B"/>
<path fill-rule="evenodd" clip-rule="evenodd" d="M39.9958 37.8486C39.3903 37.8486 38.8955 38.3435 38.8955 38.9489V42.3437H35.5007C34.8953 42.3437 34.4004 42.8386 34.4004 43.444C34.4004 44.0495 34.8953 44.5443 35.5007 44.5443H38.8955V47.948C38.8955 48.5535 39.3903 49.0484 39.9958 49.0484C40.6012 49.0484 41.0961 48.5535 41.0961 47.948V44.5443H44.4909C45.0963 44.5443 45.5912 44.0495 45.5912 43.444C45.5912 42.8386 45.0963 42.3437 44.4909 42.3437H41.0961V38.9489C41.0961 38.3435 40.6012 37.8486 39.9958 37.8486ZM36.3955 38.9489C36.3955 36.9628 38.0096 35.3486 39.9958 35.3486C41.9819 35.3486 43.5961 36.9628 43.5961 38.9489V39.8437H44.4909C46.477 39.8437 48.0912 41.4579 48.0912 43.444C48.0912 45.4302 46.477 47.0443 44.4909 47.0443H43.5961V47.948C43.5961 49.9342 41.9819 51.5484 39.9958 51.5484C38.0096 51.5484 36.3955 49.9342 36.3955 47.948V47.0443H35.5007C33.5145 47.0443 31.9004 45.4302 31.9004 43.444C31.9004 41.4579 33.5145 39.8437 35.5007 39.8437H36.3955V38.9489Z" fill="#282828"/>
</g>
</g>
<defs>
<clipPath id="clip0_8739_39102">
<rect width="80" height="80" fill="white"/>
</clipPath>
<clipPath id="clip1_8739_39102">
<rect width="43.3333" height="42.0822" fill="white" transform="translate(18.334 18.333)"/>
</clipPath>
</defs>
</svg>
