<svg width="80" height="80" viewBox="0 0 80 80" fill="none" xmlns="http://www.w3.org/2000/svg">
<g clip-path="url(#clip0_8739_39069)">
<mask id="path-1-inside-1_8739_39069" fill="white">
<path d="M0 40C0 17.9086 17.9086 0 40 0C62.0914 0 80 17.9086 80 40C80 62.0914 62.0914 80 40 80C17.9086 80 0 62.0914 0 40Z"/>
</mask>
<path d="M0 40C0 17.9086 17.9086 0 40 0C62.0914 0 80 17.9086 80 40C80 62.0914 62.0914 80 40 80C17.9086 80 0 62.0914 0 40Z" fill="white"/>
<path d="M40 78C19.0132 78 2 60.9868 2 40H-2C-2 63.196 16.804 82 40 82V78ZM78 40C78 60.9868 60.9868 78 40 78V82C63.196 82 82 63.196 82 40H78ZM40 2C60.9868 2 78 19.0132 78 40H82C82 16.804 63.196 -2 40 -2V2ZM40 -2C16.804 -2 -2 16.804 -2 40H2C2 19.0132 19.0132 2 40 2V-2Z" fill="#111111" mask="url(#path-1-inside-1_8739_39069)"/>
<g clip-path="url(#clip1_8739_39069)">
<path d="M39.9993 64.1754C50.3993 64.1754 58.8228 55.7518 58.8228 45.3518C58.8228 34.9518 50.3993 26.5283 39.9993 26.5283C29.5993 26.5283 21.1758 34.9518 21.1758 45.3518C21.1758 55.7518 29.5993 64.1754 39.9993 64.1754Z" fill="#FFEC7B"/>
<path fill-rule="evenodd" clip-rule="evenodd" d="M19.9258 45.3518C19.9258 34.2615 28.909 25.2783 39.9993 25.2783C51.0897 25.2783 60.0728 34.2615 60.0728 45.3518C60.0728 56.4422 51.0897 65.4254 39.9993 65.4254C28.909 65.4254 19.9258 56.4422 19.9258 45.3518ZM39.9993 27.7783C30.2897 27.7783 22.4258 35.6422 22.4258 45.3518C22.4258 55.0615 30.2897 62.9254 39.9993 62.9254C49.709 62.9254 57.5728 55.0615 57.5728 45.3518C57.5728 35.6422 49.709 27.7783 39.9993 27.7783Z" fill="#282828"/>
<path d="M47.5295 52.8809C47.5295 52.8809 44.706 49.1162 40.0001 49.1162C35.2942 49.1162 32.4707 52.8809 32.4707 52.8809" fill="#FFEC7B"/>
<path fill-rule="evenodd" clip-rule="evenodd" d="M33.7356 49.9876C35.1677 48.9461 37.3028 47.8662 40.0002 47.8662C42.6975 47.8662 44.8326 48.9461 46.2648 49.9876C46.9833 50.5102 47.5387 51.0326 47.9174 51.4278C48.1073 51.6259 48.2542 51.7936 48.3566 51.9156C48.4078 51.9766 48.4479 52.0263 48.4768 52.0628L48.5117 52.1074L48.5228 52.1219L48.5267 52.1271L48.5283 52.1292C48.5286 52.1296 48.5296 52.1309 47.5296 52.8809L48.5296 52.1309C48.9438 52.6832 48.8319 53.4667 48.2796 53.8809C47.7276 54.2949 46.9445 54.1833 46.5302 53.6317L46.5167 53.6145C46.5019 53.5959 46.4768 53.5647 46.4416 53.5227C46.3712 53.4388 46.2608 53.3124 46.1124 53.1576C45.8147 52.8469 45.37 52.4281 44.7944 52.0095C43.6383 51.1687 42.0087 50.3662 40.0002 50.3662C37.9917 50.3662 36.3621 51.1687 35.206 52.0095C34.6304 52.4281 34.1857 52.8469 33.888 53.1576C33.7396 53.3124 33.6292 53.4388 33.5588 53.5227C33.5236 53.5647 33.4985 53.5959 33.4837 53.6145L33.4694 53.6328C33.055 54.1845 32.2728 54.2949 31.7208 53.8809C31.1685 53.4667 31.0566 52.6832 31.4708 52.1309L32.4708 52.8809C31.4708 52.1309 31.4705 52.1313 31.4708 52.1309L31.4721 52.1292L31.4737 52.1271L31.4776 52.1219L31.4887 52.1074L31.5236 52.0628C31.5525 52.0263 31.5926 51.9766 31.6438 51.9156C31.7462 51.7936 31.8931 51.6259 32.083 51.4278C32.4617 51.0326 33.0171 50.5102 33.7356 49.9876ZM33.4694 53.6328L33.4681 53.6345C33.4678 53.6348 33.4683 53.6342 33.4694 53.6328ZM46.5302 53.6317C46.5312 53.6331 46.5325 53.6348 46.5323 53.6345L46.5302 53.6317Z" fill="#282828"/>
<rect x="34.5878" y="39.9403" width="1.41176" height="1.41176" rx="0.705882" fill="black"/>
<rect x="34.5878" y="39.9403" width="1.41176" height="1.41176" rx="0.705882" stroke="black" stroke-width="0.941176"/>
<rect x="43.9999" y="39.9403" width="1.41176" height="1.41176" rx="0.705882" fill="black"/>
<rect x="43.9999" y="39.9403" width="1.41176" height="1.41176" rx="0.705882" stroke="black" stroke-width="0.941176"/>
<path fill-rule="evenodd" clip-rule="evenodd" d="M40 14.9268C40.6904 14.9268 41.25 15.4864 41.25 16.1768V20.045C41.25 20.7353 40.6904 21.295 40 21.295C39.3096 21.295 38.75 20.7353 38.75 20.045V16.1768C38.75 15.4864 39.3096 14.9268 40 14.9268Z" fill="#282828"/>
<path fill-rule="evenodd" clip-rule="evenodd" d="M31.1782 17.2867C31.7762 16.9416 32.5406 17.1467 32.8856 17.7446L34.8244 21.1046C35.1695 21.7026 34.9645 22.467 34.3665 22.812C33.7686 23.1571 33.0041 22.952 32.6591 22.3541L30.7203 18.9941C30.3752 18.3961 30.5803 17.6317 31.1782 17.2867Z" fill="#282828"/>
<path fill-rule="evenodd" clip-rule="evenodd" d="M48.8235 17.2867C49.4215 17.6317 49.6265 18.3961 49.2815 18.9941L47.3427 22.3541C46.9976 22.952 46.2332 23.1571 45.6352 22.812C45.0373 22.467 44.8323 21.7026 45.1773 21.1046L47.1161 17.7446C47.4612 17.1467 48.2256 16.9416 48.8235 17.2867Z" fill="#282828"/>
</g>
</g>
<defs>
<clipPath id="clip0_8739_39069">
<rect width="80" height="80" fill="white"/>
</clipPath>
<clipPath id="clip1_8739_39069">
<rect width="40" height="50.3529" fill="white" transform="translate(20 15)"/>
</clipPath>
</defs>
</svg>
