<svg width="120" height="121" viewBox="0 0 120 121" fill="none" xmlns="http://www.w3.org/2000/svg">
<path d="M0 60.5C0 27.3629 26.8629 0.5 60 0.5C93.1371 0.5 120 27.3629 120 60.5C120 93.6371 93.1371 120.5 60 120.5C26.8629 120.5 0 93.6371 0 60.5Z" fill="#FFF5E6"/>
<mask id="mask0_11087_18969" style="mask-type:alpha" maskUnits="userSpaceOnUse" x="0" y="0" width="120" height="121">
<path d="M0 60.5C0 27.3629 26.8629 0.5 60 0.5C93.1371 0.5 120 27.3629 120 60.5C120 93.6371 93.1371 120.5 60 120.5C26.8629 120.5 0 93.6371 0 60.5Z" fill="white"/>
</mask>
<g mask="url(#mask0_11087_18969)">
<path d="M90.9524 47.9924H66.0107C65.3615 43.1458 63.8703 38.4011 63.516 33.5248C68.9599 33.5415 74.4242 33.395 79.8662 33.6658L90.9524 47.9924Z" fill="#FFD69F"/>
<path d="M55.7555 33.5248C55.4495 38.2732 53.4259 43.3554 52.9844 47.9924H28.3191L39.4053 33.6658C44.8474 33.395 50.3117 33.5415 55.7555 33.5248Z" fill="#FFD69F"/>
<path d="M63.5161 33.5251C63.8704 38.4014 65.3598 43.146 66.0108 47.9927V48.2709C61.6724 48.2709 57.3229 48.2709 52.9845 48.2709C52.9919 48.1782 52.9752 48.0836 52.9845 47.9927C53.4278 43.3556 55.4514 38.2734 55.7556 33.5251C58.3375 33.5177 60.9323 33.5177 63.5161 33.5251Z" fill="#ECB56D"/>
<path d="M90.9527 47.9922L91.2309 48.2704H66.2874H66.011V47.9922H90.9527Z" fill="#FEDAC7"/>
<path d="M66.2872 48.2704H66.0108C61.6724 48.2704 57.3228 48.2704 52.9844 48.2704C45.3704 48.2704 37.7323 48.3706 30.1164 48.276C29.6471 48.2704 28.8829 48.454 28.5954 47.9922H28.3191C28.23 48.2296 27.8739 48.4911 28.0223 48.9344L28.0408 87.4998H91.2289V48.2704H66.2872Z" fill="#FFC77D"/>
<path d="M52.9846 47.9922C52.9753 48.0831 52.992 48.1777 52.9846 48.2704C45.3706 48.2704 37.7324 48.3706 30.1165 48.276C29.6473 48.2704 28.8831 48.454 28.5956 47.9922H52.9846Z" fill="#FEDAC7"/>
<path d="M86.25 60.5C95.7769 60.5 103.5 52.7769 103.5 43.25C103.5 33.7231 95.7769 26 86.25 26C76.7231 26 69 33.7231 69 43.25C69 52.7769 76.7231 60.5 86.25 60.5Z" fill="url(#paint0_linear_11087_18969)"/>
<path d="M96.3125 44.6875H87.6875V53.3125H84.8125V44.6875H76.1875V41.8125H84.8125V33.1875H87.6875V41.8125H96.3125V44.6875Z" fill="white"/>
</g>
<defs>
<linearGradient id="paint0_linear_11087_18969" x1="78.7031" y1="32.1094" x2="95.2344" y2="56.1875" gradientUnits="userSpaceOnUse">
<stop stop-color="#FF8120"/>
<stop offset="1" stop-color="#E54304"/>
</linearGradient>
</defs>
</svg>
