<svg width="36" height="36" viewBox="0 0 36 36" fill="none" xmlns="http://www.w3.org/2000/svg">
<g id="_&#235;&#160;&#136;&#236;&#157;&#180;&#236;&#150;&#180;_5">
<g id="Clip path group">
<mask id="mask0_6934_21467" style="mask-type:luminance" maskUnits="userSpaceOnUse" x="0" y="4" width="37" height="33">
<g id="clippath">
<path id="Vector" d="M37 4.45703H0V36.7103H37V4.45703Z" fill="white"/>
</g>
</mask>
<g mask="url(#mask0_6934_21467)">
<g id="Group">
<g id="Group_2">
<g id="Group_3">
<path id="Vector_2" d="M-0.792328 7.00207L9.82106 9.99629C9.82106 9.99629 11.6914 10.4124 13.0498 9.87967C13.0498 9.87967 15.981 8.75623 16.8086 8.99361C16.8086 8.99361 19.6928 9.30208 20.5272 9.33451C20.5272 9.33451 22.0173 10.0936 23.0606 10.2723C23.0606 10.2723 23.8883 10.5104 23.8923 10.5111C24.0623 10.5601 23.9857 11.1936 23.9514 11.2915C23.7304 11.9319 23.0834 12.0727 22.4976 12.0354C22.1819 12.0154 21.8661 11.9609 21.5537 11.9092C21.283 11.8636 20.9329 11.718 20.6615 11.7304C20.6615 11.7304 19.9984 11.7615 19.4744 11.9699C19.3575 12.0161 21.5356 12.386 22.9753 12.9187C22.9753 12.9187 24.3404 13.0885 25.412 13.0015C25.412 13.0015 27.0727 12.7193 28.0166 13.5515C28.0166 13.5515 29.3757 13.5715 29.4214 14.5549C29.4214 14.5549 29.1775 14.8785 28.3438 14.8461C28.3438 14.8461 29.762 15.4403 28.282 16.1345L27.4919 16.5319C27.4919 16.5319 28.4707 16.8942 27.6377 17.4139L25.6625 18.4082C25.6625 18.4082 24.6662 19.3005 22.5278 19.4751C22.5278 19.4751 18.8463 19.1321 17.2567 19.0272C17.2567 19.0272 13.1835 17.6575 9.75657 16.1131C9.75657 16.1131 8.07903 15.147 6.26714 15.3043L-0.500092 15.5L-0.791656 7L-0.792328 7.00207Z" fill="url(#paint0_linear_6934_21467)"/>
<path id="Vector_3" d="M19.4755 11.9717C19.4755 11.9717 18.4946 12.3685 17.5413 12.6921C17.069 12.8529 15.4298 13.2166 14.977 13.3132C14.977 13.3132 13.8732 13.6982 15.7456 13.4664C15.7456 13.4664 17.2027 13.1765 17.6246 13.0227C18.1876 12.817 19.5151 12.2049 19.4755 11.9717Z" fill="url(#paint1_linear_6934_21467)"/>
<path id="Vector_4" d="M25.7276 18.3349C25.7276 18.3349 25.8109 17.4233 24.4692 17.747L22.9039 17.9768C22.9039 17.9768 21.1975 17.6235 20.5364 17.4855C20.5364 17.4855 19.6913 17.4116 19.346 17.3737C19.346 17.3737 18.965 17.226 18.912 17.3302C18.824 17.5027 19.1343 17.4482 19.5771 17.609L20.4686 17.7456C20.4686 17.7456 22.1212 18.1307 22.9818 18.1728C22.9818 18.1728 24.5203 17.9395 24.8119 17.8905C24.8119 17.8905 25.5173 17.7366 25.7282 18.3349H25.7276Z" fill="url(#paint2_linear_6934_21467)"/>
<path id="Vector_5" d="M27.4914 16.534C27.2844 16.4263 27.101 16.3421 26.7262 16.4325L24.3204 16.6396L22.9573 16.5885C22.9573 16.5885 21.9542 16.3849 21.2932 16.2469C21.2932 16.2469 20.3983 16.1379 20.0523 16.0999C20.0523 16.0999 19.6714 15.9529 19.6183 16.0565C19.5303 16.229 19.8407 16.1745 20.2834 16.3352L21.1749 16.4726C21.1749 16.4726 22.1746 16.7431 23.0345 16.7852C23.0345 16.7852 23.2267 16.8625 24.3365 16.8273C25.1729 16.801 27.0083 16.5616 27.134 16.5409C27.134 16.5409 27.568 16.574 27.4914 16.534Z" fill="url(#paint3_linear_6934_21467)"/>
<path id="Vector_6" d="M28.4654 14.9038C28.3116 14.7506 27.8171 14.7513 27.3018 14.8748L25.2521 14.997L23.889 14.9459C23.889 14.9459 22.886 14.7424 22.2249 14.6043C22.2249 14.6043 21.33 14.4953 20.9841 14.4574C20.9841 14.4574 20.6031 14.3104 20.5501 14.4139C20.4627 14.5864 20.7724 14.5319 21.2152 14.6927L22.1067 14.8293C22.1067 14.8293 23.1063 15.0998 23.9663 15.1419C23.9663 15.1419 24.1584 15.2192 25.2682 15.184C26.1047 15.1578 27.8749 14.9542 28.0005 14.9335C28.0005 14.9335 28.4896 14.928 28.4648 14.9031L28.4654 14.9038Z" fill="url(#paint4_linear_6934_21467)"/>
<path id="Vector_7" d="M28.0169 13.5535C28.0169 13.5535 26.8258 13.4348 25.99 13.6605C25.99 13.6605 25.157 13.7005 24.6316 13.7785C24.6316 13.7785 22.2722 13.39 21.6655 13.4169C21.6655 13.4169 21.5043 13.3941 21.4163 13.4776C21.4163 13.4776 21.4553 13.5563 21.9658 13.5887L24.4207 13.9179L26.0209 13.7944C26.0209 13.7944 27.8637 13.5611 28.0162 13.5535H28.0169Z" fill="url(#paint5_linear_6934_21467)"/>
<path id="Vector_8" d="M23.9468 10.4507C23.9468 10.4507 22.8101 10.0118 22.6139 10.2354C22.6139 10.2354 22.4594 10.4672 23.3878 10.6177C23.3878 10.6177 23.805 10.706 23.9058 10.677C23.9058 10.677 24.0906 10.6315 23.9475 10.4507H23.9468Z" fill="url(#paint6_linear_6934_21467)"/>
</g>
<g id="Group_4">
<path id="Vector_9" d="M35.4306 15.6227C33.9564 12.0956 30.1064 10.5221 26.8293 12.1088L25.3052 12.8457L25.18 12.9059L25.123 12.7691L24.4393 11.132C22.9661 7.60495 19.1151 6.03141 15.839 7.61809C12.5618 9.20368 11.1008 13.3472 12.574 16.8743C14.2548 20.8974 15.1624 23.7335 15.5001 28.1639C15.5144 28.3468 15.5948 29.755 15.3618 31C16.8238 30.9452 20.4225 30.5149 22.0748 30.0046C25.24 29.0268 27.4316 28.4716 30.2794 26.6593C33.0092 24.9227 36.154 22.2421 35.9943 18.4621C35.9556 17.5521 35.7786 16.4593 35.4296 15.6227H35.4306Z" fill="#FF6767"/>
</g>
<g id="Group_5">
<path id="Vector_10" d="M-0.500092 19.5L7.57937 21.1065C7.57937 21.1065 10.8417 20.9899 12.6959 20.3771C12.6959 20.3771 14.79 19.9686 17.2462 21.1196L18.6006 21.5868C18.6006 21.5868 21.404 23.0021 22.5435 23.3499C22.5435 23.3499 23.9133 23.8985 23.9227 23.902C24.2351 24.0269 23.9932 24.7445 23.8669 24.8936C23.2186 25.6596 21.6607 25.1386 20.8726 24.9088C20.5596 24.8177 20.2566 24.6162 19.9388 24.5548C19.6694 24.503 18.9707 24.5327 18.7228 24.6569C18.7228 24.6569 17.6976 25.1724 20.8061 27.3289C20.8061 27.3289 22.7322 27.8995 23.7843 28.4123C23.7843 28.4123 26.1565 27.8726 27.1098 28.0445C27.1098 28.0445 28.1169 28.2467 27.8952 29.1962L27.6096 29.4563C27.6096 29.4563 28.3191 29.4853 27.9919 30.154C27.8817 30.379 27.1367 30.5225 26.7813 30.6509L25.8643 31.0704C25.8643 31.0704 25.091 32.1421 24.3486 32.2297C24.3486 32.2297 23.8293 32.3595 23.2099 32.512C23.1226 32.5334 22.4971 32.768 22.4071 32.7901C21.6956 32.9654 21.5055 33.0316 21.2388 32.9861C21.2388 32.9861 19.3147 32.7156 17.877 32.2739C17.877 32.2739 15.9865 31.4051 14.0577 30.2762C14.0577 30.2762 9.33685 27.0176 7.27235 27.371L-4.00009 27.8933L-0.500092 19.5Z" fill="url(#paint7_linear_6934_21467)"/>
<path id="Vector_11" d="M27.7555 29.2263C27.7555 29.2263 25.7011 29.6914 25.1932 29.7473L24.426 29.8757C24.426 29.8757 23.4848 30.1372 22.6134 29.6645C22.6134 29.6645 20.3917 28.8061 19.7166 28.7529C19.7166 28.7529 19.21 28.8206 19.7394 29.0276C19.7394 29.0276 22.0095 29.5983 22.3998 29.8557C22.3998 29.8557 23.3867 30.2821 24.2708 30.12L27.6084 29.4554L27.7549 29.227L27.7555 29.2263Z" fill="url(#paint8_linear_6934_21467)"/>
<path id="Vector_12" d="M26.057 30.9565C26.057 30.9565 24.4346 31.1284 23.7292 31.2581C23.7292 31.2581 23.0426 31.3409 22.3002 31.1284C22.3002 31.1284 19.8938 30.3569 19.4081 30.332C19.4081 30.332 19.2307 30.3507 19.1581 30.4273C19.1581 30.4273 19.0957 30.5653 19.5095 30.6032L22.1377 31.3982C22.1377 31.3982 23.2522 31.637 23.752 31.5321L25.8629 31.0683L26.057 30.9565Z" fill="url(#paint9_linear_6934_21467)"/>
<path id="Vector_13" d="M23.5606 32.4054C23.5606 32.4054 22.358 32.4744 21.3832 32.2612C21.3832 32.2612 19.6472 31.6429 19.2959 31.5366C19.2959 31.5366 19.1152 31.4828 19.0399 31.5366C18.9492 31.6008 19.0567 31.7202 19.2509 31.7733L20.5958 32.3433C20.5958 32.3433 21.2824 32.5338 21.4826 32.5476L22.8061 32.5703L23.5606 32.4061V32.4054Z" fill="url(#paint10_linear_6934_21467)"/>
<path id="Vector_14" d="M24.0227 23.9276C24.0227 23.9276 23.0291 23.3211 22.8127 23.5239C22.8127 23.5239 22.4835 23.8345 22.6441 24.0643C22.722 24.1754 22.9068 24.2948 23.285 24.4031C23.285 24.4031 23.6921 24.5328 23.7949 24.5135C23.7949 24.5135 24.1933 24.2506 24.0227 23.9276Z" fill="url(#paint11_linear_6934_21467)"/>
<path id="Vector_15" d="M27.9154 28.833C27.9154 28.833 26.8277 28.844 26.7532 29.0856C26.7532 29.0856 26.4764 29.5879 27.4559 29.3299C27.4559 29.3299 27.9208 29.2243 27.988 29.1663C27.988 29.1663 28.086 28.9206 27.9154 28.833Z" fill="url(#paint12_linear_6934_21467)"/>
<path id="Vector_16" d="M27.926 29.8955C27.926 29.8955 26.8484 30.048 26.8047 30.2971C26.8047 30.2971 26.5924 30.8319 27.5316 30.4476C27.5316 30.4476 27.9804 30.2826 28.0395 30.2164C28.0395 30.2164 28.1067 29.9597 27.926 29.8955Z" fill="url(#paint13_linear_6934_21467)"/>
</g>
</g>
</g>
</g>
</g>
</g>
<defs>
<linearGradient id="paint0_linear_6934_21467" x1="13.5589" y1="8.2632" x2="16.577" y2="20.65" gradientUnits="userSpaceOnUse">
<stop stop-color="#FDCABA"/>
<stop offset="1" stop-color="#FDCABA"/>
</linearGradient>
<linearGradient id="paint1_linear_6934_21467" x1="21.56" y1="11.411" x2="13.2404" y2="14.0473" gradientUnits="userSpaceOnUse">
<stop stop-color="#FFA5A0"/>
</linearGradient>
<linearGradient id="paint2_linear_6934_21467" x1="32.4484" y1="19.169" x2="15.7404" y2="16.8561" gradientUnits="userSpaceOnUse">
<stop stop-color="#FFA5A0"/>
</linearGradient>
<linearGradient id="paint3_linear_6934_21467" x1="32.6497" y1="17.7142" x2="15.9417" y2="15.4012" gradientUnits="userSpaceOnUse">
<stop stop-color="#FFA5A0"/>
</linearGradient>
<linearGradient id="paint4_linear_6934_21467" x1="32.8898" y1="15.9806" x2="16.1821" y2="13.6683" gradientUnits="userSpaceOnUse">
<stop stop-color="#FFA5A0"/>
</linearGradient>
<linearGradient id="paint5_linear_6934_21467" x1="33.2124" y1="14.7793" x2="16.003" y2="12.3971" gradientUnits="userSpaceOnUse">
<stop stop-color="#FFA5A0"/>
</linearGradient>
<linearGradient id="paint6_linear_6934_21467" x1="25.8304" y1="10.8967" x2="23.1603" y2="10.4208" gradientUnits="userSpaceOnUse">
<stop stop-color="#FFC9C0"/>
<stop offset="1" stop-color="#FFF0EE"/>
</linearGradient>
<linearGradient id="paint7_linear_6934_21467" x1="8.69625" y1="22.3713" x2="16.9258" y2="36.538" gradientUnits="userSpaceOnUse">
<stop stop-color="#FDCABA"/>
<stop offset="1" stop-color="#FDCABA"/>
</linearGradient>
<linearGradient id="paint8_linear_6934_21467" x1="30.5471" y1="31.0944" x2="17.4652" y2="27.5986" gradientUnits="userSpaceOnUse">
<stop stop-color="#FFA5A0"/>
<stop offset="1" stop-color="#FFA5A0"/>
</linearGradient>
<linearGradient id="paint9_linear_6934_21467" x1="28.4433" y1="32.4012" x2="17.4224" y2="29.4558" gradientUnits="userSpaceOnUse">
<stop stop-color="#FFA5A0"/>
</linearGradient>
<linearGradient id="paint10_linear_6934_21467" x1="25.2124" y1="33.2559" x2="17.7411" y2="31.2596" gradientUnits="userSpaceOnUse">
<stop stop-color="#FFA5A0"/>
</linearGradient>
<linearGradient id="paint11_linear_6934_21467" x1="26.4472" y1="25.5666" x2="23.3176" y2="24.0928" gradientUnits="userSpaceOnUse">
<stop stop-color="#FFC9C0"/>
<stop offset="1" stop-color="#FFF0EE"/>
</linearGradient>
<linearGradient id="paint12_linear_6934_21467" x1="30.9872" y1="28.6224" x2="26.4384" y2="29.2069" gradientUnits="userSpaceOnUse">
<stop stop-color="#FFC9C0"/>
<stop offset="1" stop-color="#FFF0EE"/>
</linearGradient>
<linearGradient id="paint13_linear_6934_21467" x1="30.99" y1="29.2799" x2="26.5429" y2="30.4244" gradientUnits="userSpaceOnUse">
<stop stop-color="#FFC9C0"/>
<stop offset="1" stop-color="#FFF0EE"/>
</linearGradient>
</defs>
</svg>
