<svg width="36" height="31" viewBox="0 0 36 31" fill="none" xmlns="http://www.w3.org/2000/svg">
<g id="Layer_1" clip-path="url(#clip0_771_1357)">
<path id="Vector" d="M33.2604 1.19141H28.6184C27.8448 1.19141 27.1642 1.71076 26.9672 2.45935L23.1562 16.7291L25.3232 17.5278L29.0733 3.48374H33.4144C34.0054 3.48374 34.4854 3.00378 34.4854 2.41279C34.4854 1.73942 33.9374 1.19141 33.264 1.19141H33.2604Z" fill="white" stroke="#1A1A1A" stroke-width="1.07453" stroke-linecap="round" stroke-linejoin="round"/>
<path id="Vector_2" d="M22.4839 19.972H7.08594V18.7148C7.08594 17.6187 7.97422 16.7305 9.07024 16.7305H22.4839V19.972Z" fill="white" stroke="#1A1A1A" stroke-width="1.07453" stroke-linecap="round" stroke-linejoin="round"/>
<path id="Vector_3" d="M30.1492 20.1449C30.1492 25.2633 26.0016 29.411 20.8832 29.411C15.7649 29.411 11.6172 25.2633 11.6172 20.1449C11.6172 15.0266 15.7649 10.8789 20.8832 10.8789C26.0016 10.8789 30.1492 15.0266 30.1492 20.1449Z" fill="white" stroke="#1A1A1A" stroke-width="1.07453" stroke-linecap="round" stroke-linejoin="round"/>
<path id="Vector_4" d="M30.1492 20.1449C30.1492 25.2633 26.0016 29.411 20.8832 29.411C15.7649 29.411 11.6172 25.2633 11.6172 20.1449C11.6172 15.0266 15.7649 10.8789 20.8832 10.8789C26.0016 10.8789 30.1492 15.0266 30.1492 20.1449Z" fill="#FFC77D" stroke="#1A1A1A" stroke-width="1.07453" stroke-linecap="round" stroke-linejoin="round"/>
<path id="Vector_5" d="M20.8899 25.6705C23.9422 25.6705 26.4166 23.1961 26.4166 20.1439C26.4166 17.0916 23.9422 14.6172 20.8899 14.6172C17.8377 14.6172 15.3633 17.0916 15.3633 20.1439C15.3633 23.1961 17.8377 25.6705 20.8899 25.6705Z" fill="white" stroke="#1A1A1A" stroke-width="1.07453" stroke-linecap="round" stroke-linejoin="round"/>
<path id="Vector_6" d="M7.08534 19.5938L4.66406 27.6778" stroke="#1A1A1A" stroke-width="1.07453" stroke-linecap="round" stroke-linejoin="round"/>
<path id="Vector_7" d="M7.04826 27.4362C7.04826 28.7543 5.98089 29.8217 4.6628 29.8217C3.34471 29.8217 2.27734 28.7543 2.27734 27.4362C2.27734 26.1181 3.34471 25.0508 4.6628 25.0508C5.98089 25.0508 7.04826 26.1181 7.04826 27.4362Z" fill="#FFC77D" stroke="#1A1A1A" stroke-width="1.07453" stroke-linecap="round" stroke-linejoin="round"/>
<path id="Vector_8" d="M5.5126 25.0508H1.33984" stroke="#1A1A1A" stroke-width="1.07453" stroke-linecap="round" stroke-linejoin="round"/>
</g>
<defs>
<clipPath id="clip0_771_1357">
<rect width="34.213" height="29.7" fill="white" transform="translate(0.804688 0.660156)"/>
</clipPath>
</defs>
</svg>
