<svg width="16" height="15" viewBox="0 0 16 15" fill="none" xmlns="http://www.w3.org/2000/svg">
<g id="naver.svg" clip-path="url(#clip0_8779_230)">
<path id="path4" d="M13.3804 11.0544C13.1717 11.5365 12.9247 11.9803 12.6385 12.3883C12.2483 12.9446 11.9289 13.3296 11.6827 13.5434C11.3011 13.8944 10.8922 14.0741 10.4544 14.0843C10.14 14.0843 9.76099 13.9949 9.31974 13.8134C8.87705 13.6328 8.47021 13.5434 8.09822 13.5434C7.70809 13.5434 7.28967 13.6328 6.84212 13.8134C6.39389 13.9949 6.0328 14.0894 5.75672 14.0988C5.33686 14.1167 4.91836 13.9318 4.50062 13.5434C4.234 13.3109 3.90051 12.9122 3.501 12.3474C3.07236 11.7443 2.71996 11.045 2.44389 10.2477C2.14822 9.3865 2 8.55256 2 7.7452C2 6.82037 2.19984 6.02272 2.60011 5.3543C2.91469 4.81739 3.33319 4.39386 3.85698 4.08295C4.38077 3.77203 4.94672 3.61359 5.5562 3.60345C5.88969 3.60345 6.32702 3.70661 6.87049 3.90934C7.41242 4.11276 7.76039 4.21592 7.91295 4.21592C8.02701 4.21592 8.41357 4.0953 9.06888 3.85483C9.68858 3.63182 10.2116 3.53948 10.6401 3.57585C11.8011 3.66956 12.6734 4.12724 13.2535 4.95181C12.2151 5.58097 11.7014 6.46218 11.7117 7.59264C11.721 8.47317 12.0405 9.20591 12.6683 9.78771C12.9528 10.0577 13.2705 10.2664 13.624 10.4146C13.5474 10.637 13.4664 10.8499 13.3804 11.0544V11.0544ZM10.7176 0.576066C10.7176 1.26622 10.4654 1.91062 9.96287 2.50707C9.35637 3.21613 8.62278 3.62586 7.82726 3.5612C7.81712 3.47841 7.81124 3.39126 7.81124 3.29969C7.81124 2.63714 8.09967 1.92808 8.61187 1.34833C8.86759 1.05479 9.19282 0.810718 9.58721 0.616016C9.98076 0.424219 10.353 0.318151 10.7031 0.299988C10.7133 0.392251 10.7176 0.48452 10.7176 0.576057V0.576066Z" fill="white"/>
</g>
<defs>
<clipPath id="clip0_8779_230">
<rect width="14.37" height="14.37" fill="white" transform="translate(0.815063 0.315002)"/>
</clipPath>
</defs>
</svg>
