<svg width="36" height="36" viewBox="0 0 36 36" fill="none" xmlns="http://www.w3.org/2000/svg">
<g id="_&#234;&#178;&#169;&#235;&#166;&#172;_&#235;&#170;&#168;&#235;&#147;&#156;" clip-path="url(#clip0_6934_18142)">
<g id="Group">
<path id="Vector" d="M11.2401 8.16504C14.784 8.16504 16.4255 10.7395 17.2408 12.2752C18.0561 10.7395 19.6976 8.16504 23.2415 8.16504C26.7854 8.16504 29.4596 10.5927 29.4596 14.5448C29.4596 18.4968 27.3941 21.873 24.9482 24.4475C22.6436 26.8752 19.1867 29.3255 17.2516 29.3255C15.3166 29.3255 11.8597 26.8752 9.5551 24.4475C7.09829 21.873 5.0437 18.3839 5.0437 14.5448C5.0437 10.7056 7.69619 8.16504 11.2401 8.16504Z" fill="#FF6767"/>
<path id="Vector_2" d="M11.2291 19.5381H10.5724C10.2291 19.5381 9.94553 19.2641 9.94553 18.9324V18.6295C9.94553 18.2978 10.2291 18.0238 10.5724 18.0238C10.9754 18.0238 11.2739 17.6632 11.1843 17.2882L10.3336 13.8269C10.244 13.4519 10.5425 13.0913 10.9455 13.0913H11.9157C12.2142 13.0913 12.4679 13.2933 12.5276 13.5673L13.3783 17.5478C13.438 17.8219 13.6918 18.0238 13.9903 18.0238H14.5425C14.841 18.0238 15.0798 17.8219 15.1544 17.5478L16.0947 13.5384C16.1544 13.2644 16.4082 13.0625 16.7067 13.0625H17.8112C18.0947 13.0625 18.3485 13.25 18.4231 13.524L19.3783 17.5334C19.438 17.8074 19.6917 17.9949 19.9902 17.9949H20.5574C20.8559 17.9949 21.1096 17.793 21.1693 17.519L22.0201 13.5384C22.0798 13.2644 22.3335 13.0625 22.632 13.0625H23.5574C23.9604 13.0625 24.2589 13.4231 24.1693 13.798L23.3186 17.2594C23.229 17.6344 23.5275 17.9949 23.9305 17.9949C24.2738 17.9949 24.5574 18.269 24.5574 18.6007V18.9035C24.5574 19.2352 24.2738 19.5093 23.9305 19.5093H23.2738C22.9902 19.5093 22.7365 19.6968 22.6619 19.9708L21.6768 23.9658C21.6171 24.2398 21.3634 24.4273 21.0649 24.4273H19.6917C19.3932 24.4273 19.1544 24.2254 19.0798 23.9513L18.1544 19.9708C18.0947 19.6968 17.841 19.4948 17.5425 19.4948H16.9455C16.647 19.4948 16.4082 19.6968 16.3335 19.9708L15.4082 23.9513C15.3485 24.2254 15.0947 24.4273 14.7962 24.4273H13.4231C13.1395 24.4273 12.8858 24.2398 12.8112 23.9658L11.8261 19.9708C11.7664 19.6968 11.5127 19.5093 11.2142 19.5093L11.2291 19.5381ZM14.1694 21.3121H14.2739L14.6918 19.5381H13.7962L14.1843 21.3121H14.1694ZM17.6768 18.0382L17.2888 16.3941H17.1843L16.7962 18.0382H17.6619H17.6768ZM20.2589 21.3121H20.3634L20.7514 19.5381H19.8559L20.2738 21.3121H20.2589Z" fill="white"/>
</g>
<path id="Vector_3" d="M27.3513 25.1733L25.177 27.3477L28.4716 30.6422L30.6459 28.4679L27.3513 25.1733Z" fill="#2A2A33"/>
<path id="Vector_4" d="M27.8795 30.4674L30.4683 27.8786L35.4301 32.8404C35.7448 33.1551 35.42 33.9903 34.7049 34.7054C33.9899 35.4204 33.1546 35.7452 32.84 35.4305L27.8782 30.4688L27.8795 30.4674Z" fill="#3F404F"/>
<path id="Subtract" fill-rule="evenodd" clip-rule="evenodd" d="M32.4397 16.9189C32.4397 25.3068 25.64 32.1064 17.2522 32.1064C8.86437 32.1064 2.0647 25.3068 2.0647 16.9189C2.0647 8.53112 8.86437 1.73145 17.2522 1.73145C25.64 1.73145 32.4397 8.53112 32.4397 16.9189ZM30.1191 16.9189C30.1191 24.0251 24.3584 29.7859 17.2522 29.7859C10.146 29.7859 4.38528 24.0251 4.38528 16.9189C4.38528 9.81275 10.146 4.05203 17.2522 4.05203C24.3584 4.05203 30.1191 9.81275 30.1191 16.9189Z" fill="#3F404F"/>
<path id="Vector_5" d="M17.2519 29.7856C24.3581 29.7856 30.1188 24.0249 30.1188 16.9187C30.1188 9.81247 24.3581 4.05176 17.2519 4.05176C10.1457 4.05176 4.38501 9.81247 4.38501 16.9187C4.38501 24.0249 10.1457 29.7856 17.2519 29.7856Z" fill="#ECF4FD" fill-opacity="0.25"/>
<path id="Vector_6" d="M26.3498 26.0169C31.3746 20.992 31.3746 12.8452 26.3498 7.82031C21.3249 2.79547 13.178 2.79547 8.1532 7.82031L26.3498 26.0169Z" fill="#ECF4FD" fill-opacity="0.5"/>
</g>
<defs>
<clipPath id="clip0_6934_18142">
<rect width="36" height="36" fill="white"/>
</clipPath>
</defs>
</svg>
