<svg width="28" height="31" viewBox="0 0 28 31" fill="none" xmlns="http://www.w3.org/2000/svg">
<rect x="0.888229" y="1.27002" width="21.5" height="28.5" rx="2.25" fill="white" stroke="#BDBDBD" stroke-width="1.5"/>
<path d="M20.3477 5.63617C21.1999 5.52586 22.0511 5.51708 22.9033 5.64105C23.9029 5.89779 24.8372 6.29509 25.6191 6.98623C27.4787 8.63305 28.2323 10.7006 27.6896 13.1245C27.1429 15.5708 25.5791 17.1405 23.1679 17.8462C23.0781 17.8726 22.9678 17.8257 22.8985 17.9214C22.0472 18.0825 21.194 18.0268 20.3399 17.9487C20.2745 17.9195 20.212 17.8794 20.1447 17.8628C17.0472 17.0936 14.9231 14.0909 15.4551 10.7836C15.7157 9.16409 16.5006 7.84722 17.7979 6.8398C18.5593 6.24824 19.4223 5.87729 20.3477 5.63617ZM25.3418 10.3365C25.2784 10.2642 25.2267 10.1979 25.1691 10.1393C24.8694 9.83668 24.557 9.54578 24.271 9.23047C24.0972 9.03816 23.9908 9.05281 23.8141 9.23438C23.0244 10.0446 22.2142 10.8353 21.4244 11.6455C21.2438 11.831 21.1452 11.8691 20.948 11.6573C20.4502 11.1233 19.9182 10.6225 19.4096 10.0983C19.2622 9.94699 19.1655 9.90794 19.0035 10.0846C18.6999 10.4165 18.3758 10.7299 18.0507 11.0413C17.9209 11.1662 17.8955 11.2512 18.039 11.3937C19.0328 12.3787 20.0207 13.3695 21.0047 14.3652C21.1374 14.4999 21.2185 14.5058 21.3541 14.3681C22.6281 13.0786 23.9098 11.7949 25.1876 10.5093C25.2374 10.4595 25.2813 10.4029 25.3409 10.3365H25.3418Z" fill="#EE6002"/>
<path d="M25.3418 10.3365C25.2822 10.4039 25.2383 10.4595 25.1885 10.5093C23.9097 11.7949 22.6289 13.0786 21.355 14.3681C21.2184 14.5058 21.1383 14.4999 21.0056 14.3652C20.0216 13.3695 19.0337 12.3787 18.0399 11.3937C17.8964 11.2522 17.9218 11.1663 18.0516 11.0413C18.3767 10.7299 18.6998 10.4156 19.0044 10.0846C19.1664 9.90796 19.2631 9.947 19.4105 10.0983C19.9181 10.6225 20.4511 11.1233 20.9489 11.6573C21.1461 11.8691 21.2447 11.831 21.4253 11.6456C22.215 10.8344 23.0253 10.0446 23.815 9.23439C23.9917 9.05282 24.0981 9.03818 24.2719 9.23049C24.5569 9.54579 24.8703 9.83669 25.1699 10.1393C25.2285 10.1979 25.2793 10.2633 25.3427 10.3365H25.3418Z" fill="#FEFEFE"/>
<path fill-rule="evenodd" clip-rule="evenodd" d="M9.18893 10.5327C8.87708 10.5327 8.56523 10.5321 8.2534 10.5315H8.25339C7.43488 10.53 6.61651 10.5284 5.79865 10.5376C5.52825 10.5405 5.4072 10.4907 5.41989 10.1813C5.44527 9.57312 5.43942 8.96398 5.42184 8.35484C5.41404 8.0903 5.5097 8.02977 5.75765 8.03075C7.09404 8.04149 8.43141 8.04149 9.7678 8.03368C10.702 8.0288 11.6372 8.01513 12.5714 7.98487C12.8496 7.97608 12.9228 8.06492 12.914 8.33532C12.8945 8.95617 12.8896 9.578 12.916 10.1979C12.9287 10.5044 12.8145 10.5542 12.5441 10.5512C11.7244 10.5412 10.9048 10.5428 10.0848 10.5443L10.0846 10.5443C9.78641 10.5448 9.48819 10.5454 9.1899 10.5454V10.5307L9.18893 10.5327ZM11.574 18.0012C11.1877 18.0009 10.8014 18.0005 10.4152 18.0005L10.4161 18.0015V18.0132C10.0565 18.0132 9.6969 18.0134 9.33733 18.0135H9.33725H9.33716C8.13915 18.014 6.94144 18.0145 5.74315 18.0093C5.51961 18.0083 5.41516 18.0522 5.42199 18.308C5.43859 18.9415 5.43371 19.5761 5.42394 20.2096C5.42004 20.4195 5.46885 20.5112 5.70411 20.5112C8.84351 20.5122 11.9819 20.5191 15.1213 20.5347C15.3605 20.5356 15.4015 20.4419 15.3986 20.233C15.3888 19.5995 15.379 18.965 15.4025 18.3314C15.4122 18.0454 15.3136 17.9927 15.051 17.9946C13.892 18.0034 12.733 18.0023 11.574 18.0012ZM11.6313 25.522C11.1449 25.522 10.6586 25.5216 10.1723 25.5212H10.1722H10.1721C8.71265 25.5201 7.25345 25.519 5.79371 25.5278C5.4989 25.5298 5.38469 25.4595 5.39835 25.1452C5.42276 24.5731 5.42276 23.9991 5.39835 23.4271C5.38469 23.0991 5.47254 22.9927 5.81909 22.9937C8.58337 23.007 11.3477 23.0041 14.1119 23.0013L14.9415 23.0005C15.8171 23.0005 16.6928 22.9966 17.5674 22.9771C17.8222 22.9712 17.9042 23.0483 17.8974 23.3051C17.8808 23.9386 17.8779 24.5731 17.8984 25.2057C17.9081 25.4907 17.8056 25.5483 17.542 25.5474C16.0098 25.5398 14.477 25.5404 12.9445 25.5411H12.9444H12.9444C12.5066 25.5413 12.0689 25.5415 11.6313 25.5415V25.522ZM8.26079 15.5179C8.5656 15.5185 8.87042 15.519 9.17524 15.519V15.5259C9.47313 15.5259 9.77109 15.5255 10.0691 15.5251C10.9137 15.5239 11.7586 15.5228 12.6036 15.5308C12.8359 15.5327 12.9199 15.4761 12.913 15.2301C12.8964 14.5848 12.8984 13.9386 12.913 13.2933C12.9179 13.0659 12.8457 13.0024 12.6241 13.0073C11.8782 13.023 11.1315 13.0239 10.3856 13.0247C10.3417 13.0248 10.2978 13.0248 10.2539 13.0249C10.0403 13.0252 9.82672 13.0255 9.61311 13.0259C8.33121 13.0279 7.0493 13.0299 5.7674 13.019C5.49309 13.0171 5.41304 13.0942 5.42183 13.3675C5.44135 13.9767 5.43842 14.5858 5.42183 15.1949C5.41499 15.4488 5.48918 15.5278 5.7469 15.5249C6.58446 15.5149 7.42256 15.5164 8.26079 15.5179Z" fill="#CECECE"/>
</svg>
