<svg width="120" height="120" viewBox="0 0 120 120" fill="none" xmlns="http://www.w3.org/2000/svg">
<path d="M0 60C0 26.8629 26.8629 0 60 0C93.1371 0 120 26.8629 120 60C120 93.1371 93.1371 120 60 120C26.8629 120 0 93.1371 0 60Z" fill="#FFF5E6"/>
<g clip-path="url(#clip0_4967_826)">
<path d="M48.0529 27L60.2908 31.0184C61.0766 31.3523 61.3139 32.2752 60.7549 32.9344L51.4402 42.3158C49.2342 43.2229 49.257 38.9549 48.8404 37.6734C40.7281 41.5828 34.6777 50.4193 34.1047 59.4791C32.5965 83.3449 59.4313 97.3951 78.1133 82.3324C79.7797 80.9877 81.7063 78.3158 84.0565 80.6713C86.201 82.8176 84.1619 84.9023 82.5272 86.3578C78.5053 89.9367 73.0789 92.6314 67.8125 93.7582L63.5779 94.4578C61.7744 94.3594 59.8373 94.5897 58.0514 94.4578C47.7471 93.6967 37.6766 87.0504 32.5508 78.1611C22.8652 61.36 29.7858 39.8355 47.2426 31.8551C47.3903 30.2977 45.534 28.0441 47.2619 27H48.0512H48.0529Z" fill="url(#paint0_linear_4967_826)"/>
<path d="M87.6705 77.8676C89.3102 77.8676 90.6394 76.5368 90.6394 74.8951C90.6394 73.2535 89.3102 71.9227 87.6705 71.9227C86.0308 71.9227 84.7015 73.2535 84.7015 74.8951C84.7015 76.5368 86.0308 77.8676 87.6705 77.8676Z" fill="#E54304"/>
<path d="M90.5411 67.6178C92.1759 67.6178 93.5012 66.2909 93.5012 64.6541C93.5012 63.0173 92.1759 61.6904 90.5411 61.6904C88.9062 61.6904 87.5809 63.0173 87.5809 64.6541C87.5809 66.2909 88.9062 67.6178 90.5411 67.6178Z" fill="#E64505"/>
<path d="M85.1218 47.417C86.7557 47.417 88.0802 46.0901 88.0802 44.4533C88.0802 42.8165 86.7557 41.4896 85.1218 41.4896C83.488 41.4896 82.1635 42.8165 82.1635 44.4533C82.1635 46.0901 83.488 47.417 85.1218 47.417Z" fill="#F56916"/>
<path d="M77.5139 39.9955C79.1449 39.9955 80.467 38.6718 80.467 37.0389C80.467 35.4059 79.1449 34.0822 77.5139 34.0822C75.8829 34.0822 74.5608 35.4059 74.5608 37.0389C74.5608 38.6718 75.8829 39.9955 77.5139 39.9955Z" fill="#FB781C"/>
<path d="M67.7879 35.7117C69.412 35.7117 70.7287 34.3935 70.7287 32.7674C70.7287 31.1413 69.412 29.8231 67.7879 29.8231C66.1637 29.8231 64.847 31.1413 64.847 32.7674C64.847 34.3935 66.1637 35.7117 67.7879 35.7117Z" fill="#FD7C1E"/>
<path d="M87.073 55.4906C89.3617 55.4414 90.5763 53.0596 89.6306 51.0943C91.0826 51.0732 92.3359 52.1086 92.5925 53.5412C92.8474 54.9738 92.03 56.3801 90.6607 56.8635C89.2914 57.3469 87.7726 56.7668 87.0748 55.4906H87.073Z" fill="#E84907"/>
<path d="M89.6307 51.0943C90.5764 53.0596 89.3617 55.4414 87.0731 55.4906C86.5738 54.5783 86.5879 53.4691 87.1117 52.5691C87.6356 51.6691 88.5918 51.1102 89.6307 51.0943Z" fill="#E84907"/>
</g>
<defs>
<linearGradient id="paint0_linear_4967_826" x1="44.1338" y1="38.9531" x2="78.0824" y2="80.585" gradientUnits="userSpaceOnUse">
<stop stop-color="#FF8120"/>
<stop offset="1" stop-color="#E54304"/>
</linearGradient>
<clipPath id="clip0_4967_826">
<rect width="66.5016" height="67.5" fill="white" transform="translate(26.9998 27)"/>
</clipPath>
</defs>
</svg>
