<svg width="120" height="120" viewBox="0 0 120 120" fill="none" xmlns="http://www.w3.org/2000/svg">
<path d="M0 60C0 26.8629 26.8629 0 60 0C93.1371 0 120 26.8629 120 60C120 93.1371 93.1371 120 60 120C26.8629 120 0 93.1371 0 60Z" fill="white"/>
<path d="M34.6963 31.7059C34.6963 29.6754 36.3424 28.0293 38.3729 28.0293H66.6039C66.7122 28.0293 66.8149 28.077 66.8848 28.1597L74.7712 37.4965L85.7072 49.7082C85.7676 49.7757 85.801 49.863 85.801 49.9535V88.3249C85.801 90.3555 84.1549 92.0015 82.1244 92.0015H38.3729C36.3423 92.0015 34.6963 90.3555 34.6963 88.3249V31.7059Z" fill="#FFD8A4"/>
<path d="M66.0988 71.8623L60 65.7635L53.9012 71.8623L51.8683 69.8293L57.9671 63.7305L51.8683 57.6317L53.9012 55.5988L60 61.6976L66.0988 55.5988L68.1317 57.6317L62.0329 63.7305L68.1317 69.8293L66.0988 71.8623Z" fill="white" fill-opacity="0.5"/>
<path d="M66.5898 44.9401V28.3668C66.5898 28.0265 67.0125 27.8723 67.2354 28.1296L85.7369 49.4839C85.9425 49.7212 85.7783 50.0903 85.4644 50.0921C80.3858 50.1221 71.2078 50.157 71.2775 50.0873C71.3694 49.9954 66.5898 50.2711 66.5898 44.9401Z" fill="#FFBF6B"/>
</svg>
