<svg width="150" height="151" viewBox="0 0 150 151" fill="none" xmlns="http://www.w3.org/2000/svg">
<path d="M0 75.5C0 34.0786 33.5786 0.5 75 0.5V0.5C116.421 0.5 150 34.0786 150 75.5V75.5C150 116.921 116.421 150.5 75 150.5V150.5C33.5786 150.5 0 116.921 0 75.5V75.5Z" fill="#EEEEEE"/>
<mask id="mask0_7076_15108" style="mask-type:alpha" maskUnits="userSpaceOnUse" x="0" y="0" width="150" height="151">
<path d="M0 75.5C0 34.0786 33.5786 0.5 75 0.5V0.5C116.421 0.5 150 34.0786 150 75.5V75.5C150 116.921 116.421 150.5 75 150.5V150.5C33.5786 150.5 0 116.921 0 75.5V75.5Z" fill="#EEEEEE"/>
</mask>
<g mask="url(#mask0_7076_15108)">
<path d="M120 151.5H30V54.5C34.242 54.4952 38.3089 52.808 41.3084 49.8085C44.308 46.8089 45.9952 42.742 46 38.5H104C103.996 40.6014 104.408 42.6828 105.213 44.6238C106.018 46.5648 107.2 48.3268 108.691 49.808C110.172 51.2991 111.934 52.4816 113.875 53.287C115.817 54.0924 117.898 54.5047 120 54.5V151.5Z" fill="white"/>
<path d="M75 103.499C88.2548 103.499 99 92.7539 99 79.499C99 66.2442 88.2548 55.499 75 55.499C61.7452 55.499 51 66.2442 51 79.499C51 92.7539 61.7452 103.499 75 103.499Z" fill="url(#paint0_linear_7076_15108)"/>
<path d="M83.4853 90.8139L75 82.3286L66.5147 90.8139L63.6863 87.9854L72.1716 79.5002L63.6863 71.0149L66.5147 68.1865L75 76.6717L83.4853 68.1865L86.3137 71.0149L77.8284 79.5002L86.3137 87.9854L83.4853 90.8139Z" fill="white"/>
<path d="M88 109.499H62C60.3431 109.499 59 110.842 59 112.499C59 114.156 60.3431 115.499 62 115.499H88C89.6568 115.499 91 114.156 91 112.499C91 110.842 89.6568 109.499 88 109.499Z" fill="#E0E0E0"/>
<path d="M97 121.5H53C51.3432 121.5 50 122.843 50 124.5C50 126.157 51.3432 127.5 53 127.5H97C98.6569 127.5 100 126.157 100 124.5C100 122.843 98.6569 121.5 97 121.5Z" fill="#E0E0E0"/>
</g>
<defs>
<linearGradient id="paint0_linear_7076_15108" x1="64.5" y1="63.999" x2="87.5" y2="97.499" gradientUnits="userSpaceOnUse">
<stop stop-color="#FF8120"/>
<stop offset="1" stop-color="#E54304"/>
</linearGradient>
</defs>
</svg>
