<svg width="151" height="151" viewBox="0 0 151 151" fill="none" xmlns="http://www.w3.org/2000/svg">
<path d="M0.5 75.5C0.5 34.0786 34.0786 0.5 75.5 0.5V0.5C116.921 0.5 150.5 34.0786 150.5 75.5V75.5C150.5 116.921 116.921 150.5 75.5 150.5V150.5C34.0786 150.5 0.5 116.921 0.5 75.5V75.5Z" fill="#FFF5E6"/>
<g clip-path="url(#clip0_3404_2438)">
<path d="M65.6081 69.6927C65.9078 70.1207 64.3489 74.2533 64.3935 75.1076C64.2062 75.2896 62.2924 74.7955 61.8537 74.7652C57.8067 74.4959 54.1307 75.7426 51.0665 78.3573C47.8275 81.1219 42.516 86.4352 39.7532 89.6778C31.0617 99.8746 39.6676 115.304 52.8893 113.177C59.0499 112.185 62.1765 107.296 66.4411 103.381C66.7764 103.322 69.9619 106.861 70.5362 107.318C66.0059 111.743 62.362 116.587 55.9428 118.337C38.6028 123.065 24.2859 104.599 33.2627 88.9733C35.4262 85.2081 43.6164 77.3229 47.1176 74.2301C52.1224 69.8086 59.0659 67.8484 65.6081 69.6909V69.6927Z" fill="#FDC06F"/>
<path d="M98.9375 116.75C110.846 116.75 120.5 107.096 120.5 95.1875C120.5 83.2789 110.846 73.625 98.9375 73.625C87.0289 73.625 77.375 83.2789 77.375 95.1875C77.375 107.096 87.0289 116.75 98.9375 116.75Z" fill="url(#paint0_linear_3404_2438)"/>
<path d="M106.561 105.351L98.9375 97.7278L91.314 105.351L88.7728 102.81L96.3963 95.1866L88.7728 87.5631L91.314 85.0219L98.9375 92.6454L106.561 85.0219L109.102 87.5631L101.479 95.1866L109.102 102.81L106.561 105.351Z" fill="white"/>
<path d="M99.8317 30.5357C112.921 31.5987 121.923 43.8841 117.989 56.6885C116.168 62.6136 111.596 66.1237 107.471 70.3865L107.112 70.5577C106.568 70.2331 103.13 66.9013 103.178 66.6267C107.378 62.1071 112.55 58.7468 113.141 52.0137C114.257 39.2717 99.45 31.5042 89.6563 39.7497C86.4191 42.4751 80.9238 48.0113 78.1664 51.245C75.1182 54.8193 73.7467 59.8258 75.0986 64.4043C74.3513 64.5381 69.7924 66.047 69.4981 65.7991C68.3941 61.0868 68.815 56.1195 70.9678 51.764C73.0243 47.6065 81.953 38.8918 85.7056 35.6207C89.0142 32.7367 93.5196 30.9192 97.9018 30.5357C98.4494 30.4876 99.2806 30.4911 99.8317 30.5357Z" fill="#FDC06F"/>
<path d="M91.2554 58.656C93.8987 58.269 95.5574 61.5936 93.6686 63.5342L63.4136 93.8106C60.608 96.0793 57.2637 92.901 59.2007 89.9474L89.7162 59.4051C90.1139 59.0877 90.7596 58.7292 91.2554 58.6578V58.656Z" fill="#FDC06F"/>
</g>
<defs>
<linearGradient id="paint0_linear_3404_2438" x1="89.5039" y1="81.2617" x2="110.168" y2="111.359" gradientUnits="userSpaceOnUse">
<stop stop-color="#FF8120"/>
<stop offset="1" stop-color="#E54304"/>
</linearGradient>
<clipPath id="clip0_3404_2438">
<rect width="89.9394" height="90" fill="white" transform="translate(30.5 30.5)"/>
</clipPath>
</defs>
</svg>
