<svg width="150" height="151" viewBox="0 0 150 151" fill="none" xmlns="http://www.w3.org/2000/svg">
<path d="M0 75.5C0 34.0786 33.5786 0.5 75 0.5C116.421 0.5 150 34.0786 150 75.5C150 116.921 116.421 150.5 75 150.5C33.5786 150.5 0 116.921 0 75.5Z" fill="#FFF5E6"/>
<g clip-path="url(#clip0_1191_14107)">
<path d="M77.5227 29.5625V37.1218H81.7409V114.289H87.0123V47.4921H105.992V91.7893C96.3012 89.5965 88.379 99.7643 93.2648 108.65C94.7266 111.308 97.6714 113.662 100.718 114.113V108.752C95.9119 106.515 95.8168 99.2958 100.849 97.2809C108.436 94.2427 113.118 104.934 105.99 108.752V114.289H114.777V119.562H37.1055V37.1218H41.3237V29.5625H77.5227ZM55.5563 47.6682H50.2849V55.0513H55.5563V47.6682ZM68.5614 47.6682H63.29V55.0513H68.5614V47.6682ZM50.2849 62.6089V70.1682H55.5563V62.6089H50.2849ZM68.5614 62.6089H63.29V70.1682H68.5614V62.6089ZM99.1368 62.6089H93.8653V70.1682H99.1368V62.6089ZM55.5563 77.5513H50.2849V85.1106H55.5563V77.5513ZM63.2882 77.5513V85.1106H68.5597V77.5513H63.2882ZM93.8653 77.5513V85.1106H99.1368V77.5513H93.8653ZM55.5563 92.6682H50.2849V100.051H55.5563V92.6682ZM68.5614 92.6682H63.29V100.051H68.5614V92.6682Z" fill="#FFC77D"/>
</g>
<defs>
<clipPath id="clip0_1191_14107">
<rect width="77.6712" height="90" fill="white" transform="translate(37.1055 29.5625)"/>
</clipPath>
</defs>
</svg>
