<svg width="48" height="56" viewBox="0 0 48 56" fill="none" xmlns="http://www.w3.org/2000/svg">
<g id="Layer_1">
<path id="Union" fill-rule="evenodd" clip-rule="evenodd" d="M24.7071 46.2072L24 46.9143L23.2929 46.2072L17.5729 40.4872L18.9871 39.073L24 44.0859L29.0129 39.073L30.4271 40.4872L24.7071 46.2072ZM20.18 4.50009C18.419 4.50009 16.7301 5.19966 15.4848 6.4449C14.2396 7.69014 13.54 9.37906 13.54 11.1401V20.6801C13.54 23.4543 14.642 26.1148 16.6037 28.0764C18.5653 30.0381 21.2258 31.1401 24 31.1401C26.7742 31.1401 29.4347 30.0381 31.3963 28.0764C33.358 26.1148 34.46 23.4543 34.46 20.6801V11.1401C34.46 9.37905 33.7604 7.69014 32.5152 6.4449C31.27 5.19966 29.581 4.50009 27.82 4.50009H20.18ZM14.0706 5.03069C15.6909 3.41037 17.8885 2.50009 20.18 2.50009H27.82C30.1115 2.50009 32.3091 3.41037 33.9294 5.03069C35.5497 6.651 36.46 8.84862 36.46 11.1401V20.6801C36.46 23.9847 35.1473 27.1539 32.8106 29.4906C30.4739 31.8273 27.3046 33.1401 24 33.1401C20.6954 33.1401 17.5262 31.8273 15.1895 29.4906C12.8528 27.1539 11.54 23.9847 11.54 20.6801V11.1401C11.54 8.84862 12.4503 6.651 14.0706 5.03069ZM22.9998 14.9606V9.24063H24.9998V14.9606H22.9998Z" fill="white"/>
</g>
</svg>
