<svg width="120" height="144" viewBox="0 0 120 144" fill="none" xmlns="http://www.w3.org/2000/svg">
<path d="M80.0015 4.10084C73.7435 2.00393 67.0141 0.857178 60.0047 0.857178C26.8616 0.857178 0 26.3384 0 57.7733C0 64.4245 1.20868 70.8088 3.4207 76.7438C11.6575 98.8503 33.8804 114.69 60.0047 114.69C60.0047 129.012 51.8472 140.751 41.5011 141.79C40.9271 141.846 40.6704 142.534 41.0765 142.942C41.2071 143.073 41.3798 143.143 41.5618 143.143C84.9016 142.974 119.991 104.827 120 57.7921C120 57.7827 120 57.778 120 57.7687C120 32.9895 103.302 11.9081 79.9969 4.09616L80.0015 4.10084Z" fill="url(#paint0_linear_779_9580)"/>
<path d="M32.6929 39.294H35.2489V55.602H32.6929V39.294ZM22.1269 46.224C22.1269 42.66 23.9629 40.392 26.4469 40.392C28.9309 40.392 30.7309 42.66 30.7309 46.224C30.7309 49.842 28.9309 52.092 26.4469 52.092C23.9629 52.092 22.1269 49.842 22.1269 46.224ZM24.5749 46.224C24.5749 48.6 25.3129 49.788 26.4469 49.788C27.5629 49.788 28.3189 48.6 28.3189 46.224C28.3189 43.884 27.5629 42.696 26.4469 42.696C25.3129 42.696 24.5749 43.884 24.5749 46.224ZM37.1934 51.768H43.2594V49.482H38.8494V43.884H47.7954V42.3H38.8314V40.32H50.2794V45.846H41.3514V47.484H50.6394V49.482H45.7794V51.768H51.8994V53.802H37.1934V51.768ZM59.9998 39.528C63.5998 39.528 65.9218 40.716 65.9218 42.678C65.9218 44.64 63.5998 45.81 59.9998 45.81C56.3818 45.81 54.0598 44.64 54.0598 42.678C54.0598 40.716 56.3818 39.528 59.9998 39.528ZM52.6378 48.546V46.548H67.3258V48.546H61.2418V49.824H65.5798V55.404H54.3298V49.824H58.7218V48.546H52.6378ZM56.6698 42.678C56.6698 43.524 57.8398 43.902 59.9998 43.902C62.1238 43.902 63.3118 43.524 63.3118 42.678C63.3118 41.832 62.1238 41.436 59.9998 41.436C57.8398 41.436 56.6698 41.832 56.6698 42.678ZM56.7958 53.424H63.1138V51.786H56.7958V53.424ZM69.9182 39.852H80.9522V41.832H72.4022V42.93H81.0962V44.892H76.7222V45.792H82.7882V47.772H68.1002V45.792H74.1842V44.892H69.9182V39.852ZM69.7562 50.364V48.51H81.0242V52.812H72.2582V53.586H81.4562V55.476H69.7742V51.066H78.5582V50.364H69.7562ZM83.5626 47.034H89.6106V45.9H85.4346V39.708H87.9186V40.986H93.8946V39.708H96.3966V45.9H92.1486V47.034H98.2506V49.032H83.5626V47.034ZM85.2546 55.404V49.95H96.5046V55.404H85.2546ZM87.7206 53.424H94.0386V51.93H87.7206V53.424ZM87.9186 43.938H93.8946V42.84H87.9186V43.938Z" fill="white"/>
<path d="M28.5793 63.0082H31.0993V68.9302H33.3853V71.0002H31.0993V79.3162H28.5793V63.0082ZM18.9313 75.4282V64.5022H26.5093V66.5362H21.4513V73.3402C23.6473 73.3042 25.5193 73.2142 27.5533 72.8542L27.7873 74.9242C25.3393 75.3742 23.0893 75.4282 20.3173 75.4282H18.9313ZM33.7818 70.8562H48.4878V72.8362H42.5298V75.5182H39.9738V72.8362H33.7818V70.8562ZM35.2398 66.6982C35.2398 64.6282 37.5978 63.2962 41.1258 63.2962C44.6358 63.2962 46.9938 64.6282 46.9938 66.6982C46.9938 68.7682 44.6358 70.1002 41.1258 70.1002C37.5978 70.1002 35.2398 68.7682 35.2398 66.6982ZM35.4558 79.0102V74.1142H37.9938V76.9942H46.8858V79.0102H35.4558ZM37.9578 66.6982C37.9578 67.6342 39.1638 68.1022 41.1258 68.1022C43.0698 68.1022 44.2758 67.6342 44.2758 66.6982C44.2758 65.7442 43.0698 65.2942 41.1258 65.2942C39.1638 65.2942 37.9578 65.7442 37.9578 66.6982ZM49.2442 75.4822H55.3102V73.1962H50.9002V67.5982H59.8462V66.0142H50.8822V64.0342H62.3302V69.5602H53.4022V71.1982H62.6902V73.1962H57.8302V75.4822H63.9502V77.5162H49.2442V75.4822ZM66.3806 64.3042H77.7386V66.3562H68.8826V70.4602H77.8646V72.4402H66.3806V64.3042ZM64.7066 77.3902V75.3202H79.4126V77.3902H64.7066Z" fill="white"/>
<path d="M87.321 75.8931C87.1978 75.7699 87.1285 75.6028 87.1285 75.4285L87.1285 72.5713C87.1285 72.1453 86.7831 71.7999 86.3571 71.7999C85.931 71.7999 85.5857 72.1453 85.5857 72.5713L85.5857 75.4285C85.5857 76.0119 85.8174 76.5715 86.23 76.9841C86.6426 77.3967 87.2022 77.6285 87.7857 77.6285H97.7857C98.3691 77.6285 98.9287 77.3967 99.3413 76.9841C99.7539 76.5715 99.9857 76.0119 99.9857 75.4285V72.5713C99.9857 72.1453 99.6403 71.7999 99.2142 71.7999C98.7882 71.7999 98.4428 72.1453 98.4428 72.5713V75.4285C98.4428 75.6028 98.3736 75.7699 98.2503 75.8931C98.1271 76.0164 97.9599 76.0856 97.7857 76.0856H87.7857C87.6114 76.0856 87.4442 76.0164 87.321 75.8931ZM96.9026 70.1168C97.2039 69.8155 97.2039 69.3271 96.9026 69.0258C96.6013 68.7246 96.1129 68.7246 95.8116 69.0258L93.5571 71.2804V63.5713C93.5571 63.1453 93.2117 62.7999 92.7857 62.7999C92.3596 62.7999 92.0142 63.1453 92.0142 63.5713L92.0142 71.2803L89.7597 69.0258C89.4585 68.7246 88.97 68.7246 88.6688 69.0258C88.3675 69.3271 88.3675 69.8155 88.6688 70.1168L92.2402 73.6882C92.5415 73.9895 93.0299 73.9895 93.3312 73.6882L96.9026 70.1168Z" fill="white" stroke="white" stroke-width="0.257143" stroke-linecap="round" stroke-linejoin="round"/>
<defs>
<linearGradient id="paint0_linear_779_9580" x1="33.75" y1="26.0536" x2="105.287" y2="113.93" gradientUnits="userSpaceOnUse">
<stop stop-color="#FF8120"/>
<stop offset="1" stop-color="#E54304"/>
</linearGradient>
</defs>
</svg>
